<svg xmlns="http://www.w3.org/2000/svg" xmlns:xlink="http://www.w3.org/1999/xlink" width="450" zoomAndPan="magnify" viewBox="0 0 337.5 374.999991" height="500" preserveAspectRatio="xMidYMid meet" version="1.0"><defs><clipPath id="6286372bb3"><path d="M 0 52.777344 L 303.75 52.777344 L 303.75 323 L 0 323 Z M 0 52.777344 " clip-rule="nonzero"/></clipPath><clipPath id="b69040c56f"><path d="M 7.917969 142.824219 C 3.136719 156.667969 0 172.40625 0 187.851562 C 0 203.296875 2.6875 218.15625 7.46875 231.855469 C 7.621094 232.144531 7.621094 232.4375 7.769531 232.730469 C 26.890625 284.164062 77.390625 322.050781 135.65625 322.777344 L 303.75 322.777344 L 303.75 52.777344 L 135.78125 52.777344 C 77.09375 53.507812 26.59375 90.808594 7.917969 142.824219 " clip-rule="nonzero"/></clipPath><clipPath id="89aea11cad"><path d="M 0 52.777344 L 303.75 52.777344 L 303.75 322.777344 L 0 322.777344 Z M 0 52.777344 " clip-rule="nonzero"/></clipPath><clipPath id="ee52962d12"><path d="M 7.917969 142.824219 C 3.136719 156.667969 0 172.40625 0 187.851562 C 0 203.296875 2.6875 218.15625 7.46875 231.855469 C 7.621094 232.144531 7.621094 232.4375 7.769531 232.730469 C 26.890625 284.164062 77.390625 322.050781 135.65625 322.777344 L 303.75 322.777344 L 303.75 52.777344 L 135.78125 52.777344 C 77.09375 53.507812 26.59375 90.808594 7.917969 142.824219 " clip-rule="nonzero"/></clipPath><clipPath id="329c72c0e2"><path d="M 33 78 L 250 78 L 250 295 L 33 295 Z M 33 78 " clip-rule="nonzero"/></clipPath><clipPath id="9c24cc9b06"><path d="M 36.070312 75.746094 L 252.3125 80.347656 L 247.710938 296.585938 L 31.46875 291.984375 Z M 36.070312 75.746094 " clip-rule="nonzero"/></clipPath><clipPath id="a819e77a5c"><path d="M 144.046875 78.042969 C 84.414062 76.773438 35.042969 124.085938 33.773438 183.71875 C 32.503906 243.355469 79.820312 292.726562 139.453125 293.992188 C 199.085938 295.261719 248.457031 247.949219 249.726562 188.316406 C 250.996094 128.683594 203.679688 79.3125 144.046875 78.042969 " clip-rule="nonzero"/></clipPath><clipPath id="931308a7df"><path d="M 33 78 L 250 78 L 250 295 L 33 295 Z M 33 78 " clip-rule="nonzero"/></clipPath><clipPath id="68349c1d1f"><path d="M 36.070312 75.746094 L 252.023438 80.339844 L 247.429688 296.292969 L 31.476562 291.695312 Z M 36.070312 75.746094 " clip-rule="nonzero"/></clipPath><clipPath id="66e488d24b"><path d="M 36.070312 75.746094 L 255.078125 80.40625 L 250.417969 299.410156 L 31.410156 294.75 Z M 36.070312 75.746094 " clip-rule="nonzero"/></clipPath><clipPath id="f0eba11ad4"><path d="M 144.046875 78.042969 C 84.414062 76.773438 35.042969 124.085938 33.773438 183.71875 C 32.503906 243.355469 79.820312 292.726562 139.453125 293.992188 C 199.085938 295.261719 248.457031 247.949219 249.726562 188.316406 C 250.996094 128.683594 203.679688 79.3125 144.046875 78.042969 " clip-rule="nonzero"/></clipPath><clipPath id="0199989fd5"><path d="M 131 119 L 149 119 L 149 151 L 131 151 Z M 131 119 " clip-rule="nonzero"/></clipPath><clipPath id="37df724487"><path d="M 131.117188 119.074219 L 149.28125 119.003906 L 149.40625 150.925781 L 131.242188 150.996094 Z M 131.117188 119.074219 " clip-rule="nonzero"/></clipPath><clipPath id="a9d6094e8a"><path d="M 131.117188 119.074219 L 148.882812 119.003906 L 149.007812 150.730469 L 131.242188 150.800781 Z M 131.117188 119.074219 " clip-rule="nonzero"/></clipPath><clipPath id="353a85096f"><path d="M 164 192 L 201 192 L 201 224 L 164 224 Z M 164 192 " clip-rule="nonzero"/></clipPath><clipPath id="436ad76b12"><path d="M 164.089844 207.785156 L 173.28125 192.117188 L 200.816406 208.277344 L 191.621094 223.941406 Z M 164.089844 207.785156 " clip-rule="nonzero"/></clipPath><clipPath id="b4407d942f"><path d="M 164.089844 207.785156 L 173.082031 192.460938 L 200.445312 208.519531 L 191.453125 223.84375 Z M 164.089844 207.785156 " clip-rule="nonzero"/></clipPath><clipPath id="014d948cd1"><path d="M 97 134 L 183 134 L 183 209 L 97 209 Z M 97 134 " clip-rule="nonzero"/></clipPath><clipPath id="1e65f76f62"><path d="M 118.78125 244.738281 L 76.234375 170.921875 L 140.335938 133.972656 L 182.882812 207.789062 Z M 118.78125 244.738281 " clip-rule="nonzero"/></clipPath><clipPath id="70add46a3a"><path d="M 97.671875 208.113281 L 140.042969 134.898438 L 182.265625 208.144531 L 97.671875 208.113281 " clip-rule="nonzero"/></clipPath><clipPath id="2ed2d85854"><path d="M 86 188 L 123 188 L 123 220 L 86 220 Z M 86 188 " clip-rule="nonzero"/></clipPath><clipPath id="c7ec98c4ce"><path d="M 95.269531 219.753906 L 86.199219 204.019531 L 113.859375 188.074219 L 122.929688 203.8125 Z M 95.269531 219.753906 " clip-rule="nonzero"/></clipPath><clipPath id="1343bb4e20"><path d="M 95.269531 219.753906 L 86.398438 204.363281 L 113.886719 188.519531 L 122.757812 203.910156 Z M 95.269531 219.753906 " clip-rule="nonzero"/></clipPath><clipPath id="ee67305c00"><path d="M 45 194 L 101 194 L 101 251 L 45 251 Z M 45 194 " clip-rule="nonzero"/></clipPath><clipPath id="8c3305e3e0"><path d="M 110.761719 233.398438 L 61.945312 260.058594 L 35.285156 211.242188 L 84.101562 184.582031 Z M 110.761719 233.398438 " clip-rule="nonzero"/></clipPath><clipPath id="9ea353c261"><path d="M 86.355469 246.730469 C 99.835938 239.367188 104.792969 222.472656 97.433594 208.992188 C 90.070312 195.511719 73.175781 190.550781 59.695312 197.914062 C 46.214844 205.273438 41.253906 222.171875 48.617188 235.652344 C 55.976562 249.132812 72.875 254.09375 86.355469 246.730469 " clip-rule="nonzero"/></clipPath><clipPath id="bca5e1f55b"><path d="M 45 194 L 101 194 L 101 251 L 45 251 Z M 45 194 " clip-rule="nonzero"/></clipPath><clipPath id="d96c4f9b8f"><path d="M 110.761719 233.398438 L 62.054688 260 L 35.453125 211.292969 L 84.160156 184.691406 Z M 110.761719 233.398438 " clip-rule="nonzero"/></clipPath><clipPath id="ef8f7c1eeb"><path d="M 110.761719 233.398438 L 62.054688 260 L 35.453125 211.292969 L 84.160156 184.691406 Z M 110.761719 233.398438 " clip-rule="nonzero"/></clipPath><clipPath id="19769ca63b"><path d="M 86.40625 246.699219 C 99.859375 239.355469 104.808594 222.496094 97.460938 209.046875 C 90.117188 195.59375 73.257812 190.644531 59.804688 197.992188 C 46.355469 205.335938 41.40625 222.195312 48.753906 235.648438 C 56.097656 249.097656 72.957031 254.046875 86.40625 246.699219 " clip-rule="nonzero"/></clipPath><clipPath id="888a9f70a9"><path d="M 180 195 L 237 195 L 237 251 L 180 251 Z M 180 195 " clip-rule="nonzero"/></clipPath><clipPath id="05e7a9b48e"><path d="M 218.351562 261.167969 L 170.210938 233.304688 L 198.074219 185.167969 L 246.214844 213.03125 Z M 218.351562 261.167969 " clip-rule="nonzero"/></clipPath><clipPath id="a0c71b34f8"><path d="M 194.28125 247.238281 C 207.574219 254.933594 224.589844 250.394531 232.285156 237.101562 C 239.976562 223.804688 235.4375 206.792969 222.144531 199.097656 C 208.851562 191.402344 191.839844 195.941406 184.144531 209.234375 C 176.449219 222.53125 180.988281 239.542969 194.28125 247.238281 " clip-rule="nonzero"/></clipPath><clipPath id="141e25c628"><path d="M 180 195 L 236 195 L 236 252 L 180 252 Z M 180 195 " clip-rule="nonzero"/></clipPath><clipPath id="77f3a5de38"><path d="M 218.351562 261.167969 L 170.316406 233.367188 L 198.121094 185.332031 L 246.15625 213.136719 Z M 218.351562 261.167969 " clip-rule="nonzero"/></clipPath><clipPath id="22e7efcef7"><path d="M 218.351562 261.167969 L 170.316406 233.367188 L 198.121094 185.332031 L 246.15625 213.136719 Z M 218.351562 261.167969 " clip-rule="nonzero"/></clipPath><clipPath id="4b4a1378d1"><path d="M 194.335938 247.269531 C 207.597656 254.945312 224.574219 250.417969 232.253906 237.152344 C 239.929688 223.886719 235.402344 206.910156 222.136719 199.234375 C 208.875 191.558594 191.898438 196.085938 184.21875 209.351562 C 176.542969 222.613281 181.070312 239.589844 194.335938 247.269531 " clip-rule="nonzero"/></clipPath><clipPath id="4f3547b533"><path d="M 112 81 L 169 81 L 169 137 L 112 137 Z M 112 81 " clip-rule="nonzero"/></clipPath><clipPath id="ca0b9a4ce1"><path d="M 177.980469 120.140625 L 129.164062 146.800781 L 102.503906 97.984375 L 151.320312 71.324219 Z M 177.980469 120.140625 " clip-rule="nonzero"/></clipPath><clipPath id="9284bfe7f0"><path d="M 153.570312 133.472656 C 167.050781 126.109375 172.011719 109.214844 164.648438 95.734375 C 157.289062 82.253906 140.390625 77.292969 126.910156 84.65625 C 113.429688 92.015625 108.472656 108.914062 115.832031 122.394531 C 123.195312 135.875 140.089844 140.832031 153.570312 133.472656 " clip-rule="nonzero"/></clipPath><clipPath id="ad67f6f876"><path d="M 112 81 L 169 81 L 169 137 L 112 137 Z M 112 81 " clip-rule="nonzero"/></clipPath><clipPath id="3555dc97c5"><path d="M 177.980469 120.140625 L 129.269531 146.742188 L 102.667969 98.035156 L 151.378906 71.433594 Z M 177.980469 120.140625 " clip-rule="nonzero"/></clipPath><clipPath id="fc84f31fd2"><path d="M 177.980469 120.140625 L 129.269531 146.742188 L 102.667969 98.035156 L 151.378906 71.433594 Z M 177.980469 120.140625 " clip-rule="nonzero"/></clipPath><clipPath id="c833951deb"><path d="M 153.625 133.441406 C 167.074219 126.097656 172.023438 109.238281 164.679688 95.785156 C 157.332031 82.335938 140.472656 77.386719 127.023438 84.734375 C 113.574219 92.078125 108.625 108.9375 115.96875 122.386719 C 123.316406 135.839844 140.175781 140.789062 153.625 133.441406 " clip-rule="nonzero"/></clipPath><clipPath id="430bd16d31"><path d="M 66 215 L 81 215 L 81 230 L 66 230 Z M 66 215 " clip-rule="nonzero"/></clipPath><clipPath id="0889be3162"><path d="M 70.46875 231.855469 L 63.496094 219.761719 L 75.589844 212.789062 L 82.5625 224.882812 Z M 70.46875 231.855469 " clip-rule="nonzero"/></clipPath><clipPath id="64b90e34ae"><path d="M 66.980469 225.808594 C 68.90625 229.148438 73.175781 230.292969 76.515625 228.371094 C 79.855469 226.445312 81 222.175781 79.078125 218.835938 C 77.152344 215.496094 72.882812 214.351562 69.542969 216.273438 C 66.203125 218.199219 65.058594 222.46875 66.980469 225.808594 " clip-rule="nonzero"/></clipPath><clipPath id="5ea7f85a38"><path d="M 201 216 L 216 216 L 216 231 L 201 231 Z M 201 216 " clip-rule="nonzero"/></clipPath><clipPath id="bc0b624f66"><path d="M 198.679688 225.714844 L 205.671875 213.636719 L 217.753906 220.628906 L 210.761719 232.710938 Z M 198.679688 225.714844 " clip-rule="nonzero"/></clipPath><clipPath id="1e672a682f"><path d="M 202.175781 219.675781 C 200.246094 223.011719 201.386719 227.28125 204.722656 229.214844 C 208.058594 231.144531 212.328125 230.003906 214.257812 226.667969 C 216.191406 223.332031 215.050781 219.0625 211.714844 217.132812 C 208.378906 215.199219 204.109375 216.339844 202.175781 219.675781 " clip-rule="nonzero"/></clipPath><clipPath id="51a443f15b"><path d="M 132 102 L 147 102 L 147 117 L 132 117 Z M 132 102 " clip-rule="nonzero"/></clipPath><clipPath id="9e0995be4c"><path d="M 136.644531 118.617188 L 129.675781 106.523438 L 141.769531 99.550781 L 148.742188 111.644531 Z M 136.644531 118.617188 " clip-rule="nonzero"/></clipPath><clipPath id="d67a1cef91"><path d="M 133.160156 112.570312 C 135.085938 115.910156 139.355469 117.054688 142.695312 115.132812 C 146.03125 113.207031 147.179688 108.9375 145.253906 105.597656 C 143.328125 102.257812 139.0625 101.113281 135.722656 103.035156 C 132.382812 104.960938 131.234375 109.230469 133.160156 112.570312 " clip-rule="nonzero"/></clipPath><clipPath id="cdc9cb8e60"><path d="M 72 132 L 101 132 L 101 173 L 72 173 Z M 72 132 " clip-rule="nonzero"/></clipPath><clipPath id="154af7892e"><path d="M 100.875 132.539062 L 80.917969 175.367188 L 68.683594 169.664062 L 88.636719 126.835938 Z M 100.875 132.539062 " clip-rule="nonzero"/></clipPath><clipPath id="5ce5253a61"><path d="M 100.875 132.539062 L 80.917969 175.367188 L 68.683594 169.664062 L 88.636719 126.835938 Z M 100.875 132.539062 " clip-rule="nonzero"/></clipPath><clipPath id="a7b0ea4b9b"><path d="M 100.875 132.539062 L 80.917969 175.367188 L 68.683594 169.664062 L 88.636719 126.835938 Z M 100.875 132.539062 " clip-rule="nonzero"/></clipPath><clipPath id="97e8f84a7a"><path d="M 92 136 L 93 136 L 93 137 L 92 137 Z M 92 136 " clip-rule="nonzero"/></clipPath><clipPath id="c620d2321f"><path d="M 100.875 132.539062 L 80.917969 175.367188 L 68.683594 169.664062 L 88.636719 126.835938 Z M 100.875 132.539062 " clip-rule="nonzero"/></clipPath><clipPath id="1ca4c8370e"><path d="M 100.875 132.539062 L 80.917969 175.367188 L 68.683594 169.664062 L 88.636719 126.835938 Z M 100.875 132.539062 " clip-rule="nonzero"/></clipPath><clipPath id="4b029c13c8"><path d="M 100.875 132.539062 L 80.917969 175.367188 L 68.683594 169.664062 L 88.636719 126.835938 Z M 100.875 132.539062 " clip-rule="nonzero"/></clipPath><clipPath id="a0619e09fa"><path d="M 183 130 L 208 130 L 208 174 L 183 174 Z M 183 130 " clip-rule="nonzero"/></clipPath><clipPath id="4514adfe48"><path d="M 204.085938 173.773438 L 180.550781 132.804688 L 192.257812 126.078125 L 215.792969 167.050781 Z M 204.085938 173.773438 " clip-rule="nonzero"/></clipPath><clipPath id="12ba48d331"><path d="M 204.085938 173.773438 L 180.550781 132.804688 L 192.257812 126.078125 L 215.792969 167.050781 Z M 204.085938 173.773438 " clip-rule="nonzero"/></clipPath><clipPath id="d6e79030ed"><path d="M 204.085938 173.773438 L 180.550781 132.804688 L 192.257812 126.078125 L 215.792969 167.050781 Z M 204.085938 173.773438 " clip-rule="nonzero"/></clipPath><clipPath id="0de83167fc"><path d="M 205 164 L 206 164 L 206 165 L 205 165 Z M 205 164 " clip-rule="nonzero"/></clipPath><clipPath id="76ae676e3f"><path d="M 204.085938 173.773438 L 180.550781 132.804688 L 192.257812 126.078125 L 215.792969 167.050781 Z M 204.085938 173.773438 " clip-rule="nonzero"/></clipPath><clipPath id="e5c40230a8"><path d="M 204.085938 173.773438 L 180.550781 132.804688 L 192.257812 126.078125 L 215.792969 167.050781 Z M 204.085938 173.773438 " clip-rule="nonzero"/></clipPath><clipPath id="b23cb94c79"><path d="M 204.085938 173.773438 L 180.550781 132.804688 L 192.257812 126.078125 L 215.792969 167.050781 Z M 204.085938 173.773438 " clip-rule="nonzero"/></clipPath><clipPath id="fe3f928217"><path d="M 119 242 L 166 242 L 166 258 L 119 258 Z M 119 242 " clip-rule="nonzero"/></clipPath><clipPath id="5d3909604e"><path d="M 119.183594 242.429688 L 166.261719 246.445312 L 165.113281 259.894531 L 118.035156 255.882812 Z M 119.183594 242.429688 " clip-rule="nonzero"/></clipPath><clipPath id="1218b5f8ea"><path d="M 119.183594 242.429688 L 166.261719 246.445312 L 165.113281 259.894531 L 118.035156 255.882812 Z M 119.183594 242.429688 " clip-rule="nonzero"/></clipPath><clipPath id="8df96a5e5b"><path d="M 119.183594 242.429688 L 166.261719 246.445312 L 165.113281 259.894531 L 118.035156 255.882812 Z M 119.183594 242.429688 " clip-rule="nonzero"/></clipPath><clipPath id="1c40b161ee"><path d="M 125 249 L 126 249 L 126 250 L 125 250 Z M 125 249 " clip-rule="nonzero"/></clipPath><clipPath id="d60cdde217"><path d="M 119.183594 242.429688 L 166.261719 246.445312 L 165.113281 259.894531 L 118.035156 255.882812 Z M 119.183594 242.429688 " clip-rule="nonzero"/></clipPath><clipPath id="f97092e71e"><path d="M 119.183594 242.429688 L 166.261719 246.445312 L 165.113281 259.894531 L 118.035156 255.882812 Z M 119.183594 242.429688 " clip-rule="nonzero"/></clipPath><clipPath id="982b299764"><path d="M 119.183594 242.429688 L 166.261719 246.445312 L 165.113281 259.894531 L 118.035156 255.882812 Z M 119.183594 242.429688 " clip-rule="nonzero"/></clipPath><clipPath id="28a1354e71"><path d="M 278 297.128906 L 295 297.128906 L 295 318.128906 L 278 318.128906 Z M 278 297.128906 " clip-rule="nonzero"/></clipPath><clipPath id="5cca5b310c"><path d="M 266.625 297.128906 L 283 297.128906 L 283 318.128906 L 266.625 318.128906 Z M 266.625 297.128906 " clip-rule="nonzero"/></clipPath><clipPath id="c0cff85be5"><path d="M 241 297.128906 L 258 297.128906 L 258 318.128906 L 241 318.128906 Z M 241 297.128906 " clip-rule="nonzero"/></clipPath><clipPath id="ad01e03a3b"><path d="M 229.5 297.128906 L 246 297.128906 L 246 318.128906 L 229.5 318.128906 Z M 229.5 297.128906 " clip-rule="nonzero"/></clipPath><clipPath id="b7baccf0e8"><path d="M 204 297.128906 L 220.875 297.128906 L 220.875 318.128906 L 204 318.128906 Z M 204 297.128906 " clip-rule="nonzero"/></clipPath><clipPath id="7ac3dc8286"><path d="M 192.375 297.128906 L 209 297.128906 L 209 318.128906 L 192.375 318.128906 Z M 192.375 297.128906 " clip-rule="nonzero"/></clipPath><clipPath id="83e9caf53c"><path d="M 167 297.128906 L 183.75 297.128906 L 183.75 318.128906 L 167 318.128906 Z M 167 297.128906 " clip-rule="nonzero"/></clipPath><clipPath id="e6360b0ef0"><path d="M 155.25 297.128906 L 172 297.128906 L 172 318.128906 L 155.25 318.128906 Z M 155.25 297.128906 " clip-rule="nonzero"/></clipPath><clipPath id="22f1f03783"><path d="M 130 297 L 147 297 L 147 319 L 130 319 Z M 130 297 " clip-rule="nonzero"/></clipPath><clipPath id="fe18f096a4"><path d="M 117.945312 297.378906 L 146.441406 296.875 L 146.8125 317.871094 L 118.316406 318.375 Z M 117.945312 297.378906 " clip-rule="nonzero"/></clipPath><clipPath id="c7c752779e"><path d="M 117.945312 297.378906 L 146.441406 296.875 L 146.8125 317.871094 L 118.316406 318.375 Z M 117.945312 297.378906 " clip-rule="nonzero"/></clipPath><clipPath id="cdb8c6e7c0"><path d="M 117 297 L 135 297 L 135 319 L 117 319 Z M 117 297 " clip-rule="nonzero"/></clipPath><clipPath id="2864f3520e"><path d="M 117.945312 297.378906 L 146.441406 296.875 L 146.8125 317.871094 L 118.316406 318.375 Z M 117.945312 297.378906 " clip-rule="nonzero"/></clipPath><clipPath id="0485da02ed"><path d="M 117.945312 297.378906 L 146.441406 296.875 L 146.8125 317.871094 L 118.316406 318.375 Z M 117.945312 297.378906 " clip-rule="nonzero"/></clipPath><clipPath id="05514f31ee"><path d="M 80 284 L 100 284 L 100 306 L 80 306 Z M 80 284 " clip-rule="nonzero"/></clipPath><clipPath id="ba7d48ebab"><path d="M 81.105469 277.734375 L 105.09375 293.121094 L 93.757812 310.796875 L 69.765625 295.410156 Z M 81.105469 277.734375 " clip-rule="nonzero"/></clipPath><clipPath id="f34760372d"><path d="M 81.105469 277.734375 L 105.09375 293.121094 L 93.757812 310.796875 L 69.765625 295.410156 Z M 81.105469 277.734375 " clip-rule="nonzero"/></clipPath><clipPath id="97ad6d0b61"><path d="M 70 278 L 90 278 L 90 300 L 70 300 Z M 70 278 " clip-rule="nonzero"/></clipPath><clipPath id="5917be4154"><path d="M 81.105469 277.734375 L 105.09375 293.121094 L 93.757812 310.796875 L 69.765625 295.410156 Z M 81.105469 277.734375 " clip-rule="nonzero"/></clipPath><clipPath id="0dee5e3195"><path d="M 81.105469 277.734375 L 105.09375 293.121094 L 93.757812 310.796875 L 69.765625 295.410156 Z M 81.105469 277.734375 " clip-rule="nonzero"/></clipPath><clipPath id="dc30690fe4"><path d="M 42 264 L 62 264 L 62 285 L 42 285 Z M 42 264 " clip-rule="nonzero"/></clipPath><clipPath id="212ba38017"><path d="M 48.058594 255.742188 L 68.585938 275.511719 L 54.019531 290.636719 L 33.492188 270.867188 Z M 48.058594 255.742188 " clip-rule="nonzero"/></clipPath><clipPath id="cf837899c0"><path d="M 48.058594 255.742188 L 68.585938 275.511719 L 54.019531 290.636719 L 33.492188 270.867188 Z M 48.058594 255.742188 " clip-rule="nonzero"/></clipPath><clipPath id="2aa8856995"><path d="M 33 256 L 54 256 L 54 276 L 33 276 Z M 33 256 " clip-rule="nonzero"/></clipPath><clipPath id="ec2d759d41"><path d="M 48.058594 255.742188 L 68.585938 275.511719 L 54.019531 290.636719 L 33.492188 270.867188 Z M 48.058594 255.742188 " clip-rule="nonzero"/></clipPath><clipPath id="2d0787bc91"><path d="M 48.058594 255.742188 L 68.585938 275.511719 L 54.019531 290.636719 L 33.492188 270.867188 Z M 48.058594 255.742188 " clip-rule="nonzero"/></clipPath><clipPath id="4ee95a4a90"><path d="M 19 232 L 41 232 L 41 251 L 19 251 Z M 19 232 " clip-rule="nonzero"/></clipPath><clipPath id="345c2a294c"><path d="M 31.21875 221.023438 L 45.539062 245.664062 L 27.386719 256.21875 L 13.0625 231.578125 Z M 31.21875 221.023438 " clip-rule="nonzero"/></clipPath><clipPath id="43c1c2fba5"><path d="M 31.21875 221.023438 L 45.539062 245.664062 L 27.386719 256.21875 L 13.0625 231.578125 Z M 31.21875 221.023438 " clip-rule="nonzero"/></clipPath><clipPath id="5007c0e878"><path d="M 13 221 L 35 221 L 35 241 L 13 241 Z M 13 221 " clip-rule="nonzero"/></clipPath><clipPath id="7c1a584b6f"><path d="M 31.21875 221.023438 L 45.539062 245.664062 L 27.386719 256.21875 L 13.0625 231.578125 Z M 31.21875 221.023438 " clip-rule="nonzero"/></clipPath><clipPath id="fabe222651"><path d="M 31.21875 221.023438 L 45.539062 245.664062 L 27.386719 256.21875 L 13.0625 231.578125 Z M 31.21875 221.023438 " clip-rule="nonzero"/></clipPath><clipPath id="59a2402de7"><path d="M 8.878906 184 L 29.878906 184 L 29.878906 200.4375 L 8.878906 200.4375 Z M 8.878906 184 " clip-rule="nonzero"/></clipPath><clipPath id="a8deac9e9f"><path d="M 8.878906 171.9375 L 29.878906 171.9375 L 29.878906 188 L 8.878906 188 Z M 8.878906 171.9375 " clip-rule="nonzero"/></clipPath><clipPath id="f93b4ed1e8"><path d="M 18 126 L 39 126 L 39 146 L 18 146 Z M 18 126 " clip-rule="nonzero"/></clipPath><clipPath id="3ec1f284d3"><path d="M 46.378906 127.648438 L 30.144531 151.074219 L 12.882812 139.109375 L 29.117188 115.6875 Z M 46.378906 127.648438 " clip-rule="nonzero"/></clipPath><clipPath id="7e6ce0d8b6"><path d="M 46.378906 127.648438 L 30.144531 151.074219 L 12.882812 139.109375 L 29.117188 115.6875 Z M 46.378906 127.648438 " clip-rule="nonzero"/></clipPath><clipPath id="9133c55aec"><path d="M 25 116 L 46 116 L 46 136 L 25 136 Z M 25 116 " clip-rule="nonzero"/></clipPath><clipPath id="72f0e98f50"><path d="M 46.378906 127.648438 L 30.144531 151.074219 L 12.882812 139.109375 L 29.117188 115.6875 Z M 46.378906 127.648438 " clip-rule="nonzero"/></clipPath><clipPath id="b9d4ed7ac1"><path d="M 46.378906 127.648438 L 30.144531 151.074219 L 12.882812 139.109375 L 29.117188 115.6875 Z M 46.378906 127.648438 " clip-rule="nonzero"/></clipPath><clipPath id="c045c5b4e1"><path d="M 44 90 L 64 90 L 64 111 L 44 111 Z M 44 90 " clip-rule="nonzero"/></clipPath><clipPath id="b0415277c3"><path d="M 72.519531 97.335938 L 51.425781 116.5 L 37.304688 100.957031 L 58.398438 81.792969 Z M 72.519531 97.335938 " clip-rule="nonzero"/></clipPath><clipPath id="1f6fe9bef5"><path d="M 72.519531 97.335938 L 51.425781 116.5 L 37.304688 100.957031 L 58.398438 81.792969 Z M 72.519531 97.335938 " clip-rule="nonzero"/></clipPath><clipPath id="ef47473159"><path d="M 53 82 L 73 82 L 73 102 L 53 102 Z M 53 82 " clip-rule="nonzero"/></clipPath><clipPath id="cf907805e8"><path d="M 72.519531 97.335938 L 51.425781 116.5 L 37.304688 100.957031 L 58.398438 81.792969 Z M 72.519531 97.335938 " clip-rule="nonzero"/></clipPath><clipPath id="7a4ae17893"><path d="M 72.519531 97.335938 L 51.425781 116.5 L 37.304688 100.957031 L 58.398438 81.792969 Z M 72.519531 97.335938 " clip-rule="nonzero"/></clipPath><clipPath id="91eacfa56e"><path d="M 74 67 L 94 67 L 94 90 L 74 90 Z M 74 67 " clip-rule="nonzero"/></clipPath><clipPath id="c290c79639"><path d="M 104.921875 81.058594 L 79.34375 93.632812 L 70.078125 74.785156 L 95.65625 62.214844 Z M 104.921875 81.058594 " clip-rule="nonzero"/></clipPath><clipPath id="c8eac4ff06"><path d="M 104.921875 81.058594 L 79.34375 93.632812 L 70.078125 74.785156 L 95.65625 62.214844 Z M 104.921875 81.058594 " clip-rule="nonzero"/></clipPath><clipPath id="c1121fd309"><path d="M 85 62 L 105 62 L 105 85 L 85 85 Z M 85 62 " clip-rule="nonzero"/></clipPath><clipPath id="6da45fdfe2"><path d="M 104.921875 81.058594 L 79.34375 93.632812 L 70.078125 74.785156 L 95.65625 62.214844 Z M 104.921875 81.058594 " clip-rule="nonzero"/></clipPath><clipPath id="a95b53ae18"><path d="M 104.921875 81.058594 L 79.34375 93.632812 L 70.078125 74.785156 L 95.65625 62.214844 Z M 104.921875 81.058594 " clip-rule="nonzero"/></clipPath><clipPath id="4fe3db4d35"><path d="M 117.785156 57.015625 L 135 57.015625 L 135 78 L 117.785156 78 Z M 117.785156 57.015625 " clip-rule="nonzero"/></clipPath><clipPath id="33004f6045"><path d="M 130 57.015625 L 146.285156 57.015625 L 146.285156 78 L 130 78 Z M 130 57.015625 " clip-rule="nonzero"/></clipPath><clipPath id="937b5ba17d"><path d="M 154 56 L 171 56 L 171 78 L 154 78 Z M 154 56 " clip-rule="nonzero"/></clipPath><clipPath id="a2994b7749"><path d="M 182.511719 78.015625 L 154.023438 77.15625 L 154.65625 56.164062 L 183.144531 57.023438 Z M 182.511719 78.015625 " clip-rule="nonzero"/></clipPath><clipPath id="3fb0882913"><path d="M 182.511719 78.015625 L 154.023438 77.15625 L 154.65625 56.164062 L 183.144531 57.023438 Z M 182.511719 78.015625 " clip-rule="nonzero"/></clipPath><clipPath id="dca0afc031"><path d="M 166 56 L 184 56 L 184 78 L 166 78 Z M 166 56 " clip-rule="nonzero"/></clipPath><clipPath id="85fff945af"><path d="M 182.511719 78.015625 L 154.023438 77.15625 L 154.65625 56.164062 L 183.144531 57.023438 Z M 182.511719 78.015625 " clip-rule="nonzero"/></clipPath><clipPath id="78033d0d16"><path d="M 182.511719 78.015625 L 154.023438 77.15625 L 154.65625 56.164062 L 183.144531 57.023438 Z M 182.511719 78.015625 " clip-rule="nonzero"/></clipPath><clipPath id="7436ecb393"><path d="M 266 56 L 283 56 L 283 78 L 266 78 Z M 266 56 " clip-rule="nonzero"/></clipPath><clipPath id="fd36d25d0b"><path d="M 294.164062 78.015625 L 265.675781 77.15625 L 266.308594 56.164062 L 294.796875 57.023438 Z M 294.164062 78.015625 " clip-rule="nonzero"/></clipPath><clipPath id="ba9057c070"><path d="M 294.164062 78.015625 L 265.675781 77.15625 L 266.308594 56.164062 L 294.796875 57.023438 Z M 294.164062 78.015625 " clip-rule="nonzero"/></clipPath><clipPath id="9ebf18f0a2"><path d="M 278 56 L 295 56 L 295 78 L 278 78 Z M 278 56 " clip-rule="nonzero"/></clipPath><clipPath id="c07e42f45b"><path d="M 294.164062 78.015625 L 265.675781 77.15625 L 266.308594 56.164062 L 294.796875 57.023438 Z M 294.164062 78.015625 " clip-rule="nonzero"/></clipPath><clipPath id="874cd6c710"><path d="M 294.164062 78.015625 L 265.675781 77.15625 L 266.308594 56.164062 L 294.796875 57.023438 Z M 294.164062 78.015625 " clip-rule="nonzero"/></clipPath><clipPath id="a154dbe86a"><path d="M 229 56 L 246 56 L 246 78 L 229 78 Z M 229 56 " clip-rule="nonzero"/></clipPath><clipPath id="e23b437750"><path d="M 257.039062 78.015625 L 228.550781 77.15625 L 229.183594 56.164062 L 257.671875 57.023438 Z M 257.039062 78.015625 " clip-rule="nonzero"/></clipPath><clipPath id="187d5d9a6a"><path d="M 257.039062 78.015625 L 228.550781 77.15625 L 229.183594 56.164062 L 257.671875 57.023438 Z M 257.039062 78.015625 " clip-rule="nonzero"/></clipPath><clipPath id="80823c3f71"><path d="M 241 56 L 258 56 L 258 78 L 241 78 Z M 241 56 " clip-rule="nonzero"/></clipPath><clipPath id="6580695690"><path d="M 257.039062 78.015625 L 228.550781 77.15625 L 229.183594 56.164062 L 257.671875 57.023438 Z M 257.039062 78.015625 " clip-rule="nonzero"/></clipPath><clipPath id="1669d2ac0a"><path d="M 257.039062 78.015625 L 228.550781 77.15625 L 229.183594 56.164062 L 257.671875 57.023438 Z M 257.039062 78.015625 " clip-rule="nonzero"/></clipPath><clipPath id="8d48a995d0"><path d="M 192 56 L 209 56 L 209 78 L 192 78 Z M 192 56 " clip-rule="nonzero"/></clipPath><clipPath id="4428335aac"><path d="M 220.523438 78.015625 L 192.035156 77.15625 L 192.667969 56.164062 L 221.15625 57.023438 Z M 220.523438 78.015625 " clip-rule="nonzero"/></clipPath><clipPath id="b5b5bfd69c"><path d="M 220.523438 78.015625 L 192.035156 77.15625 L 192.667969 56.164062 L 221.15625 57.023438 Z M 220.523438 78.015625 " clip-rule="nonzero"/></clipPath><clipPath id="b287e4d3a8"><path d="M 204 56 L 222 56 L 222 78 L 204 78 Z M 204 56 " clip-rule="nonzero"/></clipPath><clipPath id="593bb20ff3"><path d="M 220.523438 78.015625 L 192.035156 77.15625 L 192.667969 56.164062 L 221.15625 57.023438 Z M 220.523438 78.015625 " clip-rule="nonzero"/></clipPath><clipPath id="5656048529"><path d="M 220.523438 78.015625 L 192.035156 77.15625 L 192.667969 56.164062 L 221.15625 57.023438 Z M 220.523438 78.015625 " clip-rule="nonzero"/></clipPath></defs><g clip-path="url(#6286372bb3)"><g clip-path="url(#b69040c56f)"><path fill="#737373" d="M 303.75 52.777344 L 303.75 323.039062 L -0.132812 323.039062 L -0.132812 52.777344 Z M 303.75 52.777344 " fill-opacity="1" fill-rule="nonzero"/></g></g><g clip-path="url(#89aea11cad)"><g clip-path="url(#ee52962d12)"><path stroke-linecap="butt" transform="matrix(0.000000000000000046, 0.75, -0.75, 0.000000000000000046, 303.749959, 52.777354)" fill="none" stroke-linejoin="miter" d="M 120.062492 394.442673 C 138.520826 400.817674 159.505202 404.999965 180.098953 404.999965 C 200.692704 404.999965 220.505205 401.416632 238.770831 395.041632 C 239.156248 394.838507 239.546873 394.838507 239.937498 394.64059 C 308.515627 369.145797 359.031254 301.81246 360.000004 224.124956 L 360.000004 -0.0000552182 L -0.0000142096 -0.0000552182 L -0.0000142096 223.95829 C 0.973944 302.208294 50.708322 369.54163 120.062492 394.442673 " stroke="#000000" stroke-width="4" stroke-opacity="1" stroke-miterlimit="4"/></g></g><g clip-path="url(#329c72c0e2)"><g clip-path="url(#9c24cc9b06)"><g clip-path="url(#a819e77a5c)"><path fill="#a6a6a6" d="M 36.070312 75.746094 L 251.757812 80.335938 L 247.167969 296.019531 L 31.480469 291.433594 Z M 36.070312 75.746094 " fill-opacity="1" fill-rule="nonzero"/></g></g></g><g clip-path="url(#931308a7df)"><g clip-path="url(#68349c1d1f)"><g clip-path="url(#66e488d24b)"><g clip-path="url(#f0eba11ad4)"><path stroke-linecap="butt" transform="matrix(0.74983, 0.0159563, -0.0159563, 0.74983, 36.072147, 75.745076)" fill="none" stroke-linejoin="miter" d="M 143.998921 0.000271098 C 64.470478 -0.000464852 -0.000653372 64.469096 -0.00138932 143.997539 C -0.00201446 223.531189 64.472754 288.00221 144.001086 287.997739 C 223.529529 287.998475 288.00066 223.528914 288.001396 144.000471 C 288.002132 64.472028 223.527364 0.00100705 143.998921 0.000271098 " stroke="#000000" stroke-width="8" stroke-opacity="1" stroke-miterlimit="4"/></g></g></g></g><g clip-path="url(#0199989fd5)"><g clip-path="url(#37df724487)"><g clip-path="url(#a9d6094e8a)"><path fill="#ffde59" d="M 131.117188 119.074219 L 148.730469 119.003906 L 148.855469 150.929688 L 131.242188 150.996094 Z M 131.117188 119.074219 " fill-opacity="1" fill-rule="nonzero"/></g></g></g><g clip-path="url(#353a85096f)"><g clip-path="url(#436ad76b12)"><g clip-path="url(#b4407d942f)"><path fill="#ffde59" d="M 164.089844 207.785156 L 173.003906 192.59375 L 200.539062 208.75 L 191.625 223.941406 Z M 164.089844 207.785156 " fill-opacity="1" fill-rule="nonzero"/></g></g></g><g clip-path="url(#014d948cd1)"><g clip-path="url(#1e65f76f62)"><g clip-path="url(#70add46a3a)"><path fill="#ffde59" d="M 118.78125 244.738281 L 76.609375 171.570312 L 140.0625 134.996094 L 182.238281 208.160156 Z M 118.78125 244.738281 " fill-opacity="1" fill-rule="nonzero"/></g></g></g><g clip-path="url(#2ed2d85854)"><g clip-path="url(#c7ec98c4ce)"><g clip-path="url(#1343bb4e20)"><path fill="#ffde59" d="M 95.269531 219.753906 L 86.476562 204.496094 L 114.132812 188.550781 L 122.929688 203.8125 Z M 95.269531 219.753906 " fill-opacity="1" fill-rule="nonzero"/></g></g></g><g clip-path="url(#ee67305c00)"><g clip-path="url(#8c3305e3e0)"><g clip-path="url(#9ea353c261)"><path fill="#ffde59" d="M 110.761719 233.398438 L 61.945312 260.058594 L 35.285156 211.242188 L 84.101562 184.582031 Z M 110.761719 233.398438 " fill-opacity="1" fill-rule="nonzero"/></g></g></g><g clip-path="url(#bca5e1f55b)"><g clip-path="url(#d96c4f9b8f)"><g clip-path="url(#ef8f7c1eeb)"><g clip-path="url(#19769ca63b)"><path fill="#000000" d="M 84.972656 244.074219 C 89.847656 241.410156 93.417969 237.554688 95.6875 232.503906 L 101.148438 234.953125 C 98.332031 241.230469 93.894531 246.023438 87.84375 249.328125 Z M 96.648438 230.007812 C 98.367188 224.722656 98.320312 219.472656 96.507812 214.253906 L 102.164062 212.292969 C 104.417969 218.777344 104.476562 225.300781 102.339844 231.859375 Z M 95.5 211.785156 C 95.289062 211.34375 95.070312 210.910156 94.835938 210.480469 C 92.425781 206.066406 89 202.707031 84.5625 200.398438 L 87.328125 195.085938 C 92.84375 197.957031 97.097656 202.132812 100.089844 207.609375 C 100.378906 208.140625 100.652344 208.679688 100.910156 209.226562 Z M 82.125 199.289062 C 76.945312 197.265625 71.699219 197.007812 66.382812 198.511719 L 64.753906 192.753906 C 71.359375 190.882812 77.875 191.203125 84.304688 193.714844 Z M 63.871094 199.375 C 62.972656 199.734375 62.097656 200.152344 61.242188 200.617188 C 57.28125 202.78125 54.15625 205.785156 51.859375 209.636719 L 46.714844 206.566406 C 49.570312 201.78125 53.457031 198.046875 58.371094 195.363281 C 59.429688 194.785156 60.515625 194.269531 61.628906 193.820312 Z M 50.613281 212 C 48.296875 217.046875 47.730469 222.269531 48.921875 227.664062 L 43.074219 228.953125 C 41.597656 222.25 42.296875 215.769531 45.171875 209.5 Z M 49.636719 230.242188 C 50.101562 231.609375 50.679688 232.933594 51.378906 234.210938 C 53.296875 237.722656 55.898438 240.59375 59.179688 242.820312 L 55.816406 247.773438 C 51.734375 245.003906 48.503906 241.4375 46.125 237.082031 C 45.257812 235.496094 44.539062 233.855469 43.964844 232.15625 Z M 61.464844 244.199219 C 66.371094 246.804688 71.554688 247.671875 77.011719 246.800781 L 77.957031 252.710938 C 71.175781 253.796875 64.742188 252.71875 58.65625 249.484375 Z M 79.625 246.234375 C 81.484375 245.726562 83.265625 245.003906 84.972656 244.074219 L 87.84375 249.328125 C 85.726562 250.484375 83.515625 251.378906 81.207031 252.007812 Z M 79.625 246.234375 " fill-opacity="1" fill-rule="nonzero"/></g></g></g></g><g clip-path="url(#888a9f70a9)"><g clip-path="url(#05e7a9b48e)"><g clip-path="url(#a0c71b34f8)"><path fill="#ffde59" d="M 218.351562 261.167969 L 170.210938 233.304688 L 198.074219 185.167969 L 246.214844 213.03125 Z M 218.351562 261.167969 " fill-opacity="1" fill-rule="nonzero"/></g></g></g><g clip-path="url(#141e25c628)"><g clip-path="url(#77f3a5de38)"><g clip-path="url(#22e7efcef7)"><g clip-path="url(#4b4a1378d1)"><path fill="#000000" d="M 195.835938 244.675781 C 200.640625 247.460938 205.792969 248.507812 211.285156 247.820312 L 212.03125 253.761719 C 205.203125 254.613281 198.804688 253.3125 192.835938 249.859375 Z M 213.917969 247.347656 C 219.328125 246.070312 223.789062 243.304688 227.304688 239.042969 L 231.921875 242.859375 C 227.550781 248.152344 222.007812 251.589844 215.292969 253.175781 Z M 228.890625 236.898438 C 229.160156 236.492188 229.417969 236.078125 229.664062 235.652344 C 232.179688 231.300781 233.273438 226.632812 232.941406 221.636719 L 238.917969 221.242188 C 239.328125 227.445312 237.972656 233.25 234.84375 238.652344 C 234.539062 239.175781 234.222656 239.691406 233.890625 240.195312 Z M 232.621094 218.980469 C 231.660156 213.503906 229.15625 208.886719 225.109375 205.125 L 229.183594 200.738281 C 234.210938 205.414062 237.324219 211.148438 238.519531 217.945312 Z M 223.066406 203.425781 C 222.292969 202.847656 221.480469 202.3125 220.636719 201.824219 C 216.734375 199.566406 212.542969 198.453125 208.058594 198.492188 L 208.011719 192.503906 C 213.582031 192.457031 218.789062 193.839844 223.636719 196.644531 C 224.683594 197.25 225.6875 197.910156 226.648438 198.628906 Z M 205.394531 198.65625 C 199.875 199.300781 195.117188 201.53125 191.128906 205.347656 L 186.988281 201.019531 C 191.949219 196.277344 197.851562 193.507812 204.703125 192.710938 Z M 189.296875 207.300781 C 188.371094 208.40625 187.539062 209.589844 186.808594 210.851562 C 184.804688 214.3125 183.707031 218.023438 183.507812 221.988281 L 177.527344 221.6875 C 177.773438 216.761719 179.140625 212.148438 181.628906 207.851562 C 182.53125 206.289062 183.5625 204.820312 184.714844 203.449219 Z M 183.515625 224.65625 C 183.835938 230.203125 185.789062 235.078125 189.371094 239.292969 L 184.808594 243.167969 C 180.359375 237.9375 177.9375 231.882812 177.539062 225.003906 Z M 191.210938 241.230469 C 192.609375 242.554688 194.152344 243.703125 195.835938 244.675781 L 192.835938 249.859375 C 190.75 248.652344 188.835938 247.226562 187.097656 245.582031 Z M 191.210938 241.230469 " fill-opacity="1" fill-rule="nonzero"/></g></g></g></g><g clip-path="url(#4f3547b533)"><g clip-path="url(#ca0b9a4ce1)"><g clip-path="url(#9284bfe7f0)"><path fill="#ffde59" d="M 177.980469 120.140625 L 129.164062 146.800781 L 102.503906 97.984375 L 151.320312 71.324219 Z M 177.980469 120.140625 " fill-opacity="1" fill-rule="nonzero"/></g></g></g><g clip-path="url(#ad67f6f876)"><g clip-path="url(#3555dc97c5)"><g clip-path="url(#fc84f31fd2)"><g clip-path="url(#c833951deb)"><path fill="#000000" d="M 152.191406 130.816406 C 157.066406 128.152344 160.636719 124.296875 162.902344 119.242188 L 168.367188 121.695312 C 165.546875 127.972656 161.113281 132.765625 155.058594 136.070312 Z M 163.867188 116.75 C 165.585938 111.464844 165.539062 106.214844 163.726562 100.996094 L 169.382812 99.03125 C 171.632812 105.519531 171.691406 112.039062 169.558594 118.601562 Z M 162.714844 98.527344 C 162.507812 98.085938 162.285156 97.652344 162.050781 97.222656 C 159.640625 92.808594 156.21875 89.449219 151.78125 87.136719 L 154.546875 81.828125 C 160.0625 84.699219 164.316406 88.875 167.304688 94.351562 C 167.597656 94.882812 167.871094 95.421875 168.128906 95.96875 Z M 149.34375 86.03125 C 144.164062 84.007812 138.917969 83.75 133.601562 85.253906 L 131.96875 79.492188 C 138.574219 77.625 145.09375 77.945312 151.523438 80.453125 Z M 131.089844 86.113281 C 130.191406 86.476562 129.316406 86.890625 128.457031 87.359375 C 124.5 89.523438 121.371094 92.527344 119.074219 96.375 L 113.933594 93.308594 C 116.789062 88.523438 120.675781 84.789062 125.589844 82.105469 C 126.648438 81.527344 127.734375 81.011719 128.847656 80.5625 Z M 117.832031 98.738281 C 115.515625 103.789062 114.949219 109.011719 116.136719 114.40625 L 110.292969 115.695312 C 108.816406 108.992188 109.515625 102.507812 112.390625 96.242188 Z M 116.855469 116.980469 C 117.316406 118.351562 117.898438 119.671875 118.597656 120.953125 C 120.515625 124.464844 123.113281 127.332031 126.398438 129.5625 L 123.035156 134.515625 C 118.953125 131.746094 115.722656 128.179688 113.34375 123.824219 C 112.476562 122.238281 111.757812 120.597656 111.183594 118.898438 Z M 128.683594 130.9375 C 133.589844 133.546875 138.769531 134.414062 144.230469 133.542969 L 145.171875 139.453125 C 138.394531 140.535156 131.960938 139.460938 125.875 136.226562 Z M 146.84375 132.976562 C 148.699219 132.46875 150.484375 131.746094 152.191406 130.816406 L 155.058594 136.070312 C 152.945312 137.226562 150.730469 138.117188 148.425781 138.75 Z M 146.84375 132.976562 " fill-opacity="1" fill-rule="nonzero"/></g></g></g></g><g clip-path="url(#430bd16d31)"><g clip-path="url(#0889be3162)"><g clip-path="url(#64b90e34ae)"><path fill="#707070" d="M 70.46875 231.855469 L 63.496094 219.761719 L 75.589844 212.789062 L 82.5625 224.882812 Z M 70.46875 231.855469 " fill-opacity="1" fill-rule="nonzero"/></g></g></g><g clip-path="url(#5ea7f85a38)"><g clip-path="url(#bc0b624f66)"><g clip-path="url(#1e672a682f)"><path fill="#707070" d="M 198.679688 225.714844 L 205.671875 213.636719 L 217.753906 220.628906 L 210.761719 232.710938 Z M 198.679688 225.714844 " fill-opacity="1" fill-rule="nonzero"/></g></g></g><g clip-path="url(#51a443f15b)"><g clip-path="url(#9e0995be4c)"><g clip-path="url(#d67a1cef91)"><path fill="#707070" d="M 136.644531 118.617188 L 129.675781 106.523438 L 141.769531 99.550781 L 148.742188 111.644531 Z M 136.644531 118.617188 " fill-opacity="1" fill-rule="nonzero"/></g></g></g><g clip-path="url(#cdc9cb8e60)"><g clip-path="url(#154af7892e)"><g clip-path="url(#5ce5253a61)"><g clip-path="url(#a7b0ea4b9b)"><path fill="#ffffff" d="M 100.195312 133.0625 C 100.175781 133.023438 100.144531 133.003906 100.101562 133.003906 C 100.042969 132.871094 100.210938 132.710938 100.042969 132.59375 C 99.886719 132.167969 99.539062 132.140625 99.167969 132.175781 C 98.121094 132.273438 97.113281 132.539062 96.125 132.867188 C 92.582031 134.042969 89.453125 135.902344 86.632812 138.335938 C 81.707031 142.578125 78.785156 147.96875 77.320312 154.207031 C 76.640625 157.097656 76.484375 160.054688 76.464844 163.023438 C 76.457031 164.769531 76.550781 166.507812 76.601562 168.253906 C 76.632812 168.3125 76.664062 168.375 76.691406 168.4375 C 76.664062 168.507812 76.652344 168.597656 76.597656 168.640625 C 76.597656 168.640625 76.597656 168.640625 76.597656 168.644531 C 76.554688 168.675781 76.503906 168.617188 76.503906 168.554688 C 76.070312 168.019531 75.761719 167.410156 75.488281 166.789062 C 75.300781 166.359375 75.089844 165.960938 74.753906 165.628906 C 74.359375 164.707031 73.640625 164.347656 72.757812 164.59375 C 72.632812 166.578125 73.503906 168.234375 74.527344 169.84375 C 74.90625 170.445312 75.246094 171.066406 75.59375 171.683594 C 76.425781 173.164062 76.390625 172.902344 77.773438 172.945312 C 78.085938 172.953125 78.390625 172.890625 78.6875 172.800781 C 78.796875 172.765625 78.894531 172.722656 78.945312 172.613281 C 79.296875 172.605469 79.425781 172.339844 79.539062 172.078125 C 79.867188 171.292969 80.1875 170.503906 80.511719 169.714844 C 80.679688 169.59375 80.730469 169.414062 80.773438 169.230469 C 80.941406 169.117188 80.992188 168.933594 81.046875 168.753906 C 81.179688 168.691406 81.207031 168.550781 81.277344 168.441406 C 82.230469 166.980469 83.335938 165.644531 84.671875 164.503906 C 84.769531 164.417969 84.863281 164.324219 84.960938 164.234375 C 85.078125 164.125 85.207031 164.007812 85.132812 163.84375 C 85.074219 163.71875 84.890625 163.664062 84.78125 163.695312 C 84.289062 163.839844 83.785156 163.660156 83.296875 163.761719 C 83.078125 163.804688 82.898438 163.929688 82.714844 164.066406 C 81.3125 165.085938 80.132812 166.328125 79.078125 167.695312 C 78.984375 167.816406 78.90625 167.957031 78.792969 168.054688 C 78.65625 168.171875 78.550781 168.070312 78.472656 167.945312 C 78.566406 167.796875 78.554688 167.65625 78.449219 167.515625 C 78.507812 167.363281 78.550781 167.210938 78.429688 167.0625 C 78.464844 167.035156 78.464844 167.007812 78.429688 166.976562 C 78.488281 166.832031 78.523438 166.691406 78.417969 166.550781 C 78.4375 166.441406 78.46875 166.335938 78.46875 166.226562 C 78.472656 165.042969 78.453125 163.859375 78.46875 162.671875 C 78.484375 161.597656 78.53125 160.523438 78.5625 159.449219 C 78.609375 159.167969 78.660156 158.886719 78.695312 158.605469 C 79.023438 155.859375 79.679688 153.199219 80.734375 150.644531 C 81.113281 149.734375 81.519531 148.835938 81.914062 147.929688 C 82.085938 147.804688 82.128906 147.613281 82.175781 147.421875 C 82.347656 147.304688 82.390625 147.125 82.4375 146.941406 C 82.609375 146.84375 82.640625 146.664062 82.695312 146.5 C 82.816406 146.445312 82.855469 146.34375 82.867188 146.222656 C 82.910156 146.199219 82.925781 146.164062 82.921875 146.117188 C 83.050781 146.054688 83.082031 145.917969 83.152344 145.8125 C 83.515625 145.292969 83.777344 144.710938 84.203125 144.238281 C 84.179688 144.167969 84.234375 143.992188 84.054688 144.152344 C 83.933594 144.257812 83.890625 144.246094 83.875 144.195312 C 83.859375 144.148438 83.867188 144.074219 83.863281 144.015625 C 85.054688 142.414062 86.429688 140.976562 87.898438 139.628906 C 88.046875 139.515625 88.195312 139.402344 88.34375 139.289062 C 89.226562 138.617188 90.113281 137.941406 90.996094 137.269531 C 91.042969 137.269531 91.082031 137.257812 91.109375 137.234375 C 91.128906 137.214844 91.144531 137.195312 91.160156 137.167969 C 91.234375 137.167969 91.285156 137.132812 91.316406 137.0625 C 91.394531 137.066406 91.445312 137.03125 91.472656 136.960938 C 91.550781 136.96875 91.601562 136.929688 91.632812 136.859375 C 91.710938 136.867188 91.761719 136.832031 91.789062 136.761719 C 91.871094 136.769531 91.921875 136.734375 91.949219 136.664062 L 91.953125 136.664062 C 92.027344 136.671875 92.082031 136.636719 92.109375 136.566406 L 92.113281 136.566406 C 92.167969 136.539062 92.21875 136.507812 92.269531 136.472656 L 92.277344 136.46875 C 92.351562 136.476562 92.40625 136.449219 92.433594 136.378906 L 92.441406 136.375 C 92.515625 136.382812 92.570312 136.351562 92.597656 136.28125 L 92.601562 136.277344 C 92.601562 136.277344 92.605469 136.277344 92.605469 136.277344 C 92.605469 136.277344 92.601562 136.277344 92.601562 136.277344 C 92.679688 136.289062 92.734375 136.257812 92.761719 136.1875 L 92.765625 136.183594 C 92.84375 136.195312 92.894531 136.164062 92.925781 136.09375 L 92.929688 136.09375 C 93.003906 136.101562 93.0625 136.070312 93.089844 136 C 93.613281 135.75 94.132812 135.5 94.652344 135.25 C 94.882812 135.035156 95.183594 134.953125 95.464844 134.835938 C 95.492188 134.855469 95.511719 134.882812 95.527344 134.910156 C 95.546875 134.953125 95.554688 135 95.550781 135.054688 C 95.769531 134.988281 95.996094 134.9375 96.171875 134.773438 C 96.21875 134.71875 96.273438 134.671875 96.347656 134.652344 C 96.289062 134.691406 96.230469 134.730469 96.171875 134.773438 C 96.246094 134.765625 96.316406 134.75 96.339844 134.671875 C 96.453125 134.699219 96.546875 134.664062 96.628906 134.585938 C 96.703125 134.609375 96.757812 134.59375 96.796875 134.523438 C 96.875 134.523438 96.941406 134.507812 96.984375 134.4375 C 97.023438 134.445312 97.054688 134.4375 97.085938 134.410156 C 97.3125 134.382812 97.523438 134.3125 97.714844 134.1875 C 97.875 134.160156 98.035156 134.136719 98.164062 134.03125 C 98.273438 134.050781 98.359375 133.996094 98.449219 133.949219 C 99.078125 133.84375 99.683594 133.621094 100.363281 133.628906 C 100.261719 133.414062 100.398438 133.195312 100.195312 133.0625 Z M 78.300781 166.941406 C 78.304688 166.941406 78.304688 166.941406 78.304688 166.941406 C 78.300781 166.9375 78.300781 166.941406 78.300781 166.941406 C 78.300781 166.9375 78.304688 166.9375 78.304688 166.9375 C 78.304688 166.9375 78.304688 166.941406 78.304688 166.941406 C 78.304688 166.941406 78.308594 166.941406 78.308594 166.941406 C 78.304688 166.941406 78.304688 166.941406 78.300781 166.941406 Z M 92.546875 135.886719 C 92.535156 135.890625 92.519531 135.898438 92.503906 135.902344 C 92.507812 135.898438 92.511719 135.898438 92.515625 135.894531 C 92.527344 135.886719 92.535156 135.882812 92.550781 135.875 C 92.546875 135.878906 92.546875 135.882812 92.546875 135.886719 Z M 91 137.261719 C 91 137.261719 91 137.257812 91 137.257812 C 90.996094 137.253906 90.992188 137.25 90.992188 137.246094 L 90.984375 137.230469 L 91 137.257812 C 91.003906 137.257812 91.003906 137.257812 91.003906 137.257812 C 91.003906 137.257812 91.003906 137.257812 91 137.261719 Z M 92.550781 135.816406 C 92.550781 135.835938 92.550781 135.855469 92.550781 135.871094 C 92.539062 135.878906 92.527344 135.882812 92.515625 135.890625 C 92.539062 135.875 92.550781 135.851562 92.550781 135.816406 Z M 92.441406 135.929688 C 92.429688 135.9375 92.414062 135.945312 92.402344 135.953125 C 92.402344 135.949219 92.398438 135.953125 92.398438 135.953125 C 92.414062 135.945312 92.429688 135.9375 92.441406 135.929688 Z M 99 132.871094 C 99.003906 132.871094 99.003906 132.871094 99.003906 132.867188 C 99.003906 132.867188 99.007812 132.867188 99.007812 132.867188 C 99.007812 132.867188 99.011719 132.867188 99.011719 132.867188 C 99.011719 132.871094 99.007812 132.871094 99 132.871094 Z M 98.722656 132.921875 C 98.71875 132.921875 98.714844 132.917969 98.714844 132.921875 C 98.714844 132.921875 98.722656 132.921875 98.722656 132.921875 Z M 96.40625 134.554688 C 96.40625 134.539062 96.40625 134.527344 96.402344 134.511719 C 96.410156 134.511719 96.417969 134.515625 96.429688 134.515625 C 96.421875 134.527344 96.414062 134.542969 96.40625 134.554688 Z M 96.894531 134.433594 C 96.914062 134.421875 96.941406 134.421875 96.96875 134.421875 C 96.96875 134.421875 96.96875 134.421875 96.964844 134.425781 C 96.941406 134.425781 96.914062 134.425781 96.894531 134.433594 Z M 96.894531 134.433594 " fill-opacity="1" fill-rule="nonzero"/></g></g></g></g><g clip-path="url(#97e8f84a7a)"><g clip-path="url(#c620d2321f)"><g clip-path="url(#1ca4c8370e)"><g clip-path="url(#4b029c13c8)"><path fill="#ffffff" d="M 92.277344 136.464844 C 92.226562 136.496094 92.171875 136.527344 92.121094 136.558594 C 92.199219 136.566406 92.25 136.535156 92.277344 136.464844 Z M 92.277344 136.464844 " fill-opacity="1" fill-rule="nonzero"/></g></g></g></g><g clip-path="url(#a0619e09fa)"><g clip-path="url(#4514adfe48)"><g clip-path="url(#12ba48d331)"><g clip-path="url(#d6e79030ed)"><path fill="#ffffff" d="M 204.046875 172.917969 C 204.089844 172.925781 204.125 172.910156 204.148438 172.875 C 204.292969 172.902344 204.328125 173.132812 204.519531 173.066406 C 204.957031 173.179688 205.179688 172.914062 205.367188 172.589844 C 205.886719 171.675781 206.25 170.699219 206.550781 169.703125 C 207.628906 166.125 207.90625 162.5 207.542969 158.792969 C 206.910156 152.320312 204.183594 146.832031 199.925781 142.042969 C 197.953125 139.824219 195.621094 137.992188 193.207031 136.269531 C 191.785156 135.253906 190.308594 134.332031 188.851562 133.371094 C 188.785156 133.359375 188.71875 133.351562 188.648438 133.339844 C 188.609375 133.273438 188.542969 133.210938 188.535156 133.144531 C 188.535156 133.144531 188.535156 133.144531 188.535156 133.140625 C 188.53125 133.085938 188.609375 133.082031 188.664062 133.113281 C 189.351562 133.070312 190.023438 133.167969 190.691406 133.304688 C 191.148438 133.394531 191.597656 133.453125 192.0625 133.371094 C 193.042969 133.578125 193.75 133.199219 194.058594 132.335938 C 192.507812 131.085938 190.652344 130.847656 188.746094 130.757812 C 188.035156 130.722656 187.332031 130.640625 186.625 130.570312 C 184.9375 130.398438 185.171875 130.519531 184.339844 131.628906 C 184.15625 131.875 184.027344 132.160156 183.933594 132.457031 C 183.898438 132.566406 183.875 132.671875 183.9375 132.773438 C 183.742188 133.070312 183.882812 133.324219 184.035156 133.570312 C 184.488281 134.292969 184.949219 135.007812 185.40625 135.726562 C 185.410156 135.929688 185.527344 136.074219 185.652344 136.21875 C 185.648438 136.421875 185.769531 136.566406 185.882812 136.714844 C 185.855469 136.859375 185.957031 136.964844 186.007812 137.082031 C 186.652344 138.707031 187.109375 140.378906 187.273438 142.125 C 187.285156 142.257812 187.3125 142.386719 187.328125 142.519531 C 187.347656 142.675781 187.371094 142.851562 187.546875 142.882812 C 187.683594 142.90625 187.832031 142.789062 187.871094 142.679688 C 188.035156 142.195312 188.472656 141.886719 188.675781 141.429688 C 188.761719 141.226562 188.761719 141.003906 188.757812 140.78125 C 188.730469 139.042969 188.394531 137.363281 187.882812 135.714844 C 187.835938 135.566406 187.765625 135.425781 187.753906 135.273438 C 187.738281 135.097656 187.878906 135.066406 188.027344 135.074219 C 188.09375 135.238281 188.21875 135.308594 188.390625 135.304688 C 188.484375 135.4375 188.582031 135.5625 188.773438 135.546875 C 188.777344 135.59375 188.800781 135.609375 188.84375 135.597656 C 188.925781 135.730469 189.023438 135.839844 189.199219 135.835938 C 189.277344 135.910156 189.34375 136 189.433594 136.0625 C 190.402344 136.746094 191.378906 137.414062 192.339844 138.109375 C 193.214844 138.738281 194.0625 139.394531 194.921875 140.042969 C 195.128906 140.238281 195.324219 140.445312 195.539062 140.632812 C 197.59375 142.480469 199.390625 144.550781 200.871094 146.882812 C 201.398438 147.71875 201.902344 148.566406 202.414062 149.410156 C 202.414062 149.625 202.546875 149.769531 202.679688 149.917969 C 202.675781 150.125 202.796875 150.265625 202.921875 150.410156 C 202.902344 150.605469 203.03125 150.734375 203.132812 150.875 C 203.109375 151.003906 203.167969 151.09375 203.261719 151.175781 C 203.253906 151.222656 203.273438 151.253906 203.316406 151.277344 C 203.292969 151.421875 203.386719 151.523438 203.433594 151.644531 C 203.648438 152.238281 203.972656 152.789062 204.113281 153.410156 C 204.1875 153.429688 204.296875 153.574219 204.269531 153.335938 C 204.253906 153.175781 204.285156 153.148438 204.339844 153.164062 C 204.382812 153.179688 204.441406 153.226562 204.492188 153.261719 C 205.117188 155.15625 205.5 157.105469 205.757812 159.082031 C 205.765625 159.269531 205.773438 159.457031 205.777344 159.644531 C 205.820312 160.753906 205.859375 161.863281 205.902344 162.972656 C 205.875 163.011719 205.863281 163.050781 205.867188 163.089844 C 205.871094 163.113281 205.878906 163.140625 205.894531 163.167969 C 205.847656 163.226562 205.847656 163.289062 205.886719 163.355469 C 205.839844 163.414062 205.839844 163.476562 205.878906 163.542969 C 205.832031 163.601562 205.832031 163.664062 205.871094 163.730469 C 205.824219 163.789062 205.820312 163.851562 205.863281 163.917969 C 205.808594 163.976562 205.808594 164.039062 205.851562 164.101562 L 205.847656 164.105469 C 205.796875 164.164062 205.792969 164.226562 205.835938 164.289062 L 205.835938 164.292969 C 205.828125 164.351562 205.824219 164.414062 205.820312 164.476562 L 205.820312 164.480469 C 205.769531 164.539062 205.761719 164.597656 205.804688 164.664062 L 205.804688 164.667969 C 205.753906 164.726562 205.746094 164.785156 205.789062 164.851562 L 205.789062 164.859375 C 205.734375 164.914062 205.730469 164.976562 205.769531 165.042969 L 205.769531 165.046875 C 205.71875 165.101562 205.710938 165.164062 205.753906 165.230469 C 205.703125 165.289062 205.695312 165.351562 205.734375 165.417969 C 205.640625 165.988281 205.542969 166.558594 205.449219 167.128906 C 205.492188 167.4375 205.386719 167.734375 205.324219 168.03125 C 205.289062 168.039062 205.253906 168.039062 205.222656 168.035156 C 205.175781 168.03125 205.132812 168.007812 205.09375 167.972656 C 205.019531 168.191406 204.933594 168.40625 204.964844 168.644531 C 204.980469 168.714844 204.988281 168.785156 204.964844 168.855469 C 204.964844 168.785156 204.964844 168.714844 204.964844 168.644531 C 204.925781 168.707031 204.898438 168.773438 204.953125 168.839844 C 204.863281 168.914062 204.839844 169.011719 204.855469 169.125 C 204.796875 169.171875 204.773438 169.226562 204.8125 169.296875 C 204.765625 169.359375 204.738281 169.425781 204.773438 169.5 C 204.746094 169.527344 204.730469 169.558594 204.734375 169.597656 C 204.625 169.800781 204.566406 170.015625 204.554688 170.242188 C 204.484375 170.386719 204.414062 170.53125 204.425781 170.699219 C 204.347656 170.777344 204.339844 170.878906 204.324219 170.980469 C 204.054688 171.554688 203.886719 172.175781 203.488281 172.726562 C 203.722656 172.769531 203.824219 173.003906 204.046875 172.917969 Z M 188.945312 135.515625 C 188.949219 135.515625 188.945312 135.515625 188.945312 135.515625 C 188.949219 135.515625 188.949219 135.519531 188.949219 135.519531 C 188.949219 135.519531 188.945312 135.515625 188.945312 135.515625 C 188.945312 135.519531 188.941406 135.519531 188.941406 135.519531 C 188.941406 135.515625 188.945312 135.515625 188.945312 135.515625 Z M 206.140625 165.039062 C 206.144531 165.023438 206.148438 165.011719 206.152344 164.996094 C 206.152344 165 206.152344 165.003906 206.152344 165.007812 C 206.152344 165.019531 206.152344 165.03125 206.148438 165.046875 C 206.148438 165.042969 206.144531 165.042969 206.140625 165.039062 Z M 205.90625 162.984375 C 205.910156 162.984375 205.910156 162.984375 205.910156 162.984375 C 205.914062 162.984375 205.921875 162.984375 205.925781 162.984375 L 205.941406 162.988281 L 205.910156 162.984375 C 205.90625 162.984375 205.910156 162.988281 205.90625 162.988281 C 205.910156 162.988281 205.90625 162.984375 205.90625 162.984375 Z M 206.195312 165.082031 C 206.179688 165.070312 206.164062 165.058594 206.152344 165.046875 C 206.152344 165.035156 206.152344 165.023438 206.15625 165.011719 C 206.15625 165.039062 206.167969 165.0625 206.195312 165.082031 Z M 206.164062 164.925781 C 206.167969 164.910156 206.167969 164.894531 206.171875 164.882812 C 206.171875 164.882812 206.171875 164.878906 206.171875 164.878906 C 206.171875 164.894531 206.167969 164.910156 206.164062 164.925781 Z M 204.890625 172.050781 C 204.890625 172.050781 204.890625 172.054688 204.890625 172.054688 C 204.890625 172.054688 204.890625 172.058594 204.890625 172.058594 C 204.890625 172.058594 204.886719 172.0625 204.886719 172.0625 C 204.886719 172.058594 204.890625 172.054688 204.890625 172.050781 Z M 205.011719 171.792969 C 205.011719 171.792969 205.015625 171.789062 205.015625 171.785156 C 205.011719 171.789062 205.011719 171.792969 205.011719 171.792969 Z M 205.007812 168.960938 C 205.019531 168.96875 205.03125 168.976562 205.046875 168.980469 C 205.039062 168.988281 205.035156 168.992188 205.027344 169 C 205.023438 168.988281 205.015625 168.976562 205.007812 168.960938 Z M 204.828125 169.429688 C 204.824219 169.453125 204.8125 169.472656 204.792969 169.496094 C 204.792969 169.496094 204.792969 169.496094 204.792969 169.492188 C 204.808594 169.472656 204.820312 169.449219 204.828125 169.429688 Z M 204.828125 169.429688 " fill-opacity="1" fill-rule="nonzero"/></g></g></g></g><g clip-path="url(#0de83167fc)"><g clip-path="url(#76ae676e3f)"><g clip-path="url(#e5c40230a8)"><g clip-path="url(#b23cb94c79)"><path fill="#ffffff" d="M 205.824219 164.484375 C 205.828125 164.425781 205.832031 164.363281 205.839844 164.304688 C 205.785156 164.359375 205.78125 164.421875 205.824219 164.484375 Z M 205.824219 164.484375 " fill-opacity="1" fill-rule="nonzero"/></g></g></g></g><g clip-path="url(#fe3f928217)"><g clip-path="url(#5d3909604e)"><g clip-path="url(#1218b5f8ea)"><g clip-path="url(#8df96a5e5b)"><path fill="#ffffff" d="M 119.90625 242.886719 C 119.878906 242.917969 119.871094 242.953125 119.886719 242.996094 C 119.78125 243.097656 119.574219 242.992188 119.519531 243.191406 C 119.175781 243.484375 119.265625 243.820312 119.429688 244.15625 C 119.878906 245.105469 120.476562 245.960938 121.125 246.777344 C 123.449219 249.699219 126.269531 251.996094 129.523438 253.808594 C 135.203125 256.976562 141.265625 257.867188 147.625 257.097656 C 150.574219 256.742188 153.410156 255.871094 156.203125 254.867188 C 157.84375 254.277344 159.445312 253.589844 161.0625 252.941406 C 161.113281 252.894531 161.15625 252.84375 161.207031 252.792969 C 161.28125 252.796875 161.371094 252.777344 161.429688 252.8125 C 161.429688 252.8125 161.429688 252.8125 161.433594 252.8125 C 161.480469 252.839844 161.441406 252.90625 161.382812 252.929688 C 161.027344 253.523438 160.5625 254.019531 160.070312 254.492188 C 159.734375 254.8125 159.433594 255.152344 159.234375 255.578125 C 158.503906 256.269531 158.414062 257.066406 158.949219 257.808594 C 160.859375 257.246094 162.113281 255.859375 163.273438 254.34375 C 163.707031 253.78125 164.171875 253.25 164.632812 252.710938 C 165.738281 251.417969 165.503906 251.542969 165.066406 250.230469 C 164.96875 249.933594 164.808594 249.667969 164.617188 249.421875 C 164.546875 249.332031 164.476562 249.253906 164.355469 249.242188 C 164.226562 248.914062 163.933594 248.886719 163.644531 248.871094 C 162.796875 248.832031 161.945312 248.800781 161.09375 248.769531 C 160.921875 248.652344 160.738281 248.667969 160.546875 248.691406 C 160.382812 248.570312 160.195312 248.589844 160.007812 248.597656 C 159.902344 248.492188 159.761719 248.515625 159.636719 248.488281 C 157.933594 248.09375 156.300781 247.515625 154.769531 246.65625 C 154.652344 246.589844 154.535156 246.535156 154.417969 246.476562 C 154.277344 246.402344 154.117188 246.320312 153.992188 246.449219 C 153.894531 246.546875 153.90625 246.734375 153.972656 246.828125 C 154.277344 247.242188 154.285156 247.777344 154.542969 248.203125 C 154.660156 248.390625 154.84375 248.515625 155.03125 248.640625 C 156.472656 249.609375 158.046875 250.289062 159.691406 250.808594 C 159.835938 250.855469 159.996094 250.878906 160.128906 250.953125 C 160.28125 251.042969 160.222656 251.175781 160.132812 251.289062 C 159.960938 251.253906 159.832031 251.316406 159.738281 251.460938 C 159.574219 251.460938 159.417969 251.472656 159.320312 251.636719 C 159.28125 251.613281 159.253906 251.621094 159.238281 251.664062 C 159.082031 251.65625 158.9375 251.675781 158.839844 251.824219 C 158.734375 251.84375 158.621094 251.847656 158.519531 251.886719 C 157.40625 252.289062 156.300781 252.714844 155.183594 253.109375 C 154.167969 253.464844 153.144531 253.789062 152.125 254.128906 C 151.84375 254.183594 151.5625 254.230469 151.285156 254.296875 C 148.59375 254.929688 145.871094 255.230469 143.109375 255.117188 C 142.125 255.074219 141.140625 255.003906 140.15625 254.945312 C 139.976562 254.820312 139.78125 254.847656 139.585938 254.871094 C 139.417969 254.75 139.234375 254.769531 139.046875 254.789062 C 138.894531 254.664062 138.714844 254.695312 138.542969 254.699219 C 138.449219 254.605469 138.339844 254.601562 138.222656 254.632812 C 138.1875 254.601562 138.148438 254.597656 138.105469 254.621094 C 138.003906 254.519531 137.863281 254.539062 137.738281 254.507812 C 137.128906 254.347656 136.492188 254.296875 135.898438 254.0625 C 135.839844 254.105469 135.660156 254.117188 135.871094 254.230469 C 136.011719 254.304688 136.015625 254.351562 135.972656 254.386719 C 135.9375 254.414062 135.863281 254.433594 135.808594 254.457031 C 133.894531 253.886719 132.070312 253.09375 130.300781 252.175781 C 130.144531 252.078125 129.984375 251.976562 129.828125 251.875 C 128.894531 251.277344 127.957031 250.675781 127.023438 250.078125 C 127.007812 250.035156 126.980469 250.003906 126.949219 249.984375 C 126.925781 249.972656 126.898438 249.964844 126.867188 249.960938 C 126.84375 249.890625 126.792969 249.855469 126.71875 249.847656 C 126.695312 249.777344 126.644531 249.738281 126.570312 249.738281 C 126.546875 249.664062 126.496094 249.625 126.417969 249.621094 C 126.398438 249.546875 126.347656 249.507812 126.269531 249.507812 C 126.25 249.429688 126.203125 249.394531 126.125 249.390625 L 126.121094 249.390625 C 126.105469 249.316406 126.054688 249.277344 125.980469 249.273438 L 125.976562 249.273438 C 125.933594 249.230469 125.886719 249.191406 125.835938 249.15625 L 125.832031 249.152344 C 125.8125 249.078125 125.765625 249.039062 125.691406 249.035156 L 125.683594 249.03125 C 125.667969 248.957031 125.621094 248.917969 125.542969 248.914062 L 125.539062 248.910156 C 125.523438 248.835938 125.476562 248.792969 125.398438 248.792969 L 125.394531 248.789062 C 125.378906 248.714844 125.332031 248.675781 125.253906 248.671875 L 125.253906 248.667969 C 125.234375 248.59375 125.1875 248.550781 125.109375 248.546875 C 124.695312 248.144531 124.28125 247.742188 123.867188 247.339844 C 123.585938 247.199219 123.40625 246.941406 123.199219 246.71875 C 123.210938 246.6875 123.226562 246.660156 123.25 246.636719 C 123.28125 246.601562 123.324219 246.578125 123.375 246.566406 C 123.238281 246.382812 123.113281 246.1875 122.898438 246.078125 C 122.832031 246.050781 122.769531 246.015625 122.722656 245.953125 C 122.78125 245.992188 122.839844 246.035156 122.898438 246.078125 C 122.867188 246.007812 122.828125 245.949219 122.746094 245.953125 C 122.734375 245.835938 122.667969 245.761719 122.566406 245.710938 C 122.5625 245.636719 122.527344 245.585938 122.449219 245.578125 C 122.421875 245.503906 122.386719 245.445312 122.304688 245.429688 C 122.296875 245.390625 122.28125 245.363281 122.242188 245.34375 C 122.140625 245.136719 122 244.964844 121.820312 244.828125 C 121.738281 244.6875 121.660156 244.546875 121.515625 244.460938 C 121.496094 244.351562 121.414062 244.289062 121.34375 244.21875 C 121.023438 243.667969 120.609375 243.175781 120.382812 242.535156 C 120.214844 242.707031 119.964844 242.652344 119.90625 242.886719 Z M 159.25 251.796875 C 159.25 251.796875 159.25 251.796875 159.246094 251.796875 C 159.246094 251.796875 159.25 251.796875 159.25 251.796875 C 159.246094 251.796875 159.246094 251.796875 159.246094 251.796875 C 159.246094 251.792969 159.246094 251.792969 159.246094 251.789062 C 159.25 251.792969 159.25 251.792969 159.25 251.796875 Z M 125.1875 249.097656 C 125.199219 249.109375 125.207031 249.121094 125.21875 249.132812 C 125.214844 249.128906 125.210938 249.128906 125.207031 249.125 C 125.199219 249.117188 125.1875 249.109375 125.179688 249.101562 C 125.179688 249.101562 125.183594 249.097656 125.1875 249.097656 Z M 127.011719 250.078125 C 127.011719 250.078125 127.011719 250.078125 127.007812 250.078125 C 127.007812 250.082031 127.003906 250.089844 127 250.089844 L 126.988281 250.101562 L 127.011719 250.078125 C 127.011719 250.078125 127.007812 250.078125 127.007812 250.074219 C 127.007812 250.078125 127.011719 250.078125 127.011719 250.078125 Z M 125.121094 249.117188 C 125.140625 249.109375 125.160156 249.105469 125.175781 249.101562 C 125.183594 249.109375 125.195312 249.117188 125.203125 249.125 C 125.179688 249.109375 125.152344 249.105469 125.121094 249.117188 Z M 125.269531 249.183594 C 125.28125 249.191406 125.289062 249.203125 125.300781 249.210938 C 125.300781 249.214844 125.300781 249.214844 125.300781 249.214844 C 125.289062 249.203125 125.28125 249.191406 125.269531 249.183594 Z M 120.140625 244.074219 C 120.140625 244.074219 120.136719 244.070312 120.136719 244.070312 C 120.136719 244.070312 120.132812 244.070312 120.132812 244.070312 C 120.132812 244.066406 120.132812 244.066406 120.132812 244.0625 C 120.136719 244.066406 120.136719 244.070312 120.140625 244.074219 Z M 120.28125 244.316406 C 120.28125 244.320312 120.28125 244.324219 120.285156 244.328125 C 120.285156 244.324219 120.28125 244.320312 120.28125 244.316406 Z M 122.609375 245.929688 C 122.597656 245.9375 122.585938 245.941406 122.574219 245.953125 C 122.570312 245.941406 122.570312 245.933594 122.570312 245.925781 C 122.582031 245.925781 122.597656 245.929688 122.609375 245.929688 Z M 122.332031 245.515625 C 122.3125 245.5 122.300781 245.476562 122.296875 245.449219 C 122.304688 245.476562 122.316406 245.496094 122.332031 245.515625 Z M 122.332031 245.515625 " fill-opacity="1" fill-rule="nonzero"/></g></g></g></g><g clip-path="url(#1c40b161ee)"><g clip-path="url(#d60cdde217)"><g clip-path="url(#f97092e71e)"><g clip-path="url(#982b299764)"><path fill="#ffffff" d="M 125.824219 249.152344 C 125.871094 249.191406 125.921875 249.230469 125.964844 249.269531 C 125.949219 249.191406 125.902344 249.15625 125.824219 249.152344 Z M 125.824219 249.152344 " fill-opacity="1" fill-rule="nonzero"/></g></g></g></g><path stroke-linecap="butt" transform="matrix(0.74987, 0.00605191, -0.00605275, 0.749976, 136.490312, 77.86835)" fill="none" stroke-linejoin="miter" d="M -0.00220425 1.998534 L 223.03636 2.000873 " stroke="#000000" stroke-width="4" stroke-opacity="1" stroke-miterlimit="4"/><path stroke-linecap="butt" transform="matrix(0.750617, -0.00364086, 0.00363783, 0.749991, 135.126205, 291.168461)" fill="none" stroke-linejoin="miter" d="M -0.000887049 1.999363 L 224.814281 2.002183 " stroke="#000000" stroke-width="4" stroke-opacity="1" stroke-miterlimit="4"/><g clip-path="url(#28a1354e71)"><path fill="#38b6ff" d="M 294.695312 306.992188 L 286.203125 297.5 C 286.019531 297.296875 285.765625 297.183594 285.5 297.183594 L 279.835938 297.183594 C 279.464844 297.183594 279.128906 297.402344 278.972656 297.746094 C 278.824219 298.089844 278.886719 298.488281 279.136719 298.765625 L 287.058594 307.628906 L 279.136719 316.484375 C 278.886719 316.765625 278.820312 317.164062 278.972656 317.507812 C 279.128906 317.851562 279.464844 318.070312 279.835938 318.070312 L 285.5 318.070312 C 285.765625 318.070312 286.019531 317.953125 286.203125 317.757812 L 294.695312 308.261719 C 295.015625 307.902344 295.015625 307.351562 294.695312 306.992188 Z M 294.695312 306.992188 " fill-opacity="1" fill-rule="nonzero"/></g><g clip-path="url(#5cca5b310c)"><path fill="#38b6ff" d="M 282.425781 306.992188 L 273.933594 297.5 C 273.75 297.296875 273.5 297.183594 273.230469 297.183594 L 267.570312 297.183594 C 267.195312 297.183594 266.859375 297.402344 266.707031 297.746094 C 266.554688 298.089844 266.617188 298.488281 266.867188 298.765625 L 274.792969 307.628906 L 266.867188 316.484375 C 266.617188 316.765625 266.554688 317.164062 266.707031 317.507812 C 266.859375 317.851562 267.195312 318.070312 267.570312 318.070312 L 273.230469 318.070312 C 273.5 318.070312 273.75 317.953125 273.933594 317.757812 L 282.425781 308.261719 C 282.75 307.902344 282.75 307.351562 282.425781 306.992188 Z M 282.425781 306.992188 " fill-opacity="1" fill-rule="nonzero"/></g><g clip-path="url(#c0cff85be5)"><path fill="#5ce1e6" d="M 257.570312 306.992188 L 249.078125 297.5 C 248.894531 297.296875 248.640625 297.183594 248.375 297.183594 L 242.710938 297.183594 C 242.339844 297.183594 242.003906 297.402344 241.847656 297.746094 C 241.699219 298.089844 241.761719 298.488281 242.007812 298.765625 L 249.933594 307.628906 L 242.007812 316.484375 C 241.761719 316.765625 241.695312 317.164062 241.847656 317.507812 C 242.003906 317.851562 242.339844 318.070312 242.710938 318.070312 L 248.375 318.070312 C 248.640625 318.070312 248.894531 317.953125 249.078125 317.757812 L 257.570312 308.261719 C 257.890625 307.902344 257.890625 307.351562 257.570312 306.992188 Z M 257.570312 306.992188 " fill-opacity="1" fill-rule="nonzero"/></g><g clip-path="url(#ad01e03a3b)"><path fill="#5ce1e6" d="M 245.300781 306.992188 L 236.808594 297.5 C 236.625 297.296875 236.375 297.183594 236.105469 297.183594 L 230.445312 297.183594 C 230.070312 297.183594 229.734375 297.402344 229.582031 297.746094 C 229.429688 298.089844 229.492188 298.488281 229.742188 298.765625 L 237.667969 307.628906 L 229.742188 316.484375 C 229.492188 316.765625 229.429688 317.164062 229.582031 317.507812 C 229.734375 317.851562 230.070312 318.070312 230.445312 318.070312 L 236.105469 318.070312 C 236.375 318.070312 236.625 317.953125 236.808594 317.757812 L 245.300781 308.261719 C 245.625 307.902344 245.625 307.351562 245.300781 306.992188 Z M 245.300781 306.992188 " fill-opacity="1" fill-rule="nonzero"/></g><g clip-path="url(#b7baccf0e8)"><path fill="#38b6ff" d="M 220.445312 306.992188 L 211.953125 297.5 C 211.769531 297.296875 211.515625 297.183594 211.25 297.183594 L 205.585938 297.183594 C 205.214844 297.183594 204.878906 297.402344 204.722656 297.746094 C 204.574219 298.089844 204.636719 298.488281 204.886719 298.765625 L 212.808594 307.628906 L 204.886719 316.484375 C 204.636719 316.765625 204.570312 317.164062 204.722656 317.507812 C 204.878906 317.851562 205.214844 318.070312 205.585938 318.070312 L 211.25 318.070312 C 211.515625 318.070312 211.769531 317.953125 211.953125 317.757812 L 220.445312 308.261719 C 220.765625 307.902344 220.765625 307.351562 220.445312 306.992188 Z M 220.445312 306.992188 " fill-opacity="1" fill-rule="nonzero"/></g><g clip-path="url(#7ac3dc8286)"><path fill="#38b6ff" d="M 208.175781 306.992188 L 199.683594 297.5 C 199.5 297.296875 199.25 297.183594 198.980469 297.183594 L 193.320312 297.183594 C 192.945312 297.183594 192.609375 297.402344 192.457031 297.746094 C 192.304688 298.089844 192.367188 298.488281 192.617188 298.765625 L 200.542969 307.628906 L 192.617188 316.484375 C 192.367188 316.765625 192.304688 317.164062 192.457031 317.507812 C 192.609375 317.851562 192.945312 318.070312 193.320312 318.070312 L 198.980469 318.070312 C 199.25 318.070312 199.5 317.953125 199.683594 317.757812 L 208.175781 308.261719 C 208.5 307.902344 208.5 307.351562 208.175781 306.992188 Z M 208.175781 306.992188 " fill-opacity="1" fill-rule="nonzero"/></g><g clip-path="url(#83e9caf53c)"><path fill="#38b6ff" d="M 183.320312 306.992188 L 174.828125 297.5 C 174.644531 297.296875 174.390625 297.183594 174.125 297.183594 L 168.460938 297.183594 C 168.089844 297.183594 167.753906 297.402344 167.597656 297.746094 C 167.449219 298.089844 167.511719 298.488281 167.761719 298.765625 L 175.683594 307.628906 L 167.761719 316.484375 C 167.511719 316.765625 167.445312 317.164062 167.597656 317.507812 C 167.753906 317.851562 168.089844 318.070312 168.460938 318.070312 L 174.125 318.070312 C 174.390625 318.070312 174.644531 317.953125 174.828125 317.757812 L 183.320312 308.261719 C 183.640625 307.902344 183.640625 307.351562 183.320312 306.992188 Z M 183.320312 306.992188 " fill-opacity="1" fill-rule="nonzero"/></g><g clip-path="url(#e6360b0ef0)"><path fill="#38b6ff" d="M 171.050781 306.992188 L 162.558594 297.5 C 162.375 297.296875 162.125 297.183594 161.855469 297.183594 L 156.195312 297.183594 C 155.820312 297.183594 155.484375 297.402344 155.332031 297.746094 C 155.179688 298.089844 155.242188 298.488281 155.492188 298.765625 L 163.417969 307.628906 L 155.492188 316.484375 C 155.242188 316.765625 155.179688 317.164062 155.332031 317.507812 C 155.484375 317.851562 155.820312 318.070312 156.195312 318.070312 L 161.855469 318.070312 C 162.125 318.070312 162.375 317.953125 162.558594 317.757812 L 171.050781 308.261719 C 171.375 307.902344 171.375 307.351562 171.050781 306.992188 Z M 171.050781 306.992188 " fill-opacity="1" fill-rule="nonzero"/></g><g clip-path="url(#22f1f03783)"><g clip-path="url(#fe18f096a4)"><g clip-path="url(#c7c752779e)"><path fill="#38b6ff" d="M 146.183594 306.746094 L 137.523438 297.402344 C 137.339844 297.207031 137.085938 297.097656 136.816406 297.101562 L 131.15625 297.199219 C 130.785156 297.207031 130.449219 297.433594 130.304688 297.777344 C 130.160156 298.125 130.226562 298.523438 130.480469 298.796875 L 138.5625 307.515625 L 130.792969 316.511719 C 130.550781 316.796875 130.492188 317.195312 130.652344 317.535156 C 130.8125 317.875 131.152344 318.089844 131.523438 318.085938 L 137.1875 317.984375 C 137.453125 317.980469 137.703125 317.859375 137.882812 317.660156 L 146.207031 308.015625 C 146.523438 307.648438 146.511719 307.097656 146.183594 306.746094 Z M 146.183594 306.746094 " fill-opacity="1" fill-rule="nonzero"/></g></g></g><g clip-path="url(#cdb8c6e7c0)"><g clip-path="url(#2864f3520e)"><g clip-path="url(#0485da02ed)"><path fill="#38b6ff" d="M 133.917969 306.960938 L 125.257812 297.621094 C 125.074219 297.421875 124.820312 297.3125 124.550781 297.316406 L 118.890625 297.417969 C 118.519531 297.425781 118.183594 297.648438 118.035156 297.996094 C 117.890625 298.339844 117.960938 298.742188 118.214844 299.011719 L 126.296875 307.730469 L 118.527344 316.726562 C 118.285156 317.011719 118.226562 317.414062 118.386719 317.753906 C 118.546875 318.09375 118.886719 318.308594 119.257812 318.300781 L 124.921875 318.203125 C 125.1875 318.195312 125.4375 318.078125 125.617188 317.875 L 133.941406 308.234375 C 134.257812 307.867188 134.246094 307.316406 133.917969 306.960938 Z M 133.917969 306.960938 " fill-opacity="1" fill-rule="nonzero"/></g></g></g><g clip-path="url(#05514f31ee)"><g clip-path="url(#ba7d48ebab)"><g clip-path="url(#f34760372d)"><path fill="#5ce1e6" d="M 99.40625 301.191406 L 97.382812 288.617188 C 97.335938 288.347656 97.1875 288.117188 96.960938 287.972656 L 92.195312 284.914062 C 91.882812 284.714844 91.476562 284.71875 91.164062 284.921875 C 90.851562 285.128906 90.6875 285.5 90.75 285.867188 L 92.636719 297.605469 L 81.183594 300.78125 C 80.824219 300.882812 80.550781 301.183594 80.496094 301.554688 C 80.441406 301.925781 80.605469 302.296875 80.917969 302.496094 L 85.683594 305.554688 C 85.910156 305.699219 86.183594 305.738281 86.445312 305.667969 L 98.71875 302.261719 C 99.1875 302.132812 99.484375 301.667969 99.40625 301.191406 Z M 99.40625 301.191406 " fill-opacity="1" fill-rule="nonzero"/></g></g></g><g clip-path="url(#97ad6d0b61)"><g clip-path="url(#5917be4154)"><g clip-path="url(#0dee5e3195)"><path fill="#5ce1e6" d="M 89.078125 294.570312 L 87.054688 281.992188 C 87.011719 281.726562 86.859375 281.492188 86.632812 281.347656 L 81.867188 278.292969 C 81.554688 278.089844 81.152344 278.09375 80.839844 278.296875 C 80.527344 278.507812 80.363281 278.878906 80.421875 279.246094 L 82.308594 290.980469 L 70.855469 294.160156 C 70.496094 294.257812 70.226562 294.5625 70.167969 294.933594 C 70.113281 295.304688 70.277344 295.671875 70.589844 295.871094 L 75.359375 298.929688 C 75.582031 299.074219 75.859375 299.113281 76.117188 299.046875 L 88.394531 295.640625 C 88.859375 295.507812 89.15625 295.046875 89.078125 294.570312 Z M 89.078125 294.570312 " fill-opacity="1" fill-rule="nonzero"/></g></g></g><g clip-path="url(#dc30690fe4)"><g clip-path="url(#212ba38017)"><g clip-path="url(#cf837899c0)"><path fill="#38b6ff" d="M 61.433594 282.320312 L 61.902344 269.589844 C 61.910156 269.316406 61.808594 269.0625 61.613281 268.875 L 57.535156 264.945312 C 57.269531 264.6875 56.871094 264.613281 56.523438 264.753906 C 56.175781 264.894531 55.945312 265.226562 55.929688 265.601562 L 55.492188 277.480469 L 43.640625 278.363281 C 43.265625 278.390625 42.941406 278.632812 42.816406 278.988281 C 42.6875 279.339844 42.777344 279.734375 43.046875 279.992188 L 47.125 283.917969 C 47.316406 284.105469 47.582031 284.195312 47.847656 284.179688 L 60.550781 283.234375 C 61.035156 283.199219 61.414062 282.800781 61.433594 282.320312 Z M 61.433594 282.320312 " fill-opacity="1" fill-rule="nonzero"/></g></g></g><g clip-path="url(#2aa8856995)"><g clip-path="url(#ec2d759d41)"><g clip-path="url(#2d0787bc91)"><path fill="#38b6ff" d="M 52.597656 273.808594 L 53.066406 261.078125 C 53.074219 260.808594 52.96875 260.550781 52.777344 260.363281 L 48.699219 256.4375 C 48.429688 256.179688 48.035156 256.101562 47.6875 256.242188 C 47.339844 256.386719 47.109375 256.71875 47.09375 257.089844 L 46.65625 268.96875 L 34.804688 269.851562 C 34.429688 269.878906 34.105469 270.125 33.980469 270.476562 C 33.851562 270.828125 33.941406 271.222656 34.210938 271.480469 L 38.289062 275.410156 C 38.480469 275.59375 38.742188 275.6875 39.011719 275.671875 L 51.714844 274.722656 C 52.199219 274.6875 52.578125 274.292969 52.597656 273.808594 Z M 52.597656 273.808594 " fill-opacity="1" fill-rule="nonzero"/></g></g></g><g clip-path="url(#4ee95a4a90)"><g clip-path="url(#345c2a294c)"><g clip-path="url(#43c1c2fba5)"><path fill="#38b6ff" d="M 36.792969 250.25 L 40.734375 238.136719 C 40.816406 237.878906 40.789062 237.601562 40.652344 237.371094 L 37.808594 232.476562 C 37.621094 232.15625 37.261719 231.972656 36.890625 232.011719 C 36.515625 232.054688 36.199219 232.308594 36.085938 232.664062 L 32.410156 243.96875 L 20.769531 241.570312 C 20.402344 241.492188 20.023438 241.640625 19.804688 241.945312 C 19.585938 242.25 19.5625 242.652344 19.75 242.972656 L 22.597656 247.867188 C 22.730469 248.101562 22.957031 248.261719 23.21875 248.316406 L 35.695312 250.890625 C 36.171875 250.988281 36.648438 250.710938 36.792969 250.25 Z M 36.792969 250.25 " fill-opacity="1" fill-rule="nonzero"/></g></g></g><g clip-path="url(#5007c0e878)"><g clip-path="url(#7c1a584b6f)"><g clip-path="url(#fabe222651)"><path fill="#38b6ff" d="M 30.628906 239.644531 L 34.570312 227.53125 C 34.652344 227.273438 34.625 226.996094 34.488281 226.765625 L 31.644531 221.871094 C 31.457031 221.546875 31.097656 221.367188 30.722656 221.40625 C 30.351562 221.449219 30.035156 221.703125 29.921875 222.058594 L 26.246094 233.363281 L 14.601562 230.960938 C 14.238281 230.886719 13.859375 231.035156 13.640625 231.335938 C 13.417969 231.640625 13.398438 232.042969 13.585938 232.367188 L 16.429688 237.261719 C 16.566406 237.492188 16.792969 237.652344 17.054688 237.710938 L 29.53125 240.28125 C 30.003906 240.378906 30.480469 240.105469 30.628906 239.644531 Z M 30.628906 239.644531 " fill-opacity="1" fill-rule="nonzero"/></g></g></g><g clip-path="url(#59a2402de7)"><path fill="#38b6ff" d="M 20.015625 200.003906 L 29.507812 191.511719 C 29.710938 191.332031 29.824219 191.078125 29.824219 190.808594 L 29.824219 185.148438 C 29.824219 184.777344 29.605469 184.4375 29.261719 184.285156 C 28.917969 184.132812 28.515625 184.195312 28.242188 184.445312 L 19.378906 192.371094 L 10.523438 184.445312 C 10.242188 184.195312 9.84375 184.132812 9.5 184.285156 C 9.15625 184.4375 8.9375 184.777344 8.9375 185.148438 L 8.9375 190.808594 C 8.9375 191.078125 9.050781 191.332031 9.25 191.511719 L 18.746094 200.003906 C 19.105469 200.328125 19.65625 200.328125 20.015625 200.003906 Z M 20.015625 200.003906 " fill-opacity="1" fill-rule="nonzero"/></g><g clip-path="url(#a8deac9e9f)"><path fill="#38b6ff" d="M 20.015625 187.738281 L 29.507812 179.242188 C 29.710938 179.0625 29.824219 178.808594 29.824219 178.542969 L 29.824219 172.878906 C 29.824219 172.507812 29.605469 172.171875 29.261719 172.015625 C 28.917969 171.867188 28.515625 171.929688 28.242188 172.175781 L 19.378906 180.101562 L 10.523438 172.175781 C 10.242188 171.929688 9.84375 171.863281 9.5 172.015625 C 9.15625 172.171875 8.9375 172.507812 8.9375 172.878906 L 8.9375 178.542969 C 8.9375 178.808594 9.050781 179.0625 9.25 179.242188 L 18.746094 187.738281 C 19.105469 188.058594 19.65625 188.058594 20.015625 187.738281 Z M 20.015625 187.738281 " fill-opacity="1" fill-rule="nonzero"/></g><g clip-path="url(#f93b4ed1e8)"><g clip-path="url(#3ec1f284d3)"><g clip-path="url(#7e6ce0d8b6)"><path fill="#5ce1e6" d="M 22.28125 145.097656 L 34.921875 143.527344 C 35.191406 143.492188 35.429688 143.347656 35.582031 143.128906 L 38.808594 138.476562 C 39.019531 138.167969 39.03125 137.765625 38.835938 137.445312 C 38.640625 137.125 38.273438 136.949219 37.90625 136.996094 L 26.109375 138.460938 L 23.34375 126.902344 C 23.253906 126.539062 22.960938 126.257812 22.59375 126.191406 C 22.226562 126.121094 21.851562 126.273438 21.640625 126.578125 L 18.414062 131.230469 C 18.261719 131.453125 18.210938 131.726562 18.273438 131.988281 L 21.238281 144.375 C 21.351562 144.847656 21.800781 145.160156 22.28125 145.097656 Z M 22.28125 145.097656 " fill-opacity="1" fill-rule="nonzero"/></g></g></g><g clip-path="url(#9133c55aec)"><g clip-path="url(#72f0e98f50)"><g clip-path="url(#b9d4ed7ac1)"><path fill="#5ce1e6" d="M 29.269531 135.015625 L 41.910156 133.441406 C 42.179688 133.410156 42.417969 133.265625 42.570312 133.046875 L 45.792969 128.390625 C 46.007812 128.085938 46.019531 127.683594 45.824219 127.363281 C 45.628906 127.042969 45.261719 126.867188 44.894531 126.914062 L 33.097656 128.378906 L 30.332031 116.820312 C 30.242188 116.457031 29.949219 116.175781 29.582031 116.105469 C 29.210938 116.035156 28.839844 116.1875 28.628906 116.492188 L 25.402344 121.148438 C 25.25 121.367188 25.199219 121.640625 25.261719 121.902344 L 28.226562 134.292969 C 28.335938 134.761719 28.789062 135.078125 29.269531 135.015625 Z M 29.269531 135.015625 " fill-opacity="1" fill-rule="nonzero"/></g></g></g><g clip-path="url(#c045c5b4e1)"><g clip-path="url(#b0415277c3)"><g clip-path="url(#1f6fe9bef5)"><path fill="#38b6ff" d="M 45.109375 108.90625 L 57.78125 110.222656 C 58.050781 110.25 58.3125 110.164062 58.511719 109.984375 L 62.703125 106.175781 C 62.976562 105.925781 63.078125 105.535156 62.960938 105.179688 C 62.84375 104.824219 62.527344 104.570312 62.15625 104.53125 L 50.332031 103.304688 L 50.242188 91.417969 C 50.238281 91.042969 50.015625 90.703125 49.675781 90.554688 C 49.332031 90.402344 48.933594 90.46875 48.65625 90.71875 L 44.464844 94.523438 C 44.265625 94.707031 44.160156 94.960938 44.15625 95.230469 L 44.253906 107.96875 C 44.257812 108.453125 44.628906 108.859375 45.109375 108.90625 Z M 45.109375 108.90625 " fill-opacity="1" fill-rule="nonzero"/></g></g></g><g clip-path="url(#ef47473159)"><g clip-path="url(#cf907805e8)"><g clip-path="url(#7a4ae17893)"><path fill="#38b6ff" d="M 54.1875 100.65625 L 66.859375 101.972656 C 67.128906 102 67.394531 101.914062 67.589844 101.734375 L 71.78125 97.925781 C 72.058594 97.675781 72.160156 97.285156 72.042969 96.929688 C 71.921875 96.574219 71.609375 96.320312 71.238281 96.28125 L 59.414062 95.054688 L 59.324219 83.167969 C 59.320312 82.792969 59.097656 82.457031 58.753906 82.304688 C 58.410156 82.152344 58.011719 82.21875 57.738281 82.46875 L 53.546875 86.273438 C 53.347656 86.457031 53.238281 86.710938 53.238281 86.980469 L 53.335938 99.71875 C 53.339844 100.203125 53.710938 100.609375 54.1875 100.65625 Z M 54.1875 100.65625 " fill-opacity="1" fill-rule="nonzero"/></g></g></g><g clip-path="url(#91eacfa56e)"><g clip-path="url(#c290c79639)"><g clip-path="url(#c8eac4ff06)"><path fill="#38b6ff" d="M 75.378906 84.589844 L 87.1875 89.363281 C 87.441406 89.460938 87.71875 89.453125 87.957031 89.335938 L 93.039062 86.835938 C 93.371094 86.671875 93.578125 86.328125 93.566406 85.953125 C 93.550781 85.578125 93.316406 85.246094 92.96875 85.105469 L 81.949219 80.652344 L 85.152344 69.207031 C 85.253906 68.84375 85.136719 68.457031 84.847656 68.21875 C 84.558594 67.976562 84.160156 67.929688 83.824219 68.09375 L 78.742188 70.589844 C 78.503906 70.707031 78.328125 70.925781 78.25 71.179688 L 74.816406 83.449219 C 74.6875 83.914062 74.929688 84.410156 75.378906 84.589844 Z M 75.378906 84.589844 " fill-opacity="1" fill-rule="nonzero"/></g></g></g><g clip-path="url(#c1121fd309)"><g clip-path="url(#6da45fdfe2)"><g clip-path="url(#a95b53ae18)"><path fill="#38b6ff" d="M 86.386719 79.175781 L 98.199219 83.949219 C 98.449219 84.050781 98.726562 84.042969 98.96875 83.921875 L 104.050781 81.425781 C 104.382812 81.261719 104.589844 80.914062 104.574219 80.539062 C 104.558594 80.164062 104.328125 79.832031 103.980469 79.695312 L 92.960938 75.238281 L 96.164062 63.792969 C 96.265625 63.433594 96.144531 63.046875 95.859375 62.804688 C 95.570312 62.566406 95.167969 62.515625 94.835938 62.679688 L 89.753906 65.179688 C 89.511719 65.296875 89.335938 65.511719 89.261719 65.769531 L 85.828125 78.035156 C 85.695312 78.503906 85.941406 78.996094 86.386719 79.175781 Z M 86.386719 79.175781 " fill-opacity="1" fill-rule="nonzero"/></g></g></g><g clip-path="url(#4fe3db4d35)"><path fill="#38b6ff" d="M 118.214844 68.148438 L 126.707031 77.640625 C 126.890625 77.84375 127.144531 77.957031 127.410156 77.957031 L 133.074219 77.957031 C 133.445312 77.957031 133.78125 77.738281 133.9375 77.394531 C 134.085938 77.050781 134.023438 76.652344 133.773438 76.375 L 125.851562 67.515625 L 133.773438 58.65625 C 134.023438 58.375 134.089844 57.976562 133.9375 57.632812 C 133.78125 57.289062 133.445312 57.070312 133.074219 57.070312 L 127.410156 57.070312 C 127.144531 57.070312 126.890625 57.1875 126.707031 57.382812 L 118.214844 66.878906 C 117.894531 67.238281 117.894531 67.789062 118.214844 68.148438 Z M 118.214844 68.148438 " fill-opacity="1" fill-rule="nonzero"/></g><g clip-path="url(#33004f6045)"><path fill="#38b6ff" d="M 130.484375 68.148438 L 138.976562 77.640625 C 139.160156 77.84375 139.410156 77.957031 139.679688 77.957031 L 145.339844 77.957031 C 145.714844 77.957031 146.050781 77.738281 146.203125 77.394531 C 146.355469 77.050781 146.292969 76.652344 146.042969 76.375 L 138.117188 67.515625 L 146.042969 58.65625 C 146.292969 58.375 146.355469 57.976562 146.203125 57.632812 C 146.050781 57.289062 145.714844 57.070312 145.339844 57.070312 L 139.679688 57.070312 C 139.410156 57.070312 139.160156 57.1875 138.976562 57.382812 L 130.484375 66.878906 C 130.160156 67.238281 130.160156 67.789062 130.484375 68.148438 Z M 130.484375 68.148438 " fill-opacity="1" fill-rule="nonzero"/></g><g clip-path="url(#937b5ba17d)"><g clip-path="url(#a2994b7749)"><g clip-path="url(#3fb0882913)"><path fill="#5ce1e6" d="M 154.75 67.308594 L 162.957031 77.054688 C 163.128906 77.257812 163.378906 77.382812 163.648438 77.390625 L 169.308594 77.558594 C 169.679688 77.570312 170.023438 77.359375 170.1875 77.023438 C 170.347656 76.683594 170.296875 76.28125 170.058594 75.996094 L 162.402344 66.902344 L 170.589844 58.289062 C 170.847656 58.015625 170.925781 57.617188 170.78125 57.273438 C 170.640625 56.921875 170.308594 56.691406 169.9375 56.683594 L 164.277344 56.511719 C 164.007812 56.503906 163.753906 56.613281 163.566406 56.804688 L 154.789062 66.039062 C 154.457031 66.386719 154.441406 66.9375 154.75 67.308594 Z M 154.75 67.308594 " fill-opacity="1" fill-rule="nonzero"/></g></g></g><g clip-path="url(#dca0afc031)"><g clip-path="url(#85fff945af)"><g clip-path="url(#78033d0d16)"><path fill="#5ce1e6" d="M 167.015625 67.675781 L 175.21875 77.421875 C 175.394531 77.628906 175.640625 77.75 175.910156 77.757812 L 181.570312 77.929688 C 181.941406 77.941406 182.285156 77.730469 182.449219 77.394531 C 182.609375 77.054688 182.558594 76.652344 182.320312 76.367188 L 174.664062 67.273438 L 182.851562 58.65625 C 183.109375 58.386719 183.1875 57.988281 183.042969 57.640625 C 182.902344 57.292969 182.570312 57.0625 182.199219 57.050781 L 176.539062 56.878906 C 176.269531 56.871094 176.015625 56.980469 175.828125 57.171875 L 167.050781 66.40625 C 166.71875 66.757812 166.703125 67.308594 167.015625 67.675781 Z M 167.015625 67.675781 " fill-opacity="1" fill-rule="nonzero"/></g></g></g><g clip-path="url(#7436ecb393)"><g clip-path="url(#fd36d25d0b)"><g clip-path="url(#ba9057c070)"><path fill="#38b6ff" d="M 266.402344 67.308594 L 274.609375 77.054688 C 274.78125 77.257812 275.03125 77.382812 275.300781 77.390625 L 280.960938 77.558594 C 281.332031 77.570312 281.675781 77.359375 281.839844 77.023438 C 282 76.683594 281.949219 76.28125 281.710938 75.996094 L 274.054688 66.902344 L 282.242188 58.289062 C 282.5 58.015625 282.578125 57.617188 282.433594 57.273438 C 282.292969 56.921875 281.960938 56.691406 281.589844 56.683594 L 275.929688 56.511719 C 275.660156 56.503906 275.40625 56.613281 275.21875 56.804688 L 266.441406 66.039062 C 266.109375 66.386719 266.09375 66.9375 266.402344 67.308594 Z M 266.402344 67.308594 " fill-opacity="1" fill-rule="nonzero"/></g></g></g><g clip-path="url(#9ebf18f0a2)"><g clip-path="url(#c07e42f45b)"><g clip-path="url(#874cd6c710)"><path fill="#38b6ff" d="M 278.667969 67.675781 L 286.871094 77.421875 C 287.046875 77.628906 287.292969 77.75 287.5625 77.757812 L 293.222656 77.929688 C 293.59375 77.941406 293.9375 77.730469 294.101562 77.394531 C 294.261719 77.054688 294.210938 76.652344 293.972656 76.367188 L 286.316406 67.273438 L 294.503906 58.65625 C 294.761719 58.386719 294.839844 57.988281 294.695312 57.640625 C 294.554688 57.292969 294.222656 57.0625 293.851562 57.050781 L 288.191406 56.878906 C 287.921875 56.871094 287.667969 56.980469 287.480469 57.171875 L 278.703125 66.40625 C 278.371094 66.757812 278.355469 67.308594 278.667969 67.675781 Z M 278.667969 67.675781 " fill-opacity="1" fill-rule="nonzero"/></g></g></g><g clip-path="url(#a154dbe86a)"><g clip-path="url(#e23b437750)"><g clip-path="url(#187d5d9a6a)"><path fill="#38b6ff" d="M 229.277344 67.308594 L 237.484375 77.054688 C 237.65625 77.257812 237.90625 77.382812 238.175781 77.390625 L 243.835938 77.558594 C 244.207031 77.570312 244.550781 77.359375 244.714844 77.023438 C 244.875 76.683594 244.824219 76.28125 244.585938 75.996094 L 236.929688 66.902344 L 245.117188 58.289062 C 245.375 58.015625 245.453125 57.617188 245.308594 57.273438 C 245.167969 56.921875 244.835938 56.691406 244.464844 56.683594 L 238.804688 56.511719 C 238.535156 56.503906 238.28125 56.613281 238.09375 56.804688 L 229.316406 66.039062 C 228.984375 66.386719 228.96875 66.9375 229.277344 67.308594 Z M 229.277344 67.308594 " fill-opacity="1" fill-rule="nonzero"/></g></g></g><g clip-path="url(#80823c3f71)"><g clip-path="url(#6580695690)"><g clip-path="url(#1669d2ac0a)"><path fill="#38b6ff" d="M 241.542969 67.675781 L 249.746094 77.421875 C 249.921875 77.628906 250.167969 77.75 250.4375 77.757812 L 256.097656 77.929688 C 256.46875 77.941406 256.8125 77.730469 256.976562 77.394531 C 257.136719 77.054688 257.085938 76.652344 256.847656 76.367188 L 249.191406 67.273438 L 257.378906 58.65625 C 257.636719 58.386719 257.714844 57.988281 257.570312 57.640625 C 257.429688 57.292969 257.097656 57.0625 256.726562 57.050781 L 251.066406 56.878906 C 250.796875 56.871094 250.542969 56.980469 250.355469 57.171875 L 241.578125 66.40625 C 241.246094 66.757812 241.230469 67.308594 241.542969 67.675781 Z M 241.542969 67.675781 " fill-opacity="1" fill-rule="nonzero"/></g></g></g><g clip-path="url(#8d48a995d0)"><g clip-path="url(#4428335aac)"><g clip-path="url(#b5b5bfd69c)"><path fill="#38b6ff" d="M 192.761719 67.308594 L 200.964844 77.054688 C 201.140625 77.257812 201.390625 77.382812 201.660156 77.390625 L 207.316406 77.558594 C 207.691406 77.570312 208.035156 77.359375 208.199219 77.023438 C 208.359375 76.683594 208.308594 76.28125 208.066406 75.996094 L 200.414062 66.902344 L 208.601562 58.289062 C 208.859375 58.015625 208.933594 57.617188 208.792969 57.273438 C 208.648438 56.921875 208.320312 56.691406 207.945312 56.683594 L 202.289062 56.511719 C 202.019531 56.503906 201.761719 56.613281 201.574219 56.804688 L 192.800781 66.039062 C 192.46875 66.386719 192.449219 66.9375 192.761719 67.308594 Z M 192.761719 67.308594 " fill-opacity="1" fill-rule="nonzero"/></g></g></g><g clip-path="url(#b287e4d3a8)"><g clip-path="url(#593bb20ff3)"><g clip-path="url(#5656048529)"><path fill="#38b6ff" d="M 205.023438 67.675781 L 213.230469 77.421875 C 213.402344 77.628906 213.652344 77.75 213.921875 77.757812 L 219.582031 77.929688 C 219.953125 77.941406 220.296875 77.730469 220.460938 77.394531 C 220.621094 77.054688 220.570312 76.652344 220.332031 76.367188 L 212.675781 67.273438 L 220.863281 58.65625 C 221.121094 58.386719 221.199219 57.988281 221.054688 57.640625 C 220.914062 57.292969 220.582031 57.0625 220.210938 57.050781 L 214.550781 56.878906 C 214.28125 56.871094 214.027344 56.980469 213.839844 57.171875 L 205.0625 66.40625 C 204.730469 66.757812 204.714844 67.308594 205.023438 67.675781 Z M 205.023438 67.675781 " fill-opacity="1" fill-rule="nonzero"/></g></g></g></svg>