<svg xmlns="http://www.w3.org/2000/svg" width="450" viewBox="0 0 337.5 375" height="500" version="1.0"><defs><clipPath id="prefix__a"><path d="M0 52.777h303.75V323H0zm0 0"/></clipPath><clipPath id="prefix__b"><path d="M7.918 142.824C3.137 156.668 0 172.406 0 187.852c0 15.445 2.688 30.304 7.469 44.003.152.29.152.583.3.875 19.122 51.434 69.622 89.317 127.887 90.047H303.75v-270H135.781C77.094 53.504 26.594 90.81 7.918 142.824"/></clipPath><clipPath id="prefix__c"><path d="M0 52.777h303.75v270H0zm0 0"/></clipPath><clipPath id="prefix__d"><path d="M7.918 142.824C3.137 156.668 0 172.406 0 187.852c0 15.445 2.688 30.304 7.469 44.003.152.29.152.583.3.875 19.122 51.434 69.622 89.317 127.887 90.047H303.75v-270H135.781C77.094 53.504 26.594 90.81 7.918 142.824"/></clipPath><clipPath id="prefix__e"><path d="M34 77h217v217H34zm0 0"/></clipPath><clipPath id="prefix__f"><path d="M140.117 338.43L-10.055 182.77 145.602 32.598l150.171 155.66zm0 0"/></clipPath><clipPath id="prefix__g"><path d="M65.129 260.703c41.414 42.926 109.785 44.152 152.71 2.738 42.927-41.414 44.153-109.785 2.74-152.71-41.411-42.926-109.782-44.153-152.708-2.739-42.93 41.414-44.152 109.785-2.742 152.711"/></clipPath><clipPath id="prefix__h"><path d="M34 77h217v217H34zm0 0"/></clipPath><clipPath id="prefix__i"><path d="M140.117 338.43L-9.855 182.98 145.594 33.008l149.972 155.449zm0 0"/></clipPath><clipPath id="prefix__j"><path d="M140.117 338.43L-11.977 180.78 145.672 28.687l152.094 157.649zm0 0"/></clipPath><clipPath id="prefix__k"><path d="M65.129 260.703c41.414 42.926 109.785 44.152 152.71 2.738 42.927-41.414 44.153-109.785 2.74-152.71-41.411-42.926-109.782-44.153-152.708-2.739-42.93 41.414-44.152 109.785-2.742 152.711"/></clipPath><clipPath id="prefix__l"><path d="M90 205h36v36H90zm0 0"/></clipPath><clipPath id="prefix__m"><path d="M103.219 240.707L90.28 227.953l22.41-22.734 12.938 12.75zm0 0"/></clipPath><clipPath id="prefix__n"><path d="M103.219 240.707l-12.653-12.473 22.27-22.597 12.656 12.472zm0 0"/></clipPath><clipPath id="prefix__o"><path d="M117 123h26v37h-26zm0 0"/></clipPath><clipPath id="prefix__p"><path d="M142.344 154.531l-17.563 4.637-8.148-30.867 17.562-4.637zm0 0"/></clipPath><clipPath id="prefix__q"><path d="M142.344 154.531l-17.18 4.535-8.094-30.68 17.176-4.53zm0 0"/></clipPath><clipPath id="prefix__r"><path d="M108 141h82v83h-82zm0 0"/></clipPath><clipPath id="prefix__s"><path d="M200.527 160.246l-21.832 82.352-71.515-18.961 21.832-82.352zm0 0"/></clipPath><clipPath id="prefix__t"><path d="M189.695 201.105l-81.66 22.083 21.668-81.72 59.992 59.637"/></clipPath><clipPath id="prefix__u"><path d="M164 186h36v26h-36zm0 0"/></clipPath><clipPath id="prefix__v"><path d="M199.605 194.54l-4.656 17.554-30.855-8.18 4.652-17.559zm0 0"/></clipPath><clipPath id="prefix__w"><path d="M199.605 194.54l-4.554 17.17-30.668-8.132 4.554-17.172zm0 0"/></clipPath><clipPath id="prefix__x"><path d="M189 180h57v57h-57zm0 0"/></clipPath><clipPath id="prefix__y"><path d="M198.23 173.941l53.422 15.489-15.488 53.422-53.422-15.489zm0 0"/></clipPath><clipPath id="prefix__z"><path d="M224.941 181.684c-14.754-4.278-30.18 4.214-34.457 18.968-4.277 14.75 4.215 30.176 18.97 34.453 14.75 4.278 30.175-4.214 34.452-18.964 4.278-14.754-4.215-30.18-18.965-34.457"/></clipPath><clipPath id="prefix__A"><path d="M189 180h56v57h-56zm0 0"/></clipPath><clipPath id="prefix__B"><path d="M198.23 173.941l53.305 15.454-15.457 53.304-53.305-15.453zm0 0"/></clipPath><clipPath id="prefix__C"><path d="M198.23 173.941l53.305 15.454-15.457 53.304-53.305-15.453zm0 0"/></clipPath><clipPath id="prefix__D"><path d="M224.883 181.668c-14.719-4.27-30.113 4.203-34.38 18.926-4.269 14.719 4.204 30.11 18.923 34.379 14.722 4.265 30.113-4.207 34.383-18.926 4.265-14.719-4.207-30.113-18.926-34.379"/></clipPath><clipPath id="prefix__E"><path d="M94 84h56v57H94zm0 0"/></clipPath><clipPath id="prefix__F"><path d="M141.469 78.414l14.515 53.695-53.691 14.52-14.52-53.695zm0 0"/></clipPath><clipPath id="prefix__G"><path d="M148.727 105.262c-4.008-14.828-19.278-23.598-34.106-19.586-14.828 4.008-23.598 19.277-19.59 34.105 4.012 14.824 19.281 23.598 34.11 19.586 14.824-4.008 23.593-19.277 19.586-34.105"/></clipPath><clipPath id="prefix__H"><path d="M94 84h56v57H94zm0 0"/></clipPath><clipPath id="prefix__I"><path d="M141.469 78.414l14.484 53.578-53.574 14.485L87.89 92.902zm0 0"/></clipPath><clipPath id="prefix__J"><path d="M141.469 78.414l14.484 53.578-53.574 14.485L87.89 92.902zm0 0"/></clipPath><clipPath id="prefix__K"><path d="M148.71 105.203c-4-14.793-19.233-23.547-34.03-19.547-14.793 4-23.543 19.239-19.543 34.031 4 14.797 19.234 23.547 34.027 19.547 14.797-4 23.547-19.234 19.547-34.03"/></clipPath><clipPath id="prefix__L"><path d="M61 213h57v57H61zm0 0"/></clipPath><clipPath id="prefix__M"><path d="M70.723 206.922l53.422 15.488-15.489 53.422-53.422-15.488zm0 0"/></clipPath><clipPath id="prefix__N"><path d="M97.434 214.668c-14.75-4.277-30.176 4.215-34.454 18.965-4.277 14.754 4.215 30.18 18.965 34.457 14.754 4.277 30.18-4.215 34.457-18.969 4.278-14.75-4.215-30.176-18.968-34.453"/></clipPath><clipPath id="prefix__O"><path d="M61 213h57v57H61zm0 0"/></clipPath><clipPath id="prefix__P"><path d="M70.723 206.922l53.304 15.453-15.453 53.309-53.304-15.457zm0 0"/></clipPath><clipPath id="prefix__Q"><path d="M70.723 206.922l53.304 15.453-15.453 53.309-53.304-15.457zm0 0"/></clipPath><clipPath id="prefix__R"><path d="M97.375 214.648c-14.719-4.265-30.11 4.207-34.379 18.926-4.266 14.719 4.207 30.113 18.926 34.38 14.719 4.269 30.113-4.204 34.379-18.927 4.27-14.718-4.203-30.109-18.926-34.379"/></clipPath><clipPath id="prefix__S"><path d="M210 201h15v15h-15zm0 0"/></clipPath><clipPath id="prefix__T"><path d="M225.73 203.434l-3.578 13.492-13.492-3.578 3.578-13.493zm0 0"/></clipPath><clipPath id="prefix__U"><path d="M223.941 210.18a6.978 6.978 0 00-4.957-8.535 6.978 6.978 0 00-8.535 4.957 6.978 6.978 0 004.957 8.535 6.978 6.978 0 008.535-4.957"/></clipPath><clipPath id="prefix__V"><path d="M114 105h15v15h-15zm0 0"/></clipPath><clipPath id="prefix__W"><path d="M130.441 117.434l-13.476 3.64-3.645-13.472 13.477-3.645zm0 0"/></clipPath><clipPath id="prefix__X"><path d="M123.703 119.254a6.982 6.982 0 004.918-8.559 6.985 6.985 0 00-8.562-4.918c-3.72 1.008-5.922 4.84-4.914 8.559a6.979 6.979 0 008.558 4.918"/></clipPath><clipPath id="prefix__Y"><path d="M83 235h15v15H83zm0 0"/></clipPath><clipPath id="prefix__Z"><path d="M98.977 237.133l-3.579 13.492-13.496-3.574 3.578-13.496zm0 0"/></clipPath><clipPath id="prefix__aa"><path d="M97.188 243.879a6.98 6.98 0 10-13.496-3.574 6.98 6.98 0 0013.496 3.574"/></clipPath><clipPath id="prefix__ab"><path d="M134 239h46v20h-46zm0 0"/></clipPath><clipPath id="prefix__ac"><path d="M134.164 252.469l44.34-16.324 4.664 12.667-44.344 16.325zm0 0"/></clipPath><clipPath id="prefix__ad"><path d="M134.164 252.469l44.34-16.324 4.664 12.667-44.344 16.325zm0 0"/></clipPath><clipPath id="prefix__ae"><path d="M134.164 252.469l44.34-16.324 4.664 12.667-44.344 16.325zm0 0"/></clipPath><clipPath id="prefix__af"><path d="M143 255h1v1h-1zm0 0"/></clipPath><clipPath id="prefix__ag"><path d="M134.164 252.469l44.34-16.324 4.664 12.667-44.344 16.325zm0 0"/></clipPath><clipPath id="prefix__ah"><path d="M134.164 252.469l44.34-16.324 4.664 12.667-44.344 16.325zm0 0"/></clipPath><clipPath id="prefix__ai"><path d="M134.164 252.469l44.34-16.324 4.664 12.667-44.344 16.325zm0 0"/></clipPath><clipPath id="prefix__aj"><path d="M67 150h23v45H67zm0 0"/></clipPath><clipPath id="prefix__ak"><path d="M89.996 150.473L77.82 196.125l-13.043-3.477 12.176-45.656zm0 0"/></clipPath><clipPath id="prefix__al"><path d="M89.996 150.473L77.82 196.125l-13.043-3.477 12.176-45.656zm0 0"/></clipPath><clipPath id="prefix__am"><path d="M89.996 150.473L77.82 196.125l-13.043-3.477 12.176-45.656zm0 0"/></clipPath><clipPath id="prefix__an"><path d="M82 155h1v1h-1zm0 0"/></clipPath><clipPath id="prefix__ao"><path d="M89.996 150.473L77.82 196.125l-13.043-3.477 12.176-45.656zm0 0"/></clipPath><clipPath id="prefix__ap"><path d="M89.996 150.473L77.82 196.125l-13.043-3.477 12.176-45.656zm0 0"/></clipPath><clipPath id="prefix__aq"><path d="M89.996 150.473L77.82 196.125l-13.043-3.477 12.176-45.656zm0 0"/></clipPath><clipPath id="prefix__ar"><path d="M171 121h30v40h-30zm0 0"/></clipPath><clipPath id="prefix__as"><path d="M198.617 161.598l-30.57-36.024 10.293-8.734 30.57 36.023zm0 0"/></clipPath><clipPath id="prefix__at"><path d="M198.617 161.598l-30.57-36.024 10.293-8.734 30.57 36.023zm0 0"/></clipPath><clipPath id="prefix__au"><path d="M198.617 161.598l-30.57-36.024 10.293-8.734 30.57 36.023zm0 0"/></clipPath><clipPath id="prefix__av"><path d="M198 151h1v2h-1zm0 0"/></clipPath><clipPath id="prefix__aw"><path d="M198.617 161.598l-30.57-36.024 10.293-8.734 30.57 36.023zm0 0"/></clipPath><clipPath id="prefix__ax"><path d="M198.617 161.598l-30.57-36.024 10.293-8.734 30.57 36.023zm0 0"/></clipPath><clipPath id="prefix__ay"><path d="M198.617 161.598l-30.57-36.024 10.293-8.734 30.57 36.023zm0 0"/></clipPath><clipPath id="prefix__az"><path d="M278 297.129h17v21h-17zm0 0"/></clipPath><clipPath id="prefix__aA"><path d="M266.625 297.129H283v21h-16.375zm0 0"/></clipPath><clipPath id="prefix__aB"><path d="M241 297.129h17v21h-17zm0 0"/></clipPath><clipPath id="prefix__aC"><path d="M229.5 297.129H246v21h-16.5zm0 0"/></clipPath><clipPath id="prefix__aD"><path d="M204 297.129h16.875v21H204zm0 0"/></clipPath><clipPath id="prefix__aE"><path d="M192.375 297.129H209v21h-16.625zm0 0"/></clipPath><clipPath id="prefix__aF"><path d="M167 297.129h16.75v21H167zm0 0"/></clipPath><clipPath id="prefix__aG"><path d="M155.25 297.129H172v21h-16.75zm0 0"/></clipPath><clipPath id="prefix__aH"><path d="M130 297h17v22h-17zm0 0"/></clipPath><clipPath id="prefix__aI"><path d="M117.945 297.379l28.496-.504.371 20.996-28.496.504zm0 0"/></clipPath><clipPath id="prefix__aJ"><path d="M117.945 297.379l28.496-.504.371 20.996-28.496.504zm0 0"/></clipPath><clipPath id="prefix__aK"><path d="M117 297h18v22h-18zm0 0"/></clipPath><clipPath id="prefix__aL"><path d="M117.945 297.379l28.496-.504.371 20.996-28.496.504zm0 0"/></clipPath><clipPath id="prefix__aM"><path d="M117.945 297.379l28.496-.504.371 20.996-28.496.504zm0 0"/></clipPath><clipPath id="prefix__aN"><path d="M80 284h20v22H80zm0 0"/></clipPath><clipPath id="prefix__aO"><path d="M81.105 277.734l23.989 15.387-11.336 17.676-23.992-15.387zm0 0"/></clipPath><clipPath id="prefix__aP"><path d="M81.105 277.734l23.989 15.387-11.336 17.676-23.992-15.387zm0 0"/></clipPath><clipPath id="prefix__aQ"><path d="M70 278h20v22H70zm0 0"/></clipPath><clipPath id="prefix__aR"><path d="M81.105 277.734l23.989 15.387-11.336 17.676-23.992-15.387zm0 0"/></clipPath><clipPath id="prefix__aS"><path d="M81.105 277.734l23.989 15.387-11.336 17.676-23.992-15.387zm0 0"/></clipPath><clipPath id="prefix__aT"><path d="M42 264h20v21H42zm0 0"/></clipPath><clipPath id="prefix__aU"><path d="M48.059 255.742l20.527 19.77-14.566 15.125-20.528-19.77zm0 0"/></clipPath><clipPath id="prefix__aV"><path d="M48.059 255.742l20.527 19.77-14.566 15.125-20.528-19.77zm0 0"/></clipPath><clipPath id="prefix__aW"><path d="M33 256h21v20H33zm0 0"/></clipPath><clipPath id="prefix__aX"><path d="M48.059 255.742l20.527 19.77-14.566 15.125-20.528-19.77zm0 0"/></clipPath><clipPath id="prefix__aY"><path d="M48.059 255.742l20.527 19.77-14.566 15.125-20.528-19.77zm0 0"/></clipPath><clipPath id="prefix__aZ"><path d="M19 232h22v19H19zm0 0"/></clipPath><clipPath id="prefix__ba"><path d="M31.219 221.023l14.32 24.641-18.152 10.555-14.325-24.64zm0 0"/></clipPath><clipPath id="prefix__bb"><path d="M31.219 221.023l14.32 24.641-18.152 10.555-14.325-24.64zm0 0"/></clipPath><clipPath id="prefix__bc"><path d="M13 221h22v20H13zm0 0"/></clipPath><clipPath id="prefix__bd"><path d="M31.219 221.023l14.32 24.641-18.152 10.555-14.325-24.64zm0 0"/></clipPath><clipPath id="prefix__be"><path d="M31.219 221.023l14.32 24.641-18.152 10.555-14.325-24.64zm0 0"/></clipPath><clipPath id="prefix__bf"><path d="M8.879 184h21v16.438h-21zm0 0"/></clipPath><clipPath id="prefix__bg"><path d="M8.879 171.938h21V188h-21zm0 0"/></clipPath><clipPath id="prefix__bh"><path d="M18 126h21v20H18zm0 0"/></clipPath><clipPath id="prefix__bi"><path d="M46.379 127.648l-16.234 23.426-17.262-11.965 16.234-23.422zm0 0"/></clipPath><clipPath id="prefix__bj"><path d="M46.379 127.648l-16.234 23.426-17.262-11.965 16.234-23.422zm0 0"/></clipPath><clipPath id="prefix__bk"><path d="M25 116h21v20H25zm0 0"/></clipPath><clipPath id="prefix__bl"><path d="M46.379 127.648l-16.234 23.426-17.262-11.965 16.234-23.422zm0 0"/></clipPath><clipPath id="prefix__bm"><path d="M46.379 127.648l-16.234 23.426-17.262-11.965 16.234-23.422zm0 0"/></clipPath><clipPath id="prefix__bn"><path d="M44 90h20v21H44zm0 0"/></clipPath><clipPath id="prefix__bo"><path d="M72.52 97.332L51.426 116.5l-14.121-15.543 21.093-19.168zm0 0"/></clipPath><clipPath id="prefix__bp"><path d="M72.52 97.332L51.426 116.5l-14.121-15.543 21.093-19.168zm0 0"/></clipPath><clipPath id="prefix__bq"><path d="M53 82h20v20H53zm0 0"/></clipPath><clipPath id="prefix__br"><path d="M72.52 97.332L51.426 116.5l-14.121-15.543 21.093-19.168zm0 0"/></clipPath><clipPath id="prefix__bs"><path d="M72.52 97.332L51.426 116.5l-14.121-15.543 21.093-19.168zm0 0"/></clipPath><clipPath id="prefix__bt"><path d="M74 67h20v23H74zm0 0"/></clipPath><clipPath id="prefix__bu"><path d="M104.922 81.059L79.344 93.633l-9.266-18.848 25.578-12.57zm0 0"/></clipPath><clipPath id="prefix__bv"><path d="M104.922 81.059L79.344 93.633l-9.266-18.848 25.578-12.57zm0 0"/></clipPath><clipPath id="prefix__bw"><path d="M85 62h20v23H85zm0 0"/></clipPath><clipPath id="prefix__bx"><path d="M104.922 81.059L79.344 93.633l-9.266-18.848 25.578-12.57zm0 0"/></clipPath><clipPath id="prefix__by"><path d="M104.922 81.059L79.344 93.633l-9.266-18.848 25.578-12.57zm0 0"/></clipPath><clipPath id="prefix__bz"><path d="M117.785 57.012H135V78h-17.215zm0 0"/></clipPath><clipPath id="prefix__bA"><path d="M130 57.012h16.285V78H130zm0 0"/></clipPath><clipPath id="prefix__bB"><path d="M154 56h17v22h-17zm0 0"/></clipPath><clipPath id="prefix__bC"><path d="M182.512 78.012l-28.489-.856.633-20.992 28.489.86zm0 0"/></clipPath><clipPath id="prefix__bD"><path d="M182.512 78.012l-28.489-.856.633-20.992 28.489.86zm0 0"/></clipPath><clipPath id="prefix__bE"><path d="M166 56h18v22h-18zm0 0"/></clipPath><clipPath id="prefix__bF"><path d="M182.512 78.012l-28.489-.856.633-20.992 28.489.86zm0 0"/></clipPath><clipPath id="prefix__bG"><path d="M182.512 78.012l-28.489-.856.633-20.992 28.489.86zm0 0"/></clipPath><clipPath id="prefix__bH"><path d="M266 56h17v22h-17zm0 0"/></clipPath><clipPath id="prefix__bI"><path d="M294.164 78.012l-28.488-.856.633-20.992 28.488.86zm0 0"/></clipPath><clipPath id="prefix__bJ"><path d="M294.164 78.012l-28.488-.856.633-20.992 28.488.86zm0 0"/></clipPath><clipPath id="prefix__bK"><path d="M278 56h17v22h-17zm0 0"/></clipPath><clipPath id="prefix__bL"><path d="M294.164 78.012l-28.488-.856.633-20.992 28.488.86zm0 0"/></clipPath><clipPath id="prefix__bM"><path d="M294.164 78.012l-28.488-.856.633-20.992 28.488.86zm0 0"/></clipPath><clipPath id="prefix__bN"><path d="M229 56h17v22h-17zm0 0"/></clipPath><clipPath id="prefix__bO"><path d="M257.04 78.012l-28.49-.856.634-20.992 28.488.86zm0 0"/></clipPath><clipPath id="prefix__bP"><path d="M257.04 78.012l-28.49-.856.634-20.992 28.488.86zm0 0"/></clipPath><clipPath id="prefix__bQ"><path d="M241 56h17v22h-17zm0 0"/></clipPath><clipPath id="prefix__bR"><path d="M257.04 78.012l-28.49-.856.634-20.992 28.488.86zm0 0"/></clipPath><clipPath id="prefix__bS"><path d="M257.04 78.012l-28.49-.856.634-20.992 28.488.86zm0 0"/></clipPath><clipPath id="prefix__bT"><path d="M192 56h17v22h-17zm0 0"/></clipPath><clipPath id="prefix__bU"><path d="M220.523 78.012l-28.488-.856.633-20.992 28.488.86zm0 0"/></clipPath><clipPath id="prefix__bV"><path d="M220.523 78.012l-28.488-.856.633-20.992 28.488.86zm0 0"/></clipPath><clipPath id="prefix__bW"><path d="M204 56h18v22h-18zm0 0"/></clipPath><clipPath id="prefix__bX"><path d="M220.523 78.012l-28.488-.856.633-20.992 28.488.86zm0 0"/></clipPath><clipPath id="prefix__bY"><path d="M220.523 78.012l-28.488-.856.633-20.992 28.488.86zm0 0"/></clipPath></defs><g clip-path="url(#prefix__a)"><g clip-path="url(#prefix__b)"><path fill="#737373" d="M303.75 52.777V323.04H-.133V52.777zm0 0"/></g></g><g clip-path="url(#prefix__c)"><g clip-path="url(#prefix__d)"><path fill="none" d="M7.918 142.824C3.137 156.668 0 172.406 0 187.852c0 15.445 2.687 30.304 7.469 44.003.152.29.152.583.3.875 19.122 51.434 69.622 89.317 127.887 90.047H303.75v-270H135.781C77.094 53.504 26.594 90.81 7.918 142.824" stroke="#000" stroke-width="3"/></g></g><g clip-path="url(#prefix__e)"><g clip-path="url(#prefix__f)"><g clip-path="url(#prefix__g)"><path fill="#a6a6a6" d="M140.117 338.43L-9.672 183.168 145.586 33.383 295.375 188.64zm0 0"/></g></g></g><g clip-path="url(#prefix__h)"><g clip-path="url(#prefix__i)"><g clip-path="url(#prefix__j)"><g clip-path="url(#prefix__k)"><path fill="none" d="M65.129 260.703c41.414 42.926 109.785 44.152 152.71 2.738 42.927-41.414 44.153-109.785 2.74-152.71-41.411-42.926-109.782-44.153-152.708-2.739-42.93 41.414-44.152 109.785-2.742 152.711" stroke="#000" stroke-width="6"/></g></g></g></g><g clip-path="url(#prefix__l)"><g clip-path="url(#prefix__m)"><g clip-path="url(#prefix__n)"><path fill="#ffde59" d="M103.219 240.707L90.676 228.34l22.41-22.735 12.543 12.364zm0 0"/></g></g></g><g clip-path="url(#prefix__o)"><g clip-path="url(#prefix__p)"><g clip-path="url(#prefix__q)"><path fill="#ffde59" d="M142.344 154.531l-17.031 4.496-8.145-30.867 17.027-4.496zm0 0"/></g></g></g><g clip-path="url(#prefix__r)"><g clip-path="url(#prefix__s)"><g clip-path="url(#prefix__t)"><path fill="#ffde59" d="M200.527 160.246l-21.64 81.629-70.797-18.77 21.644-81.628zm0 0"/></g></g></g><g clip-path="url(#prefix__u)"><g clip-path="url(#prefix__v)"><g clip-path="url(#prefix__w)"><path fill="#ffde59" d="M199.605 194.54l-4.515 17.023-30.856-8.18 4.512-17.028zm0 0"/></g></g></g><g clip-path="url(#prefix__x)"><g clip-path="url(#prefix__y)"><g clip-path="url(#prefix__z)"><path fill="#ffde59" d="M198.23 173.941l53.422 15.489-15.488 53.422-53.422-15.489zm0 0"/></g></g></g><g clip-path="url(#prefix__A)"><g clip-path="url(#prefix__B)"><g clip-path="url(#prefix__C)"><g clip-path="url(#prefix__D)"><path d="M224.047 184.543c-5.332-1.547-10.586-1.328-15.754.66l-2.148-5.59c6.425-2.468 12.945-2.742 19.57-.82zm-18.195 1.75c-4.942 2.539-8.61 6.297-11 11.273l-5.399-2.59c2.973-6.19 7.527-10.859 13.664-14.007zm-12.024 13.738c-.164.461-.312.926-.45 1.395-1.401 4.828-1.339 9.625.18 14.39l-5.703 1.82c-1.89-5.921-1.964-11.882-.226-17.878a29.59 29.59 0 01.555-1.727zm.68 18.29c2.25 5.085 5.789 8.968 10.62 11.644l-2.901 5.238c-6.004-3.328-10.403-8.148-13.196-14.46zm13.012 12.804c.89.375 1.804.7 2.742.973 4.332 1.254 8.668 1.328 13.011.214l1.485 5.801c-5.399 1.383-10.785 1.293-16.164-.265a31.023 31.023 0 01-3.399-1.203zm18.3.387c5.203-1.95 9.285-5.258 12.243-9.922l5.054 3.207c-3.672 5.797-8.738 9.902-15.195 12.32zm13.547-12.254a24.954 24.954 0 001.567-4.043c1.113-3.844 1.289-7.711.53-11.61l5.876-1.144c.945 4.844.726 9.652-.656 14.418a30.698 30.698 0 01-1.942 5.016zm1.446-18.238c-1.641-5.305-4.708-9.575-9.196-12.801l3.496-4.86c5.575 4.008 9.383 9.305 11.418 15.891zm-11.45-14.243a24.708 24.708 0 00-5.316-2.234l1.668-5.75a30.65 30.65 0 016.597 2.773zm0 0"/></g></g></g></g><g clip-path="url(#prefix__E)"><g clip-path="url(#prefix__F)"><g clip-path="url(#prefix__G)"><path fill="#ffde59" d="M141.469 78.414l14.515 53.695-53.691 14.52-14.52-53.695zm0 0"/></g></g></g><g clip-path="url(#prefix__H)"><g clip-path="url(#prefix__I)"><g clip-path="url(#prefix__J)"><g clip-path="url(#prefix__K)"><path d="M145.82 105.984c-1.449-5.359-4.363-9.734-8.746-13.117l3.66-4.738c5.446 4.203 9.067 9.637 10.868 16.293zm-10.949-14.636c-4.734-2.907-9.851-4.09-15.348-3.547l-.585-5.957c6.828-.676 13.187.793 19.066 4.398zm-17.984-3.141c-.477.098-.953.215-1.426.34-4.852 1.312-8.918 3.855-12.203 7.633l-4.516-3.93c4.078-4.691 9.133-7.852 15.156-9.48.586-.16 1.172-.301 1.766-.422zm-15.274 10.082c-3.175 4.566-4.656 9.606-4.433 15.125l-5.98.242c-.278-6.86 1.554-13.12 5.5-18.785zm-4.183 17.77c.14.957.34 1.906.593 2.847 1.18 4.356 3.372 8.098 6.579 11.23l-4.188 4.286c-3.984-3.895-6.707-8.547-8.168-13.953a30.418 30.418 0 01-.738-3.528zm9.175 15.84c4.372 3.433 9.317 5.203 14.84 5.308l-.113 5.984c-6.863-.129-13.004-2.324-18.426-6.586zm17.512 5.21a24.557 24.557 0 004.266-.765c3.863-1.043 7.262-2.903 10.195-5.574l4.031 4.43c-3.648 3.32-7.867 5.628-12.664 6.925a30.974 30.974 0 01-5.289.95zm16.332-8.238c3.684-4.16 5.735-8.996 6.164-14.508l5.969.461c-.531 6.848-3.078 12.852-7.644 18.012zm6.227-17.184a24.897 24.897 0 00-.856-5.703l5.782-1.562c.628 2.328.98 4.687 1.058 7.078zm0 0"/></g></g></g></g><g clip-path="url(#prefix__L)"><g clip-path="url(#prefix__M)"><g clip-path="url(#prefix__N)"><path fill="#ffde59" d="M70.723 206.922l53.422 15.488-15.489 53.422-53.422-15.488zm0 0"/></g></g></g><g clip-path="url(#prefix__O)"><g clip-path="url(#prefix__P)"><g clip-path="url(#prefix__Q)"><g clip-path="url(#prefix__R)"><path d="M96.543 217.523c-5.336-1.546-10.586-1.324-15.754.66l-2.148-5.59c6.421-2.464 12.945-2.738 19.57-.82zm-18.195 1.754c-4.946 2.536-8.614 6.293-11.004 11.274l-5.395-2.594c2.973-6.187 7.528-10.855 13.664-14.008zM66.32 233.012c-.164.46-.312.925-.449 1.398-1.398 4.824-1.34 9.625.18 14.39l-5.703 1.821c-1.891-5.926-1.965-11.887-.227-17.879.168-.582.356-1.16.555-1.726zm.68 18.293c2.25 5.082 5.793 8.965 10.621 11.644l-2.902 5.235c-6.004-3.329-10.403-8.149-13.192-14.457zm13.012 12.804c.89.375 1.808.7 2.742.97 4.332 1.257 8.672 1.327 13.012.218l1.484 5.797c-5.395 1.383-10.785 1.297-16.164-.266a30.786 30.786 0 01-3.398-1.203zm18.3.387c5.204-1.953 9.286-5.258 12.243-9.922l5.058 3.207c-3.675 5.793-8.742 9.903-15.199 12.32zm13.551-12.258a24.8 24.8 0 001.563-4.043c1.113-3.84 1.293-7.71.531-11.605l5.879-1.145c.941 4.844.723 9.649-.66 14.418a31.04 31.04 0 01-1.938 5.016zm1.446-18.234c-1.645-5.309-4.711-9.574-9.196-12.805l3.496-4.86c5.575 4.013 9.38 9.31 11.418 15.891zm-11.45-14.246a24.99 24.99 0 00-5.316-2.235l1.668-5.75a30.733 30.733 0 016.594 2.774zm0 0"/></g></g></g></g><g clip-path="url(#prefix__S)"><g clip-path="url(#prefix__T)"><g clip-path="url(#prefix__U)"><path fill="#707070" d="M225.73 203.434l-3.578 13.492-13.492-3.578 3.578-13.493zm0 0"/></g></g></g><g clip-path="url(#prefix__V)"><g clip-path="url(#prefix__W)"><g clip-path="url(#prefix__X)"><path fill="#707070" d="M130.441 117.434l-13.476 3.64-3.645-13.472 13.477-3.645zm0 0"/></g></g></g><g clip-path="url(#prefix__Y)"><g clip-path="url(#prefix__Z)"><g clip-path="url(#prefix__aa)"><path fill="#707070" d="M98.977 237.133l-3.579 13.492-13.496-3.574 3.578-13.496zm0 0"/></g></g></g><g clip-path="url(#prefix__ab)"><g clip-path="url(#prefix__ac)"><g clip-path="url(#prefix__ad)"><g clip-path="url(#prefix__ae)"><path fill="#fff" d="M135.012 252.574c-.012.04 0 .074.027.106-.05.136-.285.132-.25.332-.187.41.04.675.328.914.813.668 1.715 1.187 2.649 1.652 3.343 1.664 6.87 2.55 10.586 2.813 6.484.46 12.355-1.305 17.789-4.7 2.52-1.57 4.718-3.558 6.824-5.652 1.234-1.23 2.394-2.531 3.586-3.805l.066-.195c.07-.031.14-.086.211-.078h.004c.05.004.047.082.004.129-.07.683-.281 1.332-.527 1.965-.168.437-.297.87-.297 1.343-.367.93-.114 1.692.687 2.141 1.488-1.32 2.04-3.11 2.446-4.973.152-.691.351-1.375.539-2.058.453-1.637.296-1.426-.657-2.43a2.696 2.696 0 00-.75-.539c-.101-.055-.199-.094-.312-.05-.258-.243-.535-.145-.8-.036-.79.324-1.571.656-2.356.988-.204-.03-.368.059-.528.16-.199-.038-.363.06-.531.145-.137-.05-.254.031-.383.059-1.707.367-3.43.53-5.183.402-.133-.008-.262-.008-.395-.012-.156-.007-.336-.015-.394.157-.047.125.042.296.144.351.45.242.684.727 1.098 1 .183.125.402.16.625.192 1.718.265 3.43.214 5.14-.012.153-.02.305-.067.457-.051.176.012.184.156.149.3-.172.04-.262.15-.285.321-.149.07-.29.145-.305.336-.047-.004-.066.016-.063.059-.144.062-.265.14-.292.316-.09.063-.188.113-.262.191-.836.836-1.66 1.692-2.508 2.52-.766.754-1.555 1.484-2.336 2.223-.23.168-.469.328-.687.507-2.168 1.715-4.508 3.141-7.06 4.208-.91.378-1.831.734-2.75 1.097-.21-.035-.374.07-.546.176-.2-.04-.36.059-.523.156-.188-.05-.336.055-.493.13-.125-.044-.226 0-.316.077-.047-.015-.082-.004-.113.035-.137-.047-.254.032-.38.055-.62.113-1.218.34-1.855.375-.035.066-.195.152.047.164.16.012.184.05.156.098-.019.043-.078.094-.12.137-1.973.292-3.962.347-5.954.269-.183-.023-.37-.05-.554-.074-1.102-.149-2.204-.293-3.305-.438a.156.156 0 00-.106-.054.204.204 0 00-.082.015.156.156 0 00-.183-.039c-.051-.058-.113-.066-.184-.039-.05-.058-.113-.07-.183-.039-.051-.059-.114-.074-.184-.043-.05-.059-.11-.074-.18-.043h-.004c-.046-.058-.109-.074-.18-.043h-.003a1.291 1.291 0 00-.176-.047h-.008c-.047-.062-.105-.078-.176-.047l-.003-.004c-.051-.058-.11-.074-.18-.042l-.004-.004h-.004.004c-.047-.063-.11-.078-.18-.047h-.004c-.047-.063-.105-.078-.175-.047l-.004-.004c-.047-.059-.11-.078-.18-.05-.547-.188-1.094-.376-1.64-.567-.313-.008-.587-.164-.868-.278-.004-.035.004-.066.012-.097a.23.23 0 01.086-.117c-.203-.11-.403-.23-.64-.239a.393.393 0 01-.212-.039c.07.012.14.028.211.04-.058-.051-.12-.087-.191-.048-.059-.101-.153-.14-.266-.144-.035-.066-.09-.094-.164-.07-.055-.059-.11-.094-.191-.075-.024-.03-.051-.05-.094-.05a1.405 1.405 0 00-.602-.286c-.132-.093-.261-.191-.43-.207-.062-.09-.163-.113-.257-.144-.524-.367-1.11-.633-1.582-1.121-.082.226-.332.285-.285.523zm39.41-8.61h-.004c0 .005.004 0 .004 0-.004.005-.004 0-.004 0s0-.003-.004-.003c.004 0 .008.004.008.004zm-31.992 11.993a.182.182 0 00.039.02h-.012l-.035-.012.008-.008zm2.066.117s-.004 0 0 .004c-.004.004-.004.008-.004.012l-.008.02.008-.036h.004zm-2.117-.07l.039-.035c.012.004.023.004.035.008-.027-.004-.05.003-.074.027zm.156 0a.641.641 0 01.043.012s.004 0 .004.004a.22.22 0 00-.047-.016zm-6.808-2.457c0 .004-.004 0-.004 0h-.004l-.004-.004c.004 0 .008.004.012.004zm.234.164c0 .004 0 .004.004.008 0-.004-.004-.008-.004-.008zm2.793.473c-.012.011-.02.02-.027.035-.004-.008-.012-.016-.016-.024l.043-.011zm-.43-.258a.164.164 0 01-.062-.043h.004c.015.02.035.035.058.043zm0 0"/></g></g></g></g><g clip-path="url(#prefix__af)"><g clip-path="url(#prefix__ag)"><g clip-path="url(#prefix__ah)"><g clip-path="url(#prefix__ai)"><path fill="#fff" d="M143.027 255.738l.18.047c-.05-.062-.11-.078-.18-.047zm0 0"/></g></g></g></g><g clip-path="url(#prefix__aj)"><g clip-path="url(#prefix__ak)"><g clip-path="url(#prefix__al)"><g clip-path="url(#prefix__am)"><path fill="#fff" d="M89.422 151.105a.114.114 0 00-.102-.039c-.082-.12.055-.308-.129-.394-.23-.39-.578-.36-.937-.258-1.012.277-1.957.715-2.875 1.211-3.285 1.777-6.04 4.152-8.395 7.04-4.109 5.038-6.043 10.855-6.398 17.253-.164 2.965.2 5.906.7 8.832.292 1.719.69 3.418 1.046 5.125l.121.164c-.016.074-.016.164-.058.219-.036.043-.094-.008-.11-.07-.52-.45-.926-.997-1.305-1.563-.261-.387-.539-.742-.925-1.012-.551-.84-1.32-1.066-2.149-.672.223 1.977 1.367 3.454 2.656 4.864.481.523.922 1.078 1.376 1.625 1.078 1.312.996 1.062 2.367.86.304-.044.597-.157.87-.302.102-.054.192-.11.223-.226.348-.07.426-.356.489-.633.191-.832.367-1.664.55-2.496.141-.149.16-.336.168-.524.149-.14.165-.332.188-.515.121-.086.125-.23.176-.348.68-1.61 1.539-3.113 2.652-4.473.082-.101.16-.21.238-.316.094-.125.204-.266.102-.41-.078-.113-.27-.137-.371-.086-.461.226-.988.14-1.453.32-.207.082-.364.239-.516.403-1.203 1.254-2.148 2.68-2.95 4.21-.07.137-.124.29-.218.407-.113.133-.238.054-.332-.055.063-.164.027-.3-.101-.418.03-.16.046-.32-.098-.441.031-.035.023-.063-.012-.086.031-.153.04-.301-.09-.422 0-.106.016-.219-.004-.324-.207-1.168-.43-2.332-.62-3.5-.176-1.063-.317-2.13-.47-3.192-.007-.285-.003-.57-.019-.855-.156-2.758.023-5.492.621-8.192.211-.964.453-1.918.684-2.879.152-.152.16-.351.172-.546.148-.145.16-.332.175-.52.149-.125.149-.309.176-.48.106-.075.13-.18.121-.301.035-.031.047-.067.031-.113.122-.086.126-.227.176-.344.266-.57.426-1.192.762-1.73-.035-.067-.016-.247-.16-.06-.102.126-.145.122-.172.075-.02-.043-.027-.117-.04-.176.892-1.785 1.993-3.441 3.204-5.023.129-.137.254-.278.379-.414.754-.817 1.512-1.633 2.262-2.45a.172.172 0 00.105-.054.26.26 0 00.035-.074c.075-.016.121-.059.137-.13.078-.011.121-.054.137-.128.078-.008.12-.051.14-.13.075-.007.125-.046.137-.124.082-.004.125-.047.14-.125h.005c.074-.004.12-.047.136-.121h.004c.047-.04.094-.078.137-.121l.008-.004c.074-.004.12-.043.136-.117l.008-.004c.075-.004.121-.043.137-.121l.008-.004c.078 0 .125-.043.14-.118v-.003c.079 0 .125-.04.145-.118.078-.004.129-.043.144-.117.47-.34.942-.676 1.41-1.015.188-.25.47-.383.723-.551.035.02.055.043.075.066.03.04.046.082.046.137.207-.102.422-.191.567-.383a.407.407 0 01.152-.152c-.05.05-.101.097-.152.152.074-.023.14-.05.148-.133.117.012.203-.043.27-.133.074.008.129-.015.152-.093.078-.012.14-.035.172-.114.04 0 .07-.011.094-.046.219-.067.414-.172.582-.329.152-.054.304-.105.414-.234.11 0 .187-.066.27-.129.597-.215 1.152-.539 1.824-.648-.137-.196-.043-.434-.262-.532zM73.777 188.29v-.004h-.004.008c0 .004-.004.004-.004.004zm8.606-33.066a.343.343 0 01-.04.023c.005-.004.009-.008.009-.012.011-.007.02-.015.03-.023v.012zm-1.281 1.625l-.004-.004c-.004-.004-.008-.008-.008-.012l-.012-.016.02.028h.004v.004zm1.273-1.696c.004.02.004.04.008.055a.196.196 0 00-.031.027.099.099 0 00.023-.082zm-.09.133c-.012.008-.023.02-.035.028h-.004c.016-.008.027-.02.04-.028zm5.926-4.156l.004-.004h.004l.004-.004c-.004.004-.008.004-.012.008zm-.266.098c-.004 0-.004-.004-.007 0h.007zm-1.996 2.011a.089.089 0 00-.011-.043h.027a.19.19 0 01-.016.043zm.461-.203a.11.11 0 01.07-.023.187.187 0 00-.07.023zm0 0"/></g></g></g></g><g clip-path="url(#prefix__an)"><g clip-path="url(#prefix__ao)"><g clip-path="url(#prefix__ap)"><g clip-path="url(#prefix__aq)"><path fill="#fff" d="M82.219 155.84l-.14.117c.077-.004.124-.043.14-.117zm0 0"/></g></g></g></g><g clip-path="url(#prefix__ar)"><g clip-path="url(#prefix__as)"><g clip-path="url(#prefix__at)"><g clip-path="url(#prefix__au)"><path fill="#fff" d="M198.426 160.766a.108.108 0 00.094-.063c.144 0 .218.223.394.117.453.035.621-.265.746-.62.348-.993.528-2.016.645-3.052.41-3.714.027-7.332-1.004-10.91-1.797-6.25-5.473-11.152-10.528-15.09-2.343-1.828-4.964-3.207-7.652-4.46-1.582-.739-3.203-1.383-4.809-2.063-.07 0-.136.004-.203.004-.054-.055-.129-.102-.148-.168v-.004c-.016-.05.062-.074.117-.047.668-.172 1.348-.195 2.031-.183.465.007.918-.02 1.36-.184 1.004.027 1.629-.477 1.777-1.379-1.754-.95-3.621-.848-5.512-.59-.703.094-1.41.14-2.117.2-1.695.14-1.441.214-2.058 1.456a2.774 2.774 0 00-.246.887c-.016.117-.02.223.058.313-.14.324.047.55.242.765.575.625 1.157 1.246 1.739 1.871.039.2.18.32.332.438.03.203.18.324.316.45 0 .148.117.23.188.339.93 1.477 1.68 3.039 2.16 4.73.035.125.082.25.125.375.047.149.101.32.28.317.138 0 .267-.14.282-.254.074-.512.45-.895.563-1.379.05-.215.011-.434-.036-.652-.343-1.703-.976-3.293-1.777-4.825-.074-.136-.168-.261-.207-.41-.05-.172.086-.226.23-.242.098.145.231.195.403.156.113.118.234.22.418.172.012.043.039.055.078.04.106.113.223.199.395.163.09.063.171.137.27.184 1.077.496 2.16.977 3.23 1.484.972.461 1.93.953 2.89 1.434.238.156.469.324.711.469 2.36 1.445 4.5 3.156 6.379 5.18.672.726 1.316 1.468 1.977 2.206.039.211.195.329.351.454.031.203.18.32.328.437.016.195.164.297.293.418 0 .133.074.21.18.273 0 .047.023.079.07.09.004.145.117.23.184.34.32.543.738 1.027.988 1.613.074.008.211.13.14-.101-.046-.153-.019-.188.036-.18.047.004.113.043.168.067.957 1.75 1.691 3.597 2.3 5.496.044.183.083.363.126.547.238 1.085.48 2.171.722 3.253a.158.158 0 00-.011.118c.007.027.02.05.039.074a.154.154 0 00.027.183.153.153 0 00.027.188c-.039.066-.027.129.028.184-.04.07-.032.132.023.187-.039.07-.031.129.02.188-.04.066-.032.128.023.183v.004c0 .059.008.121.016.18v.008c-.04.066-.032.125.02.183v.004c-.04.066-.036.129.019.184v.007c-.043.063-.035.125.015.184-.039.066-.035.129.02.184l-.004.004c-.039.066-.035.128.016.187l.03 1.734c.102.297.048.606.04.91-.031.016-.066.02-.098.024a.274.274 0 01-.14-.04c-.032.227-.078.454-.004.685a.386.386 0 01.039.21 3.995 3.995 0 00-.04-.21c-.023.07-.038.14.024.195-.074.09-.082.187-.043.297-.05.058-.062.117-.011.18-.036.07-.051.136-.004.203-.02.03-.032.066-.016.105-.07.219-.094.438-.063.664-.039.156-.085.313-.042.477-.063.09-.051.191-.047.293-.164.613-.215 1.254-.508 1.87.238-.003.379.212.586.087zm-21.633-34.051v.004c.004 0 0-.004 0-.004l.004.004h-.004v.004c-.004-.004 0-.004 0-.008zm22.262 25.922c0-.016.004-.032.004-.047 0 .004.004.008.004.012l.003.039c-.004 0-.007-.004-.011-.004zm-.602-1.98h.004c.004 0 .008-.005.016-.005l.015.004h-.035v0zm.664 2.011a.636.636 0 01-.05-.023c0-.016 0-.028-.005-.04a.095.095 0 00.055.063zm-.058-.148c0-.016-.004-.032-.004-.043.004 0 .004-.004.004-.004v.047zm.039 7.238v.008s0 .004-.004.004c0-.004.004-.008.004-.012zm.07-.274c.004-.004.004-.004.004-.007-.004 0-.004.007-.004.007zm-.516-2.785c.012.004.028.012.043.012a.082.082 0 00-.015.023c-.008-.011-.02-.023-.028-.035zm-.093.492a.16.16 0 01-.02.07h-.004c.012-.023.024-.046.024-.07zm0 0"/></g></g></g></g><g clip-path="url(#prefix__av)"><g clip-path="url(#prefix__aw)"><g clip-path="url(#prefix__ax)"><g clip-path="url(#prefix__ay)"><path fill="#fff" d="M198.64 152.148c-.003-.062-.011-.12-.015-.183-.043.07-.035.129.016.183zm0 0"/></g></g></g></g><path transform="matrix(.74987 .00605 -.00605 .74998 136.49 77.868)" fill="none" d="M-.002 1.999L223.036 2" stroke="#000" stroke-width="4"/><path transform="matrix(.75062 -.00364 .00364 .75 135.126 291.168)" fill="none" d="M0 2l224.814.002" stroke="#000" stroke-width="4"/><g clip-path="url(#prefix__az)"><path fill="#5ce1e6" d="M294.695 306.992l-8.492-9.492a.946.946 0 00-.703-.316h-5.664a.95.95 0 00-.863.562.956.956 0 00.164 1.02l7.922 8.863-7.922 8.855a.95.95 0 00.7 1.586h5.663c.266 0 .52-.117.703-.312l8.492-9.496c.32-.36.32-.91 0-1.27zm0 0"/></g><g clip-path="url(#prefix__aA)"><path fill="#5ce1e6" d="M282.426 306.992l-8.492-9.492a.94.94 0 00-.704-.316h-5.66a.947.947 0 00-.703 1.582l7.926 8.863-7.926 8.855a.955.955 0 00-.16 1.024.94.94 0 00.863.562h5.66c.27 0 .52-.117.704-.312l8.492-9.496a.95.95 0 000-1.27zm0 0"/></g><g clip-path="url(#prefix__aB)"><path fill="#38b6ff" d="M257.57 306.992l-8.492-9.492a.946.946 0 00-.703-.316h-5.664a.95.95 0 00-.863.562.962.962 0 00.16 1.02l7.926 8.863-7.926 8.855a.95.95 0 00.703 1.586h5.664c.266 0 .52-.117.703-.312l8.492-9.496c.32-.36.32-.91 0-1.27zm0 0"/></g><g clip-path="url(#prefix__aC)"><path fill="#38b6ff" d="M245.3 306.992l-8.491-9.492a.94.94 0 00-.704-.316h-5.66a.947.947 0 00-.703 1.582l7.926 8.863-7.926 8.855a.955.955 0 00-.16 1.024.94.94 0 00.863.562h5.66c.27 0 .52-.117.704-.312l8.492-9.496a.95.95 0 000-1.27zm0 0"/></g><g clip-path="url(#prefix__aD)"><path fill="#38b6ff" d="M220.445 306.992l-8.492-9.492a.946.946 0 00-.703-.316h-5.664a.95.95 0 00-.863.562.956.956 0 00.164 1.02l7.922 8.863-7.922 8.855a.95.95 0 00.7 1.586h5.663c.266 0 .52-.117.703-.312l8.492-9.496c.32-.36.32-.91 0-1.27zm0 0"/></g><g clip-path="url(#prefix__aE)"><path fill="#38b6ff" d="M208.176 306.992l-8.492-9.492a.94.94 0 00-.704-.316h-5.66a.947.947 0 00-.703 1.582l7.926 8.863-7.926 8.855a.955.955 0 00-.16 1.024.94.94 0 00.863.562h5.66c.27 0 .52-.117.704-.312l8.492-9.496a.95.95 0 000-1.27zm0 0"/></g><g clip-path="url(#prefix__aF)"><path fill="#38b6ff" d="M183.32 306.992l-8.492-9.492a.946.946 0 00-.703-.316h-5.664a.95.95 0 00-.863.562.956.956 0 00.164 1.02l7.922 8.863-7.922 8.855a.95.95 0 00.7 1.586h5.663c.266 0 .52-.117.703-.312l8.492-9.496c.32-.36.32-.91 0-1.27zm0 0"/></g><g clip-path="url(#prefix__aG)"><path fill="#38b6ff" d="M171.05 306.992l-8.491-9.492a.94.94 0 00-.704-.316h-5.66a.947.947 0 00-.703 1.582l7.926 8.863-7.926 8.855a.955.955 0 00-.16 1.024.94.94 0 00.863.562h5.66c.27 0 .52-.117.704-.312l8.492-9.496a.95.95 0 000-1.27zm0 0"/></g><g clip-path="url(#prefix__aH)"><g clip-path="url(#prefix__aI)"><g clip-path="url(#prefix__aJ)"><path fill="#5ce1e6" d="M146.184 306.746l-8.66-9.344a.948.948 0 00-.708-.3l-5.66.097a.947.947 0 00-.851.578.956.956 0 00.175 1.02l8.083 8.719-7.77 8.996a.952.952 0 00.73 1.574l5.665-.102a.96.96 0 00.695-.324l8.324-9.644a.954.954 0 00-.023-1.27zm0 0"/></g></g></g><g clip-path="url(#prefix__aK)"><g clip-path="url(#prefix__aL)"><g clip-path="url(#prefix__aM)"><path fill="#5ce1e6" d="M133.918 306.96l-8.66-9.339a.937.937 0 00-.707-.305l-5.66.102a.95.95 0 00-.856.578.95.95 0 00.18 1.016l8.082 8.718-7.77 8.997a.959.959 0 00-.14 1.027c.16.34.5.555.87.547l5.665-.102a.96.96 0 00.695-.324l8.324-9.64a.96.96 0 00-.023-1.274zm0 0"/></g></g></g><g clip-path="url(#prefix__aN)"><g clip-path="url(#prefix__aO)"><g clip-path="url(#prefix__aP)"><path fill="#38b6ff" d="M99.406 301.191l-2.023-12.574a.945.945 0 00-.422-.644l-4.766-3.059a.949.949 0 00-1.445.953l1.887 11.738-11.453 3.176a.951.951 0 00-.266 1.715l4.766 3.059c.226.144.5.183.761.113l12.274-3.406a.954.954 0 00.687-1.07zm0 0"/></g></g></g><g clip-path="url(#prefix__aQ)"><g clip-path="url(#prefix__aR)"><g clip-path="url(#prefix__aS)"><path fill="#38b6ff" d="M89.078 294.57l-2.023-12.578a.94.94 0 00-.422-.644l-4.766-3.055a.942.942 0 00-1.027.004.966.966 0 00-.418.95l1.887 11.733-11.454 3.18a.954.954 0 00-.687.774.945.945 0 00.422.937l4.77 3.059a.94.94 0 00.757.113l12.278-3.406a.95.95 0 00.683-1.067zm0 0"/></g></g></g><g clip-path="url(#prefix__aT)"><g clip-path="url(#prefix__aU)"><g clip-path="url(#prefix__aV)"><path fill="#38b6ff" d="M61.434 282.32l.468-12.73a.94.94 0 00-.289-.715l-4.078-3.93a.945.945 0 00-1.012-.191.955.955 0 00-.593.848l-.438 11.878-11.851.883a.942.942 0 00-.825.625.94.94 0 00.23 1.004l4.079 3.926a.951.951 0 00.723.262l12.703-.946a.957.957 0 00.883-.914zm0 0"/></g></g></g><g clip-path="url(#prefix__aW)"><g clip-path="url(#prefix__aX)"><g clip-path="url(#prefix__aY)"><path fill="#38b6ff" d="M52.598 273.809l.468-12.73a.96.96 0 00-.289-.716l-4.078-3.925a.948.948 0 00-1.605.652l-.438 11.879-11.851.883a.948.948 0 00-.825.625.94.94 0 00.23 1.003l4.08 3.93a.96.96 0 00.722.262l12.703-.95a.957.957 0 00.883-.913zm0 0"/></g></g></g><g clip-path="url(#prefix__aZ)"><g clip-path="url(#prefix__ba)"><g clip-path="url(#prefix__bb)"><path fill="#38b6ff" d="M36.793 250.25l3.941-12.113a.938.938 0 00-.082-.766l-2.843-4.894a.943.943 0 00-.918-.465.954.954 0 00-.805.652L32.41 243.97l-11.64-2.399a.947.947 0 00-.965.375.944.944 0 00-.055 1.028l2.848 4.894a.94.94 0 00.62.45l12.477 2.574a.95.95 0 001.098-.641zm0 0"/></g></g></g><g clip-path="url(#prefix__bc)"><g clip-path="url(#prefix__bd)"><g clip-path="url(#prefix__be)"><path fill="#38b6ff" d="M30.629 239.645l3.941-12.114a.938.938 0 00-.082-.765l-2.843-4.895a.946.946 0 00-.922-.465.954.954 0 00-.801.653l-3.676 11.304-11.644-2.402a.95.95 0 00-.961.375.943.943 0 00-.055 1.031l2.844 4.895c.136.23.363.39.625.449l12.476 2.57a.952.952 0 001.098-.636zm0 0"/></g></g></g><g clip-path="url(#prefix__bf)"><path fill="#5ce1e6" d="M20.016 200.004l9.492-8.492a.934.934 0 00.316-.703v-5.66a.945.945 0 00-.562-.864.946.946 0 00-1.02.16l-8.863 7.926-8.856-7.926a.955.955 0 00-1.023-.16.945.945 0 00-.563.863v5.66c0 .27.114.524.313.704l9.496 8.492a.95.95 0 001.27 0zm0 0"/></g><g clip-path="url(#prefix__bg)"><path fill="#5ce1e6" d="M20.016 187.738l9.492-8.496a.932.932 0 00.316-.699v-5.664a.95.95 0 00-.562-.863.961.961 0 00-1.02.16l-8.863 7.926-8.856-7.926a.95.95 0 00-1.586.703v5.664c0 .266.114.52.313.7l9.496 8.495c.36.32.91.32 1.27 0zm0 0"/></g><g clip-path="url(#prefix__bh)"><g clip-path="url(#prefix__bi)"><g clip-path="url(#prefix__bj)"><path fill="#38b6ff" d="M22.281 145.098l12.64-1.57a.951.951 0 00.661-.4l3.227-4.651a.95.95 0 00-.903-1.48L26.11 138.46l-2.765-11.559a.952.952 0 00-1.703-.324l-3.227 4.652a.948.948 0 00-.14.758l2.964 12.387a.949.949 0 001.043.723zm0 0"/></g></g></g><g clip-path="url(#prefix__bk)"><g clip-path="url(#prefix__bl)"><g clip-path="url(#prefix__bm)"><path fill="#38b6ff" d="M29.27 135.016l12.64-1.575a.933.933 0 00.66-.394l3.223-4.656a.935.935 0 00.031-1.028.953.953 0 00-.93-.449l-11.796 1.465-2.766-11.559a.963.963 0 00-.75-.715.941.941 0 00-.953.387l-3.227 4.656a.936.936 0 00-.14.754l2.965 12.391a.95.95 0 001.043.723zm0 0"/></g></g></g><g clip-path="url(#prefix__bn)"><g clip-path="url(#prefix__bo)"><g clip-path="url(#prefix__bp)"><path fill="#38b6ff" d="M45.11 108.906l12.671 1.317a.941.941 0 00.73-.239l4.192-3.808a.948.948 0 00.258-.996.954.954 0 00-.805-.649l-11.824-1.226-.09-11.887a.948.948 0 00-1.586-.7l-4.191 3.805a.963.963 0 00-.309.707l.098 12.739c.004.48.375.89.855.937zm0 0"/></g></g></g><g clip-path="url(#prefix__bq)"><g clip-path="url(#prefix__br)"><g clip-path="url(#prefix__bs)"><path fill="#38b6ff" d="M54.188 100.656l12.671 1.317a.936.936 0 00.73-.239l4.192-3.808a.942.942 0 00.262-.996.958.958 0 00-.805-.649l-11.824-1.226-.09-11.887a.95.95 0 00-1.586-.7l-4.191 3.805a.955.955 0 00-.309.707l.098 12.739c.004.484.375.89.852.937zm0 0"/></g></g></g><g clip-path="url(#prefix__bt)"><g clip-path="url(#prefix__bu)"><g clip-path="url(#prefix__bv)"><path fill="#38b6ff" d="M75.379 84.59l11.808 4.773c.254.098.532.09.77-.027l5.082-2.5a.95.95 0 00.527-.883.958.958 0 00-.597-.848l-11.02-4.453 3.203-11.445a.946.946 0 00-.304-.988.943.943 0 00-1.024-.125l-5.082 2.496a.974.974 0 00-.492.59l-3.434 12.27a.957.957 0 00.563 1.14zm0 0"/></g></g></g><g clip-path="url(#prefix__bw)"><g clip-path="url(#prefix__bx)"><g clip-path="url(#prefix__by)"><path fill="#38b6ff" d="M86.387 79.176l11.812 4.773c.25.102.528.094.77-.027l5.082-2.496a.945.945 0 00.523-.887.945.945 0 00-.594-.844l-11.02-4.457 3.204-11.445a.958.958 0 00-.305-.988.952.952 0 00-1.023-.125l-5.082 2.5a.94.94 0 00-.492.59l-3.434 12.265a.953.953 0 00.559 1.14zm0 0"/></g></g></g><g clip-path="url(#prefix__bz)"><path fill="#5ce1e6" d="M118.215 68.148l8.492 9.493a.946.946 0 00.703.316h5.664a.95.95 0 00.863-.562.956.956 0 00-.164-1.02l-7.921-8.863 7.921-8.856a.95.95 0 00-.7-1.586h-5.663a.971.971 0 00-.703.313l-8.492 9.496c-.32.36-.32.91 0 1.27zm0 0"/></g><g clip-path="url(#prefix__bA)"><path fill="#5ce1e6" d="M130.484 68.148l8.493 9.493a.94.94 0 00.703.316h5.66a.947.947 0 00.703-1.582l-7.926-8.863 7.926-8.856a.955.955 0 00.16-1.023.94.94 0 00-.863-.563h-5.66c-.27 0-.52.117-.703.313l-8.493 9.496a.95.95 0 000 1.27zm0 0"/></g><g clip-path="url(#prefix__bB)"><g clip-path="url(#prefix__bC)"><g clip-path="url(#prefix__bD)"><path fill="#38b6ff" d="M154.75 67.309l8.207 9.742a.947.947 0 00.691.34l5.66.168a.948.948 0 00.75-1.563l-7.656-9.094 8.188-8.613a.953.953 0 00.191-1.02.934.934 0 00-.844-.585l-5.66-.172a.955.955 0 00-.71.293l-8.778 9.234a.96.96 0 00-.039 1.27zm0 0"/></g></g></g><g clip-path="url(#prefix__bE)"><g clip-path="url(#prefix__bF)"><g clip-path="url(#prefix__bG)"><path fill="#38b6ff" d="M167.016 67.676l8.203 9.746a.936.936 0 00.691.336l5.66.172a.948.948 0 00.75-1.563l-7.656-9.094 8.188-8.617a.946.946 0 00.191-1.015.944.944 0 00-.844-.59l-5.66-.172a.955.955 0 00-.71.293l-8.778 9.234a.955.955 0 00-.035 1.27zm0 0"/></g></g></g><g clip-path="url(#prefix__bH)"><g clip-path="url(#prefix__bI)"><g clip-path="url(#prefix__bJ)"><path fill="#5ce1e6" d="M266.402 67.309l8.207 9.742a.947.947 0 00.692.34l5.66.168a.948.948 0 00.75-1.563l-7.656-9.094 8.187-8.613a.953.953 0 00.192-1.02.934.934 0 00-.844-.585l-5.66-.172a.955.955 0 00-.711.293l-8.778 9.234a.96.96 0 00-.039 1.27zm0 0"/></g></g></g><g clip-path="url(#prefix__bK)"><g clip-path="url(#prefix__bL)"><g clip-path="url(#prefix__bM)"><path fill="#5ce1e6" d="M278.668 67.676l8.203 9.746a.936.936 0 00.692.336l5.66.172a.948.948 0 00.75-1.563l-7.657-9.094 8.188-8.617a.946.946 0 00.191-1.015.944.944 0 00-.843-.59l-5.66-.172a.955.955 0 00-.712.293l-8.777 9.234a.955.955 0 00-.035 1.27zm0 0"/></g></g></g><g clip-path="url(#prefix__bN)"><g clip-path="url(#prefix__bO)"><g clip-path="url(#prefix__bP)"><path fill="#38b6ff" d="M229.277 67.309l8.207 9.742a.947.947 0 00.692.34l5.66.168a.948.948 0 00.75-1.563l-7.656-9.094 8.187-8.613a.953.953 0 00.192-1.02.934.934 0 00-.844-.585l-5.66-.172a.955.955 0 00-.711.293l-8.778 9.234a.96.96 0 00-.039 1.27zm0 0"/></g></g></g><g clip-path="url(#prefix__bQ)"><g clip-path="url(#prefix__bR)"><g clip-path="url(#prefix__bS)"><path fill="#38b6ff" d="M241.543 67.676l8.203 9.746a.936.936 0 00.691.336l5.66.172a.948.948 0 00.75-1.563l-7.656-9.094 8.188-8.617a.946.946 0 00.191-1.015.944.944 0 00-.843-.59l-5.66-.172a.955.955 0 00-.712.293l-8.777 9.234a.955.955 0 00-.035 1.27zm0 0"/></g></g></g><g clip-path="url(#prefix__bT)"><g clip-path="url(#prefix__bU)"><g clip-path="url(#prefix__bV)"><path fill="#38b6ff" d="M192.762 67.309l8.203 9.742a.962.962 0 00.695.34l5.656.168a.95.95 0 00.883-.536.957.957 0 00-.133-1.027l-7.652-9.094 8.188-8.613a.961.961 0 00.191-1.02.939.939 0 00-.848-.585l-5.656-.172a.964.964 0 00-.715.293l-8.773 9.234a.955.955 0 00-.04 1.27zm0 0"/></g></g></g><g clip-path="url(#prefix__bW)"><g clip-path="url(#prefix__bX)"><g clip-path="url(#prefix__bY)"><path fill="#38b6ff" d="M205.023 67.676l8.207 9.746a.93.93 0 00.692.336l5.66.172a.948.948 0 00.75-1.563l-7.656-9.094 8.187-8.617a.946.946 0 00.192-1.015.944.944 0 00-.844-.59l-5.66-.172a.955.955 0 00-.711.293l-8.778 9.234a.96.96 0 00-.039 1.27zm0 0"/></g></g></g></svg>