<svg xmlns="http://www.w3.org/2000/svg" xmlns:xlink="http://www.w3.org/1999/xlink" width="450" zoomAndPan="magnify" viewBox="0 0 337.5 374.999991" height="500" preserveAspectRatio="xMidYMid meet" version="1.0"><defs><clipPath id="9e54ed99f3"><path d="M 0 52.777344 L 303.75 52.777344 L 303.75 323 L 0 323 Z M 0 52.777344 " clip-rule="nonzero"/></clipPath><clipPath id="d90d1d8f81"><path d="M 7.917969 142.824219 C 3.136719 156.667969 0 172.40625 0 187.851562 C 0 203.296875 2.6875 218.15625 7.46875 231.855469 C 7.621094 232.144531 7.621094 232.4375 7.769531 232.730469 C 26.890625 284.164062 77.390625 322.046875 135.65625 322.777344 L 303.75 322.777344 L 303.75 52.777344 L 135.78125 52.777344 C 77.09375 53.503906 26.59375 90.808594 7.917969 142.824219 " clip-rule="nonzero"/></clipPath><clipPath id="aaf81b8aa8"><path d="M 0 52.777344 L 303.75 52.777344 L 303.75 322.777344 L 0 322.777344 Z M 0 52.777344 " clip-rule="nonzero"/></clipPath><clipPath id="20bdc98b60"><path d="M 7.917969 142.824219 C 3.136719 156.667969 0 172.40625 0 187.851562 C 0 203.296875 2.6875 218.15625 7.46875 231.855469 C 7.621094 232.144531 7.621094 232.4375 7.769531 232.730469 C 26.890625 284.164062 77.390625 322.046875 135.65625 322.777344 L 303.75 322.777344 L 303.75 52.777344 L 135.78125 52.777344 C 77.09375 53.503906 26.59375 90.808594 7.917969 142.824219 " clip-rule="nonzero"/></clipPath><clipPath id="2e079c3d48"><path d="M 34 77 L 251 77 L 251 294 L 34 294 Z M 34 77 " clip-rule="nonzero"/></clipPath><clipPath id="4a87d6576d"><path d="M 140.117188 338.429688 L -10.054688 182.769531 L 145.601562 32.597656 L 295.773438 188.257812 Z M 140.117188 338.429688 " clip-rule="nonzero"/></clipPath><clipPath id="e2fa3fc5e3"><path d="M 65.128906 260.703125 C 106.542969 303.628906 174.914062 304.855469 217.839844 263.441406 C 260.765625 222.027344 261.992188 153.65625 220.578125 110.730469 C 179.167969 67.804688 110.796875 66.578125 67.871094 107.992188 C 24.941406 149.40625 23.71875 217.777344 65.128906 260.703125 " clip-rule="nonzero"/></clipPath><clipPath id="72fbd1b57f"><path d="M 34 77 L 251 77 L 251 294 L 34 294 Z M 34 77 " clip-rule="nonzero"/></clipPath><clipPath id="c55aae118c"><path d="M 140.117188 338.429688 L -9.855469 182.980469 L 145.59375 33.007812 L 295.566406 188.457031 Z M 140.117188 338.429688 " clip-rule="nonzero"/></clipPath><clipPath id="7707d35ba4"><path d="M 140.117188 338.429688 L -11.976562 180.78125 L 145.671875 28.6875 L 297.765625 186.335938 Z M 140.117188 338.429688 " clip-rule="nonzero"/></clipPath><clipPath id="08787402ce"><path d="M 65.128906 260.703125 C 106.542969 303.628906 174.914062 304.855469 217.839844 263.441406 C 260.765625 222.027344 261.992188 153.65625 220.578125 110.730469 C 179.167969 67.804688 110.796875 66.578125 67.871094 107.992188 C 24.941406 149.40625 23.71875 217.777344 65.128906 260.703125 " clip-rule="nonzero"/></clipPath><clipPath id="c5dc5aa8da"><path d="M 90 205 L 126 205 L 126 241 L 90 241 Z M 90 205 " clip-rule="nonzero"/></clipPath><clipPath id="100a7f4f14"><path d="M 103.21875 240.707031 L 90.28125 227.953125 L 112.691406 205.21875 L 125.628906 217.96875 Z M 103.21875 240.707031 " clip-rule="nonzero"/></clipPath><clipPath id="8632efb529"><path d="M 103.21875 240.707031 L 90.566406 228.234375 L 112.835938 205.636719 L 125.492188 218.109375 Z M 103.21875 240.707031 " clip-rule="nonzero"/></clipPath><clipPath id="2565f45769"><path d="M 117 123 L 143 123 L 143 160 L 117 160 Z M 117 123 " clip-rule="nonzero"/></clipPath><clipPath id="9ba0467391"><path d="M 142.34375 154.53125 L 124.78125 159.167969 L 116.632812 128.300781 L 134.195312 123.664062 Z M 142.34375 154.53125 " clip-rule="nonzero"/></clipPath><clipPath id="df9bad1f84"><path d="M 142.34375 154.53125 L 125.164062 159.066406 L 117.070312 128.386719 L 134.246094 123.855469 Z M 142.34375 154.53125 " clip-rule="nonzero"/></clipPath><clipPath id="5ccfe65ffa"><path d="M 108 141 L 190 141 L 190 224 L 108 224 Z M 108 141 " clip-rule="nonzero"/></clipPath><clipPath id="2339fd0704"><path d="M 200.527344 160.246094 L 178.695312 242.597656 L 107.179688 223.636719 L 129.011719 141.285156 Z M 200.527344 160.246094 " clip-rule="nonzero"/></clipPath><clipPath id="dea24dc4c7"><path d="M 189.695312 201.105469 L 108.035156 223.1875 L 129.703125 141.46875 L 189.695312 201.105469 " clip-rule="nonzero"/></clipPath><clipPath id="7927191704"><path d="M 164 186 L 200 186 L 200 212 L 164 212 Z M 164 186 " clip-rule="nonzero"/></clipPath><clipPath id="f1d466219e"><path d="M 199.605469 194.539062 L 194.949219 212.09375 L 164.09375 203.914062 L 168.746094 186.355469 Z M 199.605469 194.539062 " clip-rule="nonzero"/></clipPath><clipPath id="66b66f6a33"><path d="M 199.605469 194.539062 L 195.050781 211.710938 L 164.382812 203.578125 L 168.9375 186.40625 Z M 199.605469 194.539062 " clip-rule="nonzero"/></clipPath><clipPath id="300515f191"><path d="M 189 180 L 246 180 L 246 237 L 189 237 Z M 189 180 " clip-rule="nonzero"/></clipPath><clipPath id="f04468cb19"><path d="M 198.230469 173.941406 L 251.652344 189.429688 L 236.164062 242.851562 L 182.742188 227.363281 Z M 198.230469 173.941406 " clip-rule="nonzero"/></clipPath><clipPath id="ff434b052c"><path d="M 224.941406 181.683594 C 210.1875 177.40625 194.761719 185.898438 190.484375 200.652344 C 186.207031 215.402344 194.699219 230.828125 209.453125 235.105469 C 224.203125 239.382812 239.628906 230.890625 243.90625 216.140625 C 248.183594 201.386719 239.691406 185.960938 224.941406 181.683594 " clip-rule="nonzero"/></clipPath><clipPath id="5ffc5f3ac2"><path d="M 189 180 L 245 180 L 245 237 L 189 237 Z M 189 180 " clip-rule="nonzero"/></clipPath><clipPath id="06fd4a42e2"><path d="M 198.230469 173.941406 L 251.535156 189.394531 L 236.078125 242.699219 L 182.773438 227.246094 Z M 198.230469 173.941406 " clip-rule="nonzero"/></clipPath><clipPath id="07d5c6fe3d"><path d="M 198.230469 173.941406 L 251.535156 189.394531 L 236.078125 242.699219 L 182.773438 227.246094 Z M 198.230469 173.941406 " clip-rule="nonzero"/></clipPath><clipPath id="fc465965fb"><path d="M 224.882812 181.667969 C 210.164062 177.398438 194.769531 185.871094 190.503906 200.59375 C 186.234375 215.3125 194.707031 230.703125 209.425781 234.972656 C 224.148438 239.238281 239.539062 230.765625 243.808594 216.046875 C 248.074219 201.328125 239.601562 185.933594 224.882812 181.667969 " clip-rule="nonzero"/></clipPath><clipPath id="a2e2f07696"><path d="M 94 84 L 150 84 L 150 141 L 94 141 Z M 94 84 " clip-rule="nonzero"/></clipPath><clipPath id="5a70e1b6c7"><path d="M 141.46875 78.414062 L 155.984375 132.109375 L 102.292969 146.628906 L 87.773438 92.933594 Z M 141.46875 78.414062 " clip-rule="nonzero"/></clipPath><clipPath id="0109bf4fc7"><path d="M 148.726562 105.261719 C 144.71875 90.433594 129.449219 81.664062 114.621094 85.675781 C 99.792969 89.683594 91.023438 104.953125 95.03125 119.78125 C 99.042969 134.605469 114.3125 143.378906 129.140625 139.367188 C 143.964844 135.359375 152.734375 120.089844 148.726562 105.261719 " clip-rule="nonzero"/></clipPath><clipPath id="925e00fa02"><path d="M 94 84 L 150 84 L 150 141 L 94 141 Z M 94 84 " clip-rule="nonzero"/></clipPath><clipPath id="d568d2cb6f"><path d="M 141.46875 78.414062 L 155.953125 131.992188 L 102.378906 146.476562 L 87.890625 92.902344 Z M 141.46875 78.414062 " clip-rule="nonzero"/></clipPath><clipPath id="f5c224633c"><path d="M 141.46875 78.414062 L 155.953125 131.992188 L 102.378906 146.476562 L 87.890625 92.902344 Z M 141.46875 78.414062 " clip-rule="nonzero"/></clipPath><clipPath id="865caeb0d2"><path d="M 148.710938 105.203125 C 144.710938 90.410156 129.476562 81.65625 114.679688 85.65625 C 99.886719 89.65625 91.136719 104.894531 95.136719 119.6875 C 99.136719 134.484375 114.371094 143.234375 129.164062 139.234375 C 143.960938 135.234375 152.710938 120 148.710938 105.203125 " clip-rule="nonzero"/></clipPath><clipPath id="0d492dffc7"><path d="M 61 213 L 118 213 L 118 270 L 61 270 Z M 61 213 " clip-rule="nonzero"/></clipPath><clipPath id="84594787cd"><path d="M 70.722656 206.921875 L 124.144531 222.410156 L 108.65625 275.832031 L 55.234375 260.34375 Z M 70.722656 206.921875 " clip-rule="nonzero"/></clipPath><clipPath id="6b4c8cef9c"><path d="M 97.433594 214.667969 C 82.683594 210.390625 67.257812 218.882812 62.980469 233.632812 C 58.703125 248.386719 67.195312 263.8125 81.945312 268.089844 C 96.699219 272.367188 112.125 263.875 116.402344 249.121094 C 120.679688 234.371094 112.1875 218.945312 97.433594 214.667969 " clip-rule="nonzero"/></clipPath><clipPath id="96e2e7d8e4"><path d="M 61 213 L 118 213 L 118 270 L 61 270 Z M 61 213 " clip-rule="nonzero"/></clipPath><clipPath id="03bfb00492"><path d="M 70.722656 206.921875 L 124.027344 222.375 L 108.574219 275.683594 L 55.269531 260.226562 Z M 70.722656 206.921875 " clip-rule="nonzero"/></clipPath><clipPath id="866d1a2ba6"><path d="M 70.722656 206.921875 L 124.027344 222.375 L 108.574219 275.683594 L 55.269531 260.226562 Z M 70.722656 206.921875 " clip-rule="nonzero"/></clipPath><clipPath id="17fe5239a8"><path d="M 97.375 214.648438 C 82.65625 210.382812 67.265625 218.855469 62.996094 233.574219 C 58.730469 248.292969 67.203125 263.6875 81.921875 267.953125 C 96.640625 272.222656 112.035156 263.75 116.300781 249.027344 C 120.570312 234.308594 112.097656 218.917969 97.375 214.648438 " clip-rule="nonzero"/></clipPath><clipPath id="35a7c253bc"><path d="M 210 201 L 225 201 L 225 216 L 210 216 Z M 210 201 " clip-rule="nonzero"/></clipPath><clipPath id="24c3099aad"><path d="M 225.730469 203.433594 L 222.152344 216.925781 L 208.660156 213.347656 L 212.238281 199.855469 Z M 225.730469 203.433594 " clip-rule="nonzero"/></clipPath><clipPath id="b2b834fdf7"><path d="M 223.941406 210.179688 C 224.929688 206.453125 222.710938 202.632812 218.984375 201.644531 C 215.257812 200.65625 211.4375 202.875 210.449219 206.601562 C 209.460938 210.328125 211.679688 214.148438 215.40625 215.136719 C 219.132812 216.125 222.953125 213.90625 223.941406 210.179688 " clip-rule="nonzero"/></clipPath><clipPath id="df18a7342d"><path d="M 114 105 L 129 105 L 129 120 L 114 120 Z M 114 105 " clip-rule="nonzero"/></clipPath><clipPath id="daa575ab1f"><path d="M 130.441406 117.433594 L 116.964844 121.074219 L 113.320312 107.601562 L 126.796875 103.957031 Z M 130.441406 117.433594 " clip-rule="nonzero"/></clipPath><clipPath id="bba4499905"><path d="M 123.703125 119.253906 C 127.425781 118.246094 129.625 114.414062 128.621094 110.695312 C 127.613281 106.972656 123.78125 104.773438 120.058594 105.777344 C 116.339844 106.785156 114.136719 110.617188 115.144531 114.335938 C 116.148438 118.058594 119.980469 120.257812 123.703125 119.253906 " clip-rule="nonzero"/></clipPath><clipPath id="f52f10552f"><path d="M 83 235 L 98 235 L 98 250 L 83 250 Z M 83 235 " clip-rule="nonzero"/></clipPath><clipPath id="cab3619ade"><path d="M 98.976562 237.132812 L 95.398438 250.625 L 81.902344 247.050781 L 85.480469 233.554688 Z M 98.976562 237.132812 " clip-rule="nonzero"/></clipPath><clipPath id="81ef66e80c"><path d="M 97.1875 243.878906 C 98.175781 240.152344 95.953125 236.332031 92.226562 235.34375 C 88.503906 234.355469 84.679688 236.578125 83.691406 240.304688 C 82.703125 244.027344 84.925781 247.851562 88.652344 248.839844 C 92.375 249.824219 96.199219 247.605469 97.1875 243.878906 " clip-rule="nonzero"/></clipPath><clipPath id="e82d675faf"><path d="M 134 239 L 180 239 L 180 259 L 134 259 Z M 134 239 " clip-rule="nonzero"/></clipPath><clipPath id="bd3c0f2eab"><path d="M 134.164062 252.46875 L 178.503906 236.144531 L 183.167969 248.8125 L 138.824219 265.136719 Z M 134.164062 252.46875 " clip-rule="nonzero"/></clipPath><clipPath id="2ce70c1cf0"><path d="M 134.164062 252.46875 L 178.503906 236.144531 L 183.167969 248.8125 L 138.824219 265.136719 Z M 134.164062 252.46875 " clip-rule="nonzero"/></clipPath><clipPath id="eec6aab923"><path d="M 134.164062 252.46875 L 178.503906 236.144531 L 183.167969 248.8125 L 138.824219 265.136719 Z M 134.164062 252.46875 " clip-rule="nonzero"/></clipPath><clipPath id="067f12a4d4"><path d="M 143 255 L 144 255 L 144 256 L 143 256 Z M 143 255 " clip-rule="nonzero"/></clipPath><clipPath id="24f81a6bfc"><path d="M 134.164062 252.46875 L 178.503906 236.144531 L 183.167969 248.8125 L 138.824219 265.136719 Z M 134.164062 252.46875 " clip-rule="nonzero"/></clipPath><clipPath id="8cf39202f3"><path d="M 134.164062 252.46875 L 178.503906 236.144531 L 183.167969 248.8125 L 138.824219 265.136719 Z M 134.164062 252.46875 " clip-rule="nonzero"/></clipPath><clipPath id="0a949fb9e1"><path d="M 134.164062 252.46875 L 178.503906 236.144531 L 183.167969 248.8125 L 138.824219 265.136719 Z M 134.164062 252.46875 " clip-rule="nonzero"/></clipPath><clipPath id="dcca03e0ce"><path d="M 67 150 L 90 150 L 90 195 L 67 195 Z M 67 150 " clip-rule="nonzero"/></clipPath><clipPath id="765b7f4654"><path d="M 89.996094 150.472656 L 77.820312 196.125 L 64.777344 192.648438 L 76.953125 146.992188 Z M 89.996094 150.472656 " clip-rule="nonzero"/></clipPath><clipPath id="8a9ba00ff3"><path d="M 89.996094 150.472656 L 77.820312 196.125 L 64.777344 192.648438 L 76.953125 146.992188 Z M 89.996094 150.472656 " clip-rule="nonzero"/></clipPath><clipPath id="7011886edf"><path d="M 89.996094 150.472656 L 77.820312 196.125 L 64.777344 192.648438 L 76.953125 146.992188 Z M 89.996094 150.472656 " clip-rule="nonzero"/></clipPath><clipPath id="1c7d487a61"><path d="M 82 155 L 83 155 L 83 156 L 82 156 Z M 82 155 " clip-rule="nonzero"/></clipPath><clipPath id="cbb983ca46"><path d="M 89.996094 150.472656 L 77.820312 196.125 L 64.777344 192.648438 L 76.953125 146.992188 Z M 89.996094 150.472656 " clip-rule="nonzero"/></clipPath><clipPath id="227c9bde8a"><path d="M 89.996094 150.472656 L 77.820312 196.125 L 64.777344 192.648438 L 76.953125 146.992188 Z M 89.996094 150.472656 " clip-rule="nonzero"/></clipPath><clipPath id="8aca29fbd5"><path d="M 89.996094 150.472656 L 77.820312 196.125 L 64.777344 192.648438 L 76.953125 146.992188 Z M 89.996094 150.472656 " clip-rule="nonzero"/></clipPath><clipPath id="b7f857bf99"><path d="M 171 121 L 201 121 L 201 161 L 171 161 Z M 171 121 " clip-rule="nonzero"/></clipPath><clipPath id="a9d0a90ee2"><path d="M 198.617188 161.597656 L 168.046875 125.574219 L 178.339844 116.839844 L 208.910156 152.863281 Z M 198.617188 161.597656 " clip-rule="nonzero"/></clipPath><clipPath id="5619011fa9"><path d="M 198.617188 161.597656 L 168.046875 125.574219 L 178.339844 116.839844 L 208.910156 152.863281 Z M 198.617188 161.597656 " clip-rule="nonzero"/></clipPath><clipPath id="c482634ce6"><path d="M 198.617188 161.597656 L 168.046875 125.574219 L 178.339844 116.839844 L 208.910156 152.863281 Z M 198.617188 161.597656 " clip-rule="nonzero"/></clipPath><clipPath id="ff108ba6c9"><path d="M 198 151 L 199 151 L 199 153 L 198 153 Z M 198 151 " clip-rule="nonzero"/></clipPath><clipPath id="2bebc4d0b4"><path d="M 198.617188 161.597656 L 168.046875 125.574219 L 178.339844 116.839844 L 208.910156 152.863281 Z M 198.617188 161.597656 " clip-rule="nonzero"/></clipPath><clipPath id="d85e5094fe"><path d="M 198.617188 161.597656 L 168.046875 125.574219 L 178.339844 116.839844 L 208.910156 152.863281 Z M 198.617188 161.597656 " clip-rule="nonzero"/></clipPath><clipPath id="c88c816656"><path d="M 198.617188 161.597656 L 168.046875 125.574219 L 178.339844 116.839844 L 208.910156 152.863281 Z M 198.617188 161.597656 " clip-rule="nonzero"/></clipPath><clipPath id="8cbcb5711c"><path d="M 278 297.128906 L 295 297.128906 L 295 318.128906 L 278 318.128906 Z M 278 297.128906 " clip-rule="nonzero"/></clipPath><clipPath id="600701cc6e"><path d="M 266.625 297.128906 L 283 297.128906 L 283 318.128906 L 266.625 318.128906 Z M 266.625 297.128906 " clip-rule="nonzero"/></clipPath><clipPath id="251ac0582f"><path d="M 241 297.128906 L 258 297.128906 L 258 318.128906 L 241 318.128906 Z M 241 297.128906 " clip-rule="nonzero"/></clipPath><clipPath id="f022b54e61"><path d="M 229.5 297.128906 L 246 297.128906 L 246 318.128906 L 229.5 318.128906 Z M 229.5 297.128906 " clip-rule="nonzero"/></clipPath><clipPath id="d2b4a51d91"><path d="M 204 297.128906 L 220.875 297.128906 L 220.875 318.128906 L 204 318.128906 Z M 204 297.128906 " clip-rule="nonzero"/></clipPath><clipPath id="22631b0e7d"><path d="M 192.375 297.128906 L 209 297.128906 L 209 318.128906 L 192.375 318.128906 Z M 192.375 297.128906 " clip-rule="nonzero"/></clipPath><clipPath id="cae6c481e1"><path d="M 167 297.128906 L 183.75 297.128906 L 183.75 318.128906 L 167 318.128906 Z M 167 297.128906 " clip-rule="nonzero"/></clipPath><clipPath id="ee9fa23397"><path d="M 155.25 297.128906 L 172 297.128906 L 172 318.128906 L 155.25 318.128906 Z M 155.25 297.128906 " clip-rule="nonzero"/></clipPath><clipPath id="f731781e9f"><path d="M 130 297 L 147 297 L 147 319 L 130 319 Z M 130 297 " clip-rule="nonzero"/></clipPath><clipPath id="90c2a317df"><path d="M 117.945312 297.378906 L 146.441406 296.875 L 146.8125 317.871094 L 118.316406 318.375 Z M 117.945312 297.378906 " clip-rule="nonzero"/></clipPath><clipPath id="1948a23d42"><path d="M 117.945312 297.378906 L 146.441406 296.875 L 146.8125 317.871094 L 118.316406 318.375 Z M 117.945312 297.378906 " clip-rule="nonzero"/></clipPath><clipPath id="ae9dcea5d3"><path d="M 117 297 L 135 297 L 135 319 L 117 319 Z M 117 297 " clip-rule="nonzero"/></clipPath><clipPath id="47a52ea387"><path d="M 117.945312 297.378906 L 146.441406 296.875 L 146.8125 317.871094 L 118.316406 318.375 Z M 117.945312 297.378906 " clip-rule="nonzero"/></clipPath><clipPath id="64af169170"><path d="M 117.945312 297.378906 L 146.441406 296.875 L 146.8125 317.871094 L 118.316406 318.375 Z M 117.945312 297.378906 " clip-rule="nonzero"/></clipPath><clipPath id="9dba4ed85a"><path d="M 80 284 L 100 284 L 100 306 L 80 306 Z M 80 284 " clip-rule="nonzero"/></clipPath><clipPath id="751e622895"><path d="M 81.105469 277.734375 L 105.09375 293.121094 L 93.757812 310.796875 L 69.765625 295.410156 Z M 81.105469 277.734375 " clip-rule="nonzero"/></clipPath><clipPath id="646389e400"><path d="M 81.105469 277.734375 L 105.09375 293.121094 L 93.757812 310.796875 L 69.765625 295.410156 Z M 81.105469 277.734375 " clip-rule="nonzero"/></clipPath><clipPath id="c630bc537a"><path d="M 70 278 L 90 278 L 90 300 L 70 300 Z M 70 278 " clip-rule="nonzero"/></clipPath><clipPath id="3e09eb45a0"><path d="M 81.105469 277.734375 L 105.09375 293.121094 L 93.757812 310.796875 L 69.765625 295.410156 Z M 81.105469 277.734375 " clip-rule="nonzero"/></clipPath><clipPath id="3f21afe26f"><path d="M 81.105469 277.734375 L 105.09375 293.121094 L 93.757812 310.796875 L 69.765625 295.410156 Z M 81.105469 277.734375 " clip-rule="nonzero"/></clipPath><clipPath id="ee6cb4e583"><path d="M 42 264 L 62 264 L 62 285 L 42 285 Z M 42 264 " clip-rule="nonzero"/></clipPath><clipPath id="63d0b13c7e"><path d="M 48.058594 255.742188 L 68.585938 275.511719 L 54.019531 290.636719 L 33.492188 270.867188 Z M 48.058594 255.742188 " clip-rule="nonzero"/></clipPath><clipPath id="8f91a139ea"><path d="M 48.058594 255.742188 L 68.585938 275.511719 L 54.019531 290.636719 L 33.492188 270.867188 Z M 48.058594 255.742188 " clip-rule="nonzero"/></clipPath><clipPath id="ca0f7b36bc"><path d="M 33 256 L 54 256 L 54 276 L 33 276 Z M 33 256 " clip-rule="nonzero"/></clipPath><clipPath id="13860614a1"><path d="M 48.058594 255.742188 L 68.585938 275.511719 L 54.019531 290.636719 L 33.492188 270.867188 Z M 48.058594 255.742188 " clip-rule="nonzero"/></clipPath><clipPath id="661fcda69c"><path d="M 48.058594 255.742188 L 68.585938 275.511719 L 54.019531 290.636719 L 33.492188 270.867188 Z M 48.058594 255.742188 " clip-rule="nonzero"/></clipPath><clipPath id="7a126dc03d"><path d="M 19 232 L 41 232 L 41 251 L 19 251 Z M 19 232 " clip-rule="nonzero"/></clipPath><clipPath id="f7372df584"><path d="M 31.21875 221.023438 L 45.539062 245.664062 L 27.386719 256.21875 L 13.0625 231.578125 Z M 31.21875 221.023438 " clip-rule="nonzero"/></clipPath><clipPath id="e2223d0963"><path d="M 31.21875 221.023438 L 45.539062 245.664062 L 27.386719 256.21875 L 13.0625 231.578125 Z M 31.21875 221.023438 " clip-rule="nonzero"/></clipPath><clipPath id="8961418deb"><path d="M 13 221 L 35 221 L 35 241 L 13 241 Z M 13 221 " clip-rule="nonzero"/></clipPath><clipPath id="78c78a55d0"><path d="M 31.21875 221.023438 L 45.539062 245.664062 L 27.386719 256.21875 L 13.0625 231.578125 Z M 31.21875 221.023438 " clip-rule="nonzero"/></clipPath><clipPath id="d41f4eb601"><path d="M 31.21875 221.023438 L 45.539062 245.664062 L 27.386719 256.21875 L 13.0625 231.578125 Z M 31.21875 221.023438 " clip-rule="nonzero"/></clipPath><clipPath id="0e1b1c7d1b"><path d="M 8.878906 184 L 29.878906 184 L 29.878906 200.4375 L 8.878906 200.4375 Z M 8.878906 184 " clip-rule="nonzero"/></clipPath><clipPath id="c294715854"><path d="M 8.878906 171.9375 L 29.878906 171.9375 L 29.878906 188 L 8.878906 188 Z M 8.878906 171.9375 " clip-rule="nonzero"/></clipPath><clipPath id="3afe6bbaa3"><path d="M 18 126 L 39 126 L 39 146 L 18 146 Z M 18 126 " clip-rule="nonzero"/></clipPath><clipPath id="7421d241d2"><path d="M 46.378906 127.648438 L 30.144531 151.074219 L 12.882812 139.109375 L 29.117188 115.6875 Z M 46.378906 127.648438 " clip-rule="nonzero"/></clipPath><clipPath id="7a1edee1e7"><path d="M 46.378906 127.648438 L 30.144531 151.074219 L 12.882812 139.109375 L 29.117188 115.6875 Z M 46.378906 127.648438 " clip-rule="nonzero"/></clipPath><clipPath id="464ef994e4"><path d="M 25 116 L 46 116 L 46 136 L 25 136 Z M 25 116 " clip-rule="nonzero"/></clipPath><clipPath id="b1a0b2f089"><path d="M 46.378906 127.648438 L 30.144531 151.074219 L 12.882812 139.109375 L 29.117188 115.6875 Z M 46.378906 127.648438 " clip-rule="nonzero"/></clipPath><clipPath id="0b3585929b"><path d="M 46.378906 127.648438 L 30.144531 151.074219 L 12.882812 139.109375 L 29.117188 115.6875 Z M 46.378906 127.648438 " clip-rule="nonzero"/></clipPath><clipPath id="e22dc61896"><path d="M 44 90 L 64 90 L 64 111 L 44 111 Z M 44 90 " clip-rule="nonzero"/></clipPath><clipPath id="2d56d7c0af"><path d="M 72.519531 97.332031 L 51.425781 116.5 L 37.304688 100.957031 L 58.398438 81.789062 Z M 72.519531 97.332031 " clip-rule="nonzero"/></clipPath><clipPath id="16bad15b58"><path d="M 72.519531 97.332031 L 51.425781 116.5 L 37.304688 100.957031 L 58.398438 81.789062 Z M 72.519531 97.332031 " clip-rule="nonzero"/></clipPath><clipPath id="9223eac85b"><path d="M 53 82 L 73 82 L 73 102 L 53 102 Z M 53 82 " clip-rule="nonzero"/></clipPath><clipPath id="50273cb0ca"><path d="M 72.519531 97.332031 L 51.425781 116.5 L 37.304688 100.957031 L 58.398438 81.789062 Z M 72.519531 97.332031 " clip-rule="nonzero"/></clipPath><clipPath id="dbcfd516dd"><path d="M 72.519531 97.332031 L 51.425781 116.5 L 37.304688 100.957031 L 58.398438 81.789062 Z M 72.519531 97.332031 " clip-rule="nonzero"/></clipPath><clipPath id="380b249e09"><path d="M 74 67 L 94 67 L 94 90 L 74 90 Z M 74 67 " clip-rule="nonzero"/></clipPath><clipPath id="3b65760673"><path d="M 104.921875 81.058594 L 79.34375 93.632812 L 70.078125 74.785156 L 95.65625 62.214844 Z M 104.921875 81.058594 " clip-rule="nonzero"/></clipPath><clipPath id="878e0e92eb"><path d="M 104.921875 81.058594 L 79.34375 93.632812 L 70.078125 74.785156 L 95.65625 62.214844 Z M 104.921875 81.058594 " clip-rule="nonzero"/></clipPath><clipPath id="ad0edbaefd"><path d="M 85 62 L 105 62 L 105 85 L 85 85 Z M 85 62 " clip-rule="nonzero"/></clipPath><clipPath id="63b417b6e7"><path d="M 104.921875 81.058594 L 79.34375 93.632812 L 70.078125 74.785156 L 95.65625 62.214844 Z M 104.921875 81.058594 " clip-rule="nonzero"/></clipPath><clipPath id="4acf681bc1"><path d="M 104.921875 81.058594 L 79.34375 93.632812 L 70.078125 74.785156 L 95.65625 62.214844 Z M 104.921875 81.058594 " clip-rule="nonzero"/></clipPath><clipPath id="3659a12db6"><path d="M 117.785156 57.011719 L 135 57.011719 L 135 78 L 117.785156 78 Z M 117.785156 57.011719 " clip-rule="nonzero"/></clipPath><clipPath id="d73c138e2a"><path d="M 130 57.011719 L 146.285156 57.011719 L 146.285156 78 L 130 78 Z M 130 57.011719 " clip-rule="nonzero"/></clipPath><clipPath id="b668717c95"><path d="M 154 56 L 171 56 L 171 78 L 154 78 Z M 154 56 " clip-rule="nonzero"/></clipPath><clipPath id="a922905dbe"><path d="M 182.511719 78.011719 L 154.023438 77.15625 L 154.65625 56.164062 L 183.144531 57.023438 Z M 182.511719 78.011719 " clip-rule="nonzero"/></clipPath><clipPath id="74ca4b6f39"><path d="M 182.511719 78.011719 L 154.023438 77.15625 L 154.65625 56.164062 L 183.144531 57.023438 Z M 182.511719 78.011719 " clip-rule="nonzero"/></clipPath><clipPath id="694fee335f"><path d="M 166 56 L 184 56 L 184 78 L 166 78 Z M 166 56 " clip-rule="nonzero"/></clipPath><clipPath id="c3bb91d3a0"><path d="M 182.511719 78.011719 L 154.023438 77.15625 L 154.65625 56.164062 L 183.144531 57.023438 Z M 182.511719 78.011719 " clip-rule="nonzero"/></clipPath><clipPath id="5c06630a12"><path d="M 182.511719 78.011719 L 154.023438 77.15625 L 154.65625 56.164062 L 183.144531 57.023438 Z M 182.511719 78.011719 " clip-rule="nonzero"/></clipPath><clipPath id="22d723bc10"><path d="M 266 56 L 283 56 L 283 78 L 266 78 Z M 266 56 " clip-rule="nonzero"/></clipPath><clipPath id="8d4b1b67ea"><path d="M 294.164062 78.011719 L 265.675781 77.15625 L 266.308594 56.164062 L 294.796875 57.023438 Z M 294.164062 78.011719 " clip-rule="nonzero"/></clipPath><clipPath id="ef3612a2d3"><path d="M 294.164062 78.011719 L 265.675781 77.15625 L 266.308594 56.164062 L 294.796875 57.023438 Z M 294.164062 78.011719 " clip-rule="nonzero"/></clipPath><clipPath id="2458ef10be"><path d="M 278 56 L 295 56 L 295 78 L 278 78 Z M 278 56 " clip-rule="nonzero"/></clipPath><clipPath id="a9d943569f"><path d="M 294.164062 78.011719 L 265.675781 77.15625 L 266.308594 56.164062 L 294.796875 57.023438 Z M 294.164062 78.011719 " clip-rule="nonzero"/></clipPath><clipPath id="dce7f80146"><path d="M 294.164062 78.011719 L 265.675781 77.15625 L 266.308594 56.164062 L 294.796875 57.023438 Z M 294.164062 78.011719 " clip-rule="nonzero"/></clipPath><clipPath id="49766f7738"><path d="M 229 56 L 246 56 L 246 78 L 229 78 Z M 229 56 " clip-rule="nonzero"/></clipPath><clipPath id="5e4001afb7"><path d="M 257.039062 78.011719 L 228.550781 77.15625 L 229.183594 56.164062 L 257.671875 57.023438 Z M 257.039062 78.011719 " clip-rule="nonzero"/></clipPath><clipPath id="dd6bc5fa64"><path d="M 257.039062 78.011719 L 228.550781 77.15625 L 229.183594 56.164062 L 257.671875 57.023438 Z M 257.039062 78.011719 " clip-rule="nonzero"/></clipPath><clipPath id="e167b72a93"><path d="M 241 56 L 258 56 L 258 78 L 241 78 Z M 241 56 " clip-rule="nonzero"/></clipPath><clipPath id="c2277ccd39"><path d="M 257.039062 78.011719 L 228.550781 77.15625 L 229.183594 56.164062 L 257.671875 57.023438 Z M 257.039062 78.011719 " clip-rule="nonzero"/></clipPath><clipPath id="f3645fe74d"><path d="M 257.039062 78.011719 L 228.550781 77.15625 L 229.183594 56.164062 L 257.671875 57.023438 Z M 257.039062 78.011719 " clip-rule="nonzero"/></clipPath><clipPath id="195809e29a"><path d="M 192 56 L 209 56 L 209 78 L 192 78 Z M 192 56 " clip-rule="nonzero"/></clipPath><clipPath id="c660e29e78"><path d="M 220.523438 78.011719 L 192.035156 77.15625 L 192.667969 56.164062 L 221.15625 57.023438 Z M 220.523438 78.011719 " clip-rule="nonzero"/></clipPath><clipPath id="e88cd2a09b"><path d="M 220.523438 78.011719 L 192.035156 77.15625 L 192.667969 56.164062 L 221.15625 57.023438 Z M 220.523438 78.011719 " clip-rule="nonzero"/></clipPath><clipPath id="52fe0b0165"><path d="M 204 56 L 222 56 L 222 78 L 204 78 Z M 204 56 " clip-rule="nonzero"/></clipPath><clipPath id="74b1099bd3"><path d="M 220.523438 78.011719 L 192.035156 77.15625 L 192.667969 56.164062 L 221.15625 57.023438 Z M 220.523438 78.011719 " clip-rule="nonzero"/></clipPath><clipPath id="66e0ab038a"><path d="M 220.523438 78.011719 L 192.035156 77.15625 L 192.667969 56.164062 L 221.15625 57.023438 Z M 220.523438 78.011719 " clip-rule="nonzero"/></clipPath></defs><g clip-path="url(#9e54ed99f3)"><g clip-path="url(#d90d1d8f81)"><path fill="#737373" d="M 303.75 52.777344 L 303.75 323.039062 L -0.132812 323.039062 L -0.132812 52.777344 Z M 303.75 52.777344 " fill-opacity="1" fill-rule="nonzero"/></g></g><g clip-path="url(#aaf81b8aa8)"><g clip-path="url(#20bdc98b60)"><path stroke-linecap="butt" transform="matrix(0.000000000000000046, 0.75, -0.75, 0.000000000000000046, 303.749959, 52.777278)" fill="none" stroke-linejoin="miter" d="M 120.062594 394.442673 C 138.520928 400.817674 159.505305 404.999965 180.099056 404.999965 C 200.692807 404.999965 220.505308 401.416632 238.770934 395.041632 C 239.15635 394.838507 239.546975 394.838507 239.9376 394.64059 C 308.515729 369.145797 359.026148 301.81246 360.000106 224.124956 L 360.000106 -0.0000552182 L 0.000088039 -0.0000552182 L 0.000088039 223.95829 C 0.968838 302.208294 50.708424 369.54163 120.062594 394.442673 " stroke="#000000" stroke-width="4" stroke-opacity="1" stroke-miterlimit="4"/></g></g><g clip-path="url(#2e079c3d48)"><g clip-path="url(#4a87d6576d)"><g clip-path="url(#e2fa3fc5e3)"><path fill="#a6a6a6" d="M 140.117188 338.429688 L -9.671875 183.167969 L 145.585938 33.382812 L 295.375 188.640625 Z M 140.117188 338.429688 " fill-opacity="1" fill-rule="nonzero"/></g></g></g><g clip-path="url(#72fbd1b57f)"><g clip-path="url(#c55aae118c)"><g clip-path="url(#7707d35ba4)"><g clip-path="url(#08787402ce)"><path stroke-linecap="butt" transform="matrix(-0.520735, -0.539754, 0.539754, -0.520735, 140.116608, 338.428336)" fill="none" stroke-linejoin="miter" d="M 144.002271 -0.00115372 C 64.473117 -0.000379815 0.00146735 64.470508 0.00224126 143.999661 C 0.00301517 223.528815 64.473903 288.000465 144.003056 287.999691 C 223.528594 288.002665 288.000243 223.531777 287.999469 144.002624 C 288.002312 64.469722 223.527808 0.00182066 144.002271 -0.00115372 " stroke="#000000" stroke-width="8" stroke-opacity="1" stroke-miterlimit="4"/></g></g></g></g><g clip-path="url(#c5dc5aa8da)"><g clip-path="url(#100a7f4f14)"><g clip-path="url(#8632efb529)"><path fill="#ffde59" d="M 103.21875 240.707031 L 90.675781 228.339844 L 113.085938 205.605469 L 125.628906 217.96875 Z M 103.21875 240.707031 " fill-opacity="1" fill-rule="nonzero"/></g></g></g><g clip-path="url(#2565f45769)"><g clip-path="url(#9ba0467391)"><g clip-path="url(#df9bad1f84)"><path fill="#ffde59" d="M 142.34375 154.53125 L 125.3125 159.027344 L 117.167969 128.160156 L 134.195312 123.664062 Z M 142.34375 154.53125 " fill-opacity="1" fill-rule="nonzero"/></g></g></g><g clip-path="url(#5ccfe65ffa)"><g clip-path="url(#2339fd0704)"><g clip-path="url(#dea24dc4c7)"><path fill="#ffde59" d="M 200.527344 160.246094 L 178.886719 241.875 L 108.089844 223.105469 L 129.734375 141.476562 Z M 200.527344 160.246094 " fill-opacity="1" fill-rule="nonzero"/></g></g></g><g clip-path="url(#7927191704)"><g clip-path="url(#f1d466219e)"><g clip-path="url(#66b66f6a33)"><path fill="#ffde59" d="M 199.605469 194.539062 L 195.089844 211.5625 L 164.234375 203.382812 L 168.746094 186.355469 Z M 199.605469 194.539062 " fill-opacity="1" fill-rule="nonzero"/></g></g></g><g clip-path="url(#300515f191)"><g clip-path="url(#f04468cb19)"><g clip-path="url(#ff434b052c)"><path fill="#ffde59" d="M 198.230469 173.941406 L 251.652344 189.429688 L 236.164062 242.851562 L 182.742188 227.363281 Z M 198.230469 173.941406 " fill-opacity="1" fill-rule="nonzero"/></g></g></g><g clip-path="url(#5ffc5f3ac2)"><g clip-path="url(#06fd4a42e2)"><g clip-path="url(#07d5c6fe3d)"><g clip-path="url(#fc465965fb)"><path fill="#000000" d="M 224.046875 184.542969 C 218.714844 182.996094 213.460938 183.214844 208.292969 185.203125 L 206.144531 179.613281 C 212.570312 177.144531 219.089844 176.871094 225.714844 178.792969 Z M 205.851562 186.292969 C 200.910156 188.832031 197.242188 192.589844 194.851562 197.566406 L 189.453125 194.976562 C 192.425781 188.785156 196.980469 184.117188 203.117188 180.96875 Z M 193.828125 200.03125 C 193.664062 200.492188 193.515625 200.957031 193.378906 201.425781 C 191.976562 206.253906 192.039062 211.050781 193.558594 215.816406 L 187.855469 217.636719 C 185.964844 211.714844 185.890625 205.753906 187.628906 199.757812 C 187.796875 199.175781 187.980469 198.601562 188.183594 198.03125 Z M 194.507812 218.320312 C 196.757812 223.40625 200.296875 227.289062 205.128906 229.964844 L 202.226562 235.203125 C 196.222656 231.875 191.824219 227.054688 189.03125 220.742188 Z M 207.519531 231.125 C 208.410156 231.5 209.324219 231.824219 210.261719 232.097656 C 214.59375 233.351562 218.929688 233.425781 223.273438 232.3125 L 224.757812 238.113281 C 219.359375 239.496094 213.972656 239.40625 208.59375 237.847656 C 207.433594 237.511719 206.300781 237.109375 205.195312 236.644531 Z M 225.820312 231.511719 C 231.023438 229.5625 235.105469 226.253906 238.0625 221.589844 L 243.117188 224.796875 C 239.445312 230.59375 234.378906 234.699219 227.921875 237.117188 Z M 239.367188 219.257812 C 240.003906 217.960938 240.527344 216.613281 240.933594 215.214844 C 242.046875 211.371094 242.222656 207.503906 241.464844 203.605469 L 247.339844 202.460938 C 248.285156 207.304688 248.066406 212.113281 246.683594 216.878906 C 246.179688 218.613281 245.535156 220.285156 244.742188 221.894531 Z M 240.8125 201.019531 C 239.171875 195.714844 236.105469 191.445312 231.617188 188.21875 L 235.113281 183.359375 C 240.6875 187.367188 244.496094 192.664062 246.53125 199.25 Z M 229.363281 186.777344 C 227.6875 185.828125 225.917969 185.085938 224.046875 184.542969 L 225.714844 178.792969 C 228.03125 179.464844 230.230469 180.386719 232.3125 181.566406 Z M 229.363281 186.777344 " fill-opacity="1" fill-rule="nonzero"/></g></g></g></g><g clip-path="url(#a2e2f07696)"><g clip-path="url(#5a70e1b6c7)"><g clip-path="url(#0109bf4fc7)"><path fill="#ffde59" d="M 141.46875 78.414062 L 155.984375 132.109375 L 102.292969 146.628906 L 87.773438 92.933594 Z M 141.46875 78.414062 " fill-opacity="1" fill-rule="nonzero"/></g></g></g><g clip-path="url(#925e00fa02)"><g clip-path="url(#d568d2cb6f)"><g clip-path="url(#f5c224633c)"><g clip-path="url(#865caeb0d2)"><path fill="#000000" d="M 145.820312 105.984375 C 144.371094 100.625 141.457031 96.25 137.074219 92.867188 L 140.734375 88.128906 C 146.179688 92.332031 149.800781 97.765625 151.601562 104.421875 Z M 134.871094 91.347656 C 130.136719 88.441406 125.019531 87.257812 119.523438 87.800781 L 118.9375 81.84375 C 125.765625 81.167969 132.125 82.636719 138.003906 86.242188 Z M 116.886719 88.207031 C 116.410156 88.304688 115.933594 88.421875 115.460938 88.546875 C 110.609375 89.859375 106.542969 92.402344 103.257812 96.179688 L 98.742188 92.25 C 102.820312 87.558594 107.875 84.398438 113.898438 82.769531 C 114.484375 82.609375 115.070312 82.46875 115.664062 82.347656 Z M 101.613281 98.289062 C 98.4375 102.855469 96.957031 107.894531 97.179688 113.414062 L 91.199219 113.65625 C 90.921875 106.796875 92.753906 100.535156 96.699219 94.871094 Z M 97.429688 116.058594 C 97.570312 117.015625 97.769531 117.964844 98.023438 118.90625 C 99.203125 123.261719 101.394531 127.003906 104.601562 130.136719 L 100.414062 134.421875 C 96.429688 130.527344 93.707031 125.875 92.246094 120.46875 C 91.929688 119.304688 91.683594 118.128906 91.507812 116.941406 Z M 106.605469 131.898438 C 110.976562 135.332031 115.921875 137.101562 121.445312 137.207031 L 121.332031 143.191406 C 114.46875 143.0625 108.328125 140.867188 102.90625 136.605469 Z M 124.117188 137.109375 C 125.554688 136.980469 126.976562 136.726562 128.382812 136.34375 C 132.246094 135.300781 135.644531 133.441406 138.578125 130.769531 L 142.609375 135.199219 C 138.960938 138.519531 134.742188 140.828125 129.945312 142.125 C 128.203125 142.597656 126.441406 142.910156 124.65625 143.074219 Z M 140.449219 128.871094 C 144.132812 124.710938 146.183594 119.875 146.613281 114.363281 L 152.582031 114.824219 C 152.050781 121.671875 149.503906 127.675781 144.9375 132.835938 Z M 146.675781 111.6875 C 146.613281 109.765625 146.328125 107.863281 145.820312 105.984375 L 151.601562 104.421875 C 152.230469 106.75 152.582031 109.109375 152.660156 111.5 Z M 146.675781 111.6875 " fill-opacity="1" fill-rule="nonzero"/></g></g></g></g><g clip-path="url(#0d492dffc7)"><g clip-path="url(#84594787cd)"><g clip-path="url(#6b4c8cef9c)"><path fill="#ffde59" d="M 70.722656 206.921875 L 124.144531 222.410156 L 108.65625 275.832031 L 55.234375 260.34375 Z M 70.722656 206.921875 " fill-opacity="1" fill-rule="nonzero"/></g></g></g><g clip-path="url(#96e2e7d8e4)"><g clip-path="url(#03bfb00492)"><g clip-path="url(#866d1a2ba6)"><g clip-path="url(#17fe5239a8)"><path fill="#000000" d="M 96.542969 217.523438 C 91.207031 215.976562 85.957031 216.199219 80.789062 218.183594 L 78.640625 212.59375 C 85.0625 210.128906 91.585938 209.855469 98.210938 211.773438 Z M 78.347656 219.277344 C 73.402344 221.8125 69.734375 225.570312 67.34375 230.550781 L 61.949219 227.957031 C 64.921875 221.769531 69.476562 217.101562 75.613281 213.949219 Z M 66.320312 233.011719 C 66.15625 233.472656 66.007812 233.9375 65.871094 234.410156 C 64.472656 239.234375 64.53125 244.035156 66.050781 248.800781 L 60.347656 250.621094 C 58.457031 244.695312 58.382812 238.734375 60.121094 232.742188 C 60.289062 232.160156 60.476562 231.582031 60.675781 231.015625 Z M 67 251.304688 C 69.25 256.386719 72.792969 260.269531 77.621094 262.949219 L 74.71875 268.183594 C 68.714844 264.855469 64.316406 260.035156 61.527344 253.726562 Z M 80.011719 264.109375 C 80.902344 264.484375 81.820312 264.808594 82.753906 265.078125 C 87.085938 266.335938 91.425781 266.40625 95.765625 265.296875 L 97.25 271.09375 C 91.855469 272.476562 86.464844 272.390625 81.085938 270.828125 C 79.929688 270.492188 78.796875 270.09375 77.6875 269.625 Z M 98.3125 264.496094 C 103.515625 262.542969 107.597656 259.238281 110.554688 254.574219 L 115.613281 257.78125 C 111.9375 263.574219 106.871094 267.683594 100.414062 270.101562 Z M 111.863281 252.238281 C 112.5 250.945312 113.019531 249.59375 113.425781 248.195312 C 114.539062 244.355469 114.71875 240.484375 113.957031 236.589844 L 119.835938 235.445312 C 120.777344 240.289062 120.558594 245.09375 119.175781 249.863281 C 118.671875 251.597656 118.027344 253.269531 117.238281 254.878906 Z M 113.308594 234.003906 C 111.664062 228.695312 108.597656 224.429688 104.113281 221.199219 L 107.609375 216.339844 C 113.183594 220.351562 116.988281 225.648438 119.027344 232.230469 Z M 101.859375 219.757812 C 100.183594 218.8125 98.410156 218.066406 96.542969 217.523438 L 98.210938 211.773438 C 100.527344 212.445312 102.726562 213.371094 104.804688 214.546875 Z M 101.859375 219.757812 " fill-opacity="1" fill-rule="nonzero"/></g></g></g></g><g clip-path="url(#35a7c253bc)"><g clip-path="url(#24c3099aad)"><g clip-path="url(#b2b834fdf7)"><path fill="#707070" d="M 225.730469 203.433594 L 222.152344 216.925781 L 208.660156 213.347656 L 212.238281 199.855469 Z M 225.730469 203.433594 " fill-opacity="1" fill-rule="nonzero"/></g></g></g><g clip-path="url(#df18a7342d)"><g clip-path="url(#daa575ab1f)"><g clip-path="url(#bba4499905)"><path fill="#707070" d="M 130.441406 117.433594 L 116.964844 121.074219 L 113.320312 107.601562 L 126.796875 103.957031 Z M 130.441406 117.433594 " fill-opacity="1" fill-rule="nonzero"/></g></g></g><g clip-path="url(#f52f10552f)"><g clip-path="url(#cab3619ade)"><g clip-path="url(#81ef66e80c)"><path fill="#707070" d="M 98.976562 237.132812 L 95.398438 250.625 L 81.902344 247.050781 L 85.480469 233.554688 Z M 98.976562 237.132812 " fill-opacity="1" fill-rule="nonzero"/></g></g></g><g clip-path="url(#e82d675faf)"><g clip-path="url(#bd3c0f2eab)"><g clip-path="url(#2ce70c1cf0)"><g clip-path="url(#eec6aab923)"><path fill="#ffffff" d="M 135.011719 252.574219 C 135 252.613281 135.011719 252.648438 135.039062 252.679688 C 134.988281 252.816406 134.753906 252.8125 134.789062 253.011719 C 134.601562 253.421875 134.828125 253.6875 135.117188 253.925781 C 135.929688 254.59375 136.832031 255.113281 137.765625 255.578125 C 141.109375 257.242188 144.636719 258.128906 148.351562 258.390625 C 154.835938 258.851562 160.707031 257.085938 166.140625 253.691406 C 168.660156 252.121094 170.859375 250.132812 172.964844 248.039062 C 174.199219 246.808594 175.359375 245.507812 176.550781 244.234375 C 176.574219 244.167969 176.59375 244.105469 176.617188 244.039062 C 176.6875 244.007812 176.757812 243.953125 176.828125 243.960938 C 176.828125 243.960938 176.828125 243.960938 176.832031 243.960938 C 176.882812 243.964844 176.878906 244.042969 176.835938 244.089844 C 176.765625 244.773438 176.554688 245.421875 176.308594 246.054688 C 176.140625 246.492188 176.011719 246.925781 176.011719 247.398438 C 175.644531 248.328125 175.898438 249.089844 176.699219 249.539062 C 178.1875 248.21875 178.738281 246.429688 179.144531 244.566406 C 179.296875 243.875 179.496094 243.191406 179.683594 242.507812 C 180.136719 240.871094 179.980469 241.082031 179.027344 240.078125 C 178.8125 239.851562 178.554688 239.679688 178.277344 239.539062 C 178.175781 239.484375 178.078125 239.445312 177.964844 239.488281 C 177.707031 239.246094 177.429688 239.34375 177.164062 239.453125 C 176.375 239.777344 175.59375 240.109375 174.808594 240.441406 C 174.605469 240.410156 174.441406 240.5 174.28125 240.601562 C 174.082031 240.5625 173.917969 240.660156 173.75 240.746094 C 173.613281 240.695312 173.496094 240.777344 173.367188 240.804688 C 171.660156 241.171875 169.9375 241.335938 168.183594 241.207031 C 168.050781 241.199219 167.921875 241.199219 167.789062 241.195312 C 167.632812 241.1875 167.453125 241.179688 167.394531 241.351562 C 167.347656 241.476562 167.4375 241.648438 167.539062 241.703125 C 167.988281 241.945312 168.222656 242.429688 168.636719 242.703125 C 168.820312 242.828125 169.039062 242.863281 169.261719 242.894531 C 170.980469 243.160156 172.691406 243.109375 174.402344 242.882812 C 174.554688 242.863281 174.707031 242.816406 174.859375 242.832031 C 175.035156 242.84375 175.042969 242.988281 175.007812 243.132812 C 174.835938 243.171875 174.746094 243.28125 174.722656 243.453125 C 174.574219 243.523438 174.433594 243.597656 174.417969 243.789062 C 174.371094 243.785156 174.351562 243.804688 174.355469 243.847656 C 174.210938 243.910156 174.089844 243.988281 174.0625 244.164062 C 173.972656 244.226562 173.875 244.277344 173.800781 244.355469 C 172.964844 245.191406 172.140625 246.046875 171.292969 246.875 C 170.527344 247.628906 169.738281 248.359375 168.957031 249.097656 C 168.726562 249.265625 168.488281 249.425781 168.269531 249.605469 C 166.101562 251.320312 163.761719 252.746094 161.210938 253.8125 C 160.300781 254.191406 159.378906 254.546875 158.460938 254.910156 C 158.25 254.875 158.085938 254.980469 157.914062 255.085938 C 157.714844 255.046875 157.554688 255.144531 157.390625 255.242188 C 157.203125 255.191406 157.054688 255.296875 156.898438 255.371094 C 156.773438 255.328125 156.671875 255.371094 156.582031 255.449219 C 156.535156 255.433594 156.5 255.445312 156.46875 255.484375 C 156.332031 255.4375 156.214844 255.515625 156.089844 255.539062 C 155.46875 255.652344 154.871094 255.878906 154.234375 255.914062 C 154.199219 255.980469 154.039062 256.066406 154.28125 256.078125 C 154.441406 256.089844 154.464844 256.128906 154.4375 256.175781 C 154.417969 256.21875 154.359375 256.269531 154.316406 256.3125 C 152.34375 256.605469 150.355469 256.660156 148.363281 256.582031 C 148.179688 256.558594 147.992188 256.53125 147.808594 256.507812 C 146.707031 256.359375 145.605469 256.214844 144.503906 256.070312 C 144.472656 256.035156 144.4375 256.019531 144.398438 256.015625 C 144.371094 256.015625 144.34375 256.019531 144.316406 256.03125 C 144.261719 255.976562 144.203125 255.964844 144.132812 255.992188 C 144.082031 255.933594 144.019531 255.925781 143.949219 255.953125 C 143.898438 255.894531 143.835938 255.882812 143.765625 255.914062 C 143.714844 255.855469 143.652344 255.839844 143.582031 255.871094 C 143.53125 255.8125 143.472656 255.796875 143.402344 255.828125 L 143.398438 255.828125 C 143.351562 255.769531 143.289062 255.753906 143.21875 255.785156 L 143.214844 255.785156 C 143.160156 255.765625 143.097656 255.75 143.039062 255.738281 L 143.03125 255.738281 C 142.984375 255.675781 142.925781 255.660156 142.855469 255.691406 L 142.851562 255.6875 C 142.800781 255.628906 142.742188 255.613281 142.671875 255.644531 L 142.667969 255.640625 C 142.667969 255.640625 142.664062 255.640625 142.664062 255.640625 C 142.664062 255.640625 142.667969 255.640625 142.667969 255.640625 C 142.621094 255.578125 142.558594 255.5625 142.488281 255.59375 L 142.484375 255.59375 C 142.4375 255.53125 142.378906 255.515625 142.308594 255.546875 L 142.304688 255.542969 C 142.257812 255.484375 142.195312 255.464844 142.125 255.492188 C 141.578125 255.304688 141.03125 255.117188 140.484375 254.925781 C 140.171875 254.917969 139.898438 254.761719 139.617188 254.648438 C 139.613281 254.613281 139.621094 254.582031 139.628906 254.550781 C 139.644531 254.503906 139.671875 254.464844 139.714844 254.433594 C 139.511719 254.324219 139.3125 254.203125 139.074219 254.195312 C 139 254.199219 138.929688 254.191406 138.863281 254.15625 C 138.933594 254.167969 139.003906 254.183594 139.074219 254.195312 C 139.015625 254.144531 138.953125 254.109375 138.882812 254.148438 C 138.824219 254.046875 138.730469 254.007812 138.617188 254.003906 C 138.582031 253.9375 138.527344 253.910156 138.453125 253.933594 C 138.398438 253.875 138.34375 253.839844 138.261719 253.859375 C 138.238281 253.828125 138.210938 253.808594 138.167969 253.808594 C 137.988281 253.664062 137.789062 253.570312 137.566406 253.523438 C 137.433594 253.429688 137.304688 253.332031 137.136719 253.316406 C 137.074219 253.226562 136.972656 253.203125 136.878906 253.171875 C 136.355469 252.804688 135.769531 252.539062 135.296875 252.050781 C 135.214844 252.277344 134.964844 252.335938 135.011719 252.574219 Z M 174.421875 243.964844 C 174.421875 243.964844 174.421875 243.964844 174.417969 243.964844 C 174.417969 243.96875 174.421875 243.964844 174.421875 243.964844 C 174.417969 243.96875 174.417969 243.964844 174.417969 243.964844 C 174.417969 243.964844 174.417969 243.960938 174.414062 243.960938 C 174.417969 243.960938 174.421875 243.964844 174.421875 243.964844 Z M 142.429688 255.957031 C 142.441406 255.964844 142.457031 255.972656 142.46875 255.976562 C 142.464844 255.976562 142.460938 255.976562 142.457031 255.976562 C 142.445312 255.972656 142.433594 255.96875 142.421875 255.964844 C 142.421875 255.964844 142.425781 255.960938 142.429688 255.957031 Z M 144.496094 256.074219 C 144.496094 256.074219 144.492188 256.074219 144.496094 256.078125 C 144.492188 256.082031 144.492188 256.085938 144.492188 256.089844 L 144.484375 256.109375 L 144.492188 256.074219 C 144.492188 256.074219 144.492188 256.074219 144.496094 256.074219 Z M 142.378906 256.003906 C 142.390625 255.992188 142.40625 255.980469 142.417969 255.96875 C 142.429688 255.972656 142.441406 255.972656 142.453125 255.976562 C 142.425781 255.972656 142.402344 255.980469 142.378906 256.003906 Z M 142.535156 256.003906 C 142.550781 256.007812 142.566406 256.011719 142.578125 256.015625 C 142.578125 256.015625 142.582031 256.015625 142.582031 256.019531 C 142.566406 256.011719 142.550781 256.007812 142.535156 256.003906 Z M 135.726562 253.546875 C 135.726562 253.550781 135.722656 253.546875 135.722656 253.546875 C 135.722656 253.546875 135.71875 253.546875 135.71875 253.546875 C 135.71875 253.546875 135.714844 253.542969 135.714844 253.542969 C 135.71875 253.542969 135.722656 253.546875 135.726562 253.546875 Z M 135.960938 253.710938 C 135.960938 253.714844 135.960938 253.714844 135.964844 253.71875 C 135.964844 253.714844 135.960938 253.710938 135.960938 253.710938 Z M 138.753906 254.183594 C 138.742188 254.195312 138.734375 254.203125 138.726562 254.21875 C 138.722656 254.210938 138.714844 254.203125 138.710938 254.195312 C 138.726562 254.191406 138.738281 254.1875 138.753906 254.183594 Z M 138.324219 253.925781 C 138.300781 253.917969 138.28125 253.902344 138.261719 253.882812 C 138.261719 253.882812 138.261719 253.882812 138.265625 253.882812 C 138.28125 253.902344 138.300781 253.917969 138.324219 253.925781 Z M 138.324219 253.925781 " fill-opacity="1" fill-rule="nonzero"/></g></g></g></g><g clip-path="url(#067f12a4d4)"><g clip-path="url(#24f81a6bfc)"><g clip-path="url(#8cf39202f3)"><g clip-path="url(#0a949fb9e1)"><path fill="#ffffff" d="M 143.027344 255.738281 C 143.089844 255.753906 143.148438 255.769531 143.207031 255.785156 C 143.15625 255.722656 143.097656 255.707031 143.027344 255.738281 Z M 143.027344 255.738281 " fill-opacity="1" fill-rule="nonzero"/></g></g></g></g><g clip-path="url(#dcca03e0ce)"><g clip-path="url(#765b7f4654)"><g clip-path="url(#8a9ba00ff3)"><g clip-path="url(#7011886edf)"><path fill="#ffffff" d="M 89.421875 151.105469 C 89.394531 151.074219 89.359375 151.0625 89.320312 151.066406 C 89.238281 150.945312 89.375 150.757812 89.191406 150.671875 C 88.960938 150.28125 88.613281 150.3125 88.253906 150.414062 C 87.242188 150.691406 86.296875 151.128906 85.378906 151.625 C 82.09375 153.402344 79.339844 155.777344 76.984375 158.664062 C 72.875 163.703125 70.941406 169.519531 70.585938 175.917969 C 70.421875 178.882812 70.785156 181.824219 71.285156 184.75 C 71.578125 186.46875 71.976562 188.167969 72.332031 189.875 C 72.371094 189.929688 72.414062 189.984375 72.453125 190.039062 C 72.4375 190.113281 72.4375 190.203125 72.394531 190.257812 C 72.359375 190.300781 72.300781 190.25 72.285156 190.1875 C 71.765625 189.738281 71.359375 189.191406 70.980469 188.625 C 70.71875 188.238281 70.441406 187.882812 70.054688 187.613281 C 69.503906 186.773438 68.734375 186.546875 67.90625 186.941406 C 68.128906 188.917969 69.273438 190.394531 70.5625 191.804688 C 71.042969 192.328125 71.484375 192.882812 71.9375 193.429688 C 73.015625 194.742188 72.933594 194.492188 74.304688 194.289062 C 74.609375 194.246094 74.902344 194.132812 75.175781 193.988281 C 75.277344 193.933594 75.367188 193.878906 75.398438 193.761719 C 75.746094 193.691406 75.824219 193.40625 75.886719 193.128906 C 76.078125 192.296875 76.253906 191.464844 76.4375 190.632812 C 76.578125 190.484375 76.597656 190.296875 76.605469 190.109375 C 76.753906 189.96875 76.769531 189.777344 76.792969 189.59375 C 76.914062 189.507812 76.917969 189.363281 76.96875 189.246094 C 77.648438 187.636719 78.507812 186.132812 79.621094 184.773438 C 79.703125 184.671875 79.78125 184.5625 79.859375 184.457031 C 79.953125 184.332031 80.0625 184.191406 79.960938 184.046875 C 79.882812 183.933594 79.691406 183.910156 79.589844 183.960938 C 79.128906 184.1875 78.601562 184.101562 78.136719 184.28125 C 77.929688 184.363281 77.773438 184.519531 77.621094 184.683594 C 76.417969 185.9375 75.472656 187.363281 74.671875 188.894531 C 74.601562 189.03125 74.546875 189.183594 74.453125 189.300781 C 74.339844 189.433594 74.214844 189.355469 74.121094 189.246094 C 74.183594 189.082031 74.148438 188.945312 74.019531 188.828125 C 74.050781 188.667969 74.066406 188.507812 73.921875 188.386719 C 73.953125 188.351562 73.945312 188.324219 73.910156 188.300781 C 73.941406 188.148438 73.949219 188 73.820312 187.878906 C 73.820312 187.773438 73.835938 187.660156 73.816406 187.554688 C 73.609375 186.386719 73.386719 185.222656 73.195312 184.054688 C 73.019531 182.992188 72.878906 181.925781 72.726562 180.863281 C 72.71875 180.578125 72.722656 180.292969 72.707031 180.007812 C 72.550781 177.25 72.730469 174.515625 73.328125 171.816406 C 73.539062 170.851562 73.78125 169.898438 74.011719 168.9375 C 74.164062 168.785156 74.171875 168.585938 74.183594 168.390625 C 74.332031 168.246094 74.34375 168.058594 74.359375 167.871094 C 74.507812 167.746094 74.507812 167.5625 74.535156 167.390625 C 74.640625 167.316406 74.664062 167.210938 74.65625 167.089844 C 74.691406 167.058594 74.703125 167.023438 74.6875 166.976562 C 74.808594 166.890625 74.8125 166.75 74.863281 166.632812 C 75.128906 166.0625 75.289062 165.441406 75.625 164.902344 C 75.589844 164.835938 75.609375 164.65625 75.464844 164.84375 C 75.363281 164.96875 75.320312 164.964844 75.292969 164.917969 C 75.273438 164.875 75.265625 164.800781 75.253906 164.742188 C 76.144531 162.957031 77.246094 161.300781 78.457031 159.71875 C 78.585938 159.582031 78.710938 159.441406 78.835938 159.304688 C 79.589844 158.488281 80.347656 157.671875 81.097656 156.855469 C 81.144531 156.847656 81.179688 156.828125 81.203125 156.800781 C 81.21875 156.777344 81.230469 156.753906 81.238281 156.726562 C 81.3125 156.710938 81.359375 156.667969 81.375 156.597656 C 81.453125 156.585938 81.496094 156.542969 81.511719 156.46875 C 81.589844 156.460938 81.632812 156.417969 81.652344 156.339844 C 81.726562 156.332031 81.777344 156.292969 81.789062 156.214844 C 81.871094 156.210938 81.914062 156.167969 81.929688 156.089844 L 81.933594 156.089844 C 82.007812 156.085938 82.054688 156.042969 82.070312 155.96875 L 82.074219 155.96875 C 82.121094 155.929688 82.167969 155.890625 82.210938 155.847656 L 82.21875 155.84375 C 82.292969 155.839844 82.339844 155.800781 82.355469 155.726562 L 82.363281 155.722656 C 82.4375 155.71875 82.484375 155.679688 82.5 155.601562 L 82.507812 155.597656 C 82.585938 155.597656 82.632812 155.554688 82.648438 155.480469 L 82.648438 155.476562 C 82.726562 155.476562 82.773438 155.4375 82.792969 155.359375 C 82.871094 155.355469 82.921875 155.316406 82.9375 155.242188 C 83.40625 154.902344 83.878906 154.566406 84.347656 154.226562 C 84.535156 153.976562 84.816406 153.84375 85.070312 153.675781 C 85.105469 153.695312 85.125 153.71875 85.144531 153.742188 C 85.175781 153.78125 85.191406 153.824219 85.191406 153.878906 C 85.398438 153.777344 85.613281 153.6875 85.757812 153.496094 C 85.796875 153.433594 85.84375 153.378906 85.910156 153.34375 C 85.859375 153.394531 85.808594 153.441406 85.757812 153.496094 C 85.832031 153.472656 85.898438 153.445312 85.90625 153.363281 C 86.023438 153.375 86.109375 153.320312 86.175781 153.230469 C 86.25 153.238281 86.304688 153.214844 86.328125 153.136719 C 86.40625 153.125 86.46875 153.101562 86.5 153.023438 C 86.539062 153.023438 86.570312 153.011719 86.59375 152.976562 C 86.8125 152.910156 87.007812 152.804688 87.175781 152.648438 C 87.328125 152.59375 87.480469 152.542969 87.589844 152.414062 C 87.699219 152.414062 87.777344 152.347656 87.859375 152.285156 C 88.457031 152.070312 89.011719 151.746094 89.683594 151.636719 C 89.546875 151.441406 89.640625 151.203125 89.421875 151.105469 Z M 73.777344 188.289062 C 73.777344 188.285156 73.777344 188.285156 73.777344 188.285156 C 73.777344 188.285156 73.773438 188.285156 73.773438 188.285156 C 73.777344 188.285156 73.777344 188.285156 73.777344 188.285156 C 73.777344 188.285156 73.78125 188.285156 73.78125 188.285156 C 73.78125 188.289062 73.777344 188.289062 73.777344 188.289062 Z M 82.382812 155.222656 C 82.371094 155.230469 82.359375 155.238281 82.34375 155.246094 C 82.347656 155.242188 82.351562 155.238281 82.351562 155.234375 C 82.363281 155.226562 82.371094 155.21875 82.382812 155.210938 C 82.382812 155.214844 82.382812 155.21875 82.382812 155.222656 Z M 81.101562 156.847656 C 81.097656 156.84375 81.097656 156.84375 81.097656 156.84375 C 81.09375 156.839844 81.089844 156.835938 81.089844 156.832031 L 81.078125 156.816406 L 81.097656 156.84375 C 81.101562 156.84375 81.101562 156.84375 81.101562 156.84375 C 81.101562 156.84375 81.101562 156.84375 81.101562 156.847656 Z M 82.375 155.152344 C 82.378906 155.171875 82.378906 155.191406 82.382812 155.207031 C 82.371094 155.214844 82.363281 155.222656 82.351562 155.234375 C 82.371094 155.210938 82.378906 155.1875 82.375 155.152344 Z M 82.285156 155.285156 C 82.273438 155.292969 82.261719 155.304688 82.25 155.3125 C 82.25 155.3125 82.25 155.3125 82.246094 155.3125 C 82.261719 155.304688 82.273438 155.292969 82.285156 155.285156 Z M 88.210938 151.128906 C 88.210938 151.128906 88.214844 151.125 88.214844 151.125 C 88.214844 151.125 88.21875 151.125 88.21875 151.125 C 88.21875 151.125 88.222656 151.121094 88.222656 151.121094 C 88.21875 151.125 88.214844 151.125 88.210938 151.128906 Z M 87.945312 151.226562 C 87.941406 151.226562 87.941406 151.222656 87.9375 151.226562 C 87.941406 151.226562 87.945312 151.226562 87.945312 151.226562 Z M 85.949219 153.238281 C 85.949219 153.222656 85.945312 153.210938 85.9375 153.195312 C 85.945312 153.195312 85.957031 153.195312 85.964844 153.195312 C 85.960938 153.210938 85.957031 153.222656 85.949219 153.238281 Z M 86.410156 153.035156 C 86.429688 153.019531 86.453125 153.011719 86.480469 153.011719 C 86.453125 153.015625 86.429688 153.023438 86.410156 153.035156 Z M 86.410156 153.035156 " fill-opacity="1" fill-rule="nonzero"/></g></g></g></g><g clip-path="url(#1c7d487a61)"><g clip-path="url(#cbb983ca46)"><g clip-path="url(#227c9bde8a)"><g clip-path="url(#8aca29fbd5)"><path fill="#ffffff" d="M 82.21875 155.839844 C 82.171875 155.878906 82.125 155.917969 82.078125 155.957031 C 82.15625 155.953125 82.203125 155.914062 82.21875 155.839844 Z M 82.21875 155.839844 " fill-opacity="1" fill-rule="nonzero"/></g></g></g></g><g clip-path="url(#b7f857bf99)"><g clip-path="url(#a9d0a90ee2)"><g clip-path="url(#5619011fa9)"><g clip-path="url(#c482634ce6)"><path fill="#ffffff" d="M 198.425781 160.765625 C 198.46875 160.761719 198.5 160.742188 198.519531 160.703125 C 198.664062 160.703125 198.738281 160.925781 198.914062 160.820312 C 199.367188 160.855469 199.535156 160.554688 199.660156 160.199219 C 200.007812 159.207031 200.1875 158.183594 200.304688 157.148438 C 200.714844 153.433594 200.332031 149.816406 199.300781 146.238281 C 197.503906 139.988281 193.828125 135.085938 188.773438 131.148438 C 186.429688 129.320312 183.808594 127.941406 181.121094 126.6875 C 179.539062 125.949219 177.917969 125.304688 176.3125 124.625 C 176.242188 124.625 176.175781 124.628906 176.109375 124.628906 C 176.054688 124.574219 175.980469 124.527344 175.960938 124.460938 C 175.960938 124.460938 175.960938 124.460938 175.960938 124.457031 C 175.945312 124.40625 176.023438 124.382812 176.078125 124.410156 C 176.746094 124.238281 177.425781 124.214844 178.109375 124.226562 C 178.574219 124.234375 179.027344 124.207031 179.46875 124.042969 C 180.472656 124.070312 181.097656 123.566406 181.246094 122.664062 C 179.492188 121.714844 177.625 121.816406 175.734375 122.074219 C 175.03125 122.167969 174.324219 122.214844 173.617188 122.273438 C 171.921875 122.414062 172.175781 122.488281 171.558594 123.730469 C 171.421875 124.007812 171.351562 124.308594 171.3125 124.617188 C 171.296875 124.734375 171.292969 124.839844 171.371094 124.929688 C 171.230469 125.253906 171.417969 125.480469 171.613281 125.695312 C 172.1875 126.320312 172.769531 126.941406 173.351562 127.566406 C 173.390625 127.765625 173.53125 127.886719 173.683594 128.003906 C 173.714844 128.207031 173.863281 128.328125 174 128.453125 C 174 128.601562 174.117188 128.683594 174.1875 128.792969 C 175.117188 130.269531 175.867188 131.832031 176.347656 133.523438 C 176.382812 133.648438 176.429688 133.773438 176.472656 133.898438 C 176.519531 134.046875 176.574219 134.21875 176.753906 134.214844 C 176.890625 134.214844 177.019531 134.074219 177.035156 133.960938 C 177.109375 133.449219 177.484375 133.066406 177.597656 132.582031 C 177.648438 132.367188 177.609375 132.148438 177.5625 131.929688 C 177.21875 130.226562 176.585938 128.636719 175.785156 127.105469 C 175.710938 126.96875 175.617188 126.84375 175.578125 126.695312 C 175.527344 126.523438 175.664062 126.46875 175.808594 126.453125 C 175.90625 126.597656 176.039062 126.648438 176.210938 126.609375 C 176.324219 126.726562 176.445312 126.828125 176.628906 126.78125 C 176.640625 126.824219 176.667969 126.835938 176.707031 126.820312 C 176.8125 126.933594 176.929688 127.019531 177.101562 126.984375 C 177.191406 127.046875 177.273438 127.121094 177.371094 127.167969 C 178.449219 127.664062 179.53125 128.144531 180.601562 128.652344 C 181.574219 129.113281 182.53125 129.605469 183.492188 130.085938 C 183.730469 130.242188 183.960938 130.410156 184.203125 130.554688 C 186.5625 132 188.703125 133.710938 190.582031 135.734375 C 191.253906 136.460938 191.898438 137.203125 192.558594 137.941406 C 192.597656 138.152344 192.753906 138.269531 192.910156 138.394531 C 192.941406 138.597656 193.089844 138.714844 193.238281 138.832031 C 193.253906 139.027344 193.402344 139.128906 193.53125 139.25 C 193.53125 139.382812 193.605469 139.460938 193.710938 139.523438 C 193.710938 139.570312 193.734375 139.601562 193.78125 139.613281 C 193.785156 139.757812 193.898438 139.84375 193.964844 139.953125 C 194.285156 140.496094 194.703125 140.980469 194.953125 141.566406 C 195.027344 141.574219 195.164062 141.695312 195.09375 141.464844 C 195.046875 141.3125 195.074219 141.277344 195.128906 141.285156 C 195.175781 141.289062 195.242188 141.328125 195.296875 141.351562 C 196.253906 143.101562 196.988281 144.949219 197.597656 146.847656 C 197.640625 147.03125 197.679688 147.210938 197.722656 147.394531 C 197.960938 148.480469 198.203125 149.566406 198.445312 150.648438 C 198.425781 150.691406 198.421875 150.730469 198.433594 150.765625 C 198.441406 150.792969 198.453125 150.816406 198.472656 150.839844 C 198.441406 150.90625 198.449219 150.96875 198.5 151.023438 C 198.464844 151.09375 198.476562 151.15625 198.527344 151.210938 C 198.488281 151.277344 198.5 151.339844 198.554688 151.394531 C 198.515625 151.464844 198.523438 151.527344 198.578125 151.582031 C 198.539062 151.652344 198.546875 151.710938 198.597656 151.769531 C 198.558594 151.835938 198.566406 151.898438 198.621094 151.953125 L 198.621094 151.957031 C 198.621094 152.015625 198.628906 152.078125 198.636719 152.136719 L 198.636719 152.144531 C 198.597656 152.210938 198.605469 152.269531 198.65625 152.328125 L 198.65625 152.332031 C 198.617188 152.398438 198.621094 152.460938 198.675781 152.515625 L 198.675781 152.523438 C 198.632812 152.585938 198.640625 152.648438 198.691406 152.707031 C 198.652344 152.773438 198.65625 152.835938 198.710938 152.890625 L 198.707031 152.894531 C 198.667969 152.960938 198.671875 153.023438 198.722656 153.082031 C 198.734375 153.660156 198.742188 154.238281 198.753906 154.816406 C 198.855469 155.113281 198.800781 155.421875 198.792969 155.726562 C 198.761719 155.742188 198.726562 155.746094 198.695312 155.75 C 198.648438 155.75 198.601562 155.738281 198.554688 155.710938 C 198.523438 155.9375 198.476562 156.164062 198.550781 156.394531 C 198.582031 156.460938 198.597656 156.527344 198.589844 156.605469 C 198.578125 156.535156 198.566406 156.464844 198.550781 156.394531 C 198.527344 156.464844 198.511719 156.535156 198.574219 156.589844 C 198.5 156.679688 198.492188 156.777344 198.53125 156.886719 C 198.480469 156.945312 198.46875 157.003906 198.519531 157.066406 C 198.484375 157.136719 198.46875 157.203125 198.515625 157.269531 C 198.496094 157.300781 198.484375 157.335938 198.5 157.375 C 198.429688 157.59375 198.40625 157.8125 198.4375 158.039062 C 198.398438 158.195312 198.351562 158.351562 198.394531 158.515625 C 198.332031 158.605469 198.34375 158.707031 198.347656 158.808594 C 198.183594 159.421875 198.132812 160.0625 197.839844 160.679688 C 198.078125 160.675781 198.21875 160.890625 198.425781 160.765625 Z M 176.792969 126.714844 C 176.792969 126.71875 176.792969 126.71875 176.792969 126.71875 C 176.796875 126.71875 176.792969 126.714844 176.792969 126.714844 C 176.796875 126.71875 176.796875 126.71875 176.796875 126.71875 C 176.796875 126.71875 176.792969 126.71875 176.792969 126.71875 C 176.792969 126.71875 176.792969 126.722656 176.792969 126.722656 C 176.789062 126.71875 176.792969 126.71875 176.792969 126.714844 Z M 199.054688 152.636719 C 199.054688 152.621094 199.058594 152.605469 199.058594 152.589844 C 199.058594 152.59375 199.0625 152.597656 199.0625 152.601562 C 199.0625 152.613281 199.066406 152.628906 199.066406 152.640625 C 199.0625 152.640625 199.058594 152.636719 199.054688 152.636719 Z M 198.453125 150.65625 C 198.453125 150.65625 198.453125 150.65625 198.457031 150.65625 C 198.460938 150.65625 198.464844 150.652344 198.472656 150.652344 L 198.488281 150.65625 L 198.453125 150.65625 C 198.453125 150.65625 198.453125 150.660156 198.453125 150.660156 C 198.453125 150.660156 198.453125 150.65625 198.453125 150.65625 Z M 199.117188 152.667969 C 199.097656 152.660156 199.082031 152.652344 199.066406 152.644531 C 199.066406 152.628906 199.066406 152.617188 199.0625 152.605469 C 199.070312 152.632812 199.085938 152.652344 199.117188 152.667969 Z M 199.058594 152.519531 C 199.058594 152.503906 199.054688 152.488281 199.054688 152.476562 C 199.058594 152.476562 199.058594 152.472656 199.058594 152.472656 C 199.058594 152.488281 199.058594 152.503906 199.058594 152.519531 Z M 199.097656 159.757812 C 199.097656 159.757812 199.097656 159.761719 199.097656 159.761719 C 199.097656 159.761719 199.097656 159.765625 199.097656 159.765625 C 199.097656 159.765625 199.097656 159.769531 199.09375 159.769531 C 199.09375 159.765625 199.097656 159.761719 199.097656 159.757812 Z M 199.167969 159.484375 C 199.171875 159.480469 199.171875 159.480469 199.171875 159.476562 C 199.167969 159.476562 199.167969 159.484375 199.167969 159.484375 Z M 198.652344 156.699219 C 198.664062 156.703125 198.679688 156.710938 198.695312 156.710938 C 198.6875 156.71875 198.683594 156.726562 198.679688 156.734375 C 198.671875 156.722656 198.660156 156.710938 198.652344 156.699219 Z M 198.558594 157.191406 C 198.558594 157.214844 198.550781 157.238281 198.539062 157.261719 C 198.539062 157.261719 198.539062 157.261719 198.535156 157.261719 C 198.546875 157.238281 198.558594 157.214844 198.558594 157.191406 Z M 198.558594 157.191406 " fill-opacity="1" fill-rule="nonzero"/></g></g></g></g><g clip-path="url(#ff108ba6c9)"><g clip-path="url(#2bebc4d0b4)"><g clip-path="url(#d85e5094fe)"><g clip-path="url(#c88c816656)"><path fill="#ffffff" d="M 198.640625 152.148438 C 198.636719 152.085938 198.628906 152.027344 198.625 151.964844 C 198.582031 152.035156 198.589844 152.09375 198.640625 152.148438 Z M 198.640625 152.148438 " fill-opacity="1" fill-rule="nonzero"/></g></g></g></g><path stroke-linecap="butt" transform="matrix(0.74987, 0.00605191, -0.00605275, 0.749976, 136.490312, 77.868153)" fill="none" stroke-linejoin="miter" d="M -0.00220213 1.998796 L 223.036362 2.001135 " stroke="#000000" stroke-width="4" stroke-opacity="1" stroke-miterlimit="4"/><path stroke-linecap="butt" transform="matrix(0.750617, -0.00364086, 0.00363783, 0.749991, 135.126205, 291.168315)" fill="none" stroke-linejoin="miter" d="M -0.000887993 1.999558 L 224.81428 2.002378 " stroke="#000000" stroke-width="4" stroke-opacity="1" stroke-miterlimit="4"/><g clip-path="url(#8cbcb5711c)"><path fill="#5ce1e6" d="M 294.695312 306.992188 L 286.203125 297.5 C 286.019531 297.296875 285.765625 297.183594 285.5 297.183594 L 279.835938 297.183594 C 279.464844 297.183594 279.128906 297.402344 278.972656 297.746094 C 278.824219 298.089844 278.886719 298.488281 279.136719 298.765625 L 287.058594 307.628906 L 279.136719 316.484375 C 278.886719 316.765625 278.820312 317.164062 278.972656 317.507812 C 279.128906 317.851562 279.464844 318.070312 279.835938 318.070312 L 285.5 318.070312 C 285.765625 318.070312 286.019531 317.953125 286.203125 317.757812 L 294.695312 308.261719 C 295.015625 307.902344 295.015625 307.351562 294.695312 306.992188 Z M 294.695312 306.992188 " fill-opacity="1" fill-rule="nonzero"/></g><g clip-path="url(#600701cc6e)"><path fill="#5ce1e6" d="M 282.425781 306.992188 L 273.933594 297.5 C 273.75 297.296875 273.5 297.183594 273.230469 297.183594 L 267.570312 297.183594 C 267.195312 297.183594 266.859375 297.402344 266.707031 297.746094 C 266.554688 298.089844 266.617188 298.488281 266.867188 298.765625 L 274.792969 307.628906 L 266.867188 316.484375 C 266.617188 316.765625 266.554688 317.164062 266.707031 317.507812 C 266.859375 317.851562 267.195312 318.070312 267.570312 318.070312 L 273.230469 318.070312 C 273.5 318.070312 273.75 317.953125 273.933594 317.757812 L 282.425781 308.261719 C 282.75 307.902344 282.75 307.351562 282.425781 306.992188 Z M 282.425781 306.992188 " fill-opacity="1" fill-rule="nonzero"/></g><g clip-path="url(#251ac0582f)"><path fill="#38b6ff" d="M 257.570312 306.992188 L 249.078125 297.5 C 248.894531 297.296875 248.640625 297.183594 248.375 297.183594 L 242.710938 297.183594 C 242.339844 297.183594 242.003906 297.402344 241.847656 297.746094 C 241.699219 298.089844 241.761719 298.488281 242.007812 298.765625 L 249.933594 307.628906 L 242.007812 316.484375 C 241.761719 316.765625 241.695312 317.164062 241.847656 317.507812 C 242.003906 317.851562 242.339844 318.070312 242.710938 318.070312 L 248.375 318.070312 C 248.640625 318.070312 248.894531 317.953125 249.078125 317.757812 L 257.570312 308.261719 C 257.890625 307.902344 257.890625 307.351562 257.570312 306.992188 Z M 257.570312 306.992188 " fill-opacity="1" fill-rule="nonzero"/></g><g clip-path="url(#f022b54e61)"><path fill="#38b6ff" d="M 245.300781 306.992188 L 236.808594 297.5 C 236.625 297.296875 236.375 297.183594 236.105469 297.183594 L 230.445312 297.183594 C 230.070312 297.183594 229.734375 297.402344 229.582031 297.746094 C 229.429688 298.089844 229.492188 298.488281 229.742188 298.765625 L 237.667969 307.628906 L 229.742188 316.484375 C 229.492188 316.765625 229.429688 317.164062 229.582031 317.507812 C 229.734375 317.851562 230.070312 318.070312 230.445312 318.070312 L 236.105469 318.070312 C 236.375 318.070312 236.625 317.953125 236.808594 317.757812 L 245.300781 308.261719 C 245.625 307.902344 245.625 307.351562 245.300781 306.992188 Z M 245.300781 306.992188 " fill-opacity="1" fill-rule="nonzero"/></g><g clip-path="url(#d2b4a51d91)"><path fill="#38b6ff" d="M 220.445312 306.992188 L 211.953125 297.5 C 211.769531 297.296875 211.515625 297.183594 211.25 297.183594 L 205.585938 297.183594 C 205.214844 297.183594 204.878906 297.402344 204.722656 297.746094 C 204.574219 298.089844 204.636719 298.488281 204.886719 298.765625 L 212.808594 307.628906 L 204.886719 316.484375 C 204.636719 316.765625 204.570312 317.164062 204.722656 317.507812 C 204.878906 317.851562 205.214844 318.070312 205.585938 318.070312 L 211.25 318.070312 C 211.515625 318.070312 211.769531 317.953125 211.953125 317.757812 L 220.445312 308.261719 C 220.765625 307.902344 220.765625 307.351562 220.445312 306.992188 Z M 220.445312 306.992188 " fill-opacity="1" fill-rule="nonzero"/></g><g clip-path="url(#22631b0e7d)"><path fill="#38b6ff" d="M 208.175781 306.992188 L 199.683594 297.5 C 199.5 297.296875 199.25 297.183594 198.980469 297.183594 L 193.320312 297.183594 C 192.945312 297.183594 192.609375 297.402344 192.457031 297.746094 C 192.304688 298.089844 192.367188 298.488281 192.617188 298.765625 L 200.542969 307.628906 L 192.617188 316.484375 C 192.367188 316.765625 192.304688 317.164062 192.457031 317.507812 C 192.609375 317.851562 192.945312 318.070312 193.320312 318.070312 L 198.980469 318.070312 C 199.25 318.070312 199.5 317.953125 199.683594 317.757812 L 208.175781 308.261719 C 208.5 307.902344 208.5 307.351562 208.175781 306.992188 Z M 208.175781 306.992188 " fill-opacity="1" fill-rule="nonzero"/></g><g clip-path="url(#cae6c481e1)"><path fill="#38b6ff" d="M 183.320312 306.992188 L 174.828125 297.5 C 174.644531 297.296875 174.390625 297.183594 174.125 297.183594 L 168.460938 297.183594 C 168.089844 297.183594 167.753906 297.402344 167.597656 297.746094 C 167.449219 298.089844 167.511719 298.488281 167.761719 298.765625 L 175.683594 307.628906 L 167.761719 316.484375 C 167.511719 316.765625 167.445312 317.164062 167.597656 317.507812 C 167.753906 317.851562 168.089844 318.070312 168.460938 318.070312 L 174.125 318.070312 C 174.390625 318.070312 174.644531 317.953125 174.828125 317.757812 L 183.320312 308.261719 C 183.640625 307.902344 183.640625 307.351562 183.320312 306.992188 Z M 183.320312 306.992188 " fill-opacity="1" fill-rule="nonzero"/></g><g clip-path="url(#ee9fa23397)"><path fill="#38b6ff" d="M 171.050781 306.992188 L 162.558594 297.5 C 162.375 297.296875 162.125 297.183594 161.855469 297.183594 L 156.195312 297.183594 C 155.820312 297.183594 155.484375 297.402344 155.332031 297.746094 C 155.179688 298.089844 155.242188 298.488281 155.492188 298.765625 L 163.417969 307.628906 L 155.492188 316.484375 C 155.242188 316.765625 155.179688 317.164062 155.332031 317.507812 C 155.484375 317.851562 155.820312 318.070312 156.195312 318.070312 L 161.855469 318.070312 C 162.125 318.070312 162.375 317.953125 162.558594 317.757812 L 171.050781 308.261719 C 171.375 307.902344 171.375 307.351562 171.050781 306.992188 Z M 171.050781 306.992188 " fill-opacity="1" fill-rule="nonzero"/></g><g clip-path="url(#f731781e9f)"><g clip-path="url(#90c2a317df)"><g clip-path="url(#1948a23d42)"><path fill="#5ce1e6" d="M 146.183594 306.746094 L 137.523438 297.402344 C 137.339844 297.207031 137.085938 297.097656 136.816406 297.101562 L 131.15625 297.199219 C 130.785156 297.207031 130.449219 297.433594 130.304688 297.777344 C 130.160156 298.125 130.226562 298.523438 130.480469 298.796875 L 138.5625 307.515625 L 130.792969 316.511719 C 130.550781 316.796875 130.492188 317.195312 130.652344 317.535156 C 130.8125 317.875 131.152344 318.089844 131.523438 318.085938 L 137.1875 317.984375 C 137.453125 317.980469 137.703125 317.859375 137.882812 317.660156 L 146.207031 308.015625 C 146.523438 307.648438 146.511719 307.097656 146.183594 306.746094 Z M 146.183594 306.746094 " fill-opacity="1" fill-rule="nonzero"/></g></g></g><g clip-path="url(#ae9dcea5d3)"><g clip-path="url(#47a52ea387)"><g clip-path="url(#64af169170)"><path fill="#5ce1e6" d="M 133.917969 306.960938 L 125.257812 297.621094 C 125.074219 297.421875 124.820312 297.3125 124.550781 297.316406 L 118.890625 297.417969 C 118.519531 297.425781 118.183594 297.648438 118.035156 297.996094 C 117.890625 298.339844 117.960938 298.742188 118.214844 299.011719 L 126.296875 307.730469 L 118.527344 316.726562 C 118.285156 317.011719 118.226562 317.414062 118.386719 317.753906 C 118.546875 318.09375 118.886719 318.308594 119.257812 318.300781 L 124.921875 318.199219 C 125.1875 318.195312 125.4375 318.074219 125.617188 317.875 L 133.941406 308.234375 C 134.257812 307.867188 134.246094 307.316406 133.917969 306.960938 Z M 133.917969 306.960938 " fill-opacity="1" fill-rule="nonzero"/></g></g></g><g clip-path="url(#9dba4ed85a)"><g clip-path="url(#751e622895)"><g clip-path="url(#646389e400)"><path fill="#38b6ff" d="M 99.40625 301.191406 L 97.382812 288.617188 C 97.335938 288.347656 97.1875 288.117188 96.960938 287.972656 L 92.195312 284.914062 C 91.882812 284.714844 91.476562 284.714844 91.164062 284.921875 C 90.851562 285.128906 90.6875 285.5 90.75 285.867188 L 92.636719 297.605469 L 81.183594 300.78125 C 80.824219 300.882812 80.550781 301.183594 80.496094 301.554688 C 80.441406 301.925781 80.605469 302.296875 80.917969 302.496094 L 85.683594 305.554688 C 85.910156 305.699219 86.183594 305.738281 86.445312 305.667969 L 98.71875 302.261719 C 99.1875 302.132812 99.484375 301.667969 99.40625 301.191406 Z M 99.40625 301.191406 " fill-opacity="1" fill-rule="nonzero"/></g></g></g><g clip-path="url(#c630bc537a)"><g clip-path="url(#3e09eb45a0)"><g clip-path="url(#3f21afe26f)"><path fill="#38b6ff" d="M 89.078125 294.570312 L 87.054688 281.992188 C 87.011719 281.726562 86.859375 281.492188 86.632812 281.347656 L 81.867188 278.292969 C 81.554688 278.089844 81.152344 278.09375 80.839844 278.296875 C 80.527344 278.507812 80.363281 278.878906 80.421875 279.246094 L 82.308594 290.980469 L 70.855469 294.160156 C 70.496094 294.257812 70.226562 294.5625 70.167969 294.933594 C 70.113281 295.304688 70.277344 295.671875 70.589844 295.871094 L 75.359375 298.929688 C 75.582031 299.074219 75.859375 299.113281 76.117188 299.042969 L 88.394531 295.636719 C 88.859375 295.507812 89.15625 295.046875 89.078125 294.570312 Z M 89.078125 294.570312 " fill-opacity="1" fill-rule="nonzero"/></g></g></g><g clip-path="url(#ee6cb4e583)"><g clip-path="url(#63d0b13c7e)"><g clip-path="url(#8f91a139ea)"><path fill="#38b6ff" d="M 61.433594 282.320312 L 61.902344 269.589844 C 61.910156 269.316406 61.808594 269.0625 61.613281 268.875 L 57.535156 264.945312 C 57.269531 264.6875 56.871094 264.613281 56.523438 264.753906 C 56.175781 264.894531 55.945312 265.226562 55.929688 265.601562 L 55.492188 277.480469 L 43.640625 278.363281 C 43.265625 278.390625 42.941406 278.632812 42.816406 278.988281 C 42.6875 279.339844 42.777344 279.734375 43.046875 279.992188 L 47.125 283.917969 C 47.316406 284.105469 47.582031 284.195312 47.847656 284.179688 L 60.550781 283.234375 C 61.035156 283.199219 61.414062 282.800781 61.433594 282.320312 Z M 61.433594 282.320312 " fill-opacity="1" fill-rule="nonzero"/></g></g></g><g clip-path="url(#ca0f7b36bc)"><g clip-path="url(#13860614a1)"><g clip-path="url(#661fcda69c)"><path fill="#38b6ff" d="M 52.597656 273.808594 L 53.066406 261.078125 C 53.074219 260.808594 52.96875 260.550781 52.777344 260.363281 L 48.699219 256.4375 C 48.429688 256.179688 48.035156 256.101562 47.6875 256.242188 C 47.339844 256.386719 47.109375 256.71875 47.09375 257.089844 L 46.65625 268.96875 L 34.804688 269.851562 C 34.429688 269.878906 34.105469 270.125 33.980469 270.476562 C 33.851562 270.828125 33.941406 271.222656 34.210938 271.480469 L 38.289062 275.410156 C 38.480469 275.59375 38.742188 275.6875 39.011719 275.671875 L 51.714844 274.722656 C 52.199219 274.6875 52.578125 274.289062 52.597656 273.808594 Z M 52.597656 273.808594 " fill-opacity="1" fill-rule="nonzero"/></g></g></g><g clip-path="url(#7a126dc03d)"><g clip-path="url(#f7372df584)"><g clip-path="url(#e2223d0963)"><path fill="#38b6ff" d="M 36.792969 250.25 L 40.734375 238.136719 C 40.816406 237.878906 40.789062 237.601562 40.652344 237.371094 L 37.808594 232.476562 C 37.621094 232.152344 37.261719 231.972656 36.890625 232.011719 C 36.515625 232.054688 36.199219 232.308594 36.085938 232.664062 L 32.410156 243.96875 L 20.769531 241.570312 C 20.402344 241.492188 20.023438 241.640625 19.804688 241.945312 C 19.585938 242.25 19.5625 242.652344 19.75 242.972656 L 22.597656 247.867188 C 22.730469 248.097656 22.957031 248.261719 23.21875 248.316406 L 35.695312 250.890625 C 36.171875 250.988281 36.648438 250.710938 36.792969 250.25 Z M 36.792969 250.25 " fill-opacity="1" fill-rule="nonzero"/></g></g></g><g clip-path="url(#8961418deb)"><g clip-path="url(#78c78a55d0)"><g clip-path="url(#d41f4eb601)"><path fill="#38b6ff" d="M 30.628906 239.644531 L 34.570312 227.53125 C 34.652344 227.273438 34.625 226.996094 34.488281 226.765625 L 31.644531 221.871094 C 31.457031 221.546875 31.097656 221.367188 30.722656 221.40625 C 30.351562 221.449219 30.035156 221.703125 29.921875 222.058594 L 26.246094 233.363281 L 14.601562 230.960938 C 14.238281 230.886719 13.859375 231.03125 13.640625 231.335938 C 13.417969 231.640625 13.398438 232.042969 13.585938 232.367188 L 16.429688 237.261719 C 16.566406 237.492188 16.792969 237.652344 17.054688 237.710938 L 29.53125 240.28125 C 30.003906 240.378906 30.480469 240.105469 30.628906 239.644531 Z M 30.628906 239.644531 " fill-opacity="1" fill-rule="nonzero"/></g></g></g><g clip-path="url(#0e1b1c7d1b)"><path fill="#5ce1e6" d="M 20.015625 200.003906 L 29.507812 191.511719 C 29.710938 191.332031 29.824219 191.078125 29.824219 190.808594 L 29.824219 185.148438 C 29.824219 184.777344 29.605469 184.4375 29.261719 184.285156 C 28.917969 184.132812 28.515625 184.195312 28.242188 184.445312 L 19.378906 192.371094 L 10.523438 184.445312 C 10.242188 184.195312 9.84375 184.132812 9.5 184.285156 C 9.15625 184.4375 8.9375 184.777344 8.9375 185.148438 L 8.9375 190.808594 C 8.9375 191.078125 9.050781 191.332031 9.25 191.511719 L 18.746094 200.003906 C 19.105469 200.328125 19.65625 200.328125 20.015625 200.003906 Z M 20.015625 200.003906 " fill-opacity="1" fill-rule="nonzero"/></g><g clip-path="url(#c294715854)"><path fill="#5ce1e6" d="M 20.015625 187.738281 L 29.507812 179.242188 C 29.710938 179.0625 29.824219 178.808594 29.824219 178.542969 L 29.824219 172.878906 C 29.824219 172.507812 29.605469 172.171875 29.261719 172.015625 C 28.917969 171.867188 28.515625 171.929688 28.242188 172.175781 L 19.378906 180.101562 L 10.523438 172.175781 C 10.242188 171.929688 9.84375 171.863281 9.5 172.015625 C 9.15625 172.171875 8.9375 172.507812 8.9375 172.878906 L 8.9375 178.542969 C 8.9375 178.808594 9.050781 179.0625 9.25 179.242188 L 18.746094 187.738281 C 19.105469 188.058594 19.65625 188.058594 20.015625 187.738281 Z M 20.015625 187.738281 " fill-opacity="1" fill-rule="nonzero"/></g><g clip-path="url(#3afe6bbaa3)"><g clip-path="url(#7421d241d2)"><g clip-path="url(#7a1edee1e7)"><path fill="#38b6ff" d="M 22.28125 145.097656 L 34.921875 143.527344 C 35.191406 143.492188 35.429688 143.347656 35.582031 143.128906 L 38.808594 138.476562 C 39.019531 138.167969 39.03125 137.765625 38.835938 137.445312 C 38.640625 137.125 38.273438 136.949219 37.90625 136.996094 L 26.109375 138.460938 L 23.34375 126.902344 C 23.253906 126.539062 22.960938 126.257812 22.59375 126.191406 C 22.226562 126.121094 21.851562 126.273438 21.640625 126.578125 L 18.414062 131.230469 C 18.261719 131.453125 18.210938 131.726562 18.273438 131.988281 L 21.238281 144.375 C 21.351562 144.847656 21.800781 145.160156 22.28125 145.097656 Z M 22.28125 145.097656 " fill-opacity="1" fill-rule="nonzero"/></g></g></g><g clip-path="url(#464ef994e4)"><g clip-path="url(#b1a0b2f089)"><g clip-path="url(#0b3585929b)"><path fill="#38b6ff" d="M 29.269531 135.015625 L 41.910156 133.441406 C 42.179688 133.410156 42.417969 133.265625 42.570312 133.046875 L 45.792969 128.390625 C 46.007812 128.085938 46.019531 127.683594 45.824219 127.363281 C 45.628906 127.042969 45.261719 126.867188 44.894531 126.914062 L 33.097656 128.378906 L 30.332031 116.820312 C 30.242188 116.457031 29.949219 116.175781 29.582031 116.105469 C 29.210938 116.035156 28.839844 116.1875 28.628906 116.492188 L 25.402344 121.148438 C 25.25 121.367188 25.199219 121.640625 25.261719 121.902344 L 28.226562 134.292969 C 28.335938 134.761719 28.789062 135.078125 29.269531 135.015625 Z M 29.269531 135.015625 " fill-opacity="1" fill-rule="nonzero"/></g></g></g><g clip-path="url(#e22dc61896)"><g clip-path="url(#2d56d7c0af)"><g clip-path="url(#16bad15b58)"><path fill="#38b6ff" d="M 45.109375 108.90625 L 57.78125 110.222656 C 58.050781 110.25 58.3125 110.164062 58.511719 109.984375 L 62.703125 106.175781 C 62.976562 105.925781 63.078125 105.535156 62.960938 105.179688 C 62.84375 104.824219 62.527344 104.570312 62.15625 104.53125 L 50.332031 103.304688 L 50.242188 91.417969 C 50.238281 91.042969 50.015625 90.703125 49.675781 90.554688 C 49.332031 90.402344 48.933594 90.46875 48.65625 90.71875 L 44.464844 94.523438 C 44.265625 94.703125 44.160156 94.960938 44.15625 95.230469 L 44.253906 107.96875 C 44.257812 108.449219 44.628906 108.859375 45.109375 108.90625 Z M 45.109375 108.90625 " fill-opacity="1" fill-rule="nonzero"/></g></g></g><g clip-path="url(#9223eac85b)"><g clip-path="url(#50273cb0ca)"><g clip-path="url(#dbcfd516dd)"><path fill="#38b6ff" d="M 54.1875 100.65625 L 66.859375 101.972656 C 67.128906 102 67.394531 101.914062 67.589844 101.734375 L 71.78125 97.925781 C 72.058594 97.675781 72.160156 97.285156 72.042969 96.929688 C 71.921875 96.574219 71.609375 96.320312 71.238281 96.28125 L 59.414062 95.054688 L 59.324219 83.167969 C 59.320312 82.792969 59.097656 82.453125 58.753906 82.304688 C 58.410156 82.152344 58.011719 82.21875 57.738281 82.46875 L 53.546875 86.273438 C 53.347656 86.457031 53.238281 86.710938 53.238281 86.980469 L 53.335938 99.71875 C 53.339844 100.203125 53.710938 100.609375 54.1875 100.65625 Z M 54.1875 100.65625 " fill-opacity="1" fill-rule="nonzero"/></g></g></g><g clip-path="url(#380b249e09)"><g clip-path="url(#3b65760673)"><g clip-path="url(#878e0e92eb)"><path fill="#38b6ff" d="M 75.378906 84.589844 L 87.1875 89.363281 C 87.441406 89.460938 87.71875 89.453125 87.957031 89.335938 L 93.039062 86.835938 C 93.371094 86.671875 93.578125 86.328125 93.566406 85.953125 C 93.550781 85.578125 93.316406 85.246094 92.96875 85.105469 L 81.949219 80.652344 L 85.152344 69.207031 C 85.253906 68.84375 85.136719 68.457031 84.847656 68.21875 C 84.558594 67.976562 84.160156 67.929688 83.824219 68.09375 L 78.742188 70.589844 C 78.503906 70.707031 78.328125 70.925781 78.25 71.179688 L 74.816406 83.449219 C 74.6875 83.914062 74.929688 84.410156 75.378906 84.589844 Z M 75.378906 84.589844 " fill-opacity="1" fill-rule="nonzero"/></g></g></g><g clip-path="url(#ad0edbaefd)"><g clip-path="url(#63b417b6e7)"><g clip-path="url(#4acf681bc1)"><path fill="#38b6ff" d="M 86.386719 79.175781 L 98.199219 83.949219 C 98.449219 84.050781 98.726562 84.042969 98.96875 83.921875 L 104.050781 81.425781 C 104.382812 81.261719 104.589844 80.914062 104.574219 80.539062 C 104.558594 80.164062 104.328125 79.832031 103.980469 79.695312 L 92.960938 75.238281 L 96.164062 63.792969 C 96.265625 63.433594 96.144531 63.046875 95.859375 62.804688 C 95.570312 62.566406 95.167969 62.515625 94.835938 62.679688 L 89.753906 65.179688 C 89.511719 65.296875 89.335938 65.511719 89.261719 65.769531 L 85.828125 78.035156 C 85.695312 78.503906 85.941406 78.996094 86.386719 79.175781 Z M 86.386719 79.175781 " fill-opacity="1" fill-rule="nonzero"/></g></g></g><g clip-path="url(#3659a12db6)"><path fill="#5ce1e6" d="M 118.214844 68.148438 L 126.707031 77.640625 C 126.890625 77.84375 127.144531 77.957031 127.410156 77.957031 L 133.074219 77.957031 C 133.445312 77.957031 133.78125 77.738281 133.9375 77.394531 C 134.085938 77.050781 134.023438 76.652344 133.773438 76.375 L 125.851562 67.511719 L 133.773438 58.65625 C 134.023438 58.375 134.089844 57.976562 133.9375 57.632812 C 133.78125 57.289062 133.445312 57.070312 133.074219 57.070312 L 127.410156 57.070312 C 127.144531 57.070312 126.890625 57.1875 126.707031 57.382812 L 118.214844 66.878906 C 117.894531 67.238281 117.894531 67.789062 118.214844 68.148438 Z M 118.214844 68.148438 " fill-opacity="1" fill-rule="nonzero"/></g><g clip-path="url(#d73c138e2a)"><path fill="#5ce1e6" d="M 130.484375 68.148438 L 138.976562 77.640625 C 139.160156 77.84375 139.410156 77.957031 139.679688 77.957031 L 145.339844 77.957031 C 145.714844 77.957031 146.050781 77.738281 146.203125 77.394531 C 146.355469 77.050781 146.292969 76.652344 146.042969 76.375 L 138.117188 67.511719 L 146.042969 58.65625 C 146.292969 58.375 146.355469 57.976562 146.203125 57.632812 C 146.050781 57.289062 145.714844 57.070312 145.339844 57.070312 L 139.679688 57.070312 C 139.410156 57.070312 139.160156 57.1875 138.976562 57.382812 L 130.484375 66.878906 C 130.160156 67.238281 130.160156 67.789062 130.484375 68.148438 Z M 130.484375 68.148438 " fill-opacity="1" fill-rule="nonzero"/></g><g clip-path="url(#b668717c95)"><g clip-path="url(#a922905dbe)"><g clip-path="url(#74ca4b6f39)"><path fill="#38b6ff" d="M 154.75 67.308594 L 162.957031 77.050781 C 163.128906 77.257812 163.378906 77.378906 163.648438 77.390625 L 169.308594 77.558594 C 169.679688 77.570312 170.023438 77.359375 170.1875 77.023438 C 170.347656 76.683594 170.296875 76.28125 170.058594 75.996094 L 162.402344 66.902344 L 170.589844 58.289062 C 170.847656 58.015625 170.925781 57.617188 170.78125 57.269531 C 170.640625 56.921875 170.308594 56.691406 169.9375 56.683594 L 164.277344 56.511719 C 164.007812 56.503906 163.753906 56.613281 163.566406 56.804688 L 154.789062 66.039062 C 154.457031 66.386719 154.441406 66.9375 154.75 67.308594 Z M 154.75 67.308594 " fill-opacity="1" fill-rule="nonzero"/></g></g></g><g clip-path="url(#694fee335f)"><g clip-path="url(#c3bb91d3a0)"><g clip-path="url(#5c06630a12)"><path fill="#38b6ff" d="M 167.015625 67.675781 L 175.21875 77.421875 C 175.394531 77.628906 175.640625 77.75 175.910156 77.757812 L 181.570312 77.929688 C 181.941406 77.941406 182.285156 77.730469 182.449219 77.394531 C 182.609375 77.054688 182.558594 76.652344 182.320312 76.367188 L 174.664062 67.273438 L 182.851562 58.65625 C 183.109375 58.386719 183.1875 57.988281 183.042969 57.640625 C 182.902344 57.292969 182.570312 57.0625 182.199219 57.050781 L 176.539062 56.878906 C 176.269531 56.871094 176.015625 56.980469 175.828125 57.171875 L 167.050781 66.40625 C 166.71875 66.757812 166.703125 67.308594 167.015625 67.675781 Z M 167.015625 67.675781 " fill-opacity="1" fill-rule="nonzero"/></g></g></g><g clip-path="url(#22d723bc10)"><g clip-path="url(#8d4b1b67ea)"><g clip-path="url(#ef3612a2d3)"><path fill="#5ce1e6" d="M 266.402344 67.308594 L 274.609375 77.050781 C 274.78125 77.257812 275.03125 77.378906 275.300781 77.390625 L 280.960938 77.558594 C 281.332031 77.570312 281.675781 77.359375 281.839844 77.023438 C 282 76.683594 281.949219 76.28125 281.710938 75.996094 L 274.054688 66.902344 L 282.242188 58.289062 C 282.5 58.015625 282.578125 57.617188 282.433594 57.269531 C 282.292969 56.921875 281.960938 56.691406 281.589844 56.683594 L 275.929688 56.511719 C 275.660156 56.503906 275.40625 56.613281 275.21875 56.804688 L 266.441406 66.039062 C 266.109375 66.386719 266.09375 66.9375 266.402344 67.308594 Z M 266.402344 67.308594 " fill-opacity="1" fill-rule="nonzero"/></g></g></g><g clip-path="url(#2458ef10be)"><g clip-path="url(#a9d943569f)"><g clip-path="url(#dce7f80146)"><path fill="#5ce1e6" d="M 278.667969 67.675781 L 286.871094 77.421875 C 287.046875 77.628906 287.292969 77.75 287.5625 77.757812 L 293.222656 77.929688 C 293.59375 77.941406 293.9375 77.730469 294.101562 77.394531 C 294.261719 77.054688 294.210938 76.652344 293.972656 76.367188 L 286.316406 67.273438 L 294.503906 58.65625 C 294.761719 58.386719 294.839844 57.988281 294.695312 57.640625 C 294.554688 57.292969 294.222656 57.0625 293.851562 57.050781 L 288.191406 56.878906 C 287.921875 56.871094 287.667969 56.980469 287.480469 57.171875 L 278.703125 66.40625 C 278.371094 66.757812 278.355469 67.308594 278.667969 67.675781 Z M 278.667969 67.675781 " fill-opacity="1" fill-rule="nonzero"/></g></g></g><g clip-path="url(#49766f7738)"><g clip-path="url(#5e4001afb7)"><g clip-path="url(#dd6bc5fa64)"><path fill="#38b6ff" d="M 229.277344 67.308594 L 237.484375 77.050781 C 237.65625 77.257812 237.90625 77.378906 238.175781 77.390625 L 243.835938 77.558594 C 244.207031 77.570312 244.550781 77.359375 244.714844 77.023438 C 244.875 76.683594 244.824219 76.28125 244.585938 75.996094 L 236.929688 66.902344 L 245.117188 58.289062 C 245.375 58.015625 245.453125 57.617188 245.308594 57.269531 C 245.167969 56.921875 244.835938 56.691406 244.464844 56.683594 L 238.804688 56.511719 C 238.535156 56.503906 238.28125 56.613281 238.09375 56.804688 L 229.316406 66.039062 C 228.984375 66.386719 228.96875 66.9375 229.277344 67.308594 Z M 229.277344 67.308594 " fill-opacity="1" fill-rule="nonzero"/></g></g></g><g clip-path="url(#e167b72a93)"><g clip-path="url(#c2277ccd39)"><g clip-path="url(#f3645fe74d)"><path fill="#38b6ff" d="M 241.542969 67.675781 L 249.746094 77.421875 C 249.921875 77.628906 250.167969 77.75 250.4375 77.757812 L 256.097656 77.929688 C 256.46875 77.941406 256.8125 77.730469 256.976562 77.394531 C 257.136719 77.054688 257.085938 76.652344 256.847656 76.367188 L 249.191406 67.273438 L 257.378906 58.65625 C 257.636719 58.386719 257.714844 57.988281 257.570312 57.640625 C 257.429688 57.292969 257.097656 57.0625 256.726562 57.050781 L 251.066406 56.878906 C 250.796875 56.871094 250.542969 56.980469 250.355469 57.171875 L 241.578125 66.40625 C 241.246094 66.757812 241.230469 67.308594 241.542969 67.675781 Z M 241.542969 67.675781 " fill-opacity="1" fill-rule="nonzero"/></g></g></g><g clip-path="url(#195809e29a)"><g clip-path="url(#c660e29e78)"><g clip-path="url(#e88cd2a09b)"><path fill="#38b6ff" d="M 192.761719 67.308594 L 200.964844 77.050781 C 201.140625 77.257812 201.390625 77.378906 201.660156 77.390625 L 207.316406 77.558594 C 207.691406 77.570312 208.035156 77.359375 208.199219 77.023438 C 208.359375 76.683594 208.308594 76.28125 208.066406 75.996094 L 200.414062 66.902344 L 208.601562 58.289062 C 208.859375 58.015625 208.933594 57.617188 208.792969 57.269531 C 208.648438 56.921875 208.320312 56.691406 207.945312 56.683594 L 202.289062 56.511719 C 202.019531 56.503906 201.761719 56.613281 201.574219 56.804688 L 192.800781 66.039062 C 192.46875 66.386719 192.449219 66.9375 192.761719 67.308594 Z M 192.761719 67.308594 " fill-opacity="1" fill-rule="nonzero"/></g></g></g><g clip-path="url(#52fe0b0165)"><g clip-path="url(#74b1099bd3)"><g clip-path="url(#66e0ab038a)"><path fill="#38b6ff" d="M 205.023438 67.675781 L 213.230469 77.421875 C 213.402344 77.628906 213.652344 77.75 213.921875 77.757812 L 219.582031 77.929688 C 219.953125 77.941406 220.296875 77.730469 220.460938 77.394531 C 220.621094 77.054688 220.570312 76.652344 220.332031 76.367188 L 212.675781 67.273438 L 220.863281 58.65625 C 221.121094 58.386719 221.199219 57.988281 221.054688 57.640625 C 220.914062 57.292969 220.582031 57.0625 220.210938 57.050781 L 214.550781 56.878906 C 214.28125 56.871094 214.027344 56.980469 213.839844 57.171875 L 205.0625 66.40625 C 204.730469 66.757812 204.714844 67.308594 205.023438 67.675781 Z M 205.023438 67.675781 " fill-opacity="1" fill-rule="nonzero"/></g></g></g></svg>