<svg xmlns="http://www.w3.org/2000/svg" width="450" viewBox="0 0 337.5 375" height="500" version="1.0"><defs><clipPath id="prefix__a"><path d="M0 52.777h303.75V323H0zm0 0"/></clipPath><clipPath id="prefix__b"><path d="M7.918 142.824C3.137 156.668 0 172.406 0 187.852c0 15.445 2.688 30.304 7.469 44.003.152.29.152.583.3.875 19.122 51.434 69.622 89.32 127.887 90.047H303.75v-270H135.781c-58.687.73-109.187 38.032-127.863 90.047"/></clipPath><clipPath id="prefix__c"><path d="M0 52.777h303.75v270H0zm0 0"/></clipPath><clipPath id="prefix__d"><path d="M7.918 142.824C3.137 156.668 0 172.406 0 187.852c0 15.445 2.688 30.304 7.469 44.003.152.29.152.583.3.875 19.122 51.434 69.622 89.32 127.887 90.047H303.75v-270H135.781c-58.687.73-109.187 38.032-127.863 90.047"/></clipPath><clipPath id="prefix__e"><path d="M34 77h217v217H34zm0 0"/></clipPath><clipPath id="prefix__f"><path d="M216.5 319.523L8.77 259.281 69.012 51.555l207.73 60.242zm0 0"/></clipPath><clipPath id="prefix__g"><path d="M112.773 289.445c57.286 16.614 117.196-16.36 133.809-73.648 16.613-57.285-16.36-117.192-73.648-133.805-57.286-16.613-117.192 16.36-133.805 73.645-16.613 57.285 16.36 117.195 73.644 133.808"/></clipPath><clipPath id="prefix__h"><path d="M34 77h217v217H34zm0 0"/></clipPath><clipPath id="prefix__i"><path d="M216.5 319.523L9.047 259.363 69.207 51.91l207.453 60.16zm0 0"/></clipPath><clipPath id="prefix__j"><path d="M216.5 319.523L6.113 258.512 67.125 48.125l210.387 61.012zm0 0"/></clipPath><clipPath id="prefix__k"><path d="M112.773 289.445c57.286 16.614 117.196-16.36 133.809-73.648 16.613-57.285-16.36-117.192-73.648-133.805-57.286-16.613-117.192 16.36-133.805 73.645-16.613 57.285 16.36 117.195 73.644 133.808"/></clipPath><clipPath id="prefix__l"><path d="M118 217h26v37h-26zm0 0"/></clipPath><clipPath id="prefix__m"><path d="M135.852 253.14l-17.567-4.62 8.117-30.875 17.567 4.62zm0 0"/></clipPath><clipPath id="prefix__n"><path d="M135.852 253.14l-17.184-4.519 8.066-30.684 17.184 4.516zm0 0"/></clipPath><clipPath id="prefix__o"><path d="M91 136h36v36H91zm0 0"/></clipPath><clipPath id="prefix__p"><path d="M126.887 158.926l-12.926 12.762-22.43-22.715 12.922-12.762zm0 0"/></clipPath><clipPath id="prefix__q"><path d="M126.887 158.926l-12.64 12.484-22.298-22.578 12.645-12.484zm0 0"/></clipPath><clipPath id="prefix__r"><path d="M109 153h83v83h-83zm0 0"/></clipPath><clipPath id="prefix__s"><path d="M180.191 134.914l22.063 82.293-71.465 19.156-22.062-82.293zm0 0"/></clipPath><clipPath id="prefix__t"><path d="M191.137 175.746l-59.828 59.8-21.891-81.66 81.719 21.86"/></clipPath><clipPath id="prefix__u"><path d="M165 165h37v26h-37zm0 0"/></clipPath><clipPath id="prefix__v"><path d="M196.465 165.117l4.703 17.543-30.836 8.266-4.703-17.543zm0 0"/></clipPath><clipPath id="prefix__w"><path d="M196.465 165.117l4.597 17.16-30.644 8.215-4.602-17.16zm0 0"/></clipPath><clipPath id="prefix__x"><path d="M190 140h57v57h-57zm0 0"/></clipPath><clipPath id="prefix__y"><path d="M185.016 147.938l54.043-13.16 13.16 54.042-54.043 13.16zm0 0"/></clipPath><clipPath id="prefix__z"><path d="M212.04 141.355c-14.927 3.637-24.08 18.68-20.442 33.602 3.632 14.926 18.675 24.078 33.601 20.441 14.922-3.632 24.074-18.68 20.442-33.601-3.637-14.922-18.68-24.074-33.602-20.442"/></clipPath><clipPath id="prefix__A"><path d="M190 140h57v57h-57zm0 0"/></clipPath><clipPath id="prefix__B"><path d="M185.016 147.938l53.925-13.133 13.133 53.925-53.926 13.13zm0 0"/></clipPath><clipPath id="prefix__C"><path d="M185.016 147.938l53.925-13.133 13.133 53.925-53.926 13.13zm0 0"/></clipPath><clipPath id="prefix__D"><path d="M211.977 141.371c-14.891 3.625-24.02 18.637-20.395 33.527 3.625 14.891 18.637 24.024 33.527 20.395 14.891-3.625 24.024-18.637 20.399-33.527-3.63-14.891-18.637-24.02-33.531-20.395"/></clipPath><clipPath id="prefix__E"><path d="M60 104h57v57H60zm0 0"/></clipPath><clipPath id="prefix__F"><path d="M88.234 93.348l39.32 39.34-39.34 39.32-39.32-39.344zm0 0"/></clipPath><clipPath id="prefix__G"><path d="M107.895 113.016c-10.856-10.864-28.465-10.868-39.329-.012-10.867 10.86-10.87 28.469-.011 39.332 10.855 10.863 28.465 10.871 39.332.012 10.863-10.86 10.867-28.47.008-39.332"/></clipPath><clipPath id="prefix__H"><path d="M60 104h56v57H60zm0 0"/></clipPath><clipPath id="prefix__I"><path d="M88.234 93.348l39.235 39.254-39.254 39.234-39.235-39.258zm0 0"/></clipPath><clipPath id="prefix__J"><path d="M88.234 93.348l39.235 39.254-39.254 39.234-39.235-39.258zm0 0"/></clipPath><clipPath id="prefix__K"><path d="M107.852 112.973c-10.832-10.84-28.403-10.844-39.243-.012-10.84 10.836-10.847 28.406-.011 39.246 10.832 10.84 28.402 10.844 39.242.012 10.844-10.836 10.847-28.406.012-39.246"/></clipPath><clipPath id="prefix__L"><path d="M96 232h57v57H96zm0 0"/></clipPath><clipPath id="prefix__M"><path d="M90.852 240.016l54.043-13.16 13.16 54.042-54.043 13.16zm0 0"/></clipPath><clipPath id="prefix__N"><path d="M117.871 233.434c-14.922 3.636-24.074 18.68-20.441 33.605 3.636 14.922 18.68 24.074 33.605 20.438 14.922-3.633 24.074-18.676 20.438-33.602-3.633-14.922-18.676-24.074-33.602-20.441"/></clipPath><clipPath id="prefix__O"><path d="M96 232h57v57H96zm0 0"/></clipPath><clipPath id="prefix__P"><path d="M90.852 240.016l53.921-13.133 13.133 53.926-53.922 13.132zm0 0"/></clipPath><clipPath id="prefix__Q"><path d="M90.852 240.016l53.921-13.133 13.133 53.926-53.922 13.132zm0 0"/></clipPath><clipPath id="prefix__R"><path d="M117.813 233.45c-14.891 3.624-24.024 18.636-20.395 33.527 3.625 14.89 18.637 24.023 33.527 20.398 14.89-3.629 24.024-18.637 20.395-33.531-3.625-14.89-18.637-24.02-33.528-20.395"/></clipPath><clipPath id="prefix__S"><path d="M211 161h15v15h-15zm0 0"/></clipPath><clipPath id="prefix__T"><path d="M223.55 159.828l3.614 13.48-13.484 3.618-3.614-13.485zm0 0"/></clipPath><clipPath id="prefix__U"><path d="M225.355 166.566a6.979 6.979 0 00-8.546-4.933 6.984 6.984 0 00-4.938 8.55 6.98 6.98 0 1013.484-3.617"/></clipPath><clipPath id="prefix__V"><path d="M81 125h15v15H81zm0 0"/></clipPath><clipPath id="prefix__W"><path d="M98.094 132.676l-9.875 9.867-9.867-9.875 9.875-9.867zm0 0"/></clipPath><clipPath id="prefix__X"><path d="M93.156 137.61a6.979 6.979 0 00.004-9.872 6.979 6.979 0 00-9.87-.004 6.982 6.982 0 00-.005 9.871 6.982 6.982 0 009.871.004"/></clipPath><clipPath id="prefix__Y"><path d="M118 253h15v15h-15zm0 0"/></clipPath><clipPath id="prefix__Z"><path d="M130.39 252.152l3.618 13.485-13.485 3.613-3.613-13.48zm0 0"/></clipPath><clipPath id="prefix__aa"><path d="M132.2 258.895a6.979 6.979 0 00-8.548-4.934 6.982 6.982 0 00-4.937 8.55 6.981 6.981 0 0013.484-3.617"/></clipPath><clipPath id="prefix__ab"><path d="M169 214h36v35h-36zm0 0"/></clipPath><clipPath id="prefix__ac"><path d="M168.543 247.938l30.332-36.231 10.352 8.664-30.332 36.23zm0 0"/></clipPath><clipPath id="prefix__ad"><path d="M168.543 247.938l30.332-36.231 10.352 8.664-30.332 36.23zm0 0"/></clipPath><clipPath id="prefix__ae"><path d="M168.543 247.938l30.332-36.231 10.352 8.664-30.332 36.23zm0 0"/></clipPath><clipPath id="prefix__af"><path d="M177 246h2v1h-2zm0 0"/></clipPath><clipPath id="prefix__ag"><path d="M168.543 247.938l30.332-36.231 10.352 8.664-30.332 36.23zm0 0"/></clipPath><clipPath id="prefix__ah"><path d="M168.543 247.938l30.332-36.231 10.352 8.664-30.332 36.23zm0 0"/></clipPath><clipPath id="prefix__ai"><path d="M168.543 247.938l30.332-36.231 10.352 8.664-30.332 36.23zm0 0"/></clipPath><clipPath id="prefix__aj"><path d="M71 181h18v48H71zm0 0"/></clipPath><clipPath id="prefix__ak"><path d="M79.465 181.46l12.168 45.657-13.043 3.477-12.168-45.656zm0 0"/></clipPath><clipPath id="prefix__al"><path d="M79.465 181.46l12.168 45.657-13.043 3.477-12.168-45.656zm0 0"/></clipPath><clipPath id="prefix__am"><path d="M79.465 181.46l12.168 45.657-13.043 3.477-12.168-45.656zm0 0"/></clipPath><clipPath id="prefix__an"><path d="M75 189h1v2h-1zm0 0"/></clipPath><clipPath id="prefix__ao"><path d="M79.465 181.46l12.168 45.657-13.043 3.477-12.168-45.656zm0 0"/></clipPath><clipPath id="prefix__ap"><path d="M79.465 181.46l12.168 45.657-13.043 3.477-12.168-45.656zm0 0"/></clipPath><clipPath id="prefix__aq"><path d="M79.465 181.46l12.168 45.657-13.043 3.477-12.168-45.656zm0 0"/></clipPath><clipPath id="prefix__ar"><path d="M136 111h44v26h-44zm0 0"/></clipPath><clipPath id="prefix__as"><path d="M179.21 137.04l-44.448-16.024 4.578-12.7 44.45 16.024zm0 0"/></clipPath><clipPath id="prefix__at"><path d="M179.21 137.04l-44.448-16.024 4.578-12.7 44.45 16.024zm0 0"/></clipPath><clipPath id="prefix__au"><path d="M179.21 137.04l-44.448-16.024 4.578-12.7 44.45 16.024zm0 0"/></clipPath><clipPath id="prefix__av"><path d="M174 128h1v1h-1zm0 0"/></clipPath><clipPath id="prefix__aw"><path d="M179.21 137.04l-44.448-16.024 4.578-12.7 44.45 16.024zm0 0"/></clipPath><clipPath id="prefix__ax"><path d="M179.21 137.04l-44.448-16.024 4.578-12.7 44.45 16.024zm0 0"/></clipPath><clipPath id="prefix__ay"><path d="M179.21 137.04l-44.448-16.024 4.578-12.7 44.45 16.024zm0 0"/></clipPath><clipPath id="prefix__az"><path d="M278 297.129h17v21h-17zm0 0"/></clipPath><clipPath id="prefix__aA"><path d="M266.625 297.129H283v21h-16.375zm0 0"/></clipPath><clipPath id="prefix__aB"><path d="M241 297.129h17v21h-17zm0 0"/></clipPath><clipPath id="prefix__aC"><path d="M229.5 297.129H246v21h-16.5zm0 0"/></clipPath><clipPath id="prefix__aD"><path d="M204 297.129h16.875v21H204zm0 0"/></clipPath><clipPath id="prefix__aE"><path d="M192.375 297.129H209v21h-16.625zm0 0"/></clipPath><clipPath id="prefix__aF"><path d="M167 297.129h16.75v21H167zm0 0"/></clipPath><clipPath id="prefix__aG"><path d="M155.25 297.129H172v21h-16.75zm0 0"/></clipPath><clipPath id="prefix__aH"><path d="M130 297h17v22h-17zm0 0"/></clipPath><clipPath id="prefix__aI"><path d="M117.945 297.379l28.496-.504.371 20.996-28.496.504zm0 0"/></clipPath><clipPath id="prefix__aJ"><path d="M117.945 297.379l28.496-.504.371 20.996-28.496.504zm0 0"/></clipPath><clipPath id="prefix__aK"><path d="M117 297h18v22h-18zm0 0"/></clipPath><clipPath id="prefix__aL"><path d="M117.945 297.379l28.496-.504.371 20.996-28.496.504zm0 0"/></clipPath><clipPath id="prefix__aM"><path d="M117.945 297.379l28.496-.504.371 20.996-28.496.504zm0 0"/></clipPath><clipPath id="prefix__aN"><path d="M80 284h20v22H80zm0 0"/></clipPath><clipPath id="prefix__aO"><path d="M81.105 277.734l23.989 15.387-11.336 17.676-23.992-15.387zm0 0"/></clipPath><clipPath id="prefix__aP"><path d="M81.105 277.734l23.989 15.387-11.336 17.676-23.992-15.387zm0 0"/></clipPath><clipPath id="prefix__aQ"><path d="M70 278h20v22H70zm0 0"/></clipPath><clipPath id="prefix__aR"><path d="M81.105 277.734l23.989 15.387-11.336 17.676-23.992-15.387zm0 0"/></clipPath><clipPath id="prefix__aS"><path d="M81.105 277.734l23.989 15.387-11.336 17.676-23.992-15.387zm0 0"/></clipPath><clipPath id="prefix__aT"><path d="M42 264h20v21H42zm0 0"/></clipPath><clipPath id="prefix__aU"><path d="M48.059 255.742l20.527 19.77-14.566 15.125-20.528-19.77zm0 0"/></clipPath><clipPath id="prefix__aV"><path d="M48.059 255.742l20.527 19.77-14.566 15.125-20.528-19.77zm0 0"/></clipPath><clipPath id="prefix__aW"><path d="M33 256h21v20H33zm0 0"/></clipPath><clipPath id="prefix__aX"><path d="M48.059 255.742l20.527 19.77-14.566 15.125-20.528-19.77zm0 0"/></clipPath><clipPath id="prefix__aY"><path d="M48.059 255.742l20.527 19.77-14.566 15.125-20.528-19.77zm0 0"/></clipPath><clipPath id="prefix__aZ"><path d="M19 232h22v19H19zm0 0"/></clipPath><clipPath id="prefix__ba"><path d="M31.219 221.023l14.32 24.641-18.152 10.555-14.325-24.64zm0 0"/></clipPath><clipPath id="prefix__bb"><path d="M31.219 221.023l14.32 24.641-18.152 10.555-14.325-24.64zm0 0"/></clipPath><clipPath id="prefix__bc"><path d="M13 221h22v20H13zm0 0"/></clipPath><clipPath id="prefix__bd"><path d="M31.219 221.023l14.32 24.641-18.152 10.555-14.325-24.64zm0 0"/></clipPath><clipPath id="prefix__be"><path d="M31.219 221.023l14.32 24.641-18.152 10.555-14.325-24.64zm0 0"/></clipPath><clipPath id="prefix__bf"><path d="M8.879 184h21v16.438h-21zm0 0"/></clipPath><clipPath id="prefix__bg"><path d="M8.879 171.938h21V188h-21zm0 0"/></clipPath><clipPath id="prefix__bh"><path d="M18 126h21v20H18zm0 0"/></clipPath><clipPath id="prefix__bi"><path d="M46.379 127.648l-16.234 23.426-17.262-11.965 16.234-23.422zm0 0"/></clipPath><clipPath id="prefix__bj"><path d="M46.379 127.648l-16.234 23.426-17.262-11.965 16.234-23.422zm0 0"/></clipPath><clipPath id="prefix__bk"><path d="M25 116h21v20H25zm0 0"/></clipPath><clipPath id="prefix__bl"><path d="M46.379 127.648l-16.234 23.426-17.262-11.965 16.234-23.422zm0 0"/></clipPath><clipPath id="prefix__bm"><path d="M46.379 127.648l-16.234 23.426-17.262-11.965 16.234-23.422zm0 0"/></clipPath><clipPath id="prefix__bn"><path d="M44 90h20v21H44zm0 0"/></clipPath><clipPath id="prefix__bo"><path d="M72.52 97.336L51.426 116.5l-14.121-15.543 21.093-19.164zm0 0"/></clipPath><clipPath id="prefix__bp"><path d="M72.52 97.336L51.426 116.5l-14.121-15.543 21.093-19.164zm0 0"/></clipPath><clipPath id="prefix__bq"><path d="M53 82h20v20H53zm0 0"/></clipPath><clipPath id="prefix__br"><path d="M72.52 97.336L51.426 116.5l-14.121-15.543 21.093-19.164zm0 0"/></clipPath><clipPath id="prefix__bs"><path d="M72.52 97.336L51.426 116.5l-14.121-15.543 21.093-19.164zm0 0"/></clipPath><clipPath id="prefix__bt"><path d="M74 67h20v23H74zm0 0"/></clipPath><clipPath id="prefix__bu"><path d="M104.922 81.059L79.344 93.633l-9.266-18.848 25.578-12.57zm0 0"/></clipPath><clipPath id="prefix__bv"><path d="M104.922 81.059L79.344 93.633l-9.266-18.848 25.578-12.57zm0 0"/></clipPath><clipPath id="prefix__bw"><path d="M85 62h20v23H85zm0 0"/></clipPath><clipPath id="prefix__bx"><path d="M104.922 81.059L79.344 93.633l-9.266-18.848 25.578-12.57zm0 0"/></clipPath><clipPath id="prefix__by"><path d="M104.922 81.059L79.344 93.633l-9.266-18.848 25.578-12.57zm0 0"/></clipPath><clipPath id="prefix__bz"><path d="M117.785 57.016H135V78h-17.215zm0 0"/></clipPath><clipPath id="prefix__bA"><path d="M130 57.016h16.285V78H130zm0 0"/></clipPath><clipPath id="prefix__bB"><path d="M154 56h17v22h-17zm0 0"/></clipPath><clipPath id="prefix__bC"><path d="M182.512 78.016l-28.489-.86.633-20.992 28.489.86zm0 0"/></clipPath><clipPath id="prefix__bD"><path d="M182.512 78.016l-28.489-.86.633-20.992 28.489.86zm0 0"/></clipPath><clipPath id="prefix__bE"><path d="M166 56h18v22h-18zm0 0"/></clipPath><clipPath id="prefix__bF"><path d="M182.512 78.016l-28.489-.86.633-20.992 28.489.86zm0 0"/></clipPath><clipPath id="prefix__bG"><path d="M182.512 78.016l-28.489-.86.633-20.992 28.489.86zm0 0"/></clipPath><clipPath id="prefix__bH"><path d="M266 56h17v22h-17zm0 0"/></clipPath><clipPath id="prefix__bI"><path d="M294.164 78.016l-28.488-.86.633-20.992 28.488.86zm0 0"/></clipPath><clipPath id="prefix__bJ"><path d="M294.164 78.016l-28.488-.86.633-20.992 28.488.86zm0 0"/></clipPath><clipPath id="prefix__bK"><path d="M278 56h17v22h-17zm0 0"/></clipPath><clipPath id="prefix__bL"><path d="M294.164 78.016l-28.488-.86.633-20.992 28.488.86zm0 0"/></clipPath><clipPath id="prefix__bM"><path d="M294.164 78.016l-28.488-.86.633-20.992 28.488.86zm0 0"/></clipPath><clipPath id="prefix__bN"><path d="M229 56h17v22h-17zm0 0"/></clipPath><clipPath id="prefix__bO"><path d="M257.04 78.016l-28.49-.86.634-20.992 28.488.86zm0 0"/></clipPath><clipPath id="prefix__bP"><path d="M257.04 78.016l-28.49-.86.634-20.992 28.488.86zm0 0"/></clipPath><clipPath id="prefix__bQ"><path d="M241 56h17v22h-17zm0 0"/></clipPath><clipPath id="prefix__bR"><path d="M257.04 78.016l-28.49-.86.634-20.992 28.488.86zm0 0"/></clipPath><clipPath id="prefix__bS"><path d="M257.04 78.016l-28.49-.86.634-20.992 28.488.86zm0 0"/></clipPath><clipPath id="prefix__bT"><path d="M192 56h17v22h-17zm0 0"/></clipPath><clipPath id="prefix__bU"><path d="M220.523 78.016l-28.488-.86.633-20.992 28.488.86zm0 0"/></clipPath><clipPath id="prefix__bV"><path d="M220.523 78.016l-28.488-.86.633-20.992 28.488.86zm0 0"/></clipPath><clipPath id="prefix__bW"><path d="M204 56h18v22h-18zm0 0"/></clipPath><clipPath id="prefix__bX"><path d="M220.523 78.016l-28.488-.86.633-20.992 28.488.86zm0 0"/></clipPath><clipPath id="prefix__bY"><path d="M220.523 78.016l-28.488-.86.633-20.992 28.488.86zm0 0"/></clipPath></defs><g clip-path="url(#prefix__a)"><g clip-path="url(#prefix__b)"><path fill="#737373" d="M303.75 52.777V323.04H-.133V52.777zm0 0"/></g></g><g clip-path="url(#prefix__c)"><g clip-path="url(#prefix__d)"><path fill="none" d="M7.918 142.824C3.137 156.668 0 172.406 0 187.852c0 15.445 2.687 30.304 7.469 44.003.152.29.152.583.3.875 19.122 51.434 69.622 89.32 127.887 90.047H303.75v-270H135.781c-58.687.73-109.187 38.032-127.863 90.047" stroke="#000" stroke-width="3"/></g></g><g clip-path="url(#prefix__e)"><g clip-path="url(#prefix__f)"><g clip-path="url(#prefix__g)"><path fill="#a6a6a6" d="M216.5 319.523L9.3 259.437 69.39 52.238l207.196 60.09zm0 0"/></g></g></g><g clip-path="url(#prefix__h)"><g clip-path="url(#prefix__i)"><g clip-path="url(#prefix__j)"><g clip-path="url(#prefix__k)"><path fill="none" d="M112.773 289.445c57.286 16.614 117.196-16.359 133.809-73.648 16.613-57.285-16.36-117.191-73.648-133.805-57.286-16.613-117.192 16.36-133.805 73.645-16.613 57.285 16.36 117.195 73.644 133.808" stroke="#000" stroke-width="6"/></g></g></g></g><g clip-path="url(#prefix__l)"><g clip-path="url(#prefix__m)"><g clip-path="url(#prefix__n)"><path fill="#ffde59" d="M135.852 253.14l-17.036-4.48 8.118-30.875 17.035 4.48zm0 0"/></g></g></g><g clip-path="url(#prefix__o)"><g clip-path="url(#prefix__p)"><g clip-path="url(#prefix__q)"><path fill="#ffde59" d="M126.887 158.926L114.352 171.3l-22.43-22.715 12.531-12.375zm0 0"/></g></g></g><g clip-path="url(#prefix__r)"><g clip-path="url(#prefix__s)"><g clip-path="url(#prefix__t)"><path fill="#ffde59" d="M180.191 134.914l21.868 81.57-70.743 18.965-21.867-81.57zm0 0"/></g></g></g><g clip-path="url(#prefix__u)"><g clip-path="url(#prefix__v)"><g clip-path="url(#prefix__w)"><path fill="#ffde59" d="M196.465 165.117l4.558 17.012-30.835 8.266-4.56-17.012zm0 0"/></g></g></g><g clip-path="url(#prefix__x)"><g clip-path="url(#prefix__y)"><g clip-path="url(#prefix__z)"><path fill="#ffde59" d="M185.016 147.938l54.043-13.16 13.16 54.042-54.043 13.16zm0 0"/></g></g></g><g clip-path="url(#prefix__A)"><g clip-path="url(#prefix__B)"><g clip-path="url(#prefix__C)"><g clip-path="url(#prefix__D)"><path d="M212.688 144.281c-5.399 1.313-9.844 4.117-13.336 8.414l-4.645-3.78c4.34-5.337 9.863-8.821 16.563-10.454zm-14.91 10.574c-3.024 4.665-4.333 9.747-3.93 15.254l-5.973.442c-.5-6.848 1.125-13.164 4.879-18.953zm-3.59 17.903c.085.48.187.957.304 1.433 1.188 4.883 3.63 9.016 7.32 12.391L197.77 191c-4.586-4.2-7.618-9.328-9.094-15.395-.145-.585-.27-1.18-.38-1.773zm9.695 15.523c4.48 3.29 9.484 4.895 15.008 4.813l.09 5.984c-6.864.106-13.079-1.887-18.641-5.973zm17.656 4.63c.961-.118 1.914-.294 2.863-.524 4.383-1.067 8.18-3.164 11.391-6.29l4.176 4.29c-3.992 3.886-8.707 6.492-14.149 7.816a30.73 30.73 0 01-3.547.649zm16.066-8.778c3.543-4.281 5.434-9.18 5.68-14.7l5.98.266c-.3 6.856-2.652 12.938-7.046 18.25zm5.649-17.371a24.98 24.98 0 00-.656-4.285c-.946-3.887-2.72-7.332-5.317-10.332l4.528-3.918c3.23 3.73 5.433 8.007 6.605 12.832.43 1.754.7 3.527.816 5.312zm-7.824-16.54c-4.067-3.78-8.848-5.956-14.348-6.523l.613-5.957c6.828.703 12.77 3.403 17.813 8.098zm-17.02-6.652a24.71 24.71 0 00-5.722.711l-1.418-5.82c2.343-.57 4.71-.863 7.101-.879zm0 0"/></g></g></g></g><g clip-path="url(#prefix__E)"><g clip-path="url(#prefix__F)"><g clip-path="url(#prefix__G)"><path fill="#ffde59" d="M88.234 93.348l39.32 39.34-39.34 39.32-39.32-39.344zm0 0"/></g></g></g><g clip-path="url(#prefix__H)"><g clip-path="url(#prefix__I)"><g clip-path="url(#prefix__J)"><g clip-path="url(#prefix__K)"><path d="M105.734 115.09c-3.925-3.93-8.632-6.27-14.117-7.024l.817-5.933c6.816.937 12.66 3.847 17.535 8.722zm-16.78-7.246c-5.556-.16-10.583 1.36-15.079 4.566l-3.477-4.875c5.59-3.984 11.832-5.875 18.73-5.676zm-17.165 6.23c-.363.324-.719.66-1.066 1.004-3.555 3.555-5.817 7.785-6.785 12.695l-5.872-1.16c1.204-6.097 4.012-11.355 8.426-15.77.43-.425.867-.84 1.32-1.241zm-8.227 16.348c-.484 5.543.747 10.648 3.684 15.324l-5.066 3.188c-3.657-5.813-5.18-12.157-4.582-19.032zm5.22 17.496a24.159 24.159 0 001.933 2.172c3.187 3.191 6.953 5.347 11.293 6.469l-1.496 5.796c-5.399-1.394-10.075-4.07-14.032-8.03a31.279 31.279 0 01-2.398-2.696zm15.843 9.168c5.5.8 10.668-.125 15.508-2.785l2.883 5.25c-6.016 3.3-12.434 4.457-19.258 3.457zm17.781-4.195a25.626 25.626 0 003.32-2.79c2.829-2.828 4.852-6.132 6.067-9.91l5.7 1.832c-1.513 4.7-4.024 8.801-7.536 12.313a30.688 30.688 0 01-4.117 3.457zm10.063-15.278c1.12-5.441.496-10.66-1.875-15.652l5.406-2.57c2.945 6.203 3.727 12.68 2.336 19.43zm-3.156-18a24.574 24.574 0 00-3.579-4.523l4.235-4.235a30.66 30.66 0 014.441 5.614zm0 0"/></g></g></g></g><g clip-path="url(#prefix__L)"><g clip-path="url(#prefix__M)"><g clip-path="url(#prefix__N)"><path fill="#ffde59" d="M90.852 240.016l54.043-13.16 13.16 54.042-54.043 13.16zm0 0"/></g></g></g><g clip-path="url(#prefix__O)"><g clip-path="url(#prefix__P)"><g clip-path="url(#prefix__Q)"><g clip-path="url(#prefix__R)"><path d="M118.52 236.36c-5.395 1.312-9.84 4.117-13.332 8.413l-4.645-3.777c4.34-5.34 9.86-8.824 16.562-10.453zm-14.907 10.574c-3.023 4.664-4.336 9.75-3.93 15.257l-5.972.438c-.504-6.848 1.125-13.164 4.879-18.953zm-3.593 17.902c.09.48.19.957.304 1.434 1.192 4.882 3.633 9.015 7.324 12.39l-4.043 4.418c-4.585-4.195-7.62-9.328-9.097-15.39-.145-.59-.27-1.18-.38-1.774zm9.695 15.523c4.484 3.29 9.488 4.895 15.012 4.813l.09 5.988c-6.868.102-13.079-1.89-18.645-5.973zm17.66 4.63c.96-.118 1.914-.294 2.863-.524 4.383-1.067 8.18-3.164 11.39-6.29l4.177 4.29c-3.993 3.887-8.711 6.492-14.153 7.816a30.578 30.578 0 01-3.547.649zm16.063-8.778c3.542-4.281 5.437-9.18 5.68-14.695l5.984.261c-.305 6.856-2.653 12.942-7.051 18.254zm5.652-17.371a24.98 24.98 0 00-.656-4.285c-.95-3.887-2.72-7.332-5.317-10.332l4.528-3.918c3.226 3.73 5.43 8.007 6.605 12.832.426 1.754.7 3.527.816 5.316zm-7.824-16.535c-4.067-3.785-8.852-5.961-14.348-6.528l.613-5.953c6.828.703 12.766 3.403 17.813 8.098zm-17.02-6.657c-1.926.012-3.836.25-5.726.711l-1.415-5.816a30.368 30.368 0 017.102-.879zm0 0"/></g></g></g></g><g clip-path="url(#prefix__S)"><g clip-path="url(#prefix__T)"><g clip-path="url(#prefix__U)"><path fill="#707070" d="M223.55 159.828l3.614 13.48-13.484 3.618-3.614-13.485zm0 0"/></g></g></g><g clip-path="url(#prefix__V)"><g clip-path="url(#prefix__W)"><g clip-path="url(#prefix__X)"><path fill="#707070" d="M98.094 132.676l-9.875 9.867-9.867-9.875 9.875-9.867zm0 0"/></g></g></g><g clip-path="url(#prefix__Y)"><g clip-path="url(#prefix__Z)"><g clip-path="url(#prefix__aa)"><path fill="#707070" d="M130.39 252.152l3.618 13.485-13.485 3.613-3.613-13.48zm0 0"/></g></g></g><g clip-path="url(#prefix__ab)"><g clip-path="url(#prefix__ac)"><g clip-path="url(#prefix__ad)"><g clip-path="url(#prefix__ae)"><path fill="#fff" d="M169.332 247.605c.012.04.035.067.078.079.024.144-.183.254-.05.414.042.449.37.566.738.629 1.035.175 2.078.175 3.117.117 3.73-.223 7.23-1.215 10.582-2.836 5.855-2.828 10.066-7.281 13.094-12.93 1.402-2.617 2.316-5.437 3.097-8.3.461-1.68.82-3.387 1.219-5.087-.012-.066-.027-.132-.039-.199.047-.062.082-.144.144-.176.051-.023.083.051.07.11.282.629.419 1.297.524 1.969.07.46.172.902.41 1.308.145.996.743 1.527 1.66 1.52.637-1.887.223-3.711-.351-5.532-.215-.68-.379-1.367-.559-2.054-.421-1.645-.453-1.383-1.78-1.782a2.893 2.893 0 00-.919-.093c-.113.004-.219.02-.297.113-.343-.082-.535.14-.71.367-.524.672-1.036 1.352-1.551 2.028-.192.074-.29.234-.38.402-.19.066-.284.23-.386.39-.145.024-.207.153-.3.243-1.302 1.168-2.716 2.172-4.298 2.93-.12.058-.234.124-.351.183-.137.074-.297.156-.266.332.027.137.188.238.3.234.517-.011.958.29 1.454.32.223.016.43-.062.64-.144 1.618-.625 3.079-1.52 4.45-2.566.121-.094.234-.211.371-.278.16-.074.238.051.277.188-.129.121-.152.262-.086.422-.093.133-.175.27-.097.445-.043.016-.051.047-.024.082-.093.125-.164.254-.097.418-.047.098-.106.191-.133.297-.309 1.144-.598 2.293-.918 3.434-.29 1.035-.613 2.062-.922 3.09-.117.261-.242.519-.344.78-1.027 2.571-2.347 4.97-4.027 7.165-.602.785-1.223 1.547-1.836 2.32-.203.074-.293.25-.39.426-.192.066-.282.23-.376.394-.187.051-.265.215-.363.36-.129.023-.195.11-.238.222-.047.012-.07.04-.078.09-.141.028-.203.153-.301.235-.485.41-.89.902-1.422 1.25.004.074-.094.23.121.12.145-.07.184-.05.184.005.004.046-.024.12-.036.175-1.562 1.243-3.261 2.278-5.03 3.2-.173.07-.345.144-.516.214-1.028.418-2.059.84-3.086 1.262a.17.17 0 00-.118.008.199.199 0 00-.062.05.165.165 0 00-.18.06.16.16 0 00-.18.058c-.07-.024-.132-.004-.18.059-.07-.024-.132-.008-.179.054-.07-.027-.133-.008-.176.055h-.003c-.07-.027-.133-.012-.176.05h-.004a1.463 1.463 0 00-.176.048l-.008.003c-.07-.027-.129-.011-.175.047l-.008.004c-.07-.027-.13-.015-.176.047l-.004.004h-.004.004c-.074-.031-.133-.016-.18.047h-.004c-.07-.031-.129-.016-.175.047h-.004c-.075-.028-.133-.012-.18.047-.57.109-1.137.214-1.707.324-.273.148-.586.148-.887.191a.237.237 0 01-.043-.09.268.268 0 01.016-.144c-.23.008-.461-.004-.672.11a.413.413 0 01-.203.073c.066-.027.133-.046.203-.074-.074-.011-.148-.015-.191.055-.102-.059-.2-.047-.301.008-.063-.04-.125-.04-.176.02-.074-.024-.144-.024-.203.03-.035-.015-.07-.019-.106 0a1.484 1.484 0 00-.667.055c-.16-.015-.32-.035-.477.035-.098-.046-.195-.015-.293.004-.637-.058-1.277.004-1.93-.183.043.234-.144.41.012.593zm29.895-27.085v.003h-.004.004c-.004-.003-.004-.003-.008-.003h.008zm-21.778 26.328c.016 0 .031 0 .047-.004-.004.004-.008.004-.012.004l-.039.011c.004 0 .004-.004.004-.011zm1.852-.93v.004c0 .008.004.012.004.016l.004.015-.008-.031h-.004l.004-.004zm-1.871.996c.004-.02.011-.035.015-.05.012-.005.024-.009.04-.012a.089.089 0 00-.055.062zm.136-.082c.016-.004.028-.008.043-.008h.004c-.015.004-.031.004-.047.008zm-7.129 1.262c0 .004-.003.004-.003.004h-.004-.004c.004-.004.008-.004.012-.004zm.282.023c.004.004.008.008.011.004-.003 0-.007 0-.011-.004zm2.66-.976a.14.14 0 00-.008.043l-.023-.012c.011-.012.02-.024.03-.031zm-.5-.012a.1.1 0 01-.074-.008c.027.008.05.012.074.008zm0 0"/></g></g></g></g><g clip-path="url(#prefix__af)"><g clip-path="url(#prefix__ag)"><g clip-path="url(#prefix__ah)"><g clip-path="url(#prefix__ai)"><path fill="#fff" d="M177.86 246.36c.062-.016.12-.036.18-.048-.075-.03-.134-.011-.18.047zm0 0"/></g></g></g></g><g clip-path="url(#prefix__aj)"><g clip-path="url(#prefix__ak)"><g clip-path="url(#prefix__al)"><g clip-path="url(#prefix__am)"><path fill="#fff" d="M79.281 182.3a.102.102 0 00-.11.016c-.128-.062-.105-.296-.308-.277-.39-.226-.675-.027-.941.238-.738.75-1.34 1.598-1.887 2.485-1.965 3.175-3.172 6.61-3.773 10.285-1.059 6.414.16 12.422 3.035 18.148 1.336 2.653 3.113 5.024 5.004 7.313 1.11 1.344 2.3 2.617 3.457 3.922l.187.082c.024.074.07.152.059.218v.004c-.008.051-.086.04-.129-.007-.676-.133-1.3-.403-1.91-.707-.418-.208-.84-.375-1.309-.418-.894-.454-1.672-.27-2.195.484 1.18 1.61 2.906 2.316 4.727 2.898.675.215 1.335.477 2 .727 1.585.601 1.39.422 2.48-.434.242-.191.437-.433.605-.695.063-.098.114-.191.082-.309.266-.234.192-.52.11-.793-.25-.812-.512-1.625-.77-2.437.051-.2-.027-.367-.113-.54.059-.194-.02-.366-.094-.538.063-.133-.008-.258-.023-.387-.207-1.734-.215-3.469.078-5.2.02-.132.031-.26.047-.394.023-.156.047-.332-.117-.406-.121-.058-.301.012-.364.11-.285.43-.785.613-1.097 1.003-.14.172-.196.387-.25.606-.422 1.683-.528 3.394-.461 5.117.004.156.035.313.011.461-.03.176-.175.168-.316.121-.023-.176-.125-.277-.293-.316-.055-.153-.117-.297-.305-.332.008-.047-.011-.067-.054-.067-.047-.148-.117-.281-.285-.32-.055-.098-.098-.2-.168-.281-.758-.91-1.532-1.809-2.282-2.727-.68-.836-1.332-1.687-1.996-2.535-.144-.242-.285-.492-.441-.73-1.508-2.317-2.711-4.778-3.54-7.415-.292-.941-.562-1.89-.839-2.84.055-.206-.035-.382-.121-.558.055-.2-.027-.367-.11-.535.067-.188-.023-.344-.085-.504.058-.121.023-.227-.043-.324.015-.043.007-.082-.028-.114.059-.132-.008-.257-.02-.386-.054-.63-.226-1.242-.202-1.88-.063-.038-.137-.206-.168.028-.024.16-.067.18-.114.153-.039-.028-.082-.09-.12-.133-.114-1.993.015-3.977.277-5.953.043-.184.082-.368.125-.547.25-1.082.496-2.168.742-3.25a.178.178 0 00.062-.102.194.194 0 00-.004-.082c.059-.047.075-.11.055-.18.059-.046.074-.105.055-.18.062-.046.078-.105.054-.179.063-.047.082-.105.059-.18.066-.043.086-.101.059-.175.066-.043.086-.106.062-.176v-.004c.024-.055.047-.113.063-.172l.004-.004c.062-.043.082-.101.058-.172l.004-.008c.063-.043.086-.097.063-.171v-.008h0c.066-.04.09-.098.066-.172v-.004c.066-.04.086-.098.062-.172l.004-.004c.063-.039.086-.097.067-.172l.715-1.582c.039-.312.218-.566.355-.836a.248.248 0 01.207.113c.125-.19.266-.374.297-.613a.386.386 0 01.059-.207l-.059.207c.055-.054.098-.113.062-.187a.29.29 0 00.168-.25c.07-.031.106-.078.086-.156.063-.047.106-.102.09-.184.035-.02.059-.047.063-.09.156-.164.273-.355.34-.57.105-.125.214-.246.242-.414.097-.055.129-.149.168-.242.414-.489.734-1.043 1.261-1.473-.214-.098-.25-.356-.492-.328zm4.942 40.036v-.004h-.004l.004-.004v.004s.004 0 .004-.004c0 .004-.004.004-.004.008zm-8.996-32.965a.343.343 0 01-.024.04c0-.005.004-.009.004-.013.004-.011.008-.023.016-.035 0 .004 0 .004.004.008zm-.305 2.047h-.004c-.004-.004-.008-.004-.012-.004l-.015-.008.03.012v-.004.004zm.266-2.102c.011.016.019.032.03.043l-.011.04a.108.108 0 00-.02-.083zm-.016.16c-.004.012-.008.028-.016.04 0 0 0 .004-.004.004.008-.016.016-.032.02-.043zm3.074-6.554c-.004-.004 0-.004 0-.008l.004-.004c0 .004-.004.008-.004.012zm-.183.215a.008.008 0 00-.008.008c.004-.004.004-.008.007-.008zm-.731 2.738c-.008-.012-.02-.02-.031-.031l.023-.012c.004.016.008.027.008.043zm.297-.402a.121.121 0 01.05-.059v.004a.136.136 0 00-.05.055zm0 0"/></g></g></g></g><g clip-path="url(#prefix__an)"><g clip-path="url(#prefix__ao)"><g clip-path="url(#prefix__ap)"><g clip-path="url(#prefix__aq)"><path fill="#fff" d="M75.39 189.988c-.019.059-.038.117-.062.172.067-.043.086-.097.063-.172zm0 0"/></g></g></g></g><g clip-path="url(#prefix__ar)"><g clip-path="url(#prefix__as)"><g clip-path="url(#prefix__at)"><g clip-path="url(#prefix__au)"><path fill="#fff" d="M178.629 136.414a.104.104 0 00.047-.101c.129-.07.3.082.406-.094.406-.196.406-.543.336-.91-.191-1.036-.547-2.012-.965-2.97-1.488-3.425-3.621-6.37-6.297-8.96-4.668-4.527-10.3-6.95-16.644-7.848-2.938-.418-5.903-.308-8.86-.058-1.738.144-3.46.394-5.191.605-.063.035-.117.07-.176.106-.074-.024-.164-.028-.215-.075v-.004c-.039-.035.016-.093.078-.101.497-.477 1.075-.84 1.668-1.168.41-.223.79-.473 1.09-.836.883-.477 1.176-1.223.852-2.078-1.988.05-3.559 1.066-5.07 2.23-.563.434-1.153.825-1.739 1.23-1.398.962-1.14.903-1.058 2.282.02.313.109.61.226.898.043.106.094.2.207.239.043.351.317.457.59.543.813.258 1.625.508 2.441.758.133.156.317.191.504.214.13.16.317.192.5.23.075.13.215.145.328.204 1.547.816 2.973 1.8 4.231 3.027.094.09.195.176.297.262.113.106.246.227.402.137.117-.07.156-.254.113-.364-.187-.476-.054-.996-.195-1.472-.062-.215-.207-.383-.355-.55-1.145-1.306-2.489-2.372-3.946-3.298-.129-.082-.273-.144-.382-.254-.125-.125-.036-.238.078-.324.16.078.3.055.43-.062.156.043.312.07.449-.063.03.031.058.031.086-.004.148.043.292.063.421-.055.11.012.22.036.329.024 1.18-.106 2.359-.227 3.539-.32 1.074-.082 2.148-.133 3.218-.196.286.02.57.047.852.055 2.766.078 5.473.496 8.113 1.316.942.297 1.871.618 2.809.93.14.164.336.188.531.219.129.16.316.187.504.215.11.16.293.175.46.218.067.114.173.145.29.145.027.039.062.055.11.043.074.125.214.144.327.207.547.312 1.153.523 1.66.902.07-.027.25.008.075-.156-.117-.11-.11-.152-.063-.176.047-.015.121-.015.18-.023 1.703 1.043 3.258 2.281 4.734 3.62l.375.415 2.25 2.46c.004.048.02.083.047.11.02.02.043.032.07.043a.163.163 0 00.118.149.146.146 0 00.117.144c0 .078.039.13.113.149.004.078.04.129.113.152 0 .078.04.129.114.148v.004c0 .075.035.125.11.145v.004c.034.05.07.101.109.148v.008c0 .074.035.125.109.148l.004.004c-.004.078.031.13.105.149l.004.008c-.004.078.031.125.106.148v.004c-.004.078.035.129.105.152h.004c-.004.078.031.133.106.157l.886 1.488c.238.207.344.5.488.77a.224.224 0 01-.07.066.246.246 0 01-.14.039c.085.21.156.433.332.594a.41.41 0 01.14.164c-.047-.055-.09-.11-.14-.164.015.074.039.14.12.16-.019.113.024.203.106.277-.012.074.008.133.082.16.004.078.028.145.102.18-.004.039.004.074.035.101.047.223.137.426.277.606.043.156.082.312.2.434-.012.109.05.191.105.277.164.617.437 1.195.488 1.875.207-.121.438-.004.555-.215zm-35.715-18.762h.004l.004.004-.004-.004v.008c0-.004 0-.004-.004-.008zm32.211 11.399c-.004-.016-.012-.028-.016-.043 0 .004.004.008.008.008.008.011.016.023.02.035 0-.004-.004 0-.012 0zm-1.508-1.418c.004 0 .004 0 .004-.004.004 0 .008-.004.012-.008l.015-.008-.027.02v.004c0-.004 0-.004-.004-.004zm1.578 1.414c-.02 0-.035.004-.054 0a.119.119 0 01-.02-.027c.016.02.043.03.074.027zm-.12-.102c-.012-.011-.02-.023-.028-.035.004-.004 0-.004 0-.004a.14.14 0 00.027.04zm3.632 6.262c.004 0 .004 0 .004.004h.004v.008c-.004-.004-.004-.008-.008-.012zm-.074-.273c.004-.004.004-.008 0-.012v.012zm-1.832-2.16a.102.102 0 00.043-.012c0 .011-.004.02-.004.027l-.04-.016zm.16.472c.016.02.02.047.02.074a.231.231 0 00-.02-.074zm0 0"/></g></g></g></g><g clip-path="url(#prefix__av)"><g clip-path="url(#prefix__aw)"><g clip-path="url(#prefix__ax)"><g clip-path="url(#prefix__ay)"><path fill="#fff" d="M174.527 128.832c-.035-.05-.074-.098-.105-.148-.004.078.031.125.105.148zm0 0"/></g></g></g></g><path transform="matrix(.74987 .00605 -.00605 .74998 136.49 77.868)" fill="none" d="M-.002 1.999L223.036 2" stroke="#000" stroke-width="4"/><path transform="matrix(.75062 -.00364 .00364 .75 135.126 291.168)" fill="none" d="M0 2l224.814.002" stroke="#000" stroke-width="4"/><g clip-path="url(#prefix__az)"><path fill="#38b6ff" d="M294.695 306.992l-8.492-9.492a.946.946 0 00-.703-.316h-5.664a.95.95 0 00-.863.562.956.956 0 00.164 1.02l7.922 8.863-7.922 8.855a.95.95 0 00.7 1.586h5.663c.266 0 .52-.117.703-.312l8.492-9.496c.32-.36.32-.91 0-1.27zm0 0"/></g><g clip-path="url(#prefix__aA)"><path fill="#38b6ff" d="M282.426 306.992l-8.492-9.492a.94.94 0 00-.704-.316h-5.66a.947.947 0 00-.703 1.582l7.926 8.863-7.926 8.855a.955.955 0 00-.16 1.024.94.94 0 00.863.562h5.66c.27 0 .52-.117.704-.312l8.492-9.496a.95.95 0 000-1.27zm0 0"/></g><g clip-path="url(#prefix__aB)"><path fill="#38b6ff" d="M257.57 306.992l-8.492-9.492a.946.946 0 00-.703-.316h-5.664a.95.95 0 00-.863.562.962.962 0 00.16 1.02l7.926 8.863-7.926 8.855a.95.95 0 00.703 1.586h5.664c.266 0 .52-.117.703-.312l8.492-9.496c.32-.36.32-.91 0-1.27zm0 0"/></g><g clip-path="url(#prefix__aC)"><path fill="#38b6ff" d="M245.3 306.992l-8.491-9.492a.94.94 0 00-.704-.316h-5.66a.947.947 0 00-.703 1.582l7.926 8.863-7.926 8.855a.955.955 0 00-.16 1.024.94.94 0 00.863.562h5.66c.27 0 .52-.117.704-.312l8.492-9.496a.95.95 0 000-1.27zm0 0"/></g><g clip-path="url(#prefix__aD)"><path fill="#5ce1e6" d="M220.445 306.992l-8.492-9.492a.946.946 0 00-.703-.316h-5.664a.95.95 0 00-.863.562.956.956 0 00.164 1.02l7.922 8.863-7.922 8.855a.95.95 0 00.7 1.586h5.663c.266 0 .52-.117.703-.312l8.492-9.496c.32-.36.32-.91 0-1.27zm0 0"/></g><g clip-path="url(#prefix__aE)"><path fill="#5ce1e6" d="M208.176 306.992l-8.492-9.492a.94.94 0 00-.704-.316h-5.66a.947.947 0 00-.703 1.582l7.926 8.863-7.926 8.855a.955.955 0 00-.16 1.024.94.94 0 00.863.562h5.66c.27 0 .52-.117.704-.312l8.492-9.496a.95.95 0 000-1.27zm0 0"/></g><g clip-path="url(#prefix__aF)"><path fill="#38b6ff" d="M183.32 306.992l-8.492-9.492a.946.946 0 00-.703-.316h-5.664a.95.95 0 00-.863.562.956.956 0 00.164 1.02l7.922 8.863-7.922 8.855a.95.95 0 00.7 1.586h5.663c.266 0 .52-.117.703-.312l8.492-9.496c.32-.36.32-.91 0-1.27zm0 0"/></g><g clip-path="url(#prefix__aG)"><path fill="#38b6ff" d="M171.05 306.992l-8.491-9.492a.94.94 0 00-.704-.316h-5.66a.947.947 0 00-.703 1.582l7.926 8.863-7.926 8.855a.955.955 0 00-.16 1.024.94.94 0 00.863.562h5.66c.27 0 .52-.117.704-.312l8.492-9.496a.95.95 0 000-1.27zm0 0"/></g><g clip-path="url(#prefix__aH)"><g clip-path="url(#prefix__aI)"><g clip-path="url(#prefix__aJ)"><path fill="#38b6ff" d="M146.184 306.746l-8.66-9.344a.948.948 0 00-.708-.3l-5.66.097a.947.947 0 00-.851.578.956.956 0 00.175 1.02l8.083 8.719-7.77 8.996a.952.952 0 00.73 1.574l5.665-.102a.96.96 0 00.695-.324l8.324-9.644a.954.954 0 00-.023-1.27zm0 0"/></g></g></g><g clip-path="url(#prefix__aK)"><g clip-path="url(#prefix__aL)"><g clip-path="url(#prefix__aM)"><path fill="#38b6ff" d="M133.918 306.96l-8.66-9.339a.937.937 0 00-.707-.305l-5.66.102a.95.95 0 00-.856.578.95.95 0 00.18 1.016l8.082 8.718-7.77 8.997a.959.959 0 00-.14 1.027c.16.34.5.555.87.547l5.665-.098a.979.979 0 00.695-.328l8.324-9.64a.96.96 0 00-.023-1.274zm0 0"/></g></g></g><g clip-path="url(#prefix__aN)"><g clip-path="url(#prefix__aO)"><g clip-path="url(#prefix__aP)"><path fill="#38b6ff" d="M99.406 301.191l-2.023-12.574a.945.945 0 00-.422-.644l-4.766-3.059a.949.949 0 00-1.445.953l1.887 11.738-11.453 3.176a.951.951 0 00-.266 1.715l4.766 3.059c.226.144.5.183.761.113l12.274-3.406a.954.954 0 00.687-1.07zm0 0"/></g></g></g><g clip-path="url(#prefix__aQ)"><g clip-path="url(#prefix__aR)"><g clip-path="url(#prefix__aS)"><path fill="#38b6ff" d="M89.078 294.57l-2.023-12.578a.94.94 0 00-.422-.644l-4.766-3.055a.942.942 0 00-1.027.004.966.966 0 00-.418.95l1.887 11.733-11.454 3.18a.954.954 0 00-.687.774.945.945 0 00.422.937l4.77 3.059c.222.144.5.183.757.117l12.278-3.406a.957.957 0 00.683-1.07zm0 0"/></g></g></g><g clip-path="url(#prefix__aT)"><g clip-path="url(#prefix__aU)"><g clip-path="url(#prefix__aV)"><path fill="#5ce1e6" d="M61.434 282.32l.468-12.73a.94.94 0 00-.289-.715l-4.078-3.93a.945.945 0 00-1.012-.191.955.955 0 00-.593.848l-.438 11.878-11.851.883a.942.942 0 00-.825.625.94.94 0 00.23 1.004l4.079 3.926a.951.951 0 00.723.262l12.703-.946a.957.957 0 00.883-.914zm0 0"/></g></g></g><g clip-path="url(#prefix__aW)"><g clip-path="url(#prefix__aX)"><g clip-path="url(#prefix__aY)"><path fill="#5ce1e6" d="M52.598 273.809l.468-12.73a.96.96 0 00-.289-.716l-4.078-3.925a.948.948 0 00-1.605.652l-.438 11.879-11.851.883a.948.948 0 00-.825.625.94.94 0 00.23 1.003l4.08 3.93a.96.96 0 00.722.262l12.703-.95a.957.957 0 00.883-.913zm0 0"/></g></g></g><g clip-path="url(#prefix__aZ)"><g clip-path="url(#prefix__ba)"><g clip-path="url(#prefix__bb)"><path fill="#38b6ff" d="M36.793 250.25l3.941-12.113a.938.938 0 00-.082-.766l-2.843-4.894a.95.95 0 00-1.723.187L32.41 243.97l-11.64-2.399a.947.947 0 00-.965.375.944.944 0 00-.055 1.028l2.848 4.894c.132.235.359.395.62.45l12.477 2.574a.95.95 0 001.098-.641zm0 0"/></g></g></g><g clip-path="url(#prefix__bc)"><g clip-path="url(#prefix__bd)"><g clip-path="url(#prefix__be)"><path fill="#38b6ff" d="M30.629 239.645l3.941-12.114a.938.938 0 00-.082-.765l-2.843-4.895a.946.946 0 00-.922-.465.954.954 0 00-.801.653l-3.676 11.304-11.644-2.402a.958.958 0 00-.961.375.943.943 0 00-.055 1.031l2.844 4.895c.136.23.363.39.625.449l12.476 2.57a.952.952 0 001.098-.636zm0 0"/></g></g></g><g clip-path="url(#prefix__bf)"><path fill="#38b6ff" d="M20.016 200.004l9.492-8.492a.934.934 0 00.316-.703v-5.66a.945.945 0 00-.562-.864.946.946 0 00-1.02.16l-8.863 7.926-8.856-7.926a.955.955 0 00-1.023-.16.945.945 0 00-.563.863v5.66c0 .27.114.524.313.704l9.496 8.492a.95.95 0 001.27 0zm0 0"/></g><g clip-path="url(#prefix__bg)"><path fill="#38b6ff" d="M20.016 187.738l9.492-8.496a.932.932 0 00.316-.699v-5.664a.95.95 0 00-.562-.863.961.961 0 00-1.02.16l-8.863 7.926-8.856-7.926a.95.95 0 00-1.586.703v5.664c0 .266.114.52.313.7l9.496 8.495c.36.32.91.32 1.27 0zm0 0"/></g><g clip-path="url(#prefix__bh)"><g clip-path="url(#prefix__bi)"><g clip-path="url(#prefix__bj)"><path fill="#38b6ff" d="M22.281 145.098l12.64-1.57a.951.951 0 00.661-.4l3.227-4.651a.95.95 0 00-.903-1.48L26.11 138.46l-2.765-11.559a.952.952 0 00-1.703-.324l-3.227 4.652a.948.948 0 00-.14.758l2.964 12.387a.949.949 0 001.043.723zm0 0"/></g></g></g><g clip-path="url(#prefix__bk)"><g clip-path="url(#prefix__bl)"><g clip-path="url(#prefix__bm)"><path fill="#38b6ff" d="M29.27 135.016l12.64-1.575a.933.933 0 00.66-.394l3.223-4.656a.935.935 0 00.031-1.028.953.953 0 00-.93-.449l-11.796 1.465-2.766-11.559a.963.963 0 00-.75-.715.941.941 0 00-.953.387l-3.227 4.656a.936.936 0 00-.14.754l2.965 12.391a.95.95 0 001.043.723zm0 0"/></g></g></g><g clip-path="url(#prefix__bn)"><g clip-path="url(#prefix__bo)"><g clip-path="url(#prefix__bp)"><path fill="#5ce1e6" d="M45.11 108.906l12.671 1.317a.941.941 0 00.73-.239l4.192-3.808a.948.948 0 00.258-.996.954.954 0 00-.805-.649l-11.824-1.226-.09-11.887a.948.948 0 00-1.586-.7l-4.191 3.805a.97.97 0 00-.309.707l.098 12.739c.004.484.375.89.855.937zm0 0"/></g></g></g><g clip-path="url(#prefix__bq)"><g clip-path="url(#prefix__br)"><g clip-path="url(#prefix__bs)"><path fill="#5ce1e6" d="M54.188 100.656l12.671 1.317a.936.936 0 00.73-.239l4.192-3.808a.942.942 0 00.262-.996.958.958 0 00-.805-.649l-11.824-1.226-.09-11.887a.95.95 0 00-1.586-.7l-4.191 3.805a.955.955 0 00-.309.707l.098 12.739c.004.484.375.89.852.937zm0 0"/></g></g></g><g clip-path="url(#prefix__bt)"><g clip-path="url(#prefix__bu)"><g clip-path="url(#prefix__bv)"><path fill="#38b6ff" d="M75.379 84.59l11.808 4.773c.254.098.532.09.77-.027l5.082-2.5a.95.95 0 00.527-.883.958.958 0 00-.597-.848l-11.02-4.453 3.203-11.445a.946.946 0 00-.304-.988.943.943 0 00-1.024-.125l-5.082 2.496a.974.974 0 00-.492.59l-3.434 12.27a.957.957 0 00.563 1.14zm0 0"/></g></g></g><g clip-path="url(#prefix__bw)"><g clip-path="url(#prefix__bx)"><g clip-path="url(#prefix__by)"><path fill="#38b6ff" d="M86.387 79.176l11.812 4.773c.25.102.528.094.77-.027l5.082-2.496a.945.945 0 00.523-.887.945.945 0 00-.594-.844l-11.02-4.457 3.204-11.445a.958.958 0 00-.305-.988.952.952 0 00-1.023-.125l-5.082 2.5a.94.94 0 00-.492.59l-3.434 12.265a.953.953 0 00.559 1.14zm0 0"/></g></g></g><g clip-path="url(#prefix__bz)"><path fill="#38b6ff" d="M118.215 68.148l8.492 9.493a.946.946 0 00.703.316h5.664a.95.95 0 00.863-.562.956.956 0 00-.164-1.02l-7.921-8.86 7.921-8.859a.95.95 0 00-.7-1.586h-5.663a.971.971 0 00-.703.313l-8.492 9.496c-.32.36-.32.91 0 1.27zm0 0"/></g><g clip-path="url(#prefix__bA)"><path fill="#38b6ff" d="M130.484 68.148l8.493 9.493a.94.94 0 00.703.316h5.66a.947.947 0 00.703-1.582l-7.926-8.86 7.926-8.859a.955.955 0 00.16-1.023.94.94 0 00-.863-.563h-5.66c-.27 0-.52.117-.703.313l-8.493 9.496a.95.95 0 000 1.27zm0 0"/></g><g clip-path="url(#prefix__bB)"><g clip-path="url(#prefix__bC)"><g clip-path="url(#prefix__bD)"><path fill="#38b6ff" d="M154.75 67.309l8.207 9.746a.943.943 0 00.691.336l5.66.168a.948.948 0 00.75-1.563l-7.656-9.094 8.188-8.613a.948.948 0 00.191-1.016.931.931 0 00-.844-.59l-5.66-.171a.955.955 0 00-.71.293l-8.778 9.234a.96.96 0 00-.039 1.27zm0 0"/></g></g></g><g clip-path="url(#prefix__bE)"><g clip-path="url(#prefix__bF)"><g clip-path="url(#prefix__bG)"><path fill="#38b6ff" d="M167.016 67.676l8.203 9.746a.936.936 0 00.691.336l5.66.172a.948.948 0 00.75-1.563l-7.656-9.094 8.188-8.617a.946.946 0 00.191-1.015.944.944 0 00-.844-.59l-5.66-.172a.955.955 0 00-.71.293l-8.778 9.234a.955.955 0 00-.035 1.27zm0 0"/></g></g></g><g clip-path="url(#prefix__bH)"><g clip-path="url(#prefix__bI)"><g clip-path="url(#prefix__bJ)"><path fill="#38b6ff" d="M266.402 67.309l8.207 9.746a.943.943 0 00.692.336l5.66.168a.948.948 0 00.75-1.563l-7.656-9.094 8.187-8.613a.948.948 0 00.192-1.016.931.931 0 00-.844-.59l-5.66-.171a.955.955 0 00-.711.293l-8.778 9.234a.96.96 0 00-.039 1.27zm0 0"/></g></g></g><g clip-path="url(#prefix__bK)"><g clip-path="url(#prefix__bL)"><g clip-path="url(#prefix__bM)"><path fill="#38b6ff" d="M278.668 67.676l8.203 9.746a.936.936 0 00.692.336l5.66.172a.948.948 0 00.75-1.563l-7.657-9.094 8.188-8.617a.946.946 0 00.191-1.015.944.944 0 00-.843-.59l-5.66-.172a.955.955 0 00-.712.293l-8.777 9.234a.955.955 0 00-.035 1.27zm0 0"/></g></g></g><g clip-path="url(#prefix__bN)"><g clip-path="url(#prefix__bO)"><g clip-path="url(#prefix__bP)"><path fill="#38b6ff" d="M229.277 67.309l8.207 9.746a.943.943 0 00.692.336l5.66.168a.948.948 0 00.75-1.563l-7.656-9.094 8.187-8.613a.948.948 0 00.192-1.016.931.931 0 00-.844-.59l-5.66-.171a.955.955 0 00-.711.293l-8.778 9.234a.96.96 0 00-.039 1.27zm0 0"/></g></g></g><g clip-path="url(#prefix__bQ)"><g clip-path="url(#prefix__bR)"><g clip-path="url(#prefix__bS)"><path fill="#38b6ff" d="M241.543 67.676l8.203 9.746a.936.936 0 00.691.336l5.66.172a.948.948 0 00.75-1.563l-7.656-9.094 8.188-8.617a.946.946 0 00.191-1.015.944.944 0 00-.843-.59l-5.66-.172a.955.955 0 00-.712.293l-8.777 9.234a.955.955 0 00-.035 1.27zm0 0"/></g></g></g><g clip-path="url(#prefix__bT)"><g clip-path="url(#prefix__bU)"><g clip-path="url(#prefix__bV)"><path fill="#5ce1e6" d="M192.762 67.309l8.203 9.746a.958.958 0 00.695.336l5.656.168a.95.95 0 00.883-.536.957.957 0 00-.133-1.027l-7.652-9.094 8.188-8.613a.956.956 0 00.191-1.016.937.937 0 00-.848-.59l-5.656-.171a.964.964 0 00-.715.293l-8.773 9.234a.955.955 0 00-.04 1.27zm0 0"/></g></g></g><g clip-path="url(#prefix__bW)"><g clip-path="url(#prefix__bX)"><g clip-path="url(#prefix__bY)"><path fill="#5ce1e6" d="M205.023 67.676l8.207 9.746a.93.93 0 00.692.336l5.66.172a.948.948 0 00.75-1.563l-7.656-9.094 8.187-8.617a.946.946 0 00.192-1.015.944.944 0 00-.844-.59l-5.66-.172a.955.955 0 00-.711.293l-8.778 9.234a.96.96 0 00-.039 1.27zm0 0"/></g></g></g></svg>