<svg xmlns="http://www.w3.org/2000/svg" width="450" viewBox="0 0 337.5 375" height="500" version="1.0"><defs><clipPath id="prefix__a"><path d="M0 52.777h303.75V323H0zm0 0"/></clipPath><clipPath id="prefix__b"><path d="M7.918 142.824C3.137 156.668 0 172.406 0 187.852c0 15.445 2.688 30.304 7.469 44.003.152.29.152.583.3.875 19.122 51.434 69.622 89.32 127.887 90.047H303.75v-270H135.781c-58.687.73-109.187 38.032-127.863 90.047"/></clipPath><clipPath id="prefix__c"><path d="M0 52.777h303.75v270H0zm0 0"/></clipPath><clipPath id="prefix__d"><path d="M7.918 142.824C3.137 156.668 0 172.406 0 187.852c0 15.445 2.688 30.304 7.469 44.003.152.29.152.583.3.875 19.122 51.434 69.622 89.32 127.887 90.047H303.75v-270H135.781c-58.687.73-109.187 38.032-127.863 90.047"/></clipPath><clipPath id="prefix__e"><path d="M34 77h217v217H34zm0 0"/></clipPath><clipPath id="prefix__f"><path d="M248.676 295.852L32.43 291.535 36.75 75.29l216.242 4.316zm0 0"/></clipPath><clipPath id="prefix__g"><path d="M140.7 293.695c59.632 1.192 108.94-46.187 110.132-105.82 1.191-59.637-46.187-108.945-105.824-110.137-59.633-1.191-108.942 46.188-110.133 105.825-1.191 59.632 46.188 108.94 105.824 110.132"/></clipPath><clipPath id="prefix__h"><path d="M34 77h217v217H34zm0 0"/></clipPath><clipPath id="prefix__i"><path d="M248.676 295.852l-215.957-4.313L37.03 75.582l215.957 4.313zm0 0"/></clipPath><clipPath id="prefix__j"><path d="M248.676 295.852L29.664 291.48 34.04 72.47l219.012 4.37zm0 0"/></clipPath><clipPath id="prefix__k"><path d="M140.7 293.695c59.632 1.192 108.94-46.187 110.132-105.82 1.191-59.637-46.187-108.945-105.824-110.137-59.633-1.191-108.942 46.188-110.133 105.825-1.191 59.632 46.188 108.94 105.824 110.132"/></clipPath><clipPath id="prefix__l"><path d="M135 220h19v33h-19zm0 0"/></clipPath><clipPath id="prefix__m"><path d="M153.57 252.648l-18.164.094-.164-31.922 18.164-.093zm0 0"/></clipPath><clipPath id="prefix__n"><path d="M153.57 252.648l-17.765.094-.164-31.73 17.765-.09zm0 0"/></clipPath><clipPath id="prefix__o"><path d="M84 147h37v33H84zm0 0"/></clipPath><clipPath id="prefix__p"><path d="M120.484 163.98l-9.171 15.68-27.555-16.12 9.172-15.68zm0 0"/></clipPath><clipPath id="prefix__q"><path d="M120.484 163.98l-8.972 15.336-27.387-16.023 8.973-15.332zm0 0"/></clipPath><clipPath id="prefix__r"><path d="M102 163h85v74h-85zm0 0"/></clipPath><clipPath id="prefix__s"><path d="M165.742 126.969l42.645 73.761-64.055 37.032-42.644-73.758zm0 0"/></clipPath><clipPath id="prefix__t"><path d="M186.902 163.566l-42.277 73.27-42.316-73.191 84.593-.079"/></clipPath><clipPath id="prefix__u"><path d="M161 151h38v33h-38zm0 0"/></clipPath><clipPath id="prefix__v"><path d="M189.285 151.918l9.094 15.727-27.637 15.98-9.094-15.727zm0 0"/></clipPath><clipPath id="prefix__w"><path d="M189.285 151.918l8.895 15.383-27.47 15.879-8.89-15.38zm0 0"/></clipPath><clipPath id="prefix__x"><path d="M183 121h57v57h-57zm0 0"/></clipPath><clipPath id="prefix__y"><path d="M173.777 138.297l48.782-26.727 26.722 48.785-48.781 26.723zm0 0"/></clipPath><clipPath id="prefix__z"><path d="M198.168 124.934c-13.469 7.379-18.41 24.28-11.027 37.754 7.379 13.468 24.28 18.406 37.75 11.027 13.472-7.38 18.41-24.281 11.03-37.75-7.378-13.473-24.28-18.41-37.753-11.031"/></clipPath><clipPath id="prefix__A"><path d="M183 121h57v57h-57zm0 0"/></clipPath><clipPath id="prefix__B"><path d="M173.777 138.297l48.676-26.664 26.664 48.672-48.676 26.668zm0 0"/></clipPath><clipPath id="prefix__C"><path d="M173.777 138.297l48.676-26.664 26.664 48.672-48.676 26.668zm0 0"/></clipPath><clipPath id="prefix__D"><path d="M198.113 124.965c-13.441 7.363-18.367 24.226-11.004 37.668 7.364 13.441 24.23 18.367 37.672 11.004 13.442-7.364 18.367-24.227 11.004-37.668-7.363-13.442-24.23-18.367-37.672-11.004"/></clipPath><clipPath id="prefix__E"><path d="M48 120h57v57H48zm0 0"/></clipPath><clipPath id="prefix__F"><path d="M66.152 110.668l48.176 27.8-27.8 48.177-48.176-27.801zm0 0"/></clipPath><clipPath id="prefix__G"><path d="M90.238 124.566c-13.3-7.675-30.308-3.113-37.988 10.192-7.676 13.3-3.113 30.308 10.188 37.988 13.304 7.676 30.312 3.113 37.988-10.191 7.68-13.301 3.117-30.309-10.188-37.989"/></clipPath><clipPath id="prefix__H"><path d="M48 120h57v57H48zm0 0"/></clipPath><clipPath id="prefix__I"><path d="M66.152 110.668l48.07 27.738-27.738 48.07-48.074-27.738zm0 0"/></clipPath><clipPath id="prefix__J"><path d="M66.152 110.668l48.07 27.738-27.738 48.07-48.074-27.738zm0 0"/></clipPath><clipPath id="prefix__K"><path d="M90.188 124.54c-13.274-7.661-30.247-3.11-37.907 10.163-7.66 13.274-3.11 30.246 10.168 37.906 13.274 7.66 30.242 3.106 37.903-10.168 7.66-13.273 3.109-30.242-10.165-37.902"/></clipPath><clipPath id="prefix__L"><path d="M116 234h57v57h-57zm0 0"/></clipPath><clipPath id="prefix__M"><path d="M106.707 251.645l48.785-26.727 26.723 48.781-48.781 26.727zm0 0"/></clipPath><clipPath id="prefix__N"><path d="M131.098 238.281c-13.47 7.38-18.407 24.281-11.028 37.754 7.38 13.469 24.282 18.406 37.754 11.027 13.469-7.378 18.406-24.28 11.028-37.753-7.38-13.47-24.282-18.407-37.754-11.028"/></clipPath><clipPath id="prefix__O"><path d="M116 234h57v57h-57zm0 0"/></clipPath><clipPath id="prefix__P"><path d="M106.707 251.645l48.676-26.668 26.664 48.675-48.672 26.664zm0 0"/></clipPath><clipPath id="prefix__Q"><path d="M106.707 251.645l48.676-26.668 26.664 48.675-48.672 26.664zm0 0"/></clipPath><clipPath id="prefix__R"><path d="M131.047 238.309c-13.442 7.363-18.367 24.23-11.004 37.671 7.363 13.442 24.227 18.368 37.668 11.004 13.441-7.363 18.367-24.226 11.004-37.668-7.363-13.441-24.227-18.37-37.668-11.007"/></clipPath><clipPath id="prefix__S"><path d="M204 142h15v15h-15zm0 0"/></clipPath><clipPath id="prefix__T"><path d="M214.074 139.79l6.988 12.081-12.085 6.988-6.989-12.086zm0 0"/></clipPath><clipPath id="prefix__U"><path d="M217.566 145.832a6.975 6.975 0 00-9.535-2.55 6.98 6.98 0 00-2.547 9.534 6.977 6.977 0 009.536 2.551 6.98 6.98 0 002.546-9.535"/></clipPath><clipPath id="prefix__V"><path d="M69 141h15v15H69zm0 0"/></clipPath><clipPath id="prefix__W"><path d="M85.871 146.094l-6.976 12.09-12.094-6.977 6.98-12.09zm0 0"/></clipPath><clipPath id="prefix__X"><path d="M82.383 152.14a6.981 6.981 0 00-12.094-6.976 6.977 6.977 0 002.559 9.531 6.977 6.977 0 009.535-2.554"/></clipPath><clipPath id="prefix__Y"><path d="M138 255h15v15h-15zm0 0"/></clipPath><clipPath id="prefix__Z"><path d="M148.043 253.113l6.988 12.086-12.086 6.985-6.984-12.082zm0 0"/></clipPath><clipPath id="prefix__aa"><path d="M151.54 259.156a6.98 6.98 0 10-12.088 6.987 6.98 6.98 0 0012.087-6.987"/></clipPath><clipPath id="prefix__ab"><path d="M184 198h28v42h-28zm0 0"/></clipPath><clipPath id="prefix__ac"><path d="M183.797 239.148l19.898-42.855 12.246 5.684-19.898 42.855zm0 0"/></clipPath><clipPath id="prefix__ad"><path d="M183.797 239.148l19.898-42.855 12.246 5.684-19.898 42.855zm0 0"/></clipPath><clipPath id="prefix__ae"><path d="M183.797 239.148l19.898-42.855 12.246 5.684-19.898 42.855zm0 0"/></clipPath><clipPath id="prefix__af"><path d="M192 235h1v1h-1zm0 0"/></clipPath><clipPath id="prefix__ag"><path d="M183.797 239.148l19.898-42.855 12.246 5.684-19.898 42.855zm0 0"/></clipPath><clipPath id="prefix__ah"><path d="M183.797 239.148l19.898-42.855 12.246 5.684-19.898 42.855zm0 0"/></clipPath><clipPath id="prefix__ai"><path d="M183.797 239.148l19.898-42.855 12.246 5.684-19.898 42.855zm0 0"/></clipPath><clipPath id="prefix__aj"><path d="M76 198h25v44H76zm0 0"/></clipPath><clipPath id="prefix__ak"><path d="M80.531 198.047l23.59 40.937-11.7 6.743-23.589-40.942zm0 0"/></clipPath><clipPath id="prefix__al"><path d="M80.531 198.047l23.59 40.937-11.7 6.743-23.589-40.942zm0 0"/></clipPath><clipPath id="prefix__am"><path d="M80.531 198.047l23.59 40.937-11.7 6.743-23.589-40.942zm0 0"/></clipPath><clipPath id="prefix__an"><path d="M78 207h1v1h-1zm0 0"/></clipPath><clipPath id="prefix__ao"><path d="M80.531 198.047l23.59 40.937-11.7 6.743-23.589-40.942zm0 0"/></clipPath><clipPath id="prefix__ap"><path d="M80.531 198.047l23.59 40.937-11.7 6.743-23.589-40.942zm0 0"/></clipPath><clipPath id="prefix__aq"><path d="M80.531 198.047l23.59 40.937-11.7 6.743-23.589-40.942zm0 0"/></clipPath><clipPath id="prefix__ar"><path d="M119 113h47v17h-47zm0 0"/></clipPath><clipPath id="prefix__as"><path d="M165.344 129.277l-47.082-3.949 1.129-13.453 47.082 3.95zm0 0"/></clipPath><clipPath id="prefix__at"><path d="M165.344 129.277l-47.082-3.949 1.129-13.453 47.082 3.95zm0 0"/></clipPath><clipPath id="prefix__au"><path d="M165.344 129.277l-47.082-3.949 1.129-13.453 47.082 3.95zm0 0"/></clipPath><clipPath id="prefix__av"><path d="M158 122h1v1h-1zm0 0"/></clipPath><clipPath id="prefix__aw"><path d="M165.344 129.277l-47.082-3.949 1.129-13.453 47.082 3.95zm0 0"/></clipPath><clipPath id="prefix__ax"><path d="M165.344 129.277l-47.082-3.949 1.129-13.453 47.082 3.95zm0 0"/></clipPath><clipPath id="prefix__ay"><path d="M165.344 129.277l-47.082-3.949 1.129-13.453 47.082 3.95zm0 0"/></clipPath><clipPath id="prefix__az"><path d="M278 297.129h17v21h-17zm0 0"/></clipPath><clipPath id="prefix__aA"><path d="M266.625 297.129H283v21h-16.375zm0 0"/></clipPath><clipPath id="prefix__aB"><path d="M241 297.129h17v21h-17zm0 0"/></clipPath><clipPath id="prefix__aC"><path d="M229.5 297.129H246v21h-16.5zm0 0"/></clipPath><clipPath id="prefix__aD"><path d="M204 297.129h16.875v21H204zm0 0"/></clipPath><clipPath id="prefix__aE"><path d="M192.375 297.129H209v21h-16.625zm0 0"/></clipPath><clipPath id="prefix__aF"><path d="M167 297.129h16.75v21H167zm0 0"/></clipPath><clipPath id="prefix__aG"><path d="M155.25 297.129H172v21h-16.75zm0 0"/></clipPath><clipPath id="prefix__aH"><path d="M130 297h17v22h-17zm0 0"/></clipPath><clipPath id="prefix__aI"><path d="M117.945 297.379l28.496-.504.371 20.996-28.496.504zm0 0"/></clipPath><clipPath id="prefix__aJ"><path d="M117.945 297.379l28.496-.504.371 20.996-28.496.504zm0 0"/></clipPath><clipPath id="prefix__aK"><path d="M117 297h18v22h-18zm0 0"/></clipPath><clipPath id="prefix__aL"><path d="M117.945 297.379l28.496-.504.371 20.996-28.496.504zm0 0"/></clipPath><clipPath id="prefix__aM"><path d="M117.945 297.379l28.496-.504.371 20.996-28.496.504zm0 0"/></clipPath><clipPath id="prefix__aN"><path d="M80 284h20v22H80zm0 0"/></clipPath><clipPath id="prefix__aO"><path d="M81.105 277.734l23.989 15.387-11.336 17.676-23.992-15.387zm0 0"/></clipPath><clipPath id="prefix__aP"><path d="M81.105 277.734l23.989 15.387-11.336 17.676-23.992-15.387zm0 0"/></clipPath><clipPath id="prefix__aQ"><path d="M70 278h20v22H70zm0 0"/></clipPath><clipPath id="prefix__aR"><path d="M81.105 277.734l23.989 15.387-11.336 17.676-23.992-15.387zm0 0"/></clipPath><clipPath id="prefix__aS"><path d="M81.105 277.734l23.989 15.387-11.336 17.676-23.992-15.387zm0 0"/></clipPath><clipPath id="prefix__aT"><path d="M42 264h20v21H42zm0 0"/></clipPath><clipPath id="prefix__aU"><path d="M48.059 255.742l20.527 19.77-14.566 15.125-20.528-19.77zm0 0"/></clipPath><clipPath id="prefix__aV"><path d="M48.059 255.742l20.527 19.77-14.566 15.125-20.528-19.77zm0 0"/></clipPath><clipPath id="prefix__aW"><path d="M33 256h21v20H33zm0 0"/></clipPath><clipPath id="prefix__aX"><path d="M48.059 255.742l20.527 19.77-14.566 15.125-20.528-19.77zm0 0"/></clipPath><clipPath id="prefix__aY"><path d="M48.059 255.742l20.527 19.77-14.566 15.125-20.528-19.77zm0 0"/></clipPath><clipPath id="prefix__aZ"><path d="M19 232h22v19H19zm0 0"/></clipPath><clipPath id="prefix__ba"><path d="M31.219 221.023l14.32 24.641-18.152 10.555-14.325-24.64zm0 0"/></clipPath><clipPath id="prefix__bb"><path d="M31.219 221.023l14.32 24.641-18.152 10.555-14.325-24.64zm0 0"/></clipPath><clipPath id="prefix__bc"><path d="M13 221h22v20H13zm0 0"/></clipPath><clipPath id="prefix__bd"><path d="M31.219 221.023l14.32 24.641-18.152 10.555-14.325-24.64zm0 0"/></clipPath><clipPath id="prefix__be"><path d="M31.219 221.023l14.32 24.641-18.152 10.555-14.325-24.64zm0 0"/></clipPath><clipPath id="prefix__bf"><path d="M8.879 184h21v16.438h-21zm0 0"/></clipPath><clipPath id="prefix__bg"><path d="M8.879 171.938h21V188h-21zm0 0"/></clipPath><clipPath id="prefix__bh"><path d="M18 126h21v20H18zm0 0"/></clipPath><clipPath id="prefix__bi"><path d="M46.379 127.648l-16.234 23.426-17.262-11.965 16.234-23.422zm0 0"/></clipPath><clipPath id="prefix__bj"><path d="M46.379 127.648l-16.234 23.426-17.262-11.965 16.234-23.422zm0 0"/></clipPath><clipPath id="prefix__bk"><path d="M25 116h21v20H25zm0 0"/></clipPath><clipPath id="prefix__bl"><path d="M46.379 127.648l-16.234 23.426-17.262-11.965 16.234-23.422zm0 0"/></clipPath><clipPath id="prefix__bm"><path d="M46.379 127.648l-16.234 23.426-17.262-11.965 16.234-23.422zm0 0"/></clipPath><clipPath id="prefix__bn"><path d="M44 90h20v21H44zm0 0"/></clipPath><clipPath id="prefix__bo"><path d="M72.52 97.332L51.426 116.5l-14.121-15.543 21.093-19.168zm0 0"/></clipPath><clipPath id="prefix__bp"><path d="M72.52 97.332L51.426 116.5l-14.121-15.543 21.093-19.168zm0 0"/></clipPath><clipPath id="prefix__bq"><path d="M53 82h20v20H53zm0 0"/></clipPath><clipPath id="prefix__br"><path d="M72.52 97.332L51.426 116.5l-14.121-15.543 21.093-19.168zm0 0"/></clipPath><clipPath id="prefix__bs"><path d="M72.52 97.332L51.426 116.5l-14.121-15.543 21.093-19.168zm0 0"/></clipPath><clipPath id="prefix__bt"><path d="M74 67h20v23H74zm0 0"/></clipPath><clipPath id="prefix__bu"><path d="M104.922 81.059L79.344 93.633l-9.266-18.848 25.578-12.57zm0 0"/></clipPath><clipPath id="prefix__bv"><path d="M104.922 81.059L79.344 93.633l-9.266-18.848 25.578-12.57zm0 0"/></clipPath><clipPath id="prefix__bw"><path d="M85 62h20v23H85zm0 0"/></clipPath><clipPath id="prefix__bx"><path d="M104.922 81.059L79.344 93.633l-9.266-18.848 25.578-12.57zm0 0"/></clipPath><clipPath id="prefix__by"><path d="M104.922 81.059L79.344 93.633l-9.266-18.848 25.578-12.57zm0 0"/></clipPath><clipPath id="prefix__bz"><path d="M117.785 57.016H135V78h-17.215zm0 0"/></clipPath><clipPath id="prefix__bA"><path d="M130 57.016h16.285V78H130zm0 0"/></clipPath><clipPath id="prefix__bB"><path d="M154 56h17v22h-17zm0 0"/></clipPath><clipPath id="prefix__bC"><path d="M182.512 78.012l-28.489-.856.633-20.992 28.489.86zm0 0"/></clipPath><clipPath id="prefix__bD"><path d="M182.512 78.012l-28.489-.856.633-20.992 28.489.86zm0 0"/></clipPath><clipPath id="prefix__bE"><path d="M166 56h18v22h-18zm0 0"/></clipPath><clipPath id="prefix__bF"><path d="M182.512 78.012l-28.489-.856.633-20.992 28.489.86zm0 0"/></clipPath><clipPath id="prefix__bG"><path d="M182.512 78.012l-28.489-.856.633-20.992 28.489.86zm0 0"/></clipPath><clipPath id="prefix__bH"><path d="M266 56h17v22h-17zm0 0"/></clipPath><clipPath id="prefix__bI"><path d="M294.164 78.012l-28.488-.856.633-20.992 28.488.86zm0 0"/></clipPath><clipPath id="prefix__bJ"><path d="M294.164 78.012l-28.488-.856.633-20.992 28.488.86zm0 0"/></clipPath><clipPath id="prefix__bK"><path d="M278 56h17v22h-17zm0 0"/></clipPath><clipPath id="prefix__bL"><path d="M294.164 78.012l-28.488-.856.633-20.992 28.488.86zm0 0"/></clipPath><clipPath id="prefix__bM"><path d="M294.164 78.012l-28.488-.856.633-20.992 28.488.86zm0 0"/></clipPath><clipPath id="prefix__bN"><path d="M229 56h17v22h-17zm0 0"/></clipPath><clipPath id="prefix__bO"><path d="M257.04 78.012l-28.49-.856.634-20.992 28.488.86zm0 0"/></clipPath><clipPath id="prefix__bP"><path d="M257.04 78.012l-28.49-.856.634-20.992 28.488.86zm0 0"/></clipPath><clipPath id="prefix__bQ"><path d="M241 56h17v22h-17zm0 0"/></clipPath><clipPath id="prefix__bR"><path d="M257.04 78.012l-28.49-.856.634-20.992 28.488.86zm0 0"/></clipPath><clipPath id="prefix__bS"><path d="M257.04 78.012l-28.49-.856.634-20.992 28.488.86zm0 0"/></clipPath><clipPath id="prefix__bT"><path d="M192 56h17v22h-17zm0 0"/></clipPath><clipPath id="prefix__bU"><path d="M220.523 78.012l-28.488-.856.633-20.992 28.488.86zm0 0"/></clipPath><clipPath id="prefix__bV"><path d="M220.523 78.012l-28.488-.856.633-20.992 28.488.86zm0 0"/></clipPath><clipPath id="prefix__bW"><path d="M204 56h18v22h-18zm0 0"/></clipPath><clipPath id="prefix__bX"><path d="M220.523 78.012l-28.488-.856.633-20.992 28.488.86zm0 0"/></clipPath><clipPath id="prefix__bY"><path d="M220.523 78.012l-28.488-.856.633-20.992 28.488.86zm0 0"/></clipPath></defs><g clip-path="url(#prefix__a)"><g clip-path="url(#prefix__b)"><path fill="#737373" d="M303.75 52.777V323.04H-.133V52.777zm0 0"/></g></g><g clip-path="url(#prefix__c)"><g clip-path="url(#prefix__d)"><path fill="none" d="M7.918 142.824C3.137 156.668 0 172.406 0 187.852c0 15.445 2.687 30.304 7.469 44.003.152.29.152.583.3.875 19.122 51.434 69.622 89.32 127.887 90.047H303.75v-270H135.781c-58.687.73-109.187 38.032-127.863 90.047" stroke="#000" stroke-width="3"/></g></g><g clip-path="url(#prefix__e)"><g clip-path="url(#prefix__f)"><g clip-path="url(#prefix__g)"><path fill="#a6a6a6" d="M248.676 295.852l-215.692-4.305L37.29 75.852l215.695 4.308zm0 0"/></g></g></g><g clip-path="url(#prefix__h)"><g clip-path="url(#prefix__i)"><g clip-path="url(#prefix__j)"><g clip-path="url(#prefix__k)"><path fill="none" d="M140.7 293.695c59.632 1.192 108.94-46.187 110.132-105.82 1.191-59.637-46.187-108.945-105.824-110.137-59.633-1.191-108.941 46.188-110.133 105.825-1.191 59.632 46.188 108.94 105.824 110.132" stroke="#000" stroke-width="6"/></g></g></g></g><g clip-path="url(#prefix__l)"><g clip-path="url(#prefix__m)"><g clip-path="url(#prefix__n)"><path fill="#ffde59" d="M153.57 252.648l-17.613.094-.164-31.926 17.613-.09zm0 0"/></g></g></g><g clip-path="url(#prefix__o)"><g clip-path="url(#prefix__p)"><g clip-path="url(#prefix__q)"><path fill="#ffde59" d="M120.484 163.98l-8.894 15.204-27.555-16.121 8.895-15.204zm0 0"/></g></g></g><g clip-path="url(#prefix__r)"><g clip-path="url(#prefix__s)"><g clip-path="url(#prefix__t)"><path fill="#ffde59" d="M165.742 126.969l42.27 73.113-63.407 36.66-42.27-73.113zm0 0"/></g></g></g><g clip-path="url(#prefix__u)"><g clip-path="url(#prefix__v)"><g clip-path="url(#prefix__w)"><path fill="#ffde59" d="M189.285 151.918l8.817 15.25-27.637 15.98-8.817-15.25zm0 0"/></g></g></g><g clip-path="url(#prefix__x)"><g clip-path="url(#prefix__y)"><g clip-path="url(#prefix__z)"><path fill="#ffde59" d="M173.777 138.297l48.782-26.727 26.722 48.785-48.781 26.723zm0 0"/></g></g></g><g clip-path="url(#prefix__A)"><g clip-path="url(#prefix__B)"><g clip-path="url(#prefix__C)"><g clip-path="url(#prefix__D)"><path d="M199.555 127.59c-4.871 2.668-8.438 6.531-10.7 11.586l-5.464-2.446c2.808-6.28 7.238-11.078 13.285-14.39zm-11.66 14.082c-1.711 5.285-1.657 10.535.16 15.75l-5.653 1.973c-2.261-6.485-2.328-13.004-.203-19.57zm1.175 18.219c.207.441.43.875.664 1.304 2.418 4.41 5.844 7.766 10.286 10.07l-2.758 5.313c-5.52-2.863-9.778-7.031-12.778-12.508a28.485 28.485 0 01-.824-1.613zm13.387 12.476c5.184 2.016 10.43 2.27 15.746.758l1.637 5.758c-6.602 1.879-13.121 1.566-19.55-.934zm18.254-.105a24.863 24.863 0 002.629-1.25c3.957-2.168 7.082-5.176 9.375-9.028l5.144 3.063c-2.851 4.785-6.73 8.527-11.64 11.215a30.253 30.253 0 01-3.258 1.547zm13.242-12.645c2.313-5.05 2.867-10.273 1.672-15.668l5.848-1.293c1.484 6.7.793 13.184-2.075 19.453zm.953-18.242a25.042 25.042 0 00-1.746-3.969c-1.922-3.508-4.527-6.375-7.812-8.597l3.355-4.961c4.086 2.765 7.32 6.328 9.707 10.683a30.615 30.615 0 012.164 4.922zm-11.847-13.941c-4.907-2.602-10.09-3.461-15.547-2.582l-.953-5.91c6.777-1.094 13.214-.024 19.304 3.199zm-18.164-2.012a24.589 24.589 0 00-5.34 2.168l-2.88-5.25a30.57 30.57 0 016.634-2.692zm0 0"/></g></g></g></g><g clip-path="url(#prefix__E)"><g clip-path="url(#prefix__F)"><g clip-path="url(#prefix__G)"><path fill="#ffde59" d="M66.152 110.668l48.176 27.8-27.8 48.177-48.176-27.801zm0 0"/></g></g></g><g clip-path="url(#prefix__H)"><g clip-path="url(#prefix__I)"><g clip-path="url(#prefix__J)"><g clip-path="url(#prefix__K)"><path d="M88.691 127.129c-4.812-2.774-9.964-3.817-15.457-3.121l-.75-5.942c6.825-.859 13.227.43 19.2 3.88zm-18.09-2.645c-5.406 1.286-9.863 4.059-13.374 8.32l-4.622-3.808c4.364-5.297 9.903-8.742 16.614-10.336zm-14.956 10.47c-.27.405-.524.82-.77 1.245-2.512 4.356-3.602 9.028-3.262 14.02l-5.972.402c-.422-6.203.93-12.008 4.047-17.414.304-.523.62-1.039.953-1.543zm-3.708 17.921c.97 5.477 3.481 10.09 7.532 13.844l-4.07 4.394c-5.036-4.668-8.153-10.398-9.36-17.195zm9.575 15.543c.777.578 1.586 1.11 2.433 1.598 3.907 2.254 8.098 3.359 12.582 3.316l.055 5.988c-5.57.051-10.781-1.32-15.633-4.12a31.47 31.47 0 01-3.011-1.977zm17.68 4.746c5.519-.652 10.269-2.887 14.257-6.71l4.145 4.32c-4.953 4.75-10.852 7.53-17.703 8.335zm16.081-8.664a24.537 24.537 0 002.485-3.555c2-3.465 3.097-7.18 3.289-11.14l5.98.289c-.238 4.93-1.601 9.543-4.082 13.844a30.482 30.482 0 01-3.082 4.406zm5.762-17.363c-.328-5.547-2.285-10.422-5.87-14.63l4.554-3.882c4.453 5.223 6.886 11.277 7.293 18.156zM93.32 130.57a24.904 24.904 0 00-4.629-3.441l2.993-5.184a30.536 30.536 0 015.742 4.27zm0 0"/></g></g></g></g><g clip-path="url(#prefix__L)"><g clip-path="url(#prefix__M)"><g clip-path="url(#prefix__N)"><path fill="#ffde59" d="M106.707 251.645l48.785-26.727 26.723 48.781-48.781 26.727zm0 0"/></g></g></g><g clip-path="url(#prefix__O)"><g clip-path="url(#prefix__P)"><g clip-path="url(#prefix__Q)"><g clip-path="url(#prefix__R)"><path d="M132.484 240.938c-4.87 2.667-8.437 6.527-10.699 11.582l-5.465-2.446c2.809-6.277 7.239-11.074 13.29-14.39zm-11.656 14.078c-1.71 5.289-1.66 10.539.16 15.754l-5.652 1.968c-2.262-6.48-2.328-13.004-.203-19.566zM122 273.238c.21.438.43.875.668 1.305 2.414 4.406 5.844 7.766 10.281 10.07l-2.758 5.313c-5.52-2.863-9.777-7.031-12.777-12.508-.289-.531-.562-1.07-.824-1.613zm13.39 12.477c5.18 2.015 10.43 2.27 15.743.758l1.64 5.757c-6.605 1.88-13.12 1.567-19.554-.933zm18.255-.106a25.658 25.658 0 002.628-1.25c3.957-2.168 7.079-5.175 9.372-9.027l5.144 3.059c-2.848 4.789-6.726 8.527-11.64 11.218a30.253 30.253 0 01-3.258 1.547zm13.238-12.644c2.312-5.05 2.87-10.274 1.676-15.668l5.843-1.297c1.485 6.7.793 13.184-2.074 19.457zm.953-18.242a25.042 25.042 0 00-1.746-3.97c-1.922-3.507-4.528-6.374-7.813-8.6l3.356-4.958c4.086 2.766 7.324 6.328 9.707 10.68a31.298 31.298 0 012.168 4.922zm-11.844-13.942c-4.91-2.601-10.094-3.46-15.55-2.582l-.954-5.91c6.782-1.094 13.215-.027 19.305 3.2zm-18.164-2.015a24.712 24.712 0 00-5.344 2.172l-2.875-5.254a30.724 30.724 0 016.63-2.688zm0 0"/></g></g></g></g><g clip-path="url(#prefix__S)"><g clip-path="url(#prefix__T)"><g clip-path="url(#prefix__U)"><path fill="#707070" d="M214.074 139.79l6.988 12.081-12.085 6.988-6.989-12.086zm0 0"/></g></g></g><g clip-path="url(#prefix__V)"><g clip-path="url(#prefix__W)"><g clip-path="url(#prefix__X)"><path fill="#707070" d="M85.871 146.094l-6.976 12.09-12.094-6.977 6.98-12.09zm0 0"/></g></g></g><g clip-path="url(#prefix__Y)"><g clip-path="url(#prefix__Z)"><g clip-path="url(#prefix__aa)"><path fill="#707070" d="M148.043 253.113l6.988 12.086-12.086 6.985-6.984-12.082zm0 0"/></g></g></g><g clip-path="url(#prefix__ab)"><g clip-path="url(#prefix__ac)"><g clip-path="url(#prefix__ad)"><g clip-path="url(#prefix__ae)"><path fill="#fff" d="M184.473 238.621c.02.04.054.055.093.059.063.132-.105.293.059.41.16.426.508.453.879.418 1.047-.102 2.05-.367 3.043-.7 3.543-1.18 6.664-3.042 9.484-5.476 4.922-4.254 7.832-9.644 9.29-15.883.675-2.894.827-5.851.843-8.82.008-1.746-.09-3.484-.144-5.23-.028-.06-.06-.122-.09-.184.03-.07.043-.16.093-.203l.004-.004c.04-.031.09.027.094.09.434.535.738 1.14 1.016 1.765.187.426.402.828.734 1.16.399.918 1.117 1.278 1.996 1.032.125-1.989-.746-3.64-1.773-5.25-.38-.598-.719-1.22-1.07-1.836-.833-1.48-.797-1.219-2.18-1.262a2.818 2.818 0 00-.914.148c-.11.036-.207.075-.258.184-.352.012-.48.277-.59.54-.332.788-.648 1.573-.973 2.362-.164.121-.214.301-.257.489-.172.113-.22.297-.274.476-.137.059-.164.2-.23.309-.953 1.465-2.059 2.8-3.391 3.945-.102.086-.191.18-.289.27-.113.105-.246.226-.172.39.059.121.242.18.352.149.492-.149.996.031 1.488-.067.215-.043.394-.172.578-.308 1.402-1.024 2.578-2.266 3.633-3.633.094-.125.172-.262.285-.363.137-.114.242-.016.32.109-.093.152-.082.293.024.43-.059.152-.102.308.02.453-.036.027-.036.058 0 .086-.06.144-.09.289.011.43-.016.105-.05.214-.05.32 0 1.187.019 2.37.003 3.554-.012 1.079-.055 2.153-.09 3.227-.043.281-.097.563-.129.844-.324 2.746-.976 5.406-2.03 7.96-.376.915-.778 1.813-1.173 2.72-.175.124-.218.316-.265.507-.168.117-.211.297-.258.48-.172.098-.203.278-.258.442-.121.055-.16.156-.172.278-.043.023-.058.058-.055.105-.128.062-.156.203-.23.305-.36.52-.625 1.101-1.05 1.578.023.07-.028.246.152.086.117-.11.164-.098.18-.047.011.047.007.12.007.183-1.187 1.602-2.559 3.043-4.027 4.391-.149.113-.297.227-.442.34-.886.672-1.77 1.348-2.652 2.023a.152.152 0 00-.113.036.298.298 0 00-.051.066c-.074 0-.125.035-.156.105a.148.148 0 00-.157.102c-.078-.008-.129.031-.156.101-.078-.003-.133.028-.16.098-.078-.008-.133.028-.16.098v.004c-.078-.012-.133.023-.16.093-.055.028-.11.06-.16.094l-.004.004c-.078-.008-.13.02-.16.094h-.004c-.079-.008-.13.023-.16.094l-.005.004h-.003.004c-.079-.012-.13.02-.16.09l-.005.003c-.074-.011-.128.02-.156.094h-.004c-.078-.012-.133.02-.164.09-.52.254-1.039.504-1.562.754-.227.215-.528.297-.809.418a.29.29 0 01-.062-.078c-.024-.043-.032-.09-.024-.145-.219.07-.445.121-.62.281a.383.383 0 01-.177.125c.059-.043.118-.082.176-.125-.074.008-.144.024-.168.106-.113-.031-.207.004-.289.082-.074-.02-.129-.004-.168.066-.078 0-.144.012-.187.086-.04-.008-.07-.004-.102.028a1.449 1.449 0 00-.629.222c-.16.028-.32.051-.45.156-.108-.02-.194.036-.284.082-.63.11-1.23.333-1.91.325.101.215-.036.433.164.566zm21.851-33.91l-.004.004h-.004c.004-.004.004-.004.008-.004zm-14.207 31.074l.043-.012c-.004 0-.004.004-.008.004-.011.008-.023.016-.035.02v-.012zm1.547-1.375v.004c.004.004.008.008.008.012l.008.015-.016-.027c-.004-.004-.004 0-.004 0s0-.004.004-.004zm-1.55 1.445c0-.02.003-.039.003-.054a.085.085 0 00.031-.02.103.103 0 00-.035.074zm.113-.113c.011-.008.023-.015.039-.02 0 0 0-.003.004 0a.144.144 0 00-.043.02zm-6.559 3.067l-.004.004h-.008c.004 0 .008-.004.012-.004zm.281-.051c0 .004.004.004.008 0h-.008zm2.313-1.633c0 .012 0 .027.004.043-.008-.004-.016-.004-.028-.008l.024-.035zm-.489.117c-.02.012-.046.016-.074.012h.004c.024 0 .05 0 .07-.012zm0 0"/></g></g></g></g><g clip-path="url(#prefix__af)"><g clip-path="url(#prefix__ag)"><g clip-path="url(#prefix__ah)"><g clip-path="url(#prefix__ai)"><path fill="#fff" d="M192.387 235.207c.054-.031.105-.062.16-.09-.078-.012-.133.02-.16.09zm0 0"/></g></g></g></g><g clip-path="url(#prefix__aj)"><g clip-path="url(#prefix__ak)"><g clip-path="url(#prefix__al)"><g clip-path="url(#prefix__am)"><path fill="#fff" d="M80.57 198.898a.104.104 0 00-.101.047c-.145-.027-.18-.257-.371-.187-.438-.117-.66.148-.848.476-.52.91-.879 1.887-1.18 2.887-1.074 3.578-1.347 7.203-.976 10.91.64 6.473 3.375 11.957 7.64 16.739 1.977 2.218 4.309 4.046 6.727 5.77 1.422 1.007 2.898 1.929 4.355 2.89l.204.03c.043.067.109.126.113.196v.004c.004.05-.074.059-.125.024-.688.046-1.36-.051-2.028-.184-.457-.094-.91-.148-1.37-.066-.985-.207-1.688.175-1.997 1.039 1.555 1.246 3.407 1.484 5.313 1.57.71.035 1.414.113 2.12.184 1.692.168 1.458.05 2.286-1.059a2.94 2.94 0 00.406-.832c.035-.11.055-.211-.004-.316.196-.297.051-.551-.101-.793-.453-.723-.914-1.438-1.371-2.157-.004-.207-.121-.351-.25-.492.004-.203-.117-.348-.23-.496.027-.144-.075-.25-.122-.371-.652-1.621-1.11-3.293-1.277-5.04-.012-.132-.035-.26-.055-.39-.02-.156-.043-.336-.219-.367-.132-.023-.285.094-.324.203-.164.488-.597.797-.8 1.254-.09.203-.087.426-.083.649.032 1.738.368 3.417.883 5.062.043.148.113.293.13.445.015.176-.126.203-.274.196-.067-.16-.192-.235-.364-.227-.093-.137-.195-.258-.382-.246-.004-.043-.028-.059-.07-.05-.083-.13-.184-.24-.36-.235-.074-.078-.145-.164-.23-.227-.97-.683-1.95-1.347-2.91-2.043-.876-.629-1.727-1.285-2.587-1.93-.207-.195-.402-.402-.617-.59-2.058-1.847-3.86-3.91-5.34-6.241-.531-.836-1.035-1.684-1.547-2.528 0-.215-.132-.36-.265-.508.004-.207-.121-.347-.242-.488.015-.195-.114-.324-.215-.465.027-.129-.035-.222-.125-.3.004-.047-.012-.083-.055-.102.023-.145-.074-.25-.117-.367-.219-.594-.543-1.145-.688-1.766-.07-.02-.183-.164-.156.074.02.16-.016.188-.066.172-.043-.015-.106-.062-.153-.094-.625-1.898-1.015-3.847-1.273-5.824l-.024-.558c-.039-1.11-.082-2.223-.125-3.332a.158.158 0 00.032-.114.182.182 0 00-.024-.078.158.158 0 00.004-.187.153.153 0 00.008-.188c.047-.062.05-.125.008-.187.047-.063.055-.125.012-.188.05-.062.05-.12.007-.187h.004c.051-.059.055-.121.012-.184v-.004c.008-.062.012-.12.016-.183v-.008c.05-.055.058-.117.015-.18v-.008c.051-.058.059-.117.016-.183v-.004-.004.004c.055-.059.058-.121.015-.184v-.004c.055-.058.06-.12.02-.183v-.004c.05-.059.059-.121.02-.188l.28-1.707c-.042-.312.063-.605.126-.902a.212.212 0 01.097-.008c.051.008.094.028.133.063.07-.22.16-.434.13-.668a.366.366 0 010-.215c0 .07-.005.14 0 .215.034-.067.062-.133.01-.2.09-.074.114-.171.099-.285.058-.047.078-.101.043-.172.046-.062.07-.125.039-.203a.114.114 0 00.035-.097c.11-.203.172-.414.18-.645.07-.144.14-.289.128-.457.078-.078.086-.18.098-.281.273-.574.437-1.2.836-1.75-.234-.04-.332-.278-.559-.192zm15.153 37.387l-.004-.004v0c.004 0 .004 0 .004-.004v.008zm-17.235-29.5l-.011.043v-.012c0-.015 0-.027.003-.039l.008.008zm.235 2.055h-.004c-.004-.004-.008 0-.016-.004l-.016-.004.036.008v-.004.004zm-.29-2.102a.415.415 0 01.044.035c0 .012-.004.028-.004.04a.1.1 0 00-.04-.075zm.028.16c0 .012 0 .028-.004.043l-.004.004c.004-.02.008-.035.008-.047zm1.266-7.128v-.004-.004c.003 0 .003-.004.003-.004 0 .004 0 .008-.003.012zm-.118.257a.008.008 0 00-.007.008c.003-.004.003-.008.007-.008zm.004 2.832a.122.122 0 00-.039-.02c.008-.007.016-.01.02-.019l.02.04zm.184-.464c0-.028.012-.047.031-.07v.003a.149.149 0 00-.031.067zm0 0"/></g></g></g></g><g clip-path="url(#prefix__an)"><g clip-path="url(#prefix__ao)"><g clip-path="url(#prefix__ap)"><g clip-path="url(#prefix__aq)"><path fill="#fff" d="M78.805 207.336a2.908 2.908 0 01-.016.184c.055-.06.059-.122.016-.184zm0 0"/></g></g></g></g><g clip-path="url(#prefix__ar)"><g clip-path="url(#prefix__as)"><g clip-path="url(#prefix__at)"><g clip-path="url(#prefix__au)"><path fill="#fff" d="M164.621 128.824a.121.121 0 00.02-.11c.101-.1.312 0 .367-.194.344-.293.25-.63.09-.97-.457-.945-1.051-1.8-1.703-2.616-2.325-2.918-5.149-5.211-8.407-7.024-5.683-3.156-11.75-4.039-18.11-3.262-2.944.36-5.776 1.235-8.57 2.243-1.64.59-3.242 1.28-4.859 1.93-.047.05-.094.1-.144.148-.075-.004-.164.015-.223-.016l-.004-.004c-.047-.027-.008-.094.05-.117.356-.59.821-1.09 1.31-1.562.335-.32.64-.66.835-1.086.73-.692.82-1.489.286-2.235-1.91.567-3.16 1.957-4.32 3.473-.434.562-.9 1.098-1.36 1.637-1.102 1.293-.871 1.168-.43 2.48.098.293.262.563.45.809.07.09.144.168.261.175.133.332.426.36.711.372.852.039 1.703.07 2.555.101.168.113.355.098.543.074.168.121.355.106.543.094.101.106.246.082.37.11 1.704.39 3.337.968 4.868 1.828.117.062.238.117.355.175.141.075.297.157.422.028.098-.098.09-.285.02-.38-.305-.413-.313-.948-.574-1.374-.114-.188-.297-.313-.485-.438-1.445-.965-3.015-1.644-4.664-2.16-.148-.047-.304-.07-.437-.144-.153-.09-.098-.223-.008-.336.176.035.305-.028.398-.172.16 0 .32-.012.418-.176.04.023.063.012.082-.027.153.004.301-.016.395-.16.11-.02.219-.024.32-.063 1.113-.406 2.219-.832 3.336-1.227 1.016-.359 2.04-.687 3.059-1.023.281-.059.562-.102.84-.172 2.687-.637 5.41-.941 8.171-.828.989.04 1.973.11 2.957.168.176.121.372.094.57.07.165.121.352.102.54.082.152.125.328.094.504.09.09.094.203.098.316.067.04.03.074.035.117.011.106.102.246.082.368.114.613.16 1.25.207 1.843.441.055-.043.239-.055.028-.168-.141-.074-.149-.121-.106-.156.04-.028.113-.047.168-.07 1.914.566 3.738 1.359 5.512 2.273.156.098.312.2.469.3.937.598 1.875 1.196 2.808 1.794a.17.17 0 00.078.093.23.23 0 00.078.024c.024.07.075.105.149.11.023.073.074.109.152.112.02.075.07.114.149.114.023.074.07.117.148.117.02.074.07.113.149.113v.004c.02.074.066.113.144.113v.004c.047.04.094.078.145.118l.004.003c.019.075.062.114.14.118l.004.004c.02.074.066.113.14.113l.008.004v0c.016.078.063.117.141.12h.004c.016.079.063.118.14.122.02.078.067.117.145.121l1.242 1.207c.282.14.461.398.672.617a.217.217 0 01-.054.086.22.22 0 01-.125.07c.14.184.265.38.476.489.07.027.133.062.176.12-.055-.038-.113-.081-.176-.12.035.066.074.129.156.12.012.118.078.192.18.243.004.078.04.125.117.137.024.074.063.129.145.144.008.04.023.07.058.09.106.203.246.375.426.512.082.14.16.285.305.367.02.11.101.172.172.242.32.551.738 1.04.96 1.684.169-.172.423-.117.481-.352zm-39.355-8.86h0s0 .005.004.005c-.004 0-.004-.004-.004-.004zm34.062 2.653a.223.223 0 01-.027-.031c.004 0 .004.004.008.004.011.008.02.015.03.027h-.01zm-1.824-.976h.004c.004-.004.004-.012.008-.012l.015-.012-.023.024v.004c0-.004 0-.004-.004-.004zm1.89.96l-.05.012-.031-.023c.023.015.05.02.082.012zm-.144-.066c-.012-.012-.023-.02-.035-.031.004 0 0 0 0-.004l.035.035zm5.133 5.102c.004 0 .004 0 .008.004v.004c-.004 0-.004-.004-.008-.008zm-.14-.246c0-.004 0-.004-.005-.008 0 .004.004.008.004.008zm-2.333-1.61a.182.182 0 00.04-.02l.003.028c-.016-.004-.027-.004-.043-.008zm.281.414c.016.016.028.04.036.067-.012-.024-.02-.047-.036-.067zm0 0"/></g></g></g></g><g clip-path="url(#prefix__av)"><g clip-path="url(#prefix__aw)"><g clip-path="url(#prefix__ax)"><g clip-path="url(#prefix__ay)"><path fill="#fff" d="M158.691 122.566l-.14-.117c.02.074.066.114.14.117zm0 0"/></g></g></g></g><path transform="matrix(.74987 .00605 -.00605 .74998 136.49 77.868)" fill="none" d="M-.002 1.999L223.036 2" stroke="#000" stroke-width="4"/><path transform="matrix(.75062 -.00364 .00364 .75 135.126 291.168)" fill="none" d="M0 2l224.814.002" stroke="#000" stroke-width="4"/><g clip-path="url(#prefix__az)"><path fill="#38b6ff" d="M294.695 306.992l-8.492-9.492a.946.946 0 00-.703-.316h-5.664a.95.95 0 00-.863.562.956.956 0 00.164 1.02l7.922 8.863-7.922 8.855a.95.95 0 00.7 1.586h5.663c.266 0 .52-.117.703-.312l8.492-9.496c.32-.36.32-.91 0-1.27zm0 0"/></g><g clip-path="url(#prefix__aA)"><path fill="#38b6ff" d="M282.426 306.992l-8.492-9.492a.94.94 0 00-.704-.316h-5.66a.947.947 0 00-.703 1.582l7.926 8.863-7.926 8.855a.955.955 0 00-.16 1.024.94.94 0 00.863.562h5.66c.27 0 .52-.117.704-.312l8.492-9.496a.95.95 0 000-1.27zm0 0"/></g><g clip-path="url(#prefix__aB)"><path fill="#5ce1e6" d="M257.57 306.992l-8.492-9.492a.946.946 0 00-.703-.316h-5.664a.95.95 0 00-.863.562.962.962 0 00.16 1.02l7.926 8.863-7.926 8.855a.95.95 0 00.703 1.586h5.664c.266 0 .52-.117.703-.312l8.492-9.496c.32-.36.32-.91 0-1.27zm0 0"/></g><g clip-path="url(#prefix__aC)"><path fill="#5ce1e6" d="M245.3 306.992l-8.491-9.492a.94.94 0 00-.704-.316h-5.66a.947.947 0 00-.703 1.582l7.926 8.863-7.926 8.855a.955.955 0 00-.16 1.024.94.94 0 00.863.562h5.66c.27 0 .52-.117.704-.312l8.492-9.496a.95.95 0 000-1.27zm0 0"/></g><g clip-path="url(#prefix__aD)"><path fill="#38b6ff" d="M220.445 306.992l-8.492-9.492a.946.946 0 00-.703-.316h-5.664a.95.95 0 00-.863.562.956.956 0 00.164 1.02l7.922 8.863-7.922 8.855a.95.95 0 00.7 1.586h5.663c.266 0 .52-.117.703-.312l8.492-9.496c.32-.36.32-.91 0-1.27zm0 0"/></g><g clip-path="url(#prefix__aE)"><path fill="#38b6ff" d="M208.176 306.992l-8.492-9.492a.94.94 0 00-.704-.316h-5.66a.947.947 0 00-.703 1.582l7.926 8.863-7.926 8.855a.955.955 0 00-.16 1.024.94.94 0 00.863.562h5.66c.27 0 .52-.117.704-.312l8.492-9.496a.95.95 0 000-1.27zm0 0"/></g><g clip-path="url(#prefix__aF)"><path fill="#38b6ff" d="M183.32 306.992l-8.492-9.492a.946.946 0 00-.703-.316h-5.664a.95.95 0 00-.863.562.956.956 0 00.164 1.02l7.922 8.863-7.922 8.855a.95.95 0 00.7 1.586h5.663c.266 0 .52-.117.703-.312l8.492-9.496c.32-.36.32-.91 0-1.27zm0 0"/></g><g clip-path="url(#prefix__aG)"><path fill="#38b6ff" d="M171.05 306.992l-8.491-9.492a.94.94 0 00-.704-.316h-5.66a.947.947 0 00-.703 1.582l7.926 8.863-7.926 8.855a.955.955 0 00-.16 1.024.94.94 0 00.863.562h5.66c.27 0 .52-.117.704-.312l8.492-9.496a.95.95 0 000-1.27zm0 0"/></g><g clip-path="url(#prefix__aH)"><g clip-path="url(#prefix__aI)"><g clip-path="url(#prefix__aJ)"><path fill="#38b6ff" d="M146.184 306.746l-8.66-9.344a.948.948 0 00-.708-.3l-5.66.097a.947.947 0 00-.851.578.956.956 0 00.175 1.02l8.083 8.719-7.77 8.996a.952.952 0 00.73 1.574l5.665-.102a.96.96 0 00.695-.324l8.324-9.644a.954.954 0 00-.023-1.27zm0 0"/></g></g></g><g clip-path="url(#prefix__aK)"><g clip-path="url(#prefix__aL)"><g clip-path="url(#prefix__aM)"><path fill="#38b6ff" d="M133.918 306.96l-8.66-9.339a.937.937 0 00-.707-.305l-5.66.102a.95.95 0 00-.856.578.95.95 0 00.18 1.016l8.082 8.718-7.77 8.997a.959.959 0 00-.14 1.027c.16.34.5.555.87.547l5.665-.098a.979.979 0 00.695-.328l8.324-9.64a.96.96 0 00-.023-1.274zm0 0"/></g></g></g><g clip-path="url(#prefix__aN)"><g clip-path="url(#prefix__aO)"><g clip-path="url(#prefix__aP)"><path fill="#5ce1e6" d="M99.406 301.191l-2.023-12.574a.945.945 0 00-.422-.644l-4.766-3.059a.949.949 0 00-1.445.953l1.887 11.738-11.453 3.176a.951.951 0 00-.266 1.715l4.766 3.059c.226.144.5.183.761.113l12.274-3.406a.954.954 0 00.687-1.07zm0 0"/></g></g></g><g clip-path="url(#prefix__aQ)"><g clip-path="url(#prefix__aR)"><g clip-path="url(#prefix__aS)"><path fill="#5ce1e6" d="M89.078 294.57l-2.023-12.578a.94.94 0 00-.422-.644l-4.766-3.055a.942.942 0 00-1.027.004.966.966 0 00-.418.95l1.887 11.733-11.454 3.18a.954.954 0 00-.687.774.945.945 0 00.422.937l4.77 3.059c.222.144.5.183.757.117l12.278-3.406a.957.957 0 00.683-1.07zm0 0"/></g></g></g><g clip-path="url(#prefix__aT)"><g clip-path="url(#prefix__aU)"><g clip-path="url(#prefix__aV)"><path fill="#38b6ff" d="M61.434 282.32l.468-12.73a.94.94 0 00-.289-.715l-4.078-3.93a.945.945 0 00-1.012-.191.955.955 0 00-.593.848l-.438 11.878-11.851.883a.942.942 0 00-.825.625.94.94 0 00.23 1.004l4.079 3.926a.951.951 0 00.723.262l12.703-.946a.957.957 0 00.883-.914zm0 0"/></g></g></g><g clip-path="url(#prefix__aW)"><g clip-path="url(#prefix__aX)"><g clip-path="url(#prefix__aY)"><path fill="#38b6ff" d="M52.598 273.809l.468-12.73a.96.96 0 00-.289-.716l-4.078-3.925a.948.948 0 00-1.605.652l-.438 11.879-11.851.883a.948.948 0 00-.825.625.94.94 0 00.23 1.003l4.08 3.93a.96.96 0 00.722.262l12.703-.95a.957.957 0 00.883-.913zm0 0"/></g></g></g><g clip-path="url(#prefix__aZ)"><g clip-path="url(#prefix__ba)"><g clip-path="url(#prefix__bb)"><path fill="#38b6ff" d="M36.793 250.25l3.941-12.113a.938.938 0 00-.082-.766l-2.843-4.894a.95.95 0 00-1.723.187L32.41 243.97l-11.64-2.399a.947.947 0 00-.965.375.944.944 0 00-.055 1.028l2.848 4.894c.132.235.359.395.62.45l12.477 2.574a.95.95 0 001.098-.641zm0 0"/></g></g></g><g clip-path="url(#prefix__bc)"><g clip-path="url(#prefix__bd)"><g clip-path="url(#prefix__be)"><path fill="#38b6ff" d="M30.629 239.645l3.941-12.114a.938.938 0 00-.082-.765l-2.843-4.895a.946.946 0 00-.922-.465.954.954 0 00-.801.653l-3.676 11.304-11.644-2.402a.958.958 0 00-.961.375.943.943 0 00-.055 1.031l2.844 4.895c.136.23.363.39.625.449l12.476 2.57a.952.952 0 001.098-.636zm0 0"/></g></g></g><g clip-path="url(#prefix__bf)"><path fill="#38b6ff" d="M20.016 200.004l9.492-8.492a.934.934 0 00.316-.703v-5.66a.945.945 0 00-.562-.864.946.946 0 00-1.02.16l-8.863 7.926-8.856-7.926a.955.955 0 00-1.023-.16.945.945 0 00-.563.863v5.66c0 .27.114.524.313.704l9.496 8.492a.95.95 0 001.27 0zm0 0"/></g><g clip-path="url(#prefix__bg)"><path fill="#38b6ff" d="M20.016 187.738l9.492-8.496a.932.932 0 00.316-.699v-5.664a.95.95 0 00-.562-.863.961.961 0 00-1.02.16l-8.863 7.926-8.856-7.926a.95.95 0 00-1.586.703v5.664c0 .266.114.52.313.7l9.496 8.495c.36.32.91.32 1.27 0zm0 0"/></g><g clip-path="url(#prefix__bh)"><g clip-path="url(#prefix__bi)"><g clip-path="url(#prefix__bj)"><path fill="#5ce1e6" d="M22.281 145.098l12.64-1.57a.951.951 0 00.661-.4l3.227-4.651a.95.95 0 00-.903-1.48L26.11 138.46l-2.765-11.559a.952.952 0 00-1.703-.324l-3.227 4.652a.948.948 0 00-.14.758l2.964 12.387a.949.949 0 001.043.723zm0 0"/></g></g></g><g clip-path="url(#prefix__bk)"><g clip-path="url(#prefix__bl)"><g clip-path="url(#prefix__bm)"><path fill="#5ce1e6" d="M29.27 135.016l12.64-1.575a.933.933 0 00.66-.394l3.223-4.656a.935.935 0 00.031-1.028.953.953 0 00-.93-.449l-11.796 1.465-2.766-11.559a.963.963 0 00-.75-.715.941.941 0 00-.953.387l-3.227 4.656a.936.936 0 00-.14.754l2.965 12.391a.95.95 0 001.043.723zm0 0"/></g></g></g><g clip-path="url(#prefix__bn)"><g clip-path="url(#prefix__bo)"><g clip-path="url(#prefix__bp)"><path fill="#38b6ff" d="M45.11 108.906l12.671 1.317a.941.941 0 00.73-.239l4.192-3.808a.948.948 0 00.258-.996.954.954 0 00-.805-.649l-11.824-1.226-.09-11.887a.948.948 0 00-1.586-.7l-4.191 3.805a.963.963 0 00-.309.707l.098 12.739c.004.484.375.89.855.937zm0 0"/></g></g></g><g clip-path="url(#prefix__bq)"><g clip-path="url(#prefix__br)"><g clip-path="url(#prefix__bs)"><path fill="#38b6ff" d="M54.188 100.656l12.671 1.317a.936.936 0 00.73-.239l4.192-3.808a.942.942 0 00.262-.996.958.958 0 00-.805-.649l-11.824-1.226-.09-11.887a.95.95 0 00-1.586-.7l-4.191 3.805a.955.955 0 00-.309.707l.098 12.739c.004.484.375.89.852.937zm0 0"/></g></g></g><g clip-path="url(#prefix__bt)"><g clip-path="url(#prefix__bu)"><g clip-path="url(#prefix__bv)"><path fill="#38b6ff" d="M75.379 84.59l11.808 4.773c.254.098.532.09.77-.027l5.082-2.5a.95.95 0 00.527-.883.958.958 0 00-.597-.848l-11.02-4.453 3.203-11.445a.946.946 0 00-.304-.988.943.943 0 00-1.024-.125l-5.082 2.496a.974.974 0 00-.492.59l-3.434 12.27a.957.957 0 00.563 1.14zm0 0"/></g></g></g><g clip-path="url(#prefix__bw)"><g clip-path="url(#prefix__bx)"><g clip-path="url(#prefix__by)"><path fill="#38b6ff" d="M86.387 79.176l11.812 4.773c.25.102.528.094.77-.027l5.082-2.496a.945.945 0 00.523-.887.945.945 0 00-.594-.844l-11.02-4.457 3.204-11.445a.958.958 0 00-.305-.988.952.952 0 00-1.023-.125l-5.082 2.5a.94.94 0 00-.492.59l-3.434 12.265a.953.953 0 00.559 1.14zm0 0"/></g></g></g><g clip-path="url(#prefix__bz)"><path fill="#38b6ff" d="M118.215 68.148l8.492 9.493a.946.946 0 00.703.316h5.664a.95.95 0 00.863-.562.956.956 0 00-.164-1.02l-7.921-8.86 7.921-8.859a.95.95 0 00-.7-1.586h-5.663a.971.971 0 00-.703.313l-8.492 9.496c-.32.36-.32.91 0 1.27zm0 0"/></g><g clip-path="url(#prefix__bA)"><path fill="#38b6ff" d="M130.484 68.148l8.493 9.493a.94.94 0 00.703.316h5.66a.947.947 0 00.703-1.582l-7.926-8.86 7.926-8.859a.955.955 0 00.16-1.023.94.94 0 00-.863-.563h-5.66c-.27 0-.52.117-.703.313l-8.493 9.496a.95.95 0 000 1.27zm0 0"/></g><g clip-path="url(#prefix__bB)"><g clip-path="url(#prefix__bC)"><g clip-path="url(#prefix__bD)"><path fill="#5ce1e6" d="M154.75 67.309l8.207 9.742a.947.947 0 00.691.34l5.66.168a.948.948 0 00.75-1.563l-7.656-9.094 8.188-8.613a.948.948 0 00.191-1.016.931.931 0 00-.844-.59l-5.66-.171a.955.955 0 00-.71.293l-8.778 9.234a.96.96 0 00-.039 1.27zm0 0"/></g></g></g><g clip-path="url(#prefix__bE)"><g clip-path="url(#prefix__bF)"><g clip-path="url(#prefix__bG)"><path fill="#5ce1e6" d="M167.016 67.676l8.203 9.746a.936.936 0 00.691.336l5.66.172a.948.948 0 00.75-1.563l-7.656-9.094 8.188-8.617a.946.946 0 00.191-1.015.944.944 0 00-.844-.59l-5.66-.172a.955.955 0 00-.71.293l-8.778 9.234a.955.955 0 00-.035 1.27zm0 0"/></g></g></g><g clip-path="url(#prefix__bH)"><g clip-path="url(#prefix__bI)"><g clip-path="url(#prefix__bJ)"><path fill="#38b6ff" d="M266.402 67.309l8.207 9.742a.947.947 0 00.692.34l5.66.168a.948.948 0 00.75-1.563l-7.656-9.094 8.187-8.613a.948.948 0 00.192-1.016.931.931 0 00-.844-.59l-5.66-.171a.955.955 0 00-.711.293l-8.778 9.234a.96.96 0 00-.039 1.27zm0 0"/></g></g></g><g clip-path="url(#prefix__bK)"><g clip-path="url(#prefix__bL)"><g clip-path="url(#prefix__bM)"><path fill="#38b6ff" d="M278.668 67.676l8.203 9.746a.936.936 0 00.692.336l5.66.172a.948.948 0 00.75-1.563l-7.657-9.094 8.188-8.617a.946.946 0 00.191-1.015.944.944 0 00-.843-.59l-5.66-.172a.955.955 0 00-.712.293l-8.777 9.234a.955.955 0 00-.035 1.27zm0 0"/></g></g></g><g clip-path="url(#prefix__bN)"><g clip-path="url(#prefix__bO)"><g clip-path="url(#prefix__bP)"><path fill="#38b6ff" d="M229.277 67.309l8.207 9.742a.947.947 0 00.692.34l5.66.168a.948.948 0 00.75-1.563l-7.656-9.094 8.187-8.613a.948.948 0 00.192-1.016.931.931 0 00-.844-.59l-5.66-.171a.955.955 0 00-.711.293l-8.778 9.234a.96.96 0 00-.039 1.27zm0 0"/></g></g></g><g clip-path="url(#prefix__bQ)"><g clip-path="url(#prefix__bR)"><g clip-path="url(#prefix__bS)"><path fill="#38b6ff" d="M241.543 67.676l8.203 9.746a.936.936 0 00.691.336l5.66.172a.948.948 0 00.75-1.563l-7.656-9.094 8.188-8.617a.946.946 0 00.191-1.015.944.944 0 00-.843-.59l-5.66-.172a.955.955 0 00-.712.293l-8.777 9.234a.955.955 0 00-.035 1.27zm0 0"/></g></g></g><g clip-path="url(#prefix__bT)"><g clip-path="url(#prefix__bU)"><g clip-path="url(#prefix__bV)"><path fill="#38b6ff" d="M192.762 67.309l8.203 9.742a.962.962 0 00.695.34l5.656.168a.95.95 0 00.883-.536.957.957 0 00-.133-1.027l-7.652-9.094 8.188-8.613a.956.956 0 00.191-1.016.937.937 0 00-.848-.59l-5.656-.171a.964.964 0 00-.715.293l-8.773 9.234a.955.955 0 00-.04 1.27zm0 0"/></g></g></g><g clip-path="url(#prefix__bW)"><g clip-path="url(#prefix__bX)"><g clip-path="url(#prefix__bY)"><path fill="#38b6ff" d="M205.023 67.676l8.207 9.746a.93.93 0 00.692.336l5.66.172a.948.948 0 00.75-1.563l-7.656-9.094 8.187-8.617a.946.946 0 00.192-1.015.944.944 0 00-.844-.59l-5.66-.172a.955.955 0 00-.711.293l-8.778 9.234a.96.96 0 00-.039 1.27zm0 0"/></g></g></g></svg>