<svg xmlns="http://www.w3.org/2000/svg" xmlns:xlink="http://www.w3.org/1999/xlink" width="450" zoomAndPan="magnify" viewBox="0 0 337.5 374.999991" height="500" preserveAspectRatio="xMidYMid meet" version="1.0"><defs><clipPath id="52e98ec073"><path d="M 0 52.777344 L 303.75 52.777344 L 303.75 323 L 0 323 Z M 0 52.777344 " clip-rule="nonzero"/></clipPath><clipPath id="5b2579a0ef"><path d="M 7.917969 142.824219 C 3.136719 156.667969 0 172.40625 0 187.851562 C 0 203.296875 2.6875 218.15625 7.46875 231.855469 C 7.621094 232.144531 7.621094 232.4375 7.769531 232.730469 C 26.890625 284.164062 77.390625 322.050781 135.65625 322.777344 L 303.75 322.777344 L 303.75 52.777344 L 135.78125 52.777344 C 77.09375 53.507812 26.59375 90.808594 7.917969 142.824219 " clip-rule="nonzero"/></clipPath><clipPath id="bbf157d208"><path d="M 0 52.777344 L 303.75 52.777344 L 303.75 322.777344 L 0 322.777344 Z M 0 52.777344 " clip-rule="nonzero"/></clipPath><clipPath id="4b9d9c0df7"><path d="M 7.917969 142.824219 C 3.136719 156.667969 0 172.40625 0 187.851562 C 0 203.296875 2.6875 218.15625 7.46875 231.855469 C 7.621094 232.144531 7.621094 232.4375 7.769531 232.730469 C 26.890625 284.164062 77.390625 322.050781 135.65625 322.777344 L 303.75 322.777344 L 303.75 52.777344 L 135.78125 52.777344 C 77.09375 53.507812 26.59375 90.808594 7.917969 142.824219 " clip-rule="nonzero"/></clipPath><clipPath id="5c366c5878"><path d="M 34 77 L 251 77 L 251 294 L 34 294 Z M 34 77 " clip-rule="nonzero"/></clipPath><clipPath id="2416e6e925"><path d="M 248.675781 295.851562 L 32.429688 291.535156 L 36.75 75.289062 L 252.992188 79.605469 Z M 248.675781 295.851562 " clip-rule="nonzero"/></clipPath><clipPath id="b807485572"><path d="M 140.699219 293.695312 C 200.332031 294.886719 249.640625 247.507812 250.832031 187.875 C 252.023438 128.238281 204.644531 78.929688 145.007812 77.738281 C 85.375 76.546875 36.066406 123.925781 34.875 183.5625 C 33.683594 243.195312 81.0625 292.503906 140.699219 293.695312 " clip-rule="nonzero"/></clipPath><clipPath id="905eaba372"><path d="M 34 77 L 251 77 L 251 294 L 34 294 Z M 34 77 " clip-rule="nonzero"/></clipPath><clipPath id="28d5643136"><path d="M 248.675781 295.851562 L 32.71875 291.539062 L 37.03125 75.582031 L 252.988281 79.894531 Z M 248.675781 295.851562 " clip-rule="nonzero"/></clipPath><clipPath id="da1567ca85"><path d="M 248.675781 295.851562 L 29.664062 291.480469 L 34.039062 72.46875 L 253.050781 76.839844 Z M 248.675781 295.851562 " clip-rule="nonzero"/></clipPath><clipPath id="fce81dfc4f"><path d="M 140.699219 293.695312 C 200.332031 294.886719 249.640625 247.507812 250.832031 187.875 C 252.023438 128.238281 204.644531 78.929688 145.007812 77.738281 C 85.375 76.546875 36.066406 123.925781 34.875 183.5625 C 33.683594 243.195312 81.0625 292.503906 140.699219 293.695312 " clip-rule="nonzero"/></clipPath><clipPath id="1f4bfc5eb3"><path d="M 135 220 L 154 220 L 154 253 L 135 253 Z M 135 220 " clip-rule="nonzero"/></clipPath><clipPath id="d31478a219"><path d="M 153.570312 252.648438 L 135.40625 252.742188 L 135.242188 220.820312 L 153.40625 220.726562 Z M 153.570312 252.648438 " clip-rule="nonzero"/></clipPath><clipPath id="f0ac80820b"><path d="M 153.570312 252.648438 L 135.804688 252.742188 L 135.640625 221.011719 L 153.40625 220.921875 Z M 153.570312 252.648438 " clip-rule="nonzero"/></clipPath><clipPath id="37b7ac6e69"><path d="M 84 147 L 121 147 L 121 180 L 84 180 Z M 84 147 " clip-rule="nonzero"/></clipPath><clipPath id="e41b804a15"><path d="M 120.484375 163.980469 L 111.3125 179.660156 L 83.757812 163.539062 L 92.929688 147.859375 Z M 120.484375 163.980469 " clip-rule="nonzero"/></clipPath><clipPath id="b9e7b6578b"><path d="M 120.484375 163.980469 L 111.511719 179.316406 L 84.125 163.292969 L 93.097656 147.960938 Z M 120.484375 163.980469 " clip-rule="nonzero"/></clipPath><clipPath id="d97155d59c"><path d="M 102 163 L 187 163 L 187 237 L 102 237 Z M 102 163 " clip-rule="nonzero"/></clipPath><clipPath id="af56171679"><path d="M 165.742188 126.96875 L 208.386719 200.730469 L 144.332031 237.761719 L 101.6875 164.003906 Z M 165.742188 126.96875 " clip-rule="nonzero"/></clipPath><clipPath id="5ce5e3c973"><path d="M 186.902344 163.566406 L 144.625 236.835938 L 102.308594 163.644531 L 186.902344 163.566406 " clip-rule="nonzero"/></clipPath><clipPath id="c81c862a93"><path d="M 161 151 L 199 151 L 199 184 L 161 184 Z M 161 151 " clip-rule="nonzero"/></clipPath><clipPath id="3f54c5ba1b"><path d="M 189.285156 151.917969 L 198.378906 167.644531 L 170.742188 183.625 L 161.648438 167.898438 Z M 189.285156 151.917969 " clip-rule="nonzero"/></clipPath><clipPath id="229fcd12e7"><path d="M 189.285156 151.917969 L 198.179688 167.300781 L 170.710938 183.179688 L 161.820312 167.800781 Z M 189.285156 151.917969 " clip-rule="nonzero"/></clipPath><clipPath id="87c73768fe"><path d="M 183 121 L 240 121 L 240 178 L 183 178 Z M 183 121 " clip-rule="nonzero"/></clipPath><clipPath id="5b043c9cd8"><path d="M 173.777344 138.296875 L 222.558594 111.570312 L 249.28125 160.355469 L 200.5 187.078125 Z M 173.777344 138.296875 " clip-rule="nonzero"/></clipPath><clipPath id="d47942236b"><path d="M 198.167969 124.933594 C 184.699219 132.3125 179.757812 149.214844 187.140625 162.6875 C 194.519531 176.15625 211.421875 181.09375 224.890625 173.714844 C 238.363281 166.335938 243.300781 149.433594 235.921875 135.964844 C 228.542969 122.492188 211.640625 117.554688 198.167969 124.933594 " clip-rule="nonzero"/></clipPath><clipPath id="539c9de0e8"><path d="M 183 121 L 240 121 L 240 178 L 183 178 Z M 183 121 " clip-rule="nonzero"/></clipPath><clipPath id="eee3fdd692"><path d="M 173.777344 138.296875 L 222.453125 111.632812 L 249.117188 160.304688 L 200.441406 186.972656 Z M 173.777344 138.296875 " clip-rule="nonzero"/></clipPath><clipPath id="6ffcb04dd0"><path d="M 173.777344 138.296875 L 222.453125 111.632812 L 249.117188 160.304688 L 200.441406 186.972656 Z M 173.777344 138.296875 " clip-rule="nonzero"/></clipPath><clipPath id="f45ceb6460"><path d="M 198.113281 124.964844 C 184.671875 132.328125 179.746094 149.191406 187.109375 162.632812 C 194.472656 176.074219 211.339844 181 224.78125 173.636719 C 238.222656 166.273438 243.148438 149.410156 235.785156 135.96875 C 228.421875 122.527344 211.554688 117.601562 198.113281 124.964844 " clip-rule="nonzero"/></clipPath><clipPath id="6d71fd7f9f"><path d="M 48 120 L 105 120 L 105 177 L 48 177 Z M 48 120 " clip-rule="nonzero"/></clipPath><clipPath id="98a7cb8aca"><path d="M 66.152344 110.667969 L 114.328125 138.46875 L 86.527344 186.644531 L 38.351562 158.84375 Z M 66.152344 110.667969 " clip-rule="nonzero"/></clipPath><clipPath id="cc5097a2ce"><path d="M 90.238281 124.566406 C 76.9375 116.890625 59.929688 121.453125 52.25 134.757812 C 44.574219 148.058594 49.136719 165.066406 62.4375 172.746094 C 75.742188 180.421875 92.75 175.859375 100.425781 162.554688 C 108.105469 149.253906 103.542969 132.246094 90.238281 124.566406 " clip-rule="nonzero"/></clipPath><clipPath id="b22c814ab0"><path d="M 48 120 L 105 120 L 105 177 L 48 177 Z M 48 120 " clip-rule="nonzero"/></clipPath><clipPath id="44ea6d74af"><path d="M 66.152344 110.667969 L 114.222656 138.40625 L 86.484375 186.476562 L 38.410156 158.738281 Z M 66.152344 110.667969 " clip-rule="nonzero"/></clipPath><clipPath id="2924fcc801"><path d="M 66.152344 110.667969 L 114.222656 138.40625 L 86.484375 186.476562 L 38.410156 158.738281 Z M 66.152344 110.667969 " clip-rule="nonzero"/></clipPath><clipPath id="b1bc5a4f1f"><path d="M 90.1875 124.539062 C 76.914062 116.878906 59.941406 121.429688 52.28125 134.703125 C 44.621094 147.976562 49.171875 164.949219 62.449219 172.609375 C 75.722656 180.269531 92.691406 175.714844 100.351562 162.441406 C 108.011719 149.167969 103.460938 132.199219 90.1875 124.539062 " clip-rule="nonzero"/></clipPath><clipPath id="c950803b8e"><path d="M 116 234 L 173 234 L 173 291 L 116 291 Z M 116 234 " clip-rule="nonzero"/></clipPath><clipPath id="dd159586c1"><path d="M 106.707031 251.644531 L 155.492188 224.917969 L 182.214844 273.699219 L 133.433594 300.425781 Z M 106.707031 251.644531 " clip-rule="nonzero"/></clipPath><clipPath id="562c948e8b"><path d="M 131.097656 238.28125 C 117.628906 245.660156 112.691406 262.5625 120.070312 276.035156 C 127.449219 289.503906 144.351562 294.441406 157.824219 287.0625 C 171.292969 279.683594 176.230469 262.78125 168.851562 249.308594 C 161.472656 235.839844 144.570312 230.902344 131.097656 238.28125 " clip-rule="nonzero"/></clipPath><clipPath id="9ecbcf4f0b"><path d="M 116 234 L 173 234 L 173 291 L 116 291 Z M 116 234 " clip-rule="nonzero"/></clipPath><clipPath id="d8eb654e85"><path d="M 106.707031 251.644531 L 155.382812 224.976562 L 182.046875 273.652344 L 133.375 300.316406 Z M 106.707031 251.644531 " clip-rule="nonzero"/></clipPath><clipPath id="691d684cb9"><path d="M 106.707031 251.644531 L 155.382812 224.976562 L 182.046875 273.652344 L 133.375 300.316406 Z M 106.707031 251.644531 " clip-rule="nonzero"/></clipPath><clipPath id="cacb4210ca"><path d="M 131.046875 238.308594 C 117.605469 245.671875 112.679688 262.539062 120.042969 275.980469 C 127.40625 289.421875 144.269531 294.347656 157.710938 286.984375 C 171.152344 279.621094 176.078125 262.757812 168.714844 249.316406 C 161.351562 235.875 144.488281 230.945312 131.046875 238.308594 " clip-rule="nonzero"/></clipPath><clipPath id="cfe875f953"><path d="M 204 142 L 219 142 L 219 157 L 204 157 Z M 204 142 " clip-rule="nonzero"/></clipPath><clipPath id="3fabedf841"><path d="M 214.074219 139.789062 L 221.0625 151.871094 L 208.976562 158.859375 L 201.988281 146.773438 Z M 214.074219 139.789062 " clip-rule="nonzero"/></clipPath><clipPath id="db3076b4f6"><path d="M 217.566406 145.832031 C 215.640625 142.492188 211.371094 141.351562 208.03125 143.28125 C 204.695312 145.210938 203.554688 149.480469 205.484375 152.816406 C 207.414062 156.15625 211.683594 157.296875 215.019531 155.367188 C 218.355469 153.4375 219.496094 149.167969 217.566406 145.832031 " clip-rule="nonzero"/></clipPath><clipPath id="bd97bd31ae"><path d="M 69 141 L 84 141 L 84 156 L 69 156 Z M 69 141 " clip-rule="nonzero"/></clipPath><clipPath id="dc3e4c4e6d"><path d="M 85.871094 146.09375 L 78.894531 158.183594 L 66.800781 151.207031 L 73.78125 139.117188 Z M 85.871094 146.09375 " clip-rule="nonzero"/></clipPath><clipPath id="94c5115fc7"><path d="M 82.382812 152.140625 C 84.308594 148.800781 83.164062 144.53125 79.824219 142.605469 C 76.484375 140.679688 72.21875 141.824219 70.289062 145.164062 C 68.363281 148.5 69.507812 152.769531 72.847656 154.695312 C 76.1875 156.625 80.453125 155.480469 82.382812 152.140625 " clip-rule="nonzero"/></clipPath><clipPath id="8f5ee6e192"><path d="M 138 255 L 153 255 L 153 270 L 138 270 Z M 138 255 " clip-rule="nonzero"/></clipPath><clipPath id="6db6eced0c"><path d="M 148.042969 253.113281 L 155.03125 265.199219 L 142.945312 272.183594 L 135.960938 260.101562 Z M 148.042969 253.113281 " clip-rule="nonzero"/></clipPath><clipPath id="14f00de180"><path d="M 151.539062 259.15625 C 149.609375 255.820312 145.339844 254.675781 142.003906 256.605469 C 138.664062 258.535156 137.523438 262.804688 139.453125 266.140625 C 141.382812 269.480469 145.652344 270.621094 148.988281 268.691406 C 152.328125 266.761719 153.46875 262.492188 151.539062 259.15625 " clip-rule="nonzero"/></clipPath><clipPath id="e291e63673"><path d="M 184 198 L 212 198 L 212 240 L 184 240 Z M 184 198 " clip-rule="nonzero"/></clipPath><clipPath id="eb171784ae"><path d="M 183.796875 239.148438 L 203.695312 196.292969 L 215.941406 201.976562 L 196.042969 244.832031 Z M 183.796875 239.148438 " clip-rule="nonzero"/></clipPath><clipPath id="9f66f9fa1b"><path d="M 183.796875 239.148438 L 203.695312 196.292969 L 215.941406 201.976562 L 196.042969 244.832031 Z M 183.796875 239.148438 " clip-rule="nonzero"/></clipPath><clipPath id="e6ce6f5149"><path d="M 183.796875 239.148438 L 203.695312 196.292969 L 215.941406 201.976562 L 196.042969 244.832031 Z M 183.796875 239.148438 " clip-rule="nonzero"/></clipPath><clipPath id="efa6a4a9e0"><path d="M 192 235 L 193 235 L 193 236 L 192 236 Z M 192 235 " clip-rule="nonzero"/></clipPath><clipPath id="9b291291b9"><path d="M 183.796875 239.148438 L 203.695312 196.292969 L 215.941406 201.976562 L 196.042969 244.832031 Z M 183.796875 239.148438 " clip-rule="nonzero"/></clipPath><clipPath id="649da16316"><path d="M 183.796875 239.148438 L 203.695312 196.292969 L 215.941406 201.976562 L 196.042969 244.832031 Z M 183.796875 239.148438 " clip-rule="nonzero"/></clipPath><clipPath id="fc6f7cca96"><path d="M 183.796875 239.148438 L 203.695312 196.292969 L 215.941406 201.976562 L 196.042969 244.832031 Z M 183.796875 239.148438 " clip-rule="nonzero"/></clipPath><clipPath id="99413ffe28"><path d="M 76 198 L 101 198 L 101 242 L 76 242 Z M 76 198 " clip-rule="nonzero"/></clipPath><clipPath id="0305577b75"><path d="M 80.53125 198.046875 L 104.121094 238.984375 L 92.421875 245.726562 L 68.832031 204.785156 Z M 80.53125 198.046875 " clip-rule="nonzero"/></clipPath><clipPath id="0852b74f84"><path d="M 80.53125 198.046875 L 104.121094 238.984375 L 92.421875 245.726562 L 68.832031 204.785156 Z M 80.53125 198.046875 " clip-rule="nonzero"/></clipPath><clipPath id="78ae28fa0f"><path d="M 80.53125 198.046875 L 104.121094 238.984375 L 92.421875 245.726562 L 68.832031 204.785156 Z M 80.53125 198.046875 " clip-rule="nonzero"/></clipPath><clipPath id="b8a86edb63"><path d="M 78 207 L 79 207 L 79 208 L 78 208 Z M 78 207 " clip-rule="nonzero"/></clipPath><clipPath id="d4e27b85c1"><path d="M 80.53125 198.046875 L 104.121094 238.984375 L 92.421875 245.726562 L 68.832031 204.785156 Z M 80.53125 198.046875 " clip-rule="nonzero"/></clipPath><clipPath id="941562b450"><path d="M 80.53125 198.046875 L 104.121094 238.984375 L 92.421875 245.726562 L 68.832031 204.785156 Z M 80.53125 198.046875 " clip-rule="nonzero"/></clipPath><clipPath id="171ef1241a"><path d="M 80.53125 198.046875 L 104.121094 238.984375 L 92.421875 245.726562 L 68.832031 204.785156 Z M 80.53125 198.046875 " clip-rule="nonzero"/></clipPath><clipPath id="6e43495e0a"><path d="M 119 113 L 166 113 L 166 130 L 119 130 Z M 119 113 " clip-rule="nonzero"/></clipPath><clipPath id="f1657fb6f0"><path d="M 165.34375 129.277344 L 118.261719 125.328125 L 119.390625 111.875 L 166.472656 115.824219 Z M 165.34375 129.277344 " clip-rule="nonzero"/></clipPath><clipPath id="14d403ec84"><path d="M 165.34375 129.277344 L 118.261719 125.328125 L 119.390625 111.875 L 166.472656 115.824219 Z M 165.34375 129.277344 " clip-rule="nonzero"/></clipPath><clipPath id="11c8b45c94"><path d="M 165.34375 129.277344 L 118.261719 125.328125 L 119.390625 111.875 L 166.472656 115.824219 Z M 165.34375 129.277344 " clip-rule="nonzero"/></clipPath><clipPath id="683bc6f71d"><path d="M 158 122 L 159 122 L 159 123 L 158 123 Z M 158 122 " clip-rule="nonzero"/></clipPath><clipPath id="d374e031cf"><path d="M 165.34375 129.277344 L 118.261719 125.328125 L 119.390625 111.875 L 166.472656 115.824219 Z M 165.34375 129.277344 " clip-rule="nonzero"/></clipPath><clipPath id="71d9a7d8f0"><path d="M 165.34375 129.277344 L 118.261719 125.328125 L 119.390625 111.875 L 166.472656 115.824219 Z M 165.34375 129.277344 " clip-rule="nonzero"/></clipPath><clipPath id="927c471156"><path d="M 165.34375 129.277344 L 118.261719 125.328125 L 119.390625 111.875 L 166.472656 115.824219 Z M 165.34375 129.277344 " clip-rule="nonzero"/></clipPath><clipPath id="3ad4f923e1"><path d="M 278 297.128906 L 295 297.128906 L 295 318.128906 L 278 318.128906 Z M 278 297.128906 " clip-rule="nonzero"/></clipPath><clipPath id="9c13b859d1"><path d="M 266.625 297.128906 L 283 297.128906 L 283 318.128906 L 266.625 318.128906 Z M 266.625 297.128906 " clip-rule="nonzero"/></clipPath><clipPath id="fb536dada0"><path d="M 241 297.128906 L 258 297.128906 L 258 318.128906 L 241 318.128906 Z M 241 297.128906 " clip-rule="nonzero"/></clipPath><clipPath id="860760dd95"><path d="M 229.5 297.128906 L 246 297.128906 L 246 318.128906 L 229.5 318.128906 Z M 229.5 297.128906 " clip-rule="nonzero"/></clipPath><clipPath id="4b331b90ef"><path d="M 204 297.128906 L 220.875 297.128906 L 220.875 318.128906 L 204 318.128906 Z M 204 297.128906 " clip-rule="nonzero"/></clipPath><clipPath id="34691e2ae3"><path d="M 192.375 297.128906 L 209 297.128906 L 209 318.128906 L 192.375 318.128906 Z M 192.375 297.128906 " clip-rule="nonzero"/></clipPath><clipPath id="dba9dea26d"><path d="M 167 297.128906 L 183.75 297.128906 L 183.75 318.128906 L 167 318.128906 Z M 167 297.128906 " clip-rule="nonzero"/></clipPath><clipPath id="b2b9694793"><path d="M 155.25 297.128906 L 172 297.128906 L 172 318.128906 L 155.25 318.128906 Z M 155.25 297.128906 " clip-rule="nonzero"/></clipPath><clipPath id="331aa88e29"><path d="M 130 297 L 147 297 L 147 319 L 130 319 Z M 130 297 " clip-rule="nonzero"/></clipPath><clipPath id="5b06344d91"><path d="M 117.945312 297.378906 L 146.441406 296.875 L 146.8125 317.871094 L 118.316406 318.375 Z M 117.945312 297.378906 " clip-rule="nonzero"/></clipPath><clipPath id="8950dd1be6"><path d="M 117.945312 297.378906 L 146.441406 296.875 L 146.8125 317.871094 L 118.316406 318.375 Z M 117.945312 297.378906 " clip-rule="nonzero"/></clipPath><clipPath id="303518b976"><path d="M 117 297 L 135 297 L 135 319 L 117 319 Z M 117 297 " clip-rule="nonzero"/></clipPath><clipPath id="875f67da3b"><path d="M 117.945312 297.378906 L 146.441406 296.875 L 146.8125 317.871094 L 118.316406 318.375 Z M 117.945312 297.378906 " clip-rule="nonzero"/></clipPath><clipPath id="d5ec19b8c3"><path d="M 117.945312 297.378906 L 146.441406 296.875 L 146.8125 317.871094 L 118.316406 318.375 Z M 117.945312 297.378906 " clip-rule="nonzero"/></clipPath><clipPath id="045509977a"><path d="M 80 284 L 100 284 L 100 306 L 80 306 Z M 80 284 " clip-rule="nonzero"/></clipPath><clipPath id="9e74acd9fb"><path d="M 81.105469 277.734375 L 105.09375 293.121094 L 93.757812 310.796875 L 69.765625 295.410156 Z M 81.105469 277.734375 " clip-rule="nonzero"/></clipPath><clipPath id="2544db29e9"><path d="M 81.105469 277.734375 L 105.09375 293.121094 L 93.757812 310.796875 L 69.765625 295.410156 Z M 81.105469 277.734375 " clip-rule="nonzero"/></clipPath><clipPath id="30d10d9564"><path d="M 70 278 L 90 278 L 90 300 L 70 300 Z M 70 278 " clip-rule="nonzero"/></clipPath><clipPath id="afd442f1df"><path d="M 81.105469 277.734375 L 105.09375 293.121094 L 93.757812 310.796875 L 69.765625 295.410156 Z M 81.105469 277.734375 " clip-rule="nonzero"/></clipPath><clipPath id="1420c38522"><path d="M 81.105469 277.734375 L 105.09375 293.121094 L 93.757812 310.796875 L 69.765625 295.410156 Z M 81.105469 277.734375 " clip-rule="nonzero"/></clipPath><clipPath id="92a16ce80a"><path d="M 42 264 L 62 264 L 62 285 L 42 285 Z M 42 264 " clip-rule="nonzero"/></clipPath><clipPath id="4beef65362"><path d="M 48.058594 255.742188 L 68.585938 275.511719 L 54.019531 290.636719 L 33.492188 270.867188 Z M 48.058594 255.742188 " clip-rule="nonzero"/></clipPath><clipPath id="129bae5c3a"><path d="M 48.058594 255.742188 L 68.585938 275.511719 L 54.019531 290.636719 L 33.492188 270.867188 Z M 48.058594 255.742188 " clip-rule="nonzero"/></clipPath><clipPath id="bb218db3d3"><path d="M 33 256 L 54 256 L 54 276 L 33 276 Z M 33 256 " clip-rule="nonzero"/></clipPath><clipPath id="e39f394bef"><path d="M 48.058594 255.742188 L 68.585938 275.511719 L 54.019531 290.636719 L 33.492188 270.867188 Z M 48.058594 255.742188 " clip-rule="nonzero"/></clipPath><clipPath id="7f0356a96d"><path d="M 48.058594 255.742188 L 68.585938 275.511719 L 54.019531 290.636719 L 33.492188 270.867188 Z M 48.058594 255.742188 " clip-rule="nonzero"/></clipPath><clipPath id="24aa546334"><path d="M 19 232 L 41 232 L 41 251 L 19 251 Z M 19 232 " clip-rule="nonzero"/></clipPath><clipPath id="d542b93137"><path d="M 31.21875 221.023438 L 45.539062 245.664062 L 27.386719 256.21875 L 13.0625 231.578125 Z M 31.21875 221.023438 " clip-rule="nonzero"/></clipPath><clipPath id="27709667cb"><path d="M 31.21875 221.023438 L 45.539062 245.664062 L 27.386719 256.21875 L 13.0625 231.578125 Z M 31.21875 221.023438 " clip-rule="nonzero"/></clipPath><clipPath id="e7b792a619"><path d="M 13 221 L 35 221 L 35 241 L 13 241 Z M 13 221 " clip-rule="nonzero"/></clipPath><clipPath id="606ef8f4c1"><path d="M 31.21875 221.023438 L 45.539062 245.664062 L 27.386719 256.21875 L 13.0625 231.578125 Z M 31.21875 221.023438 " clip-rule="nonzero"/></clipPath><clipPath id="2ad9ec10e7"><path d="M 31.21875 221.023438 L 45.539062 245.664062 L 27.386719 256.21875 L 13.0625 231.578125 Z M 31.21875 221.023438 " clip-rule="nonzero"/></clipPath><clipPath id="60f4c8f90f"><path d="M 8.878906 184 L 29.878906 184 L 29.878906 200.4375 L 8.878906 200.4375 Z M 8.878906 184 " clip-rule="nonzero"/></clipPath><clipPath id="d716c69a3d"><path d="M 8.878906 171.9375 L 29.878906 171.9375 L 29.878906 188 L 8.878906 188 Z M 8.878906 171.9375 " clip-rule="nonzero"/></clipPath><clipPath id="4bd687b107"><path d="M 18 126 L 39 126 L 39 146 L 18 146 Z M 18 126 " clip-rule="nonzero"/></clipPath><clipPath id="4e4224a554"><path d="M 46.378906 127.648438 L 30.144531 151.074219 L 12.882812 139.109375 L 29.117188 115.6875 Z M 46.378906 127.648438 " clip-rule="nonzero"/></clipPath><clipPath id="63caa31c32"><path d="M 46.378906 127.648438 L 30.144531 151.074219 L 12.882812 139.109375 L 29.117188 115.6875 Z M 46.378906 127.648438 " clip-rule="nonzero"/></clipPath><clipPath id="5986c3d1f8"><path d="M 25 116 L 46 116 L 46 136 L 25 136 Z M 25 116 " clip-rule="nonzero"/></clipPath><clipPath id="83f92d0a6c"><path d="M 46.378906 127.648438 L 30.144531 151.074219 L 12.882812 139.109375 L 29.117188 115.6875 Z M 46.378906 127.648438 " clip-rule="nonzero"/></clipPath><clipPath id="c58f856be4"><path d="M 46.378906 127.648438 L 30.144531 151.074219 L 12.882812 139.109375 L 29.117188 115.6875 Z M 46.378906 127.648438 " clip-rule="nonzero"/></clipPath><clipPath id="d5a93ddf76"><path d="M 44 90 L 64 90 L 64 111 L 44 111 Z M 44 90 " clip-rule="nonzero"/></clipPath><clipPath id="e3a3aa2c86"><path d="M 72.519531 97.332031 L 51.425781 116.5 L 37.304688 100.957031 L 58.398438 81.789062 Z M 72.519531 97.332031 " clip-rule="nonzero"/></clipPath><clipPath id="8dd5104c7e"><path d="M 72.519531 97.332031 L 51.425781 116.5 L 37.304688 100.957031 L 58.398438 81.789062 Z M 72.519531 97.332031 " clip-rule="nonzero"/></clipPath><clipPath id="d26ad01f40"><path d="M 53 82 L 73 82 L 73 102 L 53 102 Z M 53 82 " clip-rule="nonzero"/></clipPath><clipPath id="7b1cbc2f04"><path d="M 72.519531 97.332031 L 51.425781 116.5 L 37.304688 100.957031 L 58.398438 81.789062 Z M 72.519531 97.332031 " clip-rule="nonzero"/></clipPath><clipPath id="1e6f2e11fb"><path d="M 72.519531 97.332031 L 51.425781 116.5 L 37.304688 100.957031 L 58.398438 81.789062 Z M 72.519531 97.332031 " clip-rule="nonzero"/></clipPath><clipPath id="7f09db7098"><path d="M 74 67 L 94 67 L 94 90 L 74 90 Z M 74 67 " clip-rule="nonzero"/></clipPath><clipPath id="68273738b2"><path d="M 104.921875 81.058594 L 79.34375 93.632812 L 70.078125 74.785156 L 95.65625 62.214844 Z M 104.921875 81.058594 " clip-rule="nonzero"/></clipPath><clipPath id="3087360496"><path d="M 104.921875 81.058594 L 79.34375 93.632812 L 70.078125 74.785156 L 95.65625 62.214844 Z M 104.921875 81.058594 " clip-rule="nonzero"/></clipPath><clipPath id="b3b2b7fd2e"><path d="M 85 62 L 105 62 L 105 85 L 85 85 Z M 85 62 " clip-rule="nonzero"/></clipPath><clipPath id="428e6e63ea"><path d="M 104.921875 81.058594 L 79.34375 93.632812 L 70.078125 74.785156 L 95.65625 62.214844 Z M 104.921875 81.058594 " clip-rule="nonzero"/></clipPath><clipPath id="20abceb17c"><path d="M 104.921875 81.058594 L 79.34375 93.632812 L 70.078125 74.785156 L 95.65625 62.214844 Z M 104.921875 81.058594 " clip-rule="nonzero"/></clipPath><clipPath id="0e8a6ef242"><path d="M 117.785156 57.015625 L 135 57.015625 L 135 78 L 117.785156 78 Z M 117.785156 57.015625 " clip-rule="nonzero"/></clipPath><clipPath id="a32b1668f5"><path d="M 130 57.015625 L 146.285156 57.015625 L 146.285156 78 L 130 78 Z M 130 57.015625 " clip-rule="nonzero"/></clipPath><clipPath id="62a0bf2b64"><path d="M 154 56 L 171 56 L 171 78 L 154 78 Z M 154 56 " clip-rule="nonzero"/></clipPath><clipPath id="bd2bfd1792"><path d="M 182.511719 78.011719 L 154.023438 77.15625 L 154.65625 56.164062 L 183.144531 57.023438 Z M 182.511719 78.011719 " clip-rule="nonzero"/></clipPath><clipPath id="cb7d43ef2d"><path d="M 182.511719 78.011719 L 154.023438 77.15625 L 154.65625 56.164062 L 183.144531 57.023438 Z M 182.511719 78.011719 " clip-rule="nonzero"/></clipPath><clipPath id="a9098335ce"><path d="M 166 56 L 184 56 L 184 78 L 166 78 Z M 166 56 " clip-rule="nonzero"/></clipPath><clipPath id="c99633f41d"><path d="M 182.511719 78.011719 L 154.023438 77.15625 L 154.65625 56.164062 L 183.144531 57.023438 Z M 182.511719 78.011719 " clip-rule="nonzero"/></clipPath><clipPath id="6cf1ccb4e0"><path d="M 182.511719 78.011719 L 154.023438 77.15625 L 154.65625 56.164062 L 183.144531 57.023438 Z M 182.511719 78.011719 " clip-rule="nonzero"/></clipPath><clipPath id="9f5dc65d0f"><path d="M 266 56 L 283 56 L 283 78 L 266 78 Z M 266 56 " clip-rule="nonzero"/></clipPath><clipPath id="8b9a8943cd"><path d="M 294.164062 78.011719 L 265.675781 77.15625 L 266.308594 56.164062 L 294.796875 57.023438 Z M 294.164062 78.011719 " clip-rule="nonzero"/></clipPath><clipPath id="6cb6cdb4f8"><path d="M 294.164062 78.011719 L 265.675781 77.15625 L 266.308594 56.164062 L 294.796875 57.023438 Z M 294.164062 78.011719 " clip-rule="nonzero"/></clipPath><clipPath id="eea446302d"><path d="M 278 56 L 295 56 L 295 78 L 278 78 Z M 278 56 " clip-rule="nonzero"/></clipPath><clipPath id="8901251a6b"><path d="M 294.164062 78.011719 L 265.675781 77.15625 L 266.308594 56.164062 L 294.796875 57.023438 Z M 294.164062 78.011719 " clip-rule="nonzero"/></clipPath><clipPath id="7f3c657621"><path d="M 294.164062 78.011719 L 265.675781 77.15625 L 266.308594 56.164062 L 294.796875 57.023438 Z M 294.164062 78.011719 " clip-rule="nonzero"/></clipPath><clipPath id="0f2d65c77e"><path d="M 229 56 L 246 56 L 246 78 L 229 78 Z M 229 56 " clip-rule="nonzero"/></clipPath><clipPath id="2177224875"><path d="M 257.039062 78.011719 L 228.550781 77.15625 L 229.183594 56.164062 L 257.671875 57.023438 Z M 257.039062 78.011719 " clip-rule="nonzero"/></clipPath><clipPath id="01c681bfda"><path d="M 257.039062 78.011719 L 228.550781 77.15625 L 229.183594 56.164062 L 257.671875 57.023438 Z M 257.039062 78.011719 " clip-rule="nonzero"/></clipPath><clipPath id="63f0c98c33"><path d="M 241 56 L 258 56 L 258 78 L 241 78 Z M 241 56 " clip-rule="nonzero"/></clipPath><clipPath id="6ff32eda63"><path d="M 257.039062 78.011719 L 228.550781 77.15625 L 229.183594 56.164062 L 257.671875 57.023438 Z M 257.039062 78.011719 " clip-rule="nonzero"/></clipPath><clipPath id="1cec9fd3ba"><path d="M 257.039062 78.011719 L 228.550781 77.15625 L 229.183594 56.164062 L 257.671875 57.023438 Z M 257.039062 78.011719 " clip-rule="nonzero"/></clipPath><clipPath id="c287f7553f"><path d="M 192 56 L 209 56 L 209 78 L 192 78 Z M 192 56 " clip-rule="nonzero"/></clipPath><clipPath id="ed92f8708c"><path d="M 220.523438 78.011719 L 192.035156 77.15625 L 192.667969 56.164062 L 221.15625 57.023438 Z M 220.523438 78.011719 " clip-rule="nonzero"/></clipPath><clipPath id="a322a79a3b"><path d="M 220.523438 78.011719 L 192.035156 77.15625 L 192.667969 56.164062 L 221.15625 57.023438 Z M 220.523438 78.011719 " clip-rule="nonzero"/></clipPath><clipPath id="a0c7eefbb1"><path d="M 204 56 L 222 56 L 222 78 L 204 78 Z M 204 56 " clip-rule="nonzero"/></clipPath><clipPath id="4054ca8973"><path d="M 220.523438 78.011719 L 192.035156 77.15625 L 192.667969 56.164062 L 221.15625 57.023438 Z M 220.523438 78.011719 " clip-rule="nonzero"/></clipPath><clipPath id="4f8504fdbc"><path d="M 220.523438 78.011719 L 192.035156 77.15625 L 192.667969 56.164062 L 221.15625 57.023438 Z M 220.523438 78.011719 " clip-rule="nonzero"/></clipPath></defs><g clip-path="url(#52e98ec073)"><g clip-path="url(#5b2579a0ef)"><path fill="#737373" d="M 303.75 52.777344 L 303.75 323.039062 L -0.132812 323.039062 L -0.132812 52.777344 Z M 303.75 52.777344 " fill-opacity="1" fill-rule="nonzero"/></g></g><g clip-path="url(#bbf157d208)"><g clip-path="url(#4b9d9c0df7)"><path stroke-linecap="butt" transform="matrix(0.000000000000000046, 0.75, -0.75, 0.000000000000000046, 303.749959, 52.777335)" fill="none" stroke-linejoin="miter" d="M 120.062517 394.442673 C 138.520852 400.817674 159.505228 404.999965 180.098979 404.999965 C 200.69273 404.999965 220.505231 401.416632 238.770857 395.041632 C 239.156274 394.838507 239.546899 394.838507 239.937524 394.64059 C 308.515652 369.145797 359.03128 301.81246 360.00003 224.124956 L 360.00003 -0.0000552182 L 0.0000113526 -0.0000552182 L 0.0000113526 223.95829 C 0.97397 302.208294 50.708347 369.54163 120.062517 394.442673 " stroke="#000000" stroke-width="4" stroke-opacity="1" stroke-miterlimit="4"/></g></g><g clip-path="url(#5c366c5878)"><g clip-path="url(#2416e6e925)"><g clip-path="url(#b807485572)"><path fill="#a6a6a6" d="M 248.675781 295.851562 L 32.984375 291.546875 L 37.289062 75.851562 L 252.984375 80.160156 Z M 248.675781 295.851562 " fill-opacity="1" fill-rule="nonzero"/></g></g></g><g clip-path="url(#905eaba372)"><g clip-path="url(#28d5643136)"><g clip-path="url(#da1567ca85)"><g clip-path="url(#fce81dfc4f)"><path stroke-linecap="butt" transform="matrix(-0.74985, -0.0149715, 0.0149715, -0.74985, 248.676113, 295.852039)" fill="none" stroke-linejoin="miter" d="M 143.997942 0.00115336 C 64.471639 0.0001131 0.000967939 64.471812 -0.0000723228 143.998115 C -0.00100862 223.529625 64.47069 288.000296 144.0022 288.001233 C 223.528503 288.002273 287.999175 223.530574 288.000111 143.999064 C 288.001151 64.472761 223.529453 0.00208965 143.997942 0.00115336 " stroke="#000000" stroke-width="8" stroke-opacity="1" stroke-miterlimit="4"/></g></g></g></g><g clip-path="url(#1f4bfc5eb3)"><g clip-path="url(#d31478a219)"><g clip-path="url(#f0ac80820b)"><path fill="#ffde59" d="M 153.570312 252.648438 L 135.957031 252.742188 L 135.792969 220.816406 L 153.40625 220.726562 Z M 153.570312 252.648438 " fill-opacity="1" fill-rule="nonzero"/></g></g></g><g clip-path="url(#37b7ac6e69)"><g clip-path="url(#e41b804a15)"><g clip-path="url(#b9e7b6578b)"><path fill="#ffde59" d="M 120.484375 163.980469 L 111.589844 179.183594 L 84.035156 163.0625 L 92.929688 147.859375 Z M 120.484375 163.980469 " fill-opacity="1" fill-rule="nonzero"/></g></g></g><g clip-path="url(#d97155d59c)"><g clip-path="url(#af56171679)"><g clip-path="url(#5ce5e3c973)"><path fill="#ffde59" d="M 165.742188 126.96875 L 208.011719 200.082031 L 144.605469 236.742188 L 102.335938 163.628906 Z M 165.742188 126.96875 " fill-opacity="1" fill-rule="nonzero"/></g></g></g><g clip-path="url(#c81c862a93)"><g clip-path="url(#3f54c5ba1b)"><g clip-path="url(#229fcd12e7)"><path fill="#ffde59" d="M 189.285156 151.917969 L 198.101562 167.167969 L 170.464844 183.148438 L 161.648438 167.898438 Z M 189.285156 151.917969 " fill-opacity="1" fill-rule="nonzero"/></g></g></g><g clip-path="url(#87c73768fe)"><g clip-path="url(#5b043c9cd8)"><g clip-path="url(#d47942236b)"><path fill="#ffde59" d="M 173.777344 138.296875 L 222.558594 111.570312 L 249.28125 160.355469 L 200.5 187.078125 Z M 173.777344 138.296875 " fill-opacity="1" fill-rule="nonzero"/></g></g></g><g clip-path="url(#539c9de0e8)"><g clip-path="url(#eee3fdd692)"><g clip-path="url(#6ffcb04dd0)"><g clip-path="url(#f45ceb6460)"><path fill="#000000" d="M 199.554688 127.589844 C 194.683594 130.257812 191.117188 134.121094 188.855469 139.175781 L 183.390625 136.730469 C 186.199219 130.449219 190.628906 125.652344 196.675781 122.339844 Z M 187.894531 141.671875 C 186.183594 146.957031 186.238281 152.207031 188.054688 157.421875 L 182.402344 159.394531 C 180.140625 152.910156 180.074219 146.390625 182.199219 139.824219 Z M 189.070312 159.890625 C 189.277344 160.332031 189.5 160.765625 189.734375 161.195312 C 192.152344 165.605469 195.578125 168.960938 200.019531 171.265625 L 197.261719 176.578125 C 191.742188 173.714844 187.484375 169.546875 184.484375 164.070312 C 184.191406 163.539062 183.917969 163.003906 183.660156 162.457031 Z M 202.457031 172.367188 C 207.640625 174.382812 212.886719 174.636719 218.203125 173.125 L 219.839844 178.882812 C 213.238281 180.761719 206.71875 180.449219 200.289062 177.949219 Z M 220.710938 172.261719 C 221.609375 171.898438 222.484375 171.480469 223.339844 171.011719 C 227.296875 168.84375 230.421875 165.835938 232.714844 161.984375 L 237.859375 165.046875 C 235.007812 169.832031 231.128906 173.574219 226.21875 176.261719 C 225.160156 176.84375 224.074219 177.359375 222.960938 177.808594 Z M 233.953125 159.617188 C 236.265625 154.566406 236.820312 149.34375 235.625 143.949219 L 241.472656 142.65625 C 242.957031 149.355469 242.265625 155.839844 239.398438 162.109375 Z M 234.90625 141.375 C 234.441406 140.007812 233.859375 138.683594 233.160156 137.40625 C 231.238281 133.898438 228.632812 131.03125 225.347656 128.808594 L 228.703125 123.847656 C 232.789062 126.613281 236.023438 130.175781 238.410156 134.53125 C 239.277344 136.113281 240 137.753906 240.574219 139.453125 Z M 223.058594 127.433594 C 218.152344 124.832031 212.96875 123.972656 207.511719 124.851562 L 206.558594 118.941406 C 213.335938 117.847656 219.773438 118.917969 225.863281 122.140625 Z M 204.894531 125.421875 C 203.039062 125.929688 201.257812 126.65625 199.554688 127.589844 L 196.675781 122.339844 C 198.792969 121.179688 201 120.28125 203.308594 119.648438 Z M 204.894531 125.421875 " fill-opacity="1" fill-rule="nonzero"/></g></g></g></g><g clip-path="url(#6d71fd7f9f)"><g clip-path="url(#98a7cb8aca)"><g clip-path="url(#cc5097a2ce)"><path fill="#ffde59" d="M 66.152344 110.667969 L 114.328125 138.46875 L 86.527344 186.644531 L 38.351562 158.84375 Z M 66.152344 110.667969 " fill-opacity="1" fill-rule="nonzero"/></g></g></g><g clip-path="url(#b22c814ab0)"><g clip-path="url(#44ea6d74af)"><g clip-path="url(#2924fcc801)"><g clip-path="url(#b1bc5a4f1f)"><path fill="#000000" d="M 88.691406 127.128906 C 83.878906 124.355469 78.726562 123.3125 73.234375 124.007812 L 72.484375 118.066406 C 79.308594 117.207031 85.710938 118.496094 91.683594 121.945312 Z M 70.601562 124.484375 C 65.195312 125.769531 60.738281 128.542969 57.226562 132.804688 L 52.605469 128.996094 C 56.96875 123.699219 62.507812 120.253906 69.21875 118.660156 Z M 55.644531 134.953125 C 55.375 135.359375 55.121094 135.773438 54.875 136.199219 C 52.363281 140.554688 51.273438 145.226562 51.613281 150.21875 L 45.640625 150.621094 C 45.21875 144.417969 46.570312 138.613281 49.6875 133.207031 C 49.992188 132.683594 50.308594 132.167969 50.640625 131.664062 Z M 51.9375 152.875 C 52.90625 158.351562 55.417969 162.964844 59.46875 166.71875 L 55.398438 171.113281 C 50.363281 166.445312 47.246094 160.714844 46.039062 153.917969 Z M 61.511719 168.417969 C 62.289062 168.996094 63.097656 169.527344 63.945312 170.015625 C 67.851562 172.269531 72.042969 173.375 76.527344 173.332031 L 76.582031 179.320312 C 71.011719 179.371094 65.800781 178 60.949219 175.199219 C 59.90625 174.597656 58.902344 173.9375 57.9375 173.222656 Z M 79.191406 173.164062 C 84.710938 172.511719 89.460938 170.277344 93.449219 166.453125 L 97.59375 170.773438 C 92.640625 175.523438 86.742188 178.304688 79.890625 179.109375 Z M 95.273438 164.5 C 96.203125 163.394531 97.03125 162.207031 97.757812 160.945312 C 99.757812 157.480469 100.855469 153.765625 101.046875 149.804688 L 107.027344 150.09375 C 106.789062 155.023438 105.425781 159.636719 102.945312 163.9375 C 102.042969 165.503906 101.015625 166.972656 99.863281 168.34375 Z M 101.035156 147.136719 C 100.707031 141.589844 98.75 136.714844 95.164062 132.507812 L 99.71875 128.625 C 104.171875 133.847656 106.605469 139.902344 107.011719 146.78125 Z M 93.320312 130.570312 C 91.917969 129.25 90.375 128.101562 88.691406 127.128906 L 91.683594 121.945312 C 93.773438 123.148438 95.6875 124.574219 97.425781 126.214844 Z M 93.320312 130.570312 " fill-opacity="1" fill-rule="nonzero"/></g></g></g></g><g clip-path="url(#c950803b8e)"><g clip-path="url(#dd159586c1)"><g clip-path="url(#562c948e8b)"><path fill="#ffde59" d="M 106.707031 251.644531 L 155.492188 224.917969 L 182.214844 273.699219 L 133.433594 300.425781 Z M 106.707031 251.644531 " fill-opacity="1" fill-rule="nonzero"/></g></g></g><g clip-path="url(#9ecbcf4f0b)"><g clip-path="url(#d8eb654e85)"><g clip-path="url(#691d684cb9)"><g clip-path="url(#cacb4210ca)"><path fill="#000000" d="M 132.484375 240.9375 C 127.613281 243.605469 124.046875 247.464844 121.785156 252.519531 L 116.320312 250.074219 C 119.128906 243.796875 123.558594 239 129.609375 235.683594 Z M 120.828125 255.015625 C 119.117188 260.304688 119.167969 265.554688 120.988281 270.769531 L 115.335938 272.738281 C 113.074219 266.257812 113.007812 259.734375 115.132812 253.171875 Z M 122 273.238281 C 122.210938 273.675781 122.429688 274.113281 122.667969 274.542969 C 125.082031 278.949219 128.511719 282.308594 132.949219 284.613281 L 130.191406 289.925781 C 124.671875 287.0625 120.414062 282.894531 117.414062 277.417969 C 117.125 276.886719 116.851562 276.347656 116.589844 275.804688 Z M 135.390625 285.714844 C 140.570312 287.730469 145.820312 287.984375 151.132812 286.472656 L 152.773438 292.230469 C 146.167969 294.109375 139.652344 293.796875 133.21875 291.296875 Z M 153.644531 285.609375 C 154.542969 285.242188 155.417969 284.828125 156.273438 284.359375 C 160.230469 282.191406 163.351562 279.183594 165.644531 275.332031 L 170.789062 278.390625 C 167.941406 283.179688 164.0625 286.917969 159.148438 289.609375 C 158.089844 290.191406 157.003906 290.707031 155.890625 291.15625 Z M 166.882812 272.964844 C 169.195312 267.914062 169.753906 262.691406 168.558594 257.296875 L 174.402344 256 C 175.886719 262.699219 175.195312 269.183594 172.328125 275.457031 Z M 167.835938 254.722656 C 167.371094 253.355469 166.789062 252.03125 166.089844 250.753906 C 164.167969 247.246094 161.5625 244.378906 158.277344 242.152344 L 161.632812 237.195312 C 165.71875 239.960938 168.957031 243.523438 171.339844 247.875 C 172.207031 249.460938 172.929688 251.101562 173.507812 252.796875 Z M 155.992188 240.78125 C 151.082031 238.179688 145.898438 237.320312 140.441406 238.199219 L 139.488281 232.289062 C 146.269531 231.195312 152.703125 232.261719 158.792969 235.488281 Z M 137.828125 238.765625 C 135.972656 239.277344 134.191406 240 132.484375 240.9375 L 129.609375 235.683594 C 131.722656 234.527344 133.933594 233.628906 136.238281 232.996094 Z M 137.828125 238.765625 " fill-opacity="1" fill-rule="nonzero"/></g></g></g></g><g clip-path="url(#cfe875f953)"><g clip-path="url(#3fabedf841)"><g clip-path="url(#db3076b4f6)"><path fill="#707070" d="M 214.074219 139.789062 L 221.0625 151.871094 L 208.976562 158.859375 L 201.988281 146.773438 Z M 214.074219 139.789062 " fill-opacity="1" fill-rule="nonzero"/></g></g></g><g clip-path="url(#bd97bd31ae)"><g clip-path="url(#dc3e4c4e6d)"><g clip-path="url(#94c5115fc7)"><path fill="#707070" d="M 85.871094 146.09375 L 78.894531 158.183594 L 66.800781 151.207031 L 73.78125 139.117188 Z M 85.871094 146.09375 " fill-opacity="1" fill-rule="nonzero"/></g></g></g><g clip-path="url(#8f5ee6e192)"><g clip-path="url(#6db6eced0c)"><g clip-path="url(#14f00de180)"><path fill="#707070" d="M 148.042969 253.113281 L 155.03125 265.199219 L 142.945312 272.183594 L 135.960938 260.101562 Z M 148.042969 253.113281 " fill-opacity="1" fill-rule="nonzero"/></g></g></g><g clip-path="url(#e291e63673)"><g clip-path="url(#eb171784ae)"><g clip-path="url(#9f66f9fa1b)"><g clip-path="url(#e6ce6f5149)"><path fill="#ffffff" d="M 184.472656 238.621094 C 184.492188 238.660156 184.527344 238.675781 184.566406 238.679688 C 184.628906 238.8125 184.460938 238.972656 184.625 239.089844 C 184.785156 239.515625 185.132812 239.542969 185.503906 239.507812 C 186.550781 239.40625 187.554688 239.140625 188.546875 238.808594 C 192.089844 237.628906 195.210938 235.765625 198.03125 233.332031 C 202.953125 229.078125 205.863281 223.6875 207.320312 217.449219 C 207.996094 214.554688 208.148438 211.597656 208.164062 208.628906 C 208.171875 206.882812 208.074219 205.144531 208.019531 203.398438 C 207.992188 203.339844 207.960938 203.277344 207.929688 203.214844 C 207.960938 203.144531 207.972656 203.054688 208.023438 203.011719 C 208.023438 203.011719 208.023438 203.011719 208.027344 203.007812 C 208.066406 202.976562 208.117188 203.035156 208.121094 203.097656 C 208.554688 203.632812 208.859375 204.238281 209.136719 204.863281 C 209.324219 205.289062 209.539062 205.691406 209.871094 206.023438 C 210.269531 206.941406 210.988281 207.300781 211.867188 207.054688 C 211.992188 205.066406 211.121094 203.414062 210.09375 201.804688 C 209.714844 201.207031 209.375 200.585938 209.023438 199.96875 C 208.191406 198.488281 208.226562 198.75 206.84375 198.707031 C 206.535156 198.699219 206.226562 198.761719 205.929688 198.855469 C 205.820312 198.890625 205.722656 198.929688 205.671875 199.039062 C 205.320312 199.050781 205.191406 199.316406 205.082031 199.578125 C 204.75 200.367188 204.433594 201.152344 204.109375 201.941406 C 203.945312 202.0625 203.894531 202.242188 203.851562 202.429688 C 203.679688 202.542969 203.632812 202.726562 203.578125 202.90625 C 203.441406 202.964844 203.414062 203.105469 203.347656 203.214844 C 202.394531 204.679688 201.289062 206.015625 199.957031 207.160156 C 199.855469 207.246094 199.765625 207.339844 199.667969 207.429688 C 199.554688 207.535156 199.421875 207.65625 199.496094 207.820312 C 199.554688 207.941406 199.738281 208 199.847656 207.96875 C 200.339844 207.820312 200.84375 208 201.335938 207.902344 C 201.550781 207.859375 201.730469 207.730469 201.914062 207.59375 C 203.316406 206.570312 204.492188 205.328125 205.546875 203.960938 C 205.640625 203.835938 205.71875 203.699219 205.832031 203.597656 C 205.96875 203.484375 206.074219 203.582031 206.152344 203.707031 C 206.058594 203.859375 206.070312 204 206.175781 204.136719 C 206.117188 204.289062 206.074219 204.445312 206.195312 204.589844 C 206.160156 204.617188 206.160156 204.648438 206.195312 204.675781 C 206.136719 204.820312 206.105469 204.964844 206.207031 205.105469 C 206.191406 205.210938 206.15625 205.320312 206.15625 205.425781 C 206.15625 206.613281 206.175781 207.796875 206.160156 208.980469 C 206.148438 210.058594 206.105469 211.132812 206.070312 212.207031 C 206.027344 212.488281 205.972656 212.769531 205.941406 213.050781 C 205.617188 215.796875 204.964844 218.457031 203.910156 221.011719 C 203.535156 221.925781 203.132812 222.824219 202.738281 223.730469 C 202.5625 223.855469 202.519531 224.046875 202.472656 224.238281 C 202.304688 224.355469 202.261719 224.535156 202.214844 224.71875 C 202.042969 224.816406 202.011719 224.996094 201.957031 225.160156 C 201.835938 225.214844 201.796875 225.316406 201.785156 225.4375 C 201.742188 225.460938 201.726562 225.496094 201.730469 225.542969 C 201.601562 225.605469 201.574219 225.746094 201.5 225.847656 C 201.140625 226.367188 200.875 226.949219 200.449219 227.425781 C 200.472656 227.496094 200.421875 227.671875 200.601562 227.511719 C 200.71875 227.402344 200.765625 227.414062 200.78125 227.464844 C 200.792969 227.511719 200.789062 227.585938 200.789062 227.648438 C 199.601562 229.25 198.230469 230.691406 196.761719 232.039062 C 196.613281 232.152344 196.464844 232.265625 196.320312 232.378906 C 195.433594 233.050781 194.550781 233.726562 193.667969 234.402344 C 193.621094 234.398438 193.582031 234.414062 193.554688 234.4375 C 193.535156 234.457031 193.519531 234.476562 193.503906 234.503906 C 193.429688 234.503906 193.378906 234.539062 193.347656 234.609375 C 193.273438 234.605469 193.21875 234.640625 193.191406 234.710938 C 193.113281 234.703125 193.0625 234.742188 193.035156 234.8125 C 192.957031 234.808594 192.902344 234.839844 192.875 234.910156 C 192.796875 234.902344 192.742188 234.9375 192.714844 235.007812 L 192.714844 235.011719 C 192.636719 235 192.582031 235.035156 192.554688 235.105469 C 192.5 235.132812 192.445312 235.164062 192.394531 235.199219 L 192.390625 235.203125 C 192.3125 235.195312 192.261719 235.222656 192.230469 235.296875 L 192.226562 235.296875 C 192.148438 235.289062 192.097656 235.320312 192.066406 235.390625 L 192.0625 235.394531 C 192.0625 235.394531 192.058594 235.394531 192.058594 235.394531 C 192.058594 235.394531 192.0625 235.394531 192.0625 235.394531 C 191.984375 235.382812 191.933594 235.414062 191.902344 235.484375 L 191.898438 235.488281 C 191.824219 235.476562 191.769531 235.507812 191.742188 235.582031 L 191.738281 235.582031 C 191.660156 235.570312 191.605469 235.601562 191.574219 235.671875 C 191.054688 235.925781 190.535156 236.175781 190.011719 236.425781 C 189.785156 236.640625 189.484375 236.722656 189.203125 236.84375 C 189.175781 236.820312 189.15625 236.792969 189.140625 236.765625 C 189.117188 236.722656 189.109375 236.675781 189.117188 236.621094 C 188.898438 236.691406 188.671875 236.742188 188.496094 236.902344 C 188.449219 236.957031 188.394531 237.003906 188.320312 237.027344 C 188.378906 236.984375 188.4375 236.945312 188.496094 236.902344 C 188.421875 236.910156 188.351562 236.925781 188.328125 237.007812 C 188.214844 236.976562 188.121094 237.011719 188.039062 237.089844 C 187.964844 237.070312 187.910156 237.085938 187.871094 237.15625 C 187.792969 237.15625 187.726562 237.167969 187.683594 237.242188 C 187.644531 237.234375 187.613281 237.238281 187.582031 237.269531 C 187.355469 237.296875 187.144531 237.367188 186.953125 237.492188 C 186.792969 237.519531 186.632812 237.542969 186.503906 237.648438 C 186.394531 237.628906 186.308594 237.683594 186.21875 237.730469 C 185.589844 237.839844 184.988281 238.0625 184.308594 238.054688 C 184.410156 238.269531 184.273438 238.488281 184.472656 238.621094 Z M 206.324219 204.710938 C 206.320312 204.714844 206.320312 204.714844 206.320312 204.714844 C 206.324219 204.714844 206.324219 204.714844 206.324219 204.714844 C 206.324219 204.714844 206.320312 204.714844 206.320312 204.714844 C 206.320312 204.714844 206.316406 204.714844 206.316406 204.714844 C 206.320312 204.710938 206.320312 204.710938 206.324219 204.710938 Z M 192.117188 235.785156 C 192.132812 235.78125 192.148438 235.777344 192.160156 235.773438 C 192.15625 235.773438 192.15625 235.777344 192.152344 235.777344 C 192.140625 235.785156 192.128906 235.792969 192.117188 235.796875 C 192.117188 235.796875 192.117188 235.792969 192.117188 235.785156 Z M 193.664062 234.410156 C 193.664062 234.410156 193.664062 234.414062 193.664062 234.414062 C 193.667969 234.417969 193.671875 234.421875 193.671875 234.425781 L 193.679688 234.441406 L 193.664062 234.414062 C 193.660156 234.410156 193.660156 234.414062 193.660156 234.414062 C 193.660156 234.414062 193.660156 234.410156 193.664062 234.410156 Z M 192.113281 235.855469 C 192.113281 235.835938 192.117188 235.816406 192.117188 235.800781 C 192.128906 235.796875 192.140625 235.789062 192.148438 235.78125 C 192.128906 235.800781 192.113281 235.824219 192.113281 235.855469 Z M 192.226562 235.742188 C 192.238281 235.734375 192.25 235.726562 192.265625 235.722656 C 192.265625 235.722656 192.265625 235.71875 192.269531 235.722656 C 192.253906 235.726562 192.238281 235.734375 192.226562 235.742188 Z M 185.667969 238.808594 C 185.667969 238.808594 185.664062 238.8125 185.664062 238.8125 C 185.660156 238.8125 185.660156 238.8125 185.65625 238.8125 C 185.660156 238.8125 185.664062 238.808594 185.667969 238.808594 Z M 185.949219 238.757812 C 185.949219 238.761719 185.953125 238.761719 185.957031 238.757812 C 185.953125 238.757812 185.949219 238.757812 185.949219 238.757812 Z M 188.261719 237.125 C 188.261719 237.136719 188.261719 237.152344 188.265625 237.167969 C 188.257812 237.164062 188.25 237.164062 188.238281 237.160156 C 188.246094 237.148438 188.253906 237.136719 188.261719 237.125 Z M 187.773438 237.242188 C 187.753906 237.253906 187.726562 237.257812 187.699219 237.253906 C 187.699219 237.253906 187.699219 237.253906 187.703125 237.253906 C 187.726562 237.253906 187.753906 237.253906 187.773438 237.242188 Z M 187.773438 237.242188 " fill-opacity="1" fill-rule="nonzero"/></g></g></g></g><g clip-path="url(#efa6a4a9e0)"><g clip-path="url(#9b291291b9)"><g clip-path="url(#649da16316)"><g clip-path="url(#fc6f7cca96)"><path fill="#ffffff" d="M 192.386719 235.207031 C 192.441406 235.175781 192.492188 235.144531 192.546875 235.117188 C 192.46875 235.105469 192.414062 235.136719 192.386719 235.207031 Z M 192.386719 235.207031 " fill-opacity="1" fill-rule="nonzero"/></g></g></g></g><g clip-path="url(#99413ffe28)"><g clip-path="url(#0305577b75)"><g clip-path="url(#0852b74f84)"><g clip-path="url(#78ae28fa0f)"><path fill="#ffffff" d="M 80.570312 198.898438 C 80.527344 198.894531 80.492188 198.910156 80.46875 198.945312 C 80.324219 198.917969 80.289062 198.6875 80.097656 198.757812 C 79.660156 198.640625 79.4375 198.90625 79.25 199.234375 C 78.730469 200.144531 78.371094 201.121094 78.070312 202.121094 C 76.996094 205.699219 76.722656 209.324219 77.09375 213.03125 C 77.734375 219.503906 80.46875 224.988281 84.734375 229.769531 C 86.710938 231.988281 89.042969 233.816406 91.460938 235.539062 C 92.882812 236.546875 94.359375 237.46875 95.816406 238.429688 C 95.886719 238.441406 95.953125 238.449219 96.019531 238.460938 C 96.0625 238.527344 96.128906 238.585938 96.132812 238.65625 C 96.132812 238.65625 96.132812 238.65625 96.132812 238.660156 C 96.136719 238.710938 96.058594 238.71875 96.007812 238.683594 C 95.320312 238.730469 94.648438 238.632812 93.980469 238.5 C 93.523438 238.40625 93.070312 238.351562 92.609375 238.433594 C 91.625 238.226562 90.921875 238.609375 90.613281 239.472656 C 92.167969 240.71875 94.019531 240.957031 95.925781 241.042969 C 96.636719 241.078125 97.339844 241.15625 98.046875 241.226562 C 99.738281 241.394531 99.503906 241.277344 100.332031 240.167969 C 100.515625 239.917969 100.640625 239.632812 100.738281 239.335938 C 100.773438 239.226562 100.792969 239.125 100.734375 239.019531 C 100.929688 238.722656 100.785156 238.46875 100.632812 238.226562 C 100.179688 237.503906 99.71875 236.789062 99.261719 236.070312 C 99.257812 235.863281 99.140625 235.71875 99.011719 235.578125 C 99.015625 235.375 98.894531 235.230469 98.78125 235.082031 C 98.808594 234.9375 98.707031 234.832031 98.660156 234.710938 C 98.007812 233.089844 97.550781 231.417969 97.382812 229.671875 C 97.371094 229.539062 97.347656 229.410156 97.328125 229.28125 C 97.308594 229.125 97.285156 228.945312 97.109375 228.914062 C 96.976562 228.890625 96.824219 229.007812 96.785156 229.117188 C 96.621094 229.605469 96.1875 229.914062 95.984375 230.371094 C 95.894531 230.574219 95.898438 230.796875 95.902344 231.019531 C 95.933594 232.757812 96.269531 234.4375 96.785156 236.082031 C 96.828125 236.230469 96.898438 236.375 96.914062 236.527344 C 96.929688 236.703125 96.789062 236.730469 96.640625 236.722656 C 96.574219 236.5625 96.449219 236.488281 96.277344 236.496094 C 96.183594 236.359375 96.082031 236.238281 95.894531 236.25 C 95.890625 236.207031 95.867188 236.191406 95.824219 236.199219 C 95.742188 236.070312 95.640625 235.960938 95.464844 235.964844 C 95.390625 235.886719 95.320312 235.800781 95.234375 235.738281 C 94.265625 235.054688 93.285156 234.390625 92.324219 233.695312 C 91.449219 233.066406 90.597656 232.410156 89.738281 231.765625 C 89.53125 231.570312 89.335938 231.363281 89.121094 231.175781 C 87.0625 229.328125 85.261719 227.265625 83.78125 224.933594 C 83.25 224.097656 82.746094 223.25 82.234375 222.40625 C 82.234375 222.191406 82.101562 222.046875 81.96875 221.898438 C 81.972656 221.691406 81.847656 221.550781 81.726562 221.410156 C 81.742188 221.214844 81.613281 221.085938 81.511719 220.945312 C 81.539062 220.816406 81.476562 220.722656 81.386719 220.644531 C 81.390625 220.597656 81.375 220.5625 81.332031 220.542969 C 81.355469 220.398438 81.257812 220.292969 81.214844 220.175781 C 80.996094 219.582031 80.671875 219.03125 80.527344 218.410156 C 80.457031 218.390625 80.34375 218.246094 80.371094 218.484375 C 80.390625 218.644531 80.355469 218.671875 80.304688 218.65625 C 80.261719 218.640625 80.199219 218.59375 80.152344 218.5625 C 79.527344 216.664062 79.136719 214.714844 78.878906 212.738281 C 78.871094 212.550781 78.863281 212.363281 78.855469 212.179688 C 78.816406 211.070312 78.773438 209.957031 78.730469 208.847656 C 78.757812 208.808594 78.765625 208.773438 78.761719 208.734375 C 78.761719 208.707031 78.75 208.679688 78.738281 208.65625 C 78.78125 208.59375 78.78125 208.53125 78.742188 208.46875 C 78.789062 208.40625 78.789062 208.34375 78.75 208.28125 C 78.796875 208.21875 78.800781 208.15625 78.757812 208.09375 C 78.804688 208.03125 78.8125 207.96875 78.769531 207.90625 C 78.820312 207.84375 78.820312 207.785156 78.777344 207.71875 L 78.78125 207.71875 C 78.832031 207.660156 78.835938 207.597656 78.792969 207.535156 L 78.792969 207.53125 C 78.800781 207.46875 78.804688 207.410156 78.808594 207.347656 L 78.808594 207.339844 C 78.859375 207.285156 78.867188 207.222656 78.824219 207.160156 L 78.824219 207.152344 C 78.875 207.09375 78.882812 207.035156 78.839844 206.96875 L 78.839844 206.964844 C 78.839844 206.964844 78.839844 206.960938 78.839844 206.960938 C 78.839844 206.960938 78.839844 206.964844 78.839844 206.964844 C 78.894531 206.90625 78.898438 206.84375 78.855469 206.78125 L 78.855469 206.777344 C 78.910156 206.71875 78.914062 206.65625 78.875 206.59375 L 78.875 206.589844 C 78.925781 206.53125 78.933594 206.46875 78.894531 206.402344 C 78.988281 205.832031 79.082031 205.265625 79.175781 204.695312 C 79.132812 204.382812 79.238281 204.089844 79.300781 203.792969 C 79.335938 203.78125 79.367188 203.78125 79.398438 203.785156 C 79.449219 203.792969 79.492188 203.8125 79.53125 203.847656 C 79.601562 203.628906 79.691406 203.414062 79.660156 203.179688 C 79.640625 203.105469 79.636719 203.035156 79.660156 202.964844 C 79.660156 203.035156 79.65625 203.105469 79.660156 203.179688 C 79.695312 203.113281 79.722656 203.046875 79.671875 202.980469 C 79.761719 202.90625 79.785156 202.808594 79.769531 202.695312 C 79.828125 202.648438 79.847656 202.59375 79.8125 202.523438 C 79.859375 202.460938 79.882812 202.398438 79.851562 202.320312 C 79.878906 202.292969 79.890625 202.261719 79.886719 202.222656 C 79.996094 202.019531 80.058594 201.808594 80.066406 201.578125 C 80.136719 201.433594 80.207031 201.289062 80.195312 201.121094 C 80.273438 201.042969 80.28125 200.941406 80.292969 200.839844 C 80.566406 200.265625 80.730469 199.640625 81.128906 199.089844 C 80.894531 199.050781 80.796875 198.8125 80.570312 198.898438 Z M 95.722656 236.285156 C 95.722656 236.285156 95.722656 236.285156 95.71875 236.28125 C 95.71875 236.285156 95.71875 236.285156 95.71875 236.285156 C 95.71875 236.285156 95.71875 236.28125 95.71875 236.28125 C 95.722656 236.28125 95.722656 236.28125 95.722656 236.277344 C 95.722656 236.28125 95.722656 236.285156 95.722656 236.285156 Z M 78.488281 206.785156 C 78.484375 206.796875 78.480469 206.8125 78.476562 206.828125 C 78.476562 206.824219 78.476562 206.820312 78.476562 206.816406 C 78.476562 206.800781 78.476562 206.789062 78.480469 206.777344 C 78.480469 206.777344 78.484375 206.78125 78.488281 206.785156 Z M 78.722656 208.839844 C 78.722656 208.839844 78.722656 208.839844 78.71875 208.839844 C 78.714844 208.835938 78.710938 208.839844 78.703125 208.835938 L 78.6875 208.832031 L 78.722656 208.839844 C 78.722656 208.835938 78.722656 208.835938 78.722656 208.835938 C 78.722656 208.835938 78.722656 208.835938 78.722656 208.839844 Z M 78.433594 206.738281 C 78.449219 206.75 78.464844 206.761719 78.476562 206.773438 C 78.476562 206.785156 78.472656 206.800781 78.472656 206.8125 C 78.472656 206.785156 78.457031 206.757812 78.433594 206.738281 Z M 78.460938 206.898438 C 78.460938 206.910156 78.460938 206.925781 78.457031 206.941406 C 78.457031 206.941406 78.457031 206.941406 78.453125 206.945312 C 78.457031 206.925781 78.460938 206.910156 78.460938 206.898438 Z M 79.726562 199.769531 C 79.726562 199.769531 79.726562 199.765625 79.726562 199.765625 C 79.726562 199.765625 79.726562 199.761719 79.726562 199.761719 C 79.730469 199.761719 79.730469 199.757812 79.730469 199.757812 C 79.730469 199.761719 79.730469 199.765625 79.726562 199.769531 Z M 79.609375 200.027344 C 79.605469 200.027344 79.601562 200.03125 79.601562 200.035156 C 79.605469 200.03125 79.605469 200.027344 79.609375 200.027344 Z M 79.613281 202.859375 C 79.601562 202.851562 79.589844 202.84375 79.574219 202.839844 C 79.582031 202.832031 79.589844 202.828125 79.59375 202.820312 C 79.601562 202.835938 79.609375 202.847656 79.613281 202.859375 Z M 79.796875 202.394531 C 79.796875 202.367188 79.808594 202.347656 79.828125 202.324219 C 79.828125 202.324219 79.828125 202.324219 79.828125 202.328125 C 79.8125 202.347656 79.800781 202.371094 79.796875 202.394531 Z M 79.796875 202.394531 " fill-opacity="1" fill-rule="nonzero"/></g></g></g></g><g clip-path="url(#b8a86edb63)"><g clip-path="url(#d4e27b85c1)"><g clip-path="url(#941562b450)"><g clip-path="url(#171ef1241a)"><path fill="#ffffff" d="M 78.804688 207.335938 C 78.800781 207.398438 78.796875 207.457031 78.789062 207.519531 C 78.84375 207.460938 78.847656 207.398438 78.804688 207.335938 Z M 78.804688 207.335938 " fill-opacity="1" fill-rule="nonzero"/></g></g></g></g><g clip-path="url(#6e43495e0a)"><g clip-path="url(#f1657fb6f0)"><g clip-path="url(#14d403ec84)"><g clip-path="url(#11c8b45c94)"><path fill="#ffffff" d="M 164.621094 128.824219 C 164.644531 128.792969 164.652344 128.753906 164.640625 128.714844 C 164.742188 128.613281 164.953125 128.714844 165.007812 128.519531 C 165.351562 128.226562 165.257812 127.890625 165.097656 127.550781 C 164.640625 126.605469 164.046875 125.75 163.394531 124.933594 C 161.070312 122.015625 158.246094 119.722656 154.988281 117.910156 C 149.304688 114.753906 143.238281 113.871094 136.878906 114.648438 C 133.933594 115.007812 131.101562 115.882812 128.308594 116.890625 C 126.667969 117.480469 125.066406 118.171875 123.449219 118.820312 C 123.402344 118.871094 123.355469 118.921875 123.304688 118.96875 C 123.230469 118.964844 123.140625 118.984375 123.082031 118.953125 C 123.082031 118.953125 123.082031 118.953125 123.078125 118.949219 C 123.03125 118.921875 123.070312 118.855469 123.128906 118.832031 C 123.484375 118.242188 123.949219 117.742188 124.4375 117.269531 C 124.773438 116.949219 125.078125 116.609375 125.273438 116.183594 C 126.003906 115.492188 126.09375 114.695312 125.558594 113.949219 C 123.648438 114.515625 122.398438 115.90625 121.238281 117.421875 C 120.804688 117.984375 120.339844 118.519531 119.878906 119.058594 C 118.777344 120.351562 119.007812 120.226562 119.449219 121.539062 C 119.546875 121.832031 119.710938 122.101562 119.898438 122.347656 C 119.96875 122.4375 120.042969 122.515625 120.160156 122.523438 C 120.292969 122.855469 120.585938 122.882812 120.871094 122.894531 C 121.722656 122.933594 122.574219 122.964844 123.425781 122.996094 C 123.59375 123.109375 123.78125 123.09375 123.96875 123.070312 C 124.136719 123.191406 124.324219 123.175781 124.511719 123.164062 C 124.613281 123.269531 124.757812 123.246094 124.882812 123.273438 C 126.585938 123.664062 128.21875 124.242188 129.75 125.101562 C 129.867188 125.164062 129.988281 125.21875 130.105469 125.277344 C 130.246094 125.351562 130.402344 125.433594 130.527344 125.304688 C 130.625 125.207031 130.617188 125.019531 130.546875 124.925781 C 130.242188 124.511719 130.234375 123.976562 129.972656 123.550781 C 129.859375 123.363281 129.675781 123.238281 129.488281 123.113281 C 128.042969 122.148438 126.472656 121.46875 124.824219 120.953125 C 124.675781 120.90625 124.519531 120.882812 124.386719 120.808594 C 124.234375 120.71875 124.289062 120.585938 124.378906 120.472656 C 124.554688 120.507812 124.683594 120.445312 124.777344 120.300781 C 124.9375 120.300781 125.097656 120.289062 125.195312 120.125 C 125.234375 120.148438 125.257812 120.136719 125.277344 120.097656 C 125.429688 120.101562 125.578125 120.082031 125.671875 119.9375 C 125.78125 119.917969 125.890625 119.914062 125.992188 119.875 C 127.105469 119.46875 128.210938 119.042969 129.328125 118.648438 C 130.34375 118.289062 131.367188 117.960938 132.386719 117.625 C 132.667969 117.566406 132.949219 117.523438 133.226562 117.453125 C 135.914062 116.816406 138.636719 116.511719 141.398438 116.625 C 142.386719 116.664062 143.371094 116.734375 144.355469 116.792969 C 144.53125 116.914062 144.726562 116.886719 144.925781 116.863281 C 145.089844 116.984375 145.277344 116.964844 145.464844 116.945312 C 145.617188 117.070312 145.792969 117.039062 145.96875 117.035156 C 146.058594 117.128906 146.171875 117.132812 146.285156 117.101562 C 146.324219 117.132812 146.359375 117.136719 146.402344 117.113281 C 146.507812 117.214844 146.648438 117.195312 146.769531 117.226562 C 147.382812 117.386719 148.019531 117.433594 148.613281 117.667969 C 148.667969 117.625 148.851562 117.613281 148.640625 117.5 C 148.5 117.425781 148.492188 117.378906 148.535156 117.34375 C 148.574219 117.316406 148.648438 117.296875 148.703125 117.273438 C 150.617188 117.839844 152.441406 118.632812 154.214844 119.546875 C 154.371094 119.644531 154.527344 119.746094 154.683594 119.847656 C 155.621094 120.445312 156.558594 121.042969 157.492188 121.640625 C 157.507812 121.683594 157.535156 121.714844 157.570312 121.734375 C 157.59375 121.746094 157.617188 121.753906 157.648438 121.757812 C 157.671875 121.828125 157.722656 121.863281 157.796875 121.867188 C 157.820312 121.941406 157.871094 121.976562 157.949219 121.980469 C 157.96875 122.054688 158.019531 122.09375 158.097656 122.09375 C 158.121094 122.167969 158.167969 122.210938 158.246094 122.210938 C 158.265625 122.285156 158.316406 122.324219 158.394531 122.324219 L 158.394531 122.328125 C 158.414062 122.402344 158.460938 122.441406 158.539062 122.441406 L 158.539062 122.445312 C 158.585938 122.484375 158.632812 122.523438 158.683594 122.5625 L 158.6875 122.566406 C 158.707031 122.640625 158.75 122.679688 158.828125 122.683594 L 158.832031 122.6875 C 158.851562 122.761719 158.898438 122.800781 158.972656 122.800781 L 158.980469 122.804688 C 158.980469 122.804688 158.980469 122.808594 158.980469 122.808594 C 158.980469 122.808594 158.980469 122.804688 158.980469 122.804688 C 158.996094 122.882812 159.042969 122.921875 159.121094 122.925781 L 159.125 122.925781 C 159.140625 123.003906 159.1875 123.042969 159.265625 123.046875 C 159.285156 123.125 159.332031 123.164062 159.410156 123.167969 C 159.824219 123.570312 160.238281 123.972656 160.652344 124.375 C 160.933594 124.515625 161.113281 124.773438 161.324219 124.992188 C 161.3125 125.027344 161.292969 125.054688 161.269531 125.078125 C 161.238281 125.113281 161.199219 125.136719 161.144531 125.148438 C 161.285156 125.332031 161.410156 125.527344 161.621094 125.636719 C 161.691406 125.664062 161.753906 125.699219 161.796875 125.757812 C 161.742188 125.71875 161.683594 125.675781 161.621094 125.636719 C 161.65625 125.703125 161.695312 125.765625 161.777344 125.757812 C 161.789062 125.875 161.855469 125.949219 161.957031 126 C 161.960938 126.078125 161.996094 126.125 162.074219 126.136719 C 162.097656 126.210938 162.136719 126.265625 162.21875 126.28125 C 162.226562 126.320312 162.242188 126.351562 162.277344 126.371094 C 162.382812 126.574219 162.523438 126.746094 162.703125 126.882812 C 162.785156 127.023438 162.863281 127.167969 163.007812 127.25 C 163.027344 127.359375 163.109375 127.421875 163.179688 127.492188 C 163.5 128.042969 163.917969 128.53125 164.140625 129.175781 C 164.308594 129.003906 164.5625 129.058594 164.621094 128.824219 Z M 125.265625 119.964844 C 125.265625 119.964844 125.269531 119.964844 125.269531 119.964844 C 125.269531 119.964844 125.265625 119.964844 125.265625 119.964844 C 125.265625 119.964844 125.265625 119.96875 125.269531 119.96875 C 125.265625 119.96875 125.265625 119.964844 125.265625 119.964844 Z M 159.328125 122.617188 C 159.320312 122.609375 159.308594 122.597656 159.300781 122.585938 C 159.304688 122.585938 159.304688 122.589844 159.308594 122.589844 C 159.320312 122.597656 159.328125 122.605469 159.339844 122.617188 C 159.335938 122.617188 159.332031 122.617188 159.328125 122.617188 Z M 157.503906 121.640625 C 157.503906 121.640625 157.507812 121.640625 157.507812 121.640625 C 157.511719 121.636719 157.511719 121.628906 157.515625 121.628906 L 157.53125 121.617188 L 157.507812 121.640625 C 157.507812 121.640625 157.507812 121.640625 157.507812 121.644531 C 157.507812 121.640625 157.507812 121.640625 157.503906 121.640625 Z M 159.394531 122.601562 C 159.375 122.605469 159.359375 122.609375 159.34375 122.613281 C 159.332031 122.605469 159.324219 122.597656 159.3125 122.589844 C 159.335938 122.605469 159.363281 122.609375 159.394531 122.601562 Z M 159.25 122.535156 C 159.238281 122.523438 159.226562 122.515625 159.214844 122.503906 C 159.21875 122.503906 159.214844 122.503906 159.214844 122.5 C 159.226562 122.511719 159.238281 122.523438 159.25 122.535156 Z M 164.382812 127.636719 C 164.386719 127.636719 164.386719 127.636719 164.390625 127.640625 C 164.390625 127.640625 164.390625 127.644531 164.390625 127.644531 C 164.386719 127.644531 164.386719 127.640625 164.382812 127.636719 Z M 164.242188 127.390625 C 164.242188 127.386719 164.242188 127.386719 164.238281 127.382812 C 164.238281 127.386719 164.242188 127.390625 164.242188 127.390625 Z M 161.910156 125.78125 C 161.921875 125.777344 161.9375 125.769531 161.949219 125.761719 C 161.949219 125.769531 161.953125 125.78125 161.953125 125.789062 C 161.9375 125.785156 161.925781 125.785156 161.910156 125.78125 Z M 162.191406 126.195312 C 162.207031 126.210938 162.21875 126.234375 162.226562 126.261719 C 162.214844 126.238281 162.207031 126.214844 162.191406 126.195312 Z M 162.191406 126.195312 " fill-opacity="1" fill-rule="nonzero"/></g></g></g></g><g clip-path="url(#683bc6f71d)"><g clip-path="url(#d374e031cf)"><g clip-path="url(#71d9a7d8f0)"><g clip-path="url(#927c471156)"><path fill="#ffffff" d="M 158.691406 122.566406 C 158.644531 122.527344 158.597656 122.488281 158.550781 122.449219 C 158.570312 122.523438 158.617188 122.5625 158.691406 122.566406 Z M 158.691406 122.566406 " fill-opacity="1" fill-rule="nonzero"/></g></g></g></g><path stroke-linecap="butt" transform="matrix(0.74987, 0.00605191, -0.00605275, 0.749976, 136.490312, 77.868328)" fill="none" stroke-linejoin="miter" d="M -0.00220402 1.998562 L 223.03636 2.000901 " stroke="#000000" stroke-width="4" stroke-opacity="1" stroke-miterlimit="4"/><path stroke-linecap="butt" transform="matrix(0.750617, -0.00364086, 0.00363783, 0.749991, 135.126205, 291.168432)" fill="none" stroke-linejoin="miter" d="M -0.000887235 1.999401 L 224.814281 2.002221 " stroke="#000000" stroke-width="4" stroke-opacity="1" stroke-miterlimit="4"/><g clip-path="url(#3ad4f923e1)"><path fill="#38b6ff" d="M 294.695312 306.992188 L 286.203125 297.5 C 286.019531 297.296875 285.765625 297.183594 285.5 297.183594 L 279.835938 297.183594 C 279.464844 297.183594 279.128906 297.402344 278.972656 297.746094 C 278.824219 298.089844 278.886719 298.488281 279.136719 298.765625 L 287.058594 307.628906 L 279.136719 316.484375 C 278.886719 316.765625 278.820312 317.164062 278.972656 317.507812 C 279.128906 317.851562 279.464844 318.070312 279.835938 318.070312 L 285.5 318.070312 C 285.765625 318.070312 286.019531 317.953125 286.203125 317.757812 L 294.695312 308.261719 C 295.015625 307.902344 295.015625 307.351562 294.695312 306.992188 Z M 294.695312 306.992188 " fill-opacity="1" fill-rule="nonzero"/></g><g clip-path="url(#9c13b859d1)"><path fill="#38b6ff" d="M 282.425781 306.992188 L 273.933594 297.5 C 273.75 297.296875 273.5 297.183594 273.230469 297.183594 L 267.570312 297.183594 C 267.195312 297.183594 266.859375 297.402344 266.707031 297.746094 C 266.554688 298.089844 266.617188 298.488281 266.867188 298.765625 L 274.792969 307.628906 L 266.867188 316.484375 C 266.617188 316.765625 266.554688 317.164062 266.707031 317.507812 C 266.859375 317.851562 267.195312 318.070312 267.570312 318.070312 L 273.230469 318.070312 C 273.5 318.070312 273.75 317.953125 273.933594 317.757812 L 282.425781 308.261719 C 282.75 307.902344 282.75 307.351562 282.425781 306.992188 Z M 282.425781 306.992188 " fill-opacity="1" fill-rule="nonzero"/></g><g clip-path="url(#fb536dada0)"><path fill="#5ce1e6" d="M 257.570312 306.992188 L 249.078125 297.5 C 248.894531 297.296875 248.640625 297.183594 248.375 297.183594 L 242.710938 297.183594 C 242.339844 297.183594 242.003906 297.402344 241.847656 297.746094 C 241.699219 298.089844 241.761719 298.488281 242.007812 298.765625 L 249.933594 307.628906 L 242.007812 316.484375 C 241.761719 316.765625 241.695312 317.164062 241.847656 317.507812 C 242.003906 317.851562 242.339844 318.070312 242.710938 318.070312 L 248.375 318.070312 C 248.640625 318.070312 248.894531 317.953125 249.078125 317.757812 L 257.570312 308.261719 C 257.890625 307.902344 257.890625 307.351562 257.570312 306.992188 Z M 257.570312 306.992188 " fill-opacity="1" fill-rule="nonzero"/></g><g clip-path="url(#860760dd95)"><path fill="#5ce1e6" d="M 245.300781 306.992188 L 236.808594 297.5 C 236.625 297.296875 236.375 297.183594 236.105469 297.183594 L 230.445312 297.183594 C 230.070312 297.183594 229.734375 297.402344 229.582031 297.746094 C 229.429688 298.089844 229.492188 298.488281 229.742188 298.765625 L 237.667969 307.628906 L 229.742188 316.484375 C 229.492188 316.765625 229.429688 317.164062 229.582031 317.507812 C 229.734375 317.851562 230.070312 318.070312 230.445312 318.070312 L 236.105469 318.070312 C 236.375 318.070312 236.625 317.953125 236.808594 317.757812 L 245.300781 308.261719 C 245.625 307.902344 245.625 307.351562 245.300781 306.992188 Z M 245.300781 306.992188 " fill-opacity="1" fill-rule="nonzero"/></g><g clip-path="url(#4b331b90ef)"><path fill="#38b6ff" d="M 220.445312 306.992188 L 211.953125 297.5 C 211.769531 297.296875 211.515625 297.183594 211.25 297.183594 L 205.585938 297.183594 C 205.214844 297.183594 204.878906 297.402344 204.722656 297.746094 C 204.574219 298.089844 204.636719 298.488281 204.886719 298.765625 L 212.808594 307.628906 L 204.886719 316.484375 C 204.636719 316.765625 204.570312 317.164062 204.722656 317.507812 C 204.878906 317.851562 205.214844 318.070312 205.585938 318.070312 L 211.25 318.070312 C 211.515625 318.070312 211.769531 317.953125 211.953125 317.757812 L 220.445312 308.261719 C 220.765625 307.902344 220.765625 307.351562 220.445312 306.992188 Z M 220.445312 306.992188 " fill-opacity="1" fill-rule="nonzero"/></g><g clip-path="url(#34691e2ae3)"><path fill="#38b6ff" d="M 208.175781 306.992188 L 199.683594 297.5 C 199.5 297.296875 199.25 297.183594 198.980469 297.183594 L 193.320312 297.183594 C 192.945312 297.183594 192.609375 297.402344 192.457031 297.746094 C 192.304688 298.089844 192.367188 298.488281 192.617188 298.765625 L 200.542969 307.628906 L 192.617188 316.484375 C 192.367188 316.765625 192.304688 317.164062 192.457031 317.507812 C 192.609375 317.851562 192.945312 318.070312 193.320312 318.070312 L 198.980469 318.070312 C 199.25 318.070312 199.5 317.953125 199.683594 317.757812 L 208.175781 308.261719 C 208.5 307.902344 208.5 307.351562 208.175781 306.992188 Z M 208.175781 306.992188 " fill-opacity="1" fill-rule="nonzero"/></g><g clip-path="url(#dba9dea26d)"><path fill="#38b6ff" d="M 183.320312 306.992188 L 174.828125 297.5 C 174.644531 297.296875 174.390625 297.183594 174.125 297.183594 L 168.460938 297.183594 C 168.089844 297.183594 167.753906 297.402344 167.597656 297.746094 C 167.449219 298.089844 167.511719 298.488281 167.761719 298.765625 L 175.683594 307.628906 L 167.761719 316.484375 C 167.511719 316.765625 167.445312 317.164062 167.597656 317.507812 C 167.753906 317.851562 168.089844 318.070312 168.460938 318.070312 L 174.125 318.070312 C 174.390625 318.070312 174.644531 317.953125 174.828125 317.757812 L 183.320312 308.261719 C 183.640625 307.902344 183.640625 307.351562 183.320312 306.992188 Z M 183.320312 306.992188 " fill-opacity="1" fill-rule="nonzero"/></g><g clip-path="url(#b2b9694793)"><path fill="#38b6ff" d="M 171.050781 306.992188 L 162.558594 297.5 C 162.375 297.296875 162.125 297.183594 161.855469 297.183594 L 156.195312 297.183594 C 155.820312 297.183594 155.484375 297.402344 155.332031 297.746094 C 155.179688 298.089844 155.242188 298.488281 155.492188 298.765625 L 163.417969 307.628906 L 155.492188 316.484375 C 155.242188 316.765625 155.179688 317.164062 155.332031 317.507812 C 155.484375 317.851562 155.820312 318.070312 156.195312 318.070312 L 161.855469 318.070312 C 162.125 318.070312 162.375 317.953125 162.558594 317.757812 L 171.050781 308.261719 C 171.375 307.902344 171.375 307.351562 171.050781 306.992188 Z M 171.050781 306.992188 " fill-opacity="1" fill-rule="nonzero"/></g><g clip-path="url(#331aa88e29)"><g clip-path="url(#5b06344d91)"><g clip-path="url(#8950dd1be6)"><path fill="#38b6ff" d="M 146.183594 306.746094 L 137.523438 297.402344 C 137.339844 297.207031 137.085938 297.097656 136.816406 297.101562 L 131.15625 297.199219 C 130.785156 297.207031 130.449219 297.433594 130.304688 297.777344 C 130.160156 298.125 130.226562 298.523438 130.480469 298.796875 L 138.5625 307.515625 L 130.792969 316.511719 C 130.550781 316.796875 130.492188 317.195312 130.652344 317.535156 C 130.8125 317.875 131.152344 318.089844 131.523438 318.085938 L 137.1875 317.984375 C 137.453125 317.980469 137.703125 317.859375 137.882812 317.660156 L 146.207031 308.015625 C 146.523438 307.648438 146.511719 307.097656 146.183594 306.746094 Z M 146.183594 306.746094 " fill-opacity="1" fill-rule="nonzero"/></g></g></g><g clip-path="url(#303518b976)"><g clip-path="url(#875f67da3b)"><g clip-path="url(#d5ec19b8c3)"><path fill="#38b6ff" d="M 133.917969 306.960938 L 125.257812 297.621094 C 125.074219 297.421875 124.820312 297.3125 124.550781 297.316406 L 118.890625 297.417969 C 118.519531 297.425781 118.183594 297.648438 118.035156 297.996094 C 117.890625 298.339844 117.960938 298.742188 118.214844 299.011719 L 126.296875 307.730469 L 118.527344 316.726562 C 118.285156 317.011719 118.226562 317.414062 118.386719 317.753906 C 118.546875 318.09375 118.886719 318.308594 119.257812 318.300781 L 124.921875 318.203125 C 125.1875 318.195312 125.4375 318.074219 125.617188 317.875 L 133.941406 308.234375 C 134.257812 307.867188 134.246094 307.316406 133.917969 306.960938 Z M 133.917969 306.960938 " fill-opacity="1" fill-rule="nonzero"/></g></g></g><g clip-path="url(#045509977a)"><g clip-path="url(#9e74acd9fb)"><g clip-path="url(#2544db29e9)"><path fill="#5ce1e6" d="M 99.40625 301.191406 L 97.382812 288.617188 C 97.335938 288.347656 97.1875 288.117188 96.960938 287.972656 L 92.195312 284.914062 C 91.882812 284.714844 91.476562 284.714844 91.164062 284.921875 C 90.851562 285.128906 90.6875 285.5 90.75 285.867188 L 92.636719 297.605469 L 81.183594 300.78125 C 80.824219 300.882812 80.550781 301.183594 80.496094 301.554688 C 80.441406 301.925781 80.605469 302.296875 80.917969 302.496094 L 85.683594 305.554688 C 85.910156 305.699219 86.183594 305.738281 86.445312 305.667969 L 98.71875 302.261719 C 99.1875 302.132812 99.484375 301.667969 99.40625 301.191406 Z M 99.40625 301.191406 " fill-opacity="1" fill-rule="nonzero"/></g></g></g><g clip-path="url(#30d10d9564)"><g clip-path="url(#afd442f1df)"><g clip-path="url(#1420c38522)"><path fill="#5ce1e6" d="M 89.078125 294.570312 L 87.054688 281.992188 C 87.011719 281.726562 86.859375 281.492188 86.632812 281.347656 L 81.867188 278.292969 C 81.554688 278.089844 81.152344 278.09375 80.839844 278.296875 C 80.527344 278.507812 80.363281 278.878906 80.421875 279.246094 L 82.308594 290.980469 L 70.855469 294.160156 C 70.496094 294.257812 70.226562 294.5625 70.167969 294.933594 C 70.113281 295.304688 70.277344 295.671875 70.589844 295.871094 L 75.359375 298.929688 C 75.582031 299.074219 75.859375 299.113281 76.117188 299.046875 L 88.394531 295.640625 C 88.859375 295.507812 89.15625 295.046875 89.078125 294.570312 Z M 89.078125 294.570312 " fill-opacity="1" fill-rule="nonzero"/></g></g></g><g clip-path="url(#92a16ce80a)"><g clip-path="url(#4beef65362)"><g clip-path="url(#129bae5c3a)"><path fill="#38b6ff" d="M 61.433594 282.320312 L 61.902344 269.589844 C 61.910156 269.316406 61.808594 269.0625 61.613281 268.875 L 57.535156 264.945312 C 57.269531 264.6875 56.871094 264.613281 56.523438 264.753906 C 56.175781 264.894531 55.945312 265.226562 55.929688 265.601562 L 55.492188 277.480469 L 43.640625 278.363281 C 43.265625 278.390625 42.941406 278.632812 42.816406 278.988281 C 42.6875 279.339844 42.777344 279.734375 43.046875 279.992188 L 47.125 283.917969 C 47.316406 284.105469 47.582031 284.195312 47.847656 284.179688 L 60.550781 283.234375 C 61.035156 283.199219 61.414062 282.800781 61.433594 282.320312 Z M 61.433594 282.320312 " fill-opacity="1" fill-rule="nonzero"/></g></g></g><g clip-path="url(#bb218db3d3)"><g clip-path="url(#e39f394bef)"><g clip-path="url(#7f0356a96d)"><path fill="#38b6ff" d="M 52.597656 273.808594 L 53.066406 261.078125 C 53.074219 260.808594 52.96875 260.550781 52.777344 260.363281 L 48.699219 256.4375 C 48.429688 256.179688 48.035156 256.101562 47.6875 256.242188 C 47.339844 256.386719 47.109375 256.71875 47.09375 257.089844 L 46.65625 268.96875 L 34.804688 269.851562 C 34.429688 269.878906 34.105469 270.125 33.980469 270.476562 C 33.851562 270.828125 33.941406 271.222656 34.210938 271.480469 L 38.289062 275.410156 C 38.480469 275.59375 38.742188 275.6875 39.011719 275.671875 L 51.714844 274.722656 C 52.199219 274.6875 52.578125 274.289062 52.597656 273.808594 Z M 52.597656 273.808594 " fill-opacity="1" fill-rule="nonzero"/></g></g></g><g clip-path="url(#24aa546334)"><g clip-path="url(#d542b93137)"><g clip-path="url(#27709667cb)"><path fill="#38b6ff" d="M 36.792969 250.25 L 40.734375 238.136719 C 40.816406 237.878906 40.789062 237.601562 40.652344 237.371094 L 37.808594 232.476562 C 37.621094 232.15625 37.261719 231.972656 36.890625 232.011719 C 36.515625 232.054688 36.199219 232.308594 36.085938 232.664062 L 32.410156 243.96875 L 20.769531 241.570312 C 20.402344 241.492188 20.023438 241.640625 19.804688 241.945312 C 19.585938 242.25 19.5625 242.652344 19.75 242.972656 L 22.597656 247.867188 C 22.730469 248.101562 22.957031 248.261719 23.21875 248.316406 L 35.695312 250.890625 C 36.171875 250.988281 36.648438 250.710938 36.792969 250.25 Z M 36.792969 250.25 " fill-opacity="1" fill-rule="nonzero"/></g></g></g><g clip-path="url(#e7b792a619)"><g clip-path="url(#606ef8f4c1)"><g clip-path="url(#2ad9ec10e7)"><path fill="#38b6ff" d="M 30.628906 239.644531 L 34.570312 227.53125 C 34.652344 227.273438 34.625 226.996094 34.488281 226.765625 L 31.644531 221.871094 C 31.457031 221.546875 31.097656 221.367188 30.722656 221.40625 C 30.351562 221.449219 30.035156 221.703125 29.921875 222.058594 L 26.246094 233.363281 L 14.601562 230.960938 C 14.238281 230.886719 13.859375 231.035156 13.640625 231.335938 C 13.417969 231.640625 13.398438 232.042969 13.585938 232.367188 L 16.429688 237.261719 C 16.566406 237.492188 16.792969 237.652344 17.054688 237.710938 L 29.53125 240.28125 C 30.003906 240.378906 30.480469 240.105469 30.628906 239.644531 Z M 30.628906 239.644531 " fill-opacity="1" fill-rule="nonzero"/></g></g></g><g clip-path="url(#60f4c8f90f)"><path fill="#38b6ff" d="M 20.015625 200.003906 L 29.507812 191.511719 C 29.710938 191.332031 29.824219 191.078125 29.824219 190.808594 L 29.824219 185.148438 C 29.824219 184.777344 29.605469 184.4375 29.261719 184.285156 C 28.917969 184.132812 28.515625 184.195312 28.242188 184.445312 L 19.378906 192.371094 L 10.523438 184.445312 C 10.242188 184.195312 9.84375 184.132812 9.5 184.285156 C 9.15625 184.4375 8.9375 184.777344 8.9375 185.148438 L 8.9375 190.808594 C 8.9375 191.078125 9.050781 191.332031 9.25 191.511719 L 18.746094 200.003906 C 19.105469 200.328125 19.65625 200.328125 20.015625 200.003906 Z M 20.015625 200.003906 " fill-opacity="1" fill-rule="nonzero"/></g><g clip-path="url(#d716c69a3d)"><path fill="#38b6ff" d="M 20.015625 187.738281 L 29.507812 179.242188 C 29.710938 179.0625 29.824219 178.808594 29.824219 178.542969 L 29.824219 172.878906 C 29.824219 172.507812 29.605469 172.171875 29.261719 172.015625 C 28.917969 171.867188 28.515625 171.929688 28.242188 172.175781 L 19.378906 180.101562 L 10.523438 172.175781 C 10.242188 171.929688 9.84375 171.863281 9.5 172.015625 C 9.15625 172.171875 8.9375 172.507812 8.9375 172.878906 L 8.9375 178.542969 C 8.9375 178.808594 9.050781 179.0625 9.25 179.242188 L 18.746094 187.738281 C 19.105469 188.058594 19.65625 188.058594 20.015625 187.738281 Z M 20.015625 187.738281 " fill-opacity="1" fill-rule="nonzero"/></g><g clip-path="url(#4bd687b107)"><g clip-path="url(#4e4224a554)"><g clip-path="url(#63caa31c32)"><path fill="#5ce1e6" d="M 22.28125 145.097656 L 34.921875 143.527344 C 35.191406 143.492188 35.429688 143.347656 35.582031 143.128906 L 38.808594 138.476562 C 39.019531 138.167969 39.03125 137.765625 38.835938 137.445312 C 38.640625 137.125 38.273438 136.949219 37.90625 136.996094 L 26.109375 138.460938 L 23.34375 126.902344 C 23.253906 126.539062 22.960938 126.257812 22.59375 126.191406 C 22.226562 126.121094 21.851562 126.273438 21.640625 126.578125 L 18.414062 131.230469 C 18.261719 131.453125 18.210938 131.726562 18.273438 131.988281 L 21.238281 144.375 C 21.351562 144.847656 21.800781 145.160156 22.28125 145.097656 Z M 22.28125 145.097656 " fill-opacity="1" fill-rule="nonzero"/></g></g></g><g clip-path="url(#5986c3d1f8)"><g clip-path="url(#83f92d0a6c)"><g clip-path="url(#c58f856be4)"><path fill="#5ce1e6" d="M 29.269531 135.015625 L 41.910156 133.441406 C 42.179688 133.410156 42.417969 133.265625 42.570312 133.046875 L 45.792969 128.390625 C 46.007812 128.085938 46.019531 127.683594 45.824219 127.363281 C 45.628906 127.042969 45.261719 126.867188 44.894531 126.914062 L 33.097656 128.378906 L 30.332031 116.820312 C 30.242188 116.457031 29.949219 116.175781 29.582031 116.105469 C 29.210938 116.035156 28.839844 116.1875 28.628906 116.492188 L 25.402344 121.148438 C 25.25 121.367188 25.199219 121.640625 25.261719 121.902344 L 28.226562 134.292969 C 28.335938 134.761719 28.789062 135.078125 29.269531 135.015625 Z M 29.269531 135.015625 " fill-opacity="1" fill-rule="nonzero"/></g></g></g><g clip-path="url(#d5a93ddf76)"><g clip-path="url(#e3a3aa2c86)"><g clip-path="url(#8dd5104c7e)"><path fill="#38b6ff" d="M 45.109375 108.90625 L 57.78125 110.222656 C 58.050781 110.25 58.3125 110.164062 58.511719 109.984375 L 62.703125 106.175781 C 62.976562 105.925781 63.078125 105.535156 62.960938 105.179688 C 62.84375 104.824219 62.527344 104.570312 62.15625 104.53125 L 50.332031 103.304688 L 50.242188 91.417969 C 50.238281 91.042969 50.015625 90.703125 49.675781 90.554688 C 49.332031 90.402344 48.933594 90.46875 48.65625 90.71875 L 44.464844 94.523438 C 44.265625 94.703125 44.160156 94.960938 44.15625 95.230469 L 44.253906 107.96875 C 44.257812 108.453125 44.628906 108.859375 45.109375 108.90625 Z M 45.109375 108.90625 " fill-opacity="1" fill-rule="nonzero"/></g></g></g><g clip-path="url(#d26ad01f40)"><g clip-path="url(#7b1cbc2f04)"><g clip-path="url(#1e6f2e11fb)"><path fill="#38b6ff" d="M 54.1875 100.65625 L 66.859375 101.972656 C 67.128906 102 67.394531 101.914062 67.589844 101.734375 L 71.78125 97.925781 C 72.058594 97.675781 72.160156 97.285156 72.042969 96.929688 C 71.921875 96.574219 71.609375 96.320312 71.238281 96.28125 L 59.414062 95.054688 L 59.324219 83.167969 C 59.320312 82.792969 59.097656 82.453125 58.753906 82.304688 C 58.410156 82.152344 58.011719 82.21875 57.738281 82.46875 L 53.546875 86.273438 C 53.347656 86.457031 53.238281 86.710938 53.238281 86.980469 L 53.335938 99.71875 C 53.339844 100.203125 53.710938 100.609375 54.1875 100.65625 Z M 54.1875 100.65625 " fill-opacity="1" fill-rule="nonzero"/></g></g></g><g clip-path="url(#7f09db7098)"><g clip-path="url(#68273738b2)"><g clip-path="url(#3087360496)"><path fill="#38b6ff" d="M 75.378906 84.589844 L 87.1875 89.363281 C 87.441406 89.460938 87.71875 89.453125 87.957031 89.335938 L 93.039062 86.835938 C 93.371094 86.671875 93.578125 86.328125 93.566406 85.953125 C 93.550781 85.578125 93.316406 85.246094 92.96875 85.105469 L 81.949219 80.652344 L 85.152344 69.207031 C 85.253906 68.84375 85.136719 68.457031 84.847656 68.21875 C 84.558594 67.976562 84.160156 67.929688 83.824219 68.09375 L 78.742188 70.589844 C 78.503906 70.707031 78.328125 70.925781 78.25 71.179688 L 74.816406 83.449219 C 74.6875 83.914062 74.929688 84.410156 75.378906 84.589844 Z M 75.378906 84.589844 " fill-opacity="1" fill-rule="nonzero"/></g></g></g><g clip-path="url(#b3b2b7fd2e)"><g clip-path="url(#428e6e63ea)"><g clip-path="url(#20abceb17c)"><path fill="#38b6ff" d="M 86.386719 79.175781 L 98.199219 83.949219 C 98.449219 84.050781 98.726562 84.042969 98.96875 83.921875 L 104.050781 81.425781 C 104.382812 81.261719 104.589844 80.914062 104.574219 80.539062 C 104.558594 80.164062 104.328125 79.832031 103.980469 79.695312 L 92.960938 75.238281 L 96.164062 63.792969 C 96.265625 63.433594 96.144531 63.046875 95.859375 62.804688 C 95.570312 62.566406 95.167969 62.515625 94.835938 62.679688 L 89.753906 65.179688 C 89.511719 65.296875 89.335938 65.511719 89.261719 65.769531 L 85.828125 78.035156 C 85.695312 78.503906 85.941406 78.996094 86.386719 79.175781 Z M 86.386719 79.175781 " fill-opacity="1" fill-rule="nonzero"/></g></g></g><g clip-path="url(#0e8a6ef242)"><path fill="#38b6ff" d="M 118.214844 68.148438 L 126.707031 77.640625 C 126.890625 77.84375 127.144531 77.957031 127.410156 77.957031 L 133.074219 77.957031 C 133.445312 77.957031 133.78125 77.738281 133.9375 77.394531 C 134.085938 77.050781 134.023438 76.652344 133.773438 76.375 L 125.851562 67.515625 L 133.773438 58.65625 C 134.023438 58.375 134.089844 57.976562 133.9375 57.632812 C 133.78125 57.289062 133.445312 57.070312 133.074219 57.070312 L 127.410156 57.070312 C 127.144531 57.070312 126.890625 57.1875 126.707031 57.382812 L 118.214844 66.878906 C 117.894531 67.238281 117.894531 67.789062 118.214844 68.148438 Z M 118.214844 68.148438 " fill-opacity="1" fill-rule="nonzero"/></g><g clip-path="url(#a32b1668f5)"><path fill="#38b6ff" d="M 130.484375 68.148438 L 138.976562 77.640625 C 139.160156 77.84375 139.410156 77.957031 139.679688 77.957031 L 145.339844 77.957031 C 145.714844 77.957031 146.050781 77.738281 146.203125 77.394531 C 146.355469 77.050781 146.292969 76.652344 146.042969 76.375 L 138.117188 67.515625 L 146.042969 58.65625 C 146.292969 58.375 146.355469 57.976562 146.203125 57.632812 C 146.050781 57.289062 145.714844 57.070312 145.339844 57.070312 L 139.679688 57.070312 C 139.410156 57.070312 139.160156 57.1875 138.976562 57.382812 L 130.484375 66.878906 C 130.160156 67.238281 130.160156 67.789062 130.484375 68.148438 Z M 130.484375 68.148438 " fill-opacity="1" fill-rule="nonzero"/></g><g clip-path="url(#62a0bf2b64)"><g clip-path="url(#bd2bfd1792)"><g clip-path="url(#cb7d43ef2d)"><path fill="#5ce1e6" d="M 154.75 67.308594 L 162.957031 77.050781 C 163.128906 77.257812 163.378906 77.378906 163.648438 77.390625 L 169.308594 77.558594 C 169.679688 77.570312 170.023438 77.359375 170.1875 77.023438 C 170.347656 76.683594 170.296875 76.28125 170.058594 75.996094 L 162.402344 66.902344 L 170.589844 58.289062 C 170.847656 58.015625 170.925781 57.617188 170.78125 57.273438 C 170.640625 56.921875 170.308594 56.691406 169.9375 56.683594 L 164.277344 56.511719 C 164.007812 56.503906 163.753906 56.613281 163.566406 56.804688 L 154.789062 66.039062 C 154.457031 66.386719 154.441406 66.9375 154.75 67.308594 Z M 154.75 67.308594 " fill-opacity="1" fill-rule="nonzero"/></g></g></g><g clip-path="url(#a9098335ce)"><g clip-path="url(#c99633f41d)"><g clip-path="url(#6cf1ccb4e0)"><path fill="#5ce1e6" d="M 167.015625 67.675781 L 175.21875 77.421875 C 175.394531 77.628906 175.640625 77.75 175.910156 77.757812 L 181.570312 77.929688 C 181.941406 77.941406 182.285156 77.730469 182.449219 77.394531 C 182.609375 77.054688 182.558594 76.652344 182.320312 76.367188 L 174.664062 67.273438 L 182.851562 58.65625 C 183.109375 58.386719 183.1875 57.988281 183.042969 57.640625 C 182.902344 57.292969 182.570312 57.0625 182.199219 57.050781 L 176.539062 56.878906 C 176.269531 56.871094 176.015625 56.980469 175.828125 57.171875 L 167.050781 66.40625 C 166.71875 66.757812 166.703125 67.308594 167.015625 67.675781 Z M 167.015625 67.675781 " fill-opacity="1" fill-rule="nonzero"/></g></g></g><g clip-path="url(#9f5dc65d0f)"><g clip-path="url(#8b9a8943cd)"><g clip-path="url(#6cb6cdb4f8)"><path fill="#38b6ff" d="M 266.402344 67.308594 L 274.609375 77.050781 C 274.78125 77.257812 275.03125 77.378906 275.300781 77.390625 L 280.960938 77.558594 C 281.332031 77.570312 281.675781 77.359375 281.839844 77.023438 C 282 76.683594 281.949219 76.28125 281.710938 75.996094 L 274.054688 66.902344 L 282.242188 58.289062 C 282.5 58.015625 282.578125 57.617188 282.433594 57.273438 C 282.292969 56.921875 281.960938 56.691406 281.589844 56.683594 L 275.929688 56.511719 C 275.660156 56.503906 275.40625 56.613281 275.21875 56.804688 L 266.441406 66.039062 C 266.109375 66.386719 266.09375 66.9375 266.402344 67.308594 Z M 266.402344 67.308594 " fill-opacity="1" fill-rule="nonzero"/></g></g></g><g clip-path="url(#eea446302d)"><g clip-path="url(#8901251a6b)"><g clip-path="url(#7f3c657621)"><path fill="#38b6ff" d="M 278.667969 67.675781 L 286.871094 77.421875 C 287.046875 77.628906 287.292969 77.75 287.5625 77.757812 L 293.222656 77.929688 C 293.59375 77.941406 293.9375 77.730469 294.101562 77.394531 C 294.261719 77.054688 294.210938 76.652344 293.972656 76.367188 L 286.316406 67.273438 L 294.503906 58.65625 C 294.761719 58.386719 294.839844 57.988281 294.695312 57.640625 C 294.554688 57.292969 294.222656 57.0625 293.851562 57.050781 L 288.191406 56.878906 C 287.921875 56.871094 287.667969 56.980469 287.480469 57.171875 L 278.703125 66.40625 C 278.371094 66.757812 278.355469 67.308594 278.667969 67.675781 Z M 278.667969 67.675781 " fill-opacity="1" fill-rule="nonzero"/></g></g></g><g clip-path="url(#0f2d65c77e)"><g clip-path="url(#2177224875)"><g clip-path="url(#01c681bfda)"><path fill="#38b6ff" d="M 229.277344 67.308594 L 237.484375 77.050781 C 237.65625 77.257812 237.90625 77.378906 238.175781 77.390625 L 243.835938 77.558594 C 244.207031 77.570312 244.550781 77.359375 244.714844 77.023438 C 244.875 76.683594 244.824219 76.28125 244.585938 75.996094 L 236.929688 66.902344 L 245.117188 58.289062 C 245.375 58.015625 245.453125 57.617188 245.308594 57.273438 C 245.167969 56.921875 244.835938 56.691406 244.464844 56.683594 L 238.804688 56.511719 C 238.535156 56.503906 238.28125 56.613281 238.09375 56.804688 L 229.316406 66.039062 C 228.984375 66.386719 228.96875 66.9375 229.277344 67.308594 Z M 229.277344 67.308594 " fill-opacity="1" fill-rule="nonzero"/></g></g></g><g clip-path="url(#63f0c98c33)"><g clip-path="url(#6ff32eda63)"><g clip-path="url(#1cec9fd3ba)"><path fill="#38b6ff" d="M 241.542969 67.675781 L 249.746094 77.421875 C 249.921875 77.628906 250.167969 77.75 250.4375 77.757812 L 256.097656 77.929688 C 256.46875 77.941406 256.8125 77.730469 256.976562 77.394531 C 257.136719 77.054688 257.085938 76.652344 256.847656 76.367188 L 249.191406 67.273438 L 257.378906 58.65625 C 257.636719 58.386719 257.714844 57.988281 257.570312 57.640625 C 257.429688 57.292969 257.097656 57.0625 256.726562 57.050781 L 251.066406 56.878906 C 250.796875 56.871094 250.542969 56.980469 250.355469 57.171875 L 241.578125 66.40625 C 241.246094 66.757812 241.230469 67.308594 241.542969 67.675781 Z M 241.542969 67.675781 " fill-opacity="1" fill-rule="nonzero"/></g></g></g><g clip-path="url(#c287f7553f)"><g clip-path="url(#ed92f8708c)"><g clip-path="url(#a322a79a3b)"><path fill="#38b6ff" d="M 192.761719 67.308594 L 200.964844 77.050781 C 201.140625 77.257812 201.390625 77.378906 201.660156 77.390625 L 207.316406 77.558594 C 207.691406 77.570312 208.035156 77.359375 208.199219 77.023438 C 208.359375 76.683594 208.308594 76.28125 208.066406 75.996094 L 200.414062 66.902344 L 208.601562 58.289062 C 208.859375 58.015625 208.933594 57.617188 208.792969 57.273438 C 208.648438 56.921875 208.320312 56.691406 207.945312 56.683594 L 202.289062 56.511719 C 202.019531 56.503906 201.761719 56.613281 201.574219 56.804688 L 192.800781 66.039062 C 192.46875 66.386719 192.449219 66.9375 192.761719 67.308594 Z M 192.761719 67.308594 " fill-opacity="1" fill-rule="nonzero"/></g></g></g><g clip-path="url(#a0c7eefbb1)"><g clip-path="url(#4054ca8973)"><g clip-path="url(#4f8504fdbc)"><path fill="#38b6ff" d="M 205.023438 67.675781 L 213.230469 77.421875 C 213.402344 77.628906 213.652344 77.75 213.921875 77.757812 L 219.582031 77.929688 C 219.953125 77.941406 220.296875 77.730469 220.460938 77.394531 C 220.621094 77.054688 220.570312 76.652344 220.332031 76.367188 L 212.675781 67.273438 L 220.863281 58.65625 C 221.121094 58.386719 221.199219 57.988281 221.054688 57.640625 C 220.914062 57.292969 220.582031 57.0625 220.210938 57.050781 L 214.550781 56.878906 C 214.28125 56.871094 214.027344 56.980469 213.839844 57.171875 L 205.0625 66.40625 C 204.730469 66.757812 204.714844 67.308594 205.023438 67.675781 Z M 205.023438 67.675781 " fill-opacity="1" fill-rule="nonzero"/></g></g></g></svg>