<svg xmlns="http://www.w3.org/2000/svg" xmlns:xlink="http://www.w3.org/1999/xlink" width="450" zoomAndPan="magnify" viewBox="0 0 337.5 374.999991" height="500" preserveAspectRatio="xMidYMid meet" version="1.0"><defs><clipPath id="3c74c76575"><path d="M 0 52.777344 L 303.75 52.777344 L 303.75 323 L 0 323 Z M 0 52.777344 " clip-rule="nonzero"/></clipPath><clipPath id="77775e1cd3"><path d="M 7.917969 142.824219 C 3.136719 156.667969 0 172.40625 0 187.851562 C 0 203.296875 2.6875 218.15625 7.46875 231.855469 C 7.621094 232.144531 7.621094 232.4375 7.769531 232.730469 C 26.890625 284.164062 77.390625 322.046875 135.65625 322.777344 L 303.75 322.777344 L 303.75 52.777344 L 135.78125 52.777344 C 77.09375 53.503906 26.59375 90.808594 7.917969 142.824219 " clip-rule="nonzero"/></clipPath><clipPath id="1daa1ba93a"><path d="M 0 52.777344 L 303.75 52.777344 L 303.75 322.777344 L 0 322.777344 Z M 0 52.777344 " clip-rule="nonzero"/></clipPath><clipPath id="ee7916722e"><path d="M 7.917969 142.824219 C 3.136719 156.667969 0 172.40625 0 187.851562 C 0 203.296875 2.6875 218.15625 7.46875 231.855469 C 7.621094 232.144531 7.621094 232.4375 7.769531 232.730469 C 26.890625 284.164062 77.390625 322.046875 135.65625 322.777344 L 303.75 322.777344 L 303.75 52.777344 L 135.78125 52.777344 C 77.09375 53.503906 26.59375 90.808594 7.917969 142.824219 " clip-rule="nonzero"/></clipPath><clipPath id="56cf4f4554"><path d="M 34 77 L 251 77 L 251 294 L 34 294 Z M 34 77 " clip-rule="nonzero"/></clipPath><clipPath id="63ca6a9d00"><path d="M 273.242188 265.257812 L 63.03125 316.175781 L 12.117188 105.964844 L 222.324219 55.046875 Z M 273.242188 265.257812 " clip-rule="nonzero"/></clipPath><clipPath id="a23cec0c7d"><path d="M 168.277344 290.683594 C 226.246094 276.640625 261.859375 218.265625 247.816406 160.292969 C 233.777344 102.324219 175.398438 66.710938 117.429688 80.753906 C 59.457031 94.792969 23.847656 153.171875 37.886719 211.140625 C 51.929688 269.113281 110.308594 304.722656 168.277344 290.683594 " clip-rule="nonzero"/></clipPath><clipPath id="91a2b668c4"><path d="M 34 77 L 251 77 L 251 294 L 34 294 Z M 34 77 " clip-rule="nonzero"/></clipPath><clipPath id="0f50cc76bf"><path d="M 273.242188 265.257812 L 63.3125 316.105469 L 12.464844 106.175781 L 222.394531 55.328125 Z M 273.242188 265.257812 " clip-rule="nonzero"/></clipPath><clipPath id="1697a752c3"><path d="M 273.242188 265.257812 L 60.34375 316.824219 L 8.777344 103.925781 L 221.675781 52.359375 Z M 273.242188 265.257812 " clip-rule="nonzero"/></clipPath><clipPath id="fbd9c7bf6d"><path d="M 168.277344 290.683594 C 226.246094 276.640625 261.859375 218.265625 247.816406 160.292969 C 233.777344 102.324219 175.398438 66.710938 117.429688 80.753906 C 59.457031 94.792969 23.847656 153.171875 37.886719 211.140625 C 51.929688 269.113281 110.308594 304.722656 168.277344 290.683594 " clip-rule="nonzero"/></clipPath><clipPath id="fb55180408"><path d="M 144 217 L 171 217 L 171 253 L 144 253 Z M 144 217 " clip-rule="nonzero"/></clipPath><clipPath id="e877baf8a4"><path d="M 170.269531 247.710938 L 152.730469 252.429688 L 144.4375 221.601562 L 161.976562 216.882812 Z M 170.269531 247.710938 " clip-rule="nonzero"/></clipPath><clipPath id="8a84c41320"><path d="M 170.269531 247.710938 L 153.113281 252.324219 L 144.871094 221.6875 L 162.027344 217.070312 Z M 170.269531 247.710938 " clip-rule="nonzero"/></clipPath><clipPath id="7d824f774c"><path d="M 80 161 L 116 161 L 116 188 L 80 188 Z M 80 161 " clip-rule="nonzero"/></clipPath><clipPath id="c1bfdc9d90"><path d="M 115.683594 170.398438 L 110.808594 187.894531 L 80.054688 179.324219 L 84.929688 161.828125 Z M 115.683594 170.398438 " clip-rule="nonzero"/></clipPath><clipPath id="a4adef01aa"><path d="M 115.683594 170.398438 L 110.914062 187.511719 L 80.351562 178.996094 L 85.121094 161.882812 Z M 115.683594 170.398438 " clip-rule="nonzero"/></clipPath><clipPath id="2a3ef43497"><path d="M 98 153 L 180 153 L 180 235 L 98 235 Z M 98 153 " clip-rule="nonzero"/></clipPath><clipPath id="8b07bfa789"><path d="M 150.019531 123.078125 L 210.046875 183.539062 L 157.542969 235.667969 L 97.515625 175.207031 Z M 150.019531 123.078125 " clip-rule="nonzero"/></clipPath><clipPath id="1d5c538958"><path d="M 179.804688 153.078125 L 157.589844 234.699219 L 98.023438 174.703125 L 179.804688 153.078125 " clip-rule="nonzero"/></clipPath><clipPath id="a4c041db83"><path d="M 156 141 L 192 141 L 192 177 L 156 177 Z M 156 141 " clip-rule="nonzero"/></clipPath><clipPath id="cf97d4677b"><path d="M 179.144531 141.207031 L 191.941406 154.097656 L 169.285156 176.589844 L 156.488281 163.699219 Z M 179.144531 141.207031 " clip-rule="nonzero"/></clipPath><clipPath id="741bb320e5"><path d="M 179.144531 141.207031 L 191.660156 153.8125 L 169.144531 176.167969 L 156.628906 163.558594 Z M 179.144531 141.207031 " clip-rule="nonzero"/></clipPath><clipPath id="45f70c00d3"><path d="M 172 105 L 228 105 L 228 161 L 172 161 Z M 172 105 " clip-rule="nonzero"/></clipPath><clipPath id="ac52c5f807"><path d="M 160.675781 131.984375 L 201.039062 93.714844 L 239.308594 134.078125 L 198.945312 172.347656 Z M 160.675781 131.984375 " clip-rule="nonzero"/></clipPath><clipPath id="087f61d04f"><path d="M 180.855469 112.847656 C 169.710938 123.417969 169.242188 141.019531 179.808594 152.164062 C 190.378906 163.3125 207.980469 163.78125 219.128906 153.210938 C 230.273438 142.644531 230.742188 125.042969 220.175781 113.894531 C 209.605469 102.75 192.003906 102.28125 180.855469 112.847656 " clip-rule="nonzero"/></clipPath><clipPath id="de3891d920"><path d="M 172 105 L 228 105 L 228 161 L 172 161 Z M 172 105 " clip-rule="nonzero"/></clipPath><clipPath id="3c00540b58"><path d="M 160.675781 131.984375 L 200.949219 93.796875 L 239.136719 134.070312 L 198.859375 172.257812 Z M 160.675781 131.984375 " clip-rule="nonzero"/></clipPath><clipPath id="7339a78597"><path d="M 160.675781 131.984375 L 200.949219 93.796875 L 239.136719 134.070312 L 198.859375 172.257812 Z M 160.675781 131.984375 " clip-rule="nonzero"/></clipPath><clipPath id="02d4fcd312"><path d="M 180.8125 112.890625 C 169.691406 123.433594 169.222656 141 179.769531 152.121094 C 190.3125 163.242188 207.878906 163.710938 219 153.164062 C 230.121094 142.621094 230.589844 125.054688 220.042969 113.933594 C 209.5 102.8125 191.933594 102.34375 180.8125 112.890625 " clip-rule="nonzero"/></clipPath><clipPath id="593ca0f27d"><path d="M 41 139 L 97 139 L 97 195 L 41 195 Z M 41 139 " clip-rule="nonzero"/></clipPath><clipPath id="1a53eaecc0"><path d="M 49.5625 132.683594 L 103.230469 147.292969 L 88.621094 200.964844 L 34.953125 186.355469 Z M 49.5625 132.683594 " clip-rule="nonzero"/></clipPath><clipPath id="74547d302d"><path d="M 76.394531 139.988281 C 61.574219 135.957031 46.292969 144.699219 42.257812 159.519531 C 38.222656 174.339844 46.964844 189.625 61.785156 193.660156 C 76.605469 197.695312 91.890625 188.949219 95.925781 174.128906 C 99.960938 159.308594 91.214844 144.023438 76.394531 139.988281 " clip-rule="nonzero"/></clipPath><clipPath id="46fda1c530"><path d="M 41 138 L 97 138 L 97 195 L 41 195 Z M 41 138 " clip-rule="nonzero"/></clipPath><clipPath id="a099bfe130"><path d="M 49.5625 132.683594 L 103.113281 147.261719 L 88.535156 200.8125 L 34.984375 186.238281 Z M 49.5625 132.683594 " clip-rule="nonzero"/></clipPath><clipPath id="4055039710"><path d="M 49.5625 132.683594 L 103.113281 147.261719 L 88.535156 200.8125 L 34.984375 186.238281 Z M 49.5625 132.683594 " clip-rule="nonzero"/></clipPath><clipPath id="50a6da47d7"><path d="M 76.335938 139.972656 C 61.550781 135.949219 46.296875 144.671875 42.273438 159.460938 C 38.246094 174.25 46.972656 189.5 61.761719 193.523438 C 76.546875 197.550781 91.800781 188.824219 95.824219 174.039062 C 99.851562 159.25 91.125 144 76.335938 139.972656 " clip-rule="nonzero"/></clipPath><clipPath id="0127d1bb7b"><path d="M 136 231 L 192 231 L 192 288 L 136 288 Z M 136 231 " clip-rule="nonzero"/></clipPath><clipPath id="9a0626620e"><path d="M 124.695312 258.675781 L 165.058594 220.40625 L 203.328125 260.769531 L 162.964844 299.039062 Z M 124.695312 258.675781 " clip-rule="nonzero"/></clipPath><clipPath id="f6eb8c653e"><path d="M 144.878906 239.542969 C 133.730469 250.109375 133.261719 267.710938 143.832031 278.859375 C 154.398438 290.003906 172 290.472656 183.148438 279.90625 C 194.292969 269.335938 194.761719 251.734375 184.195312 240.589844 C 173.625 229.441406 156.023438 228.972656 144.878906 239.542969 " clip-rule="nonzero"/></clipPath><clipPath id="de5df15223"><path d="M 136 231 L 192 231 L 192 288 L 136 288 Z M 136 231 " clip-rule="nonzero"/></clipPath><clipPath id="c353c4a266"><path d="M 124.695312 258.675781 L 164.972656 220.492188 L 203.15625 260.765625 L 162.882812 298.953125 Z M 124.695312 258.675781 " clip-rule="nonzero"/></clipPath><clipPath id="6dd1d7bf08"><path d="M 124.695312 258.675781 L 164.972656 220.492188 L 203.15625 260.765625 L 162.882812 298.953125 Z M 124.695312 258.675781 " clip-rule="nonzero"/></clipPath><clipPath id="980d62d64e"><path d="M 144.832031 239.582031 C 133.710938 250.128906 133.246094 267.691406 143.789062 278.8125 C 154.332031 289.933594 171.898438 290.402344 183.019531 279.859375 C 194.140625 269.3125 194.609375 251.75 184.0625 240.628906 C 173.519531 229.507812 155.957031 229.039062 144.832031 239.582031 " clip-rule="nonzero"/></clipPath><clipPath id="8a70e7e116"><path d="M 193 126 L 207 126 L 207 141 L 193 141 Z M 193 126 " clip-rule="nonzero"/></clipPath><clipPath id="ae8ad793fa"><path d="M 200.023438 123.160156 L 209.859375 133.066406 L 199.953125 142.898438 L 190.117188 132.996094 Z M 200.023438 123.160156 " clip-rule="nonzero"/></clipPath><clipPath id="317ba80958"><path d="M 204.941406 128.113281 C 202.226562 125.375 197.804688 125.359375 195.070312 128.078125 C 192.335938 130.792969 192.320312 135.210938 195.035156 137.949219 C 197.75 140.683594 202.167969 140.699219 204.90625 137.984375 C 207.640625 135.265625 207.65625 130.847656 204.941406 128.113281 " clip-rule="nonzero"/></clipPath><clipPath id="003abc2fae"><path d="M 62 159 L 77 159 L 77 174 L 62 174 Z M 62 159 " clip-rule="nonzero"/></clipPath><clipPath id="56c88cb733"><path d="M 77.65625 161.917969 L 73.988281 175.386719 L 60.519531 171.722656 L 64.1875 158.253906 Z M 77.65625 161.917969 " clip-rule="nonzero"/></clipPath><clipPath id="f1dac75c06"><path d="M 75.820312 168.652344 C 76.835938 164.933594 74.640625 161.097656 70.921875 160.085938 C 67.203125 159.074219 63.367188 161.269531 62.351562 164.988281 C 61.339844 168.707031 63.535156 172.542969 67.253906 173.554688 C 70.972656 174.566406 74.808594 172.375 75.820312 168.652344 " clip-rule="nonzero"/></clipPath><clipPath id="097e9cc556"><path d="M 158 252 L 172 252 L 172 267 L 158 267 Z M 158 252 " clip-rule="nonzero"/></clipPath><clipPath id="d5a4332052"><path d="M 165.042969 249.566406 L 174.878906 259.472656 L 164.972656 269.308594 L 155.136719 259.402344 Z M 165.042969 249.566406 " clip-rule="nonzero"/></clipPath><clipPath id="83e3c824a4"><path d="M 169.960938 254.519531 C 167.246094 251.785156 162.824219 251.769531 160.089844 254.484375 C 157.355469 257.199219 157.339844 261.621094 160.054688 264.355469 C 162.769531 267.089844 167.191406 267.105469 169.925781 264.390625 C 172.660156 261.675781 172.675781 257.253906 169.960938 254.519531 " clip-rule="nonzero"/></clipPath><clipPath id="cfa4442fa6"><path d="M 196 181 L 216 181 L 216 227 L 196 227 Z M 196 181 " clip-rule="nonzero"/></clipPath><clipPath id="1ca05ac825"><path d="M 196.058594 226.953125 L 204.382812 180.441406 L 217.671875 182.820312 L 209.347656 229.332031 Z M 196.058594 226.953125 " clip-rule="nonzero"/></clipPath><clipPath id="8eebd7c354"><path d="M 196.058594 226.953125 L 204.382812 180.441406 L 217.671875 182.820312 L 209.347656 229.332031 Z M 196.058594 226.953125 " clip-rule="nonzero"/></clipPath><clipPath id="329ec9e4e4"><path d="M 196.058594 226.953125 L 204.382812 180.441406 L 217.671875 182.820312 L 209.347656 229.332031 Z M 196.058594 226.953125 " clip-rule="nonzero"/></clipPath><clipPath id="f015e0d0b1"><path d="M 203 220 L 204 220 L 204 221 L 203 221 Z M 203 220 " clip-rule="nonzero"/></clipPath><clipPath id="ce060edb37"><path d="M 196.058594 226.953125 L 204.382812 180.441406 L 217.671875 182.820312 L 209.347656 229.332031 Z M 196.058594 226.953125 " clip-rule="nonzero"/></clipPath><clipPath id="7f3079c7e0"><path d="M 196.058594 226.953125 L 204.382812 180.441406 L 217.671875 182.820312 L 209.347656 229.332031 Z M 196.058594 226.953125 " clip-rule="nonzero"/></clipPath><clipPath id="f0a7cdd969"><path d="M 196.058594 226.953125 L 204.382812 180.441406 L 217.671875 182.820312 L 209.347656 229.332031 Z M 196.058594 226.953125 " clip-rule="nonzero"/></clipPath><clipPath id="1734679c42"><path d="M 84 214 L 116 214 L 116 252 L 84 252 Z M 84 214 " clip-rule="nonzero"/></clipPath><clipPath id="3998ec0d90"><path d="M 85.726562 213.515625 L 118.96875 247.09375 L 109.375 256.59375 L 76.132812 223.015625 Z M 85.726562 213.515625 " clip-rule="nonzero"/></clipPath><clipPath id="186676b47a"><path d="M 85.726562 213.515625 L 118.96875 247.09375 L 109.375 256.59375 L 76.132812 223.015625 Z M 85.726562 213.515625 " clip-rule="nonzero"/></clipPath><clipPath id="161ae3b202"><path d="M 85.726562 213.515625 L 118.96875 247.09375 L 109.375 256.59375 L 76.132812 223.015625 Z M 85.726562 213.515625 " clip-rule="nonzero"/></clipPath><clipPath id="f79dae12b0"><path d="M 86 222 L 87 222 L 87 224 L 86 224 Z M 86 222 " clip-rule="nonzero"/></clipPath><clipPath id="fd977f21bd"><path d="M 85.726562 213.515625 L 118.96875 247.09375 L 109.375 256.59375 L 76.132812 223.015625 Z M 85.726562 213.515625 " clip-rule="nonzero"/></clipPath><clipPath id="61e3da7a01"><path d="M 85.726562 213.515625 L 118.96875 247.09375 L 109.375 256.59375 L 76.132812 223.015625 Z M 85.726562 213.515625 " clip-rule="nonzero"/></clipPath><clipPath id="5f55ed94e7"><path d="M 85.726562 213.515625 L 118.96875 247.09375 L 109.375 256.59375 L 76.132812 223.015625 Z M 85.726562 213.515625 " clip-rule="nonzero"/></clipPath><clipPath id="8bd5d51c82"><path d="M 103 116 L 150 116 L 150 131 L 103 131 Z M 103 116 " clip-rule="nonzero"/></clipPath><clipPath id="f7b92744e2"><path d="M 150.222656 125.410156 L 103.683594 133.585938 L 101.351562 120.289062 L 147.886719 112.113281 Z M 150.222656 125.410156 " clip-rule="nonzero"/></clipPath><clipPath id="ecbab9da39"><path d="M 150.222656 125.410156 L 103.683594 133.585938 L 101.351562 120.289062 L 147.886719 112.113281 Z M 150.222656 125.410156 " clip-rule="nonzero"/></clipPath><clipPath id="19cc2b3040"><path d="M 150.222656 125.410156 L 103.683594 133.585938 L 101.351562 120.289062 L 147.886719 112.113281 Z M 150.222656 125.410156 " clip-rule="nonzero"/></clipPath><clipPath id="c3a0ee7613"><path d="M 141 120 L 143 120 L 143 121 L 141 121 Z M 141 120 " clip-rule="nonzero"/></clipPath><clipPath id="37d29f4ffc"><path d="M 150.222656 125.410156 L 103.683594 133.585938 L 101.351562 120.289062 L 147.886719 112.113281 Z M 150.222656 125.410156 " clip-rule="nonzero"/></clipPath><clipPath id="ac993094c1"><path d="M 150.222656 125.410156 L 103.683594 133.585938 L 101.351562 120.289062 L 147.886719 112.113281 Z M 150.222656 125.410156 " clip-rule="nonzero"/></clipPath><clipPath id="544d23715e"><path d="M 150.222656 125.410156 L 103.683594 133.585938 L 101.351562 120.289062 L 147.886719 112.113281 Z M 150.222656 125.410156 " clip-rule="nonzero"/></clipPath><clipPath id="2aa9495b4d"><path d="M 278 297.128906 L 295 297.128906 L 295 318.128906 L 278 318.128906 Z M 278 297.128906 " clip-rule="nonzero"/></clipPath><clipPath id="f4af5ac36a"><path d="M 266.625 297.128906 L 283 297.128906 L 283 318.128906 L 266.625 318.128906 Z M 266.625 297.128906 " clip-rule="nonzero"/></clipPath><clipPath id="8c8241ea06"><path d="M 241 297.128906 L 258 297.128906 L 258 318.128906 L 241 318.128906 Z M 241 297.128906 " clip-rule="nonzero"/></clipPath><clipPath id="75b5e13998"><path d="M 229.5 297.128906 L 246 297.128906 L 246 318.128906 L 229.5 318.128906 Z M 229.5 297.128906 " clip-rule="nonzero"/></clipPath><clipPath id="ac6dbb4d23"><path d="M 204 297.128906 L 220.875 297.128906 L 220.875 318.128906 L 204 318.128906 Z M 204 297.128906 " clip-rule="nonzero"/></clipPath><clipPath id="d4a331a02b"><path d="M 192.375 297.128906 L 209 297.128906 L 209 318.128906 L 192.375 318.128906 Z M 192.375 297.128906 " clip-rule="nonzero"/></clipPath><clipPath id="44f0089f7c"><path d="M 167 297.128906 L 183.75 297.128906 L 183.75 318.128906 L 167 318.128906 Z M 167 297.128906 " clip-rule="nonzero"/></clipPath><clipPath id="c1c104ffdd"><path d="M 155.25 297.128906 L 172 297.128906 L 172 318.128906 L 155.25 318.128906 Z M 155.25 297.128906 " clip-rule="nonzero"/></clipPath><clipPath id="2916b103ee"><path d="M 130 297 L 147 297 L 147 319 L 130 319 Z M 130 297 " clip-rule="nonzero"/></clipPath><clipPath id="5fa8552d93"><path d="M 117.945312 297.378906 L 146.441406 296.875 L 146.8125 317.871094 L 118.316406 318.375 Z M 117.945312 297.378906 " clip-rule="nonzero"/></clipPath><clipPath id="f929d3c334"><path d="M 117.945312 297.378906 L 146.441406 296.875 L 146.8125 317.871094 L 118.316406 318.375 Z M 117.945312 297.378906 " clip-rule="nonzero"/></clipPath><clipPath id="85c2f204ff"><path d="M 117 297 L 135 297 L 135 319 L 117 319 Z M 117 297 " clip-rule="nonzero"/></clipPath><clipPath id="8cd3c3a6f5"><path d="M 117.945312 297.378906 L 146.441406 296.875 L 146.8125 317.871094 L 118.316406 318.375 Z M 117.945312 297.378906 " clip-rule="nonzero"/></clipPath><clipPath id="ae089505d2"><path d="M 117.945312 297.378906 L 146.441406 296.875 L 146.8125 317.871094 L 118.316406 318.375 Z M 117.945312 297.378906 " clip-rule="nonzero"/></clipPath><clipPath id="f98e8b90f9"><path d="M 80 284 L 100 284 L 100 306 L 80 306 Z M 80 284 " clip-rule="nonzero"/></clipPath><clipPath id="db380e1cd2"><path d="M 81.105469 277.734375 L 105.09375 293.121094 L 93.757812 310.796875 L 69.765625 295.410156 Z M 81.105469 277.734375 " clip-rule="nonzero"/></clipPath><clipPath id="e63dee4776"><path d="M 81.105469 277.734375 L 105.09375 293.121094 L 93.757812 310.796875 L 69.765625 295.410156 Z M 81.105469 277.734375 " clip-rule="nonzero"/></clipPath><clipPath id="f20410bb87"><path d="M 70 278 L 90 278 L 90 300 L 70 300 Z M 70 278 " clip-rule="nonzero"/></clipPath><clipPath id="07c0030662"><path d="M 81.105469 277.734375 L 105.09375 293.121094 L 93.757812 310.796875 L 69.765625 295.410156 Z M 81.105469 277.734375 " clip-rule="nonzero"/></clipPath><clipPath id="a0b48f1d37"><path d="M 81.105469 277.734375 L 105.09375 293.121094 L 93.757812 310.796875 L 69.765625 295.410156 Z M 81.105469 277.734375 " clip-rule="nonzero"/></clipPath><clipPath id="f8a37355ee"><path d="M 42 264 L 62 264 L 62 285 L 42 285 Z M 42 264 " clip-rule="nonzero"/></clipPath><clipPath id="b683205755"><path d="M 48.058594 255.742188 L 68.585938 275.511719 L 54.019531 290.636719 L 33.492188 270.867188 Z M 48.058594 255.742188 " clip-rule="nonzero"/></clipPath><clipPath id="0e8f4e841b"><path d="M 48.058594 255.742188 L 68.585938 275.511719 L 54.019531 290.636719 L 33.492188 270.867188 Z M 48.058594 255.742188 " clip-rule="nonzero"/></clipPath><clipPath id="403a9e2e6c"><path d="M 33 256 L 54 256 L 54 276 L 33 276 Z M 33 256 " clip-rule="nonzero"/></clipPath><clipPath id="dc059c6951"><path d="M 48.058594 255.742188 L 68.585938 275.511719 L 54.019531 290.636719 L 33.492188 270.867188 Z M 48.058594 255.742188 " clip-rule="nonzero"/></clipPath><clipPath id="28a52ef186"><path d="M 48.058594 255.742188 L 68.585938 275.511719 L 54.019531 290.636719 L 33.492188 270.867188 Z M 48.058594 255.742188 " clip-rule="nonzero"/></clipPath><clipPath id="f74ef1d4f7"><path d="M 19 232 L 41 232 L 41 251 L 19 251 Z M 19 232 " clip-rule="nonzero"/></clipPath><clipPath id="a70b478197"><path d="M 31.21875 221.023438 L 45.539062 245.664062 L 27.386719 256.21875 L 13.0625 231.578125 Z M 31.21875 221.023438 " clip-rule="nonzero"/></clipPath><clipPath id="cdf1bedb86"><path d="M 31.21875 221.023438 L 45.539062 245.664062 L 27.386719 256.21875 L 13.0625 231.578125 Z M 31.21875 221.023438 " clip-rule="nonzero"/></clipPath><clipPath id="ba44aaab15"><path d="M 13 221 L 35 221 L 35 241 L 13 241 Z M 13 221 " clip-rule="nonzero"/></clipPath><clipPath id="3d9df24f13"><path d="M 31.21875 221.023438 L 45.539062 245.664062 L 27.386719 256.21875 L 13.0625 231.578125 Z M 31.21875 221.023438 " clip-rule="nonzero"/></clipPath><clipPath id="39eab30c3f"><path d="M 31.21875 221.023438 L 45.539062 245.664062 L 27.386719 256.21875 L 13.0625 231.578125 Z M 31.21875 221.023438 " clip-rule="nonzero"/></clipPath><clipPath id="33ed23bc9c"><path d="M 8.878906 184 L 29.878906 184 L 29.878906 200.4375 L 8.878906 200.4375 Z M 8.878906 184 " clip-rule="nonzero"/></clipPath><clipPath id="4637d5481e"><path d="M 8.878906 171.9375 L 29.878906 171.9375 L 29.878906 188 L 8.878906 188 Z M 8.878906 171.9375 " clip-rule="nonzero"/></clipPath><clipPath id="2ea7f9f10a"><path d="M 18 126 L 39 126 L 39 146 L 18 146 Z M 18 126 " clip-rule="nonzero"/></clipPath><clipPath id="3918e97b17"><path d="M 46.378906 127.648438 L 30.144531 151.074219 L 12.882812 139.109375 L 29.117188 115.6875 Z M 46.378906 127.648438 " clip-rule="nonzero"/></clipPath><clipPath id="330b310d75"><path d="M 46.378906 127.648438 L 30.144531 151.074219 L 12.882812 139.109375 L 29.117188 115.6875 Z M 46.378906 127.648438 " clip-rule="nonzero"/></clipPath><clipPath id="91c118fde3"><path d="M 25 116 L 46 116 L 46 136 L 25 136 Z M 25 116 " clip-rule="nonzero"/></clipPath><clipPath id="0292f640a4"><path d="M 46.378906 127.648438 L 30.144531 151.074219 L 12.882812 139.109375 L 29.117188 115.6875 Z M 46.378906 127.648438 " clip-rule="nonzero"/></clipPath><clipPath id="f459f94589"><path d="M 46.378906 127.648438 L 30.144531 151.074219 L 12.882812 139.109375 L 29.117188 115.6875 Z M 46.378906 127.648438 " clip-rule="nonzero"/></clipPath><clipPath id="b31f485446"><path d="M 44 90 L 64 90 L 64 111 L 44 111 Z M 44 90 " clip-rule="nonzero"/></clipPath><clipPath id="ba0adb7c7a"><path d="M 72.519531 97.335938 L 51.425781 116.5 L 37.304688 100.957031 L 58.398438 81.792969 Z M 72.519531 97.335938 " clip-rule="nonzero"/></clipPath><clipPath id="92dcc18278"><path d="M 72.519531 97.335938 L 51.425781 116.5 L 37.304688 100.957031 L 58.398438 81.792969 Z M 72.519531 97.335938 " clip-rule="nonzero"/></clipPath><clipPath id="5d8881e845"><path d="M 53 82 L 73 82 L 73 102 L 53 102 Z M 53 82 " clip-rule="nonzero"/></clipPath><clipPath id="18ce8c2e33"><path d="M 72.519531 97.335938 L 51.425781 116.5 L 37.304688 100.957031 L 58.398438 81.792969 Z M 72.519531 97.335938 " clip-rule="nonzero"/></clipPath><clipPath id="4b7d1a9a65"><path d="M 72.519531 97.335938 L 51.425781 116.5 L 37.304688 100.957031 L 58.398438 81.792969 Z M 72.519531 97.335938 " clip-rule="nonzero"/></clipPath><clipPath id="1eb6529aa6"><path d="M 74 67 L 94 67 L 94 90 L 74 90 Z M 74 67 " clip-rule="nonzero"/></clipPath><clipPath id="8919bf8e4f"><path d="M 104.921875 81.058594 L 79.34375 93.632812 L 70.078125 74.785156 L 95.65625 62.214844 Z M 104.921875 81.058594 " clip-rule="nonzero"/></clipPath><clipPath id="d13284c6a0"><path d="M 104.921875 81.058594 L 79.34375 93.632812 L 70.078125 74.785156 L 95.65625 62.214844 Z M 104.921875 81.058594 " clip-rule="nonzero"/></clipPath><clipPath id="d7aaff0861"><path d="M 85 62 L 105 62 L 105 85 L 85 85 Z M 85 62 " clip-rule="nonzero"/></clipPath><clipPath id="6842e5c93f"><path d="M 104.921875 81.058594 L 79.34375 93.632812 L 70.078125 74.785156 L 95.65625 62.214844 Z M 104.921875 81.058594 " clip-rule="nonzero"/></clipPath><clipPath id="5f0cf79511"><path d="M 104.921875 81.058594 L 79.34375 93.632812 L 70.078125 74.785156 L 95.65625 62.214844 Z M 104.921875 81.058594 " clip-rule="nonzero"/></clipPath><clipPath id="a3a4bb5973"><path d="M 117.785156 57.015625 L 135 57.015625 L 135 78 L 117.785156 78 Z M 117.785156 57.015625 " clip-rule="nonzero"/></clipPath><clipPath id="cd95e12ea2"><path d="M 130 57.015625 L 146.285156 57.015625 L 146.285156 78 L 130 78 Z M 130 57.015625 " clip-rule="nonzero"/></clipPath><clipPath id="1e0c20a2f0"><path d="M 154 56 L 171 56 L 171 78 L 154 78 Z M 154 56 " clip-rule="nonzero"/></clipPath><clipPath id="c95cd23928"><path d="M 182.511719 78.011719 L 154.023438 77.15625 L 154.65625 56.164062 L 183.144531 57.023438 Z M 182.511719 78.011719 " clip-rule="nonzero"/></clipPath><clipPath id="ae7df26b16"><path d="M 182.511719 78.011719 L 154.023438 77.15625 L 154.65625 56.164062 L 183.144531 57.023438 Z M 182.511719 78.011719 " clip-rule="nonzero"/></clipPath><clipPath id="372c527b17"><path d="M 166 56 L 184 56 L 184 78 L 166 78 Z M 166 56 " clip-rule="nonzero"/></clipPath><clipPath id="4c15d50ab5"><path d="M 182.511719 78.011719 L 154.023438 77.15625 L 154.65625 56.164062 L 183.144531 57.023438 Z M 182.511719 78.011719 " clip-rule="nonzero"/></clipPath><clipPath id="9a69a9eb00"><path d="M 182.511719 78.011719 L 154.023438 77.15625 L 154.65625 56.164062 L 183.144531 57.023438 Z M 182.511719 78.011719 " clip-rule="nonzero"/></clipPath><clipPath id="ac787f2bd0"><path d="M 266 56 L 283 56 L 283 78 L 266 78 Z M 266 56 " clip-rule="nonzero"/></clipPath><clipPath id="198350ef72"><path d="M 294.164062 78.011719 L 265.675781 77.15625 L 266.308594 56.164062 L 294.796875 57.023438 Z M 294.164062 78.011719 " clip-rule="nonzero"/></clipPath><clipPath id="5c6ccd230a"><path d="M 294.164062 78.011719 L 265.675781 77.15625 L 266.308594 56.164062 L 294.796875 57.023438 Z M 294.164062 78.011719 " clip-rule="nonzero"/></clipPath><clipPath id="30102cd580"><path d="M 278 56 L 295 56 L 295 78 L 278 78 Z M 278 56 " clip-rule="nonzero"/></clipPath><clipPath id="707b44fab1"><path d="M 294.164062 78.011719 L 265.675781 77.15625 L 266.308594 56.164062 L 294.796875 57.023438 Z M 294.164062 78.011719 " clip-rule="nonzero"/></clipPath><clipPath id="1116d64e8e"><path d="M 294.164062 78.011719 L 265.675781 77.15625 L 266.308594 56.164062 L 294.796875 57.023438 Z M 294.164062 78.011719 " clip-rule="nonzero"/></clipPath><clipPath id="d51c0eee56"><path d="M 229 56 L 246 56 L 246 78 L 229 78 Z M 229 56 " clip-rule="nonzero"/></clipPath><clipPath id="fe3d582563"><path d="M 257.039062 78.011719 L 228.550781 77.15625 L 229.183594 56.164062 L 257.671875 57.023438 Z M 257.039062 78.011719 " clip-rule="nonzero"/></clipPath><clipPath id="ddfe3d49f3"><path d="M 257.039062 78.011719 L 228.550781 77.15625 L 229.183594 56.164062 L 257.671875 57.023438 Z M 257.039062 78.011719 " clip-rule="nonzero"/></clipPath><clipPath id="4c0283085e"><path d="M 241 56 L 258 56 L 258 78 L 241 78 Z M 241 56 " clip-rule="nonzero"/></clipPath><clipPath id="77839904a4"><path d="M 257.039062 78.011719 L 228.550781 77.15625 L 229.183594 56.164062 L 257.671875 57.023438 Z M 257.039062 78.011719 " clip-rule="nonzero"/></clipPath><clipPath id="46750d2469"><path d="M 257.039062 78.011719 L 228.550781 77.15625 L 229.183594 56.164062 L 257.671875 57.023438 Z M 257.039062 78.011719 " clip-rule="nonzero"/></clipPath><clipPath id="24ce05f59d"><path d="M 192 56 L 209 56 L 209 78 L 192 78 Z M 192 56 " clip-rule="nonzero"/></clipPath><clipPath id="784f31d718"><path d="M 220.523438 78.011719 L 192.035156 77.15625 L 192.667969 56.164062 L 221.15625 57.023438 Z M 220.523438 78.011719 " clip-rule="nonzero"/></clipPath><clipPath id="45c418a8ae"><path d="M 220.523438 78.011719 L 192.035156 77.15625 L 192.667969 56.164062 L 221.15625 57.023438 Z M 220.523438 78.011719 " clip-rule="nonzero"/></clipPath><clipPath id="ba4e2c8f44"><path d="M 204 56 L 222 56 L 222 78 L 204 78 Z M 204 56 " clip-rule="nonzero"/></clipPath><clipPath id="9f6a20abf9"><path d="M 220.523438 78.011719 L 192.035156 77.15625 L 192.667969 56.164062 L 221.15625 57.023438 Z M 220.523438 78.011719 " clip-rule="nonzero"/></clipPath><clipPath id="0ec832bef9"><path d="M 220.523438 78.011719 L 192.035156 77.15625 L 192.667969 56.164062 L 221.15625 57.023438 Z M 220.523438 78.011719 " clip-rule="nonzero"/></clipPath></defs><g clip-path="url(#3c74c76575)"><g clip-path="url(#77775e1cd3)"><path fill="#737373" d="M 303.75 52.777344 L 303.75 323.039062 L -0.132812 323.039062 L -0.132812 52.777344 Z M 303.75 52.777344 " fill-opacity="1" fill-rule="nonzero"/></g></g><g clip-path="url(#1daa1ba93a)"><g clip-path="url(#ee7916722e)"><path stroke-linecap="butt" transform="matrix(0.000000000000000046, 0.75, -0.75, 0.000000000000000046, 303.749959, 52.777278)" fill="none" stroke-linejoin="miter" d="M 120.062594 394.442673 C 138.520928 400.817674 159.505305 404.999965 180.099056 404.999965 C 200.692807 404.999965 220.505308 401.416632 238.770934 395.041632 C 239.15635 394.838507 239.546975 394.838507 239.9376 394.64059 C 308.515729 369.145797 359.026148 301.81246 360.000106 224.124956 L 360.000106 -0.0000552182 L 0.000088039 -0.0000552182 L 0.000088039 223.95829 C 0.968838 302.208294 50.708424 369.54163 120.062594 394.442673 " stroke="#000000" stroke-width="4" stroke-opacity="1" stroke-miterlimit="4"/></g></g><g clip-path="url(#56cf4f4554)"><g clip-path="url(#63ca6a9d00)"><g clip-path="url(#a23cec0c7d)"><path fill="#a6a6a6" d="M 273.242188 265.257812 L 63.570312 316.042969 L 12.785156 106.371094 L 222.457031 55.585938 Z M 273.242188 265.257812 " fill-opacity="1" fill-rule="nonzero"/></g></g></g><g clip-path="url(#91a2b668c4)"><g clip-path="url(#0f50cc76bf)"><g clip-path="url(#1697a752c3)"><g clip-path="url(#fbd9c7bf6d)"><path stroke-linecap="butt" transform="matrix(-0.728922, 0.176556, -0.176556, -0.728922, 273.241914, 265.258575)" fill="none" stroke-linejoin="miter" d="M 143.999975 -0.00124267 C 64.472683 0.00138981 0.000144737 64.469117 0.00155113 144.001472 C -0.000878349 223.527537 64.471911 288.001301 143.999203 287.998669 C 223.530331 288.002325 287.999033 223.528309 288.001463 144.002243 C 288.000056 64.469889 223.531103 0.00241289 143.999975 -0.00124267 " stroke="#000000" stroke-width="8" stroke-opacity="1" stroke-miterlimit="4"/></g></g></g></g><g clip-path="url(#fb55180408)"><g clip-path="url(#e877baf8a4)"><g clip-path="url(#8a84c41320)"><path fill="#ffde59" d="M 170.269531 247.710938 L 153.261719 252.285156 L 144.96875 221.457031 L 161.976562 216.882812 Z M 170.269531 247.710938 " fill-opacity="1" fill-rule="nonzero"/></g></g></g><g clip-path="url(#7d824f774c)"><g clip-path="url(#c1bfdc9d90)"><g clip-path="url(#a4adef01aa)"><path fill="#ffde59" d="M 115.683594 170.398438 L 110.957031 187.367188 L 80.203125 178.796875 L 84.929688 161.828125 Z M 115.683594 170.398438 " fill-opacity="1" fill-rule="nonzero"/></g></g></g><g clip-path="url(#2a3ef43497)"><g clip-path="url(#8b07bfa789)"><g clip-path="url(#1d5c538958)"><path fill="#ffde59" d="M 150.019531 123.078125 L 209.519531 183.007812 L 157.546875 234.609375 L 98.046875 174.679688 Z M 150.019531 123.078125 " fill-opacity="1" fill-rule="nonzero"/></g></g></g><g clip-path="url(#a4c041db83)"><g clip-path="url(#cf97d4677b)"><g clip-path="url(#741bb320e5)"><path fill="#ffde59" d="M 179.144531 141.207031 L 191.554688 153.707031 L 168.898438 176.199219 L 156.488281 163.699219 Z M 179.144531 141.207031 " fill-opacity="1" fill-rule="nonzero"/></g></g></g><g clip-path="url(#45f70c00d3)"><g clip-path="url(#ac52c5f807)"><g clip-path="url(#087f61d04f)"><path fill="#ffde59" d="M 160.675781 131.984375 L 201.039062 93.714844 L 239.308594 134.078125 L 198.945312 172.347656 Z M 160.675781 131.984375 " fill-opacity="1" fill-rule="nonzero"/></g></g></g><g clip-path="url(#de3891d920)"><g clip-path="url(#3c00540b58)"><g clip-path="url(#7339a78597)"><g clip-path="url(#02d4fcd312)"><path fill="#000000" d="M 182.871094 115.0625 C 178.84375 118.882812 176.378906 123.527344 175.480469 128.992188 L 169.570312 128.019531 C 170.6875 121.230469 173.746094 115.464844 178.753906 110.71875 Z M 175.1875 131.648438 C 174.878906 137.195312 176.269531 142.261719 179.355469 146.839844 L 174.390625 150.1875 C 170.554688 144.496094 168.828125 138.203125 169.210938 131.316406 Z M 180.964844 148.96875 C 181.277344 149.339844 181.605469 149.707031 181.941406 150.0625 C 185.398438 153.707031 189.570312 156.082031 194.449219 157.179688 L 193.136719 163.019531 C 187.070312 161.65625 181.890625 158.710938 177.597656 154.179688 C 177.179688 153.742188 176.777344 153.289062 176.386719 152.828125 Z M 197.089844 157.625 C 202.613281 158.253906 207.753906 157.160156 212.507812 154.34375 L 215.558594 159.496094 C 209.652344 162.996094 203.269531 164.355469 196.414062 163.574219 Z M 214.714844 152.871094 C 215.488281 152.289062 216.230469 151.664062 216.9375 150.992188 C 220.210938 147.890625 222.464844 144.183594 223.699219 139.875 L 229.457031 141.523438 C 227.921875 146.878906 225.121094 151.484375 221.058594 155.335938 C 220.183594 156.167969 219.261719 156.945312 218.304688 157.664062 Z M 224.296875 137.273438 C 225.246094 131.796875 224.453125 126.605469 221.921875 121.695312 L 227.246094 118.953125 C 230.390625 125.050781 231.371094 131.5 230.195312 138.292969 Z M 220.570312 119.386719 C 219.773438 118.183594 218.875 117.050781 217.871094 115.996094 C 215.117188 113.089844 211.871094 110.984375 208.125 109.667969 L 210.109375 104.019531 C 214.761719 105.652344 218.800781 108.273438 222.214844 111.875 C 223.457031 113.183594 224.574219 114.585938 225.5625 116.082031 Z M 205.5625 108.921875 C 200.15625 107.660156 194.925781 108.148438 189.871094 110.386719 L 187.441406 104.914062 C 193.71875 102.132812 200.214844 101.523438 206.925781 103.09375 Z M 187.488281 111.605469 C 185.824219 112.570312 184.285156 113.722656 182.871094 115.0625 L 178.753906 110.71875 C 180.503906 109.058594 182.410156 107.628906 184.480469 106.425781 Z M 187.488281 111.605469 " fill-opacity="1" fill-rule="nonzero"/></g></g></g></g><g clip-path="url(#593ca0f27d)"><g clip-path="url(#1a53eaecc0)"><g clip-path="url(#74547d302d)"><path fill="#ffde59" d="M 49.5625 132.683594 L 103.230469 147.292969 L 88.621094 200.964844 L 34.953125 186.355469 Z M 49.5625 132.683594 " fill-opacity="1" fill-rule="nonzero"/></g></g></g><g clip-path="url(#46fda1c530)"><g clip-path="url(#a099bfe130)"><g clip-path="url(#4055039710)"><g clip-path="url(#50a6da47d7)"><path fill="#000000" d="M 75.550781 142.863281 C 70.191406 141.402344 64.945312 141.710938 59.808594 143.78125 L 57.570312 138.226562 C 63.953125 135.65625 70.46875 135.273438 77.125 137.085938 Z M 57.386719 144.914062 C 52.484375 147.53125 48.878906 151.347656 46.570312 156.363281 L 41.132812 153.859375 C 44.003906 147.625 48.480469 142.882812 54.566406 139.632812 Z M 45.585938 158.84375 C 45.433594 159.308594 45.289062 159.773438 45.160156 160.246094 C 43.839844 165.097656 43.980469 169.894531 45.578125 174.632812 L 39.90625 176.546875 C 37.917969 170.65625 37.746094 164.695312 39.382812 158.675781 C 39.542969 158.089844 39.71875 157.511719 39.910156 156.9375 Z M 46.570312 177.121094 C 48.902344 182.167969 52.503906 185.992188 57.378906 188.589844 L 54.5625 193.875 C 48.503906 190.644531 44.027344 185.898438 41.132812 179.632812 Z M 59.789062 189.710938 C 60.6875 190.070312 61.605469 190.378906 62.546875 190.636719 C 66.898438 191.820312 71.234375 191.820312 75.558594 190.640625 L 77.140625 196.414062 C 71.765625 197.882812 66.378906 197.882812 60.972656 196.414062 C 59.808594 196.097656 58.667969 195.714844 57.554688 195.265625 Z M 78.09375 189.796875 C 83.265625 187.761719 87.289062 184.386719 90.171875 179.675781 L 95.277344 182.800781 C 91.699219 188.652344 86.703125 192.84375 80.285156 195.367188 Z M 91.4375 177.320312 C 92.054688 176.015625 92.554688 174.660156 92.9375 173.253906 C 93.988281 169.390625 94.101562 165.519531 93.277344 161.640625 L 99.136719 160.398438 C 100.15625 165.226562 100.015625 170.035156 98.714844 174.824219 C 98.238281 176.566406 97.621094 178.25 96.855469 179.871094 Z M 92.585938 159.0625 C 90.855469 153.785156 87.71875 149.566406 83.179688 146.414062 L 86.597656 141.496094 C 92.234375 145.414062 96.128906 150.648438 98.273438 157.199219 Z M 80.902344 145.007812 C 79.210938 144.089844 77.429688 143.375 75.550781 142.863281 L 77.125 137.085938 C 79.449219 137.71875 81.664062 138.605469 83.765625 139.75 Z M 80.902344 145.007812 " fill-opacity="1" fill-rule="nonzero"/></g></g></g></g><g clip-path="url(#0127d1bb7b)"><g clip-path="url(#9a0626620e)"><g clip-path="url(#f6eb8c653e)"><path fill="#ffde59" d="M 124.695312 258.675781 L 165.058594 220.40625 L 203.328125 260.769531 L 162.964844 299.039062 Z M 124.695312 258.675781 " fill-opacity="1" fill-rule="nonzero"/></g></g></g><g clip-path="url(#de5df15223)"><g clip-path="url(#c353c4a266)"><g clip-path="url(#6dd1d7bf08)"><g clip-path="url(#980d62d64e)"><path fill="#000000" d="M 146.894531 241.753906 C 142.863281 245.578125 140.398438 250.21875 139.5 255.683594 L 133.59375 254.710938 C 134.707031 247.921875 137.769531 242.15625 142.773438 237.410156 Z M 139.207031 258.339844 C 138.898438 263.890625 140.289062 268.953125 143.375 273.53125 L 138.410156 276.878906 C 134.574219 271.1875 132.847656 264.898438 133.230469 258.007812 Z M 144.984375 275.660156 C 145.300781 276.035156 145.625 276.398438 145.960938 276.753906 C 149.421875 280.402344 153.589844 282.773438 158.472656 283.871094 L 157.160156 289.714844 C 151.09375 288.347656 145.910156 285.402344 141.617188 280.875 C 141.199219 280.433594 140.796875 279.984375 140.40625 279.523438 Z M 161.109375 284.316406 C 166.636719 284.945312 171.773438 283.851562 176.527344 281.039062 L 179.578125 286.1875 C 173.671875 289.6875 167.292969 291.046875 160.433594 290.265625 Z M 178.734375 279.5625 C 179.511719 278.984375 180.253906 278.355469 180.960938 277.6875 C 184.234375 274.582031 186.488281 270.875 187.722656 266.566406 L 193.476562 268.21875 C 191.941406 273.574219 189.144531 278.179688 185.078125 282.03125 C 184.203125 282.863281 183.285156 283.636719 182.324219 284.355469 Z M 188.316406 263.964844 C 189.265625 258.488281 188.476562 253.296875 185.945312 248.386719 L 191.265625 245.644531 C 194.410156 251.746094 195.394531 258.191406 194.21875 264.984375 Z M 184.589844 246.082031 C 183.792969 244.875 182.894531 243.746094 181.890625 242.6875 C 179.140625 239.785156 175.890625 237.675781 172.144531 236.363281 L 174.128906 230.714844 C 178.785156 232.347656 182.820312 234.964844 186.238281 238.566406 C 187.480469 239.878906 188.59375 241.28125 189.585938 242.777344 Z M 169.585938 235.617188 C 164.175781 234.351562 158.945312 234.839844 153.890625 237.082031 L 151.464844 231.609375 C 157.742188 228.824219 164.234375 228.21875 170.945312 229.785156 Z M 151.507812 238.296875 C 149.84375 239.265625 148.304688 240.417969 146.894531 241.753906 L 142.773438 237.410156 C 144.523438 235.75 146.433594 234.320312 148.5 233.121094 Z M 151.507812 238.296875 " fill-opacity="1" fill-rule="nonzero"/></g></g></g></g><g clip-path="url(#8a70e7e116)"><g clip-path="url(#ae8ad793fa)"><g clip-path="url(#317ba80958)"><path fill="#707070" d="M 200.023438 123.160156 L 209.859375 133.066406 L 199.953125 142.898438 L 190.117188 132.996094 Z M 200.023438 123.160156 " fill-opacity="1" fill-rule="nonzero"/></g></g></g><g clip-path="url(#003abc2fae)"><g clip-path="url(#56c88cb733)"><g clip-path="url(#f1dac75c06)"><path fill="#707070" d="M 77.65625 161.917969 L 73.988281 175.386719 L 60.519531 171.722656 L 64.1875 158.253906 Z M 77.65625 161.917969 " fill-opacity="1" fill-rule="nonzero"/></g></g></g><g clip-path="url(#097e9cc556)"><g clip-path="url(#d5a4332052)"><g clip-path="url(#83e3c824a4)"><path fill="#707070" d="M 165.042969 249.566406 L 174.878906 259.472656 L 164.972656 269.308594 L 155.136719 259.402344 Z M 165.042969 249.566406 " fill-opacity="1" fill-rule="nonzero"/></g></g></g><g clip-path="url(#cfa4442fa6)"><g clip-path="url(#1ca05ac825)"><g clip-path="url(#8eebd7c354)"><g clip-path="url(#329ec9e4e4)"><path fill="#ffffff" d="M 196.578125 226.273438 C 196.605469 226.304688 196.644531 226.3125 196.683594 226.304688 C 196.773438 226.417969 196.652344 226.617188 196.84375 226.6875 C 197.105469 227.058594 197.449219 226.996094 197.800781 226.867188 C 198.785156 226.503906 199.691406 225.988281 200.5625 225.417969 C 203.6875 223.375 206.234375 220.777344 208.339844 217.703125 C 212.015625 212.339844 213.457031 206.382812 213.277344 199.976562 C 213.191406 197.007812 212.585938 194.105469 211.84375 191.234375 C 211.410156 189.542969 210.871094 187.886719 210.375 186.214844 C 210.328125 186.164062 210.285156 186.113281 210.242188 186.058594 C 210.25 185.984375 210.238281 185.894531 210.277344 185.835938 C 210.277344 185.835938 210.277344 185.835938 210.28125 185.835938 C 210.3125 185.792969 210.375 185.835938 210.394531 185.898438 C 210.949219 186.304688 211.402344 186.8125 211.824219 187.34375 C 212.117188 187.710938 212.425781 188.042969 212.832031 188.277344 C 213.453125 189.066406 214.238281 189.230469 215.027344 188.769531 C 214.640625 186.816406 213.375 185.441406 211.972656 184.144531 C 211.453125 183.660156 210.964844 183.148438 210.472656 182.640625 C 209.289062 181.421875 209.390625 181.664062 208.039062 181.976562 C 207.738281 182.046875 207.457031 182.1875 207.195312 182.351562 C 207.097656 182.414062 207.015625 182.480469 206.992188 182.597656 C 206.652344 182.695312 206.597656 182.984375 206.558594 183.269531 C 206.441406 184.113281 206.332031 184.957031 206.21875 185.800781 C 206.089844 185.960938 206.089844 186.148438 206.09375 186.335938 C 205.957031 186.492188 205.960938 186.679688 205.949219 186.867188 C 205.835938 186.960938 205.847656 187.105469 205.808594 187.226562 C 205.261719 188.886719 204.535156 190.460938 203.535156 191.90625 C 203.460938 192.015625 203.394531 192.128906 203.324219 192.238281 C 203.238281 192.371094 203.144531 192.523438 203.257812 192.660156 C 203.347656 192.765625 203.535156 192.773438 203.636719 192.714844 C 204.074219 192.445312 204.609375 192.492188 205.054688 192.269531 C 205.253906 192.171875 205.398438 192.003906 205.539062 191.828125 C 206.632812 190.480469 207.457031 188.976562 208.125 187.386719 C 208.183594 187.246094 208.222656 187.089844 208.308594 186.964844 C 208.410156 186.820312 208.539062 186.886719 208.644531 186.988281 C 208.59375 187.15625 208.640625 187.292969 208.777344 187.398438 C 208.761719 187.5625 208.757812 187.71875 208.914062 187.832031 C 208.886719 187.867188 208.894531 187.894531 208.933594 187.914062 C 208.914062 188.070312 208.917969 188.214844 209.054688 188.324219 C 209.066406 188.433594 209.058594 188.546875 209.089844 188.648438 C 209.390625 189.796875 209.710938 190.9375 210 192.085938 C 210.261719 193.128906 210.492188 194.179688 210.734375 195.226562 C 210.761719 195.511719 210.78125 195.796875 210.824219 196.074219 C 211.210938 198.8125 211.257812 201.554688 210.886719 204.292969 C 210.757812 205.269531 210.59375 206.242188 210.445312 207.21875 C 210.308594 207.382812 210.316406 207.582031 210.320312 207.777344 C 210.183594 207.933594 210.1875 208.121094 210.191406 208.308594 C 210.050781 208.449219 210.066406 208.628906 210.054688 208.800781 C 209.953125 208.886719 209.9375 208.996094 209.960938 209.113281 C 209.925781 209.148438 209.914062 209.183594 209.933594 209.230469 C 209.824219 209.324219 209.832031 209.464844 209.789062 209.585938 C 209.574219 210.179688 209.464844 210.808594 209.175781 211.375 C 209.214844 211.4375 209.210938 211.621094 209.339844 211.417969 C 209.429688 211.285156 209.476562 211.285156 209.503906 211.332031 C 209.53125 211.371094 209.542969 211.445312 209.558594 211.503906 C 208.820312 213.355469 207.859375 215.097656 206.785156 216.777344 C 206.671875 216.925781 206.554688 217.074219 206.441406 217.21875 C 205.757812 218.09375 205.074219 218.972656 204.394531 219.847656 C 204.347656 219.859375 204.316406 219.882812 204.292969 219.914062 C 204.277344 219.9375 204.269531 219.960938 204.261719 219.992188 C 204.191406 220.011719 204.148438 220.058594 204.136719 220.128906 C 204.0625 220.148438 204.023438 220.195312 204.011719 220.269531 C 203.933594 220.285156 203.894531 220.332031 203.882812 220.410156 C 203.808594 220.421875 203.765625 220.46875 203.753906 220.546875 C 203.679688 220.558594 203.636719 220.605469 203.628906 220.679688 L 203.625 220.683594 C 203.550781 220.691406 203.503906 220.738281 203.496094 220.8125 L 203.496094 220.816406 C 203.449219 220.855469 203.40625 220.898438 203.367188 220.945312 L 203.363281 220.949219 C 203.285156 220.960938 203.242188 221.003906 203.230469 221.082031 L 203.226562 221.085938 C 203.152344 221.097656 203.109375 221.136719 203.097656 221.214844 L 203.09375 221.21875 C 203.015625 221.226562 202.972656 221.273438 202.964844 221.347656 L 202.960938 221.351562 C 202.882812 221.359375 202.839844 221.40625 202.828125 221.480469 C 202.75 221.492188 202.703125 221.535156 202.691406 221.613281 C 202.253906 221.988281 201.816406 222.363281 201.375 222.738281 C 201.207031 223.007812 200.9375 223.160156 200.699219 223.347656 C 200.664062 223.332031 200.640625 223.3125 200.617188 223.289062 C 200.585938 223.253906 200.566406 223.210938 200.558594 223.15625 C 200.363281 223.277344 200.15625 223.382812 200.03125 223.585938 C 199.996094 223.652344 199.957031 223.710938 199.890625 223.75 C 199.9375 223.695312 199.984375 223.644531 200.03125 223.585938 C 199.957031 223.613281 199.894531 223.648438 199.894531 223.730469 C 199.777344 223.730469 199.695312 223.789062 199.636719 223.882812 C 199.558594 223.882812 199.507812 223.914062 199.492188 223.988281 C 199.414062 224.007812 199.355469 224.039062 199.332031 224.121094 C 199.292969 224.125 199.261719 224.136719 199.238281 224.171875 C 199.027344 224.257812 198.84375 224.378906 198.6875 224.546875 C 198.539062 224.617188 198.390625 224.679688 198.292969 224.816406 C 198.183594 224.824219 198.113281 224.898438 198.039062 224.964844 C 197.457031 225.230469 196.933594 225.601562 196.273438 225.765625 C 196.425781 225.949219 196.347656 226.195312 196.578125 226.273438 Z M 209.066406 187.914062 C 209.066406 187.917969 209.066406 187.917969 209.066406 187.917969 C 209.066406 187.917969 209.070312 187.917969 209.070312 187.917969 C 209.066406 187.917969 209.066406 187.921875 209.066406 187.921875 C 209.066406 187.921875 209.066406 187.917969 209.066406 187.917969 C 209.066406 187.917969 209.0625 187.917969 209.0625 187.917969 C 209.0625 187.917969 209.066406 187.917969 209.066406 187.914062 Z M 203.25 221.585938 C 203.261719 221.574219 203.273438 221.566406 203.285156 221.558594 C 203.28125 221.5625 203.28125 221.566406 203.277344 221.566406 C 203.269531 221.578125 203.261719 221.585938 203.25 221.59375 C 203.25 221.59375 203.25 221.589844 203.25 221.585938 Z M 204.390625 219.859375 C 204.390625 219.859375 204.390625 219.863281 204.394531 219.863281 C 204.398438 219.867188 204.402344 219.867188 204.40625 219.871094 L 204.414062 219.886719 L 204.390625 219.863281 C 204.390625 219.859375 204.390625 219.863281 204.386719 219.863281 C 204.390625 219.863281 204.390625 219.859375 204.390625 219.859375 Z M 203.261719 221.652344 C 203.257812 221.632812 203.253906 221.613281 203.25 221.597656 C 203.257812 221.589844 203.269531 221.582031 203.277344 221.570312 C 203.261719 221.59375 203.253906 221.621094 203.261719 221.652344 Z M 203.339844 221.511719 C 203.351562 221.503906 203.363281 221.492188 203.371094 221.484375 C 203.375 221.484375 203.375 221.480469 203.375 221.484375 C 203.363281 221.492188 203.351562 221.503906 203.339844 221.511719 Z M 197.78125 226.148438 C 197.78125 226.152344 197.777344 226.152344 197.777344 226.15625 C 197.773438 226.15625 197.773438 226.15625 197.769531 226.15625 C 197.773438 226.152344 197.777344 226.152344 197.78125 226.148438 Z M 198.039062 226.03125 C 198.042969 226.03125 198.042969 226.03125 198.046875 226.027344 C 198.042969 226.027344 198.039062 226.03125 198.039062 226.03125 Z M 199.859375 223.859375 C 199.863281 223.875 199.867188 223.886719 199.875 223.902344 C 199.867188 223.902344 199.855469 223.902344 199.847656 223.902344 C 199.851562 223.886719 199.855469 223.875 199.859375 223.859375 Z M 199.417969 224.101562 C 199.402344 224.117188 199.378906 224.125 199.351562 224.128906 C 199.375 224.121094 199.398438 224.113281 199.417969 224.101562 Z M 199.417969 224.101562 " fill-opacity="1" fill-rule="nonzero"/></g></g></g></g><g clip-path="url(#f015e0d0b1)"><g clip-path="url(#ce060edb37)"><g clip-path="url(#7f3079c7e0)"><g clip-path="url(#f0a7cdd969)"><path fill="#ffffff" d="M 203.359375 220.957031 C 203.402344 220.914062 203.445312 220.867188 203.488281 220.824219 C 203.414062 220.835938 203.371094 220.882812 203.359375 220.957031 Z M 203.359375 220.957031 " fill-opacity="1" fill-rule="nonzero"/></g></g></g></g><g clip-path="url(#1734679c42)"><g clip-path="url(#3998ec0d90)"><g clip-path="url(#186676b47a)"><g clip-path="url(#161ae3b202)"><path fill="#ffffff" d="M 85.980469 214.332031 C 85.941406 214.339844 85.910156 214.363281 85.894531 214.402344 C 85.75 214.410156 85.660156 214.199219 85.488281 214.3125 C 85.039062 214.3125 84.890625 214.628906 84.792969 214.992188 C 84.523438 216.007812 84.421875 217.042969 84.386719 218.085938 C 84.261719 221.816406 84.917969 225.394531 86.222656 228.882812 C 88.492188 234.976562 92.53125 239.585938 97.875 243.125 C 100.347656 244.765625 103.070312 245.941406 105.847656 246.988281 C 107.480469 247.601562 109.144531 248.117188 110.796875 248.671875 C 110.867188 248.667969 110.933594 248.660156 111 248.652344 C 111.058594 248.703125 111.136719 248.746094 111.160156 248.8125 C 111.179688 248.863281 111.105469 248.890625 111.046875 248.871094 C 110.394531 249.09375 109.71875 249.167969 109.039062 249.207031 C 108.574219 249.238281 108.121094 249.296875 107.695312 249.496094 C 106.695312 249.546875 106.109375 250.09375 106.03125 251.007812 C 107.851562 251.816406 109.703125 251.574219 111.570312 251.171875 C 112.265625 251.023438 112.964844 250.921875 113.667969 250.8125 C 115.34375 250.542969 115.085938 250.488281 115.605469 249.203125 C 115.722656 248.914062 115.769531 248.605469 115.785156 248.296875 C 115.792969 248.183594 115.785156 248.078125 115.703125 247.992188 C 115.816406 247.65625 115.613281 247.445312 115.402344 247.25 C 114.78125 246.664062 114.152344 246.089844 113.527344 245.515625 C 113.472656 245.316406 113.320312 245.207031 113.160156 245.101562 C 113.113281 244.902344 112.957031 244.792969 112.808594 244.679688 C 112.800781 244.53125 112.675781 244.457031 112.597656 244.355469 C 111.558594 242.953125 110.6875 241.453125 110.082031 239.804688 C 110.035156 239.679688 109.980469 239.5625 109.929688 239.441406 C 109.871094 239.292969 109.800781 239.128906 109.625 239.144531 C 109.488281 239.15625 109.371094 239.304688 109.363281 239.421875 C 109.328125 239.933594 108.984375 240.34375 108.90625 240.835938 C 108.871094 241.058594 108.929688 241.269531 108.992188 241.488281 C 109.464844 243.15625 110.21875 244.695312 111.136719 246.160156 C 111.21875 246.289062 111.320312 246.410156 111.375 246.554688 C 111.433594 246.71875 111.304688 246.785156 111.160156 246.8125 C 111.050781 246.671875 110.914062 246.636719 110.75 246.6875 C 110.625 246.578125 110.496094 246.484375 110.316406 246.546875 C 110.304688 246.503906 110.277344 246.496094 110.238281 246.515625 C 110.121094 246.410156 110 246.332031 109.832031 246.378906 C 109.734375 246.324219 109.648438 246.257812 109.546875 246.21875 C 108.4375 245.808594 107.320312 245.414062 106.210938 244.988281 C 105.207031 244.601562 104.21875 244.183594 103.222656 243.777344 C 102.972656 243.640625 102.730469 243.492188 102.476562 243.363281 C 100.015625 242.105469 97.746094 240.566406 95.71875 238.6875 C 94.996094 238.015625 94.292969 237.324219 93.582031 236.640625 C 93.523438 236.433594 93.359375 236.328125 93.195312 236.214844 C 93.144531 236.015625 92.992188 235.910156 92.835938 235.804688 C 92.800781 235.609375 92.644531 235.519531 92.511719 235.410156 C 92.5 235.277344 92.421875 235.203125 92.3125 235.152344 C 92.304688 235.105469 92.277344 235.078125 92.230469 235.066406 C 92.21875 234.921875 92.097656 234.847656 92.023438 234.742188 C 91.664062 234.222656 91.210938 233.773438 90.914062 233.210938 C 90.839844 233.207031 90.691406 233.097656 90.78125 233.320312 C 90.839844 233.46875 90.8125 233.507812 90.757812 233.503906 C 90.710938 233.503906 90.644531 233.46875 90.585938 233.449219 C 89.5 231.777344 88.625 229.992188 87.871094 228.144531 C 87.816406 227.96875 87.761719 227.789062 87.707031 227.609375 C 87.386719 226.546875 87.0625 225.484375 86.738281 224.421875 C 86.753906 224.378906 86.753906 224.339844 86.742188 224.300781 C 86.730469 224.277344 86.714844 224.253906 86.695312 224.234375 C 86.722656 224.164062 86.707031 224.101562 86.652344 224.050781 C 86.683594 223.980469 86.667969 223.917969 86.613281 223.867188 C 86.644531 223.796875 86.628906 223.734375 86.574219 223.683594 C 86.605469 223.613281 86.59375 223.550781 86.535156 223.5 C 86.570312 223.429688 86.554688 223.367188 86.5 223.316406 C 86.53125 223.246094 86.519531 223.183594 86.464844 223.132812 L 86.460938 223.128906 C 86.457031 223.070312 86.445312 223.011719 86.429688 222.949219 L 86.429688 222.945312 C 86.464844 222.875 86.453125 222.816406 86.398438 222.765625 L 86.398438 222.757812 C 86.429688 222.6875 86.421875 222.628906 86.367188 222.578125 L 86.363281 222.570312 C 86.402344 222.503906 86.390625 222.441406 86.335938 222.390625 L 86.332031 222.386719 C 86.371094 222.316406 86.359375 222.257812 86.300781 222.203125 C 86.339844 222.132812 86.328125 222.070312 86.273438 222.015625 C 86.21875 221.441406 86.164062 220.867188 86.109375 220.289062 C 85.988281 220 86.015625 219.691406 86.003906 219.386719 C 86.035156 219.367188 86.066406 219.359375 86.097656 219.355469 C 86.144531 219.347656 86.191406 219.359375 86.238281 219.382812 C 86.253906 219.152344 86.285156 218.921875 86.191406 218.703125 C 86.15625 218.636719 86.132812 218.570312 86.136719 218.496094 C 86.15625 218.5625 86.171875 218.632812 86.191406 218.703125 C 86.210938 218.628906 86.21875 218.558594 86.152344 218.507812 C 86.222656 218.414062 86.21875 218.3125 86.175781 218.207031 C 86.21875 218.148438 86.226562 218.085938 86.171875 218.027344 C 86.199219 217.957031 86.210938 217.890625 86.160156 217.824219 C 86.179688 217.789062 86.183594 217.757812 86.167969 217.71875 C 86.222656 217.496094 86.226562 217.273438 86.179688 217.050781 C 86.207031 216.890625 86.242188 216.734375 86.1875 216.574219 C 86.242188 216.480469 86.222656 216.378906 86.210938 216.28125 C 86.328125 215.652344 86.328125 215.007812 86.574219 214.375 C 86.335938 214.394531 86.179688 214.191406 85.980469 214.332031 Z M 110.160156 246.625 C 110.160156 246.625 110.160156 246.625 110.15625 246.621094 C 110.15625 246.625 110.15625 246.625 110.15625 246.625 C 110.15625 246.625 110.15625 246.621094 110.15625 246.621094 C 110.160156 246.621094 110.160156 246.621094 110.160156 246.617188 C 110.160156 246.621094 110.160156 246.621094 110.160156 246.625 Z M 85.976562 222.488281 C 85.976562 222.5 85.976562 222.515625 85.976562 222.53125 C 85.976562 222.527344 85.972656 222.523438 85.972656 222.519531 C 85.972656 222.507812 85.96875 222.496094 85.96875 222.480469 C 85.96875 222.484375 85.972656 222.484375 85.976562 222.488281 Z M 86.730469 224.414062 C 86.730469 224.414062 86.726562 224.414062 86.726562 224.414062 C 86.722656 224.414062 86.714844 224.417969 86.710938 224.417969 L 86.695312 224.417969 L 86.726562 224.414062 C 86.730469 224.414062 86.726562 224.410156 86.730469 224.410156 C 86.726562 224.410156 86.730469 224.414062 86.730469 224.414062 Z M 85.914062 222.457031 C 85.929688 222.464844 85.949219 222.472656 85.964844 222.480469 C 85.964844 222.492188 85.96875 222.503906 85.972656 222.519531 C 85.960938 222.492188 85.945312 222.472656 85.914062 222.457031 Z M 85.980469 222.601562 C 85.984375 222.617188 85.988281 222.632812 85.988281 222.644531 C 85.988281 222.648438 85.988281 222.648438 85.988281 222.648438 C 85.984375 222.632812 85.984375 222.617188 85.980469 222.601562 Z M 85.390625 215.386719 C 85.390625 215.386719 85.390625 215.382812 85.386719 215.382812 C 85.390625 215.378906 85.390625 215.378906 85.390625 215.375 C 85.390625 215.378906 85.390625 215.382812 85.390625 215.386719 Z M 85.339844 215.667969 C 85.339844 215.667969 85.335938 215.671875 85.335938 215.675781 C 85.339844 215.671875 85.339844 215.667969 85.339844 215.667969 Z M 86.066406 218.40625 C 86.054688 218.398438 86.039062 218.394531 86.023438 218.394531 C 86.03125 218.386719 86.035156 218.378906 86.039062 218.371094 C 86.046875 218.382812 86.058594 218.394531 86.066406 218.40625 Z M 86.125 217.90625 C 86.121094 217.882812 86.125 217.859375 86.140625 217.835938 C 86.128906 217.859375 86.125 217.882812 86.125 217.90625 Z M 86.125 217.90625 " fill-opacity="1" fill-rule="nonzero"/></g></g></g></g><g clip-path="url(#f79dae12b0)"><g clip-path="url(#fd977f21bd)"><g clip-path="url(#61e3da7a01)"><g clip-path="url(#5f55ed94e7)"><path fill="#ffffff" d="M 86.425781 222.941406 C 86.4375 223 86.449219 223.0625 86.457031 223.121094 C 86.492188 223.050781 86.480469 222.992188 86.425781 222.941406 Z M 86.425781 222.941406 " fill-opacity="1" fill-rule="nonzero"/></g></g></g></g><g clip-path="url(#8bd5d51c82)"><g clip-path="url(#f7b92744e2)"><g clip-path="url(#ecbab9da39)"><g clip-path="url(#19cc2b3040)"><path fill="#ffffff" d="M 149.40625 125.15625 C 149.425781 125.117188 149.421875 125.082031 149.398438 125.046875 C 149.472656 124.921875 149.699219 124.96875 149.703125 124.761719 C 149.960938 124.390625 149.785156 124.089844 149.542969 123.804688 C 148.863281 123.003906 148.066406 122.332031 147.234375 121.707031 C 144.238281 119.476562 140.921875 117.976562 137.3125 117.058594 C 131.011719 115.449219 124.921875 116.144531 118.972656 118.515625 C 116.210938 119.613281 113.695312 121.179688 111.253906 122.867188 C 109.816406 123.855469 108.445312 124.929688 107.046875 125.972656 C 107.011719 126.03125 106.980469 126.09375 106.945312 126.152344 C 106.871094 126.167969 106.792969 126.210938 106.722656 126.191406 C 106.671875 126.175781 106.691406 126.101562 106.742188 126.0625 C 106.929688 125.402344 107.253906 124.800781 107.609375 124.222656 C 107.851562 123.824219 108.054688 123.417969 108.136719 122.953125 C 108.667969 122.101562 108.550781 121.308594 107.84375 120.726562 C 106.140625 121.757812 105.285156 123.421875 104.550781 125.183594 C 104.277344 125.835938 103.960938 126.472656 103.65625 127.109375 C 102.917969 128.640625 103.109375 128.460938 103.871094 129.621094 C 104.039062 129.878906 104.265625 130.09375 104.511719 130.285156 C 104.601562 130.355469 104.691406 130.410156 104.8125 130.390625 C 105.019531 130.675781 105.3125 130.628906 105.589844 130.570312 C 106.425781 130.390625 107.253906 130.199219 108.085938 130.015625 C 108.277344 130.082031 108.457031 130.019531 108.632812 129.949219 C 108.824219 130.023438 109 129.957031 109.179688 129.902344 C 109.304688 129.976562 109.4375 129.917969 109.566406 129.914062 C 111.3125 129.855469 113.039062 130 114.738281 130.4375 C 114.867188 130.472656 115 130.492188 115.128906 130.519531 C 115.28125 130.554688 115.453125 130.59375 115.542969 130.4375 C 115.613281 130.320312 115.554688 130.136719 115.464844 130.066406 C 115.0625 129.746094 114.921875 129.230469 114.5625 128.886719 C 114.402344 128.730469 114.191406 128.65625 113.980469 128.585938 C 112.335938 128.019531 110.644531 127.765625 108.917969 127.683594 C 108.765625 127.675781 108.605469 127.691406 108.460938 127.652344 C 108.289062 127.609375 108.308594 127.464844 108.367188 127.332031 C 108.542969 127.320312 108.652344 127.230469 108.707031 127.0625 C 108.863281 127.023438 109.015625 126.972656 109.066406 126.789062 C 109.109375 126.800781 109.132812 126.785156 109.136719 126.742188 C 109.289062 126.707031 109.425781 126.652344 109.480469 126.484375 C 109.578125 126.4375 109.6875 126.40625 109.773438 126.34375 C 110.746094 125.664062 111.707031 124.972656 112.6875 124.304688 C 113.578125 123.699219 114.484375 123.125 115.386719 122.539062 C 115.640625 122.410156 115.902344 122.296875 116.152344 122.160156 C 118.589844 120.855469 121.144531 119.871094 123.84375 119.273438 C 124.808594 119.0625 125.777344 118.878906 126.746094 118.683594 C 126.949219 118.757812 127.128906 118.679688 127.3125 118.609375 C 127.507812 118.683594 127.679688 118.613281 127.855469 118.546875 C 128.035156 118.632812 128.199219 118.554688 128.367188 118.507812 C 128.480469 118.574219 128.585938 118.550781 128.691406 118.488281 C 128.734375 118.511719 128.773438 118.507812 128.808594 118.472656 C 128.933594 118.542969 129.066406 118.488281 129.191406 118.488281 C 129.824219 118.488281 130.453125 118.371094 131.085938 118.449219 C 131.128906 118.386719 131.300781 118.332031 131.070312 118.277344 C 130.914062 118.238281 130.898438 118.199219 130.929688 118.152344 C 130.960938 118.117188 131.023438 118.078125 131.074219 118.042969 C 133.066406 118.101562 135.03125 118.402344 136.980469 118.835938 C 137.15625 118.890625 137.335938 118.949219 137.511719 119.007812 C 138.570312 119.347656 139.628906 119.6875 140.6875 120.027344 C 140.710938 120.0625 140.746094 120.085938 140.78125 120.097656 C 140.808594 120.101562 140.835938 120.105469 140.863281 120.097656 C 140.90625 120.160156 140.964844 120.183594 141.039062 120.167969 C 141.078125 120.234375 141.136719 120.253906 141.210938 120.238281 C 141.25 120.304688 141.3125 120.328125 141.386719 120.3125 C 141.425781 120.378906 141.484375 120.402344 141.558594 120.382812 C 141.597656 120.453125 141.65625 120.476562 141.730469 120.457031 L 141.730469 120.460938 C 141.769531 120.527344 141.828125 120.554688 141.898438 120.535156 L 141.902344 120.535156 C 141.957031 120.5625 142.011719 120.589844 142.070312 120.613281 L 142.074219 120.617188 C 142.113281 120.683594 142.167969 120.710938 142.242188 120.691406 L 142.246094 120.695312 C 142.285156 120.761719 142.339844 120.789062 142.414062 120.773438 L 142.417969 120.773438 C 142.417969 120.773438 142.421875 120.777344 142.421875 120.777344 C 142.421875 120.777344 142.417969 120.773438 142.417969 120.773438 C 142.453125 120.84375 142.511719 120.871094 142.585938 120.851562 L 142.589844 120.855469 C 142.625 120.921875 142.679688 120.949219 142.753906 120.933594 L 142.757812 120.933594 C 142.792969 121.003906 142.851562 121.03125 142.925781 121.015625 C 143.429688 121.296875 143.933594 121.582031 144.4375 121.867188 C 144.746094 121.929688 144.984375 122.128906 145.242188 122.292969 C 145.238281 122.328125 145.230469 122.359375 145.214844 122.386719 C 145.191406 122.429688 145.160156 122.464844 145.109375 122.488281 C 145.289062 122.628906 145.460938 122.785156 145.695312 122.835938 C 145.769531 122.847656 145.839844 122.863281 145.898438 122.910156 C 145.832031 122.886719 145.765625 122.859375 145.695312 122.835938 C 145.746094 122.894531 145.796875 122.945312 145.878906 122.917969 C 145.917969 123.027344 146 123.082031 146.109375 123.105469 C 146.136719 123.175781 146.183594 123.214844 146.261719 123.207031 C 146.304688 123.269531 146.355469 123.316406 146.4375 123.3125 C 146.453125 123.347656 146.476562 123.371094 146.519531 123.378906 C 146.671875 123.550781 146.847656 123.679688 147.058594 123.765625 C 147.175781 123.882812 147.285156 124 147.449219 124.046875 C 147.492188 124.144531 147.589844 124.1875 147.675781 124.234375 C 148.125 124.6875 148.652344 125.054688 149.035156 125.617188 C 149.152344 125.410156 149.410156 125.398438 149.40625 125.15625 Z M 109.09375 126.617188 C 109.09375 126.617188 109.09375 126.617188 109.09375 126.613281 C 109.09375 126.613281 109.097656 126.613281 109.097656 126.613281 C 109.097656 126.613281 109.09375 126.613281 109.09375 126.613281 C 109.097656 126.617188 109.097656 126.617188 109.097656 126.621094 C 109.09375 126.617188 109.09375 126.617188 109.09375 126.617188 Z M 142.707031 120.503906 C 142.695312 120.496094 142.683594 120.488281 142.671875 120.476562 C 142.675781 120.480469 142.679688 120.480469 142.683594 120.480469 C 142.695312 120.488281 142.707031 120.492188 142.71875 120.5 C 142.71875 120.5 142.714844 120.5 142.707031 120.503906 Z M 140.695312 120.023438 C 140.695312 120.023438 140.699219 120.023438 140.699219 120.019531 C 140.699219 120.015625 140.703125 120.011719 140.703125 120.007812 L 140.714844 119.992188 L 140.699219 120.023438 C 140.699219 120.023438 140.699219 120.023438 140.695312 120.023438 Z M 142.769531 120.46875 C 142.753906 120.476562 142.734375 120.488281 142.722656 120.496094 C 142.710938 120.492188 142.699219 120.484375 142.6875 120.480469 C 142.714844 120.488281 142.742188 120.484375 142.769531 120.46875 Z M 142.609375 120.441406 C 142.597656 120.4375 142.582031 120.429688 142.570312 120.421875 C 142.570312 120.421875 142.570312 120.421875 142.570312 120.417969 C 142.582031 120.425781 142.597656 120.4375 142.609375 120.441406 Z M 148.875 124.066406 C 148.878906 124.066406 148.878906 124.070312 148.882812 124.070312 C 148.882812 124.070312 148.886719 124.074219 148.886719 124.074219 C 148.882812 124.074219 148.878906 124.070312 148.875 124.066406 Z M 148.675781 123.867188 C 148.675781 123.863281 148.675781 123.859375 148.671875 123.859375 C 148.671875 123.863281 148.675781 123.867188 148.675781 123.867188 Z M 146.011719 122.902344 C 146.023438 122.898438 146.035156 122.886719 146.042969 122.875 C 146.046875 122.882812 146.050781 122.890625 146.054688 122.898438 C 146.039062 122.902344 146.027344 122.902344 146.011719 122.902344 Z M 146.386719 123.234375 C 146.410156 123.246094 146.425781 123.265625 146.441406 123.289062 C 146.441406 123.289062 146.441406 123.289062 146.4375 123.289062 C 146.421875 123.265625 146.40625 123.246094 146.386719 123.234375 Z M 146.386719 123.234375 " fill-opacity="1" fill-rule="nonzero"/></g></g></g></g><g clip-path="url(#c3a0ee7613)"><g clip-path="url(#37d29f4ffc)"><g clip-path="url(#ac993094c1)"><g clip-path="url(#544d23715e)"><path fill="#ffffff" d="M 142.082031 120.613281 C 142.023438 120.589844 141.96875 120.5625 141.914062 120.539062 C 141.949219 120.605469 142.007812 120.632812 142.082031 120.613281 Z M 142.082031 120.613281 " fill-opacity="1" fill-rule="nonzero"/></g></g></g></g><path stroke-linecap="butt" transform="matrix(0.74987, 0.00605191, -0.00605275, 0.749976, 136.490312, 77.868268)" fill="none" stroke-linejoin="miter" d="M -0.00220337 1.998642 L 223.036361 2.000981 " stroke="#000000" stroke-width="4" stroke-opacity="1" stroke-miterlimit="4"/><path stroke-linecap="butt" transform="matrix(0.750617, -0.00364086, 0.00363783, 0.749991, 135.126205, 291.168432)" fill="none" stroke-linejoin="miter" d="M -0.000887235 1.999401 L 224.814281 2.002221 " stroke="#000000" stroke-width="4" stroke-opacity="1" stroke-miterlimit="4"/><g clip-path="url(#2aa9495b4d)"><path fill="#5ce1e6" d="M 294.695312 306.992188 L 286.203125 297.5 C 286.019531 297.296875 285.765625 297.183594 285.5 297.183594 L 279.835938 297.183594 C 279.464844 297.183594 279.128906 297.402344 278.972656 297.746094 C 278.824219 298.089844 278.886719 298.488281 279.136719 298.765625 L 287.058594 307.628906 L 279.136719 316.484375 C 278.886719 316.765625 278.820312 317.164062 278.972656 317.507812 C 279.128906 317.851562 279.464844 318.070312 279.835938 318.070312 L 285.5 318.070312 C 285.765625 318.070312 286.019531 317.953125 286.203125 317.757812 L 294.695312 308.261719 C 295.015625 307.902344 295.015625 307.351562 294.695312 306.992188 Z M 294.695312 306.992188 " fill-opacity="1" fill-rule="nonzero"/></g><g clip-path="url(#f4af5ac36a)"><path fill="#5ce1e6" d="M 282.425781 306.992188 L 273.933594 297.5 C 273.75 297.296875 273.5 297.183594 273.230469 297.183594 L 267.570312 297.183594 C 267.195312 297.183594 266.859375 297.402344 266.707031 297.746094 C 266.554688 298.089844 266.617188 298.488281 266.867188 298.765625 L 274.792969 307.628906 L 266.867188 316.484375 C 266.617188 316.765625 266.554688 317.164062 266.707031 317.507812 C 266.859375 317.851562 267.195312 318.070312 267.570312 318.070312 L 273.230469 318.070312 C 273.5 318.070312 273.75 317.953125 273.933594 317.757812 L 282.425781 308.261719 C 282.75 307.902344 282.75 307.351562 282.425781 306.992188 Z M 282.425781 306.992188 " fill-opacity="1" fill-rule="nonzero"/></g><g clip-path="url(#8c8241ea06)"><path fill="#38b6ff" d="M 257.570312 306.992188 L 249.078125 297.5 C 248.894531 297.296875 248.640625 297.183594 248.375 297.183594 L 242.710938 297.183594 C 242.339844 297.183594 242.003906 297.402344 241.847656 297.746094 C 241.699219 298.089844 241.761719 298.488281 242.007812 298.765625 L 249.933594 307.628906 L 242.007812 316.484375 C 241.761719 316.765625 241.695312 317.164062 241.847656 317.507812 C 242.003906 317.851562 242.339844 318.070312 242.710938 318.070312 L 248.375 318.070312 C 248.640625 318.070312 248.894531 317.953125 249.078125 317.757812 L 257.570312 308.261719 C 257.890625 307.902344 257.890625 307.351562 257.570312 306.992188 Z M 257.570312 306.992188 " fill-opacity="1" fill-rule="nonzero"/></g><g clip-path="url(#75b5e13998)"><path fill="#38b6ff" d="M 245.300781 306.992188 L 236.808594 297.5 C 236.625 297.296875 236.375 297.183594 236.105469 297.183594 L 230.445312 297.183594 C 230.070312 297.183594 229.734375 297.402344 229.582031 297.746094 C 229.429688 298.089844 229.492188 298.488281 229.742188 298.765625 L 237.667969 307.628906 L 229.742188 316.484375 C 229.492188 316.765625 229.429688 317.164062 229.582031 317.507812 C 229.734375 317.851562 230.070312 318.070312 230.445312 318.070312 L 236.105469 318.070312 C 236.375 318.070312 236.625 317.953125 236.808594 317.757812 L 245.300781 308.261719 C 245.625 307.902344 245.625 307.351562 245.300781 306.992188 Z M 245.300781 306.992188 " fill-opacity="1" fill-rule="nonzero"/></g><g clip-path="url(#ac6dbb4d23)"><path fill="#38b6ff" d="M 220.445312 306.992188 L 211.953125 297.5 C 211.769531 297.296875 211.515625 297.183594 211.25 297.183594 L 205.585938 297.183594 C 205.214844 297.183594 204.878906 297.402344 204.722656 297.746094 C 204.574219 298.089844 204.636719 298.488281 204.886719 298.765625 L 212.808594 307.628906 L 204.886719 316.484375 C 204.636719 316.765625 204.570312 317.164062 204.722656 317.507812 C 204.878906 317.851562 205.214844 318.070312 205.585938 318.070312 L 211.25 318.070312 C 211.515625 318.070312 211.769531 317.953125 211.953125 317.757812 L 220.445312 308.261719 C 220.765625 307.902344 220.765625 307.351562 220.445312 306.992188 Z M 220.445312 306.992188 " fill-opacity="1" fill-rule="nonzero"/></g><g clip-path="url(#d4a331a02b)"><path fill="#38b6ff" d="M 208.175781 306.992188 L 199.683594 297.5 C 199.5 297.296875 199.25 297.183594 198.980469 297.183594 L 193.320312 297.183594 C 192.945312 297.183594 192.609375 297.402344 192.457031 297.746094 C 192.304688 298.089844 192.367188 298.488281 192.617188 298.765625 L 200.542969 307.628906 L 192.617188 316.484375 C 192.367188 316.765625 192.304688 317.164062 192.457031 317.507812 C 192.609375 317.851562 192.945312 318.070312 193.320312 318.070312 L 198.980469 318.070312 C 199.25 318.070312 199.5 317.953125 199.683594 317.757812 L 208.175781 308.261719 C 208.5 307.902344 208.5 307.351562 208.175781 306.992188 Z M 208.175781 306.992188 " fill-opacity="1" fill-rule="nonzero"/></g><g clip-path="url(#44f0089f7c)"><path fill="#38b6ff" d="M 183.320312 306.992188 L 174.828125 297.5 C 174.644531 297.296875 174.390625 297.183594 174.125 297.183594 L 168.460938 297.183594 C 168.089844 297.183594 167.753906 297.402344 167.597656 297.746094 C 167.449219 298.089844 167.511719 298.488281 167.761719 298.765625 L 175.683594 307.628906 L 167.761719 316.484375 C 167.511719 316.765625 167.445312 317.164062 167.597656 317.507812 C 167.753906 317.851562 168.089844 318.070312 168.460938 318.070312 L 174.125 318.070312 C 174.390625 318.070312 174.644531 317.953125 174.828125 317.757812 L 183.320312 308.261719 C 183.640625 307.902344 183.640625 307.351562 183.320312 306.992188 Z M 183.320312 306.992188 " fill-opacity="1" fill-rule="nonzero"/></g><g clip-path="url(#c1c104ffdd)"><path fill="#38b6ff" d="M 171.050781 306.992188 L 162.558594 297.5 C 162.375 297.296875 162.125 297.183594 161.855469 297.183594 L 156.195312 297.183594 C 155.820312 297.183594 155.484375 297.402344 155.332031 297.746094 C 155.179688 298.089844 155.242188 298.488281 155.492188 298.765625 L 163.417969 307.628906 L 155.492188 316.484375 C 155.242188 316.765625 155.179688 317.164062 155.332031 317.507812 C 155.484375 317.851562 155.820312 318.070312 156.195312 318.070312 L 161.855469 318.070312 C 162.125 318.070312 162.375 317.953125 162.558594 317.757812 L 171.050781 308.261719 C 171.375 307.902344 171.375 307.351562 171.050781 306.992188 Z M 171.050781 306.992188 " fill-opacity="1" fill-rule="nonzero"/></g><g clip-path="url(#2916b103ee)"><g clip-path="url(#5fa8552d93)"><g clip-path="url(#f929d3c334)"><path fill="#5ce1e6" d="M 146.183594 306.746094 L 137.523438 297.402344 C 137.339844 297.207031 137.085938 297.097656 136.816406 297.101562 L 131.15625 297.199219 C 130.785156 297.207031 130.449219 297.433594 130.304688 297.777344 C 130.160156 298.125 130.226562 298.523438 130.480469 298.796875 L 138.5625 307.515625 L 130.792969 316.511719 C 130.550781 316.796875 130.492188 317.195312 130.652344 317.535156 C 130.8125 317.875 131.152344 318.089844 131.523438 318.085938 L 137.1875 317.984375 C 137.453125 317.980469 137.703125 317.859375 137.882812 317.660156 L 146.207031 308.015625 C 146.523438 307.648438 146.511719 307.097656 146.183594 306.746094 Z M 146.183594 306.746094 " fill-opacity="1" fill-rule="nonzero"/></g></g></g><g clip-path="url(#85c2f204ff)"><g clip-path="url(#8cd3c3a6f5)"><g clip-path="url(#ae089505d2)"><path fill="#5ce1e6" d="M 133.917969 306.960938 L 125.257812 297.621094 C 125.074219 297.421875 124.820312 297.3125 124.550781 297.316406 L 118.890625 297.417969 C 118.519531 297.425781 118.183594 297.648438 118.035156 297.996094 C 117.890625 298.339844 117.960938 298.742188 118.214844 299.011719 L 126.296875 307.730469 L 118.527344 316.726562 C 118.285156 317.011719 118.226562 317.414062 118.386719 317.753906 C 118.546875 318.09375 118.886719 318.308594 119.257812 318.300781 L 124.921875 318.199219 C 125.1875 318.195312 125.4375 318.074219 125.617188 317.875 L 133.941406 308.234375 C 134.257812 307.867188 134.246094 307.316406 133.917969 306.960938 Z M 133.917969 306.960938 " fill-opacity="1" fill-rule="nonzero"/></g></g></g><g clip-path="url(#f98e8b90f9)"><g clip-path="url(#db380e1cd2)"><g clip-path="url(#e63dee4776)"><path fill="#38b6ff" d="M 99.40625 301.191406 L 97.382812 288.617188 C 97.335938 288.347656 97.1875 288.117188 96.960938 287.972656 L 92.195312 284.914062 C 91.882812 284.714844 91.476562 284.714844 91.164062 284.921875 C 90.851562 285.128906 90.6875 285.5 90.75 285.867188 L 92.636719 297.605469 L 81.183594 300.78125 C 80.824219 300.882812 80.550781 301.183594 80.496094 301.554688 C 80.441406 301.925781 80.605469 302.296875 80.917969 302.496094 L 85.683594 305.554688 C 85.910156 305.699219 86.183594 305.738281 86.445312 305.667969 L 98.71875 302.261719 C 99.1875 302.132812 99.484375 301.667969 99.40625 301.191406 Z M 99.40625 301.191406 " fill-opacity="1" fill-rule="nonzero"/></g></g></g><g clip-path="url(#f20410bb87)"><g clip-path="url(#07c0030662)"><g clip-path="url(#a0b48f1d37)"><path fill="#38b6ff" d="M 89.078125 294.570312 L 87.054688 281.992188 C 87.011719 281.726562 86.859375 281.492188 86.632812 281.347656 L 81.867188 278.292969 C 81.554688 278.089844 81.152344 278.09375 80.839844 278.296875 C 80.527344 278.507812 80.363281 278.878906 80.421875 279.246094 L 82.308594 290.980469 L 70.855469 294.160156 C 70.496094 294.257812 70.226562 294.5625 70.167969 294.933594 C 70.113281 295.304688 70.277344 295.671875 70.589844 295.871094 L 75.359375 298.929688 C 75.582031 299.074219 75.859375 299.113281 76.117188 299.046875 L 88.394531 295.640625 C 88.859375 295.507812 89.15625 295.046875 89.078125 294.570312 Z M 89.078125 294.570312 " fill-opacity="1" fill-rule="nonzero"/></g></g></g><g clip-path="url(#f8a37355ee)"><g clip-path="url(#b683205755)"><g clip-path="url(#0e8f4e841b)"><path fill="#38b6ff" d="M 61.433594 282.320312 L 61.902344 269.589844 C 61.910156 269.316406 61.808594 269.0625 61.613281 268.875 L 57.535156 264.945312 C 57.269531 264.6875 56.871094 264.613281 56.523438 264.753906 C 56.175781 264.894531 55.945312 265.226562 55.929688 265.601562 L 55.492188 277.480469 L 43.640625 278.363281 C 43.265625 278.390625 42.941406 278.632812 42.816406 278.988281 C 42.6875 279.339844 42.777344 279.734375 43.046875 279.992188 L 47.125 283.917969 C 47.316406 284.105469 47.582031 284.195312 47.847656 284.179688 L 60.550781 283.234375 C 61.035156 283.199219 61.414062 282.800781 61.433594 282.320312 Z M 61.433594 282.320312 " fill-opacity="1" fill-rule="nonzero"/></g></g></g><g clip-path="url(#403a9e2e6c)"><g clip-path="url(#dc059c6951)"><g clip-path="url(#28a52ef186)"><path fill="#38b6ff" d="M 52.597656 273.808594 L 53.066406 261.078125 C 53.074219 260.808594 52.96875 260.550781 52.777344 260.363281 L 48.699219 256.4375 C 48.429688 256.179688 48.035156 256.101562 47.6875 256.242188 C 47.339844 256.386719 47.109375 256.71875 47.09375 257.089844 L 46.65625 268.96875 L 34.804688 269.851562 C 34.429688 269.878906 34.105469 270.125 33.980469 270.476562 C 33.851562 270.828125 33.941406 271.222656 34.210938 271.480469 L 38.289062 275.410156 C 38.480469 275.59375 38.742188 275.6875 39.011719 275.671875 L 51.714844 274.722656 C 52.199219 274.6875 52.578125 274.289062 52.597656 273.808594 Z M 52.597656 273.808594 " fill-opacity="1" fill-rule="nonzero"/></g></g></g><g clip-path="url(#f74ef1d4f7)"><g clip-path="url(#a70b478197)"><g clip-path="url(#cdf1bedb86)"><path fill="#38b6ff" d="M 36.792969 250.25 L 40.734375 238.136719 C 40.816406 237.878906 40.789062 237.601562 40.652344 237.371094 L 37.808594 232.476562 C 37.621094 232.15625 37.261719 231.972656 36.890625 232.011719 C 36.515625 232.054688 36.199219 232.308594 36.085938 232.664062 L 32.410156 243.96875 L 20.769531 241.570312 C 20.402344 241.492188 20.023438 241.640625 19.804688 241.945312 C 19.585938 242.25 19.5625 242.652344 19.75 242.972656 L 22.597656 247.867188 C 22.730469 248.101562 22.957031 248.261719 23.21875 248.316406 L 35.695312 250.890625 C 36.171875 250.988281 36.648438 250.710938 36.792969 250.25 Z M 36.792969 250.25 " fill-opacity="1" fill-rule="nonzero"/></g></g></g><g clip-path="url(#ba44aaab15)"><g clip-path="url(#3d9df24f13)"><g clip-path="url(#39eab30c3f)"><path fill="#38b6ff" d="M 30.628906 239.644531 L 34.570312 227.53125 C 34.652344 227.273438 34.625 226.996094 34.488281 226.765625 L 31.644531 221.871094 C 31.457031 221.546875 31.097656 221.367188 30.722656 221.40625 C 30.351562 221.449219 30.035156 221.703125 29.921875 222.058594 L 26.246094 233.363281 L 14.601562 230.960938 C 14.238281 230.886719 13.859375 231.035156 13.640625 231.335938 C 13.417969 231.640625 13.398438 232.042969 13.585938 232.367188 L 16.429688 237.261719 C 16.566406 237.492188 16.792969 237.652344 17.054688 237.710938 L 29.53125 240.28125 C 30.003906 240.378906 30.480469 240.105469 30.628906 239.644531 Z M 30.628906 239.644531 " fill-opacity="1" fill-rule="nonzero"/></g></g></g><g clip-path="url(#33ed23bc9c)"><path fill="#5ce1e6" d="M 20.015625 200.003906 L 29.507812 191.511719 C 29.710938 191.332031 29.824219 191.078125 29.824219 190.808594 L 29.824219 185.148438 C 29.824219 184.777344 29.605469 184.4375 29.261719 184.285156 C 28.917969 184.132812 28.515625 184.195312 28.242188 184.445312 L 19.378906 192.371094 L 10.523438 184.445312 C 10.242188 184.195312 9.84375 184.132812 9.5 184.285156 C 9.15625 184.4375 8.9375 184.777344 8.9375 185.148438 L 8.9375 190.808594 C 8.9375 191.078125 9.050781 191.332031 9.25 191.511719 L 18.746094 200.003906 C 19.105469 200.328125 19.65625 200.328125 20.015625 200.003906 Z M 20.015625 200.003906 " fill-opacity="1" fill-rule="nonzero"/></g><g clip-path="url(#4637d5481e)"><path fill="#5ce1e6" d="M 20.015625 187.738281 L 29.507812 179.242188 C 29.710938 179.0625 29.824219 178.808594 29.824219 178.542969 L 29.824219 172.878906 C 29.824219 172.507812 29.605469 172.171875 29.261719 172.015625 C 28.917969 171.867188 28.515625 171.929688 28.242188 172.175781 L 19.378906 180.101562 L 10.523438 172.175781 C 10.242188 171.929688 9.84375 171.863281 9.5 172.015625 C 9.15625 172.171875 8.9375 172.507812 8.9375 172.878906 L 8.9375 178.542969 C 8.9375 178.808594 9.050781 179.0625 9.25 179.242188 L 18.746094 187.738281 C 19.105469 188.058594 19.65625 188.058594 20.015625 187.738281 Z M 20.015625 187.738281 " fill-opacity="1" fill-rule="nonzero"/></g><g clip-path="url(#2ea7f9f10a)"><g clip-path="url(#3918e97b17)"><g clip-path="url(#330b310d75)"><path fill="#38b6ff" d="M 22.28125 145.097656 L 34.921875 143.527344 C 35.191406 143.492188 35.429688 143.347656 35.582031 143.128906 L 38.808594 138.476562 C 39.019531 138.167969 39.03125 137.765625 38.835938 137.445312 C 38.640625 137.125 38.273438 136.949219 37.90625 136.996094 L 26.109375 138.460938 L 23.34375 126.902344 C 23.253906 126.539062 22.960938 126.257812 22.59375 126.191406 C 22.226562 126.121094 21.851562 126.273438 21.640625 126.578125 L 18.414062 131.230469 C 18.261719 131.453125 18.210938 131.726562 18.273438 131.988281 L 21.238281 144.375 C 21.351562 144.847656 21.800781 145.160156 22.28125 145.097656 Z M 22.28125 145.097656 " fill-opacity="1" fill-rule="nonzero"/></g></g></g><g clip-path="url(#91c118fde3)"><g clip-path="url(#0292f640a4)"><g clip-path="url(#f459f94589)"><path fill="#38b6ff" d="M 29.269531 135.015625 L 41.910156 133.441406 C 42.179688 133.410156 42.417969 133.265625 42.570312 133.046875 L 45.792969 128.390625 C 46.007812 128.085938 46.019531 127.683594 45.824219 127.363281 C 45.628906 127.042969 45.261719 126.867188 44.894531 126.914062 L 33.097656 128.378906 L 30.332031 116.820312 C 30.242188 116.457031 29.949219 116.175781 29.582031 116.105469 C 29.210938 116.035156 28.839844 116.1875 28.628906 116.492188 L 25.402344 121.148438 C 25.25 121.367188 25.199219 121.640625 25.261719 121.902344 L 28.226562 134.292969 C 28.335938 134.761719 28.789062 135.078125 29.269531 135.015625 Z M 29.269531 135.015625 " fill-opacity="1" fill-rule="nonzero"/></g></g></g><g clip-path="url(#b31f485446)"><g clip-path="url(#ba0adb7c7a)"><g clip-path="url(#92dcc18278)"><path fill="#38b6ff" d="M 45.109375 108.90625 L 57.78125 110.222656 C 58.050781 110.25 58.3125 110.164062 58.511719 109.984375 L 62.703125 106.175781 C 62.976562 105.925781 63.078125 105.535156 62.960938 105.179688 C 62.84375 104.824219 62.527344 104.570312 62.15625 104.53125 L 50.332031 103.304688 L 50.242188 91.417969 C 50.238281 91.042969 50.015625 90.703125 49.675781 90.554688 C 49.332031 90.402344 48.933594 90.46875 48.65625 90.71875 L 44.464844 94.523438 C 44.265625 94.703125 44.160156 94.960938 44.15625 95.230469 L 44.253906 107.96875 C 44.257812 108.453125 44.628906 108.859375 45.109375 108.90625 Z M 45.109375 108.90625 " fill-opacity="1" fill-rule="nonzero"/></g></g></g><g clip-path="url(#5d8881e845)"><g clip-path="url(#18ce8c2e33)"><g clip-path="url(#4b7d1a9a65)"><path fill="#38b6ff" d="M 54.1875 100.65625 L 66.859375 101.972656 C 67.128906 102 67.394531 101.914062 67.589844 101.734375 L 71.78125 97.925781 C 72.058594 97.675781 72.160156 97.285156 72.042969 96.929688 C 71.921875 96.574219 71.609375 96.320312 71.238281 96.28125 L 59.414062 95.054688 L 59.324219 83.167969 C 59.320312 82.792969 59.097656 82.453125 58.753906 82.304688 C 58.410156 82.152344 58.011719 82.21875 57.738281 82.46875 L 53.546875 86.273438 C 53.347656 86.457031 53.238281 86.710938 53.238281 86.980469 L 53.335938 99.71875 C 53.339844 100.203125 53.710938 100.609375 54.1875 100.65625 Z M 54.1875 100.65625 " fill-opacity="1" fill-rule="nonzero"/></g></g></g><g clip-path="url(#1eb6529aa6)"><g clip-path="url(#8919bf8e4f)"><g clip-path="url(#d13284c6a0)"><path fill="#38b6ff" d="M 75.378906 84.589844 L 87.1875 89.363281 C 87.441406 89.460938 87.71875 89.453125 87.957031 89.335938 L 93.039062 86.835938 C 93.371094 86.671875 93.578125 86.328125 93.566406 85.953125 C 93.550781 85.578125 93.316406 85.246094 92.96875 85.105469 L 81.949219 80.652344 L 85.152344 69.207031 C 85.253906 68.84375 85.136719 68.457031 84.847656 68.21875 C 84.558594 67.976562 84.160156 67.929688 83.824219 68.09375 L 78.742188 70.589844 C 78.503906 70.707031 78.328125 70.925781 78.25 71.179688 L 74.816406 83.449219 C 74.6875 83.914062 74.929688 84.410156 75.378906 84.589844 Z M 75.378906 84.589844 " fill-opacity="1" fill-rule="nonzero"/></g></g></g><g clip-path="url(#d7aaff0861)"><g clip-path="url(#6842e5c93f)"><g clip-path="url(#5f0cf79511)"><path fill="#38b6ff" d="M 86.386719 79.175781 L 98.199219 83.949219 C 98.449219 84.050781 98.726562 84.042969 98.96875 83.921875 L 104.050781 81.425781 C 104.382812 81.261719 104.589844 80.914062 104.574219 80.539062 C 104.558594 80.164062 104.328125 79.832031 103.980469 79.695312 L 92.960938 75.238281 L 96.164062 63.792969 C 96.265625 63.433594 96.144531 63.046875 95.859375 62.804688 C 95.570312 62.566406 95.167969 62.515625 94.835938 62.679688 L 89.753906 65.179688 C 89.511719 65.296875 89.335938 65.511719 89.261719 65.769531 L 85.828125 78.035156 C 85.695312 78.503906 85.941406 78.996094 86.386719 79.175781 Z M 86.386719 79.175781 " fill-opacity="1" fill-rule="nonzero"/></g></g></g><g clip-path="url(#a3a4bb5973)"><path fill="#5ce1e6" d="M 118.214844 68.148438 L 126.707031 77.640625 C 126.890625 77.84375 127.144531 77.957031 127.410156 77.957031 L 133.074219 77.957031 C 133.445312 77.957031 133.78125 77.738281 133.9375 77.394531 C 134.085938 77.050781 134.023438 76.652344 133.773438 76.375 L 125.851562 67.515625 L 133.773438 58.65625 C 134.023438 58.375 134.089844 57.976562 133.9375 57.632812 C 133.78125 57.289062 133.445312 57.070312 133.074219 57.070312 L 127.410156 57.070312 C 127.144531 57.070312 126.890625 57.1875 126.707031 57.382812 L 118.214844 66.878906 C 117.894531 67.238281 117.894531 67.789062 118.214844 68.148438 Z M 118.214844 68.148438 " fill-opacity="1" fill-rule="nonzero"/></g><g clip-path="url(#cd95e12ea2)"><path fill="#5ce1e6" d="M 130.484375 68.148438 L 138.976562 77.640625 C 139.160156 77.84375 139.410156 77.957031 139.679688 77.957031 L 145.339844 77.957031 C 145.714844 77.957031 146.050781 77.738281 146.203125 77.394531 C 146.355469 77.050781 146.292969 76.652344 146.042969 76.375 L 138.117188 67.515625 L 146.042969 58.65625 C 146.292969 58.375 146.355469 57.976562 146.203125 57.632812 C 146.050781 57.289062 145.714844 57.070312 145.339844 57.070312 L 139.679688 57.070312 C 139.410156 57.070312 139.160156 57.1875 138.976562 57.382812 L 130.484375 66.878906 C 130.160156 67.238281 130.160156 67.789062 130.484375 68.148438 Z M 130.484375 68.148438 " fill-opacity="1" fill-rule="nonzero"/></g><g clip-path="url(#1e0c20a2f0)"><g clip-path="url(#c95cd23928)"><g clip-path="url(#ae7df26b16)"><path fill="#38b6ff" d="M 154.75 67.308594 L 162.957031 77.050781 C 163.128906 77.257812 163.378906 77.378906 163.648438 77.390625 L 169.308594 77.558594 C 169.679688 77.570312 170.023438 77.359375 170.1875 77.023438 C 170.347656 76.683594 170.296875 76.28125 170.058594 75.996094 L 162.402344 66.902344 L 170.589844 58.289062 C 170.847656 58.015625 170.925781 57.617188 170.78125 57.269531 C 170.640625 56.921875 170.308594 56.691406 169.9375 56.683594 L 164.277344 56.511719 C 164.007812 56.503906 163.753906 56.613281 163.566406 56.804688 L 154.789062 66.039062 C 154.457031 66.386719 154.441406 66.9375 154.75 67.308594 Z M 154.75 67.308594 " fill-opacity="1" fill-rule="nonzero"/></g></g></g><g clip-path="url(#372c527b17)"><g clip-path="url(#4c15d50ab5)"><g clip-path="url(#9a69a9eb00)"><path fill="#38b6ff" d="M 167.015625 67.675781 L 175.21875 77.421875 C 175.394531 77.628906 175.640625 77.75 175.910156 77.757812 L 181.570312 77.929688 C 181.941406 77.941406 182.285156 77.730469 182.449219 77.394531 C 182.609375 77.054688 182.558594 76.652344 182.320312 76.367188 L 174.664062 67.273438 L 182.851562 58.65625 C 183.109375 58.386719 183.1875 57.988281 183.042969 57.640625 C 182.902344 57.292969 182.570312 57.0625 182.199219 57.050781 L 176.539062 56.878906 C 176.269531 56.871094 176.015625 56.980469 175.828125 57.171875 L 167.050781 66.40625 C 166.71875 66.757812 166.703125 67.308594 167.015625 67.675781 Z M 167.015625 67.675781 " fill-opacity="1" fill-rule="nonzero"/></g></g></g><g clip-path="url(#ac787f2bd0)"><g clip-path="url(#198350ef72)"><g clip-path="url(#5c6ccd230a)"><path fill="#5ce1e6" d="M 266.402344 67.308594 L 274.609375 77.050781 C 274.78125 77.257812 275.03125 77.378906 275.300781 77.390625 L 280.960938 77.558594 C 281.332031 77.570312 281.675781 77.359375 281.839844 77.023438 C 282 76.683594 281.949219 76.28125 281.710938 75.996094 L 274.054688 66.902344 L 282.242188 58.289062 C 282.5 58.015625 282.578125 57.617188 282.433594 57.269531 C 282.292969 56.921875 281.960938 56.691406 281.589844 56.683594 L 275.929688 56.511719 C 275.660156 56.503906 275.40625 56.613281 275.21875 56.804688 L 266.441406 66.039062 C 266.109375 66.386719 266.09375 66.9375 266.402344 67.308594 Z M 266.402344 67.308594 " fill-opacity="1" fill-rule="nonzero"/></g></g></g><g clip-path="url(#30102cd580)"><g clip-path="url(#707b44fab1)"><g clip-path="url(#1116d64e8e)"><path fill="#5ce1e6" d="M 278.667969 67.675781 L 286.871094 77.421875 C 287.046875 77.628906 287.292969 77.75 287.5625 77.757812 L 293.222656 77.929688 C 293.59375 77.941406 293.9375 77.730469 294.101562 77.394531 C 294.261719 77.054688 294.210938 76.652344 293.972656 76.367188 L 286.316406 67.273438 L 294.503906 58.65625 C 294.761719 58.386719 294.839844 57.988281 294.695312 57.640625 C 294.554688 57.292969 294.222656 57.0625 293.851562 57.050781 L 288.191406 56.878906 C 287.921875 56.871094 287.667969 56.980469 287.480469 57.171875 L 278.703125 66.40625 C 278.371094 66.757812 278.355469 67.308594 278.667969 67.675781 Z M 278.667969 67.675781 " fill-opacity="1" fill-rule="nonzero"/></g></g></g><g clip-path="url(#d51c0eee56)"><g clip-path="url(#fe3d582563)"><g clip-path="url(#ddfe3d49f3)"><path fill="#38b6ff" d="M 229.277344 67.308594 L 237.484375 77.050781 C 237.65625 77.257812 237.90625 77.378906 238.175781 77.390625 L 243.835938 77.558594 C 244.207031 77.570312 244.550781 77.359375 244.714844 77.023438 C 244.875 76.683594 244.824219 76.28125 244.585938 75.996094 L 236.929688 66.902344 L 245.117188 58.289062 C 245.375 58.015625 245.453125 57.617188 245.308594 57.269531 C 245.167969 56.921875 244.835938 56.691406 244.464844 56.683594 L 238.804688 56.511719 C 238.535156 56.503906 238.28125 56.613281 238.09375 56.804688 L 229.316406 66.039062 C 228.984375 66.386719 228.96875 66.9375 229.277344 67.308594 Z M 229.277344 67.308594 " fill-opacity="1" fill-rule="nonzero"/></g></g></g><g clip-path="url(#4c0283085e)"><g clip-path="url(#77839904a4)"><g clip-path="url(#46750d2469)"><path fill="#38b6ff" d="M 241.542969 67.675781 L 249.746094 77.421875 C 249.921875 77.628906 250.167969 77.75 250.4375 77.757812 L 256.097656 77.929688 C 256.46875 77.941406 256.8125 77.730469 256.976562 77.394531 C 257.136719 77.054688 257.085938 76.652344 256.847656 76.367188 L 249.191406 67.273438 L 257.378906 58.65625 C 257.636719 58.386719 257.714844 57.988281 257.570312 57.640625 C 257.429688 57.292969 257.097656 57.0625 256.726562 57.050781 L 251.066406 56.878906 C 250.796875 56.871094 250.542969 56.980469 250.355469 57.171875 L 241.578125 66.40625 C 241.246094 66.757812 241.230469 67.308594 241.542969 67.675781 Z M 241.542969 67.675781 " fill-opacity="1" fill-rule="nonzero"/></g></g></g><g clip-path="url(#24ce05f59d)"><g clip-path="url(#784f31d718)"><g clip-path="url(#45c418a8ae)"><path fill="#38b6ff" d="M 192.761719 67.308594 L 200.964844 77.050781 C 201.140625 77.257812 201.390625 77.378906 201.660156 77.390625 L 207.316406 77.558594 C 207.691406 77.570312 208.035156 77.359375 208.199219 77.023438 C 208.359375 76.683594 208.308594 76.28125 208.066406 75.996094 L 200.414062 66.902344 L 208.601562 58.289062 C 208.859375 58.015625 208.933594 57.617188 208.792969 57.269531 C 208.648438 56.921875 208.320312 56.691406 207.945312 56.683594 L 202.289062 56.511719 C 202.019531 56.503906 201.761719 56.613281 201.574219 56.804688 L 192.800781 66.039062 C 192.46875 66.386719 192.449219 66.9375 192.761719 67.308594 Z M 192.761719 67.308594 " fill-opacity="1" fill-rule="nonzero"/></g></g></g><g clip-path="url(#ba4e2c8f44)"><g clip-path="url(#9f6a20abf9)"><g clip-path="url(#0ec832bef9)"><path fill="#38b6ff" d="M 205.023438 67.675781 L 213.230469 77.421875 C 213.402344 77.628906 213.652344 77.75 213.921875 77.757812 L 219.582031 77.929688 C 219.953125 77.941406 220.296875 77.730469 220.460938 77.394531 C 220.621094 77.054688 220.570312 76.652344 220.332031 76.367188 L 212.675781 67.273438 L 220.863281 58.65625 C 221.121094 58.386719 221.199219 57.988281 221.054688 57.640625 C 220.914062 57.292969 220.582031 57.0625 220.210938 57.050781 L 214.550781 56.878906 C 214.28125 56.871094 214.027344 56.980469 213.839844 57.171875 L 205.0625 66.40625 C 204.730469 66.757812 204.714844 67.308594 205.023438 67.675781 Z M 205.023438 67.675781 " fill-opacity="1" fill-rule="nonzero"/></g></g></g></svg>