<svg xmlns="http://www.w3.org/2000/svg" width="450" viewBox="0 0 337.5 375" height="500" version="1.0"><defs><clipPath id="prefix__a"><path d="M0 52.777h303.75V323H0zm0 0"/></clipPath><clipPath id="prefix__b"><path d="M7.918 142.824C3.137 156.668 0 172.406 0 187.852c0 15.445 2.688 30.304 7.469 44.003.152.29.152.583.3.875 19.122 51.434 69.622 89.317 127.887 90.047H303.75v-270H135.781C77.094 53.504 26.594 90.81 7.918 142.824"/></clipPath><clipPath id="prefix__c"><path d="M0 52.777h303.75v270H0zm0 0"/></clipPath><clipPath id="prefix__d"><path d="M7.918 142.824C3.137 156.668 0 172.406 0 187.852c0 15.445 2.688 30.304 7.469 44.003.152.29.152.583.3.875 19.122 51.434 69.622 89.317 127.887 90.047H303.75v-270H135.781C77.094 53.504 26.594 90.81 7.918 142.824"/></clipPath><clipPath id="prefix__e"><path d="M34 77h217v217H34zm0 0"/></clipPath><clipPath id="prefix__f"><path d="M289.543 228.258L100.059 332.547-4.231 143.062 185.255 38.773zm0 0"/></clipPath><clipPath id="prefix__g"><path d="M194.926 280.336c52.258-28.762 71.304-94.438 42.543-146.691-28.762-52.258-94.438-71.301-146.692-42.543-52.254 28.761-71.3 94.437-42.539 146.691 28.758 52.254 94.434 71.3 146.688 42.543"/></clipPath><clipPath id="prefix__h"><path d="M34 77h217v217H34zm0 0"/></clipPath><clipPath id="prefix__i"><path d="M289.543 228.258L100.313 332.41-3.84 143.176 185.395 39.027zm0 0"/></clipPath><clipPath id="prefix__j"><path d="M289.543 228.258L97.637 333.883-7.988 141.973l191.91-105.621zm0 0"/></clipPath><clipPath id="prefix__k"><path d="M194.926 280.336c52.258-28.762 71.304-94.438 42.543-146.691-28.762-52.258-94.438-71.301-146.692-42.543-52.254 28.761-71.3 94.437-42.539 146.691 28.758 52.254 94.434 71.3 146.688 42.543"/></clipPath><clipPath id="prefix__l"><path d="M154 210h32v38h-32zm0 0"/></clipPath><clipPath id="prefix__m"><path d="M185.574 238.344l-15.687 9.156-16.09-27.57 15.687-9.157zm0 0"/></clipPath><clipPath id="prefix__n"><path d="M185.574 238.344L170.23 247.3l-15.992-27.403 15.344-8.957zm0 0"/></clipPath><clipPath id="prefix__o"><path d="M80 177h33v19H80zm0 0"/></clipPath><clipPath id="prefix__p"><path d="M112.617 178.063l-.117 18.164-31.922-.2.113-18.164zm0 0"/></clipPath><clipPath id="prefix__q"><path d="M112.617 178.063l-.113 17.769-31.727-.2.11-17.769zm0 0"/></clipPath><clipPath id="prefix__r"><path d="M96 144h74v86H96zm0 0"/></clipPath><clipPath id="prefix__s"><path d="M133.332 123.395l73.79 42.59-36.99 64.077-73.788-42.59zm0 0"/></clipPath><clipPath id="prefix__t"><path d="M169.945 144.523l-.02 84.594-73.222-42.265 73.242-42.329"/></clipPath><clipPath id="prefix__u"><path d="M150 133h32v37h-32zm0 0"/></clipPath><clipPath id="prefix__v"><path d="M166.191 133.242l15.73 9.082-15.956 27.649-15.73-9.078zm0 0"/></clipPath><clipPath id="prefix__w"><path d="M166.191 133.242l15.387 8.883-15.86 27.48-15.386-8.882zm0 0"/></clipPath><clipPath id="prefix__x"><path d="M156 92h56v56h-56zm0 0"/></clipPath><clipPath id="prefix__y"><path d="M145.95 129.191l28.91-47.523 47.519 28.91-28.906 47.52zm0 0"/></clipPath><clipPath id="prefix__z"><path d="M160.406 105.43c-7.984 13.12-3.816 30.23 9.305 38.215 13.121 7.98 30.23 3.816 38.215-9.31 7.98-13.12 3.816-30.23-9.309-38.21-13.12-7.984-30.23-3.816-38.21 9.305"/></clipPath><clipPath id="prefix__A"><path d="M156 92h56v56h-56zm0 0"/></clipPath><clipPath id="prefix__B"><path d="M145.95 129.191l28.843-47.418 47.418 28.844-28.844 47.418zm0 0"/></clipPath><clipPath id="prefix__C"><path d="M145.95 129.191l28.843-47.418 47.418 28.844-28.844 47.418zm0 0"/></clipPath><clipPath id="prefix__D"><path d="M160.371 105.48c-7.965 13.094-3.805 30.168 9.29 38.133 13.093 7.965 30.163 3.805 38.128-9.285 7.965-13.094 3.809-30.168-9.285-38.133-13.094-7.965-30.164-3.808-38.133 9.285"/></clipPath><clipPath id="prefix__E"><path d="M38 159h57v56H38zm0 0"/></clipPath><clipPath id="prefix__F"><path d="M38.914 159.023l55.621.016-.012 55.621-55.625-.015zm0 0"/></clipPath><clipPath id="prefix__G"><path d="M66.727 159.031c-15.36-.004-27.817 12.442-27.82 27.801-.005 15.36 12.445 27.816 27.804 27.82 15.36.004 27.812-12.445 27.816-27.804.008-15.36-12.441-27.813-27.8-27.817"/></clipPath><clipPath id="prefix__H"><path d="M38 159h57v56H38zm0 0"/></clipPath><clipPath id="prefix__I"><path d="M38.914 159.023l55.5.016-.016 55.5-55.5-.016zm0 0"/></clipPath><clipPath id="prefix__J"><path d="M38.914 159.023l55.5.016-.016 55.5-55.5-.016zm0 0"/></clipPath><clipPath id="prefix__K"><path d="M66.664 159.031c-15.324-.004-27.754 12.414-27.758 27.742-.004 15.325 12.418 27.754 27.742 27.758 15.329.004 27.754-12.418 27.758-27.742.004-15.328-12.414-27.754-27.742-27.758"/></clipPath><clipPath id="prefix__L"><path d="M154 223h57v57h-57zm0 0"/></clipPath><clipPath id="prefix__M"><path d="M144.477 260.883l28.906-47.52 47.52 28.91-28.907 47.52zm0 0"/></clipPath><clipPath id="prefix__N"><path d="M158.93 237.125c-7.985 13.121-3.817 30.23 9.304 38.215 13.125 7.98 30.235 3.816 38.215-9.309 7.985-13.12 3.817-30.23-9.304-38.215-13.125-7.98-30.235-3.812-38.215 9.309"/></clipPath><clipPath id="prefix__O"><path d="M154 223h57v57h-57zm0 0"/></clipPath><clipPath id="prefix__P"><path d="M144.477 260.883l28.843-47.414 47.414 28.844-28.843 47.417zm0 0"/></clipPath><clipPath id="prefix__Q"><path d="M144.477 260.883l28.843-47.414 47.414 28.844-28.843 47.417zm0 0"/></clipPath><clipPath id="prefix__R"><path d="M158.898 237.176c-7.964 13.094-3.808 30.164 9.286 38.133 13.093 7.964 30.164 3.804 38.129-9.29 7.964-13.093 3.808-30.164-9.286-38.128-13.093-7.965-30.164-3.809-38.129 9.285"/></clipPath><clipPath id="prefix__S"><path d="M177 112h15v15h-15zm0 0"/></clipPath><clipPath id="prefix__T"><path d="M181.605 110.352l12.09 6.976-6.98 12.09-12.09-6.977zm0 0"/></clipPath><clipPath id="prefix__U"><path d="M187.648 113.84a6.98 6.98 0 10-6.975 12.092 6.98 6.98 0 006.975-12.092"/></clipPath><clipPath id="prefix__V"><path d="M59 179h15v15H59zm0 0"/></clipPath><clipPath id="prefix__W"><path d="M73.695 179.86l-.004 13.96-13.96-.004.003-13.96zm0 0"/></clipPath><clipPath id="prefix__X"><path d="M73.691 186.84a6.974 6.974 0 00-6.976-6.98 6.977 6.977 0 00-6.98 6.976 6.977 6.977 0 006.976 6.98 6.974 6.974 0 006.98-6.976"/></clipPath><clipPath id="prefix__Y"><path d="M176 244h15v15h-15zm0 0"/></clipPath><clipPath id="prefix__Z"><path d="M181.02 241.508l12.09 6.976-6.981 12.09-12.09-6.976zm0 0"/></clipPath><clipPath id="prefix__aa"><path d="M187.063 244.996a6.985 6.985 0 00-9.536 2.555 6.981 6.981 0 002.559 9.535 6.973 6.973 0 009.531-2.555 6.977 6.977 0 00-2.554-9.535"/></clipPath><clipPath id="prefix__ab"><path d="M202 164h14v48h-14zm0 0"/></clipPath><clipPath id="prefix__ac"><path d="M205.012 211.547l-4.172-47.063 13.45-1.195 4.17 47.066zm0 0"/></clipPath><clipPath id="prefix__ad"><path d="M205.012 211.547l-4.172-47.063 13.45-1.195 4.17 47.066zm0 0"/></clipPath><clipPath id="prefix__ae"><path d="M205.012 211.547l-4.172-47.063 13.45-1.195 4.17 47.066zm0 0"/></clipPath><clipPath id="prefix__af"><path d="M210 203h1v1h-1zm0 0"/></clipPath><clipPath id="prefix__ag"><path d="M205.012 211.547l-4.172-47.063 13.45-1.195 4.17 47.066zm0 0"/></clipPath><clipPath id="prefix__ah"><path d="M205.012 211.547l-4.172-47.063 13.45-1.195 4.17 47.066zm0 0"/></clipPath><clipPath id="prefix__ai"><path d="M205.012 211.547l-4.172-47.063 13.45-1.195 4.17 47.066zm0 0"/></clipPath><clipPath id="prefix__aj"><path d="M94 228h40v31H94zm0 0"/></clipPath><clipPath id="prefix__ak"><path d="M95.02 227.531l40.89 23.68-6.765 11.684-40.891-23.68zm0 0"/></clipPath><clipPath id="prefix__al"><path d="M95.02 227.531l40.89 23.68-6.765 11.684-40.891-23.68zm0 0"/></clipPath><clipPath id="prefix__am"><path d="M95.02 227.531l40.89 23.68-6.765 11.684-40.891-23.68zm0 0"/></clipPath><clipPath id="prefix__an"><path d="M98 236h1v1h-1zm0 0"/></clipPath><clipPath id="prefix__ao"><path d="M95.02 227.531l40.89 23.68-6.765 11.684-40.891-23.68zm0 0"/></clipPath><clipPath id="prefix__ap"><path d="M95.02 227.531l40.89 23.68-6.765 11.684-40.891-23.68zm0 0"/></clipPath><clipPath id="prefix__aq"><path d="M95.02 227.531l40.89 23.68-6.765 11.684-40.891-23.68zm0 0"/></clipPath><clipPath id="prefix__ar"><path d="M89 120h45v23H89zm0 0"/></clipPath><clipPath id="prefix__as"><path d="M134.14 125.59L91.38 145.687l-5.742-12.214 42.761-20.102zm0 0"/></clipPath><clipPath id="prefix__at"><path d="M134.14 125.59L91.38 145.687l-5.742-12.214 42.761-20.102zm0 0"/></clipPath><clipPath id="prefix__au"><path d="M134.14 125.59L91.38 145.687l-5.742-12.214 42.761-20.102zm0 0"/></clipPath><clipPath id="prefix__av"><path d="M124 123h2v1h-2zm0 0"/></clipPath><clipPath id="prefix__aw"><path d="M134.14 125.59L91.38 145.687l-5.742-12.214 42.761-20.102zm0 0"/></clipPath><clipPath id="prefix__ax"><path d="M134.14 125.59L91.38 145.687l-5.742-12.214 42.761-20.102zm0 0"/></clipPath><clipPath id="prefix__ay"><path d="M134.14 125.59L91.38 145.687l-5.742-12.214 42.761-20.102zm0 0"/></clipPath><clipPath id="prefix__az"><path d="M278 297.129h17v21h-17zm0 0"/></clipPath><clipPath id="prefix__aA"><path d="M266.625 297.129H283v21h-16.375zm0 0"/></clipPath><clipPath id="prefix__aB"><path d="M241 297.129h17v21h-17zm0 0"/></clipPath><clipPath id="prefix__aC"><path d="M229.5 297.129H246v21h-16.5zm0 0"/></clipPath><clipPath id="prefix__aD"><path d="M204 297.129h16.875v21H204zm0 0"/></clipPath><clipPath id="prefix__aE"><path d="M192.375 297.129H209v21h-16.625zm0 0"/></clipPath><clipPath id="prefix__aF"><path d="M167 297.129h16.75v21H167zm0 0"/></clipPath><clipPath id="prefix__aG"><path d="M155.25 297.129H172v21h-16.75zm0 0"/></clipPath><clipPath id="prefix__aH"><path d="M130 297h17v22h-17zm0 0"/></clipPath><clipPath id="prefix__aI"><path d="M117.945 297.379l28.496-.504.371 20.996-28.496.504zm0 0"/></clipPath><clipPath id="prefix__aJ"><path d="M117.945 297.379l28.496-.504.371 20.996-28.496.504zm0 0"/></clipPath><clipPath id="prefix__aK"><path d="M117 297h18v22h-18zm0 0"/></clipPath><clipPath id="prefix__aL"><path d="M117.945 297.379l28.496-.504.371 20.996-28.496.504zm0 0"/></clipPath><clipPath id="prefix__aM"><path d="M117.945 297.379l28.496-.504.371 20.996-28.496.504zm0 0"/></clipPath><clipPath id="prefix__aN"><path d="M80 284h20v22H80zm0 0"/></clipPath><clipPath id="prefix__aO"><path d="M81.105 277.734l23.989 15.387-11.336 17.676-23.992-15.387zm0 0"/></clipPath><clipPath id="prefix__aP"><path d="M81.105 277.734l23.989 15.387-11.336 17.676-23.992-15.387zm0 0"/></clipPath><clipPath id="prefix__aQ"><path d="M70 278h20v22H70zm0 0"/></clipPath><clipPath id="prefix__aR"><path d="M81.105 277.734l23.989 15.387-11.336 17.676-23.992-15.387zm0 0"/></clipPath><clipPath id="prefix__aS"><path d="M81.105 277.734l23.989 15.387-11.336 17.676-23.992-15.387zm0 0"/></clipPath><clipPath id="prefix__aT"><path d="M42 264h20v21H42zm0 0"/></clipPath><clipPath id="prefix__aU"><path d="M48.059 255.742l20.527 19.77-14.566 15.125-20.528-19.77zm0 0"/></clipPath><clipPath id="prefix__aV"><path d="M48.059 255.742l20.527 19.77-14.566 15.125-20.528-19.77zm0 0"/></clipPath><clipPath id="prefix__aW"><path d="M33 256h21v20H33zm0 0"/></clipPath><clipPath id="prefix__aX"><path d="M48.059 255.742l20.527 19.77-14.566 15.125-20.528-19.77zm0 0"/></clipPath><clipPath id="prefix__aY"><path d="M48.059 255.742l20.527 19.77-14.566 15.125-20.528-19.77zm0 0"/></clipPath><clipPath id="prefix__aZ"><path d="M19 232h22v19H19zm0 0"/></clipPath><clipPath id="prefix__ba"><path d="M31.219 221.023l14.32 24.641-18.152 10.555-14.325-24.64zm0 0"/></clipPath><clipPath id="prefix__bb"><path d="M31.219 221.023l14.32 24.641-18.152 10.555-14.325-24.64zm0 0"/></clipPath><clipPath id="prefix__bc"><path d="M13 221h22v20H13zm0 0"/></clipPath><clipPath id="prefix__bd"><path d="M31.219 221.023l14.32 24.641-18.152 10.555-14.325-24.64zm0 0"/></clipPath><clipPath id="prefix__be"><path d="M31.219 221.023l14.32 24.641-18.152 10.555-14.325-24.64zm0 0"/></clipPath><clipPath id="prefix__bf"><path d="M8.879 184h21v16.438h-21zm0 0"/></clipPath><clipPath id="prefix__bg"><path d="M8.879 171.938h21V188h-21zm0 0"/></clipPath><clipPath id="prefix__bh"><path d="M18 126h21v20H18zm0 0"/></clipPath><clipPath id="prefix__bi"><path d="M46.379 127.648l-16.234 23.426-17.262-11.965 16.234-23.422zm0 0"/></clipPath><clipPath id="prefix__bj"><path d="M46.379 127.648l-16.234 23.426-17.262-11.965 16.234-23.422zm0 0"/></clipPath><clipPath id="prefix__bk"><path d="M25 116h21v20H25zm0 0"/></clipPath><clipPath id="prefix__bl"><path d="M46.379 127.648l-16.234 23.426-17.262-11.965 16.234-23.422zm0 0"/></clipPath><clipPath id="prefix__bm"><path d="M46.379 127.648l-16.234 23.426-17.262-11.965 16.234-23.422zm0 0"/></clipPath><clipPath id="prefix__bn"><path d="M44 90h20v21H44zm0 0"/></clipPath><clipPath id="prefix__bo"><path d="M72.52 97.332L51.426 116.5l-14.121-15.543 21.093-19.168zm0 0"/></clipPath><clipPath id="prefix__bp"><path d="M72.52 97.332L51.426 116.5l-14.121-15.543 21.093-19.168zm0 0"/></clipPath><clipPath id="prefix__bq"><path d="M53 82h20v20H53zm0 0"/></clipPath><clipPath id="prefix__br"><path d="M72.52 97.332L51.426 116.5l-14.121-15.543 21.093-19.168zm0 0"/></clipPath><clipPath id="prefix__bs"><path d="M72.52 97.332L51.426 116.5l-14.121-15.543 21.093-19.168zm0 0"/></clipPath><clipPath id="prefix__bt"><path d="M74 67h20v23H74zm0 0"/></clipPath><clipPath id="prefix__bu"><path d="M104.922 81.059L79.344 93.633l-9.266-18.848 25.578-12.57zm0 0"/></clipPath><clipPath id="prefix__bv"><path d="M104.922 81.059L79.344 93.633l-9.266-18.848 25.578-12.57zm0 0"/></clipPath><clipPath id="prefix__bw"><path d="M85 62h20v23H85zm0 0"/></clipPath><clipPath id="prefix__bx"><path d="M104.922 81.059L79.344 93.633l-9.266-18.848 25.578-12.57zm0 0"/></clipPath><clipPath id="prefix__by"><path d="M104.922 81.059L79.344 93.633l-9.266-18.848 25.578-12.57zm0 0"/></clipPath><clipPath id="prefix__bz"><path d="M117.785 57.012H135V78h-17.215zm0 0"/></clipPath><clipPath id="prefix__bA"><path d="M130 57.012h16.285V78H130zm0 0"/></clipPath><clipPath id="prefix__bB"><path d="M154 56h17v22h-17zm0 0"/></clipPath><clipPath id="prefix__bC"><path d="M182.512 78.012l-28.489-.856.633-20.992 28.489.86zm0 0"/></clipPath><clipPath id="prefix__bD"><path d="M182.512 78.012l-28.489-.856.633-20.992 28.489.86zm0 0"/></clipPath><clipPath id="prefix__bE"><path d="M166 56h18v22h-18zm0 0"/></clipPath><clipPath id="prefix__bF"><path d="M182.512 78.012l-28.489-.856.633-20.992 28.489.86zm0 0"/></clipPath><clipPath id="prefix__bG"><path d="M182.512 78.012l-28.489-.856.633-20.992 28.489.86zm0 0"/></clipPath><clipPath id="prefix__bH"><path d="M266 56h17v22h-17zm0 0"/></clipPath><clipPath id="prefix__bI"><path d="M294.164 78.012l-28.488-.856.633-20.992 28.488.86zm0 0"/></clipPath><clipPath id="prefix__bJ"><path d="M294.164 78.012l-28.488-.856.633-20.992 28.488.86zm0 0"/></clipPath><clipPath id="prefix__bK"><path d="M278 56h17v22h-17zm0 0"/></clipPath><clipPath id="prefix__bL"><path d="M294.164 78.012l-28.488-.856.633-20.992 28.488.86zm0 0"/></clipPath><clipPath id="prefix__bM"><path d="M294.164 78.012l-28.488-.856.633-20.992 28.488.86zm0 0"/></clipPath><clipPath id="prefix__bN"><path d="M229 56h17v22h-17zm0 0"/></clipPath><clipPath id="prefix__bO"><path d="M257.04 78.012l-28.49-.856.634-20.992 28.488.86zm0 0"/></clipPath><clipPath id="prefix__bP"><path d="M257.04 78.012l-28.49-.856.634-20.992 28.488.86zm0 0"/></clipPath><clipPath id="prefix__bQ"><path d="M241 56h17v22h-17zm0 0"/></clipPath><clipPath id="prefix__bR"><path d="M257.04 78.012l-28.49-.856.634-20.992 28.488.86zm0 0"/></clipPath><clipPath id="prefix__bS"><path d="M257.04 78.012l-28.49-.856.634-20.992 28.488.86zm0 0"/></clipPath><clipPath id="prefix__bT"><path d="M192 56h17v22h-17zm0 0"/></clipPath><clipPath id="prefix__bU"><path d="M220.523 78.012l-28.488-.856.633-20.992 28.488.86zm0 0"/></clipPath><clipPath id="prefix__bV"><path d="M220.523 78.012l-28.488-.856.633-20.992 28.488.86zm0 0"/></clipPath><clipPath id="prefix__bW"><path d="M204 56h18v22h-18zm0 0"/></clipPath><clipPath id="prefix__bX"><path d="M220.523 78.012l-28.488-.856.633-20.992 28.488.86zm0 0"/></clipPath><clipPath id="prefix__bY"><path d="M220.523 78.012l-28.488-.856.633-20.992 28.488.86zm0 0"/></clipPath></defs><g clip-path="url(#prefix__a)"><g clip-path="url(#prefix__b)"><path fill="#737373" d="M303.75 52.777V323.04H-.133V52.777zm0 0"/></g></g><g clip-path="url(#prefix__c)"><g clip-path="url(#prefix__d)"><path fill="none" d="M7.918 142.824C3.137 156.668 0 172.406 0 187.852c0 15.445 2.687 30.304 7.469 44.003.152.29.152.583.3.875 19.122 51.434 69.622 89.317 127.887 90.047H303.75v-270H135.781C77.094 53.504 26.594 90.81 7.918 142.824" stroke="#000" stroke-width="3"/></g></g><g clip-path="url(#prefix__e)"><g clip-path="url(#prefix__f)"><g clip-path="url(#prefix__g)"><path fill="#a6a6a6" d="M289.543 228.258l-189 104.023-104.023-189 189-104.023zm0 0"/></g></g></g><g clip-path="url(#prefix__h)"><g clip-path="url(#prefix__i)"><g clip-path="url(#prefix__j)"><g clip-path="url(#prefix__k)"><path fill="none" d="M194.926 280.336c52.258-28.762 71.304-94.438 42.543-146.691-28.762-52.258-94.438-71.301-146.692-42.543-52.254 28.761-71.3 94.437-42.539 146.691 28.758 52.254 94.434 71.3 146.688 42.543" stroke="#000" stroke-width="6"/></g></g></g></g><g clip-path="url(#prefix__l)"><g clip-path="url(#prefix__m)"><g clip-path="url(#prefix__n)"><path fill="#ffde59" d="M185.574 238.344l-15.21 8.879-16.094-27.57 15.214-8.88zm0 0"/></g></g></g><g clip-path="url(#prefix__o)"><g clip-path="url(#prefix__p)"><g clip-path="url(#prefix__q)"><path fill="#ffde59" d="M112.617 178.063l-.113 17.613-31.922-.2.11-17.613zm0 0"/></g></g></g><g clip-path="url(#prefix__r)"><g clip-path="url(#prefix__s)"><g clip-path="url(#prefix__t)"><path fill="#ffde59" d="M133.332 123.395l73.14 42.214-36.613 63.434-73.14-42.219zm0 0"/></g></g></g><g clip-path="url(#prefix__u)"><g clip-path="url(#prefix__v)"><g clip-path="url(#prefix__w)"><path fill="#ffde59" d="M166.191 133.242l15.254 8.805-15.957 27.652-15.254-8.804zm0 0"/></g></g></g><g clip-path="url(#prefix__x)"><g clip-path="url(#prefix__y)"><g clip-path="url(#prefix__z)"><path fill="#ffde59" d="M145.95 129.191l28.91-47.523 47.519 28.91-28.906 47.52zm0 0"/></g></g></g><g clip-path="url(#prefix__A)"><g clip-path="url(#prefix__B)"><g clip-path="url(#prefix__C)"><g clip-path="url(#prefix__D)"><path d="M162.93 107.04c-2.887 4.741-4.047 9.87-3.48 15.378l-5.954.613c-.707-6.844.734-13.21 4.32-19.105zm-3.063 18.019c1.156 5.433 3.828 9.957 8.008 13.566l-3.914 4.531c-5.195-4.484-8.512-10.101-9.95-16.847zm10.117 15.199c.403.277.813.543 1.23.797 4.294 2.613 8.942 3.808 13.938 3.586l.266 5.98c-6.211.277-11.984-1.207-17.316-4.453a29.662 29.662 0 01-1.52-.984zm17.832 4.12c5.496-.843 10.168-3.245 14.016-7.21l4.297 4.168c-4.781 4.93-10.582 7.914-17.402 8.96zm15.762-9.214a25.014 25.014 0 001.652-2.394c2.344-3.852 3.547-8.02 3.61-12.504l5.984.082c-.074 5.574-1.566 10.75-4.476 15.535a31.227 31.227 0 01-2.051 2.965zm5.152-17.566c-.52-5.532-2.648-10.332-6.378-14.407l4.418-4.043c4.632 5.059 7.273 11.024 7.921 17.887zm-8.289-16.278a24.68 24.68 0 00-3.496-2.566c-3.414-2.078-7.105-3.262-11.062-3.547l.43-5.973c4.921.356 9.503 1.825 13.746 4.403 1.543.941 2.988 2 4.336 3.183zm-17.226-6.16c-5.55.2-10.469 2.043-14.758 5.531l-3.777-4.644c5.324-4.332 11.433-6.621 18.32-6.871zm-16.738 7.328a24.845 24.845 0 00-3.547 4.551l-5.114-3.113a30.895 30.895 0 014.399-5.645zm0 0"/></g></g></g></g><g clip-path="url(#prefix__E)"><g clip-path="url(#prefix__F)"><g clip-path="url(#prefix__G)"><path fill="#ffde59" d="M38.914 159.023l55.621.016-.012 55.621-55.625-.015zm0 0"/></g></g></g><g clip-path="url(#prefix__H)"><g clip-path="url(#prefix__I)"><g clip-path="url(#prefix__J)"><g clip-path="url(#prefix__K)"><path d="M66.664 162.023c-5.555 0-10.539 1.672-14.95 5.016l-3.616-4.77c5.48-4.156 11.672-6.234 18.566-6.234zm-16.992 6.747c-4.04 3.812-6.52 8.44-7.43 13.886l-5.906-.988c1.137-6.77 4.21-12.523 9.23-17.254zm-7.727 16.539c-.03.488-.043.976-.043 1.464-.004 5.028 1.391 9.618 4.176 13.774l-4.973 3.336c-3.464-5.168-5.195-10.871-5.19-17.11 0-.609.015-1.21.05-1.812zm5.742 17.379c3.575 4.257 8.055 7 13.442 8.23l-1.332 5.836c-6.692-1.524-12.258-4.93-16.695-10.219zm16.06 8.68c.96.112 1.929.167 2.901.167 4.512.004 8.7-1.137 12.559-3.41l3.043 5.156c-4.8 2.832-10 4.246-15.602 4.242-1.207 0-2.406-.07-3.597-.21zm17.687-4.723c4.453-3.317 7.453-7.63 8.996-12.934l5.75 1.672c-1.918 6.59-5.64 11.945-11.172 16.066zm9.605-15.54c.25-1.421.375-2.859.375-4.32 0-4-.906-7.762-2.719-11.293l5.328-2.734c2.254 4.387 3.38 9.066 3.38 14.031a31.052 31.052 0 01-.47 5.356zm-3.687-17.917c-3.055-4.641-7.188-7.887-12.395-9.739l2.008-5.64c6.469 2.3 11.597 6.328 15.387 12.086zM72.39 162.69a24.657 24.657 0 00-5.727-.668v-5.988c2.414.004 4.781.278 7.11.828zm0 0"/></g></g></g></g><g clip-path="url(#prefix__L)"><g clip-path="url(#prefix__M)"><g clip-path="url(#prefix__N)"><path fill="#ffde59" d="M144.477 260.883l28.906-47.52 47.52 28.91-28.907 47.52zm0 0"/></g></g></g><g clip-path="url(#prefix__O)"><g clip-path="url(#prefix__P)"><g clip-path="url(#prefix__Q)"><g clip-path="url(#prefix__R)"><path d="M161.457 238.734c-2.887 4.743-4.047 9.871-3.48 15.38l-5.957.613c-.704-6.844.734-13.215 4.32-19.106zm-3.066 18.02c1.16 5.433 3.828 9.957 8.007 13.566l-3.91 4.532c-5.199-4.485-8.515-10.102-9.953-16.852zm10.12 15.2c.4.276.81.542 1.227.796 4.297 2.613 8.942 3.809 13.942 3.586l.265 5.98c-6.215.278-11.984-1.207-17.316-4.453a30.735 30.735 0 01-1.524-.984zm17.833 4.116c5.496-.84 10.168-3.242 14.015-7.207l4.297 4.168c-4.781 4.926-10.586 7.914-17.406 8.961zm15.758-9.21a24.116 24.116 0 001.652-2.395c2.348-3.852 3.547-8.02 3.61-12.504l5.988.082c-.079 5.57-1.57 10.75-4.48 15.535a31.227 31.227 0 01-2.052 2.965zm5.156-17.567c-.524-5.531-2.649-10.336-6.38-14.406l4.415-4.043c4.637 5.058 7.277 11.023 7.926 17.886zm-8.29-16.277a24.905 24.905 0 00-3.495-2.567c-3.418-2.078-7.106-3.262-11.067-3.547l.434-5.972c4.922.355 9.5 1.824 13.742 4.402 1.543.941 2.988 2 4.336 3.184zm-17.226-6.16c-5.55.199-10.472 2.042-14.762 5.53l-3.777-4.644c5.328-4.332 11.434-6.625 18.32-6.87zM165 234.183a24.657 24.657 0 00-3.543 4.55l-5.117-3.113a30.895 30.895 0 014.398-5.644zm0 0"/></g></g></g></g><g clip-path="url(#prefix__S)"><g clip-path="url(#prefix__T)"><g clip-path="url(#prefix__U)"><path fill="#707070" d="M181.605 110.352l12.09 6.976-6.98 12.09-12.09-6.977zm0 0"/></g></g></g><g clip-path="url(#prefix__V)"><g clip-path="url(#prefix__W)"><g clip-path="url(#prefix__X)"><path fill="#707070" d="M73.695 179.86l-.004 13.96-13.96-.004.003-13.96zm0 0"/></g></g></g><g clip-path="url(#prefix__Y)"><g clip-path="url(#prefix__Z)"><g clip-path="url(#prefix__aa)"><path fill="#707070" d="M181.02 241.508l12.09 6.976-6.981 12.09-12.09-6.976zm0 0"/></g></g></g><g clip-path="url(#prefix__ab)"><g clip-path="url(#prefix__ac)"><g clip-path="url(#prefix__ad)"><g clip-path="url(#prefix__ae)"><path fill="#fff" d="M205.336 210.758a.11.11 0 00.11 0c.117.086.054.308.257.328.348.289.664.14.969-.078.855-.61 1.594-1.344 2.285-2.121 2.48-2.797 4.254-5.969 5.48-9.489 2.141-6.14 1.97-12.265.114-18.398-.86-2.844-2.207-5.484-3.676-8.063-.863-1.515-1.816-2.972-2.738-4.457-.055-.039-.114-.074-.168-.113-.012-.078-.043-.16-.024-.226h.004c.02-.051.09-.024.125.027.645.246 1.211.621 1.762 1.023.375.274.762.516 1.215.637.804.598 1.605.55 2.246-.101-.883-1.786-2.465-2.782-4.156-3.665-.633-.328-1.235-.699-1.848-1.058-1.461-.863-1.3-.656-2.52 0a2.85 2.85 0 00-.714.586c-.079.082-.141.168-.133.289-.301.184-.278.476-.242.762.105.843.222 1.687.34 2.53-.087.188-.04.368.015.552-.09.183-.039.367.004.547-.086.12-.04.257-.047.386-.09 1.746-.379 3.453-.965 5.11-.043.125-.074.254-.113.379-.047.148-.102.32.047.421.11.079.297.04.375-.046.355-.372.883-.47 1.254-.801.168-.145.261-.348.351-.551.703-1.59 1.102-3.254 1.328-4.965.024-.156.02-.312.07-.457.06-.168.2-.133.329-.062-.004.175.078.293.238.359.028.16.063.312.242.383-.015.039 0 .066.043.074.02.152.067.293.227.363.035.102.058.211.113.305.594 1.027 1.203 2.043 1.781 3.078.528.938 1.024 1.89 1.532 2.836.105.266.199.535.312.797 1.09 2.539 1.856 5.172 2.219 7.91.129.98.226 1.961.34 2.941-.09.196-.031.383.027.575-.094.183-.039.363.012.547-.098.168-.035.34 0 .507-.078.11-.063.22-.012.328a.094.094 0 00.008.118c-.082.117-.04.254-.047.379-.055.632.008 1.265-.125 1.89.059.051.098.227.172 0 .05-.152.094-.164.137-.129.035.032.066.102.097.153-.23 1.98-.699 3.914-1.293 5.816-.074.172-.144.344-.215.516l-1.289 3.078a.152.152 0 00-.078.086c-.008.027-.011.054-.008.082a.16.16 0 00-.085.168c-.067.035-.094.094-.086.168-.07.035-.098.09-.086.168-.07.035-.102.09-.09.164-.07.035-.098.09-.086.164l-.004.004c-.07.031-.098.086-.086.16l-.004.004c-.031.05-.062.101-.09.16l-.004.004c-.07.031-.101.082-.09.16l-.003.004c-.07.031-.102.082-.09.16l-.004.004v0c-.07.031-.102.082-.09.16l-.004.004c-.07.027-.101.082-.09.16h-.004c-.07.031-.105.086-.093.16l-.977 1.434c-.09.3-.312.523-.496.766a.246.246 0 01-.184-.148c-.156.167-.328.323-.398.554a.375.375 0 01-.09.195c.031-.066.063-.129.09-.195-.059.043-.113.094-.094.172-.113.03-.176.11-.207.218-.074.02-.117.063-.113.141-.067.035-.117.082-.121.164a.123.123 0 00-.074.078 1.469 1.469 0 00-.434.508c-.121.102-.25.203-.309.36-.105.038-.152.128-.207.214-.488.407-.902.903-1.496 1.235.2.132.188.39.43.41zm1.988-40.293v.004h-.008c.004 0 .004 0 .008-.004zm3.219 34.015c.008-.011.02-.023.027-.035 0 .004 0 .008-.004.012a.158.158 0 01-.02.035l-.003-.012zm.648-1.964c.004 0 .004.004.004.004a.03.03 0 01.016.007l.012.008-.028-.015h-.004v-.004zm-.617 2.027a.148.148 0 01-.023-.05c.004-.009.012-.02.015-.032a.103.103 0 00.008.082zm.04-.156l.023-.035s0-.004.004-.004l-.028.039zm-4.15 5.933v.004l-.003.004s-.004 0-.004.004c0-.004.004-.008.008-.012zm.216-.183c.004 0 .007 0 .011-.004-.004 0-.007.004-.011.004zm1.191-2.57a.092.092 0 00.024.035c-.008.003-.016.003-.024.007 0-.015-.004-.027 0-.043zm-.363.347a.12.12 0 01-.059.047v-.004a.163.163 0 00.059-.043zm0 0"/></g></g></g></g><g clip-path="url(#prefix__af)"><g clip-path="url(#prefix__ag)"><g clip-path="url(#prefix__ah)"><g clip-path="url(#prefix__ai)"><path fill="#fff" d="M210.484 203.844c.032-.051.063-.106.094-.156-.074.027-.101.082-.094.156zm0 0"/></g></g></g></g><g clip-path="url(#prefix__aj)"><g clip-path="url(#prefix__ak)"><g clip-path="url(#prefix__al)"><g clip-path="url(#prefix__am)"><path fill="#fff" d="M95.484 228.254a.102.102 0 00-.066.09c-.137.047-.281-.137-.414.02-.438.116-.496.46-.496.835.008 1.051.183 2.078.422 3.094.855 3.633 2.43 6.914 4.601 9.937 3.79 5.286 8.899 8.672 14.98 10.684 2.821.934 5.755 1.356 8.708 1.637 1.738.164 3.48.226 5.219.328.066-.024.128-.05.195-.074.066.035.152.054.195.113.031.047-.035.09-.098.086-.57.387-1.203.637-1.847.851-.442.153-.86.329-1.223.63-.953.312-1.375.995-1.207 1.898 1.969.3 3.692-.418 5.387-1.293.633-.328 1.281-.61 1.93-.902 1.546-.696 1.285-.684 1.449-2.06.035-.308 0-.616-.067-.921-.023-.113-.054-.215-.16-.273.024-.352-.23-.504-.484-.637-.75-.402-1.508-.79-2.266-1.184-.105-.175-.277-.242-.457-.3-.101-.18-.277-.243-.453-.317-.047-.137-.187-.176-.289-.258-1.371-1.078-2.602-2.297-3.621-3.726-.078-.11-.164-.211-.242-.317-.098-.12-.203-.265-.375-.203-.125.047-.2.223-.176.336.098.504-.125.988-.07 1.484.023.223.136.415.254.606.89 1.488 2.023 2.773 3.292 3.945.114.106.247.196.333.32.101.145-.004.239-.137.305-.14-.105-.285-.105-.43-.015-.148-.07-.297-.125-.453-.02-.023-.035-.055-.039-.086-.008-.137-.074-.277-.117-.43-.027-.101-.027-.207-.07-.312-.078-1.18-.11-2.363-.195-3.543-.317-1.07-.109-2.137-.25-3.203-.378-.278-.07-.551-.149-.828-.204-2.704-.574-5.297-1.46-7.746-2.742-.875-.457-1.735-.941-2.602-1.414-.11-.183-.297-.246-.484-.308-.098-.18-.278-.239-.454-.301-.082-.18-.257-.227-.418-.297-.042-.125-.14-.176-.257-.195-.02-.047-.055-.067-.102-.063-.05-.137-.187-.18-.285-.258-.484-.406-1.04-.722-1.473-1.187-.074.015-.242-.051-.097.14.093.13.078.172.027.184-.047.008-.125-.004-.184-.008-1.488-1.328-2.796-2.824-4.011-4.406-.098-.156-.2-.316-.297-.473l-1.774-2.824a.187.187 0 00-.027-.117.199.199 0 00-.062-.05.157.157 0 00-.09-.169c.011-.074-.02-.129-.086-.164.011-.078-.02-.133-.086-.168.012-.078-.016-.133-.086-.168.016-.078-.016-.133-.082-.164l-.004-.004c.016-.074-.012-.133-.078-.164l-.004-.004a1.078 1.078 0 00-.078-.168v-.004c.015-.074-.012-.129-.078-.164l-.004-.008c.015-.074-.008-.128-.078-.164l-.004-.007c.02-.075-.008-.133-.075-.168h-.003c.02-.079-.008-.133-.079-.168v-.004c.016-.078-.007-.133-.074-.172-.207-.54-.406-1.082-.61-1.621-.194-.25-.25-.555-.343-.844a.25.25 0 01.082-.055.229.229 0 01.145-.011c-.047-.227-.078-.454-.223-.645a.391.391 0 01-.105-.187c.035.062.066.125.105.187 0-.074-.012-.148-.09-.176.043-.113.016-.207-.055-.297.028-.07.016-.129-.05-.171.008-.079 0-.145-.067-.196.008-.035.008-.07-.02-.101a1.49 1.49 0 00-.163-.649c-.016-.16-.024-.324-.117-.46.027-.106-.02-.2-.055-.294-.055-.632-.223-1.254-.153-1.933-.222.086-.425-.07-.578.117zm31.801 24.816l-.004-.004c0 .004.004.004.004.004-.004 0-.004-.004-.004-.004.004 0 .004 0 .004-.004v.008zm-29.668-16.949a.64.64 0 00.012.043c-.004 0-.004-.004-.008-.008-.004-.011-.012-.023-.016-.035h.012zm1.23 1.664c-.007.004-.011.008-.015.008l-.016.004.032-.012v-.004.004zm-1.296-1.672c.015 0 .035.004.05.008.008.012.012.024.02.031a.105.105 0 00-.07-.039zm.101.121c.008.012.012.028.016.04 0 0 .004.003 0 .003-.004-.015-.008-.03-.016-.043zm-2.465-6.808s0-.004-.003-.004c.004-.004 0-.004.004-.008v.012zm.028.281c-.004.004-.004.008-.004.012.004-.004 0-.008.004-.012zm1.418 2.453h-.043c.004-.008.004-.015.008-.023l.035.023zm-.074-.496c-.012-.02-.012-.047-.008-.074h.004a.157.157 0 00.004.074zm0 0"/></g></g></g></g><g clip-path="url(#prefix__an)"><g clip-path="url(#prefix__ao)"><g clip-path="url(#prefix__ap)"><g clip-path="url(#prefix__aq)"><path fill="#fff" d="M98.168 236.441c.027.059.055.114.078.168.02-.078-.008-.132-.078-.168zm0 0"/></g></g></g></g><g clip-path="url(#prefix__ar)"><g clip-path="url(#prefix__as)"><g clip-path="url(#prefix__at)"><g clip-path="url(#prefix__au)"><path fill="#fff" d="M133.285 125.559a.106.106 0 00-.035-.106c.04-.14.27-.152.219-.351.152-.426-.098-.672-.406-.883-.868-.594-1.81-1.035-2.782-1.418-3.472-1.367-7.066-1.942-10.789-1.883-6.504.102-12.195 2.371-17.316 6.219-2.375 1.785-4.39 3.957-6.309 6.222-1.125 1.332-2.168 2.73-3.242 4.102-.02.066-.035.133-.05.2-.067.034-.134.097-.204.097h-.004c-.055 0-.055-.078-.015-.13.011-.687.164-1.35.355-2.003.129-.45.223-.895.18-1.363.285-.961-.035-1.696-.871-2.075-1.371 1.446-1.762 3.274-2.008 5.168-.09.704-.23 1.399-.36 2.094-.308 1.672-.168 1.45.868 2.367.23.204.507.352.793.473.105.043.207.074.316.024.277.218.547.097.8-.036.759-.39 1.509-.789 2.263-1.187.203.012.359-.094.511-.207.203.023.356-.086.516-.188.14.04.254-.054.375-.093 1.668-.512 3.375-.829 5.129-.852.133 0 .265-.012.394-.02.16-.007.336-.015.383-.187.035-.133-.066-.293-.176-.34-.468-.203-.742-.664-1.18-.902-.195-.106-.417-.125-.64-.137-1.734-.117-3.434.082-5.121.457-.149.031-.297.09-.45.094-.179 0-.195-.145-.175-.29.168-.054.25-.171.258-.347.14-.078.273-.168.273-.36.047 0 .067-.019.059-.066.136-.07.254-.16.265-.336.082-.07.176-.129.243-.214.761-.907 1.507-1.829 2.277-2.727.703-.82 1.426-1.613 2.14-2.418.215-.187.434-.367.641-.562 2.008-1.899 4.219-3.52 6.664-4.805.875-.457 1.762-.887 2.645-1.328.215.015.37-.106.531-.223.203.02.355-.09.508-.203.195.035.332-.082.48-.172.125.035.223-.02.309-.102a.102.102 0 00.11-.046c.14.035.25-.055.374-.086.61-.168 1.184-.446 1.817-.535.027-.07.175-.172-.063-.165-.16.008-.187-.03-.164-.082.016-.043.07-.097.106-.144 1.941-.465 3.918-.692 5.91-.785.183.011.37.02.558.027 1.11.05 2.22.102 3.328.149a.17.17 0 00.114.046.287.287 0 00.078-.02.16.16 0 00.187.02c.055.051.118.059.184.024.059.055.121.058.187.023.059.055.122.063.188.024.055.058.117.066.184.027l.003.004c.051.055.114.062.18.027h.004c.059.012.121.024.18.032h.008c.054.054.113.066.18.03h.007c.05.055.113.067.18.032h.008c.05.059.113.066.18.031h.003c.05.059.113.07.18.032l.004.003c.054.055.117.067.183.032.563.144 1.121.285 1.684.425.312-.019.598.114.887.2a.221.221 0 01-.004.101.212.212 0 01-.075.125c.215.09.422.196.66.18a.45.45 0 01.215.02 3.989 3.989 0 01-.214-.02c.062.043.125.078.195.031.066.094.16.13.273.121.043.063.098.086.172.059.059.047.117.082.196.055.027.027.058.046.097.043.192.125.399.203.625.234.14.078.281.164.45.164.07.086.171.102.269.121.55.32 1.156.535 1.672.98.058-.23.305-.312.238-.542zm-38.52 11.988l.005-.004h0c0 .004 0 .004.003.004h-.007zm30.837-14.719c-.012-.008-.028-.012-.043-.016h.011c.016 0 .028.004.04.008l-.008.008zm-2.067.063v-.004-.016l.008-.016-.008.036h0zm2.113-.114a.352.352 0 01-.035.04c-.011-.004-.027-.004-.039-.008a.082.082 0 00.074-.032zm-.156.016c-.015-.004-.031-.004-.043-.008 0-.004-.004-.004-.004-.004l.047.012zm6.996 1.855h.008l.004.004c-.004 0-.008-.004-.012-.004zm-.246-.14a98.913 98.913 0 000 0zm-2.824-.23c.008-.012.02-.024.023-.04a.082.082 0 01.016.024c-.012.004-.023.011-.039.015zm.45.218a.13.13 0 01.066.04h-.004c-.02-.016-.04-.032-.063-.04zm0 0"/></g></g></g></g><g clip-path="url(#prefix__av)"><g clip-path="url(#prefix__aw)"><g clip-path="url(#prefix__ax)"><g clip-path="url(#prefix__ay)"><path fill="#fff" d="M125.023 123.098a2.881 2.881 0 01-.18-.032c.055.059.114.067.18.032zm0 0"/></g></g></g></g><path transform="matrix(.74987 .00605 -.00605 .74998 136.49 77.868)" fill="none" d="M-.002 1.999L223.036 2" stroke="#000" stroke-width="4"/><path transform="matrix(.75062 -.00364 .00364 .75 135.126 291.168)" fill="none" d="M0 2l224.814.002" stroke="#000" stroke-width="4"/><g clip-path="url(#prefix__az)"><path fill="#38b6ff" d="M294.695 306.992l-8.492-9.492a.946.946 0 00-.703-.316h-5.664a.95.95 0 00-.863.562.956.956 0 00.164 1.02l7.922 8.863-7.922 8.855a.95.95 0 00.7 1.586h5.663c.266 0 .52-.117.703-.312l8.492-9.496c.32-.36.32-.91 0-1.27zm0 0"/></g><g clip-path="url(#prefix__aA)"><path fill="#38b6ff" d="M282.426 306.992l-8.492-9.492a.94.94 0 00-.704-.316h-5.66a.947.947 0 00-.703 1.582l7.926 8.863-7.926 8.855a.955.955 0 00-.16 1.024.94.94 0 00.863.562h5.66c.27 0 .52-.117.704-.312l8.492-9.496a.95.95 0 000-1.27zm0 0"/></g><g clip-path="url(#prefix__aB)"><path fill="#38b6ff" d="M257.57 306.992l-8.492-9.492a.946.946 0 00-.703-.316h-5.664a.95.95 0 00-.863.562.962.962 0 00.16 1.02l7.926 8.863-7.926 8.855a.95.95 0 00.703 1.586h5.664c.266 0 .52-.117.703-.312l8.492-9.496c.32-.36.32-.91 0-1.27zm0 0"/></g><g clip-path="url(#prefix__aC)"><path fill="#38b6ff" d="M245.3 306.992l-8.491-9.492a.94.94 0 00-.704-.316h-5.66a.947.947 0 00-.703 1.582l7.926 8.863-7.926 8.855a.955.955 0 00-.16 1.024.94.94 0 00.863.562h5.66c.27 0 .52-.117.704-.312l8.492-9.496a.95.95 0 000-1.27zm0 0"/></g><g clip-path="url(#prefix__aD)"><path fill="#38b6ff" d="M220.445 306.992l-8.492-9.492a.946.946 0 00-.703-.316h-5.664a.95.95 0 00-.863.562.956.956 0 00.164 1.02l7.922 8.863-7.922 8.855a.95.95 0 00.7 1.586h5.663c.266 0 .52-.117.703-.312l8.492-9.496c.32-.36.32-.91 0-1.27zm0 0"/></g><g clip-path="url(#prefix__aE)"><path fill="#38b6ff" d="M208.176 306.992l-8.492-9.492a.94.94 0 00-.704-.316h-5.66a.947.947 0 00-.703 1.582l7.926 8.863-7.926 8.855a.955.955 0 00-.16 1.024.94.94 0 00.863.562h5.66c.27 0 .52-.117.704-.312l8.492-9.496a.95.95 0 000-1.27zm0 0"/></g><g clip-path="url(#prefix__aF)"><path fill="#5ce1e6" d="M183.32 306.992l-8.492-9.492a.946.946 0 00-.703-.316h-5.664a.95.95 0 00-.863.562.956.956 0 00.164 1.02l7.922 8.863-7.922 8.855a.95.95 0 00.7 1.586h5.663c.266 0 .52-.117.703-.312l8.492-9.496c.32-.36.32-.91 0-1.27zm0 0"/></g><g clip-path="url(#prefix__aG)"><path fill="#5ce1e6" d="M171.05 306.992l-8.491-9.492a.94.94 0 00-.704-.316h-5.66a.947.947 0 00-.703 1.582l7.926 8.863-7.926 8.855a.955.955 0 00-.16 1.024.94.94 0 00.863.562h5.66c.27 0 .52-.117.704-.312l8.492-9.496a.95.95 0 000-1.27zm0 0"/></g><g clip-path="url(#prefix__aH)"><g clip-path="url(#prefix__aI)"><g clip-path="url(#prefix__aJ)"><path fill="#38b6ff" d="M146.184 306.746l-8.66-9.344a.948.948 0 00-.708-.3l-5.66.097a.947.947 0 00-.851.578.956.956 0 00.175 1.02l8.083 8.719-7.77 8.996a.952.952 0 00.73 1.574l5.665-.102a.96.96 0 00.695-.324l8.324-9.644a.954.954 0 00-.023-1.27zm0 0"/></g></g></g><g clip-path="url(#prefix__aK)"><g clip-path="url(#prefix__aL)"><g clip-path="url(#prefix__aM)"><path fill="#38b6ff" d="M133.918 306.96l-8.66-9.339a.937.937 0 00-.707-.305l-5.66.102a.95.95 0 00-.856.578.95.95 0 00.18 1.016l8.082 8.718-7.77 8.997a.959.959 0 00-.14 1.027c.16.34.5.555.87.547l5.665-.102a.96.96 0 00.695-.324l8.324-9.64a.96.96 0 00-.023-1.274zm0 0"/></g></g></g><g clip-path="url(#prefix__aN)"><g clip-path="url(#prefix__aO)"><g clip-path="url(#prefix__aP)"><path fill="#38b6ff" d="M99.406 301.191l-2.023-12.574a.945.945 0 00-.422-.644l-4.766-3.059a.949.949 0 00-1.445.953l1.887 11.738-11.453 3.176a.951.951 0 00-.266 1.715l4.766 3.059c.226.144.5.183.761.113l12.274-3.406a.954.954 0 00.687-1.07zm0 0"/></g></g></g><g clip-path="url(#prefix__aQ)"><g clip-path="url(#prefix__aR)"><g clip-path="url(#prefix__aS)"><path fill="#38b6ff" d="M89.078 294.57l-2.023-12.578a.94.94 0 00-.422-.644l-4.766-3.055a.942.942 0 00-1.027.004.966.966 0 00-.418.95l1.887 11.733-11.454 3.18a.954.954 0 00-.687.774.945.945 0 00.422.937l4.77 3.059a.94.94 0 00.757.113l12.278-3.406a.95.95 0 00.683-1.067zm0 0"/></g></g></g><g clip-path="url(#prefix__aT)"><g clip-path="url(#prefix__aU)"><g clip-path="url(#prefix__aV)"><path fill="#38b6ff" d="M61.434 282.32l.468-12.73a.94.94 0 00-.289-.715l-4.078-3.93a.945.945 0 00-1.012-.191.955.955 0 00-.593.848l-.438 11.878-11.851.883a.942.942 0 00-.825.625.94.94 0 00.23 1.004l4.079 3.926a.951.951 0 00.723.262l12.703-.946a.957.957 0 00.883-.914zm0 0"/></g></g></g><g clip-path="url(#prefix__aW)"><g clip-path="url(#prefix__aX)"><g clip-path="url(#prefix__aY)"><path fill="#38b6ff" d="M52.598 273.809l.468-12.73a.96.96 0 00-.289-.716l-4.078-3.925a.948.948 0 00-1.605.652l-.438 11.879-11.851.883a.948.948 0 00-.825.625.94.94 0 00.23 1.003l4.08 3.93a.96.96 0 00.722.262l12.703-.95a.957.957 0 00.883-.913zm0 0"/></g></g></g><g clip-path="url(#prefix__aZ)"><g clip-path="url(#prefix__ba)"><g clip-path="url(#prefix__bb)"><path fill="#5ce1e6" d="M36.793 250.25l3.941-12.113a.938.938 0 00-.082-.766l-2.843-4.894a.943.943 0 00-.918-.465.954.954 0 00-.805.652L32.41 243.97l-11.64-2.399a.947.947 0 00-.965.375.944.944 0 00-.055 1.028l2.848 4.894a.94.94 0 00.62.45l12.477 2.574a.95.95 0 001.098-.641zm0 0"/></g></g></g><g clip-path="url(#prefix__bc)"><g clip-path="url(#prefix__bd)"><g clip-path="url(#prefix__be)"><path fill="#5ce1e6" d="M30.629 239.645l3.941-12.114a.938.938 0 00-.082-.765l-2.843-4.895a.946.946 0 00-.922-.465.954.954 0 00-.801.653l-3.676 11.304-11.644-2.402a.95.95 0 00-.961.375.943.943 0 00-.055 1.031l2.844 4.895c.136.23.363.39.625.449l12.476 2.57a.952.952 0 001.098-.636zm0 0"/></g></g></g><g clip-path="url(#prefix__bf)"><path fill="#38b6ff" d="M20.016 200.004l9.492-8.492a.934.934 0 00.316-.703v-5.66a.945.945 0 00-.562-.864.946.946 0 00-1.02.16l-8.863 7.926-8.856-7.926a.955.955 0 00-1.023-.16.945.945 0 00-.563.863v5.66c0 .27.114.524.313.704l9.496 8.492a.95.95 0 001.27 0zm0 0"/></g><g clip-path="url(#prefix__bg)"><path fill="#38b6ff" d="M20.016 187.738l9.492-8.496a.932.932 0 00.316-.699v-5.664a.95.95 0 00-.562-.863.961.961 0 00-1.02.16l-8.863 7.926-8.856-7.926a.95.95 0 00-1.586.703v5.664c0 .266.114.52.313.7l9.496 8.495c.36.32.91.32 1.27 0zm0 0"/></g><g clip-path="url(#prefix__bh)"><g clip-path="url(#prefix__bi)"><g clip-path="url(#prefix__bj)"><path fill="#38b6ff" d="M22.281 145.098l12.64-1.57a.951.951 0 00.661-.4l3.227-4.651a.95.95 0 00-.903-1.48L26.11 138.46l-2.765-11.559a.952.952 0 00-1.703-.324l-3.227 4.652a.948.948 0 00-.14.758l2.964 12.387a.949.949 0 001.043.723zm0 0"/></g></g></g><g clip-path="url(#prefix__bk)"><g clip-path="url(#prefix__bl)"><g clip-path="url(#prefix__bm)"><path fill="#38b6ff" d="M29.27 135.016l12.64-1.575a.933.933 0 00.66-.394l3.223-4.656a.935.935 0 00.031-1.028.953.953 0 00-.93-.449l-11.796 1.465-2.766-11.559a.963.963 0 00-.75-.715.941.941 0 00-.953.387l-3.227 4.656a.936.936 0 00-.14.754l2.965 12.391a.95.95 0 001.043.723zm0 0"/></g></g></g><g clip-path="url(#prefix__bn)"><g clip-path="url(#prefix__bo)"><g clip-path="url(#prefix__bp)"><path fill="#38b6ff" d="M45.11 108.906l12.671 1.317a.941.941 0 00.73-.239l4.192-3.808a.948.948 0 00.258-.996.954.954 0 00-.805-.649l-11.824-1.226-.09-11.887a.948.948 0 00-1.586-.7l-4.191 3.805a.963.963 0 00-.309.707l.098 12.739c.004.48.375.89.855.937zm0 0"/></g></g></g><g clip-path="url(#prefix__bq)"><g clip-path="url(#prefix__br)"><g clip-path="url(#prefix__bs)"><path fill="#38b6ff" d="M54.188 100.656l12.671 1.317a.936.936 0 00.73-.239l4.192-3.808a.942.942 0 00.262-.996.958.958 0 00-.805-.649l-11.824-1.226-.09-11.887a.95.95 0 00-1.586-.7l-4.191 3.805a.955.955 0 00-.309.707l.098 12.739c.004.484.375.89.852.937zm0 0"/></g></g></g><g clip-path="url(#prefix__bt)"><g clip-path="url(#prefix__bu)"><g clip-path="url(#prefix__bv)"><path fill="#5ce1e6" d="M75.379 84.59l11.808 4.773c.254.098.532.09.77-.027l5.082-2.5a.95.95 0 00.527-.883.958.958 0 00-.597-.848l-11.02-4.453 3.203-11.445a.946.946 0 00-.304-.988.943.943 0 00-1.024-.125l-5.082 2.496a.974.974 0 00-.492.59l-3.434 12.27a.957.957 0 00.563 1.14zm0 0"/></g></g></g><g clip-path="url(#prefix__bw)"><g clip-path="url(#prefix__bx)"><g clip-path="url(#prefix__by)"><path fill="#5ce1e6" d="M86.387 79.176l11.812 4.773c.25.102.528.094.77-.027l5.082-2.496a.945.945 0 00.523-.887.945.945 0 00-.594-.844l-11.02-4.457 3.204-11.445a.958.958 0 00-.305-.988.952.952 0 00-1.023-.125l-5.082 2.5a.94.94 0 00-.492.59l-3.434 12.265a.953.953 0 00.559 1.14zm0 0"/></g></g></g><g clip-path="url(#prefix__bz)"><path fill="#38b6ff" d="M118.215 68.148l8.492 9.493a.946.946 0 00.703.316h5.664a.95.95 0 00.863-.562.956.956 0 00-.164-1.02l-7.921-8.863 7.921-8.856a.95.95 0 00-.7-1.586h-5.663a.971.971 0 00-.703.313l-8.492 9.496c-.32.36-.32.91 0 1.27zm0 0"/></g><g clip-path="url(#prefix__bA)"><path fill="#38b6ff" d="M130.484 68.148l8.493 9.493a.94.94 0 00.703.316h5.66a.947.947 0 00.703-1.582l-7.926-8.863 7.926-8.856a.955.955 0 00.16-1.023.94.94 0 00-.863-.563h-5.66c-.27 0-.52.117-.703.313l-8.493 9.496a.95.95 0 000 1.27zm0 0"/></g><g clip-path="url(#prefix__bB)"><g clip-path="url(#prefix__bC)"><g clip-path="url(#prefix__bD)"><path fill="#38b6ff" d="M154.75 67.309l8.207 9.742a.947.947 0 00.691.34l5.66.168a.948.948 0 00.75-1.563l-7.656-9.094 8.188-8.613a.953.953 0 00.191-1.02.934.934 0 00-.844-.585l-5.66-.172a.955.955 0 00-.71.293l-8.778 9.234a.96.96 0 00-.039 1.27zm0 0"/></g></g></g><g clip-path="url(#prefix__bE)"><g clip-path="url(#prefix__bF)"><g clip-path="url(#prefix__bG)"><path fill="#38b6ff" d="M167.016 67.676l8.203 9.746a.936.936 0 00.691.336l5.66.172a.948.948 0 00.75-1.563l-7.656-9.094 8.188-8.617a.946.946 0 00.191-1.015.944.944 0 00-.844-.59l-5.66-.172a.955.955 0 00-.71.293l-8.778 9.234a.955.955 0 00-.035 1.27zm0 0"/></g></g></g><g clip-path="url(#prefix__bH)"><g clip-path="url(#prefix__bI)"><g clip-path="url(#prefix__bJ)"><path fill="#38b6ff" d="M266.402 67.309l8.207 9.742a.947.947 0 00.692.34l5.66.168a.948.948 0 00.75-1.563l-7.656-9.094 8.187-8.613a.953.953 0 00.192-1.02.934.934 0 00-.844-.585l-5.66-.172a.955.955 0 00-.711.293l-8.778 9.234a.96.96 0 00-.039 1.27zm0 0"/></g></g></g><g clip-path="url(#prefix__bK)"><g clip-path="url(#prefix__bL)"><g clip-path="url(#prefix__bM)"><path fill="#38b6ff" d="M278.668 67.676l8.203 9.746a.936.936 0 00.692.336l5.66.172a.948.948 0 00.75-1.563l-7.657-9.094 8.188-8.617a.946.946 0 00.191-1.015.944.944 0 00-.843-.59l-5.66-.172a.955.955 0 00-.712.293l-8.777 9.234a.955.955 0 00-.035 1.27zm0 0"/></g></g></g><g clip-path="url(#prefix__bN)"><g clip-path="url(#prefix__bO)"><g clip-path="url(#prefix__bP)"><path fill="#5ce1e6" d="M229.277 67.309l8.207 9.742a.947.947 0 00.692.34l5.66.168a.948.948 0 00.75-1.563l-7.656-9.094 8.187-8.613a.953.953 0 00.192-1.02.934.934 0 00-.844-.585l-5.66-.172a.955.955 0 00-.711.293l-8.778 9.234a.96.96 0 00-.039 1.27zm0 0"/></g></g></g><g clip-path="url(#prefix__bQ)"><g clip-path="url(#prefix__bR)"><g clip-path="url(#prefix__bS)"><path fill="#5ce1e6" d="M241.543 67.676l8.203 9.746a.936.936 0 00.691.336l5.66.172a.948.948 0 00.75-1.563l-7.656-9.094 8.188-8.617a.946.946 0 00.191-1.015.944.944 0 00-.843-.59l-5.66-.172a.955.955 0 00-.712.293l-8.777 9.234a.955.955 0 00-.035 1.27zm0 0"/></g></g></g><g clip-path="url(#prefix__bT)"><g clip-path="url(#prefix__bU)"><g clip-path="url(#prefix__bV)"><path fill="#38b6ff" d="M192.762 67.309l8.203 9.742a.962.962 0 00.695.34l5.656.168a.95.95 0 00.883-.536.957.957 0 00-.133-1.027l-7.652-9.094 8.188-8.613a.961.961 0 00.191-1.02.939.939 0 00-.848-.585l-5.656-.172a.964.964 0 00-.715.293l-8.773 9.234a.955.955 0 00-.04 1.27zm0 0"/></g></g></g><g clip-path="url(#prefix__bW)"><g clip-path="url(#prefix__bX)"><g clip-path="url(#prefix__bY)"><path fill="#38b6ff" d="M205.023 67.676l8.207 9.746a.93.93 0 00.692.336l5.66.172a.948.948 0 00.75-1.563l-7.656-9.094 8.187-8.617a.946.946 0 00.192-1.015.944.944 0 00-.844-.59l-5.66-.172a.955.955 0 00-.711.293l-8.778 9.234a.96.96 0 00-.039 1.27zm0 0"/></g></g></g></svg>