<svg xmlns="http://www.w3.org/2000/svg" xmlns:xlink="http://www.w3.org/1999/xlink" width="450" zoomAndPan="magnify" viewBox="0 0 337.5 374.999991" height="500" preserveAspectRatio="xMidYMid meet" version="1.0"><defs><clipPath id="abebc30b1a"><path d="M 0 52.777344 L 303.75 52.777344 L 303.75 323 L 0 323 Z M 0 52.777344 " clip-rule="nonzero"/></clipPath><clipPath id="0500bdd067"><path d="M 7.917969 142.824219 C 3.136719 156.667969 0 172.40625 0 187.851562 C 0 203.296875 2.6875 218.15625 7.46875 231.855469 C 7.621094 232.144531 7.621094 232.4375 7.769531 232.730469 C 26.890625 284.164062 77.390625 322.050781 135.65625 322.777344 L 303.75 322.777344 L 303.75 52.777344 L 135.78125 52.777344 C 77.09375 53.507812 26.59375 90.808594 7.917969 142.824219 " clip-rule="nonzero"/></clipPath><clipPath id="8efd6fe6a9"><path d="M 0 52.777344 L 303.75 52.777344 L 303.75 322.777344 L 0 322.777344 Z M 0 52.777344 " clip-rule="nonzero"/></clipPath><clipPath id="345a8e79a7"><path d="M 7.917969 142.824219 C 3.136719 156.667969 0 172.40625 0 187.851562 C 0 203.296875 2.6875 218.15625 7.46875 231.855469 C 7.621094 232.144531 7.621094 232.4375 7.769531 232.730469 C 26.890625 284.164062 77.390625 322.050781 135.65625 322.777344 L 303.75 322.777344 L 303.75 52.777344 L 135.78125 52.777344 C 77.09375 53.507812 26.59375 90.808594 7.917969 142.824219 " clip-rule="nonzero"/></clipPath><clipPath id="04543de8aa"><path d="M 34 77 L 251 77 L 251 294 L 34 294 Z M 34 77 " clip-rule="nonzero"/></clipPath><clipPath id="3a905a23c0"><path d="M 290.933594 148.3125 L 180.113281 334.050781 L -5.628906 223.226562 L 105.195312 37.488281 Z M 290.933594 148.3125 " clip-rule="nonzero"/></clipPath><clipPath id="2d8badb2d5"><path d="M 235.597656 241.058594 C 266.160156 189.835938 249.410156 123.535156 198.191406 92.972656 C 146.96875 62.410156 80.667969 79.160156 50.105469 130.382812 C 19.542969 181.601562 36.292969 247.902344 87.515625 278.464844 C 138.734375 309.027344 205.035156 292.277344 235.597656 241.058594 " clip-rule="nonzero"/></clipPath><clipPath id="a460bc7fd7"><path d="M 34 77 L 251 77 L 251 294 L 34 294 Z M 34 77 " clip-rule="nonzero"/></clipPath><clipPath id="2b9873b899"><path d="M 290.933594 148.3125 L 180.257812 333.800781 L -5.230469 223.128906 L 105.445312 37.636719 Z M 290.933594 148.3125 " clip-rule="nonzero"/></clipPath><clipPath id="c33e00f0bd"><path d="M 290.933594 148.3125 L 178.695312 336.425781 L -9.417969 224.183594 L 102.820312 36.070312 Z M 290.933594 148.3125 " clip-rule="nonzero"/></clipPath><clipPath id="b8e2c137c2"><path d="M 235.597656 241.058594 C 266.160156 189.835938 249.410156 123.535156 198.191406 92.972656 C 146.96875 62.410156 80.667969 79.160156 50.105469 130.382812 C 19.542969 181.601562 36.292969 247.902344 87.515625 278.464844 C 138.734375 309.027344 205.035156 292.277344 235.597656 241.058594 " clip-rule="nonzero"/></clipPath><clipPath id="6a400db78b"><path d="M 169 193 L 207 193 L 207 225 L 169 225 Z M 169 193 " clip-rule="nonzero"/></clipPath><clipPath id="f70ec4a5a9"><path d="M 206.308594 209.546875 L 197.398438 225.375 L 169.578125 209.710938 L 178.492188 193.882812 Z M 206.308594 209.546875 " clip-rule="nonzero"/></clipPath><clipPath id="72fd41dfdd"><path d="M 206.308594 209.546875 L 197.59375 225.027344 L 169.945312 209.460938 L 178.664062 193.980469 Z M 206.308594 209.546875 " clip-rule="nonzero"/></clipPath><clipPath id="10369b09c4"><path d="M 85 194 L 122 194 L 122 226 L 85 226 Z M 85 194 " clip-rule="nonzero"/></clipPath><clipPath id="1f490470a3"><path d="M 112.890625 194.390625 L 121.972656 210.125 L 94.320312 226.082031 L 85.242188 210.347656 Z M 112.890625 194.390625 " clip-rule="nonzero"/></clipPath><clipPath id="5935a9d119"><path d="M 112.890625 194.390625 L 121.773438 209.78125 L 94.292969 225.640625 L 85.410156 210.25 Z M 112.890625 194.390625 " clip-rule="nonzero"/></clipPath><clipPath id="acdf08a952"><path d="M 103 136 L 189 136 L 189 210 L 103 210 Z M 103 136 " clip-rule="nonzero"/></clipPath><clipPath id="1bccd3ada2"><path d="M 103.144531 136.746094 L 188.339844 136.214844 L 188.800781 210.203125 L 103.605469 210.730469 Z M 103.144531 136.746094 " clip-rule="nonzero"/></clipPath><clipPath id="90d7c07e55"><path d="M 145.417969 136.484375 L 188.144531 209.492188 L 103.597656 210.015625 L 145.417969 136.484375 " clip-rule="nonzero"/></clipPath><clipPath id="7099b89595"><path d="M 136 128 L 155 128 L 155 161 L 136 161 Z M 136 128 " clip-rule="nonzero"/></clipPath><clipPath id="9b71d758bd"><path d="M 136.480469 128.644531 L 154.644531 128.53125 L 154.839844 160.453125 L 136.675781 160.566406 Z M 136.480469 128.644531 " clip-rule="nonzero"/></clipPath><clipPath id="e702d81279"><path d="M 136.480469 128.644531 L 154.246094 128.53125 L 154.441406 160.261719 L 136.675781 160.371094 Z M 136.480469 128.644531 " clip-rule="nonzero"/></clipPath><clipPath id="a4d7bc6b25"><path d="M 117 80 L 174 80 L 174 136 L 117 136 Z M 117 80 " clip-rule="nonzero"/></clipPath><clipPath id="55cffc7393"><path d="M 116.964844 135.371094 L 117.898438 79.757812 L 173.511719 80.695312 L 172.578125 136.308594 Z M 116.964844 135.371094 " clip-rule="nonzero"/></clipPath><clipPath id="cf6eed9ba5"><path d="M 117.429688 107.566406 C 117.171875 122.921875 129.414062 135.582031 144.769531 135.839844 C 160.128906 136.097656 172.789062 123.859375 173.046875 108.5 C 173.304688 93.144531 161.0625 80.484375 145.707031 80.226562 C 130.347656 79.96875 117.691406 92.207031 117.429688 107.566406 " clip-rule="nonzero"/></clipPath><clipPath id="d26ee92d51"><path d="M 117 80 L 173 80 L 173 136 L 117 136 Z M 117 80 " clip-rule="nonzero"/></clipPath><clipPath id="07584e8d8e"><path d="M 116.964844 135.371094 L 117.898438 79.878906 L 173.390625 80.8125 L 172.457031 136.304688 Z M 116.964844 135.371094 " clip-rule="nonzero"/></clipPath><clipPath id="60248bf0e0"><path d="M 116.964844 135.371094 L 117.898438 79.878906 L 173.390625 80.8125 L 172.457031 136.304688 Z M 116.964844 135.371094 " clip-rule="nonzero"/></clipPath><clipPath id="a8544358a8"><path d="M 117.429688 107.625 C 117.171875 122.949219 129.386719 135.582031 144.710938 135.839844 C 160.03125 136.097656 172.664062 123.882812 172.921875 108.558594 C 173.179688 93.234375 160.964844 80.605469 145.644531 80.347656 C 130.320312 80.089844 117.6875 92.300781 117.429688 107.625 " clip-rule="nonzero"/></clipPath><clipPath id="0efbb843d9"><path d="M 49 197 L 106 197 L 106 253 L 49 253 Z M 49 197 " clip-rule="nonzero"/></clipPath><clipPath id="882d15bf33"><path d="M 39.667969 215.199219 L 87.675781 187.109375 L 115.769531 235.113281 L 67.761719 263.207031 Z M 39.667969 215.199219 " clip-rule="nonzero"/></clipPath><clipPath id="cd5a1caacd"><path d="M 63.671875 201.152344 C 50.417969 208.910156 45.957031 225.945312 53.714844 239.203125 C 61.472656 252.460938 78.507812 256.917969 91.765625 249.160156 C 105.019531 241.402344 109.480469 224.367188 101.722656 211.113281 C 93.964844 197.855469 76.929688 193.394531 63.671875 201.152344 " clip-rule="nonzero"/></clipPath><clipPath id="e23af9a162"><path d="M 49 197 L 106 197 L 106 253 L 49 253 Z M 49 197 " clip-rule="nonzero"/></clipPath><clipPath id="f16e756764"><path d="M 39.667969 215.199219 L 87.570312 187.167969 L 115.601562 235.070312 L 67.699219 263.101562 Z M 39.667969 215.199219 " clip-rule="nonzero"/></clipPath><clipPath id="47626ac9f3"><path d="M 39.667969 215.199219 L 87.570312 187.167969 L 115.601562 235.070312 L 67.699219 263.101562 Z M 39.667969 215.199219 " clip-rule="nonzero"/></clipPath><clipPath id="b4209dc373"><path d="M 63.621094 201.183594 C 50.390625 208.925781 45.945312 225.921875 53.683594 239.148438 C 61.425781 252.378906 78.421875 256.828125 91.648438 249.085938 C 104.878906 241.347656 109.324219 224.347656 101.585938 211.121094 C 93.847656 197.894531 76.847656 193.445312 63.621094 201.183594 " clip-rule="nonzero"/></clipPath><clipPath id="2321c14573"><path d="M 182 194 L 239 194 L 239 251 L 182 251 Z M 182 194 " clip-rule="nonzero"/></clipPath><clipPath id="9ca0afe2b2"><path d="M 182.230469 249.765625 L 183.167969 194.152344 L 238.78125 195.085938 L 237.847656 250.699219 Z M 182.230469 249.765625 " clip-rule="nonzero"/></clipPath><clipPath id="369be93afb"><path d="M 182.699219 221.957031 C 182.441406 237.316406 194.679688 249.972656 210.039062 250.234375 C 225.398438 250.492188 238.054688 238.25 238.3125 222.894531 C 238.574219 207.535156 226.332031 194.875 210.976562 194.617188 C 195.617188 194.359375 182.957031 206.601562 182.699219 221.957031 " clip-rule="nonzero"/></clipPath><clipPath id="9e3449d486"><path d="M 182 194 L 239 194 L 239 251 L 182 251 Z M 182 194 " clip-rule="nonzero"/></clipPath><clipPath id="7b2f1d28ea"><path d="M 182.230469 249.765625 L 183.164062 194.273438 L 238.65625 195.207031 L 237.722656 250.699219 Z M 182.230469 249.765625 " clip-rule="nonzero"/></clipPath><clipPath id="42757c47b9"><path d="M 182.230469 249.765625 L 183.164062 194.273438 L 238.65625 195.207031 L 237.722656 250.699219 Z M 182.230469 249.765625 " clip-rule="nonzero"/></clipPath><clipPath id="63fd19bc4c"><path d="M 182.699219 222.019531 C 182.441406 237.34375 194.652344 249.972656 209.976562 250.230469 C 225.300781 250.488281 237.933594 238.277344 238.191406 222.953125 C 238.449219 207.628906 226.234375 194.996094 210.910156 194.738281 C 195.585938 194.480469 182.957031 206.695312 182.699219 222.019531 " clip-rule="nonzero"/></clipPath><clipPath id="9929aaa72b"><path d="M 138 101 L 153 101 L 153 116 L 138 116 Z M 138 101 " clip-rule="nonzero"/></clipPath><clipPath id="d1836d7fa8"><path d="M 138.210938 101.101562 L 152.171875 101.011719 L 152.257812 114.972656 L 138.300781 115.058594 Z M 138.210938 101.101562 " clip-rule="nonzero"/></clipPath><clipPath id="0206c46731"><path d="M 145.191406 101.054688 C 141.335938 101.082031 138.230469 104.222656 138.253906 108.078125 C 138.28125 111.933594 141.421875 115.039062 145.277344 115.015625 C 149.132812 114.992188 152.238281 111.847656 152.214844 107.992188 C 152.191406 104.136719 149.046875 101.03125 145.191406 101.054688 " clip-rule="nonzero"/></clipPath><clipPath id="3c3e318b18"><path d="M 70 218 L 85 218 L 85 233 L 70 233 Z M 70 218 " clip-rule="nonzero"/></clipPath><clipPath id="24e23dcc99"><path d="M 80.210938 215.609375 L 87.261719 227.65625 L 75.214844 234.707031 L 68.164062 222.65625 Z M 80.210938 215.609375 " clip-rule="nonzero"/></clipPath><clipPath id="be43bf06a0"><path d="M 83.738281 221.632812 C 81.789062 218.304688 77.515625 217.1875 74.1875 219.132812 C 70.859375 221.078125 69.742188 225.355469 71.6875 228.683594 C 73.636719 232.007812 77.910156 233.128906 81.238281 231.179688 C 84.566406 229.234375 85.683594 224.960938 83.738281 221.632812 " clip-rule="nonzero"/></clipPath><clipPath id="a7c567ba39"><path d="M 204 214 L 218 214 L 218 229 L 204 229 Z M 204 214 " clip-rule="nonzero"/></clipPath><clipPath id="73c4a6151a"><path d="M 203.976562 214.578125 L 217.933594 214.492188 L 218.023438 228.453125 L 204.0625 228.539062 Z M 203.976562 214.578125 " clip-rule="nonzero"/></clipPath><clipPath id="cdb9f75efb"><path d="M 210.957031 214.535156 C 207.101562 214.558594 203.996094 217.703125 204.019531 221.558594 C 204.042969 225.414062 207.1875 228.519531 211.042969 228.496094 C 214.898438 228.472656 218.003906 225.328125 217.980469 221.472656 C 217.953125 217.617188 214.808594 214.511719 210.957031 214.535156 " clip-rule="nonzero"/></clipPath><clipPath id="772c2d59f7"><path d="M 185 135 L 213 135 L 213 176 L 185 176 Z M 185 135 " clip-rule="nonzero"/></clipPath><clipPath id="a4a464fc34"><path d="M 209.542969 176.601562 L 182.164062 138.09375 L 193.164062 130.269531 L 220.546875 168.777344 Z M 209.542969 176.601562 " clip-rule="nonzero"/></clipPath><clipPath id="f24f072abe"><path d="M 209.542969 176.601562 L 182.164062 138.09375 L 193.164062 130.269531 L 220.546875 168.777344 Z M 209.542969 176.601562 " clip-rule="nonzero"/></clipPath><clipPath id="95caa23388"><path d="M 209.542969 176.601562 L 182.164062 138.09375 L 193.164062 130.269531 L 220.546875 168.777344 Z M 209.542969 176.601562 " clip-rule="nonzero"/></clipPath><clipPath id="7dbadb5330"><path d="M 210 167 L 211 167 L 211 168 L 210 168 Z M 210 167 " clip-rule="nonzero"/></clipPath><clipPath id="782e177d00"><path d="M 209.542969 176.601562 L 182.164062 138.09375 L 193.164062 130.269531 L 220.546875 168.777344 Z M 209.542969 176.601562 " clip-rule="nonzero"/></clipPath><clipPath id="bd386b32d9"><path d="M 209.542969 176.601562 L 182.164062 138.09375 L 193.164062 130.269531 L 220.546875 168.777344 Z M 209.542969 176.601562 " clip-rule="nonzero"/></clipPath><clipPath id="ec875e56e7"><path d="M 209.542969 176.601562 L 182.164062 138.09375 L 193.164062 130.269531 L 220.546875 168.777344 Z M 209.542969 176.601562 " clip-rule="nonzero"/></clipPath><clipPath id="fc57ec7046"><path d="M 122 245 L 170 245 L 170 259 L 122 259 Z M 122 245 " clip-rule="nonzero"/></clipPath><clipPath id="b841b968b5"><path d="M 122.703125 245.972656 L 169.953125 245.746094 L 170.015625 259.246094 L 122.765625 259.472656 Z M 122.703125 245.972656 " clip-rule="nonzero"/></clipPath><clipPath id="22c9355e5f"><path d="M 122.703125 245.972656 L 169.953125 245.746094 L 170.015625 259.246094 L 122.765625 259.472656 Z M 122.703125 245.972656 " clip-rule="nonzero"/></clipPath><clipPath id="1261605828"><path d="M 122.703125 245.972656 L 169.953125 245.746094 L 170.015625 259.246094 L 122.765625 259.472656 Z M 122.703125 245.972656 " clip-rule="nonzero"/></clipPath><clipPath id="c67d8cfcb5"><path d="M 129 252 L 131 252 L 131 253 L 129 253 Z M 129 252 " clip-rule="nonzero"/></clipPath><clipPath id="8191ca163f"><path d="M 122.703125 245.972656 L 169.953125 245.746094 L 170.015625 259.246094 L 122.765625 259.472656 Z M 122.703125 245.972656 " clip-rule="nonzero"/></clipPath><clipPath id="e702a5123d"><path d="M 122.703125 245.972656 L 169.953125 245.746094 L 170.015625 259.246094 L 122.765625 259.472656 Z M 122.703125 245.972656 " clip-rule="nonzero"/></clipPath><clipPath id="ee4ce188d3"><path d="M 122.703125 245.972656 L 169.953125 245.746094 L 170.015625 259.246094 L 122.765625 259.472656 Z M 122.703125 245.972656 " clip-rule="nonzero"/></clipPath><clipPath id="dbd4d6c5a6"><path d="M 71 137 L 105 137 L 105 175 L 71 175 Z M 71 137 " clip-rule="nonzero"/></clipPath><clipPath id="76b9c8f88e"><path d="M 104.953125 138.234375 L 78.207031 177.183594 L 67.078125 169.542969 L 93.824219 130.589844 Z M 104.953125 138.234375 " clip-rule="nonzero"/></clipPath><clipPath id="06aba595a5"><path d="M 104.953125 138.234375 L 78.207031 177.183594 L 67.078125 169.542969 L 93.824219 130.589844 Z M 104.953125 138.234375 " clip-rule="nonzero"/></clipPath><clipPath id="eb142da6e8"><path d="M 104.953125 138.234375 L 78.207031 177.183594 L 67.078125 169.542969 L 93.824219 130.589844 Z M 104.953125 138.234375 " clip-rule="nonzero"/></clipPath><clipPath id="3609a6de83"><path d="M 95 140 L 96 140 L 96 141 L 95 141 Z M 95 140 " clip-rule="nonzero"/></clipPath><clipPath id="16a05ca014"><path d="M 104.953125 138.234375 L 78.207031 177.183594 L 67.078125 169.542969 L 93.824219 130.589844 Z M 104.953125 138.234375 " clip-rule="nonzero"/></clipPath><clipPath id="f534752bf6"><path d="M 104.953125 138.234375 L 78.207031 177.183594 L 67.078125 169.542969 L 93.824219 130.589844 Z M 104.953125 138.234375 " clip-rule="nonzero"/></clipPath><clipPath id="26729ca5fa"><path d="M 104.953125 138.234375 L 78.207031 177.183594 L 67.078125 169.542969 L 93.824219 130.589844 Z M 104.953125 138.234375 " clip-rule="nonzero"/></clipPath><clipPath id="77428c3edd"><path d="M 278 297.128906 L 295 297.128906 L 295 318.128906 L 278 318.128906 Z M 278 297.128906 " clip-rule="nonzero"/></clipPath><clipPath id="bbff8c5c0d"><path d="M 266.625 297.128906 L 283 297.128906 L 283 318.128906 L 266.625 318.128906 Z M 266.625 297.128906 " clip-rule="nonzero"/></clipPath><clipPath id="717b47b633"><path d="M 241 297.128906 L 258 297.128906 L 258 318.128906 L 241 318.128906 Z M 241 297.128906 " clip-rule="nonzero"/></clipPath><clipPath id="1ac6b33cc8"><path d="M 229.5 297.128906 L 246 297.128906 L 246 318.128906 L 229.5 318.128906 Z M 229.5 297.128906 " clip-rule="nonzero"/></clipPath><clipPath id="2c475c17ac"><path d="M 204 297.128906 L 220.875 297.128906 L 220.875 318.128906 L 204 318.128906 Z M 204 297.128906 " clip-rule="nonzero"/></clipPath><clipPath id="1a9041bd25"><path d="M 192.375 297.128906 L 209 297.128906 L 209 318.128906 L 192.375 318.128906 Z M 192.375 297.128906 " clip-rule="nonzero"/></clipPath><clipPath id="a224202079"><path d="M 167 297.128906 L 183.75 297.128906 L 183.75 318.128906 L 167 318.128906 Z M 167 297.128906 " clip-rule="nonzero"/></clipPath><clipPath id="ce61ee61a1"><path d="M 155.25 297.128906 L 172 297.128906 L 172 318.128906 L 155.25 318.128906 Z M 155.25 297.128906 " clip-rule="nonzero"/></clipPath><clipPath id="2eb6946f78"><path d="M 130 297 L 147 297 L 147 319 L 130 319 Z M 130 297 " clip-rule="nonzero"/></clipPath><clipPath id="af3ae2dad4"><path d="M 117.945312 297.378906 L 146.441406 296.875 L 146.8125 317.871094 L 118.316406 318.375 Z M 117.945312 297.378906 " clip-rule="nonzero"/></clipPath><clipPath id="6a20ee7f15"><path d="M 117.945312 297.378906 L 146.441406 296.875 L 146.8125 317.871094 L 118.316406 318.375 Z M 117.945312 297.378906 " clip-rule="nonzero"/></clipPath><clipPath id="12f5f85a8d"><path d="M 117 297 L 135 297 L 135 319 L 117 319 Z M 117 297 " clip-rule="nonzero"/></clipPath><clipPath id="c6232c31df"><path d="M 117.945312 297.378906 L 146.441406 296.875 L 146.8125 317.871094 L 118.316406 318.375 Z M 117.945312 297.378906 " clip-rule="nonzero"/></clipPath><clipPath id="e420c7a97c"><path d="M 117.945312 297.378906 L 146.441406 296.875 L 146.8125 317.871094 L 118.316406 318.375 Z M 117.945312 297.378906 " clip-rule="nonzero"/></clipPath><clipPath id="1259dc2a9d"><path d="M 80 284 L 100 284 L 100 306 L 80 306 Z M 80 284 " clip-rule="nonzero"/></clipPath><clipPath id="2e7f88d1c3"><path d="M 81.105469 277.734375 L 105.09375 293.121094 L 93.757812 310.796875 L 69.765625 295.410156 Z M 81.105469 277.734375 " clip-rule="nonzero"/></clipPath><clipPath id="babe62258f"><path d="M 81.105469 277.734375 L 105.09375 293.121094 L 93.757812 310.796875 L 69.765625 295.410156 Z M 81.105469 277.734375 " clip-rule="nonzero"/></clipPath><clipPath id="54d7b3bf67"><path d="M 70 278 L 90 278 L 90 300 L 70 300 Z M 70 278 " clip-rule="nonzero"/></clipPath><clipPath id="95e9058031"><path d="M 81.105469 277.734375 L 105.09375 293.121094 L 93.757812 310.796875 L 69.765625 295.410156 Z M 81.105469 277.734375 " clip-rule="nonzero"/></clipPath><clipPath id="94a3447589"><path d="M 81.105469 277.734375 L 105.09375 293.121094 L 93.757812 310.796875 L 69.765625 295.410156 Z M 81.105469 277.734375 " clip-rule="nonzero"/></clipPath><clipPath id="67ac03b493"><path d="M 42 264 L 62 264 L 62 285 L 42 285 Z M 42 264 " clip-rule="nonzero"/></clipPath><clipPath id="a4bd5d6857"><path d="M 48.058594 255.742188 L 68.585938 275.511719 L 54.019531 290.636719 L 33.492188 270.867188 Z M 48.058594 255.742188 " clip-rule="nonzero"/></clipPath><clipPath id="2cf71626df"><path d="M 48.058594 255.742188 L 68.585938 275.511719 L 54.019531 290.636719 L 33.492188 270.867188 Z M 48.058594 255.742188 " clip-rule="nonzero"/></clipPath><clipPath id="2eb64e37fb"><path d="M 33 256 L 54 256 L 54 276 L 33 276 Z M 33 256 " clip-rule="nonzero"/></clipPath><clipPath id="4c6b5cb8b4"><path d="M 48.058594 255.742188 L 68.585938 275.511719 L 54.019531 290.636719 L 33.492188 270.867188 Z M 48.058594 255.742188 " clip-rule="nonzero"/></clipPath><clipPath id="d92f47a087"><path d="M 48.058594 255.742188 L 68.585938 275.511719 L 54.019531 290.636719 L 33.492188 270.867188 Z M 48.058594 255.742188 " clip-rule="nonzero"/></clipPath><clipPath id="796c441acf"><path d="M 19 232 L 41 232 L 41 251 L 19 251 Z M 19 232 " clip-rule="nonzero"/></clipPath><clipPath id="f7023ae99b"><path d="M 31.21875 221.023438 L 45.539062 245.664062 L 27.386719 256.21875 L 13.0625 231.578125 Z M 31.21875 221.023438 " clip-rule="nonzero"/></clipPath><clipPath id="78e0c315de"><path d="M 31.21875 221.023438 L 45.539062 245.664062 L 27.386719 256.21875 L 13.0625 231.578125 Z M 31.21875 221.023438 " clip-rule="nonzero"/></clipPath><clipPath id="f218d7af6f"><path d="M 13 221 L 35 221 L 35 241 L 13 241 Z M 13 221 " clip-rule="nonzero"/></clipPath><clipPath id="ca629786ea"><path d="M 31.21875 221.023438 L 45.539062 245.664062 L 27.386719 256.21875 L 13.0625 231.578125 Z M 31.21875 221.023438 " clip-rule="nonzero"/></clipPath><clipPath id="10c853b739"><path d="M 31.21875 221.023438 L 45.539062 245.664062 L 27.386719 256.21875 L 13.0625 231.578125 Z M 31.21875 221.023438 " clip-rule="nonzero"/></clipPath><clipPath id="bdad521eb7"><path d="M 8.878906 184 L 29.878906 184 L 29.878906 200.4375 L 8.878906 200.4375 Z M 8.878906 184 " clip-rule="nonzero"/></clipPath><clipPath id="8517388d6c"><path d="M 8.878906 171.9375 L 29.878906 171.9375 L 29.878906 188 L 8.878906 188 Z M 8.878906 171.9375 " clip-rule="nonzero"/></clipPath><clipPath id="f475102882"><path d="M 18 126 L 39 126 L 39 146 L 18 146 Z M 18 126 " clip-rule="nonzero"/></clipPath><clipPath id="b819b5f4e1"><path d="M 46.378906 127.648438 L 30.144531 151.074219 L 12.882812 139.109375 L 29.117188 115.6875 Z M 46.378906 127.648438 " clip-rule="nonzero"/></clipPath><clipPath id="b29c0f1c49"><path d="M 46.378906 127.648438 L 30.144531 151.074219 L 12.882812 139.109375 L 29.117188 115.6875 Z M 46.378906 127.648438 " clip-rule="nonzero"/></clipPath><clipPath id="ccc0978301"><path d="M 25 116 L 46 116 L 46 136 L 25 136 Z M 25 116 " clip-rule="nonzero"/></clipPath><clipPath id="b2f76c0c29"><path d="M 46.378906 127.648438 L 30.144531 151.074219 L 12.882812 139.109375 L 29.117188 115.6875 Z M 46.378906 127.648438 " clip-rule="nonzero"/></clipPath><clipPath id="f13fab049d"><path d="M 46.378906 127.648438 L 30.144531 151.074219 L 12.882812 139.109375 L 29.117188 115.6875 Z M 46.378906 127.648438 " clip-rule="nonzero"/></clipPath><clipPath id="773e12fb45"><path d="M 44 90 L 64 90 L 64 111 L 44 111 Z M 44 90 " clip-rule="nonzero"/></clipPath><clipPath id="4f1aba4475"><path d="M 72.519531 97.335938 L 51.425781 116.5 L 37.304688 100.957031 L 58.398438 81.792969 Z M 72.519531 97.335938 " clip-rule="nonzero"/></clipPath><clipPath id="57466923e7"><path d="M 72.519531 97.335938 L 51.425781 116.5 L 37.304688 100.957031 L 58.398438 81.792969 Z M 72.519531 97.335938 " clip-rule="nonzero"/></clipPath><clipPath id="46d0864f77"><path d="M 53 82 L 73 82 L 73 102 L 53 102 Z M 53 82 " clip-rule="nonzero"/></clipPath><clipPath id="81fdd0bf38"><path d="M 72.519531 97.335938 L 51.425781 116.5 L 37.304688 100.957031 L 58.398438 81.792969 Z M 72.519531 97.335938 " clip-rule="nonzero"/></clipPath><clipPath id="41e242cbe2"><path d="M 72.519531 97.335938 L 51.425781 116.5 L 37.304688 100.957031 L 58.398438 81.792969 Z M 72.519531 97.335938 " clip-rule="nonzero"/></clipPath><clipPath id="3b426abc92"><path d="M 74 67 L 94 67 L 94 90 L 74 90 Z M 74 67 " clip-rule="nonzero"/></clipPath><clipPath id="e0894f3b4d"><path d="M 104.921875 81.058594 L 79.34375 93.632812 L 70.078125 74.785156 L 95.65625 62.214844 Z M 104.921875 81.058594 " clip-rule="nonzero"/></clipPath><clipPath id="ee1689de17"><path d="M 104.921875 81.058594 L 79.34375 93.632812 L 70.078125 74.785156 L 95.65625 62.214844 Z M 104.921875 81.058594 " clip-rule="nonzero"/></clipPath><clipPath id="dfeb1d83a1"><path d="M 85 62 L 105 62 L 105 85 L 85 85 Z M 85 62 " clip-rule="nonzero"/></clipPath><clipPath id="f3cbc7a09f"><path d="M 104.921875 81.058594 L 79.34375 93.632812 L 70.078125 74.785156 L 95.65625 62.214844 Z M 104.921875 81.058594 " clip-rule="nonzero"/></clipPath><clipPath id="051b98c665"><path d="M 104.921875 81.058594 L 79.34375 93.632812 L 70.078125 74.785156 L 95.65625 62.214844 Z M 104.921875 81.058594 " clip-rule="nonzero"/></clipPath><clipPath id="3ab825caff"><path d="M 117.785156 57.015625 L 135 57.015625 L 135 78 L 117.785156 78 Z M 117.785156 57.015625 " clip-rule="nonzero"/></clipPath><clipPath id="cea3eeab7e"><path d="M 130 57.015625 L 146.285156 57.015625 L 146.285156 78 L 130 78 Z M 130 57.015625 " clip-rule="nonzero"/></clipPath><clipPath id="437245cf45"><path d="M 154 56 L 171 56 L 171 78 L 154 78 Z M 154 56 " clip-rule="nonzero"/></clipPath><clipPath id="0373b96c39"><path d="M 182.511719 78.015625 L 154.023438 77.15625 L 154.65625 56.164062 L 183.144531 57.023438 Z M 182.511719 78.015625 " clip-rule="nonzero"/></clipPath><clipPath id="bf82f65e5f"><path d="M 182.511719 78.015625 L 154.023438 77.15625 L 154.65625 56.164062 L 183.144531 57.023438 Z M 182.511719 78.015625 " clip-rule="nonzero"/></clipPath><clipPath id="8fe5cda051"><path d="M 166 56 L 184 56 L 184 78 L 166 78 Z M 166 56 " clip-rule="nonzero"/></clipPath><clipPath id="8a9f02a12d"><path d="M 182.511719 78.015625 L 154.023438 77.15625 L 154.65625 56.164062 L 183.144531 57.023438 Z M 182.511719 78.015625 " clip-rule="nonzero"/></clipPath><clipPath id="a062d69f4f"><path d="M 182.511719 78.015625 L 154.023438 77.15625 L 154.65625 56.164062 L 183.144531 57.023438 Z M 182.511719 78.015625 " clip-rule="nonzero"/></clipPath><clipPath id="9666180a14"><path d="M 266 56 L 283 56 L 283 78 L 266 78 Z M 266 56 " clip-rule="nonzero"/></clipPath><clipPath id="2fa297603c"><path d="M 294.164062 78.015625 L 265.675781 77.15625 L 266.308594 56.164062 L 294.796875 57.023438 Z M 294.164062 78.015625 " clip-rule="nonzero"/></clipPath><clipPath id="601b43a918"><path d="M 294.164062 78.015625 L 265.675781 77.15625 L 266.308594 56.164062 L 294.796875 57.023438 Z M 294.164062 78.015625 " clip-rule="nonzero"/></clipPath><clipPath id="fc883fcefc"><path d="M 278 56 L 295 56 L 295 78 L 278 78 Z M 278 56 " clip-rule="nonzero"/></clipPath><clipPath id="f313dbf15d"><path d="M 294.164062 78.015625 L 265.675781 77.15625 L 266.308594 56.164062 L 294.796875 57.023438 Z M 294.164062 78.015625 " clip-rule="nonzero"/></clipPath><clipPath id="36d374b2e3"><path d="M 294.164062 78.015625 L 265.675781 77.15625 L 266.308594 56.164062 L 294.796875 57.023438 Z M 294.164062 78.015625 " clip-rule="nonzero"/></clipPath><clipPath id="8738d6234c"><path d="M 229 56 L 246 56 L 246 78 L 229 78 Z M 229 56 " clip-rule="nonzero"/></clipPath><clipPath id="da4a5c6f71"><path d="M 257.039062 78.015625 L 228.550781 77.15625 L 229.183594 56.164062 L 257.671875 57.023438 Z M 257.039062 78.015625 " clip-rule="nonzero"/></clipPath><clipPath id="2727825142"><path d="M 257.039062 78.015625 L 228.550781 77.15625 L 229.183594 56.164062 L 257.671875 57.023438 Z M 257.039062 78.015625 " clip-rule="nonzero"/></clipPath><clipPath id="619635b885"><path d="M 241 56 L 258 56 L 258 78 L 241 78 Z M 241 56 " clip-rule="nonzero"/></clipPath><clipPath id="bc30f823bc"><path d="M 257.039062 78.015625 L 228.550781 77.15625 L 229.183594 56.164062 L 257.671875 57.023438 Z M 257.039062 78.015625 " clip-rule="nonzero"/></clipPath><clipPath id="e7698dad1e"><path d="M 257.039062 78.015625 L 228.550781 77.15625 L 229.183594 56.164062 L 257.671875 57.023438 Z M 257.039062 78.015625 " clip-rule="nonzero"/></clipPath><clipPath id="27afb577d8"><path d="M 192 56 L 209 56 L 209 78 L 192 78 Z M 192 56 " clip-rule="nonzero"/></clipPath><clipPath id="9f7ca31565"><path d="M 220.523438 78.015625 L 192.035156 77.15625 L 192.667969 56.164062 L 221.15625 57.023438 Z M 220.523438 78.015625 " clip-rule="nonzero"/></clipPath><clipPath id="cc4bcf48ef"><path d="M 220.523438 78.015625 L 192.035156 77.15625 L 192.667969 56.164062 L 221.15625 57.023438 Z M 220.523438 78.015625 " clip-rule="nonzero"/></clipPath><clipPath id="da272b3c4b"><path d="M 204 56 L 222 56 L 222 78 L 204 78 Z M 204 56 " clip-rule="nonzero"/></clipPath><clipPath id="a4f1e5022d"><path d="M 220.523438 78.015625 L 192.035156 77.15625 L 192.667969 56.164062 L 221.15625 57.023438 Z M 220.523438 78.015625 " clip-rule="nonzero"/></clipPath><clipPath id="dc7a6221b8"><path d="M 220.523438 78.015625 L 192.035156 77.15625 L 192.667969 56.164062 L 221.15625 57.023438 Z M 220.523438 78.015625 " clip-rule="nonzero"/></clipPath></defs><g clip-path="url(#abebc30b1a)"><g clip-path="url(#0500bdd067)"><path fill="#737373" d="M 303.75 52.777344 L 303.75 323.039062 L -0.132812 323.039062 L -0.132812 52.777344 Z M 303.75 52.777344 " fill-opacity="1" fill-rule="nonzero"/></g></g><g clip-path="url(#8efd6fe6a9)"><g clip-path="url(#345a8e79a7)"><path stroke-linecap="butt" transform="matrix(0.000000000000000046, 0.75, -0.75, 0.000000000000000046, 303.749959, 52.777335)" fill="none" stroke-linejoin="miter" d="M 120.062517 394.442673 C 138.520852 400.817674 159.505228 404.999965 180.098979 404.999965 C 200.69273 404.999965 220.505231 401.416632 238.770857 395.041632 C 239.156274 394.838507 239.546899 394.838507 239.937524 394.64059 C 308.515652 369.145797 359.03128 301.81246 360.00003 224.124956 L 360.00003 -0.0000552182 L 0.0000113526 -0.0000552182 L 0.0000113526 223.95829 C 0.97397 302.208294 50.708347 369.54163 120.062517 394.442673 " stroke="#000000" stroke-width="4" stroke-opacity="1" stroke-miterlimit="4"/></g></g><g clip-path="url(#04543de8aa)"><g clip-path="url(#3a905a23c0)"><g clip-path="url(#2d8badb2d5)"><path fill="#a6a6a6" d="M 290.933594 148.3125 L 180.394531 333.574219 L -4.867188 223.035156 L 105.671875 37.773438 Z M 290.933594 148.3125 " fill-opacity="1" fill-rule="nonzero"/></g></g></g><g clip-path="url(#a460bc7fd7)"><g clip-path="url(#2b9873b899)"><g clip-path="url(#c33e00f0bd)"><g clip-path="url(#b8e2c137c2)"><path stroke-linecap="butt" transform="matrix(-0.38429, 0.644066, -0.644066, -0.38429, 290.935155, 148.311542)" fill="none" stroke-linejoin="miter" d="M 144.001594 -0.00135159 C 64.471551 -0.00119861 0.0000228787 64.47319 -0.00249283 143.99876 C -0.00233985 223.528803 64.472049 288.000332 144.002092 288.000179 C 223.527662 288.002694 287.99919 223.528306 287.999037 143.998263 C 288.001553 64.472692 223.527165 0.00116411 144.001594 -0.00135159 " stroke="#000000" stroke-width="8" stroke-opacity="1" stroke-miterlimit="4"/></g></g></g></g><g clip-path="url(#6a400db78b)"><g clip-path="url(#f70ec4a5a9)"><g clip-path="url(#72fd41dfdd)"><path fill="#ffde59" d="M 206.308594 209.546875 L 197.667969 224.894531 L 169.851562 209.230469 L 178.492188 193.882812 Z M 206.308594 209.546875 " fill-opacity="1" fill-rule="nonzero"/></g></g></g><g clip-path="url(#10369b09c4)"><g clip-path="url(#1f490470a3)"><g clip-path="url(#5935a9d119)"><path fill="#ffde59" d="M 112.890625 194.390625 L 121.695312 209.648438 L 94.046875 225.605469 L 85.242188 210.347656 Z M 112.890625 194.390625 " fill-opacity="1" fill-rule="nonzero"/></g></g></g><g clip-path="url(#acdf08a952)"><g clip-path="url(#1bccd3ada2)"><g clip-path="url(#90d7c07e55)"><path fill="#ffde59" d="M 103.144531 136.746094 L 187.59375 136.222656 L 188.050781 209.460938 L 103.597656 209.984375 Z M 103.144531 136.746094 " fill-opacity="1" fill-rule="nonzero"/></g></g></g><g clip-path="url(#7099b89595)"><g clip-path="url(#9b71d758bd)"><g clip-path="url(#e702d81279)"><path fill="#ffde59" d="M 136.480469 128.644531 L 154.09375 128.535156 L 154.289062 160.457031 L 136.675781 160.566406 Z M 136.480469 128.644531 " fill-opacity="1" fill-rule="nonzero"/></g></g></g><g clip-path="url(#a4d7bc6b25)"><g clip-path="url(#55cffc7393)"><g clip-path="url(#cf6eed9ba5)"><path fill="#ffde59" d="M 116.964844 135.371094 L 117.898438 79.757812 L 173.511719 80.695312 L 172.578125 136.308594 Z M 116.964844 135.371094 " fill-opacity="1" fill-rule="nonzero"/></g></g></g><g clip-path="url(#d26ee92d51)"><g clip-path="url(#07584e8d8e)"><g clip-path="url(#60248bf0e0)"><g clip-path="url(#a8544358a8)"><path fill="#000000" d="M 120.421875 107.675781 C 120.328125 113.230469 121.917969 118.238281 125.191406 122.707031 L 120.363281 126.246094 C 116.296875 120.695312 114.320312 114.472656 114.4375 107.574219 Z M 126.886719 124.777344 C 130.632812 128.878906 135.21875 131.433594 140.648438 132.4375 L 139.5625 138.324219 C 132.8125 137.078125 127.113281 133.90625 122.460938 128.8125 Z M 143.296875 132.777344 C 143.78125 132.816406 144.269531 132.835938 144.761719 132.84375 C 149.785156 132.929688 154.398438 131.613281 158.601562 128.898438 L 161.851562 133.925781 C 156.632812 137.300781 150.898438 138.9375 144.660156 138.832031 C 144.054688 138.820312 143.449219 138.792969 142.847656 138.75 Z M 160.765625 127.324219 C 165.085938 123.820312 167.902344 119.386719 169.21875 114.019531 L 175.035156 115.449219 C 173.398438 122.117188 169.898438 127.625 164.539062 131.972656 Z M 169.710938 111.410156 C 169.839844 110.453125 169.914062 109.484375 169.929688 108.507812 C 170.003906 104 168.9375 99.796875 166.726562 95.898438 L 171.933594 92.941406 C 174.683594 97.789062 176.007812 103.011719 175.914062 108.609375 C 175.894531 109.816406 175.804688 111.015625 175.644531 112.207031 Z M 165.285156 93.648438 C 162.039062 89.136719 157.777344 86.066406 152.5 84.4375 L 154.269531 78.714844 C 160.824219 80.742188 166.117188 84.554688 170.144531 90.152344 Z M 149.90625 83.789062 C 148.488281 83.515625 147.050781 83.363281 145.59375 83.339844 C 141.59375 83.273438 137.8125 84.117188 134.253906 85.871094 L 131.605469 80.5 C 136.035156 78.320312 140.730469 77.269531 145.695312 77.355469 C 147.5 77.382812 149.28125 77.570312 151.042969 77.910156 Z M 131.925781 87.175781 C 127.238281 90.152344 123.925781 94.230469 121.984375 99.40625 L 116.378906 97.308594 C 118.785156 90.878906 122.898438 85.816406 128.71875 82.121094 Z M 121.183594 101.960938 C 120.710938 103.824219 120.457031 105.730469 120.421875 107.675781 L 114.4375 107.574219 C 114.476562 105.164062 114.792969 102.800781 115.382812 100.484375 Z M 121.183594 101.960938 " fill-opacity="1" fill-rule="nonzero"/></g></g></g></g><g clip-path="url(#0efbb843d9)"><g clip-path="url(#882d15bf33)"><g clip-path="url(#cd5a1caacd)"><path fill="#ffde59" d="M 39.667969 215.199219 L 87.675781 187.109375 L 115.769531 235.113281 L 67.761719 263.207031 Z M 39.667969 215.199219 " fill-opacity="1" fill-rule="nonzero"/></g></g></g><g clip-path="url(#e23af9a162)"><g clip-path="url(#f16e756764)"><g clip-path="url(#47626ac9f3)"><g clip-path="url(#b4209dc373)"><path fill="#000000" d="M 65.132812 203.769531 C 60.339844 206.574219 56.882812 210.535156 54.765625 215.648438 L 49.234375 213.359375 C 51.863281 207.003906 56.15625 202.082031 62.109375 198.601562 Z M 53.878906 218.171875 C 52.316406 223.503906 52.519531 228.753906 54.484375 233.914062 L 48.886719 236.042969 C 46.445312 229.628906 46.191406 223.109375 48.132812 216.488281 Z M 55.566406 236.351562 C 55.785156 236.785156 56.019531 237.214844 56.269531 237.636719 C 58.804688 241.976562 62.328125 245.234375 66.832031 247.414062 L 64.226562 252.804688 C 58.628906 250.097656 54.253906 246.050781 51.101562 240.660156 C 50.792969 240.140625 50.503906 239.609375 50.230469 239.070312 Z M 69.300781 248.445312 C 74.539062 250.316406 79.792969 250.417969 85.058594 248.757812 L 86.859375 254.46875 C 80.3125 256.535156 73.789062 256.40625 67.289062 254.085938 Z M 87.546875 247.824219 C 88.433594 247.433594 89.296875 246.996094 90.136719 246.503906 C 94.03125 244.222656 97.066406 241.128906 99.25 237.210938 L 104.480469 240.128906 C 101.769531 244.996094 97.996094 248.84375 93.160156 251.671875 C 92.121094 252.28125 91.046875 252.824219 89.949219 253.308594 Z M 100.421875 234.8125 C 102.589844 229.695312 103 224.460938 101.652344 219.105469 L 107.460938 217.644531 C 109.132812 224.296875 108.625 230.800781 105.9375 237.148438 Z M 100.859375 216.550781 C 100.359375 215.195312 99.738281 213.890625 99.003906 212.632812 C 96.980469 209.179688 94.296875 206.386719 90.949219 204.257812 L 94.164062 199.207031 C 98.328125 201.855469 101.664062 205.324219 104.167969 209.609375 C 105.082031 211.167969 105.847656 212.785156 106.472656 214.46875 Z M 88.625 202.949219 C 83.644531 200.488281 78.441406 199.773438 73.007812 200.808594 L 71.890625 194.925781 C 78.636719 193.644531 85.097656 194.527344 91.277344 197.582031 Z M 70.414062 201.449219 C 68.570312 202.011719 66.8125 202.785156 65.132812 203.769531 L 62.109375 198.601562 C 64.191406 197.382812 66.375 196.421875 68.660156 195.722656 Z M 70.414062 201.449219 " fill-opacity="1" fill-rule="nonzero"/></g></g></g></g><g clip-path="url(#2321c14573)"><g clip-path="url(#9ca0afe2b2)"><g clip-path="url(#369be93afb)"><path fill="#ffde59" d="M 182.230469 249.765625 L 183.167969 194.152344 L 238.78125 195.085938 L 237.847656 250.699219 Z M 182.230469 249.765625 " fill-opacity="1" fill-rule="nonzero"/></g></g></g><g clip-path="url(#9e3449d486)"><g clip-path="url(#7b2f1d28ea)"><g clip-path="url(#42757c47b9)"><g clip-path="url(#63fd19bc4c)"><path fill="#000000" d="M 185.691406 222.070312 C 185.597656 227.621094 187.1875 232.632812 190.460938 237.097656 L 185.628906 240.636719 C 181.5625 235.085938 179.589844 228.863281 179.707031 221.96875 Z M 192.152344 239.167969 C 195.898438 243.273438 200.488281 245.828125 205.917969 246.828125 L 204.832031 252.71875 C 198.082031 251.472656 192.382812 248.300781 187.730469 243.203125 Z M 208.566406 247.171875 C 209.050781 247.207031 209.539062 247.230469 210.027344 247.238281 C 215.054688 247.324219 219.667969 246.007812 223.871094 243.289062 L 227.121094 248.316406 C 221.898438 251.695312 216.167969 253.328125 209.925781 253.226562 C 209.320312 253.214844 208.71875 253.1875 208.117188 253.140625 Z M 226.035156 241.71875 C 230.351562 238.210938 233.171875 233.777344 234.488281 228.414062 L 240.300781 229.839844 C 238.664062 236.507812 235.167969 242.015625 229.808594 246.367188 Z M 234.980469 225.804688 C 235.109375 224.84375 235.179688 223.878906 235.199219 222.902344 C 235.273438 218.390625 234.207031 214.1875 231.992188 210.289062 L 237.199219 207.335938 C 239.949219 212.179688 241.277344 217.402344 241.183594 223.003906 C 241.164062 224.210938 241.074219 225.410156 240.914062 226.597656 Z M 230.550781 208.042969 C 227.308594 203.53125 223.046875 200.460938 217.769531 198.828125 L 219.535156 193.109375 C 226.09375 195.136719 231.382812 198.945312 235.414062 204.542969 Z M 215.175781 198.179688 C 213.757812 197.90625 212.320312 197.757812 210.859375 197.734375 C 206.863281 197.664062 203.082031 198.507812 199.523438 200.261719 L 196.875 194.890625 C 201.300781 192.710938 205.996094 191.664062 210.960938 191.746094 C 212.765625 191.777344 214.550781 191.960938 216.308594 192.300781 Z M 197.195312 201.570312 C 192.507812 204.546875 189.191406 208.625 187.253906 213.800781 L 181.648438 211.699219 C 184.054688 205.269531 188.167969 200.207031 193.988281 196.515625 Z M 186.453125 216.351562 C 185.980469 218.21875 185.726562 220.125 185.691406 222.070312 L 179.707031 221.96875 C 179.746094 219.558594 180.0625 217.191406 180.652344 214.875 Z M 186.453125 216.351562 " fill-opacity="1" fill-rule="nonzero"/></g></g></g></g><g clip-path="url(#9929aaa72b)"><g clip-path="url(#d1836d7fa8)"><g clip-path="url(#0206c46731)"><path fill="#707070" d="M 138.210938 101.101562 L 152.171875 101.011719 L 152.257812 114.972656 L 138.300781 115.058594 Z M 138.210938 101.101562 " fill-opacity="1" fill-rule="nonzero"/></g></g></g><g clip-path="url(#3c3e318b18)"><g clip-path="url(#24e23dcc99)"><g clip-path="url(#be43bf06a0)"><path fill="#707070" d="M 80.210938 215.609375 L 87.261719 227.65625 L 75.214844 234.707031 L 68.164062 222.65625 Z M 80.210938 215.609375 " fill-opacity="1" fill-rule="nonzero"/></g></g></g><g clip-path="url(#a7c567ba39)"><g clip-path="url(#73c4a6151a)"><g clip-path="url(#cdb9f75efb)"><path fill="#707070" d="M 203.976562 214.578125 L 217.933594 214.492188 L 218.023438 228.453125 L 204.0625 228.539062 Z M 203.976562 214.578125 " fill-opacity="1" fill-rule="nonzero"/></g></g></g><g clip-path="url(#772c2d59f7)"><g clip-path="url(#a4a464fc34)"><g clip-path="url(#f24f072abe)"><g clip-path="url(#95caa23388)"><path fill="#ffffff" d="M 209.425781 175.753906 C 209.464844 175.753906 209.496094 175.734375 209.519531 175.699219 C 209.664062 175.714844 209.722656 175.941406 209.90625 175.851562 C 210.351562 175.925781 210.550781 175.640625 210.703125 175.296875 C 211.132812 174.339844 211.398438 173.332031 211.601562 172.308594 C 212.332031 168.648438 212.257812 165.011719 211.539062 161.355469 C 210.28125 154.976562 207.039062 149.773438 202.339844 145.421875 C 200.160156 143.402344 197.667969 141.804688 195.09375 140.320312 C 193.582031 139.449219 192.023438 138.671875 190.480469 137.855469 C 190.414062 137.851562 190.34375 137.847656 190.277344 137.84375 C 190.230469 137.785156 190.15625 137.730469 190.144531 137.660156 C 190.136719 137.605469 190.210938 137.589844 190.269531 137.621094 C 190.949219 137.507812 191.628906 137.542969 192.304688 137.613281 C 192.769531 137.660156 193.222656 137.671875 193.675781 137.546875 C 194.671875 137.65625 195.339844 137.210938 195.5625 136.324219 C 193.898438 135.230469 192.03125 135.171875 190.125 135.265625 C 189.414062 135.300781 188.707031 135.285156 187.996094 135.285156 C 186.296875 135.277344 186.542969 135.375 185.824219 136.558594 C 185.660156 136.820312 185.5625 137.117188 185.5 137.421875 C 185.472656 137.535156 185.460938 137.640625 185.53125 137.738281 C 185.363281 138.050781 185.53125 138.292969 185.707031 138.519531 C 186.226562 139.195312 186.753906 139.863281 187.277344 140.535156 C 187.300781 140.738281 187.433594 140.871094 187.570312 141 C 187.585938 141.203125 187.722656 141.335938 187.851562 141.472656 C 187.835938 141.617188 187.949219 141.710938 188.007812 141.828125 C 188.808594 143.378906 189.421875 145 189.757812 146.722656 C 189.78125 146.851562 189.816406 146.980469 189.847656 147.109375 C 189.882812 147.261719 189.921875 147.4375 190.101562 147.449219 C 190.238281 147.460938 190.378906 147.332031 190.402344 147.21875 C 190.519531 146.71875 190.925781 146.367188 191.082031 145.894531 C 191.152344 145.683594 191.128906 145.464844 191.101562 145.242188 C 190.90625 143.515625 190.410156 141.875 189.742188 140.285156 C 189.683594 140.140625 189.597656 140.003906 189.570312 139.855469 C 189.539062 139.683594 189.675781 139.640625 189.824219 139.632812 C 189.90625 139.789062 190.039062 139.847656 190.210938 139.824219 C 190.3125 139.949219 190.425781 140.0625 190.613281 140.03125 C 190.621094 140.074219 190.644531 140.089844 190.6875 140.074219 C 190.78125 140.199219 190.890625 140.296875 191.066406 140.277344 C 191.148438 140.34375 191.226562 140.425781 191.320312 140.480469 C 192.347656 141.066406 193.386719 141.636719 194.410156 142.234375 C 195.339844 142.777344 196.25 143.351562 197.167969 143.910156 C 197.390625 144.089844 197.609375 144.273438 197.835938 144.441406 C 200.0625 146.082031 202.050781 147.964844 203.75 150.148438 C 204.355469 150.925781 204.9375 151.722656 205.527344 152.511719 C 205.550781 152.726562 205.695312 152.859375 205.839844 152.992188 C 205.855469 153.199219 205.992188 153.328125 206.128906 153.457031 C 206.128906 153.65625 206.269531 153.769531 206.386719 153.898438 C 206.375 154.03125 206.441406 154.117188 206.539062 154.1875 C 206.539062 154.234375 206.5625 154.265625 206.605469 154.285156 C 206.597656 154.429688 206.703125 154.523438 206.757812 154.636719 C 207.03125 155.207031 207.40625 155.722656 207.605469 156.328125 C 207.679688 156.34375 207.804688 156.476562 207.753906 156.242188 C 207.722656 156.085938 207.753906 156.050781 207.804688 156.0625 C 207.851562 156.074219 207.914062 156.117188 207.96875 156.144531 C 208.769531 157.96875 209.34375 159.875 209.789062 161.820312 C 209.816406 162.003906 209.839844 162.1875 209.863281 162.371094 C 210.011719 163.472656 210.160156 164.578125 210.308594 165.675781 C 210.285156 165.71875 210.277344 165.757812 210.285156 165.792969 C 210.289062 165.820312 210.300781 165.84375 210.320312 165.867188 C 210.28125 165.933594 210.285156 165.996094 210.332031 166.054688 C 210.289062 166.121094 210.296875 166.183594 210.34375 166.242188 C 210.300781 166.308594 210.304688 166.371094 210.351562 166.429688 C 210.308594 166.496094 210.308594 166.558594 210.359375 166.617188 C 210.3125 166.683594 210.316406 166.746094 210.367188 166.804688 L 210.367188 166.808594 C 210.320312 166.871094 210.320312 166.933594 210.371094 166.992188 L 210.371094 166.996094 C 210.367188 167.054688 210.367188 167.117188 210.371094 167.179688 L 210.371094 167.183594 C 210.328125 167.246094 210.328125 167.308594 210.375 167.367188 L 210.375 167.375 C 210.332031 167.4375 210.328125 167.496094 210.378906 167.558594 L 210.378906 167.5625 C 210.378906 167.5625 210.375 167.566406 210.375 167.566406 C 210.375 167.566406 210.378906 167.5625 210.378906 167.5625 C 210.328125 167.625 210.332031 167.6875 210.378906 167.746094 L 210.378906 167.75 C 210.332031 167.8125 210.332031 167.875 210.378906 167.933594 L 210.378906 167.9375 C 210.332031 168 210.332031 168.0625 210.378906 168.125 C 210.339844 168.703125 210.296875 169.277344 210.257812 169.855469 C 210.332031 170.160156 210.253906 170.460938 210.21875 170.765625 C 210.1875 170.777344 210.152344 170.78125 210.121094 170.78125 C 210.074219 170.777344 210.03125 170.761719 209.984375 170.730469 C 209.9375 170.953125 209.867188 171.175781 209.921875 171.410156 C 209.945312 171.476562 209.960938 171.546875 209.941406 171.621094 C 209.9375 171.550781 209.929688 171.480469 209.921875 171.410156 C 209.890625 171.476562 209.871094 171.546875 209.929688 171.605469 C 209.847656 171.691406 209.832031 171.789062 209.859375 171.898438 C 209.804688 171.953125 209.789062 172.011719 209.832031 172.074219 C 209.792969 172.144531 209.773438 172.207031 209.8125 172.28125 C 209.789062 172.3125 209.777344 172.34375 209.785156 172.382812 C 209.699219 172.59375 209.65625 172.8125 209.667969 173.039062 C 209.613281 173.191406 209.554688 173.34375 209.585938 173.511719 C 209.515625 173.59375 209.515625 173.695312 209.511719 173.796875 C 209.296875 174.398438 209.191406 175.03125 208.847656 175.617188 C 209.085938 175.636719 209.207031 175.863281 209.425781 175.753906 Z M 190.78125 139.980469 C 190.78125 139.984375 190.78125 139.984375 190.78125 139.984375 C 190.785156 139.984375 190.78125 139.980469 190.78125 139.980469 C 190.785156 139.984375 190.785156 139.984375 190.785156 139.984375 C 190.785156 139.984375 190.78125 139.984375 190.78125 139.984375 C 190.78125 139.984375 190.78125 139.984375 190.777344 139.988281 C 190.777344 139.984375 190.78125 139.984375 190.78125 139.980469 Z M 210.746094 167.707031 C 210.75 167.695312 210.75 167.679688 210.753906 167.664062 C 210.753906 167.667969 210.753906 167.671875 210.753906 167.675781 C 210.753906 167.6875 210.753906 167.703125 210.753906 167.714844 C 210.753906 167.714844 210.75 167.710938 210.746094 167.707031 Z M 210.3125 165.683594 C 210.316406 165.683594 210.316406 165.6875 210.316406 165.683594 C 210.324219 165.683594 210.328125 165.683594 210.332031 165.683594 L 210.351562 165.6875 L 210.316406 165.6875 C 210.316406 165.6875 210.316406 165.6875 210.3125 165.683594 Z M 210.804688 167.746094 C 210.789062 167.738281 210.773438 167.726562 210.757812 167.71875 C 210.757812 167.703125 210.757812 167.691406 210.757812 167.679688 C 210.761719 167.707031 210.777344 167.730469 210.804688 167.746094 Z M 210.757812 167.59375 C 210.757812 167.578125 210.757812 167.5625 210.761719 167.550781 C 210.761719 167.546875 210.761719 167.546875 210.761719 167.546875 C 210.761719 167.5625 210.757812 167.578125 210.757812 167.59375 Z M 210.179688 174.808594 C 210.179688 174.808594 210.179688 174.8125 210.179688 174.8125 C 210.179688 174.8125 210.179688 174.816406 210.179688 174.816406 C 210.175781 174.816406 210.175781 174.820312 210.175781 174.820312 C 210.175781 174.816406 210.175781 174.8125 210.179688 174.808594 Z M 210.273438 174.542969 C 210.273438 174.539062 210.277344 174.539062 210.277344 174.535156 C 210.273438 174.535156 210.273438 174.539062 210.273438 174.542969 Z M 209.996094 171.722656 C 210.007812 171.730469 210.023438 171.734375 210.039062 171.738281 C 210.03125 171.746094 210.027344 171.753906 210.019531 171.757812 C 210.011719 171.746094 210.003906 171.734375 209.996094 171.722656 Z M 209.859375 172.203125 C 209.859375 172.226562 209.851562 172.25 209.835938 172.273438 C 209.835938 172.273438 209.835938 172.273438 209.832031 172.273438 C 209.847656 172.25 209.859375 172.226562 209.859375 172.203125 Z M 209.859375 172.203125 " fill-opacity="1" fill-rule="nonzero"/></g></g></g></g><g clip-path="url(#7dbadb5330)"><g clip-path="url(#782e177d00)"><g clip-path="url(#bd386b32d9)"><g clip-path="url(#ec875e56e7)"><path fill="#ffffff" d="M 210.375 167.1875 C 210.375 167.125 210.375 167.066406 210.375 167.003906 C 210.328125 167.070312 210.328125 167.128906 210.375 167.1875 Z M 210.375 167.1875 " fill-opacity="1" fill-rule="nonzero"/></g></g></g></g><g clip-path="url(#fc57ec7046)"><g clip-path="url(#b841b968b5)"><g clip-path="url(#22c9355e5f)"><g clip-path="url(#1261605828)"><path fill="#ffffff" d="M 123.464844 246.359375 C 123.441406 246.394531 123.4375 246.429688 123.453125 246.46875 C 123.359375 246.582031 123.140625 246.496094 123.105469 246.699219 C 122.789062 247.019531 122.914062 247.347656 123.101562 247.667969 C 123.636719 248.574219 124.308594 249.371094 125.027344 250.125 C 127.605469 252.828125 130.617188 254.863281 134.023438 256.378906 C 139.960938 259.023438 146.082031 259.363281 152.347656 258.027344 C 155.253906 257.410156 157.996094 256.289062 160.6875 255.039062 C 162.269531 254.304688 163.804688 253.476562 165.359375 252.683594 C 165.402344 252.632812 165.445312 252.578125 165.488281 252.523438 C 165.5625 252.519531 165.648438 252.492188 165.710938 252.523438 C 165.710938 252.523438 165.710938 252.523438 165.714844 252.523438 C 165.761719 252.546875 165.730469 252.617188 165.675781 252.644531 C 165.375 253.265625 164.957031 253.800781 164.507812 254.316406 C 164.203125 254.667969 163.933594 255.03125 163.773438 255.476562 C 163.109375 256.226562 163.089844 257.027344 163.6875 257.722656 C 165.539062 256.988281 166.664062 255.496094 167.683594 253.882812 C 168.066406 253.285156 168.484375 252.710938 168.894531 252.132812 C 169.875 250.75 169.65625 250.894531 169.101562 249.625 C 168.980469 249.339844 168.792969 249.089844 168.582031 248.859375 C 168.503906 248.773438 168.425781 248.703125 168.304688 248.707031 C 168.144531 248.390625 167.851562 248.386719 167.566406 248.398438 C 166.714844 248.433594 165.863281 248.480469 165.011719 248.523438 C 164.835938 248.425781 164.648438 248.457031 164.464844 248.496094 C 164.289062 248.390625 164.101562 248.425781 163.917969 248.453125 C 163.804688 248.355469 163.664062 248.394531 163.535156 248.375 C 161.804688 248.136719 160.128906 247.707031 158.527344 246.988281 C 158.40625 246.933594 158.28125 246.890625 158.15625 246.839844 C 158.011719 246.78125 157.847656 246.714844 157.734375 246.851562 C 157.644531 246.957031 157.671875 247.144531 157.75 247.230469 C 158.089844 247.617188 158.144531 248.148438 158.441406 248.546875 C 158.574219 248.726562 158.765625 248.835938 158.964844 248.941406 C 160.488281 249.777344 162.113281 250.3125 163.800781 250.683594 C 163.949219 250.714844 164.109375 250.726562 164.246094 250.789062 C 164.410156 250.863281 164.363281 251 164.285156 251.125 C 164.109375 251.101562 163.984375 251.175781 163.90625 251.328125 C 163.742188 251.34375 163.585938 251.367188 163.503906 251.539062 C 163.464844 251.519531 163.4375 251.53125 163.425781 251.574219 C 163.269531 251.582031 163.128906 251.617188 163.042969 251.769531 C 162.9375 251.796875 162.828125 251.8125 162.730469 251.859375 C 161.660156 252.363281 160.59375 252.886719 159.515625 253.378906 C 158.539062 253.824219 157.546875 254.238281 156.558594 254.667969 C 156.285156 254.75 156.011719 254.820312 155.742188 254.910156 C 153.117188 255.785156 150.433594 256.324219 147.671875 256.460938 C 146.6875 256.507812 145.699219 256.523438 144.714844 256.554688 C 144.527344 256.449219 144.332031 256.492188 144.140625 256.53125 C 143.964844 256.425781 143.78125 256.464844 143.59375 256.5 C 143.433594 256.386719 143.257812 256.4375 143.085938 256.453125 C 142.984375 256.371094 142.875 256.375 142.761719 256.417969 C 142.722656 256.390625 142.683594 256.386719 142.644531 256.414062 C 142.53125 256.324219 142.394531 256.355469 142.269531 256.335938 C 141.644531 256.230469 141.007812 256.238281 140.394531 256.054688 C 140.34375 256.105469 140.160156 256.132812 140.382812 256.226562 C 140.53125 256.289062 140.539062 256.335938 140.5 256.371094 C 140.464844 256.402344 140.390625 256.429688 140.339844 256.457031 C 138.382812 256.0625 136.496094 255.433594 134.652344 254.679688 C 134.484375 254.59375 134.320312 254.507812 134.15625 254.421875 C 133.167969 253.910156 132.183594 253.394531 131.195312 252.882812 C 131.175781 252.839844 131.148438 252.8125 131.113281 252.796875 C 131.089844 252.789062 131.0625 252.78125 131.035156 252.78125 C 131.003906 252.714844 130.949219 252.683594 130.875 252.683594 C 130.84375 252.613281 130.789062 252.582031 130.714844 252.585938 C 130.6875 252.511719 130.632812 252.480469 130.554688 252.484375 C 130.527344 252.414062 130.472656 252.378906 130.398438 252.382812 C 130.371094 252.308594 130.316406 252.277344 130.242188 252.28125 L 130.238281 252.28125 C 130.214844 252.207031 130.160156 252.171875 130.085938 252.179688 L 130.082031 252.175781 C 130.035156 252.140625 129.984375 252.105469 129.933594 252.074219 L 129.925781 252.070312 C 129.902344 251.996094 129.851562 251.960938 129.777344 251.964844 L 129.769531 251.960938 C 129.746094 251.890625 129.695312 251.855469 129.621094 251.859375 L 129.613281 251.855469 C 129.613281 251.855469 129.613281 251.851562 129.613281 251.851562 C 129.613281 251.851562 129.613281 251.855469 129.613281 251.855469 C 129.59375 251.78125 129.542969 251.746094 129.464844 251.75 L 129.460938 251.746094 C 129.4375 251.671875 129.386719 251.636719 129.308594 251.640625 C 129.28125 251.566406 129.230469 251.53125 129.15625 251.53125 C 128.707031 251.167969 128.257812 250.804688 127.808594 250.4375 C 127.515625 250.324219 127.3125 250.085938 127.085938 249.882812 C 127.097656 249.847656 127.113281 249.820312 127.132812 249.792969 C 127.160156 249.753906 127.199219 249.730469 127.25 249.710938 C 127.097656 249.542969 126.953125 249.359375 126.730469 249.269531 C 126.660156 249.25 126.597656 249.21875 126.546875 249.164062 C 126.605469 249.199219 126.667969 249.234375 126.730469 249.269531 C 126.691406 249.203125 126.648438 249.148438 126.566406 249.160156 C 126.546875 249.046875 126.472656 248.976562 126.367188 248.933594 C 126.355469 248.859375 126.316406 248.816406 126.238281 248.8125 C 126.207031 248.742188 126.164062 248.6875 126.082031 248.679688 C 126.070312 248.640625 126.050781 248.613281 126.011719 248.597656 C 125.890625 248.402344 125.738281 248.246094 125.542969 248.125 C 125.449219 247.992188 125.359375 247.855469 125.207031 247.785156 C 125.179688 247.675781 125.09375 247.621094 125.015625 247.558594 C 124.648438 247.039062 124.191406 246.585938 123.910156 245.96875 C 123.757812 246.152344 123.503906 246.121094 123.464844 246.359375 Z M 163.449219 251.707031 C 163.449219 251.707031 163.449219 251.707031 163.445312 251.707031 C 163.445312 251.707031 163.449219 251.707031 163.449219 251.707031 C 163.445312 251.707031 163.445312 251.707031 163.445312 251.707031 C 163.445312 251.703125 163.445312 251.703125 163.445312 251.699219 C 163.449219 251.703125 163.449219 251.703125 163.449219 251.707031 Z M 129.285156 252.070312 C 129.292969 252.082031 129.304688 252.09375 129.316406 252.105469 C 129.3125 252.101562 129.308594 252.101562 129.304688 252.097656 C 129.292969 252.089844 129.285156 252.085938 129.273438 252.074219 C 129.273438 252.074219 129.277344 252.074219 129.285156 252.070312 Z M 131.1875 252.882812 C 131.1875 252.886719 131.183594 252.886719 131.183594 252.886719 C 131.179688 252.890625 131.179688 252.898438 131.175781 252.898438 L 131.164062 252.914062 L 131.183594 252.886719 C 131.183594 252.882812 131.183594 252.882812 131.183594 252.882812 C 131.183594 252.882812 131.183594 252.882812 131.1875 252.882812 Z M 129.21875 252.097656 C 129.238281 252.089844 129.253906 252.082031 129.269531 252.078125 C 129.28125 252.085938 129.289062 252.089844 129.300781 252.097656 C 129.277344 252.085938 129.25 252.085938 129.21875 252.097656 Z M 129.371094 252.148438 C 129.382812 252.160156 129.394531 252.167969 129.40625 252.175781 C 129.40625 252.179688 129.40625 252.179688 129.40625 252.179688 C 129.394531 252.167969 129.382812 252.160156 129.371094 252.148438 Z M 123.804688 247.519531 C 123.804688 247.519531 123.800781 247.519531 123.800781 247.519531 C 123.800781 247.519531 123.796875 247.515625 123.796875 247.515625 C 123.796875 247.515625 123.796875 247.515625 123.796875 247.511719 C 123.800781 247.515625 123.800781 247.515625 123.804688 247.519531 Z M 123.96875 247.753906 C 123.96875 247.753906 123.96875 247.757812 123.972656 247.761719 C 123.972656 247.757812 123.96875 247.753906 123.96875 247.753906 Z M 126.433594 249.152344 C 126.417969 249.15625 126.40625 249.164062 126.394531 249.171875 C 126.394531 249.164062 126.390625 249.15625 126.390625 249.148438 C 126.402344 249.148438 126.417969 249.148438 126.433594 249.152344 Z M 126.117188 248.761719 C 126.097656 248.746094 126.082031 248.726562 126.074219 248.699219 C 126.074219 248.699219 126.074219 248.699219 126.078125 248.699219 C 126.085938 248.722656 126.097656 248.746094 126.117188 248.761719 Z M 126.117188 248.761719 " fill-opacity="1" fill-rule="nonzero"/></g></g></g></g><g clip-path="url(#c67d8cfcb5)"><g clip-path="url(#8191ca163f)"><g clip-path="url(#e702a5123d)"><g clip-path="url(#ee4ce188d3)"><path fill="#ffffff" d="M 129.921875 252.070312 C 129.972656 252.105469 130.023438 252.136719 130.074219 252.171875 C 130.046875 252.097656 129.996094 252.066406 129.921875 252.070312 Z M 129.921875 252.070312 " fill-opacity="1" fill-rule="nonzero"/></g></g></g></g><g clip-path="url(#dbd4d6c5a6)"><g clip-path="url(#76b9c8f88e)"><g clip-path="url(#06aba595a5)"><g clip-path="url(#eb142da6e8)"><path fill="#ffffff" d="M 104.199219 138.636719 C 104.183594 138.597656 104.15625 138.574219 104.113281 138.566406 C 104.078125 138.425781 104.269531 138.296875 104.125 138.152344 C 104.042969 137.707031 103.703125 137.621094 103.328125 137.59375 C 102.28125 137.519531 101.246094 137.617188 100.214844 137.777344 C 96.523438 138.351562 93.132812 139.667969 89.949219 141.601562 C 84.390625 144.976562 80.621094 149.808594 78.148438 155.71875 C 77 158.460938 76.359375 161.351562 75.851562 164.277344 C 75.554688 165.996094 75.359375 167.726562 75.125 169.457031 C 75.144531 169.519531 75.164062 169.585938 75.183594 169.652344 C 75.140625 169.71875 75.113281 169.804688 75.054688 169.839844 C 75.007812 169.867188 74.96875 169.800781 74.976562 169.738281 C 74.636719 169.136719 74.433594 168.488281 74.265625 167.828125 C 74.152344 167.375 74.007812 166.945312 73.734375 166.5625 C 73.496094 165.589844 72.847656 165.117188 71.9375 165.210938 C 71.484375 167.148438 72.070312 168.925781 72.8125 170.683594 C 73.089844 171.335938 73.320312 172.007812 73.5625 172.675781 C 74.140625 174.269531 74.144531 174.007812 75.503906 174.277344 C 75.808594 174.335938 76.121094 174.328125 76.429688 174.285156 C 76.542969 174.269531 76.644531 174.242188 76.714844 174.144531 C 77.0625 174.195312 77.234375 173.953125 77.386719 173.710938 C 77.84375 172.992188 78.289062 172.265625 78.738281 171.542969 C 78.921875 171.453125 79 171.28125 79.074219 171.105469 C 79.261719 171.023438 79.339844 170.851562 79.421875 170.683594 C 79.566406 170.644531 79.617188 170.507812 79.703125 170.414062 C 80.882812 169.128906 82.195312 167.992188 83.699219 167.089844 C 83.8125 167.019531 83.917969 166.941406 84.03125 166.871094 C 84.160156 166.785156 84.3125 166.6875 84.261719 166.515625 C 84.226562 166.382812 84.054688 166.296875 83.941406 166.308594 C 83.429688 166.371094 82.964844 166.113281 82.464844 166.128906 C 82.242188 166.136719 82.042969 166.230469 81.84375 166.332031 C 80.289062 167.109375 78.921875 168.140625 77.65625 169.316406 C 77.542969 169.417969 77.445312 169.546875 77.3125 169.621094 C 77.160156 169.714844 77.074219 169.597656 77.019531 169.460938 C 77.136719 169.332031 77.148438 169.1875 77.066406 169.035156 C 77.148438 168.894531 77.214844 168.75 77.121094 168.585938 C 77.160156 168.5625 77.164062 168.535156 77.136719 168.5 C 77.21875 168.367188 77.273438 168.230469 77.195312 168.074219 C 77.230469 167.972656 77.28125 167.875 77.296875 167.765625 C 77.496094 166.597656 77.671875 165.425781 77.882812 164.261719 C 78.074219 163.199219 78.296875 162.148438 78.507812 161.097656 C 78.597656 160.824219 78.699219 160.558594 78.777344 160.285156 C 79.554688 157.632812 80.640625 155.117188 82.101562 152.769531 C 82.625 151.933594 83.175781 151.113281 83.710938 150.289062 C 83.90625 150.191406 83.980469 150.011719 84.058594 149.828125 C 84.246094 149.742188 84.316406 149.570312 84.394531 149.398438 C 84.578125 149.328125 84.636719 149.15625 84.722656 149.003906 C 84.847656 148.972656 84.90625 148.878906 84.9375 148.761719 C 84.980469 148.746094 85.003906 148.714844 85.003906 148.667969 C 85.144531 148.625 85.195312 148.492188 85.285156 148.402344 C 85.726562 147.949219 86.082031 147.421875 86.582031 147.023438 C 86.570312 146.949219 86.652344 146.785156 86.449219 146.914062 C 86.3125 147 86.269531 146.980469 86.261719 146.925781 C 86.257812 146.878906 86.277344 146.804688 86.285156 146.75 C 87.722656 145.363281 89.3125 144.171875 90.984375 143.085938 C 91.148438 143 91.316406 142.910156 91.480469 142.824219 C 92.464844 142.308594 93.449219 141.789062 94.429688 141.273438 C 94.476562 141.28125 94.515625 141.273438 94.546875 141.253906 C 94.570312 141.238281 94.589844 141.222656 94.605469 141.195312 C 94.683594 141.210938 94.738281 141.183594 94.777344 141.121094 C 94.855469 141.136719 94.910156 141.109375 94.949219 141.046875 C 95.027344 141.0625 95.082031 141.039062 95.125 140.972656 C 95.199219 140.988281 95.257812 140.96875 95.296875 140.902344 C 95.375 140.921875 95.429688 140.898438 95.46875 140.832031 L 95.472656 140.828125 C 95.546875 140.851562 95.605469 140.828125 95.644531 140.761719 L 95.648438 140.761719 C 95.703125 140.742188 95.761719 140.722656 95.816406 140.695312 L 95.824219 140.695312 C 95.898438 140.714844 95.953125 140.695312 95.996094 140.628906 L 96 140.625 C 96.074219 140.648438 96.132812 140.625 96.171875 140.5625 L 96.179688 140.558594 C 96.253906 140.582031 96.308594 140.5625 96.351562 140.496094 L 96.355469 140.492188 C 96.429688 140.515625 96.484375 140.496094 96.527344 140.429688 L 96.53125 140.429688 C 96.605469 140.449219 96.664062 140.429688 96.707031 140.367188 C 97.261719 140.203125 97.816406 140.042969 98.371094 139.882812 C 98.632812 139.707031 98.941406 139.675781 99.238281 139.605469 C 99.261719 139.632812 99.277344 139.664062 99.285156 139.691406 C 99.300781 139.738281 99.300781 139.785156 99.285156 139.835938 C 99.515625 139.808594 99.746094 139.796875 99.945312 139.664062 C 100.003906 139.617188 100.066406 139.582031 100.140625 139.570312 C 100.078125 139.601562 100.011719 139.632812 99.945312 139.664062 C 100.023438 139.667969 100.09375 139.664062 100.128906 139.589844 C 100.234375 139.636719 100.332031 139.617188 100.429688 139.554688 C 100.496094 139.585938 100.554688 139.582031 100.601562 139.519531 C 100.679688 139.53125 100.75 139.53125 100.800781 139.464844 C 100.839844 139.480469 100.875 139.480469 100.90625 139.457031 C 101.136719 139.46875 101.355469 139.429688 101.566406 139.339844 C 101.726562 139.339844 101.890625 139.34375 102.035156 139.257812 C 102.136719 139.296875 102.234375 139.257812 102.328125 139.226562 C 102.96875 139.222656 103.597656 139.105469 104.269531 139.226562 C 104.203125 138.996094 104.375 138.804688 104.199219 138.636719 Z M 77.015625 168.445312 C 77.015625 168.441406 77.015625 168.441406 77.015625 168.441406 C 77.015625 168.441406 77.019531 168.441406 77.019531 168.441406 C 77.019531 168.441406 77.015625 168.441406 77.015625 168.441406 C 77.019531 168.441406 77.019531 168.445312 77.023438 168.441406 C 77.019531 168.445312 77.019531 168.445312 77.015625 168.445312 Z M 96.1875 140.164062 C 96.171875 140.164062 96.160156 140.167969 96.144531 140.171875 C 96.148438 140.167969 96.152344 140.167969 96.15625 140.164062 C 96.167969 140.160156 96.179688 140.15625 96.191406 140.152344 C 96.191406 140.152344 96.191406 140.15625 96.1875 140.164062 Z M 94.4375 141.265625 C 94.433594 141.261719 94.4375 141.261719 94.433594 141.261719 C 94.433594 141.253906 94.429688 141.25 94.429688 141.246094 L 94.425781 141.230469 L 94.4375 141.261719 C 94.4375 141.261719 94.4375 141.261719 94.441406 141.261719 C 94.4375 141.261719 94.4375 141.261719 94.4375 141.265625 Z M 96.203125 140.097656 C 96.199219 140.113281 96.195312 140.132812 96.191406 140.148438 C 96.179688 140.152344 96.167969 140.15625 96.15625 140.164062 C 96.179688 140.148438 96.199219 140.128906 96.203125 140.097656 Z M 96.074219 140.191406 C 96.0625 140.195312 96.046875 140.199219 96.035156 140.203125 C 96.03125 140.203125 96.03125 140.203125 96.03125 140.203125 C 96.046875 140.199219 96.0625 140.195312 96.074219 140.191406 Z M 103.050781 138.253906 C 103.050781 138.253906 103.054688 138.253906 103.054688 138.253906 C 103.054688 138.253906 103.058594 138.25 103.058594 138.25 C 103.058594 138.253906 103.0625 138.253906 103.0625 138.253906 C 103.058594 138.253906 103.054688 138.253906 103.050781 138.253906 Z M 102.769531 138.257812 C 102.765625 138.257812 102.761719 138.253906 102.757812 138.257812 C 102.761719 138.257812 102.765625 138.257812 102.769531 138.257812 Z M 100.214844 139.484375 C 100.21875 139.472656 100.21875 139.457031 100.214844 139.441406 C 100.226562 139.445312 100.234375 139.449219 100.242188 139.453125 C 100.230469 139.464844 100.222656 139.476562 100.214844 139.484375 Z M 100.714844 139.449219 C 100.738281 139.441406 100.761719 139.441406 100.789062 139.449219 C 100.761719 139.445312 100.738281 139.441406 100.714844 139.449219 Z M 100.714844 139.449219 " fill-opacity="1" fill-rule="nonzero"/></g></g></g></g><g clip-path="url(#3609a6de83)"><g clip-path="url(#16a05ca014)"><g clip-path="url(#f534752bf6)"><g clip-path="url(#26729ca5fa)"><path fill="#ffffff" d="M 95.828125 140.6875 C 95.769531 140.710938 95.710938 140.734375 95.65625 140.753906 C 95.730469 140.777344 95.789062 140.753906 95.828125 140.6875 Z M 95.828125 140.6875 " fill-opacity="1" fill-rule="nonzero"/></g></g></g></g><path stroke-linecap="butt" transform="matrix(0.74987, 0.00605191, -0.00605275, 0.749976, 136.490312, 77.868328)" fill="none" stroke-linejoin="miter" d="M -0.00220402 1.998562 L 223.03636 2.000901 " stroke="#000000" stroke-width="4" stroke-opacity="1" stroke-miterlimit="4"/><path stroke-linecap="butt" transform="matrix(0.750617, -0.00364086, 0.00363783, 0.749991, 135.126205, 291.168432)" fill="none" stroke-linejoin="miter" d="M -0.000887235 1.999401 L 224.814281 2.002221 " stroke="#000000" stroke-width="4" stroke-opacity="1" stroke-miterlimit="4"/><g clip-path="url(#77428c3edd)"><path fill="#38b6ff" d="M 294.695312 306.992188 L 286.203125 297.5 C 286.019531 297.296875 285.765625 297.183594 285.5 297.183594 L 279.835938 297.183594 C 279.464844 297.183594 279.128906 297.402344 278.972656 297.746094 C 278.824219 298.089844 278.886719 298.488281 279.136719 298.765625 L 287.058594 307.628906 L 279.136719 316.484375 C 278.886719 316.765625 278.820312 317.164062 278.972656 317.507812 C 279.128906 317.851562 279.464844 318.070312 279.835938 318.070312 L 285.5 318.070312 C 285.765625 318.070312 286.019531 317.953125 286.203125 317.757812 L 294.695312 308.261719 C 295.015625 307.902344 295.015625 307.351562 294.695312 306.992188 Z M 294.695312 306.992188 " fill-opacity="1" fill-rule="nonzero"/></g><g clip-path="url(#bbff8c5c0d)"><path fill="#38b6ff" d="M 282.425781 306.992188 L 273.933594 297.5 C 273.75 297.296875 273.5 297.183594 273.230469 297.183594 L 267.570312 297.183594 C 267.195312 297.183594 266.859375 297.402344 266.707031 297.746094 C 266.554688 298.089844 266.617188 298.488281 266.867188 298.765625 L 274.792969 307.628906 L 266.867188 316.484375 C 266.617188 316.765625 266.554688 317.164062 266.707031 317.507812 C 266.859375 317.851562 267.195312 318.070312 267.570312 318.070312 L 273.230469 318.070312 C 273.5 318.070312 273.75 317.953125 273.933594 317.757812 L 282.425781 308.261719 C 282.75 307.902344 282.75 307.351562 282.425781 306.992188 Z M 282.425781 306.992188 " fill-opacity="1" fill-rule="nonzero"/></g><g clip-path="url(#717b47b633)"><path fill="#5ce1e6" d="M 257.570312 306.992188 L 249.078125 297.5 C 248.894531 297.296875 248.640625 297.183594 248.375 297.183594 L 242.710938 297.183594 C 242.339844 297.183594 242.003906 297.402344 241.847656 297.746094 C 241.699219 298.089844 241.761719 298.488281 242.007812 298.765625 L 249.933594 307.628906 L 242.007812 316.484375 C 241.761719 316.765625 241.695312 317.164062 241.847656 317.507812 C 242.003906 317.851562 242.339844 318.070312 242.710938 318.070312 L 248.375 318.070312 C 248.640625 318.070312 248.894531 317.953125 249.078125 317.757812 L 257.570312 308.261719 C 257.890625 307.902344 257.890625 307.351562 257.570312 306.992188 Z M 257.570312 306.992188 " fill-opacity="1" fill-rule="nonzero"/></g><g clip-path="url(#1ac6b33cc8)"><path fill="#5ce1e6" d="M 245.300781 306.992188 L 236.808594 297.5 C 236.625 297.296875 236.375 297.183594 236.105469 297.183594 L 230.445312 297.183594 C 230.070312 297.183594 229.734375 297.402344 229.582031 297.746094 C 229.429688 298.089844 229.492188 298.488281 229.742188 298.765625 L 237.667969 307.628906 L 229.742188 316.484375 C 229.492188 316.765625 229.429688 317.164062 229.582031 317.507812 C 229.734375 317.851562 230.070312 318.070312 230.445312 318.070312 L 236.105469 318.070312 C 236.375 318.070312 236.625 317.953125 236.808594 317.757812 L 245.300781 308.261719 C 245.625 307.902344 245.625 307.351562 245.300781 306.992188 Z M 245.300781 306.992188 " fill-opacity="1" fill-rule="nonzero"/></g><g clip-path="url(#2c475c17ac)"><path fill="#38b6ff" d="M 220.445312 306.992188 L 211.953125 297.5 C 211.769531 297.296875 211.515625 297.183594 211.25 297.183594 L 205.585938 297.183594 C 205.214844 297.183594 204.878906 297.402344 204.722656 297.746094 C 204.574219 298.089844 204.636719 298.488281 204.886719 298.765625 L 212.808594 307.628906 L 204.886719 316.484375 C 204.636719 316.765625 204.570312 317.164062 204.722656 317.507812 C 204.878906 317.851562 205.214844 318.070312 205.585938 318.070312 L 211.25 318.070312 C 211.515625 318.070312 211.769531 317.953125 211.953125 317.757812 L 220.445312 308.261719 C 220.765625 307.902344 220.765625 307.351562 220.445312 306.992188 Z M 220.445312 306.992188 " fill-opacity="1" fill-rule="nonzero"/></g><g clip-path="url(#1a9041bd25)"><path fill="#38b6ff" d="M 208.175781 306.992188 L 199.683594 297.5 C 199.5 297.296875 199.25 297.183594 198.980469 297.183594 L 193.320312 297.183594 C 192.945312 297.183594 192.609375 297.402344 192.457031 297.746094 C 192.304688 298.089844 192.367188 298.488281 192.617188 298.765625 L 200.542969 307.628906 L 192.617188 316.484375 C 192.367188 316.765625 192.304688 317.164062 192.457031 317.507812 C 192.609375 317.851562 192.945312 318.070312 193.320312 318.070312 L 198.980469 318.070312 C 199.25 318.070312 199.5 317.953125 199.683594 317.757812 L 208.175781 308.261719 C 208.5 307.902344 208.5 307.351562 208.175781 306.992188 Z M 208.175781 306.992188 " fill-opacity="1" fill-rule="nonzero"/></g><g clip-path="url(#a224202079)"><path fill="#38b6ff" d="M 183.320312 306.992188 L 174.828125 297.5 C 174.644531 297.296875 174.390625 297.183594 174.125 297.183594 L 168.460938 297.183594 C 168.089844 297.183594 167.753906 297.402344 167.597656 297.746094 C 167.449219 298.089844 167.511719 298.488281 167.761719 298.765625 L 175.683594 307.628906 L 167.761719 316.484375 C 167.511719 316.765625 167.445312 317.164062 167.597656 317.507812 C 167.753906 317.851562 168.089844 318.070312 168.460938 318.070312 L 174.125 318.070312 C 174.390625 318.070312 174.644531 317.953125 174.828125 317.757812 L 183.320312 308.261719 C 183.640625 307.902344 183.640625 307.351562 183.320312 306.992188 Z M 183.320312 306.992188 " fill-opacity="1" fill-rule="nonzero"/></g><g clip-path="url(#ce61ee61a1)"><path fill="#38b6ff" d="M 171.050781 306.992188 L 162.558594 297.5 C 162.375 297.296875 162.125 297.183594 161.855469 297.183594 L 156.195312 297.183594 C 155.820312 297.183594 155.484375 297.402344 155.332031 297.746094 C 155.179688 298.089844 155.242188 298.488281 155.492188 298.765625 L 163.417969 307.628906 L 155.492188 316.484375 C 155.242188 316.765625 155.179688 317.164062 155.332031 317.507812 C 155.484375 317.851562 155.820312 318.070312 156.195312 318.070312 L 161.855469 318.070312 C 162.125 318.070312 162.375 317.953125 162.558594 317.757812 L 171.050781 308.261719 C 171.375 307.902344 171.375 307.351562 171.050781 306.992188 Z M 171.050781 306.992188 " fill-opacity="1" fill-rule="nonzero"/></g><g clip-path="url(#2eb6946f78)"><g clip-path="url(#af3ae2dad4)"><g clip-path="url(#6a20ee7f15)"><path fill="#38b6ff" d="M 146.183594 306.746094 L 137.523438 297.402344 C 137.339844 297.207031 137.085938 297.097656 136.816406 297.101562 L 131.15625 297.199219 C 130.785156 297.207031 130.449219 297.433594 130.304688 297.777344 C 130.160156 298.125 130.226562 298.523438 130.480469 298.796875 L 138.5625 307.515625 L 130.792969 316.511719 C 130.550781 316.796875 130.492188 317.195312 130.652344 317.535156 C 130.8125 317.875 131.152344 318.089844 131.523438 318.085938 L 137.1875 317.984375 C 137.453125 317.980469 137.703125 317.859375 137.882812 317.660156 L 146.207031 308.015625 C 146.523438 307.648438 146.511719 307.097656 146.183594 306.746094 Z M 146.183594 306.746094 " fill-opacity="1" fill-rule="nonzero"/></g></g></g><g clip-path="url(#12f5f85a8d)"><g clip-path="url(#c6232c31df)"><g clip-path="url(#e420c7a97c)"><path fill="#38b6ff" d="M 133.917969 306.960938 L 125.257812 297.621094 C 125.074219 297.421875 124.820312 297.3125 124.550781 297.316406 L 118.890625 297.417969 C 118.519531 297.425781 118.183594 297.648438 118.035156 297.996094 C 117.890625 298.339844 117.960938 298.742188 118.214844 299.011719 L 126.296875 307.730469 L 118.527344 316.726562 C 118.285156 317.011719 118.226562 317.414062 118.386719 317.753906 C 118.546875 318.09375 118.886719 318.308594 119.257812 318.300781 L 124.921875 318.203125 C 125.1875 318.195312 125.4375 318.074219 125.617188 317.875 L 133.941406 308.234375 C 134.257812 307.867188 134.246094 307.316406 133.917969 306.960938 Z M 133.917969 306.960938 " fill-opacity="1" fill-rule="nonzero"/></g></g></g><g clip-path="url(#1259dc2a9d)"><g clip-path="url(#2e7f88d1c3)"><g clip-path="url(#babe62258f)"><path fill="#5ce1e6" d="M 99.40625 301.191406 L 97.382812 288.617188 C 97.335938 288.347656 97.1875 288.117188 96.960938 287.972656 L 92.195312 284.914062 C 91.882812 284.714844 91.476562 284.714844 91.164062 284.921875 C 90.851562 285.128906 90.6875 285.5 90.75 285.867188 L 92.636719 297.605469 L 81.183594 300.78125 C 80.824219 300.882812 80.550781 301.183594 80.496094 301.554688 C 80.441406 301.925781 80.605469 302.296875 80.917969 302.496094 L 85.683594 305.554688 C 85.910156 305.699219 86.183594 305.738281 86.445312 305.667969 L 98.71875 302.261719 C 99.1875 302.132812 99.484375 301.667969 99.40625 301.191406 Z M 99.40625 301.191406 " fill-opacity="1" fill-rule="nonzero"/></g></g></g><g clip-path="url(#54d7b3bf67)"><g clip-path="url(#95e9058031)"><g clip-path="url(#94a3447589)"><path fill="#5ce1e6" d="M 89.078125 294.570312 L 87.054688 281.992188 C 87.011719 281.726562 86.859375 281.492188 86.632812 281.347656 L 81.867188 278.292969 C 81.554688 278.089844 81.152344 278.09375 80.839844 278.296875 C 80.527344 278.507812 80.363281 278.878906 80.421875 279.246094 L 82.308594 290.980469 L 70.855469 294.160156 C 70.496094 294.257812 70.226562 294.5625 70.167969 294.933594 C 70.113281 295.304688 70.277344 295.671875 70.589844 295.871094 L 75.359375 298.929688 C 75.582031 299.074219 75.859375 299.113281 76.117188 299.046875 L 88.394531 295.640625 C 88.859375 295.507812 89.15625 295.046875 89.078125 294.570312 Z M 89.078125 294.570312 " fill-opacity="1" fill-rule="nonzero"/></g></g></g><g clip-path="url(#67ac03b493)"><g clip-path="url(#a4bd5d6857)"><g clip-path="url(#2cf71626df)"><path fill="#38b6ff" d="M 61.433594 282.320312 L 61.902344 269.589844 C 61.910156 269.316406 61.808594 269.0625 61.613281 268.875 L 57.535156 264.945312 C 57.269531 264.6875 56.871094 264.613281 56.523438 264.753906 C 56.175781 264.894531 55.945312 265.226562 55.929688 265.601562 L 55.492188 277.480469 L 43.640625 278.363281 C 43.265625 278.390625 42.941406 278.632812 42.816406 278.988281 C 42.6875 279.339844 42.777344 279.734375 43.046875 279.992188 L 47.125 283.917969 C 47.316406 284.105469 47.582031 284.195312 47.847656 284.179688 L 60.550781 283.234375 C 61.035156 283.199219 61.414062 282.800781 61.433594 282.320312 Z M 61.433594 282.320312 " fill-opacity="1" fill-rule="nonzero"/></g></g></g><g clip-path="url(#2eb64e37fb)"><g clip-path="url(#4c6b5cb8b4)"><g clip-path="url(#d92f47a087)"><path fill="#38b6ff" d="M 52.597656 273.808594 L 53.066406 261.078125 C 53.074219 260.808594 52.96875 260.550781 52.777344 260.363281 L 48.699219 256.4375 C 48.429688 256.179688 48.035156 256.101562 47.6875 256.242188 C 47.339844 256.386719 47.109375 256.71875 47.09375 257.089844 L 46.65625 268.96875 L 34.804688 269.851562 C 34.429688 269.878906 34.105469 270.125 33.980469 270.476562 C 33.851562 270.828125 33.941406 271.222656 34.210938 271.480469 L 38.289062 275.410156 C 38.480469 275.59375 38.742188 275.6875 39.011719 275.671875 L 51.714844 274.722656 C 52.199219 274.6875 52.578125 274.289062 52.597656 273.808594 Z M 52.597656 273.808594 " fill-opacity="1" fill-rule="nonzero"/></g></g></g><g clip-path="url(#796c441acf)"><g clip-path="url(#f7023ae99b)"><g clip-path="url(#78e0c315de)"><path fill="#38b6ff" d="M 36.792969 250.25 L 40.734375 238.136719 C 40.816406 237.878906 40.789062 237.601562 40.652344 237.371094 L 37.808594 232.476562 C 37.621094 232.15625 37.261719 231.972656 36.890625 232.011719 C 36.515625 232.054688 36.199219 232.308594 36.085938 232.664062 L 32.410156 243.96875 L 20.769531 241.570312 C 20.402344 241.492188 20.023438 241.640625 19.804688 241.945312 C 19.585938 242.25 19.5625 242.652344 19.75 242.972656 L 22.597656 247.867188 C 22.730469 248.101562 22.957031 248.261719 23.21875 248.316406 L 35.695312 250.890625 C 36.171875 250.988281 36.648438 250.710938 36.792969 250.25 Z M 36.792969 250.25 " fill-opacity="1" fill-rule="nonzero"/></g></g></g><g clip-path="url(#f218d7af6f)"><g clip-path="url(#ca629786ea)"><g clip-path="url(#10c853b739)"><path fill="#38b6ff" d="M 30.628906 239.644531 L 34.570312 227.53125 C 34.652344 227.273438 34.625 226.996094 34.488281 226.765625 L 31.644531 221.871094 C 31.457031 221.546875 31.097656 221.367188 30.722656 221.40625 C 30.351562 221.449219 30.035156 221.703125 29.921875 222.058594 L 26.246094 233.363281 L 14.601562 230.960938 C 14.238281 230.886719 13.859375 231.035156 13.640625 231.335938 C 13.417969 231.640625 13.398438 232.042969 13.585938 232.367188 L 16.429688 237.261719 C 16.566406 237.492188 16.792969 237.652344 17.054688 237.710938 L 29.53125 240.28125 C 30.003906 240.378906 30.480469 240.105469 30.628906 239.644531 Z M 30.628906 239.644531 " fill-opacity="1" fill-rule="nonzero"/></g></g></g><g clip-path="url(#bdad521eb7)"><path fill="#38b6ff" d="M 20.015625 200.003906 L 29.507812 191.511719 C 29.710938 191.332031 29.824219 191.078125 29.824219 190.808594 L 29.824219 185.148438 C 29.824219 184.777344 29.605469 184.4375 29.261719 184.285156 C 28.917969 184.132812 28.515625 184.195312 28.242188 184.445312 L 19.378906 192.371094 L 10.523438 184.445312 C 10.242188 184.195312 9.84375 184.132812 9.5 184.285156 C 9.15625 184.4375 8.9375 184.777344 8.9375 185.148438 L 8.9375 190.808594 C 8.9375 191.078125 9.050781 191.332031 9.25 191.511719 L 18.746094 200.003906 C 19.105469 200.328125 19.65625 200.328125 20.015625 200.003906 Z M 20.015625 200.003906 " fill-opacity="1" fill-rule="nonzero"/></g><g clip-path="url(#8517388d6c)"><path fill="#38b6ff" d="M 20.015625 187.738281 L 29.507812 179.242188 C 29.710938 179.0625 29.824219 178.808594 29.824219 178.542969 L 29.824219 172.878906 C 29.824219 172.507812 29.605469 172.171875 29.261719 172.015625 C 28.917969 171.867188 28.515625 171.929688 28.242188 172.175781 L 19.378906 180.101562 L 10.523438 172.175781 C 10.242188 171.929688 9.84375 171.863281 9.5 172.015625 C 9.15625 172.171875 8.9375 172.507812 8.9375 172.878906 L 8.9375 178.542969 C 8.9375 178.808594 9.050781 179.0625 9.25 179.242188 L 18.746094 187.738281 C 19.105469 188.058594 19.65625 188.058594 20.015625 187.738281 Z M 20.015625 187.738281 " fill-opacity="1" fill-rule="nonzero"/></g><g clip-path="url(#f475102882)"><g clip-path="url(#b819b5f4e1)"><g clip-path="url(#b29c0f1c49)"><path fill="#5ce1e6" d="M 22.28125 145.097656 L 34.921875 143.527344 C 35.191406 143.492188 35.429688 143.347656 35.582031 143.128906 L 38.808594 138.476562 C 39.019531 138.167969 39.03125 137.765625 38.835938 137.445312 C 38.640625 137.125 38.273438 136.949219 37.90625 136.996094 L 26.109375 138.460938 L 23.34375 126.902344 C 23.253906 126.539062 22.960938 126.257812 22.59375 126.191406 C 22.226562 126.121094 21.851562 126.273438 21.640625 126.578125 L 18.414062 131.230469 C 18.261719 131.453125 18.210938 131.726562 18.273438 131.988281 L 21.238281 144.375 C 21.351562 144.847656 21.800781 145.160156 22.28125 145.097656 Z M 22.28125 145.097656 " fill-opacity="1" fill-rule="nonzero"/></g></g></g><g clip-path="url(#ccc0978301)"><g clip-path="url(#b2f76c0c29)"><g clip-path="url(#f13fab049d)"><path fill="#5ce1e6" d="M 29.269531 135.015625 L 41.910156 133.441406 C 42.179688 133.410156 42.417969 133.265625 42.570312 133.046875 L 45.792969 128.390625 C 46.007812 128.085938 46.019531 127.683594 45.824219 127.363281 C 45.628906 127.042969 45.261719 126.867188 44.894531 126.914062 L 33.097656 128.378906 L 30.332031 116.820312 C 30.242188 116.457031 29.949219 116.175781 29.582031 116.105469 C 29.210938 116.035156 28.839844 116.1875 28.628906 116.492188 L 25.402344 121.148438 C 25.25 121.367188 25.199219 121.640625 25.261719 121.902344 L 28.226562 134.292969 C 28.335938 134.761719 28.789062 135.078125 29.269531 135.015625 Z M 29.269531 135.015625 " fill-opacity="1" fill-rule="nonzero"/></g></g></g><g clip-path="url(#773e12fb45)"><g clip-path="url(#4f1aba4475)"><g clip-path="url(#57466923e7)"><path fill="#38b6ff" d="M 45.109375 108.90625 L 57.78125 110.222656 C 58.050781 110.25 58.3125 110.164062 58.511719 109.984375 L 62.703125 106.175781 C 62.976562 105.925781 63.078125 105.535156 62.960938 105.179688 C 62.84375 104.824219 62.527344 104.570312 62.15625 104.53125 L 50.332031 103.304688 L 50.242188 91.417969 C 50.238281 91.042969 50.015625 90.703125 49.675781 90.554688 C 49.332031 90.402344 48.933594 90.46875 48.65625 90.71875 L 44.464844 94.523438 C 44.265625 94.707031 44.160156 94.960938 44.15625 95.230469 L 44.253906 107.96875 C 44.257812 108.453125 44.628906 108.859375 45.109375 108.90625 Z M 45.109375 108.90625 " fill-opacity="1" fill-rule="nonzero"/></g></g></g><g clip-path="url(#46d0864f77)"><g clip-path="url(#81fdd0bf38)"><g clip-path="url(#41e242cbe2)"><path fill="#38b6ff" d="M 54.1875 100.65625 L 66.859375 101.972656 C 67.128906 102 67.394531 101.914062 67.589844 101.734375 L 71.78125 97.925781 C 72.058594 97.675781 72.160156 97.285156 72.042969 96.929688 C 71.921875 96.574219 71.609375 96.320312 71.238281 96.28125 L 59.414062 95.054688 L 59.324219 83.167969 C 59.320312 82.792969 59.097656 82.453125 58.753906 82.304688 C 58.410156 82.152344 58.011719 82.21875 57.738281 82.46875 L 53.546875 86.273438 C 53.347656 86.457031 53.238281 86.710938 53.238281 86.980469 L 53.335938 99.71875 C 53.339844 100.203125 53.710938 100.609375 54.1875 100.65625 Z M 54.1875 100.65625 " fill-opacity="1" fill-rule="nonzero"/></g></g></g><g clip-path="url(#3b426abc92)"><g clip-path="url(#e0894f3b4d)"><g clip-path="url(#ee1689de17)"><path fill="#38b6ff" d="M 75.378906 84.589844 L 87.1875 89.363281 C 87.441406 89.460938 87.71875 89.453125 87.957031 89.335938 L 93.039062 86.835938 C 93.371094 86.671875 93.578125 86.328125 93.566406 85.953125 C 93.550781 85.578125 93.316406 85.246094 92.96875 85.105469 L 81.949219 80.652344 L 85.152344 69.207031 C 85.253906 68.84375 85.136719 68.457031 84.847656 68.21875 C 84.558594 67.976562 84.160156 67.929688 83.824219 68.09375 L 78.742188 70.589844 C 78.503906 70.707031 78.328125 70.925781 78.25 71.179688 L 74.816406 83.449219 C 74.6875 83.914062 74.929688 84.410156 75.378906 84.589844 Z M 75.378906 84.589844 " fill-opacity="1" fill-rule="nonzero"/></g></g></g><g clip-path="url(#dfeb1d83a1)"><g clip-path="url(#f3cbc7a09f)"><g clip-path="url(#051b98c665)"><path fill="#38b6ff" d="M 86.386719 79.175781 L 98.199219 83.949219 C 98.449219 84.050781 98.726562 84.042969 98.96875 83.921875 L 104.050781 81.425781 C 104.382812 81.261719 104.589844 80.914062 104.574219 80.539062 C 104.558594 80.164062 104.328125 79.832031 103.980469 79.695312 L 92.960938 75.238281 L 96.164062 63.792969 C 96.265625 63.433594 96.144531 63.046875 95.859375 62.804688 C 95.570312 62.566406 95.167969 62.515625 94.835938 62.679688 L 89.753906 65.179688 C 89.511719 65.296875 89.335938 65.511719 89.261719 65.769531 L 85.828125 78.035156 C 85.695312 78.503906 85.941406 78.996094 86.386719 79.175781 Z M 86.386719 79.175781 " fill-opacity="1" fill-rule="nonzero"/></g></g></g><g clip-path="url(#3ab825caff)"><path fill="#38b6ff" d="M 118.214844 68.148438 L 126.707031 77.640625 C 126.890625 77.84375 127.144531 77.957031 127.410156 77.957031 L 133.074219 77.957031 C 133.445312 77.957031 133.78125 77.738281 133.9375 77.394531 C 134.085938 77.050781 134.023438 76.652344 133.773438 76.375 L 125.851562 67.515625 L 133.773438 58.65625 C 134.023438 58.375 134.089844 57.976562 133.9375 57.632812 C 133.78125 57.289062 133.445312 57.070312 133.074219 57.070312 L 127.410156 57.070312 C 127.144531 57.070312 126.890625 57.1875 126.707031 57.382812 L 118.214844 66.878906 C 117.894531 67.238281 117.894531 67.789062 118.214844 68.148438 Z M 118.214844 68.148438 " fill-opacity="1" fill-rule="nonzero"/></g><g clip-path="url(#cea3eeab7e)"><path fill="#38b6ff" d="M 130.484375 68.148438 L 138.976562 77.640625 C 139.160156 77.84375 139.410156 77.957031 139.679688 77.957031 L 145.339844 77.957031 C 145.714844 77.957031 146.050781 77.738281 146.203125 77.394531 C 146.355469 77.050781 146.292969 76.652344 146.042969 76.375 L 138.117188 67.515625 L 146.042969 58.65625 C 146.292969 58.375 146.355469 57.976562 146.203125 57.632812 C 146.050781 57.289062 145.714844 57.070312 145.339844 57.070312 L 139.679688 57.070312 C 139.410156 57.070312 139.160156 57.1875 138.976562 57.382812 L 130.484375 66.878906 C 130.160156 67.238281 130.160156 67.789062 130.484375 68.148438 Z M 130.484375 68.148438 " fill-opacity="1" fill-rule="nonzero"/></g><g clip-path="url(#437245cf45)"><g clip-path="url(#0373b96c39)"><g clip-path="url(#bf82f65e5f)"><path fill="#5ce1e6" d="M 154.75 67.308594 L 162.957031 77.054688 C 163.128906 77.257812 163.378906 77.382812 163.648438 77.390625 L 169.308594 77.558594 C 169.679688 77.570312 170.023438 77.359375 170.1875 77.023438 C 170.347656 76.683594 170.296875 76.28125 170.058594 75.996094 L 162.402344 66.902344 L 170.589844 58.289062 C 170.847656 58.015625 170.925781 57.617188 170.78125 57.273438 C 170.640625 56.921875 170.308594 56.691406 169.9375 56.683594 L 164.277344 56.511719 C 164.007812 56.503906 163.753906 56.613281 163.566406 56.804688 L 154.789062 66.039062 C 154.457031 66.386719 154.441406 66.9375 154.75 67.308594 Z M 154.75 67.308594 " fill-opacity="1" fill-rule="nonzero"/></g></g></g><g clip-path="url(#8fe5cda051)"><g clip-path="url(#8a9f02a12d)"><g clip-path="url(#a062d69f4f)"><path fill="#5ce1e6" d="M 167.015625 67.675781 L 175.21875 77.421875 C 175.394531 77.628906 175.640625 77.75 175.910156 77.757812 L 181.570312 77.929688 C 181.941406 77.941406 182.285156 77.730469 182.449219 77.394531 C 182.609375 77.054688 182.558594 76.652344 182.320312 76.367188 L 174.664062 67.273438 L 182.851562 58.65625 C 183.109375 58.386719 183.1875 57.988281 183.042969 57.640625 C 182.902344 57.292969 182.570312 57.0625 182.199219 57.050781 L 176.539062 56.878906 C 176.269531 56.871094 176.015625 56.980469 175.828125 57.171875 L 167.050781 66.40625 C 166.71875 66.757812 166.703125 67.308594 167.015625 67.675781 Z M 167.015625 67.675781 " fill-opacity="1" fill-rule="nonzero"/></g></g></g><g clip-path="url(#9666180a14)"><g clip-path="url(#2fa297603c)"><g clip-path="url(#601b43a918)"><path fill="#38b6ff" d="M 266.402344 67.308594 L 274.609375 77.054688 C 274.78125 77.257812 275.03125 77.382812 275.300781 77.390625 L 280.960938 77.558594 C 281.332031 77.570312 281.675781 77.359375 281.839844 77.023438 C 282 76.683594 281.949219 76.28125 281.710938 75.996094 L 274.054688 66.902344 L 282.242188 58.289062 C 282.5 58.015625 282.578125 57.617188 282.433594 57.273438 C 282.292969 56.921875 281.960938 56.691406 281.589844 56.683594 L 275.929688 56.511719 C 275.660156 56.503906 275.40625 56.613281 275.21875 56.804688 L 266.441406 66.039062 C 266.109375 66.386719 266.09375 66.9375 266.402344 67.308594 Z M 266.402344 67.308594 " fill-opacity="1" fill-rule="nonzero"/></g></g></g><g clip-path="url(#fc883fcefc)"><g clip-path="url(#f313dbf15d)"><g clip-path="url(#36d374b2e3)"><path fill="#38b6ff" d="M 278.667969 67.675781 L 286.871094 77.421875 C 287.046875 77.628906 287.292969 77.75 287.5625 77.757812 L 293.222656 77.929688 C 293.59375 77.941406 293.9375 77.730469 294.101562 77.394531 C 294.261719 77.054688 294.210938 76.652344 293.972656 76.367188 L 286.316406 67.273438 L 294.503906 58.65625 C 294.761719 58.386719 294.839844 57.988281 294.695312 57.640625 C 294.554688 57.292969 294.222656 57.0625 293.851562 57.050781 L 288.191406 56.878906 C 287.921875 56.871094 287.667969 56.980469 287.480469 57.171875 L 278.703125 66.40625 C 278.371094 66.757812 278.355469 67.308594 278.667969 67.675781 Z M 278.667969 67.675781 " fill-opacity="1" fill-rule="nonzero"/></g></g></g><g clip-path="url(#8738d6234c)"><g clip-path="url(#da4a5c6f71)"><g clip-path="url(#2727825142)"><path fill="#38b6ff" d="M 229.277344 67.308594 L 237.484375 77.054688 C 237.65625 77.257812 237.90625 77.382812 238.175781 77.390625 L 243.835938 77.558594 C 244.207031 77.570312 244.550781 77.359375 244.714844 77.023438 C 244.875 76.683594 244.824219 76.28125 244.585938 75.996094 L 236.929688 66.902344 L 245.117188 58.289062 C 245.375 58.015625 245.453125 57.617188 245.308594 57.273438 C 245.167969 56.921875 244.835938 56.691406 244.464844 56.683594 L 238.804688 56.511719 C 238.535156 56.503906 238.28125 56.613281 238.09375 56.804688 L 229.316406 66.039062 C 228.984375 66.386719 228.96875 66.9375 229.277344 67.308594 Z M 229.277344 67.308594 " fill-opacity="1" fill-rule="nonzero"/></g></g></g><g clip-path="url(#619635b885)"><g clip-path="url(#bc30f823bc)"><g clip-path="url(#e7698dad1e)"><path fill="#38b6ff" d="M 241.542969 67.675781 L 249.746094 77.421875 C 249.921875 77.628906 250.167969 77.75 250.4375 77.757812 L 256.097656 77.929688 C 256.46875 77.941406 256.8125 77.730469 256.976562 77.394531 C 257.136719 77.054688 257.085938 76.652344 256.847656 76.367188 L 249.191406 67.273438 L 257.378906 58.65625 C 257.636719 58.386719 257.714844 57.988281 257.570312 57.640625 C 257.429688 57.292969 257.097656 57.0625 256.726562 57.050781 L 251.066406 56.878906 C 250.796875 56.871094 250.542969 56.980469 250.355469 57.171875 L 241.578125 66.40625 C 241.246094 66.757812 241.230469 67.308594 241.542969 67.675781 Z M 241.542969 67.675781 " fill-opacity="1" fill-rule="nonzero"/></g></g></g><g clip-path="url(#27afb577d8)"><g clip-path="url(#9f7ca31565)"><g clip-path="url(#cc4bcf48ef)"><path fill="#38b6ff" d="M 192.761719 67.308594 L 200.964844 77.054688 C 201.140625 77.257812 201.390625 77.382812 201.660156 77.390625 L 207.316406 77.558594 C 207.691406 77.570312 208.035156 77.359375 208.199219 77.023438 C 208.359375 76.683594 208.308594 76.28125 208.066406 75.996094 L 200.414062 66.902344 L 208.601562 58.289062 C 208.859375 58.015625 208.933594 57.617188 208.792969 57.273438 C 208.648438 56.921875 208.320312 56.691406 207.945312 56.683594 L 202.289062 56.511719 C 202.019531 56.503906 201.761719 56.613281 201.574219 56.804688 L 192.800781 66.039062 C 192.46875 66.386719 192.449219 66.9375 192.761719 67.308594 Z M 192.761719 67.308594 " fill-opacity="1" fill-rule="nonzero"/></g></g></g><g clip-path="url(#da272b3c4b)"><g clip-path="url(#a4f1e5022d)"><g clip-path="url(#dc7a6221b8)"><path fill="#38b6ff" d="M 205.023438 67.675781 L 213.230469 77.421875 C 213.402344 77.628906 213.652344 77.75 213.921875 77.757812 L 219.582031 77.929688 C 219.953125 77.941406 220.296875 77.730469 220.460938 77.394531 C 220.621094 77.054688 220.570312 76.652344 220.332031 76.367188 L 212.675781 67.273438 L 220.863281 58.65625 C 221.121094 58.386719 221.199219 57.988281 221.054688 57.640625 C 220.914062 57.292969 220.582031 57.0625 220.210938 57.050781 L 214.550781 56.878906 C 214.28125 56.871094 214.027344 56.980469 213.839844 57.171875 L 205.0625 66.40625 C 204.730469 66.757812 204.714844 67.308594 205.023438 67.675781 Z M 205.023438 67.675781 " fill-opacity="1" fill-rule="nonzero"/></g></g></g></svg>