<svg xmlns="http://www.w3.org/2000/svg" width="450" viewBox="0 0 337.5 375" height="500" version="1.0"><defs><clipPath id="prefix__a"><path d="M0 52.777h303.75V323H0zm0 0"/></clipPath><clipPath id="prefix__b"><path d="M7.918 142.824C3.137 156.668 0 172.406 0 187.852c0 15.445 2.688 30.304 7.469 44.003.152.29.152.583.3.875 19.122 51.434 69.622 89.32 127.887 90.047H303.75v-270H135.781c-58.687.73-109.187 38.032-127.863 90.047"/></clipPath><clipPath id="prefix__c"><path d="M0 52.777h303.75v270H0zm0 0"/></clipPath><clipPath id="prefix__d"><path d="M7.918 142.824C3.137 156.668 0 172.406 0 187.852c0 15.445 2.688 30.304 7.469 44.003.152.29.152.583.3.875 19.122 51.434 69.622 89.32 127.887 90.047H303.75v-270H135.781c-58.687.73-109.187 38.032-127.863 90.047"/></clipPath><clipPath id="prefix__e"><path d="M34 77h217v217H34zm0 0"/></clipPath><clipPath id="prefix__f"><path d="M276.66 112.074l-60.242 207.73-207.73-60.241L68.93 51.832zm0 0"/></clipPath><clipPath id="prefix__g"><path d="M246.578 215.8c16.613-57.284-16.36-117.195-73.644-133.808-57.29-16.613-117.196 16.36-133.809 73.649-16.613 57.285 16.36 117.191 73.645 133.804 57.289 16.614 117.195-16.36 133.808-73.644"/></clipPath><clipPath id="prefix__h"><path d="M34 77h217v217H34zm0 0"/></clipPath><clipPath id="prefix__i"><path d="M276.66 112.074l-60.164 207.453L9.043 259.363 69.207 51.914zm0 0"/></clipPath><clipPath id="prefix__j"><path d="M276.66 112.074l-61.015 210.387L5.262 261.449 66.273 51.062zm0 0"/></clipPath><clipPath id="prefix__k"><path d="M246.578 215.8c16.613-57.284-16.36-117.195-73.644-133.808-57.29-16.613-117.196 16.36-133.809 73.649-16.613 57.285 16.36 117.191 73.645 133.804 57.289 16.614 117.195-16.36 133.808-73.644"/></clipPath><clipPath id="prefix__l"><path d="M175 184h36v26h-36zm0 0"/></clipPath><clipPath id="prefix__m"><path d="M210.273 192.723l-4.617 17.566-30.875-8.117 4.617-17.567zm0 0"/></clipPath><clipPath id="prefix__n"><path d="M210.273 192.723l-4.52 17.183-30.683-8.07 4.52-17.18zm0 0"/></clipPath><clipPath id="prefix__o"><path d="M93 201h36v36H93zm0 0"/></clipPath><clipPath id="prefix__p"><path d="M116.059 201.688l12.761 12.925-22.715 22.43-12.761-12.922zm0 0"/></clipPath><clipPath id="prefix__q"><path d="M116.059 201.688l12.484 12.64-22.574 22.297-12.485-12.645zm0 0"/></clipPath><clipPath id="prefix__r"><path d="M111 137h82v83h-82zm0 0"/></clipPath><clipPath id="prefix__s"><path d="M92.05 148.383l82.294-22.063 19.156 71.465-82.293 22.063zm0 0"/></clipPath><clipPath id="prefix__t"><path d="M132.879 137.438l59.805 59.828-81.664 21.89 21.859-81.719"/></clipPath><clipPath id="prefix__u"><path d="M122 127h26v36h-26zm0 0"/></clipPath><clipPath id="prefix__v"><path d="M122.25 132.11l17.543-4.704 8.27 30.836-17.547 4.703zm0 0"/></clipPath><clipPath id="prefix__w"><path d="M122.25 132.11l17.16-4.598 8.215 30.644-17.16 4.602zm0 0"/></clipPath><clipPath id="prefix__x"><path d="M97 82h57v56H97zm0 0"/></clipPath><clipPath id="prefix__y"><path d="M105.07 143.559L91.91 89.516l54.043-13.16 13.16 54.039zm0 0"/></clipPath><clipPath id="prefix__z"><path d="M98.492 116.535c3.633 14.926 18.676 24.074 33.602 20.442 14.922-3.633 24.074-18.68 20.441-33.602-3.637-14.922-18.68-24.074-33.605-20.441-14.922 3.636-24.075 18.68-20.438 33.601"/></clipPath><clipPath id="prefix__A"><path d="M97 82h57v56H97zm0 0"/></clipPath><clipPath id="prefix__B"><path d="M105.07 143.559L91.938 89.633 145.863 76.5l13.133 53.926zm0 0"/></clipPath><clipPath id="prefix__C"><path d="M105.07 143.559L91.938 89.633 145.863 76.5l13.133 53.926zm0 0"/></clipPath><clipPath id="prefix__D"><path d="M98.504 116.594c3.629 14.89 18.637 24.023 33.527 20.398 14.89-3.629 24.024-18.637 20.399-33.527-3.63-14.89-18.637-24.024-33.528-20.399-14.89 3.63-24.023 18.637-20.398 33.528"/></clipPath><clipPath id="prefix__E"><path d="M62 212h56v57H62zm0 0"/></clipPath><clipPath id="prefix__F"><path d="M50.48 240.34l39.34-39.32 39.32 39.34-39.34 39.32zm0 0"/></clipPath><clipPath id="prefix__G"><path d="M70.152 220.68c-10.867 10.855-10.87 28.465-.011 39.328 10.855 10.863 28.464 10.87 39.332.012 10.863-10.86 10.867-28.465.007-39.332-10.855-10.864-28.464-10.868-39.328-.008"/></clipPath><clipPath id="prefix__H"><path d="M61 212h57v57H61zm0 0"/></clipPath><clipPath id="prefix__I"><path d="M50.48 240.34l39.254-39.235 39.235 39.254-39.254 39.235zm0 0"/></clipPath><clipPath id="prefix__J"><path d="M50.48 240.34l39.254-39.235 39.235 39.254-39.254 39.235zm0 0"/></clipPath><clipPath id="prefix__K"><path d="M70.11 220.723c-10.84 10.832-10.848 28.402-.012 39.242 10.832 10.84 28.402 10.848 39.242.012 10.84-10.832 10.847-28.403.012-39.247-10.832-10.84-28.403-10.843-39.243-.007"/></clipPath><clipPath id="prefix__L"><path d="M189 176h57v56h-57zm0 0"/></clipPath><clipPath id="prefix__M"><path d="M197.148 237.723l-13.16-54.043 54.043-13.16 13.16 54.042zm0 0"/></clipPath><clipPath id="prefix__N"><path d="M190.57 210.703c3.633 14.922 18.676 24.074 33.602 20.438 14.922-3.633 24.074-18.676 20.441-33.602-3.636-14.922-18.68-24.074-33.601-20.437-14.926 3.632-24.078 18.675-20.442 33.601"/></clipPath><clipPath id="prefix__O"><path d="M189 176h57v56h-57zm0 0"/></clipPath><clipPath id="prefix__P"><path d="M197.148 237.723L184.02 183.8l53.921-13.133 13.133 53.922zm0 0"/></clipPath><clipPath id="prefix__Q"><path d="M197.148 237.723L184.02 183.8l53.921-13.133 13.133 53.922zm0 0"/></clipPath><clipPath id="prefix__R"><path d="M190.586 210.762c3.625 14.89 18.637 24.023 33.527 20.394 14.89-3.625 24.02-18.636 20.395-33.527-3.625-14.89-18.637-24.024-33.528-20.395-14.89 3.625-24.023 18.637-20.394 33.528"/></clipPath><clipPath id="prefix__S"><path d="M118 102h15v15h-15zm0 0"/></clipPath><clipPath id="prefix__T"><path d="M116.96 105.023l13.485-3.613 3.614 13.485-13.485 3.613zm0 0"/></clipPath><clipPath id="prefix__U"><path d="M123.703 103.219a6.976 6.976 0 00-4.933 8.547 6.976 6.976 0 008.546 4.933 6.976 6.976 0 004.934-8.547 6.976 6.976 0 00-8.547-4.933"/></clipPath><clipPath id="prefix__V"><path d="M82 233h15v15H82zm0 0"/></clipPath><clipPath id="prefix__W"><path d="M89.809 230.48l9.867 9.875-9.871 9.868-9.871-9.875zm0 0"/></clipPath><clipPath id="prefix__X"><path d="M94.742 235.418a6.979 6.979 0 00-9.87-.004 6.982 6.982 0 00-.005 9.871 6.982 6.982 0 009.871.004 6.979 6.979 0 00.004-9.871"/></clipPath><clipPath id="prefix__Y"><path d="M210 196h15v15h-15zm0 0"/></clipPath><clipPath id="prefix__Z"><path d="M209.29 198.18l13.483-3.614 3.614 13.485-13.485 3.613zm0 0"/></clipPath><clipPath id="prefix__aa"><path d="M216.031 196.375a6.978 6.978 0 00-4.937 8.547 6.984 6.984 0 008.55 4.937 6.981 6.981 0 004.934-8.55 6.976 6.976 0 00-8.547-4.934"/></clipPath><clipPath id="prefix__ab"><path d="M171 124h36v36h-36zm0 0"/></clipPath><clipPath id="prefix__ac"><path d="M205.07 160.031L168.84 129.7l8.664-10.351 36.23 30.332zm0 0"/></clipPath><clipPath id="prefix__ad"><path d="M205.07 160.031L168.84 129.7l8.664-10.351 36.23 30.332zm0 0"/></clipPath><clipPath id="prefix__ae"><path d="M205.07 160.031L168.84 129.7l8.664-10.351 36.23 30.332zm0 0"/></clipPath><clipPath id="prefix__af"><path d="M203 150h1v1h-1zm0 0"/></clipPath><clipPath id="prefix__ag"><path d="M205.07 160.031L168.84 129.7l8.664-10.351 36.23 30.332zm0 0"/></clipPath><clipPath id="prefix__ah"><path d="M205.07 160.031L168.84 129.7l8.664-10.351 36.23 30.332zm0 0"/></clipPath><clipPath id="prefix__ai"><path d="M205.07 160.031L168.84 129.7l8.664-10.351 36.23 30.332zm0 0"/></clipPath><clipPath id="prefix__aj"><path d="M139 240h47v17h-47zm0 0"/></clipPath><clipPath id="prefix__ak"><path d="M138.598 249.11l45.656-12.169 3.476 13.043-45.656 12.168zm0 0"/></clipPath><clipPath id="prefix__al"><path d="M138.598 249.11l45.656-12.169 3.476 13.043-45.656 12.168zm0 0"/></clipPath><clipPath id="prefix__am"><path d="M138.598 249.11l45.656-12.169 3.476 13.043-45.656 12.168zm0 0"/></clipPath><clipPath id="prefix__an"><path d="M147 253h1v1h-1zm0 0"/></clipPath><clipPath id="prefix__ao"><path d="M138.598 249.11l45.656-12.169 3.476 13.043-45.656 12.168zm0 0"/></clipPath><clipPath id="prefix__ap"><path d="M138.598 249.11l45.656-12.169 3.476 13.043-45.656 12.168zm0 0"/></clipPath><clipPath id="prefix__aq"><path d="M138.598 249.11l45.656-12.169 3.476 13.043-45.656 12.168zm0 0"/></clipPath><clipPath id="prefix__ar"><path d="M69 149h25v43H69zm0 0"/></clipPath><clipPath id="prefix__as"><path d="M94.176 149.363l-16.028 44.45-12.699-4.579 16.024-44.449zm0 0"/></clipPath><clipPath id="prefix__at"><path d="M94.176 149.363l-16.028 44.45-12.699-4.579 16.024-44.449zm0 0"/></clipPath><clipPath id="prefix__au"><path d="M94.176 149.363l-16.028 44.45-12.699-4.579 16.024-44.449zm0 0"/></clipPath><clipPath id="prefix__av"><path d="M85 154h1v1h-1zm0 0"/></clipPath><clipPath id="prefix__aw"><path d="M94.176 149.363l-16.028 44.45-12.699-4.579 16.024-44.449zm0 0"/></clipPath><clipPath id="prefix__ax"><path d="M94.176 149.363l-16.028 44.45-12.699-4.579 16.024-44.449zm0 0"/></clipPath><clipPath id="prefix__ay"><path d="M94.176 149.363l-16.028 44.45-12.699-4.579 16.024-44.449zm0 0"/></clipPath><clipPath id="prefix__az"><path d="M278 297.129h17v21h-17zm0 0"/></clipPath><clipPath id="prefix__aA"><path d="M266.625 297.129H283v21h-16.375zm0 0"/></clipPath><clipPath id="prefix__aB"><path d="M241 297.129h17v21h-17zm0 0"/></clipPath><clipPath id="prefix__aC"><path d="M229.5 297.129H246v21h-16.5zm0 0"/></clipPath><clipPath id="prefix__aD"><path d="M204 297.129h16.875v21H204zm0 0"/></clipPath><clipPath id="prefix__aE"><path d="M192.375 297.129H209v21h-16.625zm0 0"/></clipPath><clipPath id="prefix__aF"><path d="M167 297.129h16.75v21H167zm0 0"/></clipPath><clipPath id="prefix__aG"><path d="M155.25 297.129H172v21h-16.75zm0 0"/></clipPath><clipPath id="prefix__aH"><path d="M130 297h17v22h-17zm0 0"/></clipPath><clipPath id="prefix__aI"><path d="M117.945 297.379l28.496-.504.371 20.996-28.496.504zm0 0"/></clipPath><clipPath id="prefix__aJ"><path d="M117.945 297.379l28.496-.504.371 20.996-28.496.504zm0 0"/></clipPath><clipPath id="prefix__aK"><path d="M117 297h18v22h-18zm0 0"/></clipPath><clipPath id="prefix__aL"><path d="M117.945 297.379l28.496-.504.371 20.996-28.496.504zm0 0"/></clipPath><clipPath id="prefix__aM"><path d="M117.945 297.379l28.496-.504.371 20.996-28.496.504zm0 0"/></clipPath><clipPath id="prefix__aN"><path d="M80 284h20v22H80zm0 0"/></clipPath><clipPath id="prefix__aO"><path d="M81.105 277.734l23.989 15.387-11.336 17.676-23.992-15.387zm0 0"/></clipPath><clipPath id="prefix__aP"><path d="M81.105 277.734l23.989 15.387-11.336 17.676-23.992-15.387zm0 0"/></clipPath><clipPath id="prefix__aQ"><path d="M70 278h20v22H70zm0 0"/></clipPath><clipPath id="prefix__aR"><path d="M81.105 277.734l23.989 15.387-11.336 17.676-23.992-15.387zm0 0"/></clipPath><clipPath id="prefix__aS"><path d="M81.105 277.734l23.989 15.387-11.336 17.676-23.992-15.387zm0 0"/></clipPath><clipPath id="prefix__aT"><path d="M42 264h20v21H42zm0 0"/></clipPath><clipPath id="prefix__aU"><path d="M48.059 255.742l20.527 19.77-14.566 15.125-20.528-19.77zm0 0"/></clipPath><clipPath id="prefix__aV"><path d="M48.059 255.742l20.527 19.77-14.566 15.125-20.528-19.77zm0 0"/></clipPath><clipPath id="prefix__aW"><path d="M33 256h21v20H33zm0 0"/></clipPath><clipPath id="prefix__aX"><path d="M48.059 255.742l20.527 19.77-14.566 15.125-20.528-19.77zm0 0"/></clipPath><clipPath id="prefix__aY"><path d="M48.059 255.742l20.527 19.77-14.566 15.125-20.528-19.77zm0 0"/></clipPath><clipPath id="prefix__aZ"><path d="M19 232h22v19H19zm0 0"/></clipPath><clipPath id="prefix__ba"><path d="M31.219 221.023l14.32 24.641-18.152 10.555-14.325-24.64zm0 0"/></clipPath><clipPath id="prefix__bb"><path d="M31.219 221.023l14.32 24.641-18.152 10.555-14.325-24.64zm0 0"/></clipPath><clipPath id="prefix__bc"><path d="M13 221h22v20H13zm0 0"/></clipPath><clipPath id="prefix__bd"><path d="M31.219 221.023l14.32 24.641-18.152 10.555-14.325-24.64zm0 0"/></clipPath><clipPath id="prefix__be"><path d="M31.219 221.023l14.32 24.641-18.152 10.555-14.325-24.64zm0 0"/></clipPath><clipPath id="prefix__bf"><path d="M8.879 184h21v16.438h-21zm0 0"/></clipPath><clipPath id="prefix__bg"><path d="M8.879 171.938h21V188h-21zm0 0"/></clipPath><clipPath id="prefix__bh"><path d="M18 126h21v20H18zm0 0"/></clipPath><clipPath id="prefix__bi"><path d="M46.379 127.648l-16.234 23.426-17.262-11.965 16.234-23.422zm0 0"/></clipPath><clipPath id="prefix__bj"><path d="M46.379 127.648l-16.234 23.426-17.262-11.965 16.234-23.422zm0 0"/></clipPath><clipPath id="prefix__bk"><path d="M25 116h21v20H25zm0 0"/></clipPath><clipPath id="prefix__bl"><path d="M46.379 127.648l-16.234 23.426-17.262-11.965 16.234-23.422zm0 0"/></clipPath><clipPath id="prefix__bm"><path d="M46.379 127.648l-16.234 23.426-17.262-11.965 16.234-23.422zm0 0"/></clipPath><clipPath id="prefix__bn"><path d="M44 90h20v21H44zm0 0"/></clipPath><clipPath id="prefix__bo"><path d="M72.52 97.332L51.426 116.5l-14.121-15.543 21.093-19.168zm0 0"/></clipPath><clipPath id="prefix__bp"><path d="M72.52 97.332L51.426 116.5l-14.121-15.543 21.093-19.168zm0 0"/></clipPath><clipPath id="prefix__bq"><path d="M53 82h20v20H53zm0 0"/></clipPath><clipPath id="prefix__br"><path d="M72.52 97.332L51.426 116.5l-14.121-15.543 21.093-19.168zm0 0"/></clipPath><clipPath id="prefix__bs"><path d="M72.52 97.332L51.426 116.5l-14.121-15.543 21.093-19.168zm0 0"/></clipPath><clipPath id="prefix__bt"><path d="M74 67h20v23H74zm0 0"/></clipPath><clipPath id="prefix__bu"><path d="M104.922 81.059L79.344 93.633l-9.266-18.848 25.578-12.57zm0 0"/></clipPath><clipPath id="prefix__bv"><path d="M104.922 81.059L79.344 93.633l-9.266-18.848 25.578-12.57zm0 0"/></clipPath><clipPath id="prefix__bw"><path d="M85 62h20v23H85zm0 0"/></clipPath><clipPath id="prefix__bx"><path d="M104.922 81.059L79.344 93.633l-9.266-18.848 25.578-12.57zm0 0"/></clipPath><clipPath id="prefix__by"><path d="M104.922 81.059L79.344 93.633l-9.266-18.848 25.578-12.57zm0 0"/></clipPath><clipPath id="prefix__bz"><path d="M117.785 57.016H135V78h-17.215zm0 0"/></clipPath><clipPath id="prefix__bA"><path d="M130 57.016h16.285V78H130zm0 0"/></clipPath><clipPath id="prefix__bB"><path d="M154 56h17v22h-17zm0 0"/></clipPath><clipPath id="prefix__bC"><path d="M182.512 78.012l-28.489-.856.633-20.992 28.489.86zm0 0"/></clipPath><clipPath id="prefix__bD"><path d="M182.512 78.012l-28.489-.856.633-20.992 28.489.86zm0 0"/></clipPath><clipPath id="prefix__bE"><path d="M166 56h18v22h-18zm0 0"/></clipPath><clipPath id="prefix__bF"><path d="M182.512 78.012l-28.489-.856.633-20.992 28.489.86zm0 0"/></clipPath><clipPath id="prefix__bG"><path d="M182.512 78.012l-28.489-.856.633-20.992 28.489.86zm0 0"/></clipPath><clipPath id="prefix__bH"><path d="M266 56h17v22h-17zm0 0"/></clipPath><clipPath id="prefix__bI"><path d="M294.164 78.012l-28.488-.856.633-20.992 28.488.86zm0 0"/></clipPath><clipPath id="prefix__bJ"><path d="M294.164 78.012l-28.488-.856.633-20.992 28.488.86zm0 0"/></clipPath><clipPath id="prefix__bK"><path d="M278 56h17v22h-17zm0 0"/></clipPath><clipPath id="prefix__bL"><path d="M294.164 78.012l-28.488-.856.633-20.992 28.488.86zm0 0"/></clipPath><clipPath id="prefix__bM"><path d="M294.164 78.012l-28.488-.856.633-20.992 28.488.86zm0 0"/></clipPath><clipPath id="prefix__bN"><path d="M229 56h17v22h-17zm0 0"/></clipPath><clipPath id="prefix__bO"><path d="M257.04 78.012l-28.49-.856.634-20.992 28.488.86zm0 0"/></clipPath><clipPath id="prefix__bP"><path d="M257.04 78.012l-28.49-.856.634-20.992 28.488.86zm0 0"/></clipPath><clipPath id="prefix__bQ"><path d="M241 56h17v22h-17zm0 0"/></clipPath><clipPath id="prefix__bR"><path d="M257.04 78.012l-28.49-.856.634-20.992 28.488.86zm0 0"/></clipPath><clipPath id="prefix__bS"><path d="M257.04 78.012l-28.49-.856.634-20.992 28.488.86zm0 0"/></clipPath><clipPath id="prefix__bT"><path d="M192 56h17v22h-17zm0 0"/></clipPath><clipPath id="prefix__bU"><path d="M220.523 78.012l-28.488-.856.633-20.992 28.488.86zm0 0"/></clipPath><clipPath id="prefix__bV"><path d="M220.523 78.012l-28.488-.856.633-20.992 28.488.86zm0 0"/></clipPath><clipPath id="prefix__bW"><path d="M204 56h18v22h-18zm0 0"/></clipPath><clipPath id="prefix__bX"><path d="M220.523 78.012l-28.488-.856.633-20.992 28.488.86zm0 0"/></clipPath><clipPath id="prefix__bY"><path d="M220.523 78.012l-28.488-.856.633-20.992 28.488.86zm0 0"/></clipPath></defs><g clip-path="url(#prefix__a)"><g clip-path="url(#prefix__b)"><path fill="#737373" d="M303.75 52.777V323.04H-.133V52.777zm0 0"/></g></g><g clip-path="url(#prefix__c)"><g clip-path="url(#prefix__d)"><path fill="none" d="M7.918 142.824C3.137 156.668 0 172.406 0 187.852c0 15.445 2.687 30.304 7.469 44.003.152.29.152.583.3.875 19.122 51.434 69.622 89.32 127.887 90.047H303.75v-270H135.781c-58.687.73-109.187 38.032-127.863 90.047" stroke="#000" stroke-width="3"/></g></g><g clip-path="url(#prefix__e)"><g clip-path="url(#prefix__f)"><g clip-path="url(#prefix__g)"><path fill="#a6a6a6" d="M276.66 112.074l-60.09 207.2-207.199-60.09 60.09-207.2zm0 0"/></g></g></g><g clip-path="url(#prefix__h)"><g clip-path="url(#prefix__i)"><g clip-path="url(#prefix__j)"><g clip-path="url(#prefix__k)"><path fill="none" d="M246.578 215.8c16.613-57.284-16.36-117.195-73.644-133.808-57.29-16.613-117.196 16.36-133.809 73.649-16.613 57.285 16.36 117.191 73.645 133.804 57.289 16.614 117.195-16.36 133.808-73.644" stroke="#000" stroke-width="6"/></g></g></g></g><g clip-path="url(#prefix__l)"><g clip-path="url(#prefix__m)"><g clip-path="url(#prefix__n)"><path fill="#ffde59" d="M210.273 192.723l-4.48 17.035-30.875-8.117 4.48-17.036zm0 0"/></g></g></g><g clip-path="url(#prefix__o)"><g clip-path="url(#prefix__p)"><g clip-path="url(#prefix__q)"><path fill="#ffde59" d="M116.059 201.688l12.375 12.535-22.715 22.43-12.375-12.532zm0 0"/></g></g></g><g clip-path="url(#prefix__r)"><g clip-path="url(#prefix__s)"><g clip-path="url(#prefix__t)"><path fill="#ffde59" d="M92.05 148.383l81.571-21.867 18.961 70.742-81.57 21.867zm0 0"/></g></g></g><g clip-path="url(#prefix__u)"><g clip-path="url(#prefix__v)"><g clip-path="url(#prefix__w)"><path fill="#ffde59" d="M122.25 132.11l17.012-4.56 8.265 30.837-17.011 4.558zm0 0"/></g></g></g><g clip-path="url(#prefix__x)"><g clip-path="url(#prefix__y)"><g clip-path="url(#prefix__z)"><path fill="#ffde59" d="M105.07 143.559L91.91 89.516l54.043-13.16 13.16 54.039zm0 0"/></g></g></g><g clip-path="url(#prefix__A)"><g clip-path="url(#prefix__B)"><g clip-path="url(#prefix__C)"><g clip-path="url(#prefix__D)"><path d="M101.414 115.887c1.313 5.398 4.117 9.843 8.414 13.336l-3.777 4.644c-5.34-4.34-8.824-9.863-10.453-16.562zm10.578 14.91c4.66 3.023 9.746 4.332 15.254 3.93l.438 5.972c-6.848.5-13.164-1.125-18.954-4.879zm17.899 3.59c.48-.086.957-.188 1.433-.305 4.883-1.187 9.016-3.629 12.395-7.32l4.414 4.043c-4.196 4.586-9.328 7.617-15.39 9.093-.59.145-1.18.27-1.774.38zm15.523-9.696c3.293-4.48 4.895-9.484 4.813-15.007l5.988-.09c.101 6.863-1.89 13.078-5.973 18.64zm4.629-17.656a24.894 24.894 0 00-.523-2.863c-1.067-4.383-3.165-8.18-6.29-11.39l4.29-4.177c3.886 3.993 6.492 8.707 7.816 14.149.289 1.176.504 2.355.652 3.547zM141.27 90.97c-4.282-3.543-9.184-5.434-14.7-5.68l.262-5.98c6.856.3 12.941 2.652 18.254 7.046zm-17.375-5.649a24.66 24.66 0 00-4.286.657c-3.886.945-7.328 2.718-10.332 5.316l-3.918-4.527c3.73-3.23 8.008-5.434 12.832-6.606a30.75 30.75 0 015.317-.816zm-16.536 7.825c-3.785 4.066-5.96 8.847-6.527 14.347l-5.953-.613c.703-6.828 3.402-12.77 8.098-17.813zm-6.656 17.02c.016 1.925.25 3.831.711 5.722l-5.816 1.418a30.789 30.789 0 01-.88-7.102zm0 0"/></g></g></g></g><g clip-path="url(#prefix__E)"><g clip-path="url(#prefix__F)"><g clip-path="url(#prefix__G)"><path fill="#ffde59" d="M50.48 240.34l39.34-39.32 39.32 39.34-39.34 39.32zm0 0"/></g></g></g><g clip-path="url(#prefix__H)"><g clip-path="url(#prefix__I)"><g clip-path="url(#prefix__J)"><g clip-path="url(#prefix__K)"><path d="M72.223 222.84c-3.926 3.926-6.27 8.633-7.024 14.117l-5.93-.816c.938-6.817 3.844-12.66 8.723-17.536zM64.98 239.62c-.164 5.555 1.36 10.582 4.567 15.078l-4.875 3.477c-3.988-5.59-5.879-11.832-5.68-18.73zm6.23 17.164c.321.363.657.719 1.005 1.067 3.555 3.554 7.785 5.816 12.691 6.785l-1.156 5.87c-6.102-1.202-11.36-4.01-15.77-8.425-.43-.43-.843-.867-1.246-1.32zm16.349 8.227c5.539.484 10.648-.746 15.324-3.684l3.187 5.067c-5.812 3.656-12.156 5.18-19.035 4.582zm17.492-5.219a24.825 24.825 0 002.176-1.934c3.187-3.187 5.343-6.953 6.464-11.293l5.797 1.496c-1.394 5.395-4.07 10.075-8.031 14.032a30.657 30.657 0 01-2.691 2.398zm9.168-15.844c.804-5.5-.125-10.668-2.781-15.508l5.246-2.882c3.304 6.015 4.457 12.433 3.46 19.257zm-4.196-17.781a25.017 25.017 0 00-2.789-3.32c-2.828-2.828-6.129-4.852-9.91-6.067l1.836-5.699c4.695 1.512 8.8 4.023 12.309 7.535a30.688 30.688 0 013.457 4.117zm-15.277-10.063c-5.441-1.12-10.656-.496-15.652 1.875l-2.567-5.406c6.2-2.945 12.676-3.726 19.426-2.336zm-18 3.157a24.705 24.705 0 00-4.523 3.578l-4.23-4.235a30.502 30.502 0 015.609-4.44zm0 0"/></g></g></g></g><g clip-path="url(#prefix__L)"><g clip-path="url(#prefix__M)"><g clip-path="url(#prefix__N)"><path fill="#ffde59" d="M197.148 237.723l-13.16-54.043 54.043-13.16 13.16 54.042zm0 0"/></g></g></g><g clip-path="url(#prefix__O)"><g clip-path="url(#prefix__P)"><g clip-path="url(#prefix__Q)"><g clip-path="url(#prefix__R)"><path d="M193.492 210.05c1.317 5.4 4.121 9.845 8.414 13.337l-3.777 4.644c-5.336-4.34-8.82-9.86-10.453-16.562zm10.578 14.91c4.66 3.024 9.746 4.337 15.254 3.93l.438 5.973c-6.848.5-13.164-1.125-18.95-4.879zm17.899 3.595c.48-.09.96-.192 1.433-.305 4.887-1.191 9.016-3.633 12.395-7.324l4.418 4.043c-4.2 4.586-9.328 7.62-15.395 9.097-.59.141-1.18.27-1.773.375zm15.523-9.696c3.293-4.484 4.899-9.488 4.813-15.011l5.988-.09c.102 6.867-1.887 13.078-5.973 18.644zm4.633-17.66a24.909 24.909 0 00-.527-2.863c-1.067-4.383-3.16-8.18-6.29-11.39l4.294-4.176c3.882 3.992 6.488 8.71 7.816 14.152.285 1.172.5 2.355.648 3.547zm-8.777-16.066c-4.282-3.54-9.18-5.434-14.7-5.676l.266-5.984c6.852.304 12.938 2.652 18.25 7.05zm-17.375-5.649a25.097 25.097 0 00-4.286.657c-3.886.949-7.328 2.718-10.328 5.316l-3.922-4.527c3.735-3.23 8.012-5.43 12.836-6.606 1.754-.426 3.524-.699 5.313-.816zm-16.536 7.825c-3.785 4.066-5.957 8.851-6.523 14.347l-5.957-.613c.703-6.828 3.402-12.766 8.098-17.813zm-6.652 17.02a24.68 24.68 0 00.707 5.722l-5.816 1.418a30.789 30.789 0 01-.88-7.102zm0 0"/></g></g></g></g><g clip-path="url(#prefix__S)"><g clip-path="url(#prefix__T)"><g clip-path="url(#prefix__U)"><path fill="#707070" d="M116.96 105.023l13.485-3.613 3.614 13.485-13.485 3.613zm0 0"/></g></g></g><g clip-path="url(#prefix__V)"><g clip-path="url(#prefix__W)"><g clip-path="url(#prefix__X)"><path fill="#707070" d="M89.809 230.48l9.867 9.875-9.871 9.868-9.871-9.875zm0 0"/></g></g></g><g clip-path="url(#prefix__Y)"><g clip-path="url(#prefix__Z)"><g clip-path="url(#prefix__aa)"><path fill="#707070" d="M209.29 198.18l13.483-3.614 3.614 13.485-13.485 3.613zm0 0"/></g></g></g><g clip-path="url(#prefix__ab)"><g clip-path="url(#prefix__ac)"><g clip-path="url(#prefix__ad)"><g clip-path="url(#prefix__ae)"><path fill="#fff" d="M204.738 159.242c.043-.012.067-.039.082-.078.14-.023.254.184.41.05.45-.042.567-.37.63-.737.175-1.036.18-2.079.117-3.118-.223-3.73-1.211-7.23-2.832-10.582-2.833-5.855-7.286-10.066-12.93-13.093-2.621-1.403-5.438-2.317-8.3-3.102-1.685-.457-3.392-.816-5.087-1.215-.066.012-.133.028-.203.04-.059-.048-.145-.083-.172-.145-.023-.051.047-.082.11-.07.628-.282 1.292-.419 1.964-.524.461-.07.907-.172 1.313-.41.992-.145 1.523-.742 1.515-1.66-1.886-.637-3.71-.223-5.53.351-.677.215-1.368.38-2.052.559-1.644.422-1.386.453-1.78 1.781-.09.297-.11.606-.098.918.007.113.02.219.113.297-.082.344.14.535.367.71.672.524 1.352 1.036 2.031 1.552.074.191.235.289.403.375.066.195.23.289.386.39.024.145.157.207.243.301 1.167 1.3 2.171 2.715 2.93 4.297.058.121.124.234.187.348.07.14.152.3.332.27.133-.028.234-.188.23-.302-.012-.515.293-.957.324-1.453.012-.222-.062-.43-.144-.64-.625-1.618-1.524-3.079-2.57-4.45-.094-.125-.211-.234-.274-.37-.078-.16.047-.239.188-.278.12.129.261.152.422.086.132.094.269.176.44.097.02.043.048.047.083.024.125.094.254.164.418.098.098.046.191.105.297.132 1.144.309 2.293.598 3.437.918 1.035.29 2.059.614 3.09.922.262.117.516.242.781.344 2.567 1.027 4.97 2.348 7.164 4.027.782.602 1.547 1.223 2.317 1.836.078.203.25.293.426.39.066.192.23.282.394.376.05.187.219.266.363.363.02.13.11.196.223.238a.1.1 0 00.086.079c.027.14.152.203.234.3.41.485.903.891 1.25 1.422.075-.004.23.094.121-.12-.07-.145-.05-.184.004-.188.051 0 .121.027.18.039 1.238 1.562 2.274 3.261 3.2 5.027l.21.52 1.266 3.086a.136.136 0 00.008.117.189.189 0 00.05.062.16.16 0 00.06.18c-.024.074-.005.133.058.18-.028.07-.004.132.054.18-.023.07-.007.132.055.179-.027.07-.008.133.055.176v.004c-.028.07-.012.132.05.175v.004c.016.059.032.118.051.176v.008c-.027.07-.011.129.051.176v.004c-.027.074-.012.132.047.18l.004.003v0c-.031.074-.016.133.047.18v.004c-.028.07-.012.129.047.176l.004.004c-.032.07-.016.132.042.18.11.57.215 1.136.325 1.702.148.278.148.59.191.89a.212.212 0 01-.09.044.268.268 0 01-.144-.016c.008.23 0 .461.11.672.042.063.07.125.073.203a6.692 6.692 0 00-.074-.203c-.012.074-.016.149.059.192-.059.101-.047.199.004.3-.04.063-.04.125.02.176-.02.074-.024.145.034.203-.015.035-.02.07 0 .106-.035.226-.02.449.051.668-.012.16-.031.32.04.472-.048.102-.02.2 0 .297-.056.637.003 1.278-.184 1.93.238-.043.41.144.593-.012zm-27.086-29.894h.004v0c0 .004-.004.004 0 .007-.004-.003-.004-.007-.004-.007zm26.332 21.773c-.004-.012-.004-.027-.004-.043 0 .004 0 .008.004.012.004.012.008.023.008.035 0 0-.004 0-.008-.004zm-.93-1.848h.005c.004 0 .007-.003.011-.003l.02-.004-.035.007v0zm.993 1.872c-.016-.004-.035-.012-.05-.016a.139.139 0 01-.009-.04.083.083 0 00.059.056zm-.078-.137l-.012-.043v-.004l.012.047zm1.261 7.129v0zm.024-.282c0-.003.004-.007.004-.011-.004.004-.004.008-.004.011zm-.98-2.66c.015.004.027.008.042.008l-.011.024c-.008-.012-.02-.02-.032-.032zm-.012.5a.12.12 0 01-.004.075h-.004a.167.167 0 00.008-.075zm0 0"/></g></g></g></g><g clip-path="url(#prefix__af)"><g clip-path="url(#prefix__ag)"><g clip-path="url(#prefix__ah)"><g clip-path="url(#prefix__ai)"><path fill="#fff" d="M203.492 150.715a11.656 11.656 0 00-.047-.18c-.027.074-.011.133.047.18zm0 0"/></g></g></g></g><g clip-path="url(#prefix__aj)"><g clip-path="url(#prefix__ak)"><g clip-path="url(#prefix__al)"><g clip-path="url(#prefix__am)"><path fill="#fff" d="M139.434 249.293c-.016.039-.008.074.015.11-.062.128-.293.1-.277.308-.227.39-.024.676.242.941.746.739 1.598 1.34 2.48 1.887 3.18 1.965 6.61 3.172 10.286 3.774 6.418 1.058 12.425-.16 18.148-3.036 2.652-1.336 5.024-3.113 7.313-5.004 1.343-1.109 2.62-2.3 3.922-3.457.03-.062.054-.125.085-.187.075-.024.149-.07.215-.063l.004.004c.055.008.04.086-.008.13-.132.675-.402 1.3-.703 1.91-.207.417-.379.835-.422 1.304-.449.899-.265 1.676.489 2.2 1.605-1.18 2.316-2.907 2.894-4.727.215-.676.477-1.336.727-2 .601-1.586.426-1.39-.43-2.48a2.811 2.811 0 00-.7-.606c-.097-.063-.19-.113-.308-.082-.23-.266-.515-.192-.789-.11-.816.25-1.625.512-2.441.77-.196-.05-.367.027-.535.11-.2-.055-.371.023-.543.097-.133-.066-.258.004-.387.02-1.734.21-3.469.218-5.2-.075-.128-.02-.261-.031-.39-.047-.156-.023-.336-.047-.41.118-.059.12.016.3.113.363.426.285.613.785 1 1.097.172.141.387.196.606.25 1.683.422 3.394.528 5.12.461.153-.007.31-.035.462-.011.172.031.164.175.117.316-.172.024-.274.125-.313.293-.156.055-.3.117-.336.305-.042-.008-.066.012-.066.054-.148.047-.277.114-.32.286-.094.054-.2.097-.281.168-.91.757-1.81 1.53-2.727 2.28-.832.68-1.688 1.333-2.531 1.993-.246.148-.496.29-.735.445-2.312 1.508-4.777 2.711-7.414 3.54-.941.292-1.89.558-2.836.84-.21-.055-.382.034-.562.12-.2-.054-.367.028-.535.11-.184-.067-.34.023-.504.086-.117-.059-.223-.024-.324.043-.043-.016-.083-.008-.114.027-.133-.059-.258.008-.383.02-.628.054-1.246.226-1.882.203-.04.062-.207.136.03.168.157.023.177.066.15.113-.028.039-.09.082-.133.121-1.993.113-3.977-.016-5.954-.277-.18-.043-.363-.086-.547-.125-1.082-.25-2.167-.496-3.25-.743a.166.166 0 00-.101-.062.197.197 0 00-.082.004c-.047-.059-.11-.074-.18-.055-.047-.058-.105-.074-.176-.055-.046-.062-.109-.078-.183-.054a.144.144 0 00-.176-.059c-.047-.066-.105-.086-.176-.058l-.004-.004c-.043-.063-.101-.082-.172-.059h-.003c-.059-.023-.114-.047-.172-.062l-.008-.004c-.043-.063-.098-.082-.172-.059l-.008-.004c-.039-.062-.097-.086-.172-.062h-.004l-.003-.004.003.004c-.043-.067-.101-.09-.171-.067h-.004c-.043-.066-.102-.086-.176-.062v-.004c-.043-.063-.102-.086-.176-.067l-1.578-.714c-.313-.04-.57-.22-.84-.356a.238.238 0 01.117-.207c-.195-.125-.379-.265-.617-.297a.406.406 0 01-.207-.058l.207.058c-.055-.054-.11-.097-.187-.062-.047-.106-.137-.156-.246-.168-.032-.07-.083-.106-.16-.086-.048-.063-.102-.106-.184-.09-.02-.035-.047-.059-.086-.063a1.458 1.458 0 00-.574-.34c-.125-.105-.246-.214-.41-.245-.055-.094-.153-.125-.247-.165-.484-.414-1.043-.734-1.472-1.261-.098.215-.352.25-.328.492zm40.035-4.941h-.004c0 .003.004.003.004.003-.004 0-.004-.003-.004-.003v-.004l.004.004zm-32.961 8.996a.344.344 0 00.039.023c-.004-.004-.008-.004-.012-.004l-.039-.015c.004 0 .008 0 .012-.004zm2.047.304s-.004 0-.004.004 0 .008-.004.012l-.008.016.012-.032h.004zm-2.106-.265c.016-.012.031-.024.047-.032l.035.012a.108.108 0 00-.082.02zm.16.011l.043.02c-.011-.004-.027-.012-.043-.02zm-6.554-3.07c0 .004-.004 0-.004 0h-.004l-.004-.004c.004 0 .008.004.012.004zm.218.184c0 .004 0 .008.004.008 0-.004-.004-.008-.004-.008zm2.735.73c-.008.008-.02.02-.028.031l-.011-.023a.139.139 0 01.039-.008zm-.403-.297c-.023-.007-.039-.027-.054-.05.015.023.035.039.054.05zm0 0"/></g></g></g></g><g clip-path="url(#prefix__an)"><g clip-path="url(#prefix__ao)"><g clip-path="url(#prefix__ap)"><g clip-path="url(#prefix__aq)"><path fill="#fff" d="M147.125 253.184c.059.02.113.039.172.062-.043-.066-.102-.086-.172-.062zm0 0"/></g></g></g></g><g clip-path="url(#prefix__ar)"><g clip-path="url(#prefix__as)"><g clip-path="url(#prefix__at)"><g clip-path="url(#prefix__au)"><path fill="#fff" d="M93.547 149.945a.101.101 0 00-.098-.047c-.074-.128.082-.3-.097-.406-.192-.406-.54-.406-.91-.336-1.032.192-2.012.547-2.97.961-3.421 1.492-6.37 3.625-8.96 6.301-4.524 4.668-6.95 10.3-7.848 16.644-.418 2.938-.305 5.899-.059 8.86.149 1.738.399 3.46.606 5.191.035.063.07.117.105.176-.02.074-.023.164-.074.215-.039.039-.094-.016-.101-.078-.48-.496-.84-1.074-1.168-1.668-.227-.41-.477-.79-.836-1.09-.477-.883-1.223-1.176-2.082-.852.05 1.989 1.066 3.559 2.23 5.07.434.563.828 1.153 1.23 1.739.962 1.398.903 1.14 2.286 1.059.308-.02.61-.11.894-.227.106-.043.2-.094.243-.207.351-.043.453-.316.539-.59.261-.812.507-1.625.761-2.441.153-.133.188-.317.215-.504.156-.13.192-.317.23-.5.126-.074.141-.215.2-.332.82-1.543 1.8-2.969 3.027-4.227.094-.094.176-.195.266-.297.105-.113.226-.246.133-.402-.067-.117-.254-.156-.36-.113-.48.187-.996.054-1.476.195-.211.063-.38.207-.551.356-1.305 1.144-2.367 2.488-3.297 3.945-.082.129-.145.273-.25.383-.125.125-.242.035-.328-.082.078-.157.055-.297-.063-.426.043-.156.075-.313-.058-.45.031-.03.027-.058-.008-.085.047-.149.066-.293-.05-.426.007-.106.03-.215.023-.324-.106-1.18-.23-2.36-.32-3.54-.087-1.074-.133-2.148-.196-3.218.016-.285.047-.57.05-.852.083-2.765.497-5.472 1.321-8.113.293-.941.617-1.875.926-2.809.164-.14.191-.335.219-.53.16-.13.187-.317.218-.505.16-.113.172-.293.215-.46.114-.067.149-.173.149-.294.039-.023.054-.058.043-.105.125-.074.14-.215.203-.328.312-.547.523-1.153.906-1.66-.031-.07.004-.25-.156-.075-.11.118-.156.11-.176.059-.02-.043-.02-.117-.027-.176 1.043-1.703 2.28-3.258 3.625-4.734l.41-.375c.82-.75 1.644-1.5 2.46-2.25.048-.004.087-.02.11-.047a.163.163 0 00.043-.07.16.16 0 00.148-.118c.079-.003.126-.042.149-.117.074 0 .125-.039.148-.113.079-.004.13-.04.149-.113.078 0 .129-.04.148-.114h.004c.074 0 .13-.035.149-.109h.004c.05-.035.101-.07.148-.11l.004-.003c.078.004.125-.031.148-.106l.008-.004c.074.004.125-.03.149-.105l.003-.004h0c.079.004.13-.031.153-.105.078.003.129-.036.152-.106l.004-.004c.078.004.129-.031.152-.105.496-.297.993-.59 1.489-.887.21-.238.504-.344.77-.488.03.02.054.043.07.07.027.043.039.086.035.14.215-.085.433-.156.593-.335a.374.374 0 01.164-.137c-.05.047-.109.09-.164.137.075-.012.145-.035.16-.117.114.02.204-.024.282-.11.074.016.129-.004.16-.078.074-.004.14-.027.18-.102a.107.107 0 00.097-.035c.223-.047.426-.136.606-.277.156-.043.316-.082.437-.2.11.009.192-.05.274-.105.617-.164 1.199-.441 1.875-.492-.121-.203-.004-.434-.215-.55zM74.785 185.66l.004-.004h-.004l.004-.004v.004h.004c-.004 0-.004 0-.008.004zm11.399-32.215c-.016.008-.028.016-.04.02l.008-.008a.085.085 0 01.032-.02v.008zm-1.418 1.512v-.004l-.012-.012-.008-.015.02.027h.004s-.004 0-.004.004zm1.418-1.578v.055c-.012.007-.02.011-.032.02a.094.094 0 00.032-.075zm-.102.121a.104.104 0 01-.039.023s0 .004-.004.004c.016-.007.031-.015.043-.027zm6.258-3.633c0-.004.004-.004.004-.004l.004-.004h.004c-.004.004-.008.004-.012.008zm-.274.074c-.004-.004-.007-.004-.007 0h.007zm-2.16 1.832c0-.015-.004-.027-.008-.043.008 0 .016.004.028.004-.008.012-.012.028-.02.04zm.477-.164a.134.134 0 01.07-.015.313.313 0 00-.07.015zm0 0"/></g></g></g></g><g clip-path="url(#prefix__av)"><g clip-path="url(#prefix__aw)"><g clip-path="url(#prefix__ax)"><g clip-path="url(#prefix__ay)"><path fill="#fff" d="M85.965 154.047c-.047.035-.098.074-.149.105.079.004.13-.03.149-.105zm0 0"/></g></g></g></g><path transform="matrix(.74987 .00605 -.00605 .74998 136.49 77.868)" fill="none" d="M-.002 1.999L223.036 2" stroke="#000" stroke-width="4"/><path transform="matrix(.75062 -.00364 .00364 .75 135.126 291.168)" fill="none" d="M0 2l224.814.002" stroke="#000" stroke-width="4"/><g clip-path="url(#prefix__az)"><path fill="#5ce1e6" d="M294.695 306.992l-8.492-9.492a.946.946 0 00-.703-.316h-5.664a.95.95 0 00-.863.562.956.956 0 00.164 1.02l7.922 8.863-7.922 8.855a.95.95 0 00.7 1.586h5.663c.266 0 .52-.117.703-.312l8.492-9.496c.32-.36.32-.91 0-1.27zm0 0"/></g><g clip-path="url(#prefix__aA)"><path fill="#5ce1e6" d="M282.426 306.992l-8.492-9.492a.94.94 0 00-.704-.316h-5.66a.947.947 0 00-.703 1.582l7.926 8.863-7.926 8.855a.955.955 0 00-.16 1.024.94.94 0 00.863.562h5.66c.27 0 .52-.117.704-.312l8.492-9.496a.95.95 0 000-1.27zm0 0"/></g><g clip-path="url(#prefix__aB)"><path fill="#38b6ff" d="M257.57 306.992l-8.492-9.492a.946.946 0 00-.703-.316h-5.664a.95.95 0 00-.863.562.962.962 0 00.16 1.02l7.926 8.863-7.926 8.855a.95.95 0 00.703 1.586h5.664c.266 0 .52-.117.703-.312l8.492-9.496c.32-.36.32-.91 0-1.27zm0 0"/></g><g clip-path="url(#prefix__aC)"><path fill="#38b6ff" d="M245.3 306.992l-8.491-9.492a.94.94 0 00-.704-.316h-5.66a.947.947 0 00-.703 1.582l7.926 8.863-7.926 8.855a.955.955 0 00-.16 1.024.94.94 0 00.863.562h5.66c.27 0 .52-.117.704-.312l8.492-9.496a.95.95 0 000-1.27zm0 0"/></g><g clip-path="url(#prefix__aD)"><path fill="#38b6ff" d="M220.445 306.992l-8.492-9.492a.946.946 0 00-.703-.316h-5.664a.95.95 0 00-.863.562.956.956 0 00.164 1.02l7.922 8.863-7.922 8.855a.95.95 0 00.7 1.586h5.663c.266 0 .52-.117.703-.312l8.492-9.496c.32-.36.32-.91 0-1.27zm0 0"/></g><g clip-path="url(#prefix__aE)"><path fill="#38b6ff" d="M208.176 306.992l-8.492-9.492a.94.94 0 00-.704-.316h-5.66a.947.947 0 00-.703 1.582l7.926 8.863-7.926 8.855a.955.955 0 00-.16 1.024.94.94 0 00.863.562h5.66c.27 0 .52-.117.704-.312l8.492-9.496a.95.95 0 000-1.27zm0 0"/></g><g clip-path="url(#prefix__aF)"><path fill="#38b6ff" d="M183.32 306.992l-8.492-9.492a.946.946 0 00-.703-.316h-5.664a.95.95 0 00-.863.562.956.956 0 00.164 1.02l7.922 8.863-7.922 8.855a.95.95 0 00.7 1.586h5.663c.266 0 .52-.117.703-.312l8.492-9.496c.32-.36.32-.91 0-1.27zm0 0"/></g><g clip-path="url(#prefix__aG)"><path fill="#38b6ff" d="M171.05 306.992l-8.491-9.492a.94.94 0 00-.704-.316h-5.66a.947.947 0 00-.703 1.582l7.926 8.863-7.926 8.855a.955.955 0 00-.16 1.024.94.94 0 00.863.562h5.66c.27 0 .52-.117.704-.312l8.492-9.496a.95.95 0 000-1.27zm0 0"/></g><g clip-path="url(#prefix__aH)"><g clip-path="url(#prefix__aI)"><g clip-path="url(#prefix__aJ)"><path fill="#5ce1e6" d="M146.184 306.746l-8.66-9.344a.948.948 0 00-.708-.3l-5.66.097a.947.947 0 00-.851.578.956.956 0 00.175 1.02l8.083 8.719-7.77 8.996a.952.952 0 00.73 1.574l5.665-.102a.96.96 0 00.695-.324l8.324-9.644a.954.954 0 00-.023-1.27zm0 0"/></g></g></g><g clip-path="url(#prefix__aK)"><g clip-path="url(#prefix__aL)"><g clip-path="url(#prefix__aM)"><path fill="#5ce1e6" d="M133.918 306.96l-8.66-9.339a.937.937 0 00-.707-.305l-5.66.102a.95.95 0 00-.856.578.95.95 0 00.18 1.016l8.082 8.718-7.77 8.997a.959.959 0 00-.14 1.027c.16.34.5.555.87.547l5.665-.098a.979.979 0 00.695-.328l8.324-9.64a.96.96 0 00-.023-1.274zm0 0"/></g></g></g><g clip-path="url(#prefix__aN)"><g clip-path="url(#prefix__aO)"><g clip-path="url(#prefix__aP)"><path fill="#38b6ff" d="M99.406 301.191l-2.023-12.574a.945.945 0 00-.422-.644l-4.766-3.059a.949.949 0 00-1.445.953l1.887 11.738-11.453 3.176a.951.951 0 00-.266 1.715l4.766 3.059c.226.144.5.183.761.113l12.274-3.406a.954.954 0 00.687-1.07zm0 0"/></g></g></g><g clip-path="url(#prefix__aQ)"><g clip-path="url(#prefix__aR)"><g clip-path="url(#prefix__aS)"><path fill="#38b6ff" d="M89.078 294.57l-2.023-12.578a.94.94 0 00-.422-.644l-4.766-3.055a.942.942 0 00-1.027.004.966.966 0 00-.418.95l1.887 11.733-11.454 3.18a.954.954 0 00-.687.774.945.945 0 00.422.937l4.77 3.059c.222.144.5.183.757.117l12.278-3.406a.957.957 0 00.683-1.07zm0 0"/></g></g></g><g clip-path="url(#prefix__aT)"><g clip-path="url(#prefix__aU)"><g clip-path="url(#prefix__aV)"><path fill="#38b6ff" d="M61.434 282.32l.468-12.73a.94.94 0 00-.289-.715l-4.078-3.93a.945.945 0 00-1.012-.191.955.955 0 00-.593.848l-.438 11.878-11.851.883a.942.942 0 00-.825.625.94.94 0 00.23 1.004l4.079 3.926a.951.951 0 00.723.262l12.703-.946a.957.957 0 00.883-.914zm0 0"/></g></g></g><g clip-path="url(#prefix__aW)"><g clip-path="url(#prefix__aX)"><g clip-path="url(#prefix__aY)"><path fill="#38b6ff" d="M52.598 273.809l.468-12.73a.96.96 0 00-.289-.716l-4.078-3.925a.948.948 0 00-1.605.652l-.438 11.879-11.851.883a.948.948 0 00-.825.625.94.94 0 00.23 1.003l4.08 3.93a.96.96 0 00.722.262l12.703-.95a.957.957 0 00.883-.913zm0 0"/></g></g></g><g clip-path="url(#prefix__aZ)"><g clip-path="url(#prefix__ba)"><g clip-path="url(#prefix__bb)"><path fill="#38b6ff" d="M36.793 250.25l3.941-12.113a.938.938 0 00-.082-.766l-2.843-4.894a.95.95 0 00-1.723.187L32.41 243.97l-11.64-2.399a.947.947 0 00-.965.375.944.944 0 00-.055 1.028l2.848 4.894c.132.235.359.395.62.45l12.477 2.574a.95.95 0 001.098-.641zm0 0"/></g></g></g><g clip-path="url(#prefix__bc)"><g clip-path="url(#prefix__bd)"><g clip-path="url(#prefix__be)"><path fill="#38b6ff" d="M30.629 239.645l3.941-12.114a.938.938 0 00-.082-.765l-2.843-4.895a.946.946 0 00-.922-.465.954.954 0 00-.801.653l-3.676 11.304-11.644-2.402a.958.958 0 00-.961.375.943.943 0 00-.055 1.031l2.844 4.895c.136.23.363.39.625.449l12.476 2.57a.952.952 0 001.098-.636zm0 0"/></g></g></g><g clip-path="url(#prefix__bf)"><path fill="#5ce1e6" d="M20.016 200.004l9.492-8.492a.934.934 0 00.316-.703v-5.66a.945.945 0 00-.562-.864.946.946 0 00-1.02.16l-8.863 7.926-8.856-7.926a.955.955 0 00-1.023-.16.945.945 0 00-.563.863v5.66c0 .27.114.524.313.704l9.496 8.492a.95.95 0 001.27 0zm0 0"/></g><g clip-path="url(#prefix__bg)"><path fill="#5ce1e6" d="M20.016 187.738l9.492-8.496a.932.932 0 00.316-.699v-5.664a.95.95 0 00-.562-.863.961.961 0 00-1.02.16l-8.863 7.926-8.856-7.926a.95.95 0 00-1.586.703v5.664c0 .266.114.52.313.7l9.496 8.495c.36.32.91.32 1.27 0zm0 0"/></g><g clip-path="url(#prefix__bh)"><g clip-path="url(#prefix__bi)"><g clip-path="url(#prefix__bj)"><path fill="#38b6ff" d="M22.281 145.098l12.64-1.57a.951.951 0 00.661-.4l3.227-4.651a.95.95 0 00-.903-1.48L26.11 138.46l-2.765-11.559a.952.952 0 00-1.703-.324l-3.227 4.652a.948.948 0 00-.14.758l2.964 12.387a.949.949 0 001.043.723zm0 0"/></g></g></g><g clip-path="url(#prefix__bk)"><g clip-path="url(#prefix__bl)"><g clip-path="url(#prefix__bm)"><path fill="#38b6ff" d="M29.27 135.016l12.64-1.575a.933.933 0 00.66-.394l3.223-4.656a.935.935 0 00.031-1.028.953.953 0 00-.93-.449l-11.796 1.465-2.766-11.559a.963.963 0 00-.75-.715.941.941 0 00-.953.387l-3.227 4.656a.936.936 0 00-.14.754l2.965 12.391a.95.95 0 001.043.723zm0 0"/></g></g></g><g clip-path="url(#prefix__bn)"><g clip-path="url(#prefix__bo)"><g clip-path="url(#prefix__bp)"><path fill="#38b6ff" d="M45.11 108.906l12.671 1.317a.941.941 0 00.73-.239l4.192-3.808a.948.948 0 00.258-.996.954.954 0 00-.805-.649l-11.824-1.226-.09-11.887a.948.948 0 00-1.586-.7l-4.191 3.805a.963.963 0 00-.309.707l.098 12.739c.004.484.375.89.855.937zm0 0"/></g></g></g><g clip-path="url(#prefix__bq)"><g clip-path="url(#prefix__br)"><g clip-path="url(#prefix__bs)"><path fill="#38b6ff" d="M54.188 100.656l12.671 1.317a.936.936 0 00.73-.239l4.192-3.808a.942.942 0 00.262-.996.958.958 0 00-.805-.649l-11.824-1.226-.09-11.887a.95.95 0 00-1.586-.7l-4.191 3.805a.955.955 0 00-.309.707l.098 12.739c.004.484.375.89.852.937zm0 0"/></g></g></g><g clip-path="url(#prefix__bt)"><g clip-path="url(#prefix__bu)"><g clip-path="url(#prefix__bv)"><path fill="#38b6ff" d="M75.379 84.59l11.808 4.773c.254.098.532.09.77-.027l5.082-2.5a.95.95 0 00.527-.883.958.958 0 00-.597-.848l-11.02-4.453 3.203-11.445a.946.946 0 00-.304-.988.943.943 0 00-1.024-.125l-5.082 2.496a.974.974 0 00-.492.59l-3.434 12.27a.957.957 0 00.563 1.14zm0 0"/></g></g></g><g clip-path="url(#prefix__bw)"><g clip-path="url(#prefix__bx)"><g clip-path="url(#prefix__by)"><path fill="#38b6ff" d="M86.387 79.176l11.812 4.773c.25.102.528.094.77-.027l5.082-2.496a.945.945 0 00.523-.887.945.945 0 00-.594-.844l-11.02-4.457 3.204-11.445a.958.958 0 00-.305-.988.952.952 0 00-1.023-.125l-5.082 2.5a.94.94 0 00-.492.59l-3.434 12.265a.953.953 0 00.559 1.14zm0 0"/></g></g></g><g clip-path="url(#prefix__bz)"><path fill="#5ce1e6" d="M118.215 68.148l8.492 9.493a.946.946 0 00.703.316h5.664a.95.95 0 00.863-.562.956.956 0 00-.164-1.02l-7.921-8.86 7.921-8.859a.95.95 0 00-.7-1.586h-5.663a.971.971 0 00-.703.313l-8.492 9.496c-.32.36-.32.91 0 1.27zm0 0"/></g><g clip-path="url(#prefix__bA)"><path fill="#5ce1e6" d="M130.484 68.148l8.493 9.493a.94.94 0 00.703.316h5.66a.947.947 0 00.703-1.582l-7.926-8.86 7.926-8.859a.955.955 0 00.16-1.023.94.94 0 00-.863-.563h-5.66c-.27 0-.52.117-.703.313l-8.493 9.496a.95.95 0 000 1.27zm0 0"/></g><g clip-path="url(#prefix__bB)"><g clip-path="url(#prefix__bC)"><g clip-path="url(#prefix__bD)"><path fill="#38b6ff" d="M154.75 67.309l8.207 9.742a.947.947 0 00.691.34l5.66.168a.948.948 0 00.75-1.563l-7.656-9.094 8.188-8.613a.948.948 0 00.191-1.016.931.931 0 00-.844-.59l-5.66-.171a.955.955 0 00-.71.293l-8.778 9.234a.96.96 0 00-.039 1.27zm0 0"/></g></g></g><g clip-path="url(#prefix__bE)"><g clip-path="url(#prefix__bF)"><g clip-path="url(#prefix__bG)"><path fill="#38b6ff" d="M167.016 67.676l8.203 9.746a.936.936 0 00.691.336l5.66.172a.948.948 0 00.75-1.563l-7.656-9.094 8.188-8.617a.946.946 0 00.191-1.015.944.944 0 00-.844-.59l-5.66-.172a.955.955 0 00-.71.293l-8.778 9.234a.955.955 0 00-.035 1.27zm0 0"/></g></g></g><g clip-path="url(#prefix__bH)"><g clip-path="url(#prefix__bI)"><g clip-path="url(#prefix__bJ)"><path fill="#5ce1e6" d="M266.402 67.309l8.207 9.742a.947.947 0 00.692.34l5.66.168a.948.948 0 00.75-1.563l-7.656-9.094 8.187-8.613a.948.948 0 00.192-1.016.931.931 0 00-.844-.59l-5.66-.171a.955.955 0 00-.711.293l-8.778 9.234a.96.96 0 00-.039 1.27zm0 0"/></g></g></g><g clip-path="url(#prefix__bK)"><g clip-path="url(#prefix__bL)"><g clip-path="url(#prefix__bM)"><path fill="#5ce1e6" d="M278.668 67.676l8.203 9.746a.936.936 0 00.692.336l5.66.172a.948.948 0 00.75-1.563l-7.657-9.094 8.188-8.617a.946.946 0 00.191-1.015.944.944 0 00-.843-.59l-5.66-.172a.955.955 0 00-.712.293l-8.777 9.234a.955.955 0 00-.035 1.27zm0 0"/></g></g></g><g clip-path="url(#prefix__bN)"><g clip-path="url(#prefix__bO)"><g clip-path="url(#prefix__bP)"><path fill="#38b6ff" d="M229.277 67.309l8.207 9.742a.947.947 0 00.692.34l5.66.168a.948.948 0 00.75-1.563l-7.656-9.094 8.187-8.613a.948.948 0 00.192-1.016.931.931 0 00-.844-.59l-5.66-.171a.955.955 0 00-.711.293l-8.778 9.234a.96.96 0 00-.039 1.27zm0 0"/></g></g></g><g clip-path="url(#prefix__bQ)"><g clip-path="url(#prefix__bR)"><g clip-path="url(#prefix__bS)"><path fill="#38b6ff" d="M241.543 67.676l8.203 9.746a.936.936 0 00.691.336l5.66.172a.948.948 0 00.75-1.563l-7.656-9.094 8.188-8.617a.946.946 0 00.191-1.015.944.944 0 00-.843-.59l-5.66-.172a.955.955 0 00-.712.293l-8.777 9.234a.955.955 0 00-.035 1.27zm0 0"/></g></g></g><g clip-path="url(#prefix__bT)"><g clip-path="url(#prefix__bU)"><g clip-path="url(#prefix__bV)"><path fill="#38b6ff" d="M192.762 67.309l8.203 9.742a.962.962 0 00.695.34l5.656.168a.95.95 0 00.883-.536.957.957 0 00-.133-1.027l-7.652-9.094 8.188-8.613a.956.956 0 00.191-1.016.937.937 0 00-.848-.59l-5.656-.171a.964.964 0 00-.715.293l-8.773 9.234a.955.955 0 00-.04 1.27zm0 0"/></g></g></g><g clip-path="url(#prefix__bW)"><g clip-path="url(#prefix__bX)"><g clip-path="url(#prefix__bY)"><path fill="#38b6ff" d="M205.023 67.676l8.207 9.746a.93.93 0 00.692.336l5.66.172a.948.948 0 00.75-1.563l-7.656-9.094 8.187-8.617a.946.946 0 00.192-1.015.944.944 0 00-.844-.59l-5.66-.172a.955.955 0 00-.711.293l-8.778 9.234a.96.96 0 00-.039 1.27zm0 0"/></g></g></g></svg>