<svg xmlns="http://www.w3.org/2000/svg" xmlns:xlink="http://www.w3.org/1999/xlink" width="450" zoomAndPan="magnify" viewBox="0 0 337.5 374.999991" height="500" preserveAspectRatio="xMidYMid meet" version="1.0"><defs><clipPath id="6a3693b4d2"><path d="M 0 52.777344 L 303.75 52.777344 L 303.75 323 L 0 323 Z M 0 52.777344 " clip-rule="nonzero"/></clipPath><clipPath id="6bbfb26ff7"><path d="M 7.917969 142.824219 C 3.136719 156.667969 0 172.40625 0 187.851562 C 0 203.296875 2.6875 218.15625 7.46875 231.855469 C 7.621094 232.144531 7.621094 232.4375 7.769531 232.730469 C 26.890625 284.164062 77.390625 322.050781 135.65625 322.777344 L 303.75 322.777344 L 303.75 52.777344 L 135.78125 52.777344 C 77.09375 53.507812 26.59375 90.808594 7.917969 142.824219 " clip-rule="nonzero"/></clipPath><clipPath id="ee4801d792"><path d="M 0 52.777344 L 303.75 52.777344 L 303.75 322.777344 L 0 322.777344 Z M 0 52.777344 " clip-rule="nonzero"/></clipPath><clipPath id="edf427c448"><path d="M 7.917969 142.824219 C 3.136719 156.667969 0 172.40625 0 187.851562 C 0 203.296875 2.6875 218.15625 7.46875 231.855469 C 7.621094 232.144531 7.621094 232.4375 7.769531 232.730469 C 26.890625 284.164062 77.390625 322.050781 135.65625 322.777344 L 303.75 322.777344 L 303.75 52.777344 L 135.78125 52.777344 C 77.09375 53.507812 26.59375 90.808594 7.917969 142.824219 " clip-rule="nonzero"/></clipPath><clipPath id="fcee88b753"><path d="M 34 77 L 251 77 L 251 294 L 34 294 Z M 34 77 " clip-rule="nonzero"/></clipPath><clipPath id="28b01375e0"><path d="M 276.660156 112.074219 L 216.417969 319.804688 L 8.6875 259.5625 L 68.929688 51.832031 Z M 276.660156 112.074219 " clip-rule="nonzero"/></clipPath><clipPath id="c1a9e3a20b"><path d="M 246.578125 215.800781 C 263.191406 158.515625 230.21875 98.605469 172.933594 81.992188 C 115.644531 65.378906 55.738281 98.351562 39.125 155.640625 C 22.511719 212.925781 55.484375 272.832031 112.769531 289.445312 C 170.058594 306.058594 229.964844 273.085938 246.578125 215.800781 " clip-rule="nonzero"/></clipPath><clipPath id="edbe17cc6e"><path d="M 34 77 L 251 77 L 251 294 L 34 294 Z M 34 77 " clip-rule="nonzero"/></clipPath><clipPath id="c5a381c1ba"><path d="M 276.660156 112.074219 L 216.496094 319.527344 L 9.042969 259.363281 L 69.207031 51.914062 Z M 276.660156 112.074219 " clip-rule="nonzero"/></clipPath><clipPath id="1411b8b7d7"><path d="M 276.660156 112.074219 L 215.644531 322.460938 L 5.261719 261.449219 L 66.273438 51.0625 Z M 276.660156 112.074219 " clip-rule="nonzero"/></clipPath><clipPath id="d97d297442"><path d="M 246.578125 215.800781 C 263.191406 158.515625 230.21875 98.605469 172.933594 81.992188 C 115.644531 65.378906 55.738281 98.351562 39.125 155.640625 C 22.511719 212.925781 55.484375 272.832031 112.769531 289.445312 C 170.058594 306.058594 229.964844 273.085938 246.578125 215.800781 " clip-rule="nonzero"/></clipPath><clipPath id="1de1620320"><path d="M 175 184 L 211 184 L 211 210 L 175 210 Z M 175 184 " clip-rule="nonzero"/></clipPath><clipPath id="4eb66f65e9"><path d="M 210.273438 192.722656 L 205.65625 210.289062 L 174.78125 202.171875 L 179.398438 184.605469 Z M 210.273438 192.722656 " clip-rule="nonzero"/></clipPath><clipPath id="16cec6499b"><path d="M 210.273438 192.722656 L 205.753906 209.90625 L 175.070312 201.835938 L 179.589844 184.65625 Z M 210.273438 192.722656 " clip-rule="nonzero"/></clipPath><clipPath id="b4b9482567"><path d="M 93 201 L 129 201 L 129 237 L 93 237 Z M 93 201 " clip-rule="nonzero"/></clipPath><clipPath id="7bf113330c"><path d="M 116.058594 201.6875 L 128.820312 214.613281 L 106.105469 237.042969 L 93.34375 224.121094 Z M 116.058594 201.6875 " clip-rule="nonzero"/></clipPath><clipPath id="9f68c36659"><path d="M 116.058594 201.6875 L 128.542969 214.328125 L 105.96875 236.625 L 93.484375 223.980469 Z M 116.058594 201.6875 " clip-rule="nonzero"/></clipPath><clipPath id="106ed1638d"><path d="M 111 137 L 193 137 L 193 220 L 111 220 Z M 111 137 " clip-rule="nonzero"/></clipPath><clipPath id="ab57229223"><path d="M 92.050781 148.382812 L 174.34375 126.320312 L 193.5 197.785156 L 111.207031 219.847656 Z M 92.050781 148.382812 " clip-rule="nonzero"/></clipPath><clipPath id="5437c88ce6"><path d="M 132.878906 137.4375 L 192.683594 197.265625 L 111.019531 219.15625 L 132.878906 137.4375 " clip-rule="nonzero"/></clipPath><clipPath id="aa2483f1c4"><path d="M 122 127 L 148 127 L 148 163 L 122 163 Z M 122 127 " clip-rule="nonzero"/></clipPath><clipPath id="4639af8e26"><path d="M 122.25 132.109375 L 139.792969 127.40625 L 148.0625 158.242188 L 130.515625 162.945312 Z M 122.25 132.109375 " clip-rule="nonzero"/></clipPath><clipPath id="10cfb3b78a"><path d="M 122.25 132.109375 L 139.410156 127.511719 L 147.625 158.15625 L 130.464844 162.757812 Z M 122.25 132.109375 " clip-rule="nonzero"/></clipPath><clipPath id="752e2452a3"><path d="M 97 82 L 154 82 L 154 138 L 97 138 Z M 97 82 " clip-rule="nonzero"/></clipPath><clipPath id="9da5696b84"><path d="M 105.070312 143.558594 L 91.910156 89.515625 L 145.953125 76.355469 L 159.113281 130.394531 Z M 105.070312 143.558594 " clip-rule="nonzero"/></clipPath><clipPath id="92e6c5082f"><path d="M 98.492188 116.535156 C 102.125 131.460938 117.167969 140.609375 132.09375 136.976562 C 147.015625 133.34375 156.167969 118.296875 152.535156 103.375 C 148.898438 88.453125 133.855469 79.300781 118.929688 82.933594 C 104.007812 86.570312 94.855469 101.613281 98.492188 116.535156 " clip-rule="nonzero"/></clipPath><clipPath id="fe004df7f9"><path d="M 97 82 L 154 82 L 154 138 L 97 138 Z M 97 82 " clip-rule="nonzero"/></clipPath><clipPath id="6e5ded392e"><path d="M 105.070312 143.558594 L 91.9375 89.632812 L 145.863281 76.5 L 158.996094 130.425781 Z M 105.070312 143.558594 " clip-rule="nonzero"/></clipPath><clipPath id="24a2503986"><path d="M 105.070312 143.558594 L 91.9375 89.632812 L 145.863281 76.5 L 158.996094 130.425781 Z M 105.070312 143.558594 " clip-rule="nonzero"/></clipPath><clipPath id="990d1dd4b1"><path d="M 98.503906 116.59375 C 102.132812 131.484375 117.140625 140.617188 132.03125 136.992188 C 146.921875 133.363281 156.054688 118.355469 152.429688 103.464844 C 148.800781 88.574219 133.792969 79.441406 118.902344 83.066406 C 104.011719 86.695312 94.878906 101.703125 98.503906 116.59375 " clip-rule="nonzero"/></clipPath><clipPath id="7c7e5d655a"><path d="M 62 212 L 118 212 L 118 269 L 62 269 Z M 62 212 " clip-rule="nonzero"/></clipPath><clipPath id="ed875fa51c"><path d="M 50.480469 240.339844 L 89.820312 201.019531 L 129.140625 240.359375 L 89.800781 279.679688 Z M 50.480469 240.339844 " clip-rule="nonzero"/></clipPath><clipPath id="da330bd3e8"><path d="M 70.152344 220.679688 C 59.285156 231.535156 59.28125 249.144531 70.140625 260.007812 C 80.996094 270.871094 98.605469 270.878906 109.472656 260.019531 C 120.335938 249.160156 120.339844 231.554688 109.480469 220.6875 C 98.625 209.824219 81.015625 209.820312 70.152344 220.679688 " clip-rule="nonzero"/></clipPath><clipPath id="54f262e171"><path d="M 61 212 L 118 212 L 118 269 L 61 269 Z M 61 212 " clip-rule="nonzero"/></clipPath><clipPath id="866c3728c3"><path d="M 50.480469 240.339844 L 89.734375 201.105469 L 128.96875 240.359375 L 89.714844 279.59375 Z M 50.480469 240.339844 " clip-rule="nonzero"/></clipPath><clipPath id="4f27393d6a"><path d="M 50.480469 240.339844 L 89.734375 201.105469 L 128.96875 240.359375 L 89.714844 279.59375 Z M 50.480469 240.339844 " clip-rule="nonzero"/></clipPath><clipPath id="6d749104ec"><path d="M 70.109375 220.722656 C 59.269531 231.554688 59.261719 249.125 70.097656 259.964844 C 80.929688 270.804688 98.5 270.8125 109.339844 259.976562 C 120.179688 249.144531 120.1875 231.574219 109.351562 220.730469 C 98.519531 209.890625 80.949219 209.886719 70.109375 220.722656 " clip-rule="nonzero"/></clipPath><clipPath id="7707ec2cc7"><path d="M 189 176 L 246 176 L 246 232 L 189 232 Z M 189 176 " clip-rule="nonzero"/></clipPath><clipPath id="573eafb092"><path d="M 197.148438 237.722656 L 183.988281 183.679688 L 238.03125 170.519531 L 251.191406 224.5625 Z M 197.148438 237.722656 " clip-rule="nonzero"/></clipPath><clipPath id="4a8750aaee"><path d="M 190.570312 210.703125 C 194.203125 225.625 209.246094 234.777344 224.171875 231.140625 C 239.09375 227.507812 248.246094 212.464844 244.613281 197.539062 C 240.976562 182.617188 225.933594 173.464844 211.011719 177.101562 C 196.085938 180.734375 186.933594 195.777344 190.570312 210.703125 " clip-rule="nonzero"/></clipPath><clipPath id="b85579c01b"><path d="M 189 176 L 246 176 L 246 232 L 189 232 Z M 189 176 " clip-rule="nonzero"/></clipPath><clipPath id="fccc56b026"><path d="M 197.148438 237.722656 L 184.019531 183.800781 L 237.941406 170.667969 L 251.074219 224.589844 Z M 197.148438 237.722656 " clip-rule="nonzero"/></clipPath><clipPath id="942933e6cd"><path d="M 197.148438 237.722656 L 184.019531 183.800781 L 237.941406 170.667969 L 251.074219 224.589844 Z M 197.148438 237.722656 " clip-rule="nonzero"/></clipPath><clipPath id="ac83e66ef5"><path d="M 190.585938 210.761719 C 194.210938 225.652344 209.222656 234.785156 224.113281 231.15625 C 239.003906 227.53125 248.132812 212.519531 244.507812 197.628906 C 240.882812 182.738281 225.871094 173.605469 210.980469 177.234375 C 196.089844 180.859375 186.957031 195.871094 190.585938 210.761719 " clip-rule="nonzero"/></clipPath><clipPath id="532e20903f"><path d="M 118 102 L 133 102 L 133 117 L 118 117 Z M 118 102 " clip-rule="nonzero"/></clipPath><clipPath id="87112d4ac8"><path d="M 116.960938 105.023438 L 130.445312 101.410156 L 134.058594 114.894531 L 120.574219 118.507812 Z M 116.960938 105.023438 " clip-rule="nonzero"/></clipPath><clipPath id="2d754c8bc2"><path d="M 123.703125 103.21875 C 119.980469 104.214844 117.769531 108.042969 118.769531 111.765625 C 119.765625 115.488281 123.59375 117.699219 127.316406 116.699219 C 131.039062 115.703125 133.25 111.875 132.25 108.152344 C 131.253906 104.429688 127.425781 102.21875 123.703125 103.21875 " clip-rule="nonzero"/></clipPath><clipPath id="6ea2c3ea5d"><path d="M 82 233 L 97 233 L 97 248 L 82 248 Z M 82 233 " clip-rule="nonzero"/></clipPath><clipPath id="76b90279d1"><path d="M 89.808594 230.480469 L 99.675781 240.355469 L 89.804688 250.222656 L 79.933594 240.347656 Z M 89.808594 230.480469 " clip-rule="nonzero"/></clipPath><clipPath id="710fe53580"><path d="M 94.742188 235.417969 C 92.015625 232.691406 87.597656 232.6875 84.871094 235.414062 C 82.144531 238.140625 82.144531 242.558594 84.867188 245.285156 C 87.59375 248.011719 92.011719 248.011719 94.738281 245.289062 C 97.464844 242.5625 97.46875 238.144531 94.742188 235.417969 " clip-rule="nonzero"/></clipPath><clipPath id="b28f484cae"><path d="M 210 196 L 225 196 L 225 211 L 210 211 Z M 210 196 " clip-rule="nonzero"/></clipPath><clipPath id="5463df955f"><path d="M 209.289062 198.179688 L 222.773438 194.566406 L 226.386719 208.050781 L 212.902344 211.664062 Z M 209.289062 198.179688 " clip-rule="nonzero"/></clipPath><clipPath id="16f6cf4173"><path d="M 216.03125 196.375 C 212.304688 197.371094 210.097656 201.199219 211.09375 204.921875 C 212.09375 208.648438 215.921875 210.855469 219.644531 209.859375 C 223.367188 208.859375 225.578125 205.03125 224.578125 201.308594 C 223.582031 197.585938 219.753906 195.375 216.03125 196.375 " clip-rule="nonzero"/></clipPath><clipPath id="269acab573"><path d="M 171 124 L 207 124 L 207 160 L 171 160 Z M 171 124 " clip-rule="nonzero"/></clipPath><clipPath id="f66b97e4f4"><path d="M 205.070312 160.03125 L 168.839844 129.699219 L 177.503906 119.347656 L 213.734375 149.679688 Z M 205.070312 160.03125 " clip-rule="nonzero"/></clipPath><clipPath id="0a39a04682"><path d="M 205.070312 160.03125 L 168.839844 129.699219 L 177.503906 119.347656 L 213.734375 149.679688 Z M 205.070312 160.03125 " clip-rule="nonzero"/></clipPath><clipPath id="8fb86d6bc0"><path d="M 205.070312 160.03125 L 168.839844 129.699219 L 177.503906 119.347656 L 213.734375 149.679688 Z M 205.070312 160.03125 " clip-rule="nonzero"/></clipPath><clipPath id="352f722fc2"><path d="M 203 150 L 204 150 L 204 151 L 203 151 Z M 203 150 " clip-rule="nonzero"/></clipPath><clipPath id="dc5cea8bda"><path d="M 205.070312 160.03125 L 168.839844 129.699219 L 177.503906 119.347656 L 213.734375 149.679688 Z M 205.070312 160.03125 " clip-rule="nonzero"/></clipPath><clipPath id="c77dafa09e"><path d="M 205.070312 160.03125 L 168.839844 129.699219 L 177.503906 119.347656 L 213.734375 149.679688 Z M 205.070312 160.03125 " clip-rule="nonzero"/></clipPath><clipPath id="4d96d37b15"><path d="M 205.070312 160.03125 L 168.839844 129.699219 L 177.503906 119.347656 L 213.734375 149.679688 Z M 205.070312 160.03125 " clip-rule="nonzero"/></clipPath><clipPath id="b5ceca85c5"><path d="M 139 240 L 186 240 L 186 257 L 139 257 Z M 139 240 " clip-rule="nonzero"/></clipPath><clipPath id="9cfdd16c82"><path d="M 138.597656 249.109375 L 184.253906 236.941406 L 187.730469 249.984375 L 142.074219 262.152344 Z M 138.597656 249.109375 " clip-rule="nonzero"/></clipPath><clipPath id="5a9ce9520d"><path d="M 138.597656 249.109375 L 184.253906 236.941406 L 187.730469 249.984375 L 142.074219 262.152344 Z M 138.597656 249.109375 " clip-rule="nonzero"/></clipPath><clipPath id="ef541ccf62"><path d="M 138.597656 249.109375 L 184.253906 236.941406 L 187.730469 249.984375 L 142.074219 262.152344 Z M 138.597656 249.109375 " clip-rule="nonzero"/></clipPath><clipPath id="b04e0da246"><path d="M 147 253 L 148 253 L 148 254 L 147 254 Z M 147 253 " clip-rule="nonzero"/></clipPath><clipPath id="c38bd56d4c"><path d="M 138.597656 249.109375 L 184.253906 236.941406 L 187.730469 249.984375 L 142.074219 262.152344 Z M 138.597656 249.109375 " clip-rule="nonzero"/></clipPath><clipPath id="39061c1d76"><path d="M 138.597656 249.109375 L 184.253906 236.941406 L 187.730469 249.984375 L 142.074219 262.152344 Z M 138.597656 249.109375 " clip-rule="nonzero"/></clipPath><clipPath id="0bd2f1f8a8"><path d="M 138.597656 249.109375 L 184.253906 236.941406 L 187.730469 249.984375 L 142.074219 262.152344 Z M 138.597656 249.109375 " clip-rule="nonzero"/></clipPath><clipPath id="f224b9403b"><path d="M 69 149 L 94 149 L 94 192 L 69 192 Z M 69 149 " clip-rule="nonzero"/></clipPath><clipPath id="eecb0f7e6b"><path d="M 94.175781 149.363281 L 78.148438 193.8125 L 65.449219 189.234375 L 81.472656 144.785156 Z M 94.175781 149.363281 " clip-rule="nonzero"/></clipPath><clipPath id="3affd217ed"><path d="M 94.175781 149.363281 L 78.148438 193.8125 L 65.449219 189.234375 L 81.472656 144.785156 Z M 94.175781 149.363281 " clip-rule="nonzero"/></clipPath><clipPath id="a681d0a0fe"><path d="M 94.175781 149.363281 L 78.148438 193.8125 L 65.449219 189.234375 L 81.472656 144.785156 Z M 94.175781 149.363281 " clip-rule="nonzero"/></clipPath><clipPath id="a3a24ae0f1"><path d="M 85 154 L 86 154 L 86 155 L 85 155 Z M 85 154 " clip-rule="nonzero"/></clipPath><clipPath id="d82d438f7b"><path d="M 94.175781 149.363281 L 78.148438 193.8125 L 65.449219 189.234375 L 81.472656 144.785156 Z M 94.175781 149.363281 " clip-rule="nonzero"/></clipPath><clipPath id="3874ffefe1"><path d="M 94.175781 149.363281 L 78.148438 193.8125 L 65.449219 189.234375 L 81.472656 144.785156 Z M 94.175781 149.363281 " clip-rule="nonzero"/></clipPath><clipPath id="2969820a49"><path d="M 94.175781 149.363281 L 78.148438 193.8125 L 65.449219 189.234375 L 81.472656 144.785156 Z M 94.175781 149.363281 " clip-rule="nonzero"/></clipPath><clipPath id="f83c11752b"><path d="M 278 297.128906 L 295 297.128906 L 295 318.128906 L 278 318.128906 Z M 278 297.128906 " clip-rule="nonzero"/></clipPath><clipPath id="4a2e9f82f2"><path d="M 266.625 297.128906 L 283 297.128906 L 283 318.128906 L 266.625 318.128906 Z M 266.625 297.128906 " clip-rule="nonzero"/></clipPath><clipPath id="b34e38fcfb"><path d="M 241 297.128906 L 258 297.128906 L 258 318.128906 L 241 318.128906 Z M 241 297.128906 " clip-rule="nonzero"/></clipPath><clipPath id="4eebc4ec05"><path d="M 229.5 297.128906 L 246 297.128906 L 246 318.128906 L 229.5 318.128906 Z M 229.5 297.128906 " clip-rule="nonzero"/></clipPath><clipPath id="4eb136af1d"><path d="M 204 297.128906 L 220.875 297.128906 L 220.875 318.128906 L 204 318.128906 Z M 204 297.128906 " clip-rule="nonzero"/></clipPath><clipPath id="c55283cf55"><path d="M 192.375 297.128906 L 209 297.128906 L 209 318.128906 L 192.375 318.128906 Z M 192.375 297.128906 " clip-rule="nonzero"/></clipPath><clipPath id="28492ec77b"><path d="M 167 297.128906 L 183.75 297.128906 L 183.75 318.128906 L 167 318.128906 Z M 167 297.128906 " clip-rule="nonzero"/></clipPath><clipPath id="5c6d12a5ad"><path d="M 155.25 297.128906 L 172 297.128906 L 172 318.128906 L 155.25 318.128906 Z M 155.25 297.128906 " clip-rule="nonzero"/></clipPath><clipPath id="17cae92dc9"><path d="M 130 297 L 147 297 L 147 319 L 130 319 Z M 130 297 " clip-rule="nonzero"/></clipPath><clipPath id="5d95db99ce"><path d="M 117.945312 297.378906 L 146.441406 296.875 L 146.8125 317.871094 L 118.316406 318.375 Z M 117.945312 297.378906 " clip-rule="nonzero"/></clipPath><clipPath id="c44f4afcb0"><path d="M 117.945312 297.378906 L 146.441406 296.875 L 146.8125 317.871094 L 118.316406 318.375 Z M 117.945312 297.378906 " clip-rule="nonzero"/></clipPath><clipPath id="eabc6f26fc"><path d="M 117 297 L 135 297 L 135 319 L 117 319 Z M 117 297 " clip-rule="nonzero"/></clipPath><clipPath id="76965d7883"><path d="M 117.945312 297.378906 L 146.441406 296.875 L 146.8125 317.871094 L 118.316406 318.375 Z M 117.945312 297.378906 " clip-rule="nonzero"/></clipPath><clipPath id="d619031ed8"><path d="M 117.945312 297.378906 L 146.441406 296.875 L 146.8125 317.871094 L 118.316406 318.375 Z M 117.945312 297.378906 " clip-rule="nonzero"/></clipPath><clipPath id="dd8c7834f0"><path d="M 80 284 L 100 284 L 100 306 L 80 306 Z M 80 284 " clip-rule="nonzero"/></clipPath><clipPath id="538c9cf75d"><path d="M 81.105469 277.734375 L 105.09375 293.121094 L 93.757812 310.796875 L 69.765625 295.410156 Z M 81.105469 277.734375 " clip-rule="nonzero"/></clipPath><clipPath id="43697c58e6"><path d="M 81.105469 277.734375 L 105.09375 293.121094 L 93.757812 310.796875 L 69.765625 295.410156 Z M 81.105469 277.734375 " clip-rule="nonzero"/></clipPath><clipPath id="01aaf90dec"><path d="M 70 278 L 90 278 L 90 300 L 70 300 Z M 70 278 " clip-rule="nonzero"/></clipPath><clipPath id="dc01b14b82"><path d="M 81.105469 277.734375 L 105.09375 293.121094 L 93.757812 310.796875 L 69.765625 295.410156 Z M 81.105469 277.734375 " clip-rule="nonzero"/></clipPath><clipPath id="8880bd01bc"><path d="M 81.105469 277.734375 L 105.09375 293.121094 L 93.757812 310.796875 L 69.765625 295.410156 Z M 81.105469 277.734375 " clip-rule="nonzero"/></clipPath><clipPath id="9c1eb4aa84"><path d="M 42 264 L 62 264 L 62 285 L 42 285 Z M 42 264 " clip-rule="nonzero"/></clipPath><clipPath id="7ab394416b"><path d="M 48.058594 255.742188 L 68.585938 275.511719 L 54.019531 290.636719 L 33.492188 270.867188 Z M 48.058594 255.742188 " clip-rule="nonzero"/></clipPath><clipPath id="d5ec0525db"><path d="M 48.058594 255.742188 L 68.585938 275.511719 L 54.019531 290.636719 L 33.492188 270.867188 Z M 48.058594 255.742188 " clip-rule="nonzero"/></clipPath><clipPath id="c05a3cb89a"><path d="M 33 256 L 54 256 L 54 276 L 33 276 Z M 33 256 " clip-rule="nonzero"/></clipPath><clipPath id="6cb06b3b6e"><path d="M 48.058594 255.742188 L 68.585938 275.511719 L 54.019531 290.636719 L 33.492188 270.867188 Z M 48.058594 255.742188 " clip-rule="nonzero"/></clipPath><clipPath id="21948c31af"><path d="M 48.058594 255.742188 L 68.585938 275.511719 L 54.019531 290.636719 L 33.492188 270.867188 Z M 48.058594 255.742188 " clip-rule="nonzero"/></clipPath><clipPath id="793b17e527"><path d="M 19 232 L 41 232 L 41 251 L 19 251 Z M 19 232 " clip-rule="nonzero"/></clipPath><clipPath id="b0a0ce0be9"><path d="M 31.21875 221.023438 L 45.539062 245.664062 L 27.386719 256.21875 L 13.0625 231.578125 Z M 31.21875 221.023438 " clip-rule="nonzero"/></clipPath><clipPath id="9ea7bf7d51"><path d="M 31.21875 221.023438 L 45.539062 245.664062 L 27.386719 256.21875 L 13.0625 231.578125 Z M 31.21875 221.023438 " clip-rule="nonzero"/></clipPath><clipPath id="985e3bd9f5"><path d="M 13 221 L 35 221 L 35 241 L 13 241 Z M 13 221 " clip-rule="nonzero"/></clipPath><clipPath id="a5a4d92e71"><path d="M 31.21875 221.023438 L 45.539062 245.664062 L 27.386719 256.21875 L 13.0625 231.578125 Z M 31.21875 221.023438 " clip-rule="nonzero"/></clipPath><clipPath id="04c543ecf4"><path d="M 31.21875 221.023438 L 45.539062 245.664062 L 27.386719 256.21875 L 13.0625 231.578125 Z M 31.21875 221.023438 " clip-rule="nonzero"/></clipPath><clipPath id="5e6b721eea"><path d="M 8.878906 184 L 29.878906 184 L 29.878906 200.4375 L 8.878906 200.4375 Z M 8.878906 184 " clip-rule="nonzero"/></clipPath><clipPath id="9f7d11fd79"><path d="M 8.878906 171.9375 L 29.878906 171.9375 L 29.878906 188 L 8.878906 188 Z M 8.878906 171.9375 " clip-rule="nonzero"/></clipPath><clipPath id="0395aef978"><path d="M 18 126 L 39 126 L 39 146 L 18 146 Z M 18 126 " clip-rule="nonzero"/></clipPath><clipPath id="e503337f12"><path d="M 46.378906 127.648438 L 30.144531 151.074219 L 12.882812 139.109375 L 29.117188 115.6875 Z M 46.378906 127.648438 " clip-rule="nonzero"/></clipPath><clipPath id="5fe972b86f"><path d="M 46.378906 127.648438 L 30.144531 151.074219 L 12.882812 139.109375 L 29.117188 115.6875 Z M 46.378906 127.648438 " clip-rule="nonzero"/></clipPath><clipPath id="3d53754e94"><path d="M 25 116 L 46 116 L 46 136 L 25 136 Z M 25 116 " clip-rule="nonzero"/></clipPath><clipPath id="6b0d7ee6ef"><path d="M 46.378906 127.648438 L 30.144531 151.074219 L 12.882812 139.109375 L 29.117188 115.6875 Z M 46.378906 127.648438 " clip-rule="nonzero"/></clipPath><clipPath id="1151ffa353"><path d="M 46.378906 127.648438 L 30.144531 151.074219 L 12.882812 139.109375 L 29.117188 115.6875 Z M 46.378906 127.648438 " clip-rule="nonzero"/></clipPath><clipPath id="fb5445ea76"><path d="M 44 90 L 64 90 L 64 111 L 44 111 Z M 44 90 " clip-rule="nonzero"/></clipPath><clipPath id="8e42052615"><path d="M 72.519531 97.332031 L 51.425781 116.5 L 37.304688 100.957031 L 58.398438 81.789062 Z M 72.519531 97.332031 " clip-rule="nonzero"/></clipPath><clipPath id="07941b585b"><path d="M 72.519531 97.332031 L 51.425781 116.5 L 37.304688 100.957031 L 58.398438 81.789062 Z M 72.519531 97.332031 " clip-rule="nonzero"/></clipPath><clipPath id="7e47dba4dd"><path d="M 53 82 L 73 82 L 73 102 L 53 102 Z M 53 82 " clip-rule="nonzero"/></clipPath><clipPath id="60f63cf5af"><path d="M 72.519531 97.332031 L 51.425781 116.5 L 37.304688 100.957031 L 58.398438 81.789062 Z M 72.519531 97.332031 " clip-rule="nonzero"/></clipPath><clipPath id="e3878e7e4e"><path d="M 72.519531 97.332031 L 51.425781 116.5 L 37.304688 100.957031 L 58.398438 81.789062 Z M 72.519531 97.332031 " clip-rule="nonzero"/></clipPath><clipPath id="0f5fd7b14d"><path d="M 74 67 L 94 67 L 94 90 L 74 90 Z M 74 67 " clip-rule="nonzero"/></clipPath><clipPath id="dc62dae13f"><path d="M 104.921875 81.058594 L 79.34375 93.632812 L 70.078125 74.785156 L 95.65625 62.214844 Z M 104.921875 81.058594 " clip-rule="nonzero"/></clipPath><clipPath id="7765207aa7"><path d="M 104.921875 81.058594 L 79.34375 93.632812 L 70.078125 74.785156 L 95.65625 62.214844 Z M 104.921875 81.058594 " clip-rule="nonzero"/></clipPath><clipPath id="a13dbd3f04"><path d="M 85 62 L 105 62 L 105 85 L 85 85 Z M 85 62 " clip-rule="nonzero"/></clipPath><clipPath id="4c2b9ca42c"><path d="M 104.921875 81.058594 L 79.34375 93.632812 L 70.078125 74.785156 L 95.65625 62.214844 Z M 104.921875 81.058594 " clip-rule="nonzero"/></clipPath><clipPath id="6c40c3c19e"><path d="M 104.921875 81.058594 L 79.34375 93.632812 L 70.078125 74.785156 L 95.65625 62.214844 Z M 104.921875 81.058594 " clip-rule="nonzero"/></clipPath><clipPath id="a635a52ca5"><path d="M 117.785156 57.015625 L 135 57.015625 L 135 78 L 117.785156 78 Z M 117.785156 57.015625 " clip-rule="nonzero"/></clipPath><clipPath id="a0f1a64bae"><path d="M 130 57.015625 L 146.285156 57.015625 L 146.285156 78 L 130 78 Z M 130 57.015625 " clip-rule="nonzero"/></clipPath><clipPath id="f13456f81e"><path d="M 154 56 L 171 56 L 171 78 L 154 78 Z M 154 56 " clip-rule="nonzero"/></clipPath><clipPath id="3913f7dd23"><path d="M 182.511719 78.011719 L 154.023438 77.15625 L 154.65625 56.164062 L 183.144531 57.023438 Z M 182.511719 78.011719 " clip-rule="nonzero"/></clipPath><clipPath id="bf82d109aa"><path d="M 182.511719 78.011719 L 154.023438 77.15625 L 154.65625 56.164062 L 183.144531 57.023438 Z M 182.511719 78.011719 " clip-rule="nonzero"/></clipPath><clipPath id="a37686bcb8"><path d="M 166 56 L 184 56 L 184 78 L 166 78 Z M 166 56 " clip-rule="nonzero"/></clipPath><clipPath id="de7f966d6b"><path d="M 182.511719 78.011719 L 154.023438 77.15625 L 154.65625 56.164062 L 183.144531 57.023438 Z M 182.511719 78.011719 " clip-rule="nonzero"/></clipPath><clipPath id="0e3e804bd7"><path d="M 182.511719 78.011719 L 154.023438 77.15625 L 154.65625 56.164062 L 183.144531 57.023438 Z M 182.511719 78.011719 " clip-rule="nonzero"/></clipPath><clipPath id="05eb24282f"><path d="M 266 56 L 283 56 L 283 78 L 266 78 Z M 266 56 " clip-rule="nonzero"/></clipPath><clipPath id="62b881bc08"><path d="M 294.164062 78.011719 L 265.675781 77.15625 L 266.308594 56.164062 L 294.796875 57.023438 Z M 294.164062 78.011719 " clip-rule="nonzero"/></clipPath><clipPath id="d2b0f280ee"><path d="M 294.164062 78.011719 L 265.675781 77.15625 L 266.308594 56.164062 L 294.796875 57.023438 Z M 294.164062 78.011719 " clip-rule="nonzero"/></clipPath><clipPath id="224c7d73bb"><path d="M 278 56 L 295 56 L 295 78 L 278 78 Z M 278 56 " clip-rule="nonzero"/></clipPath><clipPath id="0f02123d5c"><path d="M 294.164062 78.011719 L 265.675781 77.15625 L 266.308594 56.164062 L 294.796875 57.023438 Z M 294.164062 78.011719 " clip-rule="nonzero"/></clipPath><clipPath id="c846510b30"><path d="M 294.164062 78.011719 L 265.675781 77.15625 L 266.308594 56.164062 L 294.796875 57.023438 Z M 294.164062 78.011719 " clip-rule="nonzero"/></clipPath><clipPath id="983ca4dbaa"><path d="M 229 56 L 246 56 L 246 78 L 229 78 Z M 229 56 " clip-rule="nonzero"/></clipPath><clipPath id="71dbffa504"><path d="M 257.039062 78.011719 L 228.550781 77.15625 L 229.183594 56.164062 L 257.671875 57.023438 Z M 257.039062 78.011719 " clip-rule="nonzero"/></clipPath><clipPath id="92f6723fc7"><path d="M 257.039062 78.011719 L 228.550781 77.15625 L 229.183594 56.164062 L 257.671875 57.023438 Z M 257.039062 78.011719 " clip-rule="nonzero"/></clipPath><clipPath id="952db600c1"><path d="M 241 56 L 258 56 L 258 78 L 241 78 Z M 241 56 " clip-rule="nonzero"/></clipPath><clipPath id="94b869f78c"><path d="M 257.039062 78.011719 L 228.550781 77.15625 L 229.183594 56.164062 L 257.671875 57.023438 Z M 257.039062 78.011719 " clip-rule="nonzero"/></clipPath><clipPath id="276630f102"><path d="M 257.039062 78.011719 L 228.550781 77.15625 L 229.183594 56.164062 L 257.671875 57.023438 Z M 257.039062 78.011719 " clip-rule="nonzero"/></clipPath><clipPath id="41344d2ac0"><path d="M 192 56 L 209 56 L 209 78 L 192 78 Z M 192 56 " clip-rule="nonzero"/></clipPath><clipPath id="59a8e757df"><path d="M 220.523438 78.011719 L 192.035156 77.15625 L 192.667969 56.164062 L 221.15625 57.023438 Z M 220.523438 78.011719 " clip-rule="nonzero"/></clipPath><clipPath id="b1cc93bb70"><path d="M 220.523438 78.011719 L 192.035156 77.15625 L 192.667969 56.164062 L 221.15625 57.023438 Z M 220.523438 78.011719 " clip-rule="nonzero"/></clipPath><clipPath id="28f8653fb6"><path d="M 204 56 L 222 56 L 222 78 L 204 78 Z M 204 56 " clip-rule="nonzero"/></clipPath><clipPath id="e1ae3b686c"><path d="M 220.523438 78.011719 L 192.035156 77.15625 L 192.667969 56.164062 L 221.15625 57.023438 Z M 220.523438 78.011719 " clip-rule="nonzero"/></clipPath><clipPath id="20a76fea04"><path d="M 220.523438 78.011719 L 192.035156 77.15625 L 192.667969 56.164062 L 221.15625 57.023438 Z M 220.523438 78.011719 " clip-rule="nonzero"/></clipPath></defs><g clip-path="url(#6a3693b4d2)"><g clip-path="url(#6bbfb26ff7)"><path fill="#737373" d="M 303.75 52.777344 L 303.75 323.039062 L -0.132812 323.039062 L -0.132812 52.777344 Z M 303.75 52.777344 " fill-opacity="1" fill-rule="nonzero"/></g></g><g clip-path="url(#ee4801d792)"><g clip-path="url(#edf427c448)"><path stroke-linecap="butt" transform="matrix(0.000000000000000046, 0.75, -0.75, 0.000000000000000046, 303.749959, 52.777335)" fill="none" stroke-linejoin="miter" d="M 120.062517 394.442673 C 138.520852 400.817674 159.505228 404.999965 180.098979 404.999965 C 200.69273 404.999965 220.505231 401.416632 238.770857 395.041632 C 239.156274 394.838507 239.546899 394.838507 239.937524 394.64059 C 308.515652 369.145797 359.03128 301.81246 360.00003 224.124956 L 360.00003 -0.0000552182 L 0.0000113526 -0.0000552182 L 0.0000113526 223.95829 C 0.97397 302.208294 50.708347 369.54163 120.062517 394.442673 " stroke="#000000" stroke-width="4" stroke-opacity="1" stroke-miterlimit="4"/></g></g><g clip-path="url(#fcee88b753)"><g clip-path="url(#28b01375e0)"><g clip-path="url(#c1a9e3a20b)"><path fill="#a6a6a6" d="M 276.660156 112.074219 L 216.570312 319.273438 L 9.371094 259.183594 L 69.460938 51.984375 Z M 276.660156 112.074219 " fill-opacity="1" fill-rule="nonzero"/></g></g></g><g clip-path="url(#edbe17cc6e)"><g clip-path="url(#c5a381c1ba)"><g clip-path="url(#1411b8b7d7)"><g clip-path="url(#d97d297442)"><path stroke-linecap="butt" transform="matrix(-0.208895, 0.720321, -0.720321, -0.208895, 276.65899, 112.074428)" fill="none" stroke-linejoin="miter" d="M 144.00011 -0.0000836562 C 64.472716 -0.000630693 -0.0014863 64.472 -0.00203334 143.999395 C -0.00112972 223.531792 64.47005 288.000991 144.002447 288.000088 C 223.529842 288.000635 287.999042 223.529455 287.999589 144.00206 C 287.998685 64.469663 223.527505 0.000463381 144.00011 -0.0000836562 " stroke="#000000" stroke-width="8" stroke-opacity="1" stroke-miterlimit="4"/></g></g></g></g><g clip-path="url(#1de1620320)"><g clip-path="url(#4eb66f65e9)"><g clip-path="url(#16cec6499b)"><path fill="#ffde59" d="M 210.273438 192.722656 L 205.792969 209.757812 L 174.917969 201.640625 L 179.398438 184.605469 Z M 210.273438 192.722656 " fill-opacity="1" fill-rule="nonzero"/></g></g></g><g clip-path="url(#b4b9482567)"><g clip-path="url(#7bf113330c)"><g clip-path="url(#9f68c36659)"><path fill="#ffde59" d="M 116.058594 201.6875 L 128.433594 214.222656 L 105.71875 236.652344 L 93.34375 224.121094 Z M 116.058594 201.6875 " fill-opacity="1" fill-rule="nonzero"/></g></g></g><g clip-path="url(#106ed1638d)"><g clip-path="url(#ab57229223)"><g clip-path="url(#5437c88ce6)"><path fill="#ffde59" d="M 92.050781 148.382812 L 173.621094 126.515625 L 192.582031 197.257812 L 111.011719 219.125 Z M 92.050781 148.382812 " fill-opacity="1" fill-rule="nonzero"/></g></g></g><g clip-path="url(#aa2483f1c4)"><g clip-path="url(#4639af8e26)"><g clip-path="url(#10cfb3b78a)"><path fill="#ffde59" d="M 122.25 132.109375 L 139.261719 127.550781 L 147.527344 158.386719 L 130.515625 162.945312 Z M 122.25 132.109375 " fill-opacity="1" fill-rule="nonzero"/></g></g></g><g clip-path="url(#752e2452a3)"><g clip-path="url(#9da5696b84)"><g clip-path="url(#92e6c5082f)"><path fill="#ffde59" d="M 105.070312 143.558594 L 91.910156 89.515625 L 145.953125 76.355469 L 159.113281 130.394531 Z M 105.070312 143.558594 " fill-opacity="1" fill-rule="nonzero"/></g></g></g><g clip-path="url(#fe004df7f9)"><g clip-path="url(#6e5ded392e)"><g clip-path="url(#24a2503986)"><g clip-path="url(#990d1dd4b1)"><path fill="#000000" d="M 101.414062 115.886719 C 102.726562 121.285156 105.53125 125.730469 109.828125 129.222656 L 106.050781 133.867188 C 100.710938 129.527344 97.226562 124.003906 95.597656 117.304688 Z M 111.992188 130.796875 C 116.652344 133.820312 121.738281 135.128906 127.246094 134.726562 L 127.683594 140.699219 C 120.835938 141.199219 114.519531 139.574219 108.730469 135.820312 Z M 129.890625 134.386719 C 130.371094 134.300781 130.847656 134.199219 131.324219 134.082031 C 136.207031 132.894531 140.339844 130.453125 143.71875 126.761719 L 148.132812 130.804688 C 143.9375 135.390625 138.804688 138.421875 132.742188 139.898438 C 132.152344 140.042969 131.5625 140.167969 130.96875 140.277344 Z M 145.414062 124.691406 C 148.707031 120.210938 150.308594 115.207031 150.226562 109.683594 L 156.214844 109.59375 C 156.316406 116.457031 154.324219 122.671875 150.242188 128.234375 Z M 150.042969 107.035156 C 149.925781 106.074219 149.75 105.121094 149.519531 104.171875 C 148.453125 99.789062 146.355469 95.992188 143.230469 92.78125 L 147.519531 88.605469 C 151.40625 92.597656 154.011719 97.3125 155.335938 102.753906 C 155.625 103.929688 155.839844 105.109375 155.988281 106.300781 Z M 141.269531 90.96875 C 136.988281 87.425781 132.085938 85.535156 126.570312 85.289062 L 126.832031 79.308594 C 133.6875 79.609375 139.773438 81.960938 145.085938 86.355469 Z M 123.894531 85.320312 C 122.453125 85.410156 121.027344 85.632812 119.609375 85.976562 C 115.722656 86.921875 112.28125 88.695312 109.277344 91.292969 L 105.359375 86.765625 C 109.089844 83.535156 113.367188 81.332031 118.191406 80.160156 C 119.945312 79.730469 121.71875 79.460938 123.507812 79.34375 Z M 107.359375 93.144531 C 103.574219 97.210938 101.398438 101.992188 100.832031 107.492188 L 94.878906 106.878906 C 95.582031 100.050781 98.28125 94.109375 102.976562 89.066406 Z M 100.703125 110.164062 C 100.71875 112.089844 100.953125 113.996094 101.414062 115.886719 L 95.597656 117.304688 C 95.027344 114.960938 94.734375 112.59375 94.71875 110.203125 Z M 100.703125 110.164062 " fill-opacity="1" fill-rule="nonzero"/></g></g></g></g><g clip-path="url(#7c7e5d655a)"><g clip-path="url(#ed875fa51c)"><g clip-path="url(#da330bd3e8)"><path fill="#ffde59" d="M 50.480469 240.339844 L 89.820312 201.019531 L 129.140625 240.359375 L 89.800781 279.679688 Z M 50.480469 240.339844 " fill-opacity="1" fill-rule="nonzero"/></g></g></g><g clip-path="url(#54f262e171)"><g clip-path="url(#866c3728c3)"><g clip-path="url(#4f27393d6a)"><g clip-path="url(#6d749104ec)"><path fill="#000000" d="M 72.222656 222.839844 C 68.296875 226.765625 65.953125 231.472656 65.199219 236.957031 L 59.269531 236.140625 C 60.207031 229.324219 63.113281 223.480469 67.992188 218.605469 Z M 64.980469 239.621094 C 64.816406 245.175781 66.339844 250.203125 69.546875 254.699219 L 64.671875 258.175781 C 60.683594 252.585938 58.792969 246.34375 58.992188 239.445312 Z M 71.210938 256.785156 C 71.53125 257.148438 71.867188 257.503906 72.214844 257.851562 C 75.769531 261.40625 80 263.667969 84.90625 264.636719 L 83.75 270.507812 C 77.648438 269.304688 72.390625 266.496094 67.980469 262.082031 C 67.550781 261.652344 67.136719 261.214844 66.734375 260.761719 Z M 87.558594 265.011719 C 93.097656 265.496094 98.207031 264.265625 102.882812 261.328125 L 106.070312 266.394531 C 100.257812 270.050781 93.914062 271.574219 87.035156 270.976562 Z M 105.050781 259.792969 C 105.8125 259.195312 106.535156 258.546875 107.226562 257.859375 C 110.414062 254.671875 112.570312 250.90625 113.691406 246.566406 L 119.488281 248.0625 C 118.09375 253.457031 115.417969 258.136719 111.457031 262.09375 C 110.605469 262.949219 109.707031 263.746094 108.765625 264.492188 Z M 114.21875 243.949219 C 115.023438 238.449219 114.09375 233.28125 111.4375 228.441406 L 116.683594 225.558594 C 119.988281 231.574219 121.140625 237.992188 120.144531 244.816406 Z M 110.023438 226.167969 C 109.195312 224.988281 108.265625 223.878906 107.234375 222.847656 C 104.40625 220.019531 101.105469 217.996094 97.324219 216.78125 L 99.160156 211.082031 C 103.855469 212.59375 107.960938 215.105469 111.46875 218.617188 C 112.746094 219.894531 113.898438 221.265625 114.925781 222.734375 Z M 94.746094 216.105469 C 89.304688 214.984375 84.089844 215.609375 79.09375 217.980469 L 76.527344 212.574219 C 82.726562 209.628906 89.203125 208.847656 95.953125 210.238281 Z M 76.746094 219.261719 C 75.105469 220.269531 73.601562 221.464844 72.222656 222.839844 L 67.992188 218.605469 C 69.695312 216.898438 71.566406 215.417969 73.601562 214.164062 Z M 76.746094 219.261719 " fill-opacity="1" fill-rule="nonzero"/></g></g></g></g><g clip-path="url(#7707ec2cc7)"><g clip-path="url(#573eafb092)"><g clip-path="url(#4a8750aaee)"><path fill="#ffde59" d="M 197.148438 237.722656 L 183.988281 183.679688 L 238.03125 170.519531 L 251.191406 224.5625 Z M 197.148438 237.722656 " fill-opacity="1" fill-rule="nonzero"/></g></g></g><g clip-path="url(#b85579c01b)"><g clip-path="url(#fccc56b026)"><g clip-path="url(#942933e6cd)"><g clip-path="url(#ac83e66ef5)"><path fill="#000000" d="M 193.492188 210.050781 C 194.808594 215.449219 197.613281 219.894531 201.90625 223.386719 L 198.128906 228.03125 C 192.792969 223.691406 189.308594 218.171875 187.675781 211.46875 Z M 204.070312 224.960938 C 208.730469 227.984375 213.816406 229.296875 219.324219 228.890625 L 219.761719 234.863281 C 212.914062 235.363281 206.597656 233.738281 200.8125 229.984375 Z M 221.96875 228.554688 C 222.449219 228.464844 222.929688 228.363281 223.402344 228.25 C 228.289062 227.058594 232.417969 224.617188 235.796875 220.925781 L 240.214844 224.96875 C 236.015625 229.554688 230.886719 232.589844 224.820312 234.066406 C 224.230469 234.207031 223.640625 234.335938 223.046875 234.441406 Z M 237.492188 218.859375 C 240.785156 214.375 242.390625 209.371094 242.304688 203.847656 L 248.292969 203.757812 C 248.394531 210.625 246.40625 216.835938 242.320312 222.402344 Z M 242.125 201.199219 C 242.003906 200.238281 241.832031 199.285156 241.597656 198.335938 C 240.53125 193.953125 238.4375 190.15625 235.308594 186.945312 L 239.601562 182.769531 C 243.484375 186.761719 246.089844 191.480469 247.417969 196.921875 C 247.703125 198.09375 247.917969 199.277344 248.066406 200.46875 Z M 233.347656 185.132812 C 229.066406 181.59375 224.167969 179.699219 218.648438 179.457031 L 218.914062 173.472656 C 225.765625 173.777344 231.851562 176.125 237.164062 180.523438 Z M 215.972656 179.484375 C 214.535156 179.578125 213.105469 179.796875 211.6875 180.140625 C 207.800781 181.089844 204.359375 182.859375 201.359375 185.457031 L 197.4375 180.929688 C 201.171875 177.699219 205.449219 175.5 210.273438 174.324219 C 212.027344 173.898438 213.796875 173.625 215.585938 173.507812 Z M 199.4375 187.308594 C 195.652344 191.375 193.480469 196.160156 192.914062 201.65625 L 186.957031 201.042969 C 187.660156 194.214844 190.359375 188.277344 195.054688 183.230469 Z M 192.785156 204.328125 C 192.796875 206.253906 193.03125 208.164062 193.492188 210.050781 L 187.675781 211.46875 C 187.105469 209.125 186.8125 206.757812 186.796875 204.367188 Z M 192.785156 204.328125 " fill-opacity="1" fill-rule="nonzero"/></g></g></g></g><g clip-path="url(#532e20903f)"><g clip-path="url(#87112d4ac8)"><g clip-path="url(#2d754c8bc2)"><path fill="#707070" d="M 116.960938 105.023438 L 130.445312 101.410156 L 134.058594 114.894531 L 120.574219 118.507812 Z M 116.960938 105.023438 " fill-opacity="1" fill-rule="nonzero"/></g></g></g><g clip-path="url(#6ea2c3ea5d)"><g clip-path="url(#76b90279d1)"><g clip-path="url(#710fe53580)"><path fill="#707070" d="M 89.808594 230.480469 L 99.675781 240.355469 L 89.804688 250.222656 L 79.933594 240.347656 Z M 89.808594 230.480469 " fill-opacity="1" fill-rule="nonzero"/></g></g></g><g clip-path="url(#b28f484cae)"><g clip-path="url(#5463df955f)"><g clip-path="url(#16f6cf4173)"><path fill="#707070" d="M 209.289062 198.179688 L 222.773438 194.566406 L 226.386719 208.050781 L 212.902344 211.664062 Z M 209.289062 198.179688 " fill-opacity="1" fill-rule="nonzero"/></g></g></g><g clip-path="url(#269acab573)"><g clip-path="url(#f66b97e4f4)"><g clip-path="url(#0a39a04682)"><g clip-path="url(#8fb86d6bc0)"><path fill="#ffffff" d="M 204.738281 159.242188 C 204.78125 159.230469 204.804688 159.203125 204.820312 159.164062 C 204.960938 159.140625 205.074219 159.347656 205.230469 159.214844 C 205.679688 159.171875 205.796875 158.84375 205.859375 158.476562 C 206.035156 157.441406 206.039062 156.398438 205.976562 155.359375 C 205.753906 151.628906 204.765625 148.128906 203.144531 144.777344 C 200.3125 138.921875 195.859375 134.710938 190.214844 131.683594 C 187.59375 130.28125 184.777344 129.367188 181.914062 128.582031 C 180.230469 128.125 178.523438 127.765625 176.828125 127.367188 C 176.761719 127.378906 176.695312 127.394531 176.625 127.40625 C 176.566406 127.359375 176.480469 127.324219 176.453125 127.261719 C 176.429688 127.210938 176.5 127.179688 176.5625 127.191406 C 177.191406 126.910156 177.855469 126.773438 178.527344 126.667969 C 178.988281 126.597656 179.433594 126.496094 179.839844 126.257812 C 180.832031 126.113281 181.363281 125.515625 181.355469 124.597656 C 179.46875 123.960938 177.644531 124.375 175.824219 124.949219 C 175.148438 125.164062 174.457031 125.328125 173.773438 125.507812 C 172.128906 125.929688 172.386719 125.960938 171.992188 127.289062 C 171.902344 127.585938 171.882812 127.894531 171.894531 128.207031 C 171.902344 128.320312 171.914062 128.425781 172.007812 128.503906 C 171.925781 128.847656 172.148438 129.039062 172.375 129.214844 C 173.046875 129.738281 173.726562 130.25 174.40625 130.765625 C 174.480469 130.957031 174.640625 131.054688 174.808594 131.140625 C 174.875 131.335938 175.039062 131.429688 175.195312 131.53125 C 175.21875 131.675781 175.351562 131.738281 175.4375 131.832031 C 176.605469 133.132812 177.609375 134.546875 178.367188 136.128906 C 178.425781 136.25 178.492188 136.363281 178.554688 136.476562 C 178.625 136.617188 178.707031 136.777344 178.886719 136.746094 C 179.019531 136.71875 179.121094 136.558594 179.117188 136.445312 C 179.105469 135.929688 179.410156 135.488281 179.441406 134.992188 C 179.453125 134.769531 179.378906 134.5625 179.296875 134.351562 C 178.671875 132.734375 177.773438 131.273438 176.726562 129.902344 C 176.632812 129.777344 176.515625 129.667969 176.453125 129.53125 C 176.375 129.371094 176.5 129.292969 176.640625 129.253906 C 176.761719 129.382812 176.902344 129.40625 177.0625 129.339844 C 177.195312 129.433594 177.332031 129.515625 177.503906 129.4375 C 177.523438 129.480469 177.550781 129.484375 177.585938 129.460938 C 177.710938 129.554688 177.839844 129.625 178.003906 129.558594 C 178.101562 129.605469 178.195312 129.664062 178.300781 129.691406 C 179.445312 130 180.59375 130.289062 181.738281 130.609375 C 182.773438 130.898438 183.796875 131.222656 184.828125 131.53125 C 185.089844 131.648438 185.34375 131.773438 185.609375 131.875 C 188.175781 132.902344 190.578125 134.222656 192.773438 135.902344 C 193.554688 136.503906 194.320312 137.125 195.089844 137.738281 C 195.167969 137.941406 195.339844 138.03125 195.515625 138.128906 C 195.582031 138.320312 195.746094 138.410156 195.910156 138.503906 C 195.960938 138.691406 196.128906 138.769531 196.273438 138.867188 C 196.292969 138.996094 196.382812 139.0625 196.496094 139.105469 C 196.507812 139.148438 196.535156 139.175781 196.582031 139.183594 C 196.609375 139.324219 196.734375 139.386719 196.816406 139.484375 C 197.226562 139.96875 197.71875 140.375 198.066406 140.90625 C 198.140625 140.902344 198.296875 141 198.1875 140.785156 C 198.117188 140.640625 198.136719 140.601562 198.191406 140.597656 C 198.242188 140.597656 198.3125 140.625 198.371094 140.636719 C 199.609375 142.199219 200.644531 143.898438 201.570312 145.664062 C 201.640625 145.835938 201.710938 146.011719 201.78125 146.183594 C 202.203125 147.210938 202.625 148.242188 203.046875 149.269531 C 203.03125 149.3125 203.035156 149.351562 203.054688 149.386719 C 203.066406 149.410156 203.082031 149.429688 203.105469 149.449219 C 203.085938 149.523438 203.105469 149.582031 203.164062 149.628906 C 203.140625 149.703125 203.160156 149.761719 203.222656 149.808594 C 203.195312 149.878906 203.21875 149.941406 203.277344 149.988281 C 203.253906 150.058594 203.269531 150.121094 203.332031 150.167969 C 203.304688 150.238281 203.324219 150.300781 203.386719 150.34375 L 203.386719 150.347656 C 203.359375 150.417969 203.375 150.480469 203.4375 150.523438 L 203.4375 150.527344 C 203.453125 150.585938 203.46875 150.644531 203.488281 150.703125 L 203.488281 150.710938 C 203.460938 150.78125 203.476562 150.839844 203.539062 150.886719 L 203.539062 150.890625 C 203.511719 150.964844 203.527344 151.023438 203.585938 151.070312 L 203.589844 151.074219 C 203.589844 151.074219 203.589844 151.078125 203.589844 151.078125 C 203.589844 151.078125 203.589844 151.074219 203.589844 151.074219 C 203.558594 151.148438 203.574219 151.207031 203.636719 151.253906 L 203.636719 151.257812 C 203.609375 151.328125 203.625 151.386719 203.683594 151.433594 L 203.6875 151.4375 C 203.65625 151.507812 203.671875 151.570312 203.730469 151.617188 C 203.839844 152.1875 203.945312 152.753906 204.054688 153.320312 C 204.203125 153.597656 204.203125 153.910156 204.246094 154.210938 C 204.21875 154.234375 204.1875 154.246094 204.15625 154.253906 C 204.109375 154.261719 204.0625 154.257812 204.011719 154.238281 C 204.019531 154.46875 204.011719 154.699219 204.121094 154.910156 C 204.164062 154.972656 204.191406 155.035156 204.195312 155.113281 C 204.171875 155.046875 204.148438 154.980469 204.121094 154.910156 C 204.109375 154.984375 204.105469 155.058594 204.179688 155.101562 C 204.121094 155.203125 204.132812 155.300781 204.183594 155.402344 C 204.144531 155.464844 204.144531 155.527344 204.203125 155.578125 C 204.183594 155.652344 204.179688 155.722656 204.238281 155.78125 C 204.222656 155.816406 204.21875 155.851562 204.238281 155.886719 C 204.203125 156.113281 204.21875 156.335938 204.289062 156.554688 C 204.277344 156.714844 204.257812 156.875 204.328125 157.027344 C 204.28125 157.128906 204.308594 157.226562 204.328125 157.324219 C 204.273438 157.960938 204.332031 158.601562 204.144531 159.253906 C 204.382812 159.210938 204.554688 159.398438 204.738281 159.242188 Z M 177.652344 129.347656 C 177.65625 129.347656 177.65625 129.347656 177.65625 129.347656 C 177.65625 129.347656 177.65625 129.351562 177.65625 129.351562 C 177.65625 129.351562 177.65625 129.347656 177.65625 129.347656 C 177.65625 129.351562 177.652344 129.351562 177.65625 129.355469 C 177.652344 129.351562 177.652344 129.347656 177.652344 129.347656 Z M 203.984375 151.121094 C 203.980469 151.109375 203.980469 151.09375 203.980469 151.078125 C 203.980469 151.082031 203.980469 151.085938 203.984375 151.089844 C 203.988281 151.101562 203.992188 151.113281 203.992188 151.125 C 203.992188 151.125 203.988281 151.125 203.984375 151.121094 Z M 203.054688 149.273438 C 203.054688 149.273438 203.054688 149.273438 203.058594 149.273438 C 203.0625 149.273438 203.066406 149.269531 203.070312 149.269531 L 203.089844 149.265625 L 203.054688 149.273438 C 203.054688 149.277344 203.054688 149.277344 203.054688 149.277344 C 203.054688 149.277344 203.054688 149.277344 203.054688 149.273438 Z M 204.046875 151.144531 C 204.03125 151.140625 204.011719 151.132812 203.996094 151.128906 C 203.992188 151.117188 203.988281 151.101562 203.988281 151.089844 C 203.996094 151.117188 204.019531 151.136719 204.046875 151.144531 Z M 203.96875 151.007812 C 203.964844 150.992188 203.960938 150.980469 203.957031 150.964844 C 203.957031 150.964844 203.957031 150.960938 203.957031 150.960938 C 203.960938 150.976562 203.964844 150.992188 203.96875 151.007812 Z M 205.230469 158.136719 C 205.230469 158.136719 205.230469 158.140625 205.230469 158.140625 C 205.230469 158.140625 205.230469 158.144531 205.230469 158.144531 C 205.230469 158.144531 205.230469 158.148438 205.230469 158.148438 C 205.230469 158.144531 205.230469 158.140625 205.230469 158.136719 Z M 205.253906 157.855469 C 205.253906 157.851562 205.257812 157.847656 205.257812 157.84375 C 205.253906 157.847656 205.253906 157.851562 205.253906 157.855469 Z M 204.273438 155.195312 C 204.289062 155.199219 204.300781 155.203125 204.316406 155.203125 C 204.3125 155.210938 204.308594 155.21875 204.304688 155.226562 C 204.296875 155.214844 204.285156 155.207031 204.273438 155.195312 Z M 204.261719 155.695312 C 204.269531 155.71875 204.265625 155.746094 204.257812 155.769531 C 204.257812 155.769531 204.257812 155.769531 204.253906 155.769531 C 204.261719 155.742188 204.265625 155.71875 204.261719 155.695312 Z M 204.261719 155.695312 " fill-opacity="1" fill-rule="nonzero"/></g></g></g></g><g clip-path="url(#352f722fc2)"><g clip-path="url(#dc5cea8bda)"><g clip-path="url(#c77dafa09e)"><g clip-path="url(#4d96d37b15)"><path fill="#ffffff" d="M 203.492188 150.714844 C 203.476562 150.652344 203.460938 150.59375 203.445312 150.535156 C 203.417969 150.609375 203.433594 150.667969 203.492188 150.714844 Z M 203.492188 150.714844 " fill-opacity="1" fill-rule="nonzero"/></g></g></g></g><g clip-path="url(#b5ceca85c5)"><g clip-path="url(#9cfdd16c82)"><g clip-path="url(#5a9ce9520d)"><g clip-path="url(#ef541ccf62)"><path fill="#ffffff" d="M 139.433594 249.292969 C 139.417969 249.332031 139.425781 249.367188 139.449219 249.402344 C 139.386719 249.53125 139.15625 249.503906 139.171875 249.710938 C 138.945312 250.101562 139.148438 250.386719 139.414062 250.652344 C 140.160156 251.390625 141.011719 251.992188 141.894531 252.539062 C 145.074219 254.503906 148.503906 255.710938 152.179688 256.3125 C 158.597656 257.371094 164.605469 256.152344 170.328125 253.277344 C 172.980469 251.941406 175.351562 250.164062 177.640625 248.273438 C 178.984375 247.164062 180.261719 245.972656 181.5625 244.816406 C 181.59375 244.753906 181.617188 244.691406 181.648438 244.628906 C 181.722656 244.605469 181.796875 244.558594 181.863281 244.566406 C 181.863281 244.566406 181.863281 244.566406 181.867188 244.570312 C 181.921875 244.578125 181.90625 244.65625 181.859375 244.699219 C 181.726562 245.375 181.457031 246 181.15625 246.609375 C 180.949219 247.027344 180.777344 247.445312 180.734375 247.914062 C 180.285156 248.8125 180.46875 249.589844 181.222656 250.113281 C 182.828125 248.933594 183.539062 247.207031 184.117188 245.386719 C 184.332031 244.710938 184.59375 244.050781 184.84375 243.386719 C 185.445312 241.800781 185.269531 241.996094 184.414062 240.90625 C 184.222656 240.664062 183.976562 240.46875 183.714844 240.300781 C 183.617188 240.238281 183.523438 240.1875 183.40625 240.21875 C 183.175781 239.953125 182.890625 240.027344 182.617188 240.109375 C 181.800781 240.359375 180.992188 240.621094 180.175781 240.878906 C 179.980469 240.828125 179.808594 240.90625 179.640625 240.988281 C 179.441406 240.933594 179.269531 241.011719 179.097656 241.085938 C 178.964844 241.019531 178.839844 241.089844 178.710938 241.105469 C 176.976562 241.316406 175.242188 241.324219 173.511719 241.03125 C 173.382812 241.011719 173.25 241 173.121094 240.984375 C 172.964844 240.960938 172.785156 240.9375 172.710938 241.101562 C 172.652344 241.222656 172.726562 241.402344 172.824219 241.464844 C 173.25 241.75 173.4375 242.25 173.824219 242.5625 C 173.996094 242.703125 174.210938 242.757812 174.429688 242.8125 C 176.113281 243.234375 177.824219 243.339844 179.550781 243.273438 C 179.703125 243.265625 179.859375 243.238281 180.011719 243.261719 C 180.183594 243.292969 180.175781 243.4375 180.128906 243.578125 C 179.957031 243.601562 179.855469 243.703125 179.816406 243.871094 C 179.660156 243.925781 179.515625 243.988281 179.480469 244.175781 C 179.4375 244.167969 179.414062 244.1875 179.414062 244.230469 C 179.265625 244.277344 179.136719 244.34375 179.09375 244.515625 C 179 244.570312 178.894531 244.613281 178.8125 244.683594 C 177.902344 245.441406 177.003906 246.214844 176.085938 246.964844 C 175.253906 247.644531 174.398438 248.296875 173.554688 248.957031 C 173.308594 249.105469 173.058594 249.246094 172.820312 249.402344 C 170.507812 250.910156 168.042969 252.113281 165.40625 252.941406 C 164.464844 253.234375 163.515625 253.5 162.570312 253.78125 C 162.359375 253.726562 162.1875 253.816406 162.007812 253.902344 C 161.808594 253.847656 161.640625 253.929688 161.472656 254.011719 C 161.289062 253.945312 161.132812 254.035156 160.96875 254.097656 C 160.851562 254.039062 160.746094 254.074219 160.644531 254.140625 C 160.601562 254.125 160.5625 254.132812 160.53125 254.167969 C 160.398438 254.109375 160.273438 254.175781 160.148438 254.1875 C 159.519531 254.242188 158.902344 254.414062 158.265625 254.390625 C 158.226562 254.453125 158.058594 254.527344 158.296875 254.558594 C 158.453125 254.582031 158.472656 254.625 158.445312 254.671875 C 158.417969 254.710938 158.355469 254.753906 158.3125 254.792969 C 156.320312 254.90625 154.335938 254.777344 152.359375 254.515625 C 152.179688 254.472656 151.996094 254.429688 151.8125 254.390625 C 150.730469 254.140625 149.644531 253.894531 148.5625 253.648438 C 148.535156 253.613281 148.5 253.59375 148.460938 253.585938 C 148.433594 253.582031 148.410156 253.582031 148.378906 253.589844 C 148.332031 253.53125 148.269531 253.515625 148.199219 253.535156 C 148.152344 253.476562 148.09375 253.460938 148.023438 253.480469 C 147.976562 253.417969 147.914062 253.402344 147.839844 253.425781 C 147.796875 253.363281 147.734375 253.34375 147.664062 253.367188 C 147.617188 253.300781 147.558594 253.28125 147.488281 253.308594 L 147.484375 253.304688 C 147.441406 253.242188 147.382812 253.222656 147.3125 253.246094 L 147.308594 253.246094 C 147.25 253.222656 147.195312 253.199219 147.136719 253.183594 L 147.128906 253.179688 C 147.085938 253.117188 147.03125 253.097656 146.957031 253.121094 L 146.949219 253.117188 C 146.910156 253.054688 146.851562 253.03125 146.777344 253.054688 L 146.773438 253.054688 C 146.773438 253.054688 146.769531 253.050781 146.769531 253.050781 C 146.769531 253.050781 146.773438 253.054688 146.773438 253.054688 C 146.730469 252.988281 146.671875 252.964844 146.601562 252.988281 L 146.597656 252.988281 C 146.554688 252.921875 146.496094 252.902344 146.421875 252.925781 L 146.421875 252.921875 C 146.378906 252.859375 146.320312 252.835938 146.246094 252.855469 C 145.71875 252.617188 145.195312 252.378906 144.667969 252.140625 C 144.355469 252.101562 144.097656 251.921875 143.828125 251.785156 C 143.828125 251.75 143.835938 251.71875 143.847656 251.6875 C 143.867188 251.644531 143.898438 251.605469 143.945312 251.578125 C 143.75 251.453125 143.566406 251.3125 143.328125 251.28125 C 143.257812 251.277344 143.1875 251.265625 143.121094 251.222656 C 143.191406 251.242188 143.257812 251.261719 143.328125 251.28125 C 143.273438 251.226562 143.21875 251.183594 143.140625 251.21875 C 143.09375 251.113281 143.003906 251.0625 142.894531 251.050781 C 142.863281 250.980469 142.8125 250.945312 142.734375 250.964844 C 142.6875 250.902344 142.632812 250.859375 142.550781 250.875 C 142.53125 250.839844 142.503906 250.816406 142.464844 250.8125 C 142.296875 250.65625 142.109375 250.539062 141.890625 250.472656 C 141.765625 250.367188 141.644531 250.257812 141.480469 250.226562 C 141.425781 250.132812 141.328125 250.101562 141.234375 250.0625 C 140.75 249.648438 140.191406 249.328125 139.761719 248.800781 C 139.664062 249.015625 139.410156 249.050781 139.433594 249.292969 Z M 179.46875 244.351562 C 179.46875 244.351562 179.46875 244.351562 179.464844 244.351562 C 179.464844 244.355469 179.46875 244.355469 179.46875 244.355469 C 179.464844 244.355469 179.464844 244.351562 179.464844 244.351562 C 179.464844 244.351562 179.464844 244.347656 179.464844 244.347656 C 179.464844 244.347656 179.46875 244.351562 179.46875 244.351562 Z M 146.507812 253.347656 C 146.519531 253.355469 146.53125 253.363281 146.546875 253.371094 C 146.542969 253.367188 146.539062 253.367188 146.535156 253.367188 C 146.523438 253.363281 146.511719 253.359375 146.496094 253.351562 C 146.5 253.351562 146.503906 253.351562 146.507812 253.347656 Z M 148.554688 253.652344 C 148.554688 253.652344 148.550781 253.652344 148.550781 253.65625 C 148.550781 253.660156 148.550781 253.664062 148.546875 253.667969 L 148.539062 253.683594 L 148.550781 253.652344 C 148.550781 253.652344 148.550781 253.652344 148.554688 253.652344 Z M 146.449219 253.386719 C 146.464844 253.375 146.480469 253.363281 146.496094 253.355469 C 146.507812 253.359375 146.519531 253.363281 146.53125 253.367188 C 146.503906 253.363281 146.476562 253.367188 146.449219 253.386719 Z M 146.609375 253.398438 C 146.625 253.40625 146.636719 253.410156 146.652344 253.417969 C 146.640625 253.414062 146.625 253.40625 146.609375 253.398438 Z M 140.054688 250.328125 C 140.054688 250.332031 140.050781 250.328125 140.050781 250.328125 C 140.050781 250.328125 140.046875 250.328125 140.046875 250.328125 C 140.046875 250.328125 140.042969 250.324219 140.042969 250.324219 C 140.046875 250.324219 140.050781 250.328125 140.054688 250.328125 Z M 140.273438 250.511719 C 140.273438 250.515625 140.273438 250.519531 140.277344 250.519531 C 140.277344 250.515625 140.273438 250.511719 140.273438 250.511719 Z M 143.007812 251.242188 C 143 251.25 142.988281 251.261719 142.980469 251.273438 C 142.976562 251.265625 142.972656 251.257812 142.96875 251.25 C 142.980469 251.246094 142.996094 251.242188 143.007812 251.242188 Z M 142.605469 250.945312 C 142.582031 250.9375 142.566406 250.917969 142.550781 250.894531 C 142.566406 250.917969 142.585938 250.933594 142.605469 250.945312 Z M 142.605469 250.945312 " fill-opacity="1" fill-rule="nonzero"/></g></g></g></g><g clip-path="url(#b04e0da246)"><g clip-path="url(#c38bd56d4c)"><g clip-path="url(#39061c1d76)"><g clip-path="url(#0bd2f1f8a8)"><path fill="#ffffff" d="M 147.125 253.183594 C 147.183594 253.203125 147.238281 253.222656 147.296875 253.246094 C 147.253906 253.179688 147.195312 253.160156 147.125 253.183594 Z M 147.125 253.183594 " fill-opacity="1" fill-rule="nonzero"/></g></g></g></g><g clip-path="url(#f224b9403b)"><g clip-path="url(#eecb0f7e6b)"><g clip-path="url(#3affd217ed)"><g clip-path="url(#a681d0a0fe)"><path fill="#ffffff" d="M 93.546875 149.945312 C 93.523438 149.910156 93.488281 149.894531 93.449219 149.898438 C 93.375 149.769531 93.53125 149.597656 93.351562 149.492188 C 93.160156 149.085938 92.8125 149.085938 92.441406 149.15625 C 91.410156 149.347656 90.429688 149.703125 89.472656 150.117188 C 86.050781 151.609375 83.101562 153.742188 80.511719 156.417969 C 75.988281 161.085938 73.5625 166.71875 72.664062 173.0625 C 72.246094 176 72.359375 178.960938 72.605469 181.921875 C 72.753906 183.660156 73.003906 185.382812 73.210938 187.113281 C 73.246094 187.175781 73.28125 187.230469 73.316406 187.289062 C 73.296875 187.363281 73.292969 187.453125 73.242188 187.503906 C 73.203125 187.542969 73.148438 187.488281 73.140625 187.425781 C 72.660156 186.929688 72.300781 186.351562 71.972656 185.757812 C 71.746094 185.347656 71.496094 184.96875 71.136719 184.667969 C 70.660156 183.785156 69.914062 183.492188 69.054688 183.816406 C 69.105469 185.804688 70.121094 187.375 71.285156 188.886719 C 71.71875 189.449219 72.113281 190.039062 72.515625 190.625 C 73.476562 192.023438 73.417969 191.765625 74.800781 191.683594 C 75.109375 191.664062 75.410156 191.574219 75.695312 191.457031 C 75.800781 191.414062 75.894531 191.363281 75.9375 191.25 C 76.289062 191.207031 76.390625 190.933594 76.476562 190.660156 C 76.738281 189.847656 76.984375 189.035156 77.238281 188.21875 C 77.390625 188.085938 77.425781 187.902344 77.453125 187.714844 C 77.609375 187.585938 77.644531 187.398438 77.683594 187.214844 C 77.808594 187.140625 77.824219 187 77.882812 186.882812 C 78.703125 185.339844 79.683594 183.914062 80.910156 182.65625 C 81.003906 182.5625 81.085938 182.460938 81.175781 182.359375 C 81.28125 182.246094 81.402344 182.113281 81.308594 181.957031 C 81.242188 181.839844 81.054688 181.800781 80.949219 181.84375 C 80.46875 182.03125 79.953125 181.898438 79.472656 182.039062 C 79.261719 182.101562 79.09375 182.246094 78.921875 182.394531 C 77.617188 183.539062 76.554688 184.882812 75.625 186.339844 C 75.542969 186.46875 75.480469 186.613281 75.375 186.722656 C 75.25 186.847656 75.132812 186.757812 75.046875 186.640625 C 75.125 186.484375 75.101562 186.34375 74.984375 186.214844 C 75.027344 186.058594 75.058594 185.902344 74.925781 185.765625 C 74.957031 185.734375 74.953125 185.707031 74.917969 185.679688 C 74.964844 185.53125 74.984375 185.386719 74.867188 185.253906 C 74.875 185.148438 74.898438 185.039062 74.890625 184.929688 C 74.785156 183.75 74.660156 182.570312 74.570312 181.390625 C 74.484375 180.316406 74.4375 179.242188 74.375 178.171875 C 74.390625 177.886719 74.421875 177.601562 74.425781 177.320312 C 74.507812 174.554688 74.921875 171.847656 75.746094 169.207031 C 76.039062 168.265625 76.363281 167.332031 76.671875 166.398438 C 76.835938 166.257812 76.863281 166.0625 76.890625 165.867188 C 77.050781 165.738281 77.078125 165.550781 77.109375 165.363281 C 77.269531 165.25 77.28125 165.070312 77.324219 164.902344 C 77.4375 164.835938 77.472656 164.730469 77.472656 164.609375 C 77.511719 164.585938 77.527344 164.550781 77.515625 164.503906 C 77.640625 164.429688 77.65625 164.289062 77.71875 164.175781 C 78.03125 163.628906 78.242188 163.023438 78.625 162.515625 C 78.59375 162.445312 78.628906 162.265625 78.46875 162.441406 C 78.359375 162.558594 78.3125 162.550781 78.292969 162.5 C 78.273438 162.457031 78.273438 162.382812 78.265625 162.324219 C 79.308594 160.621094 80.546875 159.066406 81.890625 157.589844 C 82.027344 157.464844 82.164062 157.339844 82.300781 157.214844 C 83.121094 156.464844 83.945312 155.714844 84.761719 154.964844 C 84.808594 154.960938 84.847656 154.945312 84.871094 154.917969 C 84.890625 154.898438 84.90625 154.875 84.914062 154.847656 C 84.992188 154.839844 85.039062 154.800781 85.0625 154.730469 C 85.140625 154.726562 85.1875 154.6875 85.210938 154.613281 C 85.285156 154.613281 85.335938 154.574219 85.359375 154.5 C 85.4375 154.496094 85.488281 154.460938 85.507812 154.386719 C 85.585938 154.386719 85.636719 154.347656 85.65625 154.273438 L 85.660156 154.273438 C 85.734375 154.273438 85.789062 154.238281 85.808594 154.164062 L 85.8125 154.164062 C 85.863281 154.128906 85.914062 154.09375 85.960938 154.054688 L 85.964844 154.050781 C 86.042969 154.054688 86.089844 154.019531 86.113281 153.945312 L 86.121094 153.941406 C 86.195312 153.945312 86.246094 153.910156 86.269531 153.835938 L 86.273438 153.832031 C 86.273438 153.832031 86.277344 153.832031 86.277344 153.832031 C 86.277344 153.832031 86.273438 153.832031 86.273438 153.832031 C 86.351562 153.835938 86.402344 153.800781 86.425781 153.726562 C 86.503906 153.730469 86.554688 153.691406 86.578125 153.621094 L 86.582031 153.617188 C 86.660156 153.621094 86.710938 153.585938 86.734375 153.511719 C 87.230469 153.214844 87.726562 152.921875 88.222656 152.625 C 88.433594 152.386719 88.726562 152.28125 88.992188 152.136719 C 89.023438 152.15625 89.046875 152.179688 89.0625 152.207031 C 89.089844 152.25 89.101562 152.292969 89.097656 152.347656 C 89.3125 152.261719 89.53125 152.191406 89.691406 152.011719 C 89.734375 151.953125 89.785156 151.902344 89.855469 151.875 C 89.804688 151.921875 89.746094 151.964844 89.691406 152.011719 C 89.765625 152 89.835938 151.976562 89.851562 151.894531 C 89.964844 151.914062 90.054688 151.871094 90.132812 151.785156 C 90.207031 151.800781 90.261719 151.78125 90.292969 151.707031 C 90.367188 151.703125 90.433594 151.679688 90.472656 151.605469 C 90.507812 151.609375 90.542969 151.601562 90.570312 151.570312 C 90.792969 151.523438 90.996094 151.433594 91.175781 151.292969 C 91.332031 151.25 91.492188 151.210938 91.613281 151.09375 C 91.722656 151.101562 91.804688 151.042969 91.886719 150.988281 C 92.503906 150.824219 93.085938 150.546875 93.761719 150.496094 C 93.640625 150.292969 93.757812 150.0625 93.546875 149.945312 Z M 74.785156 185.660156 C 74.789062 185.65625 74.789062 185.65625 74.789062 185.65625 C 74.785156 185.65625 74.785156 185.65625 74.785156 185.65625 C 74.785156 185.65625 74.789062 185.652344 74.789062 185.652344 C 74.789062 185.652344 74.789062 185.65625 74.789062 185.65625 C 74.789062 185.65625 74.792969 185.65625 74.792969 185.65625 C 74.789062 185.65625 74.789062 185.65625 74.785156 185.660156 Z M 86.183594 153.445312 C 86.167969 153.453125 86.15625 153.460938 86.144531 153.464844 C 86.144531 153.464844 86.148438 153.460938 86.152344 153.457031 C 86.160156 153.449219 86.171875 153.441406 86.183594 153.4375 C 86.183594 153.4375 86.183594 153.441406 86.183594 153.445312 Z M 84.765625 154.957031 C 84.765625 154.953125 84.765625 154.953125 84.765625 154.953125 C 84.761719 154.949219 84.757812 154.945312 84.753906 154.941406 L 84.746094 154.925781 L 84.765625 154.953125 C 84.765625 154.953125 84.769531 154.953125 84.769531 154.953125 C 84.769531 154.953125 84.765625 154.953125 84.765625 154.957031 Z M 86.183594 153.378906 C 86.183594 153.398438 86.183594 153.414062 86.183594 153.433594 C 86.171875 153.441406 86.164062 153.445312 86.152344 153.453125 C 86.171875 153.4375 86.183594 153.410156 86.183594 153.378906 Z M 86.082031 153.5 C 86.070312 153.511719 86.054688 153.519531 86.042969 153.523438 C 86.042969 153.523438 86.042969 153.527344 86.039062 153.527344 C 86.054688 153.519531 86.070312 153.511719 86.082031 153.5 Z M 92.339844 149.867188 C 92.339844 149.863281 92.34375 149.863281 92.34375 149.863281 C 92.34375 149.863281 92.347656 149.859375 92.347656 149.859375 C 92.347656 149.859375 92.351562 149.859375 92.351562 149.859375 C 92.347656 149.863281 92.34375 149.863281 92.339844 149.867188 Z M 92.066406 149.941406 C 92.0625 149.9375 92.058594 149.9375 92.058594 149.941406 C 92.0625 149.941406 92.066406 149.941406 92.066406 149.941406 Z M 89.90625 151.773438 C 89.90625 151.757812 89.902344 151.746094 89.898438 151.730469 C 89.90625 151.730469 89.914062 151.734375 89.925781 151.734375 C 89.917969 151.746094 89.914062 151.761719 89.90625 151.773438 Z M 90.382812 151.609375 C 90.402344 151.597656 90.425781 151.59375 90.453125 151.59375 C 90.425781 151.597656 90.402344 151.601562 90.382812 151.609375 Z M 90.382812 151.609375 " fill-opacity="1" fill-rule="nonzero"/></g></g></g></g><g clip-path="url(#a3a24ae0f1)"><g clip-path="url(#d82d438f7b)"><g clip-path="url(#3874ffefe1)"><g clip-path="url(#2969820a49)"><path fill="#ffffff" d="M 85.964844 154.046875 C 85.917969 154.082031 85.867188 154.121094 85.816406 154.152344 C 85.894531 154.15625 85.945312 154.121094 85.964844 154.046875 Z M 85.964844 154.046875 " fill-opacity="1" fill-rule="nonzero"/></g></g></g></g><path stroke-linecap="butt" transform="matrix(0.74987, 0.00605191, -0.00605275, 0.749976, 136.490312, 77.868328)" fill="none" stroke-linejoin="miter" d="M -0.00220402 1.998562 L 223.03636 2.000901 " stroke="#000000" stroke-width="4" stroke-opacity="1" stroke-miterlimit="4"/><path stroke-linecap="butt" transform="matrix(0.750617, -0.00364086, 0.00363783, 0.749991, 135.126205, 291.168432)" fill="none" stroke-linejoin="miter" d="M -0.000887235 1.999401 L 224.814281 2.002221 " stroke="#000000" stroke-width="4" stroke-opacity="1" stroke-miterlimit="4"/><g clip-path="url(#f83c11752b)"><path fill="#5ce1e6" d="M 294.695312 306.992188 L 286.203125 297.5 C 286.019531 297.296875 285.765625 297.183594 285.5 297.183594 L 279.835938 297.183594 C 279.464844 297.183594 279.128906 297.402344 278.972656 297.746094 C 278.824219 298.089844 278.886719 298.488281 279.136719 298.765625 L 287.058594 307.628906 L 279.136719 316.484375 C 278.886719 316.765625 278.820312 317.164062 278.972656 317.507812 C 279.128906 317.851562 279.464844 318.070312 279.835938 318.070312 L 285.5 318.070312 C 285.765625 318.070312 286.019531 317.953125 286.203125 317.757812 L 294.695312 308.261719 C 295.015625 307.902344 295.015625 307.351562 294.695312 306.992188 Z M 294.695312 306.992188 " fill-opacity="1" fill-rule="nonzero"/></g><g clip-path="url(#4a2e9f82f2)"><path fill="#5ce1e6" d="M 282.425781 306.992188 L 273.933594 297.5 C 273.75 297.296875 273.5 297.183594 273.230469 297.183594 L 267.570312 297.183594 C 267.195312 297.183594 266.859375 297.402344 266.707031 297.746094 C 266.554688 298.089844 266.617188 298.488281 266.867188 298.765625 L 274.792969 307.628906 L 266.867188 316.484375 C 266.617188 316.765625 266.554688 317.164062 266.707031 317.507812 C 266.859375 317.851562 267.195312 318.070312 267.570312 318.070312 L 273.230469 318.070312 C 273.5 318.070312 273.75 317.953125 273.933594 317.757812 L 282.425781 308.261719 C 282.75 307.902344 282.75 307.351562 282.425781 306.992188 Z M 282.425781 306.992188 " fill-opacity="1" fill-rule="nonzero"/></g><g clip-path="url(#b34e38fcfb)"><path fill="#38b6ff" d="M 257.570312 306.992188 L 249.078125 297.5 C 248.894531 297.296875 248.640625 297.183594 248.375 297.183594 L 242.710938 297.183594 C 242.339844 297.183594 242.003906 297.402344 241.847656 297.746094 C 241.699219 298.089844 241.761719 298.488281 242.007812 298.765625 L 249.933594 307.628906 L 242.007812 316.484375 C 241.761719 316.765625 241.695312 317.164062 241.847656 317.507812 C 242.003906 317.851562 242.339844 318.070312 242.710938 318.070312 L 248.375 318.070312 C 248.640625 318.070312 248.894531 317.953125 249.078125 317.757812 L 257.570312 308.261719 C 257.890625 307.902344 257.890625 307.351562 257.570312 306.992188 Z M 257.570312 306.992188 " fill-opacity="1" fill-rule="nonzero"/></g><g clip-path="url(#4eebc4ec05)"><path fill="#38b6ff" d="M 245.300781 306.992188 L 236.808594 297.5 C 236.625 297.296875 236.375 297.183594 236.105469 297.183594 L 230.445312 297.183594 C 230.070312 297.183594 229.734375 297.402344 229.582031 297.746094 C 229.429688 298.089844 229.492188 298.488281 229.742188 298.765625 L 237.667969 307.628906 L 229.742188 316.484375 C 229.492188 316.765625 229.429688 317.164062 229.582031 317.507812 C 229.734375 317.851562 230.070312 318.070312 230.445312 318.070312 L 236.105469 318.070312 C 236.375 318.070312 236.625 317.953125 236.808594 317.757812 L 245.300781 308.261719 C 245.625 307.902344 245.625 307.351562 245.300781 306.992188 Z M 245.300781 306.992188 " fill-opacity="1" fill-rule="nonzero"/></g><g clip-path="url(#4eb136af1d)"><path fill="#38b6ff" d="M 220.445312 306.992188 L 211.953125 297.5 C 211.769531 297.296875 211.515625 297.183594 211.25 297.183594 L 205.585938 297.183594 C 205.214844 297.183594 204.878906 297.402344 204.722656 297.746094 C 204.574219 298.089844 204.636719 298.488281 204.886719 298.765625 L 212.808594 307.628906 L 204.886719 316.484375 C 204.636719 316.765625 204.570312 317.164062 204.722656 317.507812 C 204.878906 317.851562 205.214844 318.070312 205.585938 318.070312 L 211.25 318.070312 C 211.515625 318.070312 211.769531 317.953125 211.953125 317.757812 L 220.445312 308.261719 C 220.765625 307.902344 220.765625 307.351562 220.445312 306.992188 Z M 220.445312 306.992188 " fill-opacity="1" fill-rule="nonzero"/></g><g clip-path="url(#c55283cf55)"><path fill="#38b6ff" d="M 208.175781 306.992188 L 199.683594 297.5 C 199.5 297.296875 199.25 297.183594 198.980469 297.183594 L 193.320312 297.183594 C 192.945312 297.183594 192.609375 297.402344 192.457031 297.746094 C 192.304688 298.089844 192.367188 298.488281 192.617188 298.765625 L 200.542969 307.628906 L 192.617188 316.484375 C 192.367188 316.765625 192.304688 317.164062 192.457031 317.507812 C 192.609375 317.851562 192.945312 318.070312 193.320312 318.070312 L 198.980469 318.070312 C 199.25 318.070312 199.5 317.953125 199.683594 317.757812 L 208.175781 308.261719 C 208.5 307.902344 208.5 307.351562 208.175781 306.992188 Z M 208.175781 306.992188 " fill-opacity="1" fill-rule="nonzero"/></g><g clip-path="url(#28492ec77b)"><path fill="#38b6ff" d="M 183.320312 306.992188 L 174.828125 297.5 C 174.644531 297.296875 174.390625 297.183594 174.125 297.183594 L 168.460938 297.183594 C 168.089844 297.183594 167.753906 297.402344 167.597656 297.746094 C 167.449219 298.089844 167.511719 298.488281 167.761719 298.765625 L 175.683594 307.628906 L 167.761719 316.484375 C 167.511719 316.765625 167.445312 317.164062 167.597656 317.507812 C 167.753906 317.851562 168.089844 318.070312 168.460938 318.070312 L 174.125 318.070312 C 174.390625 318.070312 174.644531 317.953125 174.828125 317.757812 L 183.320312 308.261719 C 183.640625 307.902344 183.640625 307.351562 183.320312 306.992188 Z M 183.320312 306.992188 " fill-opacity="1" fill-rule="nonzero"/></g><g clip-path="url(#5c6d12a5ad)"><path fill="#38b6ff" d="M 171.050781 306.992188 L 162.558594 297.5 C 162.375 297.296875 162.125 297.183594 161.855469 297.183594 L 156.195312 297.183594 C 155.820312 297.183594 155.484375 297.402344 155.332031 297.746094 C 155.179688 298.089844 155.242188 298.488281 155.492188 298.765625 L 163.417969 307.628906 L 155.492188 316.484375 C 155.242188 316.765625 155.179688 317.164062 155.332031 317.507812 C 155.484375 317.851562 155.820312 318.070312 156.195312 318.070312 L 161.855469 318.070312 C 162.125 318.070312 162.375 317.953125 162.558594 317.757812 L 171.050781 308.261719 C 171.375 307.902344 171.375 307.351562 171.050781 306.992188 Z M 171.050781 306.992188 " fill-opacity="1" fill-rule="nonzero"/></g><g clip-path="url(#17cae92dc9)"><g clip-path="url(#5d95db99ce)"><g clip-path="url(#c44f4afcb0)"><path fill="#5ce1e6" d="M 146.183594 306.746094 L 137.523438 297.402344 C 137.339844 297.207031 137.085938 297.097656 136.816406 297.101562 L 131.15625 297.199219 C 130.785156 297.207031 130.449219 297.433594 130.304688 297.777344 C 130.160156 298.125 130.226562 298.523438 130.480469 298.796875 L 138.5625 307.515625 L 130.792969 316.511719 C 130.550781 316.796875 130.492188 317.195312 130.652344 317.535156 C 130.8125 317.875 131.152344 318.089844 131.523438 318.085938 L 137.1875 317.984375 C 137.453125 317.980469 137.703125 317.859375 137.882812 317.660156 L 146.207031 308.015625 C 146.523438 307.648438 146.511719 307.097656 146.183594 306.746094 Z M 146.183594 306.746094 " fill-opacity="1" fill-rule="nonzero"/></g></g></g><g clip-path="url(#eabc6f26fc)"><g clip-path="url(#76965d7883)"><g clip-path="url(#d619031ed8)"><path fill="#5ce1e6" d="M 133.917969 306.960938 L 125.257812 297.621094 C 125.074219 297.421875 124.820312 297.3125 124.550781 297.316406 L 118.890625 297.417969 C 118.519531 297.425781 118.183594 297.648438 118.035156 297.996094 C 117.890625 298.339844 117.960938 298.742188 118.214844 299.011719 L 126.296875 307.730469 L 118.527344 316.726562 C 118.285156 317.011719 118.226562 317.414062 118.386719 317.753906 C 118.546875 318.09375 118.886719 318.308594 119.257812 318.300781 L 124.921875 318.203125 C 125.1875 318.195312 125.4375 318.074219 125.617188 317.875 L 133.941406 308.234375 C 134.257812 307.867188 134.246094 307.316406 133.917969 306.960938 Z M 133.917969 306.960938 " fill-opacity="1" fill-rule="nonzero"/></g></g></g><g clip-path="url(#dd8c7834f0)"><g clip-path="url(#538c9cf75d)"><g clip-path="url(#43697c58e6)"><path fill="#38b6ff" d="M 99.40625 301.191406 L 97.382812 288.617188 C 97.335938 288.347656 97.1875 288.117188 96.960938 287.972656 L 92.195312 284.914062 C 91.882812 284.714844 91.476562 284.714844 91.164062 284.921875 C 90.851562 285.128906 90.6875 285.5 90.75 285.867188 L 92.636719 297.605469 L 81.183594 300.78125 C 80.824219 300.882812 80.550781 301.183594 80.496094 301.554688 C 80.441406 301.925781 80.605469 302.296875 80.917969 302.496094 L 85.683594 305.554688 C 85.910156 305.699219 86.183594 305.738281 86.445312 305.667969 L 98.71875 302.261719 C 99.1875 302.132812 99.484375 301.667969 99.40625 301.191406 Z M 99.40625 301.191406 " fill-opacity="1" fill-rule="nonzero"/></g></g></g><g clip-path="url(#01aaf90dec)"><g clip-path="url(#dc01b14b82)"><g clip-path="url(#8880bd01bc)"><path fill="#38b6ff" d="M 89.078125 294.570312 L 87.054688 281.992188 C 87.011719 281.726562 86.859375 281.492188 86.632812 281.347656 L 81.867188 278.292969 C 81.554688 278.089844 81.152344 278.09375 80.839844 278.296875 C 80.527344 278.507812 80.363281 278.878906 80.421875 279.246094 L 82.308594 290.980469 L 70.855469 294.160156 C 70.496094 294.257812 70.226562 294.5625 70.167969 294.933594 C 70.113281 295.304688 70.277344 295.671875 70.589844 295.871094 L 75.359375 298.929688 C 75.582031 299.074219 75.859375 299.113281 76.117188 299.046875 L 88.394531 295.640625 C 88.859375 295.507812 89.15625 295.046875 89.078125 294.570312 Z M 89.078125 294.570312 " fill-opacity="1" fill-rule="nonzero"/></g></g></g><g clip-path="url(#9c1eb4aa84)"><g clip-path="url(#7ab394416b)"><g clip-path="url(#d5ec0525db)"><path fill="#38b6ff" d="M 61.433594 282.320312 L 61.902344 269.589844 C 61.910156 269.316406 61.808594 269.0625 61.613281 268.875 L 57.535156 264.945312 C 57.269531 264.6875 56.871094 264.613281 56.523438 264.753906 C 56.175781 264.894531 55.945312 265.226562 55.929688 265.601562 L 55.492188 277.480469 L 43.640625 278.363281 C 43.265625 278.390625 42.941406 278.632812 42.816406 278.988281 C 42.6875 279.339844 42.777344 279.734375 43.046875 279.992188 L 47.125 283.917969 C 47.316406 284.105469 47.582031 284.195312 47.847656 284.179688 L 60.550781 283.234375 C 61.035156 283.199219 61.414062 282.800781 61.433594 282.320312 Z M 61.433594 282.320312 " fill-opacity="1" fill-rule="nonzero"/></g></g></g><g clip-path="url(#c05a3cb89a)"><g clip-path="url(#6cb06b3b6e)"><g clip-path="url(#21948c31af)"><path fill="#38b6ff" d="M 52.597656 273.808594 L 53.066406 261.078125 C 53.074219 260.808594 52.96875 260.550781 52.777344 260.363281 L 48.699219 256.4375 C 48.429688 256.179688 48.035156 256.101562 47.6875 256.242188 C 47.339844 256.386719 47.109375 256.71875 47.09375 257.089844 L 46.65625 268.96875 L 34.804688 269.851562 C 34.429688 269.878906 34.105469 270.125 33.980469 270.476562 C 33.851562 270.828125 33.941406 271.222656 34.210938 271.480469 L 38.289062 275.410156 C 38.480469 275.59375 38.742188 275.6875 39.011719 275.671875 L 51.714844 274.722656 C 52.199219 274.6875 52.578125 274.289062 52.597656 273.808594 Z M 52.597656 273.808594 " fill-opacity="1" fill-rule="nonzero"/></g></g></g><g clip-path="url(#793b17e527)"><g clip-path="url(#b0a0ce0be9)"><g clip-path="url(#9ea7bf7d51)"><path fill="#38b6ff" d="M 36.792969 250.25 L 40.734375 238.136719 C 40.816406 237.878906 40.789062 237.601562 40.652344 237.371094 L 37.808594 232.476562 C 37.621094 232.15625 37.261719 231.972656 36.890625 232.011719 C 36.515625 232.054688 36.199219 232.308594 36.085938 232.664062 L 32.410156 243.96875 L 20.769531 241.570312 C 20.402344 241.492188 20.023438 241.640625 19.804688 241.945312 C 19.585938 242.25 19.5625 242.652344 19.75 242.972656 L 22.597656 247.867188 C 22.730469 248.101562 22.957031 248.261719 23.21875 248.316406 L 35.695312 250.890625 C 36.171875 250.988281 36.648438 250.710938 36.792969 250.25 Z M 36.792969 250.25 " fill-opacity="1" fill-rule="nonzero"/></g></g></g><g clip-path="url(#985e3bd9f5)"><g clip-path="url(#a5a4d92e71)"><g clip-path="url(#04c543ecf4)"><path fill="#38b6ff" d="M 30.628906 239.644531 L 34.570312 227.53125 C 34.652344 227.273438 34.625 226.996094 34.488281 226.765625 L 31.644531 221.871094 C 31.457031 221.546875 31.097656 221.367188 30.722656 221.40625 C 30.351562 221.449219 30.035156 221.703125 29.921875 222.058594 L 26.246094 233.363281 L 14.601562 230.960938 C 14.238281 230.886719 13.859375 231.035156 13.640625 231.335938 C 13.417969 231.640625 13.398438 232.042969 13.585938 232.367188 L 16.429688 237.261719 C 16.566406 237.492188 16.792969 237.652344 17.054688 237.710938 L 29.53125 240.28125 C 30.003906 240.378906 30.480469 240.105469 30.628906 239.644531 Z M 30.628906 239.644531 " fill-opacity="1" fill-rule="nonzero"/></g></g></g><g clip-path="url(#5e6b721eea)"><path fill="#5ce1e6" d="M 20.015625 200.003906 L 29.507812 191.511719 C 29.710938 191.332031 29.824219 191.078125 29.824219 190.808594 L 29.824219 185.148438 C 29.824219 184.777344 29.605469 184.4375 29.261719 184.285156 C 28.917969 184.132812 28.515625 184.195312 28.242188 184.445312 L 19.378906 192.371094 L 10.523438 184.445312 C 10.242188 184.195312 9.84375 184.132812 9.5 184.285156 C 9.15625 184.4375 8.9375 184.777344 8.9375 185.148438 L 8.9375 190.808594 C 8.9375 191.078125 9.050781 191.332031 9.25 191.511719 L 18.746094 200.003906 C 19.105469 200.328125 19.65625 200.328125 20.015625 200.003906 Z M 20.015625 200.003906 " fill-opacity="1" fill-rule="nonzero"/></g><g clip-path="url(#9f7d11fd79)"><path fill="#5ce1e6" d="M 20.015625 187.738281 L 29.507812 179.242188 C 29.710938 179.0625 29.824219 178.808594 29.824219 178.542969 L 29.824219 172.878906 C 29.824219 172.507812 29.605469 172.171875 29.261719 172.015625 C 28.917969 171.867188 28.515625 171.929688 28.242188 172.175781 L 19.378906 180.101562 L 10.523438 172.175781 C 10.242188 171.929688 9.84375 171.863281 9.5 172.015625 C 9.15625 172.171875 8.9375 172.507812 8.9375 172.878906 L 8.9375 178.542969 C 8.9375 178.808594 9.050781 179.0625 9.25 179.242188 L 18.746094 187.738281 C 19.105469 188.058594 19.65625 188.058594 20.015625 187.738281 Z M 20.015625 187.738281 " fill-opacity="1" fill-rule="nonzero"/></g><g clip-path="url(#0395aef978)"><g clip-path="url(#e503337f12)"><g clip-path="url(#5fe972b86f)"><path fill="#38b6ff" d="M 22.28125 145.097656 L 34.921875 143.527344 C 35.191406 143.492188 35.429688 143.347656 35.582031 143.128906 L 38.808594 138.476562 C 39.019531 138.167969 39.03125 137.765625 38.835938 137.445312 C 38.640625 137.125 38.273438 136.949219 37.90625 136.996094 L 26.109375 138.460938 L 23.34375 126.902344 C 23.253906 126.539062 22.960938 126.257812 22.59375 126.191406 C 22.226562 126.121094 21.851562 126.273438 21.640625 126.578125 L 18.414062 131.230469 C 18.261719 131.453125 18.210938 131.726562 18.273438 131.988281 L 21.238281 144.375 C 21.351562 144.847656 21.800781 145.160156 22.28125 145.097656 Z M 22.28125 145.097656 " fill-opacity="1" fill-rule="nonzero"/></g></g></g><g clip-path="url(#3d53754e94)"><g clip-path="url(#6b0d7ee6ef)"><g clip-path="url(#1151ffa353)"><path fill="#38b6ff" d="M 29.269531 135.015625 L 41.910156 133.441406 C 42.179688 133.410156 42.417969 133.265625 42.570312 133.046875 L 45.792969 128.390625 C 46.007812 128.085938 46.019531 127.683594 45.824219 127.363281 C 45.628906 127.042969 45.261719 126.867188 44.894531 126.914062 L 33.097656 128.378906 L 30.332031 116.820312 C 30.242188 116.457031 29.949219 116.175781 29.582031 116.105469 C 29.210938 116.035156 28.839844 116.1875 28.628906 116.492188 L 25.402344 121.148438 C 25.25 121.367188 25.199219 121.640625 25.261719 121.902344 L 28.226562 134.292969 C 28.335938 134.761719 28.789062 135.078125 29.269531 135.015625 Z M 29.269531 135.015625 " fill-opacity="1" fill-rule="nonzero"/></g></g></g><g clip-path="url(#fb5445ea76)"><g clip-path="url(#8e42052615)"><g clip-path="url(#07941b585b)"><path fill="#38b6ff" d="M 45.109375 108.90625 L 57.78125 110.222656 C 58.050781 110.25 58.3125 110.164062 58.511719 109.984375 L 62.703125 106.175781 C 62.976562 105.925781 63.078125 105.535156 62.960938 105.179688 C 62.84375 104.824219 62.527344 104.570312 62.15625 104.53125 L 50.332031 103.304688 L 50.242188 91.417969 C 50.238281 91.042969 50.015625 90.703125 49.675781 90.554688 C 49.332031 90.402344 48.933594 90.46875 48.65625 90.71875 L 44.464844 94.523438 C 44.265625 94.703125 44.160156 94.960938 44.15625 95.230469 L 44.253906 107.96875 C 44.257812 108.453125 44.628906 108.859375 45.109375 108.90625 Z M 45.109375 108.90625 " fill-opacity="1" fill-rule="nonzero"/></g></g></g><g clip-path="url(#7e47dba4dd)"><g clip-path="url(#60f63cf5af)"><g clip-path="url(#e3878e7e4e)"><path fill="#38b6ff" d="M 54.1875 100.65625 L 66.859375 101.972656 C 67.128906 102 67.394531 101.914062 67.589844 101.734375 L 71.78125 97.925781 C 72.058594 97.675781 72.160156 97.285156 72.042969 96.929688 C 71.921875 96.574219 71.609375 96.320312 71.238281 96.28125 L 59.414062 95.054688 L 59.324219 83.167969 C 59.320312 82.792969 59.097656 82.453125 58.753906 82.304688 C 58.410156 82.152344 58.011719 82.21875 57.738281 82.46875 L 53.546875 86.273438 C 53.347656 86.457031 53.238281 86.710938 53.238281 86.980469 L 53.335938 99.71875 C 53.339844 100.203125 53.710938 100.609375 54.1875 100.65625 Z M 54.1875 100.65625 " fill-opacity="1" fill-rule="nonzero"/></g></g></g><g clip-path="url(#0f5fd7b14d)"><g clip-path="url(#dc62dae13f)"><g clip-path="url(#7765207aa7)"><path fill="#38b6ff" d="M 75.378906 84.589844 L 87.1875 89.363281 C 87.441406 89.460938 87.71875 89.453125 87.957031 89.335938 L 93.039062 86.835938 C 93.371094 86.671875 93.578125 86.328125 93.566406 85.953125 C 93.550781 85.578125 93.316406 85.246094 92.96875 85.105469 L 81.949219 80.652344 L 85.152344 69.207031 C 85.253906 68.84375 85.136719 68.457031 84.847656 68.21875 C 84.558594 67.976562 84.160156 67.929688 83.824219 68.09375 L 78.742188 70.589844 C 78.503906 70.707031 78.328125 70.925781 78.25 71.179688 L 74.816406 83.449219 C 74.6875 83.914062 74.929688 84.410156 75.378906 84.589844 Z M 75.378906 84.589844 " fill-opacity="1" fill-rule="nonzero"/></g></g></g><g clip-path="url(#a13dbd3f04)"><g clip-path="url(#4c2b9ca42c)"><g clip-path="url(#6c40c3c19e)"><path fill="#38b6ff" d="M 86.386719 79.175781 L 98.199219 83.949219 C 98.449219 84.050781 98.726562 84.042969 98.96875 83.921875 L 104.050781 81.425781 C 104.382812 81.261719 104.589844 80.914062 104.574219 80.539062 C 104.558594 80.164062 104.328125 79.832031 103.980469 79.695312 L 92.960938 75.238281 L 96.164062 63.792969 C 96.265625 63.433594 96.144531 63.046875 95.859375 62.804688 C 95.570312 62.566406 95.167969 62.515625 94.835938 62.679688 L 89.753906 65.179688 C 89.511719 65.296875 89.335938 65.511719 89.261719 65.769531 L 85.828125 78.035156 C 85.695312 78.503906 85.941406 78.996094 86.386719 79.175781 Z M 86.386719 79.175781 " fill-opacity="1" fill-rule="nonzero"/></g></g></g><g clip-path="url(#a635a52ca5)"><path fill="#5ce1e6" d="M 118.214844 68.148438 L 126.707031 77.640625 C 126.890625 77.84375 127.144531 77.957031 127.410156 77.957031 L 133.074219 77.957031 C 133.445312 77.957031 133.78125 77.738281 133.9375 77.394531 C 134.085938 77.050781 134.023438 76.652344 133.773438 76.375 L 125.851562 67.515625 L 133.773438 58.65625 C 134.023438 58.375 134.089844 57.976562 133.9375 57.632812 C 133.78125 57.289062 133.445312 57.070312 133.074219 57.070312 L 127.410156 57.070312 C 127.144531 57.070312 126.890625 57.1875 126.707031 57.382812 L 118.214844 66.878906 C 117.894531 67.238281 117.894531 67.789062 118.214844 68.148438 Z M 118.214844 68.148438 " fill-opacity="1" fill-rule="nonzero"/></g><g clip-path="url(#a0f1a64bae)"><path fill="#5ce1e6" d="M 130.484375 68.148438 L 138.976562 77.640625 C 139.160156 77.84375 139.410156 77.957031 139.679688 77.957031 L 145.339844 77.957031 C 145.714844 77.957031 146.050781 77.738281 146.203125 77.394531 C 146.355469 77.050781 146.292969 76.652344 146.042969 76.375 L 138.117188 67.515625 L 146.042969 58.65625 C 146.292969 58.375 146.355469 57.976562 146.203125 57.632812 C 146.050781 57.289062 145.714844 57.070312 145.339844 57.070312 L 139.679688 57.070312 C 139.410156 57.070312 139.160156 57.1875 138.976562 57.382812 L 130.484375 66.878906 C 130.160156 67.238281 130.160156 67.789062 130.484375 68.148438 Z M 130.484375 68.148438 " fill-opacity="1" fill-rule="nonzero"/></g><g clip-path="url(#f13456f81e)"><g clip-path="url(#3913f7dd23)"><g clip-path="url(#bf82d109aa)"><path fill="#38b6ff" d="M 154.75 67.308594 L 162.957031 77.050781 C 163.128906 77.257812 163.378906 77.378906 163.648438 77.390625 L 169.308594 77.558594 C 169.679688 77.570312 170.023438 77.359375 170.1875 77.023438 C 170.347656 76.683594 170.296875 76.28125 170.058594 75.996094 L 162.402344 66.902344 L 170.589844 58.289062 C 170.847656 58.015625 170.925781 57.617188 170.78125 57.273438 C 170.640625 56.921875 170.308594 56.691406 169.9375 56.683594 L 164.277344 56.511719 C 164.007812 56.503906 163.753906 56.613281 163.566406 56.804688 L 154.789062 66.039062 C 154.457031 66.386719 154.441406 66.9375 154.75 67.308594 Z M 154.75 67.308594 " fill-opacity="1" fill-rule="nonzero"/></g></g></g><g clip-path="url(#a37686bcb8)"><g clip-path="url(#de7f966d6b)"><g clip-path="url(#0e3e804bd7)"><path fill="#38b6ff" d="M 167.015625 67.675781 L 175.21875 77.421875 C 175.394531 77.628906 175.640625 77.75 175.910156 77.757812 L 181.570312 77.929688 C 181.941406 77.941406 182.285156 77.730469 182.449219 77.394531 C 182.609375 77.054688 182.558594 76.652344 182.320312 76.367188 L 174.664062 67.273438 L 182.851562 58.65625 C 183.109375 58.386719 183.1875 57.988281 183.042969 57.640625 C 182.902344 57.292969 182.570312 57.0625 182.199219 57.050781 L 176.539062 56.878906 C 176.269531 56.871094 176.015625 56.980469 175.828125 57.171875 L 167.050781 66.40625 C 166.71875 66.757812 166.703125 67.308594 167.015625 67.675781 Z M 167.015625 67.675781 " fill-opacity="1" fill-rule="nonzero"/></g></g></g><g clip-path="url(#05eb24282f)"><g clip-path="url(#62b881bc08)"><g clip-path="url(#d2b0f280ee)"><path fill="#5ce1e6" d="M 266.402344 67.308594 L 274.609375 77.050781 C 274.78125 77.257812 275.03125 77.378906 275.300781 77.390625 L 280.960938 77.558594 C 281.332031 77.570312 281.675781 77.359375 281.839844 77.023438 C 282 76.683594 281.949219 76.28125 281.710938 75.996094 L 274.054688 66.902344 L 282.242188 58.289062 C 282.5 58.015625 282.578125 57.617188 282.433594 57.273438 C 282.292969 56.921875 281.960938 56.691406 281.589844 56.683594 L 275.929688 56.511719 C 275.660156 56.503906 275.40625 56.613281 275.21875 56.804688 L 266.441406 66.039062 C 266.109375 66.386719 266.09375 66.9375 266.402344 67.308594 Z M 266.402344 67.308594 " fill-opacity="1" fill-rule="nonzero"/></g></g></g><g clip-path="url(#224c7d73bb)"><g clip-path="url(#0f02123d5c)"><g clip-path="url(#c846510b30)"><path fill="#5ce1e6" d="M 278.667969 67.675781 L 286.871094 77.421875 C 287.046875 77.628906 287.292969 77.75 287.5625 77.757812 L 293.222656 77.929688 C 293.59375 77.941406 293.9375 77.730469 294.101562 77.394531 C 294.261719 77.054688 294.210938 76.652344 293.972656 76.367188 L 286.316406 67.273438 L 294.503906 58.65625 C 294.761719 58.386719 294.839844 57.988281 294.695312 57.640625 C 294.554688 57.292969 294.222656 57.0625 293.851562 57.050781 L 288.191406 56.878906 C 287.921875 56.871094 287.667969 56.980469 287.480469 57.171875 L 278.703125 66.40625 C 278.371094 66.757812 278.355469 67.308594 278.667969 67.675781 Z M 278.667969 67.675781 " fill-opacity="1" fill-rule="nonzero"/></g></g></g><g clip-path="url(#983ca4dbaa)"><g clip-path="url(#71dbffa504)"><g clip-path="url(#92f6723fc7)"><path fill="#38b6ff" d="M 229.277344 67.308594 L 237.484375 77.050781 C 237.65625 77.257812 237.90625 77.378906 238.175781 77.390625 L 243.835938 77.558594 C 244.207031 77.570312 244.550781 77.359375 244.714844 77.023438 C 244.875 76.683594 244.824219 76.28125 244.585938 75.996094 L 236.929688 66.902344 L 245.117188 58.289062 C 245.375 58.015625 245.453125 57.617188 245.308594 57.273438 C 245.167969 56.921875 244.835938 56.691406 244.464844 56.683594 L 238.804688 56.511719 C 238.535156 56.503906 238.28125 56.613281 238.09375 56.804688 L 229.316406 66.039062 C 228.984375 66.386719 228.96875 66.9375 229.277344 67.308594 Z M 229.277344 67.308594 " fill-opacity="1" fill-rule="nonzero"/></g></g></g><g clip-path="url(#952db600c1)"><g clip-path="url(#94b869f78c)"><g clip-path="url(#276630f102)"><path fill="#38b6ff" d="M 241.542969 67.675781 L 249.746094 77.421875 C 249.921875 77.628906 250.167969 77.75 250.4375 77.757812 L 256.097656 77.929688 C 256.46875 77.941406 256.8125 77.730469 256.976562 77.394531 C 257.136719 77.054688 257.085938 76.652344 256.847656 76.367188 L 249.191406 67.273438 L 257.378906 58.65625 C 257.636719 58.386719 257.714844 57.988281 257.570312 57.640625 C 257.429688 57.292969 257.097656 57.0625 256.726562 57.050781 L 251.066406 56.878906 C 250.796875 56.871094 250.542969 56.980469 250.355469 57.171875 L 241.578125 66.40625 C 241.246094 66.757812 241.230469 67.308594 241.542969 67.675781 Z M 241.542969 67.675781 " fill-opacity="1" fill-rule="nonzero"/></g></g></g><g clip-path="url(#41344d2ac0)"><g clip-path="url(#59a8e757df)"><g clip-path="url(#b1cc93bb70)"><path fill="#38b6ff" d="M 192.761719 67.308594 L 200.964844 77.050781 C 201.140625 77.257812 201.390625 77.378906 201.660156 77.390625 L 207.316406 77.558594 C 207.691406 77.570312 208.035156 77.359375 208.199219 77.023438 C 208.359375 76.683594 208.308594 76.28125 208.066406 75.996094 L 200.414062 66.902344 L 208.601562 58.289062 C 208.859375 58.015625 208.933594 57.617188 208.792969 57.273438 C 208.648438 56.921875 208.320312 56.691406 207.945312 56.683594 L 202.289062 56.511719 C 202.019531 56.503906 201.761719 56.613281 201.574219 56.804688 L 192.800781 66.039062 C 192.46875 66.386719 192.449219 66.9375 192.761719 67.308594 Z M 192.761719 67.308594 " fill-opacity="1" fill-rule="nonzero"/></g></g></g><g clip-path="url(#28f8653fb6)"><g clip-path="url(#e1ae3b686c)"><g clip-path="url(#20a76fea04)"><path fill="#38b6ff" d="M 205.023438 67.675781 L 213.230469 77.421875 C 213.402344 77.628906 213.652344 77.75 213.921875 77.757812 L 219.582031 77.929688 C 219.953125 77.941406 220.296875 77.730469 220.460938 77.394531 C 220.621094 77.054688 220.570312 76.652344 220.332031 76.367188 L 212.675781 67.273438 L 220.863281 58.65625 C 221.121094 58.386719 221.199219 57.988281 221.054688 57.640625 C 220.914062 57.292969 220.582031 57.0625 220.210938 57.050781 L 214.550781 56.878906 C 214.28125 56.871094 214.027344 56.980469 213.839844 57.171875 L 205.0625 66.40625 C 204.730469 66.757812 204.714844 67.308594 205.023438 67.675781 Z M 205.023438 67.675781 " fill-opacity="1" fill-rule="nonzero"/></g></g></g></svg>