<svg xmlns="http://www.w3.org/2000/svg" width="450" viewBox="0 0 337.5 375" height="500" version="1.0"><defs><clipPath id="prefix__a"><path d="M0 52.777h303.75V323H0zm0 0"/></clipPath><clipPath id="prefix__b"><path d="M7.918 142.824C3.137 156.668 0 172.406 0 187.852c0 15.445 2.688 30.304 7.469 44.003.152.29.152.583.3.875 19.122 51.434 69.622 89.317 127.887 90.047H303.75v-270H135.781C77.094 53.504 26.594 90.81 7.918 142.824"/></clipPath><clipPath id="prefix__c"><path d="M0 52.777h303.75v270H0zm0 0"/></clipPath><clipPath id="prefix__d"><path d="M7.918 142.824C3.137 156.668 0 172.406 0 187.852c0 15.445 2.688 30.304 7.469 44.003.152.29.152.583.3.875 19.122 51.434 69.622 89.317 127.887 90.047H303.75v-270H135.781C77.094 53.504 26.594 90.81 7.918 142.824"/></clipPath><clipPath id="prefix__e"><path d="M34 77h217v217H34zm0 0"/></clipPath><clipPath id="prefix__f"><path d="M243.855 71.152l13.583 215.86-215.86 13.582-13.582-215.86zm0 0"/></clipPath><clipPath id="prefix__g"><path d="M250.64 178.938c-3.745-59.528-55.042-104.75-114.57-101.004-59.527 3.746-104.75 55.039-101.004 114.57 3.746 59.527 55.04 104.75 114.567 101.004 59.531-3.746 104.75-55.04 101.008-114.57"/></clipPath><clipPath id="prefix__h"><path d="M34 77h217v217H34zm0 0"/></clipPath><clipPath id="prefix__i"><path d="M243.855 71.152l13.567 215.575-215.574 13.562L28.285 84.715zm0 0"/></clipPath><clipPath id="prefix__j"><path d="M243.855 71.152l13.758 218.621-218.62 13.758L25.233 84.906zm0 0"/></clipPath><clipPath id="prefix__k"><path d="M250.64 178.938c-3.745-59.528-55.042-104.75-114.57-101.004-59.527 3.746-104.75 55.039-101.004 114.57 3.746 59.527 55.04 104.75 114.567 101.004 59.531-3.746 104.75-55.04 101.008-114.57"/></clipPath><clipPath id="prefix__l"><path d="M177 169h34v21h-34zm0 0"/></clipPath><clipPath id="prefix__m"><path d="M208.668 169.504l1.598 18.094-31.805 2.804-1.594-18.093zm0 0"/></clipPath><clipPath id="prefix__n"><path d="M208.668 169.504l1.562 17.7-31.605 2.784-1.563-17.695zm0 0"/></clipPath><clipPath id="prefix__o"><path d="M109 209h30v38h-30zm0 0"/></clipPath><clipPath id="prefix__p"><path d="M123.04 209.813l16.382 7.843-13.785 28.793-16.383-7.844zm0 0"/></clipPath><clipPath id="prefix__q"><path d="M123.04 209.813l16.026 7.671-13.703 28.618-16.023-7.676zm0 0"/></clipPath><clipPath id="prefix__r"><path d="M117 143h77v85h-77zm0 0"/></clipPath><clipPath id="prefix__s"><path d="M82.414 167.77l69.977-48.598 42.203 60.77-69.977 48.597zm0 0"/></clipPath><clipPath id="prefix__t"><path d="M117.133 143.656l76.52 36.07-69.446 48.227-7.074-84.297"/></clipPath><clipPath id="prefix__u"><path d="M105 132h34v37h-34zm0 0"/></clipPath><clipPath id="prefix__v"><path d="M105.328 142.242l14.922-10.363 18.21 26.223-14.92 10.363zm0 0"/></clipPath><clipPath id="prefix__w"><path d="M105.328 142.242l14.594-10.137 18.098 26.063-14.59 10.133zm0 0"/></clipPath><clipPath id="prefix__x"><path d="M73 92h56v57H73zm0 0"/></clipPath><clipPath id="prefix__y"><path d="M93.035 158.824l-30.668-46.402 46.406-30.668 30.668 46.402zm0 0"/></clipPath><clipPath id="prefix__z"><path d="M77.703 135.621c8.469 12.816 25.719 16.34 38.535 7.871 12.813-8.469 16.336-25.722 7.867-38.535-8.468-12.816-25.718-16.34-38.535-7.871-12.812 8.469-16.336 25.723-7.867 38.535"/></clipPath><clipPath id="prefix__A"><path d="M73 92h56v57H73zm0 0"/></clipPath><clipPath id="prefix__B"><path d="M93.035 158.824l-30.597-46.3 46.3-30.602 30.602 46.305zm0 0"/></clipPath><clipPath id="prefix__C"><path d="M93.035 158.824l-30.597-46.3 46.3-30.602 30.602 46.305zm0 0"/></clipPath><clipPath id="prefix__D"><path d="M77.734 135.672c8.454 12.789 25.668 16.305 38.454 7.851 12.785-8.449 16.3-25.664 7.851-38.449-8.45-12.785-25.664-16.3-38.453-7.851-12.785 8.449-16.3 25.664-7.852 38.449"/></clipPath><clipPath id="prefix__E"><path d="M83 227h57v56H83zm0 0"/></clipPath><clipPath id="prefix__F"><path d="M74.402 268.367l23.723-50.312 50.309 23.722-23.72 50.309zm0 0"/></clipPath><clipPath id="prefix__G"><path d="M86.262 243.21c-6.547 13.895-.598 30.466 13.297 37.017 13.89 6.55 30.464.597 37.015-13.293 6.551-13.895.598-30.465-13.297-37.016-13.89-6.55-30.465-.598-37.015 13.293"/></clipPath><clipPath id="prefix__H"><path d="M83 227h57v56H83zm0 0"/></clipPath><clipPath id="prefix__I"><path d="M74.402 268.367l23.668-50.199 50.203 23.668-23.671 50.2zm0 0"/></clipPath><clipPath id="prefix__J"><path d="M74.402 268.367l23.668-50.199 50.203 23.668-23.671 50.2zm0 0"/></clipPath><clipPath id="prefix__K"><path d="M86.238 243.266c-6.535 13.863-.597 30.398 13.266 36.937 13.863 6.535 30.398.594 36.933-13.265 6.536-13.864.598-30.399-13.265-36.938-13.863-6.535-30.399-.594-36.934 13.266"/></clipPath><clipPath id="prefix__L"><path d="M191 149h57v57h-57zm0 0"/></clipPath><clipPath id="prefix__M"><path d="M211.54 216.29l-30.665-46.403 46.402-30.668 30.668 46.402zm0 0"/></clipPath><clipPath id="prefix__N"><path d="M196.207 193.086c8.469 12.816 25.723 16.34 38.535 7.871 12.817-8.469 16.34-25.723 7.871-38.535-8.468-12.817-25.722-16.34-38.539-7.871-12.812 8.469-16.336 25.722-7.867 38.535"/></clipPath><clipPath id="prefix__O"><path d="M191 150h57v56h-57zm0 0"/></clipPath><clipPath id="prefix__P"><path d="M211.54 216.29l-30.599-46.302 46.301-30.601 30.602 46.304zm0 0"/></clipPath><clipPath id="prefix__Q"><path d="M211.54 216.29l-30.599-46.302 46.301-30.601 30.602 46.304zm0 0"/></clipPath><clipPath id="prefix__R"><path d="M196.242 193.137c8.45 12.789 25.664 16.3 38.45 7.851 12.785-8.449 16.3-25.664 7.851-38.449-8.45-12.785-25.664-16.3-38.45-7.851-12.788 8.449-16.3 25.664-7.85 38.449"/></clipPath><clipPath id="prefix__S"><path d="M93 113h15v15H93zm0 0"/></clipPath><clipPath id="prefix__T"><path d="M91.188 118.543l11.468-7.965 7.961 11.469-11.465 7.96zm0 0"/></clipPath><clipPath id="prefix__U"><path d="M96.922 114.563a6.977 6.977 0 00-1.75 9.71 6.975 6.975 0 009.71 1.754 6.98 6.98 0 10-7.96-11.465"/></clipPath><clipPath id="prefix__V"><path d="M104 248h15v15h-15zm0 0"/></clipPath><clipPath id="prefix__W"><path d="M108.078 245.785l12.625 5.953-5.953 12.625-12.625-5.953zm0 0"/></clipPath><clipPath id="prefix__X"><path d="M114.39 248.762a6.98 6.98 0 00-9.288 3.336 6.975 6.975 0 003.335 9.289 6.976 6.976 0 009.29-3.336 6.978 6.978 0 00-3.336-9.29"/></clipPath><clipPath id="prefix__Y"><path d="M212 169h15v15h-15zm0 0"/></clipPath><clipPath id="prefix__Z"><path d="M209.586 174.973l11.469-7.961 7.96 11.465-11.464 7.96zm0 0"/></clipPath><clipPath id="prefix__aa"><path d="M215.32 170.992a6.978 6.978 0 00-1.75 9.715 6.977 6.977 0 009.711 1.75 6.979 6.979 0 10-7.96-11.465"/></clipPath><clipPath id="prefix__ab"><path d="M150 115h43v26h-43zm0 0"/></clipPath><clipPath id="prefix__ac"><path d="M192.71 140.5l-44.355-16.29 4.657-12.67 44.351 16.284zm0 0"/></clipPath><clipPath id="prefix__ad"><path d="M192.71 140.5l-44.355-16.29 4.657-12.67 44.351 16.284zm0 0"/></clipPath><clipPath id="prefix__ae"><path d="M192.71 140.5l-44.355-16.29 4.657-12.67 44.351 16.284zm0 0"/></clipPath><clipPath id="prefix__af"><path d="M187 132h2v1h-2zm0 0"/></clipPath><clipPath id="prefix__ag"><path d="M192.71 140.5l-44.355-16.29 4.657-12.67 44.351 16.284zm0 0"/></clipPath><clipPath id="prefix__ah"><path d="M192.71 140.5l-44.355-16.29 4.657-12.67 44.351 16.284zm0 0"/></clipPath><clipPath id="prefix__ai"><path d="M192.71 140.5l-44.355-16.29 4.657-12.67 44.351 16.284zm0 0"/></clipPath><clipPath id="prefix__aj"><path d="M161 223h41v27h-41zm0 0"/></clipPath><clipPath id="prefix__ak"><path d="M160.293 246.813l38.848-26.895 7.683 11.098-38.847 26.894zm0 0"/></clipPath><clipPath id="prefix__al"><path d="M160.293 246.813l38.848-26.895 7.683 11.098-38.847 26.894zm0 0"/></clipPath><clipPath id="prefix__am"><path d="M160.293 246.813l38.848-26.895 7.683 11.098-38.847 26.894zm0 0"/></clipPath><clipPath id="prefix__an"><path d="M169 247h1v1h-1zm0 0"/></clipPath><clipPath id="prefix__ao"><path d="M160.293 246.813l38.848-26.895 7.683 11.098-38.847 26.894zm0 0"/></clipPath><clipPath id="prefix__ap"><path d="M160.293 246.813l38.848-26.895 7.683 11.098-38.847 26.894zm0 0"/></clipPath><clipPath id="prefix__aq"><path d="M160.293 246.813l38.848-26.895 7.683 11.098-38.847 26.894zm0 0"/></clipPath><clipPath id="prefix__ar"><path d="M71 168h14v47H71zm0 0"/></clipPath><clipPath id="prefix__as"><path d="M84.746 167.977l-.043 47.25-13.5-.016.043-47.25zm0 0"/></clipPath><clipPath id="prefix__at"><path d="M84.746 167.977l-.043 47.25-13.5-.016.043-47.25zm0 0"/></clipPath><clipPath id="prefix__au"><path d="M84.746 167.977l-.043 47.25-13.5-.016.043-47.25zm0 0"/></clipPath><clipPath id="prefix__av"><path d="M78 175h1v1h-1zm0 0"/></clipPath><clipPath id="prefix__aw"><path d="M84.746 167.977l-.043 47.25-13.5-.016.043-47.25zm0 0"/></clipPath><clipPath id="prefix__ax"><path d="M84.746 167.977l-.043 47.25-13.5-.016.043-47.25zm0 0"/></clipPath><clipPath id="prefix__ay"><path d="M84.746 167.977l-.043 47.25-13.5-.016.043-47.25zm0 0"/></clipPath><clipPath id="prefix__az"><path d="M278 297.129h17v21h-17zm0 0"/></clipPath><clipPath id="prefix__aA"><path d="M266.625 297.129H283v21h-16.375zm0 0"/></clipPath><clipPath id="prefix__aB"><path d="M241 297.129h17v21h-17zm0 0"/></clipPath><clipPath id="prefix__aC"><path d="M229.5 297.129H246v21h-16.5zm0 0"/></clipPath><clipPath id="prefix__aD"><path d="M204 297.129h16.875v21H204zm0 0"/></clipPath><clipPath id="prefix__aE"><path d="M192.375 297.129H209v21h-16.625zm0 0"/></clipPath><clipPath id="prefix__aF"><path d="M167 297.129h16.75v21H167zm0 0"/></clipPath><clipPath id="prefix__aG"><path d="M155.25 297.129H172v21h-16.75zm0 0"/></clipPath><clipPath id="prefix__aH"><path d="M130 297h17v22h-17zm0 0"/></clipPath><clipPath id="prefix__aI"><path d="M117.945 297.379l28.496-.504.371 20.996-28.496.504zm0 0"/></clipPath><clipPath id="prefix__aJ"><path d="M117.945 297.379l28.496-.504.371 20.996-28.496.504zm0 0"/></clipPath><clipPath id="prefix__aK"><path d="M117 297h18v22h-18zm0 0"/></clipPath><clipPath id="prefix__aL"><path d="M117.945 297.379l28.496-.504.371 20.996-28.496.504zm0 0"/></clipPath><clipPath id="prefix__aM"><path d="M117.945 297.379l28.496-.504.371 20.996-28.496.504zm0 0"/></clipPath><clipPath id="prefix__aN"><path d="M80 284h20v22H80zm0 0"/></clipPath><clipPath id="prefix__aO"><path d="M81.105 277.734l23.989 15.387-11.336 17.676-23.992-15.387zm0 0"/></clipPath><clipPath id="prefix__aP"><path d="M81.105 277.734l23.989 15.387-11.336 17.676-23.992-15.387zm0 0"/></clipPath><clipPath id="prefix__aQ"><path d="M70 278h20v22H70zm0 0"/></clipPath><clipPath id="prefix__aR"><path d="M81.105 277.734l23.989 15.387-11.336 17.676-23.992-15.387zm0 0"/></clipPath><clipPath id="prefix__aS"><path d="M81.105 277.734l23.989 15.387-11.336 17.676-23.992-15.387zm0 0"/></clipPath><clipPath id="prefix__aT"><path d="M42 264h20v21H42zm0 0"/></clipPath><clipPath id="prefix__aU"><path d="M48.059 255.742l20.527 19.77-14.566 15.125-20.528-19.77zm0 0"/></clipPath><clipPath id="prefix__aV"><path d="M48.059 255.742l20.527 19.77-14.566 15.125-20.528-19.77zm0 0"/></clipPath><clipPath id="prefix__aW"><path d="M33 256h21v20H33zm0 0"/></clipPath><clipPath id="prefix__aX"><path d="M48.059 255.742l20.527 19.77-14.566 15.125-20.528-19.77zm0 0"/></clipPath><clipPath id="prefix__aY"><path d="M48.059 255.742l20.527 19.77-14.566 15.125-20.528-19.77zm0 0"/></clipPath><clipPath id="prefix__aZ"><path d="M19 232h22v19H19zm0 0"/></clipPath><clipPath id="prefix__ba"><path d="M31.219 221.023l14.32 24.641-18.152 10.555-14.325-24.64zm0 0"/></clipPath><clipPath id="prefix__bb"><path d="M31.219 221.023l14.32 24.641-18.152 10.555-14.325-24.64zm0 0"/></clipPath><clipPath id="prefix__bc"><path d="M13 221h22v20H13zm0 0"/></clipPath><clipPath id="prefix__bd"><path d="M31.219 221.023l14.32 24.641-18.152 10.555-14.325-24.64zm0 0"/></clipPath><clipPath id="prefix__be"><path d="M31.219 221.023l14.32 24.641-18.152 10.555-14.325-24.64zm0 0"/></clipPath><clipPath id="prefix__bf"><path d="M8.879 184h21v16.438h-21zm0 0"/></clipPath><clipPath id="prefix__bg"><path d="M8.879 171.938h21V188h-21zm0 0"/></clipPath><clipPath id="prefix__bh"><path d="M18 126h21v20H18zm0 0"/></clipPath><clipPath id="prefix__bi"><path d="M46.379 127.648l-16.234 23.426-17.262-11.965 16.234-23.422zm0 0"/></clipPath><clipPath id="prefix__bj"><path d="M46.379 127.648l-16.234 23.426-17.262-11.965 16.234-23.422zm0 0"/></clipPath><clipPath id="prefix__bk"><path d="M25 116h21v20H25zm0 0"/></clipPath><clipPath id="prefix__bl"><path d="M46.379 127.648l-16.234 23.426-17.262-11.965 16.234-23.422zm0 0"/></clipPath><clipPath id="prefix__bm"><path d="M46.379 127.648l-16.234 23.426-17.262-11.965 16.234-23.422zm0 0"/></clipPath><clipPath id="prefix__bn"><path d="M44 90h20v21H44zm0 0"/></clipPath><clipPath id="prefix__bo"><path d="M72.52 97.336L51.426 116.5l-14.121-15.543 21.093-19.164zm0 0"/></clipPath><clipPath id="prefix__bp"><path d="M72.52 97.336L51.426 116.5l-14.121-15.543 21.093-19.164zm0 0"/></clipPath><clipPath id="prefix__bq"><path d="M53 82h20v20H53zm0 0"/></clipPath><clipPath id="prefix__br"><path d="M72.52 97.336L51.426 116.5l-14.121-15.543 21.093-19.164zm0 0"/></clipPath><clipPath id="prefix__bs"><path d="M72.52 97.336L51.426 116.5l-14.121-15.543 21.093-19.164zm0 0"/></clipPath><clipPath id="prefix__bt"><path d="M74 67h20v23H74zm0 0"/></clipPath><clipPath id="prefix__bu"><path d="M104.922 81.059L79.344 93.633l-9.266-18.848 25.578-12.57zm0 0"/></clipPath><clipPath id="prefix__bv"><path d="M104.922 81.059L79.344 93.633l-9.266-18.848 25.578-12.57zm0 0"/></clipPath><clipPath id="prefix__bw"><path d="M85 62h20v23H85zm0 0"/></clipPath><clipPath id="prefix__bx"><path d="M104.922 81.059L79.344 93.633l-9.266-18.848 25.578-12.57zm0 0"/></clipPath><clipPath id="prefix__by"><path d="M104.922 81.059L79.344 93.633l-9.266-18.848 25.578-12.57zm0 0"/></clipPath><clipPath id="prefix__bz"><path d="M117.785 57.016H135V78h-17.215zm0 0"/></clipPath><clipPath id="prefix__bA"><path d="M130 57.016h16.285V78H130zm0 0"/></clipPath><clipPath id="prefix__bB"><path d="M154 56h17v22h-17zm0 0"/></clipPath><clipPath id="prefix__bC"><path d="M182.512 78.012l-28.489-.856.633-20.992 28.489.86zm0 0"/></clipPath><clipPath id="prefix__bD"><path d="M182.512 78.012l-28.489-.856.633-20.992 28.489.86zm0 0"/></clipPath><clipPath id="prefix__bE"><path d="M166 56h18v22h-18zm0 0"/></clipPath><clipPath id="prefix__bF"><path d="M182.512 78.012l-28.489-.856.633-20.992 28.489.86zm0 0"/></clipPath><clipPath id="prefix__bG"><path d="M182.512 78.012l-28.489-.856.633-20.992 28.489.86zm0 0"/></clipPath><clipPath id="prefix__bH"><path d="M266 56h17v22h-17zm0 0"/></clipPath><clipPath id="prefix__bI"><path d="M294.164 78.012l-28.488-.856.633-20.992 28.488.86zm0 0"/></clipPath><clipPath id="prefix__bJ"><path d="M294.164 78.012l-28.488-.856.633-20.992 28.488.86zm0 0"/></clipPath><clipPath id="prefix__bK"><path d="M278 56h17v22h-17zm0 0"/></clipPath><clipPath id="prefix__bL"><path d="M294.164 78.012l-28.488-.856.633-20.992 28.488.86zm0 0"/></clipPath><clipPath id="prefix__bM"><path d="M294.164 78.012l-28.488-.856.633-20.992 28.488.86zm0 0"/></clipPath><clipPath id="prefix__bN"><path d="M229 56h17v22h-17zm0 0"/></clipPath><clipPath id="prefix__bO"><path d="M257.04 78.012l-28.49-.856.634-20.992 28.488.86zm0 0"/></clipPath><clipPath id="prefix__bP"><path d="M257.04 78.012l-28.49-.856.634-20.992 28.488.86zm0 0"/></clipPath><clipPath id="prefix__bQ"><path d="M241 56h17v22h-17zm0 0"/></clipPath><clipPath id="prefix__bR"><path d="M257.04 78.012l-28.49-.856.634-20.992 28.488.86zm0 0"/></clipPath><clipPath id="prefix__bS"><path d="M257.04 78.012l-28.49-.856.634-20.992 28.488.86zm0 0"/></clipPath><clipPath id="prefix__bT"><path d="M192 56h17v22h-17zm0 0"/></clipPath><clipPath id="prefix__bU"><path d="M220.523 78.012l-28.488-.856.633-20.992 28.488.86zm0 0"/></clipPath><clipPath id="prefix__bV"><path d="M220.523 78.012l-28.488-.856.633-20.992 28.488.86zm0 0"/></clipPath><clipPath id="prefix__bW"><path d="M204 56h18v22h-18zm0 0"/></clipPath><clipPath id="prefix__bX"><path d="M220.523 78.012l-28.488-.856.633-20.992 28.488.86zm0 0"/></clipPath><clipPath id="prefix__bY"><path d="M220.523 78.012l-28.488-.856.633-20.992 28.488.86zm0 0"/></clipPath></defs><g clip-path="url(#prefix__a)"><g clip-path="url(#prefix__b)"><path fill="#737373" d="M303.75 52.777V323.04H-.133V52.777zm0 0"/></g></g><g clip-path="url(#prefix__c)"><g clip-path="url(#prefix__d)"><path fill="none" d="M7.918 142.824C3.137 156.668 0 172.406 0 187.852c0 15.445 2.687 30.304 7.469 44.003.152.29.152.583.3.875 19.122 51.434 69.622 89.317 127.887 90.047H303.75v-270H135.781C77.094 53.504 26.594 90.81 7.918 142.824" stroke="#000" stroke-width="3"/></g></g><g clip-path="url(#prefix__e)"><g clip-path="url(#prefix__f)"><g clip-path="url(#prefix__g)"><path fill="#a6a6a6" d="M243.855 71.152l13.547 215.309-215.308 13.547L28.547 84.699zm0 0"/></g></g></g><g clip-path="url(#prefix__h)"><g clip-path="url(#prefix__i)"><g clip-path="url(#prefix__j)"><g clip-path="url(#prefix__k)"><path fill="none" d="M250.64 178.938c-3.745-59.528-55.042-104.75-114.57-101.004-59.527 3.746-104.75 55.039-101.004 114.57 3.746 59.527 55.04 104.75 114.567 101.004 59.531-3.746 104.75-55.04 101.008-114.57" stroke="#000" stroke-width="6"/></g></g></g></g><g clip-path="url(#prefix__l)"><g clip-path="url(#prefix__m)"><g clip-path="url(#prefix__n)"><path fill="#ffde59" d="M208.668 169.504l1.547 17.543-31.8 2.808-1.548-17.546zm0 0"/></g></g></g><g clip-path="url(#prefix__o)"><g clip-path="url(#prefix__p)"><g clip-path="url(#prefix__q)"><path fill="#ffde59" d="M123.04 209.813l15.886 7.605-13.785 28.793-15.887-7.606zm0 0"/></g></g></g><g clip-path="url(#prefix__r)"><g clip-path="url(#prefix__s)"><g clip-path="url(#prefix__t)"><path fill="#ffde59" d="M82.414 167.77l69.363-48.172 41.778 60.156-69.364 48.172zm0 0"/></g></g></g><g clip-path="url(#prefix__u)"><g clip-path="url(#prefix__v)"><g clip-path="url(#prefix__w)"><path fill="#ffde59" d="M105.328 142.242l14.469-10.047 18.21 26.223-14.468 10.047zm0 0"/></g></g></g><g clip-path="url(#prefix__x)"><g clip-path="url(#prefix__y)"><g clip-path="url(#prefix__z)"><path fill="#ffde59" d="M93.035 158.824l-30.668-46.402 46.406-30.668 30.668 46.402zm0 0"/></g></g></g><g clip-path="url(#prefix__A)"><g clip-path="url(#prefix__B)"><g clip-path="url(#prefix__C)"><g clip-path="url(#prefix__D)"><path d="M80.234 134.023c3.063 4.633 7.204 7.868 12.43 9.704l-1.984 5.648c-6.493-2.281-11.64-6.297-15.442-12.05zm14.996 10.454c5.41 1.265 10.637.78 15.684-1.465l2.434 5.472c-6.274 2.79-12.77 3.395-19.485 1.82zm18.06-2.676c.42-.246.839-.504 1.245-.774 4.195-2.77 7.258-6.464 9.188-11.082l5.523 2.309c-2.398 5.738-6.203 10.328-11.41 13.77-.504.331-1.02.652-1.54.953zm11.327-14.375c1.582-5.332 1.399-10.582-.547-15.754l5.602-2.11c2.422 6.426 2.648 12.946.687 19.563zM123 109.242a24.66 24.66 0 00-1.46-2.52c-2.485-3.761-5.743-6.624-9.77-8.59l2.625-5.382c5.007 2.445 9.054 6 12.14 10.672a30.725 30.725 0 011.813 3.121zm-13.691-12.148c-5.227-1.887-10.477-2.012-15.754-.375l-1.774-5.715c6.551-2.035 13.07-1.883 19.559.457zm-18.262.558a24.951 24.951 0 00-3.809 2.067c-3.336 2.207-5.98 5.039-7.925 8.5l-5.22-2.938c2.423-4.3 5.7-7.82 9.844-10.554a30.74 30.74 0 014.727-2.567zM78.133 110.61c-2.184 5.106-2.613 10.344-1.285 15.711l-5.813 1.438c-1.648-6.668-1.117-13.168 1.594-19.504zm-.504 18.27a24.877 24.877 0 002.605 5.144l-4.996 3.301a30.846 30.846 0 01-3.23-6.387zm0 0"/></g></g></g></g><g clip-path="url(#prefix__E)"><g clip-path="url(#prefix__F)"><g clip-path="url(#prefix__G)"><path fill="#ffde59" d="M74.402 268.367l23.723-50.312 50.309 23.722-23.72 50.309zm0 0"/></g></g></g><g clip-path="url(#prefix__H)"><g clip-path="url(#prefix__I)"><g clip-path="url(#prefix__J)"><g clip-path="url(#prefix__K)"><path d="M88.945 244.543c-2.367 5.023-2.98 10.246-1.836 15.664l-5.855 1.238c-1.426-6.73-.664-13.215 2.277-19.453zm-1.14 18.246c1.726 5.281 4.86 9.496 9.398 12.64l-3.414 4.923c-5.64-3.91-9.531-9.145-11.676-15.704zm11.668 14.043c.43.23.863.453 1.308.66 4.547 2.145 9.293 2.844 14.239 2.094l.898 5.918c-6.148.933-12.047.066-17.691-2.594a31.379 31.379 0 01-1.618-.82zm18.168 2.211c5.379-1.418 9.77-4.305 13.175-8.652l4.711 3.691c-4.23 5.406-9.683 8.988-16.359 10.75zm14.699-10.828a25.15 25.15 0 001.39-2.555c1.922-4.082 2.676-8.351 2.266-12.816l5.961-.551c.512 5.547-.422 10.855-2.812 15.918a31.343 31.343 0 01-1.723 3.168zm3.265-18.012c-1.105-5.445-3.726-9.996-7.863-13.652l3.961-4.488c5.145 4.542 8.402 10.19 9.77 16.949zm-9.964-15.312a24.792 24.792 0 00-3.746-2.18c-3.618-1.707-7.41-2.492-11.375-2.36l-.204-5.984c4.93-.168 9.641.809 14.133 2.926a30.73 30.73 0 014.645 2.707zm-17.782-4.305c-5.496.785-10.195 3.14-14.09 7.062l-4.25-4.218c4.84-4.871 10.672-7.793 17.497-8.77zm-15.87 9.059a24.874 24.874 0 00-3.044 4.898l-5.414-2.55a30.601 30.601 0 013.778-6.079zm0 0"/></g></g></g></g><g clip-path="url(#prefix__L)"><g clip-path="url(#prefix__M)"><g clip-path="url(#prefix__N)"><path fill="#ffde59" d="M211.54 216.29l-30.665-46.403 46.402-30.668 30.668 46.402zm0 0"/></g></g></g><g clip-path="url(#prefix__O)"><g clip-path="url(#prefix__P)"><g clip-path="url(#prefix__Q)"><g clip-path="url(#prefix__R)"><path d="M198.738 191.488c3.063 4.633 7.207 7.867 12.43 9.703l-1.984 5.649c-6.493-2.281-11.637-6.297-15.442-12.05zm14.996 10.453c5.41 1.266 10.641.782 15.688-1.464l2.43 5.472c-6.274 2.79-12.766 3.395-19.485 1.82zm18.063-2.675c.422-.246.836-.504 1.246-.774 4.191-2.773 7.254-6.465 9.184-11.082l5.523 2.309c-2.398 5.738-6.2 10.328-11.406 13.77-.508.331-1.02.652-1.543.952zm11.328-14.375c1.578-5.332 1.398-10.586-.55-15.754l5.605-2.11c2.418 6.426 2.648 12.946.683 19.563zm-1.617-18.184a25.736 25.736 0 00-1.461-2.52c-2.488-3.761-5.746-6.625-9.774-8.59l2.625-5.382c5.008 2.445 9.055 6 12.145 10.672a31.44 31.44 0 011.809 3.12zm-13.696-12.152c-5.226-1.883-10.476-2.008-15.75-.371l-1.777-5.715c6.555-2.035 13.074-1.883 19.559.457zm-18.257.562a25.176 25.176 0 00-3.813 2.067c-3.336 2.207-5.976 5.039-7.922 8.5l-5.218-2.938c2.418-4.3 5.699-7.82 9.84-10.555a30.923 30.923 0 014.726-2.566zm-12.914 12.957c-2.188 5.106-2.614 10.344-1.29 15.711l-5.812 1.438c-1.648-6.668-1.117-13.168 1.598-19.504zm-.504 18.266a24.794 24.794 0 002.601 5.148l-4.996 3.301a30.64 30.64 0 01-3.226-6.387zm0 0"/></g></g></g></g><g clip-path="url(#prefix__S)"><g clip-path="url(#prefix__T)"><g clip-path="url(#prefix__U)"><path fill="#707070" d="M91.188 118.543l11.468-7.965 7.961 11.469-11.465 7.96zm0 0"/></g></g></g><g clip-path="url(#prefix__V)"><g clip-path="url(#prefix__W)"><g clip-path="url(#prefix__X)"><path fill="#707070" d="M108.078 245.785l12.625 5.953-5.953 12.625-12.625-5.953zm0 0"/></g></g></g><g clip-path="url(#prefix__Y)"><g clip-path="url(#prefix__Z)"><g clip-path="url(#prefix__aa)"><path fill="#707070" d="M209.586 174.973l11.469-7.961 7.96 11.465-11.464 7.96zm0 0"/></g></g></g><g clip-path="url(#prefix__ab)"><g clip-path="url(#prefix__ac)"><g clip-path="url(#prefix__ad)"><g clip-path="url(#prefix__ae)"><path fill="#fff" d="M192.133 139.867a.108.108 0 00.05-.097c.126-.07.301.082.403-.094.41-.192.41-.54.344-.91-.188-1.032-.535-2.012-.946-2.973-1.468-3.43-3.586-6.39-6.246-9-4.644-4.55-10.258-7.008-16.597-7.941-2.938-.438-5.899-.344-8.86-.114-1.738.137-3.465.38-5.195.578-.063.032-.117.07-.18.102-.07-.02-.16-.027-.21-.074v-.004c-.04-.035.015-.094.077-.098.5-.48 1.079-.836 1.676-1.16.41-.223.793-.469 1.094-.828.887-.473 1.184-1.219.867-2.078-1.992.039-3.566 1.047-5.086 2.203-.566.43-1.16.82-1.746 1.219-1.402.953-1.148.894-1.07 2.277.015.309.101.61.219.898.043.106.093.2.207.243.039.351.312.457.586.543.812.265 1.625.52 2.437.773.133.156.316.191.504.219.129.16.312.191.496.234.074.13.215.14.328.203 1.54.828 2.965 1.817 4.215 3.051.094.094.195.176.293.266.113.105.246.226.402.136.118-.066.16-.254.118-.359-.188-.48-.051-.996-.188-1.477-.063-.21-.207-.382-.355-.55-1.137-1.313-2.473-2.387-3.922-3.32-.13-.083-.278-.15-.383-.258-.125-.125-.035-.239.082-.325.156.082.297.055.426-.058.156.043.312.074.449-.059.031.031.058.028.086-.008.148.047.293.067.426-.047.109.008.214.036.324.024 1.183-.098 2.36-.215 3.543-.297 1.074-.078 2.148-.121 3.219-.18.285.02.57.051.855.059 2.762.098 5.469.527 8.102 1.367.941.3 1.87.629 2.804.945.137.165.332.192.531.22.13.16.313.19.5.222.11.16.293.176.461.219.063.113.168.148.29.148.027.04.062.055.109.043.074.125.215.145.324.207.547.316 1.149.531 1.656.914.07-.027.246.008.075-.156-.118-.11-.11-.156-.059-.176.043-.02.121-.02.176-.023 1.699 1.05 3.246 2.296 4.715 3.648.12.14.25.277.375.414.742.828 1.488 1.652 2.23 2.477a.17.17 0 00.05.11c.016.019.04.03.067.042a.163.163 0 00.117.148c.004.079.043.125.114.149.004.078.043.125.117.148 0 .078.039.13.113.153-.004.078.035.125.11.148v.004c0 .074.035.125.109.148.031.051.066.102.105.153l.004.004c0 .078.032.125.106.148l.004.008c0 .074.03.125.105.148l.004.004v0c-.004.078.031.13.106.153v.004c-.004.078.03.128.105.152 0 .078.035.133.105.156.297.5.586.996.883 1.492.235.211.34.504.48.774a.241.241 0 01-.07.07.242.242 0 01-.14.031c.082.215.152.438.332.598a.441.441 0 01.137.168c-.047-.055-.09-.113-.137-.168.012.074.035.145.113.16-.02.117.024.207.11.281-.016.075.003.13.078.16.004.079.027.145.101.18-.004.04.004.074.035.102.047.222.137.426.274.605.043.157.078.317.195.438-.012.11.05.191.106.277.16.617.43 1.2.476 1.879.207-.121.438-.004.555-.215zm-35.602-18.969h.004v.008c-.004-.004-.004-.008-.004-.008zm32.145 11.586l-.02-.043c.004.004.004.008.008.012.008.008.016.02.024.031h-.012zm-1.5-1.425s.004 0 .004-.004c.004 0 .007-.004.011-.008l.016-.008-.027.02c-.004 0 0 0 0 .004 0-.004-.004-.004-.004-.004zm1.57 1.425h-.055a.217.217 0 00-.023-.03c.02.019.043.03.078.03zm-.125-.101a.344.344 0 00-.023-.04v-.003l.023.043zm3.598 6.277c.004 0 .004.004.008.004v.008c-.004-.004-.004-.008-.008-.012zm-.07-.273v-.008c-.004.004 0 .008 0 .008zm-1.82-2.168c.01-.004.026-.004.042-.012-.004.012-.004.02-.004.027a.27.27 0 00-.039-.015zm.16.472c.011.02.015.047.015.075a.415.415 0 00-.016-.075zm0 0"/></g></g></g></g><g clip-path="url(#prefix__af)"><g clip-path="url(#prefix__ag)"><g clip-path="url(#prefix__ah)"><g clip-path="url(#prefix__ai)"><path fill="#fff" d="M188.074 132.262c-.035-.051-.07-.098-.101-.149-.004.078.03.13.101.149zm0 0"/></g></g></g></g><g clip-path="url(#prefix__aj)"><g clip-path="url(#prefix__ak)"><g clip-path="url(#prefix__al)"><g clip-path="url(#prefix__am)"><path fill="#fff" d="M161.14 246.703c0 .04.016.074.051.098-.011.14-.242.195-.156.383-.078.445.207.644.547.804.953.442 1.957.719 2.977.938 3.652.773 7.289.746 10.953.07 6.394-1.176 11.636-4.355 16.05-8.996 2.047-2.152 3.676-4.629 5.188-7.184.89-1.5 1.688-3.05 2.523-4.582.004-.066.008-.132.016-.203.059-.047.117-.117.184-.129h.004c.05-.007.066.067.035.125.105.68.062 1.36-.016 2.036-.055.464-.074.917.047 1.37-.125.997.312 1.669 1.2 1.903 1.112-1.652 1.195-3.52 1.128-5.426-.027-.71-.004-1.418.004-2.125.031-1.7-.07-1.457-1.242-2.191a2.836 2.836 0 00-.863-.336c-.114-.024-.215-.04-.317.031-.308-.172-.55-.008-.781.164-.684.512-1.36 1.031-2.035 1.547-.203.02-.34.148-.469.29-.203.01-.34.144-.477.269-.148-.012-.242.093-.355.152-1.563.781-3.191 1.375-4.918 1.687-.133.024-.258.059-.387.09-.156.032-.328.067-.347.246-.012.137.117.278.23.305.496.125.844.535 1.313.695.21.075.433.055.656.032 1.726-.176 3.37-.653 4.972-1.297.145-.059.282-.14.43-.168.176-.031.215.11.219.254-.156.082-.219.21-.195.382-.13.106-.243.215-.211.403-.047.008-.059.031-.047.074-.121.094-.223.203-.203.375-.07.086-.153.16-.207.254-.602 1.02-1.184 2.05-1.797 3.066-.555.922-1.137 1.825-1.707 2.735-.18.222-.367.437-.54.664-1.667 2.203-3.577 4.172-5.78 5.84-.786.597-1.59 1.168-2.387 1.75-.215.02-.348.164-.485.304-.207.016-.336.149-.468.286-.196-.004-.313.136-.446.25-.129-.012-.219.054-.289.152a.098.098 0 00-.097.062c-.145-.011-.239.094-.356.149-.574.265-1.094.633-1.703.828-.016.074-.149.195.086.148.16-.03.191 0 .18.055-.012.043-.055.11-.082.16-1.84.781-3.75 1.328-5.7 1.75a26.83 26.83 0 01-.554.067c-1.102.136-2.207.27-3.309.402a.16.16 0 00-.117-.024.178.178 0 00-.074.032.165.165 0 00-.188.011c-.066-.042-.129-.039-.187.008-.067-.043-.13-.039-.188.008-.066-.043-.129-.043-.187.004-.067-.043-.13-.043-.188.008l-.004-.004c-.062-.043-.125-.043-.183.004h-.004a1.44 1.44 0 00-.184 0h-.004c-.062-.047-.12-.047-.183 0h-.008c-.059-.047-.121-.047-.184 0h-.004-.004.004c-.062-.047-.125-.047-.183 0h-.004c-.063-.051-.125-.051-.184-.004h-.004a.147.147 0 00-.187-.004l-1.727-.14c-.308.07-.61-.012-.91-.051-.016-.032-.016-.067-.016-.098a.232.232 0 01.055-.133c-.226-.055-.445-.125-.68-.074a.403.403 0 01-.214.02c.07-.008.14-.012.214-.02-.07-.031-.136-.05-.199.004-.082-.082-.18-.098-.289-.074-.054-.055-.113-.07-.18-.028-.066-.039-.128-.062-.203-.023-.03-.024-.062-.035-.101-.028-.211-.09-.43-.132-.656-.125-.153-.054-.301-.117-.47-.09-.081-.07-.187-.07-.284-.074-.598-.226-1.23-.336-1.813-.691-.02.238-.25.36-.144.578zm36.005-18.195l-.004.004h0c0-.004 0-.004-.004-.004h.008zm-27.977 19.617c.016.004.031.004.047.008H169.164s0-.004.004-.008zm2.031-.406v.019l-.004.016.004-.031-.004-.004h.004zm-2.07.46l.031-.042h.04a.113.113 0 00-.071.043zm.156-.038h.043c0 .004.004 0 .004.004-.016-.004-.031-.004-.047-.004zm-7.207-.672h-.008c-.004 0-.004-.004-.004-.004.004 0 .004 0 .012.004zm.266.097s.004.004.008.004c-.004-.004-.008-.004-.008-.004zm2.82-.238c-.008.008-.012.024-.016.04-.007-.009-.011-.013-.02-.02.013-.008.024-.016.036-.02zm-.48-.144a.11.11 0 01-.067-.028c.024.012.043.024.067.028zm0 0"/></g></g></g></g><g clip-path="url(#prefix__an)"><g clip-path="url(#prefix__ao)"><g clip-path="url(#prefix__ap)"><g clip-path="url(#prefix__aq)"><path fill="#fff" d="M169.695 247.762h.184c-.063-.047-.125-.047-.184 0zm0 0"/></g></g></g></g><g clip-path="url(#prefix__ar)"><g clip-path="url(#prefix__as)"><g clip-path="url(#prefix__at)"><g clip-path="url(#prefix__au)"><path fill="#fff" d="M84.352 168.734a.11.11 0 00-.11-.011c-.11-.094-.023-.313-.226-.348-.32-.32-.649-.2-.973-.012-.906.532-1.703 1.2-2.465 1.914-2.719 2.559-4.77 5.563-6.305 8.957-2.675 5.926-3.054 12.043-1.753 18.317.601 2.91 1.707 5.66 2.94 8.36.728 1.585 1.548 3.12 2.33 4.679.054.047.105.086.16.133.003.074.03.16 0 .222v.004c-.024.047-.095.016-.122-.043-.621-.3-1.152-.722-1.664-1.172-.352-.308-.715-.582-1.156-.742-.746-.672-1.547-.695-2.246-.101.722 1.859 2.207 2.992 3.816 4.02.598.382 1.168.804 1.742 1.218 1.38.992 1.239.77 2.508.226.285-.125.54-.308.77-.52.082-.073.156-.155.156-.273.316-.16.32-.453.308-.738-.03-.851-.074-1.703-.109-2.554.098-.176.067-.364.027-.547.11-.176.075-.364.051-.551.094-.11.059-.25.078-.379.246-1.727.688-3.402 1.414-5 .059-.121.102-.246.153-.367.058-.149.129-.313-.012-.426-.102-.09-.293-.063-.379.012-.387.34-.918.39-1.32.683-.18.133-.29.325-.399.524-.84 1.52-1.386 3.14-1.765 4.824-.035.152-.047.312-.11.45-.074.16-.21.112-.336.034.024-.175-.046-.3-.203-.379-.011-.164-.035-.32-.207-.402.02-.043.008-.066-.035-.082-.008-.152-.039-.297-.191-.383-.031-.105-.043-.215-.09-.312-.496-1.074-1.012-2.14-1.5-3.223-.442-.98-.852-1.976-1.274-2.965-.078-.273-.144-.55-.238-.82-.855-2.625-1.383-5.316-1.5-8.078-.043-.985-.055-1.973-.078-2.957.106-.188.063-.38.023-.574.11-.176.07-.36.036-.547.113-.16.066-.336.047-.508.085-.098.082-.211.039-.324.03-.04.03-.075.004-.118.093-.109.062-.25.082-.375.109-.62.105-1.261.293-1.87-.055-.055-.079-.235-.172-.012-.067.144-.11.152-.149.113-.031-.035-.055-.106-.082-.16.406-1.953 1.043-3.836 1.809-5.68l.258-.492 1.558-2.95a.161.161 0 00.086-.081.181.181 0 00.016-.082c.07-.032.101-.086.097-.157.075-.03.106-.086.102-.16.07-.027.105-.082.102-.16.07-.027.105-.078.101-.156.074-.028.11-.078.102-.156h.004c.07-.028.105-.079.101-.153l.004-.004c.035-.047.07-.097.102-.152l.003-.004c.075-.023.11-.074.106-.148l.004-.008c.07-.024.11-.07.105-.149l.004-.007c.074-.02.11-.07.106-.149v-.004c.074-.023.11-.074.105-.148l.004-.004c.074-.024.11-.074.11-.152.367-.446.734-.891 1.101-1.34.117-.293.355-.493.559-.72a.327.327 0 01.09.048.21.21 0 01.078.117c.171-.152.355-.293.449-.516a.38.38 0 01.105-.183c-.035.058-.07.12-.105.183.062-.039.12-.082.11-.164.112-.02.183-.093.226-.199.074-.012.12-.047.125-.129.07-.031.125-.07.133-.152.035-.012.066-.031.082-.07.195-.122.351-.274.476-.465.133-.094.27-.184.34-.336.105-.028.164-.114.227-.192.523-.363.976-.82 1.597-1.097-.183-.153-.152-.407-.39-.446zm-5.575 39.953v-.003 0h.008c-.004.004-.004.004-.008.004zm-.172-34.167a.119.119 0 01-.03.03c.003 0 .003-.003.007-.007a.085.085 0 01.02-.031s.003.004.003.008zm-.82 1.898h-.004c-.004-.004-.008-.004-.011-.008l-.012-.015.023.023c.004 0 .004-.004.004-.004v.004zm.797-1.961a.271.271 0 01.02.05.085.085 0 00-.02.032.1.1 0 000-.082zm-.055.148c-.007.012-.015.028-.023.036-.004 0-.004.004-.004.004l.027-.04zm4.66-5.539l.004-.004c.004 0 .004-.003.008-.003-.004.004-.008.004-.011.007zm-.23.164c-.004 0-.008 0-.008.004.004 0 .008-.004.008-.004zm-1.414 2.458a.122.122 0 00-.02-.04l.024-.003c0 .011 0 .027-.004.042zm.394-.313a.107.107 0 01.063-.043.149.149 0 00-.063.043zm0 0"/></g></g></g></g><g clip-path="url(#prefix__av)"><g clip-path="url(#prefix__aw)"><g clip-path="url(#prefix__ax)"><g clip-path="url(#prefix__ay)"><path fill="#fff" d="M78.605 175.16c-.035.05-.066.102-.105.149.078-.024.11-.075.105-.149zm0 0"/></g></g></g></g><path transform="matrix(.74987 .00605 -.00605 .74998 136.49 77.868)" fill="none" d="M-.002 1.999L223.036 2" stroke="#000" stroke-width="4"/><path transform="matrix(.75062 -.00364 .00364 .75 135.126 291.168)" fill="none" d="M0 2l224.814.002" stroke="#000" stroke-width="4"/><g clip-path="url(#prefix__az)"><path fill="#38b6ff" d="M294.695 306.992l-8.492-9.492a.946.946 0 00-.703-.316h-5.664a.95.95 0 00-.863.562.956.956 0 00.164 1.02l7.922 8.863-7.922 8.855a.95.95 0 00.7 1.586h5.663c.266 0 .52-.117.703-.312l8.492-9.496c.32-.36.32-.91 0-1.27zm0 0"/></g><g clip-path="url(#prefix__aA)"><path fill="#38b6ff" d="M282.426 306.992l-8.492-9.492a.94.94 0 00-.704-.316h-5.66a.947.947 0 00-.703 1.582l7.926 8.863-7.926 8.855a.955.955 0 00-.16 1.024.94.94 0 00.863.562h5.66c.27 0 .52-.117.704-.312l8.492-9.496a.95.95 0 000-1.27zm0 0"/></g><g clip-path="url(#prefix__aB)"><path fill="#38b6ff" d="M257.57 306.992l-8.492-9.492a.946.946 0 00-.703-.316h-5.664a.95.95 0 00-.863.562.962.962 0 00.16 1.02l7.926 8.863-7.926 8.855a.95.95 0 00.703 1.586h5.664c.266 0 .52-.117.703-.312l8.492-9.496c.32-.36.32-.91 0-1.27zm0 0"/></g><g clip-path="url(#prefix__aC)"><path fill="#38b6ff" d="M245.3 306.992l-8.491-9.492a.94.94 0 00-.704-.316h-5.66a.947.947 0 00-.703 1.582l7.926 8.863-7.926 8.855a.955.955 0 00-.16 1.024.94.94 0 00.863.562h5.66c.27 0 .52-.117.704-.312l8.492-9.496a.95.95 0 000-1.27zm0 0"/></g><g clip-path="url(#prefix__aD)"><path fill="#38b6ff" d="M220.445 306.992l-8.492-9.492a.946.946 0 00-.703-.316h-5.664a.95.95 0 00-.863.562.956.956 0 00.164 1.02l7.922 8.863-7.922 8.855a.95.95 0 00.7 1.586h5.663c.266 0 .52-.117.703-.312l8.492-9.496c.32-.36.32-.91 0-1.27zm0 0"/></g><g clip-path="url(#prefix__aE)"><path fill="#38b6ff" d="M208.176 306.992l-8.492-9.492a.94.94 0 00-.704-.316h-5.66a.947.947 0 00-.703 1.582l7.926 8.863-7.926 8.855a.955.955 0 00-.16 1.024.94.94 0 00.863.562h5.66c.27 0 .52-.117.704-.312l8.492-9.496a.95.95 0 000-1.27zm0 0"/></g><g clip-path="url(#prefix__aF)"><path fill="#5ce1e6" d="M183.32 306.992l-8.492-9.492a.946.946 0 00-.703-.316h-5.664a.95.95 0 00-.863.562.956.956 0 00.164 1.02l7.922 8.863-7.922 8.855a.95.95 0 00.7 1.586h5.663c.266 0 .52-.117.703-.312l8.492-9.496c.32-.36.32-.91 0-1.27zm0 0"/></g><g clip-path="url(#prefix__aG)"><path fill="#5ce1e6" d="M171.05 306.992l-8.491-9.492a.94.94 0 00-.704-.316h-5.66a.947.947 0 00-.703 1.582l7.926 8.863-7.926 8.855a.955.955 0 00-.16 1.024.94.94 0 00.863.562h5.66c.27 0 .52-.117.704-.312l8.492-9.496a.95.95 0 000-1.27zm0 0"/></g><g clip-path="url(#prefix__aH)"><g clip-path="url(#prefix__aI)"><g clip-path="url(#prefix__aJ)"><path fill="#38b6ff" d="M146.184 306.746l-8.66-9.344a.948.948 0 00-.708-.3l-5.66.097a.947.947 0 00-.851.578.956.956 0 00.175 1.02l8.083 8.719-7.77 8.996a.952.952 0 00.73 1.574l5.665-.102a.96.96 0 00.695-.324l8.324-9.644a.954.954 0 00-.023-1.27zm0 0"/></g></g></g><g clip-path="url(#prefix__aK)"><g clip-path="url(#prefix__aL)"><g clip-path="url(#prefix__aM)"><path fill="#38b6ff" d="M133.918 306.96l-8.66-9.339a.937.937 0 00-.707-.305l-5.66.102a.95.95 0 00-.856.578.95.95 0 00.18 1.016l8.082 8.718-7.77 8.997a.959.959 0 00-.14 1.027c.16.34.5.555.87.547l5.665-.102a.96.96 0 00.695-.324l8.324-9.64a.96.96 0 00-.023-1.274zm0 0"/></g></g></g><g clip-path="url(#prefix__aN)"><g clip-path="url(#prefix__aO)"><g clip-path="url(#prefix__aP)"><path fill="#38b6ff" d="M99.406 301.191l-2.023-12.574a.945.945 0 00-.422-.644l-4.766-3.059a.949.949 0 00-1.445.953l1.887 11.738-11.453 3.176a.951.951 0 00-.266 1.715l4.766 3.059c.226.144.5.183.761.113l12.274-3.406a.954.954 0 00.687-1.07zm0 0"/></g></g></g><g clip-path="url(#prefix__aQ)"><g clip-path="url(#prefix__aR)"><g clip-path="url(#prefix__aS)"><path fill="#38b6ff" d="M89.078 294.57l-2.023-12.578a.94.94 0 00-.422-.644l-4.766-3.055a.942.942 0 00-1.027.004.966.966 0 00-.418.95l1.887 11.733-11.454 3.18a.954.954 0 00-.687.774.945.945 0 00.422.937l4.77 3.059c.222.144.5.183.757.117l12.278-3.406a.957.957 0 00.683-1.07zm0 0"/></g></g></g><g clip-path="url(#prefix__aT)"><g clip-path="url(#prefix__aU)"><g clip-path="url(#prefix__aV)"><path fill="#38b6ff" d="M61.434 282.32l.468-12.73a.94.94 0 00-.289-.715l-4.078-3.93a.945.945 0 00-1.012-.191.955.955 0 00-.593.848l-.438 11.878-11.851.883a.942.942 0 00-.825.625.94.94 0 00.23 1.004l4.079 3.926a.951.951 0 00.723.262l12.703-.946a.957.957 0 00.883-.914zm0 0"/></g></g></g><g clip-path="url(#prefix__aW)"><g clip-path="url(#prefix__aX)"><g clip-path="url(#prefix__aY)"><path fill="#38b6ff" d="M52.598 273.809l.468-12.73a.96.96 0 00-.289-.716l-4.078-3.925a.948.948 0 00-1.605.652l-.438 11.879-11.851.883a.948.948 0 00-.825.625.94.94 0 00.23 1.003l4.08 3.93a.96.96 0 00.722.262l12.703-.95a.957.957 0 00.883-.913zm0 0"/></g></g></g><g clip-path="url(#prefix__aZ)"><g clip-path="url(#prefix__ba)"><g clip-path="url(#prefix__bb)"><path fill="#5ce1e6" d="M36.793 250.25l3.941-12.113a.938.938 0 00-.082-.766l-2.843-4.894a.95.95 0 00-1.723.187L32.41 243.97l-11.64-2.399a.947.947 0 00-.965.375.944.944 0 00-.055 1.028l2.848 4.894c.132.235.359.395.62.45l12.477 2.574a.95.95 0 001.098-.641zm0 0"/></g></g></g><g clip-path="url(#prefix__bc)"><g clip-path="url(#prefix__bd)"><g clip-path="url(#prefix__be)"><path fill="#5ce1e6" d="M30.629 239.645l3.941-12.114a.938.938 0 00-.082-.765l-2.843-4.895a.946.946 0 00-.922-.465.954.954 0 00-.801.653l-3.676 11.304-11.644-2.402a.958.958 0 00-.961.375.943.943 0 00-.055 1.031l2.844 4.895c.136.23.363.39.625.449l12.476 2.57a.952.952 0 001.098-.636zm0 0"/></g></g></g><g clip-path="url(#prefix__bf)"><path fill="#38b6ff" d="M20.016 200.004l9.492-8.492a.934.934 0 00.316-.703v-5.66a.945.945 0 00-.562-.864.946.946 0 00-1.02.16l-8.863 7.926-8.856-7.926a.955.955 0 00-1.023-.16.945.945 0 00-.563.863v5.66c0 .27.114.524.313.704l9.496 8.492a.95.95 0 001.27 0zm0 0"/></g><g clip-path="url(#prefix__bg)"><path fill="#38b6ff" d="M20.016 187.738l9.492-8.496a.932.932 0 00.316-.699v-5.664a.95.95 0 00-.562-.863.961.961 0 00-1.02.16l-8.863 7.926-8.856-7.926a.95.95 0 00-1.586.703v5.664c0 .266.114.52.313.7l9.496 8.495c.36.32.91.32 1.27 0zm0 0"/></g><g clip-path="url(#prefix__bh)"><g clip-path="url(#prefix__bi)"><g clip-path="url(#prefix__bj)"><path fill="#38b6ff" d="M22.281 145.098l12.64-1.57a.951.951 0 00.661-.4l3.227-4.651a.95.95 0 00-.903-1.48L26.11 138.46l-2.765-11.559a.952.952 0 00-1.703-.324l-3.227 4.652a.948.948 0 00-.14.758l2.964 12.387a.949.949 0 001.043.723zm0 0"/></g></g></g><g clip-path="url(#prefix__bk)"><g clip-path="url(#prefix__bl)"><g clip-path="url(#prefix__bm)"><path fill="#38b6ff" d="M29.27 135.016l12.64-1.575a.933.933 0 00.66-.394l3.223-4.656a.935.935 0 00.031-1.028.953.953 0 00-.93-.449l-11.796 1.465-2.766-11.559a.963.963 0 00-.75-.715.941.941 0 00-.953.387l-3.227 4.656a.936.936 0 00-.14.754l2.965 12.391a.95.95 0 001.043.723zm0 0"/></g></g></g><g clip-path="url(#prefix__bn)"><g clip-path="url(#prefix__bo)"><g clip-path="url(#prefix__bp)"><path fill="#38b6ff" d="M45.11 108.906l12.671 1.317a.941.941 0 00.73-.239l4.192-3.808a.948.948 0 00.258-.996.954.954 0 00-.805-.649l-11.824-1.226-.09-11.887a.948.948 0 00-1.586-.7l-4.191 3.805a.963.963 0 00-.309.707l.098 12.739c.004.484.375.89.855.937zm0 0"/></g></g></g><g clip-path="url(#prefix__bq)"><g clip-path="url(#prefix__br)"><g clip-path="url(#prefix__bs)"><path fill="#38b6ff" d="M54.188 100.656l12.671 1.317a.936.936 0 00.73-.239l4.192-3.808a.942.942 0 00.262-.996.958.958 0 00-.805-.649l-11.824-1.226-.09-11.887a.95.95 0 00-1.586-.7l-4.191 3.805a.955.955 0 00-.309.707l.098 12.739c.004.484.375.89.852.937zm0 0"/></g></g></g><g clip-path="url(#prefix__bt)"><g clip-path="url(#prefix__bu)"><g clip-path="url(#prefix__bv)"><path fill="#5ce1e6" d="M75.379 84.59l11.808 4.773c.254.098.532.09.77-.027l5.082-2.5a.95.95 0 00.527-.883.958.958 0 00-.597-.848l-11.02-4.453 3.203-11.445a.946.946 0 00-.304-.988.943.943 0 00-1.024-.125l-5.082 2.496a.974.974 0 00-.492.59l-3.434 12.27a.957.957 0 00.563 1.14zm0 0"/></g></g></g><g clip-path="url(#prefix__bw)"><g clip-path="url(#prefix__bx)"><g clip-path="url(#prefix__by)"><path fill="#5ce1e6" d="M86.387 79.176l11.812 4.773c.25.102.528.094.77-.027l5.082-2.496a.945.945 0 00.523-.887.945.945 0 00-.594-.844l-11.02-4.457 3.204-11.445a.958.958 0 00-.305-.988.952.952 0 00-1.023-.125l-5.082 2.5a.94.94 0 00-.492.59l-3.434 12.265a.953.953 0 00.559 1.14zm0 0"/></g></g></g><g clip-path="url(#prefix__bz)"><path fill="#38b6ff" d="M118.215 68.148l8.492 9.493a.946.946 0 00.703.316h5.664a.95.95 0 00.863-.562.956.956 0 00-.164-1.02l-7.921-8.86 7.921-8.859a.95.95 0 00-.7-1.586h-5.663a.971.971 0 00-.703.313l-8.492 9.496c-.32.36-.32.91 0 1.27zm0 0"/></g><g clip-path="url(#prefix__bA)"><path fill="#38b6ff" d="M130.484 68.148l8.493 9.493a.94.94 0 00.703.316h5.66a.947.947 0 00.703-1.582l-7.926-8.86 7.926-8.859a.955.955 0 00.16-1.023.94.94 0 00-.863-.563h-5.66c-.27 0-.52.117-.703.313l-8.493 9.496a.95.95 0 000 1.27zm0 0"/></g><g clip-path="url(#prefix__bB)"><g clip-path="url(#prefix__bC)"><g clip-path="url(#prefix__bD)"><path fill="#38b6ff" d="M154.75 67.309l8.207 9.742a.947.947 0 00.691.34l5.66.168a.948.948 0 00.75-1.563l-7.656-9.094 8.188-8.613a.953.953 0 00.191-1.02.934.934 0 00-.844-.585l-5.66-.172a.955.955 0 00-.71.293l-8.778 9.234a.96.96 0 00-.039 1.27zm0 0"/></g></g></g><g clip-path="url(#prefix__bE)"><g clip-path="url(#prefix__bF)"><g clip-path="url(#prefix__bG)"><path fill="#38b6ff" d="M167.016 67.676l8.203 9.746a.936.936 0 00.691.336l5.66.172a.948.948 0 00.75-1.563l-7.656-9.094 8.188-8.617a.946.946 0 00.191-1.015.944.944 0 00-.844-.59l-5.66-.172a.955.955 0 00-.71.293l-8.778 9.234a.955.955 0 00-.035 1.27zm0 0"/></g></g></g><g clip-path="url(#prefix__bH)"><g clip-path="url(#prefix__bI)"><g clip-path="url(#prefix__bJ)"><path fill="#38b6ff" d="M266.402 67.309l8.207 9.742a.947.947 0 00.692.34l5.66.168a.948.948 0 00.75-1.563l-7.656-9.094 8.187-8.613a.953.953 0 00.192-1.02.934.934 0 00-.844-.585l-5.66-.172a.955.955 0 00-.711.293l-8.778 9.234a.96.96 0 00-.039 1.27zm0 0"/></g></g></g><g clip-path="url(#prefix__bK)"><g clip-path="url(#prefix__bL)"><g clip-path="url(#prefix__bM)"><path fill="#38b6ff" d="M278.668 67.676l8.203 9.746a.936.936 0 00.692.336l5.66.172a.948.948 0 00.75-1.563l-7.657-9.094 8.188-8.617a.946.946 0 00.191-1.015.944.944 0 00-.843-.59l-5.66-.172a.955.955 0 00-.712.293l-8.777 9.234a.955.955 0 00-.035 1.27zm0 0"/></g></g></g><g clip-path="url(#prefix__bN)"><g clip-path="url(#prefix__bO)"><g clip-path="url(#prefix__bP)"><path fill="#5ce1e6" d="M229.277 67.309l8.207 9.742a.947.947 0 00.692.34l5.66.168a.948.948 0 00.75-1.563l-7.656-9.094 8.187-8.613a.953.953 0 00.192-1.02.934.934 0 00-.844-.585l-5.66-.172a.955.955 0 00-.711.293l-8.778 9.234a.96.96 0 00-.039 1.27zm0 0"/></g></g></g><g clip-path="url(#prefix__bQ)"><g clip-path="url(#prefix__bR)"><g clip-path="url(#prefix__bS)"><path fill="#5ce1e6" d="M241.543 67.676l8.203 9.746a.936.936 0 00.691.336l5.66.172a.948.948 0 00.75-1.563l-7.656-9.094 8.188-8.617a.946.946 0 00.191-1.015.944.944 0 00-.843-.59l-5.66-.172a.955.955 0 00-.712.293l-8.777 9.234a.955.955 0 00-.035 1.27zm0 0"/></g></g></g><g clip-path="url(#prefix__bT)"><g clip-path="url(#prefix__bU)"><g clip-path="url(#prefix__bV)"><path fill="#38b6ff" d="M192.762 67.309l8.203 9.742a.962.962 0 00.695.34l5.656.168a.95.95 0 00.883-.536.957.957 0 00-.133-1.027l-7.652-9.094 8.188-8.613a.961.961 0 00.191-1.02.939.939 0 00-.848-.585l-5.656-.172a.964.964 0 00-.715.293l-8.773 9.234a.955.955 0 00-.04 1.27zm0 0"/></g></g></g><g clip-path="url(#prefix__bW)"><g clip-path="url(#prefix__bX)"><g clip-path="url(#prefix__bY)"><path fill="#38b6ff" d="M205.023 67.676l8.207 9.746a.93.93 0 00.692.336l5.66.172a.948.948 0 00.75-1.563l-7.656-9.094 8.187-8.617a.946.946 0 00.192-1.015.944.944 0 00-.844-.59l-5.66-.172a.955.955 0 00-.711.293l-8.778 9.234a.96.96 0 00-.039 1.27zm0 0"/></g></g></g></svg>