<svg xmlns="http://www.w3.org/2000/svg" xmlns:xlink="http://www.w3.org/1999/xlink" width="450" zoomAndPan="magnify" viewBox="0 0 337.5 374.999991" height="500" preserveAspectRatio="xMidYMid meet" version="1.0"><defs><clipPath id="587101be4c"><path d="M 0 52.777344 L 303.75 52.777344 L 303.75 323 L 0 323 Z M 0 52.777344 " clip-rule="nonzero"/></clipPath><clipPath id="d48ea84ab2"><path d="M 7.917969 142.824219 C 3.136719 156.667969 0 172.40625 0 187.851562 C 0 203.296875 2.6875 218.15625 7.46875 231.855469 C 7.621094 232.144531 7.621094 232.4375 7.769531 232.730469 C 26.890625 284.164062 77.390625 322.046875 135.65625 322.777344 L 303.75 322.777344 L 303.75 52.777344 L 135.78125 52.777344 C 77.09375 53.503906 26.59375 90.808594 7.917969 142.824219 " clip-rule="nonzero"/></clipPath><clipPath id="1970083597"><path d="M 0 52.777344 L 303.75 52.777344 L 303.75 322.777344 L 0 322.777344 Z M 0 52.777344 " clip-rule="nonzero"/></clipPath><clipPath id="5856bd1eb8"><path d="M 7.917969 142.824219 C 3.136719 156.667969 0 172.40625 0 187.851562 C 0 203.296875 2.6875 218.15625 7.46875 231.855469 C 7.621094 232.144531 7.621094 232.4375 7.769531 232.730469 C 26.890625 284.164062 77.390625 322.046875 135.65625 322.777344 L 303.75 322.777344 L 303.75 52.777344 L 135.78125 52.777344 C 77.09375 53.503906 26.59375 90.808594 7.917969 142.824219 " clip-rule="nonzero"/></clipPath><clipPath id="a2ca1e7bcd"><path d="M 34 77 L 251 77 L 251 294 L 34 294 Z M 34 77 " clip-rule="nonzero"/></clipPath><clipPath id="0ba8543040"><path d="M 243.855469 71.152344 L 257.4375 287.011719 L 41.578125 300.59375 L 27.996094 84.734375 Z M 243.855469 71.152344 " clip-rule="nonzero"/></clipPath><clipPath id="2888bf95cb"><path d="M 250.640625 178.9375 C 246.894531 119.410156 195.597656 74.1875 136.070312 77.933594 C 76.542969 81.679688 31.320312 132.972656 35.066406 192.503906 C 38.8125 252.03125 90.105469 297.253906 149.632812 293.507812 C 209.164062 289.761719 254.382812 238.46875 250.640625 178.9375 " clip-rule="nonzero"/></clipPath><clipPath id="1d602842b6"><path d="M 34 77 L 251 77 L 251 294 L 34 294 Z M 34 77 " clip-rule="nonzero"/></clipPath><clipPath id="e8db9d800a"><path d="M 243.855469 71.152344 L 257.421875 286.726562 L 41.847656 300.289062 L 28.285156 84.714844 Z M 243.855469 71.152344 " clip-rule="nonzero"/></clipPath><clipPath id="125a5c20c2"><path d="M 243.855469 71.152344 L 257.613281 289.773438 L 38.992188 303.53125 L 25.234375 84.90625 Z M 243.855469 71.152344 " clip-rule="nonzero"/></clipPath><clipPath id="4127c6dd67"><path d="M 250.640625 178.9375 C 246.894531 119.410156 195.597656 74.1875 136.070312 77.933594 C 76.542969 81.679688 31.320312 132.972656 35.066406 192.503906 C 38.8125 252.03125 90.105469 297.253906 149.632812 293.507812 C 209.164062 289.761719 254.382812 238.46875 250.640625 178.9375 " clip-rule="nonzero"/></clipPath><clipPath id="00825b1ca2"><path d="M 177 169 L 211 169 L 211 190 L 177 190 Z M 177 169 " clip-rule="nonzero"/></clipPath><clipPath id="641065b55e"><path d="M 208.667969 169.503906 L 210.265625 187.597656 L 178.460938 190.402344 L 176.867188 172.308594 Z M 208.667969 169.503906 " clip-rule="nonzero"/></clipPath><clipPath id="538da96eae"><path d="M 208.667969 169.503906 L 210.230469 187.203125 L 178.625 189.988281 L 177.0625 172.292969 Z M 208.667969 169.503906 " clip-rule="nonzero"/></clipPath><clipPath id="e3dc6f1f4b"><path d="M 109 209 L 139 209 L 139 247 L 109 247 Z M 109 209 " clip-rule="nonzero"/></clipPath><clipPath id="4681a70e34"><path d="M 123.039062 209.8125 L 139.421875 217.65625 L 125.636719 246.449219 L 109.253906 238.605469 Z M 123.039062 209.8125 " clip-rule="nonzero"/></clipPath><clipPath id="503c990292"><path d="M 123.039062 209.8125 L 139.066406 217.484375 L 125.363281 246.101562 L 109.339844 238.425781 Z M 123.039062 209.8125 " clip-rule="nonzero"/></clipPath><clipPath id="8b46afd3df"><path d="M 117 143 L 194 143 L 194 228 L 117 228 Z M 117 143 " clip-rule="nonzero"/></clipPath><clipPath id="40c6cdc9c0"><path d="M 82.414062 167.769531 L 152.390625 119.171875 L 194.59375 179.941406 L 124.617188 228.539062 Z M 82.414062 167.769531 " clip-rule="nonzero"/></clipPath><clipPath id="1e92b16b35"><path d="M 117.132812 143.65625 L 193.652344 179.726562 L 124.207031 227.953125 L 117.132812 143.65625 " clip-rule="nonzero"/></clipPath><clipPath id="54cab92c90"><path d="M 105 132 L 139 132 L 139 169 L 105 169 Z M 105 132 " clip-rule="nonzero"/></clipPath><clipPath id="d6afb36dd9"><path d="M 105.328125 142.242188 L 120.25 131.878906 L 138.460938 158.101562 L 123.539062 168.464844 Z M 105.328125 142.242188 " clip-rule="nonzero"/></clipPath><clipPath id="b1252074e2"><path d="M 105.328125 142.242188 L 119.921875 132.105469 L 138.019531 158.167969 L 123.429688 168.300781 Z M 105.328125 142.242188 " clip-rule="nonzero"/></clipPath><clipPath id="6acd9b2d2a"><path d="M 73 92 L 129 92 L 129 149 L 73 149 Z M 73 92 " clip-rule="nonzero"/></clipPath><clipPath id="1a4ba89711"><path d="M 93.035156 158.824219 L 62.367188 112.421875 L 108.773438 81.753906 L 139.441406 128.15625 Z M 93.035156 158.824219 " clip-rule="nonzero"/></clipPath><clipPath id="4a6688a5c9"><path d="M 77.703125 135.621094 C 86.171875 148.4375 103.421875 151.960938 116.238281 143.492188 C 129.050781 135.023438 132.574219 117.769531 124.105469 104.957031 C 115.636719 92.140625 98.386719 88.617188 85.570312 97.085938 C 72.757812 105.554688 69.234375 122.808594 77.703125 135.621094 " clip-rule="nonzero"/></clipPath><clipPath id="0c6dee91f5"><path d="M 73 92 L 129 92 L 129 149 L 73 149 Z M 73 92 " clip-rule="nonzero"/></clipPath><clipPath id="c89a997af1"><path d="M 93.035156 158.824219 L 62.4375 112.523438 L 108.738281 81.921875 L 139.339844 128.226562 Z M 93.035156 158.824219 " clip-rule="nonzero"/></clipPath><clipPath id="69531064c5"><path d="M 93.035156 158.824219 L 62.4375 112.523438 L 108.738281 81.921875 L 139.339844 128.226562 Z M 93.035156 158.824219 " clip-rule="nonzero"/></clipPath><clipPath id="81f79a41a8"><path d="M 77.734375 135.671875 C 86.1875 148.460938 103.402344 151.976562 116.1875 143.523438 C 128.972656 135.074219 132.488281 117.859375 124.039062 105.074219 C 115.589844 92.289062 98.375 88.773438 85.585938 97.222656 C 72.800781 105.671875 69.285156 122.886719 77.734375 135.671875 " clip-rule="nonzero"/></clipPath><clipPath id="61b25e48f5"><path d="M 83 227 L 140 227 L 140 283 L 83 283 Z M 83 227 " clip-rule="nonzero"/></clipPath><clipPath id="f9532afaec"><path d="M 74.402344 268.367188 L 98.125 218.054688 L 148.433594 241.777344 L 124.714844 292.085938 Z M 74.402344 268.367188 " clip-rule="nonzero"/></clipPath><clipPath id="7ff172883c"><path d="M 86.261719 243.210938 C 79.714844 257.105469 85.664062 273.675781 99.558594 280.226562 C 113.449219 286.777344 130.023438 280.824219 136.574219 266.933594 C 143.125 253.039062 137.171875 236.46875 123.277344 229.917969 C 109.386719 223.367188 92.8125 229.320312 86.261719 243.210938 " clip-rule="nonzero"/></clipPath><clipPath id="5ae875247b"><path d="M 83 227 L 140 227 L 140 283 L 83 283 Z M 83 227 " clip-rule="nonzero"/></clipPath><clipPath id="8d294cef28"><path d="M 74.402344 268.367188 L 98.070312 218.167969 L 148.273438 241.835938 L 124.601562 292.035156 Z M 74.402344 268.367188 " clip-rule="nonzero"/></clipPath><clipPath id="747d05795e"><path d="M 74.402344 268.367188 L 98.070312 218.167969 L 148.273438 241.835938 L 124.601562 292.035156 Z M 74.402344 268.367188 " clip-rule="nonzero"/></clipPath><clipPath id="366888bedc"><path d="M 86.238281 243.265625 C 79.703125 257.128906 85.640625 273.664062 99.503906 280.203125 C 113.367188 286.738281 129.902344 280.796875 136.4375 266.9375 C 142.972656 253.074219 137.035156 236.539062 123.171875 230 C 109.308594 223.464844 92.773438 229.40625 86.238281 243.265625 " clip-rule="nonzero"/></clipPath><clipPath id="3dca6d7270"><path d="M 191 149 L 248 149 L 248 206 L 191 206 Z M 191 149 " clip-rule="nonzero"/></clipPath><clipPath id="6298c1684b"><path d="M 211.539062 216.289062 L 180.875 169.886719 L 227.277344 139.21875 L 257.945312 185.621094 Z M 211.539062 216.289062 " clip-rule="nonzero"/></clipPath><clipPath id="2d687b199c"><path d="M 196.207031 193.085938 C 204.675781 205.902344 221.929688 209.425781 234.742188 200.957031 C 247.558594 192.488281 251.082031 175.234375 242.613281 162.421875 C 234.144531 149.605469 216.890625 146.082031 204.074219 154.550781 C 191.261719 163.019531 187.738281 180.273438 196.207031 193.085938 " clip-rule="nonzero"/></clipPath><clipPath id="73478cbd16"><path d="M 191 150 L 248 150 L 248 206 L 191 206 Z M 191 150 " clip-rule="nonzero"/></clipPath><clipPath id="452ccd1ba4"><path d="M 211.539062 216.289062 L 180.941406 169.988281 L 227.242188 139.386719 L 257.84375 185.691406 Z M 211.539062 216.289062 " clip-rule="nonzero"/></clipPath><clipPath id="2bc0da1721"><path d="M 211.539062 216.289062 L 180.941406 169.988281 L 227.242188 139.386719 L 257.84375 185.691406 Z M 211.539062 216.289062 " clip-rule="nonzero"/></clipPath><clipPath id="ee1133264a"><path d="M 196.242188 193.136719 C 204.691406 205.925781 221.90625 209.4375 234.691406 200.988281 C 247.476562 192.539062 250.992188 175.324219 242.542969 162.539062 C 234.09375 149.753906 216.878906 146.238281 204.09375 154.6875 C 191.304688 163.136719 187.792969 180.351562 196.242188 193.136719 " clip-rule="nonzero"/></clipPath><clipPath id="9d8a114cc2"><path d="M 93 113 L 108 113 L 108 128 L 93 128 Z M 93 113 " clip-rule="nonzero"/></clipPath><clipPath id="84f5024851"><path d="M 91.1875 118.542969 L 102.65625 110.578125 L 110.617188 122.046875 L 99.152344 130.007812 Z M 91.1875 118.542969 " clip-rule="nonzero"/></clipPath><clipPath id="80e60503ce"><path d="M 96.921875 114.5625 C 93.757812 116.757812 92.972656 121.109375 95.171875 124.273438 C 97.371094 127.441406 101.71875 128.226562 104.882812 126.027344 C 108.050781 123.828125 108.835938 119.476562 106.636719 116.3125 C 104.4375 113.144531 100.089844 112.363281 96.921875 114.5625 " clip-rule="nonzero"/></clipPath><clipPath id="db58102ae5"><path d="M 104 248 L 119 248 L 119 263 L 104 263 Z M 104 248 " clip-rule="nonzero"/></clipPath><clipPath id="6636fca270"><path d="M 108.078125 245.785156 L 120.703125 251.738281 L 114.75 264.363281 L 102.125 258.410156 Z M 108.078125 245.785156 " clip-rule="nonzero"/></clipPath><clipPath id="560aa64cb8"><path d="M 114.390625 248.761719 C 110.902344 247.117188 106.746094 248.613281 105.101562 252.097656 C 103.457031 255.585938 104.949219 259.746094 108.4375 261.386719 C 111.925781 263.03125 116.082031 261.539062 117.726562 258.050781 C 119.371094 254.566406 117.878906 250.40625 114.390625 248.761719 " clip-rule="nonzero"/></clipPath><clipPath id="adbce34a1e"><path d="M 212 169 L 227 169 L 227 184 L 212 184 Z M 212 169 " clip-rule="nonzero"/></clipPath><clipPath id="1bfb3e3637"><path d="M 209.585938 174.972656 L 221.054688 167.011719 L 229.015625 178.476562 L 217.550781 186.4375 Z M 209.585938 174.972656 " clip-rule="nonzero"/></clipPath><clipPath id="c01511b532"><path d="M 215.320312 170.992188 C 212.152344 173.191406 211.371094 177.539062 213.570312 180.707031 C 215.765625 183.871094 220.117188 184.65625 223.28125 182.457031 C 226.449219 180.257812 227.234375 175.910156 225.035156 172.742188 C 222.835938 169.578125 218.484375 168.792969 215.320312 170.992188 " clip-rule="nonzero"/></clipPath><clipPath id="3263f9de5d"><path d="M 150 115 L 193 115 L 193 141 L 150 141 Z M 150 115 " clip-rule="nonzero"/></clipPath><clipPath id="121a9ce985"><path d="M 192.710938 140.5 L 148.355469 124.210938 L 153.011719 111.539062 L 197.363281 127.824219 Z M 192.710938 140.5 " clip-rule="nonzero"/></clipPath><clipPath id="912d0fb687"><path d="M 192.710938 140.5 L 148.355469 124.210938 L 153.011719 111.539062 L 197.363281 127.824219 Z M 192.710938 140.5 " clip-rule="nonzero"/></clipPath><clipPath id="22a93d7ecf"><path d="M 192.710938 140.5 L 148.355469 124.210938 L 153.011719 111.539062 L 197.363281 127.824219 Z M 192.710938 140.5 " clip-rule="nonzero"/></clipPath><clipPath id="18a223e588"><path d="M 187 132 L 189 132 L 189 133 L 187 133 Z M 187 132 " clip-rule="nonzero"/></clipPath><clipPath id="774ada6bab"><path d="M 192.710938 140.5 L 148.355469 124.210938 L 153.011719 111.539062 L 197.363281 127.824219 Z M 192.710938 140.5 " clip-rule="nonzero"/></clipPath><clipPath id="d861c5bacd"><path d="M 192.710938 140.5 L 148.355469 124.210938 L 153.011719 111.539062 L 197.363281 127.824219 Z M 192.710938 140.5 " clip-rule="nonzero"/></clipPath><clipPath id="5033a2be77"><path d="M 192.710938 140.5 L 148.355469 124.210938 L 153.011719 111.539062 L 197.363281 127.824219 Z M 192.710938 140.5 " clip-rule="nonzero"/></clipPath><clipPath id="1c430bdf8d"><path d="M 161 223 L 202 223 L 202 250 L 161 250 Z M 161 223 " clip-rule="nonzero"/></clipPath><clipPath id="36eb9daeb1"><path d="M 160.292969 246.8125 L 199.140625 219.917969 L 206.824219 231.015625 L 167.976562 257.910156 Z M 160.292969 246.8125 " clip-rule="nonzero"/></clipPath><clipPath id="b3493140a6"><path d="M 160.292969 246.8125 L 199.140625 219.917969 L 206.824219 231.015625 L 167.976562 257.910156 Z M 160.292969 246.8125 " clip-rule="nonzero"/></clipPath><clipPath id="a6fda9381f"><path d="M 160.292969 246.8125 L 199.140625 219.917969 L 206.824219 231.015625 L 167.976562 257.910156 Z M 160.292969 246.8125 " clip-rule="nonzero"/></clipPath><clipPath id="1400c88617"><path d="M 169 247 L 170 247 L 170 248 L 169 248 Z M 169 247 " clip-rule="nonzero"/></clipPath><clipPath id="1dcf52283f"><path d="M 160.292969 246.8125 L 199.140625 219.917969 L 206.824219 231.015625 L 167.976562 257.910156 Z M 160.292969 246.8125 " clip-rule="nonzero"/></clipPath><clipPath id="830481e97f"><path d="M 160.292969 246.8125 L 199.140625 219.917969 L 206.824219 231.015625 L 167.976562 257.910156 Z M 160.292969 246.8125 " clip-rule="nonzero"/></clipPath><clipPath id="5ca34abc16"><path d="M 160.292969 246.8125 L 199.140625 219.917969 L 206.824219 231.015625 L 167.976562 257.910156 Z M 160.292969 246.8125 " clip-rule="nonzero"/></clipPath><clipPath id="dc556cfabf"><path d="M 71 168 L 85 168 L 85 215 L 71 215 Z M 71 168 " clip-rule="nonzero"/></clipPath><clipPath id="2d8d8a7a02"><path d="M 84.746094 167.976562 L 84.703125 215.226562 L 71.203125 215.210938 L 71.246094 167.960938 Z M 84.746094 167.976562 " clip-rule="nonzero"/></clipPath><clipPath id="545036df6c"><path d="M 84.746094 167.976562 L 84.703125 215.226562 L 71.203125 215.210938 L 71.246094 167.960938 Z M 84.746094 167.976562 " clip-rule="nonzero"/></clipPath><clipPath id="b0b3290c7a"><path d="M 84.746094 167.976562 L 84.703125 215.226562 L 71.203125 215.210938 L 71.246094 167.960938 Z M 84.746094 167.976562 " clip-rule="nonzero"/></clipPath><clipPath id="79a46060a6"><path d="M 78 175 L 79 175 L 79 176 L 78 176 Z M 78 175 " clip-rule="nonzero"/></clipPath><clipPath id="e93132c5b7"><path d="M 84.746094 167.976562 L 84.703125 215.226562 L 71.203125 215.210938 L 71.246094 167.960938 Z M 84.746094 167.976562 " clip-rule="nonzero"/></clipPath><clipPath id="736a2e0475"><path d="M 84.746094 167.976562 L 84.703125 215.226562 L 71.203125 215.210938 L 71.246094 167.960938 Z M 84.746094 167.976562 " clip-rule="nonzero"/></clipPath><clipPath id="ac9e9ea7b8"><path d="M 84.746094 167.976562 L 84.703125 215.226562 L 71.203125 215.210938 L 71.246094 167.960938 Z M 84.746094 167.976562 " clip-rule="nonzero"/></clipPath><clipPath id="5a6a8b2f3b"><path d="M 278 297.128906 L 295 297.128906 L 295 318.128906 L 278 318.128906 Z M 278 297.128906 " clip-rule="nonzero"/></clipPath><clipPath id="d1777f1cbf"><path d="M 266.625 297.128906 L 283 297.128906 L 283 318.128906 L 266.625 318.128906 Z M 266.625 297.128906 " clip-rule="nonzero"/></clipPath><clipPath id="0624559b8c"><path d="M 241 297.128906 L 258 297.128906 L 258 318.128906 L 241 318.128906 Z M 241 297.128906 " clip-rule="nonzero"/></clipPath><clipPath id="1d92c1b01a"><path d="M 229.5 297.128906 L 246 297.128906 L 246 318.128906 L 229.5 318.128906 Z M 229.5 297.128906 " clip-rule="nonzero"/></clipPath><clipPath id="d9076a23c5"><path d="M 204 297.128906 L 220.875 297.128906 L 220.875 318.128906 L 204 318.128906 Z M 204 297.128906 " clip-rule="nonzero"/></clipPath><clipPath id="8bfb33a1fd"><path d="M 192.375 297.128906 L 209 297.128906 L 209 318.128906 L 192.375 318.128906 Z M 192.375 297.128906 " clip-rule="nonzero"/></clipPath><clipPath id="468e7d9a39"><path d="M 167 297.128906 L 183.75 297.128906 L 183.75 318.128906 L 167 318.128906 Z M 167 297.128906 " clip-rule="nonzero"/></clipPath><clipPath id="945777b65c"><path d="M 155.25 297.128906 L 172 297.128906 L 172 318.128906 L 155.25 318.128906 Z M 155.25 297.128906 " clip-rule="nonzero"/></clipPath><clipPath id="6370c8d1e9"><path d="M 130 297 L 147 297 L 147 319 L 130 319 Z M 130 297 " clip-rule="nonzero"/></clipPath><clipPath id="7d2e43d2f2"><path d="M 117.945312 297.378906 L 146.441406 296.875 L 146.8125 317.871094 L 118.316406 318.375 Z M 117.945312 297.378906 " clip-rule="nonzero"/></clipPath><clipPath id="a53f8e9669"><path d="M 117.945312 297.378906 L 146.441406 296.875 L 146.8125 317.871094 L 118.316406 318.375 Z M 117.945312 297.378906 " clip-rule="nonzero"/></clipPath><clipPath id="c251a55cd1"><path d="M 117 297 L 135 297 L 135 319 L 117 319 Z M 117 297 " clip-rule="nonzero"/></clipPath><clipPath id="95a31a2cb0"><path d="M 117.945312 297.378906 L 146.441406 296.875 L 146.8125 317.871094 L 118.316406 318.375 Z M 117.945312 297.378906 " clip-rule="nonzero"/></clipPath><clipPath id="b5b717b889"><path d="M 117.945312 297.378906 L 146.441406 296.875 L 146.8125 317.871094 L 118.316406 318.375 Z M 117.945312 297.378906 " clip-rule="nonzero"/></clipPath><clipPath id="1878db4c57"><path d="M 80 284 L 100 284 L 100 306 L 80 306 Z M 80 284 " clip-rule="nonzero"/></clipPath><clipPath id="4d4cb43db3"><path d="M 81.105469 277.734375 L 105.09375 293.121094 L 93.757812 310.796875 L 69.765625 295.410156 Z M 81.105469 277.734375 " clip-rule="nonzero"/></clipPath><clipPath id="c6297fc758"><path d="M 81.105469 277.734375 L 105.09375 293.121094 L 93.757812 310.796875 L 69.765625 295.410156 Z M 81.105469 277.734375 " clip-rule="nonzero"/></clipPath><clipPath id="4b4ec221dc"><path d="M 70 278 L 90 278 L 90 300 L 70 300 Z M 70 278 " clip-rule="nonzero"/></clipPath><clipPath id="523c9ff73d"><path d="M 81.105469 277.734375 L 105.09375 293.121094 L 93.757812 310.796875 L 69.765625 295.410156 Z M 81.105469 277.734375 " clip-rule="nonzero"/></clipPath><clipPath id="92e8ff9343"><path d="M 81.105469 277.734375 L 105.09375 293.121094 L 93.757812 310.796875 L 69.765625 295.410156 Z M 81.105469 277.734375 " clip-rule="nonzero"/></clipPath><clipPath id="c1b668fc23"><path d="M 42 264 L 62 264 L 62 285 L 42 285 Z M 42 264 " clip-rule="nonzero"/></clipPath><clipPath id="0ba3c64a00"><path d="M 48.058594 255.742188 L 68.585938 275.511719 L 54.019531 290.636719 L 33.492188 270.867188 Z M 48.058594 255.742188 " clip-rule="nonzero"/></clipPath><clipPath id="f85f6abca5"><path d="M 48.058594 255.742188 L 68.585938 275.511719 L 54.019531 290.636719 L 33.492188 270.867188 Z M 48.058594 255.742188 " clip-rule="nonzero"/></clipPath><clipPath id="db105a1e04"><path d="M 33 256 L 54 256 L 54 276 L 33 276 Z M 33 256 " clip-rule="nonzero"/></clipPath><clipPath id="6844876a6d"><path d="M 48.058594 255.742188 L 68.585938 275.511719 L 54.019531 290.636719 L 33.492188 270.867188 Z M 48.058594 255.742188 " clip-rule="nonzero"/></clipPath><clipPath id="dba0550eed"><path d="M 48.058594 255.742188 L 68.585938 275.511719 L 54.019531 290.636719 L 33.492188 270.867188 Z M 48.058594 255.742188 " clip-rule="nonzero"/></clipPath><clipPath id="89ae15af7c"><path d="M 19 232 L 41 232 L 41 251 L 19 251 Z M 19 232 " clip-rule="nonzero"/></clipPath><clipPath id="23e9bcc4ca"><path d="M 31.21875 221.023438 L 45.539062 245.664062 L 27.386719 256.21875 L 13.0625 231.578125 Z M 31.21875 221.023438 " clip-rule="nonzero"/></clipPath><clipPath id="75f9320d30"><path d="M 31.21875 221.023438 L 45.539062 245.664062 L 27.386719 256.21875 L 13.0625 231.578125 Z M 31.21875 221.023438 " clip-rule="nonzero"/></clipPath><clipPath id="435ccec1ae"><path d="M 13 221 L 35 221 L 35 241 L 13 241 Z M 13 221 " clip-rule="nonzero"/></clipPath><clipPath id="febc1b154b"><path d="M 31.21875 221.023438 L 45.539062 245.664062 L 27.386719 256.21875 L 13.0625 231.578125 Z M 31.21875 221.023438 " clip-rule="nonzero"/></clipPath><clipPath id="5d5f5cdb4c"><path d="M 31.21875 221.023438 L 45.539062 245.664062 L 27.386719 256.21875 L 13.0625 231.578125 Z M 31.21875 221.023438 " clip-rule="nonzero"/></clipPath><clipPath id="d2c9172466"><path d="M 8.878906 184 L 29.878906 184 L 29.878906 200.4375 L 8.878906 200.4375 Z M 8.878906 184 " clip-rule="nonzero"/></clipPath><clipPath id="58cb65427f"><path d="M 8.878906 171.9375 L 29.878906 171.9375 L 29.878906 188 L 8.878906 188 Z M 8.878906 171.9375 " clip-rule="nonzero"/></clipPath><clipPath id="54e10dd765"><path d="M 18 126 L 39 126 L 39 146 L 18 146 Z M 18 126 " clip-rule="nonzero"/></clipPath><clipPath id="fbbd970661"><path d="M 46.378906 127.648438 L 30.144531 151.074219 L 12.882812 139.109375 L 29.117188 115.6875 Z M 46.378906 127.648438 " clip-rule="nonzero"/></clipPath><clipPath id="18ad0a9eb2"><path d="M 46.378906 127.648438 L 30.144531 151.074219 L 12.882812 139.109375 L 29.117188 115.6875 Z M 46.378906 127.648438 " clip-rule="nonzero"/></clipPath><clipPath id="3a48d8eff2"><path d="M 25 116 L 46 116 L 46 136 L 25 136 Z M 25 116 " clip-rule="nonzero"/></clipPath><clipPath id="b1683ef33c"><path d="M 46.378906 127.648438 L 30.144531 151.074219 L 12.882812 139.109375 L 29.117188 115.6875 Z M 46.378906 127.648438 " clip-rule="nonzero"/></clipPath><clipPath id="f23bdf82b3"><path d="M 46.378906 127.648438 L 30.144531 151.074219 L 12.882812 139.109375 L 29.117188 115.6875 Z M 46.378906 127.648438 " clip-rule="nonzero"/></clipPath><clipPath id="b00fdc7a6e"><path d="M 44 90 L 64 90 L 64 111 L 44 111 Z M 44 90 " clip-rule="nonzero"/></clipPath><clipPath id="4c6be2d603"><path d="M 72.519531 97.335938 L 51.425781 116.5 L 37.304688 100.957031 L 58.398438 81.792969 Z M 72.519531 97.335938 " clip-rule="nonzero"/></clipPath><clipPath id="6048e15696"><path d="M 72.519531 97.335938 L 51.425781 116.5 L 37.304688 100.957031 L 58.398438 81.792969 Z M 72.519531 97.335938 " clip-rule="nonzero"/></clipPath><clipPath id="30f78825c8"><path d="M 53 82 L 73 82 L 73 102 L 53 102 Z M 53 82 " clip-rule="nonzero"/></clipPath><clipPath id="605c57a81b"><path d="M 72.519531 97.335938 L 51.425781 116.5 L 37.304688 100.957031 L 58.398438 81.792969 Z M 72.519531 97.335938 " clip-rule="nonzero"/></clipPath><clipPath id="a2e52c15bc"><path d="M 72.519531 97.335938 L 51.425781 116.5 L 37.304688 100.957031 L 58.398438 81.792969 Z M 72.519531 97.335938 " clip-rule="nonzero"/></clipPath><clipPath id="1b3276a3ad"><path d="M 74 67 L 94 67 L 94 90 L 74 90 Z M 74 67 " clip-rule="nonzero"/></clipPath><clipPath id="55c803af03"><path d="M 104.921875 81.058594 L 79.34375 93.632812 L 70.078125 74.785156 L 95.65625 62.214844 Z M 104.921875 81.058594 " clip-rule="nonzero"/></clipPath><clipPath id="bf6bd5111c"><path d="M 104.921875 81.058594 L 79.34375 93.632812 L 70.078125 74.785156 L 95.65625 62.214844 Z M 104.921875 81.058594 " clip-rule="nonzero"/></clipPath><clipPath id="32df0dd221"><path d="M 85 62 L 105 62 L 105 85 L 85 85 Z M 85 62 " clip-rule="nonzero"/></clipPath><clipPath id="870d16af77"><path d="M 104.921875 81.058594 L 79.34375 93.632812 L 70.078125 74.785156 L 95.65625 62.214844 Z M 104.921875 81.058594 " clip-rule="nonzero"/></clipPath><clipPath id="003c18af66"><path d="M 104.921875 81.058594 L 79.34375 93.632812 L 70.078125 74.785156 L 95.65625 62.214844 Z M 104.921875 81.058594 " clip-rule="nonzero"/></clipPath><clipPath id="880c969a47"><path d="M 117.785156 57.015625 L 135 57.015625 L 135 78 L 117.785156 78 Z M 117.785156 57.015625 " clip-rule="nonzero"/></clipPath><clipPath id="ca152b765d"><path d="M 130 57.015625 L 146.285156 57.015625 L 146.285156 78 L 130 78 Z M 130 57.015625 " clip-rule="nonzero"/></clipPath><clipPath id="e9618d00dd"><path d="M 154 56 L 171 56 L 171 78 L 154 78 Z M 154 56 " clip-rule="nonzero"/></clipPath><clipPath id="3d4c7abdb2"><path d="M 182.511719 78.011719 L 154.023438 77.15625 L 154.65625 56.164062 L 183.144531 57.023438 Z M 182.511719 78.011719 " clip-rule="nonzero"/></clipPath><clipPath id="4d5a39c754"><path d="M 182.511719 78.011719 L 154.023438 77.15625 L 154.65625 56.164062 L 183.144531 57.023438 Z M 182.511719 78.011719 " clip-rule="nonzero"/></clipPath><clipPath id="0890da8daa"><path d="M 166 56 L 184 56 L 184 78 L 166 78 Z M 166 56 " clip-rule="nonzero"/></clipPath><clipPath id="83f31e1b8e"><path d="M 182.511719 78.011719 L 154.023438 77.15625 L 154.65625 56.164062 L 183.144531 57.023438 Z M 182.511719 78.011719 " clip-rule="nonzero"/></clipPath><clipPath id="954f920490"><path d="M 182.511719 78.011719 L 154.023438 77.15625 L 154.65625 56.164062 L 183.144531 57.023438 Z M 182.511719 78.011719 " clip-rule="nonzero"/></clipPath><clipPath id="11513e1d88"><path d="M 266 56 L 283 56 L 283 78 L 266 78 Z M 266 56 " clip-rule="nonzero"/></clipPath><clipPath id="786d636bef"><path d="M 294.164062 78.011719 L 265.675781 77.15625 L 266.308594 56.164062 L 294.796875 57.023438 Z M 294.164062 78.011719 " clip-rule="nonzero"/></clipPath><clipPath id="0045ce99f2"><path d="M 294.164062 78.011719 L 265.675781 77.15625 L 266.308594 56.164062 L 294.796875 57.023438 Z M 294.164062 78.011719 " clip-rule="nonzero"/></clipPath><clipPath id="e320a3122d"><path d="M 278 56 L 295 56 L 295 78 L 278 78 Z M 278 56 " clip-rule="nonzero"/></clipPath><clipPath id="5175e945c3"><path d="M 294.164062 78.011719 L 265.675781 77.15625 L 266.308594 56.164062 L 294.796875 57.023438 Z M 294.164062 78.011719 " clip-rule="nonzero"/></clipPath><clipPath id="acfd66a139"><path d="M 294.164062 78.011719 L 265.675781 77.15625 L 266.308594 56.164062 L 294.796875 57.023438 Z M 294.164062 78.011719 " clip-rule="nonzero"/></clipPath><clipPath id="c7655ed037"><path d="M 229 56 L 246 56 L 246 78 L 229 78 Z M 229 56 " clip-rule="nonzero"/></clipPath><clipPath id="ac3125ffa9"><path d="M 257.039062 78.011719 L 228.550781 77.15625 L 229.183594 56.164062 L 257.671875 57.023438 Z M 257.039062 78.011719 " clip-rule="nonzero"/></clipPath><clipPath id="6092538a1b"><path d="M 257.039062 78.011719 L 228.550781 77.15625 L 229.183594 56.164062 L 257.671875 57.023438 Z M 257.039062 78.011719 " clip-rule="nonzero"/></clipPath><clipPath id="0577eac0c7"><path d="M 241 56 L 258 56 L 258 78 L 241 78 Z M 241 56 " clip-rule="nonzero"/></clipPath><clipPath id="452aa40f42"><path d="M 257.039062 78.011719 L 228.550781 77.15625 L 229.183594 56.164062 L 257.671875 57.023438 Z M 257.039062 78.011719 " clip-rule="nonzero"/></clipPath><clipPath id="30b16f2430"><path d="M 257.039062 78.011719 L 228.550781 77.15625 L 229.183594 56.164062 L 257.671875 57.023438 Z M 257.039062 78.011719 " clip-rule="nonzero"/></clipPath><clipPath id="5ede6cde4c"><path d="M 192 56 L 209 56 L 209 78 L 192 78 Z M 192 56 " clip-rule="nonzero"/></clipPath><clipPath id="ffff1fcc41"><path d="M 220.523438 78.011719 L 192.035156 77.15625 L 192.667969 56.164062 L 221.15625 57.023438 Z M 220.523438 78.011719 " clip-rule="nonzero"/></clipPath><clipPath id="5bb0cdf151"><path d="M 220.523438 78.011719 L 192.035156 77.15625 L 192.667969 56.164062 L 221.15625 57.023438 Z M 220.523438 78.011719 " clip-rule="nonzero"/></clipPath><clipPath id="114a94f622"><path d="M 204 56 L 222 56 L 222 78 L 204 78 Z M 204 56 " clip-rule="nonzero"/></clipPath><clipPath id="18f2363dc3"><path d="M 220.523438 78.011719 L 192.035156 77.15625 L 192.667969 56.164062 L 221.15625 57.023438 Z M 220.523438 78.011719 " clip-rule="nonzero"/></clipPath><clipPath id="f7b712497a"><path d="M 220.523438 78.011719 L 192.035156 77.15625 L 192.667969 56.164062 L 221.15625 57.023438 Z M 220.523438 78.011719 " clip-rule="nonzero"/></clipPath></defs><g clip-path="url(#587101be4c)"><g clip-path="url(#d48ea84ab2)"><path fill="#737373" d="M 303.75 52.777344 L 303.75 323.039062 L -0.132812 323.039062 L -0.132812 52.777344 Z M 303.75 52.777344 " fill-opacity="1" fill-rule="nonzero"/></g></g><g clip-path="url(#1970083597)"><g clip-path="url(#5856bd1eb8)"><path stroke-linecap="butt" transform="matrix(0.000000000000000046, 0.75, -0.75, 0.000000000000000046, 303.749959, 52.777278)" fill="none" stroke-linejoin="miter" d="M 120.062594 394.442673 C 138.520928 400.817674 159.505305 404.999965 180.099056 404.999965 C 200.692807 404.999965 220.505308 401.416632 238.770934 395.041632 C 239.15635 394.838507 239.546975 394.838507 239.9376 394.64059 C 308.515729 369.145797 359.026148 301.81246 360.000106 224.124956 L 360.000106 -0.0000552182 L 0.000088039 -0.0000552182 L 0.000088039 223.95829 C 0.968838 302.208294 50.708424 369.54163 120.062594 394.442673 " stroke="#000000" stroke-width="4" stroke-opacity="1" stroke-miterlimit="4"/></g></g><g clip-path="url(#a2ca1e7bcd)"><g clip-path="url(#0ba8543040)"><g clip-path="url(#2888bf95cb)"><path fill="#a6a6a6" d="M 243.855469 71.152344 L 257.402344 286.460938 L 42.09375 300.007812 L 28.546875 84.699219 Z M 243.855469 71.152344 " fill-opacity="1" fill-rule="nonzero"/></g></g></g><g clip-path="url(#1d602842b6)"><g clip-path="url(#e8db9d800a)"><g clip-path="url(#125a5c20c2)"><g clip-path="url(#4127c6dd67)"><path stroke-linecap="butt" transform="matrix(0.0470959, 0.74852, -0.74852, 0.0470959, 243.857015, 71.151892)" fill="none" stroke-linejoin="miter" d="M 143.998507 -0.0025052 C 64.471696 -0.00155708 -0.00107356 64.472993 -0.000125436 143.999804 C 0.000822684 223.526615 64.470175 287.999058 144.002184 287.998437 C 223.528995 287.997488 288.001437 223.528136 288.000489 144.001325 C 287.999868 64.469316 223.530189 0.00207179 143.998507 -0.0025052 " stroke="#000000" stroke-width="8" stroke-opacity="1" stroke-miterlimit="4"/></g></g></g></g><g clip-path="url(#00825b1ca2)"><g clip-path="url(#641065b55e)"><g clip-path="url(#538da96eae)"><path fill="#ffde59" d="M 208.667969 169.503906 L 210.214844 187.046875 L 178.414062 189.855469 L 176.867188 172.308594 Z M 208.667969 169.503906 " fill-opacity="1" fill-rule="nonzero"/></g></g></g><g clip-path="url(#e3dc6f1f4b)"><g clip-path="url(#4681a70e34)"><g clip-path="url(#503c990292)"><path fill="#ffde59" d="M 123.039062 209.8125 L 138.925781 217.417969 L 125.140625 246.210938 L 109.253906 238.605469 Z M 123.039062 209.8125 " fill-opacity="1" fill-rule="nonzero"/></g></g></g><g clip-path="url(#8b46afd3df)"><g clip-path="url(#40c6cdc9c0)"><g clip-path="url(#1e92b16b35)"><path fill="#ffde59" d="M 82.414062 167.769531 L 151.777344 119.597656 L 193.554688 179.753906 L 124.191406 227.925781 Z M 82.414062 167.769531 " fill-opacity="1" fill-rule="nonzero"/></g></g></g><g clip-path="url(#54cab92c90)"><g clip-path="url(#d6afb36dd9)"><g clip-path="url(#b1252074e2)"><path fill="#ffde59" d="M 105.328125 142.242188 L 119.796875 132.195312 L 138.007812 158.417969 L 123.539062 168.464844 Z M 105.328125 142.242188 " fill-opacity="1" fill-rule="nonzero"/></g></g></g><g clip-path="url(#6acd9b2d2a)"><g clip-path="url(#1a4ba89711)"><g clip-path="url(#4a6688a5c9)"><path fill="#ffde59" d="M 93.035156 158.824219 L 62.367188 112.421875 L 108.773438 81.753906 L 139.441406 128.15625 Z M 93.035156 158.824219 " fill-opacity="1" fill-rule="nonzero"/></g></g></g><g clip-path="url(#0c6dee91f5)"><g clip-path="url(#c89a997af1)"><g clip-path="url(#69531064c5)"><g clip-path="url(#81f79a41a8)"><path fill="#000000" d="M 80.234375 134.023438 C 83.296875 138.65625 87.4375 141.890625 92.664062 143.726562 L 90.679688 149.375 C 84.1875 147.09375 79.039062 143.078125 75.238281 137.324219 Z M 95.230469 144.476562 C 100.640625 145.742188 105.867188 145.257812 110.914062 143.011719 L 113.347656 148.484375 C 107.074219 151.273438 100.578125 151.878906 93.863281 150.304688 Z M 113.289062 141.800781 C 113.710938 141.554688 114.128906 141.296875 114.535156 141.027344 C 118.730469 138.257812 121.792969 134.5625 123.722656 129.945312 L 129.246094 132.253906 C 126.847656 137.992188 123.042969 142.582031 117.835938 146.023438 C 117.332031 146.355469 116.816406 146.675781 116.296875 146.976562 Z M 124.617188 127.425781 C 126.199219 122.09375 126.015625 116.84375 124.070312 111.671875 L 129.671875 109.5625 C 132.09375 115.988281 132.320312 122.507812 130.359375 129.125 Z M 123 109.242188 C 122.566406 108.378906 122.078125 107.539062 121.539062 106.722656 C 119.054688 102.960938 115.796875 100.097656 111.769531 98.132812 L 114.394531 92.75 C 119.402344 95.195312 123.449219 98.75 126.535156 103.421875 C 127.203125 104.429688 127.804688 105.46875 128.347656 106.542969 Z M 109.308594 97.09375 C 104.082031 95.207031 98.832031 95.082031 93.554688 96.71875 L 91.78125 91.003906 C 98.332031 88.96875 104.851562 89.121094 111.339844 91.460938 Z M 91.046875 97.652344 C 89.722656 98.226562 88.453125 98.917969 87.238281 99.71875 C 83.902344 101.925781 81.257812 104.757812 79.3125 108.21875 L 74.09375 105.28125 C 76.515625 100.980469 79.792969 97.460938 83.9375 94.726562 C 85.441406 93.730469 87.019531 92.875 88.664062 92.160156 Z M 78.132812 110.609375 C 75.949219 115.714844 75.519531 120.953125 76.847656 126.320312 L 71.035156 127.757812 C 69.386719 121.089844 69.917969 114.589844 72.628906 108.253906 Z M 77.628906 128.878906 C 78.292969 130.683594 79.160156 132.398438 80.234375 134.023438 L 75.238281 137.324219 C 73.910156 135.3125 72.832031 133.183594 72.007812 130.9375 Z M 77.628906 128.878906 " fill-opacity="1" fill-rule="nonzero"/></g></g></g></g><g clip-path="url(#61b25e48f5)"><g clip-path="url(#f9532afaec)"><g clip-path="url(#7ff172883c)"><path fill="#ffde59" d="M 74.402344 268.367188 L 98.125 218.054688 L 148.433594 241.777344 L 124.714844 292.085938 Z M 74.402344 268.367188 " fill-opacity="1" fill-rule="nonzero"/></g></g></g><g clip-path="url(#5ae875247b)"><g clip-path="url(#8d294cef28)"><g clip-path="url(#747d05795e)"><g clip-path="url(#366888bedc)"><path fill="#000000" d="M 88.945312 244.542969 C 86.578125 249.566406 85.964844 254.789062 87.109375 260.207031 L 81.253906 261.445312 C 79.828125 254.714844 80.589844 248.230469 83.53125 241.992188 Z M 87.804688 262.789062 C 89.53125 268.070312 92.664062 272.285156 97.203125 275.429688 L 93.789062 280.351562 C 88.148438 276.441406 84.257812 271.207031 82.113281 264.648438 Z M 99.472656 276.832031 C 99.902344 277.0625 100.335938 277.285156 100.78125 277.492188 C 105.328125 279.636719 110.074219 280.335938 115.019531 279.585938 L 115.917969 285.503906 C 109.769531 286.4375 103.871094 285.570312 98.226562 282.910156 C 97.679688 282.652344 97.140625 282.378906 96.609375 282.089844 Z M 117.640625 279.042969 C 123.019531 277.625 127.410156 274.738281 130.816406 270.390625 L 135.527344 274.082031 C 131.296875 279.488281 125.84375 283.070312 119.167969 284.832031 Z M 132.339844 268.214844 C 132.851562 267.394531 133.3125 266.542969 133.730469 265.660156 C 135.652344 261.578125 136.40625 257.308594 135.996094 252.84375 L 141.957031 252.292969 C 142.46875 257.839844 141.535156 263.148438 139.144531 268.210938 C 138.628906 269.304688 138.054688 270.359375 137.421875 271.378906 Z M 135.605469 250.203125 C 134.5 244.757812 131.878906 240.207031 127.742188 236.550781 L 131.703125 232.0625 C 136.847656 236.605469 140.105469 242.253906 141.472656 249.011719 Z M 125.640625 234.890625 C 124.460938 234.058594 123.214844 233.332031 121.894531 232.710938 C 118.277344 231.003906 114.484375 230.21875 110.519531 230.351562 L 110.316406 224.367188 C 115.246094 224.199219 119.957031 225.175781 124.449219 227.292969 C 126.082031 228.0625 127.628906 228.964844 129.09375 230 Z M 107.859375 230.585938 C 102.363281 231.371094 97.664062 233.726562 93.769531 237.648438 L 89.519531 233.429688 C 94.359375 228.558594 100.191406 225.636719 107.015625 224.660156 Z M 91.988281 239.644531 C 90.789062 241.152344 89.773438 242.785156 88.945312 244.542969 L 83.53125 241.992188 C 84.558594 239.808594 85.816406 237.785156 87.308594 235.914062 Z M 91.988281 239.644531 " fill-opacity="1" fill-rule="nonzero"/></g></g></g></g><g clip-path="url(#3dca6d7270)"><g clip-path="url(#6298c1684b)"><g clip-path="url(#2d687b199c)"><path fill="#ffde59" d="M 211.539062 216.289062 L 180.875 169.886719 L 227.277344 139.21875 L 257.945312 185.621094 Z M 211.539062 216.289062 " fill-opacity="1" fill-rule="nonzero"/></g></g></g><g clip-path="url(#73478cbd16)"><g clip-path="url(#452ccd1ba4)"><g clip-path="url(#2bc0da1721)"><g clip-path="url(#ee1133264a)"><path fill="#000000" d="M 198.738281 191.488281 C 201.800781 196.121094 205.945312 199.355469 211.167969 201.191406 L 209.183594 206.839844 C 202.691406 204.558594 197.546875 200.542969 193.742188 194.789062 Z M 213.734375 201.941406 C 219.144531 203.207031 224.375 202.722656 229.421875 200.476562 L 231.851562 205.949219 C 225.578125 208.738281 219.085938 209.34375 212.367188 207.769531 Z M 231.796875 199.265625 C 232.21875 199.019531 232.632812 198.761719 233.042969 198.492188 C 237.234375 195.71875 240.296875 192.027344 242.226562 187.410156 L 247.75 189.71875 C 245.351562 195.457031 241.550781 200.046875 236.34375 203.488281 C 235.835938 203.820312 235.324219 204.140625 234.800781 204.441406 Z M 243.125 184.890625 C 244.703125 179.558594 244.523438 174.304688 242.574219 169.136719 L 248.179688 167.027344 C 250.597656 173.453125 250.828125 179.972656 248.863281 186.589844 Z M 241.507812 166.707031 C 241.070312 165.839844 240.582031 165.003906 240.046875 164.1875 C 237.558594 160.425781 234.300781 157.5625 230.273438 155.597656 L 232.898438 150.214844 C 237.90625 152.660156 241.953125 156.214844 245.042969 160.886719 C 245.707031 161.894531 246.308594 162.933594 246.851562 164.007812 Z M 227.8125 154.554688 C 222.585938 152.671875 217.335938 152.546875 212.0625 154.183594 L 210.285156 148.46875 C 216.839844 146.433594 223.359375 146.585938 229.84375 148.925781 Z M 209.554688 155.117188 C 208.230469 155.691406 206.960938 156.382812 205.742188 157.183594 C 202.40625 159.390625 199.765625 162.222656 197.820312 165.683594 L 192.601562 162.746094 C 195.019531 158.445312 198.300781 154.925781 202.441406 152.191406 C 203.949219 151.195312 205.523438 150.339844 207.167969 149.625 Z M 196.640625 168.074219 C 194.453125 173.179688 194.027344 178.417969 195.351562 183.785156 L 189.539062 185.222656 C 187.890625 178.554688 188.421875 172.054688 191.136719 165.71875 Z M 196.136719 186.339844 C 196.796875 188.148438 197.667969 189.863281 198.738281 191.488281 L 193.742188 194.789062 C 192.414062 192.777344 191.335938 190.648438 190.515625 188.402344 Z M 196.136719 186.339844 " fill-opacity="1" fill-rule="nonzero"/></g></g></g></g><g clip-path="url(#9d8a114cc2)"><g clip-path="url(#84f5024851)"><g clip-path="url(#80e60503ce)"><path fill="#707070" d="M 91.1875 118.542969 L 102.65625 110.578125 L 110.617188 122.046875 L 99.152344 130.007812 Z M 91.1875 118.542969 " fill-opacity="1" fill-rule="nonzero"/></g></g></g><g clip-path="url(#db58102ae5)"><g clip-path="url(#6636fca270)"><g clip-path="url(#560aa64cb8)"><path fill="#707070" d="M 108.078125 245.785156 L 120.703125 251.738281 L 114.75 264.363281 L 102.125 258.410156 Z M 108.078125 245.785156 " fill-opacity="1" fill-rule="nonzero"/></g></g></g><g clip-path="url(#adbce34a1e)"><g clip-path="url(#1bfb3e3637)"><g clip-path="url(#c01511b532)"><path fill="#707070" d="M 209.585938 174.972656 L 221.054688 167.011719 L 229.015625 178.476562 L 217.550781 186.4375 Z M 209.585938 174.972656 " fill-opacity="1" fill-rule="nonzero"/></g></g></g><g clip-path="url(#3263f9de5d)"><g clip-path="url(#121a9ce985)"><g clip-path="url(#912d0fb687)"><g clip-path="url(#22a93d7ecf)"><path fill="#ffffff" d="M 192.132812 139.867188 C 192.167969 139.84375 192.183594 139.8125 192.183594 139.769531 C 192.308594 139.699219 192.484375 139.851562 192.585938 139.675781 C 192.996094 139.484375 192.996094 139.136719 192.929688 138.765625 C 192.742188 137.734375 192.394531 136.753906 191.984375 135.792969 C 190.515625 132.363281 188.398438 129.402344 185.738281 126.792969 C 181.09375 122.242188 175.480469 119.785156 169.140625 118.851562 C 166.203125 118.414062 163.242188 118.507812 160.28125 118.738281 C 158.542969 118.875 156.816406 119.117188 155.085938 119.316406 C 155.023438 119.347656 154.96875 119.386719 154.90625 119.417969 C 154.835938 119.398438 154.746094 119.390625 154.695312 119.34375 C 154.695312 119.34375 154.695312 119.34375 154.695312 119.339844 C 154.65625 119.304688 154.710938 119.246094 154.773438 119.242188 C 155.273438 118.761719 155.851562 118.40625 156.449219 118.082031 C 156.859375 117.859375 157.242188 117.613281 157.542969 117.253906 C 158.429688 116.78125 158.726562 116.035156 158.410156 115.175781 C 156.417969 115.214844 154.84375 116.222656 153.324219 117.378906 C 152.757812 117.808594 152.164062 118.199219 151.578125 118.597656 C 150.175781 119.550781 150.429688 119.492188 150.507812 120.875 C 150.523438 121.183594 150.609375 121.484375 150.726562 121.773438 C 150.769531 121.878906 150.820312 121.972656 150.933594 122.015625 C 150.972656 122.367188 151.246094 122.472656 151.519531 122.558594 C 152.332031 122.824219 153.144531 123.078125 153.957031 123.332031 C 154.089844 123.488281 154.273438 123.523438 154.460938 123.550781 C 154.589844 123.710938 154.773438 123.742188 154.957031 123.785156 C 155.03125 123.914062 155.171875 123.925781 155.285156 123.988281 C 156.824219 124.816406 158.25 125.804688 159.5 127.039062 C 159.59375 127.132812 159.695312 127.214844 159.792969 127.304688 C 159.90625 127.410156 160.039062 127.53125 160.195312 127.441406 C 160.3125 127.375 160.355469 127.1875 160.3125 127.082031 C 160.125 126.601562 160.261719 126.085938 160.125 125.605469 C 160.0625 125.394531 159.917969 125.222656 159.769531 125.054688 C 158.632812 123.742188 157.296875 122.667969 155.847656 121.734375 C 155.71875 121.652344 155.570312 121.585938 155.464844 121.476562 C 155.339844 121.351562 155.429688 121.238281 155.546875 121.152344 C 155.703125 121.234375 155.84375 121.207031 155.972656 121.09375 C 156.128906 121.136719 156.285156 121.167969 156.421875 121.035156 C 156.453125 121.066406 156.480469 121.0625 156.507812 121.027344 C 156.65625 121.074219 156.800781 121.09375 156.933594 120.980469 C 157.042969 120.988281 157.148438 121.015625 157.257812 121.003906 C 158.441406 120.90625 159.617188 120.789062 160.800781 120.707031 C 161.875 120.628906 162.949219 120.585938 164.019531 120.527344 C 164.304688 120.546875 164.589844 120.578125 164.875 120.585938 C 167.636719 120.683594 170.34375 121.113281 172.976562 121.953125 C 173.917969 122.253906 174.847656 122.582031 175.78125 122.898438 C 175.917969 123.0625 176.113281 123.089844 176.3125 123.117188 C 176.441406 123.277344 176.625 123.308594 176.8125 123.339844 C 176.921875 123.5 177.105469 123.515625 177.273438 123.558594 C 177.335938 123.671875 177.441406 123.707031 177.5625 123.707031 C 177.589844 123.746094 177.625 123.761719 177.671875 123.75 C 177.746094 123.875 177.886719 123.894531 177.996094 123.957031 C 178.542969 124.273438 179.144531 124.488281 179.652344 124.871094 C 179.722656 124.84375 179.898438 124.878906 179.726562 124.714844 C 179.609375 124.605469 179.617188 124.558594 179.667969 124.539062 C 179.710938 124.519531 179.789062 124.519531 179.84375 124.515625 C 181.542969 125.566406 183.089844 126.8125 184.558594 128.164062 C 184.679688 128.304688 184.808594 128.441406 184.933594 128.578125 C 185.675781 129.40625 186.421875 130.230469 187.164062 131.054688 C 187.167969 131.101562 187.1875 131.136719 187.214844 131.164062 C 187.230469 131.183594 187.253906 131.195312 187.28125 131.207031 C 187.289062 131.28125 187.328125 131.332031 187.398438 131.355469 C 187.402344 131.433594 187.441406 131.480469 187.511719 131.503906 C 187.515625 131.582031 187.554688 131.628906 187.628906 131.652344 C 187.628906 131.730469 187.667969 131.78125 187.742188 131.804688 C 187.738281 131.882812 187.777344 131.929688 187.851562 131.953125 L 187.851562 131.957031 C 187.851562 132.03125 187.886719 132.082031 187.960938 132.105469 C 187.992188 132.15625 188.027344 132.207031 188.066406 132.257812 L 188.070312 132.261719 C 188.070312 132.339844 188.101562 132.386719 188.175781 132.410156 L 188.179688 132.417969 C 188.179688 132.492188 188.210938 132.542969 188.285156 132.566406 L 188.289062 132.570312 C 188.289062 132.570312 188.289062 132.574219 188.289062 132.574219 C 188.289062 132.574219 188.289062 132.570312 188.289062 132.570312 C 188.285156 132.648438 188.320312 132.699219 188.394531 132.722656 L 188.394531 132.726562 C 188.390625 132.804688 188.425781 132.855469 188.5 132.878906 C 188.5 132.957031 188.535156 133.011719 188.605469 133.035156 C 188.902344 133.535156 189.191406 134.03125 189.488281 134.527344 C 189.722656 134.738281 189.828125 135.03125 189.96875 135.300781 C 189.949219 135.332031 189.925781 135.351562 189.898438 135.371094 C 189.855469 135.394531 189.8125 135.40625 189.757812 135.402344 C 189.839844 135.617188 189.910156 135.839844 190.089844 136 C 190.148438 136.046875 190.195312 136.097656 190.226562 136.167969 C 190.179688 136.113281 190.136719 136.054688 190.089844 136 C 190.101562 136.074219 190.125 136.144531 190.203125 136.160156 C 190.183594 136.277344 190.226562 136.367188 190.3125 136.441406 C 190.296875 136.515625 190.316406 136.570312 190.390625 136.601562 C 190.394531 136.679688 190.417969 136.746094 190.492188 136.78125 C 190.488281 136.820312 190.496094 136.855469 190.527344 136.882812 C 190.574219 137.105469 190.664062 137.308594 190.800781 137.488281 C 190.84375 137.644531 190.878906 137.804688 190.996094 137.925781 C 190.984375 138.035156 191.046875 138.117188 191.101562 138.203125 C 191.261719 138.820312 191.53125 139.402344 191.578125 140.082031 C 191.785156 139.960938 192.015625 140.078125 192.132812 139.867188 Z M 156.53125 120.898438 C 156.535156 120.898438 156.535156 120.898438 156.535156 120.898438 C 156.535156 120.902344 156.535156 120.902344 156.535156 120.90625 C 156.53125 120.902344 156.53125 120.898438 156.53125 120.898438 Z M 188.675781 132.484375 C 188.667969 132.46875 188.664062 132.457031 188.65625 132.441406 C 188.660156 132.445312 188.660156 132.449219 188.664062 132.453125 C 188.671875 132.460938 188.679688 132.472656 188.6875 132.484375 C 188.683594 132.484375 188.679688 132.484375 188.675781 132.484375 Z M 187.175781 131.058594 C 187.175781 131.058594 187.179688 131.058594 187.179688 131.054688 C 187.183594 131.054688 187.1875 131.050781 187.191406 131.046875 L 187.207031 131.039062 L 187.179688 131.058594 C 187.175781 131.058594 187.179688 131.058594 187.179688 131.0625 C 187.179688 131.058594 187.175781 131.058594 187.175781 131.058594 Z M 188.746094 132.484375 C 188.726562 132.484375 188.707031 132.484375 188.691406 132.484375 C 188.683594 132.472656 188.675781 132.460938 188.667969 132.453125 C 188.6875 132.472656 188.710938 132.484375 188.746094 132.484375 Z M 188.621094 132.382812 C 188.613281 132.367188 188.605469 132.355469 188.597656 132.34375 C 188.597656 132.34375 188.597656 132.339844 188.597656 132.339844 C 188.605469 132.355469 188.613281 132.367188 188.621094 132.382812 Z M 192.21875 138.660156 C 192.222656 138.660156 192.222656 138.664062 192.226562 138.664062 C 192.226562 138.664062 192.226562 138.667969 192.226562 138.667969 C 192.226562 138.667969 192.226562 138.671875 192.226562 138.671875 C 192.222656 138.667969 192.222656 138.664062 192.21875 138.660156 Z M 192.148438 138.386719 C 192.148438 138.382812 192.148438 138.382812 192.148438 138.378906 C 192.144531 138.382812 192.148438 138.386719 192.148438 138.386719 Z M 190.328125 136.21875 C 190.339844 136.214844 190.355469 136.214844 190.371094 136.207031 C 190.367188 136.21875 190.367188 136.226562 190.367188 136.234375 C 190.351562 136.226562 190.339844 136.222656 190.328125 136.21875 Z M 190.488281 136.691406 C 190.5 136.710938 190.503906 136.738281 190.503906 136.765625 C 190.5 136.738281 190.496094 136.714844 190.488281 136.691406 Z M 190.488281 136.691406 " fill-opacity="1" fill-rule="nonzero"/></g></g></g></g><g clip-path="url(#18a223e588)"><g clip-path="url(#774ada6bab)"><g clip-path="url(#d861c5bacd)"><g clip-path="url(#5033a2be77)"><path fill="#ffffff" d="M 188.074219 132.261719 C 188.039062 132.210938 188.003906 132.164062 187.972656 132.113281 C 187.96875 132.191406 188.003906 132.242188 188.074219 132.261719 Z M 188.074219 132.261719 " fill-opacity="1" fill-rule="nonzero"/></g></g></g></g><g clip-path="url(#1c430bdf8d)"><g clip-path="url(#36eb9daeb1)"><g clip-path="url(#b3493140a6)"><g clip-path="url(#a6fda9381f)"><path fill="#ffffff" d="M 161.140625 246.703125 C 161.140625 246.742188 161.15625 246.777344 161.191406 246.800781 C 161.179688 246.941406 160.949219 246.996094 161.035156 247.183594 C 160.957031 247.628906 161.242188 247.828125 161.582031 247.988281 C 162.535156 248.429688 163.539062 248.707031 164.558594 248.925781 C 168.210938 249.699219 171.847656 249.671875 175.511719 248.996094 C 181.90625 247.820312 187.148438 244.640625 191.5625 240 C 193.609375 237.847656 195.238281 235.371094 196.75 232.816406 C 197.640625 231.316406 198.4375 229.765625 199.273438 228.234375 C 199.277344 228.167969 199.28125 228.101562 199.289062 228.03125 C 199.347656 227.984375 199.40625 227.914062 199.472656 227.902344 C 199.472656 227.902344 199.472656 227.902344 199.476562 227.902344 C 199.527344 227.894531 199.542969 227.96875 199.511719 228.027344 C 199.617188 228.707031 199.574219 229.386719 199.496094 230.0625 C 199.441406 230.527344 199.421875 230.980469 199.542969 231.433594 C 199.417969 232.429688 199.855469 233.101562 200.742188 233.335938 C 201.855469 231.683594 201.9375 229.816406 201.871094 227.910156 C 201.84375 227.199219 201.867188 226.492188 201.875 225.785156 C 201.90625 224.085938 201.804688 224.328125 200.632812 223.59375 C 200.367188 223.429688 200.074219 223.328125 199.769531 223.257812 C 199.65625 223.234375 199.554688 223.21875 199.453125 223.289062 C 199.144531 223.117188 198.902344 223.28125 198.671875 223.453125 C 197.988281 223.964844 197.3125 224.484375 196.636719 225 C 196.433594 225.019531 196.296875 225.148438 196.167969 225.289062 C 195.964844 225.300781 195.828125 225.433594 195.691406 225.558594 C 195.542969 225.546875 195.449219 225.652344 195.335938 225.710938 C 193.773438 226.492188 192.144531 227.085938 190.417969 227.398438 C 190.285156 227.421875 190.160156 227.457031 190.03125 227.488281 C 189.875 227.519531 189.703125 227.554688 189.683594 227.734375 C 189.671875 227.871094 189.800781 228.011719 189.914062 228.039062 C 190.410156 228.164062 190.757812 228.574219 191.226562 228.734375 C 191.4375 228.808594 191.660156 228.789062 191.882812 228.765625 C 193.609375 228.589844 195.253906 228.113281 196.855469 227.46875 C 197 227.410156 197.136719 227.328125 197.285156 227.300781 C 197.460938 227.269531 197.5 227.410156 197.503906 227.554688 C 197.347656 227.636719 197.285156 227.765625 197.308594 227.9375 C 197.179688 228.042969 197.066406 228.152344 197.097656 228.339844 C 197.050781 228.347656 197.039062 228.371094 197.050781 228.414062 C 196.929688 228.507812 196.828125 228.617188 196.847656 228.789062 C 196.777344 228.875 196.695312 228.949219 196.640625 229.042969 C 196.039062 230.0625 195.457031 231.09375 194.84375 232.109375 C 194.289062 233.03125 193.707031 233.933594 193.136719 234.84375 C 192.957031 235.066406 192.769531 235.28125 192.597656 235.507812 C 190.929688 237.710938 189.019531 239.679688 186.816406 241.347656 C 186.03125 241.945312 185.226562 242.515625 184.429688 243.097656 C 184.214844 243.117188 184.082031 243.261719 183.945312 243.402344 C 183.738281 243.417969 183.609375 243.550781 183.476562 243.6875 C 183.28125 243.683594 183.164062 243.824219 183.03125 243.9375 C 182.902344 243.925781 182.8125 243.992188 182.742188 244.089844 C 182.695312 244.089844 182.664062 244.109375 182.644531 244.152344 C 182.5 244.140625 182.40625 244.246094 182.289062 244.300781 C 181.714844 244.566406 181.195312 244.933594 180.585938 245.128906 C 180.570312 245.203125 180.4375 245.324219 180.671875 245.277344 C 180.832031 245.246094 180.863281 245.277344 180.851562 245.332031 C 180.839844 245.375 180.796875 245.441406 180.769531 245.492188 C 178.929688 246.273438 177.019531 246.820312 175.070312 247.242188 C 174.886719 247.265625 174.699219 247.289062 174.515625 247.308594 C 173.414062 247.445312 172.308594 247.578125 171.207031 247.710938 C 171.167969 247.6875 171.128906 247.679688 171.089844 247.6875 C 171.0625 247.691406 171.039062 247.703125 171.015625 247.71875 C 170.949219 247.683594 170.886719 247.6875 170.828125 247.730469 C 170.761719 247.6875 170.699219 247.691406 170.640625 247.738281 C 170.574219 247.695312 170.511719 247.699219 170.453125 247.746094 C 170.386719 247.703125 170.324219 247.703125 170.265625 247.75 C 170.199219 247.707031 170.136719 247.707031 170.078125 247.757812 L 170.074219 247.753906 C 170.011719 247.710938 169.949219 247.710938 169.890625 247.757812 L 169.886719 247.757812 C 169.828125 247.753906 169.765625 247.753906 169.703125 247.757812 L 169.699219 247.757812 C 169.636719 247.710938 169.578125 247.710938 169.515625 247.757812 L 169.507812 247.757812 C 169.449219 247.710938 169.386719 247.710938 169.324219 247.757812 L 169.320312 247.757812 C 169.320312 247.757812 169.316406 247.757812 169.316406 247.757812 C 169.316406 247.757812 169.320312 247.757812 169.320312 247.757812 C 169.257812 247.710938 169.195312 247.710938 169.136719 247.757812 L 169.132812 247.757812 C 169.070312 247.707031 169.007812 247.707031 168.949219 247.753906 L 168.945312 247.753906 C 168.882812 247.707031 168.820312 247.707031 168.757812 247.75 C 168.179688 247.703125 167.605469 247.65625 167.03125 247.609375 C 166.722656 247.679688 166.421875 247.597656 166.121094 247.558594 C 166.105469 247.527344 166.105469 247.492188 166.105469 247.460938 C 166.109375 247.414062 166.125 247.371094 166.160156 247.328125 C 165.933594 247.273438 165.714844 247.203125 165.480469 247.253906 C 165.410156 247.277344 165.339844 247.289062 165.265625 247.273438 C 165.335938 247.265625 165.40625 247.261719 165.480469 247.253906 C 165.410156 247.222656 165.34375 247.203125 165.28125 247.257812 C 165.199219 247.175781 165.101562 247.160156 164.992188 247.183594 C 164.9375 247.128906 164.878906 247.113281 164.8125 247.15625 C 164.746094 247.117188 164.683594 247.09375 164.609375 247.132812 C 164.578125 247.109375 164.546875 247.097656 164.507812 247.105469 C 164.296875 247.015625 164.078125 246.972656 163.851562 246.980469 C 163.699219 246.925781 163.550781 246.863281 163.382812 246.890625 C 163.300781 246.820312 163.195312 246.820312 163.097656 246.816406 C 162.5 246.589844 161.867188 246.480469 161.285156 246.125 C 161.265625 246.363281 161.035156 246.484375 161.140625 246.703125 Z M 197.144531 228.507812 C 197.144531 228.507812 197.144531 228.507812 197.140625 228.511719 C 197.144531 228.511719 197.144531 228.511719 197.144531 228.511719 C 197.144531 228.511719 197.140625 228.511719 197.140625 228.511719 C 197.140625 228.507812 197.140625 228.507812 197.136719 228.507812 C 197.140625 228.507812 197.140625 228.507812 197.144531 228.507812 Z M 169.167969 248.125 C 169.183594 248.128906 169.199219 248.128906 169.214844 248.132812 C 169.210938 248.132812 169.207031 248.132812 169.203125 248.132812 C 169.1875 248.132812 169.175781 248.132812 169.164062 248.132812 C 169.164062 248.132812 169.164062 248.128906 169.167969 248.125 Z M 171.199219 247.71875 C 171.199219 247.71875 171.199219 247.722656 171.199219 247.722656 C 171.199219 247.726562 171.199219 247.734375 171.199219 247.738281 L 171.195312 247.753906 L 171.199219 247.722656 C 171.195312 247.71875 171.195312 247.71875 171.195312 247.71875 C 171.195312 247.71875 171.195312 247.71875 171.199219 247.71875 Z M 169.128906 248.179688 C 169.140625 248.164062 169.152344 248.148438 169.160156 248.136719 C 169.171875 248.136719 169.1875 248.136719 169.199219 248.136719 C 169.171875 248.140625 169.148438 248.15625 169.128906 248.179688 Z M 169.285156 248.140625 C 169.300781 248.140625 169.3125 248.140625 169.328125 248.140625 C 169.328125 248.144531 169.332031 248.140625 169.332031 248.144531 C 169.316406 248.140625 169.300781 248.140625 169.285156 248.140625 Z M 162.078125 247.46875 C 162.074219 247.46875 162.074219 247.46875 162.070312 247.46875 C 162.066406 247.46875 162.066406 247.464844 162.066406 247.464844 C 162.070312 247.464844 162.070312 247.464844 162.078125 247.46875 Z M 162.34375 247.566406 C 162.34375 247.566406 162.347656 247.570312 162.351562 247.570312 C 162.347656 247.566406 162.34375 247.566406 162.34375 247.566406 Z M 165.164062 247.328125 C 165.15625 247.335938 165.152344 247.351562 165.148438 247.367188 C 165.140625 247.359375 165.136719 247.355469 165.128906 247.347656 C 165.140625 247.339844 165.152344 247.332031 165.164062 247.328125 Z M 164.683594 247.183594 C 164.660156 247.183594 164.636719 247.171875 164.617188 247.15625 C 164.640625 247.167969 164.660156 247.179688 164.683594 247.183594 Z M 164.683594 247.183594 " fill-opacity="1" fill-rule="nonzero"/></g></g></g></g><g clip-path="url(#1400c88617)"><g clip-path="url(#1dcf52283f)"><g clip-path="url(#830481e97f)"><g clip-path="url(#5ca34abc16)"><path fill="#ffffff" d="M 169.695312 247.761719 C 169.753906 247.761719 169.816406 247.761719 169.878906 247.761719 C 169.816406 247.714844 169.753906 247.714844 169.695312 247.761719 Z M 169.695312 247.761719 " fill-opacity="1" fill-rule="nonzero"/></g></g></g></g><g clip-path="url(#dc556cfabf)"><g clip-path="url(#2d8d8a7a02)"><g clip-path="url(#545036df6c)"><g clip-path="url(#b0b3290c7a)"><path fill="#ffffff" d="M 84.351562 168.734375 C 84.320312 168.710938 84.28125 168.707031 84.242188 168.722656 C 84.132812 168.628906 84.21875 168.410156 84.015625 168.375 C 83.695312 168.054688 83.367188 168.175781 83.042969 168.363281 C 82.136719 168.894531 81.339844 169.5625 80.578125 170.277344 C 77.859375 172.835938 75.808594 175.839844 74.273438 179.234375 C 71.597656 185.160156 71.21875 191.277344 72.519531 197.550781 C 73.121094 200.460938 74.226562 203.210938 75.460938 205.910156 C 76.1875 207.496094 77.007812 209.03125 77.789062 210.589844 C 77.84375 210.636719 77.894531 210.675781 77.949219 210.722656 C 77.953125 210.796875 77.980469 210.882812 77.949219 210.945312 C 77.949219 210.945312 77.949219 210.945312 77.949219 210.949219 C 77.925781 210.996094 77.855469 210.964844 77.828125 210.90625 C 77.207031 210.605469 76.675781 210.183594 76.164062 209.734375 C 75.8125 209.425781 75.449219 209.152344 75.007812 208.992188 C 74.261719 208.320312 73.460938 208.296875 72.761719 208.890625 C 73.484375 210.75 74.96875 211.882812 76.578125 212.910156 C 77.175781 213.292969 77.746094 213.714844 78.320312 214.128906 C 79.699219 215.121094 79.558594 214.898438 80.828125 214.355469 C 81.113281 214.230469 81.367188 214.046875 81.597656 213.835938 C 81.679688 213.761719 81.753906 213.679688 81.753906 213.5625 C 82.070312 213.402344 82.074219 213.109375 82.0625 212.824219 C 82.03125 211.972656 81.988281 211.121094 81.953125 210.269531 C 82.050781 210.09375 82.019531 209.90625 81.980469 209.722656 C 82.089844 209.546875 82.054688 209.359375 82.03125 209.171875 C 82.125 209.0625 82.089844 208.921875 82.109375 208.792969 C 82.355469 207.066406 82.796875 205.390625 83.523438 203.792969 C 83.582031 203.671875 83.625 203.546875 83.675781 203.425781 C 83.734375 203.277344 83.804688 203.113281 83.664062 203 C 83.5625 202.910156 83.371094 202.9375 83.285156 203.011719 C 82.898438 203.351562 82.367188 203.402344 81.964844 203.695312 C 81.785156 203.828125 81.675781 204.019531 81.566406 204.21875 C 80.726562 205.738281 80.179688 207.359375 79.800781 209.042969 C 79.765625 209.195312 79.753906 209.355469 79.691406 209.492188 C 79.617188 209.652344 79.480469 209.605469 79.355469 209.527344 C 79.378906 209.351562 79.308594 209.226562 79.152344 209.148438 C 79.140625 208.984375 79.117188 208.828125 78.945312 208.746094 C 78.964844 208.703125 78.953125 208.679688 78.910156 208.664062 C 78.902344 208.511719 78.871094 208.367188 78.71875 208.28125 C 78.6875 208.175781 78.675781 208.066406 78.628906 207.96875 C 78.132812 206.894531 77.617188 205.828125 77.128906 204.746094 C 76.6875 203.765625 76.277344 202.769531 75.855469 201.78125 C 75.777344 201.507812 75.710938 201.230469 75.617188 200.960938 C 74.761719 198.335938 74.234375 195.644531 74.117188 192.882812 C 74.074219 191.898438 74.0625 190.910156 74.039062 189.925781 C 74.144531 189.738281 74.101562 189.546875 74.0625 189.351562 C 74.171875 189.175781 74.132812 188.992188 74.097656 188.804688 C 74.210938 188.644531 74.164062 188.46875 74.144531 188.296875 C 74.230469 188.199219 74.226562 188.085938 74.183594 187.972656 C 74.214844 187.933594 74.214844 187.898438 74.1875 187.855469 C 74.28125 187.746094 74.25 187.605469 74.269531 187.480469 C 74.378906 186.859375 74.375 186.21875 74.5625 185.609375 C 74.507812 185.554688 74.484375 185.375 74.390625 185.597656 C 74.324219 185.742188 74.28125 185.75 74.242188 185.710938 C 74.210938 185.675781 74.1875 185.605469 74.160156 185.550781 C 74.566406 183.597656 75.203125 181.714844 75.96875 179.871094 C 76.054688 179.707031 76.140625 179.542969 76.226562 179.378906 C 76.746094 178.394531 77.265625 177.410156 77.785156 176.429688 C 77.828125 176.410156 77.855469 176.382812 77.871094 176.347656 C 77.882812 176.324219 77.886719 176.296875 77.886719 176.265625 C 77.957031 176.234375 77.988281 176.179688 77.984375 176.109375 C 78.058594 176.078125 78.089844 176.023438 78.085938 175.949219 C 78.15625 175.921875 78.191406 175.867188 78.1875 175.789062 C 78.257812 175.761719 78.292969 175.710938 78.289062 175.632812 C 78.363281 175.605469 78.398438 175.554688 78.390625 175.476562 L 78.394531 175.476562 C 78.464844 175.449219 78.5 175.398438 78.496094 175.324219 L 78.5 175.320312 C 78.535156 175.273438 78.570312 175.222656 78.601562 175.167969 L 78.605469 175.164062 C 78.679688 175.140625 78.714844 175.089844 78.710938 175.015625 L 78.714844 175.007812 C 78.785156 174.984375 78.824219 174.9375 78.820312 174.859375 L 78.824219 174.851562 C 78.898438 174.832031 78.933594 174.78125 78.929688 174.703125 L 78.929688 174.699219 C 79.003906 174.675781 79.039062 174.625 79.035156 174.550781 L 79.039062 174.546875 C 79.113281 174.523438 79.148438 174.472656 79.148438 174.394531 C 79.515625 173.949219 79.882812 173.503906 80.25 173.054688 C 80.367188 172.761719 80.605469 172.5625 80.808594 172.335938 C 80.84375 172.347656 80.871094 172.363281 80.898438 172.382812 C 80.9375 172.410156 80.960938 172.449219 80.976562 172.5 C 81.148438 172.347656 81.332031 172.207031 81.425781 171.984375 C 81.445312 171.914062 81.476562 171.851562 81.53125 171.800781 C 81.496094 171.859375 81.460938 171.921875 81.425781 171.984375 C 81.488281 171.945312 81.546875 171.902344 81.535156 171.820312 C 81.648438 171.800781 81.71875 171.726562 81.761719 171.621094 C 81.835938 171.609375 81.882812 171.574219 81.886719 171.492188 C 81.957031 171.460938 82.011719 171.421875 82.019531 171.339844 C 82.054688 171.328125 82.085938 171.308594 82.101562 171.269531 C 82.296875 171.148438 82.453125 170.996094 82.578125 170.804688 C 82.710938 170.710938 82.847656 170.621094 82.917969 170.46875 C 83.023438 170.441406 83.082031 170.355469 83.144531 170.277344 C 83.667969 169.914062 84.121094 169.457031 84.742188 169.179688 C 84.558594 169.027344 84.589844 168.773438 84.351562 168.734375 Z M 78.777344 208.6875 C 78.777344 208.6875 78.777344 208.6875 78.777344 208.683594 C 78.777344 208.683594 78.777344 208.6875 78.777344 208.6875 C 78.777344 208.683594 78.777344 208.683594 78.777344 208.683594 C 78.78125 208.683594 78.78125 208.683594 78.785156 208.683594 C 78.78125 208.6875 78.78125 208.6875 78.777344 208.6875 Z M 78.605469 174.519531 C 78.597656 174.53125 78.585938 174.542969 78.574219 174.550781 C 78.578125 174.550781 78.578125 174.546875 78.582031 174.542969 C 78.585938 174.53125 78.59375 174.519531 78.601562 174.511719 C 78.601562 174.511719 78.605469 174.515625 78.605469 174.519531 Z M 77.785156 176.417969 C 77.78125 176.417969 77.78125 176.417969 77.78125 176.417969 C 77.777344 176.414062 77.773438 176.414062 77.769531 176.410156 L 77.757812 176.394531 L 77.78125 176.417969 C 77.785156 176.417969 77.785156 176.414062 77.785156 176.414062 C 77.785156 176.414062 77.785156 176.417969 77.785156 176.417969 Z M 78.582031 174.457031 C 78.589844 174.472656 78.597656 174.492188 78.601562 174.507812 C 78.59375 174.515625 78.585938 174.527344 78.582031 174.539062 C 78.59375 174.515625 78.59375 174.484375 78.582031 174.457031 Z M 78.527344 174.605469 C 78.519531 174.617188 78.511719 174.632812 78.503906 174.640625 C 78.5 174.640625 78.5 174.644531 78.5 174.644531 C 78.507812 174.632812 78.519531 174.617188 78.527344 174.605469 Z M 83.1875 169.066406 C 83.1875 169.066406 83.191406 169.0625 83.191406 169.0625 C 83.195312 169.0625 83.195312 169.058594 83.199219 169.058594 C 83.195312 169.0625 83.191406 169.0625 83.1875 169.066406 Z M 82.957031 169.230469 C 82.953125 169.230469 82.949219 169.230469 82.949219 169.234375 C 82.953125 169.234375 82.957031 169.230469 82.957031 169.230469 Z M 81.542969 171.6875 C 81.539062 171.671875 81.53125 171.660156 81.523438 171.648438 C 81.53125 171.648438 81.539062 171.644531 81.546875 171.644531 C 81.546875 171.65625 81.546875 171.671875 81.542969 171.6875 Z M 81.9375 171.375 C 81.949219 171.355469 81.972656 171.339844 82 171.332031 C 81.972656 171.34375 81.953125 171.355469 81.9375 171.375 Z M 81.9375 171.375 " fill-opacity="1" fill-rule="nonzero"/></g></g></g></g><g clip-path="url(#79a46060a6)"><g clip-path="url(#e93132c5b7)"><g clip-path="url(#736a2e0475)"><g clip-path="url(#ac9e9ea7b8)"><path fill="#ffffff" d="M 78.605469 175.160156 C 78.570312 175.210938 78.539062 175.261719 78.5 175.308594 C 78.578125 175.285156 78.609375 175.234375 78.605469 175.160156 Z M 78.605469 175.160156 " fill-opacity="1" fill-rule="nonzero"/></g></g></g></g><path stroke-linecap="butt" transform="matrix(0.74987, 0.00605191, -0.00605275, 0.749976, 136.490312, 77.868268)" fill="none" stroke-linejoin="miter" d="M -0.00220337 1.998642 L 223.036361 2.000981 " stroke="#000000" stroke-width="4" stroke-opacity="1" stroke-miterlimit="4"/><path stroke-linecap="butt" transform="matrix(0.750617, -0.00364086, 0.00363783, 0.749991, 135.126205, 291.168432)" fill="none" stroke-linejoin="miter" d="M -0.000887235 1.999401 L 224.814281 2.002221 " stroke="#000000" stroke-width="4" stroke-opacity="1" stroke-miterlimit="4"/><g clip-path="url(#5a6a8b2f3b)"><path fill="#38b6ff" d="M 294.695312 306.992188 L 286.203125 297.5 C 286.019531 297.296875 285.765625 297.183594 285.5 297.183594 L 279.835938 297.183594 C 279.464844 297.183594 279.128906 297.402344 278.972656 297.746094 C 278.824219 298.089844 278.886719 298.488281 279.136719 298.765625 L 287.058594 307.628906 L 279.136719 316.484375 C 278.886719 316.765625 278.820312 317.164062 278.972656 317.507812 C 279.128906 317.851562 279.464844 318.070312 279.835938 318.070312 L 285.5 318.070312 C 285.765625 318.070312 286.019531 317.953125 286.203125 317.757812 L 294.695312 308.261719 C 295.015625 307.902344 295.015625 307.351562 294.695312 306.992188 Z M 294.695312 306.992188 " fill-opacity="1" fill-rule="nonzero"/></g><g clip-path="url(#d1777f1cbf)"><path fill="#38b6ff" d="M 282.425781 306.992188 L 273.933594 297.5 C 273.75 297.296875 273.5 297.183594 273.230469 297.183594 L 267.570312 297.183594 C 267.195312 297.183594 266.859375 297.402344 266.707031 297.746094 C 266.554688 298.089844 266.617188 298.488281 266.867188 298.765625 L 274.792969 307.628906 L 266.867188 316.484375 C 266.617188 316.765625 266.554688 317.164062 266.707031 317.507812 C 266.859375 317.851562 267.195312 318.070312 267.570312 318.070312 L 273.230469 318.070312 C 273.5 318.070312 273.75 317.953125 273.933594 317.757812 L 282.425781 308.261719 C 282.75 307.902344 282.75 307.351562 282.425781 306.992188 Z M 282.425781 306.992188 " fill-opacity="1" fill-rule="nonzero"/></g><g clip-path="url(#0624559b8c)"><path fill="#38b6ff" d="M 257.570312 306.992188 L 249.078125 297.5 C 248.894531 297.296875 248.640625 297.183594 248.375 297.183594 L 242.710938 297.183594 C 242.339844 297.183594 242.003906 297.402344 241.847656 297.746094 C 241.699219 298.089844 241.761719 298.488281 242.007812 298.765625 L 249.933594 307.628906 L 242.007812 316.484375 C 241.761719 316.765625 241.695312 317.164062 241.847656 317.507812 C 242.003906 317.851562 242.339844 318.070312 242.710938 318.070312 L 248.375 318.070312 C 248.640625 318.070312 248.894531 317.953125 249.078125 317.757812 L 257.570312 308.261719 C 257.890625 307.902344 257.890625 307.351562 257.570312 306.992188 Z M 257.570312 306.992188 " fill-opacity="1" fill-rule="nonzero"/></g><g clip-path="url(#1d92c1b01a)"><path fill="#38b6ff" d="M 245.300781 306.992188 L 236.808594 297.5 C 236.625 297.296875 236.375 297.183594 236.105469 297.183594 L 230.445312 297.183594 C 230.070312 297.183594 229.734375 297.402344 229.582031 297.746094 C 229.429688 298.089844 229.492188 298.488281 229.742188 298.765625 L 237.667969 307.628906 L 229.742188 316.484375 C 229.492188 316.765625 229.429688 317.164062 229.582031 317.507812 C 229.734375 317.851562 230.070312 318.070312 230.445312 318.070312 L 236.105469 318.070312 C 236.375 318.070312 236.625 317.953125 236.808594 317.757812 L 245.300781 308.261719 C 245.625 307.902344 245.625 307.351562 245.300781 306.992188 Z M 245.300781 306.992188 " fill-opacity="1" fill-rule="nonzero"/></g><g clip-path="url(#d9076a23c5)"><path fill="#38b6ff" d="M 220.445312 306.992188 L 211.953125 297.5 C 211.769531 297.296875 211.515625 297.183594 211.25 297.183594 L 205.585938 297.183594 C 205.214844 297.183594 204.878906 297.402344 204.722656 297.746094 C 204.574219 298.089844 204.636719 298.488281 204.886719 298.765625 L 212.808594 307.628906 L 204.886719 316.484375 C 204.636719 316.765625 204.570312 317.164062 204.722656 317.507812 C 204.878906 317.851562 205.214844 318.070312 205.585938 318.070312 L 211.25 318.070312 C 211.515625 318.070312 211.769531 317.953125 211.953125 317.757812 L 220.445312 308.261719 C 220.765625 307.902344 220.765625 307.351562 220.445312 306.992188 Z M 220.445312 306.992188 " fill-opacity="1" fill-rule="nonzero"/></g><g clip-path="url(#8bfb33a1fd)"><path fill="#38b6ff" d="M 208.175781 306.992188 L 199.683594 297.5 C 199.5 297.296875 199.25 297.183594 198.980469 297.183594 L 193.320312 297.183594 C 192.945312 297.183594 192.609375 297.402344 192.457031 297.746094 C 192.304688 298.089844 192.367188 298.488281 192.617188 298.765625 L 200.542969 307.628906 L 192.617188 316.484375 C 192.367188 316.765625 192.304688 317.164062 192.457031 317.507812 C 192.609375 317.851562 192.945312 318.070312 193.320312 318.070312 L 198.980469 318.070312 C 199.25 318.070312 199.5 317.953125 199.683594 317.757812 L 208.175781 308.261719 C 208.5 307.902344 208.5 307.351562 208.175781 306.992188 Z M 208.175781 306.992188 " fill-opacity="1" fill-rule="nonzero"/></g><g clip-path="url(#468e7d9a39)"><path fill="#5ce1e6" d="M 183.320312 306.992188 L 174.828125 297.5 C 174.644531 297.296875 174.390625 297.183594 174.125 297.183594 L 168.460938 297.183594 C 168.089844 297.183594 167.753906 297.402344 167.597656 297.746094 C 167.449219 298.089844 167.511719 298.488281 167.761719 298.765625 L 175.683594 307.628906 L 167.761719 316.484375 C 167.511719 316.765625 167.445312 317.164062 167.597656 317.507812 C 167.753906 317.851562 168.089844 318.070312 168.460938 318.070312 L 174.125 318.070312 C 174.390625 318.070312 174.644531 317.953125 174.828125 317.757812 L 183.320312 308.261719 C 183.640625 307.902344 183.640625 307.351562 183.320312 306.992188 Z M 183.320312 306.992188 " fill-opacity="1" fill-rule="nonzero"/></g><g clip-path="url(#945777b65c)"><path fill="#5ce1e6" d="M 171.050781 306.992188 L 162.558594 297.5 C 162.375 297.296875 162.125 297.183594 161.855469 297.183594 L 156.195312 297.183594 C 155.820312 297.183594 155.484375 297.402344 155.332031 297.746094 C 155.179688 298.089844 155.242188 298.488281 155.492188 298.765625 L 163.417969 307.628906 L 155.492188 316.484375 C 155.242188 316.765625 155.179688 317.164062 155.332031 317.507812 C 155.484375 317.851562 155.820312 318.070312 156.195312 318.070312 L 161.855469 318.070312 C 162.125 318.070312 162.375 317.953125 162.558594 317.757812 L 171.050781 308.261719 C 171.375 307.902344 171.375 307.351562 171.050781 306.992188 Z M 171.050781 306.992188 " fill-opacity="1" fill-rule="nonzero"/></g><g clip-path="url(#6370c8d1e9)"><g clip-path="url(#7d2e43d2f2)"><g clip-path="url(#a53f8e9669)"><path fill="#38b6ff" d="M 146.183594 306.746094 L 137.523438 297.402344 C 137.339844 297.207031 137.085938 297.097656 136.816406 297.101562 L 131.15625 297.199219 C 130.785156 297.207031 130.449219 297.433594 130.304688 297.777344 C 130.160156 298.125 130.226562 298.523438 130.480469 298.796875 L 138.5625 307.515625 L 130.792969 316.511719 C 130.550781 316.796875 130.492188 317.195312 130.652344 317.535156 C 130.8125 317.875 131.152344 318.089844 131.523438 318.085938 L 137.1875 317.984375 C 137.453125 317.980469 137.703125 317.859375 137.882812 317.660156 L 146.207031 308.015625 C 146.523438 307.648438 146.511719 307.097656 146.183594 306.746094 Z M 146.183594 306.746094 " fill-opacity="1" fill-rule="nonzero"/></g></g></g><g clip-path="url(#c251a55cd1)"><g clip-path="url(#95a31a2cb0)"><g clip-path="url(#b5b717b889)"><path fill="#38b6ff" d="M 133.917969 306.960938 L 125.257812 297.621094 C 125.074219 297.421875 124.820312 297.3125 124.550781 297.316406 L 118.890625 297.417969 C 118.519531 297.425781 118.183594 297.648438 118.035156 297.996094 C 117.890625 298.339844 117.960938 298.742188 118.214844 299.011719 L 126.296875 307.730469 L 118.527344 316.726562 C 118.285156 317.011719 118.226562 317.414062 118.386719 317.753906 C 118.546875 318.09375 118.886719 318.308594 119.257812 318.300781 L 124.921875 318.199219 C 125.1875 318.195312 125.4375 318.074219 125.617188 317.875 L 133.941406 308.234375 C 134.257812 307.867188 134.246094 307.316406 133.917969 306.960938 Z M 133.917969 306.960938 " fill-opacity="1" fill-rule="nonzero"/></g></g></g><g clip-path="url(#1878db4c57)"><g clip-path="url(#4d4cb43db3)"><g clip-path="url(#c6297fc758)"><path fill="#38b6ff" d="M 99.40625 301.191406 L 97.382812 288.617188 C 97.335938 288.347656 97.1875 288.117188 96.960938 287.972656 L 92.195312 284.914062 C 91.882812 284.714844 91.476562 284.714844 91.164062 284.921875 C 90.851562 285.128906 90.6875 285.5 90.75 285.867188 L 92.636719 297.605469 L 81.183594 300.78125 C 80.824219 300.882812 80.550781 301.183594 80.496094 301.554688 C 80.441406 301.925781 80.605469 302.296875 80.917969 302.496094 L 85.683594 305.554688 C 85.910156 305.699219 86.183594 305.738281 86.445312 305.667969 L 98.71875 302.261719 C 99.1875 302.132812 99.484375 301.667969 99.40625 301.191406 Z M 99.40625 301.191406 " fill-opacity="1" fill-rule="nonzero"/></g></g></g><g clip-path="url(#4b4ec221dc)"><g clip-path="url(#523c9ff73d)"><g clip-path="url(#92e8ff9343)"><path fill="#38b6ff" d="M 89.078125 294.570312 L 87.054688 281.992188 C 87.011719 281.726562 86.859375 281.492188 86.632812 281.347656 L 81.867188 278.292969 C 81.554688 278.089844 81.152344 278.09375 80.839844 278.296875 C 80.527344 278.507812 80.363281 278.878906 80.421875 279.246094 L 82.308594 290.980469 L 70.855469 294.160156 C 70.496094 294.257812 70.226562 294.5625 70.167969 294.933594 C 70.113281 295.304688 70.277344 295.671875 70.589844 295.871094 L 75.359375 298.929688 C 75.582031 299.074219 75.859375 299.113281 76.117188 299.046875 L 88.394531 295.640625 C 88.859375 295.507812 89.15625 295.046875 89.078125 294.570312 Z M 89.078125 294.570312 " fill-opacity="1" fill-rule="nonzero"/></g></g></g><g clip-path="url(#c1b668fc23)"><g clip-path="url(#0ba3c64a00)"><g clip-path="url(#f85f6abca5)"><path fill="#38b6ff" d="M 61.433594 282.320312 L 61.902344 269.589844 C 61.910156 269.316406 61.808594 269.0625 61.613281 268.875 L 57.535156 264.945312 C 57.269531 264.6875 56.871094 264.613281 56.523438 264.753906 C 56.175781 264.894531 55.945312 265.226562 55.929688 265.601562 L 55.492188 277.480469 L 43.640625 278.363281 C 43.265625 278.390625 42.941406 278.632812 42.816406 278.988281 C 42.6875 279.339844 42.777344 279.734375 43.046875 279.992188 L 47.125 283.917969 C 47.316406 284.105469 47.582031 284.195312 47.847656 284.179688 L 60.550781 283.234375 C 61.035156 283.199219 61.414062 282.800781 61.433594 282.320312 Z M 61.433594 282.320312 " fill-opacity="1" fill-rule="nonzero"/></g></g></g><g clip-path="url(#db105a1e04)"><g clip-path="url(#6844876a6d)"><g clip-path="url(#dba0550eed)"><path fill="#38b6ff" d="M 52.597656 273.808594 L 53.066406 261.078125 C 53.074219 260.808594 52.96875 260.550781 52.777344 260.363281 L 48.699219 256.4375 C 48.429688 256.179688 48.035156 256.101562 47.6875 256.242188 C 47.339844 256.386719 47.109375 256.71875 47.09375 257.089844 L 46.65625 268.96875 L 34.804688 269.851562 C 34.429688 269.878906 34.105469 270.125 33.980469 270.476562 C 33.851562 270.828125 33.941406 271.222656 34.210938 271.480469 L 38.289062 275.410156 C 38.480469 275.59375 38.742188 275.6875 39.011719 275.671875 L 51.714844 274.722656 C 52.199219 274.6875 52.578125 274.289062 52.597656 273.808594 Z M 52.597656 273.808594 " fill-opacity="1" fill-rule="nonzero"/></g></g></g><g clip-path="url(#89ae15af7c)"><g clip-path="url(#23e9bcc4ca)"><g clip-path="url(#75f9320d30)"><path fill="#5ce1e6" d="M 36.792969 250.25 L 40.734375 238.136719 C 40.816406 237.878906 40.789062 237.601562 40.652344 237.371094 L 37.808594 232.476562 C 37.621094 232.15625 37.261719 231.972656 36.890625 232.011719 C 36.515625 232.054688 36.199219 232.308594 36.085938 232.664062 L 32.410156 243.96875 L 20.769531 241.570312 C 20.402344 241.492188 20.023438 241.640625 19.804688 241.945312 C 19.585938 242.25 19.5625 242.652344 19.75 242.972656 L 22.597656 247.867188 C 22.730469 248.101562 22.957031 248.261719 23.21875 248.316406 L 35.695312 250.890625 C 36.171875 250.988281 36.648438 250.710938 36.792969 250.25 Z M 36.792969 250.25 " fill-opacity="1" fill-rule="nonzero"/></g></g></g><g clip-path="url(#435ccec1ae)"><g clip-path="url(#febc1b154b)"><g clip-path="url(#5d5f5cdb4c)"><path fill="#5ce1e6" d="M 30.628906 239.644531 L 34.570312 227.53125 C 34.652344 227.273438 34.625 226.996094 34.488281 226.765625 L 31.644531 221.871094 C 31.457031 221.546875 31.097656 221.367188 30.722656 221.40625 C 30.351562 221.449219 30.035156 221.703125 29.921875 222.058594 L 26.246094 233.363281 L 14.601562 230.960938 C 14.238281 230.886719 13.859375 231.035156 13.640625 231.335938 C 13.417969 231.640625 13.398438 232.042969 13.585938 232.367188 L 16.429688 237.261719 C 16.566406 237.492188 16.792969 237.652344 17.054688 237.710938 L 29.53125 240.28125 C 30.003906 240.378906 30.480469 240.105469 30.628906 239.644531 Z M 30.628906 239.644531 " fill-opacity="1" fill-rule="nonzero"/></g></g></g><g clip-path="url(#d2c9172466)"><path fill="#38b6ff" d="M 20.015625 200.003906 L 29.507812 191.511719 C 29.710938 191.332031 29.824219 191.078125 29.824219 190.808594 L 29.824219 185.148438 C 29.824219 184.777344 29.605469 184.4375 29.261719 184.285156 C 28.917969 184.132812 28.515625 184.195312 28.242188 184.445312 L 19.378906 192.371094 L 10.523438 184.445312 C 10.242188 184.195312 9.84375 184.132812 9.5 184.285156 C 9.15625 184.4375 8.9375 184.777344 8.9375 185.148438 L 8.9375 190.808594 C 8.9375 191.078125 9.050781 191.332031 9.25 191.511719 L 18.746094 200.003906 C 19.105469 200.328125 19.65625 200.328125 20.015625 200.003906 Z M 20.015625 200.003906 " fill-opacity="1" fill-rule="nonzero"/></g><g clip-path="url(#58cb65427f)"><path fill="#38b6ff" d="M 20.015625 187.738281 L 29.507812 179.242188 C 29.710938 179.0625 29.824219 178.808594 29.824219 178.542969 L 29.824219 172.878906 C 29.824219 172.507812 29.605469 172.171875 29.261719 172.015625 C 28.917969 171.867188 28.515625 171.929688 28.242188 172.175781 L 19.378906 180.101562 L 10.523438 172.175781 C 10.242188 171.929688 9.84375 171.863281 9.5 172.015625 C 9.15625 172.171875 8.9375 172.507812 8.9375 172.878906 L 8.9375 178.542969 C 8.9375 178.808594 9.050781 179.0625 9.25 179.242188 L 18.746094 187.738281 C 19.105469 188.058594 19.65625 188.058594 20.015625 187.738281 Z M 20.015625 187.738281 " fill-opacity="1" fill-rule="nonzero"/></g><g clip-path="url(#54e10dd765)"><g clip-path="url(#fbbd970661)"><g clip-path="url(#18ad0a9eb2)"><path fill="#38b6ff" d="M 22.28125 145.097656 L 34.921875 143.527344 C 35.191406 143.492188 35.429688 143.347656 35.582031 143.128906 L 38.808594 138.476562 C 39.019531 138.167969 39.03125 137.765625 38.835938 137.445312 C 38.640625 137.125 38.273438 136.949219 37.90625 136.996094 L 26.109375 138.460938 L 23.34375 126.902344 C 23.253906 126.539062 22.960938 126.257812 22.59375 126.191406 C 22.226562 126.121094 21.851562 126.273438 21.640625 126.578125 L 18.414062 131.230469 C 18.261719 131.453125 18.210938 131.726562 18.273438 131.988281 L 21.238281 144.375 C 21.351562 144.847656 21.800781 145.160156 22.28125 145.097656 Z M 22.28125 145.097656 " fill-opacity="1" fill-rule="nonzero"/></g></g></g><g clip-path="url(#3a48d8eff2)"><g clip-path="url(#b1683ef33c)"><g clip-path="url(#f23bdf82b3)"><path fill="#38b6ff" d="M 29.269531 135.015625 L 41.910156 133.441406 C 42.179688 133.410156 42.417969 133.265625 42.570312 133.046875 L 45.792969 128.390625 C 46.007812 128.085938 46.019531 127.683594 45.824219 127.363281 C 45.628906 127.042969 45.261719 126.867188 44.894531 126.914062 L 33.097656 128.378906 L 30.332031 116.820312 C 30.242188 116.457031 29.949219 116.175781 29.582031 116.105469 C 29.210938 116.035156 28.839844 116.1875 28.628906 116.492188 L 25.402344 121.148438 C 25.25 121.367188 25.199219 121.640625 25.261719 121.902344 L 28.226562 134.292969 C 28.335938 134.761719 28.789062 135.078125 29.269531 135.015625 Z M 29.269531 135.015625 " fill-opacity="1" fill-rule="nonzero"/></g></g></g><g clip-path="url(#b00fdc7a6e)"><g clip-path="url(#4c6be2d603)"><g clip-path="url(#6048e15696)"><path fill="#38b6ff" d="M 45.109375 108.90625 L 57.78125 110.222656 C 58.050781 110.25 58.3125 110.164062 58.511719 109.984375 L 62.703125 106.175781 C 62.976562 105.925781 63.078125 105.535156 62.960938 105.179688 C 62.84375 104.824219 62.527344 104.570312 62.15625 104.53125 L 50.332031 103.304688 L 50.242188 91.417969 C 50.238281 91.042969 50.015625 90.703125 49.675781 90.554688 C 49.332031 90.402344 48.933594 90.46875 48.65625 90.71875 L 44.464844 94.523438 C 44.265625 94.703125 44.160156 94.960938 44.15625 95.230469 L 44.253906 107.96875 C 44.257812 108.453125 44.628906 108.859375 45.109375 108.90625 Z M 45.109375 108.90625 " fill-opacity="1" fill-rule="nonzero"/></g></g></g><g clip-path="url(#30f78825c8)"><g clip-path="url(#605c57a81b)"><g clip-path="url(#a2e52c15bc)"><path fill="#38b6ff" d="M 54.1875 100.65625 L 66.859375 101.972656 C 67.128906 102 67.394531 101.914062 67.589844 101.734375 L 71.78125 97.925781 C 72.058594 97.675781 72.160156 97.285156 72.042969 96.929688 C 71.921875 96.574219 71.609375 96.320312 71.238281 96.28125 L 59.414062 95.054688 L 59.324219 83.167969 C 59.320312 82.792969 59.097656 82.453125 58.753906 82.304688 C 58.410156 82.152344 58.011719 82.21875 57.738281 82.46875 L 53.546875 86.273438 C 53.347656 86.457031 53.238281 86.710938 53.238281 86.980469 L 53.335938 99.71875 C 53.339844 100.203125 53.710938 100.609375 54.1875 100.65625 Z M 54.1875 100.65625 " fill-opacity="1" fill-rule="nonzero"/></g></g></g><g clip-path="url(#1b3276a3ad)"><g clip-path="url(#55c803af03)"><g clip-path="url(#bf6bd5111c)"><path fill="#5ce1e6" d="M 75.378906 84.589844 L 87.1875 89.363281 C 87.441406 89.460938 87.71875 89.453125 87.957031 89.335938 L 93.039062 86.835938 C 93.371094 86.671875 93.578125 86.328125 93.566406 85.953125 C 93.550781 85.578125 93.316406 85.246094 92.96875 85.105469 L 81.949219 80.652344 L 85.152344 69.207031 C 85.253906 68.84375 85.136719 68.457031 84.847656 68.21875 C 84.558594 67.976562 84.160156 67.929688 83.824219 68.09375 L 78.742188 70.589844 C 78.503906 70.707031 78.328125 70.925781 78.25 71.179688 L 74.816406 83.449219 C 74.6875 83.914062 74.929688 84.410156 75.378906 84.589844 Z M 75.378906 84.589844 " fill-opacity="1" fill-rule="nonzero"/></g></g></g><g clip-path="url(#32df0dd221)"><g clip-path="url(#870d16af77)"><g clip-path="url(#003c18af66)"><path fill="#5ce1e6" d="M 86.386719 79.175781 L 98.199219 83.949219 C 98.449219 84.050781 98.726562 84.042969 98.96875 83.921875 L 104.050781 81.425781 C 104.382812 81.261719 104.589844 80.914062 104.574219 80.539062 C 104.558594 80.164062 104.328125 79.832031 103.980469 79.695312 L 92.960938 75.238281 L 96.164062 63.792969 C 96.265625 63.433594 96.144531 63.046875 95.859375 62.804688 C 95.570312 62.566406 95.167969 62.515625 94.835938 62.679688 L 89.753906 65.179688 C 89.511719 65.296875 89.335938 65.511719 89.261719 65.769531 L 85.828125 78.035156 C 85.695312 78.503906 85.941406 78.996094 86.386719 79.175781 Z M 86.386719 79.175781 " fill-opacity="1" fill-rule="nonzero"/></g></g></g><g clip-path="url(#880c969a47)"><path fill="#38b6ff" d="M 118.214844 68.148438 L 126.707031 77.640625 C 126.890625 77.84375 127.144531 77.957031 127.410156 77.957031 L 133.074219 77.957031 C 133.445312 77.957031 133.78125 77.738281 133.9375 77.394531 C 134.085938 77.050781 134.023438 76.652344 133.773438 76.375 L 125.851562 67.515625 L 133.773438 58.65625 C 134.023438 58.375 134.089844 57.976562 133.9375 57.632812 C 133.78125 57.289062 133.445312 57.070312 133.074219 57.070312 L 127.410156 57.070312 C 127.144531 57.070312 126.890625 57.1875 126.707031 57.382812 L 118.214844 66.878906 C 117.894531 67.238281 117.894531 67.789062 118.214844 68.148438 Z M 118.214844 68.148438 " fill-opacity="1" fill-rule="nonzero"/></g><g clip-path="url(#ca152b765d)"><path fill="#38b6ff" d="M 130.484375 68.148438 L 138.976562 77.640625 C 139.160156 77.84375 139.410156 77.957031 139.679688 77.957031 L 145.339844 77.957031 C 145.714844 77.957031 146.050781 77.738281 146.203125 77.394531 C 146.355469 77.050781 146.292969 76.652344 146.042969 76.375 L 138.117188 67.515625 L 146.042969 58.65625 C 146.292969 58.375 146.355469 57.976562 146.203125 57.632812 C 146.050781 57.289062 145.714844 57.070312 145.339844 57.070312 L 139.679688 57.070312 C 139.410156 57.070312 139.160156 57.1875 138.976562 57.382812 L 130.484375 66.878906 C 130.160156 67.238281 130.160156 67.789062 130.484375 68.148438 Z M 130.484375 68.148438 " fill-opacity="1" fill-rule="nonzero"/></g><g clip-path="url(#e9618d00dd)"><g clip-path="url(#3d4c7abdb2)"><g clip-path="url(#4d5a39c754)"><path fill="#38b6ff" d="M 154.75 67.308594 L 162.957031 77.050781 C 163.128906 77.257812 163.378906 77.378906 163.648438 77.390625 L 169.308594 77.558594 C 169.679688 77.570312 170.023438 77.359375 170.1875 77.023438 C 170.347656 76.683594 170.296875 76.28125 170.058594 75.996094 L 162.402344 66.902344 L 170.589844 58.289062 C 170.847656 58.015625 170.925781 57.617188 170.78125 57.269531 C 170.640625 56.921875 170.308594 56.691406 169.9375 56.683594 L 164.277344 56.511719 C 164.007812 56.503906 163.753906 56.613281 163.566406 56.804688 L 154.789062 66.039062 C 154.457031 66.386719 154.441406 66.9375 154.75 67.308594 Z M 154.75 67.308594 " fill-opacity="1" fill-rule="nonzero"/></g></g></g><g clip-path="url(#0890da8daa)"><g clip-path="url(#83f31e1b8e)"><g clip-path="url(#954f920490)"><path fill="#38b6ff" d="M 167.015625 67.675781 L 175.21875 77.421875 C 175.394531 77.628906 175.640625 77.75 175.910156 77.757812 L 181.570312 77.929688 C 181.941406 77.941406 182.285156 77.730469 182.449219 77.394531 C 182.609375 77.054688 182.558594 76.652344 182.320312 76.367188 L 174.664062 67.273438 L 182.851562 58.65625 C 183.109375 58.386719 183.1875 57.988281 183.042969 57.640625 C 182.902344 57.292969 182.570312 57.0625 182.199219 57.050781 L 176.539062 56.878906 C 176.269531 56.871094 176.015625 56.980469 175.828125 57.171875 L 167.050781 66.40625 C 166.71875 66.757812 166.703125 67.308594 167.015625 67.675781 Z M 167.015625 67.675781 " fill-opacity="1" fill-rule="nonzero"/></g></g></g><g clip-path="url(#11513e1d88)"><g clip-path="url(#786d636bef)"><g clip-path="url(#0045ce99f2)"><path fill="#38b6ff" d="M 266.402344 67.308594 L 274.609375 77.050781 C 274.78125 77.257812 275.03125 77.378906 275.300781 77.390625 L 280.960938 77.558594 C 281.332031 77.570312 281.675781 77.359375 281.839844 77.023438 C 282 76.683594 281.949219 76.28125 281.710938 75.996094 L 274.054688 66.902344 L 282.242188 58.289062 C 282.5 58.015625 282.578125 57.617188 282.433594 57.269531 C 282.292969 56.921875 281.960938 56.691406 281.589844 56.683594 L 275.929688 56.511719 C 275.660156 56.503906 275.40625 56.613281 275.21875 56.804688 L 266.441406 66.039062 C 266.109375 66.386719 266.09375 66.9375 266.402344 67.308594 Z M 266.402344 67.308594 " fill-opacity="1" fill-rule="nonzero"/></g></g></g><g clip-path="url(#e320a3122d)"><g clip-path="url(#5175e945c3)"><g clip-path="url(#acfd66a139)"><path fill="#38b6ff" d="M 278.667969 67.675781 L 286.871094 77.421875 C 287.046875 77.628906 287.292969 77.75 287.5625 77.757812 L 293.222656 77.929688 C 293.59375 77.941406 293.9375 77.730469 294.101562 77.394531 C 294.261719 77.054688 294.210938 76.652344 293.972656 76.367188 L 286.316406 67.273438 L 294.503906 58.65625 C 294.761719 58.386719 294.839844 57.988281 294.695312 57.640625 C 294.554688 57.292969 294.222656 57.0625 293.851562 57.050781 L 288.191406 56.878906 C 287.921875 56.871094 287.667969 56.980469 287.480469 57.171875 L 278.703125 66.40625 C 278.371094 66.757812 278.355469 67.308594 278.667969 67.675781 Z M 278.667969 67.675781 " fill-opacity="1" fill-rule="nonzero"/></g></g></g><g clip-path="url(#c7655ed037)"><g clip-path="url(#ac3125ffa9)"><g clip-path="url(#6092538a1b)"><path fill="#5ce1e6" d="M 229.277344 67.308594 L 237.484375 77.050781 C 237.65625 77.257812 237.90625 77.378906 238.175781 77.390625 L 243.835938 77.558594 C 244.207031 77.570312 244.550781 77.359375 244.714844 77.023438 C 244.875 76.683594 244.824219 76.28125 244.585938 75.996094 L 236.929688 66.902344 L 245.117188 58.289062 C 245.375 58.015625 245.453125 57.617188 245.308594 57.269531 C 245.167969 56.921875 244.835938 56.691406 244.464844 56.683594 L 238.804688 56.511719 C 238.535156 56.503906 238.28125 56.613281 238.09375 56.804688 L 229.316406 66.039062 C 228.984375 66.386719 228.96875 66.9375 229.277344 67.308594 Z M 229.277344 67.308594 " fill-opacity="1" fill-rule="nonzero"/></g></g></g><g clip-path="url(#0577eac0c7)"><g clip-path="url(#452aa40f42)"><g clip-path="url(#30b16f2430)"><path fill="#5ce1e6" d="M 241.542969 67.675781 L 249.746094 77.421875 C 249.921875 77.628906 250.167969 77.75 250.4375 77.757812 L 256.097656 77.929688 C 256.46875 77.941406 256.8125 77.730469 256.976562 77.394531 C 257.136719 77.054688 257.085938 76.652344 256.847656 76.367188 L 249.191406 67.273438 L 257.378906 58.65625 C 257.636719 58.386719 257.714844 57.988281 257.570312 57.640625 C 257.429688 57.292969 257.097656 57.0625 256.726562 57.050781 L 251.066406 56.878906 C 250.796875 56.871094 250.542969 56.980469 250.355469 57.171875 L 241.578125 66.40625 C 241.246094 66.757812 241.230469 67.308594 241.542969 67.675781 Z M 241.542969 67.675781 " fill-opacity="1" fill-rule="nonzero"/></g></g></g><g clip-path="url(#5ede6cde4c)"><g clip-path="url(#ffff1fcc41)"><g clip-path="url(#5bb0cdf151)"><path fill="#38b6ff" d="M 192.761719 67.308594 L 200.964844 77.050781 C 201.140625 77.257812 201.390625 77.378906 201.660156 77.390625 L 207.316406 77.558594 C 207.691406 77.570312 208.035156 77.359375 208.199219 77.023438 C 208.359375 76.683594 208.308594 76.28125 208.066406 75.996094 L 200.414062 66.902344 L 208.601562 58.289062 C 208.859375 58.015625 208.933594 57.617188 208.792969 57.269531 C 208.648438 56.921875 208.320312 56.691406 207.945312 56.683594 L 202.289062 56.511719 C 202.019531 56.503906 201.761719 56.613281 201.574219 56.804688 L 192.800781 66.039062 C 192.46875 66.386719 192.449219 66.9375 192.761719 67.308594 Z M 192.761719 67.308594 " fill-opacity="1" fill-rule="nonzero"/></g></g></g><g clip-path="url(#114a94f622)"><g clip-path="url(#18f2363dc3)"><g clip-path="url(#f7b712497a)"><path fill="#38b6ff" d="M 205.023438 67.675781 L 213.230469 77.421875 C 213.402344 77.628906 213.652344 77.75 213.921875 77.757812 L 219.582031 77.929688 C 219.953125 77.941406 220.296875 77.730469 220.460938 77.394531 C 220.621094 77.054688 220.570312 76.652344 220.332031 76.367188 L 212.675781 67.273438 L 220.863281 58.65625 C 221.121094 58.386719 221.199219 57.988281 221.054688 57.640625 C 220.914062 57.292969 220.582031 57.0625 220.210938 57.050781 L 214.550781 56.878906 C 214.28125 56.871094 214.027344 56.980469 213.839844 57.171875 L 205.0625 66.40625 C 204.730469 66.757812 204.714844 67.308594 205.023438 67.675781 Z M 205.023438 67.675781 " fill-opacity="1" fill-rule="nonzero"/></g></g></g></svg>