<svg xmlns="http://www.w3.org/2000/svg" width="450" viewBox="0 0 337.5 375" height="500" version="1.0"><defs><clipPath id="prefix__a"><path d="M0 52.777h303.75V323H0zm0 0"/></clipPath><clipPath id="prefix__b"><path d="M7.918 142.824C3.137 156.668 0 172.406 0 187.852c0 15.445 2.688 30.304 7.469 44.003.152.29.152.583.3.875 19.122 51.434 69.622 89.32 127.887 90.047H303.75v-270H135.781c-58.687.73-109.187 38.032-127.863 90.047"/></clipPath><clipPath id="prefix__c"><path d="M0 52.777h303.75v270H0zm0 0"/></clipPath><clipPath id="prefix__d"><path d="M7.918 142.824C3.137 156.668 0 172.406 0 187.852c0 15.445 2.688 30.304 7.469 44.003.152.29.152.583.3.875 19.122 51.434 69.622 89.32 127.887 90.047H303.75v-270H135.781c-58.687.73-109.187 38.032-127.863 90.047"/></clipPath><clipPath id="prefix__e"><path d="M34 77h217v217H34zm0 0"/></clipPath><clipPath id="prefix__f"><path d="M5.152 119.105l204.414-70.687 70.684 204.414-204.414 70.684zm0 0"/></clipPath><clipPath id="prefix__g"><path d="M107.223 83.809C50.852 103.3 20.953 164.8 40.449 221.176c19.492 56.37 80.992 86.265 137.363 66.773 56.372-19.492 86.27-80.992 66.774-137.367-19.492-56.371-80.992-86.266-137.363-66.773"/></clipPath><clipPath id="prefix__h"><path d="M34 77h217v217H34zm0 0"/></clipPath><clipPath id="prefix__i"><path d="M5.152 119.105l204.141-70.59 70.59 204.137-204.14 70.59zm0 0"/></clipPath><clipPath id="prefix__j"><path d="M5.152 119.105l207.028-71.59 71.586 207.028-207.024 71.586zm0 0"/></clipPath><clipPath id="prefix__k"><path d="M107.223 83.809C50.852 103.3 20.953 164.8 40.449 221.176c19.492 56.37 80.992 86.265 137.363 66.773 56.372-19.492 86.27-80.992 66.774-137.367-19.492-56.371-80.992-86.266-137.363-66.773"/></clipPath><clipPath id="prefix__l"><path d="M109 120h29v37h-29zm0 0"/></clipPath><clipPath id="prefix__m"><path d="M109.324 126.777l17.016-6.367 11.187 29.899-17.011 6.367zm0 0"/></clipPath><clipPath id="prefix__n"><path d="M109.324 126.777l16.64-6.226 11.122 29.715-16.64 6.226zm0 0"/></clipPath><clipPath id="prefix__o"><path d="M171 181h35v24h-35zm0 0"/></clipPath><clipPath id="prefix__p"><path d="M171.02 198.543l3.187-17.879 31.43 5.606-3.188 17.878zm0 0"/></clipPath><clipPath id="prefix__q"><path d="M171.02 198.543l3.117-17.488 31.238 5.57-3.121 17.492zm0 0"/></clipPath><clipPath id="prefix__r"><path d="M108 138h81v84h-81zm0 0"/></clipPath><clipPath id="prefix__s"><path d="M141.34 248.918l-65.508-54.473 47.309-56.89 65.507 54.476zm0 0"/></clipPath><clipPath id="prefix__t"><path d="M108.84 221.89l14.344-83.367 65.007 54.059-79.351 29.309"/></clipPath><clipPath id="prefix__u"><path d="M97 197h34v37H97zm0 0"/></clipPath><clipPath id="prefix__v"><path d="M110.625 233.64L96.66 222.028l20.41-24.547 13.965 11.618zm0 0"/></clipPath><clipPath id="prefix__w"><path d="M110.625 233.64l-13.66-11.359 20.285-24.394 13.66 11.36zm0 0"/></clipPath><clipPath id="prefix__x"><path d="M62 215h57v57H62zm0 0"/></clipPath><clipPath id="prefix__y"><path d="M129.887 241.066l-36.54 41.938-41.937-36.54 36.54-41.937zm0 0"/></clipPath><clipPath id="prefix__z"><path d="M111.617 262.035c10.09-11.582 8.883-29.148-2.699-39.238-11.578-10.09-29.148-8.883-39.238 2.7-10.09 11.581-8.88 29.148 2.699 39.237 11.582 10.09 29.148 8.883 39.238-2.699"/></clipPath><clipPath id="prefix__A"><path d="M62 216h57v56H62zm0 0"/></clipPath><clipPath id="prefix__B"><path d="M129.887 241.066L93.43 282.91l-41.848-36.457 36.461-41.844zm0 0"/></clipPath><clipPath id="prefix__C"><path d="M129.887 241.066L93.43 282.91l-41.848-36.457 36.461-41.844zm0 0"/></clipPath><clipPath id="prefix__D"><path d="M111.656 261.988c10.07-11.554 8.864-29.082-2.691-39.152-11.555-10.066-29.082-8.86-39.153 2.695-10.066 11.555-8.863 29.082 2.692 39.153 11.558 10.066 29.086 8.859 39.152-2.696"/></clipPath><clipPath id="prefix__E"><path d="M189 169h57v57h-57zm0 0"/></clipPath><clipPath id="prefix__F"><path d="M240.43 229.797l-54.817-9.438 9.438-54.816 54.816 9.437zm0 0"/></clipPath><clipPath id="prefix__G"><path d="M213.023 225.078c15.137 2.606 29.52-7.55 32.125-22.691 2.606-15.137-7.55-29.52-22.687-32.125-15.14-2.606-29.524 7.554-32.129 22.691-2.605 15.137 7.555 29.52 22.691 32.125"/></clipPath><clipPath id="prefix__H"><path d="M190 169h56v57h-56zm0 0"/></clipPath><clipPath id="prefix__I"><path d="M240.43 229.797l-54.696-9.418 9.418-54.695 54.696 9.418zm0 0"/></clipPath><clipPath id="prefix__J"><path d="M240.43 229.797l-54.696-9.418 9.418-54.695 54.696 9.418zm0 0"/></clipPath><clipPath id="prefix__K"><path d="M213.082 225.09c15.106 2.597 29.457-7.54 32.055-22.64 2.601-15.106-7.535-29.458-22.637-32.055-15.105-2.602-29.457 7.535-32.059 22.636-2.597 15.106 7.54 29.457 22.641 32.059"/></clipPath><clipPath id="prefix__L"><path d="M86 86h57v57H86zm0 0"/></clipPath><clipPath id="prefix__M"><path d="M153.648 111.523l-36.539 41.938-41.937-36.54 36.539-41.937zm0 0"/></clipPath><clipPath id="prefix__N"><path d="M135.379 132.492c10.09-11.578 8.883-29.148-2.7-39.238-11.577-10.09-29.148-8.879-39.238 2.7-10.09 11.581-8.879 29.148 2.7 39.237 11.582 10.09 29.148 8.883 39.238-2.699"/></clipPath><clipPath id="prefix__O"><path d="M86 86h57v56H86zm0 0"/></clipPath><clipPath id="prefix__P"><path d="M153.648 111.523l-36.457 41.848-41.847-36.46 36.46-41.845zm0 0"/></clipPath><clipPath id="prefix__Q"><path d="M153.648 111.523l-36.457 41.848-41.847-36.46 36.46-41.845zm0 0"/></clipPath><clipPath id="prefix__R"><path d="M135.418 132.45c10.07-11.56 8.863-29.087-2.691-39.153-11.555-10.07-29.082-8.863-39.153 2.691-10.066 11.555-8.863 29.082 2.696 39.153 11.554 10.066 29.082 8.863 39.148-2.692"/></clipPath><clipPath id="prefix__S"><path d="M83 236h15v15H83zm0 0"/></clipPath><clipPath id="prefix__T"><path d="M91.559 253.594l-10.735-8.926 8.926-10.734 10.734 8.925zm0 0"/></clipPath><clipPath id="prefix__U"><path d="M86.191 249.133a6.977 6.977 0 009.829-.906 6.977 6.977 0 00-.903-9.829 6.98 6.98 0 00-8.926 10.735"/></clipPath><clipPath id="prefix__V"><path d="M210 190h15v15h-15zm0 0"/></clipPath><clipPath id="prefix__W"><path d="M209.684 203.367l2.367-13.758 13.758 2.368-2.368 13.757zm0 0"/></clipPath><clipPath id="prefix__X"><path d="M210.867 196.488a6.978 6.978 0 005.696 8.063c3.796.656 7.406-1.895 8.062-5.696a6.982 6.982 0 00-5.695-8.062 6.983 6.983 0 00-8.063 5.695"/></clipPath><clipPath id="prefix__Y"><path d="M106 107h15v15h-15zm0 0"/></clipPath><clipPath id="prefix__Z"><path d="M114.352 124.43l-10.73-8.922 8.925-10.735 10.73 8.926zm0 0"/></clipPath><clipPath id="prefix__aa"><path d="M108.988 119.969a6.98 6.98 0 009.828-.903 6.982 6.982 0 00-.906-9.832 6.978 6.978 0 00-9.828.907 6.978 6.978 0 00.906 9.828"/></clipPath><clipPath id="prefix__ab"><path d="M70 150h16v47H70zm0 0"/></clipPath><clipPath id="prefix__ac"><path d="M85.629 149.895l-3.86 47.093-13.457-1.105 3.864-47.09zm0 0"/></clipPath><clipPath id="prefix__ad"><path d="M85.629 149.895l-3.86 47.093-13.457-1.105 3.864-47.09zm0 0"/></clipPath><clipPath id="prefix__ae"><path d="M85.629 149.895l-3.86 47.093-13.457-1.105 3.864-47.09zm0 0"/></clipPath><clipPath id="prefix__af"><path d="M78 156h1v1h-1zm0 0"/></clipPath><clipPath id="prefix__ag"><path d="M85.629 149.895l-3.86 47.093-13.457-1.105 3.864-47.09zm0 0"/></clipPath><clipPath id="prefix__ah"><path d="M85.629 149.895l-3.86 47.093-13.457-1.105 3.864-47.09zm0 0"/></clipPath><clipPath id="prefix__ai"><path d="M85.629 149.895l-3.86 47.093-13.457-1.105 3.864-47.09zm0 0"/></clipPath><clipPath id="prefix__aj"><path d="M163 117h35v36h-35zm0 0"/></clipPath><clipPath id="prefix__ak"><path d="M196.738 152.773l-36.285-30.261 8.645-10.367 36.289 30.261zm0 0"/></clipPath><clipPath id="prefix__al"><path d="M196.738 152.773l-36.285-30.261 8.645-10.367 36.289 30.261zm0 0"/></clipPath><clipPath id="prefix__am"><path d="M196.738 152.773l-36.285-30.261 8.645-10.367 36.289 30.261zm0 0"/></clipPath><clipPath id="prefix__an"><path d="M195 143h1v1h-1zm0 0"/></clipPath><clipPath id="prefix__ao"><path d="M196.738 152.773l-36.285-30.261 8.645-10.367 36.289 30.261zm0 0"/></clipPath><clipPath id="prefix__ap"><path d="M196.738 152.773l-36.285-30.261 8.645-10.367 36.289 30.261zm0 0"/></clipPath><clipPath id="prefix__aq"><path d="M196.738 152.773l-36.285-30.261 8.645-10.367 36.289 30.261zm0 0"/></clipPath><clipPath id="prefix__ar"><path d="M141 237h47v18h-47zm0 0"/></clipPath><clipPath id="prefix__as"><path d="M140.918 246.617l45.547-12.566 3.59 13.015-45.547 12.563zm0 0"/></clipPath><clipPath id="prefix__at"><path d="M140.918 246.617l45.547-12.566 3.59 13.015-45.547 12.563zm0 0"/></clipPath><clipPath id="prefix__au"><path d="M140.918 246.617l45.547-12.566 3.59 13.015-45.547 12.563zm0 0"/></clipPath><clipPath id="prefix__av"><path d="M149 250h1v1h-1zm0 0"/></clipPath><clipPath id="prefix__aw"><path d="M140.918 246.617l45.547-12.566 3.59 13.015-45.547 12.563zm0 0"/></clipPath><clipPath id="prefix__ax"><path d="M140.918 246.617l45.547-12.566 3.59 13.015-45.547 12.563zm0 0"/></clipPath><clipPath id="prefix__ay"><path d="M140.918 246.617l45.547-12.566 3.59 13.015-45.547 12.563zm0 0"/></clipPath><clipPath id="prefix__az"><path d="M278 297.129h17v21h-17zm0 0"/></clipPath><clipPath id="prefix__aA"><path d="M266.625 297.129H283v21h-16.375zm0 0"/></clipPath><clipPath id="prefix__aB"><path d="M241 297.129h17v21h-17zm0 0"/></clipPath><clipPath id="prefix__aC"><path d="M229.5 297.129H246v21h-16.5zm0 0"/></clipPath><clipPath id="prefix__aD"><path d="M204 297.129h16.875v21H204zm0 0"/></clipPath><clipPath id="prefix__aE"><path d="M192.375 297.129H209v21h-16.625zm0 0"/></clipPath><clipPath id="prefix__aF"><path d="M167 297.129h16.75v21H167zm0 0"/></clipPath><clipPath id="prefix__aG"><path d="M155.25 297.129H172v21h-16.75zm0 0"/></clipPath><clipPath id="prefix__aH"><path d="M130 297h17v22h-17zm0 0"/></clipPath><clipPath id="prefix__aI"><path d="M117.945 297.379l28.496-.504.371 20.996-28.496.504zm0 0"/></clipPath><clipPath id="prefix__aJ"><path d="M117.945 297.379l28.496-.504.371 20.996-28.496.504zm0 0"/></clipPath><clipPath id="prefix__aK"><path d="M117 297h18v22h-18zm0 0"/></clipPath><clipPath id="prefix__aL"><path d="M117.945 297.379l28.496-.504.371 20.996-28.496.504zm0 0"/></clipPath><clipPath id="prefix__aM"><path d="M117.945 297.379l28.496-.504.371 20.996-28.496.504zm0 0"/></clipPath><clipPath id="prefix__aN"><path d="M80 284h20v22H80zm0 0"/></clipPath><clipPath id="prefix__aO"><path d="M81.105 277.734l23.989 15.387-11.336 17.676-23.992-15.387zm0 0"/></clipPath><clipPath id="prefix__aP"><path d="M81.105 277.734l23.989 15.387-11.336 17.676-23.992-15.387zm0 0"/></clipPath><clipPath id="prefix__aQ"><path d="M70 278h20v22H70zm0 0"/></clipPath><clipPath id="prefix__aR"><path d="M81.105 277.734l23.989 15.387-11.336 17.676-23.992-15.387zm0 0"/></clipPath><clipPath id="prefix__aS"><path d="M81.105 277.734l23.989 15.387-11.336 17.676-23.992-15.387zm0 0"/></clipPath><clipPath id="prefix__aT"><path d="M42 264h20v21H42zm0 0"/></clipPath><clipPath id="prefix__aU"><path d="M48.059 255.742l20.527 19.77-14.566 15.125-20.528-19.77zm0 0"/></clipPath><clipPath id="prefix__aV"><path d="M48.059 255.742l20.527 19.77-14.566 15.125-20.528-19.77zm0 0"/></clipPath><clipPath id="prefix__aW"><path d="M33 256h21v20H33zm0 0"/></clipPath><clipPath id="prefix__aX"><path d="M48.059 255.742l20.527 19.77-14.566 15.125-20.528-19.77zm0 0"/></clipPath><clipPath id="prefix__aY"><path d="M48.059 255.742l20.527 19.77-14.566 15.125-20.528-19.77zm0 0"/></clipPath><clipPath id="prefix__aZ"><path d="M19 232h22v19H19zm0 0"/></clipPath><clipPath id="prefix__ba"><path d="M31.219 221.023l14.32 24.641-18.152 10.555-14.325-24.64zm0 0"/></clipPath><clipPath id="prefix__bb"><path d="M31.219 221.023l14.32 24.641-18.152 10.555-14.325-24.64zm0 0"/></clipPath><clipPath id="prefix__bc"><path d="M13 221h22v20H13zm0 0"/></clipPath><clipPath id="prefix__bd"><path d="M31.219 221.023l14.32 24.641-18.152 10.555-14.325-24.64zm0 0"/></clipPath><clipPath id="prefix__be"><path d="M31.219 221.023l14.32 24.641-18.152 10.555-14.325-24.64zm0 0"/></clipPath><clipPath id="prefix__bf"><path d="M8.879 184h21v16.438h-21zm0 0"/></clipPath><clipPath id="prefix__bg"><path d="M8.879 171.938h21V188h-21zm0 0"/></clipPath><clipPath id="prefix__bh"><path d="M18 126h21v20H18zm0 0"/></clipPath><clipPath id="prefix__bi"><path d="M46.379 127.648l-16.234 23.426-17.262-11.965 16.234-23.422zm0 0"/></clipPath><clipPath id="prefix__bj"><path d="M46.379 127.648l-16.234 23.426-17.262-11.965 16.234-23.422zm0 0"/></clipPath><clipPath id="prefix__bk"><path d="M25 116h21v20H25zm0 0"/></clipPath><clipPath id="prefix__bl"><path d="M46.379 127.648l-16.234 23.426-17.262-11.965 16.234-23.422zm0 0"/></clipPath><clipPath id="prefix__bm"><path d="M46.379 127.648l-16.234 23.426-17.262-11.965 16.234-23.422zm0 0"/></clipPath><clipPath id="prefix__bn"><path d="M44 90h20v21H44zm0 0"/></clipPath><clipPath id="prefix__bo"><path d="M72.52 97.336L51.426 116.5l-14.121-15.543 21.093-19.164zm0 0"/></clipPath><clipPath id="prefix__bp"><path d="M72.52 97.336L51.426 116.5l-14.121-15.543 21.093-19.164zm0 0"/></clipPath><clipPath id="prefix__bq"><path d="M53 82h20v20H53zm0 0"/></clipPath><clipPath id="prefix__br"><path d="M72.52 97.336L51.426 116.5l-14.121-15.543 21.093-19.164zm0 0"/></clipPath><clipPath id="prefix__bs"><path d="M72.52 97.336L51.426 116.5l-14.121-15.543 21.093-19.164zm0 0"/></clipPath><clipPath id="prefix__bt"><path d="M74 67h20v23H74zm0 0"/></clipPath><clipPath id="prefix__bu"><path d="M104.922 81.059L79.344 93.633l-9.266-18.848 25.578-12.57zm0 0"/></clipPath><clipPath id="prefix__bv"><path d="M104.922 81.059L79.344 93.633l-9.266-18.848 25.578-12.57zm0 0"/></clipPath><clipPath id="prefix__bw"><path d="M85 62h20v23H85zm0 0"/></clipPath><clipPath id="prefix__bx"><path d="M104.922 81.059L79.344 93.633l-9.266-18.848 25.578-12.57zm0 0"/></clipPath><clipPath id="prefix__by"><path d="M104.922 81.059L79.344 93.633l-9.266-18.848 25.578-12.57zm0 0"/></clipPath><clipPath id="prefix__bz"><path d="M117.785 57.016H135V78h-17.215zm0 0"/></clipPath><clipPath id="prefix__bA"><path d="M130 57.016h16.285V78H130zm0 0"/></clipPath><clipPath id="prefix__bB"><path d="M154 56h17v22h-17zm0 0"/></clipPath><clipPath id="prefix__bC"><path d="M182.512 78.016l-28.489-.86.633-20.992 28.489.86zm0 0"/></clipPath><clipPath id="prefix__bD"><path d="M182.512 78.016l-28.489-.86.633-20.992 28.489.86zm0 0"/></clipPath><clipPath id="prefix__bE"><path d="M166 56h18v22h-18zm0 0"/></clipPath><clipPath id="prefix__bF"><path d="M182.512 78.016l-28.489-.86.633-20.992 28.489.86zm0 0"/></clipPath><clipPath id="prefix__bG"><path d="M182.512 78.016l-28.489-.86.633-20.992 28.489.86zm0 0"/></clipPath><clipPath id="prefix__bH"><path d="M266 56h17v22h-17zm0 0"/></clipPath><clipPath id="prefix__bI"><path d="M294.164 78.016l-28.488-.86.633-20.992 28.488.86zm0 0"/></clipPath><clipPath id="prefix__bJ"><path d="M294.164 78.016l-28.488-.86.633-20.992 28.488.86zm0 0"/></clipPath><clipPath id="prefix__bK"><path d="M278 56h17v22h-17zm0 0"/></clipPath><clipPath id="prefix__bL"><path d="M294.164 78.016l-28.488-.86.633-20.992 28.488.86zm0 0"/></clipPath><clipPath id="prefix__bM"><path d="M294.164 78.016l-28.488-.86.633-20.992 28.488.86zm0 0"/></clipPath><clipPath id="prefix__bN"><path d="M229 56h17v22h-17zm0 0"/></clipPath><clipPath id="prefix__bO"><path d="M257.04 78.016l-28.49-.86.634-20.992 28.488.86zm0 0"/></clipPath><clipPath id="prefix__bP"><path d="M257.04 78.016l-28.49-.86.634-20.992 28.488.86zm0 0"/></clipPath><clipPath id="prefix__bQ"><path d="M241 56h17v22h-17zm0 0"/></clipPath><clipPath id="prefix__bR"><path d="M257.04 78.016l-28.49-.86.634-20.992 28.488.86zm0 0"/></clipPath><clipPath id="prefix__bS"><path d="M257.04 78.016l-28.49-.86.634-20.992 28.488.86zm0 0"/></clipPath><clipPath id="prefix__bT"><path d="M192 56h17v22h-17zm0 0"/></clipPath><clipPath id="prefix__bU"><path d="M220.523 78.016l-28.488-.86.633-20.992 28.488.86zm0 0"/></clipPath><clipPath id="prefix__bV"><path d="M220.523 78.016l-28.488-.86.633-20.992 28.488.86zm0 0"/></clipPath><clipPath id="prefix__bW"><path d="M204 56h18v22h-18zm0 0"/></clipPath><clipPath id="prefix__bX"><path d="M220.523 78.016l-28.488-.86.633-20.992 28.488.86zm0 0"/></clipPath><clipPath id="prefix__bY"><path d="M220.523 78.016l-28.488-.86.633-20.992 28.488.86zm0 0"/></clipPath></defs><g clip-path="url(#prefix__a)"><g clip-path="url(#prefix__b)"><path fill="#737373" d="M303.75 52.777V323.04H-.133V52.777zm0 0"/></g></g><g clip-path="url(#prefix__c)"><g clip-path="url(#prefix__d)"><path fill="none" d="M7.918 142.824C3.137 156.668 0 172.406 0 187.852c0 15.445 2.687 30.304 7.469 44.003.152.29.152.583.3.875 19.122 51.434 69.622 89.32 127.887 90.047H303.75v-270H135.781c-58.687.73-109.187 38.032-127.863 90.047" stroke="#000" stroke-width="3"/></g></g><g clip-path="url(#prefix__e)"><g clip-path="url(#prefix__f)"><g clip-path="url(#prefix__g)"><path fill="#a6a6a6" d="M5.152 119.105l203.891-70.503 70.504 203.886-203.89 70.504zm0 0"/></g></g></g><g clip-path="url(#prefix__h)"><g clip-path="url(#prefix__i)"><g clip-path="url(#prefix__j)"><g clip-path="url(#prefix__k)"><path fill="none" d="M107.223 83.809C50.852 103.3 20.953 164.8 40.449 221.176c19.492 56.37 80.992 86.265 137.364 66.773 56.37-19.492 86.269-80.992 66.773-137.367-19.492-56.371-80.992-86.266-137.363-66.773" stroke="#000" stroke-width="6"/></g></g></g></g><g clip-path="url(#prefix__l)"><g clip-path="url(#prefix__m)"><g clip-path="url(#prefix__n)"><path fill="#ffde59" d="M109.324 126.777l16.5-6.175 11.188 29.902-16.496 6.172zm0 0"/></g></g></g><g clip-path="url(#prefix__o)"><g clip-path="url(#prefix__p)"><g clip-path="url(#prefix__q)"><path fill="#ffde59" d="M171.02 198.543l3.093-17.34 31.426 5.606-3.09 17.34zm0 0"/></g></g></g><g clip-path="url(#prefix__r)"><g clip-path="url(#prefix__s)"><g clip-path="url(#prefix__t)"><path fill="#ffde59" d="M141.34 248.918l-64.934-53.996 46.832-56.313 64.934 53.996zm0 0"/></g></g></g><g clip-path="url(#prefix__u)"><g clip-path="url(#prefix__v)"><g clip-path="url(#prefix__w)"><path fill="#ffde59" d="M110.625 233.64L97.082 222.38l20.414-24.547 13.54 11.266zm0 0"/></g></g></g><g clip-path="url(#prefix__x)"><g clip-path="url(#prefix__y)"><g clip-path="url(#prefix__z)"><path fill="#ffde59" d="M129.887 241.066l-36.54 41.938-41.937-36.54 36.54-41.937zm0 0"/></g></g></g><g clip-path="url(#prefix__A)"><g clip-path="url(#prefix__B)"><g clip-path="url(#prefix__C)"><g clip-path="url(#prefix__D)"><path d="M109.402 260.023c3.649-4.187 5.66-9.043 6.032-14.57l5.976.406c-.465 6.864-2.965 12.895-7.496 18.098zm6.07-17.242c-.222-5.554-2.085-10.46-5.593-14.726l4.625-3.805c4.36 5.3 6.676 11.398 6.95 18.293zm-7.398-16.691a25.924 25.924 0 00-1.074-.996c-3.793-3.301-8.168-5.266-13.133-5.895l.75-5.941c6.172.781 11.61 3.222 16.317 7.324.453.395.898.805 1.332 1.23zM91.2 219.008c-5.562-.102-10.574 1.476-15.035 4.73l-3.527-4.836c5.547-4.047 11.77-6.007 18.672-5.882zm-17.094 6.41a24.944 24.944 0 00-2.035 2.078c-2.965 3.402-4.855 7.305-5.672 11.711l-5.886-1.094c1.015-5.476 3.367-10.328 7.043-14.55.793-.91 1.636-1.77 2.523-2.575zm-8.054 16.437c-.422 5.54.86 10.633 3.844 15.282l-5.036 3.234c-3.71-5.77-5.304-12.094-4.777-18.973zm5.41 17.45a25.245 25.245 0 003.012 3.12c3.015 2.626 6.449 4.419 10.304 5.368l-1.437 5.812c-4.79-1.183-9.059-3.406-12.8-6.668a30.895 30.895 0 01-3.735-3.867zm15.934 8.988c5.507.742 10.668-.242 15.484-2.953l2.937 5.219c-5.984 3.367-12.39 4.59-19.222 3.668zm17.742-4.387a25.088 25.088 0 004.265-3.883l4.512 3.934a30.779 30.779 0 01-5.293 4.816zm0 0"/></g></g></g></g><g clip-path="url(#prefix__E)"><g clip-path="url(#prefix__F)"><g clip-path="url(#prefix__G)"><path fill="#ffde59" d="M240.43 229.797l-54.817-9.438 9.438-54.816 54.816 9.437zm0 0"/></g></g></g><g clip-path="url(#prefix__H)"><g clip-path="url(#prefix__I)"><g clip-path="url(#prefix__J)"><g clip-path="url(#prefix__K)"><path d="M213.59 222.137c5.472.945 10.668.14 15.582-2.41l2.758 5.316c-6.106 3.168-12.559 4.164-19.356 2.996zm17.887-3.766c4.628-3.074 7.855-7.219 9.675-12.434l5.653 1.977c-2.262 6.48-6.27 11.629-12.016 15.445zm10.421-14.992c.11-.477.207-.957.29-1.438.851-4.953.257-9.714-1.786-14.28l5.47-2.446c2.534 5.676 3.276 11.59 2.218 17.742a34.067 34.067 0 01-.36 1.777zm-2.718-18.102c-2.801-4.804-6.75-8.265-11.852-10.386l2.3-5.532c6.34 2.641 11.247 6.938 14.724 12.903zm-14.356-11.273a23.848 23.848 0 00-2.832-.66c-4.445-.766-8.765-.356-12.957 1.234l-2.12-5.598c5.21-1.976 10.573-2.488 16.093-1.539 1.187.207 2.36.477 3.512.817zm-18.23 1.656c-4.953 2.516-8.64 6.258-11.059 11.223l-5.383-2.625c3.004-6.168 7.582-10.813 13.73-13.938zm-12.098 13.688a24.783 24.783 0 00-1.101 4.191c-.68 3.941-.426 7.809.761 11.594l-5.71 1.793c-1.477-4.707-1.798-9.508-.954-14.403a31.138 31.138 0 011.367-5.199zm.598 18.285c2.222 5.09 5.746 8.988 10.562 11.695l-2.93 5.219c-5.988-3.363-10.359-8.203-13.12-14.516zm12.965 12.879a24.683 24.683 0 005.53 1.625l-1.015 5.902a30.816 30.816 0 01-6.863-2.02zm0 0"/></g></g></g></g><g clip-path="url(#prefix__L)"><g clip-path="url(#prefix__M)"><g clip-path="url(#prefix__N)"><path fill="#ffde59" d="M153.648 111.523l-36.539 41.938-41.937-36.54 36.539-41.937zm0 0"/></g></g></g><g clip-path="url(#prefix__O)"><g clip-path="url(#prefix__P)"><g clip-path="url(#prefix__Q)"><g clip-path="url(#prefix__R)"><path d="M133.164 130.48c3.649-4.187 5.66-9.042 6.031-14.566l5.977.402c-.465 6.868-2.965 12.899-7.496 18.098zm6.07-17.242c-.218-5.55-2.086-10.46-5.593-14.726l4.625-3.801c4.359 5.3 6.675 11.398 6.953 18.289zm-7.398-16.691c-.348-.34-.707-.672-1.074-.996-3.793-3.301-8.168-5.266-13.133-5.895l.754-5.937c6.168.777 11.605 3.219 16.312 7.32.457.398.899.809 1.332 1.23zm-16.875-7.082c-5.563-.102-10.57 1.476-15.035 4.73l-3.528-4.836c5.547-4.046 11.77-6.004 18.672-5.879zm-17.094 6.41a25.56 25.56 0 00-2.035 2.078c-2.96 3.402-4.855 7.305-5.672 11.711l-5.887-1.094c1.016-5.476 3.368-10.328 7.043-14.547a30.843 30.843 0 012.524-2.578zm-8.055 16.438c-.421 5.542.86 10.636 3.844 15.28l-5.035 3.239c-3.71-5.773-5.3-12.098-4.777-18.973zm5.41 17.449a24.974 24.974 0 003.012 3.12c3.016 2.63 6.45 4.419 10.305 5.372l-1.437 5.812c-4.79-1.183-9.059-3.406-12.801-6.668a30.894 30.894 0 01-3.73-3.87zm15.938 8.988c5.504.746 10.664-.238 15.48-2.95l2.938 5.216c-5.984 3.367-12.39 4.59-19.223 3.668zm17.738-4.387a24.782 24.782 0 004.266-3.883l4.512 3.934a30.779 30.779 0 01-5.293 4.816zm0 0"/></g></g></g></g><g clip-path="url(#prefix__S)"><g clip-path="url(#prefix__T)"><g clip-path="url(#prefix__U)"><path fill="#707070" d="M91.559 253.594l-10.735-8.926 8.926-10.734 10.734 8.925zm0 0"/></g></g></g><g clip-path="url(#prefix__V)"><g clip-path="url(#prefix__W)"><g clip-path="url(#prefix__X)"><path fill="#707070" d="M209.684 203.367l2.367-13.758 13.758 2.368-2.368 13.757zm0 0"/></g></g></g><g clip-path="url(#prefix__Y)"><g clip-path="url(#prefix__Z)"><g clip-path="url(#prefix__aa)"><path fill="#707070" d="M114.352 124.43l-10.73-8.922 8.925-10.735 10.73 8.926zm0 0"/></g></g></g><g clip-path="url(#prefix__ab)"><g clip-path="url(#prefix__ac)"><g clip-path="url(#prefix__ad)"><g clip-path="url(#prefix__ae)"><path fill="#fff" d="M85.176 150.621c-.031-.027-.07-.031-.11-.02-.101-.105 0-.312-.195-.367-.293-.343-.629-.25-.969-.086-.945.454-1.797 1.055-2.613 1.704-2.914 2.332-5.203 5.16-7.008 8.421-3.148 5.688-4.015 11.758-3.226 18.114.363 2.949 1.246 5.777 2.257 8.57.594 1.637 1.286 3.238 1.942 4.856.047.046.098.093.148.14-.004.078.016.164-.02.227-.027.047-.093.007-.116-.051-.594-.352-1.094-.816-1.567-1.305-.324-.336-.66-.637-1.09-.832-.691-.726-1.488-.816-2.23-.281.57 1.91 1.96 3.156 3.476 4.312.567.434 1.102.899 1.641 1.356 1.297 1.101 1.172.871 2.484.426.293-.098.56-.262.805-.453.09-.067.168-.141.176-.262.328-.13.36-.422.371-.711.04-.852.063-1.7.094-2.55.113-.173.101-.36.074-.548.121-.164.105-.355.094-.539.105-.105.082-.246.11-.375.386-1.703.96-3.336 1.816-4.87.062-.118.117-.235.175-.352.075-.141.157-.301.028-.426-.098-.098-.29-.086-.38-.016-.413.305-.948.313-1.37.574-.192.118-.317.297-.438.485-.965 1.449-1.64 3.023-2.152 4.668-.047.148-.07.304-.145.437-.09.156-.222.098-.336.008.035-.172-.027-.3-.172-.395 0-.164-.011-.32-.175-.417.023-.04.011-.067-.032-.083.008-.152-.011-.3-.16-.394-.02-.11-.023-.219-.062-.32-.41-1.114-.836-2.22-1.235-3.336-.359-1.012-.687-2.035-1.027-3.055-.059-.281-.105-.563-.172-.836-.644-2.691-.953-5.414-.847-8.176.039-.984.109-1.968.164-2.953.12-.18.093-.375.07-.57.121-.168.098-.356.078-.543.129-.149.094-.328.09-.5.094-.094.098-.203.066-.32.032-.036.035-.075.012-.118.102-.105.082-.242.113-.367.157-.613.203-1.25.442-1.84-.047-.058-.059-.242-.172-.03-.074.144-.121.148-.153.105-.03-.04-.05-.114-.074-.168.563-1.914 1.352-3.739 2.262-5.512.102-.156.2-.317.3-.473.598-.937 1.196-1.875 1.79-2.812a.182.182 0 00.094-.075.195.195 0 00.02-.082c.073-.023.108-.074.112-.148.075-.023.11-.074.114-.152.074-.02.109-.075.113-.149.074-.023.113-.07.113-.148.078-.02.114-.07.117-.149a.146.146 0 00.118-.144v-.004c.043-.043.082-.09.117-.14l.004-.005c.074-.02.113-.066.117-.14l.004-.008c.074-.016.113-.063.113-.14l.004-.005h0c.078-.015.117-.062.121-.14v-.004c.078-.016.117-.063.117-.14l.004-.005c.074-.015.117-.062.121-.14.403-.418.805-.832 1.203-1.246.141-.282.399-.465.618-.672a.234.234 0 01.156.176c.183-.137.379-.262.488-.477a.376.376 0 01.121-.176c-.039.059-.082.113-.12.176.066-.035.128-.074.12-.156.117-.012.192-.078.242-.18.075-.004.125-.039.133-.117.074-.027.133-.063.149-.145.039-.007.066-.023.086-.062a1.42 1.42 0 00.511-.426c.14-.082.285-.16.367-.305.11-.02.172-.097.243-.172.55-.32 1.039-.738 1.68-.964-.169-.168-.118-.418-.352-.477zm-8.785 39.371h.004-.004l.004-.004v.004l.003-.004c-.003.004-.003.004-.007.004zm2.59-34.066a.223.223 0 00-.032.027c0-.004.004-.008.004-.012.008-.007.016-.02.027-.027v.012zm-.973 1.824l-.004-.004c-.004 0-.008-.004-.012-.008l-.012-.011.028.023s0-.004.004-.004c-.004 0-.004.004-.004.004zm.953-1.89c.008.015.012.035.016.05-.008.012-.016.02-.024.031a.087.087 0 00.008-.082zm-.063.144c-.011.012-.02.023-.03.031 0 0 0 .004-.005.004l.035-.035zm5.09-5.145l.004-.004v-.003H84c-.004.003-.008.003-.012.007zm-.242.145h-.012.012zm-1.605 2.332a.182.182 0 00-.02-.04c.008 0 .016 0 .024-.003 0 .016-.004.027-.004.043zm.414-.281a.154.154 0 01.066-.035c-.027.011-.05.02-.066.035zm0 0"/></g></g></g></g><g clip-path="url(#prefix__af)"><g clip-path="url(#prefix__ag)"><g clip-path="url(#prefix__ah)"><g clip-path="url(#prefix__ai)"><path fill="#fff" d="M78.93 156.563l-.118.14c.079-.02.114-.066.118-.14zm0 0"/></g></g></g></g><g clip-path="url(#prefix__aj)"><g clip-path="url(#prefix__ak)"><g clip-path="url(#prefix__al)"><g clip-path="url(#prefix__am)"><path fill="#fff" d="M196.406 151.984a.101.101 0 00.078-.074c.145-.023.258.18.414.047.45-.043.567-.371.63-.738.171-1.04.171-2.078.109-3.117-.23-3.73-1.227-7.227-2.852-10.579-2.84-5.851-7.305-10.054-12.957-13.066-2.621-1.398-5.441-2.309-8.305-3.086-1.683-.457-3.39-.812-5.09-1.207-.066.012-.132.023-.199.04-.062-.048-.144-.083-.175-.145v-.004c-.024-.047.05-.082.109-.067.629-.281 1.297-.422 1.969-.527.46-.07.902-.176 1.308-.41.993-.149 1.524-.75 1.512-1.664-1.887-.633-3.707-.215-5.527.36-.68.214-1.368.382-2.055.562-1.64.425-1.383.457-1.777 1.785a2.783 2.783 0 00-.09.918c.004.113.02.218.11.297-.083.343.14.535.37.71.672.52 1.352 1.032 2.032 1.547.074.192.234.286.402.375.066.196.23.29.39.387.024.145.153.207.243.305 1.168 1.297 2.175 2.707 2.937 4.289.059.117.125.23.188.348.074.14.156.296.332.265.133-.023.234-.183.23-.3-.012-.512.29-.954.32-1.454.016-.219-.062-.426-.144-.636-.629-1.618-1.527-3.079-2.578-4.446-.094-.125-.211-.234-.278-.37-.074-.161.051-.24.188-.282a.349.349 0 00.422.09c.133.093.27.175.445.097.016.04.047.047.082.02.125.098.254.164.418.098.098.046.192.105.297.132 1.145.309 2.297.594 3.438.91 1.035.29 2.062.61 3.09.918.261.118.519.239.785.344 2.566 1.02 4.972 2.336 7.168 4.012.785.598 1.55 1.223 2.324 1.832.074.203.25.293.426.387.066.195.23.285.394.375.05.191.219.265.363.363.02.129.11.195.223.238.012.047.04.07.086.078.027.141.156.207.238.305.41.48.903.883 1.25 1.418.074-.004.23.09.121-.121-.07-.145-.05-.184.004-.188.047 0 .121.024.18.036 1.242 1.562 2.281 3.257 3.207 5.023l.21.52c.427 1.027.849 2.054 1.274 3.082-.011.043-.011.082.008.117a.201.201 0 00.05.066c-.019.07 0 .133.06.176-.024.074 0 .133.058.18-.023.074-.004.132.059.18-.028.074-.008.132.054.18-.027.073-.007.132.055.175v.004c-.027.07-.012.133.05.176v.003a.993.993 0 00.052.176v.008c-.028.07-.012.129.047.176l.003.008c-.027.07-.011.129.047.175l.004.004v0c-.031.075-.015.133.047.18v.004c-.027.07-.012.129.047.176l.004.004c-.031.07-.016.132.043.18l.328 1.702c.148.278.152.59.195.891a.194.194 0 01-.094.04.233.233 0 01-.144-.013c.012.227 0 .461.113.672.04.063.07.125.074.203-.023-.066-.046-.136-.074-.203-.011.074-.015.149.055.192a.29.29 0 00.008.297c-.04.066-.04.125.02.18-.02.073-.024.144.034.202-.015.036-.02.07 0 .106-.03.226-.015.449.055.664-.016.164-.035.324.035.476-.047.102-.015.2.004.297-.054.633.004 1.274-.18 1.93.235-.043.41.145.594-.016zm-27.14-29.843l.004.004v-.004.004c-.004 0-.004 0-.004.003v-.007zm26.367 21.726v-.043c0 .004 0 .008.004.012a.114.114 0 01.008.035s-.004 0-.012-.004zm-.93-1.844c0-.003 0-.003.004-.003s.008-.004.012-.004h.02l-.036.004v.003zm.996 1.868l-.05-.016a.492.492 0 00-.012-.04.089.089 0 00.062.056zm-.082-.137a.202.202 0 01-.008-.043v-.004c.004.016.004.031.008.047zm1.278 7.125s0 .004.003.004v.004c-.003 0-.003.004-.003.004v-.012zm.023-.281c0-.004.004-.008.004-.012-.004.004-.004.008-.004.012zm-.984-2.657a.146.146 0 00.043.004l-.012.024c-.012-.008-.02-.02-.031-.028zm-.008.5a.167.167 0 01-.008.075h-.004a.265.265 0 00.012-.075zm0 0"/></g></g></g></g><g clip-path="url(#prefix__an)"><g clip-path="url(#prefix__ao)"><g clip-path="url(#prefix__ap)"><g clip-path="url(#prefix__aq)"><path fill="#fff" d="M195.145 143.46c-.016-.062-.036-.12-.047-.179-.032.074-.012.133.047.18zm0 0"/></g></g></g></g><g clip-path="url(#prefix__ar)"><g clip-path="url(#prefix__as)"><g clip-path="url(#prefix__at)"><g clip-path="url(#prefix__au)"><path fill="#fff" d="M141.754 246.793c-.016.039-.008.074.02.11-.063.128-.297.105-.278.312-.223.39-.02.676.25.937.754.73 1.61 1.325 2.5 1.868 3.191 1.937 6.637 3.113 10.316 3.683 6.426 1 12.422-.27 18.122-3.195 2.64-1.356 4.996-3.156 7.27-5.067 1.335-1.12 2.597-2.324 3.89-3.492l.082-.187c.074-.024.148-.075.219-.063.054.012.042.086-.004.13-.13.679-.391 1.304-.692 1.917-.203.418-.367.844-.406 1.313-.445.898-.254 1.675.504 2.191 1.598-1.191 2.293-2.926 2.855-4.75.211-.68.465-1.34.711-2.008.586-1.594.41-1.394-.453-2.476a2.885 2.885 0 00-.703-.602c-.098-.062-.191-.11-.309-.074-.234-.266-.52-.192-.793-.106-.812.258-1.62.528-2.43.79-.198-.047-.37.03-.538.117-.196-.055-.367.027-.54.101-.132-.062-.261.008-.386.024-1.734.222-3.465.246-5.2-.032-.132-.02-.265-.027-.394-.043-.156-.02-.332-.043-.406.121-.059.125.016.301.113.364.43.281.621.781 1.012 1.09.172.136.387.191.61.242 1.687.406 3.398.5 5.12.418.153-.008.309-.04.461-.016.176.028.168.176.121.313-.171.027-.273.129-.312.297-.152.054-.297.12-.332.308-.043-.008-.063.012-.066.055-.149.05-.278.117-.317.289-.094.055-.195.098-.277.168-.906.765-1.797 1.547-2.707 2.305-.828.687-1.676 1.347-2.516 2.02-.246.148-.492.288-.726.444-2.305 1.532-4.758 2.754-7.387 3.606-.938.305-1.887.578-2.828.863-.211-.05-.383.04-.563.129-.195-.055-.363.031-.535.113-.184-.066-.34.028-.5.09-.121-.055-.227-.023-.324.047-.043-.016-.082-.008-.113.027-.133-.058-.258.008-.383.024-.63.062-1.242.234-1.883.219-.04.062-.203.136.035.168.156.023.176.062.149.109-.028.043-.086.086-.133.125-1.993.133-3.977.02-5.953-.227-.184-.039-.368-.078-.547-.12-1.086-.239-2.172-.477-3.258-.712a.178.178 0 00-.102-.062.196.196 0 00-.082.008c-.047-.059-.11-.075-.18-.055a.154.154 0 00-.18-.055c-.046-.062-.105-.078-.179-.054-.047-.063-.105-.082-.18-.055-.046-.067-.105-.086-.175-.059h-.004c-.043-.066-.102-.086-.172-.058l-.004-.004c-.059-.02-.117-.043-.176-.059l-.004-.004c-.043-.062-.101-.082-.172-.058l-.007-.004c-.043-.063-.098-.082-.172-.059l-.008-.004c-.04-.062-.098-.086-.172-.062h-.004c-.043-.067-.101-.086-.172-.063h-.004c-.043-.066-.101-.086-.175-.066-.528-.234-1.055-.469-1.586-.703-.313-.035-.57-.211-.84-.348 0-.035.008-.066.02-.098a.226.226 0 01.093-.109c-.195-.125-.379-.262-.617-.293a.352.352 0 01-.207-.055c.066.02.137.04.207.055-.055-.05-.113-.094-.188-.059a.294.294 0 00-.25-.167c-.035-.067-.082-.102-.16-.086-.047-.059-.101-.102-.183-.086a.118.118 0 00-.09-.063 1.468 1.468 0 00-.574-.332c-.125-.105-.25-.21-.414-.242-.055-.094-.153-.125-.246-.164-.489-.41-1.051-.723-1.485-1.25-.098.219-.351.254-.324.496zm39.992-5.29h-.004c0 .005.004.005.004.005-.004 0-.004-.004-.004-.004s0-.004-.004-.004c.004 0 .004.004.008.004zm-32.883 9.282l.04.024c-.005 0-.008 0-.012-.004l-.036-.012.008-.008zm2.051.29s-.004 0-.004.003c0 .004 0 .008-.004.012l-.008.015.012-.03v-.005c0 .004 0 .004.004.004zm-2.105-.247l.043-.035a.139.139 0 00.035.016.084.084 0 00-.078.02zm.156.012a.14.14 0 01.043.015l.004.004a.239.239 0 00-.047-.02zm-6.578-3.016h-.008c0-.004-.004-.004-.004-.004.004 0 .008.004.012.004zm.218.18c0 .004 0 .008.004.008 0-.004-.004-.004-.004-.008zm2.743.707c-.012.008-.02.02-.032.031l-.011-.023c.015 0 .027-.004.043-.008zm-.407-.293a.121.121 0 01-.058-.05h.004c.015.023.035.038.054.05zm0 0"/></g></g></g></g><g clip-path="url(#prefix__av)"><g clip-path="url(#prefix__aw)"><g clip-path="url(#prefix__ax)"><g clip-path="url(#prefix__ay)"><path fill="#fff" d="M149.477 250.617l.175.059c-.043-.063-.101-.082-.175-.059zm0 0"/></g></g></g></g><path transform="matrix(.74987 .00605 -.00605 .74998 136.49 77.868)" fill="none" d="M-.002 1.999L223.036 2" stroke="#000" stroke-width="4"/><path transform="matrix(.75062 -.00364 .00364 .75 135.126 291.168)" fill="none" d="M0 2l224.814.002" stroke="#000" stroke-width="4"/><g clip-path="url(#prefix__az)"><path fill="#5ce1e6" d="M294.695 306.992l-8.492-9.492a.946.946 0 00-.703-.316h-5.664a.95.95 0 00-.863.562.956.956 0 00.164 1.02l7.922 8.863-7.922 8.855a.95.95 0 00.7 1.586h5.663c.266 0 .52-.117.703-.312l8.492-9.496c.32-.36.32-.91 0-1.27zm0 0"/></g><g clip-path="url(#prefix__aA)"><path fill="#5ce1e6" d="M282.426 306.992l-8.492-9.492a.94.94 0 00-.704-.316h-5.66a.947.947 0 00-.703 1.582l7.926 8.863-7.926 8.855a.955.955 0 00-.16 1.024.94.94 0 00.863.562h5.66c.27 0 .52-.117.704-.312l8.492-9.496a.95.95 0 000-1.27zm0 0"/></g><g clip-path="url(#prefix__aB)"><path fill="#38b6ff" d="M257.57 306.992l-8.492-9.492a.946.946 0 00-.703-.316h-5.664a.95.95 0 00-.863.562.962.962 0 00.16 1.02l7.926 8.863-7.926 8.855a.95.95 0 00.703 1.586h5.664c.266 0 .52-.117.703-.312l8.492-9.496c.32-.36.32-.91 0-1.27zm0 0"/></g><g clip-path="url(#prefix__aC)"><path fill="#38b6ff" d="M245.3 306.992l-8.491-9.492a.94.94 0 00-.704-.316h-5.66a.947.947 0 00-.703 1.582l7.926 8.863-7.926 8.855a.955.955 0 00-.16 1.024.94.94 0 00.863.562h5.66c.27 0 .52-.117.704-.312l8.492-9.496a.95.95 0 000-1.27zm0 0"/></g><g clip-path="url(#prefix__aD)"><path fill="#38b6ff" d="M220.445 306.992l-8.492-9.492a.946.946 0 00-.703-.316h-5.664a.95.95 0 00-.863.562.956.956 0 00.164 1.02l7.922 8.863-7.922 8.855a.95.95 0 00.7 1.586h5.663c.266 0 .52-.117.703-.312l8.492-9.496c.32-.36.32-.91 0-1.27zm0 0"/></g><g clip-path="url(#prefix__aE)"><path fill="#38b6ff" d="M208.176 306.992l-8.492-9.492a.94.94 0 00-.704-.316h-5.66a.947.947 0 00-.703 1.582l7.926 8.863-7.926 8.855a.955.955 0 00-.16 1.024.94.94 0 00.863.562h5.66c.27 0 .52-.117.704-.312l8.492-9.496a.95.95 0 000-1.27zm0 0"/></g><g clip-path="url(#prefix__aF)"><path fill="#38b6ff" d="M183.32 306.992l-8.492-9.492a.946.946 0 00-.703-.316h-5.664a.95.95 0 00-.863.562.956.956 0 00.164 1.02l7.922 8.863-7.922 8.855a.95.95 0 00.7 1.586h5.663c.266 0 .52-.117.703-.312l8.492-9.496c.32-.36.32-.91 0-1.27zm0 0"/></g><g clip-path="url(#prefix__aG)"><path fill="#38b6ff" d="M171.05 306.992l-8.491-9.492a.94.94 0 00-.704-.316h-5.66a.947.947 0 00-.703 1.582l7.926 8.863-7.926 8.855a.955.955 0 00-.16 1.024.94.94 0 00.863.562h5.66c.27 0 .52-.117.704-.312l8.492-9.496a.95.95 0 000-1.27zm0 0"/></g><g clip-path="url(#prefix__aH)"><g clip-path="url(#prefix__aI)"><g clip-path="url(#prefix__aJ)"><path fill="#5ce1e6" d="M146.184 306.746l-8.66-9.344a.948.948 0 00-.708-.3l-5.66.097a.947.947 0 00-.851.578.956.956 0 00.175 1.02l8.083 8.719-7.77 8.996a.952.952 0 00.73 1.574l5.665-.102a.96.96 0 00.695-.324l8.324-9.644a.954.954 0 00-.023-1.27zm0 0"/></g></g></g><g clip-path="url(#prefix__aK)"><g clip-path="url(#prefix__aL)"><g clip-path="url(#prefix__aM)"><path fill="#5ce1e6" d="M133.918 306.96l-8.66-9.339a.937.937 0 00-.707-.305l-5.66.102a.95.95 0 00-.856.578.95.95 0 00.18 1.016l8.082 8.718-7.77 8.997a.959.959 0 00-.14 1.027c.16.34.5.555.87.547l5.665-.098a.979.979 0 00.695-.328l8.324-9.64a.96.96 0 00-.023-1.274zm0 0"/></g></g></g><g clip-path="url(#prefix__aN)"><g clip-path="url(#prefix__aO)"><g clip-path="url(#prefix__aP)"><path fill="#38b6ff" d="M99.406 301.191l-2.023-12.574a.945.945 0 00-.422-.644l-4.766-3.059a.949.949 0 00-1.445.953l1.887 11.738-11.453 3.176a.951.951 0 00-.266 1.715l4.766 3.059c.226.144.5.183.761.113l12.274-3.406a.954.954 0 00.687-1.07zm0 0"/></g></g></g><g clip-path="url(#prefix__aQ)"><g clip-path="url(#prefix__aR)"><g clip-path="url(#prefix__aS)"><path fill="#38b6ff" d="M89.078 294.57l-2.023-12.578a.94.94 0 00-.422-.644l-4.766-3.055a.942.942 0 00-1.027.004.966.966 0 00-.418.95l1.887 11.733-11.454 3.18a.954.954 0 00-.687.774.945.945 0 00.422.937l4.77 3.059c.222.144.5.183.757.117l12.278-3.406a.957.957 0 00.683-1.07zm0 0"/></g></g></g><g clip-path="url(#prefix__aT)"><g clip-path="url(#prefix__aU)"><g clip-path="url(#prefix__aV)"><path fill="#38b6ff" d="M61.434 282.32l.468-12.73a.94.94 0 00-.289-.715l-4.078-3.93a.945.945 0 00-1.012-.191.955.955 0 00-.593.848l-.438 11.878-11.851.883a.942.942 0 00-.825.625.94.94 0 00.23 1.004l4.079 3.926a.951.951 0 00.723.262l12.703-.946a.957.957 0 00.883-.914zm0 0"/></g></g></g><g clip-path="url(#prefix__aW)"><g clip-path="url(#prefix__aX)"><g clip-path="url(#prefix__aY)"><path fill="#38b6ff" d="M52.598 273.809l.468-12.73a.96.96 0 00-.289-.716l-4.078-3.925a.948.948 0 00-1.605.652l-.438 11.879-11.851.883a.948.948 0 00-.825.625.94.94 0 00.23 1.003l4.08 3.93a.96.96 0 00.722.262l12.703-.95a.957.957 0 00.883-.913zm0 0"/></g></g></g><g clip-path="url(#prefix__aZ)"><g clip-path="url(#prefix__ba)"><g clip-path="url(#prefix__bb)"><path fill="#38b6ff" d="M36.793 250.25l3.941-12.113a.938.938 0 00-.082-.766l-2.843-4.894a.95.95 0 00-1.723.187L32.41 243.97l-11.64-2.399a.947.947 0 00-.965.375.944.944 0 00-.055 1.028l2.848 4.894c.132.235.359.395.62.45l12.477 2.574a.95.95 0 001.098-.641zm0 0"/></g></g></g><g clip-path="url(#prefix__bc)"><g clip-path="url(#prefix__bd)"><g clip-path="url(#prefix__be)"><path fill="#38b6ff" d="M30.629 239.645l3.941-12.114a.938.938 0 00-.082-.765l-2.843-4.895a.946.946 0 00-.922-.465.954.954 0 00-.801.653l-3.676 11.304-11.644-2.402a.958.958 0 00-.961.375.943.943 0 00-.055 1.031l2.844 4.895c.136.23.363.39.625.449l12.476 2.57a.952.952 0 001.098-.636zm0 0"/></g></g></g><g clip-path="url(#prefix__bf)"><path fill="#5ce1e6" d="M20.016 200.004l9.492-8.492a.934.934 0 00.316-.703v-5.66a.945.945 0 00-.562-.864.946.946 0 00-1.02.16l-8.863 7.926-8.856-7.926a.955.955 0 00-1.023-.16.945.945 0 00-.563.863v5.66c0 .27.114.524.313.704l9.496 8.492a.95.95 0 001.27 0zm0 0"/></g><g clip-path="url(#prefix__bg)"><path fill="#5ce1e6" d="M20.016 187.738l9.492-8.496a.932.932 0 00.316-.699v-5.664a.95.95 0 00-.562-.863.961.961 0 00-1.02.16l-8.863 7.926-8.856-7.926a.95.95 0 00-1.586.703v5.664c0 .266.114.52.313.7l9.496 8.495c.36.32.91.32 1.27 0zm0 0"/></g><g clip-path="url(#prefix__bh)"><g clip-path="url(#prefix__bi)"><g clip-path="url(#prefix__bj)"><path fill="#38b6ff" d="M22.281 145.098l12.64-1.57a.951.951 0 00.661-.4l3.227-4.651a.95.95 0 00-.903-1.48L26.11 138.46l-2.765-11.559a.952.952 0 00-1.703-.324l-3.227 4.652a.948.948 0 00-.14.758l2.964 12.387a.949.949 0 001.043.723zm0 0"/></g></g></g><g clip-path="url(#prefix__bk)"><g clip-path="url(#prefix__bl)"><g clip-path="url(#prefix__bm)"><path fill="#38b6ff" d="M29.27 135.016l12.64-1.575a.933.933 0 00.66-.394l3.223-4.656a.935.935 0 00.031-1.028.953.953 0 00-.93-.449l-11.796 1.465-2.766-11.559a.963.963 0 00-.75-.715.941.941 0 00-.953.387l-3.227 4.656a.936.936 0 00-.14.754l2.965 12.391a.95.95 0 001.043.723zm0 0"/></g></g></g><g clip-path="url(#prefix__bn)"><g clip-path="url(#prefix__bo)"><g clip-path="url(#prefix__bp)"><path fill="#38b6ff" d="M45.11 108.906l12.671 1.317a.941.941 0 00.73-.239l4.192-3.808a.948.948 0 00.258-.996.954.954 0 00-.805-.649l-11.824-1.226-.09-11.887a.948.948 0 00-1.586-.7l-4.191 3.805a.97.97 0 00-.309.707l.098 12.739c.004.484.375.89.855.937zm0 0"/></g></g></g><g clip-path="url(#prefix__bq)"><g clip-path="url(#prefix__br)"><g clip-path="url(#prefix__bs)"><path fill="#38b6ff" d="M54.188 100.656l12.671 1.317a.936.936 0 00.73-.239l4.192-3.808a.942.942 0 00.262-.996.958.958 0 00-.805-.649l-11.824-1.226-.09-11.887a.95.95 0 00-1.586-.7l-4.191 3.805a.955.955 0 00-.309.707l.098 12.739c.004.484.375.89.852.937zm0 0"/></g></g></g><g clip-path="url(#prefix__bt)"><g clip-path="url(#prefix__bu)"><g clip-path="url(#prefix__bv)"><path fill="#38b6ff" d="M75.379 84.59l11.808 4.773c.254.098.532.09.77-.027l5.082-2.5a.95.95 0 00.527-.883.958.958 0 00-.597-.848l-11.02-4.453 3.203-11.445a.946.946 0 00-.304-.988.943.943 0 00-1.024-.125l-5.082 2.496a.974.974 0 00-.492.59l-3.434 12.27a.957.957 0 00.563 1.14zm0 0"/></g></g></g><g clip-path="url(#prefix__bw)"><g clip-path="url(#prefix__bx)"><g clip-path="url(#prefix__by)"><path fill="#38b6ff" d="M86.387 79.176l11.812 4.773c.25.102.528.094.77-.027l5.082-2.496a.945.945 0 00.523-.887.945.945 0 00-.594-.844l-11.02-4.457 3.204-11.445a.958.958 0 00-.305-.988.952.952 0 00-1.023-.125l-5.082 2.5a.94.94 0 00-.492.59l-3.434 12.265a.953.953 0 00.559 1.14zm0 0"/></g></g></g><g clip-path="url(#prefix__bz)"><path fill="#5ce1e6" d="M118.215 68.148l8.492 9.493a.946.946 0 00.703.316h5.664a.95.95 0 00.863-.562.956.956 0 00-.164-1.02l-7.921-8.86 7.921-8.859a.95.95 0 00-.7-1.586h-5.663a.971.971 0 00-.703.313l-8.492 9.496c-.32.36-.32.91 0 1.27zm0 0"/></g><g clip-path="url(#prefix__bA)"><path fill="#5ce1e6" d="M130.484 68.148l8.493 9.493a.94.94 0 00.703.316h5.66a.947.947 0 00.703-1.582l-7.926-8.86 7.926-8.859a.955.955 0 00.16-1.023.94.94 0 00-.863-.563h-5.66c-.27 0-.52.117-.703.313l-8.493 9.496a.95.95 0 000 1.27zm0 0"/></g><g clip-path="url(#prefix__bB)"><g clip-path="url(#prefix__bC)"><g clip-path="url(#prefix__bD)"><path fill="#38b6ff" d="M154.75 67.309l8.207 9.746a.943.943 0 00.691.336l5.66.168a.948.948 0 00.75-1.563l-7.656-9.094 8.188-8.613a.948.948 0 00.191-1.016.931.931 0 00-.844-.59l-5.66-.171a.955.955 0 00-.71.293l-8.778 9.234a.96.96 0 00-.039 1.27zm0 0"/></g></g></g><g clip-path="url(#prefix__bE)"><g clip-path="url(#prefix__bF)"><g clip-path="url(#prefix__bG)"><path fill="#38b6ff" d="M167.016 67.676l8.203 9.746a.936.936 0 00.691.336l5.66.172a.948.948 0 00.75-1.563l-7.656-9.094 8.188-8.617a.946.946 0 00.191-1.015.944.944 0 00-.844-.59l-5.66-.172a.955.955 0 00-.71.293l-8.778 9.234a.955.955 0 00-.035 1.27zm0 0"/></g></g></g><g clip-path="url(#prefix__bH)"><g clip-path="url(#prefix__bI)"><g clip-path="url(#prefix__bJ)"><path fill="#5ce1e6" d="M266.402 67.309l8.207 9.746a.943.943 0 00.692.336l5.66.168a.948.948 0 00.75-1.563l-7.656-9.094 8.187-8.613a.948.948 0 00.192-1.016.931.931 0 00-.844-.59l-5.66-.171a.955.955 0 00-.711.293l-8.778 9.234a.96.96 0 00-.039 1.27zm0 0"/></g></g></g><g clip-path="url(#prefix__bK)"><g clip-path="url(#prefix__bL)"><g clip-path="url(#prefix__bM)"><path fill="#5ce1e6" d="M278.668 67.676l8.203 9.746a.936.936 0 00.692.336l5.66.172a.948.948 0 00.75-1.563l-7.657-9.094 8.188-8.617a.946.946 0 00.191-1.015.944.944 0 00-.843-.59l-5.66-.172a.955.955 0 00-.712.293l-8.777 9.234a.955.955 0 00-.035 1.27zm0 0"/></g></g></g><g clip-path="url(#prefix__bN)"><g clip-path="url(#prefix__bO)"><g clip-path="url(#prefix__bP)"><path fill="#38b6ff" d="M229.277 67.309l8.207 9.746a.943.943 0 00.692.336l5.66.168a.948.948 0 00.75-1.563l-7.656-9.094 8.187-8.613a.948.948 0 00.192-1.016.931.931 0 00-.844-.59l-5.66-.171a.955.955 0 00-.711.293l-8.778 9.234a.96.96 0 00-.039 1.27zm0 0"/></g></g></g><g clip-path="url(#prefix__bQ)"><g clip-path="url(#prefix__bR)"><g clip-path="url(#prefix__bS)"><path fill="#38b6ff" d="M241.543 67.676l8.203 9.746a.936.936 0 00.691.336l5.66.172a.948.948 0 00.75-1.563l-7.656-9.094 8.188-8.617a.946.946 0 00.191-1.015.944.944 0 00-.843-.59l-5.66-.172a.955.955 0 00-.712.293l-8.777 9.234a.955.955 0 00-.035 1.27zm0 0"/></g></g></g><g clip-path="url(#prefix__bT)"><g clip-path="url(#prefix__bU)"><g clip-path="url(#prefix__bV)"><path fill="#38b6ff" d="M192.762 67.309l8.203 9.746a.958.958 0 00.695.336l5.656.168a.95.95 0 00.883-.536.957.957 0 00-.133-1.027l-7.652-9.094 8.188-8.613a.956.956 0 00.191-1.016.937.937 0 00-.848-.59l-5.656-.171a.964.964 0 00-.715.293l-8.773 9.234a.955.955 0 00-.04 1.27zm0 0"/></g></g></g><g clip-path="url(#prefix__bW)"><g clip-path="url(#prefix__bX)"><g clip-path="url(#prefix__bY)"><path fill="#38b6ff" d="M205.023 67.676l8.207 9.746a.93.93 0 00.692.336l5.66.172a.948.948 0 00.75-1.563l-7.656-9.094 8.187-8.617a.946.946 0 00.192-1.015.944.944 0 00-.844-.59l-5.66-.172a.955.955 0 00-.711.293l-8.778 9.234a.96.96 0 00-.039 1.27zm0 0"/></g></g></g></svg>