<svg xmlns="http://www.w3.org/2000/svg" xmlns:xlink="http://www.w3.org/1999/xlink" width="450" zoomAndPan="magnify" viewBox="0 0 337.5 374.999991" height="500" preserveAspectRatio="xMidYMid meet" version="1.0"><defs><clipPath id="db4266066e"><path d="M 0 52.777344 L 303.75 52.777344 L 303.75 323 L 0 323 Z M 0 52.777344 " clip-rule="nonzero"/></clipPath><clipPath id="db5b73f5d6"><path d="M 7.917969 142.824219 C 3.136719 156.667969 0 172.40625 0 187.851562 C 0 203.296875 2.6875 218.15625 7.46875 231.855469 C 7.621094 232.144531 7.621094 232.4375 7.769531 232.730469 C 26.890625 284.164062 77.390625 322.050781 135.65625 322.777344 L 303.75 322.777344 L 303.75 52.777344 L 135.78125 52.777344 C 77.09375 53.507812 26.59375 90.808594 7.917969 142.824219 " clip-rule="nonzero"/></clipPath><clipPath id="7e9ec43a55"><path d="M 0 52.777344 L 303.75 52.777344 L 303.75 322.777344 L 0 322.777344 Z M 0 52.777344 " clip-rule="nonzero"/></clipPath><clipPath id="b49a5ddb5c"><path d="M 7.917969 142.824219 C 3.136719 156.667969 0 172.40625 0 187.851562 C 0 203.296875 2.6875 218.15625 7.46875 231.855469 C 7.621094 232.144531 7.621094 232.4375 7.769531 232.730469 C 26.890625 284.164062 77.390625 322.050781 135.65625 322.777344 L 303.75 322.777344 L 303.75 52.777344 L 135.78125 52.777344 C 77.09375 53.507812 26.59375 90.808594 7.917969 142.824219 " clip-rule="nonzero"/></clipPath><clipPath id="8b263402b8"><path d="M 34 77 L 251 77 L 251 294 L 34 294 Z M 34 77 " clip-rule="nonzero"/></clipPath><clipPath id="eeb92b35ea"><path d="M 5.152344 119.105469 L 209.566406 48.417969 L 280.25 252.832031 L 75.835938 323.515625 Z M 5.152344 119.105469 " clip-rule="nonzero"/></clipPath><clipPath id="0adc773123"><path d="M 107.222656 83.808594 C 50.851562 103.300781 20.953125 164.800781 40.449219 221.175781 C 59.941406 277.546875 121.441406 307.441406 177.8125 287.949219 C 234.183594 268.457031 264.082031 206.957031 244.585938 150.582031 C 225.09375 94.210938 163.59375 64.316406 107.222656 83.808594 " clip-rule="nonzero"/></clipPath><clipPath id="4bdbf4b4d6"><path d="M 34 77 L 251 77 L 251 294 L 34 294 Z M 34 77 " clip-rule="nonzero"/></clipPath><clipPath id="3bbef9e818"><path d="M 5.152344 119.105469 L 209.292969 48.515625 L 279.882812 252.652344 L 75.742188 323.242188 Z M 5.152344 119.105469 " clip-rule="nonzero"/></clipPath><clipPath id="57b75b17b9"><path d="M 5.152344 119.105469 L 212.179688 47.515625 L 283.765625 254.542969 L 76.742188 326.128906 Z M 5.152344 119.105469 " clip-rule="nonzero"/></clipPath><clipPath id="f3363b7e78"><path d="M 107.222656 83.808594 C 50.851562 103.300781 20.953125 164.800781 40.449219 221.175781 C 59.941406 277.546875 121.441406 307.441406 177.8125 287.949219 C 234.183594 268.457031 264.082031 206.957031 244.585938 150.582031 C 225.09375 94.210938 163.59375 64.316406 107.222656 83.808594 " clip-rule="nonzero"/></clipPath><clipPath id="fa62cb8665"><path d="M 109 120 L 138 120 L 138 157 L 109 157 Z M 109 120 " clip-rule="nonzero"/></clipPath><clipPath id="b1c9658637"><path d="M 109.324219 126.777344 L 126.339844 120.410156 L 137.527344 150.308594 L 120.515625 156.675781 Z M 109.324219 126.777344 " clip-rule="nonzero"/></clipPath><clipPath id="2c39dedad3"><path d="M 109.324219 126.777344 L 125.964844 120.550781 L 137.085938 150.265625 L 120.445312 156.492188 Z M 109.324219 126.777344 " clip-rule="nonzero"/></clipPath><clipPath id="6d6beb1a10"><path d="M 171 181 L 206 181 L 206 205 L 171 205 Z M 171 181 " clip-rule="nonzero"/></clipPath><clipPath id="03dc8261b3"><path d="M 171.019531 198.542969 L 174.207031 180.664062 L 205.636719 186.269531 L 202.449219 204.148438 Z M 171.019531 198.542969 " clip-rule="nonzero"/></clipPath><clipPath id="bbe3cc4207"><path d="M 171.019531 198.542969 L 174.136719 181.054688 L 205.375 186.625 L 202.253906 204.117188 Z M 171.019531 198.542969 " clip-rule="nonzero"/></clipPath><clipPath id="17f32fc07e"><path d="M 108 138 L 189 138 L 189 222 L 108 222 Z M 108 138 " clip-rule="nonzero"/></clipPath><clipPath id="ff6010a5c3"><path d="M 141.339844 248.917969 L 75.832031 194.445312 L 123.140625 137.554688 L 188.648438 192.03125 Z M 141.339844 248.917969 " clip-rule="nonzero"/></clipPath><clipPath id="04b90476e7"><path d="M 108.839844 221.890625 L 123.183594 138.523438 L 188.191406 192.582031 L 108.839844 221.890625 " clip-rule="nonzero"/></clipPath><clipPath id="709b6471cf"><path d="M 97 197 L 131 197 L 131 234 L 97 234 Z M 97 197 " clip-rule="nonzero"/></clipPath><clipPath id="73b65dad21"><path d="M 110.625 233.640625 L 96.660156 222.027344 L 117.070312 197.480469 L 131.035156 209.097656 Z M 110.625 233.640625 " clip-rule="nonzero"/></clipPath><clipPath id="1dfe1991ba"><path d="M 110.625 233.640625 L 96.964844 222.28125 L 117.25 197.886719 L 130.910156 209.246094 Z M 110.625 233.640625 " clip-rule="nonzero"/></clipPath><clipPath id="9306efbb2f"><path d="M 62 215 L 119 215 L 119 272 L 62 272 Z M 62 215 " clip-rule="nonzero"/></clipPath><clipPath id="3b43737b38"><path d="M 129.886719 241.066406 L 93.347656 283.003906 L 51.410156 246.464844 L 87.949219 204.527344 Z M 129.886719 241.066406 " clip-rule="nonzero"/></clipPath><clipPath id="a33bbdd85f"><path d="M 111.617188 262.035156 C 121.707031 250.453125 120.5 232.886719 108.917969 222.796875 C 97.339844 212.707031 79.769531 213.914062 69.679688 225.496094 C 59.589844 237.078125 60.800781 254.644531 72.378906 264.734375 C 83.960938 274.824219 101.527344 273.617188 111.617188 262.035156 " clip-rule="nonzero"/></clipPath><clipPath id="1716863c1e"><path d="M 62 216 L 119 216 L 119 272 L 62 272 Z M 62 216 " clip-rule="nonzero"/></clipPath><clipPath id="f2d60c09c7"><path d="M 129.886719 241.066406 L 93.429688 282.910156 L 51.582031 246.453125 L 88.042969 204.609375 Z M 129.886719 241.066406 " clip-rule="nonzero"/></clipPath><clipPath id="5a59b0b4a7"><path d="M 129.886719 241.066406 L 93.429688 282.910156 L 51.582031 246.453125 L 88.042969 204.609375 Z M 129.886719 241.066406 " clip-rule="nonzero"/></clipPath><clipPath id="265d1d14ce"><path d="M 111.65625 261.988281 C 121.726562 250.433594 120.519531 232.90625 108.964844 222.835938 C 97.410156 212.769531 79.882812 213.976562 69.8125 225.53125 C 59.746094 237.085938 60.949219 254.613281 72.503906 264.683594 C 84.0625 274.75 101.589844 273.542969 111.65625 261.988281 " clip-rule="nonzero"/></clipPath><clipPath id="9ce694bd71"><path d="M 189 169 L 246 169 L 246 226 L 189 226 Z M 189 169 " clip-rule="nonzero"/></clipPath><clipPath id="427b7926a8"><path d="M 240.429688 229.796875 L 185.613281 220.359375 L 195.050781 165.542969 L 249.867188 174.980469 Z M 240.429688 229.796875 " clip-rule="nonzero"/></clipPath><clipPath id="1eb4702f42"><path d="M 213.023438 225.078125 C 228.160156 227.683594 242.542969 217.527344 245.148438 202.386719 C 247.753906 187.25 237.597656 172.867188 222.460938 170.261719 C 207.320312 167.65625 192.9375 177.816406 190.332031 192.953125 C 187.726562 208.089844 197.886719 222.472656 213.023438 225.078125 " clip-rule="nonzero"/></clipPath><clipPath id="5509e877b1"><path d="M 190 169 L 246 169 L 246 226 L 190 226 Z M 190 169 " clip-rule="nonzero"/></clipPath><clipPath id="effcf14e17"><path d="M 240.429688 229.796875 L 185.734375 220.378906 L 195.152344 165.683594 L 249.847656 175.101562 Z M 240.429688 229.796875 " clip-rule="nonzero"/></clipPath><clipPath id="1853d2f9ef"><path d="M 240.429688 229.796875 L 185.734375 220.378906 L 195.152344 165.683594 L 249.847656 175.101562 Z M 240.429688 229.796875 " clip-rule="nonzero"/></clipPath><clipPath id="2171b53afb"><path d="M 213.082031 225.089844 C 228.1875 227.6875 242.539062 217.550781 245.136719 202.449219 C 247.738281 187.34375 237.601562 172.992188 222.5 170.394531 C 207.394531 167.792969 193.042969 177.929688 190.441406 193.03125 C 187.84375 208.136719 197.980469 222.488281 213.082031 225.089844 " clip-rule="nonzero"/></clipPath><clipPath id="84f3bcca82"><path d="M 86 86 L 143 86 L 143 143 L 86 143 Z M 86 86 " clip-rule="nonzero"/></clipPath><clipPath id="5ef075c4d0"><path d="M 153.648438 111.523438 L 117.109375 153.460938 L 75.171875 116.921875 L 111.710938 74.984375 Z M 153.648438 111.523438 " clip-rule="nonzero"/></clipPath><clipPath id="e48ec3b67e"><path d="M 135.378906 132.492188 C 145.46875 120.914062 144.261719 103.34375 132.679688 93.253906 C 121.101562 83.164062 103.53125 84.375 93.441406 95.953125 C 83.351562 107.535156 84.5625 125.101562 96.140625 135.191406 C 107.722656 145.28125 125.289062 144.074219 135.378906 132.492188 " clip-rule="nonzero"/></clipPath><clipPath id="78cce794df"><path d="M 86 86 L 143 86 L 143 142 L 86 142 Z M 86 86 " clip-rule="nonzero"/></clipPath><clipPath id="1176caade9"><path d="M 153.648438 111.523438 L 117.191406 153.371094 L 75.34375 116.910156 L 111.804688 75.066406 Z M 153.648438 111.523438 " clip-rule="nonzero"/></clipPath><clipPath id="1607ce5e5a"><path d="M 153.648438 111.523438 L 117.191406 153.371094 L 75.34375 116.910156 L 111.804688 75.066406 Z M 153.648438 111.523438 " clip-rule="nonzero"/></clipPath><clipPath id="d8aae57411"><path d="M 135.417969 132.449219 C 145.488281 120.890625 144.28125 103.363281 132.726562 93.296875 C 121.171875 83.226562 103.644531 84.433594 93.574219 95.988281 C 83.507812 107.542969 84.710938 125.070312 96.269531 135.140625 C 107.824219 145.207031 125.351562 144.003906 135.417969 132.449219 " clip-rule="nonzero"/></clipPath><clipPath id="20f556cf34"><path d="M 83 236 L 98 236 L 98 251 L 83 251 Z M 83 236 " clip-rule="nonzero"/></clipPath><clipPath id="4d6af0cc5c"><path d="M 91.558594 253.59375 L 80.824219 244.667969 L 89.75 233.933594 L 100.484375 242.859375 Z M 91.558594 253.59375 " clip-rule="nonzero"/></clipPath><clipPath id="ad0bf8c3c3"><path d="M 86.191406 249.132812 C 89.15625 251.597656 93.554688 251.191406 96.019531 248.226562 C 98.484375 245.261719 98.082031 240.863281 95.117188 238.398438 C 92.152344 235.933594 87.753906 236.339844 85.289062 239.300781 C 82.824219 242.265625 83.226562 246.667969 86.191406 249.132812 " clip-rule="nonzero"/></clipPath><clipPath id="660c7ffffb"><path d="M 210 190 L 225 190 L 225 205 L 210 205 Z M 210 190 " clip-rule="nonzero"/></clipPath><clipPath id="b4e94eb177"><path d="M 209.683594 203.367188 L 212.050781 189.609375 L 225.808594 191.976562 L 223.441406 205.734375 Z M 209.683594 203.367188 " clip-rule="nonzero"/></clipPath><clipPath id="f1fa94ae8a"><path d="M 210.867188 196.488281 C 210.214844 200.289062 212.761719 203.898438 216.5625 204.550781 C 220.359375 205.207031 223.96875 202.65625 224.625 198.855469 C 225.277344 195.058594 222.730469 191.449219 218.929688 190.792969 C 215.132812 190.140625 211.519531 192.691406 210.867188 196.488281 " clip-rule="nonzero"/></clipPath><clipPath id="2cea55ff1e"><path d="M 106 107 L 121 107 L 121 122 L 106 122 Z M 106 107 " clip-rule="nonzero"/></clipPath><clipPath id="68d4036955"><path d="M 114.351562 124.429688 L 103.621094 115.507812 L 112.546875 104.773438 L 123.277344 113.699219 Z M 114.351562 124.429688 " clip-rule="nonzero"/></clipPath><clipPath id="e1ecd9c89c"><path d="M 108.988281 119.96875 C 111.949219 122.433594 116.351562 122.027344 118.816406 119.066406 C 121.28125 116.101562 120.875 111.699219 117.910156 109.234375 C 114.949219 106.769531 110.546875 107.175781 108.082031 110.140625 C 105.617188 113.101562 106.023438 117.503906 108.988281 119.96875 " clip-rule="nonzero"/></clipPath><clipPath id="c23b72ae93"><path d="M 70 150 L 86 150 L 86 197 L 70 197 Z M 70 150 " clip-rule="nonzero"/></clipPath><clipPath id="c396d416ec"><path d="M 85.628906 149.894531 L 81.769531 196.988281 L 68.3125 195.882812 L 72.175781 148.792969 Z M 85.628906 149.894531 " clip-rule="nonzero"/></clipPath><clipPath id="00e75324dd"><path d="M 85.628906 149.894531 L 81.769531 196.988281 L 68.3125 195.882812 L 72.175781 148.792969 Z M 85.628906 149.894531 " clip-rule="nonzero"/></clipPath><clipPath id="8bb084cea4"><path d="M 85.628906 149.894531 L 81.769531 196.988281 L 68.3125 195.882812 L 72.175781 148.792969 Z M 85.628906 149.894531 " clip-rule="nonzero"/></clipPath><clipPath id="b933f4d2a0"><path d="M 78 156 L 79 156 L 79 157 L 78 157 Z M 78 156 " clip-rule="nonzero"/></clipPath><clipPath id="e0fc5d43d2"><path d="M 85.628906 149.894531 L 81.769531 196.988281 L 68.3125 195.882812 L 72.175781 148.792969 Z M 85.628906 149.894531 " clip-rule="nonzero"/></clipPath><clipPath id="650fbda1ea"><path d="M 85.628906 149.894531 L 81.769531 196.988281 L 68.3125 195.882812 L 72.175781 148.792969 Z M 85.628906 149.894531 " clip-rule="nonzero"/></clipPath><clipPath id="fd781b4bde"><path d="M 85.628906 149.894531 L 81.769531 196.988281 L 68.3125 195.882812 L 72.175781 148.792969 Z M 85.628906 149.894531 " clip-rule="nonzero"/></clipPath><clipPath id="5b99948ffa"><path d="M 163 117 L 198 117 L 198 153 L 163 153 Z M 163 117 " clip-rule="nonzero"/></clipPath><clipPath id="8c23d46afb"><path d="M 196.738281 152.773438 L 160.453125 122.511719 L 169.097656 112.144531 L 205.386719 142.40625 Z M 196.738281 152.773438 " clip-rule="nonzero"/></clipPath><clipPath id="982788171c"><path d="M 196.738281 152.773438 L 160.453125 122.511719 L 169.097656 112.144531 L 205.386719 142.40625 Z M 196.738281 152.773438 " clip-rule="nonzero"/></clipPath><clipPath id="e78cb2e28b"><path d="M 196.738281 152.773438 L 160.453125 122.511719 L 169.097656 112.144531 L 205.386719 142.40625 Z M 196.738281 152.773438 " clip-rule="nonzero"/></clipPath><clipPath id="3b626ffaae"><path d="M 195 143 L 196 143 L 196 144 L 195 144 Z M 195 143 " clip-rule="nonzero"/></clipPath><clipPath id="61539f0c07"><path d="M 196.738281 152.773438 L 160.453125 122.511719 L 169.097656 112.144531 L 205.386719 142.40625 Z M 196.738281 152.773438 " clip-rule="nonzero"/></clipPath><clipPath id="12cc0b198a"><path d="M 196.738281 152.773438 L 160.453125 122.511719 L 169.097656 112.144531 L 205.386719 142.40625 Z M 196.738281 152.773438 " clip-rule="nonzero"/></clipPath><clipPath id="31463eed7e"><path d="M 196.738281 152.773438 L 160.453125 122.511719 L 169.097656 112.144531 L 205.386719 142.40625 Z M 196.738281 152.773438 " clip-rule="nonzero"/></clipPath><clipPath id="e4a427ca3a"><path d="M 141 237 L 188 237 L 188 255 L 141 255 Z M 141 237 " clip-rule="nonzero"/></clipPath><clipPath id="0d73e833ad"><path d="M 140.917969 246.617188 L 186.464844 234.050781 L 190.054688 247.066406 L 144.507812 259.628906 Z M 140.917969 246.617188 " clip-rule="nonzero"/></clipPath><clipPath id="472afd0b0e"><path d="M 140.917969 246.617188 L 186.464844 234.050781 L 190.054688 247.066406 L 144.507812 259.628906 Z M 140.917969 246.617188 " clip-rule="nonzero"/></clipPath><clipPath id="020f461529"><path d="M 140.917969 246.617188 L 186.464844 234.050781 L 190.054688 247.066406 L 144.507812 259.628906 Z M 140.917969 246.617188 " clip-rule="nonzero"/></clipPath><clipPath id="9f613c4d0a"><path d="M 149 250 L 150 250 L 150 251 L 149 251 Z M 149 250 " clip-rule="nonzero"/></clipPath><clipPath id="c94df2093b"><path d="M 140.917969 246.617188 L 186.464844 234.050781 L 190.054688 247.066406 L 144.507812 259.628906 Z M 140.917969 246.617188 " clip-rule="nonzero"/></clipPath><clipPath id="cd510b4ce3"><path d="M 140.917969 246.617188 L 186.464844 234.050781 L 190.054688 247.066406 L 144.507812 259.628906 Z M 140.917969 246.617188 " clip-rule="nonzero"/></clipPath><clipPath id="0aa55dd51e"><path d="M 140.917969 246.617188 L 186.464844 234.050781 L 190.054688 247.066406 L 144.507812 259.628906 Z M 140.917969 246.617188 " clip-rule="nonzero"/></clipPath><clipPath id="948423f770"><path d="M 278 297.128906 L 295 297.128906 L 295 318.128906 L 278 318.128906 Z M 278 297.128906 " clip-rule="nonzero"/></clipPath><clipPath id="4d9902430a"><path d="M 266.625 297.128906 L 283 297.128906 L 283 318.128906 L 266.625 318.128906 Z M 266.625 297.128906 " clip-rule="nonzero"/></clipPath><clipPath id="eb87e51a3e"><path d="M 241 297.128906 L 258 297.128906 L 258 318.128906 L 241 318.128906 Z M 241 297.128906 " clip-rule="nonzero"/></clipPath><clipPath id="5d7fe3d7f7"><path d="M 229.5 297.128906 L 246 297.128906 L 246 318.128906 L 229.5 318.128906 Z M 229.5 297.128906 " clip-rule="nonzero"/></clipPath><clipPath id="2d881f6337"><path d="M 204 297.128906 L 220.875 297.128906 L 220.875 318.128906 L 204 318.128906 Z M 204 297.128906 " clip-rule="nonzero"/></clipPath><clipPath id="236783ecbc"><path d="M 192.375 297.128906 L 209 297.128906 L 209 318.128906 L 192.375 318.128906 Z M 192.375 297.128906 " clip-rule="nonzero"/></clipPath><clipPath id="7ca4781674"><path d="M 167 297.128906 L 183.75 297.128906 L 183.75 318.128906 L 167 318.128906 Z M 167 297.128906 " clip-rule="nonzero"/></clipPath><clipPath id="31441a22d3"><path d="M 155.25 297.128906 L 172 297.128906 L 172 318.128906 L 155.25 318.128906 Z M 155.25 297.128906 " clip-rule="nonzero"/></clipPath><clipPath id="33ee9f1754"><path d="M 130 297 L 147 297 L 147 319 L 130 319 Z M 130 297 " clip-rule="nonzero"/></clipPath><clipPath id="27f3496a5c"><path d="M 117.945312 297.378906 L 146.441406 296.875 L 146.8125 317.871094 L 118.316406 318.375 Z M 117.945312 297.378906 " clip-rule="nonzero"/></clipPath><clipPath id="695959db4e"><path d="M 117.945312 297.378906 L 146.441406 296.875 L 146.8125 317.871094 L 118.316406 318.375 Z M 117.945312 297.378906 " clip-rule="nonzero"/></clipPath><clipPath id="ed96c079ec"><path d="M 117 297 L 135 297 L 135 319 L 117 319 Z M 117 297 " clip-rule="nonzero"/></clipPath><clipPath id="339676ec39"><path d="M 117.945312 297.378906 L 146.441406 296.875 L 146.8125 317.871094 L 118.316406 318.375 Z M 117.945312 297.378906 " clip-rule="nonzero"/></clipPath><clipPath id="6cecad2d1a"><path d="M 117.945312 297.378906 L 146.441406 296.875 L 146.8125 317.871094 L 118.316406 318.375 Z M 117.945312 297.378906 " clip-rule="nonzero"/></clipPath><clipPath id="54d98c283c"><path d="M 80 284 L 100 284 L 100 306 L 80 306 Z M 80 284 " clip-rule="nonzero"/></clipPath><clipPath id="80de58d3de"><path d="M 81.105469 277.734375 L 105.09375 293.121094 L 93.757812 310.796875 L 69.765625 295.410156 Z M 81.105469 277.734375 " clip-rule="nonzero"/></clipPath><clipPath id="41eb414698"><path d="M 81.105469 277.734375 L 105.09375 293.121094 L 93.757812 310.796875 L 69.765625 295.410156 Z M 81.105469 277.734375 " clip-rule="nonzero"/></clipPath><clipPath id="9c09fdf184"><path d="M 70 278 L 90 278 L 90 300 L 70 300 Z M 70 278 " clip-rule="nonzero"/></clipPath><clipPath id="17d5a61252"><path d="M 81.105469 277.734375 L 105.09375 293.121094 L 93.757812 310.796875 L 69.765625 295.410156 Z M 81.105469 277.734375 " clip-rule="nonzero"/></clipPath><clipPath id="1c521174dd"><path d="M 81.105469 277.734375 L 105.09375 293.121094 L 93.757812 310.796875 L 69.765625 295.410156 Z M 81.105469 277.734375 " clip-rule="nonzero"/></clipPath><clipPath id="455ab372ad"><path d="M 42 264 L 62 264 L 62 285 L 42 285 Z M 42 264 " clip-rule="nonzero"/></clipPath><clipPath id="79224e5260"><path d="M 48.058594 255.742188 L 68.585938 275.511719 L 54.019531 290.636719 L 33.492188 270.867188 Z M 48.058594 255.742188 " clip-rule="nonzero"/></clipPath><clipPath id="4c9f1d29a9"><path d="M 48.058594 255.742188 L 68.585938 275.511719 L 54.019531 290.636719 L 33.492188 270.867188 Z M 48.058594 255.742188 " clip-rule="nonzero"/></clipPath><clipPath id="43154dd2bb"><path d="M 33 256 L 54 256 L 54 276 L 33 276 Z M 33 256 " clip-rule="nonzero"/></clipPath><clipPath id="21c87e348c"><path d="M 48.058594 255.742188 L 68.585938 275.511719 L 54.019531 290.636719 L 33.492188 270.867188 Z M 48.058594 255.742188 " clip-rule="nonzero"/></clipPath><clipPath id="abd8a12679"><path d="M 48.058594 255.742188 L 68.585938 275.511719 L 54.019531 290.636719 L 33.492188 270.867188 Z M 48.058594 255.742188 " clip-rule="nonzero"/></clipPath><clipPath id="4c6e6265c6"><path d="M 19 232 L 41 232 L 41 251 L 19 251 Z M 19 232 " clip-rule="nonzero"/></clipPath><clipPath id="59d181fee0"><path d="M 31.21875 221.023438 L 45.539062 245.664062 L 27.386719 256.21875 L 13.0625 231.578125 Z M 31.21875 221.023438 " clip-rule="nonzero"/></clipPath><clipPath id="a88517c2db"><path d="M 31.21875 221.023438 L 45.539062 245.664062 L 27.386719 256.21875 L 13.0625 231.578125 Z M 31.21875 221.023438 " clip-rule="nonzero"/></clipPath><clipPath id="014eb03551"><path d="M 13 221 L 35 221 L 35 241 L 13 241 Z M 13 221 " clip-rule="nonzero"/></clipPath><clipPath id="c1da1f9560"><path d="M 31.21875 221.023438 L 45.539062 245.664062 L 27.386719 256.21875 L 13.0625 231.578125 Z M 31.21875 221.023438 " clip-rule="nonzero"/></clipPath><clipPath id="a13fef9c0a"><path d="M 31.21875 221.023438 L 45.539062 245.664062 L 27.386719 256.21875 L 13.0625 231.578125 Z M 31.21875 221.023438 " clip-rule="nonzero"/></clipPath><clipPath id="9b3b91255a"><path d="M 8.878906 184 L 29.878906 184 L 29.878906 200.4375 L 8.878906 200.4375 Z M 8.878906 184 " clip-rule="nonzero"/></clipPath><clipPath id="1f0eb6e8c1"><path d="M 8.878906 171.9375 L 29.878906 171.9375 L 29.878906 188 L 8.878906 188 Z M 8.878906 171.9375 " clip-rule="nonzero"/></clipPath><clipPath id="5a6e363819"><path d="M 18 126 L 39 126 L 39 146 L 18 146 Z M 18 126 " clip-rule="nonzero"/></clipPath><clipPath id="58eefc089c"><path d="M 46.378906 127.648438 L 30.144531 151.074219 L 12.882812 139.109375 L 29.117188 115.6875 Z M 46.378906 127.648438 " clip-rule="nonzero"/></clipPath><clipPath id="4834172a71"><path d="M 46.378906 127.648438 L 30.144531 151.074219 L 12.882812 139.109375 L 29.117188 115.6875 Z M 46.378906 127.648438 " clip-rule="nonzero"/></clipPath><clipPath id="1d164a6e7e"><path d="M 25 116 L 46 116 L 46 136 L 25 136 Z M 25 116 " clip-rule="nonzero"/></clipPath><clipPath id="9d66360f44"><path d="M 46.378906 127.648438 L 30.144531 151.074219 L 12.882812 139.109375 L 29.117188 115.6875 Z M 46.378906 127.648438 " clip-rule="nonzero"/></clipPath><clipPath id="57e6565793"><path d="M 46.378906 127.648438 L 30.144531 151.074219 L 12.882812 139.109375 L 29.117188 115.6875 Z M 46.378906 127.648438 " clip-rule="nonzero"/></clipPath><clipPath id="b5ca5b8849"><path d="M 44 90 L 64 90 L 64 111 L 44 111 Z M 44 90 " clip-rule="nonzero"/></clipPath><clipPath id="475f10c256"><path d="M 72.519531 97.335938 L 51.425781 116.5 L 37.304688 100.957031 L 58.398438 81.792969 Z M 72.519531 97.335938 " clip-rule="nonzero"/></clipPath><clipPath id="7f4cd5fc25"><path d="M 72.519531 97.335938 L 51.425781 116.5 L 37.304688 100.957031 L 58.398438 81.792969 Z M 72.519531 97.335938 " clip-rule="nonzero"/></clipPath><clipPath id="f0387ed236"><path d="M 53 82 L 73 82 L 73 102 L 53 102 Z M 53 82 " clip-rule="nonzero"/></clipPath><clipPath id="3265bb2ec4"><path d="M 72.519531 97.335938 L 51.425781 116.5 L 37.304688 100.957031 L 58.398438 81.792969 Z M 72.519531 97.335938 " clip-rule="nonzero"/></clipPath><clipPath id="b62e9c461e"><path d="M 72.519531 97.335938 L 51.425781 116.5 L 37.304688 100.957031 L 58.398438 81.792969 Z M 72.519531 97.335938 " clip-rule="nonzero"/></clipPath><clipPath id="c379b5478c"><path d="M 74 67 L 94 67 L 94 90 L 74 90 Z M 74 67 " clip-rule="nonzero"/></clipPath><clipPath id="242a822dc1"><path d="M 104.921875 81.058594 L 79.34375 93.632812 L 70.078125 74.785156 L 95.65625 62.214844 Z M 104.921875 81.058594 " clip-rule="nonzero"/></clipPath><clipPath id="4a36427b6c"><path d="M 104.921875 81.058594 L 79.34375 93.632812 L 70.078125 74.785156 L 95.65625 62.214844 Z M 104.921875 81.058594 " clip-rule="nonzero"/></clipPath><clipPath id="127f2ea25b"><path d="M 85 62 L 105 62 L 105 85 L 85 85 Z M 85 62 " clip-rule="nonzero"/></clipPath><clipPath id="6e1f684b46"><path d="M 104.921875 81.058594 L 79.34375 93.632812 L 70.078125 74.785156 L 95.65625 62.214844 Z M 104.921875 81.058594 " clip-rule="nonzero"/></clipPath><clipPath id="f6fcae113d"><path d="M 104.921875 81.058594 L 79.34375 93.632812 L 70.078125 74.785156 L 95.65625 62.214844 Z M 104.921875 81.058594 " clip-rule="nonzero"/></clipPath><clipPath id="cb86d901b9"><path d="M 117.785156 57.015625 L 135 57.015625 L 135 78 L 117.785156 78 Z M 117.785156 57.015625 " clip-rule="nonzero"/></clipPath><clipPath id="05b872ee6b"><path d="M 130 57.015625 L 146.285156 57.015625 L 146.285156 78 L 130 78 Z M 130 57.015625 " clip-rule="nonzero"/></clipPath><clipPath id="c034324ebb"><path d="M 154 56 L 171 56 L 171 78 L 154 78 Z M 154 56 " clip-rule="nonzero"/></clipPath><clipPath id="055d749b96"><path d="M 182.511719 78.015625 L 154.023438 77.15625 L 154.65625 56.164062 L 183.144531 57.023438 Z M 182.511719 78.015625 " clip-rule="nonzero"/></clipPath><clipPath id="605a27368f"><path d="M 182.511719 78.015625 L 154.023438 77.15625 L 154.65625 56.164062 L 183.144531 57.023438 Z M 182.511719 78.015625 " clip-rule="nonzero"/></clipPath><clipPath id="6a8f5087bc"><path d="M 166 56 L 184 56 L 184 78 L 166 78 Z M 166 56 " clip-rule="nonzero"/></clipPath><clipPath id="2cd35635f7"><path d="M 182.511719 78.015625 L 154.023438 77.15625 L 154.65625 56.164062 L 183.144531 57.023438 Z M 182.511719 78.015625 " clip-rule="nonzero"/></clipPath><clipPath id="5e326a143c"><path d="M 182.511719 78.015625 L 154.023438 77.15625 L 154.65625 56.164062 L 183.144531 57.023438 Z M 182.511719 78.015625 " clip-rule="nonzero"/></clipPath><clipPath id="c381d6c9b7"><path d="M 266 56 L 283 56 L 283 78 L 266 78 Z M 266 56 " clip-rule="nonzero"/></clipPath><clipPath id="b46d75267f"><path d="M 294.164062 78.015625 L 265.675781 77.15625 L 266.308594 56.164062 L 294.796875 57.023438 Z M 294.164062 78.015625 " clip-rule="nonzero"/></clipPath><clipPath id="601f9c1113"><path d="M 294.164062 78.015625 L 265.675781 77.15625 L 266.308594 56.164062 L 294.796875 57.023438 Z M 294.164062 78.015625 " clip-rule="nonzero"/></clipPath><clipPath id="b0b7afedf1"><path d="M 278 56 L 295 56 L 295 78 L 278 78 Z M 278 56 " clip-rule="nonzero"/></clipPath><clipPath id="384d73417d"><path d="M 294.164062 78.015625 L 265.675781 77.15625 L 266.308594 56.164062 L 294.796875 57.023438 Z M 294.164062 78.015625 " clip-rule="nonzero"/></clipPath><clipPath id="fefa8921ae"><path d="M 294.164062 78.015625 L 265.675781 77.15625 L 266.308594 56.164062 L 294.796875 57.023438 Z M 294.164062 78.015625 " clip-rule="nonzero"/></clipPath><clipPath id="3cd34eee05"><path d="M 229 56 L 246 56 L 246 78 L 229 78 Z M 229 56 " clip-rule="nonzero"/></clipPath><clipPath id="a108782b74"><path d="M 257.039062 78.015625 L 228.550781 77.15625 L 229.183594 56.164062 L 257.671875 57.023438 Z M 257.039062 78.015625 " clip-rule="nonzero"/></clipPath><clipPath id="f51676f3db"><path d="M 257.039062 78.015625 L 228.550781 77.15625 L 229.183594 56.164062 L 257.671875 57.023438 Z M 257.039062 78.015625 " clip-rule="nonzero"/></clipPath><clipPath id="8e6aef49a8"><path d="M 241 56 L 258 56 L 258 78 L 241 78 Z M 241 56 " clip-rule="nonzero"/></clipPath><clipPath id="cc8186d7ca"><path d="M 257.039062 78.015625 L 228.550781 77.15625 L 229.183594 56.164062 L 257.671875 57.023438 Z M 257.039062 78.015625 " clip-rule="nonzero"/></clipPath><clipPath id="4a541f409f"><path d="M 257.039062 78.015625 L 228.550781 77.15625 L 229.183594 56.164062 L 257.671875 57.023438 Z M 257.039062 78.015625 " clip-rule="nonzero"/></clipPath><clipPath id="7dc63f5bf2"><path d="M 192 56 L 209 56 L 209 78 L 192 78 Z M 192 56 " clip-rule="nonzero"/></clipPath><clipPath id="14af7d6325"><path d="M 220.523438 78.015625 L 192.035156 77.15625 L 192.667969 56.164062 L 221.15625 57.023438 Z M 220.523438 78.015625 " clip-rule="nonzero"/></clipPath><clipPath id="4edfa5968c"><path d="M 220.523438 78.015625 L 192.035156 77.15625 L 192.667969 56.164062 L 221.15625 57.023438 Z M 220.523438 78.015625 " clip-rule="nonzero"/></clipPath><clipPath id="46d6a03fd2"><path d="M 204 56 L 222 56 L 222 78 L 204 78 Z M 204 56 " clip-rule="nonzero"/></clipPath><clipPath id="a1962ade53"><path d="M 220.523438 78.015625 L 192.035156 77.15625 L 192.667969 56.164062 L 221.15625 57.023438 Z M 220.523438 78.015625 " clip-rule="nonzero"/></clipPath><clipPath id="160dfc3872"><path d="M 220.523438 78.015625 L 192.035156 77.15625 L 192.667969 56.164062 L 221.15625 57.023438 Z M 220.523438 78.015625 " clip-rule="nonzero"/></clipPath></defs><g clip-path="url(#db4266066e)"><g clip-path="url(#db5b73f5d6)"><path fill="#737373" d="M 303.75 52.777344 L 303.75 323.039062 L -0.132812 323.039062 L -0.132812 52.777344 Z M 303.75 52.777344 " fill-opacity="1" fill-rule="nonzero"/></g></g><g clip-path="url(#7e9ec43a55)"><g clip-path="url(#b49a5ddb5c)"><path stroke-linecap="butt" transform="matrix(0.000000000000000046, 0.75, -0.75, 0.000000000000000046, 303.749959, 52.777335)" fill="none" stroke-linejoin="miter" d="M 120.062517 394.442673 C 138.520852 400.817674 159.505228 404.999965 180.098979 404.999965 C 200.69273 404.999965 220.505231 401.416632 238.770857 395.041632 C 239.156274 394.838507 239.546899 394.838507 239.937524 394.64059 C 308.515652 369.145797 359.03128 301.81246 360.00003 224.124956 L 360.00003 -0.0000552182 L 0.0000113526 -0.0000552182 L 0.0000113526 223.95829 C 0.97397 302.208294 50.708347 369.54163 120.062517 394.442673 " stroke="#000000" stroke-width="4" stroke-opacity="1" stroke-miterlimit="4"/></g></g><g clip-path="url(#8b263402b8)"><g clip-path="url(#eeb92b35ea)"><g clip-path="url(#0adc773123)"><path fill="#a6a6a6" d="M 5.152344 119.105469 L 209.042969 48.601562 L 279.546875 252.488281 L 75.65625 322.992188 Z M 5.152344 119.105469 " fill-opacity="1" fill-rule="nonzero"/></g></g></g><g clip-path="url(#4bdbf4b4d6)"><g clip-path="url(#3bbef9e818)"><g clip-path="url(#57b75b17b9)"><g clip-path="url(#f3363b7e78)"><path stroke-linecap="butt" transform="matrix(0.708818, -0.245106, 0.245106, 0.708818, 5.152379, 119.104403)" fill="none" stroke-linejoin="miter" d="M 144.000856 -0.000472747 C 64.472843 -0.00132763 -0.00107435 64.468055 0.001291 144.002693 C 0.000436121 223.530707 64.471521 287.999701 143.999534 288.000556 C 223.527548 288.001411 288.001465 223.532028 287.9991 143.99739 C 287.999954 64.469377 223.52887 0.00038213 144.000856 -0.000472747 " stroke="#000000" stroke-width="8" stroke-opacity="1" stroke-miterlimit="4"/></g></g></g></g><g clip-path="url(#fa62cb8665)"><g clip-path="url(#b1c9658637)"><g clip-path="url(#2c39dedad3)"><path fill="#ffde59" d="M 109.324219 126.777344 L 125.824219 120.601562 L 137.011719 150.503906 L 120.515625 156.675781 Z M 109.324219 126.777344 " fill-opacity="1" fill-rule="nonzero"/></g></g></g><g clip-path="url(#6d6beb1a10)"><g clip-path="url(#03dc8261b3)"><g clip-path="url(#bbe3cc4207)"><path fill="#ffde59" d="M 171.019531 198.542969 L 174.113281 181.203125 L 205.539062 186.808594 L 202.449219 204.148438 Z M 171.019531 198.542969 " fill-opacity="1" fill-rule="nonzero"/></g></g></g><g clip-path="url(#17f32fc07e)"><g clip-path="url(#ff6010a5c3)"><g clip-path="url(#04b90476e7)"><path fill="#ffde59" d="M 141.339844 248.917969 L 76.40625 194.921875 L 123.238281 138.609375 L 188.171875 192.605469 Z M 141.339844 248.917969 " fill-opacity="1" fill-rule="nonzero"/></g></g></g><g clip-path="url(#709b6471cf)"><g clip-path="url(#73b65dad21)"><g clip-path="url(#1dfe1991ba)"><path fill="#ffde59" d="M 110.625 233.640625 L 97.082031 222.378906 L 117.496094 197.832031 L 131.035156 209.097656 Z M 110.625 233.640625 " fill-opacity="1" fill-rule="nonzero"/></g></g></g><g clip-path="url(#9306efbb2f)"><g clip-path="url(#3b43737b38)"><g clip-path="url(#a33bbdd85f)"><path fill="#ffde59" d="M 129.886719 241.066406 L 93.347656 283.003906 L 51.410156 246.464844 L 87.949219 204.527344 Z M 129.886719 241.066406 " fill-opacity="1" fill-rule="nonzero"/></g></g></g><g clip-path="url(#1716863c1e)"><g clip-path="url(#f2d60c09c7)"><g clip-path="url(#5a59b0b4a7)"><g clip-path="url(#265d1d14ce)"><path fill="#000000" d="M 109.402344 260.023438 C 113.050781 255.835938 115.0625 250.980469 115.433594 245.453125 L 121.410156 245.859375 C 120.945312 252.722656 118.445312 258.753906 113.914062 263.957031 Z M 115.472656 242.78125 C 115.25 237.226562 113.386719 232.320312 109.878906 228.054688 L 114.503906 224.25 C 118.863281 229.550781 121.179688 235.648438 121.453125 242.542969 Z M 108.074219 226.089844 C 107.726562 225.746094 107.367188 225.417969 107 225.09375 C 103.207031 221.792969 98.832031 219.828125 93.867188 219.199219 L 94.617188 213.257812 C 100.789062 214.039062 106.226562 216.480469 110.933594 220.582031 C 111.386719 220.976562 111.832031 221.386719 112.265625 221.8125 Z M 91.199219 219.007812 C 85.636719 218.90625 80.625 220.484375 76.164062 223.738281 L 72.636719 218.902344 C 78.183594 214.855469 84.40625 212.894531 91.308594 213.019531 Z M 74.105469 225.417969 C 73.390625 226.066406 72.710938 226.761719 72.070312 227.496094 C 69.105469 230.898438 67.214844 234.800781 66.398438 239.207031 L 60.511719 238.113281 C 61.527344 232.636719 63.878906 227.785156 67.554688 223.5625 C 68.347656 222.652344 69.191406 221.792969 70.078125 220.988281 Z M 66.050781 241.855469 C 65.628906 247.394531 66.910156 252.488281 69.894531 257.136719 L 64.859375 260.371094 C 61.148438 254.601562 59.554688 248.277344 60.082031 241.398438 Z M 71.460938 259.304688 C 72.371094 260.425781 73.375 261.46875 74.472656 262.425781 C 77.488281 265.050781 80.921875 266.84375 84.777344 267.792969 L 83.339844 273.605469 C 78.550781 272.421875 74.28125 270.199219 70.539062 266.9375 C 69.175781 265.753906 67.933594 264.460938 66.804688 263.070312 Z M 87.394531 268.292969 C 92.902344 269.035156 98.0625 268.050781 102.878906 265.339844 L 105.816406 270.558594 C 99.832031 273.925781 93.425781 275.148438 86.59375 274.226562 Z M 105.136719 263.90625 C 106.699219 262.785156 108.121094 261.488281 109.402344 260.023438 L 113.914062 263.957031 C 112.332031 265.773438 110.566406 267.378906 108.621094 268.773438 Z M 105.136719 263.90625 " fill-opacity="1" fill-rule="nonzero"/></g></g></g></g><g clip-path="url(#9ce694bd71)"><g clip-path="url(#427b7926a8)"><g clip-path="url(#1eb4702f42)"><path fill="#ffde59" d="M 240.429688 229.796875 L 185.613281 220.359375 L 195.050781 165.542969 L 249.867188 174.980469 Z M 240.429688 229.796875 " fill-opacity="1" fill-rule="nonzero"/></g></g></g><g clip-path="url(#5509e877b1)"><g clip-path="url(#effcf14e17)"><g clip-path="url(#1853d2f9ef)"><g clip-path="url(#2171b53afb)"><path fill="#000000" d="M 213.589844 222.136719 C 219.0625 223.082031 224.257812 222.277344 229.171875 219.726562 L 231.929688 225.042969 C 225.824219 228.210938 219.371094 229.207031 212.574219 228.039062 Z M 231.476562 218.371094 C 236.105469 215.296875 239.332031 211.152344 241.152344 205.9375 L 246.804688 207.914062 C 244.542969 214.394531 240.535156 219.542969 234.789062 223.359375 Z M 241.898438 203.378906 C 242.007812 202.902344 242.105469 202.421875 242.1875 201.941406 C 243.039062 196.988281 242.445312 192.226562 240.402344 187.660156 L 245.871094 185.214844 C 248.40625 190.890625 249.148438 196.804688 248.089844 202.957031 C 247.984375 203.554688 247.867188 204.144531 247.730469 204.734375 Z M 239.179688 185.277344 C 236.378906 180.472656 232.429688 177.011719 227.328125 174.890625 L 229.628906 169.359375 C 235.96875 172 240.875 176.296875 244.351562 182.261719 Z M 224.824219 174.003906 C 223.898438 173.726562 222.953125 173.507812 221.992188 173.34375 C 217.546875 172.578125 213.226562 172.988281 209.035156 174.578125 L 206.914062 168.980469 C 212.125 167.003906 217.488281 166.492188 223.007812 167.441406 C 224.195312 167.648438 225.367188 167.917969 226.519531 168.257812 Z M 206.59375 175.660156 C 201.640625 178.175781 197.953125 181.917969 195.535156 186.882812 L 190.152344 184.257812 C 193.15625 178.089844 197.734375 173.445312 203.882812 170.320312 Z M 194.496094 189.347656 C 194.007812 190.707031 193.640625 192.105469 193.394531 193.539062 C 192.714844 197.480469 192.96875 201.347656 194.15625 205.132812 L 188.445312 206.925781 C 186.96875 202.21875 186.648438 197.417969 187.492188 192.523438 C 187.800781 190.746094 188.253906 189.011719 188.859375 187.324219 Z M 195.09375 207.632812 C 197.316406 212.722656 200.839844 216.621094 205.65625 219.328125 L 202.726562 224.546875 C 196.738281 221.183594 192.367188 216.34375 189.605469 210.03125 Z M 208.058594 220.511719 C 209.828125 221.265625 211.671875 221.808594 213.589844 222.136719 L 212.574219 228.039062 C 210.199219 227.628906 207.910156 226.957031 205.710938 226.019531 Z M 208.058594 220.511719 " fill-opacity="1" fill-rule="nonzero"/></g></g></g></g><g clip-path="url(#84f3bcca82)"><g clip-path="url(#5ef075c4d0)"><g clip-path="url(#e48ec3b67e)"><path fill="#ffde59" d="M 153.648438 111.523438 L 117.109375 153.460938 L 75.171875 116.921875 L 111.710938 74.984375 Z M 153.648438 111.523438 " fill-opacity="1" fill-rule="nonzero"/></g></g></g><g clip-path="url(#78cce794df)"><g clip-path="url(#1176caade9)"><g clip-path="url(#1607ce5e5a)"><g clip-path="url(#d8aae57411)"><path fill="#000000" d="M 133.164062 130.480469 C 136.8125 126.292969 138.824219 121.4375 139.195312 115.914062 L 145.171875 116.316406 C 144.707031 123.183594 142.207031 129.214844 137.675781 134.414062 Z M 139.234375 113.238281 C 139.015625 107.6875 137.148438 102.777344 133.640625 98.511719 L 138.265625 94.710938 C 142.625 100.011719 144.941406 106.109375 145.21875 113 Z M 131.835938 96.546875 C 131.488281 96.207031 131.128906 95.875 130.761719 95.550781 C 126.96875 92.25 122.59375 90.285156 117.628906 89.65625 L 118.382812 83.71875 C 124.550781 84.496094 129.988281 86.9375 134.695312 91.039062 C 135.152344 91.4375 135.59375 91.847656 136.027344 92.269531 Z M 114.960938 89.464844 C 109.398438 89.363281 104.390625 90.941406 99.925781 94.195312 L 96.398438 89.359375 C 101.945312 85.3125 108.167969 83.355469 115.070312 83.480469 Z M 97.867188 95.875 C 97.152344 96.527344 96.472656 97.21875 95.832031 97.953125 C 92.871094 101.355469 90.976562 105.257812 90.160156 109.664062 L 84.273438 108.570312 C 85.289062 103.09375 87.640625 98.242188 91.316406 94.023438 C 92.109375 93.109375 92.953125 92.253906 93.839844 91.445312 Z M 89.8125 112.3125 C 89.390625 117.855469 90.671875 122.949219 93.65625 127.59375 L 88.621094 130.832031 C 84.910156 125.058594 83.320312 118.734375 83.84375 111.859375 Z M 95.222656 129.761719 C 96.132812 130.886719 97.136719 131.925781 98.234375 132.882812 C 101.25 135.511719 104.683594 137.300781 108.539062 138.253906 L 107.101562 144.066406 C 102.3125 142.882812 98.042969 140.660156 94.300781 137.398438 C 92.941406 136.210938 91.695312 134.921875 90.570312 133.527344 Z M 111.160156 138.75 C 116.664062 139.496094 121.824219 138.511719 126.640625 135.800781 L 129.578125 141.015625 C 123.59375 144.382812 117.1875 145.605469 110.355469 144.683594 Z M 128.898438 134.363281 C 130.464844 133.242188 131.882812 131.949219 133.164062 130.480469 L 137.675781 134.414062 C 136.09375 136.230469 134.328125 137.835938 132.382812 139.230469 Z M 128.898438 134.363281 " fill-opacity="1" fill-rule="nonzero"/></g></g></g></g><g clip-path="url(#20f556cf34)"><g clip-path="url(#4d6af0cc5c)"><g clip-path="url(#ad0bf8c3c3)"><path fill="#707070" d="M 91.558594 253.59375 L 80.824219 244.667969 L 89.75 233.933594 L 100.484375 242.859375 Z M 91.558594 253.59375 " fill-opacity="1" fill-rule="nonzero"/></g></g></g><g clip-path="url(#660c7ffffb)"><g clip-path="url(#b4e94eb177)"><g clip-path="url(#f1fa94ae8a)"><path fill="#707070" d="M 209.683594 203.367188 L 212.050781 189.609375 L 225.808594 191.976562 L 223.441406 205.734375 Z M 209.683594 203.367188 " fill-opacity="1" fill-rule="nonzero"/></g></g></g><g clip-path="url(#2cea55ff1e)"><g clip-path="url(#68d4036955)"><g clip-path="url(#e1ecd9c89c)"><path fill="#707070" d="M 114.351562 124.429688 L 103.621094 115.507812 L 112.546875 104.773438 L 123.277344 113.699219 Z M 114.351562 124.429688 " fill-opacity="1" fill-rule="nonzero"/></g></g></g><g clip-path="url(#c23b72ae93)"><g clip-path="url(#c396d416ec)"><g clip-path="url(#00e75324dd)"><g clip-path="url(#8bb084cea4)"><path fill="#ffffff" d="M 85.175781 150.621094 C 85.144531 150.59375 85.105469 150.589844 85.066406 150.601562 C 84.964844 150.496094 85.066406 150.289062 84.871094 150.234375 C 84.578125 149.890625 84.242188 149.984375 83.902344 150.148438 C 82.957031 150.601562 82.105469 151.203125 81.289062 151.851562 C 78.375 154.183594 76.085938 157.011719 74.28125 160.273438 C 71.132812 165.960938 70.265625 172.03125 71.054688 178.386719 C 71.417969 181.335938 72.300781 184.164062 73.3125 186.957031 C 73.90625 188.59375 74.597656 190.195312 75.253906 191.8125 C 75.300781 191.859375 75.351562 191.90625 75.402344 191.953125 C 75.398438 192.03125 75.417969 192.117188 75.382812 192.179688 C 75.355469 192.226562 75.289062 192.1875 75.265625 192.128906 C 74.671875 191.777344 74.171875 191.3125 73.699219 190.824219 C 73.375 190.488281 73.039062 190.1875 72.609375 189.992188 C 71.917969 189.265625 71.121094 189.175781 70.378906 189.710938 C 70.949219 191.621094 72.339844 192.867188 73.855469 194.023438 C 74.421875 194.457031 74.957031 194.921875 75.496094 195.378906 C 76.792969 196.480469 76.667969 196.25 77.980469 195.804688 C 78.273438 195.707031 78.539062 195.542969 78.785156 195.351562 C 78.875 195.285156 78.953125 195.210938 78.960938 195.089844 C 79.289062 194.960938 79.320312 194.667969 79.332031 194.378906 C 79.371094 193.527344 79.394531 192.679688 79.425781 191.828125 C 79.539062 191.65625 79.527344 191.46875 79.5 191.28125 C 79.621094 191.117188 79.605469 190.925781 79.59375 190.742188 C 79.699219 190.636719 79.675781 190.496094 79.703125 190.367188 C 80.089844 188.664062 80.664062 187.03125 81.519531 185.496094 C 81.582031 185.378906 81.636719 185.261719 81.695312 185.144531 C 81.769531 185.003906 81.851562 184.84375 81.722656 184.71875 C 81.625 184.621094 81.433594 184.632812 81.34375 184.703125 C 80.929688 185.007812 80.394531 185.015625 79.972656 185.277344 C 79.78125 185.394531 79.65625 185.574219 79.535156 185.761719 C 78.570312 187.210938 77.894531 188.785156 77.382812 190.429688 C 77.335938 190.578125 77.3125 190.734375 77.238281 190.867188 C 77.148438 191.023438 77.015625 190.964844 76.902344 190.875 C 76.9375 190.703125 76.875 190.574219 76.730469 190.480469 C 76.730469 190.316406 76.71875 190.160156 76.554688 190.0625 C 76.578125 190.023438 76.566406 189.996094 76.523438 189.980469 C 76.53125 189.828125 76.511719 189.679688 76.363281 189.585938 C 76.34375 189.476562 76.339844 189.367188 76.300781 189.265625 C 75.890625 188.152344 75.464844 187.046875 75.066406 185.929688 C 74.707031 184.917969 74.378906 183.894531 74.039062 182.875 C 73.980469 182.59375 73.933594 182.3125 73.867188 182.039062 C 73.222656 179.347656 72.914062 176.625 73.019531 173.863281 C 73.058594 172.878906 73.128906 171.894531 73.183594 170.910156 C 73.304688 170.730469 73.277344 170.535156 73.253906 170.339844 C 73.375 170.171875 73.351562 169.984375 73.332031 169.796875 C 73.460938 169.648438 73.425781 169.46875 73.421875 169.296875 C 73.515625 169.203125 73.519531 169.09375 73.488281 168.976562 C 73.519531 168.941406 73.523438 168.902344 73.5 168.859375 C 73.601562 168.753906 73.582031 168.617188 73.613281 168.492188 C 73.769531 167.878906 73.816406 167.242188 74.054688 166.652344 C 74.007812 166.59375 73.996094 166.410156 73.882812 166.621094 C 73.808594 166.765625 73.761719 166.769531 73.730469 166.726562 C 73.699219 166.6875 73.679688 166.613281 73.65625 166.558594 C 74.21875 164.644531 75.007812 162.820312 75.917969 161.046875 C 76.019531 160.890625 76.117188 160.730469 76.21875 160.574219 C 76.816406 159.636719 77.414062 158.699219 78.007812 157.761719 C 78.050781 157.746094 78.082031 157.71875 78.101562 157.6875 C 78.113281 157.660156 78.121094 157.636719 78.121094 157.605469 C 78.195312 157.582031 78.230469 157.53125 78.234375 157.457031 C 78.308594 157.433594 78.34375 157.382812 78.347656 157.304688 C 78.421875 157.285156 78.457031 157.230469 78.460938 157.15625 C 78.535156 157.132812 78.574219 157.085938 78.574219 157.007812 C 78.652344 156.988281 78.6875 156.9375 78.691406 156.859375 C 78.765625 156.839844 78.804688 156.789062 78.808594 156.714844 L 78.808594 156.710938 C 78.851562 156.667969 78.890625 156.621094 78.925781 156.570312 L 78.929688 156.566406 C 79.003906 156.546875 79.042969 156.5 79.046875 156.425781 L 79.050781 156.417969 C 79.125 156.402344 79.164062 156.355469 79.164062 156.277344 L 79.167969 156.273438 C 79.167969 156.273438 79.171875 156.273438 79.171875 156.273438 C 79.171875 156.273438 79.167969 156.273438 79.167969 156.273438 C 79.246094 156.257812 79.285156 156.210938 79.289062 156.132812 L 79.289062 156.128906 C 79.367188 156.113281 79.40625 156.066406 79.40625 155.988281 L 79.410156 155.984375 C 79.484375 155.96875 79.527344 155.921875 79.53125 155.84375 C 79.933594 155.425781 80.335938 155.011719 80.734375 154.597656 C 80.875 154.316406 81.132812 154.132812 81.351562 153.925781 C 81.386719 153.9375 81.414062 153.957031 81.4375 153.976562 C 81.472656 154.007812 81.496094 154.050781 81.507812 154.101562 C 81.691406 153.964844 81.886719 153.839844 81.996094 153.625 C 82.023438 153.554688 82.058594 153.492188 82.117188 153.449219 C 82.078125 153.507812 82.035156 153.5625 81.996094 153.625 C 82.0625 153.589844 82.125 153.550781 82.117188 153.46875 C 82.234375 153.457031 82.308594 153.390625 82.359375 153.289062 C 82.433594 153.285156 82.484375 153.25 82.492188 153.171875 C 82.566406 153.144531 82.625 153.109375 82.640625 153.027344 C 82.679688 153.019531 82.707031 153.003906 82.726562 152.964844 C 82.929688 152.863281 83.101562 152.722656 83.238281 152.539062 C 83.378906 152.457031 83.523438 152.378906 83.605469 152.234375 C 83.714844 152.214844 83.777344 152.136719 83.847656 152.0625 C 84.398438 151.742188 84.886719 151.324219 85.527344 151.097656 C 85.359375 150.929688 85.410156 150.679688 85.175781 150.621094 Z M 76.390625 189.992188 C 76.394531 189.992188 76.394531 189.992188 76.394531 189.992188 C 76.390625 189.992188 76.390625 189.992188 76.390625 189.992188 C 76.390625 189.992188 76.394531 189.988281 76.394531 189.988281 C 76.394531 189.988281 76.394531 189.992188 76.394531 189.992188 C 76.394531 189.992188 76.394531 189.992188 76.398438 189.988281 C 76.394531 189.992188 76.394531 189.992188 76.390625 189.992188 Z M 78.980469 155.925781 C 78.96875 155.933594 78.957031 155.945312 78.949219 155.953125 C 78.949219 155.949219 78.953125 155.945312 78.953125 155.941406 C 78.960938 155.933594 78.96875 155.921875 78.980469 155.914062 C 78.980469 155.914062 78.980469 155.917969 78.980469 155.925781 Z M 78.007812 157.75 C 78.007812 157.75 78.007812 157.75 78.003906 157.746094 C 78 157.746094 77.996094 157.742188 77.992188 157.738281 L 77.980469 157.726562 L 78.007812 157.75 C 78.007812 157.75 78.007812 157.746094 78.011719 157.746094 C 78.007812 157.746094 78.007812 157.75 78.007812 157.75 Z M 78.960938 155.859375 C 78.96875 155.875 78.972656 155.894531 78.976562 155.910156 C 78.96875 155.921875 78.960938 155.929688 78.953125 155.941406 C 78.96875 155.917969 78.972656 155.886719 78.960938 155.859375 Z M 78.898438 156.003906 C 78.886719 156.015625 78.878906 156.027344 78.867188 156.035156 C 78.867188 156.035156 78.867188 156.039062 78.863281 156.039062 C 78.875 156.027344 78.886719 156.015625 78.898438 156.003906 Z M 83.988281 150.859375 C 83.988281 150.859375 83.992188 150.855469 83.992188 150.855469 C 83.992188 150.855469 83.992188 150.851562 83.992188 150.851562 C 83.996094 150.851562 83.996094 150.851562 84 150.851562 C 83.996094 150.855469 83.992188 150.855469 83.988281 150.859375 Z M 83.746094 151.003906 C 83.742188 151.003906 83.738281 151.003906 83.734375 151.003906 C 83.738281 151.003906 83.742188 151.003906 83.746094 151.003906 Z M 82.140625 153.335938 C 82.136719 153.324219 82.128906 153.308594 82.121094 153.296875 C 82.128906 153.296875 82.136719 153.296875 82.144531 153.292969 C 82.144531 153.308594 82.140625 153.320312 82.140625 153.335938 Z M 82.554688 153.054688 C 82.570312 153.039062 82.59375 153.027344 82.621094 153.019531 C 82.59375 153.03125 82.570312 153.039062 82.554688 153.054688 Z M 82.554688 153.054688 " fill-opacity="1" fill-rule="nonzero"/></g></g></g></g><g clip-path="url(#b933f4d2a0)"><g clip-path="url(#e0fc5d43d2)"><g clip-path="url(#650fbda1ea)"><g clip-path="url(#fd781b4bde)"><path fill="#ffffff" d="M 78.929688 156.5625 C 78.890625 156.609375 78.851562 156.65625 78.8125 156.703125 C 78.890625 156.683594 78.925781 156.636719 78.929688 156.5625 Z M 78.929688 156.5625 " fill-opacity="1" fill-rule="nonzero"/></g></g></g></g><g clip-path="url(#5b99948ffa)"><g clip-path="url(#8c23d46afb)"><g clip-path="url(#982788171c)"><g clip-path="url(#e78cb2e28b)"><path fill="#ffffff" d="M 196.40625 151.984375 C 196.445312 151.976562 196.472656 151.949219 196.484375 151.910156 C 196.628906 151.886719 196.742188 152.089844 196.898438 151.957031 C 197.347656 151.914062 197.464844 151.585938 197.527344 151.21875 C 197.699219 150.179688 197.699219 149.140625 197.636719 148.101562 C 197.40625 144.371094 196.410156 140.875 194.785156 137.523438 C 191.945312 131.671875 187.480469 127.46875 181.828125 124.457031 C 179.207031 123.058594 176.386719 122.148438 173.523438 121.371094 C 171.839844 120.914062 170.132812 120.558594 168.433594 120.164062 C 168.367188 120.175781 168.300781 120.1875 168.234375 120.203125 C 168.171875 120.15625 168.089844 120.121094 168.058594 120.058594 C 168.058594 120.058594 168.058594 120.058594 168.058594 120.054688 C 168.035156 120.007812 168.109375 119.972656 168.167969 119.988281 C 168.796875 119.707031 169.464844 119.566406 170.136719 119.460938 C 170.597656 119.390625 171.039062 119.285156 171.445312 119.050781 C 172.4375 118.902344 172.96875 118.300781 172.957031 117.386719 C 171.070312 116.753906 169.25 117.171875 167.429688 117.746094 C 166.75 117.960938 166.0625 118.128906 165.375 118.308594 C 163.734375 118.734375 163.992188 118.765625 163.597656 120.09375 C 163.511719 120.390625 163.492188 120.699219 163.507812 121.011719 C 163.511719 121.125 163.527344 121.230469 163.617188 121.308594 C 163.535156 121.652344 163.757812 121.84375 163.988281 122.019531 C 164.660156 122.539062 165.339844 123.050781 166.019531 123.566406 C 166.09375 123.757812 166.253906 123.851562 166.421875 123.941406 C 166.488281 124.136719 166.652344 124.230469 166.8125 124.328125 C 166.835938 124.472656 166.964844 124.535156 167.054688 124.632812 C 168.222656 125.929688 169.230469 127.339844 169.992188 128.921875 C 170.050781 129.039062 170.117188 129.152344 170.179688 129.269531 C 170.253906 129.410156 170.335938 129.566406 170.511719 129.535156 C 170.644531 129.511719 170.746094 129.351562 170.742188 129.234375 C 170.730469 128.722656 171.03125 128.28125 171.0625 127.78125 C 171.078125 127.5625 171 127.355469 170.917969 127.144531 C 170.289062 125.527344 169.390625 124.066406 168.339844 122.699219 C 168.246094 122.574219 168.128906 122.464844 168.0625 122.328125 C 167.988281 122.167969 168.113281 122.089844 168.25 122.046875 C 168.371094 122.175781 168.511719 122.203125 168.671875 122.136719 C 168.804688 122.230469 168.941406 122.3125 169.117188 122.234375 C 169.132812 122.273438 169.164062 122.28125 169.199219 122.253906 C 169.324219 122.351562 169.453125 122.417969 169.617188 122.351562 C 169.714844 122.398438 169.808594 122.457031 169.914062 122.484375 C 171.058594 122.792969 172.210938 123.078125 173.351562 123.394531 C 174.386719 123.683594 175.414062 124.003906 176.441406 124.3125 C 176.703125 124.429688 176.960938 124.550781 177.226562 124.65625 C 179.792969 125.675781 182.199219 126.992188 184.394531 128.667969 C 185.179688 129.265625 185.945312 129.890625 186.71875 130.5 C 186.792969 130.703125 186.96875 130.792969 187.144531 130.886719 C 187.210938 131.082031 187.375 131.171875 187.539062 131.261719 C 187.589844 131.453125 187.757812 131.527344 187.902344 131.625 C 187.921875 131.753906 188.011719 131.820312 188.125 131.863281 C 188.136719 131.910156 188.164062 131.933594 188.210938 131.941406 C 188.238281 132.082031 188.367188 132.148438 188.449219 132.246094 C 188.859375 132.726562 189.351562 133.128906 189.699219 133.664062 C 189.773438 133.660156 189.929688 133.753906 189.820312 133.542969 C 189.75 133.398438 189.769531 133.359375 189.824219 133.355469 C 189.871094 133.355469 189.945312 133.378906 190.003906 133.390625 C 191.246094 134.953125 192.285156 136.648438 193.210938 138.414062 C 193.28125 138.585938 193.351562 138.761719 193.421875 138.933594 C 193.847656 139.960938 194.269531 140.988281 194.695312 142.015625 C 194.683594 142.058594 194.683594 142.097656 194.703125 142.132812 C 194.714844 142.15625 194.730469 142.179688 194.753906 142.199219 C 194.734375 142.269531 194.753906 142.332031 194.8125 142.375 C 194.789062 142.449219 194.8125 142.507812 194.871094 142.554688 C 194.847656 142.628906 194.867188 142.6875 194.929688 142.734375 C 194.902344 142.808594 194.921875 142.867188 194.984375 142.914062 C 194.957031 142.988281 194.976562 143.046875 195.039062 143.089844 L 195.039062 143.09375 C 195.011719 143.164062 195.027344 143.226562 195.089844 143.269531 L 195.089844 143.273438 C 195.101562 143.332031 195.117188 143.390625 195.140625 143.449219 L 195.140625 143.457031 C 195.113281 143.527344 195.128906 143.585938 195.1875 143.632812 L 195.191406 143.640625 C 195.164062 143.710938 195.179688 143.769531 195.238281 143.816406 L 195.242188 143.820312 C 195.242188 143.820312 195.242188 143.824219 195.242188 143.824219 C 195.242188 143.824219 195.242188 143.820312 195.242188 143.820312 C 195.210938 143.894531 195.226562 143.953125 195.289062 144 L 195.289062 144.003906 C 195.261719 144.074219 195.277344 144.132812 195.335938 144.179688 L 195.339844 144.183594 C 195.308594 144.253906 195.324219 144.316406 195.382812 144.363281 C 195.492188 144.933594 195.601562 145.5 195.710938 146.066406 C 195.859375 146.34375 195.863281 146.65625 195.90625 146.957031 C 195.875 146.980469 195.84375 146.992188 195.8125 146.996094 C 195.765625 147.007812 195.71875 147.003906 195.667969 146.984375 C 195.679688 147.210938 195.667969 147.445312 195.78125 147.65625 C 195.820312 147.71875 195.851562 147.78125 195.855469 147.859375 C 195.832031 147.792969 195.808594 147.722656 195.78125 147.65625 C 195.769531 147.730469 195.765625 147.804688 195.835938 147.847656 C 195.78125 147.949219 195.789062 148.046875 195.84375 148.144531 C 195.804688 148.210938 195.804688 148.269531 195.863281 148.324219 C 195.84375 148.398438 195.839844 148.46875 195.898438 148.527344 C 195.882812 148.5625 195.878906 148.597656 195.898438 148.632812 C 195.867188 148.859375 195.882812 149.082031 195.953125 149.296875 C 195.9375 149.460938 195.917969 149.621094 195.988281 149.773438 C 195.941406 149.875 195.972656 149.972656 195.992188 150.070312 C 195.9375 150.703125 195.996094 151.34375 195.8125 152 C 196.046875 151.957031 196.222656 152.144531 196.40625 151.984375 Z M 169.265625 122.140625 C 169.265625 122.140625 169.265625 122.140625 169.269531 122.144531 C 169.269531 122.140625 169.269531 122.140625 169.269531 122.140625 C 169.269531 122.140625 169.269531 122.144531 169.269531 122.144531 C 169.265625 122.144531 169.265625 122.144531 169.265625 122.148438 C 169.265625 122.144531 169.265625 122.144531 169.265625 122.140625 Z M 195.632812 143.867188 C 195.632812 143.851562 195.632812 143.839844 195.632812 143.824219 C 195.632812 143.828125 195.632812 143.832031 195.636719 143.835938 C 195.640625 143.847656 195.644531 143.859375 195.644531 143.871094 C 195.644531 143.871094 195.640625 143.871094 195.632812 143.867188 Z M 194.703125 142.023438 C 194.703125 142.019531 194.703125 142.019531 194.707031 142.019531 C 194.710938 142.019531 194.714844 142.015625 194.71875 142.015625 L 194.738281 142.015625 L 194.703125 142.019531 C 194.703125 142.023438 194.703125 142.023438 194.703125 142.023438 Z M 195.699219 143.890625 C 195.683594 143.886719 195.664062 143.878906 195.648438 143.875 C 195.644531 143.859375 195.640625 143.847656 195.636719 143.835938 C 195.648438 143.863281 195.667969 143.882812 195.699219 143.890625 Z M 195.617188 143.753906 C 195.613281 143.738281 195.609375 143.722656 195.609375 143.710938 C 195.609375 143.710938 195.609375 143.707031 195.609375 143.707031 C 195.613281 143.722656 195.613281 143.738281 195.617188 143.753906 Z M 196.894531 150.878906 C 196.894531 150.878906 196.894531 150.882812 196.898438 150.882812 C 196.898438 150.882812 196.898438 150.886719 196.898438 150.886719 C 196.894531 150.886719 196.894531 150.890625 196.894531 150.890625 C 196.894531 150.886719 196.894531 150.882812 196.894531 150.878906 Z M 196.917969 150.597656 C 196.917969 150.59375 196.921875 150.589844 196.921875 150.585938 C 196.917969 150.589844 196.917969 150.59375 196.917969 150.597656 Z M 195.933594 147.941406 C 195.945312 147.945312 195.960938 147.945312 195.976562 147.945312 C 195.972656 147.953125 195.96875 147.960938 195.964844 147.96875 C 195.953125 147.960938 195.945312 147.949219 195.933594 147.941406 Z M 195.925781 148.441406 C 195.929688 148.464844 195.925781 148.488281 195.917969 148.515625 C 195.917969 148.515625 195.917969 148.515625 195.914062 148.515625 C 195.921875 148.488281 195.925781 148.464844 195.925781 148.441406 Z M 195.925781 148.441406 " fill-opacity="1" fill-rule="nonzero"/></g></g></g></g><g clip-path="url(#3b626ffaae)"><g clip-path="url(#61539f0c07)"><g clip-path="url(#12cc0b198a)"><g clip-path="url(#31463eed7e)"><path fill="#ffffff" d="M 195.144531 143.460938 C 195.128906 143.398438 195.109375 143.339844 195.097656 143.28125 C 195.066406 143.355469 195.085938 143.414062 195.144531 143.460938 Z M 195.144531 143.460938 " fill-opacity="1" fill-rule="nonzero"/></g></g></g></g><g clip-path="url(#e4a427ca3a)"><g clip-path="url(#0d73e833ad)"><g clip-path="url(#472afd0b0e)"><g clip-path="url(#020f461529)"><path fill="#ffffff" d="M 141.753906 246.792969 C 141.738281 246.832031 141.746094 246.867188 141.773438 246.902344 C 141.710938 247.03125 141.476562 247.007812 141.496094 247.214844 C 141.273438 247.605469 141.476562 247.890625 141.746094 248.152344 C 142.5 248.882812 143.355469 249.476562 144.246094 250.019531 C 147.4375 251.957031 150.882812 253.132812 154.5625 253.703125 C 160.988281 254.703125 166.984375 253.433594 172.683594 250.507812 C 175.324219 249.152344 177.679688 247.351562 179.953125 245.441406 C 181.289062 244.320312 182.550781 243.117188 183.84375 241.949219 C 183.871094 241.886719 183.898438 241.824219 183.925781 241.761719 C 184 241.738281 184.074219 241.6875 184.144531 241.699219 C 184.199219 241.710938 184.1875 241.785156 184.140625 241.828125 C 184.011719 242.507812 183.75 243.132812 183.449219 243.746094 C 183.246094 244.164062 183.082031 244.589844 183.042969 245.058594 C 182.597656 245.957031 182.789062 246.734375 183.546875 247.25 C 185.144531 246.058594 185.839844 244.324219 186.402344 242.5 C 186.613281 241.820312 186.867188 241.160156 187.113281 240.492188 C 187.699219 238.898438 187.523438 239.097656 186.660156 238.015625 C 186.464844 237.773438 186.21875 237.582031 185.957031 237.414062 C 185.859375 237.351562 185.765625 237.304688 185.648438 237.339844 C 185.414062 237.074219 185.128906 237.148438 184.855469 237.234375 C 184.042969 237.492188 183.234375 237.761719 182.425781 238.023438 C 182.226562 237.976562 182.054688 238.054688 181.886719 238.140625 C 181.691406 238.085938 181.519531 238.167969 181.347656 238.242188 C 181.214844 238.179688 181.085938 238.25 180.960938 238.265625 C 179.226562 238.488281 177.496094 238.511719 175.761719 238.234375 C 175.628906 238.214844 175.496094 238.207031 175.367188 238.191406 C 175.210938 238.171875 175.035156 238.148438 174.960938 238.3125 C 174.902344 238.4375 174.976562 238.613281 175.074219 238.675781 C 175.503906 238.957031 175.695312 239.457031 176.085938 239.765625 C 176.257812 239.902344 176.472656 239.957031 176.695312 240.007812 C 178.382812 240.414062 180.09375 240.507812 181.816406 240.425781 C 181.96875 240.417969 182.125 240.386719 182.277344 240.410156 C 182.453125 240.4375 182.445312 240.585938 182.398438 240.722656 C 182.226562 240.75 182.125 240.851562 182.085938 241.019531 C 181.933594 241.074219 181.789062 241.140625 181.753906 241.328125 C 181.710938 241.320312 181.691406 241.339844 181.6875 241.382812 C 181.539062 241.433594 181.410156 241.5 181.371094 241.671875 C 181.277344 241.726562 181.175781 241.769531 181.09375 241.839844 C 180.1875 242.605469 179.296875 243.386719 178.386719 244.144531 C 177.558594 244.832031 176.710938 245.492188 175.871094 246.164062 C 175.625 246.3125 175.378906 246.453125 175.144531 246.609375 C 172.839844 248.140625 170.386719 249.363281 167.757812 250.214844 C 166.820312 250.519531 165.871094 250.792969 164.929688 251.078125 C 164.71875 251.027344 164.546875 251.117188 164.367188 251.207031 C 164.171875 251.152344 164.003906 251.238281 163.832031 251.320312 C 163.648438 251.253906 163.492188 251.347656 163.332031 251.410156 C 163.210938 251.355469 163.105469 251.386719 163.007812 251.457031 C 162.964844 251.441406 162.925781 251.449219 162.894531 251.484375 C 162.761719 251.425781 162.636719 251.492188 162.511719 251.507812 C 161.882812 251.570312 161.269531 251.742188 160.628906 251.726562 C 160.589844 251.789062 160.425781 251.863281 160.664062 251.894531 C 160.820312 251.917969 160.839844 251.957031 160.8125 252.003906 C 160.785156 252.046875 160.726562 252.089844 160.679688 252.128906 C 158.6875 252.261719 156.703125 252.148438 154.726562 251.902344 C 154.542969 251.863281 154.359375 251.824219 154.179688 251.78125 C 153.09375 251.542969 152.007812 251.304688 150.921875 251.070312 C 150.890625 251.035156 150.859375 251.015625 150.820312 251.007812 C 150.792969 251.003906 150.765625 251.007812 150.738281 251.015625 C 150.691406 250.957031 150.628906 250.941406 150.558594 250.960938 C 150.511719 250.902344 150.449219 250.882812 150.378906 250.90625 C 150.332031 250.84375 150.273438 250.828125 150.199219 250.851562 C 150.152344 250.789062 150.09375 250.769531 150.019531 250.796875 C 149.972656 250.730469 149.914062 250.710938 149.84375 250.738281 L 149.839844 250.738281 C 149.796875 250.671875 149.738281 250.652344 149.667969 250.679688 L 149.664062 250.675781 C 149.605469 250.65625 149.546875 250.632812 149.488281 250.617188 L 149.484375 250.613281 C 149.441406 250.550781 149.382812 250.53125 149.3125 250.554688 L 149.304688 250.550781 C 149.261719 250.488281 149.207031 250.46875 149.132812 250.492188 L 149.125 250.488281 C 149.085938 250.425781 149.027344 250.402344 148.953125 250.425781 L 148.949219 250.425781 C 148.90625 250.359375 148.847656 250.339844 148.777344 250.363281 L 148.773438 250.363281 C 148.730469 250.296875 148.671875 250.277344 148.597656 250.296875 C 148.070312 250.0625 147.542969 249.828125 147.011719 249.59375 C 146.699219 249.558594 146.441406 249.382812 146.171875 249.246094 C 146.171875 249.210938 146.179688 249.179688 146.191406 249.148438 C 146.207031 249.105469 146.238281 249.070312 146.285156 249.039062 C 146.089844 248.914062 145.90625 248.777344 145.667969 248.746094 C 145.59375 248.746094 145.523438 248.734375 145.460938 248.691406 C 145.527344 248.710938 145.597656 248.730469 145.667969 248.746094 C 145.613281 248.695312 145.554688 248.652344 145.480469 248.6875 C 145.429688 248.582031 145.339844 248.53125 145.230469 248.519531 C 145.195312 248.453125 145.148438 248.417969 145.070312 248.433594 C 145.023438 248.375 144.96875 248.332031 144.886719 248.347656 C 144.867188 248.3125 144.839844 248.292969 144.796875 248.285156 C 144.628906 248.128906 144.4375 248.019531 144.222656 247.953125 C 144.097656 247.847656 143.972656 247.742188 143.808594 247.710938 C 143.753906 247.617188 143.65625 247.585938 143.5625 247.546875 C 143.074219 247.136719 142.511719 246.824219 142.078125 246.296875 C 141.980469 246.515625 141.726562 246.550781 141.753906 246.792969 Z M 181.746094 241.503906 C 181.746094 241.503906 181.746094 241.503906 181.742188 241.503906 C 181.742188 241.507812 181.746094 241.507812 181.746094 241.507812 C 181.742188 241.507812 181.742188 241.503906 181.742188 241.503906 C 181.742188 241.503906 181.742188 241.5 181.738281 241.5 C 181.742188 241.5 181.742188 241.503906 181.746094 241.503906 Z M 148.863281 250.785156 C 148.875 250.792969 148.890625 250.800781 148.902344 250.808594 C 148.898438 250.808594 148.894531 250.808594 148.890625 250.804688 C 148.878906 250.800781 148.867188 250.796875 148.855469 250.792969 C 148.855469 250.792969 148.859375 250.789062 148.863281 250.785156 Z M 150.914062 251.074219 C 150.914062 251.074219 150.910156 251.074219 150.910156 251.078125 C 150.910156 251.082031 150.910156 251.085938 150.90625 251.089844 L 150.898438 251.105469 L 150.910156 251.074219 C 150.910156 251.074219 150.910156 251.074219 150.910156 251.070312 C 150.910156 251.074219 150.910156 251.074219 150.914062 251.074219 Z M 148.808594 250.828125 C 148.824219 250.816406 148.835938 250.804688 148.851562 250.792969 C 148.863281 250.800781 148.875 250.804688 148.886719 250.808594 C 148.859375 250.800781 148.832031 250.808594 148.808594 250.828125 Z M 148.964844 250.839844 C 148.980469 250.84375 148.996094 250.847656 149.007812 250.855469 C 149.007812 250.855469 149.007812 250.855469 149.011719 250.859375 C 148.996094 250.851562 148.980469 250.84375 148.964844 250.839844 Z M 142.386719 247.824219 C 142.382812 247.824219 142.382812 247.824219 142.378906 247.824219 C 142.378906 247.820312 142.375 247.820312 142.375 247.820312 C 142.378906 247.820312 142.382812 247.824219 142.386719 247.824219 Z M 142.605469 248.003906 C 142.605469 248.007812 142.605469 248.011719 142.609375 248.011719 C 142.609375 248.007812 142.605469 248.007812 142.605469 248.003906 Z M 145.347656 248.710938 C 145.335938 248.71875 145.328125 248.730469 145.316406 248.742188 C 145.3125 248.734375 145.308594 248.726562 145.304688 248.71875 C 145.320312 248.71875 145.332031 248.714844 145.347656 248.710938 Z M 144.941406 248.417969 C 144.917969 248.410156 144.898438 248.390625 144.882812 248.367188 C 144.882812 248.367188 144.882812 248.367188 144.886719 248.367188 C 144.902344 248.390625 144.921875 248.40625 144.941406 248.417969 Z M 144.941406 248.417969 " fill-opacity="1" fill-rule="nonzero"/></g></g></g></g><g clip-path="url(#9f613c4d0a)"><g clip-path="url(#c94df2093b)"><g clip-path="url(#cd510b4ce3)"><g clip-path="url(#0aa55dd51e)"><path fill="#ffffff" d="M 149.476562 250.617188 C 149.535156 250.636719 149.59375 250.65625 149.652344 250.675781 C 149.609375 250.613281 149.550781 250.59375 149.476562 250.617188 Z M 149.476562 250.617188 " fill-opacity="1" fill-rule="nonzero"/></g></g></g></g><path stroke-linecap="butt" transform="matrix(0.74987, 0.00605191, -0.00605275, 0.749976, 136.490312, 77.868328)" fill="none" stroke-linejoin="miter" d="M -0.00220402 1.998562 L 223.03636 2.000901 " stroke="#000000" stroke-width="4" stroke-opacity="1" stroke-miterlimit="4"/><path stroke-linecap="butt" transform="matrix(0.750617, -0.00364086, 0.00363783, 0.749991, 135.126205, 291.168432)" fill="none" stroke-linejoin="miter" d="M -0.000887235 1.999401 L 224.814281 2.002221 " stroke="#000000" stroke-width="4" stroke-opacity="1" stroke-miterlimit="4"/><g clip-path="url(#948423f770)"><path fill="#5ce1e6" d="M 294.695312 306.992188 L 286.203125 297.5 C 286.019531 297.296875 285.765625 297.183594 285.5 297.183594 L 279.835938 297.183594 C 279.464844 297.183594 279.128906 297.402344 278.972656 297.746094 C 278.824219 298.089844 278.886719 298.488281 279.136719 298.765625 L 287.058594 307.628906 L 279.136719 316.484375 C 278.886719 316.765625 278.820312 317.164062 278.972656 317.507812 C 279.128906 317.851562 279.464844 318.070312 279.835938 318.070312 L 285.5 318.070312 C 285.765625 318.070312 286.019531 317.953125 286.203125 317.757812 L 294.695312 308.261719 C 295.015625 307.902344 295.015625 307.351562 294.695312 306.992188 Z M 294.695312 306.992188 " fill-opacity="1" fill-rule="nonzero"/></g><g clip-path="url(#4d9902430a)"><path fill="#5ce1e6" d="M 282.425781 306.992188 L 273.933594 297.5 C 273.75 297.296875 273.5 297.183594 273.230469 297.183594 L 267.570312 297.183594 C 267.195312 297.183594 266.859375 297.402344 266.707031 297.746094 C 266.554688 298.089844 266.617188 298.488281 266.867188 298.765625 L 274.792969 307.628906 L 266.867188 316.484375 C 266.617188 316.765625 266.554688 317.164062 266.707031 317.507812 C 266.859375 317.851562 267.195312 318.070312 267.570312 318.070312 L 273.230469 318.070312 C 273.5 318.070312 273.75 317.953125 273.933594 317.757812 L 282.425781 308.261719 C 282.75 307.902344 282.75 307.351562 282.425781 306.992188 Z M 282.425781 306.992188 " fill-opacity="1" fill-rule="nonzero"/></g><g clip-path="url(#eb87e51a3e)"><path fill="#38b6ff" d="M 257.570312 306.992188 L 249.078125 297.5 C 248.894531 297.296875 248.640625 297.183594 248.375 297.183594 L 242.710938 297.183594 C 242.339844 297.183594 242.003906 297.402344 241.847656 297.746094 C 241.699219 298.089844 241.761719 298.488281 242.007812 298.765625 L 249.933594 307.628906 L 242.007812 316.484375 C 241.761719 316.765625 241.695312 317.164062 241.847656 317.507812 C 242.003906 317.851562 242.339844 318.070312 242.710938 318.070312 L 248.375 318.070312 C 248.640625 318.070312 248.894531 317.953125 249.078125 317.757812 L 257.570312 308.261719 C 257.890625 307.902344 257.890625 307.351562 257.570312 306.992188 Z M 257.570312 306.992188 " fill-opacity="1" fill-rule="nonzero"/></g><g clip-path="url(#5d7fe3d7f7)"><path fill="#38b6ff" d="M 245.300781 306.992188 L 236.808594 297.5 C 236.625 297.296875 236.375 297.183594 236.105469 297.183594 L 230.445312 297.183594 C 230.070312 297.183594 229.734375 297.402344 229.582031 297.746094 C 229.429688 298.089844 229.492188 298.488281 229.742188 298.765625 L 237.667969 307.628906 L 229.742188 316.484375 C 229.492188 316.765625 229.429688 317.164062 229.582031 317.507812 C 229.734375 317.851562 230.070312 318.070312 230.445312 318.070312 L 236.105469 318.070312 C 236.375 318.070312 236.625 317.953125 236.808594 317.757812 L 245.300781 308.261719 C 245.625 307.902344 245.625 307.351562 245.300781 306.992188 Z M 245.300781 306.992188 " fill-opacity="1" fill-rule="nonzero"/></g><g clip-path="url(#2d881f6337)"><path fill="#38b6ff" d="M 220.445312 306.992188 L 211.953125 297.5 C 211.769531 297.296875 211.515625 297.183594 211.25 297.183594 L 205.585938 297.183594 C 205.214844 297.183594 204.878906 297.402344 204.722656 297.746094 C 204.574219 298.089844 204.636719 298.488281 204.886719 298.765625 L 212.808594 307.628906 L 204.886719 316.484375 C 204.636719 316.765625 204.570312 317.164062 204.722656 317.507812 C 204.878906 317.851562 205.214844 318.070312 205.585938 318.070312 L 211.25 318.070312 C 211.515625 318.070312 211.769531 317.953125 211.953125 317.757812 L 220.445312 308.261719 C 220.765625 307.902344 220.765625 307.351562 220.445312 306.992188 Z M 220.445312 306.992188 " fill-opacity="1" fill-rule="nonzero"/></g><g clip-path="url(#236783ecbc)"><path fill="#38b6ff" d="M 208.175781 306.992188 L 199.683594 297.5 C 199.5 297.296875 199.25 297.183594 198.980469 297.183594 L 193.320312 297.183594 C 192.945312 297.183594 192.609375 297.402344 192.457031 297.746094 C 192.304688 298.089844 192.367188 298.488281 192.617188 298.765625 L 200.542969 307.628906 L 192.617188 316.484375 C 192.367188 316.765625 192.304688 317.164062 192.457031 317.507812 C 192.609375 317.851562 192.945312 318.070312 193.320312 318.070312 L 198.980469 318.070312 C 199.25 318.070312 199.5 317.953125 199.683594 317.757812 L 208.175781 308.261719 C 208.5 307.902344 208.5 307.351562 208.175781 306.992188 Z M 208.175781 306.992188 " fill-opacity="1" fill-rule="nonzero"/></g><g clip-path="url(#7ca4781674)"><path fill="#38b6ff" d="M 183.320312 306.992188 L 174.828125 297.5 C 174.644531 297.296875 174.390625 297.183594 174.125 297.183594 L 168.460938 297.183594 C 168.089844 297.183594 167.753906 297.402344 167.597656 297.746094 C 167.449219 298.089844 167.511719 298.488281 167.761719 298.765625 L 175.683594 307.628906 L 167.761719 316.484375 C 167.511719 316.765625 167.445312 317.164062 167.597656 317.507812 C 167.753906 317.851562 168.089844 318.070312 168.460938 318.070312 L 174.125 318.070312 C 174.390625 318.070312 174.644531 317.953125 174.828125 317.757812 L 183.320312 308.261719 C 183.640625 307.902344 183.640625 307.351562 183.320312 306.992188 Z M 183.320312 306.992188 " fill-opacity="1" fill-rule="nonzero"/></g><g clip-path="url(#31441a22d3)"><path fill="#38b6ff" d="M 171.050781 306.992188 L 162.558594 297.5 C 162.375 297.296875 162.125 297.183594 161.855469 297.183594 L 156.195312 297.183594 C 155.820312 297.183594 155.484375 297.402344 155.332031 297.746094 C 155.179688 298.089844 155.242188 298.488281 155.492188 298.765625 L 163.417969 307.628906 L 155.492188 316.484375 C 155.242188 316.765625 155.179688 317.164062 155.332031 317.507812 C 155.484375 317.851562 155.820312 318.070312 156.195312 318.070312 L 161.855469 318.070312 C 162.125 318.070312 162.375 317.953125 162.558594 317.757812 L 171.050781 308.261719 C 171.375 307.902344 171.375 307.351562 171.050781 306.992188 Z M 171.050781 306.992188 " fill-opacity="1" fill-rule="nonzero"/></g><g clip-path="url(#33ee9f1754)"><g clip-path="url(#27f3496a5c)"><g clip-path="url(#695959db4e)"><path fill="#5ce1e6" d="M 146.183594 306.746094 L 137.523438 297.402344 C 137.339844 297.207031 137.085938 297.097656 136.816406 297.101562 L 131.15625 297.199219 C 130.785156 297.207031 130.449219 297.433594 130.304688 297.777344 C 130.160156 298.125 130.226562 298.523438 130.480469 298.796875 L 138.5625 307.515625 L 130.792969 316.511719 C 130.550781 316.796875 130.492188 317.195312 130.652344 317.535156 C 130.8125 317.875 131.152344 318.089844 131.523438 318.085938 L 137.1875 317.984375 C 137.453125 317.980469 137.703125 317.859375 137.882812 317.660156 L 146.207031 308.015625 C 146.523438 307.648438 146.511719 307.097656 146.183594 306.746094 Z M 146.183594 306.746094 " fill-opacity="1" fill-rule="nonzero"/></g></g></g><g clip-path="url(#ed96c079ec)"><g clip-path="url(#339676ec39)"><g clip-path="url(#6cecad2d1a)"><path fill="#5ce1e6" d="M 133.917969 306.960938 L 125.257812 297.621094 C 125.074219 297.421875 124.820312 297.3125 124.550781 297.316406 L 118.890625 297.417969 C 118.519531 297.425781 118.183594 297.648438 118.035156 297.996094 C 117.890625 298.339844 117.960938 298.742188 118.214844 299.011719 L 126.296875 307.730469 L 118.527344 316.726562 C 118.285156 317.011719 118.226562 317.414062 118.386719 317.753906 C 118.546875 318.09375 118.886719 318.308594 119.257812 318.300781 L 124.921875 318.203125 C 125.1875 318.195312 125.4375 318.074219 125.617188 317.875 L 133.941406 308.234375 C 134.257812 307.867188 134.246094 307.316406 133.917969 306.960938 Z M 133.917969 306.960938 " fill-opacity="1" fill-rule="nonzero"/></g></g></g><g clip-path="url(#54d98c283c)"><g clip-path="url(#80de58d3de)"><g clip-path="url(#41eb414698)"><path fill="#38b6ff" d="M 99.40625 301.191406 L 97.382812 288.617188 C 97.335938 288.347656 97.1875 288.117188 96.960938 287.972656 L 92.195312 284.914062 C 91.882812 284.714844 91.476562 284.714844 91.164062 284.921875 C 90.851562 285.128906 90.6875 285.5 90.75 285.867188 L 92.636719 297.605469 L 81.183594 300.78125 C 80.824219 300.882812 80.550781 301.183594 80.496094 301.554688 C 80.441406 301.925781 80.605469 302.296875 80.917969 302.496094 L 85.683594 305.554688 C 85.910156 305.699219 86.183594 305.738281 86.445312 305.667969 L 98.71875 302.261719 C 99.1875 302.132812 99.484375 301.667969 99.40625 301.191406 Z M 99.40625 301.191406 " fill-opacity="1" fill-rule="nonzero"/></g></g></g><g clip-path="url(#9c09fdf184)"><g clip-path="url(#17d5a61252)"><g clip-path="url(#1c521174dd)"><path fill="#38b6ff" d="M 89.078125 294.570312 L 87.054688 281.992188 C 87.011719 281.726562 86.859375 281.492188 86.632812 281.347656 L 81.867188 278.292969 C 81.554688 278.089844 81.152344 278.09375 80.839844 278.296875 C 80.527344 278.507812 80.363281 278.878906 80.421875 279.246094 L 82.308594 290.980469 L 70.855469 294.160156 C 70.496094 294.257812 70.226562 294.5625 70.167969 294.933594 C 70.113281 295.304688 70.277344 295.671875 70.589844 295.871094 L 75.359375 298.929688 C 75.582031 299.074219 75.859375 299.113281 76.117188 299.046875 L 88.394531 295.640625 C 88.859375 295.507812 89.15625 295.046875 89.078125 294.570312 Z M 89.078125 294.570312 " fill-opacity="1" fill-rule="nonzero"/></g></g></g><g clip-path="url(#455ab372ad)"><g clip-path="url(#79224e5260)"><g clip-path="url(#4c9f1d29a9)"><path fill="#38b6ff" d="M 61.433594 282.320312 L 61.902344 269.589844 C 61.910156 269.316406 61.808594 269.0625 61.613281 268.875 L 57.535156 264.945312 C 57.269531 264.6875 56.871094 264.613281 56.523438 264.753906 C 56.175781 264.894531 55.945312 265.226562 55.929688 265.601562 L 55.492188 277.480469 L 43.640625 278.363281 C 43.265625 278.390625 42.941406 278.632812 42.816406 278.988281 C 42.6875 279.339844 42.777344 279.734375 43.046875 279.992188 L 47.125 283.917969 C 47.316406 284.105469 47.582031 284.195312 47.847656 284.179688 L 60.550781 283.234375 C 61.035156 283.199219 61.414062 282.800781 61.433594 282.320312 Z M 61.433594 282.320312 " fill-opacity="1" fill-rule="nonzero"/></g></g></g><g clip-path="url(#43154dd2bb)"><g clip-path="url(#21c87e348c)"><g clip-path="url(#abd8a12679)"><path fill="#38b6ff" d="M 52.597656 273.808594 L 53.066406 261.078125 C 53.074219 260.808594 52.96875 260.550781 52.777344 260.363281 L 48.699219 256.4375 C 48.429688 256.179688 48.035156 256.101562 47.6875 256.242188 C 47.339844 256.386719 47.109375 256.71875 47.09375 257.089844 L 46.65625 268.96875 L 34.804688 269.851562 C 34.429688 269.878906 34.105469 270.125 33.980469 270.476562 C 33.851562 270.828125 33.941406 271.222656 34.210938 271.480469 L 38.289062 275.410156 C 38.480469 275.59375 38.742188 275.6875 39.011719 275.671875 L 51.714844 274.722656 C 52.199219 274.6875 52.578125 274.289062 52.597656 273.808594 Z M 52.597656 273.808594 " fill-opacity="1" fill-rule="nonzero"/></g></g></g><g clip-path="url(#4c6e6265c6)"><g clip-path="url(#59d181fee0)"><g clip-path="url(#a88517c2db)"><path fill="#38b6ff" d="M 36.792969 250.25 L 40.734375 238.136719 C 40.816406 237.878906 40.789062 237.601562 40.652344 237.371094 L 37.808594 232.476562 C 37.621094 232.15625 37.261719 231.972656 36.890625 232.011719 C 36.515625 232.054688 36.199219 232.308594 36.085938 232.664062 L 32.410156 243.96875 L 20.769531 241.570312 C 20.402344 241.492188 20.023438 241.640625 19.804688 241.945312 C 19.585938 242.25 19.5625 242.652344 19.75 242.972656 L 22.597656 247.867188 C 22.730469 248.101562 22.957031 248.261719 23.21875 248.316406 L 35.695312 250.890625 C 36.171875 250.988281 36.648438 250.710938 36.792969 250.25 Z M 36.792969 250.25 " fill-opacity="1" fill-rule="nonzero"/></g></g></g><g clip-path="url(#014eb03551)"><g clip-path="url(#c1da1f9560)"><g clip-path="url(#a13fef9c0a)"><path fill="#38b6ff" d="M 30.628906 239.644531 L 34.570312 227.53125 C 34.652344 227.273438 34.625 226.996094 34.488281 226.765625 L 31.644531 221.871094 C 31.457031 221.546875 31.097656 221.367188 30.722656 221.40625 C 30.351562 221.449219 30.035156 221.703125 29.921875 222.058594 L 26.246094 233.363281 L 14.601562 230.960938 C 14.238281 230.886719 13.859375 231.035156 13.640625 231.335938 C 13.417969 231.640625 13.398438 232.042969 13.585938 232.367188 L 16.429688 237.261719 C 16.566406 237.492188 16.792969 237.652344 17.054688 237.710938 L 29.53125 240.28125 C 30.003906 240.378906 30.480469 240.105469 30.628906 239.644531 Z M 30.628906 239.644531 " fill-opacity="1" fill-rule="nonzero"/></g></g></g><g clip-path="url(#9b3b91255a)"><path fill="#5ce1e6" d="M 20.015625 200.003906 L 29.507812 191.511719 C 29.710938 191.332031 29.824219 191.078125 29.824219 190.808594 L 29.824219 185.148438 C 29.824219 184.777344 29.605469 184.4375 29.261719 184.285156 C 28.917969 184.132812 28.515625 184.195312 28.242188 184.445312 L 19.378906 192.371094 L 10.523438 184.445312 C 10.242188 184.195312 9.84375 184.132812 9.5 184.285156 C 9.15625 184.4375 8.9375 184.777344 8.9375 185.148438 L 8.9375 190.808594 C 8.9375 191.078125 9.050781 191.332031 9.25 191.511719 L 18.746094 200.003906 C 19.105469 200.328125 19.65625 200.328125 20.015625 200.003906 Z M 20.015625 200.003906 " fill-opacity="1" fill-rule="nonzero"/></g><g clip-path="url(#1f0eb6e8c1)"><path fill="#5ce1e6" d="M 20.015625 187.738281 L 29.507812 179.242188 C 29.710938 179.0625 29.824219 178.808594 29.824219 178.542969 L 29.824219 172.878906 C 29.824219 172.507812 29.605469 172.171875 29.261719 172.015625 C 28.917969 171.867188 28.515625 171.929688 28.242188 172.175781 L 19.378906 180.101562 L 10.523438 172.175781 C 10.242188 171.929688 9.84375 171.863281 9.5 172.015625 C 9.15625 172.171875 8.9375 172.507812 8.9375 172.878906 L 8.9375 178.542969 C 8.9375 178.808594 9.050781 179.0625 9.25 179.242188 L 18.746094 187.738281 C 19.105469 188.058594 19.65625 188.058594 20.015625 187.738281 Z M 20.015625 187.738281 " fill-opacity="1" fill-rule="nonzero"/></g><g clip-path="url(#5a6e363819)"><g clip-path="url(#58eefc089c)"><g clip-path="url(#4834172a71)"><path fill="#38b6ff" d="M 22.28125 145.097656 L 34.921875 143.527344 C 35.191406 143.492188 35.429688 143.347656 35.582031 143.128906 L 38.808594 138.476562 C 39.019531 138.167969 39.03125 137.765625 38.835938 137.445312 C 38.640625 137.125 38.273438 136.949219 37.90625 136.996094 L 26.109375 138.460938 L 23.34375 126.902344 C 23.253906 126.539062 22.960938 126.257812 22.59375 126.191406 C 22.226562 126.121094 21.851562 126.273438 21.640625 126.578125 L 18.414062 131.230469 C 18.261719 131.453125 18.210938 131.726562 18.273438 131.988281 L 21.238281 144.375 C 21.351562 144.847656 21.800781 145.160156 22.28125 145.097656 Z M 22.28125 145.097656 " fill-opacity="1" fill-rule="nonzero"/></g></g></g><g clip-path="url(#1d164a6e7e)"><g clip-path="url(#9d66360f44)"><g clip-path="url(#57e6565793)"><path fill="#38b6ff" d="M 29.269531 135.015625 L 41.910156 133.441406 C 42.179688 133.410156 42.417969 133.265625 42.570312 133.046875 L 45.792969 128.390625 C 46.007812 128.085938 46.019531 127.683594 45.824219 127.363281 C 45.628906 127.042969 45.261719 126.867188 44.894531 126.914062 L 33.097656 128.378906 L 30.332031 116.820312 C 30.242188 116.457031 29.949219 116.175781 29.582031 116.105469 C 29.210938 116.035156 28.839844 116.1875 28.628906 116.492188 L 25.402344 121.148438 C 25.25 121.367188 25.199219 121.640625 25.261719 121.902344 L 28.226562 134.292969 C 28.335938 134.761719 28.789062 135.078125 29.269531 135.015625 Z M 29.269531 135.015625 " fill-opacity="1" fill-rule="nonzero"/></g></g></g><g clip-path="url(#b5ca5b8849)"><g clip-path="url(#475f10c256)"><g clip-path="url(#7f4cd5fc25)"><path fill="#38b6ff" d="M 45.109375 108.90625 L 57.78125 110.222656 C 58.050781 110.25 58.3125 110.164062 58.511719 109.984375 L 62.703125 106.175781 C 62.976562 105.925781 63.078125 105.535156 62.960938 105.179688 C 62.84375 104.824219 62.527344 104.570312 62.15625 104.53125 L 50.332031 103.304688 L 50.242188 91.417969 C 50.238281 91.042969 50.015625 90.703125 49.675781 90.554688 C 49.332031 90.402344 48.933594 90.46875 48.65625 90.71875 L 44.464844 94.523438 C 44.265625 94.707031 44.160156 94.960938 44.15625 95.230469 L 44.253906 107.96875 C 44.257812 108.453125 44.628906 108.859375 45.109375 108.90625 Z M 45.109375 108.90625 " fill-opacity="1" fill-rule="nonzero"/></g></g></g><g clip-path="url(#f0387ed236)"><g clip-path="url(#3265bb2ec4)"><g clip-path="url(#b62e9c461e)"><path fill="#38b6ff" d="M 54.1875 100.65625 L 66.859375 101.972656 C 67.128906 102 67.394531 101.914062 67.589844 101.734375 L 71.78125 97.925781 C 72.058594 97.675781 72.160156 97.285156 72.042969 96.929688 C 71.921875 96.574219 71.609375 96.320312 71.238281 96.28125 L 59.414062 95.054688 L 59.324219 83.167969 C 59.320312 82.792969 59.097656 82.453125 58.753906 82.304688 C 58.410156 82.152344 58.011719 82.21875 57.738281 82.46875 L 53.546875 86.273438 C 53.347656 86.457031 53.238281 86.710938 53.238281 86.980469 L 53.335938 99.71875 C 53.339844 100.203125 53.710938 100.609375 54.1875 100.65625 Z M 54.1875 100.65625 " fill-opacity="1" fill-rule="nonzero"/></g></g></g><g clip-path="url(#c379b5478c)"><g clip-path="url(#242a822dc1)"><g clip-path="url(#4a36427b6c)"><path fill="#38b6ff" d="M 75.378906 84.589844 L 87.1875 89.363281 C 87.441406 89.460938 87.71875 89.453125 87.957031 89.335938 L 93.039062 86.835938 C 93.371094 86.671875 93.578125 86.328125 93.566406 85.953125 C 93.550781 85.578125 93.316406 85.246094 92.96875 85.105469 L 81.949219 80.652344 L 85.152344 69.207031 C 85.253906 68.84375 85.136719 68.457031 84.847656 68.21875 C 84.558594 67.976562 84.160156 67.929688 83.824219 68.09375 L 78.742188 70.589844 C 78.503906 70.707031 78.328125 70.925781 78.25 71.179688 L 74.816406 83.449219 C 74.6875 83.914062 74.929688 84.410156 75.378906 84.589844 Z M 75.378906 84.589844 " fill-opacity="1" fill-rule="nonzero"/></g></g></g><g clip-path="url(#127f2ea25b)"><g clip-path="url(#6e1f684b46)"><g clip-path="url(#f6fcae113d)"><path fill="#38b6ff" d="M 86.386719 79.175781 L 98.199219 83.949219 C 98.449219 84.050781 98.726562 84.042969 98.96875 83.921875 L 104.050781 81.425781 C 104.382812 81.261719 104.589844 80.914062 104.574219 80.539062 C 104.558594 80.164062 104.328125 79.832031 103.980469 79.695312 L 92.960938 75.238281 L 96.164062 63.792969 C 96.265625 63.433594 96.144531 63.046875 95.859375 62.804688 C 95.570312 62.566406 95.167969 62.515625 94.835938 62.679688 L 89.753906 65.179688 C 89.511719 65.296875 89.335938 65.511719 89.261719 65.769531 L 85.828125 78.035156 C 85.695312 78.503906 85.941406 78.996094 86.386719 79.175781 Z M 86.386719 79.175781 " fill-opacity="1" fill-rule="nonzero"/></g></g></g><g clip-path="url(#cb86d901b9)"><path fill="#5ce1e6" d="M 118.214844 68.148438 L 126.707031 77.640625 C 126.890625 77.84375 127.144531 77.957031 127.410156 77.957031 L 133.074219 77.957031 C 133.445312 77.957031 133.78125 77.738281 133.9375 77.394531 C 134.085938 77.050781 134.023438 76.652344 133.773438 76.375 L 125.851562 67.515625 L 133.773438 58.65625 C 134.023438 58.375 134.089844 57.976562 133.9375 57.632812 C 133.78125 57.289062 133.445312 57.070312 133.074219 57.070312 L 127.410156 57.070312 C 127.144531 57.070312 126.890625 57.1875 126.707031 57.382812 L 118.214844 66.878906 C 117.894531 67.238281 117.894531 67.789062 118.214844 68.148438 Z M 118.214844 68.148438 " fill-opacity="1" fill-rule="nonzero"/></g><g clip-path="url(#05b872ee6b)"><path fill="#5ce1e6" d="M 130.484375 68.148438 L 138.976562 77.640625 C 139.160156 77.84375 139.410156 77.957031 139.679688 77.957031 L 145.339844 77.957031 C 145.714844 77.957031 146.050781 77.738281 146.203125 77.394531 C 146.355469 77.050781 146.292969 76.652344 146.042969 76.375 L 138.117188 67.515625 L 146.042969 58.65625 C 146.292969 58.375 146.355469 57.976562 146.203125 57.632812 C 146.050781 57.289062 145.714844 57.070312 145.339844 57.070312 L 139.679688 57.070312 C 139.410156 57.070312 139.160156 57.1875 138.976562 57.382812 L 130.484375 66.878906 C 130.160156 67.238281 130.160156 67.789062 130.484375 68.148438 Z M 130.484375 68.148438 " fill-opacity="1" fill-rule="nonzero"/></g><g clip-path="url(#c034324ebb)"><g clip-path="url(#055d749b96)"><g clip-path="url(#605a27368f)"><path fill="#38b6ff" d="M 154.75 67.308594 L 162.957031 77.054688 C 163.128906 77.257812 163.378906 77.382812 163.648438 77.390625 L 169.308594 77.558594 C 169.679688 77.570312 170.023438 77.359375 170.1875 77.023438 C 170.347656 76.683594 170.296875 76.28125 170.058594 75.996094 L 162.402344 66.902344 L 170.589844 58.289062 C 170.847656 58.015625 170.925781 57.617188 170.78125 57.273438 C 170.640625 56.921875 170.308594 56.691406 169.9375 56.683594 L 164.277344 56.511719 C 164.007812 56.503906 163.753906 56.613281 163.566406 56.804688 L 154.789062 66.039062 C 154.457031 66.386719 154.441406 66.9375 154.75 67.308594 Z M 154.75 67.308594 " fill-opacity="1" fill-rule="nonzero"/></g></g></g><g clip-path="url(#6a8f5087bc)"><g clip-path="url(#2cd35635f7)"><g clip-path="url(#5e326a143c)"><path fill="#38b6ff" d="M 167.015625 67.675781 L 175.21875 77.421875 C 175.394531 77.628906 175.640625 77.75 175.910156 77.757812 L 181.570312 77.929688 C 181.941406 77.941406 182.285156 77.730469 182.449219 77.394531 C 182.609375 77.054688 182.558594 76.652344 182.320312 76.367188 L 174.664062 67.273438 L 182.851562 58.65625 C 183.109375 58.386719 183.1875 57.988281 183.042969 57.640625 C 182.902344 57.292969 182.570312 57.0625 182.199219 57.050781 L 176.539062 56.878906 C 176.269531 56.871094 176.015625 56.980469 175.828125 57.171875 L 167.050781 66.40625 C 166.71875 66.757812 166.703125 67.308594 167.015625 67.675781 Z M 167.015625 67.675781 " fill-opacity="1" fill-rule="nonzero"/></g></g></g><g clip-path="url(#c381d6c9b7)"><g clip-path="url(#b46d75267f)"><g clip-path="url(#601f9c1113)"><path fill="#5ce1e6" d="M 266.402344 67.308594 L 274.609375 77.054688 C 274.78125 77.257812 275.03125 77.382812 275.300781 77.390625 L 280.960938 77.558594 C 281.332031 77.570312 281.675781 77.359375 281.839844 77.023438 C 282 76.683594 281.949219 76.28125 281.710938 75.996094 L 274.054688 66.902344 L 282.242188 58.289062 C 282.5 58.015625 282.578125 57.617188 282.433594 57.273438 C 282.292969 56.921875 281.960938 56.691406 281.589844 56.683594 L 275.929688 56.511719 C 275.660156 56.503906 275.40625 56.613281 275.21875 56.804688 L 266.441406 66.039062 C 266.109375 66.386719 266.09375 66.9375 266.402344 67.308594 Z M 266.402344 67.308594 " fill-opacity="1" fill-rule="nonzero"/></g></g></g><g clip-path="url(#b0b7afedf1)"><g clip-path="url(#384d73417d)"><g clip-path="url(#fefa8921ae)"><path fill="#5ce1e6" d="M 278.667969 67.675781 L 286.871094 77.421875 C 287.046875 77.628906 287.292969 77.75 287.5625 77.757812 L 293.222656 77.929688 C 293.59375 77.941406 293.9375 77.730469 294.101562 77.394531 C 294.261719 77.054688 294.210938 76.652344 293.972656 76.367188 L 286.316406 67.273438 L 294.503906 58.65625 C 294.761719 58.386719 294.839844 57.988281 294.695312 57.640625 C 294.554688 57.292969 294.222656 57.0625 293.851562 57.050781 L 288.191406 56.878906 C 287.921875 56.871094 287.667969 56.980469 287.480469 57.171875 L 278.703125 66.40625 C 278.371094 66.757812 278.355469 67.308594 278.667969 67.675781 Z M 278.667969 67.675781 " fill-opacity="1" fill-rule="nonzero"/></g></g></g><g clip-path="url(#3cd34eee05)"><g clip-path="url(#a108782b74)"><g clip-path="url(#f51676f3db)"><path fill="#38b6ff" d="M 229.277344 67.308594 L 237.484375 77.054688 C 237.65625 77.257812 237.90625 77.382812 238.175781 77.390625 L 243.835938 77.558594 C 244.207031 77.570312 244.550781 77.359375 244.714844 77.023438 C 244.875 76.683594 244.824219 76.28125 244.585938 75.996094 L 236.929688 66.902344 L 245.117188 58.289062 C 245.375 58.015625 245.453125 57.617188 245.308594 57.273438 C 245.167969 56.921875 244.835938 56.691406 244.464844 56.683594 L 238.804688 56.511719 C 238.535156 56.503906 238.28125 56.613281 238.09375 56.804688 L 229.316406 66.039062 C 228.984375 66.386719 228.96875 66.9375 229.277344 67.308594 Z M 229.277344 67.308594 " fill-opacity="1" fill-rule="nonzero"/></g></g></g><g clip-path="url(#8e6aef49a8)"><g clip-path="url(#cc8186d7ca)"><g clip-path="url(#4a541f409f)"><path fill="#38b6ff" d="M 241.542969 67.675781 L 249.746094 77.421875 C 249.921875 77.628906 250.167969 77.75 250.4375 77.757812 L 256.097656 77.929688 C 256.46875 77.941406 256.8125 77.730469 256.976562 77.394531 C 257.136719 77.054688 257.085938 76.652344 256.847656 76.367188 L 249.191406 67.273438 L 257.378906 58.65625 C 257.636719 58.386719 257.714844 57.988281 257.570312 57.640625 C 257.429688 57.292969 257.097656 57.0625 256.726562 57.050781 L 251.066406 56.878906 C 250.796875 56.871094 250.542969 56.980469 250.355469 57.171875 L 241.578125 66.40625 C 241.246094 66.757812 241.230469 67.308594 241.542969 67.675781 Z M 241.542969 67.675781 " fill-opacity="1" fill-rule="nonzero"/></g></g></g><g clip-path="url(#7dc63f5bf2)"><g clip-path="url(#14af7d6325)"><g clip-path="url(#4edfa5968c)"><path fill="#38b6ff" d="M 192.761719 67.308594 L 200.964844 77.054688 C 201.140625 77.257812 201.390625 77.382812 201.660156 77.390625 L 207.316406 77.558594 C 207.691406 77.570312 208.035156 77.359375 208.199219 77.023438 C 208.359375 76.683594 208.308594 76.28125 208.066406 75.996094 L 200.414062 66.902344 L 208.601562 58.289062 C 208.859375 58.015625 208.933594 57.617188 208.792969 57.273438 C 208.648438 56.921875 208.320312 56.691406 207.945312 56.683594 L 202.289062 56.511719 C 202.019531 56.503906 201.761719 56.613281 201.574219 56.804688 L 192.800781 66.039062 C 192.46875 66.386719 192.449219 66.9375 192.761719 67.308594 Z M 192.761719 67.308594 " fill-opacity="1" fill-rule="nonzero"/></g></g></g><g clip-path="url(#46d6a03fd2)"><g clip-path="url(#a1962ade53)"><g clip-path="url(#160dfc3872)"><path fill="#38b6ff" d="M 205.023438 67.675781 L 213.230469 77.421875 C 213.402344 77.628906 213.652344 77.75 213.921875 77.757812 L 219.582031 77.929688 C 219.953125 77.941406 220.296875 77.730469 220.460938 77.394531 C 220.621094 77.054688 220.570312 76.652344 220.332031 76.367188 L 212.675781 67.273438 L 220.863281 58.65625 C 221.121094 58.386719 221.199219 57.988281 221.054688 57.640625 C 220.914062 57.292969 220.582031 57.0625 220.210938 57.050781 L 214.550781 56.878906 C 214.28125 56.871094 214.027344 56.980469 213.839844 57.171875 L 205.0625 66.40625 C 204.730469 66.757812 204.714844 67.308594 205.023438 67.675781 Z M 205.023438 67.675781 " fill-opacity="1" fill-rule="nonzero"/></g></g></g></svg>