<svg xmlns="http://www.w3.org/2000/svg" width="450" viewBox="0 0 337.5 375" height="500" version="1.0"><defs><clipPath id="prefix__a"><path d="M0 52.777h303.75V323H0zm0 0"/></clipPath><clipPath id="prefix__b"><path d="M7.918 142.824C3.137 156.668 0 172.406 0 187.852c0 15.445 2.688 30.304 7.469 44.003.152.29.152.583.3.875 19.122 51.434 69.622 89.32 127.887 90.047H303.75v-270H135.781c-58.687.73-109.187 38.032-127.863 90.047"/></clipPath><clipPath id="prefix__c"><path d="M0 52.777h303.75v270H0zm0 0"/></clipPath><clipPath id="prefix__d"><path d="M7.918 142.824C3.137 156.668 0 172.406 0 187.852c0 15.445 2.688 30.304 7.469 44.003.152.29.152.583.3.875 19.122 51.434 69.622 89.32 127.887 90.047H303.75v-270H135.781c-58.687.73-109.187 38.032-127.863 90.047"/></clipPath><clipPath id="prefix__e"><path d="M34 77h217v217H34zm0 0"/></clipPath><clipPath id="prefix__f"><path d="M185.395 39.031l104.289 189.485-189.485 104.289L-4.09 143.32zm0 0"/></clipPath><clipPath id="prefix__g"><path d="M237.469 133.645C208.707 81.39 143.03 62.344 90.777 91.105c-52.254 28.762-71.3 94.438-42.539 146.692 28.758 52.254 94.434 71.3 146.688 42.539 52.258-28.758 71.304-94.434 42.543-146.691"/></clipPath><clipPath id="prefix__h"><path d="M34 77h217v217H34zm0 0"/></clipPath><clipPath id="prefix__i"><path d="M185.395 39.031l104.148 189.23-189.23 104.153L-3.84 143.18zm0 0"/></clipPath><clipPath id="prefix__j"><path d="M185.395 39.031l105.62 191.906L99.11 336.563-6.516 144.653zm0 0"/></clipPath><clipPath id="prefix__k"><path d="M237.469 133.645C208.707 81.39 143.03 62.344 90.777 91.105c-52.254 28.762-71.3 94.438-42.539 146.692 28.758 52.254 94.434 71.3 146.688 42.539 52.258-28.758 71.304-94.434 42.543-146.691"/></clipPath><clipPath id="prefix__l"><path d="M168 143h37v32h-37zm0 0"/></clipPath><clipPath id="prefix__m"><path d="M195.48 143l9.153 15.688-27.57 16.09-9.157-15.688zm0 0"/></clipPath><clipPath id="prefix__n"><path d="M195.48 143l8.954 15.344-27.403 15.992-8.953-15.344zm0 0"/></clipPath><clipPath id="prefix__o"><path d="M135 215h18v33h-18zm0 0"/></clipPath><clipPath id="prefix__p"><path d="M135.2 215.957l18.163.113-.203 31.926-18.16-.113zm0 0"/></clipPath><clipPath id="prefix__q"><path d="M135.2 215.957l17.765.113-.2 31.727-17.765-.11zm0 0"/></clipPath><clipPath id="prefix__r"><path d="M101 158h86v74h-86zm0 0"/></clipPath><clipPath id="prefix__s"><path d="M80.527 195.242l42.59-73.789 64.082 36.988-42.594 73.79zm0 0"/></clipPath><clipPath id="prefix__t"><path d="M101.66 158.629l84.59.02-42.262 73.222-42.328-73.242"/></clipPath><clipPath id="prefix__u"><path d="M90 147h37v32H90zm0 0"/></clipPath><clipPath id="prefix__v"><path d="M90.379 162.383l9.078-15.735 27.648 15.961-9.078 15.73zm0 0"/></clipPath><clipPath id="prefix__w"><path d="M90.379 162.383l8.879-15.387 27.48 15.86-8.883 15.386zm0 0"/></clipPath><clipPath id="prefix__x"><path d="M49 116h56v57H49zm0 0"/></clipPath><clipPath id="prefix__y"><path d="M86.324 182.625l-47.52-28.91 28.907-47.52 47.52 28.907zm0 0"/></clipPath><clipPath id="prefix__z"><path d="M62.563 168.168c13.124 7.984 30.234 3.816 38.214-9.305 7.985-13.12 3.817-30.23-9.304-38.215-13.125-7.98-30.23-3.816-38.215 9.309-7.985 13.121-3.817 30.23 9.304 38.211"/></clipPath><clipPath id="prefix__A"><path d="M49 116h56v57H49zm0 0"/></clipPath><clipPath id="prefix__B"><path d="M86.324 182.625L38.91 153.777l28.844-47.414 47.414 28.844zm0 0"/></clipPath><clipPath id="prefix__C"><path d="M86.324 182.625L38.91 153.777l28.844-47.414 47.414 28.844zm0 0"/></clipPath><clipPath id="prefix__D"><path d="M62.617 168.203c13.094 7.965 30.164 3.805 38.13-9.289 7.964-13.094 3.808-30.164-9.286-38.129-13.094-7.965-30.164-3.808-38.129 9.285-7.965 13.094-3.809 30.164 9.285 38.133"/></clipPath><clipPath id="prefix__E"><path d="M116 234h56v56h-56zm0 0"/></clipPath><clipPath id="prefix__F"><path d="M116.156 289.66l.016-55.62 55.621.01-.016 55.626zm0 0"/></clipPath><clipPath id="prefix__G"><path d="M116.164 261.848c-.004 15.359 12.445 27.816 27.805 27.82 15.36.004 27.812-12.445 27.816-27.805.004-15.36-12.441-27.812-27.8-27.82-15.36-.004-27.817 12.445-27.82 27.805"/></clipPath><clipPath id="prefix__H"><path d="M116 234h56v56h-56zm0 0"/></clipPath><clipPath id="prefix__I"><path d="M116.156 289.66l.016-55.5 55.5.016-.016 55.5zm0 0"/></clipPath><clipPath id="prefix__J"><path d="M116.156 289.66l.016-55.5 55.5.016-.016 55.5zm0 0"/></clipPath><clipPath id="prefix__K"><path d="M116.164 261.91c-.004 15.324 12.418 27.754 27.742 27.758 15.328.004 27.754-12.418 27.758-27.742.004-15.328-12.414-27.754-27.742-27.758-15.324-.004-27.754 12.414-27.758 27.742"/></clipPath><clipPath id="prefix__L"><path d="M180 118h57v56h-57zm0 0"/></clipPath><clipPath id="prefix__M"><path d="M218.02 184.098L170.5 155.19l28.906-47.52 47.52 28.907zm0 0"/></clipPath><clipPath id="prefix__N"><path d="M194.258 169.645c13.125 7.984 30.23 3.816 38.215-9.305 7.984-13.125 3.816-30.235-9.305-38.215-13.125-7.984-30.234-3.816-38.215 9.305-7.984 13.125-3.816 30.23 9.305 38.215"/></clipPath><clipPath id="prefix__O"><path d="M180 118h57v56h-57zm0 0"/></clipPath><clipPath id="prefix__P"><path d="M218.02 184.098l-47.418-28.844 28.847-47.414 47.414 28.844zm0 0"/></clipPath><clipPath id="prefix__Q"><path d="M218.02 184.098l-47.418-28.844 28.847-47.414 47.414 28.844zm0 0"/></clipPath><clipPath id="prefix__R"><path d="M194.313 169.676c13.093 7.965 30.164 3.808 38.128-9.285 7.965-13.094 3.809-30.164-9.285-38.13-13.094-7.964-30.164-3.808-38.133 9.286-7.964 13.094-3.804 30.164 9.29 38.129"/></clipPath><clipPath id="prefix__S"><path d="M70 137h14v15H70zm0 0"/></clipPath><clipPath id="prefix__T"><path d="M67.484 146.969l6.98-12.09 12.09 6.98-6.98 12.09zm0 0"/></clipPath><clipPath id="prefix__U"><path d="M70.973 140.926a6.977 6.977 0 002.558 9.531 6.973 6.973 0 009.531-2.555 6.977 6.977 0 00-2.554-9.535 6.982 6.982 0 00-9.535 2.559"/></clipPath><clipPath id="prefix__V"><path d="M136 254h15v15h-15zm0 0"/></clipPath><clipPath id="prefix__W"><path d="M136.996 254.879l13.957.004-.004 13.96-13.957-.003zm0 0"/></clipPath><clipPath id="prefix__X"><path d="M143.977 254.883a6.98 6.98 0 00-6.985 6.976 6.98 6.98 0 006.98 6.98 6.98 6.98 0 00.005-13.956"/></clipPath><clipPath id="prefix__Y"><path d="M201 138h15v14h-15zm0 0"/></clipPath><clipPath id="prefix__Z"><path d="M198.64 147.555l6.981-12.09 12.09 6.98-6.98 12.09zm0 0"/></clipPath><clipPath id="prefix__aa"><path d="M202.133 141.512a6.973 6.973 0 002.554 9.531 6.977 6.977 0 009.536-2.555 6.983 6.983 0 00-2.559-9.535 6.977 6.977 0 00-9.531 2.559"/></clipPath><clipPath id="prefix__ab"><path d="M121 112h48v14h-48zm0 0"/></clipPath><clipPath id="prefix__ac"><path d="M168.684 123.563l-47.067 4.171-1.191-13.449 47.066-4.172zm0 0"/></clipPath><clipPath id="prefix__ad"><path d="M168.684 123.563l-47.067 4.171-1.191-13.449 47.066-4.172zm0 0"/></clipPath><clipPath id="prefix__ae"><path d="M168.684 123.563l-47.067 4.171-1.191-13.449 47.066-4.172zm0 0"/></clipPath><clipPath id="prefix__af"><path d="M160 117h1v2h-1zm0 0"/></clipPath><clipPath id="prefix__ag"><path d="M168.684 123.563l-47.067 4.171-1.191-13.449 47.066-4.172zm0 0"/></clipPath><clipPath id="prefix__ah"><path d="M168.684 123.563l-47.067 4.171-1.191-13.449 47.066-4.172zm0 0"/></clipPath><clipPath id="prefix__ai"><path d="M168.684 123.563l-47.067 4.171-1.191-13.449 47.066-4.172zm0 0"/></clipPath><clipPath id="prefix__aj"><path d="M185 195h31v40h-31zm0 0"/></clipPath><clipPath id="prefix__ak"><path d="M184.668 233.555l23.68-40.89 11.68 6.765-23.68 40.89zm0 0"/></clipPath><clipPath id="prefix__al"><path d="M184.668 233.555l23.68-40.89 11.68 6.765-23.68 40.89zm0 0"/></clipPath><clipPath id="prefix__am"><path d="M184.668 233.555l23.68-40.89 11.68 6.765-23.68 40.89zm0 0"/></clipPath><clipPath id="prefix__an"><path d="M193 230h1v1h-1zm0 0"/></clipPath><clipPath id="prefix__ao"><path d="M184.668 233.555l23.68-40.89 11.68 6.765-23.68 40.89zm0 0"/></clipPath><clipPath id="prefix__ap"><path d="M184.668 233.555l23.68-40.89 11.68 6.765-23.68 40.89zm0 0"/></clipPath><clipPath id="prefix__aq"><path d="M184.668 233.555l23.68-40.89 11.68 6.765-23.68 40.89zm0 0"/></clipPath><clipPath id="prefix__ar"><path d="M78 195h22v45H78zm0 0"/></clipPath><clipPath id="prefix__as"><path d="M82.723 194.434l20.101 42.761-12.219 5.743-20.097-42.762zm0 0"/></clipPath><clipPath id="prefix__at"><path d="M82.723 194.434l20.101 42.761-12.219 5.743-20.097-42.762zm0 0"/></clipPath><clipPath id="prefix__au"><path d="M82.723 194.434l20.101 42.761-12.219 5.743-20.097-42.762zm0 0"/></clipPath><clipPath id="prefix__av"><path d="M80 203h1v1h-1zm0 0"/></clipPath><clipPath id="prefix__aw"><path d="M82.723 194.434l20.101 42.761-12.219 5.743-20.097-42.762zm0 0"/></clipPath><clipPath id="prefix__ax"><path d="M82.723 194.434l20.101 42.761-12.219 5.743-20.097-42.762zm0 0"/></clipPath><clipPath id="prefix__ay"><path d="M82.723 194.434l20.101 42.761-12.219 5.743-20.097-42.762zm0 0"/></clipPath><clipPath id="prefix__az"><path d="M278 297.129h17v21h-17zm0 0"/></clipPath><clipPath id="prefix__aA"><path d="M266.625 297.129H283v21h-16.375zm0 0"/></clipPath><clipPath id="prefix__aB"><path d="M241 297.129h17v21h-17zm0 0"/></clipPath><clipPath id="prefix__aC"><path d="M229.5 297.129H246v21h-16.5zm0 0"/></clipPath><clipPath id="prefix__aD"><path d="M204 297.129h16.875v21H204zm0 0"/></clipPath><clipPath id="prefix__aE"><path d="M192.375 297.129H209v21h-16.625zm0 0"/></clipPath><clipPath id="prefix__aF"><path d="M167 297.129h16.75v21H167zm0 0"/></clipPath><clipPath id="prefix__aG"><path d="M155.25 297.129H172v21h-16.75zm0 0"/></clipPath><clipPath id="prefix__aH"><path d="M130 297h17v22h-17zm0 0"/></clipPath><clipPath id="prefix__aI"><path d="M117.945 297.379l28.496-.504.371 20.996-28.496.504zm0 0"/></clipPath><clipPath id="prefix__aJ"><path d="M117.945 297.379l28.496-.504.371 20.996-28.496.504zm0 0"/></clipPath><clipPath id="prefix__aK"><path d="M117 297h18v22h-18zm0 0"/></clipPath><clipPath id="prefix__aL"><path d="M117.945 297.379l28.496-.504.371 20.996-28.496.504zm0 0"/></clipPath><clipPath id="prefix__aM"><path d="M117.945 297.379l28.496-.504.371 20.996-28.496.504zm0 0"/></clipPath><clipPath id="prefix__aN"><path d="M80 284h20v22H80zm0 0"/></clipPath><clipPath id="prefix__aO"><path d="M81.105 277.734l23.989 15.387-11.336 17.676-23.992-15.387zm0 0"/></clipPath><clipPath id="prefix__aP"><path d="M81.105 277.734l23.989 15.387-11.336 17.676-23.992-15.387zm0 0"/></clipPath><clipPath id="prefix__aQ"><path d="M70 278h20v22H70zm0 0"/></clipPath><clipPath id="prefix__aR"><path d="M81.105 277.734l23.989 15.387-11.336 17.676-23.992-15.387zm0 0"/></clipPath><clipPath id="prefix__aS"><path d="M81.105 277.734l23.989 15.387-11.336 17.676-23.992-15.387zm0 0"/></clipPath><clipPath id="prefix__aT"><path d="M42 264h20v21H42zm0 0"/></clipPath><clipPath id="prefix__aU"><path d="M48.059 255.742l20.527 19.77-14.566 15.125-20.528-19.77zm0 0"/></clipPath><clipPath id="prefix__aV"><path d="M48.059 255.742l20.527 19.77-14.566 15.125-20.528-19.77zm0 0"/></clipPath><clipPath id="prefix__aW"><path d="M33 256h21v20H33zm0 0"/></clipPath><clipPath id="prefix__aX"><path d="M48.059 255.742l20.527 19.77-14.566 15.125-20.528-19.77zm0 0"/></clipPath><clipPath id="prefix__aY"><path d="M48.059 255.742l20.527 19.77-14.566 15.125-20.528-19.77zm0 0"/></clipPath><clipPath id="prefix__aZ"><path d="M19 232h22v19H19zm0 0"/></clipPath><clipPath id="prefix__ba"><path d="M31.219 221.023l14.32 24.641-18.152 10.555-14.325-24.64zm0 0"/></clipPath><clipPath id="prefix__bb"><path d="M31.219 221.023l14.32 24.641-18.152 10.555-14.325-24.64zm0 0"/></clipPath><clipPath id="prefix__bc"><path d="M13 221h22v20H13zm0 0"/></clipPath><clipPath id="prefix__bd"><path d="M31.219 221.023l14.32 24.641-18.152 10.555-14.325-24.64zm0 0"/></clipPath><clipPath id="prefix__be"><path d="M31.219 221.023l14.32 24.641-18.152 10.555-14.325-24.64zm0 0"/></clipPath><clipPath id="prefix__bf"><path d="M8.879 184h21v16.438h-21zm0 0"/></clipPath><clipPath id="prefix__bg"><path d="M8.879 171.938h21V188h-21zm0 0"/></clipPath><clipPath id="prefix__bh"><path d="M18 126h21v20H18zm0 0"/></clipPath><clipPath id="prefix__bi"><path d="M46.379 127.648l-16.234 23.426-17.262-11.965 16.234-23.422zm0 0"/></clipPath><clipPath id="prefix__bj"><path d="M46.379 127.648l-16.234 23.426-17.262-11.965 16.234-23.422zm0 0"/></clipPath><clipPath id="prefix__bk"><path d="M25 116h21v20H25zm0 0"/></clipPath><clipPath id="prefix__bl"><path d="M46.379 127.648l-16.234 23.426-17.262-11.965 16.234-23.422zm0 0"/></clipPath><clipPath id="prefix__bm"><path d="M46.379 127.648l-16.234 23.426-17.262-11.965 16.234-23.422zm0 0"/></clipPath><clipPath id="prefix__bn"><path d="M44 90h20v21H44zm0 0"/></clipPath><clipPath id="prefix__bo"><path d="M72.52 97.336L51.426 116.5l-14.121-15.543 21.093-19.164zm0 0"/></clipPath><clipPath id="prefix__bp"><path d="M72.52 97.336L51.426 116.5l-14.121-15.543 21.093-19.164zm0 0"/></clipPath><clipPath id="prefix__bq"><path d="M53 82h20v20H53zm0 0"/></clipPath><clipPath id="prefix__br"><path d="M72.52 97.336L51.426 116.5l-14.121-15.543 21.093-19.164zm0 0"/></clipPath><clipPath id="prefix__bs"><path d="M72.52 97.336L51.426 116.5l-14.121-15.543 21.093-19.164zm0 0"/></clipPath><clipPath id="prefix__bt"><path d="M74 67h20v23H74zm0 0"/></clipPath><clipPath id="prefix__bu"><path d="M104.922 81.059L79.344 93.633l-9.266-18.848 25.578-12.57zm0 0"/></clipPath><clipPath id="prefix__bv"><path d="M104.922 81.059L79.344 93.633l-9.266-18.848 25.578-12.57zm0 0"/></clipPath><clipPath id="prefix__bw"><path d="M85 62h20v23H85zm0 0"/></clipPath><clipPath id="prefix__bx"><path d="M104.922 81.059L79.344 93.633l-9.266-18.848 25.578-12.57zm0 0"/></clipPath><clipPath id="prefix__by"><path d="M104.922 81.059L79.344 93.633l-9.266-18.848 25.578-12.57zm0 0"/></clipPath><clipPath id="prefix__bz"><path d="M117.785 57.016H135V78h-17.215zm0 0"/></clipPath><clipPath id="prefix__bA"><path d="M130 57.016h16.285V78H130zm0 0"/></clipPath><clipPath id="prefix__bB"><path d="M154 56h17v22h-17zm0 0"/></clipPath><clipPath id="prefix__bC"><path d="M182.512 78.016l-28.489-.86.633-20.992 28.489.86zm0 0"/></clipPath><clipPath id="prefix__bD"><path d="M182.512 78.016l-28.489-.86.633-20.992 28.489.86zm0 0"/></clipPath><clipPath id="prefix__bE"><path d="M166 56h18v22h-18zm0 0"/></clipPath><clipPath id="prefix__bF"><path d="M182.512 78.016l-28.489-.86.633-20.992 28.489.86zm0 0"/></clipPath><clipPath id="prefix__bG"><path d="M182.512 78.016l-28.489-.86.633-20.992 28.489.86zm0 0"/></clipPath><clipPath id="prefix__bH"><path d="M266 56h17v22h-17zm0 0"/></clipPath><clipPath id="prefix__bI"><path d="M294.164 78.016l-28.488-.86.633-20.992 28.488.86zm0 0"/></clipPath><clipPath id="prefix__bJ"><path d="M294.164 78.016l-28.488-.86.633-20.992 28.488.86zm0 0"/></clipPath><clipPath id="prefix__bK"><path d="M278 56h17v22h-17zm0 0"/></clipPath><clipPath id="prefix__bL"><path d="M294.164 78.016l-28.488-.86.633-20.992 28.488.86zm0 0"/></clipPath><clipPath id="prefix__bM"><path d="M294.164 78.016l-28.488-.86.633-20.992 28.488.86zm0 0"/></clipPath><clipPath id="prefix__bN"><path d="M229 56h17v22h-17zm0 0"/></clipPath><clipPath id="prefix__bO"><path d="M257.04 78.016l-28.49-.86.634-20.992 28.488.86zm0 0"/></clipPath><clipPath id="prefix__bP"><path d="M257.04 78.016l-28.49-.86.634-20.992 28.488.86zm0 0"/></clipPath><clipPath id="prefix__bQ"><path d="M241 56h17v22h-17zm0 0"/></clipPath><clipPath id="prefix__bR"><path d="M257.04 78.016l-28.49-.86.634-20.992 28.488.86zm0 0"/></clipPath><clipPath id="prefix__bS"><path d="M257.04 78.016l-28.49-.86.634-20.992 28.488.86zm0 0"/></clipPath><clipPath id="prefix__bT"><path d="M192 56h17v22h-17zm0 0"/></clipPath><clipPath id="prefix__bU"><path d="M220.523 78.016l-28.488-.86.633-20.992 28.488.86zm0 0"/></clipPath><clipPath id="prefix__bV"><path d="M220.523 78.016l-28.488-.86.633-20.992 28.488.86zm0 0"/></clipPath><clipPath id="prefix__bW"><path d="M204 56h18v22h-18zm0 0"/></clipPath><clipPath id="prefix__bX"><path d="M220.523 78.016l-28.488-.86.633-20.992 28.488.86zm0 0"/></clipPath><clipPath id="prefix__bY"><path d="M220.523 78.016l-28.488-.86.633-20.992 28.488.86zm0 0"/></clipPath></defs><g clip-path="url(#prefix__a)"><g clip-path="url(#prefix__b)"><path fill="#737373" d="M303.75 52.777V323.04H-.133V52.777zm0 0"/></g></g><g clip-path="url(#prefix__c)"><g clip-path="url(#prefix__d)"><path fill="none" d="M7.918 142.824C3.137 156.668 0 172.406 0 187.852c0 15.445 2.687 30.304 7.469 44.003.152.29.152.583.3.875 19.122 51.434 69.622 89.32 127.887 90.047H303.75v-270H135.781c-58.687.73-109.187 38.032-127.863 90.047" stroke="#000" stroke-width="3"/></g></g><g clip-path="url(#prefix__e)"><g clip-path="url(#prefix__f)"><g clip-path="url(#prefix__g)"><path fill="#a6a6a6" d="M185.395 39.031l104.023 189-189.004 104.024-104.02-189zm0 0"/></g></g></g><g clip-path="url(#prefix__h)"><g clip-path="url(#prefix__i)"><g clip-path="url(#prefix__j)"><g clip-path="url(#prefix__k)"><path fill="none" d="M237.469 133.645C208.707 81.39 143.03 62.344 90.777 91.105c-52.254 28.762-71.3 94.438-42.539 146.692 28.758 52.254 94.434 71.3 146.688 42.539 52.258-28.758 71.305-94.434 42.543-146.691" stroke="#000" stroke-width="6"/></g></g></g></g><g clip-path="url(#prefix__l)"><g clip-path="url(#prefix__m)"><g clip-path="url(#prefix__n)"><path fill="#ffde59" d="M195.48 143l8.875 15.21-27.57 16.095-8.879-15.215zm0 0"/></g></g></g><g clip-path="url(#prefix__o)"><g clip-path="url(#prefix__p)"><g clip-path="url(#prefix__q)"><path fill="#ffde59" d="M135.2 215.957l17.613.113-.2 31.922-17.613-.11zm0 0"/></g></g></g><g clip-path="url(#prefix__r)"><g clip-path="url(#prefix__s)"><g clip-path="url(#prefix__t)"><path fill="#ffde59" d="M80.527 195.242l42.22-73.14 63.429 36.613-42.215 73.14zm0 0"/></g></g></g><g clip-path="url(#prefix__u)"><g clip-path="url(#prefix__v)"><g clip-path="url(#prefix__w)"><path fill="#ffde59" d="M90.379 162.383l8.805-15.254 27.648 15.957-8.805 15.254zm0 0"/></g></g></g><g clip-path="url(#prefix__x)"><g clip-path="url(#prefix__y)"><g clip-path="url(#prefix__z)"><path fill="#ffde59" d="M86.324 182.625l-47.52-28.91 28.907-47.52 47.52 28.907zm0 0"/></g></g></g><g clip-path="url(#prefix__A)"><g clip-path="url(#prefix__B)"><g clip-path="url(#prefix__C)"><g clip-path="url(#prefix__D)"><path d="M64.172 165.645c4.746 2.886 9.871 4.046 15.379 3.48l.613 5.953c-6.844.707-13.21-.734-19.105-4.32zm18.023 3.062c5.434-1.156 9.953-3.828 13.563-8.008l4.535 3.914c-4.488 5.196-10.106 8.512-16.852 9.95zm15.196-10.117c.277-.403.543-.813.796-1.23 2.614-4.294 3.81-8.942 3.586-13.938l5.98-.27c.278 6.215-1.206 11.989-4.448 17.32a32.631 32.631 0 01-.989 1.52zm4.12-17.832c-.843-5.496-3.245-10.168-7.21-14.016l4.172-4.297c4.925 4.782 7.91 10.582 8.957 17.403zm-9.21-15.762a26.036 26.036 0 00-2.395-1.652c-3.855-2.344-8.023-3.547-12.504-3.61l.082-5.984c5.57.074 10.746 1.566 15.532 4.477a31.792 31.792 0 012.968 2.05zm-17.567-5.152c-5.53.52-10.336 2.648-14.41 6.375l-4.043-4.414c5.063-4.633 11.024-7.274 17.89-7.922zm-16.28 8.289a24.68 24.68 0 00-2.567 3.496c-2.078 3.414-3.258 7.101-3.543 11.062l-5.973-.43c.356-4.921 1.82-9.503 4.402-13.745.938-1.543 2-2.989 3.18-4.336zm-6.161 17.226c.2 5.551 2.043 10.47 5.531 14.758l-4.644 3.778c-4.332-5.325-6.621-11.434-6.867-18.32zm7.332 16.739a24.818 24.818 0 004.547 3.547l-3.113 5.113a30.736 30.736 0 01-5.641-4.399zm0 0"/></g></g></g></g><g clip-path="url(#prefix__E)"><g clip-path="url(#prefix__F)"><g clip-path="url(#prefix__G)"><path fill="#ffde59" d="M116.156 289.66l.016-55.62 55.621.01-.016 55.626zm0 0"/></g></g></g><g clip-path="url(#prefix__H)"><g clip-path="url(#prefix__I)"><g clip-path="url(#prefix__J)"><g clip-path="url(#prefix__K)"><path d="M119.16 261.91c-.004 5.555 1.668 10.54 5.016 14.95l-4.774 3.617c-4.156-5.48-6.234-11.672-6.23-18.567zm6.742 16.988c3.813 4.043 8.442 6.52 13.891 7.434l-.988 5.906c-6.774-1.136-12.524-4.21-17.258-9.23zm16.54 7.73c.488.032.976.044 1.464.044 5.028.004 9.621-1.39 13.774-4.176l3.336 4.973c-5.164 3.465-10.868 5.195-17.11 5.191-.605 0-1.21-.015-1.812-.05zm17.378-5.741c4.262-3.575 7.004-8.055 8.23-13.442l5.84 1.332c-1.527 6.692-4.933 12.258-10.218 16.696zm8.68-16.059c.113-.96.172-1.93.172-2.906 0-4.508-1.137-8.695-3.414-12.555l5.16-3.043c2.828 4.801 4.242 10 4.242 15.602a31.534 31.534 0 01-.21 3.597zm-4.719-17.687c-3.32-4.453-7.633-7.453-12.933-8.996l1.672-5.75c6.59 1.917 11.94 5.64 16.062 11.171zm-15.539-9.606a24.912 24.912 0 00-4.32-.375c-4 0-7.766.906-11.297 2.719l-2.734-5.328c4.39-2.254 9.066-3.38 14.03-3.38 1.81 0 3.595.157 5.36.47zm-17.922 3.688c-4.636 3.054-7.882 7.187-9.738 12.394l-5.64-2.008c2.3-6.468 6.331-11.597 12.085-15.386zm-10.496 14.96a24.866 24.866 0 00-.664 5.727h-5.988c0-2.414.277-4.781.828-7.11zm0 0"/></g></g></g></g><g clip-path="url(#prefix__L)"><g clip-path="url(#prefix__M)"><g clip-path="url(#prefix__N)"><path fill="#ffde59" d="M218.02 184.098L170.5 155.19l28.906-47.52 47.52 28.907zm0 0"/></g></g></g><g clip-path="url(#prefix__O)"><g clip-path="url(#prefix__P)"><g clip-path="url(#prefix__Q)"><g clip-path="url(#prefix__R)"><path d="M195.867 167.117c4.746 2.887 9.871 4.047 15.38 3.48l.612 5.958c-6.843.703-13.21-.735-19.105-4.32zm18.02 3.067c5.437-1.16 9.957-3.829 13.566-8.008l4.531 3.91c-4.484 5.2-10.101 8.516-16.847 9.953zm15.199-10.121c.277-.399.543-.81.797-1.227 2.613-4.297 3.808-8.941 3.586-13.941l5.98-.266c.278 6.21-1.207 11.984-4.449 17.316a30.8 30.8 0 01-.988 1.524zm4.121-17.833c-.844-5.496-3.246-10.167-7.21-14.015l4.171-4.297c4.926 4.781 7.91 10.586 8.957 17.406zm-9.215-15.757a24.358 24.358 0 00-2.394-1.657c-3.852-2.343-8.02-3.543-12.5-3.605l.082-5.988c5.57.078 10.746 1.57 15.53 4.48a31.062 31.062 0 012.97 2.05zm-17.562-5.157c-5.535.524-10.336 2.649-14.41 6.38l-4.043-4.415c5.062-4.636 11.023-7.277 17.89-7.926zm-16.282 8.29a24.905 24.905 0 00-2.566 3.496c-2.078 3.418-3.262 7.105-3.547 11.062l-5.969-.43c.352-4.922 1.82-9.5 4.403-13.742a30.754 30.754 0 013.18-4.336zm-6.16 17.226c.2 5.55 2.043 10.473 5.532 14.762l-4.645 3.777c-4.332-5.328-6.621-11.434-6.871-18.32zm7.332 16.742a24.5 24.5 0 004.547 3.543l-3.113 5.117a30.588 30.588 0 01-5.64-4.402zm0 0"/></g></g></g></g><g clip-path="url(#prefix__S)"><g clip-path="url(#prefix__T)"><g clip-path="url(#prefix__U)"><path fill="#707070" d="M67.484 146.969l6.98-12.09 12.09 6.98-6.98 12.09zm0 0"/></g></g></g><g clip-path="url(#prefix__V)"><g clip-path="url(#prefix__W)"><g clip-path="url(#prefix__X)"><path fill="#707070" d="M136.996 254.879l13.957.004-.004 13.96-13.957-.003zm0 0"/></g></g></g><g clip-path="url(#prefix__Y)"><g clip-path="url(#prefix__Z)"><g clip-path="url(#prefix__aa)"><path fill="#707070" d="M198.64 147.555l6.981-12.09 12.09 6.98-6.98 12.09zm0 0"/></g></g></g><g clip-path="url(#prefix__ab)"><g clip-path="url(#prefix__ac)"><g clip-path="url(#prefix__ad)"><g clip-path="url(#prefix__ae)"><path fill="#fff" d="M167.89 123.238a.12.12 0 00.005-.11c.082-.12.304-.054.324-.257.289-.348.14-.664-.078-.969-.61-.855-1.344-1.593-2.121-2.285-2.793-2.48-5.97-4.254-9.485-5.48-6.14-2.14-12.27-1.969-18.402-.114-2.844.86-5.485 2.207-8.063 3.676-1.515.864-2.972 1.817-4.453 2.739l-.117.167c-.074.012-.16.043-.223.024l-.004-.004c-.05-.02-.023-.09.032-.125.246-.645.617-1.21 1.02-1.762.277-.375.515-.761.636-1.215.602-.804.55-1.605-.102-2.246-1.785.883-2.78 2.465-3.664 4.157-.328.632-.695 1.234-1.054 1.847-.868 1.461-.66 1.297 0 2.52.144.27.351.504.582.715.082.078.168.14.289.132.183.301.476.278.761.243.848-.106 1.688-.223 2.536-.34.183.086.367.039.546-.016.184.09.368.04.551-.004.121.086.254.04.383.047 1.746.09 3.453.379 5.11.965.124.043.253.074.378.113.153.047.32.102.426-.047.074-.109.035-.296-.05-.375-.372-.355-.47-.882-.798-1.254-.148-.168-.347-.261-.554-.351-1.59-.703-3.254-1.102-4.965-1.328-.152-.024-.313-.02-.457-.07-.164-.06-.133-.2-.063-.329.176.004.293-.078.36-.238.16-.027.316-.062.383-.242.043.016.066 0 .074-.043.156-.02.297-.067.363-.227.106-.035.211-.058.305-.113 1.027-.594 2.047-1.203 3.078-1.781.937-.528 1.89-1.024 2.84-1.531.265-.106.535-.2.793-.313 2.543-1.09 5.172-1.855 7.914-2.219.976-.129 1.957-.226 2.937-.34.196.09.387.032.575-.027.187.09.367.04.546-.012.172.098.34.036.512 0 .106.079.215.063.324.012.043.024.082.024.118-.008.12.082.253.04.382.047.63.055 1.266-.008 1.887.125.05-.058.227-.097 0-.172-.152-.05-.164-.093-.129-.136.035-.036.102-.067.152-.098 1.985.23 3.915.695 5.82 1.293.169.074.345.144.516.215l3.075 1.289c.023.039.054.066.09.078.023.008.05.012.082.008.035.066.093.094.167.086.036.066.09.093.165.086.035.07.093.093.167.086.036.07.09.101.168.085.032.075.086.102.165.09v.004c.03.067.085.098.16.086l.004.004c.05.031.105.063.16.09l.004.004c.03.07.082.097.16.09l.004.004c.031.07.086.101.16.09l.008.003c.027.07.082.102.156.09l.004.004c.031.07.082.102.16.09v.004c.031.07.086.101.164.094.477.328.953.652 1.434.976.3.09.52.313.761.496a.182.182 0 01-.035.09.228.228 0 01-.113.094c.172.156.328.328.555.398.074.012.14.04.195.09a2.975 2.975 0 00-.195-.09c.047.059.093.114.175.094.032.113.11.176.215.207.02.074.063.117.14.113.04.067.087.118.169.121a.109.109 0 00.074.075c.137.183.305.328.508.433.105.121.203.25.363.309.035.105.125.152.211.207.41.488.902.902 1.234 1.496.137-.2.395-.188.41-.43zm-40.292-1.988h.004c0 .004 0 .004.003.004-.003 0-.003 0-.007-.004zm34.015-3.219c-.011-.008-.02-.02-.031-.027.004 0 .008 0 .008.004a.158.158 0 01.035.02s-.004.003-.012.003zm-1.96-.648v-.004c.003-.004.003-.012.007-.016l.012-.011-.02.027c0 .004.004.004.004.004h-.004zm2.023.617a.132.132 0 01-.047.023c-.012-.003-.024-.011-.035-.015a.101.101 0 00.082-.008zm-.153-.04c-.015-.007-.027-.015-.039-.022v-.004a.14.14 0 00.04.027zm5.93 4.15h.008v.003l.004.004c-.004 0-.008-.004-.012-.008zm-.18-.215c0-.004 0-.008-.003-.012l.003.012zm-2.574-1.192a.092.092 0 00.035-.023c.004.007.008.015.008.023-.012 0-.027.004-.043 0zm.348.363a.12.12 0 01.047.059c-.016-.023-.028-.043-.047-.059zm0 0"/></g></g></g></g><g clip-path="url(#prefix__af)"><g clip-path="url(#prefix__ag)"><g clip-path="url(#prefix__ah)"><g clip-path="url(#prefix__ai)"><path fill="#fff" d="M160.98 118.09a5.817 5.817 0 01-.16-.094c.032.074.086.102.16.094zm0 0"/></g></g></g></g><g clip-path="url(#prefix__aj)"><g clip-path="url(#prefix__ak)"><g clip-path="url(#prefix__al)"><g clip-path="url(#prefix__am)"><path fill="#fff" d="M185.387 233.09c.02.039.047.062.09.066.046.137-.133.281.023.414.117.438.46.496.836.496 1.047-.007 2.074-.183 3.09-.421 3.637-.856 6.914-2.43 9.941-4.602 5.285-3.79 8.668-8.898 10.684-14.98.933-2.82 1.351-5.754 1.633-8.708.168-1.738.226-3.48.328-5.218l-.07-.196c.035-.066.054-.152.109-.195h.004c.043-.031.09.035.086.098.382.57.632 1.203.851 1.847.149.442.324.86.63 1.223.312.953.991 1.375 1.894 1.207.304-1.969-.418-3.691-1.293-5.387-.325-.632-.606-1.28-.899-1.93-.699-1.546-.687-1.284-2.062-1.449a2.83 2.83 0 00-.922.067c-.11.023-.211.055-.274.16-.351-.023-.504.23-.636.484-.399.75-.79 1.508-1.18 2.266-.176.102-.242.277-.305.457-.175.102-.242.277-.312.453-.14.047-.18.188-.258.29-1.082 1.37-2.3 2.6-3.73 3.62-.11.078-.208.164-.313.243-.125.097-.266.203-.207.375.047.125.223.199.336.175.504-.097.992.125 1.488.07.219-.023.41-.136.602-.253 1.492-.895 2.777-2.024 3.949-3.293.102-.114.191-.246.316-.332.145-.102.243.004.305.136-.105.141-.105.286-.012.43-.07.149-.129.297-.02.453-.038.024-.042.055-.01.086-.071.137-.114.278-.024.43-.028.101-.07.207-.082.312-.106 1.18-.196 2.364-.313 3.543-.11 1.07-.254 2.137-.383 3.203-.066.278-.148.551-.203.829-.57 2.703-1.46 5.296-2.742 7.746-.457.875-.937 1.734-1.41 2.601-.188.11-.246.297-.313.485-.18.097-.238.277-.3.453-.18.082-.227.258-.297.418-.121.043-.172.14-.196.258-.043.02-.066.054-.062.101-.137.05-.176.188-.258.285-.406.485-.723 1.04-1.187 1.473.015.074-.051.242.14.098.13-.094.172-.079.184-.028.012.047-.004.125-.004.184-1.332 1.488-2.824 2.797-4.41 4.012-.156.097-.313.199-.473.296-.941.59-1.883 1.184-2.82 1.774a.187.187 0 00-.117.027.171.171 0 00-.055.063c-.074-.008-.129.023-.164.09-.078-.012-.133.02-.168.085-.074-.011-.129.02-.164.086-.078-.011-.137.016-.168.086-.078-.015-.133.016-.168.082l-.004.004c-.074-.015-.129.012-.164.078l-.004.004c-.055.02-.11.047-.164.078h-.008c-.074-.015-.129.012-.164.079l-.008.003c-.074-.015-.129.008-.164.079l-.004.004h-.004.004c-.078-.02-.133.007-.168.074l-.004.004c-.074-.02-.132.007-.168.078-.078-.016-.136.008-.171.074l-1.625.61c-.247.195-.555.25-.844.343a.25.25 0 01-.055-.082.204.204 0 01-.008-.144c-.226.046-.457.078-.648.222-.05.051-.11.09-.184.106.059-.036.125-.067.184-.106-.074 0-.145.012-.176.09-.11-.043-.207-.016-.293.055-.074-.028-.133-.016-.176.05-.074-.007-.144 0-.191.067-.04-.008-.074-.008-.106.02a1.46 1.46 0 00-.644.163c-.164.016-.324.024-.465.118-.105-.028-.2.02-.289.054-.637.055-1.258.223-1.934.149.082.226-.074.43.114.582zm24.816-31.8c0 .003 0 0 0 0v-.001h-.008.008zm-16.945 29.667l.043-.012c-.004.004-.008.004-.012.008-.012.004-.02.008-.035.016 0-.004 0-.008.004-.012zm1.66-1.23h.004c0 .007.004.011.004.015l.008.016-.016-.031h-.004.004zm-1.672 1.296c.004-.015.004-.035.008-.05l.035-.02a.096.096 0 00-.043.07zm.121-.101c.016-.008.028-.012.04-.016.003 0 .003-.004.003 0a.19.19 0 00-.043.016zm-6.804 2.465c-.004 0-.004 0-.004.004h-.004c0-.004-.004 0-.004-.004h.012zm.28-.028c.005.004.005.004.009.004-.004-.004-.008 0-.008-.004zm2.45-1.418c0 .012 0 .028.004.043-.008-.004-.02-.004-.027-.007l.023-.036zm-.492.075a.097.097 0 01-.074.004c.027.003.05.003.074-.004zm0 0"/></g></g></g></g><g clip-path="url(#prefix__an)"><g clip-path="url(#prefix__ao)"><g clip-path="url(#prefix__ap)"><g clip-path="url(#prefix__aq)"><path fill="#fff" d="M193.578 230.402c.055-.023.11-.05.164-.074-.078-.02-.129.008-.164.074zm0 0"/></g></g></g></g><g clip-path="url(#prefix__ar)"><g clip-path="url(#prefix__as)"><g clip-path="url(#prefix__at)"><g clip-path="url(#prefix__au)"><path fill="#fff" d="M82.691 195.29a.102.102 0 00-.101.034c-.14-.039-.156-.27-.356-.219-.425-.152-.668.098-.882.407-.594.867-1.036 1.808-1.418 2.781-1.368 3.473-1.942 7.066-1.883 10.789.101 6.504 2.37 12.195 6.219 17.316 1.785 2.375 3.957 4.391 6.226 6.309 1.332 1.125 2.727 2.168 4.102 3.242.066.02.132.035.199.051.035.066.094.133.098.203l-.004.004c0 .05-.079.05-.125.016-.692-.012-1.352-.164-2.008-.356-.445-.129-.89-.222-1.36-.18-.96-.285-1.699.036-2.074.872 1.442 1.37 3.27 1.761 5.164 2.007.703.09 1.399.23 2.098.36 1.668.308 1.445.168 2.363-.867a2.72 2.72 0 00.473-.793c.047-.106.074-.207.023-.317.22-.277.098-.547-.03-.8-.392-.758-.794-1.508-1.192-2.262.015-.203-.09-.36-.203-.512.02-.203-.09-.355-.192-.516.04-.14-.05-.254-.09-.375-.515-1.672-.832-3.375-.851-5.129-.004-.132-.016-.265-.024-.398-.008-.156-.011-.332-.187-.379-.133-.035-.293.067-.34.176-.203.469-.664.742-.902 1.18-.106.195-.121.418-.137.64-.113 1.735.086 3.434.457 5.121.035.149.094.297.094.45 0 .18-.145.195-.29.175-.054-.168-.171-.25-.343-.257-.082-.141-.172-.274-.36-.278 0-.043-.023-.062-.066-.055-.074-.136-.164-.253-.34-.265-.066-.082-.129-.176-.21-.242-.91-.762-1.833-1.508-2.731-2.282-.817-.699-1.613-1.421-2.414-2.136-.192-.215-.371-.434-.567-.64-1.894-2.013-3.52-4.22-4.8-6.669-.461-.871-.891-1.762-1.332-2.64.015-.215-.106-.372-.223-.532.023-.203-.09-.355-.2-.508.032-.195-.085-.332-.175-.48.035-.125-.016-.223-.102-.309.008-.047-.004-.082-.047-.109.036-.14-.05-.25-.085-.375-.168-.61-.442-1.184-.536-1.816-.07-.028-.168-.176-.16.062.004.16-.031.188-.082.164-.043-.016-.097-.07-.144-.105-.47-1.942-.692-3.918-.786-5.91l.024-.56.152-3.327a.165.165 0 00.043-.113.192.192 0 00-.02-.079c.051-.058.055-.12.024-.187.05-.055.055-.117.02-.188.054-.054.058-.117.023-.183.055-.059.063-.121.027-.188.055-.054.063-.117.028-.183v-.004c.054-.051.066-.113.027-.18v-.004c.016-.058.024-.12.031-.18v-.007c.055-.055.067-.114.032-.18v-.008c.054-.05.066-.113.03-.18v-.007h.001c.058-.051.07-.114.035-.18v-.004c.055-.05.066-.113.031-.18v-.004c.059-.054.07-.117.035-.183.141-.563.282-1.121.422-1.684-.015-.312.114-.597.203-.886.036-.008.067-.004.098 0 .047.011.09.035.125.078.09-.215.195-.422.184-.66a.37.37 0 01.02-.215c-.009.07-.016.144-.02.215.043-.063.074-.125.027-.196.098-.066.129-.16.121-.273.063-.043.09-.098.059-.172.05-.059.082-.121.054-.2a.111.111 0 00.047-.093c.125-.191.203-.398.23-.625.083-.14.169-.281.169-.45.082-.07.097-.171.12-.269.321-.55.536-1.156.977-1.672-.23-.058-.308-.304-.543-.238zm11.989 38.519v-.004h-.004v-.004l.004.004s0-.004.004-.004c0 .004-.004.004-.004.008zm-14.72-30.836c-.003.011-.007.027-.015.043v-.012c.004-.016.004-.027.008-.04l.008.009zm.067 2.066h-.019l-.016-.008.031.008c.004 0 0-.004.004-.004-.004 0 0 .004 0 .004zm-.117-2.113c.016.012.028.023.04.035 0 .012-.005.027-.005.039a.096.096 0 00-.035-.074zm.016.156a.14.14 0 01-.008.043s0 .004-.004.004a.104.104 0 00.012-.047zm1.855-6.996v-.004-.004c.004 0 .004-.004.004-.004 0 .004 0 .008-.004.012zm-.14.246s-.004.004-.004.008c.004-.004.004-.008.004-.008zm-.23 2.824a.057.057 0 00-.036-.023c.008-.008.016-.012.02-.016a.117.117 0 01.015.04zm.222-.449a.123.123 0 01.035-.066l.004.004c-.02.02-.035.039-.04.062zm0 0"/></g></g></g></g><g clip-path="url(#prefix__av)"><g clip-path="url(#prefix__aw)"><g clip-path="url(#prefix__ax)"><g clip-path="url(#prefix__ay)"><path fill="#fff" d="M80.234 203.55l-.03.18c.054-.054.066-.113.03-.18zm0 0"/></g></g></g></g><path transform="matrix(.74987 .00605 -.00605 .74998 136.49 77.868)" fill="none" d="M-.002 1.999L223.036 2" stroke="#000" stroke-width="4"/><path transform="matrix(.75062 -.00364 .00364 .75 135.126 291.168)" fill="none" d="M0 2l224.814.002" stroke="#000" stroke-width="4"/><g clip-path="url(#prefix__az)"><path fill="#38b6ff" d="M294.695 306.992l-8.492-9.492a.946.946 0 00-.703-.316h-5.664a.95.95 0 00-.863.562.956.956 0 00.164 1.02l7.922 8.863-7.922 8.855a.95.95 0 00.7 1.586h5.663c.266 0 .52-.117.703-.312l8.492-9.496c.32-.36.32-.91 0-1.27zm0 0"/></g><g clip-path="url(#prefix__aA)"><path fill="#38b6ff" d="M282.426 306.992l-8.492-9.492a.94.94 0 00-.704-.316h-5.66a.947.947 0 00-.703 1.582l7.926 8.863-7.926 8.855a.955.955 0 00-.16 1.024.94.94 0 00.863.562h5.66c.27 0 .52-.117.704-.312l8.492-9.496a.95.95 0 000-1.27zm0 0"/></g><g clip-path="url(#prefix__aB)"><path fill="#5ce1e6" d="M257.57 306.992l-8.492-9.492a.946.946 0 00-.703-.316h-5.664a.95.95 0 00-.863.562.962.962 0 00.16 1.02l7.926 8.863-7.926 8.855a.95.95 0 00.703 1.586h5.664c.266 0 .52-.117.703-.312l8.492-9.496c.32-.36.32-.91 0-1.27zm0 0"/></g><g clip-path="url(#prefix__aC)"><path fill="#5ce1e6" d="M245.3 306.992l-8.491-9.492a.94.94 0 00-.704-.316h-5.66a.947.947 0 00-.703 1.582l7.926 8.863-7.926 8.855a.955.955 0 00-.16 1.024.94.94 0 00.863.562h5.66c.27 0 .52-.117.704-.312l8.492-9.496a.95.95 0 000-1.27zm0 0"/></g><g clip-path="url(#prefix__aD)"><path fill="#38b6ff" d="M220.445 306.992l-8.492-9.492a.946.946 0 00-.703-.316h-5.664a.95.95 0 00-.863.562.956.956 0 00.164 1.02l7.922 8.863-7.922 8.855a.95.95 0 00.7 1.586h5.663c.266 0 .52-.117.703-.312l8.492-9.496c.32-.36.32-.91 0-1.27zm0 0"/></g><g clip-path="url(#prefix__aE)"><path fill="#38b6ff" d="M208.176 306.992l-8.492-9.492a.94.94 0 00-.704-.316h-5.66a.947.947 0 00-.703 1.582l7.926 8.863-7.926 8.855a.955.955 0 00-.16 1.024.94.94 0 00.863.562h5.66c.27 0 .52-.117.704-.312l8.492-9.496a.95.95 0 000-1.27zm0 0"/></g><g clip-path="url(#prefix__aF)"><path fill="#38b6ff" d="M183.32 306.992l-8.492-9.492a.946.946 0 00-.703-.316h-5.664a.95.95 0 00-.863.562.956.956 0 00.164 1.02l7.922 8.863-7.922 8.855a.95.95 0 00.7 1.586h5.663c.266 0 .52-.117.703-.312l8.492-9.496c.32-.36.32-.91 0-1.27zm0 0"/></g><g clip-path="url(#prefix__aG)"><path fill="#38b6ff" d="M171.05 306.992l-8.491-9.492a.94.94 0 00-.704-.316h-5.66a.947.947 0 00-.703 1.582l7.926 8.863-7.926 8.855a.955.955 0 00-.16 1.024.94.94 0 00.863.562h5.66c.27 0 .52-.117.704-.312l8.492-9.496a.95.95 0 000-1.27zm0 0"/></g><g clip-path="url(#prefix__aH)"><g clip-path="url(#prefix__aI)"><g clip-path="url(#prefix__aJ)"><path fill="#38b6ff" d="M146.184 306.746l-8.66-9.344a.948.948 0 00-.708-.3l-5.66.097a.947.947 0 00-.851.578.956.956 0 00.175 1.02l8.083 8.719-7.77 8.996a.952.952 0 00.73 1.574l5.665-.102a.96.96 0 00.695-.324l8.324-9.644a.954.954 0 00-.023-1.27zm0 0"/></g></g></g><g clip-path="url(#prefix__aK)"><g clip-path="url(#prefix__aL)"><g clip-path="url(#prefix__aM)"><path fill="#38b6ff" d="M133.918 306.96l-8.66-9.339a.937.937 0 00-.707-.305l-5.66.102a.95.95 0 00-.856.578.95.95 0 00.18 1.016l8.082 8.718-7.77 8.997a.959.959 0 00-.14 1.027c.16.34.5.555.87.547l5.665-.098a.964.964 0 00.695-.328l8.324-9.64a.96.96 0 00-.023-1.274zm0 0"/></g></g></g><g clip-path="url(#prefix__aN)"><g clip-path="url(#prefix__aO)"><g clip-path="url(#prefix__aP)"><path fill="#5ce1e6" d="M99.406 301.191l-2.023-12.574a.945.945 0 00-.422-.644l-4.766-3.059a.947.947 0 00-1.445.953l1.887 11.738-11.453 3.176a.951.951 0 00-.266 1.715l4.766 3.059c.226.144.5.183.761.113l12.274-3.406a.954.954 0 00.687-1.07zm0 0"/></g></g></g><g clip-path="url(#prefix__aQ)"><g clip-path="url(#prefix__aR)"><g clip-path="url(#prefix__aS)"><path fill="#5ce1e6" d="M89.078 294.57l-2.023-12.578a.94.94 0 00-.422-.644l-4.766-3.055a.942.942 0 00-1.027.004.966.966 0 00-.418.95l1.887 11.733-11.454 3.18a.954.954 0 00-.687.774.945.945 0 00.422.937l4.77 3.059c.222.144.5.183.757.117l12.278-3.406a.957.957 0 00.683-1.07zm0 0"/></g></g></g><g clip-path="url(#prefix__aT)"><g clip-path="url(#prefix__aU)"><g clip-path="url(#prefix__aV)"><path fill="#38b6ff" d="M61.434 282.32l.468-12.73a.94.94 0 00-.289-.715l-4.078-3.93a.945.945 0 00-1.012-.191.955.955 0 00-.593.848l-.438 11.878-11.851.883a.942.942 0 00-.825.625.94.94 0 00.23 1.004l4.079 3.926a.951.951 0 00.723.262l12.703-.946a.957.957 0 00.883-.914zm0 0"/></g></g></g><g clip-path="url(#prefix__aW)"><g clip-path="url(#prefix__aX)"><g clip-path="url(#prefix__aY)"><path fill="#38b6ff" d="M52.598 273.809l.468-12.73a.96.96 0 00-.289-.716l-4.078-3.925a.948.948 0 00-1.605.652l-.438 11.879-11.851.883a.948.948 0 00-.825.625.94.94 0 00.23 1.003l4.08 3.93a.96.96 0 00.722.262l12.703-.95a.954.954 0 00.883-.913zm0 0"/></g></g></g><g clip-path="url(#prefix__aZ)"><g clip-path="url(#prefix__ba)"><g clip-path="url(#prefix__bb)"><path fill="#38b6ff" d="M36.793 250.25l3.941-12.113a.938.938 0 00-.082-.766l-2.843-4.894a.95.95 0 00-1.723.187L32.41 243.97l-11.64-2.399a.947.947 0 00-.965.375.944.944 0 00-.055 1.028l2.848 4.894c.132.235.359.395.62.45l12.477 2.574a.95.95 0 001.098-.641zm0 0"/></g></g></g><g clip-path="url(#prefix__bc)"><g clip-path="url(#prefix__bd)"><g clip-path="url(#prefix__be)"><path fill="#38b6ff" d="M30.629 239.645l3.941-12.114a.938.938 0 00-.082-.765l-2.843-4.895a.946.946 0 00-.922-.465.954.954 0 00-.801.653l-3.676 11.304-11.644-2.402a.958.958 0 00-.961.375.943.943 0 00-.055 1.031l2.844 4.895c.136.23.363.39.625.449l12.476 2.57a.952.952 0 001.098-.636zm0 0"/></g></g></g><g clip-path="url(#prefix__bf)"><path fill="#38b6ff" d="M20.016 200.004l9.492-8.492a.934.934 0 00.316-.703v-5.66a.945.945 0 00-.562-.864.946.946 0 00-1.02.16l-8.863 7.926-8.856-7.926a.955.955 0 00-1.023-.16.945.945 0 00-.563.863v5.66c0 .27.114.524.313.704l9.496 8.492a.95.95 0 001.27 0zm0 0"/></g><g clip-path="url(#prefix__bg)"><path fill="#38b6ff" d="M20.016 187.738l9.492-8.496a.932.932 0 00.316-.699v-5.664a.95.95 0 00-.562-.863.961.961 0 00-1.02.16l-8.863 7.926-8.856-7.926a.95.95 0 00-1.586.703v5.664c0 .266.114.52.313.7l9.496 8.495c.36.32.91.32 1.27 0zm0 0"/></g><g clip-path="url(#prefix__bh)"><g clip-path="url(#prefix__bi)"><g clip-path="url(#prefix__bj)"><path fill="#5ce1e6" d="M22.281 145.098l12.64-1.57a.951.951 0 00.661-.4l3.227-4.651a.95.95 0 00-.903-1.48L26.11 138.46l-2.765-11.559a.952.952 0 00-1.703-.324l-3.227 4.652a.948.948 0 00-.14.758l2.964 12.387a.949.949 0 001.043.723zm0 0"/></g></g></g><g clip-path="url(#prefix__bk)"><g clip-path="url(#prefix__bl)"><g clip-path="url(#prefix__bm)"><path fill="#5ce1e6" d="M29.27 135.016l12.64-1.575a.933.933 0 00.66-.394l3.223-4.656a.935.935 0 00.031-1.028.953.953 0 00-.93-.449l-11.796 1.465-2.766-11.559a.963.963 0 00-.75-.715.941.941 0 00-.953.387l-3.227 4.656a.936.936 0 00-.14.754l2.965 12.391a.95.95 0 001.043.723zm0 0"/></g></g></g><g clip-path="url(#prefix__bn)"><g clip-path="url(#prefix__bo)"><g clip-path="url(#prefix__bp)"><path fill="#38b6ff" d="M45.11 108.906l12.671 1.317a.941.941 0 00.73-.239l4.192-3.808a.948.948 0 00.258-.996.954.954 0 00-.805-.649l-11.824-1.226-.09-11.887a.948.948 0 00-1.586-.7l-4.191 3.805a.97.97 0 00-.309.707l.098 12.739c.004.484.375.89.855.937zm0 0"/></g></g></g><g clip-path="url(#prefix__bq)"><g clip-path="url(#prefix__br)"><g clip-path="url(#prefix__bs)"><path fill="#38b6ff" d="M54.188 100.656l12.671 1.317a.936.936 0 00.73-.239l4.192-3.808a.942.942 0 00.262-.996.958.958 0 00-.805-.649l-11.824-1.226-.09-11.887a.954.954 0 00-.57-.863.94.94 0 00-1.016.164l-4.191 3.804a.955.955 0 00-.309.707l.098 12.739c.004.484.375.89.852.937zm0 0"/></g></g></g><g clip-path="url(#prefix__bt)"><g clip-path="url(#prefix__bu)"><g clip-path="url(#prefix__bv)"><path fill="#38b6ff" d="M75.379 84.59l11.808 4.773c.254.098.532.09.77-.027l5.082-2.5a.95.95 0 00.527-.883.958.958 0 00-.597-.848l-11.02-4.453 3.203-11.445a.946.946 0 00-.304-.988.943.943 0 00-1.024-.125l-5.082 2.496a.974.974 0 00-.492.59l-3.434 12.27a.957.957 0 00.563 1.14zm0 0"/></g></g></g><g clip-path="url(#prefix__bw)"><g clip-path="url(#prefix__bx)"><g clip-path="url(#prefix__by)"><path fill="#38b6ff" d="M86.387 79.176l11.812 4.773c.25.102.528.094.77-.027l5.082-2.496a.945.945 0 00.523-.887.945.945 0 00-.594-.844l-11.02-4.457 3.204-11.445a.958.958 0 00-.305-.988.952.952 0 00-1.023-.125l-5.082 2.5a.94.94 0 00-.492.59l-3.434 12.265a.953.953 0 00.559 1.14zm0 0"/></g></g></g><g clip-path="url(#prefix__bz)"><path fill="#38b6ff" d="M118.215 68.148l8.492 9.493a.946.946 0 00.703.316h5.664a.95.95 0 00.863-.562.956.956 0 00-.164-1.02l-7.921-8.86 7.921-8.859a.95.95 0 00-.7-1.586h-5.663a.971.971 0 00-.703.313l-8.492 9.496c-.32.36-.32.91 0 1.27zm0 0"/></g><g clip-path="url(#prefix__bA)"><path fill="#38b6ff" d="M130.484 68.148l8.493 9.493a.94.94 0 00.703.316h5.66a.947.947 0 00.703-1.582l-7.926-8.86 7.926-8.859a.955.955 0 00.16-1.023.94.94 0 00-.863-.563h-5.66c-.27 0-.52.117-.703.313l-8.493 9.496a.95.95 0 000 1.27zm0 0"/></g><g clip-path="url(#prefix__bB)"><g clip-path="url(#prefix__bC)"><g clip-path="url(#prefix__bD)"><path fill="#5ce1e6" d="M154.75 67.309l8.207 9.746a.943.943 0 00.691.336l5.66.168a.948.948 0 00.75-1.563l-7.656-9.094 8.188-8.613a.948.948 0 00.191-1.016.931.931 0 00-.844-.59l-5.66-.171a.955.955 0 00-.71.293l-8.778 9.234a.96.96 0 00-.039 1.27zm0 0"/></g></g></g><g clip-path="url(#prefix__bE)"><g clip-path="url(#prefix__bF)"><g clip-path="url(#prefix__bG)"><path fill="#5ce1e6" d="M167.016 67.676l8.203 9.746a.936.936 0 00.691.336l5.66.172a.948.948 0 00.75-1.563l-7.656-9.094 8.188-8.617a.946.946 0 00.191-1.015.944.944 0 00-.844-.59l-5.66-.172a.955.955 0 00-.71.293l-8.778 9.234a.955.955 0 00-.035 1.27zm0 0"/></g></g></g><g clip-path="url(#prefix__bH)"><g clip-path="url(#prefix__bI)"><g clip-path="url(#prefix__bJ)"><path fill="#38b6ff" d="M266.402 67.309l8.207 9.746a.943.943 0 00.692.336l5.66.168a.948.948 0 00.75-1.563l-7.656-9.094 8.187-8.613a.948.948 0 00.192-1.016.931.931 0 00-.844-.59l-5.66-.171a.955.955 0 00-.711.293l-8.778 9.234a.96.96 0 00-.039 1.27zm0 0"/></g></g></g><g clip-path="url(#prefix__bK)"><g clip-path="url(#prefix__bL)"><g clip-path="url(#prefix__bM)"><path fill="#38b6ff" d="M278.668 67.676l8.203 9.746a.936.936 0 00.692.336l5.66.172a.948.948 0 00.75-1.563l-7.657-9.094 8.188-8.617a.946.946 0 00.191-1.015.944.944 0 00-.843-.59l-5.66-.172a.955.955 0 00-.712.293l-8.777 9.234a.955.955 0 00-.035 1.27zm0 0"/></g></g></g><g clip-path="url(#prefix__bN)"><g clip-path="url(#prefix__bO)"><g clip-path="url(#prefix__bP)"><path fill="#38b6ff" d="M229.277 67.309l8.207 9.746a.943.943 0 00.692.336l5.66.168a.948.948 0 00.75-1.563l-7.656-9.094 8.187-8.613a.948.948 0 00.192-1.016.931.931 0 00-.844-.59l-5.66-.171a.955.955 0 00-.711.293l-8.778 9.234a.96.96 0 00-.039 1.27zm0 0"/></g></g></g><g clip-path="url(#prefix__bQ)"><g clip-path="url(#prefix__bR)"><g clip-path="url(#prefix__bS)"><path fill="#38b6ff" d="M241.543 67.676l8.203 9.746a.936.936 0 00.691.336l5.66.172a.948.948 0 00.75-1.563l-7.656-9.094 8.188-8.617a.946.946 0 00.191-1.015.944.944 0 00-.843-.59l-5.66-.172a.955.955 0 00-.712.293l-8.777 9.234a.955.955 0 00-.035 1.27zm0 0"/></g></g></g><g clip-path="url(#prefix__bT)"><g clip-path="url(#prefix__bU)"><g clip-path="url(#prefix__bV)"><path fill="#38b6ff" d="M192.762 67.309l8.203 9.746a.958.958 0 00.695.336l5.656.168a.95.95 0 00.883-.536.957.957 0 00-.133-1.027l-7.652-9.094 8.188-8.613a.956.956 0 00.191-1.016.937.937 0 00-.848-.59l-5.656-.171a.964.964 0 00-.715.293l-8.773 9.234a.955.955 0 00-.04 1.27zm0 0"/></g></g></g><g clip-path="url(#prefix__bW)"><g clip-path="url(#prefix__bX)"><g clip-path="url(#prefix__bY)"><path fill="#38b6ff" d="M205.023 67.676l8.207 9.746a.93.93 0 00.692.336l5.66.172a.948.948 0 00.75-1.563l-7.656-9.094 8.187-8.617a.946.946 0 00.192-1.015.944.944 0 00-.844-.59l-5.66-.172a.955.955 0 00-.711.293l-8.778 9.234a.96.96 0 00-.039 1.27zm0 0"/></g></g></g></svg>