<svg xmlns="http://www.w3.org/2000/svg" xmlns:xlink="http://www.w3.org/1999/xlink" width="450" zoomAndPan="magnify" viewBox="0 0 337.5 374.999991" height="500" preserveAspectRatio="xMidYMid meet" version="1.0"><defs><clipPath id="dbd263e051"><path d="M 0 52.777344 L 303.75 52.777344 L 303.75 323 L 0 323 Z M 0 52.777344 " clip-rule="nonzero"/></clipPath><clipPath id="73969ef351"><path d="M 7.917969 142.824219 C 3.136719 156.667969 0 172.40625 0 187.851562 C 0 203.296875 2.6875 218.15625 7.46875 231.855469 C 7.621094 232.144531 7.621094 232.4375 7.769531 232.730469 C 26.890625 284.164062 77.390625 322.050781 135.65625 322.777344 L 303.75 322.777344 L 303.75 52.777344 L 135.78125 52.777344 C 77.09375 53.507812 26.59375 90.808594 7.917969 142.824219 " clip-rule="nonzero"/></clipPath><clipPath id="b1791e815f"><path d="M 0 52.777344 L 303.75 52.777344 L 303.75 322.777344 L 0 322.777344 Z M 0 52.777344 " clip-rule="nonzero"/></clipPath><clipPath id="443e69e688"><path d="M 7.917969 142.824219 C 3.136719 156.667969 0 172.40625 0 187.851562 C 0 203.296875 2.6875 218.15625 7.46875 231.855469 C 7.621094 232.144531 7.621094 232.4375 7.769531 232.730469 C 26.890625 284.164062 77.390625 322.050781 135.65625 322.777344 L 303.75 322.777344 L 303.75 52.777344 L 135.78125 52.777344 C 77.09375 53.507812 26.59375 90.808594 7.917969 142.824219 " clip-rule="nonzero"/></clipPath><clipPath id="3606b25476"><path d="M 34 77 L 251 77 L 251 294 L 34 294 Z M 34 77 " clip-rule="nonzero"/></clipPath><clipPath id="76aa1569e5"><path d="M 185.394531 39.03125 L 289.683594 228.515625 L 100.199219 332.804688 L -4.089844 143.320312 Z M 185.394531 39.03125 " clip-rule="nonzero"/></clipPath><clipPath id="6732489329"><path d="M 237.46875 133.644531 C 208.707031 81.390625 143.03125 62.34375 90.777344 91.105469 C 38.523438 119.867188 19.476562 185.542969 48.238281 237.796875 C 76.996094 290.050781 142.671875 309.097656 194.925781 280.335938 C 247.183594 251.578125 266.230469 185.902344 237.46875 133.644531 " clip-rule="nonzero"/></clipPath><clipPath id="bac7b476c7"><path d="M 34 77 L 251 77 L 251 294 L 34 294 Z M 34 77 " clip-rule="nonzero"/></clipPath><clipPath id="c9c531d2bd"><path d="M 185.394531 39.03125 L 289.542969 228.261719 L 100.3125 332.414062 L -3.839844 143.179688 Z M 185.394531 39.03125 " clip-rule="nonzero"/></clipPath><clipPath id="37be2c34b1"><path d="M 185.394531 39.03125 L 291.015625 230.9375 L 99.109375 336.5625 L -6.515625 144.652344 Z M 185.394531 39.03125 " clip-rule="nonzero"/></clipPath><clipPath id="778ff82302"><path d="M 237.46875 133.644531 C 208.707031 81.390625 143.03125 62.34375 90.777344 91.105469 C 38.523438 119.867188 19.476562 185.542969 48.238281 237.796875 C 76.996094 290.050781 142.671875 309.097656 194.925781 280.335938 C 247.183594 251.578125 266.230469 185.902344 237.46875 133.644531 " clip-rule="nonzero"/></clipPath><clipPath id="5d52dbcc16"><path d="M 168 143 L 205 143 L 205 175 L 168 175 Z M 168 143 " clip-rule="nonzero"/></clipPath><clipPath id="42f22e348b"><path d="M 195.480469 143 L 204.632812 158.6875 L 177.0625 174.777344 L 167.90625 159.089844 Z M 195.480469 143 " clip-rule="nonzero"/></clipPath><clipPath id="c18442b408"><path d="M 195.480469 143 L 204.433594 158.34375 L 177.03125 174.335938 L 168.078125 158.992188 Z M 195.480469 143 " clip-rule="nonzero"/></clipPath><clipPath id="9bbf5ddbd2"><path d="M 135 215 L 153 215 L 153 248 L 135 248 Z M 135 215 " clip-rule="nonzero"/></clipPath><clipPath id="17234e87ca"><path d="M 135.199219 215.957031 L 153.363281 216.070312 L 153.160156 247.996094 L 135 247.882812 Z M 135.199219 215.957031 " clip-rule="nonzero"/></clipPath><clipPath id="6a3c4075e6"><path d="M 135.199219 215.957031 L 152.964844 216.070312 L 152.765625 247.796875 L 135 247.6875 Z M 135.199219 215.957031 " clip-rule="nonzero"/></clipPath><clipPath id="3dc5e53c35"><path d="M 101 158 L 187 158 L 187 232 L 101 232 Z M 101 158 " clip-rule="nonzero"/></clipPath><clipPath id="b4259a4feb"><path d="M 80.527344 195.242188 L 123.117188 121.453125 L 187.199219 158.441406 L 144.605469 232.230469 Z M 80.527344 195.242188 " clip-rule="nonzero"/></clipPath><clipPath id="996efda9eb"><path d="M 101.660156 158.628906 L 186.25 158.648438 L 143.988281 231.871094 L 101.660156 158.628906 " clip-rule="nonzero"/></clipPath><clipPath id="dee60c6383"><path d="M 90 147 L 127 147 L 127 179 L 90 179 Z M 90 147 " clip-rule="nonzero"/></clipPath><clipPath id="eb680726f2"><path d="M 90.378906 162.382812 L 99.457031 146.648438 L 127.105469 162.609375 L 118.027344 178.339844 Z M 90.378906 162.382812 " clip-rule="nonzero"/></clipPath><clipPath id="e8b85efc2a"><path d="M 90.378906 162.382812 L 99.257812 146.996094 L 126.738281 162.855469 L 117.855469 178.242188 Z M 90.378906 162.382812 " clip-rule="nonzero"/></clipPath><clipPath id="a28cb34c80"><path d="M 49 116 L 105 116 L 105 173 L 49 173 Z M 49 116 " clip-rule="nonzero"/></clipPath><clipPath id="1f118e049f"><path d="M 86.324219 182.625 L 38.804688 153.714844 L 67.710938 106.195312 L 115.230469 135.101562 Z M 86.324219 182.625 " clip-rule="nonzero"/></clipPath><clipPath id="b3e1563270"><path d="M 62.5625 168.167969 C 75.6875 176.152344 92.796875 171.984375 100.777344 158.863281 C 108.761719 145.742188 104.59375 128.632812 91.472656 120.648438 C 78.347656 112.667969 61.242188 116.832031 53.257812 129.957031 C 45.273438 143.078125 49.441406 160.1875 62.5625 168.167969 " clip-rule="nonzero"/></clipPath><clipPath id="aaea072593"><path d="M 49 116 L 105 116 L 105 173 L 49 173 Z M 49 116 " clip-rule="nonzero"/></clipPath><clipPath id="b903199951"><path d="M 86.324219 182.625 L 38.910156 153.777344 L 67.753906 106.363281 L 115.167969 135.207031 Z M 86.324219 182.625 " clip-rule="nonzero"/></clipPath><clipPath id="ff662d16d3"><path d="M 86.324219 182.625 L 38.910156 153.777344 L 67.753906 106.363281 L 115.167969 135.207031 Z M 86.324219 182.625 " clip-rule="nonzero"/></clipPath><clipPath id="7352d947e6"><path d="M 62.617188 168.203125 C 75.710938 176.167969 92.78125 172.007812 100.746094 158.914062 C 108.710938 145.820312 104.554688 128.75 91.460938 120.785156 C 78.367188 112.820312 61.296875 116.976562 53.332031 130.070312 C 45.367188 143.164062 49.523438 160.234375 62.617188 168.203125 " clip-rule="nonzero"/></clipPath><clipPath id="3824d40d34"><path d="M 116 234 L 172 234 L 172 290 L 116 290 Z M 116 234 " clip-rule="nonzero"/></clipPath><clipPath id="45bab6651f"><path d="M 116.15625 289.660156 L 116.171875 234.039062 L 171.792969 234.050781 L 171.777344 289.675781 Z M 116.15625 289.660156 " clip-rule="nonzero"/></clipPath><clipPath id="d84b9dc837"><path d="M 116.164062 261.847656 C 116.160156 277.207031 128.609375 289.664062 143.96875 289.667969 C 159.328125 289.671875 171.78125 277.222656 171.785156 261.863281 C 171.789062 246.503906 159.34375 234.050781 143.984375 234.042969 C 128.625 234.039062 116.167969 246.488281 116.164062 261.847656 " clip-rule="nonzero"/></clipPath><clipPath id="c8accd42fa"><path d="M 116 234 L 172 234 L 172 290 L 116 290 Z M 116 234 " clip-rule="nonzero"/></clipPath><clipPath id="e77cba18a6"><path d="M 116.15625 289.660156 L 116.171875 234.160156 L 171.671875 234.175781 L 171.65625 289.675781 Z M 116.15625 289.660156 " clip-rule="nonzero"/></clipPath><clipPath id="1ba71cc645"><path d="M 116.15625 289.660156 L 116.171875 234.160156 L 171.671875 234.175781 L 171.65625 289.675781 Z M 116.15625 289.660156 " clip-rule="nonzero"/></clipPath><clipPath id="71fe0e096b"><path d="M 116.164062 261.910156 C 116.160156 277.234375 128.582031 289.664062 143.90625 289.667969 C 159.234375 289.671875 171.660156 277.25 171.664062 261.925781 C 171.667969 246.597656 159.25 234.171875 143.921875 234.167969 C 128.597656 234.164062 116.167969 246.582031 116.164062 261.910156 " clip-rule="nonzero"/></clipPath><clipPath id="d64cdaa492"><path d="M 180 118 L 237 118 L 237 174 L 180 174 Z M 180 118 " clip-rule="nonzero"/></clipPath><clipPath id="08595f4c2c"><path d="M 218.019531 184.097656 L 170.5 155.191406 L 199.40625 107.671875 L 246.925781 136.578125 Z M 218.019531 184.097656 " clip-rule="nonzero"/></clipPath><clipPath id="e58bf78ffb"><path d="M 194.257812 169.644531 C 207.382812 177.628906 224.488281 173.460938 232.472656 160.339844 C 240.457031 147.214844 236.289062 130.105469 223.167969 122.125 C 210.042969 114.140625 192.933594 118.308594 184.953125 131.429688 C 176.96875 144.554688 181.136719 161.660156 194.257812 169.644531 " clip-rule="nonzero"/></clipPath><clipPath id="aec3ac1c35"><path d="M 180 118 L 237 118 L 237 174 L 180 174 Z M 180 118 " clip-rule="nonzero"/></clipPath><clipPath id="6785e9961b"><path d="M 218.019531 184.097656 L 170.601562 155.253906 L 199.449219 107.839844 L 246.863281 136.683594 Z M 218.019531 184.097656 " clip-rule="nonzero"/></clipPath><clipPath id="0fd5dad32c"><path d="M 218.019531 184.097656 L 170.601562 155.253906 L 199.449219 107.839844 L 246.863281 136.683594 Z M 218.019531 184.097656 " clip-rule="nonzero"/></clipPath><clipPath id="a7cfb161db"><path d="M 194.3125 169.675781 C 207.40625 177.640625 224.476562 173.484375 232.441406 160.390625 C 240.40625 147.296875 236.25 130.226562 223.15625 122.261719 C 210.0625 114.296875 192.992188 118.453125 185.023438 131.546875 C 177.058594 144.640625 181.21875 161.710938 194.3125 169.675781 " clip-rule="nonzero"/></clipPath><clipPath id="2112f85999"><path d="M 70 137 L 84 137 L 84 152 L 70 152 Z M 70 137 " clip-rule="nonzero"/></clipPath><clipPath id="5a8d2008ed"><path d="M 67.484375 146.96875 L 74.464844 134.878906 L 86.554688 141.859375 L 79.574219 153.949219 Z M 67.484375 146.96875 " clip-rule="nonzero"/></clipPath><clipPath id="a8139fe865"><path d="M 70.972656 140.925781 C 69.046875 144.261719 70.191406 148.53125 73.53125 150.457031 C 76.867188 152.386719 81.136719 151.242188 83.0625 147.902344 C 84.992188 144.5625 83.847656 140.296875 80.507812 138.367188 C 77.167969 136.441406 72.902344 137.585938 70.972656 140.925781 " clip-rule="nonzero"/></clipPath><clipPath id="5f036f1895"><path d="M 136 254 L 151 254 L 151 269 L 136 269 Z M 136 254 " clip-rule="nonzero"/></clipPath><clipPath id="1b86dbd5d4"><path d="M 136.996094 254.878906 L 150.953125 254.882812 L 150.949219 268.84375 L 136.992188 268.839844 Z M 136.996094 254.878906 " clip-rule="nonzero"/></clipPath><clipPath id="5eb2bd2c2a"><path d="M 143.976562 254.882812 C 140.121094 254.878906 136.996094 258.003906 136.992188 261.859375 C 136.992188 265.714844 140.117188 268.839844 143.972656 268.839844 C 147.824219 268.839844 150.953125 265.71875 150.953125 261.863281 C 150.953125 258.007812 147.828125 254.882812 143.976562 254.882812 " clip-rule="nonzero"/></clipPath><clipPath id="582146a33f"><path d="M 201 138 L 216 138 L 216 152 L 201 152 Z M 201 138 " clip-rule="nonzero"/></clipPath><clipPath id="d343715991"><path d="M 198.640625 147.554688 L 205.621094 135.464844 L 217.710938 142.445312 L 210.730469 154.535156 Z M 198.640625 147.554688 " clip-rule="nonzero"/></clipPath><clipPath id="f7df045616"><path d="M 202.132812 141.511719 C 200.203125 144.847656 201.347656 149.117188 204.6875 151.042969 C 208.027344 152.972656 212.292969 151.828125 214.222656 148.488281 C 216.148438 145.152344 215.003906 140.882812 211.664062 138.953125 C 208.328125 137.027344 204.058594 138.171875 202.132812 141.511719 " clip-rule="nonzero"/></clipPath><clipPath id="ddc2a387e0"><path d="M 121 112 L 169 112 L 169 126 L 121 126 Z M 121 112 " clip-rule="nonzero"/></clipPath><clipPath id="7bf8d9a61f"><path d="M 168.683594 123.5625 L 121.617188 127.734375 L 120.425781 114.285156 L 167.492188 110.113281 Z M 168.683594 123.5625 " clip-rule="nonzero"/></clipPath><clipPath id="8c2f52dbdf"><path d="M 168.683594 123.5625 L 121.617188 127.734375 L 120.425781 114.285156 L 167.492188 110.113281 Z M 168.683594 123.5625 " clip-rule="nonzero"/></clipPath><clipPath id="23570e8d1e"><path d="M 168.683594 123.5625 L 121.617188 127.734375 L 120.425781 114.285156 L 167.492188 110.113281 Z M 168.683594 123.5625 " clip-rule="nonzero"/></clipPath><clipPath id="5bd69dfacf"><path d="M 160 117 L 161 117 L 161 119 L 160 119 Z M 160 117 " clip-rule="nonzero"/></clipPath><clipPath id="d2414e7cb4"><path d="M 168.683594 123.5625 L 121.617188 127.734375 L 120.425781 114.285156 L 167.492188 110.113281 Z M 168.683594 123.5625 " clip-rule="nonzero"/></clipPath><clipPath id="b9163d1e80"><path d="M 168.683594 123.5625 L 121.617188 127.734375 L 120.425781 114.285156 L 167.492188 110.113281 Z M 168.683594 123.5625 " clip-rule="nonzero"/></clipPath><clipPath id="f104797b26"><path d="M 168.683594 123.5625 L 121.617188 127.734375 L 120.425781 114.285156 L 167.492188 110.113281 Z M 168.683594 123.5625 " clip-rule="nonzero"/></clipPath><clipPath id="a06e8fa04f"><path d="M 185 195 L 216 195 L 216 235 L 185 235 Z M 185 195 " clip-rule="nonzero"/></clipPath><clipPath id="c07fb4d86c"><path d="M 184.667969 233.554688 L 208.347656 192.664062 L 220.027344 199.429688 L 196.347656 240.320312 Z M 184.667969 233.554688 " clip-rule="nonzero"/></clipPath><clipPath id="be842472bd"><path d="M 184.667969 233.554688 L 208.347656 192.664062 L 220.027344 199.429688 L 196.347656 240.320312 Z M 184.667969 233.554688 " clip-rule="nonzero"/></clipPath><clipPath id="e0368b86ed"><path d="M 184.667969 233.554688 L 208.347656 192.664062 L 220.027344 199.429688 L 196.347656 240.320312 Z M 184.667969 233.554688 " clip-rule="nonzero"/></clipPath><clipPath id="a7bcc58dcc"><path d="M 193 230 L 194 230 L 194 231 L 193 231 Z M 193 230 " clip-rule="nonzero"/></clipPath><clipPath id="96c37700ff"><path d="M 184.667969 233.554688 L 208.347656 192.664062 L 220.027344 199.429688 L 196.347656 240.320312 Z M 184.667969 233.554688 " clip-rule="nonzero"/></clipPath><clipPath id="5ac93366ce"><path d="M 184.667969 233.554688 L 208.347656 192.664062 L 220.027344 199.429688 L 196.347656 240.320312 Z M 184.667969 233.554688 " clip-rule="nonzero"/></clipPath><clipPath id="e1645cfef1"><path d="M 184.667969 233.554688 L 208.347656 192.664062 L 220.027344 199.429688 L 196.347656 240.320312 Z M 184.667969 233.554688 " clip-rule="nonzero"/></clipPath><clipPath id="5ad1216609"><path d="M 78 195 L 100 195 L 100 240 L 78 240 Z M 78 195 " clip-rule="nonzero"/></clipPath><clipPath id="1025987715"><path d="M 82.722656 194.433594 L 102.824219 237.195312 L 90.605469 242.9375 L 70.507812 200.175781 Z M 82.722656 194.433594 " clip-rule="nonzero"/></clipPath><clipPath id="75283beab0"><path d="M 82.722656 194.433594 L 102.824219 237.195312 L 90.605469 242.9375 L 70.507812 200.175781 Z M 82.722656 194.433594 " clip-rule="nonzero"/></clipPath><clipPath id="240a723adf"><path d="M 82.722656 194.433594 L 102.824219 237.195312 L 90.605469 242.9375 L 70.507812 200.175781 Z M 82.722656 194.433594 " clip-rule="nonzero"/></clipPath><clipPath id="83b1327c26"><path d="M 80 203 L 81 203 L 81 204 L 80 204 Z M 80 203 " clip-rule="nonzero"/></clipPath><clipPath id="db72669794"><path d="M 82.722656 194.433594 L 102.824219 237.195312 L 90.605469 242.9375 L 70.507812 200.175781 Z M 82.722656 194.433594 " clip-rule="nonzero"/></clipPath><clipPath id="405515999e"><path d="M 82.722656 194.433594 L 102.824219 237.195312 L 90.605469 242.9375 L 70.507812 200.175781 Z M 82.722656 194.433594 " clip-rule="nonzero"/></clipPath><clipPath id="4169256bd0"><path d="M 82.722656 194.433594 L 102.824219 237.195312 L 90.605469 242.9375 L 70.507812 200.175781 Z M 82.722656 194.433594 " clip-rule="nonzero"/></clipPath><clipPath id="d26261a166"><path d="M 278 297.128906 L 295 297.128906 L 295 318.128906 L 278 318.128906 Z M 278 297.128906 " clip-rule="nonzero"/></clipPath><clipPath id="ade96790f5"><path d="M 266.625 297.128906 L 283 297.128906 L 283 318.128906 L 266.625 318.128906 Z M 266.625 297.128906 " clip-rule="nonzero"/></clipPath><clipPath id="218d65e687"><path d="M 241 297.128906 L 258 297.128906 L 258 318.128906 L 241 318.128906 Z M 241 297.128906 " clip-rule="nonzero"/></clipPath><clipPath id="5fa8e7fc61"><path d="M 229.5 297.128906 L 246 297.128906 L 246 318.128906 L 229.5 318.128906 Z M 229.5 297.128906 " clip-rule="nonzero"/></clipPath><clipPath id="5ce1c6d2e2"><path d="M 204 297.128906 L 220.875 297.128906 L 220.875 318.128906 L 204 318.128906 Z M 204 297.128906 " clip-rule="nonzero"/></clipPath><clipPath id="39a70eeb5d"><path d="M 192.375 297.128906 L 209 297.128906 L 209 318.128906 L 192.375 318.128906 Z M 192.375 297.128906 " clip-rule="nonzero"/></clipPath><clipPath id="e45b93f0ff"><path d="M 167 297.128906 L 183.75 297.128906 L 183.75 318.128906 L 167 318.128906 Z M 167 297.128906 " clip-rule="nonzero"/></clipPath><clipPath id="e6d59ebbb3"><path d="M 155.25 297.128906 L 172 297.128906 L 172 318.128906 L 155.25 318.128906 Z M 155.25 297.128906 " clip-rule="nonzero"/></clipPath><clipPath id="3bcc0c55e1"><path d="M 130 297 L 147 297 L 147 319 L 130 319 Z M 130 297 " clip-rule="nonzero"/></clipPath><clipPath id="130b23a29e"><path d="M 117.945312 297.378906 L 146.441406 296.875 L 146.8125 317.871094 L 118.316406 318.375 Z M 117.945312 297.378906 " clip-rule="nonzero"/></clipPath><clipPath id="3e287316ba"><path d="M 117.945312 297.378906 L 146.441406 296.875 L 146.8125 317.871094 L 118.316406 318.375 Z M 117.945312 297.378906 " clip-rule="nonzero"/></clipPath><clipPath id="6ac7ebc76e"><path d="M 117 297 L 135 297 L 135 319 L 117 319 Z M 117 297 " clip-rule="nonzero"/></clipPath><clipPath id="447fcf8cdc"><path d="M 117.945312 297.378906 L 146.441406 296.875 L 146.8125 317.871094 L 118.316406 318.375 Z M 117.945312 297.378906 " clip-rule="nonzero"/></clipPath><clipPath id="d0848d5ae1"><path d="M 117.945312 297.378906 L 146.441406 296.875 L 146.8125 317.871094 L 118.316406 318.375 Z M 117.945312 297.378906 " clip-rule="nonzero"/></clipPath><clipPath id="4ccff27806"><path d="M 80 284 L 100 284 L 100 306 L 80 306 Z M 80 284 " clip-rule="nonzero"/></clipPath><clipPath id="cc20170e61"><path d="M 81.105469 277.734375 L 105.09375 293.121094 L 93.757812 310.796875 L 69.765625 295.410156 Z M 81.105469 277.734375 " clip-rule="nonzero"/></clipPath><clipPath id="de93e64ff7"><path d="M 81.105469 277.734375 L 105.09375 293.121094 L 93.757812 310.796875 L 69.765625 295.410156 Z M 81.105469 277.734375 " clip-rule="nonzero"/></clipPath><clipPath id="8ed1c05dae"><path d="M 70 278 L 90 278 L 90 300 L 70 300 Z M 70 278 " clip-rule="nonzero"/></clipPath><clipPath id="de5400c8a7"><path d="M 81.105469 277.734375 L 105.09375 293.121094 L 93.757812 310.796875 L 69.765625 295.410156 Z M 81.105469 277.734375 " clip-rule="nonzero"/></clipPath><clipPath id="f3372f78af"><path d="M 81.105469 277.734375 L 105.09375 293.121094 L 93.757812 310.796875 L 69.765625 295.410156 Z M 81.105469 277.734375 " clip-rule="nonzero"/></clipPath><clipPath id="1dd87f95a2"><path d="M 42 264 L 62 264 L 62 285 L 42 285 Z M 42 264 " clip-rule="nonzero"/></clipPath><clipPath id="1d902d7954"><path d="M 48.058594 255.742188 L 68.585938 275.511719 L 54.019531 290.636719 L 33.492188 270.867188 Z M 48.058594 255.742188 " clip-rule="nonzero"/></clipPath><clipPath id="869e6beb73"><path d="M 48.058594 255.742188 L 68.585938 275.511719 L 54.019531 290.636719 L 33.492188 270.867188 Z M 48.058594 255.742188 " clip-rule="nonzero"/></clipPath><clipPath id="295bb1daf3"><path d="M 33 256 L 54 256 L 54 276 L 33 276 Z M 33 256 " clip-rule="nonzero"/></clipPath><clipPath id="5bbd8ddf5c"><path d="M 48.058594 255.742188 L 68.585938 275.511719 L 54.019531 290.636719 L 33.492188 270.867188 Z M 48.058594 255.742188 " clip-rule="nonzero"/></clipPath><clipPath id="a9aa5d532a"><path d="M 48.058594 255.742188 L 68.585938 275.511719 L 54.019531 290.636719 L 33.492188 270.867188 Z M 48.058594 255.742188 " clip-rule="nonzero"/></clipPath><clipPath id="23ef4894c0"><path d="M 19 232 L 41 232 L 41 251 L 19 251 Z M 19 232 " clip-rule="nonzero"/></clipPath><clipPath id="27e6250cdd"><path d="M 31.21875 221.023438 L 45.539062 245.664062 L 27.386719 256.21875 L 13.0625 231.578125 Z M 31.21875 221.023438 " clip-rule="nonzero"/></clipPath><clipPath id="844346cb75"><path d="M 31.21875 221.023438 L 45.539062 245.664062 L 27.386719 256.21875 L 13.0625 231.578125 Z M 31.21875 221.023438 " clip-rule="nonzero"/></clipPath><clipPath id="7ce897e6be"><path d="M 13 221 L 35 221 L 35 241 L 13 241 Z M 13 221 " clip-rule="nonzero"/></clipPath><clipPath id="85996ed45c"><path d="M 31.21875 221.023438 L 45.539062 245.664062 L 27.386719 256.21875 L 13.0625 231.578125 Z M 31.21875 221.023438 " clip-rule="nonzero"/></clipPath><clipPath id="d50f742c03"><path d="M 31.21875 221.023438 L 45.539062 245.664062 L 27.386719 256.21875 L 13.0625 231.578125 Z M 31.21875 221.023438 " clip-rule="nonzero"/></clipPath><clipPath id="62a06945c6"><path d="M 8.878906 184 L 29.878906 184 L 29.878906 200.4375 L 8.878906 200.4375 Z M 8.878906 184 " clip-rule="nonzero"/></clipPath><clipPath id="59dd45e76d"><path d="M 8.878906 171.9375 L 29.878906 171.9375 L 29.878906 188 L 8.878906 188 Z M 8.878906 171.9375 " clip-rule="nonzero"/></clipPath><clipPath id="fa6fd70059"><path d="M 18 126 L 39 126 L 39 146 L 18 146 Z M 18 126 " clip-rule="nonzero"/></clipPath><clipPath id="94e400adc5"><path d="M 46.378906 127.648438 L 30.144531 151.074219 L 12.882812 139.109375 L 29.117188 115.6875 Z M 46.378906 127.648438 " clip-rule="nonzero"/></clipPath><clipPath id="72cc911c4d"><path d="M 46.378906 127.648438 L 30.144531 151.074219 L 12.882812 139.109375 L 29.117188 115.6875 Z M 46.378906 127.648438 " clip-rule="nonzero"/></clipPath><clipPath id="c351e02b9e"><path d="M 25 116 L 46 116 L 46 136 L 25 136 Z M 25 116 " clip-rule="nonzero"/></clipPath><clipPath id="39ebf742a2"><path d="M 46.378906 127.648438 L 30.144531 151.074219 L 12.882812 139.109375 L 29.117188 115.6875 Z M 46.378906 127.648438 " clip-rule="nonzero"/></clipPath><clipPath id="390cc03498"><path d="M 46.378906 127.648438 L 30.144531 151.074219 L 12.882812 139.109375 L 29.117188 115.6875 Z M 46.378906 127.648438 " clip-rule="nonzero"/></clipPath><clipPath id="7bdb8e5c99"><path d="M 44 90 L 64 90 L 64 111 L 44 111 Z M 44 90 " clip-rule="nonzero"/></clipPath><clipPath id="d8e57f18ac"><path d="M 72.519531 97.335938 L 51.425781 116.5 L 37.304688 100.957031 L 58.398438 81.792969 Z M 72.519531 97.335938 " clip-rule="nonzero"/></clipPath><clipPath id="0bd922a537"><path d="M 72.519531 97.335938 L 51.425781 116.5 L 37.304688 100.957031 L 58.398438 81.792969 Z M 72.519531 97.335938 " clip-rule="nonzero"/></clipPath><clipPath id="5aa19250cf"><path d="M 53 82 L 73 82 L 73 102 L 53 102 Z M 53 82 " clip-rule="nonzero"/></clipPath><clipPath id="91fe05c92a"><path d="M 72.519531 97.335938 L 51.425781 116.5 L 37.304688 100.957031 L 58.398438 81.792969 Z M 72.519531 97.335938 " clip-rule="nonzero"/></clipPath><clipPath id="4c74756f96"><path d="M 72.519531 97.335938 L 51.425781 116.5 L 37.304688 100.957031 L 58.398438 81.792969 Z M 72.519531 97.335938 " clip-rule="nonzero"/></clipPath><clipPath id="688890a297"><path d="M 74 67 L 94 67 L 94 90 L 74 90 Z M 74 67 " clip-rule="nonzero"/></clipPath><clipPath id="431dfc7c4f"><path d="M 104.921875 81.058594 L 79.34375 93.632812 L 70.078125 74.785156 L 95.65625 62.214844 Z M 104.921875 81.058594 " clip-rule="nonzero"/></clipPath><clipPath id="0158c6a020"><path d="M 104.921875 81.058594 L 79.34375 93.632812 L 70.078125 74.785156 L 95.65625 62.214844 Z M 104.921875 81.058594 " clip-rule="nonzero"/></clipPath><clipPath id="cfa1c586b7"><path d="M 85 62 L 105 62 L 105 85 L 85 85 Z M 85 62 " clip-rule="nonzero"/></clipPath><clipPath id="2f02ea3668"><path d="M 104.921875 81.058594 L 79.34375 93.632812 L 70.078125 74.785156 L 95.65625 62.214844 Z M 104.921875 81.058594 " clip-rule="nonzero"/></clipPath><clipPath id="031e454419"><path d="M 104.921875 81.058594 L 79.34375 93.632812 L 70.078125 74.785156 L 95.65625 62.214844 Z M 104.921875 81.058594 " clip-rule="nonzero"/></clipPath><clipPath id="4ed54e42a6"><path d="M 117.785156 57.015625 L 135 57.015625 L 135 78 L 117.785156 78 Z M 117.785156 57.015625 " clip-rule="nonzero"/></clipPath><clipPath id="23b428c60d"><path d="M 130 57.015625 L 146.285156 57.015625 L 146.285156 78 L 130 78 Z M 130 57.015625 " clip-rule="nonzero"/></clipPath><clipPath id="dad32d1337"><path d="M 154 56 L 171 56 L 171 78 L 154 78 Z M 154 56 " clip-rule="nonzero"/></clipPath><clipPath id="47071ba8c8"><path d="M 182.511719 78.015625 L 154.023438 77.15625 L 154.65625 56.164062 L 183.144531 57.023438 Z M 182.511719 78.015625 " clip-rule="nonzero"/></clipPath><clipPath id="cd6df277e0"><path d="M 182.511719 78.015625 L 154.023438 77.15625 L 154.65625 56.164062 L 183.144531 57.023438 Z M 182.511719 78.015625 " clip-rule="nonzero"/></clipPath><clipPath id="0a08df5d21"><path d="M 166 56 L 184 56 L 184 78 L 166 78 Z M 166 56 " clip-rule="nonzero"/></clipPath><clipPath id="5ffb691520"><path d="M 182.511719 78.015625 L 154.023438 77.15625 L 154.65625 56.164062 L 183.144531 57.023438 Z M 182.511719 78.015625 " clip-rule="nonzero"/></clipPath><clipPath id="514214423b"><path d="M 182.511719 78.015625 L 154.023438 77.15625 L 154.65625 56.164062 L 183.144531 57.023438 Z M 182.511719 78.015625 " clip-rule="nonzero"/></clipPath><clipPath id="710d99d172"><path d="M 266 56 L 283 56 L 283 78 L 266 78 Z M 266 56 " clip-rule="nonzero"/></clipPath><clipPath id="fd5a5df7fc"><path d="M 294.164062 78.015625 L 265.675781 77.15625 L 266.308594 56.164062 L 294.796875 57.023438 Z M 294.164062 78.015625 " clip-rule="nonzero"/></clipPath><clipPath id="1cafe57c32"><path d="M 294.164062 78.015625 L 265.675781 77.15625 L 266.308594 56.164062 L 294.796875 57.023438 Z M 294.164062 78.015625 " clip-rule="nonzero"/></clipPath><clipPath id="5fcd763795"><path d="M 278 56 L 295 56 L 295 78 L 278 78 Z M 278 56 " clip-rule="nonzero"/></clipPath><clipPath id="6139c94dbe"><path d="M 294.164062 78.015625 L 265.675781 77.15625 L 266.308594 56.164062 L 294.796875 57.023438 Z M 294.164062 78.015625 " clip-rule="nonzero"/></clipPath><clipPath id="b13f1bd132"><path d="M 294.164062 78.015625 L 265.675781 77.15625 L 266.308594 56.164062 L 294.796875 57.023438 Z M 294.164062 78.015625 " clip-rule="nonzero"/></clipPath><clipPath id="5e02549056"><path d="M 229 56 L 246 56 L 246 78 L 229 78 Z M 229 56 " clip-rule="nonzero"/></clipPath><clipPath id="d4c1a28deb"><path d="M 257.039062 78.015625 L 228.550781 77.15625 L 229.183594 56.164062 L 257.671875 57.023438 Z M 257.039062 78.015625 " clip-rule="nonzero"/></clipPath><clipPath id="567342be24"><path d="M 257.039062 78.015625 L 228.550781 77.15625 L 229.183594 56.164062 L 257.671875 57.023438 Z M 257.039062 78.015625 " clip-rule="nonzero"/></clipPath><clipPath id="c7b71c1a03"><path d="M 241 56 L 258 56 L 258 78 L 241 78 Z M 241 56 " clip-rule="nonzero"/></clipPath><clipPath id="3936ebac6d"><path d="M 257.039062 78.015625 L 228.550781 77.15625 L 229.183594 56.164062 L 257.671875 57.023438 Z M 257.039062 78.015625 " clip-rule="nonzero"/></clipPath><clipPath id="2679e3d2ce"><path d="M 257.039062 78.015625 L 228.550781 77.15625 L 229.183594 56.164062 L 257.671875 57.023438 Z M 257.039062 78.015625 " clip-rule="nonzero"/></clipPath><clipPath id="b46eeaba20"><path d="M 192 56 L 209 56 L 209 78 L 192 78 Z M 192 56 " clip-rule="nonzero"/></clipPath><clipPath id="229fd1ea19"><path d="M 220.523438 78.015625 L 192.035156 77.15625 L 192.667969 56.164062 L 221.15625 57.023438 Z M 220.523438 78.015625 " clip-rule="nonzero"/></clipPath><clipPath id="97beb9a817"><path d="M 220.523438 78.015625 L 192.035156 77.15625 L 192.667969 56.164062 L 221.15625 57.023438 Z M 220.523438 78.015625 " clip-rule="nonzero"/></clipPath><clipPath id="74fc6fae58"><path d="M 204 56 L 222 56 L 222 78 L 204 78 Z M 204 56 " clip-rule="nonzero"/></clipPath><clipPath id="481e417f92"><path d="M 220.523438 78.015625 L 192.035156 77.15625 L 192.667969 56.164062 L 221.15625 57.023438 Z M 220.523438 78.015625 " clip-rule="nonzero"/></clipPath><clipPath id="ffb7222d9c"><path d="M 220.523438 78.015625 L 192.035156 77.15625 L 192.667969 56.164062 L 221.15625 57.023438 Z M 220.523438 78.015625 " clip-rule="nonzero"/></clipPath></defs><g clip-path="url(#dbd263e051)"><g clip-path="url(#73969ef351)"><path fill="#737373" d="M 303.75 52.777344 L 303.75 323.039062 L -0.132812 323.039062 L -0.132812 52.777344 Z M 303.75 52.777344 " fill-opacity="1" fill-rule="nonzero"/></g></g><g clip-path="url(#b1791e815f)"><g clip-path="url(#443e69e688)"><path stroke-linecap="butt" transform="matrix(0.000000000000000046, 0.75, -0.75, 0.000000000000000046, 303.749959, 52.777354)" fill="none" stroke-linejoin="miter" d="M 120.062492 394.442673 C 138.520826 400.817674 159.505202 404.999965 180.098953 404.999965 C 200.692704 404.999965 220.505205 401.416632 238.770831 395.041632 C 239.156248 394.838507 239.546873 394.838507 239.937498 394.64059 C 308.515627 369.145797 359.031254 301.81246 360.000004 224.124956 L 360.000004 -0.0000552182 L -0.0000142096 -0.0000552182 L -0.0000142096 223.95829 C 0.973944 302.208294 50.708322 369.54163 120.062492 394.442673 " stroke="#000000" stroke-width="4" stroke-opacity="1" stroke-miterlimit="4"/></g></g><g clip-path="url(#3606b25476)"><g clip-path="url(#76aa1569e5)"><g clip-path="url(#6732489329)"><path fill="#a6a6a6" d="M 185.394531 39.03125 L 289.417969 228.03125 L 100.414062 332.054688 L -3.605469 143.054688 Z M 185.394531 39.03125 " fill-opacity="1" fill-rule="nonzero"/></g></g></g><g clip-path="url(#bac7b476c7)"><g clip-path="url(#c9c531d2bd)"><g clip-path="url(#37be2c34b1)"><g clip-path="url(#778ff82302)"><path stroke-linecap="butt" transform="matrix(0.361633, 0.657055, -0.657055, 0.361633, 185.393343, 39.030453)" fill="none" stroke-linejoin="miter" d="M 143.998003 -0.00152349 C 64.469295 0.000800649 -0.0024923 64.471289 -0.000168163 143.999996 C 0.00215597 223.528703 64.472644 288.000491 144.001351 287.998167 C 223.527547 288.000406 287.999335 223.529918 287.997011 144.00121 C 288.001761 64.470451 223.531273 -0.00133628 143.998003 -0.00152349 " stroke="#000000" stroke-width="8" stroke-opacity="1" stroke-miterlimit="4"/></g></g></g></g><g clip-path="url(#5d52dbcc16)"><g clip-path="url(#42f22e348b)"><g clip-path="url(#c18442b408)"><path fill="#ffde59" d="M 195.480469 143 L 204.355469 158.210938 L 176.785156 174.304688 L 167.90625 159.089844 Z M 195.480469 143 " fill-opacity="1" fill-rule="nonzero"/></g></g></g><g clip-path="url(#9bbf5ddbd2)"><g clip-path="url(#17234e87ca)"><g clip-path="url(#6a3c4075e6)"><path fill="#ffde59" d="M 135.199219 215.957031 L 152.8125 216.070312 L 152.613281 247.992188 L 135 247.882812 Z M 135.199219 215.957031 " fill-opacity="1" fill-rule="nonzero"/></g></g></g><g clip-path="url(#3dc5e53c35)"><g clip-path="url(#b4259a4feb)"><g clip-path="url(#996efda9eb)"><path fill="#ffde59" d="M 80.527344 195.242188 L 122.746094 122.101562 L 186.175781 158.714844 L 143.960938 231.855469 Z M 80.527344 195.242188 " fill-opacity="1" fill-rule="nonzero"/></g></g></g><g clip-path="url(#dee60c6383)"><g clip-path="url(#eb680726f2)"><g clip-path="url(#e8b85efc2a)"><path fill="#ffde59" d="M 90.378906 162.382812 L 99.183594 147.128906 L 126.832031 163.085938 L 118.027344 178.339844 Z M 90.378906 162.382812 " fill-opacity="1" fill-rule="nonzero"/></g></g></g><g clip-path="url(#a28cb34c80)"><g clip-path="url(#1f118e049f)"><g clip-path="url(#b3e1563270)"><path fill="#ffde59" d="M 86.324219 182.625 L 38.804688 153.714844 L 67.710938 106.195312 L 115.230469 135.101562 Z M 86.324219 182.625 " fill-opacity="1" fill-rule="nonzero"/></g></g></g><g clip-path="url(#aaea072593)"><g clip-path="url(#b903199951)"><g clip-path="url(#ff662d16d3)"><g clip-path="url(#7352d947e6)"><path fill="#000000" d="M 64.171875 165.644531 C 68.917969 168.53125 74.042969 169.691406 79.550781 169.125 L 80.164062 175.078125 C 73.320312 175.785156 66.953125 174.34375 61.058594 170.757812 Z M 82.195312 168.707031 C 87.628906 167.550781 92.148438 164.878906 95.757812 160.699219 L 100.292969 164.613281 C 95.804688 169.808594 90.1875 173.125 83.441406 174.5625 Z M 97.390625 158.589844 C 97.667969 158.1875 97.933594 157.777344 98.1875 157.359375 C 100.800781 153.066406 101.996094 148.417969 101.773438 143.421875 L 107.753906 143.152344 C 108.03125 149.367188 106.546875 155.140625 103.304688 160.472656 C 102.988281 160.988281 102.660156 161.496094 102.316406 161.992188 Z M 101.511719 140.757812 C 100.667969 135.261719 98.265625 130.589844 94.300781 126.742188 L 98.472656 122.445312 C 103.398438 127.226562 106.382812 133.027344 107.429688 139.847656 Z M 92.300781 124.996094 C 91.535156 124.402344 90.738281 123.851562 89.90625 123.34375 C 86.050781 121 81.882812 119.796875 77.402344 119.734375 L 77.484375 113.75 C 83.054688 113.824219 88.230469 115.316406 93.015625 118.226562 C 94.046875 118.855469 95.035156 119.539062 95.984375 120.277344 Z M 74.734375 119.84375 C 69.203125 120.363281 64.398438 122.492188 60.324219 126.21875 L 56.28125 121.804688 C 61.34375 117.171875 67.304688 114.53125 74.171875 113.882812 Z M 58.453125 128.132812 C 57.5 129.214844 56.644531 130.382812 55.886719 131.628906 C 53.808594 135.042969 52.628906 138.730469 52.34375 142.691406 L 46.371094 142.261719 C 46.726562 137.339844 48.191406 132.757812 50.773438 128.515625 C 51.710938 126.972656 52.773438 125.527344 53.953125 124.179688 Z M 52.292969 145.359375 C 52.492188 150.910156 54.335938 155.828125 57.824219 160.117188 L 53.179688 163.894531 C 48.847656 158.570312 46.558594 152.460938 46.3125 145.574219 Z M 59.625 162.097656 C 60.992188 163.449219 62.511719 164.632812 64.171875 165.644531 L 61.058594 170.757812 C 59 169.503906 57.117188 168.039062 55.417969 166.359375 Z M 59.625 162.097656 " fill-opacity="1" fill-rule="nonzero"/></g></g></g></g><g clip-path="url(#3824d40d34)"><g clip-path="url(#45bab6651f)"><g clip-path="url(#d84b9dc837)"><path fill="#ffde59" d="M 116.15625 289.660156 L 116.171875 234.039062 L 171.792969 234.050781 L 171.777344 289.675781 Z M 116.15625 289.660156 " fill-opacity="1" fill-rule="nonzero"/></g></g></g><g clip-path="url(#c8accd42fa)"><g clip-path="url(#e77cba18a6)"><g clip-path="url(#1ba71cc645)"><g clip-path="url(#71fe0e096b)"><path fill="#000000" d="M 119.160156 261.910156 C 119.15625 267.464844 120.828125 272.449219 124.175781 276.859375 L 119.402344 280.476562 C 115.246094 274.996094 113.167969 268.804688 113.171875 261.910156 Z M 125.902344 278.898438 C 129.714844 282.941406 134.34375 285.417969 139.792969 286.332031 L 138.804688 292.238281 C 132.03125 291.101562 126.28125 288.027344 121.546875 283.007812 Z M 142.441406 286.628906 C 142.929688 286.660156 143.417969 286.671875 143.90625 286.671875 C 148.933594 286.675781 153.527344 285.28125 157.679688 282.496094 L 161.015625 287.46875 C 155.851562 290.933594 150.148438 292.664062 143.90625 292.660156 C 143.300781 292.660156 142.695312 292.644531 142.09375 292.609375 Z M 159.820312 280.886719 C 164.082031 277.3125 166.824219 272.832031 168.050781 267.445312 L 173.890625 268.777344 C 172.363281 275.46875 168.957031 281.035156 163.671875 285.472656 Z M 168.5 264.828125 C 168.613281 263.867188 168.671875 262.898438 168.671875 261.921875 C 168.671875 257.414062 167.535156 253.226562 165.257812 249.367188 L 170.417969 246.324219 C 173.246094 251.125 174.660156 256.324219 174.660156 261.925781 C 174.65625 263.132812 174.589844 264.332031 174.449219 265.523438 Z M 163.78125 247.140625 C 160.460938 242.6875 156.148438 239.6875 150.847656 238.144531 L 152.519531 232.394531 C 159.109375 234.3125 164.460938 238.035156 168.582031 243.566406 Z M 148.242188 237.535156 C 146.820312 237.285156 145.378906 237.160156 143.921875 237.160156 C 139.921875 237.160156 136.15625 238.066406 132.625 239.878906 L 129.890625 234.550781 C 134.28125 232.296875 138.957031 231.171875 143.921875 231.171875 C 145.730469 231.171875 147.515625 231.328125 149.28125 231.640625 Z M 130.320312 241.222656 C 125.683594 244.277344 122.4375 248.410156 120.582031 253.617188 L 114.941406 251.609375 C 117.242188 245.140625 121.273438 240.011719 127.027344 236.222656 Z M 119.824219 256.183594 C 119.382812 258.054688 119.160156 259.964844 119.160156 261.910156 L 113.171875 261.910156 C 113.171875 259.496094 113.449219 257.128906 114 254.800781 Z M 119.824219 256.183594 " fill-opacity="1" fill-rule="nonzero"/></g></g></g></g><g clip-path="url(#d64cdaa492)"><g clip-path="url(#08595f4c2c)"><g clip-path="url(#e58bf78ffb)"><path fill="#ffde59" d="M 218.019531 184.097656 L 170.5 155.191406 L 199.40625 107.671875 L 246.925781 136.578125 Z M 218.019531 184.097656 " fill-opacity="1" fill-rule="nonzero"/></g></g></g><g clip-path="url(#aec3ac1c35)"><g clip-path="url(#6785e9961b)"><g clip-path="url(#0fd5dad32c)"><g clip-path="url(#a7cfb161db)"><path fill="#000000" d="M 195.867188 167.117188 C 200.613281 170.003906 205.738281 171.164062 211.246094 170.597656 L 211.859375 176.554688 C 205.015625 177.257812 198.648438 175.820312 192.753906 172.234375 Z M 213.886719 170.183594 C 219.324219 169.023438 223.84375 166.355469 227.453125 162.175781 L 231.984375 166.085938 C 227.5 171.285156 221.882812 174.601562 215.136719 176.039062 Z M 229.085938 160.0625 C 229.363281 159.664062 229.628906 159.253906 229.882812 158.835938 C 232.496094 154.539062 233.691406 149.894531 233.46875 144.894531 L 239.449219 144.628906 C 239.726562 150.839844 238.242188 156.613281 235 161.945312 C 234.683594 162.464844 234.355469 162.972656 234.011719 163.46875 Z M 233.207031 142.230469 C 232.363281 136.734375 229.960938 132.0625 225.996094 128.214844 L 230.167969 123.917969 C 235.09375 128.699219 238.078125 134.503906 239.125 141.324219 Z M 223.992188 126.472656 C 223.230469 125.875 222.433594 125.324219 221.597656 124.816406 C 217.746094 122.472656 213.578125 121.273438 209.097656 121.210938 L 209.179688 115.222656 C 214.75 115.300781 219.925781 116.792969 224.710938 119.703125 C 225.742188 120.332031 226.730469 121.011719 227.679688 121.753906 Z M 206.429688 121.316406 C 200.894531 121.839844 196.09375 123.964844 192.019531 127.695312 L 187.976562 123.28125 C 193.039062 118.644531 199 116.003906 205.867188 115.355469 Z M 190.148438 129.605469 C 189.195312 130.691406 188.339844 131.855469 187.582031 133.101562 C 185.503906 136.519531 184.320312 140.207031 184.035156 144.164062 L 178.066406 143.734375 C 178.417969 138.8125 179.886719 134.234375 182.46875 129.992188 C 183.40625 128.449219 184.464844 127.003906 185.648438 125.65625 Z M 183.988281 146.832031 C 184.1875 152.382812 186.03125 157.304688 189.519531 161.59375 L 184.875 165.371094 C 180.542969 160.042969 178.253906 153.9375 178.003906 147.050781 Z M 191.320312 163.574219 C 192.6875 164.925781 194.203125 166.109375 195.867188 167.117188 L 192.753906 172.234375 C 190.695312 170.980469 188.8125 169.515625 187.113281 167.832031 Z M 191.320312 163.574219 " fill-opacity="1" fill-rule="nonzero"/></g></g></g></g><g clip-path="url(#2112f85999)"><g clip-path="url(#5a8d2008ed)"><g clip-path="url(#a8139fe865)"><path fill="#707070" d="M 67.484375 146.96875 L 74.464844 134.878906 L 86.554688 141.859375 L 79.574219 153.949219 Z M 67.484375 146.96875 " fill-opacity="1" fill-rule="nonzero"/></g></g></g><g clip-path="url(#5f036f1895)"><g clip-path="url(#1b86dbd5d4)"><g clip-path="url(#5eb2bd2c2a)"><path fill="#707070" d="M 136.996094 254.878906 L 150.953125 254.882812 L 150.949219 268.84375 L 136.992188 268.839844 Z M 136.996094 254.878906 " fill-opacity="1" fill-rule="nonzero"/></g></g></g><g clip-path="url(#582146a33f)"><g clip-path="url(#d343715991)"><g clip-path="url(#f7df045616)"><path fill="#707070" d="M 198.640625 147.554688 L 205.621094 135.464844 L 217.710938 142.445312 L 210.730469 154.535156 Z M 198.640625 147.554688 " fill-opacity="1" fill-rule="nonzero"/></g></g></g><g clip-path="url(#ddc2a387e0)"><g clip-path="url(#7bf8d9a61f)"><g clip-path="url(#8c2f52dbdf)"><g clip-path="url(#23570e8d1e)"><path fill="#ffffff" d="M 167.890625 123.238281 C 167.910156 123.203125 167.910156 123.164062 167.894531 123.128906 C 167.976562 123.007812 168.199219 123.074219 168.21875 122.871094 C 168.507812 122.523438 168.359375 122.207031 168.140625 121.902344 C 167.53125 121.046875 166.796875 120.308594 166.019531 119.617188 C 163.226562 117.136719 160.050781 115.363281 156.535156 114.136719 C 150.394531 111.996094 144.265625 112.167969 138.132812 114.023438 C 135.289062 114.882812 132.648438 116.230469 130.070312 117.699219 C 128.554688 118.5625 127.097656 119.515625 125.617188 120.4375 C 125.578125 120.492188 125.539062 120.550781 125.5 120.605469 C 125.425781 120.617188 125.339844 120.648438 125.277344 120.628906 C 125.277344 120.628906 125.277344 120.628906 125.273438 120.625 C 125.222656 120.605469 125.25 120.535156 125.304688 120.5 C 125.550781 119.855469 125.921875 119.289062 126.324219 118.738281 C 126.601562 118.363281 126.839844 117.976562 126.960938 117.523438 C 127.5625 116.71875 127.511719 115.917969 126.859375 115.277344 C 125.074219 116.160156 124.078125 117.742188 123.195312 119.433594 C 122.867188 120.066406 122.5 120.667969 122.140625 121.28125 C 121.273438 122.742188 121.480469 122.578125 122.140625 123.800781 C 122.285156 124.070312 122.492188 124.304688 122.722656 124.515625 C 122.804688 124.59375 122.890625 124.65625 123.011719 124.648438 C 123.195312 124.949219 123.488281 124.925781 123.773438 124.890625 C 124.621094 124.785156 125.460938 124.667969 126.308594 124.550781 C 126.492188 124.636719 126.675781 124.589844 126.855469 124.535156 C 127.039062 124.625 127.222656 124.574219 127.40625 124.53125 C 127.527344 124.617188 127.660156 124.570312 127.789062 124.578125 C 129.535156 124.667969 131.242188 124.957031 132.898438 125.542969 C 133.023438 125.585938 133.152344 125.617188 133.277344 125.65625 C 133.429688 125.703125 133.597656 125.757812 133.703125 125.609375 C 133.777344 125.5 133.738281 125.3125 133.652344 125.234375 C 133.28125 124.878906 133.183594 124.351562 132.855469 123.980469 C 132.707031 123.8125 132.507812 123.71875 132.300781 123.628906 C 130.710938 122.925781 129.046875 122.527344 127.335938 122.300781 C 127.183594 122.277344 127.023438 122.28125 126.878906 122.230469 C 126.714844 122.171875 126.746094 122.03125 126.816406 121.902344 C 126.992188 121.90625 127.109375 121.824219 127.175781 121.664062 C 127.335938 121.636719 127.492188 121.601562 127.558594 121.421875 C 127.601562 121.4375 127.625 121.421875 127.632812 121.378906 C 127.789062 121.359375 127.929688 121.3125 127.996094 121.152344 C 128.101562 121.117188 128.207031 121.09375 128.300781 121.039062 C 129.328125 120.445312 130.347656 119.835938 131.378906 119.257812 C 132.316406 118.730469 133.269531 118.234375 134.21875 117.726562 C 134.484375 117.621094 134.753906 117.527344 135.011719 117.414062 C 137.554688 116.324219 140.183594 115.558594 142.925781 115.195312 C 143.902344 115.066406 144.882812 114.96875 145.863281 114.855469 C 146.058594 114.945312 146.25 114.886719 146.4375 114.828125 C 146.625 114.917969 146.804688 114.867188 146.984375 114.816406 C 147.15625 114.914062 147.324219 114.851562 147.496094 114.816406 C 147.601562 114.894531 147.710938 114.878906 147.820312 114.828125 C 147.863281 114.851562 147.902344 114.851562 147.9375 114.820312 C 148.058594 114.902344 148.191406 114.859375 148.320312 114.867188 C 148.949219 114.921875 149.585938 114.859375 150.207031 114.992188 C 150.257812 114.933594 150.433594 114.894531 150.207031 114.820312 C 150.054688 114.769531 150.042969 114.726562 150.078125 114.683594 C 150.113281 114.648438 150.179688 114.617188 150.230469 114.585938 C 152.214844 114.816406 154.144531 115.28125 156.050781 115.878906 C 156.21875 115.953125 156.394531 116.023438 156.566406 116.09375 C 157.589844 116.523438 158.617188 116.953125 159.640625 117.382812 C 159.664062 117.421875 159.695312 117.449219 159.730469 117.460938 C 159.753906 117.46875 159.78125 117.472656 159.8125 117.46875 C 159.847656 117.535156 159.90625 117.5625 159.980469 117.554688 C 160.015625 117.621094 160.070312 117.648438 160.144531 117.640625 C 160.179688 117.710938 160.238281 117.734375 160.3125 117.726562 C 160.347656 117.796875 160.402344 117.828125 160.480469 117.8125 C 160.511719 117.886719 160.566406 117.914062 160.644531 117.902344 L 160.644531 117.90625 C 160.675781 117.972656 160.730469 118.003906 160.804688 117.992188 L 160.808594 117.996094 C 160.859375 118.027344 160.914062 118.058594 160.96875 118.085938 L 160.972656 118.089844 C 161.003906 118.160156 161.054688 118.1875 161.132812 118.179688 L 161.136719 118.183594 C 161.167969 118.253906 161.222656 118.285156 161.296875 118.273438 L 161.304688 118.277344 C 161.332031 118.347656 161.386719 118.378906 161.460938 118.367188 L 161.464844 118.371094 C 161.496094 118.441406 161.546875 118.472656 161.625 118.460938 L 161.625 118.464844 C 161.65625 118.535156 161.710938 118.566406 161.789062 118.558594 C 162.265625 118.886719 162.742188 119.210938 163.222656 119.535156 C 163.523438 119.625 163.742188 119.847656 163.984375 120.03125 C 163.980469 120.066406 163.96875 120.09375 163.949219 120.121094 C 163.925781 120.164062 163.886719 120.191406 163.835938 120.214844 C 164.007812 120.371094 164.164062 120.542969 164.390625 120.613281 C 164.464844 120.625 164.53125 120.652344 164.585938 120.703125 C 164.523438 120.671875 164.457031 120.640625 164.390625 120.613281 C 164.4375 120.671875 164.484375 120.726562 164.566406 120.707031 C 164.597656 120.820312 164.675781 120.882812 164.78125 120.914062 C 164.800781 120.988281 164.84375 121.03125 164.921875 121.027344 C 164.960938 121.09375 165.007812 121.144531 165.089844 121.148438 C 165.101562 121.183594 165.125 121.210938 165.164062 121.222656 C 165.300781 121.40625 165.46875 121.550781 165.671875 121.65625 C 165.777344 121.777344 165.875 121.90625 166.035156 121.964844 C 166.070312 122.070312 166.160156 122.117188 166.246094 122.171875 C 166.65625 122.660156 167.148438 123.074219 167.480469 123.667969 C 167.617188 123.46875 167.875 123.480469 167.890625 123.238281 Z M 127.597656 121.25 C 127.601562 121.25 127.601562 121.25 127.601562 121.25 C 127.601562 121.25 127.605469 121.25 127.605469 121.25 C 127.605469 121.25 127.601562 121.25 127.601562 121.25 C 127.601562 121.253906 127.601562 121.253906 127.605469 121.253906 C 127.601562 121.253906 127.601562 121.253906 127.597656 121.25 Z M 161.613281 118.03125 C 161.601562 118.023438 161.59375 118.011719 161.582031 118.003906 C 161.585938 118.003906 161.589844 118.003906 161.589844 118.007812 C 161.601562 118.011719 161.613281 118.019531 161.625 118.027344 C 161.625 118.027344 161.621094 118.03125 161.613281 118.03125 Z M 159.652344 117.382812 C 159.652344 117.378906 159.652344 117.378906 159.652344 117.378906 C 159.65625 117.375 159.65625 117.367188 159.660156 117.363281 L 159.671875 117.351562 L 159.652344 117.378906 C 159.652344 117.382812 159.65625 117.382812 159.65625 117.382812 C 159.65625 117.382812 159.652344 117.382812 159.652344 117.382812 Z M 161.675781 118 C 161.660156 118.011719 161.644531 118.019531 161.628906 118.023438 C 161.617188 118.019531 161.605469 118.011719 161.59375 118.007812 C 161.621094 118.015625 161.648438 118.015625 161.675781 118 Z M 161.523438 117.960938 C 161.507812 117.953125 161.496094 117.945312 161.484375 117.9375 C 161.484375 117.9375 161.484375 117.9375 161.484375 117.933594 C 161.496094 117.945312 161.507812 117.953125 161.523438 117.960938 Z M 167.453125 122.109375 C 167.457031 122.109375 167.457031 122.109375 167.460938 122.109375 C 167.460938 122.109375 167.460938 122.113281 167.460938 122.113281 C 167.460938 122.113281 167.464844 122.117188 167.464844 122.117188 C 167.460938 122.117188 167.457031 122.113281 167.453125 122.109375 Z M 167.273438 121.894531 C 167.273438 121.890625 167.273438 121.886719 167.269531 121.882812 C 167.269531 121.886719 167.273438 121.890625 167.273438 121.894531 Z M 164.699219 120.703125 C 164.710938 120.699219 164.722656 120.691406 164.734375 120.679688 C 164.738281 120.6875 164.742188 120.695312 164.742188 120.703125 C 164.730469 120.703125 164.714844 120.707031 164.699219 120.703125 Z M 165.046875 121.066406 C 165.066406 121.078125 165.082031 121.097656 165.09375 121.125 C 165.078125 121.101562 165.066406 121.082031 165.046875 121.066406 Z M 165.046875 121.066406 " fill-opacity="1" fill-rule="nonzero"/></g></g></g></g><g clip-path="url(#5bd69dfacf)"><g clip-path="url(#d2414e7cb4)"><g clip-path="url(#b9163d1e80)"><g clip-path="url(#f104797b26)"><path fill="#ffffff" d="M 160.980469 118.089844 C 160.925781 118.058594 160.871094 118.027344 160.820312 117.996094 C 160.851562 118.070312 160.90625 118.097656 160.980469 118.089844 Z M 160.980469 118.089844 " fill-opacity="1" fill-rule="nonzero"/></g></g></g></g><g clip-path="url(#a06e8fa04f)"><g clip-path="url(#c07fb4d86c)"><g clip-path="url(#be842472bd)"><g clip-path="url(#e0368b86ed)"><path fill="#ffffff" d="M 185.386719 233.089844 C 185.40625 233.128906 185.433594 233.152344 185.476562 233.15625 C 185.523438 233.292969 185.34375 233.4375 185.5 233.570312 C 185.617188 234.007812 185.960938 234.066406 186.335938 234.066406 C 187.382812 234.058594 188.410156 233.882812 189.425781 233.644531 C 193.0625 232.789062 196.339844 231.214844 199.367188 229.042969 C 204.652344 225.253906 208.035156 220.144531 210.050781 214.0625 C 210.984375 211.242188 211.402344 208.308594 211.683594 205.355469 C 211.851562 203.617188 211.910156 201.875 212.011719 200.136719 C 211.988281 200.070312 211.964844 200.007812 211.941406 199.941406 C 211.976562 199.875 211.996094 199.789062 212.050781 199.746094 C 212.050781 199.746094 212.050781 199.746094 212.054688 199.746094 C 212.097656 199.714844 212.144531 199.78125 212.140625 199.84375 C 212.523438 200.414062 212.773438 201.046875 212.992188 201.691406 C 213.140625 202.132812 213.316406 202.550781 213.621094 202.914062 C 213.933594 203.867188 214.613281 204.289062 215.515625 204.121094 C 215.820312 202.152344 215.097656 200.429688 214.222656 198.734375 C 213.898438 198.101562 213.617188 197.453125 213.324219 196.804688 C 212.625 195.257812 212.636719 195.519531 211.261719 195.355469 C 210.957031 195.320312 210.644531 195.355469 210.339844 195.421875 C 210.230469 195.445312 210.128906 195.476562 210.066406 195.582031 C 209.714844 195.558594 209.5625 195.8125 209.429688 196.066406 C 209.03125 196.816406 208.640625 197.574219 208.25 198.332031 C 208.074219 198.433594 208.007812 198.609375 207.945312 198.789062 C 207.769531 198.890625 207.703125 199.066406 207.632812 199.242188 C 207.492188 199.289062 207.453125 199.429688 207.375 199.53125 C 206.292969 200.902344 205.074219 202.132812 203.644531 203.152344 C 203.535156 203.230469 203.4375 203.316406 203.332031 203.394531 C 203.207031 203.492188 203.066406 203.597656 203.125 203.769531 C 203.171875 203.894531 203.347656 203.96875 203.460938 203.945312 C 203.964844 203.847656 204.453125 204.070312 204.949219 204.015625 C 205.167969 203.992188 205.359375 203.878906 205.550781 203.761719 C 207.042969 202.867188 208.328125 201.738281 209.5 200.46875 C 209.601562 200.355469 209.691406 200.222656 209.816406 200.136719 C 209.960938 200.035156 210.058594 200.140625 210.121094 200.273438 C 210.015625 200.414062 210.015625 200.558594 210.109375 200.703125 C 210.039062 200.851562 209.980469 201 210.089844 201.15625 C 210.050781 201.179688 210.046875 201.210938 210.078125 201.242188 C 210.007812 201.378906 209.964844 201.519531 210.054688 201.671875 C 210.027344 201.773438 209.984375 201.878906 209.972656 201.984375 C 209.867188 203.164062 209.777344 204.347656 209.660156 205.527344 C 209.550781 206.597656 209.40625 207.664062 209.277344 208.730469 C 209.210938 209.007812 209.128906 209.28125 209.074219 209.558594 C 208.503906 212.261719 207.613281 214.855469 206.332031 217.304688 C 205.875 218.179688 205.394531 219.039062 204.921875 219.90625 C 204.734375 220.015625 204.675781 220.203125 204.609375 220.390625 C 204.429688 220.488281 204.371094 220.667969 204.308594 220.84375 C 204.128906 220.925781 204.082031 221.101562 204.011719 221.261719 C 203.890625 221.304688 203.839844 221.402344 203.816406 221.519531 C 203.773438 221.539062 203.75 221.574219 203.753906 221.621094 C 203.617188 221.671875 203.578125 221.808594 203.496094 221.90625 C 203.089844 222.390625 202.773438 222.945312 202.308594 223.378906 C 202.324219 223.453125 202.257812 223.621094 202.449219 223.476562 C 202.578125 223.382812 202.621094 223.398438 202.632812 223.449219 C 202.644531 223.496094 202.628906 223.574219 202.628906 223.632812 C 201.296875 225.121094 199.804688 226.429688 198.21875 227.644531 C 198.0625 227.742188 197.90625 227.84375 197.746094 227.941406 C 196.804688 228.53125 195.863281 229.125 194.925781 229.714844 C 194.878906 229.710938 194.839844 229.722656 194.808594 229.742188 C 194.785156 229.757812 194.769531 229.777344 194.753906 229.804688 C 194.679688 229.796875 194.625 229.828125 194.589844 229.894531 C 194.511719 229.882812 194.457031 229.914062 194.421875 229.980469 C 194.347656 229.96875 194.292969 230 194.257812 230.066406 C 194.179688 230.054688 194.121094 230.082031 194.089844 230.152344 C 194.011719 230.136719 193.957031 230.167969 193.921875 230.234375 L 193.917969 230.238281 C 193.84375 230.222656 193.789062 230.25 193.753906 230.316406 L 193.75 230.320312 C 193.695312 230.339844 193.640625 230.367188 193.585938 230.398438 L 193.578125 230.398438 C 193.503906 230.382812 193.449219 230.410156 193.414062 230.476562 L 193.40625 230.480469 C 193.332031 230.464844 193.277344 230.488281 193.242188 230.558594 L 193.238281 230.5625 C 193.238281 230.5625 193.234375 230.5625 193.234375 230.5625 C 193.234375 230.5625 193.238281 230.5625 193.238281 230.5625 C 193.160156 230.542969 193.105469 230.570312 193.070312 230.636719 L 193.066406 230.640625 C 192.992188 230.621094 192.933594 230.648438 192.898438 230.71875 C 192.820312 230.703125 192.761719 230.726562 192.726562 230.792969 C 192.183594 230.996094 191.644531 231.199219 191.101562 231.402344 C 190.855469 231.597656 190.546875 231.652344 190.257812 231.746094 C 190.230469 231.71875 190.214844 231.691406 190.203125 231.664062 C 190.183594 231.617188 190.179688 231.570312 190.195312 231.519531 C 189.96875 231.566406 189.738281 231.597656 189.546875 231.742188 C 189.496094 231.792969 189.4375 231.832031 189.363281 231.847656 C 189.421875 231.8125 189.488281 231.78125 189.546875 231.742188 C 189.472656 231.742188 189.402344 231.753906 189.371094 231.832031 C 189.261719 231.789062 189.164062 231.816406 189.078125 231.886719 C 189.003906 231.859375 188.945312 231.871094 188.902344 231.9375 C 188.828125 231.929688 188.757812 231.9375 188.710938 232.003906 C 188.671875 231.996094 188.636719 231.996094 188.605469 232.023438 C 188.375 232.03125 188.160156 232.082031 187.960938 232.1875 C 187.796875 232.203125 187.636719 232.210938 187.496094 232.304688 C 187.390625 232.277344 187.296875 232.324219 187.207031 232.359375 C 186.570312 232.414062 185.949219 232.582031 185.273438 232.507812 C 185.355469 232.734375 185.199219 232.9375 185.386719 233.089844 Z M 210.203125 201.289062 C 210.203125 201.292969 210.203125 201.289062 210.203125 201.289062 C 210.203125 201.292969 210.203125 201.292969 210.203125 201.292969 C 210.203125 201.292969 210.203125 201.289062 210.203125 201.289062 C 210.199219 201.289062 210.199219 201.289062 210.195312 201.289062 C 210.199219 201.289062 210.203125 201.289062 210.203125 201.289062 Z M 193.257812 230.957031 C 193.269531 230.953125 193.285156 230.949219 193.300781 230.945312 C 193.296875 230.949219 193.292969 230.949219 193.289062 230.953125 C 193.277344 230.957031 193.269531 230.960938 193.253906 230.96875 C 193.253906 230.964844 193.253906 230.960938 193.257812 230.957031 Z M 194.917969 229.726562 C 194.921875 229.726562 194.917969 229.726562 194.921875 229.726562 C 194.921875 229.734375 194.925781 229.738281 194.925781 229.742188 L 194.933594 229.757812 L 194.917969 229.726562 C 194.917969 229.726562 194.917969 229.726562 194.914062 229.726562 C 194.917969 229.726562 194.917969 229.726562 194.917969 229.726562 Z M 193.246094 231.023438 C 193.25 231.007812 193.25 230.988281 193.253906 230.972656 C 193.265625 230.964844 193.277344 230.960938 193.289062 230.953125 C 193.265625 230.96875 193.25 230.992188 193.246094 231.023438 Z M 193.367188 230.921875 C 193.382812 230.914062 193.394531 230.910156 193.40625 230.90625 C 193.410156 230.90625 193.410156 230.902344 193.410156 230.90625 C 193.394531 230.910156 193.382812 230.914062 193.367188 230.921875 Z M 186.5625 233.386719 C 186.558594 233.386719 186.558594 233.386719 186.558594 233.390625 C 186.558594 233.390625 186.554688 233.390625 186.554688 233.390625 C 186.554688 233.386719 186.550781 233.390625 186.550781 233.386719 C 186.550781 233.386719 186.554688 233.386719 186.5625 233.386719 Z M 186.84375 233.359375 C 186.847656 233.363281 186.847656 233.363281 186.851562 233.363281 C 186.847656 233.359375 186.84375 233.363281 186.84375 233.359375 Z M 189.292969 231.941406 C 189.292969 231.953125 189.292969 231.96875 189.296875 231.984375 C 189.289062 231.980469 189.277344 231.980469 189.269531 231.976562 C 189.277344 231.964844 189.285156 231.953125 189.292969 231.941406 Z M 188.800781 232.015625 C 188.777344 232.027344 188.753906 232.027344 188.726562 232.019531 C 188.753906 232.023438 188.777344 232.023438 188.800781 232.015625 Z M 188.800781 232.015625 " fill-opacity="1" fill-rule="nonzero"/></g></g></g></g><g clip-path="url(#a7bcc58dcc)"><g clip-path="url(#96c37700ff)"><g clip-path="url(#5ac93366ce)"><g clip-path="url(#e1645cfef1)"><path fill="#ffffff" d="M 193.578125 230.402344 C 193.632812 230.378906 193.6875 230.351562 193.742188 230.328125 C 193.664062 230.308594 193.613281 230.335938 193.578125 230.402344 Z M 193.578125 230.402344 " fill-opacity="1" fill-rule="nonzero"/></g></g></g></g><g clip-path="url(#5ad1216609)"><g clip-path="url(#1025987715)"><g clip-path="url(#75283beab0)"><g clip-path="url(#240a723adf)"><path fill="#ffffff" d="M 82.691406 195.289062 C 82.652344 195.28125 82.617188 195.292969 82.589844 195.324219 C 82.449219 195.285156 82.433594 195.054688 82.234375 195.105469 C 81.808594 194.953125 81.566406 195.203125 81.351562 195.511719 C 80.757812 196.378906 80.316406 197.320312 79.933594 198.292969 C 78.566406 201.765625 77.992188 205.359375 78.050781 209.082031 C 78.152344 215.585938 80.421875 221.277344 84.269531 226.398438 C 86.054688 228.773438 88.226562 230.789062 90.496094 232.707031 C 91.828125 233.832031 93.222656 234.875 94.597656 235.949219 C 94.664062 235.96875 94.730469 235.984375 94.796875 236 C 94.832031 236.066406 94.890625 236.132812 94.894531 236.203125 C 94.894531 236.203125 94.894531 236.203125 94.890625 236.207031 C 94.890625 236.257812 94.8125 236.257812 94.765625 236.222656 C 94.074219 236.210938 93.414062 236.058594 92.757812 235.867188 C 92.3125 235.738281 91.867188 235.644531 91.398438 235.6875 C 90.4375 235.402344 89.699219 235.722656 89.324219 236.558594 C 90.765625 237.929688 92.59375 238.320312 94.488281 238.566406 C 95.191406 238.65625 95.886719 238.796875 96.585938 238.925781 C 98.253906 239.234375 98.03125 239.09375 98.949219 238.058594 C 99.15625 237.828125 99.304688 237.550781 99.421875 237.265625 C 99.46875 237.160156 99.496094 237.058594 99.445312 236.949219 C 99.664062 236.671875 99.542969 236.402344 99.414062 236.148438 C 99.023438 235.390625 98.621094 234.640625 98.222656 233.886719 C 98.238281 233.683594 98.132812 233.527344 98.019531 233.375 C 98.039062 233.171875 97.929688 233.019531 97.828125 232.859375 C 97.867188 232.71875 97.777344 232.605469 97.738281 232.484375 C 97.222656 230.8125 96.90625 229.109375 96.886719 227.355469 C 96.882812 227.222656 96.871094 227.089844 96.863281 226.957031 C 96.855469 226.800781 96.851562 226.625 96.675781 226.578125 C 96.542969 226.542969 96.382812 226.644531 96.335938 226.753906 C 96.132812 227.222656 95.671875 227.496094 95.433594 227.933594 C 95.328125 228.128906 95.3125 228.351562 95.296875 228.574219 C 95.183594 230.308594 95.382812 232.007812 95.753906 233.695312 C 95.789062 233.84375 95.847656 233.992188 95.847656 234.144531 C 95.847656 234.324219 95.703125 234.339844 95.558594 234.320312 C 95.503906 234.152344 95.386719 234.070312 95.214844 234.0625 C 95.132812 233.921875 95.042969 233.789062 94.855469 233.785156 C 94.855469 233.742188 94.832031 233.722656 94.789062 233.730469 C 94.714844 233.59375 94.625 233.476562 94.449219 233.464844 C 94.382812 233.382812 94.320312 233.289062 94.238281 233.222656 C 93.328125 232.460938 92.40625 231.714844 91.507812 230.941406 C 90.691406 230.242188 89.894531 229.519531 89.09375 228.804688 C 88.902344 228.589844 88.722656 228.371094 88.527344 228.164062 C 86.632812 226.152344 85.007812 223.945312 83.726562 221.496094 C 83.265625 220.625 82.835938 219.734375 82.394531 218.855469 C 82.410156 218.640625 82.289062 218.484375 82.171875 218.324219 C 82.195312 218.121094 82.082031 217.96875 81.972656 217.816406 C 82.003906 217.621094 81.886719 217.484375 81.796875 217.335938 C 81.832031 217.210938 81.78125 217.113281 81.695312 217.027344 C 81.703125 216.980469 81.691406 216.945312 81.648438 216.917969 C 81.683594 216.777344 81.597656 216.667969 81.5625 216.542969 C 81.394531 215.933594 81.121094 215.359375 81.027344 214.726562 C 80.957031 214.699219 80.859375 214.550781 80.867188 214.789062 C 80.871094 214.949219 80.835938 214.976562 80.785156 214.953125 C 80.742188 214.9375 80.6875 214.882812 80.640625 214.847656 C 80.171875 212.90625 79.949219 210.929688 79.855469 208.9375 C 79.863281 208.753906 79.871094 208.566406 79.878906 208.378906 C 79.929688 207.269531 79.980469 206.160156 80.03125 205.050781 C 80.0625 205.015625 80.074219 204.976562 80.074219 204.9375 C 80.074219 204.910156 80.066406 204.886719 80.054688 204.859375 C 80.105469 204.800781 80.109375 204.738281 80.078125 204.671875 C 80.128906 204.617188 80.132812 204.554688 80.097656 204.484375 C 80.152344 204.429688 80.15625 204.367188 80.121094 204.300781 C 80.175781 204.242188 80.183594 204.179688 80.148438 204.113281 C 80.203125 204.058594 80.210938 203.996094 80.175781 203.929688 L 80.175781 203.925781 C 80.230469 203.875 80.242188 203.8125 80.203125 203.746094 L 80.203125 203.742188 C 80.21875 203.683594 80.226562 203.621094 80.234375 203.5625 L 80.234375 203.554688 C 80.289062 203.5 80.300781 203.441406 80.265625 203.375 L 80.265625 203.367188 C 80.320312 203.316406 80.332031 203.253906 80.296875 203.1875 L 80.296875 203.179688 C 80.296875 203.179688 80.300781 203.179688 80.300781 203.179688 C 80.300781 203.179688 80.296875 203.179688 80.296875 203.179688 C 80.355469 203.128906 80.367188 203.066406 80.332031 203 L 80.332031 202.996094 C 80.386719 202.945312 80.398438 202.882812 80.363281 202.816406 L 80.363281 202.8125 C 80.421875 202.757812 80.433594 202.695312 80.398438 202.628906 C 80.539062 202.066406 80.679688 201.507812 80.820312 200.945312 C 80.804688 200.632812 80.933594 200.347656 81.023438 200.058594 C 81.058594 200.050781 81.089844 200.054688 81.121094 200.058594 C 81.167969 200.070312 81.210938 200.09375 81.246094 200.136719 C 81.335938 199.921875 81.441406 199.714844 81.429688 199.476562 C 81.417969 199.40625 81.417969 199.332031 81.449219 199.261719 C 81.441406 199.332031 81.433594 199.40625 81.429688 199.476562 C 81.472656 199.414062 81.503906 199.351562 81.457031 199.28125 C 81.554688 199.214844 81.585938 199.121094 81.578125 199.007812 C 81.640625 198.964844 81.667969 198.910156 81.636719 198.835938 C 81.6875 198.777344 81.71875 198.714844 81.691406 198.636719 C 81.722656 198.613281 81.738281 198.582031 81.738281 198.542969 C 81.863281 198.351562 81.941406 198.144531 81.96875 197.917969 C 82.050781 197.777344 82.136719 197.636719 82.136719 197.46875 C 82.21875 197.398438 82.234375 197.296875 82.257812 197.199219 C 82.578125 196.648438 82.792969 196.042969 83.234375 195.527344 C 83.003906 195.46875 82.925781 195.222656 82.691406 195.289062 Z M 94.679688 233.808594 C 94.679688 233.804688 94.679688 233.804688 94.679688 233.804688 C 94.675781 233.804688 94.675781 233.804688 94.675781 233.804688 C 94.675781 233.804688 94.675781 233.800781 94.675781 233.800781 C 94.675781 233.800781 94.679688 233.804688 94.679688 233.804688 C 94.679688 233.804688 94.679688 233.800781 94.683594 233.800781 C 94.683594 233.804688 94.679688 233.804688 94.679688 233.808594 Z M 79.960938 202.972656 C 79.957031 202.984375 79.953125 203 79.945312 203.015625 C 79.945312 203.011719 79.945312 203.007812 79.945312 203.003906 C 79.949219 202.988281 79.949219 202.976562 79.953125 202.964844 C 79.953125 202.964844 79.957031 202.96875 79.960938 202.972656 Z M 80.027344 205.039062 C 80.023438 205.039062 80.023438 205.039062 80.023438 205.039062 C 80.019531 205.039062 80.011719 205.039062 80.007812 205.039062 L 79.992188 205.03125 L 80.023438 205.039062 C 80.027344 205.039062 80.023438 205.035156 80.027344 205.035156 C 80.023438 205.035156 80.027344 205.039062 80.027344 205.039062 Z M 79.910156 202.925781 C 79.925781 202.9375 79.9375 202.949219 79.949219 202.960938 C 79.949219 202.972656 79.945312 202.988281 79.945312 203 C 79.945312 202.972656 79.933594 202.945312 79.910156 202.925781 Z M 79.925781 203.082031 C 79.925781 203.097656 79.921875 203.113281 79.917969 203.125 C 79.917969 203.125 79.917969 203.128906 79.914062 203.128906 C 79.921875 203.113281 79.925781 203.097656 79.925781 203.082031 Z M 81.78125 196.085938 C 81.78125 196.085938 81.78125 196.082031 81.78125 196.082031 C 81.78125 196.082031 81.78125 196.078125 81.78125 196.078125 C 81.785156 196.078125 81.785156 196.074219 81.785156 196.074219 C 81.785156 196.078125 81.785156 196.082031 81.78125 196.085938 Z M 81.640625 196.332031 C 81.640625 196.332031 81.636719 196.335938 81.636719 196.339844 C 81.640625 196.335938 81.640625 196.332031 81.640625 196.332031 Z M 81.410156 199.15625 C 81.402344 199.144531 81.390625 199.136719 81.375 199.132812 C 81.382812 199.125 81.390625 199.121094 81.394531 199.117188 C 81.402344 199.128906 81.40625 199.140625 81.410156 199.15625 Z M 81.632812 198.707031 C 81.636719 198.683594 81.648438 198.660156 81.667969 198.640625 C 81.667969 198.640625 81.667969 198.640625 81.671875 198.644531 C 81.652344 198.664062 81.636719 198.683594 81.632812 198.707031 Z M 81.632812 198.707031 " fill-opacity="1" fill-rule="nonzero"/></g></g></g></g><g clip-path="url(#83b1327c26)"><g clip-path="url(#db72669794)"><g clip-path="url(#405515999e)"><g clip-path="url(#4169256bd0)"><path fill="#ffffff" d="M 80.234375 203.550781 C 80.222656 203.609375 80.214844 203.671875 80.203125 203.730469 C 80.257812 203.675781 80.269531 203.617188 80.234375 203.550781 Z M 80.234375 203.550781 " fill-opacity="1" fill-rule="nonzero"/></g></g></g></g><path stroke-linecap="butt" transform="matrix(0.74987, 0.00605191, -0.00605275, 0.749976, 136.490312, 77.86835)" fill="none" stroke-linejoin="miter" d="M -0.00220425 1.998534 L 223.03636 2.000873 " stroke="#000000" stroke-width="4" stroke-opacity="1" stroke-miterlimit="4"/><path stroke-linecap="butt" transform="matrix(0.750617, -0.00364086, 0.00363783, 0.749991, 135.126205, 291.168461)" fill="none" stroke-linejoin="miter" d="M -0.000887049 1.999363 L 224.814281 2.002183 " stroke="#000000" stroke-width="4" stroke-opacity="1" stroke-miterlimit="4"/><g clip-path="url(#d26261a166)"><path fill="#38b6ff" d="M 294.695312 306.992188 L 286.203125 297.5 C 286.019531 297.296875 285.765625 297.183594 285.5 297.183594 L 279.835938 297.183594 C 279.464844 297.183594 279.128906 297.402344 278.972656 297.746094 C 278.824219 298.089844 278.886719 298.488281 279.136719 298.765625 L 287.058594 307.628906 L 279.136719 316.484375 C 278.886719 316.765625 278.820312 317.164062 278.972656 317.507812 C 279.128906 317.851562 279.464844 318.070312 279.835938 318.070312 L 285.5 318.070312 C 285.765625 318.070312 286.019531 317.953125 286.203125 317.757812 L 294.695312 308.261719 C 295.015625 307.902344 295.015625 307.351562 294.695312 306.992188 Z M 294.695312 306.992188 " fill-opacity="1" fill-rule="nonzero"/></g><g clip-path="url(#ade96790f5)"><path fill="#38b6ff" d="M 282.425781 306.992188 L 273.933594 297.5 C 273.75 297.296875 273.5 297.183594 273.230469 297.183594 L 267.570312 297.183594 C 267.195312 297.183594 266.859375 297.402344 266.707031 297.746094 C 266.554688 298.089844 266.617188 298.488281 266.867188 298.765625 L 274.792969 307.628906 L 266.867188 316.484375 C 266.617188 316.765625 266.554688 317.164062 266.707031 317.507812 C 266.859375 317.851562 267.195312 318.070312 267.570312 318.070312 L 273.230469 318.070312 C 273.5 318.070312 273.75 317.953125 273.933594 317.757812 L 282.425781 308.261719 C 282.75 307.902344 282.75 307.351562 282.425781 306.992188 Z M 282.425781 306.992188 " fill-opacity="1" fill-rule="nonzero"/></g><g clip-path="url(#218d65e687)"><path fill="#5ce1e6" d="M 257.570312 306.992188 L 249.078125 297.5 C 248.894531 297.296875 248.640625 297.183594 248.375 297.183594 L 242.710938 297.183594 C 242.339844 297.183594 242.003906 297.402344 241.847656 297.746094 C 241.699219 298.089844 241.761719 298.488281 242.007812 298.765625 L 249.933594 307.628906 L 242.007812 316.484375 C 241.761719 316.765625 241.695312 317.164062 241.847656 317.507812 C 242.003906 317.851562 242.339844 318.070312 242.710938 318.070312 L 248.375 318.070312 C 248.640625 318.070312 248.894531 317.953125 249.078125 317.757812 L 257.570312 308.261719 C 257.890625 307.902344 257.890625 307.351562 257.570312 306.992188 Z M 257.570312 306.992188 " fill-opacity="1" fill-rule="nonzero"/></g><g clip-path="url(#5fa8e7fc61)"><path fill="#5ce1e6" d="M 245.300781 306.992188 L 236.808594 297.5 C 236.625 297.296875 236.375 297.183594 236.105469 297.183594 L 230.445312 297.183594 C 230.070312 297.183594 229.734375 297.402344 229.582031 297.746094 C 229.429688 298.089844 229.492188 298.488281 229.742188 298.765625 L 237.667969 307.628906 L 229.742188 316.484375 C 229.492188 316.765625 229.429688 317.164062 229.582031 317.507812 C 229.734375 317.851562 230.070312 318.070312 230.445312 318.070312 L 236.105469 318.070312 C 236.375 318.070312 236.625 317.953125 236.808594 317.757812 L 245.300781 308.261719 C 245.625 307.902344 245.625 307.351562 245.300781 306.992188 Z M 245.300781 306.992188 " fill-opacity="1" fill-rule="nonzero"/></g><g clip-path="url(#5ce1c6d2e2)"><path fill="#38b6ff" d="M 220.445312 306.992188 L 211.953125 297.5 C 211.769531 297.296875 211.515625 297.183594 211.25 297.183594 L 205.585938 297.183594 C 205.214844 297.183594 204.878906 297.402344 204.722656 297.746094 C 204.574219 298.089844 204.636719 298.488281 204.886719 298.765625 L 212.808594 307.628906 L 204.886719 316.484375 C 204.636719 316.765625 204.570312 317.164062 204.722656 317.507812 C 204.878906 317.851562 205.214844 318.070312 205.585938 318.070312 L 211.25 318.070312 C 211.515625 318.070312 211.769531 317.953125 211.953125 317.757812 L 220.445312 308.261719 C 220.765625 307.902344 220.765625 307.351562 220.445312 306.992188 Z M 220.445312 306.992188 " fill-opacity="1" fill-rule="nonzero"/></g><g clip-path="url(#39a70eeb5d)"><path fill="#38b6ff" d="M 208.175781 306.992188 L 199.683594 297.5 C 199.5 297.296875 199.25 297.183594 198.980469 297.183594 L 193.320312 297.183594 C 192.945312 297.183594 192.609375 297.402344 192.457031 297.746094 C 192.304688 298.089844 192.367188 298.488281 192.617188 298.765625 L 200.542969 307.628906 L 192.617188 316.484375 C 192.367188 316.765625 192.304688 317.164062 192.457031 317.507812 C 192.609375 317.851562 192.945312 318.070312 193.320312 318.070312 L 198.980469 318.070312 C 199.25 318.070312 199.5 317.953125 199.683594 317.757812 L 208.175781 308.261719 C 208.5 307.902344 208.5 307.351562 208.175781 306.992188 Z M 208.175781 306.992188 " fill-opacity="1" fill-rule="nonzero"/></g><g clip-path="url(#e45b93f0ff)"><path fill="#38b6ff" d="M 183.320312 306.992188 L 174.828125 297.5 C 174.644531 297.296875 174.390625 297.183594 174.125 297.183594 L 168.460938 297.183594 C 168.089844 297.183594 167.753906 297.402344 167.597656 297.746094 C 167.449219 298.089844 167.511719 298.488281 167.761719 298.765625 L 175.683594 307.628906 L 167.761719 316.484375 C 167.511719 316.765625 167.445312 317.164062 167.597656 317.507812 C 167.753906 317.851562 168.089844 318.070312 168.460938 318.070312 L 174.125 318.070312 C 174.390625 318.070312 174.644531 317.953125 174.828125 317.757812 L 183.320312 308.261719 C 183.640625 307.902344 183.640625 307.351562 183.320312 306.992188 Z M 183.320312 306.992188 " fill-opacity="1" fill-rule="nonzero"/></g><g clip-path="url(#e6d59ebbb3)"><path fill="#38b6ff" d="M 171.050781 306.992188 L 162.558594 297.5 C 162.375 297.296875 162.125 297.183594 161.855469 297.183594 L 156.195312 297.183594 C 155.820312 297.183594 155.484375 297.402344 155.332031 297.746094 C 155.179688 298.089844 155.242188 298.488281 155.492188 298.765625 L 163.417969 307.628906 L 155.492188 316.484375 C 155.242188 316.765625 155.179688 317.164062 155.332031 317.507812 C 155.484375 317.851562 155.820312 318.070312 156.195312 318.070312 L 161.855469 318.070312 C 162.125 318.070312 162.375 317.953125 162.558594 317.757812 L 171.050781 308.261719 C 171.375 307.902344 171.375 307.351562 171.050781 306.992188 Z M 171.050781 306.992188 " fill-opacity="1" fill-rule="nonzero"/></g><g clip-path="url(#3bcc0c55e1)"><g clip-path="url(#130b23a29e)"><g clip-path="url(#3e287316ba)"><path fill="#38b6ff" d="M 146.183594 306.746094 L 137.523438 297.402344 C 137.339844 297.207031 137.085938 297.097656 136.816406 297.101562 L 131.15625 297.199219 C 130.785156 297.207031 130.449219 297.433594 130.304688 297.777344 C 130.160156 298.125 130.226562 298.523438 130.480469 298.796875 L 138.5625 307.515625 L 130.792969 316.511719 C 130.550781 316.796875 130.492188 317.195312 130.652344 317.535156 C 130.8125 317.875 131.152344 318.089844 131.523438 318.085938 L 137.1875 317.984375 C 137.453125 317.980469 137.703125 317.859375 137.882812 317.660156 L 146.207031 308.015625 C 146.523438 307.648438 146.511719 307.097656 146.183594 306.746094 Z M 146.183594 306.746094 " fill-opacity="1" fill-rule="nonzero"/></g></g></g><g clip-path="url(#6ac7ebc76e)"><g clip-path="url(#447fcf8cdc)"><g clip-path="url(#d0848d5ae1)"><path fill="#38b6ff" d="M 133.917969 306.960938 L 125.257812 297.621094 C 125.074219 297.421875 124.820312 297.3125 124.550781 297.316406 L 118.890625 297.417969 C 118.519531 297.425781 118.183594 297.648438 118.035156 297.996094 C 117.890625 298.339844 117.960938 298.742188 118.214844 299.011719 L 126.296875 307.730469 L 118.527344 316.726562 C 118.285156 317.011719 118.226562 317.414062 118.386719 317.753906 C 118.546875 318.09375 118.886719 318.308594 119.257812 318.300781 L 124.921875 318.203125 C 125.1875 318.195312 125.4375 318.078125 125.617188 317.875 L 133.941406 308.234375 C 134.257812 307.867188 134.246094 307.316406 133.917969 306.960938 Z M 133.917969 306.960938 " fill-opacity="1" fill-rule="nonzero"/></g></g></g><g clip-path="url(#4ccff27806)"><g clip-path="url(#cc20170e61)"><g clip-path="url(#de93e64ff7)"><path fill="#5ce1e6" d="M 99.40625 301.191406 L 97.382812 288.617188 C 97.335938 288.347656 97.1875 288.117188 96.960938 287.972656 L 92.195312 284.914062 C 91.882812 284.714844 91.476562 284.71875 91.164062 284.921875 C 90.851562 285.128906 90.6875 285.5 90.75 285.867188 L 92.636719 297.605469 L 81.183594 300.78125 C 80.824219 300.882812 80.550781 301.183594 80.496094 301.554688 C 80.441406 301.925781 80.605469 302.296875 80.917969 302.496094 L 85.683594 305.554688 C 85.910156 305.699219 86.183594 305.738281 86.445312 305.667969 L 98.71875 302.261719 C 99.1875 302.132812 99.484375 301.667969 99.40625 301.191406 Z M 99.40625 301.191406 " fill-opacity="1" fill-rule="nonzero"/></g></g></g><g clip-path="url(#8ed1c05dae)"><g clip-path="url(#de5400c8a7)"><g clip-path="url(#f3372f78af)"><path fill="#5ce1e6" d="M 89.078125 294.570312 L 87.054688 281.992188 C 87.011719 281.726562 86.859375 281.492188 86.632812 281.347656 L 81.867188 278.292969 C 81.554688 278.089844 81.152344 278.09375 80.839844 278.296875 C 80.527344 278.507812 80.363281 278.878906 80.421875 279.246094 L 82.308594 290.980469 L 70.855469 294.160156 C 70.496094 294.257812 70.226562 294.5625 70.167969 294.933594 C 70.113281 295.304688 70.277344 295.671875 70.589844 295.871094 L 75.359375 298.929688 C 75.582031 299.074219 75.859375 299.113281 76.117188 299.046875 L 88.394531 295.640625 C 88.859375 295.507812 89.15625 295.046875 89.078125 294.570312 Z M 89.078125 294.570312 " fill-opacity="1" fill-rule="nonzero"/></g></g></g><g clip-path="url(#1dd87f95a2)"><g clip-path="url(#1d902d7954)"><g clip-path="url(#869e6beb73)"><path fill="#38b6ff" d="M 61.433594 282.320312 L 61.902344 269.589844 C 61.910156 269.316406 61.808594 269.0625 61.613281 268.875 L 57.535156 264.945312 C 57.269531 264.6875 56.871094 264.613281 56.523438 264.753906 C 56.175781 264.894531 55.945312 265.226562 55.929688 265.601562 L 55.492188 277.480469 L 43.640625 278.363281 C 43.265625 278.390625 42.941406 278.632812 42.816406 278.988281 C 42.6875 279.339844 42.777344 279.734375 43.046875 279.992188 L 47.125 283.917969 C 47.316406 284.105469 47.582031 284.195312 47.847656 284.179688 L 60.550781 283.234375 C 61.035156 283.199219 61.414062 282.800781 61.433594 282.320312 Z M 61.433594 282.320312 " fill-opacity="1" fill-rule="nonzero"/></g></g></g><g clip-path="url(#295bb1daf3)"><g clip-path="url(#5bbd8ddf5c)"><g clip-path="url(#a9aa5d532a)"><path fill="#38b6ff" d="M 52.597656 273.808594 L 53.066406 261.078125 C 53.074219 260.808594 52.96875 260.550781 52.777344 260.363281 L 48.699219 256.4375 C 48.429688 256.179688 48.035156 256.101562 47.6875 256.242188 C 47.339844 256.386719 47.109375 256.71875 47.09375 257.089844 L 46.65625 268.96875 L 34.804688 269.851562 C 34.429688 269.878906 34.105469 270.125 33.980469 270.476562 C 33.851562 270.828125 33.941406 271.222656 34.210938 271.480469 L 38.289062 275.410156 C 38.480469 275.59375 38.742188 275.6875 39.011719 275.671875 L 51.714844 274.722656 C 52.199219 274.6875 52.578125 274.292969 52.597656 273.808594 Z M 52.597656 273.808594 " fill-opacity="1" fill-rule="nonzero"/></g></g></g><g clip-path="url(#23ef4894c0)"><g clip-path="url(#27e6250cdd)"><g clip-path="url(#844346cb75)"><path fill="#38b6ff" d="M 36.792969 250.25 L 40.734375 238.136719 C 40.816406 237.878906 40.789062 237.601562 40.652344 237.371094 L 37.808594 232.476562 C 37.621094 232.15625 37.261719 231.972656 36.890625 232.011719 C 36.515625 232.054688 36.199219 232.308594 36.085938 232.664062 L 32.410156 243.96875 L 20.769531 241.570312 C 20.402344 241.492188 20.023438 241.640625 19.804688 241.945312 C 19.585938 242.25 19.5625 242.652344 19.75 242.972656 L 22.597656 247.867188 C 22.730469 248.101562 22.957031 248.261719 23.21875 248.316406 L 35.695312 250.890625 C 36.171875 250.988281 36.648438 250.710938 36.792969 250.25 Z M 36.792969 250.25 " fill-opacity="1" fill-rule="nonzero"/></g></g></g><g clip-path="url(#7ce897e6be)"><g clip-path="url(#85996ed45c)"><g clip-path="url(#d50f742c03)"><path fill="#38b6ff" d="M 30.628906 239.644531 L 34.570312 227.53125 C 34.652344 227.273438 34.625 226.996094 34.488281 226.765625 L 31.644531 221.871094 C 31.457031 221.546875 31.097656 221.367188 30.722656 221.40625 C 30.351562 221.449219 30.035156 221.703125 29.921875 222.058594 L 26.246094 233.363281 L 14.601562 230.960938 C 14.238281 230.886719 13.859375 231.035156 13.640625 231.335938 C 13.417969 231.640625 13.398438 232.042969 13.585938 232.367188 L 16.429688 237.261719 C 16.566406 237.492188 16.792969 237.652344 17.054688 237.710938 L 29.53125 240.28125 C 30.003906 240.378906 30.480469 240.105469 30.628906 239.644531 Z M 30.628906 239.644531 " fill-opacity="1" fill-rule="nonzero"/></g></g></g><g clip-path="url(#62a06945c6)"><path fill="#38b6ff" d="M 20.015625 200.003906 L 29.507812 191.511719 C 29.710938 191.332031 29.824219 191.078125 29.824219 190.808594 L 29.824219 185.148438 C 29.824219 184.777344 29.605469 184.4375 29.261719 184.285156 C 28.917969 184.132812 28.515625 184.195312 28.242188 184.445312 L 19.378906 192.371094 L 10.523438 184.445312 C 10.242188 184.195312 9.84375 184.132812 9.5 184.285156 C 9.15625 184.4375 8.9375 184.777344 8.9375 185.148438 L 8.9375 190.808594 C 8.9375 191.078125 9.050781 191.332031 9.25 191.511719 L 18.746094 200.003906 C 19.105469 200.328125 19.65625 200.328125 20.015625 200.003906 Z M 20.015625 200.003906 " fill-opacity="1" fill-rule="nonzero"/></g><g clip-path="url(#59dd45e76d)"><path fill="#38b6ff" d="M 20.015625 187.738281 L 29.507812 179.242188 C 29.710938 179.0625 29.824219 178.808594 29.824219 178.542969 L 29.824219 172.878906 C 29.824219 172.507812 29.605469 172.171875 29.261719 172.015625 C 28.917969 171.867188 28.515625 171.929688 28.242188 172.175781 L 19.378906 180.101562 L 10.523438 172.175781 C 10.242188 171.929688 9.84375 171.863281 9.5 172.015625 C 9.15625 172.171875 8.9375 172.507812 8.9375 172.878906 L 8.9375 178.542969 C 8.9375 178.808594 9.050781 179.0625 9.25 179.242188 L 18.746094 187.738281 C 19.105469 188.058594 19.65625 188.058594 20.015625 187.738281 Z M 20.015625 187.738281 " fill-opacity="1" fill-rule="nonzero"/></g><g clip-path="url(#fa6fd70059)"><g clip-path="url(#94e400adc5)"><g clip-path="url(#72cc911c4d)"><path fill="#5ce1e6" d="M 22.28125 145.097656 L 34.921875 143.527344 C 35.191406 143.492188 35.429688 143.347656 35.582031 143.128906 L 38.808594 138.476562 C 39.019531 138.167969 39.03125 137.765625 38.835938 137.445312 C 38.640625 137.125 38.273438 136.949219 37.90625 136.996094 L 26.109375 138.460938 L 23.34375 126.902344 C 23.253906 126.539062 22.960938 126.257812 22.59375 126.191406 C 22.226562 126.121094 21.851562 126.273438 21.640625 126.578125 L 18.414062 131.230469 C 18.261719 131.453125 18.210938 131.726562 18.273438 131.988281 L 21.238281 144.375 C 21.351562 144.847656 21.800781 145.160156 22.28125 145.097656 Z M 22.28125 145.097656 " fill-opacity="1" fill-rule="nonzero"/></g></g></g><g clip-path="url(#c351e02b9e)"><g clip-path="url(#39ebf742a2)"><g clip-path="url(#390cc03498)"><path fill="#5ce1e6" d="M 29.269531 135.015625 L 41.910156 133.441406 C 42.179688 133.410156 42.417969 133.265625 42.570312 133.046875 L 45.792969 128.390625 C 46.007812 128.085938 46.019531 127.683594 45.824219 127.363281 C 45.628906 127.042969 45.261719 126.867188 44.894531 126.914062 L 33.097656 128.378906 L 30.332031 116.820312 C 30.242188 116.457031 29.949219 116.175781 29.582031 116.105469 C 29.210938 116.035156 28.839844 116.1875 28.628906 116.492188 L 25.402344 121.148438 C 25.25 121.367188 25.199219 121.640625 25.261719 121.902344 L 28.226562 134.292969 C 28.335938 134.761719 28.789062 135.078125 29.269531 135.015625 Z M 29.269531 135.015625 " fill-opacity="1" fill-rule="nonzero"/></g></g></g><g clip-path="url(#7bdb8e5c99)"><g clip-path="url(#d8e57f18ac)"><g clip-path="url(#0bd922a537)"><path fill="#38b6ff" d="M 45.109375 108.90625 L 57.78125 110.222656 C 58.050781 110.25 58.3125 110.164062 58.511719 109.984375 L 62.703125 106.175781 C 62.976562 105.925781 63.078125 105.535156 62.960938 105.179688 C 62.84375 104.824219 62.527344 104.570312 62.15625 104.53125 L 50.332031 103.304688 L 50.242188 91.417969 C 50.238281 91.042969 50.015625 90.703125 49.675781 90.554688 C 49.332031 90.402344 48.933594 90.46875 48.65625 90.71875 L 44.464844 94.523438 C 44.265625 94.707031 44.160156 94.960938 44.15625 95.230469 L 44.253906 107.96875 C 44.257812 108.453125 44.628906 108.859375 45.109375 108.90625 Z M 45.109375 108.90625 " fill-opacity="1" fill-rule="nonzero"/></g></g></g><g clip-path="url(#5aa19250cf)"><g clip-path="url(#91fe05c92a)"><g clip-path="url(#4c74756f96)"><path fill="#38b6ff" d="M 54.1875 100.65625 L 66.859375 101.972656 C 67.128906 102 67.394531 101.914062 67.589844 101.734375 L 71.78125 97.925781 C 72.058594 97.675781 72.160156 97.285156 72.042969 96.929688 C 71.921875 96.574219 71.609375 96.320312 71.238281 96.28125 L 59.414062 95.054688 L 59.324219 83.167969 C 59.320312 82.792969 59.097656 82.457031 58.753906 82.304688 C 58.410156 82.152344 58.011719 82.21875 57.738281 82.46875 L 53.546875 86.273438 C 53.347656 86.457031 53.238281 86.710938 53.238281 86.980469 L 53.335938 99.71875 C 53.339844 100.203125 53.710938 100.609375 54.1875 100.65625 Z M 54.1875 100.65625 " fill-opacity="1" fill-rule="nonzero"/></g></g></g><g clip-path="url(#688890a297)"><g clip-path="url(#431dfc7c4f)"><g clip-path="url(#0158c6a020)"><path fill="#38b6ff" d="M 75.378906 84.589844 L 87.1875 89.363281 C 87.441406 89.460938 87.71875 89.453125 87.957031 89.335938 L 93.039062 86.835938 C 93.371094 86.671875 93.578125 86.328125 93.566406 85.953125 C 93.550781 85.578125 93.316406 85.246094 92.96875 85.105469 L 81.949219 80.652344 L 85.152344 69.207031 C 85.253906 68.84375 85.136719 68.457031 84.847656 68.21875 C 84.558594 67.976562 84.160156 67.929688 83.824219 68.09375 L 78.742188 70.589844 C 78.503906 70.707031 78.328125 70.925781 78.25 71.179688 L 74.816406 83.449219 C 74.6875 83.914062 74.929688 84.410156 75.378906 84.589844 Z M 75.378906 84.589844 " fill-opacity="1" fill-rule="nonzero"/></g></g></g><g clip-path="url(#cfa1c586b7)"><g clip-path="url(#2f02ea3668)"><g clip-path="url(#031e454419)"><path fill="#38b6ff" d="M 86.386719 79.175781 L 98.199219 83.949219 C 98.449219 84.050781 98.726562 84.042969 98.96875 83.921875 L 104.050781 81.425781 C 104.382812 81.261719 104.589844 80.914062 104.574219 80.539062 C 104.558594 80.164062 104.328125 79.832031 103.980469 79.695312 L 92.960938 75.238281 L 96.164062 63.792969 C 96.265625 63.433594 96.144531 63.046875 95.859375 62.804688 C 95.570312 62.566406 95.167969 62.515625 94.835938 62.679688 L 89.753906 65.179688 C 89.511719 65.296875 89.335938 65.511719 89.261719 65.769531 L 85.828125 78.035156 C 85.695312 78.503906 85.941406 78.996094 86.386719 79.175781 Z M 86.386719 79.175781 " fill-opacity="1" fill-rule="nonzero"/></g></g></g><g clip-path="url(#4ed54e42a6)"><path fill="#38b6ff" d="M 118.214844 68.148438 L 126.707031 77.640625 C 126.890625 77.84375 127.144531 77.957031 127.410156 77.957031 L 133.074219 77.957031 C 133.445312 77.957031 133.78125 77.738281 133.9375 77.394531 C 134.085938 77.050781 134.023438 76.652344 133.773438 76.375 L 125.851562 67.515625 L 133.773438 58.65625 C 134.023438 58.375 134.089844 57.976562 133.9375 57.632812 C 133.78125 57.289062 133.445312 57.070312 133.074219 57.070312 L 127.410156 57.070312 C 127.144531 57.070312 126.890625 57.1875 126.707031 57.382812 L 118.214844 66.878906 C 117.894531 67.238281 117.894531 67.789062 118.214844 68.148438 Z M 118.214844 68.148438 " fill-opacity="1" fill-rule="nonzero"/></g><g clip-path="url(#23b428c60d)"><path fill="#38b6ff" d="M 130.484375 68.148438 L 138.976562 77.640625 C 139.160156 77.84375 139.410156 77.957031 139.679688 77.957031 L 145.339844 77.957031 C 145.714844 77.957031 146.050781 77.738281 146.203125 77.394531 C 146.355469 77.050781 146.292969 76.652344 146.042969 76.375 L 138.117188 67.515625 L 146.042969 58.65625 C 146.292969 58.375 146.355469 57.976562 146.203125 57.632812 C 146.050781 57.289062 145.714844 57.070312 145.339844 57.070312 L 139.679688 57.070312 C 139.410156 57.070312 139.160156 57.1875 138.976562 57.382812 L 130.484375 66.878906 C 130.160156 67.238281 130.160156 67.789062 130.484375 68.148438 Z M 130.484375 68.148438 " fill-opacity="1" fill-rule="nonzero"/></g><g clip-path="url(#dad32d1337)"><g clip-path="url(#47071ba8c8)"><g clip-path="url(#cd6df277e0)"><path fill="#5ce1e6" d="M 154.75 67.308594 L 162.957031 77.054688 C 163.128906 77.257812 163.378906 77.382812 163.648438 77.390625 L 169.308594 77.558594 C 169.679688 77.570312 170.023438 77.359375 170.1875 77.023438 C 170.347656 76.683594 170.296875 76.28125 170.058594 75.996094 L 162.402344 66.902344 L 170.589844 58.289062 C 170.847656 58.015625 170.925781 57.617188 170.78125 57.273438 C 170.640625 56.921875 170.308594 56.691406 169.9375 56.683594 L 164.277344 56.511719 C 164.007812 56.503906 163.753906 56.613281 163.566406 56.804688 L 154.789062 66.039062 C 154.457031 66.386719 154.441406 66.9375 154.75 67.308594 Z M 154.75 67.308594 " fill-opacity="1" fill-rule="nonzero"/></g></g></g><g clip-path="url(#0a08df5d21)"><g clip-path="url(#5ffb691520)"><g clip-path="url(#514214423b)"><path fill="#5ce1e6" d="M 167.015625 67.675781 L 175.21875 77.421875 C 175.394531 77.628906 175.640625 77.75 175.910156 77.757812 L 181.570312 77.929688 C 181.941406 77.941406 182.285156 77.730469 182.449219 77.394531 C 182.609375 77.054688 182.558594 76.652344 182.320312 76.367188 L 174.664062 67.273438 L 182.851562 58.65625 C 183.109375 58.386719 183.1875 57.988281 183.042969 57.640625 C 182.902344 57.292969 182.570312 57.0625 182.199219 57.050781 L 176.539062 56.878906 C 176.269531 56.871094 176.015625 56.980469 175.828125 57.171875 L 167.050781 66.40625 C 166.71875 66.757812 166.703125 67.308594 167.015625 67.675781 Z M 167.015625 67.675781 " fill-opacity="1" fill-rule="nonzero"/></g></g></g><g clip-path="url(#710d99d172)"><g clip-path="url(#fd5a5df7fc)"><g clip-path="url(#1cafe57c32)"><path fill="#38b6ff" d="M 266.402344 67.308594 L 274.609375 77.054688 C 274.78125 77.257812 275.03125 77.382812 275.300781 77.390625 L 280.960938 77.558594 C 281.332031 77.570312 281.675781 77.359375 281.839844 77.023438 C 282 76.683594 281.949219 76.28125 281.710938 75.996094 L 274.054688 66.902344 L 282.242188 58.289062 C 282.5 58.015625 282.578125 57.617188 282.433594 57.273438 C 282.292969 56.921875 281.960938 56.691406 281.589844 56.683594 L 275.929688 56.511719 C 275.660156 56.503906 275.40625 56.613281 275.21875 56.804688 L 266.441406 66.039062 C 266.109375 66.386719 266.09375 66.9375 266.402344 67.308594 Z M 266.402344 67.308594 " fill-opacity="1" fill-rule="nonzero"/></g></g></g><g clip-path="url(#5fcd763795)"><g clip-path="url(#6139c94dbe)"><g clip-path="url(#b13f1bd132)"><path fill="#38b6ff" d="M 278.667969 67.675781 L 286.871094 77.421875 C 287.046875 77.628906 287.292969 77.75 287.5625 77.757812 L 293.222656 77.929688 C 293.59375 77.941406 293.9375 77.730469 294.101562 77.394531 C 294.261719 77.054688 294.210938 76.652344 293.972656 76.367188 L 286.316406 67.273438 L 294.503906 58.65625 C 294.761719 58.386719 294.839844 57.988281 294.695312 57.640625 C 294.554688 57.292969 294.222656 57.0625 293.851562 57.050781 L 288.191406 56.878906 C 287.921875 56.871094 287.667969 56.980469 287.480469 57.171875 L 278.703125 66.40625 C 278.371094 66.757812 278.355469 67.308594 278.667969 67.675781 Z M 278.667969 67.675781 " fill-opacity="1" fill-rule="nonzero"/></g></g></g><g clip-path="url(#5e02549056)"><g clip-path="url(#d4c1a28deb)"><g clip-path="url(#567342be24)"><path fill="#38b6ff" d="M 229.277344 67.308594 L 237.484375 77.054688 C 237.65625 77.257812 237.90625 77.382812 238.175781 77.390625 L 243.835938 77.558594 C 244.207031 77.570312 244.550781 77.359375 244.714844 77.023438 C 244.875 76.683594 244.824219 76.28125 244.585938 75.996094 L 236.929688 66.902344 L 245.117188 58.289062 C 245.375 58.015625 245.453125 57.617188 245.308594 57.273438 C 245.167969 56.921875 244.835938 56.691406 244.464844 56.683594 L 238.804688 56.511719 C 238.535156 56.503906 238.28125 56.613281 238.09375 56.804688 L 229.316406 66.039062 C 228.984375 66.386719 228.96875 66.9375 229.277344 67.308594 Z M 229.277344 67.308594 " fill-opacity="1" fill-rule="nonzero"/></g></g></g><g clip-path="url(#c7b71c1a03)"><g clip-path="url(#3936ebac6d)"><g clip-path="url(#2679e3d2ce)"><path fill="#38b6ff" d="M 241.542969 67.675781 L 249.746094 77.421875 C 249.921875 77.628906 250.167969 77.75 250.4375 77.757812 L 256.097656 77.929688 C 256.46875 77.941406 256.8125 77.730469 256.976562 77.394531 C 257.136719 77.054688 257.085938 76.652344 256.847656 76.367188 L 249.191406 67.273438 L 257.378906 58.65625 C 257.636719 58.386719 257.714844 57.988281 257.570312 57.640625 C 257.429688 57.292969 257.097656 57.0625 256.726562 57.050781 L 251.066406 56.878906 C 250.796875 56.871094 250.542969 56.980469 250.355469 57.171875 L 241.578125 66.40625 C 241.246094 66.757812 241.230469 67.308594 241.542969 67.675781 Z M 241.542969 67.675781 " fill-opacity="1" fill-rule="nonzero"/></g></g></g><g clip-path="url(#b46eeaba20)"><g clip-path="url(#229fd1ea19)"><g clip-path="url(#97beb9a817)"><path fill="#38b6ff" d="M 192.761719 67.308594 L 200.964844 77.054688 C 201.140625 77.257812 201.390625 77.382812 201.660156 77.390625 L 207.316406 77.558594 C 207.691406 77.570312 208.035156 77.359375 208.199219 77.023438 C 208.359375 76.683594 208.308594 76.28125 208.066406 75.996094 L 200.414062 66.902344 L 208.601562 58.289062 C 208.859375 58.015625 208.933594 57.617188 208.792969 57.273438 C 208.648438 56.921875 208.320312 56.691406 207.945312 56.683594 L 202.289062 56.511719 C 202.019531 56.503906 201.761719 56.613281 201.574219 56.804688 L 192.800781 66.039062 C 192.46875 66.386719 192.449219 66.9375 192.761719 67.308594 Z M 192.761719 67.308594 " fill-opacity="1" fill-rule="nonzero"/></g></g></g><g clip-path="url(#74fc6fae58)"><g clip-path="url(#481e417f92)"><g clip-path="url(#ffb7222d9c)"><path fill="#38b6ff" d="M 205.023438 67.675781 L 213.230469 77.421875 C 213.402344 77.628906 213.652344 77.75 213.921875 77.757812 L 219.582031 77.929688 C 219.953125 77.941406 220.296875 77.730469 220.460938 77.394531 C 220.621094 77.054688 220.570312 76.652344 220.332031 76.367188 L 212.675781 67.273438 L 220.863281 58.65625 C 221.121094 58.386719 221.199219 57.988281 221.054688 57.640625 C 220.914062 57.292969 220.582031 57.0625 220.210938 57.050781 L 214.550781 56.878906 C 214.28125 56.871094 214.027344 56.980469 213.839844 57.171875 L 205.0625 66.40625 C 204.730469 66.757812 204.714844 67.308594 205.023438 67.675781 Z M 205.023438 67.675781 " fill-opacity="1" fill-rule="nonzero"/></g></g></g></svg>