<svg xmlns="http://www.w3.org/2000/svg" width="450" viewBox="0 0 337.5 375" height="500" version="1.0"><defs><clipPath id="prefix__a"><path d="M0 52.777h303.75V323H0zm0 0"/></clipPath><clipPath id="prefix__b"><path d="M7.918 142.824C3.137 156.668 0 172.406 0 187.852c0 15.445 2.688 30.304 7.469 44.003.152.29.152.583.3.875 19.122 51.434 69.622 89.32 127.887 90.047H303.75v-270H135.781c-58.687.73-109.187 38.032-127.863 90.047"/></clipPath><clipPath id="prefix__c"><path d="M0 52.777h303.75v270H0zm0 0"/></clipPath><clipPath id="prefix__d"><path d="M7.918 142.824C3.137 156.668 0 172.406 0 187.852c0 15.445 2.688 30.304 7.469 44.003.152.29.152.583.3.875 19.122 51.434 69.622 89.32 127.887 90.047H303.75v-270H135.781c-58.687.73-109.187 38.032-127.863 90.047"/></clipPath><clipPath id="prefix__e"><path d="M34 77h217v217H34zm0 0"/></clipPath><clipPath id="prefix__f"><path d="M144.621 32.996l151.16 154.7-154.703 151.16-151.156-154.7zm0 0"/></clipPath><clipPath id="prefix__g"><path d="M220.098 110.242c-41.684-42.66-110.063-43.453-152.723-1.765-42.664 41.683-43.453 110.062-1.77 152.722 41.688 42.664 110.063 43.453 152.727 1.77 42.66-41.688 43.453-110.063 1.766-152.727"/></clipPath><clipPath id="prefix__h"><path d="M34 77h217v217H34zm0 0"/></clipPath><clipPath id="prefix__i"><path d="M144.621 32.996l150.957 154.492-154.492 150.957L-9.871 183.953zm0 0"/></clipPath><clipPath id="prefix__j"><path d="M144.621 32.996l153.09 156.68-156.676 153.09-153.09-156.676zm0 0"/></clipPath><clipPath id="prefix__k"><path d="M220.098 110.242c-41.684-42.66-110.063-43.453-152.723-1.765-42.664 41.683-43.453 110.062-1.77 152.722 41.688 42.664 110.063 43.453 152.727 1.77 42.66-41.688 43.453-110.063 1.766-152.727"/></clipPath><clipPath id="prefix__l"><path d="M160 130h35v36h-35zm0 0"/></clipPath><clipPath id="prefix__m"><path d="M182.14 130.484l13.016 12.668-22.265 22.88-13.016-12.669zm0 0"/></clipPath><clipPath id="prefix__n"><path d="M182.14 130.484l12.731 12.391-22.129 22.738-12.73-12.39zm0 0"/></clipPath><clipPath id="prefix__o"><path d="M143 212h26v36h-26zm0 0"/></clipPath><clipPath id="prefix__p"><path d="M143.563 216.902l17.53-4.746 8.345 30.817-17.532 4.746zm0 0"/></clipPath><clipPath id="prefix__q"><path d="M143.563 216.902l17.148-4.64 8.293 30.625-17.149 4.644zm0 0"/></clipPath><clipPath id="prefix__r"><path d="M95 148h83v82H95zm0 0"/></clipPath><clipPath id="prefix__s"><path d="M85.344 211.563l21.308-82.493 71.637 18.508-21.309 82.488zm0 0"/></clipPath><clipPath id="prefix__t"><path d="M95.914 170.633l81.52-22.602-21.149 81.856-60.37-59.254"/></clipPath><clipPath id="prefix__u"><path d="M86 160h36v26H86zm0 0"/></clipPath><clipPath id="prefix__v"><path d="M86.047 177.262l4.543-17.586 30.91 7.984-4.543 17.59zm0 0"/></clipPath><clipPath id="prefix__w"><path d="M86.047 177.262l4.445-17.2 30.719 7.934-4.441 17.203zm0 0"/></clipPath><clipPath id="prefix__x"><path d="M40 135h57v57H40zm0 0"/></clipPath><clipPath id="prefix__y"><path d="M87.555 197.852l-53.52-15.149 15.149-53.52 53.52 15.149zm0 0"/></clipPath><clipPath id="prefix__z"><path d="M60.793 190.277c14.781 4.184 30.152-4.406 34.336-19.187 4.183-14.778-4.406-30.149-19.184-34.332-14.78-4.184-30.152 4.406-34.336 19.183-4.183 14.782 4.407 30.153 19.184 34.336"/></clipPath><clipPath id="prefix__A"><path d="M40 135h57v57H40zm0 0"/></clipPath><clipPath id="prefix__B"><path d="M87.555 197.852l-53.403-15.118 15.118-53.398 53.402 15.113zm0 0"/></clipPath><clipPath id="prefix__C"><path d="M87.555 197.852l-53.403-15.118 15.118-53.398 53.402 15.113zm0 0"/></clipPath><clipPath id="prefix__D"><path d="M60.855 190.293c14.747 4.176 30.083-4.395 34.258-19.14 4.172-14.75-4.398-30.087-19.144-34.262-14.746-4.172-30.086 4.398-34.258 19.144-4.176 14.746 4.394 30.086 19.144 34.258"/></clipPath><clipPath id="prefix__E"><path d="M136 230h57v57h-57zm0 0"/></clipPath><clipPath id="prefix__F"><path d="M144.922 293.012l-14.86-53.598 53.602-14.86 14.86 53.602zm0 0"/></clipPath><clipPath id="prefix__G"><path d="M137.492 266.21c4.102 14.806 19.43 23.478 34.23 19.376 14.801-4.106 23.473-19.43 19.372-34.23-4.102-14.801-19.43-23.477-34.23-19.372-14.802 4.102-23.473 19.426-19.372 34.227"/></clipPath><clipPath id="prefix__H"><path d="M136 231h57v56h-57zm0 0"/></clipPath><clipPath id="prefix__I"><path d="M144.922 293.012l-14.824-53.48 53.48-14.829 14.828 53.484zm0 0"/></clipPath><clipPath id="prefix__J"><path d="M144.922 293.012l-14.824-53.48 53.48-14.829 14.828 53.484zm0 0"/></clipPath><clipPath id="prefix__K"><path d="M137.508 266.273c4.094 14.766 19.387 23.422 34.156 19.329 14.77-4.094 23.422-19.387 19.328-34.157-4.094-14.77-19.387-23.422-34.156-19.328-14.766 4.094-23.422 19.387-19.328 34.156"/></clipPath><clipPath id="prefix__L"><path d="M167 101h57v57h-57zm0 0"/></clipPath><clipPath id="prefix__M"><path d="M214.848 164.059l-53.52-15.149 15.149-53.52 53.52 15.15zm0 0"/></clipPath><clipPath id="prefix__N"><path d="M188.09 156.484c14.777 4.184 30.148-4.406 34.332-19.183 4.183-14.781-4.406-30.153-19.184-34.336-14.781-4.184-30.152 4.406-34.336 19.187-4.183 14.778 4.407 30.149 19.188 34.332"/></clipPath><clipPath id="prefix__O"><path d="M167 102h57v56h-57zm0 0"/></clipPath><clipPath id="prefix__P"><path d="M214.848 164.059l-53.403-15.114 15.118-53.402 53.402 15.113zm0 0"/></clipPath><clipPath id="prefix__Q"><path d="M214.848 164.059l-53.403-15.114 15.118-53.402 53.402 15.113zm0 0"/></clipPath><clipPath id="prefix__R"><path d="M188.148 156.5c14.747 4.176 30.082-4.395 34.258-19.14 4.176-14.747-4.398-30.087-19.144-34.258-14.746-4.176-30.082 4.394-34.258 19.14-4.172 14.746 4.398 30.086 19.144 34.258"/></clipPath><clipPath id="prefix__S"><path d="M61 156h15v15H61zm0 0"/></clipPath><clipPath id="prefix__T"><path d="M59.867 168.535l3.492-13.515 13.516 3.488-3.492 13.515zm0 0"/></clipPath><clipPath id="prefix__U"><path d="M61.613 161.777a6.976 6.976 0 005.012 8.5 6.977 6.977 0 008.504-5.011 6.982 6.982 0 00-5.012-8.504 6.984 6.984 0 00-8.504 5.015"/></clipPath><clipPath id="prefix__V"><path d="M157 251h15v15h-15zm0 0"/></clipPath><clipPath id="prefix__W"><path d="M155.7 253.926l13.452-3.727 3.73 13.453-13.452 3.727zm0 0"/></clipPath><clipPath id="prefix__X"><path d="M162.426 252.063a6.977 6.977 0 00-4.86 8.59 6.978 6.978 0 008.59 4.863 6.977 6.977 0 004.86-8.59 6.98 6.98 0 00-8.59-4.863"/></clipPath><clipPath id="prefix__Y"><path d="M187 122h15v14h-15zm0 0"/></clipPath><clipPath id="prefix__Z"><path d="M186.406 134.027l3.492-13.515 13.516 3.492-3.492 13.516zm0 0"/></clipPath><clipPath id="prefix__aa"><path d="M188.152 127.27a6.977 6.977 0 005.012 8.503 6.979 6.979 0 008.504-5.011 6.98 6.98 0 00-13.516-3.492"/></clipPath><clipPath id="prefix__ab"><path d="M105 113h46v20h-46zm0 0"/></clipPath><clipPath id="prefix__ac"><path d="M151.121 118.918l-44.234 16.605-4.746-12.64 44.238-16.602zm0 0"/></clipPath><clipPath id="prefix__ad"><path d="M151.121 118.918l-44.234 16.605-4.746-12.64 44.238-16.602zm0 0"/></clipPath><clipPath id="prefix__ae"><path d="M151.121 118.918l-44.234 16.605-4.746-12.64 44.238-16.602zm0 0"/></clipPath><clipPath id="prefix__af"><path d="M142 115h1v1h-1zm0 0"/></clipPath><clipPath id="prefix__ag"><path d="M151.121 118.918l-44.234 16.605-4.746-12.64 44.238-16.602zm0 0"/></clipPath><clipPath id="prefix__ah"><path d="M151.121 118.918l-44.234 16.605-4.746-12.64 44.238-16.602zm0 0"/></clipPath><clipPath id="prefix__ai"><path d="M151.121 118.918l-44.234 16.605-4.746-12.64 44.238-16.602zm0 0"/></clipPath><clipPath id="prefix__aj"><path d="M196 176h22v45h-22zm0 0"/></clipPath><clipPath id="prefix__ak"><path d="M195.934 220.633l11.886-45.735 13.063 3.399L209 224.027zm0 0"/></clipPath><clipPath id="prefix__al"><path d="M195.934 220.633l11.886-45.735 13.063 3.399L209 224.027zm0 0"/></clipPath><clipPath id="prefix__am"><path d="M195.934 220.633l11.886-45.735 13.063 3.399L209 224.027zm0 0"/></clipPath><clipPath id="prefix__an"><path d="M203 215h1v1h-1zm0 0"/></clipPath><clipPath id="prefix__ao"><path d="M195.934 220.633l11.886-45.735 13.063 3.399L209 224.027zm0 0"/></clipPath><clipPath id="prefix__ap"><path d="M195.934 220.633l11.886-45.735 13.063 3.399L209 224.027zm0 0"/></clipPath><clipPath id="prefix__aq"><path d="M195.934 220.633l11.886-45.735 13.063 3.399L209 224.027zm0 0"/></clipPath><clipPath id="prefix__ar"><path d="M85 210h30v40H85zm0 0"/></clipPath><clipPath id="prefix__as"><path d="M87.242 210.195l30.805 35.828-10.238 8.801-30.801-35.828zm0 0"/></clipPath><clipPath id="prefix__at"><path d="M87.242 210.195l30.805 35.828-10.238 8.801-30.801-35.828zm0 0"/></clipPath><clipPath id="prefix__au"><path d="M87.242 210.195l30.805 35.828-10.238 8.801-30.801-35.828zm0 0"/></clipPath><clipPath id="prefix__av"><path d="M87 219h1v1h-1zm0 0"/></clipPath><clipPath id="prefix__aw"><path d="M87.242 210.195l30.805 35.828-10.238 8.801-30.801-35.828zm0 0"/></clipPath><clipPath id="prefix__ax"><path d="M87.242 210.195l30.805 35.828-10.238 8.801-30.801-35.828zm0 0"/></clipPath><clipPath id="prefix__ay"><path d="M87.242 210.195l30.805 35.828-10.238 8.801-30.801-35.828zm0 0"/></clipPath><clipPath id="prefix__az"><path d="M278 297.129h17v21h-17zm0 0"/></clipPath><clipPath id="prefix__aA"><path d="M266.625 297.129H283v21h-16.375zm0 0"/></clipPath><clipPath id="prefix__aB"><path d="M241 297.129h17v21h-17zm0 0"/></clipPath><clipPath id="prefix__aC"><path d="M229.5 297.129H246v21h-16.5zm0 0"/></clipPath><clipPath id="prefix__aD"><path d="M204 297.129h16.875v21H204zm0 0"/></clipPath><clipPath id="prefix__aE"><path d="M192.375 297.129H209v21h-16.625zm0 0"/></clipPath><clipPath id="prefix__aF"><path d="M167 297.129h16.75v21H167zm0 0"/></clipPath><clipPath id="prefix__aG"><path d="M155.25 297.129H172v21h-16.75zm0 0"/></clipPath><clipPath id="prefix__aH"><path d="M130 297h17v22h-17zm0 0"/></clipPath><clipPath id="prefix__aI"><path d="M117.945 297.379l28.496-.504.371 20.996-28.496.504zm0 0"/></clipPath><clipPath id="prefix__aJ"><path d="M117.945 297.379l28.496-.504.371 20.996-28.496.504zm0 0"/></clipPath><clipPath id="prefix__aK"><path d="M117 297h18v22h-18zm0 0"/></clipPath><clipPath id="prefix__aL"><path d="M117.945 297.379l28.496-.504.371 20.996-28.496.504zm0 0"/></clipPath><clipPath id="prefix__aM"><path d="M117.945 297.379l28.496-.504.371 20.996-28.496.504zm0 0"/></clipPath><clipPath id="prefix__aN"><path d="M80 284h20v22H80zm0 0"/></clipPath><clipPath id="prefix__aO"><path d="M81.105 277.734l23.989 15.387-11.336 17.676-23.992-15.387zm0 0"/></clipPath><clipPath id="prefix__aP"><path d="M81.105 277.734l23.989 15.387-11.336 17.676-23.992-15.387zm0 0"/></clipPath><clipPath id="prefix__aQ"><path d="M70 278h20v22H70zm0 0"/></clipPath><clipPath id="prefix__aR"><path d="M81.105 277.734l23.989 15.387-11.336 17.676-23.992-15.387zm0 0"/></clipPath><clipPath id="prefix__aS"><path d="M81.105 277.734l23.989 15.387-11.336 17.676-23.992-15.387zm0 0"/></clipPath><clipPath id="prefix__aT"><path d="M42 264h20v21H42zm0 0"/></clipPath><clipPath id="prefix__aU"><path d="M48.059 255.742l20.527 19.77-14.566 15.125-20.528-19.77zm0 0"/></clipPath><clipPath id="prefix__aV"><path d="M48.059 255.742l20.527 19.77-14.566 15.125-20.528-19.77zm0 0"/></clipPath><clipPath id="prefix__aW"><path d="M33 256h21v20H33zm0 0"/></clipPath><clipPath id="prefix__aX"><path d="M48.059 255.742l20.527 19.77-14.566 15.125-20.528-19.77zm0 0"/></clipPath><clipPath id="prefix__aY"><path d="M48.059 255.742l20.527 19.77-14.566 15.125-20.528-19.77zm0 0"/></clipPath><clipPath id="prefix__aZ"><path d="M19 232h22v19H19zm0 0"/></clipPath><clipPath id="prefix__ba"><path d="M31.219 221.023l14.32 24.641-18.152 10.555-14.325-24.64zm0 0"/></clipPath><clipPath id="prefix__bb"><path d="M31.219 221.023l14.32 24.641-18.152 10.555-14.325-24.64zm0 0"/></clipPath><clipPath id="prefix__bc"><path d="M13 221h22v20H13zm0 0"/></clipPath><clipPath id="prefix__bd"><path d="M31.219 221.023l14.32 24.641-18.152 10.555-14.325-24.64zm0 0"/></clipPath><clipPath id="prefix__be"><path d="M31.219 221.023l14.32 24.641-18.152 10.555-14.325-24.64zm0 0"/></clipPath><clipPath id="prefix__bf"><path d="M8.879 184h21v16.438h-21zm0 0"/></clipPath><clipPath id="prefix__bg"><path d="M8.879 171.938h21V188h-21zm0 0"/></clipPath><clipPath id="prefix__bh"><path d="M18 126h21v20H18zm0 0"/></clipPath><clipPath id="prefix__bi"><path d="M46.379 127.648l-16.234 23.426-17.262-11.965 16.234-23.422zm0 0"/></clipPath><clipPath id="prefix__bj"><path d="M46.379 127.648l-16.234 23.426-17.262-11.965 16.234-23.422zm0 0"/></clipPath><clipPath id="prefix__bk"><path d="M25 116h21v20H25zm0 0"/></clipPath><clipPath id="prefix__bl"><path d="M46.379 127.648l-16.234 23.426-17.262-11.965 16.234-23.422zm0 0"/></clipPath><clipPath id="prefix__bm"><path d="M46.379 127.648l-16.234 23.426-17.262-11.965 16.234-23.422zm0 0"/></clipPath><clipPath id="prefix__bn"><path d="M44 90h20v21H44zm0 0"/></clipPath><clipPath id="prefix__bo"><path d="M72.52 97.336L51.426 116.5l-14.121-15.543 21.093-19.164zm0 0"/></clipPath><clipPath id="prefix__bp"><path d="M72.52 97.336L51.426 116.5l-14.121-15.543 21.093-19.164zm0 0"/></clipPath><clipPath id="prefix__bq"><path d="M53 82h20v20H53zm0 0"/></clipPath><clipPath id="prefix__br"><path d="M72.52 97.336L51.426 116.5l-14.121-15.543 21.093-19.164zm0 0"/></clipPath><clipPath id="prefix__bs"><path d="M72.52 97.336L51.426 116.5l-14.121-15.543 21.093-19.164zm0 0"/></clipPath><clipPath id="prefix__bt"><path d="M74 67h20v23H74zm0 0"/></clipPath><clipPath id="prefix__bu"><path d="M104.922 81.059L79.344 93.633l-9.266-18.848 25.578-12.57zm0 0"/></clipPath><clipPath id="prefix__bv"><path d="M104.922 81.059L79.344 93.633l-9.266-18.848 25.578-12.57zm0 0"/></clipPath><clipPath id="prefix__bw"><path d="M85 62h20v23H85zm0 0"/></clipPath><clipPath id="prefix__bx"><path d="M104.922 81.059L79.344 93.633l-9.266-18.848 25.578-12.57zm0 0"/></clipPath><clipPath id="prefix__by"><path d="M104.922 81.059L79.344 93.633l-9.266-18.848 25.578-12.57zm0 0"/></clipPath><clipPath id="prefix__bz"><path d="M117.785 57.016H135V78h-17.215zm0 0"/></clipPath><clipPath id="prefix__bA"><path d="M130 57.016h16.285V78H130zm0 0"/></clipPath><clipPath id="prefix__bB"><path d="M154 56h17v22h-17zm0 0"/></clipPath><clipPath id="prefix__bC"><path d="M182.512 78.016l-28.489-.86.633-20.992 28.489.86zm0 0"/></clipPath><clipPath id="prefix__bD"><path d="M182.512 78.016l-28.489-.86.633-20.992 28.489.86zm0 0"/></clipPath><clipPath id="prefix__bE"><path d="M166 56h18v22h-18zm0 0"/></clipPath><clipPath id="prefix__bF"><path d="M182.512 78.016l-28.489-.86.633-20.992 28.489.86zm0 0"/></clipPath><clipPath id="prefix__bG"><path d="M182.512 78.016l-28.489-.86.633-20.992 28.489.86zm0 0"/></clipPath><clipPath id="prefix__bH"><path d="M266 56h17v22h-17zm0 0"/></clipPath><clipPath id="prefix__bI"><path d="M294.164 78.016l-28.488-.86.633-20.992 28.488.86zm0 0"/></clipPath><clipPath id="prefix__bJ"><path d="M294.164 78.016l-28.488-.86.633-20.992 28.488.86zm0 0"/></clipPath><clipPath id="prefix__bK"><path d="M278 56h17v22h-17zm0 0"/></clipPath><clipPath id="prefix__bL"><path d="M294.164 78.016l-28.488-.86.633-20.992 28.488.86zm0 0"/></clipPath><clipPath id="prefix__bM"><path d="M294.164 78.016l-28.488-.86.633-20.992 28.488.86zm0 0"/></clipPath><clipPath id="prefix__bN"><path d="M229 56h17v22h-17zm0 0"/></clipPath><clipPath id="prefix__bO"><path d="M257.04 78.016l-28.49-.86.634-20.992 28.488.86zm0 0"/></clipPath><clipPath id="prefix__bP"><path d="M257.04 78.016l-28.49-.86.634-20.992 28.488.86zm0 0"/></clipPath><clipPath id="prefix__bQ"><path d="M241 56h17v22h-17zm0 0"/></clipPath><clipPath id="prefix__bR"><path d="M257.04 78.016l-28.49-.86.634-20.992 28.488.86zm0 0"/></clipPath><clipPath id="prefix__bS"><path d="M257.04 78.016l-28.49-.86.634-20.992 28.488.86zm0 0"/></clipPath><clipPath id="prefix__bT"><path d="M192 56h17v22h-17zm0 0"/></clipPath><clipPath id="prefix__bU"><path d="M220.523 78.016l-28.488-.86.633-20.992 28.488.86zm0 0"/></clipPath><clipPath id="prefix__bV"><path d="M220.523 78.016l-28.488-.86.633-20.992 28.488.86zm0 0"/></clipPath><clipPath id="prefix__bW"><path d="M204 56h18v22h-18zm0 0"/></clipPath><clipPath id="prefix__bX"><path d="M220.523 78.016l-28.488-.86.633-20.992 28.488.86zm0 0"/></clipPath><clipPath id="prefix__bY"><path d="M220.523 78.016l-28.488-.86.633-20.992 28.488.86zm0 0"/></clipPath></defs><g clip-path="url(#prefix__a)"><g clip-path="url(#prefix__b)"><path fill="#737373" d="M303.75 52.777V323.04H-.133V52.777zm0 0"/></g></g><g clip-path="url(#prefix__c)"><g clip-path="url(#prefix__d)"><path fill="none" d="M7.918 142.824C3.137 156.668 0 172.406 0 187.852c0 15.445 2.687 30.304 7.469 44.003.152.29.152.583.3.875 19.122 51.434 69.622 89.32 127.887 90.047H303.75v-270H135.781c-58.687.73-109.187 38.032-127.863 90.047" stroke="#000" stroke-width="3"/></g></g><g clip-path="url(#prefix__e)"><g clip-path="url(#prefix__f)"><g clip-path="url(#prefix__g)"><path fill="#a6a6a6" d="M144.621 32.996l150.774 154.305L141.09 338.074-9.684 183.77zm0 0"/></g></g></g><g clip-path="url(#prefix__h)"><g clip-path="url(#prefix__i)"><g clip-path="url(#prefix__j)"><g clip-path="url(#prefix__k)"><path fill="none" d="M220.098 110.242c-41.684-42.66-110.063-43.453-152.723-1.765-42.664 41.683-43.453 110.062-1.77 152.722 41.688 42.664 110.063 43.453 152.727 1.77 42.66-41.688 43.453-110.063 1.766-152.727" stroke="#000" stroke-width="6"/></g></g></g></g><g clip-path="url(#prefix__l)"><g clip-path="url(#prefix__m)"><g clip-path="url(#prefix__n)"><path fill="#ffde59" d="M182.14 130.484l12.622 12.286-22.266 22.878-12.621-12.285zm0 0"/></g></g></g><g clip-path="url(#prefix__o)"><g clip-path="url(#prefix__p)"><g clip-path="url(#prefix__q)"><path fill="#ffde59" d="M143.563 216.902l17-4.601 8.343 30.816-17 4.602zm0 0"/></g></g></g><g clip-path="url(#prefix__r)"><g clip-path="url(#prefix__s)"><g clip-path="url(#prefix__t)"><path fill="#ffde59" d="M85.344 211.563l21.12-81.77 70.915 18.32-21.125 81.766zm0 0"/></g></g></g><g clip-path="url(#prefix__u)"><g clip-path="url(#prefix__v)"><g clip-path="url(#prefix__w)"><path fill="#ffde59" d="M86.047 177.262l4.406-17.051 30.91 7.984-4.406 17.055zm0 0"/></g></g></g><g clip-path="url(#prefix__x)"><g clip-path="url(#prefix__y)"><g clip-path="url(#prefix__z)"><path fill="#ffde59" d="M87.555 197.852l-53.52-15.149 15.149-53.52 53.52 15.149zm0 0"/></g></g></g><g clip-path="url(#prefix__A)"><g clip-path="url(#prefix__B)"><g clip-path="url(#prefix__C)"><g clip-path="url(#prefix__D)"><path d="M61.668 187.414c5.344 1.512 10.594 1.258 15.75-.762l2.184 5.578c-6.407 2.508-12.926 2.82-19.563.946zm18.184-1.867c4.93-2.57 8.57-6.352 10.933-11.344l5.41 2.559c-2.933 6.207-7.457 10.902-13.574 14.093zm11.941-13.813c.16-.46.305-.93.437-1.398 1.372-4.836 1.282-9.633-.27-14.39l5.692-1.856c1.926 5.91 2.04 11.87.34 17.875-.164.582-.347 1.16-.543 1.73zm-.797-18.285c-2.285-5.074-5.848-8.93-10.695-11.578l2.867-5.254c6.027 3.29 10.453 8.078 13.285 14.375zm-13.094-12.722a24.574 24.574 0 00-2.75-.954c-4.34-1.23-8.675-1.273-13.011-.132l-1.524-5.793c5.39-1.414 10.778-1.364 16.168.164 1.16.328 2.297.722 3.406 1.18zm-18.304-.27c-5.192 1.98-9.25 5.313-12.176 9.996l-5.078-3.172c3.636-5.82 8.676-9.957 15.12-12.418zm-13.47 12.34a24.975 24.975 0 00-1.538 4.055c-1.09 3.847-1.242 7.718-.457 11.609l-5.871 1.18c-.973-4.836-.785-9.645.566-14.422a30.703 30.703 0 011.91-5.028zm-1.327 18.246c1.676 5.293 4.765 9.543 9.277 12.742l-3.469 4.883c-5.597-3.977-9.437-9.246-11.52-15.816zm11.539 14.172a24.975 24.975 0 005.328 2.2l-1.629 5.76a30.85 30.85 0 01-6.613-2.734zm0 0"/></g></g></g></g><g clip-path="url(#prefix__E)"><g clip-path="url(#prefix__F)"><g clip-path="url(#prefix__G)"><path fill="#ffde59" d="M144.922 293.012l-14.86-53.598 53.602-14.86 14.86 53.602zm0 0"/></g></g></g><g clip-path="url(#prefix__H)"><g clip-path="url(#prefix__I)"><g clip-path="url(#prefix__J)"><g clip-path="url(#prefix__K)"><path d="M140.395 265.473c1.484 5.351 4.425 9.707 8.828 13.062l-3.63 4.762c-5.472-4.172-9.128-9.578-10.968-16.227zm11.039 14.566c4.757 2.875 9.879 4.027 15.37 3.45l.63 5.952c-6.829.72-13.196-.707-19.098-4.277zm18.007 3.027c.477-.101.95-.218 1.422-.351 4.844-1.344 8.895-3.91 12.157-7.707l4.542 3.898c-4.05 4.719-9.085 7.91-15.101 9.578-.582.164-1.168.309-1.758.434zm15.207-10.18c3.149-4.585 4.594-9.636 4.34-15.152l5.98-.28c.317 6.858-1.476 13.132-5.382 18.82zm4.07-17.796a24.76 24.76 0 00-.613-2.844c-1.203-4.348-3.417-8.074-6.644-11.187l4.156-4.309c4.012 3.867 6.762 8.5 8.258 13.898a30.27 30.27 0 01.762 3.524zm-9.277-15.781c-4.39-3.407-9.347-5.141-14.867-5.211l.074-5.989c6.86.086 13.016 2.243 18.465 6.47zm-17.543-5.098a24.579 24.579 0 00-4.261.793c-3.856 1.066-7.239 2.945-10.157 5.637l-4.058-4.403c3.625-3.343 7.832-5.68 12.617-7.008 1.738-.48 3.5-.808 5.285-.98zm-16.28 8.344c-3.653 4.18-5.677 9.03-6.067 14.547l-5.973-.426c.488-6.852 2.996-12.871 7.531-18.063zm-6.114 17.218c.074 1.926.371 3.825.89 5.7l-5.769 1.597a30.893 30.893 0 01-1.105-7.07zm0 0"/></g></g></g></g><g clip-path="url(#prefix__L)"><g clip-path="url(#prefix__M)"><g clip-path="url(#prefix__N)"><path fill="#ffde59" d="M214.848 164.059l-53.52-15.149 15.149-53.52 53.52 15.15zm0 0"/></g></g></g><g clip-path="url(#prefix__O)"><g clip-path="url(#prefix__P)"><g clip-path="url(#prefix__Q)"><g clip-path="url(#prefix__R)"><path d="M188.965 153.621c5.344 1.512 10.594 1.258 15.75-.758l2.18 5.575c-6.407 2.507-12.926 2.824-19.563.945zm18.183-1.867c4.926-2.57 8.57-6.352 10.93-11.344l5.414 2.559c-2.933 6.207-7.46 10.906-13.578 14.094zm11.938-13.813c.16-.46.305-.925.441-1.398 1.368-4.836 1.278-9.633-.273-14.39l5.691-1.856c1.93 5.914 2.043 11.871.34 17.875-.164.586-.344 1.16-.543 1.73zm-.797-18.285c-2.281-5.07-5.848-8.93-10.695-11.578l2.867-5.254c6.027 3.29 10.457 8.082 13.289 14.375zm-13.094-12.722a24.787 24.787 0 00-2.746-.954c-4.34-1.23-8.68-1.273-13.015-.132l-1.52-5.793c5.387-1.414 10.777-1.36 16.164.164 1.16.328 2.297.722 3.406 1.18zm-18.3-.27c-5.192 1.98-9.254 5.316-12.18 10l-5.078-3.176c3.636-5.82 8.68-9.957 15.12-12.418zm-13.473 12.34a24.605 24.605 0 00-1.535 4.055c-1.09 3.847-1.246 7.718-.461 11.609l-5.871 1.18c-.973-4.836-.782-9.641.57-14.422a30.96 30.96 0 011.906-5.028zm-1.328 18.246c1.676 5.297 4.77 9.543 9.277 12.742l-3.469 4.883c-5.597-3.973-9.437-9.246-11.515-15.816zm11.539 14.172a24.725 24.725 0 005.332 2.2l-1.633 5.76a30.721 30.721 0 01-6.613-2.73zm0 0"/></g></g></g></g><g clip-path="url(#prefix__S)"><g clip-path="url(#prefix__T)"><g clip-path="url(#prefix__U)"><path fill="#707070" d="M59.867 168.535l3.492-13.515 13.516 3.488-3.492 13.515zm0 0"/></g></g></g><g clip-path="url(#prefix__V)"><g clip-path="url(#prefix__W)"><g clip-path="url(#prefix__X)"><path fill="#707070" d="M155.7 253.926l13.452-3.727 3.73 13.453-13.452 3.727zm0 0"/></g></g></g><g clip-path="url(#prefix__Y)"><g clip-path="url(#prefix__Z)"><g clip-path="url(#prefix__aa)"><path fill="#707070" d="M186.406 134.027l3.492-13.515 13.516 3.492-3.492 13.516zm0 0"/></g></g></g><g clip-path="url(#prefix__ab)"><g clip-path="url(#prefix__ac)"><g clip-path="url(#prefix__ad)"><g clip-path="url(#prefix__ae)"><path fill="#fff" d="M150.273 118.816a.117.117 0 00-.027-.105c.047-.137.281-.133.246-.336.184-.41-.043-.672-.336-.91-.816-.66-1.719-1.176-2.656-1.637-3.355-1.64-6.887-2.504-10.605-2.742-6.489-.418-12.348 1.383-17.758 4.812-2.512 1.586-4.696 3.59-6.79 5.696-1.226 1.238-2.378 2.547-3.562 3.828-.02.066-.043.129-.062.195-.07.031-.145.086-.211.082l-.004-.004c-.055-.004-.047-.082-.004-.129.066-.683.273-1.332.512-1.968.168-.438.293-.871.289-1.344.363-.934.101-1.692-.7-2.137-1.484 1.328-2.02 3.121-2.418 4.988-.148.696-.34 1.375-.523 2.06-.441 1.64-.285 1.429.672 2.429.215.222.477.39.754.535.101.05.2.09.312.047.262.242.535.14.801.031.785-.328 1.567-.668 2.352-1.004.199.031.363-.062.523-.164.2.04.363-.059.527-.148.141.05.258-.032.383-.059 1.707-.379 3.43-.559 5.184-.437.133.007.262.007.394.011.157.004.336.012.395-.16.047-.129-.043-.297-.145-.351-.453-.243-.687-.723-1.105-.993-.188-.12-.406-.156-.629-.191-1.719-.25-3.43-.191-5.14.047-.153.02-.305.066-.458.054-.175-.011-.18-.156-.148-.3.172-.04.262-.149.285-.32.145-.07.285-.149.3-.34.048.003.067-.016.063-.059.141-.063.266-.145.29-.316.09-.063.187-.114.261-.192.832-.847 1.649-1.703 2.492-2.539.762-.762 1.547-1.492 2.325-2.234.226-.172.46-.336.683-.516 2.156-1.726 4.488-3.168 7.031-4.25.907-.387 1.825-.746 2.739-1.117.215.035.379-.07.547-.176.203.035.363-.062.523-.16.191.047.336-.059.492-.137.125.047.227.004.317-.074.046.012.082 0 .113-.039.137.047.254-.031.379-.055.62-.117 1.215-.347 1.851-.386.036-.07.196-.157-.047-.168-.16-.008-.183-.047-.156-.094.02-.043.078-.094.117-.137 1.973-.308 3.961-.375 5.954-.308l.554.07c1.102.14 2.207.277 3.309.418a.15.15 0 00.105.05.2.2 0 00.082-.011c.055.055.114.062.184.035.05.059.113.066.184.04.05.058.113.066.183.038.05.055.113.07.184.04.05.058.113.073.183.042.051.059.11.074.18.043h.004c.058.02.117.031.176.043l.007.004c.047.059.106.074.176.043l.008.004c.047.058.106.074.176.043h.008l.004.004-.004-.004c.047.062.105.078.18.047h.003c.047.062.106.078.176.047l.004.004c.047.058.11.078.18.046.547.188 1.093.371 1.64.559.317.008.59.16.871.27.004.039 0 .07-.011.097a.226.226 0 01-.082.121c.203.106.402.227.64.235a.39.39 0 01.211.035l-.21-.035c.058.047.12.086.19.047.063.097.153.136.266.14.04.067.09.094.164.07.055.055.114.094.192.07.023.032.05.052.093.055.184.141.383.235.606.282.133.09.266.187.434.203.062.09.16.11.257.14.524.364 1.11.625 1.59 1.11.078-.223.328-.285.281-.524zm-39.355 8.86h0l.004.004c-.004 0-.004 0-.004-.004zm31.914-12.196c-.012-.007-.027-.011-.039-.02h.012l.035.013-.008.007zm-2.066-.101v-.004c.004-.004.004-.012.004-.016l.007-.015-.011.031.004.004h-.004zm2.117.055c-.012.011-.028.027-.04.035a.114.114 0 01-.034-.008c.027.004.05-.004.074-.027zm-.156.004l-.043-.012c0-.004-.004-.004-.004-.004.015.004.03.012.047.016zm6.824 2.41h.008c0 .004.004.004.004.004-.004 0-.008-.004-.012-.004zm-.235-.16a.008.008 0 00-.007-.008l.007.007zm-2.796-.458a.085.085 0 00.027-.035c.004.008.012.016.016.024l-.043.011zm.433.258a.1.1 0 01.059.043.187.187 0 00-.059-.043zm0 0"/></g></g></g></g><g clip-path="url(#prefix__af)"><g clip-path="url(#prefix__ag)"><g clip-path="url(#prefix__ah)"><g clip-path="url(#prefix__ai)"><path fill="#fff" d="M142.234 115.703c-.058-.016-.117-.027-.175-.043.046.059.105.074.175.043zm0 0"/></g></g></g></g><g clip-path="url(#prefix__aj)"><g clip-path="url(#prefix__ak)"><g clip-path="url(#prefix__al)"><g clip-path="url(#prefix__am)"><path fill="#fff" d="M196.504 219.992a.1.1 0 00.105.04c.082.12-.054.308.133.394.227.39.574.355.938.254 1.007-.285 1.949-.73 2.867-1.23 3.27-1.802 6.012-4.192 8.348-7.095 4.078-5.066 5.972-10.894 6.289-17.292.144-2.965-.239-5.907-.754-8.829-.305-1.718-.715-3.41-1.082-5.117a4.409 4.409 0 00-.121-.164c.015-.074.011-.164.054-.219h.004c.035-.043.094.008.106.067.523.449.937.992 1.316 1.554.262.387.547.743.934 1.008.554.836 1.328 1.059 2.152.66-.234-1.976-1.39-3.449-2.688-4.847-.484-.52-.93-1.07-1.382-1.617-1.09-1.305-1.004-1.055-2.375-.844-.305.047-.594.16-.871.308-.102.051-.188.11-.22.227-.347.074-.425.355-.484.637-.183.832-.359 1.664-.535 2.5-.14.148-.156.332-.168.523-.144.14-.16.332-.183.516-.117.086-.121.23-.168.347-.676 1.614-1.52 3.125-2.625 4.489-.086.105-.16.215-.239.32-.093.125-.203.266-.097.414.078.11.27.133.37.082.462-.23.99-.148 1.45-.332.207-.082.363-.242.516-.406 1.195-1.258 2.133-2.692 2.922-4.227.07-.136.12-.289.218-.406.11-.137.235-.059.332.05-.066.165-.027.302.102.419-.031.16-.047.316.098.441-.028.035-.024.063.015.086-.031.152-.035.297.09.418.004.11-.012.219.008.324.21 1.168.445 2.328.644 3.496.18 1.063.329 2.125.489 3.188.008.289.004.57.023.855.176 2.758.012 5.496-.566 8.196-.207.965-.446 1.925-.668 2.886-.149.153-.156.348-.168.547-.149.145-.156.332-.172.52-.149.129-.145.308-.172.48-.11.075-.129.184-.121.305-.035.027-.047.066-.031.113-.117.082-.121.227-.172.34-.262.578-.418 1.195-.75 1.738.035.067.015.246.16.059.102-.125.145-.125.172-.074.02.039.027.117.043.176-.883 1.789-1.973 3.453-3.176 5.042l-.375.415c-.75.82-1.5 1.644-2.246 2.464a.158.158 0 00-.106.059.198.198 0 00-.035.07c-.074.016-.12.059-.136.133-.075.008-.121.055-.137.129-.074.008-.121.05-.137.129-.078.008-.125.047-.137.125-.082.008-.125.047-.14.125-.078.008-.125.047-.14.121v.004c-.052.035-.098.078-.141.121l-.004.004c-.078.004-.125.043-.14.117l-.005.004c-.074.008-.12.043-.137.121l-.007.004c-.075.004-.125.043-.141.117v.004c-.078.004-.125.043-.14.117l-.005.004c-.078.004-.125.043-.144.117-.465.344-.934.684-1.399 1.024-.187.254-.468.387-.722.555a.203.203 0 01-.074-.067.224.224 0 01-.051-.137c-.203.106-.418.2-.559.391a.407.407 0 01-.152.152l.152-.152c-.074.02-.14.047-.148.133-.117-.012-.203.043-.27.133-.074-.008-.129.02-.152.093-.078.012-.14.04-.168.118-.04 0-.074.011-.098.046-.218.067-.41.176-.578.333-.152.054-.304.105-.414.234-.11 0-.187.07-.266.133-.597.218-1.152.547-1.824.66.14.191.047.43.266.527zm15.41-37.281v.004h-.008c.004 0 .008 0 .008-.004zm-8.398 33.121l.039-.023c0 .004-.004.007-.008.011-.008.008-.016.016-.027.024 0-.004 0-.008-.004-.012zm1.273-1.633c.004.004 0 .004.004.004.004.004.008.008.008.012l.012.015-.024-.027h-.004c.004 0 .004 0 .004-.004zm-1.266 1.703c0-.02-.003-.039-.003-.054.007-.008.02-.016.027-.028a.12.12 0 00-.024.082zm.09-.132a.215.215 0 01.035-.028h.004c-.011.008-.027.016-.039.028zm-5.898 4.19c0 .005-.004.005-.004.009h-.008c.004-.004.008-.004.012-.008zm.265-.097c.004 0 .008.004.008 0h-.008zm1.98-2.023a.19.19 0 00.017.043c-.012 0-.02 0-.028-.004a.492.492 0 00.012-.04zm-.456.207a.116.116 0 01-.07.023.187.187 0 00.07-.023zm0 0"/></g></g></g></g><g clip-path="url(#prefix__an)"><g clip-path="url(#prefix__ao)"><g clip-path="url(#prefix__ap)"><g clip-path="url(#prefix__aq)"><path fill="#fff" d="M203.68 215.215c.047-.04.09-.082.136-.121-.078.008-.12.047-.136.12zm0 0"/></g></g></g></g><g clip-path="url(#prefix__ar)"><g clip-path="url(#prefix__as)"><g clip-path="url(#prefix__at)"><g clip-path="url(#prefix__au)"><path fill="#fff" d="M87.441 211.027a.107.107 0 00-.09.063c-.144 0-.222-.219-.398-.117-.453-.032-.621.273-.742.629-.34.992-.512 2.02-.621 3.054-.39 3.715.015 7.332 1.066 10.903 1.84 6.238 5.547 11.12 10.625 15.023 2.356 1.813 4.989 3.176 7.684 4.414 1.586.727 3.21 1.36 4.82 2.027l.203-.003c.055.054.13.105.149.167v.004c.015.051-.059.075-.117.051-.668.172-1.348.203-2.028.196-.469-.008-.918.023-1.36.19-1.003-.019-1.624.485-1.765 1.392 1.758.933 3.621.824 5.512.554.703-.101 1.41-.152 2.117-.215 1.692-.148 1.438-.222 2.047-1.468.137-.278.207-.582.242-.891.016-.113.02-.219-.062-.313.14-.324-.051-.55-.246-.757-.579-.625-1.165-1.243-1.75-1.864-.04-.199-.184-.32-.332-.437-.036-.2-.184-.32-.32-.445-.005-.149-.122-.23-.192-.34-.938-1.469-1.7-3.028-2.192-4.715-.035-.125-.082-.25-.125-.375-.05-.149-.105-.32-.285-.316-.136.003-.261.144-.277.257-.074.512-.442.895-.555 1.383-.05.215-.008.434.04.652.35 1.7 1 3.286 1.808 4.813.074.133.168.262.21.406.048.172-.085.227-.23.246a.353.353 0 00-.402-.156c-.117-.113-.238-.219-.422-.168-.012-.043-.035-.055-.078-.035-.105-.113-.223-.203-.395-.164-.09-.063-.171-.137-.27-.18-1.081-.492-2.167-.965-3.241-1.465-.973-.457-1.934-.941-2.899-1.414-.238-.156-.472-.324-.715-.468-2.367-1.43-4.52-3.125-6.41-5.141-.675-.719-1.328-1.457-1.988-2.191-.043-.211-.2-.329-.355-.45-.036-.203-.184-.32-.332-.437-.02-.196-.168-.297-.293-.414-.004-.133-.079-.211-.184-.274-.004-.047-.027-.078-.074-.09-.004-.144-.117-.23-.184-.34-.324-.538-.742-1.019-1-1.605-.074-.008-.21-.125-.14.102.05.152.02.187-.032.183-.047-.008-.117-.043-.172-.066-.964-1.746-1.71-3.59-2.336-5.484-.039-.18-.082-.364-.125-.543-.246-1.086-.496-2.168-.742-3.25a.189.189 0 00.012-.122.228.228 0 00-.043-.07c.035-.07.023-.129-.027-.183a.153.153 0 00-.028-.188c.035-.066.024-.129-.027-.184.035-.07.027-.132-.027-.187.043-.07.03-.129-.024-.184v-.004c.04-.066.035-.128-.02-.183v-.004a2.805 2.805 0 00-.019-.18v-.008c.04-.066.031-.125-.02-.183v-.004c.04-.066.032-.125-.019-.184v-.004-.003.003c.04-.066.035-.128-.02-.183v-.004c.044-.066.036-.129-.019-.184l.004-.004c.039-.066.035-.128-.02-.187-.011-.578-.023-1.152-.039-1.73-.101-.301-.05-.606-.043-.91a.208.208 0 01.094-.024.23.23 0 01.14.035c.032-.227.079-.453 0-.684a.425.425 0 01-.038-.21c.011.07.023.14.039.21.023-.07.039-.14-.024-.195.075-.09.078-.187.043-.297.047-.058.059-.117.008-.18.035-.07.05-.136.004-.203.02-.035.027-.066.016-.105.07-.219.09-.438.054-.664.043-.156.086-.313.043-.477.063-.09.051-.191.047-.293.16-.617.203-1.257.492-1.875-.238.008-.379-.207-.586-.082zm21.852 33.91c-.004 0-.004 0-.004-.003v0s.004 0 .004-.004v.007zm-22.43-25.777c0 .016 0 .031-.004.047v-.012c-.004-.015-.004-.027-.004-.039 0 0 .004 0 .008.004zm.617 1.977h-.035.032c.003-.004 0-.004.003-.004-.003 0 0 0 0 .004zm-.675-2.008c.015.008.03.016.047.023 0 .016.003.028.003.04a.091.091 0 00-.05-.063zm.058.148v0zm-.086-7.238v-.004-.004-.004c.004.004 0 .008 0 .012zm-.07.274c0 .003-.004.003-.004.007.004 0 .004-.007.004-.007zm.535 2.78l-.043-.011c.004-.008.012-.016.016-.02.008.012.02.02.027.032zm.09-.491a.16.16 0 01.02-.07h.003c-.011.023-.023.046-.023.07zm0 0"/></g></g></g></g><g clip-path="url(#prefix__av)"><g clip-path="url(#prefix__aw)"><g clip-path="url(#prefix__ax)"><g clip-path="url(#prefix__ay)"><path fill="#fff" d="M87.281 219.645c.004.062.012.12.02.183.039-.07.031-.129-.02-.183zm0 0"/></g></g></g></g><path transform="matrix(.74987 .00605 -.00605 .74998 136.49 77.868)" fill="none" d="M-.002 1.999L223.036 2" stroke="#000" stroke-width="4"/><path transform="matrix(.75062 -.00364 .00364 .75 135.126 291.168)" fill="none" d="M0 2l224.814.002" stroke="#000" stroke-width="4"/><g clip-path="url(#prefix__az)"><path fill="#5ce1e6" d="M294.695 306.992l-8.492-9.492a.946.946 0 00-.703-.316h-5.664a.95.95 0 00-.863.562.956.956 0 00.164 1.02l7.922 8.863-7.922 8.855a.95.95 0 00.7 1.586h5.663c.266 0 .52-.117.703-.312l8.492-9.496c.32-.36.32-.91 0-1.27zm0 0"/></g><g clip-path="url(#prefix__aA)"><path fill="#5ce1e6" d="M282.426 306.992l-8.492-9.492a.94.94 0 00-.704-.316h-5.66a.947.947 0 00-.703 1.582l7.926 8.863-7.926 8.855a.955.955 0 00-.16 1.024.94.94 0 00.863.562h5.66c.27 0 .52-.117.704-.312l8.492-9.496a.95.95 0 000-1.27zm0 0"/></g><g clip-path="url(#prefix__aB)"><path fill="#38b6ff" d="M257.57 306.992l-8.492-9.492a.946.946 0 00-.703-.316h-5.664a.95.95 0 00-.863.562.962.962 0 00.16 1.02l7.926 8.863-7.926 8.855a.95.95 0 00.703 1.586h5.664c.266 0 .52-.117.703-.312l8.492-9.496c.32-.36.32-.91 0-1.27zm0 0"/></g><g clip-path="url(#prefix__aC)"><path fill="#38b6ff" d="M245.3 306.992l-8.491-9.492a.94.94 0 00-.704-.316h-5.66a.947.947 0 00-.703 1.582l7.926 8.863-7.926 8.855a.955.955 0 00-.16 1.024.94.94 0 00.863.562h5.66c.27 0 .52-.117.704-.312l8.492-9.496a.95.95 0 000-1.27zm0 0"/></g><g clip-path="url(#prefix__aD)"><path fill="#38b6ff" d="M220.445 306.992l-8.492-9.492a.946.946 0 00-.703-.316h-5.664a.95.95 0 00-.863.562.956.956 0 00.164 1.02l7.922 8.863-7.922 8.855a.95.95 0 00.7 1.586h5.663c.266 0 .52-.117.703-.312l8.492-9.496c.32-.36.32-.91 0-1.27zm0 0"/></g><g clip-path="url(#prefix__aE)"><path fill="#38b6ff" d="M208.176 306.992l-8.492-9.492a.94.94 0 00-.704-.316h-5.66a.947.947 0 00-.703 1.582l7.926 8.863-7.926 8.855a.955.955 0 00-.16 1.024.94.94 0 00.863.562h5.66c.27 0 .52-.117.704-.312l8.492-9.496a.95.95 0 000-1.27zm0 0"/></g><g clip-path="url(#prefix__aF)"><path fill="#38b6ff" d="M183.32 306.992l-8.492-9.492a.946.946 0 00-.703-.316h-5.664a.95.95 0 00-.863.562.956.956 0 00.164 1.02l7.922 8.863-7.922 8.855a.95.95 0 00.7 1.586h5.663c.266 0 .52-.117.703-.312l8.492-9.496c.32-.36.32-.91 0-1.27zm0 0"/></g><g clip-path="url(#prefix__aG)"><path fill="#38b6ff" d="M171.05 306.992l-8.491-9.492a.94.94 0 00-.704-.316h-5.66a.947.947 0 00-.703 1.582l7.926 8.863-7.926 8.855a.955.955 0 00-.16 1.024.94.94 0 00.863.562h5.66c.27 0 .52-.117.704-.312l8.492-9.496a.95.95 0 000-1.27zm0 0"/></g><g clip-path="url(#prefix__aH)"><g clip-path="url(#prefix__aI)"><g clip-path="url(#prefix__aJ)"><path fill="#5ce1e6" d="M146.184 306.746l-8.66-9.344a.948.948 0 00-.708-.3l-5.66.097a.947.947 0 00-.851.578.956.956 0 00.175 1.02l8.083 8.719-7.77 8.996a.952.952 0 00.73 1.574l5.665-.102a.96.96 0 00.695-.324l8.324-9.644a.954.954 0 00-.023-1.27zm0 0"/></g></g></g><g clip-path="url(#prefix__aK)"><g clip-path="url(#prefix__aL)"><g clip-path="url(#prefix__aM)"><path fill="#5ce1e6" d="M133.918 306.96l-8.66-9.339a.937.937 0 00-.707-.305l-5.66.102a.95.95 0 00-.856.578.95.95 0 00.18 1.016l8.082 8.718-7.77 8.997a.959.959 0 00-.14 1.027c.16.34.5.555.87.547l5.665-.098a.979.979 0 00.695-.328l8.324-9.64a.96.96 0 00-.023-1.274zm0 0"/></g></g></g><g clip-path="url(#prefix__aN)"><g clip-path="url(#prefix__aO)"><g clip-path="url(#prefix__aP)"><path fill="#38b6ff" d="M99.406 301.191l-2.023-12.574a.945.945 0 00-.422-.644l-4.766-3.059a.949.949 0 00-1.445.953l1.887 11.738-11.453 3.176a.951.951 0 00-.266 1.715l4.766 3.059c.226.144.5.183.761.113l12.274-3.406a.954.954 0 00.687-1.07zm0 0"/></g></g></g><g clip-path="url(#prefix__aQ)"><g clip-path="url(#prefix__aR)"><g clip-path="url(#prefix__aS)"><path fill="#38b6ff" d="M89.078 294.57l-2.023-12.578a.94.94 0 00-.422-.644l-4.766-3.055a.942.942 0 00-1.027.004.966.966 0 00-.418.95l1.887 11.733-11.454 3.18a.954.954 0 00-.687.774.945.945 0 00.422.937l4.77 3.059c.222.144.5.183.757.117l12.278-3.406a.957.957 0 00.683-1.07zm0 0"/></g></g></g><g clip-path="url(#prefix__aT)"><g clip-path="url(#prefix__aU)"><g clip-path="url(#prefix__aV)"><path fill="#38b6ff" d="M61.434 282.32l.468-12.73a.94.94 0 00-.289-.715l-4.078-3.93a.945.945 0 00-1.012-.191.955.955 0 00-.593.848l-.438 11.878-11.851.883a.942.942 0 00-.825.625.94.94 0 00.23 1.004l4.079 3.926a.951.951 0 00.723.262l12.703-.946a.957.957 0 00.883-.914zm0 0"/></g></g></g><g clip-path="url(#prefix__aW)"><g clip-path="url(#prefix__aX)"><g clip-path="url(#prefix__aY)"><path fill="#38b6ff" d="M52.598 273.809l.468-12.73a.96.96 0 00-.289-.716l-4.078-3.925a.948.948 0 00-1.605.652l-.438 11.879-11.851.883a.948.948 0 00-.825.625.94.94 0 00.23 1.003l4.08 3.93a.96.96 0 00.722.262l12.703-.95a.957.957 0 00.883-.913zm0 0"/></g></g></g><g clip-path="url(#prefix__aZ)"><g clip-path="url(#prefix__ba)"><g clip-path="url(#prefix__bb)"><path fill="#38b6ff" d="M36.793 250.25l3.941-12.113a.938.938 0 00-.082-.766l-2.843-4.894a.95.95 0 00-1.723.187L32.41 243.97l-11.64-2.399a.947.947 0 00-.965.375.944.944 0 00-.055 1.028l2.848 4.894c.132.235.359.395.62.45l12.477 2.574a.95.95 0 001.098-.641zm0 0"/></g></g></g><g clip-path="url(#prefix__bc)"><g clip-path="url(#prefix__bd)"><g clip-path="url(#prefix__be)"><path fill="#38b6ff" d="M30.629 239.645l3.941-12.114a.938.938 0 00-.082-.765l-2.843-4.895a.946.946 0 00-.922-.465.954.954 0 00-.801.653l-3.676 11.304-11.644-2.402a.958.958 0 00-.961.375.943.943 0 00-.055 1.031l2.844 4.895c.136.23.363.39.625.449l12.476 2.57a.952.952 0 001.098-.636zm0 0"/></g></g></g><g clip-path="url(#prefix__bf)"><path fill="#5ce1e6" d="M20.016 200.004l9.492-8.492a.934.934 0 00.316-.703v-5.66a.945.945 0 00-.562-.864.946.946 0 00-1.02.16l-8.863 7.926-8.856-7.926a.955.955 0 00-1.023-.16.945.945 0 00-.563.863v5.66c0 .27.114.524.313.704l9.496 8.492a.95.95 0 001.27 0zm0 0"/></g><g clip-path="url(#prefix__bg)"><path fill="#5ce1e6" d="M20.016 187.738l9.492-8.496a.932.932 0 00.316-.699v-5.664a.95.95 0 00-.562-.863.961.961 0 00-1.02.16l-8.863 7.926-8.856-7.926a.95.95 0 00-1.586.703v5.664c0 .266.114.52.313.7l9.496 8.495c.36.32.91.32 1.27 0zm0 0"/></g><g clip-path="url(#prefix__bh)"><g clip-path="url(#prefix__bi)"><g clip-path="url(#prefix__bj)"><path fill="#38b6ff" d="M22.281 145.098l12.64-1.57a.951.951 0 00.661-.4l3.227-4.651a.95.95 0 00-.903-1.48L26.11 138.46l-2.765-11.559a.952.952 0 00-1.703-.324l-3.227 4.652a.948.948 0 00-.14.758l2.964 12.387a.949.949 0 001.043.723zm0 0"/></g></g></g><g clip-path="url(#prefix__bk)"><g clip-path="url(#prefix__bl)"><g clip-path="url(#prefix__bm)"><path fill="#38b6ff" d="M29.27 135.016l12.64-1.575a.933.933 0 00.66-.394l3.223-4.656a.935.935 0 00.031-1.028.953.953 0 00-.93-.449l-11.796 1.465-2.766-11.559a.963.963 0 00-.75-.715.941.941 0 00-.953.387l-3.227 4.656a.936.936 0 00-.14.754l2.965 12.391a.95.95 0 001.043.723zm0 0"/></g></g></g><g clip-path="url(#prefix__bn)"><g clip-path="url(#prefix__bo)"><g clip-path="url(#prefix__bp)"><path fill="#38b6ff" d="M45.11 108.906l12.671 1.317a.941.941 0 00.73-.239l4.192-3.808a.948.948 0 00.258-.996.954.954 0 00-.805-.649l-11.824-1.226-.09-11.887a.948.948 0 00-1.586-.7l-4.191 3.805a.97.97 0 00-.309.707l.098 12.739c.004.484.375.89.855.937zm0 0"/></g></g></g><g clip-path="url(#prefix__bq)"><g clip-path="url(#prefix__br)"><g clip-path="url(#prefix__bs)"><path fill="#38b6ff" d="M54.188 100.656l12.671 1.317a.936.936 0 00.73-.239l4.192-3.808a.942.942 0 00.262-.996.958.958 0 00-.805-.649l-11.824-1.226-.09-11.887a.95.95 0 00-1.586-.7l-4.191 3.805a.955.955 0 00-.309.707l.098 12.739c.004.484.375.89.852.937zm0 0"/></g></g></g><g clip-path="url(#prefix__bt)"><g clip-path="url(#prefix__bu)"><g clip-path="url(#prefix__bv)"><path fill="#38b6ff" d="M75.379 84.59l11.808 4.773c.254.098.532.09.77-.027l5.082-2.5a.95.95 0 00.527-.883.958.958 0 00-.597-.848l-11.02-4.453 3.203-11.445a.946.946 0 00-.304-.988.943.943 0 00-1.024-.125l-5.082 2.496a.974.974 0 00-.492.59l-3.434 12.27a.957.957 0 00.563 1.14zm0 0"/></g></g></g><g clip-path="url(#prefix__bw)"><g clip-path="url(#prefix__bx)"><g clip-path="url(#prefix__by)"><path fill="#38b6ff" d="M86.387 79.176l11.812 4.773c.25.102.528.094.77-.027l5.082-2.496a.945.945 0 00.523-.887.945.945 0 00-.594-.844l-11.02-4.457 3.204-11.445a.958.958 0 00-.305-.988.952.952 0 00-1.023-.125l-5.082 2.5a.94.94 0 00-.492.59l-3.434 12.265a.953.953 0 00.559 1.14zm0 0"/></g></g></g><g clip-path="url(#prefix__bz)"><path fill="#5ce1e6" d="M118.215 68.148l8.492 9.493a.946.946 0 00.703.316h5.664a.95.95 0 00.863-.562.956.956 0 00-.164-1.02l-7.921-8.86 7.921-8.859a.95.95 0 00-.7-1.586h-5.663a.971.971 0 00-.703.313l-8.492 9.496c-.32.36-.32.91 0 1.27zm0 0"/></g><g clip-path="url(#prefix__bA)"><path fill="#5ce1e6" d="M130.484 68.148l8.493 9.493a.94.94 0 00.703.316h5.66a.947.947 0 00.703-1.582l-7.926-8.86 7.926-8.859a.955.955 0 00.16-1.023.94.94 0 00-.863-.563h-5.66c-.27 0-.52.117-.703.313l-8.493 9.496a.95.95 0 000 1.27zm0 0"/></g><g clip-path="url(#prefix__bB)"><g clip-path="url(#prefix__bC)"><g clip-path="url(#prefix__bD)"><path fill="#38b6ff" d="M154.75 67.309l8.207 9.746a.943.943 0 00.691.336l5.66.168a.948.948 0 00.75-1.563l-7.656-9.094 8.188-8.613a.948.948 0 00.191-1.016.931.931 0 00-.844-.59l-5.66-.171a.955.955 0 00-.71.293l-8.778 9.234a.96.96 0 00-.039 1.27zm0 0"/></g></g></g><g clip-path="url(#prefix__bE)"><g clip-path="url(#prefix__bF)"><g clip-path="url(#prefix__bG)"><path fill="#38b6ff" d="M167.016 67.676l8.203 9.746a.936.936 0 00.691.336l5.66.172a.948.948 0 00.75-1.563l-7.656-9.094 8.188-8.617a.946.946 0 00.191-1.015.944.944 0 00-.844-.59l-5.66-.172a.955.955 0 00-.71.293l-8.778 9.234a.955.955 0 00-.035 1.27zm0 0"/></g></g></g><g clip-path="url(#prefix__bH)"><g clip-path="url(#prefix__bI)"><g clip-path="url(#prefix__bJ)"><path fill="#5ce1e6" d="M266.402 67.309l8.207 9.746a.943.943 0 00.692.336l5.66.168a.948.948 0 00.75-1.563l-7.656-9.094 8.187-8.613a.948.948 0 00.192-1.016.931.931 0 00-.844-.59l-5.66-.171a.955.955 0 00-.711.293l-8.778 9.234a.96.96 0 00-.039 1.27zm0 0"/></g></g></g><g clip-path="url(#prefix__bK)"><g clip-path="url(#prefix__bL)"><g clip-path="url(#prefix__bM)"><path fill="#5ce1e6" d="M278.668 67.676l8.203 9.746a.936.936 0 00.692.336l5.66.172a.948.948 0 00.75-1.563l-7.657-9.094 8.188-8.617a.946.946 0 00.191-1.015.944.944 0 00-.843-.59l-5.66-.172a.955.955 0 00-.712.293l-8.777 9.234a.955.955 0 00-.035 1.27zm0 0"/></g></g></g><g clip-path="url(#prefix__bN)"><g clip-path="url(#prefix__bO)"><g clip-path="url(#prefix__bP)"><path fill="#38b6ff" d="M229.277 67.309l8.207 9.746a.943.943 0 00.692.336l5.66.168a.948.948 0 00.75-1.563l-7.656-9.094 8.187-8.613a.948.948 0 00.192-1.016.931.931 0 00-.844-.59l-5.66-.171a.955.955 0 00-.711.293l-8.778 9.234a.96.96 0 00-.039 1.27zm0 0"/></g></g></g><g clip-path="url(#prefix__bQ)"><g clip-path="url(#prefix__bR)"><g clip-path="url(#prefix__bS)"><path fill="#38b6ff" d="M241.543 67.676l8.203 9.746a.936.936 0 00.691.336l5.66.172a.948.948 0 00.75-1.563l-7.656-9.094 8.188-8.617a.946.946 0 00.191-1.015.944.944 0 00-.843-.59l-5.66-.172a.955.955 0 00-.712.293l-8.777 9.234a.955.955 0 00-.035 1.27zm0 0"/></g></g></g><g clip-path="url(#prefix__bT)"><g clip-path="url(#prefix__bU)"><g clip-path="url(#prefix__bV)"><path fill="#38b6ff" d="M192.762 67.309l8.203 9.746a.958.958 0 00.695.336l5.656.168a.95.95 0 00.883-.536.957.957 0 00-.133-1.027l-7.652-9.094 8.188-8.613a.956.956 0 00.191-1.016.937.937 0 00-.848-.59l-5.656-.171a.964.964 0 00-.715.293l-8.773 9.234a.955.955 0 00-.04 1.27zm0 0"/></g></g></g><g clip-path="url(#prefix__bW)"><g clip-path="url(#prefix__bX)"><g clip-path="url(#prefix__bY)"><path fill="#38b6ff" d="M205.023 67.676l8.207 9.746a.93.93 0 00.692.336l5.66.172a.948.948 0 00.75-1.563l-7.656-9.094 8.187-8.617a.946.946 0 00.192-1.015.944.944 0 00-.844-.59l-5.66-.172a.955.955 0 00-.711.293l-8.778 9.234a.96.96 0 00-.039 1.27zm0 0"/></g></g></g></svg>