<svg xmlns="http://www.w3.org/2000/svg" xmlns:xlink="http://www.w3.org/1999/xlink" width="450" zoomAndPan="magnify" viewBox="0 0 337.5 374.999991" height="500" preserveAspectRatio="xMidYMid meet" version="1.0"><defs><clipPath id="d5a1396a81"><path d="M 0 52.777344 L 303.75 52.777344 L 303.75 323 L 0 323 Z M 0 52.777344 " clip-rule="nonzero"/></clipPath><clipPath id="a89ff6e97f"><path d="M 7.917969 142.824219 C 3.136719 156.667969 0 172.40625 0 187.851562 C 0 203.296875 2.6875 218.15625 7.46875 231.855469 C 7.621094 232.144531 7.621094 232.4375 7.769531 232.730469 C 26.890625 284.164062 77.390625 322.050781 135.65625 322.777344 L 303.75 322.777344 L 303.75 52.777344 L 135.78125 52.777344 C 77.09375 53.507812 26.59375 90.808594 7.917969 142.824219 " clip-rule="nonzero"/></clipPath><clipPath id="86d5d6b855"><path d="M 0 52.777344 L 303.75 52.777344 L 303.75 322.777344 L 0 322.777344 Z M 0 52.777344 " clip-rule="nonzero"/></clipPath><clipPath id="204e7e8e8c"><path d="M 7.917969 142.824219 C 3.136719 156.667969 0 172.40625 0 187.851562 C 0 203.296875 2.6875 218.15625 7.46875 231.855469 C 7.621094 232.144531 7.621094 232.4375 7.769531 232.730469 C 26.890625 284.164062 77.390625 322.050781 135.65625 322.777344 L 303.75 322.777344 L 303.75 52.777344 L 135.78125 52.777344 C 77.09375 53.507812 26.59375 90.808594 7.917969 142.824219 " clip-rule="nonzero"/></clipPath><clipPath id="2a4c7c7858"><path d="M 34 77 L 251 77 L 251 294 L 34 294 Z M 34 77 " clip-rule="nonzero"/></clipPath><clipPath id="3580638bb8"><path d="M 144.621094 32.996094 L 295.78125 187.695312 L 141.078125 338.855469 L -10.078125 184.15625 Z M 144.621094 32.996094 " clip-rule="nonzero"/></clipPath><clipPath id="7e900f76fb"><path d="M 220.097656 110.242188 C 178.414062 67.582031 110.035156 66.789062 67.375 108.476562 C 24.710938 150.160156 23.921875 218.539062 65.605469 261.199219 C 107.292969 303.863281 175.667969 304.652344 218.332031 262.96875 C 260.992188 221.28125 261.785156 152.90625 220.097656 110.242188 " clip-rule="nonzero"/></clipPath><clipPath id="ae6e18dbd9"><path d="M 34 77 L 251 77 L 251 294 L 34 294 Z M 34 77 " clip-rule="nonzero"/></clipPath><clipPath id="ebf829d4cc"><path d="M 144.621094 32.996094 L 295.578125 187.488281 L 141.085938 338.445312 L -9.871094 183.953125 Z M 144.621094 32.996094 " clip-rule="nonzero"/></clipPath><clipPath id="dbd023d39f"><path d="M 144.621094 32.996094 L 297.710938 189.675781 L 141.035156 342.765625 L -12.054688 186.089844 Z M 144.621094 32.996094 " clip-rule="nonzero"/></clipPath><clipPath id="1ab0707d4d"><path d="M 220.097656 110.242188 C 178.414062 67.582031 110.035156 66.789062 67.375 108.476562 C 24.710938 150.160156 23.921875 218.539062 65.605469 261.199219 C 107.292969 303.863281 175.667969 304.652344 218.332031 262.96875 C 260.992188 221.28125 261.785156 152.90625 220.097656 110.242188 " clip-rule="nonzero"/></clipPath><clipPath id="e09806f508"><path d="M 160 130 L 195 130 L 195 166 L 160 166 Z M 160 130 " clip-rule="nonzero"/></clipPath><clipPath id="e6601a4548"><path d="M 182.140625 130.484375 L 195.15625 143.152344 L 172.890625 166.03125 L 159.875 153.363281 Z M 182.140625 130.484375 " clip-rule="nonzero"/></clipPath><clipPath id="2fe0edc9b2"><path d="M 182.140625 130.484375 L 194.871094 142.875 L 172.742188 165.613281 L 160.011719 153.222656 Z M 182.140625 130.484375 " clip-rule="nonzero"/></clipPath><clipPath id="b59af81d31"><path d="M 143 212 L 169 212 L 169 248 L 143 248 Z M 143 212 " clip-rule="nonzero"/></clipPath><clipPath id="3c6a0eec4a"><path d="M 143.5625 216.902344 L 161.09375 212.15625 L 169.4375 242.972656 L 151.90625 247.71875 Z M 143.5625 216.902344 " clip-rule="nonzero"/></clipPath><clipPath id="323b4238e8"><path d="M 143.5625 216.902344 L 160.710938 212.261719 L 169.003906 242.886719 L 151.855469 247.53125 Z M 143.5625 216.902344 " clip-rule="nonzero"/></clipPath><clipPath id="fa66e99d82"><path d="M 95 148 L 178 148 L 178 230 L 95 230 Z M 95 148 " clip-rule="nonzero"/></clipPath><clipPath id="4e7d7e41b9"><path d="M 85.34375 211.5625 L 106.652344 129.070312 L 178.289062 147.578125 L 156.980469 230.066406 Z M 85.34375 211.5625 " clip-rule="nonzero"/></clipPath><clipPath id="475dd1542a"><path d="M 95.914062 170.632812 L 177.433594 148.03125 L 156.285156 229.886719 L 95.914062 170.632812 " clip-rule="nonzero"/></clipPath><clipPath id="96fe621956"><path d="M 86 160 L 122 160 L 122 186 L 86 186 Z M 86 160 " clip-rule="nonzero"/></clipPath><clipPath id="22122a5408"><path d="M 86.046875 177.261719 L 90.589844 159.675781 L 121.5 167.660156 L 116.957031 185.25 Z M 86.046875 177.261719 " clip-rule="nonzero"/></clipPath><clipPath id="7206118150"><path d="M 86.046875 177.261719 L 90.492188 160.0625 L 121.210938 167.996094 L 116.769531 185.199219 Z M 86.046875 177.261719 " clip-rule="nonzero"/></clipPath><clipPath id="6ef4b33b9c"><path d="M 40 135 L 97 135 L 97 192 L 40 192 Z M 40 135 " clip-rule="nonzero"/></clipPath><clipPath id="e968d44842"><path d="M 87.554688 197.851562 L 34.035156 182.703125 L 49.183594 129.183594 L 102.703125 144.332031 Z M 87.554688 197.851562 " clip-rule="nonzero"/></clipPath><clipPath id="8c815b406d"><path d="M 60.792969 190.277344 C 75.574219 194.460938 90.945312 185.871094 95.128906 171.089844 C 99.3125 156.3125 90.722656 140.941406 75.945312 136.757812 C 61.164062 132.574219 45.792969 141.164062 41.609375 155.941406 C 37.425781 170.722656 46.015625 186.09375 60.792969 190.277344 " clip-rule="nonzero"/></clipPath><clipPath id="01ddbcaa5d"><path d="M 40 135 L 97 135 L 97 192 L 40 192 Z M 40 135 " clip-rule="nonzero"/></clipPath><clipPath id="315ef849bc"><path d="M 87.554688 197.851562 L 34.152344 182.734375 L 49.269531 129.335938 L 102.671875 144.449219 Z M 87.554688 197.851562 " clip-rule="nonzero"/></clipPath><clipPath id="786d14c413"><path d="M 87.554688 197.851562 L 34.152344 182.734375 L 49.269531 129.335938 L 102.671875 144.449219 Z M 87.554688 197.851562 " clip-rule="nonzero"/></clipPath><clipPath id="e301950fde"><path d="M 60.855469 190.292969 C 75.601562 194.46875 90.9375 185.898438 95.113281 171.152344 C 99.285156 156.402344 90.714844 141.066406 75.96875 136.890625 C 61.222656 132.71875 45.882812 141.289062 41.710938 156.035156 C 37.535156 170.78125 46.105469 186.121094 60.855469 190.292969 " clip-rule="nonzero"/></clipPath><clipPath id="fd211fa073"><path d="M 136 230 L 193 230 L 193 287 L 136 287 Z M 136 230 " clip-rule="nonzero"/></clipPath><clipPath id="3d60ced9f2"><path d="M 144.921875 293.011719 L 130.0625 239.414062 L 183.664062 224.554688 L 198.523438 278.15625 Z M 144.921875 293.011719 " clip-rule="nonzero"/></clipPath><clipPath id="b487ec19e1"><path d="M 137.492188 266.210938 C 141.59375 281.015625 156.921875 289.6875 171.722656 285.585938 C 186.523438 281.480469 195.195312 266.15625 191.09375 251.355469 C 186.992188 236.554688 171.664062 227.878906 156.863281 231.984375 C 142.0625 236.085938 133.390625 251.410156 137.492188 266.210938 " clip-rule="nonzero"/></clipPath><clipPath id="58273da864"><path d="M 136 231 L 193 231 L 193 287 L 136 287 Z M 136 231 " clip-rule="nonzero"/></clipPath><clipPath id="92667aae3c"><path d="M 144.921875 293.011719 L 130.097656 239.53125 L 183.578125 224.703125 L 198.40625 278.1875 Z M 144.921875 293.011719 " clip-rule="nonzero"/></clipPath><clipPath id="053877b457"><path d="M 144.921875 293.011719 L 130.097656 239.53125 L 183.578125 224.703125 L 198.40625 278.1875 Z M 144.921875 293.011719 " clip-rule="nonzero"/></clipPath><clipPath id="1ab2238946"><path d="M 137.507812 266.273438 C 141.601562 281.039062 156.894531 289.695312 171.664062 285.601562 C 186.433594 281.507812 195.085938 266.214844 190.992188 251.445312 C 186.898438 236.675781 171.605469 228.023438 156.835938 232.117188 C 142.070312 236.210938 133.414062 251.503906 137.507812 266.273438 " clip-rule="nonzero"/></clipPath><clipPath id="b6831d60d9"><path d="M 167 101 L 224 101 L 224 158 L 167 158 Z M 167 101 " clip-rule="nonzero"/></clipPath><clipPath id="cb889584b9"><path d="M 214.847656 164.058594 L 161.328125 148.910156 L 176.476562 95.390625 L 229.996094 110.539062 Z M 214.847656 164.058594 " clip-rule="nonzero"/></clipPath><clipPath id="10a0f155dd"><path d="M 188.089844 156.484375 C 202.867188 160.667969 218.238281 152.078125 222.421875 137.300781 C 226.605469 122.519531 218.015625 107.148438 203.238281 102.964844 C 188.457031 98.78125 173.085938 107.371094 168.902344 122.152344 C 164.71875 136.929688 173.308594 152.300781 188.089844 156.484375 " clip-rule="nonzero"/></clipPath><clipPath id="f1cdb18d92"><path d="M 167 102 L 224 102 L 224 158 L 167 158 Z M 167 102 " clip-rule="nonzero"/></clipPath><clipPath id="ffe995d43d"><path d="M 214.847656 164.058594 L 161.445312 148.945312 L 176.5625 95.542969 L 229.964844 110.65625 Z M 214.847656 164.058594 " clip-rule="nonzero"/></clipPath><clipPath id="17f709655b"><path d="M 214.847656 164.058594 L 161.445312 148.945312 L 176.5625 95.542969 L 229.964844 110.65625 Z M 214.847656 164.058594 " clip-rule="nonzero"/></clipPath><clipPath id="369f0b65d2"><path d="M 188.148438 156.5 C 202.894531 160.675781 218.230469 152.105469 222.40625 137.359375 C 226.582031 122.613281 218.007812 107.273438 203.261719 103.101562 C 188.515625 98.925781 173.179688 107.496094 169.003906 122.242188 C 164.832031 136.988281 173.402344 152.328125 188.148438 156.5 " clip-rule="nonzero"/></clipPath><clipPath id="12c71eb3e5"><path d="M 61 156 L 76 156 L 76 171 L 61 171 Z M 61 156 " clip-rule="nonzero"/></clipPath><clipPath id="de63b4a055"><path d="M 59.867188 168.535156 L 63.359375 155.019531 L 76.875 158.507812 L 73.382812 172.023438 Z M 59.867188 168.535156 " clip-rule="nonzero"/></clipPath><clipPath id="b4319b2611"><path d="M 61.613281 161.777344 C 60.648438 165.507812 62.894531 169.316406 66.625 170.277344 C 70.359375 171.242188 74.164062 169 75.128906 165.265625 C 76.09375 161.535156 73.847656 157.726562 70.117188 156.761719 C 66.386719 155.800781 62.578125 158.042969 61.613281 161.777344 " clip-rule="nonzero"/></clipPath><clipPath id="5083a6e302"><path d="M 157 251 L 172 251 L 172 266 L 157 266 Z M 157 251 " clip-rule="nonzero"/></clipPath><clipPath id="e83dc71ac9"><path d="M 155.699219 253.925781 L 169.152344 250.199219 L 172.882812 263.652344 L 159.429688 267.378906 Z M 155.699219 253.925781 " clip-rule="nonzero"/></clipPath><clipPath id="80cd396fb3"><path d="M 162.425781 252.0625 C 158.710938 253.09375 156.535156 256.9375 157.566406 260.652344 C 158.59375 264.367188 162.441406 266.546875 166.15625 265.515625 C 169.871094 264.484375 172.046875 260.640625 171.015625 256.925781 C 169.988281 253.210938 166.140625 251.035156 162.425781 252.0625 " clip-rule="nonzero"/></clipPath><clipPath id="7dde8e7a67"><path d="M 187 122 L 202 122 L 202 136 L 187 136 Z M 187 122 " clip-rule="nonzero"/></clipPath><clipPath id="16057fd35d"><path d="M 186.40625 134.027344 L 189.898438 120.511719 L 203.414062 124.003906 L 199.921875 137.519531 Z M 186.40625 134.027344 " clip-rule="nonzero"/></clipPath><clipPath id="d63a40079e"><path d="M 188.152344 127.269531 C 187.1875 131.003906 189.429688 134.808594 193.164062 135.773438 C 196.894531 136.738281 200.703125 134.496094 201.667969 130.761719 C 202.632812 127.03125 200.386719 123.222656 196.65625 122.257812 C 192.921875 121.292969 189.117188 123.539062 188.152344 127.269531 " clip-rule="nonzero"/></clipPath><clipPath id="554efe04e8"><path d="M 105 113 L 151 113 L 151 133 L 105 133 Z M 105 113 " clip-rule="nonzero"/></clipPath><clipPath id="3e429ed344"><path d="M 151.121094 118.917969 L 106.886719 135.523438 L 102.140625 122.882812 L 146.378906 106.28125 Z M 151.121094 118.917969 " clip-rule="nonzero"/></clipPath><clipPath id="76f42a016b"><path d="M 151.121094 118.917969 L 106.886719 135.523438 L 102.140625 122.882812 L 146.378906 106.28125 Z M 151.121094 118.917969 " clip-rule="nonzero"/></clipPath><clipPath id="f03d1e541d"><path d="M 151.121094 118.917969 L 106.886719 135.523438 L 102.140625 122.882812 L 146.378906 106.28125 Z M 151.121094 118.917969 " clip-rule="nonzero"/></clipPath><clipPath id="8494f72653"><path d="M 142 115 L 143 115 L 143 116 L 142 116 Z M 142 115 " clip-rule="nonzero"/></clipPath><clipPath id="def044097e"><path d="M 151.121094 118.917969 L 106.886719 135.523438 L 102.140625 122.882812 L 146.378906 106.28125 Z M 151.121094 118.917969 " clip-rule="nonzero"/></clipPath><clipPath id="ebfe0bb73c"><path d="M 151.121094 118.917969 L 106.886719 135.523438 L 102.140625 122.882812 L 146.378906 106.28125 Z M 151.121094 118.917969 " clip-rule="nonzero"/></clipPath><clipPath id="8183f9e1d7"><path d="M 151.121094 118.917969 L 106.886719 135.523438 L 102.140625 122.882812 L 146.378906 106.28125 Z M 151.121094 118.917969 " clip-rule="nonzero"/></clipPath><clipPath id="35048b255d"><path d="M 196 176 L 218 176 L 218 221 L 196 221 Z M 196 176 " clip-rule="nonzero"/></clipPath><clipPath id="cd413e4552"><path d="M 195.933594 220.632812 L 207.820312 174.898438 L 220.882812 178.296875 L 209 224.027344 Z M 195.933594 220.632812 " clip-rule="nonzero"/></clipPath><clipPath id="5cd7944da1"><path d="M 195.933594 220.632812 L 207.820312 174.898438 L 220.882812 178.296875 L 209 224.027344 Z M 195.933594 220.632812 " clip-rule="nonzero"/></clipPath><clipPath id="b28461a991"><path d="M 195.933594 220.632812 L 207.820312 174.898438 L 220.882812 178.296875 L 209 224.027344 Z M 195.933594 220.632812 " clip-rule="nonzero"/></clipPath><clipPath id="1bb52e990f"><path d="M 203 215 L 204 215 L 204 216 L 203 216 Z M 203 215 " clip-rule="nonzero"/></clipPath><clipPath id="2e564afcce"><path d="M 195.933594 220.632812 L 207.820312 174.898438 L 220.882812 178.296875 L 209 224.027344 Z M 195.933594 220.632812 " clip-rule="nonzero"/></clipPath><clipPath id="0f45d755b5"><path d="M 195.933594 220.632812 L 207.820312 174.898438 L 220.882812 178.296875 L 209 224.027344 Z M 195.933594 220.632812 " clip-rule="nonzero"/></clipPath><clipPath id="770e23525a"><path d="M 195.933594 220.632812 L 207.820312 174.898438 L 220.882812 178.296875 L 209 224.027344 Z M 195.933594 220.632812 " clip-rule="nonzero"/></clipPath><clipPath id="cbb180ae00"><path d="M 85 210 L 115 210 L 115 250 L 85 250 Z M 85 210 " clip-rule="nonzero"/></clipPath><clipPath id="d70d246445"><path d="M 87.242188 210.195312 L 118.046875 246.023438 L 107.808594 254.824219 L 77.007812 218.996094 Z M 87.242188 210.195312 " clip-rule="nonzero"/></clipPath><clipPath id="558d7c20d1"><path d="M 87.242188 210.195312 L 118.046875 246.023438 L 107.808594 254.824219 L 77.007812 218.996094 Z M 87.242188 210.195312 " clip-rule="nonzero"/></clipPath><clipPath id="f159562033"><path d="M 87.242188 210.195312 L 118.046875 246.023438 L 107.808594 254.824219 L 77.007812 218.996094 Z M 87.242188 210.195312 " clip-rule="nonzero"/></clipPath><clipPath id="9ec779dcb3"><path d="M 87 219 L 88 219 L 88 220 L 87 220 Z M 87 219 " clip-rule="nonzero"/></clipPath><clipPath id="b137d888e2"><path d="M 87.242188 210.195312 L 118.046875 246.023438 L 107.808594 254.824219 L 77.007812 218.996094 Z M 87.242188 210.195312 " clip-rule="nonzero"/></clipPath><clipPath id="b3889be1c6"><path d="M 87.242188 210.195312 L 118.046875 246.023438 L 107.808594 254.824219 L 77.007812 218.996094 Z M 87.242188 210.195312 " clip-rule="nonzero"/></clipPath><clipPath id="257bcff42f"><path d="M 87.242188 210.195312 L 118.046875 246.023438 L 107.808594 254.824219 L 77.007812 218.996094 Z M 87.242188 210.195312 " clip-rule="nonzero"/></clipPath><clipPath id="f0faf0855f"><path d="M 278 297.128906 L 295 297.128906 L 295 318.128906 L 278 318.128906 Z M 278 297.128906 " clip-rule="nonzero"/></clipPath><clipPath id="6da3aa332e"><path d="M 266.625 297.128906 L 283 297.128906 L 283 318.128906 L 266.625 318.128906 Z M 266.625 297.128906 " clip-rule="nonzero"/></clipPath><clipPath id="d7611bc474"><path d="M 241 297.128906 L 258 297.128906 L 258 318.128906 L 241 318.128906 Z M 241 297.128906 " clip-rule="nonzero"/></clipPath><clipPath id="11efc1f0b2"><path d="M 229.5 297.128906 L 246 297.128906 L 246 318.128906 L 229.5 318.128906 Z M 229.5 297.128906 " clip-rule="nonzero"/></clipPath><clipPath id="ae4058613c"><path d="M 204 297.128906 L 220.875 297.128906 L 220.875 318.128906 L 204 318.128906 Z M 204 297.128906 " clip-rule="nonzero"/></clipPath><clipPath id="d518b0f1ef"><path d="M 192.375 297.128906 L 209 297.128906 L 209 318.128906 L 192.375 318.128906 Z M 192.375 297.128906 " clip-rule="nonzero"/></clipPath><clipPath id="0370f5fcbe"><path d="M 167 297.128906 L 183.75 297.128906 L 183.75 318.128906 L 167 318.128906 Z M 167 297.128906 " clip-rule="nonzero"/></clipPath><clipPath id="d04d3b486b"><path d="M 155.25 297.128906 L 172 297.128906 L 172 318.128906 L 155.25 318.128906 Z M 155.25 297.128906 " clip-rule="nonzero"/></clipPath><clipPath id="7c1b55f107"><path d="M 130 297 L 147 297 L 147 319 L 130 319 Z M 130 297 " clip-rule="nonzero"/></clipPath><clipPath id="2c91906963"><path d="M 117.945312 297.378906 L 146.441406 296.875 L 146.8125 317.871094 L 118.316406 318.375 Z M 117.945312 297.378906 " clip-rule="nonzero"/></clipPath><clipPath id="62fda7e112"><path d="M 117.945312 297.378906 L 146.441406 296.875 L 146.8125 317.871094 L 118.316406 318.375 Z M 117.945312 297.378906 " clip-rule="nonzero"/></clipPath><clipPath id="85cbe15ec8"><path d="M 117 297 L 135 297 L 135 319 L 117 319 Z M 117 297 " clip-rule="nonzero"/></clipPath><clipPath id="1271a75847"><path d="M 117.945312 297.378906 L 146.441406 296.875 L 146.8125 317.871094 L 118.316406 318.375 Z M 117.945312 297.378906 " clip-rule="nonzero"/></clipPath><clipPath id="d7b3ea63f6"><path d="M 117.945312 297.378906 L 146.441406 296.875 L 146.8125 317.871094 L 118.316406 318.375 Z M 117.945312 297.378906 " clip-rule="nonzero"/></clipPath><clipPath id="29e3340f38"><path d="M 80 284 L 100 284 L 100 306 L 80 306 Z M 80 284 " clip-rule="nonzero"/></clipPath><clipPath id="a99913b41c"><path d="M 81.105469 277.734375 L 105.09375 293.121094 L 93.757812 310.796875 L 69.765625 295.410156 Z M 81.105469 277.734375 " clip-rule="nonzero"/></clipPath><clipPath id="834fd2497f"><path d="M 81.105469 277.734375 L 105.09375 293.121094 L 93.757812 310.796875 L 69.765625 295.410156 Z M 81.105469 277.734375 " clip-rule="nonzero"/></clipPath><clipPath id="4fa9ab5782"><path d="M 70 278 L 90 278 L 90 300 L 70 300 Z M 70 278 " clip-rule="nonzero"/></clipPath><clipPath id="861f75a974"><path d="M 81.105469 277.734375 L 105.09375 293.121094 L 93.757812 310.796875 L 69.765625 295.410156 Z M 81.105469 277.734375 " clip-rule="nonzero"/></clipPath><clipPath id="81eb5a9db1"><path d="M 81.105469 277.734375 L 105.09375 293.121094 L 93.757812 310.796875 L 69.765625 295.410156 Z M 81.105469 277.734375 " clip-rule="nonzero"/></clipPath><clipPath id="2818fc983d"><path d="M 42 264 L 62 264 L 62 285 L 42 285 Z M 42 264 " clip-rule="nonzero"/></clipPath><clipPath id="4c91032646"><path d="M 48.058594 255.742188 L 68.585938 275.511719 L 54.019531 290.636719 L 33.492188 270.867188 Z M 48.058594 255.742188 " clip-rule="nonzero"/></clipPath><clipPath id="fe6815ebd4"><path d="M 48.058594 255.742188 L 68.585938 275.511719 L 54.019531 290.636719 L 33.492188 270.867188 Z M 48.058594 255.742188 " clip-rule="nonzero"/></clipPath><clipPath id="6a7f5179b1"><path d="M 33 256 L 54 256 L 54 276 L 33 276 Z M 33 256 " clip-rule="nonzero"/></clipPath><clipPath id="82f935f69e"><path d="M 48.058594 255.742188 L 68.585938 275.511719 L 54.019531 290.636719 L 33.492188 270.867188 Z M 48.058594 255.742188 " clip-rule="nonzero"/></clipPath><clipPath id="5e2eb8630d"><path d="M 48.058594 255.742188 L 68.585938 275.511719 L 54.019531 290.636719 L 33.492188 270.867188 Z M 48.058594 255.742188 " clip-rule="nonzero"/></clipPath><clipPath id="bb34e47750"><path d="M 19 232 L 41 232 L 41 251 L 19 251 Z M 19 232 " clip-rule="nonzero"/></clipPath><clipPath id="1d7fc97ec7"><path d="M 31.21875 221.023438 L 45.539062 245.664062 L 27.386719 256.21875 L 13.0625 231.578125 Z M 31.21875 221.023438 " clip-rule="nonzero"/></clipPath><clipPath id="37cac696a5"><path d="M 31.21875 221.023438 L 45.539062 245.664062 L 27.386719 256.21875 L 13.0625 231.578125 Z M 31.21875 221.023438 " clip-rule="nonzero"/></clipPath><clipPath id="28f299c2e2"><path d="M 13 221 L 35 221 L 35 241 L 13 241 Z M 13 221 " clip-rule="nonzero"/></clipPath><clipPath id="ee2b766b3d"><path d="M 31.21875 221.023438 L 45.539062 245.664062 L 27.386719 256.21875 L 13.0625 231.578125 Z M 31.21875 221.023438 " clip-rule="nonzero"/></clipPath><clipPath id="037fabedfc"><path d="M 31.21875 221.023438 L 45.539062 245.664062 L 27.386719 256.21875 L 13.0625 231.578125 Z M 31.21875 221.023438 " clip-rule="nonzero"/></clipPath><clipPath id="39025beba0"><path d="M 8.878906 184 L 29.878906 184 L 29.878906 200.4375 L 8.878906 200.4375 Z M 8.878906 184 " clip-rule="nonzero"/></clipPath><clipPath id="0fcd474285"><path d="M 8.878906 171.9375 L 29.878906 171.9375 L 29.878906 188 L 8.878906 188 Z M 8.878906 171.9375 " clip-rule="nonzero"/></clipPath><clipPath id="3fc7f6c6bf"><path d="M 18 126 L 39 126 L 39 146 L 18 146 Z M 18 126 " clip-rule="nonzero"/></clipPath><clipPath id="31f1670af4"><path d="M 46.378906 127.648438 L 30.144531 151.074219 L 12.882812 139.109375 L 29.117188 115.6875 Z M 46.378906 127.648438 " clip-rule="nonzero"/></clipPath><clipPath id="e3c6d1e4aa"><path d="M 46.378906 127.648438 L 30.144531 151.074219 L 12.882812 139.109375 L 29.117188 115.6875 Z M 46.378906 127.648438 " clip-rule="nonzero"/></clipPath><clipPath id="d1f820e60f"><path d="M 25 116 L 46 116 L 46 136 L 25 136 Z M 25 116 " clip-rule="nonzero"/></clipPath><clipPath id="ff64905a8e"><path d="M 46.378906 127.648438 L 30.144531 151.074219 L 12.882812 139.109375 L 29.117188 115.6875 Z M 46.378906 127.648438 " clip-rule="nonzero"/></clipPath><clipPath id="be9332755d"><path d="M 46.378906 127.648438 L 30.144531 151.074219 L 12.882812 139.109375 L 29.117188 115.6875 Z M 46.378906 127.648438 " clip-rule="nonzero"/></clipPath><clipPath id="0405690c2a"><path d="M 44 90 L 64 90 L 64 111 L 44 111 Z M 44 90 " clip-rule="nonzero"/></clipPath><clipPath id="d3b9c836b8"><path d="M 72.519531 97.335938 L 51.425781 116.5 L 37.304688 100.957031 L 58.398438 81.792969 Z M 72.519531 97.335938 " clip-rule="nonzero"/></clipPath><clipPath id="c28732aa6f"><path d="M 72.519531 97.335938 L 51.425781 116.5 L 37.304688 100.957031 L 58.398438 81.792969 Z M 72.519531 97.335938 " clip-rule="nonzero"/></clipPath><clipPath id="433ebaf64b"><path d="M 53 82 L 73 82 L 73 102 L 53 102 Z M 53 82 " clip-rule="nonzero"/></clipPath><clipPath id="d686f16cd9"><path d="M 72.519531 97.335938 L 51.425781 116.5 L 37.304688 100.957031 L 58.398438 81.792969 Z M 72.519531 97.335938 " clip-rule="nonzero"/></clipPath><clipPath id="d3dfdafabc"><path d="M 72.519531 97.335938 L 51.425781 116.5 L 37.304688 100.957031 L 58.398438 81.792969 Z M 72.519531 97.335938 " clip-rule="nonzero"/></clipPath><clipPath id="a602cc53e5"><path d="M 74 67 L 94 67 L 94 90 L 74 90 Z M 74 67 " clip-rule="nonzero"/></clipPath><clipPath id="12c6f7b70c"><path d="M 104.921875 81.058594 L 79.34375 93.632812 L 70.078125 74.785156 L 95.65625 62.214844 Z M 104.921875 81.058594 " clip-rule="nonzero"/></clipPath><clipPath id="5fc6c893de"><path d="M 104.921875 81.058594 L 79.34375 93.632812 L 70.078125 74.785156 L 95.65625 62.214844 Z M 104.921875 81.058594 " clip-rule="nonzero"/></clipPath><clipPath id="4a71af8a9b"><path d="M 85 62 L 105 62 L 105 85 L 85 85 Z M 85 62 " clip-rule="nonzero"/></clipPath><clipPath id="360ea42f0b"><path d="M 104.921875 81.058594 L 79.34375 93.632812 L 70.078125 74.785156 L 95.65625 62.214844 Z M 104.921875 81.058594 " clip-rule="nonzero"/></clipPath><clipPath id="0f80d36e20"><path d="M 104.921875 81.058594 L 79.34375 93.632812 L 70.078125 74.785156 L 95.65625 62.214844 Z M 104.921875 81.058594 " clip-rule="nonzero"/></clipPath><clipPath id="ad4e2f7f1f"><path d="M 117.785156 57.015625 L 135 57.015625 L 135 78 L 117.785156 78 Z M 117.785156 57.015625 " clip-rule="nonzero"/></clipPath><clipPath id="0004c478f6"><path d="M 130 57.015625 L 146.285156 57.015625 L 146.285156 78 L 130 78 Z M 130 57.015625 " clip-rule="nonzero"/></clipPath><clipPath id="fd9fb4bc8e"><path d="M 154 56 L 171 56 L 171 78 L 154 78 Z M 154 56 " clip-rule="nonzero"/></clipPath><clipPath id="66509c0f7a"><path d="M 182.511719 78.015625 L 154.023438 77.15625 L 154.65625 56.164062 L 183.144531 57.023438 Z M 182.511719 78.015625 " clip-rule="nonzero"/></clipPath><clipPath id="1b7d7b9b85"><path d="M 182.511719 78.015625 L 154.023438 77.15625 L 154.65625 56.164062 L 183.144531 57.023438 Z M 182.511719 78.015625 " clip-rule="nonzero"/></clipPath><clipPath id="e8c19dafe5"><path d="M 166 56 L 184 56 L 184 78 L 166 78 Z M 166 56 " clip-rule="nonzero"/></clipPath><clipPath id="163e912859"><path d="M 182.511719 78.015625 L 154.023438 77.15625 L 154.65625 56.164062 L 183.144531 57.023438 Z M 182.511719 78.015625 " clip-rule="nonzero"/></clipPath><clipPath id="dfe7004bfa"><path d="M 182.511719 78.015625 L 154.023438 77.15625 L 154.65625 56.164062 L 183.144531 57.023438 Z M 182.511719 78.015625 " clip-rule="nonzero"/></clipPath><clipPath id="50ecfa62f6"><path d="M 266 56 L 283 56 L 283 78 L 266 78 Z M 266 56 " clip-rule="nonzero"/></clipPath><clipPath id="3be5e0aaf6"><path d="M 294.164062 78.015625 L 265.675781 77.15625 L 266.308594 56.164062 L 294.796875 57.023438 Z M 294.164062 78.015625 " clip-rule="nonzero"/></clipPath><clipPath id="a39ffe079a"><path d="M 294.164062 78.015625 L 265.675781 77.15625 L 266.308594 56.164062 L 294.796875 57.023438 Z M 294.164062 78.015625 " clip-rule="nonzero"/></clipPath><clipPath id="38e6bae4fd"><path d="M 278 56 L 295 56 L 295 78 L 278 78 Z M 278 56 " clip-rule="nonzero"/></clipPath><clipPath id="fb6b777b3c"><path d="M 294.164062 78.015625 L 265.675781 77.15625 L 266.308594 56.164062 L 294.796875 57.023438 Z M 294.164062 78.015625 " clip-rule="nonzero"/></clipPath><clipPath id="dddb313856"><path d="M 294.164062 78.015625 L 265.675781 77.15625 L 266.308594 56.164062 L 294.796875 57.023438 Z M 294.164062 78.015625 " clip-rule="nonzero"/></clipPath><clipPath id="0a39f8d1ec"><path d="M 229 56 L 246 56 L 246 78 L 229 78 Z M 229 56 " clip-rule="nonzero"/></clipPath><clipPath id="a7c8b697b9"><path d="M 257.039062 78.015625 L 228.550781 77.15625 L 229.183594 56.164062 L 257.671875 57.023438 Z M 257.039062 78.015625 " clip-rule="nonzero"/></clipPath><clipPath id="7cf86756f1"><path d="M 257.039062 78.015625 L 228.550781 77.15625 L 229.183594 56.164062 L 257.671875 57.023438 Z M 257.039062 78.015625 " clip-rule="nonzero"/></clipPath><clipPath id="fab9b135f9"><path d="M 241 56 L 258 56 L 258 78 L 241 78 Z M 241 56 " clip-rule="nonzero"/></clipPath><clipPath id="a85fdfbe28"><path d="M 257.039062 78.015625 L 228.550781 77.15625 L 229.183594 56.164062 L 257.671875 57.023438 Z M 257.039062 78.015625 " clip-rule="nonzero"/></clipPath><clipPath id="6c3dc8ce8f"><path d="M 257.039062 78.015625 L 228.550781 77.15625 L 229.183594 56.164062 L 257.671875 57.023438 Z M 257.039062 78.015625 " clip-rule="nonzero"/></clipPath><clipPath id="569a390db1"><path d="M 192 56 L 209 56 L 209 78 L 192 78 Z M 192 56 " clip-rule="nonzero"/></clipPath><clipPath id="f846116c37"><path d="M 220.523438 78.015625 L 192.035156 77.15625 L 192.667969 56.164062 L 221.15625 57.023438 Z M 220.523438 78.015625 " clip-rule="nonzero"/></clipPath><clipPath id="a68450ebed"><path d="M 220.523438 78.015625 L 192.035156 77.15625 L 192.667969 56.164062 L 221.15625 57.023438 Z M 220.523438 78.015625 " clip-rule="nonzero"/></clipPath><clipPath id="258869ba75"><path d="M 204 56 L 222 56 L 222 78 L 204 78 Z M 204 56 " clip-rule="nonzero"/></clipPath><clipPath id="73c2ed6acb"><path d="M 220.523438 78.015625 L 192.035156 77.15625 L 192.667969 56.164062 L 221.15625 57.023438 Z M 220.523438 78.015625 " clip-rule="nonzero"/></clipPath><clipPath id="ec82ca7291"><path d="M 220.523438 78.015625 L 192.035156 77.15625 L 192.667969 56.164062 L 221.15625 57.023438 Z M 220.523438 78.015625 " clip-rule="nonzero"/></clipPath></defs><g clip-path="url(#d5a1396a81)"><g clip-path="url(#a89ff6e97f)"><path fill="#737373" d="M 303.75 52.777344 L 303.75 323.039062 L -0.132812 323.039062 L -0.132812 52.777344 Z M 303.75 52.777344 " fill-opacity="1" fill-rule="nonzero"/></g></g><g clip-path="url(#86d5d6b855)"><g clip-path="url(#204e7e8e8c)"><path stroke-linecap="butt" transform="matrix(0.000000000000000046, 0.75, -0.75, 0.000000000000000046, 303.749959, 52.777335)" fill="none" stroke-linejoin="miter" d="M 120.062517 394.442673 C 138.520852 400.817674 159.505228 404.999965 180.098979 404.999965 C 200.69273 404.999965 220.505231 401.416632 238.770857 395.041632 C 239.156274 394.838507 239.546899 394.838507 239.937524 394.64059 C 308.515652 369.145797 359.03128 301.81246 360.00003 224.124956 L 360.00003 -0.0000552182 L 0.0000113526 -0.0000552182 L 0.0000113526 223.95829 C 0.97397 302.208294 50.708347 369.54163 120.062517 394.442673 " stroke="#000000" stroke-width="4" stroke-opacity="1" stroke-miterlimit="4"/></g></g><g clip-path="url(#2a4c7c7858)"><g clip-path="url(#3580638bb8)"><g clip-path="url(#7e900f76fb)"><path fill="#a6a6a6" d="M 144.621094 32.996094 L 295.394531 187.300781 L 141.089844 338.074219 L -9.683594 183.769531 Z M 144.621094 32.996094 " fill-opacity="1" fill-rule="nonzero"/></g></g></g><g clip-path="url(#ae6e18dbd9)"><g clip-path="url(#ebf829d4cc)"><g clip-path="url(#dbd023d39f)"><g clip-path="url(#1ab0707d4d)"><path stroke-linecap="butt" transform="matrix(0.524155, 0.536434, -0.536434, 0.524155, 144.621303, 32.997091)" fill="none" stroke-linejoin="miter" d="M 143.996844 0.00046076 C 64.471451 0.000455693 -0.00233055 64.471867 0.00138962 144.0009 C -0.00225541 223.530018 64.472795 288.000074 143.998188 288.000079 C 223.530947 287.999999 287.997363 223.528673 288.001008 143.999555 C 287.997288 64.470522 223.529602 0.000380549 143.996844 0.00046076 " stroke="#000000" stroke-width="8" stroke-opacity="1" stroke-miterlimit="4"/></g></g></g></g><g clip-path="url(#e09806f508)"><g clip-path="url(#e6601a4548)"><g clip-path="url(#2fe0edc9b2)"><path fill="#ffde59" d="M 182.140625 130.484375 L 194.761719 142.769531 L 172.496094 165.648438 L 159.875 153.363281 Z M 182.140625 130.484375 " fill-opacity="1" fill-rule="nonzero"/></g></g></g><g clip-path="url(#b59af81d31)"><g clip-path="url(#3c6a0eec4a)"><g clip-path="url(#323b4238e8)"><path fill="#ffde59" d="M 143.5625 216.902344 L 160.5625 212.300781 L 168.90625 243.117188 L 151.90625 247.71875 Z M 143.5625 216.902344 " fill-opacity="1" fill-rule="nonzero"/></g></g></g><g clip-path="url(#fa66e99d82)"><g clip-path="url(#4e7d7e41b9)"><g clip-path="url(#475dd1542a)"><path fill="#ffde59" d="M 85.34375 211.5625 L 106.464844 129.792969 L 177.378906 148.113281 L 156.253906 229.878906 Z M 85.34375 211.5625 " fill-opacity="1" fill-rule="nonzero"/></g></g></g><g clip-path="url(#96fe621956)"><g clip-path="url(#22122a5408)"><g clip-path="url(#7206118150)"><path fill="#ffde59" d="M 86.046875 177.261719 L 90.453125 160.210938 L 121.363281 168.195312 L 116.957031 185.25 Z M 86.046875 177.261719 " fill-opacity="1" fill-rule="nonzero"/></g></g></g><g clip-path="url(#6ef4b33b9c)"><g clip-path="url(#e968d44842)"><g clip-path="url(#8c815b406d)"><path fill="#ffde59" d="M 87.554688 197.851562 L 34.035156 182.703125 L 49.183594 129.183594 L 102.703125 144.332031 Z M 87.554688 197.851562 " fill-opacity="1" fill-rule="nonzero"/></g></g></g><g clip-path="url(#01ddbcaa5d)"><g clip-path="url(#315ef849bc)"><g clip-path="url(#786d14c413)"><g clip-path="url(#e301950fde)"><path fill="#000000" d="M 61.667969 187.414062 C 67.011719 188.925781 72.261719 188.671875 77.417969 186.652344 L 79.601562 192.230469 C 73.195312 194.738281 66.675781 195.050781 60.039062 193.175781 Z M 79.851562 185.546875 C 84.78125 182.976562 88.421875 179.195312 90.785156 174.203125 L 96.195312 176.761719 C 93.261719 182.96875 88.738281 187.664062 82.621094 190.855469 Z M 91.792969 171.734375 C 91.953125 171.273438 92.097656 170.804688 92.230469 170.335938 C 93.601562 165.5 93.511719 160.703125 91.960938 155.945312 L 97.652344 154.089844 C 99.578125 160 99.691406 165.960938 97.992188 171.964844 C 97.828125 172.546875 97.644531 173.125 97.449219 173.695312 Z M 90.996094 153.449219 C 88.710938 148.375 85.148438 144.519531 80.300781 141.871094 L 83.167969 136.617188 C 89.195312 139.90625 93.621094 144.695312 96.453125 150.992188 Z M 77.902344 140.726562 C 77.007812 140.355469 76.09375 140.039062 75.152344 139.773438 C 70.8125 138.542969 66.476562 138.5 62.140625 139.640625 L 60.617188 133.847656 C 66.007812 132.433594 71.394531 132.484375 76.785156 134.011719 C 77.945312 134.339844 79.082031 134.734375 80.191406 135.191406 Z M 59.597656 140.457031 C 54.40625 142.4375 50.347656 145.769531 47.421875 150.453125 L 42.34375 147.28125 C 45.980469 141.460938 51.019531 137.324219 57.464844 134.863281 Z M 46.128906 152.796875 C 45.5 154.097656 44.988281 155.449219 44.589844 156.851562 C 43.5 160.699219 43.347656 164.570312 44.132812 168.460938 L 38.261719 169.640625 C 37.289062 164.804688 37.476562 159.996094 38.828125 155.21875 C 39.320312 153.480469 39.957031 151.804688 40.738281 150.191406 Z M 44.800781 171.042969 C 46.476562 176.335938 49.566406 180.585938 54.078125 183.785156 L 50.609375 188.667969 C 45.011719 184.691406 41.171875 179.421875 39.089844 172.851562 Z M 56.339844 185.214844 C 58.019531 186.148438 59.796875 186.882812 61.667969 187.414062 L 60.039062 193.175781 C 57.71875 192.515625 55.511719 191.605469 53.425781 190.441406 Z M 56.339844 185.214844 " fill-opacity="1" fill-rule="nonzero"/></g></g></g></g><g clip-path="url(#fd211fa073)"><g clip-path="url(#3d60ced9f2)"><g clip-path="url(#b487ec19e1)"><path fill="#ffde59" d="M 144.921875 293.011719 L 130.0625 239.414062 L 183.664062 224.554688 L 198.523438 278.15625 Z M 144.921875 293.011719 " fill-opacity="1" fill-rule="nonzero"/></g></g></g><g clip-path="url(#58273da864)"><g clip-path="url(#92667aae3c)"><g clip-path="url(#053877b457)"><g clip-path="url(#1ab2238946)"><path fill="#000000" d="M 140.394531 265.472656 C 141.878906 270.824219 144.820312 275.179688 149.222656 278.535156 L 145.59375 283.296875 C 140.121094 279.125 136.464844 273.71875 134.625 267.070312 Z M 151.433594 280.039062 C 156.191406 282.914062 161.3125 284.066406 166.804688 283.488281 L 167.433594 289.441406 C 160.605469 290.160156 154.238281 288.734375 148.335938 285.164062 Z M 169.441406 283.066406 C 169.917969 282.964844 170.390625 282.847656 170.863281 282.714844 C 175.707031 281.371094 179.757812 278.804688 183.019531 275.007812 L 187.5625 278.90625 C 183.511719 283.625 178.476562 286.816406 172.460938 288.484375 C 171.878906 288.648438 171.292969 288.792969 170.703125 288.917969 Z M 184.648438 272.886719 C 187.796875 268.300781 189.242188 263.25 188.988281 257.734375 L 194.96875 257.453125 C 195.285156 264.3125 193.492188 270.585938 189.585938 276.273438 Z M 188.71875 255.089844 C 188.570312 254.132812 188.367188 253.1875 188.105469 252.246094 C 186.902344 247.898438 184.6875 244.171875 181.460938 241.058594 L 185.617188 236.75 C 189.628906 240.617188 192.378906 245.25 193.875 250.648438 C 194.199219 251.808594 194.453125 252.984375 194.636719 254.171875 Z M 179.441406 239.308594 C 175.050781 235.902344 170.09375 234.167969 164.574219 234.097656 L 164.648438 228.109375 C 171.507812 228.195312 177.664062 230.351562 183.113281 234.578125 Z M 161.898438 234.210938 C 160.460938 234.347656 159.042969 234.613281 157.636719 235.003906 C 153.78125 236.070312 150.398438 237.949219 147.480469 240.640625 L 143.421875 236.238281 C 147.046875 232.894531 151.253906 230.558594 156.039062 229.230469 C 157.777344 228.75 159.539062 228.421875 161.324219 228.25 Z M 145.617188 242.554688 C 141.964844 246.734375 139.941406 251.585938 139.550781 257.101562 L 133.578125 256.675781 C 134.066406 249.824219 136.574219 243.804688 141.109375 238.613281 Z M 139.503906 259.773438 C 139.578125 261.699219 139.875 263.597656 140.394531 265.472656 L 134.625 267.070312 C 133.980469 264.746094 133.613281 262.390625 133.519531 260 Z M 139.503906 259.773438 " fill-opacity="1" fill-rule="nonzero"/></g></g></g></g><g clip-path="url(#b6831d60d9)"><g clip-path="url(#cb889584b9)"><g clip-path="url(#10a0f155dd)"><path fill="#ffde59" d="M 214.847656 164.058594 L 161.328125 148.910156 L 176.476562 95.390625 L 229.996094 110.539062 Z M 214.847656 164.058594 " fill-opacity="1" fill-rule="nonzero"/></g></g></g><g clip-path="url(#f1cdb18d92)"><g clip-path="url(#ffe995d43d)"><g clip-path="url(#17f709655b)"><g clip-path="url(#369f0b65d2)"><path fill="#000000" d="M 188.964844 153.621094 C 194.308594 155.132812 199.558594 154.878906 204.714844 152.863281 L 206.894531 158.4375 C 200.488281 160.945312 193.96875 161.261719 187.332031 159.382812 Z M 207.148438 151.753906 C 212.074219 149.183594 215.71875 145.402344 218.078125 140.410156 L 223.492188 142.96875 C 220.558594 149.175781 216.03125 153.875 209.914062 157.0625 Z M 219.085938 137.941406 C 219.246094 137.480469 219.390625 137.015625 219.527344 136.542969 C 220.894531 131.707031 220.804688 126.910156 219.253906 122.152344 L 224.945312 120.296875 C 226.875 126.210938 226.988281 132.167969 225.285156 138.171875 C 225.121094 138.757812 224.941406 139.332031 224.742188 139.902344 Z M 218.289062 119.65625 C 216.007812 114.585938 212.441406 110.726562 207.59375 108.078125 L 210.460938 102.824219 C 216.488281 106.113281 220.917969 110.90625 223.75 117.199219 Z M 205.195312 106.933594 C 204.300781 106.5625 203.386719 106.246094 202.449219 105.980469 C 198.109375 104.75 193.769531 104.707031 189.433594 105.847656 L 187.914062 100.054688 C 193.300781 98.640625 198.691406 98.695312 204.078125 100.21875 C 205.238281 100.546875 206.375 100.941406 207.484375 101.398438 Z M 186.894531 106.664062 C 181.703125 108.644531 177.640625 111.980469 174.714844 116.664062 L 169.636719 113.488281 C 173.273438 107.667969 178.316406 103.53125 184.757812 101.070312 Z M 173.421875 119.003906 C 172.792969 120.304688 172.28125 121.65625 171.886719 123.058594 C 170.796875 126.90625 170.640625 130.777344 171.425781 134.667969 L 165.554688 135.847656 C 164.582031 131.011719 164.773438 126.207031 166.125 121.425781 C 166.617188 119.691406 167.25 118.015625 168.03125 116.398438 Z M 172.09375 137.25 C 173.769531 142.546875 176.863281 146.792969 181.371094 149.992188 L 177.902344 154.875 C 172.304688 150.902344 168.464844 145.628906 166.386719 139.058594 Z M 183.632812 151.421875 C 185.3125 152.359375 187.089844 153.089844 188.964844 153.621094 L 187.332031 159.382812 C 185.011719 158.726562 182.808594 157.816406 180.71875 156.652344 Z M 183.632812 151.421875 " fill-opacity="1" fill-rule="nonzero"/></g></g></g></g><g clip-path="url(#12c71eb3e5)"><g clip-path="url(#de63b4a055)"><g clip-path="url(#b4319b2611)"><path fill="#707070" d="M 59.867188 168.535156 L 63.359375 155.019531 L 76.875 158.507812 L 73.382812 172.023438 Z M 59.867188 168.535156 " fill-opacity="1" fill-rule="nonzero"/></g></g></g><g clip-path="url(#5083a6e302)"><g clip-path="url(#e83dc71ac9)"><g clip-path="url(#80cd396fb3)"><path fill="#707070" d="M 155.699219 253.925781 L 169.152344 250.199219 L 172.882812 263.652344 L 159.429688 267.378906 Z M 155.699219 253.925781 " fill-opacity="1" fill-rule="nonzero"/></g></g></g><g clip-path="url(#7dde8e7a67)"><g clip-path="url(#16057fd35d)"><g clip-path="url(#d63a40079e)"><path fill="#707070" d="M 186.40625 134.027344 L 189.898438 120.511719 L 203.414062 124.003906 L 199.921875 137.519531 Z M 186.40625 134.027344 " fill-opacity="1" fill-rule="nonzero"/></g></g></g><g clip-path="url(#554efe04e8)"><g clip-path="url(#3e429ed344)"><g clip-path="url(#76f42a016b)"><g clip-path="url(#f03d1e541d)"><path fill="#ffffff" d="M 150.273438 118.816406 C 150.28125 118.777344 150.273438 118.742188 150.246094 118.710938 C 150.292969 118.574219 150.527344 118.578125 150.492188 118.375 C 150.675781 117.964844 150.449219 117.703125 150.15625 117.464844 C 149.339844 116.804688 148.4375 116.289062 147.5 115.828125 C 144.144531 114.1875 140.613281 113.324219 136.894531 113.085938 C 130.40625 112.667969 124.546875 114.46875 119.136719 117.898438 C 116.625 119.484375 114.441406 121.488281 112.347656 123.59375 C 111.121094 124.832031 109.96875 126.140625 108.785156 127.421875 C 108.765625 127.488281 108.742188 127.550781 108.722656 127.617188 C 108.652344 127.648438 108.578125 127.703125 108.511719 127.699219 C 108.511719 127.699219 108.511719 127.699219 108.507812 127.695312 C 108.453125 127.691406 108.460938 127.613281 108.503906 127.566406 C 108.570312 126.882812 108.777344 126.234375 109.015625 125.597656 C 109.183594 125.160156 109.308594 124.726562 109.304688 124.253906 C 109.667969 123.320312 109.40625 122.5625 108.605469 122.117188 C 107.121094 123.445312 106.585938 125.238281 106.1875 127.105469 C 106.039062 127.800781 105.847656 128.480469 105.664062 129.164062 C 105.222656 130.804688 105.378906 130.59375 106.335938 131.59375 C 106.550781 131.816406 106.8125 131.984375 107.089844 132.128906 C 107.191406 132.179688 107.289062 132.21875 107.402344 132.175781 C 107.664062 132.417969 107.9375 132.316406 108.203125 132.207031 C 108.988281 131.878906 109.769531 131.539062 110.554688 131.203125 C 110.753906 131.234375 110.917969 131.140625 111.078125 131.039062 C 111.277344 131.078125 111.441406 130.980469 111.605469 130.890625 C 111.746094 130.941406 111.863281 130.859375 111.988281 130.832031 C 113.695312 130.453125 115.417969 130.273438 117.171875 130.394531 C 117.304688 130.402344 117.433594 130.402344 117.566406 130.40625 C 117.722656 130.410156 117.902344 130.417969 117.960938 130.246094 C 118.007812 130.117188 117.917969 129.949219 117.816406 129.894531 C 117.363281 129.652344 117.128906 129.171875 116.710938 128.902344 C 116.523438 128.78125 116.304688 128.746094 116.082031 128.710938 C 114.363281 128.460938 112.652344 128.519531 110.941406 128.757812 C 110.789062 128.777344 110.636719 128.824219 110.484375 128.8125 C 110.308594 128.800781 110.304688 128.65625 110.335938 128.511719 C 110.507812 128.472656 110.597656 128.363281 110.621094 128.191406 C 110.765625 128.121094 110.90625 128.042969 110.921875 127.851562 C 110.96875 127.855469 110.988281 127.835938 110.984375 127.792969 C 111.125 127.730469 111.25 127.648438 111.273438 127.476562 C 111.363281 127.414062 111.460938 127.363281 111.535156 127.285156 C 112.367188 126.4375 113.183594 125.582031 114.027344 124.746094 C 114.789062 123.984375 115.574219 123.253906 116.351562 122.511719 C 116.578125 122.339844 116.8125 122.175781 117.035156 121.996094 C 119.191406 120.269531 121.523438 118.828125 124.066406 117.746094 C 124.972656 117.359375 125.890625 117 126.804688 116.628906 C 127.019531 116.664062 127.183594 116.558594 127.351562 116.453125 C 127.554688 116.488281 127.714844 116.390625 127.875 116.292969 C 128.066406 116.339844 128.210938 116.234375 128.367188 116.15625 C 128.492188 116.203125 128.59375 116.160156 128.683594 116.082031 C 128.730469 116.09375 128.765625 116.082031 128.796875 116.042969 C 128.933594 116.089844 129.050781 116.011719 129.175781 115.988281 C 129.796875 115.871094 130.390625 115.640625 131.027344 115.601562 C 131.0625 115.53125 131.222656 115.445312 130.980469 115.433594 C 130.820312 115.425781 130.796875 115.386719 130.824219 115.339844 C 130.84375 115.296875 130.902344 115.246094 130.941406 115.203125 C 132.914062 114.894531 134.902344 114.828125 136.894531 114.894531 C 137.078125 114.917969 137.265625 114.941406 137.449219 114.964844 C 138.550781 115.105469 139.65625 115.242188 140.757812 115.382812 C 140.789062 115.414062 140.824219 115.433594 140.863281 115.433594 C 140.890625 115.4375 140.917969 115.429688 140.945312 115.421875 C 141 115.476562 141.058594 115.484375 141.128906 115.457031 C 141.179688 115.515625 141.242188 115.523438 141.3125 115.496094 C 141.363281 115.554688 141.425781 115.5625 141.496094 115.535156 C 141.546875 115.589844 141.609375 115.605469 141.679688 115.574219 C 141.730469 115.632812 141.792969 115.648438 141.863281 115.617188 C 141.914062 115.675781 141.972656 115.691406 142.042969 115.660156 L 142.046875 115.660156 C 142.105469 115.679688 142.164062 115.691406 142.222656 115.703125 L 142.230469 115.707031 C 142.277344 115.765625 142.335938 115.78125 142.40625 115.75 L 142.414062 115.753906 C 142.460938 115.8125 142.519531 115.828125 142.589844 115.796875 L 142.597656 115.796875 C 142.597656 115.796875 142.601562 115.800781 142.601562 115.800781 C 142.601562 115.800781 142.597656 115.796875 142.597656 115.796875 C 142.644531 115.859375 142.703125 115.875 142.777344 115.84375 L 142.78125 115.84375 C 142.828125 115.90625 142.886719 115.921875 142.957031 115.890625 L 142.960938 115.894531 C 143.007812 115.953125 143.070312 115.972656 143.140625 115.941406 C 143.6875 116.128906 144.234375 116.3125 144.78125 116.5 C 145.097656 116.507812 145.371094 116.660156 145.652344 116.769531 C 145.65625 116.808594 145.652344 116.839844 145.640625 116.867188 C 145.628906 116.914062 145.601562 116.953125 145.558594 116.988281 C 145.761719 117.09375 145.960938 117.214844 146.199219 117.222656 C 146.273438 117.21875 146.34375 117.222656 146.410156 117.257812 C 146.339844 117.246094 146.269531 117.234375 146.199219 117.222656 C 146.257812 117.269531 146.320312 117.308594 146.390625 117.269531 C 146.453125 117.367188 146.542969 117.40625 146.65625 117.410156 C 146.695312 117.476562 146.746094 117.503906 146.820312 117.480469 C 146.875 117.535156 146.933594 117.574219 147.011719 117.550781 C 147.035156 117.582031 147.0625 117.601562 147.105469 117.605469 C 147.289062 117.746094 147.488281 117.839844 147.710938 117.886719 C 147.84375 117.976562 147.976562 118.074219 148.144531 118.089844 C 148.207031 118.179688 148.304688 118.199219 148.402344 118.230469 C 148.925781 118.59375 149.511719 118.855469 149.992188 119.339844 C 150.070312 119.117188 150.320312 119.054688 150.273438 118.816406 Z M 110.917969 127.675781 C 110.917969 127.675781 110.921875 127.675781 110.921875 127.675781 C 110.921875 127.675781 110.917969 127.675781 110.917969 127.675781 C 110.921875 127.679688 110.921875 127.679688 110.921875 127.679688 C 110.917969 127.679688 110.917969 127.679688 110.917969 127.675781 Z M 142.832031 115.480469 C 142.820312 115.472656 142.804688 115.46875 142.792969 115.460938 C 142.796875 115.460938 142.800781 115.460938 142.804688 115.460938 C 142.816406 115.464844 142.828125 115.46875 142.839844 115.472656 C 142.839844 115.472656 142.835938 115.476562 142.832031 115.480469 Z M 140.765625 115.378906 C 140.765625 115.375 140.765625 115.375 140.765625 115.375 C 140.769531 115.371094 140.769531 115.363281 140.769531 115.359375 L 140.777344 115.34375 L 140.765625 115.375 C 140.769531 115.378906 140.769531 115.378906 140.769531 115.378906 C 140.769531 115.378906 140.769531 115.378906 140.765625 115.378906 Z M 142.882812 115.433594 C 142.871094 115.445312 142.855469 115.460938 142.84375 115.46875 C 142.832031 115.46875 142.820312 115.464844 142.808594 115.460938 C 142.835938 115.464844 142.859375 115.457031 142.882812 115.433594 Z M 142.726562 115.4375 C 142.710938 115.433594 142.695312 115.429688 142.683594 115.425781 C 142.683594 115.421875 142.679688 115.421875 142.679688 115.421875 C 142.695312 115.425781 142.710938 115.433594 142.726562 115.4375 Z M 149.550781 117.847656 C 149.550781 117.847656 149.554688 117.847656 149.554688 117.847656 C 149.554688 117.847656 149.558594 117.847656 149.558594 117.847656 C 149.558594 117.851562 149.5625 117.851562 149.5625 117.851562 C 149.558594 117.851562 149.554688 117.847656 149.550781 117.847656 Z M 149.316406 117.6875 C 149.316406 117.683594 149.3125 117.679688 149.308594 117.679688 C 149.3125 117.683594 149.316406 117.6875 149.316406 117.6875 Z M 146.519531 117.230469 C 146.53125 117.222656 146.539062 117.210938 146.546875 117.195312 C 146.550781 117.203125 146.558594 117.210938 146.5625 117.21875 C 146.546875 117.222656 146.535156 117.226562 146.519531 117.230469 Z M 146.953125 117.488281 C 146.972656 117.492188 146.996094 117.507812 147.011719 117.53125 C 146.992188 117.511719 146.972656 117.496094 146.953125 117.488281 Z M 146.953125 117.488281 " fill-opacity="1" fill-rule="nonzero"/></g></g></g></g><g clip-path="url(#8494f72653)"><g clip-path="url(#def044097e)"><g clip-path="url(#ebfe0bb73c)"><g clip-path="url(#8183f9e1d7)"><path fill="#ffffff" d="M 142.234375 115.703125 C 142.175781 115.6875 142.117188 115.675781 142.058594 115.660156 C 142.105469 115.71875 142.164062 115.734375 142.234375 115.703125 Z M 142.234375 115.703125 " fill-opacity="1" fill-rule="nonzero"/></g></g></g></g><g clip-path="url(#35048b255d)"><g clip-path="url(#cd413e4552)"><g clip-path="url(#5cd7944da1)"><g clip-path="url(#b28461a991)"><path fill="#ffffff" d="M 196.503906 219.992188 C 196.53125 220.027344 196.566406 220.039062 196.609375 220.03125 C 196.691406 220.152344 196.554688 220.339844 196.742188 220.425781 C 196.96875 220.816406 197.316406 220.78125 197.679688 220.679688 C 198.6875 220.394531 199.628906 219.949219 200.546875 219.449219 C 203.816406 217.648438 206.558594 215.257812 208.894531 212.355469 C 212.972656 207.289062 214.867188 201.460938 215.183594 195.0625 C 215.328125 192.097656 214.945312 189.15625 214.429688 186.234375 C 214.125 184.515625 213.714844 182.824219 213.347656 181.117188 C 213.308594 181.0625 213.269531 181.007812 213.226562 180.953125 C 213.242188 180.878906 213.238281 180.789062 213.28125 180.734375 C 213.28125 180.734375 213.28125 180.734375 213.285156 180.734375 C 213.320312 180.691406 213.378906 180.742188 213.390625 180.800781 C 213.914062 181.25 214.328125 181.792969 214.707031 182.355469 C 214.96875 182.742188 215.253906 183.097656 215.640625 183.363281 C 216.195312 184.199219 216.96875 184.421875 217.792969 184.023438 C 217.558594 182.046875 216.402344 180.574219 215.105469 179.175781 C 214.621094 178.65625 214.175781 178.105469 213.722656 177.558594 C 212.632812 176.253906 212.71875 176.503906 211.347656 176.714844 C 211.042969 176.761719 210.753906 176.875 210.476562 177.023438 C 210.375 177.074219 210.289062 177.132812 210.257812 177.25 C 209.910156 177.324219 209.832031 177.605469 209.773438 177.886719 C 209.589844 178.71875 209.414062 179.550781 209.238281 180.386719 C 209.097656 180.535156 209.082031 180.71875 209.070312 180.910156 C 208.925781 181.050781 208.910156 181.242188 208.886719 181.425781 C 208.769531 181.511719 208.765625 181.65625 208.71875 181.773438 C 208.042969 183.386719 207.199219 184.898438 206.09375 186.261719 C 206.007812 186.367188 205.933594 186.476562 205.855469 186.582031 C 205.761719 186.707031 205.652344 186.847656 205.757812 186.996094 C 205.835938 187.105469 206.027344 187.128906 206.128906 187.078125 C 206.589844 186.847656 207.117188 186.929688 207.578125 186.746094 C 207.785156 186.664062 207.941406 186.503906 208.09375 186.339844 C 209.289062 185.082031 210.226562 183.648438 211.015625 182.113281 C 211.085938 181.976562 211.136719 181.824219 211.234375 181.707031 C 211.34375 181.570312 211.46875 181.648438 211.566406 181.757812 C 211.5 181.921875 211.539062 182.058594 211.667969 182.175781 C 211.636719 182.335938 211.621094 182.492188 211.765625 182.617188 C 211.738281 182.652344 211.742188 182.679688 211.78125 182.703125 C 211.75 182.855469 211.746094 183 211.871094 183.121094 C 211.875 183.230469 211.859375 183.339844 211.878906 183.445312 C 212.089844 184.613281 212.324219 185.773438 212.523438 186.941406 C 212.703125 188.003906 212.851562 189.066406 213.011719 190.128906 C 213.019531 190.417969 213.015625 190.699219 213.035156 190.984375 C 213.210938 193.742188 213.046875 196.480469 212.46875 199.179688 C 212.261719 200.144531 212.023438 201.105469 211.800781 202.066406 C 211.652344 202.21875 211.644531 202.414062 211.632812 202.613281 C 211.484375 202.757812 211.476562 202.945312 211.460938 203.132812 C 211.3125 203.261719 211.316406 203.441406 211.289062 203.613281 C 211.179688 203.6875 211.160156 203.796875 211.167969 203.917969 C 211.132812 203.945312 211.121094 203.984375 211.136719 204.03125 C 211.019531 204.113281 211.015625 204.257812 210.964844 204.371094 C 210.703125 204.949219 210.546875 205.566406 210.214844 206.109375 C 210.25 206.175781 210.230469 206.355469 210.375 206.167969 C 210.476562 206.042969 210.519531 206.042969 210.546875 206.09375 C 210.566406 206.132812 210.574219 206.210938 210.589844 206.269531 C 209.707031 208.058594 208.617188 209.722656 207.414062 211.3125 C 207.289062 211.449219 207.164062 211.589844 207.039062 211.726562 C 206.289062 212.546875 205.539062 213.371094 204.792969 214.191406 C 204.746094 214.199219 204.710938 214.21875 204.6875 214.25 C 204.671875 214.269531 204.660156 214.292969 204.652344 214.320312 C 204.578125 214.335938 204.53125 214.378906 204.515625 214.453125 C 204.441406 214.460938 204.394531 214.507812 204.378906 214.582031 C 204.304688 214.589844 204.257812 214.632812 204.242188 214.710938 C 204.164062 214.71875 204.117188 214.757812 204.105469 214.835938 C 204.023438 214.84375 203.980469 214.882812 203.964844 214.960938 C 203.886719 214.96875 203.839844 215.007812 203.824219 215.082031 L 203.824219 215.085938 C 203.773438 215.121094 203.726562 215.164062 203.683594 215.207031 L 203.679688 215.210938 C 203.601562 215.214844 203.554688 215.253906 203.539062 215.328125 L 203.535156 215.332031 C 203.460938 215.339844 203.414062 215.375 203.398438 215.453125 L 203.390625 215.457031 C 203.316406 215.460938 203.265625 215.5 203.25 215.574219 L 203.25 215.578125 C 203.171875 215.582031 203.125 215.621094 203.109375 215.695312 L 203.105469 215.699219 C 203.027344 215.703125 202.980469 215.742188 202.960938 215.816406 C 202.496094 216.160156 202.027344 216.5 201.5625 216.839844 C 201.375 217.09375 201.09375 217.226562 200.839844 217.394531 C 200.808594 217.378906 200.785156 217.355469 200.765625 217.328125 C 200.734375 217.292969 200.71875 217.246094 200.714844 217.191406 C 200.511719 217.296875 200.296875 217.390625 200.15625 217.582031 C 200.117188 217.644531 200.070312 217.699219 200.003906 217.734375 C 200.054688 217.683594 200.105469 217.632812 200.15625 217.582031 C 200.082031 217.601562 200.015625 217.628906 200.007812 217.714844 C 199.890625 217.703125 199.804688 217.757812 199.738281 217.847656 C 199.664062 217.839844 199.609375 217.867188 199.585938 217.941406 C 199.507812 217.953125 199.445312 217.980469 199.417969 218.058594 C 199.378906 218.058594 199.34375 218.070312 199.320312 218.105469 C 199.101562 218.171875 198.910156 218.28125 198.742188 218.4375 C 198.589844 218.492188 198.4375 218.542969 198.328125 218.671875 C 198.21875 218.671875 198.140625 218.742188 198.0625 218.804688 C 197.464844 219.023438 196.910156 219.351562 196.238281 219.464844 C 196.378906 219.65625 196.285156 219.894531 196.503906 219.992188 Z M 211.914062 182.710938 C 211.914062 182.714844 211.914062 182.714844 211.914062 182.714844 C 211.914062 182.714844 211.914062 182.71875 211.914062 182.71875 C 211.914062 182.71875 211.914062 182.714844 211.914062 182.714844 C 211.910156 182.714844 211.910156 182.714844 211.90625 182.714844 C 211.910156 182.714844 211.914062 182.714844 211.914062 182.710938 Z M 203.515625 215.832031 C 203.53125 215.824219 203.542969 215.816406 203.554688 215.808594 C 203.554688 215.8125 203.550781 215.816406 203.546875 215.820312 C 203.539062 215.828125 203.53125 215.835938 203.519531 215.84375 C 203.519531 215.839844 203.519531 215.835938 203.515625 215.832031 Z M 204.789062 214.199219 C 204.792969 214.203125 204.789062 214.203125 204.792969 214.203125 C 204.796875 214.207031 204.800781 214.210938 204.800781 214.214844 L 204.8125 214.230469 L 204.789062 214.203125 C 204.789062 214.203125 204.789062 214.203125 204.785156 214.203125 C 204.789062 214.203125 204.789062 214.203125 204.789062 214.199219 Z M 203.523438 215.902344 C 203.523438 215.882812 203.519531 215.863281 203.519531 215.847656 C 203.527344 215.839844 203.539062 215.832031 203.546875 215.820312 C 203.53125 215.84375 203.519531 215.871094 203.523438 215.902344 Z M 203.613281 215.769531 C 203.625 215.757812 203.636719 215.75 203.648438 215.742188 C 203.652344 215.742188 203.652344 215.742188 203.652344 215.742188 C 203.640625 215.75 203.625 215.757812 203.613281 215.769531 Z M 197.714844 219.960938 C 197.714844 219.964844 197.710938 219.964844 197.710938 219.96875 C 197.707031 219.96875 197.707031 219.96875 197.703125 219.96875 C 197.707031 219.964844 197.710938 219.964844 197.714844 219.960938 Z M 197.980469 219.863281 C 197.984375 219.863281 197.988281 219.867188 197.988281 219.863281 C 197.984375 219.863281 197.980469 219.863281 197.980469 219.863281 Z M 199.960938 217.839844 C 199.964844 217.855469 199.96875 217.867188 199.976562 217.882812 C 199.964844 217.882812 199.957031 217.882812 199.949219 217.878906 C 199.953125 217.867188 199.957031 217.855469 199.960938 217.839844 Z M 199.503906 218.046875 C 199.488281 218.058594 199.464844 218.070312 199.433594 218.070312 C 199.460938 218.066406 199.484375 218.058594 199.503906 218.046875 Z M 199.503906 218.046875 " fill-opacity="1" fill-rule="nonzero"/></g></g></g></g><g clip-path="url(#1bb52e990f)"><g clip-path="url(#2e564afcce)"><g clip-path="url(#0f45d755b5)"><g clip-path="url(#770e23525a)"><path fill="#ffffff" d="M 203.679688 215.214844 C 203.726562 215.175781 203.769531 215.132812 203.816406 215.09375 C 203.738281 215.101562 203.695312 215.140625 203.679688 215.214844 Z M 203.679688 215.214844 " fill-opacity="1" fill-rule="nonzero"/></g></g></g></g><g clip-path="url(#cbb180ae00)"><g clip-path="url(#d70d246445)"><g clip-path="url(#558d7c20d1)"><g clip-path="url(#f159562033)"><path fill="#ffffff" d="M 87.441406 211.027344 C 87.402344 211.03125 87.371094 211.050781 87.351562 211.089844 C 87.207031 211.089844 87.128906 210.871094 86.953125 210.972656 C 86.5 210.941406 86.332031 211.246094 86.210938 211.601562 C 85.871094 212.59375 85.699219 213.621094 85.589844 214.65625 C 85.199219 218.371094 85.605469 221.988281 86.65625 225.558594 C 88.496094 231.796875 92.203125 236.679688 97.28125 240.582031 C 99.636719 242.394531 102.269531 243.757812 104.964844 244.996094 C 106.550781 245.722656 108.175781 246.355469 109.785156 247.023438 C 109.851562 247.023438 109.921875 247.019531 109.988281 247.019531 C 110.042969 247.074219 110.117188 247.125 110.136719 247.1875 C 110.136719 247.1875 110.136719 247.1875 110.136719 247.191406 C 110.152344 247.242188 110.078125 247.265625 110.019531 247.242188 C 109.351562 247.414062 108.671875 247.445312 107.992188 247.4375 C 107.523438 247.429688 107.074219 247.460938 106.632812 247.628906 C 105.628906 247.609375 105.007812 248.113281 104.867188 249.019531 C 106.625 249.953125 108.488281 249.84375 110.378906 249.574219 C 111.082031 249.472656 111.789062 249.421875 112.496094 249.359375 C 114.1875 249.210938 113.933594 249.136719 114.542969 247.890625 C 114.679688 247.613281 114.75 247.308594 114.785156 247 C 114.800781 246.886719 114.804688 246.78125 114.722656 246.6875 C 114.863281 246.363281 114.671875 246.136719 114.476562 245.929688 C 113.898438 245.304688 113.3125 244.6875 112.726562 244.066406 C 112.6875 243.867188 112.542969 243.746094 112.394531 243.628906 C 112.359375 243.429688 112.210938 243.308594 112.074219 243.183594 C 112.070312 243.035156 111.953125 242.953125 111.882812 242.84375 C 110.945312 241.375 110.183594 239.816406 109.691406 238.128906 C 109.65625 238.003906 109.609375 237.878906 109.566406 237.753906 C 109.515625 237.605469 109.460938 237.433594 109.28125 237.4375 C 109.144531 237.441406 109.019531 237.582031 109.003906 237.695312 C 108.929688 238.207031 108.5625 238.589844 108.449219 239.078125 C 108.398438 239.292969 108.441406 239.511719 108.488281 239.730469 C 108.839844 241.429688 109.488281 243.015625 110.296875 244.542969 C 110.371094 244.675781 110.464844 244.804688 110.507812 244.949219 C 110.554688 245.121094 110.421875 245.175781 110.277344 245.195312 C 110.179688 245.050781 110.042969 245 109.875 245.039062 C 109.757812 244.925781 109.636719 244.820312 109.453125 244.871094 C 109.441406 244.828125 109.417969 244.816406 109.375 244.835938 C 109.269531 244.722656 109.152344 244.632812 108.980469 244.671875 C 108.890625 244.609375 108.808594 244.535156 108.710938 244.492188 C 107.628906 244 106.542969 243.527344 105.46875 243.027344 C 104.496094 242.570312 103.535156 242.085938 102.570312 241.613281 C 102.332031 241.457031 102.097656 241.289062 101.855469 241.144531 C 99.488281 239.714844 97.335938 238.019531 95.445312 236.003906 C 94.769531 235.285156 94.117188 234.546875 93.457031 233.8125 C 93.414062 233.601562 93.257812 233.484375 93.101562 233.363281 C 93.066406 233.160156 92.917969 233.042969 92.769531 232.925781 C 92.75 232.730469 92.601562 232.628906 92.476562 232.511719 C 92.472656 232.378906 92.398438 232.300781 92.292969 232.238281 C 92.289062 232.191406 92.265625 232.160156 92.21875 232.148438 C 92.214844 232.003906 92.101562 231.917969 92.035156 231.808594 C 91.710938 231.269531 91.292969 230.789062 91.035156 230.203125 C 90.960938 230.195312 90.824219 230.078125 90.894531 230.304688 C 90.945312 230.457031 90.914062 230.492188 90.863281 230.488281 C 90.816406 230.480469 90.746094 230.445312 90.691406 230.421875 C 89.726562 228.675781 88.980469 226.832031 88.355469 224.9375 C 88.316406 224.757812 88.273438 224.574219 88.230469 224.394531 C 87.984375 223.308594 87.734375 222.226562 87.488281 221.144531 C 87.507812 221.101562 87.507812 221.0625 87.5 221.023438 C 87.492188 221 87.476562 220.976562 87.457031 220.953125 C 87.492188 220.882812 87.480469 220.824219 87.429688 220.769531 C 87.464844 220.699219 87.453125 220.636719 87.402344 220.582031 C 87.4375 220.515625 87.425781 220.453125 87.375 220.398438 C 87.410156 220.328125 87.402344 220.265625 87.347656 220.210938 C 87.390625 220.140625 87.378906 220.082031 87.324219 220.027344 L 87.324219 220.023438 C 87.363281 219.957031 87.359375 219.894531 87.304688 219.839844 L 87.304688 219.835938 C 87.300781 219.777344 87.292969 219.714844 87.285156 219.65625 L 87.285156 219.648438 C 87.324219 219.582031 87.316406 219.523438 87.265625 219.464844 L 87.265625 219.460938 C 87.304688 219.394531 87.296875 219.335938 87.246094 219.277344 L 87.246094 219.273438 C 87.246094 219.273438 87.246094 219.269531 87.246094 219.269531 C 87.246094 219.269531 87.246094 219.273438 87.246094 219.273438 C 87.285156 219.207031 87.28125 219.144531 87.226562 219.089844 L 87.226562 219.085938 C 87.269531 219.019531 87.261719 218.957031 87.207031 218.902344 L 87.210938 218.898438 C 87.25 218.832031 87.246094 218.769531 87.191406 218.710938 C 87.179688 218.132812 87.167969 217.558594 87.152344 216.980469 C 87.050781 216.679688 87.101562 216.375 87.109375 216.070312 C 87.140625 216.054688 87.171875 216.046875 87.203125 216.046875 C 87.253906 216.042969 87.296875 216.054688 87.34375 216.082031 C 87.375 215.855469 87.421875 215.628906 87.34375 215.398438 C 87.316406 215.332031 87.296875 215.265625 87.304688 215.1875 C 87.316406 215.257812 87.328125 215.328125 87.34375 215.398438 C 87.367188 215.328125 87.382812 215.257812 87.320312 215.203125 C 87.394531 215.113281 87.398438 215.015625 87.363281 214.90625 C 87.410156 214.847656 87.421875 214.789062 87.371094 214.726562 C 87.40625 214.65625 87.421875 214.589844 87.375 214.523438 C 87.394531 214.488281 87.402344 214.457031 87.390625 214.417969 C 87.460938 214.199219 87.480469 213.980469 87.445312 213.753906 C 87.488281 213.597656 87.53125 213.441406 87.488281 213.277344 C 87.550781 213.1875 87.539062 213.085938 87.535156 212.984375 C 87.695312 212.367188 87.738281 211.726562 88.027344 211.109375 C 87.789062 211.117188 87.648438 210.902344 87.441406 211.027344 Z M 109.292969 244.9375 C 109.289062 244.9375 109.289062 244.9375 109.289062 244.933594 C 109.289062 244.9375 109.289062 244.9375 109.289062 244.9375 C 109.289062 244.9375 109.289062 244.933594 109.289062 244.933594 C 109.289062 244.933594 109.292969 244.933594 109.292969 244.929688 C 109.292969 244.933594 109.292969 244.933594 109.292969 244.9375 Z M 86.863281 219.160156 C 86.863281 219.175781 86.863281 219.191406 86.859375 219.207031 C 86.859375 219.203125 86.859375 219.199219 86.859375 219.195312 C 86.855469 219.179688 86.855469 219.167969 86.855469 219.15625 C 86.855469 219.15625 86.859375 219.15625 86.863281 219.160156 Z M 87.480469 221.136719 C 87.480469 221.136719 87.476562 221.136719 87.476562 221.136719 C 87.472656 221.136719 87.464844 221.136719 87.460938 221.136719 L 87.445312 221.136719 L 87.476562 221.136719 C 87.480469 221.132812 87.476562 221.132812 87.480469 221.132812 C 87.476562 221.132812 87.480469 221.132812 87.480469 221.136719 Z M 86.804688 219.128906 C 86.820312 219.136719 86.835938 219.144531 86.851562 219.152344 C 86.851562 219.167969 86.855469 219.179688 86.855469 219.191406 C 86.847656 219.164062 86.832031 219.140625 86.804688 219.128906 Z M 86.863281 219.277344 C 86.863281 219.292969 86.863281 219.304688 86.863281 219.320312 C 86.863281 219.320312 86.863281 219.324219 86.863281 219.324219 C 86.863281 219.308594 86.863281 219.292969 86.863281 219.277344 Z M 86.777344 212.039062 C 86.777344 212.039062 86.777344 212.035156 86.777344 212.035156 C 86.777344 212.035156 86.777344 212.03125 86.777344 212.03125 C 86.777344 212.03125 86.777344 212.027344 86.777344 212.027344 C 86.78125 212.03125 86.777344 212.035156 86.777344 212.039062 Z M 86.707031 212.3125 C 86.707031 212.316406 86.703125 212.316406 86.703125 212.320312 C 86.707031 212.320312 86.707031 212.3125 86.707031 212.3125 Z M 87.242188 215.09375 C 87.230469 215.089844 87.214844 215.085938 87.199219 215.082031 C 87.203125 215.074219 87.210938 215.066406 87.214844 215.0625 C 87.222656 215.074219 87.234375 215.082031 87.242188 215.09375 Z M 87.332031 214.601562 C 87.332031 214.578125 87.339844 214.554688 87.351562 214.53125 C 87.351562 214.53125 87.351562 214.53125 87.355469 214.53125 C 87.34375 214.554688 87.332031 214.578125 87.332031 214.601562 Z M 87.332031 214.601562 " fill-opacity="1" fill-rule="nonzero"/></g></g></g></g><g clip-path="url(#9ec779dcb3)"><g clip-path="url(#b137d888e2)"><g clip-path="url(#b3889be1c6)"><g clip-path="url(#257bcff42f)"><path fill="#ffffff" d="M 87.28125 219.644531 C 87.285156 219.707031 87.292969 219.765625 87.300781 219.828125 C 87.339844 219.757812 87.332031 219.699219 87.28125 219.644531 Z M 87.28125 219.644531 " fill-opacity="1" fill-rule="nonzero"/></g></g></g></g><path stroke-linecap="butt" transform="matrix(0.74987, 0.00605191, -0.00605275, 0.749976, 136.490312, 77.868328)" fill="none" stroke-linejoin="miter" d="M -0.00220402 1.998562 L 223.03636 2.000901 " stroke="#000000" stroke-width="4" stroke-opacity="1" stroke-miterlimit="4"/><path stroke-linecap="butt" transform="matrix(0.750617, -0.00364086, 0.00363783, 0.749991, 135.126205, 291.168432)" fill="none" stroke-linejoin="miter" d="M -0.000887235 1.999401 L 224.814281 2.002221 " stroke="#000000" stroke-width="4" stroke-opacity="1" stroke-miterlimit="4"/><g clip-path="url(#f0faf0855f)"><path fill="#5ce1e6" d="M 294.695312 306.992188 L 286.203125 297.5 C 286.019531 297.296875 285.765625 297.183594 285.5 297.183594 L 279.835938 297.183594 C 279.464844 297.183594 279.128906 297.402344 278.972656 297.746094 C 278.824219 298.089844 278.886719 298.488281 279.136719 298.765625 L 287.058594 307.628906 L 279.136719 316.484375 C 278.886719 316.765625 278.820312 317.164062 278.972656 317.507812 C 279.128906 317.851562 279.464844 318.070312 279.835938 318.070312 L 285.5 318.070312 C 285.765625 318.070312 286.019531 317.953125 286.203125 317.757812 L 294.695312 308.261719 C 295.015625 307.902344 295.015625 307.351562 294.695312 306.992188 Z M 294.695312 306.992188 " fill-opacity="1" fill-rule="nonzero"/></g><g clip-path="url(#6da3aa332e)"><path fill="#5ce1e6" d="M 282.425781 306.992188 L 273.933594 297.5 C 273.75 297.296875 273.5 297.183594 273.230469 297.183594 L 267.570312 297.183594 C 267.195312 297.183594 266.859375 297.402344 266.707031 297.746094 C 266.554688 298.089844 266.617188 298.488281 266.867188 298.765625 L 274.792969 307.628906 L 266.867188 316.484375 C 266.617188 316.765625 266.554688 317.164062 266.707031 317.507812 C 266.859375 317.851562 267.195312 318.070312 267.570312 318.070312 L 273.230469 318.070312 C 273.5 318.070312 273.75 317.953125 273.933594 317.757812 L 282.425781 308.261719 C 282.75 307.902344 282.75 307.351562 282.425781 306.992188 Z M 282.425781 306.992188 " fill-opacity="1" fill-rule="nonzero"/></g><g clip-path="url(#d7611bc474)"><path fill="#38b6ff" d="M 257.570312 306.992188 L 249.078125 297.5 C 248.894531 297.296875 248.640625 297.183594 248.375 297.183594 L 242.710938 297.183594 C 242.339844 297.183594 242.003906 297.402344 241.847656 297.746094 C 241.699219 298.089844 241.761719 298.488281 242.007812 298.765625 L 249.933594 307.628906 L 242.007812 316.484375 C 241.761719 316.765625 241.695312 317.164062 241.847656 317.507812 C 242.003906 317.851562 242.339844 318.070312 242.710938 318.070312 L 248.375 318.070312 C 248.640625 318.070312 248.894531 317.953125 249.078125 317.757812 L 257.570312 308.261719 C 257.890625 307.902344 257.890625 307.351562 257.570312 306.992188 Z M 257.570312 306.992188 " fill-opacity="1" fill-rule="nonzero"/></g><g clip-path="url(#11efc1f0b2)"><path fill="#38b6ff" d="M 245.300781 306.992188 L 236.808594 297.5 C 236.625 297.296875 236.375 297.183594 236.105469 297.183594 L 230.445312 297.183594 C 230.070312 297.183594 229.734375 297.402344 229.582031 297.746094 C 229.429688 298.089844 229.492188 298.488281 229.742188 298.765625 L 237.667969 307.628906 L 229.742188 316.484375 C 229.492188 316.765625 229.429688 317.164062 229.582031 317.507812 C 229.734375 317.851562 230.070312 318.070312 230.445312 318.070312 L 236.105469 318.070312 C 236.375 318.070312 236.625 317.953125 236.808594 317.757812 L 245.300781 308.261719 C 245.625 307.902344 245.625 307.351562 245.300781 306.992188 Z M 245.300781 306.992188 " fill-opacity="1" fill-rule="nonzero"/></g><g clip-path="url(#ae4058613c)"><path fill="#38b6ff" d="M 220.445312 306.992188 L 211.953125 297.5 C 211.769531 297.296875 211.515625 297.183594 211.25 297.183594 L 205.585938 297.183594 C 205.214844 297.183594 204.878906 297.402344 204.722656 297.746094 C 204.574219 298.089844 204.636719 298.488281 204.886719 298.765625 L 212.808594 307.628906 L 204.886719 316.484375 C 204.636719 316.765625 204.570312 317.164062 204.722656 317.507812 C 204.878906 317.851562 205.214844 318.070312 205.585938 318.070312 L 211.25 318.070312 C 211.515625 318.070312 211.769531 317.953125 211.953125 317.757812 L 220.445312 308.261719 C 220.765625 307.902344 220.765625 307.351562 220.445312 306.992188 Z M 220.445312 306.992188 " fill-opacity="1" fill-rule="nonzero"/></g><g clip-path="url(#d518b0f1ef)"><path fill="#38b6ff" d="M 208.175781 306.992188 L 199.683594 297.5 C 199.5 297.296875 199.25 297.183594 198.980469 297.183594 L 193.320312 297.183594 C 192.945312 297.183594 192.609375 297.402344 192.457031 297.746094 C 192.304688 298.089844 192.367188 298.488281 192.617188 298.765625 L 200.542969 307.628906 L 192.617188 316.484375 C 192.367188 316.765625 192.304688 317.164062 192.457031 317.507812 C 192.609375 317.851562 192.945312 318.070312 193.320312 318.070312 L 198.980469 318.070312 C 199.25 318.070312 199.5 317.953125 199.683594 317.757812 L 208.175781 308.261719 C 208.5 307.902344 208.5 307.351562 208.175781 306.992188 Z M 208.175781 306.992188 " fill-opacity="1" fill-rule="nonzero"/></g><g clip-path="url(#0370f5fcbe)"><path fill="#38b6ff" d="M 183.320312 306.992188 L 174.828125 297.5 C 174.644531 297.296875 174.390625 297.183594 174.125 297.183594 L 168.460938 297.183594 C 168.089844 297.183594 167.753906 297.402344 167.597656 297.746094 C 167.449219 298.089844 167.511719 298.488281 167.761719 298.765625 L 175.683594 307.628906 L 167.761719 316.484375 C 167.511719 316.765625 167.445312 317.164062 167.597656 317.507812 C 167.753906 317.851562 168.089844 318.070312 168.460938 318.070312 L 174.125 318.070312 C 174.390625 318.070312 174.644531 317.953125 174.828125 317.757812 L 183.320312 308.261719 C 183.640625 307.902344 183.640625 307.351562 183.320312 306.992188 Z M 183.320312 306.992188 " fill-opacity="1" fill-rule="nonzero"/></g><g clip-path="url(#d04d3b486b)"><path fill="#38b6ff" d="M 171.050781 306.992188 L 162.558594 297.5 C 162.375 297.296875 162.125 297.183594 161.855469 297.183594 L 156.195312 297.183594 C 155.820312 297.183594 155.484375 297.402344 155.332031 297.746094 C 155.179688 298.089844 155.242188 298.488281 155.492188 298.765625 L 163.417969 307.628906 L 155.492188 316.484375 C 155.242188 316.765625 155.179688 317.164062 155.332031 317.507812 C 155.484375 317.851562 155.820312 318.070312 156.195312 318.070312 L 161.855469 318.070312 C 162.125 318.070312 162.375 317.953125 162.558594 317.757812 L 171.050781 308.261719 C 171.375 307.902344 171.375 307.351562 171.050781 306.992188 Z M 171.050781 306.992188 " fill-opacity="1" fill-rule="nonzero"/></g><g clip-path="url(#7c1b55f107)"><g clip-path="url(#2c91906963)"><g clip-path="url(#62fda7e112)"><path fill="#5ce1e6" d="M 146.183594 306.746094 L 137.523438 297.402344 C 137.339844 297.207031 137.085938 297.097656 136.816406 297.101562 L 131.15625 297.199219 C 130.785156 297.207031 130.449219 297.433594 130.304688 297.777344 C 130.160156 298.125 130.226562 298.523438 130.480469 298.796875 L 138.5625 307.515625 L 130.792969 316.511719 C 130.550781 316.796875 130.492188 317.195312 130.652344 317.535156 C 130.8125 317.875 131.152344 318.089844 131.523438 318.085938 L 137.1875 317.984375 C 137.453125 317.980469 137.703125 317.859375 137.882812 317.660156 L 146.207031 308.015625 C 146.523438 307.648438 146.511719 307.097656 146.183594 306.746094 Z M 146.183594 306.746094 " fill-opacity="1" fill-rule="nonzero"/></g></g></g><g clip-path="url(#85cbe15ec8)"><g clip-path="url(#1271a75847)"><g clip-path="url(#d7b3ea63f6)"><path fill="#5ce1e6" d="M 133.917969 306.960938 L 125.257812 297.621094 C 125.074219 297.421875 124.820312 297.3125 124.550781 297.316406 L 118.890625 297.417969 C 118.519531 297.425781 118.183594 297.648438 118.035156 297.996094 C 117.890625 298.339844 117.960938 298.742188 118.214844 299.011719 L 126.296875 307.730469 L 118.527344 316.726562 C 118.285156 317.011719 118.226562 317.414062 118.386719 317.753906 C 118.546875 318.09375 118.886719 318.308594 119.257812 318.300781 L 124.921875 318.203125 C 125.1875 318.195312 125.4375 318.074219 125.617188 317.875 L 133.941406 308.234375 C 134.257812 307.867188 134.246094 307.316406 133.917969 306.960938 Z M 133.917969 306.960938 " fill-opacity="1" fill-rule="nonzero"/></g></g></g><g clip-path="url(#29e3340f38)"><g clip-path="url(#a99913b41c)"><g clip-path="url(#834fd2497f)"><path fill="#38b6ff" d="M 99.40625 301.191406 L 97.382812 288.617188 C 97.335938 288.347656 97.1875 288.117188 96.960938 287.972656 L 92.195312 284.914062 C 91.882812 284.714844 91.476562 284.714844 91.164062 284.921875 C 90.851562 285.128906 90.6875 285.5 90.75 285.867188 L 92.636719 297.605469 L 81.183594 300.78125 C 80.824219 300.882812 80.550781 301.183594 80.496094 301.554688 C 80.441406 301.925781 80.605469 302.296875 80.917969 302.496094 L 85.683594 305.554688 C 85.910156 305.699219 86.183594 305.738281 86.445312 305.667969 L 98.71875 302.261719 C 99.1875 302.132812 99.484375 301.667969 99.40625 301.191406 Z M 99.40625 301.191406 " fill-opacity="1" fill-rule="nonzero"/></g></g></g><g clip-path="url(#4fa9ab5782)"><g clip-path="url(#861f75a974)"><g clip-path="url(#81eb5a9db1)"><path fill="#38b6ff" d="M 89.078125 294.570312 L 87.054688 281.992188 C 87.011719 281.726562 86.859375 281.492188 86.632812 281.347656 L 81.867188 278.292969 C 81.554688 278.089844 81.152344 278.09375 80.839844 278.296875 C 80.527344 278.507812 80.363281 278.878906 80.421875 279.246094 L 82.308594 290.980469 L 70.855469 294.160156 C 70.496094 294.257812 70.226562 294.5625 70.167969 294.933594 C 70.113281 295.304688 70.277344 295.671875 70.589844 295.871094 L 75.359375 298.929688 C 75.582031 299.074219 75.859375 299.113281 76.117188 299.046875 L 88.394531 295.640625 C 88.859375 295.507812 89.15625 295.046875 89.078125 294.570312 Z M 89.078125 294.570312 " fill-opacity="1" fill-rule="nonzero"/></g></g></g><g clip-path="url(#2818fc983d)"><g clip-path="url(#4c91032646)"><g clip-path="url(#fe6815ebd4)"><path fill="#38b6ff" d="M 61.433594 282.320312 L 61.902344 269.589844 C 61.910156 269.316406 61.808594 269.0625 61.613281 268.875 L 57.535156 264.945312 C 57.269531 264.6875 56.871094 264.613281 56.523438 264.753906 C 56.175781 264.894531 55.945312 265.226562 55.929688 265.601562 L 55.492188 277.480469 L 43.640625 278.363281 C 43.265625 278.390625 42.941406 278.632812 42.816406 278.988281 C 42.6875 279.339844 42.777344 279.734375 43.046875 279.992188 L 47.125 283.917969 C 47.316406 284.105469 47.582031 284.195312 47.847656 284.179688 L 60.550781 283.234375 C 61.035156 283.199219 61.414062 282.800781 61.433594 282.320312 Z M 61.433594 282.320312 " fill-opacity="1" fill-rule="nonzero"/></g></g></g><g clip-path="url(#6a7f5179b1)"><g clip-path="url(#82f935f69e)"><g clip-path="url(#5e2eb8630d)"><path fill="#38b6ff" d="M 52.597656 273.808594 L 53.066406 261.078125 C 53.074219 260.808594 52.96875 260.550781 52.777344 260.363281 L 48.699219 256.4375 C 48.429688 256.179688 48.035156 256.101562 47.6875 256.242188 C 47.339844 256.386719 47.109375 256.71875 47.09375 257.089844 L 46.65625 268.96875 L 34.804688 269.851562 C 34.429688 269.878906 34.105469 270.125 33.980469 270.476562 C 33.851562 270.828125 33.941406 271.222656 34.210938 271.480469 L 38.289062 275.410156 C 38.480469 275.59375 38.742188 275.6875 39.011719 275.671875 L 51.714844 274.722656 C 52.199219 274.6875 52.578125 274.289062 52.597656 273.808594 Z M 52.597656 273.808594 " fill-opacity="1" fill-rule="nonzero"/></g></g></g><g clip-path="url(#bb34e47750)"><g clip-path="url(#1d7fc97ec7)"><g clip-path="url(#37cac696a5)"><path fill="#38b6ff" d="M 36.792969 250.25 L 40.734375 238.136719 C 40.816406 237.878906 40.789062 237.601562 40.652344 237.371094 L 37.808594 232.476562 C 37.621094 232.15625 37.261719 231.972656 36.890625 232.011719 C 36.515625 232.054688 36.199219 232.308594 36.085938 232.664062 L 32.410156 243.96875 L 20.769531 241.570312 C 20.402344 241.492188 20.023438 241.640625 19.804688 241.945312 C 19.585938 242.25 19.5625 242.652344 19.75 242.972656 L 22.597656 247.867188 C 22.730469 248.101562 22.957031 248.261719 23.21875 248.316406 L 35.695312 250.890625 C 36.171875 250.988281 36.648438 250.710938 36.792969 250.25 Z M 36.792969 250.25 " fill-opacity="1" fill-rule="nonzero"/></g></g></g><g clip-path="url(#28f299c2e2)"><g clip-path="url(#ee2b766b3d)"><g clip-path="url(#037fabedfc)"><path fill="#38b6ff" d="M 30.628906 239.644531 L 34.570312 227.53125 C 34.652344 227.273438 34.625 226.996094 34.488281 226.765625 L 31.644531 221.871094 C 31.457031 221.546875 31.097656 221.367188 30.722656 221.40625 C 30.351562 221.449219 30.035156 221.703125 29.921875 222.058594 L 26.246094 233.363281 L 14.601562 230.960938 C 14.238281 230.886719 13.859375 231.035156 13.640625 231.335938 C 13.417969 231.640625 13.398438 232.042969 13.585938 232.367188 L 16.429688 237.261719 C 16.566406 237.492188 16.792969 237.652344 17.054688 237.710938 L 29.53125 240.28125 C 30.003906 240.378906 30.480469 240.105469 30.628906 239.644531 Z M 30.628906 239.644531 " fill-opacity="1" fill-rule="nonzero"/></g></g></g><g clip-path="url(#39025beba0)"><path fill="#5ce1e6" d="M 20.015625 200.003906 L 29.507812 191.511719 C 29.710938 191.332031 29.824219 191.078125 29.824219 190.808594 L 29.824219 185.148438 C 29.824219 184.777344 29.605469 184.4375 29.261719 184.285156 C 28.917969 184.132812 28.515625 184.195312 28.242188 184.445312 L 19.378906 192.371094 L 10.523438 184.445312 C 10.242188 184.195312 9.84375 184.132812 9.5 184.285156 C 9.15625 184.4375 8.9375 184.777344 8.9375 185.148438 L 8.9375 190.808594 C 8.9375 191.078125 9.050781 191.332031 9.25 191.511719 L 18.746094 200.003906 C 19.105469 200.328125 19.65625 200.328125 20.015625 200.003906 Z M 20.015625 200.003906 " fill-opacity="1" fill-rule="nonzero"/></g><g clip-path="url(#0fcd474285)"><path fill="#5ce1e6" d="M 20.015625 187.738281 L 29.507812 179.242188 C 29.710938 179.0625 29.824219 178.808594 29.824219 178.542969 L 29.824219 172.878906 C 29.824219 172.507812 29.605469 172.171875 29.261719 172.015625 C 28.917969 171.867188 28.515625 171.929688 28.242188 172.175781 L 19.378906 180.101562 L 10.523438 172.175781 C 10.242188 171.929688 9.84375 171.863281 9.5 172.015625 C 9.15625 172.171875 8.9375 172.507812 8.9375 172.878906 L 8.9375 178.542969 C 8.9375 178.808594 9.050781 179.0625 9.25 179.242188 L 18.746094 187.738281 C 19.105469 188.058594 19.65625 188.058594 20.015625 187.738281 Z M 20.015625 187.738281 " fill-opacity="1" fill-rule="nonzero"/></g><g clip-path="url(#3fc7f6c6bf)"><g clip-path="url(#31f1670af4)"><g clip-path="url(#e3c6d1e4aa)"><path fill="#38b6ff" d="M 22.28125 145.097656 L 34.921875 143.527344 C 35.191406 143.492188 35.429688 143.347656 35.582031 143.128906 L 38.808594 138.476562 C 39.019531 138.167969 39.03125 137.765625 38.835938 137.445312 C 38.640625 137.125 38.273438 136.949219 37.90625 136.996094 L 26.109375 138.460938 L 23.34375 126.902344 C 23.253906 126.539062 22.960938 126.257812 22.59375 126.191406 C 22.226562 126.121094 21.851562 126.273438 21.640625 126.578125 L 18.414062 131.230469 C 18.261719 131.453125 18.210938 131.726562 18.273438 131.988281 L 21.238281 144.375 C 21.351562 144.847656 21.800781 145.160156 22.28125 145.097656 Z M 22.28125 145.097656 " fill-opacity="1" fill-rule="nonzero"/></g></g></g><g clip-path="url(#d1f820e60f)"><g clip-path="url(#ff64905a8e)"><g clip-path="url(#be9332755d)"><path fill="#38b6ff" d="M 29.269531 135.015625 L 41.910156 133.441406 C 42.179688 133.410156 42.417969 133.265625 42.570312 133.046875 L 45.792969 128.390625 C 46.007812 128.085938 46.019531 127.683594 45.824219 127.363281 C 45.628906 127.042969 45.261719 126.867188 44.894531 126.914062 L 33.097656 128.378906 L 30.332031 116.820312 C 30.242188 116.457031 29.949219 116.175781 29.582031 116.105469 C 29.210938 116.035156 28.839844 116.1875 28.628906 116.492188 L 25.402344 121.148438 C 25.25 121.367188 25.199219 121.640625 25.261719 121.902344 L 28.226562 134.292969 C 28.335938 134.761719 28.789062 135.078125 29.269531 135.015625 Z M 29.269531 135.015625 " fill-opacity="1" fill-rule="nonzero"/></g></g></g><g clip-path="url(#0405690c2a)"><g clip-path="url(#d3b9c836b8)"><g clip-path="url(#c28732aa6f)"><path fill="#38b6ff" d="M 45.109375 108.90625 L 57.78125 110.222656 C 58.050781 110.25 58.3125 110.164062 58.511719 109.984375 L 62.703125 106.175781 C 62.976562 105.925781 63.078125 105.535156 62.960938 105.179688 C 62.84375 104.824219 62.527344 104.570312 62.15625 104.53125 L 50.332031 103.304688 L 50.242188 91.417969 C 50.238281 91.042969 50.015625 90.703125 49.675781 90.554688 C 49.332031 90.402344 48.933594 90.46875 48.65625 90.71875 L 44.464844 94.523438 C 44.265625 94.707031 44.160156 94.960938 44.15625 95.230469 L 44.253906 107.96875 C 44.257812 108.453125 44.628906 108.859375 45.109375 108.90625 Z M 45.109375 108.90625 " fill-opacity="1" fill-rule="nonzero"/></g></g></g><g clip-path="url(#433ebaf64b)"><g clip-path="url(#d686f16cd9)"><g clip-path="url(#d3dfdafabc)"><path fill="#38b6ff" d="M 54.1875 100.65625 L 66.859375 101.972656 C 67.128906 102 67.394531 101.914062 67.589844 101.734375 L 71.78125 97.925781 C 72.058594 97.675781 72.160156 97.285156 72.042969 96.929688 C 71.921875 96.574219 71.609375 96.320312 71.238281 96.28125 L 59.414062 95.054688 L 59.324219 83.167969 C 59.320312 82.792969 59.097656 82.453125 58.753906 82.304688 C 58.410156 82.152344 58.011719 82.21875 57.738281 82.46875 L 53.546875 86.273438 C 53.347656 86.457031 53.238281 86.710938 53.238281 86.980469 L 53.335938 99.71875 C 53.339844 100.203125 53.710938 100.609375 54.1875 100.65625 Z M 54.1875 100.65625 " fill-opacity="1" fill-rule="nonzero"/></g></g></g><g clip-path="url(#a602cc53e5)"><g clip-path="url(#12c6f7b70c)"><g clip-path="url(#5fc6c893de)"><path fill="#38b6ff" d="M 75.378906 84.589844 L 87.1875 89.363281 C 87.441406 89.460938 87.71875 89.453125 87.957031 89.335938 L 93.039062 86.835938 C 93.371094 86.671875 93.578125 86.328125 93.566406 85.953125 C 93.550781 85.578125 93.316406 85.246094 92.96875 85.105469 L 81.949219 80.652344 L 85.152344 69.207031 C 85.253906 68.84375 85.136719 68.457031 84.847656 68.21875 C 84.558594 67.976562 84.160156 67.929688 83.824219 68.09375 L 78.742188 70.589844 C 78.503906 70.707031 78.328125 70.925781 78.25 71.179688 L 74.816406 83.449219 C 74.6875 83.914062 74.929688 84.410156 75.378906 84.589844 Z M 75.378906 84.589844 " fill-opacity="1" fill-rule="nonzero"/></g></g></g><g clip-path="url(#4a71af8a9b)"><g clip-path="url(#360ea42f0b)"><g clip-path="url(#0f80d36e20)"><path fill="#38b6ff" d="M 86.386719 79.175781 L 98.199219 83.949219 C 98.449219 84.050781 98.726562 84.042969 98.96875 83.921875 L 104.050781 81.425781 C 104.382812 81.261719 104.589844 80.914062 104.574219 80.539062 C 104.558594 80.164062 104.328125 79.832031 103.980469 79.695312 L 92.960938 75.238281 L 96.164062 63.792969 C 96.265625 63.433594 96.144531 63.046875 95.859375 62.804688 C 95.570312 62.566406 95.167969 62.515625 94.835938 62.679688 L 89.753906 65.179688 C 89.511719 65.296875 89.335938 65.511719 89.261719 65.769531 L 85.828125 78.035156 C 85.695312 78.503906 85.941406 78.996094 86.386719 79.175781 Z M 86.386719 79.175781 " fill-opacity="1" fill-rule="nonzero"/></g></g></g><g clip-path="url(#ad4e2f7f1f)"><path fill="#5ce1e6" d="M 118.214844 68.148438 L 126.707031 77.640625 C 126.890625 77.84375 127.144531 77.957031 127.410156 77.957031 L 133.074219 77.957031 C 133.445312 77.957031 133.78125 77.738281 133.9375 77.394531 C 134.085938 77.050781 134.023438 76.652344 133.773438 76.375 L 125.851562 67.515625 L 133.773438 58.65625 C 134.023438 58.375 134.089844 57.976562 133.9375 57.632812 C 133.78125 57.289062 133.445312 57.070312 133.074219 57.070312 L 127.410156 57.070312 C 127.144531 57.070312 126.890625 57.1875 126.707031 57.382812 L 118.214844 66.878906 C 117.894531 67.238281 117.894531 67.789062 118.214844 68.148438 Z M 118.214844 68.148438 " fill-opacity="1" fill-rule="nonzero"/></g><g clip-path="url(#0004c478f6)"><path fill="#5ce1e6" d="M 130.484375 68.148438 L 138.976562 77.640625 C 139.160156 77.84375 139.410156 77.957031 139.679688 77.957031 L 145.339844 77.957031 C 145.714844 77.957031 146.050781 77.738281 146.203125 77.394531 C 146.355469 77.050781 146.292969 76.652344 146.042969 76.375 L 138.117188 67.515625 L 146.042969 58.65625 C 146.292969 58.375 146.355469 57.976562 146.203125 57.632812 C 146.050781 57.289062 145.714844 57.070312 145.339844 57.070312 L 139.679688 57.070312 C 139.410156 57.070312 139.160156 57.1875 138.976562 57.382812 L 130.484375 66.878906 C 130.160156 67.238281 130.160156 67.789062 130.484375 68.148438 Z M 130.484375 68.148438 " fill-opacity="1" fill-rule="nonzero"/></g><g clip-path="url(#fd9fb4bc8e)"><g clip-path="url(#66509c0f7a)"><g clip-path="url(#1b7d7b9b85)"><path fill="#38b6ff" d="M 154.75 67.308594 L 162.957031 77.054688 C 163.128906 77.257812 163.378906 77.382812 163.648438 77.390625 L 169.308594 77.558594 C 169.679688 77.570312 170.023438 77.359375 170.1875 77.023438 C 170.347656 76.683594 170.296875 76.28125 170.058594 75.996094 L 162.402344 66.902344 L 170.589844 58.289062 C 170.847656 58.015625 170.925781 57.617188 170.78125 57.273438 C 170.640625 56.921875 170.308594 56.691406 169.9375 56.683594 L 164.277344 56.511719 C 164.007812 56.503906 163.753906 56.613281 163.566406 56.804688 L 154.789062 66.039062 C 154.457031 66.386719 154.441406 66.9375 154.75 67.308594 Z M 154.75 67.308594 " fill-opacity="1" fill-rule="nonzero"/></g></g></g><g clip-path="url(#e8c19dafe5)"><g clip-path="url(#163e912859)"><g clip-path="url(#dfe7004bfa)"><path fill="#38b6ff" d="M 167.015625 67.675781 L 175.21875 77.421875 C 175.394531 77.628906 175.640625 77.75 175.910156 77.757812 L 181.570312 77.929688 C 181.941406 77.941406 182.285156 77.730469 182.449219 77.394531 C 182.609375 77.054688 182.558594 76.652344 182.320312 76.367188 L 174.664062 67.273438 L 182.851562 58.65625 C 183.109375 58.386719 183.1875 57.988281 183.042969 57.640625 C 182.902344 57.292969 182.570312 57.0625 182.199219 57.050781 L 176.539062 56.878906 C 176.269531 56.871094 176.015625 56.980469 175.828125 57.171875 L 167.050781 66.40625 C 166.71875 66.757812 166.703125 67.308594 167.015625 67.675781 Z M 167.015625 67.675781 " fill-opacity="1" fill-rule="nonzero"/></g></g></g><g clip-path="url(#50ecfa62f6)"><g clip-path="url(#3be5e0aaf6)"><g clip-path="url(#a39ffe079a)"><path fill="#5ce1e6" d="M 266.402344 67.308594 L 274.609375 77.054688 C 274.78125 77.257812 275.03125 77.382812 275.300781 77.390625 L 280.960938 77.558594 C 281.332031 77.570312 281.675781 77.359375 281.839844 77.023438 C 282 76.683594 281.949219 76.28125 281.710938 75.996094 L 274.054688 66.902344 L 282.242188 58.289062 C 282.5 58.015625 282.578125 57.617188 282.433594 57.273438 C 282.292969 56.921875 281.960938 56.691406 281.589844 56.683594 L 275.929688 56.511719 C 275.660156 56.503906 275.40625 56.613281 275.21875 56.804688 L 266.441406 66.039062 C 266.109375 66.386719 266.09375 66.9375 266.402344 67.308594 Z M 266.402344 67.308594 " fill-opacity="1" fill-rule="nonzero"/></g></g></g><g clip-path="url(#38e6bae4fd)"><g clip-path="url(#fb6b777b3c)"><g clip-path="url(#dddb313856)"><path fill="#5ce1e6" d="M 278.667969 67.675781 L 286.871094 77.421875 C 287.046875 77.628906 287.292969 77.75 287.5625 77.757812 L 293.222656 77.929688 C 293.59375 77.941406 293.9375 77.730469 294.101562 77.394531 C 294.261719 77.054688 294.210938 76.652344 293.972656 76.367188 L 286.316406 67.273438 L 294.503906 58.65625 C 294.761719 58.386719 294.839844 57.988281 294.695312 57.640625 C 294.554688 57.292969 294.222656 57.0625 293.851562 57.050781 L 288.191406 56.878906 C 287.921875 56.871094 287.667969 56.980469 287.480469 57.171875 L 278.703125 66.40625 C 278.371094 66.757812 278.355469 67.308594 278.667969 67.675781 Z M 278.667969 67.675781 " fill-opacity="1" fill-rule="nonzero"/></g></g></g><g clip-path="url(#0a39f8d1ec)"><g clip-path="url(#a7c8b697b9)"><g clip-path="url(#7cf86756f1)"><path fill="#38b6ff" d="M 229.277344 67.308594 L 237.484375 77.054688 C 237.65625 77.257812 237.90625 77.382812 238.175781 77.390625 L 243.835938 77.558594 C 244.207031 77.570312 244.550781 77.359375 244.714844 77.023438 C 244.875 76.683594 244.824219 76.28125 244.585938 75.996094 L 236.929688 66.902344 L 245.117188 58.289062 C 245.375 58.015625 245.453125 57.617188 245.308594 57.273438 C 245.167969 56.921875 244.835938 56.691406 244.464844 56.683594 L 238.804688 56.511719 C 238.535156 56.503906 238.28125 56.613281 238.09375 56.804688 L 229.316406 66.039062 C 228.984375 66.386719 228.96875 66.9375 229.277344 67.308594 Z M 229.277344 67.308594 " fill-opacity="1" fill-rule="nonzero"/></g></g></g><g clip-path="url(#fab9b135f9)"><g clip-path="url(#a85fdfbe28)"><g clip-path="url(#6c3dc8ce8f)"><path fill="#38b6ff" d="M 241.542969 67.675781 L 249.746094 77.421875 C 249.921875 77.628906 250.167969 77.75 250.4375 77.757812 L 256.097656 77.929688 C 256.46875 77.941406 256.8125 77.730469 256.976562 77.394531 C 257.136719 77.054688 257.085938 76.652344 256.847656 76.367188 L 249.191406 67.273438 L 257.378906 58.65625 C 257.636719 58.386719 257.714844 57.988281 257.570312 57.640625 C 257.429688 57.292969 257.097656 57.0625 256.726562 57.050781 L 251.066406 56.878906 C 250.796875 56.871094 250.542969 56.980469 250.355469 57.171875 L 241.578125 66.40625 C 241.246094 66.757812 241.230469 67.308594 241.542969 67.675781 Z M 241.542969 67.675781 " fill-opacity="1" fill-rule="nonzero"/></g></g></g><g clip-path="url(#569a390db1)"><g clip-path="url(#f846116c37)"><g clip-path="url(#a68450ebed)"><path fill="#38b6ff" d="M 192.761719 67.308594 L 200.964844 77.054688 C 201.140625 77.257812 201.390625 77.382812 201.660156 77.390625 L 207.316406 77.558594 C 207.691406 77.570312 208.035156 77.359375 208.199219 77.023438 C 208.359375 76.683594 208.308594 76.28125 208.066406 75.996094 L 200.414062 66.902344 L 208.601562 58.289062 C 208.859375 58.015625 208.933594 57.617188 208.792969 57.273438 C 208.648438 56.921875 208.320312 56.691406 207.945312 56.683594 L 202.289062 56.511719 C 202.019531 56.503906 201.761719 56.613281 201.574219 56.804688 L 192.800781 66.039062 C 192.46875 66.386719 192.449219 66.9375 192.761719 67.308594 Z M 192.761719 67.308594 " fill-opacity="1" fill-rule="nonzero"/></g></g></g><g clip-path="url(#258869ba75)"><g clip-path="url(#73c2ed6acb)"><g clip-path="url(#ec82ca7291)"><path fill="#38b6ff" d="M 205.023438 67.675781 L 213.230469 77.421875 C 213.402344 77.628906 213.652344 77.75 213.921875 77.757812 L 219.582031 77.929688 C 219.953125 77.941406 220.296875 77.730469 220.460938 77.394531 C 220.621094 77.054688 220.570312 76.652344 220.332031 76.367188 L 212.675781 67.273438 L 220.863281 58.65625 C 221.121094 58.386719 221.199219 57.988281 221.054688 57.640625 C 220.914062 57.292969 220.582031 57.0625 220.210938 57.050781 L 214.550781 56.878906 C 214.28125 56.871094 214.027344 56.980469 213.839844 57.171875 L 205.0625 66.40625 C 204.730469 66.757812 204.714844 67.308594 205.023438 67.675781 Z M 205.023438 67.675781 " fill-opacity="1" fill-rule="nonzero"/></g></g></g></svg>