<svg xmlns="http://www.w3.org/2000/svg" width="450" viewBox="0 0 337.5 375" height="500" version="1.0"><defs><clipPath id="prefix__a"><path d="M0 52.777h303.75V323H0zm0 0"/></clipPath><clipPath id="prefix__b"><path d="M7.918 142.824C3.137 156.668 0 172.406 0 187.852c0 15.445 2.688 30.304 7.469 44.003.152.29.152.583.3.875 19.122 51.434 69.622 89.32 127.887 90.047H303.75v-270H135.781c-58.687.73-109.187 38.032-127.863 90.047"/></clipPath><clipPath id="prefix__c"><path d="M0 52.777h303.75v270H0zm0 0"/></clipPath><clipPath id="prefix__d"><path d="M7.918 142.824C3.137 156.668 0 172.406 0 187.852c0 15.445 2.688 30.304 7.469 44.003.152.29.152.583.3.875 19.122 51.434 69.622 89.32 127.887 90.047H303.75v-270H135.781c-58.687.73-109.187 38.032-127.863 90.047"/></clipPath><clipPath id="prefix__e"><path d="M34 77h217v217H34zm0 0"/></clipPath><clipPath id="prefix__f"><path d="M106.29 37.43l185.105 111.879-111.88 185.105L-5.59 222.531zm0 0"/></clipPath><clipPath id="prefix__g"><path d="M198.719 93.293C147.672 62.441 81.277 78.809 50.426 129.855 19.57 180.902 35.94 247.297 86.988 278.152c51.047 30.852 117.442 14.48 148.293-36.566 30.856-51.047 14.485-117.438-36.562-148.293"/></clipPath><clipPath id="prefix__h"><path d="M34 77h217v217H34zm0 0"/></clipPath><clipPath id="prefix__i"><path d="M106.29 37.43l184.858 111.73-111.73 184.856-184.86-111.73zm0 0"/></clipPath><clipPath id="prefix__j"><path d="M106.29 37.43l187.472 113.308-113.313 187.473L-7.02 224.898zm0 0"/></clipPath><clipPath id="prefix__k"><path d="M198.719 93.293C147.672 62.441 81.277 78.809 50.426 129.855 19.57 180.902 35.94 247.297 86.988 278.152c51.047 30.852 117.442 14.48 148.293-36.566 30.856-51.047 14.485-117.438-36.562-148.293"/></clipPath><clipPath id="prefix__l"><path d="M151 122h32v37h-32zm0 0"/></clipPath><clipPath id="prefix__m"><path d="M167.043 122.402l15.777 9-15.82 27.73-15.777-9.003zm0 0"/></clipPath><clipPath id="prefix__n"><path d="M167.043 122.402l15.43 8.805-15.723 27.555-15.43-8.805zm0 0"/></clipPath><clipPath id="prefix__o"><path d="M151 207h32v37h-32zm0 0"/></clipPath><clipPath id="prefix__p"><path d="M151.355 215.73l15.786-8.988 15.797 27.742-15.782 8.989zm0 0"/></clipPath><clipPath id="prefix__q"><path d="M151.355 215.73l15.438-8.792 15.703 27.57-15.437 8.793zm0 0"/></clipPath><clipPath id="prefix__r"><path d="M93 140h74v86H93zm0 0"/></clipPath><clipPath id="prefix__s"><path d="M93.652 225.148l-.043-85.199 73.989-.035.043 85.2zm0 0"/></clipPath><clipPath id="prefix__t"><path d="M93.633 182.875l73.25-42.309.043 84.547-73.293-42.238"/></clipPath><clipPath id="prefix__u"><path d="M85 174h33v18H85zm0 0"/></clipPath><clipPath id="prefix__v"><path d="M85.742 191.77l-.012-18.165 31.926-.015.012 18.164zm0 0"/></clipPath><clipPath id="prefix__w"><path d="M85.742 191.77l-.008-17.766 31.727-.016.008 17.766zm0 0"/></clipPath><clipPath id="prefix__x"><path d="M37 155h56v56H37zm0 0"/></clipPath><clipPath id="prefix__y"><path d="M92.36 211.324l-55.61-1.254 1.254-55.61 55.61 1.255zm0 0"/></clipPath><clipPath id="prefix__z"><path d="M64.555 210.695c15.355.348 28.086-11.82 28.43-27.175.347-15.356-11.82-28.086-27.176-28.43-15.356-.348-28.086 11.82-28.43 27.176-.348 15.355 11.82 28.086 27.176 28.43"/></clipPath><clipPath id="prefix__A"><path d="M37 155h56v56H37zm0 0"/></clipPath><clipPath id="prefix__B"><path d="M92.36 211.324l-55.485-1.25 1.25-55.488 55.484 1.25zm0 0"/></clipPath><clipPath id="prefix__C"><path d="M92.36 211.324l-55.485-1.25 1.25-55.488 55.484 1.25zm0 0"/></clipPath><clipPath id="prefix__D"><path d="M64.617 210.7c15.32.343 28.024-11.798 28.367-27.118.344-15.324-11.796-28.023-27.117-28.371-15.324-.344-28.023 11.797-28.367 27.121-.348 15.32 11.793 28.02 27.117 28.367"/></clipPath><clipPath id="prefix__E"><path d="M154 223h56v56h-56zm0 0"/></clipPath><clipPath id="prefix__F"><path d="M171.746 289.07l-27.82-48.164 48.168-27.82 27.816 48.168zm0 0"/></clipPath><clipPath id="prefix__G"><path d="M157.836 264.988c7.68 13.301 24.691 17.856 37.992 10.176 13.3-7.684 17.856-24.691 10.176-37.992-7.684-13.3-24.691-17.86-37.992-10.176-13.301 7.68-17.856 24.691-10.176 37.992"/></clipPath><clipPath id="prefix__H"><path d="M154 223h56v56h-56zm0 0"/></clipPath><clipPath id="prefix__I"><path d="M171.746 289.07l-27.758-48.058 48.063-27.758 27.754 48.062zm0 0"/></clipPath><clipPath id="prefix__J"><path d="M171.746 289.07l-27.758-48.058 48.063-27.758 27.754 48.062zm0 0"/></clipPath><clipPath id="prefix__K"><path d="M157.867 265.04c7.664 13.272 24.637 17.82 37.906 10.151 13.274-7.664 17.82-24.636 10.153-37.906-7.664-13.273-24.637-17.816-37.906-10.152-13.274 7.664-17.817 24.637-10.153 37.906"/></clipPath><clipPath id="prefix__L"><path d="M152 90h56v57h-56zm0 0"/></clipPath><clipPath id="prefix__M"><path d="M207.121 146.707l-55.605-1.25 1.25-55.61 55.609 1.255zm0 0"/></clipPath><clipPath id="prefix__N"><path d="M179.32 146.082c15.356.344 28.082-11.824 28.43-27.18.344-15.355-11.824-28.082-27.18-28.43-15.355-.343-28.082 11.825-28.43 27.18-.343 15.356 11.82 28.082 27.18 28.43"/></clipPath><clipPath id="prefix__O"><path d="M152 90h56v57h-56zm0 0"/></clipPath><clipPath id="prefix__P"><path d="M207.121 146.707l-55.484-1.25 1.25-55.484 55.484 1.25zm0 0"/></clipPath><clipPath id="prefix__Q"><path d="M207.121 146.707l-55.484-1.25 1.25-55.484 55.484 1.25zm0 0"/></clipPath><clipPath id="prefix__R"><path d="M179.379 146.082c15.324.348 28.023-11.797 28.367-27.117.348-15.32-11.793-28.024-27.117-28.367-15.32-.348-28.024 11.797-28.367 27.117-.344 15.32 11.797 28.023 27.117 28.367"/></clipPath><clipPath id="prefix__S"><path d="M58 175h15v15H58zm0 0"/></clipPath><clipPath id="prefix__T"><path d="M58.207 189.879l-.004-13.957 13.957-.008.008 13.957zm0 0"/></clipPath><clipPath id="prefix__U"><path d="M58.207 182.898a6.974 6.974 0 006.98 6.977 6.977 6.977 0 006.977-6.98 6.978 6.978 0 00-6.984-6.977 6.976 6.976 0 00-6.973 6.98"/></clipPath><clipPath id="prefix__V"><path d="M174 244h15v15h-15zm0 0"/></clipPath><clipPath id="prefix__W"><path d="M172.387 248.531l12.086-6.98 6.98 12.086-12.086 6.984zm0 0"/></clipPath><clipPath id="prefix__X"><path d="M178.43 245.04a6.982 6.982 0 00-2.555 9.534 6.977 6.977 0 009.535 2.555c3.34-1.926 4.48-6.195 2.555-9.535a6.985 6.985 0 00-9.535-2.555"/></clipPath><clipPath id="prefix__Y"><path d="M172 110h15v15h-15zm0 0"/></clipPath><clipPath id="prefix__Z"><path d="M172.063 124.762l-.008-13.957 13.96-.008.005 13.96zm0 0"/></clipPath><clipPath id="prefix__aa"><path d="M172.059 117.785a6.977 6.977 0 006.984 6.973 6.973 6.973 0 006.973-6.98 6.974 6.974 0 00-6.98-6.977 6.978 6.978 0 00-6.977 6.984"/></clipPath><clipPath id="prefix__ab"><path d="M92 116h42v27H92zm0 0"/></clipPath><clipPath id="prefix__ac"><path d="M134.117 118.977L95.453 146.14l-7.762-11.047 38.664-27.16zm0 0"/></clipPath><clipPath id="prefix__ad"><path d="M134.117 118.977L95.453 146.14l-7.762-11.047 38.664-27.16zm0 0"/></clipPath><clipPath id="prefix__ae"><path d="M134.117 118.977L95.453 146.14l-7.762-11.047 38.664-27.16zm0 0"/></clipPath><clipPath id="prefix__af"><path d="M124 118h1v1h-1zm0 0"/></clipPath><clipPath id="prefix__ag"><path d="M134.117 118.977L95.453 146.14l-7.762-11.047 38.664-27.16zm0 0"/></clipPath><clipPath id="prefix__ah"><path d="M134.117 118.977L95.453 146.14l-7.762-11.047 38.664-27.16zm0 0"/></clipPath><clipPath id="prefix__ai"><path d="M134.117 118.977L95.453 146.14l-7.762-11.047 38.664-27.16zm0 0"/></clipPath><clipPath id="prefix__aj"><path d="M202 159h14v48h-14zm0 0"/></clipPath><clipPath id="prefix__ak"><path d="M202.988 206.215l.047-47.25 13.5.012-.047 47.25zm0 0"/></clipPath><clipPath id="prefix__al"><path d="M202.988 206.215l.047-47.25 13.5.012-.047 47.25zm0 0"/></clipPath><clipPath id="prefix__am"><path d="M202.988 206.215l.047-47.25 13.5.012-.047 47.25zm0 0"/></clipPath><clipPath id="prefix__an"><path d="M209 198h1v2h-1zm0 0"/></clipPath><clipPath id="prefix__ao"><path d="M202.988 206.215l.047-47.25 13.5.012-.047 47.25zm0 0"/></clipPath><clipPath id="prefix__ap"><path d="M202.988 206.215l.047-47.25 13.5.012-.047 47.25zm0 0"/></clipPath><clipPath id="prefix__aq"><path d="M202.988 206.215l.047-47.25 13.5.012-.047 47.25zm0 0"/></clipPath><clipPath id="prefix__ar"><path d="M94 224h38v33H94zm0 0"/></clipPath><clipPath id="prefix__as"><path d="M95.152 223.352l38.797 26.964-7.703 11.086-38.8-26.968zm0 0"/></clipPath><clipPath id="prefix__at"><path d="M95.152 223.352l38.797 26.964-7.703 11.086-38.8-26.968zm0 0"/></clipPath><clipPath id="prefix__au"><path d="M95.152 223.352l38.797 26.964-7.703 11.086-38.8-26.968zm0 0"/></clipPath><clipPath id="prefix__av"><path d="M97 232h1v1h-1zm0 0"/></clipPath><clipPath id="prefix__aw"><path d="M95.152 223.352l38.797 26.964-7.703 11.086-38.8-26.968zm0 0"/></clipPath><clipPath id="prefix__ax"><path d="M95.152 223.352l38.797 26.964-7.703 11.086-38.8-26.968zm0 0"/></clipPath><clipPath id="prefix__ay"><path d="M95.152 223.352l38.797 26.964-7.703 11.086-38.8-26.968zm0 0"/></clipPath><clipPath id="prefix__az"><path d="M278 297.129h17v21h-17zm0 0"/></clipPath><clipPath id="prefix__aA"><path d="M266.625 297.129H283v21h-16.375zm0 0"/></clipPath><clipPath id="prefix__aB"><path d="M241 297.129h17v21h-17zm0 0"/></clipPath><clipPath id="prefix__aC"><path d="M229.5 297.129H246v21h-16.5zm0 0"/></clipPath><clipPath id="prefix__aD"><path d="M204 297.129h16.875v21H204zm0 0"/></clipPath><clipPath id="prefix__aE"><path d="M192.375 297.129H209v21h-16.625zm0 0"/></clipPath><clipPath id="prefix__aF"><path d="M167 297.129h16.75v21H167zm0 0"/></clipPath><clipPath id="prefix__aG"><path d="M155.25 297.129H172v21h-16.75zm0 0"/></clipPath><clipPath id="prefix__aH"><path d="M130 297h17v22h-17zm0 0"/></clipPath><clipPath id="prefix__aI"><path d="M117.945 297.379l28.496-.504.371 20.996-28.496.504zm0 0"/></clipPath><clipPath id="prefix__aJ"><path d="M117.945 297.379l28.496-.504.371 20.996-28.496.504zm0 0"/></clipPath><clipPath id="prefix__aK"><path d="M117 297h18v22h-18zm0 0"/></clipPath><clipPath id="prefix__aL"><path d="M117.945 297.379l28.496-.504.371 20.996-28.496.504zm0 0"/></clipPath><clipPath id="prefix__aM"><path d="M117.945 297.379l28.496-.504.371 20.996-28.496.504zm0 0"/></clipPath><clipPath id="prefix__aN"><path d="M80 284h20v22H80zm0 0"/></clipPath><clipPath id="prefix__aO"><path d="M81.105 277.734l23.989 15.387-11.336 17.676-23.992-15.387zm0 0"/></clipPath><clipPath id="prefix__aP"><path d="M81.105 277.734l23.989 15.387-11.336 17.676-23.992-15.387zm0 0"/></clipPath><clipPath id="prefix__aQ"><path d="M70 278h20v22H70zm0 0"/></clipPath><clipPath id="prefix__aR"><path d="M81.105 277.734l23.989 15.387-11.336 17.676-23.992-15.387zm0 0"/></clipPath><clipPath id="prefix__aS"><path d="M81.105 277.734l23.989 15.387-11.336 17.676-23.992-15.387zm0 0"/></clipPath><clipPath id="prefix__aT"><path d="M42 264h20v21H42zm0 0"/></clipPath><clipPath id="prefix__aU"><path d="M48.059 255.742l20.527 19.77-14.566 15.125-20.528-19.77zm0 0"/></clipPath><clipPath id="prefix__aV"><path d="M48.059 255.742l20.527 19.77-14.566 15.125-20.528-19.77zm0 0"/></clipPath><clipPath id="prefix__aW"><path d="M33 256h21v20H33zm0 0"/></clipPath><clipPath id="prefix__aX"><path d="M48.059 255.742l20.527 19.77-14.566 15.125-20.528-19.77zm0 0"/></clipPath><clipPath id="prefix__aY"><path d="M48.059 255.742l20.527 19.77-14.566 15.125-20.528-19.77zm0 0"/></clipPath><clipPath id="prefix__aZ"><path d="M19 232h22v19H19zm0 0"/></clipPath><clipPath id="prefix__ba"><path d="M31.219 221.023l14.32 24.641-18.152 10.555-14.325-24.64zm0 0"/></clipPath><clipPath id="prefix__bb"><path d="M31.219 221.023l14.32 24.641-18.152 10.555-14.325-24.64zm0 0"/></clipPath><clipPath id="prefix__bc"><path d="M13 221h22v20H13zm0 0"/></clipPath><clipPath id="prefix__bd"><path d="M31.219 221.023l14.32 24.641-18.152 10.555-14.325-24.64zm0 0"/></clipPath><clipPath id="prefix__be"><path d="M31.219 221.023l14.32 24.641-18.152 10.555-14.325-24.64zm0 0"/></clipPath><clipPath id="prefix__bf"><path d="M8.879 184h21v16.438h-21zm0 0"/></clipPath><clipPath id="prefix__bg"><path d="M8.879 171.938h21V188h-21zm0 0"/></clipPath><clipPath id="prefix__bh"><path d="M18 126h21v20H18zm0 0"/></clipPath><clipPath id="prefix__bi"><path d="M46.379 127.648l-16.234 23.426-17.262-11.965 16.234-23.422zm0 0"/></clipPath><clipPath id="prefix__bj"><path d="M46.379 127.648l-16.234 23.426-17.262-11.965 16.234-23.422zm0 0"/></clipPath><clipPath id="prefix__bk"><path d="M25 116h21v20H25zm0 0"/></clipPath><clipPath id="prefix__bl"><path d="M46.379 127.648l-16.234 23.426-17.262-11.965 16.234-23.422zm0 0"/></clipPath><clipPath id="prefix__bm"><path d="M46.379 127.648l-16.234 23.426-17.262-11.965 16.234-23.422zm0 0"/></clipPath><clipPath id="prefix__bn"><path d="M44 90h20v21H44zm0 0"/></clipPath><clipPath id="prefix__bo"><path d="M72.52 97.332L51.426 116.5l-14.121-15.543 21.093-19.168zm0 0"/></clipPath><clipPath id="prefix__bp"><path d="M72.52 97.332L51.426 116.5l-14.121-15.543 21.093-19.168zm0 0"/></clipPath><clipPath id="prefix__bq"><path d="M53 82h20v20H53zm0 0"/></clipPath><clipPath id="prefix__br"><path d="M72.52 97.332L51.426 116.5l-14.121-15.543 21.093-19.168zm0 0"/></clipPath><clipPath id="prefix__bs"><path d="M72.52 97.332L51.426 116.5l-14.121-15.543 21.093-19.168zm0 0"/></clipPath><clipPath id="prefix__bt"><path d="M74 67h20v23H74zm0 0"/></clipPath><clipPath id="prefix__bu"><path d="M104.922 81.059L79.344 93.633l-9.266-18.848 25.578-12.57zm0 0"/></clipPath><clipPath id="prefix__bv"><path d="M104.922 81.059L79.344 93.633l-9.266-18.848 25.578-12.57zm0 0"/></clipPath><clipPath id="prefix__bw"><path d="M85 62h20v23H85zm0 0"/></clipPath><clipPath id="prefix__bx"><path d="M104.922 81.059L79.344 93.633l-9.266-18.848 25.578-12.57zm0 0"/></clipPath><clipPath id="prefix__by"><path d="M104.922 81.059L79.344 93.633l-9.266-18.848 25.578-12.57zm0 0"/></clipPath><clipPath id="prefix__bz"><path d="M117.785 57.016H135V78h-17.215zm0 0"/></clipPath><clipPath id="prefix__bA"><path d="M130 57.016h16.285V78H130zm0 0"/></clipPath><clipPath id="prefix__bB"><path d="M154 56h17v22h-17zm0 0"/></clipPath><clipPath id="prefix__bC"><path d="M182.512 78.012l-28.489-.856.633-20.992 28.489.86zm0 0"/></clipPath><clipPath id="prefix__bD"><path d="M182.512 78.012l-28.489-.856.633-20.992 28.489.86zm0 0"/></clipPath><clipPath id="prefix__bE"><path d="M166 56h18v22h-18zm0 0"/></clipPath><clipPath id="prefix__bF"><path d="M182.512 78.012l-28.489-.856.633-20.992 28.489.86zm0 0"/></clipPath><clipPath id="prefix__bG"><path d="M182.512 78.012l-28.489-.856.633-20.992 28.489.86zm0 0"/></clipPath><clipPath id="prefix__bH"><path d="M266 56h17v22h-17zm0 0"/></clipPath><clipPath id="prefix__bI"><path d="M294.164 78.012l-28.488-.856.633-20.992 28.488.86zm0 0"/></clipPath><clipPath id="prefix__bJ"><path d="M294.164 78.012l-28.488-.856.633-20.992 28.488.86zm0 0"/></clipPath><clipPath id="prefix__bK"><path d="M278 56h17v22h-17zm0 0"/></clipPath><clipPath id="prefix__bL"><path d="M294.164 78.012l-28.488-.856.633-20.992 28.488.86zm0 0"/></clipPath><clipPath id="prefix__bM"><path d="M294.164 78.012l-28.488-.856.633-20.992 28.488.86zm0 0"/></clipPath><clipPath id="prefix__bN"><path d="M229 56h17v22h-17zm0 0"/></clipPath><clipPath id="prefix__bO"><path d="M257.04 78.012l-28.49-.856.634-20.992 28.488.86zm0 0"/></clipPath><clipPath id="prefix__bP"><path d="M257.04 78.012l-28.49-.856.634-20.992 28.488.86zm0 0"/></clipPath><clipPath id="prefix__bQ"><path d="M241 56h17v22h-17zm0 0"/></clipPath><clipPath id="prefix__bR"><path d="M257.04 78.012l-28.49-.856.634-20.992 28.488.86zm0 0"/></clipPath><clipPath id="prefix__bS"><path d="M257.04 78.012l-28.49-.856.634-20.992 28.488.86zm0 0"/></clipPath><clipPath id="prefix__bT"><path d="M192 56h17v22h-17zm0 0"/></clipPath><clipPath id="prefix__bU"><path d="M220.523 78.012l-28.488-.856.633-20.992 28.488.86zm0 0"/></clipPath><clipPath id="prefix__bV"><path d="M220.523 78.012l-28.488-.856.633-20.992 28.488.86zm0 0"/></clipPath><clipPath id="prefix__bW"><path d="M204 56h18v22h-18zm0 0"/></clipPath><clipPath id="prefix__bX"><path d="M220.523 78.012l-28.488-.856.633-20.992 28.488.86zm0 0"/></clipPath><clipPath id="prefix__bY"><path d="M220.523 78.012l-28.488-.856.633-20.992 28.488.86zm0 0"/></clipPath></defs><g clip-path="url(#prefix__a)"><g clip-path="url(#prefix__b)"><path fill="#737373" d="M303.75 52.777V323.04H-.133V52.777zm0 0"/></g></g><g clip-path="url(#prefix__c)"><g clip-path="url(#prefix__d)"><path fill="none" d="M7.918 142.824C3.137 156.668 0 172.406 0 187.852c0 15.445 2.687 30.304 7.469 44.003.152.29.152.583.3.875 19.122 51.434 69.622 89.32 127.887 90.047H303.75v-270H135.781c-58.687.73-109.187 38.032-127.863 90.047" stroke="#000" stroke-width="3"/></g></g><g clip-path="url(#prefix__e)"><g clip-path="url(#prefix__f)"><g clip-path="url(#prefix__g)"><path fill="#a6a6a6" d="M106.29 37.43l184.632 111.593-111.594 184.63L-5.305 222.058zm0 0"/></g></g></g><g clip-path="url(#prefix__h)"><g clip-path="url(#prefix__i)"><g clip-path="url(#prefix__j)"><g clip-path="url(#prefix__k)"><path fill="none" d="M198.719 93.293C147.672 62.441 81.277 78.809 50.426 129.855 19.57 180.902 35.94 247.297 86.988 278.152c51.047 30.852 117.442 14.48 148.293-36.566 30.856-51.047 14.485-117.438-36.562-148.293" stroke="#000" stroke-width="6"/></g></g></g></g><g clip-path="url(#prefix__l)"><g clip-path="url(#prefix__m)"><g clip-path="url(#prefix__n)"><path fill="#ffde59" d="M167.043 122.402l15.297 8.727-15.82 27.73-15.297-8.73zm0 0"/></g></g></g><g clip-path="url(#prefix__o)"><g clip-path="url(#prefix__p)"><g clip-path="url(#prefix__q)"><path fill="#ffde59" d="M151.355 215.73l15.305-8.714 15.8 27.738-15.304 8.719zm0 0"/></g></g></g><g clip-path="url(#prefix__r)"><g clip-path="url(#prefix__s)"><g clip-path="url(#prefix__t)"><path fill="#ffde59" d="M93.652 225.148L93.61 140.7l73.243-.039.043 84.453zm0 0"/></g></g></g><g clip-path="url(#prefix__u)"><g clip-path="url(#prefix__v)"><g clip-path="url(#prefix__w)"><path fill="#ffde59" d="M85.742 191.77l-.008-17.614 31.922-.015.012 17.613zm0 0"/></g></g></g><g clip-path="url(#prefix__x)"><g clip-path="url(#prefix__y)"><g clip-path="url(#prefix__z)"><path fill="#ffde59" d="M92.36 211.324l-55.61-1.254 1.254-55.61 55.61 1.255zm0 0"/></g></g></g><g clip-path="url(#prefix__A)"><g clip-path="url(#prefix__B)"><g clip-path="url(#prefix__C)"><g clip-path="url(#prefix__D)"><path d="M64.684 207.707c5.554.125 10.57-1.437 15.058-4.684l3.508 4.852c-5.57 4.031-11.805 5.973-18.7 5.816zm17.136-6.367c4.125-3.723 6.707-8.293 7.739-13.719l5.882 1.117c-1.285 6.746-4.488 12.426-9.609 17.047zm8.098-16.363c.039-.489.062-.973.074-1.465.113-5.024-1.176-9.645-3.87-13.864l5.046-3.222c3.348 5.242 4.95 10.98 4.809 17.222a27.887 27.887 0 01-.094 1.809zm-5.356-17.5c-3.48-4.34-7.898-7.184-13.257-8.532l1.46-5.804c6.66 1.675 12.15 5.203 16.465 10.586zm-15.863-9.04a24.705 24.705 0 00-2.898-.23c-4.512-.102-8.723.941-12.633 3.129l-2.926-5.223c4.863-2.722 10.094-4.02 15.692-3.894 1.207.027 2.406.125 3.593.289zm-17.785 4.329c-4.531 3.218-7.625 7.464-9.285 12.73l-5.711-1.8c2.062-6.544 5.906-11.813 11.523-15.81zm-9.95 15.32a24.867 24.867 0 00-.472 4.312c-.09 4 .73 7.782 2.465 11.352l-5.387 2.617c-2.156-4.437-3.175-9.14-3.066-14.105a30.95 30.95 0 01.59-5.344zm3.286 18c2.95 4.703 7.008 8.043 12.176 10.012l-2.133 5.593c-6.418-2.445-11.453-6.586-15.117-12.425zm14.723 10.824c1.863.488 3.765.75 5.71.797l-.132 5.984a30.661 30.661 0 01-7.09-.988zm0 0"/></g></g></g></g><g clip-path="url(#prefix__E)"><g clip-path="url(#prefix__F)"><g clip-path="url(#prefix__G)"><path fill="#ffde59" d="M171.746 289.07l-27.82-48.164 48.168-27.82 27.816 48.168zm0 0"/></g></g></g><g clip-path="url(#prefix__H)"><g clip-path="url(#prefix__I)"><g clip-path="url(#prefix__J)"><g clip-path="url(#prefix__K)"><path d="M160.457 263.543c2.781 4.809 6.719 8.289 11.824 10.434l-2.32 5.52c-6.344-2.669-11.238-6.985-14.688-12.958zm14.344 11.336c5.32 1.594 10.57 1.422 15.742-.516l2.098 5.61c-6.43 2.406-12.95 2.62-19.559.644zm18.187-1.582c.438-.219.867-.45 1.29-.695 4.35-2.516 7.632-6.016 9.835-10.508l5.375 2.636c-2.738 5.582-6.812 9.934-12.215 13.055-.527.305-1.058.59-1.597.863zm12.172-13.668c1.899-5.227 2.035-10.477.403-15.754l5.718-1.77c2.028 6.56 1.864 13.083-.492 19.57zm-.52-18.246a24.512 24.512 0 00-1.304-2.602c-2.258-3.906-5.336-6.96-9.238-9.164l2.945-5.215c4.852 2.743 8.676 6.536 11.477 11.387a30.626 30.626 0 011.62 3.219zm-12.933-12.953c-5.105-2.196-10.34-2.637-15.703-1.32l-1.43-5.813c6.664-1.637 13.164-1.094 19.5 1.633zm-18.262-.54a24.586 24.586 0 00-3.93 1.837c-3.464 2-6.269 4.668-8.421 8.003l-5.031-3.246c2.671-4.144 6.16-7.46 10.46-9.945a30.817 30.817 0 014.872-2.273zm-13.672 12.157c-2.488 4.965-3.23 10.168-2.23 15.601l-5.887 1.086c-1.246-6.754-.324-13.21 2.766-19.37zm-1.601 18.203a24.661 24.661 0 002.285 5.293l-5.184 2.996a30.738 30.738 0 01-2.84-6.57zm0 0"/></g></g></g></g><g clip-path="url(#prefix__L)"><g clip-path="url(#prefix__M)"><g clip-path="url(#prefix__N)"><path fill="#ffde59" d="M207.121 146.707l-55.605-1.25 1.25-55.61 55.609 1.255zm0 0"/></g></g></g><g clip-path="url(#prefix__O)"><g clip-path="url(#prefix__P)"><g clip-path="url(#prefix__Q)"><g clip-path="url(#prefix__R)"><path d="M179.445 143.09c5.555.125 10.575-1.438 15.059-4.684l3.512 4.852c-5.575 4.035-11.809 5.972-18.703 5.816zm17.137-6.363c4.129-3.723 6.707-8.297 7.738-13.723l5.883 1.121c-1.285 6.742-4.488 12.426-9.61 17.047zm8.098-16.368c.039-.484.062-.972.074-1.46.113-5.028-1.176-9.649-3.871-13.864l5.047-3.222c3.347 5.238 4.953 10.98 4.812 17.218-.015.606-.047 1.211-.094 1.813zm-5.356-17.5c-3.48-4.336-7.898-7.18-13.254-8.527l1.461-5.809c6.656 1.676 12.145 5.207 16.465 10.59zm-15.863-9.035a25.58 25.58 0 00-2.899-.234c-4.507-.102-8.718.941-12.632 3.133l-2.922-5.227c4.86-2.719 10.09-4.02 15.687-3.89 1.207.027 2.407.12 3.594.289zm-17.785 4.324c-4.528 3.223-7.625 7.465-9.285 12.735l-5.711-1.801c2.062-6.547 5.906-11.816 11.527-15.812zm-9.95 15.325a25.166 25.166 0 00-.472 4.308c-.09 4 .73 7.785 2.465 11.356l-5.387 2.613c-2.152-4.438-3.176-9.137-3.062-14.102.039-1.804.234-3.59.585-5.343zm3.286 17.996c2.953 4.707 7.008 8.043 12.175 10.011l-2.132 5.594c-6.414-2.441-11.453-6.586-15.114-12.426zm14.722 10.828c1.864.484 3.77.75 5.711.793l-.132 5.984a30.836 30.836 0 01-7.086-.984zm0 0"/></g></g></g></g><g clip-path="url(#prefix__S)"><g clip-path="url(#prefix__T)"><g clip-path="url(#prefix__U)"><path fill="#707070" d="M58.207 189.879l-.004-13.957 13.957-.008.008 13.957zm0 0"/></g></g></g><g clip-path="url(#prefix__V)"><g clip-path="url(#prefix__W)"><g clip-path="url(#prefix__X)"><path fill="#707070" d="M172.387 248.531l12.086-6.98 6.98 12.086-12.086 6.984zm0 0"/></g></g></g><g clip-path="url(#prefix__Y)"><g clip-path="url(#prefix__Z)"><g clip-path="url(#prefix__aa)"><path fill="#707070" d="M172.063 124.762l-.008-13.957 13.96-.008.005 13.96zm0 0"/></g></g></g><g clip-path="url(#prefix__ab)"><g clip-path="url(#prefix__ac)"><g clip-path="url(#prefix__ad)"><g clip-path="url(#prefix__ae)"><path fill="#fff" d="M133.27 119.094a.111.111 0 00-.055-.098c.015-.144.242-.2.156-.383.074-.445-.21-.644-.55-.8-.958-.438-1.962-.708-2.985-.918-3.656-.75-7.297-.696-10.953.003-6.387 1.22-11.606 4.434-15.988 9.106-2.032 2.168-3.645 4.656-5.141 7.219-.879 1.504-1.664 3.062-2.492 4.597l-.012.203c-.063.047-.117.122-.184.133h-.004c-.05.008-.066-.066-.035-.125-.109-.68-.07-1.36 0-2.035.051-.465.067-.918-.054-1.371.117-.996-.328-1.664-1.215-1.895-1.102 1.66-1.172 3.528-1.09 5.434.031.711.016 1.418.008 2.125-.016 1.7.082 1.457 1.261 2.184.262.16.56.261.864.328.113.027.219.039.316-.031.309.167.551.003.781-.172.68-.516 1.348-1.04 2.024-1.559.203-.023.336-.152.465-.293.207-.012.34-.148.476-.273.149.011.242-.098.356-.157 1.558-.793 3.18-1.394 4.906-1.718.133-.028.258-.063.387-.09.152-.035.328-.074.343-.254.012-.133-.117-.274-.23-.3-.5-.122-.848-.528-1.32-.688-.211-.07-.43-.051-.657-.024-1.726.184-3.367.672-4.96 1.332-.145.059-.282.14-.43.168-.176.031-.219-.11-.223-.254.156-.082.219-.21.195-.383.125-.105.239-.214.207-.402.047-.008.06-.035.047-.074.121-.098.223-.203.204-.379.066-.082.148-.16.203-.254.593-1.023 1.168-2.062 1.773-3.082.547-.926 1.125-1.832 1.691-2.746.18-.223.364-.438.532-.664 1.656-2.215 3.55-4.195 5.742-5.879.781-.602 1.582-1.18 2.375-1.77.215-.02.348-.164.484-.308.203-.012.332-.149.465-.285.195 0 .313-.14.445-.254.13.012.215-.055.286-.153.046 0 .082-.02.097-.066.145.012.239-.094.356-.148.57-.27 1.09-.641 1.695-.84.016-.074.148-.2-.086-.149-.156.032-.187 0-.18-.05.012-.047.055-.11.082-.165 1.832-.792 3.739-1.351 5.688-1.789l.555-.07c1.101-.14 2.203-.285 3.304-.426a.16.16 0 00.118.024.178.178 0 00.074-.031.165.165 0 00.187-.012c.067.039.13.035.188-.012.066.043.129.04.187-.008.067.043.13.043.188-.008.066.047.129.043.187-.003h.004c.063.046.125.043.184-.004h.004c.058.004.12.004.183 0h.004c.063.043.121.047.184-.004h.008c.058.047.12.047.18 0H125.081c.063.047.125.047.184 0h.004c.062.047.125.047.183 0h.004c.063.047.125.05.188.004l1.73.129c.305-.075.605.007.906.043.016.035.02.066.016.097 0 .051-.016.094-.05.137.222.05.444.121.679.066a.403.403 0 01.215-.02c-.07.009-.145.013-.215.02.07.032.137.055.199-.004.082.082.18.098.29.07.054.055.112.071.179.028.066.04.133.063.203.02.031.027.062.039.101.027.211.09.43.133.657.121.152.059.304.117.468.09.086.07.188.066.29.074.597.219 1.23.324 1.816.676.02-.238.246-.36.14-.578zm-35.88 18.441v-.004h.001c.004 0 .004.004.007.004h-.007zm27.84-19.808c-.015-.004-.03-.004-.043-.008h.012c.012 0 .024-.004.04 0-.005 0-.005.004-.009.008zm-2.027.421v-.003-.016l.004-.02-.004.036h.004l-.004.003zm2.067-.48l-.032.047h-.039a.104.104 0 00.07-.047zm-.153.043h-.047l-.004-.004a.24.24 0 00.051.004zm7.211.625s.004 0 .004-.004h.004c0 .004.004.004.004.004h-.012zm-.266-.098c-.003-.004-.007-.004-.011-.004.004.004.008.004.012.004zm-2.824.258a.122.122 0 00.02-.039c.004.008.012.012.02.02-.016.007-.024.015-.04.02zm.48.14c.028 0 .052.012.071.028-.023-.012-.047-.023-.07-.027zm0 0"/></g></g></g></g><g clip-path="url(#prefix__af)"><g clip-path="url(#prefix__ag)"><g clip-path="url(#prefix__ah)"><g clip-path="url(#prefix__ai)"><path fill="#fff" d="M124.707 118.094h-.184c.063.047.125.047.184 0zm0 0"/></g></g></g></g><g clip-path="url(#prefix__aj)"><g clip-path="url(#prefix__ak)"><g clip-path="url(#prefix__al)"><g clip-path="url(#prefix__am)"><path fill="#fff" d="M203.383 205.453c.035.027.07.027.11.012.109.097.023.312.226.351.32.317.648.196.972.008.907-.531 1.707-1.195 2.465-1.91 2.719-2.562 4.77-5.566 6.305-8.96 2.68-5.923 3.055-12.044 1.754-18.317-.602-2.907-1.707-5.657-2.942-8.356-.726-1.586-1.546-3.125-2.328-4.683a5.753 5.753 0 00-.16-.13c-.004-.077-.027-.163 0-.226.024-.05.094-.015.125.04.617.304 1.153.726 1.664 1.175.348.309.711.582 1.153.742.75.668 1.55.692 2.246.098-.72-1.856-2.207-2.988-3.817-4.02-.597-.382-1.164-.804-1.742-1.218-1.379-.989-1.234-.77-2.508-.223a2.808 2.808 0 00-.765.516c-.086.078-.157.156-.157.277-.316.156-.32.45-.312.738.031.852.074 1.7.113 2.551-.101.18-.07.363-.031.55-.106.177-.074.36-.047.548-.098.113-.062.25-.082.379-.246 1.73-.688 3.406-1.414 5.003a6.006 6.006 0 00-.149.368c-.062.144-.128.308.008.425.106.086.293.063.38-.015.386-.34.917-.39 1.32-.684.18-.133.289-.324.398-.52.84-1.519 1.387-3.144 1.77-4.827.03-.149.042-.31.105-.446.074-.164.215-.117.336-.035-.02.172.05.297.203.379.012.164.035.32.207.402-.02.04-.004.067.035.078.008.157.04.301.196.383.027.106.039.215.085.313.5 1.078 1.016 2.144 1.5 3.226.442.98.852 1.973 1.274 2.961.078.274.148.551.238.82.86 2.63 1.387 5.317 1.504 8.079.04.988.05 1.972.074 2.96-.105.184-.062.38-.023.57-.106.18-.07.364-.035.548-.114.16-.067.336-.047.508-.086.101-.082.21-.04.324-.027.039-.03.078-.003.117-.094.113-.063.25-.082.375-.11.625-.106 1.262-.29 1.871.052.055.079.234.173.016.062-.149.105-.156.144-.117.031.035.059.109.082.16-.402 1.953-1.043 3.836-1.804 5.68-.09.163-.176.331-.262.495l-1.559 2.946c-.039.02-.07.05-.086.082a.192.192 0 00-.015.082.153.153 0 00-.098.16.148.148 0 00-.102.156c-.07.032-.101.082-.101.16a.148.148 0 00-.102.157c-.074.027-.11.082-.101.156l-.004.004c-.07.023-.106.074-.102.152v.004c-.039.047-.074.098-.105.149l-.004.003c-.074.028-.11.075-.106.153l-.003.004c-.07.023-.106.074-.102.152l-.004.004h-.004.004c-.074.023-.11.074-.11.148v.004c-.074.024-.109.075-.105.153h-.004c-.074.023-.11.074-.11.152-.366.45-.733.894-1.097 1.34-.117.293-.36.492-.562.719a.24.24 0 01-.168-.164c-.172.152-.356.296-.446.515a.433.433 0 01-.109.188c.035-.063.07-.125.11-.188-.067.04-.125.082-.114.164-.113.024-.183.094-.226.2-.075.011-.118.05-.121.128-.07.032-.13.075-.137.157a.108.108 0 00-.082.066 1.476 1.476 0 00-.477.469c-.133.09-.27.18-.34.332-.105.027-.164.113-.226.191-.524.363-.977.82-1.598 1.098.184.152.153.406.39.445zm5.574-39.953v.004c-.004 0-.004 0-.004.004 0-.004 0-.004.004-.008zm.172 34.168l.031-.031c0 .004-.004.008-.004.011-.008.008-.015.02-.023.032 0-.004-.004-.008-.004-.012zm.82-1.898c.004 0 .004.003.004.003.004 0 .012.004.012.008l.015.012-.027-.02h-.004v-.003zm-.797 1.964c-.007-.02-.011-.035-.02-.05.009-.012.016-.024.024-.032-.015.024-.015.051-.004.082zm.055-.152c.008-.012.016-.023.027-.035-.007.012-.02.023-.027.035zm-4.66 5.54l-.004.003v.004h-.008c.004-.004.008-.004.012-.008zm.23-.165h.008-.008zm1.414-2.453a.092.092 0 00.024.035c-.012.004-.02.004-.028.008 0-.016 0-.031.004-.043zm-.394.312c-.012.02-.035.032-.059.043v-.004a.219.219 0 00.059-.039zm0 0"/></g></g></g></g><g clip-path="url(#prefix__an)"><g clip-path="url(#prefix__ao)"><g clip-path="url(#prefix__ap)"><g clip-path="url(#prefix__aq)"><path fill="#fff" d="M209.129 199.031l.105-.152c-.074.023-.109.074-.105.152zm0 0"/></g></g></g></g><g clip-path="url(#prefix__ar)"><g clip-path="url(#prefix__as)"><g clip-path="url(#prefix__at)"><g clip-path="url(#prefix__au)"><path fill="#fff" d="M95.55 224.105a.107.107 0 00-.07.086c-.14.036-.27-.16-.414-.015-.445.082-.53.422-.562.793-.082 1.047.008 2.086.164 3.117.555 3.691 1.852 7.09 3.77 10.285 3.34 5.578 8.152 9.375 14.046 11.883 2.735 1.16 5.625 1.82 8.543 2.348 1.72.304 3.45.507 5.176.753.067-.02.133-.039.2-.054.062.039.148.066.183.125v.004c.027.047-.04.086-.102.078-.601.336-1.254.531-1.914.695-.453.113-.882.254-1.265.527-.977.235-1.453.88-1.364 1.79 1.938.464 3.715-.11 5.477-.844.656-.274 1.328-.5 1.996-.738 1.602-.57 1.336-.579 1.613-1.934.063-.305.055-.617.012-.926-.016-.113-.039-.215-.137-.285.051-.352-.187-.52-.43-.676-.718-.46-1.437-.91-2.16-1.363-.09-.184-.261-.266-.433-.34-.082-.184-.258-.266-.422-.351-.039-.141-.172-.192-.27-.278-1.277-1.191-2.406-2.508-3.3-4.015-.07-.118-.145-.223-.219-.333-.082-.132-.18-.285-.352-.238-.132.04-.222.207-.207.32.059.512-.203.977-.191 1.477.008.223.102.422.203.625.766 1.555 1.79 2.93 2.957 4.203.106.113.23.211.305.344.09.152-.024.238-.16.293-.133-.117-.274-.129-.43-.047-.14-.086-.281-.152-.45-.059-.019-.039-.05-.042-.081-.015-.133-.086-.27-.14-.426-.063-.102-.035-.203-.086-.309-.105-1.168-.203-2.34-.387-3.504-.606-1.058-.195-2.105-.425-3.16-.644-.27-.09-.535-.192-.808-.27-2.649-.793-5.16-1.894-7.496-3.37-.832-.528-1.649-1.079-2.473-1.622-.094-.195-.277-.27-.457-.347-.086-.188-.258-.262-.43-.34-.066-.184-.238-.246-.39-.328-.032-.13-.125-.188-.243-.22a.1.1 0 00-.093-.07c-.04-.136-.172-.19-.262-.28-.453-.442-.977-.805-1.375-1.305-.074.011-.234-.07-.11.132.087.137.067.18.012.188-.047.004-.12-.016-.175-.024-1.376-1.445-2.56-3.043-3.637-4.722l-.258-.496c-.512-.985-1.023-1.973-1.535-2.957a.179.179 0 00-.02-.121c-.015-.02-.031-.04-.058-.06.015-.073-.012-.128-.075-.17.02-.075-.007-.134-.07-.173.016-.074-.008-.133-.074-.172.02-.078-.004-.136-.07-.175.02-.075-.004-.133-.07-.172v-.004c.019-.074-.005-.133-.067-.172h-.004a1.286 1.286 0 00-.063-.172l-.003-.008c.023-.074.004-.129-.063-.172v-.004c.02-.074 0-.132-.066-.171v-.008h-.004.004c.023-.075 0-.133-.063-.172l-.004-.004c.024-.074.004-.133-.062-.172v-.004c.023-.074 0-.133-.063-.176-.16-.558-.316-1.113-.476-1.668-.172-.261-.2-.574-.27-.87.028-.024.059-.036.086-.048a.205.205 0 01.145.004c-.028-.23-.04-.46-.168-.664a.35.35 0 01-.09-.191c.027.062.058.129.09.191.004-.074 0-.144-.075-.183.051-.106.032-.203-.03-.297.03-.07.027-.13-.036-.176.012-.078.012-.144-.05-.2a.114.114 0 00-.012-.105c.011-.23-.024-.449-.11-.656 0-.164.004-.328-.082-.473.04-.101 0-.199-.027-.293 0-.64-.117-1.273.008-1.94-.23.065-.422-.106-.59.065zm29.653 27.352h-.004l.004.004-.004-.004c.004 0 .004-.004.004-.004v.004zm-28.172-19.332a.202.202 0 01.008.043c0-.004-.004-.004-.004-.008-.004-.012-.012-.023-.012-.039 0 .004.004.004.008.004zm1.09 1.758v.004c-.008 0-.012.004-.016.004l-.015.004.031-.012v-.004.004zm-1.156-1.774l.055.012.011.035c-.011-.023-.035-.039-.066-.047zm.094.13l.011.042v.004l-.011-.047zm-1.895-6.985c-.004-.004-.004-.004-.004-.008v-.008c.004.004.004.008.004.016zm0 .281c0 .004-.004.004 0 .008v-.008zm1.215 2.559c-.016 0-.027-.004-.047 0l.012-.024.035.024zm-.035-.5a.12.12 0 010-.074v.003a.212.212 0 000 .07zm0 0"/></g></g></g></g><g clip-path="url(#prefix__av)"><g clip-path="url(#prefix__aw)"><g clip-path="url(#prefix__ax)"><g clip-path="url(#prefix__ay)"><path fill="#fff" d="M97.555 232.488c.023.059.047.117.066.172.02-.074 0-.129-.066-.172zm0 0"/></g></g></g></g><path transform="matrix(.74987 .00605 -.00605 .74998 136.49 77.868)" fill="none" d="M-.002 1.999L223.036 2" stroke="#000" stroke-width="4"/><path transform="matrix(.75062 -.00364 .00364 .75 135.126 291.168)" fill="none" d="M0 2l224.814.002" stroke="#000" stroke-width="4"/><g clip-path="url(#prefix__az)"><path fill="#38b6ff" d="M294.695 306.992l-8.492-9.492a.946.946 0 00-.703-.316h-5.664a.95.95 0 00-.863.562.956.956 0 00.164 1.02l7.922 8.863-7.922 8.855a.95.95 0 00.7 1.586h5.663c.266 0 .52-.117.703-.312l8.492-9.496c.32-.36.32-.91 0-1.27zm0 0"/></g><g clip-path="url(#prefix__aA)"><path fill="#38b6ff" d="M282.426 306.992l-8.492-9.492a.94.94 0 00-.704-.316h-5.66a.947.947 0 00-.703 1.582l7.926 8.863-7.926 8.855a.955.955 0 00-.16 1.024.94.94 0 00.863.562h5.66c.27 0 .52-.117.704-.312l8.492-9.496a.95.95 0 000-1.27zm0 0"/></g><g clip-path="url(#prefix__aB)"><path fill="#38b6ff" d="M257.57 306.992l-8.492-9.492a.946.946 0 00-.703-.316h-5.664a.95.95 0 00-.863.562.962.962 0 00.16 1.02l7.926 8.863-7.926 8.855a.95.95 0 00.703 1.586h5.664c.266 0 .52-.117.703-.312l8.492-9.496c.32-.36.32-.91 0-1.27zm0 0"/></g><g clip-path="url(#prefix__aC)"><path fill="#38b6ff" d="M245.3 306.992l-8.491-9.492a.94.94 0 00-.704-.316h-5.66a.947.947 0 00-.703 1.582l7.926 8.863-7.926 8.855a.955.955 0 00-.16 1.024.94.94 0 00.863.562h5.66c.27 0 .52-.117.704-.312l8.492-9.496a.95.95 0 000-1.27zm0 0"/></g><g clip-path="url(#prefix__aD)"><path fill="#38b6ff" d="M220.445 306.992l-8.492-9.492a.946.946 0 00-.703-.316h-5.664a.95.95 0 00-.863.562.956.956 0 00.164 1.02l7.922 8.863-7.922 8.855a.95.95 0 00.7 1.586h5.663c.266 0 .52-.117.703-.312l8.492-9.496c.32-.36.32-.91 0-1.27zm0 0"/></g><g clip-path="url(#prefix__aE)"><path fill="#38b6ff" d="M208.176 306.992l-8.492-9.492a.94.94 0 00-.704-.316h-5.66a.947.947 0 00-.703 1.582l7.926 8.863-7.926 8.855a.955.955 0 00-.16 1.024.94.94 0 00.863.562h5.66c.27 0 .52-.117.704-.312l8.492-9.496a.95.95 0 000-1.27zm0 0"/></g><g clip-path="url(#prefix__aF)"><path fill="#5ce1e6" d="M183.32 306.992l-8.492-9.492a.946.946 0 00-.703-.316h-5.664a.95.95 0 00-.863.562.956.956 0 00.164 1.02l7.922 8.863-7.922 8.855a.95.95 0 00.7 1.586h5.663c.266 0 .52-.117.703-.312l8.492-9.496c.32-.36.32-.91 0-1.27zm0 0"/></g><g clip-path="url(#prefix__aG)"><path fill="#5ce1e6" d="M171.05 306.992l-8.491-9.492a.94.94 0 00-.704-.316h-5.66a.947.947 0 00-.703 1.582l7.926 8.863-7.926 8.855a.955.955 0 00-.16 1.024.94.94 0 00.863.562h5.66c.27 0 .52-.117.704-.312l8.492-9.496a.95.95 0 000-1.27zm0 0"/></g><g clip-path="url(#prefix__aH)"><g clip-path="url(#prefix__aI)"><g clip-path="url(#prefix__aJ)"><path fill="#38b6ff" d="M146.184 306.746l-8.66-9.344a.948.948 0 00-.708-.3l-5.66.097a.947.947 0 00-.851.578.956.956 0 00.175 1.02l8.083 8.719-7.77 8.996a.952.952 0 00.73 1.574l5.665-.102a.96.96 0 00.695-.324l8.324-9.644a.954.954 0 00-.023-1.27zm0 0"/></g></g></g><g clip-path="url(#prefix__aK)"><g clip-path="url(#prefix__aL)"><g clip-path="url(#prefix__aM)"><path fill="#38b6ff" d="M133.918 306.96l-8.66-9.339a.937.937 0 00-.707-.305l-5.66.102a.95.95 0 00-.856.578.95.95 0 00.18 1.016l8.082 8.718-7.77 8.997a.959.959 0 00-.14 1.027c.16.34.5.555.87.547l5.665-.098a.979.979 0 00.695-.328l8.324-9.64a.96.96 0 00-.023-1.274zm0 0"/></g></g></g><g clip-path="url(#prefix__aN)"><g clip-path="url(#prefix__aO)"><g clip-path="url(#prefix__aP)"><path fill="#38b6ff" d="M99.406 301.191l-2.023-12.574a.945.945 0 00-.422-.644l-4.766-3.059a.949.949 0 00-1.445.953l1.887 11.738-11.453 3.176a.951.951 0 00-.266 1.715l4.766 3.059c.226.144.5.183.761.113l12.274-3.406a.954.954 0 00.687-1.07zm0 0"/></g></g></g><g clip-path="url(#prefix__aQ)"><g clip-path="url(#prefix__aR)"><g clip-path="url(#prefix__aS)"><path fill="#38b6ff" d="M89.078 294.57l-2.023-12.578a.94.94 0 00-.422-.644l-4.766-3.055a.942.942 0 00-1.027.004.966.966 0 00-.418.95l1.887 11.733-11.454 3.18a.954.954 0 00-.687.774.945.945 0 00.422.937l4.77 3.059c.222.144.5.183.757.117l12.278-3.406a.957.957 0 00.683-1.07zm0 0"/></g></g></g><g clip-path="url(#prefix__aT)"><g clip-path="url(#prefix__aU)"><g clip-path="url(#prefix__aV)"><path fill="#38b6ff" d="M61.434 282.32l.468-12.73a.94.94 0 00-.289-.715l-4.078-3.93a.945.945 0 00-1.012-.191.955.955 0 00-.593.848l-.438 11.878-11.851.883a.942.942 0 00-.825.625.94.94 0 00.23 1.004l4.079 3.926a.951.951 0 00.723.262l12.703-.946a.957.957 0 00.883-.914zm0 0"/></g></g></g><g clip-path="url(#prefix__aW)"><g clip-path="url(#prefix__aX)"><g clip-path="url(#prefix__aY)"><path fill="#38b6ff" d="M52.598 273.809l.468-12.73a.96.96 0 00-.289-.716l-4.078-3.925a.948.948 0 00-1.605.652l-.438 11.879-11.851.883a.948.948 0 00-.825.625.94.94 0 00.23 1.003l4.08 3.93a.96.96 0 00.722.262l12.703-.95a.957.957 0 00.883-.913zm0 0"/></g></g></g><g clip-path="url(#prefix__aZ)"><g clip-path="url(#prefix__ba)"><g clip-path="url(#prefix__bb)"><path fill="#5ce1e6" d="M36.793 250.25l3.941-12.113a.938.938 0 00-.082-.766l-2.843-4.894a.95.95 0 00-1.723.187L32.41 243.97l-11.64-2.399a.947.947 0 00-.965.375.944.944 0 00-.055 1.028l2.848 4.894c.132.235.359.395.62.45l12.477 2.574a.95.95 0 001.098-.641zm0 0"/></g></g></g><g clip-path="url(#prefix__bc)"><g clip-path="url(#prefix__bd)"><g clip-path="url(#prefix__be)"><path fill="#5ce1e6" d="M30.629 239.645l3.941-12.114a.938.938 0 00-.082-.765l-2.843-4.895a.946.946 0 00-.922-.465.954.954 0 00-.801.653l-3.676 11.304-11.644-2.402a.958.958 0 00-.961.375.943.943 0 00-.055 1.031l2.844 4.895c.136.23.363.39.625.449l12.476 2.57a.952.952 0 001.098-.636zm0 0"/></g></g></g><g clip-path="url(#prefix__bf)"><path fill="#38b6ff" d="M20.016 200.004l9.492-8.492a.934.934 0 00.316-.703v-5.66a.945.945 0 00-.562-.864.946.946 0 00-1.02.16l-8.863 7.926-8.856-7.926a.955.955 0 00-1.023-.16.945.945 0 00-.563.863v5.66c0 .27.114.524.313.704l9.496 8.492a.95.95 0 001.27 0zm0 0"/></g><g clip-path="url(#prefix__bg)"><path fill="#38b6ff" d="M20.016 187.738l9.492-8.496a.932.932 0 00.316-.699v-5.664a.95.95 0 00-.562-.863.961.961 0 00-1.02.16l-8.863 7.926-8.856-7.926a.95.95 0 00-1.586.703v5.664c0 .266.114.52.313.7l9.496 8.495c.36.32.91.32 1.27 0zm0 0"/></g><g clip-path="url(#prefix__bh)"><g clip-path="url(#prefix__bi)"><g clip-path="url(#prefix__bj)"><path fill="#38b6ff" d="M22.281 145.098l12.64-1.57a.951.951 0 00.661-.4l3.227-4.651a.95.95 0 00-.903-1.48L26.11 138.46l-2.765-11.559a.952.952 0 00-1.703-.324l-3.227 4.652a.948.948 0 00-.14.758l2.964 12.387a.949.949 0 001.043.723zm0 0"/></g></g></g><g clip-path="url(#prefix__bk)"><g clip-path="url(#prefix__bl)"><g clip-path="url(#prefix__bm)"><path fill="#38b6ff" d="M29.27 135.016l12.64-1.575a.933.933 0 00.66-.394l3.223-4.656a.935.935 0 00.031-1.028.953.953 0 00-.93-.449l-11.796 1.465-2.766-11.559a.963.963 0 00-.75-.715.941.941 0 00-.953.387l-3.227 4.656a.936.936 0 00-.14.754l2.965 12.391a.95.95 0 001.043.723zm0 0"/></g></g></g><g clip-path="url(#prefix__bn)"><g clip-path="url(#prefix__bo)"><g clip-path="url(#prefix__bp)"><path fill="#38b6ff" d="M45.11 108.906l12.671 1.317a.941.941 0 00.73-.239l4.192-3.808a.948.948 0 00.258-.996.954.954 0 00-.805-.649l-11.824-1.226-.09-11.887a.948.948 0 00-1.586-.7l-4.191 3.805a.963.963 0 00-.309.707l.098 12.739c.004.484.375.89.855.937zm0 0"/></g></g></g><g clip-path="url(#prefix__bq)"><g clip-path="url(#prefix__br)"><g clip-path="url(#prefix__bs)"><path fill="#38b6ff" d="M54.188 100.656l12.671 1.317a.936.936 0 00.73-.239l4.192-3.808a.942.942 0 00.262-.996.958.958 0 00-.805-.649l-11.824-1.226-.09-11.887a.95.95 0 00-1.586-.7l-4.191 3.805a.955.955 0 00-.309.707l.098 12.739c.004.484.375.89.852.937zm0 0"/></g></g></g><g clip-path="url(#prefix__bt)"><g clip-path="url(#prefix__bu)"><g clip-path="url(#prefix__bv)"><path fill="#5ce1e6" d="M75.379 84.59l11.808 4.773c.254.098.532.09.77-.027l5.082-2.5a.95.95 0 00.527-.883.958.958 0 00-.597-.848l-11.02-4.453 3.203-11.445a.946.946 0 00-.304-.988.943.943 0 00-1.024-.125l-5.082 2.496a.974.974 0 00-.492.59l-3.434 12.27a.957.957 0 00.563 1.14zm0 0"/></g></g></g><g clip-path="url(#prefix__bw)"><g clip-path="url(#prefix__bx)"><g clip-path="url(#prefix__by)"><path fill="#5ce1e6" d="M86.387 79.176l11.812 4.773c.25.102.528.094.77-.027l5.082-2.496a.945.945 0 00.523-.887.945.945 0 00-.594-.844l-11.02-4.457 3.204-11.445a.958.958 0 00-.305-.988.952.952 0 00-1.023-.125l-5.082 2.5a.94.94 0 00-.492.59l-3.434 12.265a.953.953 0 00.559 1.14zm0 0"/></g></g></g><g clip-path="url(#prefix__bz)"><path fill="#38b6ff" d="M118.215 68.148l8.492 9.493a.946.946 0 00.703.316h5.664a.95.95 0 00.863-.562.956.956 0 00-.164-1.02l-7.921-8.86 7.921-8.859a.95.95 0 00-.7-1.586h-5.663a.971.971 0 00-.703.313l-8.492 9.496c-.32.36-.32.91 0 1.27zm0 0"/></g><g clip-path="url(#prefix__bA)"><path fill="#38b6ff" d="M130.484 68.148l8.493 9.493a.94.94 0 00.703.316h5.66a.947.947 0 00.703-1.582l-7.926-8.86 7.926-8.859a.955.955 0 00.16-1.023.94.94 0 00-.863-.563h-5.66c-.27 0-.52.117-.703.313l-8.493 9.496a.95.95 0 000 1.27zm0 0"/></g><g clip-path="url(#prefix__bB)"><g clip-path="url(#prefix__bC)"><g clip-path="url(#prefix__bD)"><path fill="#38b6ff" d="M154.75 67.309l8.207 9.742a.947.947 0 00.691.34l5.66.168a.948.948 0 00.75-1.563l-7.656-9.094 8.188-8.613a.948.948 0 00.191-1.016.931.931 0 00-.844-.59l-5.66-.171a.955.955 0 00-.71.293l-8.778 9.234a.96.96 0 00-.039 1.27zm0 0"/></g></g></g><g clip-path="url(#prefix__bE)"><g clip-path="url(#prefix__bF)"><g clip-path="url(#prefix__bG)"><path fill="#38b6ff" d="M167.016 67.676l8.203 9.746a.936.936 0 00.691.336l5.66.172a.948.948 0 00.75-1.563l-7.656-9.094 8.188-8.617a.946.946 0 00.191-1.015.944.944 0 00-.844-.59l-5.66-.172a.955.955 0 00-.71.293l-8.778 9.234a.955.955 0 00-.035 1.27zm0 0"/></g></g></g><g clip-path="url(#prefix__bH)"><g clip-path="url(#prefix__bI)"><g clip-path="url(#prefix__bJ)"><path fill="#38b6ff" d="M266.402 67.309l8.207 9.742a.947.947 0 00.692.34l5.66.168a.948.948 0 00.75-1.563l-7.656-9.094 8.187-8.613a.948.948 0 00.192-1.016.931.931 0 00-.844-.59l-5.66-.171a.955.955 0 00-.711.293l-8.778 9.234a.96.96 0 00-.039 1.27zm0 0"/></g></g></g><g clip-path="url(#prefix__bK)"><g clip-path="url(#prefix__bL)"><g clip-path="url(#prefix__bM)"><path fill="#38b6ff" d="M278.668 67.676l8.203 9.746a.936.936 0 00.692.336l5.66.172a.948.948 0 00.75-1.563l-7.657-9.094 8.188-8.617a.946.946 0 00.191-1.015.944.944 0 00-.843-.59l-5.66-.172a.955.955 0 00-.712.293l-8.777 9.234a.955.955 0 00-.035 1.27zm0 0"/></g></g></g><g clip-path="url(#prefix__bN)"><g clip-path="url(#prefix__bO)"><g clip-path="url(#prefix__bP)"><path fill="#5ce1e6" d="M229.277 67.309l8.207 9.742a.947.947 0 00.692.34l5.66.168a.948.948 0 00.75-1.563l-7.656-9.094 8.187-8.613a.948.948 0 00.192-1.016.931.931 0 00-.844-.59l-5.66-.171a.955.955 0 00-.711.293l-8.778 9.234a.96.96 0 00-.039 1.27zm0 0"/></g></g></g><g clip-path="url(#prefix__bQ)"><g clip-path="url(#prefix__bR)"><g clip-path="url(#prefix__bS)"><path fill="#5ce1e6" d="M241.543 67.676l8.203 9.746a.936.936 0 00.691.336l5.66.172a.948.948 0 00.75-1.563l-7.656-9.094 8.188-8.617a.946.946 0 00.191-1.015.944.944 0 00-.843-.59l-5.66-.172a.955.955 0 00-.712.293l-8.777 9.234a.955.955 0 00-.035 1.27zm0 0"/></g></g></g><g clip-path="url(#prefix__bT)"><g clip-path="url(#prefix__bU)"><g clip-path="url(#prefix__bV)"><path fill="#38b6ff" d="M192.762 67.309l8.203 9.742a.962.962 0 00.695.34l5.656.168a.95.95 0 00.883-.536.957.957 0 00-.133-1.027l-7.652-9.094 8.188-8.613a.956.956 0 00.191-1.016.937.937 0 00-.848-.59l-5.656-.171a.964.964 0 00-.715.293l-8.773 9.234a.955.955 0 00-.04 1.27zm0 0"/></g></g></g><g clip-path="url(#prefix__bW)"><g clip-path="url(#prefix__bX)"><g clip-path="url(#prefix__bY)"><path fill="#38b6ff" d="M205.023 67.676l8.207 9.746a.93.93 0 00.692.336l5.66.172a.948.948 0 00.75-1.563l-7.656-9.094 8.187-8.617a.946.946 0 00.192-1.015.944.944 0 00-.844-.59l-5.66-.172a.955.955 0 00-.711.293l-8.778 9.234a.96.96 0 00-.039 1.27zm0 0"/></g></g></g></svg>