<svg xmlns="http://www.w3.org/2000/svg" width="450" viewBox="0 0 337.5 375" height="500" version="1.0">
  <defs>
    <clipPath id="prefix__a">
      <path d="M0 52.777h303.75V323H0zm0 0" />
    </clipPath>
    <clipPath id="prefix__b">
      <path
        d="M7.918 142.824C3.137 156.668 0 172.406 0 187.852c0 15.445 2.688 30.304 7.469 44.003.152.29.152.583.3.875 19.122 51.434 69.622 89.317 127.887 90.047H303.75v-270H135.781C77.094 53.504 26.594 90.81 7.918 142.824" />
    </clipPath>
    <clipPath id="prefix__c">
      <path d="M0 52.777h303.75v270H0zm0 0" />
    </clipPath>
    <clipPath id="prefix__d">
      <path
        d="M7.918 142.824C3.137 156.668 0 172.406 0 187.852c0 15.445 2.688 30.304 7.469 44.003.152.29.152.583.3.875 19.122 51.434 69.622 89.317 127.887 90.047H303.75v-270H135.781C77.094 53.504 26.594 90.81 7.918 142.824" />
    </clipPath>
    <clipPath id="prefix__e">
      <path d="M34 77h217v217H34zm0 0" />
    </clipPath>
    <clipPath id="prefix__f">
      <path d="M69.207 51.914l207.73 60.242-60.242 207.73-207.73-60.241zm0 0" />
    </clipPath>
    <clipPath id="prefix__g">
      <path
        d="M172.934 81.996c-57.286-16.613-117.192 16.36-133.805 73.645-16.613 57.285 16.36 117.195 73.644 133.808 57.286 16.613 117.196-16.36 133.809-73.644 16.613-57.29-16.36-117.196-73.648-133.809" />
    </clipPath>
    <clipPath id="prefix__h">
      <path d="M34 77h217v217H34zm0 0" />
    </clipPath>
    <clipPath id="prefix__i">
      <path d="M69.207 51.914l207.453 60.164-60.16 207.453L9.047 259.367zm0 0" />
    </clipPath>
    <clipPath id="prefix__j">
      <path d="M69.207 51.914l210.387 61.012-61.012 210.387L8.195 262.3zm0 0" />
    </clipPath>
    <clipPath id="prefix__k">
      <path
        d="M172.934 81.996c-57.286-16.613-117.192 16.36-133.805 73.645-16.613 57.285 16.36 117.195 73.644 133.808 57.286 16.613 117.196-16.36 133.809-73.644 16.613-57.29-16.36-117.196-73.648-133.809" />
    </clipPath>
    <clipPath id="prefix__l">
      <path d="M141 118h26v36h-26zm0 0" />
    </clipPath>
    <clipPath id="prefix__m">
      <path d="M149.86 118.3l17.566 4.618-8.121 30.875-17.567-4.617zm0 0" />
    </clipPath>
    <clipPath id="prefix__n">
      <path d="M149.86 118.3l17.18 4.516-8.067 30.688-17.184-4.52zm0 0" />
    </clipPath>
    <clipPath id="prefix__o">
      <path d="M158 200h36v36h-36zm0 0" />
    </clipPath>
    <clipPath id="prefix__p">
      <path d="M158.824 212.516l12.922-12.766 22.434 22.719-12.926 12.761zm0 0" />
    </clipPath>
    <clipPath id="prefix__q">
      <path d="M158.824 212.516l12.64-12.485 22.294 22.574-12.64 12.485zm0 0" />
    </clipPath>
    <clipPath id="prefix__r">
      <path d="M94 135h83v83H94zm0 0" />
    </clipPath>
    <clipPath id="prefix__s">
      <path d="M105.516 236.523L83.457 154.23l71.465-19.156 22.058 82.293zm0 0" />
    </clipPath>
    <clipPath id="prefix__t">
      <path d="M94.57 195.695l59.828-59.804 21.891 81.664-81.719-21.86" />
    </clipPath>
    <clipPath id="prefix__u">
      <path d="M84 181h36v26H84zm0 0" />
    </clipPath>
    <clipPath id="prefix__v">
      <path d="M89.246 206.324l-4.703-17.547 30.836-8.265 4.703 17.547zm0 0" />
    </clipPath>
    <clipPath id="prefix__w">
      <path d="M89.246 206.324l-4.601-17.16 30.648-8.215 4.598 17.16zm0 0" />
    </clipPath>
    <clipPath id="prefix__x">
      <path d="M39 175h56v56H39zm0 0" />
    </clipPath>
    <clipPath id="prefix__y">
      <path d="M100.691 223.504l-54.043 13.16-13.16-54.043 54.043-13.16zm0 0" />
    </clipPath>
    <clipPath id="prefix__z">
      <path
        d="M73.672 230.082c14.922-3.633 24.074-18.676 20.441-33.602-3.636-14.921-18.68-24.074-33.605-20.44-14.922 3.636-24.074 18.679-20.438 33.605 3.633 14.921 18.676 24.074 33.602 20.437" />
    </clipPath>
    <clipPath id="prefix__A">
      <path d="M39 175h56v56H39zm0 0" />
    </clipPath>
    <clipPath id="prefix__B">
      <path d="M100.691 223.504L46.77 236.637 33.637 182.71l53.922-13.133zm0 0" />
    </clipPath>
    <clipPath id="prefix__C">
      <path d="M100.691 223.504L46.77 236.637 33.637 182.71l53.922-13.133zm0 0" />
    </clipPath>
    <clipPath id="prefix__D">
      <path
        d="M73.73 230.07c14.891-3.629 24.024-18.636 20.395-33.527-3.625-14.895-18.637-24.023-33.527-20.398-14.891 3.625-24.024 18.636-20.395 33.527 3.625 14.89 18.637 24.023 33.527 20.398" />
    </clipPath>
    <clipPath id="prefix__E">
      <path d="M169 210h57v57h-57zm0 0" />
    </clipPath>
    <clipPath id="prefix__F">
      <path d="M197.473 278.094l-39.32-39.34 39.343-39.32 39.316 39.34zm0 0" />
    </clipPath>
    <clipPath id="prefix__G">
      <path
        d="M177.813 258.422c10.859 10.863 28.468 10.871 39.332.012 10.863-10.86 10.867-28.465.007-39.332-10.855-10.864-28.464-10.868-39.328-.008-10.863 10.855-10.87 28.465-.012 39.328" />
    </clipPath>
    <clipPath id="prefix__H">
      <path d="M169 211h57v56h-57zm0 0" />
    </clipPath>
    <clipPath id="prefix__I">
      <path d="M197.473 278.094l-39.235-39.254 39.258-39.235 39.23 39.254zm0 0" />
    </clipPath>
    <clipPath id="prefix__J">
      <path d="M197.473 278.094l-39.235-39.254 39.258-39.235 39.23 39.254zm0 0" />
    </clipPath>
    <clipPath id="prefix__K">
      <path
        d="M177.855 258.465c10.836 10.84 28.407 10.848 39.247.012 10.84-10.832 10.843-28.403.007-39.243-10.832-10.84-28.402-10.847-39.242-.011-10.84 10.832-10.844 28.402-.012 39.242" />
    </clipPath>
    <clipPath id="prefix__L">
      <path d="M133 83h57v56h-57zm0 0" />
    </clipPath>
    <clipPath id="prefix__M">
      <path d="M194.855 131.422l-54.039 13.164-13.164-54.043 54.043-13.16zm0 0" />
    </clipPath>
    <clipPath id="prefix__N">
      <path
        d="M167.836 138.004c14.922-3.633 24.074-18.68 20.441-33.602-3.636-14.922-18.68-24.074-33.601-20.441-14.926 3.637-24.074 18.68-20.442 33.602 3.633 14.925 18.68 24.074 33.602 20.44" />
    </clipPath>
    <clipPath id="prefix__O">
      <path d="M133 83h57v56h-57zm0 0" />
    </clipPath>
    <clipPath id="prefix__P">
      <path d="M194.855 131.422l-53.921 13.133L127.8 90.633 181.727 77.5zm0 0" />
    </clipPath>
    <clipPath id="prefix__Q">
      <path d="M194.855 131.422l-53.921 13.133L127.8 90.633 181.727 77.5zm0 0" />
    </clipPath>
    <clipPath id="prefix__R">
      <path
        d="M167.895 137.988c14.89-3.625 24.023-18.636 20.398-33.527-3.629-14.89-18.64-24.02-33.531-20.395-14.89 3.625-24.02 18.637-20.395 33.528 3.625 14.89 18.637 24.023 33.528 20.394" />
    </clipPath>
    <clipPath id="prefix__S">
      <path d="M60 196h15v15H60zm0 0" />
    </clipPath>
    <clipPath id="prefix__T">
      <path d="M62.16 211.613l-3.613-13.484 13.48-3.613L75.645 208zm0 0" />
    </clipPath>
    <clipPath id="prefix__U">
      <path d="M60.352 204.871a6.98 6.98 0 008.55 4.934 6.979 6.979 0 10-3.617-13.48 6.979 6.979 0 00-4.933 8.546" />
    </clipPath>
    <clipPath id="prefix__V">
      <path d="M190 231h15v15h-15zm0 0" />
    </clipPath>
    <clipPath id="prefix__W">
      <path d="M187.613 238.766l9.875-9.868 9.867 9.872-9.875 9.87zm0 0" />
    </clipPath>
    <clipPath id="prefix__X">
      <path
        d="M192.55 233.832a6.982 6.982 0 00-.003 9.871 6.982 6.982 0 009.871.004 6.979 6.979 0 00.004-9.871 6.979 6.979 0 00-9.871-.004" />
    </clipPath>
    <clipPath id="prefix__Y">
      <path d="M153 103h15v15h-15zm0 0" />
    </clipPath>
    <clipPath id="prefix__Z">
      <path d="M155.316 119.285l-3.613-13.484 13.48-3.614 3.618 13.485zm0 0" />
    </clipPath>
    <clipPath id="prefix__aa">
      <path d="M153.508 112.543a6.987 6.987 0 008.55 4.937 6.98 6.98 0 10-3.617-13.484 6.979 6.979 0 00-4.933 8.547" />
    </clipPath>
    <clipPath id="prefix__ab">
      <path d="M81 122h36v35H81zm0 0" />
    </clipPath>
    <clipPath id="prefix__ac">
      <path d="M117.164 123.504l-30.328 36.23-10.352-8.668 30.329-36.226zm0 0" />
    </clipPath>
    <clipPath id="prefix__ad">
      <path d="M117.164 123.504l-30.328 36.23-10.352-8.668 30.329-36.226zm0 0" />
    </clipPath>
    <clipPath id="prefix__ae">
      <path d="M117.164 123.504l-30.328 36.23-10.352-8.668 30.329-36.226zm0 0" />
    </clipPath>
    <clipPath id="prefix__af">
      <path d="M107 125h1v1h-1zm0 0" />
    </clipPath>
    <clipPath id="prefix__ag">
      <path d="M117.164 123.504l-30.328 36.23-10.352-8.668 30.329-36.226zm0 0" />
    </clipPath>
    <clipPath id="prefix__ah">
      <path d="M117.164 123.504l-30.328 36.23-10.352-8.668 30.329-36.226zm0 0" />
    </clipPath>
    <clipPath id="prefix__ai">
      <path d="M117.164 123.504l-30.328 36.23-10.352-8.668 30.329-36.226zm0 0" />
    </clipPath>
    <clipPath id="prefix__aj">
      <path d="M197 143h17v47h-17zm0 0" />
    </clipPath>
    <clipPath id="prefix__ak">
      <path d="M206.242 189.977l-12.168-45.657 13.047-3.476L219.29 186.5zm0 0" />
    </clipPath>
    <clipPath id="prefix__al">
      <path d="M206.242 189.977l-12.168-45.657 13.047-3.476L219.29 186.5zm0 0" />
    </clipPath>
    <clipPath id="prefix__am">
      <path d="M206.242 189.977l-12.168-45.657 13.047-3.476L219.29 186.5zm0 0" />
    </clipPath>
    <clipPath id="prefix__an">
      <path d="M210 181h1v1h-1zm0 0" />
    </clipPath>
    <clipPath id="prefix__ao">
      <path d="M206.242 189.977l-12.168-45.657 13.047-3.476L219.29 186.5zm0 0" />
    </clipPath>
    <clipPath id="prefix__ap">
      <path d="M206.242 189.977l-12.168-45.657 13.047-3.476L219.29 186.5zm0 0" />
    </clipPath>
    <clipPath id="prefix__aq">
      <path d="M206.242 189.977l-12.168-45.657 13.047-3.476L219.29 186.5zm0 0" />
    </clipPath>
    <clipPath id="prefix__ar">
      <path d="M106 234h43v26h-43zm0 0" />
    </clipPath>
    <clipPath id="prefix__as">
      <path d="M106.496 234.398l44.453 16.028-4.582 12.699-44.449-16.027zm0 0" />
    </clipPath>
    <clipPath id="prefix__at">
      <path d="M106.496 234.398l44.453 16.028-4.582 12.699-44.449-16.027zm0 0" />
    </clipPath>
    <clipPath id="prefix__au">
      <path d="M106.496 234.398l44.453 16.028-4.582 12.699-44.449-16.027zm0 0" />
    </clipPath>
    <clipPath id="prefix__av">
      <path d="M111 242h1v1h-1zm0 0" />
    </clipPath>
    <clipPath id="prefix__aw">
      <path d="M106.496 234.398l44.453 16.028-4.582 12.699-44.449-16.027zm0 0" />
    </clipPath>
    <clipPath id="prefix__ax">
      <path d="M106.496 234.398l44.453 16.028-4.582 12.699-44.449-16.027zm0 0" />
    </clipPath>
    <clipPath id="prefix__ay">
      <path d="M106.496 234.398l44.453 16.028-4.582 12.699-44.449-16.027zm0 0" />
    </clipPath>
    <clipPath id="prefix__az">
      <path d="M278 297.129h17v21h-17zm0 0" />
    </clipPath>
    <clipPath id="prefix__aA">
      <path d="M266.625 297.129H283v21h-16.375zm0 0" />
    </clipPath>
    <clipPath id="prefix__aB">
      <path d="M241 297.129h17v21h-17zm0 0" />
    </clipPath>
    <clipPath id="prefix__aC">
      <path d="M229.5 297.129H246v21h-16.5zm0 0" />
    </clipPath>
    <clipPath id="prefix__aD">
      <path d="M204 297.129h16.875v21H204zm0 0" />
    </clipPath>
    <clipPath id="prefix__aE">
      <path d="M192.375 297.129H209v21h-16.625zm0 0" />
    </clipPath>
    <clipPath id="prefix__aF">
      <path d="M167 297.129h16.75v21H167zm0 0" />
    </clipPath>
    <clipPath id="prefix__aG">
      <path d="M155.25 297.129H172v21h-16.75zm0 0" />
    </clipPath>
    <clipPath id="prefix__aH">
      <path d="M130 297h17v22h-17zm0 0" />
    </clipPath>
    <clipPath id="prefix__aI">
      <path d="M117.945 297.379l28.496-.504.371 20.996-28.496.504zm0 0" />
    </clipPath>
    <clipPath id="prefix__aJ">
      <path d="M117.945 297.379l28.496-.504.371 20.996-28.496.504zm0 0" />
    </clipPath>
    <clipPath id="prefix__aK">
      <path d="M117 297h18v22h-18zm0 0" />
    </clipPath>
    <clipPath id="prefix__aL">
      <path d="M117.945 297.379l28.496-.504.371 20.996-28.496.504zm0 0" />
    </clipPath>
    <clipPath id="prefix__aM">
      <path d="M117.945 297.379l28.496-.504.371 20.996-28.496.504zm0 0" />
    </clipPath>
    <clipPath id="prefix__aN">
      <path d="M80 284h20v22H80zm0 0" />
    </clipPath>
    <clipPath id="prefix__aO">
      <path d="M81.105 277.734l23.989 15.387-11.336 17.676-23.992-15.387zm0 0" />
    </clipPath>
    <clipPath id="prefix__aP">
      <path d="M81.105 277.734l23.989 15.387-11.336 17.676-23.992-15.387zm0 0" />
    </clipPath>
    <clipPath id="prefix__aQ">
      <path d="M70 278h20v22H70zm0 0" />
    </clipPath>
    <clipPath id="prefix__aR">
      <path d="M81.105 277.734l23.989 15.387-11.336 17.676-23.992-15.387zm0 0" />
    </clipPath>
    <clipPath id="prefix__aS">
      <path d="M81.105 277.734l23.989 15.387-11.336 17.676-23.992-15.387zm0 0" />
    </clipPath>
    <clipPath id="prefix__aT">
      <path d="M42 264h20v21H42zm0 0" />
    </clipPath>
    <clipPath id="prefix__aU">
      <path d="M48.059 255.742l20.527 19.77-14.566 15.125-20.528-19.77zm0 0" />
    </clipPath>
    <clipPath id="prefix__aV">
      <path d="M48.059 255.742l20.527 19.77-14.566 15.125-20.528-19.77zm0 0" />
    </clipPath>
    <clipPath id="prefix__aW">
      <path d="M33 256h21v20H33zm0 0" />
    </clipPath>
    <clipPath id="prefix__aX">
      <path d="M48.059 255.742l20.527 19.77-14.566 15.125-20.528-19.77zm0 0" />
    </clipPath>
    <clipPath id="prefix__aY">
      <path d="M48.059 255.742l20.527 19.77-14.566 15.125-20.528-19.77zm0 0" />
    </clipPath>
    <clipPath id="prefix__aZ">
      <path d="M19 232h22v19H19zm0 0" />
    </clipPath>
    <clipPath id="prefix__ba">
      <path d="M31.219 221.023l14.32 24.641-18.152 10.555-14.325-24.64zm0 0" />
    </clipPath>
    <clipPath id="prefix__bb">
      <path d="M31.219 221.023l14.32 24.641-18.152 10.555-14.325-24.64zm0 0" />
    </clipPath>
    <clipPath id="prefix__bc">
      <path d="M13 221h22v20H13zm0 0" />
    </clipPath>
    <clipPath id="prefix__bd">
      <path d="M31.219 221.023l14.32 24.641-18.152 10.555-14.325-24.64zm0 0" />
    </clipPath>
    <clipPath id="prefix__be">
      <path d="M31.219 221.023l14.32 24.641-18.152 10.555-14.325-24.64zm0 0" />
    </clipPath>
    <clipPath id="prefix__bf">
      <path d="M8.879 184h21v16.438h-21zm0 0" />
    </clipPath>
    <clipPath id="prefix__bg">
      <path d="M8.879 171.938h21V188h-21zm0 0" />
    </clipPath>
    <clipPath id="prefix__bh">
      <path d="M18 126h21v20H18zm0 0" />
    </clipPath>
    <clipPath id="prefix__bi">
      <path d="M46.379 127.648l-16.234 23.426-17.262-11.965 16.234-23.422zm0 0" />
    </clipPath>
    <clipPath id="prefix__bj">
      <path d="M46.379 127.648l-16.234 23.426-17.262-11.965 16.234-23.422zm0 0" />
    </clipPath>
    <clipPath id="prefix__bk">
      <path d="M25 116h21v20H25zm0 0" />
    </clipPath>
    <clipPath id="prefix__bl">
      <path d="M46.379 127.648l-16.234 23.426-17.262-11.965 16.234-23.422zm0 0" />
    </clipPath>
    <clipPath id="prefix__bm">
      <path d="M46.379 127.648l-16.234 23.426-17.262-11.965 16.234-23.422zm0 0" />
    </clipPath>
    <clipPath id="prefix__bn">
      <path d="M44 90h20v21H44zm0 0" />
    </clipPath>
    <clipPath id="prefix__bo">
      <path d="M72.52 97.336L51.426 116.5l-14.121-15.543 21.093-19.164zm0 0" />
    </clipPath>
    <clipPath id="prefix__bp">
      <path d="M72.52 97.336L51.426 116.5l-14.121-15.543 21.093-19.164zm0 0" />
    </clipPath>
    <clipPath id="prefix__bq">
      <path d="M53 82h20v20H53zm0 0" />
    </clipPath>
    <clipPath id="prefix__br">
      <path d="M72.52 97.336L51.426 116.5l-14.121-15.543 21.093-19.164zm0 0" />
    </clipPath>
    <clipPath id="prefix__bs">
      <path d="M72.52 97.336L51.426 116.5l-14.121-15.543 21.093-19.164zm0 0" />
    </clipPath>
    <clipPath id="prefix__bt">
      <path d="M74 67h20v23H74zm0 0" />
    </clipPath>
    <clipPath id="prefix__bu">
      <path d="M104.922 81.059L79.344 93.633l-9.266-18.848 25.578-12.57zm0 0" />
    </clipPath>
    <clipPath id="prefix__bv">
      <path d="M104.922 81.059L79.344 93.633l-9.266-18.848 25.578-12.57zm0 0" />
    </clipPath>
    <clipPath id="prefix__bw">
      <path d="M85 62h20v23H85zm0 0" />
    </clipPath>
    <clipPath id="prefix__bx">
      <path d="M104.922 81.059L79.344 93.633l-9.266-18.848 25.578-12.57zm0 0" />
    </clipPath>
    <clipPath id="prefix__by">
      <path d="M104.922 81.059L79.344 93.633l-9.266-18.848 25.578-12.57zm0 0" />
    </clipPath>
    <clipPath id="prefix__bz">
      <path d="M117.785 57.016H135V78h-17.215zm0 0" />
    </clipPath>
    <clipPath id="prefix__bA">
      <path d="M130 57.016h16.285V78H130zm0 0" />
    </clipPath>
    <clipPath id="prefix__bB">
      <path d="M154 56h17v22h-17zm0 0" />
    </clipPath>
    <clipPath id="prefix__bC">
      <path d="M182.512 78.012l-28.489-.856.633-20.992 28.489.86zm0 0" />
    </clipPath>
    <clipPath id="prefix__bD">
      <path d="M182.512 78.012l-28.489-.856.633-20.992 28.489.86zm0 0" />
    </clipPath>
    <clipPath id="prefix__bE">
      <path d="M166 56h18v22h-18zm0 0" />
    </clipPath>
    <clipPath id="prefix__bF">
      <path d="M182.512 78.012l-28.489-.856.633-20.992 28.489.86zm0 0" />
    </clipPath>
    <clipPath id="prefix__bG">
      <path d="M182.512 78.012l-28.489-.856.633-20.992 28.489.86zm0 0" />
    </clipPath>
    <clipPath id="prefix__bH">
      <path d="M266 56h17v22h-17zm0 0" />
    </clipPath>
    <clipPath id="prefix__bI">
      <path d="M294.164 78.012l-28.488-.856.633-20.992 28.488.86zm0 0" />
    </clipPath>
    <clipPath id="prefix__bJ">
      <path d="M294.164 78.012l-28.488-.856.633-20.992 28.488.86zm0 0" />
    </clipPath>
    <clipPath id="prefix__bK">
      <path d="M278 56h17v22h-17zm0 0" />
    </clipPath>
    <clipPath id="prefix__bL">
      <path d="M294.164 78.012l-28.488-.856.633-20.992 28.488.86zm0 0" />
    </clipPath>
    <clipPath id="prefix__bM">
      <path d="M294.164 78.012l-28.488-.856.633-20.992 28.488.86zm0 0" />
    </clipPath>
    <clipPath id="prefix__bN">
      <path d="M229 56h17v22h-17zm0 0" />
    </clipPath>
    <clipPath id="prefix__bO">
      <path d="M257.04 78.012l-28.49-.856.634-20.992 28.488.86zm0 0" />
    </clipPath>
    <clipPath id="prefix__bP">
      <path d="M257.04 78.012l-28.49-.856.634-20.992 28.488.86zm0 0" />
    </clipPath>
    <clipPath id="prefix__bQ">
      <path d="M241 56h17v22h-17zm0 0" />
    </clipPath>
    <clipPath id="prefix__bR">
      <path d="M257.04 78.012l-28.49-.856.634-20.992 28.488.86zm0 0" />
    </clipPath>
    <clipPath id="prefix__bS">
      <path d="M257.04 78.012l-28.49-.856.634-20.992 28.488.86zm0 0" />
    </clipPath>
    <clipPath id="prefix__bT">
      <path d="M192 56h17v22h-17zm0 0" />
    </clipPath>
    <clipPath id="prefix__bU">
      <path d="M220.523 78.012l-28.488-.856.633-20.992 28.488.86zm0 0" />
    </clipPath>
    <clipPath id="prefix__bV">
      <path d="M220.523 78.012l-28.488-.856.633-20.992 28.488.86zm0 0" />
    </clipPath>
    <clipPath id="prefix__bW">
      <path d="M204 56h18v22h-18zm0 0" />
    </clipPath>
    <clipPath id="prefix__bX">
      <path d="M220.523 78.012l-28.488-.856.633-20.992 28.488.86zm0 0" />
    </clipPath>
    <clipPath id="prefix__bY">
      <path d="M220.523 78.012l-28.488-.856.633-20.992 28.488.86zm0 0" />
    </clipPath>
  </defs>
  <g clip-path="url(#prefix__a)">
    <g clip-path="url(#prefix__b)">
      <path fill="#737373" d="M303.75 52.777V323.04H-.133V52.777zm0 0" />
    </g>
  </g>
  <g clip-path="url(#prefix__c)">
    <g clip-path="url(#prefix__d)">
      <path fill="none"
        d="M7.918 142.824C3.137 156.668 0 172.406 0 187.852c0 15.445 2.687 30.304 7.469 44.003.152.29.152.583.3.875 19.122 51.434 69.622 89.317 127.887 90.047H303.75v-270H135.781C77.094 53.504 26.594 90.81 7.918 142.824"
        stroke="#000" stroke-width="3" />
    </g>
  </g>
  <g clip-path="url(#prefix__e)">
    <g clip-path="url(#prefix__f)">
      <g clip-path="url(#prefix__g)">
        <path fill="#a6a6a6" d="M69.207 51.914l207.2 60.09-60.087 207.2-207.199-60.09zm0 0" />
      </g>
    </g>
  </g>
  <g clip-path="url(#prefix__h)">
    <g clip-path="url(#prefix__i)">
      <g clip-path="url(#prefix__j)">
        <g clip-path="url(#prefix__k)">
          <path fill="none"
            d="M172.934 81.996c-57.286-16.613-117.192 16.36-133.805 73.645-16.613 57.285 16.36 117.195 73.644 133.808 57.286 16.613 117.196-16.36 133.809-73.644 16.613-57.29-16.36-117.196-73.648-133.809"
            stroke="#000" stroke-width="6" />
        </g>
      </g>
    </g>
  </g>
  <g clip-path="url(#prefix__l)">
    <g clip-path="url(#prefix__m)">
      <g clip-path="url(#prefix__n)">
        <path fill="#ffde59" d="M149.86 118.3l17.03 4.481-8.117 30.875-17.035-4.48zm0 0" />
      </g>
    </g>
  </g>
  <g clip-path="url(#prefix__o)">
    <g clip-path="url(#prefix__p)">
      <g clip-path="url(#prefix__q)">
        <path fill="#ffde59" d="M158.824 212.516l12.531-12.38 22.43 22.72-12.531 12.374zm0 0" />
      </g>
    </g>
  </g>
  <g clip-path="url(#prefix__r)">
    <g clip-path="url(#prefix__s)">
      <g clip-path="url(#prefix__t)">
        <path fill="#ffde59" d="M105.516 236.523l-21.868-81.57 70.743-18.965 21.867 81.575zm0 0" />
      </g>
    </g>
  </g>
  <g clip-path="url(#prefix__u)">
    <g clip-path="url(#prefix__v)">
      <g clip-path="url(#prefix__w)">
        <path fill="#ffde59" d="M89.246 206.324l-4.562-17.012 30.836-8.269 4.562 17.016zm0 0" />
      </g>
    </g>
  </g>
  <g clip-path="url(#prefix__x)">
    <g clip-path="url(#prefix__y)">
      <g clip-path="url(#prefix__z)">
        <path fill="#ffde59" d="M100.691 223.504l-54.043 13.16-13.16-54.043 54.043-13.16zm0 0" />
      </g>
    </g>
  </g>
  <g clip-path="url(#prefix__A)">
    <g clip-path="url(#prefix__B)">
      <g clip-path="url(#prefix__C)">
        <g clip-path="url(#prefix__D)">
          <path
            d="M73.023 227.16c5.395-1.312 9.84-4.117 13.332-8.414L91 222.523c-4.34 5.336-9.86 8.825-16.563 10.454zm14.907-10.578c3.023-4.66 4.336-9.746 3.93-15.254l5.972-.437c.504 6.847-1.125 13.164-4.879 18.953zm3.593-17.898c-.09-.48-.191-.957-.304-1.434-1.192-4.883-3.633-9.016-7.324-12.395l4.043-4.414c4.585 4.196 7.62 9.329 9.097 15.391.145.59.27 1.18.38 1.773zm-9.695-15.524c-4.484-3.293-9.488-4.894-15.012-4.812l-.09-5.989c6.868-.101 13.079 1.891 18.645 5.973zm-17.66-4.629c-.961.117-1.914.293-2.863.524-4.383 1.066-8.18 3.164-11.39 6.289l-4.177-4.293c3.992-3.883 8.711-6.488 14.153-7.813a30.592 30.592 0 013.547-.652zm-16.063 8.774c-3.542 4.28-5.437 9.183-5.68 14.699l-5.984-.262c.305-6.855 2.653-12.941 7.051-18.254zm-5.652 17.375c.094 1.441.313 2.867.656 4.285.95 3.887 2.72 7.328 5.317 10.332l-4.528 3.918c-3.226-3.73-5.43-8.008-6.605-12.832a31.19 31.19 0 01-.816-5.317zm7.824 16.535c4.067 3.785 8.852 5.96 14.348 6.527l-.613 5.953c-6.828-.703-12.766-3.402-17.813-8.097zm17.02 6.656a24.957 24.957 0 005.726-.71l1.415 5.816c-2.344.57-4.711.863-7.102.878zm0 0" />
        </g>
      </g>
    </g>
  </g>
  <g clip-path="url(#prefix__E)">
    <g clip-path="url(#prefix__F)">
      <g clip-path="url(#prefix__G)">
        <path fill="#ffde59" d="M197.473 278.094l-39.32-39.34 39.343-39.32 39.316 39.34zm0 0" />
      </g>
    </g>
  </g>
  <g clip-path="url(#prefix__H)">
    <g clip-path="url(#prefix__I)">
      <g clip-path="url(#prefix__J)">
        <g clip-path="url(#prefix__K)">
          <path
            d="M179.973 256.352c3.925 3.925 8.632 6.27 14.117 7.023l-.813 5.93c-6.816-.938-12.664-3.844-17.539-8.723zm16.785 7.242c5.55.164 10.578-1.36 15.074-4.567l3.477 4.875c-5.59 3.989-11.832 5.88-18.727 5.676zm17.16-6.23c.363-.325.719-.657 1.066-1.005 3.555-3.554 5.817-7.785 6.786-12.691l5.875 1.156c-1.204 6.102-4.012 11.36-8.43 15.77-.426.43-.867.844-1.317 1.246zm8.227-16.348c.484-5.54-.743-10.649-3.684-15.325l5.07-3.187c3.653 5.812 5.18 12.156 4.578 19.031zm-5.215-17.493a24.871 24.871 0 00-1.938-2.175c-3.187-3.188-6.953-5.344-11.293-6.465l1.5-5.797c5.395 1.39 10.07 4.07 14.028 8.031.855.852 1.656 1.75 2.398 2.692zm-15.848-9.168c-5.496-.804-10.668.125-15.508 2.782l-2.883-5.246c6.016-3.305 12.434-4.457 19.258-3.461zm-17.777 4.196a24.77 24.77 0 00-3.32 2.789c-2.833 2.828-4.852 6.129-6.067 9.906l-5.7-1.832c1.509-4.695 4.02-8.8 7.532-12.309a30.688 30.688 0 014.117-3.457zm-10.067 15.277c-1.12 5.442-.496 10.656 1.88 15.649l-5.411 2.57c-2.945-6.2-3.723-12.676-2.332-19.426zm3.157 18a25.008 25.008 0 003.578 4.524l-4.235 4.23a30.97 30.97 0 01-4.441-5.61zm0 0" />
        </g>
      </g>
    </g>
  </g>
  <g clip-path="url(#prefix__L)">
    <g clip-path="url(#prefix__M)">
      <g clip-path="url(#prefix__N)">
        <path fill="#ffde59" d="M194.855 131.422l-54.039 13.164-13.164-54.043 54.043-13.16zm0 0" />
      </g>
    </g>
  </g>
  <g clip-path="url(#prefix__O)">
    <g clip-path="url(#prefix__P)">
      <g clip-path="url(#prefix__Q)">
        <g clip-path="url(#prefix__R)">
          <path
            d="M167.188 135.082c5.394-1.316 9.84-4.121 13.335-8.414l4.645 3.777c-4.344 5.336-9.863 8.82-16.563 10.453zm14.91-10.578c3.023-4.66 4.332-9.746 3.93-15.254l5.968-.438c.504 6.844-1.121 13.165-4.875 18.95zm3.59-17.902a22.706 22.706 0 00-.305-1.43c-1.192-4.887-3.63-9.016-7.32-12.395l4.039-4.418c4.59 4.2 7.62 9.329 9.097 15.395.145.59.27 1.18.38 1.773zm-9.696-15.52c-4.484-3.293-9.484-4.898-15.008-4.812l-.09-5.989c6.864-.101 13.079 1.887 18.641 5.973zm-17.656-4.633c-.961.121-1.918.293-2.863.524-4.383 1.07-8.18 3.164-11.395 6.293l-4.176-4.293c3.996-3.887 8.711-6.493 14.153-7.817 1.172-.285 2.355-.5 3.547-.648zm-16.066 8.778c-3.543 4.28-5.438 9.18-5.68 14.699l-5.98-.266c.3-6.855 2.652-12.937 7.046-18.25zm-5.653 17.375c.094 1.437.313 2.867.66 4.285.946 3.886 2.72 7.328 5.313 10.328l-4.528 3.918c-3.226-3.73-5.43-8.008-6.605-12.832a30.698 30.698 0 01-.812-5.313zm7.828 16.535c4.067 3.781 8.848 5.957 14.348 6.523l-.613 5.957c-6.832-.703-12.77-3.402-17.813-8.097zm17.02 6.652a24.705 24.705 0 005.722-.707l1.418 5.816c-2.343.57-4.71.864-7.101.88zm0 0" />
        </g>
      </g>
    </g>
  </g>
  <g clip-path="url(#prefix__S)">
    <g clip-path="url(#prefix__T)">
      <g clip-path="url(#prefix__U)">
        <path fill="#707070" d="M62.16 211.613l-3.613-13.484 13.48-3.613L75.645 208zm0 0" />
      </g>
    </g>
  </g>
  <g clip-path="url(#prefix__V)">
    <g clip-path="url(#prefix__W)">
      <g clip-path="url(#prefix__X)">
        <path fill="#707070" d="M187.613 238.766l9.875-9.868 9.867 9.872-9.875 9.87zm0 0" />
      </g>
    </g>
  </g>
  <g clip-path="url(#prefix__Y)">
    <g clip-path="url(#prefix__Z)">
      <g clip-path="url(#prefix__aa)">
        <path fill="#707070" d="M155.316 119.285l-3.613-13.484 13.48-3.614 3.618 13.485zm0 0" />
      </g>
    </g>
  </g>
  <g clip-path="url(#prefix__ab)">
    <g clip-path="url(#prefix__ac)">
      <g clip-path="url(#prefix__ad)">
        <g clip-path="url(#prefix__ae)">
          <path fill="#fff"
            d="M116.375 123.836c-.008-.043-.035-.066-.074-.082-.024-.14.18-.254.047-.41-.04-.45-.368-.567-.739-.633-1.035-.172-2.074-.176-3.117-.113-3.726.222-7.23 1.21-10.582 2.832-5.855 2.828-10.066 7.285-13.09 12.93-1.402 2.62-2.32 5.437-3.101 8.3-.461 1.684-.817 3.39-1.219 5.086.016.066.027.133.04.203-.048.059-.08.145-.142.172h-.003c-.051.024-.082-.047-.067-.11-.281-.628-.422-1.292-.523-1.968-.075-.461-.176-.902-.41-1.309-.145-.992-.747-1.523-1.665-1.515-.632 1.886-.218 3.71.356 5.531.21.676.379 1.367.555 2.05.421 1.645.453 1.387 1.78 1.782.298.09.61.11.919.094.117-.004.222-.016.297-.11.343.082.535-.14.71-.367.524-.676 1.036-1.351 1.555-2.031.188-.074.285-.234.375-.402.192-.067.29-.23.387-.387.145-.027.207-.156.305-.242 1.297-1.168 2.71-2.172 4.293-2.93.12-.059.234-.125.351-.187.137-.075.297-.153.266-.333-.024-.132-.184-.234-.3-.234-.516.016-.954-.289-1.454-.32-.219-.016-.43.062-.637.144-1.62.625-3.082 1.524-4.453 2.57-.12.094-.23.212-.37.274-.161.078-.235-.047-.278-.187.129-.121.152-.262.086-.422.097-.133.18-.27.101-.442.04-.02.047-.047.024-.082.093-.125.16-.254.097-.418.043-.097.106-.191.133-.297.305-1.144.594-2.296.914-3.437.293-1.035.613-2.059.926-3.09.113-.262.238-.516.344-.781 1.023-2.567 2.343-4.969 4.023-7.164.602-.781 1.227-1.547 1.84-2.317.2-.078.293-.25.387-.425.195-.067.285-.23.375-.399.191-.05.265-.215.363-.36.129-.019.195-.109.238-.222.047-.012.07-.039.078-.086.141-.027.207-.152.305-.238.48-.406.887-.899 1.422-1.246-.004-.074.09-.23-.125-.121-.14.07-.18.047-.184-.008-.004-.047.024-.117.036-.176 1.566-1.238 3.261-2.273 5.03-3.2l.516-.21 3.086-1.266c.043.012.086.012.118-.007a.168.168 0 00.066-.051c.07.02.133 0 .176-.059.074.024.133.004.18-.058.074.027.132.003.18-.055.073.023.132.008.179-.055.074.028.133.008.18-.055.074.028.132.008.175-.05l.004-.004c.059-.012.121-.028.18-.047h.004c.07.027.129.012.176-.05h.007c.07.026.13.01.176-.052h.008c.07.032.129.016.176-.046h.004c.07.027.132.011.18-.051.074.031.132.015.183-.043.566-.11 1.133-.215 1.703-.324.277-.149.59-.149.89-.192.02.027.032.059.04.09a.21.21 0 01-.016.144c.23-.007.461 0 .676-.109a.366.366 0 01.2-.074c-.067.023-.134.047-.2.074.074.012.144.012.187-.058.102.058.204.046.301-.004.067.039.125.039.18-.02.074.02.14.024.203-.035.035.016.066.02.105 0 .227.035.446.016.665-.05.16.01.324.03.476-.04.098.047.2.02.297 0 .633.055 1.273-.004 1.93.184-.043-.239.144-.41-.016-.594zM86.48 150.922c0-.004 0-.004.004-.004h-.004.008c-.004.004-.004.004-.008.004zm21.778-26.332c-.016.004-.031.004-.047.004.004 0 .008-.004.012-.004.011-.004.023-.008.039-.008 0 0-.004.004-.004.008zm-1.848.93c-.004 0 0 0-.004-.004 0-.004-.004-.008-.004-.012v-.02l.008.036s0-.004.004 0c-.004-.004-.004 0-.004 0zm1.871-.993c-.008.016-.011.035-.02.051-.011.004-.023.008-.034.008.023-.008.043-.031.054-.059zm-.14.078l-.04.012h-.003l.043-.012zm7.129-1.261h.003l.004-.004c0 .004.004.004.004.004h-.011zm-.282-.024c-.004 0-.004-.004-.008-.004 0 .004.008.004.008.004zm-2.66.98c.004-.015.008-.027.008-.042l.023.012c-.011.007-.02.02-.03.03zm.504.009a.167.167 0 01.074.007l-.004.004a.221.221 0 00-.07-.011zm0 0" />
        </g>
      </g>
    </g>
  </g>
  <g clip-path="url(#prefix__af)">
    <g clip-path="url(#prefix__ag)">
      <g clip-path="url(#prefix__ah)">
        <g clip-path="url(#prefix__ai)">
          <path fill="#fff" d="M107.848 125.082l-.176.047c.07.027.129.012.176-.047zm0 0" />
        </g>
      </g>
    </g>
  </g>
  <g clip-path="url(#prefix__aj)">
    <g clip-path="url(#prefix__ak)">
      <g clip-path="url(#prefix__al)">
        <g clip-path="url(#prefix__am)">
          <path fill="#fff"
            d="M206.426 189.14a.11.11 0 00.11-.015c.132.063.105.293.308.277.39.227.676.024.941-.242.738-.746 1.34-1.597 1.89-2.484 1.962-3.176 3.169-6.606 3.774-10.281 1.055-6.418-.164-12.426-3.039-18.149-1.332-2.652-3.113-5.023-5-7.312-1.113-1.348-2.3-2.621-3.46-3.922-.063-.032-.126-.059-.188-.086-.024-.074-.07-.149-.059-.219.012-.055.086-.039.129.008.676.133 1.3.402 1.91.703.418.207.84.379 1.309.422.894.45 1.676.265 2.195-.488-1.176-1.606-2.906-2.317-4.726-2.895-.676-.215-1.333-.477-1.997-.727-1.59-.601-1.394-.425-2.484.43a2.811 2.811 0 00-.605.7c-.063.097-.11.19-.079.304-.265.234-.195.52-.109.793.25.816.508 1.625.766 2.438-.051.199.027.37.113.539-.059.199.023.37.094.543-.063.132.008.257.023.386.207 1.735.215 3.469-.074 5.2-.023.128-.035.261-.05.39-.02.156-.048.332.116.41.125.059.301-.015.364-.113.285-.426.789-.613 1.101-1 .137-.172.196-.387.246-.605.422-1.684.532-3.395.461-5.122-.004-.152-.035-.308-.008-.46.028-.172.176-.165.313-.118.023.172.125.274.293.313.055.156.121.3.309.336-.012.043.007.066.05.066.051.149.117.278.285.32.055.094.098.196.168.282.758.91 1.532 1.808 2.282 2.726.68.832 1.332 1.688 1.996 2.532.148.246.285.496.441.73 1.508 2.316 2.711 4.781 3.54 7.418.296.941.562 1.89.84 2.836-.056.21.034.383.124.562-.059.2.024.368.106.536-.067.183.023.34.085.503-.054.118-.023.223.047.325-.02.043-.011.082.028.113-.063.133.004.258.015.383.059.629.227 1.246.203 1.883.067.039.137.207.172-.032.024-.156.063-.175.11-.148.039.027.082.09.12.133.114 1.992-.015 3.976-.277 5.953-.043.18-.082.363-.125.547-.246 1.082-.496 2.168-.742 3.25a.166.166 0 00-.062.101c-.004.024 0 .051.008.082a.152.152 0 00-.055.18c-.063.047-.078.105-.055.176-.062.047-.082.11-.058.18-.063.046-.082.105-.059.18-.063.046-.082.105-.059.175v.004c-.066.043-.086.101-.062.172v.004c-.024.054-.043.113-.063.172v.007c-.066.043-.086.098-.062.172l-.004.008c-.063.04-.082.098-.063.172v.004c-.066.043-.085.101-.062.172l-.004.004c-.062.043-.086.101-.062.175-.067.043-.09.102-.067.176-.238.527-.48 1.05-.719 1.578-.035.313-.214.57-.355.84a.247.247 0 01-.207-.117c-.125.195-.266.379-.297.617 0 .07-.016.14-.055.207.02-.07.04-.137.055-.207-.05.055-.094.11-.062.188-.106.046-.153.136-.168.246-.07.03-.102.082-.086.16-.063.047-.102.101-.09.183a.118.118 0 00-.063.086c-.156.168-.27.356-.34.575-.101.125-.21.246-.242.41-.097.054-.129.152-.168.246-.414.484-.734 1.043-1.261 1.472.218.098.254.352.492.329zm-4.942-40.035l.004.004v-.004.004h-.008l.004-.004zm8.996 32.961c.008-.011.016-.023.024-.039 0 .004 0 .008-.004.012l-.012.035-.008-.008zm.305-2.046c.004 0 .004.003.004 0 .004.003.012.003.016.007l.015.008-.03-.012h-.005v-.003zm-.262 2.101l-.035-.043a.139.139 0 00.016-.035.084.084 0 00.02.078zm.012-.156c.004-.016.012-.028.016-.043h.004a.144.144 0 00-.02.043zm-3.07 6.555v.003l-.004.004-.004.004c0-.004.004-.008.008-.011zm.18-.22c.003 0 .007 0 .007-.003-.004 0-.004.004-.007.004zm.73-2.734c.008.008.02.02.031.028l-.023.011a.139.139 0 00-.008-.039zm-.297.403a.105.105 0 01-.047.054h-.004a.167.167 0 00.051-.054zm0 0" />
        </g>
      </g>
    </g>
  </g>
  <g clip-path="url(#prefix__an)">
    <g clip-path="url(#prefix__ao)">
      <g clip-path="url(#prefix__ap)">
        <g clip-path="url(#prefix__aq)">
          <path fill="#fff" d="M210.316 181.45c.024-.06.043-.114.063-.173-.066.043-.086.102-.063.172zm0 0" />
        </g>
      </g>
    </g>
  </g>
  <g clip-path="url(#prefix__ar)">
    <g clip-path="url(#prefix__as)">
      <g clip-path="url(#prefix__at)">
        <g clip-path="url(#prefix__au)">
          <path fill="#fff"
            d="M107.082 235.027a.112.112 0 00-.05.098c-.126.074-.302-.082-.403.098-.41.191-.406.539-.34.91.195 1.031.55 2.012.965 2.965 1.488 3.425 3.621 6.37 6.297 8.964 4.672 4.524 10.3 6.95 16.644 7.848 2.942.414 5.903.305 8.86.059 1.738-.149 3.465-.399 5.195-.606.059-.035.117-.074.176-.11.074.024.164.028.21.079h.005c.035.04-.02.094-.082.102-.493.48-1.07.84-1.668 1.168-.407.226-.79.476-1.09.836-.883.476-1.176 1.222-.852 2.082 1.992-.051 3.559-1.067 5.07-2.23.567-.435 1.157-.83 1.739-1.231 1.398-.961 1.144-.903 1.058-2.286a2.648 2.648 0 00-.226-.894c-.043-.106-.094-.2-.207-.242-.04-.352-.317-.453-.59-.54-.809-.261-1.625-.507-2.438-.761-.136-.152-.32-.188-.507-.215-.13-.16-.317-.191-.5-.23-.07-.13-.215-.141-.328-.2-1.543-.82-2.973-1.8-4.23-3.027-.095-.094-.196-.176-.294-.266-.117-.105-.25-.226-.402-.132-.117.066-.16.254-.117.359.187.48.054.996.195 1.477.066.21.207.378.36.546 1.14 1.309 2.484 2.372 3.94 3.297.13.086.278.149.383.254.13.125.04.238-.078.328-.156-.078-.297-.054-.425.063-.157-.043-.313-.074-.45.058-.03-.03-.062-.027-.086.008-.148-.047-.296-.066-.425.051-.11-.008-.22-.031-.325-.023-1.183.105-2.359.23-3.543.32-1.07.086-2.144.133-3.218.195-.285-.015-.567-.047-.852-.05-2.762-.083-5.473-.497-8.11-1.32-.945-.294-1.874-.618-2.812-.927-.14-.164-.336-.191-.531-.218-.129-.16-.313-.188-.5-.22-.113-.16-.293-.175-.465-.214-.062-.113-.168-.148-.289-.148-.027-.04-.062-.055-.11-.043-.073-.125-.214-.141-.327-.204-.547-.312-1.149-.523-1.66-.906-.07.031-.247-.008-.07.156.116.11.109.157.058.176-.043.02-.121.02-.18.028-1.703-1.043-3.258-2.282-4.73-3.625-.125-.137-.254-.274-.38-.41-.75-.82-1.5-1.645-2.25-2.462-.003-.046-.019-.085-.046-.109a.163.163 0 00-.07-.043c-.004-.078-.047-.125-.118-.148-.004-.078-.043-.125-.113-.149-.004-.078-.043-.125-.117-.148 0-.078-.04-.13-.113-.149 0-.078-.036-.129-.11-.148l-.004-.004c.004-.078-.035-.129-.105-.148l-.004-.004a1.282 1.282 0 00-.106-.149l-.004-.004c0-.078-.03-.125-.105-.148l-.004-.008c0-.074-.035-.125-.105-.148l-.004-.004-.004-.004.004.004c.004-.078-.035-.13-.106-.153h-.004c.004-.078-.03-.128-.105-.152v-.004c0-.078-.035-.129-.106-.152l-.89-1.488c-.235-.211-.344-.504-.488-.77a.25.25 0 01.074-.07.211.211 0 01.14-.035c-.086-.215-.16-.434-.336-.594a.397.397 0 01-.136-.164c.043.05.09.11.136.164-.015-.074-.035-.145-.117-.16.02-.118-.027-.203-.11-.282.013-.074-.007-.129-.081-.16-.004-.078-.024-.14-.098-.18 0-.038-.008-.07-.039-.097a1.43 1.43 0 00-.277-.606c-.043-.156-.078-.316-.2-.437.012-.11-.05-.191-.101-.274-.168-.617-.441-1.199-.492-1.878-.207.125-.434.007-.551.218zm35.711 18.758h-.004v-.004c.004 0 .004.004.004.004zm-32.211-11.394a.183.183 0 00.02.039.008.008 0 01-.008-.008.217.217 0 01-.024-.031h.012zm1.508 1.418h-.004l-.012.011-.015.004.027-.015v-.004l.004.004zm-1.578-1.418h.054l.024.03a.11.11 0 00-.078-.03zm.125.101l.023.04v.003a.426.426 0 00-.023-.043zM107 236.234l-.004-.004v-.003-.004c0 .004 0 .007.004.011zm.074.274c0 .004-.004.008 0 .008v-.008zm1.832 2.16c-.011 0-.027.004-.043.008.004-.008.004-.016.004-.028.016.008.028.012.04.02zm-.16-.477c-.016-.02-.02-.043-.02-.07h.004c0 .027.004.05.016.07zm0 0" />
        </g>
      </g>
    </g>
  </g>
  <g clip-path="url(#prefix__av)">
    <g clip-path="url(#prefix__aw)">
      <g clip-path="url(#prefix__ax)">
        <g clip-path="url(#prefix__ay)">
          <path fill="#fff" d="M111.184 242.605l.105.153c0-.078-.035-.13-.105-.153zm0 0" />
        </g>
      </g>
    </g>
  </g>
  <path transform="matrix(.74987 .00605 -.00605 .74998 136.49 77.868)" fill="none" d="M-.002 1.999L223.036 2"
    stroke="#000" stroke-width="4" />
  <path transform="matrix(.75062 -.00364 .00364 .75 135.126 291.168)" fill="none" d="M0 2l224.814.002" stroke="#000"
    stroke-width="4" />
  <g clip-path="url(#prefix__az)">
    <path fill="#38b6ff"
      d="M294.695 306.992l-8.492-9.492a.946.946 0 00-.703-.316h-5.664a.95.95 0 00-.863.562.956.956 0 00.164 1.02l7.922 8.863-7.922 8.855a.95.95 0 00.7 1.586h5.663c.266 0 .52-.117.703-.312l8.492-9.496c.32-.36.32-.91 0-1.27zm0 0" />
  </g>
  <g clip-path="url(#prefix__aA)">
    <path fill="#38b6ff"
      d="M282.426 306.992l-8.492-9.492a.94.94 0 00-.704-.316h-5.66a.947.947 0 00-.703 1.582l7.926 8.863-7.926 8.855a.955.955 0 00-.16 1.024.94.94 0 00.863.562h5.66c.27 0 .52-.117.704-.312l8.492-9.496a.95.95 0 000-1.27zm0 0" />
  </g>
  <g clip-path="url(#prefix__aB)">
    <path fill="#38b6ff"
      d="M257.57 306.992l-8.492-9.492a.946.946 0 00-.703-.316h-5.664a.95.95 0 00-.863.562.962.962 0 00.16 1.02l7.926 8.863-7.926 8.855a.95.95 0 00.703 1.586h5.664c.266 0 .52-.117.703-.312l8.492-9.496c.32-.36.32-.91 0-1.27zm0 0" />
  </g>
  <g clip-path="url(#prefix__aC)">
    <path fill="#38b6ff"
      d="M245.3 306.992l-8.491-9.492a.94.94 0 00-.704-.316h-5.66a.947.947 0 00-.703 1.582l7.926 8.863-7.926 8.855a.955.955 0 00-.16 1.024.94.94 0 00.863.562h5.66c.27 0 .52-.117.704-.312l8.492-9.496a.95.95 0 000-1.27zm0 0" />
  </g>
  <g clip-path="url(#prefix__aD)">
    <path fill="#5ce1e6"
      d="M220.445 306.992l-8.492-9.492a.946.946 0 00-.703-.316h-5.664a.95.95 0 00-.863.562.956.956 0 00.164 1.02l7.922 8.863-7.922 8.855a.95.95 0 00.7 1.586h5.663c.266 0 .52-.117.703-.312l8.492-9.496c.32-.36.32-.91 0-1.27zm0 0" />
  </g>
  <g clip-path="url(#prefix__aE)">
    <path fill="#5ce1e6"
      d="M208.176 306.992l-8.492-9.492a.94.94 0 00-.704-.316h-5.66a.947.947 0 00-.703 1.582l7.926 8.863-7.926 8.855a.955.955 0 00-.16 1.024.94.94 0 00.863.562h5.66c.27 0 .52-.117.704-.312l8.492-9.496a.95.95 0 000-1.27zm0 0" />
  </g>
  <g clip-path="url(#prefix__aF)">
    <path fill="#38b6ff"
      d="M183.32 306.992l-8.492-9.492a.946.946 0 00-.703-.316h-5.664a.95.95 0 00-.863.562.956.956 0 00.164 1.02l7.922 8.863-7.922 8.855a.95.95 0 00.7 1.586h5.663c.266 0 .52-.117.703-.312l8.492-9.496c.32-.36.32-.91 0-1.27zm0 0" />
  </g>
  <g clip-path="url(#prefix__aG)">
    <path fill="#38b6ff"
      d="M171.05 306.992l-8.491-9.492a.94.94 0 00-.704-.316h-5.66a.947.947 0 00-.703 1.582l7.926 8.863-7.926 8.855a.955.955 0 00-.16 1.024.94.94 0 00.863.562h5.66c.27 0 .52-.117.704-.312l8.492-9.496a.95.95 0 000-1.27zm0 0" />
  </g>
  <g clip-path="url(#prefix__aH)">
    <g clip-path="url(#prefix__aI)">
      <g clip-path="url(#prefix__aJ)">
        <path fill="#38b6ff"
          d="M146.184 306.746l-8.66-9.344a.948.948 0 00-.708-.3l-5.66.097a.947.947 0 00-.851.578.956.956 0 00.175 1.02l8.083 8.719-7.77 8.996a.952.952 0 00.73 1.574l5.665-.102a.96.96 0 00.695-.324l8.324-9.644a.954.954 0 00-.023-1.27zm0 0" />
      </g>
    </g>
  </g>
  <g clip-path="url(#prefix__aK)">
    <g clip-path="url(#prefix__aL)">
      <g clip-path="url(#prefix__aM)">
        <path fill="#38b6ff"
          d="M133.918 306.96l-8.66-9.339a.937.937 0 00-.707-.305l-5.66.102a.95.95 0 00-.856.578.95.95 0 00.18 1.016l8.082 8.718-7.77 8.997a.959.959 0 00-.14 1.027c.16.34.5.555.87.547l5.665-.102a.96.96 0 00.695-.324l8.324-9.64a.96.96 0 00-.023-1.274zm0 0" />
      </g>
    </g>
  </g>
  <g clip-path="url(#prefix__aN)">
    <g clip-path="url(#prefix__aO)">
      <g clip-path="url(#prefix__aP)">
        <path fill="#38b6ff"
          d="M99.406 301.191l-2.023-12.574a.945.945 0 00-.422-.644l-4.766-3.059a.949.949 0 00-1.445.953l1.887 11.738-11.453 3.176a.951.951 0 00-.266 1.715l4.766 3.059c.226.144.5.183.761.113l12.274-3.406a.954.954 0 00.687-1.07zm0 0" />
      </g>
    </g>
  </g>
  <g clip-path="url(#prefix__aQ)">
    <g clip-path="url(#prefix__aR)">
      <g clip-path="url(#prefix__aS)">
        <path fill="#38b6ff"
          d="M89.078 294.57l-2.023-12.578a.94.94 0 00-.422-.644l-4.766-3.055a.942.942 0 00-1.027.004.966.966 0 00-.418.95l1.887 11.733-11.454 3.18a.954.954 0 00-.687.774.945.945 0 00.422.937l4.77 3.059c.222.144.5.183.757.117l12.278-3.406a.957.957 0 00.683-1.07zm0 0" />
      </g>
    </g>
  </g>
  <g clip-path="url(#prefix__aT)">
    <g clip-path="url(#prefix__aU)">
      <g clip-path="url(#prefix__aV)">
        <path fill="#5ce1e6"
          d="M61.434 282.32l.468-12.73a.94.94 0 00-.289-.715l-4.078-3.93a.945.945 0 00-1.012-.191.955.955 0 00-.593.848l-.438 11.878-11.851.883a.942.942 0 00-.825.625.94.94 0 00.23 1.004l4.079 3.926a.951.951 0 00.723.262l12.703-.946a.957.957 0 00.883-.914zm0 0" />
      </g>
    </g>
  </g>
  <g clip-path="url(#prefix__aW)">
    <g clip-path="url(#prefix__aX)">
      <g clip-path="url(#prefix__aY)">
        <path fill="#5ce1e6"
          d="M52.598 273.809l.468-12.73a.96.96 0 00-.289-.716l-4.078-3.925a.948.948 0 00-1.605.652l-.438 11.879-11.851.883a.948.948 0 00-.825.625.94.94 0 00.23 1.003l4.08 3.93a.96.96 0 00.722.262l12.703-.95a.957.957 0 00.883-.913zm0 0" />
      </g>
    </g>
  </g>
  <g clip-path="url(#prefix__aZ)">
    <g clip-path="url(#prefix__ba)">
      <g clip-path="url(#prefix__bb)">
        <path fill="#38b6ff"
          d="M36.793 250.25l3.941-12.113a.938.938 0 00-.082-.766l-2.843-4.894a.95.95 0 00-1.723.187L32.41 243.97l-11.64-2.399a.947.947 0 00-.965.375.944.944 0 00-.055 1.028l2.848 4.894c.132.235.359.395.62.45l12.477 2.574a.95.95 0 001.098-.641zm0 0" />
      </g>
    </g>
  </g>
  <g clip-path="url(#prefix__bc)">
    <g clip-path="url(#prefix__bd)">
      <g clip-path="url(#prefix__be)">
        <path fill="#38b6ff"
          d="M30.629 239.645l3.941-12.114a.938.938 0 00-.082-.765l-2.843-4.895a.946.946 0 00-.922-.465.954.954 0 00-.801.653l-3.676 11.304-11.644-2.402a.958.958 0 00-.961.375.943.943 0 00-.055 1.031l2.844 4.895c.136.23.363.39.625.449l12.476 2.57a.952.952 0 001.098-.636zm0 0" />
      </g>
    </g>
  </g>
  <g clip-path="url(#prefix__bf)">
    <path fill="#38b6ff"
      d="M20.016 200.004l9.492-8.492a.934.934 0 00.316-.703v-5.66a.945.945 0 00-.562-.864.946.946 0 00-1.02.16l-8.863 7.926-8.856-7.926a.955.955 0 00-1.023-.16.945.945 0 00-.563.863v5.66c0 .27.114.524.313.704l9.496 8.492a.95.95 0 001.27 0zm0 0" />
  </g>
  <g clip-path="url(#prefix__bg)">
    <path fill="#38b6ff"
      d="M20.016 187.738l9.492-8.496a.932.932 0 00.316-.699v-5.664a.95.95 0 00-.562-.863.961.961 0 00-1.02.16l-8.863 7.926-8.856-7.926a.95.95 0 00-1.586.703v5.664c0 .266.114.52.313.7l9.496 8.495c.36.32.91.32 1.27 0zm0 0" />
  </g>
  <g clip-path="url(#prefix__bh)">
    <g clip-path="url(#prefix__bi)">
      <g clip-path="url(#prefix__bj)">
        <path fill="#38b6ff"
          d="M22.281 145.098l12.64-1.57a.951.951 0 00.661-.4l3.227-4.651a.95.95 0 00-.903-1.48L26.11 138.46l-2.765-11.559a.952.952 0 00-1.703-.324l-3.227 4.652a.948.948 0 00-.14.758l2.964 12.387a.949.949 0 001.043.723zm0 0" />
      </g>
    </g>
  </g>
  <g clip-path="url(#prefix__bk)">
    <g clip-path="url(#prefix__bl)">
      <g clip-path="url(#prefix__bm)">
        <path fill="#38b6ff"
          d="M29.27 135.016l12.64-1.575a.933.933 0 00.66-.394l3.223-4.656a.935.935 0 00.031-1.028.953.953 0 00-.93-.449l-11.796 1.465-2.766-11.559a.963.963 0 00-.75-.715.941.941 0 00-.953.387l-3.227 4.656a.936.936 0 00-.14.754l2.965 12.391a.95.95 0 001.043.723zm0 0" />
      </g>
    </g>
  </g>
  <g clip-path="url(#prefix__bn)">
    <g clip-path="url(#prefix__bo)">
      <g clip-path="url(#prefix__bp)">
        <path fill="#5ce1e6"
          d="M45.11 108.906l12.671 1.317a.941.941 0 00.73-.239l4.192-3.808a.948.948 0 00.258-.996.954.954 0 00-.805-.649l-11.824-1.226-.09-11.887a.948.948 0 00-1.586-.7l-4.191 3.805a.963.963 0 00-.309.707l.098 12.739c.004.484.375.89.855.937zm0 0" />
      </g>
    </g>
  </g>
  <g clip-path="url(#prefix__bq)">
    <g clip-path="url(#prefix__br)">
      <g clip-path="url(#prefix__bs)">
        <path fill="#5ce1e6"
          d="M54.188 100.656l12.671 1.317a.936.936 0 00.73-.239l4.192-3.808a.942.942 0 00.262-.996.958.958 0 00-.805-.649l-11.824-1.226-.09-11.887a.95.95 0 00-1.586-.7l-4.191 3.805a.955.955 0 00-.309.707l.098 12.739c.004.484.375.89.852.937zm0 0" />
      </g>
    </g>
  </g>
  <g clip-path="url(#prefix__bt)">
    <g clip-path="url(#prefix__bu)">
      <g clip-path="url(#prefix__bv)">
        <path fill="#38b6ff"
          d="M75.379 84.59l11.808 4.773c.254.098.532.09.77-.027l5.082-2.5a.95.95 0 00.527-.883.958.958 0 00-.597-.848l-11.02-4.453 3.203-11.445a.946.946 0 00-.304-.988.943.943 0 00-1.024-.125l-5.082 2.496a.974.974 0 00-.492.59l-3.434 12.27a.957.957 0 00.563 1.14zm0 0" />
      </g>
    </g>
  </g>
  <g clip-path="url(#prefix__bw)">
    <g clip-path="url(#prefix__bx)">
      <g clip-path="url(#prefix__by)">
        <path fill="#38b6ff"
          d="M86.387 79.176l11.812 4.773c.25.102.528.094.77-.027l5.082-2.496a.945.945 0 00.523-.887.945.945 0 00-.594-.844l-11.02-4.457 3.204-11.445a.958.958 0 00-.305-.988.952.952 0 00-1.023-.125l-5.082 2.5a.94.94 0 00-.492.59l-3.434 12.265a.953.953 0 00.559 1.14zm0 0" />
      </g>
    </g>
  </g>
  <g clip-path="url(#prefix__bz)">
    <path fill="#38b6ff"
      d="M118.215 68.148l8.492 9.493a.946.946 0 00.703.316h5.664a.95.95 0 00.863-.562.956.956 0 00-.164-1.02l-7.921-8.86 7.921-8.859a.95.95 0 00-.7-1.586h-5.663a.971.971 0 00-.703.313l-8.492 9.496c-.32.36-.32.91 0 1.27zm0 0" />
  </g>
  <g clip-path="url(#prefix__bA)">
    <path fill="#38b6ff"
      d="M130.484 68.148l8.493 9.493a.94.94 0 00.703.316h5.66a.947.947 0 00.703-1.582l-7.926-8.86 7.926-8.859a.955.955 0 00.16-1.023.94.94 0 00-.863-.563h-5.66c-.27 0-.52.117-.703.313l-8.493 9.496a.95.95 0 000 1.27zm0 0" />
  </g>
  <g clip-path="url(#prefix__bB)">
    <g clip-path="url(#prefix__bC)">
      <g clip-path="url(#prefix__bD)">
        <path fill="#38b6ff"
          d="M154.75 67.309l8.207 9.742a.947.947 0 00.691.34l5.66.168a.948.948 0 00.75-1.563l-7.656-9.094 8.188-8.613a.953.953 0 00.191-1.02.934.934 0 00-.844-.585l-5.66-.172a.955.955 0 00-.71.293l-8.778 9.234a.96.96 0 00-.039 1.27zm0 0" />
      </g>
    </g>
  </g>
  <g clip-path="url(#prefix__bE)">
    <g clip-path="url(#prefix__bF)">
      <g clip-path="url(#prefix__bG)">
        <path fill="#38b6ff"
          d="M167.016 67.676l8.203 9.746a.936.936 0 00.691.336l5.66.172a.948.948 0 00.75-1.563l-7.656-9.094 8.188-8.617a.946.946 0 00.191-1.015.944.944 0 00-.844-.59l-5.66-.172a.955.955 0 00-.71.293l-8.778 9.234a.955.955 0 00-.035 1.27zm0 0" />
      </g>
    </g>
  </g>
  <g clip-path="url(#prefix__bH)">
    <g clip-path="url(#prefix__bI)">
      <g clip-path="url(#prefix__bJ)">
        <path fill="#38b6ff"
          d="M266.402 67.309l8.207 9.742a.947.947 0 00.692.34l5.66.168a.948.948 0 00.75-1.563l-7.656-9.094 8.187-8.613a.953.953 0 00.192-1.02.934.934 0 00-.844-.585l-5.66-.172a.955.955 0 00-.711.293l-8.778 9.234a.96.96 0 00-.039 1.27zm0 0" />
      </g>
    </g>
  </g>
  <g clip-path="url(#prefix__bK)">
    <g clip-path="url(#prefix__bL)">
      <g clip-path="url(#prefix__bM)">
        <path fill="#38b6ff"
          d="M278.668 67.676l8.203 9.746a.936.936 0 00.692.336l5.66.172a.948.948 0 00.75-1.563l-7.657-9.094 8.188-8.617a.946.946 0 00.191-1.015.944.944 0 00-.843-.59l-5.66-.172a.955.955 0 00-.712.293l-8.777 9.234a.955.955 0 00-.035 1.27zm0 0" />
      </g>
    </g>
  </g>
  <g clip-path="url(#prefix__bN)">
    <g clip-path="url(#prefix__bO)">
      <g clip-path="url(#prefix__bP)">
        <path fill="#38b6ff"
          d="M229.277 67.309l8.207 9.742a.947.947 0 00.692.34l5.66.168a.948.948 0 00.75-1.563l-7.656-9.094 8.187-8.613a.953.953 0 00.192-1.02.934.934 0 00-.844-.585l-5.66-.172a.955.955 0 00-.711.293l-8.778 9.234a.96.96 0 00-.039 1.27zm0 0" />
      </g>
    </g>
  </g>
  <g clip-path="url(#prefix__bQ)">
    <g clip-path="url(#prefix__bR)">
      <g clip-path="url(#prefix__bS)">
        <path fill="#38b6ff"
          d="M241.543 67.676l8.203 9.746a.936.936 0 00.691.336l5.66.172a.948.948 0 00.75-1.563l-7.656-9.094 8.188-8.617a.946.946 0 00.191-1.015.944.944 0 00-.843-.59l-5.66-.172a.955.955 0 00-.712.293l-8.777 9.234a.955.955 0 00-.035 1.27zm0 0" />
      </g>
    </g>
  </g>
  <g clip-path="url(#prefix__bT)">
    <g clip-path="url(#prefix__bU)">
      <g clip-path="url(#prefix__bV)">
        <path fill="#5ce1e6"
          d="M192.762 67.309l8.203 9.742a.962.962 0 00.695.34l5.656.168a.95.95 0 00.883-.536.957.957 0 00-.133-1.027l-7.652-9.094 8.188-8.613a.961.961 0 00.191-1.02.939.939 0 00-.848-.585l-5.656-.172a.964.964 0 00-.715.293l-8.773 9.234a.955.955 0 00-.04 1.27zm0 0" />
      </g>
    </g>
  </g>
  <g clip-path="url(#prefix__bW)">
    <g clip-path="url(#prefix__bX)">
      <g clip-path="url(#prefix__bY)">
        <path fill="#5ce1e6"
          d="M205.023 67.676l8.207 9.746a.93.93 0 00.692.336l5.66.172a.948.948 0 00.75-1.563l-7.656-9.094 8.187-8.617a.946.946 0 00.192-1.015.944.944 0 00-.844-.59l-5.66-.172a.955.955 0 00-.711.293l-8.778 9.234a.96.96 0 00-.039 1.27zm0 0" />
      </g>
    </g>
  </g>
</svg>