<svg xmlns="http://www.w3.org/2000/svg" xmlns:xlink="http://www.w3.org/1999/xlink" width="450" zoomAndPan="magnify" viewBox="0 0 337.5 374.999991" height="500" preserveAspectRatio="xMidYMid meet" version="1.0"><defs><clipPath id="814f1fe52b"><path d="M 0 52.777344 L 303.75 52.777344 L 303.75 323 L 0 323 Z M 0 52.777344 " clip-rule="nonzero"/></clipPath><clipPath id="6a3f18a3d1"><path d="M 7.917969 142.824219 C 3.136719 156.667969 0 172.40625 0 187.851562 C 0 203.296875 2.6875 218.15625 7.46875 231.855469 C 7.621094 232.144531 7.621094 232.4375 7.769531 232.730469 C 26.890625 284.164062 77.390625 322.050781 135.65625 322.777344 L 303.75 322.777344 L 303.75 52.777344 L 135.78125 52.777344 C 77.09375 53.507812 26.59375 90.808594 7.917969 142.824219 " clip-rule="nonzero"/></clipPath><clipPath id="6f69835030"><path d="M 0 52.777344 L 303.75 52.777344 L 303.75 322.777344 L 0 322.777344 Z M 0 52.777344 " clip-rule="nonzero"/></clipPath><clipPath id="5bf4d11182"><path d="M 7.917969 142.824219 C 3.136719 156.667969 0 172.40625 0 187.851562 C 0 203.296875 2.6875 218.15625 7.46875 231.855469 C 7.621094 232.144531 7.621094 232.4375 7.769531 232.730469 C 26.890625 284.164062 77.390625 322.050781 135.65625 322.777344 L 303.75 322.777344 L 303.75 52.777344 L 135.78125 52.777344 C 77.09375 53.507812 26.59375 90.808594 7.917969 142.824219 " clip-rule="nonzero"/></clipPath><clipPath id="e45c909442"><path d="M 34 77 L 251 77 L 251 294 L 34 294 Z M 34 77 " clip-rule="nonzero"/></clipPath><clipPath id="730343de51"><path d="M -3.832031 143.175781 L 185.652344 38.886719 L 289.941406 228.371094 L 100.457031 332.660156 Z M -3.832031 143.175781 " clip-rule="nonzero"/></clipPath><clipPath id="de9038e6f4"><path d="M 90.78125 91.101562 C 38.527344 119.863281 19.480469 185.539062 48.242188 237.792969 C 77.003906 290.046875 142.679688 309.09375 194.933594 280.332031 C 247.1875 251.574219 266.234375 185.898438 237.472656 133.644531 C 208.714844 81.386719 143.039062 62.339844 90.78125 91.101562 " clip-rule="nonzero"/></clipPath><clipPath id="1864a962c9"><path d="M 34 77 L 251 77 L 251 294 L 34 294 Z M 34 77 " clip-rule="nonzero"/></clipPath><clipPath id="04e1137c10"><path d="M -3.832031 143.175781 L 185.398438 39.027344 L 289.546875 228.257812 L 100.316406 332.410156 Z M -3.832031 143.175781 " clip-rule="nonzero"/></clipPath><clipPath id="8d4f2cff36"><path d="M -3.832031 143.175781 L 188.074219 37.554688 L 293.699219 229.460938 L 101.789062 335.085938 Z M -3.832031 143.175781 " clip-rule="nonzero"/></clipPath><clipPath id="68f53b961a"><path d="M 90.78125 91.101562 C 38.527344 119.863281 19.480469 185.539062 48.242188 237.792969 C 77.003906 290.046875 142.679688 309.09375 194.933594 280.332031 C 247.1875 251.574219 266.234375 185.898438 237.472656 133.644531 C 208.714844 81.386719 143.039062 62.339844 90.78125 91.101562 " clip-rule="nonzero"/></clipPath><clipPath id="8e816271d5"><path d="M 100 124 L 132 124 L 132 161 L 100 161 Z M 100 124 " clip-rule="nonzero"/></clipPath><clipPath id="9532418cdf"><path d="M 100.132812 133.09375 L 115.820312 123.9375 L 131.914062 151.507812 L 116.226562 160.664062 Z M 100.132812 133.09375 " clip-rule="nonzero"/></clipPath><clipPath id="ffd5c38aa8"><path d="M 100.132812 133.09375 L 115.480469 124.136719 L 131.472656 151.539062 L 116.128906 160.496094 Z M 100.132812 133.09375 " clip-rule="nonzero"/></clipPath><clipPath id="fe89a4612e"><path d="M 173 175 L 205 175 L 205 194 L 173 194 Z M 173 175 " clip-rule="nonzero"/></clipPath><clipPath id="5cc4dc5415"><path d="M 173.09375 193.371094 L 173.207031 175.207031 L 205.132812 175.410156 L 205.015625 193.574219 Z M 173.09375 193.371094 " clip-rule="nonzero"/></clipPath><clipPath id="ed0f58eedc"><path d="M 173.09375 193.371094 L 173.203125 175.605469 L 204.933594 175.804688 L 204.820312 193.570312 Z M 173.09375 193.371094 " clip-rule="nonzero"/></clipPath><clipPath id="9d9053dd2a"><path d="M 115 142 L 189 142 L 189 227 L 115 227 Z M 115 142 " clip-rule="nonzero"/></clipPath><clipPath id="bf89aa75de"><path d="M 152.375 248.046875 L 78.589844 205.453125 L 115.574219 141.375 L 189.363281 183.964844 Z M 152.375 248.046875 " clip-rule="nonzero"/></clipPath><clipPath id="4888b80373"><path d="M 115.765625 226.914062 L 115.78125 142.320312 L 189.007812 184.585938 L 115.765625 226.914062 " clip-rule="nonzero"/></clipPath><clipPath id="2cda6491da"><path d="M 104 201 L 136 201 L 136 239 L 104 239 Z M 104 201 " clip-rule="nonzero"/></clipPath><clipPath id="5086a80445"><path d="M 119.515625 238.191406 L 103.785156 229.113281 L 119.746094 201.464844 L 135.476562 210.542969 Z M 119.515625 238.191406 " clip-rule="nonzero"/></clipPath><clipPath id="d739aaaabb"><path d="M 119.515625 238.191406 L 104.128906 229.3125 L 119.992188 201.832031 L 135.378906 210.714844 Z M 119.515625 238.191406 " clip-rule="nonzero"/></clipPath><clipPath id="e99c634e46"><path d="M 73 223 L 130 223 L 130 280 L 73 280 Z M 73 223 " clip-rule="nonzero"/></clipPath><clipPath id="c33c705aed"><path d="M 139.757812 242.246094 L 110.851562 289.769531 L 63.332031 260.859375 L 92.238281 213.339844 Z M 139.757812 242.246094 " clip-rule="nonzero"/></clipPath><clipPath id="a2a0672c71"><path d="M 125.304688 266.007812 C 133.289062 252.886719 129.121094 235.777344 116 227.792969 C 102.875 219.8125 85.765625 223.976562 77.785156 237.101562 C 69.800781 250.222656 73.96875 267.332031 87.089844 275.3125 C 100.214844 283.296875 117.320312 279.128906 125.304688 266.007812 " clip-rule="nonzero"/></clipPath><clipPath id="110cc34852"><path d="M 73 223 L 130 223 L 130 280 L 73 280 Z M 73 223 " clip-rule="nonzero"/></clipPath><clipPath id="dd6b5cdb4a"><path d="M 139.757812 242.246094 L 110.914062 289.664062 L 63.5 260.820312 L 92.34375 213.402344 Z M 139.757812 242.246094 " clip-rule="nonzero"/></clipPath><clipPath id="b59968a0ed"><path d="M 139.757812 242.246094 L 110.914062 289.664062 L 63.5 260.820312 L 92.34375 213.402344 Z M 139.757812 242.246094 " clip-rule="nonzero"/></clipPath><clipPath id="522a86325e"><path d="M 125.335938 265.957031 C 133.300781 252.863281 129.144531 235.789062 116.050781 227.824219 C 102.957031 219.859375 85.886719 224.019531 77.921875 237.113281 C 69.957031 250.207031 74.113281 267.277344 87.207031 275.242188 C 100.300781 283.207031 117.371094 279.050781 125.335938 265.957031 " clip-rule="nonzero"/></clipPath><clipPath id="554a80ae08"><path d="M 191 156 L 247 156 L 247 213 L 191 213 Z M 191 156 " clip-rule="nonzero"/></clipPath><clipPath id="77538af9ad"><path d="M 246.792969 212.414062 L 191.171875 212.398438 L 191.1875 156.777344 L 246.808594 156.792969 Z M 246.792969 212.414062 " clip-rule="nonzero"/></clipPath><clipPath id="c1831e06d3"><path d="M 218.984375 212.40625 C 234.34375 212.410156 246.796875 199.964844 246.800781 184.605469 C 246.804688 169.246094 234.359375 156.789062 219 156.785156 C 203.640625 156.78125 191.183594 169.230469 191.179688 184.589844 C 191.175781 199.949219 203.625 212.402344 218.984375 212.40625 " clip-rule="nonzero"/></clipPath><clipPath id="259c020323"><path d="M 191 156 L 247 156 L 247 213 L 191 213 Z M 191 156 " clip-rule="nonzero"/></clipPath><clipPath id="dc91ee8826"><path d="M 246.792969 212.414062 L 191.292969 212.398438 L 191.308594 156.898438 L 246.808594 156.914062 Z M 246.792969 212.414062 " clip-rule="nonzero"/></clipPath><clipPath id="06e013970c"><path d="M 246.792969 212.414062 L 191.292969 212.398438 L 191.308594 156.898438 L 246.808594 156.914062 Z M 246.792969 212.414062 " clip-rule="nonzero"/></clipPath><clipPath id="36c40038fe"><path d="M 219.042969 212.40625 C 234.371094 212.410156 246.796875 199.992188 246.800781 184.664062 C 246.804688 169.339844 234.386719 156.910156 219.058594 156.90625 C 203.734375 156.902344 191.304688 169.324219 191.300781 184.648438 C 191.296875 199.976562 203.71875 212.402344 219.042969 212.40625 " clip-rule="nonzero"/></clipPath><clipPath id="f393919d01"><path d="M 75 92 L 131 92 L 131 148 L 75 148 Z M 75 92 " clip-rule="nonzero"/></clipPath><clipPath id="46aa82c8fb"><path d="M 141.234375 110.554688 L 112.324219 158.074219 L 64.804688 129.164062 L 93.714844 81.644531 Z M 141.234375 110.554688 " clip-rule="nonzero"/></clipPath><clipPath id="82c13a9648"><path d="M 126.78125 134.3125 C 134.761719 121.191406 130.597656 104.082031 117.472656 96.097656 C 104.351562 88.117188 87.242188 92.28125 79.257812 105.40625 C 71.277344 118.527344 75.445312 135.636719 88.566406 143.621094 C 101.6875 151.601562 118.796875 147.4375 126.78125 134.3125 " clip-rule="nonzero"/></clipPath><clipPath id="03a92c0b23"><path d="M 75 92 L 131 92 L 131 148 L 75 148 Z M 75 92 " clip-rule="nonzero"/></clipPath><clipPath id="05436362ca"><path d="M 141.234375 110.554688 L 112.390625 157.96875 L 64.972656 129.125 L 93.816406 81.707031 Z M 141.234375 110.554688 " clip-rule="nonzero"/></clipPath><clipPath id="56af6b8e95"><path d="M 141.234375 110.554688 L 112.390625 157.96875 L 64.972656 129.125 L 93.816406 81.707031 Z M 141.234375 110.554688 " clip-rule="nonzero"/></clipPath><clipPath id="65e963bb76"><path d="M 126.8125 134.261719 C 134.777344 121.167969 130.621094 104.097656 117.527344 96.132812 C 104.433594 88.164062 87.359375 92.324219 79.394531 105.417969 C 71.429688 118.511719 75.589844 135.582031 88.679688 143.546875 C 101.773438 151.511719 118.847656 147.355469 126.8125 134.261719 " clip-rule="nonzero"/></clipPath><clipPath id="ff25458cd6"><path d="M 94 244 L 109 244 L 109 259 L 94 259 Z M 94 244 " clip-rule="nonzero"/></clipPath><clipPath id="e2dc87b464"><path d="M 104.105469 261.085938 L 92.015625 254.109375 L 98.992188 242.019531 L 111.082031 248.996094 Z M 104.105469 261.085938 " clip-rule="nonzero"/></clipPath><clipPath id="d3dc4e6bc7"><path d="M 98.058594 257.597656 C 101.398438 259.523438 105.667969 258.378906 107.59375 255.042969 C 109.519531 251.703125 108.378906 247.433594 105.039062 245.507812 C 101.699219 243.582031 97.429688 244.722656 95.503906 248.0625 C 93.578125 251.402344 94.722656 255.671875 98.058594 257.597656 " clip-rule="nonzero"/></clipPath><clipPath id="65cc159281"><path d="M 212 177 L 226 177 L 226 192 L 212 192 Z M 212 177 " clip-rule="nonzero"/></clipPath><clipPath id="797ea8e83d"><path d="M 212.015625 191.574219 L 212.019531 177.617188 L 225.976562 177.621094 L 225.972656 191.578125 Z M 212.015625 191.574219 " clip-rule="nonzero"/></clipPath><clipPath id="ebaa3dda42"><path d="M 212.015625 184.597656 C 212.015625 188.449219 215.140625 191.578125 218.996094 191.578125 C 222.847656 191.578125 225.976562 188.453125 225.976562 184.601562 C 225.976562 180.746094 222.851562 177.621094 219 177.617188 C 215.144531 177.617188 212.019531 180.742188 212.015625 184.597656 " clip-rule="nonzero"/></clipPath><clipPath id="c0eeb927c2"><path d="M 95 113 L 110 113 L 110 128 L 95 128 Z M 95 113 " clip-rule="nonzero"/></clipPath><clipPath id="ef680209b4"><path d="M 104.691406 129.929688 L 92.601562 122.949219 L 99.578125 110.859375 L 111.667969 117.839844 Z M 104.691406 129.929688 " clip-rule="nonzero"/></clipPath><clipPath id="ca7d06e3ec"><path d="M 98.644531 126.441406 C 101.984375 128.367188 106.253906 127.222656 108.179688 123.882812 C 110.109375 120.546875 108.964844 116.277344 105.625 114.351562 C 102.285156 112.421875 98.019531 113.566406 96.089844 116.90625 C 94.164062 120.246094 95.308594 124.511719 98.644531 126.441406 " clip-rule="nonzero"/></clipPath><clipPath id="9c34fd1a75"><path d="M 69 160 L 83 160 L 83 208 L 69 208 Z M 69 160 " clip-rule="nonzero"/></clipPath><clipPath id="b28bdb833f"><path d="M 80.695312 159.890625 L 84.867188 206.957031 L 71.421875 208.148438 L 67.25 161.082031 Z M 80.695312 159.890625 " clip-rule="nonzero"/></clipPath><clipPath id="2dbc4a7f1e"><path d="M 80.695312 159.890625 L 84.867188 206.957031 L 71.421875 208.148438 L 67.25 161.082031 Z M 80.695312 159.890625 " clip-rule="nonzero"/></clipPath><clipPath id="15f4149e00"><path d="M 80.695312 159.890625 L 84.867188 206.957031 L 71.421875 208.148438 L 67.25 161.082031 Z M 80.695312 159.890625 " clip-rule="nonzero"/></clipPath><clipPath id="b72400ce77"><path d="M 75 167 L 76 167 L 76 168 L 75 168 Z M 75 167 " clip-rule="nonzero"/></clipPath><clipPath id="3b515db6bc"><path d="M 80.695312 159.890625 L 84.867188 206.957031 L 71.421875 208.148438 L 67.25 161.082031 Z M 80.695312 159.890625 " clip-rule="nonzero"/></clipPath><clipPath id="edddb761bd"><path d="M 80.695312 159.890625 L 84.867188 206.957031 L 71.421875 208.148438 L 67.25 161.082031 Z M 80.695312 159.890625 " clip-rule="nonzero"/></clipPath><clipPath id="df54baf462"><path d="M 80.695312 159.890625 L 84.867188 206.957031 L 71.421875 208.148438 L 67.25 161.082031 Z M 80.695312 159.890625 " clip-rule="nonzero"/></clipPath><clipPath id="e89d122e8b"><path d="M 152 112 L 192 112 L 192 144 L 152 144 Z M 152 112 " clip-rule="nonzero"/></clipPath><clipPath id="75262655aa"><path d="M 190.6875 143.90625 L 149.800781 120.226562 L 156.566406 108.546875 L 197.453125 132.226562 Z M 190.6875 143.90625 " clip-rule="nonzero"/></clipPath><clipPath id="6ed2191b56"><path d="M 190.6875 143.90625 L 149.800781 120.226562 L 156.566406 108.546875 L 197.453125 132.226562 Z M 190.6875 143.90625 " clip-rule="nonzero"/></clipPath><clipPath id="78274b44d1"><path d="M 190.6875 143.90625 L 149.800781 120.226562 L 156.566406 108.546875 L 197.453125 132.226562 Z M 190.6875 143.90625 " clip-rule="nonzero"/></clipPath><clipPath id="3eb388aee7"><path d="M 187 134 L 188 134 L 188 135 L 187 135 Z M 187 134 " clip-rule="nonzero"/></clipPath><clipPath id="797765e2a3"><path d="M 190.6875 143.90625 L 149.800781 120.226562 L 156.566406 108.546875 L 197.453125 132.226562 Z M 190.6875 143.90625 " clip-rule="nonzero"/></clipPath><clipPath id="e614d2a21d"><path d="M 190.6875 143.90625 L 149.800781 120.226562 L 156.566406 108.546875 L 197.453125 132.226562 Z M 190.6875 143.90625 " clip-rule="nonzero"/></clipPath><clipPath id="41b13a845b"><path d="M 190.6875 143.90625 L 149.800781 120.226562 L 156.566406 108.546875 L 197.453125 132.226562 Z M 190.6875 143.90625 " clip-rule="nonzero"/></clipPath><clipPath id="186a75e287"><path d="M 152 229 L 197 229 L 197 251 L 152 251 Z M 152 229 " clip-rule="nonzero"/></clipPath><clipPath id="959d341fa0"><path d="M 151.566406 245.847656 L 194.332031 225.75 L 200.074219 237.96875 L 157.3125 258.066406 Z M 151.566406 245.847656 " clip-rule="nonzero"/></clipPath><clipPath id="d3cae1988b"><path d="M 151.566406 245.847656 L 194.332031 225.75 L 200.074219 237.96875 L 157.3125 258.066406 Z M 151.566406 245.847656 " clip-rule="nonzero"/></clipPath><clipPath id="eeaa963162"><path d="M 151.566406 245.847656 L 194.332031 225.75 L 200.074219 237.96875 L 157.3125 258.066406 Z M 151.566406 245.847656 " clip-rule="nonzero"/></clipPath><clipPath id="00fd26c6e7"><path d="M 160 248 L 161 248 L 161 249 L 160 249 Z M 160 248 " clip-rule="nonzero"/></clipPath><clipPath id="b4512bbb39"><path d="M 151.566406 245.847656 L 194.332031 225.75 L 200.074219 237.96875 L 157.3125 258.066406 Z M 151.566406 245.847656 " clip-rule="nonzero"/></clipPath><clipPath id="a12b9bd625"><path d="M 151.566406 245.847656 L 194.332031 225.75 L 200.074219 237.96875 L 157.3125 258.066406 Z M 151.566406 245.847656 " clip-rule="nonzero"/></clipPath><clipPath id="aabea3ee77"><path d="M 151.566406 245.847656 L 194.332031 225.75 L 200.074219 237.96875 L 157.3125 258.066406 Z M 151.566406 245.847656 " clip-rule="nonzero"/></clipPath><clipPath id="452727e001"><path d="M 278 297.128906 L 295 297.128906 L 295 318.128906 L 278 318.128906 Z M 278 297.128906 " clip-rule="nonzero"/></clipPath><clipPath id="87e16d7772"><path d="M 266.625 297.128906 L 283 297.128906 L 283 318.128906 L 266.625 318.128906 Z M 266.625 297.128906 " clip-rule="nonzero"/></clipPath><clipPath id="4b19bc85e2"><path d="M 241 297.128906 L 258 297.128906 L 258 318.128906 L 241 318.128906 Z M 241 297.128906 " clip-rule="nonzero"/></clipPath><clipPath id="067936b75e"><path d="M 229.5 297.128906 L 246 297.128906 L 246 318.128906 L 229.5 318.128906 Z M 229.5 297.128906 " clip-rule="nonzero"/></clipPath><clipPath id="f5ff1a14e5"><path d="M 204 297.128906 L 220.875 297.128906 L 220.875 318.128906 L 204 318.128906 Z M 204 297.128906 " clip-rule="nonzero"/></clipPath><clipPath id="f2f8bc3441"><path d="M 192.375 297.128906 L 209 297.128906 L 209 318.128906 L 192.375 318.128906 Z M 192.375 297.128906 " clip-rule="nonzero"/></clipPath><clipPath id="7be827d3f9"><path d="M 167 297.128906 L 183.75 297.128906 L 183.75 318.128906 L 167 318.128906 Z M 167 297.128906 " clip-rule="nonzero"/></clipPath><clipPath id="b43fcb8ae4"><path d="M 155.25 297.128906 L 172 297.128906 L 172 318.128906 L 155.25 318.128906 Z M 155.25 297.128906 " clip-rule="nonzero"/></clipPath><clipPath id="66e7bb2186"><path d="M 130 297 L 147 297 L 147 319 L 130 319 Z M 130 297 " clip-rule="nonzero"/></clipPath><clipPath id="edbc3d48e6"><path d="M 117.945312 297.378906 L 146.441406 296.875 L 146.8125 317.871094 L 118.316406 318.375 Z M 117.945312 297.378906 " clip-rule="nonzero"/></clipPath><clipPath id="7e7d5718db"><path d="M 117.945312 297.378906 L 146.441406 296.875 L 146.8125 317.871094 L 118.316406 318.375 Z M 117.945312 297.378906 " clip-rule="nonzero"/></clipPath><clipPath id="3f4da29875"><path d="M 117 297 L 135 297 L 135 319 L 117 319 Z M 117 297 " clip-rule="nonzero"/></clipPath><clipPath id="ce2198b0a0"><path d="M 117.945312 297.378906 L 146.441406 296.875 L 146.8125 317.871094 L 118.316406 318.375 Z M 117.945312 297.378906 " clip-rule="nonzero"/></clipPath><clipPath id="a457b104c5"><path d="M 117.945312 297.378906 L 146.441406 296.875 L 146.8125 317.871094 L 118.316406 318.375 Z M 117.945312 297.378906 " clip-rule="nonzero"/></clipPath><clipPath id="4bf0497b81"><path d="M 80 284 L 100 284 L 100 306 L 80 306 Z M 80 284 " clip-rule="nonzero"/></clipPath><clipPath id="f7dcb0a577"><path d="M 81.105469 277.734375 L 105.09375 293.121094 L 93.757812 310.796875 L 69.765625 295.410156 Z M 81.105469 277.734375 " clip-rule="nonzero"/></clipPath><clipPath id="e31ad6777d"><path d="M 81.105469 277.734375 L 105.09375 293.121094 L 93.757812 310.796875 L 69.765625 295.410156 Z M 81.105469 277.734375 " clip-rule="nonzero"/></clipPath><clipPath id="94258b753b"><path d="M 70 278 L 90 278 L 90 300 L 70 300 Z M 70 278 " clip-rule="nonzero"/></clipPath><clipPath id="5d0d26d812"><path d="M 81.105469 277.734375 L 105.09375 293.121094 L 93.757812 310.796875 L 69.765625 295.410156 Z M 81.105469 277.734375 " clip-rule="nonzero"/></clipPath><clipPath id="5fdf49679d"><path d="M 81.105469 277.734375 L 105.09375 293.121094 L 93.757812 310.796875 L 69.765625 295.410156 Z M 81.105469 277.734375 " clip-rule="nonzero"/></clipPath><clipPath id="866d8150d9"><path d="M 42 264 L 62 264 L 62 285 L 42 285 Z M 42 264 " clip-rule="nonzero"/></clipPath><clipPath id="29eebec59e"><path d="M 48.058594 255.742188 L 68.585938 275.511719 L 54.019531 290.636719 L 33.492188 270.867188 Z M 48.058594 255.742188 " clip-rule="nonzero"/></clipPath><clipPath id="b16f3de466"><path d="M 48.058594 255.742188 L 68.585938 275.511719 L 54.019531 290.636719 L 33.492188 270.867188 Z M 48.058594 255.742188 " clip-rule="nonzero"/></clipPath><clipPath id="00d928b6df"><path d="M 33 256 L 54 256 L 54 276 L 33 276 Z M 33 256 " clip-rule="nonzero"/></clipPath><clipPath id="75caf9066b"><path d="M 48.058594 255.742188 L 68.585938 275.511719 L 54.019531 290.636719 L 33.492188 270.867188 Z M 48.058594 255.742188 " clip-rule="nonzero"/></clipPath><clipPath id="aac01ebd67"><path d="M 48.058594 255.742188 L 68.585938 275.511719 L 54.019531 290.636719 L 33.492188 270.867188 Z M 48.058594 255.742188 " clip-rule="nonzero"/></clipPath><clipPath id="194fd99266"><path d="M 19 232 L 41 232 L 41 251 L 19 251 Z M 19 232 " clip-rule="nonzero"/></clipPath><clipPath id="1fa6ef450d"><path d="M 31.21875 221.023438 L 45.539062 245.664062 L 27.386719 256.21875 L 13.0625 231.578125 Z M 31.21875 221.023438 " clip-rule="nonzero"/></clipPath><clipPath id="6001406294"><path d="M 31.21875 221.023438 L 45.539062 245.664062 L 27.386719 256.21875 L 13.0625 231.578125 Z M 31.21875 221.023438 " clip-rule="nonzero"/></clipPath><clipPath id="364f3d3b28"><path d="M 13 221 L 35 221 L 35 241 L 13 241 Z M 13 221 " clip-rule="nonzero"/></clipPath><clipPath id="0a736a82a6"><path d="M 31.21875 221.023438 L 45.539062 245.664062 L 27.386719 256.21875 L 13.0625 231.578125 Z M 31.21875 221.023438 " clip-rule="nonzero"/></clipPath><clipPath id="19f9b81c11"><path d="M 31.21875 221.023438 L 45.539062 245.664062 L 27.386719 256.21875 L 13.0625 231.578125 Z M 31.21875 221.023438 " clip-rule="nonzero"/></clipPath><clipPath id="fb20d05e2d"><path d="M 8.878906 184 L 29.878906 184 L 29.878906 200.4375 L 8.878906 200.4375 Z M 8.878906 184 " clip-rule="nonzero"/></clipPath><clipPath id="9ee2984404"><path d="M 8.878906 171.9375 L 29.878906 171.9375 L 29.878906 188 L 8.878906 188 Z M 8.878906 171.9375 " clip-rule="nonzero"/></clipPath><clipPath id="ccd372f0c4"><path d="M 18 126 L 39 126 L 39 146 L 18 146 Z M 18 126 " clip-rule="nonzero"/></clipPath><clipPath id="5539a3a110"><path d="M 46.378906 127.648438 L 30.144531 151.074219 L 12.882812 139.109375 L 29.117188 115.6875 Z M 46.378906 127.648438 " clip-rule="nonzero"/></clipPath><clipPath id="ef961f6f1e"><path d="M 46.378906 127.648438 L 30.144531 151.074219 L 12.882812 139.109375 L 29.117188 115.6875 Z M 46.378906 127.648438 " clip-rule="nonzero"/></clipPath><clipPath id="d3283ff989"><path d="M 25 116 L 46 116 L 46 136 L 25 136 Z M 25 116 " clip-rule="nonzero"/></clipPath><clipPath id="b372175038"><path d="M 46.378906 127.648438 L 30.144531 151.074219 L 12.882812 139.109375 L 29.117188 115.6875 Z M 46.378906 127.648438 " clip-rule="nonzero"/></clipPath><clipPath id="f86d82c663"><path d="M 46.378906 127.648438 L 30.144531 151.074219 L 12.882812 139.109375 L 29.117188 115.6875 Z M 46.378906 127.648438 " clip-rule="nonzero"/></clipPath><clipPath id="c7a1e779d8"><path d="M 44 90 L 64 90 L 64 111 L 44 111 Z M 44 90 " clip-rule="nonzero"/></clipPath><clipPath id="062ec36cb3"><path d="M 72.519531 97.332031 L 51.425781 116.5 L 37.304688 100.957031 L 58.398438 81.789062 Z M 72.519531 97.332031 " clip-rule="nonzero"/></clipPath><clipPath id="655a76d25e"><path d="M 72.519531 97.332031 L 51.425781 116.5 L 37.304688 100.957031 L 58.398438 81.789062 Z M 72.519531 97.332031 " clip-rule="nonzero"/></clipPath><clipPath id="5d3c4d5bb4"><path d="M 53 82 L 73 82 L 73 102 L 53 102 Z M 53 82 " clip-rule="nonzero"/></clipPath><clipPath id="4fd253f40d"><path d="M 72.519531 97.332031 L 51.425781 116.5 L 37.304688 100.957031 L 58.398438 81.789062 Z M 72.519531 97.332031 " clip-rule="nonzero"/></clipPath><clipPath id="0afc936bb5"><path d="M 72.519531 97.332031 L 51.425781 116.5 L 37.304688 100.957031 L 58.398438 81.789062 Z M 72.519531 97.332031 " clip-rule="nonzero"/></clipPath><clipPath id="a861569393"><path d="M 74 67 L 94 67 L 94 90 L 74 90 Z M 74 67 " clip-rule="nonzero"/></clipPath><clipPath id="2ddfda9fe4"><path d="M 104.921875 81.058594 L 79.34375 93.632812 L 70.078125 74.785156 L 95.65625 62.214844 Z M 104.921875 81.058594 " clip-rule="nonzero"/></clipPath><clipPath id="b0c0c675e7"><path d="M 104.921875 81.058594 L 79.34375 93.632812 L 70.078125 74.785156 L 95.65625 62.214844 Z M 104.921875 81.058594 " clip-rule="nonzero"/></clipPath><clipPath id="7d89bfbf41"><path d="M 85 62 L 105 62 L 105 85 L 85 85 Z M 85 62 " clip-rule="nonzero"/></clipPath><clipPath id="60144e166f"><path d="M 104.921875 81.058594 L 79.34375 93.632812 L 70.078125 74.785156 L 95.65625 62.214844 Z M 104.921875 81.058594 " clip-rule="nonzero"/></clipPath><clipPath id="711cb8c6a8"><path d="M 104.921875 81.058594 L 79.34375 93.632812 L 70.078125 74.785156 L 95.65625 62.214844 Z M 104.921875 81.058594 " clip-rule="nonzero"/></clipPath><clipPath id="d9216ef1a0"><path d="M 117.785156 57.015625 L 135 57.015625 L 135 78 L 117.785156 78 Z M 117.785156 57.015625 " clip-rule="nonzero"/></clipPath><clipPath id="2d802b1961"><path d="M 130 57.015625 L 146.285156 57.015625 L 146.285156 78 L 130 78 Z M 130 57.015625 " clip-rule="nonzero"/></clipPath><clipPath id="390080e1b6"><path d="M 154 56 L 171 56 L 171 78 L 154 78 Z M 154 56 " clip-rule="nonzero"/></clipPath><clipPath id="4fb4cf0477"><path d="M 182.511719 78.011719 L 154.023438 77.15625 L 154.65625 56.164062 L 183.144531 57.023438 Z M 182.511719 78.011719 " clip-rule="nonzero"/></clipPath><clipPath id="de33a3baa3"><path d="M 182.511719 78.011719 L 154.023438 77.15625 L 154.65625 56.164062 L 183.144531 57.023438 Z M 182.511719 78.011719 " clip-rule="nonzero"/></clipPath><clipPath id="457ee5b568"><path d="M 166 56 L 184 56 L 184 78 L 166 78 Z M 166 56 " clip-rule="nonzero"/></clipPath><clipPath id="b6282b9e46"><path d="M 182.511719 78.011719 L 154.023438 77.15625 L 154.65625 56.164062 L 183.144531 57.023438 Z M 182.511719 78.011719 " clip-rule="nonzero"/></clipPath><clipPath id="ec23397123"><path d="M 182.511719 78.011719 L 154.023438 77.15625 L 154.65625 56.164062 L 183.144531 57.023438 Z M 182.511719 78.011719 " clip-rule="nonzero"/></clipPath><clipPath id="6f25d07504"><path d="M 266 56 L 283 56 L 283 78 L 266 78 Z M 266 56 " clip-rule="nonzero"/></clipPath><clipPath id="1f2c71cd96"><path d="M 294.164062 78.011719 L 265.675781 77.15625 L 266.308594 56.164062 L 294.796875 57.023438 Z M 294.164062 78.011719 " clip-rule="nonzero"/></clipPath><clipPath id="45c5b43b7e"><path d="M 294.164062 78.011719 L 265.675781 77.15625 L 266.308594 56.164062 L 294.796875 57.023438 Z M 294.164062 78.011719 " clip-rule="nonzero"/></clipPath><clipPath id="27914d03af"><path d="M 278 56 L 295 56 L 295 78 L 278 78 Z M 278 56 " clip-rule="nonzero"/></clipPath><clipPath id="dc001cd385"><path d="M 294.164062 78.011719 L 265.675781 77.15625 L 266.308594 56.164062 L 294.796875 57.023438 Z M 294.164062 78.011719 " clip-rule="nonzero"/></clipPath><clipPath id="39efdca040"><path d="M 294.164062 78.011719 L 265.675781 77.15625 L 266.308594 56.164062 L 294.796875 57.023438 Z M 294.164062 78.011719 " clip-rule="nonzero"/></clipPath><clipPath id="fa51539ba3"><path d="M 229 56 L 246 56 L 246 78 L 229 78 Z M 229 56 " clip-rule="nonzero"/></clipPath><clipPath id="0d85061860"><path d="M 257.039062 78.011719 L 228.550781 77.15625 L 229.183594 56.164062 L 257.671875 57.023438 Z M 257.039062 78.011719 " clip-rule="nonzero"/></clipPath><clipPath id="53f01f5326"><path d="M 257.039062 78.011719 L 228.550781 77.15625 L 229.183594 56.164062 L 257.671875 57.023438 Z M 257.039062 78.011719 " clip-rule="nonzero"/></clipPath><clipPath id="0cc6145a6c"><path d="M 241 56 L 258 56 L 258 78 L 241 78 Z M 241 56 " clip-rule="nonzero"/></clipPath><clipPath id="d103e09a38"><path d="M 257.039062 78.011719 L 228.550781 77.15625 L 229.183594 56.164062 L 257.671875 57.023438 Z M 257.039062 78.011719 " clip-rule="nonzero"/></clipPath><clipPath id="17369fb539"><path d="M 257.039062 78.011719 L 228.550781 77.15625 L 229.183594 56.164062 L 257.671875 57.023438 Z M 257.039062 78.011719 " clip-rule="nonzero"/></clipPath><clipPath id="102e29a153"><path d="M 192 56 L 209 56 L 209 78 L 192 78 Z M 192 56 " clip-rule="nonzero"/></clipPath><clipPath id="49c9408d08"><path d="M 220.523438 78.011719 L 192.035156 77.15625 L 192.667969 56.164062 L 221.15625 57.023438 Z M 220.523438 78.011719 " clip-rule="nonzero"/></clipPath><clipPath id="5a7207733f"><path d="M 220.523438 78.011719 L 192.035156 77.15625 L 192.667969 56.164062 L 221.15625 57.023438 Z M 220.523438 78.011719 " clip-rule="nonzero"/></clipPath><clipPath id="5a32957193"><path d="M 204 56 L 222 56 L 222 78 L 204 78 Z M 204 56 " clip-rule="nonzero"/></clipPath><clipPath id="260014c392"><path d="M 220.523438 78.011719 L 192.035156 77.15625 L 192.667969 56.164062 L 221.15625 57.023438 Z M 220.523438 78.011719 " clip-rule="nonzero"/></clipPath><clipPath id="b5e99c0017"><path d="M 220.523438 78.011719 L 192.035156 77.15625 L 192.667969 56.164062 L 221.15625 57.023438 Z M 220.523438 78.011719 " clip-rule="nonzero"/></clipPath></defs><g clip-path="url(#814f1fe52b)"><g clip-path="url(#6a3f18a3d1)"><path fill="#737373" d="M 303.75 52.777344 L 303.75 323.039062 L -0.132812 323.039062 L -0.132812 52.777344 Z M 303.75 52.777344 " fill-opacity="1" fill-rule="nonzero"/></g></g><g clip-path="url(#6f69835030)"><g clip-path="url(#5bf4d11182)"><path stroke-linecap="butt" transform="matrix(0.000000000000000046, 0.75, -0.75, 0.000000000000000046, 303.749959, 52.777335)" fill="none" stroke-linejoin="miter" d="M 120.062517 394.442673 C 138.520852 400.817674 159.505228 404.999965 180.098979 404.999965 C 200.69273 404.999965 220.505231 401.416632 238.770857 395.041632 C 239.156274 394.838507 239.546899 394.838507 239.937524 394.64059 C 308.515652 369.145797 359.03128 301.81246 360.00003 224.124956 L 360.00003 -0.0000552182 L 0.0000113526 -0.0000552182 L 0.0000113526 223.95829 C 0.97397 302.208294 50.708347 369.54163 120.062517 394.442673 " stroke="#000000" stroke-width="4" stroke-opacity="1" stroke-miterlimit="4"/></g></g><g clip-path="url(#e45c909442)"><g clip-path="url(#730343de51)"><g clip-path="url(#de9038e6f4)"><path fill="#a6a6a6" d="M -3.832031 143.175781 L 185.167969 39.15625 L 289.1875 228.15625 L 100.1875 332.175781 Z M -3.832031 143.175781 " fill-opacity="1" fill-rule="nonzero"/></g></g></g><g clip-path="url(#1864a962c9)"><g clip-path="url(#04e1137c10)"><g clip-path="url(#8d4f2cff36)"><g clip-path="url(#68f53b961a)"><path stroke-linecap="butt" transform="matrix(0.657055, -0.361633, 0.361633, 0.657055, -3.833443, 143.177137)" fill="none" stroke-linejoin="miter" d="M 143.998828 -0.00132475 C 64.470121 0.000999384 -0.00166668 64.471487 0.000657453 144.000195 C 0.00298159 223.528902 64.47347 288.00069 144.002177 287.998366 C 223.528373 288.000604 288.000161 223.530117 287.997837 144.001409 C 288.002587 64.47065 223.532099 -0.00113755 143.998828 -0.00132475 " stroke="#000000" stroke-width="8" stroke-opacity="1" stroke-miterlimit="4"/></g></g></g></g><g clip-path="url(#8e816271d5)"><g clip-path="url(#9532418cdf)"><g clip-path="url(#ffd5c38aa8)"><path fill="#ffde59" d="M 100.132812 133.09375 L 115.347656 124.214844 L 131.4375 151.785156 L 116.226562 160.664062 Z M 100.132812 133.09375 " fill-opacity="1" fill-rule="nonzero"/></g></g></g><g clip-path="url(#fe89a4612e)"><g clip-path="url(#5cc4dc5415)"><g clip-path="url(#ed0f58eedc)"><path fill="#ffde59" d="M 173.09375 193.371094 L 173.203125 175.757812 L 205.128906 175.960938 L 205.015625 193.574219 Z M 173.09375 193.371094 " fill-opacity="1" fill-rule="nonzero"/></g></g></g><g clip-path="url(#9d9053dd2a)"><g clip-path="url(#bf89aa75de)"><g clip-path="url(#4888b80373)"><path fill="#ffde59" d="M 152.375 248.046875 L 79.234375 205.828125 L 115.847656 142.394531 L 188.992188 184.613281 Z M 152.375 248.046875 " fill-opacity="1" fill-rule="nonzero"/></g></g></g><g clip-path="url(#2cda6491da)"><g clip-path="url(#5086a80445)"><g clip-path="url(#d739aaaabb)"><path fill="#ffde59" d="M 119.515625 238.191406 L 104.261719 229.386719 L 120.222656 201.738281 L 135.476562 210.542969 Z M 119.515625 238.191406 " fill-opacity="1" fill-rule="nonzero"/></g></g></g><g clip-path="url(#e99c634e46)"><g clip-path="url(#c33c705aed)"><g clip-path="url(#a2a0672c71)"><path fill="#ffde59" d="M 139.757812 242.246094 L 110.851562 289.769531 L 63.332031 260.859375 L 92.238281 213.339844 Z M 139.757812 242.246094 " fill-opacity="1" fill-rule="nonzero"/></g></g></g><g clip-path="url(#110cc34852)"><g clip-path="url(#dd6b5cdb4a)"><g clip-path="url(#b59968a0ed)"><g clip-path="url(#522a86325e)"><path fill="#000000" d="M 122.777344 264.398438 C 125.664062 259.65625 126.824219 254.527344 126.257812 249.019531 L 132.214844 248.40625 C 132.917969 255.25 131.476562 261.621094 127.894531 267.511719 Z M 125.84375 246.378906 C 124.683594 240.945312 122.015625 236.421875 117.835938 232.8125 L 121.746094 228.28125 C 126.941406 232.765625 130.261719 238.382812 131.699219 245.128906 Z M 115.722656 231.179688 C 115.324219 230.902344 114.914062 230.636719 114.496094 230.382812 C 110.199219 227.769531 105.554688 226.574219 100.554688 226.796875 L 100.289062 220.816406 C 106.5 220.539062 112.273438 222.023438 117.605469 225.269531 C 118.125 225.582031 118.632812 225.910156 119.128906 226.253906 Z M 97.890625 227.058594 C 92.394531 227.902344 87.722656 230.304688 83.875 234.269531 L 79.578125 230.101562 C 84.359375 225.175781 90.164062 222.1875 96.984375 221.140625 Z M 82.132812 236.273438 C 81.535156 237.035156 80.984375 237.835938 80.476562 238.667969 C 78.132812 242.519531 76.929688 246.6875 76.871094 251.171875 L 70.882812 251.089844 C 70.960938 245.519531 72.453125 240.339844 75.363281 235.554688 C 75.992188 234.523438 76.671875 233.535156 77.410156 232.589844 Z M 76.976562 253.839844 C 77.5 259.371094 79.625 264.171875 83.355469 268.246094 L 78.941406 272.289062 C 74.304688 267.230469 71.664062 261.265625 71.015625 254.402344 Z M 85.265625 270.117188 C 86.351562 271.070312 87.515625 271.925781 88.761719 272.683594 C 92.179688 274.761719 95.867188 275.945312 99.824219 276.230469 L 99.394531 282.203125 C 94.472656 281.847656 89.890625 280.378906 85.652344 277.800781 C 84.109375 276.859375 82.664062 275.800781 81.316406 274.617188 Z M 102.492188 276.277344 C 108.042969 276.078125 112.964844 274.234375 117.253906 270.746094 L 121.03125 275.390625 C 115.703125 279.722656 109.597656 282.011719 102.707031 282.261719 Z M 119.234375 268.949219 C 120.585938 267.578125 121.769531 266.0625 122.777344 264.398438 L 127.894531 267.511719 C 126.640625 269.570312 125.175781 271.453125 123.492188 273.15625 Z M 119.234375 268.949219 " fill-opacity="1" fill-rule="nonzero"/></g></g></g></g><g clip-path="url(#554a80ae08)"><g clip-path="url(#77538af9ad)"><g clip-path="url(#c1831e06d3)"><path fill="#ffde59" d="M 246.792969 212.414062 L 191.171875 212.398438 L 191.1875 156.777344 L 246.808594 156.792969 Z M 246.792969 212.414062 " fill-opacity="1" fill-rule="nonzero"/></g></g></g><g clip-path="url(#259c020323)"><g clip-path="url(#dc91ee8826)"><g clip-path="url(#06e013970c)"><g clip-path="url(#36c40038fe)"><path fill="#000000" d="M 219.046875 209.414062 C 224.597656 209.414062 229.582031 207.742188 233.996094 204.398438 L 237.613281 209.167969 C 232.128906 213.324219 225.941406 215.402344 219.042969 215.402344 Z M 236.035156 202.667969 C 240.078125 198.855469 242.554688 194.226562 243.46875 188.78125 L 249.371094 189.769531 C 248.238281 196.539062 245.164062 202.292969 240.144531 207.023438 Z M 243.765625 186.128906 C 243.792969 185.640625 243.808594 185.152344 243.808594 184.664062 C 243.808594 179.636719 242.417969 175.046875 239.632812 170.890625 L 244.605469 167.554688 C 248.066406 172.722656 249.796875 178.425781 249.796875 184.664062 C 249.796875 185.273438 249.777344 185.875 249.742188 186.480469 Z M 238.023438 168.75 C 234.449219 164.492188 229.96875 161.75 224.582031 160.519531 L 225.914062 154.683594 C 232.605469 156.207031 238.171875 159.613281 242.609375 164.902344 Z M 221.964844 160.070312 C 221.003906 159.957031 220.035156 159.902344 219.058594 159.902344 C 214.546875 159.898438 210.363281 161.039062 206.5 163.3125 L 203.460938 158.15625 C 208.261719 155.328125 213.460938 153.914062 219.0625 153.914062 C 220.269531 153.914062 221.46875 153.984375 222.660156 154.125 Z M 204.277344 164.792969 C 199.820312 168.113281 196.820312 172.421875 195.277344 177.726562 L 189.53125 176.054688 C 191.445312 169.464844 195.171875 164.109375 200.699219 159.988281 Z M 194.671875 180.332031 C 194.421875 181.753906 194.296875 183.191406 194.296875 184.652344 C 194.292969 188.652344 195.199219 192.414062 197.011719 195.945312 L 191.6875 198.679688 C 189.433594 194.292969 188.308594 189.613281 188.308594 184.648438 C 188.308594 182.84375 188.464844 181.058594 188.777344 179.292969 Z M 198.359375 198.25 C 201.410156 202.890625 205.542969 206.136719 210.753906 207.988281 L 208.746094 213.628906 C 202.277344 211.328125 197.148438 207.300781 193.355469 201.542969 Z M 213.316406 208.746094 C 215.191406 209.191406 217.101562 209.414062 219.046875 209.414062 L 219.042969 215.402344 C 216.632812 215.402344 214.261719 215.125 211.9375 214.574219 Z M 213.316406 208.746094 " fill-opacity="1" fill-rule="nonzero"/></g></g></g></g><g clip-path="url(#f393919d01)"><g clip-path="url(#46aa82c8fb)"><g clip-path="url(#82c13a9648)"><path fill="#ffde59" d="M 141.234375 110.554688 L 112.324219 158.074219 L 64.804688 129.164062 L 93.714844 81.644531 Z M 141.234375 110.554688 " fill-opacity="1" fill-rule="nonzero"/></g></g></g><g clip-path="url(#03a92c0b23)"><g clip-path="url(#05436362ca)"><g clip-path="url(#56af6b8e95)"><g clip-path="url(#65e963bb76)"><path fill="#000000" d="M 124.253906 132.707031 C 127.140625 127.960938 128.300781 122.832031 127.734375 117.324219 L 133.691406 116.710938 C 134.394531 123.554688 132.953125 129.925781 129.371094 135.816406 Z M 127.316406 114.683594 C 126.160156 109.25 123.488281 104.726562 119.308594 101.117188 L 123.222656 96.585938 C 128.417969 101.070312 131.734375 106.6875 133.171875 113.4375 Z M 117.199219 99.484375 C 116.796875 99.210938 116.386719 98.941406 115.96875 98.6875 C 111.675781 96.078125 107.027344 94.882812 102.03125 95.101562 L 101.765625 89.121094 C 107.976562 88.84375 113.75 90.328125 119.082031 93.574219 C 119.597656 93.886719 120.105469 94.21875 120.601562 94.558594 Z M 99.367188 95.367188 C 93.871094 96.207031 89.199219 98.613281 85.351562 102.574219 L 81.054688 98.40625 C 85.835938 93.480469 91.636719 90.492188 98.460938 89.449219 Z M 83.605469 104.578125 C 83.011719 105.339844 82.460938 106.140625 81.953125 106.972656 C 79.609375 110.824219 78.40625 114.992188 78.34375 119.476562 L 72.359375 119.394531 C 72.433594 113.824219 73.929688 108.644531 76.839844 103.859375 C 77.464844 102.828125 78.148438 101.839844 78.886719 100.894531 Z M 78.453125 122.144531 C 78.976562 127.675781 81.101562 132.480469 84.832031 136.550781 L 80.414062 140.59375 C 75.78125 135.535156 73.140625 129.570312 72.492188 122.707031 Z M 86.742188 138.421875 C 87.828125 139.375 88.992188 140.230469 90.238281 140.988281 C 93.65625 143.066406 97.34375 144.25 101.300781 144.535156 L 100.871094 150.507812 C 95.949219 150.152344 91.367188 148.683594 87.125 146.105469 C 85.582031 145.164062 84.136719 144.105469 82.792969 142.921875 Z M 103.96875 144.582031 C 109.519531 144.382812 114.4375 142.539062 118.726562 139.050781 L 122.507812 143.695312 C 117.179688 148.027344 111.070312 150.320312 104.183594 150.566406 Z M 120.707031 137.253906 C 122.0625 135.882812 123.242188 134.367188 124.253906 132.707031 L 129.371094 135.816406 C 128.117188 137.878906 126.648438 139.757812 124.96875 141.460938 Z M 120.707031 137.253906 " fill-opacity="1" fill-rule="nonzero"/></g></g></g></g><g clip-path="url(#ff25458cd6)"><g clip-path="url(#e2dc87b464)"><g clip-path="url(#d3dc4e6bc7)"><path fill="#707070" d="M 104.105469 261.085938 L 92.015625 254.109375 L 98.992188 242.019531 L 111.082031 248.996094 Z M 104.105469 261.085938 " fill-opacity="1" fill-rule="nonzero"/></g></g></g><g clip-path="url(#65cc159281)"><g clip-path="url(#797ea8e83d)"><g clip-path="url(#ebaa3dda42)"><path fill="#707070" d="M 212.015625 191.574219 L 212.019531 177.617188 L 225.976562 177.621094 L 225.972656 191.578125 Z M 212.015625 191.574219 " fill-opacity="1" fill-rule="nonzero"/></g></g></g><g clip-path="url(#c0eeb927c2)"><g clip-path="url(#ef680209b4)"><g clip-path="url(#ca7d06e3ec)"><path fill="#707070" d="M 104.691406 129.929688 L 92.601562 122.949219 L 99.578125 110.859375 L 111.667969 117.839844 Z M 104.691406 129.929688 " fill-opacity="1" fill-rule="nonzero"/></g></g></g><g clip-path="url(#9c34fd1a75)"><g clip-path="url(#b28bdb833f)"><g clip-path="url(#2dbc4a7f1e)"><g clip-path="url(#15f4149e00)"><path fill="#ffffff" d="M 80.371094 160.683594 C 80.335938 160.660156 80.300781 160.660156 80.261719 160.679688 C 80.144531 160.597656 80.210938 160.375 80.003906 160.355469 C 79.660156 160.066406 79.34375 160.214844 79.035156 160.429688 C 78.179688 161.039062 77.445312 161.773438 76.75 162.554688 C 74.273438 165.347656 72.496094 168.523438 71.273438 172.039062 C 69.132812 178.179688 69.304688 184.308594 71.160156 190.441406 C 72.019531 193.28125 73.363281 195.921875 74.832031 198.5 C 75.699219 200.015625 76.652344 201.476562 77.570312 202.957031 C 77.625 202.996094 77.683594 203.035156 77.738281 203.074219 C 77.75 203.148438 77.785156 203.234375 77.761719 203.296875 C 77.761719 203.296875 77.761719 203.296875 77.761719 203.300781 C 77.742188 203.351562 77.667969 203.324219 77.636719 203.269531 C 76.992188 203.023438 76.421875 202.652344 75.871094 202.25 C 75.496094 201.972656 75.113281 201.734375 74.65625 201.613281 C 73.851562 201.011719 73.050781 201.0625 72.410156 201.714844 C 73.292969 203.5 74.875 204.496094 76.570312 205.375 C 77.199219 205.707031 77.804688 206.074219 78.414062 206.433594 C 79.875 207.296875 79.714844 207.09375 80.933594 206.433594 C 81.207031 206.289062 81.441406 206.082031 81.652344 205.851562 C 81.730469 205.765625 81.792969 205.683594 81.78125 205.5625 C 82.082031 205.378906 82.0625 205.085938 82.023438 204.800781 C 81.917969 203.953125 81.800781 203.113281 81.6875 202.265625 C 81.769531 202.082031 81.722656 201.898438 81.667969 201.71875 C 81.757812 201.535156 81.707031 201.351562 81.667969 201.167969 C 81.753906 201.046875 81.703125 200.910156 81.710938 200.785156 C 81.804688 199.039062 82.09375 197.328125 82.675781 195.671875 C 82.71875 195.546875 82.753906 195.421875 82.792969 195.292969 C 82.839844 195.144531 82.894531 194.976562 82.746094 194.871094 C 82.632812 194.792969 82.445312 194.835938 82.367188 194.921875 C 82.011719 195.292969 81.488281 195.390625 81.113281 195.71875 C 80.945312 195.867188 80.855469 196.066406 80.765625 196.273438 C 80.0625 197.859375 79.664062 199.527344 79.433594 201.238281 C 79.414062 201.390625 79.417969 201.550781 79.367188 201.695312 C 79.304688 201.859375 79.164062 201.828125 79.035156 201.757812 C 79.042969 201.582031 78.960938 201.464844 78.800781 201.398438 C 78.773438 201.238281 78.734375 201.082031 78.554688 201.015625 C 78.570312 200.972656 78.558594 200.949219 78.515625 200.941406 C 78.492188 200.785156 78.449219 200.644531 78.289062 200.574219 C 78.25 200.472656 78.226562 200.367188 78.171875 200.273438 C 77.582031 199.246094 76.972656 198.226562 76.390625 197.195312 C 75.863281 196.257812 75.367188 195.304688 74.859375 194.355469 C 74.753906 194.089844 74.664062 193.820312 74.546875 193.5625 C 73.457031 191.019531 72.695312 188.390625 72.332031 185.648438 C 72.199219 184.671875 72.101562 183.6875 71.988281 182.710938 C 72.078125 182.511719 72.019531 182.324219 71.964844 182.136719 C 72.054688 181.949219 72 181.769531 71.949219 181.589844 C 72.046875 181.417969 71.984375 181.25 71.953125 181.078125 C 72.027344 180.972656 72.011719 180.863281 71.960938 180.753906 C 71.988281 180.710938 71.984375 180.671875 71.957031 180.636719 C 72.039062 180.515625 71.992188 180.382812 72.003906 180.253906 C 72.054688 179.625 71.996094 178.988281 72.125 178.363281 C 72.070312 178.316406 72.027344 178.136719 71.953125 178.367188 C 71.902344 178.519531 71.859375 178.53125 71.820312 178.492188 C 71.785156 178.460938 71.75 178.394531 71.71875 178.34375 C 71.949219 176.359375 72.417969 174.429688 73.015625 172.523438 C 73.085938 172.351562 73.15625 172.179688 73.230469 172.007812 C 73.660156 170.984375 74.089844 169.957031 74.515625 168.933594 C 74.558594 168.910156 74.582031 168.878906 74.597656 168.84375 C 74.605469 168.820312 74.605469 168.792969 74.605469 168.761719 C 74.671875 168.726562 74.699219 168.667969 74.6875 168.59375 C 74.757812 168.558594 74.785156 168.503906 74.773438 168.429688 C 74.84375 168.394531 74.871094 168.335938 74.859375 168.261719 C 74.929688 168.226562 74.960938 168.171875 74.949219 168.09375 C 75.019531 168.0625 75.050781 168.007812 75.039062 167.929688 C 75.109375 167.898438 75.140625 167.84375 75.128906 167.769531 L 75.128906 167.765625 C 75.160156 167.714844 75.191406 167.660156 75.21875 167.605469 L 75.222656 167.601562 C 75.292969 167.570312 75.324219 167.515625 75.3125 167.441406 L 75.316406 167.433594 C 75.386719 167.40625 75.417969 167.351562 75.40625 167.277344 L 75.410156 167.269531 C 75.480469 167.242188 75.511719 167.1875 75.503906 167.113281 L 75.503906 167.109375 C 75.578125 167.078125 75.605469 167.023438 75.597656 166.949219 L 75.597656 166.945312 C 75.671875 166.914062 75.703125 166.863281 75.695312 166.785156 C 76.019531 166.308594 76.34375 165.832031 76.671875 165.351562 C 76.761719 165.050781 76.980469 164.832031 77.164062 164.585938 C 77.199219 164.59375 77.230469 164.605469 77.253906 164.625 C 77.296875 164.648438 77.328125 164.683594 77.347656 164.734375 C 77.503906 164.566406 77.675781 164.410156 77.746094 164.179688 C 77.761719 164.109375 77.785156 164.042969 77.835938 163.988281 C 77.808594 164.050781 77.777344 164.117188 77.746094 164.179688 C 77.808594 164.136719 77.859375 164.089844 77.839844 164.007812 C 77.953125 163.976562 78.015625 163.898438 78.046875 163.792969 C 78.121094 163.773438 78.164062 163.730469 78.160156 163.652344 C 78.226562 163.613281 78.28125 163.566406 78.28125 163.484375 C 78.316406 163.46875 78.34375 163.449219 78.355469 163.410156 C 78.539062 163.273438 78.683594 163.105469 78.789062 162.902344 C 78.914062 162.796875 79.039062 162.699219 79.097656 162.539062 C 79.203125 162.503906 79.25 162.410156 79.304688 162.328125 C 79.796875 161.917969 80.207031 161.425781 80.800781 161.09375 C 80.605469 160.957031 80.613281 160.699219 80.371094 160.683594 Z M 78.386719 200.972656 C 78.382812 200.972656 78.382812 200.972656 78.382812 200.972656 C 78.382812 200.972656 78.386719 200.96875 78.386719 200.96875 C 78.386719 200.96875 78.386719 200.972656 78.386719 200.972656 C 78.386719 200.972656 78.386719 200.972656 78.390625 200.96875 C 78.390625 200.972656 78.386719 200.972656 78.386719 200.972656 Z M 75.167969 166.957031 C 75.15625 166.96875 75.148438 166.980469 75.136719 166.992188 C 75.136719 166.988281 75.140625 166.984375 75.140625 166.980469 C 75.148438 166.972656 75.152344 166.960938 75.160156 166.949219 C 75.160156 166.949219 75.164062 166.953125 75.167969 166.957031 Z M 74.515625 168.921875 C 74.515625 168.921875 74.515625 168.921875 74.511719 168.921875 C 74.507812 168.917969 74.503906 168.917969 74.5 168.914062 L 74.484375 168.902344 L 74.515625 168.921875 C 74.515625 168.921875 74.515625 168.917969 74.515625 168.917969 C 74.515625 168.917969 74.515625 168.921875 74.515625 168.921875 Z M 75.136719 166.898438 C 75.144531 166.914062 75.152344 166.929688 75.160156 166.945312 C 75.152344 166.957031 75.148438 166.96875 75.140625 166.980469 C 75.152344 166.953125 75.152344 166.925781 75.136719 166.898438 Z M 75.097656 167.050781 C 75.089844 167.0625 75.082031 167.078125 75.074219 167.089844 C 75.070312 167.089844 75.070312 167.089844 75.070312 167.089844 C 75.078125 167.078125 75.089844 167.0625 75.097656 167.050781 Z M 79.242188 161.117188 C 79.242188 161.117188 79.246094 161.113281 79.246094 161.113281 C 79.25 161.113281 79.25 161.109375 79.25 161.109375 C 79.25 161.113281 79.246094 161.113281 79.242188 161.117188 Z M 79.027344 161.300781 C 79.023438 161.300781 79.019531 161.300781 79.019531 161.304688 C 79.023438 161.304688 79.023438 161.300781 79.027344 161.300781 Z M 77.839844 163.871094 C 77.832031 163.859375 77.824219 163.847656 77.8125 163.839844 C 77.820312 163.835938 77.832031 163.832031 77.839844 163.832031 C 77.839844 163.84375 77.839844 163.859375 77.839844 163.871094 Z M 78.203125 163.527344 C 78.214844 163.507812 78.234375 163.492188 78.257812 163.480469 C 78.234375 163.492188 78.214844 163.507812 78.203125 163.527344 Z M 78.203125 163.527344 " fill-opacity="1" fill-rule="nonzero"/></g></g></g></g><g clip-path="url(#b72400ce77)"><g clip-path="url(#3b515db6bc)"><g clip-path="url(#edddb761bd)"><g clip-path="url(#df54baf462)"><path fill="#ffffff" d="M 75.222656 167.59375 C 75.191406 167.648438 75.164062 167.703125 75.132812 167.753906 C 75.203125 167.722656 75.234375 167.667969 75.222656 167.59375 Z M 75.222656 167.59375 " fill-opacity="1" fill-rule="nonzero"/></g></g></g></g><g clip-path="url(#e89d122e8b)"><g clip-path="url(#75262655aa)"><g clip-path="url(#6ed2191b56)"><g clip-path="url(#78274b44d1)"><path fill="#ffffff" d="M 190.226562 143.1875 C 190.265625 143.167969 190.285156 143.140625 190.292969 143.097656 C 190.429688 143.050781 190.574219 143.230469 190.707031 143.074219 C 191.140625 142.957031 191.203125 142.613281 191.199219 142.238281 C 191.195312 141.1875 191.019531 140.164062 190.78125 139.148438 C 189.921875 135.511719 188.347656 132.234375 186.175781 129.207031 C 182.386719 123.921875 177.277344 120.535156 171.195312 118.523438 C 168.375 117.589844 165.441406 117.171875 162.488281 116.890625 C 160.75 116.722656 159.011719 116.664062 157.269531 116.5625 C 157.203125 116.585938 157.140625 116.609375 157.078125 116.632812 C 157.007812 116.597656 156.921875 116.578125 156.882812 116.523438 C 156.882812 116.523438 156.882812 116.523438 156.878906 116.519531 C 156.851562 116.476562 156.914062 116.429688 156.976562 116.433594 C 157.550781 116.050781 158.179688 115.800781 158.828125 115.582031 C 159.269531 115.433594 159.6875 115.253906 160.046875 114.953125 C 161 114.640625 161.421875 113.957031 161.257812 113.058594 C 159.289062 112.753906 157.5625 113.472656 155.867188 114.351562 C 155.238281 114.675781 154.585938 114.957031 153.941406 115.25 C 152.390625 115.949219 152.65625 115.933594 152.492188 117.3125 C 152.453125 117.617188 152.488281 117.929688 152.554688 118.234375 C 152.578125 118.34375 152.613281 118.445312 152.714844 118.507812 C 152.691406 118.859375 152.945312 119.007812 153.199219 119.144531 C 153.953125 119.542969 154.707031 119.933594 155.464844 120.324219 C 155.570312 120.5 155.746094 120.566406 155.925781 120.625 C 156.023438 120.804688 156.203125 120.871094 156.375 120.941406 C 156.425781 121.082031 156.5625 121.121094 156.664062 121.199219 C 158.039062 122.277344 159.269531 123.5 160.289062 124.929688 C 160.363281 125.039062 160.449219 125.136719 160.53125 125.242188 C 160.625 125.367188 160.734375 125.507812 160.902344 125.449219 C 161.03125 125.402344 161.105469 125.226562 161.082031 125.109375 C 160.980469 124.605469 161.203125 124.121094 161.148438 123.625 C 161.125 123.40625 161.015625 123.214844 160.898438 123.019531 C 160.003906 121.53125 158.871094 120.246094 157.601562 119.074219 C 157.488281 118.972656 157.359375 118.882812 157.269531 118.757812 C 157.167969 118.613281 157.277344 118.515625 157.40625 118.449219 C 157.546875 118.558594 157.691406 118.558594 157.835938 118.464844 C 157.984375 118.535156 158.132812 118.59375 158.289062 118.484375 C 158.316406 118.523438 158.34375 118.523438 158.375 118.496094 C 158.515625 118.566406 158.65625 118.609375 158.804688 118.519531 C 158.910156 118.546875 159.011719 118.589844 159.121094 118.601562 C 160.300781 118.707031 161.480469 118.792969 162.660156 118.914062 C 163.730469 119.023438 164.796875 119.167969 165.863281 119.296875 C 166.140625 119.363281 166.414062 119.441406 166.691406 119.5 C 169.398438 120.070312 171.988281 120.960938 174.441406 122.238281 C 175.3125 122.699219 176.171875 123.179688 177.039062 123.652344 C 177.148438 123.839844 177.335938 123.898438 177.523438 123.960938 C 177.625 124.144531 177.800781 124.203125 177.980469 124.265625 C 178.0625 124.445312 178.238281 124.488281 178.394531 124.5625 C 178.4375 124.683594 178.535156 124.734375 178.65625 124.757812 C 178.675781 124.800781 178.707031 124.820312 178.753906 124.820312 C 178.804688 124.953125 178.941406 124.996094 179.039062 125.078125 C 179.523438 125.484375 180.078125 125.796875 180.515625 126.265625 C 180.585938 126.246094 180.757812 126.316406 180.613281 126.125 C 180.515625 125.996094 180.53125 125.953125 180.585938 125.941406 C 180.632812 125.929688 180.707031 125.941406 180.765625 125.945312 C 182.253906 127.273438 183.566406 128.769531 184.777344 130.355469 C 184.875 130.511719 184.976562 130.667969 185.074219 130.828125 C 185.667969 131.769531 186.257812 132.710938 186.851562 133.648438 C 186.84375 133.695312 186.855469 133.734375 186.878906 133.765625 C 186.894531 133.785156 186.914062 133.804688 186.9375 133.820312 C 186.933594 133.894531 186.964844 133.949219 187.027344 133.984375 C 187.019531 134.0625 187.046875 134.117188 187.117188 134.152344 C 187.101562 134.226562 187.132812 134.28125 187.203125 134.316406 C 187.191406 134.394531 187.21875 134.453125 187.289062 134.484375 C 187.273438 134.5625 187.300781 134.617188 187.371094 134.652344 L 187.371094 134.65625 C 187.355469 134.730469 187.382812 134.785156 187.453125 134.820312 L 187.453125 134.824219 C 187.476562 134.878906 187.5 134.933594 187.53125 134.988281 L 187.535156 134.996094 C 187.519531 135.070312 187.542969 135.125 187.613281 135.160156 L 187.613281 135.164062 C 187.597656 135.242188 187.625 135.296875 187.691406 135.332031 L 187.695312 135.335938 C 187.695312 135.335938 187.695312 135.339844 187.695312 135.339844 C 187.695312 135.339844 187.695312 135.335938 187.695312 135.335938 C 187.675781 135.414062 187.703125 135.46875 187.773438 135.503906 L 187.773438 135.507812 C 187.757812 135.582031 187.78125 135.640625 187.851562 135.675781 C 187.835938 135.753906 187.859375 135.8125 187.929688 135.847656 C 188.132812 136.390625 188.335938 136.929688 188.539062 137.472656 C 188.734375 137.71875 188.785156 138.027344 188.878906 138.316406 C 188.855469 138.339844 188.828125 138.359375 188.796875 138.371094 C 188.753906 138.390625 188.707031 138.390625 188.652344 138.378906 C 188.699219 138.605469 188.730469 138.835938 188.878906 139.023438 C 188.925781 139.078125 188.96875 139.136719 188.984375 139.210938 C 188.949219 139.148438 188.914062 139.085938 188.878906 139.023438 C 188.878906 139.101562 188.886719 139.171875 188.964844 139.203125 C 188.925781 139.3125 188.953125 139.40625 189.023438 139.496094 C 188.996094 139.566406 189.003906 139.628906 189.070312 139.667969 C 189.0625 139.746094 189.074219 139.816406 189.140625 139.863281 C 189.128906 139.902344 189.132812 139.933594 189.15625 139.96875 C 189.164062 140.199219 189.21875 140.414062 189.324219 140.613281 C 189.335938 140.777344 189.34375 140.9375 189.441406 141.078125 C 189.410156 141.183594 189.457031 141.273438 189.496094 141.367188 C 189.546875 142.003906 189.714844 142.625 189.644531 143.300781 C 189.867188 143.21875 190.074219 143.375 190.226562 143.1875 Z M 158.421875 118.371094 C 158.421875 118.371094 158.421875 118.371094 158.425781 118.371094 C 158.425781 118.371094 158.425781 118.367188 158.425781 118.367188 C 158.425781 118.371094 158.425781 118.371094 158.425781 118.371094 C 158.425781 118.375 158.421875 118.375 158.425781 118.378906 C 158.421875 118.375 158.421875 118.371094 158.421875 118.371094 Z M 188.089844 135.316406 C 188.085938 135.300781 188.082031 135.289062 188.078125 135.273438 C 188.082031 135.277344 188.082031 135.28125 188.085938 135.285156 C 188.089844 135.292969 188.097656 135.304688 188.101562 135.320312 C 188.101562 135.316406 188.097656 135.316406 188.089844 135.316406 Z M 186.859375 133.65625 C 186.859375 133.652344 186.863281 133.652344 186.863281 133.652344 C 186.867188 133.652344 186.871094 133.648438 186.875 133.644531 L 186.894531 133.640625 L 186.863281 133.652344 C 186.859375 133.65625 186.863281 133.65625 186.859375 133.65625 C 186.863281 133.65625 186.859375 133.65625 186.859375 133.65625 Z M 188.160156 135.328125 C 188.140625 135.324219 188.121094 135.324219 188.105469 135.320312 C 188.101562 135.308594 188.09375 135.296875 188.089844 135.285156 C 188.105469 135.308594 188.128906 135.324219 188.160156 135.328125 Z M 188.054688 135.207031 C 188.050781 135.191406 188.042969 135.179688 188.039062 135.164062 C 188.039062 135.164062 188.039062 135.164062 188.039062 135.160156 C 188.042969 135.175781 188.050781 135.191406 188.054688 135.207031 Z M 190.519531 142.011719 C 190.519531 142.011719 190.523438 142.015625 190.523438 142.015625 C 190.523438 142.015625 190.523438 142.019531 190.523438 142.019531 C 190.523438 142.019531 190.523438 142.023438 190.523438 142.023438 C 190.519531 142.019531 190.519531 142.015625 190.519531 142.011719 Z M 190.496094 141.730469 C 190.496094 141.726562 190.5 141.722656 190.496094 141.722656 C 190.496094 141.722656 190.496094 141.730469 190.496094 141.730469 Z M 189.074219 139.277344 C 189.089844 139.28125 189.101562 139.28125 189.117188 139.277344 C 189.117188 139.285156 189.113281 139.292969 189.109375 139.304688 C 189.097656 139.292969 189.085938 139.289062 189.074219 139.277344 Z M 189.152344 139.773438 C 189.160156 139.796875 189.160156 139.820312 189.15625 139.847656 C 189.15625 139.820312 189.15625 139.796875 189.152344 139.773438 Z M 189.152344 139.773438 " fill-opacity="1" fill-rule="nonzero"/></g></g></g></g><g clip-path="url(#3eb388aee7)"><g clip-path="url(#797765e2a3)"><g clip-path="url(#e614d2a21d)"><g clip-path="url(#41b13a845b)"><path fill="#ffffff" d="M 187.539062 134.996094 C 187.511719 134.941406 187.484375 134.886719 187.460938 134.832031 C 187.445312 134.90625 187.472656 134.960938 187.539062 134.996094 Z M 187.539062 134.996094 " fill-opacity="1" fill-rule="nonzero"/></g></g></g></g><g clip-path="url(#186a75e287)"><g clip-path="url(#959d341fa0)"><g clip-path="url(#d3cae1988b)"><g clip-path="url(#eeaa963162)"><path fill="#ffffff" d="M 152.421875 245.882812 C 152.414062 245.921875 152.429688 245.957031 152.460938 245.984375 C 152.421875 246.125 152.1875 246.140625 152.242188 246.339844 C 152.089844 246.765625 152.335938 247.007812 152.644531 247.222656 C 153.511719 247.816406 154.457031 248.253906 155.425781 248.636719 C 158.902344 250.003906 162.492188 250.582031 166.21875 250.523438 C 172.71875 250.421875 178.414062 248.152344 183.535156 244.300781 C 185.910156 242.519531 187.925781 240.347656 189.839844 238.078125 C 190.964844 236.746094 192.007812 235.351562 193.085938 233.976562 C 193.101562 233.910156 193.117188 233.84375 193.132812 233.777344 C 193.203125 233.742188 193.269531 233.683594 193.335938 233.679688 C 193.335938 233.679688 193.335938 233.679688 193.339844 233.683594 C 193.394531 233.683594 193.394531 233.761719 193.355469 233.808594 C 193.34375 234.5 193.191406 235.160156 193.003906 235.816406 C 192.871094 236.261719 192.78125 236.707031 192.824219 237.175781 C 192.535156 238.136719 192.855469 238.871094 193.691406 239.25 C 195.0625 237.804688 195.453125 235.980469 195.699219 234.085938 C 195.792969 233.382812 195.929688 232.6875 196.058594 231.988281 C 196.367188 230.320312 196.230469 230.542969 195.191406 229.625 C 194.960938 229.417969 194.6875 229.269531 194.398438 229.152344 C 194.292969 229.105469 194.191406 229.078125 194.082031 229.128906 C 193.804688 228.90625 193.539062 229.03125 193.28125 229.160156 C 192.527344 229.550781 191.773438 229.953125 191.019531 230.351562 C 190.816406 230.335938 190.660156 230.441406 190.511719 230.554688 C 190.308594 230.535156 190.152344 230.644531 189.996094 230.746094 C 189.851562 230.707031 189.742188 230.796875 189.617188 230.835938 C 187.949219 231.347656 186.246094 231.664062 184.488281 231.6875 C 184.355469 231.6875 184.226562 231.703125 184.09375 231.710938 C 183.9375 231.714844 183.757812 231.722656 183.710938 231.898438 C 183.679688 232.03125 183.78125 232.191406 183.886719 232.234375 C 184.359375 232.441406 184.628906 232.902344 185.070312 233.140625 C 185.261719 233.246094 185.484375 233.261719 185.710938 233.277344 C 187.441406 233.390625 189.144531 233.191406 190.828125 232.820312 C 190.980469 232.785156 191.128906 232.726562 191.28125 232.726562 C 191.457031 232.726562 191.472656 232.871094 191.453125 233.015625 C 191.285156 233.070312 191.203125 233.1875 191.195312 233.359375 C 191.054688 233.441406 190.921875 233.53125 190.921875 233.71875 C 190.875 233.71875 190.859375 233.742188 190.867188 233.785156 C 190.726562 233.859375 190.613281 233.949219 190.601562 234.121094 C 190.519531 234.191406 190.425781 234.253906 190.355469 234.335938 C 189.59375 235.246094 188.847656 236.167969 188.078125 237.066406 C 187.378906 237.882812 186.652344 238.679688 185.941406 239.480469 C 185.726562 239.667969 185.503906 239.847656 185.300781 240.046875 C 183.289062 241.941406 181.078125 243.566406 178.632812 244.847656 C 177.757812 245.308594 176.871094 245.738281 175.988281 246.179688 C 175.773438 246.164062 175.617188 246.28125 175.460938 246.402344 C 175.253906 246.378906 175.105469 246.492188 174.949219 246.601562 C 174.757812 246.570312 174.621094 246.6875 174.46875 246.777344 C 174.34375 246.742188 174.246094 246.792969 174.160156 246.878906 C 174.113281 246.867188 174.078125 246.882812 174.054688 246.925781 C 173.914062 246.890625 173.800781 246.976562 173.679688 247.011719 C 173.070312 247.179688 172.492188 247.453125 171.863281 247.546875 C 171.835938 247.617188 171.683594 247.714844 171.921875 247.707031 C 172.082031 247.703125 172.109375 247.738281 172.089844 247.789062 C 172.070312 247.832031 172.015625 247.886719 171.980469 247.933594 C 170.039062 248.402344 168.066406 248.625 166.074219 248.71875 C 165.886719 248.710938 165.699219 248.703125 165.515625 248.695312 C 164.40625 248.644531 163.292969 248.59375 162.183594 248.542969 C 162.148438 248.511719 162.109375 248.5 162.074219 248.5 C 162.046875 248.5 162.019531 248.507812 161.992188 248.519531 C 161.933594 248.46875 161.871094 248.464844 161.808594 248.496094 C 161.75 248.445312 161.6875 248.441406 161.621094 248.476562 C 161.566406 248.421875 161.5 248.414062 161.433594 248.453125 C 161.378906 248.398438 161.316406 248.386719 161.246094 248.425781 C 161.191406 248.371094 161.128906 248.363281 161.0625 248.398438 C 161.007812 248.34375 160.945312 248.332031 160.878906 248.371094 L 160.875 248.371094 C 160.816406 248.355469 160.757812 248.347656 160.695312 248.339844 L 160.6875 248.339844 C 160.636719 248.285156 160.578125 248.273438 160.507812 248.308594 L 160.503906 248.308594 C 160.449219 248.25 160.390625 248.242188 160.320312 248.277344 L 160.316406 248.277344 C 160.316406 248.277344 160.3125 248.273438 160.3125 248.273438 C 160.3125 248.273438 160.316406 248.277344 160.316406 248.277344 C 160.261719 248.21875 160.203125 248.207031 160.132812 248.242188 L 160.128906 248.242188 C 160.078125 248.1875 160.015625 248.175781 159.949219 248.210938 L 159.945312 248.210938 C 159.894531 248.152344 159.832031 248.140625 159.761719 248.175781 C 159.203125 248.035156 158.640625 247.894531 158.082031 247.75 C 157.765625 247.769531 157.484375 247.640625 157.191406 247.550781 C 157.1875 247.515625 157.1875 247.484375 157.195312 247.453125 C 157.207031 247.40625 157.230469 247.363281 157.269531 247.328125 C 157.058594 247.238281 156.851562 247.132812 156.613281 247.144531 C 156.539062 247.15625 156.46875 247.15625 156.398438 247.125 C 156.46875 247.132812 156.539062 247.140625 156.613281 247.144531 C 156.546875 247.101562 156.484375 247.070312 156.414062 247.117188 C 156.347656 247.019531 156.253906 246.988281 156.140625 246.996094 C 156.097656 246.933594 156.042969 246.90625 155.972656 246.9375 C 155.914062 246.886719 155.851562 246.855469 155.773438 246.882812 C 155.746094 246.851562 155.71875 246.835938 155.675781 246.835938 C 155.484375 246.710938 155.277344 246.632812 155.050781 246.605469 C 154.910156 246.523438 154.773438 246.4375 154.605469 246.4375 C 154.535156 246.355469 154.433594 246.339844 154.335938 246.316406 C 153.78125 245.996094 153.175781 245.78125 152.660156 245.335938 C 152.601562 245.570312 152.355469 245.648438 152.421875 245.882812 Z M 190.941406 233.894531 C 190.941406 233.894531 190.941406 233.894531 190.9375 233.894531 C 190.9375 233.898438 190.941406 233.894531 190.941406 233.894531 C 190.9375 233.898438 190.9375 233.894531 190.9375 233.894531 C 190.9375 233.894531 190.9375 233.890625 190.933594 233.890625 C 190.9375 233.890625 190.9375 233.894531 190.941406 233.894531 Z M 160.105469 248.613281 C 160.121094 248.617188 160.132812 248.621094 160.148438 248.628906 C 160.144531 248.628906 160.140625 248.628906 160.136719 248.628906 C 160.125 248.625 160.113281 248.625 160.097656 248.621094 C 160.101562 248.621094 160.101562 248.617188 160.105469 248.613281 Z M 162.175781 248.546875 C 162.175781 248.550781 162.171875 248.550781 162.175781 248.550781 C 162.171875 248.554688 162.171875 248.5625 162.171875 248.566406 L 162.164062 248.582031 L 162.171875 248.550781 C 162.171875 248.546875 162.171875 248.550781 162.171875 248.546875 C 162.171875 248.550781 162.171875 248.546875 162.175781 248.546875 Z M 160.058594 248.664062 C 160.070312 248.648438 160.085938 248.632812 160.097656 248.621094 C 160.109375 248.625 160.121094 248.625 160.132812 248.628906 C 160.105469 248.628906 160.082031 248.636719 160.058594 248.664062 Z M 160.21875 248.644531 C 160.230469 248.648438 160.246094 248.652344 160.261719 248.65625 C 160.246094 248.652344 160.230469 248.648438 160.21875 248.644531 Z M 153.21875 246.792969 C 153.21875 246.792969 153.214844 246.792969 153.214844 246.792969 C 153.214844 246.792969 153.210938 246.789062 153.210938 246.789062 C 153.210938 246.789062 153.210938 246.789062 153.207031 246.785156 C 153.210938 246.785156 153.214844 246.789062 153.21875 246.792969 Z M 153.464844 246.933594 C 153.46875 246.933594 153.46875 246.9375 153.472656 246.9375 C 153.472656 246.933594 153.46875 246.933594 153.464844 246.933594 Z M 156.289062 247.164062 C 156.28125 247.171875 156.273438 247.183594 156.265625 247.199219 C 156.261719 247.191406 156.253906 247.183594 156.25 247.175781 C 156.261719 247.171875 156.277344 247.167969 156.289062 247.164062 Z M 155.839844 246.941406 C 155.816406 246.9375 155.792969 246.925781 155.777344 246.902344 C 155.796875 246.921875 155.816406 246.933594 155.839844 246.941406 Z M 155.839844 246.941406 " fill-opacity="1" fill-rule="nonzero"/></g></g></g></g><g clip-path="url(#00fd26c6e7)"><g clip-path="url(#b4512bbb39)"><g clip-path="url(#a12b9bd625)"><g clip-path="url(#aabea3ee77)"><path fill="#ffffff" d="M 160.683594 248.339844 C 160.746094 248.351562 160.804688 248.359375 160.863281 248.371094 C 160.8125 248.3125 160.75 248.304688 160.683594 248.339844 Z M 160.683594 248.339844 " fill-opacity="1" fill-rule="nonzero"/></g></g></g></g><path stroke-linecap="butt" transform="matrix(0.74987, 0.00605191, -0.00605275, 0.749976, 136.490312, 77.868328)" fill="none" stroke-linejoin="miter" d="M -0.00220402 1.998562 L 223.03636 2.000901 " stroke="#000000" stroke-width="4" stroke-opacity="1" stroke-miterlimit="4"/><path stroke-linecap="butt" transform="matrix(0.750617, -0.00364086, 0.00363783, 0.749991, 135.126205, 291.168432)" fill="none" stroke-linejoin="miter" d="M -0.000887235 1.999401 L 224.814281 2.002221 " stroke="#000000" stroke-width="4" stroke-opacity="1" stroke-miterlimit="4"/><g clip-path="url(#452727e001)"><path fill="#38b6ff" d="M 294.695312 306.992188 L 286.203125 297.5 C 286.019531 297.296875 285.765625 297.183594 285.5 297.183594 L 279.835938 297.183594 C 279.464844 297.183594 279.128906 297.402344 278.972656 297.746094 C 278.824219 298.089844 278.886719 298.488281 279.136719 298.765625 L 287.058594 307.628906 L 279.136719 316.484375 C 278.886719 316.765625 278.820312 317.164062 278.972656 317.507812 C 279.128906 317.851562 279.464844 318.070312 279.835938 318.070312 L 285.5 318.070312 C 285.765625 318.070312 286.019531 317.953125 286.203125 317.757812 L 294.695312 308.261719 C 295.015625 307.902344 295.015625 307.351562 294.695312 306.992188 Z M 294.695312 306.992188 " fill-opacity="1" fill-rule="nonzero"/></g><g clip-path="url(#87e16d7772)"><path fill="#38b6ff" d="M 282.425781 306.992188 L 273.933594 297.5 C 273.75 297.296875 273.5 297.183594 273.230469 297.183594 L 267.570312 297.183594 C 267.195312 297.183594 266.859375 297.402344 266.707031 297.746094 C 266.554688 298.089844 266.617188 298.488281 266.867188 298.765625 L 274.792969 307.628906 L 266.867188 316.484375 C 266.617188 316.765625 266.554688 317.164062 266.707031 317.507812 C 266.859375 317.851562 267.195312 318.070312 267.570312 318.070312 L 273.230469 318.070312 C 273.5 318.070312 273.75 317.953125 273.933594 317.757812 L 282.425781 308.261719 C 282.75 307.902344 282.75 307.351562 282.425781 306.992188 Z M 282.425781 306.992188 " fill-opacity="1" fill-rule="nonzero"/></g><g clip-path="url(#4b19bc85e2)"><path fill="#38b6ff" d="M 257.570312 306.992188 L 249.078125 297.5 C 248.894531 297.296875 248.640625 297.183594 248.375 297.183594 L 242.710938 297.183594 C 242.339844 297.183594 242.003906 297.402344 241.847656 297.746094 C 241.699219 298.089844 241.761719 298.488281 242.007812 298.765625 L 249.933594 307.628906 L 242.007812 316.484375 C 241.761719 316.765625 241.695312 317.164062 241.847656 317.507812 C 242.003906 317.851562 242.339844 318.070312 242.710938 318.070312 L 248.375 318.070312 C 248.640625 318.070312 248.894531 317.953125 249.078125 317.757812 L 257.570312 308.261719 C 257.890625 307.902344 257.890625 307.351562 257.570312 306.992188 Z M 257.570312 306.992188 " fill-opacity="1" fill-rule="nonzero"/></g><g clip-path="url(#067936b75e)"><path fill="#38b6ff" d="M 245.300781 306.992188 L 236.808594 297.5 C 236.625 297.296875 236.375 297.183594 236.105469 297.183594 L 230.445312 297.183594 C 230.070312 297.183594 229.734375 297.402344 229.582031 297.746094 C 229.429688 298.089844 229.492188 298.488281 229.742188 298.765625 L 237.667969 307.628906 L 229.742188 316.484375 C 229.492188 316.765625 229.429688 317.164062 229.582031 317.507812 C 229.734375 317.851562 230.070312 318.070312 230.445312 318.070312 L 236.105469 318.070312 C 236.375 318.070312 236.625 317.953125 236.808594 317.757812 L 245.300781 308.261719 C 245.625 307.902344 245.625 307.351562 245.300781 306.992188 Z M 245.300781 306.992188 " fill-opacity="1" fill-rule="nonzero"/></g><g clip-path="url(#f5ff1a14e5)"><path fill="#38b6ff" d="M 220.445312 306.992188 L 211.953125 297.5 C 211.769531 297.296875 211.515625 297.183594 211.25 297.183594 L 205.585938 297.183594 C 205.214844 297.183594 204.878906 297.402344 204.722656 297.746094 C 204.574219 298.089844 204.636719 298.488281 204.886719 298.765625 L 212.808594 307.628906 L 204.886719 316.484375 C 204.636719 316.765625 204.570312 317.164062 204.722656 317.507812 C 204.878906 317.851562 205.214844 318.070312 205.585938 318.070312 L 211.25 318.070312 C 211.515625 318.070312 211.769531 317.953125 211.953125 317.757812 L 220.445312 308.261719 C 220.765625 307.902344 220.765625 307.351562 220.445312 306.992188 Z M 220.445312 306.992188 " fill-opacity="1" fill-rule="nonzero"/></g><g clip-path="url(#f2f8bc3441)"><path fill="#38b6ff" d="M 208.175781 306.992188 L 199.683594 297.5 C 199.5 297.296875 199.25 297.183594 198.980469 297.183594 L 193.320312 297.183594 C 192.945312 297.183594 192.609375 297.402344 192.457031 297.746094 C 192.304688 298.089844 192.367188 298.488281 192.617188 298.765625 L 200.542969 307.628906 L 192.617188 316.484375 C 192.367188 316.765625 192.304688 317.164062 192.457031 317.507812 C 192.609375 317.851562 192.945312 318.070312 193.320312 318.070312 L 198.980469 318.070312 C 199.25 318.070312 199.5 317.953125 199.683594 317.757812 L 208.175781 308.261719 C 208.5 307.902344 208.5 307.351562 208.175781 306.992188 Z M 208.175781 306.992188 " fill-opacity="1" fill-rule="nonzero"/></g><g clip-path="url(#7be827d3f9)"><path fill="#5ce1e6" d="M 183.320312 306.992188 L 174.828125 297.5 C 174.644531 297.296875 174.390625 297.183594 174.125 297.183594 L 168.460938 297.183594 C 168.089844 297.183594 167.753906 297.402344 167.597656 297.746094 C 167.449219 298.089844 167.511719 298.488281 167.761719 298.765625 L 175.683594 307.628906 L 167.761719 316.484375 C 167.511719 316.765625 167.445312 317.164062 167.597656 317.507812 C 167.753906 317.851562 168.089844 318.070312 168.460938 318.070312 L 174.125 318.070312 C 174.390625 318.070312 174.644531 317.953125 174.828125 317.757812 L 183.320312 308.261719 C 183.640625 307.902344 183.640625 307.351562 183.320312 306.992188 Z M 183.320312 306.992188 " fill-opacity="1" fill-rule="nonzero"/></g><g clip-path="url(#b43fcb8ae4)"><path fill="#5ce1e6" d="M 171.050781 306.992188 L 162.558594 297.5 C 162.375 297.296875 162.125 297.183594 161.855469 297.183594 L 156.195312 297.183594 C 155.820312 297.183594 155.484375 297.402344 155.332031 297.746094 C 155.179688 298.089844 155.242188 298.488281 155.492188 298.765625 L 163.417969 307.628906 L 155.492188 316.484375 C 155.242188 316.765625 155.179688 317.164062 155.332031 317.507812 C 155.484375 317.851562 155.820312 318.070312 156.195312 318.070312 L 161.855469 318.070312 C 162.125 318.070312 162.375 317.953125 162.558594 317.757812 L 171.050781 308.261719 C 171.375 307.902344 171.375 307.351562 171.050781 306.992188 Z M 171.050781 306.992188 " fill-opacity="1" fill-rule="nonzero"/></g><g clip-path="url(#66e7bb2186)"><g clip-path="url(#edbc3d48e6)"><g clip-path="url(#7e7d5718db)"><path fill="#38b6ff" d="M 146.183594 306.746094 L 137.523438 297.402344 C 137.339844 297.207031 137.085938 297.097656 136.816406 297.101562 L 131.15625 297.199219 C 130.785156 297.207031 130.449219 297.433594 130.304688 297.777344 C 130.160156 298.125 130.226562 298.523438 130.480469 298.796875 L 138.5625 307.515625 L 130.792969 316.511719 C 130.550781 316.796875 130.492188 317.195312 130.652344 317.535156 C 130.8125 317.875 131.152344 318.089844 131.523438 318.085938 L 137.1875 317.984375 C 137.453125 317.980469 137.703125 317.859375 137.882812 317.660156 L 146.207031 308.015625 C 146.523438 307.648438 146.511719 307.097656 146.183594 306.746094 Z M 146.183594 306.746094 " fill-opacity="1" fill-rule="nonzero"/></g></g></g><g clip-path="url(#3f4da29875)"><g clip-path="url(#ce2198b0a0)"><g clip-path="url(#a457b104c5)"><path fill="#38b6ff" d="M 133.917969 306.960938 L 125.257812 297.621094 C 125.074219 297.421875 124.820312 297.3125 124.550781 297.316406 L 118.890625 297.417969 C 118.519531 297.425781 118.183594 297.648438 118.035156 297.996094 C 117.890625 298.339844 117.960938 298.742188 118.214844 299.011719 L 126.296875 307.730469 L 118.527344 316.726562 C 118.285156 317.011719 118.226562 317.414062 118.386719 317.753906 C 118.546875 318.09375 118.886719 318.308594 119.257812 318.300781 L 124.921875 318.203125 C 125.1875 318.195312 125.4375 318.074219 125.617188 317.875 L 133.941406 308.234375 C 134.257812 307.867188 134.246094 307.316406 133.917969 306.960938 Z M 133.917969 306.960938 " fill-opacity="1" fill-rule="nonzero"/></g></g></g><g clip-path="url(#4bf0497b81)"><g clip-path="url(#f7dcb0a577)"><g clip-path="url(#e31ad6777d)"><path fill="#38b6ff" d="M 99.40625 301.191406 L 97.382812 288.617188 C 97.335938 288.347656 97.1875 288.117188 96.960938 287.972656 L 92.195312 284.914062 C 91.882812 284.714844 91.476562 284.714844 91.164062 284.921875 C 90.851562 285.128906 90.6875 285.5 90.75 285.867188 L 92.636719 297.605469 L 81.183594 300.78125 C 80.824219 300.882812 80.550781 301.183594 80.496094 301.554688 C 80.441406 301.925781 80.605469 302.296875 80.917969 302.496094 L 85.683594 305.554688 C 85.910156 305.699219 86.183594 305.738281 86.445312 305.667969 L 98.71875 302.261719 C 99.1875 302.132812 99.484375 301.667969 99.40625 301.191406 Z M 99.40625 301.191406 " fill-opacity="1" fill-rule="nonzero"/></g></g></g><g clip-path="url(#94258b753b)"><g clip-path="url(#5d0d26d812)"><g clip-path="url(#5fdf49679d)"><path fill="#38b6ff" d="M 89.078125 294.570312 L 87.054688 281.992188 C 87.011719 281.726562 86.859375 281.492188 86.632812 281.347656 L 81.867188 278.292969 C 81.554688 278.089844 81.152344 278.09375 80.839844 278.296875 C 80.527344 278.507812 80.363281 278.878906 80.421875 279.246094 L 82.308594 290.980469 L 70.855469 294.160156 C 70.496094 294.257812 70.226562 294.5625 70.167969 294.933594 C 70.113281 295.304688 70.277344 295.671875 70.589844 295.871094 L 75.359375 298.929688 C 75.582031 299.074219 75.859375 299.113281 76.117188 299.046875 L 88.394531 295.640625 C 88.859375 295.507812 89.15625 295.046875 89.078125 294.570312 Z M 89.078125 294.570312 " fill-opacity="1" fill-rule="nonzero"/></g></g></g><g clip-path="url(#866d8150d9)"><g clip-path="url(#29eebec59e)"><g clip-path="url(#b16f3de466)"><path fill="#38b6ff" d="M 61.433594 282.320312 L 61.902344 269.589844 C 61.910156 269.316406 61.808594 269.0625 61.613281 268.875 L 57.535156 264.945312 C 57.269531 264.6875 56.871094 264.613281 56.523438 264.753906 C 56.175781 264.894531 55.945312 265.226562 55.929688 265.601562 L 55.492188 277.480469 L 43.640625 278.363281 C 43.265625 278.390625 42.941406 278.632812 42.816406 278.988281 C 42.6875 279.339844 42.777344 279.734375 43.046875 279.992188 L 47.125 283.917969 C 47.316406 284.105469 47.582031 284.195312 47.847656 284.179688 L 60.550781 283.234375 C 61.035156 283.199219 61.414062 282.800781 61.433594 282.320312 Z M 61.433594 282.320312 " fill-opacity="1" fill-rule="nonzero"/></g></g></g><g clip-path="url(#00d928b6df)"><g clip-path="url(#75caf9066b)"><g clip-path="url(#aac01ebd67)"><path fill="#38b6ff" d="M 52.597656 273.808594 L 53.066406 261.078125 C 53.074219 260.808594 52.96875 260.550781 52.777344 260.363281 L 48.699219 256.4375 C 48.429688 256.179688 48.035156 256.101562 47.6875 256.242188 C 47.339844 256.386719 47.109375 256.71875 47.09375 257.089844 L 46.65625 268.96875 L 34.804688 269.851562 C 34.429688 269.878906 34.105469 270.125 33.980469 270.476562 C 33.851562 270.828125 33.941406 271.222656 34.210938 271.480469 L 38.289062 275.410156 C 38.480469 275.59375 38.742188 275.6875 39.011719 275.671875 L 51.714844 274.722656 C 52.199219 274.6875 52.578125 274.289062 52.597656 273.808594 Z M 52.597656 273.808594 " fill-opacity="1" fill-rule="nonzero"/></g></g></g><g clip-path="url(#194fd99266)"><g clip-path="url(#1fa6ef450d)"><g clip-path="url(#6001406294)"><path fill="#5ce1e6" d="M 36.792969 250.25 L 40.734375 238.136719 C 40.816406 237.878906 40.789062 237.601562 40.652344 237.371094 L 37.808594 232.476562 C 37.621094 232.15625 37.261719 231.972656 36.890625 232.011719 C 36.515625 232.054688 36.199219 232.308594 36.085938 232.664062 L 32.410156 243.96875 L 20.769531 241.570312 C 20.402344 241.492188 20.023438 241.640625 19.804688 241.945312 C 19.585938 242.25 19.5625 242.652344 19.75 242.972656 L 22.597656 247.867188 C 22.730469 248.101562 22.957031 248.261719 23.21875 248.316406 L 35.695312 250.890625 C 36.171875 250.988281 36.648438 250.710938 36.792969 250.25 Z M 36.792969 250.25 " fill-opacity="1" fill-rule="nonzero"/></g></g></g><g clip-path="url(#364f3d3b28)"><g clip-path="url(#0a736a82a6)"><g clip-path="url(#19f9b81c11)"><path fill="#5ce1e6" d="M 30.628906 239.644531 L 34.570312 227.53125 C 34.652344 227.273438 34.625 226.996094 34.488281 226.765625 L 31.644531 221.871094 C 31.457031 221.546875 31.097656 221.367188 30.722656 221.40625 C 30.351562 221.449219 30.035156 221.703125 29.921875 222.058594 L 26.246094 233.363281 L 14.601562 230.960938 C 14.238281 230.886719 13.859375 231.035156 13.640625 231.335938 C 13.417969 231.640625 13.398438 232.042969 13.585938 232.367188 L 16.429688 237.261719 C 16.566406 237.492188 16.792969 237.652344 17.054688 237.710938 L 29.53125 240.28125 C 30.003906 240.378906 30.480469 240.105469 30.628906 239.644531 Z M 30.628906 239.644531 " fill-opacity="1" fill-rule="nonzero"/></g></g></g><g clip-path="url(#fb20d05e2d)"><path fill="#38b6ff" d="M 20.015625 200.003906 L 29.507812 191.511719 C 29.710938 191.332031 29.824219 191.078125 29.824219 190.808594 L 29.824219 185.148438 C 29.824219 184.777344 29.605469 184.4375 29.261719 184.285156 C 28.917969 184.132812 28.515625 184.195312 28.242188 184.445312 L 19.378906 192.371094 L 10.523438 184.445312 C 10.242188 184.195312 9.84375 184.132812 9.5 184.285156 C 9.15625 184.4375 8.9375 184.777344 8.9375 185.148438 L 8.9375 190.808594 C 8.9375 191.078125 9.050781 191.332031 9.25 191.511719 L 18.746094 200.003906 C 19.105469 200.328125 19.65625 200.328125 20.015625 200.003906 Z M 20.015625 200.003906 " fill-opacity="1" fill-rule="nonzero"/></g><g clip-path="url(#9ee2984404)"><path fill="#38b6ff" d="M 20.015625 187.738281 L 29.507812 179.242188 C 29.710938 179.0625 29.824219 178.808594 29.824219 178.542969 L 29.824219 172.878906 C 29.824219 172.507812 29.605469 172.171875 29.261719 172.015625 C 28.917969 171.867188 28.515625 171.929688 28.242188 172.175781 L 19.378906 180.101562 L 10.523438 172.175781 C 10.242188 171.929688 9.84375 171.863281 9.5 172.015625 C 9.15625 172.171875 8.9375 172.507812 8.9375 172.878906 L 8.9375 178.542969 C 8.9375 178.808594 9.050781 179.0625 9.25 179.242188 L 18.746094 187.738281 C 19.105469 188.058594 19.65625 188.058594 20.015625 187.738281 Z M 20.015625 187.738281 " fill-opacity="1" fill-rule="nonzero"/></g><g clip-path="url(#ccd372f0c4)"><g clip-path="url(#5539a3a110)"><g clip-path="url(#ef961f6f1e)"><path fill="#38b6ff" d="M 22.28125 145.097656 L 34.921875 143.527344 C 35.191406 143.492188 35.429688 143.347656 35.582031 143.128906 L 38.808594 138.476562 C 39.019531 138.167969 39.03125 137.765625 38.835938 137.445312 C 38.640625 137.125 38.273438 136.949219 37.90625 136.996094 L 26.109375 138.460938 L 23.34375 126.902344 C 23.253906 126.539062 22.960938 126.257812 22.59375 126.191406 C 22.226562 126.121094 21.851562 126.273438 21.640625 126.578125 L 18.414062 131.230469 C 18.261719 131.453125 18.210938 131.726562 18.273438 131.988281 L 21.238281 144.375 C 21.351562 144.847656 21.800781 145.160156 22.28125 145.097656 Z M 22.28125 145.097656 " fill-opacity="1" fill-rule="nonzero"/></g></g></g><g clip-path="url(#d3283ff989)"><g clip-path="url(#b372175038)"><g clip-path="url(#f86d82c663)"><path fill="#38b6ff" d="M 29.269531 135.015625 L 41.910156 133.441406 C 42.179688 133.410156 42.417969 133.265625 42.570312 133.046875 L 45.792969 128.390625 C 46.007812 128.085938 46.019531 127.683594 45.824219 127.363281 C 45.628906 127.042969 45.261719 126.867188 44.894531 126.914062 L 33.097656 128.378906 L 30.332031 116.820312 C 30.242188 116.457031 29.949219 116.175781 29.582031 116.105469 C 29.210938 116.035156 28.839844 116.1875 28.628906 116.492188 L 25.402344 121.148438 C 25.25 121.367188 25.199219 121.640625 25.261719 121.902344 L 28.226562 134.292969 C 28.335938 134.761719 28.789062 135.078125 29.269531 135.015625 Z M 29.269531 135.015625 " fill-opacity="1" fill-rule="nonzero"/></g></g></g><g clip-path="url(#c7a1e779d8)"><g clip-path="url(#062ec36cb3)"><g clip-path="url(#655a76d25e)"><path fill="#38b6ff" d="M 45.109375 108.90625 L 57.78125 110.222656 C 58.050781 110.25 58.3125 110.164062 58.511719 109.984375 L 62.703125 106.175781 C 62.976562 105.925781 63.078125 105.535156 62.960938 105.179688 C 62.84375 104.824219 62.527344 104.570312 62.15625 104.53125 L 50.332031 103.304688 L 50.242188 91.417969 C 50.238281 91.042969 50.015625 90.703125 49.675781 90.554688 C 49.332031 90.402344 48.933594 90.46875 48.65625 90.71875 L 44.464844 94.523438 C 44.265625 94.703125 44.160156 94.960938 44.15625 95.230469 L 44.253906 107.96875 C 44.257812 108.453125 44.628906 108.859375 45.109375 108.90625 Z M 45.109375 108.90625 " fill-opacity="1" fill-rule="nonzero"/></g></g></g><g clip-path="url(#5d3c4d5bb4)"><g clip-path="url(#4fd253f40d)"><g clip-path="url(#0afc936bb5)"><path fill="#38b6ff" d="M 54.1875 100.65625 L 66.859375 101.972656 C 67.128906 102 67.394531 101.914062 67.589844 101.734375 L 71.78125 97.925781 C 72.058594 97.675781 72.160156 97.285156 72.042969 96.929688 C 71.921875 96.574219 71.609375 96.320312 71.238281 96.28125 L 59.414062 95.054688 L 59.324219 83.167969 C 59.320312 82.792969 59.097656 82.453125 58.753906 82.304688 C 58.410156 82.152344 58.011719 82.21875 57.738281 82.46875 L 53.546875 86.273438 C 53.347656 86.457031 53.238281 86.710938 53.238281 86.980469 L 53.335938 99.71875 C 53.339844 100.203125 53.710938 100.609375 54.1875 100.65625 Z M 54.1875 100.65625 " fill-opacity="1" fill-rule="nonzero"/></g></g></g><g clip-path="url(#a861569393)"><g clip-path="url(#2ddfda9fe4)"><g clip-path="url(#b0c0c675e7)"><path fill="#5ce1e6" d="M 75.378906 84.589844 L 87.1875 89.363281 C 87.441406 89.460938 87.71875 89.453125 87.957031 89.335938 L 93.039062 86.835938 C 93.371094 86.671875 93.578125 86.328125 93.566406 85.953125 C 93.550781 85.578125 93.316406 85.246094 92.96875 85.105469 L 81.949219 80.652344 L 85.152344 69.207031 C 85.253906 68.84375 85.136719 68.457031 84.847656 68.21875 C 84.558594 67.976562 84.160156 67.929688 83.824219 68.09375 L 78.742188 70.589844 C 78.503906 70.707031 78.328125 70.925781 78.25 71.179688 L 74.816406 83.449219 C 74.6875 83.914062 74.929688 84.410156 75.378906 84.589844 Z M 75.378906 84.589844 " fill-opacity="1" fill-rule="nonzero"/></g></g></g><g clip-path="url(#7d89bfbf41)"><g clip-path="url(#60144e166f)"><g clip-path="url(#711cb8c6a8)"><path fill="#5ce1e6" d="M 86.386719 79.175781 L 98.199219 83.949219 C 98.449219 84.050781 98.726562 84.042969 98.96875 83.921875 L 104.050781 81.425781 C 104.382812 81.261719 104.589844 80.914062 104.574219 80.539062 C 104.558594 80.164062 104.328125 79.832031 103.980469 79.695312 L 92.960938 75.238281 L 96.164062 63.792969 C 96.265625 63.433594 96.144531 63.046875 95.859375 62.804688 C 95.570312 62.566406 95.167969 62.515625 94.835938 62.679688 L 89.753906 65.179688 C 89.511719 65.296875 89.335938 65.511719 89.261719 65.769531 L 85.828125 78.035156 C 85.695312 78.503906 85.941406 78.996094 86.386719 79.175781 Z M 86.386719 79.175781 " fill-opacity="1" fill-rule="nonzero"/></g></g></g><g clip-path="url(#d9216ef1a0)"><path fill="#38b6ff" d="M 118.214844 68.148438 L 126.707031 77.640625 C 126.890625 77.84375 127.144531 77.957031 127.410156 77.957031 L 133.074219 77.957031 C 133.445312 77.957031 133.78125 77.738281 133.9375 77.394531 C 134.085938 77.050781 134.023438 76.652344 133.773438 76.375 L 125.851562 67.515625 L 133.773438 58.65625 C 134.023438 58.375 134.089844 57.976562 133.9375 57.632812 C 133.78125 57.289062 133.445312 57.070312 133.074219 57.070312 L 127.410156 57.070312 C 127.144531 57.070312 126.890625 57.1875 126.707031 57.382812 L 118.214844 66.878906 C 117.894531 67.238281 117.894531 67.789062 118.214844 68.148438 Z M 118.214844 68.148438 " fill-opacity="1" fill-rule="nonzero"/></g><g clip-path="url(#2d802b1961)"><path fill="#38b6ff" d="M 130.484375 68.148438 L 138.976562 77.640625 C 139.160156 77.84375 139.410156 77.957031 139.679688 77.957031 L 145.339844 77.957031 C 145.714844 77.957031 146.050781 77.738281 146.203125 77.394531 C 146.355469 77.050781 146.292969 76.652344 146.042969 76.375 L 138.117188 67.515625 L 146.042969 58.65625 C 146.292969 58.375 146.355469 57.976562 146.203125 57.632812 C 146.050781 57.289062 145.714844 57.070312 145.339844 57.070312 L 139.679688 57.070312 C 139.410156 57.070312 139.160156 57.1875 138.976562 57.382812 L 130.484375 66.878906 C 130.160156 67.238281 130.160156 67.789062 130.484375 68.148438 Z M 130.484375 68.148438 " fill-opacity="1" fill-rule="nonzero"/></g><g clip-path="url(#390080e1b6)"><g clip-path="url(#4fb4cf0477)"><g clip-path="url(#de33a3baa3)"><path fill="#38b6ff" d="M 154.75 67.308594 L 162.957031 77.050781 C 163.128906 77.257812 163.378906 77.378906 163.648438 77.390625 L 169.308594 77.558594 C 169.679688 77.570312 170.023438 77.359375 170.1875 77.023438 C 170.347656 76.683594 170.296875 76.28125 170.058594 75.996094 L 162.402344 66.902344 L 170.589844 58.289062 C 170.847656 58.015625 170.925781 57.617188 170.78125 57.273438 C 170.640625 56.921875 170.308594 56.691406 169.9375 56.683594 L 164.277344 56.511719 C 164.007812 56.503906 163.753906 56.613281 163.566406 56.804688 L 154.789062 66.039062 C 154.457031 66.386719 154.441406 66.9375 154.75 67.308594 Z M 154.75 67.308594 " fill-opacity="1" fill-rule="nonzero"/></g></g></g><g clip-path="url(#457ee5b568)"><g clip-path="url(#b6282b9e46)"><g clip-path="url(#ec23397123)"><path fill="#38b6ff" d="M 167.015625 67.675781 L 175.21875 77.421875 C 175.394531 77.628906 175.640625 77.75 175.910156 77.757812 L 181.570312 77.929688 C 181.941406 77.941406 182.285156 77.730469 182.449219 77.394531 C 182.609375 77.054688 182.558594 76.652344 182.320312 76.367188 L 174.664062 67.273438 L 182.851562 58.65625 C 183.109375 58.386719 183.1875 57.988281 183.042969 57.640625 C 182.902344 57.292969 182.570312 57.0625 182.199219 57.050781 L 176.539062 56.878906 C 176.269531 56.871094 176.015625 56.980469 175.828125 57.171875 L 167.050781 66.40625 C 166.71875 66.757812 166.703125 67.308594 167.015625 67.675781 Z M 167.015625 67.675781 " fill-opacity="1" fill-rule="nonzero"/></g></g></g><g clip-path="url(#6f25d07504)"><g clip-path="url(#1f2c71cd96)"><g clip-path="url(#45c5b43b7e)"><path fill="#38b6ff" d="M 266.402344 67.308594 L 274.609375 77.050781 C 274.78125 77.257812 275.03125 77.378906 275.300781 77.390625 L 280.960938 77.558594 C 281.332031 77.570312 281.675781 77.359375 281.839844 77.023438 C 282 76.683594 281.949219 76.28125 281.710938 75.996094 L 274.054688 66.902344 L 282.242188 58.289062 C 282.5 58.015625 282.578125 57.617188 282.433594 57.273438 C 282.292969 56.921875 281.960938 56.691406 281.589844 56.683594 L 275.929688 56.511719 C 275.660156 56.503906 275.40625 56.613281 275.21875 56.804688 L 266.441406 66.039062 C 266.109375 66.386719 266.09375 66.9375 266.402344 67.308594 Z M 266.402344 67.308594 " fill-opacity="1" fill-rule="nonzero"/></g></g></g><g clip-path="url(#27914d03af)"><g clip-path="url(#dc001cd385)"><g clip-path="url(#39efdca040)"><path fill="#38b6ff" d="M 278.667969 67.675781 L 286.871094 77.421875 C 287.046875 77.628906 287.292969 77.75 287.5625 77.757812 L 293.222656 77.929688 C 293.59375 77.941406 293.9375 77.730469 294.101562 77.394531 C 294.261719 77.054688 294.210938 76.652344 293.972656 76.367188 L 286.316406 67.273438 L 294.503906 58.65625 C 294.761719 58.386719 294.839844 57.988281 294.695312 57.640625 C 294.554688 57.292969 294.222656 57.0625 293.851562 57.050781 L 288.191406 56.878906 C 287.921875 56.871094 287.667969 56.980469 287.480469 57.171875 L 278.703125 66.40625 C 278.371094 66.757812 278.355469 67.308594 278.667969 67.675781 Z M 278.667969 67.675781 " fill-opacity="1" fill-rule="nonzero"/></g></g></g><g clip-path="url(#fa51539ba3)"><g clip-path="url(#0d85061860)"><g clip-path="url(#53f01f5326)"><path fill="#5ce1e6" d="M 229.277344 67.308594 L 237.484375 77.050781 C 237.65625 77.257812 237.90625 77.378906 238.175781 77.390625 L 243.835938 77.558594 C 244.207031 77.570312 244.550781 77.359375 244.714844 77.023438 C 244.875 76.683594 244.824219 76.28125 244.585938 75.996094 L 236.929688 66.902344 L 245.117188 58.289062 C 245.375 58.015625 245.453125 57.617188 245.308594 57.273438 C 245.167969 56.921875 244.835938 56.691406 244.464844 56.683594 L 238.804688 56.511719 C 238.535156 56.503906 238.28125 56.613281 238.09375 56.804688 L 229.316406 66.039062 C 228.984375 66.386719 228.96875 66.9375 229.277344 67.308594 Z M 229.277344 67.308594 " fill-opacity="1" fill-rule="nonzero"/></g></g></g><g clip-path="url(#0cc6145a6c)"><g clip-path="url(#d103e09a38)"><g clip-path="url(#17369fb539)"><path fill="#5ce1e6" d="M 241.542969 67.675781 L 249.746094 77.421875 C 249.921875 77.628906 250.167969 77.75 250.4375 77.757812 L 256.097656 77.929688 C 256.46875 77.941406 256.8125 77.730469 256.976562 77.394531 C 257.136719 77.054688 257.085938 76.652344 256.847656 76.367188 L 249.191406 67.273438 L 257.378906 58.65625 C 257.636719 58.386719 257.714844 57.988281 257.570312 57.640625 C 257.429688 57.292969 257.097656 57.0625 256.726562 57.050781 L 251.066406 56.878906 C 250.796875 56.871094 250.542969 56.980469 250.355469 57.171875 L 241.578125 66.40625 C 241.246094 66.757812 241.230469 67.308594 241.542969 67.675781 Z M 241.542969 67.675781 " fill-opacity="1" fill-rule="nonzero"/></g></g></g><g clip-path="url(#102e29a153)"><g clip-path="url(#49c9408d08)"><g clip-path="url(#5a7207733f)"><path fill="#38b6ff" d="M 192.761719 67.308594 L 200.964844 77.050781 C 201.140625 77.257812 201.390625 77.378906 201.660156 77.390625 L 207.316406 77.558594 C 207.691406 77.570312 208.035156 77.359375 208.199219 77.023438 C 208.359375 76.683594 208.308594 76.28125 208.066406 75.996094 L 200.414062 66.902344 L 208.601562 58.289062 C 208.859375 58.015625 208.933594 57.617188 208.792969 57.273438 C 208.648438 56.921875 208.320312 56.691406 207.945312 56.683594 L 202.289062 56.511719 C 202.019531 56.503906 201.761719 56.613281 201.574219 56.804688 L 192.800781 66.039062 C 192.46875 66.386719 192.449219 66.9375 192.761719 67.308594 Z M 192.761719 67.308594 " fill-opacity="1" fill-rule="nonzero"/></g></g></g><g clip-path="url(#5a32957193)"><g clip-path="url(#260014c392)"><g clip-path="url(#b5e99c0017)"><path fill="#38b6ff" d="M 205.023438 67.675781 L 213.230469 77.421875 C 213.402344 77.628906 213.652344 77.75 213.921875 77.757812 L 219.582031 77.929688 C 219.953125 77.941406 220.296875 77.730469 220.460938 77.394531 C 220.621094 77.054688 220.570312 76.652344 220.332031 76.367188 L 212.675781 67.273438 L 220.863281 58.65625 C 221.121094 58.386719 221.199219 57.988281 221.054688 57.640625 C 220.914062 57.292969 220.582031 57.0625 220.210938 57.050781 L 214.550781 56.878906 C 214.28125 56.871094 214.027344 56.980469 213.839844 57.171875 L 205.0625 66.40625 C 204.730469 66.757812 204.714844 67.308594 205.023438 67.675781 Z M 205.023438 67.675781 " fill-opacity="1" fill-rule="nonzero"/></g></g></g></svg>