<svg xmlns="http://www.w3.org/2000/svg" width="450" viewBox="0 0 337.5 375" height="500" version="1.0"><defs><clipPath id="prefix__a"><path d="M0 52.777h303.75V323H0zm0 0"/></clipPath><clipPath id="prefix__b"><path d="M7.918 142.824C3.137 156.668 0 172.406 0 187.852c0 15.445 2.688 30.304 7.469 44.003.152.29.152.583.3.875 19.122 51.434 69.622 89.317 127.887 90.047H303.75v-270H135.781C77.094 53.504 26.594 90.81 7.918 142.824"/></clipPath><clipPath id="prefix__c"><path d="M0 52.777h303.75v270H0zm0 0"/></clipPath><clipPath id="prefix__d"><path d="M7.918 142.824C3.137 156.668 0 172.406 0 187.852c0 15.445 2.688 30.304 7.469 44.003.152.29.152.583.3.875 19.122 51.434 69.622 89.317 127.887 90.047H303.75v-270H135.781C77.094 53.504 26.594 90.81 7.918 142.824"/></clipPath><clipPath id="prefix__e"><path d="M34 77h217v217H34zm0 0"/></clipPath><clipPath id="prefix__f"><path d="M-9.855 183.05L145.735 32.81l150.242 155.59-155.59 150.242zm0 0"/></clipPath><clipPath id="prefix__g"><path d="M67.836 108.031c-42.906 41.43-44.106 109.801-2.672 152.711 41.434 42.906 109.805 44.102 152.711 2.668 42.91-41.43 44.105-109.8 2.672-152.71-41.434-42.907-109.805-44.102-152.711-2.669"/></clipPath><clipPath id="prefix__h"><path d="M34 77h217v217H34zm0 0"/></clipPath><clipPath id="prefix__i"><path d="M-9.855 183.05L145.527 33.009l150.04 155.383-155.383 150.043zm0 0"/></clipPath><clipPath id="prefix__j"><path d="M-9.855 183.05L147.723 30.888l152.164 157.582-157.578 152.16zm0 0"/></clipPath><clipPath id="prefix__k"><path d="M67.836 108.031c-42.906 41.43-44.106 109.801-2.672 152.711 41.434 42.906 109.805 44.102 152.711 2.668 42.91-41.43 44.105-109.8 2.672-152.71-41.434-42.907-109.805-44.102-152.711-2.669"/></clipPath><clipPath id="prefix__l"><path d="M87 133h36v36H87zm0 0"/></clipPath><clipPath id="prefix__m"><path d="M87.852 146.11l12.746-12.942 22.746 22.398-12.746 12.942zm0 0"/></clipPath><clipPath id="prefix__n"><path d="M87.852 146.11l12.464-12.66 22.606 22.26-12.465 12.661zm0 0"/></clipPath><clipPath id="prefix__o"><path d="M169 160h36v26h-36zm0 0"/></clipPath><clipPath id="prefix__p"><path d="M174.043 185.195l-4.645-17.558 30.864-8.164 4.644 17.562zm0 0"/></clipPath><clipPath id="prefix__q"><path d="M174.043 185.195L169.5 168.02l30.676-8.11 4.539 17.176zm0 0"/></clipPath><clipPath id="prefix__r"><path d="M105 150h83v83h-83zm0 0"/></clipPath><clipPath id="prefix__s"><path d="M168.355 243.383l-82.363-21.797 18.93-71.527 82.363 21.796zm0 0"/></clipPath><clipPath id="prefix__t"><path d="M127.488 232.566l-22.117-81.648 81.73 21.633-59.613 60.015"/></clipPath><clipPath id="prefix__u"><path d="M117 207h26v36h-26zm0 0"/></clipPath><clipPath id="prefix__v"><path d="M134.063 242.477l-17.56-4.649 8.169-30.863 17.558 4.648zm0 0"/></clipPath><clipPath id="prefix__w"><path d="M134.063 242.477l-17.176-4.547 8.117-30.672 17.176 4.543zm0 0"/></clipPath><clipPath id="prefix__x"><path d="M92 232h57v56H92zm0 0"/></clipPath><clipPath id="prefix__y"><path d="M154.66 241.09l-15.465 53.43-53.43-15.465 15.465-53.43zm0 0"/></clipPath><clipPath id="prefix__z"><path d="M146.926 267.805c4.27-14.754-4.227-30.176-18.98-34.446-14.755-4.273-30.176 4.227-34.45 18.98-4.27 14.755 4.23 30.177 18.984 34.446 14.754 4.274 30.176-4.226 34.446-18.98"/></clipPath><clipPath id="prefix__A"><path d="M92 232h57v56H92zm0 0"/></clipPath><clipPath id="prefix__B"><path d="M154.66 241.09l-15.433 53.312-53.309-15.43 15.43-53.312zm0 0"/></clipPath><clipPath id="prefix__C"><path d="M154.66 241.09l-15.433 53.312-53.309-15.43 15.43-53.312zm0 0"/></clipPath><clipPath id="prefix__D"><path d="M146.945 267.746c4.258-14.723-4.218-30.11-18.941-34.371-14.723-4.262-30.11 4.219-34.371 18.941-4.262 14.72 4.219 30.11 18.937 34.371 14.723 4.262 30.114-4.218 34.375-18.94"/></clipPath><clipPath id="prefix__E"><path d="M188 136h56v57h-56zm0 0"/></clipPath><clipPath id="prefix__F"><path d="M250.156 184.285l-53.687 14.543-14.54-53.687 53.688-14.543zm0 0"/></clipPath><clipPath id="prefix__G"><path d="M223.313 191.559c14.828-4.016 23.59-19.29 19.574-34.118-4.016-14.824-19.29-23.586-34.114-19.57-14.824 4.016-23.59 19.29-19.574 34.113 4.016 14.825 19.29 23.59 34.113 19.575"/></clipPath><clipPath id="prefix__H"><path d="M188 137h56v56h-56zm0 0"/></clipPath><clipPath id="prefix__I"><path d="M250.156 184.285l-53.566 14.512-14.512-53.57 53.57-14.508zm0 0"/></clipPath><clipPath id="prefix__J"><path d="M250.156 184.285l-53.566 14.512-14.512-53.57 53.57-14.508zm0 0"/></clipPath><clipPath id="prefix__K"><path d="M223.371 191.543c14.793-4.008 23.54-19.25 19.531-34.043-4.004-14.793-19.246-23.535-34.039-19.527-14.793 4.004-23.535 19.246-19.531 34.039 4.008 14.793 19.246 23.535 34.04 19.531"/></clipPath><clipPath id="prefix__L"><path d="M59 104h56v57H59zm0 0"/></clipPath><clipPath id="prefix__M"><path d="M121.621 113.598l-15.465 53.43-53.43-15.465 15.465-53.43zm0 0"/></clipPath><clipPath id="prefix__N"><path d="M113.887 140.313c4.27-14.754-4.227-30.176-18.98-34.446-14.755-4.27-30.18 4.227-34.45 18.98-4.27 14.755 4.23 30.176 18.984 34.45 14.754 4.27 30.176-4.23 34.446-18.984"/></clipPath><clipPath id="prefix__O"><path d="M59 104h57v57H59zm0 0"/></clipPath><clipPath id="prefix__P"><path d="M121.621 113.598l-15.433 53.312-53.313-15.43 15.434-53.312zm0 0"/></clipPath><clipPath id="prefix__Q"><path d="M121.621 113.598l-15.433 53.312-53.313-15.43 15.434-53.312zm0 0"/></clipPath><clipPath id="prefix__R"><path d="M113.902 140.254c4.262-14.723-4.218-30.11-18.937-34.371-14.723-4.262-30.113 4.219-34.371 18.941-4.262 14.723 4.218 30.11 18.937 34.371 14.723 4.262 30.114-4.218 34.371-18.941"/></clipPath><clipPath id="prefix__S"><path d="M113 253h15v15h-15zm0 0"/></clipPath><clipPath id="prefix__T"><path d="M125.176 268.602l-13.492-3.57 3.57-13.493 13.496 3.57zm0 0"/></clipPath><clipPath id="prefix__U"><path d="M118.43 266.816a6.98 6.98 0 008.535-4.96 6.98 6.98 0 00-4.965-8.532 6.975 6.975 0 00-8.531 4.961 6.975 6.975 0 004.96 8.531"/></clipPath><clipPath id="prefix__V"><path d="M209 157h15v15h-15zm0 0"/></clipPath><clipPath id="prefix__W"><path d="M211.137 173.277l-3.649-13.476 13.473-3.649 3.648 13.473zm0 0"/></clipPath><clipPath id="prefix__X"><path d="M209.313 166.54a6.98 6.98 0 1013.472-3.65 6.98 6.98 0 10-13.472 3.65"/></clipPath><clipPath id="prefix__Y"><path d="M79 126h15v15H79zm0 0"/></clipPath><clipPath id="prefix__Z"><path d="M91.422 141.863l-13.496-3.57 3.57-13.496 13.496 3.57zm0 0"/></clipPath><clipPath id="prefix__aa"><path d="M84.672 140.078a6.984 6.984 0 008.535-4.96 6.984 6.984 0 00-4.96-8.536 6.984 6.984 0 00-8.536 4.961 6.984 6.984 0 004.96 8.535"/></clipPath><clipPath id="prefix__ab"><path d="M70 177h20v46H70zm0 0"/></clipPath><clipPath id="prefix__ac"><path d="M76.102 177.059l16.343 44.332-12.668 4.672-16.34-44.336zm0 0"/></clipPath><clipPath id="prefix__ad"><path d="M76.102 177.059l16.343 44.332-12.668 4.672-16.34-44.336zm0 0"/></clipPath><clipPath id="prefix__ae"><path d="M76.102 177.059l16.343 44.332-12.668 4.672-16.34-44.336zm0 0"/></clipPath><clipPath id="prefix__af"><path d="M72 185h1v2h-1zm0 0"/></clipPath><clipPath id="prefix__ag"><path d="M76.102 177.059l16.343 44.332-12.668 4.672-16.34-44.336zm0 0"/></clipPath><clipPath id="prefix__ah"><path d="M76.102 177.059l16.343 44.332-12.668 4.672-16.34-44.336zm0 0"/></clipPath><clipPath id="prefix__ai"><path d="M76.102 177.059l16.343 44.332-12.668 4.672-16.34-44.336zm0 0"/></clipPath><clipPath id="prefix__aj"><path d="M134 110h45v23h-45zm0 0"/></clipPath><clipPath id="prefix__ak"><path d="M178.078 132.848l-45.66-12.157 3.473-13.043 45.66 12.153zm0 0"/></clipPath><clipPath id="prefix__al"><path d="M178.078 132.848l-45.66-12.157 3.473-13.043 45.66 12.153zm0 0"/></clipPath><clipPath id="prefix__am"><path d="M178.078 132.848l-45.66-12.157 3.473-13.043 45.66 12.153zm0 0"/></clipPath><clipPath id="prefix__an"><path d="M172 124h1v2h-1zm0 0"/></clipPath><clipPath id="prefix__ao"><path d="M178.078 132.848l-45.66-12.157 3.473-13.043 45.66 12.153zm0 0"/></clipPath><clipPath id="prefix__ap"><path d="M178.078 132.848l-45.66-12.157 3.473-13.043 45.66 12.153zm0 0"/></clipPath><clipPath id="prefix__aq"><path d="M178.078 132.848l-45.66-12.157 3.473-13.043 45.66 12.153zm0 0"/></clipPath><clipPath id="prefix__ar"><path d="M167 214h40v30h-40zm0 0"/></clipPath><clipPath id="prefix__as"><path d="M167 241.473l36.012-30.59 8.738 10.289-36.012 30.59zm0 0"/></clipPath><clipPath id="prefix__at"><path d="M167 241.473l36.012-30.59 8.738 10.289-36.012 30.59zm0 0"/></clipPath><clipPath id="prefix__au"><path d="M167 241.473l36.012-30.59 8.738 10.289-36.012 30.59zm0 0"/></clipPath><clipPath id="prefix__av"><path d="M176 241h1v1h-1zm0 0"/></clipPath><clipPath id="prefix__aw"><path d="M167 241.473l36.012-30.59 8.738 10.289-36.012 30.59zm0 0"/></clipPath><clipPath id="prefix__ax"><path d="M167 241.473l36.012-30.59 8.738 10.289-36.012 30.59zm0 0"/></clipPath><clipPath id="prefix__ay"><path d="M167 241.473l36.012-30.59 8.738 10.289-36.012 30.59zm0 0"/></clipPath><clipPath id="prefix__az"><path d="M278 297.129h17v21h-17zm0 0"/></clipPath><clipPath id="prefix__aA"><path d="M266.625 297.129H283v21h-16.375zm0 0"/></clipPath><clipPath id="prefix__aB"><path d="M241 297.129h17v21h-17zm0 0"/></clipPath><clipPath id="prefix__aC"><path d="M229.5 297.129H246v21h-16.5zm0 0"/></clipPath><clipPath id="prefix__aD"><path d="M204 297.129h16.875v21H204zm0 0"/></clipPath><clipPath id="prefix__aE"><path d="M192.375 297.129H209v21h-16.625zm0 0"/></clipPath><clipPath id="prefix__aF"><path d="M167 297.129h16.75v21H167zm0 0"/></clipPath><clipPath id="prefix__aG"><path d="M155.25 297.129H172v21h-16.75zm0 0"/></clipPath><clipPath id="prefix__aH"><path d="M130 297h17v22h-17zm0 0"/></clipPath><clipPath id="prefix__aI"><path d="M117.945 297.379l28.496-.504.371 20.996-28.496.504zm0 0"/></clipPath><clipPath id="prefix__aJ"><path d="M117.945 297.379l28.496-.504.371 20.996-28.496.504zm0 0"/></clipPath><clipPath id="prefix__aK"><path d="M117 297h18v22h-18zm0 0"/></clipPath><clipPath id="prefix__aL"><path d="M117.945 297.379l28.496-.504.371 20.996-28.496.504zm0 0"/></clipPath><clipPath id="prefix__aM"><path d="M117.945 297.379l28.496-.504.371 20.996-28.496.504zm0 0"/></clipPath><clipPath id="prefix__aN"><path d="M80 284h20v22H80zm0 0"/></clipPath><clipPath id="prefix__aO"><path d="M81.105 277.734l23.989 15.387-11.336 17.676-23.992-15.387zm0 0"/></clipPath><clipPath id="prefix__aP"><path d="M81.105 277.734l23.989 15.387-11.336 17.676-23.992-15.387zm0 0"/></clipPath><clipPath id="prefix__aQ"><path d="M70 278h20v22H70zm0 0"/></clipPath><clipPath id="prefix__aR"><path d="M81.105 277.734l23.989 15.387-11.336 17.676-23.992-15.387zm0 0"/></clipPath><clipPath id="prefix__aS"><path d="M81.105 277.734l23.989 15.387-11.336 17.676-23.992-15.387zm0 0"/></clipPath><clipPath id="prefix__aT"><path d="M42 264h20v21H42zm0 0"/></clipPath><clipPath id="prefix__aU"><path d="M48.059 255.742l20.527 19.77-14.566 15.125-20.528-19.77zm0 0"/></clipPath><clipPath id="prefix__aV"><path d="M48.059 255.742l20.527 19.77-14.566 15.125-20.528-19.77zm0 0"/></clipPath><clipPath id="prefix__aW"><path d="M33 256h21v20H33zm0 0"/></clipPath><clipPath id="prefix__aX"><path d="M48.059 255.742l20.527 19.77-14.566 15.125-20.528-19.77zm0 0"/></clipPath><clipPath id="prefix__aY"><path d="M48.059 255.742l20.527 19.77-14.566 15.125-20.528-19.77zm0 0"/></clipPath><clipPath id="prefix__aZ"><path d="M19 232h22v19H19zm0 0"/></clipPath><clipPath id="prefix__ba"><path d="M31.219 221.023l14.32 24.641-18.152 10.555-14.325-24.64zm0 0"/></clipPath><clipPath id="prefix__bb"><path d="M31.219 221.023l14.32 24.641-18.152 10.555-14.325-24.64zm0 0"/></clipPath><clipPath id="prefix__bc"><path d="M13 221h22v20H13zm0 0"/></clipPath><clipPath id="prefix__bd"><path d="M31.219 221.023l14.32 24.641-18.152 10.555-14.325-24.64zm0 0"/></clipPath><clipPath id="prefix__be"><path d="M31.219 221.023l14.32 24.641-18.152 10.555-14.325-24.64zm0 0"/></clipPath><clipPath id="prefix__bf"><path d="M8.879 184h21v16.438h-21zm0 0"/></clipPath><clipPath id="prefix__bg"><path d="M8.879 171.938h21V188h-21zm0 0"/></clipPath><clipPath id="prefix__bh"><path d="M18 126h21v20H18zm0 0"/></clipPath><clipPath id="prefix__bi"><path d="M46.379 127.648l-16.234 23.426-17.262-11.965 16.234-23.422zm0 0"/></clipPath><clipPath id="prefix__bj"><path d="M46.379 127.648l-16.234 23.426-17.262-11.965 16.234-23.422zm0 0"/></clipPath><clipPath id="prefix__bk"><path d="M25 116h21v20H25zm0 0"/></clipPath><clipPath id="prefix__bl"><path d="M46.379 127.648l-16.234 23.426-17.262-11.965 16.234-23.422zm0 0"/></clipPath><clipPath id="prefix__bm"><path d="M46.379 127.648l-16.234 23.426-17.262-11.965 16.234-23.422zm0 0"/></clipPath><clipPath id="prefix__bn"><path d="M44 90h20v21H44zm0 0"/></clipPath><clipPath id="prefix__bo"><path d="M72.52 97.336L51.426 116.5l-14.121-15.543 21.093-19.164zm0 0"/></clipPath><clipPath id="prefix__bp"><path d="M72.52 97.336L51.426 116.5l-14.121-15.543 21.093-19.164zm0 0"/></clipPath><clipPath id="prefix__bq"><path d="M53 82h20v20H53zm0 0"/></clipPath><clipPath id="prefix__br"><path d="M72.52 97.336L51.426 116.5l-14.121-15.543 21.093-19.164zm0 0"/></clipPath><clipPath id="prefix__bs"><path d="M72.52 97.336L51.426 116.5l-14.121-15.543 21.093-19.164zm0 0"/></clipPath><clipPath id="prefix__bt"><path d="M74 67h20v23H74zm0 0"/></clipPath><clipPath id="prefix__bu"><path d="M104.922 81.059L79.344 93.633l-9.266-18.848 25.578-12.57zm0 0"/></clipPath><clipPath id="prefix__bv"><path d="M104.922 81.059L79.344 93.633l-9.266-18.848 25.578-12.57zm0 0"/></clipPath><clipPath id="prefix__bw"><path d="M85 62h20v23H85zm0 0"/></clipPath><clipPath id="prefix__bx"><path d="M104.922 81.059L79.344 93.633l-9.266-18.848 25.578-12.57zm0 0"/></clipPath><clipPath id="prefix__by"><path d="M104.922 81.059L79.344 93.633l-9.266-18.848 25.578-12.57zm0 0"/></clipPath><clipPath id="prefix__bz"><path d="M117.785 57.016H135V78h-17.215zm0 0"/></clipPath><clipPath id="prefix__bA"><path d="M130 57.016h16.285V78H130zm0 0"/></clipPath><clipPath id="prefix__bB"><path d="M154 56h17v22h-17zm0 0"/></clipPath><clipPath id="prefix__bC"><path d="M182.512 78.012l-28.489-.856.633-20.992 28.489.86zm0 0"/></clipPath><clipPath id="prefix__bD"><path d="M182.512 78.012l-28.489-.856.633-20.992 28.489.86zm0 0"/></clipPath><clipPath id="prefix__bE"><path d="M166 56h18v22h-18zm0 0"/></clipPath><clipPath id="prefix__bF"><path d="M182.512 78.012l-28.489-.856.633-20.992 28.489.86zm0 0"/></clipPath><clipPath id="prefix__bG"><path d="M182.512 78.012l-28.489-.856.633-20.992 28.489.86zm0 0"/></clipPath><clipPath id="prefix__bH"><path d="M266 56h17v22h-17zm0 0"/></clipPath><clipPath id="prefix__bI"><path d="M294.164 78.012l-28.488-.856.633-20.992 28.488.86zm0 0"/></clipPath><clipPath id="prefix__bJ"><path d="M294.164 78.012l-28.488-.856.633-20.992 28.488.86zm0 0"/></clipPath><clipPath id="prefix__bK"><path d="M278 56h17v22h-17zm0 0"/></clipPath><clipPath id="prefix__bL"><path d="M294.164 78.012l-28.488-.856.633-20.992 28.488.86zm0 0"/></clipPath><clipPath id="prefix__bM"><path d="M294.164 78.012l-28.488-.856.633-20.992 28.488.86zm0 0"/></clipPath><clipPath id="prefix__bN"><path d="M229 56h17v22h-17zm0 0"/></clipPath><clipPath id="prefix__bO"><path d="M257.04 78.012l-28.49-.856.634-20.992 28.488.86zm0 0"/></clipPath><clipPath id="prefix__bP"><path d="M257.04 78.012l-28.49-.856.634-20.992 28.488.86zm0 0"/></clipPath><clipPath id="prefix__bQ"><path d="M241 56h17v22h-17zm0 0"/></clipPath><clipPath id="prefix__bR"><path d="M257.04 78.012l-28.49-.856.634-20.992 28.488.86zm0 0"/></clipPath><clipPath id="prefix__bS"><path d="M257.04 78.012l-28.49-.856.634-20.992 28.488.86zm0 0"/></clipPath><clipPath id="prefix__bT"><path d="M192 56h17v22h-17zm0 0"/></clipPath><clipPath id="prefix__bU"><path d="M220.523 78.012l-28.488-.856.633-20.992 28.488.86zm0 0"/></clipPath><clipPath id="prefix__bV"><path d="M220.523 78.012l-28.488-.856.633-20.992 28.488.86zm0 0"/></clipPath><clipPath id="prefix__bW"><path d="M204 56h18v22h-18zm0 0"/></clipPath><clipPath id="prefix__bX"><path d="M220.523 78.012l-28.488-.856.633-20.992 28.488.86zm0 0"/></clipPath><clipPath id="prefix__bY"><path d="M220.523 78.012l-28.488-.856.633-20.992 28.488.86zm0 0"/></clipPath></defs><g clip-path="url(#prefix__a)"><g clip-path="url(#prefix__b)"><path fill="#737373" d="M303.75 52.777V323.04H-.133V52.777zm0 0"/></g></g><g clip-path="url(#prefix__c)"><g clip-path="url(#prefix__d)"><path fill="none" d="M7.918 142.824C3.137 156.668 0 172.406 0 187.852c0 15.445 2.687 30.304 7.469 44.003.152.29.152.583.3.875 19.122 51.434 69.622 89.317 127.887 90.047H303.75v-270H135.781C77.094 53.504 26.594 90.81 7.918 142.824" stroke="#000" stroke-width="3"/></g></g><g clip-path="url(#prefix__e)"><g clip-path="url(#prefix__f)"><g clip-path="url(#prefix__g)"><path fill="#a6a6a6" d="M-9.855 183.05l155.19-149.859 149.86 155.196L140 338.242zm0 0"/></g></g></g><g clip-path="url(#prefix__h)"><g clip-path="url(#prefix__i)"><g clip-path="url(#prefix__j)"><g clip-path="url(#prefix__k)"><path fill="none" d="M67.836 108.031c-42.906 41.43-44.106 109.801-2.672 152.711 41.434 42.906 109.805 44.102 152.711 2.668 42.91-41.43 44.105-109.8 2.672-152.71-41.434-42.907-109.805-44.102-152.711-2.669" stroke="#000" stroke-width="6"/></g></g></g></g><g clip-path="url(#prefix__l)"><g clip-path="url(#prefix__m)"><g clip-path="url(#prefix__n)"><path fill="#ffde59" d="M87.852 146.11l12.359-12.551 22.746 22.402-12.36 12.547zm0 0"/></g></g></g><g clip-path="url(#prefix__o)"><g clip-path="url(#prefix__p)"><g clip-path="url(#prefix__q)"><path fill="#ffde59" d="M174.043 185.195l-4.504-17.027 30.863-8.16 4.504 17.027zm0 0"/></g></g></g><g clip-path="url(#prefix__r)"><g clip-path="url(#prefix__s)"><g clip-path="url(#prefix__t)"><path fill="#ffde59" d="M168.355 243.383l-81.64-21.606 18.738-70.804 81.64 21.605zm0 0"/></g></g></g><g clip-path="url(#prefix__u)"><g clip-path="url(#prefix__v)"><g clip-path="url(#prefix__w)"><path fill="#ffde59" d="M134.063 242.477l-17.028-4.508 8.168-30.864 17.027 4.508zm0 0"/></g></g></g><g clip-path="url(#prefix__x)"><g clip-path="url(#prefix__y)"><g clip-path="url(#prefix__z)"><path fill="#ffde59" d="M154.66 241.09l-15.465 53.43-53.43-15.465 15.465-53.43zm0 0"/></g></g></g><g clip-path="url(#prefix__A)"><g clip-path="url(#prefix__B)"><g clip-path="url(#prefix__C)"><g clip-path="url(#prefix__D)"><path d="M144.066 266.914c1.547-5.336 1.325-10.586-.664-15.754l5.586-2.152c2.473 6.422 2.75 12.945.832 19.57zm-1.757-18.195c-2.54-4.942-6.301-8.61-11.278-10.996l2.59-5.399c6.188 2.969 10.86 7.524 14.012 13.656zm-13.743-12.02a25.18 25.18 0 00-1.394-.449c-4.828-1.398-9.629-1.336-14.395.188l-1.82-5.704c5.922-1.89 11.883-1.968 17.879-.234a29.59 29.59 0 011.726.555zm-18.289.688c-5.086 2.254-8.965 5.797-11.64 10.629l-5.239-2.903c3.325-6.004 8.145-10.406 14.454-13.199zm-12.8 13.015c-.375.895-.7 1.809-.97 2.746-1.253 4.332-1.323 8.668-.21 13.012l-5.8 1.488c-1.384-5.398-1.298-10.785.26-16.164.337-1.16.735-2.293 1.2-3.402zm-.38 18.305c1.954 5.203 5.262 9.281 9.926 12.238L103.82 286c-5.797-3.672-9.906-8.734-12.328-15.191zm12.262 13.543a24.842 24.842 0 004.047 1.563c3.84 1.109 7.711 1.285 11.606.527l1.144 5.875c-4.84.945-9.648.726-14.418-.652a31.04 31.04 0 01-5.015-1.938zm18.239 1.438c5.304-1.649 9.57-4.715 12.797-9.204l4.863 3.496c-4.008 5.575-9.305 9.383-15.887 11.426zm14.238-11.458a24.779 24.779 0 002.23-5.316l5.754 1.664a30.835 30.835 0 01-2.77 6.598zm0 0"/></g></g></g></g><g clip-path="url(#prefix__E)"><g clip-path="url(#prefix__F)"><g clip-path="url(#prefix__G)"><path fill="#ffde59" d="M250.156 184.285l-53.687 14.543-14.54-53.687 53.688-14.543zm0 0"/></g></g></g><g clip-path="url(#prefix__H)"><g clip-path="url(#prefix__I)"><g clip-path="url(#prefix__J)"><g clip-path="url(#prefix__K)"><path d="M222.59 188.652c5.363-1.453 9.734-4.37 13.117-8.754l4.738 3.657c-4.203 5.449-9.632 9.074-16.289 10.875zm14.633-10.957c2.906-4.738 4.082-9.851 3.539-15.347l5.957-.594c.68 6.832-.785 13.187-4.39 19.07zm3.132-17.984c-.101-.48-.214-.953-.34-1.426-1.316-4.851-3.863-8.918-7.636-12.203l3.926-4.52c4.695 4.083 7.855 9.133 9.488 15.157.16.586.3 1.172.422 1.765zm-10.09-15.27c-4.566-3.175-9.609-4.652-15.128-4.43l-.242-5.98c6.859-.277 13.125 1.551 18.789 5.492zm-17.769-4.175c-.957.14-1.91.34-2.851.593-4.352 1.18-8.094 3.375-11.227 6.582l-4.281-4.183c3.89-3.988 8.539-6.711 13.945-8.176a30.418 30.418 0 013.527-.738zm-15.836 9.183c-3.433 4.371-5.2 9.317-5.3 14.84l-5.989-.113c.129-6.86 2.32-13 6.578-18.426zm-5.203 17.512c.129 1.437.387 2.86.766 4.266 1.047 3.863 2.906 7.257 5.578 10.191l-4.426 4.035c-3.324-3.648-5.633-7.867-6.93-12.66a31.027 31.027 0 01-.953-5.293zm8.246 16.332c4.16 3.676 8.996 5.727 14.512 6.152l-.461 5.973c-6.848-.531-12.852-3.074-18.016-7.64zm17.184 6.215a24.865 24.865 0 005.703-.856l1.566 5.778a30.717 30.717 0 01-7.078 1.062zm0 0"/></g></g></g></g><g clip-path="url(#prefix__L)"><g clip-path="url(#prefix__M)"><g clip-path="url(#prefix__N)"><path fill="#ffde59" d="M121.621 113.598l-15.465 53.43-53.43-15.465 15.465-53.43zm0 0"/></g></g></g><g clip-path="url(#prefix__O)"><g clip-path="url(#prefix__P)"><g clip-path="url(#prefix__Q)"><g clip-path="url(#prefix__R)"><path d="M111.027 139.422c1.547-5.336 1.325-10.586-.664-15.754l5.586-2.148c2.473 6.418 2.746 12.94.832 19.566zm-1.757-18.195c-2.54-4.942-6.301-8.606-11.278-10.997l2.59-5.398c6.188 2.969 10.86 7.523 14.012 13.66zm-13.743-12.02a25.18 25.18 0 00-1.394-.45c-4.832-1.398-9.63-1.335-14.395.188l-1.82-5.703c5.922-1.89 11.883-1.969 17.879-.234a29.59 29.59 0 011.726.555zm-18.289.691c-5.086 2.25-8.965 5.793-11.64 10.625l-5.239-2.902c3.325-6.004 8.141-10.406 14.453-13.2zm-12.8 13.016c-.376.89-.7 1.805-.97 2.742-1.253 4.332-1.323 8.668-.21 13.012l-5.801 1.488c-1.383-5.398-1.297-10.785.258-16.164.336-1.16.738-2.293 1.203-3.398zm-.38 18.3c1.954 5.204 5.262 9.282 9.926 12.24l-3.203 5.058c-5.797-3.672-9.906-8.739-12.328-15.196zm12.262 13.544a24.939 24.939 0 004.043 1.562c3.844 1.11 7.711 1.285 11.61.528l1.144 5.875c-4.84.945-9.648.726-14.418-.653a30.682 30.682 0 01-5.015-1.937zm18.239 1.437c5.304-1.644 9.57-4.715 12.796-9.203l4.864 3.496c-4.008 5.575-9.305 9.383-15.887 11.426zm14.238-11.457a24.779 24.779 0 002.23-5.316l5.754 1.664a30.65 30.65 0 01-2.773 6.598zm0 0"/></g></g></g></g><g clip-path="url(#prefix__S)"><g clip-path="url(#prefix__T)"><g clip-path="url(#prefix__U)"><path fill="#707070" d="M125.176 268.602l-13.492-3.57 3.57-13.493 13.496 3.57zm0 0"/></g></g></g><g clip-path="url(#prefix__V)"><g clip-path="url(#prefix__W)"><g clip-path="url(#prefix__X)"><path fill="#707070" d="M211.137 173.277l-3.649-13.476 13.473-3.649 3.648 13.473zm0 0"/></g></g></g><g clip-path="url(#prefix__Y)"><g clip-path="url(#prefix__Z)"><g clip-path="url(#prefix__aa)"><path fill="#707070" d="M91.422 141.863l-13.496-3.57 3.57-13.496 13.496 3.57zm0 0"/></g></g></g><g clip-path="url(#prefix__ab)"><g clip-path="url(#prefix__ac)"><g clip-path="url(#prefix__ad)"><g clip-path="url(#prefix__ae)"><path fill="#fff" d="M75.996 177.906c-.039-.011-.074 0-.105.028-.137-.051-.133-.286-.332-.25-.41-.188-.676.039-.914.328-.668.812-1.188 1.715-1.653 2.648-1.66 3.344-2.543 6.875-2.805 10.59-.46 6.484 1.31 12.355 4.704 17.79 1.574 2.519 3.566 4.714 5.66 6.815 1.23 1.239 2.531 2.395 3.804 3.586.067.024.13.043.196.067.031.07.086.144.078.21v.005c-.004.054-.082.047-.129.004-.684-.07-1.332-.282-1.969-.524-.433-.168-.867-.3-1.34-.297-.933-.367-1.691-.113-2.14.688 1.32 1.488 3.11 2.035 4.972 2.445.696.152 1.375.352 2.059.54 1.637.448 1.426.292 2.43-.661.226-.215.398-.477.539-.75.054-.102.094-.203.05-.316.243-.254.145-.532.036-.797-.325-.79-.657-1.57-.989-2.356.032-.203-.062-.367-.16-.527.04-.2-.058-.363-.144-.531.05-.137-.031-.254-.059-.383-.367-1.707-.535-3.43-.406-5.184.008-.133.008-.262.012-.394.004-.157.015-.336-.157-.395-.129-.047-.296.04-.351.145-.246.449-.727.683-1 1.097-.125.184-.16.403-.192.625-.265 1.72-.214 3.43.012 5.141.024.152.067.309.055.457-.016.18-.16.184-.301.148-.043-.171-.152-.261-.324-.285-.067-.148-.145-.285-.332-.304.004-.043-.02-.063-.063-.063-.058-.14-.14-.266-.312-.293-.063-.086-.114-.183-.192-.262-.84-.836-1.695-1.656-2.523-2.504-.754-.765-1.484-1.558-2.223-2.34-.168-.226-.328-.464-.508-.683-1.714-2.168-3.144-4.508-4.21-7.059-.383-.91-.735-1.828-1.098-2.746.035-.21-.07-.379-.176-.547.04-.203-.058-.363-.156-.523.05-.191-.055-.34-.133-.496.047-.121.004-.223-.074-.316a.095.095 0 00-.04-.11c.052-.137-.027-.258-.05-.383-.113-.62-.34-1.218-.379-1.855-.066-.031-.152-.191-.164.047-.008.16-.047.183-.098.16-.043-.024-.09-.082-.132-.121-.297-1.973-.352-3.961-.274-5.953l.07-.555c.149-1.102.293-2.203.438-3.305a.173.173 0 00.055-.109.292.292 0 00-.012-.078.162.162 0 00.035-.184c.059-.054.07-.117.04-.183.058-.051.07-.114.038-.184.059-.055.074-.113.043-.184.059-.05.074-.113.043-.183.059-.05.074-.11.043-.18v-.004c.02-.058.035-.117.047-.175v-.008c.062-.047.078-.106.047-.176l.004-.008c.058-.047.074-.105.043-.176l.004-.007c.062-.047.078-.106.046-.176v-.004c.063-.047.079-.11.047-.18h.004c.059-.05.078-.11.047-.183.192-.547.379-1.09.57-1.637.008-.317.16-.586.274-.867.035-.004.07 0 .098.007a.258.258 0 01.12.086c.106-.203.231-.398.239-.64-.004-.07 0-.14.035-.211l-.035.21c.047-.058.086-.116.047-.19.097-.06.14-.15.144-.262.063-.04.094-.09.07-.164.055-.055.09-.114.07-.196.032-.02.052-.05.056-.09.14-.18.238-.379.285-.605.094-.133.187-.262.203-.43.09-.062.113-.164.144-.258.368-.523.633-1.109 1.122-1.582-.227-.082-.286-.332-.524-.285zm8.629 39.406h-.004v-.003.004c.004-.004.004-.004.008-.004l-.004.004zm-12.012-31.984c-.004.012-.011.024-.015.04v-.013l.011-.039c0 .004.004.004.004.012zm-.113 2.063h-.004c-.004 0-.008 0-.012-.004l-.015-.008.031.012s0-.004.004-.004c-.004 0-.004.004-.004.004zm.07-2.118l.035.043a.114.114 0 00-.007.036.12.12 0 00-.028-.079zm0 .16l-.011.044h-.004c.007-.012.011-.028.015-.043zm2.453-6.812v-.004-.004s.004 0 .004-.004c0 .004-.004.008-.004.012zm-.164.234s-.004.004-.004.008c0-.004.004-.008.004-.008zm-.472 2.793a.085.085 0 00-.035-.027l.023-.012.012.04zm.258-.43a.113.113 0 01.046-.058.308.308 0 00-.046.059zm0 0"/></g></g></g></g><g clip-path="url(#prefix__af)"><g clip-path="url(#prefix__ag)"><g clip-path="url(#prefix__ah)"><g clip-path="url(#prefix__ai)"><path fill="#fff" d="M72.836 185.926l-.047.176c.063-.047.078-.106.047-.176zm0 0"/></g></g></g></g><g clip-path="url(#prefix__aj)"><g clip-path="url(#prefix__ak)"><g clip-path="url(#prefix__al)"><g clip-path="url(#prefix__am)"><path fill="#fff" d="M177.445 132.273a.117.117 0 00.04-.105c.12-.082.308.059.394-.129.39-.226.36-.574.258-.937-.282-1.012-.719-1.954-1.215-2.872-1.777-3.285-4.156-6.039-7.043-8.39-5.04-4.11-10.86-6.04-17.254-6.39-2.965-.165-5.906.198-8.832.698-1.719.297-3.418.696-5.125 1.051l-.164.121c-.078-.015-.168-.011-.219-.058h-.004c-.039-.035.012-.094.07-.11.454-.52.997-.925 1.563-1.304.39-.262.746-.54 1.016-.926.836-.55 1.066-1.32.672-2.149-1.98.223-3.457 1.372-4.864 2.66-.523.481-1.078.922-1.625 1.372-1.312 1.078-1.062 1-.86 2.367.044.308.161.598.302.875.054.101.113.191.226.223.074.343.356.425.637.488.828.187 1.66.363 2.496.547.145.14.332.16.52.168.144.148.332.164.52.187.081.121.226.125.343.176 1.61.68 3.117 1.535 4.473 2.648.105.086.214.16.32.239.12.097.265.207.41.101.113-.078.137-.265.086-.37-.23-.462-.14-.99-.324-1.454-.082-.203-.239-.36-.403-.516-1.25-1.203-2.68-2.148-4.21-2.945-.137-.07-.286-.125-.403-.219-.137-.113-.059-.234.05-.332.165.063.302.028.419-.101.16.031.32.047.441-.098.035.031.063.023.086-.012.153.032.301.04.422-.09.106 0 .219.016.324-.003 1.168-.207 2.332-.43 3.5-.625 1.063-.172 2.13-.317 3.192-.47.285-.007.57-.003.851-.019 2.762-.156 5.496.024 8.196.618.964.21 1.921.453 2.878.683.153.152.352.16.547.172.145.148.332.16.52.172.125.152.308.148.48.176.075.109.184.132.301.12.031.04.067.052.113.036.086.117.227.121.344.176.574.265 1.192.422 1.735.757.062-.035.246-.011.054-.16-.125-.101-.12-.144-.074-.172.043-.02.121-.027.176-.039 1.785.891 3.441 1.993 5.027 3.204.137.124.274.253.41.378.817.754 1.637 1.508 2.453 2.258a.172.172 0 00.055.106c.024.02.047.03.074.039.012.074.059.117.13.136.01.075.054.118.128.137.008.074.05.121.129.137.008.078.047.125.125.14.004.079.047.126.125.137v.004c.004.074.047.125.121.137v.004c.04.047.078.094.121.14l.004.004c.004.075.043.121.117.14l.004.005c.008.074.043.12.121.14l.004.004c0 .079.043.125.117.141l.004.004c0 .078.043.125.118.14.003.079.042.13.12.149.337.469.672.937 1.012 1.406.254.188.387.469.551.723a.245.245 0 01-.066.074.207.207 0 01-.137.047c.105.207.195.422.387.566.062.04.117.082.152.153l-.152-.153c.02.075.047.137.129.149-.008.117.043.199.132.27-.007.074.02.128.094.152.012.078.04.14.117.172 0 .035.012.07.043.093.067.22.176.414.328.582.059.153.11.305.235.414 0 .11.07.188.129.266.218.602.543 1.156.652 1.828.191-.14.434-.043.531-.262zm-37.191-15.628h.004v-.004l.004.004h-.004v.003c-.004 0 0-.003-.004-.003zm33.07 8.59a.343.343 0 01-.023-.04c.004.004.008.008.012.008.007.012.015.02.023.031h-.012zm-1.625-1.282s.004 0 .004-.004c.004 0 .008-.004.012-.008l.015-.007-.027.02v.003c0-.004 0-.004-.004-.004zm1.696 1.274a.306.306 0 01-.055.007.091.091 0 00-.028-.027c.024.016.051.027.083.02zm-.133-.09a.223.223 0 00-.028-.032v-.003c.008.011.02.023.028.035zm4.16 5.925s0 .004.004.004v.008c0-.004-.004-.008-.004-.012zm-.098-.265c0-.004 0-.008-.004-.008l.004.008zm-2.012-1.996a.075.075 0 00.04-.012v.027c-.012-.004-.028-.007-.04-.015zm.2.46c.015.016.023.044.027.071h-.004c-.004-.027-.008-.05-.023-.07zm0 0"/></g></g></g></g><g clip-path="url(#prefix__an)"><g clip-path="url(#prefix__ao)"><g clip-path="url(#prefix__ap)"><g clip-path="url(#prefix__aq)"><path fill="#fff" d="M172.707 125.07c-.039-.047-.078-.09-.117-.136.004.078.043.12.117.136zm0 0"/></g></g></g></g><g clip-path="url(#prefix__ar)"><g clip-path="url(#prefix__as)"><g clip-path="url(#prefix__at)"><g clip-path="url(#prefix__au)"><path fill="#fff" d="M167.832 241.281c.004.04.027.07.063.09 0 .145-.22.223-.118.399-.035.449.27.62.621.746.993.347 2.02.523 3.055.64 3.711.41 7.328.028 10.906-1.008 6.25-1.796 11.153-5.476 15.086-10.53 1.825-2.345 3.203-4.97 4.461-7.661.739-1.578 1.375-3.2 2.059-4.805-.004-.07-.004-.136-.008-.207.059-.05.106-.129.172-.148h.004c.05-.012.07.062.047.121.172.668.195 1.348.183 2.027-.008.47.02.922.184 1.364-.024 1 .476 1.625 1.383 1.773.945-1.754.843-3.621.586-5.512-.098-.703-.145-1.41-.203-2.117-.137-1.691-.215-1.441-1.454-2.055a2.803 2.803 0 00-.89-.25c-.114-.015-.219-.015-.313.063-.324-.14-.55.047-.761.238-.63.578-1.25 1.16-1.875 1.742-.2.04-.32.18-.438.332-.2.032-.32.18-.445.317-.149 0-.235.117-.34.187-1.48.93-3.04 1.684-4.73 2.164-.126.036-.25.082-.376.125-.148.047-.32.102-.32.282.004.136.145.261.258.28.508.075.894.446 1.379.563.215.051.433.008.652-.035 1.703-.344 3.293-.98 4.82-1.781.137-.074.266-.168.415-.21.167-.048.222.089.242.233-.149.098-.196.23-.157.403-.117.113-.222.234-.171.418-.043.011-.055.039-.04.078-.113.105-.203.223-.167.394-.059.09-.133.172-.18.27-.496 1.078-.977 2.16-1.484 3.23-.461.973-.954 1.93-1.43 2.891-.16.238-.324.469-.473.715-1.441 2.355-3.148 4.5-5.176 6.379-.722.672-1.468 1.32-2.203 1.976-.21.04-.332.196-.453.352-.203.035-.32.18-.437.328-.196.016-.301.168-.418.293-.133 0-.215.074-.274.18-.047.004-.078.027-.09.074-.144 0-.23.113-.34.18-.546.32-1.027.738-1.613.992-.008.074-.129.21.102.14.152-.046.187-.02.18.036-.004.046-.043.113-.067.168-1.75.957-3.598 1.69-5.496 2.304-.18.04-.363.082-.547.121-1.082.243-2.168.485-3.254.727a.183.183 0 00-.117-.016.163.163 0 00-.07.043.153.153 0 00-.188.028c-.066-.036-.129-.024-.183.027-.07-.04-.133-.027-.188.023-.07-.035-.133-.027-.187.024-.067-.04-.13-.031-.184.023h-.004c-.066-.039-.129-.031-.183.02l-.004.004c-.059 0-.121.007-.18.015h-.008c-.066-.039-.125-.035-.18.02h-.007c-.067-.04-.125-.035-.184.02h-.004-.004.004c-.066-.044-.129-.036-.183.015h-.004c-.067-.043-.13-.035-.184.016h-.004c-.066-.04-.129-.036-.187.015-.578.012-1.153.02-1.73.031-.302.102-.61.047-.911.04a.208.208 0 01-.023-.094.204.204 0 01.039-.14c-.23-.032-.457-.083-.684-.009a.36.36 0 01-.21.04c.07-.012.14-.024.21-.04-.074-.023-.144-.039-.195.024-.094-.074-.192-.078-.301-.043-.055-.051-.113-.059-.176-.012-.07-.031-.137-.047-.207 0a.113.113 0 00-.105-.02 1.473 1.473 0 00-.664-.058c-.157-.043-.313-.09-.477-.047-.09-.062-.191-.05-.289-.047-.617-.164-1.258-.21-1.871-.504 0 .239-.215.38-.09.586zm34.04-21.648c0 .004 0 0 0 0 0 .004-.005.004-.005.004l.004-.004c-.004 0-.004 0-.008-.004.004 0 .008.004.008.004zm-25.907 22.273c.012 0 .027.004.043.004-.004 0-.008 0-.012.004h-.039c.004 0 .004-.004.008-.008zm1.976-.605c.004.004 0 .004 0 .004 0 .007.004.011.004.015l-.004.02v-.035h-.004c.004 0 .004 0 .004-.004zm-2.011.664c.007-.016.02-.031.027-.047.012 0 .023 0 .035-.004a.111.111 0 00-.062.05zm.148-.055c.016 0 .031-.004.047-.004v.004h-.047zm-7.238.04c0 .003-.004.003-.004.003h-.004c0-.004-.004-.004-.004-.004h.012zm.273.073c.004 0 .008.004.012.004-.004-.004-.008-.004-.012-.004zm2.785-.515a.491.491 0 00-.011.039c-.008-.004-.012-.012-.02-.016l.031-.023zm-.488-.098a.107.107 0 01-.074-.02c.027.012.05.02.074.02zm0 0"/></g></g></g></g><g clip-path="url(#prefix__av)"><g clip-path="url(#prefix__aw)"><g clip-path="url(#prefix__ax)"><g clip-path="url(#prefix__ay)"><path fill="#fff" d="M176.45 241.492c.062-.004.12-.012.183-.015-.067-.043-.13-.036-.184.015zm0 0"/></g></g></g></g><path transform="matrix(.74987 .00605 -.00605 .74998 136.49 77.868)" fill="none" d="M-.002 1.999L223.036 2" stroke="#000" stroke-width="4"/><path transform="matrix(.75062 -.00364 .00364 .75 135.126 291.168)" fill="none" d="M0 2l224.814.002" stroke="#000" stroke-width="4"/><g clip-path="url(#prefix__az)"><path fill="#38b6ff" d="M294.695 306.992l-8.492-9.492a.946.946 0 00-.703-.316h-5.664a.95.95 0 00-.863.562.956.956 0 00.164 1.02l7.922 8.863-7.922 8.855a.95.95 0 00.7 1.586h5.663c.266 0 .52-.117.703-.312l8.492-9.496c.32-.36.32-.91 0-1.27zm0 0"/></g><g clip-path="url(#prefix__aA)"><path fill="#38b6ff" d="M282.426 306.992l-8.492-9.492a.94.94 0 00-.704-.316h-5.66a.947.947 0 00-.703 1.582l7.926 8.863-7.926 8.855a.955.955 0 00-.16 1.024.94.94 0 00.863.562h5.66c.27 0 .52-.117.704-.312l8.492-9.496a.95.95 0 000-1.27zm0 0"/></g><g clip-path="url(#prefix__aB)"><path fill="#38b6ff" d="M257.57 306.992l-8.492-9.492a.946.946 0 00-.703-.316h-5.664a.95.95 0 00-.863.562.962.962 0 00.16 1.02l7.926 8.863-7.926 8.855a.95.95 0 00.703 1.586h5.664c.266 0 .52-.117.703-.312l8.492-9.496c.32-.36.32-.91 0-1.27zm0 0"/></g><g clip-path="url(#prefix__aC)"><path fill="#38b6ff" d="M245.3 306.992l-8.491-9.492a.94.94 0 00-.704-.316h-5.66a.947.947 0 00-.703 1.582l7.926 8.863-7.926 8.855a.955.955 0 00-.16 1.024.94.94 0 00.863.562h5.66c.27 0 .52-.117.704-.312l8.492-9.496a.95.95 0 000-1.27zm0 0"/></g><g clip-path="url(#prefix__aD)"><path fill="#5ce1e6" d="M220.445 306.992l-8.492-9.492a.946.946 0 00-.703-.316h-5.664a.95.95 0 00-.863.562.956.956 0 00.164 1.02l7.922 8.863-7.922 8.855a.95.95 0 00.7 1.586h5.663c.266 0 .52-.117.703-.312l8.492-9.496c.32-.36.32-.91 0-1.27zm0 0"/></g><g clip-path="url(#prefix__aE)"><path fill="#5ce1e6" d="M208.176 306.992l-8.492-9.492a.94.94 0 00-.704-.316h-5.66a.947.947 0 00-.703 1.582l7.926 8.863-7.926 8.855a.955.955 0 00-.16 1.024.94.94 0 00.863.562h5.66c.27 0 .52-.117.704-.312l8.492-9.496a.95.95 0 000-1.27zm0 0"/></g><g clip-path="url(#prefix__aF)"><path fill="#38b6ff" d="M183.32 306.992l-8.492-9.492a.946.946 0 00-.703-.316h-5.664a.95.95 0 00-.863.562.956.956 0 00.164 1.02l7.922 8.863-7.922 8.855a.95.95 0 00.7 1.586h5.663c.266 0 .52-.117.703-.312l8.492-9.496c.32-.36.32-.91 0-1.27zm0 0"/></g><g clip-path="url(#prefix__aG)"><path fill="#38b6ff" d="M171.05 306.992l-8.491-9.492a.94.94 0 00-.704-.316h-5.66a.947.947 0 00-.703 1.582l7.926 8.863-7.926 8.855a.955.955 0 00-.16 1.024.94.94 0 00.863.562h5.66c.27 0 .52-.117.704-.312l8.492-9.496a.95.95 0 000-1.27zm0 0"/></g><g clip-path="url(#prefix__aH)"><g clip-path="url(#prefix__aI)"><g clip-path="url(#prefix__aJ)"><path fill="#38b6ff" d="M146.184 306.746l-8.66-9.344a.948.948 0 00-.708-.3l-5.66.097a.947.947 0 00-.851.578.956.956 0 00.175 1.02l8.083 8.719-7.77 8.996a.952.952 0 00.73 1.574l5.665-.102a.96.96 0 00.695-.324l8.324-9.644a.954.954 0 00-.023-1.27zm0 0"/></g></g></g><g clip-path="url(#prefix__aK)"><g clip-path="url(#prefix__aL)"><g clip-path="url(#prefix__aM)"><path fill="#38b6ff" d="M133.918 306.96l-8.66-9.339a.937.937 0 00-.707-.305l-5.66.102a.95.95 0 00-.856.578.95.95 0 00.18 1.016l8.082 8.718-7.77 8.997a.959.959 0 00-.14 1.027c.16.34.5.555.87.547l5.665-.102a.96.96 0 00.695-.324l8.324-9.64a.96.96 0 00-.023-1.274zm0 0"/></g></g></g><g clip-path="url(#prefix__aN)"><g clip-path="url(#prefix__aO)"><g clip-path="url(#prefix__aP)"><path fill="#38b6ff" d="M99.406 301.191l-2.023-12.574a.945.945 0 00-.422-.644l-4.766-3.059a.949.949 0 00-1.445.953l1.887 11.738-11.453 3.176a.951.951 0 00-.266 1.715l4.766 3.059c.226.144.5.183.761.113l12.274-3.406a.954.954 0 00.687-1.07zm0 0"/></g></g></g><g clip-path="url(#prefix__aQ)"><g clip-path="url(#prefix__aR)"><g clip-path="url(#prefix__aS)"><path fill="#38b6ff" d="M89.078 294.57l-2.023-12.578a.94.94 0 00-.422-.644l-4.766-3.055a.942.942 0 00-1.027.004.966.966 0 00-.418.95l1.887 11.733-11.454 3.18a.954.954 0 00-.687.774.945.945 0 00.422.937l4.77 3.059c.222.144.5.183.757.117l12.278-3.406a.957.957 0 00.683-1.07zm0 0"/></g></g></g><g clip-path="url(#prefix__aT)"><g clip-path="url(#prefix__aU)"><g clip-path="url(#prefix__aV)"><path fill="#5ce1e6" d="M61.434 282.32l.468-12.73a.94.94 0 00-.289-.715l-4.078-3.93a.945.945 0 00-1.012-.191.955.955 0 00-.593.848l-.438 11.878-11.851.883a.942.942 0 00-.825.625.94.94 0 00.23 1.004l4.079 3.926a.951.951 0 00.723.262l12.703-.946a.957.957 0 00.883-.914zm0 0"/></g></g></g><g clip-path="url(#prefix__aW)"><g clip-path="url(#prefix__aX)"><g clip-path="url(#prefix__aY)"><path fill="#5ce1e6" d="M52.598 273.809l.468-12.73a.96.96 0 00-.289-.716l-4.078-3.925a.948.948 0 00-1.605.652l-.438 11.879-11.851.883a.948.948 0 00-.825.625.94.94 0 00.23 1.003l4.08 3.93a.96.96 0 00.722.262l12.703-.95a.957.957 0 00.883-.913zm0 0"/></g></g></g><g clip-path="url(#prefix__aZ)"><g clip-path="url(#prefix__ba)"><g clip-path="url(#prefix__bb)"><path fill="#38b6ff" d="M36.793 250.25l3.941-12.113a.938.938 0 00-.082-.766l-2.843-4.894a.95.95 0 00-1.723.187L32.41 243.97l-11.64-2.399a.947.947 0 00-.965.375.944.944 0 00-.055 1.028l2.848 4.894c.132.235.359.395.62.45l12.477 2.574a.95.95 0 001.098-.641zm0 0"/></g></g></g><g clip-path="url(#prefix__bc)"><g clip-path="url(#prefix__bd)"><g clip-path="url(#prefix__be)"><path fill="#38b6ff" d="M30.629 239.645l3.941-12.114a.938.938 0 00-.082-.765l-2.843-4.895a.946.946 0 00-.922-.465.954.954 0 00-.801.653l-3.676 11.304-11.644-2.402a.958.958 0 00-.961.375.943.943 0 00-.055 1.031l2.844 4.895c.136.23.363.39.625.449l12.476 2.57a.952.952 0 001.098-.636zm0 0"/></g></g></g><g clip-path="url(#prefix__bf)"><path fill="#38b6ff" d="M20.016 200.004l9.492-8.492a.934.934 0 00.316-.703v-5.66a.945.945 0 00-.562-.864.946.946 0 00-1.02.16l-8.863 7.926-8.856-7.926a.955.955 0 00-1.023-.16.945.945 0 00-.563.863v5.66c0 .27.114.524.313.704l9.496 8.492a.95.95 0 001.27 0zm0 0"/></g><g clip-path="url(#prefix__bg)"><path fill="#38b6ff" d="M20.016 187.738l9.492-8.496a.932.932 0 00.316-.699v-5.664a.95.95 0 00-.562-.863.961.961 0 00-1.02.16l-8.863 7.926-8.856-7.926a.95.95 0 00-1.586.703v5.664c0 .266.114.52.313.7l9.496 8.495c.36.32.91.32 1.27 0zm0 0"/></g><g clip-path="url(#prefix__bh)"><g clip-path="url(#prefix__bi)"><g clip-path="url(#prefix__bj)"><path fill="#38b6ff" d="M22.281 145.098l12.64-1.57a.951.951 0 00.661-.4l3.227-4.651a.95.95 0 00-.903-1.48L26.11 138.46l-2.765-11.559a.952.952 0 00-1.703-.324l-3.227 4.652a.948.948 0 00-.14.758l2.964 12.387a.949.949 0 001.043.723zm0 0"/></g></g></g><g clip-path="url(#prefix__bk)"><g clip-path="url(#prefix__bl)"><g clip-path="url(#prefix__bm)"><path fill="#38b6ff" d="M29.27 135.016l12.64-1.575a.933.933 0 00.66-.394l3.223-4.656a.935.935 0 00.031-1.028.953.953 0 00-.93-.449l-11.796 1.465-2.766-11.559a.963.963 0 00-.75-.715.941.941 0 00-.953.387l-3.227 4.656a.936.936 0 00-.14.754l2.965 12.391a.95.95 0 001.043.723zm0 0"/></g></g></g><g clip-path="url(#prefix__bn)"><g clip-path="url(#prefix__bo)"><g clip-path="url(#prefix__bp)"><path fill="#5ce1e6" d="M45.11 108.906l12.671 1.317a.941.941 0 00.73-.239l4.192-3.808a.948.948 0 00.258-.996.954.954 0 00-.805-.649l-11.824-1.226-.09-11.887a.948.948 0 00-1.586-.7l-4.191 3.805a.963.963 0 00-.309.707l.098 12.739c.004.484.375.89.855.937zm0 0"/></g></g></g><g clip-path="url(#prefix__bq)"><g clip-path="url(#prefix__br)"><g clip-path="url(#prefix__bs)"><path fill="#5ce1e6" d="M54.188 100.656l12.671 1.317a.936.936 0 00.73-.239l4.192-3.808a.942.942 0 00.262-.996.958.958 0 00-.805-.649l-11.824-1.226-.09-11.887a.95.95 0 00-1.586-.7l-4.191 3.805a.955.955 0 00-.309.707l.098 12.739c.004.484.375.89.852.937zm0 0"/></g></g></g><g clip-path="url(#prefix__bt)"><g clip-path="url(#prefix__bu)"><g clip-path="url(#prefix__bv)"><path fill="#38b6ff" d="M75.379 84.59l11.808 4.773c.254.098.532.09.77-.027l5.082-2.5a.95.95 0 00.527-.883.958.958 0 00-.597-.848l-11.02-4.453 3.203-11.445a.946.946 0 00-.304-.988.943.943 0 00-1.024-.125l-5.082 2.496a.974.974 0 00-.492.59l-3.434 12.27a.957.957 0 00.563 1.14zm0 0"/></g></g></g><g clip-path="url(#prefix__bw)"><g clip-path="url(#prefix__bx)"><g clip-path="url(#prefix__by)"><path fill="#38b6ff" d="M86.387 79.176l11.812 4.773c.25.102.528.094.77-.027l5.082-2.496a.945.945 0 00.523-.887.945.945 0 00-.594-.844l-11.02-4.457 3.204-11.445a.958.958 0 00-.305-.988.952.952 0 00-1.023-.125l-5.082 2.5a.94.94 0 00-.492.59l-3.434 12.265a.953.953 0 00.559 1.14zm0 0"/></g></g></g><g clip-path="url(#prefix__bz)"><path fill="#38b6ff" d="M118.215 68.148l8.492 9.493a.946.946 0 00.703.316h5.664a.95.95 0 00.863-.562.956.956 0 00-.164-1.02l-7.921-8.86 7.921-8.859a.95.95 0 00-.7-1.586h-5.663a.971.971 0 00-.703.313l-8.492 9.496c-.32.36-.32.91 0 1.27zm0 0"/></g><g clip-path="url(#prefix__bA)"><path fill="#38b6ff" d="M130.484 68.148l8.493 9.493a.94.94 0 00.703.316h5.66a.947.947 0 00.703-1.582l-7.926-8.86 7.926-8.859a.955.955 0 00.16-1.023.94.94 0 00-.863-.563h-5.66c-.27 0-.52.117-.703.313l-8.493 9.496a.95.95 0 000 1.27zm0 0"/></g><g clip-path="url(#prefix__bB)"><g clip-path="url(#prefix__bC)"><g clip-path="url(#prefix__bD)"><path fill="#38b6ff" d="M154.75 67.309l8.207 9.742a.947.947 0 00.691.34l5.66.168a.948.948 0 00.75-1.563l-7.656-9.094 8.188-8.613a.953.953 0 00.191-1.02.934.934 0 00-.844-.585l-5.66-.172a.955.955 0 00-.71.293l-8.778 9.234a.96.96 0 00-.039 1.27zm0 0"/></g></g></g><g clip-path="url(#prefix__bE)"><g clip-path="url(#prefix__bF)"><g clip-path="url(#prefix__bG)"><path fill="#38b6ff" d="M167.016 67.676l8.203 9.746a.936.936 0 00.691.336l5.66.172a.948.948 0 00.75-1.563l-7.656-9.094 8.188-8.617a.946.946 0 00.191-1.015.944.944 0 00-.844-.59l-5.66-.172a.955.955 0 00-.71.293l-8.778 9.234a.955.955 0 00-.035 1.27zm0 0"/></g></g></g><g clip-path="url(#prefix__bH)"><g clip-path="url(#prefix__bI)"><g clip-path="url(#prefix__bJ)"><path fill="#38b6ff" d="M266.402 67.309l8.207 9.742a.947.947 0 00.692.34l5.66.168a.948.948 0 00.75-1.563l-7.656-9.094 8.187-8.613a.953.953 0 00.192-1.02.934.934 0 00-.844-.585l-5.66-.172a.955.955 0 00-.711.293l-8.778 9.234a.96.96 0 00-.039 1.27zm0 0"/></g></g></g><g clip-path="url(#prefix__bK)"><g clip-path="url(#prefix__bL)"><g clip-path="url(#prefix__bM)"><path fill="#38b6ff" d="M278.668 67.676l8.203 9.746a.936.936 0 00.692.336l5.66.172a.948.948 0 00.75-1.563l-7.657-9.094 8.188-8.617a.946.946 0 00.191-1.015.944.944 0 00-.843-.59l-5.66-.172a.955.955 0 00-.712.293l-8.777 9.234a.955.955 0 00-.035 1.27zm0 0"/></g></g></g><g clip-path="url(#prefix__bN)"><g clip-path="url(#prefix__bO)"><g clip-path="url(#prefix__bP)"><path fill="#38b6ff" d="M229.277 67.309l8.207 9.742a.947.947 0 00.692.34l5.66.168a.948.948 0 00.75-1.563l-7.656-9.094 8.187-8.613a.953.953 0 00.192-1.02.934.934 0 00-.844-.585l-5.66-.172a.955.955 0 00-.711.293l-8.778 9.234a.96.96 0 00-.039 1.27zm0 0"/></g></g></g><g clip-path="url(#prefix__bQ)"><g clip-path="url(#prefix__bR)"><g clip-path="url(#prefix__bS)"><path fill="#38b6ff" d="M241.543 67.676l8.203 9.746a.936.936 0 00.691.336l5.66.172a.948.948 0 00.75-1.563l-7.656-9.094 8.188-8.617a.946.946 0 00.191-1.015.944.944 0 00-.843-.59l-5.66-.172a.955.955 0 00-.712.293l-8.777 9.234a.955.955 0 00-.035 1.27zm0 0"/></g></g></g><g clip-path="url(#prefix__bT)"><g clip-path="url(#prefix__bU)"><g clip-path="url(#prefix__bV)"><path fill="#5ce1e6" d="M192.762 67.309l8.203 9.742a.962.962 0 00.695.34l5.656.168a.95.95 0 00.883-.536.957.957 0 00-.133-1.027l-7.652-9.094 8.188-8.613a.961.961 0 00.191-1.02.939.939 0 00-.848-.585l-5.656-.172a.964.964 0 00-.715.293l-8.773 9.234a.955.955 0 00-.04 1.27zm0 0"/></g></g></g><g clip-path="url(#prefix__bW)"><g clip-path="url(#prefix__bX)"><g clip-path="url(#prefix__bY)"><path fill="#5ce1e6" d="M205.023 67.676l8.207 9.746a.93.93 0 00.692.336l5.66.172a.948.948 0 00.75-1.563l-7.656-9.094 8.187-8.617a.946.946 0 00.192-1.015.944.944 0 00-.844-.59l-5.66-.172a.955.955 0 00-.711.293l-8.778 9.234a.96.96 0 00-.039 1.27zm0 0"/></g></g></g></svg>