<svg xmlns="http://www.w3.org/2000/svg" xmlns:xlink="http://www.w3.org/1999/xlink" width="450" zoomAndPan="magnify" viewBox="0 0 337.5 374.999991" height="500" preserveAspectRatio="xMidYMid meet" version="1.0"><defs><clipPath id="06e927d6aa"><path d="M 0 52.777344 L 303.75 52.777344 L 303.75 323 L 0 323 Z M 0 52.777344 " clip-rule="nonzero"/></clipPath><clipPath id="34e0ee681e"><path d="M 7.917969 142.824219 C 3.136719 156.667969 0 172.40625 0 187.851562 C 0 203.296875 2.6875 218.15625 7.46875 231.855469 C 7.621094 232.144531 7.621094 232.4375 7.769531 232.730469 C 26.890625 284.164062 77.390625 322.046875 135.65625 322.777344 L 303.75 322.777344 L 303.75 52.777344 L 135.78125 52.777344 C 77.09375 53.503906 26.59375 90.808594 7.917969 142.824219 " clip-rule="nonzero"/></clipPath><clipPath id="468f12b6a1"><path d="M 0 52.777344 L 303.75 52.777344 L 303.75 322.777344 L 0 322.777344 Z M 0 52.777344 " clip-rule="nonzero"/></clipPath><clipPath id="74d86a2a5b"><path d="M 7.917969 142.824219 C 3.136719 156.667969 0 172.40625 0 187.851562 C 0 203.296875 2.6875 218.15625 7.46875 231.855469 C 7.621094 232.144531 7.621094 232.4375 7.769531 232.730469 C 26.890625 284.164062 77.390625 322.046875 135.65625 322.777344 L 303.75 322.777344 L 303.75 52.777344 L 135.78125 52.777344 C 77.09375 53.503906 26.59375 90.808594 7.917969 142.824219 " clip-rule="nonzero"/></clipPath><clipPath id="4481bd688a"><path d="M 34 77 L 251 77 L 251 294 L 34 294 Z M 34 77 " clip-rule="nonzero"/></clipPath><clipPath id="06e44b83ed"><path d="M -9.855469 183.050781 L 145.734375 32.808594 L 295.976562 188.398438 L 140.386719 338.640625 Z M -9.855469 183.050781 " clip-rule="nonzero"/></clipPath><clipPath id="1102cca8f3"><path d="M 67.835938 108.03125 C 24.929688 149.460938 23.730469 217.832031 65.164062 260.742188 C 106.597656 303.648438 174.96875 304.84375 217.875 263.410156 C 260.785156 221.980469 261.980469 153.609375 220.546875 110.699219 C 179.113281 67.792969 110.742188 66.597656 67.835938 108.03125 " clip-rule="nonzero"/></clipPath><clipPath id="037d7e5d7e"><path d="M 34 77 L 251 77 L 251 294 L 34 294 Z M 34 77 " clip-rule="nonzero"/></clipPath><clipPath id="c8b6017fca"><path d="M -9.855469 183.050781 L 145.527344 33.007812 L 295.566406 188.390625 L 140.183594 338.433594 Z M -9.855469 183.050781 " clip-rule="nonzero"/></clipPath><clipPath id="6e61bcfd15"><path d="M -9.855469 183.050781 L 147.722656 30.886719 L 299.886719 188.46875 L 142.308594 340.628906 Z M -9.855469 183.050781 " clip-rule="nonzero"/></clipPath><clipPath id="dcd5716645"><path d="M 67.835938 108.03125 C 24.929688 149.460938 23.730469 217.832031 65.164062 260.742188 C 106.597656 303.648438 174.96875 304.84375 217.875 263.410156 C 260.785156 221.980469 261.980469 153.609375 220.546875 110.699219 C 179.113281 67.792969 110.742188 66.597656 67.835938 108.03125 " clip-rule="nonzero"/></clipPath><clipPath id="2303e83695"><path d="M 87 133 L 123 133 L 123 169 L 87 169 Z M 87 133 " clip-rule="nonzero"/></clipPath><clipPath id="06906c744f"><path d="M 87.851562 146.109375 L 100.597656 133.167969 L 123.34375 155.566406 L 110.597656 168.507812 Z M 87.851562 146.109375 " clip-rule="nonzero"/></clipPath><clipPath id="91353f868b"><path d="M 87.851562 146.109375 L 100.316406 133.449219 L 122.921875 155.710938 L 110.457031 168.371094 Z M 87.851562 146.109375 " clip-rule="nonzero"/></clipPath><clipPath id="7fcf89014f"><path d="M 169 160 L 205 160 L 205 186 L 169 186 Z M 169 160 " clip-rule="nonzero"/></clipPath><clipPath id="51a8c8b769"><path d="M 174.042969 185.195312 L 169.398438 167.636719 L 200.261719 159.472656 L 204.90625 177.035156 Z M 174.042969 185.195312 " clip-rule="nonzero"/></clipPath><clipPath id="a18e7c7c37"><path d="M 174.042969 185.195312 L 169.5 168.019531 L 200.175781 159.910156 L 204.714844 177.085938 Z M 174.042969 185.195312 " clip-rule="nonzero"/></clipPath><clipPath id="7d70cb34e9"><path d="M 105 150 L 188 150 L 188 233 L 105 233 Z M 105 150 " clip-rule="nonzero"/></clipPath><clipPath id="d34b679819"><path d="M 168.355469 243.382812 L 85.992188 221.585938 L 104.921875 150.058594 L 187.285156 171.855469 Z M 168.355469 243.382812 " clip-rule="nonzero"/></clipPath><clipPath id="01bd2fc4b7"><path d="M 127.488281 232.566406 L 105.371094 150.917969 L 187.101562 172.550781 L 127.488281 232.566406 " clip-rule="nonzero"/></clipPath><clipPath id="bf254ae1a0"><path d="M 117 207 L 143 207 L 143 243 L 117 243 Z M 117 207 " clip-rule="nonzero"/></clipPath><clipPath id="ac488e7763"><path d="M 134.0625 242.476562 L 116.503906 237.828125 L 124.671875 206.964844 L 142.230469 211.613281 Z M 134.0625 242.476562 " clip-rule="nonzero"/></clipPath><clipPath id="77955ff275"><path d="M 134.0625 242.476562 L 116.886719 237.929688 L 125.003906 207.257812 L 142.179688 211.800781 Z M 134.0625 242.476562 " clip-rule="nonzero"/></clipPath><clipPath id="ba90367bc8"><path d="M 92 232 L 149 232 L 149 288 L 92 288 Z M 92 232 " clip-rule="nonzero"/></clipPath><clipPath id="a5a85e0871"><path d="M 154.660156 241.089844 L 139.195312 294.519531 L 85.765625 279.054688 L 101.230469 225.625 Z M 154.660156 241.089844 " clip-rule="nonzero"/></clipPath><clipPath id="8160df263d"><path d="M 146.925781 267.804688 C 151.195312 253.050781 142.699219 237.628906 127.945312 233.359375 C 113.191406 229.085938 97.769531 237.585938 93.496094 252.339844 C 89.226562 267.09375 97.726562 282.515625 112.480469 286.785156 C 127.234375 291.058594 142.65625 282.558594 146.925781 267.804688 " clip-rule="nonzero"/></clipPath><clipPath id="4892925e51"><path d="M 92 232 L 149 232 L 149 288 L 92 288 Z M 92 232 " clip-rule="nonzero"/></clipPath><clipPath id="2e335acc6b"><path d="M 154.660156 241.089844 L 139.226562 294.402344 L 85.917969 278.972656 L 101.347656 225.660156 Z M 154.660156 241.089844 " clip-rule="nonzero"/></clipPath><clipPath id="88df96fe61"><path d="M 154.660156 241.089844 L 139.226562 294.402344 L 85.917969 278.972656 L 101.347656 225.660156 Z M 154.660156 241.089844 " clip-rule="nonzero"/></clipPath><clipPath id="5a4deeb578"><path d="M 146.945312 267.746094 C 151.203125 253.023438 142.726562 237.636719 128.003906 233.375 C 113.28125 229.113281 97.894531 237.59375 93.632812 252.316406 C 89.371094 267.035156 97.851562 282.425781 112.570312 286.6875 C 127.292969 290.949219 142.683594 282.46875 146.945312 267.746094 " clip-rule="nonzero"/></clipPath><clipPath id="0445c3a1cc"><path d="M 188 136 L 244 136 L 244 193 L 188 193 Z M 188 136 " clip-rule="nonzero"/></clipPath><clipPath id="543b5904b5"><path d="M 250.15625 184.285156 L 196.46875 198.828125 L 181.929688 145.140625 L 235.617188 130.597656 Z M 250.15625 184.285156 " clip-rule="nonzero"/></clipPath><clipPath id="e3739a2bdb"><path d="M 223.3125 191.558594 C 238.140625 187.542969 246.902344 172.269531 242.886719 157.441406 C 238.871094 142.617188 223.597656 133.855469 208.773438 137.871094 C 193.949219 141.886719 185.183594 157.160156 189.199219 171.984375 C 193.214844 186.808594 208.488281 195.574219 223.3125 191.558594 " clip-rule="nonzero"/></clipPath><clipPath id="97cf9e398c"><path d="M 188 137 L 244 137 L 244 193 L 188 193 Z M 188 137 " clip-rule="nonzero"/></clipPath><clipPath id="3858c5231c"><path d="M 250.15625 184.285156 L 196.589844 198.796875 L 182.078125 145.226562 L 235.648438 130.71875 Z M 250.15625 184.285156 " clip-rule="nonzero"/></clipPath><clipPath id="82b66ae3e6"><path d="M 250.15625 184.285156 L 196.589844 198.796875 L 182.078125 145.226562 L 235.648438 130.71875 Z M 250.15625 184.285156 " clip-rule="nonzero"/></clipPath><clipPath id="2cb1dd9c12"><path d="M 223.371094 191.542969 C 238.164062 187.535156 246.910156 172.292969 242.902344 157.5 C 238.898438 142.707031 223.65625 133.964844 208.863281 137.972656 C 194.070312 141.976562 185.328125 157.21875 189.332031 172.011719 C 193.339844 186.804688 208.578125 195.546875 223.371094 191.542969 " clip-rule="nonzero"/></clipPath><clipPath id="18332424cc"><path d="M 59 104 L 115 104 L 115 161 L 59 161 Z M 59 104 " clip-rule="nonzero"/></clipPath><clipPath id="1ad37a675b"><path d="M 121.621094 113.597656 L 106.15625 167.027344 L 52.726562 151.5625 L 68.191406 98.132812 Z M 121.621094 113.597656 " clip-rule="nonzero"/></clipPath><clipPath id="a304ee53d0"><path d="M 113.886719 140.3125 C 118.15625 125.558594 109.660156 110.136719 94.90625 105.867188 C 80.152344 101.597656 64.726562 110.09375 60.457031 124.847656 C 56.1875 139.601562 64.6875 155.023438 79.441406 159.296875 C 94.195312 163.566406 109.617188 155.066406 113.886719 140.3125 " clip-rule="nonzero"/></clipPath><clipPath id="7c439b09fc"><path d="M 59 104 L 116 104 L 116 161 L 59 161 Z M 59 104 " clip-rule="nonzero"/></clipPath><clipPath id="f8115bd974"><path d="M 121.621094 113.597656 L 106.1875 166.910156 L 52.875 151.480469 L 68.308594 98.167969 Z M 121.621094 113.597656 " clip-rule="nonzero"/></clipPath><clipPath id="ee132cb64d"><path d="M 121.621094 113.597656 L 106.1875 166.910156 L 52.875 151.480469 L 68.308594 98.167969 Z M 121.621094 113.597656 " clip-rule="nonzero"/></clipPath><clipPath id="324de1dc0d"><path d="M 113.902344 140.253906 C 118.164062 125.53125 109.683594 110.144531 94.964844 105.882812 C 80.242188 101.621094 64.851562 110.101562 60.59375 124.824219 C 56.332031 139.546875 64.8125 154.933594 79.53125 159.195312 C 94.253906 163.457031 109.644531 154.976562 113.902344 140.253906 " clip-rule="nonzero"/></clipPath><clipPath id="8d9762fe5f"><path d="M 113 253 L 128 253 L 128 268 L 113 268 Z M 113 253 " clip-rule="nonzero"/></clipPath><clipPath id="772c2f2577"><path d="M 125.175781 268.601562 L 111.683594 265.03125 L 115.253906 251.539062 L 128.75 255.109375 Z M 125.175781 268.601562 " clip-rule="nonzero"/></clipPath><clipPath id="f093a53021"><path d="M 118.429688 266.816406 C 122.15625 267.804688 125.976562 265.582031 126.964844 261.855469 C 127.949219 258.128906 125.726562 254.308594 122 253.324219 C 118.273438 252.335938 114.453125 254.558594 113.46875 258.285156 C 112.480469 262.011719 114.703125 265.832031 118.429688 266.816406 " clip-rule="nonzero"/></clipPath><clipPath id="b85ad4a684"><path d="M 209 157 L 224 157 L 224 172 L 209 172 Z M 209 157 " clip-rule="nonzero"/></clipPath><clipPath id="463cdd4972"><path d="M 211.136719 173.277344 L 207.488281 159.800781 L 220.960938 156.152344 L 224.609375 169.625 Z M 211.136719 173.277344 " clip-rule="nonzero"/></clipPath><clipPath id="051a4e70a8"><path d="M 209.3125 166.539062 C 210.320312 170.261719 214.152344 172.460938 217.875 171.453125 C 221.59375 170.445312 223.792969 166.609375 222.785156 162.890625 C 221.777344 159.167969 217.945312 156.96875 214.222656 157.976562 C 210.503906 158.984375 208.304688 162.820312 209.3125 166.539062 " clip-rule="nonzero"/></clipPath><clipPath id="5451d1fca2"><path d="M 79 126 L 94 126 L 94 141 L 79 141 Z M 79 126 " clip-rule="nonzero"/></clipPath><clipPath id="d668d53031"><path d="M 91.421875 141.863281 L 77.925781 138.292969 L 81.496094 124.796875 L 94.992188 128.367188 Z M 91.421875 141.863281 " clip-rule="nonzero"/></clipPath><clipPath id="64058f2092"><path d="M 84.671875 140.078125 C 88.398438 141.0625 92.21875 138.84375 93.207031 135.117188 C 94.191406 131.390625 91.972656 127.570312 88.246094 126.582031 C 84.519531 125.597656 80.699219 127.816406 79.710938 131.542969 C 78.726562 135.269531 80.945312 139.089844 84.671875 140.078125 " clip-rule="nonzero"/></clipPath><clipPath id="2fbbdd769a"><path d="M 70 177 L 90 177 L 90 223 L 70 223 Z M 70 177 " clip-rule="nonzero"/></clipPath><clipPath id="069d23c840"><path d="M 76.101562 177.058594 L 92.445312 221.390625 L 79.777344 226.0625 L 63.4375 181.726562 Z M 76.101562 177.058594 " clip-rule="nonzero"/></clipPath><clipPath id="602724e284"><path d="M 76.101562 177.058594 L 92.445312 221.390625 L 79.777344 226.0625 L 63.4375 181.726562 Z M 76.101562 177.058594 " clip-rule="nonzero"/></clipPath><clipPath id="5ed0c6f6d3"><path d="M 76.101562 177.058594 L 92.445312 221.390625 L 79.777344 226.0625 L 63.4375 181.726562 Z M 76.101562 177.058594 " clip-rule="nonzero"/></clipPath><clipPath id="30014b9fa5"><path d="M 72 185 L 73 185 L 73 187 L 72 187 Z M 72 185 " clip-rule="nonzero"/></clipPath><clipPath id="22d80f79ae"><path d="M 76.101562 177.058594 L 92.445312 221.390625 L 79.777344 226.0625 L 63.4375 181.726562 Z M 76.101562 177.058594 " clip-rule="nonzero"/></clipPath><clipPath id="f126e62cb9"><path d="M 76.101562 177.058594 L 92.445312 221.390625 L 79.777344 226.0625 L 63.4375 181.726562 Z M 76.101562 177.058594 " clip-rule="nonzero"/></clipPath><clipPath id="3aba28b468"><path d="M 76.101562 177.058594 L 92.445312 221.390625 L 79.777344 226.0625 L 63.4375 181.726562 Z M 76.101562 177.058594 " clip-rule="nonzero"/></clipPath><clipPath id="259e567c46"><path d="M 134 110 L 179 110 L 179 133 L 134 133 Z M 134 110 " clip-rule="nonzero"/></clipPath><clipPath id="6c93864849"><path d="M 178.078125 132.847656 L 132.417969 120.691406 L 135.890625 107.648438 L 181.550781 119.800781 Z M 178.078125 132.847656 " clip-rule="nonzero"/></clipPath><clipPath id="f06fd795b3"><path d="M 178.078125 132.847656 L 132.417969 120.691406 L 135.890625 107.648438 L 181.550781 119.800781 Z M 178.078125 132.847656 " clip-rule="nonzero"/></clipPath><clipPath id="c2d8f5c978"><path d="M 178.078125 132.847656 L 132.417969 120.691406 L 135.890625 107.648438 L 181.550781 119.800781 Z M 178.078125 132.847656 " clip-rule="nonzero"/></clipPath><clipPath id="c2fa3938b5"><path d="M 172 124 L 173 124 L 173 126 L 172 126 Z M 172 124 " clip-rule="nonzero"/></clipPath><clipPath id="b3cbbbe4e9"><path d="M 178.078125 132.847656 L 132.417969 120.691406 L 135.890625 107.648438 L 181.550781 119.800781 Z M 178.078125 132.847656 " clip-rule="nonzero"/></clipPath><clipPath id="752efdfefc"><path d="M 178.078125 132.847656 L 132.417969 120.691406 L 135.890625 107.648438 L 181.550781 119.800781 Z M 178.078125 132.847656 " clip-rule="nonzero"/></clipPath><clipPath id="86f895ae25"><path d="M 178.078125 132.847656 L 132.417969 120.691406 L 135.890625 107.648438 L 181.550781 119.800781 Z M 178.078125 132.847656 " clip-rule="nonzero"/></clipPath><clipPath id="5c5c3fe322"><path d="M 167 214 L 207 214 L 207 244 L 167 244 Z M 167 214 " clip-rule="nonzero"/></clipPath><clipPath id="8ed68f117b"><path d="M 167 241.472656 L 203.011719 210.882812 L 211.75 221.171875 L 175.738281 251.761719 Z M 167 241.472656 " clip-rule="nonzero"/></clipPath><clipPath id="0dab776cbc"><path d="M 167 241.472656 L 203.011719 210.882812 L 211.75 221.171875 L 175.738281 251.761719 Z M 167 241.472656 " clip-rule="nonzero"/></clipPath><clipPath id="130e844d37"><path d="M 167 241.472656 L 203.011719 210.882812 L 211.75 221.171875 L 175.738281 251.761719 Z M 167 241.472656 " clip-rule="nonzero"/></clipPath><clipPath id="0bb449ae79"><path d="M 176 241 L 177 241 L 177 242 L 176 242 Z M 176 241 " clip-rule="nonzero"/></clipPath><clipPath id="6df47a57af"><path d="M 167 241.472656 L 203.011719 210.882812 L 211.75 221.171875 L 175.738281 251.761719 Z M 167 241.472656 " clip-rule="nonzero"/></clipPath><clipPath id="759d80fcdd"><path d="M 167 241.472656 L 203.011719 210.882812 L 211.75 221.171875 L 175.738281 251.761719 Z M 167 241.472656 " clip-rule="nonzero"/></clipPath><clipPath id="b49322b34d"><path d="M 167 241.472656 L 203.011719 210.882812 L 211.75 221.171875 L 175.738281 251.761719 Z M 167 241.472656 " clip-rule="nonzero"/></clipPath><clipPath id="cf8c1bc8f7"><path d="M 278 297.128906 L 295 297.128906 L 295 318.128906 L 278 318.128906 Z M 278 297.128906 " clip-rule="nonzero"/></clipPath><clipPath id="6a667b0bd4"><path d="M 266.625 297.128906 L 283 297.128906 L 283 318.128906 L 266.625 318.128906 Z M 266.625 297.128906 " clip-rule="nonzero"/></clipPath><clipPath id="49969fcdd4"><path d="M 241 297.128906 L 258 297.128906 L 258 318.128906 L 241 318.128906 Z M 241 297.128906 " clip-rule="nonzero"/></clipPath><clipPath id="fd6ddb4c15"><path d="M 229.5 297.128906 L 246 297.128906 L 246 318.128906 L 229.5 318.128906 Z M 229.5 297.128906 " clip-rule="nonzero"/></clipPath><clipPath id="67b99395e2"><path d="M 204 297.128906 L 220.875 297.128906 L 220.875 318.128906 L 204 318.128906 Z M 204 297.128906 " clip-rule="nonzero"/></clipPath><clipPath id="9e6cf25632"><path d="M 192.375 297.128906 L 209 297.128906 L 209 318.128906 L 192.375 318.128906 Z M 192.375 297.128906 " clip-rule="nonzero"/></clipPath><clipPath id="eb68c9d704"><path d="M 167 297.128906 L 183.75 297.128906 L 183.75 318.128906 L 167 318.128906 Z M 167 297.128906 " clip-rule="nonzero"/></clipPath><clipPath id="451cd7202d"><path d="M 155.25 297.128906 L 172 297.128906 L 172 318.128906 L 155.25 318.128906 Z M 155.25 297.128906 " clip-rule="nonzero"/></clipPath><clipPath id="5786884cfe"><path d="M 130 297 L 147 297 L 147 319 L 130 319 Z M 130 297 " clip-rule="nonzero"/></clipPath><clipPath id="46de9e27f0"><path d="M 117.945312 297.378906 L 146.441406 296.875 L 146.8125 317.871094 L 118.316406 318.375 Z M 117.945312 297.378906 " clip-rule="nonzero"/></clipPath><clipPath id="49461bf211"><path d="M 117.945312 297.378906 L 146.441406 296.875 L 146.8125 317.871094 L 118.316406 318.375 Z M 117.945312 297.378906 " clip-rule="nonzero"/></clipPath><clipPath id="483ffbd22c"><path d="M 117 297 L 135 297 L 135 319 L 117 319 Z M 117 297 " clip-rule="nonzero"/></clipPath><clipPath id="92e93525e3"><path d="M 117.945312 297.378906 L 146.441406 296.875 L 146.8125 317.871094 L 118.316406 318.375 Z M 117.945312 297.378906 " clip-rule="nonzero"/></clipPath><clipPath id="d2b2967446"><path d="M 117.945312 297.378906 L 146.441406 296.875 L 146.8125 317.871094 L 118.316406 318.375 Z M 117.945312 297.378906 " clip-rule="nonzero"/></clipPath><clipPath id="4e19c5404b"><path d="M 80 284 L 100 284 L 100 306 L 80 306 Z M 80 284 " clip-rule="nonzero"/></clipPath><clipPath id="1cfcce269a"><path d="M 81.105469 277.734375 L 105.09375 293.121094 L 93.757812 310.796875 L 69.765625 295.410156 Z M 81.105469 277.734375 " clip-rule="nonzero"/></clipPath><clipPath id="89ad44319f"><path d="M 81.105469 277.734375 L 105.09375 293.121094 L 93.757812 310.796875 L 69.765625 295.410156 Z M 81.105469 277.734375 " clip-rule="nonzero"/></clipPath><clipPath id="db36da128f"><path d="M 70 278 L 90 278 L 90 300 L 70 300 Z M 70 278 " clip-rule="nonzero"/></clipPath><clipPath id="c7c1faabfb"><path d="M 81.105469 277.734375 L 105.09375 293.121094 L 93.757812 310.796875 L 69.765625 295.410156 Z M 81.105469 277.734375 " clip-rule="nonzero"/></clipPath><clipPath id="e316d5ce25"><path d="M 81.105469 277.734375 L 105.09375 293.121094 L 93.757812 310.796875 L 69.765625 295.410156 Z M 81.105469 277.734375 " clip-rule="nonzero"/></clipPath><clipPath id="9c37dc2a42"><path d="M 42 264 L 62 264 L 62 285 L 42 285 Z M 42 264 " clip-rule="nonzero"/></clipPath><clipPath id="3e2bea8b00"><path d="M 48.058594 255.742188 L 68.585938 275.511719 L 54.019531 290.636719 L 33.492188 270.867188 Z M 48.058594 255.742188 " clip-rule="nonzero"/></clipPath><clipPath id="0f963403a6"><path d="M 48.058594 255.742188 L 68.585938 275.511719 L 54.019531 290.636719 L 33.492188 270.867188 Z M 48.058594 255.742188 " clip-rule="nonzero"/></clipPath><clipPath id="21a243a793"><path d="M 33 256 L 54 256 L 54 276 L 33 276 Z M 33 256 " clip-rule="nonzero"/></clipPath><clipPath id="d097254914"><path d="M 48.058594 255.742188 L 68.585938 275.511719 L 54.019531 290.636719 L 33.492188 270.867188 Z M 48.058594 255.742188 " clip-rule="nonzero"/></clipPath><clipPath id="2d9da7f238"><path d="M 48.058594 255.742188 L 68.585938 275.511719 L 54.019531 290.636719 L 33.492188 270.867188 Z M 48.058594 255.742188 " clip-rule="nonzero"/></clipPath><clipPath id="368d1075e9"><path d="M 19 232 L 41 232 L 41 251 L 19 251 Z M 19 232 " clip-rule="nonzero"/></clipPath><clipPath id="067474b823"><path d="M 31.21875 221.023438 L 45.539062 245.664062 L 27.386719 256.21875 L 13.0625 231.578125 Z M 31.21875 221.023438 " clip-rule="nonzero"/></clipPath><clipPath id="8ec88aa08e"><path d="M 31.21875 221.023438 L 45.539062 245.664062 L 27.386719 256.21875 L 13.0625 231.578125 Z M 31.21875 221.023438 " clip-rule="nonzero"/></clipPath><clipPath id="b251c7eaec"><path d="M 13 221 L 35 221 L 35 241 L 13 241 Z M 13 221 " clip-rule="nonzero"/></clipPath><clipPath id="cd96d35272"><path d="M 31.21875 221.023438 L 45.539062 245.664062 L 27.386719 256.21875 L 13.0625 231.578125 Z M 31.21875 221.023438 " clip-rule="nonzero"/></clipPath><clipPath id="d89f40591f"><path d="M 31.21875 221.023438 L 45.539062 245.664062 L 27.386719 256.21875 L 13.0625 231.578125 Z M 31.21875 221.023438 " clip-rule="nonzero"/></clipPath><clipPath id="1610c7f96b"><path d="M 8.878906 184 L 29.878906 184 L 29.878906 200.4375 L 8.878906 200.4375 Z M 8.878906 184 " clip-rule="nonzero"/></clipPath><clipPath id="3c1976f8c9"><path d="M 8.878906 171.9375 L 29.878906 171.9375 L 29.878906 188 L 8.878906 188 Z M 8.878906 171.9375 " clip-rule="nonzero"/></clipPath><clipPath id="ba0ebfa173"><path d="M 18 126 L 39 126 L 39 146 L 18 146 Z M 18 126 " clip-rule="nonzero"/></clipPath><clipPath id="82cd036c84"><path d="M 46.378906 127.648438 L 30.144531 151.074219 L 12.882812 139.109375 L 29.117188 115.6875 Z M 46.378906 127.648438 " clip-rule="nonzero"/></clipPath><clipPath id="5e4a1227ea"><path d="M 46.378906 127.648438 L 30.144531 151.074219 L 12.882812 139.109375 L 29.117188 115.6875 Z M 46.378906 127.648438 " clip-rule="nonzero"/></clipPath><clipPath id="2d64179a35"><path d="M 25 116 L 46 116 L 46 136 L 25 136 Z M 25 116 " clip-rule="nonzero"/></clipPath><clipPath id="e6fae9d709"><path d="M 46.378906 127.648438 L 30.144531 151.074219 L 12.882812 139.109375 L 29.117188 115.6875 Z M 46.378906 127.648438 " clip-rule="nonzero"/></clipPath><clipPath id="ec01c4c85f"><path d="M 46.378906 127.648438 L 30.144531 151.074219 L 12.882812 139.109375 L 29.117188 115.6875 Z M 46.378906 127.648438 " clip-rule="nonzero"/></clipPath><clipPath id="1c01e271e1"><path d="M 44 90 L 64 90 L 64 111 L 44 111 Z M 44 90 " clip-rule="nonzero"/></clipPath><clipPath id="e5fe988e45"><path d="M 72.519531 97.335938 L 51.425781 116.5 L 37.304688 100.957031 L 58.398438 81.792969 Z M 72.519531 97.335938 " clip-rule="nonzero"/></clipPath><clipPath id="3647c6b26f"><path d="M 72.519531 97.335938 L 51.425781 116.5 L 37.304688 100.957031 L 58.398438 81.792969 Z M 72.519531 97.335938 " clip-rule="nonzero"/></clipPath><clipPath id="02e4455e23"><path d="M 53 82 L 73 82 L 73 102 L 53 102 Z M 53 82 " clip-rule="nonzero"/></clipPath><clipPath id="77da850dba"><path d="M 72.519531 97.335938 L 51.425781 116.5 L 37.304688 100.957031 L 58.398438 81.792969 Z M 72.519531 97.335938 " clip-rule="nonzero"/></clipPath><clipPath id="929fd9dee0"><path d="M 72.519531 97.335938 L 51.425781 116.5 L 37.304688 100.957031 L 58.398438 81.792969 Z M 72.519531 97.335938 " clip-rule="nonzero"/></clipPath><clipPath id="e734041163"><path d="M 74 67 L 94 67 L 94 90 L 74 90 Z M 74 67 " clip-rule="nonzero"/></clipPath><clipPath id="55a1946b68"><path d="M 104.921875 81.058594 L 79.34375 93.632812 L 70.078125 74.785156 L 95.65625 62.214844 Z M 104.921875 81.058594 " clip-rule="nonzero"/></clipPath><clipPath id="07509f56a3"><path d="M 104.921875 81.058594 L 79.34375 93.632812 L 70.078125 74.785156 L 95.65625 62.214844 Z M 104.921875 81.058594 " clip-rule="nonzero"/></clipPath><clipPath id="e49b98ebe1"><path d="M 85 62 L 105 62 L 105 85 L 85 85 Z M 85 62 " clip-rule="nonzero"/></clipPath><clipPath id="bc10817240"><path d="M 104.921875 81.058594 L 79.34375 93.632812 L 70.078125 74.785156 L 95.65625 62.214844 Z M 104.921875 81.058594 " clip-rule="nonzero"/></clipPath><clipPath id="8650393682"><path d="M 104.921875 81.058594 L 79.34375 93.632812 L 70.078125 74.785156 L 95.65625 62.214844 Z M 104.921875 81.058594 " clip-rule="nonzero"/></clipPath><clipPath id="6c487cbb90"><path d="M 117.785156 57.015625 L 135 57.015625 L 135 78 L 117.785156 78 Z M 117.785156 57.015625 " clip-rule="nonzero"/></clipPath><clipPath id="1119df4236"><path d="M 130 57.015625 L 146.285156 57.015625 L 146.285156 78 L 130 78 Z M 130 57.015625 " clip-rule="nonzero"/></clipPath><clipPath id="373210f1d3"><path d="M 154 56 L 171 56 L 171 78 L 154 78 Z M 154 56 " clip-rule="nonzero"/></clipPath><clipPath id="efe63cbb7c"><path d="M 182.511719 78.011719 L 154.023438 77.15625 L 154.65625 56.164062 L 183.144531 57.023438 Z M 182.511719 78.011719 " clip-rule="nonzero"/></clipPath><clipPath id="36589b0dbb"><path d="M 182.511719 78.011719 L 154.023438 77.15625 L 154.65625 56.164062 L 183.144531 57.023438 Z M 182.511719 78.011719 " clip-rule="nonzero"/></clipPath><clipPath id="a1330fb6d4"><path d="M 166 56 L 184 56 L 184 78 L 166 78 Z M 166 56 " clip-rule="nonzero"/></clipPath><clipPath id="b3e39b9eac"><path d="M 182.511719 78.011719 L 154.023438 77.15625 L 154.65625 56.164062 L 183.144531 57.023438 Z M 182.511719 78.011719 " clip-rule="nonzero"/></clipPath><clipPath id="929ba830a2"><path d="M 182.511719 78.011719 L 154.023438 77.15625 L 154.65625 56.164062 L 183.144531 57.023438 Z M 182.511719 78.011719 " clip-rule="nonzero"/></clipPath><clipPath id="c91005deac"><path d="M 266 56 L 283 56 L 283 78 L 266 78 Z M 266 56 " clip-rule="nonzero"/></clipPath><clipPath id="23a73f5efb"><path d="M 294.164062 78.011719 L 265.675781 77.15625 L 266.308594 56.164062 L 294.796875 57.023438 Z M 294.164062 78.011719 " clip-rule="nonzero"/></clipPath><clipPath id="5ec56f9c6b"><path d="M 294.164062 78.011719 L 265.675781 77.15625 L 266.308594 56.164062 L 294.796875 57.023438 Z M 294.164062 78.011719 " clip-rule="nonzero"/></clipPath><clipPath id="ab7787ef2a"><path d="M 278 56 L 295 56 L 295 78 L 278 78 Z M 278 56 " clip-rule="nonzero"/></clipPath><clipPath id="913a5a3c9c"><path d="M 294.164062 78.011719 L 265.675781 77.15625 L 266.308594 56.164062 L 294.796875 57.023438 Z M 294.164062 78.011719 " clip-rule="nonzero"/></clipPath><clipPath id="28f0724b48"><path d="M 294.164062 78.011719 L 265.675781 77.15625 L 266.308594 56.164062 L 294.796875 57.023438 Z M 294.164062 78.011719 " clip-rule="nonzero"/></clipPath><clipPath id="eea0e413e8"><path d="M 229 56 L 246 56 L 246 78 L 229 78 Z M 229 56 " clip-rule="nonzero"/></clipPath><clipPath id="ed719edd64"><path d="M 257.039062 78.011719 L 228.550781 77.15625 L 229.183594 56.164062 L 257.671875 57.023438 Z M 257.039062 78.011719 " clip-rule="nonzero"/></clipPath><clipPath id="739b5a92a6"><path d="M 257.039062 78.011719 L 228.550781 77.15625 L 229.183594 56.164062 L 257.671875 57.023438 Z M 257.039062 78.011719 " clip-rule="nonzero"/></clipPath><clipPath id="25b6aadd00"><path d="M 241 56 L 258 56 L 258 78 L 241 78 Z M 241 56 " clip-rule="nonzero"/></clipPath><clipPath id="708c48cc08"><path d="M 257.039062 78.011719 L 228.550781 77.15625 L 229.183594 56.164062 L 257.671875 57.023438 Z M 257.039062 78.011719 " clip-rule="nonzero"/></clipPath><clipPath id="8d1143fffa"><path d="M 257.039062 78.011719 L 228.550781 77.15625 L 229.183594 56.164062 L 257.671875 57.023438 Z M 257.039062 78.011719 " clip-rule="nonzero"/></clipPath><clipPath id="9981ee18bd"><path d="M 192 56 L 209 56 L 209 78 L 192 78 Z M 192 56 " clip-rule="nonzero"/></clipPath><clipPath id="f4578e51c3"><path d="M 220.523438 78.011719 L 192.035156 77.15625 L 192.667969 56.164062 L 221.15625 57.023438 Z M 220.523438 78.011719 " clip-rule="nonzero"/></clipPath><clipPath id="146360115e"><path d="M 220.523438 78.011719 L 192.035156 77.15625 L 192.667969 56.164062 L 221.15625 57.023438 Z M 220.523438 78.011719 " clip-rule="nonzero"/></clipPath><clipPath id="183881dde2"><path d="M 204 56 L 222 56 L 222 78 L 204 78 Z M 204 56 " clip-rule="nonzero"/></clipPath><clipPath id="852828e6ac"><path d="M 220.523438 78.011719 L 192.035156 77.15625 L 192.667969 56.164062 L 221.15625 57.023438 Z M 220.523438 78.011719 " clip-rule="nonzero"/></clipPath><clipPath id="dad9fb3948"><path d="M 220.523438 78.011719 L 192.035156 77.15625 L 192.667969 56.164062 L 221.15625 57.023438 Z M 220.523438 78.011719 " clip-rule="nonzero"/></clipPath></defs><g clip-path="url(#06e927d6aa)"><g clip-path="url(#34e0ee681e)"><path fill="#737373" d="M 303.75 52.777344 L 303.75 323.039062 L -0.132812 323.039062 L -0.132812 52.777344 Z M 303.75 52.777344 " fill-opacity="1" fill-rule="nonzero"/></g></g><g clip-path="url(#468f12b6a1)"><g clip-path="url(#74d86a2a5b)"><path stroke-linecap="butt" transform="matrix(0.000000000000000046, 0.75, -0.75, 0.000000000000000046, 303.749959, 52.777278)" fill="none" stroke-linejoin="miter" d="M 120.062594 394.442673 C 138.520928 400.817674 159.505305 404.999965 180.099056 404.999965 C 200.692807 404.999965 220.505308 401.416632 238.770934 395.041632 C 239.15635 394.838507 239.546975 394.838507 239.9376 394.64059 C 308.515729 369.145797 359.026148 301.81246 360.000106 224.124956 L 360.000106 -0.0000552182 L 0.000088039 -0.0000552182 L 0.000088039 223.95829 C 0.968838 302.208294 50.708424 369.54163 120.062594 394.442673 " stroke="#000000" stroke-width="4" stroke-opacity="1" stroke-miterlimit="4"/></g></g><g clip-path="url(#4481bd688a)"><g clip-path="url(#06e44b83ed)"><g clip-path="url(#1102cca8f3)"><path fill="#a6a6a6" d="M -9.855469 183.050781 L 145.335938 33.191406 L 295.195312 188.386719 L 140 338.242188 Z M -9.855469 183.050781 " fill-opacity="1" fill-rule="nonzero"/></g></g></g><g clip-path="url(#037d7e5d7e)"><g clip-path="url(#c8b6017fca)"><g clip-path="url(#6e61bcfd15)"><g clip-path="url(#dcd5716645)"><path stroke-linecap="butt" transform="matrix(0.539522, -0.520976, 0.520976, 0.539522, -9.855528, 183.050174)" fill="none" stroke-linejoin="miter" d="M 143.99881 0.00174393 C 64.473925 0.000193596 -0.000190796 64.467703 -0.00161234 143.999954 C 0.000584008 223.528457 64.471712 287.998826 144.000215 287.99663 C 223.528848 288.001798 287.999216 223.53067 288.000638 143.99842 C 287.998442 64.469916 223.527314 -0.000452412 143.99881 0.00174393 " stroke="#000000" stroke-width="8" stroke-opacity="1" stroke-miterlimit="4"/></g></g></g></g><g clip-path="url(#2303e83695)"><g clip-path="url(#06906c744f)"><g clip-path="url(#91353f868b)"><path fill="#ffde59" d="M 87.851562 146.109375 L 100.210938 133.558594 L 122.957031 155.960938 L 110.597656 168.507812 Z M 87.851562 146.109375 " fill-opacity="1" fill-rule="nonzero"/></g></g></g><g clip-path="url(#7fcf89014f)"><g clip-path="url(#51a8c8b769)"><g clip-path="url(#a18e7c7c37)"><path fill="#ffde59" d="M 174.042969 185.195312 L 169.539062 168.167969 L 200.402344 160.007812 L 204.90625 177.035156 Z M 174.042969 185.195312 " fill-opacity="1" fill-rule="nonzero"/></g></g></g><g clip-path="url(#7d70cb34e9)"><g clip-path="url(#d34b679819)"><g clip-path="url(#01bd2fc4b7)"><path fill="#ffde59" d="M 168.355469 243.382812 L 86.714844 221.777344 L 105.453125 150.972656 L 187.09375 172.578125 Z M 168.355469 243.382812 " fill-opacity="1" fill-rule="nonzero"/></g></g></g><g clip-path="url(#bf254ae1a0)"><g clip-path="url(#ac488e7763)"><g clip-path="url(#77955ff275)"><path fill="#ffde59" d="M 134.0625 242.476562 L 117.035156 237.96875 L 125.203125 207.105469 L 142.230469 211.613281 Z M 134.0625 242.476562 " fill-opacity="1" fill-rule="nonzero"/></g></g></g><g clip-path="url(#ba90367bc8)"><g clip-path="url(#a5a85e0871)"><g clip-path="url(#8160df263d)"><path fill="#ffde59" d="M 154.660156 241.089844 L 139.195312 294.519531 L 85.765625 279.054688 L 101.230469 225.625 Z M 154.660156 241.089844 " fill-opacity="1" fill-rule="nonzero"/></g></g></g><g clip-path="url(#4892925e51)"><g clip-path="url(#2e335acc6b)"><g clip-path="url(#88df96fe61)"><g clip-path="url(#5a4deeb578)"><path fill="#000000" d="M 144.066406 266.914062 C 145.613281 261.578125 145.390625 256.328125 143.402344 251.160156 L 148.988281 249.007812 C 151.460938 255.429688 151.738281 261.953125 149.820312 268.578125 Z M 142.308594 248.71875 C 139.769531 243.777344 136.007812 240.109375 131.03125 237.722656 L 133.621094 232.324219 C 139.808594 235.292969 144.480469 239.847656 147.632812 245.980469 Z M 128.566406 236.699219 C 128.105469 236.535156 127.640625 236.386719 127.171875 236.25 C 122.34375 234.851562 117.542969 234.914062 112.777344 236.4375 L 110.957031 230.734375 C 116.878906 228.84375 122.839844 228.765625 128.835938 230.5 C 129.417969 230.667969 129.992188 230.851562 130.5625 231.054688 Z M 110.277344 237.386719 C 105.191406 239.640625 101.3125 243.183594 98.636719 248.015625 L 93.398438 245.113281 C 96.722656 239.109375 101.542969 234.707031 107.851562 231.914062 Z M 97.476562 250.402344 C 97.101562 251.296875 96.777344 252.210938 96.507812 253.148438 C 95.253906 257.480469 95.183594 261.816406 96.296875 266.160156 L 90.496094 267.648438 C 89.113281 262.25 89.199219 256.863281 90.757812 251.484375 C 91.09375 250.324219 91.492188 249.191406 91.957031 248.082031 Z M 97.097656 268.707031 C 99.050781 273.910156 102.359375 277.988281 107.023438 280.945312 L 103.820312 286 C 98.023438 282.328125 93.914062 277.265625 91.492188 270.808594 Z M 109.359375 282.25 C 110.65625 282.886719 112.003906 283.40625 113.40625 283.8125 C 117.246094 284.921875 121.117188 285.097656 125.011719 284.339844 L 126.15625 290.214844 C 121.316406 291.160156 116.507812 290.941406 111.738281 289.5625 C 110.003906 289.058594 108.332031 288.414062 106.722656 287.625 Z M 127.597656 283.6875 C 132.902344 282.039062 137.167969 278.972656 140.394531 274.484375 L 145.257812 277.980469 C 141.25 283.554688 135.953125 287.363281 129.371094 289.40625 Z M 141.835938 272.230469 C 142.78125 270.554688 143.527344 268.78125 144.066406 266.914062 L 149.820312 268.578125 C 149.148438 270.894531 148.226562 273.09375 147.050781 275.175781 Z M 141.835938 272.230469 " fill-opacity="1" fill-rule="nonzero"/></g></g></g></g><g clip-path="url(#0445c3a1cc)"><g clip-path="url(#543b5904b5)"><g clip-path="url(#e3739a2bdb)"><path fill="#ffde59" d="M 250.15625 184.285156 L 196.46875 198.828125 L 181.929688 145.140625 L 235.617188 130.597656 Z M 250.15625 184.285156 " fill-opacity="1" fill-rule="nonzero"/></g></g></g><g clip-path="url(#97cf9e398c)"><g clip-path="url(#3858c5231c)"><g clip-path="url(#82b66ae3e6)"><g clip-path="url(#2cb1dd9c12)"><path fill="#000000" d="M 222.589844 188.652344 C 227.953125 187.199219 232.324219 184.28125 235.707031 179.898438 L 240.445312 183.554688 C 236.242188 189.003906 230.8125 192.628906 224.15625 194.429688 Z M 237.222656 177.695312 C 240.128906 172.957031 241.304688 167.84375 240.761719 162.347656 L 246.71875 161.753906 C 247.398438 168.585938 245.933594 174.941406 242.328125 180.824219 Z M 240.355469 159.710938 C 240.253906 159.230469 240.140625 158.757812 240.015625 158.285156 C 238.699219 153.433594 236.152344 149.367188 232.378906 146.082031 L 236.304688 141.5625 C 241 145.644531 244.160156 150.695312 245.792969 156.71875 C 245.953125 157.304688 246.09375 157.890625 246.214844 158.484375 Z M 230.265625 144.441406 C 225.699219 141.265625 220.65625 139.789062 215.136719 140.011719 L 214.894531 134.03125 C 221.753906 133.753906 228.019531 135.582031 233.683594 139.523438 Z M 212.496094 140.265625 C 211.539062 140.40625 210.585938 140.605469 209.644531 140.859375 C 205.292969 142.039062 201.550781 144.234375 198.417969 147.441406 L 194.136719 143.257812 C 198.027344 139.269531 202.675781 136.546875 208.082031 135.082031 C 209.246094 134.765625 210.421875 134.519531 211.609375 134.34375 Z M 196.660156 149.449219 C 193.226562 153.820312 191.460938 158.765625 191.359375 164.289062 L 185.371094 164.175781 C 185.5 157.316406 187.691406 151.175781 191.949219 145.75 Z M 191.457031 166.960938 C 191.585938 168.398438 191.84375 169.820312 192.222656 171.226562 C 193.269531 175.089844 195.128906 178.484375 197.800781 181.417969 L 193.375 185.453125 C 190.050781 181.804688 187.742188 177.585938 186.445312 172.792969 C 185.972656 171.050781 185.65625 169.285156 185.492188 167.5 Z M 199.703125 183.292969 C 203.863281 186.96875 208.699219 189.019531 214.214844 189.445312 L 213.753906 195.417969 C 206.90625 194.886719 200.902344 192.34375 195.738281 187.777344 Z M 216.886719 189.507812 C 218.8125 189.445312 220.710938 189.160156 222.589844 188.652344 L 224.15625 194.429688 C 221.828125 195.0625 219.46875 195.414062 217.078125 195.492188 Z M 216.886719 189.507812 " fill-opacity="1" fill-rule="nonzero"/></g></g></g></g><g clip-path="url(#18332424cc)"><g clip-path="url(#1ad37a675b)"><g clip-path="url(#a304ee53d0)"><path fill="#ffde59" d="M 121.621094 113.597656 L 106.15625 167.027344 L 52.726562 151.5625 L 68.191406 98.132812 Z M 121.621094 113.597656 " fill-opacity="1" fill-rule="nonzero"/></g></g></g><g clip-path="url(#7c439b09fc)"><g clip-path="url(#f8115bd974)"><g clip-path="url(#ee132cb64d)"><g clip-path="url(#324de1dc0d)"><path fill="#000000" d="M 111.027344 139.421875 C 112.574219 134.085938 112.351562 128.835938 110.363281 123.667969 L 115.949219 121.519531 C 118.421875 127.9375 118.695312 134.460938 116.78125 141.085938 Z M 109.269531 121.226562 C 106.730469 116.285156 102.96875 112.621094 97.992188 110.230469 L 100.582031 104.832031 C 106.769531 107.800781 111.441406 112.355469 114.59375 118.492188 Z M 95.527344 109.207031 C 95.066406 109.042969 94.601562 108.894531 94.132812 108.757812 C 89.300781 107.359375 84.503906 107.421875 79.738281 108.945312 L 77.917969 103.242188 C 83.839844 101.351562 89.800781 101.273438 95.796875 103.007812 C 96.378906 103.175781 96.953125 103.359375 97.523438 103.5625 Z M 77.238281 109.898438 C 72.152344 112.148438 68.273438 115.691406 65.597656 120.523438 L 60.359375 117.621094 C 63.683594 111.617188 68.5 107.214844 74.8125 104.421875 Z M 64.4375 122.914062 C 64.0625 123.804688 63.738281 124.71875 63.46875 125.65625 C 62.214844 129.988281 62.144531 134.324219 63.257812 138.667969 L 57.457031 140.15625 C 56.074219 134.757812 56.160156 129.371094 57.714844 123.992188 C 58.050781 122.832031 58.453125 121.699219 58.917969 120.59375 Z M 64.058594 141.214844 C 66.011719 146.417969 69.320312 150.496094 73.984375 153.453125 L 70.78125 158.511719 C 64.984375 154.839844 60.875 149.773438 58.453125 143.316406 Z M 76.320312 154.757812 C 77.617188 155.394531 78.964844 155.914062 80.363281 156.320312 C 84.207031 157.429688 88.074219 157.605469 91.972656 156.847656 L 93.117188 162.722656 C 88.277344 163.667969 83.46875 163.449219 78.699219 162.070312 C 76.964844 161.570312 75.292969 160.921875 73.683594 160.132812 Z M 94.558594 156.195312 C 99.863281 154.550781 104.128906 151.480469 107.355469 146.992188 L 112.21875 150.488281 C 108.210938 156.0625 102.914062 159.871094 96.332031 161.914062 Z M 108.796875 144.738281 C 109.742188 143.0625 110.488281 141.289062 111.027344 139.421875 L 116.78125 141.085938 C 116.109375 143.402344 115.1875 145.601562 114.007812 147.683594 Z M 108.796875 144.738281 " fill-opacity="1" fill-rule="nonzero"/></g></g></g></g><g clip-path="url(#8d9762fe5f)"><g clip-path="url(#772c2f2577)"><g clip-path="url(#f093a53021)"><path fill="#707070" d="M 125.175781 268.601562 L 111.683594 265.03125 L 115.253906 251.539062 L 128.75 255.109375 Z M 125.175781 268.601562 " fill-opacity="1" fill-rule="nonzero"/></g></g></g><g clip-path="url(#b85ad4a684)"><g clip-path="url(#463cdd4972)"><g clip-path="url(#051a4e70a8)"><path fill="#707070" d="M 211.136719 173.277344 L 207.488281 159.800781 L 220.960938 156.152344 L 224.609375 169.625 Z M 211.136719 173.277344 " fill-opacity="1" fill-rule="nonzero"/></g></g></g><g clip-path="url(#5451d1fca2)"><g clip-path="url(#d668d53031)"><g clip-path="url(#64058f2092)"><path fill="#707070" d="M 91.421875 141.863281 L 77.925781 138.292969 L 81.496094 124.796875 L 94.992188 128.367188 Z M 91.421875 141.863281 " fill-opacity="1" fill-rule="nonzero"/></g></g></g><g clip-path="url(#2fbbdd769a)"><g clip-path="url(#069d23c840)"><g clip-path="url(#602724e284)"><g clip-path="url(#5ed0c6f6d3)"><path fill="#ffffff" d="M 75.996094 177.90625 C 75.957031 177.894531 75.921875 177.90625 75.890625 177.933594 C 75.753906 177.882812 75.757812 177.648438 75.558594 177.683594 C 75.148438 177.496094 74.882812 177.722656 74.644531 178.011719 C 73.976562 178.824219 73.457031 179.726562 72.992188 180.660156 C 71.332031 184.003906 70.449219 187.535156 70.1875 191.25 C 69.726562 197.734375 71.496094 203.605469 74.890625 209.039062 C 76.464844 211.558594 78.457031 213.753906 80.550781 215.855469 C 81.78125 217.09375 83.082031 218.25 84.355469 219.441406 C 84.421875 219.464844 84.484375 219.484375 84.550781 219.507812 C 84.582031 219.578125 84.636719 219.652344 84.628906 219.71875 C 84.628906 219.71875 84.628906 219.71875 84.628906 219.722656 C 84.625 219.777344 84.546875 219.769531 84.5 219.726562 C 83.816406 219.65625 83.167969 219.445312 82.53125 219.203125 C 82.097656 219.035156 81.664062 218.902344 81.191406 218.90625 C 80.257812 218.539062 79.5 218.792969 79.050781 219.59375 C 80.371094 221.082031 82.160156 221.628906 84.023438 222.039062 C 84.71875 222.191406 85.398438 222.390625 86.082031 222.578125 C 87.71875 223.027344 87.507812 222.871094 88.511719 221.917969 C 88.738281 221.703125 88.910156 221.441406 89.050781 221.167969 C 89.105469 221.066406 89.144531 220.964844 89.101562 220.851562 C 89.34375 220.597656 89.246094 220.320312 89.136719 220.054688 C 88.8125 219.265625 88.480469 218.484375 88.148438 217.699219 C 88.179688 217.496094 88.085938 217.332031 87.988281 217.171875 C 88.027344 216.972656 87.929688 216.808594 87.84375 216.640625 C 87.894531 216.503906 87.8125 216.386719 87.785156 216.257812 C 87.417969 214.550781 87.25 212.828125 87.378906 211.074219 C 87.386719 210.941406 87.386719 210.8125 87.390625 210.679688 C 87.394531 210.523438 87.40625 210.34375 87.234375 210.285156 C 87.105469 210.238281 86.9375 210.324219 86.882812 210.429688 C 86.636719 210.878906 86.15625 211.113281 85.882812 211.527344 C 85.757812 211.710938 85.722656 211.929688 85.691406 212.152344 C 85.425781 213.871094 85.476562 215.582031 85.703125 217.292969 C 85.726562 217.445312 85.769531 217.601562 85.757812 217.75 C 85.742188 217.929688 85.597656 217.933594 85.457031 217.898438 C 85.414062 217.726562 85.304688 217.636719 85.132812 217.613281 C 85.066406 217.464844 84.988281 217.328125 84.800781 217.308594 C 84.804688 217.265625 84.78125 217.246094 84.738281 217.246094 C 84.679688 217.105469 84.597656 216.980469 84.425781 216.953125 C 84.363281 216.867188 84.3125 216.769531 84.234375 216.691406 C 83.394531 215.855469 82.539062 215.035156 81.710938 214.1875 C 80.957031 213.421875 80.226562 212.628906 79.488281 211.847656 C 79.320312 211.621094 79.160156 211.382812 78.980469 211.164062 C 77.265625 208.996094 75.835938 206.65625 74.769531 204.105469 C 74.386719 203.195312 74.035156 202.277344 73.671875 201.359375 C 73.707031 201.148438 73.601562 200.980469 73.496094 200.8125 C 73.535156 200.609375 73.4375 200.449219 73.339844 200.289062 C 73.390625 200.097656 73.285156 199.949219 73.207031 199.792969 C 73.253906 199.671875 73.210938 199.570312 73.132812 199.476562 C 73.144531 199.433594 73.132812 199.394531 73.09375 199.367188 C 73.144531 199.230469 73.066406 199.109375 73.042969 198.984375 C 72.929688 198.363281 72.703125 197.765625 72.664062 197.128906 C 72.597656 197.097656 72.511719 196.9375 72.5 197.175781 C 72.492188 197.335938 72.453125 197.359375 72.402344 197.335938 C 72.359375 197.3125 72.3125 197.253906 72.269531 197.214844 C 71.972656 195.242188 71.917969 193.253906 71.996094 191.261719 C 72.019531 191.078125 72.042969 190.890625 72.066406 190.707031 C 72.214844 189.605469 72.359375 188.503906 72.503906 187.402344 C 72.539062 187.367188 72.554688 187.332031 72.558594 187.292969 C 72.558594 187.269531 72.554688 187.242188 72.546875 187.214844 C 72.597656 187.160156 72.609375 187.097656 72.582031 187.03125 C 72.640625 186.976562 72.652344 186.914062 72.621094 186.847656 C 72.679688 186.796875 72.691406 186.734375 72.660156 186.664062 C 72.71875 186.609375 72.734375 186.550781 72.703125 186.480469 C 72.761719 186.429688 72.777344 186.367188 72.746094 186.296875 C 72.804688 186.246094 72.820312 186.1875 72.789062 186.117188 L 72.789062 186.113281 C 72.808594 186.054688 72.824219 185.996094 72.835938 185.9375 L 72.835938 185.929688 C 72.898438 185.882812 72.914062 185.824219 72.882812 185.753906 L 72.886719 185.746094 C 72.945312 185.699219 72.960938 185.640625 72.929688 185.570312 L 72.933594 185.5625 C 72.996094 185.515625 73.011719 185.457031 72.980469 185.386719 L 72.980469 185.382812 C 73.042969 185.335938 73.058594 185.273438 73.027344 185.203125 L 73.03125 185.203125 C 73.089844 185.152344 73.109375 185.09375 73.078125 185.019531 C 73.269531 184.472656 73.457031 183.929688 73.648438 183.382812 C 73.65625 183.066406 73.808594 182.796875 73.921875 182.515625 C 73.957031 182.511719 73.992188 182.515625 74.019531 182.523438 C 74.066406 182.539062 74.105469 182.566406 74.140625 182.609375 C 74.246094 182.40625 74.371094 182.210938 74.378906 181.96875 C 74.375 181.898438 74.378906 181.828125 74.414062 181.757812 C 74.402344 181.828125 74.390625 181.898438 74.378906 181.96875 C 74.425781 181.910156 74.464844 181.851562 74.425781 181.777344 C 74.523438 181.71875 74.566406 181.628906 74.570312 181.515625 C 74.632812 181.476562 74.664062 181.425781 74.640625 181.351562 C 74.695312 181.296875 74.730469 181.238281 74.710938 181.15625 C 74.742188 181.136719 74.761719 181.105469 74.765625 181.066406 C 74.90625 180.886719 75.003906 180.6875 75.050781 180.460938 C 75.144531 180.328125 75.238281 180.199219 75.253906 180.03125 C 75.34375 179.96875 75.367188 179.867188 75.398438 179.773438 C 75.765625 179.25 76.03125 178.664062 76.519531 178.191406 C 76.292969 178.109375 76.234375 177.859375 75.996094 177.90625 Z M 84.625 217.3125 C 84.625 217.3125 84.625 217.3125 84.621094 217.3125 C 84.621094 217.3125 84.621094 217.308594 84.621094 217.308594 C 84.621094 217.308594 84.621094 217.3125 84.621094 217.3125 C 84.625 217.308594 84.625 217.308594 84.628906 217.308594 C 84.625 217.3125 84.625 217.3125 84.625 217.3125 Z M 72.613281 185.328125 C 72.609375 185.339844 72.601562 185.351562 72.597656 185.367188 C 72.597656 185.363281 72.597656 185.359375 72.597656 185.355469 C 72.601562 185.34375 72.605469 185.332031 72.609375 185.316406 C 72.609375 185.320312 72.613281 185.320312 72.613281 185.328125 Z M 72.5 187.390625 C 72.5 187.390625 72.5 187.390625 72.496094 187.390625 C 72.492188 187.390625 72.488281 187.390625 72.484375 187.386719 L 72.46875 187.378906 L 72.5 187.390625 C 72.5 187.390625 72.5 187.386719 72.503906 187.386719 C 72.5 187.386719 72.5 187.390625 72.5 187.390625 Z M 72.570312 185.273438 C 72.582031 185.289062 72.59375 185.300781 72.605469 185.316406 C 72.601562 185.328125 72.597656 185.339844 72.597656 185.351562 C 72.597656 185.324219 72.589844 185.296875 72.570312 185.273438 Z M 72.570312 185.433594 C 72.566406 185.449219 72.5625 185.460938 72.558594 185.476562 C 72.558594 185.476562 72.558594 185.476562 72.554688 185.476562 C 72.5625 185.464844 72.566406 185.449219 72.570312 185.433594 Z M 75.023438 178.621094 C 75.023438 178.621094 75.023438 178.617188 75.023438 178.617188 C 75.023438 178.617188 75.023438 178.613281 75.023438 178.613281 C 75.023438 178.613281 75.027344 178.613281 75.027344 178.609375 C 75.027344 178.613281 75.023438 178.617188 75.023438 178.621094 Z M 74.859375 178.855469 C 74.859375 178.855469 74.855469 178.859375 74.855469 178.863281 C 74.855469 178.859375 74.859375 178.855469 74.859375 178.855469 Z M 74.386719 181.648438 C 74.378906 181.636719 74.367188 181.628906 74.351562 181.621094 C 74.359375 181.617188 74.367188 181.613281 74.375 181.609375 C 74.378906 181.621094 74.382812 181.632812 74.386719 181.648438 Z M 74.644531 181.21875 C 74.652344 181.195312 74.667969 181.175781 74.691406 181.160156 C 74.671875 181.179688 74.65625 181.199219 74.644531 181.21875 Z M 74.644531 181.21875 " fill-opacity="1" fill-rule="nonzero"/></g></g></g></g><g clip-path="url(#30014b9fa5)"><g clip-path="url(#22d80f79ae)"><g clip-path="url(#f126e62cb9)"><g clip-path="url(#3aba28b468)"><path fill="#ffffff" d="M 72.835938 185.925781 C 72.820312 185.984375 72.804688 186.042969 72.789062 186.101562 C 72.851562 186.054688 72.867188 185.996094 72.835938 185.925781 Z M 72.835938 185.925781 " fill-opacity="1" fill-rule="nonzero"/></g></g></g></g><g clip-path="url(#259e567c46)"><g clip-path="url(#6c93864849)"><g clip-path="url(#f06fd795b3)"><g clip-path="url(#c2d8f5c978)"><path fill="#ffffff" d="M 177.445312 132.273438 C 177.476562 132.246094 177.488281 132.210938 177.484375 132.167969 C 177.605469 132.085938 177.792969 132.226562 177.878906 132.039062 C 178.269531 131.8125 178.238281 131.464844 178.136719 131.101562 C 177.855469 130.089844 177.417969 129.148438 176.921875 128.230469 C 175.144531 124.945312 172.765625 122.191406 169.878906 119.839844 C 164.839844 115.730469 159.019531 113.800781 152.625 113.449219 C 149.660156 113.285156 146.71875 113.648438 143.792969 114.148438 C 142.074219 114.445312 140.375 114.84375 138.667969 115.199219 C 138.613281 115.238281 138.558594 115.28125 138.503906 115.320312 C 138.425781 115.304688 138.335938 115.308594 138.285156 115.261719 C 138.285156 115.261719 138.285156 115.261719 138.28125 115.261719 C 138.242188 115.226562 138.292969 115.167969 138.351562 115.152344 C 138.804688 114.632812 139.347656 114.226562 139.914062 113.847656 C 140.304688 113.585938 140.660156 113.308594 140.929688 112.921875 C 141.765625 112.371094 141.996094 111.601562 141.601562 110.773438 C 139.621094 110.996094 138.144531 112.144531 136.738281 113.433594 C 136.214844 113.914062 135.660156 114.355469 135.113281 114.804688 C 133.800781 115.882812 134.050781 115.804688 134.253906 117.171875 C 134.296875 117.480469 134.414062 117.769531 134.554688 118.046875 C 134.609375 118.148438 134.667969 118.238281 134.78125 118.269531 C 134.855469 118.613281 135.136719 118.695312 135.417969 118.757812 C 136.246094 118.945312 137.078125 119.121094 137.914062 119.304688 C 138.058594 119.445312 138.246094 119.464844 138.433594 119.472656 C 138.578125 119.621094 138.765625 119.636719 138.953125 119.660156 C 139.035156 119.78125 139.179688 119.785156 139.296875 119.835938 C 140.90625 120.515625 142.414062 121.371094 143.769531 122.484375 C 143.875 122.570312 143.984375 122.644531 144.089844 122.722656 C 144.210938 122.820312 144.355469 122.929688 144.5 122.824219 C 144.613281 122.746094 144.636719 122.558594 144.585938 122.453125 C 144.355469 121.992188 144.445312 121.464844 144.261719 121 C 144.179688 120.796875 144.023438 120.640625 143.859375 120.484375 C 142.609375 119.28125 141.179688 118.335938 139.648438 117.539062 C 139.511719 117.46875 139.363281 117.414062 139.246094 117.320312 C 139.109375 117.207031 139.1875 117.085938 139.296875 116.988281 C 139.460938 117.050781 139.597656 117.015625 139.714844 116.886719 C 139.875 116.917969 140.035156 116.933594 140.15625 116.789062 C 140.191406 116.820312 140.21875 116.8125 140.242188 116.777344 C 140.394531 116.808594 140.542969 116.816406 140.664062 116.6875 C 140.769531 116.6875 140.882812 116.703125 140.988281 116.683594 C 142.15625 116.476562 143.320312 116.253906 144.488281 116.058594 C 145.550781 115.886719 146.617188 115.742188 147.679688 115.589844 C 147.964844 115.582031 148.25 115.585938 148.53125 115.570312 C 151.292969 115.414062 154.027344 115.59375 156.726562 116.1875 C 157.691406 116.398438 158.648438 116.640625 159.605469 116.871094 C 159.757812 117.023438 159.957031 117.03125 160.152344 117.042969 C 160.296875 117.191406 160.484375 117.203125 160.671875 117.214844 C 160.796875 117.367188 160.980469 117.363281 161.152344 117.390625 C 161.226562 117.5 161.335938 117.523438 161.453125 117.511719 C 161.484375 117.550781 161.519531 117.5625 161.566406 117.546875 C 161.652344 117.664062 161.792969 117.667969 161.910156 117.722656 C 162.484375 117.988281 163.101562 118.144531 163.644531 118.480469 C 163.707031 118.445312 163.890625 118.46875 163.699219 118.320312 C 163.574219 118.21875 163.578125 118.175781 163.625 118.148438 C 163.667969 118.128906 163.746094 118.121094 163.800781 118.109375 C 165.585938 119 167.242188 120.101562 168.828125 121.3125 C 168.964844 121.4375 169.101562 121.566406 169.238281 121.691406 C 170.054688 122.445312 170.875 123.199219 171.691406 123.949219 C 171.699219 123.996094 171.71875 124.03125 171.746094 124.054688 C 171.769531 124.074219 171.792969 124.085938 171.820312 124.09375 C 171.832031 124.167969 171.878906 124.210938 171.949219 124.230469 C 171.960938 124.304688 172.003906 124.347656 172.078125 124.367188 C 172.085938 124.441406 172.128906 124.488281 172.207031 124.503906 C 172.214844 124.582031 172.253906 124.628906 172.332031 124.644531 C 172.335938 124.722656 172.378906 124.769531 172.457031 124.78125 L 172.457031 124.785156 C 172.460938 124.859375 172.503906 124.910156 172.578125 124.921875 L 172.578125 124.925781 C 172.617188 124.972656 172.65625 125.019531 172.699219 125.066406 L 172.703125 125.070312 C 172.707031 125.144531 172.746094 125.191406 172.820312 125.210938 L 172.824219 125.214844 C 172.832031 125.289062 172.867188 125.335938 172.945312 125.355469 L 172.949219 125.359375 C 172.949219 125.4375 172.992188 125.484375 173.066406 125.5 L 173.070312 125.503906 C 173.070312 125.582031 173.113281 125.628906 173.1875 125.644531 C 173.191406 125.722656 173.230469 125.773438 173.308594 125.792969 C 173.644531 126.261719 173.980469 126.730469 174.320312 127.199219 C 174.574219 127.386719 174.707031 127.667969 174.871094 127.921875 C 174.851562 127.953125 174.832031 127.976562 174.804688 127.996094 C 174.765625 128.027344 174.722656 128.042969 174.667969 128.042969 C 174.773438 128.25 174.863281 128.464844 175.054688 128.609375 C 175.117188 128.648438 175.171875 128.691406 175.207031 128.761719 C 175.15625 128.710938 175.105469 128.660156 175.054688 128.609375 C 175.074219 128.683594 175.101562 128.746094 175.183594 128.757812 C 175.175781 128.875 175.226562 128.957031 175.316406 129.027344 C 175.308594 129.101562 175.335938 129.15625 175.410156 129.179688 C 175.421875 129.257812 175.449219 129.320312 175.527344 129.351562 C 175.527344 129.386719 175.539062 129.421875 175.570312 129.445312 C 175.636719 129.664062 175.746094 129.859375 175.898438 130.027344 C 175.957031 130.179688 176.007812 130.332031 176.132812 130.441406 C 176.132812 130.550781 176.203125 130.628906 176.261719 130.707031 C 176.480469 131.308594 176.804688 131.863281 176.914062 132.535156 C 177.105469 132.394531 177.347656 132.492188 177.445312 132.273438 Z M 140.253906 116.644531 C 140.257812 116.644531 140.257812 116.644531 140.257812 116.644531 C 140.257812 116.640625 140.257812 116.640625 140.257812 116.640625 C 140.257812 116.640625 140.261719 116.644531 140.261719 116.644531 C 140.261719 116.644531 140.257812 116.644531 140.257812 116.644531 C 140.257812 116.644531 140.257812 116.648438 140.257812 116.648438 C 140.253906 116.648438 140.257812 116.644531 140.253906 116.644531 Z M 173.324219 125.234375 C 173.316406 125.222656 173.308594 125.210938 173.300781 125.195312 C 173.304688 125.199219 173.308594 125.203125 173.3125 125.203125 C 173.320312 125.214844 173.328125 125.222656 173.335938 125.234375 C 173.332031 125.234375 173.328125 125.234375 173.324219 125.234375 Z M 171.699219 123.953125 C 171.699219 123.953125 171.703125 123.953125 171.703125 123.949219 C 171.707031 123.949219 171.710938 123.945312 171.714844 123.941406 L 171.730469 123.933594 L 171.703125 123.953125 C 171.703125 123.953125 171.703125 123.953125 171.703125 123.957031 C 171.703125 123.953125 171.703125 123.953125 171.699219 123.953125 Z M 173.394531 125.226562 C 173.375 125.230469 173.355469 125.234375 173.339844 125.234375 C 173.332031 125.222656 173.324219 125.214844 173.3125 125.207031 C 173.335938 125.222656 173.363281 125.234375 173.394531 125.226562 Z M 173.261719 125.136719 C 173.253906 125.125 173.242188 125.113281 173.234375 125.105469 C 173.234375 125.101562 173.234375 125.101562 173.234375 125.101562 C 173.242188 125.113281 173.253906 125.125 173.261719 125.136719 Z M 177.421875 131.0625 C 177.421875 131.0625 177.421875 131.066406 177.425781 131.066406 C 177.425781 131.070312 177.425781 131.070312 177.425781 131.074219 C 177.425781 131.070312 177.421875 131.066406 177.421875 131.0625 Z M 177.324219 130.796875 C 177.324219 130.792969 177.324219 130.789062 177.320312 130.789062 C 177.320312 130.789062 177.324219 130.796875 177.324219 130.796875 Z M 175.3125 128.800781 C 175.324219 128.800781 175.339844 128.796875 175.351562 128.789062 C 175.351562 128.796875 175.351562 128.808594 175.351562 128.816406 C 175.339844 128.8125 175.324219 128.808594 175.3125 128.800781 Z M 175.511719 129.261719 C 175.527344 129.277344 175.535156 129.304688 175.539062 129.332031 C 175.539062 129.332031 175.539062 129.332031 175.535156 129.332031 C 175.53125 129.304688 175.527344 129.28125 175.511719 129.261719 Z M 175.511719 129.261719 " fill-opacity="1" fill-rule="nonzero"/></g></g></g></g><g clip-path="url(#c2fa3938b5)"><g clip-path="url(#b3cbbbe4e9)"><g clip-path="url(#752efdfefc)"><g clip-path="url(#86f895ae25)"><path fill="#ffffff" d="M 172.707031 125.070312 C 172.667969 125.023438 172.628906 124.980469 172.589844 124.933594 C 172.59375 125.011719 172.632812 125.054688 172.707031 125.070312 Z M 172.707031 125.070312 " fill-opacity="1" fill-rule="nonzero"/></g></g></g></g><g clip-path="url(#5c5c3fe322)"><g clip-path="url(#8ed68f117b)"><g clip-path="url(#0dab776cbc)"><g clip-path="url(#130e844d37)"><path fill="#ffffff" d="M 167.832031 241.28125 C 167.835938 241.320312 167.859375 241.351562 167.894531 241.371094 C 167.894531 241.515625 167.675781 241.59375 167.777344 241.769531 C 167.742188 242.21875 168.046875 242.390625 168.398438 242.515625 C 169.390625 242.863281 170.417969 243.039062 171.453125 243.15625 C 175.164062 243.566406 178.78125 243.183594 182.359375 242.148438 C 188.609375 240.351562 193.511719 236.671875 197.445312 231.617188 C 199.269531 229.273438 200.648438 226.648438 201.90625 223.957031 C 202.644531 222.378906 203.28125 220.757812 203.964844 219.152344 C 203.960938 219.082031 203.960938 219.015625 203.957031 218.945312 C 204.015625 218.894531 204.0625 218.816406 204.128906 218.796875 C 204.128906 218.796875 204.128906 218.796875 204.132812 218.796875 C 204.183594 218.785156 204.203125 218.859375 204.179688 218.917969 C 204.351562 219.585938 204.375 220.265625 204.363281 220.945312 C 204.355469 221.414062 204.382812 221.867188 204.546875 222.308594 C 204.523438 223.308594 205.023438 223.933594 205.929688 224.082031 C 206.875 222.328125 206.773438 220.460938 206.515625 218.570312 C 206.417969 217.867188 206.371094 217.160156 206.3125 216.453125 C 206.175781 214.761719 206.097656 215.011719 204.859375 214.398438 C 204.582031 214.261719 204.277344 214.1875 203.96875 214.148438 C 203.855469 214.132812 203.75 214.132812 203.65625 214.210938 C 203.332031 214.070312 203.105469 214.257812 202.894531 214.449219 C 202.265625 215.027344 201.644531 215.609375 201.019531 216.191406 C 200.820312 216.230469 200.699219 216.371094 200.582031 216.523438 C 200.382812 216.554688 200.261719 216.703125 200.136719 216.839844 C 199.988281 216.839844 199.902344 216.957031 199.796875 217.027344 C 198.316406 217.957031 196.757812 218.710938 195.066406 219.191406 C 194.941406 219.226562 194.816406 219.273438 194.691406 219.316406 C 194.542969 219.363281 194.371094 219.417969 194.371094 219.597656 C 194.375 219.734375 194.515625 219.859375 194.628906 219.878906 C 195.136719 219.953125 195.523438 220.324219 196.007812 220.441406 C 196.222656 220.492188 196.441406 220.449219 196.660156 220.40625 C 198.363281 220.0625 199.953125 219.425781 201.480469 218.625 C 201.617188 218.550781 201.746094 218.457031 201.894531 218.414062 C 202.0625 218.367188 202.117188 218.503906 202.136719 218.648438 C 201.988281 218.746094 201.941406 218.878906 201.980469 219.050781 C 201.863281 219.164062 201.757812 219.285156 201.808594 219.46875 C 201.765625 219.480469 201.753906 219.507812 201.769531 219.546875 C 201.65625 219.652344 201.566406 219.769531 201.601562 219.941406 C 201.542969 220.03125 201.46875 220.113281 201.421875 220.210938 C 200.925781 221.289062 200.445312 222.371094 199.9375 223.441406 C 199.476562 224.414062 198.984375 225.371094 198.507812 226.332031 C 198.347656 226.570312 198.183594 226.800781 198.035156 227.046875 C 196.59375 229.402344 194.886719 231.546875 192.859375 233.425781 C 192.136719 234.097656 191.390625 234.746094 190.65625 235.402344 C 190.445312 235.441406 190.324219 235.597656 190.203125 235.753906 C 190 235.789062 189.882812 235.933594 189.765625 236.082031 C 189.570312 236.097656 189.464844 236.25 189.347656 236.375 C 189.214844 236.375 189.132812 236.449219 189.074219 236.554688 C 189.027344 236.558594 188.996094 236.582031 188.984375 236.628906 C 188.839844 236.628906 188.753906 236.742188 188.644531 236.808594 C 188.097656 237.128906 187.617188 237.546875 187.03125 237.800781 C 187.023438 237.875 186.902344 238.011719 187.132812 237.941406 C 187.285156 237.894531 187.320312 237.921875 187.3125 237.976562 C 187.308594 238.023438 187.269531 238.089844 187.246094 238.144531 C 185.496094 239.101562 183.648438 239.835938 181.75 240.449219 C 181.570312 240.488281 181.386719 240.53125 181.203125 240.570312 C 180.121094 240.8125 179.035156 241.054688 177.949219 241.296875 C 177.90625 241.277344 177.867188 241.273438 177.832031 241.28125 C 177.804688 241.289062 177.78125 241.304688 177.761719 241.324219 C 177.691406 241.289062 177.628906 241.300781 177.574219 241.351562 C 177.507812 241.316406 177.445312 241.328125 177.390625 241.378906 C 177.320312 241.339844 177.257812 241.351562 177.203125 241.402344 C 177.132812 241.367188 177.070312 241.375 177.015625 241.425781 C 176.949219 241.386719 176.886719 241.394531 176.832031 241.449219 L 176.828125 241.449219 C 176.761719 241.410156 176.699219 241.417969 176.644531 241.46875 L 176.640625 241.472656 C 176.582031 241.472656 176.519531 241.480469 176.460938 241.488281 L 176.453125 241.488281 C 176.386719 241.449219 176.328125 241.453125 176.273438 241.507812 L 176.265625 241.507812 C 176.199219 241.46875 176.140625 241.472656 176.082031 241.527344 L 176.078125 241.527344 C 176.078125 241.527344 176.074219 241.527344 176.074219 241.527344 C 176.074219 241.527344 176.078125 241.527344 176.078125 241.527344 C 176.011719 241.484375 175.949219 241.492188 175.894531 241.542969 L 175.890625 241.542969 C 175.824219 241.5 175.761719 241.507812 175.707031 241.558594 L 175.703125 241.558594 C 175.636719 241.519531 175.574219 241.523438 175.515625 241.574219 C 174.9375 241.585938 174.363281 241.59375 173.785156 241.605469 C 173.484375 241.707031 173.175781 241.652344 172.875 241.644531 C 172.859375 241.613281 172.851562 241.582031 172.851562 241.550781 C 172.847656 241.5 172.859375 241.453125 172.890625 241.410156 C 172.660156 241.378906 172.433594 241.328125 172.207031 241.402344 C 172.140625 241.433594 172.070312 241.453125 171.996094 241.441406 C 172.066406 241.429688 172.136719 241.417969 172.207031 241.402344 C 172.132812 241.378906 172.0625 241.363281 172.011719 241.425781 C 171.917969 241.351562 171.820312 241.347656 171.710938 241.382812 C 171.65625 241.332031 171.597656 241.324219 171.535156 241.371094 C 171.464844 241.339844 171.398438 241.324219 171.328125 241.371094 C 171.296875 241.347656 171.261719 241.339844 171.222656 241.351562 C 171.003906 241.28125 170.785156 241.261719 170.558594 241.292969 C 170.402344 241.25 170.246094 241.203125 170.082031 241.246094 C 169.992188 241.183594 169.890625 241.195312 169.792969 241.199219 C 169.175781 241.035156 168.535156 240.988281 167.921875 240.695312 C 167.921875 240.933594 167.707031 241.074219 167.832031 241.28125 Z M 201.871094 219.632812 C 201.871094 219.636719 201.871094 219.632812 201.871094 219.632812 C 201.871094 219.636719 201.867188 219.636719 201.867188 219.636719 C 201.867188 219.636719 201.871094 219.632812 201.871094 219.632812 C 201.867188 219.632812 201.867188 219.632812 201.863281 219.628906 C 201.867188 219.628906 201.871094 219.632812 201.871094 219.632812 Z M 175.964844 241.90625 C 175.976562 241.90625 175.992188 241.910156 176.007812 241.910156 C 176.003906 241.910156 176 241.910156 175.996094 241.914062 C 175.984375 241.914062 175.972656 241.914062 175.957031 241.914062 C 175.960938 241.914062 175.960938 241.910156 175.964844 241.90625 Z M 177.941406 241.300781 C 177.945312 241.304688 177.941406 241.304688 177.941406 241.304688 C 177.941406 241.3125 177.945312 241.316406 177.945312 241.320312 L 177.941406 241.339844 L 177.941406 241.304688 C 177.941406 241.304688 177.941406 241.304688 177.9375 241.304688 C 177.941406 241.304688 177.941406 241.304688 177.941406 241.300781 Z M 175.929688 241.964844 C 175.9375 241.949219 175.949219 241.933594 175.957031 241.917969 C 175.96875 241.917969 175.980469 241.917969 175.992188 241.914062 C 175.96875 241.921875 175.945312 241.9375 175.929688 241.964844 Z M 176.078125 241.910156 C 176.09375 241.910156 176.109375 241.90625 176.125 241.90625 C 176.125 241.910156 176.125 241.90625 176.125 241.910156 C 176.109375 241.910156 176.09375 241.910156 176.078125 241.910156 Z M 168.839844 241.949219 C 168.839844 241.953125 168.835938 241.953125 168.835938 241.953125 C 168.835938 241.953125 168.832031 241.953125 168.832031 241.953125 C 168.832031 241.949219 168.828125 241.949219 168.828125 241.949219 C 168.832031 241.949219 168.835938 241.949219 168.839844 241.949219 Z M 169.113281 242.023438 C 169.117188 242.023438 169.121094 242.027344 169.125 242.027344 C 169.121094 242.023438 169.117188 242.023438 169.113281 242.023438 Z M 171.898438 241.507812 C 171.894531 241.519531 171.890625 241.53125 171.886719 241.546875 C 171.878906 241.542969 171.875 241.535156 171.867188 241.53125 C 171.878906 241.523438 171.886719 241.515625 171.898438 241.507812 Z M 171.410156 241.410156 C 171.386719 241.414062 171.359375 241.40625 171.335938 241.390625 C 171.363281 241.402344 171.386719 241.410156 171.410156 241.410156 Z M 171.410156 241.410156 " fill-opacity="1" fill-rule="nonzero"/></g></g></g></g><g clip-path="url(#0bb449ae79)"><g clip-path="url(#6df47a57af)"><g clip-path="url(#759d80fcdd)"><g clip-path="url(#b49322b34d)"><path fill="#ffffff" d="M 176.449219 241.492188 C 176.511719 241.488281 176.570312 241.480469 176.632812 241.476562 C 176.566406 241.433594 176.503906 241.441406 176.449219 241.492188 Z M 176.449219 241.492188 " fill-opacity="1" fill-rule="nonzero"/></g></g></g></g><path stroke-linecap="butt" transform="matrix(0.74987, 0.00605191, -0.00605275, 0.749976, 136.490312, 77.868268)" fill="none" stroke-linejoin="miter" d="M -0.00220337 1.998642 L 223.036361 2.000981 " stroke="#000000" stroke-width="4" stroke-opacity="1" stroke-miterlimit="4"/><path stroke-linecap="butt" transform="matrix(0.750617, -0.00364086, 0.00363783, 0.749991, 135.126205, 291.168432)" fill="none" stroke-linejoin="miter" d="M -0.000887235 1.999401 L 224.814281 2.002221 " stroke="#000000" stroke-width="4" stroke-opacity="1" stroke-miterlimit="4"/><g clip-path="url(#cf8c1bc8f7)"><path fill="#38b6ff" d="M 294.695312 306.992188 L 286.203125 297.5 C 286.019531 297.296875 285.765625 297.183594 285.5 297.183594 L 279.835938 297.183594 C 279.464844 297.183594 279.128906 297.402344 278.972656 297.746094 C 278.824219 298.089844 278.886719 298.488281 279.136719 298.765625 L 287.058594 307.628906 L 279.136719 316.484375 C 278.886719 316.765625 278.820312 317.164062 278.972656 317.507812 C 279.128906 317.851562 279.464844 318.070312 279.835938 318.070312 L 285.5 318.070312 C 285.765625 318.070312 286.019531 317.953125 286.203125 317.757812 L 294.695312 308.261719 C 295.015625 307.902344 295.015625 307.351562 294.695312 306.992188 Z M 294.695312 306.992188 " fill-opacity="1" fill-rule="nonzero"/></g><g clip-path="url(#6a667b0bd4)"><path fill="#38b6ff" d="M 282.425781 306.992188 L 273.933594 297.5 C 273.75 297.296875 273.5 297.183594 273.230469 297.183594 L 267.570312 297.183594 C 267.195312 297.183594 266.859375 297.402344 266.707031 297.746094 C 266.554688 298.089844 266.617188 298.488281 266.867188 298.765625 L 274.792969 307.628906 L 266.867188 316.484375 C 266.617188 316.765625 266.554688 317.164062 266.707031 317.507812 C 266.859375 317.851562 267.195312 318.070312 267.570312 318.070312 L 273.230469 318.070312 C 273.5 318.070312 273.75 317.953125 273.933594 317.757812 L 282.425781 308.261719 C 282.75 307.902344 282.75 307.351562 282.425781 306.992188 Z M 282.425781 306.992188 " fill-opacity="1" fill-rule="nonzero"/></g><g clip-path="url(#49969fcdd4)"><path fill="#38b6ff" d="M 257.570312 306.992188 L 249.078125 297.5 C 248.894531 297.296875 248.640625 297.183594 248.375 297.183594 L 242.710938 297.183594 C 242.339844 297.183594 242.003906 297.402344 241.847656 297.746094 C 241.699219 298.089844 241.761719 298.488281 242.007812 298.765625 L 249.933594 307.628906 L 242.007812 316.484375 C 241.761719 316.765625 241.695312 317.164062 241.847656 317.507812 C 242.003906 317.851562 242.339844 318.070312 242.710938 318.070312 L 248.375 318.070312 C 248.640625 318.070312 248.894531 317.953125 249.078125 317.757812 L 257.570312 308.261719 C 257.890625 307.902344 257.890625 307.351562 257.570312 306.992188 Z M 257.570312 306.992188 " fill-opacity="1" fill-rule="nonzero"/></g><g clip-path="url(#fd6ddb4c15)"><path fill="#38b6ff" d="M 245.300781 306.992188 L 236.808594 297.5 C 236.625 297.296875 236.375 297.183594 236.105469 297.183594 L 230.445312 297.183594 C 230.070312 297.183594 229.734375 297.402344 229.582031 297.746094 C 229.429688 298.089844 229.492188 298.488281 229.742188 298.765625 L 237.667969 307.628906 L 229.742188 316.484375 C 229.492188 316.765625 229.429688 317.164062 229.582031 317.507812 C 229.734375 317.851562 230.070312 318.070312 230.445312 318.070312 L 236.105469 318.070312 C 236.375 318.070312 236.625 317.953125 236.808594 317.757812 L 245.300781 308.261719 C 245.625 307.902344 245.625 307.351562 245.300781 306.992188 Z M 245.300781 306.992188 " fill-opacity="1" fill-rule="nonzero"/></g><g clip-path="url(#67b99395e2)"><path fill="#5ce1e6" d="M 220.445312 306.992188 L 211.953125 297.5 C 211.769531 297.296875 211.515625 297.183594 211.25 297.183594 L 205.585938 297.183594 C 205.214844 297.183594 204.878906 297.402344 204.722656 297.746094 C 204.574219 298.089844 204.636719 298.488281 204.886719 298.765625 L 212.808594 307.628906 L 204.886719 316.484375 C 204.636719 316.765625 204.570312 317.164062 204.722656 317.507812 C 204.878906 317.851562 205.214844 318.070312 205.585938 318.070312 L 211.25 318.070312 C 211.515625 318.070312 211.769531 317.953125 211.953125 317.757812 L 220.445312 308.261719 C 220.765625 307.902344 220.765625 307.351562 220.445312 306.992188 Z M 220.445312 306.992188 " fill-opacity="1" fill-rule="nonzero"/></g><g clip-path="url(#9e6cf25632)"><path fill="#5ce1e6" d="M 208.175781 306.992188 L 199.683594 297.5 C 199.5 297.296875 199.25 297.183594 198.980469 297.183594 L 193.320312 297.183594 C 192.945312 297.183594 192.609375 297.402344 192.457031 297.746094 C 192.304688 298.089844 192.367188 298.488281 192.617188 298.765625 L 200.542969 307.628906 L 192.617188 316.484375 C 192.367188 316.765625 192.304688 317.164062 192.457031 317.507812 C 192.609375 317.851562 192.945312 318.070312 193.320312 318.070312 L 198.980469 318.070312 C 199.25 318.070312 199.5 317.953125 199.683594 317.757812 L 208.175781 308.261719 C 208.5 307.902344 208.5 307.351562 208.175781 306.992188 Z M 208.175781 306.992188 " fill-opacity="1" fill-rule="nonzero"/></g><g clip-path="url(#eb68c9d704)"><path fill="#38b6ff" d="M 183.320312 306.992188 L 174.828125 297.5 C 174.644531 297.296875 174.390625 297.183594 174.125 297.183594 L 168.460938 297.183594 C 168.089844 297.183594 167.753906 297.402344 167.597656 297.746094 C 167.449219 298.089844 167.511719 298.488281 167.761719 298.765625 L 175.683594 307.628906 L 167.761719 316.484375 C 167.511719 316.765625 167.445312 317.164062 167.597656 317.507812 C 167.753906 317.851562 168.089844 318.070312 168.460938 318.070312 L 174.125 318.070312 C 174.390625 318.070312 174.644531 317.953125 174.828125 317.757812 L 183.320312 308.261719 C 183.640625 307.902344 183.640625 307.351562 183.320312 306.992188 Z M 183.320312 306.992188 " fill-opacity="1" fill-rule="nonzero"/></g><g clip-path="url(#451cd7202d)"><path fill="#38b6ff" d="M 171.050781 306.992188 L 162.558594 297.5 C 162.375 297.296875 162.125 297.183594 161.855469 297.183594 L 156.195312 297.183594 C 155.820312 297.183594 155.484375 297.402344 155.332031 297.746094 C 155.179688 298.089844 155.242188 298.488281 155.492188 298.765625 L 163.417969 307.628906 L 155.492188 316.484375 C 155.242188 316.765625 155.179688 317.164062 155.332031 317.507812 C 155.484375 317.851562 155.820312 318.070312 156.195312 318.070312 L 161.855469 318.070312 C 162.125 318.070312 162.375 317.953125 162.558594 317.757812 L 171.050781 308.261719 C 171.375 307.902344 171.375 307.351562 171.050781 306.992188 Z M 171.050781 306.992188 " fill-opacity="1" fill-rule="nonzero"/></g><g clip-path="url(#5786884cfe)"><g clip-path="url(#46de9e27f0)"><g clip-path="url(#49461bf211)"><path fill="#38b6ff" d="M 146.183594 306.746094 L 137.523438 297.402344 C 137.339844 297.207031 137.085938 297.097656 136.816406 297.101562 L 131.15625 297.199219 C 130.785156 297.207031 130.449219 297.433594 130.304688 297.777344 C 130.160156 298.125 130.226562 298.523438 130.480469 298.796875 L 138.5625 307.515625 L 130.792969 316.511719 C 130.550781 316.796875 130.492188 317.195312 130.652344 317.535156 C 130.8125 317.875 131.152344 318.089844 131.523438 318.085938 L 137.1875 317.984375 C 137.453125 317.980469 137.703125 317.859375 137.882812 317.660156 L 146.207031 308.015625 C 146.523438 307.648438 146.511719 307.097656 146.183594 306.746094 Z M 146.183594 306.746094 " fill-opacity="1" fill-rule="nonzero"/></g></g></g><g clip-path="url(#483ffbd22c)"><g clip-path="url(#92e93525e3)"><g clip-path="url(#d2b2967446)"><path fill="#38b6ff" d="M 133.917969 306.960938 L 125.257812 297.621094 C 125.074219 297.421875 124.820312 297.3125 124.550781 297.316406 L 118.890625 297.417969 C 118.519531 297.425781 118.183594 297.648438 118.035156 297.996094 C 117.890625 298.339844 117.960938 298.742188 118.214844 299.011719 L 126.296875 307.730469 L 118.527344 316.726562 C 118.285156 317.011719 118.226562 317.414062 118.386719 317.753906 C 118.546875 318.09375 118.886719 318.308594 119.257812 318.300781 L 124.921875 318.199219 C 125.1875 318.195312 125.4375 318.074219 125.617188 317.875 L 133.941406 308.234375 C 134.257812 307.867188 134.246094 307.316406 133.917969 306.960938 Z M 133.917969 306.960938 " fill-opacity="1" fill-rule="nonzero"/></g></g></g><g clip-path="url(#4e19c5404b)"><g clip-path="url(#1cfcce269a)"><g clip-path="url(#89ad44319f)"><path fill="#38b6ff" d="M 99.40625 301.191406 L 97.382812 288.617188 C 97.335938 288.347656 97.1875 288.117188 96.960938 287.972656 L 92.195312 284.914062 C 91.882812 284.714844 91.476562 284.714844 91.164062 284.921875 C 90.851562 285.128906 90.6875 285.5 90.75 285.867188 L 92.636719 297.605469 L 81.183594 300.78125 C 80.824219 300.882812 80.550781 301.183594 80.496094 301.554688 C 80.441406 301.925781 80.605469 302.296875 80.917969 302.496094 L 85.683594 305.554688 C 85.910156 305.699219 86.183594 305.738281 86.445312 305.667969 L 98.71875 302.261719 C 99.1875 302.132812 99.484375 301.667969 99.40625 301.191406 Z M 99.40625 301.191406 " fill-opacity="1" fill-rule="nonzero"/></g></g></g><g clip-path="url(#db36da128f)"><g clip-path="url(#c7c1faabfb)"><g clip-path="url(#e316d5ce25)"><path fill="#38b6ff" d="M 89.078125 294.570312 L 87.054688 281.992188 C 87.011719 281.726562 86.859375 281.492188 86.632812 281.347656 L 81.867188 278.292969 C 81.554688 278.089844 81.152344 278.09375 80.839844 278.296875 C 80.527344 278.507812 80.363281 278.878906 80.421875 279.246094 L 82.308594 290.980469 L 70.855469 294.160156 C 70.496094 294.257812 70.226562 294.5625 70.167969 294.933594 C 70.113281 295.304688 70.277344 295.671875 70.589844 295.871094 L 75.359375 298.929688 C 75.582031 299.074219 75.859375 299.113281 76.117188 299.046875 L 88.394531 295.640625 C 88.859375 295.507812 89.15625 295.046875 89.078125 294.570312 Z M 89.078125 294.570312 " fill-opacity="1" fill-rule="nonzero"/></g></g></g><g clip-path="url(#9c37dc2a42)"><g clip-path="url(#3e2bea8b00)"><g clip-path="url(#0f963403a6)"><path fill="#5ce1e6" d="M 61.433594 282.320312 L 61.902344 269.589844 C 61.910156 269.316406 61.808594 269.0625 61.613281 268.875 L 57.535156 264.945312 C 57.269531 264.6875 56.871094 264.613281 56.523438 264.753906 C 56.175781 264.894531 55.945312 265.226562 55.929688 265.601562 L 55.492188 277.480469 L 43.640625 278.363281 C 43.265625 278.390625 42.941406 278.632812 42.816406 278.988281 C 42.6875 279.339844 42.777344 279.734375 43.046875 279.992188 L 47.125 283.917969 C 47.316406 284.105469 47.582031 284.195312 47.847656 284.179688 L 60.550781 283.234375 C 61.035156 283.199219 61.414062 282.800781 61.433594 282.320312 Z M 61.433594 282.320312 " fill-opacity="1" fill-rule="nonzero"/></g></g></g><g clip-path="url(#21a243a793)"><g clip-path="url(#d097254914)"><g clip-path="url(#2d9da7f238)"><path fill="#5ce1e6" d="M 52.597656 273.808594 L 53.066406 261.078125 C 53.074219 260.808594 52.96875 260.550781 52.777344 260.363281 L 48.699219 256.4375 C 48.429688 256.179688 48.035156 256.101562 47.6875 256.242188 C 47.339844 256.386719 47.109375 256.71875 47.09375 257.089844 L 46.65625 268.96875 L 34.804688 269.851562 C 34.429688 269.878906 34.105469 270.125 33.980469 270.476562 C 33.851562 270.828125 33.941406 271.222656 34.210938 271.480469 L 38.289062 275.410156 C 38.480469 275.59375 38.742188 275.6875 39.011719 275.671875 L 51.714844 274.722656 C 52.199219 274.6875 52.578125 274.289062 52.597656 273.808594 Z M 52.597656 273.808594 " fill-opacity="1" fill-rule="nonzero"/></g></g></g><g clip-path="url(#368d1075e9)"><g clip-path="url(#067474b823)"><g clip-path="url(#8ec88aa08e)"><path fill="#38b6ff" d="M 36.792969 250.25 L 40.734375 238.136719 C 40.816406 237.878906 40.789062 237.601562 40.652344 237.371094 L 37.808594 232.476562 C 37.621094 232.15625 37.261719 231.972656 36.890625 232.011719 C 36.515625 232.054688 36.199219 232.308594 36.085938 232.664062 L 32.410156 243.96875 L 20.769531 241.570312 C 20.402344 241.492188 20.023438 241.640625 19.804688 241.945312 C 19.585938 242.25 19.5625 242.652344 19.75 242.972656 L 22.597656 247.867188 C 22.730469 248.101562 22.957031 248.261719 23.21875 248.316406 L 35.695312 250.890625 C 36.171875 250.988281 36.648438 250.710938 36.792969 250.25 Z M 36.792969 250.25 " fill-opacity="1" fill-rule="nonzero"/></g></g></g><g clip-path="url(#b251c7eaec)"><g clip-path="url(#cd96d35272)"><g clip-path="url(#d89f40591f)"><path fill="#38b6ff" d="M 30.628906 239.644531 L 34.570312 227.53125 C 34.652344 227.273438 34.625 226.996094 34.488281 226.765625 L 31.644531 221.871094 C 31.457031 221.546875 31.097656 221.367188 30.722656 221.40625 C 30.351562 221.449219 30.035156 221.703125 29.921875 222.058594 L 26.246094 233.363281 L 14.601562 230.960938 C 14.238281 230.886719 13.859375 231.035156 13.640625 231.335938 C 13.417969 231.640625 13.398438 232.042969 13.585938 232.367188 L 16.429688 237.261719 C 16.566406 237.492188 16.792969 237.652344 17.054688 237.710938 L 29.53125 240.28125 C 30.003906 240.378906 30.480469 240.105469 30.628906 239.644531 Z M 30.628906 239.644531 " fill-opacity="1" fill-rule="nonzero"/></g></g></g><g clip-path="url(#1610c7f96b)"><path fill="#38b6ff" d="M 20.015625 200.003906 L 29.507812 191.511719 C 29.710938 191.332031 29.824219 191.078125 29.824219 190.808594 L 29.824219 185.148438 C 29.824219 184.777344 29.605469 184.4375 29.261719 184.285156 C 28.917969 184.132812 28.515625 184.195312 28.242188 184.445312 L 19.378906 192.371094 L 10.523438 184.445312 C 10.242188 184.195312 9.84375 184.132812 9.5 184.285156 C 9.15625 184.4375 8.9375 184.777344 8.9375 185.148438 L 8.9375 190.808594 C 8.9375 191.078125 9.050781 191.332031 9.25 191.511719 L 18.746094 200.003906 C 19.105469 200.328125 19.65625 200.328125 20.015625 200.003906 Z M 20.015625 200.003906 " fill-opacity="1" fill-rule="nonzero"/></g><g clip-path="url(#3c1976f8c9)"><path fill="#38b6ff" d="M 20.015625 187.738281 L 29.507812 179.242188 C 29.710938 179.0625 29.824219 178.808594 29.824219 178.542969 L 29.824219 172.878906 C 29.824219 172.507812 29.605469 172.171875 29.261719 172.015625 C 28.917969 171.867188 28.515625 171.929688 28.242188 172.175781 L 19.378906 180.101562 L 10.523438 172.175781 C 10.242188 171.929688 9.84375 171.863281 9.5 172.015625 C 9.15625 172.171875 8.9375 172.507812 8.9375 172.878906 L 8.9375 178.542969 C 8.9375 178.808594 9.050781 179.0625 9.25 179.242188 L 18.746094 187.738281 C 19.105469 188.058594 19.65625 188.058594 20.015625 187.738281 Z M 20.015625 187.738281 " fill-opacity="1" fill-rule="nonzero"/></g><g clip-path="url(#ba0ebfa173)"><g clip-path="url(#82cd036c84)"><g clip-path="url(#5e4a1227ea)"><path fill="#38b6ff" d="M 22.28125 145.097656 L 34.921875 143.527344 C 35.191406 143.492188 35.429688 143.347656 35.582031 143.128906 L 38.808594 138.476562 C 39.019531 138.167969 39.03125 137.765625 38.835938 137.445312 C 38.640625 137.125 38.273438 136.949219 37.90625 136.996094 L 26.109375 138.460938 L 23.34375 126.902344 C 23.253906 126.539062 22.960938 126.257812 22.59375 126.191406 C 22.226562 126.121094 21.851562 126.273438 21.640625 126.578125 L 18.414062 131.230469 C 18.261719 131.453125 18.210938 131.726562 18.273438 131.988281 L 21.238281 144.375 C 21.351562 144.847656 21.800781 145.160156 22.28125 145.097656 Z M 22.28125 145.097656 " fill-opacity="1" fill-rule="nonzero"/></g></g></g><g clip-path="url(#2d64179a35)"><g clip-path="url(#e6fae9d709)"><g clip-path="url(#ec01c4c85f)"><path fill="#38b6ff" d="M 29.269531 135.015625 L 41.910156 133.441406 C 42.179688 133.410156 42.417969 133.265625 42.570312 133.046875 L 45.792969 128.390625 C 46.007812 128.085938 46.019531 127.683594 45.824219 127.363281 C 45.628906 127.042969 45.261719 126.867188 44.894531 126.914062 L 33.097656 128.378906 L 30.332031 116.820312 C 30.242188 116.457031 29.949219 116.175781 29.582031 116.105469 C 29.210938 116.035156 28.839844 116.1875 28.628906 116.492188 L 25.402344 121.148438 C 25.25 121.367188 25.199219 121.640625 25.261719 121.902344 L 28.226562 134.292969 C 28.335938 134.761719 28.789062 135.078125 29.269531 135.015625 Z M 29.269531 135.015625 " fill-opacity="1" fill-rule="nonzero"/></g></g></g><g clip-path="url(#1c01e271e1)"><g clip-path="url(#e5fe988e45)"><g clip-path="url(#3647c6b26f)"><path fill="#5ce1e6" d="M 45.109375 108.90625 L 57.78125 110.222656 C 58.050781 110.25 58.3125 110.164062 58.511719 109.984375 L 62.703125 106.175781 C 62.976562 105.925781 63.078125 105.535156 62.960938 105.179688 C 62.84375 104.824219 62.527344 104.570312 62.15625 104.53125 L 50.332031 103.304688 L 50.242188 91.417969 C 50.238281 91.042969 50.015625 90.703125 49.675781 90.554688 C 49.332031 90.402344 48.933594 90.46875 48.65625 90.71875 L 44.464844 94.523438 C 44.265625 94.703125 44.160156 94.960938 44.15625 95.230469 L 44.253906 107.96875 C 44.257812 108.453125 44.628906 108.859375 45.109375 108.90625 Z M 45.109375 108.90625 " fill-opacity="1" fill-rule="nonzero"/></g></g></g><g clip-path="url(#02e4455e23)"><g clip-path="url(#77da850dba)"><g clip-path="url(#929fd9dee0)"><path fill="#5ce1e6" d="M 54.1875 100.65625 L 66.859375 101.972656 C 67.128906 102 67.394531 101.914062 67.589844 101.734375 L 71.78125 97.925781 C 72.058594 97.675781 72.160156 97.285156 72.042969 96.929688 C 71.921875 96.574219 71.609375 96.320312 71.238281 96.28125 L 59.414062 95.054688 L 59.324219 83.167969 C 59.320312 82.792969 59.097656 82.453125 58.753906 82.304688 C 58.410156 82.152344 58.011719 82.21875 57.738281 82.46875 L 53.546875 86.273438 C 53.347656 86.457031 53.238281 86.710938 53.238281 86.980469 L 53.335938 99.71875 C 53.339844 100.203125 53.710938 100.609375 54.1875 100.65625 Z M 54.1875 100.65625 " fill-opacity="1" fill-rule="nonzero"/></g></g></g><g clip-path="url(#e734041163)"><g clip-path="url(#55a1946b68)"><g clip-path="url(#07509f56a3)"><path fill="#38b6ff" d="M 75.378906 84.589844 L 87.1875 89.363281 C 87.441406 89.460938 87.71875 89.453125 87.957031 89.335938 L 93.039062 86.835938 C 93.371094 86.671875 93.578125 86.328125 93.566406 85.953125 C 93.550781 85.578125 93.316406 85.246094 92.96875 85.105469 L 81.949219 80.652344 L 85.152344 69.207031 C 85.253906 68.84375 85.136719 68.457031 84.847656 68.21875 C 84.558594 67.976562 84.160156 67.929688 83.824219 68.09375 L 78.742188 70.589844 C 78.503906 70.707031 78.328125 70.925781 78.25 71.179688 L 74.816406 83.449219 C 74.6875 83.914062 74.929688 84.410156 75.378906 84.589844 Z M 75.378906 84.589844 " fill-opacity="1" fill-rule="nonzero"/></g></g></g><g clip-path="url(#e49b98ebe1)"><g clip-path="url(#bc10817240)"><g clip-path="url(#8650393682)"><path fill="#38b6ff" d="M 86.386719 79.175781 L 98.199219 83.949219 C 98.449219 84.050781 98.726562 84.042969 98.96875 83.921875 L 104.050781 81.425781 C 104.382812 81.261719 104.589844 80.914062 104.574219 80.539062 C 104.558594 80.164062 104.328125 79.832031 103.980469 79.695312 L 92.960938 75.238281 L 96.164062 63.792969 C 96.265625 63.433594 96.144531 63.046875 95.859375 62.804688 C 95.570312 62.566406 95.167969 62.515625 94.835938 62.679688 L 89.753906 65.179688 C 89.511719 65.296875 89.335938 65.511719 89.261719 65.769531 L 85.828125 78.035156 C 85.695312 78.503906 85.941406 78.996094 86.386719 79.175781 Z M 86.386719 79.175781 " fill-opacity="1" fill-rule="nonzero"/></g></g></g><g clip-path="url(#6c487cbb90)"><path fill="#38b6ff" d="M 118.214844 68.148438 L 126.707031 77.640625 C 126.890625 77.84375 127.144531 77.957031 127.410156 77.957031 L 133.074219 77.957031 C 133.445312 77.957031 133.78125 77.738281 133.9375 77.394531 C 134.085938 77.050781 134.023438 76.652344 133.773438 76.375 L 125.851562 67.515625 L 133.773438 58.65625 C 134.023438 58.375 134.089844 57.976562 133.9375 57.632812 C 133.78125 57.289062 133.445312 57.070312 133.074219 57.070312 L 127.410156 57.070312 C 127.144531 57.070312 126.890625 57.1875 126.707031 57.382812 L 118.214844 66.878906 C 117.894531 67.238281 117.894531 67.789062 118.214844 68.148438 Z M 118.214844 68.148438 " fill-opacity="1" fill-rule="nonzero"/></g><g clip-path="url(#1119df4236)"><path fill="#38b6ff" d="M 130.484375 68.148438 L 138.976562 77.640625 C 139.160156 77.84375 139.410156 77.957031 139.679688 77.957031 L 145.339844 77.957031 C 145.714844 77.957031 146.050781 77.738281 146.203125 77.394531 C 146.355469 77.050781 146.292969 76.652344 146.042969 76.375 L 138.117188 67.515625 L 146.042969 58.65625 C 146.292969 58.375 146.355469 57.976562 146.203125 57.632812 C 146.050781 57.289062 145.714844 57.070312 145.339844 57.070312 L 139.679688 57.070312 C 139.410156 57.070312 139.160156 57.1875 138.976562 57.382812 L 130.484375 66.878906 C 130.160156 67.238281 130.160156 67.789062 130.484375 68.148438 Z M 130.484375 68.148438 " fill-opacity="1" fill-rule="nonzero"/></g><g clip-path="url(#373210f1d3)"><g clip-path="url(#efe63cbb7c)"><g clip-path="url(#36589b0dbb)"><path fill="#38b6ff" d="M 154.75 67.308594 L 162.957031 77.050781 C 163.128906 77.257812 163.378906 77.378906 163.648438 77.390625 L 169.308594 77.558594 C 169.679688 77.570312 170.023438 77.359375 170.1875 77.023438 C 170.347656 76.683594 170.296875 76.28125 170.058594 75.996094 L 162.402344 66.902344 L 170.589844 58.289062 C 170.847656 58.015625 170.925781 57.617188 170.78125 57.269531 C 170.640625 56.921875 170.308594 56.691406 169.9375 56.683594 L 164.277344 56.511719 C 164.007812 56.503906 163.753906 56.613281 163.566406 56.804688 L 154.789062 66.039062 C 154.457031 66.386719 154.441406 66.9375 154.75 67.308594 Z M 154.75 67.308594 " fill-opacity="1" fill-rule="nonzero"/></g></g></g><g clip-path="url(#a1330fb6d4)"><g clip-path="url(#b3e39b9eac)"><g clip-path="url(#929ba830a2)"><path fill="#38b6ff" d="M 167.015625 67.675781 L 175.21875 77.421875 C 175.394531 77.628906 175.640625 77.75 175.910156 77.757812 L 181.570312 77.929688 C 181.941406 77.941406 182.285156 77.730469 182.449219 77.394531 C 182.609375 77.054688 182.558594 76.652344 182.320312 76.367188 L 174.664062 67.273438 L 182.851562 58.65625 C 183.109375 58.386719 183.1875 57.988281 183.042969 57.640625 C 182.902344 57.292969 182.570312 57.0625 182.199219 57.050781 L 176.539062 56.878906 C 176.269531 56.871094 176.015625 56.980469 175.828125 57.171875 L 167.050781 66.40625 C 166.71875 66.757812 166.703125 67.308594 167.015625 67.675781 Z M 167.015625 67.675781 " fill-opacity="1" fill-rule="nonzero"/></g></g></g><g clip-path="url(#c91005deac)"><g clip-path="url(#23a73f5efb)"><g clip-path="url(#5ec56f9c6b)"><path fill="#38b6ff" d="M 266.402344 67.308594 L 274.609375 77.050781 C 274.78125 77.257812 275.03125 77.378906 275.300781 77.390625 L 280.960938 77.558594 C 281.332031 77.570312 281.675781 77.359375 281.839844 77.023438 C 282 76.683594 281.949219 76.28125 281.710938 75.996094 L 274.054688 66.902344 L 282.242188 58.289062 C 282.5 58.015625 282.578125 57.617188 282.433594 57.269531 C 282.292969 56.921875 281.960938 56.691406 281.589844 56.683594 L 275.929688 56.511719 C 275.660156 56.503906 275.40625 56.613281 275.21875 56.804688 L 266.441406 66.039062 C 266.109375 66.386719 266.09375 66.9375 266.402344 67.308594 Z M 266.402344 67.308594 " fill-opacity="1" fill-rule="nonzero"/></g></g></g><g clip-path="url(#ab7787ef2a)"><g clip-path="url(#913a5a3c9c)"><g clip-path="url(#28f0724b48)"><path fill="#38b6ff" d="M 278.667969 67.675781 L 286.871094 77.421875 C 287.046875 77.628906 287.292969 77.75 287.5625 77.757812 L 293.222656 77.929688 C 293.59375 77.941406 293.9375 77.730469 294.101562 77.394531 C 294.261719 77.054688 294.210938 76.652344 293.972656 76.367188 L 286.316406 67.273438 L 294.503906 58.65625 C 294.761719 58.386719 294.839844 57.988281 294.695312 57.640625 C 294.554688 57.292969 294.222656 57.0625 293.851562 57.050781 L 288.191406 56.878906 C 287.921875 56.871094 287.667969 56.980469 287.480469 57.171875 L 278.703125 66.40625 C 278.371094 66.757812 278.355469 67.308594 278.667969 67.675781 Z M 278.667969 67.675781 " fill-opacity="1" fill-rule="nonzero"/></g></g></g><g clip-path="url(#eea0e413e8)"><g clip-path="url(#ed719edd64)"><g clip-path="url(#739b5a92a6)"><path fill="#38b6ff" d="M 229.277344 67.308594 L 237.484375 77.050781 C 237.65625 77.257812 237.90625 77.378906 238.175781 77.390625 L 243.835938 77.558594 C 244.207031 77.570312 244.550781 77.359375 244.714844 77.023438 C 244.875 76.683594 244.824219 76.28125 244.585938 75.996094 L 236.929688 66.902344 L 245.117188 58.289062 C 245.375 58.015625 245.453125 57.617188 245.308594 57.269531 C 245.167969 56.921875 244.835938 56.691406 244.464844 56.683594 L 238.804688 56.511719 C 238.535156 56.503906 238.28125 56.613281 238.09375 56.804688 L 229.316406 66.039062 C 228.984375 66.386719 228.96875 66.9375 229.277344 67.308594 Z M 229.277344 67.308594 " fill-opacity="1" fill-rule="nonzero"/></g></g></g><g clip-path="url(#25b6aadd00)"><g clip-path="url(#708c48cc08)"><g clip-path="url(#8d1143fffa)"><path fill="#38b6ff" d="M 241.542969 67.675781 L 249.746094 77.421875 C 249.921875 77.628906 250.167969 77.75 250.4375 77.757812 L 256.097656 77.929688 C 256.46875 77.941406 256.8125 77.730469 256.976562 77.394531 C 257.136719 77.054688 257.085938 76.652344 256.847656 76.367188 L 249.191406 67.273438 L 257.378906 58.65625 C 257.636719 58.386719 257.714844 57.988281 257.570312 57.640625 C 257.429688 57.292969 257.097656 57.0625 256.726562 57.050781 L 251.066406 56.878906 C 250.796875 56.871094 250.542969 56.980469 250.355469 57.171875 L 241.578125 66.40625 C 241.246094 66.757812 241.230469 67.308594 241.542969 67.675781 Z M 241.542969 67.675781 " fill-opacity="1" fill-rule="nonzero"/></g></g></g><g clip-path="url(#9981ee18bd)"><g clip-path="url(#f4578e51c3)"><g clip-path="url(#146360115e)"><path fill="#5ce1e6" d="M 192.761719 67.308594 L 200.964844 77.050781 C 201.140625 77.257812 201.390625 77.378906 201.660156 77.390625 L 207.316406 77.558594 C 207.691406 77.570312 208.035156 77.359375 208.199219 77.023438 C 208.359375 76.683594 208.308594 76.28125 208.066406 75.996094 L 200.414062 66.902344 L 208.601562 58.289062 C 208.859375 58.015625 208.933594 57.617188 208.792969 57.269531 C 208.648438 56.921875 208.320312 56.691406 207.945312 56.683594 L 202.289062 56.511719 C 202.019531 56.503906 201.761719 56.613281 201.574219 56.804688 L 192.800781 66.039062 C 192.46875 66.386719 192.449219 66.9375 192.761719 67.308594 Z M 192.761719 67.308594 " fill-opacity="1" fill-rule="nonzero"/></g></g></g><g clip-path="url(#183881dde2)"><g clip-path="url(#852828e6ac)"><g clip-path="url(#dad9fb3948)"><path fill="#5ce1e6" d="M 205.023438 67.675781 L 213.230469 77.421875 C 213.402344 77.628906 213.652344 77.75 213.921875 77.757812 L 219.582031 77.929688 C 219.953125 77.941406 220.296875 77.730469 220.460938 77.394531 C 220.621094 77.054688 220.570312 76.652344 220.332031 76.367188 L 212.675781 67.273438 L 220.863281 58.65625 C 221.121094 58.386719 221.199219 57.988281 221.054688 57.640625 C 220.914062 57.292969 220.582031 57.0625 220.210938 57.050781 L 214.550781 56.878906 C 214.28125 56.871094 214.027344 56.980469 213.839844 57.171875 L 205.0625 66.40625 C 204.730469 66.757812 204.714844 67.308594 205.023438 67.675781 Z M 205.023438 67.675781 " fill-opacity="1" fill-rule="nonzero"/></g></g></g></svg>