<svg xmlns="http://www.w3.org/2000/svg" width="450" viewBox="0 0 337.5 375" height="500" version="1.0"><defs><clipPath id="prefix__a"><path d="M0 52.777h303.75V323H0zm0 0"/></clipPath><clipPath id="prefix__b"><path d="M7.918 142.824C3.137 156.668 0 172.406 0 187.852c0 15.445 2.688 30.304 7.469 44.003.152.29.152.583.3.875 19.122 51.434 69.622 89.32 127.887 90.047H303.75v-270H135.781c-58.687.73-109.187 38.032-127.863 90.047"/></clipPath><clipPath id="prefix__c"><path d="M0 52.777h303.75v270H0zm0 0"/></clipPath><clipPath id="prefix__d"><path d="M7.918 142.824C3.137 156.668 0 172.406 0 187.852c0 15.445 2.688 30.304 7.469 44.003.152.29.152.583.3.875 19.122 51.434 69.622 89.32 127.887 90.047H303.75v-270H135.781c-58.687.73-109.187 38.032-127.863 90.047"/></clipPath><clipPath id="prefix__e"><path d="M34 77h217v217H34zm0 0"/></clipPath><clipPath id="prefix__f"><path d="M9.05 259.367l60.243-207.73 207.727 60.242-60.243 207.73zm0 0"/></clipPath><clipPath id="prefix__g"><path d="M39.129 155.64c-16.613 57.286 16.36 117.192 73.648 133.805 57.285 16.614 117.192-16.36 133.805-73.644 16.613-57.285-16.36-117.196-73.644-133.809-57.286-16.613-117.196 16.36-133.81 73.649"/></clipPath><clipPath id="prefix__h"><path d="M34 77h217v217H34zm0 0"/></clipPath><clipPath id="prefix__i"><path d="M9.05 259.367L69.21 51.914l207.454 60.16L216.5 319.527zm0 0"/></clipPath><clipPath id="prefix__j"><path d="M9.05 259.367L70.064 48.98l210.386 61.012-61.015 210.387zm0 0"/></clipPath><clipPath id="prefix__k"><path d="M39.129 155.64c-16.613 57.286 16.36 117.192 73.648 133.805 57.285 16.614 117.192-16.36 133.805-73.644 16.613-57.285-16.36-117.196-73.644-133.809-57.286-16.613-117.196 16.36-133.81 73.649"/></clipPath><clipPath id="prefix__l"><path d="M75 161h36v26H75zm0 0"/></clipPath><clipPath id="prefix__m"><path d="M75.434 178.715l4.62-17.567 30.876 8.118-4.621 17.57zm0 0"/></clipPath><clipPath id="prefix__n"><path d="M75.434 178.715l4.52-17.18 30.683 8.067-4.516 17.183zm0 0"/></clipPath><clipPath id="prefix__o"><path d="M157 134h36v36h-36zm0 0"/></clipPath><clipPath id="prefix__p"><path d="M169.648 169.75l-12.761-12.922 22.715-22.433 12.761 12.925zm0 0"/></clipPath><clipPath id="prefix__q"><path d="M169.648 169.75l-12.484-12.64 22.578-22.294 12.485 12.641zm0 0"/></clipPath><clipPath id="prefix__r"><path d="M93 152h82v83H93zm0 0"/></clipPath><clipPath id="prefix__s"><path d="M193.66 223.059l-82.293 22.058-19.16-71.465 82.293-22.058zm0 0"/></clipPath><clipPath id="prefix__t"><path d="M152.828 234.004l-59.805-59.828 81.665-21.89-21.86 81.718"/></clipPath><clipPath id="prefix__u"><path d="M138 208h26v36h-26zm0 0"/></clipPath><clipPath id="prefix__v"><path d="M163.457 239.328l-17.543 4.703-8.266-30.836 17.543-4.703zm0 0"/></clipPath><clipPath id="prefix__w"><path d="M163.457 239.328l-17.16 4.602-8.215-30.649 17.16-4.597zm0 0"/></clipPath><clipPath id="prefix__x"><path d="M132 233h57v57h-57zm0 0"/></clipPath><clipPath id="prefix__y"><path d="M180.637 227.883l13.16 54.043-54.043 13.16-13.16-54.043zm0 0"/></clipPath><clipPath id="prefix__z"><path d="M187.219 254.902c-3.637-14.922-18.68-24.074-33.602-20.441-14.926 3.637-24.078 18.68-20.441 33.605 3.633 14.922 18.676 24.075 33.601 20.438 14.922-3.633 24.075-18.676 20.442-33.602"/></clipPath><clipPath id="prefix__A"><path d="M132 233h56v57h-56zm0 0"/></clipPath><clipPath id="prefix__B"><path d="M180.637 227.883l13.133 53.922-53.926 13.132-13.13-53.921zm0 0"/></clipPath><clipPath id="prefix__C"><path d="M180.637 227.883l13.133 53.922-53.926 13.132-13.13-53.921zm0 0"/></clipPath><clipPath id="prefix__D"><path d="M187.203 254.844c-3.625-14.89-18.637-24.024-33.527-20.395-14.89 3.625-24.024 18.637-20.395 33.528 3.625 14.89 18.637 24.023 33.528 20.394 14.89-3.625 24.02-18.637 20.394-33.527"/></clipPath><clipPath id="prefix__E"><path d="M168 103h56v56h-56zm0 0"/></clipPath><clipPath id="prefix__F"><path d="M235.227 131.102l-39.34 39.32-39.32-39.344 39.34-39.316zm0 0"/></clipPath><clipPath id="prefix__G"><path d="M215.559 150.762c10.863-10.86 10.867-28.469.007-39.332-10.855-10.864-28.464-10.868-39.328-.012-10.863 10.86-10.87 28.469-.011 39.332s28.468 10.871 39.332.012"/></clipPath><clipPath id="prefix__H"><path d="M168 103h56v56h-56zm0 0"/></clipPath><clipPath id="prefix__I"><path d="M235.227 131.102l-39.254 39.234-39.235-39.258 39.258-39.23zm0 0"/></clipPath><clipPath id="prefix__J"><path d="M235.227 131.102l-39.254 39.234-39.235-39.258 39.258-39.23zm0 0"/></clipPath><clipPath id="prefix__K"><path d="M215.602 150.719c10.84-10.836 10.843-28.406.011-39.246-10.836-10.84-28.406-10.844-39.246-.008-10.84 10.832-10.844 28.402-.012 39.242 10.836 10.84 28.407 10.844 39.247.012"/></clipPath><clipPath id="prefix__L"><path d="M40 139h56v57H40zm0 0"/></clipPath><clipPath id="prefix__M"><path d="M88.559 133.719l13.16 54.039-54.043 13.164-13.16-54.043zm0 0"/></clipPath><clipPath id="prefix__N"><path d="M95.14 160.738c-3.636-14.922-18.68-24.074-33.605-20.441-14.922 3.633-24.074 18.68-20.437 33.601 3.632 14.926 18.675 24.075 33.601 20.442 14.922-3.633 24.074-18.68 20.442-33.602"/></clipPath><clipPath id="prefix__O"><path d="M40 139h56v56H40zm0 0"/></clipPath><clipPath id="prefix__P"><path d="M88.559 133.719l13.132 53.922-53.925 13.132-13.133-53.925zm0 0"/></clipPath><clipPath id="prefix__Q"><path d="M88.559 133.719l13.132 53.922-53.925 13.132-13.133-53.925zm0 0"/></clipPath><clipPath id="prefix__R"><path d="M95.125 160.68c-3.629-14.89-18.637-24.024-33.527-20.399-14.891 3.63-24.024 18.64-20.399 33.531 3.63 14.891 18.637 24.02 33.528 20.395 14.89-3.625 24.023-18.637 20.398-33.527"/></clipPath><clipPath id="prefix__S"><path d="M153 254h15v15h-15zm0 0"/></clipPath><clipPath id="prefix__T"><path d="M168.746 266.414l-13.48 3.613-3.618-13.48 13.485-3.617zm0 0"/></clipPath><clipPath id="prefix__U"><path d="M162.008 268.223a6.984 6.984 0 004.933-8.551 6.984 6.984 0 00-8.55-4.934 6.983 6.983 0 00-4.934 8.551 6.983 6.983 0 008.55 4.934"/></clipPath><clipPath id="prefix__V"><path d="M188 124h15v15h-15zm0 0"/></clipPath><clipPath id="prefix__W"><path d="M195.898 140.96l-9.867-9.874 9.875-9.867 9.867 9.87zm0 0"/></clipPath><clipPath id="prefix__X"><path d="M190.965 136.023a6.982 6.982 0 009.87.004 6.979 6.979 0 00.005-9.87 6.979 6.979 0 00-9.871-.005 6.982 6.982 0 00-.004 9.871"/></clipPath><clipPath id="prefix__Y"><path d="M60 161h15v15H60zm0 0"/></clipPath><clipPath id="prefix__Z"><path d="M76.422 173.258l-13.484 3.613-3.614-13.48 13.48-3.618zm0 0"/></clipPath><clipPath id="prefix__aa"><path d="M69.68 175.066a6.98 6.98 0 10-8.55-4.934 6.984 6.984 0 008.55 4.934"/></clipPath><clipPath id="prefix__ab"><path d="M79 212h35v36H79zm0 0"/></clipPath><clipPath id="prefix__ac"><path d="M80.637 211.41l36.23 30.328-8.664 10.352-36.23-30.328zm0 0"/></clipPath><clipPath id="prefix__ad"><path d="M80.637 211.41l36.23 30.328-8.664 10.352-36.23-30.328zm0 0"/></clipPath><clipPath id="prefix__ae"><path d="M80.637 211.41l36.23 30.328-8.664 10.352-36.23-30.328zm0 0"/></clipPath><clipPath id="prefix__af"><path d="M82 220h1v1h-1zm0 0"/></clipPath><clipPath id="prefix__ag"><path d="M80.637 211.41l36.23 30.328-8.664 10.352-36.23-30.328zm0 0"/></clipPath><clipPath id="prefix__ah"><path d="M80.637 211.41l36.23 30.328-8.664 10.352-36.23-30.328zm0 0"/></clipPath><clipPath id="prefix__ai"><path d="M80.637 211.41l36.23 30.328-8.664 10.352-36.23-30.328zm0 0"/></clipPath><clipPath id="prefix__aj"><path d="M100 114h47v18h-47zm0 0"/></clipPath><clipPath id="prefix__ak"><path d="M147.113 122.332L101.457 134.5l-3.48-13.047 45.66-12.168zm0 0"/></clipPath><clipPath id="prefix__al"><path d="M147.113 122.332L101.457 134.5l-3.48-13.047 45.66-12.168zm0 0"/></clipPath><clipPath id="prefix__am"><path d="M147.113 122.332L101.457 134.5l-3.48-13.047 45.66-12.168zm0 0"/></clipPath><clipPath id="prefix__an"><path d="M138 118h1v1h-1zm0 0"/></clipPath><clipPath id="prefix__ao"><path d="M147.113 122.332L101.457 134.5l-3.48-13.047 45.66-12.168zm0 0"/></clipPath><clipPath id="prefix__ap"><path d="M147.113 122.332L101.457 134.5l-3.48-13.047 45.66-12.168zm0 0"/></clipPath><clipPath id="prefix__aq"><path d="M147.113 122.332L101.457 134.5l-3.48-13.047 45.66-12.168zm0 0"/></clipPath><clipPath id="prefix__ar"><path d="M191 179h26v44h-26zm0 0"/></clipPath><clipPath id="prefix__as"><path d="M191.535 222.078l16.024-44.453 12.699 4.582-16.024 44.45zm0 0"/></clipPath><clipPath id="prefix__at"><path d="M191.535 222.078l16.024-44.453 12.699 4.582-16.024 44.45zm0 0"/></clipPath><clipPath id="prefix__au"><path d="M191.535 222.078l16.024-44.453 12.699 4.582-16.024 44.45zm0 0"/></clipPath><clipPath id="prefix__av"><path d="M199 217h1v1h-1zm0 0"/></clipPath><clipPath id="prefix__aw"><path d="M191.535 222.078l16.024-44.453 12.699 4.582-16.024 44.45zm0 0"/></clipPath><clipPath id="prefix__ax"><path d="M191.535 222.078l16.024-44.453 12.699 4.582-16.024 44.45zm0 0"/></clipPath><clipPath id="prefix__ay"><path d="M191.535 222.078l16.024-44.453 12.699 4.582-16.024 44.45zm0 0"/></clipPath><clipPath id="prefix__az"><path d="M278 297.129h17v21h-17zm0 0"/></clipPath><clipPath id="prefix__aA"><path d="M266.625 297.129H283v21h-16.375zm0 0"/></clipPath><clipPath id="prefix__aB"><path d="M241 297.129h17v21h-17zm0 0"/></clipPath><clipPath id="prefix__aC"><path d="M229.5 297.129H246v21h-16.5zm0 0"/></clipPath><clipPath id="prefix__aD"><path d="M204 297.129h16.875v21H204zm0 0"/></clipPath><clipPath id="prefix__aE"><path d="M192.375 297.129H209v21h-16.625zm0 0"/></clipPath><clipPath id="prefix__aF"><path d="M167 297.129h16.75v21H167zm0 0"/></clipPath><clipPath id="prefix__aG"><path d="M155.25 297.129H172v21h-16.75zm0 0"/></clipPath><clipPath id="prefix__aH"><path d="M130 297h17v22h-17zm0 0"/></clipPath><clipPath id="prefix__aI"><path d="M117.945 297.379l28.496-.504.371 20.996-28.496.504zm0 0"/></clipPath><clipPath id="prefix__aJ"><path d="M117.945 297.379l28.496-.504.371 20.996-28.496.504zm0 0"/></clipPath><clipPath id="prefix__aK"><path d="M117 297h18v22h-18zm0 0"/></clipPath><clipPath id="prefix__aL"><path d="M117.945 297.379l28.496-.504.371 20.996-28.496.504zm0 0"/></clipPath><clipPath id="prefix__aM"><path d="M117.945 297.379l28.496-.504.371 20.996-28.496.504zm0 0"/></clipPath><clipPath id="prefix__aN"><path d="M80 284h20v22H80zm0 0"/></clipPath><clipPath id="prefix__aO"><path d="M81.105 277.734l23.989 15.387-11.336 17.676-23.992-15.387zm0 0"/></clipPath><clipPath id="prefix__aP"><path d="M81.105 277.734l23.989 15.387-11.336 17.676-23.992-15.387zm0 0"/></clipPath><clipPath id="prefix__aQ"><path d="M70 278h20v22H70zm0 0"/></clipPath><clipPath id="prefix__aR"><path d="M81.105 277.734l23.989 15.387-11.336 17.676-23.992-15.387zm0 0"/></clipPath><clipPath id="prefix__aS"><path d="M81.105 277.734l23.989 15.387-11.336 17.676-23.992-15.387zm0 0"/></clipPath><clipPath id="prefix__aT"><path d="M42 264h20v21H42zm0 0"/></clipPath><clipPath id="prefix__aU"><path d="M48.059 255.742l20.527 19.77-14.566 15.125-20.528-19.77zm0 0"/></clipPath><clipPath id="prefix__aV"><path d="M48.059 255.742l20.527 19.77-14.566 15.125-20.528-19.77zm0 0"/></clipPath><clipPath id="prefix__aW"><path d="M33 256h21v20H33zm0 0"/></clipPath><clipPath id="prefix__aX"><path d="M48.059 255.742l20.527 19.77-14.566 15.125-20.528-19.77zm0 0"/></clipPath><clipPath id="prefix__aY"><path d="M48.059 255.742l20.527 19.77-14.566 15.125-20.528-19.77zm0 0"/></clipPath><clipPath id="prefix__aZ"><path d="M19 232h22v19H19zm0 0"/></clipPath><clipPath id="prefix__ba"><path d="M31.219 221.023l14.32 24.641-18.152 10.555-14.325-24.64zm0 0"/></clipPath><clipPath id="prefix__bb"><path d="M31.219 221.023l14.32 24.641-18.152 10.555-14.325-24.64zm0 0"/></clipPath><clipPath id="prefix__bc"><path d="M13 221h22v20H13zm0 0"/></clipPath><clipPath id="prefix__bd"><path d="M31.219 221.023l14.32 24.641-18.152 10.555-14.325-24.64zm0 0"/></clipPath><clipPath id="prefix__be"><path d="M31.219 221.023l14.32 24.641-18.152 10.555-14.325-24.64zm0 0"/></clipPath><clipPath id="prefix__bf"><path d="M8.879 184h21v16.438h-21zm0 0"/></clipPath><clipPath id="prefix__bg"><path d="M8.879 171.938h21V188h-21zm0 0"/></clipPath><clipPath id="prefix__bh"><path d="M18 126h21v20H18zm0 0"/></clipPath><clipPath id="prefix__bi"><path d="M46.379 127.648l-16.234 23.426-17.262-11.965 16.234-23.422zm0 0"/></clipPath><clipPath id="prefix__bj"><path d="M46.379 127.648l-16.234 23.426-17.262-11.965 16.234-23.422zm0 0"/></clipPath><clipPath id="prefix__bk"><path d="M25 116h21v20H25zm0 0"/></clipPath><clipPath id="prefix__bl"><path d="M46.379 127.648l-16.234 23.426-17.262-11.965 16.234-23.422zm0 0"/></clipPath><clipPath id="prefix__bm"><path d="M46.379 127.648l-16.234 23.426-17.262-11.965 16.234-23.422zm0 0"/></clipPath><clipPath id="prefix__bn"><path d="M44 90h20v21H44zm0 0"/></clipPath><clipPath id="prefix__bo"><path d="M72.52 97.336L51.426 116.5l-14.121-15.543 21.093-19.164zm0 0"/></clipPath><clipPath id="prefix__bp"><path d="M72.52 97.336L51.426 116.5l-14.121-15.543 21.093-19.164zm0 0"/></clipPath><clipPath id="prefix__bq"><path d="M53 82h20v20H53zm0 0"/></clipPath><clipPath id="prefix__br"><path d="M72.52 97.336L51.426 116.5l-14.121-15.543 21.093-19.164zm0 0"/></clipPath><clipPath id="prefix__bs"><path d="M72.52 97.336L51.426 116.5l-14.121-15.543 21.093-19.164zm0 0"/></clipPath><clipPath id="prefix__bt"><path d="M74 67h20v23H74zm0 0"/></clipPath><clipPath id="prefix__bu"><path d="M104.922 81.059L79.344 93.633l-9.266-18.848 25.578-12.57zm0 0"/></clipPath><clipPath id="prefix__bv"><path d="M104.922 81.059L79.344 93.633l-9.266-18.848 25.578-12.57zm0 0"/></clipPath><clipPath id="prefix__bw"><path d="M85 62h20v23H85zm0 0"/></clipPath><clipPath id="prefix__bx"><path d="M104.922 81.059L79.344 93.633l-9.266-18.848 25.578-12.57zm0 0"/></clipPath><clipPath id="prefix__by"><path d="M104.922 81.059L79.344 93.633l-9.266-18.848 25.578-12.57zm0 0"/></clipPath><clipPath id="prefix__bz"><path d="M117.785 57.016H135V78h-17.215zm0 0"/></clipPath><clipPath id="prefix__bA"><path d="M130 57.016h16.285V78H130zm0 0"/></clipPath><clipPath id="prefix__bB"><path d="M154 56h17v22h-17zm0 0"/></clipPath><clipPath id="prefix__bC"><path d="M182.512 78.016l-28.489-.86.633-20.992 28.489.86zm0 0"/></clipPath><clipPath id="prefix__bD"><path d="M182.512 78.016l-28.489-.86.633-20.992 28.489.86zm0 0"/></clipPath><clipPath id="prefix__bE"><path d="M166 56h18v22h-18zm0 0"/></clipPath><clipPath id="prefix__bF"><path d="M182.512 78.016l-28.489-.86.633-20.992 28.489.86zm0 0"/></clipPath><clipPath id="prefix__bG"><path d="M182.512 78.016l-28.489-.86.633-20.992 28.489.86zm0 0"/></clipPath><clipPath id="prefix__bH"><path d="M266 56h17v22h-17zm0 0"/></clipPath><clipPath id="prefix__bI"><path d="M294.164 78.016l-28.488-.86.633-20.992 28.488.86zm0 0"/></clipPath><clipPath id="prefix__bJ"><path d="M294.164 78.016l-28.488-.86.633-20.992 28.488.86zm0 0"/></clipPath><clipPath id="prefix__bK"><path d="M278 56h17v22h-17zm0 0"/></clipPath><clipPath id="prefix__bL"><path d="M294.164 78.016l-28.488-.86.633-20.992 28.488.86zm0 0"/></clipPath><clipPath id="prefix__bM"><path d="M294.164 78.016l-28.488-.86.633-20.992 28.488.86zm0 0"/></clipPath><clipPath id="prefix__bN"><path d="M229 56h17v22h-17zm0 0"/></clipPath><clipPath id="prefix__bO"><path d="M257.04 78.016l-28.49-.86.634-20.992 28.488.86zm0 0"/></clipPath><clipPath id="prefix__bP"><path d="M257.04 78.016l-28.49-.86.634-20.992 28.488.86zm0 0"/></clipPath><clipPath id="prefix__bQ"><path d="M241 56h17v22h-17zm0 0"/></clipPath><clipPath id="prefix__bR"><path d="M257.04 78.016l-28.49-.86.634-20.992 28.488.86zm0 0"/></clipPath><clipPath id="prefix__bS"><path d="M257.04 78.016l-28.49-.86.634-20.992 28.488.86zm0 0"/></clipPath><clipPath id="prefix__bT"><path d="M192 56h17v22h-17zm0 0"/></clipPath><clipPath id="prefix__bU"><path d="M220.523 78.016l-28.488-.86.633-20.992 28.488.86zm0 0"/></clipPath><clipPath id="prefix__bV"><path d="M220.523 78.016l-28.488-.86.633-20.992 28.488.86zm0 0"/></clipPath><clipPath id="prefix__bW"><path d="M204 56h18v22h-18zm0 0"/></clipPath><clipPath id="prefix__bX"><path d="M220.523 78.016l-28.488-.86.633-20.992 28.488.86zm0 0"/></clipPath><clipPath id="prefix__bY"><path d="M220.523 78.016l-28.488-.86.633-20.992 28.488.86zm0 0"/></clipPath></defs><g clip-path="url(#prefix__a)"><g clip-path="url(#prefix__b)"><path fill="#737373" d="M303.75 52.777V323.04H-.133V52.777zm0 0"/></g></g><g clip-path="url(#prefix__c)"><g clip-path="url(#prefix__d)"><path fill="none" d="M7.918 142.824C3.137 156.668 0 172.406 0 187.852c0 15.445 2.687 30.304 7.469 44.003.152.29.152.583.3.875 19.122 51.434 69.622 89.32 127.887 90.047H303.75v-270H135.781c-58.687.73-109.187 38.032-127.863 90.047" stroke="#000" stroke-width="3"/></g></g><g clip-path="url(#prefix__e)"><g clip-path="url(#prefix__f)"><g clip-path="url(#prefix__g)"><path fill="#a6a6a6" d="M9.05 259.367L69.138 52.168l207.199 60.086-60.09 207.2zm0 0"/></g></g></g><g clip-path="url(#prefix__h)"><g clip-path="url(#prefix__i)"><g clip-path="url(#prefix__j)"><g clip-path="url(#prefix__k)"><path fill="none" d="M39.129 155.64c-16.613 57.286 16.36 117.192 73.648 133.805 57.285 16.614 117.192-16.36 133.805-73.644 16.613-57.285-16.36-117.195-73.645-133.809C115.652 65.38 55.742 98.352 39.13 155.641" stroke="#000" stroke-width="6"/></g></g></g></g><g clip-path="url(#prefix__l)"><g clip-path="url(#prefix__m)"><g clip-path="url(#prefix__n)"><path fill="#ffde59" d="M75.434 178.715l4.48-17.031 30.875 8.117-4.48 17.035zm0 0"/></g></g></g><g clip-path="url(#prefix__o)"><g clip-path="url(#prefix__p)"><g clip-path="url(#prefix__q)"><path fill="#ffde59" d="M169.648 169.75l-12.375-12.531 22.715-22.434 12.375 12.535zm0 0"/></g></g></g><g clip-path="url(#prefix__r)"><g clip-path="url(#prefix__s)"><g clip-path="url(#prefix__t)"><path fill="#ffde59" d="M193.66 223.059l-81.57 21.867-18.965-70.742 81.57-21.868zm0 0"/></g></g></g><g clip-path="url(#prefix__u)"><g clip-path="url(#prefix__v)"><g clip-path="url(#prefix__w)"><path fill="#ffde59" d="M163.457 239.328l-17.012 4.563-8.265-30.836 17.011-4.563zm0 0"/></g></g></g><g clip-path="url(#prefix__x)"><g clip-path="url(#prefix__y)"><g clip-path="url(#prefix__z)"><path fill="#ffde59" d="M180.637 227.883l13.16 54.043-54.043 13.16-13.16-54.043zm0 0"/></g></g></g><g clip-path="url(#prefix__A)"><g clip-path="url(#prefix__B)"><g clip-path="url(#prefix__C)"><g clip-path="url(#prefix__D)"><path d="M184.293 255.55c-1.313-5.394-4.117-9.84-8.414-13.331l3.777-4.649c5.34 4.344 8.824 9.864 10.457 16.567zm-10.574-14.905c-4.664-3.024-9.746-4.336-15.254-3.93l-.442-5.973c6.848-.504 13.165 1.125 18.954 4.88zm-17.903-3.594c-.48.09-.957.191-1.433.304-4.883 1.192-9.016 3.633-12.39 7.325l-4.419-4.043c4.2-4.59 9.328-7.621 15.395-9.098.586-.144 1.18-.27 1.773-.379zm-15.523 9.695c-3.29 4.484-4.895 9.488-4.813 15.012l-5.984.086c-.105-6.864 1.887-13.078 5.973-18.64zm-4.629 17.66c.117.961.293 1.914.524 2.864 1.066 4.378 3.164 8.18 6.289 11.39l-4.29 4.176c-3.886-3.992-6.492-8.711-7.816-14.152a30.578 30.578 0 01-.648-3.547zm8.777 16.063c4.282 3.543 9.18 5.437 14.7 5.68l-.266 5.98c-6.855-.3-12.938-2.649-18.25-7.047zm17.371 5.652a24.98 24.98 0 004.286-.656c3.886-.95 7.332-2.719 10.332-5.317l3.918 4.528c-3.73 3.226-8.008 5.43-12.832 6.605a31.13 31.13 0 01-5.317.817zm16.54-7.824c3.78-4.067 5.957-8.852 6.523-14.348l5.957.613c-.703 6.829-3.402 12.766-8.098 17.813zm6.652-17.02a24.743 24.743 0 00-.711-5.726l5.82-1.414c.57 2.343.864 4.71.88 7.101zm0 0"/></g></g></g></g><g clip-path="url(#prefix__E)"><g clip-path="url(#prefix__F)"><g clip-path="url(#prefix__G)"><path fill="#ffde59" d="M235.227 131.102l-39.34 39.32-39.32-39.344 39.34-39.316zm0 0"/></g></g></g><g clip-path="url(#prefix__H)"><g clip-path="url(#prefix__I)"><g clip-path="url(#prefix__J)"><g clip-path="url(#prefix__K)"><path d="M213.484 148.602c3.93-3.926 6.27-8.633 7.024-14.118l5.933.813c-.937 6.816-3.847 12.664-8.722 17.539zm7.246-16.786c.16-5.55-1.359-10.578-4.566-15.074l4.875-3.476c3.984 5.59 5.875 11.832 5.676 18.726zm-6.23-17.16a25.85 25.85 0 00-1.008-1.066c-3.55-3.555-7.781-5.817-12.691-6.785l1.16-5.875c6.098 1.203 11.355 4.011 15.77 8.43.425.425.84.867 1.242 1.316zm-16.348-8.226c-5.543-.485-10.648.742-15.328 3.683l-3.183-5.07c5.812-3.652 12.156-5.18 19.03-4.578zm-17.496 5.215a24.823 24.823 0 00-2.172 1.937c-3.191 3.188-5.347 6.95-6.468 11.29l-5.797-1.497c1.394-5.395 4.07-10.07 8.031-14.031a31.232 31.232 0 012.695-2.395zm-9.168 15.847c-.8 5.496.125 10.668 2.785 15.508l-5.25 2.883c-3.3-6.016-4.457-12.434-3.46-19.258zm4.196 17.778a25.065 25.065 0 002.789 3.32c2.828 2.832 6.132 4.851 9.91 6.066l-1.832 5.7c-4.7-1.508-8.801-4.02-12.313-7.532a30.688 30.688 0 01-3.457-4.117zm15.277 10.066c5.441 1.121 10.66.496 15.652-1.879l2.57 5.41c-6.203 2.946-12.68 3.723-19.43 2.332zm18-3.156a24.74 24.74 0 004.523-3.578l4.235 4.234a30.997 30.997 0 01-5.614 4.441zm0 0"/></g></g></g></g><g clip-path="url(#prefix__L)"><g clip-path="url(#prefix__M)"><g clip-path="url(#prefix__N)"><path fill="#ffde59" d="M88.559 133.719l13.16 54.039-54.043 13.164-13.16-54.043zm0 0"/></g></g></g><g clip-path="url(#prefix__O)"><g clip-path="url(#prefix__P)"><g clip-path="url(#prefix__Q)"><g clip-path="url(#prefix__R)"><path d="M92.215 161.387c-1.313-5.395-4.117-9.84-8.414-13.336l3.777-4.645c5.34 4.344 8.824 9.864 10.453 16.563zm-10.574-14.91c-4.664-3.024-9.75-4.332-15.258-3.93l-.438-5.969c6.848-.504 13.164 1.121 18.953 4.875zm-17.903-3.59c-.48.086-.957.187-1.433.304-4.883 1.192-9.016 3.63-12.39 7.32l-4.419-4.038c4.195-4.59 9.328-7.621 15.39-9.098.59-.145 1.18-.27 1.774-.379zm-15.523 9.695c-3.293 4.484-4.895 9.484-4.813 15.008l-5.988.09c-.102-6.864 1.89-13.078 5.973-18.64zm-4.63 17.656c.118.961.294 1.918.524 2.864 1.067 4.382 3.164 8.18 6.29 11.394l-4.29 4.176c-3.886-3.996-6.492-8.711-7.816-14.152a30.578 30.578 0 01-.648-3.547zm8.778 16.067c4.278 3.543 9.18 5.437 14.696 5.68l-.262 5.98c-6.856-.3-12.942-2.653-18.254-7.047zm17.371 5.652a24.61 24.61 0 004.286-.66c3.886-.945 7.332-2.719 10.332-5.313l3.918 4.524c-3.73 3.23-8.008 5.433-12.832 6.61-1.754.425-3.528.698-5.317.812zm16.536-7.828c3.785-4.066 5.96-8.848 6.527-14.348l5.953.614c-.703 6.832-3.402 12.77-8.098 17.812zm6.656-17.02a24.71 24.71 0 00-.711-5.722l5.816-1.418c.574 2.344.864 4.71.88 7.101zm0 0"/></g></g></g></g><g clip-path="url(#prefix__S)"><g clip-path="url(#prefix__T)"><g clip-path="url(#prefix__U)"><path fill="#707070" d="M168.746 266.414l-13.48 3.613-3.618-13.48 13.485-3.617zm0 0"/></g></g></g><g clip-path="url(#prefix__V)"><g clip-path="url(#prefix__W)"><g clip-path="url(#prefix__X)"><path fill="#707070" d="M195.898 140.96l-9.867-9.874 9.875-9.867 9.867 9.87zm0 0"/></g></g></g><g clip-path="url(#prefix__Y)"><g clip-path="url(#prefix__Z)"><g clip-path="url(#prefix__aa)"><path fill="#707070" d="M76.422 173.258l-13.484 3.613-3.614-13.48 13.48-3.618zm0 0"/></g></g></g><g clip-path="url(#prefix__ab)"><g clip-path="url(#prefix__ac)"><g clip-path="url(#prefix__ad)"><g clip-path="url(#prefix__ae)"><path fill="#fff" d="M80.969 212.2a.101.101 0 00-.078.073c-.145.024-.254-.18-.414-.046-.45.039-.567.367-.63.738-.175 1.035-.175 2.074-.117 3.117.223 3.727 1.215 7.227 2.836 10.582 2.829 5.856 7.282 10.066 12.93 13.09 2.617 1.402 5.438 2.32 8.297 3.101 1.684.461 3.39.817 5.09 1.22.066-.016.133-.028.199-.04.063.047.145.078.176.14v.005c.023.047-.051.082-.11.066-.628.281-1.296.422-1.968.524-.461.07-.903.175-1.313.41-.992.144-1.523.746-1.515 1.664 1.886.633 3.71.219 5.53-.356.68-.21 1.368-.379 2.055-.554 1.645-.422 1.383-.454 1.782-1.782.086-.297.105-.609.094-.918-.004-.117-.02-.222-.114-.297.082-.343-.14-.535-.367-.71-.672-.524-1.352-1.036-2.027-1.555-.075-.192-.239-.285-.403-.375-.066-.192-.23-.29-.39-.387-.024-.144-.153-.207-.242-.305-1.168-1.296-2.172-2.71-2.93-4.292-.059-.122-.125-.235-.188-.352-.07-.14-.152-.297-.328-.266-.136.024-.238.184-.234.301.012.512-.293.953-.324 1.453-.012.219.066.43.148.637.625 1.621 1.52 3.082 2.566 4.453.094.121.211.23.278.371.074.16-.051.235-.192.278-.117-.13-.257-.153-.418-.086-.132-.098-.27-.18-.445-.102-.016-.04-.047-.047-.082-.023-.125-.094-.254-.16-.418-.098-.098-.043-.191-.106-.297-.133-1.144-.305-2.293-.594-3.433-.914-1.035-.293-2.063-.613-3.09-.926-.262-.113-.52-.238-.785-.344-2.567-1.023-4.97-2.343-7.16-4.023-.786-.601-1.547-1.226-2.32-1.84-.075-.199-.25-.293-.427-.387-.066-.195-.23-.285-.394-.375-.05-.19-.215-.265-.36-.363-.023-.129-.109-.195-.222-.238-.012-.047-.04-.074-.09-.078-.027-.14-.152-.207-.234-.305-.41-.48-.903-.887-1.25-1.422-.075.004-.23-.09-.121.125.07.14.05.18-.004.184-.047.004-.121-.024-.176-.035-1.242-1.567-2.278-3.262-3.2-5.032-.07-.171-.144-.343-.214-.515-.418-1.031-.84-2.059-1.262-3.086a.168.168 0 00-.008-.117.215.215 0 00-.05-.067.158.158 0 00-.06-.175.16.16 0 00-.058-.18c.024-.074.004-.133-.058-.18.023-.074.007-.133-.055-.18.027-.074.008-.132-.055-.18.028-.073.012-.132-.05-.175v-.004a1.033 1.033 0 00-.051-.18v-.004c.027-.07.011-.128-.047-.175l-.004-.008c.027-.07.016-.129-.047-.176l-.004-.008c.031-.07.016-.129-.047-.175v-.004c.032-.07.016-.133-.047-.18.028-.074.012-.137-.046-.184-.11-.566-.215-1.132-.325-1.703-.148-.277-.148-.59-.191-.89a.3.3 0 01.09-.04.21.21 0 01.144.016c-.007-.23.004-.46-.11-.676a.4.4 0 01-.073-.199c.023.067.047.133.074.2.012-.075.016-.145-.055-.188a.296.296 0 00-.008-.3c.04-.067.04-.126-.02-.18.024-.075.024-.141-.03-.204a.112.112 0 000-.105 1.472 1.472 0 00-.055-.664c.016-.16.035-.325-.035-.477.047-.097.015-.2-.004-.297.058-.633-.004-1.273.183-1.93-.234.044-.41-.144-.593.016zm27.086 29.894l-.004-.004v0c.004 0 .004 0 .004-.004v.008zm-26.328-21.778c0 .016 0 .032.003.047-.003-.004-.003-.008-.007-.011 0-.012-.004-.024-.008-.04 0 0 .004.004.012.004zm.93 1.848c-.005.004-.005 0-.005.004-.007 0-.011.004-.015.004h-.02l.035-.008v-.004c0 .004 0 .004.004.004zm-.997-1.871c.02.008.035.012.05.02l.013.035a.11.11 0 00-.063-.055zm.082.137a.202.202 0 01.008.043v.004c-.004-.016-.004-.032-.008-.047zm-1.262-7.125c-.003 0-.003-.004-.003-.004v-.004-.004c.003.004.003.008.003.012zm-.027.28c0 .005-.004.005 0 .009v-.008zm.98 2.661a.14.14 0 00-.042-.008l.011-.023c.012.012.024.02.032.031zm.012-.504c-.007-.023-.004-.047.008-.074v.004a.145.145 0 00-.008.07zm0 0"/></g></g></g></g><g clip-path="url(#prefix__af)"><g clip-path="url(#prefix__ag)"><g clip-path="url(#prefix__ah)"><g clip-path="url(#prefix__ai)"><path fill="#fff" d="M82.215 220.727c.015.058.035.117.047.175.031-.07.011-.129-.047-.175zm0 0"/></g></g></g></g><g clip-path="url(#prefix__aj)"><g clip-path="url(#prefix__ak)"><g clip-path="url(#prefix__al)"><g clip-path="url(#prefix__am)"><path fill="#fff" d="M146.273 122.148c.016-.039.012-.078-.015-.109.062-.133.297-.105.277-.309.227-.39.028-.675-.238-.94-.75-.74-1.598-1.34-2.484-1.892-3.176-1.96-6.61-3.168-10.286-3.773-6.414-1.055-12.422.164-18.148 3.04-2.652 1.331-5.024 3.112-7.313 5-1.343 1.112-2.617 2.3-3.921 3.46l-.082.188c-.075.023-.153.07-.22.058h-.003c-.05-.012-.04-.086.008-.129.132-.676.402-1.3.707-1.91.207-.418.375-.84.418-1.309.453-.894.27-1.675-.485-2.195-1.61 1.176-2.316 2.906-2.898 4.727-.215.675-.477 1.332-.727 1.996-.601 1.59-.425 1.394.434 2.484.191.242.433.438.695.606.098.062.192.109.309.078.234.265.52.195.793.11.812-.25 1.625-.509 2.437-.767.196.051.367-.027.54-.113.195.059.367-.023.538-.094.133.063.258-.007.387-.023 1.734-.207 3.469-.215 5.2.074.132.024.261.035.394.051.156.02.332.047.406-.117.059-.125-.012-.3-.11-.363-.429-.286-.613-.79-1.003-1.102-.172-.137-.387-.195-.606-.246-1.683-.422-3.394-.531-5.117-.461-.156.004-.312.035-.46.008-.177-.028-.169-.176-.122-.313.176-.023.277-.125.317-.293.152-.054.296-.12.332-.308.046.011.066-.008.066-.055.148-.047.281-.113.32-.281.098-.055.2-.098.282-.168.91-.758 1.808-1.531 2.726-2.281.836-.68 1.688-1.332 2.535-1.997.242-.148.492-.285.73-.44 2.317-1.509 4.778-2.712 7.415-3.54.941-.297 1.89-.563 2.84-.84.207.055.382-.035.558-.125.2.059.367-.023.535-.105.188.066.344-.024.504-.086.121.054.227.023.325-.047.042.02.082.012.113-.027.133.062.258-.004.386-.016.63-.059 1.243-.227 1.88-.203.038-.067.206-.137-.028-.172-.16-.024-.18-.063-.152-.11.027-.039.09-.082.133-.12 1.992-.118 3.976.015 5.953.277.183.043.367.082.547.125 1.082.246 2.167.496 3.25.742a.178.178 0 00.101.062c.027.004.055 0 .082-.007.047.058.11.074.18.054.047.063.105.078.18.055.046.063.105.082.18.059.046.062.105.082.179.058.043.063.101.082.176.059.043.062.101.086.175.058l.004.004c.055.024.114.043.172.063h.004c.043.062.102.086.172.062l.008.004c.043.063.097.082.172.059l.007.004c.04.066.098.086.172.062l.004.004c.04.063.098.086.172.063.043.066.102.09.176.066.527.238 1.055.48 1.582.719.309.035.566.215.836.355a.236.236 0 01-.02.094.213.213 0 01-.093.11c.191.128.375.269.613.3.074 0 .144.012.207.055a3.202 3.202 0 00-.207-.055c.055.05.11.094.187.063.051.105.137.152.25.168.032.07.079.101.157.086.047.058.101.101.183.09.02.035.047.054.09.062.164.156.356.27.57.34.125.101.246.21.414.242.051.098.149.129.243.168.484.414 1.043.734 1.472 1.262.098-.22.356-.254.328-.493zm-40.035 4.942l.004-.004h-.004.004c0 .004 0 .004.004.008-.004-.004-.004-.004-.008-.004zm32.961-8.996l-.035-.024a482.546 482.546 0 01.047.016c-.004 0-.004.004-.012.008zm-2.043-.305v-.004c0-.004.004-.012.004-.015l.008-.016-.012.031c0 .004 0 .004.004.004h-.004zm2.102.262a1.085 1.085 0 01-.043.031l-.04-.012c.028.008.055 0 .083-.02zm-.16-.012l-.04-.016c0-.003-.003 0-.003-.003a.38.38 0 00.043.02zm6.554 3.07h.008v.004s.004 0 .004.004c-.004 0-.008-.004-.012-.008zm-.214-.18c-.004-.003-.004-.007-.008-.007 0 0 .007.004.007.008zm-2.739-.73c.012-.008.02-.02.031-.031l.012.023c-.015 0-.027.004-.043.008zm.403.297a.113.113 0 01.058.047h-.004a.159.159 0 00-.054-.047zm0 0"/></g></g></g></g><g clip-path="url(#prefix__an)"><g clip-path="url(#prefix__ao)"><g clip-path="url(#prefix__ap)"><g clip-path="url(#prefix__aq)"><path fill="#fff" d="M138.586 118.258c-.059-.024-.117-.043-.172-.063.04.067.098.086.172.063zm0 0"/></g></g></g></g><g clip-path="url(#prefix__ar)"><g clip-path="url(#prefix__as)"><g clip-path="url(#prefix__at)"><g clip-path="url(#prefix__au)"><path fill="#fff" d="M192.16 221.492c.024.035.059.051.102.051.07.125-.082.3.093.402.196.41.543.407.91.34 1.036-.195 2.012-.55 2.97-.965 3.421-1.488 6.37-3.62 8.96-6.297 4.528-4.671 6.95-10.3 7.848-16.644.418-2.941.309-5.902.059-8.86-.145-1.738-.399-3.464-.606-5.195l-.105-.176c.023-.074.027-.164.074-.21l.004-.004c.035-.036.094.02.101.082.477.492.836 1.07 1.168 1.668.223.406.473.789.832 1.09.48.882 1.227 1.175 2.082.851-.05-1.992-1.066-3.559-2.23-5.074-.434-.563-.824-1.153-1.23-1.735-.962-1.398-.903-1.144-2.286-1.058a2.672 2.672 0 00-.894.226c-.106.043-.2.094-.239.207-.351.04-.457.317-.543.59-.257.809-.507 1.625-.757 2.438-.157.136-.192.32-.215.508-.16.128-.192.316-.23.496-.13.074-.145.218-.204.332-.816 1.543-1.8 2.972-3.027 4.23-.09.094-.176.195-.262.293-.105.117-.226.25-.137.402.07.118.254.16.364.118.476-.188.996-.055 1.472-.196.215-.066.383-.207.551-.359 1.305-1.145 2.367-2.484 3.297-3.941.082-.13.145-.278.254-.383.125-.13.238-.04.324.078-.078.156-.055.297.063.426-.043.156-.075.312.062.449-.031.031-.031.062.004.086-.043.148-.062.297.055.426-.012.109-.035.218-.024.324.106 1.18.227 2.36.32 3.543.083 1.07.133 2.144.196 3.219-.02.285-.047.566-.055.851-.078 2.762-.496 5.473-1.316 8.11-.297.945-.617 1.874-.93 2.812-.164.14-.187.336-.219.531-.16.13-.187.313-.214.5-.16.113-.176.293-.22.465-.112.063-.144.168-.144.29-.043.026-.054.062-.043.108-.125.075-.144.215-.207.325-.312.55-.523 1.152-.906 1.664.031.07-.004.246.16.07.11-.117.153-.11.176-.059.016.043.016.122.023.18-1.043 1.703-2.28 3.258-3.62 4.73l-.415.38-2.46 2.25a.15.15 0 00-.11.046.213.213 0 00-.043.07.16.16 0 00-.148.114c-.075.008-.125.047-.145.117-.078.004-.129.043-.148.117-.079 0-.13.04-.153.114-.078 0-.129.035-.148.11l-.004.003c-.074-.004-.125.035-.145.105l-.004.004c-.05.032-.101.067-.148.106l-.008.004c-.074 0-.125.031-.148.105l-.004.004c-.078 0-.13.035-.149.106l-.007.003v0c-.079-.003-.13.032-.149.106l-.004.004c-.078-.004-.129.031-.152.105-.078 0-.133.035-.156.106l-1.489.89c-.207.235-.5.344-.77.489a.313.313 0 01-.07-.075.268.268 0 01-.035-.14c-.21.086-.433.156-.593.336a.374.374 0 01-.164.137c.054-.043.109-.09.164-.137-.075.015-.141.035-.16.117-.114-.02-.204.027-.278.11-.074-.012-.133.007-.16.081-.078.004-.145.024-.18.098-.039 0-.074.008-.101.04a1.453 1.453 0 00-.606.276c-.156.043-.316.079-.433.2-.11-.012-.192.05-.278.101-.617.164-1.195.442-1.875.492.121.207.004.434.215.551zm18.762-35.71v.003h-.004.004-.008c.004-.004.004-.004.008-.004zm-11.399 32.21l.043-.02-.007.008-.036.024c.004-.004 0-.008 0-.012zm1.418-1.508s0 .004.004.004c0 .004.004.008.008.012l.008.016-.02-.028c0-.004 0 0-.004 0 .004 0 .004-.004.004-.004zm-1.414 1.578c0-.019-.004-.039-.004-.054.012-.008.024-.016.032-.024a.093.093 0 00-.028.078zm.102-.125l.035-.023h.004c-.016.008-.027.016-.04.024zm-6.262 3.637s0 .004-.004.004h-.008c.004 0 .008-.004.012-.004zm.274-.074c.004 0 .007.004.011 0h-.011zm2.16-1.832c0 .012.004.027.008.043-.008-.004-.016-.004-.024-.008a.139.139 0 01.016-.035zm-.473.16c-.02.016-.047.02-.074.02v-.004c.027 0 .05-.004.074-.016zm0 0"/></g></g></g></g><g clip-path="url(#prefix__av)"><g clip-path="url(#prefix__aw)"><g clip-path="url(#prefix__ax)"><g clip-path="url(#prefix__ay)"><path fill="#fff" d="M199.742 217.39l.149-.105c-.078 0-.125.035-.149.106zm0 0"/></g></g></g></g><path transform="matrix(.74987 .00605 -.00605 .74998 136.49 77.868)" fill="none" d="M-.002 1.999L223.036 2" stroke="#000" stroke-width="4"/><path transform="matrix(.75062 -.00364 .00364 .75 135.126 291.168)" fill="none" d="M0 2l224.814.002" stroke="#000" stroke-width="4"/><g clip-path="url(#prefix__az)"><path fill="#5ce1e6" d="M294.695 306.992l-8.492-9.492a.946.946 0 00-.703-.316h-5.664a.95.95 0 00-.863.562.956.956 0 00.164 1.02l7.922 8.863-7.922 8.855a.95.95 0 00.7 1.586h5.663c.266 0 .52-.117.703-.312l8.492-9.496c.32-.36.32-.91 0-1.27zm0 0"/></g><g clip-path="url(#prefix__aA)"><path fill="#5ce1e6" d="M282.426 306.992l-8.492-9.492a.94.94 0 00-.704-.316h-5.66a.947.947 0 00-.703 1.582l7.926 8.863-7.926 8.855a.955.955 0 00-.16 1.024.94.94 0 00.863.562h5.66c.27 0 .52-.117.704-.312l8.492-9.496a.95.95 0 000-1.27zm0 0"/></g><g clip-path="url(#prefix__aB)"><path fill="#38b6ff" d="M257.57 306.992l-8.492-9.492a.946.946 0 00-.703-.316h-5.664a.95.95 0 00-.863.562.962.962 0 00.16 1.02l7.926 8.863-7.926 8.855a.95.95 0 00.703 1.586h5.664c.266 0 .52-.117.703-.312l8.492-9.496c.32-.36.32-.91 0-1.27zm0 0"/></g><g clip-path="url(#prefix__aC)"><path fill="#38b6ff" d="M245.3 306.992l-8.491-9.492a.94.94 0 00-.704-.316h-5.66a.947.947 0 00-.703 1.582l7.926 8.863-7.926 8.855a.955.955 0 00-.16 1.024.94.94 0 00.863.562h5.66c.27 0 .52-.117.704-.312l8.492-9.496a.95.95 0 000-1.27zm0 0"/></g><g clip-path="url(#prefix__aD)"><path fill="#38b6ff" d="M220.445 306.992l-8.492-9.492a.946.946 0 00-.703-.316h-5.664a.95.95 0 00-.863.562.956.956 0 00.164 1.02l7.922 8.863-7.922 8.855a.95.95 0 00.7 1.586h5.663c.266 0 .52-.117.703-.312l8.492-9.496c.32-.36.32-.91 0-1.27zm0 0"/></g><g clip-path="url(#prefix__aE)"><path fill="#38b6ff" d="M208.176 306.992l-8.492-9.492a.94.94 0 00-.704-.316h-5.66a.947.947 0 00-.703 1.582l7.926 8.863-7.926 8.855a.955.955 0 00-.16 1.024.94.94 0 00.863.562h5.66c.27 0 .52-.117.704-.312l8.492-9.496a.95.95 0 000-1.27zm0 0"/></g><g clip-path="url(#prefix__aF)"><path fill="#38b6ff" d="M183.32 306.992l-8.492-9.492a.946.946 0 00-.703-.316h-5.664a.95.95 0 00-.863.562.956.956 0 00.164 1.02l7.922 8.863-7.922 8.855a.95.95 0 00.7 1.586h5.663c.266 0 .52-.117.703-.312l8.492-9.496c.32-.36.32-.91 0-1.27zm0 0"/></g><g clip-path="url(#prefix__aG)"><path fill="#38b6ff" d="M171.05 306.992l-8.491-9.492a.94.94 0 00-.704-.316h-5.66a.947.947 0 00-.703 1.582l7.926 8.863-7.926 8.855a.955.955 0 00-.16 1.024.94.94 0 00.863.562h5.66c.27 0 .52-.117.704-.312l8.492-9.496a.95.95 0 000-1.27zm0 0"/></g><g clip-path="url(#prefix__aH)"><g clip-path="url(#prefix__aI)"><g clip-path="url(#prefix__aJ)"><path fill="#5ce1e6" d="M146.184 306.746l-8.66-9.344a.948.948 0 00-.708-.3l-5.66.097a.947.947 0 00-.851.578.956.956 0 00.175 1.02l8.083 8.719-7.77 8.996a.952.952 0 00.73 1.574l5.665-.102a.96.96 0 00.695-.324l8.324-9.644a.954.954 0 00-.023-1.27zm0 0"/></g></g></g><g clip-path="url(#prefix__aK)"><g clip-path="url(#prefix__aL)"><g clip-path="url(#prefix__aM)"><path fill="#5ce1e6" d="M133.918 306.96l-8.66-9.339a.937.937 0 00-.707-.305l-5.66.102a.95.95 0 00-.856.578.95.95 0 00.18 1.016l8.082 8.718-7.77 8.997a.959.959 0 00-.14 1.027c.16.34.5.555.87.547l5.665-.098a.964.964 0 00.695-.328l8.324-9.64a.96.96 0 00-.023-1.274zm0 0"/></g></g></g><g clip-path="url(#prefix__aN)"><g clip-path="url(#prefix__aO)"><g clip-path="url(#prefix__aP)"><path fill="#38b6ff" d="M99.406 301.191l-2.023-12.574a.945.945 0 00-.422-.644l-4.766-3.059a.947.947 0 00-1.445.953l1.887 11.738-11.453 3.176a.951.951 0 00-.266 1.715l4.766 3.059c.226.144.5.183.761.113l12.274-3.406a.954.954 0 00.687-1.07zm0 0"/></g></g></g><g clip-path="url(#prefix__aQ)"><g clip-path="url(#prefix__aR)"><g clip-path="url(#prefix__aS)"><path fill="#38b6ff" d="M89.078 294.57l-2.023-12.578a.94.94 0 00-.422-.644l-4.766-3.055a.942.942 0 00-1.027.004.966.966 0 00-.418.95l1.887 11.733-11.454 3.18a.954.954 0 00-.687.774.945.945 0 00.422.937l4.77 3.059c.222.144.5.183.757.117l12.278-3.406a.957.957 0 00.683-1.07zm0 0"/></g></g></g><g clip-path="url(#prefix__aT)"><g clip-path="url(#prefix__aU)"><g clip-path="url(#prefix__aV)"><path fill="#38b6ff" d="M61.434 282.32l.468-12.73a.94.94 0 00-.289-.715l-4.078-3.93a.945.945 0 00-1.012-.191.955.955 0 00-.593.848l-.438 11.878-11.851.883a.942.942 0 00-.825.625.94.94 0 00.23 1.004l4.079 3.926a.951.951 0 00.723.262l12.703-.946a.957.957 0 00.883-.914zm0 0"/></g></g></g><g clip-path="url(#prefix__aW)"><g clip-path="url(#prefix__aX)"><g clip-path="url(#prefix__aY)"><path fill="#38b6ff" d="M52.598 273.809l.468-12.73a.96.96 0 00-.289-.716l-4.078-3.925a.948.948 0 00-1.605.652l-.438 11.879-11.851.883a.948.948 0 00-.825.625.94.94 0 00.23 1.003l4.08 3.93a.96.96 0 00.722.262l12.703-.95a.954.954 0 00.883-.913zm0 0"/></g></g></g><g clip-path="url(#prefix__aZ)"><g clip-path="url(#prefix__ba)"><g clip-path="url(#prefix__bb)"><path fill="#38b6ff" d="M36.793 250.25l3.941-12.113a.938.938 0 00-.082-.766l-2.843-4.894a.95.95 0 00-1.723.187L32.41 243.97l-11.64-2.399a.947.947 0 00-.965.375.944.944 0 00-.055 1.028l2.848 4.894c.132.235.359.395.62.45l12.477 2.574a.95.95 0 001.098-.641zm0 0"/></g></g></g><g clip-path="url(#prefix__bc)"><g clip-path="url(#prefix__bd)"><g clip-path="url(#prefix__be)"><path fill="#38b6ff" d="M30.629 239.645l3.941-12.114a.938.938 0 00-.082-.765l-2.843-4.895a.946.946 0 00-.922-.465.954.954 0 00-.801.653l-3.676 11.304-11.644-2.402a.958.958 0 00-.961.375.943.943 0 00-.055 1.031l2.844 4.895c.136.23.363.39.625.449l12.476 2.57a.952.952 0 001.098-.636zm0 0"/></g></g></g><g clip-path="url(#prefix__bf)"><path fill="#5ce1e6" d="M20.016 200.004l9.492-8.492a.934.934 0 00.316-.703v-5.66a.945.945 0 00-.562-.864.946.946 0 00-1.02.16l-8.863 7.926-8.856-7.926a.955.955 0 00-1.023-.16.945.945 0 00-.563.863v5.66c0 .27.114.524.313.704l9.496 8.492a.95.95 0 001.27 0zm0 0"/></g><g clip-path="url(#prefix__bg)"><path fill="#5ce1e6" d="M20.016 187.738l9.492-8.496a.932.932 0 00.316-.699v-5.664a.95.95 0 00-.562-.863.961.961 0 00-1.02.16l-8.863 7.926-8.856-7.926a.95.95 0 00-1.586.703v5.664c0 .266.114.52.313.7l9.496 8.495c.36.32.91.32 1.27 0zm0 0"/></g><g clip-path="url(#prefix__bh)"><g clip-path="url(#prefix__bi)"><g clip-path="url(#prefix__bj)"><path fill="#38b6ff" d="M22.281 145.098l12.64-1.57a.951.951 0 00.661-.4l3.227-4.651a.95.95 0 00-.903-1.48L26.11 138.46l-2.765-11.559a.952.952 0 00-1.703-.324l-3.227 4.652a.948.948 0 00-.14.758l2.964 12.387a.949.949 0 001.043.723zm0 0"/></g></g></g><g clip-path="url(#prefix__bk)"><g clip-path="url(#prefix__bl)"><g clip-path="url(#prefix__bm)"><path fill="#38b6ff" d="M29.27 135.016l12.64-1.575a.933.933 0 00.66-.394l3.223-4.656a.935.935 0 00.031-1.028.953.953 0 00-.93-.449l-11.796 1.465-2.766-11.559a.963.963 0 00-.75-.715.941.941 0 00-.953.387l-3.227 4.656a.936.936 0 00-.14.754l2.965 12.391a.95.95 0 001.043.723zm0 0"/></g></g></g><g clip-path="url(#prefix__bn)"><g clip-path="url(#prefix__bo)"><g clip-path="url(#prefix__bp)"><path fill="#38b6ff" d="M45.11 108.906l12.671 1.317a.941.941 0 00.73-.239l4.192-3.808a.948.948 0 00.258-.996.954.954 0 00-.805-.649l-11.824-1.226-.09-11.887a.948.948 0 00-1.586-.7l-4.191 3.805a.97.97 0 00-.309.707l.098 12.739c.004.484.375.89.855.937zm0 0"/></g></g></g><g clip-path="url(#prefix__bq)"><g clip-path="url(#prefix__br)"><g clip-path="url(#prefix__bs)"><path fill="#38b6ff" d="M54.188 100.656l12.671 1.317a.936.936 0 00.73-.239l4.192-3.808a.942.942 0 00.262-.996.958.958 0 00-.805-.649l-11.824-1.226-.09-11.887a.954.954 0 00-.57-.863.94.94 0 00-1.016.164l-4.191 3.804a.955.955 0 00-.309.707l.098 12.739c.004.484.375.89.852.937zm0 0"/></g></g></g><g clip-path="url(#prefix__bt)"><g clip-path="url(#prefix__bu)"><g clip-path="url(#prefix__bv)"><path fill="#38b6ff" d="M75.379 84.59l11.808 4.773c.254.098.532.09.77-.027l5.082-2.5a.95.95 0 00.527-.883.958.958 0 00-.597-.848l-11.02-4.453 3.203-11.445a.946.946 0 00-.304-.988.943.943 0 00-1.024-.125l-5.082 2.496a.974.974 0 00-.492.59l-3.434 12.27a.957.957 0 00.563 1.14zm0 0"/></g></g></g><g clip-path="url(#prefix__bw)"><g clip-path="url(#prefix__bx)"><g clip-path="url(#prefix__by)"><path fill="#38b6ff" d="M86.387 79.176l11.812 4.773c.25.102.528.094.77-.027l5.082-2.496a.945.945 0 00.523-.887.945.945 0 00-.594-.844l-11.02-4.457 3.204-11.445a.958.958 0 00-.305-.988.952.952 0 00-1.023-.125l-5.082 2.5a.94.94 0 00-.492.59l-3.434 12.265a.953.953 0 00.559 1.14zm0 0"/></g></g></g><g clip-path="url(#prefix__bz)"><path fill="#5ce1e6" d="M118.215 68.148l8.492 9.493a.946.946 0 00.703.316h5.664a.95.95 0 00.863-.562.956.956 0 00-.164-1.02l-7.921-8.86 7.921-8.859a.95.95 0 00-.7-1.586h-5.663a.971.971 0 00-.703.313l-8.492 9.496c-.32.36-.32.91 0 1.27zm0 0"/></g><g clip-path="url(#prefix__bA)"><path fill="#5ce1e6" d="M130.484 68.148l8.493 9.493a.94.94 0 00.703.316h5.66a.947.947 0 00.703-1.582l-7.926-8.86 7.926-8.859a.955.955 0 00.16-1.023.94.94 0 00-.863-.563h-5.66c-.27 0-.52.117-.703.313l-8.493 9.496a.95.95 0 000 1.27zm0 0"/></g><g clip-path="url(#prefix__bB)"><g clip-path="url(#prefix__bC)"><g clip-path="url(#prefix__bD)"><path fill="#38b6ff" d="M154.75 67.309l8.207 9.746a.943.943 0 00.691.336l5.66.168a.948.948 0 00.75-1.563l-7.656-9.094 8.188-8.613a.948.948 0 00.191-1.016.931.931 0 00-.844-.59l-5.66-.171a.955.955 0 00-.71.293l-8.778 9.234a.96.96 0 00-.039 1.27zm0 0"/></g></g></g><g clip-path="url(#prefix__bE)"><g clip-path="url(#prefix__bF)"><g clip-path="url(#prefix__bG)"><path fill="#38b6ff" d="M167.016 67.676l8.203 9.746a.936.936 0 00.691.336l5.66.172a.948.948 0 00.75-1.563l-7.656-9.094 8.188-8.617a.946.946 0 00.191-1.015.944.944 0 00-.844-.59l-5.66-.172a.955.955 0 00-.71.293l-8.778 9.234a.955.955 0 00-.035 1.27zm0 0"/></g></g></g><g clip-path="url(#prefix__bH)"><g clip-path="url(#prefix__bI)"><g clip-path="url(#prefix__bJ)"><path fill="#5ce1e6" d="M266.402 67.309l8.207 9.746a.943.943 0 00.692.336l5.66.168a.948.948 0 00.75-1.563l-7.656-9.094 8.187-8.613a.948.948 0 00.192-1.016.931.931 0 00-.844-.59l-5.66-.171a.955.955 0 00-.711.293l-8.778 9.234a.96.96 0 00-.039 1.27zm0 0"/></g></g></g><g clip-path="url(#prefix__bK)"><g clip-path="url(#prefix__bL)"><g clip-path="url(#prefix__bM)"><path fill="#5ce1e6" d="M278.668 67.676l8.203 9.746a.936.936 0 00.692.336l5.66.172a.948.948 0 00.75-1.563l-7.657-9.094 8.188-8.617a.946.946 0 00.191-1.015.944.944 0 00-.843-.59l-5.66-.172a.955.955 0 00-.712.293l-8.777 9.234a.955.955 0 00-.035 1.27zm0 0"/></g></g></g><g clip-path="url(#prefix__bN)"><g clip-path="url(#prefix__bO)"><g clip-path="url(#prefix__bP)"><path fill="#38b6ff" d="M229.277 67.309l8.207 9.746a.943.943 0 00.692.336l5.66.168a.948.948 0 00.75-1.563l-7.656-9.094 8.187-8.613a.948.948 0 00.192-1.016.931.931 0 00-.844-.59l-5.66-.171a.955.955 0 00-.711.293l-8.778 9.234a.96.96 0 00-.039 1.27zm0 0"/></g></g></g><g clip-path="url(#prefix__bQ)"><g clip-path="url(#prefix__bR)"><g clip-path="url(#prefix__bS)"><path fill="#38b6ff" d="M241.543 67.676l8.203 9.746a.936.936 0 00.691.336l5.66.172a.948.948 0 00.75-1.563l-7.656-9.094 8.188-8.617a.946.946 0 00.191-1.015.944.944 0 00-.843-.59l-5.66-.172a.955.955 0 00-.712.293l-8.777 9.234a.955.955 0 00-.035 1.27zm0 0"/></g></g></g><g clip-path="url(#prefix__bT)"><g clip-path="url(#prefix__bU)"><g clip-path="url(#prefix__bV)"><path fill="#38b6ff" d="M192.762 67.309l8.203 9.746a.958.958 0 00.695.336l5.656.168a.95.95 0 00.883-.536.957.957 0 00-.133-1.027l-7.652-9.094 8.188-8.613a.956.956 0 00.191-1.016.937.937 0 00-.848-.59l-5.656-.171a.964.964 0 00-.715.293l-8.773 9.234a.955.955 0 00-.04 1.27zm0 0"/></g></g></g><g clip-path="url(#prefix__bW)"><g clip-path="url(#prefix__bX)"><g clip-path="url(#prefix__bY)"><path fill="#38b6ff" d="M205.023 67.676l8.207 9.746a.93.93 0 00.692.336l5.66.172a.948.948 0 00.75-1.563l-7.656-9.094 8.187-8.617a.946.946 0 00.192-1.015.944.944 0 00-.844-.59l-5.66-.172a.955.955 0 00-.711.293l-8.778 9.234a.96.96 0 00-.039 1.27zm0 0"/></g></g></g></svg>