<svg xmlns="http://www.w3.org/2000/svg" xmlns:xlink="http://www.w3.org/1999/xlink" width="450" zoomAndPan="magnify" viewBox="0 0 337.5 374.999991" height="500" preserveAspectRatio="xMidYMid meet" version="1.0"><defs><clipPath id="132af63f87"><path d="M 0 52.777344 L 303.75 52.777344 L 303.75 323 L 0 323 Z M 0 52.777344 " clip-rule="nonzero"/></clipPath><clipPath id="b4d785027c"><path d="M 7.917969 142.824219 C 3.136719 156.667969 0 172.40625 0 187.851562 C 0 203.296875 2.6875 218.15625 7.46875 231.855469 C 7.621094 232.144531 7.621094 232.4375 7.769531 232.730469 C 26.890625 284.164062 77.390625 322.050781 135.65625 322.777344 L 303.75 322.777344 L 303.75 52.777344 L 135.78125 52.777344 C 77.09375 53.507812 26.59375 90.808594 7.917969 142.824219 " clip-rule="nonzero"/></clipPath><clipPath id="597493eaec"><path d="M 0 52.777344 L 303.75 52.777344 L 303.75 322.777344 L 0 322.777344 Z M 0 52.777344 " clip-rule="nonzero"/></clipPath><clipPath id="eba8785c58"><path d="M 7.917969 142.824219 C 3.136719 156.667969 0 172.40625 0 187.851562 C 0 203.296875 2.6875 218.15625 7.46875 231.855469 C 7.621094 232.144531 7.621094 232.4375 7.769531 232.730469 C 26.890625 284.164062 77.390625 322.050781 135.65625 322.777344 L 303.75 322.777344 L 303.75 52.777344 L 135.78125 52.777344 C 77.09375 53.507812 26.59375 90.808594 7.917969 142.824219 " clip-rule="nonzero"/></clipPath><clipPath id="ffb9756952"><path d="M 34 77 L 251 77 L 251 294 L 34 294 Z M 34 77 " clip-rule="nonzero"/></clipPath><clipPath id="39c21045bf"><path d="M 9.050781 259.367188 L 69.292969 51.636719 L 277.019531 111.878906 L 216.777344 319.609375 Z M 9.050781 259.367188 " clip-rule="nonzero"/></clipPath><clipPath id="ad1c9f82ad"><path d="M 39.128906 155.640625 C 22.515625 212.925781 55.488281 272.832031 112.777344 289.445312 C 170.0625 306.058594 229.96875 273.085938 246.582031 215.800781 C 263.195312 158.515625 230.222656 98.605469 172.9375 81.992188 C 115.652344 65.378906 55.742188 98.351562 39.128906 155.640625 " clip-rule="nonzero"/></clipPath><clipPath id="6d6ac17d73"><path d="M 34 77 L 251 77 L 251 294 L 34 294 Z M 34 77 " clip-rule="nonzero"/></clipPath><clipPath id="817444b64c"><path d="M 9.050781 259.367188 L 69.210938 51.914062 L 276.664062 112.074219 L 216.5 319.527344 Z M 9.050781 259.367188 " clip-rule="nonzero"/></clipPath><clipPath id="f1c67d8008"><path d="M 9.050781 259.367188 L 70.0625 48.980469 L 280.449219 109.992188 L 219.433594 320.378906 Z M 9.050781 259.367188 " clip-rule="nonzero"/></clipPath><clipPath id="64b6b04e0d"><path d="M 39.128906 155.640625 C 22.515625 212.925781 55.488281 272.832031 112.777344 289.445312 C 170.0625 306.058594 229.96875 273.085938 246.582031 215.800781 C 263.195312 158.515625 230.222656 98.605469 172.9375 81.992188 C 115.652344 65.378906 55.742188 98.351562 39.128906 155.640625 " clip-rule="nonzero"/></clipPath><clipPath id="e84c47d275"><path d="M 75 161 L 111 161 L 111 187 L 75 187 Z M 75 161 " clip-rule="nonzero"/></clipPath><clipPath id="b0bce0529c"><path d="M 75.433594 178.714844 L 80.054688 161.148438 L 110.929688 169.265625 L 106.308594 186.835938 Z M 75.433594 178.714844 " clip-rule="nonzero"/></clipPath><clipPath id="57542bab61"><path d="M 75.433594 178.714844 L 79.953125 161.535156 L 110.636719 169.601562 L 106.121094 186.785156 Z M 75.433594 178.714844 " clip-rule="nonzero"/></clipPath><clipPath id="25ff0eb96a"><path d="M 157 134 L 193 134 L 193 170 L 157 170 Z M 157 134 " clip-rule="nonzero"/></clipPath><clipPath id="64fb6f7597"><path d="M 169.648438 169.75 L 156.886719 156.828125 L 179.601562 134.394531 L 192.363281 147.320312 Z M 169.648438 169.75 " clip-rule="nonzero"/></clipPath><clipPath id="6041e2dbe2"><path d="M 169.648438 169.75 L 157.164062 157.109375 L 179.742188 134.816406 L 192.226562 147.457031 Z M 169.648438 169.75 " clip-rule="nonzero"/></clipPath><clipPath id="7a0ad95c4b"><path d="M 93 152 L 175 152 L 175 235 L 93 235 Z M 93 152 " clip-rule="nonzero"/></clipPath><clipPath id="5019280e67"><path d="M 193.660156 223.058594 L 111.367188 245.117188 L 92.207031 173.652344 L 174.5 151.59375 Z M 193.660156 223.058594 " clip-rule="nonzero"/></clipPath><clipPath id="9202831cfe"><path d="M 152.828125 234.003906 L 93.023438 174.175781 L 174.6875 152.285156 L 152.828125 234.003906 " clip-rule="nonzero"/></clipPath><clipPath id="c262f49511"><path d="M 138 208 L 164 208 L 164 244 L 138 244 Z M 138 208 " clip-rule="nonzero"/></clipPath><clipPath id="09ffe3de11"><path d="M 163.457031 239.328125 L 145.914062 244.03125 L 137.648438 213.195312 L 155.191406 208.492188 Z M 163.457031 239.328125 " clip-rule="nonzero"/></clipPath><clipPath id="8fa70dcd58"><path d="M 163.457031 239.328125 L 146.296875 243.929688 L 138.082031 213.28125 L 155.242188 208.683594 Z M 163.457031 239.328125 " clip-rule="nonzero"/></clipPath><clipPath id="117cd5b28a"><path d="M 132 233 L 189 233 L 189 290 L 132 290 Z M 132 233 " clip-rule="nonzero"/></clipPath><clipPath id="e0908181eb"><path d="M 180.636719 227.882812 L 193.796875 281.925781 L 139.753906 295.085938 L 126.59375 241.042969 Z M 180.636719 227.882812 " clip-rule="nonzero"/></clipPath><clipPath id="94b92efc57"><path d="M 187.21875 254.902344 C 183.582031 239.980469 168.539062 230.828125 153.617188 234.460938 C 138.691406 238.097656 129.539062 253.140625 133.175781 268.066406 C 136.808594 282.988281 151.851562 292.140625 166.777344 288.503906 C 181.699219 284.871094 190.851562 269.828125 187.21875 254.902344 " clip-rule="nonzero"/></clipPath><clipPath id="64a6d146e7"><path d="M 132 233 L 188 233 L 188 290 L 132 290 Z M 132 233 " clip-rule="nonzero"/></clipPath><clipPath id="a06f48b230"><path d="M 180.636719 227.882812 L 193.769531 281.804688 L 139.84375 294.9375 L 126.714844 241.015625 Z M 180.636719 227.882812 " clip-rule="nonzero"/></clipPath><clipPath id="863ccffdad"><path d="M 180.636719 227.882812 L 193.769531 281.804688 L 139.84375 294.9375 L 126.714844 241.015625 Z M 180.636719 227.882812 " clip-rule="nonzero"/></clipPath><clipPath id="71a0c6ca97"><path d="M 187.203125 254.84375 C 183.578125 239.953125 168.566406 230.820312 153.675781 234.449219 C 138.785156 238.074219 129.652344 253.085938 133.28125 267.976562 C 136.90625 282.867188 151.917969 292 166.808594 288.371094 C 181.699219 284.746094 190.828125 269.734375 187.203125 254.84375 " clip-rule="nonzero"/></clipPath><clipPath id="fd3e0880ff"><path d="M 168 103 L 224 103 L 224 159 L 168 159 Z M 168 103 " clip-rule="nonzero"/></clipPath><clipPath id="9eaf006e6f"><path d="M 235.226562 131.101562 L 195.886719 170.421875 L 156.566406 131.078125 L 195.90625 91.761719 Z M 235.226562 131.101562 " clip-rule="nonzero"/></clipPath><clipPath id="cccdd6b092"><path d="M 215.558594 150.761719 C 226.421875 139.902344 226.425781 122.292969 215.566406 111.429688 C 204.710938 100.566406 187.101562 100.5625 176.238281 111.417969 C 165.375 122.277344 165.367188 139.886719 176.226562 150.75 C 187.085938 161.613281 204.695312 161.621094 215.558594 150.761719 " clip-rule="nonzero"/></clipPath><clipPath id="4ea34f5690"><path d="M 168 103 L 224 103 L 224 159 L 168 159 Z M 168 103 " clip-rule="nonzero"/></clipPath><clipPath id="e9f19f1681"><path d="M 235.226562 131.101562 L 195.972656 170.335938 L 156.738281 131.078125 L 195.996094 91.847656 Z M 235.226562 131.101562 " clip-rule="nonzero"/></clipPath><clipPath id="07914549de"><path d="M 235.226562 131.101562 L 195.972656 170.335938 L 156.738281 131.078125 L 195.996094 91.847656 Z M 235.226562 131.101562 " clip-rule="nonzero"/></clipPath><clipPath id="b65d5c27f1"><path d="M 215.601562 150.71875 C 226.441406 139.882812 226.445312 122.3125 215.613281 111.472656 C 204.777344 100.632812 187.207031 100.628906 176.367188 111.464844 C 165.527344 122.296875 165.523438 139.867188 176.355469 150.707031 C 187.191406 161.546875 204.761719 161.550781 215.601562 150.71875 " clip-rule="nonzero"/></clipPath><clipPath id="08c4e54ccb"><path d="M 40 139 L 96 139 L 96 196 L 40 196 Z M 40 139 " clip-rule="nonzero"/></clipPath><clipPath id="1ab8c2b689"><path d="M 88.558594 133.71875 L 101.71875 187.757812 L 47.675781 200.921875 L 34.515625 146.878906 Z M 88.558594 133.71875 " clip-rule="nonzero"/></clipPath><clipPath id="c70fe23d81"><path d="M 95.140625 160.738281 C 91.503906 145.816406 76.460938 136.664062 61.535156 140.296875 C 46.613281 143.929688 37.460938 158.976562 41.097656 173.898438 C 44.730469 188.824219 59.773438 197.972656 74.699219 194.339844 C 89.621094 190.707031 98.773438 175.660156 95.140625 160.738281 " clip-rule="nonzero"/></clipPath><clipPath id="ba9d543e03"><path d="M 40 139 L 96 139 L 96 195 L 40 195 Z M 40 139 " clip-rule="nonzero"/></clipPath><clipPath id="d5ca0607e6"><path d="M 88.558594 133.71875 L 101.691406 187.640625 L 47.765625 200.773438 L 34.632812 146.847656 Z M 88.558594 133.71875 " clip-rule="nonzero"/></clipPath><clipPath id="cc79f86b5b"><path d="M 88.558594 133.71875 L 101.691406 187.640625 L 47.765625 200.773438 L 34.632812 146.847656 Z M 88.558594 133.71875 " clip-rule="nonzero"/></clipPath><clipPath id="405fa5cba1"><path d="M 95.125 160.679688 C 91.496094 145.789062 76.488281 136.65625 61.597656 140.28125 C 46.707031 143.910156 37.574219 158.921875 41.199219 173.8125 C 44.828125 188.703125 59.835938 197.832031 74.726562 194.207031 C 89.617188 190.582031 98.75 175.570312 95.125 160.679688 " clip-rule="nonzero"/></clipPath><clipPath id="e6e9a93adb"><path d="M 153 254 L 168 254 L 168 269 L 153 269 Z M 153 254 " clip-rule="nonzero"/></clipPath><clipPath id="7f3301241f"><path d="M 168.746094 266.414062 L 155.265625 270.027344 L 151.648438 256.546875 L 165.132812 252.929688 Z M 168.746094 266.414062 " clip-rule="nonzero"/></clipPath><clipPath id="351a2c2c13"><path d="M 162.007812 268.222656 C 165.730469 267.222656 167.9375 263.394531 166.941406 259.671875 C 165.941406 255.949219 162.113281 253.742188 158.390625 254.738281 C 154.667969 255.738281 152.460938 259.5625 153.457031 263.289062 C 154.457031 267.011719 158.28125 269.21875 162.007812 268.222656 " clip-rule="nonzero"/></clipPath><clipPath id="14ab24c415"><path d="M 188 124 L 203 124 L 203 139 L 188 139 Z M 188 124 " clip-rule="nonzero"/></clipPath><clipPath id="6070e3197a"><path d="M 195.898438 140.960938 L 186.03125 131.085938 L 195.90625 121.21875 L 205.773438 131.089844 Z M 195.898438 140.960938 " clip-rule="nonzero"/></clipPath><clipPath id="4ae29ee68c"><path d="M 190.964844 136.023438 C 193.691406 138.75 198.109375 138.75 200.835938 136.027344 C 203.5625 133.300781 203.566406 128.882812 200.839844 126.15625 C 198.113281 123.429688 193.695312 123.425781 190.96875 126.152344 C 188.242188 128.878906 188.242188 133.296875 190.964844 136.023438 " clip-rule="nonzero"/></clipPath><clipPath id="9d86a219c7"><path d="M 60 161 L 75 161 L 75 176 L 60 176 Z M 60 161 " clip-rule="nonzero"/></clipPath><clipPath id="1a0371ddd3"><path d="M 76.421875 173.257812 L 62.9375 176.871094 L 59.324219 163.390625 L 72.804688 159.773438 Z M 76.421875 173.257812 " clip-rule="nonzero"/></clipPath><clipPath id="b103c4c9fd"><path d="M 69.679688 175.066406 C 73.402344 174.066406 75.609375 170.238281 74.613281 166.515625 C 73.613281 162.792969 69.789062 160.582031 66.0625 161.582031 C 62.339844 162.582031 60.132812 166.40625 61.128906 170.132812 C 62.128906 173.855469 65.957031 176.0625 69.679688 175.066406 " clip-rule="nonzero"/></clipPath><clipPath id="beffe7680e"><path d="M 79 212 L 114 212 L 114 248 L 79 248 Z M 79 212 " clip-rule="nonzero"/></clipPath><clipPath id="899f252fe0"><path d="M 80.636719 211.410156 L 116.867188 241.738281 L 108.203125 252.089844 L 71.972656 221.761719 Z M 80.636719 211.410156 " clip-rule="nonzero"/></clipPath><clipPath id="670e7fc821"><path d="M 80.636719 211.410156 L 116.867188 241.738281 L 108.203125 252.089844 L 71.972656 221.761719 Z M 80.636719 211.410156 " clip-rule="nonzero"/></clipPath><clipPath id="4b5bd874ac"><path d="M 80.636719 211.410156 L 116.867188 241.738281 L 108.203125 252.089844 L 71.972656 221.761719 Z M 80.636719 211.410156 " clip-rule="nonzero"/></clipPath><clipPath id="db4d0e3063"><path d="M 82 220 L 83 220 L 83 221 L 82 221 Z M 82 220 " clip-rule="nonzero"/></clipPath><clipPath id="2e858df93a"><path d="M 80.636719 211.410156 L 116.867188 241.738281 L 108.203125 252.089844 L 71.972656 221.761719 Z M 80.636719 211.410156 " clip-rule="nonzero"/></clipPath><clipPath id="65d12edbe5"><path d="M 80.636719 211.410156 L 116.867188 241.738281 L 108.203125 252.089844 L 71.972656 221.761719 Z M 80.636719 211.410156 " clip-rule="nonzero"/></clipPath><clipPath id="14fbc9990a"><path d="M 80.636719 211.410156 L 116.867188 241.738281 L 108.203125 252.089844 L 71.972656 221.761719 Z M 80.636719 211.410156 " clip-rule="nonzero"/></clipPath><clipPath id="368a6c4cc4"><path d="M 100 114 L 147 114 L 147 132 L 100 132 Z M 100 114 " clip-rule="nonzero"/></clipPath><clipPath id="e4fa17cd20"><path d="M 147.113281 122.332031 L 101.457031 134.5 L 97.976562 121.453125 L 143.636719 109.285156 Z M 147.113281 122.332031 " clip-rule="nonzero"/></clipPath><clipPath id="000afe9970"><path d="M 147.113281 122.332031 L 101.457031 134.5 L 97.976562 121.453125 L 143.636719 109.285156 Z M 147.113281 122.332031 " clip-rule="nonzero"/></clipPath><clipPath id="f46c20990a"><path d="M 147.113281 122.332031 L 101.457031 134.5 L 97.976562 121.453125 L 143.636719 109.285156 Z M 147.113281 122.332031 " clip-rule="nonzero"/></clipPath><clipPath id="3428eb535a"><path d="M 138 118 L 139 118 L 139 119 L 138 119 Z M 138 118 " clip-rule="nonzero"/></clipPath><clipPath id="8df94fcd57"><path d="M 147.113281 122.332031 L 101.457031 134.5 L 97.976562 121.453125 L 143.636719 109.285156 Z M 147.113281 122.332031 " clip-rule="nonzero"/></clipPath><clipPath id="b56545cc8a"><path d="M 147.113281 122.332031 L 101.457031 134.5 L 97.976562 121.453125 L 143.636719 109.285156 Z M 147.113281 122.332031 " clip-rule="nonzero"/></clipPath><clipPath id="2549248ca2"><path d="M 147.113281 122.332031 L 101.457031 134.5 L 97.976562 121.453125 L 143.636719 109.285156 Z M 147.113281 122.332031 " clip-rule="nonzero"/></clipPath><clipPath id="f016da5d7f"><path d="M 191 179 L 217 179 L 217 223 L 191 223 Z M 191 179 " clip-rule="nonzero"/></clipPath><clipPath id="9283c772e2"><path d="M 191.535156 222.078125 L 207.558594 177.625 L 220.257812 182.207031 L 204.234375 226.65625 Z M 191.535156 222.078125 " clip-rule="nonzero"/></clipPath><clipPath id="d04610bfbf"><path d="M 191.535156 222.078125 L 207.558594 177.625 L 220.257812 182.207031 L 204.234375 226.65625 Z M 191.535156 222.078125 " clip-rule="nonzero"/></clipPath><clipPath id="960b9ec811"><path d="M 191.535156 222.078125 L 207.558594 177.625 L 220.257812 182.207031 L 204.234375 226.65625 Z M 191.535156 222.078125 " clip-rule="nonzero"/></clipPath><clipPath id="89dfcf316a"><path d="M 199 217 L 200 217 L 200 218 L 199 218 Z M 199 217 " clip-rule="nonzero"/></clipPath><clipPath id="83da98e5f2"><path d="M 191.535156 222.078125 L 207.558594 177.625 L 220.257812 182.207031 L 204.234375 226.65625 Z M 191.535156 222.078125 " clip-rule="nonzero"/></clipPath><clipPath id="bf4156d60e"><path d="M 191.535156 222.078125 L 207.558594 177.625 L 220.257812 182.207031 L 204.234375 226.65625 Z M 191.535156 222.078125 " clip-rule="nonzero"/></clipPath><clipPath id="ee302b88d0"><path d="M 191.535156 222.078125 L 207.558594 177.625 L 220.257812 182.207031 L 204.234375 226.65625 Z M 191.535156 222.078125 " clip-rule="nonzero"/></clipPath><clipPath id="91d9cd4043"><path d="M 278 297.128906 L 295 297.128906 L 295 318.128906 L 278 318.128906 Z M 278 297.128906 " clip-rule="nonzero"/></clipPath><clipPath id="01b86d1831"><path d="M 266.625 297.128906 L 283 297.128906 L 283 318.128906 L 266.625 318.128906 Z M 266.625 297.128906 " clip-rule="nonzero"/></clipPath><clipPath id="a5b2ccc5e9"><path d="M 241 297.128906 L 258 297.128906 L 258 318.128906 L 241 318.128906 Z M 241 297.128906 " clip-rule="nonzero"/></clipPath><clipPath id="9c576354cf"><path d="M 229.5 297.128906 L 246 297.128906 L 246 318.128906 L 229.5 318.128906 Z M 229.5 297.128906 " clip-rule="nonzero"/></clipPath><clipPath id="243621b6a8"><path d="M 204 297.128906 L 220.875 297.128906 L 220.875 318.128906 L 204 318.128906 Z M 204 297.128906 " clip-rule="nonzero"/></clipPath><clipPath id="87f5338b3a"><path d="M 192.375 297.128906 L 209 297.128906 L 209 318.128906 L 192.375 318.128906 Z M 192.375 297.128906 " clip-rule="nonzero"/></clipPath><clipPath id="cf1e54ffe0"><path d="M 167 297.128906 L 183.75 297.128906 L 183.75 318.128906 L 167 318.128906 Z M 167 297.128906 " clip-rule="nonzero"/></clipPath><clipPath id="fdb8fb23ac"><path d="M 155.25 297.128906 L 172 297.128906 L 172 318.128906 L 155.25 318.128906 Z M 155.25 297.128906 " clip-rule="nonzero"/></clipPath><clipPath id="dbf4488cc7"><path d="M 130 297 L 147 297 L 147 319 L 130 319 Z M 130 297 " clip-rule="nonzero"/></clipPath><clipPath id="62430a201e"><path d="M 117.945312 297.378906 L 146.441406 296.875 L 146.8125 317.871094 L 118.316406 318.375 Z M 117.945312 297.378906 " clip-rule="nonzero"/></clipPath><clipPath id="92044836ad"><path d="M 117.945312 297.378906 L 146.441406 296.875 L 146.8125 317.871094 L 118.316406 318.375 Z M 117.945312 297.378906 " clip-rule="nonzero"/></clipPath><clipPath id="087dbe0b8e"><path d="M 117 297 L 135 297 L 135 319 L 117 319 Z M 117 297 " clip-rule="nonzero"/></clipPath><clipPath id="d2f4911467"><path d="M 117.945312 297.378906 L 146.441406 296.875 L 146.8125 317.871094 L 118.316406 318.375 Z M 117.945312 297.378906 " clip-rule="nonzero"/></clipPath><clipPath id="7d7c7afe26"><path d="M 117.945312 297.378906 L 146.441406 296.875 L 146.8125 317.871094 L 118.316406 318.375 Z M 117.945312 297.378906 " clip-rule="nonzero"/></clipPath><clipPath id="e868d3a652"><path d="M 80 284 L 100 284 L 100 306 L 80 306 Z M 80 284 " clip-rule="nonzero"/></clipPath><clipPath id="e7e9f15622"><path d="M 81.105469 277.734375 L 105.09375 293.121094 L 93.757812 310.796875 L 69.765625 295.410156 Z M 81.105469 277.734375 " clip-rule="nonzero"/></clipPath><clipPath id="811b34610c"><path d="M 81.105469 277.734375 L 105.09375 293.121094 L 93.757812 310.796875 L 69.765625 295.410156 Z M 81.105469 277.734375 " clip-rule="nonzero"/></clipPath><clipPath id="1f48305afc"><path d="M 70 278 L 90 278 L 90 300 L 70 300 Z M 70 278 " clip-rule="nonzero"/></clipPath><clipPath id="b85320e817"><path d="M 81.105469 277.734375 L 105.09375 293.121094 L 93.757812 310.796875 L 69.765625 295.410156 Z M 81.105469 277.734375 " clip-rule="nonzero"/></clipPath><clipPath id="bbb3af4caa"><path d="M 81.105469 277.734375 L 105.09375 293.121094 L 93.757812 310.796875 L 69.765625 295.410156 Z M 81.105469 277.734375 " clip-rule="nonzero"/></clipPath><clipPath id="1928769abe"><path d="M 42 264 L 62 264 L 62 285 L 42 285 Z M 42 264 " clip-rule="nonzero"/></clipPath><clipPath id="182692802b"><path d="M 48.058594 255.742188 L 68.585938 275.511719 L 54.019531 290.636719 L 33.492188 270.867188 Z M 48.058594 255.742188 " clip-rule="nonzero"/></clipPath><clipPath id="ae4ae38820"><path d="M 48.058594 255.742188 L 68.585938 275.511719 L 54.019531 290.636719 L 33.492188 270.867188 Z M 48.058594 255.742188 " clip-rule="nonzero"/></clipPath><clipPath id="1d633c5ec6"><path d="M 33 256 L 54 256 L 54 276 L 33 276 Z M 33 256 " clip-rule="nonzero"/></clipPath><clipPath id="366a881977"><path d="M 48.058594 255.742188 L 68.585938 275.511719 L 54.019531 290.636719 L 33.492188 270.867188 Z M 48.058594 255.742188 " clip-rule="nonzero"/></clipPath><clipPath id="11fda032bc"><path d="M 48.058594 255.742188 L 68.585938 275.511719 L 54.019531 290.636719 L 33.492188 270.867188 Z M 48.058594 255.742188 " clip-rule="nonzero"/></clipPath><clipPath id="55aef1e733"><path d="M 19 232 L 41 232 L 41 251 L 19 251 Z M 19 232 " clip-rule="nonzero"/></clipPath><clipPath id="cc60e4c875"><path d="M 31.21875 221.023438 L 45.539062 245.664062 L 27.386719 256.21875 L 13.0625 231.578125 Z M 31.21875 221.023438 " clip-rule="nonzero"/></clipPath><clipPath id="0fce1aeedd"><path d="M 31.21875 221.023438 L 45.539062 245.664062 L 27.386719 256.21875 L 13.0625 231.578125 Z M 31.21875 221.023438 " clip-rule="nonzero"/></clipPath><clipPath id="7d76f79e12"><path d="M 13 221 L 35 221 L 35 241 L 13 241 Z M 13 221 " clip-rule="nonzero"/></clipPath><clipPath id="4d98caf117"><path d="M 31.21875 221.023438 L 45.539062 245.664062 L 27.386719 256.21875 L 13.0625 231.578125 Z M 31.21875 221.023438 " clip-rule="nonzero"/></clipPath><clipPath id="c234c8bb06"><path d="M 31.21875 221.023438 L 45.539062 245.664062 L 27.386719 256.21875 L 13.0625 231.578125 Z M 31.21875 221.023438 " clip-rule="nonzero"/></clipPath><clipPath id="404128d7fe"><path d="M 8.878906 184 L 29.878906 184 L 29.878906 200.4375 L 8.878906 200.4375 Z M 8.878906 184 " clip-rule="nonzero"/></clipPath><clipPath id="f0a227d416"><path d="M 8.878906 171.9375 L 29.878906 171.9375 L 29.878906 188 L 8.878906 188 Z M 8.878906 171.9375 " clip-rule="nonzero"/></clipPath><clipPath id="5f3c2edf50"><path d="M 18 126 L 39 126 L 39 146 L 18 146 Z M 18 126 " clip-rule="nonzero"/></clipPath><clipPath id="f72d7c4ed7"><path d="M 46.378906 127.648438 L 30.144531 151.074219 L 12.882812 139.109375 L 29.117188 115.6875 Z M 46.378906 127.648438 " clip-rule="nonzero"/></clipPath><clipPath id="6fb2396a3b"><path d="M 46.378906 127.648438 L 30.144531 151.074219 L 12.882812 139.109375 L 29.117188 115.6875 Z M 46.378906 127.648438 " clip-rule="nonzero"/></clipPath><clipPath id="b7c6f47172"><path d="M 25 116 L 46 116 L 46 136 L 25 136 Z M 25 116 " clip-rule="nonzero"/></clipPath><clipPath id="73b7b9d8ea"><path d="M 46.378906 127.648438 L 30.144531 151.074219 L 12.882812 139.109375 L 29.117188 115.6875 Z M 46.378906 127.648438 " clip-rule="nonzero"/></clipPath><clipPath id="94a94c09d5"><path d="M 46.378906 127.648438 L 30.144531 151.074219 L 12.882812 139.109375 L 29.117188 115.6875 Z M 46.378906 127.648438 " clip-rule="nonzero"/></clipPath><clipPath id="60be15aef6"><path d="M 44 90 L 64 90 L 64 111 L 44 111 Z M 44 90 " clip-rule="nonzero"/></clipPath><clipPath id="9f1bbeb75b"><path d="M 72.519531 97.335938 L 51.425781 116.5 L 37.304688 100.957031 L 58.398438 81.792969 Z M 72.519531 97.335938 " clip-rule="nonzero"/></clipPath><clipPath id="8f2decb2f4"><path d="M 72.519531 97.335938 L 51.425781 116.5 L 37.304688 100.957031 L 58.398438 81.792969 Z M 72.519531 97.335938 " clip-rule="nonzero"/></clipPath><clipPath id="e4f5191a5e"><path d="M 53 82 L 73 82 L 73 102 L 53 102 Z M 53 82 " clip-rule="nonzero"/></clipPath><clipPath id="223160c6e5"><path d="M 72.519531 97.335938 L 51.425781 116.5 L 37.304688 100.957031 L 58.398438 81.792969 Z M 72.519531 97.335938 " clip-rule="nonzero"/></clipPath><clipPath id="223b548dd0"><path d="M 72.519531 97.335938 L 51.425781 116.5 L 37.304688 100.957031 L 58.398438 81.792969 Z M 72.519531 97.335938 " clip-rule="nonzero"/></clipPath><clipPath id="f25e0c6b0e"><path d="M 74 67 L 94 67 L 94 90 L 74 90 Z M 74 67 " clip-rule="nonzero"/></clipPath><clipPath id="6ece44dd1d"><path d="M 104.921875 81.058594 L 79.34375 93.632812 L 70.078125 74.785156 L 95.65625 62.214844 Z M 104.921875 81.058594 " clip-rule="nonzero"/></clipPath><clipPath id="f4a201eae9"><path d="M 104.921875 81.058594 L 79.34375 93.632812 L 70.078125 74.785156 L 95.65625 62.214844 Z M 104.921875 81.058594 " clip-rule="nonzero"/></clipPath><clipPath id="73aae713d6"><path d="M 85 62 L 105 62 L 105 85 L 85 85 Z M 85 62 " clip-rule="nonzero"/></clipPath><clipPath id="5904a6fd68"><path d="M 104.921875 81.058594 L 79.34375 93.632812 L 70.078125 74.785156 L 95.65625 62.214844 Z M 104.921875 81.058594 " clip-rule="nonzero"/></clipPath><clipPath id="cbbdc9b3dd"><path d="M 104.921875 81.058594 L 79.34375 93.632812 L 70.078125 74.785156 L 95.65625 62.214844 Z M 104.921875 81.058594 " clip-rule="nonzero"/></clipPath><clipPath id="07d877907a"><path d="M 117.785156 57.015625 L 135 57.015625 L 135 78 L 117.785156 78 Z M 117.785156 57.015625 " clip-rule="nonzero"/></clipPath><clipPath id="5f5470a930"><path d="M 130 57.015625 L 146.285156 57.015625 L 146.285156 78 L 130 78 Z M 130 57.015625 " clip-rule="nonzero"/></clipPath><clipPath id="aab20dc9f7"><path d="M 154 56 L 171 56 L 171 78 L 154 78 Z M 154 56 " clip-rule="nonzero"/></clipPath><clipPath id="e4a73a6682"><path d="M 182.511719 78.015625 L 154.023438 77.15625 L 154.65625 56.164062 L 183.144531 57.023438 Z M 182.511719 78.015625 " clip-rule="nonzero"/></clipPath><clipPath id="5564dd00b9"><path d="M 182.511719 78.015625 L 154.023438 77.15625 L 154.65625 56.164062 L 183.144531 57.023438 Z M 182.511719 78.015625 " clip-rule="nonzero"/></clipPath><clipPath id="2748d0f72a"><path d="M 166 56 L 184 56 L 184 78 L 166 78 Z M 166 56 " clip-rule="nonzero"/></clipPath><clipPath id="95177f8811"><path d="M 182.511719 78.015625 L 154.023438 77.15625 L 154.65625 56.164062 L 183.144531 57.023438 Z M 182.511719 78.015625 " clip-rule="nonzero"/></clipPath><clipPath id="5089b446ca"><path d="M 182.511719 78.015625 L 154.023438 77.15625 L 154.65625 56.164062 L 183.144531 57.023438 Z M 182.511719 78.015625 " clip-rule="nonzero"/></clipPath><clipPath id="70987b708a"><path d="M 266 56 L 283 56 L 283 78 L 266 78 Z M 266 56 " clip-rule="nonzero"/></clipPath><clipPath id="7e85df409b"><path d="M 294.164062 78.015625 L 265.675781 77.15625 L 266.308594 56.164062 L 294.796875 57.023438 Z M 294.164062 78.015625 " clip-rule="nonzero"/></clipPath><clipPath id="065f075612"><path d="M 294.164062 78.015625 L 265.675781 77.15625 L 266.308594 56.164062 L 294.796875 57.023438 Z M 294.164062 78.015625 " clip-rule="nonzero"/></clipPath><clipPath id="9ad8711a82"><path d="M 278 56 L 295 56 L 295 78 L 278 78 Z M 278 56 " clip-rule="nonzero"/></clipPath><clipPath id="9150faa6ed"><path d="M 294.164062 78.015625 L 265.675781 77.15625 L 266.308594 56.164062 L 294.796875 57.023438 Z M 294.164062 78.015625 " clip-rule="nonzero"/></clipPath><clipPath id="6604147d79"><path d="M 294.164062 78.015625 L 265.675781 77.15625 L 266.308594 56.164062 L 294.796875 57.023438 Z M 294.164062 78.015625 " clip-rule="nonzero"/></clipPath><clipPath id="e011c4e7dd"><path d="M 229 56 L 246 56 L 246 78 L 229 78 Z M 229 56 " clip-rule="nonzero"/></clipPath><clipPath id="ade0893baa"><path d="M 257.039062 78.015625 L 228.550781 77.15625 L 229.183594 56.164062 L 257.671875 57.023438 Z M 257.039062 78.015625 " clip-rule="nonzero"/></clipPath><clipPath id="7820374f50"><path d="M 257.039062 78.015625 L 228.550781 77.15625 L 229.183594 56.164062 L 257.671875 57.023438 Z M 257.039062 78.015625 " clip-rule="nonzero"/></clipPath><clipPath id="bfa2f327a5"><path d="M 241 56 L 258 56 L 258 78 L 241 78 Z M 241 56 " clip-rule="nonzero"/></clipPath><clipPath id="28a88398a3"><path d="M 257.039062 78.015625 L 228.550781 77.15625 L 229.183594 56.164062 L 257.671875 57.023438 Z M 257.039062 78.015625 " clip-rule="nonzero"/></clipPath><clipPath id="4c89b77c5a"><path d="M 257.039062 78.015625 L 228.550781 77.15625 L 229.183594 56.164062 L 257.671875 57.023438 Z M 257.039062 78.015625 " clip-rule="nonzero"/></clipPath><clipPath id="c8add254e1"><path d="M 192 56 L 209 56 L 209 78 L 192 78 Z M 192 56 " clip-rule="nonzero"/></clipPath><clipPath id="7510b4c164"><path d="M 220.523438 78.015625 L 192.035156 77.15625 L 192.667969 56.164062 L 221.15625 57.023438 Z M 220.523438 78.015625 " clip-rule="nonzero"/></clipPath><clipPath id="bb1cb24718"><path d="M 220.523438 78.015625 L 192.035156 77.15625 L 192.667969 56.164062 L 221.15625 57.023438 Z M 220.523438 78.015625 " clip-rule="nonzero"/></clipPath><clipPath id="bc9000e79b"><path d="M 204 56 L 222 56 L 222 78 L 204 78 Z M 204 56 " clip-rule="nonzero"/></clipPath><clipPath id="16541bec3a"><path d="M 220.523438 78.015625 L 192.035156 77.15625 L 192.667969 56.164062 L 221.15625 57.023438 Z M 220.523438 78.015625 " clip-rule="nonzero"/></clipPath><clipPath id="e3f67c1643"><path d="M 220.523438 78.015625 L 192.035156 77.15625 L 192.667969 56.164062 L 221.15625 57.023438 Z M 220.523438 78.015625 " clip-rule="nonzero"/></clipPath></defs><g clip-path="url(#132af63f87)"><g clip-path="url(#b4d785027c)"><path fill="#737373" d="M 303.75 52.777344 L 303.75 323.039062 L -0.132812 323.039062 L -0.132812 52.777344 Z M 303.75 52.777344 " fill-opacity="1" fill-rule="nonzero"/></g></g><g clip-path="url(#597493eaec)"><g clip-path="url(#eba8785c58)"><path stroke-linecap="butt" transform="matrix(0.000000000000000046, 0.75, -0.75, 0.000000000000000046, 303.749959, 52.777354)" fill="none" stroke-linejoin="miter" d="M 120.062492 394.442673 C 138.520826 400.817674 159.505202 404.999965 180.098953 404.999965 C 200.692704 404.999965 220.505205 401.416632 238.770831 395.041632 C 239.156248 394.838507 239.546873 394.838507 239.937498 394.64059 C 308.515627 369.145797 359.031254 301.81246 360.000004 224.124956 L 360.000004 -0.0000552182 L -0.0000142096 -0.0000552182 L -0.0000142096 223.95829 C 0.973944 302.208294 50.708322 369.54163 120.062492 394.442673 " stroke="#000000" stroke-width="4" stroke-opacity="1" stroke-miterlimit="4"/></g></g><g clip-path="url(#ffb9756952)"><g clip-path="url(#39c21045bf)"><g clip-path="url(#ad1c9f82ad)"><path fill="#a6a6a6" d="M 9.050781 259.367188 L 69.136719 52.167969 L 276.335938 112.253906 L 216.246094 319.453125 Z M 9.050781 259.367188 " fill-opacity="1" fill-rule="nonzero"/></g></g></g><g clip-path="url(#6d6ac17d73)"><g clip-path="url(#817444b64c)"><g clip-path="url(#f1c67d8008)"><g clip-path="url(#64b6b04e0d)"><path stroke-linecap="butt" transform="matrix(0.208895, -0.720321, 0.720321, 0.208895, 9.049312, 259.365246)" fill="none" stroke-linejoin="miter" d="M 143.997419 -0.00106752 C 64.470024 -0.00161456 0.000824759 64.469565 0.00172838 144.001962 C 0.00118135 223.529357 64.472361 287.998557 143.999756 287.999104 C 223.527151 287.999651 288.001353 223.52702 288.0019 143.999625 C 288.002447 64.472231 223.529816 -0.00197114 143.997419 -0.00106752 " stroke="#000000" stroke-width="8" stroke-opacity="1" stroke-miterlimit="4"/></g></g></g></g><g clip-path="url(#e84c47d275)"><g clip-path="url(#b0bce0529c)"><g clip-path="url(#57542bab61)"><path fill="#ffde59" d="M 75.433594 178.714844 L 79.914062 161.683594 L 110.789062 169.800781 L 106.308594 186.835938 Z M 75.433594 178.714844 " fill-opacity="1" fill-rule="nonzero"/></g></g></g><g clip-path="url(#25ff0eb96a)"><g clip-path="url(#64fb6f7597)"><g clip-path="url(#6041e2dbe2)"><path fill="#ffde59" d="M 169.648438 169.75 L 157.273438 157.21875 L 179.988281 134.785156 L 192.363281 147.320312 Z M 169.648438 169.75 " fill-opacity="1" fill-rule="nonzero"/></g></g></g><g clip-path="url(#7a0ad95c4b)"><g clip-path="url(#5019280e67)"><g clip-path="url(#9202831cfe)"><path fill="#ffde59" d="M 193.660156 223.058594 L 112.089844 244.925781 L 93.125 174.183594 L 174.695312 152.316406 Z M 193.660156 223.058594 " fill-opacity="1" fill-rule="nonzero"/></g></g></g><g clip-path="url(#c262f49511)"><g clip-path="url(#09ffe3de11)"><g clip-path="url(#8fa70dcd58)"><path fill="#ffde59" d="M 163.457031 239.328125 L 146.445312 243.890625 L 138.179688 213.054688 L 155.191406 208.492188 Z M 163.457031 239.328125 " fill-opacity="1" fill-rule="nonzero"/></g></g></g><g clip-path="url(#117cd5b28a)"><g clip-path="url(#e0908181eb)"><g clip-path="url(#94b92efc57)"><path fill="#ffde59" d="M 180.636719 227.882812 L 193.796875 281.925781 L 139.753906 295.085938 L 126.59375 241.042969 Z M 180.636719 227.882812 " fill-opacity="1" fill-rule="nonzero"/></g></g></g><g clip-path="url(#64a6d146e7)"><g clip-path="url(#a06f48b230)"><g clip-path="url(#863ccffdad)"><g clip-path="url(#71a0c6ca97)"><path fill="#000000" d="M 184.292969 255.550781 C 182.980469 250.15625 180.175781 245.710938 175.878906 242.21875 L 179.65625 237.570312 C 184.996094 241.914062 188.480469 247.433594 190.113281 254.136719 Z M 173.71875 240.644531 C 169.054688 237.621094 163.972656 236.308594 158.464844 236.714844 L 158.023438 230.742188 C 164.871094 230.238281 171.1875 231.867188 176.976562 235.621094 Z M 155.816406 237.050781 C 155.335938 237.140625 154.859375 237.242188 154.382812 237.355469 C 149.5 238.546875 145.367188 240.988281 141.992188 244.679688 L 137.574219 240.636719 C 141.773438 236.046875 146.902344 233.015625 152.96875 231.539062 C 153.554688 231.394531 154.148438 231.269531 154.742188 231.160156 Z M 140.292969 246.746094 C 137.003906 251.230469 135.398438 256.234375 135.480469 261.757812 L 129.496094 261.84375 C 129.390625 254.980469 131.382812 248.765625 135.46875 243.203125 Z M 135.664062 264.40625 C 135.78125 265.367188 135.957031 266.320312 136.1875 267.269531 C 137.253906 271.648438 139.351562 275.449219 142.476562 278.660156 L 138.1875 282.835938 C 134.300781 278.84375 131.695312 274.125 130.371094 268.683594 C 130.085938 267.511719 129.867188 266.328125 129.722656 265.136719 Z M 144.441406 280.46875 C 148.722656 284.011719 153.621094 285.90625 159.140625 286.148438 L 158.875 292.128906 C 152.019531 291.828125 145.9375 289.480469 140.625 285.082031 Z M 161.8125 286.121094 C 163.253906 286.027344 164.683594 285.808594 166.097656 285.464844 C 169.984375 284.515625 173.429688 282.746094 176.429688 280.148438 L 180.347656 284.675781 C 176.617188 287.902344 172.339844 290.105469 167.515625 291.28125 C 165.761719 291.707031 163.988281 291.980469 162.199219 292.097656 Z M 178.351562 278.296875 C 182.132812 274.230469 184.308594 269.445312 184.875 263.949219 L 190.832031 264.5625 C 190.128906 271.390625 187.429688 277.328125 182.734375 282.375 Z M 185.003906 261.277344 C 184.992188 259.351562 184.753906 257.441406 184.292969 255.550781 L 190.113281 254.136719 C 190.683594 256.480469 190.976562 258.847656 190.992188 261.238281 Z M 185.003906 261.277344 " fill-opacity="1" fill-rule="nonzero"/></g></g></g></g><g clip-path="url(#fd3e0880ff)"><g clip-path="url(#9eaf006e6f)"><g clip-path="url(#cccdd6b092)"><path fill="#ffde59" d="M 235.226562 131.101562 L 195.886719 170.421875 L 156.566406 131.078125 L 195.90625 91.761719 Z M 235.226562 131.101562 " fill-opacity="1" fill-rule="nonzero"/></g></g></g><g clip-path="url(#4ea34f5690)"><g clip-path="url(#e9f19f1681)"><g clip-path="url(#07914549de)"><g clip-path="url(#b65d5c27f1)"><path fill="#000000" d="M 213.484375 148.601562 C 217.414062 144.675781 219.753906 139.96875 220.507812 134.484375 L 226.441406 135.296875 C 225.503906 142.113281 222.59375 147.960938 217.71875 152.835938 Z M 220.730469 131.816406 C 220.890625 126.265625 219.371094 121.238281 216.164062 116.742188 L 221.039062 113.265625 C 225.023438 118.855469 226.914062 125.097656 226.714844 131.992188 Z M 214.5 114.65625 C 214.175781 114.292969 213.839844 113.9375 213.492188 113.589844 C 209.941406 110.035156 205.710938 107.773438 200.800781 106.804688 L 201.960938 100.929688 C 208.058594 102.132812 213.316406 104.941406 217.730469 109.359375 C 218.15625 109.785156 218.570312 110.226562 218.972656 110.675781 Z M 198.152344 106.429688 C 192.609375 105.945312 187.503906 107.171875 182.824219 110.113281 L 179.640625 105.042969 C 185.453125 101.390625 191.796875 99.863281 198.671875 100.464844 Z M 180.65625 111.644531 C 179.898438 112.246094 179.171875 112.890625 178.484375 113.582031 C 175.292969 116.769531 173.136719 120.53125 172.015625 124.871094 L 166.21875 123.375 C 167.613281 117.980469 170.289062 113.304688 174.25 109.34375 C 175.105469 108.492188 176.003906 107.691406 176.945312 106.949219 Z M 171.488281 127.492188 C 170.6875 132.988281 171.613281 138.160156 174.273438 143 L 169.023438 145.882812 C 165.722656 139.867188 164.566406 133.449219 165.5625 126.625 Z M 175.683594 145.269531 C 176.515625 146.453125 177.441406 147.558594 178.472656 148.589844 C 181.300781 151.421875 184.605469 153.441406 188.382812 154.65625 L 186.550781 160.355469 C 181.851562 158.847656 177.75 156.335938 174.238281 152.824219 C 172.960938 151.546875 171.808594 150.175781 170.78125 148.707031 Z M 190.960938 155.335938 C 196.402344 156.457031 201.621094 155.832031 206.613281 153.457031 L 209.183594 158.867188 C 202.980469 161.8125 196.503906 162.589844 189.753906 161.199219 Z M 208.960938 152.179688 C 210.601562 151.167969 212.109375 149.976562 213.484375 148.601562 L 217.71875 152.835938 C 216.011719 154.539062 214.140625 156.019531 212.105469 157.277344 Z M 208.960938 152.179688 " fill-opacity="1" fill-rule="nonzero"/></g></g></g></g><g clip-path="url(#08c4e54ccb)"><g clip-path="url(#1ab8c2b689)"><g clip-path="url(#c70fe23d81)"><path fill="#ffde59" d="M 88.558594 133.71875 L 101.71875 187.757812 L 47.675781 200.921875 L 34.515625 146.878906 Z M 88.558594 133.71875 " fill-opacity="1" fill-rule="nonzero"/></g></g></g><g clip-path="url(#ba9d543e03)"><g clip-path="url(#d5ca0607e6)"><g clip-path="url(#cc79f86b5b)"><g clip-path="url(#405fa5cba1)"><path fill="#000000" d="M 92.214844 161.386719 C 90.902344 155.992188 88.097656 151.546875 83.800781 148.050781 L 87.578125 143.40625 C 92.917969 147.75 96.402344 153.269531 98.03125 159.96875 Z M 81.640625 146.476562 C 76.976562 143.453125 71.890625 142.144531 66.382812 142.546875 L 65.945312 136.578125 C 72.792969 136.074219 79.109375 137.699219 84.898438 141.453125 Z M 63.738281 142.886719 C 63.257812 142.972656 62.78125 143.074219 62.304688 143.191406 C 57.421875 144.382812 53.289062 146.820312 49.914062 150.511719 L 45.496094 146.472656 C 49.691406 141.882812 54.824219 138.851562 60.886719 137.375 C 61.476562 137.230469 62.066406 137.105469 62.660156 136.996094 Z M 48.214844 152.582031 C 44.921875 157.066406 43.320312 162.066406 43.402344 167.589844 L 37.414062 167.679688 C 37.3125 160.816406 39.304688 154.601562 43.386719 149.039062 Z M 43.585938 170.238281 C 43.703125 171.199219 43.878906 172.15625 44.109375 173.101562 C 45.175781 177.484375 47.273438 181.28125 50.398438 184.496094 L 46.109375 188.671875 C 42.222656 184.675781 39.617188 179.960938 38.292969 174.519531 C 38.007812 173.347656 37.789062 172.164062 37.644531 170.972656 Z M 52.363281 186.304688 C 56.640625 189.847656 61.542969 191.742188 67.058594 191.984375 L 66.796875 197.964844 C 59.941406 197.664062 53.855469 195.3125 48.542969 190.917969 Z M 69.734375 191.957031 C 71.175781 191.863281 72.605469 191.644531 74.019531 191.296875 C 77.90625 190.351562 81.351562 188.578125 84.351562 185.984375 L 88.269531 190.507812 C 84.539062 193.738281 80.261719 195.941406 75.4375 197.117188 C 73.683594 197.542969 71.910156 197.816406 70.121094 197.929688 Z M 86.269531 184.128906 C 90.054688 180.0625 92.230469 175.28125 92.796875 169.78125 L 98.75 170.394531 C 98.046875 177.226562 95.347656 183.164062 90.652344 188.207031 Z M 92.925781 167.109375 C 92.914062 165.183594 92.675781 163.277344 92.214844 161.386719 L 98.03125 159.96875 C 98.605469 162.3125 98.894531 164.679688 98.910156 167.070312 Z M 92.925781 167.109375 " fill-opacity="1" fill-rule="nonzero"/></g></g></g></g><g clip-path="url(#e6e9a93adb)"><g clip-path="url(#7f3301241f)"><g clip-path="url(#351a2c2c13)"><path fill="#707070" d="M 168.746094 266.414062 L 155.265625 270.027344 L 151.648438 256.546875 L 165.132812 252.929688 Z M 168.746094 266.414062 " fill-opacity="1" fill-rule="nonzero"/></g></g></g><g clip-path="url(#14ab24c415)"><g clip-path="url(#6070e3197a)"><g clip-path="url(#4ae29ee68c)"><path fill="#707070" d="M 195.898438 140.960938 L 186.03125 131.085938 L 195.90625 121.21875 L 205.773438 131.089844 Z M 195.898438 140.960938 " fill-opacity="1" fill-rule="nonzero"/></g></g></g><g clip-path="url(#9d86a219c7)"><g clip-path="url(#1a0371ddd3)"><g clip-path="url(#b103c4c9fd)"><path fill="#707070" d="M 76.421875 173.257812 L 62.9375 176.871094 L 59.324219 163.390625 L 72.804688 159.773438 Z M 76.421875 173.257812 " fill-opacity="1" fill-rule="nonzero"/></g></g></g><g clip-path="url(#beffe7680e)"><g clip-path="url(#899f252fe0)"><g clip-path="url(#670e7fc821)"><g clip-path="url(#4b5bd874ac)"><path fill="#ffffff" d="M 80.96875 212.199219 C 80.929688 212.207031 80.902344 212.234375 80.890625 212.273438 C 80.746094 212.296875 80.636719 212.09375 80.476562 212.226562 C 80.027344 212.265625 79.910156 212.59375 79.847656 212.964844 C 79.671875 214 79.671875 215.039062 79.730469 216.082031 C 79.953125 219.808594 80.945312 223.308594 82.566406 226.664062 C 85.394531 232.519531 89.847656 236.730469 95.496094 239.753906 C 98.113281 241.15625 100.933594 242.074219 103.792969 242.855469 C 105.476562 243.316406 107.183594 243.671875 108.882812 244.074219 C 108.949219 244.058594 109.015625 244.046875 109.082031 244.035156 C 109.144531 244.082031 109.226562 244.113281 109.257812 244.175781 C 109.257812 244.175781 109.257812 244.175781 109.257812 244.179688 C 109.28125 244.226562 109.207031 244.261719 109.148438 244.246094 C 108.519531 244.527344 107.851562 244.667969 107.179688 244.769531 C 106.71875 244.839844 106.277344 244.945312 105.867188 245.179688 C 104.875 245.324219 104.34375 245.925781 104.351562 246.84375 C 106.238281 247.476562 108.0625 247.0625 109.882812 246.488281 C 110.5625 246.277344 111.25 246.109375 111.9375 245.933594 C 113.582031 245.511719 113.320312 245.480469 113.71875 244.152344 C 113.804688 243.855469 113.824219 243.542969 113.8125 243.234375 C 113.808594 243.117188 113.792969 243.011719 113.699219 242.9375 C 113.78125 242.59375 113.558594 242.402344 113.332031 242.226562 C 112.660156 241.703125 111.980469 241.191406 111.304688 240.671875 C 111.230469 240.480469 111.066406 240.386719 110.902344 240.296875 C 110.835938 240.105469 110.671875 240.007812 110.511719 239.910156 C 110.488281 239.765625 110.359375 239.703125 110.269531 239.605469 C 109.101562 238.308594 108.097656 236.894531 107.339844 235.3125 C 107.28125 235.191406 107.214844 235.078125 107.152344 234.960938 C 107.082031 234.820312 107 234.664062 106.824219 234.695312 C 106.6875 234.71875 106.585938 234.878906 106.589844 234.996094 C 106.601562 235.507812 106.296875 235.949219 106.265625 236.449219 C 106.253906 236.667969 106.332031 236.878906 106.414062 237.085938 C 107.039062 238.707031 107.933594 240.167969 108.980469 241.539062 C 109.074219 241.660156 109.191406 241.769531 109.257812 241.910156 C 109.332031 242.070312 109.207031 242.144531 109.066406 242.1875 C 108.949219 242.058594 108.808594 242.035156 108.648438 242.101562 C 108.515625 242.003906 108.378906 241.921875 108.203125 242 C 108.1875 241.960938 108.15625 241.953125 108.121094 241.976562 C 107.996094 241.882812 107.867188 241.816406 107.703125 241.878906 C 107.605469 241.835938 107.511719 241.773438 107.40625 241.746094 C 106.261719 241.441406 105.113281 241.152344 103.972656 240.832031 C 102.9375 240.539062 101.910156 240.21875 100.882812 239.90625 C 100.621094 239.792969 100.363281 239.667969 100.097656 239.5625 C 97.53125 238.539062 95.128906 237.21875 92.9375 235.539062 C 92.152344 234.9375 91.390625 234.3125 90.617188 233.699219 C 90.542969 233.5 90.367188 233.40625 90.191406 233.3125 C 90.125 233.117188 89.960938 233.027344 89.796875 232.9375 C 89.746094 232.746094 89.582031 232.671875 89.4375 232.574219 C 89.414062 232.445312 89.328125 232.378906 89.214844 232.335938 C 89.203125 232.289062 89.175781 232.261719 89.125 232.257812 C 89.097656 232.117188 88.972656 232.050781 88.890625 231.953125 C 88.480469 231.472656 87.988281 231.066406 87.640625 230.53125 C 87.566406 230.535156 87.410156 230.441406 87.519531 230.65625 C 87.589844 230.796875 87.570312 230.835938 87.515625 230.839844 C 87.46875 230.84375 87.394531 230.816406 87.339844 230.804688 C 86.097656 229.238281 85.0625 227.542969 84.140625 225.773438 C 84.070312 225.601562 83.996094 225.429688 83.925781 225.257812 C 83.507812 224.226562 83.085938 223.199219 82.664062 222.171875 C 82.675781 222.128906 82.671875 222.085938 82.65625 222.054688 C 82.644531 222.027344 82.625 222.007812 82.605469 221.988281 C 82.625 221.914062 82.601562 221.855469 82.546875 221.8125 C 82.566406 221.738281 82.546875 221.679688 82.488281 221.632812 C 82.511719 221.558594 82.492188 221.5 82.429688 221.453125 C 82.453125 221.378906 82.4375 221.320312 82.375 221.273438 C 82.402344 221.199219 82.382812 221.140625 82.320312 221.09375 C 82.347656 221.019531 82.332031 220.960938 82.269531 220.917969 L 82.269531 220.914062 C 82.257812 220.855469 82.242188 220.792969 82.21875 220.734375 L 82.21875 220.730469 C 82.246094 220.660156 82.230469 220.601562 82.171875 220.554688 L 82.167969 220.546875 C 82.195312 220.476562 82.183594 220.417969 82.121094 220.371094 L 82.117188 220.363281 C 82.148438 220.292969 82.132812 220.234375 82.070312 220.1875 L 82.070312 220.183594 C 82.101562 220.113281 82.085938 220.050781 82.023438 220.003906 C 82.050781 219.929688 82.035156 219.867188 81.976562 219.820312 C 81.867188 219.253906 81.761719 218.6875 81.652344 218.117188 C 81.503906 217.839844 81.503906 217.527344 81.460938 217.226562 C 81.492188 217.207031 81.519531 217.195312 81.550781 217.1875 C 81.597656 217.175781 81.644531 217.179688 81.695312 217.203125 C 81.6875 216.972656 81.699219 216.742188 81.585938 216.527344 C 81.546875 216.46875 81.515625 216.402344 81.511719 216.328125 C 81.535156 216.394531 81.558594 216.460938 81.585938 216.527344 C 81.597656 216.453125 81.601562 216.382812 81.53125 216.339844 C 81.585938 216.238281 81.578125 216.136719 81.523438 216.039062 C 81.5625 215.972656 81.5625 215.914062 81.503906 215.859375 C 81.527344 215.785156 81.527344 215.71875 81.472656 215.65625 C 81.488281 215.621094 81.492188 215.589844 81.472656 215.550781 C 81.503906 215.324219 81.488281 215.105469 81.417969 214.886719 C 81.433594 214.726562 81.453125 214.5625 81.382812 214.410156 C 81.429688 214.3125 81.398438 214.210938 81.378906 214.113281 C 81.4375 213.480469 81.375 212.839844 81.5625 212.183594 C 81.328125 212.226562 81.152344 212.039062 80.96875 212.199219 Z M 108.054688 242.09375 C 108.054688 242.09375 108.054688 242.09375 108.050781 242.089844 C 108.050781 242.09375 108.050781 242.09375 108.050781 242.09375 C 108.050781 242.09375 108.050781 242.089844 108.050781 242.089844 C 108.054688 242.089844 108.054688 242.089844 108.054688 242.085938 C 108.054688 242.089844 108.054688 242.089844 108.054688 242.09375 Z M 81.726562 220.316406 C 81.726562 220.332031 81.726562 220.347656 81.730469 220.363281 C 81.726562 220.359375 81.726562 220.355469 81.722656 220.351562 C 81.722656 220.339844 81.71875 220.328125 81.714844 220.3125 C 81.714844 220.3125 81.71875 220.316406 81.726562 220.316406 Z M 82.65625 222.164062 C 82.652344 222.167969 82.652344 222.164062 82.652344 222.167969 C 82.644531 222.167969 82.640625 222.171875 82.636719 222.171875 L 82.617188 222.171875 L 82.652344 222.164062 C 82.652344 222.164062 82.652344 222.164062 82.652344 222.160156 C 82.652344 222.164062 82.652344 222.164062 82.65625 222.164062 Z M 81.660156 220.292969 C 81.679688 220.300781 81.695312 220.304688 81.710938 220.3125 C 81.714844 220.324219 81.71875 220.335938 81.722656 220.347656 C 81.710938 220.324219 81.691406 220.304688 81.660156 220.292969 Z M 81.742188 220.429688 C 81.746094 220.445312 81.75 220.460938 81.75 220.472656 C 81.75 220.476562 81.75 220.476562 81.75 220.476562 C 81.746094 220.460938 81.746094 220.445312 81.742188 220.429688 Z M 80.480469 213.304688 C 80.476562 213.304688 80.476562 213.300781 80.476562 213.300781 C 80.476562 213.300781 80.476562 213.296875 80.476562 213.296875 C 80.476562 213.296875 80.476562 213.292969 80.476562 213.292969 C 80.480469 213.296875 80.480469 213.300781 80.480469 213.304688 Z M 80.453125 213.585938 C 80.453125 213.589844 80.449219 213.589844 80.453125 213.59375 C 80.453125 213.59375 80.453125 213.585938 80.453125 213.585938 Z M 81.433594 216.246094 C 81.421875 216.242188 81.40625 216.238281 81.390625 216.238281 C 81.394531 216.230469 81.398438 216.222656 81.402344 216.214844 C 81.414062 216.226562 81.425781 216.234375 81.433594 216.246094 Z M 81.445312 215.742188 C 81.4375 215.71875 81.441406 215.695312 81.453125 215.667969 C 81.453125 215.667969 81.453125 215.667969 81.453125 215.671875 C 81.445312 215.695312 81.441406 215.71875 81.445312 215.742188 Z M 81.445312 215.742188 " fill-opacity="1" fill-rule="nonzero"/></g></g></g></g><g clip-path="url(#db4d0e3063)"><g clip-path="url(#2e858df93a)"><g clip-path="url(#65d12edbe5)"><g clip-path="url(#14fbc9990a)"><path fill="#ffffff" d="M 82.214844 220.726562 C 82.230469 220.785156 82.25 220.84375 82.261719 220.902344 C 82.292969 220.832031 82.273438 220.773438 82.214844 220.726562 Z M 82.214844 220.726562 " fill-opacity="1" fill-rule="nonzero"/></g></g></g></g><g clip-path="url(#368a6c4cc4)"><g clip-path="url(#e4fa17cd20)"><g clip-path="url(#000afe9970)"><g clip-path="url(#f46c20990a)"><path fill="#ffffff" d="M 146.273438 122.148438 C 146.289062 122.109375 146.285156 122.070312 146.257812 122.039062 C 146.320312 121.90625 146.554688 121.933594 146.535156 121.730469 C 146.761719 121.339844 146.5625 121.054688 146.296875 120.789062 C 145.546875 120.050781 144.699219 119.449219 143.8125 118.898438 C 140.636719 116.9375 137.203125 115.730469 133.527344 115.125 C 127.113281 114.070312 121.105469 115.289062 115.378906 118.164062 C 112.726562 119.496094 110.355469 121.277344 108.066406 123.164062 C 106.722656 124.277344 105.449219 125.464844 104.144531 126.625 C 104.117188 126.6875 104.089844 126.75 104.0625 126.8125 C 103.988281 126.835938 103.910156 126.882812 103.84375 126.871094 C 103.84375 126.871094 103.84375 126.871094 103.839844 126.871094 C 103.789062 126.859375 103.800781 126.785156 103.847656 126.742188 C 103.980469 126.066406 104.25 125.441406 104.554688 124.832031 C 104.761719 124.414062 104.929688 123.992188 104.972656 123.523438 C 105.425781 122.628906 105.242188 121.847656 104.488281 121.328125 C 102.878906 122.503906 102.171875 124.234375 101.589844 126.054688 C 101.375 126.730469 101.113281 127.386719 100.863281 128.050781 C 100.261719 129.640625 100.4375 129.445312 101.296875 130.535156 C 101.488281 130.777344 101.730469 130.972656 101.992188 131.140625 C 102.089844 131.203125 102.183594 131.25 102.300781 131.21875 C 102.535156 131.484375 102.820312 131.414062 103.09375 131.328125 C 103.90625 131.078125 104.71875 130.820312 105.53125 130.5625 C 105.726562 130.613281 105.898438 130.535156 106.070312 130.449219 C 106.265625 130.507812 106.4375 130.425781 106.609375 130.355469 C 106.742188 130.417969 106.867188 130.347656 106.996094 130.332031 C 108.730469 130.125 110.464844 130.117188 112.195312 130.40625 C 112.328125 130.429688 112.457031 130.441406 112.589844 130.457031 C 112.746094 130.476562 112.921875 130.503906 112.996094 130.339844 C 113.054688 130.214844 112.984375 130.039062 112.886719 129.976562 C 112.457031 129.691406 112.273438 129.1875 111.882812 128.875 C 111.710938 128.738281 111.496094 128.679688 111.277344 128.628906 C 109.59375 128.207031 107.882812 128.097656 106.160156 128.167969 C 106.003906 128.171875 105.847656 128.203125 105.699219 128.175781 C 105.523438 128.148438 105.53125 128 105.578125 127.863281 C 105.753906 127.839844 105.855469 127.738281 105.894531 127.570312 C 106.046875 127.515625 106.191406 127.449219 106.226562 127.261719 C 106.273438 127.273438 106.292969 127.253906 106.292969 127.207031 C 106.441406 127.160156 106.574219 127.09375 106.613281 126.925781 C 106.710938 126.871094 106.8125 126.828125 106.894531 126.757812 C 107.804688 126 108.703125 125.226562 109.621094 124.476562 C 110.457031 123.796875 111.308594 123.144531 112.15625 122.480469 C 112.398438 122.332031 112.648438 122.195312 112.886719 122.039062 C 115.203125 120.53125 117.664062 119.328125 120.300781 118.5 C 121.242188 118.203125 122.191406 117.9375 123.140625 117.660156 C 123.347656 117.714844 123.523438 117.625 123.699219 117.535156 C 123.898438 117.59375 124.066406 117.511719 124.234375 117.429688 C 124.421875 117.496094 124.578125 117.40625 124.738281 117.34375 C 124.859375 117.398438 124.964844 117.367188 125.0625 117.296875 C 125.105469 117.316406 125.144531 117.308594 125.175781 117.269531 C 125.308594 117.332031 125.433594 117.265625 125.5625 117.253906 C 126.191406 117.195312 126.804688 117.027344 127.441406 117.050781 C 127.480469 116.984375 127.648438 116.914062 127.414062 116.878906 C 127.253906 116.855469 127.234375 116.816406 127.261719 116.769531 C 127.289062 116.730469 127.351562 116.6875 127.394531 116.648438 C 129.386719 116.53125 131.371094 116.664062 133.347656 116.925781 C 133.53125 116.96875 133.714844 117.007812 133.894531 117.050781 C 134.976562 117.296875 136.0625 117.546875 137.144531 117.792969 C 137.175781 117.828125 137.207031 117.847656 137.246094 117.855469 C 137.273438 117.859375 137.300781 117.855469 137.328125 117.847656 C 137.375 117.90625 137.4375 117.921875 137.507812 117.902344 C 137.554688 117.964844 137.613281 117.980469 137.6875 117.957031 C 137.734375 118.019531 137.792969 118.039062 137.867188 118.015625 C 137.914062 118.078125 137.972656 118.097656 138.046875 118.074219 C 138.089844 118.136719 138.148438 118.15625 138.222656 118.132812 C 138.265625 118.195312 138.324219 118.21875 138.398438 118.191406 L 138.402344 118.195312 C 138.457031 118.21875 138.515625 118.238281 138.574219 118.257812 L 138.578125 118.257812 C 138.621094 118.320312 138.679688 118.34375 138.75 118.320312 L 138.757812 118.324219 C 138.800781 118.386719 138.855469 118.40625 138.929688 118.382812 L 138.9375 118.386719 C 138.976562 118.453125 139.035156 118.472656 139.109375 118.449219 L 139.113281 118.453125 C 139.152344 118.515625 139.210938 118.539062 139.285156 118.515625 C 139.328125 118.582031 139.386719 118.605469 139.460938 118.582031 C 139.988281 118.820312 140.515625 119.0625 141.042969 119.300781 C 141.351562 119.335938 141.609375 119.515625 141.878906 119.65625 C 141.878906 119.691406 141.871094 119.722656 141.859375 119.75 C 141.839844 119.796875 141.8125 119.832031 141.765625 119.859375 C 141.957031 119.988281 142.140625 120.128906 142.378906 120.160156 C 142.453125 120.160156 142.523438 120.171875 142.585938 120.214844 C 142.519531 120.195312 142.449219 120.175781 142.378906 120.160156 C 142.433594 120.210938 142.488281 120.253906 142.566406 120.222656 C 142.617188 120.328125 142.703125 120.375 142.816406 120.390625 C 142.847656 120.460938 142.894531 120.492188 142.972656 120.476562 C 143.019531 120.535156 143.074219 120.578125 143.15625 120.566406 C 143.175781 120.601562 143.203125 120.621094 143.246094 120.628906 C 143.410156 120.785156 143.601562 120.898438 143.816406 120.96875 C 143.941406 121.070312 144.0625 121.179688 144.230469 121.210938 C 144.28125 121.308594 144.378906 121.339844 144.472656 121.378906 C 144.957031 121.792969 145.515625 122.113281 145.945312 122.640625 C 146.042969 122.421875 146.300781 122.386719 146.273438 122.148438 Z M 106.238281 127.089844 C 106.242188 127.085938 106.242188 127.085938 106.242188 127.085938 C 106.242188 127.085938 106.238281 127.085938 106.238281 127.085938 C 106.242188 127.085938 106.242188 127.085938 106.242188 127.085938 C 106.242188 127.089844 106.242188 127.089844 106.246094 127.09375 C 106.242188 127.089844 106.242188 127.089844 106.238281 127.089844 Z M 139.199219 118.09375 C 139.1875 118.085938 139.175781 118.078125 139.164062 118.070312 C 139.167969 118.070312 139.171875 118.070312 139.175781 118.074219 C 139.1875 118.078125 139.199219 118.082031 139.210938 118.085938 C 139.207031 118.085938 139.207031 118.089844 139.199219 118.09375 Z M 137.15625 117.789062 C 137.15625 117.785156 137.15625 117.785156 137.15625 117.785156 C 137.15625 117.78125 137.160156 117.773438 137.160156 117.769531 L 137.167969 117.753906 L 137.15625 117.785156 C 137.15625 117.789062 137.15625 117.789062 137.160156 117.789062 C 137.15625 117.789062 137.15625 117.789062 137.15625 117.789062 Z M 139.257812 118.050781 C 139.242188 118.0625 139.226562 118.074219 139.214844 118.082031 C 139.203125 118.078125 139.1875 118.074219 139.175781 118.070312 C 139.203125 118.078125 139.230469 118.070312 139.257812 118.050781 Z M 139.097656 118.039062 C 139.085938 118.035156 139.070312 118.027344 139.058594 118.023438 C 139.058594 118.019531 139.054688 118.023438 139.054688 118.019531 C 139.070312 118.027344 139.085938 118.035156 139.097656 118.039062 Z M 145.652344 121.109375 C 145.65625 121.109375 145.65625 121.109375 145.660156 121.109375 C 145.660156 121.109375 145.660156 121.113281 145.660156 121.113281 C 145.660156 121.113281 145.664062 121.113281 145.664062 121.117188 C 145.660156 121.117188 145.65625 121.113281 145.652344 121.109375 Z M 145.4375 120.929688 C 145.433594 120.925781 145.433594 120.921875 145.429688 120.921875 C 145.429688 120.921875 145.4375 120.925781 145.4375 120.929688 Z M 142.699219 120.199219 C 142.710938 120.191406 142.71875 120.179688 142.730469 120.167969 C 142.734375 120.175781 142.738281 120.183594 142.742188 120.191406 C 142.726562 120.191406 142.714844 120.195312 142.699219 120.199219 Z M 143.101562 120.496094 C 143.125 120.503906 143.144531 120.519531 143.160156 120.542969 C 143.160156 120.542969 143.160156 120.542969 143.15625 120.542969 C 143.140625 120.523438 143.125 120.507812 143.101562 120.496094 Z M 143.101562 120.496094 " fill-opacity="1" fill-rule="nonzero"/></g></g></g></g><g clip-path="url(#3428eb535a)"><g clip-path="url(#8df94fcd57)"><g clip-path="url(#b56545cc8a)"><g clip-path="url(#2549248ca2)"><path fill="#ffffff" d="M 138.585938 118.257812 C 138.527344 118.234375 138.46875 118.214844 138.414062 118.195312 C 138.453125 118.261719 138.511719 118.28125 138.585938 118.257812 Z M 138.585938 118.257812 " fill-opacity="1" fill-rule="nonzero"/></g></g></g></g><g clip-path="url(#f016da5d7f)"><g clip-path="url(#9283c772e2)"><g clip-path="url(#d04610bfbf)"><g clip-path="url(#960b9ec811)"><path fill="#ffffff" d="M 192.160156 221.492188 C 192.183594 221.527344 192.21875 221.542969 192.261719 221.542969 C 192.332031 221.667969 192.179688 221.84375 192.355469 221.945312 C 192.550781 222.355469 192.898438 222.351562 193.265625 222.285156 C 194.300781 222.089844 195.277344 221.734375 196.234375 221.320312 C 199.65625 219.832031 202.605469 217.699219 205.195312 215.023438 C 209.722656 210.351562 212.144531 204.722656 213.042969 198.378906 C 213.460938 195.4375 213.351562 192.476562 213.101562 189.519531 C 212.957031 187.78125 212.703125 186.054688 212.496094 184.324219 C 212.460938 184.265625 212.425781 184.207031 212.390625 184.148438 C 212.414062 184.074219 212.417969 183.984375 212.464844 183.9375 C 212.464844 183.9375 212.464844 183.9375 212.46875 183.933594 C 212.503906 183.898438 212.5625 183.953125 212.570312 184.015625 C 213.046875 184.507812 213.40625 185.085938 213.738281 185.683594 C 213.960938 186.089844 214.210938 186.472656 214.570312 186.773438 C 215.050781 187.65625 215.796875 187.949219 216.652344 187.625 C 216.601562 185.632812 215.585938 184.066406 214.421875 182.550781 C 213.988281 181.988281 213.597656 181.398438 213.191406 180.816406 C 212.230469 179.417969 212.289062 179.671875 210.90625 179.757812 C 210.597656 179.773438 210.300781 179.863281 210.011719 179.984375 C 209.90625 180.027344 209.8125 180.078125 209.773438 180.191406 C 209.421875 180.230469 209.316406 180.507812 209.230469 180.78125 C 208.972656 181.589844 208.722656 182.40625 208.472656 183.21875 C 208.316406 183.355469 208.28125 183.539062 208.257812 183.726562 C 208.097656 183.855469 208.066406 184.042969 208.027344 184.222656 C 207.898438 184.296875 207.882812 184.441406 207.824219 184.554688 C 207.007812 186.097656 206.023438 187.527344 204.796875 188.785156 C 204.707031 188.878906 204.621094 188.980469 204.535156 189.078125 C 204.429688 189.195312 204.308594 189.328125 204.398438 189.480469 C 204.46875 189.597656 204.652344 189.640625 204.761719 189.597656 C 205.238281 189.410156 205.757812 189.542969 206.234375 189.402344 C 206.449219 189.335938 206.617188 189.195312 206.785156 189.042969 C 208.089844 187.898438 209.152344 186.558594 210.082031 185.101562 C 210.164062 184.972656 210.226562 184.824219 210.335938 184.71875 C 210.460938 184.589844 210.574219 184.679688 210.660156 184.796875 C 210.582031 184.953125 210.605469 185.09375 210.722656 185.222656 C 210.679688 185.378906 210.648438 185.535156 210.785156 185.671875 C 210.753906 185.703125 210.753906 185.734375 210.789062 185.757812 C 210.746094 185.90625 210.726562 186.054688 210.84375 186.183594 C 210.832031 186.292969 210.808594 186.402344 210.820312 186.507812 C 210.925781 187.6875 211.046875 188.867188 211.140625 190.050781 C 211.222656 191.121094 211.273438 192.195312 211.335938 193.269531 C 211.316406 193.554688 211.289062 193.835938 211.28125 194.121094 C 211.203125 196.882812 210.785156 199.59375 209.964844 202.230469 C 209.667969 203.175781 209.347656 204.105469 209.035156 205.042969 C 208.871094 205.183594 208.847656 205.378906 208.816406 205.574219 C 208.65625 205.703125 208.628906 205.886719 208.601562 206.074219 C 208.441406 206.1875 208.425781 206.367188 208.382812 206.539062 C 208.269531 206.601562 208.238281 206.707031 208.238281 206.828125 C 208.195312 206.855469 208.183594 206.890625 208.195312 206.9375 C 208.070312 207.011719 208.050781 207.152344 207.988281 207.261719 C 207.675781 207.8125 207.464844 208.414062 207.082031 208.925781 C 207.113281 208.996094 207.078125 209.171875 207.242188 208.996094 C 207.351562 208.878906 207.394531 208.886719 207.417969 208.9375 C 207.433594 208.980469 207.433594 209.058594 207.441406 209.117188 C 206.398438 210.820312 205.160156 212.375 203.820312 213.847656 C 203.683594 213.972656 203.542969 214.101562 203.40625 214.226562 C 202.585938 214.976562 201.765625 215.726562 200.945312 216.476562 C 200.898438 216.476562 200.863281 216.496094 200.835938 216.523438 C 200.816406 216.542969 200.804688 216.566406 200.792969 216.59375 C 200.71875 216.597656 200.667969 216.640625 200.644531 216.707031 C 200.570312 216.714844 200.519531 216.753906 200.5 216.824219 C 200.421875 216.828125 200.371094 216.867188 200.351562 216.941406 C 200.273438 216.941406 200.222656 216.980469 200.199219 217.054688 C 200.121094 217.054688 200.070312 217.089844 200.050781 217.164062 L 200.046875 217.167969 C 199.972656 217.164062 199.921875 217.203125 199.902344 217.273438 L 199.898438 217.277344 C 199.847656 217.308594 199.796875 217.34375 199.75 217.382812 L 199.742188 217.386719 C 199.667969 217.386719 199.617188 217.417969 199.59375 217.492188 L 199.589844 217.496094 C 199.511719 217.496094 199.460938 217.53125 199.441406 217.601562 L 199.433594 217.605469 C 199.433594 217.605469 199.433594 217.609375 199.433594 217.609375 C 199.433594 217.609375 199.433594 217.605469 199.433594 217.605469 C 199.355469 217.601562 199.304688 217.636719 199.285156 217.710938 L 199.28125 217.714844 C 199.203125 217.710938 199.152344 217.746094 199.128906 217.820312 C 199.050781 217.820312 198.996094 217.855469 198.972656 217.925781 C 198.476562 218.222656 197.980469 218.519531 197.484375 218.816406 C 197.277344 219.050781 196.984375 219.160156 196.714844 219.304688 C 196.683594 219.28125 196.664062 219.257812 196.644531 219.230469 C 196.621094 219.191406 196.609375 219.144531 196.609375 219.089844 C 196.398438 219.175781 196.175781 219.246094 196.015625 219.425781 C 195.972656 219.484375 195.921875 219.535156 195.851562 219.5625 C 195.90625 219.519531 195.960938 219.472656 196.015625 219.425781 C 195.941406 219.441406 195.875 219.460938 195.855469 219.542969 C 195.742188 219.523438 195.652344 219.570312 195.578125 219.652344 C 195.503906 219.640625 195.445312 219.660156 195.417969 219.734375 C 195.339844 219.738281 195.273438 219.757812 195.238281 219.832031 C 195.199219 219.832031 195.164062 219.839844 195.136719 219.871094 C 194.914062 219.917969 194.710938 220.007812 194.53125 220.148438 C 194.375 220.191406 194.214844 220.226562 194.097656 220.347656 C 193.988281 220.335938 193.90625 220.398438 193.820312 220.449219 C 193.203125 220.613281 192.625 220.890625 191.945312 220.941406 C 192.066406 221.148438 191.949219 221.375 192.160156 221.492188 Z M 210.921875 185.78125 C 210.921875 185.78125 210.921875 185.78125 210.921875 185.785156 C 210.921875 185.785156 210.917969 185.785156 210.917969 185.785156 C 210.917969 185.785156 210.921875 185.785156 210.921875 185.785156 C 210.917969 185.785156 210.917969 185.785156 210.914062 185.785156 C 210.917969 185.78125 210.917969 185.78125 210.921875 185.78125 Z M 199.523438 217.992188 C 199.539062 217.984375 199.550781 217.980469 199.566406 217.972656 C 199.5625 217.976562 199.558594 217.980469 199.558594 217.980469 C 199.546875 217.988281 199.535156 217.996094 199.523438 218.003906 C 199.527344 218 199.523438 217.996094 199.523438 217.992188 Z M 200.941406 216.484375 C 200.941406 216.484375 200.941406 216.488281 200.945312 216.488281 C 200.945312 216.492188 200.949219 216.496094 200.953125 216.5 L 200.960938 216.515625 L 200.941406 216.488281 C 200.941406 216.484375 200.941406 216.488281 200.9375 216.488281 C 200.941406 216.488281 200.941406 216.484375 200.941406 216.484375 Z M 199.527344 218.0625 C 199.527344 218.042969 199.523438 218.023438 199.523438 218.007812 C 199.535156 218 199.546875 217.992188 199.554688 217.984375 C 199.535156 218.003906 199.523438 218.03125 199.527344 218.0625 Z M 199.628906 217.9375 C 199.640625 217.929688 199.652344 217.921875 199.664062 217.914062 C 199.664062 217.914062 199.667969 217.914062 199.667969 217.914062 C 199.652344 217.921875 199.640625 217.929688 199.628906 217.9375 Z M 193.367188 221.574219 C 193.367188 221.574219 193.367188 221.578125 193.363281 221.578125 C 193.359375 221.578125 193.359375 221.578125 193.355469 221.578125 C 193.359375 221.578125 193.363281 221.574219 193.367188 221.574219 Z M 193.640625 221.5 C 193.644531 221.5 193.648438 221.503906 193.652344 221.5 C 193.648438 221.5 193.644531 221.5 193.640625 221.5 Z M 195.800781 219.667969 C 195.800781 219.679688 195.804688 219.695312 195.808594 219.710938 C 195.800781 219.707031 195.792969 219.707031 195.785156 219.703125 C 195.789062 219.691406 195.792969 219.679688 195.800781 219.667969 Z M 195.328125 219.828125 C 195.308594 219.84375 195.28125 219.847656 195.253906 219.847656 C 195.253906 219.847656 195.253906 219.847656 195.253906 219.84375 C 195.28125 219.84375 195.304688 219.839844 195.328125 219.828125 Z M 195.328125 219.828125 " fill-opacity="1" fill-rule="nonzero"/></g></g></g></g><g clip-path="url(#89dfcf316a)"><g clip-path="url(#83da98e5f2)"><g clip-path="url(#bf4156d60e)"><g clip-path="url(#ee302b88d0)"><path fill="#ffffff" d="M 199.742188 217.390625 C 199.792969 217.355469 199.839844 217.320312 199.890625 217.285156 C 199.8125 217.285156 199.765625 217.320312 199.742188 217.390625 Z M 199.742188 217.390625 " fill-opacity="1" fill-rule="nonzero"/></g></g></g></g><path stroke-linecap="butt" transform="matrix(0.74987, 0.00605191, -0.00605275, 0.749976, 136.490312, 77.86835)" fill="none" stroke-linejoin="miter" d="M -0.00220425 1.998534 L 223.03636 2.000873 " stroke="#000000" stroke-width="4" stroke-opacity="1" stroke-miterlimit="4"/><path stroke-linecap="butt" transform="matrix(0.750617, -0.00364086, 0.00363783, 0.749991, 135.126205, 291.168461)" fill="none" stroke-linejoin="miter" d="M -0.000887049 1.999363 L 224.814281 2.002183 " stroke="#000000" stroke-width="4" stroke-opacity="1" stroke-miterlimit="4"/><g clip-path="url(#91d9cd4043)"><path fill="#5ce1e6" d="M 294.695312 306.992188 L 286.203125 297.5 C 286.019531 297.296875 285.765625 297.183594 285.5 297.183594 L 279.835938 297.183594 C 279.464844 297.183594 279.128906 297.402344 278.972656 297.746094 C 278.824219 298.089844 278.886719 298.488281 279.136719 298.765625 L 287.058594 307.628906 L 279.136719 316.484375 C 278.886719 316.765625 278.820312 317.164062 278.972656 317.507812 C 279.128906 317.851562 279.464844 318.070312 279.835938 318.070312 L 285.5 318.070312 C 285.765625 318.070312 286.019531 317.953125 286.203125 317.757812 L 294.695312 308.261719 C 295.015625 307.902344 295.015625 307.351562 294.695312 306.992188 Z M 294.695312 306.992188 " fill-opacity="1" fill-rule="nonzero"/></g><g clip-path="url(#01b86d1831)"><path fill="#5ce1e6" d="M 282.425781 306.992188 L 273.933594 297.5 C 273.75 297.296875 273.5 297.183594 273.230469 297.183594 L 267.570312 297.183594 C 267.195312 297.183594 266.859375 297.402344 266.707031 297.746094 C 266.554688 298.089844 266.617188 298.488281 266.867188 298.765625 L 274.792969 307.628906 L 266.867188 316.484375 C 266.617188 316.765625 266.554688 317.164062 266.707031 317.507812 C 266.859375 317.851562 267.195312 318.070312 267.570312 318.070312 L 273.230469 318.070312 C 273.5 318.070312 273.75 317.953125 273.933594 317.757812 L 282.425781 308.261719 C 282.75 307.902344 282.75 307.351562 282.425781 306.992188 Z M 282.425781 306.992188 " fill-opacity="1" fill-rule="nonzero"/></g><g clip-path="url(#a5b2ccc5e9)"><path fill="#38b6ff" d="M 257.570312 306.992188 L 249.078125 297.5 C 248.894531 297.296875 248.640625 297.183594 248.375 297.183594 L 242.710938 297.183594 C 242.339844 297.183594 242.003906 297.402344 241.847656 297.746094 C 241.699219 298.089844 241.761719 298.488281 242.007812 298.765625 L 249.933594 307.628906 L 242.007812 316.484375 C 241.761719 316.765625 241.695312 317.164062 241.847656 317.507812 C 242.003906 317.851562 242.339844 318.070312 242.710938 318.070312 L 248.375 318.070312 C 248.640625 318.070312 248.894531 317.953125 249.078125 317.757812 L 257.570312 308.261719 C 257.890625 307.902344 257.890625 307.351562 257.570312 306.992188 Z M 257.570312 306.992188 " fill-opacity="1" fill-rule="nonzero"/></g><g clip-path="url(#9c576354cf)"><path fill="#38b6ff" d="M 245.300781 306.992188 L 236.808594 297.5 C 236.625 297.296875 236.375 297.183594 236.105469 297.183594 L 230.445312 297.183594 C 230.070312 297.183594 229.734375 297.402344 229.582031 297.746094 C 229.429688 298.089844 229.492188 298.488281 229.742188 298.765625 L 237.667969 307.628906 L 229.742188 316.484375 C 229.492188 316.765625 229.429688 317.164062 229.582031 317.507812 C 229.734375 317.851562 230.070312 318.070312 230.445312 318.070312 L 236.105469 318.070312 C 236.375 318.070312 236.625 317.953125 236.808594 317.757812 L 245.300781 308.261719 C 245.625 307.902344 245.625 307.351562 245.300781 306.992188 Z M 245.300781 306.992188 " fill-opacity="1" fill-rule="nonzero"/></g><g clip-path="url(#243621b6a8)"><path fill="#38b6ff" d="M 220.445312 306.992188 L 211.953125 297.5 C 211.769531 297.296875 211.515625 297.183594 211.25 297.183594 L 205.585938 297.183594 C 205.214844 297.183594 204.878906 297.402344 204.722656 297.746094 C 204.574219 298.089844 204.636719 298.488281 204.886719 298.765625 L 212.808594 307.628906 L 204.886719 316.484375 C 204.636719 316.765625 204.570312 317.164062 204.722656 317.507812 C 204.878906 317.851562 205.214844 318.070312 205.585938 318.070312 L 211.25 318.070312 C 211.515625 318.070312 211.769531 317.953125 211.953125 317.757812 L 220.445312 308.261719 C 220.765625 307.902344 220.765625 307.351562 220.445312 306.992188 Z M 220.445312 306.992188 " fill-opacity="1" fill-rule="nonzero"/></g><g clip-path="url(#87f5338b3a)"><path fill="#38b6ff" d="M 208.175781 306.992188 L 199.683594 297.5 C 199.5 297.296875 199.25 297.183594 198.980469 297.183594 L 193.320312 297.183594 C 192.945312 297.183594 192.609375 297.402344 192.457031 297.746094 C 192.304688 298.089844 192.367188 298.488281 192.617188 298.765625 L 200.542969 307.628906 L 192.617188 316.484375 C 192.367188 316.765625 192.304688 317.164062 192.457031 317.507812 C 192.609375 317.851562 192.945312 318.070312 193.320312 318.070312 L 198.980469 318.070312 C 199.25 318.070312 199.5 317.953125 199.683594 317.757812 L 208.175781 308.261719 C 208.5 307.902344 208.5 307.351562 208.175781 306.992188 Z M 208.175781 306.992188 " fill-opacity="1" fill-rule="nonzero"/></g><g clip-path="url(#cf1e54ffe0)"><path fill="#38b6ff" d="M 183.320312 306.992188 L 174.828125 297.5 C 174.644531 297.296875 174.390625 297.183594 174.125 297.183594 L 168.460938 297.183594 C 168.089844 297.183594 167.753906 297.402344 167.597656 297.746094 C 167.449219 298.089844 167.511719 298.488281 167.761719 298.765625 L 175.683594 307.628906 L 167.761719 316.484375 C 167.511719 316.765625 167.445312 317.164062 167.597656 317.507812 C 167.753906 317.851562 168.089844 318.070312 168.460938 318.070312 L 174.125 318.070312 C 174.390625 318.070312 174.644531 317.953125 174.828125 317.757812 L 183.320312 308.261719 C 183.640625 307.902344 183.640625 307.351562 183.320312 306.992188 Z M 183.320312 306.992188 " fill-opacity="1" fill-rule="nonzero"/></g><g clip-path="url(#fdb8fb23ac)"><path fill="#38b6ff" d="M 171.050781 306.992188 L 162.558594 297.5 C 162.375 297.296875 162.125 297.183594 161.855469 297.183594 L 156.195312 297.183594 C 155.820312 297.183594 155.484375 297.402344 155.332031 297.746094 C 155.179688 298.089844 155.242188 298.488281 155.492188 298.765625 L 163.417969 307.628906 L 155.492188 316.484375 C 155.242188 316.765625 155.179688 317.164062 155.332031 317.507812 C 155.484375 317.851562 155.820312 318.070312 156.195312 318.070312 L 161.855469 318.070312 C 162.125 318.070312 162.375 317.953125 162.558594 317.757812 L 171.050781 308.261719 C 171.375 307.902344 171.375 307.351562 171.050781 306.992188 Z M 171.050781 306.992188 " fill-opacity="1" fill-rule="nonzero"/></g><g clip-path="url(#dbf4488cc7)"><g clip-path="url(#62430a201e)"><g clip-path="url(#92044836ad)"><path fill="#5ce1e6" d="M 146.183594 306.746094 L 137.523438 297.402344 C 137.339844 297.207031 137.085938 297.097656 136.816406 297.101562 L 131.15625 297.199219 C 130.785156 297.207031 130.449219 297.433594 130.304688 297.777344 C 130.160156 298.125 130.226562 298.523438 130.480469 298.796875 L 138.5625 307.515625 L 130.792969 316.511719 C 130.550781 316.796875 130.492188 317.195312 130.652344 317.535156 C 130.8125 317.875 131.152344 318.089844 131.523438 318.085938 L 137.1875 317.984375 C 137.453125 317.980469 137.703125 317.859375 137.882812 317.660156 L 146.207031 308.015625 C 146.523438 307.648438 146.511719 307.097656 146.183594 306.746094 Z M 146.183594 306.746094 " fill-opacity="1" fill-rule="nonzero"/></g></g></g><g clip-path="url(#087dbe0b8e)"><g clip-path="url(#d2f4911467)"><g clip-path="url(#7d7c7afe26)"><path fill="#5ce1e6" d="M 133.917969 306.960938 L 125.257812 297.621094 C 125.074219 297.421875 124.820312 297.3125 124.550781 297.316406 L 118.890625 297.417969 C 118.519531 297.425781 118.183594 297.648438 118.035156 297.996094 C 117.890625 298.339844 117.960938 298.742188 118.214844 299.011719 L 126.296875 307.730469 L 118.527344 316.726562 C 118.285156 317.011719 118.226562 317.414062 118.386719 317.753906 C 118.546875 318.09375 118.886719 318.308594 119.257812 318.300781 L 124.921875 318.203125 C 125.1875 318.195312 125.4375 318.078125 125.617188 317.875 L 133.941406 308.234375 C 134.257812 307.867188 134.246094 307.316406 133.917969 306.960938 Z M 133.917969 306.960938 " fill-opacity="1" fill-rule="nonzero"/></g></g></g><g clip-path="url(#e868d3a652)"><g clip-path="url(#e7e9f15622)"><g clip-path="url(#811b34610c)"><path fill="#38b6ff" d="M 99.40625 301.191406 L 97.382812 288.617188 C 97.335938 288.347656 97.1875 288.117188 96.960938 287.972656 L 92.195312 284.914062 C 91.882812 284.714844 91.476562 284.71875 91.164062 284.921875 C 90.851562 285.128906 90.6875 285.5 90.75 285.867188 L 92.636719 297.605469 L 81.183594 300.78125 C 80.824219 300.882812 80.550781 301.183594 80.496094 301.554688 C 80.441406 301.925781 80.605469 302.296875 80.917969 302.496094 L 85.683594 305.554688 C 85.910156 305.699219 86.183594 305.738281 86.445312 305.667969 L 98.71875 302.261719 C 99.1875 302.132812 99.484375 301.667969 99.40625 301.191406 Z M 99.40625 301.191406 " fill-opacity="1" fill-rule="nonzero"/></g></g></g><g clip-path="url(#1f48305afc)"><g clip-path="url(#b85320e817)"><g clip-path="url(#bbb3af4caa)"><path fill="#38b6ff" d="M 89.078125 294.570312 L 87.054688 281.992188 C 87.011719 281.726562 86.859375 281.492188 86.632812 281.347656 L 81.867188 278.292969 C 81.554688 278.089844 81.152344 278.09375 80.839844 278.296875 C 80.527344 278.507812 80.363281 278.878906 80.421875 279.246094 L 82.308594 290.980469 L 70.855469 294.160156 C 70.496094 294.257812 70.226562 294.5625 70.167969 294.933594 C 70.113281 295.304688 70.277344 295.671875 70.589844 295.871094 L 75.359375 298.929688 C 75.582031 299.074219 75.859375 299.113281 76.117188 299.046875 L 88.394531 295.640625 C 88.859375 295.507812 89.15625 295.046875 89.078125 294.570312 Z M 89.078125 294.570312 " fill-opacity="1" fill-rule="nonzero"/></g></g></g><g clip-path="url(#1928769abe)"><g clip-path="url(#182692802b)"><g clip-path="url(#ae4ae38820)"><path fill="#38b6ff" d="M 61.433594 282.320312 L 61.902344 269.589844 C 61.910156 269.316406 61.808594 269.0625 61.613281 268.875 L 57.535156 264.945312 C 57.269531 264.6875 56.871094 264.613281 56.523438 264.753906 C 56.175781 264.894531 55.945312 265.226562 55.929688 265.601562 L 55.492188 277.480469 L 43.640625 278.363281 C 43.265625 278.390625 42.941406 278.632812 42.816406 278.988281 C 42.6875 279.339844 42.777344 279.734375 43.046875 279.992188 L 47.125 283.917969 C 47.316406 284.105469 47.582031 284.195312 47.847656 284.179688 L 60.550781 283.234375 C 61.035156 283.199219 61.414062 282.800781 61.433594 282.320312 Z M 61.433594 282.320312 " fill-opacity="1" fill-rule="nonzero"/></g></g></g><g clip-path="url(#1d633c5ec6)"><g clip-path="url(#366a881977)"><g clip-path="url(#11fda032bc)"><path fill="#38b6ff" d="M 52.597656 273.808594 L 53.066406 261.078125 C 53.074219 260.808594 52.96875 260.550781 52.777344 260.363281 L 48.699219 256.4375 C 48.429688 256.179688 48.035156 256.101562 47.6875 256.242188 C 47.339844 256.386719 47.109375 256.71875 47.09375 257.089844 L 46.65625 268.96875 L 34.804688 269.851562 C 34.429688 269.878906 34.105469 270.125 33.980469 270.476562 C 33.851562 270.828125 33.941406 271.222656 34.210938 271.480469 L 38.289062 275.410156 C 38.480469 275.59375 38.742188 275.6875 39.011719 275.671875 L 51.714844 274.722656 C 52.199219 274.6875 52.578125 274.292969 52.597656 273.808594 Z M 52.597656 273.808594 " fill-opacity="1" fill-rule="nonzero"/></g></g></g><g clip-path="url(#55aef1e733)"><g clip-path="url(#cc60e4c875)"><g clip-path="url(#0fce1aeedd)"><path fill="#38b6ff" d="M 36.792969 250.25 L 40.734375 238.136719 C 40.816406 237.878906 40.789062 237.601562 40.652344 237.371094 L 37.808594 232.476562 C 37.621094 232.15625 37.261719 231.972656 36.890625 232.011719 C 36.515625 232.054688 36.199219 232.308594 36.085938 232.664062 L 32.410156 243.96875 L 20.769531 241.570312 C 20.402344 241.492188 20.023438 241.640625 19.804688 241.945312 C 19.585938 242.25 19.5625 242.652344 19.75 242.972656 L 22.597656 247.867188 C 22.730469 248.101562 22.957031 248.261719 23.21875 248.316406 L 35.695312 250.890625 C 36.171875 250.988281 36.648438 250.710938 36.792969 250.25 Z M 36.792969 250.25 " fill-opacity="1" fill-rule="nonzero"/></g></g></g><g clip-path="url(#7d76f79e12)"><g clip-path="url(#4d98caf117)"><g clip-path="url(#c234c8bb06)"><path fill="#38b6ff" d="M 30.628906 239.644531 L 34.570312 227.53125 C 34.652344 227.273438 34.625 226.996094 34.488281 226.765625 L 31.644531 221.871094 C 31.457031 221.546875 31.097656 221.367188 30.722656 221.40625 C 30.351562 221.449219 30.035156 221.703125 29.921875 222.058594 L 26.246094 233.363281 L 14.601562 230.960938 C 14.238281 230.886719 13.859375 231.035156 13.640625 231.335938 C 13.417969 231.640625 13.398438 232.042969 13.585938 232.367188 L 16.429688 237.261719 C 16.566406 237.492188 16.792969 237.652344 17.054688 237.710938 L 29.53125 240.28125 C 30.003906 240.378906 30.480469 240.105469 30.628906 239.644531 Z M 30.628906 239.644531 " fill-opacity="1" fill-rule="nonzero"/></g></g></g><g clip-path="url(#404128d7fe)"><path fill="#5ce1e6" d="M 20.015625 200.003906 L 29.507812 191.511719 C 29.710938 191.332031 29.824219 191.078125 29.824219 190.808594 L 29.824219 185.148438 C 29.824219 184.777344 29.605469 184.4375 29.261719 184.285156 C 28.917969 184.132812 28.515625 184.195312 28.242188 184.445312 L 19.378906 192.371094 L 10.523438 184.445312 C 10.242188 184.195312 9.84375 184.132812 9.5 184.285156 C 9.15625 184.4375 8.9375 184.777344 8.9375 185.148438 L 8.9375 190.808594 C 8.9375 191.078125 9.050781 191.332031 9.25 191.511719 L 18.746094 200.003906 C 19.105469 200.328125 19.65625 200.328125 20.015625 200.003906 Z M 20.015625 200.003906 " fill-opacity="1" fill-rule="nonzero"/></g><g clip-path="url(#f0a227d416)"><path fill="#5ce1e6" d="M 20.015625 187.738281 L 29.507812 179.242188 C 29.710938 179.0625 29.824219 178.808594 29.824219 178.542969 L 29.824219 172.878906 C 29.824219 172.507812 29.605469 172.171875 29.261719 172.015625 C 28.917969 171.867188 28.515625 171.929688 28.242188 172.175781 L 19.378906 180.101562 L 10.523438 172.175781 C 10.242188 171.929688 9.84375 171.863281 9.5 172.015625 C 9.15625 172.171875 8.9375 172.507812 8.9375 172.878906 L 8.9375 178.542969 C 8.9375 178.808594 9.050781 179.0625 9.25 179.242188 L 18.746094 187.738281 C 19.105469 188.058594 19.65625 188.058594 20.015625 187.738281 Z M 20.015625 187.738281 " fill-opacity="1" fill-rule="nonzero"/></g><g clip-path="url(#5f3c2edf50)"><g clip-path="url(#f72d7c4ed7)"><g clip-path="url(#6fb2396a3b)"><path fill="#38b6ff" d="M 22.28125 145.097656 L 34.921875 143.527344 C 35.191406 143.492188 35.429688 143.347656 35.582031 143.128906 L 38.808594 138.476562 C 39.019531 138.167969 39.03125 137.765625 38.835938 137.445312 C 38.640625 137.125 38.273438 136.949219 37.90625 136.996094 L 26.109375 138.460938 L 23.34375 126.902344 C 23.253906 126.539062 22.960938 126.257812 22.59375 126.191406 C 22.226562 126.121094 21.851562 126.273438 21.640625 126.578125 L 18.414062 131.230469 C 18.261719 131.453125 18.210938 131.726562 18.273438 131.988281 L 21.238281 144.375 C 21.351562 144.847656 21.800781 145.160156 22.28125 145.097656 Z M 22.28125 145.097656 " fill-opacity="1" fill-rule="nonzero"/></g></g></g><g clip-path="url(#b7c6f47172)"><g clip-path="url(#73b7b9d8ea)"><g clip-path="url(#94a94c09d5)"><path fill="#38b6ff" d="M 29.269531 135.015625 L 41.910156 133.441406 C 42.179688 133.410156 42.417969 133.265625 42.570312 133.046875 L 45.792969 128.390625 C 46.007812 128.085938 46.019531 127.683594 45.824219 127.363281 C 45.628906 127.042969 45.261719 126.867188 44.894531 126.914062 L 33.097656 128.378906 L 30.332031 116.820312 C 30.242188 116.457031 29.949219 116.175781 29.582031 116.105469 C 29.210938 116.035156 28.839844 116.1875 28.628906 116.492188 L 25.402344 121.148438 C 25.25 121.367188 25.199219 121.640625 25.261719 121.902344 L 28.226562 134.292969 C 28.335938 134.761719 28.789062 135.078125 29.269531 135.015625 Z M 29.269531 135.015625 " fill-opacity="1" fill-rule="nonzero"/></g></g></g><g clip-path="url(#60be15aef6)"><g clip-path="url(#9f1bbeb75b)"><g clip-path="url(#8f2decb2f4)"><path fill="#38b6ff" d="M 45.109375 108.90625 L 57.78125 110.222656 C 58.050781 110.25 58.3125 110.164062 58.511719 109.984375 L 62.703125 106.175781 C 62.976562 105.925781 63.078125 105.535156 62.960938 105.179688 C 62.84375 104.824219 62.527344 104.570312 62.15625 104.53125 L 50.332031 103.304688 L 50.242188 91.417969 C 50.238281 91.042969 50.015625 90.703125 49.675781 90.554688 C 49.332031 90.402344 48.933594 90.46875 48.65625 90.71875 L 44.464844 94.523438 C 44.265625 94.707031 44.160156 94.960938 44.15625 95.230469 L 44.253906 107.96875 C 44.257812 108.453125 44.628906 108.859375 45.109375 108.90625 Z M 45.109375 108.90625 " fill-opacity="1" fill-rule="nonzero"/></g></g></g><g clip-path="url(#e4f5191a5e)"><g clip-path="url(#223160c6e5)"><g clip-path="url(#223b548dd0)"><path fill="#38b6ff" d="M 54.1875 100.65625 L 66.859375 101.972656 C 67.128906 102 67.394531 101.914062 67.589844 101.734375 L 71.78125 97.925781 C 72.058594 97.675781 72.160156 97.285156 72.042969 96.929688 C 71.921875 96.574219 71.609375 96.320312 71.238281 96.28125 L 59.414062 95.054688 L 59.324219 83.167969 C 59.320312 82.792969 59.097656 82.457031 58.753906 82.304688 C 58.410156 82.152344 58.011719 82.21875 57.738281 82.46875 L 53.546875 86.273438 C 53.347656 86.457031 53.238281 86.710938 53.238281 86.980469 L 53.335938 99.71875 C 53.339844 100.203125 53.710938 100.609375 54.1875 100.65625 Z M 54.1875 100.65625 " fill-opacity="1" fill-rule="nonzero"/></g></g></g><g clip-path="url(#f25e0c6b0e)"><g clip-path="url(#6ece44dd1d)"><g clip-path="url(#f4a201eae9)"><path fill="#38b6ff" d="M 75.378906 84.589844 L 87.1875 89.363281 C 87.441406 89.460938 87.71875 89.453125 87.957031 89.335938 L 93.039062 86.835938 C 93.371094 86.671875 93.578125 86.328125 93.566406 85.953125 C 93.550781 85.578125 93.316406 85.246094 92.96875 85.105469 L 81.949219 80.652344 L 85.152344 69.207031 C 85.253906 68.84375 85.136719 68.457031 84.847656 68.21875 C 84.558594 67.976562 84.160156 67.929688 83.824219 68.09375 L 78.742188 70.589844 C 78.503906 70.707031 78.328125 70.925781 78.25 71.179688 L 74.816406 83.449219 C 74.6875 83.914062 74.929688 84.410156 75.378906 84.589844 Z M 75.378906 84.589844 " fill-opacity="1" fill-rule="nonzero"/></g></g></g><g clip-path="url(#73aae713d6)"><g clip-path="url(#5904a6fd68)"><g clip-path="url(#cbbdc9b3dd)"><path fill="#38b6ff" d="M 86.386719 79.175781 L 98.199219 83.949219 C 98.449219 84.050781 98.726562 84.042969 98.96875 83.921875 L 104.050781 81.425781 C 104.382812 81.261719 104.589844 80.914062 104.574219 80.539062 C 104.558594 80.164062 104.328125 79.832031 103.980469 79.695312 L 92.960938 75.238281 L 96.164062 63.792969 C 96.265625 63.433594 96.144531 63.046875 95.859375 62.804688 C 95.570312 62.566406 95.167969 62.515625 94.835938 62.679688 L 89.753906 65.179688 C 89.511719 65.296875 89.335938 65.511719 89.261719 65.769531 L 85.828125 78.035156 C 85.695312 78.503906 85.941406 78.996094 86.386719 79.175781 Z M 86.386719 79.175781 " fill-opacity="1" fill-rule="nonzero"/></g></g></g><g clip-path="url(#07d877907a)"><path fill="#5ce1e6" d="M 118.214844 68.148438 L 126.707031 77.640625 C 126.890625 77.84375 127.144531 77.957031 127.410156 77.957031 L 133.074219 77.957031 C 133.445312 77.957031 133.78125 77.738281 133.9375 77.394531 C 134.085938 77.050781 134.023438 76.652344 133.773438 76.375 L 125.851562 67.515625 L 133.773438 58.65625 C 134.023438 58.375 134.089844 57.976562 133.9375 57.632812 C 133.78125 57.289062 133.445312 57.070312 133.074219 57.070312 L 127.410156 57.070312 C 127.144531 57.070312 126.890625 57.1875 126.707031 57.382812 L 118.214844 66.878906 C 117.894531 67.238281 117.894531 67.789062 118.214844 68.148438 Z M 118.214844 68.148438 " fill-opacity="1" fill-rule="nonzero"/></g><g clip-path="url(#5f5470a930)"><path fill="#5ce1e6" d="M 130.484375 68.148438 L 138.976562 77.640625 C 139.160156 77.84375 139.410156 77.957031 139.679688 77.957031 L 145.339844 77.957031 C 145.714844 77.957031 146.050781 77.738281 146.203125 77.394531 C 146.355469 77.050781 146.292969 76.652344 146.042969 76.375 L 138.117188 67.515625 L 146.042969 58.65625 C 146.292969 58.375 146.355469 57.976562 146.203125 57.632812 C 146.050781 57.289062 145.714844 57.070312 145.339844 57.070312 L 139.679688 57.070312 C 139.410156 57.070312 139.160156 57.1875 138.976562 57.382812 L 130.484375 66.878906 C 130.160156 67.238281 130.160156 67.789062 130.484375 68.148438 Z M 130.484375 68.148438 " fill-opacity="1" fill-rule="nonzero"/></g><g clip-path="url(#aab20dc9f7)"><g clip-path="url(#e4a73a6682)"><g clip-path="url(#5564dd00b9)"><path fill="#38b6ff" d="M 154.75 67.308594 L 162.957031 77.054688 C 163.128906 77.257812 163.378906 77.382812 163.648438 77.390625 L 169.308594 77.558594 C 169.679688 77.570312 170.023438 77.359375 170.1875 77.023438 C 170.347656 76.683594 170.296875 76.28125 170.058594 75.996094 L 162.402344 66.902344 L 170.589844 58.289062 C 170.847656 58.015625 170.925781 57.617188 170.78125 57.273438 C 170.640625 56.921875 170.308594 56.691406 169.9375 56.683594 L 164.277344 56.511719 C 164.007812 56.503906 163.753906 56.613281 163.566406 56.804688 L 154.789062 66.039062 C 154.457031 66.386719 154.441406 66.9375 154.75 67.308594 Z M 154.75 67.308594 " fill-opacity="1" fill-rule="nonzero"/></g></g></g><g clip-path="url(#2748d0f72a)"><g clip-path="url(#95177f8811)"><g clip-path="url(#5089b446ca)"><path fill="#38b6ff" d="M 167.015625 67.675781 L 175.21875 77.421875 C 175.394531 77.628906 175.640625 77.75 175.910156 77.757812 L 181.570312 77.929688 C 181.941406 77.941406 182.285156 77.730469 182.449219 77.394531 C 182.609375 77.054688 182.558594 76.652344 182.320312 76.367188 L 174.664062 67.273438 L 182.851562 58.65625 C 183.109375 58.386719 183.1875 57.988281 183.042969 57.640625 C 182.902344 57.292969 182.570312 57.0625 182.199219 57.050781 L 176.539062 56.878906 C 176.269531 56.871094 176.015625 56.980469 175.828125 57.171875 L 167.050781 66.40625 C 166.71875 66.757812 166.703125 67.308594 167.015625 67.675781 Z M 167.015625 67.675781 " fill-opacity="1" fill-rule="nonzero"/></g></g></g><g clip-path="url(#70987b708a)"><g clip-path="url(#7e85df409b)"><g clip-path="url(#065f075612)"><path fill="#5ce1e6" d="M 266.402344 67.308594 L 274.609375 77.054688 C 274.78125 77.257812 275.03125 77.382812 275.300781 77.390625 L 280.960938 77.558594 C 281.332031 77.570312 281.675781 77.359375 281.839844 77.023438 C 282 76.683594 281.949219 76.28125 281.710938 75.996094 L 274.054688 66.902344 L 282.242188 58.289062 C 282.5 58.015625 282.578125 57.617188 282.433594 57.273438 C 282.292969 56.921875 281.960938 56.691406 281.589844 56.683594 L 275.929688 56.511719 C 275.660156 56.503906 275.40625 56.613281 275.21875 56.804688 L 266.441406 66.039062 C 266.109375 66.386719 266.09375 66.9375 266.402344 67.308594 Z M 266.402344 67.308594 " fill-opacity="1" fill-rule="nonzero"/></g></g></g><g clip-path="url(#9ad8711a82)"><g clip-path="url(#9150faa6ed)"><g clip-path="url(#6604147d79)"><path fill="#5ce1e6" d="M 278.667969 67.675781 L 286.871094 77.421875 C 287.046875 77.628906 287.292969 77.75 287.5625 77.757812 L 293.222656 77.929688 C 293.59375 77.941406 293.9375 77.730469 294.101562 77.394531 C 294.261719 77.054688 294.210938 76.652344 293.972656 76.367188 L 286.316406 67.273438 L 294.503906 58.65625 C 294.761719 58.386719 294.839844 57.988281 294.695312 57.640625 C 294.554688 57.292969 294.222656 57.0625 293.851562 57.050781 L 288.191406 56.878906 C 287.921875 56.871094 287.667969 56.980469 287.480469 57.171875 L 278.703125 66.40625 C 278.371094 66.757812 278.355469 67.308594 278.667969 67.675781 Z M 278.667969 67.675781 " fill-opacity="1" fill-rule="nonzero"/></g></g></g><g clip-path="url(#e011c4e7dd)"><g clip-path="url(#ade0893baa)"><g clip-path="url(#7820374f50)"><path fill="#38b6ff" d="M 229.277344 67.308594 L 237.484375 77.054688 C 237.65625 77.257812 237.90625 77.382812 238.175781 77.390625 L 243.835938 77.558594 C 244.207031 77.570312 244.550781 77.359375 244.714844 77.023438 C 244.875 76.683594 244.824219 76.28125 244.585938 75.996094 L 236.929688 66.902344 L 245.117188 58.289062 C 245.375 58.015625 245.453125 57.617188 245.308594 57.273438 C 245.167969 56.921875 244.835938 56.691406 244.464844 56.683594 L 238.804688 56.511719 C 238.535156 56.503906 238.28125 56.613281 238.09375 56.804688 L 229.316406 66.039062 C 228.984375 66.386719 228.96875 66.9375 229.277344 67.308594 Z M 229.277344 67.308594 " fill-opacity="1" fill-rule="nonzero"/></g></g></g><g clip-path="url(#bfa2f327a5)"><g clip-path="url(#28a88398a3)"><g clip-path="url(#4c89b77c5a)"><path fill="#38b6ff" d="M 241.542969 67.675781 L 249.746094 77.421875 C 249.921875 77.628906 250.167969 77.75 250.4375 77.757812 L 256.097656 77.929688 C 256.46875 77.941406 256.8125 77.730469 256.976562 77.394531 C 257.136719 77.054688 257.085938 76.652344 256.847656 76.367188 L 249.191406 67.273438 L 257.378906 58.65625 C 257.636719 58.386719 257.714844 57.988281 257.570312 57.640625 C 257.429688 57.292969 257.097656 57.0625 256.726562 57.050781 L 251.066406 56.878906 C 250.796875 56.871094 250.542969 56.980469 250.355469 57.171875 L 241.578125 66.40625 C 241.246094 66.757812 241.230469 67.308594 241.542969 67.675781 Z M 241.542969 67.675781 " fill-opacity="1" fill-rule="nonzero"/></g></g></g><g clip-path="url(#c8add254e1)"><g clip-path="url(#7510b4c164)"><g clip-path="url(#bb1cb24718)"><path fill="#38b6ff" d="M 192.761719 67.308594 L 200.964844 77.054688 C 201.140625 77.257812 201.390625 77.382812 201.660156 77.390625 L 207.316406 77.558594 C 207.691406 77.570312 208.035156 77.359375 208.199219 77.023438 C 208.359375 76.683594 208.308594 76.28125 208.066406 75.996094 L 200.414062 66.902344 L 208.601562 58.289062 C 208.859375 58.015625 208.933594 57.617188 208.792969 57.273438 C 208.648438 56.921875 208.320312 56.691406 207.945312 56.683594 L 202.289062 56.511719 C 202.019531 56.503906 201.761719 56.613281 201.574219 56.804688 L 192.800781 66.039062 C 192.46875 66.386719 192.449219 66.9375 192.761719 67.308594 Z M 192.761719 67.308594 " fill-opacity="1" fill-rule="nonzero"/></g></g></g><g clip-path="url(#bc9000e79b)"><g clip-path="url(#16541bec3a)"><g clip-path="url(#e3f67c1643)"><path fill="#38b6ff" d="M 205.023438 67.675781 L 213.230469 77.421875 C 213.402344 77.628906 213.652344 77.75 213.921875 77.757812 L 219.582031 77.929688 C 219.953125 77.941406 220.296875 77.730469 220.460938 77.394531 C 220.621094 77.054688 220.570312 76.652344 220.332031 76.367188 L 212.675781 67.273438 L 220.863281 58.65625 C 221.121094 58.386719 221.199219 57.988281 221.054688 57.640625 C 220.914062 57.292969 220.582031 57.0625 220.210938 57.050781 L 214.550781 56.878906 C 214.28125 56.871094 214.027344 56.980469 213.839844 57.171875 L 205.0625 66.40625 C 204.730469 66.757812 204.714844 67.308594 205.023438 67.675781 Z M 205.023438 67.675781 " fill-opacity="1" fill-rule="nonzero"/></g></g></g></svg>