<svg xmlns="http://www.w3.org/2000/svg" width="450" viewBox="0 0 337.5 375" height="500" version="1.0"><defs><clipPath id="prefix__a"><path d="M0 52.777h303.75V323H0zm0 0"/></clipPath><clipPath id="prefix__b"><path d="M7.918 142.824C3.137 156.668 0 172.406 0 187.852c0 15.445 2.688 30.304 7.469 44.003.152.29.152.583.3.875 19.122 51.434 69.622 89.32 127.887 90.047H303.75v-270H135.781c-58.687.73-109.187 38.032-127.863 90.047"/></clipPath><clipPath id="prefix__c"><path d="M0 52.777h303.75v270H0zm0 0"/></clipPath><clipPath id="prefix__d"><path d="M7.918 142.824C3.137 156.668 0 172.406 0 187.852c0 15.445 2.688 30.304 7.469 44.003.152.29.152.583.3.875 19.122 51.434 69.622 89.32 127.887 90.047H303.75v-270H135.781c-58.687.73-109.187 38.032-127.863 90.047"/></clipPath><clipPath id="prefix__e"><path d="M34 77h217v217H34zm0 0"/></clipPath><clipPath id="prefix__f"><path d="M32.59 291.402l4.59-216.238 216.238 4.59-4.59 216.238zm0 0"/></clipPath><clipPath id="prefix__g"><path d="M34.879 183.426c-1.266 59.633 46.05 109.004 105.684 110.27 59.636 1.265 109.003-46.051 110.269-105.684 1.266-59.633-46.05-109.004-105.684-110.27-59.632-1.265-109 46.051-110.27 105.684"/></clipPath><clipPath id="prefix__h"><path d="M34 77h217v217H34zm0 0"/></clipPath><clipPath id="prefix__i"><path d="M32.59 291.402l4.582-215.949 215.953 4.582-4.586 215.953zm0 0"/></clipPath><clipPath id="prefix__j"><path d="M32.59 291.402l4.648-219.004 219.004 4.649-4.648 219.004zm0 0"/></clipPath><clipPath id="prefix__k"><path d="M34.879 183.426c-1.266 59.633 46.05 109.004 105.684 110.27 59.636 1.265 109.003-46.051 110.269-105.684 1.266-59.633-46.05-109.004-105.684-110.27-59.632-1.265-109 46.051-110.27 105.684"/></clipPath><clipPath id="prefix__l"><path d="M75 178h33v19H75zm0 0"/></clipPath><clipPath id="prefix__m"><path d="M75.91 196.352l-.07-18.165 31.926-.125.07 18.165zm0 0"/></clipPath><clipPath id="prefix__n"><path d="M75.91 196.352l-.07-17.766 31.73-.125.07 17.77zm0 0"/></clipPath><clipPath id="prefix__o"><path d="M149 127h32v37h-32zm0 0"/></clipPath><clipPath id="prefix__p"><path d="M164.621 163.379l-15.668-9.195 16.156-27.536 15.668 9.196zm0 0"/></clipPath><clipPath id="prefix__q"><path d="M164.621 163.379l-15.324-8.992 16.058-27.367 15.32 8.992zm0 0"/></clipPath><clipPath id="prefix__r"><path d="M91 145h74v85H91zm0 0"/></clipPath><clipPath id="prefix__s"><path d="M201.574 208.684l-73.812 42.55-36.95-64.101 73.81-42.551zm0 0"/></clipPath><clipPath id="prefix__t"><path d="M164.953 229.793l-73.219-42.367 73.246-42.223-.027 84.59"/></clipPath><clipPath id="prefix__u"><path d="M145 204h32v37h-32zm0 0"/></clipPath><clipPath id="prefix__v"><path d="M176.594 232.195l-15.735 9.07-15.945-27.656 15.738-9.07zm0 0"/></clipPath><clipPath id="prefix__w"><path d="M176.594 232.195l-15.39 8.875-15.849-27.488 15.395-8.875zm0 0"/></clipPath><clipPath id="prefix__x"><path d="M151 226h56v57h-56zm0 0"/></clipPath><clipPath id="prefix__y"><path d="M190.238 216.703l26.664 48.817-48.816 26.66-26.664-48.813zm0 0"/></clipPath><clipPath id="prefix__z"><path d="M203.57 241.11c-7.363-13.481-24.257-18.438-37.738-11.075-13.48 7.363-18.441 24.258-11.078 37.738 7.363 13.48 24.258 18.438 37.738 11.075 13.48-7.36 18.442-24.258 11.078-37.739"/></clipPath><clipPath id="prefix__A"><path d="M151 226h56v57h-56zm0 0"/></clipPath><clipPath id="prefix__B"><path d="M190.238 216.703l26.606 48.707-48.711 26.606-26.602-48.707zm0 0"/></clipPath><clipPath id="prefix__C"><path d="M190.238 216.703l26.606 48.707-48.711 26.606-26.602-48.707zm0 0"/></clipPath><clipPath id="prefix__D"><path d="M203.54 241.059c-7.345-13.454-24.204-18.399-37.657-11.055-13.45 7.348-18.399 24.207-11.051 37.656 7.348 13.45 24.207 18.399 37.656 11.05 13.45-7.343 18.399-24.202 11.051-37.651"/></clipPath><clipPath id="prefix__E"><path d="M152 91h56v57h-56zm0 0"/></clipPath><clipPath id="prefix__F"><path d="M218.004 109.113l-27.863 48.14L142 129.392l27.863-48.141zm0 0"/></clipPath><clipPath id="prefix__G"><path d="M204.074 133.184c7.692-13.297 3.153-30.309-10.14-38.004-13.297-7.692-30.309-3.153-38.004 10.14-7.692 13.293-3.153 30.309 10.14 38.004 13.293 7.692 30.309 3.153 38.004-10.14"/></clipPath><clipPath id="prefix__H"><path d="M152 91h56v56h-56zm0 0"/></clipPath><clipPath id="prefix__I"><path d="M218.004 109.113l-27.8 48.035-48.036-27.8 27.8-48.036zm0 0"/></clipPath><clipPath id="prefix__J"><path d="M218.004 109.113l-27.8 48.035-48.036-27.8 27.8-48.036zm0 0"/></clipPath><clipPath id="prefix__K"><path d="M204.102 133.129c7.68-13.266 3.148-30.242-10.118-37.918-13.265-7.676-30.242-3.145-37.918 10.117-7.675 13.266-3.144 30.242 10.118 37.918 13.265 7.68 30.242 3.149 37.918-10.117"/></clipPath><clipPath id="prefix__L"><path d="M38 159h56v57H38zm0 0"/></clipPath><clipPath id="prefix__M"><path d="M76.977 149.492l26.664 48.813-48.817 26.664-26.664-48.817zm0 0"/></clipPath><clipPath id="prefix__N"><path d="M90.309 173.898c-7.364-13.48-24.258-18.437-37.739-11.074-13.48 7.36-18.441 24.258-11.078 37.738C48.855 214.043 65.75 219 79.23 211.637c13.48-7.364 18.442-24.258 11.079-37.739"/></clipPath><clipPath id="prefix__O"><path d="M38 159h56v56H38zm0 0"/></clipPath><clipPath id="prefix__P"><path d="M76.977 149.492l26.605 48.707-48.71 26.606-26.602-48.711zm0 0"/></clipPath><clipPath id="prefix__Q"><path d="M76.977 149.492l26.605 48.707-48.71 26.606-26.602-48.711zm0 0"/></clipPath><clipPath id="prefix__R"><path d="M90.277 173.844c-7.343-13.45-24.203-18.399-37.656-11.051-13.45 7.348-18.398 24.207-11.05 37.656 7.347 13.45 24.206 18.399 37.656 11.051 13.449-7.344 18.398-24.203 11.05-37.656"/></clipPath><clipPath id="prefix__S"><path d="M172 247h15v15h-15zm0 0"/></clipPath><clipPath id="prefix__T"><path d="M188.695 257l-12.093 6.969-6.973-12.094 12.094-6.969zm0 0"/></clipPath><clipPath id="prefix__U"><path d="M182.648 260.484a6.978 6.978 0 002.563-9.53 6.98 6.98 0 10-12.094 6.969 6.978 6.978 0 009.531 2.561"/></clipPath><clipPath id="prefix__V"><path d="M173 112h14v15h-14zm0 0"/></clipPath><clipPath id="prefix__W"><path d="M182.55 128.785l-12.081-6.992 6.992-12.082 12.082 6.992zm0 0"/></clipPath><clipPath id="prefix__X"><path d="M176.512 125.29a6.978 6.978 0 009.535-2.544 6.984 6.984 0 00-2.543-9.539 6.98 6.98 0 10-6.992 12.082"/></clipPath><clipPath id="prefix__Y"><path d="M58 181h15v15H58zm0 0"/></clipPath><clipPath id="prefix__Z"><path d="M75.453 190.824l-12.094 6.973-6.968-12.094 12.093-6.973zm0 0"/></clipPath><clipPath id="prefix__aa"><path d="M69.406 194.313a6.982 6.982 0 002.563-9.536 6.977 6.977 0 00-9.531-2.558 6.978 6.978 0 00-2.563 9.531 6.978 6.978 0 009.531 2.563"/></clipPath><clipPath id="prefix__ab"><path d="M89 227h41v28H89zm0 0"/></clipPath><clipPath id="prefix__ac"><path d="M89.375 226.594l42.832 19.953-5.703 12.238-42.828-19.953zm0 0"/></clipPath><clipPath id="prefix__ad"><path d="M89.375 226.594l42.832 19.953-5.703 12.238-42.828-19.953zm0 0"/></clipPath><clipPath id="prefix__ae"><path d="M89.375 226.594l42.832 19.953-5.703 12.238-42.828-19.953zm0 0"/></clipPath><clipPath id="prefix__af"><path d="M93 235h1v1h-1zm0 0"/></clipPath><clipPath id="prefix__ag"><path d="M89.375 226.594l42.832 19.953-5.703 12.238-42.828-19.953zm0 0"/></clipPath><clipPath id="prefix__ah"><path d="M89.375 226.594l42.832 19.953-5.703 12.238-42.828-19.953zm0 0"/></clipPath><clipPath id="prefix__ai"><path d="M89.375 226.594l42.832 19.953-5.703 12.238-42.828-19.953zm0 0"/></clipPath><clipPath id="prefix__aj"><path d="M87 119h43v25H87zm0 0"/></clipPath><clipPath id="prefix__ak"><path d="M130.61 123.379l-40.973 23.539-6.723-11.703 40.969-23.54zm0 0"/></clipPath><clipPath id="prefix__al"><path d="M130.61 123.379l-40.973 23.539-6.723-11.703 40.969-23.54zm0 0"/></clipPath><clipPath id="prefix__am"><path d="M130.61 123.379l-40.973 23.539-6.723-11.703 40.969-23.54zm0 0"/></clipPath><clipPath id="prefix__an"><path d="M121 121h1v1h-1zm0 0"/></clipPath><clipPath id="prefix__ao"><path d="M130.61 123.379l-40.973 23.539-6.723-11.703 40.969-23.54zm0 0"/></clipPath><clipPath id="prefix__ap"><path d="M130.61 123.379l-40.973 23.539-6.723-11.703 40.969-23.54zm0 0"/></clipPath><clipPath id="prefix__aq"><path d="M130.61 123.379l-40.973 23.539-6.723-11.703 40.969-23.54zm0 0"/></clipPath><clipPath id="prefix__ar"><path d="M199 162h16v47h-16zm0 0"/></clipPath><clipPath id="prefix__as"><path d="M199.27 208.281l4.007-47.078 13.453 1.145-4.011 47.078zm0 0"/></clipPath><clipPath id="prefix__at"><path d="M199.27 208.281l4.007-47.078 13.453 1.145-4.011 47.078zm0 0"/></clipPath><clipPath id="prefix__au"><path d="M199.27 208.281l4.007-47.078 13.453 1.145-4.011 47.078zm0 0"/></clipPath><clipPath id="prefix__av"><path d="M205 201h2v1h-2zm0 0"/></clipPath><clipPath id="prefix__aw"><path d="M199.27 208.281l4.007-47.078 13.453 1.145-4.011 47.078zm0 0"/></clipPath><clipPath id="prefix__ax"><path d="M199.27 208.281l4.007-47.078 13.453 1.145-4.011 47.078zm0 0"/></clipPath><clipPath id="prefix__ay"><path d="M199.27 208.281l4.007-47.078 13.453 1.145-4.011 47.078zm0 0"/></clipPath><clipPath id="prefix__az"><path d="M278 297.129h17v21h-17zm0 0"/></clipPath><clipPath id="prefix__aA"><path d="M266.625 297.129H283v21h-16.375zm0 0"/></clipPath><clipPath id="prefix__aB"><path d="M241 297.129h17v21h-17zm0 0"/></clipPath><clipPath id="prefix__aC"><path d="M229.5 297.129H246v21h-16.5zm0 0"/></clipPath><clipPath id="prefix__aD"><path d="M204 297.129h16.875v21H204zm0 0"/></clipPath><clipPath id="prefix__aE"><path d="M192.375 297.129H209v21h-16.625zm0 0"/></clipPath><clipPath id="prefix__aF"><path d="M167 297.129h16.75v21H167zm0 0"/></clipPath><clipPath id="prefix__aG"><path d="M155.25 297.129H172v21h-16.75zm0 0"/></clipPath><clipPath id="prefix__aH"><path d="M130 297h17v22h-17zm0 0"/></clipPath><clipPath id="prefix__aI"><path d="M117.945 297.379l28.496-.504.371 20.996-28.496.504zm0 0"/></clipPath><clipPath id="prefix__aJ"><path d="M117.945 297.379l28.496-.504.371 20.996-28.496.504zm0 0"/></clipPath><clipPath id="prefix__aK"><path d="M117 297h18v22h-18zm0 0"/></clipPath><clipPath id="prefix__aL"><path d="M117.945 297.379l28.496-.504.371 20.996-28.496.504zm0 0"/></clipPath><clipPath id="prefix__aM"><path d="M117.945 297.379l28.496-.504.371 20.996-28.496.504zm0 0"/></clipPath><clipPath id="prefix__aN"><path d="M80 284h20v22H80zm0 0"/></clipPath><clipPath id="prefix__aO"><path d="M81.105 277.734l23.989 15.387-11.336 17.676-23.992-15.387zm0 0"/></clipPath><clipPath id="prefix__aP"><path d="M81.105 277.734l23.989 15.387-11.336 17.676-23.992-15.387zm0 0"/></clipPath><clipPath id="prefix__aQ"><path d="M70 278h20v22H70zm0 0"/></clipPath><clipPath id="prefix__aR"><path d="M81.105 277.734l23.989 15.387-11.336 17.676-23.992-15.387zm0 0"/></clipPath><clipPath id="prefix__aS"><path d="M81.105 277.734l23.989 15.387-11.336 17.676-23.992-15.387zm0 0"/></clipPath><clipPath id="prefix__aT"><path d="M42 264h20v21H42zm0 0"/></clipPath><clipPath id="prefix__aU"><path d="M48.059 255.742l20.527 19.77-14.566 15.125-20.528-19.77zm0 0"/></clipPath><clipPath id="prefix__aV"><path d="M48.059 255.742l20.527 19.77-14.566 15.125-20.528-19.77zm0 0"/></clipPath><clipPath id="prefix__aW"><path d="M33 256h21v20H33zm0 0"/></clipPath><clipPath id="prefix__aX"><path d="M48.059 255.742l20.527 19.77-14.566 15.125-20.528-19.77zm0 0"/></clipPath><clipPath id="prefix__aY"><path d="M48.059 255.742l20.527 19.77-14.566 15.125-20.528-19.77zm0 0"/></clipPath><clipPath id="prefix__aZ"><path d="M19 232h22v19H19zm0 0"/></clipPath><clipPath id="prefix__ba"><path d="M31.219 221.023l14.32 24.641-18.152 10.555-14.325-24.64zm0 0"/></clipPath><clipPath id="prefix__bb"><path d="M31.219 221.023l14.32 24.641-18.152 10.555-14.325-24.64zm0 0"/></clipPath><clipPath id="prefix__bc"><path d="M13 221h22v20H13zm0 0"/></clipPath><clipPath id="prefix__bd"><path d="M31.219 221.023l14.32 24.641-18.152 10.555-14.325-24.64zm0 0"/></clipPath><clipPath id="prefix__be"><path d="M31.219 221.023l14.32 24.641-18.152 10.555-14.325-24.64zm0 0"/></clipPath><clipPath id="prefix__bf"><path d="M8.879 184h21v16.438h-21zm0 0"/></clipPath><clipPath id="prefix__bg"><path d="M8.879 171.938h21V188h-21zm0 0"/></clipPath><clipPath id="prefix__bh"><path d="M18 126h21v20H18zm0 0"/></clipPath><clipPath id="prefix__bi"><path d="M46.379 127.648l-16.234 23.426-17.262-11.965 16.234-23.422zm0 0"/></clipPath><clipPath id="prefix__bj"><path d="M46.379 127.648l-16.234 23.426-17.262-11.965 16.234-23.422zm0 0"/></clipPath><clipPath id="prefix__bk"><path d="M25 116h21v20H25zm0 0"/></clipPath><clipPath id="prefix__bl"><path d="M46.379 127.648l-16.234 23.426-17.262-11.965 16.234-23.422zm0 0"/></clipPath><clipPath id="prefix__bm"><path d="M46.379 127.648l-16.234 23.426-17.262-11.965 16.234-23.422zm0 0"/></clipPath><clipPath id="prefix__bn"><path d="M44 90h20v21H44zm0 0"/></clipPath><clipPath id="prefix__bo"><path d="M72.52 97.336L51.426 116.5l-14.121-15.543 21.093-19.164zm0 0"/></clipPath><clipPath id="prefix__bp"><path d="M72.52 97.336L51.426 116.5l-14.121-15.543 21.093-19.164zm0 0"/></clipPath><clipPath id="prefix__bq"><path d="M53 82h20v20H53zm0 0"/></clipPath><clipPath id="prefix__br"><path d="M72.52 97.336L51.426 116.5l-14.121-15.543 21.093-19.164zm0 0"/></clipPath><clipPath id="prefix__bs"><path d="M72.52 97.336L51.426 116.5l-14.121-15.543 21.093-19.164zm0 0"/></clipPath><clipPath id="prefix__bt"><path d="M74 67h20v23H74zm0 0"/></clipPath><clipPath id="prefix__bu"><path d="M104.922 81.059L79.344 93.633l-9.266-18.848 25.578-12.57zm0 0"/></clipPath><clipPath id="prefix__bv"><path d="M104.922 81.059L79.344 93.633l-9.266-18.848 25.578-12.57zm0 0"/></clipPath><clipPath id="prefix__bw"><path d="M85 62h20v23H85zm0 0"/></clipPath><clipPath id="prefix__bx"><path d="M104.922 81.059L79.344 93.633l-9.266-18.848 25.578-12.57zm0 0"/></clipPath><clipPath id="prefix__by"><path d="M104.922 81.059L79.344 93.633l-9.266-18.848 25.578-12.57zm0 0"/></clipPath><clipPath id="prefix__bz"><path d="M117.785 57.016H135V78h-17.215zm0 0"/></clipPath><clipPath id="prefix__bA"><path d="M130 57.016h16.285V78H130zm0 0"/></clipPath><clipPath id="prefix__bB"><path d="M154 56h17v22h-17zm0 0"/></clipPath><clipPath id="prefix__bC"><path d="M182.512 78.016l-28.489-.86.633-20.992 28.489.86zm0 0"/></clipPath><clipPath id="prefix__bD"><path d="M182.512 78.016l-28.489-.86.633-20.992 28.489.86zm0 0"/></clipPath><clipPath id="prefix__bE"><path d="M166 56h18v22h-18zm0 0"/></clipPath><clipPath id="prefix__bF"><path d="M182.512 78.016l-28.489-.86.633-20.992 28.489.86zm0 0"/></clipPath><clipPath id="prefix__bG"><path d="M182.512 78.016l-28.489-.86.633-20.992 28.489.86zm0 0"/></clipPath><clipPath id="prefix__bH"><path d="M266 56h17v22h-17zm0 0"/></clipPath><clipPath id="prefix__bI"><path d="M294.164 78.016l-28.488-.86.633-20.992 28.488.86zm0 0"/></clipPath><clipPath id="prefix__bJ"><path d="M294.164 78.016l-28.488-.86.633-20.992 28.488.86zm0 0"/></clipPath><clipPath id="prefix__bK"><path d="M278 56h17v22h-17zm0 0"/></clipPath><clipPath id="prefix__bL"><path d="M294.164 78.016l-28.488-.86.633-20.992 28.488.86zm0 0"/></clipPath><clipPath id="prefix__bM"><path d="M294.164 78.016l-28.488-.86.633-20.992 28.488.86zm0 0"/></clipPath><clipPath id="prefix__bN"><path d="M229 56h17v22h-17zm0 0"/></clipPath><clipPath id="prefix__bO"><path d="M257.04 78.016l-28.49-.86.634-20.992 28.488.86zm0 0"/></clipPath><clipPath id="prefix__bP"><path d="M257.04 78.016l-28.49-.86.634-20.992 28.488.86zm0 0"/></clipPath><clipPath id="prefix__bQ"><path d="M241 56h17v22h-17zm0 0"/></clipPath><clipPath id="prefix__bR"><path d="M257.04 78.016l-28.49-.86.634-20.992 28.488.86zm0 0"/></clipPath><clipPath id="prefix__bS"><path d="M257.04 78.016l-28.49-.86.634-20.992 28.488.86zm0 0"/></clipPath><clipPath id="prefix__bT"><path d="M192 56h17v22h-17zm0 0"/></clipPath><clipPath id="prefix__bU"><path d="M220.523 78.016l-28.488-.86.633-20.992 28.488.86zm0 0"/></clipPath><clipPath id="prefix__bV"><path d="M220.523 78.016l-28.488-.86.633-20.992 28.488.86zm0 0"/></clipPath><clipPath id="prefix__bW"><path d="M204 56h18v22h-18zm0 0"/></clipPath><clipPath id="prefix__bX"><path d="M220.523 78.016l-28.488-.86.633-20.992 28.488.86zm0 0"/></clipPath><clipPath id="prefix__bY"><path d="M220.523 78.016l-28.488-.86.633-20.992 28.488.86zm0 0"/></clipPath></defs><g clip-path="url(#prefix__a)"><g clip-path="url(#prefix__b)"><path fill="#737373" d="M303.75 52.777V323.04H-.133V52.777zm0 0"/></g></g><g clip-path="url(#prefix__c)"><g clip-path="url(#prefix__d)"><path fill="none" d="M7.918 142.824C3.137 156.668 0 172.406 0 187.852c0 15.445 2.687 30.304 7.469 44.003.152.29.152.583.3.875 19.122 51.434 69.622 89.32 127.887 90.047H303.75v-270H135.781c-58.687.73-109.187 38.032-127.863 90.047" stroke="#000" stroke-width="3"/></g></g><g clip-path="url(#prefix__e)"><g clip-path="url(#prefix__f)"><g clip-path="url(#prefix__g)"><path fill="#a6a6a6" d="M32.59 291.402l4.578-215.687 215.687 4.578-4.578 215.687zm0 0"/></g></g></g><g clip-path="url(#prefix__h)"><g clip-path="url(#prefix__i)"><g clip-path="url(#prefix__j)"><g clip-path="url(#prefix__k)"><path fill="none" d="M34.879 183.426c-1.266 59.633 46.05 109.004 105.684 110.27 59.636 1.265 109.003-46.051 110.27-105.684 1.265-59.633-46.052-109.004-105.685-110.27-59.632-1.265-109 46.05-110.27 105.684" stroke="#000" stroke-width="6"/></g></g></g></g><g clip-path="url(#prefix__l)"><g clip-path="url(#prefix__m)"><g clip-path="url(#prefix__n)"><path fill="#ffde59" d="M75.91 196.352l-.066-17.614 31.922-.125.07 17.614zm0 0"/></g></g></g><g clip-path="url(#prefix__o)"><g clip-path="url(#prefix__p)"><g clip-path="url(#prefix__q)"><path fill="#ffde59" d="M164.621 163.379l-15.191-8.914 16.156-27.535 15.191 8.914zm0 0"/></g></g></g><g clip-path="url(#prefix__r)"><g clip-path="url(#prefix__s)"><g clip-path="url(#prefix__t)"><path fill="#ffde59" d="M201.574 208.684l-73.164 42.175-36.578-63.453 73.164-42.176zm0 0"/></g></g></g><g clip-path="url(#prefix__u)"><g clip-path="url(#prefix__v)"><g clip-path="url(#prefix__w)"><path fill="#ffde59" d="M176.594 232.195l-15.258 8.797-15.945-27.656 15.261-8.797zm0 0"/></g></g></g><g clip-path="url(#prefix__x)"><g clip-path="url(#prefix__y)"><g clip-path="url(#prefix__z)"><path fill="#ffde59" d="M190.238 216.703l26.664 48.817-48.816 26.66-26.664-48.813zm0 0"/></g></g></g><g clip-path="url(#prefix__A)"><g clip-path="url(#prefix__B)"><g clip-path="url(#prefix__C)"><g clip-path="url(#prefix__D)"><path d="M200.914 242.492c-2.664-4.875-6.52-8.445-11.57-10.71l2.449-5.466c6.277 2.817 11.07 7.254 14.375 13.305zm-14.066-11.676c-5.286-1.718-10.536-1.671-15.754.141l-1.965-5.656c6.488-2.25 13.008-2.313 19.57-.176zm-18.223 1.153c-.441.207-.875.43-1.305.664-4.414 2.41-7.773 5.832-10.082 10.27l-5.312-2.762c2.87-5.516 7.047-9.77 12.523-12.762.531-.293 1.07-.566 1.617-.824zm-12.496 13.37c-2.02 5.18-2.281 10.43-.774 15.743l-5.761 1.633c-1.871-6.606-1.551-13.121.96-19.55zm.086 18.255c.363.898.777 1.777 1.246 2.633 2.16 3.957 5.168 7.086 9.016 9.382l-3.067 5.141c-4.785-2.855-8.52-6.738-11.203-11.652a30.638 30.638 0 01-1.543-3.262zm12.625 13.258c5.05 2.316 10.273 2.882 15.668 1.691l1.289 5.848c-6.703 1.476-13.188.777-19.453-2.098zm18.242.976a25.221 25.221 0 003.973-1.742c3.507-1.918 6.379-4.52 8.61-7.8l4.952 3.359c-2.773 4.085-6.336 7.316-10.695 9.695A30.596 30.596 0 01189 283.5zM201.039 266c2.606-4.906 3.473-10.09 2.602-15.547l5.914-.945c1.082 6.781.004 13.215-3.227 19.3zm2.035-18.16a24.624 24.624 0 00-2.16-5.348l5.254-2.87a30.772 30.772 0 012.684 6.636zm0 0"/></g></g></g></g><g clip-path="url(#prefix__E)"><g clip-path="url(#prefix__F)"><g clip-path="url(#prefix__G)"><path fill="#ffde59" d="M218.004 109.113l-27.863 48.14L142 129.392l27.863-48.141zm0 0"/></g></g></g><g clip-path="url(#prefix__H)"><g clip-path="url(#prefix__I)"><g clip-path="url(#prefix__J)"><g clip-path="url(#prefix__K)"><path d="M201.512 131.629c2.781-4.805 3.828-9.957 3.14-15.45l5.942-.745c.855 6.828-.446 13.226-3.899 19.195zm2.668-18.082c-1.278-5.41-4.043-9.871-8.301-13.387l3.812-4.617c5.293 4.371 8.73 9.914 10.317 16.629zm-10.45-14.973c-.406-.27-.82-.527-1.246-.77-4.347-2.519-9.02-3.613-14.011-3.28l-.399-5.973c6.203-.414 12.008.945 17.41 4.07.524.305 1.04.621 1.543.953zm-17.917-3.73c-5.477.96-10.094 3.469-13.852 7.515l-4.387-4.074c4.672-5.031 10.406-8.144 17.203-9.34zm-15.555 9.554a25.288 25.288 0 00-1.598 2.43c-2.262 3.906-3.37 8.098-3.336 12.578l-5.984.051c-.047-5.57 1.332-10.781 4.137-15.625a30.589 30.589 0 011.984-3.012zm-4.766 17.676c.64 5.52 2.871 10.274 6.692 14.266l-4.329 4.137c-4.742-4.957-7.511-10.86-8.312-17.711zm8.64 16.094c1.106.93 2.29 1.758 3.552 2.488 3.464 2.004 7.175 3.106 11.14 3.305l-.3 5.976c-4.926-.246-9.54-1.613-13.837-4.097a31.037 31.037 0 01-4.406-3.086zm17.36 5.781c5.543-.32 10.422-2.273 14.633-5.855l3.879 4.562c-5.23 4.45-11.285 6.871-18.168 7.27zm16.574-7.695a24.598 24.598 0 003.446-4.625l5.183 3c-1.21 2.086-2.632 4-4.277 5.738zm0 0"/></g></g></g></g><g clip-path="url(#prefix__L)"><g clip-path="url(#prefix__M)"><g clip-path="url(#prefix__N)"><path fill="#ffde59" d="M76.977 149.492l26.664 48.813-48.817 26.664-26.664-48.817zm0 0"/></g></g></g><g clip-path="url(#prefix__O)"><g clip-path="url(#prefix__P)"><g clip-path="url(#prefix__Q)"><g clip-path="url(#prefix__R)"><path d="M87.652 175.281c-2.664-4.875-6.52-8.445-11.574-10.715l2.453-5.46c6.278 2.816 11.07 7.25 14.375 13.304zm-14.066-11.676c-5.285-1.718-10.535-1.671-15.754.141l-1.965-5.656c6.485-2.25 13.008-2.313 19.57-.18zm-18.223 1.149c-.441.21-.875.434-1.304.668-4.414 2.41-7.774 5.832-10.082 10.27l-5.313-2.766c2.871-5.516 7.047-9.77 12.523-12.762.532-.289 1.07-.562 1.618-.82zm-12.496 13.375c-2.02 5.18-2.281 10.426-.773 15.742l-5.762 1.633c-1.871-6.606-1.55-13.125.961-19.55zm.086 18.254c.363.898.777 1.777 1.246 2.633 2.16 3.957 5.168 7.086 9.016 9.382l-3.067 5.141c-4.785-2.855-8.52-6.738-11.207-11.656a30.955 30.955 0 01-1.539-3.258zm12.625 13.258c5.05 2.316 10.274 2.882 15.664 1.691l1.29 5.848c-6.7 1.476-13.184.777-19.45-2.098zm18.242.976a25.221 25.221 0 003.973-1.742c3.508-1.918 6.379-4.52 8.605-7.805l4.957 3.364c-2.773 4.082-6.335 7.316-10.695 9.695a30.749 30.749 0 01-4.922 2.16zm13.957-11.832c2.606-4.902 3.473-10.086 2.602-15.543l5.91-.945c1.086 6.781.008 13.215-3.223 19.3zm2.035-18.16a24.871 24.871 0 00-2.16-5.344l5.254-2.87a30.61 30.61 0 012.68 6.632zm0 0"/></g></g></g></g><g clip-path="url(#prefix__S)"><g clip-path="url(#prefix__T)"><g clip-path="url(#prefix__U)"><path fill="#707070" d="M188.695 257l-12.093 6.969-6.973-12.094 12.094-6.969zm0 0"/></g></g></g><g clip-path="url(#prefix__V)"><g clip-path="url(#prefix__W)"><g clip-path="url(#prefix__X)"><path fill="#707070" d="M182.55 128.785l-12.081-6.992 6.992-12.082 12.082 6.992zm0 0"/></g></g></g><g clip-path="url(#prefix__Y)"><g clip-path="url(#prefix__Z)"><g clip-path="url(#prefix__aa)"><path fill="#707070" d="M75.453 190.824l-12.094 6.973-6.968-12.094 12.093-6.973zm0 0"/></g></g></g><g clip-path="url(#prefix__ab)"><g clip-path="url(#prefix__ac)"><g clip-path="url(#prefix__ad)"><g clip-path="url(#prefix__ae)"><path fill="#fff" d="M89.898 227.273a.101.101 0 00-.054.094c-.133.059-.293-.11-.414.059-.422.156-.453.504-.418.875.101 1.047.367 2.054.695 3.043 1.176 3.543 3.035 6.672 5.469 9.492 4.242 4.926 9.633 7.844 15.87 9.309 2.891.68 5.849.84 8.817.855 1.746.012 3.485-.082 5.227-.137.062-.031.125-.058.187-.09.07.032.16.043.203.094v.004c.036.04-.023.09-.085.094-.536.433-1.145.738-1.766 1.012-.43.187-.828.402-1.16.734-.922.398-1.281 1.113-1.04 1.996 1.989.129 3.645-.742 5.255-1.766.601-.382 1.222-.718 1.84-1.07 1.48-.832 1.218-.793 1.261-2.18a2.899 2.899 0 00-.144-.91c-.036-.11-.078-.207-.188-.258-.008-.355-.273-.484-.539-.593-.785-.332-1.57-.653-2.36-.977-.12-.164-.3-.215-.484-.258-.113-.172-.297-.218-.476-.273-.063-.137-.203-.164-.313-.23-1.465-.954-2.797-2.063-3.937-3.395-.09-.102-.184-.195-.274-.29-.105-.116-.222-.25-.386-.171-.125.059-.184.238-.149.351.145.493-.035.997.063 1.485.043.219.172.398.304.578 1.024 1.406 2.266 2.586 3.633 3.64.121.094.262.169.36.286.117.137.015.242-.11.316-.148-.09-.293-.078-.43.028-.152-.06-.304-.102-.453.02-.027-.036-.054-.036-.086-.005-.144-.058-.285-.09-.43.016-.105-.02-.21-.055-.32-.055-1.183 0-2.37.016-3.554.004-1.075-.016-2.149-.063-3.223-.098-.285-.043-.562-.097-.844-.129-2.746-.328-5.406-.984-7.96-2.039-.91-.379-1.813-.785-2.715-1.18-.125-.175-.317-.214-.512-.261-.113-.172-.297-.215-.477-.262-.101-.172-.277-.203-.441-.258-.055-.12-.156-.16-.278-.171-.023-.043-.058-.063-.105-.055-.062-.129-.203-.16-.305-.23-.52-.364-1.101-.626-1.574-1.055-.074.027-.246-.028-.086.152.106.117.094.164.043.18-.047.015-.12.008-.18.008-1.601-1.188-3.039-2.563-4.39-4.032-.11-.148-.227-.297-.336-.445l-2.02-2.652c0-.047-.011-.086-.039-.114a.229.229 0 00-.066-.05.161.161 0 00-.102-.157c.004-.078-.03-.129-.101-.156.004-.078-.031-.129-.102-.16.004-.078-.027-.129-.101-.16.007-.078-.024-.13-.098-.156v-.004c.008-.075-.023-.13-.094-.157l-.004-.004a1.243 1.243 0 00-.09-.156l-.003-.008c.007-.074-.02-.129-.094-.156v-.008c.008-.074-.024-.129-.094-.156l-.004-.004v-.004.004c.012-.078-.02-.133-.09-.16l-.004-.004c.012-.078-.02-.129-.09-.16l-.003-.004c.011-.074-.02-.133-.09-.16-.25-.524-.5-1.043-.75-1.563-.219-.23-.297-.53-.418-.812a.29.29 0 01.078-.063.29.29 0 01.145-.023c-.067-.219-.118-.445-.282-.621a.383.383 0 01-.125-.176l.125.176c-.008-.074-.023-.145-.105-.168.031-.113-.004-.207-.082-.29.02-.073.004-.128-.067-.167.004-.078-.011-.145-.082-.188.004-.039 0-.07-.027-.101a1.5 1.5 0 00-.223-.63c-.027-.16-.05-.32-.16-.448.02-.11-.031-.196-.078-.285-.11-.63-.332-1.235-.32-1.915-.215.106-.434-.03-.57.168zm33.883 21.891h-.004.004-.004c.004-.004.004-.004.004-.008v.008zm-31.054-14.242a.64.64 0 01.011.043c0-.004-.004-.008-.004-.012-.007-.012-.015-.02-.02-.035 0 .004.005.004.013.004zm1.375 1.547h-.004c-.004.004-.008.008-.016.008l-.016.007.032-.015v-.004l.004.004zm-1.446-1.551h.055a.158.158 0 00.02.035.09.09 0 00-.075-.035zm.114.11a.182.182 0 01.02.038s.003.004 0 .004a.144.144 0 00-.02-.043zm-3.06-6.56c0-.003-.003-.003-.003-.003v-.004-.004c.004 0 .004.004.004.012zm.052.278c-.004.004-.004.008 0 .008v-.008zm1.629 2.316c-.012 0-.028 0-.043.004.004-.007.004-.015.007-.027l.036.024zm-.118-.488c-.011-.02-.015-.047-.011-.074v.004c0 .023.004.05.011.07zm0 0"/></g></g></g></g><g clip-path="url(#prefix__af)"><g clip-path="url(#prefix__ag)"><g clip-path="url(#prefix__ah)"><g clip-path="url(#prefix__ai)"><path fill="#fff" d="M93.305 235.191c.03.051.062.106.09.157.011-.078-.02-.13-.09-.157zm0 0"/></g></g></g></g><g clip-path="url(#prefix__aj)"><g clip-path="url(#prefix__ak)"><g clip-path="url(#prefix__al)"><g clip-path="url(#prefix__am)"><path fill="#fff" d="M129.754 123.418c.004-.043-.012-.074-.047-.102.027-.14.258-.175.191-.37.118-.434-.152-.657-.476-.844-.914-.524-1.89-.883-2.887-1.184-3.578-1.078-7.203-1.36-10.91-.992-6.473.633-11.96 3.36-16.75 7.617-2.219 1.973-4.05 4.305-5.773 6.719-1.012 1.422-1.938 2.898-2.899 4.355-.012.067-.02.133-.031.203-.067.04-.125.106-.195.114-.055.004-.063-.075-.028-.13-.047-.687.051-1.359.188-2.027.093-.457.148-.906.066-1.37.207-.981-.172-1.688-1.035-1.997-1.25 1.55-1.488 3.406-1.578 5.313-.035.71-.117 1.414-.188 2.12-.168 1.688-.05 1.454 1.059 2.286.25.184.535.312.832.406.11.035.21.059.316-.004.293.196.551.055.793-.097.723-.454 1.438-.914 2.157-1.371.207-.004.351-.122.492-.247.203.004.351-.117.5-.23.144.027.246-.074.367-.125 1.621-.645 3.293-1.102 5.043-1.266.129-.015.262-.039.39-.054.157-.02.333-.043.364-.22.023-.136-.09-.288-.2-.323-.488-.164-.796-.602-1.253-.805-.203-.09-.422-.086-.649-.082-1.734.027-3.418.363-5.066.875-.145.047-.29.117-.442.129-.175.015-.203-.125-.195-.274.16-.066.235-.191.227-.363.136-.094.258-.191.246-.383.043-.004.058-.027.05-.07.13-.082.239-.18.235-.355.078-.079.164-.145.227-.235.683-.969 1.351-1.945 2.046-2.906.63-.875 1.29-1.723 1.934-2.582.2-.207.402-.402.59-.617 1.851-2.055 3.918-3.852 6.254-5.332.832-.528 1.68-1.032 2.523-1.543.215-.004.36-.137.512-.266.203.004.344-.121.488-.242.195.02.324-.11.465-.211.129.023.223-.035.3-.129.048.004.083-.012.102-.055.145.024.246-.074.368-.117.593-.215 1.144-.539 1.765-.683.024-.07.164-.184-.074-.153-.156.016-.188-.02-.172-.07.016-.043.063-.102.098-.152 1.894-.625 3.844-1.012 5.824-1.266l.559-.023c1.109-.04 2.222-.083 3.332-.122.035.028.074.04.113.036a.208.208 0 00.078-.028.165.165 0 00.188.008c.058.043.12.047.187.004.059.05.121.05.188.008.058.05.12.054.187.011.059.051.121.055.188.012.058.051.12.055.183.016h.004c.059.008.121.012.184.012l.004.003c.058.051.117.055.183.016h.008c.055.05.117.055.18.016H121.69c.055.05.118.058.184.015h.004c.055.055.117.059.183.02.06.05.122.058.188.02.57.093 1.14.187 1.71.285.313-.047.606.062.903.125a.277.277 0 01.004.097.21.21 0 01-.062.133c.218.07.433.16.672.129.07-.02.14-.024.214 0-.07 0-.144-.004-.214 0 .066.035.132.062.195.012.078.09.172.113.285.097.047.059.106.078.172.043.062.047.129.074.203.04.027.027.059.042.102.034.199.11.414.172.64.184.145.066.293.14.461.129.074.078.18.082.278.098.578.273 1.199.437 1.75.84.039-.239.277-.336.19-.563zm-37.406 15.105h.004c0-.003-.004 0-.004 0 .004-.003.004 0 .004 0s0 .004.003.004c-.003 0-.003-.004-.007-.004zm29.523-17.195a.19.19 0 01-.043-.016h.012a.133.133 0 00.039.004c0 .004-.004.004-.008.012zm-2.055.23v-.003-.012l.004-.02-.004.036h0zm2.098-.285c-.012.016-.023.028-.031.043-.016-.004-.028-.004-.04-.004.028 0 .052-.015.071-.039zm-.156.028c-.016 0-.031-.004-.043-.004 0-.004-.004 0-.004-.004a.196.196 0 00.047.008zm7.125 1.277c.004-.004.004 0 .008-.004 0 .004.004.004.004.004h-.012zm-.254-.121c-.004-.004-.004-.008-.008-.008 0 .004.004.004.008.008zm-2.836 0c.008-.012.016-.023.023-.039.004.008.012.016.016.023-.012.004-.023.012-.039.016zm.469.184a.149.149 0 01.066.03v.005c-.023-.016-.043-.031-.066-.035zm0 0"/></g></g></g></g><g clip-path="url(#prefix__an)"><g clip-path="url(#prefix__ao)"><g clip-path="url(#prefix__ap)"><g clip-path="url(#prefix__aq)"><path fill="#fff" d="M121.316 121.645c-.058-.004-.12-.008-.18-.016.06.05.118.055.18.016zm0 0"/></g></g></g></g><g clip-path="url(#prefix__ar)"><g clip-path="url(#prefix__as)"><g clip-path="url(#prefix__at)"><g clip-path="url(#prefix__au)"><path fill="#fff" d="M199.723 207.559c.03.023.07.03.109.02.102.1 0 .312.195.366.293.344.63.25.97.09.944-.453 1.8-1.047 2.616-1.695 2.922-2.324 5.219-5.145 7.035-8.399 3.165-5.68 4.055-11.746 3.286-18.105-.356-2.95-1.227-5.781-2.23-8.574-.59-1.645-1.278-3.242-1.927-4.864l-.148-.14c.004-.078-.016-.164.02-.227.027-.047.093-.008.117.051.593.352 1.09.816 1.558 1.309.324.336.664.64 1.09.836.688.73 1.484.82 2.23.289-.562-1.91-1.949-3.164-3.464-4.325-.563-.433-1.094-.902-1.637-1.363-1.29-1.101-1.164-.871-2.48-.433a2.814 2.814 0 00-.805.449c-.094.07-.168.144-.18.265-.328.13-.36.422-.371.707-.039.852-.07 1.704-.105 2.555-.114.168-.098.356-.075.543-.12.164-.105.356-.093.543-.106.102-.082.246-.11.371-.394 1.7-.972 3.336-1.832 4.867-.066.114-.12.235-.18.352-.074.14-.156.297-.027.426.094.093.285.086.38.015.413-.304.948-.308 1.374-.57.188-.113.313-.297.438-.484.964-1.446 1.648-3.016 2.168-4.66.046-.149.07-.305.144-.438.09-.156.223-.098.336-.008a.345.345 0 00.172.395c0 .164.008.324.172.418-.02.039-.012.066.031.082-.008.156.012.3.16.398.02.11.024.219.059.32.406 1.114.832 2.22 1.226 3.34.356 1.012.68 2.04 1.02 3.059.055.281.101.562.168.836.633 2.691.933 5.414.82 8.176-.043.988-.113 1.972-.172 2.957-.125.175-.097.37-.074.566-.121.168-.102.355-.082.543-.125.148-.094.328-.09.504-.094.09-.097.2-.066.316-.031.035-.035.075-.012.117-.102.106-.082.247-.113.368-.16.613-.211 1.25-.446 1.84.047.058.055.242.168.027.079-.14.121-.145.157-.102.027.04.047.114.07.168-.57 1.91-1.363 3.735-2.281 5.508-.098.156-.2.313-.301.469-.598.937-1.2 1.87-1.797 2.808a.165.165 0 00-.094.075.23.23 0 00-.023.078.158.158 0 00-.11.148.158.158 0 00-.113.153.143.143 0 00-.113.148c-.074.023-.117.07-.117.148-.074.02-.114.07-.114.149h-.003c-.075.02-.114.066-.114.144l-.004.004c-.039.043-.082.09-.117.14l-.004.005c-.074.02-.113.062-.117.14l-.004.004c-.074.02-.113.067-.117.141l-.004.008c-.074.015-.113.062-.117.14h-.004c-.074.02-.113.067-.117.145-.078.02-.117.066-.125.14-.403.419-.805.829-1.207 1.247-.14.28-.399.46-.617.668a.264.264 0 01-.086-.051.246.246 0 01-.07-.13c-.184.142-.38.267-.489.477a.357.357 0 01-.125.176c.043-.054.086-.113.125-.175-.07.035-.129.074-.125.156a.3.3 0 00-.242.176c-.074.007-.121.042-.133.12-.074.024-.133.063-.148.145a.11.11 0 00-.086.059 1.554 1.554 0 00-.516.426c-.137.082-.281.156-.367.304-.11.02-.172.098-.238.172-.555.316-1.043.734-1.688.957.172.168.117.422.352.48zm8.91-39.348v.004c-.004 0-.004 0-.008.004l.008-.008zm-2.7 34.062c.012-.007.024-.02.036-.027l-.008.008c-.008.012-.016.02-.024.031l-.003-.012zm.981-1.824c0 .004 0 .004.004.004.004.004.008.008.012.008l.011.016-.027-.024h-.004c.004 0 .004 0 .004-.004zm-.96 1.89c-.005-.019-.013-.034-.017-.05.008-.012.016-.02.024-.031a.116.116 0 00-.008.082zm.066-.144c.007-.011.02-.023.027-.035.004.004.004 0 .004 0a.253.253 0 00-.031.035zm-5.11 5.13l-.004.003-.004.004c0-.004.004-.008.008-.008zm.246-.145c.004 0 .004 0 .008-.004-.004 0-.008.004-.008.004zm1.614-2.328c.003.011.007.027.02.039-.009 0-.02 0-.028.004.004-.016.004-.028.008-.043zm-.418.277a.131.131 0 01-.063.039v-.004c.024-.008.047-.016.063-.035zm0 0"/></g></g></g></g><g clip-path="url(#prefix__av)"><g clip-path="url(#prefix__aw)"><g clip-path="url(#prefix__ax)"><g clip-path="url(#prefix__ay)"><path fill="#fff" d="M205.988 201.637l.117-.14c-.078.019-.113.065-.117.14zm0 0"/></g></g></g></g><path transform="matrix(.74987 .00605 -.00605 .74998 136.49 77.868)" fill="none" d="M-.002 1.999L223.036 2" stroke="#000" stroke-width="4"/><path transform="matrix(.75062 -.00364 .00364 .75 135.126 291.168)" fill="none" d="M0 2l224.814.002" stroke="#000" stroke-width="4"/><g clip-path="url(#prefix__az)"><path fill="#38b6ff" d="M294.695 306.992l-8.492-9.492a.946.946 0 00-.703-.316h-5.664a.95.95 0 00-.863.562.956.956 0 00.164 1.02l7.922 8.863-7.922 8.855a.95.95 0 00.7 1.586h5.663c.266 0 .52-.117.703-.312l8.492-9.496c.32-.36.32-.91 0-1.27zm0 0"/></g><g clip-path="url(#prefix__aA)"><path fill="#38b6ff" d="M282.426 306.992l-8.492-9.492a.94.94 0 00-.704-.316h-5.66a.947.947 0 00-.703 1.582l7.926 8.863-7.926 8.855a.955.955 0 00-.16 1.024.94.94 0 00.863.562h5.66c.27 0 .52-.117.704-.312l8.492-9.496a.95.95 0 000-1.27zm0 0"/></g><g clip-path="url(#prefix__aB)"><path fill="#38b6ff" d="M257.57 306.992l-8.492-9.492a.946.946 0 00-.703-.316h-5.664a.95.95 0 00-.863.562.962.962 0 00.16 1.02l7.926 8.863-7.926 8.855a.95.95 0 00.703 1.586h5.664c.266 0 .52-.117.703-.312l8.492-9.496c.32-.36.32-.91 0-1.27zm0 0"/></g><g clip-path="url(#prefix__aC)"><path fill="#38b6ff" d="M245.3 306.992l-8.491-9.492a.94.94 0 00-.704-.316h-5.66a.947.947 0 00-.703 1.582l7.926 8.863-7.926 8.855a.955.955 0 00-.16 1.024.94.94 0 00.863.562h5.66c.27 0 .52-.117.704-.312l8.492-9.496a.95.95 0 000-1.27zm0 0"/></g><g clip-path="url(#prefix__aD)"><path fill="#38b6ff" d="M220.445 306.992l-8.492-9.492a.946.946 0 00-.703-.316h-5.664a.95.95 0 00-.863.562.956.956 0 00.164 1.02l7.922 8.863-7.922 8.855a.95.95 0 00.7 1.586h5.663c.266 0 .52-.117.703-.312l8.492-9.496c.32-.36.32-.91 0-1.27zm0 0"/></g><g clip-path="url(#prefix__aE)"><path fill="#38b6ff" d="M208.176 306.992l-8.492-9.492a.94.94 0 00-.704-.316h-5.66a.947.947 0 00-.703 1.582l7.926 8.863-7.926 8.855a.955.955 0 00-.16 1.024.94.94 0 00.863.562h5.66c.27 0 .52-.117.704-.312l8.492-9.496a.95.95 0 000-1.27zm0 0"/></g><g clip-path="url(#prefix__aF)"><path fill="#5ce1e6" d="M183.32 306.992l-8.492-9.492a.946.946 0 00-.703-.316h-5.664a.95.95 0 00-.863.562.956.956 0 00.164 1.02l7.922 8.863-7.922 8.855a.95.95 0 00.7 1.586h5.663c.266 0 .52-.117.703-.312l8.492-9.496c.32-.36.32-.91 0-1.27zm0 0"/></g><g clip-path="url(#prefix__aG)"><path fill="#5ce1e6" d="M171.05 306.992l-8.491-9.492a.94.94 0 00-.704-.316h-5.66a.947.947 0 00-.703 1.582l7.926 8.863-7.926 8.855a.955.955 0 00-.16 1.024.94.94 0 00.863.562h5.66c.27 0 .52-.117.704-.312l8.492-9.496a.95.95 0 000-1.27zm0 0"/></g><g clip-path="url(#prefix__aH)"><g clip-path="url(#prefix__aI)"><g clip-path="url(#prefix__aJ)"><path fill="#38b6ff" d="M146.184 306.746l-8.66-9.344a.948.948 0 00-.708-.3l-5.66.097a.947.947 0 00-.851.578.956.956 0 00.175 1.02l8.083 8.719-7.77 8.996a.952.952 0 00.73 1.574l5.665-.102a.96.96 0 00.695-.324l8.324-9.644a.954.954 0 00-.023-1.27zm0 0"/></g></g></g><g clip-path="url(#prefix__aK)"><g clip-path="url(#prefix__aL)"><g clip-path="url(#prefix__aM)"><path fill="#38b6ff" d="M133.918 306.96l-8.66-9.339a.937.937 0 00-.707-.305l-5.66.102a.95.95 0 00-.856.578.95.95 0 00.18 1.016l8.082 8.718-7.77 8.997a.959.959 0 00-.14 1.027c.16.34.5.555.87.547l5.665-.098a.979.979 0 00.695-.328l8.324-9.64a.96.96 0 00-.023-1.274zm0 0"/></g></g></g><g clip-path="url(#prefix__aN)"><g clip-path="url(#prefix__aO)"><g clip-path="url(#prefix__aP)"><path fill="#38b6ff" d="M99.406 301.191l-2.023-12.574a.945.945 0 00-.422-.644l-4.766-3.059a.949.949 0 00-1.445.953l1.887 11.738-11.453 3.176a.951.951 0 00-.266 1.715l4.766 3.059c.226.144.5.183.761.113l12.274-3.406a.954.954 0 00.687-1.07zm0 0"/></g></g></g><g clip-path="url(#prefix__aQ)"><g clip-path="url(#prefix__aR)"><g clip-path="url(#prefix__aS)"><path fill="#38b6ff" d="M89.078 294.57l-2.023-12.578a.94.94 0 00-.422-.644l-4.766-3.055a.942.942 0 00-1.027.004.966.966 0 00-.418.95l1.887 11.733-11.454 3.18a.954.954 0 00-.687.774.945.945 0 00.422.937l4.77 3.059c.222.144.5.183.757.117l12.278-3.406a.957.957 0 00.683-1.07zm0 0"/></g></g></g><g clip-path="url(#prefix__aT)"><g clip-path="url(#prefix__aU)"><g clip-path="url(#prefix__aV)"><path fill="#38b6ff" d="M61.434 282.32l.468-12.73a.94.94 0 00-.289-.715l-4.078-3.93a.945.945 0 00-1.012-.191.955.955 0 00-.593.848l-.438 11.878-11.851.883a.942.942 0 00-.825.625.94.94 0 00.23 1.004l4.079 3.926a.951.951 0 00.723.262l12.703-.946a.957.957 0 00.883-.914zm0 0"/></g></g></g><g clip-path="url(#prefix__aW)"><g clip-path="url(#prefix__aX)"><g clip-path="url(#prefix__aY)"><path fill="#38b6ff" d="M52.598 273.809l.468-12.73a.96.96 0 00-.289-.716l-4.078-3.925a.948.948 0 00-1.605.652l-.438 11.879-11.851.883a.948.948 0 00-.825.625.94.94 0 00.23 1.003l4.08 3.93a.96.96 0 00.722.262l12.703-.95a.957.957 0 00.883-.913zm0 0"/></g></g></g><g clip-path="url(#prefix__aZ)"><g clip-path="url(#prefix__ba)"><g clip-path="url(#prefix__bb)"><path fill="#5ce1e6" d="M36.793 250.25l3.941-12.113a.938.938 0 00-.082-.766l-2.843-4.894a.95.95 0 00-1.723.187L32.41 243.97l-11.64-2.399a.947.947 0 00-.965.375.944.944 0 00-.055 1.028l2.848 4.894c.132.235.359.395.62.45l12.477 2.574a.95.95 0 001.098-.641zm0 0"/></g></g></g><g clip-path="url(#prefix__bc)"><g clip-path="url(#prefix__bd)"><g clip-path="url(#prefix__be)"><path fill="#5ce1e6" d="M30.629 239.645l3.941-12.114a.938.938 0 00-.082-.765l-2.843-4.895a.946.946 0 00-.922-.465.954.954 0 00-.801.653l-3.676 11.304-11.644-2.402a.958.958 0 00-.961.375.943.943 0 00-.055 1.031l2.844 4.895c.136.23.363.39.625.449l12.476 2.57a.952.952 0 001.098-.636zm0 0"/></g></g></g><g clip-path="url(#prefix__bf)"><path fill="#38b6ff" d="M20.016 200.004l9.492-8.492a.934.934 0 00.316-.703v-5.66a.945.945 0 00-.562-.864.946.946 0 00-1.02.16l-8.863 7.926-8.856-7.926a.955.955 0 00-1.023-.16.945.945 0 00-.563.863v5.66c0 .27.114.524.313.704l9.496 8.492a.95.95 0 001.27 0zm0 0"/></g><g clip-path="url(#prefix__bg)"><path fill="#38b6ff" d="M20.016 187.738l9.492-8.496a.932.932 0 00.316-.699v-5.664a.95.95 0 00-.562-.863.961.961 0 00-1.02.16l-8.863 7.926-8.856-7.926a.95.95 0 00-1.586.703v5.664c0 .266.114.52.313.7l9.496 8.495c.36.32.91.32 1.27 0zm0 0"/></g><g clip-path="url(#prefix__bh)"><g clip-path="url(#prefix__bi)"><g clip-path="url(#prefix__bj)"><path fill="#38b6ff" d="M22.281 145.098l12.64-1.57a.951.951 0 00.661-.4l3.227-4.651a.95.95 0 00-.903-1.48L26.11 138.46l-2.765-11.559a.952.952 0 00-1.703-.324l-3.227 4.652a.948.948 0 00-.14.758l2.964 12.387a.949.949 0 001.043.723zm0 0"/></g></g></g><g clip-path="url(#prefix__bk)"><g clip-path="url(#prefix__bl)"><g clip-path="url(#prefix__bm)"><path fill="#38b6ff" d="M29.27 135.016l12.64-1.575a.933.933 0 00.66-.394l3.223-4.656a.935.935 0 00.031-1.028.953.953 0 00-.93-.449l-11.796 1.465-2.766-11.559a.963.963 0 00-.75-.715.941.941 0 00-.953.387l-3.227 4.656a.936.936 0 00-.14.754l2.965 12.391a.95.95 0 001.043.723zm0 0"/></g></g></g><g clip-path="url(#prefix__bn)"><g clip-path="url(#prefix__bo)"><g clip-path="url(#prefix__bp)"><path fill="#38b6ff" d="M45.11 108.906l12.671 1.317a.941.941 0 00.73-.239l4.192-3.808a.948.948 0 00.258-.996.954.954 0 00-.805-.649l-11.824-1.226-.09-11.887a.948.948 0 00-1.586-.7l-4.191 3.805a.97.97 0 00-.309.707l.098 12.739c.004.484.375.89.855.937zm0 0"/></g></g></g><g clip-path="url(#prefix__bq)"><g clip-path="url(#prefix__br)"><g clip-path="url(#prefix__bs)"><path fill="#38b6ff" d="M54.188 100.656l12.671 1.317a.936.936 0 00.73-.239l4.192-3.808a.942.942 0 00.262-.996.958.958 0 00-.805-.649l-11.824-1.226-.09-11.887a.95.95 0 00-1.586-.7l-4.191 3.805a.955.955 0 00-.309.707l.098 12.739c.004.484.375.89.852.937zm0 0"/></g></g></g><g clip-path="url(#prefix__bt)"><g clip-path="url(#prefix__bu)"><g clip-path="url(#prefix__bv)"><path fill="#5ce1e6" d="M75.379 84.59l11.808 4.773c.254.098.532.09.77-.027l5.082-2.5a.95.95 0 00.527-.883.958.958 0 00-.597-.848l-11.02-4.453 3.203-11.445a.946.946 0 00-.304-.988.943.943 0 00-1.024-.125l-5.082 2.496a.974.974 0 00-.492.59l-3.434 12.27a.957.957 0 00.563 1.14zm0 0"/></g></g></g><g clip-path="url(#prefix__bw)"><g clip-path="url(#prefix__bx)"><g clip-path="url(#prefix__by)"><path fill="#5ce1e6" d="M86.387 79.176l11.812 4.773c.25.102.528.094.77-.027l5.082-2.496a.945.945 0 00.523-.887.945.945 0 00-.594-.844l-11.02-4.457 3.204-11.445a.958.958 0 00-.305-.988.952.952 0 00-1.023-.125l-5.082 2.5a.94.94 0 00-.492.59l-3.434 12.265a.953.953 0 00.559 1.14zm0 0"/></g></g></g><g clip-path="url(#prefix__bz)"><path fill="#38b6ff" d="M118.215 68.148l8.492 9.493a.946.946 0 00.703.316h5.664a.95.95 0 00.863-.562.956.956 0 00-.164-1.02l-7.921-8.86 7.921-8.859a.95.95 0 00-.7-1.586h-5.663a.971.971 0 00-.703.313l-8.492 9.496c-.32.36-.32.91 0 1.27zm0 0"/></g><g clip-path="url(#prefix__bA)"><path fill="#38b6ff" d="M130.484 68.148l8.493 9.493a.94.94 0 00.703.316h5.66a.947.947 0 00.703-1.582l-7.926-8.86 7.926-8.859a.955.955 0 00.16-1.023.94.94 0 00-.863-.563h-5.66c-.27 0-.52.117-.703.313l-8.493 9.496a.95.95 0 000 1.27zm0 0"/></g><g clip-path="url(#prefix__bB)"><g clip-path="url(#prefix__bC)"><g clip-path="url(#prefix__bD)"><path fill="#38b6ff" d="M154.75 67.309l8.207 9.746a.943.943 0 00.691.336l5.66.168a.948.948 0 00.75-1.563l-7.656-9.094 8.188-8.613a.948.948 0 00.191-1.016.931.931 0 00-.844-.59l-5.66-.171a.955.955 0 00-.71.293l-8.778 9.234a.96.96 0 00-.039 1.27zm0 0"/></g></g></g><g clip-path="url(#prefix__bE)"><g clip-path="url(#prefix__bF)"><g clip-path="url(#prefix__bG)"><path fill="#38b6ff" d="M167.016 67.676l8.203 9.746a.936.936 0 00.691.336l5.66.172a.948.948 0 00.75-1.563l-7.656-9.094 8.188-8.617a.946.946 0 00.191-1.015.944.944 0 00-.844-.59l-5.66-.172a.955.955 0 00-.71.293l-8.778 9.234a.955.955 0 00-.035 1.27zm0 0"/></g></g></g><g clip-path="url(#prefix__bH)"><g clip-path="url(#prefix__bI)"><g clip-path="url(#prefix__bJ)"><path fill="#38b6ff" d="M266.402 67.309l8.207 9.746a.943.943 0 00.692.336l5.66.168a.948.948 0 00.75-1.563l-7.656-9.094 8.187-8.613a.948.948 0 00.192-1.016.931.931 0 00-.844-.59l-5.66-.171a.955.955 0 00-.711.293l-8.778 9.234a.96.96 0 00-.039 1.27zm0 0"/></g></g></g><g clip-path="url(#prefix__bK)"><g clip-path="url(#prefix__bL)"><g clip-path="url(#prefix__bM)"><path fill="#38b6ff" d="M278.668 67.676l8.203 9.746a.936.936 0 00.692.336l5.66.172a.948.948 0 00.75-1.563l-7.657-9.094 8.188-8.617a.946.946 0 00.191-1.015.944.944 0 00-.843-.59l-5.66-.172a.955.955 0 00-.712.293l-8.777 9.234a.955.955 0 00-.035 1.27zm0 0"/></g></g></g><g clip-path="url(#prefix__bN)"><g clip-path="url(#prefix__bO)"><g clip-path="url(#prefix__bP)"><path fill="#5ce1e6" d="M229.277 67.309l8.207 9.746a.943.943 0 00.692.336l5.66.168a.948.948 0 00.75-1.563l-7.656-9.094 8.187-8.613a.948.948 0 00.192-1.016.931.931 0 00-.844-.59l-5.66-.171a.955.955 0 00-.711.293l-8.778 9.234a.96.96 0 00-.039 1.27zm0 0"/></g></g></g><g clip-path="url(#prefix__bQ)"><g clip-path="url(#prefix__bR)"><g clip-path="url(#prefix__bS)"><path fill="#5ce1e6" d="M241.543 67.676l8.203 9.746a.936.936 0 00.691.336l5.66.172a.948.948 0 00.75-1.563l-7.656-9.094 8.188-8.617a.946.946 0 00.191-1.015.944.944 0 00-.843-.59l-5.66-.172a.955.955 0 00-.712.293l-8.777 9.234a.955.955 0 00-.035 1.27zm0 0"/></g></g></g><g clip-path="url(#prefix__bT)"><g clip-path="url(#prefix__bU)"><g clip-path="url(#prefix__bV)"><path fill="#38b6ff" d="M192.762 67.309l8.203 9.746a.958.958 0 00.695.336l5.656.168a.95.95 0 00.883-.536.957.957 0 00-.133-1.027l-7.652-9.094 8.188-8.613a.956.956 0 00.191-1.016.937.937 0 00-.848-.59l-5.656-.171a.964.964 0 00-.715.293l-8.773 9.234a.955.955 0 00-.04 1.27zm0 0"/></g></g></g><g clip-path="url(#prefix__bW)"><g clip-path="url(#prefix__bX)"><g clip-path="url(#prefix__bY)"><path fill="#38b6ff" d="M205.023 67.676l8.207 9.746a.93.93 0 00.692.336l5.66.172a.948.948 0 00.75-1.563l-7.656-9.094 8.187-8.617a.946.946 0 00.192-1.015.944.944 0 00-.844-.59l-5.66-.172a.955.955 0 00-.711.293l-8.778 9.234a.96.96 0 00-.039 1.27zm0 0"/></g></g></g></svg>