<svg xmlns="http://www.w3.org/2000/svg" width="450" viewBox="0 0 337.5 375" height="500" version="1.0"><defs><clipPath id="prefix__a"><path d="M0 52.777h303.75V323H0zm0 0"/></clipPath><clipPath id="prefix__b"><path d="M7.918 142.824C3.137 156.668 0 172.406 0 187.852c0 15.445 2.688 30.304 7.469 44.003.152.29.152.583.3.875 19.122 51.434 69.622 89.32 127.887 90.047H303.75v-270H135.781c-58.687.73-109.187 38.032-127.863 90.047"/></clipPath><clipPath id="prefix__c"><path d="M0 52.777h303.75v270H0zm0 0"/></clipPath><clipPath id="prefix__d"><path d="M7.918 142.824C3.137 156.668 0 172.406 0 187.852c0 15.445 2.688 30.304 7.469 44.003.152.29.152.583.3.875 19.122 51.434 69.622 89.32 127.887 90.047H303.75v-270H135.781c-58.687.73-109.187 38.032-127.863 90.047"/></clipPath><clipPath id="prefix__e"><path d="M34 77h217v217H34zm0 0"/></clipPath><clipPath id="prefix__f"><path d="M62.762 315.77L12.738 105.344 223.164 55.32l50.024 210.426zm0 0"/></clipPath><clipPath id="prefix__g"><path d="M37.785 210.695c13.793 58.032 72.02 93.89 130.05 80.094 58.028-13.793 93.888-72.02 80.095-130.047-13.797-58.031-72.024-93.89-130.051-80.094-58.031 13.793-93.89 72.02-80.094 130.047"/></clipPath><clipPath id="prefix__h"><path d="M34 77h217v217H34zm0 0"/></clipPath><clipPath id="prefix__i"><path d="M62.762 315.77L12.805 105.625l210.144-49.957 49.957 210.144zm0 0"/></clipPath><clipPath id="prefix__j"><path d="M62.762 315.77l-50.66-213.118 213.113-50.66 50.664 213.113zm0 0"/></clipPath><clipPath id="prefix__k"><path d="M37.785 210.695c13.793 58.032 72.02 93.89 130.05 80.094 58.028-13.793 93.888-72.02 80.095-130.047-13.797-58.031-72.024-93.89-130.051-80.094-58.031 13.793-93.89 72.02-80.094 130.047"/></clipPath><clipPath id="prefix__l"><path d="M76 187h36v26H76zm0 0"/></clipPath><clipPath id="prefix__m"><path d="M80.746 212.871l-4.64-17.559 30.863-8.164 4.644 17.563zm0 0"/></clipPath><clipPath id="prefix__n"><path d="M80.746 212.871l-4.539-17.176 30.672-8.113 4.543 17.176zm0 0"/></clipPath><clipPath id="prefix__o"><path d="M141 123h26v36h-26zm0 0"/></clipPath><clipPath id="prefix__p"><path d="M158.29 158.613l-17.474-4.949 8.7-30.715 17.476 4.95zm0 0"/></clipPath><clipPath id="prefix__q"><path d="M158.29 158.613l-17.095-4.84 8.649-30.527 17.094 4.844zm0 0"/></clipPath><clipPath id="prefix__r"><path d="M93 140h83v83H93zm0 0"/></clipPath><clipPath id="prefix__s"><path d="M205.465 193.152l-60.715 59.77-51.906-52.727 60.715-59.77zm0 0"/></clipPath><clipPath id="prefix__t"><path d="M175.34 222.809l-81.528-22.563 60.25-59.312 21.278 81.875"/></clipPath><clipPath id="prefix__u"><path d="M152 199h36v36h-36zm0 0"/></clipPath><clipPath id="prefix__v"><path d="M187.215 222.2L174.27 234.94l-22.399-22.75 12.945-12.742zm0 0"/></clipPath><clipPath id="prefix__w"><path d="M187.215 222.2l-12.66 12.464-22.262-22.613 12.66-12.461zm0 0"/></clipPath><clipPath id="prefix__x"><path d="M167 215h57v56h-57zm0 0"/></clipPath><clipPath id="prefix__y"><path d="M196.516 203.77l38.097 40.523-40.527 38.102-38.098-40.528zm0 0"/></clipPath><clipPath id="prefix__z"><path d="M215.563 224.031c-10.52-11.191-28.122-11.734-39.313-1.215-11.188 10.524-11.734 28.121-1.21 39.313 10.519 11.191 28.12 11.734 39.312 1.215 11.187-10.52 11.734-28.121 1.21-39.313"/></clipPath><clipPath id="prefix__A"><path d="M167 215h57v56h-57zm0 0"/></clipPath><clipPath id="prefix__B"><path d="M196.516 203.77l38.015 40.437-40.437 38.012-38.016-40.434zm0 0"/></clipPath><clipPath id="prefix__C"><path d="M196.516 203.77l38.015 40.437-40.437 38.012-38.016-40.434zm0 0"/></clipPath><clipPath id="prefix__D"><path d="M215.523 223.988c-10.5-11.168-28.062-11.71-39.226-1.21-11.168 10.495-11.711 28.058-1.211 39.222 10.496 11.168 28.059 11.71 39.226 1.215 11.165-10.5 11.708-28.063 1.211-39.227"/></clipPath><clipPath id="prefix__E"><path d="M134 84h56v56h-56zm0 0"/></clipPath><clipPath id="prefix__F"><path d="M196.285 92.652l-14.84 53.61-53.605-14.84 14.84-53.606zm0 0"/></clipPath><clipPath id="prefix__G"><path d="M188.867 119.457c4.098-14.805-4.582-30.125-19.387-34.223-14.8-4.097-30.125 4.582-34.222 19.387-4.098 14.8 4.582 30.125 19.387 34.219 14.8 4.097 30.125-4.578 34.222-19.383"/></clipPath><clipPath id="prefix__H"><path d="M134 84h56v56h-56zm0 0"/></clipPath><clipPath id="prefix__I"><path d="M196.285 92.652l-14.805 53.489-53.488-14.805 14.805-53.488zm0 0"/></clipPath><clipPath id="prefix__J"><path d="M196.285 92.652l-14.805 53.489-53.488-14.805 14.805-53.488zm0 0"/></clipPath><clipPath id="prefix__K"><path d="M188.883 119.398c4.086-14.77-4.57-30.058-19.344-34.148-14.77-4.086-30.059 4.574-34.144 19.344-4.09 14.77 4.57 30.058 19.34 34.144 14.769 4.09 30.058-4.57 34.148-19.34"/></clipPath><clipPath id="prefix__L"><path d="M40 178h57v57H40zm0 0"/></clipPath><clipPath id="prefix__M"><path d="M69.977 167.254l38.097 40.523-40.527 38.098-38.098-40.523zm0 0"/></clipPath><clipPath id="prefix__N"><path d="M89.023 187.516c-10.52-11.192-28.12-11.735-39.312-1.215-11.188 10.52-11.734 28.12-1.211 39.312 10.52 11.192 28.121 11.735 39.313 1.215 11.187-10.523 11.734-28.121 1.21-39.312"/></clipPath><clipPath id="prefix__O"><path d="M41 178h56v57H41zm0 0"/></clipPath><clipPath id="prefix__P"><path d="M69.977 167.254l38.011 40.434-40.433 38.015-38.016-40.437zm0 0"/></clipPath><clipPath id="prefix__Q"><path d="M69.977 167.254l38.011 40.434-40.433 38.015-38.016-40.437zm0 0"/></clipPath><clipPath id="prefix__R"><path d="M88.984 187.469c-10.5-11.164-28.062-11.707-39.226-1.211-11.168 10.5-11.711 28.062-1.211 39.226 10.496 11.168 28.058 11.711 39.226 1.211 11.165-10.496 11.707-28.058 1.211-39.226"/></clipPath><clipPath id="prefix__S"><path d="M188 236h15v15h-15zm0 0"/></clipPath><clipPath id="prefix__T"><path d="M205.172 243.152l-9.95 9.793L185.43 243l9.949-9.793zm0 0"/></clipPath><clipPath id="prefix__U"><path d="M200.2 248.05a6.979 6.979 0 00.073-9.87 6.978 6.978 0 00-9.867-.078 6.975 6.975 0 00-.078 9.87 6.982 6.982 0 009.871.079"/></clipPath><clipPath id="prefix__V"><path d="M155 105h15v15h-15zm0 0"/></clipPath><clipPath id="prefix__W"><path d="M166.93 120.621l-13.453-3.723 3.726-13.453 13.453 3.723zm0 0"/></clipPath><clipPath id="prefix__X"><path d="M160.203 118.762a6.983 6.983 0 008.59-4.867 6.977 6.977 0 00-4.863-8.586 6.98 6.98 0 00-3.727 13.453"/></clipPath><clipPath id="prefix__Y"><path d="M62 200h15v15H62zm0 0"/></clipPath><clipPath id="prefix__Z"><path d="M78.914 207.637l-9.95 9.793-9.792-9.946 9.95-9.797zm0 0"/></clipPath><clipPath id="prefix__aa"><path d="M73.941 212.535a6.979 6.979 0 00.075-9.87 6.979 6.979 0 10-9.945 9.793 6.982 6.982 0 009.87.077"/></clipPath><clipPath id="prefix__ab"><path d="M101 238h46v20h-46zm0 0"/></clipPath><clipPath id="prefix__ac"><path d="M101.395 238.746l46.476 8.524-2.434 13.277-46.476-8.52zm0 0"/></clipPath><clipPath id="prefix__ad"><path d="M101.395 238.746l46.476 8.524-2.434 13.277-46.476-8.52zm0 0"/></clipPath><clipPath id="prefix__ae"><path d="M101.395 238.746l46.476 8.524-2.434 13.277-46.476-8.52zm0 0"/></clipPath><clipPath id="prefix__af"><path d="M107 246h1v1h-1zm0 0"/></clipPath><clipPath id="prefix__ag"><path d="M101.395 238.746l46.476 8.524-2.434 13.277-46.476-8.52zm0 0"/></clipPath><clipPath id="prefix__ah"><path d="M101.395 238.746l46.476 8.524-2.434 13.277-46.476-8.52zm0 0"/></clipPath><clipPath id="prefix__ai"><path d="M101.395 238.746l46.476 8.524-2.434 13.277-46.476-8.52zm0 0"/></clipPath><clipPath id="prefix__aj"><path d="M77 127h38v32H77zm0 0"/></clipPath><clipPath id="prefix__ak"><path d="M115.3 128.473l-33.718 33.101-9.457-9.637 33.719-33.097zm0 0"/></clipPath><clipPath id="prefix__al"><path d="M115.3 128.473l-33.718 33.101-9.457-9.637 33.719-33.097zm0 0"/></clipPath><clipPath id="prefix__am"><path d="M115.3 128.473l-33.718 33.101-9.457-9.637 33.719-33.097zm0 0"/></clipPath><clipPath id="prefix__an"><path d="M105 129h1v1h-1zm0 0"/></clipPath><clipPath id="prefix__ao"><path d="M115.3 128.473l-33.718 33.101-9.457-9.637 33.719-33.097zm0 0"/></clipPath><clipPath id="prefix__ap"><path d="M115.3 128.473l-33.718 33.101-9.457-9.637 33.719-33.097zm0 0"/></clipPath><clipPath id="prefix__aq"><path d="M115.3 128.473l-33.718 33.101-9.457-9.637 33.719-33.097zm0 0"/></clipPath><clipPath id="prefix__ar"><path d="M198 146h15v47h-15zm0 0"/></clipPath><clipPath id="prefix__as"><path d="M203.133 193.344l-7.977-46.57 13.305-2.282 7.976 46.574zm0 0"/></clipPath><clipPath id="prefix__at"><path d="M203.133 193.344l-7.977-46.57 13.305-2.282 7.976 46.574zm0 0"/></clipPath><clipPath id="prefix__au"><path d="M203.133 193.344l-7.977-46.57 13.305-2.282 7.976 46.574zm0 0"/></clipPath><clipPath id="prefix__av"><path d="M207 185h2v1h-2zm0 0"/></clipPath><clipPath id="prefix__aw"><path d="M203.133 193.344l-7.977-46.57 13.305-2.282 7.976 46.574zm0 0"/></clipPath><clipPath id="prefix__ax"><path d="M203.133 193.344l-7.977-46.57 13.305-2.282 7.976 46.574zm0 0"/></clipPath><clipPath id="prefix__ay"><path d="M203.133 193.344l-7.977-46.57 13.305-2.282 7.976 46.574zm0 0"/></clipPath><clipPath id="prefix__az"><path d="M278 297.129h17v21h-17zm0 0"/></clipPath><clipPath id="prefix__aA"><path d="M266.625 297.129H283v21h-16.375zm0 0"/></clipPath><clipPath id="prefix__aB"><path d="M241 297.129h17v21h-17zm0 0"/></clipPath><clipPath id="prefix__aC"><path d="M229.5 297.129H246v21h-16.5zm0 0"/></clipPath><clipPath id="prefix__aD"><path d="M204 297.129h16.875v21H204zm0 0"/></clipPath><clipPath id="prefix__aE"><path d="M192.375 297.129H209v21h-16.625zm0 0"/></clipPath><clipPath id="prefix__aF"><path d="M167 297.129h16.75v21H167zm0 0"/></clipPath><clipPath id="prefix__aG"><path d="M155.25 297.129H172v21h-16.75zm0 0"/></clipPath><clipPath id="prefix__aH"><path d="M130 297h17v22h-17zm0 0"/></clipPath><clipPath id="prefix__aI"><path d="M117.945 297.379l28.496-.504.371 20.996-28.496.504zm0 0"/></clipPath><clipPath id="prefix__aJ"><path d="M117.945 297.379l28.496-.504.371 20.996-28.496.504zm0 0"/></clipPath><clipPath id="prefix__aK"><path d="M117 297h18v22h-18zm0 0"/></clipPath><clipPath id="prefix__aL"><path d="M117.945 297.379l28.496-.504.371 20.996-28.496.504zm0 0"/></clipPath><clipPath id="prefix__aM"><path d="M117.945 297.379l28.496-.504.371 20.996-28.496.504zm0 0"/></clipPath><clipPath id="prefix__aN"><path d="M80 284h20v22H80zm0 0"/></clipPath><clipPath id="prefix__aO"><path d="M81.105 277.734l23.989 15.387-11.336 17.676-23.992-15.387zm0 0"/></clipPath><clipPath id="prefix__aP"><path d="M81.105 277.734l23.989 15.387-11.336 17.676-23.992-15.387zm0 0"/></clipPath><clipPath id="prefix__aQ"><path d="M70 278h20v22H70zm0 0"/></clipPath><clipPath id="prefix__aR"><path d="M81.105 277.734l23.989 15.387-11.336 17.676-23.992-15.387zm0 0"/></clipPath><clipPath id="prefix__aS"><path d="M81.105 277.734l23.989 15.387-11.336 17.676-23.992-15.387zm0 0"/></clipPath><clipPath id="prefix__aT"><path d="M42 264h20v21H42zm0 0"/></clipPath><clipPath id="prefix__aU"><path d="M48.059 255.742l20.527 19.77-14.566 15.125-20.528-19.77zm0 0"/></clipPath><clipPath id="prefix__aV"><path d="M48.059 255.742l20.527 19.77-14.566 15.125-20.528-19.77zm0 0"/></clipPath><clipPath id="prefix__aW"><path d="M33 256h21v20H33zm0 0"/></clipPath><clipPath id="prefix__aX"><path d="M48.059 255.742l20.527 19.77-14.566 15.125-20.528-19.77zm0 0"/></clipPath><clipPath id="prefix__aY"><path d="M48.059 255.742l20.527 19.77-14.566 15.125-20.528-19.77zm0 0"/></clipPath><clipPath id="prefix__aZ"><path d="M19 232h22v19H19zm0 0"/></clipPath><clipPath id="prefix__ba"><path d="M31.219 221.023l14.32 24.641-18.152 10.555-14.325-24.64zm0 0"/></clipPath><clipPath id="prefix__bb"><path d="M31.219 221.023l14.32 24.641-18.152 10.555-14.325-24.64zm0 0"/></clipPath><clipPath id="prefix__bc"><path d="M13 221h22v20H13zm0 0"/></clipPath><clipPath id="prefix__bd"><path d="M31.219 221.023l14.32 24.641-18.152 10.555-14.325-24.64zm0 0"/></clipPath><clipPath id="prefix__be"><path d="M31.219 221.023l14.32 24.641-18.152 10.555-14.325-24.64zm0 0"/></clipPath><clipPath id="prefix__bf"><path d="M8.879 184h21v16.438h-21zm0 0"/></clipPath><clipPath id="prefix__bg"><path d="M8.879 171.938h21V188h-21zm0 0"/></clipPath><clipPath id="prefix__bh"><path d="M18 126h21v20H18zm0 0"/></clipPath><clipPath id="prefix__bi"><path d="M46.379 127.648l-16.234 23.426-17.262-11.965 16.234-23.422zm0 0"/></clipPath><clipPath id="prefix__bj"><path d="M46.379 127.648l-16.234 23.426-17.262-11.965 16.234-23.422zm0 0"/></clipPath><clipPath id="prefix__bk"><path d="M25 116h21v20H25zm0 0"/></clipPath><clipPath id="prefix__bl"><path d="M46.379 127.648l-16.234 23.426-17.262-11.965 16.234-23.422zm0 0"/></clipPath><clipPath id="prefix__bm"><path d="M46.379 127.648l-16.234 23.426-17.262-11.965 16.234-23.422zm0 0"/></clipPath><clipPath id="prefix__bn"><path d="M44 90h20v21H44zm0 0"/></clipPath><clipPath id="prefix__bo"><path d="M72.52 97.332L51.426 116.5l-14.121-15.543 21.093-19.168zm0 0"/></clipPath><clipPath id="prefix__bp"><path d="M72.52 97.332L51.426 116.5l-14.121-15.543 21.093-19.168zm0 0"/></clipPath><clipPath id="prefix__bq"><path d="M53 82h20v20H53zm0 0"/></clipPath><clipPath id="prefix__br"><path d="M72.52 97.332L51.426 116.5l-14.121-15.543 21.093-19.168zm0 0"/></clipPath><clipPath id="prefix__bs"><path d="M72.52 97.332L51.426 116.5l-14.121-15.543 21.093-19.168zm0 0"/></clipPath><clipPath id="prefix__bt"><path d="M74 67h20v23H74zm0 0"/></clipPath><clipPath id="prefix__bu"><path d="M104.922 81.059L79.344 93.633l-9.266-18.848 25.578-12.57zm0 0"/></clipPath><clipPath id="prefix__bv"><path d="M104.922 81.059L79.344 93.633l-9.266-18.848 25.578-12.57zm0 0"/></clipPath><clipPath id="prefix__bw"><path d="M85 62h20v23H85zm0 0"/></clipPath><clipPath id="prefix__bx"><path d="M104.922 81.059L79.344 93.633l-9.266-18.848 25.578-12.57zm0 0"/></clipPath><clipPath id="prefix__by"><path d="M104.922 81.059L79.344 93.633l-9.266-18.848 25.578-12.57zm0 0"/></clipPath><clipPath id="prefix__bz"><path d="M117.785 57.016H135V78h-17.215zm0 0"/></clipPath><clipPath id="prefix__bA"><path d="M130 57.016h16.285V78H130zm0 0"/></clipPath><clipPath id="prefix__bB"><path d="M154 56h17v22h-17zm0 0"/></clipPath><clipPath id="prefix__bC"><path d="M182.512 78.012l-28.489-.856.633-20.992 28.489.86zm0 0"/></clipPath><clipPath id="prefix__bD"><path d="M182.512 78.012l-28.489-.856.633-20.992 28.489.86zm0 0"/></clipPath><clipPath id="prefix__bE"><path d="M166 56h18v22h-18zm0 0"/></clipPath><clipPath id="prefix__bF"><path d="M182.512 78.012l-28.489-.856.633-20.992 28.489.86zm0 0"/></clipPath><clipPath id="prefix__bG"><path d="M182.512 78.012l-28.489-.856.633-20.992 28.489.86zm0 0"/></clipPath><clipPath id="prefix__bH"><path d="M266 56h17v22h-17zm0 0"/></clipPath><clipPath id="prefix__bI"><path d="M294.164 78.012l-28.488-.856.633-20.992 28.488.86zm0 0"/></clipPath><clipPath id="prefix__bJ"><path d="M294.164 78.012l-28.488-.856.633-20.992 28.488.86zm0 0"/></clipPath><clipPath id="prefix__bK"><path d="M278 56h17v22h-17zm0 0"/></clipPath><clipPath id="prefix__bL"><path d="M294.164 78.012l-28.488-.856.633-20.992 28.488.86zm0 0"/></clipPath><clipPath id="prefix__bM"><path d="M294.164 78.012l-28.488-.856.633-20.992 28.488.86zm0 0"/></clipPath><clipPath id="prefix__bN"><path d="M229 56h17v22h-17zm0 0"/></clipPath><clipPath id="prefix__bO"><path d="M257.04 78.012l-28.49-.856.634-20.992 28.488.86zm0 0"/></clipPath><clipPath id="prefix__bP"><path d="M257.04 78.012l-28.49-.856.634-20.992 28.488.86zm0 0"/></clipPath><clipPath id="prefix__bQ"><path d="M241 56h17v22h-17zm0 0"/></clipPath><clipPath id="prefix__bR"><path d="M257.04 78.012l-28.49-.856.634-20.992 28.488.86zm0 0"/></clipPath><clipPath id="prefix__bS"><path d="M257.04 78.012l-28.49-.856.634-20.992 28.488.86zm0 0"/></clipPath><clipPath id="prefix__bT"><path d="M192 56h17v22h-17zm0 0"/></clipPath><clipPath id="prefix__bU"><path d="M220.523 78.012l-28.488-.856.633-20.992 28.488.86zm0 0"/></clipPath><clipPath id="prefix__bV"><path d="M220.523 78.012l-28.488-.856.633-20.992 28.488.86zm0 0"/></clipPath><clipPath id="prefix__bW"><path d="M204 56h18v22h-18zm0 0"/></clipPath><clipPath id="prefix__bX"><path d="M220.523 78.012l-28.488-.856.633-20.992 28.488.86zm0 0"/></clipPath><clipPath id="prefix__bY"><path d="M220.523 78.012l-28.488-.856.633-20.992 28.488.86zm0 0"/></clipPath></defs><g clip-path="url(#prefix__a)"><g clip-path="url(#prefix__b)"><path fill="#737373" d="M303.75 52.777V323.04H-.133V52.777zm0 0"/></g></g><g clip-path="url(#prefix__c)"><g clip-path="url(#prefix__d)"><path fill="none" d="M7.918 142.824C3.137 156.668 0 172.406 0 187.852c0 15.445 2.687 30.304 7.469 44.003.152.29.152.583.3.875 19.122 51.434 69.622 89.32 127.887 90.047H303.75v-270H135.781c-58.687.73-109.187 38.032-127.863 90.047" stroke="#000" stroke-width="3"/></g></g><g clip-path="url(#prefix__e)"><g clip-path="url(#prefix__f)"><g clip-path="url(#prefix__g)"><path fill="#a6a6a6" d="M62.762 315.77L12.867 105.883l209.887-49.895 49.894 209.887zm0 0"/></g></g></g><g clip-path="url(#prefix__h)"><g clip-path="url(#prefix__i)"><g clip-path="url(#prefix__j)"><g clip-path="url(#prefix__k)"><path fill="none" d="M37.785 210.695c13.793 58.032 72.02 93.89 130.051 80.094 58.027-13.793 93.887-72.02 80.094-130.047-13.797-58.031-72.024-93.89-130.051-80.094-58.031 13.793-93.89 72.02-80.094 130.047" stroke="#000" stroke-width="6"/></g></g></g></g><g clip-path="url(#prefix__l)"><g clip-path="url(#prefix__m)"><g clip-path="url(#prefix__n)"><path fill="#ffde59" d="M80.746 212.871l-4.5-17.027 30.863-8.164 4.504 17.03zm0 0"/></g></g></g><g clip-path="url(#prefix__o)"><g clip-path="url(#prefix__p)"><g clip-path="url(#prefix__q)"><path fill="#ffde59" d="M158.29 158.613l-16.946-4.797 8.699-30.718 16.95 4.8zm0 0"/></g></g></g><g clip-path="url(#prefix__r)"><g clip-path="url(#prefix__s)"><g clip-path="url(#prefix__t)"><path fill="#ffde59" d="M205.465 193.152l-60.184 59.246-51.379-52.195 60.18-59.246zm0 0"/></g></g></g><g clip-path="url(#prefix__u)"><g clip-path="url(#prefix__v)"><g clip-path="url(#prefix__w)"><path fill="#ffde59" d="M187.215 222.2l-12.555 12.355-22.394-22.75 12.55-12.356zm0 0"/></g></g></g><g clip-path="url(#prefix__x)"><g clip-path="url(#prefix__y)"><g clip-path="url(#prefix__z)"><path fill="#ffde59" d="M196.516 203.77l38.097 40.523-40.527 38.102-38.098-40.528zm0 0"/></g></g></g><g clip-path="url(#prefix__A)"><g clip-path="url(#prefix__B)"><g clip-path="url(#prefix__C)"><g clip-path="url(#prefix__D)"><path d="M213.34 226.04c-3.805-4.048-8.434-6.532-13.895-7.454l.996-5.902c6.786 1.144 12.54 4.226 17.262 9.254zm-16.55-7.759c-5.548-.332-10.618 1.04-15.212 4.106l-3.324-4.98c5.707-3.813 12.004-5.512 18.89-5.102zm-17.349 5.703c-.37.313-.738.637-1.093.973-3.664 3.441-6.055 7.602-7.172 12.48l-5.836-1.34c1.39-6.058 4.36-11.226 8.906-15.503.441-.414.895-.817 1.356-1.203zm-8.722 16.09c-.653 5.524.418 10.668 3.215 15.43l-5.164 3.031c-3.473-5.922-4.805-12.308-3.997-19.164zm4.68 17.645c.578.777 1.199 1.523 1.867 2.234 3.09 3.285 6.785 5.555 11.09 6.809l-1.672 5.746c-5.352-1.555-9.946-4.375-13.782-8.457a31.185 31.185 0 01-2.312-2.766zm15.558 9.648c5.469.973 10.668.203 15.586-2.308l2.719 5.336c-6.11 3.117-12.563 4.074-19.352 2.867zm17.898-3.648a24.942 24.942 0 003.407-2.688c2.914-2.738 5.035-5.98 6.363-9.719l5.645 2.008c-1.657 4.649-4.29 8.672-7.907 12.075a30.774 30.774 0 01-4.222 3.328zm10.528-14.965c1.289-5.402.82-10.637-1.399-15.7l5.485-2.402c2.758 6.29 3.336 12.786 1.738 19.489zm-2.602-18.086a24.895 24.895 0 00-3.441-4.629l4.363-4.101a30.66 30.66 0 014.266 5.746zm0 0"/></g></g></g></g><g clip-path="url(#prefix__E)"><g clip-path="url(#prefix__F)"><g clip-path="url(#prefix__G)"><path fill="#ffde59" d="M196.285 92.652l-14.84 53.61-53.605-14.84 14.84-53.606zm0 0"/></g></g></g><g clip-path="url(#prefix__H)"><g clip-path="url(#prefix__I)"><g clip-path="url(#prefix__J)"><g clip-path="url(#prefix__K)"><path d="M185.996 118.598c1.48-5.352 1.2-10.598-.851-15.743l5.562-2.218c2.547 6.394 2.898 12.914 1.059 19.558zm-1.973-18.172c-2.597-4.91-6.398-8.531-11.406-10.864l2.528-5.43c6.222 2.9 10.949 7.395 14.171 13.497zm-13.882-11.86c-.461-.156-.926-.3-1.399-.43-4.844-1.34-9.64-1.222-14.39.356l-1.887-5.683c5.898-1.961 11.86-2.11 17.875-.442.582.16 1.16.34 1.73.531zm-18.278.907c-5.058 2.308-8.898 5.898-11.515 10.761l-5.274-2.84c3.254-6.042 8.024-10.5 14.301-13.367zm-12.648 13.164a25.964 25.964 0 00-.938 2.754c-1.203 4.347-1.222 8.687-.054 13.015l-5.786 1.555c-1.445-5.379-1.421-10.77.07-16.168.321-1.16.712-2.3 1.161-3.41zm-.164 18.304c2.015 5.18 5.37 9.22 10.07 12.121l-3.144 5.094c-5.84-3.601-10.008-8.617-12.504-15.047zm12.418 13.399a25.015 25.015 0 004.066 1.515c3.856 1.067 7.723 1.196 11.61.391l1.218 5.863c-4.832 1-9.64.84-14.425-.484a30.36 30.36 0 01-5.04-1.879zm18.258 1.222c5.285-1.707 9.511-4.824 12.687-9.347l4.902 3.437c-3.941 5.621-9.191 9.493-15.75 11.61zm14.101-11.62a24.886 24.886 0 002.168-5.344l5.77 1.597a30.639 30.639 0 01-2.692 6.633zm0 0"/></g></g></g></g><g clip-path="url(#prefix__L)"><g clip-path="url(#prefix__M)"><g clip-path="url(#prefix__N)"><path fill="#ffde59" d="M69.977 167.254l38.097 40.523-40.527 38.098-38.098-40.523zm0 0"/></g></g></g><g clip-path="url(#prefix__O)"><g clip-path="url(#prefix__P)"><g clip-path="url(#prefix__Q)"><g clip-path="url(#prefix__R)"><path d="M86.8 189.52c-3.804-4.047-8.437-6.528-13.894-7.45l.996-5.906c6.785 1.145 12.54 4.23 17.262 9.258zm-16.55-7.754c-5.547-.332-10.617 1.035-15.21 4.105l-3.325-4.98c5.707-3.813 12.004-5.512 18.89-5.102zm-17.348 5.703c-.37.312-.738.636-1.093.972-3.664 3.442-6.055 7.602-7.172 12.48l-5.836-1.339c1.39-6.059 4.36-11.23 8.906-15.504.441-.414.895-.816 1.355-1.203zm-8.722 16.09c-.653 5.523.418 10.664 3.215 15.43l-5.165 3.03c-3.472-5.921-4.804-12.308-3.996-19.164zm4.68 17.644c.578.777 1.199 1.52 1.867 2.23 3.09 3.29 6.785 5.56 11.09 6.81l-1.676 5.75c-5.348-1.56-9.942-4.376-13.778-8.458a31.185 31.185 0 01-2.312-2.765zm15.558 9.649c5.469.968 10.664.203 15.586-2.309l2.719 5.336c-6.114 3.117-12.563 4.074-19.352 2.867zm17.898-3.653a24.914 24.914 0 003.407-2.683c2.914-2.743 5.035-5.98 6.363-9.72l5.64 2.009c-1.652 4.648-4.285 8.672-7.906 12.074a31.107 31.107 0 01-4.218 3.328zm10.528-14.96c1.285-5.403.82-10.637-1.399-15.7l5.485-2.402c2.754 6.289 3.336 12.785 1.738 19.488zm-2.602-18.087a24.794 24.794 0 00-3.441-4.632l4.363-4.098a30.633 30.633 0 014.266 5.742zm0 0"/></g></g></g></g><g clip-path="url(#prefix__S)"><g clip-path="url(#prefix__T)"><g clip-path="url(#prefix__U)"><path fill="#707070" d="M205.172 243.152l-9.95 9.793L185.43 243l9.949-9.793zm0 0"/></g></g></g><g clip-path="url(#prefix__V)"><g clip-path="url(#prefix__W)"><g clip-path="url(#prefix__X)"><path fill="#707070" d="M166.93 120.621l-13.453-3.723 3.726-13.453 13.453 3.723zm0 0"/></g></g></g><g clip-path="url(#prefix__Y)"><g clip-path="url(#prefix__Z)"><g clip-path="url(#prefix__aa)"><path fill="#707070" d="M78.914 207.637l-9.95 9.793-9.792-9.946 9.95-9.797zm0 0"/></g></g></g><g clip-path="url(#prefix__ab)"><g clip-path="url(#prefix__ac)"><g clip-path="url(#prefix__ad)"><g clip-path="url(#prefix__ae)"><path fill="#fff" d="M102.074 239.27a.112.112 0 00-.035.105c-.11.094-.309-.031-.383.16-.37.258-.308.602-.183.957.359.985.87 1.89 1.437 2.766 2.031 3.137 4.621 5.691 7.684 7.812 5.347 3.696 11.3 5.164 17.703 5.012 2.969-.07 5.875-.664 8.75-1.394 1.691-.43 3.351-.961 5.023-1.45l.157-.133c.078.008.168 0 .222.04h.004c.043.03-.004.093-.062.113-.41.554-.922 1.004-1.453 1.426-.368.289-.704.597-.938 1.004-.793.613-.96 1.398-.5 2.19 1.953-.374 3.336-1.636 4.637-3.03.484-.52 1-1.004 1.511-1.496 1.223-1.18.98-1.079.672-2.43-.07-.3-.207-.582-.37-.848-.063-.097-.126-.18-.247-.203-.098-.34-.387-.394-.668-.437-.844-.121-1.687-.235-2.531-.348-.16-.129-.348-.133-.535-.129-.153-.137-.344-.137-.531-.144-.094-.118-.235-.106-.36-.145-1.656-.555-3.226-1.29-4.668-2.293-.105-.074-.222-.14-.332-.21-.133-.087-.281-.185-.422-.071-.101.086-.113.277-.054.379.265.437.218.972.437 1.422.098.199.266.34.441.48 1.344 1.102 2.844 1.93 4.43 2.61.14.058.297.097.422.183.145.105.074.23-.027.336-.168-.05-.301-.004-.41.133-.16-.016-.32-.02-.434.133-.035-.028-.063-.02-.082.02-.156-.02-.3-.017-.41.12-.11.008-.223.004-.324.031-1.149.297-2.293.614-3.442.895-1.047.258-2.098.484-3.144.723-.286.027-.567.046-.848.086-2.742.375-5.48.41-8.219.03-.976-.136-1.949-.304-2.926-.456-.164-.137-.359-.13-.558-.13-.153-.132-.34-.132-.531-.128-.137-.14-.317-.125-.493-.14-.082-.102-.191-.114-.308-.094-.035-.036-.07-.047-.117-.028-.09-.11-.235-.101-.352-.148-.594-.219-1.223-.328-1.789-.621-.063.043-.246.035-.047.168.133.09.133.132.09.164-.043.023-.117.039-.172.054-1.852-.75-3.59-1.714-5.266-2.796-.144-.118-.293-.23-.437-.348l-2.621-2.059a.173.173 0 00-.067-.101.171.171 0 00-.074-.028.162.162 0 00-.14-.129c-.016-.074-.063-.113-.137-.125-.016-.078-.063-.117-.14-.128-.016-.075-.06-.122-.137-.13-.012-.077-.06-.12-.133-.128h-.004c-.008-.078-.055-.121-.13-.13l-.003-.003a1.338 1.338 0 00-.129-.129l-.004-.004c-.012-.078-.055-.121-.129-.133l-.004-.004c-.011-.074-.054-.117-.129-.129l-.007-.003v-.004.004c-.008-.079-.051-.121-.125-.133h-.004c-.012-.078-.055-.121-.13-.133h-.003c-.008-.078-.05-.125-.129-.137-.375-.441-.746-.883-1.121-1.324-.266-.168-.422-.437-.606-.68a.242.242 0 01.192-.136c-.121-.196-.227-.403-.426-.532a.383.383 0 01-.164-.14c.055.047.106.094.164.14-.027-.07-.062-.136-.144-.136 0-.118-.059-.2-.153-.258 0-.078-.027-.13-.105-.149-.02-.074-.051-.136-.13-.16a.114.114 0 00-.05-.09 1.502 1.502 0 00-.375-.554c-.066-.145-.129-.297-.266-.395-.007-.11-.082-.18-.148-.258-.266-.578-.633-1.105-.793-1.77-.184.157-.43.079-.508.306zm38.305 12.652h-.004v.004l-.004-.004h.004v-.004s0 .004.004.004zm-33.645-5.961l.024.035s-.004-.004-.008-.004c-.008-.012-.02-.02-.027-.031h.011zm1.72 1.148v.004c-.009.004-.009.008-.013.012l-.015.008.027-.02c0-.004-.004-.004-.004-.004h.004zm-1.79-1.136c.02-.004.04-.008.055-.008.008.008.02.015.027.023a.116.116 0 00-.082-.015zm.14.082c.012.007.02.02.028.03 0 0 .004 0 .004.005-.012-.012-.02-.028-.031-.035zm-4.613-5.582h-.004l-.003-.004c.004 0 0-.004 0-.004.004 0 .004.004.007.008zm.118.257c0 .004 0 .008.004.012 0-.004-.004-.008-.004-.012zm2.164 1.833a.19.19 0 00-.043.015v-.027l.043.012zm-.239-.442a.13.13 0 01-.03-.07h.003a.14.14 0 00.027.07zm0 0"/></g></g></g></g><g clip-path="url(#prefix__af)"><g clip-path="url(#prefix__ag)"><g clip-path="url(#prefix__ah)"><g clip-path="url(#prefix__ai)"><path fill="#fff" d="M107.363 246.074c.043.047.086.09.13.133-.013-.078-.055-.121-.13-.133zm0 0"/></g></g></g></g><g clip-path="url(#prefix__aj)"><g clip-path="url(#prefix__ak)"><g clip-path="url(#prefix__al)"><g clip-path="url(#prefix__am)"><path fill="#fff" d="M114.484 128.727a.107.107 0 00-.07-.086c-.008-.145.207-.239.09-.407.004-.453-.313-.601-.676-.699-1.012-.273-2.047-.379-3.09-.418-3.73-.144-7.312.5-10.808 1.785-6.102 2.246-10.727 6.27-14.29 11.594-1.652 2.469-2.835 5.184-3.894 7.957-.625 1.629-1.144 3.293-1.707 4.942.004.07.012.136.02.207-.055.054-.098.132-.16.16h-.004c-.051.015-.079-.059-.055-.117-.219-.653-.293-1.333-.332-2.012-.024-.465-.082-.914-.278-1.344-.05-1-.593-1.59-1.507-1.668-.817 1.816-.582 3.668-.188 5.535.145.696.242 1.399.352 2.098.261 1.68.32 1.422 1.601 1.95.285.116.594.163.907.183.113.004.218 0 .304-.082.336.113.547-.09.742-.297.586-.621 1.164-1.246 1.743-1.871.199-.051.308-.203.414-.364.199-.046.308-.199.425-.347.145-.012.22-.133.325-.211 1.406-1.035 2.91-1.899 4.558-2.496.125-.047.246-.102.367-.153.145-.058.313-.125.297-.304-.011-.137-.16-.254-.277-.262-.512-.035-.918-.383-1.41-.46-.219-.036-.434.019-.653.081-1.671.465-3.214 1.215-4.68 2.125-.132.078-.253.184-.394.234-.168.06-.23-.07-.261-.214.14-.106.18-.243.128-.41.11-.122.204-.25.141-.43.043-.016.055-.043.031-.082.106-.114.188-.239.14-.406.056-.094.122-.18.161-.282.418-1.11.817-2.226 1.246-3.328.39-1.004.813-1.992 1.223-2.988.14-.246.289-.492.418-.742 1.27-2.457 2.816-4.72 4.703-6.739.676-.718 1.371-1.418 2.059-2.129.207-.054.312-.218.425-.382.2-.047.305-.203.41-.36.196-.031.29-.187.399-.32.129-.012.207-.09.258-.2.047-.007.074-.034.086-.081.144-.012.222-.133.324-.203.52-.36.973-.813 1.539-1.106.004-.074.113-.219-.11-.133-.152.059-.187.032-.183-.023 0-.047.035-.117.05-.172 1.68-1.082 3.47-1.945 5.321-2.691.176-.055.356-.11.535-.16l3.192-.962c.043.02.082.02.12.004a.176.176 0 00.067-.043c.07.028.133.012.184-.039.07.028.133.012.183-.043.07.032.133.016.184-.039.07.032.133.02.183-.035.07.031.133.02.184-.039h.004c.066.035.129.024.18-.031h.004c.058-.008.12-.02.18-.031l.007-.004c.067.035.125.027.18-.032h.004c.07.036.129.028.183-.03h.004c.07.034.13.027.184-.032h.004c.066.039.129.027.18-.027h.003c.07.035.133.023.184-.032l1.726-.152c.293-.125.602-.094.907-.105a.232.232 0 010 .234c.23.016.46.047.683-.043a.383.383 0 01.207-.055c-.066.02-.136.035-.207.055.075.02.145.027.196-.04.093.071.195.067.296.024.063.047.122.051.18 0 .074.028.14.04.207-.011a.123.123 0 00.106.007c.222.055.441.063.664.012.16.031.32.067.48.012.094.055.195.035.293.023.625.121 1.27.125 1.903.371-.02-.234.183-.39.046-.59zM82.09 152.766c0-.004 0 0 0 0 0-.004.004-.004.004-.004l-.004.004h.008c-.004.004-.008 0-.008 0zm24.238-24.078h-.043c.004-.004.008-.004.012-.004.012-.004.023-.004.035-.008 0 .004 0 .008-.004.012zm-1.93.746v-.004c0-.008-.003-.012-.003-.016v-.02l.003.036h.004s-.004 0-.004.004zm1.961-.809c-.007.016-.015.035-.023.047a.139.139 0 01-.04.008c.028-.008.048-.028.063-.055zm-.144.066c-.016.004-.031.004-.047.008v-.004c.016 0 .031 0 .047-.004zm7.215-.558c0-.004.004-.004.004-.004h.004s.003 0 .003.004h-.011zm-.278-.055c-.004 0-.004-.004-.007-.004 0 .004.003.004.007.004zm-2.742.715c.004-.012.008-.023.012-.04.008.005.012.009.02.013-.008.011-.02.02-.032.027zm.496.062c.024-.003.051 0 .074.012v.004c-.027-.012-.05-.02-.074-.016zm0 0"/></g></g></g></g><g clip-path="url(#prefix__an)"><g clip-path="url(#prefix__ao)"><g clip-path="url(#prefix__ap)"><g clip-path="url(#prefix__aq)"><path fill="#fff" d="M105.875 129.133c-.063.012-.121.023-.184.031.07.035.133.027.184-.031zm0 0"/></g></g></g></g><g clip-path="url(#prefix__ar)"><g clip-path="url(#prefix__as)"><g clip-path="url(#prefix__at)"><g clip-path="url(#prefix__au)"><path fill="#fff" d="M203.39 192.527a.11.11 0 00.11-.004c.125.075.078.301.281.305.371.258.672.086.961-.156.801-.676 1.477-1.469 2.106-2.3 2.246-2.985 3.757-6.294 4.691-9.9 1.633-6.296.965-12.386-1.379-18.35-1.09-2.763-2.644-5.286-4.32-7.735-.985-1.442-2.05-2.817-3.086-4.223-.063-.031-.121-.066-.18-.098-.015-.078-.058-.156-.039-.222v-.004c.016-.05.09-.031.13.02.66.195 1.257.519 1.835.874.398.246.8.453 1.266.536.851.535 1.644.421 2.23-.282-1.027-1.707-2.684-2.57-4.441-3.312-.657-.278-1.29-.598-1.926-.906-1.527-.743-1.348-.551-2.512.203a2.887 2.887 0 00-.668.64c-.07.09-.125.18-.105.301-.285.207-.239.496-.18.777.176.836.36 1.664.543 2.496-.07.196-.008.372.063.547-.075.192-.012.371.042.547-.074.13-.015.258-.011.387.05 1.746-.098 3.477-.547 5.172-.031.129-.055.258-.082.387-.035.156-.078.328.078.418.117.07.3.011.375-.079.32-.398.836-.539 1.184-.898.152-.16.23-.367.3-.578.575-1.64.836-3.336.926-5.059.008-.152-.008-.312.031-.457.047-.172.188-.152.325-.094.007.176.097.29.261.34.043.16.094.309.278.364-.016.043.004.066.047.07.03.152.09.289.253.344.047.101.079.207.141.293.672.976 1.363 1.941 2.024 2.925.601.891 1.175 1.801 1.757 2.704.125.257.239.515.375.77 1.293 2.44 2.266 5.003 2.852 7.702.207.965.387 1.934.578 2.903-.074.203 0 .386.074.57-.074.191-.008.367.059.543-.086.18-.008.344.039.512-.066.109-.043.218.016.324-.024.043-.016.082.015.117-.07.125-.015.254-.015.383-.004.633.109 1.261.03 1.894.06.043.118.215.173-.015.035-.157.078-.172.12-.141.04.031.079.098.114.145-.07 1.992-.379 3.957-.82 5.902-.059.176-.114.355-.172.531-.344 1.059-.692 2.113-1.031 3.172a.171.171 0 00-.075.094c-.004.027-.007.054 0 .082a.158.158 0 00-.07.176c-.066.039-.09.097-.074.171-.067.04-.086.098-.07.176-.067.04-.094.098-.075.172-.07.04-.093.094-.074.168l-.004.004c-.066.035-.094.094-.074.168v.004c-.031.05-.055.11-.078.164l-.004.008c-.066.035-.094.09-.078.164v.008c-.07.035-.094.09-.078.164l-.004.004v0c-.07.035-.094.093-.078.168l-.004.003c-.067.036-.094.09-.078.168-.07.036-.098.094-.082.168-.286.504-.57 1.004-.86 1.508-.062.309-.265.547-.43.805a.242.242 0 01-.093-.031.222.222 0 01-.102-.106c-.14.184-.297.352-.351.586a.39.39 0 01-.075.203c.024-.066.051-.133.075-.203-.059.05-.106.102-.078.184-.11.039-.168.12-.192.23-.07.024-.11.07-.101.149-.063.043-.11.093-.106.175a.11.11 0 00-.066.082 1.472 1.472 0 00-.39.54c-.118.113-.235.226-.282.386-.102.047-.14.14-.188.23-.457.446-.824.973-1.39 1.352.207.117.218.375.46.371zm-1.288-40.316v0c0 .004-.004.004-.004.004 0-.004.004-.004.004-.004zm5.968 33.64c.008-.011.016-.023.028-.035-.004.004-.004.008-.004.012l-.02.031s0-.004-.004-.007zm.489-2.011l.004.004c.003 0 .007.004.011.004l.016.011-.028-.015h-.003v-.004zm-.454 2.07c-.011-.015-.02-.031-.027-.047.004-.011.012-.023.016-.035a.103.103 0 00.011.082zm.028-.156c.008-.012.012-.027.02-.04l.003-.003c-.008.016-.015.031-.023.043zm-3.653 6.25v.004l-.003.004h-.004c0-.004.004-.004.007-.008zm.2-.2c.004 0 .007-.003.007-.003-.003 0-.003.004-.007.004zm.976-2.66a.105.105 0 00.028.032l-.024.012c0-.016-.004-.028-.004-.043zm-.332.376a.138.138 0 01-.054.05.228.228 0 00.054-.05zm0 0"/></g></g></g></g><g clip-path="url(#prefix__av)"><g clip-path="url(#prefix__aw)"><g clip-path="url(#prefix__ax)"><g clip-path="url(#prefix__ay)"><path fill="#fff" d="M207.96 185.223c.028-.055.052-.114.08-.164-.071.035-.095.09-.08.164zm0 0"/></g></g></g></g><path transform="matrix(.74987 .00605 -.00605 .74998 136.49 77.868)" fill="none" d="M-.002 1.999L223.036 2" stroke="#000" stroke-width="4"/><path transform="matrix(.75062 -.00364 .00364 .75 135.126 291.168)" fill="none" d="M0 2l224.814.002" stroke="#000" stroke-width="4"/><g clip-path="url(#prefix__az)"><path fill="#38b6ff" d="M294.695 306.992l-8.492-9.492a.946.946 0 00-.703-.316h-5.664a.95.95 0 00-.863.562.956.956 0 00.164 1.02l7.922 8.863-7.922 8.855a.95.95 0 00.7 1.586h5.663c.266 0 .52-.117.703-.312l8.492-9.496c.32-.36.32-.91 0-1.27zm0 0"/></g><g clip-path="url(#prefix__aA)"><path fill="#38b6ff" d="M282.426 306.992l-8.492-9.492a.94.94 0 00-.704-.316h-5.66a.947.947 0 00-.703 1.582l7.926 8.863-7.926 8.855a.955.955 0 00-.16 1.024.94.94 0 00.863.562h5.66c.27 0 .52-.117.704-.312l8.492-9.496a.95.95 0 000-1.27zm0 0"/></g><g clip-path="url(#prefix__aB)"><path fill="#38b6ff" d="M257.57 306.992l-8.492-9.492a.946.946 0 00-.703-.316h-5.664a.95.95 0 00-.863.562.962.962 0 00.16 1.02l7.926 8.863-7.926 8.855a.95.95 0 00.703 1.586h5.664c.266 0 .52-.117.703-.312l8.492-9.496c.32-.36.32-.91 0-1.27zm0 0"/></g><g clip-path="url(#prefix__aC)"><path fill="#38b6ff" d="M245.3 306.992l-8.491-9.492a.94.94 0 00-.704-.316h-5.66a.947.947 0 00-.703 1.582l7.926 8.863-7.926 8.855a.955.955 0 00-.16 1.024.94.94 0 00.863.562h5.66c.27 0 .52-.117.704-.312l8.492-9.496a.95.95 0 000-1.27zm0 0"/></g><g clip-path="url(#prefix__aD)"><path fill="#5ce1e6" d="M220.445 306.992l-8.492-9.492a.946.946 0 00-.703-.316h-5.664a.95.95 0 00-.863.562.956.956 0 00.164 1.02l7.922 8.863-7.922 8.855a.95.95 0 00.7 1.586h5.663c.266 0 .52-.117.703-.312l8.492-9.496c.32-.36.32-.91 0-1.27zm0 0"/></g><g clip-path="url(#prefix__aE)"><path fill="#5ce1e6" d="M208.176 306.992l-8.492-9.492a.94.94 0 00-.704-.316h-5.66a.947.947 0 00-.703 1.582l7.926 8.863-7.926 8.855a.955.955 0 00-.16 1.024.94.94 0 00.863.562h5.66c.27 0 .52-.117.704-.312l8.492-9.496a.95.95 0 000-1.27zm0 0"/></g><g clip-path="url(#prefix__aF)"><path fill="#38b6ff" d="M183.32 306.992l-8.492-9.492a.946.946 0 00-.703-.316h-5.664a.95.95 0 00-.863.562.956.956 0 00.164 1.02l7.922 8.863-7.922 8.855a.95.95 0 00.7 1.586h5.663c.266 0 .52-.117.703-.312l8.492-9.496c.32-.36.32-.91 0-1.27zm0 0"/></g><g clip-path="url(#prefix__aG)"><path fill="#38b6ff" d="M171.05 306.992l-8.491-9.492a.94.94 0 00-.704-.316h-5.66a.947.947 0 00-.703 1.582l7.926 8.863-7.926 8.855a.955.955 0 00-.16 1.024.94.94 0 00.863.562h5.66c.27 0 .52-.117.704-.312l8.492-9.496a.95.95 0 000-1.27zm0 0"/></g><g clip-path="url(#prefix__aH)"><g clip-path="url(#prefix__aI)"><g clip-path="url(#prefix__aJ)"><path fill="#38b6ff" d="M146.184 306.746l-8.66-9.344a.948.948 0 00-.708-.3l-5.66.097a.947.947 0 00-.851.578.956.956 0 00.175 1.02l8.083 8.719-7.77 8.996a.952.952 0 00.73 1.574l5.665-.102a.96.96 0 00.695-.324l8.324-9.644a.954.954 0 00-.023-1.27zm0 0"/></g></g></g><g clip-path="url(#prefix__aK)"><g clip-path="url(#prefix__aL)"><g clip-path="url(#prefix__aM)"><path fill="#38b6ff" d="M133.918 306.96l-8.66-9.339a.937.937 0 00-.707-.305l-5.66.102a.95.95 0 00-.856.578.95.95 0 00.18 1.016l8.082 8.718-7.77 8.997a.959.959 0 00-.14 1.027c.16.34.5.555.87.547l5.665-.098a.979.979 0 00.695-.328l8.324-9.64a.96.96 0 00-.023-1.274zm0 0"/></g></g></g><g clip-path="url(#prefix__aN)"><g clip-path="url(#prefix__aO)"><g clip-path="url(#prefix__aP)"><path fill="#38b6ff" d="M99.406 301.191l-2.023-12.574a.945.945 0 00-.422-.644l-4.766-3.059a.949.949 0 00-1.445.953l1.887 11.738-11.453 3.176a.951.951 0 00-.266 1.715l4.766 3.059c.226.144.5.183.761.113l12.274-3.406a.954.954 0 00.687-1.07zm0 0"/></g></g></g><g clip-path="url(#prefix__aQ)"><g clip-path="url(#prefix__aR)"><g clip-path="url(#prefix__aS)"><path fill="#38b6ff" d="M89.078 294.57l-2.023-12.578a.94.94 0 00-.422-.644l-4.766-3.055a.942.942 0 00-1.027.004.966.966 0 00-.418.95l1.887 11.733-11.454 3.18a.954.954 0 00-.687.774.945.945 0 00.422.937l4.77 3.059c.222.144.5.183.757.117l12.278-3.406a.957.957 0 00.683-1.07zm0 0"/></g></g></g><g clip-path="url(#prefix__aT)"><g clip-path="url(#prefix__aU)"><g clip-path="url(#prefix__aV)"><path fill="#5ce1e6" d="M61.434 282.32l.468-12.73a.94.94 0 00-.289-.715l-4.078-3.93a.945.945 0 00-1.012-.191.955.955 0 00-.593.848l-.438 11.878-11.851.883a.942.942 0 00-.825.625.94.94 0 00.23 1.004l4.079 3.926a.951.951 0 00.723.262l12.703-.946a.957.957 0 00.883-.914zm0 0"/></g></g></g><g clip-path="url(#prefix__aW)"><g clip-path="url(#prefix__aX)"><g clip-path="url(#prefix__aY)"><path fill="#5ce1e6" d="M52.598 273.809l.468-12.73a.96.96 0 00-.289-.716l-4.078-3.925a.948.948 0 00-1.605.652l-.438 11.879-11.851.883a.948.948 0 00-.825.625.94.94 0 00.23 1.003l4.08 3.93a.96.96 0 00.722.262l12.703-.95a.957.957 0 00.883-.913zm0 0"/></g></g></g><g clip-path="url(#prefix__aZ)"><g clip-path="url(#prefix__ba)"><g clip-path="url(#prefix__bb)"><path fill="#38b6ff" d="M36.793 250.25l3.941-12.113a.938.938 0 00-.082-.766l-2.843-4.894a.95.95 0 00-1.723.187L32.41 243.97l-11.64-2.399a.947.947 0 00-.965.375.944.944 0 00-.055 1.028l2.848 4.894c.132.235.359.395.62.45l12.477 2.574a.95.95 0 001.098-.641zm0 0"/></g></g></g><g clip-path="url(#prefix__bc)"><g clip-path="url(#prefix__bd)"><g clip-path="url(#prefix__be)"><path fill="#38b6ff" d="M30.629 239.645l3.941-12.114a.938.938 0 00-.082-.765l-2.843-4.895a.946.946 0 00-.922-.465.954.954 0 00-.801.653l-3.676 11.304-11.644-2.402a.958.958 0 00-.961.375.943.943 0 00-.055 1.031l2.844 4.895c.136.23.363.39.625.449l12.476 2.57a.952.952 0 001.098-.636zm0 0"/></g></g></g><g clip-path="url(#prefix__bf)"><path fill="#38b6ff" d="M20.016 200.004l9.492-8.492a.934.934 0 00.316-.703v-5.66a.945.945 0 00-.562-.864.946.946 0 00-1.02.16l-8.863 7.926-8.856-7.926a.955.955 0 00-1.023-.16.945.945 0 00-.563.863v5.66c0 .27.114.524.313.704l9.496 8.492a.95.95 0 001.27 0zm0 0"/></g><g clip-path="url(#prefix__bg)"><path fill="#38b6ff" d="M20.016 187.738l9.492-8.496a.932.932 0 00.316-.699v-5.664a.95.95 0 00-.562-.863.961.961 0 00-1.02.16l-8.863 7.926-8.856-7.926a.95.95 0 00-1.586.703v5.664c0 .266.114.52.313.7l9.496 8.495c.36.32.91.32 1.27 0zm0 0"/></g><g clip-path="url(#prefix__bh)"><g clip-path="url(#prefix__bi)"><g clip-path="url(#prefix__bj)"><path fill="#38b6ff" d="M22.281 145.098l12.64-1.57a.951.951 0 00.661-.4l3.227-4.651a.95.95 0 00-.903-1.48L26.11 138.46l-2.765-11.559a.952.952 0 00-1.703-.324l-3.227 4.652a.948.948 0 00-.14.758l2.964 12.387a.949.949 0 001.043.723zm0 0"/></g></g></g><g clip-path="url(#prefix__bk)"><g clip-path="url(#prefix__bl)"><g clip-path="url(#prefix__bm)"><path fill="#38b6ff" d="M29.27 135.016l12.64-1.575a.933.933 0 00.66-.394l3.223-4.656a.935.935 0 00.031-1.028.953.953 0 00-.93-.449l-11.796 1.465-2.766-11.559a.963.963 0 00-.75-.715.941.941 0 00-.953.387l-3.227 4.656a.936.936 0 00-.14.754l2.965 12.391a.95.95 0 001.043.723zm0 0"/></g></g></g><g clip-path="url(#prefix__bn)"><g clip-path="url(#prefix__bo)"><g clip-path="url(#prefix__bp)"><path fill="#5ce1e6" d="M45.11 108.906l12.671 1.317a.941.941 0 00.73-.239l4.192-3.808a.948.948 0 00.258-.996.954.954 0 00-.805-.649l-11.824-1.226-.09-11.887a.948.948 0 00-1.586-.7l-4.191 3.805a.963.963 0 00-.309.707l.098 12.739c.004.484.375.89.855.937zm0 0"/></g></g></g><g clip-path="url(#prefix__bq)"><g clip-path="url(#prefix__br)"><g clip-path="url(#prefix__bs)"><path fill="#5ce1e6" d="M54.188 100.656l12.671 1.317a.936.936 0 00.73-.239l4.192-3.808a.942.942 0 00.262-.996.958.958 0 00-.805-.649l-11.824-1.226-.09-11.887a.95.95 0 00-1.586-.7l-4.191 3.805a.955.955 0 00-.309.707l.098 12.739c.004.484.375.89.852.937zm0 0"/></g></g></g><g clip-path="url(#prefix__bt)"><g clip-path="url(#prefix__bu)"><g clip-path="url(#prefix__bv)"><path fill="#38b6ff" d="M75.379 84.59l11.808 4.773c.254.098.532.09.77-.027l5.082-2.5a.95.95 0 00.527-.883.958.958 0 00-.597-.848l-11.02-4.453 3.203-11.445a.946.946 0 00-.304-.988.943.943 0 00-1.024-.125l-5.082 2.496a.974.974 0 00-.492.59l-3.434 12.27a.957.957 0 00.563 1.14zm0 0"/></g></g></g><g clip-path="url(#prefix__bw)"><g clip-path="url(#prefix__bx)"><g clip-path="url(#prefix__by)"><path fill="#38b6ff" d="M86.387 79.176l11.812 4.773c.25.102.528.094.77-.027l5.082-2.496a.945.945 0 00.523-.887.945.945 0 00-.594-.844l-11.02-4.457 3.204-11.445a.958.958 0 00-.305-.988.952.952 0 00-1.023-.125l-5.082 2.5a.94.94 0 00-.492.59l-3.434 12.265a.953.953 0 00.559 1.14zm0 0"/></g></g></g><g clip-path="url(#prefix__bz)"><path fill="#38b6ff" d="M118.215 68.148l8.492 9.493a.946.946 0 00.703.316h5.664a.95.95 0 00.863-.562.956.956 0 00-.164-1.02l-7.921-8.86 7.921-8.859a.95.95 0 00-.7-1.586h-5.663a.971.971 0 00-.703.313l-8.492 9.496c-.32.36-.32.91 0 1.27zm0 0"/></g><g clip-path="url(#prefix__bA)"><path fill="#38b6ff" d="M130.484 68.148l8.493 9.493a.94.94 0 00.703.316h5.66a.947.947 0 00.703-1.582l-7.926-8.86 7.926-8.859a.955.955 0 00.16-1.023.94.94 0 00-.863-.563h-5.66c-.27 0-.52.117-.703.313l-8.493 9.496a.95.95 0 000 1.27zm0 0"/></g><g clip-path="url(#prefix__bB)"><g clip-path="url(#prefix__bC)"><g clip-path="url(#prefix__bD)"><path fill="#38b6ff" d="M154.75 67.309l8.207 9.742a.947.947 0 00.691.34l5.66.168a.948.948 0 00.75-1.563l-7.656-9.094 8.188-8.613a.948.948 0 00.191-1.016.931.931 0 00-.844-.59l-5.66-.171a.955.955 0 00-.71.293l-8.778 9.234a.96.96 0 00-.039 1.27zm0 0"/></g></g></g><g clip-path="url(#prefix__bE)"><g clip-path="url(#prefix__bF)"><g clip-path="url(#prefix__bG)"><path fill="#38b6ff" d="M167.016 67.676l8.203 9.746a.936.936 0 00.691.336l5.66.172a.948.948 0 00.75-1.563l-7.656-9.094 8.188-8.617a.946.946 0 00.191-1.015.944.944 0 00-.844-.59l-5.66-.172a.955.955 0 00-.71.293l-8.778 9.234a.955.955 0 00-.035 1.27zm0 0"/></g></g></g><g clip-path="url(#prefix__bH)"><g clip-path="url(#prefix__bI)"><g clip-path="url(#prefix__bJ)"><path fill="#38b6ff" d="M266.402 67.309l8.207 9.742a.947.947 0 00.692.34l5.66.168a.948.948 0 00.75-1.563l-7.656-9.094 8.187-8.613a.948.948 0 00.192-1.016.931.931 0 00-.844-.59l-5.66-.171a.955.955 0 00-.711.293l-8.778 9.234a.96.96 0 00-.039 1.27zm0 0"/></g></g></g><g clip-path="url(#prefix__bK)"><g clip-path="url(#prefix__bL)"><g clip-path="url(#prefix__bM)"><path fill="#38b6ff" d="M278.668 67.676l8.203 9.746a.936.936 0 00.692.336l5.66.172a.948.948 0 00.75-1.563l-7.657-9.094 8.188-8.617a.946.946 0 00.191-1.015.944.944 0 00-.843-.59l-5.66-.172a.955.955 0 00-.712.293l-8.777 9.234a.955.955 0 00-.035 1.27zm0 0"/></g></g></g><g clip-path="url(#prefix__bN)"><g clip-path="url(#prefix__bO)"><g clip-path="url(#prefix__bP)"><path fill="#38b6ff" d="M229.277 67.309l8.207 9.742a.947.947 0 00.692.34l5.66.168a.948.948 0 00.75-1.563l-7.656-9.094 8.187-8.613a.948.948 0 00.192-1.016.931.931 0 00-.844-.59l-5.66-.171a.955.955 0 00-.711.293l-8.778 9.234a.96.96 0 00-.039 1.27zm0 0"/></g></g></g><g clip-path="url(#prefix__bQ)"><g clip-path="url(#prefix__bR)"><g clip-path="url(#prefix__bS)"><path fill="#38b6ff" d="M241.543 67.676l8.203 9.746a.936.936 0 00.691.336l5.66.172a.948.948 0 00.75-1.563l-7.656-9.094 8.188-8.617a.946.946 0 00.191-1.015.944.944 0 00-.843-.59l-5.66-.172a.955.955 0 00-.712.293l-8.777 9.234a.955.955 0 00-.035 1.27zm0 0"/></g></g></g><g clip-path="url(#prefix__bT)"><g clip-path="url(#prefix__bU)"><g clip-path="url(#prefix__bV)"><path fill="#5ce1e6" d="M192.762 67.309l8.203 9.742a.962.962 0 00.695.34l5.656.168a.95.95 0 00.883-.536.957.957 0 00-.133-1.027l-7.652-9.094 8.188-8.613a.956.956 0 00.191-1.016.937.937 0 00-.848-.59l-5.656-.171a.964.964 0 00-.715.293l-8.773 9.234a.955.955 0 00-.04 1.27zm0 0"/></g></g></g><g clip-path="url(#prefix__bW)"><g clip-path="url(#prefix__bX)"><g clip-path="url(#prefix__bY)"><path fill="#5ce1e6" d="M205.023 67.676l8.207 9.746a.93.93 0 00.692.336l5.66.172a.948.948 0 00.75-1.563l-7.656-9.094 8.187-8.617a.946.946 0 00.192-1.015.944.944 0 00-.844-.59l-5.66-.172a.955.955 0 00-.711.293l-8.778 9.234a.96.96 0 00-.039 1.27zm0 0"/></g></g></g></svg>