<svg xmlns="http://www.w3.org/2000/svg" width="450" viewBox="0 0 337.5 375" height="500" version="1.0"><defs><clipPath id="prefix__a"><path d="M0 52.777h303.75V323H0zm0 0"/></clipPath><clipPath id="prefix__b"><path d="M7.918 142.824C3.137 156.668 0 172.406 0 187.852c0 15.445 2.688 30.304 7.469 44.003.152.29.152.583.3.875 19.122 51.434 69.622 89.317 127.887 90.047H303.75v-270H135.781C77.094 53.504 26.594 90.81 7.918 142.824"/></clipPath><clipPath id="prefix__c"><path d="M0 52.777h303.75v270H0zm0 0"/></clipPath><clipPath id="prefix__d"><path d="M7.918 142.824C3.137 156.668 0 172.406 0 187.852c0 15.445 2.688 30.304 7.469 44.003.152.29.152.583.3.875 19.122 51.434 69.622 89.317 127.887 90.047H303.75v-270H135.781C77.094 53.504 26.594 90.81 7.918 142.824"/></clipPath><clipPath id="prefix__e"><path d="M34 77h217v217H34zm0 0"/></clipPath><clipPath id="prefix__f"><path d="M100.316 332.41L-3.973 142.926l189.485-104.29L289.8 228.122zm0 0"/></clipPath><clipPath id="prefix__g"><path d="M48.238 237.793c28.762 52.254 94.438 71.3 146.692 42.543 52.257-28.762 71.3-94.438 42.543-146.691C208.71 81.387 143.035 62.344 90.78 91.102c-52.254 28.761-71.3 94.437-42.543 146.691"/></clipPath><clipPath id="prefix__h"><path d="M34 77h217v217H34zm0 0"/></clipPath><clipPath id="prefix__i"><path d="M100.316 332.41L-3.836 143.176 185.398 39.027l104.149 189.23zm0 0"/></clipPath><clipPath id="prefix__j"><path d="M100.316 332.41L-5.309 140.5l191.91-105.621 105.622 191.906zm0 0"/></clipPath><clipPath id="prefix__k"><path d="M48.238 237.793c28.762 52.254 94.438 71.3 146.692 42.543 52.257-28.762 71.3-94.438 42.543-146.691C208.71 81.387 143.035 62.344 90.78 91.102c-52.254 28.761-71.3 94.437-42.543 146.691"/></clipPath><clipPath id="prefix__l"><path d="M81 197h37v32H81zm0 0"/></clipPath><clipPath id="prefix__m"><path d="M90.23 228.441l-9.156-15.687 27.57-16.094 9.157 15.688zm0 0"/></clipPath><clipPath id="prefix__n"><path d="M90.23 228.441l-8.957-15.347 27.403-15.992 8.957 15.347zm0 0"/></clipPath><clipPath id="prefix__o"><path d="M132 123h19v33h-19zm0 0"/></clipPath><clipPath id="prefix__p"><path d="M150.508 155.48l-18.16-.113.199-31.922 18.164.114zm0 0"/></clipPath><clipPath id="prefix__q"><path d="M150.508 155.48l-17.766-.109.2-31.73 17.765.113zm0 0"/></clipPath><clipPath id="prefix__r"><path d="M99 139h86v74H99zm0 0"/></clipPath><clipPath id="prefix__s"><path d="M205.18 176.2l-42.59 73.784L98.512 213l42.59-73.79zm0 0"/></clipPath><clipPath id="prefix__t"><path d="M184.05 212.809l-84.593-.016 42.266-73.223 42.328 73.239"/></clipPath><clipPath id="prefix__u"><path d="M158 193h38v32h-38zm0 0"/></clipPath><clipPath id="prefix__v"><path d="M195.332 209.059l-9.082 15.73-27.648-15.957 9.078-15.734zm0 0"/></clipPath><clipPath id="prefix__w"><path d="M195.332 209.059l-8.883 15.386-27.48-15.86 8.883-15.39zm0 0"/></clipPath><clipPath id="prefix__x"><path d="M180 199h57v56h-57zm0 0"/></clipPath><clipPath id="prefix__y"><path d="M199.383 188.816l47.523 28.907-28.91 47.523-47.52-28.91zm0 0"/></clipPath><clipPath id="prefix__z"><path d="M223.145 203.27c-13.122-7.98-30.23-3.817-38.215 9.308-7.98 13.121-3.817 30.23 9.308 38.211 13.121 7.984 30.23 3.816 38.211-9.305 7.985-13.12 3.817-30.23-9.304-38.214"/></clipPath><clipPath id="prefix__A"><path d="M180 199h57v56h-57zm0 0"/></clipPath><clipPath id="prefix__B"><path d="M199.383 188.816L246.8 217.66l-28.844 47.418-47.418-28.848zm0 0"/></clipPath><clipPath id="prefix__C"><path d="M199.383 188.816L246.8 217.66l-28.844 47.418-47.418-28.848zm0 0"/></clipPath><clipPath id="prefix__D"><path d="M223.094 203.238c-13.094-7.965-30.168-3.808-38.133 9.285-7.965 13.094-3.809 30.165 9.285 38.133 13.094 7.965 30.168 3.805 38.133-9.289 7.965-13.094 3.805-30.164-9.285-38.129"/></clipPath><clipPath id="prefix__E"><path d="M113 81h57v57h-57zm0 0"/></clipPath><clipPath id="prefix__F"><path d="M169.55 81.781l-.015 55.621-55.62-.015.015-55.621zm0 0"/></clipPath><clipPath id="prefix__G"><path d="M169.543 109.59c.004-15.36-12.441-27.813-27.8-27.817-15.364-.003-27.817 12.442-27.821 27.805-.004 15.36 12.445 27.813 27.805 27.817 15.359.003 27.812-12.446 27.816-27.805"/></clipPath><clipPath id="prefix__H"><path d="M114 81h56v57h-56zm0 0"/></clipPath><clipPath id="prefix__I"><path d="M169.55 81.781l-.015 55.5-55.5-.015.016-55.5zm0 0"/></clipPath><clipPath id="prefix__J"><path d="M169.55 81.781l-.015 55.5-55.5-.015.016-55.5zm0 0"/></clipPath><clipPath id="prefix__K"><path d="M169.543 109.531c.004-15.328-12.414-27.754-27.742-27.758-15.324-.003-27.754 12.415-27.758 27.743-.004 15.324 12.418 27.754 27.742 27.757 15.328.004 27.754-12.418 27.758-27.742"/></clipPath><clipPath id="prefix__L"><path d="M49 197h56v57H49zm0 0"/></clipPath><clipPath id="prefix__M"><path d="M67.688 187.34l47.523 28.91-28.91 47.52-47.52-28.91zm0 0"/></clipPath><clipPath id="prefix__N"><path d="M91.45 201.797c-13.122-7.984-30.231-3.817-38.216 9.305-7.98 13.12-3.816 30.23 9.309 38.214 13.121 7.98 30.23 3.817 38.21-9.308 7.985-13.121 3.817-30.23-9.304-38.211"/></clipPath><clipPath id="prefix__O"><path d="M49 197h56v57H49zm0 0"/></clipPath><clipPath id="prefix__P"><path d="M67.688 187.34l47.417 28.844-28.843 47.418-47.418-28.844zm0 0"/></clipPath><clipPath id="prefix__Q"><path d="M67.688 187.34l47.417 28.844-28.843 47.418-47.418-28.844zm0 0"/></clipPath><clipPath id="prefix__R"><path d="M91.398 201.762c-13.093-7.965-30.168-3.805-38.132 9.289-7.965 13.09-3.805 30.164 9.289 38.129 13.093 7.965 30.164 3.808 38.129-9.285 7.964-13.094 3.808-30.168-9.286-38.133"/></clipPath><clipPath id="prefix__S"><path d="M201 220h15v15h-15zm0 0"/></clipPath><clipPath id="prefix__T"><path d="M218.223 224.469l-6.977 12.09-12.09-6.977 6.977-12.09zm0 0"/></clipPath><clipPath id="prefix__U"><path d="M214.734 230.516a6.983 6.983 0 00-2.554-9.536 6.983 6.983 0 00-9.535 2.555 6.983 6.983 0 002.554 9.535c3.34 1.926 7.61.785 9.535-2.554"/></clipPath><clipPath id="prefix__V"><path d="M134 102h15v15h-15zm0 0"/></clipPath><clipPath id="prefix__W"><path d="M148.715 116.559l-13.961-.004.004-13.957 13.96.004zm0 0"/></clipPath><clipPath id="prefix__X"><path d="M141.734 116.559a6.98 6.98 0 006.98-6.977 6.983 6.983 0 00-6.976-6.984 6.98 6.98 0 10-.004 13.96"/></clipPath><clipPath id="prefix__Y"><path d="M70 219h15v15H70zm0 0"/></clipPath><clipPath id="prefix__Z"><path d="M87.066 223.883l-6.976 12.09L68 228.996l6.977-12.09zm0 0"/></clipPath><clipPath id="prefix__aa"><path d="M83.578 229.93a6.981 6.981 0 00-12.09-6.98 6.976 6.976 0 002.555 9.534 6.984 6.984 0 009.535-2.554"/></clipPath><clipPath id="prefix__ab"><path d="M117 245h48v14h-48zm0 0"/></clipPath><clipPath id="prefix__ac"><path d="M117.027 247.879l47.063-4.172 1.191 13.445-47.062 4.172zm0 0"/></clipPath><clipPath id="prefix__ad"><path d="M117.027 247.879l47.063-4.172 1.191 13.445-47.062 4.172zm0 0"/></clipPath><clipPath id="prefix__ae"><path d="M117.027 247.879l47.063-4.172 1.191 13.445-47.062 4.172zm0 0"/></clipPath><clipPath id="prefix__af"><path d="M124 253h1v1h-1zm0 0"/></clipPath><clipPath id="prefix__ag"><path d="M117.027 247.879l47.063-4.172 1.191 13.445-47.062 4.172zm0 0"/></clipPath><clipPath id="prefix__ah"><path d="M117.027 247.879l47.063-4.172 1.191 13.445-47.062 4.172zm0 0"/></clipPath><clipPath id="prefix__ai"><path d="M117.027 247.879l47.063-4.172 1.191 13.445-47.062 4.172zm0 0"/></clipPath><clipPath id="prefix__aj"><path d="M70 137h31v40H70zm0 0"/></clipPath><clipPath id="prefix__ak"><path d="M101.043 137.887l-23.68 40.886-11.683-6.765 23.68-40.887zm0 0"/></clipPath><clipPath id="prefix__al"><path d="M101.043 137.887l-23.68 40.886-11.683-6.765 23.68-40.887zm0 0"/></clipPath><clipPath id="prefix__am"><path d="M101.043 137.887l-23.68 40.886-11.683-6.765 23.68-40.887zm0 0"/></clipPath><clipPath id="prefix__an"><path d="M91 141h2v1h-2zm0 0"/></clipPath><clipPath id="prefix__ao"><path d="M101.043 137.887l-23.68 40.886-11.683-6.765 23.68-40.887zm0 0"/></clipPath><clipPath id="prefix__ap"><path d="M101.043 137.887l-23.68 40.886-11.683-6.765 23.68-40.887zm0 0"/></clipPath><clipPath id="prefix__aq"><path d="M101.043 137.887l-23.68 40.886-11.683-6.765 23.68-40.887zm0 0"/></clipPath><clipPath id="prefix__ar"><path d="M186 132h22v45h-22zm0 0"/></clipPath><clipPath id="prefix__as"><path d="M202.984 177.004l-20.101-42.762 12.219-5.742 20.101 42.762zm0 0"/></clipPath><clipPath id="prefix__at"><path d="M202.984 177.004l-20.101-42.762 12.219-5.742 20.101 42.762zm0 0"/></clipPath><clipPath id="prefix__au"><path d="M202.984 177.004l-20.101-42.762 12.219-5.742 20.101 42.762zm0 0"/></clipPath><clipPath id="prefix__av"><path d="M205 167h1v1h-1zm0 0"/></clipPath><clipPath id="prefix__aw"><path d="M202.984 177.004l-20.101-42.762 12.219-5.742 20.101 42.762zm0 0"/></clipPath><clipPath id="prefix__ax"><path d="M202.984 177.004l-20.101-42.762 12.219-5.742 20.101 42.762zm0 0"/></clipPath><clipPath id="prefix__ay"><path d="M202.984 177.004l-20.101-42.762 12.219-5.742 20.101 42.762zm0 0"/></clipPath><clipPath id="prefix__az"><path d="M278 297.129h17v21h-17zm0 0"/></clipPath><clipPath id="prefix__aA"><path d="M266.625 297.129H283v21h-16.375zm0 0"/></clipPath><clipPath id="prefix__aB"><path d="M241 297.129h17v21h-17zm0 0"/></clipPath><clipPath id="prefix__aC"><path d="M229.5 297.129H246v21h-16.5zm0 0"/></clipPath><clipPath id="prefix__aD"><path d="M204 297.129h16.875v21H204zm0 0"/></clipPath><clipPath id="prefix__aE"><path d="M192.375 297.129H209v21h-16.625zm0 0"/></clipPath><clipPath id="prefix__aF"><path d="M167 297.129h16.75v21H167zm0 0"/></clipPath><clipPath id="prefix__aG"><path d="M155.25 297.129H172v21h-16.75zm0 0"/></clipPath><clipPath id="prefix__aH"><path d="M130 297h17v22h-17zm0 0"/></clipPath><clipPath id="prefix__aI"><path d="M117.945 297.379l28.496-.504.371 20.996-28.496.504zm0 0"/></clipPath><clipPath id="prefix__aJ"><path d="M117.945 297.379l28.496-.504.371 20.996-28.496.504zm0 0"/></clipPath><clipPath id="prefix__aK"><path d="M117 297h18v22h-18zm0 0"/></clipPath><clipPath id="prefix__aL"><path d="M117.945 297.379l28.496-.504.371 20.996-28.496.504zm0 0"/></clipPath><clipPath id="prefix__aM"><path d="M117.945 297.379l28.496-.504.371 20.996-28.496.504zm0 0"/></clipPath><clipPath id="prefix__aN"><path d="M80 284h20v22H80zm0 0"/></clipPath><clipPath id="prefix__aO"><path d="M81.105 277.734l23.989 15.387-11.336 17.676-23.992-15.387zm0 0"/></clipPath><clipPath id="prefix__aP"><path d="M81.105 277.734l23.989 15.387-11.336 17.676-23.992-15.387zm0 0"/></clipPath><clipPath id="prefix__aQ"><path d="M70 278h20v22H70zm0 0"/></clipPath><clipPath id="prefix__aR"><path d="M81.105 277.734l23.989 15.387-11.336 17.676-23.992-15.387zm0 0"/></clipPath><clipPath id="prefix__aS"><path d="M81.105 277.734l23.989 15.387-11.336 17.676-23.992-15.387zm0 0"/></clipPath><clipPath id="prefix__aT"><path d="M42 264h20v21H42zm0 0"/></clipPath><clipPath id="prefix__aU"><path d="M48.059 255.742l20.527 19.77-14.566 15.125-20.528-19.77zm0 0"/></clipPath><clipPath id="prefix__aV"><path d="M48.059 255.742l20.527 19.77-14.566 15.125-20.528-19.77zm0 0"/></clipPath><clipPath id="prefix__aW"><path d="M33 256h21v20H33zm0 0"/></clipPath><clipPath id="prefix__aX"><path d="M48.059 255.742l20.527 19.77-14.566 15.125-20.528-19.77zm0 0"/></clipPath><clipPath id="prefix__aY"><path d="M48.059 255.742l20.527 19.77-14.566 15.125-20.528-19.77zm0 0"/></clipPath><clipPath id="prefix__aZ"><path d="M19 232h22v19H19zm0 0"/></clipPath><clipPath id="prefix__ba"><path d="M31.219 221.023l14.32 24.641-18.152 10.555-14.325-24.64zm0 0"/></clipPath><clipPath id="prefix__bb"><path d="M31.219 221.023l14.32 24.641-18.152 10.555-14.325-24.64zm0 0"/></clipPath><clipPath id="prefix__bc"><path d="M13 221h22v20H13zm0 0"/></clipPath><clipPath id="prefix__bd"><path d="M31.219 221.023l14.32 24.641-18.152 10.555-14.325-24.64zm0 0"/></clipPath><clipPath id="prefix__be"><path d="M31.219 221.023l14.32 24.641-18.152 10.555-14.325-24.64zm0 0"/></clipPath><clipPath id="prefix__bf"><path d="M8.879 184h21v16.438h-21zm0 0"/></clipPath><clipPath id="prefix__bg"><path d="M8.879 171.938h21V188h-21zm0 0"/></clipPath><clipPath id="prefix__bh"><path d="M18 126h21v20H18zm0 0"/></clipPath><clipPath id="prefix__bi"><path d="M46.379 127.648l-16.234 23.426-17.262-11.965 16.234-23.422zm0 0"/></clipPath><clipPath id="prefix__bj"><path d="M46.379 127.648l-16.234 23.426-17.262-11.965 16.234-23.422zm0 0"/></clipPath><clipPath id="prefix__bk"><path d="M25 116h21v20H25zm0 0"/></clipPath><clipPath id="prefix__bl"><path d="M46.379 127.648l-16.234 23.426-17.262-11.965 16.234-23.422zm0 0"/></clipPath><clipPath id="prefix__bm"><path d="M46.379 127.648l-16.234 23.426-17.262-11.965 16.234-23.422zm0 0"/></clipPath><clipPath id="prefix__bn"><path d="M44 90h20v21H44zm0 0"/></clipPath><clipPath id="prefix__bo"><path d="M72.52 97.336L51.426 116.5l-14.121-15.543 21.093-19.164zm0 0"/></clipPath><clipPath id="prefix__bp"><path d="M72.52 97.336L51.426 116.5l-14.121-15.543 21.093-19.164zm0 0"/></clipPath><clipPath id="prefix__bq"><path d="M53 82h20v20H53zm0 0"/></clipPath><clipPath id="prefix__br"><path d="M72.52 97.336L51.426 116.5l-14.121-15.543 21.093-19.164zm0 0"/></clipPath><clipPath id="prefix__bs"><path d="M72.52 97.336L51.426 116.5l-14.121-15.543 21.093-19.164zm0 0"/></clipPath><clipPath id="prefix__bt"><path d="M74 67h20v23H74zm0 0"/></clipPath><clipPath id="prefix__bu"><path d="M104.922 81.059L79.344 93.633l-9.266-18.848 25.578-12.57zm0 0"/></clipPath><clipPath id="prefix__bv"><path d="M104.922 81.059L79.344 93.633l-9.266-18.848 25.578-12.57zm0 0"/></clipPath><clipPath id="prefix__bw"><path d="M85 62h20v23H85zm0 0"/></clipPath><clipPath id="prefix__bx"><path d="M104.922 81.059L79.344 93.633l-9.266-18.848 25.578-12.57zm0 0"/></clipPath><clipPath id="prefix__by"><path d="M104.922 81.059L79.344 93.633l-9.266-18.848 25.578-12.57zm0 0"/></clipPath><clipPath id="prefix__bz"><path d="M117.785 57.016H135V78h-17.215zm0 0"/></clipPath><clipPath id="prefix__bA"><path d="M130 57.016h16.285V78H130zm0 0"/></clipPath><clipPath id="prefix__bB"><path d="M154 56h17v22h-17zm0 0"/></clipPath><clipPath id="prefix__bC"><path d="M182.512 78.012l-28.489-.856.633-20.992 28.489.86zm0 0"/></clipPath><clipPath id="prefix__bD"><path d="M182.512 78.012l-28.489-.856.633-20.992 28.489.86zm0 0"/></clipPath><clipPath id="prefix__bE"><path d="M166 56h18v22h-18zm0 0"/></clipPath><clipPath id="prefix__bF"><path d="M182.512 78.012l-28.489-.856.633-20.992 28.489.86zm0 0"/></clipPath><clipPath id="prefix__bG"><path d="M182.512 78.012l-28.489-.856.633-20.992 28.489.86zm0 0"/></clipPath><clipPath id="prefix__bH"><path d="M266 56h17v22h-17zm0 0"/></clipPath><clipPath id="prefix__bI"><path d="M294.164 78.012l-28.488-.856.633-20.992 28.488.86zm0 0"/></clipPath><clipPath id="prefix__bJ"><path d="M294.164 78.012l-28.488-.856.633-20.992 28.488.86zm0 0"/></clipPath><clipPath id="prefix__bK"><path d="M278 56h17v22h-17zm0 0"/></clipPath><clipPath id="prefix__bL"><path d="M294.164 78.012l-28.488-.856.633-20.992 28.488.86zm0 0"/></clipPath><clipPath id="prefix__bM"><path d="M294.164 78.012l-28.488-.856.633-20.992 28.488.86zm0 0"/></clipPath><clipPath id="prefix__bN"><path d="M229 56h17v22h-17zm0 0"/></clipPath><clipPath id="prefix__bO"><path d="M257.04 78.012l-28.49-.856.634-20.992 28.488.86zm0 0"/></clipPath><clipPath id="prefix__bP"><path d="M257.04 78.012l-28.49-.856.634-20.992 28.488.86zm0 0"/></clipPath><clipPath id="prefix__bQ"><path d="M241 56h17v22h-17zm0 0"/></clipPath><clipPath id="prefix__bR"><path d="M257.04 78.012l-28.49-.856.634-20.992 28.488.86zm0 0"/></clipPath><clipPath id="prefix__bS"><path d="M257.04 78.012l-28.49-.856.634-20.992 28.488.86zm0 0"/></clipPath><clipPath id="prefix__bT"><path d="M192 56h17v22h-17zm0 0"/></clipPath><clipPath id="prefix__bU"><path d="M220.523 78.012l-28.488-.856.633-20.992 28.488.86zm0 0"/></clipPath><clipPath id="prefix__bV"><path d="M220.523 78.012l-28.488-.856.633-20.992 28.488.86zm0 0"/></clipPath><clipPath id="prefix__bW"><path d="M204 56h18v22h-18zm0 0"/></clipPath><clipPath id="prefix__bX"><path d="M220.523 78.012l-28.488-.856.633-20.992 28.488.86zm0 0"/></clipPath><clipPath id="prefix__bY"><path d="M220.523 78.012l-28.488-.856.633-20.992 28.488.86zm0 0"/></clipPath></defs><g clip-path="url(#prefix__a)"><g clip-path="url(#prefix__b)"><path fill="#737373" d="M303.75 52.777V323.04H-.133V52.777zm0 0"/></g></g><g clip-path="url(#prefix__c)"><g clip-path="url(#prefix__d)"><path fill="none" d="M7.918 142.824C3.137 156.668 0 172.406 0 187.852c0 15.445 2.687 30.304 7.469 44.003.152.29.152.583.3.875 19.122 51.434 69.622 89.317 127.887 90.047H303.75v-270H135.781C77.094 53.504 26.594 90.81 7.918 142.824" stroke="#000" stroke-width="3"/></g></g><g clip-path="url(#prefix__e)"><g clip-path="url(#prefix__f)"><g clip-path="url(#prefix__g)"><path fill="#a6a6a6" d="M100.316 332.41l-104.023-189 189-104.023 104.023 189zm0 0"/></g></g></g><g clip-path="url(#prefix__h)"><g clip-path="url(#prefix__i)"><g clip-path="url(#prefix__j)"><g clip-path="url(#prefix__k)"><path fill="none" d="M48.238 237.793c28.762 52.254 94.438 71.3 146.692 42.543 52.257-28.762 71.3-94.438 42.543-146.691C208.71 81.387 143.035 62.344 90.78 91.102c-52.254 28.761-71.3 94.437-42.543 146.691" stroke="#000" stroke-width="6"/></g></g></g></g><g clip-path="url(#prefix__l)"><g clip-path="url(#prefix__m)"><g clip-path="url(#prefix__n)"><path fill="#ffde59" d="M90.23 228.441l-8.878-15.214 27.57-16.09 8.879 15.21zm0 0"/></g></g></g><g clip-path="url(#prefix__o)"><g clip-path="url(#prefix__p)"><g clip-path="url(#prefix__q)"><path fill="#ffde59" d="M150.508 155.48l-17.613-.109.203-31.926 17.613.114zm0 0"/></g></g></g><g clip-path="url(#prefix__r)"><g clip-path="url(#prefix__s)"><g clip-path="url(#prefix__t)"><path fill="#ffde59" d="M205.18 176.2l-42.215 73.14-63.434-36.613 42.219-73.141zm0 0"/></g></g></g><g clip-path="url(#prefix__u)"><g clip-path="url(#prefix__v)"><g clip-path="url(#prefix__w)"><path fill="#ffde59" d="M195.332 209.059l-8.805 15.254-27.652-15.961 8.805-15.254zm0 0"/></g></g></g><g clip-path="url(#prefix__x)"><g clip-path="url(#prefix__y)"><g clip-path="url(#prefix__z)"><path fill="#ffde59" d="M199.383 188.816l47.523 28.907-28.91 47.523-47.52-28.91zm0 0"/></g></g></g><g clip-path="url(#prefix__A)"><g clip-path="url(#prefix__B)"><g clip-path="url(#prefix__C)"><g clip-path="url(#prefix__D)"><path d="M221.535 205.797c-4.742-2.887-9.87-4.047-15.379-3.48l-.613-5.958c6.844-.703 13.21.739 19.105 4.32zm-18.02-3.063c-5.433 1.157-9.956 3.825-13.566 8.008l-4.531-3.914c4.484-5.195 10.102-8.512 16.848-9.953zm-15.199 10.118c-.277.402-.543.808-.796 1.23-2.614 4.293-3.81 8.938-3.586 13.938l-5.98.265c-.278-6.21 1.206-11.984 4.452-17.316.313-.52.64-1.024.985-1.524zm-4.12 17.832c.843 5.496 3.245 10.168 7.21 14.015l-4.168 4.297c-4.93-4.781-7.914-10.582-8.96-17.406zm9.214 15.757a24.357 24.357 0 002.395 1.657c3.851 2.343 8.02 3.547 12.5 3.605l-.078 5.988c-5.575-.074-10.75-1.57-15.536-4.48a30.486 30.486 0 01-2.964-2.047zm17.567 5.157c5.53-.524 10.332-2.649 14.406-6.38l4.043 4.419c-5.059 4.633-11.024 7.273-17.887 7.922zm16.277-8.29a24.905 24.905 0 002.566-3.495c2.078-3.418 3.262-7.106 3.547-11.063l5.973.43c-.356 4.922-1.824 9.504-4.406 13.746a30.718 30.718 0 01-3.18 4.332zm6.16-17.226c-.2-5.55-2.043-10.473-5.531-14.762l4.644-3.777c4.332 5.328 6.621 11.437 6.871 18.324zm-7.328-16.742a24.825 24.825 0 00-4.55-3.543l3.112-5.117a30.756 30.756 0 015.641 4.402zm0 0"/></g></g></g></g><g clip-path="url(#prefix__E)"><g clip-path="url(#prefix__F)"><g clip-path="url(#prefix__G)"><path fill="#ffde59" d="M169.55 81.781l-.015 55.621-55.62-.015.015-55.621zm0 0"/></g></g></g><g clip-path="url(#prefix__H)"><g clip-path="url(#prefix__I)"><g clip-path="url(#prefix__J)"><g clip-path="url(#prefix__K)"><path d="M166.55 109.531c0-5.554-1.671-10.539-5.015-14.949l4.77-3.621c4.156 5.484 6.234 11.672 6.234 18.57zm-6.745-16.992c-3.813-4.043-8.442-6.52-13.887-7.43l.988-5.906c6.77 1.133 12.524 4.211 17.254 9.227zm-16.54-7.73a26.197 26.197 0 00-1.464-.043c-5.028 0-9.617 1.39-13.774 4.18l-3.336-4.973c5.164-3.465 10.871-5.196 17.11-5.196.605 0 1.21.02 1.812.055zm-17.378 5.742c-4.258 3.578-7.004 8.058-8.23 13.441l-5.837-1.328c1.524-6.695 4.93-12.262 10.22-16.7zm-8.68 16.058c-.113.965-.168 1.93-.168 2.907-.004 4.511 1.133 8.695 3.41 12.558l-5.156 3.04c-2.832-4.802-4.246-10-4.242-15.598 0-1.207.07-2.41.21-3.602zm4.719 17.688c3.32 4.457 7.633 7.457 12.937 9l-1.675 5.75c-6.586-1.918-11.942-5.64-16.063-11.172zm15.543 9.605c1.422.25 2.86.375 4.316.375 4 .004 7.766-.902 11.297-2.714l2.734 5.324c-4.386 2.254-9.066 3.383-14.03 3.379-1.806 0-3.59-.157-5.356-.465zm17.918-3.683c4.64-3.055 7.886-7.188 9.738-12.395l5.64 2.004c-2.3 6.469-6.327 11.602-12.085 15.39zm10.496-14.961c.445-1.875.668-3.781.668-5.727h5.988a31 31 0 01-.828 7.11zm0 0"/></g></g></g></g><g clip-path="url(#prefix__L)"><g clip-path="url(#prefix__M)"><g clip-path="url(#prefix__N)"><path fill="#ffde59" d="M67.688 187.34l47.523 28.91-28.91 47.52-47.52-28.91zm0 0"/></g></g></g><g clip-path="url(#prefix__O)"><g clip-path="url(#prefix__P)"><g clip-path="url(#prefix__Q)"><g clip-path="url(#prefix__R)"><path d="M89.84 204.32c-4.742-2.886-9.871-4.047-15.38-3.48l-.612-5.953c6.843-.707 13.215.734 19.105 4.32zm-18.02-3.062c-5.433 1.156-9.957 3.828-13.566 8.008l-4.531-3.914c4.484-5.196 10.101-8.512 16.847-9.95zm-15.199 10.117c-.277.402-.543.813-.797 1.23-2.613 4.293-3.808 8.942-3.586 13.938l-5.98.266c-.278-6.211 1.207-11.985 4.453-17.317.312-.515.644-1.023.984-1.52zM52.5 229.207c.844 5.496 3.246 10.168 7.21 14.016l-4.167 4.297c-4.926-4.782-7.914-10.583-8.961-17.407zm9.215 15.762a25.515 25.515 0 002.394 1.652c3.852 2.344 8.02 3.547 12.504 3.61l-.082 5.984c-5.57-.074-10.75-1.567-15.535-4.477a31.227 31.227 0 01-2.965-2.05zm17.566 5.152c5.531-.523 10.332-2.648 14.406-6.379l4.043 4.418c-5.058 4.633-11.023 7.274-17.886 7.922zm16.278-8.289a24.905 24.905 0 002.566-3.496c2.078-3.414 3.262-7.106 3.547-11.063l5.973.43c-.356 4.922-1.825 9.504-4.403 13.746a31.09 31.09 0 01-3.183 4.336zm6.16-17.227c-.2-5.55-2.043-10.468-5.531-14.757l4.644-3.778c4.332 5.325 6.621 11.434 6.871 18.32zm-7.328-16.738a24.845 24.845 0 00-4.551-3.547l3.113-5.113a30.725 30.725 0 015.645 4.398zm0 0"/></g></g></g></g><g clip-path="url(#prefix__S)"><g clip-path="url(#prefix__T)"><g clip-path="url(#prefix__U)"><path fill="#707070" d="M218.223 224.469l-6.977 12.09-12.09-6.977 6.977-12.09zm0 0"/></g></g></g><g clip-path="url(#prefix__V)"><g clip-path="url(#prefix__W)"><g clip-path="url(#prefix__X)"><path fill="#707070" d="M148.715 116.559l-13.961-.004.004-13.957 13.96.004zm0 0"/></g></g></g><g clip-path="url(#prefix__Y)"><g clip-path="url(#prefix__Z)"><g clip-path="url(#prefix__aa)"><path fill="#707070" d="M87.066 223.883l-6.976 12.09L68 228.996l6.977-12.09zm0 0"/></g></g></g><g clip-path="url(#prefix__ab)"><g clip-path="url(#prefix__ac)"><g clip-path="url(#prefix__ad)"><g clip-path="url(#prefix__ae)"><path fill="#fff" d="M117.816 248.203a.11.11 0 000 .11c-.086.117-.308.05-.328.257-.289.344-.14.66.078.97.61.855 1.344 1.589 2.121 2.284 2.793 2.477 5.97 4.254 9.489 5.477 6.14 2.14 12.265 1.969 18.398.113 2.844-.86 5.485-2.203 8.063-3.672 1.515-.867 2.972-1.82 4.457-2.738.039-.055.074-.113.113-.168.078-.012.16-.047.227-.024.05.02.023.094-.028.125-.246.645-.62 1.215-1.023 1.766-.274.375-.516.758-.637 1.215-.598.805-.55 1.605.102 2.246 1.785-.883 2.78-2.465 3.664-4.16.328-.629.699-1.234 1.058-1.844.864-1.46.657-1.3 0-2.52a2.8 2.8 0 00-.586-.718c-.082-.078-.168-.14-.289-.129-.183-.3-.476-.281-.761-.242-.844.105-1.688.222-2.532.336-.187-.082-.367-.035-.55.02-.184-.09-.368-.04-.551 0-.117-.087-.254-.036-.383-.044-1.746-.093-3.453-.383-5.11-.965-.124-.043-.253-.078-.378-.117-.149-.047-.32-.101-.422.047-.078.113-.04.3.047.379.37.356.468.879.8 1.254.145.168.348.258.551.348 1.59.703 3.254 1.105 4.965 1.332.152.02.313.015.457.066.168.063.133.203.063.332-.176-.008-.293.074-.36.234-.16.028-.312.067-.383.247-.039-.016-.066-.004-.074.039-.152.023-.293.066-.363.226-.102.04-.211.063-.305.117-1.027.59-2.043 1.2-3.078 1.782-.937.527-1.89 1.023-2.836 1.53-.265.106-.535.196-.797.313-2.539 1.09-5.172 1.852-7.91 2.215-.98.133-1.96.23-2.941.344-.196-.09-.383-.031-.574.023-.184-.09-.364-.035-.547.016-.168-.098-.34-.035-.512-.004-.106-.074-.215-.058-.324-.008-.04-.027-.078-.023-.117.004-.118-.082-.254-.035-.383-.047-.63-.05-1.262.008-1.887-.12-.05.054-.227.097 0 .171.152.05.164.094.129.133-.031.035-.102.07-.152.101-1.98-.23-3.915-.699-5.817-1.296-.172-.07-.344-.141-.515-.215-1.028-.43-2.051-.86-3.079-1.285a.154.154 0 00-.09-.082c-.023-.008-.05-.008-.078-.008-.039-.067-.097-.094-.168-.082a.148.148 0 00-.168-.086c-.035-.07-.09-.098-.167-.086-.036-.07-.09-.102-.165-.09-.035-.07-.09-.102-.164-.09h-.004c-.03-.07-.085-.101-.16-.09h-.004c-.05-.03-.101-.062-.16-.09l-.004-.003c-.03-.07-.082-.102-.16-.09l-.004-.004c-.03-.07-.082-.102-.16-.09l-.004-.004h-.004.004c-.031-.07-.082-.101-.16-.094h-.004c-.027-.074-.082-.101-.16-.093-.031-.075-.086-.106-.16-.098-.48-.324-.957-.649-1.434-.977-.3-.09-.523-.308-.765-.492a.207.207 0 01.035-.09.225.225 0 01.113-.093c-.168-.157-.324-.329-.555-.399a.408.408 0 01-.195-.09c.067.028.129.059.195.09-.043-.062-.093-.113-.175-.094-.028-.113-.106-.175-.215-.207-.02-.074-.063-.117-.14-.113-.036-.066-.083-.121-.169-.121a.109.109 0 00-.074-.074 1.469 1.469 0 00-.508-.434c-.101-.125-.203-.25-.36-.308-.038-.106-.128-.153-.214-.207-.406-.493-.902-.903-1.234-1.497-.133.196-.391.188-.41.43zm40.293 1.984h-.004c0 .004.004.004.004.004-.004 0-.004-.004-.004-.004l-.003-.003c.003 0 .003.004.007.004zm-34.015 3.22c.011.011.023.019.035.03l-.012-.003-.035-.02c.004 0 .008-.004.012-.008zm1.965.652s-.004 0-.004.004c0 .003-.004.007-.008.011l-.008.016.016-.031h.004zm-2.028-.621c.016-.008.035-.016.047-.024.012.008.024.012.035.02a.087.087 0 00-.082.004zm.156.039a2145.785 2145.785 0 00.04.027c-.016-.008-.028-.02-.04-.027zm-5.933-4.145c-.004 0-.004-.004-.008-.004 0-.004-.004-.004-.004-.004.004 0 .008.004.012.008zm.183.215c0 .004 0 .008.004.008 0-.004-.004-.004-.004-.008zm2.57 1.187c-.01.008-.023.016-.034.028-.004-.008-.004-.02-.008-.028h.043zm-.347-.363a.13.13 0 01-.047-.055h.004a.123.123 0 00.043.055zm0 0"/></g></g></g></g><g clip-path="url(#prefix__af)"><g clip-path="url(#prefix__ag)"><g clip-path="url(#prefix__ah)"><g clip-path="url(#prefix__ai)"><path fill="#fff" d="M124.73 253.352c.051.03.106.058.157.09-.032-.07-.082-.102-.157-.09zm0 0"/></g></g></g></g><g clip-path="url(#prefix__aj)"><g clip-path="url(#prefix__ak)"><g clip-path="url(#prefix__al)"><g clip-path="url(#prefix__am)"><path fill="#fff" d="M100.32 138.348c-.015-.04-.047-.059-.09-.067-.046-.136.137-.281-.02-.414-.116-.433-.46-.496-.835-.492-1.05.004-2.078.18-3.094.418-3.633.86-6.914 2.434-9.937 4.605-5.285 3.79-8.672 8.899-10.684 14.98-.937 2.817-1.355 5.755-1.637 8.708-.164 1.738-.226 3.476-.328 5.219.024.066.051.129.075.191-.036.07-.055.156-.114.195-.047.032-.09-.03-.086-.093-.386-.575-.636-1.203-.855-1.852-.149-.441-.324-.86-.625-1.219-.317-.953-.996-1.375-1.899-1.21-.304 1.968.418 3.695 1.293 5.39.329.629.61 1.281.903 1.926.695 1.55.683 1.285 2.058 1.449.309.04.618.004.922-.062.113-.024.215-.06.274-.16.351.019.504-.231.636-.485.399-.754.79-1.508 1.184-2.266.176-.105.242-.28.3-.46.18-.098.243-.278.317-.45.137-.05.176-.187.258-.289 1.078-1.375 2.297-2.605 3.727-3.625.109-.074.21-.16.312-.242.125-.094.27-.203.207-.371-.047-.129-.223-.203-.336-.18-.504.102-.992-.12-1.484-.066-.223.023-.414.133-.606.25-1.488.894-2.773 2.027-3.945 3.293-.106.113-.195.246-.32.336-.145.101-.239-.008-.305-.137.105-.14.105-.285.012-.434.074-.144.129-.293.023-.449.035-.027.04-.055.008-.086.07-.14.117-.281.023-.43.032-.105.075-.207.082-.316.106-1.18.196-2.36.317-3.539.11-1.07.25-2.137.379-3.203.07-.277.148-.55.203-.828.57-2.707 1.46-5.297 2.742-7.75.457-.871.941-1.735 1.414-2.598.184-.11.246-.297.309-.484.18-.102.238-.278.3-.457.18-.082.227-.258.297-.414.125-.043.176-.14.196-.262.046-.02.066-.05.062-.098.137-.05.18-.187.258-.285.406-.484.723-1.039 1.187-1.476-.015-.07.051-.243-.14-.098-.13.098-.172.082-.184.027-.008-.047.004-.12.008-.18 1.328-1.488 2.824-2.8 4.406-4.011.157-.102.317-.2.473-.297.941-.594 1.883-1.184 2.824-1.777a.139.139 0 00.113-.028.171.171 0 00.055-.062.16.16 0 00.168-.086.15.15 0 00.164-.09c.078.016.133-.016.168-.086a.148.148 0 00.168-.086c.078.016.133-.012.164-.082h.004c.074.016.133-.012.164-.082h.004c.055-.023.113-.05.168-.078l.004-.004c.074.016.129-.008.164-.078h.008c.074.012.129-.012.164-.078l.008-.004c.074.016.129-.008.168-.078.078.015.132-.008.168-.078h.004c.074.015.132-.008.171-.078l1.621-.61c.247-.195.555-.246.844-.34a.19.19 0 01.055.082c.02.043.023.09.012.145.222-.047.453-.078.644-.227a.426.426 0 01.188-.105l-.188.105c.074 0 .145-.007.176-.086.11.04.207.012.297-.058.07.027.129.02.172-.047.078.008.144-.004.195-.07.035.011.07.007.102-.016.23-.008.445-.063.648-.168.16-.012.324-.02.46-.117.106.031.2-.016.294-.055.633-.05 1.254-.219 1.93-.148-.082-.223.074-.43-.114-.582zm-24.816 31.804c0-.004 0-.004.004-.004h-.004.004s0 .004.004 0c-.004.004-.004.004-.008.004zm16.95-29.668l-.048.012c.004-.004.008-.008.012-.008.012-.004.023-.011.035-.015v.011zm-1.665 1.23s0-.003-.004-.003c0-.004-.004-.008-.004-.012l-.004-.02.012.032c0 .004 0 0 .004 0-.004 0-.004.004-.004.004zm1.672-1.3a.23.23 0 01-.008.055c-.012.004-.023.011-.035.015a.096.096 0 00.043-.07zm-.121.106c-.012.003-.028.011-.04.015h-.003c.016-.004.031-.012.043-.015zm6.808-2.465l.004-.004h.008c-.004.004-.008.004-.012.004zm-.285.023s-.004-.004-.008 0h.008zm-2.449 1.422v-.047l.023.012-.023.035zm.496-.078a.153.153 0 01.074-.004c-.027 0-.054 0-.074.004zm0 0"/></g></g></g></g><g clip-path="url(#prefix__an)"><g clip-path="url(#prefix__ao)"><g clip-path="url(#prefix__ap)"><g clip-path="url(#prefix__aq)"><path fill="#fff" d="M92.133 141.035c-.059.028-.113.055-.168.078.078.016.133-.011.168-.078zm0 0"/></g></g></g></g><g clip-path="url(#prefix__ar)"><g clip-path="url(#prefix__as)"><g clip-path="url(#prefix__at)"><g clip-path="url(#prefix__au)"><path fill="#fff" d="M203.016 176.148a.112.112 0 00.105-.035c.137.04.152.274.352.219.425.152.672-.094.882-.402.594-.868 1.036-1.813 1.418-2.782 1.368-3.476 1.942-7.066 1.883-10.793-.101-6.5-2.37-12.195-6.219-17.316-1.785-2.375-3.957-4.39-6.222-6.305-1.332-1.125-2.73-2.168-4.102-3.246l-.199-.047c-.039-.07-.098-.136-.098-.203v-.004c0-.054.079-.054.13-.015.687.011 1.35.164 2.003.351.45.133.895.223 1.363.18.961.29 1.696-.031 2.075-.867-1.446-1.371-3.274-1.762-5.168-2.008-.703-.094-1.399-.23-2.094-.36-1.672-.308-1.45-.171-2.367.868-.203.23-.352.504-.473.793-.043.105-.074.207-.023.316-.219.278-.098.543.035.801.39.754.789 1.508 1.187 2.262-.015.203.094.36.207.507-.023.204.086.36.188.516-.04.145.055.254.094.379.511 1.668.828 3.371.847 5.129.004.133.016.262.024.394.008.157.015.336.187.383.133.032.293-.07.34-.175.203-.473.664-.743.902-1.184.106-.191.125-.414.137-.64.113-1.731-.082-3.434-.457-5.118-.031-.152-.09-.3-.094-.453 0-.176.145-.191.29-.172.054.168.171.25.347.258.078.14.168.273.36.273 0 .043.019.063.062.055.074.14.164.254.34.266.07.082.129.175.21.246.91.761 1.833 1.508 2.731 2.277.82.7 1.613 1.426 2.414 2.137.192.215.371.437.567.64 1.898 2.012 3.52 4.223 4.804 6.668.457.875.887 1.762 1.328 2.645-.015.215.106.371.223.527-.02.207.09.356.203.512-.035.191.082.328.172.48-.035.125.016.223.102.31-.008.046.008.081.047.105-.036.14.05.253.086.375.167.609.445 1.187.535 1.816.07.027.172.18.16-.059-.004-.16.035-.187.086-.168.043.02.097.075.144.11.465 1.941.688 3.914.782 5.906l-.024.559-.152 3.332a.185.185 0 00-.043.109.21.21 0 00.02.082c-.048.059-.055.121-.02.184-.051.058-.059.12-.024.187-.054.055-.058.117-.023.188-.055.054-.063.117-.027.187-.055.055-.063.117-.024.184h-.004c-.054.054-.062.117-.027.183v.004c-.012.059-.024.117-.031.18v.008c-.055.05-.067.11-.032.18v.003c-.054.055-.066.114-.03.184v.004c-.06.054-.067.113-.032.183v.004c-.059.051-.07.114-.035.18v.004c-.055.05-.067.113-.035.184l-.422 1.68c.02.316-.114.597-.2.89a.288.288 0 01-.101-.004.261.261 0 01-.125-.074c-.09.21-.195.418-.184.656a.402.402 0 01-.015.215c.004-.07.011-.14.015-.215-.043.066-.074.129-.027.195a.298.298 0 00-.121.278c-.063.043-.086.097-.059.168-.05.058-.082.12-.054.199-.028.027-.047.054-.043.097a1.502 1.502 0 00-.235.625c-.078.141-.164.278-.164.446-.086.07-.101.172-.125.27-.316.554-.535 1.16-.976 1.675.23.059.308.305.543.234zm-11.989-38.515l.004.004v-.004.004c-.004 0-.004 0-.004.004v-.008zm14.72 30.836c.003-.016.01-.028.015-.043v.012c0 .011-.004.023-.008.039 0-.004-.004-.004-.008-.008zm-.063-2.07s0 .003.004 0c.003.003.007.003.011.003l.02.008-.035-.008v-.004zm.113 2.117c-.016-.012-.027-.028-.04-.04 0-.011.005-.023.005-.035 0 .028.011.051.035.075zm-.016-.16c.004-.012.004-.028.008-.043h.004l-.012.042zm-1.855 7v.007h-.004c0-.004.004-.004.004-.008zm.14-.247c.004-.004.008-.004.008-.007a.008.008 0 00-.008.007zm.23-2.824l.036.024a.085.085 0 01-.02.015c-.003-.012-.011-.027-.015-.039zm-.218.45a.153.153 0 01-.039.062.21.21 0 00.04-.063zm0 0"/></g></g></g></g><g clip-path="url(#prefix__av)"><g clip-path="url(#prefix__aw)"><g clip-path="url(#prefix__ax)"><g clip-path="url(#prefix__ay)"><path fill="#fff" d="M205.477 167.89c.007-.062.02-.12.027-.18-.055.052-.063.114-.027.18zm0 0"/></g></g></g></g><path transform="matrix(.74987 .00605 -.00605 .74998 136.49 77.868)" fill="none" d="M-.002 1.999L223.036 2" stroke="#000" stroke-width="4"/><path transform="matrix(.75062 -.00364 .00364 .75 135.126 291.168)" fill="none" d="M0 2l224.814.002" stroke="#000" stroke-width="4"/><g clip-path="url(#prefix__az)"><path fill="#38b6ff" d="M294.695 306.992l-8.492-9.492a.946.946 0 00-.703-.316h-5.664a.95.95 0 00-.863.562.956.956 0 00.164 1.02l7.922 8.863-7.922 8.855a.95.95 0 00.7 1.586h5.663c.266 0 .52-.117.703-.312l8.492-9.496c.32-.36.32-.91 0-1.27zm0 0"/></g><g clip-path="url(#prefix__aA)"><path fill="#38b6ff" d="M282.426 306.992l-8.492-9.492a.94.94 0 00-.704-.316h-5.66a.947.947 0 00-.703 1.582l7.926 8.863-7.926 8.855a.955.955 0 00-.16 1.024.94.94 0 00.863.562h5.66c.27 0 .52-.117.704-.312l8.492-9.496a.95.95 0 000-1.27zm0 0"/></g><g clip-path="url(#prefix__aB)"><path fill="#5ce1e6" d="M257.57 306.992l-8.492-9.492a.946.946 0 00-.703-.316h-5.664a.95.95 0 00-.863.562.962.962 0 00.16 1.02l7.926 8.863-7.926 8.855a.95.95 0 00.703 1.586h5.664c.266 0 .52-.117.703-.312l8.492-9.496c.32-.36.32-.91 0-1.27zm0 0"/></g><g clip-path="url(#prefix__aC)"><path fill="#5ce1e6" d="M245.3 306.992l-8.491-9.492a.94.94 0 00-.704-.316h-5.66a.947.947 0 00-.703 1.582l7.926 8.863-7.926 8.855a.955.955 0 00-.16 1.024.94.94 0 00.863.562h5.66c.27 0 .52-.117.704-.312l8.492-9.496a.95.95 0 000-1.27zm0 0"/></g><g clip-path="url(#prefix__aD)"><path fill="#38b6ff" d="M220.445 306.992l-8.492-9.492a.946.946 0 00-.703-.316h-5.664a.95.95 0 00-.863.562.956.956 0 00.164 1.02l7.922 8.863-7.922 8.855a.95.95 0 00.7 1.586h5.663c.266 0 .52-.117.703-.312l8.492-9.496c.32-.36.32-.91 0-1.27zm0 0"/></g><g clip-path="url(#prefix__aE)"><path fill="#38b6ff" d="M208.176 306.992l-8.492-9.492a.94.94 0 00-.704-.316h-5.66a.947.947 0 00-.703 1.582l7.926 8.863-7.926 8.855a.955.955 0 00-.16 1.024.94.94 0 00.863.562h5.66c.27 0 .52-.117.704-.312l8.492-9.496a.95.95 0 000-1.27zm0 0"/></g><g clip-path="url(#prefix__aF)"><path fill="#38b6ff" d="M183.32 306.992l-8.492-9.492a.946.946 0 00-.703-.316h-5.664a.95.95 0 00-.863.562.956.956 0 00.164 1.02l7.922 8.863-7.922 8.855a.95.95 0 00.7 1.586h5.663c.266 0 .52-.117.703-.312l8.492-9.496c.32-.36.32-.91 0-1.27zm0 0"/></g><g clip-path="url(#prefix__aG)"><path fill="#38b6ff" d="M171.05 306.992l-8.491-9.492a.94.94 0 00-.704-.316h-5.66a.947.947 0 00-.703 1.582l7.926 8.863-7.926 8.855a.955.955 0 00-.16 1.024.94.94 0 00.863.562h5.66c.27 0 .52-.117.704-.312l8.492-9.496a.95.95 0 000-1.27zm0 0"/></g><g clip-path="url(#prefix__aH)"><g clip-path="url(#prefix__aI)"><g clip-path="url(#prefix__aJ)"><path fill="#38b6ff" d="M146.184 306.746l-8.66-9.344a.948.948 0 00-.708-.3l-5.66.097a.947.947 0 00-.851.578.956.956 0 00.175 1.02l8.083 8.719-7.77 8.996a.952.952 0 00.73 1.574l5.665-.102a.96.96 0 00.695-.324l8.324-9.644a.954.954 0 00-.023-1.27zm0 0"/></g></g></g><g clip-path="url(#prefix__aK)"><g clip-path="url(#prefix__aL)"><g clip-path="url(#prefix__aM)"><path fill="#38b6ff" d="M133.918 306.96l-8.66-9.339a.937.937 0 00-.707-.305l-5.66.102a.95.95 0 00-.856.578.95.95 0 00.18 1.016l8.082 8.718-7.77 8.997a.959.959 0 00-.14 1.027c.16.34.5.555.87.547l5.665-.102a.96.96 0 00.695-.324l8.324-9.64a.96.96 0 00-.023-1.274zm0 0"/></g></g></g><g clip-path="url(#prefix__aN)"><g clip-path="url(#prefix__aO)"><g clip-path="url(#prefix__aP)"><path fill="#5ce1e6" d="M99.406 301.191l-2.023-12.574a.945.945 0 00-.422-.644l-4.766-3.059a.949.949 0 00-1.445.953l1.887 11.738-11.453 3.176a.951.951 0 00-.266 1.715l4.766 3.059c.226.144.5.183.761.113l12.274-3.406a.954.954 0 00.687-1.07zm0 0"/></g></g></g><g clip-path="url(#prefix__aQ)"><g clip-path="url(#prefix__aR)"><g clip-path="url(#prefix__aS)"><path fill="#5ce1e6" d="M89.078 294.57l-2.023-12.578a.94.94 0 00-.422-.644l-4.766-3.055a.942.942 0 00-1.027.004.966.966 0 00-.418.95l1.887 11.733-11.454 3.18a.954.954 0 00-.687.774.945.945 0 00.422.937l4.77 3.059c.222.144.5.183.757.117l12.278-3.406a.957.957 0 00.683-1.07zm0 0"/></g></g></g><g clip-path="url(#prefix__aT)"><g clip-path="url(#prefix__aU)"><g clip-path="url(#prefix__aV)"><path fill="#38b6ff" d="M61.434 282.32l.468-12.73a.94.94 0 00-.289-.715l-4.078-3.93a.945.945 0 00-1.012-.191.955.955 0 00-.593.848l-.438 11.878-11.851.883a.942.942 0 00-.825.625.94.94 0 00.23 1.004l4.079 3.926a.951.951 0 00.723.262l12.703-.946a.957.957 0 00.883-.914zm0 0"/></g></g></g><g clip-path="url(#prefix__aW)"><g clip-path="url(#prefix__aX)"><g clip-path="url(#prefix__aY)"><path fill="#38b6ff" d="M52.598 273.809l.468-12.73a.96.96 0 00-.289-.716l-4.078-3.925a.948.948 0 00-1.605.652l-.438 11.879-11.851.883a.948.948 0 00-.825.625.94.94 0 00.23 1.003l4.08 3.93a.96.96 0 00.722.262l12.703-.95a.957.957 0 00.883-.913zm0 0"/></g></g></g><g clip-path="url(#prefix__aZ)"><g clip-path="url(#prefix__ba)"><g clip-path="url(#prefix__bb)"><path fill="#38b6ff" d="M36.793 250.25l3.941-12.113a.938.938 0 00-.082-.766l-2.843-4.894a.95.95 0 00-1.723.187L32.41 243.97l-11.64-2.399a.947.947 0 00-.965.375.944.944 0 00-.055 1.028l2.848 4.894c.132.235.359.395.62.45l12.477 2.574a.95.95 0 001.098-.641zm0 0"/></g></g></g><g clip-path="url(#prefix__bc)"><g clip-path="url(#prefix__bd)"><g clip-path="url(#prefix__be)"><path fill="#38b6ff" d="M30.629 239.645l3.941-12.114a.938.938 0 00-.082-.765l-2.843-4.895a.946.946 0 00-.922-.465.954.954 0 00-.801.653l-3.676 11.304-11.644-2.402a.958.958 0 00-.961.375.943.943 0 00-.055 1.031l2.844 4.895c.136.23.363.39.625.449l12.476 2.57a.952.952 0 001.098-.636zm0 0"/></g></g></g><g clip-path="url(#prefix__bf)"><path fill="#38b6ff" d="M20.016 200.004l9.492-8.492a.934.934 0 00.316-.703v-5.66a.945.945 0 00-.562-.864.946.946 0 00-1.02.16l-8.863 7.926-8.856-7.926a.955.955 0 00-1.023-.16.945.945 0 00-.563.863v5.66c0 .27.114.524.313.704l9.496 8.492a.95.95 0 001.27 0zm0 0"/></g><g clip-path="url(#prefix__bg)"><path fill="#38b6ff" d="M20.016 187.738l9.492-8.496a.932.932 0 00.316-.699v-5.664a.95.95 0 00-.562-.863.961.961 0 00-1.02.16l-8.863 7.926-8.856-7.926a.95.95 0 00-1.586.703v5.664c0 .266.114.52.313.7l9.496 8.495c.36.32.91.32 1.27 0zm0 0"/></g><g clip-path="url(#prefix__bh)"><g clip-path="url(#prefix__bi)"><g clip-path="url(#prefix__bj)"><path fill="#5ce1e6" d="M22.281 145.098l12.64-1.57a.951.951 0 00.661-.4l3.227-4.651a.95.95 0 00-.903-1.48L26.11 138.46l-2.765-11.559a.952.952 0 00-1.703-.324l-3.227 4.652a.948.948 0 00-.14.758l2.964 12.387a.949.949 0 001.043.723zm0 0"/></g></g></g><g clip-path="url(#prefix__bk)"><g clip-path="url(#prefix__bl)"><g clip-path="url(#prefix__bm)"><path fill="#5ce1e6" d="M29.27 135.016l12.64-1.575a.933.933 0 00.66-.394l3.223-4.656a.935.935 0 00.031-1.028.953.953 0 00-.93-.449l-11.796 1.465-2.766-11.559a.963.963 0 00-.75-.715.941.941 0 00-.953.387l-3.227 4.656a.936.936 0 00-.14.754l2.965 12.391a.95.95 0 001.043.723zm0 0"/></g></g></g><g clip-path="url(#prefix__bn)"><g clip-path="url(#prefix__bo)"><g clip-path="url(#prefix__bp)"><path fill="#38b6ff" d="M45.11 108.906l12.671 1.317a.941.941 0 00.73-.239l4.192-3.808a.948.948 0 00.258-.996.954.954 0 00-.805-.649l-11.824-1.226-.09-11.887a.948.948 0 00-1.586-.7l-4.191 3.805a.963.963 0 00-.309.707l.098 12.739c.004.484.375.89.855.937zm0 0"/></g></g></g><g clip-path="url(#prefix__bq)"><g clip-path="url(#prefix__br)"><g clip-path="url(#prefix__bs)"><path fill="#38b6ff" d="M54.188 100.656l12.671 1.317a.936.936 0 00.73-.239l4.192-3.808a.942.942 0 00.262-.996.958.958 0 00-.805-.649l-11.824-1.226-.09-11.887a.95.95 0 00-1.586-.7l-4.191 3.805a.955.955 0 00-.309.707l.098 12.739c.004.484.375.89.852.937zm0 0"/></g></g></g><g clip-path="url(#prefix__bt)"><g clip-path="url(#prefix__bu)"><g clip-path="url(#prefix__bv)"><path fill="#38b6ff" d="M75.379 84.59l11.808 4.773c.254.098.532.09.77-.027l5.082-2.5a.95.95 0 00.527-.883.958.958 0 00-.597-.848l-11.02-4.453 3.203-11.445a.946.946 0 00-.304-.988.943.943 0 00-1.024-.125l-5.082 2.496a.974.974 0 00-.492.59l-3.434 12.27a.957.957 0 00.563 1.14zm0 0"/></g></g></g><g clip-path="url(#prefix__bw)"><g clip-path="url(#prefix__bx)"><g clip-path="url(#prefix__by)"><path fill="#38b6ff" d="M86.387 79.176l11.812 4.773c.25.102.528.094.77-.027l5.082-2.496a.945.945 0 00.523-.887.945.945 0 00-.594-.844l-11.02-4.457 3.204-11.445a.958.958 0 00-.305-.988.952.952 0 00-1.023-.125l-5.082 2.5a.94.94 0 00-.492.59l-3.434 12.265a.953.953 0 00.559 1.14zm0 0"/></g></g></g><g clip-path="url(#prefix__bz)"><path fill="#38b6ff" d="M118.215 68.148l8.492 9.493a.946.946 0 00.703.316h5.664a.95.95 0 00.863-.562.956.956 0 00-.164-1.02l-7.921-8.86 7.921-8.859a.95.95 0 00-.7-1.586h-5.663a.971.971 0 00-.703.313l-8.492 9.496c-.32.36-.32.91 0 1.27zm0 0"/></g><g clip-path="url(#prefix__bA)"><path fill="#38b6ff" d="M130.484 68.148l8.493 9.493a.94.94 0 00.703.316h5.66a.947.947 0 00.703-1.582l-7.926-8.86 7.926-8.859a.955.955 0 00.16-1.023.94.94 0 00-.863-.563h-5.66c-.27 0-.52.117-.703.313l-8.493 9.496a.95.95 0 000 1.27zm0 0"/></g><g clip-path="url(#prefix__bB)"><g clip-path="url(#prefix__bC)"><g clip-path="url(#prefix__bD)"><path fill="#5ce1e6" d="M154.75 67.309l8.207 9.742a.947.947 0 00.691.34l5.66.168a.948.948 0 00.75-1.563l-7.656-9.094 8.188-8.613a.953.953 0 00.191-1.02.934.934 0 00-.844-.585l-5.66-.172a.955.955 0 00-.71.293l-8.778 9.234a.96.96 0 00-.039 1.27zm0 0"/></g></g></g><g clip-path="url(#prefix__bE)"><g clip-path="url(#prefix__bF)"><g clip-path="url(#prefix__bG)"><path fill="#5ce1e6" d="M167.016 67.676l8.203 9.746a.936.936 0 00.691.336l5.66.172a.948.948 0 00.75-1.563l-7.656-9.094 8.188-8.617a.946.946 0 00.191-1.015.944.944 0 00-.844-.59l-5.66-.172a.955.955 0 00-.71.293l-8.778 9.234a.955.955 0 00-.035 1.27zm0 0"/></g></g></g><g clip-path="url(#prefix__bH)"><g clip-path="url(#prefix__bI)"><g clip-path="url(#prefix__bJ)"><path fill="#38b6ff" d="M266.402 67.309l8.207 9.742a.947.947 0 00.692.34l5.66.168a.948.948 0 00.75-1.563l-7.656-9.094 8.187-8.613a.953.953 0 00.192-1.02.934.934 0 00-.844-.585l-5.66-.172a.955.955 0 00-.711.293l-8.778 9.234a.96.96 0 00-.039 1.27zm0 0"/></g></g></g><g clip-path="url(#prefix__bK)"><g clip-path="url(#prefix__bL)"><g clip-path="url(#prefix__bM)"><path fill="#38b6ff" d="M278.668 67.676l8.203 9.746a.936.936 0 00.692.336l5.66.172a.948.948 0 00.75-1.563l-7.657-9.094 8.188-8.617a.946.946 0 00.191-1.015.944.944 0 00-.843-.59l-5.66-.172a.955.955 0 00-.712.293l-8.777 9.234a.955.955 0 00-.035 1.27zm0 0"/></g></g></g><g clip-path="url(#prefix__bN)"><g clip-path="url(#prefix__bO)"><g clip-path="url(#prefix__bP)"><path fill="#38b6ff" d="M229.277 67.309l8.207 9.742a.947.947 0 00.692.34l5.66.168a.948.948 0 00.75-1.563l-7.656-9.094 8.187-8.613a.953.953 0 00.192-1.02.934.934 0 00-.844-.585l-5.66-.172a.955.955 0 00-.711.293l-8.778 9.234a.96.96 0 00-.039 1.27zm0 0"/></g></g></g><g clip-path="url(#prefix__bQ)"><g clip-path="url(#prefix__bR)"><g clip-path="url(#prefix__bS)"><path fill="#38b6ff" d="M241.543 67.676l8.203 9.746a.936.936 0 00.691.336l5.66.172a.948.948 0 00.75-1.563l-7.656-9.094 8.188-8.617a.946.946 0 00.191-1.015.944.944 0 00-.843-.59l-5.66-.172a.955.955 0 00-.712.293l-8.777 9.234a.955.955 0 00-.035 1.27zm0 0"/></g></g></g><g clip-path="url(#prefix__bT)"><g clip-path="url(#prefix__bU)"><g clip-path="url(#prefix__bV)"><path fill="#38b6ff" d="M192.762 67.309l8.203 9.742a.962.962 0 00.695.34l5.656.168a.95.95 0 00.883-.536.957.957 0 00-.133-1.027l-7.652-9.094 8.188-8.613a.961.961 0 00.191-1.02.939.939 0 00-.848-.585l-5.656-.172a.964.964 0 00-.715.293l-8.773 9.234a.955.955 0 00-.04 1.27zm0 0"/></g></g></g><g clip-path="url(#prefix__bW)"><g clip-path="url(#prefix__bX)"><g clip-path="url(#prefix__bY)"><path fill="#38b6ff" d="M205.023 67.676l8.207 9.746a.93.93 0 00.692.336l5.66.172a.948.948 0 00.75-1.563l-7.656-9.094 8.187-8.617a.946.946 0 00.192-1.015.944.944 0 00-.844-.59l-5.66-.172a.955.955 0 00-.711.293l-8.778 9.234a.96.96 0 00-.039 1.27zm0 0"/></g></g></g></svg>