<svg xmlns="http://www.w3.org/2000/svg" xmlns:xlink="http://www.w3.org/1999/xlink" width="450" zoomAndPan="magnify" viewBox="0 0 337.5 374.999991" height="500" preserveAspectRatio="xMidYMid meet" version="1.0"><defs><clipPath id="bafdedecdb"><path d="M 0 52.777344 L 303.75 52.777344 L 303.75 323 L 0 323 Z M 0 52.777344 " clip-rule="nonzero"/></clipPath><clipPath id="ae1c2bce2d"><path d="M 7.917969 142.824219 C 3.136719 156.667969 0 172.40625 0 187.851562 C 0 203.296875 2.6875 218.15625 7.46875 231.855469 C 7.621094 232.144531 7.621094 232.4375 7.769531 232.730469 C 26.890625 284.164062 77.390625 322.046875 135.65625 322.777344 L 303.75 322.777344 L 303.75 52.777344 L 135.78125 52.777344 C 77.09375 53.503906 26.59375 90.808594 7.917969 142.824219 " clip-rule="nonzero"/></clipPath><clipPath id="6bcddf4f41"><path d="M 0 52.777344 L 303.75 52.777344 L 303.75 322.777344 L 0 322.777344 Z M 0 52.777344 " clip-rule="nonzero"/></clipPath><clipPath id="2c3a79c3d9"><path d="M 7.917969 142.824219 C 3.136719 156.667969 0 172.40625 0 187.851562 C 0 203.296875 2.6875 218.15625 7.46875 231.855469 C 7.621094 232.144531 7.621094 232.4375 7.769531 232.730469 C 26.890625 284.164062 77.390625 322.046875 135.65625 322.777344 L 303.75 322.777344 L 303.75 52.777344 L 135.78125 52.777344 C 77.09375 53.503906 26.59375 90.808594 7.917969 142.824219 " clip-rule="nonzero"/></clipPath><clipPath id="997cb57d28"><path d="M 34 77 L 251 77 L 251 294 L 34 294 Z M 34 77 " clip-rule="nonzero"/></clipPath><clipPath id="6e43b20b80"><path d="M 100.316406 332.410156 L -3.972656 142.925781 L 185.511719 38.636719 L 289.800781 228.121094 Z M 100.316406 332.410156 " clip-rule="nonzero"/></clipPath><clipPath id="b570e61288"><path d="M 48.238281 237.792969 C 77 290.046875 142.675781 309.09375 194.929688 280.335938 C 247.1875 251.574219 266.230469 185.898438 237.472656 133.644531 C 208.710938 81.386719 143.035156 62.34375 90.78125 91.101562 C 38.527344 119.863281 19.480469 185.539062 48.238281 237.792969 " clip-rule="nonzero"/></clipPath><clipPath id="c3ac8c5192"><path d="M 34 77 L 251 77 L 251 294 L 34 294 Z M 34 77 " clip-rule="nonzero"/></clipPath><clipPath id="5145be8e6a"><path d="M 100.316406 332.410156 L -3.835938 143.175781 L 185.398438 39.027344 L 289.546875 228.257812 Z M 100.316406 332.410156 " clip-rule="nonzero"/></clipPath><clipPath id="87602fdda4"><path d="M 100.316406 332.410156 L -5.308594 140.5 L 186.601562 34.878906 L 292.222656 226.785156 Z M 100.316406 332.410156 " clip-rule="nonzero"/></clipPath><clipPath id="2895e39016"><path d="M 48.238281 237.792969 C 77 290.046875 142.675781 309.09375 194.929688 280.335938 C 247.1875 251.574219 266.230469 185.898438 237.472656 133.644531 C 208.710938 81.386719 143.035156 62.34375 90.78125 91.101562 C 38.527344 119.863281 19.480469 185.539062 48.238281 237.792969 " clip-rule="nonzero"/></clipPath><clipPath id="65c67b4683"><path d="M 81 197 L 118 197 L 118 229 L 81 229 Z M 81 197 " clip-rule="nonzero"/></clipPath><clipPath id="cccecb2c98"><path d="M 90.230469 228.441406 L 81.074219 212.753906 L 108.644531 196.660156 L 117.800781 212.347656 Z M 90.230469 228.441406 " clip-rule="nonzero"/></clipPath><clipPath id="a20bf82b9a"><path d="M 90.230469 228.441406 L 81.273438 213.09375 L 108.675781 197.101562 L 117.632812 212.449219 Z M 90.230469 228.441406 " clip-rule="nonzero"/></clipPath><clipPath id="e83866cd02"><path d="M 132 123 L 151 123 L 151 156 L 132 156 Z M 132 123 " clip-rule="nonzero"/></clipPath><clipPath id="5e1c111eb1"><path d="M 150.507812 155.480469 L 132.347656 155.367188 L 132.546875 123.445312 L 150.710938 123.558594 Z M 150.507812 155.480469 " clip-rule="nonzero"/></clipPath><clipPath id="f56ebbde3b"><path d="M 150.507812 155.480469 L 132.742188 155.371094 L 132.941406 123.640625 L 150.707031 123.753906 Z M 150.507812 155.480469 " clip-rule="nonzero"/></clipPath><clipPath id="734e574365"><path d="M 99 139 L 185 139 L 185 213 L 99 213 Z M 99 139 " clip-rule="nonzero"/></clipPath><clipPath id="97e11eb5bc"><path d="M 205.179688 176.199219 L 162.589844 249.984375 L 98.511719 213 L 141.101562 139.210938 Z M 205.179688 176.199219 " clip-rule="nonzero"/></clipPath><clipPath id="e0ffa3eaf6"><path d="M 184.050781 212.808594 L 99.457031 212.792969 L 141.722656 139.570312 L 184.050781 212.808594 " clip-rule="nonzero"/></clipPath><clipPath id="955ff66399"><path d="M 158 193 L 196 193 L 196 225 L 158 225 Z M 158 193 " clip-rule="nonzero"/></clipPath><clipPath id="e8190b717a"><path d="M 195.332031 209.058594 L 186.25 224.789062 L 158.601562 208.832031 L 167.679688 193.097656 Z M 195.332031 209.058594 " clip-rule="nonzero"/></clipPath><clipPath id="6d2bdaf677"><path d="M 195.332031 209.058594 L 186.449219 224.445312 L 158.96875 208.585938 L 167.851562 193.195312 Z M 195.332031 209.058594 " clip-rule="nonzero"/></clipPath><clipPath id="fa9ed2de55"><path d="M 180 199 L 237 199 L 237 255 L 180 255 Z M 180 199 " clip-rule="nonzero"/></clipPath><clipPath id="824b3cd325"><path d="M 199.382812 188.816406 L 246.90625 217.722656 L 217.996094 265.246094 L 170.476562 236.335938 Z M 199.382812 188.816406 " clip-rule="nonzero"/></clipPath><clipPath id="cce5de2a22"><path d="M 223.144531 203.269531 C 210.023438 195.289062 192.914062 199.453125 184.929688 212.578125 C 176.949219 225.699219 181.113281 242.808594 194.238281 250.789062 C 207.359375 258.773438 224.46875 254.605469 232.449219 241.484375 C 240.433594 228.363281 236.265625 211.253906 223.144531 203.269531 " clip-rule="nonzero"/></clipPath><clipPath id="6090a91db1"><path d="M 180 199 L 237 199 L 237 255 L 180 255 Z M 180 199 " clip-rule="nonzero"/></clipPath><clipPath id="8467ec57df"><path d="M 199.382812 188.816406 L 246.800781 217.660156 L 217.957031 265.078125 L 170.539062 236.230469 Z M 199.382812 188.816406 " clip-rule="nonzero"/></clipPath><clipPath id="bc2c5ca8e2"><path d="M 199.382812 188.816406 L 246.800781 217.660156 L 217.957031 265.078125 L 170.539062 236.230469 Z M 199.382812 188.816406 " clip-rule="nonzero"/></clipPath><clipPath id="2ef2c7b8ea"><path d="M 223.09375 203.238281 C 210 195.273438 192.925781 199.429688 184.960938 212.523438 C 176.996094 225.617188 181.152344 242.6875 194.246094 250.65625 C 207.339844 258.621094 224.414062 254.460938 232.378906 241.367188 C 240.34375 228.273438 236.183594 211.203125 223.09375 203.238281 " clip-rule="nonzero"/></clipPath><clipPath id="52e24b4902"><path d="M 113 81 L 170 81 L 170 138 L 113 138 Z M 113 81 " clip-rule="nonzero"/></clipPath><clipPath id="6d41555d41"><path d="M 169.550781 81.78125 L 169.535156 137.402344 L 113.914062 137.386719 L 113.929688 81.765625 Z M 169.550781 81.78125 " clip-rule="nonzero"/></clipPath><clipPath id="f4b3943892"><path d="M 169.542969 109.589844 C 169.546875 94.230469 157.101562 81.777344 141.742188 81.773438 C 126.378906 81.769531 113.925781 94.214844 113.921875 109.578125 C 113.917969 124.9375 126.367188 137.390625 141.726562 137.394531 C 157.085938 137.398438 169.539062 124.949219 169.542969 109.589844 " clip-rule="nonzero"/></clipPath><clipPath id="42934ea999"><path d="M 114 81 L 170 81 L 170 138 L 114 138 Z M 114 81 " clip-rule="nonzero"/></clipPath><clipPath id="525c66cfd4"><path d="M 169.550781 81.78125 L 169.535156 137.28125 L 114.035156 137.265625 L 114.050781 81.765625 Z M 169.550781 81.78125 " clip-rule="nonzero"/></clipPath><clipPath id="76288b0f72"><path d="M 169.550781 81.78125 L 169.535156 137.28125 L 114.035156 137.265625 L 114.050781 81.765625 Z M 169.550781 81.78125 " clip-rule="nonzero"/></clipPath><clipPath id="49157c6812"><path d="M 169.542969 109.53125 C 169.546875 94.203125 157.128906 81.777344 141.800781 81.773438 C 126.476562 81.769531 114.046875 94.1875 114.042969 109.515625 C 114.039062 124.839844 126.460938 137.269531 141.785156 137.273438 C 157.113281 137.277344 169.539062 124.855469 169.542969 109.53125 " clip-rule="nonzero"/></clipPath><clipPath id="a1048a6016"><path d="M 49 197 L 105 197 L 105 254 L 49 254 Z M 49 197 " clip-rule="nonzero"/></clipPath><clipPath id="8815d6ad57"><path d="M 67.6875 187.339844 L 115.210938 216.25 L 86.300781 263.769531 L 38.78125 234.859375 Z M 67.6875 187.339844 " clip-rule="nonzero"/></clipPath><clipPath id="0a15d46498"><path d="M 91.449219 201.796875 C 78.328125 193.8125 61.21875 197.980469 53.234375 211.101562 C 45.253906 224.222656 49.417969 241.332031 62.542969 249.316406 C 75.664062 257.296875 92.773438 253.132812 100.753906 240.007812 C 108.738281 226.886719 104.570312 209.777344 91.449219 201.796875 " clip-rule="nonzero"/></clipPath><clipPath id="4ff8742094"><path d="M 49 197 L 105 197 L 105 254 L 49 254 Z M 49 197 " clip-rule="nonzero"/></clipPath><clipPath id="4959e42a19"><path d="M 67.6875 187.339844 L 115.105469 216.183594 L 86.261719 263.601562 L 38.84375 234.757812 Z M 67.6875 187.339844 " clip-rule="nonzero"/></clipPath><clipPath id="aad9f2df5f"><path d="M 67.6875 187.339844 L 115.105469 216.183594 L 86.261719 263.601562 L 38.84375 234.757812 Z M 67.6875 187.339844 " clip-rule="nonzero"/></clipPath><clipPath id="4cb7a8b493"><path d="M 91.398438 201.761719 C 78.304688 193.796875 61.230469 197.957031 53.265625 211.050781 C 45.300781 224.140625 49.460938 241.214844 62.554688 249.179688 C 75.648438 257.144531 92.71875 252.988281 100.683594 239.894531 C 108.648438 226.800781 104.492188 209.726562 91.398438 201.761719 " clip-rule="nonzero"/></clipPath><clipPath id="eefd0d57c2"><path d="M 201 220 L 216 220 L 216 235 L 201 235 Z M 201 220 " clip-rule="nonzero"/></clipPath><clipPath id="f67458e2ed"><path d="M 218.222656 224.46875 L 211.246094 236.558594 L 199.15625 229.582031 L 206.132812 217.492188 Z M 218.222656 224.46875 " clip-rule="nonzero"/></clipPath><clipPath id="c697c0d4bf"><path d="M 214.734375 230.515625 C 216.660156 227.175781 215.515625 222.90625 212.179688 220.980469 C 208.839844 219.054688 204.570312 220.199219 202.644531 223.535156 C 200.71875 226.875 201.863281 231.144531 205.199219 233.070312 C 208.539062 234.996094 212.808594 233.855469 214.734375 230.515625 " clip-rule="nonzero"/></clipPath><clipPath id="bff472e3b1"><path d="M 134 102 L 149 102 L 149 117 L 134 117 Z M 134 102 " clip-rule="nonzero"/></clipPath><clipPath id="f414affbd5"><path d="M 148.714844 116.558594 L 134.753906 116.554688 L 134.757812 102.597656 L 148.71875 102.601562 Z M 148.714844 116.558594 " clip-rule="nonzero"/></clipPath><clipPath id="4e99ae3931"><path d="M 141.734375 116.558594 C 145.589844 116.558594 148.714844 113.433594 148.714844 109.582031 C 148.714844 105.726562 145.59375 102.601562 141.738281 102.597656 C 137.882812 102.597656 134.757812 105.722656 134.753906 109.578125 C 134.753906 113.433594 137.878906 116.558594 141.734375 116.558594 " clip-rule="nonzero"/></clipPath><clipPath id="1e42c83752"><path d="M 70 219 L 85 219 L 85 234 L 70 234 Z M 70 219 " clip-rule="nonzero"/></clipPath><clipPath id="8c5fc98003"><path d="M 87.066406 223.882812 L 80.089844 235.972656 L 68 228.996094 L 74.976562 216.90625 Z M 87.066406 223.882812 " clip-rule="nonzero"/></clipPath><clipPath id="7e4a3504fe"><path d="M 83.578125 229.929688 C 85.503906 226.589844 84.359375 222.320312 81.019531 220.394531 C 77.683594 218.46875 73.414062 219.613281 71.488281 222.949219 C 69.558594 226.289062 70.703125 230.558594 74.042969 232.484375 C 77.382812 234.410156 81.648438 233.265625 83.578125 229.929688 " clip-rule="nonzero"/></clipPath><clipPath id="221ff9450f"><path d="M 117 245 L 165 245 L 165 259 L 117 259 Z M 117 245 " clip-rule="nonzero"/></clipPath><clipPath id="71747906d0"><path d="M 117.027344 247.878906 L 164.089844 243.707031 L 165.28125 257.152344 L 118.21875 261.324219 Z M 117.027344 247.878906 " clip-rule="nonzero"/></clipPath><clipPath id="ce0b60dd82"><path d="M 117.027344 247.878906 L 164.089844 243.707031 L 165.28125 257.152344 L 118.21875 261.324219 Z M 117.027344 247.878906 " clip-rule="nonzero"/></clipPath><clipPath id="a90b576fd7"><path d="M 117.027344 247.878906 L 164.089844 243.707031 L 165.28125 257.152344 L 118.21875 261.324219 Z M 117.027344 247.878906 " clip-rule="nonzero"/></clipPath><clipPath id="24481edfbe"><path d="M 124 253 L 125 253 L 125 254 L 124 254 Z M 124 253 " clip-rule="nonzero"/></clipPath><clipPath id="a3112af114"><path d="M 117.027344 247.878906 L 164.089844 243.707031 L 165.28125 257.152344 L 118.21875 261.324219 Z M 117.027344 247.878906 " clip-rule="nonzero"/></clipPath><clipPath id="506c68109a"><path d="M 117.027344 247.878906 L 164.089844 243.707031 L 165.28125 257.152344 L 118.21875 261.324219 Z M 117.027344 247.878906 " clip-rule="nonzero"/></clipPath><clipPath id="4101815fec"><path d="M 117.027344 247.878906 L 164.089844 243.707031 L 165.28125 257.152344 L 118.21875 261.324219 Z M 117.027344 247.878906 " clip-rule="nonzero"/></clipPath><clipPath id="ef5a508824"><path d="M 70 137 L 101 137 L 101 177 L 70 177 Z M 70 137 " clip-rule="nonzero"/></clipPath><clipPath id="489c171d73"><path d="M 101.042969 137.886719 L 77.363281 178.773438 L 65.679688 172.007812 L 89.359375 131.121094 Z M 101.042969 137.886719 " clip-rule="nonzero"/></clipPath><clipPath id="748983460f"><path d="M 101.042969 137.886719 L 77.363281 178.773438 L 65.679688 172.007812 L 89.359375 131.121094 Z M 101.042969 137.886719 " clip-rule="nonzero"/></clipPath><clipPath id="07a2a07249"><path d="M 101.042969 137.886719 L 77.363281 178.773438 L 65.679688 172.007812 L 89.359375 131.121094 Z M 101.042969 137.886719 " clip-rule="nonzero"/></clipPath><clipPath id="d0a8f8497c"><path d="M 91 141 L 93 141 L 93 142 L 91 142 Z M 91 141 " clip-rule="nonzero"/></clipPath><clipPath id="a6f637ac26"><path d="M 101.042969 137.886719 L 77.363281 178.773438 L 65.679688 172.007812 L 89.359375 131.121094 Z M 101.042969 137.886719 " clip-rule="nonzero"/></clipPath><clipPath id="c8e35cbe5c"><path d="M 101.042969 137.886719 L 77.363281 178.773438 L 65.679688 172.007812 L 89.359375 131.121094 Z M 101.042969 137.886719 " clip-rule="nonzero"/></clipPath><clipPath id="974ac94f31"><path d="M 101.042969 137.886719 L 77.363281 178.773438 L 65.679688 172.007812 L 89.359375 131.121094 Z M 101.042969 137.886719 " clip-rule="nonzero"/></clipPath><clipPath id="80b349b841"><path d="M 186 132 L 208 132 L 208 177 L 186 177 Z M 186 132 " clip-rule="nonzero"/></clipPath><clipPath id="c8b8d9e124"><path d="M 202.984375 177.003906 L 182.882812 134.242188 L 195.101562 128.5 L 215.203125 171.261719 Z M 202.984375 177.003906 " clip-rule="nonzero"/></clipPath><clipPath id="6a3fcda1d2"><path d="M 202.984375 177.003906 L 182.882812 134.242188 L 195.101562 128.5 L 215.203125 171.261719 Z M 202.984375 177.003906 " clip-rule="nonzero"/></clipPath><clipPath id="8f4ea60680"><path d="M 202.984375 177.003906 L 182.882812 134.242188 L 195.101562 128.5 L 215.203125 171.261719 Z M 202.984375 177.003906 " clip-rule="nonzero"/></clipPath><clipPath id="3fe295c049"><path d="M 205 167 L 206 167 L 206 168 L 205 168 Z M 205 167 " clip-rule="nonzero"/></clipPath><clipPath id="1337df17a3"><path d="M 202.984375 177.003906 L 182.882812 134.242188 L 195.101562 128.5 L 215.203125 171.261719 Z M 202.984375 177.003906 " clip-rule="nonzero"/></clipPath><clipPath id="243b11fded"><path d="M 202.984375 177.003906 L 182.882812 134.242188 L 195.101562 128.5 L 215.203125 171.261719 Z M 202.984375 177.003906 " clip-rule="nonzero"/></clipPath><clipPath id="a05ba44be1"><path d="M 202.984375 177.003906 L 182.882812 134.242188 L 195.101562 128.5 L 215.203125 171.261719 Z M 202.984375 177.003906 " clip-rule="nonzero"/></clipPath><clipPath id="0995584f1e"><path d="M 278 297.128906 L 295 297.128906 L 295 318.128906 L 278 318.128906 Z M 278 297.128906 " clip-rule="nonzero"/></clipPath><clipPath id="df3579105d"><path d="M 266.625 297.128906 L 283 297.128906 L 283 318.128906 L 266.625 318.128906 Z M 266.625 297.128906 " clip-rule="nonzero"/></clipPath><clipPath id="88f4d84715"><path d="M 241 297.128906 L 258 297.128906 L 258 318.128906 L 241 318.128906 Z M 241 297.128906 " clip-rule="nonzero"/></clipPath><clipPath id="0021050370"><path d="M 229.5 297.128906 L 246 297.128906 L 246 318.128906 L 229.5 318.128906 Z M 229.5 297.128906 " clip-rule="nonzero"/></clipPath><clipPath id="765c5f22c9"><path d="M 204 297.128906 L 220.875 297.128906 L 220.875 318.128906 L 204 318.128906 Z M 204 297.128906 " clip-rule="nonzero"/></clipPath><clipPath id="9021654b13"><path d="M 192.375 297.128906 L 209 297.128906 L 209 318.128906 L 192.375 318.128906 Z M 192.375 297.128906 " clip-rule="nonzero"/></clipPath><clipPath id="b21554826d"><path d="M 167 297.128906 L 183.75 297.128906 L 183.75 318.128906 L 167 318.128906 Z M 167 297.128906 " clip-rule="nonzero"/></clipPath><clipPath id="834a9eeda9"><path d="M 155.25 297.128906 L 172 297.128906 L 172 318.128906 L 155.25 318.128906 Z M 155.25 297.128906 " clip-rule="nonzero"/></clipPath><clipPath id="d2e449d37f"><path d="M 130 297 L 147 297 L 147 319 L 130 319 Z M 130 297 " clip-rule="nonzero"/></clipPath><clipPath id="f25876ddff"><path d="M 117.945312 297.378906 L 146.441406 296.875 L 146.8125 317.871094 L 118.316406 318.375 Z M 117.945312 297.378906 " clip-rule="nonzero"/></clipPath><clipPath id="3753143216"><path d="M 117.945312 297.378906 L 146.441406 296.875 L 146.8125 317.871094 L 118.316406 318.375 Z M 117.945312 297.378906 " clip-rule="nonzero"/></clipPath><clipPath id="e7fd3843dc"><path d="M 117 297 L 135 297 L 135 319 L 117 319 Z M 117 297 " clip-rule="nonzero"/></clipPath><clipPath id="9ca0481ce8"><path d="M 117.945312 297.378906 L 146.441406 296.875 L 146.8125 317.871094 L 118.316406 318.375 Z M 117.945312 297.378906 " clip-rule="nonzero"/></clipPath><clipPath id="a8b31b293b"><path d="M 117.945312 297.378906 L 146.441406 296.875 L 146.8125 317.871094 L 118.316406 318.375 Z M 117.945312 297.378906 " clip-rule="nonzero"/></clipPath><clipPath id="890a9a9e60"><path d="M 80 284 L 100 284 L 100 306 L 80 306 Z M 80 284 " clip-rule="nonzero"/></clipPath><clipPath id="6901dbd793"><path d="M 81.105469 277.734375 L 105.09375 293.121094 L 93.757812 310.796875 L 69.765625 295.410156 Z M 81.105469 277.734375 " clip-rule="nonzero"/></clipPath><clipPath id="abbf4b7c76"><path d="M 81.105469 277.734375 L 105.09375 293.121094 L 93.757812 310.796875 L 69.765625 295.410156 Z M 81.105469 277.734375 " clip-rule="nonzero"/></clipPath><clipPath id="b976b01474"><path d="M 70 278 L 90 278 L 90 300 L 70 300 Z M 70 278 " clip-rule="nonzero"/></clipPath><clipPath id="3860b6dbc0"><path d="M 81.105469 277.734375 L 105.09375 293.121094 L 93.757812 310.796875 L 69.765625 295.410156 Z M 81.105469 277.734375 " clip-rule="nonzero"/></clipPath><clipPath id="5671832035"><path d="M 81.105469 277.734375 L 105.09375 293.121094 L 93.757812 310.796875 L 69.765625 295.410156 Z M 81.105469 277.734375 " clip-rule="nonzero"/></clipPath><clipPath id="8ef0bc6f90"><path d="M 42 264 L 62 264 L 62 285 L 42 285 Z M 42 264 " clip-rule="nonzero"/></clipPath><clipPath id="5fbe9313d9"><path d="M 48.058594 255.742188 L 68.585938 275.511719 L 54.019531 290.636719 L 33.492188 270.867188 Z M 48.058594 255.742188 " clip-rule="nonzero"/></clipPath><clipPath id="c36525f92b"><path d="M 48.058594 255.742188 L 68.585938 275.511719 L 54.019531 290.636719 L 33.492188 270.867188 Z M 48.058594 255.742188 " clip-rule="nonzero"/></clipPath><clipPath id="71ec7babd1"><path d="M 33 256 L 54 256 L 54 276 L 33 276 Z M 33 256 " clip-rule="nonzero"/></clipPath><clipPath id="987b3acae0"><path d="M 48.058594 255.742188 L 68.585938 275.511719 L 54.019531 290.636719 L 33.492188 270.867188 Z M 48.058594 255.742188 " clip-rule="nonzero"/></clipPath><clipPath id="ccd2ee886e"><path d="M 48.058594 255.742188 L 68.585938 275.511719 L 54.019531 290.636719 L 33.492188 270.867188 Z M 48.058594 255.742188 " clip-rule="nonzero"/></clipPath><clipPath id="e175a7f4ac"><path d="M 19 232 L 41 232 L 41 251 L 19 251 Z M 19 232 " clip-rule="nonzero"/></clipPath><clipPath id="67f8f55c0c"><path d="M 31.21875 221.023438 L 45.539062 245.664062 L 27.386719 256.21875 L 13.0625 231.578125 Z M 31.21875 221.023438 " clip-rule="nonzero"/></clipPath><clipPath id="ac92569ca2"><path d="M 31.21875 221.023438 L 45.539062 245.664062 L 27.386719 256.21875 L 13.0625 231.578125 Z M 31.21875 221.023438 " clip-rule="nonzero"/></clipPath><clipPath id="59cdb662f3"><path d="M 13 221 L 35 221 L 35 241 L 13 241 Z M 13 221 " clip-rule="nonzero"/></clipPath><clipPath id="bb170ad106"><path d="M 31.21875 221.023438 L 45.539062 245.664062 L 27.386719 256.21875 L 13.0625 231.578125 Z M 31.21875 221.023438 " clip-rule="nonzero"/></clipPath><clipPath id="29e6f0cbba"><path d="M 31.21875 221.023438 L 45.539062 245.664062 L 27.386719 256.21875 L 13.0625 231.578125 Z M 31.21875 221.023438 " clip-rule="nonzero"/></clipPath><clipPath id="828f5613a3"><path d="M 8.878906 184 L 29.878906 184 L 29.878906 200.4375 L 8.878906 200.4375 Z M 8.878906 184 " clip-rule="nonzero"/></clipPath><clipPath id="20f815000e"><path d="M 8.878906 171.9375 L 29.878906 171.9375 L 29.878906 188 L 8.878906 188 Z M 8.878906 171.9375 " clip-rule="nonzero"/></clipPath><clipPath id="d8e0591c42"><path d="M 18 126 L 39 126 L 39 146 L 18 146 Z M 18 126 " clip-rule="nonzero"/></clipPath><clipPath id="bd8ed82a8b"><path d="M 46.378906 127.648438 L 30.144531 151.074219 L 12.882812 139.109375 L 29.117188 115.6875 Z M 46.378906 127.648438 " clip-rule="nonzero"/></clipPath><clipPath id="49c9f20126"><path d="M 46.378906 127.648438 L 30.144531 151.074219 L 12.882812 139.109375 L 29.117188 115.6875 Z M 46.378906 127.648438 " clip-rule="nonzero"/></clipPath><clipPath id="98e60d617f"><path d="M 25 116 L 46 116 L 46 136 L 25 136 Z M 25 116 " clip-rule="nonzero"/></clipPath><clipPath id="2d6a2af90a"><path d="M 46.378906 127.648438 L 30.144531 151.074219 L 12.882812 139.109375 L 29.117188 115.6875 Z M 46.378906 127.648438 " clip-rule="nonzero"/></clipPath><clipPath id="f4e2e16908"><path d="M 46.378906 127.648438 L 30.144531 151.074219 L 12.882812 139.109375 L 29.117188 115.6875 Z M 46.378906 127.648438 " clip-rule="nonzero"/></clipPath><clipPath id="41e1c8899d"><path d="M 44 90 L 64 90 L 64 111 L 44 111 Z M 44 90 " clip-rule="nonzero"/></clipPath><clipPath id="4dff1dd014"><path d="M 72.519531 97.335938 L 51.425781 116.5 L 37.304688 100.957031 L 58.398438 81.792969 Z M 72.519531 97.335938 " clip-rule="nonzero"/></clipPath><clipPath id="ed34350333"><path d="M 72.519531 97.335938 L 51.425781 116.5 L 37.304688 100.957031 L 58.398438 81.792969 Z M 72.519531 97.335938 " clip-rule="nonzero"/></clipPath><clipPath id="5a9e946dfb"><path d="M 53 82 L 73 82 L 73 102 L 53 102 Z M 53 82 " clip-rule="nonzero"/></clipPath><clipPath id="1a440f4306"><path d="M 72.519531 97.335938 L 51.425781 116.5 L 37.304688 100.957031 L 58.398438 81.792969 Z M 72.519531 97.335938 " clip-rule="nonzero"/></clipPath><clipPath id="c529b993a7"><path d="M 72.519531 97.335938 L 51.425781 116.5 L 37.304688 100.957031 L 58.398438 81.792969 Z M 72.519531 97.335938 " clip-rule="nonzero"/></clipPath><clipPath id="15e9f17f21"><path d="M 74 67 L 94 67 L 94 90 L 74 90 Z M 74 67 " clip-rule="nonzero"/></clipPath><clipPath id="996e93ff9d"><path d="M 104.921875 81.058594 L 79.34375 93.632812 L 70.078125 74.785156 L 95.65625 62.214844 Z M 104.921875 81.058594 " clip-rule="nonzero"/></clipPath><clipPath id="3545548c5f"><path d="M 104.921875 81.058594 L 79.34375 93.632812 L 70.078125 74.785156 L 95.65625 62.214844 Z M 104.921875 81.058594 " clip-rule="nonzero"/></clipPath><clipPath id="434f849703"><path d="M 85 62 L 105 62 L 105 85 L 85 85 Z M 85 62 " clip-rule="nonzero"/></clipPath><clipPath id="fd03e2322c"><path d="M 104.921875 81.058594 L 79.34375 93.632812 L 70.078125 74.785156 L 95.65625 62.214844 Z M 104.921875 81.058594 " clip-rule="nonzero"/></clipPath><clipPath id="20c506231c"><path d="M 104.921875 81.058594 L 79.34375 93.632812 L 70.078125 74.785156 L 95.65625 62.214844 Z M 104.921875 81.058594 " clip-rule="nonzero"/></clipPath><clipPath id="f23a4cd342"><path d="M 117.785156 57.015625 L 135 57.015625 L 135 78 L 117.785156 78 Z M 117.785156 57.015625 " clip-rule="nonzero"/></clipPath><clipPath id="e330b8f831"><path d="M 130 57.015625 L 146.285156 57.015625 L 146.285156 78 L 130 78 Z M 130 57.015625 " clip-rule="nonzero"/></clipPath><clipPath id="50b113c69e"><path d="M 154 56 L 171 56 L 171 78 L 154 78 Z M 154 56 " clip-rule="nonzero"/></clipPath><clipPath id="3813e50990"><path d="M 182.511719 78.011719 L 154.023438 77.15625 L 154.65625 56.164062 L 183.144531 57.023438 Z M 182.511719 78.011719 " clip-rule="nonzero"/></clipPath><clipPath id="4d32441ca5"><path d="M 182.511719 78.011719 L 154.023438 77.15625 L 154.65625 56.164062 L 183.144531 57.023438 Z M 182.511719 78.011719 " clip-rule="nonzero"/></clipPath><clipPath id="d0557120de"><path d="M 166 56 L 184 56 L 184 78 L 166 78 Z M 166 56 " clip-rule="nonzero"/></clipPath><clipPath id="a12be6a509"><path d="M 182.511719 78.011719 L 154.023438 77.15625 L 154.65625 56.164062 L 183.144531 57.023438 Z M 182.511719 78.011719 " clip-rule="nonzero"/></clipPath><clipPath id="907b12bf40"><path d="M 182.511719 78.011719 L 154.023438 77.15625 L 154.65625 56.164062 L 183.144531 57.023438 Z M 182.511719 78.011719 " clip-rule="nonzero"/></clipPath><clipPath id="7246a27c58"><path d="M 266 56 L 283 56 L 283 78 L 266 78 Z M 266 56 " clip-rule="nonzero"/></clipPath><clipPath id="c1c1487686"><path d="M 294.164062 78.011719 L 265.675781 77.15625 L 266.308594 56.164062 L 294.796875 57.023438 Z M 294.164062 78.011719 " clip-rule="nonzero"/></clipPath><clipPath id="3c8c39b2e0"><path d="M 294.164062 78.011719 L 265.675781 77.15625 L 266.308594 56.164062 L 294.796875 57.023438 Z M 294.164062 78.011719 " clip-rule="nonzero"/></clipPath><clipPath id="e32e97855a"><path d="M 278 56 L 295 56 L 295 78 L 278 78 Z M 278 56 " clip-rule="nonzero"/></clipPath><clipPath id="6e02e3756e"><path d="M 294.164062 78.011719 L 265.675781 77.15625 L 266.308594 56.164062 L 294.796875 57.023438 Z M 294.164062 78.011719 " clip-rule="nonzero"/></clipPath><clipPath id="079f112dba"><path d="M 294.164062 78.011719 L 265.675781 77.15625 L 266.308594 56.164062 L 294.796875 57.023438 Z M 294.164062 78.011719 " clip-rule="nonzero"/></clipPath><clipPath id="ba33658355"><path d="M 229 56 L 246 56 L 246 78 L 229 78 Z M 229 56 " clip-rule="nonzero"/></clipPath><clipPath id="123db29ca8"><path d="M 257.039062 78.011719 L 228.550781 77.15625 L 229.183594 56.164062 L 257.671875 57.023438 Z M 257.039062 78.011719 " clip-rule="nonzero"/></clipPath><clipPath id="1bff0057dc"><path d="M 257.039062 78.011719 L 228.550781 77.15625 L 229.183594 56.164062 L 257.671875 57.023438 Z M 257.039062 78.011719 " clip-rule="nonzero"/></clipPath><clipPath id="6a9c28174f"><path d="M 241 56 L 258 56 L 258 78 L 241 78 Z M 241 56 " clip-rule="nonzero"/></clipPath><clipPath id="a49f2f4f38"><path d="M 257.039062 78.011719 L 228.550781 77.15625 L 229.183594 56.164062 L 257.671875 57.023438 Z M 257.039062 78.011719 " clip-rule="nonzero"/></clipPath><clipPath id="26a3a6bc47"><path d="M 257.039062 78.011719 L 228.550781 77.15625 L 229.183594 56.164062 L 257.671875 57.023438 Z M 257.039062 78.011719 " clip-rule="nonzero"/></clipPath><clipPath id="a0d1e7782b"><path d="M 192 56 L 209 56 L 209 78 L 192 78 Z M 192 56 " clip-rule="nonzero"/></clipPath><clipPath id="df9ccb0abb"><path d="M 220.523438 78.011719 L 192.035156 77.15625 L 192.667969 56.164062 L 221.15625 57.023438 Z M 220.523438 78.011719 " clip-rule="nonzero"/></clipPath><clipPath id="fc0744cda1"><path d="M 220.523438 78.011719 L 192.035156 77.15625 L 192.667969 56.164062 L 221.15625 57.023438 Z M 220.523438 78.011719 " clip-rule="nonzero"/></clipPath><clipPath id="96f55c3f9e"><path d="M 204 56 L 222 56 L 222 78 L 204 78 Z M 204 56 " clip-rule="nonzero"/></clipPath><clipPath id="f31f326116"><path d="M 220.523438 78.011719 L 192.035156 77.15625 L 192.667969 56.164062 L 221.15625 57.023438 Z M 220.523438 78.011719 " clip-rule="nonzero"/></clipPath><clipPath id="141bb679de"><path d="M 220.523438 78.011719 L 192.035156 77.15625 L 192.667969 56.164062 L 221.15625 57.023438 Z M 220.523438 78.011719 " clip-rule="nonzero"/></clipPath></defs><g clip-path="url(#bafdedecdb)"><g clip-path="url(#ae1c2bce2d)"><path fill="#737373" d="M 303.75 52.777344 L 303.75 323.039062 L -0.132812 323.039062 L -0.132812 52.777344 Z M 303.75 52.777344 " fill-opacity="1" fill-rule="nonzero"/></g></g><g clip-path="url(#6bcddf4f41)"><g clip-path="url(#2c3a79c3d9)"><path stroke-linecap="butt" transform="matrix(0.000000000000000046, 0.75, -0.75, 0.000000000000000046, 303.749959, 52.777278)" fill="none" stroke-linejoin="miter" d="M 120.062594 394.442673 C 138.520928 400.817674 159.505305 404.999965 180.099056 404.999965 C 200.692807 404.999965 220.505308 401.416632 238.770934 395.041632 C 239.15635 394.838507 239.546975 394.838507 239.9376 394.64059 C 308.515729 369.145797 359.026148 301.81246 360.000106 224.124956 L 360.000106 -0.0000552182 L 0.000088039 -0.0000552182 L 0.000088039 223.95829 C 0.968838 302.208294 50.708424 369.54163 120.062594 394.442673 " stroke="#000000" stroke-width="4" stroke-opacity="1" stroke-miterlimit="4"/></g></g><g clip-path="url(#997cb57d28)"><g clip-path="url(#6e43b20b80)"><g clip-path="url(#b570e61288)"><path fill="#a6a6a6" d="M 100.316406 332.410156 L -3.707031 143.410156 L 185.292969 39.386719 L 289.316406 228.386719 Z M 100.316406 332.410156 " fill-opacity="1" fill-rule="nonzero"/></g></g></g><g clip-path="url(#c3ac8c5192)"><g clip-path="url(#5145be8e6a)"><g clip-path="url(#87602fdda4)"><g clip-path="url(#2895e39016)"><path stroke-linecap="butt" transform="matrix(-0.361633, -0.657055, 0.657055, -0.361633, 100.314973, 332.409248)" fill="none" stroke-linejoin="miter" d="M 144.0014 -0.00161002 C 64.472692 0.000714118 0.000904493 64.471202 -0.00133425 143.997398 C -0.00152146 223.530668 64.471478 287.997893 143.997674 288.000132 C 223.530944 288.000319 287.998169 223.52732 288.000408 144.001124 C 287.998084 64.472416 223.527596 0.000628729 144.0014 -0.00161002 " stroke="#000000" stroke-width="8" stroke-opacity="1" stroke-miterlimit="4"/></g></g></g></g><g clip-path="url(#65c67b4683)"><g clip-path="url(#cccecb2c98)"><g clip-path="url(#a20bf82b9a)"><path fill="#ffde59" d="M 90.230469 228.441406 L 81.351562 213.226562 L 108.921875 197.136719 L 117.800781 212.347656 Z M 90.230469 228.441406 " fill-opacity="1" fill-rule="nonzero"/></g></g></g><g clip-path="url(#e83866cd02)"><g clip-path="url(#5e1c111eb1)"><g clip-path="url(#f56ebbde3b)"><path fill="#ffde59" d="M 150.507812 155.480469 L 132.894531 155.371094 L 133.097656 123.445312 L 150.710938 123.558594 Z M 150.507812 155.480469 " fill-opacity="1" fill-rule="nonzero"/></g></g></g><g clip-path="url(#734e574365)"><g clip-path="url(#97e11eb5bc)"><g clip-path="url(#e0ffa3eaf6)"><path fill="#ffde59" d="M 205.179688 176.199219 L 162.964844 249.339844 L 99.53125 212.726562 L 141.75 139.585938 Z M 205.179688 176.199219 " fill-opacity="1" fill-rule="nonzero"/></g></g></g><g clip-path="url(#955ff66399)"><g clip-path="url(#e8190b717a)"><g clip-path="url(#6d2bdaf677)"><path fill="#ffde59" d="M 195.332031 209.058594 L 186.527344 224.3125 L 158.875 208.351562 L 167.679688 193.097656 Z M 195.332031 209.058594 " fill-opacity="1" fill-rule="nonzero"/></g></g></g><g clip-path="url(#fa9ed2de55)"><g clip-path="url(#824b3cd325)"><g clip-path="url(#cce5de2a22)"><path fill="#ffde59" d="M 199.382812 188.816406 L 246.90625 217.722656 L 217.996094 265.246094 L 170.476562 236.335938 Z M 199.382812 188.816406 " fill-opacity="1" fill-rule="nonzero"/></g></g></g><g clip-path="url(#6090a91db1)"><g clip-path="url(#8467ec57df)"><g clip-path="url(#bc2c5ca8e2)"><g clip-path="url(#2ef2c7b8ea)"><path fill="#000000" d="M 221.535156 205.796875 C 216.792969 202.910156 211.664062 201.75 206.15625 202.316406 L 205.542969 196.359375 C 212.386719 195.65625 218.753906 197.097656 224.648438 200.679688 Z M 203.515625 202.734375 C 198.082031 203.890625 193.558594 206.558594 189.949219 210.742188 L 185.417969 206.828125 C 189.902344 201.632812 195.519531 198.316406 202.265625 196.875 Z M 188.316406 212.851562 C 188.039062 213.253906 187.773438 213.660156 187.519531 214.082031 C 184.90625 218.375 183.710938 223.019531 183.933594 228.019531 L 177.953125 228.285156 C 177.675781 222.074219 179.160156 216.300781 182.40625 210.96875 C 182.71875 210.449219 183.046875 209.945312 183.390625 209.445312 Z M 184.195312 230.683594 C 185.039062 236.179688 187.441406 240.851562 191.40625 244.699219 L 187.238281 248.996094 C 182.308594 244.214844 179.324219 238.414062 178.277344 231.589844 Z M 193.410156 246.441406 C 194.171875 247.039062 194.96875 247.589844 195.804688 248.097656 C 199.65625 250.441406 203.824219 251.644531 208.304688 251.703125 L 208.226562 257.691406 C 202.652344 257.617188 197.476562 256.121094 192.691406 253.210938 C 191.660156 252.585938 190.671875 251.902344 189.726562 251.164062 Z M 210.976562 251.597656 C 216.507812 251.074219 221.308594 248.949219 225.382812 245.21875 L 229.425781 249.636719 C 224.367188 254.269531 218.402344 256.910156 211.539062 257.558594 Z M 227.253906 243.308594 C 228.207031 242.222656 229.0625 241.058594 229.820312 239.8125 C 231.898438 236.394531 233.082031 232.707031 233.367188 228.75 L 239.339844 229.179688 C 238.984375 234.101562 237.515625 238.683594 234.933594 242.925781 C 233.996094 244.46875 232.9375 245.910156 231.753906 247.257812 Z M 233.414062 226.082031 C 233.214844 220.53125 231.371094 215.609375 227.882812 211.320312 L 232.527344 207.542969 C 236.859375 212.871094 239.148438 218.980469 239.398438 225.867188 Z M 226.085938 209.339844 C 224.714844 207.988281 223.199219 206.808594 221.535156 205.796875 L 224.648438 200.679688 C 226.707031 201.933594 228.589844 203.402344 230.289062 205.082031 Z M 226.085938 209.339844 " fill-opacity="1" fill-rule="nonzero"/></g></g></g></g><g clip-path="url(#52e24b4902)"><g clip-path="url(#6d41555d41)"><g clip-path="url(#f4b3943892)"><path fill="#ffde59" d="M 169.550781 81.78125 L 169.535156 137.402344 L 113.914062 137.386719 L 113.929688 81.765625 Z M 169.550781 81.78125 " fill-opacity="1" fill-rule="nonzero"/></g></g></g><g clip-path="url(#42934ea999)"><g clip-path="url(#525c66cfd4)"><g clip-path="url(#76288b0f72)"><g clip-path="url(#49157c6812)"><path fill="#000000" d="M 166.550781 109.53125 C 166.550781 103.976562 164.878906 98.992188 161.535156 94.582031 L 166.304688 90.960938 C 170.460938 96.445312 172.539062 102.632812 172.539062 109.53125 Z M 159.804688 92.539062 C 155.992188 88.496094 151.363281 86.019531 145.917969 85.109375 L 146.90625 79.203125 C 153.675781 80.335938 159.429688 83.414062 164.160156 88.429688 Z M 143.265625 84.808594 C 142.777344 84.78125 142.289062 84.765625 141.800781 84.765625 C 136.773438 84.765625 132.183594 86.15625 128.027344 88.945312 L 124.691406 83.972656 C 129.855469 80.507812 135.5625 78.777344 141.800781 78.777344 C 142.40625 78.777344 143.011719 78.796875 143.613281 78.832031 Z M 125.886719 90.550781 C 121.628906 94.128906 118.882812 98.609375 117.65625 103.992188 L 111.820312 102.664062 C 113.34375 95.96875 116.75 90.402344 122.039062 85.964844 Z M 117.207031 106.609375 C 117.09375 107.574219 117.039062 108.539062 117.039062 109.515625 C 117.035156 114.027344 118.171875 118.210938 120.449219 122.074219 L 115.292969 125.113281 C 112.460938 120.3125 111.046875 115.113281 111.050781 109.515625 C 111.050781 108.308594 111.121094 107.105469 111.261719 105.914062 Z M 121.925781 124.296875 C 125.246094 128.753906 129.558594 131.753906 134.863281 133.296875 L 133.1875 139.046875 C 126.601562 137.128906 121.246094 133.40625 117.125 127.875 Z M 137.46875 133.902344 C 138.890625 134.152344 140.328125 134.277344 141.785156 134.277344 C 145.785156 134.28125 149.550781 133.375 153.082031 131.5625 L 155.816406 136.886719 C 151.429688 139.140625 146.75 140.269531 141.785156 140.265625 C 139.980469 140.265625 138.195312 140.109375 136.429688 139.800781 Z M 155.386719 130.21875 C 160.027344 127.164062 163.273438 123.03125 165.125 117.824219 L 170.765625 119.828125 C 168.464844 126.296875 164.4375 131.429688 158.679688 135.21875 Z M 165.882812 115.257812 C 166.328125 113.382812 166.550781 111.476562 166.550781 109.53125 L 172.539062 109.53125 C 172.535156 111.941406 172.261719 114.3125 171.710938 116.640625 Z M 165.882812 115.257812 " fill-opacity="1" fill-rule="nonzero"/></g></g></g></g><g clip-path="url(#a1048a6016)"><g clip-path="url(#8815d6ad57)"><g clip-path="url(#0a15d46498)"><path fill="#ffde59" d="M 67.6875 187.339844 L 115.210938 216.25 L 86.300781 263.769531 L 38.78125 234.859375 Z M 67.6875 187.339844 " fill-opacity="1" fill-rule="nonzero"/></g></g></g><g clip-path="url(#4ff8742094)"><g clip-path="url(#4959e42a19)"><g clip-path="url(#aad9f2df5f)"><g clip-path="url(#4cb7a8b493)"><path fill="#000000" d="M 89.839844 204.320312 C 85.097656 201.433594 79.96875 200.273438 74.460938 200.839844 L 73.847656 194.886719 C 80.691406 194.179688 87.0625 195.621094 92.953125 199.207031 Z M 71.820312 201.257812 C 66.386719 202.414062 61.863281 205.085938 58.253906 209.265625 L 53.722656 205.351562 C 58.207031 200.15625 63.824219 196.839844 70.570312 195.402344 Z M 56.621094 211.375 C 56.34375 211.777344 56.078125 212.1875 55.824219 212.605469 C 53.210938 216.898438 52.015625 221.546875 52.238281 226.542969 L 46.257812 226.808594 C 45.980469 220.597656 47.464844 214.824219 50.710938 209.492188 C 51.023438 208.976562 51.355469 208.46875 51.695312 207.972656 Z M 52.5 229.207031 C 53.34375 234.703125 55.746094 239.375 59.710938 243.222656 L 55.542969 247.519531 C 50.617188 242.738281 47.628906 236.9375 46.582031 230.113281 Z M 61.714844 244.96875 C 62.476562 245.5625 63.277344 246.113281 64.109375 246.621094 C 67.960938 248.964844 72.128906 250.167969 76.613281 250.230469 L 76.53125 256.214844 C 70.960938 256.140625 65.78125 254.648438 60.996094 251.738281 C 59.964844 251.109375 58.976562 250.425781 58.03125 249.6875 Z M 79.28125 250.121094 C 84.8125 249.597656 89.613281 247.472656 93.6875 243.742188 L 97.730469 248.160156 C 92.671875 252.792969 86.707031 255.433594 79.84375 256.082031 Z M 95.558594 241.832031 C 96.511719 240.746094 97.367188 239.582031 98.125 238.335938 C 100.203125 234.921875 101.386719 231.230469 101.671875 227.273438 L 107.644531 227.703125 C 107.289062 232.625 105.820312 237.207031 103.242188 241.449219 C 102.300781 242.992188 101.242188 244.4375 100.058594 245.785156 Z M 101.71875 224.605469 C 101.519531 219.054688 99.675781 214.136719 96.1875 209.847656 L 100.832031 206.070312 C 105.164062 211.394531 107.453125 217.503906 107.703125 224.390625 Z M 94.390625 207.867188 C 93.019531 206.515625 91.503906 205.332031 89.839844 204.320312 L 92.953125 199.207031 C 95.011719 200.457031 96.894531 201.925781 98.597656 203.605469 Z M 94.390625 207.867188 " fill-opacity="1" fill-rule="nonzero"/></g></g></g></g><g clip-path="url(#eefd0d57c2)"><g clip-path="url(#f67458e2ed)"><g clip-path="url(#c697c0d4bf)"><path fill="#707070" d="M 218.222656 224.46875 L 211.246094 236.558594 L 199.15625 229.582031 L 206.132812 217.492188 Z M 218.222656 224.46875 " fill-opacity="1" fill-rule="nonzero"/></g></g></g><g clip-path="url(#bff472e3b1)"><g clip-path="url(#f414affbd5)"><g clip-path="url(#4e99ae3931)"><path fill="#707070" d="M 148.714844 116.558594 L 134.753906 116.554688 L 134.757812 102.597656 L 148.71875 102.601562 Z M 148.714844 116.558594 " fill-opacity="1" fill-rule="nonzero"/></g></g></g><g clip-path="url(#1e42c83752)"><g clip-path="url(#8c5fc98003)"><g clip-path="url(#7e4a3504fe)"><path fill="#707070" d="M 87.066406 223.882812 L 80.089844 235.972656 L 68 228.996094 L 74.976562 216.90625 Z M 87.066406 223.882812 " fill-opacity="1" fill-rule="nonzero"/></g></g></g><g clip-path="url(#221ff9450f)"><g clip-path="url(#71747906d0)"><g clip-path="url(#ce0b60dd82)"><g clip-path="url(#a90b576fd7)"><path fill="#ffffff" d="M 117.816406 248.203125 C 117.796875 248.238281 117.796875 248.273438 117.816406 248.3125 C 117.730469 248.429688 117.507812 248.363281 117.488281 248.570312 C 117.199219 248.914062 117.347656 249.230469 117.566406 249.539062 C 118.175781 250.394531 118.910156 251.128906 119.6875 251.824219 C 122.480469 254.300781 125.65625 256.078125 129.175781 257.300781 C 135.316406 259.441406 141.441406 259.269531 147.574219 257.414062 C 150.417969 256.554688 153.058594 255.210938 155.636719 253.742188 C 157.152344 252.875 158.609375 251.921875 160.09375 251.003906 C 160.132812 250.949219 160.167969 250.890625 160.207031 250.835938 C 160.285156 250.824219 160.367188 250.789062 160.433594 250.8125 C 160.484375 250.832031 160.457031 250.90625 160.40625 250.9375 C 160.160156 251.582031 159.785156 252.152344 159.382812 252.703125 C 159.109375 253.078125 158.867188 253.460938 158.746094 253.917969 C 158.148438 254.722656 158.195312 255.523438 158.847656 256.164062 C 160.632812 255.28125 161.628906 253.699219 162.511719 252.003906 C 162.839844 251.375 163.210938 250.769531 163.570312 250.160156 C 164.433594 248.699219 164.226562 248.859375 163.570312 247.640625 C 163.421875 247.367188 163.214844 247.132812 162.984375 246.921875 C 162.902344 246.84375 162.816406 246.78125 162.695312 246.792969 C 162.511719 246.492188 162.21875 246.511719 161.933594 246.550781 C 161.089844 246.65625 160.246094 246.773438 159.402344 246.886719 C 159.214844 246.804688 159.035156 246.851562 158.851562 246.90625 C 158.667969 246.816406 158.484375 246.867188 158.300781 246.90625 C 158.183594 246.820312 158.046875 246.871094 157.917969 246.863281 C 156.171875 246.769531 154.464844 246.480469 152.808594 245.898438 C 152.683594 245.855469 152.554688 245.820312 152.429688 245.78125 C 152.28125 245.734375 152.109375 245.679688 152.007812 245.828125 C 151.929688 245.941406 151.96875 246.128906 152.054688 246.207031 C 152.425781 246.5625 152.523438 247.085938 152.855469 247.460938 C 153 247.628906 153.203125 247.71875 153.40625 247.808594 C 154.996094 248.511719 156.660156 248.914062 158.371094 249.140625 C 158.523438 249.160156 158.683594 249.15625 158.828125 249.207031 C 158.996094 249.269531 158.960938 249.410156 158.890625 249.539062 C 158.714844 249.53125 158.597656 249.613281 158.53125 249.773438 C 158.371094 249.800781 158.21875 249.839844 158.148438 250.019531 C 158.109375 250.003906 158.082031 250.015625 158.074219 250.058594 C 157.921875 250.082031 157.78125 250.125 157.710938 250.285156 C 157.609375 250.324219 157.5 250.347656 157.40625 250.402344 C 156.378906 250.992188 155.363281 251.601562 154.328125 252.183594 C 153.390625 252.710938 152.4375 253.207031 151.492188 253.714844 C 151.226562 253.820312 150.957031 253.910156 150.695312 254.027344 C 148.15625 255.117188 145.523438 255.878906 142.785156 256.242188 C 141.804688 256.375 140.824219 256.472656 139.84375 256.585938 C 139.648438 256.496094 139.460938 256.554688 139.269531 256.609375 C 139.085938 256.519531 138.90625 256.574219 138.722656 256.625 C 138.554688 256.527344 138.382812 256.589844 138.210938 256.621094 C 138.105469 256.546875 137.996094 256.5625 137.886719 256.613281 C 137.847656 256.585938 137.808594 256.589844 137.769531 256.617188 C 137.652344 256.535156 137.515625 256.582031 137.386719 256.570312 C 136.757812 256.519531 136.125 256.578125 135.5 256.449219 C 135.449219 256.503906 135.273438 256.546875 135.5 256.621094 C 135.652344 256.671875 135.664062 256.714844 135.628906 256.753906 C 135.597656 256.789062 135.527344 256.824219 135.476562 256.855469 C 133.496094 256.625 131.5625 256.15625 129.660156 255.558594 C 129.488281 255.488281 129.316406 255.417969 129.144531 255.34375 C 128.117188 254.914062 127.09375 254.484375 126.066406 254.058594 C 126.046875 254.015625 126.015625 253.992188 125.976562 253.976562 C 125.953125 253.96875 125.925781 253.96875 125.898438 253.96875 C 125.859375 253.902344 125.800781 253.875 125.730469 253.886719 C 125.695312 253.816406 125.636719 253.789062 125.5625 253.800781 C 125.527344 253.730469 125.472656 253.703125 125.394531 253.714844 C 125.359375 253.644531 125.304688 253.613281 125.230469 253.625 C 125.195312 253.554688 125.140625 253.523438 125.066406 253.535156 L 125.0625 253.535156 C 125.03125 253.464844 124.976562 253.433594 124.902344 253.445312 L 124.898438 253.445312 C 124.847656 253.414062 124.796875 253.382812 124.738281 253.355469 L 124.734375 253.351562 C 124.703125 253.28125 124.652344 253.25 124.574219 253.261719 L 124.570312 253.257812 C 124.539062 253.1875 124.488281 253.15625 124.410156 253.167969 L 124.40625 253.164062 C 124.40625 253.164062 124.402344 253.164062 124.402344 253.164062 C 124.402344 253.164062 124.40625 253.164062 124.40625 253.164062 C 124.375 253.09375 124.324219 253.0625 124.246094 253.070312 L 124.242188 253.070312 C 124.214844 252.996094 124.160156 252.96875 124.082031 252.976562 C 124.050781 252.902344 123.996094 252.871094 123.921875 252.878906 C 123.441406 252.554688 122.964844 252.230469 122.488281 251.902344 C 122.1875 251.8125 121.964844 251.59375 121.722656 251.410156 C 121.726562 251.375 121.742188 251.34375 121.757812 251.320312 C 121.785156 251.277344 121.820312 251.246094 121.871094 251.226562 C 121.703125 251.070312 121.546875 250.898438 121.316406 250.828125 C 121.246094 250.8125 121.175781 250.789062 121.121094 250.738281 C 121.1875 250.765625 121.25 250.796875 121.316406 250.828125 C 121.273438 250.765625 121.222656 250.714844 121.140625 250.734375 C 121.113281 250.621094 121.035156 250.558594 120.925781 250.527344 C 120.90625 250.453125 120.863281 250.410156 120.785156 250.414062 C 120.75 250.347656 120.703125 250.292969 120.617188 250.292969 C 120.605469 250.257812 120.582031 250.230469 120.542969 250.21875 C 120.40625 250.035156 120.238281 249.890625 120.035156 249.785156 C 119.933594 249.660156 119.832031 249.535156 119.675781 249.476562 C 119.636719 249.371094 119.546875 249.324219 119.460938 249.269531 C 119.054688 248.777344 118.558594 248.367188 118.226562 247.773438 C 118.09375 247.96875 117.835938 247.960938 117.816406 248.203125 Z M 158.109375 250.1875 C 158.105469 250.1875 158.105469 250.1875 158.105469 250.1875 C 158.105469 250.191406 158.109375 250.191406 158.109375 250.191406 C 158.105469 250.191406 158.105469 250.1875 158.105469 250.1875 C 158.105469 250.1875 158.105469 250.1875 158.101562 250.183594 C 158.105469 250.183594 158.105469 250.1875 158.109375 250.1875 Z M 124.09375 253.40625 C 124.105469 253.417969 124.117188 253.425781 124.128906 253.4375 C 124.125 253.4375 124.121094 253.433594 124.117188 253.433594 C 124.105469 253.425781 124.09375 253.421875 124.082031 253.414062 C 124.085938 253.414062 124.089844 253.410156 124.09375 253.40625 Z M 126.058594 254.058594 C 126.058594 254.058594 126.054688 254.058594 126.054688 254.0625 C 126.054688 254.066406 126.050781 254.070312 126.046875 254.074219 L 126.039062 254.089844 L 126.054688 254.058594 C 126.054688 254.058594 126.054688 254.058594 126.058594 254.058594 Z M 124.03125 253.4375 C 124.046875 253.429688 124.066406 253.421875 124.078125 253.414062 C 124.089844 253.421875 124.101562 253.425781 124.113281 253.433594 C 124.085938 253.421875 124.058594 253.421875 124.03125 253.4375 Z M 124.1875 253.476562 C 124.199219 253.484375 124.210938 253.492188 124.222656 253.5 C 124.222656 253.503906 124.226562 253.503906 124.226562 253.503906 C 124.210938 253.496094 124.199219 253.484375 124.1875 253.476562 Z M 118.253906 249.332031 C 118.25 249.332031 118.25 249.328125 118.246094 249.328125 C 118.246094 249.324219 118.242188 249.324219 118.242188 249.324219 C 118.246094 249.324219 118.25 249.328125 118.253906 249.332031 Z M 118.4375 249.546875 C 118.4375 249.550781 118.4375 249.554688 118.441406 249.554688 C 118.441406 249.550781 118.4375 249.550781 118.4375 249.546875 Z M 121.007812 250.734375 C 120.996094 250.742188 120.984375 250.75 120.972656 250.761719 C 120.96875 250.753906 120.96875 250.742188 120.964844 250.734375 C 120.980469 250.734375 120.992188 250.734375 121.007812 250.734375 Z M 120.660156 250.371094 C 120.640625 250.359375 120.625 250.339844 120.613281 250.316406 C 120.613281 250.316406 120.613281 250.316406 120.617188 250.316406 C 120.628906 250.339844 120.640625 250.359375 120.660156 250.371094 Z M 120.660156 250.371094 " fill-opacity="1" fill-rule="nonzero"/></g></g></g></g><g clip-path="url(#24481edfbe)"><g clip-path="url(#a3112af114)"><g clip-path="url(#506c68109a)"><g clip-path="url(#4101815fec)"><path fill="#ffffff" d="M 124.730469 253.351562 C 124.78125 253.382812 124.835938 253.410156 124.886719 253.441406 C 124.855469 253.371094 124.804688 253.339844 124.730469 253.351562 Z M 124.730469 253.351562 " fill-opacity="1" fill-rule="nonzero"/></g></g></g></g><g clip-path="url(#ef5a508824)"><g clip-path="url(#489c171d73)"><g clip-path="url(#748983460f)"><g clip-path="url(#07a2a07249)"><path fill="#ffffff" d="M 100.320312 138.347656 C 100.304688 138.308594 100.273438 138.289062 100.230469 138.28125 C 100.183594 138.144531 100.367188 138 100.210938 137.867188 C 100.09375 137.433594 99.75 137.371094 99.375 137.375 C 98.324219 137.378906 97.296875 137.554688 96.28125 137.792969 C 92.648438 138.652344 89.367188 140.226562 86.34375 142.398438 C 81.058594 146.1875 77.671875 151.296875 75.660156 157.378906 C 74.722656 160.195312 74.304688 163.132812 74.023438 166.085938 C 73.859375 167.824219 73.796875 169.5625 73.695312 171.304688 C 73.71875 171.371094 73.746094 171.433594 73.769531 171.496094 C 73.734375 171.566406 73.714844 171.652344 73.65625 171.691406 C 73.609375 171.722656 73.566406 171.660156 73.570312 171.597656 C 73.183594 171.023438 72.933594 170.394531 72.714844 169.746094 C 72.566406 169.304688 72.390625 168.886719 72.089844 168.527344 C 71.773438 167.574219 71.09375 167.152344 70.191406 167.316406 C 69.886719 169.285156 70.609375 171.011719 71.484375 172.707031 C 71.8125 173.335938 72.09375 173.988281 72.386719 174.632812 C 73.082031 176.183594 73.070312 175.917969 74.445312 176.082031 C 74.753906 176.121094 75.0625 176.085938 75.367188 176.019531 C 75.480469 175.996094 75.582031 175.960938 75.640625 175.859375 C 75.992188 175.878906 76.144531 175.628906 76.277344 175.375 C 76.675781 174.621094 77.066406 173.867188 77.460938 173.109375 C 77.636719 173.003906 77.703125 172.828125 77.761719 172.648438 C 77.941406 172.550781 78.003906 172.371094 78.078125 172.199219 C 78.214844 172.148438 78.253906 172.011719 78.335938 171.910156 C 79.414062 170.535156 80.632812 169.304688 82.0625 168.285156 C 82.171875 168.210938 82.273438 168.125 82.375 168.042969 C 82.5 167.949219 82.644531 167.839844 82.582031 167.671875 C 82.535156 167.542969 82.359375 167.46875 82.246094 167.492188 C 81.742188 167.59375 81.253906 167.371094 80.761719 167.425781 C 80.539062 167.449219 80.347656 167.558594 80.15625 167.675781 C 78.667969 168.570312 77.382812 169.703125 76.210938 170.96875 C 76.105469 171.082031 76.015625 171.214844 75.890625 171.304688 C 75.746094 171.40625 75.652344 171.296875 75.585938 171.167969 C 75.691406 171.027344 75.691406 170.882812 75.597656 170.734375 C 75.671875 170.589844 75.726562 170.441406 75.621094 170.285156 C 75.65625 170.257812 75.660156 170.230469 75.628906 170.199219 C 75.699219 170.058594 75.746094 169.917969 75.652344 169.769531 C 75.683594 169.664062 75.726562 169.5625 75.734375 169.453125 C 75.839844 168.273438 75.929688 167.09375 76.050781 165.914062 C 76.160156 164.84375 76.300781 163.777344 76.429688 162.710938 C 76.5 162.433594 76.578125 162.160156 76.632812 161.882812 C 77.203125 159.175781 78.09375 156.585938 79.375 154.132812 C 79.832031 153.261719 80.316406 152.398438 80.789062 151.535156 C 80.972656 151.425781 81.035156 151.238281 81.097656 151.050781 C 81.277344 150.949219 81.335938 150.773438 81.398438 150.59375 C 81.578125 150.511719 81.625 150.335938 81.695312 150.179688 C 81.820312 150.136719 81.871094 150.039062 81.890625 149.917969 C 81.9375 149.898438 81.957031 149.867188 81.953125 149.820312 C 82.089844 149.769531 82.132812 149.632812 82.210938 149.535156 C 82.617188 149.050781 82.933594 148.496094 83.398438 148.058594 C 83.382812 147.988281 83.449219 147.816406 83.257812 147.960938 C 83.128906 148.058594 83.085938 148.042969 83.074219 147.988281 C 83.066406 147.941406 83.078125 147.867188 83.082031 147.808594 C 84.410156 146.320312 85.90625 145.007812 87.488281 143.796875 C 87.644531 143.695312 87.804688 143.597656 87.960938 143.5 C 88.902344 142.90625 89.84375 142.316406 90.785156 141.722656 C 90.832031 141.730469 90.867188 141.71875 90.898438 141.695312 C 90.921875 141.679688 90.9375 141.660156 90.953125 141.632812 C 91.03125 141.640625 91.085938 141.609375 91.121094 141.546875 C 91.195312 141.554688 91.25 141.527344 91.285156 141.457031 C 91.363281 141.472656 91.417969 141.441406 91.453125 141.371094 C 91.527344 141.382812 91.585938 141.355469 91.621094 141.285156 C 91.699219 141.300781 91.753906 141.273438 91.785156 141.203125 L 91.789062 141.203125 C 91.863281 141.21875 91.921875 141.191406 91.953125 141.121094 L 91.957031 141.121094 C 92.011719 141.097656 92.070312 141.070312 92.125 141.042969 L 92.128906 141.039062 C 92.203125 141.054688 92.257812 141.03125 92.292969 140.960938 L 92.300781 140.960938 C 92.375 140.972656 92.429688 140.949219 92.464844 140.882812 L 92.472656 140.878906 C 92.546875 140.894531 92.601562 140.871094 92.640625 140.800781 C 92.71875 140.816406 92.773438 140.792969 92.808594 140.722656 L 92.8125 140.722656 C 92.886719 140.738281 92.945312 140.714844 92.984375 140.644531 C 93.523438 140.441406 94.066406 140.238281 94.605469 140.035156 C 94.851562 139.839844 95.160156 139.789062 95.449219 139.695312 C 95.476562 139.71875 95.492188 139.746094 95.503906 139.777344 C 95.523438 139.820312 95.527344 139.867188 95.515625 139.921875 C 95.738281 139.875 95.96875 139.84375 96.160156 139.695312 C 96.214844 139.648438 96.273438 139.605469 96.347656 139.589844 C 96.285156 139.625 96.222656 139.660156 96.160156 139.695312 C 96.234375 139.695312 96.304688 139.6875 96.335938 139.609375 C 96.445312 139.648438 96.542969 139.621094 96.632812 139.550781 C 96.703125 139.578125 96.761719 139.570312 96.804688 139.503906 C 96.882812 139.511719 96.949219 139.5 97 139.433594 C 97.035156 139.445312 97.070312 139.441406 97.101562 139.417969 C 97.332031 139.410156 97.546875 139.355469 97.75 139.25 C 97.910156 139.238281 98.074219 139.230469 98.210938 139.132812 C 98.316406 139.164062 98.410156 139.117188 98.503906 139.078125 C 99.136719 139.027344 99.757812 138.859375 100.433594 138.929688 C 100.351562 138.707031 100.507812 138.5 100.320312 138.347656 Z M 75.503906 170.152344 C 75.503906 170.148438 75.503906 170.148438 75.507812 170.148438 C 75.503906 170.148438 75.503906 170.148438 75.503906 170.148438 C 75.503906 170.148438 75.507812 170.148438 75.507812 170.148438 C 75.507812 170.148438 75.507812 170.152344 75.511719 170.148438 C 75.507812 170.152344 75.507812 170.152344 75.503906 170.152344 Z M 92.453125 140.484375 C 92.4375 140.488281 92.421875 140.492188 92.40625 140.496094 C 92.410156 140.492188 92.414062 140.488281 92.417969 140.488281 C 92.429688 140.484375 92.441406 140.476562 92.453125 140.472656 C 92.453125 140.472656 92.453125 140.476562 92.453125 140.484375 Z M 90.789062 141.714844 C 90.789062 141.714844 90.789062 141.710938 90.785156 141.710938 C 90.785156 141.707031 90.78125 141.703125 90.78125 141.699219 L 90.777344 141.679688 L 90.789062 141.710938 C 90.789062 141.714844 90.789062 141.710938 90.792969 141.710938 C 90.789062 141.710938 90.789062 141.714844 90.789062 141.714844 Z M 92.460938 140.414062 C 92.460938 140.433594 92.457031 140.453125 92.453125 140.46875 C 92.441406 140.472656 92.429688 140.480469 92.417969 140.484375 C 92.441406 140.46875 92.457031 140.445312 92.460938 140.414062 Z M 92.339844 140.519531 C 92.328125 140.523438 92.3125 140.53125 92.300781 140.535156 C 92.300781 140.535156 92.296875 140.535156 92.296875 140.535156 C 92.3125 140.53125 92.328125 140.523438 92.339844 140.519531 Z M 99.148438 138.054688 C 99.148438 138.054688 99.152344 138.050781 99.152344 138.050781 C 99.15625 138.050781 99.15625 138.050781 99.160156 138.050781 C 99.15625 138.054688 99.152344 138.054688 99.148438 138.054688 Z M 98.863281 138.078125 C 98.863281 138.078125 98.859375 138.074219 98.855469 138.078125 C 98.859375 138.078125 98.863281 138.078125 98.863281 138.078125 Z M 96.414062 139.5 C 96.414062 139.484375 96.414062 139.472656 96.414062 139.453125 C 96.421875 139.457031 96.429688 139.460938 96.4375 139.464844 C 96.429688 139.476562 96.421875 139.488281 96.414062 139.5 Z M 96.910156 139.421875 C 96.929688 139.414062 96.957031 139.414062 96.984375 139.417969 C 96.957031 139.417969 96.929688 139.417969 96.910156 139.421875 Z M 96.910156 139.421875 " fill-opacity="1" fill-rule="nonzero"/></g></g></g></g><g clip-path="url(#d0a8f8497c)"><g clip-path="url(#a6f637ac26)"><g clip-path="url(#c8e35cbe5c)"><g clip-path="url(#974ac94f31)"><path fill="#ffffff" d="M 92.132812 141.035156 C 92.074219 141.0625 92.019531 141.089844 91.964844 141.113281 C 92.042969 141.128906 92.097656 141.101562 92.132812 141.035156 Z M 92.132812 141.035156 " fill-opacity="1" fill-rule="nonzero"/></g></g></g></g><g clip-path="url(#80b349b841)"><g clip-path="url(#c8b8d9e124)"><g clip-path="url(#6a3fcda1d2)"><g clip-path="url(#8f4ea60680)"><path fill="#ffffff" d="M 203.015625 176.148438 C 203.054688 176.15625 203.089844 176.144531 203.121094 176.113281 C 203.257812 176.152344 203.273438 176.386719 203.472656 176.332031 C 203.898438 176.484375 204.144531 176.238281 204.355469 175.929688 C 204.949219 175.0625 205.390625 174.117188 205.773438 173.148438 C 207.140625 169.671875 207.714844 166.082031 207.65625 162.355469 C 207.554688 155.855469 205.285156 150.160156 201.4375 145.039062 C 199.652344 142.664062 197.480469 140.648438 195.214844 138.734375 C 193.882812 137.609375 192.484375 136.566406 191.113281 135.488281 C 191.046875 135.472656 190.980469 135.457031 190.914062 135.441406 C 190.875 135.371094 190.816406 135.304688 190.816406 135.238281 C 190.816406 135.238281 190.816406 135.238281 190.816406 135.234375 C 190.816406 135.179688 190.894531 135.179688 190.945312 135.21875 C 191.632812 135.230469 192.296875 135.382812 192.949219 135.570312 C 193.398438 135.703125 193.84375 135.792969 194.3125 135.75 C 195.273438 136.039062 196.007812 135.71875 196.386719 134.882812 C 194.941406 133.511719 193.113281 133.121094 191.21875 132.875 C 190.515625 132.78125 189.820312 132.644531 189.125 132.515625 C 187.453125 132.207031 187.675781 132.34375 186.757812 133.382812 C 186.554688 133.613281 186.40625 133.886719 186.285156 134.175781 C 186.242188 134.28125 186.210938 134.382812 186.261719 134.492188 C 186.042969 134.769531 186.164062 135.035156 186.296875 135.292969 C 186.6875 136.046875 187.085938 136.800781 187.484375 137.554688 C 187.46875 137.757812 187.578125 137.914062 187.691406 138.0625 C 187.667969 138.265625 187.777344 138.421875 187.878906 138.578125 C 187.839844 138.722656 187.933594 138.832031 187.972656 138.957031 C 188.484375 140.625 188.800781 142.328125 188.820312 144.085938 C 188.824219 144.21875 188.835938 144.347656 188.84375 144.480469 C 188.851562 144.636719 188.859375 144.816406 189.03125 144.863281 C 189.164062 144.894531 189.324219 144.792969 189.371094 144.6875 C 189.574219 144.214844 190.035156 143.945312 190.273438 143.503906 C 190.378906 143.3125 190.398438 143.089844 190.410156 142.863281 C 190.523438 141.132812 190.328125 139.429688 189.953125 137.746094 C 189.921875 137.59375 189.863281 137.445312 189.859375 137.292969 C 189.859375 137.117188 190.003906 137.101562 190.148438 137.121094 C 190.203125 137.289062 190.320312 137.371094 190.496094 137.378906 C 190.574219 137.519531 190.664062 137.652344 190.855469 137.652344 C 190.855469 137.695312 190.875 137.714844 190.917969 137.707031 C 190.992188 137.847656 191.082031 137.960938 191.257812 137.972656 C 191.328125 138.054688 191.386719 138.148438 191.46875 138.21875 C 192.378906 138.980469 193.300781 139.726562 194.199219 140.496094 C 195.019531 141.195312 195.8125 141.921875 196.613281 142.632812 C 196.804688 142.847656 196.984375 143.070312 197.179688 143.273438 C 199.078125 145.285156 200.699219 147.496094 201.984375 149.941406 C 202.441406 150.816406 202.871094 151.703125 203.3125 152.585938 C 203.296875 152.800781 203.417969 152.957031 203.535156 153.113281 C 203.515625 153.320312 203.625 153.46875 203.738281 153.625 C 203.703125 153.816406 203.820312 153.953125 203.910156 154.105469 C 203.875 154.230469 203.925781 154.328125 204.011719 154.414062 C 204.003906 154.460938 204.019531 154.496094 204.058594 154.519531 C 204.023438 154.660156 204.109375 154.773438 204.144531 154.894531 C 204.3125 155.503906 204.589844 156.082031 204.679688 156.710938 C 204.75 156.738281 204.851562 156.890625 204.839844 156.652344 C 204.835938 156.492188 204.875 156.464844 204.925781 156.484375 C 204.96875 156.503906 205.023438 156.558594 205.070312 156.59375 C 205.535156 158.535156 205.757812 160.507812 205.851562 162.5 C 205.84375 162.6875 205.835938 162.875 205.828125 163.058594 C 205.777344 164.167969 205.726562 165.28125 205.675781 166.390625 C 205.648438 166.425781 205.632812 166.464844 205.632812 166.5 C 205.632812 166.527344 205.640625 166.554688 205.652344 166.582031 C 205.605469 166.640625 205.597656 166.703125 205.632812 166.765625 C 205.582031 166.824219 205.574219 166.886719 205.609375 166.953125 C 205.554688 167.007812 205.550781 167.070312 205.585938 167.140625 C 205.53125 167.195312 205.523438 167.257812 205.558594 167.328125 C 205.503906 167.382812 205.496094 167.445312 205.535156 167.511719 L 205.53125 167.511719 C 205.476562 167.566406 205.46875 167.628906 205.503906 167.695312 L 205.503906 167.699219 C 205.492188 167.757812 205.480469 167.816406 205.472656 167.878906 L 205.472656 167.886719 C 205.417969 167.9375 205.40625 167.996094 205.441406 168.066406 L 205.441406 168.070312 C 205.386719 168.125 205.375 168.183594 205.410156 168.253906 L 205.410156 168.257812 C 205.410156 168.257812 205.410156 168.261719 205.410156 168.261719 C 205.410156 168.261719 205.410156 168.257812 205.410156 168.257812 C 205.351562 168.3125 205.34375 168.371094 205.378906 168.441406 L 205.378906 168.445312 C 205.320312 168.496094 205.308594 168.558594 205.34375 168.625 L 205.34375 168.628906 C 205.289062 168.679688 205.277344 168.742188 205.308594 168.8125 C 205.167969 169.371094 205.027344 169.933594 204.886719 170.492188 C 204.90625 170.808594 204.773438 171.089844 204.6875 171.382812 C 204.648438 171.386719 204.617188 171.386719 204.585938 171.378906 C 204.539062 171.367188 204.5 171.34375 204.460938 171.304688 C 204.371094 171.515625 204.265625 171.722656 204.277344 171.960938 C 204.289062 172.035156 204.289062 172.105469 204.261719 172.175781 C 204.265625 172.105469 204.273438 172.035156 204.277344 171.960938 C 204.234375 172.027344 204.203125 172.089844 204.25 172.15625 C 204.15625 172.226562 204.121094 172.320312 204.128906 172.433594 C 204.066406 172.476562 204.042969 172.53125 204.070312 172.601562 C 204.019531 172.660156 203.988281 172.722656 204.015625 172.800781 C 203.988281 172.828125 203.96875 172.855469 203.972656 172.898438 C 203.847656 173.089844 203.769531 173.296875 203.738281 173.523438 C 203.660156 173.664062 203.574219 173.800781 203.574219 173.96875 C 203.488281 174.039062 203.472656 174.140625 203.449219 174.238281 C 203.132812 174.792969 202.914062 175.398438 202.472656 175.914062 C 202.703125 175.972656 202.78125 176.21875 203.015625 176.148438 Z M 191.027344 137.632812 C 191.027344 137.632812 191.027344 137.632812 191.03125 137.636719 C 191.03125 137.636719 191.03125 137.632812 191.03125 137.632812 C 191.03125 137.636719 191.03125 137.636719 191.03125 137.636719 C 191.027344 137.636719 191.027344 137.636719 191.027344 137.640625 C 191.027344 137.636719 191.027344 137.636719 191.027344 137.632812 Z M 205.746094 168.46875 C 205.75 168.453125 205.757812 168.441406 205.761719 168.425781 C 205.761719 168.429688 205.761719 168.433594 205.761719 168.4375 C 205.761719 168.449219 205.757812 168.460938 205.753906 168.476562 C 205.753906 168.472656 205.75 168.472656 205.746094 168.46875 Z M 205.683594 166.398438 C 205.683594 166.398438 205.683594 166.402344 205.6875 166.398438 C 205.691406 166.402344 205.695312 166.402344 205.699219 166.402344 L 205.71875 166.410156 L 205.683594 166.402344 C 205.683594 166.402344 205.683594 166.402344 205.683594 166.398438 Z M 205.796875 168.515625 C 205.78125 168.503906 205.769531 168.488281 205.757812 168.476562 C 205.757812 168.464844 205.761719 168.453125 205.761719 168.441406 C 205.761719 168.46875 205.773438 168.492188 205.796875 168.515625 Z M 205.78125 168.355469 C 205.785156 168.34375 205.785156 168.328125 205.789062 168.3125 C 205.792969 168.3125 205.789062 168.3125 205.792969 168.3125 C 205.789062 168.328125 205.785156 168.34375 205.78125 168.355469 Z M 203.925781 175.355469 C 203.925781 175.355469 203.925781 175.359375 203.925781 175.359375 C 203.925781 175.359375 203.925781 175.363281 203.925781 175.363281 C 203.921875 175.363281 203.921875 175.363281 203.921875 175.363281 C 203.921875 175.359375 203.925781 175.359375 203.925781 175.355469 Z M 204.066406 175.109375 C 204.070312 175.105469 204.074219 175.105469 204.074219 175.101562 C 204.070312 175.101562 204.066406 175.105469 204.066406 175.109375 Z M 204.296875 172.285156 C 204.308594 172.292969 204.320312 172.300781 204.332031 172.308594 C 204.328125 172.3125 204.320312 172.320312 204.3125 172.324219 C 204.308594 172.3125 204.300781 172.296875 204.296875 172.285156 Z M 204.078125 172.734375 C 204.070312 172.757812 204.058594 172.777344 204.039062 172.796875 C 204.054688 172.777344 204.070312 172.757812 204.078125 172.734375 Z M 204.078125 172.734375 " fill-opacity="1" fill-rule="nonzero"/></g></g></g></g><g clip-path="url(#3fe295c049)"><g clip-path="url(#1337df17a3)"><g clip-path="url(#243b11fded)"><g clip-path="url(#a05ba44be1)"><path fill="#ffffff" d="M 205.476562 167.890625 C 205.484375 167.828125 205.496094 167.769531 205.503906 167.710938 C 205.449219 167.761719 205.441406 167.824219 205.476562 167.890625 Z M 205.476562 167.890625 " fill-opacity="1" fill-rule="nonzero"/></g></g></g></g><path stroke-linecap="butt" transform="matrix(0.74987, 0.00605191, -0.00605275, 0.749976, 136.490312, 77.868268)" fill="none" stroke-linejoin="miter" d="M -0.00220337 1.998642 L 223.036361 2.000981 " stroke="#000000" stroke-width="4" stroke-opacity="1" stroke-miterlimit="4"/><path stroke-linecap="butt" transform="matrix(0.750617, -0.00364086, 0.00363783, 0.749991, 135.126205, 291.168432)" fill="none" stroke-linejoin="miter" d="M -0.000887235 1.999401 L 224.814281 2.002221 " stroke="#000000" stroke-width="4" stroke-opacity="1" stroke-miterlimit="4"/><g clip-path="url(#0995584f1e)"><path fill="#38b6ff" d="M 294.695312 306.992188 L 286.203125 297.5 C 286.019531 297.296875 285.765625 297.183594 285.5 297.183594 L 279.835938 297.183594 C 279.464844 297.183594 279.128906 297.402344 278.972656 297.746094 C 278.824219 298.089844 278.886719 298.488281 279.136719 298.765625 L 287.058594 307.628906 L 279.136719 316.484375 C 278.886719 316.765625 278.820312 317.164062 278.972656 317.507812 C 279.128906 317.851562 279.464844 318.070312 279.835938 318.070312 L 285.5 318.070312 C 285.765625 318.070312 286.019531 317.953125 286.203125 317.757812 L 294.695312 308.261719 C 295.015625 307.902344 295.015625 307.351562 294.695312 306.992188 Z M 294.695312 306.992188 " fill-opacity="1" fill-rule="nonzero"/></g><g clip-path="url(#df3579105d)"><path fill="#38b6ff" d="M 282.425781 306.992188 L 273.933594 297.5 C 273.75 297.296875 273.5 297.183594 273.230469 297.183594 L 267.570312 297.183594 C 267.195312 297.183594 266.859375 297.402344 266.707031 297.746094 C 266.554688 298.089844 266.617188 298.488281 266.867188 298.765625 L 274.792969 307.628906 L 266.867188 316.484375 C 266.617188 316.765625 266.554688 317.164062 266.707031 317.507812 C 266.859375 317.851562 267.195312 318.070312 267.570312 318.070312 L 273.230469 318.070312 C 273.5 318.070312 273.75 317.953125 273.933594 317.757812 L 282.425781 308.261719 C 282.75 307.902344 282.75 307.351562 282.425781 306.992188 Z M 282.425781 306.992188 " fill-opacity="1" fill-rule="nonzero"/></g><g clip-path="url(#88f4d84715)"><path fill="#5ce1e6" d="M 257.570312 306.992188 L 249.078125 297.5 C 248.894531 297.296875 248.640625 297.183594 248.375 297.183594 L 242.710938 297.183594 C 242.339844 297.183594 242.003906 297.402344 241.847656 297.746094 C 241.699219 298.089844 241.761719 298.488281 242.007812 298.765625 L 249.933594 307.628906 L 242.007812 316.484375 C 241.761719 316.765625 241.695312 317.164062 241.847656 317.507812 C 242.003906 317.851562 242.339844 318.070312 242.710938 318.070312 L 248.375 318.070312 C 248.640625 318.070312 248.894531 317.953125 249.078125 317.757812 L 257.570312 308.261719 C 257.890625 307.902344 257.890625 307.351562 257.570312 306.992188 Z M 257.570312 306.992188 " fill-opacity="1" fill-rule="nonzero"/></g><g clip-path="url(#0021050370)"><path fill="#5ce1e6" d="M 245.300781 306.992188 L 236.808594 297.5 C 236.625 297.296875 236.375 297.183594 236.105469 297.183594 L 230.445312 297.183594 C 230.070312 297.183594 229.734375 297.402344 229.582031 297.746094 C 229.429688 298.089844 229.492188 298.488281 229.742188 298.765625 L 237.667969 307.628906 L 229.742188 316.484375 C 229.492188 316.765625 229.429688 317.164062 229.582031 317.507812 C 229.734375 317.851562 230.070312 318.070312 230.445312 318.070312 L 236.105469 318.070312 C 236.375 318.070312 236.625 317.953125 236.808594 317.757812 L 245.300781 308.261719 C 245.625 307.902344 245.625 307.351562 245.300781 306.992188 Z M 245.300781 306.992188 " fill-opacity="1" fill-rule="nonzero"/></g><g clip-path="url(#765c5f22c9)"><path fill="#38b6ff" d="M 220.445312 306.992188 L 211.953125 297.5 C 211.769531 297.296875 211.515625 297.183594 211.25 297.183594 L 205.585938 297.183594 C 205.214844 297.183594 204.878906 297.402344 204.722656 297.746094 C 204.574219 298.089844 204.636719 298.488281 204.886719 298.765625 L 212.808594 307.628906 L 204.886719 316.484375 C 204.636719 316.765625 204.570312 317.164062 204.722656 317.507812 C 204.878906 317.851562 205.214844 318.070312 205.585938 318.070312 L 211.25 318.070312 C 211.515625 318.070312 211.769531 317.953125 211.953125 317.757812 L 220.445312 308.261719 C 220.765625 307.902344 220.765625 307.351562 220.445312 306.992188 Z M 220.445312 306.992188 " fill-opacity="1" fill-rule="nonzero"/></g><g clip-path="url(#9021654b13)"><path fill="#38b6ff" d="M 208.175781 306.992188 L 199.683594 297.5 C 199.5 297.296875 199.25 297.183594 198.980469 297.183594 L 193.320312 297.183594 C 192.945312 297.183594 192.609375 297.402344 192.457031 297.746094 C 192.304688 298.089844 192.367188 298.488281 192.617188 298.765625 L 200.542969 307.628906 L 192.617188 316.484375 C 192.367188 316.765625 192.304688 317.164062 192.457031 317.507812 C 192.609375 317.851562 192.945312 318.070312 193.320312 318.070312 L 198.980469 318.070312 C 199.25 318.070312 199.5 317.953125 199.683594 317.757812 L 208.175781 308.261719 C 208.5 307.902344 208.5 307.351562 208.175781 306.992188 Z M 208.175781 306.992188 " fill-opacity="1" fill-rule="nonzero"/></g><g clip-path="url(#b21554826d)"><path fill="#38b6ff" d="M 183.320312 306.992188 L 174.828125 297.5 C 174.644531 297.296875 174.390625 297.183594 174.125 297.183594 L 168.460938 297.183594 C 168.089844 297.183594 167.753906 297.402344 167.597656 297.746094 C 167.449219 298.089844 167.511719 298.488281 167.761719 298.765625 L 175.683594 307.628906 L 167.761719 316.484375 C 167.511719 316.765625 167.445312 317.164062 167.597656 317.507812 C 167.753906 317.851562 168.089844 318.070312 168.460938 318.070312 L 174.125 318.070312 C 174.390625 318.070312 174.644531 317.953125 174.828125 317.757812 L 183.320312 308.261719 C 183.640625 307.902344 183.640625 307.351562 183.320312 306.992188 Z M 183.320312 306.992188 " fill-opacity="1" fill-rule="nonzero"/></g><g clip-path="url(#834a9eeda9)"><path fill="#38b6ff" d="M 171.050781 306.992188 L 162.558594 297.5 C 162.375 297.296875 162.125 297.183594 161.855469 297.183594 L 156.195312 297.183594 C 155.820312 297.183594 155.484375 297.402344 155.332031 297.746094 C 155.179688 298.089844 155.242188 298.488281 155.492188 298.765625 L 163.417969 307.628906 L 155.492188 316.484375 C 155.242188 316.765625 155.179688 317.164062 155.332031 317.507812 C 155.484375 317.851562 155.820312 318.070312 156.195312 318.070312 L 161.855469 318.070312 C 162.125 318.070312 162.375 317.953125 162.558594 317.757812 L 171.050781 308.261719 C 171.375 307.902344 171.375 307.351562 171.050781 306.992188 Z M 171.050781 306.992188 " fill-opacity="1" fill-rule="nonzero"/></g><g clip-path="url(#d2e449d37f)"><g clip-path="url(#f25876ddff)"><g clip-path="url(#3753143216)"><path fill="#38b6ff" d="M 146.183594 306.746094 L 137.523438 297.402344 C 137.339844 297.207031 137.085938 297.097656 136.816406 297.101562 L 131.15625 297.199219 C 130.785156 297.207031 130.449219 297.433594 130.304688 297.777344 C 130.160156 298.125 130.226562 298.523438 130.480469 298.796875 L 138.5625 307.515625 L 130.792969 316.511719 C 130.550781 316.796875 130.492188 317.195312 130.652344 317.535156 C 130.8125 317.875 131.152344 318.089844 131.523438 318.085938 L 137.1875 317.984375 C 137.453125 317.980469 137.703125 317.859375 137.882812 317.660156 L 146.207031 308.015625 C 146.523438 307.648438 146.511719 307.097656 146.183594 306.746094 Z M 146.183594 306.746094 " fill-opacity="1" fill-rule="nonzero"/></g></g></g><g clip-path="url(#e7fd3843dc)"><g clip-path="url(#9ca0481ce8)"><g clip-path="url(#a8b31b293b)"><path fill="#38b6ff" d="M 133.917969 306.960938 L 125.257812 297.621094 C 125.074219 297.421875 124.820312 297.3125 124.550781 297.316406 L 118.890625 297.417969 C 118.519531 297.425781 118.183594 297.648438 118.035156 297.996094 C 117.890625 298.339844 117.960938 298.742188 118.214844 299.011719 L 126.296875 307.730469 L 118.527344 316.726562 C 118.285156 317.011719 118.226562 317.414062 118.386719 317.753906 C 118.546875 318.09375 118.886719 318.308594 119.257812 318.300781 L 124.921875 318.199219 C 125.1875 318.195312 125.4375 318.074219 125.617188 317.875 L 133.941406 308.234375 C 134.257812 307.867188 134.246094 307.316406 133.917969 306.960938 Z M 133.917969 306.960938 " fill-opacity="1" fill-rule="nonzero"/></g></g></g><g clip-path="url(#890a9a9e60)"><g clip-path="url(#6901dbd793)"><g clip-path="url(#abbf4b7c76)"><path fill="#5ce1e6" d="M 99.40625 301.191406 L 97.382812 288.617188 C 97.335938 288.347656 97.1875 288.117188 96.960938 287.972656 L 92.195312 284.914062 C 91.882812 284.714844 91.476562 284.714844 91.164062 284.921875 C 90.851562 285.128906 90.6875 285.5 90.75 285.867188 L 92.636719 297.605469 L 81.183594 300.78125 C 80.824219 300.882812 80.550781 301.183594 80.496094 301.554688 C 80.441406 301.925781 80.605469 302.296875 80.917969 302.496094 L 85.683594 305.554688 C 85.910156 305.699219 86.183594 305.738281 86.445312 305.667969 L 98.71875 302.261719 C 99.1875 302.132812 99.484375 301.667969 99.40625 301.191406 Z M 99.40625 301.191406 " fill-opacity="1" fill-rule="nonzero"/></g></g></g><g clip-path="url(#b976b01474)"><g clip-path="url(#3860b6dbc0)"><g clip-path="url(#5671832035)"><path fill="#5ce1e6" d="M 89.078125 294.570312 L 87.054688 281.992188 C 87.011719 281.726562 86.859375 281.492188 86.632812 281.347656 L 81.867188 278.292969 C 81.554688 278.089844 81.152344 278.09375 80.839844 278.296875 C 80.527344 278.507812 80.363281 278.878906 80.421875 279.246094 L 82.308594 290.980469 L 70.855469 294.160156 C 70.496094 294.257812 70.226562 294.5625 70.167969 294.933594 C 70.113281 295.304688 70.277344 295.671875 70.589844 295.871094 L 75.359375 298.929688 C 75.582031 299.074219 75.859375 299.113281 76.117188 299.046875 L 88.394531 295.640625 C 88.859375 295.507812 89.15625 295.046875 89.078125 294.570312 Z M 89.078125 294.570312 " fill-opacity="1" fill-rule="nonzero"/></g></g></g><g clip-path="url(#8ef0bc6f90)"><g clip-path="url(#5fbe9313d9)"><g clip-path="url(#c36525f92b)"><path fill="#38b6ff" d="M 61.433594 282.320312 L 61.902344 269.589844 C 61.910156 269.316406 61.808594 269.0625 61.613281 268.875 L 57.535156 264.945312 C 57.269531 264.6875 56.871094 264.613281 56.523438 264.753906 C 56.175781 264.894531 55.945312 265.226562 55.929688 265.601562 L 55.492188 277.480469 L 43.640625 278.363281 C 43.265625 278.390625 42.941406 278.632812 42.816406 278.988281 C 42.6875 279.339844 42.777344 279.734375 43.046875 279.992188 L 47.125 283.917969 C 47.316406 284.105469 47.582031 284.195312 47.847656 284.179688 L 60.550781 283.234375 C 61.035156 283.199219 61.414062 282.800781 61.433594 282.320312 Z M 61.433594 282.320312 " fill-opacity="1" fill-rule="nonzero"/></g></g></g><g clip-path="url(#71ec7babd1)"><g clip-path="url(#987b3acae0)"><g clip-path="url(#ccd2ee886e)"><path fill="#38b6ff" d="M 52.597656 273.808594 L 53.066406 261.078125 C 53.074219 260.808594 52.96875 260.550781 52.777344 260.363281 L 48.699219 256.4375 C 48.429688 256.179688 48.035156 256.101562 47.6875 256.242188 C 47.339844 256.386719 47.109375 256.71875 47.09375 257.089844 L 46.65625 268.96875 L 34.804688 269.851562 C 34.429688 269.878906 34.105469 270.125 33.980469 270.476562 C 33.851562 270.828125 33.941406 271.222656 34.210938 271.480469 L 38.289062 275.410156 C 38.480469 275.59375 38.742188 275.6875 39.011719 275.671875 L 51.714844 274.722656 C 52.199219 274.6875 52.578125 274.289062 52.597656 273.808594 Z M 52.597656 273.808594 " fill-opacity="1" fill-rule="nonzero"/></g></g></g><g clip-path="url(#e175a7f4ac)"><g clip-path="url(#67f8f55c0c)"><g clip-path="url(#ac92569ca2)"><path fill="#38b6ff" d="M 36.792969 250.25 L 40.734375 238.136719 C 40.816406 237.878906 40.789062 237.601562 40.652344 237.371094 L 37.808594 232.476562 C 37.621094 232.15625 37.261719 231.972656 36.890625 232.011719 C 36.515625 232.054688 36.199219 232.308594 36.085938 232.664062 L 32.410156 243.96875 L 20.769531 241.570312 C 20.402344 241.492188 20.023438 241.640625 19.804688 241.945312 C 19.585938 242.25 19.5625 242.652344 19.75 242.972656 L 22.597656 247.867188 C 22.730469 248.101562 22.957031 248.261719 23.21875 248.316406 L 35.695312 250.890625 C 36.171875 250.988281 36.648438 250.710938 36.792969 250.25 Z M 36.792969 250.25 " fill-opacity="1" fill-rule="nonzero"/></g></g></g><g clip-path="url(#59cdb662f3)"><g clip-path="url(#bb170ad106)"><g clip-path="url(#29e6f0cbba)"><path fill="#38b6ff" d="M 30.628906 239.644531 L 34.570312 227.53125 C 34.652344 227.273438 34.625 226.996094 34.488281 226.765625 L 31.644531 221.871094 C 31.457031 221.546875 31.097656 221.367188 30.722656 221.40625 C 30.351562 221.449219 30.035156 221.703125 29.921875 222.058594 L 26.246094 233.363281 L 14.601562 230.960938 C 14.238281 230.886719 13.859375 231.035156 13.640625 231.335938 C 13.417969 231.640625 13.398438 232.042969 13.585938 232.367188 L 16.429688 237.261719 C 16.566406 237.492188 16.792969 237.652344 17.054688 237.710938 L 29.53125 240.28125 C 30.003906 240.378906 30.480469 240.105469 30.628906 239.644531 Z M 30.628906 239.644531 " fill-opacity="1" fill-rule="nonzero"/></g></g></g><g clip-path="url(#828f5613a3)"><path fill="#38b6ff" d="M 20.015625 200.003906 L 29.507812 191.511719 C 29.710938 191.332031 29.824219 191.078125 29.824219 190.808594 L 29.824219 185.148438 C 29.824219 184.777344 29.605469 184.4375 29.261719 184.285156 C 28.917969 184.132812 28.515625 184.195312 28.242188 184.445312 L 19.378906 192.371094 L 10.523438 184.445312 C 10.242188 184.195312 9.84375 184.132812 9.5 184.285156 C 9.15625 184.4375 8.9375 184.777344 8.9375 185.148438 L 8.9375 190.808594 C 8.9375 191.078125 9.050781 191.332031 9.25 191.511719 L 18.746094 200.003906 C 19.105469 200.328125 19.65625 200.328125 20.015625 200.003906 Z M 20.015625 200.003906 " fill-opacity="1" fill-rule="nonzero"/></g><g clip-path="url(#20f815000e)"><path fill="#38b6ff" d="M 20.015625 187.738281 L 29.507812 179.242188 C 29.710938 179.0625 29.824219 178.808594 29.824219 178.542969 L 29.824219 172.878906 C 29.824219 172.507812 29.605469 172.171875 29.261719 172.015625 C 28.917969 171.867188 28.515625 171.929688 28.242188 172.175781 L 19.378906 180.101562 L 10.523438 172.175781 C 10.242188 171.929688 9.84375 171.863281 9.5 172.015625 C 9.15625 172.171875 8.9375 172.507812 8.9375 172.878906 L 8.9375 178.542969 C 8.9375 178.808594 9.050781 179.0625 9.25 179.242188 L 18.746094 187.738281 C 19.105469 188.058594 19.65625 188.058594 20.015625 187.738281 Z M 20.015625 187.738281 " fill-opacity="1" fill-rule="nonzero"/></g><g clip-path="url(#d8e0591c42)"><g clip-path="url(#bd8ed82a8b)"><g clip-path="url(#49c9f20126)"><path fill="#5ce1e6" d="M 22.28125 145.097656 L 34.921875 143.527344 C 35.191406 143.492188 35.429688 143.347656 35.582031 143.128906 L 38.808594 138.476562 C 39.019531 138.167969 39.03125 137.765625 38.835938 137.445312 C 38.640625 137.125 38.273438 136.949219 37.90625 136.996094 L 26.109375 138.460938 L 23.34375 126.902344 C 23.253906 126.539062 22.960938 126.257812 22.59375 126.191406 C 22.226562 126.121094 21.851562 126.273438 21.640625 126.578125 L 18.414062 131.230469 C 18.261719 131.453125 18.210938 131.726562 18.273438 131.988281 L 21.238281 144.375 C 21.351562 144.847656 21.800781 145.160156 22.28125 145.097656 Z M 22.28125 145.097656 " fill-opacity="1" fill-rule="nonzero"/></g></g></g><g clip-path="url(#98e60d617f)"><g clip-path="url(#2d6a2af90a)"><g clip-path="url(#f4e2e16908)"><path fill="#5ce1e6" d="M 29.269531 135.015625 L 41.910156 133.441406 C 42.179688 133.410156 42.417969 133.265625 42.570312 133.046875 L 45.792969 128.390625 C 46.007812 128.085938 46.019531 127.683594 45.824219 127.363281 C 45.628906 127.042969 45.261719 126.867188 44.894531 126.914062 L 33.097656 128.378906 L 30.332031 116.820312 C 30.242188 116.457031 29.949219 116.175781 29.582031 116.105469 C 29.210938 116.035156 28.839844 116.1875 28.628906 116.492188 L 25.402344 121.148438 C 25.25 121.367188 25.199219 121.640625 25.261719 121.902344 L 28.226562 134.292969 C 28.335938 134.761719 28.789062 135.078125 29.269531 135.015625 Z M 29.269531 135.015625 " fill-opacity="1" fill-rule="nonzero"/></g></g></g><g clip-path="url(#41e1c8899d)"><g clip-path="url(#4dff1dd014)"><g clip-path="url(#ed34350333)"><path fill="#38b6ff" d="M 45.109375 108.90625 L 57.78125 110.222656 C 58.050781 110.25 58.3125 110.164062 58.511719 109.984375 L 62.703125 106.175781 C 62.976562 105.925781 63.078125 105.535156 62.960938 105.179688 C 62.84375 104.824219 62.527344 104.570312 62.15625 104.53125 L 50.332031 103.304688 L 50.242188 91.417969 C 50.238281 91.042969 50.015625 90.703125 49.675781 90.554688 C 49.332031 90.402344 48.933594 90.46875 48.65625 90.71875 L 44.464844 94.523438 C 44.265625 94.703125 44.160156 94.960938 44.15625 95.230469 L 44.253906 107.96875 C 44.257812 108.453125 44.628906 108.859375 45.109375 108.90625 Z M 45.109375 108.90625 " fill-opacity="1" fill-rule="nonzero"/></g></g></g><g clip-path="url(#5a9e946dfb)"><g clip-path="url(#1a440f4306)"><g clip-path="url(#c529b993a7)"><path fill="#38b6ff" d="M 54.1875 100.65625 L 66.859375 101.972656 C 67.128906 102 67.394531 101.914062 67.589844 101.734375 L 71.78125 97.925781 C 72.058594 97.675781 72.160156 97.285156 72.042969 96.929688 C 71.921875 96.574219 71.609375 96.320312 71.238281 96.28125 L 59.414062 95.054688 L 59.324219 83.167969 C 59.320312 82.792969 59.097656 82.453125 58.753906 82.304688 C 58.410156 82.152344 58.011719 82.21875 57.738281 82.46875 L 53.546875 86.273438 C 53.347656 86.457031 53.238281 86.710938 53.238281 86.980469 L 53.335938 99.71875 C 53.339844 100.203125 53.710938 100.609375 54.1875 100.65625 Z M 54.1875 100.65625 " fill-opacity="1" fill-rule="nonzero"/></g></g></g><g clip-path="url(#15e9f17f21)"><g clip-path="url(#996e93ff9d)"><g clip-path="url(#3545548c5f)"><path fill="#38b6ff" d="M 75.378906 84.589844 L 87.1875 89.363281 C 87.441406 89.460938 87.71875 89.453125 87.957031 89.335938 L 93.039062 86.835938 C 93.371094 86.671875 93.578125 86.328125 93.566406 85.953125 C 93.550781 85.578125 93.316406 85.246094 92.96875 85.105469 L 81.949219 80.652344 L 85.152344 69.207031 C 85.253906 68.84375 85.136719 68.457031 84.847656 68.21875 C 84.558594 67.976562 84.160156 67.929688 83.824219 68.09375 L 78.742188 70.589844 C 78.503906 70.707031 78.328125 70.925781 78.25 71.179688 L 74.816406 83.449219 C 74.6875 83.914062 74.929688 84.410156 75.378906 84.589844 Z M 75.378906 84.589844 " fill-opacity="1" fill-rule="nonzero"/></g></g></g><g clip-path="url(#434f849703)"><g clip-path="url(#fd03e2322c)"><g clip-path="url(#20c506231c)"><path fill="#38b6ff" d="M 86.386719 79.175781 L 98.199219 83.949219 C 98.449219 84.050781 98.726562 84.042969 98.96875 83.921875 L 104.050781 81.425781 C 104.382812 81.261719 104.589844 80.914062 104.574219 80.539062 C 104.558594 80.164062 104.328125 79.832031 103.980469 79.695312 L 92.960938 75.238281 L 96.164062 63.792969 C 96.265625 63.433594 96.144531 63.046875 95.859375 62.804688 C 95.570312 62.566406 95.167969 62.515625 94.835938 62.679688 L 89.753906 65.179688 C 89.511719 65.296875 89.335938 65.511719 89.261719 65.769531 L 85.828125 78.035156 C 85.695312 78.503906 85.941406 78.996094 86.386719 79.175781 Z M 86.386719 79.175781 " fill-opacity="1" fill-rule="nonzero"/></g></g></g><g clip-path="url(#f23a4cd342)"><path fill="#38b6ff" d="M 118.214844 68.148438 L 126.707031 77.640625 C 126.890625 77.84375 127.144531 77.957031 127.410156 77.957031 L 133.074219 77.957031 C 133.445312 77.957031 133.78125 77.738281 133.9375 77.394531 C 134.085938 77.050781 134.023438 76.652344 133.773438 76.375 L 125.851562 67.515625 L 133.773438 58.65625 C 134.023438 58.375 134.089844 57.976562 133.9375 57.632812 C 133.78125 57.289062 133.445312 57.070312 133.074219 57.070312 L 127.410156 57.070312 C 127.144531 57.070312 126.890625 57.1875 126.707031 57.382812 L 118.214844 66.878906 C 117.894531 67.238281 117.894531 67.789062 118.214844 68.148438 Z M 118.214844 68.148438 " fill-opacity="1" fill-rule="nonzero"/></g><g clip-path="url(#e330b8f831)"><path fill="#38b6ff" d="M 130.484375 68.148438 L 138.976562 77.640625 C 139.160156 77.84375 139.410156 77.957031 139.679688 77.957031 L 145.339844 77.957031 C 145.714844 77.957031 146.050781 77.738281 146.203125 77.394531 C 146.355469 77.050781 146.292969 76.652344 146.042969 76.375 L 138.117188 67.515625 L 146.042969 58.65625 C 146.292969 58.375 146.355469 57.976562 146.203125 57.632812 C 146.050781 57.289062 145.714844 57.070312 145.339844 57.070312 L 139.679688 57.070312 C 139.410156 57.070312 139.160156 57.1875 138.976562 57.382812 L 130.484375 66.878906 C 130.160156 67.238281 130.160156 67.789062 130.484375 68.148438 Z M 130.484375 68.148438 " fill-opacity="1" fill-rule="nonzero"/></g><g clip-path="url(#50b113c69e)"><g clip-path="url(#3813e50990)"><g clip-path="url(#4d32441ca5)"><path fill="#5ce1e6" d="M 154.75 67.308594 L 162.957031 77.050781 C 163.128906 77.257812 163.378906 77.378906 163.648438 77.390625 L 169.308594 77.558594 C 169.679688 77.570312 170.023438 77.359375 170.1875 77.023438 C 170.347656 76.683594 170.296875 76.28125 170.058594 75.996094 L 162.402344 66.902344 L 170.589844 58.289062 C 170.847656 58.015625 170.925781 57.617188 170.78125 57.269531 C 170.640625 56.921875 170.308594 56.691406 169.9375 56.683594 L 164.277344 56.511719 C 164.007812 56.503906 163.753906 56.613281 163.566406 56.804688 L 154.789062 66.039062 C 154.457031 66.386719 154.441406 66.9375 154.75 67.308594 Z M 154.75 67.308594 " fill-opacity="1" fill-rule="nonzero"/></g></g></g><g clip-path="url(#d0557120de)"><g clip-path="url(#a12be6a509)"><g clip-path="url(#907b12bf40)"><path fill="#5ce1e6" d="M 167.015625 67.675781 L 175.21875 77.421875 C 175.394531 77.628906 175.640625 77.75 175.910156 77.757812 L 181.570312 77.929688 C 181.941406 77.941406 182.285156 77.730469 182.449219 77.394531 C 182.609375 77.054688 182.558594 76.652344 182.320312 76.367188 L 174.664062 67.273438 L 182.851562 58.65625 C 183.109375 58.386719 183.1875 57.988281 183.042969 57.640625 C 182.902344 57.292969 182.570312 57.0625 182.199219 57.050781 L 176.539062 56.878906 C 176.269531 56.871094 176.015625 56.980469 175.828125 57.171875 L 167.050781 66.40625 C 166.71875 66.757812 166.703125 67.308594 167.015625 67.675781 Z M 167.015625 67.675781 " fill-opacity="1" fill-rule="nonzero"/></g></g></g><g clip-path="url(#7246a27c58)"><g clip-path="url(#c1c1487686)"><g clip-path="url(#3c8c39b2e0)"><path fill="#38b6ff" d="M 266.402344 67.308594 L 274.609375 77.050781 C 274.78125 77.257812 275.03125 77.378906 275.300781 77.390625 L 280.960938 77.558594 C 281.332031 77.570312 281.675781 77.359375 281.839844 77.023438 C 282 76.683594 281.949219 76.28125 281.710938 75.996094 L 274.054688 66.902344 L 282.242188 58.289062 C 282.5 58.015625 282.578125 57.617188 282.433594 57.269531 C 282.292969 56.921875 281.960938 56.691406 281.589844 56.683594 L 275.929688 56.511719 C 275.660156 56.503906 275.40625 56.613281 275.21875 56.804688 L 266.441406 66.039062 C 266.109375 66.386719 266.09375 66.9375 266.402344 67.308594 Z M 266.402344 67.308594 " fill-opacity="1" fill-rule="nonzero"/></g></g></g><g clip-path="url(#e32e97855a)"><g clip-path="url(#6e02e3756e)"><g clip-path="url(#079f112dba)"><path fill="#38b6ff" d="M 278.667969 67.675781 L 286.871094 77.421875 C 287.046875 77.628906 287.292969 77.75 287.5625 77.757812 L 293.222656 77.929688 C 293.59375 77.941406 293.9375 77.730469 294.101562 77.394531 C 294.261719 77.054688 294.210938 76.652344 293.972656 76.367188 L 286.316406 67.273438 L 294.503906 58.65625 C 294.761719 58.386719 294.839844 57.988281 294.695312 57.640625 C 294.554688 57.292969 294.222656 57.0625 293.851562 57.050781 L 288.191406 56.878906 C 287.921875 56.871094 287.667969 56.980469 287.480469 57.171875 L 278.703125 66.40625 C 278.371094 66.757812 278.355469 67.308594 278.667969 67.675781 Z M 278.667969 67.675781 " fill-opacity="1" fill-rule="nonzero"/></g></g></g><g clip-path="url(#ba33658355)"><g clip-path="url(#123db29ca8)"><g clip-path="url(#1bff0057dc)"><path fill="#38b6ff" d="M 229.277344 67.308594 L 237.484375 77.050781 C 237.65625 77.257812 237.90625 77.378906 238.175781 77.390625 L 243.835938 77.558594 C 244.207031 77.570312 244.550781 77.359375 244.714844 77.023438 C 244.875 76.683594 244.824219 76.28125 244.585938 75.996094 L 236.929688 66.902344 L 245.117188 58.289062 C 245.375 58.015625 245.453125 57.617188 245.308594 57.269531 C 245.167969 56.921875 244.835938 56.691406 244.464844 56.683594 L 238.804688 56.511719 C 238.535156 56.503906 238.28125 56.613281 238.09375 56.804688 L 229.316406 66.039062 C 228.984375 66.386719 228.96875 66.9375 229.277344 67.308594 Z M 229.277344 67.308594 " fill-opacity="1" fill-rule="nonzero"/></g></g></g><g clip-path="url(#6a9c28174f)"><g clip-path="url(#a49f2f4f38)"><g clip-path="url(#26a3a6bc47)"><path fill="#38b6ff" d="M 241.542969 67.675781 L 249.746094 77.421875 C 249.921875 77.628906 250.167969 77.75 250.4375 77.757812 L 256.097656 77.929688 C 256.46875 77.941406 256.8125 77.730469 256.976562 77.394531 C 257.136719 77.054688 257.085938 76.652344 256.847656 76.367188 L 249.191406 67.273438 L 257.378906 58.65625 C 257.636719 58.386719 257.714844 57.988281 257.570312 57.640625 C 257.429688 57.292969 257.097656 57.0625 256.726562 57.050781 L 251.066406 56.878906 C 250.796875 56.871094 250.542969 56.980469 250.355469 57.171875 L 241.578125 66.40625 C 241.246094 66.757812 241.230469 67.308594 241.542969 67.675781 Z M 241.542969 67.675781 " fill-opacity="1" fill-rule="nonzero"/></g></g></g><g clip-path="url(#a0d1e7782b)"><g clip-path="url(#df9ccb0abb)"><g clip-path="url(#fc0744cda1)"><path fill="#38b6ff" d="M 192.761719 67.308594 L 200.964844 77.050781 C 201.140625 77.257812 201.390625 77.378906 201.660156 77.390625 L 207.316406 77.558594 C 207.691406 77.570312 208.035156 77.359375 208.199219 77.023438 C 208.359375 76.683594 208.308594 76.28125 208.066406 75.996094 L 200.414062 66.902344 L 208.601562 58.289062 C 208.859375 58.015625 208.933594 57.617188 208.792969 57.269531 C 208.648438 56.921875 208.320312 56.691406 207.945312 56.683594 L 202.289062 56.511719 C 202.019531 56.503906 201.761719 56.613281 201.574219 56.804688 L 192.800781 66.039062 C 192.46875 66.386719 192.449219 66.9375 192.761719 67.308594 Z M 192.761719 67.308594 " fill-opacity="1" fill-rule="nonzero"/></g></g></g><g clip-path="url(#96f55c3f9e)"><g clip-path="url(#f31f326116)"><g clip-path="url(#141bb679de)"><path fill="#38b6ff" d="M 205.023438 67.675781 L 213.230469 77.421875 C 213.402344 77.628906 213.652344 77.75 213.921875 77.757812 L 219.582031 77.929688 C 219.953125 77.941406 220.296875 77.730469 220.460938 77.394531 C 220.621094 77.054688 220.570312 76.652344 220.332031 76.367188 L 212.675781 67.273438 L 220.863281 58.65625 C 221.121094 58.386719 221.199219 57.988281 221.054688 57.640625 C 220.914062 57.292969 220.582031 57.0625 220.210938 57.050781 L 214.550781 56.878906 C 214.28125 56.871094 214.027344 56.980469 213.839844 57.171875 L 205.0625 66.40625 C 204.730469 66.757812 204.714844 67.308594 205.023438 67.675781 Z M 205.023438 67.675781 " fill-opacity="1" fill-rule="nonzero"/></g></g></g></svg>