<svg xmlns="http://www.w3.org/2000/svg" width="450" viewBox="0 0 337.5 375" height="500" version="1.0"><defs><clipPath id="prefix__a"><path d="M0 52.777h303.75V323H0zm0 0"/></clipPath><clipPath id="prefix__b"><path d="M7.918 142.824C3.137 156.668 0 172.406 0 187.852c0 15.445 2.688 30.304 7.469 44.003.152.29.152.583.3.875 19.122 51.434 69.622 89.32 127.887 90.047H303.75v-270H135.781c-58.687.73-109.187 38.032-127.863 90.047"/></clipPath><clipPath id="prefix__c"><path d="M0 52.777h303.75v270H0zm0 0"/></clipPath><clipPath id="prefix__d"><path d="M7.918 142.824C3.137 156.668 0 172.406 0 187.852c0 15.445 2.688 30.304 7.469 44.003.152.29.152.583.3.875 19.122 51.434 69.622 89.32 127.887 90.047H303.75v-270H135.781c-58.687.73-109.187 38.032-127.863 90.047"/></clipPath><clipPath id="prefix__e"><path d="M33 78h217v217H33zm0 0"/></clipPath><clipPath id="prefix__f"><path d="M36.07 75.746l216.243 4.602-4.602 216.238-216.242-4.602zm0 0"/></clipPath><clipPath id="prefix__g"><path d="M144.047 78.043c-59.633-1.27-109.004 46.043-110.274 105.676-1.27 59.636 46.047 109.008 105.68 110.273 59.633 1.27 109.004-46.043 110.274-105.676 1.27-59.632-46.047-109.004-105.68-110.273"/></clipPath><clipPath id="prefix__h"><path d="M33 78h217v217H33zm0 0"/></clipPath><clipPath id="prefix__i"><path d="M36.07 75.746l215.953 4.594-4.593 215.953-215.953-4.598zm0 0"/></clipPath><clipPath id="prefix__j"><path d="M36.07 75.746l219.008 4.66-4.66 219.004-219.008-4.66zm0 0"/></clipPath><clipPath id="prefix__k"><path d="M144.047 78.043c-59.633-1.27-109.004 46.043-110.274 105.676-1.27 59.636 46.047 109.008 105.68 110.273 59.633 1.27 109.004-46.043 110.274-105.676 1.27-59.632-46.047-109.004-105.68-110.273"/></clipPath><clipPath id="prefix__l"><path d="M131 119h18v32h-18zm0 0"/></clipPath><clipPath id="prefix__m"><path d="M131.117 119.074l18.164-.07.125 31.922-18.164.07zm0 0"/></clipPath><clipPath id="prefix__n"><path d="M131.117 119.074l17.766-.07.125 31.726-17.766.07zm0 0"/></clipPath><clipPath id="prefix__o"><path d="M164 192h37v32h-37zm0 0"/></clipPath><clipPath id="prefix__p"><path d="M164.09 207.785l9.191-15.668 27.535 16.16-9.195 15.664zm0 0"/></clipPath><clipPath id="prefix__q"><path d="M164.09 207.785l8.992-15.324 27.363 16.059-8.992 15.324zm0 0"/></clipPath><clipPath id="prefix__r"><path d="M97 134h86v75H97zm0 0"/></clipPath><clipPath id="prefix__s"><path d="M118.781 244.738l-42.547-73.816 64.102-36.95 42.547 73.817zm0 0"/></clipPath><clipPath id="prefix__t"><path d="M97.672 208.113l42.371-73.215 42.223 73.247-84.594-.032"/></clipPath><clipPath id="prefix__u"><path d="M86 188h37v32H86zm0 0"/></clipPath><clipPath id="prefix__v"><path d="M95.27 219.754L86.2 204.02l27.66-15.946 9.07 15.738zm0 0"/></clipPath><clipPath id="prefix__w"><path d="M95.27 219.754l-8.872-15.39 27.489-15.844 8.87 15.39zm0 0"/></clipPath><clipPath id="prefix__x"><path d="M45 194h56v57H45zm0 0"/></clipPath><clipPath id="prefix__y"><path d="M110.762 233.398l-48.817 26.66-26.66-48.816 48.817-26.66zm0 0"/></clipPath><clipPath id="prefix__z"><path d="M86.355 246.73c13.48-7.363 18.438-24.257 11.079-37.738-7.364-13.48-24.258-18.441-37.739-11.078-13.48 7.36-18.441 24.258-11.078 37.738 7.36 13.48 24.258 18.442 37.738 11.078"/></clipPath><clipPath id="prefix__A"><path d="M45 194h56v57H45zm0 0"/></clipPath><clipPath id="prefix__B"><path d="M110.762 233.398L62.055 260l-26.602-48.707 48.707-26.602zm0 0"/></clipPath><clipPath id="prefix__C"><path d="M110.762 233.398L62.055 260l-26.602-48.707 48.707-26.602zm0 0"/></clipPath><clipPath id="prefix__D"><path d="M86.406 246.7c13.453-7.345 18.403-24.204 11.055-37.653-7.344-13.453-24.203-18.402-37.656-11.055-13.45 7.344-18.399 24.203-11.051 37.656 7.344 13.45 24.203 18.399 37.652 11.051"/></clipPath><clipPath id="prefix__E"><path d="M180 195h57v56h-57zm0 0"/></clipPath><clipPath id="prefix__F"><path d="M218.352 261.168l-48.141-27.863 27.863-48.137 48.14 27.863zm0 0"/></clipPath><clipPath id="prefix__G"><path d="M194.281 247.238c13.293 7.696 30.309 3.157 38.004-10.136 7.692-13.297 3.153-30.309-10.14-38.004-13.293-7.696-30.305-3.157-38 10.136-7.696 13.297-3.157 30.309 10.136 38.004"/></clipPath><clipPath id="prefix__H"><path d="M180 195h56v57h-56zm0 0"/></clipPath><clipPath id="prefix__I"><path d="M218.352 261.168l-48.036-27.8 27.805-48.036 48.035 27.805zm0 0"/></clipPath><clipPath id="prefix__J"><path d="M218.352 261.168l-48.036-27.8 27.805-48.036 48.035 27.805zm0 0"/></clipPath><clipPath id="prefix__K"><path d="M194.336 247.27c13.262 7.675 30.238 3.148 37.918-10.118 7.676-13.265 3.148-30.242-10.117-37.918-13.262-7.675-30.239-3.148-37.918 10.118-7.676 13.261-3.149 30.238 10.117 37.918"/></clipPath><clipPath id="prefix__L"><path d="M112 81h57v56h-57zm0 0"/></clipPath><clipPath id="prefix__M"><path d="M177.98 120.14l-48.816 26.66-26.66-48.816 48.816-26.66zm0 0"/></clipPath><clipPath id="prefix__N"><path d="M153.57 133.473c13.48-7.364 18.442-24.258 11.078-37.739-7.359-13.48-24.257-18.441-37.738-11.078-13.48 7.36-18.437 24.258-11.078 37.739 7.363 13.48 24.258 18.437 37.738 11.078"/></clipPath><clipPath id="prefix__O"><path d="M112 81h57v56h-57zm0 0"/></clipPath><clipPath id="prefix__P"><path d="M177.98 120.14l-48.71 26.602-26.602-48.707 48.71-26.601zm0 0"/></clipPath><clipPath id="prefix__Q"><path d="M177.98 120.14l-48.71 26.602-26.602-48.707 48.71-26.601zm0 0"/></clipPath><clipPath id="prefix__R"><path d="M153.625 133.441c13.45-7.343 18.398-24.203 11.055-37.656-7.348-13.45-24.207-18.398-37.657-11.05-13.449 7.343-18.398 24.203-11.054 37.652 7.347 13.453 24.207 18.402 37.656 11.054"/></clipPath><clipPath id="prefix__S"><path d="M66 215h15v15H66zm0 0"/></clipPath><clipPath id="prefix__T"><path d="M70.469 231.855l-6.973-12.093 12.094-6.973 6.972 12.094zm0 0"/></clipPath><clipPath id="prefix__U"><path d="M66.98 225.809a6.986 6.986 0 009.536 2.562 6.986 6.986 0 002.562-9.535 6.986 6.986 0 00-9.535-2.563 6.986 6.986 0 00-2.563 9.536"/></clipPath><clipPath id="prefix__V"><path d="M201 216h15v15h-15zm0 0"/></clipPath><clipPath id="prefix__W"><path d="M198.68 225.715l6.992-12.078 12.082 6.992-6.992 12.082zm0 0"/></clipPath><clipPath id="prefix__X"><path d="M202.176 219.676a6.98 6.98 0 1012.082 6.992 6.975 6.975 0 00-2.543-9.535 6.98 6.98 0 00-9.54 2.543"/></clipPath><clipPath id="prefix__Y"><path d="M132 102h15v15h-15zm0 0"/></clipPath><clipPath id="prefix__Z"><path d="M136.645 118.617l-6.97-12.094 12.095-6.972 6.972 12.094zm0 0"/></clipPath><clipPath id="prefix__aa"><path d="M133.16 112.57a6.986 6.986 0 009.535 2.563 6.981 6.981 0 00-6.973-12.098 6.982 6.982 0 00-2.562 9.535"/></clipPath><clipPath id="prefix__ab"><path d="M76 130h22v45H76zm0 0"/></clipPath><clipPath id="prefix__ac"><path d="M100.875 132.54l-19.957 42.827-12.234-5.703 19.953-42.828zm0 0"/></clipPath><clipPath id="prefix__ad"><path d="M80.84 175.535l19.953-42.828-12.234-5.7-19.957 42.829zm0 0"/></clipPath><clipPath id="prefix__ae"><path d="M80.84 175.535l19.953-42.828-12.234-5.7-19.957 42.829zm0 0"/></clipPath><clipPath id="prefix__af"><path d="M78 166h1v1h-1zm0 0"/></clipPath><clipPath id="prefix__ag"><path d="M100.875 132.54l-19.957 42.827-12.234-5.703 19.953-42.828zm0 0"/></clipPath><clipPath id="prefix__ah"><path d="M80.84 175.535l19.953-42.828-12.234-5.7-19.957 42.829zm0 0"/></clipPath><clipPath id="prefix__ai"><path d="M80.84 175.535l19.953-42.828-12.234-5.7-19.957 42.829zm0 0"/></clipPath><clipPath id="prefix__aj"><path d="M181 132h31v39h-31zm0 0"/></clipPath><clipPath id="prefix__ak"><path d="M204.086 173.773l-23.535-40.968 11.707-6.727 23.535 40.973zm0 0"/></clipPath><clipPath id="prefix__al"><path d="M180.457 132.64l23.535 40.973 11.707-6.726-23.535-40.969zm0 0"/></clipPath><clipPath id="prefix__am"><path d="M180.457 132.64l23.535 40.973 11.707-6.726-23.535-40.969zm0 0"/></clipPath><clipPath id="prefix__an"><path d="M189 135h1v1h-1zm0 0"/></clipPath><clipPath id="prefix__ao"><path d="M204.086 173.773l-23.535-40.968 11.707-6.727 23.535 40.973zm0 0"/></clipPath><clipPath id="prefix__ap"><path d="M180.457 132.64l23.535 40.973 11.707-6.726-23.535-40.969zm0 0"/></clipPath><clipPath id="prefix__aq"><path d="M180.457 132.64l23.535 40.973 11.707-6.726-23.535-40.969zm0 0"/></clipPath><clipPath id="prefix__ar"><path d="M119 244h48v14h-48zm0 0"/></clipPath><clipPath id="prefix__as"><path d="M119.184 242.43l47.078 4.015-1.149 13.45-47.078-4.012zm0 0"/></clipPath><clipPath id="prefix__at"><path d="M166.45 246.46l-47.083-4.015-1.144 13.453 47.078 4.012zm0 0"/></clipPath><clipPath id="prefix__au"><path d="M166.45 246.46l-47.083-4.015-1.144 13.453 47.078 4.012zm0 0"/></clipPath><clipPath id="prefix__av"><path d="M158 251h1v2h-1zm0 0"/></clipPath><clipPath id="prefix__aw"><path d="M119.184 242.43l47.078 4.015-1.149 13.45-47.078-4.012zm0 0"/></clipPath><clipPath id="prefix__ax"><path d="M166.45 246.46l-47.083-4.015-1.144 13.453 47.078 4.012zm0 0"/></clipPath><clipPath id="prefix__ay"><path d="M166.45 246.46l-47.083-4.015-1.144 13.453 47.078 4.012zm0 0"/></clipPath><clipPath id="prefix__az"><path d="M266.625 297.129H283v21h-16.375zm0 0"/></clipPath><clipPath id="prefix__aA"><path d="M278 297.129h16.785v21H278zm0 0"/></clipPath><clipPath id="prefix__aB"><path d="M229.5 297.129H246v21h-16.5zm0 0"/></clipPath><clipPath id="prefix__aC"><path d="M241 297.129h16.66v21H241zm0 0"/></clipPath><clipPath id="prefix__aD"><path d="M192.375 297.129H209v21h-16.625zm0 0"/></clipPath><clipPath id="prefix__aE"><path d="M204 297.129h16.535v21H204zm0 0"/></clipPath><clipPath id="prefix__aF"><path d="M155.25 297.129H172v21h-16.75zm0 0"/></clipPath><clipPath id="prefix__aG"><path d="M167 297.129h16.41v21H167zm0 0"/></clipPath><clipPath id="prefix__aH"><path d="M117 297h18v22h-18zm0 0"/></clipPath><clipPath id="prefix__aI"><path d="M117.945 297.379l28.496-.504.371 20.996-28.496.504zm0 0"/></clipPath><clipPath id="prefix__aJ"><path d="M146.102 296.879l-28.497.504.372 20.996 28.496-.504zm0 0"/></clipPath><clipPath id="prefix__aK"><path d="M130 296h17v22h-17zm0 0"/></clipPath><clipPath id="prefix__aL"><path d="M117.945 297.379l28.496-.504.371 20.996-28.496.504zm0 0"/></clipPath><clipPath id="prefix__aM"><path d="M146.102 296.879l-28.497.504.372 20.996 28.496-.504zm0 0"/></clipPath><clipPath id="prefix__aN"><path d="M75 282h20v22H75zm0 0"/></clipPath><clipPath id="prefix__aO"><path d="M81.105 277.734l23.989 15.387-11.336 17.676-23.992-15.387zm0 0"/></clipPath><clipPath id="prefix__aP"><path d="M104.809 292.938L80.816 277.55 69.48 295.227l23.989 15.386zm0 0"/></clipPath><clipPath id="prefix__aQ"><path d="M85 289h20v22H85zm0 0"/></clipPath><clipPath id="prefix__aR"><path d="M81.105 277.734l23.989 15.387-11.336 17.676-23.992-15.387zm0 0"/></clipPath><clipPath id="prefix__aS"><path d="M104.809 292.938L80.816 277.55 69.48 295.227l23.989 15.386zm0 0"/></clipPath><clipPath id="prefix__aT"><path d="M39 261h21v21H39zm0 0"/></clipPath><clipPath id="prefix__aU"><path d="M48.059 255.742l20.527 19.77-14.566 15.125-20.528-19.77zm0 0"/></clipPath><clipPath id="prefix__aV"><path d="M68.34 275.277l-20.528-19.773-14.566 15.129 20.527 19.77zm0 0"/></clipPath><clipPath id="prefix__aW"><path d="M48 270h20v20H48zm0 0"/></clipPath><clipPath id="prefix__aX"><path d="M48.059 255.742l20.527 19.77-14.566 15.125-20.528-19.77zm0 0"/></clipPath><clipPath id="prefix__aY"><path d="M68.34 275.277l-20.528-19.773-14.566 15.129 20.527 19.77zm0 0"/></clipPath><clipPath id="prefix__aZ"><path d="M17 226h22v19H17zm0 0"/></clipPath><clipPath id="prefix__ba"><path d="M31.219 221.023l14.32 24.641-18.152 10.555-14.325-24.64zm0 0"/></clipPath><clipPath id="prefix__bb"><path d="M45.371 245.371l-14.324-24.64-18.156 10.554 14.324 24.64zm0 0"/></clipPath><clipPath id="prefix__bc"><path d="M23 236h22v20H23zm0 0"/></clipPath><clipPath id="prefix__bd"><path d="M31.219 221.023l14.32 24.641-18.152 10.555-14.325-24.64zm0 0"/></clipPath><clipPath id="prefix__be"><path d="M45.371 245.371l-14.324-24.64-18.156 10.554 14.324 24.64zm0 0"/></clipPath><clipPath id="prefix__bf"><path d="M8.879 171.938h21V188h-21zm0 0"/></clipPath><clipPath id="prefix__bg"><path d="M8.879 184h21v16.098h-21zm0 0"/></clipPath><clipPath id="prefix__bh"><path d="M20 121h22v20H20zm0 0"/></clipPath><clipPath id="prefix__bi"><path d="M46.379 127.648l-16.234 23.426-17.262-11.965 16.234-23.422zm0 0"/></clipPath><clipPath id="prefix__bj"><path d="M30.34 150.793l16.234-23.426-17.261-11.96-16.235 23.425zm0 0"/></clipPath><clipPath id="prefix__bk"><path d="M13 131h22v20H13zm0 0"/></clipPath><clipPath id="prefix__bl"><path d="M46.379 127.648l-16.234 23.426-17.262-11.965 16.234-23.422zm0 0"/></clipPath><clipPath id="prefix__bm"><path d="M30.34 150.793l16.234-23.426-17.261-11.96-16.235 23.425zm0 0"/></clipPath><clipPath id="prefix__bn"><path d="M47 87h19v21H47zm0 0"/></clipPath><clipPath id="prefix__bo"><path d="M72.52 97.336L51.426 116.5l-14.121-15.543 21.093-19.164zm0 0"/></clipPath><clipPath id="prefix__bp"><path d="M51.676 116.27L72.77 97.105 58.648 81.562l-21.093 19.165zm0 0"/></clipPath><clipPath id="prefix__bq"><path d="M37 96h20v20H37zm0 0"/></clipPath><clipPath id="prefix__br"><path d="M72.52 97.336L51.426 116.5l-14.121-15.543 21.093-19.164zm0 0"/></clipPath><clipPath id="prefix__bs"><path d="M51.676 116.27L72.77 97.105 58.648 81.562l-21.093 19.165zm0 0"/></clipPath><clipPath id="prefix__bt"><path d="M81 66h20v22H81zm0 0"/></clipPath><clipPath id="prefix__bu"><path d="M104.922 81.059L79.344 93.633l-9.266-18.848 25.578-12.57zm0 0"/></clipPath><clipPath id="prefix__bv"><path d="M79.648 93.48l25.579-12.57-9.266-18.847-25.578 12.574zm0 0"/></clipPath><clipPath id="prefix__bw"><path d="M70 71h20v23H70zm0 0"/></clipPath><clipPath id="prefix__bx"><path d="M104.922 81.059L79.344 93.633l-9.266-18.848 25.578-12.57zm0 0"/></clipPath><clipPath id="prefix__by"><path d="M79.648 93.48l25.579-12.57-9.266-18.847-25.578 12.574zm0 0"/></clipPath><clipPath id="prefix__bz"><path d="M130 57.016h16.285V78H130zm0 0"/></clipPath><clipPath id="prefix__bA"><path d="M118.125 57.016H135V78h-16.875zm0 0"/></clipPath><clipPath id="prefix__bB"><path d="M166 56h17v22h-17zm0 0"/></clipPath><clipPath id="prefix__bC"><path d="M182.512 78.016l-28.489-.86.633-20.992 28.489.86zm0 0"/></clipPath><clipPath id="prefix__bD"><path d="M154.363 77.164l28.489.86.632-20.989-28.488-.86zm0 0"/></clipPath><clipPath id="prefix__bE"><path d="M154 56h17v22h-17zm0 0"/></clipPath><clipPath id="prefix__bF"><path d="M182.512 78.016l-28.489-.86.633-20.992 28.489.86zm0 0"/></clipPath><clipPath id="prefix__bG"><path d="M154.363 77.164l28.489.86.632-20.989-28.488-.86zm0 0"/></clipPath><clipPath id="prefix__bH"><path d="M278 56h17v22h-17zm0 0"/></clipPath><clipPath id="prefix__bI"><path d="M294.164 78.016l-28.488-.86.633-20.992 28.488.86zm0 0"/></clipPath><clipPath id="prefix__bJ"><path d="M266.016 77.164l28.488.86.633-20.989-28.489-.86zm0 0"/></clipPath><clipPath id="prefix__bK"><path d="M266 56h17v22h-17zm0 0"/></clipPath><clipPath id="prefix__bL"><path d="M294.164 78.016l-28.488-.86.633-20.992 28.488.86zm0 0"/></clipPath><clipPath id="prefix__bM"><path d="M266.016 77.164l28.488.86.633-20.989-28.489-.86zm0 0"/></clipPath><clipPath id="prefix__bN"><path d="M241 56h17v22h-17zm0 0"/></clipPath><clipPath id="prefix__bO"><path d="M257.04 78.016l-28.49-.86.634-20.992 28.488.86zm0 0"/></clipPath><clipPath id="prefix__bP"><path d="M228.89 77.164l28.489.86.633-20.989-28.489-.86zm0 0"/></clipPath><clipPath id="prefix__bQ"><path d="M228 56h18v22h-18zm0 0"/></clipPath><clipPath id="prefix__bR"><path d="M257.04 78.016l-28.49-.86.634-20.992 28.488.86zm0 0"/></clipPath><clipPath id="prefix__bS"><path d="M228.89 77.164l28.489.86.633-20.989-28.489-.86zm0 0"/></clipPath><clipPath id="prefix__bT"><path d="M204 56h17v22h-17zm0 0"/></clipPath><clipPath id="prefix__bU"><path d="M220.523 78.016l-28.488-.86.633-20.992 28.488.86zm0 0"/></clipPath><clipPath id="prefix__bV"><path d="M192.375 77.164l28.488.86.633-20.989-28.488-.86zm0 0"/></clipPath><clipPath id="prefix__bW"><path d="M192 56h17v22h-17zm0 0"/></clipPath><clipPath id="prefix__bX"><path d="M220.523 78.016l-28.488-.86.633-20.992 28.488.86zm0 0"/></clipPath><clipPath id="prefix__bY"><path d="M192.375 77.164l28.488.86.633-20.989-28.488-.86zm0 0"/></clipPath></defs><g clip-path="url(#prefix__a)"><g clip-path="url(#prefix__b)"><path fill="#919191" d="M303.75 52.777V323.04H-.133V52.777zm0 0"/></g></g><g clip-path="url(#prefix__c)"><g clip-path="url(#prefix__d)"><path fill="none" d="M7.918 142.824C3.137 156.668 0 172.406 0 187.852c0 15.445 2.687 30.304 7.469 44.003.152.29.152.583.3.875 19.122 51.434 69.622 89.32 127.887 90.047H303.75v-270H135.781c-58.687.73-109.187 38.032-127.863 90.047" stroke="#000" stroke-width="3"/></g></g><g clip-path="url(#prefix__e)"><g clip-path="url(#prefix__f)"><g clip-path="url(#prefix__g)"><path fill="#707070" d="M36.07 75.746l215.688 4.59-4.59 215.684-215.688-4.586zm0 0"/></g></g></g><g clip-path="url(#prefix__h)"><g clip-path="url(#prefix__i)"><g clip-path="url(#prefix__j)"><g clip-path="url(#prefix__k)"><path fill="none" d="M144.047 78.043c-59.633-1.27-109.004 46.043-110.274 105.676-1.27 59.636 46.047 109.008 105.68 110.273 59.633 1.27 109.004-46.043 110.274-105.676 1.27-59.632-46.047-109.003-105.68-110.273" stroke="#000" stroke-width="6"/></g></g></g></g><g clip-path="url(#prefix__l)"><g clip-path="url(#prefix__m)"><g clip-path="url(#prefix__n)"><path fill="#ffde59" d="M131.117 119.074l17.613-.07.125 31.926-17.613.066zm0 0"/></g></g></g><g clip-path="url(#prefix__o)"><g clip-path="url(#prefix__p)"><g clip-path="url(#prefix__q)"><path fill="#ffde59" d="M164.09 207.785l8.914-15.191 27.535 16.156-8.914 15.191zm0 0"/></g></g></g><g clip-path="url(#prefix__r)"><g clip-path="url(#prefix__s)"><g clip-path="url(#prefix__t)"><path fill="#ffde59" d="M118.781 244.738L76.61 171.57l63.454-36.574 42.175 73.164zm0 0"/></g></g></g><g clip-path="url(#prefix__u)"><g clip-path="url(#prefix__v)"><g clip-path="url(#prefix__w)"><path fill="#ffde59" d="M95.27 219.754l-8.793-15.258 27.656-15.945 8.797 15.262zm0 0"/></g></g></g><g clip-path="url(#prefix__x)"><g clip-path="url(#prefix__y)"><g clip-path="url(#prefix__z)"><path fill="#ffde59" d="M110.762 233.398l-48.817 26.66-26.66-48.816 48.817-26.66zm0 0"/></g></g></g><g clip-path="url(#prefix__A)"><g clip-path="url(#prefix__B)"><g clip-path="url(#prefix__C)"><g clip-path="url(#prefix__D)"><path d="M84.973 244.074c4.875-2.664 8.445-6.52 10.715-11.57l5.46 2.45c-2.816 6.276-7.253 11.07-13.304 14.374zm11.675-14.066c1.72-5.285 1.672-10.535-.14-15.754l5.656-1.961c2.254 6.484 2.313 13.008.176 19.566zM95.5 211.785a27.27 27.27 0 00-.664-1.305c-2.41-4.414-5.836-7.773-10.273-10.082l2.765-5.312c5.516 2.871 9.77 7.047 12.762 12.523.289.532.562 1.07.82 1.618zM82.125 199.29c-5.18-2.023-10.426-2.281-15.742-.777l-1.63-5.758c6.606-1.871 13.122-1.55 19.552.96zm-18.254.086c-.898.36-1.773.777-2.629 1.242-3.96 2.164-7.086 5.168-9.383 9.02l-5.144-3.07c2.855-4.786 6.742-8.52 11.656-11.204a30.985 30.985 0 013.258-1.543zM50.613 212c-2.316 5.047-2.883 10.27-1.691 15.664l-5.848 1.29c-1.476-6.704-.777-13.184 2.098-19.454zm-.976 18.242a25.023 25.023 0 001.742 3.969c1.918 3.512 4.52 6.383 7.8 8.61l-3.363 4.952c-4.082-2.77-7.312-6.335-9.691-10.691a30.79 30.79 0 01-2.16-4.926zM61.465 244.2c4.906 2.606 10.09 3.473 15.547 2.602l.945 5.91c-6.781 1.086-13.215.008-19.3-3.227zm18.16 2.035c1.86-.507 3.64-1.23 5.348-2.16l2.87 5.254a30.562 30.562 0 01-6.636 2.68zm0 0"/></g></g></g></g><g clip-path="url(#prefix__E)"><g clip-path="url(#prefix__F)"><g clip-path="url(#prefix__G)"><path fill="#ffde59" d="M218.352 261.168l-48.141-27.863 27.863-48.137 48.14 27.863zm0 0"/></g></g></g><g clip-path="url(#prefix__H)"><g clip-path="url(#prefix__I)"><g clip-path="url(#prefix__J)"><g clip-path="url(#prefix__K)"><path d="M195.836 244.676c4.805 2.785 9.957 3.832 15.45 3.144l.745 5.942c-6.828.851-13.226-.45-19.195-3.903zm18.082 2.672c5.41-1.278 9.871-4.043 13.387-8.305l4.617 3.816c-4.371 5.293-9.914 8.73-16.629 10.317zm14.973-10.45c.27-.406.527-.82.773-1.246 2.516-4.351 3.61-9.02 3.277-14.015l5.977-.395c.41 6.203-.945 12.008-4.074 17.41-.305.524-.621 1.04-.953 1.543zm3.73-17.918c-.96-5.476-3.465-10.093-7.512-13.855l4.075-4.387c5.027 4.676 8.14 10.41 9.336 17.207zm-9.555-15.554a24.846 24.846 0 00-2.43-1.602c-3.902-2.258-8.093-3.37-12.577-3.332l-.047-5.988c5.57-.047 10.777 1.336 15.625 4.14a30.589 30.589 0 013.011 1.985zm-17.671-4.77c-5.52.645-10.278 2.875-14.266 6.692l-4.14-4.328c4.96-4.743 10.863-7.512 17.714-8.31zm-16.098 8.645a25.151 25.151 0 00-2.488 3.55c-2.004 3.462-3.102 7.172-3.301 11.137l-5.98-.3c.245-4.926 1.613-9.54 4.1-13.836a30.685 30.685 0 013.087-4.403zm-5.781 17.355c.32 5.547 2.273 10.422 5.855 14.637l-4.562 3.875c-4.45-5.23-6.871-11.285-7.27-18.164zm7.695 16.574a24.598 24.598 0 004.625 3.446l-3 5.183a30.674 30.674 0 01-5.738-4.277zm0 0"/></g></g></g></g><g clip-path="url(#prefix__L)"><g clip-path="url(#prefix__M)"><g clip-path="url(#prefix__N)"><path fill="#ffde59" d="M177.98 120.14l-48.816 26.66-26.66-48.816 48.816-26.66zm0 0"/></g></g></g><g clip-path="url(#prefix__O)"><g clip-path="url(#prefix__P)"><g clip-path="url(#prefix__Q)"><g clip-path="url(#prefix__R)"><path d="M152.191 130.816c4.875-2.664 8.446-6.52 10.711-11.574l5.465 2.453c-2.82 6.278-7.254 11.07-13.308 14.375zm11.676-14.066c1.719-5.285 1.672-10.535-.14-15.754l5.656-1.965c2.25 6.489 2.308 13.008.176 19.57zm-1.152-18.223c-.207-.441-.43-.875-.664-1.304-2.41-4.414-5.832-7.774-10.27-10.086l2.766-5.309c5.516 2.871 9.77 7.047 12.758 12.524.293.53.566 1.07.824 1.617zm-13.371-12.496c-5.18-2.023-10.426-2.281-15.742-.777l-1.633-5.762c6.605-1.867 13.125-1.547 19.554.961zm-18.254.082c-.899.364-1.774.778-2.633 1.246-3.957 2.164-7.086 5.168-9.383 9.016l-5.14-3.066c2.855-4.786 6.742-8.52 11.656-11.204a30.985 30.985 0 013.258-1.543zm-13.258 12.625c-2.316 5.051-2.883 10.274-1.695 15.668l-5.844 1.29c-1.477-6.704-.777-13.188 2.098-19.454zm-.977 18.242a24.713 24.713 0 001.743 3.973c1.918 3.512 4.515 6.379 7.8 8.61l-3.363 4.953c-4.082-2.77-7.312-6.336-9.691-10.692a30.79 30.79 0 01-2.16-4.926zm11.829 13.957c4.906 2.61 10.086 3.477 15.546 2.606l.942 5.91c-6.777 1.082-13.211.008-19.297-3.226zm18.16 2.04a24.902 24.902 0 005.347-2.16l2.868 5.253a30.728 30.728 0 01-6.633 2.68zm0 0"/></g></g></g></g><g clip-path="url(#prefix__S)"><g clip-path="url(#prefix__T)"><g clip-path="url(#prefix__U)"><path fill="#707070" d="M70.469 231.855l-6.973-12.093 12.094-6.973 6.972 12.094zm0 0"/></g></g></g><g clip-path="url(#prefix__V)"><g clip-path="url(#prefix__W)"><g clip-path="url(#prefix__X)"><path fill="#707070" d="M198.68 225.715l6.992-12.078 12.082 6.992-6.992 12.082zm0 0"/></g></g></g><g clip-path="url(#prefix__Y)"><g clip-path="url(#prefix__Z)"><g clip-path="url(#prefix__aa)"><path fill="#707070" d="M136.645 118.617l-6.97-12.094 12.095-6.972 6.972 12.094zm0 0"/></g></g></g><g clip-path="url(#prefix__ab)"><g clip-path="url(#prefix__ac)"><g clip-path="url(#prefix__ad)"><g clip-path="url(#prefix__ae)"><path fill="#fff" d="M80.805 174.68c-.04.011-.075-.004-.106-.035-.136.039-.152.273-.351.222-.426.153-.672-.094-.883-.402-.598-.867-1.043-1.809-1.426-2.778-1.379-3.468-1.969-7.058-1.922-10.785.082-6.5 2.328-12.203 6.16-17.336 1.778-2.379 3.942-4.406 6.203-6.328 1.329-1.129 2.723-2.175 4.09-3.258.067-.015.133-.03.2-.05.035-.067.097-.133.097-.203v-.004c0-.051-.078-.051-.129-.012-.687.012-1.351.168-2.004.36-.449.128-.89.222-1.359.183-.96.289-1.7-.027-2.078-.863 1.437-1.375 3.266-1.774 5.156-2.024.703-.094 1.399-.238 2.098-.367 1.668-.316 1.445-.176 2.367.86.207.23.355.503.477.792.043.106.074.207.023.317.219.273.098.543-.031.797-.387.757-.785 1.511-1.18 2.265.012.203-.094.36-.207.512.023.203-.086.36-.188.516.04.144-.05.254-.09.379-.507 1.671-.816 3.375-.831 5.132 0 .133-.016.262-.02.395-.008.156-.016.336-.187.383-.133.035-.293-.07-.34-.176-.207-.469-.668-.742-.906-1.18-.11-.191-.126-.414-.141-.637-.121-1.734.074-3.437.441-5.12.032-.153.09-.301.09-.454 0-.176-.144-.195-.289-.172-.055.168-.172.25-.344.258-.078.14-.168.274-.36.278 0 .042-.019.062-.065.054-.07.137-.16.254-.336.266-.07.082-.13.176-.211.246-.907.766-1.825 1.512-2.723 2.289-.816.7-1.605 1.426-2.406 2.145-.192.214-.367.437-.567.64-1.886 2.02-3.504 4.235-4.777 6.684-.457.875-.883 1.765-1.324 2.648.02.215-.102.371-.219.531.023.204-.09.356-.2.508.036.196-.081.332-.171.48.035.13-.016.227-.102.313.008.047-.004.082-.046.106.035.14-.051.254-.086.375-.165.61-.438 1.187-.528 1.82-.07.027-.168.18-.16-.063.004-.16-.035-.183-.082-.164-.047.02-.102.07-.144.11-.461 1.941-.68 3.918-.766 5.91.008.184.016.371.027.559.055 1.109.11 2.218.16 3.328a.165.165 0 01.043.113c0 .023-.004.05-.02.078.052.059.06.121.024.188.051.054.059.117.024.183.054.059.058.121.023.188.055.054.067.117.027.187.055.055.067.117.028.184v.004c.055.05.066.113.031.18v.003c.012.059.023.121.031.18v.008c.055.05.067.11.032.18v.007c.054.051.066.11.03.18v.004c.06.055.071.113.036.183v.004c.055.051.066.114.031.18v.004c.059.05.07.113.035.184.145.558.29 1.117.43 1.68-.016.312.113.597.203.886.035.008.07.004.102-.004a.193.193 0 00.12-.074c.095.215.2.418.188.66a.358.358 0 00.02.21 3.846 3.846 0 01-.02-.21c.043.063.075.125.032.195.093.067.125.16.12.274.063.043.087.097.06.168.05.058.081.12.054.199a.11.11 0 01.043.098c.129.191.207.398.234.62.082.141.168.282.172.45.082.07.098.172.121.27.32.55.54 1.156.985 1.667-.23.063-.309.305-.543.239zm11.855-38.555v0c0 .004.004.004.004.004 0-.004 0-.004-.004-.004zm-14.613 30.883a.19.19 0 00-.016-.043v.012c.004.015.004.027.008.039l.008-.008zm.058-2.067c0-.004-.003 0-.003 0h-.016l-.016.008.032-.008c.003 0 .003 0 .003.004v-.004zM78 167.055c.012-.012.027-.024.04-.035a.139.139 0 01-.009-.04.092.092 0 01-.031.075zm.012-.157a.14.14 0 00-.008-.043s0-.003-.004-.003a.104.104 0 01.012.046zm1.879 6.989v.008c.004 0 .004.003.004.003 0-.003 0-.007-.004-.011zm-.141-.246c-.004 0-.004 0-.004-.004l.004.004zm-.238-2.82c-.012.007-.024.015-.04.023l.024.015c.004-.011.008-.027.016-.039zm.218.449c.008.023.02.042.04.062a.21.21 0 01-.04-.062zm0 0"/></g></g></g></g><g clip-path="url(#prefix__af)"><g clip-path="url(#prefix__ag)"><g clip-path="url(#prefix__ah)"><g clip-path="url(#prefix__ai)"><path fill="#fff" d="M78.316 166.43c-.007-.063-.02-.121-.03-.18.058.05.066.113.03.18zm0 0"/></g></g></g></g><g clip-path="url(#prefix__aj)"><g clip-path="url(#prefix__ak)"><g clip-path="url(#prefix__al)"><g clip-path="url(#prefix__am)"><path fill="#fff" d="M181.176 133.105a.114.114 0 01.09-.066c.047-.137-.133-.281.023-.414.117-.434.461-.492.836-.492 1.05.012 2.078.191 3.09.433 3.633.868 6.906 2.454 9.926 4.637 5.27 3.809 8.64 8.93 10.632 15.02.922 2.82 1.332 5.757 1.602 8.71.16 1.739.215 3.481.313 5.223a2.78 2.78 0 00-.075.192c.035.066.055.156.11.195h.004c.043.031.09-.031.085-.094.387-.57.641-1.203.86-1.847.148-.442.328-.86.633-1.22.316-.952 1-1.37 1.898-1.202.297 1.968-.43 3.691-1.312 5.382-.328.633-.61 1.282-.907 1.926-.703 1.547-.687 1.285-2.062 1.442-.309.035-.621 0-.926-.067-.11-.023-.21-.058-.27-.16-.355.02-.503-.234-.636-.488-.399-.754-.785-1.512-1.176-2.27-.172-.105-.238-.28-.297-.46-.18-.098-.246-.278-.316-.45-.137-.05-.176-.187-.254-.293-1.074-1.375-2.293-2.61-3.719-3.633-.105-.078-.207-.164-.312-.246-.125-.093-.266-.203-.203-.37.046-.13.222-.204.335-.18.504.101.993-.118 1.489-.063.218.023.41.137.601.254 1.485.898 2.77 2.035 3.934 3.309.105.113.195.246.316.335.145.102.242-.007.309-.136-.106-.14-.106-.285-.012-.434-.07-.144-.129-.293-.02-.45-.038-.026-.038-.054-.007-.085-.074-.14-.117-.281-.024-.43-.027-.105-.07-.207-.082-.316-.101-1.18-.183-2.363-.3-3.543-.106-1.07-.247-2.137-.372-3.203-.066-.278-.144-.551-.199-.828-.562-2.707-1.441-5.305-2.715-7.758-.453-.875-.933-1.738-1.402-2.606-.187-.109-.246-.297-.309-.484-.18-.102-.238-.277-.3-.457-.18-.082-.223-.258-.297-.418-.121-.043-.172-.14-.192-.258-.046-.02-.066-.054-.062-.101-.137-.051-.176-.188-.258-.286-.406-.484-.719-1.042-1.184-1.48.02-.07-.046-.242.145-.098.125.098.168.082.18.032.011-.047 0-.125-.004-.184-1.324-1.492-2.813-2.809-4.395-4.027-.156-.098-.312-.2-.468-.297-.942-.598-1.883-1.192-2.82-1.785a.182.182 0 01-.114-.028.21.21 0 01-.055-.062c-.074.008-.129-.024-.164-.09-.078.012-.133-.02-.168-.09-.074.012-.129-.016-.164-.086-.078.012-.133-.015-.168-.086-.078.016-.133-.015-.168-.082-.078.012-.133-.015-.168-.082v-.004a.934.934 0 01-.168-.078h-.004c-.074.012-.132-.012-.168-.082h-.004c-.074.016-.128-.012-.164-.078l-.007-.004c-.075.016-.133-.008-.168-.078-.078.016-.133-.012-.168-.078h-.004a.143.143 0 01-.168-.078c-.543-.207-1.082-.41-1.621-.618-.25-.195-.555-.25-.844-.343a.216.216 0 00-.055.082.224.224 0 00-.011.144c-.227-.047-.457-.078-.645-.226a.38.38 0 00-.184-.106l.184.106c-.074 0-.144-.012-.176-.086-.11.039-.207.008-.297-.059-.07.024-.129.016-.172-.05-.074.007-.144-.004-.19-.07a.112.112 0 01-.106-.017 1.464 1.464 0 01-.645-.167c-.164-.016-.324-.028-.465-.122-.105.028-.195-.015-.289-.054-.637-.055-1.254-.227-1.933-.156.086-.223-.07-.43.117-.583zm24.707 31.891c-.004 0-.004 0-.004-.004h0s-.004.004-.004 0c.004.004.004.004.008.004zm-16.844-29.726a.64.64 0 00.043.011c-.004-.004-.008-.008-.012-.008-.011-.003-.02-.011-.035-.015 0 0 0 .004.004.012zm1.656 1.238c.004-.004 0-.004.004-.004 0-.008.004-.012.004-.016l.008-.015-.016.03h-.004c.004 0 .004 0 .004.005zm-1.668-1.309c.004.02.004.04.008.055.012.004.024.012.035.016a.096.096 0 01-.043-.07zm.121.106l.04.015h.003c-.015-.004-.03-.011-.043-.015zm-6.796-2.489l-.004-.004h-.004-.004c.004.004.008.004.012.004zm.28.028c.005-.004.009-.004.009-.004 0 .004-.008 0-.008.004zm2.446 1.426c0-.012 0-.028.004-.043-.008.003-.02.003-.027.007l.023.036zm-.492-.079a.173.173 0 00-.078-.004h.004c.027 0 .05 0 .074.004zm0 0"/></g></g></g></g><g clip-path="url(#prefix__an)"><g clip-path="url(#prefix__ao)"><g clip-path="url(#prefix__ap)"><g clip-path="url(#prefix__aq)"><path fill="#fff" d="M189.355 135.82c.055.028.11.055.168.078-.078.016-.132-.011-.168-.078zm0 0"/></g></g></g></g><g clip-path="url(#prefix__ar)"><g clip-path="url(#prefix__as)"><g clip-path="url(#prefix__at)"><g clip-path="url(#prefix__au)"><path fill="#fff" d="M165.656 246.785a.101.101 0 01.004.11c.086.12.309.054.328.257.29.344.14.66-.074.97-.605.855-1.34 1.597-2.117 2.292-2.785 2.488-5.953 4.274-9.465 5.512-6.133 2.16-12.262 2.008-18.402.176-2.844-.852-5.489-2.188-8.075-3.649-1.515-.86-2.976-1.808-4.464-2.723-.04-.054-.075-.113-.114-.167-.078-.012-.16-.047-.226-.024v.004c-.051.016-.024.09.027.125.25.64.625 1.21 1.027 1.758.278.375.52.758.641 1.215.602.8.559 1.601-.094 2.246-1.785-.88-2.789-2.457-3.675-4.149-.332-.629-.704-1.23-1.063-1.84-.871-1.46-.664-1.296-.012-2.52.149-.273.356-.507.582-.718.086-.078.168-.14.29-.133.183-.3.476-.28.761-.246.844.106 1.688.219 2.535.332.184-.086.368-.039.547.016.184-.09.367-.043.551 0 .121-.086.258-.04.383-.047 1.746-.098 3.453-.394 5.11-.98.124-.047.25-.079.378-.118.149-.047.316-.101.422.043.078.114.035.301-.047.38-.371.355-.469.882-.797 1.257-.144.164-.344.258-.55.352-1.587.707-3.25 1.113-4.962 1.347-.152.02-.312.016-.453.067-.168.062-.136.203-.066.332.176-.008.297.074.363.234.16.027.313.063.383.242.04-.015.066 0 .074.043.156.02.293.063.367.223.102.039.207.062.301.117 1.031.586 2.051 1.191 3.086 1.77.938.523 1.895 1.015 2.844 1.523.266.102.535.195.797.305 2.543 1.082 5.176 1.84 7.918 2.191.98.13 1.96.223 2.941.332.195-.09.383-.031.574.024.184-.09.364-.04.547.011.168-.097.34-.035.508-.004.11-.074.219-.058.328-.011a.094.094 0 01.117.008c.118-.083.254-.04.38-.047.628-.055 1.265.004 1.89-.13.05.055.226.098 0 .173-.152.05-.164.093-.129.132.031.036.102.067.152.098 1.98-.234 3.91-.71 5.813-1.312.172-.075.344-.145.515-.22 1.024-.429 2.047-.862 3.07-1.296a.172.172 0 01.09-.078.19.19 0 01.083-.008c.035-.066.093-.094.168-.086.035-.07.09-.098.164-.086a.148.148 0 01.168-.086c.035-.07.09-.101.168-.09.03-.07.086-.101.16-.09h.004c.03-.07.086-.101.16-.09h.004c.05-.034.101-.066.16-.093l.004-.004c.031-.07.082-.102.16-.09l.004-.004c.031-.07.082-.101.16-.09l.004-.003h0c.027-.07.082-.102.16-.094h.004c.027-.074.082-.102.156-.094h.004c.031-.074.082-.105.16-.098l1.43-.98c.3-.094.52-.313.762-.496a.196.196 0 00-.035-.094.239.239 0 00-.114-.09c.168-.156.325-.328.555-.398a.432.432 0 00.195-.094l-.195.094c.043-.063.094-.117.172-.098.031-.113.11-.176.219-.207.015-.074.058-.117.136-.113.04-.067.086-.121.168-.121a.109.109 0 01.075-.075c.136-.183.304-.332.503-.437.106-.121.207-.25.364-.309.039-.105.129-.152.21-.21.407-.489.9-.903 1.231-1.497.137.196.39.184.41.426zm-40.285 2.125h.004c0-.004 0-.004.004-.008l-.008.008zm34.027 3.102l-.035.031c.004-.004.008-.004.012-.004l.035-.02c-.004-.003-.008-.003-.012-.007zm-1.96.66c.003.004.003.012.007.016l.012.011-.02-.027s.004 0 .004-.004c0 .004-.004.004-.004.004zm2.023-.629c-.016-.008-.035-.016-.047-.023-.012.007-.023.011-.035.02a.087.087 0 01.082.003zm-.152.039a.344.344 0 00-.04.023v.004c.012-.007.024-.02.04-.027zm5.918-4.168c0 .004.003 0 .003 0h.004v-.008c-.004.004-.004.008-.007.008zm-.184.219c0 .004 0 .008-.004.008 0-.004.004-.004.004-.008zm-2.566 1.195c.011.008.023.016.035.027 0-.007.004-.015.008-.027-.016.004-.032 0-.043 0zm.343-.363a.13.13 0 00.047-.055v-.004a.12.12 0 01-.047.059zm0 0"/></g></g></g></g><g clip-path="url(#prefix__av)"><g clip-path="url(#prefix__aw)"><g clip-path="url(#prefix__ax)"><g clip-path="url(#prefix__ay)"><path fill="#fff" d="M158.762 251.96c-.051.028-.106.06-.157.09.032-.073.083-.1.157-.09zm0 0"/></g></g></g></g><path transform="matrix(.74987 .00605 -.00605 .74998 136.49 77.868)" fill="none" d="M-.002 1.999L223.036 2" stroke="#000" stroke-width="4"/><path transform="matrix(.75062 -.00364 .00364 .75 135.126 291.168)" fill="none" d="M0 2l224.814.002" stroke="#000" stroke-width="4"/><g clip-path="url(#prefix__az)"><path fill="#38b6ff" d="M266.715 306.992l8.492-9.492a.946.946 0 01.703-.316h5.664a.95.95 0 01.863.562.956.956 0 01-.164 1.02l-7.921 8.863 7.921 8.855a.95.95 0 01-.7 1.586h-5.663a.971.971 0 01-.703-.312l-8.492-9.496a.959.959 0 010-1.27zm0 0"/></g><g clip-path="url(#prefix__aA)"><path fill="#38b6ff" d="M278.984 306.992l8.493-9.492a.94.94 0 01.703-.316h5.66a.947.947 0 01.703 1.582l-7.926 8.863 7.926 8.855c.25.282.312.68.16 1.024a.94.94 0 01-.863.562h-5.66a.965.965 0 01-.703-.312l-8.493-9.496a.95.95 0 010-1.27zm0 0"/></g><g clip-path="url(#prefix__aB)"><path fill="#38b6ff" d="M229.59 306.992l8.492-9.492a.946.946 0 01.703-.316h5.664a.95.95 0 01.863.562.956.956 0 01-.164 1.02l-7.921 8.863 7.921 8.855c.25.282.317.68.165 1.024a.95.95 0 01-.864.562h-5.664a.971.971 0 01-.703-.312l-8.492-9.496a.959.959 0 010-1.27zm0 0"/></g><g clip-path="url(#prefix__aC)"><path fill="#38b6ff" d="M241.86 306.992l8.492-9.492a.94.94 0 01.703-.316h5.66a.947.947 0 01.703 1.582l-7.926 8.863 7.926 8.855c.25.282.312.68.16 1.024a.94.94 0 01-.863.562h-5.66a.965.965 0 01-.703-.312l-8.493-9.496a.95.95 0 010-1.27zm0 0"/></g><g clip-path="url(#prefix__aD)"><path fill="#38b6ff" d="M192.465 306.992l8.492-9.492a.946.946 0 01.703-.316h5.664a.95.95 0 01.863.562.956.956 0 01-.164 1.02l-7.921 8.863 7.921 8.855c.25.282.317.68.165 1.024a.95.95 0 01-.864.562h-5.664a.971.971 0 01-.703-.312l-8.492-9.496a.959.959 0 010-1.27zm0 0"/></g><g clip-path="url(#prefix__aE)"><path fill="#38b6ff" d="M204.734 306.992l8.493-9.492a.94.94 0 01.703-.316h5.66a.947.947 0 01.703 1.582l-7.926 8.863 7.926 8.855c.25.282.312.68.16 1.024a.94.94 0 01-.863.562h-5.66a.965.965 0 01-.703-.312l-8.493-9.496a.95.95 0 010-1.27zm0 0"/></g><g clip-path="url(#prefix__aF)"><path fill="#5ce1e6" d="M155.34 306.992l8.492-9.492a.946.946 0 01.703-.316h5.664a.95.95 0 01.863.562.956.956 0 01-.164 1.02l-7.921 8.863 7.921 8.855c.25.282.317.68.165 1.024a.95.95 0 01-.864.562h-5.664a.971.971 0 01-.703-.312l-8.492-9.496a.959.959 0 010-1.27zm0 0"/></g><g clip-path="url(#prefix__aG)"><path fill="#5ce1e6" d="M167.61 306.992l8.492-9.492a.94.94 0 01.703-.316h5.66a.947.947 0 01.703 1.582l-7.926 8.863 7.926 8.855c.25.282.312.68.16 1.024a.94.94 0 01-.863.562h-5.66a.965.965 0 01-.703-.312l-8.493-9.496a.95.95 0 010-1.27zm0 0"/></g><g clip-path="url(#prefix__aH)"><g clip-path="url(#prefix__aI)"><g clip-path="url(#prefix__aJ)"><path fill="#38b6ff" d="M118.21 307.242l8.325-9.644a.936.936 0 01.695-.328l5.66-.098a.952.952 0 01.876.543.958.958 0 01-.145 1.027l-7.766 8.996 8.079 8.719a.95.95 0 01-.672 1.598l-5.664.097a.946.946 0 01-.707-.3l-8.66-9.34a.955.955 0 01-.02-1.27zm0 0"/></g></g></g><g clip-path="url(#prefix__aK)"><g clip-path="url(#prefix__aL)"><g clip-path="url(#prefix__aM)"><path fill="#38b6ff" d="M130.477 307.023l8.324-9.64a.929.929 0 01.695-.328l5.66-.102a.945.945 0 01.875.547.952.952 0 01-.144 1.023l-7.766 9 8.082 8.715a.951.951 0 01.176 1.02.935.935 0 01-.852.578l-5.66.101a.948.948 0 01-.707-.3l-8.66-9.344a.95.95 0 01-.023-1.27zm0 0"/></g></g></g><g clip-path="url(#prefix__aN)"><g clip-path="url(#prefix__aO)"><g clip-path="url(#prefix__aP)"><path fill="#38b6ff" d="M75.855 286.086l12.274-3.406a.935.935 0 01.762.117l4.765 3.055a.948.948 0 01-.265 1.71l-11.454 3.18 1.891 11.735a.96.96 0 01-.418.949.949.949 0 01-1.031.008l-4.766-3.059a.954.954 0 01-.422-.64l-2.023-12.579a.954.954 0 01.687-1.07zm0 0"/></g></g></g><g clip-path="url(#prefix__aQ)"><g clip-path="url(#prefix__aR)"><g clip-path="url(#prefix__aS)"><path fill="#38b6ff" d="M86.18 292.71l12.277-3.405a.94.94 0 01.758.113l4.77 3.059c.312.199.476.566.421.937a.954.954 0 01-.687.774l-11.453 3.18 1.886 11.734a.951.951 0 01-1.445.957L87.941 307a.94.94 0 01-.421-.645l-2.024-12.574a.952.952 0 01.684-1.07zm0 0"/></g></g></g><g clip-path="url(#prefix__aT)"><g clip-path="url(#prefix__aU)"><g clip-path="url(#prefix__aV)"><path fill="#38b6ff" d="M41.281 262.91l12.703-.945c.27-.02.532.074.723.258l4.078 3.93a.94.94 0 01.23 1.003.943.943 0 01-.824.621l-11.851.887-.438 11.875a.955.955 0 01-.593.848.94.94 0 01-1.012-.192l-4.078-3.925a.96.96 0 01-.29-.715l.47-12.73a.954.954 0 01.882-.915zm0 0"/></g></g></g><g clip-path="url(#prefix__aW)"><g clip-path="url(#prefix__aX)"><g clip-path="url(#prefix__aY)"><path fill="#38b6ff" d="M50.117 271.422l12.703-.95c.27-.019.532.075.723.262l4.078 3.926a.95.95 0 01.234 1.004.962.962 0 01-.824.625l-11.855.883-.438 11.879a.948.948 0 01-.593.847.947.947 0 01-1.012-.191l-4.078-3.93a.967.967 0 01-.29-.71l.47-12.731a.954.954 0 01.882-.914zm0 0"/></g></g></g><g clip-path="url(#prefix__aZ)"><g clip-path="url(#prefix__ba)"><g clip-path="url(#prefix__bb)"><path fill="#5ce1e6" d="M22.734 226.063l12.477 2.57a.947.947 0 01.625.449l2.844 4.895a.95.95 0 01-1.016 1.402l-11.64-2.399-3.676 11.305a.953.953 0 01-.805.653.94.94 0 01-.918-.465l-2.848-4.895a.97.97 0 01-.082-.766l3.942-12.113a.948.948 0 011.097-.637zm0 0"/></g></g></g><g clip-path="url(#prefix__bc)"><g clip-path="url(#prefix__bd)"><g clip-path="url(#prefix__be)"><path fill="#5ce1e6" d="M28.898 236.668l12.477 2.57a.95.95 0 01.625.45l2.848 4.894a.95.95 0 01-1.016 1.402l-11.645-2.398-3.675 11.305a.953.953 0 01-1.723.191l-2.848-4.898a.962.962 0 01-.082-.762l3.942-12.117a.956.956 0 011.097-.637zm0 0"/></g></g></g><g clip-path="url(#prefix__bf)"><path fill="#38b6ff" d="M20.016 172.027l9.492 8.493c.203.18.316.433.316.703v5.66a.94.94 0 01-.562.863.946.946 0 01-1.02-.16l-8.863-7.926-8.856 7.926a.955.955 0 01-1.023.16.94.94 0 01-.563-.863v-5.66c0-.27.114-.524.313-.703l9.496-8.493a.95.95 0 011.27 0zm0 0"/></g><g clip-path="url(#prefix__bg)"><path fill="#38b6ff" d="M20.016 184.293l9.492 8.496c.203.18.316.434.316.7v5.663c0 .371-.219.711-.562.864a.953.953 0 01-1.02-.16l-8.863-7.926-8.856 7.925a.955.955 0 01-1.023.16.945.945 0 01-.563-.863v-5.664c0-.265.114-.52.313-.699l9.496-8.496c.36-.32.91-.32 1.27 0zm0 0"/></g><g clip-path="url(#prefix__bh)"><g clip-path="url(#prefix__bi)"><g clip-path="url(#prefix__bj)"><path fill="#38b6ff" d="M38.219 122.102l2.965 12.39a.936.936 0 01-.141.754l-3.227 4.656a.948.948 0 01-1.7-.324l-2.768-11.562-11.793 1.468a.955.955 0 01-.934-.449.949.949 0 01.027-1.031l3.227-4.652a.946.946 0 01.656-.399l12.645-1.574a.956.956 0 011.043.723zm0 0"/></g></g></g><g clip-path="url(#prefix__bk)"><g clip-path="url(#prefix__bl)"><g clip-path="url(#prefix__bm)"><path fill="#38b6ff" d="M31.23 132.188l2.965 12.386a.945.945 0 01-.14.758l-3.227 4.652a.951.951 0 01-.953.391.958.958 0 01-.746-.715l-2.77-11.558-11.793 1.464a.955.955 0 01-.933-.449.942.942 0 01.031-1.031l3.223-4.652a.96.96 0 01.66-.399l12.64-1.574a.953.953 0 011.043.726zm0 0"/></g></g></g><g clip-path="url(#prefix__bn)"><g clip-path="url(#prefix__bo)"><g clip-path="url(#prefix__bp)"><path fill="#38b6ff" d="M65.816 90.094l.098 12.738a.937.937 0 01-.305.703l-4.191 3.809a.943.943 0 01-1.016.164.959.959 0 01-.57-.863l-.09-11.887-11.824-1.227a.954.954 0 01-.805-.648.946.946 0 01.258-.996l4.191-3.809c.2-.18.465-.266.731-.242l12.672 1.316c.48.051.851.457.851.942zm0 0"/></g></g></g><g clip-path="url(#prefix__bq)"><g clip-path="url(#prefix__br)"><g clip-path="url(#prefix__bs)"><path fill="#38b6ff" d="M56.738 98.344l.098 12.738a.94.94 0 01-.309.703l-4.191 3.809a.948.948 0 01-1.582-.7l-.094-11.886-11.82-1.227a.954.954 0 01-.809-.648.947.947 0 01.262-1l4.187-3.805c.2-.18.465-.266.73-.242l12.673 1.316c.48.051.851.457.855.942zm0 0"/></g></g></g><g clip-path="url(#prefix__bt)"><g clip-path="url(#prefix__bu)"><g clip-path="url(#prefix__bv)"><path fill="#5ce1e6" d="M100.488 72.246l-3.433 12.266a.948.948 0 01-.493.593l-5.082 2.497a.95.95 0 01-1.023-.122.958.958 0 01-.305-.988l3.203-11.449-11.02-4.453a.943.943 0 01-.593-.844.942.942 0 01.524-.887l5.082-2.5a.96.96 0 01.77-.027l11.808 4.773c.449.18.691.676.562 1.141zm0 0"/></g></g></g><g clip-path="url(#prefix__bw)"><g clip-path="url(#prefix__bx)"><g clip-path="url(#prefix__by)"><path fill="#5ce1e6" d="M89.477 77.656l-3.434 12.27a.94.94 0 01-.492.59l-5.078 2.5a.95.95 0 01-1.332-1.114l3.207-11.445-11.024-4.453a.961.961 0 01-.594-.848.949.949 0 01.528-.886l5.082-2.497a.966.966 0 01.765-.03l11.813 4.773c.45.183.691.675.559 1.14zm0 0"/></g></g></g><g clip-path="url(#prefix__bz)"><path fill="#38b6ff" d="M146.195 68.148l-8.492 9.493a.946.946 0 01-.703.316h-5.664a.95.95 0 01-.863-.562.956.956 0 01.164-1.02l7.922-8.86-7.922-8.859a.95.95 0 01.7-1.586h5.663c.266 0 .52.117.703.313l8.492 9.496c.32.36.32.91 0 1.27zm0 0"/></g><g clip-path="url(#prefix__bA)"><path fill="#38b6ff" d="M133.926 68.148l-8.492 9.493a.94.94 0 01-.704.316h-5.66a.947.947 0 01-.703-1.582l7.926-8.86-7.926-8.859a.955.955 0 01-.16-1.023.94.94 0 01.863-.563h5.66c.27 0 .52.117.704.313l8.492 9.496a.95.95 0 010 1.27zm0 0"/></g><g clip-path="url(#prefix__bB)"><g clip-path="url(#prefix__bC)"><g clip-path="url(#prefix__bD)"><path fill="#38b6ff" d="M182.719 68.148l-8.778 9.235a.927.927 0 01-.71.293l-5.66-.168a.948.948 0 01-.844-.59.953.953 0 01.191-1.016l8.187-8.617-7.652-9.094a.951.951 0 01-.133-1.023.945.945 0 01.88-.54l5.66.173c.269.008.519.129.695.332l8.203 9.746a.96.96 0 01-.04 1.27zm0 0"/></g></g></g><g clip-path="url(#prefix__bE)"><g clip-path="url(#prefix__bF)"><g clip-path="url(#prefix__bG)"><path fill="#38b6ff" d="M170.457 67.781l-8.777 9.235a.94.94 0 01-.711.293l-5.66-.172a.946.946 0 01-.653-1.602l8.188-8.617-7.656-9.094a.948.948 0 01.75-1.563l5.66.169a.95.95 0 01.691.336l8.203 9.746a.955.955 0 01-.035 1.27zm0 0"/></g></g></g><g clip-path="url(#prefix__bH)"><g clip-path="url(#prefix__bI)"><g clip-path="url(#prefix__bJ)"><path fill="#38b6ff" d="M294.371 68.148l-8.777 9.235a.927.927 0 01-.711.293l-5.66-.168a.948.948 0 01-.844-.59.953.953 0 01.191-1.016l8.188-8.617-7.653-9.094a.951.951 0 01-.132-1.023.945.945 0 01.879-.54l5.66.173c.27.008.52.129.695.332l8.203 9.746a.96.96 0 01-.039 1.27zm0 0"/></g></g></g><g clip-path="url(#prefix__bK)"><g clip-path="url(#prefix__bL)"><g clip-path="url(#prefix__bM)"><path fill="#38b6ff" d="M282.11 67.781l-8.778 9.235a.94.94 0 01-.71.293l-5.661-.172a.946.946 0 01-.652-1.602l8.187-8.617-7.656-9.094a.948.948 0 01.75-1.563l5.66.169a.95.95 0 01.691.336l8.204 9.746a.955.955 0 01-.036 1.27zm0 0"/></g></g></g><g clip-path="url(#prefix__bN)"><g clip-path="url(#prefix__bO)"><g clip-path="url(#prefix__bP)"><path fill="#5ce1e6" d="M257.246 68.148l-8.777 9.235a.927.927 0 01-.711.293l-5.66-.168a.948.948 0 01-.844-.59.953.953 0 01.191-1.016l8.188-8.617-7.653-9.094a.951.951 0 01-.132-1.023.945.945 0 01.879-.54l5.66.173c.27.008.52.129.695.332l8.203 9.746a.96.96 0 01-.039 1.27zm0 0"/></g></g></g><g clip-path="url(#prefix__bQ)"><g clip-path="url(#prefix__bR)"><g clip-path="url(#prefix__bS)"><path fill="#5ce1e6" d="M244.984 67.781l-8.777 9.235a.94.94 0 01-.71.293l-5.661-.172a.946.946 0 01-.652-1.602l8.187-8.617-7.656-9.094a.948.948 0 01.75-1.563l5.66.169a.95.95 0 01.691.336l8.204 9.746a.955.955 0 01-.036 1.27zm0 0"/></g></g></g><g clip-path="url(#prefix__bT)"><g clip-path="url(#prefix__bU)"><g clip-path="url(#prefix__bV)"><path fill="#38b6ff" d="M220.73 68.148l-8.777 9.235a.927.927 0 01-.71.293l-5.661-.168a.944.944 0 01-.844-.59.953.953 0 01.192-1.016l8.187-8.617-7.656-9.094a.95.95 0 01.75-1.562l5.66.172c.27.008.516.129.691.332l8.204 9.746a.955.955 0 01-.036 1.27zm0 0"/></g></g></g><g clip-path="url(#prefix__bW)"><g clip-path="url(#prefix__bX)"><g clip-path="url(#prefix__bY)"><path fill="#38b6ff" d="M208.465 67.781l-8.774 9.235a.947.947 0 01-.71.293l-5.66-.172a.946.946 0 01-.844-.586.96.96 0 01.187-1.016l8.191-8.617-7.656-9.094a.949.949 0 01.75-1.562l5.66.168a.957.957 0 01.692.336l8.203 9.746a.95.95 0 01-.04 1.27zm0 0"/></g></g></g></svg>