<svg xmlns="http://www.w3.org/2000/svg" xmlns:xlink="http://www.w3.org/1999/xlink" width="450" zoomAndPan="magnify" viewBox="0 0 337.5 374.999991" height="500" preserveAspectRatio="xMidYMid meet" version="1.0"><defs><clipPath id="21b578b125"><path d="M 0 52.777344 L 303.75 52.777344 L 303.75 323 L 0 323 Z M 0 52.777344 " clip-rule="nonzero"/></clipPath><clipPath id="cf3d6f6ca5"><path d="M 7.917969 142.824219 C 3.136719 156.667969 0 172.40625 0 187.851562 C 0 203.296875 2.6875 218.15625 7.46875 231.855469 C 7.621094 232.144531 7.621094 232.4375 7.769531 232.730469 C 26.890625 284.164062 77.390625 322.050781 135.65625 322.777344 L 303.75 322.777344 L 303.75 52.777344 L 135.78125 52.777344 C 77.09375 53.507812 26.59375 90.808594 7.917969 142.824219 " clip-rule="nonzero"/></clipPath><clipPath id="83326ca1b6"><path d="M 0 52.777344 L 303.75 52.777344 L 303.75 322.777344 L 0 322.777344 Z M 0 52.777344 " clip-rule="nonzero"/></clipPath><clipPath id="3aeefa71da"><path d="M 7.917969 142.824219 C 3.136719 156.667969 0 172.40625 0 187.851562 C 0 203.296875 2.6875 218.15625 7.46875 231.855469 C 7.621094 232.144531 7.621094 232.4375 7.769531 232.730469 C 26.890625 284.164062 77.390625 322.050781 135.65625 322.777344 L 303.75 322.777344 L 303.75 52.777344 L 135.78125 52.777344 C 77.09375 53.507812 26.59375 90.808594 7.917969 142.824219 " clip-rule="nonzero"/></clipPath><clipPath id="d519c5422a"><path d="M 33 78 L 250 78 L 250 295 L 33 295 Z M 33 78 " clip-rule="nonzero"/></clipPath><clipPath id="60e4943281"><path d="M 36.070312 75.746094 L 252.3125 80.347656 L 247.710938 296.585938 L 31.46875 291.984375 Z M 36.070312 75.746094 " clip-rule="nonzero"/></clipPath><clipPath id="369fea74f8"><path d="M 144.046875 78.042969 C 84.414062 76.773438 35.042969 124.085938 33.773438 183.71875 C 32.503906 243.355469 79.820312 292.726562 139.453125 293.992188 C 199.085938 295.261719 248.457031 247.949219 249.726562 188.316406 C 250.996094 128.683594 203.679688 79.3125 144.046875 78.042969 " clip-rule="nonzero"/></clipPath><clipPath id="68e8d619a9"><path d="M 33 78 L 250 78 L 250 295 L 33 295 Z M 33 78 " clip-rule="nonzero"/></clipPath><clipPath id="716152a2e3"><path d="M 36.070312 75.746094 L 252.023438 80.339844 L 247.429688 296.292969 L 31.476562 291.695312 Z M 36.070312 75.746094 " clip-rule="nonzero"/></clipPath><clipPath id="253fddeb0b"><path d="M 36.070312 75.746094 L 255.078125 80.40625 L 250.417969 299.410156 L 31.410156 294.75 Z M 36.070312 75.746094 " clip-rule="nonzero"/></clipPath><clipPath id="60d9fa8e7d"><path d="M 144.046875 78.042969 C 84.414062 76.773438 35.042969 124.085938 33.773438 183.71875 C 32.503906 243.355469 79.820312 292.726562 139.453125 293.992188 C 199.085938 295.261719 248.457031 247.949219 249.726562 188.316406 C 250.996094 128.683594 203.679688 79.3125 144.046875 78.042969 " clip-rule="nonzero"/></clipPath><clipPath id="a4cc11d0d0"><path d="M 131 119 L 149 119 L 149 151 L 131 151 Z M 131 119 " clip-rule="nonzero"/></clipPath><clipPath id="609b24281e"><path d="M 131.117188 119.074219 L 149.28125 119.003906 L 149.40625 150.925781 L 131.242188 150.996094 Z M 131.117188 119.074219 " clip-rule="nonzero"/></clipPath><clipPath id="02a199f7c6"><path d="M 131.117188 119.074219 L 148.882812 119.003906 L 149.007812 150.730469 L 131.242188 150.800781 Z M 131.117188 119.074219 " clip-rule="nonzero"/></clipPath><clipPath id="6c5ee59c78"><path d="M 164 192 L 201 192 L 201 224 L 164 224 Z M 164 192 " clip-rule="nonzero"/></clipPath><clipPath id="3e79d51674"><path d="M 164.089844 207.785156 L 173.28125 192.117188 L 200.816406 208.277344 L 191.621094 223.941406 Z M 164.089844 207.785156 " clip-rule="nonzero"/></clipPath><clipPath id="703e315fc3"><path d="M 164.089844 207.785156 L 173.082031 192.460938 L 200.445312 208.519531 L 191.453125 223.84375 Z M 164.089844 207.785156 " clip-rule="nonzero"/></clipPath><clipPath id="f9c81e4535"><path d="M 97 134 L 183 134 L 183 209 L 97 209 Z M 97 134 " clip-rule="nonzero"/></clipPath><clipPath id="1841e89967"><path d="M 118.78125 244.738281 L 76.234375 170.921875 L 140.335938 133.972656 L 182.882812 207.789062 Z M 118.78125 244.738281 " clip-rule="nonzero"/></clipPath><clipPath id="6765811439"><path d="M 97.671875 208.113281 L 140.042969 134.898438 L 182.265625 208.144531 L 97.671875 208.113281 " clip-rule="nonzero"/></clipPath><clipPath id="d1f960a7dc"><path d="M 86 188 L 123 188 L 123 220 L 86 220 Z M 86 188 " clip-rule="nonzero"/></clipPath><clipPath id="7e690b6fde"><path d="M 95.269531 219.753906 L 86.199219 204.019531 L 113.859375 188.074219 L 122.929688 203.8125 Z M 95.269531 219.753906 " clip-rule="nonzero"/></clipPath><clipPath id="38a4c01bf9"><path d="M 95.269531 219.753906 L 86.398438 204.363281 L 113.886719 188.519531 L 122.757812 203.910156 Z M 95.269531 219.753906 " clip-rule="nonzero"/></clipPath><clipPath id="96f705ef39"><path d="M 45 194 L 101 194 L 101 251 L 45 251 Z M 45 194 " clip-rule="nonzero"/></clipPath><clipPath id="a1db543c2c"><path d="M 110.761719 233.398438 L 61.945312 260.058594 L 35.285156 211.242188 L 84.101562 184.582031 Z M 110.761719 233.398438 " clip-rule="nonzero"/></clipPath><clipPath id="893720ab61"><path d="M 86.355469 246.730469 C 99.835938 239.367188 104.792969 222.472656 97.433594 208.992188 C 90.070312 195.511719 73.175781 190.550781 59.695312 197.914062 C 46.214844 205.273438 41.253906 222.171875 48.617188 235.652344 C 55.976562 249.132812 72.875 254.09375 86.355469 246.730469 " clip-rule="nonzero"/></clipPath><clipPath id="9314b52cfd"><path d="M 45 194 L 101 194 L 101 251 L 45 251 Z M 45 194 " clip-rule="nonzero"/></clipPath><clipPath id="c6bd2e2f42"><path d="M 110.761719 233.398438 L 62.054688 260 L 35.453125 211.292969 L 84.160156 184.691406 Z M 110.761719 233.398438 " clip-rule="nonzero"/></clipPath><clipPath id="76da7f4630"><path d="M 110.761719 233.398438 L 62.054688 260 L 35.453125 211.292969 L 84.160156 184.691406 Z M 110.761719 233.398438 " clip-rule="nonzero"/></clipPath><clipPath id="f0c7501a71"><path d="M 86.40625 246.699219 C 99.859375 239.355469 104.808594 222.496094 97.460938 209.046875 C 90.117188 195.59375 73.257812 190.644531 59.804688 197.992188 C 46.355469 205.335938 41.40625 222.195312 48.753906 235.648438 C 56.097656 249.097656 72.957031 254.046875 86.40625 246.699219 " clip-rule="nonzero"/></clipPath><clipPath id="c3caa78bbc"><path d="M 180 195 L 237 195 L 237 251 L 180 251 Z M 180 195 " clip-rule="nonzero"/></clipPath><clipPath id="0946510cf1"><path d="M 218.351562 261.167969 L 170.210938 233.304688 L 198.074219 185.167969 L 246.214844 213.03125 Z M 218.351562 261.167969 " clip-rule="nonzero"/></clipPath><clipPath id="47ec12fa02"><path d="M 194.28125 247.238281 C 207.574219 254.933594 224.589844 250.394531 232.285156 237.101562 C 239.976562 223.804688 235.4375 206.792969 222.144531 199.097656 C 208.851562 191.402344 191.839844 195.941406 184.144531 209.234375 C 176.449219 222.53125 180.988281 239.542969 194.28125 247.238281 " clip-rule="nonzero"/></clipPath><clipPath id="00533142ec"><path d="M 180 195 L 236 195 L 236 252 L 180 252 Z M 180 195 " clip-rule="nonzero"/></clipPath><clipPath id="ee7571e762"><path d="M 218.351562 261.167969 L 170.316406 233.367188 L 198.121094 185.332031 L 246.15625 213.136719 Z M 218.351562 261.167969 " clip-rule="nonzero"/></clipPath><clipPath id="833f60e510"><path d="M 218.351562 261.167969 L 170.316406 233.367188 L 198.121094 185.332031 L 246.15625 213.136719 Z M 218.351562 261.167969 " clip-rule="nonzero"/></clipPath><clipPath id="bf94b73e2d"><path d="M 194.335938 247.269531 C 207.597656 254.945312 224.574219 250.417969 232.253906 237.152344 C 239.929688 223.886719 235.402344 206.910156 222.136719 199.234375 C 208.875 191.558594 191.898438 196.085938 184.21875 209.351562 C 176.542969 222.613281 181.070312 239.589844 194.335938 247.269531 " clip-rule="nonzero"/></clipPath><clipPath id="a9b4245311"><path d="M 112 81 L 169 81 L 169 137 L 112 137 Z M 112 81 " clip-rule="nonzero"/></clipPath><clipPath id="b785fc0e20"><path d="M 177.980469 120.140625 L 129.164062 146.800781 L 102.503906 97.984375 L 151.320312 71.324219 Z M 177.980469 120.140625 " clip-rule="nonzero"/></clipPath><clipPath id="3e4e021bf3"><path d="M 153.570312 133.472656 C 167.050781 126.109375 172.011719 109.214844 164.648438 95.734375 C 157.289062 82.253906 140.390625 77.292969 126.910156 84.65625 C 113.429688 92.015625 108.472656 108.914062 115.832031 122.394531 C 123.195312 135.875 140.089844 140.832031 153.570312 133.472656 " clip-rule="nonzero"/></clipPath><clipPath id="d08c5c21c7"><path d="M 112 81 L 169 81 L 169 137 L 112 137 Z M 112 81 " clip-rule="nonzero"/></clipPath><clipPath id="606b3f37e9"><path d="M 177.980469 120.140625 L 129.269531 146.742188 L 102.667969 98.035156 L 151.378906 71.433594 Z M 177.980469 120.140625 " clip-rule="nonzero"/></clipPath><clipPath id="aecf33626f"><path d="M 177.980469 120.140625 L 129.269531 146.742188 L 102.667969 98.035156 L 151.378906 71.433594 Z M 177.980469 120.140625 " clip-rule="nonzero"/></clipPath><clipPath id="37c4a3be15"><path d="M 153.625 133.441406 C 167.074219 126.097656 172.023438 109.238281 164.679688 95.785156 C 157.332031 82.335938 140.472656 77.386719 127.023438 84.734375 C 113.574219 92.078125 108.625 108.9375 115.96875 122.386719 C 123.316406 135.839844 140.175781 140.789062 153.625 133.441406 " clip-rule="nonzero"/></clipPath><clipPath id="8495ee317d"><path d="M 66 215 L 81 215 L 81 230 L 66 230 Z M 66 215 " clip-rule="nonzero"/></clipPath><clipPath id="d35f3467cf"><path d="M 70.46875 231.855469 L 63.496094 219.761719 L 75.589844 212.789062 L 82.5625 224.882812 Z M 70.46875 231.855469 " clip-rule="nonzero"/></clipPath><clipPath id="922c826c4a"><path d="M 66.980469 225.808594 C 68.90625 229.148438 73.175781 230.292969 76.515625 228.371094 C 79.855469 226.445312 81 222.175781 79.078125 218.835938 C 77.152344 215.496094 72.882812 214.351562 69.542969 216.273438 C 66.203125 218.199219 65.058594 222.46875 66.980469 225.808594 " clip-rule="nonzero"/></clipPath><clipPath id="5e4d508e0d"><path d="M 201 216 L 216 216 L 216 231 L 201 231 Z M 201 216 " clip-rule="nonzero"/></clipPath><clipPath id="847b5da1ba"><path d="M 198.679688 225.714844 L 205.671875 213.636719 L 217.753906 220.628906 L 210.761719 232.710938 Z M 198.679688 225.714844 " clip-rule="nonzero"/></clipPath><clipPath id="136959dace"><path d="M 202.175781 219.675781 C 200.246094 223.011719 201.386719 227.28125 204.722656 229.214844 C 208.058594 231.144531 212.328125 230.003906 214.257812 226.667969 C 216.191406 223.332031 215.050781 219.0625 211.714844 217.132812 C 208.378906 215.199219 204.109375 216.339844 202.175781 219.675781 " clip-rule="nonzero"/></clipPath><clipPath id="96aa2a9a2d"><path d="M 132 102 L 147 102 L 147 117 L 132 117 Z M 132 102 " clip-rule="nonzero"/></clipPath><clipPath id="ccbf174dd0"><path d="M 136.644531 118.617188 L 129.675781 106.523438 L 141.769531 99.550781 L 148.742188 111.644531 Z M 136.644531 118.617188 " clip-rule="nonzero"/></clipPath><clipPath id="1091f78d99"><path d="M 133.160156 112.570312 C 135.085938 115.910156 139.355469 117.054688 142.695312 115.132812 C 146.03125 113.207031 147.179688 108.9375 145.253906 105.597656 C 143.328125 102.257812 139.0625 101.113281 135.722656 103.035156 C 132.382812 104.960938 131.234375 109.230469 133.160156 112.570312 " clip-rule="nonzero"/></clipPath><clipPath id="7889978324"><path d="M 76 130 L 98 130 L 98 175 L 76 175 Z M 76 130 " clip-rule="nonzero"/></clipPath><clipPath id="79384bcb59"><path d="M 100.875 132.539062 L 80.917969 175.367188 L 68.683594 169.664062 L 88.636719 126.835938 Z M 100.875 132.539062 " clip-rule="nonzero"/></clipPath><clipPath id="441261142a"><path d="M 80.839844 175.535156 L 100.792969 132.707031 L 88.558594 127.007812 L 68.601562 169.835938 Z M 80.839844 175.535156 " clip-rule="nonzero"/></clipPath><clipPath id="cd34d7ffa1"><path d="M 80.839844 175.535156 L 100.792969 132.707031 L 88.558594 127.007812 L 68.601562 169.835938 Z M 80.839844 175.535156 " clip-rule="nonzero"/></clipPath><clipPath id="d0109c2967"><path d="M 78 166 L 79 166 L 79 167 L 78 167 Z M 78 166 " clip-rule="nonzero"/></clipPath><clipPath id="d718824911"><path d="M 100.875 132.539062 L 80.917969 175.367188 L 68.683594 169.664062 L 88.636719 126.835938 Z M 100.875 132.539062 " clip-rule="nonzero"/></clipPath><clipPath id="e8bc04f877"><path d="M 80.839844 175.535156 L 100.792969 132.707031 L 88.558594 127.007812 L 68.601562 169.835938 Z M 80.839844 175.535156 " clip-rule="nonzero"/></clipPath><clipPath id="d9a9233677"><path d="M 80.839844 175.535156 L 100.792969 132.707031 L 88.558594 127.007812 L 68.601562 169.835938 Z M 80.839844 175.535156 " clip-rule="nonzero"/></clipPath><clipPath id="2b8e0f55d3"><path d="M 181 132 L 212 132 L 212 171 L 181 171 Z M 181 132 " clip-rule="nonzero"/></clipPath><clipPath id="1644307bfc"><path d="M 204.085938 173.773438 L 180.550781 132.804688 L 192.257812 126.078125 L 215.792969 167.050781 Z M 204.085938 173.773438 " clip-rule="nonzero"/></clipPath><clipPath id="f74d224782"><path d="M 180.457031 132.640625 L 203.992188 173.613281 L 215.699219 166.886719 L 192.164062 125.917969 Z M 180.457031 132.640625 " clip-rule="nonzero"/></clipPath><clipPath id="27aa8641a2"><path d="M 180.457031 132.640625 L 203.992188 173.613281 L 215.699219 166.886719 L 192.164062 125.917969 Z M 180.457031 132.640625 " clip-rule="nonzero"/></clipPath><clipPath id="b2c9779285"><path d="M 189 135 L 190 135 L 190 136 L 189 136 Z M 189 135 " clip-rule="nonzero"/></clipPath><clipPath id="05589d0fcc"><path d="M 204.085938 173.773438 L 180.550781 132.804688 L 192.257812 126.078125 L 215.792969 167.050781 Z M 204.085938 173.773438 " clip-rule="nonzero"/></clipPath><clipPath id="862116c9e7"><path d="M 180.457031 132.640625 L 203.992188 173.613281 L 215.699219 166.886719 L 192.164062 125.917969 Z M 180.457031 132.640625 " clip-rule="nonzero"/></clipPath><clipPath id="ea9fcb0db8"><path d="M 180.457031 132.640625 L 203.992188 173.613281 L 215.699219 166.886719 L 192.164062 125.917969 Z M 180.457031 132.640625 " clip-rule="nonzero"/></clipPath><clipPath id="eaab58e5af"><path d="M 119 244 L 167 244 L 167 258 L 119 258 Z M 119 244 " clip-rule="nonzero"/></clipPath><clipPath id="8f48959208"><path d="M 119.183594 242.429688 L 166.261719 246.445312 L 165.113281 259.894531 L 118.035156 255.882812 Z M 119.183594 242.429688 " clip-rule="nonzero"/></clipPath><clipPath id="b54fecf876"><path d="M 166.449219 246.460938 L 119.367188 242.445312 L 118.222656 255.898438 L 165.300781 259.910156 Z M 166.449219 246.460938 " clip-rule="nonzero"/></clipPath><clipPath id="a25c881c31"><path d="M 166.449219 246.460938 L 119.367188 242.445312 L 118.222656 255.898438 L 165.300781 259.910156 Z M 166.449219 246.460938 " clip-rule="nonzero"/></clipPath><clipPath id="766de02fb8"><path d="M 158 251 L 159 251 L 159 253 L 158 253 Z M 158 251 " clip-rule="nonzero"/></clipPath><clipPath id="02e7752484"><path d="M 119.183594 242.429688 L 166.261719 246.445312 L 165.113281 259.894531 L 118.035156 255.882812 Z M 119.183594 242.429688 " clip-rule="nonzero"/></clipPath><clipPath id="ab0bcb8a54"><path d="M 166.449219 246.460938 L 119.367188 242.445312 L 118.222656 255.898438 L 165.300781 259.910156 Z M 166.449219 246.460938 " clip-rule="nonzero"/></clipPath><clipPath id="853fd1edcb"><path d="M 166.449219 246.460938 L 119.367188 242.445312 L 118.222656 255.898438 L 165.300781 259.910156 Z M 166.449219 246.460938 " clip-rule="nonzero"/></clipPath><clipPath id="21453fd8a3"><path d="M 266.625 297.128906 L 283 297.128906 L 283 318.128906 L 266.625 318.128906 Z M 266.625 297.128906 " clip-rule="nonzero"/></clipPath><clipPath id="0e509abadd"><path d="M 278 297.128906 L 294.785156 297.128906 L 294.785156 318.128906 L 278 318.128906 Z M 278 297.128906 " clip-rule="nonzero"/></clipPath><clipPath id="753c084ee2"><path d="M 229.5 297.128906 L 246 297.128906 L 246 318.128906 L 229.5 318.128906 Z M 229.5 297.128906 " clip-rule="nonzero"/></clipPath><clipPath id="8ce18ddd4f"><path d="M 241 297.128906 L 257.660156 297.128906 L 257.660156 318.128906 L 241 318.128906 Z M 241 297.128906 " clip-rule="nonzero"/></clipPath><clipPath id="d339bace70"><path d="M 192.375 297.128906 L 209 297.128906 L 209 318.128906 L 192.375 318.128906 Z M 192.375 297.128906 " clip-rule="nonzero"/></clipPath><clipPath id="d1f36086d0"><path d="M 204 297.128906 L 220.535156 297.128906 L 220.535156 318.128906 L 204 318.128906 Z M 204 297.128906 " clip-rule="nonzero"/></clipPath><clipPath id="4bcccd9c32"><path d="M 155.25 297.128906 L 172 297.128906 L 172 318.128906 L 155.25 318.128906 Z M 155.25 297.128906 " clip-rule="nonzero"/></clipPath><clipPath id="4c5857d1d2"><path d="M 167 297.128906 L 183.410156 297.128906 L 183.410156 318.128906 L 167 318.128906 Z M 167 297.128906 " clip-rule="nonzero"/></clipPath><clipPath id="f4d5f7b796"><path d="M 117 297 L 135 297 L 135 319 L 117 319 Z M 117 297 " clip-rule="nonzero"/></clipPath><clipPath id="eda7fdc63e"><path d="M 117.945312 297.378906 L 146.441406 296.875 L 146.8125 317.871094 L 118.316406 318.375 Z M 117.945312 297.378906 " clip-rule="nonzero"/></clipPath><clipPath id="18080dfd71"><path d="M 146.101562 296.878906 L 117.605469 297.382812 L 117.976562 318.378906 L 146.472656 317.875 Z M 146.101562 296.878906 " clip-rule="nonzero"/></clipPath><clipPath id="a9ae82e62c"><path d="M 130 296 L 147 296 L 147 318 L 130 318 Z M 130 296 " clip-rule="nonzero"/></clipPath><clipPath id="a4fe342569"><path d="M 117.945312 297.378906 L 146.441406 296.875 L 146.8125 317.871094 L 118.316406 318.375 Z M 117.945312 297.378906 " clip-rule="nonzero"/></clipPath><clipPath id="5437d29bef"><path d="M 146.101562 296.878906 L 117.605469 297.382812 L 117.976562 318.378906 L 146.472656 317.875 Z M 146.101562 296.878906 " clip-rule="nonzero"/></clipPath><clipPath id="5ed04e235b"><path d="M 75 282 L 95 282 L 95 304 L 75 304 Z M 75 282 " clip-rule="nonzero"/></clipPath><clipPath id="ecb7ceeaa6"><path d="M 81.105469 277.734375 L 105.09375 293.121094 L 93.757812 310.796875 L 69.765625 295.410156 Z M 81.105469 277.734375 " clip-rule="nonzero"/></clipPath><clipPath id="020f226dfb"><path d="M 104.808594 292.9375 L 80.816406 277.550781 L 69.480469 295.226562 L 93.46875 310.613281 Z M 104.808594 292.9375 " clip-rule="nonzero"/></clipPath><clipPath id="1fd60c7ffb"><path d="M 85 289 L 105 289 L 105 311 L 85 311 Z M 85 289 " clip-rule="nonzero"/></clipPath><clipPath id="08d03dc619"><path d="M 81.105469 277.734375 L 105.09375 293.121094 L 93.757812 310.796875 L 69.765625 295.410156 Z M 81.105469 277.734375 " clip-rule="nonzero"/></clipPath><clipPath id="fba568acf8"><path d="M 104.808594 292.9375 L 80.816406 277.550781 L 69.480469 295.226562 L 93.46875 310.613281 Z M 104.808594 292.9375 " clip-rule="nonzero"/></clipPath><clipPath id="cacb5dfd75"><path d="M 39 261 L 60 261 L 60 282 L 39 282 Z M 39 261 " clip-rule="nonzero"/></clipPath><clipPath id="ee11120d08"><path d="M 48.058594 255.742188 L 68.585938 275.511719 L 54.019531 290.636719 L 33.492188 270.867188 Z M 48.058594 255.742188 " clip-rule="nonzero"/></clipPath><clipPath id="716dbe63bc"><path d="M 68.339844 275.277344 L 47.8125 255.503906 L 33.246094 270.632812 L 53.773438 290.402344 Z M 68.339844 275.277344 " clip-rule="nonzero"/></clipPath><clipPath id="2aca54787d"><path d="M 48 270 L 68 270 L 68 290 L 48 290 Z M 48 270 " clip-rule="nonzero"/></clipPath><clipPath id="84bbdb455c"><path d="M 48.058594 255.742188 L 68.585938 275.511719 L 54.019531 290.636719 L 33.492188 270.867188 Z M 48.058594 255.742188 " clip-rule="nonzero"/></clipPath><clipPath id="22f4e95ce6"><path d="M 68.339844 275.277344 L 47.8125 255.503906 L 33.246094 270.632812 L 53.773438 290.402344 Z M 68.339844 275.277344 " clip-rule="nonzero"/></clipPath><clipPath id="945eb821da"><path d="M 17 226 L 39 226 L 39 245 L 17 245 Z M 17 226 " clip-rule="nonzero"/></clipPath><clipPath id="0b2493bd47"><path d="M 31.21875 221.023438 L 45.539062 245.664062 L 27.386719 256.21875 L 13.0625 231.578125 Z M 31.21875 221.023438 " clip-rule="nonzero"/></clipPath><clipPath id="9b7bc5d493"><path d="M 45.371094 245.371094 L 31.046875 220.730469 L 12.890625 231.285156 L 27.214844 255.925781 Z M 45.371094 245.371094 " clip-rule="nonzero"/></clipPath><clipPath id="09a0bbf153"><path d="M 23 236 L 45 236 L 45 256 L 23 256 Z M 23 236 " clip-rule="nonzero"/></clipPath><clipPath id="cc50570ecb"><path d="M 31.21875 221.023438 L 45.539062 245.664062 L 27.386719 256.21875 L 13.0625 231.578125 Z M 31.21875 221.023438 " clip-rule="nonzero"/></clipPath><clipPath id="ae8da972b1"><path d="M 45.371094 245.371094 L 31.046875 220.730469 L 12.890625 231.285156 L 27.214844 255.925781 Z M 45.371094 245.371094 " clip-rule="nonzero"/></clipPath><clipPath id="fe23437df2"><path d="M 8.878906 171.9375 L 29.878906 171.9375 L 29.878906 188 L 8.878906 188 Z M 8.878906 171.9375 " clip-rule="nonzero"/></clipPath><clipPath id="5b321b2aa9"><path d="M 8.878906 184 L 29.878906 184 L 29.878906 200.097656 L 8.878906 200.097656 Z M 8.878906 184 " clip-rule="nonzero"/></clipPath><clipPath id="5064ff4e9d"><path d="M 20 121 L 42 121 L 42 141 L 20 141 Z M 20 121 " clip-rule="nonzero"/></clipPath><clipPath id="dba22cf1d9"><path d="M 46.378906 127.648438 L 30.144531 151.074219 L 12.882812 139.109375 L 29.117188 115.6875 Z M 46.378906 127.648438 " clip-rule="nonzero"/></clipPath><clipPath id="f67e75f562"><path d="M 30.339844 150.792969 L 46.574219 127.367188 L 29.3125 115.40625 L 13.078125 138.832031 Z M 30.339844 150.792969 " clip-rule="nonzero"/></clipPath><clipPath id="12915c5a3b"><path d="M 13 131 L 35 131 L 35 151 L 13 151 Z M 13 131 " clip-rule="nonzero"/></clipPath><clipPath id="bce3a1d934"><path d="M 46.378906 127.648438 L 30.144531 151.074219 L 12.882812 139.109375 L 29.117188 115.6875 Z M 46.378906 127.648438 " clip-rule="nonzero"/></clipPath><clipPath id="0843a3ca73"><path d="M 30.339844 150.792969 L 46.574219 127.367188 L 29.3125 115.40625 L 13.078125 138.832031 Z M 30.339844 150.792969 " clip-rule="nonzero"/></clipPath><clipPath id="7d0293e2cd"><path d="M 47 87 L 66 87 L 66 108 L 47 108 Z M 47 87 " clip-rule="nonzero"/></clipPath><clipPath id="37e634aa64"><path d="M 72.519531 97.335938 L 51.425781 116.5 L 37.304688 100.957031 L 58.398438 81.792969 Z M 72.519531 97.335938 " clip-rule="nonzero"/></clipPath><clipPath id="b645793787"><path d="M 51.675781 116.269531 L 72.769531 97.105469 L 58.648438 81.5625 L 37.554688 100.726562 Z M 51.675781 116.269531 " clip-rule="nonzero"/></clipPath><clipPath id="b54b84ed3d"><path d="M 37 96 L 57 96 L 57 116 L 37 116 Z M 37 96 " clip-rule="nonzero"/></clipPath><clipPath id="2165a2a536"><path d="M 72.519531 97.335938 L 51.425781 116.5 L 37.304688 100.957031 L 58.398438 81.792969 Z M 72.519531 97.335938 " clip-rule="nonzero"/></clipPath><clipPath id="011afb1e3b"><path d="M 51.675781 116.269531 L 72.769531 97.105469 L 58.648438 81.5625 L 37.554688 100.726562 Z M 51.675781 116.269531 " clip-rule="nonzero"/></clipPath><clipPath id="2ead9f6381"><path d="M 81 66 L 101 66 L 101 88 L 81 88 Z M 81 66 " clip-rule="nonzero"/></clipPath><clipPath id="1752a42668"><path d="M 104.921875 81.058594 L 79.34375 93.632812 L 70.078125 74.785156 L 95.65625 62.214844 Z M 104.921875 81.058594 " clip-rule="nonzero"/></clipPath><clipPath id="d47ced7baf"><path d="M 79.648438 93.480469 L 105.226562 80.910156 L 95.960938 62.0625 L 70.382812 74.636719 Z M 79.648438 93.480469 " clip-rule="nonzero"/></clipPath><clipPath id="9bce11cb68"><path d="M 70 71 L 90 71 L 90 94 L 70 94 Z M 70 71 " clip-rule="nonzero"/></clipPath><clipPath id="1c59c3f478"><path d="M 104.921875 81.058594 L 79.34375 93.632812 L 70.078125 74.785156 L 95.65625 62.214844 Z M 104.921875 81.058594 " clip-rule="nonzero"/></clipPath><clipPath id="7fad188032"><path d="M 79.648438 93.480469 L 105.226562 80.910156 L 95.960938 62.0625 L 70.382812 74.636719 Z M 79.648438 93.480469 " clip-rule="nonzero"/></clipPath><clipPath id="4e89c411fa"><path d="M 130 57.015625 L 146.285156 57.015625 L 146.285156 78 L 130 78 Z M 130 57.015625 " clip-rule="nonzero"/></clipPath><clipPath id="af817b4aa6"><path d="M 118.125 57.015625 L 135 57.015625 L 135 78 L 118.125 78 Z M 118.125 57.015625 " clip-rule="nonzero"/></clipPath><clipPath id="243db06a22"><path d="M 166 56 L 183 56 L 183 78 L 166 78 Z M 166 56 " clip-rule="nonzero"/></clipPath><clipPath id="6e6e12679d"><path d="M 182.511719 78.015625 L 154.023438 77.15625 L 154.65625 56.164062 L 183.144531 57.023438 Z M 182.511719 78.015625 " clip-rule="nonzero"/></clipPath><clipPath id="993ebc190c"><path d="M 154.363281 77.164062 L 182.851562 78.023438 L 183.484375 57.035156 L 154.996094 56.175781 Z M 154.363281 77.164062 " clip-rule="nonzero"/></clipPath><clipPath id="f27ee9ed1d"><path d="M 154 56 L 171 56 L 171 78 L 154 78 Z M 154 56 " clip-rule="nonzero"/></clipPath><clipPath id="cea2d1bb8f"><path d="M 182.511719 78.015625 L 154.023438 77.15625 L 154.65625 56.164062 L 183.144531 57.023438 Z M 182.511719 78.015625 " clip-rule="nonzero"/></clipPath><clipPath id="217b3232f4"><path d="M 154.363281 77.164062 L 182.851562 78.023438 L 183.484375 57.035156 L 154.996094 56.175781 Z M 154.363281 77.164062 " clip-rule="nonzero"/></clipPath><clipPath id="31cfdd7cfe"><path d="M 278 56 L 295 56 L 295 78 L 278 78 Z M 278 56 " clip-rule="nonzero"/></clipPath><clipPath id="0c7f84826b"><path d="M 294.164062 78.015625 L 265.675781 77.15625 L 266.308594 56.164062 L 294.796875 57.023438 Z M 294.164062 78.015625 " clip-rule="nonzero"/></clipPath><clipPath id="5f18d0026c"><path d="M 266.015625 77.164062 L 294.503906 78.023438 L 295.136719 57.035156 L 266.648438 56.175781 Z M 266.015625 77.164062 " clip-rule="nonzero"/></clipPath><clipPath id="e3263203d3"><path d="M 266 56 L 283 56 L 283 78 L 266 78 Z M 266 56 " clip-rule="nonzero"/></clipPath><clipPath id="ad7fa556ee"><path d="M 294.164062 78.015625 L 265.675781 77.15625 L 266.308594 56.164062 L 294.796875 57.023438 Z M 294.164062 78.015625 " clip-rule="nonzero"/></clipPath><clipPath id="7c09d92047"><path d="M 266.015625 77.164062 L 294.503906 78.023438 L 295.136719 57.035156 L 266.648438 56.175781 Z M 266.015625 77.164062 " clip-rule="nonzero"/></clipPath><clipPath id="faefc982b6"><path d="M 241 56 L 258 56 L 258 78 L 241 78 Z M 241 56 " clip-rule="nonzero"/></clipPath><clipPath id="a6ee3c9d26"><path d="M 257.039062 78.015625 L 228.550781 77.15625 L 229.183594 56.164062 L 257.671875 57.023438 Z M 257.039062 78.015625 " clip-rule="nonzero"/></clipPath><clipPath id="d2c8085eb1"><path d="M 228.890625 77.164062 L 257.378906 78.023438 L 258.011719 57.035156 L 229.523438 56.175781 Z M 228.890625 77.164062 " clip-rule="nonzero"/></clipPath><clipPath id="aef6ca9cdf"><path d="M 228 56 L 246 56 L 246 78 L 228 78 Z M 228 56 " clip-rule="nonzero"/></clipPath><clipPath id="7b500e5c4e"><path d="M 257.039062 78.015625 L 228.550781 77.15625 L 229.183594 56.164062 L 257.671875 57.023438 Z M 257.039062 78.015625 " clip-rule="nonzero"/></clipPath><clipPath id="91bb1f2ed0"><path d="M 228.890625 77.164062 L 257.378906 78.023438 L 258.011719 57.035156 L 229.523438 56.175781 Z M 228.890625 77.164062 " clip-rule="nonzero"/></clipPath><clipPath id="cfaf4a523a"><path d="M 204 56 L 221 56 L 221 78 L 204 78 Z M 204 56 " clip-rule="nonzero"/></clipPath><clipPath id="fc1838c37e"><path d="M 220.523438 78.015625 L 192.035156 77.15625 L 192.667969 56.164062 L 221.15625 57.023438 Z M 220.523438 78.015625 " clip-rule="nonzero"/></clipPath><clipPath id="1805c15c74"><path d="M 192.375 77.164062 L 220.863281 78.023438 L 221.496094 57.035156 L 193.007812 56.175781 Z M 192.375 77.164062 " clip-rule="nonzero"/></clipPath><clipPath id="4b4fb400db"><path d="M 192 56 L 209 56 L 209 78 L 192 78 Z M 192 56 " clip-rule="nonzero"/></clipPath><clipPath id="b26c378654"><path d="M 220.523438 78.015625 L 192.035156 77.15625 L 192.667969 56.164062 L 221.15625 57.023438 Z M 220.523438 78.015625 " clip-rule="nonzero"/></clipPath><clipPath id="05d9cc91ff"><path d="M 192.375 77.164062 L 220.863281 78.023438 L 221.496094 57.035156 L 193.007812 56.175781 Z M 192.375 77.164062 " clip-rule="nonzero"/></clipPath></defs><g clip-path="url(#21b578b125)"><g clip-path="url(#cf3d6f6ca5)"><path fill="#919191" d="M 303.75 52.777344 L 303.75 323.039062 L -0.132812 323.039062 L -0.132812 52.777344 Z M 303.75 52.777344 " fill-opacity="1" fill-rule="nonzero"/></g></g><g clip-path="url(#83326ca1b6)"><g clip-path="url(#3aeefa71da)"><path stroke-linecap="butt" transform="matrix(0.000000000000000046, 0.75, -0.75, 0.000000000000000046, 303.749959, 52.777354)" fill="none" stroke-linejoin="miter" d="M 120.062492 394.442673 C 138.520826 400.817674 159.505202 404.999965 180.098953 404.999965 C 200.692704 404.999965 220.505205 401.416632 238.770831 395.041632 C 239.156248 394.838507 239.546873 394.838507 239.937498 394.64059 C 308.515627 369.145797 359.031254 301.81246 360.000004 224.124956 L 360.000004 -0.0000552182 L -0.0000142096 -0.0000552182 L -0.0000142096 223.95829 C 0.973944 302.208294 50.708322 369.54163 120.062492 394.442673 " stroke="#000000" stroke-width="4" stroke-opacity="1" stroke-miterlimit="4"/></g></g><g clip-path="url(#d519c5422a)"><g clip-path="url(#60e4943281)"><g clip-path="url(#369fea74f8)"><path fill="#707070" d="M 36.070312 75.746094 L 251.757812 80.335938 L 247.167969 296.019531 L 31.480469 291.433594 Z M 36.070312 75.746094 " fill-opacity="1" fill-rule="nonzero"/></g></g></g><g clip-path="url(#68e8d619a9)"><g clip-path="url(#716152a2e3)"><g clip-path="url(#253fddeb0b)"><g clip-path="url(#60d9fa8e7d)"><path stroke-linecap="butt" transform="matrix(0.74983, 0.0159563, -0.0159563, 0.74983, 36.072147, 75.745076)" fill="none" stroke-linejoin="miter" d="M 143.998921 0.000271098 C 64.470478 -0.000464852 -0.000653372 64.469096 -0.00138932 143.997539 C -0.00201446 223.531189 64.472754 288.00221 144.001086 287.997739 C 223.529529 287.998475 288.00066 223.528914 288.001396 144.000471 C 288.002132 64.472028 223.527364 0.00100705 143.998921 0.000271098 " stroke="#000000" stroke-width="8" stroke-opacity="1" stroke-miterlimit="4"/></g></g></g></g><g clip-path="url(#a4cc11d0d0)"><g clip-path="url(#609b24281e)"><g clip-path="url(#02a199f7c6)"><path fill="#ffde59" d="M 131.117188 119.074219 L 148.730469 119.003906 L 148.855469 150.929688 L 131.242188 150.996094 Z M 131.117188 119.074219 " fill-opacity="1" fill-rule="nonzero"/></g></g></g><g clip-path="url(#6c5ee59c78)"><g clip-path="url(#3e79d51674)"><g clip-path="url(#703e315fc3)"><path fill="#ffde59" d="M 164.089844 207.785156 L 173.003906 192.59375 L 200.539062 208.75 L 191.625 223.941406 Z M 164.089844 207.785156 " fill-opacity="1" fill-rule="nonzero"/></g></g></g><g clip-path="url(#f9c81e4535)"><g clip-path="url(#1841e89967)"><g clip-path="url(#6765811439)"><path fill="#ffde59" d="M 118.78125 244.738281 L 76.609375 171.570312 L 140.0625 134.996094 L 182.238281 208.160156 Z M 118.78125 244.738281 " fill-opacity="1" fill-rule="nonzero"/></g></g></g><g clip-path="url(#d1f960a7dc)"><g clip-path="url(#7e690b6fde)"><g clip-path="url(#38a4c01bf9)"><path fill="#ffde59" d="M 95.269531 219.753906 L 86.476562 204.496094 L 114.132812 188.550781 L 122.929688 203.8125 Z M 95.269531 219.753906 " fill-opacity="1" fill-rule="nonzero"/></g></g></g><g clip-path="url(#96f705ef39)"><g clip-path="url(#a1db543c2c)"><g clip-path="url(#893720ab61)"><path fill="#ffde59" d="M 110.761719 233.398438 L 61.945312 260.058594 L 35.285156 211.242188 L 84.101562 184.582031 Z M 110.761719 233.398438 " fill-opacity="1" fill-rule="nonzero"/></g></g></g><g clip-path="url(#9314b52cfd)"><g clip-path="url(#c6bd2e2f42)"><g clip-path="url(#76da7f4630)"><g clip-path="url(#f0c7501a71)"><path fill="#000000" d="M 84.972656 244.074219 C 89.847656 241.410156 93.417969 237.554688 95.6875 232.503906 L 101.148438 234.953125 C 98.332031 241.230469 93.894531 246.023438 87.84375 249.328125 Z M 96.648438 230.007812 C 98.367188 224.722656 98.320312 219.472656 96.507812 214.253906 L 102.164062 212.292969 C 104.417969 218.777344 104.476562 225.300781 102.339844 231.859375 Z M 95.5 211.785156 C 95.289062 211.34375 95.070312 210.910156 94.835938 210.480469 C 92.425781 206.066406 89 202.707031 84.5625 200.398438 L 87.328125 195.085938 C 92.84375 197.957031 97.097656 202.132812 100.089844 207.609375 C 100.378906 208.140625 100.652344 208.679688 100.910156 209.226562 Z M 82.125 199.289062 C 76.945312 197.265625 71.699219 197.007812 66.382812 198.511719 L 64.753906 192.753906 C 71.359375 190.882812 77.875 191.203125 84.304688 193.714844 Z M 63.871094 199.375 C 62.972656 199.734375 62.097656 200.152344 61.242188 200.617188 C 57.28125 202.78125 54.15625 205.785156 51.859375 209.636719 L 46.714844 206.566406 C 49.570312 201.78125 53.457031 198.046875 58.371094 195.363281 C 59.429688 194.785156 60.515625 194.269531 61.628906 193.820312 Z M 50.613281 212 C 48.296875 217.046875 47.730469 222.269531 48.921875 227.664062 L 43.074219 228.953125 C 41.597656 222.25 42.296875 215.769531 45.171875 209.5 Z M 49.636719 230.242188 C 50.101562 231.609375 50.679688 232.933594 51.378906 234.210938 C 53.296875 237.722656 55.898438 240.59375 59.179688 242.820312 L 55.816406 247.773438 C 51.734375 245.003906 48.503906 241.4375 46.125 237.082031 C 45.257812 235.496094 44.539062 233.855469 43.964844 232.15625 Z M 61.464844 244.199219 C 66.371094 246.804688 71.554688 247.671875 77.011719 246.800781 L 77.957031 252.710938 C 71.175781 253.796875 64.742188 252.71875 58.65625 249.484375 Z M 79.625 246.234375 C 81.484375 245.726562 83.265625 245.003906 84.972656 244.074219 L 87.84375 249.328125 C 85.726562 250.484375 83.515625 251.378906 81.207031 252.007812 Z M 79.625 246.234375 " fill-opacity="1" fill-rule="nonzero"/></g></g></g></g><g clip-path="url(#c3caa78bbc)"><g clip-path="url(#0946510cf1)"><g clip-path="url(#47ec12fa02)"><path fill="#ffde59" d="M 218.351562 261.167969 L 170.210938 233.304688 L 198.074219 185.167969 L 246.214844 213.03125 Z M 218.351562 261.167969 " fill-opacity="1" fill-rule="nonzero"/></g></g></g><g clip-path="url(#00533142ec)"><g clip-path="url(#ee7571e762)"><g clip-path="url(#833f60e510)"><g clip-path="url(#bf94b73e2d)"><path fill="#000000" d="M 195.835938 244.675781 C 200.640625 247.460938 205.792969 248.507812 211.285156 247.820312 L 212.03125 253.761719 C 205.203125 254.613281 198.804688 253.3125 192.835938 249.859375 Z M 213.917969 247.347656 C 219.328125 246.070312 223.789062 243.304688 227.304688 239.042969 L 231.921875 242.859375 C 227.550781 248.152344 222.007812 251.589844 215.292969 253.175781 Z M 228.890625 236.898438 C 229.160156 236.492188 229.417969 236.078125 229.664062 235.652344 C 232.179688 231.300781 233.273438 226.632812 232.941406 221.636719 L 238.917969 221.242188 C 239.328125 227.445312 237.972656 233.25 234.84375 238.652344 C 234.539062 239.175781 234.222656 239.691406 233.890625 240.195312 Z M 232.621094 218.980469 C 231.660156 213.503906 229.15625 208.886719 225.109375 205.125 L 229.183594 200.738281 C 234.210938 205.414062 237.324219 211.148438 238.519531 217.945312 Z M 223.066406 203.425781 C 222.292969 202.847656 221.480469 202.3125 220.636719 201.824219 C 216.734375 199.566406 212.542969 198.453125 208.058594 198.492188 L 208.011719 192.503906 C 213.582031 192.457031 218.789062 193.839844 223.636719 196.644531 C 224.683594 197.25 225.6875 197.910156 226.648438 198.628906 Z M 205.394531 198.65625 C 199.875 199.300781 195.117188 201.53125 191.128906 205.347656 L 186.988281 201.019531 C 191.949219 196.277344 197.851562 193.507812 204.703125 192.710938 Z M 189.296875 207.300781 C 188.371094 208.40625 187.539062 209.589844 186.808594 210.851562 C 184.804688 214.3125 183.707031 218.023438 183.507812 221.988281 L 177.527344 221.6875 C 177.773438 216.761719 179.140625 212.148438 181.628906 207.851562 C 182.53125 206.289062 183.5625 204.820312 184.714844 203.449219 Z M 183.515625 224.65625 C 183.835938 230.203125 185.789062 235.078125 189.371094 239.292969 L 184.808594 243.167969 C 180.359375 237.9375 177.9375 231.882812 177.539062 225.003906 Z M 191.210938 241.230469 C 192.609375 242.554688 194.152344 243.703125 195.835938 244.675781 L 192.835938 249.859375 C 190.75 248.652344 188.835938 247.226562 187.097656 245.582031 Z M 191.210938 241.230469 " fill-opacity="1" fill-rule="nonzero"/></g></g></g></g><g clip-path="url(#a9b4245311)"><g clip-path="url(#b785fc0e20)"><g clip-path="url(#3e4e021bf3)"><path fill="#ffde59" d="M 177.980469 120.140625 L 129.164062 146.800781 L 102.503906 97.984375 L 151.320312 71.324219 Z M 177.980469 120.140625 " fill-opacity="1" fill-rule="nonzero"/></g></g></g><g clip-path="url(#d08c5c21c7)"><g clip-path="url(#606b3f37e9)"><g clip-path="url(#aecf33626f)"><g clip-path="url(#37c4a3be15)"><path fill="#000000" d="M 152.191406 130.816406 C 157.066406 128.152344 160.636719 124.296875 162.902344 119.242188 L 168.367188 121.695312 C 165.546875 127.972656 161.113281 132.765625 155.058594 136.070312 Z M 163.867188 116.75 C 165.585938 111.464844 165.539062 106.214844 163.726562 100.996094 L 169.382812 99.03125 C 171.632812 105.519531 171.691406 112.039062 169.558594 118.601562 Z M 162.714844 98.527344 C 162.507812 98.085938 162.285156 97.652344 162.050781 97.222656 C 159.640625 92.808594 156.21875 89.449219 151.78125 87.136719 L 154.546875 81.828125 C 160.0625 84.699219 164.316406 88.875 167.304688 94.351562 C 167.597656 94.882812 167.871094 95.421875 168.128906 95.96875 Z M 149.34375 86.03125 C 144.164062 84.007812 138.917969 83.75 133.601562 85.253906 L 131.96875 79.492188 C 138.574219 77.625 145.09375 77.945312 151.523438 80.453125 Z M 131.089844 86.113281 C 130.191406 86.476562 129.316406 86.890625 128.457031 87.359375 C 124.5 89.523438 121.371094 92.527344 119.074219 96.375 L 113.933594 93.308594 C 116.789062 88.523438 120.675781 84.789062 125.589844 82.105469 C 126.648438 81.527344 127.734375 81.011719 128.847656 80.5625 Z M 117.832031 98.738281 C 115.515625 103.789062 114.949219 109.011719 116.136719 114.40625 L 110.292969 115.695312 C 108.816406 108.992188 109.515625 102.507812 112.390625 96.242188 Z M 116.855469 116.980469 C 117.316406 118.351562 117.898438 119.671875 118.597656 120.953125 C 120.515625 124.464844 123.113281 127.332031 126.398438 129.5625 L 123.035156 134.515625 C 118.953125 131.746094 115.722656 128.179688 113.34375 123.824219 C 112.476562 122.238281 111.757812 120.597656 111.183594 118.898438 Z M 128.683594 130.9375 C 133.589844 133.546875 138.769531 134.414062 144.230469 133.542969 L 145.171875 139.453125 C 138.394531 140.535156 131.960938 139.460938 125.875 136.226562 Z M 146.84375 132.976562 C 148.699219 132.46875 150.484375 131.746094 152.191406 130.816406 L 155.058594 136.070312 C 152.945312 137.226562 150.730469 138.117188 148.425781 138.75 Z M 146.84375 132.976562 " fill-opacity="1" fill-rule="nonzero"/></g></g></g></g><g clip-path="url(#8495ee317d)"><g clip-path="url(#d35f3467cf)"><g clip-path="url(#922c826c4a)"><path fill="#707070" d="M 70.46875 231.855469 L 63.496094 219.761719 L 75.589844 212.789062 L 82.5625 224.882812 Z M 70.46875 231.855469 " fill-opacity="1" fill-rule="nonzero"/></g></g></g><g clip-path="url(#5e4d508e0d)"><g clip-path="url(#847b5da1ba)"><g clip-path="url(#136959dace)"><path fill="#707070" d="M 198.679688 225.714844 L 205.671875 213.636719 L 217.753906 220.628906 L 210.761719 232.710938 Z M 198.679688 225.714844 " fill-opacity="1" fill-rule="nonzero"/></g></g></g><g clip-path="url(#96aa2a9a2d)"><g clip-path="url(#ccbf174dd0)"><g clip-path="url(#1091f78d99)"><path fill="#707070" d="M 136.644531 118.617188 L 129.675781 106.523438 L 141.769531 99.550781 L 148.742188 111.644531 Z M 136.644531 118.617188 " fill-opacity="1" fill-rule="nonzero"/></g></g></g><g clip-path="url(#7889978324)"><g clip-path="url(#79384bcb59)"><g clip-path="url(#441261142a)"><g clip-path="url(#cd34d7ffa1)"><path fill="#ffffff" d="M 80.804688 174.679688 C 80.765625 174.691406 80.730469 174.675781 80.699219 174.644531 C 80.5625 174.683594 80.546875 174.917969 80.347656 174.867188 C 79.921875 175.019531 79.675781 174.773438 79.464844 174.464844 C 78.867188 173.597656 78.421875 172.65625 78.039062 171.6875 C 76.660156 168.21875 76.070312 164.628906 76.117188 160.902344 C 76.199219 154.402344 78.445312 148.699219 82.277344 143.566406 C 84.054688 141.1875 86.21875 139.160156 88.480469 137.238281 C 89.808594 136.109375 91.203125 135.0625 92.570312 133.980469 C 92.636719 133.964844 92.703125 133.949219 92.769531 133.929688 C 92.804688 133.863281 92.867188 133.796875 92.867188 133.726562 C 92.867188 133.726562 92.867188 133.726562 92.867188 133.722656 C 92.867188 133.671875 92.789062 133.671875 92.738281 133.710938 C 92.050781 133.722656 91.386719 133.878906 90.734375 134.070312 C 90.285156 134.199219 89.84375 134.292969 89.375 134.253906 C 88.414062 134.542969 87.675781 134.226562 87.296875 133.390625 C 88.734375 132.015625 90.5625 131.617188 92.453125 131.367188 C 93.15625 131.273438 93.851562 131.128906 94.550781 131 C 96.21875 130.683594 95.996094 130.824219 96.917969 131.859375 C 97.125 132.089844 97.273438 132.363281 97.394531 132.652344 C 97.4375 132.757812 97.46875 132.859375 97.417969 132.96875 C 97.636719 133.242188 97.515625 133.511719 97.386719 133.765625 C 97 134.523438 96.601562 135.277344 96.207031 136.03125 C 96.21875 136.234375 96.113281 136.390625 96 136.542969 C 96.023438 136.746094 95.914062 136.902344 95.8125 137.058594 C 95.851562 137.203125 95.761719 137.3125 95.722656 137.4375 C 95.214844 139.109375 94.90625 140.8125 94.890625 142.570312 C 94.890625 142.703125 94.875 142.832031 94.871094 142.964844 C 94.863281 143.121094 94.855469 143.300781 94.683594 143.347656 C 94.550781 143.382812 94.390625 143.277344 94.34375 143.171875 C 94.136719 142.703125 93.675781 142.429688 93.4375 141.992188 C 93.328125 141.800781 93.3125 141.578125 93.296875 141.355469 C 93.175781 139.621094 93.371094 137.917969 93.738281 136.234375 C 93.769531 136.082031 93.828125 135.933594 93.828125 135.78125 C 93.828125 135.605469 93.683594 135.585938 93.539062 135.609375 C 93.484375 135.777344 93.367188 135.859375 93.195312 135.867188 C 93.117188 136.007812 93.027344 136.140625 92.835938 136.144531 C 92.835938 136.1875 92.816406 136.207031 92.769531 136.199219 C 92.699219 136.335938 92.609375 136.453125 92.433594 136.464844 C 92.363281 136.546875 92.304688 136.640625 92.222656 136.710938 C 91.316406 137.476562 90.398438 138.222656 89.5 139 C 88.683594 139.699219 87.894531 140.425781 87.09375 141.144531 C 86.902344 141.359375 86.726562 141.582031 86.527344 141.785156 C 84.640625 143.804688 83.023438 146.019531 81.75 148.46875 C 81.292969 149.34375 80.867188 150.234375 80.425781 151.117188 C 80.445312 151.332031 80.324219 151.488281 80.207031 151.648438 C 80.230469 151.851562 80.117188 152.003906 80.007812 152.15625 C 80.042969 152.351562 79.925781 152.488281 79.835938 152.636719 C 79.871094 152.765625 79.820312 152.863281 79.734375 152.949219 C 79.742188 152.996094 79.730469 153.03125 79.6875 153.054688 C 79.722656 153.195312 79.636719 153.308594 79.601562 153.429688 C 79.4375 154.039062 79.164062 154.617188 79.074219 155.25 C 79.003906 155.277344 78.90625 155.429688 78.914062 155.1875 C 78.917969 155.027344 78.878906 155.003906 78.832031 155.023438 C 78.785156 155.042969 78.730469 155.09375 78.6875 155.132812 C 78.226562 157.074219 78.007812 159.050781 77.921875 161.042969 C 77.929688 161.226562 77.9375 161.414062 77.949219 161.601562 C 78.003906 162.710938 78.058594 163.820312 78.109375 164.929688 C 78.140625 164.964844 78.152344 165.003906 78.152344 165.042969 C 78.152344 165.066406 78.148438 165.09375 78.132812 165.121094 C 78.183594 165.179688 78.191406 165.242188 78.15625 165.308594 C 78.207031 165.363281 78.214844 165.425781 78.179688 165.492188 C 78.234375 165.550781 78.238281 165.613281 78.203125 165.679688 C 78.257812 165.734375 78.269531 165.796875 78.230469 165.867188 C 78.285156 165.921875 78.296875 165.984375 78.257812 166.050781 L 78.257812 166.054688 C 78.3125 166.105469 78.324219 166.167969 78.289062 166.234375 L 78.289062 166.238281 C 78.300781 166.296875 78.3125 166.359375 78.320312 166.417969 L 78.320312 166.425781 C 78.375 166.476562 78.386719 166.535156 78.351562 166.605469 L 78.351562 166.613281 C 78.40625 166.664062 78.417969 166.722656 78.382812 166.792969 L 78.382812 166.796875 C 78.382812 166.796875 78.382812 166.800781 78.382812 166.800781 C 78.382812 166.800781 78.382812 166.796875 78.382812 166.796875 C 78.441406 166.851562 78.453125 166.910156 78.417969 166.980469 L 78.417969 166.984375 C 78.472656 167.035156 78.484375 167.097656 78.449219 167.164062 L 78.449219 167.167969 C 78.507812 167.21875 78.519531 167.28125 78.484375 167.351562 C 78.628906 167.910156 78.773438 168.46875 78.914062 169.03125 C 78.898438 169.34375 79.027344 169.628906 79.117188 169.917969 C 79.152344 169.925781 79.1875 169.921875 79.21875 169.914062 C 79.265625 169.90625 79.304688 169.882812 79.339844 169.839844 C 79.433594 170.054688 79.539062 170.257812 79.527344 170.5 C 79.515625 170.570312 79.515625 170.640625 79.546875 170.710938 C 79.539062 170.640625 79.53125 170.570312 79.527344 170.5 C 79.570312 170.5625 79.601562 170.625 79.558594 170.695312 C 79.652344 170.761719 79.683594 170.855469 79.679688 170.96875 C 79.742188 171.011719 79.765625 171.066406 79.738281 171.136719 C 79.789062 171.195312 79.820312 171.257812 79.792969 171.335938 C 79.820312 171.359375 79.839844 171.390625 79.835938 171.433594 C 79.964844 171.625 80.042969 171.832031 80.070312 172.054688 C 80.152344 172.195312 80.238281 172.335938 80.242188 172.503906 C 80.324219 172.574219 80.339844 172.675781 80.363281 172.773438 C 80.683594 173.324219 80.902344 173.929688 81.347656 174.441406 C 81.117188 174.503906 81.039062 174.746094 80.804688 174.679688 Z M 92.660156 136.125 C 92.660156 136.125 92.660156 136.128906 92.660156 136.128906 C 92.660156 136.128906 92.660156 136.125 92.660156 136.125 C 92.660156 136.128906 92.664062 136.128906 92.664062 136.128906 C 92.664062 136.125 92.664062 136.125 92.660156 136.125 Z M 78.046875 167.007812 C 78.042969 166.992188 78.039062 166.980469 78.03125 166.964844 C 78.03125 166.96875 78.03125 166.972656 78.03125 166.976562 C 78.035156 166.992188 78.035156 167.003906 78.039062 167.015625 C 78.039062 167.015625 78.042969 167.011719 78.046875 167.007812 Z M 78.105469 164.941406 C 78.105469 164.9375 78.101562 164.941406 78.101562 164.941406 C 78.097656 164.941406 78.089844 164.941406 78.085938 164.941406 L 78.070312 164.949219 L 78.101562 164.941406 C 78.105469 164.941406 78.105469 164.941406 78.105469 164.945312 C 78.105469 164.941406 78.105469 164.941406 78.105469 164.941406 Z M 78 167.054688 C 78.011719 167.042969 78.027344 167.03125 78.039062 167.019531 C 78.035156 167.007812 78.03125 166.992188 78.03125 166.980469 C 78.03125 167.007812 78.023438 167.035156 78 167.054688 Z M 78.011719 166.898438 C 78.011719 166.882812 78.007812 166.867188 78.003906 166.855469 C 78.003906 166.855469 78.003906 166.851562 78 166.851562 C 78.007812 166.867188 78.011719 166.882812 78.011719 166.898438 Z M 79.890625 173.886719 C 79.890625 173.890625 79.890625 173.890625 79.890625 173.894531 C 79.894531 173.894531 79.894531 173.898438 79.894531 173.898438 C 79.894531 173.894531 79.894531 173.890625 79.890625 173.886719 Z M 79.75 173.640625 C 79.746094 173.640625 79.746094 173.640625 79.746094 173.636719 C 79.746094 173.636719 79.75 173.640625 79.75 173.640625 Z M 79.511719 170.820312 C 79.5 170.828125 79.488281 170.835938 79.472656 170.84375 C 79.480469 170.847656 79.488281 170.855469 79.496094 170.859375 C 79.5 170.847656 79.503906 170.832031 79.511719 170.820312 Z M 79.730469 171.269531 C 79.738281 171.292969 79.75 171.3125 79.769531 171.332031 C 79.753906 171.3125 79.738281 171.292969 79.730469 171.269531 Z M 79.730469 171.269531 " fill-opacity="1" fill-rule="nonzero"/></g></g></g></g><g clip-path="url(#d0109c2967)"><g clip-path="url(#d718824911)"><g clip-path="url(#e8bc04f877)"><g clip-path="url(#d9a9233677)"><path fill="#ffffff" d="M 78.316406 166.429688 C 78.308594 166.367188 78.296875 166.308594 78.285156 166.25 C 78.34375 166.300781 78.351562 166.363281 78.316406 166.429688 Z M 78.316406 166.429688 " fill-opacity="1" fill-rule="nonzero"/></g></g></g></g><g clip-path="url(#2b8e0f55d3)"><g clip-path="url(#1644307bfc)"><g clip-path="url(#f74d224782)"><g clip-path="url(#27aa8641a2)"><path fill="#ffffff" d="M 181.175781 133.105469 C 181.195312 133.066406 181.222656 133.046875 181.265625 133.039062 C 181.3125 132.902344 181.132812 132.757812 181.289062 132.625 C 181.40625 132.191406 181.75 132.132812 182.125 132.132812 C 183.175781 132.144531 184.203125 132.324219 185.214844 132.566406 C 188.847656 133.433594 192.121094 135.019531 195.140625 137.203125 C 200.410156 141.011719 203.78125 146.132812 205.773438 152.222656 C 206.695312 155.042969 207.105469 157.980469 207.375 160.933594 C 207.535156 162.671875 207.589844 164.414062 207.6875 166.15625 C 207.660156 166.21875 207.636719 166.28125 207.613281 166.347656 C 207.648438 166.414062 207.667969 166.503906 207.722656 166.542969 C 207.722656 166.542969 207.722656 166.542969 207.726562 166.542969 C 207.769531 166.574219 207.816406 166.511719 207.8125 166.449219 C 208.199219 165.878906 208.453125 165.246094 208.671875 164.601562 C 208.820312 164.160156 209 163.742188 209.304688 163.382812 C 209.621094 162.429688 210.304688 162.011719 211.203125 162.179688 C 211.5 164.148438 210.773438 165.871094 209.890625 167.5625 C 209.5625 168.195312 209.28125 168.84375 208.984375 169.488281 C 208.28125 171.035156 208.296875 170.773438 206.921875 170.929688 C 206.613281 170.964844 206.300781 170.929688 205.996094 170.863281 C 205.886719 170.839844 205.785156 170.804688 205.726562 170.703125 C 205.371094 170.722656 205.222656 170.46875 205.089844 170.214844 C 204.691406 169.460938 204.304688 168.703125 203.914062 167.945312 C 203.742188 167.839844 203.675781 167.664062 203.617188 167.484375 C 203.4375 167.386719 203.371094 167.207031 203.300781 167.035156 C 203.164062 166.984375 203.125 166.847656 203.046875 166.742188 C 201.972656 165.367188 200.753906 164.132812 199.328125 163.109375 C 199.222656 163.03125 199.121094 162.945312 199.015625 162.863281 C 198.890625 162.769531 198.75 162.660156 198.8125 162.492188 C 198.859375 162.363281 199.035156 162.289062 199.148438 162.3125 C 199.652344 162.414062 200.140625 162.195312 200.636719 162.25 C 200.855469 162.273438 201.046875 162.386719 201.238281 162.503906 C 202.722656 163.402344 204.007812 164.539062 205.171875 165.8125 C 205.277344 165.925781 205.367188 166.058594 205.488281 166.148438 C 205.632812 166.25 205.730469 166.140625 205.796875 166.011719 C 205.691406 165.871094 205.691406 165.726562 205.785156 165.578125 C 205.714844 165.433594 205.65625 165.285156 205.765625 165.128906 C 205.726562 165.101562 205.726562 165.074219 205.757812 165.042969 C 205.683594 164.902344 205.640625 164.761719 205.734375 164.613281 C 205.707031 164.507812 205.664062 164.40625 205.652344 164.296875 C 205.550781 163.117188 205.46875 161.933594 205.351562 160.753906 C 205.246094 159.683594 205.105469 158.617188 204.980469 157.550781 C 204.914062 157.273438 204.835938 157 204.78125 156.722656 C 204.21875 154.015625 203.339844 151.417969 202.066406 148.964844 C 201.613281 148.089844 201.132812 147.226562 200.664062 146.359375 C 200.476562 146.25 200.417969 146.0625 200.355469 145.875 C 200.175781 145.773438 200.117188 145.597656 200.054688 145.417969 C 199.875 145.335938 199.832031 145.160156 199.757812 145 C 199.636719 144.957031 199.585938 144.859375 199.566406 144.742188 C 199.519531 144.722656 199.5 144.6875 199.503906 144.640625 C 199.367188 144.589844 199.328125 144.453125 199.246094 144.355469 C 198.839844 143.871094 198.527344 143.3125 198.0625 142.875 C 198.082031 142.804688 198.015625 142.632812 198.207031 142.777344 C 198.332031 142.875 198.375 142.859375 198.386719 142.808594 C 198.398438 142.761719 198.386719 142.683594 198.382812 142.625 C 197.058594 141.132812 195.570312 139.816406 193.988281 138.597656 C 193.832031 138.5 193.675781 138.398438 193.519531 138.300781 C 192.578125 137.703125 191.636719 137.109375 190.699219 136.515625 C 190.65625 136.519531 190.617188 136.507812 190.585938 136.488281 C 190.5625 136.472656 190.546875 136.449219 190.53125 136.425781 C 190.457031 136.433594 190.402344 136.402344 190.367188 136.335938 C 190.289062 136.347656 190.234375 136.316406 190.199219 136.246094 C 190.125 136.257812 190.070312 136.230469 190.035156 136.160156 C 189.957031 136.171875 189.902344 136.144531 189.867188 136.074219 C 189.789062 136.089844 189.734375 136.058594 189.699219 135.992188 C 189.621094 136.003906 189.566406 135.976562 189.53125 135.910156 L 189.53125 135.90625 C 189.472656 135.886719 189.417969 135.859375 189.363281 135.828125 L 189.359375 135.828125 C 189.285156 135.839844 189.226562 135.816406 189.191406 135.746094 L 189.1875 135.746094 C 189.113281 135.761719 189.058594 135.734375 189.023438 135.667969 L 189.015625 135.664062 C 188.941406 135.679688 188.882812 135.65625 188.847656 135.585938 C 188.769531 135.601562 188.714844 135.574219 188.679688 135.507812 L 188.675781 135.507812 C 188.601562 135.523438 188.542969 135.496094 188.507812 135.429688 C 187.964844 135.222656 187.425781 135.019531 186.886719 134.8125 C 186.636719 134.617188 186.332031 134.5625 186.042969 134.46875 C 186.015625 134.492188 186 134.523438 185.988281 134.550781 C 185.96875 134.59375 185.964844 134.640625 185.976562 134.695312 C 185.75 134.648438 185.519531 134.617188 185.332031 134.46875 C 185.277344 134.417969 185.222656 134.378906 185.148438 134.363281 C 185.207031 134.398438 185.269531 134.433594 185.332031 134.46875 C 185.257812 134.46875 185.1875 134.457031 185.15625 134.382812 C 185.046875 134.421875 184.949219 134.390625 184.859375 134.324219 C 184.789062 134.347656 184.730469 134.339844 184.6875 134.273438 C 184.613281 134.28125 184.542969 134.269531 184.496094 134.203125 C 184.457031 134.214844 184.421875 134.210938 184.390625 134.1875 C 184.160156 134.179688 183.945312 134.125 183.746094 134.019531 C 183.582031 134.003906 183.421875 133.992188 183.28125 133.898438 C 183.175781 133.925781 183.085938 133.882812 182.992188 133.84375 C 182.355469 133.789062 181.738281 133.617188 181.058594 133.6875 C 181.144531 133.464844 180.988281 133.257812 181.175781 133.105469 Z M 205.882812 164.996094 C 205.878906 164.996094 205.878906 164.996094 205.878906 164.992188 C 205.882812 164.992188 205.882812 164.992188 205.882812 164.992188 C 205.882812 164.992188 205.878906 164.992188 205.878906 164.992188 C 205.878906 164.992188 205.875 164.996094 205.875 164.992188 C 205.878906 164.996094 205.878906 164.996094 205.882812 164.996094 Z M 189.039062 135.269531 C 189.050781 135.273438 189.066406 135.277344 189.082031 135.28125 C 189.078125 135.277344 189.074219 135.273438 189.070312 135.273438 C 189.058594 135.269531 189.050781 135.261719 189.035156 135.257812 C 189.035156 135.257812 189.035156 135.261719 189.039062 135.269531 Z M 190.695312 136.507812 C 190.699219 136.503906 190.695312 136.503906 190.699219 136.503906 C 190.699219 136.496094 190.703125 136.492188 190.703125 136.488281 L 190.710938 136.472656 L 190.695312 136.503906 C 190.695312 136.503906 190.695312 136.503906 190.691406 136.503906 C 190.695312 136.503906 190.695312 136.503906 190.695312 136.507812 Z M 189.027344 135.199219 C 189.03125 135.21875 189.03125 135.238281 189.035156 135.253906 C 189.046875 135.257812 189.058594 135.265625 189.070312 135.269531 C 189.046875 135.253906 189.03125 135.230469 189.027344 135.199219 Z M 189.148438 135.304688 C 189.160156 135.308594 189.175781 135.316406 189.1875 135.320312 C 189.191406 135.320312 189.191406 135.320312 189.191406 135.320312 C 189.175781 135.316406 189.160156 135.308594 189.148438 135.304688 Z M 182.351562 132.816406 C 182.351562 132.816406 182.347656 132.8125 182.347656 132.8125 C 182.347656 132.8125 182.34375 132.8125 182.34375 132.8125 C 182.34375 132.8125 182.339844 132.8125 182.339844 132.8125 C 182.34375 132.816406 182.347656 132.816406 182.351562 132.816406 Z M 182.632812 132.84375 C 182.636719 132.839844 182.640625 132.839844 182.640625 132.839844 C 182.640625 132.84375 182.632812 132.839844 182.632812 132.84375 Z M 185.078125 134.269531 C 185.078125 134.257812 185.078125 134.242188 185.082031 134.226562 C 185.074219 134.230469 185.0625 134.230469 185.054688 134.234375 C 185.0625 134.246094 185.070312 134.257812 185.078125 134.269531 Z M 184.585938 134.191406 C 184.5625 134.183594 184.535156 134.183594 184.507812 134.1875 C 184.507812 134.1875 184.507812 134.1875 184.511719 134.1875 C 184.539062 134.1875 184.5625 134.1875 184.585938 134.191406 Z M 184.585938 134.191406 " fill-opacity="1" fill-rule="nonzero"/></g></g></g></g><g clip-path="url(#b2c9779285)"><g clip-path="url(#05589d0fcc)"><g clip-path="url(#862116c9e7)"><g clip-path="url(#ea9fcb0db8)"><path fill="#ffffff" d="M 189.355469 135.820312 C 189.410156 135.847656 189.464844 135.875 189.523438 135.898438 C 189.445312 135.914062 189.390625 135.886719 189.355469 135.820312 Z M 189.355469 135.820312 " fill-opacity="1" fill-rule="nonzero"/></g></g></g></g><g clip-path="url(#eaab58e5af)"><g clip-path="url(#8f48959208)"><g clip-path="url(#b54fecf876)"><g clip-path="url(#a25c881c31)"><path fill="#ffffff" d="M 165.65625 246.785156 C 165.679688 246.820312 165.679688 246.859375 165.660156 246.894531 C 165.746094 247.015625 165.96875 246.949219 165.988281 247.152344 C 166.277344 247.496094 166.128906 247.8125 165.914062 248.121094 C 165.308594 248.976562 164.574219 249.71875 163.796875 250.414062 C 161.011719 252.902344 157.84375 254.6875 154.332031 255.925781 C 148.199219 258.085938 142.070312 257.933594 135.929688 256.101562 C 133.085938 255.25 130.441406 253.914062 127.855469 252.453125 C 126.339844 251.59375 124.878906 250.644531 123.390625 249.730469 C 123.351562 249.675781 123.316406 249.617188 123.277344 249.5625 C 123.199219 249.550781 123.117188 249.515625 123.050781 249.539062 C 123.050781 249.539062 123.050781 249.539062 123.050781 249.542969 C 123 249.558594 123.027344 249.632812 123.078125 249.667969 C 123.328125 250.308594 123.703125 250.878906 124.105469 251.425781 C 124.382812 251.800781 124.625 252.183594 124.746094 252.640625 C 125.347656 253.441406 125.304688 254.242188 124.652344 254.886719 C 122.867188 254.007812 121.863281 252.429688 120.976562 250.738281 C 120.644531 250.109375 120.273438 249.507812 119.914062 248.898438 C 119.042969 247.4375 119.25 247.601562 119.902344 246.378906 C 120.050781 246.105469 120.257812 245.871094 120.484375 245.660156 C 120.570312 245.582031 120.652344 245.519531 120.773438 245.527344 C 120.957031 245.226562 121.25 245.246094 121.535156 245.28125 C 122.378906 245.386719 123.222656 245.5 124.070312 245.613281 C 124.253906 245.527344 124.4375 245.574219 124.617188 245.628906 C 124.800781 245.539062 124.984375 245.585938 125.167969 245.628906 C 125.289062 245.542969 125.425781 245.589844 125.550781 245.582031 C 127.296875 245.484375 129.003906 245.1875 130.660156 244.601562 C 130.785156 244.554688 130.910156 244.523438 131.039062 244.484375 C 131.1875 244.4375 131.355469 244.382812 131.460938 244.527344 C 131.539062 244.640625 131.496094 244.828125 131.414062 244.90625 C 131.042969 245.261719 130.945312 245.789062 130.617188 246.164062 C 130.472656 246.328125 130.273438 246.421875 130.066406 246.515625 C 128.480469 247.222656 126.816406 247.628906 125.105469 247.863281 C 124.953125 247.882812 124.792969 247.878906 124.652344 247.929688 C 124.484375 247.992188 124.515625 248.132812 124.585938 248.261719 C 124.761719 248.253906 124.882812 248.335938 124.949219 248.496094 C 125.109375 248.523438 125.261719 248.558594 125.332031 248.738281 C 125.371094 248.722656 125.398438 248.738281 125.40625 248.78125 C 125.5625 248.800781 125.699219 248.84375 125.773438 249.003906 C 125.875 249.042969 125.980469 249.066406 126.074219 249.121094 C 127.105469 249.707031 128.125 250.3125 129.160156 250.890625 C 130.097656 251.414062 131.054688 251.90625 132.003906 252.414062 C 132.269531 252.515625 132.539062 252.609375 132.800781 252.71875 C 135.34375 253.800781 137.976562 254.558594 140.71875 254.910156 C 141.699219 255.039062 142.679688 255.132812 143.660156 255.242188 C 143.855469 255.152344 144.042969 255.210938 144.234375 255.265625 C 144.417969 255.175781 144.597656 255.226562 144.78125 255.277344 C 144.949219 255.179688 145.121094 255.242188 145.289062 255.273438 C 145.398438 255.199219 145.507812 255.214844 145.617188 255.261719 C 145.65625 255.238281 145.695312 255.238281 145.734375 255.269531 C 145.851562 255.1875 145.988281 255.230469 146.113281 255.222656 C 146.742188 255.167969 147.378906 255.226562 148.003906 255.09375 C 148.054688 255.148438 148.230469 255.191406 148.003906 255.265625 C 147.851562 255.316406 147.839844 255.359375 147.875 255.398438 C 147.90625 255.433594 147.976562 255.464844 148.027344 255.496094 C 150.007812 255.261719 151.9375 254.785156 153.839844 254.183594 C 154.011719 254.109375 154.183594 254.039062 154.355469 253.964844 C 155.378906 253.535156 156.402344 253.101562 157.425781 252.667969 C 157.449219 252.628906 157.480469 252.601562 157.515625 252.589844 C 157.542969 252.582031 157.566406 252.578125 157.597656 252.582031 C 157.632812 252.515625 157.691406 252.488281 157.765625 252.496094 C 157.800781 252.425781 157.855469 252.398438 157.929688 252.410156 C 157.964844 252.339844 158.023438 252.3125 158.097656 252.324219 C 158.132812 252.253906 158.1875 252.222656 158.265625 252.234375 C 158.296875 252.164062 158.351562 252.132812 158.425781 252.144531 L 158.429688 252.144531 C 158.460938 252.074219 158.515625 252.042969 158.589844 252.054688 L 158.59375 252.054688 C 158.644531 252.019531 158.695312 251.988281 158.753906 251.960938 L 158.757812 251.957031 C 158.789062 251.886719 158.839844 251.855469 158.917969 251.867188 L 158.921875 251.863281 C 158.953125 251.792969 159.003906 251.761719 159.082031 251.773438 L 159.085938 251.769531 C 159.085938 251.769531 159.089844 251.769531 159.089844 251.769531 C 159.089844 251.769531 159.085938 251.769531 159.085938 251.769531 C 159.113281 251.699219 159.167969 251.667969 159.246094 251.675781 L 159.25 251.675781 C 159.277344 251.601562 159.332031 251.574219 159.40625 251.582031 L 159.410156 251.582031 C 159.441406 251.507812 159.492188 251.476562 159.570312 251.484375 C 160.046875 251.15625 160.523438 250.832031 161 250.503906 C 161.300781 250.410156 161.519531 250.191406 161.761719 250.007812 C 161.757812 249.972656 161.746094 249.941406 161.726562 249.914062 C 161.699219 249.875 161.664062 249.84375 161.613281 249.824219 C 161.78125 249.667969 161.9375 249.496094 162.167969 249.425781 C 162.238281 249.410156 162.304688 249.382812 162.363281 249.332031 C 162.296875 249.363281 162.234375 249.394531 162.167969 249.425781 C 162.210938 249.363281 162.261719 249.308594 162.339844 249.328125 C 162.371094 249.214844 162.449219 249.152344 162.558594 249.121094 C 162.574219 249.046875 162.617188 249.003906 162.695312 249.007812 C 162.734375 248.941406 162.78125 248.886719 162.863281 248.886719 C 162.875 248.851562 162.898438 248.824219 162.9375 248.8125 C 163.074219 248.628906 163.242188 248.480469 163.441406 248.375 C 163.546875 248.253906 163.648438 248.125 163.804688 248.066406 C 163.84375 247.960938 163.933594 247.914062 164.015625 247.855469 C 164.421875 247.367188 164.914062 246.953125 165.246094 246.359375 C 165.382812 246.554688 165.636719 246.542969 165.65625 246.785156 Z M 125.371094 248.910156 C 125.375 248.910156 125.375 248.910156 125.375 248.910156 C 125.375 248.910156 125.378906 248.910156 125.378906 248.910156 C 125.378906 248.910156 125.375 248.910156 125.375 248.910156 C 125.375 248.90625 125.375 248.90625 125.378906 248.902344 C 125.375 248.90625 125.375 248.90625 125.371094 248.910156 Z M 159.398438 252.011719 C 159.386719 252.023438 159.375 252.03125 159.363281 252.042969 C 159.367188 252.039062 159.371094 252.039062 159.375 252.039062 C 159.386719 252.03125 159.398438 252.027344 159.410156 252.019531 C 159.40625 252.015625 159.402344 252.015625 159.398438 252.011719 Z M 157.4375 252.671875 C 157.441406 252.675781 157.441406 252.683594 157.445312 252.6875 L 157.457031 252.699219 L 157.4375 252.671875 C 157.4375 252.671875 157.441406 252.671875 157.441406 252.667969 C 157.441406 252.671875 157.4375 252.671875 157.4375 252.671875 Z M 159.460938 252.042969 C 159.445312 252.035156 159.425781 252.027344 159.414062 252.019531 C 159.402344 252.027344 159.390625 252.03125 159.378906 252.039062 C 159.40625 252.027344 159.433594 252.027344 159.460938 252.042969 Z M 159.308594 252.082031 C 159.292969 252.089844 159.28125 252.097656 159.269531 252.105469 C 159.269531 252.109375 159.269531 252.109375 159.269531 252.109375 C 159.28125 252.101562 159.292969 252.089844 159.308594 252.082031 Z M 165.226562 247.914062 C 165.226562 247.917969 165.230469 247.914062 165.230469 247.914062 C 165.230469 247.914062 165.234375 247.914062 165.234375 247.914062 C 165.234375 247.910156 165.234375 247.910156 165.234375 247.90625 C 165.230469 247.910156 165.230469 247.914062 165.226562 247.914062 Z M 165.042969 248.132812 C 165.042969 248.136719 165.042969 248.140625 165.039062 248.140625 C 165.039062 248.136719 165.042969 248.136719 165.042969 248.132812 Z M 162.476562 249.328125 C 162.488281 249.335938 162.5 249.34375 162.511719 249.355469 C 162.511719 249.347656 162.515625 249.339844 162.519531 249.328125 C 162.503906 249.332031 162.488281 249.328125 162.476562 249.328125 Z M 162.820312 248.964844 C 162.839844 248.953125 162.855469 248.933594 162.867188 248.910156 C 162.867188 248.910156 162.867188 248.910156 162.867188 248.90625 C 162.855469 248.933594 162.839844 248.953125 162.820312 248.964844 Z M 162.820312 248.964844 " fill-opacity="1" fill-rule="nonzero"/></g></g></g></g><g clip-path="url(#766de02fb8)"><g clip-path="url(#02e7752484)"><g clip-path="url(#ab0bcb8a54)"><g clip-path="url(#853fd1edcb)"><path fill="#ffffff" d="M 158.761719 251.960938 C 158.710938 251.988281 158.65625 252.019531 158.605469 252.050781 C 158.636719 251.976562 158.6875 251.949219 158.761719 251.960938 Z M 158.761719 251.960938 " fill-opacity="1" fill-rule="nonzero"/></g></g></g></g><path stroke-linecap="butt" transform="matrix(0.74987, 0.00605191, -0.00605275, 0.749976, 136.490312, 77.86835)" fill="none" stroke-linejoin="miter" d="M -0.00220425 1.998534 L 223.03636 2.000873 " stroke="#000000" stroke-width="4" stroke-opacity="1" stroke-miterlimit="4"/><path stroke-linecap="butt" transform="matrix(0.750617, -0.00364086, 0.00363783, 0.749991, 135.126205, 291.168461)" fill="none" stroke-linejoin="miter" d="M -0.000887049 1.999363 L 224.814281 2.002183 " stroke="#000000" stroke-width="4" stroke-opacity="1" stroke-miterlimit="4"/><g clip-path="url(#21453fd8a3)"><path fill="#38b6ff" d="M 266.714844 306.992188 L 275.207031 297.5 C 275.390625 297.296875 275.644531 297.183594 275.910156 297.183594 L 281.574219 297.183594 C 281.945312 297.183594 282.28125 297.402344 282.4375 297.746094 C 282.585938 298.089844 282.523438 298.488281 282.273438 298.765625 L 274.351562 307.628906 L 282.273438 316.484375 C 282.523438 316.765625 282.589844 317.164062 282.4375 317.507812 C 282.28125 317.851562 281.945312 318.070312 281.574219 318.070312 L 275.910156 318.070312 C 275.644531 318.070312 275.390625 317.953125 275.207031 317.757812 L 266.714844 308.261719 C 266.394531 307.902344 266.394531 307.351562 266.714844 306.992188 Z M 266.714844 306.992188 " fill-opacity="1" fill-rule="nonzero"/></g><g clip-path="url(#0e509abadd)"><path fill="#38b6ff" d="M 278.984375 306.992188 L 287.476562 297.5 C 287.660156 297.296875 287.910156 297.183594 288.179688 297.183594 L 293.839844 297.183594 C 294.214844 297.183594 294.550781 297.402344 294.703125 297.746094 C 294.855469 298.089844 294.792969 298.488281 294.542969 298.765625 L 286.617188 307.628906 L 294.542969 316.484375 C 294.792969 316.765625 294.855469 317.164062 294.703125 317.507812 C 294.550781 317.851562 294.214844 318.070312 293.839844 318.070312 L 288.179688 318.070312 C 287.910156 318.070312 287.660156 317.953125 287.476562 317.757812 L 278.984375 308.261719 C 278.660156 307.902344 278.660156 307.351562 278.984375 306.992188 Z M 278.984375 306.992188 " fill-opacity="1" fill-rule="nonzero"/></g><g clip-path="url(#753c084ee2)"><path fill="#38b6ff" d="M 229.589844 306.992188 L 238.082031 297.5 C 238.265625 297.296875 238.519531 297.183594 238.785156 297.183594 L 244.449219 297.183594 C 244.820312 297.183594 245.15625 297.402344 245.3125 297.746094 C 245.460938 298.089844 245.398438 298.488281 245.148438 298.765625 L 237.226562 307.628906 L 245.148438 316.484375 C 245.398438 316.765625 245.464844 317.164062 245.3125 317.507812 C 245.15625 317.851562 244.820312 318.070312 244.449219 318.070312 L 238.785156 318.070312 C 238.519531 318.070312 238.265625 317.953125 238.082031 317.757812 L 229.589844 308.261719 C 229.269531 307.902344 229.269531 307.351562 229.589844 306.992188 Z M 229.589844 306.992188 " fill-opacity="1" fill-rule="nonzero"/></g><g clip-path="url(#8ce18ddd4f)"><path fill="#38b6ff" d="M 241.859375 306.992188 L 250.351562 297.5 C 250.535156 297.296875 250.785156 297.183594 251.054688 297.183594 L 256.714844 297.183594 C 257.089844 297.183594 257.425781 297.402344 257.578125 297.746094 C 257.730469 298.089844 257.667969 298.488281 257.417969 298.765625 L 249.492188 307.628906 L 257.417969 316.484375 C 257.667969 316.765625 257.730469 317.164062 257.578125 317.507812 C 257.425781 317.851562 257.089844 318.070312 256.714844 318.070312 L 251.054688 318.070312 C 250.785156 318.070312 250.535156 317.953125 250.351562 317.757812 L 241.859375 308.261719 C 241.535156 307.902344 241.535156 307.351562 241.859375 306.992188 Z M 241.859375 306.992188 " fill-opacity="1" fill-rule="nonzero"/></g><g clip-path="url(#d339bace70)"><path fill="#38b6ff" d="M 192.464844 306.992188 L 200.957031 297.5 C 201.140625 297.296875 201.394531 297.183594 201.660156 297.183594 L 207.324219 297.183594 C 207.695312 297.183594 208.03125 297.402344 208.1875 297.746094 C 208.335938 298.089844 208.273438 298.488281 208.023438 298.765625 L 200.101562 307.628906 L 208.023438 316.484375 C 208.273438 316.765625 208.339844 317.164062 208.1875 317.507812 C 208.03125 317.851562 207.695312 318.070312 207.324219 318.070312 L 201.660156 318.070312 C 201.394531 318.070312 201.140625 317.953125 200.957031 317.757812 L 192.464844 308.261719 C 192.144531 307.902344 192.144531 307.351562 192.464844 306.992188 Z M 192.464844 306.992188 " fill-opacity="1" fill-rule="nonzero"/></g><g clip-path="url(#d1f36086d0)"><path fill="#38b6ff" d="M 204.734375 306.992188 L 213.226562 297.5 C 213.410156 297.296875 213.660156 297.183594 213.929688 297.183594 L 219.589844 297.183594 C 219.964844 297.183594 220.300781 297.402344 220.453125 297.746094 C 220.605469 298.089844 220.542969 298.488281 220.292969 298.765625 L 212.367188 307.628906 L 220.292969 316.484375 C 220.542969 316.765625 220.605469 317.164062 220.453125 317.507812 C 220.300781 317.851562 219.964844 318.070312 219.589844 318.070312 L 213.929688 318.070312 C 213.660156 318.070312 213.410156 317.953125 213.226562 317.757812 L 204.734375 308.261719 C 204.410156 307.902344 204.410156 307.351562 204.734375 306.992188 Z M 204.734375 306.992188 " fill-opacity="1" fill-rule="nonzero"/></g><g clip-path="url(#4bcccd9c32)"><path fill="#5ce1e6" d="M 155.339844 306.992188 L 163.832031 297.5 C 164.015625 297.296875 164.269531 297.183594 164.535156 297.183594 L 170.199219 297.183594 C 170.570312 297.183594 170.90625 297.402344 171.0625 297.746094 C 171.210938 298.089844 171.148438 298.488281 170.898438 298.765625 L 162.976562 307.628906 L 170.898438 316.484375 C 171.148438 316.765625 171.214844 317.164062 171.0625 317.507812 C 170.90625 317.851562 170.570312 318.070312 170.199219 318.070312 L 164.535156 318.070312 C 164.269531 318.070312 164.015625 317.953125 163.832031 317.757812 L 155.339844 308.261719 C 155.019531 307.902344 155.019531 307.351562 155.339844 306.992188 Z M 155.339844 306.992188 " fill-opacity="1" fill-rule="nonzero"/></g><g clip-path="url(#4c5857d1d2)"><path fill="#5ce1e6" d="M 167.609375 306.992188 L 176.101562 297.5 C 176.285156 297.296875 176.535156 297.183594 176.804688 297.183594 L 182.464844 297.183594 C 182.839844 297.183594 183.175781 297.402344 183.328125 297.746094 C 183.480469 298.089844 183.417969 298.488281 183.167969 298.765625 L 175.242188 307.628906 L 183.167969 316.484375 C 183.417969 316.765625 183.480469 317.164062 183.328125 317.507812 C 183.175781 317.851562 182.839844 318.070312 182.464844 318.070312 L 176.804688 318.070312 C 176.535156 318.070312 176.285156 317.953125 176.101562 317.757812 L 167.609375 308.261719 C 167.285156 307.902344 167.285156 307.351562 167.609375 306.992188 Z M 167.609375 306.992188 " fill-opacity="1" fill-rule="nonzero"/></g><g clip-path="url(#f4d5f7b796)"><g clip-path="url(#eda7fdc63e)"><g clip-path="url(#18080dfd71)"><path fill="#38b6ff" d="M 118.210938 307.242188 L 126.535156 297.597656 C 126.710938 297.394531 126.960938 297.273438 127.230469 297.269531 L 132.890625 297.171875 C 133.261719 297.164062 133.605469 297.378906 133.765625 297.714844 C 133.921875 298.058594 133.867188 298.460938 133.621094 298.742188 L 125.855469 307.738281 L 133.933594 316.457031 C 134.1875 316.730469 134.261719 317.128906 134.113281 317.476562 C 133.964844 317.820312 133.632812 318.046875 133.261719 318.054688 L 127.597656 318.152344 C 127.332031 318.160156 127.078125 318.046875 126.890625 317.851562 L 118.230469 308.511719 C 117.902344 308.15625 117.894531 307.605469 118.210938 307.242188 Z M 118.210938 307.242188 " fill-opacity="1" fill-rule="nonzero"/></g></g></g><g clip-path="url(#a9ae82e62c)"><g clip-path="url(#a4fe342569)"><g clip-path="url(#5437d29bef)"><path fill="#38b6ff" d="M 130.476562 307.023438 L 138.800781 297.382812 C 138.976562 297.175781 139.230469 297.058594 139.496094 297.054688 L 145.15625 296.953125 C 145.53125 296.945312 145.871094 297.160156 146.03125 297.5 C 146.1875 297.839844 146.132812 298.242188 145.886719 298.523438 L 138.121094 307.523438 L 146.203125 316.238281 C 146.457031 316.515625 146.527344 316.914062 146.378906 317.257812 C 146.234375 317.605469 145.898438 317.832031 145.527344 317.835938 L 139.867188 317.9375 C 139.597656 317.941406 139.34375 317.832031 139.160156 317.636719 L 130.5 308.292969 C 130.167969 307.9375 130.160156 307.386719 130.476562 307.023438 Z M 130.476562 307.023438 " fill-opacity="1" fill-rule="nonzero"/></g></g></g><g clip-path="url(#5ed04e235b)"><g clip-path="url(#ecb7ceeaa6)"><g clip-path="url(#020f226dfb)"><path fill="#38b6ff" d="M 75.855469 286.085938 L 88.128906 282.679688 C 88.390625 282.609375 88.664062 282.648438 88.890625 282.796875 L 93.65625 285.851562 C 93.96875 286.050781 94.132812 286.421875 94.078125 286.789062 C 94.019531 287.160156 93.75 287.464844 93.390625 287.5625 L 81.9375 290.742188 L 83.828125 302.476562 C 83.886719 302.847656 83.722656 303.21875 83.410156 303.425781 C 83.097656 303.632812 82.691406 303.632812 82.378906 303.433594 L 77.613281 300.375 C 77.386719 300.230469 77.238281 299.996094 77.191406 299.734375 L 75.167969 287.15625 C 75.089844 286.679688 75.386719 286.214844 75.855469 286.085938 Z M 75.855469 286.085938 " fill-opacity="1" fill-rule="nonzero"/></g></g></g><g clip-path="url(#1fd60c7ffb)"><g clip-path="url(#08d03dc619)"><g clip-path="url(#fba568acf8)"><path fill="#38b6ff" d="M 86.179688 292.710938 L 98.457031 289.304688 C 98.714844 289.234375 98.992188 289.273438 99.214844 289.417969 L 103.984375 292.476562 C 104.296875 292.675781 104.460938 293.042969 104.40625 293.414062 C 104.347656 293.785156 104.078125 294.089844 103.71875 294.1875 L 92.265625 297.367188 L 94.152344 309.101562 C 94.210938 309.46875 94.050781 309.84375 93.738281 310.046875 C 93.421875 310.253906 93.019531 310.257812 92.707031 310.058594 L 87.941406 307 C 87.714844 306.855469 87.5625 306.621094 87.519531 306.355469 L 85.496094 293.78125 C 85.417969 293.300781 85.714844 292.839844 86.179688 292.710938 Z M 86.179688 292.710938 " fill-opacity="1" fill-rule="nonzero"/></g></g></g><g clip-path="url(#cacb5dfd75)"><g clip-path="url(#ee11120d08)"><g clip-path="url(#716dbe63bc)"><path fill="#38b6ff" d="M 41.28125 262.910156 L 53.984375 261.964844 C 54.253906 261.945312 54.515625 262.039062 54.707031 262.222656 L 58.785156 266.152344 C 59.054688 266.410156 59.144531 266.800781 59.015625 267.15625 C 58.886719 267.507812 58.566406 267.753906 58.191406 267.777344 L 46.339844 268.664062 L 45.902344 280.539062 C 45.886719 280.914062 45.65625 281.246094 45.308594 281.386719 C 44.960938 281.53125 44.566406 281.453125 44.296875 281.195312 L 40.21875 277.269531 C 40.027344 277.082031 39.921875 276.824219 39.929688 276.554688 L 40.398438 263.824219 C 40.417969 263.339844 40.796875 262.945312 41.28125 262.910156 Z M 41.28125 262.910156 " fill-opacity="1" fill-rule="nonzero"/></g></g></g><g clip-path="url(#2aca54787d)"><g clip-path="url(#84bbdb455c)"><g clip-path="url(#22f4e95ce6)"><path fill="#38b6ff" d="M 50.117188 271.421875 L 62.820312 270.472656 C 63.089844 270.453125 63.351562 270.546875 63.542969 270.734375 L 67.621094 274.660156 C 67.890625 274.917969 67.980469 275.3125 67.855469 275.664062 C 67.722656 276.015625 67.402344 276.261719 67.03125 276.289062 L 55.175781 277.171875 L 54.738281 289.050781 C 54.726562 289.425781 54.492188 289.757812 54.144531 289.898438 C 53.796875 290.039062 53.402344 289.964844 53.132812 289.707031 L 49.054688 285.777344 C 48.863281 285.59375 48.761719 285.332031 48.765625 285.066406 L 49.234375 272.335938 C 49.253906 271.851562 49.636719 271.453125 50.117188 271.421875 Z M 50.117188 271.421875 " fill-opacity="1" fill-rule="nonzero"/></g></g></g><g clip-path="url(#945eb821da)"><g clip-path="url(#0b2493bd47)"><g clip-path="url(#9b7bc5d493)"><path fill="#5ce1e6" d="M 22.734375 226.0625 L 35.210938 228.632812 C 35.476562 228.6875 35.699219 228.851562 35.835938 229.082031 L 38.679688 233.976562 C 38.867188 234.296875 38.847656 234.703125 38.628906 235.003906 C 38.40625 235.308594 38.03125 235.457031 37.664062 235.378906 L 26.023438 232.980469 L 22.347656 244.285156 C 22.230469 244.640625 21.917969 244.898438 21.542969 244.9375 C 21.171875 244.976562 20.808594 244.796875 20.625 244.472656 L 17.777344 239.578125 C 17.644531 239.347656 17.617188 239.070312 17.695312 238.8125 L 21.636719 226.699219 C 21.785156 226.238281 22.261719 225.960938 22.734375 226.0625 Z M 22.734375 226.0625 " fill-opacity="1" fill-rule="nonzero"/></g></g></g><g clip-path="url(#09a0bbf153)"><g clip-path="url(#cc50570ecb)"><g clip-path="url(#ae8da972b1)"><path fill="#5ce1e6" d="M 28.898438 236.667969 L 41.375 239.238281 C 41.640625 239.296875 41.867188 239.457031 42 239.6875 L 44.847656 244.582031 C 45.035156 244.90625 45.011719 245.308594 44.792969 245.613281 C 44.574219 245.914062 44.195312 246.0625 43.832031 245.984375 L 32.1875 243.585938 L 28.511719 254.890625 C 28.394531 255.246094 28.082031 255.503906 27.710938 255.542969 C 27.335938 255.582031 26.976562 255.402344 26.789062 255.082031 L 23.941406 250.183594 C 23.808594 249.953125 23.78125 249.675781 23.859375 249.421875 L 27.800781 237.304688 C 27.949219 236.847656 28.425781 236.570312 28.898438 236.667969 Z M 28.898438 236.667969 " fill-opacity="1" fill-rule="nonzero"/></g></g></g><g clip-path="url(#fe23437df2)"><path fill="#38b6ff" d="M 20.015625 172.027344 L 29.507812 180.519531 C 29.710938 180.699219 29.824219 180.953125 29.824219 181.222656 L 29.824219 186.882812 C 29.824219 187.257812 29.605469 187.59375 29.261719 187.746094 C 28.917969 187.898438 28.515625 187.835938 28.242188 187.585938 L 19.378906 179.660156 L 10.523438 187.585938 C 10.242188 187.835938 9.84375 187.898438 9.5 187.746094 C 9.15625 187.59375 8.9375 187.257812 8.9375 186.882812 L 8.9375 181.222656 C 8.9375 180.953125 9.050781 180.699219 9.25 180.519531 L 18.746094 172.027344 C 19.105469 171.703125 19.65625 171.703125 20.015625 172.027344 Z M 20.015625 172.027344 " fill-opacity="1" fill-rule="nonzero"/></g><g clip-path="url(#5b321b2aa9)"><path fill="#38b6ff" d="M 20.015625 184.292969 L 29.507812 192.789062 C 29.710938 192.96875 29.824219 193.222656 29.824219 193.488281 L 29.824219 199.152344 C 29.824219 199.523438 29.605469 199.863281 29.261719 200.015625 C 28.917969 200.164062 28.515625 200.105469 28.242188 199.855469 L 19.378906 191.929688 L 10.523438 199.855469 C 10.242188 200.105469 9.84375 200.167969 9.5 200.015625 C 9.15625 199.863281 8.9375 199.523438 8.9375 199.152344 L 8.9375 193.488281 C 8.9375 193.222656 9.050781 192.96875 9.25 192.789062 L 18.746094 184.292969 C 19.105469 183.972656 19.65625 183.972656 20.015625 184.292969 Z M 20.015625 184.292969 " fill-opacity="1" fill-rule="nonzero"/></g><g clip-path="url(#5064ff4e9d)"><g clip-path="url(#dba22cf1d9)"><g clip-path="url(#f67e75f562)"><path fill="#38b6ff" d="M 38.21875 122.101562 L 41.183594 134.492188 C 41.246094 134.753906 41.195312 135.027344 41.042969 135.246094 L 37.816406 139.902344 C 37.605469 140.207031 37.230469 140.359375 36.863281 140.289062 C 36.496094 140.21875 36.203125 139.941406 36.117188 139.578125 L 33.347656 128.015625 L 21.554688 129.484375 C 21.183594 129.53125 20.816406 129.355469 20.621094 129.035156 C 20.425781 128.714844 20.4375 128.308594 20.648438 128.003906 L 23.875 123.351562 C 24.027344 123.128906 24.269531 122.988281 24.53125 122.953125 L 37.175781 121.378906 C 37.65625 121.320312 38.105469 121.632812 38.21875 122.101562 Z M 38.21875 122.101562 " fill-opacity="1" fill-rule="nonzero"/></g></g></g><g clip-path="url(#12915c5a3b)"><g clip-path="url(#bce3a1d934)"><g clip-path="url(#0843a3ca73)"><path fill="#38b6ff" d="M 31.230469 132.1875 L 34.195312 144.574219 C 34.257812 144.839844 34.207031 145.109375 34.054688 145.332031 L 30.828125 149.984375 C 30.617188 150.289062 30.246094 150.441406 29.875 150.375 C 29.507812 150.300781 29.214844 150.023438 29.128906 149.660156 L 26.359375 138.101562 L 14.566406 139.566406 C 14.195312 139.613281 13.828125 139.4375 13.632812 139.117188 C 13.4375 138.796875 13.449219 138.394531 13.664062 138.085938 L 16.886719 133.433594 C 17.039062 133.214844 17.28125 133.070312 17.546875 133.035156 L 30.1875 131.460938 C 30.667969 131.402344 31.121094 131.714844 31.230469 132.1875 Z M 31.230469 132.1875 " fill-opacity="1" fill-rule="nonzero"/></g></g></g><g clip-path="url(#7d0293e2cd)"><g clip-path="url(#37e634aa64)"><g clip-path="url(#b645793787)"><path fill="#38b6ff" d="M 65.816406 90.09375 L 65.914062 102.832031 C 65.917969 103.101562 65.804688 103.355469 65.609375 103.535156 L 61.417969 107.34375 C 61.140625 107.59375 60.742188 107.660156 60.402344 107.507812 C 60.058594 107.355469 59.835938 107.015625 59.832031 106.644531 L 59.742188 94.757812 L 47.917969 93.53125 C 47.546875 93.492188 47.230469 93.238281 47.113281 92.882812 C 46.996094 92.523438 47.097656 92.136719 47.371094 91.886719 L 51.5625 88.078125 C 51.761719 87.898438 52.027344 87.8125 52.292969 87.835938 L 64.964844 89.152344 C 65.445312 89.203125 65.816406 89.609375 65.816406 90.09375 Z M 65.816406 90.09375 " fill-opacity="1" fill-rule="nonzero"/></g></g></g><g clip-path="url(#b54b84ed3d)"><g clip-path="url(#2165a2a536)"><g clip-path="url(#011afb1e3b)"><path fill="#38b6ff" d="M 56.738281 98.34375 L 56.835938 111.082031 C 56.835938 111.351562 56.726562 111.605469 56.527344 111.785156 L 52.335938 115.59375 C 52.0625 115.84375 51.664062 115.90625 51.320312 115.757812 C 50.976562 115.605469 50.753906 115.265625 50.753906 114.894531 L 50.660156 103.007812 L 38.839844 101.78125 C 38.464844 101.742188 38.148438 101.488281 38.03125 101.132812 C 37.914062 100.773438 38.015625 100.382812 38.292969 100.132812 L 42.480469 96.328125 C 42.679688 96.148438 42.945312 96.0625 43.210938 96.085938 L 55.882812 97.402344 C 56.363281 97.453125 56.734375 97.859375 56.738281 98.34375 Z M 56.738281 98.34375 " fill-opacity="1" fill-rule="nonzero"/></g></g></g><g clip-path="url(#2ead9f6381)"><g clip-path="url(#1752a42668)"><g clip-path="url(#d47ced7baf)"><path fill="#5ce1e6" d="M 100.488281 72.246094 L 97.054688 84.511719 C 96.980469 84.773438 96.800781 84.988281 96.5625 85.105469 L 91.480469 87.601562 C 91.148438 87.765625 90.746094 87.71875 90.457031 87.480469 C 90.171875 87.238281 90.050781 86.851562 90.152344 86.492188 L 93.355469 75.042969 L 82.335938 70.589844 C 81.988281 70.449219 81.753906 70.121094 81.742188 69.746094 C 81.726562 69.367188 81.933594 69.023438 82.265625 68.859375 L 87.347656 66.359375 C 87.589844 66.242188 87.867188 66.234375 88.117188 66.332031 L 99.925781 71.105469 C 100.375 71.285156 100.617188 71.78125 100.488281 72.246094 Z M 100.488281 72.246094 " fill-opacity="1" fill-rule="nonzero"/></g></g></g><g clip-path="url(#9bce11cb68)"><g clip-path="url(#1c59c3f478)"><g clip-path="url(#7fad188032)"><path fill="#5ce1e6" d="M 89.476562 77.65625 L 86.042969 89.925781 C 85.96875 90.183594 85.792969 90.398438 85.550781 90.515625 L 80.472656 93.015625 C 80.136719 93.179688 79.738281 93.128906 79.449219 92.890625 C 79.160156 92.648438 79.039062 92.261719 79.140625 91.902344 L 82.347656 80.457031 L 71.324219 76.003906 C 70.980469 75.863281 70.746094 75.53125 70.730469 75.15625 C 70.71875 74.78125 70.921875 74.433594 71.257812 74.269531 L 76.339844 71.773438 C 76.578125 71.65625 76.855469 71.648438 77.105469 71.742188 L 88.917969 76.515625 C 89.367188 76.699219 89.609375 77.191406 89.476562 77.65625 Z M 89.476562 77.65625 " fill-opacity="1" fill-rule="nonzero"/></g></g></g><g clip-path="url(#4e89c411fa)"><path fill="#38b6ff" d="M 146.195312 68.148438 L 137.703125 77.640625 C 137.519531 77.84375 137.265625 77.957031 137 77.957031 L 131.335938 77.957031 C 130.964844 77.957031 130.628906 77.738281 130.472656 77.394531 C 130.324219 77.050781 130.386719 76.652344 130.636719 76.375 L 138.558594 67.515625 L 130.636719 58.65625 C 130.386719 58.375 130.320312 57.976562 130.472656 57.632812 C 130.628906 57.289062 130.964844 57.070312 131.335938 57.070312 L 137 57.070312 C 137.265625 57.070312 137.519531 57.1875 137.703125 57.382812 L 146.195312 66.878906 C 146.515625 67.238281 146.515625 67.789062 146.195312 68.148438 Z M 146.195312 68.148438 " fill-opacity="1" fill-rule="nonzero"/></g><g clip-path="url(#af817b4aa6)"><path fill="#38b6ff" d="M 133.925781 68.148438 L 125.433594 77.640625 C 125.25 77.84375 125 77.957031 124.730469 77.957031 L 119.070312 77.957031 C 118.695312 77.957031 118.359375 77.738281 118.207031 77.394531 C 118.054688 77.050781 118.117188 76.652344 118.367188 76.375 L 126.292969 67.515625 L 118.367188 58.65625 C 118.117188 58.375 118.054688 57.976562 118.207031 57.632812 C 118.359375 57.289062 118.695312 57.070312 119.070312 57.070312 L 124.730469 57.070312 C 125 57.070312 125.25 57.1875 125.433594 57.382812 L 133.925781 66.878906 C 134.25 67.238281 134.25 67.789062 133.925781 68.148438 Z M 133.925781 68.148438 " fill-opacity="1" fill-rule="nonzero"/></g><g clip-path="url(#243db06a22)"><g clip-path="url(#6e6e12679d)"><g clip-path="url(#993ebc190c)"><path fill="#38b6ff" d="M 182.71875 68.148438 L 173.941406 77.382812 C 173.753906 77.578125 173.5 77.6875 173.230469 77.675781 L 167.570312 77.507812 C 167.199219 77.496094 166.871094 77.265625 166.726562 76.917969 C 166.585938 76.570312 166.660156 76.171875 166.917969 75.902344 L 175.105469 67.285156 L 167.453125 58.191406 C 167.210938 57.90625 167.160156 57.503906 167.320312 57.167969 C 167.484375 56.828125 167.828125 56.617188 168.199219 56.628906 L 173.859375 56.800781 C 174.128906 56.808594 174.378906 56.929688 174.554688 57.132812 L 182.757812 66.878906 C 183.066406 67.25 183.050781 67.800781 182.71875 68.148438 Z M 182.71875 68.148438 " fill-opacity="1" fill-rule="nonzero"/></g></g></g><g clip-path="url(#f27ee9ed1d)"><g clip-path="url(#cea2d1bb8f)"><g clip-path="url(#217b3232f4)"><path fill="#38b6ff" d="M 170.457031 67.78125 L 161.679688 77.015625 C 161.492188 77.210938 161.238281 77.316406 160.96875 77.308594 L 155.308594 77.136719 C 154.9375 77.125 154.605469 76.894531 154.464844 76.550781 C 154.324219 76.203125 154.398438 75.804688 154.65625 75.535156 L 162.84375 66.917969 L 155.1875 57.824219 C 154.949219 57.539062 154.894531 57.136719 155.058594 56.796875 C 155.222656 56.460938 155.566406 56.25 155.9375 56.261719 L 161.597656 56.429688 C 161.867188 56.4375 162.113281 56.5625 162.289062 56.765625 L 170.492188 66.511719 C 170.804688 66.882812 170.789062 67.429688 170.457031 67.78125 Z M 170.457031 67.78125 " fill-opacity="1" fill-rule="nonzero"/></g></g></g><g clip-path="url(#31cfdd7cfe)"><g clip-path="url(#0c7f84826b)"><g clip-path="url(#5f18d0026c)"><path fill="#38b6ff" d="M 294.371094 68.148438 L 285.59375 77.382812 C 285.40625 77.578125 285.152344 77.6875 284.882812 77.675781 L 279.222656 77.507812 C 278.851562 77.496094 278.523438 77.265625 278.378906 76.917969 C 278.238281 76.570312 278.3125 76.171875 278.570312 75.902344 L 286.757812 67.285156 L 279.105469 58.191406 C 278.863281 57.90625 278.8125 57.503906 278.972656 57.167969 C 279.136719 56.828125 279.480469 56.617188 279.851562 56.628906 L 285.511719 56.800781 C 285.78125 56.808594 286.03125 56.929688 286.207031 57.132812 L 294.410156 66.878906 C 294.71875 67.25 294.703125 67.800781 294.371094 68.148438 Z M 294.371094 68.148438 " fill-opacity="1" fill-rule="nonzero"/></g></g></g><g clip-path="url(#e3263203d3)"><g clip-path="url(#ad7fa556ee)"><g clip-path="url(#7c09d92047)"><path fill="#38b6ff" d="M 282.109375 67.78125 L 273.332031 77.015625 C 273.144531 77.210938 272.890625 77.316406 272.621094 77.308594 L 266.960938 77.136719 C 266.589844 77.125 266.257812 76.894531 266.117188 76.550781 C 265.976562 76.203125 266.050781 75.804688 266.308594 75.535156 L 274.496094 66.917969 L 266.839844 57.824219 C 266.601562 57.539062 266.546875 57.136719 266.710938 56.796875 C 266.875 56.460938 267.21875 56.25 267.589844 56.261719 L 273.25 56.429688 C 273.519531 56.4375 273.765625 56.5625 273.941406 56.765625 L 282.144531 66.511719 C 282.457031 66.882812 282.441406 67.429688 282.109375 67.78125 Z M 282.109375 67.78125 " fill-opacity="1" fill-rule="nonzero"/></g></g></g><g clip-path="url(#faefc982b6)"><g clip-path="url(#a6ee3c9d26)"><g clip-path="url(#d2c8085eb1)"><path fill="#5ce1e6" d="M 257.246094 68.148438 L 248.46875 77.382812 C 248.28125 77.578125 248.027344 77.6875 247.757812 77.675781 L 242.097656 77.507812 C 241.726562 77.496094 241.398438 77.265625 241.253906 76.917969 C 241.113281 76.570312 241.1875 76.171875 241.445312 75.902344 L 249.632812 67.285156 L 241.980469 58.191406 C 241.738281 57.90625 241.6875 57.503906 241.847656 57.167969 C 242.011719 56.828125 242.355469 56.617188 242.726562 56.628906 L 248.386719 56.800781 C 248.65625 56.808594 248.90625 56.929688 249.082031 57.132812 L 257.285156 66.878906 C 257.59375 67.25 257.578125 67.800781 257.246094 68.148438 Z M 257.246094 68.148438 " fill-opacity="1" fill-rule="nonzero"/></g></g></g><g clip-path="url(#aef6ca9cdf)"><g clip-path="url(#7b500e5c4e)"><g clip-path="url(#91bb1f2ed0)"><path fill="#5ce1e6" d="M 244.984375 67.78125 L 236.207031 77.015625 C 236.019531 77.210938 235.765625 77.316406 235.496094 77.308594 L 229.835938 77.136719 C 229.464844 77.125 229.132812 76.894531 228.992188 76.550781 C 228.851562 76.203125 228.925781 75.804688 229.183594 75.535156 L 237.371094 66.917969 L 229.714844 57.824219 C 229.476562 57.539062 229.421875 57.136719 229.585938 56.796875 C 229.75 56.460938 230.09375 56.25 230.464844 56.261719 L 236.125 56.429688 C 236.394531 56.4375 236.640625 56.5625 236.816406 56.765625 L 245.019531 66.511719 C 245.332031 66.882812 245.316406 67.429688 244.984375 67.78125 Z M 244.984375 67.78125 " fill-opacity="1" fill-rule="nonzero"/></g></g></g><g clip-path="url(#cfaf4a523a)"><g clip-path="url(#fc1838c37e)"><g clip-path="url(#1805c15c74)"><path fill="#38b6ff" d="M 220.730469 68.148438 L 211.953125 77.382812 C 211.765625 77.578125 211.511719 77.6875 211.242188 77.675781 L 205.582031 77.507812 C 205.210938 77.496094 204.878906 77.265625 204.738281 76.917969 C 204.597656 76.570312 204.671875 76.171875 204.929688 75.902344 L 213.117188 67.285156 L 205.460938 58.191406 C 205.222656 57.90625 205.167969 57.503906 205.332031 57.167969 C 205.496094 56.828125 205.839844 56.617188 206.210938 56.628906 L 211.871094 56.800781 C 212.140625 56.808594 212.386719 56.929688 212.5625 57.132812 L 220.765625 66.878906 C 221.078125 67.25 221.0625 67.800781 220.730469 68.148438 Z M 220.730469 68.148438 " fill-opacity="1" fill-rule="nonzero"/></g></g></g><g clip-path="url(#4b4fb400db)"><g clip-path="url(#b26c378654)"><g clip-path="url(#05d9cc91ff)"><path fill="#38b6ff" d="M 208.464844 67.78125 L 199.691406 77.015625 C 199.503906 77.210938 199.246094 77.316406 198.980469 77.308594 L 193.320312 77.136719 C 192.949219 77.125 192.617188 76.894531 192.476562 76.550781 C 192.335938 76.203125 192.410156 75.804688 192.664062 75.535156 L 200.855469 66.917969 L 193.199219 57.824219 C 192.957031 57.539062 192.90625 57.136719 193.070312 56.796875 C 193.234375 56.460938 193.578125 56.25 193.949219 56.261719 L 199.609375 56.429688 C 199.875 56.4375 200.125 56.5625 200.300781 56.765625 L 208.503906 66.511719 C 208.816406 66.882812 208.800781 67.429688 208.464844 67.78125 Z M 208.464844 67.78125 " fill-opacity="1" fill-rule="nonzero"/></g></g></g></svg>