<svg xmlns="http://www.w3.org/2000/svg" width="450" viewBox="0 0 337.5 375" height="500" version="1.0"><defs><clipPath id="prefix__a"><path d="M0 52.777h303.75V323H0zm0 0"/></clipPath><clipPath id="prefix__b"><path d="M7.918 142.824C3.137 156.668 0 172.406 0 187.852c0 15.445 2.688 30.304 7.469 44.003.152.29.152.583.3.875 19.122 51.434 69.622 89.317 127.887 90.047H303.75v-270H135.781C77.094 53.504 26.594 90.81 7.918 142.824"/></clipPath><clipPath id="prefix__c"><path d="M0 52.777h303.75v270H0zm0 0"/></clipPath><clipPath id="prefix__d"><path d="M7.918 142.824C3.137 156.668 0 172.406 0 187.852c0 15.445 2.688 30.304 7.469 44.003.152.29.152.583.3.875 19.122 51.434 69.622 89.317 127.887 90.047H303.75v-270H135.781C77.094 53.504 26.594 90.81 7.918 142.824"/></clipPath><clipPath id="prefix__e"><path d="M33 78h217v217H33zm0 0"/></clipPath><clipPath id="prefix__f"><path d="M294.484 186.02L141.547 338.957-11.395 186.02 141.547 33.078zm0 0"/></clipPath><clipPath id="prefix__g"><path d="M218.117 262.387c42.176-42.176 42.176-110.559 0-152.735-42.176-42.18-110.558-42.18-152.734 0-42.176 42.176-42.176 110.559 0 152.735 42.176 42.175 110.558 42.175 152.734 0"/></clipPath><clipPath id="prefix__h"><path d="M33 78h217v217H33zm0 0"/></clipPath><clipPath id="prefix__i"><path d="M294.484 186.02L141.75 338.754-10.984 186.02 141.75 33.28zm0 0"/></clipPath><clipPath id="prefix__j"><path d="M294.484 186.02L139.59 340.914-15.305 186.02 139.59 31.125zm0 0"/></clipPath><clipPath id="prefix__k"><path d="M218.117 262.387c42.176-42.176 42.176-110.559 0-152.735-42.176-42.18-110.558-42.18-152.734 0-42.176 42.176-42.176 110.559 0 152.735 42.176 42.175 110.558 42.175 152.734 0"/></clipPath><clipPath id="prefix__l"><path d="M161 203h36v36h-36zm0 0"/></clipPath><clipPath id="prefix__m"><path d="M196.605 225.84l-12.792 12.89-22.665-22.484 12.797-12.894zm0 0"/></clipPath><clipPath id="prefix__n"><path d="M196.605 225.84l-12.515 12.61-22.52-22.348 12.512-12.614zm0 0"/></clipPath><clipPath id="prefix__o"><path d="M79 186h36v26H79zm0 0"/></clipPath><clipPath id="prefix__p"><path d="M110.563 186.426l4.578 17.578-30.895 8.043-4.578-17.578zm0 0"/></clipPath><clipPath id="prefix__q"><path d="M110.563 186.426l4.476 17.191-30.703 7.996-4.477-17.195zm0 0"/></clipPath><clipPath id="prefix__r"><path d="M97 139h83v82H97zm0 0"/></clipPath><clipPath id="prefix__s"><path d="M116.469 128.258l82.281 22.11-19.2 71.452-82.28-22.11zm0 0"/></clipPath><clipPath id="prefix__t"><path d="M157.297 139.227l21.808 81.734-81.648-21.941 59.84-59.793"/></clipPath><clipPath id="prefix__u"><path d="M142 129h26v36h-26zm0 0"/></clipPath><clipPath id="prefix__v"><path d="M150.762 129.297l17.539 4.715-8.281 30.828-17.543-4.711zm0 0"/></clipPath><clipPath id="prefix__w"><path d="M150.762 129.297l17.156 4.61-8.234 30.64-17.157-4.61zm0 0"/></clipPath><clipPath id="prefix__x"><path d="M136 83h57v57h-57zm0 0"/></clipPath><clipPath id="prefix__y"><path d="M130.156 130.602l15.668-53.368 53.371 15.664-15.668 53.372zm0 0"/></clipPath><clipPath id="prefix__z"><path d="M137.992 103.918c-4.328 14.738 4.113 30.191 18.852 34.52 14.738 4.324 30.191-4.114 34.52-18.852 4.323-14.738-4.118-30.191-18.852-34.52-14.739-4.328-30.196 4.114-34.52 18.852"/></clipPath><clipPath id="prefix__A"><path d="M136 84h57v56h-57zm0 0"/></clipPath><clipPath id="prefix__B"><path d="M130.156 130.602l15.633-53.25 53.254 15.632-15.633 53.25zm0 0"/></clipPath><clipPath id="prefix__C"><path d="M130.156 130.602l15.633-53.25 53.254 15.632-15.633 53.25zm0 0"/></clipPath><clipPath id="prefix__D"><path d="M137.973 103.977c-4.317 14.707 4.105 30.125 18.812 34.441 14.703 4.316 30.125-4.102 34.442-18.809 4.316-14.707-4.106-30.125-18.809-34.441-14.707-4.32-30.129 4.102-34.445 18.809"/></clipPath><clipPath id="prefix__E"><path d="M40 178h57v57H40zm0 0"/></clipPath><clipPath id="prefix__F"><path d="M34.445 187.043l53.742-14.336 14.336 53.742-53.742 14.336zm0 0"/></clipPath><clipPath id="prefix__G"><path d="M61.316 179.875c-14.84 3.96-23.664 19.2-19.703 34.04 3.957 14.843 19.2 23.663 34.04 19.702 14.84-3.957 23.663-19.199 19.702-34.039-3.96-14.84-19.199-23.66-34.039-19.703"/></clipPath><clipPath id="prefix__H"><path d="M40 178h57v57H40zm0 0"/></clipPath><clipPath id="prefix__I"><path d="M34.445 187.043l53.625-14.305 14.305 53.625-53.625 14.305zm0 0"/></clipPath><clipPath id="prefix__J"><path d="M34.445 187.043l53.625-14.305 14.305 53.625-53.625 14.305zm0 0"/></clipPath><clipPath id="prefix__K"><path d="M61.258 179.89c-14.809 3.95-23.61 19.157-19.66 33.965 3.949 14.81 19.156 23.61 33.965 19.66 14.808-3.949 23.609-19.156 19.66-33.964-3.953-14.809-19.16-23.61-33.965-19.66"/></clipPath><clipPath id="prefix__L"><path d="M169 211h57v57h-57zm0 0"/></clipPath><clipPath id="prefix__M"><path d="M157.902 239.367l39.332-39.328 39.328 39.328-39.328 39.332zm0 0"/></clipPath><clipPath id="prefix__N"><path d="M177.566 219.703c-10.859 10.86-10.859 28.469 0 39.332 10.864 10.86 28.473 10.86 39.332 0 10.86-10.863 10.86-28.473 0-39.332-10.859-10.86-28.468-10.86-39.332 0"/></clipPath><clipPath id="prefix__O"><path d="M169 211h56v57h-56zm0 0"/></clipPath><clipPath id="prefix__P"><path d="M157.902 239.367l39.243-39.242 39.246 39.242-39.246 39.246zm0 0"/></clipPath><clipPath id="prefix__Q"><path d="M157.902 239.367l39.243-39.242 39.246 39.242-39.246 39.246zm0 0"/></clipPath><clipPath id="prefix__R"><path d="M177.523 219.746c-10.835 10.836-10.835 28.406 0 39.246 10.836 10.836 28.407 10.836 39.247 0 10.835-10.84 10.835-28.41 0-39.246-10.84-10.836-28.41-10.836-39.247 0"/></clipPath><clipPath id="prefix__S"><path d="M157 104h15v15h-15zm0 0"/></clipPath><clipPath id="prefix__T"><path d="M159.742 103.203l13.48 3.621-3.62 13.48-13.48-3.62zm0 0"/></clipPath><clipPath id="prefix__U"><path d="M166.484 105.016a6.979 6.979 0 10-3.625 13.48 6.979 6.979 0 103.625-13.48"/></clipPath><clipPath id="prefix__V"><path d="M61 199h15v15H61zm0 0"/></clipPath><clipPath id="prefix__W"><path d="M73.422 198.203l3.598 13.488-13.485 3.598-3.601-13.488zm0 0"/></clipPath><clipPath id="prefix__X"><path d="M75.223 204.945a6.98 6.98 0 00-8.543-4.941 6.978 6.978 0 103.597 13.484 6.981 6.981 0 004.946-8.543"/></clipPath><clipPath id="prefix__Y"><path d="M190 231h15v15h-15zm0 0"/></clipPath><clipPath id="prefix__Z"><path d="M193.02 230.07l13.48 3.621-3.621 13.48-13.48-3.62zm0 0"/></clipPath><clipPath id="prefix__aa"><path d="M199.758 231.879a6.979 6.979 0 00-8.551 4.93 6.979 6.979 0 1013.48 3.625 6.985 6.985 0 00-4.93-8.555"/></clipPath><clipPath id="prefix__ab"><path d="M192 150h26v43h-26zm0 0"/></clipPath><clipPath id="prefix__ac"><path d="M208.469 194.93l-16.172-44.395 12.683-4.62 16.176 44.394zm0 0"/></clipPath><clipPath id="prefix__ad"><path d="M192.23 150.36l16.176 44.394 12.684-4.621-16.176-44.395zm0 0"/></clipPath><clipPath id="prefix__ae"><path d="M192.23 150.36l16.176 44.394 12.684-4.621-16.176-44.395zm0 0"/></clipPath><clipPath id="prefix__af"><path d="M200 155h1v1h-1zm0 0"/></clipPath><clipPath id="prefix__ag"><path d="M208.469 194.93l-16.172-44.395 12.683-4.62 16.176 44.394zm0 0"/></clipPath><clipPath id="prefix__ah"><path d="M192.23 150.36l16.176 44.394 12.684-4.621-16.176-44.395zm0 0"/></clipPath><clipPath id="prefix__ai"><path d="M192.23 150.36l16.176 44.394 12.684-4.621-16.176-44.395zm0 0"/></clipPath><clipPath id="prefix__aj"><path d="M105 241h47v18h-47zm0 0"/></clipPath><clipPath id="prefix__ak"><path d="M106.328 238.754l45.613 12.328-3.523 13.031-45.613-12.324zm0 0"/></clipPath><clipPath id="prefix__al"><path d="M152.121 251.133l-45.613-12.328-3.52 13.03 45.614 12.33zm0 0"/></clipPath><clipPath id="prefix__am"><path d="M152.121 251.133l-45.613-12.328-3.52 13.03 45.614 12.33zm0 0"/></clipPath><clipPath id="prefix__an"><path d="M143 255h1v1h-1zm0 0"/></clipPath><clipPath id="prefix__ao"><path d="M106.328 238.754l45.613 12.328-3.523 13.031-45.613-12.324zm0 0"/></clipPath><clipPath id="prefix__ap"><path d="M152.121 251.133l-45.613-12.328-3.52 13.03 45.614 12.33zm0 0"/></clipPath><clipPath id="prefix__aq"><path d="M152.121 251.133l-45.613-12.328-3.52 13.03 45.614 12.33zm0 0"/></clipPath><clipPath id="prefix__ar"><path d="M80 124h35v37H80zm0 0"/></clipPath><clipPath id="prefix__as"><path d="M117.82 130.172l-36.129 30.453-8.699-10.324 36.125-30.453zm0 0"/></clipPath><clipPath id="prefix__at"><path d="M81.547 160.746l36.129-30.453-8.703-10.324-36.125 30.453zm0 0"/></clipPath><clipPath id="prefix__au"><path d="M81.547 160.746l36.129-30.453-8.703-10.324-36.125 30.453zm0 0"/></clipPath><clipPath id="prefix__av"><path d="M83 151h1v1h-1zm0 0"/></clipPath><clipPath id="prefix__aw"><path d="M117.82 130.172l-36.129 30.453-8.699-10.324 36.125-30.453zm0 0"/></clipPath><clipPath id="prefix__ax"><path d="M81.547 160.746l36.129-30.453-8.703-10.324-36.125 30.453zm0 0"/></clipPath><clipPath id="prefix__ay"><path d="M81.547 160.746l36.129-30.453-8.703-10.324-36.125 30.453zm0 0"/></clipPath><clipPath id="prefix__az"><path d="M266.625 297.129H283v21h-16.375zm0 0"/></clipPath><clipPath id="prefix__aA"><path d="M278 297.129h16.785v21H278zm0 0"/></clipPath><clipPath id="prefix__aB"><path d="M229.5 297.129H246v21h-16.5zm0 0"/></clipPath><clipPath id="prefix__aC"><path d="M241 297.129h16.66v21H241zm0 0"/></clipPath><clipPath id="prefix__aD"><path d="M192.375 297.129H209v21h-16.625zm0 0"/></clipPath><clipPath id="prefix__aE"><path d="M204 297.129h16.535v21H204zm0 0"/></clipPath><clipPath id="prefix__aF"><path d="M155.25 297.129H172v21h-16.75zm0 0"/></clipPath><clipPath id="prefix__aG"><path d="M167 297.129h16.41v21H167zm0 0"/></clipPath><clipPath id="prefix__aH"><path d="M117 297h18v22h-18zm0 0"/></clipPath><clipPath id="prefix__aI"><path d="M117.945 297.379l28.496-.504.371 20.996-28.496.504zm0 0"/></clipPath><clipPath id="prefix__aJ"><path d="M146.102 296.879l-28.497.504.372 20.996 28.496-.504zm0 0"/></clipPath><clipPath id="prefix__aK"><path d="M130 296h17v22h-17zm0 0"/></clipPath><clipPath id="prefix__aL"><path d="M117.945 297.379l28.496-.504.371 20.996-28.496.504zm0 0"/></clipPath><clipPath id="prefix__aM"><path d="M146.102 296.879l-28.497.504.372 20.996 28.496-.504zm0 0"/></clipPath><clipPath id="prefix__aN"><path d="M75 282h20v22H75zm0 0"/></clipPath><clipPath id="prefix__aO"><path d="M81.105 277.734l23.989 15.387-11.336 17.676-23.992-15.387zm0 0"/></clipPath><clipPath id="prefix__aP"><path d="M104.809 292.938L80.816 277.55 69.48 295.227l23.989 15.386zm0 0"/></clipPath><clipPath id="prefix__aQ"><path d="M85 289h20v22H85zm0 0"/></clipPath><clipPath id="prefix__aR"><path d="M81.105 277.734l23.989 15.387-11.336 17.676-23.992-15.387zm0 0"/></clipPath><clipPath id="prefix__aS"><path d="M104.809 292.938L80.816 277.55 69.48 295.227l23.989 15.386zm0 0"/></clipPath><clipPath id="prefix__aT"><path d="M39 261h21v21H39zm0 0"/></clipPath><clipPath id="prefix__aU"><path d="M48.059 255.742l20.527 19.77-14.566 15.125-20.528-19.77zm0 0"/></clipPath><clipPath id="prefix__aV"><path d="M68.34 275.277l-20.528-19.773-14.566 15.129 20.527 19.77zm0 0"/></clipPath><clipPath id="prefix__aW"><path d="M48 270h20v20H48zm0 0"/></clipPath><clipPath id="prefix__aX"><path d="M48.059 255.742l20.527 19.77-14.566 15.125-20.528-19.77zm0 0"/></clipPath><clipPath id="prefix__aY"><path d="M68.34 275.277l-20.528-19.773-14.566 15.129 20.527 19.77zm0 0"/></clipPath><clipPath id="prefix__aZ"><path d="M17 226h22v19H17zm0 0"/></clipPath><clipPath id="prefix__ba"><path d="M31.219 221.023l14.32 24.641-18.152 10.555-14.325-24.64zm0 0"/></clipPath><clipPath id="prefix__bb"><path d="M45.371 245.371l-14.324-24.64-18.156 10.554 14.324 24.64zm0 0"/></clipPath><clipPath id="prefix__bc"><path d="M23 236h22v20H23zm0 0"/></clipPath><clipPath id="prefix__bd"><path d="M31.219 221.023l14.32 24.641-18.152 10.555-14.325-24.64zm0 0"/></clipPath><clipPath id="prefix__be"><path d="M45.371 245.371l-14.324-24.64-18.156 10.554 14.324 24.64zm0 0"/></clipPath><clipPath id="prefix__bf"><path d="M8.879 171.938h21V188h-21zm0 0"/></clipPath><clipPath id="prefix__bg"><path d="M8.879 184h21v16.098h-21zm0 0"/></clipPath><clipPath id="prefix__bh"><path d="M20 121h22v20H20zm0 0"/></clipPath><clipPath id="prefix__bi"><path d="M46.379 127.648l-16.234 23.426-17.262-11.965 16.234-23.422zm0 0"/></clipPath><clipPath id="prefix__bj"><path d="M30.34 150.793l16.234-23.426-17.261-11.96-16.235 23.425zm0 0"/></clipPath><clipPath id="prefix__bk"><path d="M13 131h22v20H13zm0 0"/></clipPath><clipPath id="prefix__bl"><path d="M46.379 127.648l-16.234 23.426-17.262-11.965 16.234-23.422zm0 0"/></clipPath><clipPath id="prefix__bm"><path d="M30.34 150.793l16.234-23.426-17.261-11.96-16.235 23.425zm0 0"/></clipPath><clipPath id="prefix__bn"><path d="M47 87h19v21H47zm0 0"/></clipPath><clipPath id="prefix__bo"><path d="M72.52 97.332L51.426 116.5l-14.121-15.543 21.093-19.168zm0 0"/></clipPath><clipPath id="prefix__bp"><path d="M51.676 116.27L72.77 97.105 58.648 81.562l-21.093 19.165zm0 0"/></clipPath><clipPath id="prefix__bq"><path d="M37 96h20v20H37zm0 0"/></clipPath><clipPath id="prefix__br"><path d="M72.52 97.332L51.426 116.5l-14.121-15.543 21.093-19.168zm0 0"/></clipPath><clipPath id="prefix__bs"><path d="M51.676 116.27L72.77 97.105 58.648 81.562l-21.093 19.165zm0 0"/></clipPath><clipPath id="prefix__bt"><path d="M81 66h20v22H81zm0 0"/></clipPath><clipPath id="prefix__bu"><path d="M104.922 81.059L79.344 93.633l-9.266-18.848 25.578-12.57zm0 0"/></clipPath><clipPath id="prefix__bv"><path d="M79.648 93.48l25.579-12.57-9.266-18.847-25.578 12.574zm0 0"/></clipPath><clipPath id="prefix__bw"><path d="M70 71h20v23H70zm0 0"/></clipPath><clipPath id="prefix__bx"><path d="M104.922 81.059L79.344 93.633l-9.266-18.848 25.578-12.57zm0 0"/></clipPath><clipPath id="prefix__by"><path d="M79.648 93.48l25.579-12.57-9.266-18.847-25.578 12.574zm0 0"/></clipPath><clipPath id="prefix__bz"><path d="M130 57.012h16.285V78H130zm0 0"/></clipPath><clipPath id="prefix__bA"><path d="M118.125 57.012H135V78h-16.875zm0 0"/></clipPath><clipPath id="prefix__bB"><path d="M166 56h17v22h-17zm0 0"/></clipPath><clipPath id="prefix__bC"><path d="M182.512 78.012l-28.489-.856.633-20.992 28.489.86zm0 0"/></clipPath><clipPath id="prefix__bD"><path d="M154.363 77.164l28.489.86.632-20.989-28.488-.86zm0 0"/></clipPath><clipPath id="prefix__bE"><path d="M154 56h17v22h-17zm0 0"/></clipPath><clipPath id="prefix__bF"><path d="M182.512 78.012l-28.489-.856.633-20.992 28.489.86zm0 0"/></clipPath><clipPath id="prefix__bG"><path d="M154.363 77.164l28.489.86.632-20.989-28.488-.86zm0 0"/></clipPath><clipPath id="prefix__bH"><path d="M278 56h17v22h-17zm0 0"/></clipPath><clipPath id="prefix__bI"><path d="M294.164 78.012l-28.488-.856.633-20.992 28.488.86zm0 0"/></clipPath><clipPath id="prefix__bJ"><path d="M266.016 77.164l28.488.86.633-20.989-28.489-.86zm0 0"/></clipPath><clipPath id="prefix__bK"><path d="M266 56h17v22h-17zm0 0"/></clipPath><clipPath id="prefix__bL"><path d="M294.164 78.012l-28.488-.856.633-20.992 28.488.86zm0 0"/></clipPath><clipPath id="prefix__bM"><path d="M266.016 77.164l28.488.86.633-20.989-28.489-.86zm0 0"/></clipPath><clipPath id="prefix__bN"><path d="M241 56h17v22h-17zm0 0"/></clipPath><clipPath id="prefix__bO"><path d="M257.04 78.012l-28.49-.856.634-20.992 28.488.86zm0 0"/></clipPath><clipPath id="prefix__bP"><path d="M228.89 77.164l28.489.86.633-20.989-28.489-.86zm0 0"/></clipPath><clipPath id="prefix__bQ"><path d="M228 56h18v22h-18zm0 0"/></clipPath><clipPath id="prefix__bR"><path d="M257.04 78.012l-28.49-.856.634-20.992 28.488.86zm0 0"/></clipPath><clipPath id="prefix__bS"><path d="M228.89 77.164l28.489.86.633-20.989-28.489-.86zm0 0"/></clipPath><clipPath id="prefix__bT"><path d="M204 56h17v22h-17zm0 0"/></clipPath><clipPath id="prefix__bU"><path d="M220.523 78.012l-28.488-.856.633-20.992 28.488.86zm0 0"/></clipPath><clipPath id="prefix__bV"><path d="M192.375 77.164l28.488.86.633-20.989-28.488-.86zm0 0"/></clipPath><clipPath id="prefix__bW"><path d="M192 56h17v22h-17zm0 0"/></clipPath><clipPath id="prefix__bX"><path d="M220.523 78.012l-28.488-.856.633-20.992 28.488.86zm0 0"/></clipPath><clipPath id="prefix__bY"><path d="M192.375 77.164l28.488.86.633-20.989-28.488-.86zm0 0"/></clipPath></defs><g clip-path="url(#prefix__a)"><g clip-path="url(#prefix__b)"><path fill="#919191" d="M303.75 52.777V323.04H-.133V52.777zm0 0"/></g></g><g clip-path="url(#prefix__c)"><g clip-path="url(#prefix__d)"><path fill="none" d="M7.918 142.824C3.137 156.668 0 172.406 0 187.852c0 15.445 2.687 30.304 7.469 44.003.152.29.152.583.3.875 19.122 51.434 69.622 89.317 127.887 90.047H303.75v-270H135.781C77.094 53.504 26.594 90.81 7.918 142.824" stroke="#000" stroke-width="3"/></g></g><g clip-path="url(#prefix__e)"><g clip-path="url(#prefix__f)"><g clip-path="url(#prefix__g)"><path fill="#707070" d="M294.484 186.02L141.938 338.566-10.61 186.02 141.938 33.469zm0 0"/></g></g></g><g clip-path="url(#prefix__h)"><g clip-path="url(#prefix__i)"><g clip-path="url(#prefix__j)"><g clip-path="url(#prefix__k)"><path fill="none" d="M218.117 262.387c42.176-42.176 42.176-110.559 0-152.735-42.176-42.18-110.558-42.18-152.734 0-42.176 42.176-42.176 110.559 0 152.735 42.176 42.175 110.558 42.175 152.734 0" stroke="#000" stroke-width="6"/></g></g></g></g><g clip-path="url(#prefix__l)"><g clip-path="url(#prefix__m)"><g clip-path="url(#prefix__n)"><path fill="#ffde59" d="M196.605 225.84l-12.406 12.5-22.66-22.485 12.406-12.503zm0 0"/></g></g></g><g clip-path="url(#prefix__o)"><g clip-path="url(#prefix__p)"><g clip-path="url(#prefix__q)"><path fill="#ffde59" d="M110.563 186.426L115 203.469l-30.895 8.043-4.437-17.043zm0 0"/></g></g></g><g clip-path="url(#prefix__r)"><g clip-path="url(#prefix__s)"><g clip-path="url(#prefix__t)"><path fill="#ffde59" d="M116.469 128.258l81.558 21.914-19.004 70.734-81.558-21.918zm0 0"/></g></g></g><g clip-path="url(#prefix__u)"><g clip-path="url(#prefix__v)"><g clip-path="url(#prefix__w)"><path fill="#ffde59" d="M150.762 129.297l17.008 4.57-8.286 30.832-17.007-4.57zm0 0"/></g></g></g><g clip-path="url(#prefix__x)"><g clip-path="url(#prefix__y)"><g clip-path="url(#prefix__z)"><path fill="#ffde59" d="M130.156 130.602l15.668-53.368 53.371 15.664-15.668 53.372zm0 0"/></g></g></g><g clip-path="url(#prefix__A)"><g clip-path="url(#prefix__B)"><g clip-path="url(#prefix__C)"><g clip-path="url(#prefix__D)"><path d="M140.848 104.82c-1.567 5.328-1.364 10.582.605 15.758l-5.598 2.129c-2.445-6.434-2.695-12.957-.753-19.574zm1.687 18.2c2.524 4.953 6.27 8.632 11.238 11.043l-2.609 5.386c-6.18-2.992-10.832-7.562-13.96-13.71zm13.7 12.074c.456.164.921.316 1.394.453 4.82 1.414 9.621 1.371 14.39-.133l1.801 5.711c-5.93 1.867-11.89 1.926-17.879.168a32.97 32.97 0 01-1.726-.563zm18.292-.621c5.09-2.23 8.985-5.758 11.68-10.582l5.227 2.921c-3.348 5.993-8.184 10.376-14.504 13.145zm12.848-12.965c.379-.895.703-1.805.98-2.742 1.27-4.329 1.356-8.664.258-13.012l5.805-1.465c1.367 5.402 1.258 10.79-.32 16.164a31.293 31.293 0 01-1.211 3.395zm.445-18.301c-1.93-5.21-5.222-9.305-9.879-12.277l3.223-5.047c5.785 3.695 9.875 8.777 12.27 15.242zm-12.207-13.59a24.818 24.818 0 00-4.039-1.578c-3.84-1.125-7.707-1.316-11.605-.57l-1.125-5.883c4.847-.926 9.652-.691 14.418.707 1.73.508 3.402 1.16 5.008 1.957zM157.38 88.11c-5.309 1.625-9.586 4.676-12.832 9.153l-4.848-3.512c4.028-5.563 9.34-9.348 15.93-11.367zm-14.281 11.403a24.695 24.695 0 00-2.25 5.308l-5.746-1.687a30.632 30.632 0 012.796-6.586zm0 0"/></g></g></g></g><g clip-path="url(#prefix__E)"><g clip-path="url(#prefix__F)"><g clip-path="url(#prefix__G)"><path fill="#ffde59" d="M34.445 187.043l53.742-14.336 14.336 53.742-53.742 14.336zm0 0"/></g></g></g><g clip-path="url(#prefix__H)"><g clip-path="url(#prefix__I)"><g clip-path="url(#prefix__J)"><g clip-path="url(#prefix__K)"><path d="M62.027 182.785c-5.367 1.43-9.75 4.332-13.148 8.703l-4.727-3.675c4.227-5.434 9.668-9.036 16.332-10.813zm-14.675 10.899c-2.918 4.726-4.118 9.84-3.594 15.336l-5.961.57c-.652-6.836.836-13.188 4.465-19.055zm-3.2 17.976c.098.477.211.953.336 1.426 1.297 4.855 3.828 8.934 7.59 12.226l-3.941 4.508c-4.68-4.097-7.825-9.16-9.434-15.191a31.223 31.223 0 01-.414-1.766zm10.032 15.305c4.554 3.195 9.59 4.687 15.113 4.484l.219 5.985c-6.86.254-13.118-1.602-18.766-5.567zm17.757 4.246a25.57 25.57 0 002.848-.586c4.36-1.164 8.11-3.344 11.254-6.54l4.27 4.2c-3.91 3.973-8.567 6.68-13.977 8.121a30.671 30.671 0 01-3.535.727zm15.868-9.125c3.449-4.36 5.234-9.297 5.359-14.82l5.984.132c-.152 6.86-2.367 12.997-6.648 18.403zm5.273-17.492a24.992 24.992 0 00-.754-4.274c-1.031-3.863-2.875-7.265-5.539-10.21l4.441-4.016c3.31 3.66 5.606 7.886 6.883 12.683.465 1.746.778 3.512.934 5.297zm-8.187-16.364c-4.149-3.695-8.977-5.765-14.489-6.21l.485-5.97c6.843.555 12.84 3.126 17.988 7.708zm-17.16-6.28a24.659 24.659 0 00-5.708.835L60.484 177a30.742 30.742 0 017.082-1.035zm0 0"/></g></g></g></g><g clip-path="url(#prefix__L)"><g clip-path="url(#prefix__M)"><g clip-path="url(#prefix__N)"><path fill="#ffde59" d="M157.902 239.367l39.332-39.328 39.328 39.328-39.328 39.332zm0 0"/></g></g></g><g clip-path="url(#prefix__O)"><g clip-path="url(#prefix__P)"><g clip-path="url(#prefix__Q)"><g clip-path="url(#prefix__R)"><path d="M179.64 221.863c-3.925 3.926-6.265 8.633-7.019 14.121l-5.934-.816c.938-6.816 3.844-12.66 8.72-17.54zm-7.238 16.785c-.164 5.555 1.36 10.579 4.57 15.075l-4.874 3.476c-3.989-5.586-5.883-11.828-5.684-18.722zm6.235 17.16c.324.364.656.72 1.004 1.067 3.554 3.555 7.785 5.813 12.695 6.781l-1.156 5.875c-6.102-1.203-11.36-4.011-15.774-8.422-.426-.43-.844-.87-1.242-1.32zm16.347 8.223c5.543.48 10.649-.746 15.325-3.687l3.187 5.066c-5.809 3.656-12.152 5.184-19.027 4.586zm17.493-5.222a25.477 25.477 0 002.175-1.934c3.188-3.191 5.344-6.953 6.465-11.297l5.797 1.496c-1.394 5.399-4.07 10.074-8.027 14.035a31.232 31.232 0 01-2.696 2.395zm9.164-15.848c.804-5.496-.125-10.668-2.786-15.508l5.247-2.883c3.304 6.012 4.46 12.434 3.464 19.254zm-4.2-17.777a24.77 24.77 0 00-2.789-3.32c-2.828-2.829-6.132-4.848-9.91-6.063l1.832-5.7c4.696 1.508 8.801 4.016 12.313 7.528a30.688 30.688 0 013.457 4.117zm-15.28-10.063c-5.442-1.117-10.657-.492-15.65 1.883l-2.57-5.406c6.2-2.95 12.676-3.727 19.426-2.34zm-18 3.164a24.68 24.68 0 00-4.52 3.578l-4.235-4.234a30.997 30.997 0 015.614-4.441zm0 0"/></g></g></g></g><g clip-path="url(#prefix__S)"><g clip-path="url(#prefix__T)"><g clip-path="url(#prefix__U)"><path fill="#707070" d="M159.742 103.203l13.48 3.621-3.62 13.48-13.48-3.62zm0 0"/></g></g></g><g clip-path="url(#prefix__V)"><g clip-path="url(#prefix__W)"><g clip-path="url(#prefix__X)"><path fill="#707070" d="M73.422 198.203l3.598 13.488-13.485 3.598-3.601-13.488zm0 0"/></g></g></g><g clip-path="url(#prefix__Y)"><g clip-path="url(#prefix__Z)"><g clip-path="url(#prefix__aa)"><path fill="#707070" d="M193.02 230.07l13.48 3.621-3.621 13.48-13.48-3.62zm0 0"/></g></g></g><g clip-path="url(#prefix__ab)"><g clip-path="url(#prefix__ac)"><g clip-path="url(#prefix__ad)"><g clip-path="url(#prefix__ae)"><path fill="#fff" d="M192.86 150.941a.114.114 0 01.1-.05c.071-.125-.085-.301.095-.407.191-.406.539-.406.91-.34 1.031.192 2.012.543 2.969.954 3.43 1.48 6.382 3.601 8.984 6.27 4.539 4.655 6.984 10.277 7.902 16.616.426 2.938.328 5.903.09 8.86-.14 1.738-.387 3.465-.59 5.195l-.105.176c.023.074.027.164.078.215.039.039.094-.016.102-.078.476-.497.835-1.079 1.164-1.676.222-.406.468-.79.832-1.09.472-.883 1.218-1.18 2.078-.86-.047 1.993-1.059 3.563-2.215 5.079-.434.566-.824 1.156-1.223 1.742-.96 1.402-.898 1.144-2.281 1.066a2.76 2.76 0 01-.898-.222c-.106-.043-.2-.094-.243-.207-.351-.04-.453-.313-.543-.586-.261-.813-.511-1.625-.765-2.438-.156-.137-.192-.32-.219-.508-.156-.129-.191-.312-.23-.496-.13-.074-.145-.215-.204-.332-.824-1.539-1.808-2.965-3.039-4.219-.093-.093-.18-.195-.265-.292-.106-.118-.227-.247-.137-.403.066-.117.254-.16.36-.117.48.187.995.05 1.476.191.21.063.383.207.55.356 1.31 1.14 2.38 2.48 3.31 3.933.085.13.148.274.257.383.125.125.238.035.324-.082-.078-.156-.054-.297.063-.426-.047-.156-.074-.312.058-.449-.03-.031-.03-.062.004-.086-.047-.148-.062-.297.051-.425-.008-.11-.031-.22-.023-.325.101-1.183.222-2.363.308-3.543.078-1.074.125-2.148.184-3.218-.02-.286-.047-.57-.055-.856-.09-2.762-.515-5.469-1.347-8.105-.297-.942-.622-1.871-.938-2.805-.164-.14-.187-.336-.219-.531-.16-.13-.187-.317-.218-.5-.16-.114-.176-.293-.22-.465-.112-.063-.144-.168-.148-.29-.039-.027-.054-.062-.043-.109-.125-.074-.14-.214-.203-.324-.316-.547-.527-1.148-.914-1.66.031-.066-.004-.246.156-.07.114.113.157.11.18.058.016-.043.016-.12.024-.18-1.047-1.699-2.293-3.25-3.641-4.718-.137-.125-.273-.254-.41-.379l-2.473-2.238a.166.166 0 01-.11-.047.306.306 0 01-.042-.07.158.158 0 01-.145-.118c-.078-.004-.125-.043-.148-.113-.078-.004-.125-.043-.149-.117-.078 0-.129-.04-.152-.113-.078.003-.129-.036-.148-.11h-.004c-.075 0-.125-.035-.149-.11v-.003a1.325 1.325 0 01-.152-.106l-.004-.003c-.078.003-.125-.032-.148-.106l-.008-.004c-.074.004-.125-.031-.149-.105l-.004-.004h-.003.003c-.078.004-.128-.031-.152-.102l-.004-.004c-.078.004-.129-.03-.148-.105h-.004c-.078 0-.13-.035-.156-.106-.496-.297-.993-.59-1.493-.886-.207-.235-.5-.34-.77-.48a.19.19 0 00-.066.07.211.211 0 00-.035.14c-.215-.086-.437-.156-.597-.332a.41.41 0 00-.164-.14l.164.14c-.075-.016-.145-.035-.16-.117-.114.02-.204-.027-.282-.11-.074.016-.129-.007-.16-.078-.078-.007-.14-.027-.18-.101-.039.004-.07-.004-.097-.035a1.468 1.468 0 01-.61-.278c-.156-.039-.312-.078-.433-.195-.11.008-.192-.05-.278-.105-.617-.16-1.199-.434-1.878-.485.12-.207.003-.433.214-.55zm18.882 35.649v-.004l-.004-.004.004.004h-.008c.004.004.004 0 .008.004zm-11.504-32.172c.012.004.024.012.04.016-.005 0-.005-.004-.008-.008a.283.283 0 00-.036-.02c.004 0 .004.004.004.012zm1.418 1.5h.004c.004-.004.008-.008.008-.016l.008-.015-.016.031h-.004zm-1.418-1.57c0 .02-.004.039 0 .054.008.008.02.016.028.02a.081.081 0 01-.028-.074zm.102.12c.012.012.023.02.035.024.004 0 .004.004.004.004-.012-.008-.027-.016-.04-.027zm-6.274-3.613s0-.003-.004-.003h-.007c.004 0 .007.003.011.003zm.274.075c.004 0 .008-.004.012 0h-.012zm2.168 1.824c0-.012.004-.027.008-.043-.008.004-.016.004-.028.004.008.015.012.027.02.039zm-.477-.16a.105.105 0 00-.07-.016c.027 0 .05.004.07.016zm0 0"/></g></g></g></g><g clip-path="url(#prefix__af)"><g clip-path="url(#prefix__ag)"><g clip-path="url(#prefix__ah)"><g clip-path="url(#prefix__ai)"><path fill="#fff" d="M200.453 155.016l.152.105c-.078.004-.128-.031-.152-.105zm0 0"/></g></g></g></g><g clip-path="url(#prefix__aj)"><g clip-path="url(#prefix__ak)"><g clip-path="url(#prefix__al)"><g clip-path="url(#prefix__am)"><path fill="#fff" d="M151.285 251.313c.016.039.008.074-.015.109.062.129.292.105.277.308.223.391.02.676-.246.942-.75.734-1.602 1.332-2.488 1.879-3.184 1.953-6.622 3.148-10.297 3.738-6.422 1.035-12.422-.207-18.137-3.101-2.652-1.344-5.016-3.13-7.297-5.028-1.34-1.117-2.61-2.308-3.91-3.472l-.082-.188c-.074-.023-.153-.07-.219-.059h-.004c-.05.008-.039.086.008.13.133.675.398 1.3.7 1.913.206.418.374.84.413 1.309.45.894.262 1.676-.492 2.191-1.601-1.18-2.308-2.914-2.879-4.734-.215-.676-.472-1.336-.722-2-.594-1.59-.418-1.395.44-2.48.192-.243.438-.438.7-.606.098-.062.192-.11.309-.078.234-.266.52-.191.793-.106.812.254 1.62.516 2.433.774.2-.047.371.031.54.117.195-.059.367.024.538.094.133-.063.262.008.387.023 1.735.215 3.469.23 5.2-.054.132-.024.265-.032.394-.051.156-.02.332-.043.406.12.059.126-.015.302-.11.364-.429.285-.616.785-1.007 1.098-.172.137-.387.191-.606.246-1.687.414-3.398.516-5.12.441-.157-.007-.313-.039-.462-.011-.175.03-.168.175-.12.312.175.027.277.125.312.297.156.055.3.117.336.305.043-.008.066.011.066.054.149.051.278.118.32.29.094.054.196.093.278.163.906.766 1.805 1.54 2.719 2.293.832.684 1.683 1.336 2.527 2.004.242.149.492.286.73.446 2.309 1.515 4.766 2.726 7.403 3.566.941.297 1.886.566 2.836.848.207-.055.383.035.558.125.2-.055.368.027.535.11.184-.067.34.023.504.085.118-.055.223-.02.325.047.043-.016.082-.008.113.027.129-.058.258.008.383.02.629.058 1.242.23 1.882.21.04.063.204.137-.03.169-.16.023-.18.066-.153.11.027.042.09.085.133.124 1.992.121 3.976-.004 5.957-.258.18-.039.363-.082.543-.12 1.086-.247 2.172-.49 3.254-.731a.178.178 0 01.101-.063.194.194 0 01.082.004c.047-.058.11-.074.18-.05.047-.063.11-.079.18-.055.046-.063.105-.082.18-.059.046-.062.105-.082.179-.059.043-.062.102-.082.176-.054l.004-.004c.039-.063.101-.082.172-.059h.003c.055-.023.114-.047.172-.062h.008c.043-.067.098-.086.172-.063l.004-.004c.043-.062.101-.086.172-.062h.008c.043-.067.097-.086.171-.063h.004c.043-.066.102-.09.172-.066h.004c.043-.066.102-.086.176-.066.527-.239 1.055-.473 1.582-.711.312-.036.566-.215.84-.352a.238.238 0 00-.117-.207c.195-.125.379-.266.617-.297a.352.352 0 00.207-.055c-.067.02-.137.04-.207.055.054-.05.113-.094.187-.062.051-.106.137-.153.25-.168.032-.067.082-.102.157-.082.05-.063.105-.106.187-.09.02-.035.043-.059.086-.063.168-.156.36-.27.574-.336.125-.105.246-.214.414-.242.055-.097.149-.129.242-.168.489-.41 1.047-.73 1.477-1.258.098.22.356.254.328.496zm-40.02-5.083h.005v.004h.003l-.003-.004s.003 0 .003-.003c-.003 0-.003.003-.007.003zm32.934 9.114c-.015.004-.027.011-.039.02h.012a.139.139 0 00.035-.016s-.004-.004-.008-.004zm-2.047.297c-.004 0 0 0 0 .004 0 .003 0 .007.004.011l.008.016-.012-.031.004-.004-.004.004zm2.102-.258c-.016-.012-.031-.024-.043-.031l-.035.011c.023-.008.05 0 .078.02zm-.16.012c-.012.003-.028.011-.04.015 0 .004-.003.004-.003.004.015-.008.031-.016.043-.02zm6.566-3.047h.004l.004-.004s.004 0 .004-.004c-.004 0-.008.004-.012.008zm-.219.18c0 .003 0 .007-.004.007 0-.004.004-.004.004-.008zm-2.738.722c.012.008.02.016.031.031l.012-.023c-.016-.004-.027-.008-.043-.008zm.406-.297a.133.133 0 00.055-.05.216.216 0 01-.055.05zm0 0"/></g></g></g></g><g clip-path="url(#prefix__an)"><g clip-path="url(#prefix__ao)"><g clip-path="url(#prefix__ap)"><g clip-path="url(#prefix__aq)"><path fill="#fff" d="M143.582 255.176c-.059.02-.117.039-.172.062.043-.066.102-.086.172-.062zm0 0"/></g></g></g></g><g clip-path="url(#prefix__ar)"><g clip-path="url(#prefix__as)"><g clip-path="url(#prefix__at)"><g clip-path="url(#prefix__au)"><path fill="#fff" d="M81.875 159.953a.101.101 0 01-.078-.074c-.145-.024-.254.18-.414.05-.45-.038-.567-.367-.633-.738-.176-1.035-.184-2.074-.125-3.117.21-3.73 1.188-7.234 2.797-10.59 2.808-5.867 7.25-10.093 12.887-13.136 2.613-1.41 5.43-2.336 8.289-3.13 1.68-.464 3.386-.827 5.082-1.234.066.012.132.028.203.04.058-.047.14-.083.172-.145.023-.05-.047-.082-.11-.07-.629-.278-1.297-.414-1.968-.516-.461-.07-.903-.172-1.313-.406-.992-.14-1.527-.739-1.523-1.657 1.886-.64 3.71-.234 5.535.336.676.207 1.367.371 2.054.547 1.645.418 1.383.45 1.786 1.778.09.296.109.605.097.918-.004.113-.02.218-.11.296.083.344-.14.536-.366.711-.672.528-1.348 1.043-2.024 1.559-.074.191-.234.29-.398.379-.067.195-.23.289-.39.39-.024.145-.153.208-.24.301-1.163 1.305-2.163 2.72-2.917 4.305-.055.121-.121.234-.184.352-.074.14-.152.3-.332.27-.132-.024-.238-.188-.234-.302.012-.515-.293-.953-.324-1.453-.016-.219.058-.43.14-.637.621-1.62 1.512-3.085 2.555-4.46.094-.122.207-.235.273-.372.075-.16-.046-.238-.187-.277-.121.129-.262.152-.422.09-.133.094-.27.176-.441.098-.02.039-.047.046-.086.023-.121.094-.254.164-.414.098-.102.047-.192.11-.297.136-1.145.313-2.293.602-3.434.926-1.035.297-2.058.621-3.086.934-.261.117-.515.242-.78.347-2.563 1.036-4.962 2.364-7.15 4.051-.78.602-1.542 1.23-2.316 1.844-.074.203-.246.293-.422.39-.066.196-.23.286-.394.376-.051.191-.215.27-.36.367-.02.129-.109.195-.222.238-.008.047-.04.07-.086.078-.028.14-.153.207-.235.305-.406.484-.898.89-1.246 1.426-.074-.004-.226.09-.12-.121.07-.145.05-.184-.005-.188-.046 0-.12.024-.175.04-1.235 1.566-2.266 3.269-3.184 5.038l-.21.52c-.419 1.027-.837 2.058-1.255 3.086.012.047.012.086-.008.12a.189.189 0 01-.05.063.16.16 0 01-.059.18.152.152 0 01-.055.18c.024.07.004.132-.058.18.027.07.007.132-.055.179.027.074.012.133-.05.176v.004a.14.14 0 01-.052.175l-.003.004a1.291 1.291 0 01-.047.176v.008c.027.07.011.129-.047.176l-.004.008c.027.07.016.128-.047.175l-.004.008c.031.07.016.13-.043.176l-.004.004c.031.07.016.133-.047.18.032.074.016.136-.043.183-.109.567-.214 1.137-.32 1.703-.148.278-.148.59-.187.89a.168.168 0 00.09.04.21.21 0 00.144-.016c-.008.23.004.465-.11.676a.374.374 0 00-.07.203c.024-.066.047-.137.07-.203.016.074.016.145-.054.191.058.102.047.2-.004.301.039.063.039.121-.02.176.024.074.024.145-.03.203.015.035.019.07 0 .106.03.226.019.449-.052.668.016.16.036.32-.035.472.047.102.02.2-.004.297.063.637.004 1.278.192 1.93-.235-.043-.41.148-.594-.012zm26.984-29.984c-.004 0 0 0 0 0-.004 0-.004.004-.004.004l.004-.004v0zm-26.254 21.863c0-.016 0-.027.004-.043-.004.004-.004.008-.004.008-.003.016-.007.027-.011.039.004 0 .008 0 .011-.004zm.922-1.852h-.004c-.003 0-.007-.003-.015-.003l-.016-.004.031.007c.004 0 0 .004.004.004-.004 0 0-.004 0-.004zm-.988 1.875c.02-.007.035-.011.05-.02.005-.01.009-.023.013-.034-.012.027-.032.043-.063.054zm.082-.136c.004-.016.008-.031.008-.043v-.004c-.004.016-.004.031-.008.047zm-1.238 7.129c0 .004-.004.004-.004.007 0 .004 0 .004.004.008v-.015zm-.028-.282s-.003-.004 0-.007v.007zm.973-2.66c-.016.004-.027.008-.043.004l.012.028c.008-.012.02-.02.031-.032zm.012.5a.1.1 0 00.008.074c-.008-.027-.012-.05-.008-.074zm0 0"/></g></g></g></g><g clip-path="url(#prefix__av)"><g clip-path="url(#prefix__aw)"><g clip-path="url(#prefix__ax)"><g clip-path="url(#prefix__ay)"><path fill="#fff" d="M83.094 151.422l.047-.176c.027.07.011.129-.047.176zm0 0"/></g></g></g></g><path transform="matrix(.74987 .00605 -.00605 .74998 136.49 77.868)" fill="none" d="M-.002 1.999L223.036 2" stroke="#000" stroke-width="4"/><path transform="matrix(.75062 -.00364 .00364 .75 135.126 291.168)" fill="none" d="M0 2l224.814.002" stroke="#000" stroke-width="4"/><g clip-path="url(#prefix__az)"><path fill="#5ce1e6" d="M266.715 306.992l8.492-9.492a.946.946 0 01.703-.316h5.664a.95.95 0 01.863.562.956.956 0 01-.164 1.02l-7.921 8.863 7.921 8.855a.95.95 0 01-.7 1.586h-5.663a.971.971 0 01-.703-.312l-8.492-9.496a.959.959 0 010-1.27zm0 0"/></g><g clip-path="url(#prefix__aA)"><path fill="#5ce1e6" d="M278.984 306.992l8.493-9.492a.94.94 0 01.703-.316h5.66a.947.947 0 01.703 1.582l-7.926 8.863 7.926 8.855c.25.282.312.68.16 1.024a.94.94 0 01-.863.562h-5.66a.965.965 0 01-.703-.312l-8.493-9.496a.95.95 0 010-1.27zm0 0"/></g><g clip-path="url(#prefix__aB)"><path fill="#38b6ff" d="M229.59 306.992l8.492-9.492a.946.946 0 01.703-.316h5.664a.95.95 0 01.863.562.956.956 0 01-.164 1.02l-7.921 8.863 7.921 8.855c.25.282.317.68.165 1.024a.95.95 0 01-.864.562h-5.664a.971.971 0 01-.703-.312l-8.492-9.496a.959.959 0 010-1.27zm0 0"/></g><g clip-path="url(#prefix__aC)"><path fill="#38b6ff" d="M241.86 306.992l8.492-9.492a.94.94 0 01.703-.316h5.66a.947.947 0 01.703 1.582l-7.926 8.863 7.926 8.855c.25.282.312.68.16 1.024a.94.94 0 01-.863.562h-5.66a.965.965 0 01-.703-.312l-8.493-9.496a.95.95 0 010-1.27zm0 0"/></g><g clip-path="url(#prefix__aD)"><path fill="#38b6ff" d="M192.465 306.992l8.492-9.492a.946.946 0 01.703-.316h5.664a.95.95 0 01.863.562.956.956 0 01-.164 1.02l-7.921 8.863 7.921 8.855c.25.282.317.68.165 1.024a.95.95 0 01-.864.562h-5.664a.971.971 0 01-.703-.312l-8.492-9.496a.959.959 0 010-1.27zm0 0"/></g><g clip-path="url(#prefix__aE)"><path fill="#38b6ff" d="M204.734 306.992l8.493-9.492a.94.94 0 01.703-.316h5.66a.947.947 0 01.703 1.582l-7.926 8.863 7.926 8.855c.25.282.312.68.16 1.024a.94.94 0 01-.863.562h-5.66a.965.965 0 01-.703-.312l-8.493-9.496a.95.95 0 010-1.27zm0 0"/></g><g clip-path="url(#prefix__aF)"><path fill="#38b6ff" d="M155.34 306.992l8.492-9.492a.946.946 0 01.703-.316h5.664a.95.95 0 01.863.562.956.956 0 01-.164 1.02l-7.921 8.863 7.921 8.855c.25.282.317.68.165 1.024a.95.95 0 01-.864.562h-5.664a.971.971 0 01-.703-.312l-8.492-9.496a.959.959 0 010-1.27zm0 0"/></g><g clip-path="url(#prefix__aG)"><path fill="#38b6ff" d="M167.61 306.992l8.492-9.492a.94.94 0 01.703-.316h5.66a.947.947 0 01.703 1.582l-7.926 8.863 7.926 8.855c.25.282.312.68.16 1.024a.94.94 0 01-.863.562h-5.66a.965.965 0 01-.703-.312l-8.493-9.496a.95.95 0 010-1.27zm0 0"/></g><g clip-path="url(#prefix__aH)"><g clip-path="url(#prefix__aI)"><g clip-path="url(#prefix__aJ)"><path fill="#5ce1e6" d="M118.21 307.238l8.325-9.64a.936.936 0 01.695-.328l5.66-.102a.962.962 0 01.876.547.958.958 0 01-.145 1.027l-7.766 8.996 8.079 8.719a.95.95 0 01-.672 1.598l-5.664.097a.946.946 0 01-.707-.3l-8.66-9.34a.96.96 0 01-.02-1.274zm0 0"/></g></g></g><g clip-path="url(#prefix__aK)"><g clip-path="url(#prefix__aL)"><g clip-path="url(#prefix__aM)"><path fill="#5ce1e6" d="M130.477 307.023l8.324-9.644a.939.939 0 01.695-.324l5.66-.102a.945.945 0 01.875.547.952.952 0 01-.144 1.023l-7.766 9 8.082 8.715a.951.951 0 01.176 1.02.935.935 0 01-.852.578l-5.66.101a.948.948 0 01-.707-.3l-8.66-9.344a.95.95 0 01-.023-1.27zm0 0"/></g></g></g><g clip-path="url(#prefix__aN)"><g clip-path="url(#prefix__aO)"><g clip-path="url(#prefix__aP)"><path fill="#38b6ff" d="M75.855 286.086l12.274-3.406a.949.949 0 01.762.113l4.765 3.059a.948.948 0 01-.265 1.71l-11.454 3.18 1.891 11.735a.96.96 0 01-.418.949.949.949 0 01-1.031.008l-4.766-3.059a.954.954 0 01-.422-.64l-2.023-12.579a.954.954 0 01.687-1.07zm0 0"/></g></g></g><g clip-path="url(#prefix__aQ)"><g clip-path="url(#prefix__aR)"><g clip-path="url(#prefix__aS)"><path fill="#38b6ff" d="M86.18 292.71l12.277-3.405a.94.94 0 01.758.113l4.77 3.059c.312.199.476.566.421.937a.954.954 0 01-.687.774l-11.453 3.18 1.886 11.734a.951.951 0 01-.414.945.941.941 0 01-1.031.008L87.941 307a.94.94 0 01-.421-.645l-2.024-12.574a.952.952 0 01.684-1.07zm0 0"/></g></g></g><g clip-path="url(#prefix__aT)"><g clip-path="url(#prefix__aU)"><g clip-path="url(#prefix__aV)"><path fill="#38b6ff" d="M41.281 262.91l12.703-.945c.27-.02.532.074.723.258l4.078 3.93a.94.94 0 01.23 1.003.943.943 0 01-.824.621l-11.851.887-.438 11.875a.955.955 0 01-.593.848.94.94 0 01-1.012-.192l-4.078-3.925a.96.96 0 01-.29-.715l.47-12.73a.954.954 0 01.882-.915zm0 0"/></g></g></g><g clip-path="url(#prefix__aW)"><g clip-path="url(#prefix__aX)"><g clip-path="url(#prefix__aY)"><path fill="#38b6ff" d="M50.117 271.422l12.703-.95c.27-.019.532.075.723.262l4.078 3.926a.95.95 0 01.234 1.004.962.962 0 01-.824.625l-11.855.883-.438 11.879a.948.948 0 01-.593.847.947.947 0 01-1.012-.191l-4.078-3.93a.967.967 0 01-.29-.71l.47-12.731a.954.954 0 01.882-.914zm0 0"/></g></g></g><g clip-path="url(#prefix__aZ)"><g clip-path="url(#prefix__ba)"><g clip-path="url(#prefix__bb)"><path fill="#38b6ff" d="M22.734 226.063l12.477 2.57a.947.947 0 01.625.449l2.844 4.895a.95.95 0 01-1.016 1.402l-11.64-2.399-3.676 11.305a.959.959 0 01-.805.653.94.94 0 01-.918-.465l-2.848-4.895a.97.97 0 01-.082-.766l3.942-12.113a.948.948 0 011.097-.637zm0 0"/></g></g></g><g clip-path="url(#prefix__bc)"><g clip-path="url(#prefix__bd)"><g clip-path="url(#prefix__be)"><path fill="#38b6ff" d="M28.898 236.668l12.477 2.57a.938.938 0 01.625.45l2.848 4.894a.95.95 0 01-1.016 1.402l-11.645-2.398-3.675 11.305a.953.953 0 01-1.723.191l-2.848-4.898a.962.962 0 01-.082-.762l3.942-12.117a.956.956 0 011.097-.637zm0 0"/></g></g></g><g clip-path="url(#prefix__bf)"><path fill="#5ce1e6" d="M20.016 172.027l9.492 8.493c.203.18.316.433.316.703v5.66a.94.94 0 01-.562.863.946.946 0 01-1.02-.16l-8.863-7.926-8.856 7.926a.955.955 0 01-1.023.16.94.94 0 01-.563-.863v-5.66c0-.27.114-.524.313-.703l9.496-8.493a.95.95 0 011.27 0zm0 0"/></g><g clip-path="url(#prefix__bg)"><path fill="#5ce1e6" d="M20.016 184.293l9.492 8.496c.203.18.316.434.316.7v5.663c0 .371-.219.711-.562.864a.953.953 0 01-1.02-.16l-8.863-7.926-8.856 7.925a.955.955 0 01-1.023.16.945.945 0 01-.563-.863v-5.664c0-.265.114-.52.313-.699l9.496-8.496c.36-.32.91-.32 1.27 0zm0 0"/></g><g clip-path="url(#prefix__bh)"><g clip-path="url(#prefix__bi)"><g clip-path="url(#prefix__bj)"><path fill="#38b6ff" d="M38.219 122.102l2.965 12.39a.936.936 0 01-.141.754l-3.227 4.656a.948.948 0 01-1.7-.324l-2.768-11.562-11.793 1.468a.955.955 0 01-.934-.449.949.949 0 01.027-1.031l3.227-4.652a.946.946 0 01.656-.399l12.645-1.574a.956.956 0 011.043.723zm0 0"/></g></g></g><g clip-path="url(#prefix__bk)"><g clip-path="url(#prefix__bl)"><g clip-path="url(#prefix__bm)"><path fill="#38b6ff" d="M31.23 132.188l2.965 12.386a.945.945 0 01-.14.758l-3.227 4.652a.951.951 0 01-.953.391.958.958 0 01-.746-.715l-2.77-11.558-11.793 1.464a.955.955 0 01-.933-.449.942.942 0 01.031-1.031l3.223-4.652a.96.96 0 01.66-.399l12.64-1.574a.953.953 0 011.043.726zm0 0"/></g></g></g><g clip-path="url(#prefix__bn)"><g clip-path="url(#prefix__bo)"><g clip-path="url(#prefix__bp)"><path fill="#38b6ff" d="M65.816 90.094l.098 12.738a.937.937 0 01-.305.703l-4.191 3.809a.943.943 0 01-1.016.164.959.959 0 01-.57-.863l-.09-11.887-11.824-1.227a.954.954 0 01-.547-1.648l4.191-3.805c.2-.18.465-.266.731-.242l12.672 1.316c.48.051.851.457.851.942zm0 0"/></g></g></g><g clip-path="url(#prefix__bq)"><g clip-path="url(#prefix__br)"><g clip-path="url(#prefix__bs)"><path fill="#38b6ff" d="M56.738 98.344l.098 12.738a.94.94 0 01-.309.703l-4.191 3.809a.948.948 0 01-1.582-.7l-.094-11.886-11.82-1.227a.954.954 0 01-.809-.648.947.947 0 01.262-1l4.187-3.805c.2-.18.465-.266.73-.242l12.673 1.316c.48.051.851.457.855.942zm0 0"/></g></g></g><g clip-path="url(#prefix__bt)"><g clip-path="url(#prefix__bu)"><g clip-path="url(#prefix__bv)"><path fill="#38b6ff" d="M100.488 72.246l-3.433 12.266a.948.948 0 01-.493.593l-5.082 2.497a.95.95 0 01-1.023-.122.958.958 0 01-.305-.988l3.203-11.449-11.02-4.453a.947.947 0 01-.593-.844.942.942 0 01.524-.887l5.082-2.5a.96.96 0 01.77-.027l11.808 4.773c.449.18.691.676.562 1.141zm0 0"/></g></g></g><g clip-path="url(#prefix__bw)"><g clip-path="url(#prefix__bx)"><g clip-path="url(#prefix__by)"><path fill="#38b6ff" d="M89.477 77.656l-3.434 12.27a.94.94 0 01-.492.59l-5.078 2.5a.95.95 0 01-1.332-1.114l3.207-11.445-11.024-4.453a.961.961 0 01-.594-.848.949.949 0 01.528-.886l5.082-2.497a.95.95 0 01.765-.03l11.813 4.773c.45.183.691.675.559 1.14zm0 0"/></g></g></g><g clip-path="url(#prefix__bz)"><path fill="#5ce1e6" d="M146.195 68.148l-8.492 9.493a.946.946 0 01-.703.316h-5.664a.95.95 0 01-.863-.562.956.956 0 01.164-1.02l7.922-8.863-7.922-8.856a.95.95 0 01.7-1.586h5.663c.266 0 .52.117.703.313l8.492 9.496c.32.36.32.91 0 1.27zm0 0"/></g><g clip-path="url(#prefix__bA)"><path fill="#5ce1e6" d="M133.926 68.148l-8.492 9.493a.94.94 0 01-.704.316h-5.66a.947.947 0 01-.703-1.582l7.926-8.863-7.926-8.856a.955.955 0 01-.16-1.023.94.94 0 01.863-.563h5.66c.27 0 .52.117.704.313l8.492 9.496a.95.95 0 010 1.27zm0 0"/></g><g clip-path="url(#prefix__bB)"><g clip-path="url(#prefix__bC)"><g clip-path="url(#prefix__bD)"><path fill="#38b6ff" d="M182.719 68.148l-8.778 9.235a.927.927 0 01-.71.293l-5.66-.168a.948.948 0 01-.844-.59.953.953 0 01.191-1.016l8.187-8.617-7.652-9.094a.951.951 0 01-.133-1.023.945.945 0 01.88-.54l5.66.173c.269.008.519.129.695.332l8.203 9.746a.96.96 0 01-.04 1.27zm0 0"/></g></g></g><g clip-path="url(#prefix__bE)"><g clip-path="url(#prefix__bF)"><g clip-path="url(#prefix__bG)"><path fill="#38b6ff" d="M170.457 67.781l-8.777 9.235a.94.94 0 01-.711.293l-5.66-.172a.946.946 0 01-.653-1.602l8.188-8.617-7.656-9.094a.956.956 0 01-.13-1.027.942.942 0 01.88-.535l5.66.168a.95.95 0 01.691.336l8.203 9.746a.955.955 0 01-.035 1.27zm0 0"/></g></g></g><g clip-path="url(#prefix__bH)"><g clip-path="url(#prefix__bI)"><g clip-path="url(#prefix__bJ)"><path fill="#5ce1e6" d="M294.371 68.148l-8.777 9.235a.927.927 0 01-.711.293l-5.66-.168a.948.948 0 01-.844-.59.953.953 0 01.191-1.016l8.188-8.617-7.653-9.094a.951.951 0 01-.132-1.023.945.945 0 01.879-.54l5.66.173c.27.008.52.129.695.332l8.203 9.746a.96.96 0 01-.039 1.27zm0 0"/></g></g></g><g clip-path="url(#prefix__bK)"><g clip-path="url(#prefix__bL)"><g clip-path="url(#prefix__bM)"><path fill="#5ce1e6" d="M282.11 67.781l-8.778 9.235a.94.94 0 01-.71.293l-5.661-.172a.946.946 0 01-.652-1.602l8.187-8.617-7.656-9.094a.956.956 0 01-.13-1.027.942.942 0 01.88-.535l5.66.168a.95.95 0 01.691.336l8.204 9.746a.955.955 0 01-.036 1.27zm0 0"/></g></g></g><g clip-path="url(#prefix__bN)"><g clip-path="url(#prefix__bO)"><g clip-path="url(#prefix__bP)"><path fill="#38b6ff" d="M257.246 68.148l-8.777 9.235a.927.927 0 01-.711.293l-5.66-.168a.948.948 0 01-.844-.59.953.953 0 01.191-1.016l8.188-8.617-7.653-9.094a.951.951 0 01-.132-1.023.945.945 0 01.879-.54l5.66.173c.27.008.52.129.695.332l8.203 9.746a.96.96 0 01-.039 1.27zm0 0"/></g></g></g><g clip-path="url(#prefix__bQ)"><g clip-path="url(#prefix__bR)"><g clip-path="url(#prefix__bS)"><path fill="#38b6ff" d="M244.984 67.781l-8.777 9.235a.94.94 0 01-.71.293l-5.661-.172a.946.946 0 01-.652-1.602l8.187-8.617-7.656-9.094a.956.956 0 01-.13-1.027.942.942 0 01.88-.535l5.66.168a.95.95 0 01.691.336l8.204 9.746a.955.955 0 01-.036 1.27zm0 0"/></g></g></g><g clip-path="url(#prefix__bT)"><g clip-path="url(#prefix__bU)"><g clip-path="url(#prefix__bV)"><path fill="#38b6ff" d="M220.73 68.148l-8.777 9.235a.927.927 0 01-.71.293l-5.661-.168a.944.944 0 01-.844-.59.953.953 0 01.192-1.016l8.187-8.617-7.656-9.094a.95.95 0 01.75-1.562l5.66.172c.27.008.516.129.691.332l8.204 9.746a.955.955 0 01-.036 1.27zm0 0"/></g></g></g><g clip-path="url(#prefix__bW)"><g clip-path="url(#prefix__bX)"><g clip-path="url(#prefix__bY)"><path fill="#38b6ff" d="M208.465 67.781l-8.774 9.235a.947.947 0 01-.71.293l-5.66-.172a.946.946 0 01-.844-.586.96.96 0 01.187-1.016l8.191-8.617-7.656-9.094a.949.949 0 01.75-1.562l5.66.168a.957.957 0 01.692.336l8.203 9.746a.95.95 0 01-.04 1.27zm0 0"/></g></g></g></svg>