<svg xmlns="http://www.w3.org/2000/svg" xmlns:xlink="http://www.w3.org/1999/xlink" width="450" zoomAndPan="magnify" viewBox="0 0 337.5 374.999991" height="500" preserveAspectRatio="xMidYMid meet" version="1.0"><defs><clipPath id="bf5cd17772"><path d="M 0 52.777344 L 303.75 52.777344 L 303.75 323 L 0 323 Z M 0 52.777344 " clip-rule="nonzero"/></clipPath><clipPath id="a0ce3a0e43"><path d="M 7.917969 142.824219 C 3.136719 156.667969 0 172.40625 0 187.851562 C 0 203.296875 2.6875 218.15625 7.46875 231.855469 C 7.621094 232.144531 7.621094 232.4375 7.769531 232.730469 C 26.890625 284.164062 77.390625 322.050781 135.65625 322.777344 L 303.75 322.777344 L 303.75 52.777344 L 135.78125 52.777344 C 77.09375 53.507812 26.59375 90.808594 7.917969 142.824219 " clip-rule="nonzero"/></clipPath><clipPath id="0279ea6732"><path d="M 0 52.777344 L 303.75 52.777344 L 303.75 322.777344 L 0 322.777344 Z M 0 52.777344 " clip-rule="nonzero"/></clipPath><clipPath id="d45fb02aa5"><path d="M 7.917969 142.824219 C 3.136719 156.667969 0 172.40625 0 187.851562 C 0 203.296875 2.6875 218.15625 7.46875 231.855469 C 7.621094 232.144531 7.621094 232.4375 7.769531 232.730469 C 26.890625 284.164062 77.390625 322.050781 135.65625 322.777344 L 303.75 322.777344 L 303.75 52.777344 L 135.78125 52.777344 C 77.09375 53.507812 26.59375 90.808594 7.917969 142.824219 " clip-rule="nonzero"/></clipPath><clipPath id="142af31593"><path d="M 33 78 L 250 78 L 250 295 L 33 295 Z M 33 78 " clip-rule="nonzero"/></clipPath><clipPath id="334ae6b0bc"><path d="M 289.570312 224.453125 L 103.066406 333.984375 L -6.464844 147.480469 L 180.039062 37.949219 Z M 289.570312 224.453125 " clip-rule="nonzero"/></clipPath><clipPath id="117a46d974"><path d="M 196.441406 279.144531 C 247.875 248.9375 265.082031 182.757812 234.878906 131.324219 C 204.671875 79.894531 138.488281 62.683594 87.058594 92.890625 C 35.625 123.097656 18.417969 189.277344 48.621094 240.710938 C 78.828125 292.144531 145.011719 309.351562 196.441406 279.144531 " clip-rule="nonzero"/></clipPath><clipPath id="80d35c9216"><path d="M 33 78 L 250 78 L 250 295 L 33 295 Z M 33 78 " clip-rule="nonzero"/></clipPath><clipPath id="ed4e137f7c"><path d="M 289.570312 224.453125 L 103.316406 333.839844 L -6.070312 147.585938 L 180.183594 38.199219 Z M 289.570312 224.453125 " clip-rule="nonzero"/></clipPath><clipPath id="1845840431"><path d="M 289.570312 224.453125 L 100.683594 335.386719 L -10.25 146.496094 L 178.636719 35.5625 Z M 289.570312 224.453125 " clip-rule="nonzero"/></clipPath><clipPath id="49903b6fe9"><path d="M 196.441406 279.144531 C 247.875 248.9375 265.082031 182.757812 234.878906 131.324219 C 204.671875 79.894531 138.488281 62.683594 87.058594 92.890625 C 35.625 123.097656 18.417969 189.277344 48.621094 240.710938 C 78.828125 292.144531 145.011719 309.351562 196.441406 279.144531 " clip-rule="nonzero"/></clipPath><clipPath id="0b66e01f12"><path d="M 153 211 L 185 211 L 185 248 L 153 248 Z M 153 211 " clip-rule="nonzero"/></clipPath><clipPath id="f168b115d7"><path d="M 184.820312 238.359375 L 169.191406 247.621094 L 152.917969 220.15625 L 168.546875 210.894531 Z M 184.820312 238.359375 " clip-rule="nonzero"/></clipPath><clipPath id="9016d0f769"><path d="M 184.820312 238.359375 L 169.535156 247.417969 L 153.363281 220.121094 L 168.648438 211.0625 Z M 184.820312 238.359375 " clip-rule="nonzero"/></clipPath><clipPath id="3d705f0ac7"><path d="M 79 178 L 112 178 L 112 197 L 79 197 Z M 79 178 " clip-rule="nonzero"/></clipPath><clipPath id="82d840a178"><path d="M 111.464844 178.5625 L 111.472656 196.726562 L 79.546875 196.738281 L 79.539062 178.574219 Z M 111.464844 178.5625 " clip-rule="nonzero"/></clipPath><clipPath id="f6017d7ef8"><path d="M 111.464844 178.5625 L 111.46875 196.332031 L 79.742188 196.339844 L 79.738281 178.574219 Z M 111.464844 178.5625 " clip-rule="nonzero"/></clipPath><clipPath id="eea750233b"><path d="M 95 144 L 170 144 L 170 230 L 95 230 Z M 95 144 " clip-rule="nonzero"/></clipPath><clipPath id="bde882b5d2"><path d="M 131.820312 123.753906 L 205.886719 165.859375 L 169.324219 230.179688 L 95.257812 188.078125 Z M 131.820312 123.753906 " clip-rule="nonzero"/></clipPath><clipPath id="4f22869e26"><path d="M 168.570312 144.644531 L 169.109375 229.234375 L 95.609375 187.457031 L 168.570312 144.644531 " clip-rule="nonzero"/></clipPath><clipPath id="b18ec54d86"><path d="M 149 133 L 181 133 L 181 170 L 149 170 Z M 149 133 " clip-rule="nonzero"/></clipPath><clipPath id="108d7ab5e1"><path d="M 164.742188 133.390625 L 180.535156 142.367188 L 164.757812 170.121094 L 148.96875 161.144531 Z M 164.742188 133.390625 " clip-rule="nonzero"/></clipPath><clipPath id="5e773f0ffd"><path d="M 164.742188 133.390625 L 180.1875 142.167969 L 164.511719 169.753906 L 149.066406 160.972656 Z M 164.742188 133.390625 " clip-rule="nonzero"/></clipPath><clipPath id="5f469d938c"><path d="M 154 92 L 211 92 L 211 148 L 154 148 Z M 154 92 " clip-rule="nonzero"/></clipPath><clipPath id="3f7fff33e1"><path d="M 144.476562 129.46875 L 173.070312 81.757812 L 220.777344 110.351562 L 192.1875 158.0625 Z M 144.476562 129.46875 " clip-rule="nonzero"/></clipPath><clipPath id="8f8556ba81"><path d="M 158.773438 105.613281 C 150.875 118.789062 155.15625 135.871094 168.332031 143.765625 C 181.503906 151.660156 198.585938 147.382812 206.480469 134.207031 C 214.378906 121.03125 210.097656 103.953125 196.921875 96.054688 C 183.75 88.160156 166.667969 92.4375 158.773438 105.613281 " clip-rule="nonzero"/></clipPath><clipPath id="a91d01bea6"><path d="M 154 92 L 211 92 L 211 148 L 154 148 Z M 154 92 " clip-rule="nonzero"/></clipPath><clipPath id="922a3df929"><path d="M 144.476562 129.46875 L 173.003906 81.863281 L 220.609375 110.394531 L 192.082031 158 Z M 144.476562 129.46875 " clip-rule="nonzero"/></clipPath><clipPath id="d8f7f6b111"><path d="M 144.476562 129.46875 L 173.003906 81.863281 L 220.609375 110.394531 L 192.082031 158 Z M 144.476562 129.46875 " clip-rule="nonzero"/></clipPath><clipPath id="676daf6faa"><path d="M 158.742188 105.667969 C 150.863281 118.8125 155.132812 135.855469 168.277344 143.734375 C 181.425781 151.613281 198.46875 147.34375 206.347656 134.195312 C 214.222656 121.050781 209.953125 104.007812 196.808594 96.128906 C 183.664062 88.25 166.617188 92.519531 158.742188 105.667969 " clip-rule="nonzero"/></clipPath><clipPath id="ebb875b18d"><path d="M 37 159 L 94 159 L 94 216 L 37 216 Z M 37 159 " clip-rule="nonzero"/></clipPath><clipPath id="3c2690eb7e"><path d="M 37.640625 160.007812 L 93.261719 159.65625 L 93.613281 215.277344 L 37.992188 215.628906 Z M 37.640625 160.007812 " clip-rule="nonzero"/></clipPath><clipPath id="f5cf9670ee"><path d="M 65.449219 159.832031 C 50.089844 159.929688 37.71875 172.460938 37.816406 187.820312 C 37.914062 203.179688 50.441406 215.550781 65.800781 215.453125 C 81.160156 215.355469 93.535156 202.828125 93.4375 187.46875 C 93.339844 172.109375 80.808594 159.734375 65.449219 159.832031 " clip-rule="nonzero"/></clipPath><clipPath id="80e94ee706"><path d="M 37 159 L 94 159 L 94 216 L 37 216 Z M 37 159 " clip-rule="nonzero"/></clipPath><clipPath id="f8e960ab25"><path d="M 37.640625 160.007812 L 93.136719 159.65625 L 93.488281 215.15625 L 37.992188 215.507812 Z M 37.640625 160.007812 " clip-rule="nonzero"/></clipPath><clipPath id="8ea52b1a48"><path d="M 37.640625 160.007812 L 93.136719 159.65625 L 93.488281 215.15625 L 37.992188 215.507812 Z M 37.640625 160.007812 " clip-rule="nonzero"/></clipPath><clipPath id="4a3af0b7e6"><path d="M 65.386719 159.832031 C 50.0625 159.929688 37.71875 172.433594 37.816406 187.757812 C 37.910156 203.082031 50.414062 215.429688 65.738281 215.332031 C 81.066406 215.234375 93.410156 202.730469 93.3125 187.40625 C 93.214844 172.082031 80.714844 159.734375 65.386719 159.832031 " clip-rule="nonzero"/></clipPath><clipPath id="31f5c6d9c6"><path d="M 154 223 L 210 223 L 210 280 L 154 280 Z M 154 223 " clip-rule="nonzero"/></clipPath><clipPath id="f8c67be7ca"><path d="M 143.957031 241.714844 L 191.917969 213.546875 L 220.085938 261.511719 L 172.125 289.679688 Z M 143.957031 241.714844 " clip-rule="nonzero"/></clipPath><clipPath id="e6ce310ac0"><path d="M 167.9375 227.632812 C 154.695312 235.410156 150.261719 252.453125 158.042969 265.699219 C 165.820312 278.941406 182.863281 283.375 196.105469 275.59375 C 209.351562 267.816406 213.78125 250.773438 206.003906 237.53125 C 198.226562 224.285156 181.183594 219.855469 167.9375 227.632812 " clip-rule="nonzero"/></clipPath><clipPath id="674805e719"><path d="M 154 223 L 210 223 L 210 280 L 154 280 Z M 154 223 " clip-rule="nonzero"/></clipPath><clipPath id="4e3440e9c0"><path d="M 143.957031 241.714844 L 191.8125 213.609375 L 219.921875 261.46875 L 172.0625 289.574219 Z M 143.957031 241.714844 " clip-rule="nonzero"/></clipPath><clipPath id="a464a8b90c"><path d="M 143.957031 241.714844 L 191.8125 213.609375 L 219.921875 261.46875 L 172.0625 289.574219 Z M 143.957031 241.714844 " clip-rule="nonzero"/></clipPath><clipPath id="0566fd43c1"><path d="M 167.886719 227.664062 C 154.671875 235.425781 150.25 252.429688 158.011719 265.644531 C 165.769531 278.859375 182.777344 283.28125 195.992188 275.519531 C 209.207031 267.757812 213.628906 250.753906 205.867188 237.539062 C 198.105469 224.324219 181.101562 219.902344 167.886719 227.664062 " clip-rule="nonzero"/></clipPath><clipPath id="e9e254a5e5"><path d="M 175 112 L 190 112 L 190 127 L 175 127 Z M 175 112 " clip-rule="nonzero"/></clipPath><clipPath id="a6b926ad1b"><path d="M 180.003906 110.394531 L 192.140625 117.292969 L 185.242188 129.429688 L 173.105469 122.53125 Z M 180.003906 110.394531 " clip-rule="nonzero"/></clipPath><clipPath id="0f722dad32"><path d="M 186.070312 113.84375 C 182.71875 111.941406 178.460938 113.113281 176.554688 116.464844 C 174.648438 119.816406 175.820312 124.074219 179.171875 125.980469 C 182.523438 127.886719 186.785156 126.710938 188.691406 123.363281 C 190.59375 120.011719 189.421875 115.75 186.070312 113.84375 " clip-rule="nonzero"/></clipPath><clipPath id="b43550463c"><path d="M 58 180 L 73 180 L 73 195 L 58 195 Z M 58 180 " clip-rule="nonzero"/></clipPath><clipPath id="51bf9a7cff"><path d="M 72.554688 180.617188 L 72.644531 194.578125 L 58.683594 194.664062 L 58.597656 180.707031 Z M 72.554688 180.617188 " clip-rule="nonzero"/></clipPath><clipPath id="2e8f4e542f"><path d="M 72.601562 187.597656 C 72.574219 183.742188 69.429688 180.636719 65.574219 180.660156 C 61.722656 180.6875 58.617188 183.832031 58.640625 187.683594 C 58.664062 191.539062 61.808594 194.644531 65.664062 194.621094 C 69.519531 194.597656 72.625 191.453125 72.601562 187.597656 " clip-rule="nonzero"/></clipPath><clipPath id="0a714ea698"><path d="M 175 244 L 190 244 L 190 259 L 175 259 Z M 175 244 " clip-rule="nonzero"/></clipPath><clipPath id="4151324aa5"><path d="M 180.285156 241.554688 L 192.417969 248.453125 L 185.523438 260.585938 L 173.386719 253.6875 Z M 180.285156 241.554688 " clip-rule="nonzero"/></clipPath><clipPath id="d684333503"><path d="M 186.351562 245.003906 C 183 243.097656 178.738281 244.269531 176.835938 247.621094 C 174.929688 250.972656 176.101562 255.234375 179.453125 257.136719 C 182.804688 259.042969 187.066406 257.871094 188.972656 254.519531 C 190.875 251.167969 189.703125 246.90625 186.351562 245.003906 " clip-rule="nonzero"/></clipPath><clipPath id="a607664247"><path d="M 199 164 L 216 164 L 216 211 L 199 211 Z M 199 164 " clip-rule="nonzero"/></clipPath><clipPath id="d4fcc115ba"><path d="M 204.082031 211.433594 L 199.597656 164.398438 L 213.039062 163.117188 L 217.519531 210.152344 Z M 204.082031 211.433594 " clip-rule="nonzero"/></clipPath><clipPath id="71edf32130"><path d="M 199.582031 164.210938 L 204.0625 211.246094 L 217.503906 209.964844 L 213.019531 162.929688 Z M 199.582031 164.210938 " clip-rule="nonzero"/></clipPath><clipPath id="3abe4de299"><path d="M 199.582031 164.210938 L 204.0625 211.246094 L 217.503906 209.964844 L 213.019531 162.929688 Z M 199.582031 164.210938 " clip-rule="nonzero"/></clipPath><clipPath id="4d49caeb18"><path d="M 206 170 L 207 170 L 207 171 L 206 171 Z M 206 170 " clip-rule="nonzero"/></clipPath><clipPath id="2e5283921d"><path d="M 204.082031 211.433594 L 199.597656 164.398438 L 213.039062 163.117188 L 217.519531 210.152344 Z M 204.082031 211.433594 " clip-rule="nonzero"/></clipPath><clipPath id="3b6664f730"><path d="M 199.582031 164.210938 L 204.0625 211.246094 L 217.503906 209.964844 L 213.019531 162.929688 Z M 199.582031 164.210938 " clip-rule="nonzero"/></clipPath><clipPath id="8bd5a0f359"><path d="M 199.582031 164.210938 L 204.0625 211.246094 L 217.503906 209.964844 L 213.019531 162.929688 Z M 199.582031 164.210938 " clip-rule="nonzero"/></clipPath><clipPath id="de300a4524"><path d="M 92 231 L 135 231 L 135 256 L 92 256 Z M 92 231 " clip-rule="nonzero"/></clipPath><clipPath id="046b0b978e"><path d="M 94.199219 228.144531 L 135.242188 251.554688 L 128.554688 263.28125 L 87.507812 239.871094 Z M 94.199219 228.144531 " clip-rule="nonzero"/></clipPath><clipPath id="971c939a15"><path d="M 135.402344 251.644531 L 94.359375 228.238281 L 87.671875 239.964844 L 128.714844 263.371094 Z M 135.402344 251.644531 " clip-rule="nonzero"/></clipPath><clipPath id="6aae9c68d3"><path d="M 135.402344 251.644531 L 94.359375 228.238281 L 87.671875 239.964844 L 128.714844 263.371094 Z M 135.402344 251.644531 " clip-rule="nonzero"/></clipPath><clipPath id="3d8d354bad"><path d="M 125 253 L 127 253 L 127 254 L 125 254 Z M 125 253 " clip-rule="nonzero"/></clipPath><clipPath id="96b29e5107"><path d="M 94.199219 228.144531 L 135.242188 251.554688 L 128.554688 263.28125 L 87.507812 239.871094 Z M 94.199219 228.144531 " clip-rule="nonzero"/></clipPath><clipPath id="c5a504f245"><path d="M 135.402344 251.644531 L 94.359375 228.238281 L 87.671875 239.964844 L 128.714844 263.371094 Z M 135.402344 251.644531 " clip-rule="nonzero"/></clipPath><clipPath id="fff940c5b4"><path d="M 135.402344 251.644531 L 94.359375 228.238281 L 87.671875 239.964844 L 128.714844 263.371094 Z M 135.402344 251.644531 " clip-rule="nonzero"/></clipPath><clipPath id="e135af2068"><path d="M 89 117 L 131 117 L 131 146 L 89 146 Z M 89 117 " clip-rule="nonzero"/></clipPath><clipPath id="b5fe8ed416"><path d="M 132.640625 125.945312 L 90.015625 146.328125 L 84.191406 134.148438 L 126.820312 113.765625 Z M 132.640625 125.945312 " clip-rule="nonzero"/></clipPath><clipPath id="5999fd1820"><path d="M 89.84375 146.410156 L 132.472656 126.027344 L 126.648438 113.847656 L 84.023438 134.230469 Z M 89.84375 146.410156 " clip-rule="nonzero"/></clipPath><clipPath id="784cb8a3de"><path d="M 89.84375 146.410156 L 132.472656 126.027344 L 126.648438 113.847656 L 84.023438 134.230469 Z M 89.84375 146.410156 " clip-rule="nonzero"/></clipPath><clipPath id="f9b2842399"><path d="M 93 137 L 94 137 L 94 138 L 93 138 Z M 93 137 " clip-rule="nonzero"/></clipPath><clipPath id="0b8e384f6e"><path d="M 132.640625 125.945312 L 90.015625 146.328125 L 84.191406 134.148438 L 126.820312 113.765625 Z M 132.640625 125.945312 " clip-rule="nonzero"/></clipPath><clipPath id="512fd9eaa2"><path d="M 89.84375 146.410156 L 132.472656 126.027344 L 126.648438 113.847656 L 84.023438 134.230469 Z M 89.84375 146.410156 " clip-rule="nonzero"/></clipPath><clipPath id="63aba747dd"><path d="M 89.84375 146.410156 L 132.472656 126.027344 L 126.648438 113.847656 L 84.023438 134.230469 Z M 89.84375 146.410156 " clip-rule="nonzero"/></clipPath><clipPath id="1945e24f85"><path d="M 266.625 297.128906 L 283 297.128906 L 283 318.128906 L 266.625 318.128906 Z M 266.625 297.128906 " clip-rule="nonzero"/></clipPath><clipPath id="4ac25c2b7a"><path d="M 278 297.128906 L 294.785156 297.128906 L 294.785156 318.128906 L 278 318.128906 Z M 278 297.128906 " clip-rule="nonzero"/></clipPath><clipPath id="87a9211ca1"><path d="M 229.5 297.128906 L 246 297.128906 L 246 318.128906 L 229.5 318.128906 Z M 229.5 297.128906 " clip-rule="nonzero"/></clipPath><clipPath id="13f835f86e"><path d="M 241 297.128906 L 257.660156 297.128906 L 257.660156 318.128906 L 241 318.128906 Z M 241 297.128906 " clip-rule="nonzero"/></clipPath><clipPath id="a12ffd1e82"><path d="M 192.375 297.128906 L 209 297.128906 L 209 318.128906 L 192.375 318.128906 Z M 192.375 297.128906 " clip-rule="nonzero"/></clipPath><clipPath id="57d26807c8"><path d="M 204 297.128906 L 220.535156 297.128906 L 220.535156 318.128906 L 204 318.128906 Z M 204 297.128906 " clip-rule="nonzero"/></clipPath><clipPath id="449fd5661f"><path d="M 155.25 297.128906 L 172 297.128906 L 172 318.128906 L 155.25 318.128906 Z M 155.25 297.128906 " clip-rule="nonzero"/></clipPath><clipPath id="a157f8a110"><path d="M 167 297.128906 L 183.410156 297.128906 L 183.410156 318.128906 L 167 318.128906 Z M 167 297.128906 " clip-rule="nonzero"/></clipPath><clipPath id="8d37d5e9b9"><path d="M 117 297 L 135 297 L 135 319 L 117 319 Z M 117 297 " clip-rule="nonzero"/></clipPath><clipPath id="e975e908fc"><path d="M 117.945312 297.378906 L 146.441406 296.875 L 146.8125 317.871094 L 118.316406 318.375 Z M 117.945312 297.378906 " clip-rule="nonzero"/></clipPath><clipPath id="72d6841d51"><path d="M 146.101562 296.878906 L 117.605469 297.382812 L 117.976562 318.378906 L 146.472656 317.875 Z M 146.101562 296.878906 " clip-rule="nonzero"/></clipPath><clipPath id="31fc4be7ae"><path d="M 130 296 L 147 296 L 147 318 L 130 318 Z M 130 296 " clip-rule="nonzero"/></clipPath><clipPath id="070d22decf"><path d="M 117.945312 297.378906 L 146.441406 296.875 L 146.8125 317.871094 L 118.316406 318.375 Z M 117.945312 297.378906 " clip-rule="nonzero"/></clipPath><clipPath id="db8eeb471e"><path d="M 146.101562 296.878906 L 117.605469 297.382812 L 117.976562 318.378906 L 146.472656 317.875 Z M 146.101562 296.878906 " clip-rule="nonzero"/></clipPath><clipPath id="33627e6290"><path d="M 75 282 L 95 282 L 95 304 L 75 304 Z M 75 282 " clip-rule="nonzero"/></clipPath><clipPath id="92c9bf010d"><path d="M 81.105469 277.734375 L 105.09375 293.121094 L 93.757812 310.796875 L 69.765625 295.410156 Z M 81.105469 277.734375 " clip-rule="nonzero"/></clipPath><clipPath id="8048c15282"><path d="M 104.808594 292.9375 L 80.816406 277.550781 L 69.480469 295.226562 L 93.46875 310.613281 Z M 104.808594 292.9375 " clip-rule="nonzero"/></clipPath><clipPath id="7ddd74cdfd"><path d="M 85 289 L 105 289 L 105 311 L 85 311 Z M 85 289 " clip-rule="nonzero"/></clipPath><clipPath id="33de841b55"><path d="M 81.105469 277.734375 L 105.09375 293.121094 L 93.757812 310.796875 L 69.765625 295.410156 Z M 81.105469 277.734375 " clip-rule="nonzero"/></clipPath><clipPath id="20545ef39b"><path d="M 104.808594 292.9375 L 80.816406 277.550781 L 69.480469 295.226562 L 93.46875 310.613281 Z M 104.808594 292.9375 " clip-rule="nonzero"/></clipPath><clipPath id="ec646017c6"><path d="M 39 261 L 60 261 L 60 282 L 39 282 Z M 39 261 " clip-rule="nonzero"/></clipPath><clipPath id="b4b8c70243"><path d="M 48.058594 255.742188 L 68.585938 275.511719 L 54.019531 290.636719 L 33.492188 270.867188 Z M 48.058594 255.742188 " clip-rule="nonzero"/></clipPath><clipPath id="2ac6d53fcb"><path d="M 68.339844 275.277344 L 47.8125 255.503906 L 33.246094 270.632812 L 53.773438 290.402344 Z M 68.339844 275.277344 " clip-rule="nonzero"/></clipPath><clipPath id="11d004a2da"><path d="M 48 270 L 68 270 L 68 290 L 48 290 Z M 48 270 " clip-rule="nonzero"/></clipPath><clipPath id="22054e630a"><path d="M 48.058594 255.742188 L 68.585938 275.511719 L 54.019531 290.636719 L 33.492188 270.867188 Z M 48.058594 255.742188 " clip-rule="nonzero"/></clipPath><clipPath id="759d488d53"><path d="M 68.339844 275.277344 L 47.8125 255.503906 L 33.246094 270.632812 L 53.773438 290.402344 Z M 68.339844 275.277344 " clip-rule="nonzero"/></clipPath><clipPath id="70fc0dc178"><path d="M 17 226 L 39 226 L 39 245 L 17 245 Z M 17 226 " clip-rule="nonzero"/></clipPath><clipPath id="1b39c0689d"><path d="M 31.21875 221.023438 L 45.539062 245.664062 L 27.386719 256.21875 L 13.0625 231.578125 Z M 31.21875 221.023438 " clip-rule="nonzero"/></clipPath><clipPath id="d8c29eb836"><path d="M 45.371094 245.371094 L 31.046875 220.730469 L 12.890625 231.285156 L 27.214844 255.925781 Z M 45.371094 245.371094 " clip-rule="nonzero"/></clipPath><clipPath id="fe80980a6c"><path d="M 23 236 L 45 236 L 45 256 L 23 256 Z M 23 236 " clip-rule="nonzero"/></clipPath><clipPath id="e74136b506"><path d="M 31.21875 221.023438 L 45.539062 245.664062 L 27.386719 256.21875 L 13.0625 231.578125 Z M 31.21875 221.023438 " clip-rule="nonzero"/></clipPath><clipPath id="8da45d3521"><path d="M 45.371094 245.371094 L 31.046875 220.730469 L 12.890625 231.285156 L 27.214844 255.925781 Z M 45.371094 245.371094 " clip-rule="nonzero"/></clipPath><clipPath id="91a16c3c4b"><path d="M 8.878906 171.9375 L 29.878906 171.9375 L 29.878906 188 L 8.878906 188 Z M 8.878906 171.9375 " clip-rule="nonzero"/></clipPath><clipPath id="4ac34f803a"><path d="M 8.878906 184 L 29.878906 184 L 29.878906 200.097656 L 8.878906 200.097656 Z M 8.878906 184 " clip-rule="nonzero"/></clipPath><clipPath id="5af1e34ac6"><path d="M 20 121 L 42 121 L 42 141 L 20 141 Z M 20 121 " clip-rule="nonzero"/></clipPath><clipPath id="a77fc7cb6b"><path d="M 46.378906 127.648438 L 30.144531 151.074219 L 12.882812 139.109375 L 29.117188 115.6875 Z M 46.378906 127.648438 " clip-rule="nonzero"/></clipPath><clipPath id="e36c1b276d"><path d="M 30.339844 150.792969 L 46.574219 127.367188 L 29.3125 115.40625 L 13.078125 138.832031 Z M 30.339844 150.792969 " clip-rule="nonzero"/></clipPath><clipPath id="6691982a03"><path d="M 13 131 L 35 131 L 35 151 L 13 151 Z M 13 131 " clip-rule="nonzero"/></clipPath><clipPath id="badaa01cfa"><path d="M 46.378906 127.648438 L 30.144531 151.074219 L 12.882812 139.109375 L 29.117188 115.6875 Z M 46.378906 127.648438 " clip-rule="nonzero"/></clipPath><clipPath id="fa7194e752"><path d="M 30.339844 150.792969 L 46.574219 127.367188 L 29.3125 115.40625 L 13.078125 138.832031 Z M 30.339844 150.792969 " clip-rule="nonzero"/></clipPath><clipPath id="5a78105b4f"><path d="M 47 87 L 66 87 L 66 108 L 47 108 Z M 47 87 " clip-rule="nonzero"/></clipPath><clipPath id="91022585ad"><path d="M 72.519531 97.335938 L 51.425781 116.5 L 37.304688 100.957031 L 58.398438 81.792969 Z M 72.519531 97.335938 " clip-rule="nonzero"/></clipPath><clipPath id="8aaf603ba5"><path d="M 51.675781 116.269531 L 72.769531 97.105469 L 58.648438 81.5625 L 37.554688 100.726562 Z M 51.675781 116.269531 " clip-rule="nonzero"/></clipPath><clipPath id="43b8149215"><path d="M 37 96 L 57 96 L 57 116 L 37 116 Z M 37 96 " clip-rule="nonzero"/></clipPath><clipPath id="7cf43d3f56"><path d="M 72.519531 97.335938 L 51.425781 116.5 L 37.304688 100.957031 L 58.398438 81.792969 Z M 72.519531 97.335938 " clip-rule="nonzero"/></clipPath><clipPath id="b7c116489c"><path d="M 51.675781 116.269531 L 72.769531 97.105469 L 58.648438 81.5625 L 37.554688 100.726562 Z M 51.675781 116.269531 " clip-rule="nonzero"/></clipPath><clipPath id="4a22c076a7"><path d="M 81 66 L 101 66 L 101 88 L 81 88 Z M 81 66 " clip-rule="nonzero"/></clipPath><clipPath id="3f4760d9be"><path d="M 104.921875 81.058594 L 79.34375 93.632812 L 70.078125 74.785156 L 95.65625 62.214844 Z M 104.921875 81.058594 " clip-rule="nonzero"/></clipPath><clipPath id="5f9b330476"><path d="M 79.648438 93.480469 L 105.226562 80.910156 L 95.960938 62.0625 L 70.382812 74.636719 Z M 79.648438 93.480469 " clip-rule="nonzero"/></clipPath><clipPath id="def0443c36"><path d="M 70 71 L 90 71 L 90 94 L 70 94 Z M 70 71 " clip-rule="nonzero"/></clipPath><clipPath id="76fc24c088"><path d="M 104.921875 81.058594 L 79.34375 93.632812 L 70.078125 74.785156 L 95.65625 62.214844 Z M 104.921875 81.058594 " clip-rule="nonzero"/></clipPath><clipPath id="64b5f3d519"><path d="M 79.648438 93.480469 L 105.226562 80.910156 L 95.960938 62.0625 L 70.382812 74.636719 Z M 79.648438 93.480469 " clip-rule="nonzero"/></clipPath><clipPath id="d3d2b0d808"><path d="M 130 57.015625 L 146.285156 57.015625 L 146.285156 78 L 130 78 Z M 130 57.015625 " clip-rule="nonzero"/></clipPath><clipPath id="923a56635a"><path d="M 118.125 57.015625 L 135 57.015625 L 135 78 L 118.125 78 Z M 118.125 57.015625 " clip-rule="nonzero"/></clipPath><clipPath id="d2b0482503"><path d="M 166 56 L 183 56 L 183 78 L 166 78 Z M 166 56 " clip-rule="nonzero"/></clipPath><clipPath id="71533d4723"><path d="M 182.511719 78.015625 L 154.023438 77.15625 L 154.65625 56.164062 L 183.144531 57.023438 Z M 182.511719 78.015625 " clip-rule="nonzero"/></clipPath><clipPath id="506278fdb7"><path d="M 154.363281 77.164062 L 182.851562 78.023438 L 183.484375 57.035156 L 154.996094 56.175781 Z M 154.363281 77.164062 " clip-rule="nonzero"/></clipPath><clipPath id="500f7d51b2"><path d="M 154 56 L 171 56 L 171 78 L 154 78 Z M 154 56 " clip-rule="nonzero"/></clipPath><clipPath id="f0ab27433e"><path d="M 182.511719 78.015625 L 154.023438 77.15625 L 154.65625 56.164062 L 183.144531 57.023438 Z M 182.511719 78.015625 " clip-rule="nonzero"/></clipPath><clipPath id="4ca739d0b1"><path d="M 154.363281 77.164062 L 182.851562 78.023438 L 183.484375 57.035156 L 154.996094 56.175781 Z M 154.363281 77.164062 " clip-rule="nonzero"/></clipPath><clipPath id="c141441dd2"><path d="M 278 56 L 295 56 L 295 78 L 278 78 Z M 278 56 " clip-rule="nonzero"/></clipPath><clipPath id="703f5a10ed"><path d="M 294.164062 78.015625 L 265.675781 77.15625 L 266.308594 56.164062 L 294.796875 57.023438 Z M 294.164062 78.015625 " clip-rule="nonzero"/></clipPath><clipPath id="1388f8ac5d"><path d="M 266.015625 77.164062 L 294.503906 78.023438 L 295.136719 57.035156 L 266.648438 56.175781 Z M 266.015625 77.164062 " clip-rule="nonzero"/></clipPath><clipPath id="890ab776b0"><path d="M 266 56 L 283 56 L 283 78 L 266 78 Z M 266 56 " clip-rule="nonzero"/></clipPath><clipPath id="4540b1a51b"><path d="M 294.164062 78.015625 L 265.675781 77.15625 L 266.308594 56.164062 L 294.796875 57.023438 Z M 294.164062 78.015625 " clip-rule="nonzero"/></clipPath><clipPath id="a2783e79ca"><path d="M 266.015625 77.164062 L 294.503906 78.023438 L 295.136719 57.035156 L 266.648438 56.175781 Z M 266.015625 77.164062 " clip-rule="nonzero"/></clipPath><clipPath id="69cbab54ba"><path d="M 241 56 L 258 56 L 258 78 L 241 78 Z M 241 56 " clip-rule="nonzero"/></clipPath><clipPath id="c7b6b2a4c1"><path d="M 257.039062 78.015625 L 228.550781 77.15625 L 229.183594 56.164062 L 257.671875 57.023438 Z M 257.039062 78.015625 " clip-rule="nonzero"/></clipPath><clipPath id="d179fb8832"><path d="M 228.890625 77.164062 L 257.378906 78.023438 L 258.011719 57.035156 L 229.523438 56.175781 Z M 228.890625 77.164062 " clip-rule="nonzero"/></clipPath><clipPath id="5520c0a435"><path d="M 228 56 L 246 56 L 246 78 L 228 78 Z M 228 56 " clip-rule="nonzero"/></clipPath><clipPath id="62b760fd36"><path d="M 257.039062 78.015625 L 228.550781 77.15625 L 229.183594 56.164062 L 257.671875 57.023438 Z M 257.039062 78.015625 " clip-rule="nonzero"/></clipPath><clipPath id="5486821dae"><path d="M 228.890625 77.164062 L 257.378906 78.023438 L 258.011719 57.035156 L 229.523438 56.175781 Z M 228.890625 77.164062 " clip-rule="nonzero"/></clipPath><clipPath id="9f059f48da"><path d="M 204 56 L 221 56 L 221 78 L 204 78 Z M 204 56 " clip-rule="nonzero"/></clipPath><clipPath id="cd63595dc8"><path d="M 220.523438 78.015625 L 192.035156 77.15625 L 192.667969 56.164062 L 221.15625 57.023438 Z M 220.523438 78.015625 " clip-rule="nonzero"/></clipPath><clipPath id="0ba46fda7f"><path d="M 192.375 77.164062 L 220.863281 78.023438 L 221.496094 57.035156 L 193.007812 56.175781 Z M 192.375 77.164062 " clip-rule="nonzero"/></clipPath><clipPath id="9495af4bbb"><path d="M 192 56 L 209 56 L 209 78 L 192 78 Z M 192 56 " clip-rule="nonzero"/></clipPath><clipPath id="2a83f283d7"><path d="M 220.523438 78.015625 L 192.035156 77.15625 L 192.667969 56.164062 L 221.15625 57.023438 Z M 220.523438 78.015625 " clip-rule="nonzero"/></clipPath><clipPath id="d8911a9599"><path d="M 192.375 77.164062 L 220.863281 78.023438 L 221.496094 57.035156 L 193.007812 56.175781 Z M 192.375 77.164062 " clip-rule="nonzero"/></clipPath></defs><g clip-path="url(#bf5cd17772)"><g clip-path="url(#a0ce3a0e43)"><path fill="#919191" d="M 303.75 52.777344 L 303.75 323.039062 L -0.132812 323.039062 L -0.132812 52.777344 Z M 303.75 52.777344 " fill-opacity="1" fill-rule="nonzero"/></g></g><g clip-path="url(#0279ea6732)"><g clip-path="url(#d45fb02aa5)"><path stroke-linecap="butt" transform="matrix(0.000000000000000046, 0.75, -0.75, 0.000000000000000046, 303.749959, 52.777354)" fill="none" stroke-linejoin="miter" d="M 120.062492 394.442673 C 138.520826 400.817674 159.505202 404.999965 180.098953 404.999965 C 200.692704 404.999965 220.505205 401.416632 238.770831 395.041632 C 239.156248 394.838507 239.546873 394.838507 239.937498 394.64059 C 308.515627 369.145797 359.031254 301.81246 360.000004 224.124956 L 360.000004 -0.0000552182 L -0.0000142096 -0.0000552182 L -0.0000142096 223.95829 C 0.973944 302.208294 50.708322 369.54163 120.062492 394.442673 " stroke="#000000" stroke-width="4" stroke-opacity="1" stroke-miterlimit="4"/></g></g><g clip-path="url(#142af31593)"><g clip-path="url(#334ae6b0bc)"><g clip-path="url(#117a46d974)"><path fill="#707070" d="M 289.570312 224.453125 L 103.542969 333.703125 L -5.707031 147.679688 L 180.316406 38.425781 Z M 289.570312 224.453125 " fill-opacity="1" fill-rule="nonzero"/></g></g></g><g clip-path="url(#80d35c9216)"><g clip-path="url(#ed4e137f7c)"><g clip-path="url(#1845840431)"><g clip-path="url(#49903b6fe9)"><path stroke-linecap="butt" transform="matrix(-0.646717, 0.379812, -0.379812, -0.646717, 289.570154, 224.452541)" fill="none" stroke-linejoin="miter" d="M 144.001121 0.00220107 C 64.470492 0.00268155 0.00124364 64.472138 -0.00276697 144.00013 C 0.0003511 223.526268 64.471661 288.002644 143.997799 287.999526 C 223.528428 287.999046 287.997676 223.529589 288.001687 144.001598 C 288.001206 64.470969 223.527259 -0.000916998 144.001121 0.00220107 " stroke="#000000" stroke-width="8" stroke-opacity="1" stroke-miterlimit="4"/></g></g></g></g><g clip-path="url(#0b66e01f12)"><g clip-path="url(#f168b115d7)"><g clip-path="url(#9016d0f769)"><path fill="#ffde59" d="M 184.820312 238.359375 L 169.667969 247.339844 L 153.394531 219.875 L 168.546875 210.894531 Z M 184.820312 238.359375 " fill-opacity="1" fill-rule="nonzero"/></g></g></g><g clip-path="url(#3d705f0ac7)"><g clip-path="url(#82d840a178)"><g clip-path="url(#f6017d7ef8)"><path fill="#ffde59" d="M 111.464844 178.5625 L 111.46875 196.175781 L 79.546875 196.1875 L 79.539062 178.574219 Z M 111.464844 178.5625 " fill-opacity="1" fill-rule="nonzero"/></g></g></g><g clip-path="url(#eea750233b)"><g clip-path="url(#bde882b5d2)"><g clip-path="url(#4f22869e26)"><path fill="#ffde59" d="M 131.820312 123.753906 L 205.238281 165.488281 L 169.042969 229.160156 L 95.625 187.429688 Z M 131.820312 123.753906 " fill-opacity="1" fill-rule="nonzero"/></g></g></g><g clip-path="url(#b18ec54d86)"><g clip-path="url(#108d7ab5e1)"><g clip-path="url(#5e773f0ffd)"><path fill="#ffde59" d="M 164.742188 133.390625 L 180.054688 142.09375 L 164.28125 169.847656 L 148.96875 161.144531 Z M 164.742188 133.390625 " fill-opacity="1" fill-rule="nonzero"/></g></g></g><g clip-path="url(#5f469d938c)"><g clip-path="url(#3f7fff33e1)"><g clip-path="url(#8f8556ba81)"><path fill="#ffde59" d="M 144.476562 129.46875 L 173.070312 81.757812 L 220.777344 110.351562 L 192.1875 158.0625 Z M 144.476562 129.46875 " fill-opacity="1" fill-rule="nonzero"/></g></g></g><g clip-path="url(#a91d01bea6)"><g clip-path="url(#922a3df929)"><g clip-path="url(#d8f7f6b111)"><g clip-path="url(#676daf6faa)"><path fill="#000000" d="M 161.308594 107.207031 C 158.453125 111.96875 157.328125 117.105469 157.929688 122.609375 L 151.980469 123.261719 C 151.230469 116.421875 152.628906 110.042969 156.171875 104.128906 Z M 158.363281 125.246094 C 159.558594 130.671875 162.257812 135.175781 166.460938 138.757812 L 162.578125 143.316406 C 157.351562 138.863281 154 133.269531 152.515625 126.53125 Z M 168.582031 140.378906 C 168.984375 140.652344 169.398438 140.914062 169.816406 141.167969 C 174.128906 143.75 178.78125 144.914062 183.78125 144.660156 L 184.085938 150.640625 C 177.875 150.957031 172.09375 149.511719 166.738281 146.300781 C 166.21875 145.992188 165.710938 145.664062 165.210938 145.324219 Z M 186.441406 144.378906 C 191.933594 143.5 196.589844 141.066406 200.410156 137.078125 L 204.734375 141.21875 C 199.984375 146.175781 194.203125 149.199219 187.386719 150.292969 Z M 202.140625 135.0625 C 202.730469 134.296875 203.277344 133.496094 203.777344 132.65625 C 206.097656 128.789062 207.273438 124.613281 207.304688 120.132812 L 213.289062 120.171875 C 213.25 125.746094 211.792969 130.933594 208.914062 135.734375 C 208.292969 136.769531 207.617188 137.765625 206.882812 138.714844 Z M 207.179688 117.464844 C 206.621094 111.933594 204.460938 107.144531 200.707031 103.097656 L 205.09375 99.023438 C 209.761719 104.054688 212.441406 110 213.136719 116.863281 Z M 198.78125 101.238281 C 197.691406 100.292969 196.519531 99.445312 195.269531 98.695312 C 191.839844 96.640625 188.144531 95.484375 184.183594 95.222656 L 184.574219 89.25 C 189.496094 89.570312 194.089844 91.007812 198.347656 93.5625 C 199.894531 94.488281 201.347656 95.539062 202.703125 96.714844 Z M 181.515625 95.195312 C 175.964844 95.429688 171.058594 97.304688 166.792969 100.824219 L 162.984375 96.203125 C 168.28125 91.835938 174.375 89.503906 181.261719 89.210938 Z M 164.824219 102.632812 C 163.480469 104.011719 162.308594 105.535156 161.308594 107.207031 L 156.171875 104.128906 C 157.414062 102.058594 158.867188 100.167969 160.535156 98.457031 Z M 164.824219 102.632812 " fill-opacity="1" fill-rule="nonzero"/></g></g></g></g><g clip-path="url(#ebb875b18d)"><g clip-path="url(#3c2690eb7e)"><g clip-path="url(#f5cf9670ee)"><path fill="#ffde59" d="M 37.640625 160.007812 L 93.261719 159.65625 L 93.613281 215.277344 L 37.992188 215.628906 Z M 37.640625 160.007812 " fill-opacity="1" fill-rule="nonzero"/></g></g></g><g clip-path="url(#80e94ee706)"><g clip-path="url(#f8e960ab25)"><g clip-path="url(#8ea52b1a48)"><g clip-path="url(#4a3af0b7e6)"><path fill="#000000" d="M 65.40625 162.828125 C 59.851562 162.863281 54.882812 164.566406 50.492188 167.941406 L 46.84375 163.195312 C 52.296875 159 58.472656 156.882812 65.371094 156.839844 Z M 48.460938 169.683594 C 44.445312 173.523438 42 178.167969 41.121094 183.621094 L 35.210938 182.671875 C 36.300781 175.894531 39.339844 170.121094 44.324219 165.355469 Z M 40.839844 186.273438 C 40.816406 186.761719 40.804688 187.25 40.808594 187.738281 C 40.839844 192.765625 42.261719 197.347656 45.078125 201.484375 L 40.125 204.851562 C 36.628906 199.710938 34.859375 194.019531 34.820312 187.777344 C 34.816406 187.171875 34.832031 186.566406 34.863281 185.964844 Z M 46.699219 203.613281 C 50.300781 207.847656 54.800781 210.5625 60.195312 211.753906 L 58.902344 217.601562 C 52.199219 216.121094 46.609375 212.75 42.136719 207.492188 Z M 62.816406 212.1875 C 63.777344 212.292969 64.746094 212.34375 65.722656 212.339844 C 70.230469 212.308594 74.410156 211.144531 78.257812 208.84375 L 81.332031 213.980469 C 76.550781 216.839844 71.359375 218.289062 65.757812 218.324219 C 64.550781 218.332031 63.351562 218.269531 62.160156 218.140625 Z M 80.46875 207.351562 C 84.902344 204 87.875 199.667969 89.382812 194.355469 L 95.144531 195.992188 C 93.269531 202.59375 89.582031 207.972656 84.078125 212.128906 Z M 89.972656 191.746094 C 90.214844 190.324219 90.328125 188.882812 90.320312 187.425781 C 90.292969 183.425781 89.363281 179.667969 87.527344 176.148438 L 92.835938 173.378906 C 95.117188 177.753906 96.277344 182.421875 96.308594 187.386719 C 96.320312 189.195312 96.175781 190.980469 95.875 192.746094 Z M 86.167969 173.851562 C 83.082031 169.234375 78.929688 166.015625 73.710938 164.195312 L 75.679688 158.542969 C 82.164062 160.800781 87.320312 164.796875 91.148438 170.527344 Z M 71.140625 163.457031 C 69.261719 163.023438 67.351562 162.8125 65.40625 162.828125 L 65.371094 156.839844 C 67.78125 156.824219 70.152344 157.085938 72.484375 157.621094 Z M 71.140625 163.457031 " fill-opacity="1" fill-rule="nonzero"/></g></g></g></g><g clip-path="url(#31f5c6d9c6)"><g clip-path="url(#f8c67be7ca)"><g clip-path="url(#e6ce310ac0)"><path fill="#ffde59" d="M 143.957031 241.714844 L 191.917969 213.546875 L 220.085938 261.511719 L 172.125 289.679688 Z M 143.957031 241.714844 " fill-opacity="1" fill-rule="nonzero"/></g></g></g><g clip-path="url(#674805e719)"><g clip-path="url(#4e3440e9c0)"><g clip-path="url(#a464a8b90c)"><g clip-path="url(#0566fd43c1)"><path fill="#000000" d="M 169.402344 230.246094 C 164.613281 233.058594 161.164062 237.023438 159.054688 242.144531 L 153.519531 239.863281 C 156.140625 233.503906 160.421875 228.574219 166.371094 225.082031 Z M 158.171875 244.667969 C 156.617188 250.003906 156.828125 255.25 158.800781 260.40625 L 153.207031 262.546875 C 150.753906 256.136719 150.492188 249.617188 152.421875 242.992188 Z M 159.886719 262.84375 C 160.109375 263.277344 160.34375 263.707031 160.589844 264.128906 C 163.136719 268.464844 166.664062 271.714844 171.171875 273.886719 L 168.574219 279.28125 C 162.972656 276.582031 158.589844 272.542969 155.429688 267.160156 C 155.121094 266.640625 154.832031 266.109375 154.554688 265.570312 Z M 173.640625 274.917969 C 178.882812 276.777344 184.136719 276.875 189.402344 275.203125 L 191.210938 280.910156 C 184.667969 282.984375 178.144531 282.867188 171.640625 280.558594 Z M 191.886719 274.265625 C 192.769531 273.875 193.632812 273.433594 194.476562 272.9375 C 198.363281 270.65625 201.398438 267.554688 203.574219 263.636719 L 208.808594 266.542969 C 206.101562 271.414062 202.335938 275.265625 197.507812 278.101562 C 196.464844 278.714844 195.398438 279.261719 194.296875 279.746094 Z M 204.742188 261.234375 C 206.902344 256.113281 207.304688 250.878906 205.945312 245.523438 L 211.75 244.054688 C 213.4375 250.703125 212.9375 257.207031 210.257812 263.5625 Z M 205.148438 242.96875 C 204.644531 241.617188 204.023438 240.3125 203.285156 239.054688 C 201.261719 235.605469 198.570312 232.820312 195.21875 230.691406 L 198.425781 225.636719 C 202.59375 228.28125 205.933594 231.742188 208.449219 236.023438 C 209.363281 237.582031 210.132812 239.199219 210.761719 240.878906 Z M 192.894531 229.386719 C 187.910156 226.9375 182.703125 226.230469 177.273438 227.273438 L 176.144531 221.390625 C 182.890625 220.097656 189.351562 220.972656 195.535156 224.015625 Z M 174.679688 227.917969 C 172.839844 228.484375 171.078125 229.261719 169.402344 230.246094 L 166.371094 225.082031 C 168.449219 223.859375 170.632812 222.898438 172.917969 222.195312 Z M 174.679688 227.917969 " fill-opacity="1" fill-rule="nonzero"/></g></g></g></g><g clip-path="url(#e9e254a5e5)"><g clip-path="url(#a6b926ad1b)"><g clip-path="url(#0f722dad32)"><path fill="#707070" d="M 180.003906 110.394531 L 192.140625 117.292969 L 185.242188 129.429688 L 173.105469 122.53125 Z M 180.003906 110.394531 " fill-opacity="1" fill-rule="nonzero"/></g></g></g><g clip-path="url(#b43550463c)"><g clip-path="url(#51bf9a7cff)"><g clip-path="url(#2e8f4e542f)"><path fill="#707070" d="M 72.554688 180.617188 L 72.644531 194.578125 L 58.683594 194.664062 L 58.597656 180.707031 Z M 72.554688 180.617188 " fill-opacity="1" fill-rule="nonzero"/></g></g></g><g clip-path="url(#0a714ea698)"><g clip-path="url(#4151324aa5)"><g clip-path="url(#d684333503)"><path fill="#707070" d="M 180.285156 241.554688 L 192.417969 248.453125 L 185.523438 260.585938 L 173.386719 253.6875 Z M 180.285156 241.554688 " fill-opacity="1" fill-rule="nonzero"/></g></g></g><g clip-path="url(#a607664247)"><g clip-path="url(#d4fcc115ba)"><g clip-path="url(#71edf32130)"><g clip-path="url(#3abe4de299)"><path fill="#ffffff" d="M 200.042969 164.929688 C 200.074219 164.902344 200.113281 164.894531 200.152344 164.90625 C 200.25 164.804688 200.148438 164.59375 200.34375 164.539062 C 200.632812 164.191406 200.96875 164.28125 201.308594 164.4375 C 202.261719 164.882812 203.121094 165.46875 203.945312 166.109375 C 206.890625 168.402344 209.21875 171.203125 211.0625 174.4375 C 214.285156 180.082031 215.234375 186.140625 214.53125 192.507812 C 214.203125 195.460938 213.363281 198.300781 212.386719 201.105469 C 211.8125 202.75 211.140625 204.359375 210.507812 205.984375 C 210.460938 206.035156 210.410156 206.082031 210.363281 206.128906 C 210.367188 206.207031 210.347656 206.292969 210.382812 206.355469 C 210.414062 206.402344 210.480469 206.363281 210.503906 206.304688 C 211.089844 205.945312 211.582031 205.472656 212.046875 204.976562 C 212.367188 204.636719 212.703125 204.332031 213.128906 204.128906 C 213.808594 203.394531 214.605469 203.296875 215.355469 203.820312 C 214.8125 205.738281 213.4375 207.003906 211.933594 208.179688 C 211.375 208.617188 210.847656 209.089844 210.3125 209.558594 C 209.03125 210.671875 209.15625 210.441406 207.835938 210.015625 C 207.542969 209.921875 207.273438 209.761719 207.023438 209.574219 C 206.933594 209.503906 206.855469 209.433594 206.84375 209.3125 C 206.511719 209.1875 206.480469 208.894531 206.464844 208.609375 C 206.417969 207.757812 206.378906 206.90625 206.335938 206.054688 C 206.21875 205.886719 206.234375 205.699219 206.253906 205.511719 C 206.132812 205.347656 206.148438 205.160156 206.152344 204.972656 C 206.046875 204.871094 206.070312 204.726562 206.039062 204.601562 C 205.632812 202.902344 205.035156 201.277344 204.160156 199.753906 C 204.09375 199.640625 204.039062 199.519531 203.976562 199.402344 C 203.902344 199.261719 203.820312 199.105469 203.945312 198.980469 C 204.042969 198.882812 204.234375 198.886719 204.324219 198.957031 C 204.742188 199.257812 205.277344 199.257812 205.703125 199.511719 C 205.894531 199.628906 206.023438 199.808594 206.148438 199.996094 C 207.128906 201.425781 207.828125 202.992188 208.363281 204.632812 C 208.410156 204.78125 208.4375 204.9375 208.511719 205.070312 C 208.601562 205.222656 208.734375 205.164062 208.847656 205.070312 C 208.8125 204.898438 208.871094 204.769531 209.015625 204.675781 C 209.011719 204.511719 209.023438 204.351562 209.183594 204.253906 C 209.164062 204.214844 209.171875 204.1875 209.214844 204.171875 C 209.207031 204.015625 209.222656 203.871094 209.367188 203.773438 C 209.386719 203.667969 209.390625 203.554688 209.425781 203.453125 C 209.820312 202.335938 210.234375 201.226562 210.617188 200.101562 C 210.964844 199.085938 211.277344 198.058594 211.605469 197.03125 C 211.660156 196.753906 211.703125 196.46875 211.765625 196.195312 C 212.375 193.496094 212.644531 190.769531 212.503906 188.011719 C 212.453125 187.023438 212.371094 186.042969 212.300781 185.058594 C 212.179688 184.882812 212.203125 184.6875 212.222656 184.488281 C 212.101562 184.324219 212.121094 184.136719 212.136719 183.949219 C 212.011719 183.800781 212.042969 183.621094 212.042969 183.445312 C 211.949219 183.355469 211.941406 183.246094 211.972656 183.128906 C 211.941406 183.09375 211.933594 183.054688 211.957031 183.011719 C 211.855469 182.910156 211.875 182.769531 211.839844 182.644531 C 211.675781 182.035156 211.621094 181.402344 211.375 180.8125 C 211.421875 180.753906 211.433594 180.570312 211.546875 180.78125 C 211.625 180.921875 211.667969 180.925781 211.703125 180.882812 C 211.730469 180.84375 211.75 180.769531 211.769531 180.714844 C 211.183594 178.808594 210.371094 176.992188 209.4375 175.230469 C 209.335938 175.074219 209.234375 174.917969 209.132812 174.761719 C 208.523438 173.832031 207.914062 172.902344 207.304688 171.972656 C 207.261719 171.957031 207.230469 171.933594 207.210938 171.898438 C 207.199219 171.875 207.191406 171.851562 207.1875 171.820312 C 207.117188 171.796875 207.078125 171.746094 207.074219 171.671875 C 207 171.648438 206.964844 171.597656 206.960938 171.523438 C 206.886719 171.503906 206.847656 171.453125 206.84375 171.375 C 206.769531 171.355469 206.730469 171.304688 206.726562 171.226562 C 206.652344 171.207031 206.613281 171.160156 206.609375 171.082031 C 206.535156 171.0625 206.492188 171.015625 206.492188 170.9375 L 206.488281 170.9375 C 206.449219 170.894531 206.410156 170.84375 206.371094 170.796875 L 206.367188 170.792969 C 206.292969 170.773438 206.253906 170.730469 206.25 170.652344 L 206.246094 170.648438 C 206.171875 170.628906 206.132812 170.582031 206.128906 170.507812 L 206.125 170.503906 C 206.125 170.503906 206.121094 170.5 206.121094 170.5 C 206.121094 170.5 206.125 170.503906 206.125 170.503906 C 206.046875 170.488281 206.007812 170.4375 206.003906 170.363281 L 206 170.359375 C 205.925781 170.34375 205.886719 170.296875 205.882812 170.21875 L 205.878906 170.21875 C 205.804688 170.199219 205.761719 170.152344 205.757812 170.078125 C 205.347656 169.667969 204.941406 169.257812 204.535156 168.847656 C 204.390625 168.566406 204.132812 168.390625 203.910156 168.183594 C 203.875 168.195312 203.847656 168.214844 203.824219 168.234375 C 203.789062 168.269531 203.765625 168.308594 203.757812 168.363281 C 203.570312 168.226562 203.375 168.101562 203.261719 167.890625 C 203.234375 167.824219 203.199219 167.761719 203.136719 167.714844 C 203.179688 167.773438 203.222656 167.832031 203.261719 167.890625 C 203.195312 167.859375 203.132812 167.820312 203.140625 167.738281 C 203.023438 167.726562 202.945312 167.664062 202.894531 167.5625 C 202.820312 167.558594 202.769531 167.523438 202.757812 167.445312 C 202.6875 167.421875 202.628906 167.382812 202.609375 167.304688 C 202.574219 167.296875 202.542969 167.28125 202.523438 167.242188 C 202.316406 167.140625 202.144531 167.003906 202.003906 166.824219 C 201.863281 166.742188 201.71875 166.667969 201.632812 166.523438 C 201.523438 166.503906 201.460938 166.425781 201.390625 166.351562 C 200.835938 166.039062 200.339844 165.628906 199.695312 165.410156 C 199.867188 165.242188 199.808594 164.992188 200.042969 164.929688 Z M 209.347656 204.183594 C 209.34375 204.179688 209.34375 204.179688 209.34375 204.179688 C 209.347656 204.179688 209.347656 204.179688 209.347656 204.179688 C 209.347656 204.179688 209.34375 204.179688 209.34375 204.179688 C 209.34375 204.179688 209.34375 204.179688 209.339844 204.179688 C 209.34375 204.183594 209.34375 204.179688 209.347656 204.183594 Z M 206.308594 170.152344 C 206.316406 170.160156 206.328125 170.167969 206.339844 170.179688 C 206.339844 170.175781 206.335938 170.171875 206.335938 170.167969 C 206.328125 170.160156 206.320312 170.148438 206.308594 170.140625 C 206.308594 170.140625 206.308594 170.144531 206.308594 170.152344 Z M 207.304688 171.964844 C 207.304688 171.964844 207.304688 171.960938 207.308594 171.960938 C 207.3125 171.957031 207.316406 171.957031 207.320312 171.953125 L 207.332031 171.9375 L 207.304688 171.960938 C 207.304688 171.960938 207.304688 171.960938 207.300781 171.960938 C 207.304688 171.960938 207.304688 171.960938 207.304688 171.964844 Z M 206.324219 170.085938 C 206.320312 170.101562 206.316406 170.121094 206.3125 170.136719 C 206.320312 170.144531 206.328125 170.15625 206.335938 170.164062 C 206.320312 170.140625 206.316406 170.113281 206.324219 170.085938 Z M 206.390625 170.230469 C 206.402344 170.238281 206.414062 170.25 206.421875 170.261719 C 206.425781 170.261719 206.425781 170.261719 206.425781 170.261719 C 206.414062 170.25 206.402344 170.238281 206.390625 170.230469 Z M 201.234375 165.152344 C 201.230469 165.152344 201.230469 165.148438 201.230469 165.148438 C 201.230469 165.148438 201.226562 165.144531 201.226562 165.144531 C 201.226562 165.144531 201.222656 165.144531 201.222656 165.144531 C 201.226562 165.148438 201.230469 165.148438 201.234375 165.152344 Z M 201.480469 165.292969 C 201.480469 165.292969 201.484375 165.292969 201.488281 165.296875 C 201.484375 165.296875 201.480469 165.292969 201.480469 165.292969 Z M 203.117188 167.605469 C 203.121094 167.589844 203.125 167.578125 203.136719 167.566406 C 203.125 167.566406 203.117188 167.5625 203.109375 167.5625 C 203.109375 167.578125 203.113281 167.589844 203.117188 167.605469 Z M 202.695312 167.328125 C 202.679688 167.3125 202.65625 167.300781 202.632812 167.292969 C 202.632812 167.292969 202.632812 167.292969 202.632812 167.296875 C 202.65625 167.304688 202.679688 167.3125 202.695312 167.328125 Z M 202.695312 167.328125 " fill-opacity="1" fill-rule="nonzero"/></g></g></g></g><g clip-path="url(#4d49caeb18)"><g clip-path="url(#2e5283921d)"><g clip-path="url(#3b6664f730)"><g clip-path="url(#8bd5a0f359)"><path fill="#ffffff" d="M 206.367188 170.785156 C 206.40625 170.832031 206.445312 170.878906 206.484375 170.925781 C 206.410156 170.910156 206.371094 170.863281 206.367188 170.785156 Z M 206.367188 170.785156 " fill-opacity="1" fill-rule="nonzero"/></g></g></g></g><g clip-path="url(#de300a4524)"><g clip-path="url(#046b0b978e)"><g clip-path="url(#971c939a15)"><g clip-path="url(#6aae9c68d3)"><path fill="#ffffff" d="M 134.546875 251.609375 C 134.554688 251.652344 134.539062 251.6875 134.503906 251.710938 C 134.53125 251.855469 134.761719 251.886719 134.695312 252.082031 C 134.8125 252.515625 134.546875 252.742188 134.222656 252.929688 C 133.3125 253.453125 132.335938 253.816406 131.339844 254.121094 C 127.765625 255.210938 124.140625 255.503906 120.433594 255.148438 C 113.957031 254.535156 108.460938 251.824219 103.660156 247.582031 C 101.433594 245.617188 99.59375 243.292969 97.863281 240.882812 C 96.847656 239.464844 95.917969 237.988281 94.953125 236.539062 C 94.941406 236.46875 94.929688 236.402344 94.917969 236.335938 C 94.855469 236.292969 94.792969 236.226562 94.722656 236.222656 C 94.667969 236.21875 94.660156 236.296875 94.695312 236.347656 C 94.652344 237.035156 94.753906 237.707031 94.890625 238.375 C 94.984375 238.832031 95.042969 239.28125 94.960938 239.746094 C 95.171875 240.726562 94.792969 241.433594 93.933594 241.746094 C 92.679688 240.199219 92.433594 238.34375 92.335938 236.4375 C 92.300781 235.730469 92.21875 235.027344 92.144531 234.320312 C 91.96875 232.632812 92.089844 232.863281 93.195312 232.03125 C 93.441406 231.84375 93.726562 231.71875 94.023438 231.621094 C 94.132812 231.585938 94.238281 231.5625 94.339844 231.625 C 94.636719 231.425781 94.890625 231.570312 95.136719 231.71875 C 95.859375 232.167969 96.578125 232.628906 97.296875 233.082031 C 97.5 233.085938 97.648438 233.203125 97.789062 233.328125 C 97.992188 233.324219 98.140625 233.445312 98.289062 233.558594 C 98.433594 233.53125 98.535156 233.632812 98.65625 233.679688 C 100.28125 234.324219 101.953125 234.773438 103.703125 234.933594 C 103.835938 234.945312 103.964844 234.96875 104.09375 234.984375 C 104.25 235.003906 104.429688 235.027344 104.460938 235.203125 C 104.484375 235.335938 104.371094 235.488281 104.257812 235.527344 C 103.773438 235.695312 103.464844 236.132812 103.011719 236.332031 C 102.808594 236.425781 102.585938 236.425781 102.359375 236.417969 C 100.625 236.398438 98.945312 236.066406 97.292969 235.558594 C 97.144531 235.515625 97.003906 235.445312 96.851562 235.433594 C 96.675781 235.417969 96.644531 235.558594 96.65625 235.707031 C 96.816406 235.773438 96.890625 235.898438 96.882812 236.070312 C 97.019531 236.160156 97.144531 236.261719 97.128906 236.449219 C 97.175781 236.453125 97.191406 236.476562 97.179688 236.519531 C 97.3125 236.605469 97.421875 236.703125 97.417969 236.878906 C 97.496094 236.953125 97.582031 237.019531 97.644531 237.109375 C 98.332031 238.074219 99.003906 239.054688 99.699219 240.011719 C 100.335938 240.882812 100.992188 241.730469 101.640625 242.585938 C 101.839844 242.792969 102.046875 242.988281 102.234375 243.199219 C 104.089844 245.25 106.164062 247.042969 108.503906 248.515625 C 109.339844 249.039062 110.1875 249.539062 111.035156 250.050781 C 111.25 250.050781 111.394531 250.183594 111.542969 250.3125 C 111.75 250.308594 111.890625 250.429688 112.035156 250.554688 C 112.230469 250.535156 112.359375 250.664062 112.5 250.761719 C 112.628906 250.738281 112.722656 250.796875 112.800781 250.890625 C 112.847656 250.882812 112.882812 250.902344 112.902344 250.945312 C 113.046875 250.921875 113.152344 251.015625 113.269531 251.0625 C 113.867188 251.273438 114.417969 251.597656 115.039062 251.738281 C 115.0625 251.808594 115.203125 251.921875 114.964844 251.894531 C 114.808594 251.875 114.777344 251.910156 114.792969 251.960938 C 114.808594 252.007812 114.859375 252.066406 114.890625 252.113281 C 116.789062 252.734375 118.738281 253.113281 120.71875 253.363281 C 120.902344 253.367188 121.089844 253.375 121.277344 253.382812 C 122.386719 253.417969 123.5 253.457031 124.609375 253.496094 C 124.648438 253.46875 124.683594 253.457031 124.722656 253.460938 C 124.75 253.460938 124.777344 253.472656 124.800781 253.484375 C 124.863281 253.441406 124.925781 253.441406 124.988281 253.476562 C 125.050781 253.429688 125.113281 253.429688 125.175781 253.472656 C 125.234375 253.421875 125.300781 253.421875 125.363281 253.460938 C 125.425781 253.414062 125.488281 253.410156 125.550781 253.453125 C 125.609375 253.398438 125.671875 253.394531 125.738281 253.4375 C 125.796875 253.386719 125.859375 253.382812 125.921875 253.425781 L 125.925781 253.425781 C 125.988281 253.414062 126.046875 253.410156 126.109375 253.410156 L 126.117188 253.410156 C 126.171875 253.355469 126.234375 253.351562 126.296875 253.390625 L 126.304688 253.390625 C 126.363281 253.339844 126.421875 253.335938 126.488281 253.375 L 126.492188 253.375 C 126.492188 253.375 126.496094 253.375 126.496094 253.375 C 126.496094 253.375 126.492188 253.375 126.492188 253.375 C 126.550781 253.320312 126.609375 253.316406 126.675781 253.355469 L 126.679688 253.355469 C 126.738281 253.304688 126.796875 253.296875 126.863281 253.339844 L 126.867188 253.339844 C 126.921875 253.285156 126.984375 253.28125 127.050781 253.320312 C 127.621094 253.222656 128.191406 253.125 128.761719 253.027344 C 129.074219 253.074219 129.367188 252.964844 129.664062 252.898438 C 129.671875 252.863281 129.671875 252.832031 129.667969 252.800781 C 129.664062 252.753906 129.640625 252.710938 129.605469 252.671875 C 129.824219 252.597656 130.035156 252.507812 130.273438 252.539062 C 130.347656 252.554688 130.417969 252.5625 130.488281 252.539062 C 130.417969 252.539062 130.347656 252.539062 130.273438 252.539062 C 130.339844 252.5 130.40625 252.472656 130.472656 252.527344 C 130.546875 252.4375 130.644531 252.410156 130.753906 252.425781 C 130.804688 252.367188 130.859375 252.347656 130.929688 252.382812 C 130.992188 252.335938 131.054688 252.3125 131.132812 252.34375 C 131.160156 252.316406 131.1875 252.300781 131.230469 252.308594 C 131.433594 252.199219 131.644531 252.136719 131.871094 252.125 C 132.019531 252.054688 132.164062 251.980469 132.332031 251.992188 C 132.410156 251.914062 132.511719 251.910156 132.609375 251.894531 C 133.183594 251.617188 133.804688 251.453125 134.355469 251.050781 C 134.394531 251.285156 134.632812 251.382812 134.546875 251.609375 Z M 97.097656 236.621094 C 97.097656 236.625 97.097656 236.625 97.097656 236.625 C 97.097656 236.625 97.101562 236.625 97.101562 236.625 C 97.101562 236.625 97.097656 236.625 97.097656 236.625 C 97.101562 236.625 97.101562 236.621094 97.101562 236.621094 C 97.097656 236.621094 97.097656 236.621094 97.097656 236.621094 Z M 126.675781 253.726562 C 126.660156 253.730469 126.644531 253.734375 126.632812 253.738281 C 126.636719 253.738281 126.640625 253.738281 126.644531 253.738281 C 126.65625 253.738281 126.667969 253.738281 126.683594 253.734375 C 126.679688 253.734375 126.679688 253.730469 126.675781 253.726562 Z M 124.617188 253.5 C 124.617188 253.5 124.617188 253.5 124.617188 253.503906 C 124.621094 253.507812 124.617188 253.511719 124.621094 253.519531 L 124.625 253.535156 L 124.617188 253.5 C 124.621094 253.5 124.621094 253.5 124.621094 253.5 C 124.621094 253.5 124.621094 253.5 124.617188 253.5 Z M 126.71875 253.78125 C 126.707031 253.765625 126.695312 253.75 126.683594 253.738281 C 126.671875 253.738281 126.660156 253.742188 126.644531 253.742188 C 126.671875 253.742188 126.699219 253.753906 126.71875 253.78125 Z M 126.5625 253.753906 C 126.546875 253.753906 126.53125 253.753906 126.519531 253.757812 C 126.515625 253.757812 126.515625 253.757812 126.515625 253.761719 C 126.53125 253.757812 126.546875 253.753906 126.5625 253.753906 Z M 133.683594 252.453125 C 133.683594 252.457031 133.6875 252.453125 133.6875 252.457031 C 133.6875 252.457031 133.691406 252.453125 133.691406 252.453125 C 133.691406 252.453125 133.695312 252.453125 133.695312 252.453125 C 133.691406 252.449219 133.6875 252.453125 133.683594 252.453125 Z M 133.425781 252.574219 C 133.425781 252.578125 133.421875 252.582031 133.417969 252.582031 C 133.421875 252.578125 133.425781 252.578125 133.425781 252.574219 Z M 130.59375 252.582031 C 130.601562 252.59375 130.609375 252.605469 130.613281 252.621094 C 130.621094 252.613281 130.625 252.609375 130.632812 252.601562 C 130.621094 252.59375 130.605469 252.589844 130.59375 252.582031 Z M 131.058594 252.398438 C 131.082031 252.394531 131.105469 252.382812 131.125 252.367188 C 131.125 252.367188 131.125 252.367188 131.125 252.363281 C 131.105469 252.382812 131.082031 252.394531 131.058594 252.398438 Z M 131.058594 252.398438 " fill-opacity="1" fill-rule="nonzero"/></g></g></g></g><g clip-path="url(#3d8d354bad)"><g clip-path="url(#96b29e5107)"><g clip-path="url(#c5a504f245)"><g clip-path="url(#fff940c5b4)"><path fill="#ffffff" d="M 126.121094 253.410156 C 126.058594 253.417969 125.996094 253.421875 125.9375 253.425781 C 125.996094 253.375 126.058594 253.371094 126.121094 253.410156 Z M 126.121094 253.410156 " fill-opacity="1" fill-rule="nonzero"/></g></g></g></g><g clip-path="url(#e135af2068)"><g clip-path="url(#b5fe8ed416)"><g clip-path="url(#5999fd1820)"><g clip-path="url(#784cb8a3de)"><path fill="#ffffff" d="M 90.363281 145.726562 C 90.324219 145.707031 90.304688 145.675781 90.304688 145.632812 C 90.171875 145.574219 90.011719 145.742188 89.890625 145.578125 C 89.464844 145.425781 89.433594 145.078125 89.464844 144.707031 C 89.554688 143.660156 89.808594 142.648438 90.128906 141.65625 C 91.269531 138.101562 93.097656 134.957031 95.5 132.109375 C 99.695312 127.140625 105.054688 124.167969 111.277344 122.640625 C 114.160156 121.933594 117.117188 121.746094 120.085938 121.699219 C 121.832031 121.671875 123.570312 121.746094 125.316406 121.78125 C 125.378906 121.8125 125.4375 121.839844 125.5 121.871094 C 125.570312 121.839844 125.660156 121.828125 125.703125 121.773438 C 125.703125 121.773438 125.703125 121.773438 125.707031 121.773438 C 125.738281 121.730469 125.679688 121.679688 125.617188 121.679688 C 125.078125 121.25 124.464844 120.953125 123.839844 120.683594 C 123.410156 120.5 123.007812 120.289062 122.671875 119.960938 C 121.746094 119.574219 121.382812 118.859375 121.617188 117.976562 C 123.601562 117.828125 125.265625 118.683594 126.886719 119.691406 C 127.488281 120.0625 128.117188 120.398438 128.738281 120.738281 C 130.226562 121.558594 129.964844 121.523438 130.019531 122.90625 C 130.03125 123.214844 129.972656 123.523438 129.882812 123.820312 C 129.851562 123.929688 129.808594 124.027344 129.703125 124.082031 C 129.695312 124.433594 129.433594 124.5625 129.167969 124.679688 C 128.386719 125.015625 127.601562 125.34375 126.816406 125.675781 C 126.699219 125.84375 126.519531 125.898438 126.335938 125.941406 C 126.222656 126.113281 126.039062 126.164062 125.863281 126.21875 C 125.800781 126.355469 125.660156 126.382812 125.554688 126.453125 C 124.097656 127.421875 122.773438 128.542969 121.648438 129.886719 C 121.5625 129.988281 121.46875 130.082031 121.378906 130.179688 C 121.273438 130.296875 121.15625 130.429688 120.992188 130.355469 C 120.867188 130.296875 120.808594 130.117188 120.839844 130.003906 C 120.980469 129.511719 120.796875 129.007812 120.890625 128.519531 C 120.929688 128.300781 121.058594 128.121094 121.1875 127.9375 C 122.199219 126.523438 123.429688 125.332031 124.785156 124.261719 C 124.90625 124.167969 125.042969 124.089844 125.140625 123.972656 C 125.253906 123.835938 125.152344 123.730469 125.027344 123.65625 C 124.878906 123.75 124.738281 123.738281 124.597656 123.636719 C 124.445312 123.695312 124.292969 123.738281 124.144531 123.621094 C 124.117188 123.65625 124.089844 123.65625 124.058594 123.621094 C 123.914062 123.683594 123.773438 123.714844 123.628906 123.613281 C 123.523438 123.632812 123.417969 123.667969 123.308594 123.667969 C 122.125 123.683594 120.941406 123.675781 119.753906 123.703125 C 118.679688 123.726562 117.605469 123.785156 116.53125 123.832031 C 116.25 123.878906 115.972656 123.933594 115.6875 123.96875 C 112.949219 124.324219 110.292969 125.007812 107.75 126.089844 C 106.84375 126.476562 105.949219 126.890625 105.046875 127.292969 C 104.925781 127.46875 104.734375 127.515625 104.539062 127.5625 C 104.425781 127.734375 104.246094 127.78125 104.0625 127.828125 C 103.964844 128 103.789062 128.035156 103.625 128.09375 C 103.570312 128.210938 103.46875 128.253906 103.347656 128.265625 C 103.328125 128.308594 103.292969 128.328125 103.246094 128.320312 C 103.183594 128.453125 103.046875 128.484375 102.941406 128.554688 C 102.425781 128.921875 101.847656 129.191406 101.378906 129.625 C 101.304688 129.601562 101.132812 129.652344 101.289062 129.472656 C 101.394531 129.355469 101.386719 129.308594 101.332031 129.292969 C 101.289062 129.28125 101.210938 129.289062 101.152344 129.285156 C 99.5625 130.492188 98.136719 131.878906 96.804688 133.363281 C 96.695312 133.511719 96.582031 133.660156 96.46875 133.8125 C 95.808594 134.703125 95.144531 135.59375 94.480469 136.484375 C 94.480469 136.53125 94.46875 136.570312 94.441406 136.597656 C 94.425781 136.617188 94.402344 136.636719 94.375 136.648438 C 94.378906 136.722656 94.34375 136.777344 94.277344 136.804688 C 94.28125 136.882812 94.246094 136.933594 94.175781 136.964844 C 94.179688 137.042969 94.144531 137.09375 94.074219 137.125 C 94.082031 137.199219 94.050781 137.253906 93.976562 137.285156 C 93.984375 137.363281 93.953125 137.414062 93.882812 137.445312 L 93.878906 137.445312 C 93.890625 137.523438 93.859375 137.578125 93.789062 137.605469 L 93.785156 137.605469 C 93.757812 137.660156 93.726562 137.714844 93.695312 137.765625 L 93.691406 137.773438 C 93.699219 137.847656 93.671875 137.902344 93.601562 137.929688 L 93.597656 137.9375 C 93.605469 138.011719 93.578125 138.066406 93.507812 138.09375 L 93.503906 138.101562 C 93.515625 138.175781 93.484375 138.230469 93.414062 138.261719 L 93.410156 138.265625 C 93.421875 138.339844 93.390625 138.394531 93.320312 138.425781 C 93.332031 138.503906 93.300781 138.558594 93.230469 138.59375 C 92.984375 139.117188 92.742188 139.636719 92.496094 140.160156 C 92.28125 140.394531 92.203125 140.695312 92.085938 140.976562 C 92.109375 141.003906 92.136719 141.023438 92.164062 141.039062 C 92.207031 141.058594 92.253906 141.066406 92.308594 141.058594 C 92.246094 141.28125 92.195312 141.507812 92.035156 141.683594 C 91.980469 141.734375 91.933594 141.789062 91.914062 141.863281 C 91.953125 141.804688 91.992188 141.742188 92.035156 141.683594 C 92.027344 141.761719 92.011719 141.828125 91.933594 141.855469 C 91.964844 141.96875 91.929688 142.058594 91.851562 142.144531 C 91.875 142.214844 91.859375 142.273438 91.789062 142.3125 C 91.792969 142.386719 91.777344 142.457031 91.707031 142.5 C 91.714844 142.539062 91.707031 142.570312 91.679688 142.601562 C 91.65625 142.828125 91.585938 143.039062 91.464844 143.234375 C 91.4375 143.394531 91.417969 143.554688 91.3125 143.683594 C 91.332031 143.792969 91.277344 143.882812 91.234375 143.972656 C 91.132812 144.601562 90.914062 145.207031 90.933594 145.886719 C 90.714844 145.785156 90.5 145.925781 90.363281 145.726562 Z M 124.023438 123.496094 C 124.023438 123.496094 124.023438 123.496094 124.019531 123.496094 C 124.019531 123.496094 124.019531 123.492188 124.019531 123.492188 C 124.019531 123.496094 124.019531 123.496094 124.019531 123.496094 C 124.019531 123.496094 124.023438 123.5 124.019531 123.5 C 124.023438 123.5 124.023438 123.496094 124.023438 123.496094 Z M 93.109375 138.050781 C 93.117188 138.035156 93.121094 138.019531 93.125 138.007812 C 93.121094 138.011719 93.121094 138.011719 93.117188 138.015625 C 93.113281 138.027344 93.105469 138.039062 93.101562 138.050781 C 93.101562 138.050781 93.105469 138.050781 93.109375 138.050781 Z M 94.46875 136.488281 C 94.46875 136.488281 94.46875 136.488281 94.464844 136.488281 C 94.460938 136.484375 94.457031 136.480469 94.453125 136.480469 L 94.4375 136.472656 L 94.46875 136.488281 C 94.46875 136.492188 94.464844 136.492188 94.46875 136.492188 C 94.464844 136.492188 94.46875 136.492188 94.46875 136.488281 Z M 93.042969 138.054688 C 93.058594 138.054688 93.078125 138.050781 93.097656 138.050781 C 93.101562 138.039062 93.109375 138.027344 93.113281 138.019531 C 93.097656 138.039062 93.074219 138.054688 93.042969 138.054688 Z M 93.15625 137.941406 C 93.160156 137.929688 93.167969 137.914062 93.175781 137.902344 C 93.171875 137.902344 93.175781 137.902344 93.175781 137.898438 C 93.167969 137.914062 93.160156 137.929688 93.15625 137.941406 Z M 90.160156 144.53125 C 90.160156 144.535156 90.160156 144.535156 90.15625 144.535156 C 90.15625 144.535156 90.15625 144.539062 90.15625 144.539062 C 90.15625 144.539062 90.15625 144.542969 90.15625 144.542969 C 90.160156 144.542969 90.160156 144.539062 90.160156 144.53125 Z M 90.207031 144.253906 C 90.207031 144.25 90.207031 144.246094 90.207031 144.246094 C 90.210938 144.246094 90.207031 144.253906 90.207031 144.253906 Z M 91.816406 141.921875 C 91.804688 141.921875 91.789062 141.921875 91.773438 141.917969 C 91.777344 141.925781 91.777344 141.933594 91.78125 141.941406 C 91.792969 141.933594 91.804688 141.929688 91.816406 141.921875 Z M 91.703125 142.410156 C 91.691406 142.429688 91.6875 142.457031 91.691406 142.484375 C 91.691406 142.457031 91.695312 142.429688 91.703125 142.410156 Z M 91.703125 142.410156 " fill-opacity="1" fill-rule="nonzero"/></g></g></g></g><g clip-path="url(#f9b2842399)"><g clip-path="url(#0b8e384f6e)"><g clip-path="url(#512fd9eaa2)"><g clip-path="url(#63aba747dd)"><path fill="#ffffff" d="M 93.6875 137.773438 C 93.71875 137.71875 93.75 137.667969 93.777344 137.613281 C 93.785156 137.691406 93.753906 137.746094 93.6875 137.773438 Z M 93.6875 137.773438 " fill-opacity="1" fill-rule="nonzero"/></g></g></g></g><path stroke-linecap="butt" transform="matrix(0.74987, 0.00605191, -0.00605275, 0.749976, 136.490312, 77.86835)" fill="none" stroke-linejoin="miter" d="M -0.00220425 1.998534 L 223.03636 2.000873 " stroke="#000000" stroke-width="4" stroke-opacity="1" stroke-miterlimit="4"/><path stroke-linecap="butt" transform="matrix(0.750617, -0.00364086, 0.00363783, 0.749991, 135.126205, 291.168461)" fill="none" stroke-linejoin="miter" d="M -0.000887049 1.999363 L 224.814281 2.002183 " stroke="#000000" stroke-width="4" stroke-opacity="1" stroke-miterlimit="4"/><g clip-path="url(#1945e24f85)"><path fill="#38b6ff" d="M 266.714844 306.992188 L 275.207031 297.5 C 275.390625 297.296875 275.644531 297.183594 275.910156 297.183594 L 281.574219 297.183594 C 281.945312 297.183594 282.28125 297.402344 282.4375 297.746094 C 282.585938 298.089844 282.523438 298.488281 282.273438 298.765625 L 274.351562 307.628906 L 282.273438 316.484375 C 282.523438 316.765625 282.589844 317.164062 282.4375 317.507812 C 282.28125 317.851562 281.945312 318.070312 281.574219 318.070312 L 275.910156 318.070312 C 275.644531 318.070312 275.390625 317.953125 275.207031 317.757812 L 266.714844 308.261719 C 266.394531 307.902344 266.394531 307.351562 266.714844 306.992188 Z M 266.714844 306.992188 " fill-opacity="1" fill-rule="nonzero"/></g><g clip-path="url(#4ac25c2b7a)"><path fill="#38b6ff" d="M 278.984375 306.992188 L 287.476562 297.5 C 287.660156 297.296875 287.910156 297.183594 288.179688 297.183594 L 293.839844 297.183594 C 294.214844 297.183594 294.550781 297.402344 294.703125 297.746094 C 294.855469 298.089844 294.792969 298.488281 294.542969 298.765625 L 286.617188 307.628906 L 294.542969 316.484375 C 294.792969 316.765625 294.855469 317.164062 294.703125 317.507812 C 294.550781 317.851562 294.214844 318.070312 293.839844 318.070312 L 288.179688 318.070312 C 287.910156 318.070312 287.660156 317.953125 287.476562 317.757812 L 278.984375 308.261719 C 278.660156 307.902344 278.660156 307.351562 278.984375 306.992188 Z M 278.984375 306.992188 " fill-opacity="1" fill-rule="nonzero"/></g><g clip-path="url(#87a9211ca1)"><path fill="#5ce1e6" d="M 229.589844 306.992188 L 238.082031 297.5 C 238.265625 297.296875 238.519531 297.183594 238.785156 297.183594 L 244.449219 297.183594 C 244.820312 297.183594 245.15625 297.402344 245.3125 297.746094 C 245.460938 298.089844 245.398438 298.488281 245.148438 298.765625 L 237.226562 307.628906 L 245.148438 316.484375 C 245.398438 316.765625 245.464844 317.164062 245.3125 317.507812 C 245.15625 317.851562 244.820312 318.070312 244.449219 318.070312 L 238.785156 318.070312 C 238.519531 318.070312 238.265625 317.953125 238.082031 317.757812 L 229.589844 308.261719 C 229.269531 307.902344 229.269531 307.351562 229.589844 306.992188 Z M 229.589844 306.992188 " fill-opacity="1" fill-rule="nonzero"/></g><g clip-path="url(#13f835f86e)"><path fill="#5ce1e6" d="M 241.859375 306.992188 L 250.351562 297.5 C 250.535156 297.296875 250.785156 297.183594 251.054688 297.183594 L 256.714844 297.183594 C 257.089844 297.183594 257.425781 297.402344 257.578125 297.746094 C 257.730469 298.089844 257.667969 298.488281 257.417969 298.765625 L 249.492188 307.628906 L 257.417969 316.484375 C 257.667969 316.765625 257.730469 317.164062 257.578125 317.507812 C 257.425781 317.851562 257.089844 318.070312 256.714844 318.070312 L 251.054688 318.070312 C 250.785156 318.070312 250.535156 317.953125 250.351562 317.757812 L 241.859375 308.261719 C 241.535156 307.902344 241.535156 307.351562 241.859375 306.992188 Z M 241.859375 306.992188 " fill-opacity="1" fill-rule="nonzero"/></g><g clip-path="url(#a12ffd1e82)"><path fill="#38b6ff" d="M 192.464844 306.992188 L 200.957031 297.5 C 201.140625 297.296875 201.394531 297.183594 201.660156 297.183594 L 207.324219 297.183594 C 207.695312 297.183594 208.03125 297.402344 208.1875 297.746094 C 208.335938 298.089844 208.273438 298.488281 208.023438 298.765625 L 200.101562 307.628906 L 208.023438 316.484375 C 208.273438 316.765625 208.339844 317.164062 208.1875 317.507812 C 208.03125 317.851562 207.695312 318.070312 207.324219 318.070312 L 201.660156 318.070312 C 201.394531 318.070312 201.140625 317.953125 200.957031 317.757812 L 192.464844 308.261719 C 192.144531 307.902344 192.144531 307.351562 192.464844 306.992188 Z M 192.464844 306.992188 " fill-opacity="1" fill-rule="nonzero"/></g><g clip-path="url(#57d26807c8)"><path fill="#38b6ff" d="M 204.734375 306.992188 L 213.226562 297.5 C 213.410156 297.296875 213.660156 297.183594 213.929688 297.183594 L 219.589844 297.183594 C 219.964844 297.183594 220.300781 297.402344 220.453125 297.746094 C 220.605469 298.089844 220.542969 298.488281 220.292969 298.765625 L 212.367188 307.628906 L 220.292969 316.484375 C 220.542969 316.765625 220.605469 317.164062 220.453125 317.507812 C 220.300781 317.851562 219.964844 318.070312 219.589844 318.070312 L 213.929688 318.070312 C 213.660156 318.070312 213.410156 317.953125 213.226562 317.757812 L 204.734375 308.261719 C 204.410156 307.902344 204.410156 307.351562 204.734375 306.992188 Z M 204.734375 306.992188 " fill-opacity="1" fill-rule="nonzero"/></g><g clip-path="url(#449fd5661f)"><path fill="#38b6ff" d="M 155.339844 306.992188 L 163.832031 297.5 C 164.015625 297.296875 164.269531 297.183594 164.535156 297.183594 L 170.199219 297.183594 C 170.570312 297.183594 170.90625 297.402344 171.0625 297.746094 C 171.210938 298.089844 171.148438 298.488281 170.898438 298.765625 L 162.976562 307.628906 L 170.898438 316.484375 C 171.148438 316.765625 171.214844 317.164062 171.0625 317.507812 C 170.90625 317.851562 170.570312 318.070312 170.199219 318.070312 L 164.535156 318.070312 C 164.269531 318.070312 164.015625 317.953125 163.832031 317.757812 L 155.339844 308.261719 C 155.019531 307.902344 155.019531 307.351562 155.339844 306.992188 Z M 155.339844 306.992188 " fill-opacity="1" fill-rule="nonzero"/></g><g clip-path="url(#a157f8a110)"><path fill="#38b6ff" d="M 167.609375 306.992188 L 176.101562 297.5 C 176.285156 297.296875 176.535156 297.183594 176.804688 297.183594 L 182.464844 297.183594 C 182.839844 297.183594 183.175781 297.402344 183.328125 297.746094 C 183.480469 298.089844 183.417969 298.488281 183.167969 298.765625 L 175.242188 307.628906 L 183.167969 316.484375 C 183.417969 316.765625 183.480469 317.164062 183.328125 317.507812 C 183.175781 317.851562 182.839844 318.070312 182.464844 318.070312 L 176.804688 318.070312 C 176.535156 318.070312 176.285156 317.953125 176.101562 317.757812 L 167.609375 308.261719 C 167.285156 307.902344 167.285156 307.351562 167.609375 306.992188 Z M 167.609375 306.992188 " fill-opacity="1" fill-rule="nonzero"/></g><g clip-path="url(#8d37d5e9b9)"><g clip-path="url(#e975e908fc)"><g clip-path="url(#72d6841d51)"><path fill="#38b6ff" d="M 118.210938 307.242188 L 126.535156 297.597656 C 126.710938 297.394531 126.960938 297.273438 127.230469 297.269531 L 132.890625 297.171875 C 133.261719 297.164062 133.605469 297.378906 133.765625 297.714844 C 133.921875 298.058594 133.867188 298.460938 133.621094 298.742188 L 125.855469 307.738281 L 133.933594 316.457031 C 134.1875 316.730469 134.261719 317.128906 134.113281 317.476562 C 133.964844 317.820312 133.632812 318.046875 133.261719 318.054688 L 127.597656 318.152344 C 127.332031 318.160156 127.078125 318.046875 126.890625 317.851562 L 118.230469 308.511719 C 117.902344 308.15625 117.894531 307.605469 118.210938 307.242188 Z M 118.210938 307.242188 " fill-opacity="1" fill-rule="nonzero"/></g></g></g><g clip-path="url(#31fc4be7ae)"><g clip-path="url(#070d22decf)"><g clip-path="url(#db8eeb471e)"><path fill="#38b6ff" d="M 130.476562 307.023438 L 138.800781 297.382812 C 138.976562 297.175781 139.230469 297.058594 139.496094 297.054688 L 145.15625 296.953125 C 145.53125 296.945312 145.871094 297.160156 146.03125 297.5 C 146.1875 297.839844 146.132812 298.242188 145.886719 298.523438 L 138.121094 307.523438 L 146.203125 316.238281 C 146.457031 316.515625 146.527344 316.914062 146.378906 317.257812 C 146.234375 317.605469 145.898438 317.832031 145.527344 317.835938 L 139.867188 317.9375 C 139.597656 317.941406 139.34375 317.832031 139.160156 317.636719 L 130.5 308.292969 C 130.167969 307.9375 130.160156 307.386719 130.476562 307.023438 Z M 130.476562 307.023438 " fill-opacity="1" fill-rule="nonzero"/></g></g></g><g clip-path="url(#33627e6290)"><g clip-path="url(#92c9bf010d)"><g clip-path="url(#8048c15282)"><path fill="#5ce1e6" d="M 75.855469 286.085938 L 88.128906 282.679688 C 88.390625 282.609375 88.664062 282.648438 88.890625 282.796875 L 93.65625 285.851562 C 93.96875 286.050781 94.132812 286.421875 94.078125 286.789062 C 94.019531 287.160156 93.75 287.464844 93.390625 287.5625 L 81.9375 290.742188 L 83.828125 302.476562 C 83.886719 302.847656 83.722656 303.21875 83.410156 303.425781 C 83.097656 303.632812 82.691406 303.632812 82.378906 303.433594 L 77.613281 300.375 C 77.386719 300.230469 77.238281 299.996094 77.191406 299.734375 L 75.167969 287.15625 C 75.089844 286.679688 75.386719 286.214844 75.855469 286.085938 Z M 75.855469 286.085938 " fill-opacity="1" fill-rule="nonzero"/></g></g></g><g clip-path="url(#7ddd74cdfd)"><g clip-path="url(#33de841b55)"><g clip-path="url(#20545ef39b)"><path fill="#5ce1e6" d="M 86.179688 292.710938 L 98.457031 289.304688 C 98.714844 289.234375 98.992188 289.273438 99.214844 289.417969 L 103.984375 292.476562 C 104.296875 292.675781 104.460938 293.042969 104.40625 293.414062 C 104.347656 293.785156 104.078125 294.089844 103.71875 294.1875 L 92.265625 297.367188 L 94.152344 309.101562 C 94.210938 309.46875 94.050781 309.84375 93.738281 310.046875 C 93.421875 310.253906 93.019531 310.257812 92.707031 310.058594 L 87.941406 307 C 87.714844 306.855469 87.5625 306.621094 87.519531 306.355469 L 85.496094 293.78125 C 85.417969 293.300781 85.714844 292.839844 86.179688 292.710938 Z M 86.179688 292.710938 " fill-opacity="1" fill-rule="nonzero"/></g></g></g><g clip-path="url(#ec646017c6)"><g clip-path="url(#b4b8c70243)"><g clip-path="url(#2ac6d53fcb)"><path fill="#38b6ff" d="M 41.28125 262.910156 L 53.984375 261.964844 C 54.253906 261.945312 54.515625 262.039062 54.707031 262.222656 L 58.785156 266.152344 C 59.054688 266.410156 59.144531 266.800781 59.015625 267.15625 C 58.886719 267.507812 58.566406 267.753906 58.191406 267.777344 L 46.339844 268.664062 L 45.902344 280.539062 C 45.886719 280.914062 45.65625 281.246094 45.308594 281.386719 C 44.960938 281.53125 44.566406 281.453125 44.296875 281.195312 L 40.21875 277.269531 C 40.027344 277.082031 39.921875 276.824219 39.929688 276.554688 L 40.398438 263.824219 C 40.417969 263.339844 40.796875 262.945312 41.28125 262.910156 Z M 41.28125 262.910156 " fill-opacity="1" fill-rule="nonzero"/></g></g></g><g clip-path="url(#11d004a2da)"><g clip-path="url(#22054e630a)"><g clip-path="url(#759d488d53)"><path fill="#38b6ff" d="M 50.117188 271.421875 L 62.820312 270.472656 C 63.089844 270.453125 63.351562 270.546875 63.542969 270.734375 L 67.621094 274.660156 C 67.890625 274.917969 67.980469 275.3125 67.855469 275.664062 C 67.722656 276.015625 67.402344 276.261719 67.03125 276.289062 L 55.175781 277.171875 L 54.738281 289.050781 C 54.726562 289.425781 54.492188 289.757812 54.144531 289.898438 C 53.796875 290.039062 53.402344 289.964844 53.132812 289.707031 L 49.054688 285.777344 C 48.863281 285.59375 48.761719 285.332031 48.765625 285.066406 L 49.234375 272.335938 C 49.253906 271.851562 49.636719 271.453125 50.117188 271.421875 Z M 50.117188 271.421875 " fill-opacity="1" fill-rule="nonzero"/></g></g></g><g clip-path="url(#70fc0dc178)"><g clip-path="url(#1b39c0689d)"><g clip-path="url(#d8c29eb836)"><path fill="#38b6ff" d="M 22.734375 226.0625 L 35.210938 228.632812 C 35.476562 228.6875 35.699219 228.851562 35.835938 229.082031 L 38.679688 233.976562 C 38.867188 234.296875 38.847656 234.703125 38.628906 235.003906 C 38.40625 235.308594 38.03125 235.457031 37.664062 235.378906 L 26.023438 232.980469 L 22.347656 244.285156 C 22.230469 244.640625 21.917969 244.898438 21.542969 244.9375 C 21.171875 244.976562 20.808594 244.796875 20.625 244.472656 L 17.777344 239.578125 C 17.644531 239.347656 17.617188 239.070312 17.695312 238.8125 L 21.636719 226.699219 C 21.785156 226.238281 22.261719 225.960938 22.734375 226.0625 Z M 22.734375 226.0625 " fill-opacity="1" fill-rule="nonzero"/></g></g></g><g clip-path="url(#fe80980a6c)"><g clip-path="url(#e74136b506)"><g clip-path="url(#8da45d3521)"><path fill="#38b6ff" d="M 28.898438 236.667969 L 41.375 239.238281 C 41.640625 239.296875 41.867188 239.457031 42 239.6875 L 44.847656 244.582031 C 45.035156 244.90625 45.011719 245.308594 44.792969 245.613281 C 44.574219 245.914062 44.195312 246.0625 43.832031 245.984375 L 32.1875 243.585938 L 28.511719 254.890625 C 28.394531 255.246094 28.082031 255.503906 27.710938 255.542969 C 27.335938 255.582031 26.976562 255.402344 26.789062 255.082031 L 23.941406 250.183594 C 23.808594 249.953125 23.78125 249.675781 23.859375 249.421875 L 27.800781 237.304688 C 27.949219 236.847656 28.425781 236.570312 28.898438 236.667969 Z M 28.898438 236.667969 " fill-opacity="1" fill-rule="nonzero"/></g></g></g><g clip-path="url(#91a16c3c4b)"><path fill="#38b6ff" d="M 20.015625 172.027344 L 29.507812 180.519531 C 29.710938 180.699219 29.824219 180.953125 29.824219 181.222656 L 29.824219 186.882812 C 29.824219 187.257812 29.605469 187.59375 29.261719 187.746094 C 28.917969 187.898438 28.515625 187.835938 28.242188 187.585938 L 19.378906 179.660156 L 10.523438 187.585938 C 10.242188 187.835938 9.84375 187.898438 9.5 187.746094 C 9.15625 187.59375 8.9375 187.257812 8.9375 186.882812 L 8.9375 181.222656 C 8.9375 180.953125 9.050781 180.699219 9.25 180.519531 L 18.746094 172.027344 C 19.105469 171.703125 19.65625 171.703125 20.015625 172.027344 Z M 20.015625 172.027344 " fill-opacity="1" fill-rule="nonzero"/></g><g clip-path="url(#4ac34f803a)"><path fill="#38b6ff" d="M 20.015625 184.292969 L 29.507812 192.789062 C 29.710938 192.96875 29.824219 193.222656 29.824219 193.488281 L 29.824219 199.152344 C 29.824219 199.523438 29.605469 199.863281 29.261719 200.015625 C 28.917969 200.164062 28.515625 200.105469 28.242188 199.855469 L 19.378906 191.929688 L 10.523438 199.855469 C 10.242188 200.105469 9.84375 200.167969 9.5 200.015625 C 9.15625 199.863281 8.9375 199.523438 8.9375 199.152344 L 8.9375 193.488281 C 8.9375 193.222656 9.050781 192.96875 9.25 192.789062 L 18.746094 184.292969 C 19.105469 183.972656 19.65625 183.972656 20.015625 184.292969 Z M 20.015625 184.292969 " fill-opacity="1" fill-rule="nonzero"/></g><g clip-path="url(#5af1e34ac6)"><g clip-path="url(#a77fc7cb6b)"><g clip-path="url(#e36c1b276d)"><path fill="#5ce1e6" d="M 38.21875 122.101562 L 41.183594 134.492188 C 41.246094 134.753906 41.195312 135.027344 41.042969 135.246094 L 37.816406 139.902344 C 37.605469 140.207031 37.230469 140.359375 36.863281 140.289062 C 36.496094 140.21875 36.203125 139.941406 36.117188 139.578125 L 33.347656 128.015625 L 21.554688 129.484375 C 21.183594 129.53125 20.816406 129.355469 20.621094 129.035156 C 20.425781 128.714844 20.4375 128.308594 20.648438 128.003906 L 23.875 123.351562 C 24.027344 123.128906 24.269531 122.988281 24.53125 122.953125 L 37.175781 121.378906 C 37.65625 121.320312 38.105469 121.632812 38.21875 122.101562 Z M 38.21875 122.101562 " fill-opacity="1" fill-rule="nonzero"/></g></g></g><g clip-path="url(#6691982a03)"><g clip-path="url(#badaa01cfa)"><g clip-path="url(#fa7194e752)"><path fill="#5ce1e6" d="M 31.230469 132.1875 L 34.195312 144.574219 C 34.257812 144.839844 34.207031 145.109375 34.054688 145.332031 L 30.828125 149.984375 C 30.617188 150.289062 30.246094 150.441406 29.875 150.375 C 29.507812 150.300781 29.214844 150.023438 29.128906 149.660156 L 26.359375 138.101562 L 14.566406 139.566406 C 14.195312 139.613281 13.828125 139.4375 13.632812 139.117188 C 13.4375 138.796875 13.449219 138.394531 13.664062 138.085938 L 16.886719 133.433594 C 17.039062 133.214844 17.28125 133.070312 17.546875 133.035156 L 30.1875 131.460938 C 30.667969 131.402344 31.121094 131.714844 31.230469 132.1875 Z M 31.230469 132.1875 " fill-opacity="1" fill-rule="nonzero"/></g></g></g><g clip-path="url(#5a78105b4f)"><g clip-path="url(#91022585ad)"><g clip-path="url(#8aaf603ba5)"><path fill="#38b6ff" d="M 65.816406 90.09375 L 65.914062 102.832031 C 65.917969 103.101562 65.804688 103.355469 65.609375 103.535156 L 61.417969 107.34375 C 61.140625 107.59375 60.742188 107.660156 60.402344 107.507812 C 60.058594 107.355469 59.835938 107.015625 59.832031 106.644531 L 59.742188 94.757812 L 47.917969 93.53125 C 47.546875 93.492188 47.230469 93.238281 47.113281 92.882812 C 46.996094 92.523438 47.097656 92.136719 47.371094 91.886719 L 51.5625 88.078125 C 51.761719 87.898438 52.027344 87.8125 52.292969 87.835938 L 64.964844 89.152344 C 65.445312 89.203125 65.816406 89.609375 65.816406 90.09375 Z M 65.816406 90.09375 " fill-opacity="1" fill-rule="nonzero"/></g></g></g><g clip-path="url(#43b8149215)"><g clip-path="url(#7cf43d3f56)"><g clip-path="url(#b7c116489c)"><path fill="#38b6ff" d="M 56.738281 98.34375 L 56.835938 111.082031 C 56.835938 111.351562 56.726562 111.605469 56.527344 111.785156 L 52.335938 115.59375 C 52.0625 115.84375 51.664062 115.90625 51.320312 115.757812 C 50.976562 115.605469 50.753906 115.265625 50.753906 114.894531 L 50.660156 103.007812 L 38.839844 101.78125 C 38.464844 101.742188 38.148438 101.488281 38.03125 101.132812 C 37.914062 100.773438 38.015625 100.382812 38.292969 100.132812 L 42.480469 96.328125 C 42.679688 96.148438 42.945312 96.0625 43.210938 96.085938 L 55.882812 97.402344 C 56.363281 97.453125 56.734375 97.859375 56.738281 98.34375 Z M 56.738281 98.34375 " fill-opacity="1" fill-rule="nonzero"/></g></g></g><g clip-path="url(#4a22c076a7)"><g clip-path="url(#3f4760d9be)"><g clip-path="url(#5f9b330476)"><path fill="#38b6ff" d="M 100.488281 72.246094 L 97.054688 84.511719 C 96.980469 84.773438 96.800781 84.988281 96.5625 85.105469 L 91.480469 87.601562 C 91.148438 87.765625 90.746094 87.71875 90.457031 87.480469 C 90.171875 87.238281 90.050781 86.851562 90.152344 86.492188 L 93.355469 75.042969 L 82.335938 70.589844 C 81.988281 70.449219 81.753906 70.121094 81.742188 69.746094 C 81.726562 69.367188 81.933594 69.023438 82.265625 68.859375 L 87.347656 66.359375 C 87.589844 66.242188 87.867188 66.234375 88.117188 66.332031 L 99.925781 71.105469 C 100.375 71.285156 100.617188 71.78125 100.488281 72.246094 Z M 100.488281 72.246094 " fill-opacity="1" fill-rule="nonzero"/></g></g></g><g clip-path="url(#def0443c36)"><g clip-path="url(#76fc24c088)"><g clip-path="url(#64b5f3d519)"><path fill="#38b6ff" d="M 89.476562 77.65625 L 86.042969 89.925781 C 85.96875 90.183594 85.792969 90.398438 85.550781 90.515625 L 80.472656 93.015625 C 80.136719 93.179688 79.738281 93.128906 79.449219 92.890625 C 79.160156 92.648438 79.039062 92.261719 79.140625 91.902344 L 82.347656 80.457031 L 71.324219 76.003906 C 70.980469 75.863281 70.746094 75.53125 70.730469 75.15625 C 70.71875 74.78125 70.921875 74.433594 71.257812 74.269531 L 76.339844 71.773438 C 76.578125 71.65625 76.855469 71.648438 77.105469 71.742188 L 88.917969 76.515625 C 89.367188 76.699219 89.609375 77.191406 89.476562 77.65625 Z M 89.476562 77.65625 " fill-opacity="1" fill-rule="nonzero"/></g></g></g><g clip-path="url(#d3d2b0d808)"><path fill="#38b6ff" d="M 146.195312 68.148438 L 137.703125 77.640625 C 137.519531 77.84375 137.265625 77.957031 137 77.957031 L 131.335938 77.957031 C 130.964844 77.957031 130.628906 77.738281 130.472656 77.394531 C 130.324219 77.050781 130.386719 76.652344 130.636719 76.375 L 138.558594 67.515625 L 130.636719 58.65625 C 130.386719 58.375 130.320312 57.976562 130.472656 57.632812 C 130.628906 57.289062 130.964844 57.070312 131.335938 57.070312 L 137 57.070312 C 137.265625 57.070312 137.519531 57.1875 137.703125 57.382812 L 146.195312 66.878906 C 146.515625 67.238281 146.515625 67.789062 146.195312 68.148438 Z M 146.195312 68.148438 " fill-opacity="1" fill-rule="nonzero"/></g><g clip-path="url(#923a56635a)"><path fill="#38b6ff" d="M 133.925781 68.148438 L 125.433594 77.640625 C 125.25 77.84375 125 77.957031 124.730469 77.957031 L 119.070312 77.957031 C 118.695312 77.957031 118.359375 77.738281 118.207031 77.394531 C 118.054688 77.050781 118.117188 76.652344 118.367188 76.375 L 126.292969 67.515625 L 118.367188 58.65625 C 118.117188 58.375 118.054688 57.976562 118.207031 57.632812 C 118.359375 57.289062 118.695312 57.070312 119.070312 57.070312 L 124.730469 57.070312 C 125 57.070312 125.25 57.1875 125.433594 57.382812 L 133.925781 66.878906 C 134.25 67.238281 134.25 67.789062 133.925781 68.148438 Z M 133.925781 68.148438 " fill-opacity="1" fill-rule="nonzero"/></g><g clip-path="url(#d2b0482503)"><g clip-path="url(#71533d4723)"><g clip-path="url(#506278fdb7)"><path fill="#5ce1e6" d="M 182.71875 68.148438 L 173.941406 77.382812 C 173.753906 77.578125 173.5 77.6875 173.230469 77.675781 L 167.570312 77.507812 C 167.199219 77.496094 166.871094 77.265625 166.726562 76.917969 C 166.585938 76.570312 166.660156 76.171875 166.917969 75.902344 L 175.105469 67.285156 L 167.453125 58.191406 C 167.210938 57.90625 167.160156 57.503906 167.320312 57.167969 C 167.484375 56.828125 167.828125 56.617188 168.199219 56.628906 L 173.859375 56.800781 C 174.128906 56.808594 174.378906 56.929688 174.554688 57.132812 L 182.757812 66.878906 C 183.066406 67.25 183.050781 67.800781 182.71875 68.148438 Z M 182.71875 68.148438 " fill-opacity="1" fill-rule="nonzero"/></g></g></g><g clip-path="url(#500f7d51b2)"><g clip-path="url(#f0ab27433e)"><g clip-path="url(#4ca739d0b1)"><path fill="#5ce1e6" d="M 170.457031 67.78125 L 161.679688 77.015625 C 161.492188 77.210938 161.238281 77.316406 160.96875 77.308594 L 155.308594 77.136719 C 154.9375 77.125 154.605469 76.894531 154.464844 76.550781 C 154.324219 76.203125 154.398438 75.804688 154.65625 75.535156 L 162.84375 66.917969 L 155.1875 57.824219 C 154.949219 57.539062 154.894531 57.136719 155.058594 56.796875 C 155.222656 56.460938 155.566406 56.25 155.9375 56.261719 L 161.597656 56.429688 C 161.867188 56.4375 162.113281 56.5625 162.289062 56.765625 L 170.492188 66.511719 C 170.804688 66.882812 170.789062 67.429688 170.457031 67.78125 Z M 170.457031 67.78125 " fill-opacity="1" fill-rule="nonzero"/></g></g></g><g clip-path="url(#c141441dd2)"><g clip-path="url(#703f5a10ed)"><g clip-path="url(#1388f8ac5d)"><path fill="#38b6ff" d="M 294.371094 68.148438 L 285.59375 77.382812 C 285.40625 77.578125 285.152344 77.6875 284.882812 77.675781 L 279.222656 77.507812 C 278.851562 77.496094 278.523438 77.265625 278.378906 76.917969 C 278.238281 76.570312 278.3125 76.171875 278.570312 75.902344 L 286.757812 67.285156 L 279.105469 58.191406 C 278.863281 57.90625 278.8125 57.503906 278.972656 57.167969 C 279.136719 56.828125 279.480469 56.617188 279.851562 56.628906 L 285.511719 56.800781 C 285.78125 56.808594 286.03125 56.929688 286.207031 57.132812 L 294.410156 66.878906 C 294.71875 67.25 294.703125 67.800781 294.371094 68.148438 Z M 294.371094 68.148438 " fill-opacity="1" fill-rule="nonzero"/></g></g></g><g clip-path="url(#890ab776b0)"><g clip-path="url(#4540b1a51b)"><g clip-path="url(#a2783e79ca)"><path fill="#38b6ff" d="M 282.109375 67.78125 L 273.332031 77.015625 C 273.144531 77.210938 272.890625 77.316406 272.621094 77.308594 L 266.960938 77.136719 C 266.589844 77.125 266.257812 76.894531 266.117188 76.550781 C 265.976562 76.203125 266.050781 75.804688 266.308594 75.535156 L 274.496094 66.917969 L 266.839844 57.824219 C 266.601562 57.539062 266.546875 57.136719 266.710938 56.796875 C 266.875 56.460938 267.21875 56.25 267.589844 56.261719 L 273.25 56.429688 C 273.519531 56.4375 273.765625 56.5625 273.941406 56.765625 L 282.144531 66.511719 C 282.457031 66.882812 282.441406 67.429688 282.109375 67.78125 Z M 282.109375 67.78125 " fill-opacity="1" fill-rule="nonzero"/></g></g></g><g clip-path="url(#69cbab54ba)"><g clip-path="url(#c7b6b2a4c1)"><g clip-path="url(#d179fb8832)"><path fill="#38b6ff" d="M 257.246094 68.148438 L 248.46875 77.382812 C 248.28125 77.578125 248.027344 77.6875 247.757812 77.675781 L 242.097656 77.507812 C 241.726562 77.496094 241.398438 77.265625 241.253906 76.917969 C 241.113281 76.570312 241.1875 76.171875 241.445312 75.902344 L 249.632812 67.285156 L 241.980469 58.191406 C 241.738281 57.90625 241.6875 57.503906 241.847656 57.167969 C 242.011719 56.828125 242.355469 56.617188 242.726562 56.628906 L 248.386719 56.800781 C 248.65625 56.808594 248.90625 56.929688 249.082031 57.132812 L 257.285156 66.878906 C 257.59375 67.25 257.578125 67.800781 257.246094 68.148438 Z M 257.246094 68.148438 " fill-opacity="1" fill-rule="nonzero"/></g></g></g><g clip-path="url(#5520c0a435)"><g clip-path="url(#62b760fd36)"><g clip-path="url(#5486821dae)"><path fill="#38b6ff" d="M 244.984375 67.78125 L 236.207031 77.015625 C 236.019531 77.210938 235.765625 77.316406 235.496094 77.308594 L 229.835938 77.136719 C 229.464844 77.125 229.132812 76.894531 228.992188 76.550781 C 228.851562 76.203125 228.925781 75.804688 229.183594 75.535156 L 237.371094 66.917969 L 229.714844 57.824219 C 229.476562 57.539062 229.421875 57.136719 229.585938 56.796875 C 229.75 56.460938 230.09375 56.25 230.464844 56.261719 L 236.125 56.429688 C 236.394531 56.4375 236.640625 56.5625 236.816406 56.765625 L 245.019531 66.511719 C 245.332031 66.882812 245.316406 67.429688 244.984375 67.78125 Z M 244.984375 67.78125 " fill-opacity="1" fill-rule="nonzero"/></g></g></g><g clip-path="url(#9f059f48da)"><g clip-path="url(#cd63595dc8)"><g clip-path="url(#0ba46fda7f)"><path fill="#38b6ff" d="M 220.730469 68.148438 L 211.953125 77.382812 C 211.765625 77.578125 211.511719 77.6875 211.242188 77.675781 L 205.582031 77.507812 C 205.210938 77.496094 204.878906 77.265625 204.738281 76.917969 C 204.597656 76.570312 204.671875 76.171875 204.929688 75.902344 L 213.117188 67.285156 L 205.460938 58.191406 C 205.222656 57.90625 205.167969 57.503906 205.332031 57.167969 C 205.496094 56.828125 205.839844 56.617188 206.210938 56.628906 L 211.871094 56.800781 C 212.140625 56.808594 212.386719 56.929688 212.5625 57.132812 L 220.765625 66.878906 C 221.078125 67.25 221.0625 67.800781 220.730469 68.148438 Z M 220.730469 68.148438 " fill-opacity="1" fill-rule="nonzero"/></g></g></g><g clip-path="url(#9495af4bbb)"><g clip-path="url(#2a83f283d7)"><g clip-path="url(#d8911a9599)"><path fill="#38b6ff" d="M 208.464844 67.78125 L 199.691406 77.015625 C 199.503906 77.210938 199.246094 77.316406 198.980469 77.308594 L 193.320312 77.136719 C 192.949219 77.125 192.617188 76.894531 192.476562 76.550781 C 192.335938 76.203125 192.410156 75.804688 192.664062 75.535156 L 200.855469 66.917969 L 193.199219 57.824219 C 192.957031 57.539062 192.90625 57.136719 193.070312 56.796875 C 193.234375 56.460938 193.578125 56.25 193.949219 56.261719 L 199.609375 56.429688 C 199.875 56.4375 200.125 56.5625 200.300781 56.765625 L 208.503906 66.511719 C 208.816406 66.882812 208.800781 67.429688 208.464844 67.78125 Z M 208.464844 67.78125 " fill-opacity="1" fill-rule="nonzero"/></g></g></g></svg>