<svg xmlns="http://www.w3.org/2000/svg" xmlns:xlink="http://www.w3.org/1999/xlink" width="450" zoomAndPan="magnify" viewBox="0 0 337.5 374.999991" height="500" preserveAspectRatio="xMidYMid meet" version="1.0"><defs><clipPath id="61c72548a8"><path d="M 0 52.777344 L 303.75 52.777344 L 303.75 323 L 0 323 Z M 0 52.777344 " clip-rule="nonzero"/></clipPath><clipPath id="431afdffa9"><path d="M 7.917969 142.824219 C 3.136719 156.667969 0 172.40625 0 187.851562 C 0 203.296875 2.6875 218.15625 7.46875 231.855469 C 7.621094 232.144531 7.621094 232.4375 7.769531 232.730469 C 26.890625 284.164062 77.390625 322.050781 135.65625 322.777344 L 303.75 322.777344 L 303.75 52.777344 L 135.78125 52.777344 C 77.09375 53.507812 26.59375 90.808594 7.917969 142.824219 " clip-rule="nonzero"/></clipPath><clipPath id="28471b54e8"><path d="M 0 52.777344 L 303.75 52.777344 L 303.75 322.777344 L 0 322.777344 Z M 0 52.777344 " clip-rule="nonzero"/></clipPath><clipPath id="8de8e3e9e0"><path d="M 7.917969 142.824219 C 3.136719 156.667969 0 172.40625 0 187.851562 C 0 203.296875 2.6875 218.15625 7.46875 231.855469 C 7.621094 232.144531 7.621094 232.4375 7.769531 232.730469 C 26.890625 284.164062 77.390625 322.050781 135.65625 322.777344 L 303.75 322.777344 L 303.75 52.777344 L 135.78125 52.777344 C 77.09375 53.507812 26.59375 90.808594 7.917969 142.824219 " clip-rule="nonzero"/></clipPath><clipPath id="d6a379303a"><path d="M 33 77 L 250 77 L 250 295 L 33 295 Z M 33 77 " clip-rule="nonzero"/></clipPath><clipPath id="3a2a0d5c2e"><path d="M 273.574219 263.160156 L 64.328125 317.914062 L 9.574219 108.671875 L 218.816406 53.917969 Z M 273.574219 263.160156 " clip-rule="nonzero"/></clipPath><clipPath id="01f6666b7f"><path d="M 169.089844 290.5 C 226.792969 275.402344 261.332031 216.382812 246.230469 158.675781 C 231.132812 100.972656 172.113281 66.4375 114.410156 81.535156 C 56.707031 96.636719 22.167969 155.65625 37.269531 213.359375 C 52.367188 271.0625 111.386719 305.601562 169.089844 290.5 " clip-rule="nonzero"/></clipPath><clipPath id="c303b4a852"><path d="M 33 77 L 250 77 L 250 295 L 33 295 Z M 33 77 " clip-rule="nonzero"/></clipPath><clipPath id="2bfa063f3b"><path d="M 273.574219 263.160156 L 64.609375 317.839844 L 9.925781 108.875 L 218.890625 54.195312 Z M 273.574219 263.160156 " clip-rule="nonzero"/></clipPath><clipPath id="dda252fad1"><path d="M 273.574219 263.160156 L 61.652344 318.613281 L 6.199219 106.695312 L 218.117188 51.242188 Z M 273.574219 263.160156 " clip-rule="nonzero"/></clipPath><clipPath id="bab7761fdf"><path d="M 169.089844 290.5 C 226.792969 275.402344 261.332031 216.382812 246.230469 158.675781 C 231.132812 100.972656 172.113281 66.4375 114.410156 81.535156 C 56.707031 96.636719 22.167969 155.65625 37.269531 213.359375 C 52.367188 271.0625 111.386719 305.601562 169.089844 290.5 " clip-rule="nonzero"/></clipPath><clipPath id="bfe81bb25b"><path d="M 143 217 L 169 217 L 169 253 L 143 253 Z M 143 217 " clip-rule="nonzero"/></clipPath><clipPath id="47ee0bc5ff"><path d="M 168.984375 248.089844 L 151.429688 252.757812 L 143.226562 221.90625 L 160.78125 217.238281 Z M 168.984375 248.089844 " clip-rule="nonzero"/></clipPath><clipPath id="4a09610e4c"><path d="M 168.984375 248.089844 L 151.8125 252.65625 L 143.660156 221.992188 L 160.832031 217.429688 Z M 168.984375 248.089844 " clip-rule="nonzero"/></clipPath><clipPath id="587bd7c577"><path d="M 79 162 L 115 162 L 115 188 L 79 188 Z M 79 162 " clip-rule="nonzero"/></clipPath><clipPath id="50e84e9b86"><path d="M 114.628906 170.617188 L 109.699219 188.101562 L 78.972656 179.4375 L 83.902344 161.957031 Z M 114.628906 170.617188 " clip-rule="nonzero"/></clipPath><clipPath id="40ecdc17e5"><path d="M 114.628906 170.617188 L 109.808594 187.71875 L 79.269531 179.109375 L 84.089844 162.007812 Z M 114.628906 170.617188 " clip-rule="nonzero"/></clipPath><clipPath id="1e1dc4f80c"><path d="M 96 153 L 179 153 L 179 235 L 96 235 Z M 96 153 " clip-rule="nonzero"/></clipPath><clipPath id="43b8520955"><path d="M 149.105469 123.398438 L 208.953125 184.035156 L 156.292969 236.011719 L 96.445312 175.371094 Z M 149.105469 123.398438 " clip-rule="nonzero"/></clipPath><clipPath id="1a24897fc2"><path d="M 178.800781 153.484375 L 156.34375 235.042969 L 96.953125 174.867188 L 178.800781 153.484375 " clip-rule="nonzero"/></clipPath><clipPath id="95945563fb"><path d="M 155 141 L 191 141 L 191 177 L 155 177 Z M 155 141 " clip-rule="nonzero"/></clipPath><clipPath id="3a5c1245d0"><path d="M 178.175781 141.613281 L 190.933594 154.542969 L 168.210938 176.96875 L 155.453125 164.039062 Z M 178.175781 141.613281 " clip-rule="nonzero"/></clipPath><clipPath id="158deabbed"><path d="M 178.175781 141.613281 L 190.65625 154.257812 L 168.074219 176.546875 L 155.59375 163.902344 Z M 178.175781 141.613281 " clip-rule="nonzero"/></clipPath><clipPath id="46414bd550"><path d="M 171 105 L 227 105 L 227 162 L 171 162 Z M 171 105 " clip-rule="nonzero"/></clipPath><clipPath id="f345bfa303"><path d="M 159.734375 132.335938 L 200.210938 94.1875 L 238.359375 134.664062 L 197.882812 172.8125 Z M 159.734375 132.335938 " clip-rule="nonzero"/></clipPath><clipPath id="7334734b08"><path d="M 179.972656 113.261719 C 168.792969 123.796875 168.273438 141.398438 178.808594 152.574219 C 189.34375 163.75 206.945312 164.273438 218.121094 153.738281 C 229.300781 143.203125 229.820312 125.601562 219.285156 114.425781 C 208.75 103.246094 191.148438 102.726562 179.972656 113.261719 " clip-rule="nonzero"/></clipPath><clipPath id="79c52f464b"><path d="M 171 105 L 227 105 L 227 162 L 171 162 Z M 171 105 " clip-rule="nonzero"/></clipPath><clipPath id="f70f0c377e"><path d="M 159.734375 132.335938 L 200.121094 94.269531 L 238.1875 134.65625 L 197.800781 172.722656 Z M 159.734375 132.335938 " clip-rule="nonzero"/></clipPath><clipPath id="0ce5ae4604"><path d="M 159.734375 132.335938 L 200.121094 94.269531 L 238.1875 134.65625 L 197.800781 172.722656 Z M 159.734375 132.335938 " clip-rule="nonzero"/></clipPath><clipPath id="768103daff"><path d="M 179.925781 113.300781 C 168.773438 123.8125 168.253906 141.375 178.765625 152.53125 C 189.277344 163.683594 206.839844 164.203125 217.992188 153.691406 C 229.148438 143.179688 229.667969 125.617188 219.15625 114.464844 C 208.644531 103.3125 191.082031 102.789062 179.925781 113.300781 " clip-rule="nonzero"/></clipPath><clipPath id="903717b174"><path d="M 40 139 L 96 139 L 96 195 L 40 195 Z M 40 139 " clip-rule="nonzero"/></clipPath><clipPath id="57b5a790be"><path d="M 48.617188 132.707031 L 102.242188 147.476562 L 87.476562 201.101562 L 33.847656 186.332031 Z M 48.617188 132.707031 " clip-rule="nonzero"/></clipPath><clipPath id="4880e6ff45"><path d="M 75.429688 140.089844 C 60.621094 136.011719 45.3125 144.710938 41.234375 159.519531 C 37.15625 174.328125 45.855469 189.640625 60.660156 193.71875 C 75.46875 197.796875 90.78125 189.097656 94.859375 174.289062 C 98.9375 159.480469 90.238281 144.171875 75.429688 140.089844 " clip-rule="nonzero"/></clipPath><clipPath id="d612c2ca16"><path d="M 40 139 L 96 139 L 96 195 L 40 195 Z M 40 139 " clip-rule="nonzero"/></clipPath><clipPath id="e86d39e572"><path d="M 48.617188 132.707031 L 102.125 147.445312 L 87.390625 200.953125 L 33.882812 186.214844 Z M 48.617188 132.707031 " clip-rule="nonzero"/></clipPath><clipPath id="ebca38b9cf"><path d="M 48.617188 132.707031 L 102.125 147.445312 L 87.390625 200.953125 L 33.882812 186.214844 Z M 48.617188 132.707031 " clip-rule="nonzero"/></clipPath><clipPath id="251598fb4f"><path d="M 75.371094 140.074219 C 60.597656 136.007812 45.320312 144.683594 41.25 159.460938 C 37.179688 174.238281 45.859375 189.511719 60.636719 193.582031 C 75.410156 197.652344 90.6875 188.972656 94.757812 174.199219 C 98.828125 159.421875 90.148438 144.144531 75.371094 140.074219 " clip-rule="nonzero"/></clipPath><clipPath id="1d73bb0952"><path d="M 134 232 L 191 232 L 191 288 L 134 288 Z M 134 232 " clip-rule="nonzero"/></clipPath><clipPath id="beae4b72a9"><path d="M 128.746094 240.222656 L 182.554688 226.140625 L 196.636719 279.953125 L 142.824219 294.03125 Z M 128.746094 240.222656 " clip-rule="nonzero"/></clipPath><clipPath id="8d9a24c09a"><path d="M 155.648438 233.179688 C 140.789062 237.070312 131.898438 252.269531 135.785156 267.128906 C 139.671875 281.988281 154.871094 290.878906 169.730469 286.992188 C 184.589844 283.105469 193.484375 267.90625 189.59375 253.046875 C 185.707031 238.1875 170.507812 229.292969 155.648438 233.179688 " clip-rule="nonzero"/></clipPath><clipPath id="60bebef84a"><path d="M 134 232 L 191 232 L 191 288 L 134 288 Z M 134 232 " clip-rule="nonzero"/></clipPath><clipPath id="9a44f5adbb"><path d="M 128.746094 240.222656 L 182.4375 226.171875 L 196.488281 279.863281 L 142.792969 293.914062 Z M 128.746094 240.222656 " clip-rule="nonzero"/></clipPath><clipPath id="ea36061daa"><path d="M 128.746094 240.222656 L 182.4375 226.171875 L 196.488281 279.863281 L 142.792969 293.914062 Z M 128.746094 240.222656 " clip-rule="nonzero"/></clipPath><clipPath id="52d4eea814"><path d="M 155.589844 233.195312 C 140.765625 237.078125 131.890625 252.242188 135.769531 267.066406 C 139.648438 281.894531 154.8125 290.769531 169.640625 286.890625 C 184.46875 283.007812 193.339844 267.84375 189.460938 253.019531 C 185.582031 238.191406 170.417969 229.316406 155.589844 233.195312 " clip-rule="nonzero"/></clipPath><clipPath id="f69d582d75"><path d="M 192 126 L 207 126 L 207 141 L 192 141 Z M 192 126 " clip-rule="nonzero"/></clipPath><clipPath id="aaf7db03d5"><path d="M 199.105469 123.628906 L 208.914062 133.566406 L 198.976562 143.371094 L 189.171875 133.433594 Z M 199.105469 123.628906 " clip-rule="nonzero"/></clipPath><clipPath id="d993034376"><path d="M 204.007812 128.597656 C 201.300781 125.855469 196.882812 125.824219 194.140625 128.53125 C 191.394531 131.238281 191.367188 135.660156 194.074219 138.402344 C 196.78125 141.144531 201.199219 141.175781 203.945312 138.46875 C 206.6875 135.761719 206.71875 131.339844 204.007812 128.597656 " clip-rule="nonzero"/></clipPath><clipPath id="e4fd284bf0"><path d="M 61 159 L 76 159 L 76 174 L 61 174 Z M 61 159 " clip-rule="nonzero"/></clipPath><clipPath id="1db522b205"><path d="M 76.625 162.023438 L 72.917969 175.484375 L 59.460938 171.777344 L 63.164062 158.320312 Z M 76.625 162.023438 " clip-rule="nonzero"/></clipPath><clipPath id="2ee8630a44"><path d="M 74.769531 168.753906 C 75.792969 165.039062 73.609375 161.195312 69.894531 160.171875 C 66.179688 159.148438 62.335938 161.332031 61.3125 165.046875 C 60.289062 168.765625 62.472656 172.605469 66.1875 173.628906 C 69.90625 174.652344 73.746094 172.472656 74.769531 168.753906 " clip-rule="nonzero"/></clipPath><clipPath id="fdcf8c5abb"><path d="M 156 252 L 171 252 L 171 267 L 156 267 Z M 156 252 " clip-rule="nonzero"/></clipPath><clipPath id="cfbed523d7"><path d="M 163.75 249.933594 L 173.554688 259.867188 L 163.621094 269.671875 L 153.816406 259.738281 Z M 163.75 249.933594 " clip-rule="nonzero"/></clipPath><clipPath id="1fd56afac5"><path d="M 168.652344 254.898438 C 165.945312 252.15625 161.527344 252.128906 158.78125 254.835938 C 156.039062 257.542969 156.011719 261.960938 158.71875 264.707031 C 161.425781 267.449219 165.84375 267.476562 168.589844 264.769531 C 171.332031 262.0625 171.359375 257.644531 168.652344 254.898438 " clip-rule="nonzero"/></clipPath><clipPath id="1afb37ecfd"><path d="M 197 181 L 213 181 L 213 228 L 197 228 Z M 197 181 " clip-rule="nonzero"/></clipPath><clipPath id="78d4ad2b1d"><path d="M 194.832031 227.410156 L 203.296875 180.921875 L 216.578125 183.339844 L 208.117188 229.828125 Z M 194.832031 227.410156 " clip-rule="nonzero"/></clipPath><clipPath id="28de517341"><path d="M 203.328125 180.738281 L 194.867188 227.222656 L 208.148438 229.640625 L 216.613281 183.15625 Z M 203.328125 180.738281 " clip-rule="nonzero"/></clipPath><clipPath id="6a85d82c76"><path d="M 203.328125 180.738281 L 194.867188 227.222656 L 208.148438 229.640625 L 216.613281 183.15625 Z M 203.328125 180.738281 " clip-rule="nonzero"/></clipPath><clipPath id="f7026be369"><path d="M 208 188 L 209 188 L 209 190 L 208 190 Z M 208 188 " clip-rule="nonzero"/></clipPath><clipPath id="c0f525bf0a"><path d="M 194.832031 227.410156 L 203.296875 180.921875 L 216.578125 183.339844 L 208.117188 229.828125 Z M 194.832031 227.410156 " clip-rule="nonzero"/></clipPath><clipPath id="57e16fb45c"><path d="M 203.328125 180.738281 L 194.867188 227.222656 L 208.148438 229.640625 L 216.613281 183.15625 Z M 203.328125 180.738281 " clip-rule="nonzero"/></clipPath><clipPath id="fb385d0a1a"><path d="M 203.328125 180.738281 L 194.867188 227.222656 L 208.148438 229.640625 L 216.613281 183.15625 Z M 203.328125 180.738281 " clip-rule="nonzero"/></clipPath><clipPath id="fd4cdf57c4"><path d="M 80 216 L 118 216 L 118 249 L 80 249 Z M 80 216 " clip-rule="nonzero"/></clipPath><clipPath id="4459b4d4b6"><path d="M 84.542969 213.644531 L 117.683594 247.320312 L 108.0625 256.789062 L 74.921875 223.113281 Z M 84.542969 213.644531 " clip-rule="nonzero"/></clipPath><clipPath id="b428ccbd03"><path d="M 117.816406 247.453125 L 84.675781 213.777344 L 75.050781 223.246094 L 108.195312 256.925781 Z M 117.816406 247.453125 " clip-rule="nonzero"/></clipPath><clipPath id="e9a4092cce"><path d="M 117.816406 247.453125 L 84.675781 213.777344 L 75.050781 223.246094 L 108.195312 256.925781 Z M 117.816406 247.453125 " clip-rule="nonzero"/></clipPath><clipPath id="fcb6547fae"><path d="M 108 246 L 109 246 L 109 247 L 108 247 Z M 108 246 " clip-rule="nonzero"/></clipPath><clipPath id="7f854027ec"><path d="M 84.542969 213.644531 L 117.683594 247.320312 L 108.0625 256.789062 L 74.921875 223.113281 Z M 84.542969 213.644531 " clip-rule="nonzero"/></clipPath><clipPath id="7cb236ae06"><path d="M 117.816406 247.453125 L 84.675781 213.777344 L 75.050781 223.246094 L 108.195312 256.925781 Z M 117.816406 247.453125 " clip-rule="nonzero"/></clipPath><clipPath id="756fcfe9ee"><path d="M 117.816406 247.453125 L 84.675781 213.777344 L 75.050781 223.246094 L 108.195312 256.925781 Z M 117.816406 247.453125 " clip-rule="nonzero"/></clipPath><clipPath id="afe1159925"><path d="M 102 115 L 148 115 L 148 134 L 102 134 Z M 102 115 " clip-rule="nonzero"/></clipPath><clipPath id="1b96f12b96"><path d="M 149.300781 125.730469 L 102.742188 133.765625 L 100.445312 120.464844 L 147.007812 112.425781 Z M 149.300781 125.730469 " clip-rule="nonzero"/></clipPath><clipPath id="f40780e162"><path d="M 102.554688 133.796875 L 149.117188 125.761719 L 146.820312 112.460938 L 100.257812 120.496094 Z M 102.554688 133.796875 " clip-rule="nonzero"/></clipPath><clipPath id="9879404a3f"><path d="M 102.554688 133.796875 L 149.117188 125.761719 L 146.820312 112.460938 L 100.257812 120.496094 Z M 102.554688 133.796875 " clip-rule="nonzero"/></clipPath><clipPath id="f5f49c7a23"><path d="M 108 126 L 109 126 L 109 127 L 108 127 Z M 108 126 " clip-rule="nonzero"/></clipPath><clipPath id="24475a9fa6"><path d="M 149.300781 125.730469 L 102.742188 133.765625 L 100.445312 120.464844 L 147.007812 112.425781 Z M 149.300781 125.730469 " clip-rule="nonzero"/></clipPath><clipPath id="ff97968077"><path d="M 102.554688 133.796875 L 149.117188 125.761719 L 146.820312 112.460938 L 100.257812 120.496094 Z M 102.554688 133.796875 " clip-rule="nonzero"/></clipPath><clipPath id="48bd2a1bef"><path d="M 102.554688 133.796875 L 149.117188 125.761719 L 146.820312 112.460938 L 100.257812 120.496094 Z M 102.554688 133.796875 " clip-rule="nonzero"/></clipPath><clipPath id="f591c5e013"><path d="M 266.625 297.128906 L 283 297.128906 L 283 318.128906 L 266.625 318.128906 Z M 266.625 297.128906 " clip-rule="nonzero"/></clipPath><clipPath id="e96612e5a2"><path d="M 278 297.128906 L 294.785156 297.128906 L 294.785156 318.128906 L 278 318.128906 Z M 278 297.128906 " clip-rule="nonzero"/></clipPath><clipPath id="3e0f4e7b9d"><path d="M 229.5 297.128906 L 246 297.128906 L 246 318.128906 L 229.5 318.128906 Z M 229.5 297.128906 " clip-rule="nonzero"/></clipPath><clipPath id="a27d387af2"><path d="M 241 297.128906 L 257.660156 297.128906 L 257.660156 318.128906 L 241 318.128906 Z M 241 297.128906 " clip-rule="nonzero"/></clipPath><clipPath id="86c8d41fb2"><path d="M 192.375 297.128906 L 209 297.128906 L 209 318.128906 L 192.375 318.128906 Z M 192.375 297.128906 " clip-rule="nonzero"/></clipPath><clipPath id="26f478e989"><path d="M 204 297.128906 L 220.535156 297.128906 L 220.535156 318.128906 L 204 318.128906 Z M 204 297.128906 " clip-rule="nonzero"/></clipPath><clipPath id="38a4825dfc"><path d="M 155.25 297.128906 L 172 297.128906 L 172 318.128906 L 155.25 318.128906 Z M 155.25 297.128906 " clip-rule="nonzero"/></clipPath><clipPath id="1757742183"><path d="M 167 297.128906 L 183.410156 297.128906 L 183.410156 318.128906 L 167 318.128906 Z M 167 297.128906 " clip-rule="nonzero"/></clipPath><clipPath id="11fdf32bae"><path d="M 117 297 L 135 297 L 135 319 L 117 319 Z M 117 297 " clip-rule="nonzero"/></clipPath><clipPath id="a4e60abda4"><path d="M 117.945312 297.378906 L 146.441406 296.875 L 146.8125 317.871094 L 118.316406 318.375 Z M 117.945312 297.378906 " clip-rule="nonzero"/></clipPath><clipPath id="bc7c8eb170"><path d="M 146.101562 296.878906 L 117.605469 297.382812 L 117.976562 318.378906 L 146.472656 317.875 Z M 146.101562 296.878906 " clip-rule="nonzero"/></clipPath><clipPath id="9045c27567"><path d="M 130 296 L 147 296 L 147 318 L 130 318 Z M 130 296 " clip-rule="nonzero"/></clipPath><clipPath id="067b9c0766"><path d="M 117.945312 297.378906 L 146.441406 296.875 L 146.8125 317.871094 L 118.316406 318.375 Z M 117.945312 297.378906 " clip-rule="nonzero"/></clipPath><clipPath id="91887c7d35"><path d="M 146.101562 296.878906 L 117.605469 297.382812 L 117.976562 318.378906 L 146.472656 317.875 Z M 146.101562 296.878906 " clip-rule="nonzero"/></clipPath><clipPath id="1b3a2ca51e"><path d="M 75 282 L 95 282 L 95 304 L 75 304 Z M 75 282 " clip-rule="nonzero"/></clipPath><clipPath id="275cc85b60"><path d="M 81.105469 277.734375 L 105.09375 293.121094 L 93.757812 310.796875 L 69.765625 295.410156 Z M 81.105469 277.734375 " clip-rule="nonzero"/></clipPath><clipPath id="5884c6cc45"><path d="M 104.808594 292.9375 L 80.816406 277.550781 L 69.480469 295.226562 L 93.46875 310.613281 Z M 104.808594 292.9375 " clip-rule="nonzero"/></clipPath><clipPath id="592578f42f"><path d="M 85 289 L 105 289 L 105 311 L 85 311 Z M 85 289 " clip-rule="nonzero"/></clipPath><clipPath id="7dca2d02e6"><path d="M 81.105469 277.734375 L 105.09375 293.121094 L 93.757812 310.796875 L 69.765625 295.410156 Z M 81.105469 277.734375 " clip-rule="nonzero"/></clipPath><clipPath id="8cd7bfef48"><path d="M 104.808594 292.9375 L 80.816406 277.550781 L 69.480469 295.226562 L 93.46875 310.613281 Z M 104.808594 292.9375 " clip-rule="nonzero"/></clipPath><clipPath id="abf5809364"><path d="M 39 261 L 60 261 L 60 282 L 39 282 Z M 39 261 " clip-rule="nonzero"/></clipPath><clipPath id="ebb02cc2bc"><path d="M 48.058594 255.742188 L 68.585938 275.511719 L 54.019531 290.636719 L 33.492188 270.867188 Z M 48.058594 255.742188 " clip-rule="nonzero"/></clipPath><clipPath id="cbcb1d514f"><path d="M 68.339844 275.277344 L 47.8125 255.503906 L 33.246094 270.632812 L 53.773438 290.402344 Z M 68.339844 275.277344 " clip-rule="nonzero"/></clipPath><clipPath id="acb42f14ec"><path d="M 48 270 L 68 270 L 68 290 L 48 290 Z M 48 270 " clip-rule="nonzero"/></clipPath><clipPath id="9ee7464fd3"><path d="M 48.058594 255.742188 L 68.585938 275.511719 L 54.019531 290.636719 L 33.492188 270.867188 Z M 48.058594 255.742188 " clip-rule="nonzero"/></clipPath><clipPath id="c0ad09706f"><path d="M 68.339844 275.277344 L 47.8125 255.503906 L 33.246094 270.632812 L 53.773438 290.402344 Z M 68.339844 275.277344 " clip-rule="nonzero"/></clipPath><clipPath id="a16ade0961"><path d="M 17 226 L 39 226 L 39 245 L 17 245 Z M 17 226 " clip-rule="nonzero"/></clipPath><clipPath id="d9bee2688c"><path d="M 31.21875 221.023438 L 45.539062 245.664062 L 27.386719 256.21875 L 13.0625 231.578125 Z M 31.21875 221.023438 " clip-rule="nonzero"/></clipPath><clipPath id="4691098430"><path d="M 45.371094 245.371094 L 31.046875 220.730469 L 12.890625 231.285156 L 27.214844 255.925781 Z M 45.371094 245.371094 " clip-rule="nonzero"/></clipPath><clipPath id="b2d60a0fc7"><path d="M 23 236 L 45 236 L 45 256 L 23 256 Z M 23 236 " clip-rule="nonzero"/></clipPath><clipPath id="f145890e82"><path d="M 31.21875 221.023438 L 45.539062 245.664062 L 27.386719 256.21875 L 13.0625 231.578125 Z M 31.21875 221.023438 " clip-rule="nonzero"/></clipPath><clipPath id="9ee4a95bda"><path d="M 45.371094 245.371094 L 31.046875 220.730469 L 12.890625 231.285156 L 27.214844 255.925781 Z M 45.371094 245.371094 " clip-rule="nonzero"/></clipPath><clipPath id="3fa515990a"><path d="M 8.878906 171.9375 L 29.878906 171.9375 L 29.878906 188 L 8.878906 188 Z M 8.878906 171.9375 " clip-rule="nonzero"/></clipPath><clipPath id="ff0e58cd37"><path d="M 8.878906 184 L 29.878906 184 L 29.878906 200.097656 L 8.878906 200.097656 Z M 8.878906 184 " clip-rule="nonzero"/></clipPath><clipPath id="8fd16eb224"><path d="M 20 121 L 42 121 L 42 141 L 20 141 Z M 20 121 " clip-rule="nonzero"/></clipPath><clipPath id="1df5c8ec91"><path d="M 46.378906 127.648438 L 30.144531 151.074219 L 12.882812 139.109375 L 29.117188 115.6875 Z M 46.378906 127.648438 " clip-rule="nonzero"/></clipPath><clipPath id="6e7279f66f"><path d="M 30.339844 150.792969 L 46.574219 127.367188 L 29.3125 115.40625 L 13.078125 138.832031 Z M 30.339844 150.792969 " clip-rule="nonzero"/></clipPath><clipPath id="8c35fbef65"><path d="M 13 131 L 35 131 L 35 151 L 13 151 Z M 13 131 " clip-rule="nonzero"/></clipPath><clipPath id="b1e4a6265d"><path d="M 46.378906 127.648438 L 30.144531 151.074219 L 12.882812 139.109375 L 29.117188 115.6875 Z M 46.378906 127.648438 " clip-rule="nonzero"/></clipPath><clipPath id="9c339f4d88"><path d="M 30.339844 150.792969 L 46.574219 127.367188 L 29.3125 115.40625 L 13.078125 138.832031 Z M 30.339844 150.792969 " clip-rule="nonzero"/></clipPath><clipPath id="547341aaa7"><path d="M 47 87 L 66 87 L 66 108 L 47 108 Z M 47 87 " clip-rule="nonzero"/></clipPath><clipPath id="48e6b6a066"><path d="M 72.519531 97.335938 L 51.425781 116.5 L 37.304688 100.957031 L 58.398438 81.792969 Z M 72.519531 97.335938 " clip-rule="nonzero"/></clipPath><clipPath id="91e12477d8"><path d="M 51.675781 116.269531 L 72.769531 97.105469 L 58.648438 81.5625 L 37.554688 100.726562 Z M 51.675781 116.269531 " clip-rule="nonzero"/></clipPath><clipPath id="938b60eb53"><path d="M 37 96 L 57 96 L 57 116 L 37 116 Z M 37 96 " clip-rule="nonzero"/></clipPath><clipPath id="6a65cbfc04"><path d="M 72.519531 97.335938 L 51.425781 116.5 L 37.304688 100.957031 L 58.398438 81.792969 Z M 72.519531 97.335938 " clip-rule="nonzero"/></clipPath><clipPath id="2ad0264cf3"><path d="M 51.675781 116.269531 L 72.769531 97.105469 L 58.648438 81.5625 L 37.554688 100.726562 Z M 51.675781 116.269531 " clip-rule="nonzero"/></clipPath><clipPath id="799cbdadd1"><path d="M 81 66 L 101 66 L 101 88 L 81 88 Z M 81 66 " clip-rule="nonzero"/></clipPath><clipPath id="754c247221"><path d="M 104.921875 81.058594 L 79.34375 93.632812 L 70.078125 74.785156 L 95.65625 62.214844 Z M 104.921875 81.058594 " clip-rule="nonzero"/></clipPath><clipPath id="6b3c67a51c"><path d="M 79.648438 93.480469 L 105.226562 80.910156 L 95.960938 62.0625 L 70.382812 74.636719 Z M 79.648438 93.480469 " clip-rule="nonzero"/></clipPath><clipPath id="1332f06473"><path d="M 70 71 L 90 71 L 90 94 L 70 94 Z M 70 71 " clip-rule="nonzero"/></clipPath><clipPath id="c93c791b17"><path d="M 104.921875 81.058594 L 79.34375 93.632812 L 70.078125 74.785156 L 95.65625 62.214844 Z M 104.921875 81.058594 " clip-rule="nonzero"/></clipPath><clipPath id="b8359cdf7d"><path d="M 79.648438 93.480469 L 105.226562 80.910156 L 95.960938 62.0625 L 70.382812 74.636719 Z M 79.648438 93.480469 " clip-rule="nonzero"/></clipPath><clipPath id="506dd31990"><path d="M 130 57.015625 L 146.285156 57.015625 L 146.285156 78 L 130 78 Z M 130 57.015625 " clip-rule="nonzero"/></clipPath><clipPath id="5b1eddca6a"><path d="M 118.125 57.015625 L 135 57.015625 L 135 78 L 118.125 78 Z M 118.125 57.015625 " clip-rule="nonzero"/></clipPath><clipPath id="045be9c0a2"><path d="M 166 56 L 183 56 L 183 78 L 166 78 Z M 166 56 " clip-rule="nonzero"/></clipPath><clipPath id="5915188634"><path d="M 182.511719 78.015625 L 154.023438 77.15625 L 154.65625 56.164062 L 183.144531 57.023438 Z M 182.511719 78.015625 " clip-rule="nonzero"/></clipPath><clipPath id="8d4eb85e78"><path d="M 154.363281 77.164062 L 182.851562 78.023438 L 183.484375 57.035156 L 154.996094 56.175781 Z M 154.363281 77.164062 " clip-rule="nonzero"/></clipPath><clipPath id="0c6d072bc5"><path d="M 154 56 L 171 56 L 171 78 L 154 78 Z M 154 56 " clip-rule="nonzero"/></clipPath><clipPath id="56babed563"><path d="M 182.511719 78.015625 L 154.023438 77.15625 L 154.65625 56.164062 L 183.144531 57.023438 Z M 182.511719 78.015625 " clip-rule="nonzero"/></clipPath><clipPath id="6b3095fc63"><path d="M 154.363281 77.164062 L 182.851562 78.023438 L 183.484375 57.035156 L 154.996094 56.175781 Z M 154.363281 77.164062 " clip-rule="nonzero"/></clipPath><clipPath id="9b641b5cf9"><path d="M 278 56 L 295 56 L 295 78 L 278 78 Z M 278 56 " clip-rule="nonzero"/></clipPath><clipPath id="fedbce6c0a"><path d="M 294.164062 78.015625 L 265.675781 77.15625 L 266.308594 56.164062 L 294.796875 57.023438 Z M 294.164062 78.015625 " clip-rule="nonzero"/></clipPath><clipPath id="86c0677d26"><path d="M 266.015625 77.164062 L 294.503906 78.023438 L 295.136719 57.035156 L 266.648438 56.175781 Z M 266.015625 77.164062 " clip-rule="nonzero"/></clipPath><clipPath id="6b187c0bf6"><path d="M 266 56 L 283 56 L 283 78 L 266 78 Z M 266 56 " clip-rule="nonzero"/></clipPath><clipPath id="d5ba280c7f"><path d="M 294.164062 78.015625 L 265.675781 77.15625 L 266.308594 56.164062 L 294.796875 57.023438 Z M 294.164062 78.015625 " clip-rule="nonzero"/></clipPath><clipPath id="0b8aeac43a"><path d="M 266.015625 77.164062 L 294.503906 78.023438 L 295.136719 57.035156 L 266.648438 56.175781 Z M 266.015625 77.164062 " clip-rule="nonzero"/></clipPath><clipPath id="51348a1e0b"><path d="M 241 56 L 258 56 L 258 78 L 241 78 Z M 241 56 " clip-rule="nonzero"/></clipPath><clipPath id="9b11860321"><path d="M 257.039062 78.015625 L 228.550781 77.15625 L 229.183594 56.164062 L 257.671875 57.023438 Z M 257.039062 78.015625 " clip-rule="nonzero"/></clipPath><clipPath id="cbc1935e32"><path d="M 228.890625 77.164062 L 257.378906 78.023438 L 258.011719 57.035156 L 229.523438 56.175781 Z M 228.890625 77.164062 " clip-rule="nonzero"/></clipPath><clipPath id="bd423c30c7"><path d="M 228 56 L 246 56 L 246 78 L 228 78 Z M 228 56 " clip-rule="nonzero"/></clipPath><clipPath id="99e12bc76b"><path d="M 257.039062 78.015625 L 228.550781 77.15625 L 229.183594 56.164062 L 257.671875 57.023438 Z M 257.039062 78.015625 " clip-rule="nonzero"/></clipPath><clipPath id="ecfbe90973"><path d="M 228.890625 77.164062 L 257.378906 78.023438 L 258.011719 57.035156 L 229.523438 56.175781 Z M 228.890625 77.164062 " clip-rule="nonzero"/></clipPath><clipPath id="20b231b733"><path d="M 204 56 L 221 56 L 221 78 L 204 78 Z M 204 56 " clip-rule="nonzero"/></clipPath><clipPath id="aa876560c8"><path d="M 220.523438 78.015625 L 192.035156 77.15625 L 192.667969 56.164062 L 221.15625 57.023438 Z M 220.523438 78.015625 " clip-rule="nonzero"/></clipPath><clipPath id="5945b93e58"><path d="M 192.375 77.164062 L 220.863281 78.023438 L 221.496094 57.035156 L 193.007812 56.175781 Z M 192.375 77.164062 " clip-rule="nonzero"/></clipPath><clipPath id="c7f0660513"><path d="M 192 56 L 209 56 L 209 78 L 192 78 Z M 192 56 " clip-rule="nonzero"/></clipPath><clipPath id="98543b0c44"><path d="M 220.523438 78.015625 L 192.035156 77.15625 L 192.667969 56.164062 L 221.15625 57.023438 Z M 220.523438 78.015625 " clip-rule="nonzero"/></clipPath><clipPath id="4c339ad655"><path d="M 192.375 77.164062 L 220.863281 78.023438 L 221.496094 57.035156 L 193.007812 56.175781 Z M 192.375 77.164062 " clip-rule="nonzero"/></clipPath></defs><g clip-path="url(#61c72548a8)"><g clip-path="url(#431afdffa9)"><path fill="#919191" d="M 303.75 52.777344 L 303.75 323.039062 L -0.132812 323.039062 L -0.132812 52.777344 Z M 303.75 52.777344 " fill-opacity="1" fill-rule="nonzero"/></g></g><g clip-path="url(#28471b54e8)"><g clip-path="url(#8de8e3e9e0)"><path stroke-linecap="butt" transform="matrix(0.000000000000000046, 0.75, -0.75, 0.000000000000000046, 303.749959, 52.777335)" fill="none" stroke-linejoin="miter" d="M 120.062517 394.442673 C 138.520852 400.817674 159.505228 404.999965 180.098979 404.999965 C 200.69273 404.999965 220.505231 401.416632 238.770857 395.041632 C 239.156274 394.838507 239.546899 394.838507 239.937524 394.64059 C 308.515652 369.145797 359.03128 301.81246 360.00003 224.124956 L 360.00003 -0.0000552182 L 0.0000113526 -0.0000552182 L 0.0000113526 223.95829 C 0.97397 302.208294 50.708347 369.54163 120.062517 394.442673 " stroke="#000000" stroke-width="4" stroke-opacity="1" stroke-miterlimit="4"/></g></g><g clip-path="url(#d6a379303a)"><g clip-path="url(#3a2a0d5c2e)"><g clip-path="url(#01f6666b7f)"><path fill="#707070" d="M 273.574219 263.160156 L 64.863281 317.773438 L 10.25 109.066406 L 218.957031 54.453125 Z M 273.574219 263.160156 " fill-opacity="1" fill-rule="nonzero"/></g></g></g><g clip-path="url(#c303b4a852)"><g clip-path="url(#2bfa063f3b)"><g clip-path="url(#dda252fad1)"><g clip-path="url(#bab7761fdf)"><path stroke-linecap="butt" transform="matrix(-0.725569, 0.189866, -0.189866, -0.725569, 273.572595, 263.159635)" fill="none" stroke-linejoin="miter" d="M 144.000898 0.000611848 C 64.473502 -0.00194597 0.00012595 64.469162 0.00128829 144.002915 C -0.00126953 223.53031 64.471157 287.998648 143.998553 288.001206 C 223.527267 287.998725 288.000643 223.527617 287.998162 143.998903 C 288.00072 64.471507 223.529612 -0.00186901 144.000898 0.000611848 " stroke="#000000" stroke-width="8" stroke-opacity="1" stroke-miterlimit="4"/></g></g></g></g><g clip-path="url(#bfe81bb25b)"><g clip-path="url(#47ee0bc5ff)"><g clip-path="url(#4a09610e4c)"><path fill="#ffde59" d="M 168.984375 248.089844 L 151.960938 252.617188 L 143.757812 221.761719 L 160.78125 217.238281 Z M 168.984375 248.089844 " fill-opacity="1" fill-rule="nonzero"/></g></g></g><g clip-path="url(#587bd7c577)"><g clip-path="url(#50e84e9b86)"><g clip-path="url(#40ecdc17e5)"><path fill="#ffde59" d="M 114.628906 170.617188 L 109.847656 187.570312 L 79.121094 178.910156 L 83.902344 161.957031 Z M 114.628906 170.617188 " fill-opacity="1" fill-rule="nonzero"/></g></g></g><g clip-path="url(#1e1dc4f80c)"><g clip-path="url(#43b8520955)"><g clip-path="url(#1a24897fc2)"><path fill="#ffde59" d="M 149.105469 123.398438 L 208.425781 183.503906 L 156.300781 234.953125 L 96.976562 174.847656 Z M 149.105469 123.398438 " fill-opacity="1" fill-rule="nonzero"/></g></g></g><g clip-path="url(#95945563fb)"><g clip-path="url(#3a5c1245d0)"><g clip-path="url(#158deabbed)"><path fill="#ffde59" d="M 178.175781 141.613281 L 190.546875 154.152344 L 167.824219 176.574219 L 155.453125 164.039062 Z M 178.175781 141.613281 " fill-opacity="1" fill-rule="nonzero"/></g></g></g><g clip-path="url(#46414bd550)"><g clip-path="url(#f345bfa303)"><g clip-path="url(#7334734b08)"><path fill="#ffde59" d="M 159.734375 132.335938 L 200.210938 94.1875 L 238.359375 134.664062 L 197.882812 172.8125 Z M 159.734375 132.335938 " fill-opacity="1" fill-rule="nonzero"/></g></g></g><g clip-path="url(#79c52f464b)"><g clip-path="url(#f70f0c377e)"><g clip-path="url(#0ce5ae4604)"><g clip-path="url(#768103daff)"><path fill="#000000" d="M 181.980469 115.480469 C 177.9375 119.289062 175.460938 123.925781 174.546875 129.386719 L 168.640625 128.398438 C 169.777344 121.613281 172.855469 115.855469 177.875 111.125 Z M 174.246094 132.042969 C 173.921875 137.589844 175.296875 142.660156 178.371094 147.246094 L 173.394531 150.578125 C 169.574219 144.875 167.867188 138.582031 168.269531 131.695312 Z M 179.972656 149.382812 C 180.285156 149.753906 180.609375 150.121094 180.945312 150.476562 C 184.390625 154.132812 188.554688 156.519531 193.433594 157.632812 L 192.101562 163.46875 C 186.039062 162.085938 180.867188 159.125 176.585938 154.582031 C 176.171875 154.140625 175.769531 153.691406 175.382812 153.226562 Z M 196.070312 158.085938 C 201.59375 158.730469 206.738281 157.652344 211.496094 154.851562 L 214.535156 160.011719 C 208.617188 163.492188 202.230469 164.832031 195.375 164.03125 Z M 213.710938 153.382812 C 214.488281 152.804688 215.230469 152.179688 215.941406 151.511719 C 219.222656 148.417969 221.488281 144.71875 222.734375 140.414062 L 228.484375 142.082031 C 226.933594 147.433594 224.121094 152.027344 220.046875 155.871094 C 219.167969 156.699219 218.246094 157.46875 217.285156 158.1875 Z M 223.339844 137.8125 C 224.304688 132.339844 223.527344 127.144531 221.011719 122.230469 L 226.34375 119.503906 C 229.46875 125.609375 230.433594 132.0625 229.234375 138.851562 Z M 219.667969 119.917969 C 218.871094 118.710938 217.976562 117.578125 216.976562 116.515625 C 214.234375 113.605469 210.992188 111.488281 207.25 110.164062 L 209.25 104.519531 C 213.898438 106.167969 217.929688 108.796875 221.332031 112.410156 C 222.570312 113.726562 223.683594 115.128906 224.667969 116.628906 Z M 204.691406 109.410156 C 199.285156 108.128906 194.054688 108.601562 188.992188 110.828125 L 186.582031 105.347656 C 192.867188 102.582031 199.363281 101.996094 206.070312 103.582031 Z M 186.605469 112.035156 C 184.9375 113 183.398438 114.148438 181.980469 115.480469 L 177.875 111.125 C 179.628906 109.46875 181.542969 108.046875 183.613281 106.851562 Z M 186.605469 112.035156 " fill-opacity="1" fill-rule="nonzero"/></g></g></g></g><g clip-path="url(#903717b174)"><g clip-path="url(#57b5a790be)"><g clip-path="url(#4880e6ff45)"><path fill="#ffde59" d="M 48.617188 132.707031 L 102.242188 147.476562 L 87.476562 201.101562 L 33.847656 186.332031 Z M 48.617188 132.707031 " fill-opacity="1" fill-rule="nonzero"/></g></g></g><g clip-path="url(#d612c2ca16)"><g clip-path="url(#e86d39e572)"><g clip-path="url(#ebca38b9cf)"><g clip-path="url(#251598fb4f)"><path fill="#000000" d="M 74.578125 142.960938 C 69.222656 141.488281 63.972656 141.777344 58.832031 143.832031 L 56.609375 138.273438 C 63 135.71875 69.519531 135.359375 76.167969 137.1875 Z M 56.40625 144.957031 C 51.496094 147.5625 47.882812 151.367188 45.558594 156.378906 L 40.125 153.859375 C 43.015625 147.632812 47.507812 142.902344 53.601562 139.667969 Z M 44.566406 158.855469 C 44.410156 159.316406 44.265625 159.785156 44.136719 160.253906 C 42.800781 165.101562 42.925781 169.898438 44.511719 174.644531 L 38.832031 176.539062 C 36.863281 170.640625 36.707031 164.683594 38.363281 158.664062 C 38.523438 158.082031 38.703125 157.503906 38.894531 156.933594 Z M 45.492188 177.132812 C 47.8125 182.1875 51.402344 186.023438 56.269531 188.636719 L 53.4375 193.910156 C 47.390625 190.664062 42.925781 185.902344 40.050781 179.628906 Z M 58.675781 189.761719 C 59.570312 190.125 60.488281 190.4375 61.429688 190.695312 C 65.777344 191.894531 70.117188 191.910156 74.441406 190.738281 L 76.007812 196.519531 C 70.628906 197.972656 65.238281 197.957031 59.839844 196.46875 C 58.675781 196.148438 57.539062 195.761719 56.425781 195.3125 Z M 76.980469 189.902344 C 82.15625 187.882812 86.191406 184.523438 89.085938 179.820312 L 94.1875 182.957031 C 90.589844 188.800781 85.578125 192.976562 79.15625 195.480469 Z M 90.363281 177.46875 C 90.980469 176.164062 91.484375 174.808594 91.871094 173.402344 C 92.933594 169.546875 93.058594 165.675781 92.246094 161.789062 L 98.109375 160.566406 C 99.117188 165.398438 98.960938 170.207031 97.644531 174.992188 C 97.164062 176.734375 96.539062 178.414062 95.773438 180.035156 Z M 91.5625 159.210938 C 89.847656 153.929688 86.726562 149.703125 82.195312 146.535156 L 85.625 141.628906 C 91.253906 145.5625 95.128906 150.808594 97.257812 157.363281 Z M 79.921875 145.125 C 78.234375 144.199219 76.453125 143.476562 74.578125 142.960938 L 76.167969 137.1875 C 78.492188 137.828125 80.703125 138.722656 82.800781 139.875 Z M 79.921875 145.125 " fill-opacity="1" fill-rule="nonzero"/></g></g></g></g><g clip-path="url(#1d73bb0952)"><g clip-path="url(#beae4b72a9)"><g clip-path="url(#8d9a24c09a)"><path fill="#ffde59" d="M 128.746094 240.222656 L 182.554688 226.140625 L 196.636719 279.953125 L 142.824219 294.03125 Z M 128.746094 240.222656 " fill-opacity="1" fill-rule="nonzero"/></g></g></g><g clip-path="url(#60bebef84a)"><g clip-path="url(#9a44f5adbb)"><g clip-path="url(#ea36061daa)"><g clip-path="url(#52d4eea814)"><path fill="#000000" d="M 156.347656 236.09375 C 150.976562 237.5 146.578125 240.378906 143.160156 244.734375 L 138.449219 241.035156 C 142.699219 235.625 148.160156 232.046875 154.832031 230.300781 Z M 141.621094 246.921875 C 138.679688 251.636719 137.457031 256.742188 137.953125 262.242188 L 131.988281 262.78125 C 131.371094 255.945312 132.890625 249.601562 136.542969 243.75 Z M 138.335938 264.882812 C 138.433594 265.359375 138.542969 265.835938 138.664062 266.308594 C 139.9375 271.171875 142.449219 275.261719 146.199219 278.574219 L 142.230469 283.0625 C 137.574219 278.941406 134.453125 273.863281 132.875 267.824219 C 132.71875 267.238281 132.585938 266.652344 132.464844 266.058594 Z M 148.296875 280.238281 C 152.832031 283.453125 157.863281 284.96875 163.382812 284.792969 L 163.574219 290.777344 C 156.714844 290.996094 150.46875 289.113281 144.835938 285.125 Z M 166.03125 284.566406 C 166.988281 284.429688 167.941406 284.238281 168.882812 283.992188 C 173.246094 282.851562 177.007812 280.691406 180.167969 277.507812 L 184.414062 281.730469 C 180.488281 285.683594 175.816406 288.367188 170.398438 289.785156 C 169.230469 290.089844 168.050781 290.328125 166.863281 290.496094 Z M 181.941406 275.515625 C 185.410156 271.175781 187.222656 266.246094 187.371094 260.722656 L 193.355469 260.886719 C 193.171875 267.746094 190.925781 273.867188 186.621094 279.253906 Z M 187.296875 258.050781 C 187.179688 256.609375 186.933594 255.1875 186.566406 253.777344 C 185.554688 249.90625 183.722656 246.492188 181.074219 243.539062 L 185.535156 239.542969 C 188.828125 243.21875 191.101562 247.457031 192.359375 252.261719 C 192.816406 254.007812 193.117188 255.773438 193.265625 257.558594 Z M 179.191406 241.648438 C 175.058594 237.9375 170.242188 235.84375 164.730469 235.371094 L 165.242188 229.40625 C 172.085938 229.992188 178.066406 232.589844 183.191406 237.195312 Z M 162.058594 235.285156 C 160.132812 235.332031 158.230469 235.601562 156.347656 236.09375 L 154.832031 230.300781 C 157.164062 229.691406 159.527344 229.355469 161.917969 229.300781 Z M 162.058594 235.285156 " fill-opacity="1" fill-rule="nonzero"/></g></g></g></g><g clip-path="url(#f69d582d75)"><g clip-path="url(#aaf7db03d5)"><g clip-path="url(#d993034376)"><path fill="#707070" d="M 199.105469 123.628906 L 208.914062 133.566406 L 198.976562 143.371094 L 189.171875 133.433594 Z M 199.105469 123.628906 " fill-opacity="1" fill-rule="nonzero"/></g></g></g><g clip-path="url(#e4fd284bf0)"><g clip-path="url(#1db522b205)"><g clip-path="url(#2ee8630a44)"><path fill="#707070" d="M 76.625 162.023438 L 72.917969 175.484375 L 59.460938 171.777344 L 63.164062 158.320312 Z M 76.625 162.023438 " fill-opacity="1" fill-rule="nonzero"/></g></g></g><g clip-path="url(#fdcf8c5abb)"><g clip-path="url(#cfbed523d7)"><g clip-path="url(#1fd56afac5)"><path fill="#707070" d="M 163.75 249.933594 L 173.554688 259.867188 L 163.621094 269.671875 L 153.816406 259.738281 Z M 163.75 249.933594 " fill-opacity="1" fill-rule="nonzero"/></g></g></g><g clip-path="url(#1afb37ecfd)"><g clip-path="url(#78d4ad2b1d)"><g clip-path="url(#28de517341)"><g clip-path="url(#6a85d82c76)"><path fill="#ffffff" d="M 203.578125 181.558594 C 203.617188 181.539062 203.65625 181.542969 203.691406 181.566406 C 203.816406 181.492188 203.769531 181.261719 203.976562 181.261719 C 204.347656 181.007812 204.648438 181.183594 204.933594 181.429688 C 205.726562 182.113281 206.394531 182.914062 207.015625 183.75 C 209.226562 186.761719 210.703125 190.085938 211.601562 193.699219 C 213.171875 200.011719 212.4375 206.09375 210.03125 212.03125 C 208.914062 214.785156 207.332031 217.289062 205.632812 219.722656 C 204.632812 221.152344 203.550781 222.519531 202.5 223.910156 C 202.441406 223.945312 202.378906 223.976562 202.320312 224.011719 C 202.304688 224.085938 202.261719 224.164062 202.277344 224.230469 C 202.277344 224.230469 202.277344 224.230469 202.28125 224.234375 C 202.292969 224.285156 202.371094 224.265625 202.40625 224.214844 C 203.070312 224.027344 203.671875 223.710938 204.253906 223.359375 C 204.65625 223.121094 205.0625 222.917969 205.523438 222.835938 C 206.378906 222.3125 207.171875 222.433594 207.753906 223.144531 C 206.707031 224.839844 205.042969 225.6875 203.277344 226.410156 C 202.617188 226.679688 201.984375 226.992188 201.339844 227.296875 C 199.804688 228.023438 199.988281 227.832031 198.832031 227.066406 C 198.574219 226.894531 198.359375 226.667969 198.171875 226.417969 C 198.101562 226.328125 198.046875 226.238281 198.070312 226.117188 C 197.785156 225.90625 197.835938 225.617188 197.894531 225.335938 C 198.078125 224.503906 198.273438 223.675781 198.464844 222.847656 C 198.398438 222.652344 198.460938 222.476562 198.535156 222.300781 C 198.460938 222.109375 198.527344 221.929688 198.585938 221.753906 C 198.511719 221.625 198.570312 221.496094 198.574219 221.367188 C 198.644531 219.621094 198.511719 217.890625 198.082031 216.191406 C 198.050781 216.0625 198.027344 215.929688 198.003906 215.800781 C 197.96875 215.648438 197.929688 215.472656 198.085938 215.386719 C 198.207031 215.316406 198.386719 215.375 198.457031 215.46875 C 198.777344 215.871094 199.292969 216.015625 199.636719 216.378906 C 199.785156 216.539062 199.859375 216.746094 199.929688 216.960938 C 200.484375 218.605469 200.730469 220.304688 200.800781 222.027344 C 200.808594 222.179688 200.789062 222.339844 200.828125 222.488281 C 200.871094 222.660156 201.015625 222.640625 201.152344 222.582031 C 201.160156 222.40625 201.253906 222.296875 201.417969 222.246094 C 201.460938 222.085938 201.511719 221.9375 201.695312 221.886719 C 201.683594 221.84375 201.703125 221.820312 201.746094 221.816406 C 201.78125 221.664062 201.835938 221.527344 202.003906 221.472656 C 202.050781 221.375 202.085938 221.269531 202.148438 221.179688 C 202.832031 220.210938 203.53125 219.253906 204.203125 218.28125 C 204.8125 217.394531 205.394531 216.488281 205.988281 215.59375 C 206.113281 215.339844 206.230469 215.078125 206.371094 214.828125 C 207.6875 212.398438 208.691406 209.847656 209.300781 207.152344 C 209.519531 206.191406 209.710938 205.222656 209.910156 204.257812 C 209.839844 204.054688 209.914062 203.875 209.988281 203.6875 C 209.917969 203.496094 209.984375 203.324219 210.054688 203.144531 C 209.972656 202.96875 210.050781 202.804688 210.097656 202.636719 C 210.03125 202.523438 210.058594 202.417969 210.117188 202.3125 C 210.097656 202.269531 210.101562 202.230469 210.136719 202.195312 C 210.0625 202.070312 210.121094 201.9375 210.121094 201.8125 C 210.128906 201.179688 210.246094 200.554688 210.171875 199.917969 C 210.234375 199.875 210.292969 199.703125 210.34375 199.9375 C 210.382812 200.09375 210.421875 200.109375 210.46875 200.074219 C 210.503906 200.046875 210.542969 199.980469 210.578125 199.933594 C 210.53125 197.9375 210.242188 195.972656 209.824219 194.023438 C 209.765625 193.84375 209.710938 193.667969 209.65625 193.488281 C 209.320312 192.429688 208.988281 191.367188 208.65625 190.308594 C 208.617188 190.28125 208.59375 190.25 208.585938 190.210938 C 208.578125 190.1875 208.578125 190.160156 208.582031 190.128906 C 208.519531 190.085938 208.5 190.027344 208.515625 189.957031 C 208.449219 189.914062 208.429688 189.855469 208.445312 189.78125 C 208.378906 189.742188 208.359375 189.683594 208.375 189.605469 C 208.308594 189.566406 208.28125 189.507812 208.300781 189.433594 C 208.234375 189.394531 208.210938 189.335938 208.230469 189.261719 L 208.226562 189.261719 C 208.160156 189.222656 208.136719 189.164062 208.152344 189.09375 L 208.152344 189.089844 C 208.125 189.035156 208.097656 188.980469 208.078125 188.921875 L 208.074219 188.914062 C 208.007812 188.878906 207.980469 188.824219 208 188.75 L 207.996094 188.742188 C 207.929688 188.707031 207.902344 188.652344 207.921875 188.578125 L 207.917969 188.570312 C 207.847656 188.535156 207.824219 188.480469 207.839844 188.402344 L 207.839844 188.398438 C 207.769531 188.363281 207.746094 188.308594 207.761719 188.234375 L 207.761719 188.230469 C 207.691406 188.195312 207.664062 188.136719 207.679688 188.0625 C 207.398438 187.554688 207.117188 187.050781 206.839844 186.546875 C 206.777344 186.238281 206.578125 185.996094 206.417969 185.738281 C 206.382812 185.742188 206.351562 185.75 206.324219 185.765625 C 206.277344 185.789062 206.246094 185.820312 206.222656 185.871094 C 206.078125 185.6875 205.925781 185.515625 205.875 185.28125 C 205.867188 185.207031 205.847656 185.140625 205.800781 185.078125 C 205.824219 185.144531 205.851562 185.210938 205.875 185.28125 C 205.816406 185.230469 205.769531 185.179688 205.796875 185.097656 C 205.6875 185.058594 205.632812 184.976562 205.609375 184.863281 C 205.539062 184.839844 205.5 184.792969 205.511719 184.714844 C 205.445312 184.671875 205.398438 184.621094 205.40625 184.539062 C 205.371094 184.519531 205.347656 184.496094 205.339844 184.457031 C 205.167969 184.300781 205.039062 184.121094 204.953125 183.910156 C 204.839844 183.796875 204.722656 183.683594 204.675781 183.523438 C 204.578125 183.476562 204.539062 183.382812 204.492188 183.292969 C 204.039062 182.839844 203.675781 182.3125 203.117188 181.925781 C 203.324219 181.808594 203.339844 181.550781 203.578125 181.558594 Z M 201.871094 221.859375 C 201.871094 221.859375 201.871094 221.855469 201.871094 221.855469 C 201.871094 221.855469 201.871094 221.859375 201.871094 221.859375 C 201.867188 221.855469 201.867188 221.855469 201.867188 221.855469 C 201.867188 221.859375 201.867188 221.859375 201.871094 221.859375 Z M 208.191406 188.28125 C 208.199219 188.296875 208.207031 188.308594 208.214844 188.320312 C 208.214844 188.316406 208.214844 188.3125 208.210938 188.308594 C 208.207031 188.296875 208.203125 188.285156 208.195312 188.273438 C 208.195312 188.273438 208.191406 188.277344 208.191406 188.28125 Z M 208.65625 190.296875 C 208.660156 190.296875 208.660156 190.296875 208.660156 190.296875 C 208.664062 190.292969 208.671875 190.292969 208.675781 190.289062 L 208.6875 190.28125 L 208.660156 190.296875 C 208.65625 190.296875 208.65625 190.292969 208.65625 190.292969 C 208.65625 190.292969 208.65625 190.296875 208.65625 190.296875 Z M 208.226562 188.222656 C 208.214844 188.238281 208.207031 188.253906 208.199219 188.269531 C 208.203125 188.28125 208.207031 188.292969 208.210938 188.304688 C 208.203125 188.277344 208.207031 188.25 208.226562 188.222656 Z M 208.25 188.382812 C 208.257812 188.394531 208.265625 188.410156 208.269531 188.421875 C 208.273438 188.421875 208.273438 188.421875 208.273438 188.421875 C 208.265625 188.410156 208.257812 188.394531 208.25 188.382812 Z M 204.664062 182.09375 C 204.664062 182.09375 204.664062 182.089844 204.664062 182.089844 C 204.664062 182.089844 204.660156 182.085938 204.660156 182.085938 C 204.660156 182.085938 204.660156 182.085938 204.65625 182.082031 C 204.65625 182.085938 204.660156 182.089844 204.664062 182.09375 Z M 204.863281 182.296875 C 204.867188 182.296875 204.871094 182.296875 204.871094 182.300781 C 204.867188 182.300781 204.863281 182.296875 204.863281 182.296875 Z M 205.808594 184.964844 C 205.816406 184.953125 205.828125 184.941406 205.839844 184.933594 C 205.832031 184.929688 205.824219 184.925781 205.8125 184.921875 C 205.8125 184.9375 205.8125 184.949219 205.808594 184.964844 Z M 205.480469 184.585938 C 205.472656 184.566406 205.453125 184.546875 205.429688 184.535156 C 205.429688 184.535156 205.429688 184.535156 205.425781 184.535156 C 205.449219 184.550781 205.46875 184.566406 205.480469 184.585938 Z M 205.480469 184.585938 " fill-opacity="1" fill-rule="nonzero"/></g></g></g></g><g clip-path="url(#f7026be369)"><g clip-path="url(#c0f525bf0a)"><g clip-path="url(#57e16fb45c)"><g clip-path="url(#fb385d0a1a)"><path fill="#ffffff" d="M 208.074219 188.910156 C 208.101562 188.96875 208.125 189.023438 208.152344 189.078125 C 208.082031 189.039062 208.058594 188.984375 208.074219 188.910156 Z M 208.074219 188.910156 " fill-opacity="1" fill-rule="nonzero"/></g></g></g></g><g clip-path="url(#fd4cdf57c4)"><g clip-path="url(#4459b4d4b6)"><g clip-path="url(#b428ccbd03)"><g clip-path="url(#e9a4092cce)"><path fill="#ffffff" d="M 117.003906 247.1875 C 116.996094 247.230469 116.972656 247.257812 116.933594 247.273438 C 116.921875 247.417969 117.132812 247.511719 117.015625 247.679688 C 117.011719 248.132812 116.691406 248.277344 116.328125 248.367188 C 115.3125 248.625 114.273438 248.710938 113.230469 248.734375 C 109.496094 248.8125 105.929688 248.105469 102.457031 246.757812 C 96.394531 244.410156 91.835938 240.308594 88.367188 234.921875 C 86.761719 232.425781 85.621094 229.6875 84.609375 226.898438 C 84.015625 225.257812 83.523438 223.585938 82.988281 221.925781 C 82.996094 221.859375 83.003906 221.789062 83.011719 221.722656 C 82.960938 221.664062 82.921875 221.585938 82.855469 221.558594 C 82.855469 221.558594 82.855469 221.558594 82.851562 221.558594 C 82.800781 221.542969 82.777344 221.613281 82.792969 221.675781 C 82.566406 222.324219 82.480469 223 82.429688 223.679688 C 82.398438 224.144531 82.328125 224.59375 82.128906 225.019531 C 82.0625 226.019531 81.507812 226.597656 80.59375 226.664062 C 79.808594 224.832031 80.074219 222.980469 80.5 221.121094 C 80.65625 220.429688 80.769531 219.730469 80.890625 219.03125 C 81.179688 217.355469 81.230469 217.613281 82.523438 217.113281 C 82.8125 217 83.121094 216.957031 83.429688 216.945312 C 83.546875 216.9375 83.652344 216.945312 83.734375 217.03125 C 84.070312 216.921875 84.28125 217.128906 84.472656 217.339844 C 85.050781 217.96875 85.613281 218.605469 86.183594 219.238281 C 86.378906 219.296875 86.488281 219.449219 86.589844 219.609375 C 86.789062 219.660156 86.894531 219.816406 87.007812 219.964844 C 87.15625 219.980469 87.226562 220.101562 87.332031 220.183594 C 88.71875 221.242188 90.207031 222.128906 91.847656 222.757812 C 91.96875 222.804688 92.089844 222.863281 92.210938 222.914062 C 92.355469 222.976562 92.519531 223.046875 92.503906 223.226562 C 92.488281 223.359375 92.335938 223.476562 92.222656 223.480469 C 91.707031 223.511719 91.292969 223.847656 90.800781 223.917969 C 90.582031 223.949219 90.367188 223.890625 90.152344 223.824219 C 88.488281 223.332031 86.960938 222.558594 85.507812 221.621094 C 85.378906 221.539062 85.257812 221.433594 85.117188 221.378906 C 84.953125 221.316406 84.886719 221.445312 84.855469 221.589844 C 84.992188 221.699219 85.027344 221.835938 84.976562 222 C 85.082031 222.125 85.171875 222.253906 85.109375 222.433594 C 85.152344 222.449219 85.160156 222.476562 85.140625 222.515625 C 85.242188 222.632812 85.320312 222.757812 85.269531 222.921875 C 85.324219 223.019531 85.390625 223.105469 85.425781 223.207031 C 85.824219 224.324219 86.203125 225.449219 86.617188 226.558594 C 86.988281 227.570312 87.394531 228.566406 87.785156 229.566406 C 87.921875 229.816406 88.066406 230.0625 88.1875 230.316406 C 89.417969 232.792969 90.925781 235.082031 92.777344 237.132812 C 93.4375 237.867188 94.121094 238.578125 94.796875 239.296875 C 95.003906 239.359375 95.109375 239.523438 95.214844 239.691406 C 95.414062 239.742188 95.519531 239.898438 95.621094 240.054688 C 95.816406 240.089844 95.90625 240.25 96.011719 240.382812 C 96.144531 240.394531 96.21875 240.476562 96.269531 240.585938 C 96.316406 240.59375 96.34375 240.621094 96.351562 240.667969 C 96.496094 240.683594 96.570312 240.804688 96.675781 240.878906 C 97.1875 241.246094 97.632812 241.707031 98.191406 242.011719 C 98.195312 242.085938 98.300781 242.230469 98.078125 242.140625 C 97.929688 242.082031 97.894531 242.105469 97.894531 242.160156 C 97.898438 242.207031 97.929688 242.277344 97.945312 242.332031 C 99.605469 243.445312 101.378906 244.339844 103.214844 245.117188 C 103.394531 245.175781 103.570312 245.230469 103.75 245.289062 C 104.808594 245.625 105.867188 245.964844 106.925781 246.300781 C 106.96875 246.285156 107.007812 246.285156 107.042969 246.300781 C 107.070312 246.308594 107.089844 246.324219 107.113281 246.34375 C 107.183594 246.320312 107.246094 246.335938 107.292969 246.390625 C 107.367188 246.359375 107.425781 246.378906 107.476562 246.433594 C 107.546875 246.402344 107.609375 246.417969 107.660156 246.476562 C 107.730469 246.445312 107.792969 246.457031 107.84375 246.515625 C 107.914062 246.484375 107.976562 246.496094 108.027344 246.554688 C 108.097656 246.519531 108.160156 246.535156 108.207031 246.589844 L 108.210938 246.59375 C 108.273438 246.601562 108.332031 246.613281 108.390625 246.625 L 108.398438 246.628906 C 108.46875 246.59375 108.527344 246.605469 108.578125 246.660156 L 108.585938 246.664062 C 108.652344 246.628906 108.714844 246.640625 108.765625 246.695312 L 108.769531 246.699219 C 108.769531 246.699219 108.773438 246.699219 108.773438 246.699219 C 108.773438 246.699219 108.769531 246.699219 108.769531 246.699219 C 108.839844 246.664062 108.898438 246.671875 108.953125 246.730469 L 108.957031 246.730469 C 109.023438 246.695312 109.085938 246.707031 109.136719 246.765625 L 109.140625 246.765625 C 109.210938 246.730469 109.269531 246.742188 109.324219 246.796875 C 109.898438 246.859375 110.472656 246.917969 111.046875 246.980469 C 111.335938 247.109375 111.648438 247.082031 111.949219 247.101562 C 111.96875 247.070312 111.980469 247.039062 111.984375 247.007812 C 111.988281 246.960938 111.980469 246.914062 111.957031 246.867188 C 112.1875 246.855469 112.417969 246.828125 112.636719 246.921875 C 112.703125 246.957031 112.769531 246.980469 112.84375 246.976562 C 112.777344 246.960938 112.707031 246.941406 112.636719 246.921875 C 112.710938 246.902344 112.78125 246.894531 112.832031 246.960938 C 112.925781 246.894531 113.027344 246.898438 113.128906 246.945312 C 113.191406 246.898438 113.25 246.894531 113.308594 246.949219 C 113.382812 246.921875 113.449219 246.914062 113.515625 246.964844 C 113.546875 246.945312 113.582031 246.941406 113.621094 246.957031 C 113.84375 246.90625 114.066406 246.90625 114.285156 246.957031 C 114.445312 246.929688 114.605469 246.898438 114.765625 246.953125 C 114.859375 246.898438 114.960938 246.921875 115.058594 246.933594 C 115.6875 246.824219 116.332031 246.832031 116.96875 246.597656 C 116.945312 246.832031 117.144531 246.992188 117.003906 247.1875 Z M 85.03125 222.589844 C 85.03125 222.59375 85.03125 222.59375 85.03125 222.59375 C 85.03125 222.59375 85.035156 222.589844 85.035156 222.589844 C 85.03125 222.589844 85.03125 222.589844 85.03125 222.589844 Z M 108.851562 247.085938 C 108.835938 247.085938 108.820312 247.085938 108.804688 247.085938 C 108.808594 247.085938 108.8125 247.089844 108.816406 247.089844 C 108.828125 247.09375 108.839844 247.09375 108.855469 247.097656 C 108.851562 247.09375 108.851562 247.089844 108.851562 247.085938 Z M 106.933594 246.308594 C 106.929688 246.308594 106.933594 246.3125 106.929688 246.3125 C 106.929688 246.316406 106.929688 246.324219 106.929688 246.328125 L 106.929688 246.34375 L 106.933594 246.3125 C 106.933594 246.308594 106.933594 246.3125 106.9375 246.308594 C 106.933594 246.3125 106.933594 246.308594 106.933594 246.308594 Z M 108.878906 247.148438 C 108.871094 247.132812 108.863281 247.113281 108.855469 247.101562 C 108.84375 247.097656 108.832031 247.09375 108.820312 247.09375 C 108.84375 247.101562 108.867188 247.121094 108.878906 247.148438 Z M 108.734375 247.078125 C 108.71875 247.078125 108.703125 247.074219 108.691406 247.074219 C 108.691406 247.074219 108.6875 247.074219 108.6875 247.074219 C 108.703125 247.074219 108.71875 247.078125 108.734375 247.078125 Z M 115.941406 247.765625 C 115.941406 247.765625 115.945312 247.765625 115.945312 247.769531 C 115.945312 247.769531 115.949219 247.769531 115.949219 247.769531 C 115.949219 247.765625 115.953125 247.765625 115.953125 247.765625 C 115.949219 247.765625 115.945312 247.765625 115.941406 247.765625 Z M 115.660156 247.8125 C 115.660156 247.816406 115.65625 247.816406 115.652344 247.816406 C 115.65625 247.8125 115.660156 247.8125 115.660156 247.8125 Z M 112.933594 247.050781 C 112.9375 247.0625 112.941406 247.078125 112.941406 247.09375 C 112.949219 247.085938 112.957031 247.082031 112.964844 247.078125 C 112.953125 247.070312 112.945312 247.058594 112.933594 247.050781 Z M 113.429688 247 C 113.453125 247.003906 113.480469 246.996094 113.503906 246.984375 C 113.476562 246.996094 113.453125 247 113.429688 247 Z M 113.429688 247 " fill-opacity="1" fill-rule="nonzero"/></g></g></g></g><g clip-path="url(#fcb6547fae)"><g clip-path="url(#7f854027ec)"><g clip-path="url(#7cb236ae06)"><g clip-path="url(#756fcfe9ee)"><path fill="#ffffff" d="M 108.402344 246.632812 C 108.339844 246.621094 108.28125 246.609375 108.222656 246.597656 C 108.292969 246.5625 108.351562 246.574219 108.402344 246.632812 Z M 108.402344 246.632812 " fill-opacity="1" fill-rule="nonzero"/></g></g></g></g><g clip-path="url(#afe1159925)"><g clip-path="url(#1b96f12b96)"><g clip-path="url(#f40780e162)"><g clip-path="url(#9879404a3f)"><path fill="#ffffff" d="M 103.238281 133.28125 C 103.207031 133.253906 103.199219 133.21875 103.207031 133.175781 C 103.097656 133.085938 102.898438 133.203125 102.828125 133.011719 C 102.457031 132.75 102.519531 132.40625 102.652344 132.054688 C 103.023438 131.074219 103.542969 130.171875 104.117188 129.300781 C 106.183594 126.191406 108.796875 123.660156 111.882812 121.574219 C 117.269531 117.929688 123.234375 116.527344 129.636719 116.746094 C 132.605469 116.847656 135.503906 117.472656 138.371094 118.230469 C 140.058594 118.679688 141.714844 119.226562 143.382812 119.734375 C 143.433594 119.777344 143.484375 119.824219 143.535156 119.867188 C 143.613281 119.859375 143.703125 119.871094 143.757812 119.832031 C 143.757812 119.832031 143.757812 119.832031 143.761719 119.828125 C 143.804688 119.800781 143.757812 119.734375 143.699219 119.714844 C 143.296875 119.15625 142.789062 118.703125 142.261719 118.277344 C 141.898438 117.984375 141.566406 117.671875 141.332031 117.261719 C 140.546875 116.640625 140.390625 115.851562 140.855469 115.066406 C 142.808594 115.460938 144.175781 116.738281 145.460938 118.148438 C 145.941406 118.671875 146.453125 119.160156 146.957031 119.660156 C 148.167969 120.851562 147.925781 120.746094 147.605469 122.09375 C 147.53125 122.394531 147.390625 122.675781 147.222656 122.9375 C 147.164062 123.03125 147.097656 123.117188 146.976562 123.136719 C 146.878906 123.476562 146.589844 123.527344 146.304688 123.566406 C 145.460938 123.679688 144.613281 123.785156 143.769531 123.890625 C 143.609375 124.019531 143.421875 124.019531 143.234375 124.011719 C 143.078125 124.148438 142.886719 124.144531 142.703125 124.152344 C 142.609375 124.265625 142.464844 124.253906 142.339844 124.292969 C 140.679688 124.832031 139.101562 125.546875 137.648438 126.535156 C 137.539062 126.613281 137.425781 126.675781 137.3125 126.746094 C 137.179688 126.828125 137.03125 126.925781 136.894531 126.808594 C 136.789062 126.722656 136.78125 126.53125 136.84375 126.433594 C 137.109375 125.996094 137.070312 125.460938 137.292969 125.015625 C 137.390625 124.816406 137.5625 124.675781 137.738281 124.535156 C 139.09375 123.449219 140.601562 122.636719 142.195312 121.976562 C 142.339844 121.917969 142.492188 121.878906 142.617188 121.792969 C 142.765625 121.691406 142.695312 121.566406 142.597656 121.457031 C 142.429688 121.507812 142.292969 121.460938 142.1875 121.320312 C 142.027344 121.335938 141.867188 121.339844 141.757812 121.183594 C 141.71875 121.210938 141.691406 121.203125 141.671875 121.164062 C 141.519531 121.183594 141.371094 121.175781 141.261719 121.039062 C 141.15625 121.027344 141.042969 121.035156 140.9375 121.003906 C 139.792969 120.695312 138.65625 120.367188 137.507812 120.074219 C 136.464844 119.804688 135.417969 119.566406 134.371094 119.320312 C 134.089844 119.289062 133.804688 119.265625 133.523438 119.222656 C 130.789062 118.820312 128.046875 118.757812 125.308594 119.109375 C 124.328125 119.234375 123.355469 119.390625 122.378906 119.53125 C 122.210938 119.667969 122.015625 119.660156 121.816406 119.65625 C 121.660156 119.789062 121.472656 119.785156 121.285156 119.78125 C 121.144531 119.917969 120.964844 119.902344 120.792969 119.914062 C 120.707031 120.015625 120.597656 120.027344 120.480469 120.007812 C 120.445312 120.042969 120.410156 120.050781 120.367188 120.03125 C 120.269531 120.140625 120.128906 120.132812 120.007812 120.175781 C 119.414062 120.386719 118.785156 120.492188 118.214844 120.777344 C 118.152344 120.734375 117.96875 120.742188 118.171875 120.609375 C 118.304688 120.523438 118.304688 120.476562 118.261719 120.449219 C 118.21875 120.421875 118.144531 120.410156 118.089844 120.390625 C 116.230469 121.121094 114.484375 122.070312 112.796875 123.132812 C 112.648438 123.246094 112.5 123.363281 112.355469 123.476562 C 111.472656 124.152344 110.589844 124.832031 109.710938 125.507812 C 109.699219 125.550781 109.675781 125.585938 109.644531 125.605469 C 109.621094 125.621094 109.597656 125.632812 109.566406 125.636719 C 109.550781 125.710938 109.5 125.75 109.429688 125.761719 C 109.410156 125.835938 109.363281 125.875 109.289062 125.886719 C 109.273438 125.960938 109.226562 126.003906 109.148438 126.011719 C 109.132812 126.089844 109.085938 126.132812 109.011719 126.140625 C 108.996094 126.21875 108.953125 126.257812 108.875 126.265625 L 108.875 126.269531 C 108.863281 126.34375 108.816406 126.390625 108.742188 126.394531 L 108.738281 126.398438 C 108.699219 126.445312 108.652344 126.488281 108.609375 126.527344 L 108.601562 126.53125 C 108.589844 126.605469 108.550781 126.652344 108.472656 126.660156 L 108.46875 126.664062 C 108.457031 126.738281 108.414062 126.785156 108.335938 126.792969 L 108.332031 126.796875 C 108.332031 126.796875 108.332031 126.800781 108.332031 126.800781 C 108.332031 126.800781 108.332031 126.796875 108.332031 126.796875 C 108.324219 126.875 108.28125 126.917969 108.203125 126.925781 L 108.199219 126.929688 C 108.191406 127.007812 108.144531 127.050781 108.070312 127.058594 L 108.070312 127.0625 C 108.058594 127.140625 108.011719 127.183594 107.9375 127.195312 C 107.558594 127.632812 107.179688 128.070312 106.800781 128.507812 C 106.535156 128.671875 106.375 128.941406 106.1875 129.179688 C 106.203125 129.214844 106.222656 129.238281 106.246094 129.261719 C 106.285156 129.292969 106.324219 129.3125 106.378906 129.320312 C 106.257812 129.515625 106.148438 129.71875 105.945312 129.847656 C 105.878906 129.878906 105.820312 129.921875 105.78125 129.984375 C 105.835938 129.941406 105.890625 129.890625 105.945312 129.847656 C 105.917969 129.917969 105.886719 129.980469 105.800781 129.984375 C 105.800781 130.101562 105.742188 130.179688 105.644531 130.238281 C 105.648438 130.316406 105.617188 130.367188 105.539062 130.382812 C 105.519531 130.457031 105.488281 130.519531 105.410156 130.542969 C 105.40625 130.582031 105.390625 130.613281 105.355469 130.632812 C 105.269531 130.847656 105.144531 131.03125 104.976562 131.183594 C 104.910156 131.328125 104.84375 131.480469 104.707031 131.578125 C 104.695312 131.6875 104.621094 131.757812 104.554688 131.832031 C 104.285156 132.410156 103.914062 132.933594 103.746094 133.589844 C 103.5625 133.4375 103.316406 133.511719 103.238281 133.28125 Z M 141.671875 121.03125 C 141.671875 121.03125 141.671875 121.03125 141.667969 121.03125 C 141.667969 121.03125 141.671875 121.027344 141.671875 121.027344 C 141.667969 121.03125 141.667969 121.03125 141.667969 121.03125 C 141.667969 121.03125 141.671875 121.035156 141.667969 121.035156 C 141.671875 121.035156 141.671875 121.03125 141.671875 121.03125 Z M 107.96875 126.640625 C 107.976562 126.628906 107.984375 126.617188 107.996094 126.605469 C 107.992188 126.605469 107.988281 126.609375 107.984375 126.613281 C 107.976562 126.621094 107.96875 126.628906 107.957031 126.640625 C 107.960938 126.640625 107.964844 126.640625 107.96875 126.640625 Z M 109.699219 125.507812 C 109.695312 125.503906 109.691406 125.5 109.6875 125.496094 L 109.671875 125.484375 L 109.699219 125.507812 C 109.699219 125.507812 109.699219 125.507812 109.699219 125.511719 C 109.699219 125.507812 109.699219 125.507812 109.699219 125.507812 Z M 107.902344 126.628906 C 107.917969 126.632812 107.9375 126.636719 107.953125 126.636719 C 107.964844 126.628906 107.972656 126.621094 107.980469 126.613281 C 107.960938 126.628906 107.933594 126.636719 107.902344 126.628906 Z M 108.039062 126.550781 C 108.050781 126.539062 108.0625 126.527344 108.070312 126.519531 C 108.070312 126.515625 108.070312 126.515625 108.070312 126.515625 C 108.0625 126.527344 108.050781 126.539062 108.039062 126.550781 Z M 103.371094 132.078125 C 103.367188 132.082031 103.367188 132.082031 103.363281 132.082031 C 103.363281 132.082031 103.363281 132.085938 103.363281 132.085938 C 103.363281 132.085938 103.363281 132.089844 103.363281 132.089844 C 103.367188 132.085938 103.367188 132.082031 103.371094 132.078125 Z M 103.492188 131.824219 C 103.488281 131.820312 103.488281 131.816406 103.492188 131.8125 C 103.492188 131.816406 103.492188 131.820312 103.492188 131.824219 Z M 105.671875 130.015625 C 105.660156 130.011719 105.644531 130.007812 105.632812 130 C 105.632812 130.007812 105.632812 130.019531 105.632812 130.027344 C 105.644531 130.023438 105.660156 130.019531 105.671875 130.015625 Z M 105.429688 130.453125 C 105.414062 130.472656 105.402344 130.496094 105.398438 130.523438 C 105.398438 130.523438 105.398438 130.523438 105.402344 130.523438 C 105.40625 130.496094 105.414062 130.472656 105.429688 130.453125 Z M 105.429688 130.453125 " fill-opacity="1" fill-rule="nonzero"/></g></g></g></g><g clip-path="url(#f5f49c7a23)"><g clip-path="url(#24475a9fa6)"><g clip-path="url(#ff97968077)"><g clip-path="url(#48bd2a1bef)"><path fill="#ffffff" d="M 108.597656 126.53125 C 108.640625 126.488281 108.6875 126.445312 108.726562 126.402344 C 108.71875 126.480469 108.671875 126.523438 108.597656 126.53125 Z M 108.597656 126.53125 " fill-opacity="1" fill-rule="nonzero"/></g></g></g></g><path stroke-linecap="butt" transform="matrix(0.74987, 0.00605191, -0.00605275, 0.749976, 136.490312, 77.868328)" fill="none" stroke-linejoin="miter" d="M -0.00220402 1.998562 L 223.03636 2.000901 " stroke="#000000" stroke-width="4" stroke-opacity="1" stroke-miterlimit="4"/><path stroke-linecap="butt" transform="matrix(0.750617, -0.00364086, 0.00363783, 0.749991, 135.126205, 291.168432)" fill="none" stroke-linejoin="miter" d="M -0.000887235 1.999401 L 224.814281 2.002221 " stroke="#000000" stroke-width="4" stroke-opacity="1" stroke-miterlimit="4"/><g clip-path="url(#f591c5e013)"><path fill="#38b6ff" d="M 266.714844 306.992188 L 275.207031 297.5 C 275.390625 297.296875 275.644531 297.183594 275.910156 297.183594 L 281.574219 297.183594 C 281.945312 297.183594 282.28125 297.402344 282.4375 297.746094 C 282.585938 298.089844 282.523438 298.488281 282.273438 298.765625 L 274.351562 307.628906 L 282.273438 316.484375 C 282.523438 316.765625 282.589844 317.164062 282.4375 317.507812 C 282.28125 317.851562 281.945312 318.070312 281.574219 318.070312 L 275.910156 318.070312 C 275.644531 318.070312 275.390625 317.953125 275.207031 317.757812 L 266.714844 308.261719 C 266.394531 307.902344 266.394531 307.351562 266.714844 306.992188 Z M 266.714844 306.992188 " fill-opacity="1" fill-rule="nonzero"/></g><g clip-path="url(#e96612e5a2)"><path fill="#38b6ff" d="M 278.984375 306.992188 L 287.476562 297.5 C 287.660156 297.296875 287.910156 297.183594 288.179688 297.183594 L 293.839844 297.183594 C 294.214844 297.183594 294.550781 297.402344 294.703125 297.746094 C 294.855469 298.089844 294.792969 298.488281 294.542969 298.765625 L 286.617188 307.628906 L 294.542969 316.484375 C 294.792969 316.765625 294.855469 317.164062 294.703125 317.507812 C 294.550781 317.851562 294.214844 318.070312 293.839844 318.070312 L 288.179688 318.070312 C 287.910156 318.070312 287.660156 317.953125 287.476562 317.757812 L 278.984375 308.261719 C 278.660156 307.902344 278.660156 307.351562 278.984375 306.992188 Z M 278.984375 306.992188 " fill-opacity="1" fill-rule="nonzero"/></g><g clip-path="url(#3e0f4e7b9d)"><path fill="#38b6ff" d="M 229.589844 306.992188 L 238.082031 297.5 C 238.265625 297.296875 238.519531 297.183594 238.785156 297.183594 L 244.449219 297.183594 C 244.820312 297.183594 245.15625 297.402344 245.3125 297.746094 C 245.460938 298.089844 245.398438 298.488281 245.148438 298.765625 L 237.226562 307.628906 L 245.148438 316.484375 C 245.398438 316.765625 245.464844 317.164062 245.3125 317.507812 C 245.15625 317.851562 244.820312 318.070312 244.449219 318.070312 L 238.785156 318.070312 C 238.519531 318.070312 238.265625 317.953125 238.082031 317.757812 L 229.589844 308.261719 C 229.269531 307.902344 229.269531 307.351562 229.589844 306.992188 Z M 229.589844 306.992188 " fill-opacity="1" fill-rule="nonzero"/></g><g clip-path="url(#a27d387af2)"><path fill="#38b6ff" d="M 241.859375 306.992188 L 250.351562 297.5 C 250.535156 297.296875 250.785156 297.183594 251.054688 297.183594 L 256.714844 297.183594 C 257.089844 297.183594 257.425781 297.402344 257.578125 297.746094 C 257.730469 298.089844 257.667969 298.488281 257.417969 298.765625 L 249.492188 307.628906 L 257.417969 316.484375 C 257.667969 316.765625 257.730469 317.164062 257.578125 317.507812 C 257.425781 317.851562 257.089844 318.070312 256.714844 318.070312 L 251.054688 318.070312 C 250.785156 318.070312 250.535156 317.953125 250.351562 317.757812 L 241.859375 308.261719 C 241.535156 307.902344 241.535156 307.351562 241.859375 306.992188 Z M 241.859375 306.992188 " fill-opacity="1" fill-rule="nonzero"/></g><g clip-path="url(#86c8d41fb2)"><path fill="#5ce1e6" d="M 192.464844 306.992188 L 200.957031 297.5 C 201.140625 297.296875 201.394531 297.183594 201.660156 297.183594 L 207.324219 297.183594 C 207.695312 297.183594 208.03125 297.402344 208.1875 297.746094 C 208.335938 298.089844 208.273438 298.488281 208.023438 298.765625 L 200.101562 307.628906 L 208.023438 316.484375 C 208.273438 316.765625 208.339844 317.164062 208.1875 317.507812 C 208.03125 317.851562 207.695312 318.070312 207.324219 318.070312 L 201.660156 318.070312 C 201.394531 318.070312 201.140625 317.953125 200.957031 317.757812 L 192.464844 308.261719 C 192.144531 307.902344 192.144531 307.351562 192.464844 306.992188 Z M 192.464844 306.992188 " fill-opacity="1" fill-rule="nonzero"/></g><g clip-path="url(#26f478e989)"><path fill="#5ce1e6" d="M 204.734375 306.992188 L 213.226562 297.5 C 213.410156 297.296875 213.660156 297.183594 213.929688 297.183594 L 219.589844 297.183594 C 219.964844 297.183594 220.300781 297.402344 220.453125 297.746094 C 220.605469 298.089844 220.542969 298.488281 220.292969 298.765625 L 212.367188 307.628906 L 220.292969 316.484375 C 220.542969 316.765625 220.605469 317.164062 220.453125 317.507812 C 220.300781 317.851562 219.964844 318.070312 219.589844 318.070312 L 213.929688 318.070312 C 213.660156 318.070312 213.410156 317.953125 213.226562 317.757812 L 204.734375 308.261719 C 204.410156 307.902344 204.410156 307.351562 204.734375 306.992188 Z M 204.734375 306.992188 " fill-opacity="1" fill-rule="nonzero"/></g><g clip-path="url(#38a4825dfc)"><path fill="#38b6ff" d="M 155.339844 306.992188 L 163.832031 297.5 C 164.015625 297.296875 164.269531 297.183594 164.535156 297.183594 L 170.199219 297.183594 C 170.570312 297.183594 170.90625 297.402344 171.0625 297.746094 C 171.210938 298.089844 171.148438 298.488281 170.898438 298.765625 L 162.976562 307.628906 L 170.898438 316.484375 C 171.148438 316.765625 171.214844 317.164062 171.0625 317.507812 C 170.90625 317.851562 170.570312 318.070312 170.199219 318.070312 L 164.535156 318.070312 C 164.269531 318.070312 164.015625 317.953125 163.832031 317.757812 L 155.339844 308.261719 C 155.019531 307.902344 155.019531 307.351562 155.339844 306.992188 Z M 155.339844 306.992188 " fill-opacity="1" fill-rule="nonzero"/></g><g clip-path="url(#1757742183)"><path fill="#38b6ff" d="M 167.609375 306.992188 L 176.101562 297.5 C 176.285156 297.296875 176.535156 297.183594 176.804688 297.183594 L 182.464844 297.183594 C 182.839844 297.183594 183.175781 297.402344 183.328125 297.746094 C 183.480469 298.089844 183.417969 298.488281 183.167969 298.765625 L 175.242188 307.628906 L 183.167969 316.484375 C 183.417969 316.765625 183.480469 317.164062 183.328125 317.507812 C 183.175781 317.851562 182.839844 318.070312 182.464844 318.070312 L 176.804688 318.070312 C 176.535156 318.070312 176.285156 317.953125 176.101562 317.757812 L 167.609375 308.261719 C 167.285156 307.902344 167.285156 307.351562 167.609375 306.992188 Z M 167.609375 306.992188 " fill-opacity="1" fill-rule="nonzero"/></g><g clip-path="url(#11fdf32bae)"><g clip-path="url(#a4e60abda4)"><g clip-path="url(#bc7c8eb170)"><path fill="#38b6ff" d="M 118.210938 307.242188 L 126.535156 297.597656 C 126.710938 297.394531 126.960938 297.273438 127.230469 297.269531 L 132.890625 297.171875 C 133.261719 297.164062 133.605469 297.378906 133.765625 297.714844 C 133.921875 298.058594 133.867188 298.460938 133.621094 298.742188 L 125.855469 307.738281 L 133.933594 316.457031 C 134.1875 316.730469 134.261719 317.128906 134.113281 317.476562 C 133.964844 317.820312 133.632812 318.046875 133.261719 318.054688 L 127.597656 318.152344 C 127.332031 318.160156 127.078125 318.046875 126.890625 317.851562 L 118.230469 308.511719 C 117.902344 308.15625 117.894531 307.605469 118.210938 307.242188 Z M 118.210938 307.242188 " fill-opacity="1" fill-rule="nonzero"/></g></g></g><g clip-path="url(#9045c27567)"><g clip-path="url(#067b9c0766)"><g clip-path="url(#91887c7d35)"><path fill="#38b6ff" d="M 130.476562 307.023438 L 138.800781 297.382812 C 138.976562 297.175781 139.230469 297.058594 139.496094 297.054688 L 145.15625 296.953125 C 145.53125 296.945312 145.871094 297.160156 146.03125 297.5 C 146.1875 297.839844 146.132812 298.242188 145.886719 298.523438 L 138.121094 307.523438 L 146.203125 316.238281 C 146.457031 316.515625 146.527344 316.914062 146.378906 317.257812 C 146.234375 317.605469 145.898438 317.832031 145.527344 317.835938 L 139.867188 317.9375 C 139.597656 317.941406 139.34375 317.832031 139.160156 317.636719 L 130.5 308.292969 C 130.167969 307.9375 130.160156 307.386719 130.476562 307.023438 Z M 130.476562 307.023438 " fill-opacity="1" fill-rule="nonzero"/></g></g></g><g clip-path="url(#1b3a2ca51e)"><g clip-path="url(#275cc85b60)"><g clip-path="url(#5884c6cc45)"><path fill="#38b6ff" d="M 75.855469 286.085938 L 88.128906 282.679688 C 88.390625 282.609375 88.664062 282.648438 88.890625 282.796875 L 93.65625 285.851562 C 93.96875 286.050781 94.132812 286.421875 94.078125 286.789062 C 94.019531 287.160156 93.75 287.464844 93.390625 287.5625 L 81.9375 290.742188 L 83.828125 302.476562 C 83.886719 302.847656 83.722656 303.21875 83.410156 303.425781 C 83.097656 303.632812 82.691406 303.632812 82.378906 303.433594 L 77.613281 300.375 C 77.386719 300.230469 77.238281 299.996094 77.191406 299.734375 L 75.167969 287.15625 C 75.089844 286.679688 75.386719 286.214844 75.855469 286.085938 Z M 75.855469 286.085938 " fill-opacity="1" fill-rule="nonzero"/></g></g></g><g clip-path="url(#592578f42f)"><g clip-path="url(#7dca2d02e6)"><g clip-path="url(#8cd7bfef48)"><path fill="#38b6ff" d="M 86.179688 292.710938 L 98.457031 289.304688 C 98.714844 289.234375 98.992188 289.273438 99.214844 289.417969 L 103.984375 292.476562 C 104.296875 292.675781 104.460938 293.042969 104.40625 293.414062 C 104.347656 293.785156 104.078125 294.089844 103.71875 294.1875 L 92.265625 297.367188 L 94.152344 309.101562 C 94.210938 309.46875 94.050781 309.84375 93.738281 310.046875 C 93.421875 310.253906 93.019531 310.257812 92.707031 310.058594 L 87.941406 307 C 87.714844 306.855469 87.5625 306.621094 87.519531 306.355469 L 85.496094 293.78125 C 85.417969 293.300781 85.714844 292.839844 86.179688 292.710938 Z M 86.179688 292.710938 " fill-opacity="1" fill-rule="nonzero"/></g></g></g><g clip-path="url(#abf5809364)"><g clip-path="url(#ebb02cc2bc)"><g clip-path="url(#cbcb1d514f)"><path fill="#5ce1e6" d="M 41.28125 262.910156 L 53.984375 261.964844 C 54.253906 261.945312 54.515625 262.039062 54.707031 262.222656 L 58.785156 266.152344 C 59.054688 266.410156 59.144531 266.800781 59.015625 267.15625 C 58.886719 267.507812 58.566406 267.753906 58.191406 267.777344 L 46.339844 268.664062 L 45.902344 280.539062 C 45.886719 280.914062 45.65625 281.246094 45.308594 281.386719 C 44.960938 281.53125 44.566406 281.453125 44.296875 281.195312 L 40.21875 277.269531 C 40.027344 277.082031 39.921875 276.824219 39.929688 276.554688 L 40.398438 263.824219 C 40.417969 263.339844 40.796875 262.945312 41.28125 262.910156 Z M 41.28125 262.910156 " fill-opacity="1" fill-rule="nonzero"/></g></g></g><g clip-path="url(#acb42f14ec)"><g clip-path="url(#9ee7464fd3)"><g clip-path="url(#c0ad09706f)"><path fill="#5ce1e6" d="M 50.117188 271.421875 L 62.820312 270.472656 C 63.089844 270.453125 63.351562 270.546875 63.542969 270.734375 L 67.621094 274.660156 C 67.890625 274.917969 67.980469 275.3125 67.855469 275.664062 C 67.722656 276.015625 67.402344 276.261719 67.03125 276.289062 L 55.175781 277.171875 L 54.738281 289.050781 C 54.726562 289.425781 54.492188 289.757812 54.144531 289.898438 C 53.796875 290.039062 53.402344 289.964844 53.132812 289.707031 L 49.054688 285.777344 C 48.863281 285.59375 48.761719 285.332031 48.765625 285.066406 L 49.234375 272.335938 C 49.253906 271.851562 49.636719 271.453125 50.117188 271.421875 Z M 50.117188 271.421875 " fill-opacity="1" fill-rule="nonzero"/></g></g></g><g clip-path="url(#a16ade0961)"><g clip-path="url(#d9bee2688c)"><g clip-path="url(#4691098430)"><path fill="#38b6ff" d="M 22.734375 226.0625 L 35.210938 228.632812 C 35.476562 228.6875 35.699219 228.851562 35.835938 229.082031 L 38.679688 233.976562 C 38.867188 234.296875 38.847656 234.703125 38.628906 235.003906 C 38.40625 235.308594 38.03125 235.457031 37.664062 235.378906 L 26.023438 232.980469 L 22.347656 244.285156 C 22.230469 244.640625 21.917969 244.898438 21.542969 244.9375 C 21.171875 244.976562 20.808594 244.796875 20.625 244.472656 L 17.777344 239.578125 C 17.644531 239.347656 17.617188 239.070312 17.695312 238.8125 L 21.636719 226.699219 C 21.785156 226.238281 22.261719 225.960938 22.734375 226.0625 Z M 22.734375 226.0625 " fill-opacity="1" fill-rule="nonzero"/></g></g></g><g clip-path="url(#b2d60a0fc7)"><g clip-path="url(#f145890e82)"><g clip-path="url(#9ee4a95bda)"><path fill="#38b6ff" d="M 28.898438 236.667969 L 41.375 239.238281 C 41.640625 239.296875 41.867188 239.457031 42 239.6875 L 44.847656 244.582031 C 45.035156 244.90625 45.011719 245.308594 44.792969 245.613281 C 44.574219 245.914062 44.195312 246.0625 43.832031 245.984375 L 32.1875 243.585938 L 28.511719 254.890625 C 28.394531 255.246094 28.082031 255.503906 27.710938 255.542969 C 27.335938 255.582031 26.976562 255.402344 26.789062 255.082031 L 23.941406 250.183594 C 23.808594 249.953125 23.78125 249.675781 23.859375 249.421875 L 27.800781 237.304688 C 27.949219 236.847656 28.425781 236.570312 28.898438 236.667969 Z M 28.898438 236.667969 " fill-opacity="1" fill-rule="nonzero"/></g></g></g><g clip-path="url(#3fa515990a)"><path fill="#38b6ff" d="M 20.015625 172.027344 L 29.507812 180.519531 C 29.710938 180.699219 29.824219 180.953125 29.824219 181.222656 L 29.824219 186.882812 C 29.824219 187.257812 29.605469 187.59375 29.261719 187.746094 C 28.917969 187.898438 28.515625 187.835938 28.242188 187.585938 L 19.378906 179.660156 L 10.523438 187.585938 C 10.242188 187.835938 9.84375 187.898438 9.5 187.746094 C 9.15625 187.59375 8.9375 187.257812 8.9375 186.882812 L 8.9375 181.222656 C 8.9375 180.953125 9.050781 180.699219 9.25 180.519531 L 18.746094 172.027344 C 19.105469 171.703125 19.65625 171.703125 20.015625 172.027344 Z M 20.015625 172.027344 " fill-opacity="1" fill-rule="nonzero"/></g><g clip-path="url(#ff0e58cd37)"><path fill="#38b6ff" d="M 20.015625 184.292969 L 29.507812 192.789062 C 29.710938 192.96875 29.824219 193.222656 29.824219 193.488281 L 29.824219 199.152344 C 29.824219 199.523438 29.605469 199.863281 29.261719 200.015625 C 28.917969 200.164062 28.515625 200.105469 28.242188 199.855469 L 19.378906 191.929688 L 10.523438 199.855469 C 10.242188 200.105469 9.84375 200.167969 9.5 200.015625 C 9.15625 199.863281 8.9375 199.523438 8.9375 199.152344 L 8.9375 193.488281 C 8.9375 193.222656 9.050781 192.96875 9.25 192.789062 L 18.746094 184.292969 C 19.105469 183.972656 19.65625 183.972656 20.015625 184.292969 Z M 20.015625 184.292969 " fill-opacity="1" fill-rule="nonzero"/></g><g clip-path="url(#8fd16eb224)"><g clip-path="url(#1df5c8ec91)"><g clip-path="url(#6e7279f66f)"><path fill="#38b6ff" d="M 38.21875 122.101562 L 41.183594 134.492188 C 41.246094 134.753906 41.195312 135.027344 41.042969 135.246094 L 37.816406 139.902344 C 37.605469 140.207031 37.230469 140.359375 36.863281 140.289062 C 36.496094 140.21875 36.203125 139.941406 36.117188 139.578125 L 33.347656 128.015625 L 21.554688 129.484375 C 21.183594 129.53125 20.816406 129.355469 20.621094 129.035156 C 20.425781 128.714844 20.4375 128.308594 20.648438 128.003906 L 23.875 123.351562 C 24.027344 123.128906 24.269531 122.988281 24.53125 122.953125 L 37.175781 121.378906 C 37.65625 121.320312 38.105469 121.632812 38.21875 122.101562 Z M 38.21875 122.101562 " fill-opacity="1" fill-rule="nonzero"/></g></g></g><g clip-path="url(#8c35fbef65)"><g clip-path="url(#b1e4a6265d)"><g clip-path="url(#9c339f4d88)"><path fill="#38b6ff" d="M 31.230469 132.1875 L 34.195312 144.574219 C 34.257812 144.839844 34.207031 145.109375 34.054688 145.332031 L 30.828125 149.984375 C 30.617188 150.289062 30.246094 150.441406 29.875 150.375 C 29.507812 150.300781 29.214844 150.023438 29.128906 149.660156 L 26.359375 138.101562 L 14.566406 139.566406 C 14.195312 139.613281 13.828125 139.4375 13.632812 139.117188 C 13.4375 138.796875 13.449219 138.394531 13.664062 138.085938 L 16.886719 133.433594 C 17.039062 133.214844 17.28125 133.070312 17.546875 133.035156 L 30.1875 131.460938 C 30.667969 131.402344 31.121094 131.714844 31.230469 132.1875 Z M 31.230469 132.1875 " fill-opacity="1" fill-rule="nonzero"/></g></g></g><g clip-path="url(#547341aaa7)"><g clip-path="url(#48e6b6a066)"><g clip-path="url(#91e12477d8)"><path fill="#5ce1e6" d="M 65.816406 90.09375 L 65.914062 102.832031 C 65.917969 103.101562 65.804688 103.355469 65.609375 103.535156 L 61.417969 107.34375 C 61.140625 107.59375 60.742188 107.660156 60.402344 107.507812 C 60.058594 107.355469 59.835938 107.015625 59.832031 106.644531 L 59.742188 94.757812 L 47.917969 93.53125 C 47.546875 93.492188 47.230469 93.238281 47.113281 92.882812 C 46.996094 92.523438 47.097656 92.136719 47.371094 91.886719 L 51.5625 88.078125 C 51.761719 87.898438 52.027344 87.8125 52.292969 87.835938 L 64.964844 89.152344 C 65.445312 89.203125 65.816406 89.609375 65.816406 90.09375 Z M 65.816406 90.09375 " fill-opacity="1" fill-rule="nonzero"/></g></g></g><g clip-path="url(#938b60eb53)"><g clip-path="url(#6a65cbfc04)"><g clip-path="url(#2ad0264cf3)"><path fill="#5ce1e6" d="M 56.738281 98.34375 L 56.835938 111.082031 C 56.835938 111.351562 56.726562 111.605469 56.527344 111.785156 L 52.335938 115.59375 C 52.0625 115.84375 51.664062 115.90625 51.320312 115.757812 C 50.976562 115.605469 50.753906 115.265625 50.753906 114.894531 L 50.660156 103.007812 L 38.839844 101.78125 C 38.464844 101.742188 38.148438 101.488281 38.03125 101.132812 C 37.914062 100.773438 38.015625 100.382812 38.292969 100.132812 L 42.480469 96.328125 C 42.679688 96.148438 42.945312 96.0625 43.210938 96.085938 L 55.882812 97.402344 C 56.363281 97.453125 56.734375 97.859375 56.738281 98.34375 Z M 56.738281 98.34375 " fill-opacity="1" fill-rule="nonzero"/></g></g></g><g clip-path="url(#799cbdadd1)"><g clip-path="url(#754c247221)"><g clip-path="url(#6b3c67a51c)"><path fill="#38b6ff" d="M 100.488281 72.246094 L 97.054688 84.511719 C 96.980469 84.773438 96.800781 84.988281 96.5625 85.105469 L 91.480469 87.601562 C 91.148438 87.765625 90.746094 87.71875 90.457031 87.480469 C 90.171875 87.238281 90.050781 86.851562 90.152344 86.492188 L 93.355469 75.042969 L 82.335938 70.589844 C 81.988281 70.449219 81.753906 70.121094 81.742188 69.746094 C 81.726562 69.367188 81.933594 69.023438 82.265625 68.859375 L 87.347656 66.359375 C 87.589844 66.242188 87.867188 66.234375 88.117188 66.332031 L 99.925781 71.105469 C 100.375 71.285156 100.617188 71.78125 100.488281 72.246094 Z M 100.488281 72.246094 " fill-opacity="1" fill-rule="nonzero"/></g></g></g><g clip-path="url(#1332f06473)"><g clip-path="url(#c93c791b17)"><g clip-path="url(#b8359cdf7d)"><path fill="#38b6ff" d="M 89.476562 77.65625 L 86.042969 89.925781 C 85.96875 90.183594 85.792969 90.398438 85.550781 90.515625 L 80.472656 93.015625 C 80.136719 93.179688 79.738281 93.128906 79.449219 92.890625 C 79.160156 92.648438 79.039062 92.261719 79.140625 91.902344 L 82.347656 80.457031 L 71.324219 76.003906 C 70.980469 75.863281 70.746094 75.53125 70.730469 75.15625 C 70.71875 74.78125 70.921875 74.433594 71.257812 74.269531 L 76.339844 71.773438 C 76.578125 71.65625 76.855469 71.648438 77.105469 71.742188 L 88.917969 76.515625 C 89.367188 76.699219 89.609375 77.191406 89.476562 77.65625 Z M 89.476562 77.65625 " fill-opacity="1" fill-rule="nonzero"/></g></g></g><g clip-path="url(#506dd31990)"><path fill="#38b6ff" d="M 146.195312 68.148438 L 137.703125 77.640625 C 137.519531 77.84375 137.265625 77.957031 137 77.957031 L 131.335938 77.957031 C 130.964844 77.957031 130.628906 77.738281 130.472656 77.394531 C 130.324219 77.050781 130.386719 76.652344 130.636719 76.375 L 138.558594 67.515625 L 130.636719 58.65625 C 130.386719 58.375 130.320312 57.976562 130.472656 57.632812 C 130.628906 57.289062 130.964844 57.070312 131.335938 57.070312 L 137 57.070312 C 137.265625 57.070312 137.519531 57.1875 137.703125 57.382812 L 146.195312 66.878906 C 146.515625 67.238281 146.515625 67.789062 146.195312 68.148438 Z M 146.195312 68.148438 " fill-opacity="1" fill-rule="nonzero"/></g><g clip-path="url(#5b1eddca6a)"><path fill="#38b6ff" d="M 133.925781 68.148438 L 125.433594 77.640625 C 125.25 77.84375 125 77.957031 124.730469 77.957031 L 119.070312 77.957031 C 118.695312 77.957031 118.359375 77.738281 118.207031 77.394531 C 118.054688 77.050781 118.117188 76.652344 118.367188 76.375 L 126.292969 67.515625 L 118.367188 58.65625 C 118.117188 58.375 118.054688 57.976562 118.207031 57.632812 C 118.359375 57.289062 118.695312 57.070312 119.070312 57.070312 L 124.730469 57.070312 C 125 57.070312 125.25 57.1875 125.433594 57.382812 L 133.925781 66.878906 C 134.25 67.238281 134.25 67.789062 133.925781 68.148438 Z M 133.925781 68.148438 " fill-opacity="1" fill-rule="nonzero"/></g><g clip-path="url(#045be9c0a2)"><g clip-path="url(#5915188634)"><g clip-path="url(#8d4eb85e78)"><path fill="#38b6ff" d="M 182.71875 68.148438 L 173.941406 77.382812 C 173.753906 77.578125 173.5 77.6875 173.230469 77.675781 L 167.570312 77.507812 C 167.199219 77.496094 166.871094 77.265625 166.726562 76.917969 C 166.585938 76.570312 166.660156 76.171875 166.917969 75.902344 L 175.105469 67.285156 L 167.453125 58.191406 C 167.210938 57.90625 167.160156 57.503906 167.320312 57.167969 C 167.484375 56.828125 167.828125 56.617188 168.199219 56.628906 L 173.859375 56.800781 C 174.128906 56.808594 174.378906 56.929688 174.554688 57.132812 L 182.757812 66.878906 C 183.066406 67.25 183.050781 67.800781 182.71875 68.148438 Z M 182.71875 68.148438 " fill-opacity="1" fill-rule="nonzero"/></g></g></g><g clip-path="url(#0c6d072bc5)"><g clip-path="url(#56babed563)"><g clip-path="url(#6b3095fc63)"><path fill="#38b6ff" d="M 170.457031 67.78125 L 161.679688 77.015625 C 161.492188 77.210938 161.238281 77.316406 160.96875 77.308594 L 155.308594 77.136719 C 154.9375 77.125 154.605469 76.894531 154.464844 76.550781 C 154.324219 76.203125 154.398438 75.804688 154.65625 75.535156 L 162.84375 66.917969 L 155.1875 57.824219 C 154.949219 57.539062 154.894531 57.136719 155.058594 56.796875 C 155.222656 56.460938 155.566406 56.25 155.9375 56.261719 L 161.597656 56.429688 C 161.867188 56.4375 162.113281 56.5625 162.289062 56.765625 L 170.492188 66.511719 C 170.804688 66.882812 170.789062 67.429688 170.457031 67.78125 Z M 170.457031 67.78125 " fill-opacity="1" fill-rule="nonzero"/></g></g></g><g clip-path="url(#9b641b5cf9)"><g clip-path="url(#fedbce6c0a)"><g clip-path="url(#86c0677d26)"><path fill="#38b6ff" d="M 294.371094 68.148438 L 285.59375 77.382812 C 285.40625 77.578125 285.152344 77.6875 284.882812 77.675781 L 279.222656 77.507812 C 278.851562 77.496094 278.523438 77.265625 278.378906 76.917969 C 278.238281 76.570312 278.3125 76.171875 278.570312 75.902344 L 286.757812 67.285156 L 279.105469 58.191406 C 278.863281 57.90625 278.8125 57.503906 278.972656 57.167969 C 279.136719 56.828125 279.480469 56.617188 279.851562 56.628906 L 285.511719 56.800781 C 285.78125 56.808594 286.03125 56.929688 286.207031 57.132812 L 294.410156 66.878906 C 294.71875 67.25 294.703125 67.800781 294.371094 68.148438 Z M 294.371094 68.148438 " fill-opacity="1" fill-rule="nonzero"/></g></g></g><g clip-path="url(#6b187c0bf6)"><g clip-path="url(#d5ba280c7f)"><g clip-path="url(#0b8aeac43a)"><path fill="#38b6ff" d="M 282.109375 67.78125 L 273.332031 77.015625 C 273.144531 77.210938 272.890625 77.316406 272.621094 77.308594 L 266.960938 77.136719 C 266.589844 77.125 266.257812 76.894531 266.117188 76.550781 C 265.976562 76.203125 266.050781 75.804688 266.308594 75.535156 L 274.496094 66.917969 L 266.839844 57.824219 C 266.601562 57.539062 266.546875 57.136719 266.710938 56.796875 C 266.875 56.460938 267.21875 56.25 267.589844 56.261719 L 273.25 56.429688 C 273.519531 56.4375 273.765625 56.5625 273.941406 56.765625 L 282.144531 66.511719 C 282.457031 66.882812 282.441406 67.429688 282.109375 67.78125 Z M 282.109375 67.78125 " fill-opacity="1" fill-rule="nonzero"/></g></g></g><g clip-path="url(#51348a1e0b)"><g clip-path="url(#9b11860321)"><g clip-path="url(#cbc1935e32)"><path fill="#38b6ff" d="M 257.246094 68.148438 L 248.46875 77.382812 C 248.28125 77.578125 248.027344 77.6875 247.757812 77.675781 L 242.097656 77.507812 C 241.726562 77.496094 241.398438 77.265625 241.253906 76.917969 C 241.113281 76.570312 241.1875 76.171875 241.445312 75.902344 L 249.632812 67.285156 L 241.980469 58.191406 C 241.738281 57.90625 241.6875 57.503906 241.847656 57.167969 C 242.011719 56.828125 242.355469 56.617188 242.726562 56.628906 L 248.386719 56.800781 C 248.65625 56.808594 248.90625 56.929688 249.082031 57.132812 L 257.285156 66.878906 C 257.59375 67.25 257.578125 67.800781 257.246094 68.148438 Z M 257.246094 68.148438 " fill-opacity="1" fill-rule="nonzero"/></g></g></g><g clip-path="url(#bd423c30c7)"><g clip-path="url(#99e12bc76b)"><g clip-path="url(#ecfbe90973)"><path fill="#38b6ff" d="M 244.984375 67.78125 L 236.207031 77.015625 C 236.019531 77.210938 235.765625 77.316406 235.496094 77.308594 L 229.835938 77.136719 C 229.464844 77.125 229.132812 76.894531 228.992188 76.550781 C 228.851562 76.203125 228.925781 75.804688 229.183594 75.535156 L 237.371094 66.917969 L 229.714844 57.824219 C 229.476562 57.539062 229.421875 57.136719 229.585938 56.796875 C 229.75 56.460938 230.09375 56.25 230.464844 56.261719 L 236.125 56.429688 C 236.394531 56.4375 236.640625 56.5625 236.816406 56.765625 L 245.019531 66.511719 C 245.332031 66.882812 245.316406 67.429688 244.984375 67.78125 Z M 244.984375 67.78125 " fill-opacity="1" fill-rule="nonzero"/></g></g></g><g clip-path="url(#20b231b733)"><g clip-path="url(#aa876560c8)"><g clip-path="url(#5945b93e58)"><path fill="#5ce1e6" d="M 220.730469 68.148438 L 211.953125 77.382812 C 211.765625 77.578125 211.511719 77.6875 211.242188 77.675781 L 205.582031 77.507812 C 205.210938 77.496094 204.878906 77.265625 204.738281 76.917969 C 204.597656 76.570312 204.671875 76.171875 204.929688 75.902344 L 213.117188 67.285156 L 205.460938 58.191406 C 205.222656 57.90625 205.167969 57.503906 205.332031 57.167969 C 205.496094 56.828125 205.839844 56.617188 206.210938 56.628906 L 211.871094 56.800781 C 212.140625 56.808594 212.386719 56.929688 212.5625 57.132812 L 220.765625 66.878906 C 221.078125 67.25 221.0625 67.800781 220.730469 68.148438 Z M 220.730469 68.148438 " fill-opacity="1" fill-rule="nonzero"/></g></g></g><g clip-path="url(#c7f0660513)"><g clip-path="url(#98543b0c44)"><g clip-path="url(#4c339ad655)"><path fill="#5ce1e6" d="M 208.464844 67.78125 L 199.691406 77.015625 C 199.503906 77.210938 199.246094 77.316406 198.980469 77.308594 L 193.320312 77.136719 C 192.949219 77.125 192.617188 76.894531 192.476562 76.550781 C 192.335938 76.203125 192.410156 75.804688 192.664062 75.535156 L 200.855469 66.917969 L 193.199219 57.824219 C 192.957031 57.539062 192.90625 57.136719 193.070312 56.796875 C 193.234375 56.460938 193.578125 56.25 193.949219 56.261719 L 199.609375 56.429688 C 199.875 56.4375 200.125 56.5625 200.300781 56.765625 L 208.503906 66.511719 C 208.816406 66.882812 208.800781 67.429688 208.464844 67.78125 Z M 208.464844 67.78125 " fill-opacity="1" fill-rule="nonzero"/></g></g></g></svg>