<svg xmlns="http://www.w3.org/2000/svg" xmlns:xlink="http://www.w3.org/1999/xlink" width="450" zoomAndPan="magnify" viewBox="0 0 337.5 374.999991" height="500" preserveAspectRatio="xMidYMid meet" version="1.0"><defs><clipPath id="a425e38dbb"><path d="M 0 52.777344 L 303.75 52.777344 L 303.75 323 L 0 323 Z M 0 52.777344 " clip-rule="nonzero"/></clipPath><clipPath id="a76a6907e1"><path d="M 7.917969 142.824219 C 3.136719 156.667969 0 172.40625 0 187.851562 C 0 203.296875 2.6875 218.15625 7.46875 231.855469 C 7.621094 232.144531 7.621094 232.4375 7.769531 232.730469 C 26.890625 284.164062 77.390625 322.050781 135.65625 322.777344 L 303.75 322.777344 L 303.75 52.777344 L 135.78125 52.777344 C 77.09375 53.507812 26.59375 90.808594 7.917969 142.824219 " clip-rule="nonzero"/></clipPath><clipPath id="91549a228b"><path d="M 0 52.777344 L 303.75 52.777344 L 303.75 322.777344 L 0 322.777344 Z M 0 52.777344 " clip-rule="nonzero"/></clipPath><clipPath id="39df94c2af"><path d="M 7.917969 142.824219 C 3.136719 156.667969 0 172.40625 0 187.851562 C 0 203.296875 2.6875 218.15625 7.46875 231.855469 C 7.621094 232.144531 7.621094 232.4375 7.769531 232.730469 C 26.890625 284.164062 77.390625 322.050781 135.65625 322.777344 L 303.75 322.777344 L 303.75 52.777344 L 135.78125 52.777344 C 77.09375 53.507812 26.59375 90.808594 7.917969 142.824219 " clip-rule="nonzero"/></clipPath><clipPath id="2f3bec95cd"><path d="M 34 78 L 249.75 78 L 249.75 294.019531 L 34 294.019531 Z M 34 78 " clip-rule="nonzero"/></clipPath><clipPath id="68d870d3dd"><path d="M 141.75 294.019531 C 201.398438 294.019531 249.75 245.664062 249.75 186.019531 C 249.75 126.371094 201.398438 78.019531 141.75 78.019531 C 82.101562 78.019531 33.75 126.371094 33.75 186.019531 C 33.75 245.664062 82.101562 294.019531 141.75 294.019531 " clip-rule="nonzero"/></clipPath><clipPath id="2b9481f601"><path d="M 33.75 78.019531 L 249.75 78.019531 L 249.75 294.019531 L 33.75 294.019531 Z M 33.75 78.019531 " clip-rule="nonzero"/></clipPath><clipPath id="adde3695db"><path d="M 141.75 294.019531 C 201.398438 294.019531 249.75 245.664062 249.75 186.019531 C 249.75 126.371094 201.398438 78.019531 141.75 78.019531 C 82.101562 78.019531 33.75 126.371094 33.75 186.019531 C 33.75 245.664062 82.101562 294.019531 141.75 294.019531 " clip-rule="nonzero"/></clipPath><clipPath id="5b9ba2cc1f"><path d="M 134 221 L 153 221 L 153 254 L 134 254 Z M 134 221 " clip-rule="nonzero"/></clipPath><clipPath id="43d1466d4a"><path d="M 152.382812 252.964844 L 134.21875 253.035156 L 134.09375 221.109375 L 152.257812 221.039062 Z M 152.382812 252.964844 " clip-rule="nonzero"/></clipPath><clipPath id="7cd30515b4"><path d="M 152.382812 252.964844 L 134.617188 253.03125 L 134.492188 221.304688 L 152.257812 221.234375 Z M 152.382812 252.964844 " clip-rule="nonzero"/></clipPath><clipPath id="08595d4c94"><path d="M 83 148 L 120 148 L 120 180 L 83 180 Z M 83 148 " clip-rule="nonzero"/></clipPath><clipPath id="b3eeba810d"><path d="M 119.410156 164.253906 L 110.21875 179.917969 L 82.683594 163.761719 L 91.875 148.09375 Z M 119.410156 164.253906 " clip-rule="nonzero"/></clipPath><clipPath id="102b623af4"><path d="M 119.410156 164.253906 L 110.417969 179.578125 L 83.054688 163.519531 L 92.046875 148.195312 Z M 119.410156 164.253906 " clip-rule="nonzero"/></clipPath><clipPath id="cea12b2d34"><path d="M 101 163 L 186 163 L 186 238 L 101 238 Z M 101 163 " clip-rule="nonzero"/></clipPath><clipPath id="e0eb59c07a"><path d="M 164.71875 127.300781 L 207.265625 201.113281 L 143.164062 238.0625 L 100.617188 164.25 Z M 164.71875 127.300781 " clip-rule="nonzero"/></clipPath><clipPath id="2b627ba4d2"><path d="M 185.828125 163.925781 L 143.457031 237.140625 L 101.234375 163.890625 L 185.828125 163.925781 " clip-rule="nonzero"/></clipPath><clipPath id="70d556350c"><path d="M 160 152 L 198 152 L 198 184 L 160 184 Z M 160 152 " clip-rule="nonzero"/></clipPath><clipPath id="cae1f67475"><path d="M 188.230469 152.28125 L 197.300781 168.019531 L 169.640625 183.960938 L 160.570312 168.222656 Z M 188.230469 152.28125 " clip-rule="nonzero"/></clipPath><clipPath id="43b1b15a32"><path d="M 188.230469 152.28125 L 197.101562 167.675781 L 169.613281 183.519531 L 160.742188 168.125 Z M 188.230469 152.28125 " clip-rule="nonzero"/></clipPath><clipPath id="519e2c1cde"><path d="M 182 121 L 239 121 L 239 178 L 182 178 Z M 182 121 " clip-rule="nonzero"/></clipPath><clipPath id="2bac14fe85"><path d="M 172.738281 138.636719 L 221.554688 111.976562 L 248.214844 160.792969 L 199.398438 187.453125 Z M 172.738281 138.636719 " clip-rule="nonzero"/></clipPath><clipPath id="ad9ebbf258"><path d="M 197.144531 125.308594 C 183.664062 132.667969 178.707031 149.566406 186.066406 163.046875 C 193.429688 176.527344 210.324219 181.484375 223.804688 174.125 C 237.285156 166.761719 242.246094 149.867188 234.882812 136.386719 C 227.523438 122.90625 210.625 117.945312 197.144531 125.308594 " clip-rule="nonzero"/></clipPath><clipPath id="0cb173ca17"><path d="M 182 121 L 239 121 L 239 178 L 182 178 Z M 182 121 " clip-rule="nonzero"/></clipPath><clipPath id="50e6ca51e3"><path d="M 172.738281 138.636719 L 221.445312 112.035156 L 248.046875 160.746094 L 199.339844 187.347656 Z M 172.738281 138.636719 " clip-rule="nonzero"/></clipPath><clipPath id="b40532d9aa"><path d="M 172.738281 138.636719 L 221.445312 112.035156 L 248.046875 160.746094 L 199.339844 187.347656 Z M 172.738281 138.636719 " clip-rule="nonzero"/></clipPath><clipPath id="579cd2be70"><path d="M 197.09375 125.335938 C 183.640625 132.683594 178.691406 149.539062 186.039062 162.992188 C 193.382812 176.441406 210.242188 181.390625 223.695312 174.046875 C 237.144531 166.699219 242.09375 149.839844 234.746094 136.390625 C 227.402344 122.9375 210.542969 117.988281 197.09375 125.335938 " clip-rule="nonzero"/></clipPath><clipPath id="7e435f6904"><path d="M 47 121 L 104 121 L 104 177 L 47 177 Z M 47 121 " clip-rule="nonzero"/></clipPath><clipPath id="429b3c7c55"><path d="M 65.148438 110.867188 L 113.289062 138.730469 L 85.425781 186.871094 L 37.285156 159.007812 Z M 65.148438 110.867188 " clip-rule="nonzero"/></clipPath><clipPath id="358b41ef0c"><path d="M 89.21875 124.796875 C 75.925781 117.105469 58.910156 121.644531 51.214844 134.9375 C 43.523438 148.230469 48.0625 165.246094 61.355469 172.9375 C 74.648438 180.632812 91.660156 176.09375 99.355469 162.800781 C 107.050781 149.507812 102.511719 132.492188 89.21875 124.796875 " clip-rule="nonzero"/></clipPath><clipPath id="b831aa461e"><path d="M 47 121 L 104 121 L 104 177 L 47 177 Z M 47 121 " clip-rule="nonzero"/></clipPath><clipPath id="cb1a697a29"><path d="M 65.148438 110.867188 L 113.183594 138.667969 L 85.378906 186.703125 L 37.34375 158.902344 Z M 65.148438 110.867188 " clip-rule="nonzero"/></clipPath><clipPath id="984988a563"><path d="M 65.148438 110.867188 L 113.183594 138.667969 L 85.378906 186.703125 L 37.34375 158.902344 Z M 65.148438 110.867188 " clip-rule="nonzero"/></clipPath><clipPath id="7da5bd2b7a"><path d="M 89.164062 124.769531 C 75.902344 117.089844 58.925781 121.621094 51.246094 134.882812 C 43.570312 148.148438 48.097656 165.125 61.363281 172.800781 C 74.625 180.480469 91.601562 175.949219 99.28125 162.6875 C 106.957031 149.421875 102.429688 132.445312 89.164062 124.769531 " clip-rule="nonzero"/></clipPath><clipPath id="ce7b379e89"><path d="M 115.445312 235.164062 L 171.070312 235.164062 L 171.070312 290.785156 L 115.445312 290.785156 Z M 115.445312 235.164062 " clip-rule="nonzero"/></clipPath><clipPath id="d51afdf873"><path d="M 143.257812 235.164062 C 127.898438 235.164062 115.445312 247.617188 115.445312 262.976562 C 115.445312 278.335938 127.898438 290.785156 143.257812 290.785156 C 158.617188 290.785156 171.070312 278.335938 171.070312 262.976562 C 171.070312 247.617188 158.617188 235.164062 143.257812 235.164062 " clip-rule="nonzero"/></clipPath><clipPath id="59c855e795"><path d="M 115.445312 235.164062 L 170.945312 235.164062 L 170.945312 290.664062 L 115.445312 290.664062 Z M 115.445312 235.164062 " clip-rule="nonzero"/></clipPath><clipPath id="00b333e879"><path d="M 143.195312 235.164062 C 127.871094 235.164062 115.445312 247.589844 115.445312 262.914062 C 115.445312 278.238281 127.871094 290.664062 143.195312 290.664062 C 158.523438 290.664062 170.945312 278.238281 170.945312 262.914062 C 170.945312 247.589844 158.523438 235.164062 143.195312 235.164062 " clip-rule="nonzero"/></clipPath><clipPath id="7428af49fe"><path d="M 203 142 L 218 142 L 218 157 L 203 157 Z M 203 142 " clip-rule="nonzero"/></clipPath><clipPath id="96b2c6c926"><path d="M 213.03125 140.183594 L 220.003906 152.277344 L 207.910156 159.246094 L 200.9375 147.152344 Z M 213.03125 140.183594 " clip-rule="nonzero"/></clipPath><clipPath id="7c20d4e0c0"><path d="M 216.519531 146.230469 C 214.59375 142.890625 210.324219 141.742188 206.984375 143.667969 C 203.644531 145.59375 202.5 149.859375 204.421875 153.199219 C 206.347656 156.539062 210.617188 157.6875 213.957031 155.761719 C 217.296875 153.835938 218.441406 149.570312 216.519531 146.230469 " clip-rule="nonzero"/></clipPath><clipPath id="8f1ae6305a"><path d="M 68 141 L 83 141 L 83 156 L 68 156 Z M 68 141 " clip-rule="nonzero"/></clipPath><clipPath id="cbe9608370"><path d="M 84.820312 146.320312 L 77.828125 158.402344 L 65.746094 151.410156 L 72.738281 139.328125 Z M 84.820312 146.320312 " clip-rule="nonzero"/></clipPath><clipPath id="1696a7f328"><path d="M 81.324219 152.359375 C 83.253906 149.023438 82.113281 144.753906 78.777344 142.824219 C 75.441406 140.890625 71.171875 142.03125 69.242188 145.367188 C 67.308594 148.703125 68.449219 152.972656 71.785156 154.90625 C 75.121094 156.835938 79.390625 155.695312 81.324219 152.359375 " clip-rule="nonzero"/></clipPath><clipPath id="87f5def36d"><path d="M 137 255 L 152 255 L 152 270 L 137 270 Z M 137 255 " clip-rule="nonzero"/></clipPath><clipPath id="8be31a57e2"><path d="M 146.855469 253.421875 L 153.824219 265.515625 L 141.730469 272.484375 L 134.757812 260.390625 Z M 146.855469 253.421875 " clip-rule="nonzero"/></clipPath><clipPath id="c4c833929c"><path d="M 150.339844 259.46875 C 148.414062 256.128906 144.144531 254.980469 140.804688 256.90625 C 137.46875 258.832031 136.320312 263.097656 138.246094 266.4375 C 140.171875 269.777344 144.4375 270.925781 147.777344 269 C 151.117188 267.074219 152.265625 262.808594 150.339844 259.46875 " clip-rule="nonzero"/></clipPath><clipPath id="636c43a473"><path d="M 185 197 L 208 197 L 208 242 L 185 242 Z M 185 197 " clip-rule="nonzero"/></clipPath><clipPath id="358df79e6d"><path d="M 182.625 239.5 L 202.582031 196.667969 L 214.816406 202.371094 L 194.863281 245.199219 Z M 182.625 239.5 " clip-rule="nonzero"/></clipPath><clipPath id="fb00a23728"><path d="M 202.660156 196.5 L 182.707031 239.328125 L 194.941406 245.03125 L 214.898438 202.199219 Z M 202.660156 196.5 " clip-rule="nonzero"/></clipPath><clipPath id="50c06bce1e"><path d="M 202.660156 196.5 L 182.707031 239.328125 L 194.941406 245.03125 L 214.898438 202.199219 Z M 202.660156 196.5 " clip-rule="nonzero"/></clipPath><clipPath id="edd9b8cd43"><path d="M 205 205 L 206 205 L 206 206 L 205 206 Z M 205 205 " clip-rule="nonzero"/></clipPath><clipPath id="44d035faec"><path d="M 182.625 239.5 L 202.582031 196.667969 L 214.816406 202.371094 L 194.863281 245.199219 Z M 182.625 239.5 " clip-rule="nonzero"/></clipPath><clipPath id="534752d06b"><path d="M 202.660156 196.5 L 182.707031 239.328125 L 194.941406 245.03125 L 214.898438 202.199219 Z M 202.660156 196.5 " clip-rule="nonzero"/></clipPath><clipPath id="a8f99b73a0"><path d="M 202.660156 196.5 L 182.707031 239.328125 L 194.941406 245.03125 L 214.898438 202.199219 Z M 202.660156 196.5 " clip-rule="nonzero"/></clipPath><clipPath id="3803efd406"><path d="M 72 201 L 103 201 L 103 240 L 72 240 Z M 72 201 " clip-rule="nonzero"/></clipPath><clipPath id="af69887601"><path d="M 79.414062 198.261719 L 102.949219 239.230469 L 91.242188 245.957031 L 67.707031 204.988281 Z M 79.414062 198.261719 " clip-rule="nonzero"/></clipPath><clipPath id="65cce76e35"><path d="M 103.042969 239.394531 L 79.507812 198.425781 L 67.800781 205.148438 L 91.335938 246.121094 Z M 103.042969 239.394531 " clip-rule="nonzero"/></clipPath><clipPath id="c728734ee3"><path d="M 103.042969 239.394531 L 79.507812 198.425781 L 67.800781 205.148438 L 91.335938 246.121094 Z M 103.042969 239.394531 " clip-rule="nonzero"/></clipPath><clipPath id="5cb1ab184d"><path d="M 93 236 L 95 236 L 95 237 L 93 237 Z M 93 236 " clip-rule="nonzero"/></clipPath><clipPath id="aab5a70c42"><path d="M 79.414062 198.261719 L 102.949219 239.230469 L 91.242188 245.957031 L 67.707031 204.988281 Z M 79.414062 198.261719 " clip-rule="nonzero"/></clipPath><clipPath id="d8de06a80c"><path d="M 103.042969 239.394531 L 79.507812 198.425781 L 67.800781 205.148438 L 91.335938 246.121094 Z M 103.042969 239.394531 " clip-rule="nonzero"/></clipPath><clipPath id="2eb0b7588f"><path d="M 103.042969 239.394531 L 79.507812 198.425781 L 67.800781 205.148438 L 91.335938 246.121094 Z M 103.042969 239.394531 " clip-rule="nonzero"/></clipPath><clipPath id="e3ffc86968"><path d="M 117 114 L 165 114 L 165 128 L 117 128 Z M 117 114 " clip-rule="nonzero"/></clipPath><clipPath id="b838b402f7"><path d="M 164.316406 129.605469 L 117.238281 125.59375 L 118.386719 112.140625 L 165.464844 116.15625 Z M 164.316406 129.605469 " clip-rule="nonzero"/></clipPath><clipPath id="dd1dfcb3e4"><path d="M 117.050781 125.578125 L 164.132812 129.589844 L 165.277344 116.140625 L 118.199219 112.125 Z M 117.050781 125.578125 " clip-rule="nonzero"/></clipPath><clipPath id="2b9cbc6ff9"><path d="M 117.050781 125.578125 L 164.132812 129.589844 L 165.277344 116.140625 L 118.199219 112.125 Z M 117.050781 125.578125 " clip-rule="nonzero"/></clipPath><clipPath id="30b8253b1e"><path d="M 124 119 L 125 119 L 125 121 L 124 121 Z M 124 119 " clip-rule="nonzero"/></clipPath><clipPath id="bc9f989a84"><path d="M 164.316406 129.605469 L 117.238281 125.59375 L 118.386719 112.140625 L 165.464844 116.15625 Z M 164.316406 129.605469 " clip-rule="nonzero"/></clipPath><clipPath id="1ec52916a6"><path d="M 117.050781 125.578125 L 164.132812 129.589844 L 165.277344 116.140625 L 118.199219 112.125 Z M 117.050781 125.578125 " clip-rule="nonzero"/></clipPath><clipPath id="86abb54bcc"><path d="M 117.050781 125.578125 L 164.132812 129.589844 L 165.277344 116.140625 L 118.199219 112.125 Z M 117.050781 125.578125 " clip-rule="nonzero"/></clipPath><clipPath id="3b5491edb5"><path d="M 266.625 297.128906 L 283 297.128906 L 283 318.128906 L 266.625 318.128906 Z M 266.625 297.128906 " clip-rule="nonzero"/></clipPath><clipPath id="329ae142e2"><path d="M 278 297.128906 L 294.785156 297.128906 L 294.785156 318.128906 L 278 318.128906 Z M 278 297.128906 " clip-rule="nonzero"/></clipPath><clipPath id="cb7ddcd059"><path d="M 229.5 297.128906 L 246 297.128906 L 246 318.128906 L 229.5 318.128906 Z M 229.5 297.128906 " clip-rule="nonzero"/></clipPath><clipPath id="dd460fd726"><path d="M 241 297.128906 L 257.660156 297.128906 L 257.660156 318.128906 L 241 318.128906 Z M 241 297.128906 " clip-rule="nonzero"/></clipPath><clipPath id="008c45c307"><path d="M 192.375 297.128906 L 209 297.128906 L 209 318.128906 L 192.375 318.128906 Z M 192.375 297.128906 " clip-rule="nonzero"/></clipPath><clipPath id="894c3bc80a"><path d="M 204 297.128906 L 220.535156 297.128906 L 220.535156 318.128906 L 204 318.128906 Z M 204 297.128906 " clip-rule="nonzero"/></clipPath><clipPath id="521d4ec8f1"><path d="M 155.25 297.128906 L 172 297.128906 L 172 318.128906 L 155.25 318.128906 Z M 155.25 297.128906 " clip-rule="nonzero"/></clipPath><clipPath id="c827cee4bb"><path d="M 167 297.128906 L 183.410156 297.128906 L 183.410156 318.128906 L 167 318.128906 Z M 167 297.128906 " clip-rule="nonzero"/></clipPath><clipPath id="336517f47d"><path d="M 117 297 L 135 297 L 135 319 L 117 319 Z M 117 297 " clip-rule="nonzero"/></clipPath><clipPath id="aa66fd002e"><path d="M 117.945312 297.378906 L 146.441406 296.875 L 146.8125 317.871094 L 118.316406 318.375 Z M 117.945312 297.378906 " clip-rule="nonzero"/></clipPath><clipPath id="a0af3e6614"><path d="M 146.101562 296.878906 L 117.605469 297.382812 L 117.976562 318.378906 L 146.472656 317.875 Z M 146.101562 296.878906 " clip-rule="nonzero"/></clipPath><clipPath id="f652bf73d1"><path d="M 130 296 L 147 296 L 147 318 L 130 318 Z M 130 296 " clip-rule="nonzero"/></clipPath><clipPath id="ab7f41779b"><path d="M 117.945312 297.378906 L 146.441406 296.875 L 146.8125 317.871094 L 118.316406 318.375 Z M 117.945312 297.378906 " clip-rule="nonzero"/></clipPath><clipPath id="1920a6d2be"><path d="M 146.101562 296.878906 L 117.605469 297.382812 L 117.976562 318.378906 L 146.472656 317.875 Z M 146.101562 296.878906 " clip-rule="nonzero"/></clipPath><clipPath id="8db172bd15"><path d="M 75 282 L 95 282 L 95 304 L 75 304 Z M 75 282 " clip-rule="nonzero"/></clipPath><clipPath id="6daa669f56"><path d="M 81.105469 277.734375 L 105.09375 293.121094 L 93.757812 310.796875 L 69.765625 295.410156 Z M 81.105469 277.734375 " clip-rule="nonzero"/></clipPath><clipPath id="23af310e23"><path d="M 104.808594 292.9375 L 80.816406 277.550781 L 69.480469 295.226562 L 93.46875 310.613281 Z M 104.808594 292.9375 " clip-rule="nonzero"/></clipPath><clipPath id="b2accb3b67"><path d="M 85 289 L 105 289 L 105 311 L 85 311 Z M 85 289 " clip-rule="nonzero"/></clipPath><clipPath id="f3cf592d54"><path d="M 81.105469 277.734375 L 105.09375 293.121094 L 93.757812 310.796875 L 69.765625 295.410156 Z M 81.105469 277.734375 " clip-rule="nonzero"/></clipPath><clipPath id="0764eb7066"><path d="M 104.808594 292.9375 L 80.816406 277.550781 L 69.480469 295.226562 L 93.46875 310.613281 Z M 104.808594 292.9375 " clip-rule="nonzero"/></clipPath><clipPath id="b5175ac584"><path d="M 39 261 L 60 261 L 60 282 L 39 282 Z M 39 261 " clip-rule="nonzero"/></clipPath><clipPath id="99b264b615"><path d="M 48.058594 255.742188 L 68.585938 275.511719 L 54.019531 290.636719 L 33.492188 270.867188 Z M 48.058594 255.742188 " clip-rule="nonzero"/></clipPath><clipPath id="6675ef7419"><path d="M 68.339844 275.277344 L 47.8125 255.503906 L 33.246094 270.632812 L 53.773438 290.402344 Z M 68.339844 275.277344 " clip-rule="nonzero"/></clipPath><clipPath id="12c8e6b807"><path d="M 48 270 L 68 270 L 68 290 L 48 290 Z M 48 270 " clip-rule="nonzero"/></clipPath><clipPath id="373827a11f"><path d="M 48.058594 255.742188 L 68.585938 275.511719 L 54.019531 290.636719 L 33.492188 270.867188 Z M 48.058594 255.742188 " clip-rule="nonzero"/></clipPath><clipPath id="591ba992c7"><path d="M 68.339844 275.277344 L 47.8125 255.503906 L 33.246094 270.632812 L 53.773438 290.402344 Z M 68.339844 275.277344 " clip-rule="nonzero"/></clipPath><clipPath id="9b6e7acd71"><path d="M 17 226 L 39 226 L 39 245 L 17 245 Z M 17 226 " clip-rule="nonzero"/></clipPath><clipPath id="ec18d08875"><path d="M 31.21875 221.023438 L 45.539062 245.664062 L 27.386719 256.21875 L 13.0625 231.578125 Z M 31.21875 221.023438 " clip-rule="nonzero"/></clipPath><clipPath id="f39d872a6e"><path d="M 45.371094 245.371094 L 31.046875 220.730469 L 12.890625 231.285156 L 27.214844 255.925781 Z M 45.371094 245.371094 " clip-rule="nonzero"/></clipPath><clipPath id="699896f815"><path d="M 23 236 L 45 236 L 45 256 L 23 256 Z M 23 236 " clip-rule="nonzero"/></clipPath><clipPath id="58aaeb8bb1"><path d="M 31.21875 221.023438 L 45.539062 245.664062 L 27.386719 256.21875 L 13.0625 231.578125 Z M 31.21875 221.023438 " clip-rule="nonzero"/></clipPath><clipPath id="1f2d16318e"><path d="M 45.371094 245.371094 L 31.046875 220.730469 L 12.890625 231.285156 L 27.214844 255.925781 Z M 45.371094 245.371094 " clip-rule="nonzero"/></clipPath><clipPath id="e0b40be4e9"><path d="M 8.878906 171.9375 L 29.878906 171.9375 L 29.878906 188 L 8.878906 188 Z M 8.878906 171.9375 " clip-rule="nonzero"/></clipPath><clipPath id="7f26d5bf98"><path d="M 8.878906 184 L 29.878906 184 L 29.878906 200.097656 L 8.878906 200.097656 Z M 8.878906 184 " clip-rule="nonzero"/></clipPath><clipPath id="47a6750ba0"><path d="M 20 121 L 42 121 L 42 141 L 20 141 Z M 20 121 " clip-rule="nonzero"/></clipPath><clipPath id="6c61376761"><path d="M 46.378906 127.648438 L 30.144531 151.074219 L 12.882812 139.109375 L 29.117188 115.6875 Z M 46.378906 127.648438 " clip-rule="nonzero"/></clipPath><clipPath id="fba0813176"><path d="M 30.339844 150.792969 L 46.574219 127.367188 L 29.3125 115.40625 L 13.078125 138.832031 Z M 30.339844 150.792969 " clip-rule="nonzero"/></clipPath><clipPath id="15f4a8a3f2"><path d="M 13 131 L 35 131 L 35 151 L 13 151 Z M 13 131 " clip-rule="nonzero"/></clipPath><clipPath id="5502846b77"><path d="M 46.378906 127.648438 L 30.144531 151.074219 L 12.882812 139.109375 L 29.117188 115.6875 Z M 46.378906 127.648438 " clip-rule="nonzero"/></clipPath><clipPath id="9321e11da4"><path d="M 30.339844 150.792969 L 46.574219 127.367188 L 29.3125 115.40625 L 13.078125 138.832031 Z M 30.339844 150.792969 " clip-rule="nonzero"/></clipPath><clipPath id="940ac375a5"><path d="M 47 87 L 66 87 L 66 108 L 47 108 Z M 47 87 " clip-rule="nonzero"/></clipPath><clipPath id="6085f1046f"><path d="M 72.519531 97.332031 L 51.425781 116.5 L 37.304688 100.957031 L 58.398438 81.789062 Z M 72.519531 97.332031 " clip-rule="nonzero"/></clipPath><clipPath id="996f650e3a"><path d="M 51.675781 116.269531 L 72.769531 97.105469 L 58.648438 81.5625 L 37.554688 100.726562 Z M 51.675781 116.269531 " clip-rule="nonzero"/></clipPath><clipPath id="b9ba56dabd"><path d="M 37 96 L 57 96 L 57 116 L 37 116 Z M 37 96 " clip-rule="nonzero"/></clipPath><clipPath id="2303e0ec66"><path d="M 72.519531 97.332031 L 51.425781 116.5 L 37.304688 100.957031 L 58.398438 81.789062 Z M 72.519531 97.332031 " clip-rule="nonzero"/></clipPath><clipPath id="a813ee7a2c"><path d="M 51.675781 116.269531 L 72.769531 97.105469 L 58.648438 81.5625 L 37.554688 100.726562 Z M 51.675781 116.269531 " clip-rule="nonzero"/></clipPath><clipPath id="b81be7c275"><path d="M 81 66 L 101 66 L 101 88 L 81 88 Z M 81 66 " clip-rule="nonzero"/></clipPath><clipPath id="f2f4690be7"><path d="M 104.921875 81.058594 L 79.34375 93.632812 L 70.078125 74.785156 L 95.65625 62.214844 Z M 104.921875 81.058594 " clip-rule="nonzero"/></clipPath><clipPath id="26d6c71d5e"><path d="M 79.648438 93.480469 L 105.226562 80.910156 L 95.960938 62.0625 L 70.382812 74.636719 Z M 79.648438 93.480469 " clip-rule="nonzero"/></clipPath><clipPath id="e38e0f54c7"><path d="M 70 71 L 90 71 L 90 94 L 70 94 Z M 70 71 " clip-rule="nonzero"/></clipPath><clipPath id="938dbab17f"><path d="M 104.921875 81.058594 L 79.34375 93.632812 L 70.078125 74.785156 L 95.65625 62.214844 Z M 104.921875 81.058594 " clip-rule="nonzero"/></clipPath><clipPath id="6ccdcfb9a4"><path d="M 79.648438 93.480469 L 105.226562 80.910156 L 95.960938 62.0625 L 70.382812 74.636719 Z M 79.648438 93.480469 " clip-rule="nonzero"/></clipPath><clipPath id="7addfa8667"><path d="M 130 57.015625 L 146.285156 57.015625 L 146.285156 78 L 130 78 Z M 130 57.015625 " clip-rule="nonzero"/></clipPath><clipPath id="3061ec92cb"><path d="M 118.125 57.015625 L 135 57.015625 L 135 78 L 118.125 78 Z M 118.125 57.015625 " clip-rule="nonzero"/></clipPath><clipPath id="7ae3a5c2f7"><path d="M 166 56 L 183 56 L 183 78 L 166 78 Z M 166 56 " clip-rule="nonzero"/></clipPath><clipPath id="2a606ad0a5"><path d="M 182.511719 78.011719 L 154.023438 77.15625 L 154.65625 56.164062 L 183.144531 57.023438 Z M 182.511719 78.011719 " clip-rule="nonzero"/></clipPath><clipPath id="406404867f"><path d="M 154.363281 77.164062 L 182.851562 78.023438 L 183.484375 57.035156 L 154.996094 56.175781 Z M 154.363281 77.164062 " clip-rule="nonzero"/></clipPath><clipPath id="44af890420"><path d="M 154 56 L 171 56 L 171 78 L 154 78 Z M 154 56 " clip-rule="nonzero"/></clipPath><clipPath id="57c5b92857"><path d="M 182.511719 78.011719 L 154.023438 77.15625 L 154.65625 56.164062 L 183.144531 57.023438 Z M 182.511719 78.011719 " clip-rule="nonzero"/></clipPath><clipPath id="37d0d3a245"><path d="M 154.363281 77.164062 L 182.851562 78.023438 L 183.484375 57.035156 L 154.996094 56.175781 Z M 154.363281 77.164062 " clip-rule="nonzero"/></clipPath><clipPath id="015deb8dff"><path d="M 278 56 L 295 56 L 295 78 L 278 78 Z M 278 56 " clip-rule="nonzero"/></clipPath><clipPath id="88963b874b"><path d="M 294.164062 78.011719 L 265.675781 77.15625 L 266.308594 56.164062 L 294.796875 57.023438 Z M 294.164062 78.011719 " clip-rule="nonzero"/></clipPath><clipPath id="e807988a8f"><path d="M 266.015625 77.164062 L 294.503906 78.023438 L 295.136719 57.035156 L 266.648438 56.175781 Z M 266.015625 77.164062 " clip-rule="nonzero"/></clipPath><clipPath id="250310fff5"><path d="M 266 56 L 283 56 L 283 78 L 266 78 Z M 266 56 " clip-rule="nonzero"/></clipPath><clipPath id="25d1cd4794"><path d="M 294.164062 78.011719 L 265.675781 77.15625 L 266.308594 56.164062 L 294.796875 57.023438 Z M 294.164062 78.011719 " clip-rule="nonzero"/></clipPath><clipPath id="2904d60409"><path d="M 266.015625 77.164062 L 294.503906 78.023438 L 295.136719 57.035156 L 266.648438 56.175781 Z M 266.015625 77.164062 " clip-rule="nonzero"/></clipPath><clipPath id="ac79d54f61"><path d="M 241 56 L 258 56 L 258 78 L 241 78 Z M 241 56 " clip-rule="nonzero"/></clipPath><clipPath id="d04a718b16"><path d="M 257.039062 78.011719 L 228.550781 77.15625 L 229.183594 56.164062 L 257.671875 57.023438 Z M 257.039062 78.011719 " clip-rule="nonzero"/></clipPath><clipPath id="625c58092b"><path d="M 228.890625 77.164062 L 257.378906 78.023438 L 258.011719 57.035156 L 229.523438 56.175781 Z M 228.890625 77.164062 " clip-rule="nonzero"/></clipPath><clipPath id="44521511ef"><path d="M 228 56 L 246 56 L 246 78 L 228 78 Z M 228 56 " clip-rule="nonzero"/></clipPath><clipPath id="4d7a2fc937"><path d="M 257.039062 78.011719 L 228.550781 77.15625 L 229.183594 56.164062 L 257.671875 57.023438 Z M 257.039062 78.011719 " clip-rule="nonzero"/></clipPath><clipPath id="88d43b62d2"><path d="M 228.890625 77.164062 L 257.378906 78.023438 L 258.011719 57.035156 L 229.523438 56.175781 Z M 228.890625 77.164062 " clip-rule="nonzero"/></clipPath><clipPath id="5f215ae88a"><path d="M 204 56 L 221 56 L 221 78 L 204 78 Z M 204 56 " clip-rule="nonzero"/></clipPath><clipPath id="4fd5a86865"><path d="M 220.523438 78.011719 L 192.035156 77.15625 L 192.667969 56.164062 L 221.15625 57.023438 Z M 220.523438 78.011719 " clip-rule="nonzero"/></clipPath><clipPath id="06a303afc5"><path d="M 192.375 77.164062 L 220.863281 78.023438 L 221.496094 57.035156 L 193.007812 56.175781 Z M 192.375 77.164062 " clip-rule="nonzero"/></clipPath><clipPath id="ab1814c61b"><path d="M 192 56 L 209 56 L 209 78 L 192 78 Z M 192 56 " clip-rule="nonzero"/></clipPath><clipPath id="d0c61efb41"><path d="M 220.523438 78.011719 L 192.035156 77.15625 L 192.667969 56.164062 L 221.15625 57.023438 Z M 220.523438 78.011719 " clip-rule="nonzero"/></clipPath><clipPath id="bf46bc734b"><path d="M 192.375 77.164062 L 220.863281 78.023438 L 221.496094 57.035156 L 193.007812 56.175781 Z M 192.375 77.164062 " clip-rule="nonzero"/></clipPath></defs><g clip-path="url(#a425e38dbb)"><g clip-path="url(#a76a6907e1)"><path fill="#919191" d="M 303.75 52.777344 L 303.75 323.039062 L -0.132812 323.039062 L -0.132812 52.777344 Z M 303.75 52.777344 " fill-opacity="1" fill-rule="nonzero"/></g></g><g clip-path="url(#91549a228b)"><g clip-path="url(#39df94c2af)"><path stroke-linecap="butt" transform="matrix(0.000000000000000046, 0.75, -0.75, 0.000000000000000046, 303.749959, 52.777335)" fill="none" stroke-linejoin="miter" d="M 120.062517 394.442673 C 138.520852 400.817674 159.505228 404.999965 180.098979 404.999965 C 200.69273 404.999965 220.505231 401.416632 238.770857 395.041632 C 239.156274 394.838507 239.546899 394.838507 239.937524 394.64059 C 308.515652 369.145797 359.03128 301.81246 360.00003 224.124956 L 360.00003 -0.0000552182 L 0.0000113526 -0.0000552182 L 0.0000113526 223.95829 C 0.97397 302.208294 50.708347 369.54163 120.062517 394.442673 " stroke="#000000" stroke-width="4" stroke-opacity="1" stroke-miterlimit="4"/></g></g><g clip-path="url(#2f3bec95cd)"><g clip-path="url(#68d870d3dd)"><path fill="#707070" d="M 249.75 294.019531 L 34.015625 294.019531 L 34.015625 78.28125 L 249.75 78.28125 Z M 249.75 294.019531 " fill-opacity="1" fill-rule="nonzero"/></g></g><g clip-path="url(#2b9481f601)"><g clip-path="url(#adde3695db)"><path stroke-linecap="butt" transform="matrix(-0.75, -0.000000000000000092, 0.000000000000000092, -0.75, 249.749981, 294.018312)" fill="none" stroke-linejoin="miter" d="M 143.999991 -0.00162576 C 64.468732 -0.00162576 -0.000025591 64.47234 -0.000025591 143.998391 C -0.000025591 223.52965 64.468732 287.998407 143.999991 287.998407 C 223.53125 287.998407 288.000008 223.52965 288.000008 143.998391 C 288.000008 64.47234 223.53125 -0.00162576 143.999991 -0.00162576 " stroke="#000000" stroke-width="8" stroke-opacity="1" stroke-miterlimit="4"/></g></g><g clip-path="url(#5b9ba2cc1f)"><g clip-path="url(#43d1466d4a)"><g clip-path="url(#7cd30515b4)"><path fill="#ffde59" d="M 152.382812 252.964844 L 134.769531 253.03125 L 134.644531 221.109375 L 152.257812 221.039062 Z M 152.382812 252.964844 " fill-opacity="1" fill-rule="nonzero"/></g></g></g><g clip-path="url(#08595d4c94)"><g clip-path="url(#b3eeba810d)"><g clip-path="url(#102b623af4)"><path fill="#ffde59" d="M 119.410156 164.253906 L 110.496094 179.445312 L 82.960938 163.285156 L 91.875 148.09375 Z M 119.410156 164.253906 " fill-opacity="1" fill-rule="nonzero"/></g></g></g><g clip-path="url(#cea12b2d34)"><g clip-path="url(#e0eb59c07a)"><g clip-path="url(#2b627ba4d2)"><path fill="#ffde59" d="M 164.71875 127.300781 L 206.890625 200.464844 L 143.4375 237.042969 L 101.261719 163.875 Z M 164.71875 127.300781 " fill-opacity="1" fill-rule="nonzero"/></g></g></g><g clip-path="url(#70d556350c)"><g clip-path="url(#cae1f67475)"><g clip-path="url(#43b1b15a32)"><path fill="#ffde59" d="M 188.230469 152.28125 L 197.023438 167.542969 L 169.367188 183.484375 L 160.570312 168.222656 Z M 188.230469 152.28125 " fill-opacity="1" fill-rule="nonzero"/></g></g></g><g clip-path="url(#519e2c1cde)"><g clip-path="url(#2bac14fe85)"><g clip-path="url(#ad9ebbf258)"><path fill="#ffde59" d="M 172.738281 138.636719 L 221.554688 111.976562 L 248.214844 160.792969 L 199.398438 187.453125 Z M 172.738281 138.636719 " fill-opacity="1" fill-rule="nonzero"/></g></g></g><g clip-path="url(#0cb173ca17)"><g clip-path="url(#50e6ca51e3)"><g clip-path="url(#b40532d9aa)"><g clip-path="url(#579cd2be70)"><path fill="#000000" d="M 198.527344 127.964844 C 193.652344 130.625 190.082031 134.480469 187.8125 139.535156 L 182.351562 137.082031 C 185.167969 130.804688 189.605469 126.015625 195.65625 122.707031 Z M 186.851562 142.027344 C 185.132812 147.3125 185.179688 152.5625 186.992188 157.78125 L 181.335938 159.746094 C 179.082031 153.261719 179.023438 146.738281 181.160156 140.175781 Z M 188 160.25 C 188.210938 160.691406 188.429688 161.125 188.664062 161.554688 C 191.074219 165.96875 194.5 169.328125 198.9375 171.640625 L 196.171875 176.949219 C 190.65625 174.078125 186.402344 169.90625 183.410156 164.425781 C 183.121094 163.894531 182.847656 163.355469 182.589844 162.808594 Z M 201.375 172.746094 C 206.554688 174.769531 211.800781 175.027344 217.117188 173.523438 L 218.746094 179.285156 C 212.140625 181.15625 205.625 180.835938 199.195312 178.324219 Z M 219.628906 172.664062 C 220.527344 172.300781 221.402344 171.886719 222.257812 171.417969 C 226.21875 169.257812 229.34375 166.25 231.640625 162.402344 L 236.785156 165.46875 C 233.929688 170.253906 230.042969 173.988281 225.128906 176.671875 C 224.070312 177.25 222.984375 177.765625 221.871094 178.214844 Z M 232.886719 160.039062 C 235.203125 154.988281 235.769531 149.765625 234.578125 144.371094 L 240.425781 143.082031 C 241.902344 149.785156 241.203125 156.269531 238.328125 162.535156 Z M 233.863281 141.796875 C 233.398438 140.429688 232.820312 139.105469 232.121094 137.824219 C 230.203125 134.3125 227.601562 131.445312 224.320312 129.214844 L 227.683594 124.261719 C 231.765625 127.03125 234.996094 130.597656 237.375 134.957031 C 238.242188 136.539062 238.960938 138.179688 239.535156 139.878906 Z M 222.035156 127.839844 C 217.128906 125.230469 211.945312 124.363281 206.488281 125.238281 L 205.542969 119.324219 C 212.324219 118.242188 218.757812 119.316406 224.84375 122.550781 Z M 203.875 125.800781 C 202.015625 126.308594 200.234375 127.03125 198.527344 127.964844 L 195.65625 122.707031 C 197.773438 121.550781 199.984375 120.660156 202.292969 120.027344 Z M 203.875 125.800781 " fill-opacity="1" fill-rule="nonzero"/></g></g></g></g><g clip-path="url(#7e435f6904)"><g clip-path="url(#429b3c7c55)"><g clip-path="url(#358b41ef0c)"><path fill="#ffde59" d="M 65.148438 110.867188 L 113.289062 138.730469 L 85.425781 186.871094 L 37.285156 159.007812 Z M 65.148438 110.867188 " fill-opacity="1" fill-rule="nonzero"/></g></g></g><g clip-path="url(#b831aa461e)"><g clip-path="url(#cb1a697a29)"><g clip-path="url(#984988a563)"><g clip-path="url(#7da5bd2b7a)"><path fill="#000000" d="M 87.664062 127.359375 C 82.859375 124.578125 77.707031 123.527344 72.214844 124.214844 L 71.46875 118.273438 C 78.296875 117.421875 84.695312 118.722656 90.664062 122.175781 Z M 69.582031 124.691406 C 64.171875 125.964844 59.710938 128.734375 56.195312 132.992188 L 51.578125 129.179688 C 55.949219 123.886719 61.492188 120.449219 68.207031 118.863281 Z M 54.609375 135.136719 C 54.339844 135.542969 54.082031 135.960938 53.835938 136.382812 C 51.320312 140.734375 50.226562 145.40625 50.558594 150.398438 L 44.582031 150.792969 C 44.171875 144.589844 45.527344 138.785156 48.65625 133.382812 C 48.960938 132.859375 49.277344 132.347656 49.609375 131.839844 Z M 50.878906 153.054688 C 51.839844 158.53125 54.34375 163.152344 58.390625 166.910156 L 54.316406 171.296875 C 49.289062 166.625 46.175781 160.890625 44.980469 154.089844 Z M 60.433594 168.609375 C 61.207031 169.1875 62.019531 169.722656 62.863281 170.210938 C 66.765625 172.472656 70.957031 173.582031 75.441406 173.546875 L 75.488281 179.53125 C 69.917969 179.578125 64.710938 178.199219 59.863281 175.394531 C 58.816406 174.789062 57.8125 174.128906 56.851562 173.410156 Z M 78.105469 173.378906 C 83.625 172.738281 88.382812 170.507812 92.371094 166.6875 L 96.511719 171.015625 C 91.550781 175.757812 85.648438 178.527344 78.796875 179.328125 Z M 94.203125 164.738281 C 95.128906 163.632812 95.960938 162.449219 96.691406 161.1875 C 98.695312 157.726562 99.792969 154.011719 99.992188 150.046875 L 105.972656 150.347656 C 105.726562 155.277344 104.359375 159.890625 101.871094 164.1875 C 100.96875 165.75 99.9375 167.214844 98.785156 168.589844 Z M 99.984375 147.378906 C 99.664062 141.835938 97.710938 136.957031 94.128906 132.746094 L 98.691406 128.867188 C 103.140625 134.097656 105.5625 140.152344 105.960938 147.035156 Z M 92.289062 130.804688 C 90.890625 129.480469 89.347656 128.332031 87.664062 127.359375 L 90.664062 122.175781 C 92.75 123.386719 94.664062 124.808594 96.402344 126.453125 Z M 92.289062 130.804688 " fill-opacity="1" fill-rule="nonzero"/></g></g></g></g><g clip-path="url(#ce7b379e89)"><g clip-path="url(#d51afdf873)"><path fill="#ffde59" d="M 115.445312 235.164062 L 171.070312 235.164062 L 171.070312 290.785156 L 115.445312 290.785156 Z M 115.445312 235.164062 " fill-opacity="1" fill-rule="nonzero"/></g></g><g clip-path="url(#59c855e795)"><g clip-path="url(#00b333e879)"><path fill="#000000" d="M 143.195312 238.15625 C 137.640625 238.15625 132.660156 239.832031 128.25 243.179688 L 124.628906 238.40625 C 130.109375 234.25 136.300781 232.171875 143.195312 232.171875 Z M 126.207031 244.90625 C 122.167969 248.71875 119.691406 253.351562 118.78125 258.796875 L 112.875 257.8125 C 114.007812 251.039062 117.082031 245.289062 122.097656 240.550781 Z M 118.484375 261.449219 C 118.453125 261.9375 118.441406 262.425781 118.441406 262.914062 C 118.441406 267.941406 119.832031 272.53125 122.621094 276.6875 L 117.648438 280.023438 C 114.183594 274.859375 112.453125 269.15625 112.453125 262.914062 C 112.453125 262.308594 112.46875 261.703125 112.503906 261.101562 Z M 124.230469 278.824219 C 127.804688 283.082031 132.289062 285.828125 137.675781 287.054688 L 136.34375 292.890625 C 129.652344 291.367188 124.085938 287.960938 119.644531 282.675781 Z M 140.292969 287.503906 C 141.253906 287.613281 142.222656 287.671875 143.195312 287.671875 C 147.707031 287.671875 151.890625 286.53125 155.753906 284.253906 L 158.796875 289.410156 C 153.996094 292.242188 148.796875 293.65625 143.195312 293.65625 C 141.988281 293.65625 140.789062 293.589844 139.597656 293.449219 Z M 157.976562 282.777344 C 162.433594 279.453125 165.429688 275.140625 166.972656 269.839844 L 172.722656 271.511719 C 170.804688 278.097656 167.082031 283.453125 161.554688 287.578125 Z M 167.578125 267.234375 C 167.828125 265.8125 167.953125 264.371094 167.953125 262.914062 C 167.953125 258.914062 167.046875 255.148438 165.234375 251.617188 L 170.558594 248.882812 C 172.8125 253.273438 173.941406 257.949219 173.941406 262.914062 C 173.941406 264.71875 173.785156 266.503906 173.476562 268.269531 Z M 163.886719 249.316406 C 160.832031 244.675781 156.699219 241.433594 151.488281 239.582031 L 153.496094 233.9375 C 159.964844 236.238281 165.09375 240.265625 168.886719 246.019531 Z M 148.925781 238.824219 C 147.050781 238.378906 145.140625 238.15625 143.195312 238.15625 L 143.195312 232.171875 C 145.609375 232.171875 147.976562 232.445312 150.304688 232.996094 Z M 148.925781 238.824219 " fill-opacity="1" fill-rule="nonzero"/></g></g><g clip-path="url(#7428af49fe)"><g clip-path="url(#96b2c6c926)"><g clip-path="url(#7c20d4e0c0)"><path fill="#707070" d="M 213.03125 140.183594 L 220.003906 152.277344 L 207.910156 159.246094 L 200.9375 147.152344 Z M 213.03125 140.183594 " fill-opacity="1" fill-rule="nonzero"/></g></g></g><g clip-path="url(#8f1ae6305a)"><g clip-path="url(#cbe9608370)"><g clip-path="url(#1696a7f328)"><path fill="#707070" d="M 84.820312 146.320312 L 77.828125 158.402344 L 65.746094 151.410156 L 72.738281 139.328125 Z M 84.820312 146.320312 " fill-opacity="1" fill-rule="nonzero"/></g></g></g><g clip-path="url(#87f5def36d)"><g clip-path="url(#8be31a57e2)"><g clip-path="url(#c4c833929c)"><path fill="#707070" d="M 146.855469 253.421875 L 153.824219 265.515625 L 141.730469 272.484375 L 134.757812 260.390625 Z M 146.855469 253.421875 " fill-opacity="1" fill-rule="nonzero"/></g></g></g><g clip-path="url(#636c43a473)"><g clip-path="url(#358df79e6d)"><g clip-path="url(#fb00a23728)"><g clip-path="url(#50c06bce1e)"><path fill="#ffffff" d="M 202.695312 197.355469 C 202.734375 197.347656 202.769531 197.359375 202.800781 197.390625 C 202.9375 197.351562 202.953125 197.117188 203.152344 197.171875 C 203.578125 197.015625 203.824219 197.265625 204.035156 197.574219 C 204.632812 198.4375 205.078125 199.378906 205.460938 200.347656 C 206.839844 203.816406 207.429688 207.40625 207.382812 211.132812 C 207.300781 217.632812 205.054688 223.335938 201.222656 228.46875 C 199.445312 230.851562 197.28125 232.875 195.019531 234.796875 C 193.691406 235.929688 192.296875 236.976562 190.929688 238.054688 C 190.863281 238.074219 190.796875 238.089844 190.730469 238.105469 C 190.695312 238.175781 190.632812 238.242188 190.632812 238.308594 C 190.632812 238.308594 190.632812 238.308594 190.632812 238.3125 C 190.632812 238.367188 190.710938 238.367188 190.761719 238.328125 C 191.449219 238.316406 192.113281 238.160156 192.765625 237.96875 C 193.214844 237.835938 193.65625 237.742188 194.125 237.78125 C 195.085938 237.492188 195.824219 237.8125 196.203125 238.644531 C 194.765625 240.019531 192.9375 240.417969 191.046875 240.671875 C 190.34375 240.765625 189.648438 240.90625 188.949219 241.035156 C 187.28125 241.351562 187.503906 241.210938 186.582031 240.179688 C 186.375 239.949219 186.226562 239.671875 186.105469 239.386719 C 186.0625 239.28125 186.03125 239.179688 186.082031 239.070312 C 185.863281 238.792969 185.984375 238.527344 186.113281 238.269531 C 186.5 237.511719 186.898438 236.757812 187.292969 236.003906 C 187.28125 235.800781 187.386719 235.644531 187.5 235.492188 C 187.476562 235.289062 187.585938 235.132812 187.6875 234.976562 C 187.648438 234.835938 187.738281 234.722656 187.777344 234.601562 C 188.285156 232.929688 188.59375 231.222656 188.609375 229.46875 C 188.609375 229.335938 188.625 229.203125 188.628906 229.070312 C 188.636719 228.914062 188.644531 228.738281 188.816406 228.691406 C 188.949219 228.65625 189.109375 228.757812 189.15625 228.863281 C 189.363281 229.335938 189.824219 229.605469 190.0625 230.042969 C 190.171875 230.238281 190.1875 230.457031 190.203125 230.683594 C 190.324219 232.414062 190.128906 234.117188 189.761719 235.804688 C 189.730469 235.953125 189.671875 236.101562 189.671875 236.253906 C 189.671875 236.433594 189.816406 236.449219 189.960938 236.429688 C 190.015625 236.261719 190.132812 236.179688 190.304688 236.171875 C 190.382812 236.027344 190.472656 235.894531 190.664062 235.894531 C 190.664062 235.847656 190.683594 235.832031 190.730469 235.835938 C 190.800781 235.699219 190.890625 235.582031 191.066406 235.570312 C 191.136719 235.488281 191.195312 235.394531 191.277344 235.324219 C 192.183594 234.5625 193.101562 233.8125 194 233.039062 C 194.816406 232.335938 195.605469 231.609375 196.40625 230.890625 C 196.597656 230.675781 196.773438 230.457031 196.96875 230.25 C 198.859375 228.234375 200.476562 226.019531 201.75 223.566406 C 202.207031 222.691406 202.632812 221.800781 203.074219 220.917969 C 203.054688 220.703125 203.175781 220.546875 203.292969 220.386719 C 203.269531 220.183594 203.382812 220.03125 203.492188 219.878906 C 203.457031 219.6875 203.574219 219.546875 203.664062 219.398438 C 203.628906 219.273438 203.679688 219.175781 203.765625 219.089844 C 203.757812 219.042969 203.769531 219.007812 203.8125 218.980469 C 203.777344 218.839844 203.863281 218.730469 203.898438 218.605469 C 204.0625 217.996094 204.335938 217.417969 204.425781 216.789062 C 204.496094 216.761719 204.59375 216.609375 204.585938 216.847656 C 204.582031 217.007812 204.621094 217.035156 204.667969 217.015625 C 204.714844 216.996094 204.769531 216.941406 204.8125 216.90625 C 205.273438 214.964844 205.492188 212.988281 205.578125 210.996094 C 205.570312 210.808594 205.5625 210.621094 205.550781 210.4375 C 205.496094 209.328125 205.441406 208.214844 205.390625 207.105469 C 205.359375 207.070312 205.34375 207.035156 205.347656 206.996094 C 205.347656 206.96875 205.351562 206.941406 205.367188 206.914062 C 205.316406 206.859375 205.308594 206.796875 205.34375 206.730469 C 205.292969 206.671875 205.285156 206.609375 205.320312 206.542969 C 205.265625 206.488281 205.261719 206.425781 205.296875 206.355469 C 205.242188 206.300781 205.230469 206.238281 205.269531 206.171875 C 205.214844 206.113281 205.203125 206.054688 205.242188 205.984375 C 205.1875 205.929688 205.175781 205.867188 205.210938 205.800781 L 205.210938 205.796875 C 205.199219 205.738281 205.1875 205.679688 205.179688 205.617188 L 205.179688 205.613281 C 205.125 205.558594 205.113281 205.5 205.148438 205.429688 L 205.148438 205.425781 C 205.09375 205.371094 205.082031 205.3125 205.117188 205.246094 L 205.117188 205.238281 C 205.117188 205.238281 205.117188 205.234375 205.117188 205.234375 C 205.117188 205.234375 205.117188 205.238281 205.117188 205.238281 C 205.058594 205.1875 205.046875 205.125 205.082031 205.058594 L 205.082031 205.054688 C 205.027344 205 205.015625 204.941406 205.050781 204.871094 C 204.992188 204.816406 204.980469 204.753906 205.015625 204.6875 C 204.871094 204.125 204.726562 203.566406 204.585938 203.007812 C 204.601562 202.691406 204.472656 202.410156 204.382812 202.117188 C 204.347656 202.113281 204.3125 202.113281 204.28125 202.121094 C 204.234375 202.132812 204.195312 202.15625 204.160156 202.195312 C 204.066406 201.984375 203.960938 201.777344 203.972656 201.539062 C 203.984375 201.464844 203.984375 201.394531 203.953125 201.324219 C 203.960938 201.394531 203.96875 201.464844 203.972656 201.539062 C 203.929688 201.476562 203.898438 201.414062 203.941406 201.34375 C 203.847656 201.273438 203.816406 201.179688 203.820312 201.066406 C 203.757812 201.027344 203.734375 200.972656 203.761719 200.898438 C 203.710938 200.839844 203.679688 200.777344 203.707031 200.699219 C 203.679688 200.675781 203.660156 200.644531 203.660156 200.605469 C 203.535156 200.414062 203.457031 200.207031 203.429688 199.980469 C 203.347656 199.839844 203.261719 199.703125 203.257812 199.535156 C 203.175781 199.464844 203.160156 199.363281 203.136719 199.265625 C 202.816406 198.714844 202.597656 198.109375 202.152344 197.59375 C 202.382812 197.535156 202.460938 197.289062 202.695312 197.355469 Z M 190.839844 235.914062 C 190.839844 235.910156 190.839844 235.910156 190.839844 235.910156 C 190.839844 235.910156 190.839844 235.914062 190.839844 235.914062 C 190.839844 235.910156 190.839844 235.910156 190.839844 235.910156 C 190.839844 235.910156 190.835938 235.910156 190.835938 235.90625 C 190.835938 235.910156 190.835938 235.910156 190.839844 235.914062 Z M 205.453125 205.027344 C 205.457031 205.042969 205.460938 205.054688 205.46875 205.070312 C 205.46875 205.066406 205.46875 205.0625 205.46875 205.058594 C 205.464844 205.046875 205.464844 205.035156 205.460938 205.019531 C 205.460938 205.023438 205.457031 205.023438 205.453125 205.027344 Z M 205.394531 207.097656 C 205.394531 207.097656 205.398438 207.09375 205.398438 207.097656 C 205.402344 207.09375 205.410156 207.09375 205.414062 207.09375 L 205.429688 207.085938 L 205.398438 207.09375 C 205.394531 207.09375 205.394531 207.09375 205.394531 207.09375 C 205.394531 207.09375 205.394531 207.09375 205.394531 207.097656 Z M 205.5 204.980469 C 205.488281 204.992188 205.472656 205.007812 205.460938 205.019531 C 205.464844 205.03125 205.46875 205.042969 205.46875 205.054688 C 205.46875 205.027344 205.476562 205.003906 205.5 204.980469 Z M 205.488281 205.140625 C 205.488281 205.152344 205.492188 205.167969 205.496094 205.183594 C 205.496094 205.183594 205.496094 205.183594 205.5 205.183594 C 205.492188 205.167969 205.488281 205.152344 205.488281 205.140625 Z M 203.609375 198.148438 C 203.609375 198.148438 203.609375 198.144531 203.609375 198.144531 C 203.609375 198.144531 203.609375 198.140625 203.609375 198.140625 C 203.605469 198.140625 203.605469 198.136719 203.601562 198.136719 C 203.605469 198.140625 203.605469 198.144531 203.609375 198.148438 Z M 203.75 198.394531 C 203.753906 198.394531 203.753906 198.398438 203.753906 198.402344 C 203.753906 198.398438 203.75 198.394531 203.75 198.394531 Z M 203.988281 201.214844 C 204 201.207031 204.011719 201.199219 204.027344 201.191406 C 204.019531 201.1875 204.011719 201.183594 204.003906 201.175781 C 204 201.191406 203.996094 201.203125 203.988281 201.214844 Z M 203.769531 200.769531 C 203.761719 200.746094 203.75 200.722656 203.730469 200.703125 C 203.746094 200.726562 203.761719 200.746094 203.769531 200.769531 Z M 203.769531 200.769531 " fill-opacity="1" fill-rule="nonzero"/></g></g></g></g><g clip-path="url(#edd9b8cd43)"><g clip-path="url(#44d035faec)"><g clip-path="url(#534752d06b)"><g clip-path="url(#a8f99b73a0)"><path fill="#ffffff" d="M 205.183594 205.605469 C 205.191406 205.667969 205.203125 205.726562 205.214844 205.789062 C 205.15625 205.734375 205.148438 205.671875 205.183594 205.605469 Z M 205.183594 205.605469 " fill-opacity="1" fill-rule="nonzero"/></g></g></g></g><g clip-path="url(#3803efd406)"><g clip-path="url(#af69887601)"><g clip-path="url(#65cce76e35)"><g clip-path="url(#c728734ee3)"><path fill="#ffffff" d="M 102.324219 238.929688 C 102.304688 238.96875 102.277344 238.992188 102.234375 238.996094 C 102.1875 239.132812 102.367188 239.277344 102.210938 239.410156 C 102.09375 239.847656 101.75 239.90625 101.375 239.902344 C 100.324219 239.890625 99.296875 239.714844 98.285156 239.472656 C 94.652344 238.601562 91.378906 237.015625 88.359375 234.832031 C 83.089844 231.023438 79.71875 225.90625 77.726562 219.816406 C 76.804688 216.992188 76.394531 214.058594 76.125 211.101562 C 75.964844 209.363281 75.910156 207.621094 75.8125 205.882812 C 75.839844 205.816406 75.863281 205.753906 75.886719 205.691406 C 75.851562 205.621094 75.832031 205.535156 75.777344 205.492188 C 75.777344 205.492188 75.777344 205.492188 75.773438 205.492188 C 75.730469 205.460938 75.683594 205.527344 75.6875 205.589844 C 75.300781 206.160156 75.046875 206.789062 74.828125 207.433594 C 74.679688 207.875 74.5 208.292969 74.195312 208.652344 C 73.878906 209.605469 73.195312 210.023438 72.296875 209.855469 C 72 207.886719 72.726562 206.164062 73.609375 204.472656 C 73.9375 203.84375 74.21875 203.191406 74.515625 202.546875 C 75.21875 201.003906 75.203125 201.265625 76.578125 201.105469 C 76.886719 201.070312 77.199219 201.105469 77.503906 201.171875 C 77.613281 201.195312 77.714844 201.230469 77.773438 201.335938 C 78.128906 201.3125 78.277344 201.566406 78.410156 201.820312 C 78.808594 202.574219 79.195312 203.332031 79.585938 204.089844 C 79.757812 204.195312 79.824219 204.371094 79.882812 204.550781 C 80.0625 204.648438 80.128906 204.828125 80.199219 205.003906 C 80.335938 205.050781 80.375 205.191406 80.453125 205.292969 C 81.527344 206.667969 82.746094 207.90625 84.171875 208.929688 C 84.277344 209.007812 84.378906 209.089844 84.484375 209.171875 C 84.609375 209.269531 84.75 209.378906 84.6875 209.546875 C 84.640625 209.671875 84.464844 209.746094 84.351562 209.722656 C 83.847656 209.621094 83.359375 209.84375 82.863281 209.785156 C 82.644531 209.761719 82.453125 209.648438 82.261719 209.53125 C 80.777344 208.632812 79.492188 207.496094 78.328125 206.222656 C 78.222656 206.109375 78.132812 205.976562 78.011719 205.890625 C 77.867188 205.789062 77.769531 205.894531 77.703125 206.027344 C 77.808594 206.167969 77.808594 206.308594 77.714844 206.457031 C 77.785156 206.605469 77.84375 206.753906 77.734375 206.910156 C 77.773438 206.933594 77.773438 206.964844 77.742188 206.996094 C 77.816406 207.132812 77.859375 207.273438 77.765625 207.421875 C 77.792969 207.527344 77.835938 207.632812 77.847656 207.738281 C 77.949219 208.917969 78.03125 210.101562 78.148438 211.28125 C 78.253906 212.351562 78.394531 213.417969 78.519531 214.484375 C 78.585938 214.761719 78.664062 215.035156 78.71875 215.316406 C 79.28125 218.023438 80.160156 220.617188 81.433594 223.070312 C 81.886719 223.949219 82.367188 224.808594 82.835938 225.675781 C 83.023438 225.785156 83.082031 225.972656 83.144531 226.160156 C 83.324219 226.261719 83.382812 226.4375 83.445312 226.617188 C 83.625 226.699219 83.667969 226.875 83.742188 227.035156 C 83.863281 227.078125 83.914062 227.175781 83.933594 227.296875 C 83.980469 227.316406 84 227.347656 83.996094 227.394531 C 84.132812 227.445312 84.171875 227.582031 84.253906 227.679688 C 84.65625 228.167969 84.972656 228.722656 85.4375 229.160156 C 85.417969 229.234375 85.484375 229.402344 85.292969 229.257812 C 85.167969 229.160156 85.125 229.175781 85.113281 229.230469 C 85.101562 229.277344 85.113281 229.351562 85.117188 229.410156 C 86.441406 230.90625 87.929688 232.21875 89.511719 233.4375 C 89.667969 233.539062 89.824219 233.636719 89.980469 233.738281 C 90.921875 234.332031 91.859375 234.925781 92.796875 235.523438 C 92.84375 235.515625 92.882812 235.527344 92.914062 235.550781 C 92.9375 235.566406 92.953125 235.585938 92.96875 235.613281 C 93.042969 235.605469 93.097656 235.636719 93.132812 235.699219 C 93.210938 235.691406 93.265625 235.722656 93.300781 235.789062 C 93.375 235.777344 93.429688 235.808594 93.464844 235.875 C 93.542969 235.863281 93.597656 235.890625 93.632812 235.960938 C 93.710938 235.949219 93.765625 235.976562 93.800781 236.046875 C 93.878906 236.03125 93.933594 236.058594 93.96875 236.128906 C 94.027344 236.152344 94.082031 236.179688 94.136719 236.207031 L 94.140625 236.210938 C 94.214844 236.195312 94.269531 236.21875 94.308594 236.289062 L 94.3125 236.292969 C 94.386719 236.277344 94.441406 236.300781 94.476562 236.371094 L 94.484375 236.371094 C 94.484375 236.371094 94.484375 236.375 94.484375 236.375 C 94.484375 236.375 94.484375 236.371094 94.484375 236.371094 C 94.558594 236.355469 94.613281 236.382812 94.652344 236.449219 L 94.652344 236.453125 C 94.730469 236.433594 94.785156 236.460938 94.820312 236.53125 L 94.824219 236.53125 C 94.898438 236.515625 94.957031 236.539062 94.992188 236.609375 C 95.535156 236.8125 96.074219 237.019531 96.613281 237.222656 C 96.863281 237.417969 97.167969 237.472656 97.457031 237.566406 C 97.484375 237.542969 97.5 237.515625 97.511719 237.484375 C 97.53125 237.441406 97.535156 237.394531 97.523438 237.339844 C 97.75 237.390625 97.980469 237.421875 98.167969 237.566406 C 98.21875 237.617188 98.277344 237.660156 98.351562 237.675781 C 98.292969 237.640625 98.230469 237.605469 98.167969 237.566406 C 98.242188 237.566406 98.3125 237.578125 98.34375 237.65625 C 98.453125 237.617188 98.550781 237.644531 98.640625 237.714844 C 98.710938 237.6875 98.769531 237.699219 98.8125 237.765625 C 98.886719 237.757812 98.957031 237.765625 99.003906 237.832031 C 99.042969 237.824219 99.078125 237.824219 99.109375 237.851562 C 99.339844 237.859375 99.554688 237.914062 99.753906 238.019531 C 99.917969 238.03125 100.078125 238.042969 100.21875 238.136719 C 100.324219 238.109375 100.414062 238.15625 100.507812 238.191406 C 101.144531 238.246094 101.761719 238.417969 102.441406 238.347656 C 102.355469 238.574219 102.511719 238.777344 102.324219 238.929688 Z M 77.617188 207.039062 C 77.621094 207.042969 77.621094 207.042969 77.621094 207.042969 C 77.617188 207.042969 77.617188 207.042969 77.617188 207.042969 C 77.617188 207.042969 77.621094 207.046875 77.621094 207.046875 C 77.621094 207.046875 77.621094 207.042969 77.621094 207.042969 C 77.621094 207.042969 77.625 207.042969 77.625 207.042969 C 77.621094 207.039062 77.621094 207.042969 77.617188 207.039062 Z M 94.460938 236.769531 C 94.449219 236.765625 94.433594 236.761719 94.417969 236.757812 C 94.421875 236.757812 94.425781 236.761719 94.429688 236.761719 C 94.441406 236.769531 94.449219 236.773438 94.464844 236.777344 C 94.464844 236.777344 94.464844 236.773438 94.460938 236.769531 Z M 92.804688 235.53125 C 92.800781 235.53125 92.804688 235.53125 92.800781 235.535156 C 92.800781 235.539062 92.796875 235.542969 92.796875 235.546875 L 92.789062 235.566406 L 92.804688 235.53125 C 92.804688 235.53125 92.804688 235.535156 92.808594 235.53125 C 92.804688 235.535156 92.804688 235.53125 92.804688 235.53125 Z M 94.472656 236.835938 C 94.46875 236.816406 94.46875 236.800781 94.464844 236.78125 C 94.453125 236.777344 94.441406 236.773438 94.429688 236.765625 C 94.453125 236.78125 94.46875 236.804688 94.472656 236.835938 Z M 94.351562 236.734375 C 94.335938 236.726562 94.324219 236.71875 94.3125 236.714844 C 94.308594 236.714844 94.308594 236.714844 94.308594 236.714844 C 94.324219 236.722656 94.335938 236.726562 94.351562 236.734375 Z M 101.148438 239.21875 C 101.148438 239.222656 101.152344 239.222656 101.152344 239.222656 C 101.152344 239.222656 101.15625 239.222656 101.15625 239.222656 C 101.15625 239.222656 101.160156 239.222656 101.160156 239.222656 C 101.15625 239.222656 101.152344 239.222656 101.148438 239.21875 Z M 100.867188 239.195312 C 100.863281 239.195312 100.859375 239.199219 100.859375 239.195312 C 100.859375 239.195312 100.867188 239.195312 100.867188 239.195312 Z M 98.421875 237.765625 C 98.421875 237.78125 98.421875 237.792969 98.417969 237.808594 C 98.425781 237.808594 98.4375 237.804688 98.445312 237.800781 C 98.4375 237.789062 98.429688 237.777344 98.421875 237.765625 Z M 98.914062 237.84375 C 98.9375 237.851562 98.964844 237.855469 98.992188 237.847656 C 98.992188 237.847656 98.992188 237.847656 98.988281 237.847656 C 98.960938 237.851562 98.9375 237.851562 98.914062 237.84375 Z M 98.914062 237.84375 " fill-opacity="1" fill-rule="nonzero"/></g></g></g></g><g clip-path="url(#5cb1ab184d)"><g clip-path="url(#aab5a70c42)"><g clip-path="url(#d8de06a80c)"><g clip-path="url(#2eb0b7588f)"><path fill="#ffffff" d="M 94.144531 236.214844 C 94.089844 236.1875 94.035156 236.160156 93.976562 236.136719 C 94.054688 236.121094 94.109375 236.148438 94.144531 236.214844 Z M 94.144531 236.214844 " fill-opacity="1" fill-rule="nonzero"/></g></g></g></g><g clip-path="url(#e3ffc86968)"><g clip-path="url(#b838b402f7)"><g clip-path="url(#dd1dfcb3e4)"><g clip-path="url(#2b9cbc6ff9)"><path fill="#ffffff" d="M 117.84375 125.25 C 117.820312 125.214844 117.820312 125.175781 117.839844 125.140625 C 117.753906 125.023438 117.53125 125.089844 117.511719 124.886719 C 117.222656 124.539062 117.371094 124.222656 117.585938 123.917969 C 118.191406 123.058594 118.925781 122.320312 119.703125 121.625 C 122.488281 119.132812 125.65625 117.347656 129.167969 116.113281 C 135.300781 113.953125 141.429688 114.101562 147.570312 115.9375 C 150.414062 116.785156 153.058594 118.125 155.644531 119.585938 C 157.160156 120.445312 158.621094 121.394531 160.109375 122.304688 C 160.148438 122.363281 160.183594 122.417969 160.222656 122.476562 C 160.300781 122.484375 160.382812 122.519531 160.449219 122.496094 C 160.5 122.476562 160.472656 122.402344 160.421875 122.371094 C 160.171875 121.726562 159.796875 121.160156 159.394531 120.609375 C 159.117188 120.234375 158.875 119.851562 158.753906 119.398438 C 158.152344 118.59375 158.195312 117.792969 158.847656 117.148438 C 160.632812 118.027344 161.636719 119.605469 162.523438 121.296875 C 162.855469 121.925781 163.226562 122.527344 163.585938 123.140625 C 164.457031 124.597656 164.25 124.4375 163.597656 125.65625 C 163.449219 125.929688 163.242188 126.164062 163.015625 126.375 C 162.929688 126.453125 162.847656 126.519531 162.726562 126.507812 C 162.542969 126.8125 162.25 126.789062 161.964844 126.753906 C 161.121094 126.648438 160.277344 126.535156 159.429688 126.425781 C 159.246094 126.507812 159.0625 126.460938 158.882812 126.40625 C 158.699219 126.5 158.515625 126.449219 158.332031 126.410156 C 158.210938 126.496094 158.074219 126.449219 157.949219 126.453125 C 156.203125 126.550781 154.496094 126.847656 152.839844 127.4375 C 152.714844 127.480469 152.589844 127.515625 152.460938 127.554688 C 152.3125 127.601562 152.144531 127.65625 152.039062 127.507812 C 151.960938 127.398438 152.003906 127.210938 152.085938 127.128906 C 152.457031 126.773438 152.554688 126.25 152.882812 125.875 C 153.027344 125.707031 153.226562 125.613281 153.433594 125.523438 C 155.019531 124.816406 156.683594 124.410156 158.394531 124.175781 C 158.546875 124.15625 158.707031 124.15625 158.847656 124.105469 C 159.015625 124.046875 158.984375 123.902344 158.914062 123.777344 C 158.738281 123.78125 158.617188 123.699219 158.550781 123.539062 C 158.390625 123.515625 158.234375 123.476562 158.167969 123.296875 C 158.128906 123.3125 158.101562 123.300781 158.09375 123.257812 C 157.9375 123.234375 157.800781 123.191406 157.726562 123.03125 C 157.625 122.996094 157.519531 122.972656 157.425781 122.917969 C 156.394531 122.328125 155.375 121.722656 154.339844 121.148438 C 153.402344 120.621094 152.445312 120.128906 151.496094 119.625 C 151.230469 119.519531 150.960938 119.429688 150.699219 119.316406 C 148.15625 118.234375 145.523438 117.480469 142.78125 117.125 C 141.800781 117 140.820312 116.902344 139.839844 116.792969 C 139.644531 116.882812 139.457031 116.824219 139.265625 116.769531 C 139.082031 116.859375 138.902344 116.808594 138.71875 116.757812 C 138.550781 116.855469 138.378906 116.792969 138.210938 116.761719 C 138.101562 116.835938 137.992188 116.824219 137.882812 116.773438 C 137.84375 116.796875 137.804688 116.796875 137.765625 116.765625 C 137.648438 116.847656 137.511719 116.804688 137.386719 116.816406 C 136.757812 116.871094 136.121094 116.8125 135.496094 116.945312 C 135.445312 116.886719 135.269531 116.847656 135.496094 116.773438 C 135.648438 116.722656 135.660156 116.675781 135.625 116.636719 C 135.59375 116.601562 135.523438 116.570312 135.472656 116.539062 C 133.492188 116.773438 131.5625 117.25 129.660156 117.851562 C 129.488281 117.925781 129.316406 117.996094 129.144531 118.070312 C 128.121094 118.503906 127.097656 118.9375 126.074219 119.367188 C 126.050781 119.410156 126.019531 119.433594 125.984375 119.445312 C 125.957031 119.457031 125.933594 119.457031 125.902344 119.457031 C 125.867188 119.523438 125.808594 119.550781 125.734375 119.542969 C 125.699219 119.609375 125.644531 119.636719 125.570312 119.625 C 125.535156 119.695312 125.476562 119.722656 125.402344 119.714844 C 125.367188 119.785156 125.3125 119.8125 125.234375 119.800781 C 125.203125 119.875 125.148438 119.902344 125.070312 119.890625 L 125.070312 119.894531 C 125.039062 119.964844 124.984375 119.992188 124.910156 119.980469 L 124.90625 119.984375 C 124.855469 120.015625 124.800781 120.046875 124.746094 120.074219 L 124.742188 120.078125 C 124.710938 120.148438 124.660156 120.179688 124.582031 120.167969 L 124.578125 120.171875 C 124.546875 120.242188 124.496094 120.273438 124.417969 120.261719 L 124.414062 120.265625 C 124.414062 120.265625 124.410156 120.269531 124.410156 120.269531 C 124.410156 120.269531 124.414062 120.265625 124.414062 120.265625 C 124.386719 120.339844 124.332031 120.371094 124.253906 120.359375 L 124.25 120.359375 C 124.222656 120.433594 124.167969 120.464844 124.09375 120.453125 L 124.089844 120.457031 C 124.058594 120.527344 124.007812 120.558594 123.929688 120.550781 C 123.453125 120.878906 122.976562 121.207031 122.5 121.53125 C 122.199219 121.625 121.976562 121.84375 121.738281 122.027344 C 121.742188 122.066406 121.753906 122.09375 121.773438 122.121094 C 121.796875 122.164062 121.835938 122.191406 121.886719 122.210938 C 121.71875 122.371094 121.5625 122.542969 121.332031 122.613281 C 121.261719 122.628906 121.195312 122.652344 121.136719 122.703125 C 121.203125 122.675781 121.265625 122.640625 121.332031 122.613281 C 121.289062 122.675781 121.238281 122.726562 121.160156 122.707031 C 121.128906 122.820312 121.050781 122.882812 120.941406 122.917969 C 120.925781 122.988281 120.882812 123.03125 120.804688 123.027344 C 120.765625 123.097656 120.71875 123.148438 120.636719 123.148438 C 120.625 123.1875 120.601562 123.210938 120.5625 123.226562 C 120.425781 123.410156 120.257812 123.554688 120.058594 123.660156 C 119.953125 123.785156 119.851562 123.914062 119.695312 123.972656 C 119.65625 124.074219 119.566406 124.125 119.484375 124.179688 C 119.078125 124.671875 118.585938 125.082031 118.253906 125.679688 C 118.117188 125.480469 117.859375 125.492188 117.84375 125.25 Z M 158.128906 123.128906 C 158.125 123.128906 158.125 123.128906 158.125 123.128906 C 158.125 123.125 158.125 123.125 158.125 123.125 C 158.125 123.125 158.121094 123.128906 158.121094 123.128906 C 158.121094 123.128906 158.125 123.128906 158.125 123.128906 C 158.125 123.128906 158.125 123.132812 158.121094 123.132812 C 158.125 123.132812 158.125 123.128906 158.128906 123.128906 Z M 124.101562 120.023438 C 124.113281 120.015625 124.125 120.003906 124.136719 119.996094 C 124.132812 119.996094 124.128906 119.996094 124.125 120 C 124.113281 120.003906 124.101562 120.011719 124.089844 120.019531 C 124.09375 120.019531 124.097656 120.019531 124.101562 120.023438 Z M 126.0625 119.367188 C 126.0625 119.363281 126.0625 119.363281 126.0625 119.363281 C 126.058594 119.359375 126.058594 119.355469 126.054688 119.351562 L 126.042969 119.335938 L 126.0625 119.363281 C 126.0625 119.367188 126.058594 119.367188 126.058594 119.367188 C 126.058594 119.367188 126.0625 119.367188 126.0625 119.367188 Z M 124.039062 119.992188 C 124.054688 120 124.074219 120.011719 124.085938 120.015625 C 124.097656 120.011719 124.109375 120.003906 124.121094 120 C 124.09375 120.007812 124.066406 120.007812 124.039062 119.992188 Z M 124.191406 119.953125 C 124.207031 119.945312 124.21875 119.9375 124.230469 119.929688 C 124.230469 119.929688 124.230469 119.929688 124.230469 119.925781 C 124.21875 119.9375 124.207031 119.945312 124.191406 119.953125 Z M 118.273438 124.121094 C 118.273438 124.121094 118.269531 124.121094 118.269531 124.121094 C 118.269531 124.121094 118.265625 124.125 118.265625 124.125 C 118.265625 124.125 118.265625 124.128906 118.265625 124.128906 C 118.269531 124.128906 118.269531 124.125 118.273438 124.121094 Z M 118.457031 123.902344 C 118.457031 123.898438 118.457031 123.894531 118.460938 123.894531 C 118.460938 123.898438 118.457031 123.902344 118.457031 123.902344 Z M 121.023438 122.707031 C 121.011719 122.699219 121 122.691406 120.988281 122.679688 C 120.988281 122.691406 120.984375 122.699219 120.980469 122.707031 C 120.996094 122.707031 121.011719 122.707031 121.023438 122.707031 Z M 120.679688 123.070312 C 120.660156 123.082031 120.644531 123.101562 120.632812 123.128906 C 120.644531 123.105469 120.660156 123.085938 120.679688 123.070312 Z M 120.679688 123.070312 " fill-opacity="1" fill-rule="nonzero"/></g></g></g></g><g clip-path="url(#30b8253b1e)"><g clip-path="url(#bc9f989a84)"><g clip-path="url(#1ec52916a6)"><g clip-path="url(#86abb54bcc)"><path fill="#ffffff" d="M 124.738281 120.078125 C 124.789062 120.046875 124.84375 120.015625 124.894531 119.988281 C 124.863281 120.058594 124.8125 120.085938 124.738281 120.078125 Z M 124.738281 120.078125 " fill-opacity="1" fill-rule="nonzero"/></g></g></g></g><path stroke-linecap="butt" transform="matrix(0.74987, 0.00605191, -0.00605275, 0.749976, 136.490312, 77.868328)" fill="none" stroke-linejoin="miter" d="M -0.00220402 1.998562 L 223.03636 2.000901 " stroke="#000000" stroke-width="4" stroke-opacity="1" stroke-miterlimit="4"/><path stroke-linecap="butt" transform="matrix(0.750617, -0.00364086, 0.00363783, 0.749991, 135.126205, 291.168432)" fill="none" stroke-linejoin="miter" d="M -0.000887235 1.999401 L 224.814281 2.002221 " stroke="#000000" stroke-width="4" stroke-opacity="1" stroke-miterlimit="4"/><g clip-path="url(#3b5491edb5)"><path fill="#38b6ff" d="M 266.714844 306.992188 L 275.207031 297.5 C 275.390625 297.296875 275.644531 297.183594 275.910156 297.183594 L 281.574219 297.183594 C 281.945312 297.183594 282.28125 297.402344 282.4375 297.746094 C 282.585938 298.089844 282.523438 298.488281 282.273438 298.765625 L 274.351562 307.628906 L 282.273438 316.484375 C 282.523438 316.765625 282.589844 317.164062 282.4375 317.507812 C 282.28125 317.851562 281.945312 318.070312 281.574219 318.070312 L 275.910156 318.070312 C 275.644531 318.070312 275.390625 317.953125 275.207031 317.757812 L 266.714844 308.261719 C 266.394531 307.902344 266.394531 307.351562 266.714844 306.992188 Z M 266.714844 306.992188 " fill-opacity="1" fill-rule="nonzero"/></g><g clip-path="url(#329ae142e2)"><path fill="#38b6ff" d="M 278.984375 306.992188 L 287.476562 297.5 C 287.660156 297.296875 287.910156 297.183594 288.179688 297.183594 L 293.839844 297.183594 C 294.214844 297.183594 294.550781 297.402344 294.703125 297.746094 C 294.855469 298.089844 294.792969 298.488281 294.542969 298.765625 L 286.617188 307.628906 L 294.542969 316.484375 C 294.792969 316.765625 294.855469 317.164062 294.703125 317.507812 C 294.550781 317.851562 294.214844 318.070312 293.839844 318.070312 L 288.179688 318.070312 C 287.910156 318.070312 287.660156 317.953125 287.476562 317.757812 L 278.984375 308.261719 C 278.660156 307.902344 278.660156 307.351562 278.984375 306.992188 Z M 278.984375 306.992188 " fill-opacity="1" fill-rule="nonzero"/></g><g clip-path="url(#cb7ddcd059)"><path fill="#38b6ff" d="M 229.589844 306.992188 L 238.082031 297.5 C 238.265625 297.296875 238.519531 297.183594 238.785156 297.183594 L 244.449219 297.183594 C 244.820312 297.183594 245.15625 297.402344 245.3125 297.746094 C 245.460938 298.089844 245.398438 298.488281 245.148438 298.765625 L 237.226562 307.628906 L 245.148438 316.484375 C 245.398438 316.765625 245.464844 317.164062 245.3125 317.507812 C 245.15625 317.851562 244.820312 318.070312 244.449219 318.070312 L 238.785156 318.070312 C 238.519531 318.070312 238.265625 317.953125 238.082031 317.757812 L 229.589844 308.261719 C 229.269531 307.902344 229.269531 307.351562 229.589844 306.992188 Z M 229.589844 306.992188 " fill-opacity="1" fill-rule="nonzero"/></g><g clip-path="url(#dd460fd726)"><path fill="#38b6ff" d="M 241.859375 306.992188 L 250.351562 297.5 C 250.535156 297.296875 250.785156 297.183594 251.054688 297.183594 L 256.714844 297.183594 C 257.089844 297.183594 257.425781 297.402344 257.578125 297.746094 C 257.730469 298.089844 257.667969 298.488281 257.417969 298.765625 L 249.492188 307.628906 L 257.417969 316.484375 C 257.667969 316.765625 257.730469 317.164062 257.578125 317.507812 C 257.425781 317.851562 257.089844 318.070312 256.714844 318.070312 L 251.054688 318.070312 C 250.785156 318.070312 250.535156 317.953125 250.351562 317.757812 L 241.859375 308.261719 C 241.535156 307.902344 241.535156 307.351562 241.859375 306.992188 Z M 241.859375 306.992188 " fill-opacity="1" fill-rule="nonzero"/></g><g clip-path="url(#008c45c307)"><path fill="#38b6ff" d="M 192.464844 306.992188 L 200.957031 297.5 C 201.140625 297.296875 201.394531 297.183594 201.660156 297.183594 L 207.324219 297.183594 C 207.695312 297.183594 208.03125 297.402344 208.1875 297.746094 C 208.335938 298.089844 208.273438 298.488281 208.023438 298.765625 L 200.101562 307.628906 L 208.023438 316.484375 C 208.273438 316.765625 208.339844 317.164062 208.1875 317.507812 C 208.03125 317.851562 207.695312 318.070312 207.324219 318.070312 L 201.660156 318.070312 C 201.394531 318.070312 201.140625 317.953125 200.957031 317.757812 L 192.464844 308.261719 C 192.144531 307.902344 192.144531 307.351562 192.464844 306.992188 Z M 192.464844 306.992188 " fill-opacity="1" fill-rule="nonzero"/></g><g clip-path="url(#894c3bc80a)"><path fill="#38b6ff" d="M 204.734375 306.992188 L 213.226562 297.5 C 213.410156 297.296875 213.660156 297.183594 213.929688 297.183594 L 219.589844 297.183594 C 219.964844 297.183594 220.300781 297.402344 220.453125 297.746094 C 220.605469 298.089844 220.542969 298.488281 220.292969 298.765625 L 212.367188 307.628906 L 220.292969 316.484375 C 220.542969 316.765625 220.605469 317.164062 220.453125 317.507812 C 220.300781 317.851562 219.964844 318.070312 219.589844 318.070312 L 213.929688 318.070312 C 213.660156 318.070312 213.410156 317.953125 213.226562 317.757812 L 204.734375 308.261719 C 204.410156 307.902344 204.410156 307.351562 204.734375 306.992188 Z M 204.734375 306.992188 " fill-opacity="1" fill-rule="nonzero"/></g><g clip-path="url(#521d4ec8f1)"><path fill="#5ce1e6" d="M 155.339844 306.992188 L 163.832031 297.5 C 164.015625 297.296875 164.269531 297.183594 164.535156 297.183594 L 170.199219 297.183594 C 170.570312 297.183594 170.90625 297.402344 171.0625 297.746094 C 171.210938 298.089844 171.148438 298.488281 170.898438 298.765625 L 162.976562 307.628906 L 170.898438 316.484375 C 171.148438 316.765625 171.214844 317.164062 171.0625 317.507812 C 170.90625 317.851562 170.570312 318.070312 170.199219 318.070312 L 164.535156 318.070312 C 164.269531 318.070312 164.015625 317.953125 163.832031 317.757812 L 155.339844 308.261719 C 155.019531 307.902344 155.019531 307.351562 155.339844 306.992188 Z M 155.339844 306.992188 " fill-opacity="1" fill-rule="nonzero"/></g><g clip-path="url(#c827cee4bb)"><path fill="#5ce1e6" d="M 167.609375 306.992188 L 176.101562 297.5 C 176.285156 297.296875 176.535156 297.183594 176.804688 297.183594 L 182.464844 297.183594 C 182.839844 297.183594 183.175781 297.402344 183.328125 297.746094 C 183.480469 298.089844 183.417969 298.488281 183.167969 298.765625 L 175.242188 307.628906 L 183.167969 316.484375 C 183.417969 316.765625 183.480469 317.164062 183.328125 317.507812 C 183.175781 317.851562 182.839844 318.070312 182.464844 318.070312 L 176.804688 318.070312 C 176.535156 318.070312 176.285156 317.953125 176.101562 317.757812 L 167.609375 308.261719 C 167.285156 307.902344 167.285156 307.351562 167.609375 306.992188 Z M 167.609375 306.992188 " fill-opacity="1" fill-rule="nonzero"/></g><g clip-path="url(#336517f47d)"><g clip-path="url(#aa66fd002e)"><g clip-path="url(#a0af3e6614)"><path fill="#38b6ff" d="M 118.210938 307.242188 L 126.535156 297.597656 C 126.710938 297.394531 126.960938 297.273438 127.230469 297.269531 L 132.890625 297.171875 C 133.261719 297.164062 133.605469 297.378906 133.765625 297.714844 C 133.921875 298.058594 133.867188 298.460938 133.621094 298.742188 L 125.855469 307.738281 L 133.933594 316.457031 C 134.1875 316.730469 134.261719 317.128906 134.113281 317.476562 C 133.964844 317.820312 133.632812 318.046875 133.261719 318.054688 L 127.597656 318.152344 C 127.332031 318.160156 127.078125 318.046875 126.890625 317.851562 L 118.230469 308.511719 C 117.902344 308.15625 117.894531 307.605469 118.210938 307.242188 Z M 118.210938 307.242188 " fill-opacity="1" fill-rule="nonzero"/></g></g></g><g clip-path="url(#f652bf73d1)"><g clip-path="url(#ab7f41779b)"><g clip-path="url(#1920a6d2be)"><path fill="#38b6ff" d="M 130.476562 307.023438 L 138.800781 297.382812 C 138.976562 297.175781 139.230469 297.058594 139.496094 297.054688 L 145.15625 296.953125 C 145.53125 296.945312 145.871094 297.160156 146.03125 297.5 C 146.1875 297.839844 146.132812 298.242188 145.886719 298.523438 L 138.121094 307.523438 L 146.203125 316.238281 C 146.457031 316.515625 146.527344 316.914062 146.378906 317.257812 C 146.234375 317.605469 145.898438 317.832031 145.527344 317.835938 L 139.867188 317.9375 C 139.597656 317.941406 139.34375 317.832031 139.160156 317.636719 L 130.5 308.292969 C 130.167969 307.9375 130.160156 307.386719 130.476562 307.023438 Z M 130.476562 307.023438 " fill-opacity="1" fill-rule="nonzero"/></g></g></g><g clip-path="url(#8db172bd15)"><g clip-path="url(#6daa669f56)"><g clip-path="url(#23af310e23)"><path fill="#38b6ff" d="M 75.855469 286.085938 L 88.128906 282.679688 C 88.390625 282.609375 88.664062 282.648438 88.890625 282.796875 L 93.65625 285.851562 C 93.96875 286.050781 94.132812 286.421875 94.078125 286.789062 C 94.019531 287.160156 93.75 287.464844 93.390625 287.5625 L 81.9375 290.742188 L 83.828125 302.476562 C 83.886719 302.847656 83.722656 303.21875 83.410156 303.425781 C 83.097656 303.632812 82.691406 303.632812 82.378906 303.433594 L 77.613281 300.375 C 77.386719 300.230469 77.238281 299.996094 77.191406 299.734375 L 75.167969 287.15625 C 75.089844 286.679688 75.386719 286.214844 75.855469 286.085938 Z M 75.855469 286.085938 " fill-opacity="1" fill-rule="nonzero"/></g></g></g><g clip-path="url(#b2accb3b67)"><g clip-path="url(#f3cf592d54)"><g clip-path="url(#0764eb7066)"><path fill="#38b6ff" d="M 86.179688 292.710938 L 98.457031 289.304688 C 98.714844 289.234375 98.992188 289.273438 99.214844 289.417969 L 103.984375 292.476562 C 104.296875 292.675781 104.460938 293.042969 104.40625 293.414062 C 104.347656 293.785156 104.078125 294.089844 103.71875 294.1875 L 92.265625 297.367188 L 94.152344 309.101562 C 94.210938 309.46875 94.050781 309.84375 93.738281 310.046875 C 93.421875 310.253906 93.019531 310.257812 92.707031 310.058594 L 87.941406 307 C 87.714844 306.855469 87.5625 306.621094 87.519531 306.355469 L 85.496094 293.78125 C 85.417969 293.300781 85.714844 292.839844 86.179688 292.710938 Z M 86.179688 292.710938 " fill-opacity="1" fill-rule="nonzero"/></g></g></g><g clip-path="url(#b5175ac584)"><g clip-path="url(#99b264b615)"><g clip-path="url(#6675ef7419)"><path fill="#38b6ff" d="M 41.28125 262.910156 L 53.984375 261.964844 C 54.253906 261.945312 54.515625 262.039062 54.707031 262.222656 L 58.785156 266.152344 C 59.054688 266.410156 59.144531 266.800781 59.015625 267.15625 C 58.886719 267.507812 58.566406 267.753906 58.191406 267.777344 L 46.339844 268.664062 L 45.902344 280.539062 C 45.886719 280.914062 45.65625 281.246094 45.308594 281.386719 C 44.960938 281.53125 44.566406 281.453125 44.296875 281.195312 L 40.21875 277.269531 C 40.027344 277.082031 39.921875 276.824219 39.929688 276.554688 L 40.398438 263.824219 C 40.417969 263.339844 40.796875 262.945312 41.28125 262.910156 Z M 41.28125 262.910156 " fill-opacity="1" fill-rule="nonzero"/></g></g></g><g clip-path="url(#12c8e6b807)"><g clip-path="url(#373827a11f)"><g clip-path="url(#591ba992c7)"><path fill="#38b6ff" d="M 50.117188 271.421875 L 62.820312 270.472656 C 63.089844 270.453125 63.351562 270.546875 63.542969 270.734375 L 67.621094 274.660156 C 67.890625 274.917969 67.980469 275.3125 67.855469 275.664062 C 67.722656 276.015625 67.402344 276.261719 67.03125 276.289062 L 55.175781 277.171875 L 54.738281 289.050781 C 54.726562 289.425781 54.492188 289.757812 54.144531 289.898438 C 53.796875 290.039062 53.402344 289.964844 53.132812 289.707031 L 49.054688 285.777344 C 48.863281 285.59375 48.761719 285.332031 48.765625 285.066406 L 49.234375 272.335938 C 49.253906 271.851562 49.636719 271.453125 50.117188 271.421875 Z M 50.117188 271.421875 " fill-opacity="1" fill-rule="nonzero"/></g></g></g><g clip-path="url(#9b6e7acd71)"><g clip-path="url(#ec18d08875)"><g clip-path="url(#f39d872a6e)"><path fill="#5ce1e6" d="M 22.734375 226.0625 L 35.210938 228.632812 C 35.476562 228.6875 35.699219 228.851562 35.835938 229.082031 L 38.679688 233.976562 C 38.867188 234.296875 38.847656 234.703125 38.628906 235.003906 C 38.40625 235.308594 38.03125 235.457031 37.664062 235.378906 L 26.023438 232.980469 L 22.347656 244.285156 C 22.230469 244.640625 21.917969 244.898438 21.542969 244.9375 C 21.171875 244.976562 20.808594 244.796875 20.625 244.472656 L 17.777344 239.578125 C 17.644531 239.347656 17.617188 239.070312 17.695312 238.8125 L 21.636719 226.699219 C 21.785156 226.238281 22.261719 225.960938 22.734375 226.0625 Z M 22.734375 226.0625 " fill-opacity="1" fill-rule="nonzero"/></g></g></g><g clip-path="url(#699896f815)"><g clip-path="url(#58aaeb8bb1)"><g clip-path="url(#1f2d16318e)"><path fill="#5ce1e6" d="M 28.898438 236.667969 L 41.375 239.238281 C 41.640625 239.296875 41.867188 239.457031 42 239.6875 L 44.847656 244.582031 C 45.035156 244.90625 45.011719 245.308594 44.792969 245.613281 C 44.574219 245.914062 44.195312 246.0625 43.832031 245.984375 L 32.1875 243.585938 L 28.511719 254.890625 C 28.394531 255.246094 28.082031 255.503906 27.710938 255.542969 C 27.335938 255.582031 26.976562 255.402344 26.789062 255.082031 L 23.941406 250.183594 C 23.808594 249.953125 23.78125 249.675781 23.859375 249.421875 L 27.800781 237.304688 C 27.949219 236.847656 28.425781 236.570312 28.898438 236.667969 Z M 28.898438 236.667969 " fill-opacity="1" fill-rule="nonzero"/></g></g></g><g clip-path="url(#e0b40be4e9)"><path fill="#38b6ff" d="M 20.015625 172.027344 L 29.507812 180.519531 C 29.710938 180.699219 29.824219 180.953125 29.824219 181.222656 L 29.824219 186.882812 C 29.824219 187.257812 29.605469 187.59375 29.261719 187.746094 C 28.917969 187.898438 28.515625 187.835938 28.242188 187.585938 L 19.378906 179.660156 L 10.523438 187.585938 C 10.242188 187.835938 9.84375 187.898438 9.5 187.746094 C 9.15625 187.59375 8.9375 187.257812 8.9375 186.882812 L 8.9375 181.222656 C 8.9375 180.953125 9.050781 180.699219 9.25 180.519531 L 18.746094 172.027344 C 19.105469 171.703125 19.65625 171.703125 20.015625 172.027344 Z M 20.015625 172.027344 " fill-opacity="1" fill-rule="nonzero"/></g><g clip-path="url(#7f26d5bf98)"><path fill="#38b6ff" d="M 20.015625 184.292969 L 29.507812 192.789062 C 29.710938 192.96875 29.824219 193.222656 29.824219 193.488281 L 29.824219 199.152344 C 29.824219 199.523438 29.605469 199.863281 29.261719 200.015625 C 28.917969 200.164062 28.515625 200.105469 28.242188 199.855469 L 19.378906 191.929688 L 10.523438 199.855469 C 10.242188 200.105469 9.84375 200.167969 9.5 200.015625 C 9.15625 199.863281 8.9375 199.523438 8.9375 199.152344 L 8.9375 193.488281 C 8.9375 193.222656 9.050781 192.96875 9.25 192.789062 L 18.746094 184.292969 C 19.105469 183.972656 19.65625 183.972656 20.015625 184.292969 Z M 20.015625 184.292969 " fill-opacity="1" fill-rule="nonzero"/></g><g clip-path="url(#47a6750ba0)"><g clip-path="url(#6c61376761)"><g clip-path="url(#fba0813176)"><path fill="#38b6ff" d="M 38.21875 122.101562 L 41.183594 134.492188 C 41.246094 134.753906 41.195312 135.027344 41.042969 135.246094 L 37.816406 139.902344 C 37.605469 140.207031 37.230469 140.359375 36.863281 140.289062 C 36.496094 140.21875 36.203125 139.941406 36.117188 139.578125 L 33.347656 128.015625 L 21.554688 129.484375 C 21.183594 129.53125 20.816406 129.355469 20.621094 129.035156 C 20.425781 128.714844 20.4375 128.308594 20.648438 128.003906 L 23.875 123.351562 C 24.027344 123.128906 24.269531 122.988281 24.53125 122.953125 L 37.175781 121.378906 C 37.65625 121.320312 38.105469 121.632812 38.21875 122.101562 Z M 38.21875 122.101562 " fill-opacity="1" fill-rule="nonzero"/></g></g></g><g clip-path="url(#15f4a8a3f2)"><g clip-path="url(#5502846b77)"><g clip-path="url(#9321e11da4)"><path fill="#38b6ff" d="M 31.230469 132.1875 L 34.195312 144.574219 C 34.257812 144.839844 34.207031 145.109375 34.054688 145.332031 L 30.828125 149.984375 C 30.617188 150.289062 30.246094 150.441406 29.875 150.375 C 29.507812 150.300781 29.214844 150.023438 29.128906 149.660156 L 26.359375 138.101562 L 14.566406 139.566406 C 14.195312 139.613281 13.828125 139.4375 13.632812 139.117188 C 13.4375 138.796875 13.449219 138.394531 13.664062 138.085938 L 16.886719 133.433594 C 17.039062 133.214844 17.28125 133.070312 17.546875 133.035156 L 30.1875 131.460938 C 30.667969 131.402344 31.121094 131.714844 31.230469 132.1875 Z M 31.230469 132.1875 " fill-opacity="1" fill-rule="nonzero"/></g></g></g><g clip-path="url(#940ac375a5)"><g clip-path="url(#6085f1046f)"><g clip-path="url(#996f650e3a)"><path fill="#38b6ff" d="M 65.816406 90.09375 L 65.914062 102.832031 C 65.917969 103.101562 65.804688 103.355469 65.609375 103.535156 L 61.417969 107.34375 C 61.140625 107.59375 60.742188 107.660156 60.402344 107.507812 C 60.058594 107.355469 59.835938 107.015625 59.832031 106.644531 L 59.742188 94.757812 L 47.917969 93.53125 C 47.546875 93.492188 47.230469 93.238281 47.113281 92.882812 C 46.996094 92.523438 47.097656 92.136719 47.371094 91.882812 L 51.5625 88.078125 C 51.761719 87.898438 52.027344 87.8125 52.292969 87.835938 L 64.964844 89.152344 C 65.445312 89.203125 65.816406 89.609375 65.816406 90.09375 Z M 65.816406 90.09375 " fill-opacity="1" fill-rule="nonzero"/></g></g></g><g clip-path="url(#b9ba56dabd)"><g clip-path="url(#2303e0ec66)"><g clip-path="url(#a813ee7a2c)"><path fill="#38b6ff" d="M 56.738281 98.34375 L 56.835938 111.082031 C 56.835938 111.351562 56.726562 111.605469 56.527344 111.785156 L 52.335938 115.59375 C 52.0625 115.84375 51.664062 115.90625 51.320312 115.757812 C 50.976562 115.605469 50.753906 115.265625 50.753906 114.894531 L 50.660156 103.007812 L 38.839844 101.78125 C 38.464844 101.742188 38.148438 101.488281 38.03125 101.132812 C 37.914062 100.773438 38.015625 100.382812 38.292969 100.132812 L 42.480469 96.328125 C 42.679688 96.148438 42.945312 96.0625 43.210938 96.085938 L 55.882812 97.402344 C 56.363281 97.453125 56.734375 97.859375 56.738281 98.34375 Z M 56.738281 98.34375 " fill-opacity="1" fill-rule="nonzero"/></g></g></g><g clip-path="url(#b81be7c275)"><g clip-path="url(#f2f4690be7)"><g clip-path="url(#26d6c71d5e)"><path fill="#5ce1e6" d="M 100.488281 72.246094 L 97.054688 84.511719 C 96.980469 84.773438 96.800781 84.988281 96.5625 85.105469 L 91.480469 87.601562 C 91.148438 87.765625 90.746094 87.71875 90.457031 87.480469 C 90.171875 87.238281 90.050781 86.851562 90.152344 86.492188 L 93.355469 75.042969 L 82.335938 70.589844 C 81.988281 70.449219 81.753906 70.117188 81.742188 69.746094 C 81.726562 69.367188 81.933594 69.023438 82.265625 68.859375 L 87.347656 66.359375 C 87.589844 66.242188 87.867188 66.234375 88.117188 66.332031 L 99.925781 71.105469 C 100.375 71.285156 100.617188 71.78125 100.488281 72.246094 Z M 100.488281 72.246094 " fill-opacity="1" fill-rule="nonzero"/></g></g></g><g clip-path="url(#e38e0f54c7)"><g clip-path="url(#938dbab17f)"><g clip-path="url(#6ccdcfb9a4)"><path fill="#5ce1e6" d="M 89.476562 77.65625 L 86.042969 89.925781 C 85.96875 90.183594 85.792969 90.398438 85.550781 90.515625 L 80.472656 93.015625 C 80.136719 93.179688 79.738281 93.128906 79.449219 92.890625 C 79.160156 92.648438 79.039062 92.261719 79.140625 91.902344 L 82.347656 80.457031 L 71.324219 76.003906 C 70.980469 75.863281 70.746094 75.53125 70.730469 75.15625 C 70.71875 74.78125 70.921875 74.433594 71.257812 74.269531 L 76.339844 71.773438 C 76.578125 71.652344 76.855469 71.648438 77.105469 71.742188 L 88.917969 76.515625 C 89.367188 76.699219 89.609375 77.191406 89.476562 77.65625 Z M 89.476562 77.65625 " fill-opacity="1" fill-rule="nonzero"/></g></g></g><g clip-path="url(#7addfa8667)"><path fill="#38b6ff" d="M 146.195312 68.148438 L 137.703125 77.640625 C 137.519531 77.84375 137.265625 77.957031 137 77.957031 L 131.335938 77.957031 C 130.964844 77.957031 130.628906 77.738281 130.472656 77.394531 C 130.324219 77.050781 130.386719 76.652344 130.636719 76.375 L 138.558594 67.515625 L 130.636719 58.65625 C 130.386719 58.375 130.320312 57.976562 130.472656 57.632812 C 130.628906 57.289062 130.964844 57.070312 131.335938 57.070312 L 137 57.070312 C 137.265625 57.070312 137.519531 57.1875 137.703125 57.382812 L 146.195312 66.878906 C 146.515625 67.238281 146.515625 67.789062 146.195312 68.148438 Z M 146.195312 68.148438 " fill-opacity="1" fill-rule="nonzero"/></g><g clip-path="url(#3061ec92cb)"><path fill="#38b6ff" d="M 133.925781 68.148438 L 125.433594 77.640625 C 125.25 77.84375 125 77.957031 124.730469 77.957031 L 119.070312 77.957031 C 118.695312 77.957031 118.359375 77.738281 118.207031 77.394531 C 118.054688 77.050781 118.117188 76.652344 118.367188 76.375 L 126.292969 67.515625 L 118.367188 58.65625 C 118.117188 58.375 118.054688 57.976562 118.207031 57.632812 C 118.359375 57.289062 118.695312 57.070312 119.070312 57.070312 L 124.730469 57.070312 C 125 57.070312 125.25 57.1875 125.433594 57.382812 L 133.925781 66.878906 C 134.25 67.238281 134.25 67.789062 133.925781 68.148438 Z M 133.925781 68.148438 " fill-opacity="1" fill-rule="nonzero"/></g><g clip-path="url(#7ae3a5c2f7)"><g clip-path="url(#2a606ad0a5)"><g clip-path="url(#406404867f)"><path fill="#38b6ff" d="M 182.71875 68.148438 L 173.941406 77.382812 C 173.753906 77.578125 173.5 77.6875 173.230469 77.675781 L 167.570312 77.507812 C 167.199219 77.496094 166.871094 77.265625 166.726562 76.917969 C 166.585938 76.570312 166.660156 76.171875 166.917969 75.902344 L 175.105469 67.285156 L 167.453125 58.191406 C 167.210938 57.90625 167.160156 57.503906 167.320312 57.167969 C 167.484375 56.828125 167.828125 56.617188 168.199219 56.628906 L 173.859375 56.800781 C 174.128906 56.808594 174.378906 56.929688 174.554688 57.132812 L 182.757812 66.878906 C 183.066406 67.25 183.050781 67.800781 182.71875 68.148438 Z M 182.71875 68.148438 " fill-opacity="1" fill-rule="nonzero"/></g></g></g><g clip-path="url(#44af890420)"><g clip-path="url(#57c5b92857)"><g clip-path="url(#37d0d3a245)"><path fill="#38b6ff" d="M 170.457031 67.78125 L 161.679688 77.015625 C 161.492188 77.210938 161.238281 77.316406 160.96875 77.308594 L 155.308594 77.136719 C 154.9375 77.125 154.605469 76.894531 154.464844 76.550781 C 154.324219 76.203125 154.398438 75.804688 154.65625 75.535156 L 162.84375 66.917969 L 155.1875 57.824219 C 154.949219 57.539062 154.894531 57.136719 155.058594 56.796875 C 155.222656 56.457031 155.566406 56.25 155.9375 56.261719 L 161.597656 56.429688 C 161.867188 56.4375 162.113281 56.5625 162.289062 56.765625 L 170.492188 66.511719 C 170.804688 66.878906 170.789062 67.429688 170.457031 67.78125 Z M 170.457031 67.78125 " fill-opacity="1" fill-rule="nonzero"/></g></g></g><g clip-path="url(#015deb8dff)"><g clip-path="url(#88963b874b)"><g clip-path="url(#e807988a8f)"><path fill="#38b6ff" d="M 294.371094 68.148438 L 285.59375 77.382812 C 285.40625 77.578125 285.152344 77.6875 284.882812 77.675781 L 279.222656 77.507812 C 278.851562 77.496094 278.523438 77.265625 278.378906 76.917969 C 278.238281 76.570312 278.3125 76.171875 278.570312 75.902344 L 286.757812 67.285156 L 279.105469 58.191406 C 278.863281 57.90625 278.8125 57.503906 278.972656 57.167969 C 279.136719 56.828125 279.480469 56.617188 279.851562 56.628906 L 285.511719 56.800781 C 285.78125 56.808594 286.03125 56.929688 286.207031 57.132812 L 294.410156 66.878906 C 294.71875 67.25 294.703125 67.800781 294.371094 68.148438 Z M 294.371094 68.148438 " fill-opacity="1" fill-rule="nonzero"/></g></g></g><g clip-path="url(#250310fff5)"><g clip-path="url(#25d1cd4794)"><g clip-path="url(#2904d60409)"><path fill="#38b6ff" d="M 282.109375 67.78125 L 273.332031 77.015625 C 273.144531 77.210938 272.890625 77.316406 272.621094 77.308594 L 266.960938 77.136719 C 266.589844 77.125 266.257812 76.894531 266.117188 76.550781 C 265.976562 76.203125 266.050781 75.804688 266.308594 75.535156 L 274.496094 66.917969 L 266.839844 57.824219 C 266.601562 57.539062 266.546875 57.136719 266.710938 56.796875 C 266.875 56.457031 267.21875 56.25 267.589844 56.261719 L 273.25 56.429688 C 273.519531 56.4375 273.765625 56.5625 273.941406 56.765625 L 282.144531 66.511719 C 282.457031 66.878906 282.441406 67.429688 282.109375 67.78125 Z M 282.109375 67.78125 " fill-opacity="1" fill-rule="nonzero"/></g></g></g><g clip-path="url(#ac79d54f61)"><g clip-path="url(#d04a718b16)"><g clip-path="url(#625c58092b)"><path fill="#5ce1e6" d="M 257.246094 68.148438 L 248.46875 77.382812 C 248.28125 77.578125 248.027344 77.6875 247.757812 77.675781 L 242.097656 77.507812 C 241.726562 77.496094 241.398438 77.265625 241.253906 76.917969 C 241.113281 76.570312 241.1875 76.171875 241.445312 75.902344 L 249.632812 67.285156 L 241.980469 58.191406 C 241.738281 57.90625 241.6875 57.503906 241.847656 57.167969 C 242.011719 56.828125 242.355469 56.617188 242.726562 56.628906 L 248.386719 56.800781 C 248.65625 56.808594 248.90625 56.929688 249.082031 57.132812 L 257.285156 66.878906 C 257.59375 67.25 257.578125 67.800781 257.246094 68.148438 Z M 257.246094 68.148438 " fill-opacity="1" fill-rule="nonzero"/></g></g></g><g clip-path="url(#44521511ef)"><g clip-path="url(#4d7a2fc937)"><g clip-path="url(#88d43b62d2)"><path fill="#5ce1e6" d="M 244.984375 67.78125 L 236.207031 77.015625 C 236.019531 77.210938 235.765625 77.316406 235.496094 77.308594 L 229.835938 77.136719 C 229.464844 77.125 229.132812 76.894531 228.992188 76.550781 C 228.851562 76.203125 228.925781 75.804688 229.183594 75.535156 L 237.371094 66.917969 L 229.714844 57.824219 C 229.476562 57.539062 229.421875 57.136719 229.585938 56.796875 C 229.75 56.457031 230.09375 56.25 230.464844 56.261719 L 236.125 56.429688 C 236.394531 56.4375 236.640625 56.5625 236.816406 56.765625 L 245.019531 66.511719 C 245.332031 66.878906 245.316406 67.429688 244.984375 67.78125 Z M 244.984375 67.78125 " fill-opacity="1" fill-rule="nonzero"/></g></g></g><g clip-path="url(#5f215ae88a)"><g clip-path="url(#4fd5a86865)"><g clip-path="url(#06a303afc5)"><path fill="#38b6ff" d="M 220.730469 68.148438 L 211.953125 77.382812 C 211.765625 77.578125 211.511719 77.6875 211.242188 77.675781 L 205.582031 77.507812 C 205.210938 77.496094 204.878906 77.265625 204.738281 76.917969 C 204.597656 76.570312 204.671875 76.171875 204.929688 75.902344 L 213.117188 67.285156 L 205.460938 58.191406 C 205.222656 57.90625 205.167969 57.503906 205.332031 57.167969 C 205.496094 56.828125 205.839844 56.617188 206.210938 56.628906 L 211.871094 56.800781 C 212.140625 56.808594 212.386719 56.929688 212.5625 57.132812 L 220.765625 66.878906 C 221.078125 67.25 221.0625 67.800781 220.730469 68.148438 Z M 220.730469 68.148438 " fill-opacity="1" fill-rule="nonzero"/></g></g></g><g clip-path="url(#ab1814c61b)"><g clip-path="url(#d0c61efb41)"><g clip-path="url(#bf46bc734b)"><path fill="#38b6ff" d="M 208.464844 67.78125 L 199.691406 77.015625 C 199.503906 77.210938 199.246094 77.316406 198.980469 77.308594 L 193.320312 77.136719 C 192.949219 77.125 192.617188 76.894531 192.476562 76.550781 C 192.335938 76.203125 192.410156 75.804688 192.664062 75.535156 L 200.855469 66.917969 L 193.199219 57.824219 C 192.957031 57.539062 192.90625 57.136719 193.070312 56.796875 C 193.234375 56.457031 193.578125 56.25 193.949219 56.261719 L 199.609375 56.429688 C 199.875 56.4375 200.125 56.5625 200.300781 56.765625 L 208.503906 66.511719 C 208.816406 66.878906 208.800781 67.429688 208.464844 67.78125 Z M 208.464844 67.78125 " fill-opacity="1" fill-rule="nonzero"/></g></g></g></svg>