<svg xmlns="http://www.w3.org/2000/svg" width="450" viewBox="0 0 337.5 375" height="500" version="1.0"><defs><clipPath id="prefix__a"><path d="M0 52.777h303.75V323H0zm0 0"/></clipPath><clipPath id="prefix__b"><path d="M7.918 142.824C3.137 156.668 0 172.406 0 187.852c0 15.445 2.688 30.304 7.469 44.003.152.29.152.583.3.875 19.122 51.434 69.622 89.317 127.887 90.047H303.75v-270H135.781C77.094 53.504 26.594 90.81 7.918 142.824"/></clipPath><clipPath id="prefix__c"><path d="M0 52.777h303.75v270H0zm0 0"/></clipPath><clipPath id="prefix__d"><path d="M7.918 142.824C3.137 156.668 0 172.406 0 187.852c0 15.445 2.688 30.304 7.469 44.003.152.29.152.583.3.875 19.122 51.434 69.622 89.317 127.887 90.047H303.75v-270H135.781C77.094 53.504 26.594 90.81 7.918 142.824"/></clipPath><clipPath id="prefix__e"><path d="M33 77h217v218H33zm0 0"/></clipPath><clipPath id="prefix__f"><path d="M217.926 318.402L9.09 262.122 65.37 53.281l208.836 56.28zm0 0"/></clipPath><clipPath id="prefix__g"><path d="M113.648 290.297c57.59 15.523 116.86-18.582 132.383-76.176 15.52-57.594-18.586-116.863-76.18-132.383-57.59-15.52-116.859 18.586-132.382 76.176-15.52 57.594 18.586 116.863 76.18 132.383"/></clipPath><clipPath id="prefix__h"><path d="M33 77h217v218H33zm0 0"/></clipPath><clipPath id="prefix__i"><path d="M217.926 318.402L9.367 262.195 65.574 53.637l208.559 56.203zm0 0"/></clipPath><clipPath id="prefix__j"><path d="M217.926 318.402L6.418 261.398l57-211.507 211.508 57zm0 0"/></clipPath><clipPath id="prefix__k"><path d="M113.648 290.297c57.59 15.523 116.86-18.582 132.383-76.176 15.52-57.594-18.586-116.863-76.18-132.383-57.59-15.52-116.859 18.586-132.382 76.176-15.52 57.594 18.586 116.863 76.18 132.383"/></clipPath><clipPath id="prefix__l"><path d="M117 218h26v36h-26zm0 0"/></clipPath><clipPath id="prefix__m"><path d="M134.594 253.426l-17.555-4.66 8.188-30.856 17.558 4.656zm0 0"/></clipPath><clipPath id="prefix__n"><path d="M134.594 253.426l-17.172-4.559 8.137-30.668 17.175 4.559zm0 0"/></clipPath><clipPath id="prefix__o"><path d="M90 136h36v36H90zm0 0"/></clipPath><clipPath id="prefix__p"><path d="M125.844 159.191l-12.953 12.735-22.38-22.77 12.954-12.73zm0 0"/></clipPath><clipPath id="prefix__q"><path d="M125.844 159.191l-12.668 12.454L90.93 149.02l12.672-12.458zm0 0"/></clipPath><clipPath id="prefix__r"><path d="M108 154h83v82h-83zm0 0"/></clipPath><clipPath id="prefix__s"><path d="M179.207 135.3l21.871 82.34-71.508 18.997-21.87-82.34zm0 0"/></clipPath><clipPath id="prefix__t"><path d="M190.059 176.156l-59.961 59.668-21.707-81.71 81.668 22.042"/></clipPath><clipPath id="prefix__u"><path d="M164 165h36v26h-36zm0 0"/></clipPath><clipPath id="prefix__v"><path d="M195.406 165.54l4.664 17.554-30.855 8.195-4.664-17.555zm0 0"/></clipPath><clipPath id="prefix__w"><path d="M195.406 165.54l4.563 17.17-30.664 8.145-4.563-17.171zm0 0"/></clipPath><clipPath id="prefix__x"><path d="M189 141h57v56h-57zm0 0"/></clipPath><clipPath id="prefix__y"><path d="M184 148.332l54.07-13.039 13.04 54.074-54.07 13.04zm0 0"/></clipPath><clipPath id="prefix__z"><path d="M211.035 141.813c-14.93 3.601-24.117 18.625-20.515 33.554 3.601 14.934 18.625 24.117 33.554 20.52 14.934-3.602 24.117-18.625 20.516-33.559-3.598-14.93-18.621-24.117-33.555-20.516"/></clipPath><clipPath id="prefix__A"><path d="M189 141h57v56h-57zm0 0"/></clipPath><clipPath id="prefix__B"><path d="M184 148.332l53.953-13.012 13.012 53.957-53.957 13.008zm0 0"/></clipPath><clipPath id="prefix__C"><path d="M184 148.332l53.953-13.012 13.012 53.957-53.957 13.008zm0 0"/></clipPath><clipPath id="prefix__D"><path d="M210.977 141.828c-14.899 3.59-24.067 18.582-20.473 33.48 3.594 14.899 18.582 24.067 33.484 20.473 14.899-3.594 24.063-18.582 20.469-33.484-3.59-14.899-18.582-24.063-33.48-20.469"/></clipPath><clipPath id="prefix__E"><path d="M59 105h57v56H59zm0 0"/></clipPath><clipPath id="prefix__F"><path d="M87.344 93.523l39.23 39.43-39.43 39.23-39.234-39.43zm0 0"/></clipPath><clipPath id="prefix__G"><path d="M106.957 113.238c-10.832-10.886-28.441-10.933-39.332-.101-10.887 10.836-10.93 28.445-.098 39.332 10.832 10.89 28.442 10.933 39.332.101 10.887-10.836 10.93-28.445.098-39.332"/></clipPath><clipPath id="prefix__H"><path d="M59 105h56v56H59zm0 0"/></clipPath><clipPath id="prefix__I"><path d="M87.344 93.523l39.144 39.344-39.343 39.145L48 132.668zm0 0"/></clipPath><clipPath id="prefix__J"><path d="M87.344 93.523l39.144 39.344-39.343 39.145L48 132.668zm0 0"/></clipPath><clipPath id="prefix__K"><path d="M106.914 113.195c-10.809-10.863-28.379-10.91-39.242-.101-10.867 10.812-10.91 28.383-.102 39.246 10.809 10.863 28.38 10.91 39.246.097 10.864-10.808 10.907-28.378.098-39.242"/></clipPath><clipPath id="prefix__L"><path d="M95 232h56v57H95zm0 0"/></clipPath><clipPath id="prefix__M"><path d="M103.563 226.625l53.707 14.477-14.473 53.703-53.707-14.473zm0 0"/></clipPath><clipPath id="prefix__N"><path d="M130.418 233.863c-14.832-3.996-30.094 4.785-34.09 19.617-3.996 14.829 4.785 30.094 19.617 34.09 14.828 3.996 30.09-4.785 34.09-19.617 3.996-14.832-4.789-30.094-19.617-34.09"/></clipPath><clipPath id="prefix__O"><path d="M95 232h56v57H95zm0 0"/></clipPath><clipPath id="prefix__P"><path d="M103.563 226.625l53.59 14.445-14.442 53.586-53.59-14.441zm0 0"/></clipPath><clipPath id="prefix__Q"><path d="M103.563 226.625l53.59 14.445-14.442 53.586-53.59-14.441zm0 0"/></clipPath><clipPath id="prefix__R"><path d="M130.36 233.848c-14.801-3.989-30.028 4.773-34.016 19.574-3.989 14.797 4.773 30.027 19.574 34.016 14.797 3.984 30.027-4.778 34.012-19.575 3.988-14.797-4.774-30.027-19.57-34.015"/></clipPath><clipPath id="prefix__S"><path d="M210 161h15v15h-15zm0 0"/></clipPath><clipPath id="prefix__T"><path d="M222.504 160.309l3.582 13.492-13.488 3.582-3.586-13.488zm0 0"/></clipPath><clipPath id="prefix__U"><path d="M224.297 167.055a6.98 6.98 0 10-13.493 3.585 6.98 6.98 0 0013.493-3.585"/></clipPath><clipPath id="prefix__V"><path d="M80 125h15v15H80zm0 0"/></clipPath><clipPath id="prefix__W"><path d="M97.11 132.875l-9.895 9.844-9.844-9.895 9.895-9.847zm0 0"/></clipPath><clipPath id="prefix__X"><path d="M92.164 137.797a6.982 6.982 0 00.023-9.871 6.979 6.979 0 00-9.894 9.844 6.979 6.979 0 009.871.027"/></clipPath><clipPath id="prefix__Y"><path d="M117 253h15v15h-15zm0 0"/></clipPath><clipPath id="prefix__Z"><path d="M129.14 252.426l3.583 13.492-13.493 3.582-3.582-13.488zm0 0"/></clipPath><clipPath id="prefix__aa"><path d="M130.93 259.172a6.975 6.975 0 00-8.535-4.953 6.975 6.975 0 00-4.954 8.535 6.978 6.978 0 1013.489-3.582"/></clipPath><clipPath id="prefix__ab"><path d="M170 212h30v40h-30zm0 0"/></clipPath><clipPath id="prefix__ac"><path d="M167.3 248.293l30.415-36.16 10.332 8.687-30.414 36.164zm0 0"/></clipPath><clipPath id="prefix__ad"><path d="M197.836 211.988l-30.414 36.16 10.332 8.692 30.414-36.164zm0 0"/></clipPath><clipPath id="prefix__ae"><path d="M197.836 211.988l-30.414 36.16 10.332 8.692 30.414-36.164zm0 0"/></clipPath><clipPath id="prefix__af"><path d="M197 221h1v1h-1zm0 0"/></clipPath><clipPath id="prefix__ag"><path d="M167.3 248.293l30.415-36.16 10.332 8.687-30.414 36.164zm0 0"/></clipPath><clipPath id="prefix__ah"><path d="M197.836 211.988l-30.414 36.16 10.332 8.692 30.414-36.164zm0 0"/></clipPath><clipPath id="prefix__ai"><path d="M197.836 211.988l-30.414 36.16 10.332 8.692 30.414-36.164zm0 0"/></clipPath><clipPath id="prefix__aj"><path d="M68 183h23v45H68zm0 0"/></clipPath><clipPath id="prefix__ak"><path d="M78.375 181.617l12.063 45.684-13.051 3.449-12.067-45.684zm0 0"/></clipPath><clipPath id="prefix__al"><path d="M90.488 227.484l-12.066-45.683-13.05 3.445 12.062 45.684zm0 0"/></clipPath><clipPath id="prefix__am"><path d="M90.488 227.484l-12.066-45.683-13.05 3.445 12.062 45.684zm0 0"/></clipPath><clipPath id="prefix__an"><path d="M82 221h1v2h-1zm0 0"/></clipPath><clipPath id="prefix__ao"><path d="M78.375 181.617l12.063 45.684-13.051 3.449-12.067-45.684zm0 0"/></clipPath><clipPath id="prefix__ap"><path d="M90.488 227.484l-12.066-45.683-13.05 3.445 12.062 45.684zm0 0"/></clipPath><clipPath id="prefix__aq"><path d="M90.488 227.484l-12.066-45.683-13.05 3.445 12.062 45.684zm0 0"/></clipPath><clipPath id="prefix__ar"><path d="M134 115h46v20h-46zm0 0"/></clipPath><clipPath id="prefix__as"><path d="M178.219 137.422l-44.414-16.125 4.61-12.692 44.413 16.125zm0 0"/></clipPath><clipPath id="prefix__at"><path d="M133.629 121.234l44.414 16.125 4.61-12.691-44.415-16.125zm0 0"/></clipPath><clipPath id="prefix__au"><path d="M133.629 121.234l44.414 16.125 4.61-12.691-44.415-16.125zm0 0"/></clipPath><clipPath id="prefix__av"><path d="M142 117h1v1h-1zm0 0"/></clipPath><clipPath id="prefix__aw"><path d="M178.219 137.422l-44.414-16.125 4.61-12.692 44.413 16.125zm0 0"/></clipPath><clipPath id="prefix__ax"><path d="M133.629 121.234l44.414 16.125 4.61-12.691-44.415-16.125zm0 0"/></clipPath><clipPath id="prefix__ay"><path d="M133.629 121.234l44.414 16.125 4.61-12.691-44.415-16.125zm0 0"/></clipPath><clipPath id="prefix__az"><path d="M266.625 297.129H283v21h-16.375zm0 0"/></clipPath><clipPath id="prefix__aA"><path d="M278 297.129h16.785v21H278zm0 0"/></clipPath><clipPath id="prefix__aB"><path d="M229.5 297.129H246v21h-16.5zm0 0"/></clipPath><clipPath id="prefix__aC"><path d="M241 297.129h16.66v21H241zm0 0"/></clipPath><clipPath id="prefix__aD"><path d="M192.375 297.129H209v21h-16.625zm0 0"/></clipPath><clipPath id="prefix__aE"><path d="M204 297.129h16.535v21H204zm0 0"/></clipPath><clipPath id="prefix__aF"><path d="M155.25 297.129H172v21h-16.75zm0 0"/></clipPath><clipPath id="prefix__aG"><path d="M167 297.129h16.41v21H167zm0 0"/></clipPath><clipPath id="prefix__aH"><path d="M117 297h18v22h-18zm0 0"/></clipPath><clipPath id="prefix__aI"><path d="M117.945 297.379l28.496-.504.371 20.996-28.496.504zm0 0"/></clipPath><clipPath id="prefix__aJ"><path d="M146.102 296.879l-28.497.504.372 20.996 28.496-.504zm0 0"/></clipPath><clipPath id="prefix__aK"><path d="M130 296h17v22h-17zm0 0"/></clipPath><clipPath id="prefix__aL"><path d="M117.945 297.379l28.496-.504.371 20.996-28.496.504zm0 0"/></clipPath><clipPath id="prefix__aM"><path d="M146.102 296.879l-28.497.504.372 20.996 28.496-.504zm0 0"/></clipPath><clipPath id="prefix__aN"><path d="M75 282h20v22H75zm0 0"/></clipPath><clipPath id="prefix__aO"><path d="M81.105 277.734l23.989 15.387-11.336 17.676-23.992-15.387zm0 0"/></clipPath><clipPath id="prefix__aP"><path d="M104.809 292.938L80.816 277.55 69.48 295.227l23.989 15.386zm0 0"/></clipPath><clipPath id="prefix__aQ"><path d="M85 289h20v22H85zm0 0"/></clipPath><clipPath id="prefix__aR"><path d="M81.105 277.734l23.989 15.387-11.336 17.676-23.992-15.387zm0 0"/></clipPath><clipPath id="prefix__aS"><path d="M104.809 292.938L80.816 277.55 69.48 295.227l23.989 15.386zm0 0"/></clipPath><clipPath id="prefix__aT"><path d="M39 261h21v21H39zm0 0"/></clipPath><clipPath id="prefix__aU"><path d="M48.059 255.742l20.527 19.77-14.566 15.125-20.528-19.77zm0 0"/></clipPath><clipPath id="prefix__aV"><path d="M68.34 275.277l-20.528-19.773-14.566 15.129 20.527 19.77zm0 0"/></clipPath><clipPath id="prefix__aW"><path d="M48 270h20v20H48zm0 0"/></clipPath><clipPath id="prefix__aX"><path d="M48.059 255.742l20.527 19.77-14.566 15.125-20.528-19.77zm0 0"/></clipPath><clipPath id="prefix__aY"><path d="M68.34 275.277l-20.528-19.773-14.566 15.129 20.527 19.77zm0 0"/></clipPath><clipPath id="prefix__aZ"><path d="M17 226h22v19H17zm0 0"/></clipPath><clipPath id="prefix__ba"><path d="M31.219 221.023l14.32 24.641-18.152 10.555-14.325-24.64zm0 0"/></clipPath><clipPath id="prefix__bb"><path d="M45.371 245.371l-14.324-24.64-18.156 10.554 14.324 24.64zm0 0"/></clipPath><clipPath id="prefix__bc"><path d="M23 236h22v20H23zm0 0"/></clipPath><clipPath id="prefix__bd"><path d="M31.219 221.023l14.32 24.641-18.152 10.555-14.325-24.64zm0 0"/></clipPath><clipPath id="prefix__be"><path d="M45.371 245.371l-14.324-24.64-18.156 10.554 14.324 24.64zm0 0"/></clipPath><clipPath id="prefix__bf"><path d="M8.879 171.938h21V188h-21zm0 0"/></clipPath><clipPath id="prefix__bg"><path d="M8.879 184h21v16.098h-21zm0 0"/></clipPath><clipPath id="prefix__bh"><path d="M20 121h22v20H20zm0 0"/></clipPath><clipPath id="prefix__bi"><path d="M46.379 127.648l-16.234 23.426-17.262-11.965 16.234-23.422zm0 0"/></clipPath><clipPath id="prefix__bj"><path d="M30.34 150.793l16.234-23.426-17.261-11.96-16.235 23.425zm0 0"/></clipPath><clipPath id="prefix__bk"><path d="M13 131h22v20H13zm0 0"/></clipPath><clipPath id="prefix__bl"><path d="M46.379 127.648l-16.234 23.426-17.262-11.965 16.234-23.422zm0 0"/></clipPath><clipPath id="prefix__bm"><path d="M30.34 150.793l16.234-23.426-17.261-11.96-16.235 23.425zm0 0"/></clipPath><clipPath id="prefix__bn"><path d="M47 87h19v21H47zm0 0"/></clipPath><clipPath id="prefix__bo"><path d="M72.52 97.336L51.426 116.5l-14.121-15.543 21.093-19.164zm0 0"/></clipPath><clipPath id="prefix__bp"><path d="M51.676 116.27L72.77 97.105 58.648 81.562l-21.093 19.165zm0 0"/></clipPath><clipPath id="prefix__bq"><path d="M37 96h20v20H37zm0 0"/></clipPath><clipPath id="prefix__br"><path d="M72.52 97.336L51.426 116.5l-14.121-15.543 21.093-19.164zm0 0"/></clipPath><clipPath id="prefix__bs"><path d="M51.676 116.27L72.77 97.105 58.648 81.562l-21.093 19.165zm0 0"/></clipPath><clipPath id="prefix__bt"><path d="M81 66h20v22H81zm0 0"/></clipPath><clipPath id="prefix__bu"><path d="M104.922 81.059L79.344 93.633l-9.266-18.848 25.578-12.57zm0 0"/></clipPath><clipPath id="prefix__bv"><path d="M79.648 93.48l25.579-12.57-9.266-18.847-25.578 12.574zm0 0"/></clipPath><clipPath id="prefix__bw"><path d="M70 71h20v23H70zm0 0"/></clipPath><clipPath id="prefix__bx"><path d="M104.922 81.059L79.344 93.633l-9.266-18.848 25.578-12.57zm0 0"/></clipPath><clipPath id="prefix__by"><path d="M79.648 93.48l25.579-12.57-9.266-18.847-25.578 12.574zm0 0"/></clipPath><clipPath id="prefix__bz"><path d="M130 57.016h16.285V78H130zm0 0"/></clipPath><clipPath id="prefix__bA"><path d="M118.125 57.016H135V78h-16.875zm0 0"/></clipPath><clipPath id="prefix__bB"><path d="M166 56h17v22h-17zm0 0"/></clipPath><clipPath id="prefix__bC"><path d="M182.512 78.012l-28.489-.856.633-20.992 28.489.86zm0 0"/></clipPath><clipPath id="prefix__bD"><path d="M154.363 77.164l28.489.86.632-20.989-28.488-.86zm0 0"/></clipPath><clipPath id="prefix__bE"><path d="M154 56h17v22h-17zm0 0"/></clipPath><clipPath id="prefix__bF"><path d="M182.512 78.012l-28.489-.856.633-20.992 28.489.86zm0 0"/></clipPath><clipPath id="prefix__bG"><path d="M154.363 77.164l28.489.86.632-20.989-28.488-.86zm0 0"/></clipPath><clipPath id="prefix__bH"><path d="M278 56h17v22h-17zm0 0"/></clipPath><clipPath id="prefix__bI"><path d="M294.164 78.012l-28.488-.856.633-20.992 28.488.86zm0 0"/></clipPath><clipPath id="prefix__bJ"><path d="M266.016 77.164l28.488.86.633-20.989-28.489-.86zm0 0"/></clipPath><clipPath id="prefix__bK"><path d="M266 56h17v22h-17zm0 0"/></clipPath><clipPath id="prefix__bL"><path d="M294.164 78.012l-28.488-.856.633-20.992 28.488.86zm0 0"/></clipPath><clipPath id="prefix__bM"><path d="M266.016 77.164l28.488.86.633-20.989-28.489-.86zm0 0"/></clipPath><clipPath id="prefix__bN"><path d="M241 56h17v22h-17zm0 0"/></clipPath><clipPath id="prefix__bO"><path d="M257.04 78.012l-28.49-.856.634-20.992 28.488.86zm0 0"/></clipPath><clipPath id="prefix__bP"><path d="M228.89 77.164l28.489.86.633-20.989-28.489-.86zm0 0"/></clipPath><clipPath id="prefix__bQ"><path d="M228 56h18v22h-18zm0 0"/></clipPath><clipPath id="prefix__bR"><path d="M257.04 78.012l-28.49-.856.634-20.992 28.488.86zm0 0"/></clipPath><clipPath id="prefix__bS"><path d="M228.89 77.164l28.489.86.633-20.989-28.489-.86zm0 0"/></clipPath><clipPath id="prefix__bT"><path d="M204 56h17v22h-17zm0 0"/></clipPath><clipPath id="prefix__bU"><path d="M220.523 78.012l-28.488-.856.633-20.992 28.488.86zm0 0"/></clipPath><clipPath id="prefix__bV"><path d="M192.375 77.164l28.488.86.633-20.989-28.488-.86zm0 0"/></clipPath><clipPath id="prefix__bW"><path d="M192 56h17v22h-17zm0 0"/></clipPath><clipPath id="prefix__bX"><path d="M220.523 78.012l-28.488-.856.633-20.992 28.488.86zm0 0"/></clipPath><clipPath id="prefix__bY"><path d="M192.375 77.164l28.488.86.633-20.989-28.488-.86zm0 0"/></clipPath></defs><g clip-path="url(#prefix__a)"><g clip-path="url(#prefix__b)"><path fill="#919191" d="M303.75 52.777V323.04H-.133V52.777zm0 0"/></g></g><g clip-path="url(#prefix__c)"><g clip-path="url(#prefix__d)"><path fill="none" d="M7.918 142.824C3.137 156.668 0 172.406 0 187.852c0 15.445 2.687 30.304 7.469 44.003.152.29.152.583.3.875 19.122 51.434 69.622 89.317 127.887 90.047H303.75v-270H135.781C77.094 53.504 26.594 90.81 7.918 142.824" stroke="#000" stroke-width="3"/></g></g><g clip-path="url(#prefix__e)"><g clip-path="url(#prefix__f)"><g clip-path="url(#prefix__g)"><path fill="#707070" d="M217.926 318.402L9.62 262.266 65.761 53.96l208.302 56.137zm0 0"/></g></g></g><g clip-path="url(#prefix__h)"><g clip-path="url(#prefix__i)"><g clip-path="url(#prefix__j)"><g clip-path="url(#prefix__k)"><path fill="none" d="M113.648 290.297c57.59 15.523 116.86-18.582 132.383-76.176 15.52-57.594-18.586-116.863-76.18-132.383-57.59-15.52-116.859 18.586-132.382 76.176-15.52 57.594 18.586 116.863 76.18 132.383" stroke="#000" stroke-width="6"/></g></g></g></g><g clip-path="url(#prefix__l)"><g clip-path="url(#prefix__m)"><g clip-path="url(#prefix__n)"><path fill="#ffde59" d="M134.594 253.426l-17.024-4.52 8.188-30.855 17.027 4.515zm0 0"/></g></g></g><g clip-path="url(#prefix__o)"><g clip-path="url(#prefix__p)"><g clip-path="url(#prefix__q)"><path fill="#ffde59" d="M125.844 159.191L113.28 171.54l-22.379-22.766 12.563-12.347zm0 0"/></g></g></g><g clip-path="url(#prefix__r)"><g clip-path="url(#prefix__s)"><g clip-path="url(#prefix__t)"><path fill="#ffde59" d="M179.207 135.3l21.68 81.618-70.785 18.805-21.68-81.621zm0 0"/></g></g></g><g clip-path="url(#prefix__u)"><g clip-path="url(#prefix__v)"><g clip-path="url(#prefix__w)"><path fill="#ffde59" d="M195.406 165.54l4.524 17.023-30.856 8.195-4.523-17.024zm0 0"/></g></g></g><g clip-path="url(#prefix__x)"><g clip-path="url(#prefix__y)"><g clip-path="url(#prefix__z)"><path fill="#ffde59" d="M184 148.332l54.07-13.039 13.04 54.074-54.07 13.04zm0 0"/></g></g></g><g clip-path="url(#prefix__A)"><g clip-path="url(#prefix__B)"><g clip-path="url(#prefix__C)"><g clip-path="url(#prefix__D)"><path d="M211.68 144.738c-5.403 1.301-9.852 4.098-13.356 8.383l-4.637-3.789c4.352-5.328 9.883-8.797 16.586-10.414zm-14.934 10.543c-3.035 4.656-4.355 9.735-3.965 15.246l-5.972.422c-.489-6.847 1.152-13.16 4.921-18.937zm-3.633 17.89c.086.481.188.962.301 1.434 1.18 4.887 3.61 9.024 7.293 12.41l-4.05 4.41c-4.579-4.21-7.598-9.347-9.063-15.413-.14-.59-.266-1.18-.375-1.778zm9.66 15.548c4.477 3.3 9.473 4.918 14.997 4.847l.078 5.985c-6.864.09-13.075-1.918-18.63-6.016zm17.649 4.668c.96-.114 1.914-.29 2.863-.516 4.383-1.059 8.188-3.144 11.406-6.266l4.164 4.301c-4 3.88-8.722 6.473-14.167 7.785a31.401 31.401 0 01-3.547.641zm16.082-8.739c3.555-4.273 5.457-9.168 5.715-14.687l5.98.277c-.316 6.856-2.68 12.934-7.09 18.239zm5.691-17.359a24.687 24.687 0 00-.648-4.289c-.938-3.887-2.7-7.336-5.293-10.344l4.539-3.906c3.219 3.738 5.41 8.02 6.574 12.848.426 1.754.692 3.527.805 5.316zm-7.789-16.555c-4.054-3.793-8.836-5.98-14.332-6.558l.625-5.953c6.828.718 12.762 3.43 17.797 8.136zm-17.004-6.691a24.69 24.69 0 00-5.722.695l-1.407-5.82a30.591 30.591 0 017.106-.863zm0 0"/></g></g></g></g><g clip-path="url(#prefix__E)"><g clip-path="url(#prefix__F)"><g clip-path="url(#prefix__G)"><path fill="#ffde59" d="M87.344 93.523l39.23 39.43-39.43 39.23-39.234-39.43zm0 0"/></g></g></g><g clip-path="url(#prefix__H)"><g clip-path="url(#prefix__I)"><g clip-path="url(#prefix__J)"><g clip-path="url(#prefix__K)"><path d="M104.793 115.305c-3.918-3.938-8.617-6.29-14.102-7.055l.829-5.93c6.812.953 12.652 3.875 17.515 8.762zm-16.766-7.282c-5.554-.175-10.586 1.336-15.09 4.532l-3.464-4.883c5.601-3.973 11.847-5.852 18.742-5.633zm-17.175 6.192c-.368.324-.723.656-1.07 1.004-3.563 3.543-5.837 7.77-6.813 12.676l-5.871-1.172c1.215-6.098 4.035-11.348 8.46-15.75.43-.426.872-.84 1.325-1.243zm-8.266 16.328c-.496 5.539.719 10.652 3.648 15.336l-5.074 3.172c-3.64-5.817-5.152-12.164-4.539-19.04zm5.176 17.508a25.43 25.43 0 001.93 2.176c3.183 3.199 6.94 5.363 11.28 6.492l-1.511 5.797c-5.39-1.407-10.063-4.094-14.012-8.067a31.186 31.186 0 01-2.39-2.695zm15.824 9.203c5.496.816 10.668-.102 15.516-2.75l2.87 5.258c-6.023 3.289-12.44 4.425-19.265 3.414zm17.789-4.156a24.537 24.537 0 003.328-2.782c2.836-2.82 4.867-6.117 6.09-9.894l5.695 1.844c-1.52 4.695-4.043 8.793-7.562 12.297a30.912 30.912 0 01-4.125 3.445zm10.102-15.254c1.132-5.438.52-10.656-1.844-15.656l5.414-2.555c2.933 6.207 3.695 12.683 2.289 19.43zm-3.118-18.008a24.693 24.693 0 00-3.566-4.531l4.242-4.223a30.78 30.78 0 014.43 5.621zm0 0"/></g></g></g></g><g clip-path="url(#prefix__L)"><g clip-path="url(#prefix__M)"><g clip-path="url(#prefix__N)"><path fill="#ffde59" d="M103.563 226.625l53.707 14.477-14.473 53.703-53.707-14.473zm0 0"/></g></g></g><g clip-path="url(#prefix__O)"><g clip-path="url(#prefix__P)"><g clip-path="url(#prefix__Q)"><g clip-path="url(#prefix__R)"><path d="M129.578 236.738c-5.363-1.445-10.61-1.125-15.738.957l-2.254-5.547c6.375-2.59 12.89-2.984 19.55-1.191zm-18.156 2.094c-4.895 2.633-8.492 6.461-10.79 11.48l-5.445-2.488c2.856-6.242 7.32-10.996 13.399-14.265zm-11.766 13.965c-.152.46-.293.93-.422 1.402-1.308 4.856-1.156 9.649.454 14.387l-5.668 1.926c-2.004-5.887-2.192-11.844-.567-17.871a29.54 29.54 0 01.524-1.735zm1.028 18.273c2.343 5.043 5.957 8.856 10.84 11.442l-2.801 5.289c-6.067-3.211-10.555-7.95-13.47-14.207zm13.25 12.555c.898.36 1.82.668 2.761.922 4.356 1.172 8.692 1.16 13.012-.031l1.598 5.77c-5.371 1.484-10.762 1.5-16.168.038a30.802 30.802 0 01-3.422-1.137zm18.304.04c5.168-2.048 9.184-5.43 12.055-10.15l5.117 3.11c-3.566 5.863-8.555 10.066-14.965 12.605zm13.317-12.509a24.628 24.628 0 001.484-4.074c1.043-3.86 1.149-7.73.313-11.613l5.855-1.254c1.035 4.824.906 9.633-.387 14.426a30.696 30.696 0 01-1.84 5.05zm1.097-18.261c-1.742-5.274-4.886-9.48-9.433-12.625l3.402-4.926c5.649 3.906 9.555 9.129 11.719 15.672zm-11.714-14.024a24.987 24.987 0 00-5.36-2.133l1.559-5.781a30.83 30.83 0 016.648 2.648zm0 0"/></g></g></g></g><g clip-path="url(#prefix__S)"><g clip-path="url(#prefix__T)"><g clip-path="url(#prefix__U)"><path fill="#707070" d="M222.504 160.309l3.582 13.492-13.488 3.582-3.586-13.488zm0 0"/></g></g></g><g clip-path="url(#prefix__V)"><g clip-path="url(#prefix__W)"><g clip-path="url(#prefix__X)"><path fill="#707070" d="M97.11 132.875l-9.895 9.844-9.844-9.895 9.895-9.847zm0 0"/></g></g></g><g clip-path="url(#prefix__Y)"><g clip-path="url(#prefix__Z)"><g clip-path="url(#prefix__aa)"><path fill="#707070" d="M129.14 252.426l3.583 13.492-13.493 3.582-3.582-13.488zm0 0"/></g></g></g><g clip-path="url(#prefix__ab)"><g clip-path="url(#prefix__ac)"><g clip-path="url(#prefix__ad)"><g clip-path="url(#prefix__ae)"><path fill="#fff" d="M197.645 212.824a.112.112 0 01.093.059c.145 0 .219-.219.399-.117.449-.04.62.265.746.617.351.988.535 2.015.656 3.05.43 3.712.063 7.329-.953 10.915-1.77 6.254-5.422 11.175-10.461 15.136-2.332 1.836-4.95 3.227-7.633 4.496-1.578.747-3.195 1.391-4.797 2.083-.07-.004-.136-.004-.207-.004-.05.054-.129.105-.144.171-.016.055.058.075.117.047.668.168 1.348.192 2.031.176.465-.012.918.016 1.36.176 1.003-.031 1.632.469 1.78 1.371-1.745.957-3.612.863-5.507.617-.703-.094-1.41-.137-2.117-.191-1.692-.133-1.442-.211-2.063-1.446a2.809 2.809 0 01-.254-.89c-.015-.113-.02-.219.059-.313-.14-.324.047-.55.238-.761.575-.633 1.153-1.254 1.73-1.883.04-.2.18-.324.329-.438.031-.203.18-.324.316-.453 0-.144.117-.23.188-.34.922-1.48 1.668-3.047 2.137-4.738.039-.129.082-.25.125-.375.046-.152.101-.32.28-.32.134 0 .266.14.282.254.078.507.453.89.57 1.375.051.214.012.433-.035.656-.332 1.703-.96 3.297-1.758 4.828-.07.137-.164.266-.203.414-.047.168.086.223.235.242.093-.148.23-.199.398-.16.113-.117.234-.223.418-.176.012-.043.04-.054.078-.035.106-.117.223-.203.395-.172.09-.058.172-.136.27-.18 1.073-.503 2.155-.988 3.222-1.5.969-.464 1.922-.96 2.883-1.445.238-.16.468-.328.71-.476 2.352-1.453 4.485-3.172 6.356-5.207.668-.727 1.313-1.473 1.965-2.215.039-.211.195-.328.351-.453.032-.203.176-.32.325-.438.015-.199.164-.3.289-.422 0-.132.074-.21.18-.273.003-.047.027-.078.074-.09 0-.144.113-.23.18-.34.316-.547.73-1.031.984-1.617.07-.012.207-.133.136.098-.043.152-.015.187.04.183.046-.007.113-.047.167-.07.95-1.754 1.672-3.605 2.278-5.508l.117-.547c.234-1.086.473-2.172.71-3.254a.191.191 0 01-.015-.12.228.228 0 01.043-.071.158.158 0 01.024-.188c-.035-.066-.024-.128.027-.183-.035-.07-.027-.133.027-.188a.148.148 0 01.02-.187c-.04-.066-.031-.129.023-.184v-.004c-.039-.066-.035-.129.02-.183a2.68 2.68 0 01.016-.184l.003-.008c-.043-.066-.035-.125.016-.18v-.007c-.039-.066-.035-.125.016-.184l.004-.004v-.004.004c-.043-.066-.04-.129.015-.183v-.004c-.043-.066-.039-.129.016-.184v-.004c-.043-.066-.04-.129.012-.187l.023-1.734c.098-.297.047-.606.035-.907a.189.189 0 00-.097-.023.216.216 0 00-.141.039c-.031-.23-.078-.457-.008-.684a.36.36 0 00.04-.21c-.013.07-.024.14-.04.21-.023-.07-.039-.14.024-.195-.075-.09-.083-.191-.047-.297-.047-.058-.059-.117-.012-.18-.031-.07-.047-.136 0-.207a.111.111 0 01-.02-.105 1.458 1.458 0 01-.062-.66c-.043-.16-.09-.313-.047-.477-.066-.09-.055-.191-.05-.293-.165-.613-.22-1.258-.516-1.867.238 0 .379-.215.586-.09zm-21.48 34.145c0-.004 0-.004.003-.004v0c-.004 0-.004-.004-.004-.004v.008zm22.148-26.02c0 .016 0 .031.003.047v-.012c.004-.015.004-.027.004-.039 0 0-.004 0-.007.004zm-.594 1.98c0 .005 0 0 .004.005h.031zm.652-2.011l-.047.023c0 .016-.004.028-.004.04a.091.091 0 01.051-.063zm-.055.148c-.004.016-.004.028-.004.043.004 0 0 .004.004.004 0-.015-.004-.031 0-.047zm.004-7.238c0-.004 0-.004.004-.008h-.004v-.004.012zm.075.274s.003.003.003.007c-.003-.004-.003-.007-.003-.007zm-.504 2.785l.043-.012c-.008-.008-.012-.016-.02-.02-.008.012-.016.02-.023.032zm-.098-.489a.133.133 0 00-.02-.074v.004a.16.16 0 01.02.07zm0 0"/></g></g></g></g><g clip-path="url(#prefix__af)"><g clip-path="url(#prefix__ag)"><g clip-path="url(#prefix__ah)"><g clip-path="url(#prefix__ai)"><path fill="#fff" d="M197.898 221.438c-.003.062-.011.12-.015.183-.04-.066-.035-.129.015-.184zm0 0"/></g></g></g></g><g clip-path="url(#prefix__aj)"><g clip-path="url(#prefix__ak)"><g clip-path="url(#prefix__al)"><g clip-path="url(#prefix__am)"><path fill="#fff" d="M89.914 226.848a.1.1 0 01-.105.039c-.082.12.058.308-.13.394-.226.39-.574.36-.937.258-1.012-.281-1.953-.723-2.87-1.219-3.282-1.785-6.028-4.168-8.376-7.062-4.098-5.047-6.02-10.867-6.355-17.266-.16-2.965.21-5.906.714-8.832.301-1.719.7-3.414 1.063-5.12.039-.056.078-.11.121-.165-.02-.078-.016-.164-.059-.219v-.004c-.035-.039-.093.012-.109.07-.52.454-.93.997-1.308 1.563-.262.387-.543.742-.93 1.012-.551.836-1.32 1.062-2.149.664.227-1.977 1.38-3.45 2.668-4.856.48-.523.926-1.074 1.38-1.62 1.081-1.31 1-1.063 2.366-.856.309.043.598.16.875.305.102.05.188.109.22.226.347.07.425.356.487.633.188.832.364 1.664.543 2.5.141.144.16.332.168.523.149.141.164.329.188.516.121.082.121.227.172.348.68 1.61 1.531 3.117 2.644 4.476.082.102.157.211.235.317.097.125.207.265.101.414-.078.11-.27.136-.37.082-.462-.227-.99-.14-1.454-.324-.203-.083-.36-.239-.516-.403-1.199-1.254-2.14-2.687-2.937-4.219-.07-.136-.121-.285-.219-.402-.113-.137-.234-.059-.332.05.067.165.027.302-.101.419.03.16.046.32-.098.441.027.035.023.063-.016.086.035.153.04.301-.086.418 0 .11.012.219-.007.328-.207 1.164-.434 2.328-.63 3.496-.175 1.063-.32 2.13-.476 3.192-.008.285-.004.57-.023.855-.16 2.758.015 5.492.601 8.192.211.964.453 1.922.68 2.882.152.153.16.352.172.547.148.145.156.332.172.52.148.129.148.308.175.48.106.075.13.184.121.301.036.031.047.07.032.113.117.086.12.227.176.344.261.574.421 1.192.757 1.735-.039.066-.015.246-.164.058-.097-.125-.144-.125-.172-.074-.02.043-.027.117-.039.176.891 1.785 1.985 3.445 3.192 5.03.129.138.254.278.379.415.754.816 1.504 1.637 2.257 2.453a.158.158 0 01.102.059.15.15 0 01.04.074c.073.012.116.055.136.129.074.008.117.055.133.125.078.012.125.055.14.129.078.008.125.05.137.125.082.008.125.05.14.125l.004.004c.075.004.122.047.137.12h.004c.047.04.094.079.137.122l.008.004c.074.004.12.043.136.117l.004.004c.078.008.125.043.14.12l.005.005h0c.078 0 .125.043.14.117l.004.004c.078.004.125.043.141.117h.004c.078.008.125.047.144.121.47.34.938.676 1.403 1.016.187.254.472.387.726.55a.234.234 0 00.075-.062.21.21 0 00.046-.14c.207.105.418.195.563.386.039.063.086.117.152.153-.05-.051-.101-.098-.152-.153.074.024.14.051.148.133a.294.294 0 01.27.133c.074-.008.129.02.152.094.078.011.14.039.172.117.04 0 .07.012.094.043.219.066.414.176.582.332.152.054.305.105.414.234.11 0 .187.07.266.13.601.218 1.156.542 1.824.651-.137.196-.043.434-.262.532zm-15.559-37.22c.004 0 .004 0 .004.005-.004 0-.004-.004-.004-.004 0 .004.004.004.004.004h.004c-.004-.004-.004-.004-.008-.004zm8.532 33.087a.344.344 0 01-.04-.024c0 .004.005.008.008.012l.028.024c0-.004 0-.008.004-.012zm-1.282-1.625h-.003c0 .004-.004.008-.008.012l-.008.015.02-.027s0 .004.003 0c-.004.004-.004 0-.004 0zm1.274 1.695c0-.02.004-.039.004-.055-.008-.007-.02-.015-.028-.027.02.024.028.05.024.082zm-.09-.133a.215.215 0 00-.035-.027h-.004c.012.008.027.016.04.027zm5.914 4.172s.004 0 .004.004h.008c-.004-.004-.008-.004-.012-.004zm-.266-.101c-.003.004-.007.004-.007 0 .004 0 .007.004.007 0zm-1.988-2.012l-.015.039h.027a.492.492 0 00-.012-.04zm.457.203c.02.012.043.02.07.024v-.004a.186.186 0 01-.07-.02zm0 0"/></g></g></g></g><g clip-path="url(#prefix__an)"><g clip-path="url(#prefix__ao)"><g clip-path="url(#prefix__ap)"><g clip-path="url(#prefix__aq)"><path fill="#fff" d="M82.723 222.098c-.047-.04-.094-.082-.141-.118.078.004.125.043.14.118zm0 0"/></g></g></g></g><g clip-path="url(#prefix__ar)"><g clip-path="url(#prefix__as)"><g clip-path="url(#prefix__at)"><g clip-path="url(#prefix__au)"><path fill="#fff" d="M134.48 121.125a.11.11 0 01.024-.11c-.05-.136-.281-.128-.25-.331-.188-.41.035-.676.324-.914.809-.672 1.707-1.196 2.64-1.665 3.337-1.68 6.86-2.578 10.575-2.859 6.484-.488 12.363 1.25 17.812 4.617 2.528 1.563 4.73 3.543 6.844 5.625 1.246 1.227 2.41 2.52 3.606 3.79l.066.195c.07.027.145.082.211.078h.004c.055-.008.047-.086.004-.13-.074-.687-.285-1.331-.535-1.964-.168-.437-.301-.871-.301-1.34-.375-.933-.121-1.695.676-2.144 1.496 1.312 2.05 3.097 2.468 4.96.157.692.36 1.372.551 2.055.457 1.633.301 1.426-.648 2.434a2.791 2.791 0 01-.75.543c-.102.055-.2.094-.313.05-.254.247-.531.15-.797.04-.789-.32-1.574-.649-2.363-.977-.2.031-.363-.058-.527-.16-.2.043-.363-.055-.528-.14-.14.05-.257-.028-.386-.055-1.707-.36-3.434-.52-5.184-.383-.133.012-.266.012-.394.015-.16.008-.336.016-.399-.152-.047-.129.043-.3.145-.355.449-.246.68-.73 1.093-1.004.184-.125.403-.164.625-.196 1.715-.273 3.43-.23 5.141-.011.152.02.305.062.457.05.176-.015.18-.16.149-.3-.172-.04-.266-.149-.29-.32-.148-.07-.289-.145-.304-.337-.047.004-.067-.015-.063-.058-.144-.059-.27-.14-.297-.313-.086-.062-.187-.113-.261-.191-.84-.836-1.668-1.684-2.516-2.512-.773-.75-1.566-1.472-2.351-2.207-.231-.172-.465-.328-.688-.508-2.176-1.703-4.523-3.12-7.078-4.175-.91-.375-1.836-.723-2.754-1.082-.211.035-.379-.07-.547-.176-.203.043-.363-.055-.523-.153-.192.051-.34-.054-.496-.128-.122.046-.223.003-.317-.075-.047.012-.082.004-.11-.035-.136.047-.257-.031-.382-.055-.621-.109-1.219-.332-1.856-.367-.035-.066-.195-.152.043-.164.16-.011.184-.05.16-.097-.023-.043-.081-.09-.12-.133-1.977-.29-3.965-.332-5.958-.246-.183.027-.367.05-.554.074l-3.301.457a.178.178 0 01-.105.05.15.15 0 01-.082-.011c-.055.055-.118.066-.184.04-.05.054-.113.065-.184.038-.05.059-.113.07-.183.04-.051.058-.114.073-.184.042-.05.063-.11.074-.18.043l-.003.004c-.047.059-.11.074-.18.043h-.004c-.055.02-.113.035-.176.047l-.004.004c-.05.058-.11.074-.18.047h-.003c-.051.058-.106.074-.18.047h-.004l-.004.003.004-.003c-.047.062-.105.078-.18.05h-.004c-.046.063-.105.078-.175.047h-.004c-.047.063-.11.082-.18.055l-1.637.574c-.312.008-.582.164-.863.281a.269.269 0 00.008.098.248.248 0 00.086.117c-.203.11-.399.235-.637.242a.36.36 0 00-.21.04c.07-.016.14-.028.21-.04-.058.047-.12.086-.191.047-.059.102-.153.14-.266.145-.035.066-.086.097-.164.074-.05.055-.11.09-.191.07-.024.032-.051.055-.09.055a1.51 1.51 0 01-.602.29c-.133.093-.261.19-.43.206-.062.09-.163.113-.257.145-.524.367-1.106.636-1.578 1.129-.082-.227-.332-.286-.286-.52zm39.45 8.43h-.004-.004.004l-.004.004c.004 0 .004 0 .008-.004zm-32.047-11.852a.182.182 0 00.039-.02c-.004.004-.008.004-.012.004-.012.004-.023.004-.035.012 0 0 .004 0 .008.004zm2.062-.121c.004-.004 0-.004 0-.004 0-.004 0-.012-.004-.016l-.007-.015.011.031c0 .004 0 0-.004.004.004-.004.004 0 .004 0zm-2.117.078c.016.012.027.024.043.035l.035-.011a.098.098 0 01-.078-.024zm.16 0l.043-.012c0-.003 0-.003.004-.003-.015.007-.031.011-.047.015zm-6.797 2.485h-.007l-.004.003c.004 0 .004 0 .011-.003zm.23-.165s.005-.003.009-.003c-.004 0-.008.003-.008.003zm2.79-.484c-.008-.012-.016-.02-.024-.035a.082.082 0 00-.015.023l.039.012zm-.426.258a.14.14 0 00-.062.047h.004c.02-.02.035-.035.058-.047zm0 0"/></g></g></g></g><g clip-path="url(#prefix__av)"><g clip-path="url(#prefix__aw)"><g clip-path="url(#prefix__ax)"><g clip-path="url(#prefix__ay)"><path fill="#fff" d="M142.48 117.922l.18-.047c-.05.063-.11.078-.18.047zm0 0"/></g></g></g></g><path transform="matrix(.74987 .00605 -.00605 .74998 136.49 77.868)" fill="none" d="M-.002 1.999L223.036 2" stroke="#000" stroke-width="4"/><path transform="matrix(.75062 -.00364 .00364 .75 135.126 291.168)" fill="none" d="M0 2l224.814.002" stroke="#000" stroke-width="4"/><g clip-path="url(#prefix__az)"><path fill="#5ce1e6" d="M266.715 306.992l8.492-9.492a.946.946 0 01.703-.316h5.664a.95.95 0 01.863.562.956.956 0 01-.164 1.02l-7.921 8.863 7.921 8.855a.95.95 0 01-.7 1.586h-5.663a.971.971 0 01-.703-.312l-8.492-9.496a.959.959 0 010-1.27zm0 0"/></g><g clip-path="url(#prefix__aA)"><path fill="#5ce1e6" d="M278.984 306.992l8.493-9.492a.94.94 0 01.703-.316h5.66a.947.947 0 01.703 1.582l-7.926 8.863 7.926 8.855c.25.282.312.68.16 1.024a.94.94 0 01-.863.562h-5.66a.965.965 0 01-.703-.312l-8.493-9.496a.95.95 0 010-1.27zm0 0"/></g><g clip-path="url(#prefix__aB)"><path fill="#38b6ff" d="M229.59 306.992l8.492-9.492a.946.946 0 01.703-.316h5.664a.95.95 0 01.863.562.956.956 0 01-.164 1.02l-7.921 8.863 7.921 8.855c.25.282.317.68.165 1.024a.95.95 0 01-.864.562h-5.664a.971.971 0 01-.703-.312l-8.492-9.496a.959.959 0 010-1.27zm0 0"/></g><g clip-path="url(#prefix__aC)"><path fill="#38b6ff" d="M241.86 306.992l8.492-9.492a.94.94 0 01.703-.316h5.66a.947.947 0 01.703 1.582l-7.926 8.863 7.926 8.855c.25.282.312.68.16 1.024a.94.94 0 01-.863.562h-5.66a.965.965 0 01-.703-.312l-8.493-9.496a.95.95 0 010-1.27zm0 0"/></g><g clip-path="url(#prefix__aD)"><path fill="#38b6ff" d="M192.465 306.992l8.492-9.492a.946.946 0 01.703-.316h5.664a.95.95 0 01.863.562.956.956 0 01-.164 1.02l-7.921 8.863 7.921 8.855c.25.282.317.68.165 1.024a.95.95 0 01-.864.562h-5.664a.971.971 0 01-.703-.312l-8.492-9.496a.959.959 0 010-1.27zm0 0"/></g><g clip-path="url(#prefix__aE)"><path fill="#38b6ff" d="M204.734 306.992l8.493-9.492a.94.94 0 01.703-.316h5.66a.947.947 0 01.703 1.582l-7.926 8.863 7.926 8.855c.25.282.312.68.16 1.024a.94.94 0 01-.863.562h-5.66a.965.965 0 01-.703-.312l-8.493-9.496a.95.95 0 010-1.27zm0 0"/></g><g clip-path="url(#prefix__aF)"><path fill="#38b6ff" d="M155.34 306.992l8.492-9.492a.946.946 0 01.703-.316h5.664a.95.95 0 01.863.562.956.956 0 01-.164 1.02l-7.921 8.863 7.921 8.855c.25.282.317.68.165 1.024a.95.95 0 01-.864.562h-5.664a.971.971 0 01-.703-.312l-8.492-9.496a.959.959 0 010-1.27zm0 0"/></g><g clip-path="url(#prefix__aG)"><path fill="#38b6ff" d="M167.61 306.992l8.492-9.492a.94.94 0 01.703-.316h5.66a.947.947 0 01.703 1.582l-7.926 8.863 7.926 8.855c.25.282.312.68.16 1.024a.94.94 0 01-.863.562h-5.66a.965.965 0 01-.703-.312l-8.493-9.496a.95.95 0 010-1.27zm0 0"/></g><g clip-path="url(#prefix__aH)"><g clip-path="url(#prefix__aI)"><g clip-path="url(#prefix__aJ)"><path fill="#5ce1e6" d="M118.21 307.238l8.325-9.64a.936.936 0 01.695-.328l5.66-.102a.962.962 0 01.876.547.958.958 0 01-.145 1.027l-7.766 8.996 8.079 8.719a.95.95 0 01-.672 1.598l-5.664.097a.946.946 0 01-.707-.3l-8.66-9.34a.96.96 0 01-.02-1.274zm0 0"/></g></g></g><g clip-path="url(#prefix__aK)"><g clip-path="url(#prefix__aL)"><g clip-path="url(#prefix__aM)"><path fill="#5ce1e6" d="M130.477 307.023l8.324-9.644a.939.939 0 01.695-.324l5.66-.102a.945.945 0 01.875.547.952.952 0 01-.144 1.023l-7.766 9 8.082 8.715a.951.951 0 01.176 1.02.935.935 0 01-.852.578l-5.66.101a.948.948 0 01-.707-.3l-8.66-9.344a.95.95 0 01-.023-1.27zm0 0"/></g></g></g><g clip-path="url(#prefix__aN)"><g clip-path="url(#prefix__aO)"><g clip-path="url(#prefix__aP)"><path fill="#38b6ff" d="M75.855 286.086l12.274-3.406a.935.935 0 01.762.117l4.765 3.055a.948.948 0 01-.265 1.71l-11.454 3.18 1.891 11.735a.96.96 0 01-.418.949.949.949 0 01-1.031.008l-4.766-3.059a.954.954 0 01-.422-.64l-2.023-12.579a.954.954 0 01.687-1.07zm0 0"/></g></g></g><g clip-path="url(#prefix__aQ)"><g clip-path="url(#prefix__aR)"><g clip-path="url(#prefix__aS)"><path fill="#38b6ff" d="M86.18 292.71l12.277-3.405a.94.94 0 01.758.113l4.77 3.059c.312.199.476.566.421.937a.954.954 0 01-.687.774l-11.453 3.18 1.886 11.734a.951.951 0 01-1.445.957L87.941 307a.94.94 0 01-.421-.645l-2.024-12.574a.952.952 0 01.684-1.07zm0 0"/></g></g></g><g clip-path="url(#prefix__aT)"><g clip-path="url(#prefix__aU)"><g clip-path="url(#prefix__aV)"><path fill="#38b6ff" d="M41.281 262.91l12.703-.945c.27-.02.532.074.723.258l4.078 3.93a.94.94 0 01.23 1.003.943.943 0 01-.824.621l-11.851.887-.438 11.875a.955.955 0 01-.593.848.947.947 0 01-1.012-.192l-4.078-3.925a.96.96 0 01-.29-.715l.47-12.73a.954.954 0 01.882-.915zm0 0"/></g></g></g><g clip-path="url(#prefix__aW)"><g clip-path="url(#prefix__aX)"><g clip-path="url(#prefix__aY)"><path fill="#38b6ff" d="M50.117 271.422l12.703-.95c.27-.019.532.075.723.262l4.078 3.926a.95.95 0 01.234 1.004.962.962 0 01-.824.625l-11.855.883-.438 11.879a.948.948 0 01-.593.847.947.947 0 01-1.012-.191l-4.078-3.93a.967.967 0 01-.29-.71l.47-12.731a.954.954 0 01.882-.914zm0 0"/></g></g></g><g clip-path="url(#prefix__aZ)"><g clip-path="url(#prefix__ba)"><g clip-path="url(#prefix__bb)"><path fill="#38b6ff" d="M22.734 226.063l12.477 2.57a.947.947 0 01.625.449l2.844 4.895a.95.95 0 01-1.016 1.402l-11.64-2.399-3.676 11.305a.953.953 0 01-.805.653.94.94 0 01-.918-.465l-2.848-4.895a.97.97 0 01-.082-.766l3.942-12.113a.948.948 0 011.097-.637zm0 0"/></g></g></g><g clip-path="url(#prefix__bc)"><g clip-path="url(#prefix__bd)"><g clip-path="url(#prefix__be)"><path fill="#38b6ff" d="M28.898 236.668l12.477 2.57a.95.95 0 01.625.45l2.848 4.894a.95.95 0 01-1.016 1.402l-11.645-2.398-3.675 11.305a.953.953 0 01-1.723.191l-2.848-4.898a.962.962 0 01-.082-.762l3.942-12.117a.956.956 0 011.097-.637zm0 0"/></g></g></g><g clip-path="url(#prefix__bf)"><path fill="#5ce1e6" d="M20.016 172.027l9.492 8.493c.203.18.316.433.316.703v5.66a.94.94 0 01-.562.863.946.946 0 01-1.02-.16l-8.863-7.926-8.856 7.926a.955.955 0 01-1.023.16.94.94 0 01-.563-.863v-5.66c0-.27.114-.524.313-.703l9.496-8.493a.95.95 0 011.27 0zm0 0"/></g><g clip-path="url(#prefix__bg)"><path fill="#5ce1e6" d="M20.016 184.293l9.492 8.496c.203.18.316.434.316.7v5.663c0 .371-.219.711-.562.864a.953.953 0 01-1.02-.16l-8.863-7.926-8.856 7.925a.955.955 0 01-1.023.16.945.945 0 01-.563-.863v-5.664c0-.265.114-.52.313-.699l9.496-8.496c.36-.32.91-.32 1.27 0zm0 0"/></g><g clip-path="url(#prefix__bh)"><g clip-path="url(#prefix__bi)"><g clip-path="url(#prefix__bj)"><path fill="#38b6ff" d="M38.219 122.102l2.965 12.39a.936.936 0 01-.141.754l-3.227 4.656a.948.948 0 01-1.7-.324l-2.768-11.562-11.793 1.468a.955.955 0 01-.934-.449.949.949 0 01.027-1.031l3.227-4.652a.946.946 0 01.656-.399l12.645-1.574a.956.956 0 011.043.723zm0 0"/></g></g></g><g clip-path="url(#prefix__bk)"><g clip-path="url(#prefix__bl)"><g clip-path="url(#prefix__bm)"><path fill="#38b6ff" d="M31.23 132.188l2.965 12.386a.945.945 0 01-.14.758l-3.227 4.652a.951.951 0 01-.953.391.958.958 0 01-.746-.715l-2.77-11.558-11.793 1.464a.955.955 0 01-.933-.449.942.942 0 01.031-1.031l3.223-4.652a.96.96 0 01.66-.399l12.64-1.574a.953.953 0 011.043.726zm0 0"/></g></g></g><g clip-path="url(#prefix__bn)"><g clip-path="url(#prefix__bo)"><g clip-path="url(#prefix__bp)"><path fill="#38b6ff" d="M65.816 90.094l.098 12.738a.937.937 0 01-.305.703l-4.191 3.809a.943.943 0 01-1.016.164.959.959 0 01-.57-.863l-.09-11.887-11.824-1.227a.954.954 0 01-.805-.648.946.946 0 01.258-.996l4.191-3.809c.2-.18.465-.266.731-.242l12.672 1.316c.48.051.851.457.851.942zm0 0"/></g></g></g><g clip-path="url(#prefix__bq)"><g clip-path="url(#prefix__br)"><g clip-path="url(#prefix__bs)"><path fill="#38b6ff" d="M56.738 98.344l.098 12.738a.94.94 0 01-.309.703l-4.191 3.809a.948.948 0 01-1.582-.7l-.094-11.886-11.82-1.227a.954.954 0 01-.809-.648.947.947 0 01.262-1l4.187-3.805c.2-.18.465-.266.73-.242l12.673 1.316c.48.051.851.457.855.942zm0 0"/></g></g></g><g clip-path="url(#prefix__bt)"><g clip-path="url(#prefix__bu)"><g clip-path="url(#prefix__bv)"><path fill="#38b6ff" d="M100.488 72.246l-3.433 12.266a.948.948 0 01-.493.593l-5.082 2.497a.95.95 0 01-1.023-.122.958.958 0 01-.305-.988l3.203-11.449-11.02-4.453a.947.947 0 01-.593-.844.942.942 0 01.524-.887l5.082-2.5a.96.96 0 01.77-.027l11.808 4.773c.449.18.691.676.562 1.141zm0 0"/></g></g></g><g clip-path="url(#prefix__bw)"><g clip-path="url(#prefix__bx)"><g clip-path="url(#prefix__by)"><path fill="#38b6ff" d="M89.477 77.656l-3.434 12.27a.94.94 0 01-.492.59l-5.078 2.5a.95.95 0 01-1.332-1.114l3.207-11.445-11.024-4.453a.961.961 0 01-.594-.848.949.949 0 01.528-.886l5.082-2.497a.95.95 0 01.765-.03l11.813 4.773c.45.183.691.675.559 1.14zm0 0"/></g></g></g><g clip-path="url(#prefix__bz)"><path fill="#5ce1e6" d="M146.195 68.148l-8.492 9.493a.946.946 0 01-.703.316h-5.664a.95.95 0 01-.863-.562.956.956 0 01.164-1.02l7.922-8.86-7.922-8.859a.95.95 0 01.7-1.586h5.663c.266 0 .52.117.703.313l8.492 9.496c.32.36.32.91 0 1.27zm0 0"/></g><g clip-path="url(#prefix__bA)"><path fill="#5ce1e6" d="M133.926 68.148l-8.492 9.493a.94.94 0 01-.704.316h-5.66a.947.947 0 01-.703-1.582l7.926-8.86-7.926-8.859a.955.955 0 01-.16-1.023.94.94 0 01.863-.563h5.66c.27 0 .52.117.704.313l8.492 9.496a.95.95 0 010 1.27zm0 0"/></g><g clip-path="url(#prefix__bB)"><g clip-path="url(#prefix__bC)"><g clip-path="url(#prefix__bD)"><path fill="#38b6ff" d="M182.719 68.148l-8.778 9.235a.927.927 0 01-.71.293l-5.66-.168a.948.948 0 01-.844-.59.953.953 0 01.191-1.016l8.187-8.617-7.652-9.094a.951.951 0 01-.133-1.023.945.945 0 01.88-.54l5.66.173c.269.008.519.129.695.332l8.203 9.746a.96.96 0 01-.04 1.27zm0 0"/></g></g></g><g clip-path="url(#prefix__bE)"><g clip-path="url(#prefix__bF)"><g clip-path="url(#prefix__bG)"><path fill="#38b6ff" d="M170.457 67.781l-8.777 9.235a.94.94 0 01-.711.293l-5.66-.172a.946.946 0 01-.653-1.602l8.188-8.617-7.656-9.094a.956.956 0 01-.13-1.027.942.942 0 01.88-.535l5.66.168a.95.95 0 01.691.336l8.203 9.746a.955.955 0 01-.035 1.27zm0 0"/></g></g></g><g clip-path="url(#prefix__bH)"><g clip-path="url(#prefix__bI)"><g clip-path="url(#prefix__bJ)"><path fill="#5ce1e6" d="M294.371 68.148l-8.777 9.235a.927.927 0 01-.711.293l-5.66-.168a.948.948 0 01-.844-.59.953.953 0 01.191-1.016l8.188-8.617-7.653-9.094a.951.951 0 01-.132-1.023.945.945 0 01.879-.54l5.66.173c.27.008.52.129.695.332l8.203 9.746a.96.96 0 01-.039 1.27zm0 0"/></g></g></g><g clip-path="url(#prefix__bK)"><g clip-path="url(#prefix__bL)"><g clip-path="url(#prefix__bM)"><path fill="#5ce1e6" d="M282.11 67.781l-8.778 9.235a.94.94 0 01-.71.293l-5.661-.172a.946.946 0 01-.652-1.602l8.187-8.617-7.656-9.094a.956.956 0 01-.13-1.027.942.942 0 01.88-.535l5.66.168a.95.95 0 01.691.336l8.204 9.746a.955.955 0 01-.036 1.27zm0 0"/></g></g></g><g clip-path="url(#prefix__bN)"><g clip-path="url(#prefix__bO)"><g clip-path="url(#prefix__bP)"><path fill="#38b6ff" d="M257.246 68.148l-8.777 9.235a.927.927 0 01-.711.293l-5.66-.168a.948.948 0 01-.844-.59.953.953 0 01.191-1.016l8.188-8.617-7.653-9.094a.951.951 0 01-.132-1.023.945.945 0 01.879-.54l5.66.173c.27.008.52.129.695.332l8.203 9.746a.96.96 0 01-.039 1.27zm0 0"/></g></g></g><g clip-path="url(#prefix__bQ)"><g clip-path="url(#prefix__bR)"><g clip-path="url(#prefix__bS)"><path fill="#38b6ff" d="M244.984 67.781l-8.777 9.235a.94.94 0 01-.71.293l-5.661-.172a.946.946 0 01-.652-1.602l8.187-8.617-7.656-9.094a.956.956 0 01-.13-1.027.942.942 0 01.88-.535l5.66.168a.95.95 0 01.691.336l8.204 9.746a.955.955 0 01-.036 1.27zm0 0"/></g></g></g><g clip-path="url(#prefix__bT)"><g clip-path="url(#prefix__bU)"><g clip-path="url(#prefix__bV)"><path fill="#38b6ff" d="M220.73 68.148l-8.777 9.235a.927.927 0 01-.71.293l-5.661-.168a.944.944 0 01-.844-.59.953.953 0 01.192-1.016l8.187-8.617-7.656-9.094a.95.95 0 01.75-1.562l5.66.172c.27.008.516.129.691.332l8.204 9.746a.955.955 0 01-.036 1.27zm0 0"/></g></g></g><g clip-path="url(#prefix__bW)"><g clip-path="url(#prefix__bX)"><g clip-path="url(#prefix__bY)"><path fill="#38b6ff" d="M208.465 67.781l-8.774 9.235a.947.947 0 01-.71.293l-5.66-.172a.946.946 0 01-.844-.586.96.96 0 01.187-1.016l8.191-8.617-7.656-9.094a.949.949 0 01.75-1.562l5.66.168a.957.957 0 01.692.336l8.203 9.746a.95.95 0 01-.04 1.27zm0 0"/></g></g></g></svg>