<svg xmlns="http://www.w3.org/2000/svg" width="450" viewBox="0 0 337.5 375" height="500" version="1.0"><defs><clipPath id="prefix__a"><path d="M0 52.777h303.75V323H0zm0 0"/></clipPath><clipPath id="prefix__b"><path d="M7.918 142.824C3.137 156.668 0 172.406 0 187.852c0 15.445 2.688 30.304 7.469 44.003.152.29.152.583.3.875 19.122 51.434 69.622 89.317 127.887 90.047H303.75v-270H135.781C77.094 53.504 26.594 90.81 7.918 142.824"/></clipPath><clipPath id="prefix__c"><path d="M0 52.777h303.75v270H0zm0 0"/></clipPath><clipPath id="prefix__d"><path d="M7.918 142.824C3.137 156.668 0 172.406 0 187.852c0 15.445 2.688 30.304 7.469 44.003.152.29.152.583.3.875 19.122 51.434 69.622 89.317 127.887 90.047H303.75v-270H135.781C77.094 53.504 26.594 90.81 7.918 142.824"/></clipPath><clipPath id="prefix__e"><path d="M33 78h217v217H33zm0 0"/></clipPath><clipPath id="prefix__f"><path d="M182.531 333.207L-5.69 226.657l106.55-188.223 188.223 106.554zm0 0"/></clipPath><clipPath id="prefix__g"><path d="M88.543 280.004c51.91 29.383 117.809 11.125 147.191-40.781 29.387-51.907 11.13-117.805-40.78-147.192-51.907-29.383-117.806-11.125-147.188 40.781-29.387 51.907-11.13 117.805 40.777 147.192"/></clipPath><clipPath id="prefix__h"><path d="M33 78h217v217H33zm0 0"/></clipPath><clipPath id="prefix__i"><path d="M182.531 333.207L-5.44 226.797l106.41-187.969 187.972 106.41zm0 0"/></clipPath><clipPath id="prefix__j"><path d="M182.531 333.207L-8.098 225.293 99.816 34.664l190.63 107.918zm0 0"/></clipPath><clipPath id="prefix__k"><path d="M88.543 280.004c51.91 29.383 117.809 11.125 147.191-40.781 29.387-51.907 11.13-117.805-40.78-147.192-51.907-29.383-117.806-11.125-147.188 40.781-29.387 51.907-11.13 117.805 40.777 147.192"/></clipPath><clipPath id="prefix__l"><path d="M102 213h32v37h-32zm0 0"/></clipPath><clipPath id="prefix__m"><path d="M118.023 249.516l-15.843-8.887 15.62-27.844 15.84 8.887zm0 0"/></clipPath><clipPath id="prefix__n"><path d="M118.023 249.516l-15.496-8.696 15.524-27.668 15.496 8.692zm0 0"/></clipPath><clipPath id="prefix__o"><path d="M101 128h33v37h-33zm0 0"/></clipPath><clipPath id="prefix__p"><path d="M133.031 156.074l-15.719 9.102-16-27.625 15.72-9.106zm0 0"/></clipPath><clipPath id="prefix__q"><path d="M133.031 156.074l-15.375 8.903-15.902-27.457 15.375-8.903zm0 0"/></clipPath><clipPath id="prefix__r"><path d="M117 146h74v86h-74zm0 0"/></clipPath><clipPath id="prefix__s"><path d="M190.664 146.234l.664 85.196-73.988.574-.66-85.195zm0 0"/></clipPath><clipPath id="prefix__t"><path d="M190.992 188.504l-72.941 42.844-.656-84.543 73.597 41.699"/></clipPath><clipPath id="prefix__u"><path d="M167 179h32v19h-32zm0 0"/></clipPath><clipPath id="prefix__v"><path d="M198.816 179.559l.141 18.16-31.922.25-.14-18.164zm0 0"/></clipPath><clipPath id="prefix__w"><path d="M198.816 179.559l.141 17.765-31.727.246-.14-17.765zm0 0"/></clipPath><clipPath id="prefix__x"><path d="M191 160h57v57h-57zm0 0"/></clipPath><clipPath id="prefix__y"><path d="M192.059 160.05l55.617.848-.852 55.618-55.613-.848zm0 0"/></clipPath><clipPath id="prefix__z"><path d="M219.867 160.477c-15.36-.235-28 12.023-28.234 27.382-.235 15.356 12.027 27.996 27.387 28.23 15.355.235 27.996-12.023 28.23-27.382.234-15.36-12.027-27.996-27.383-28.23"/></clipPath><clipPath id="prefix__A"><path d="M191 160h57v56h-57zm0 0"/></clipPath><clipPath id="prefix__B"><path d="M192.059 160.05l55.492.848-.844 55.493-55.496-.848zm0 0"/></clipPath><clipPath id="prefix__C"><path d="M192.059 160.05l55.492.848-.844 55.493-55.496-.848zm0 0"/></clipPath><clipPath id="prefix__D"><path d="M219.805 160.473c-15.325-.23-27.938 12-28.168 27.324-.235 15.324 11.996 27.937 27.32 28.172 15.324.234 27.938-12 28.172-27.324.234-15.325-12-27.938-27.324-28.172"/></clipPath><clipPath id="prefix__E"><path d="M74 93h57v56H74zm0 0"/></clipPath><clipPath id="prefix__F"><path d="M112.11 82.883l28.167 47.96-47.964 28.169-28.165-47.965zm0 0"/></clipPath><clipPath id="prefix__G"><path d="M126.195 106.863c-7.777-13.246-24.82-17.675-38.066-9.898-13.246 7.777-17.676 24.82-9.899 38.066 7.778 13.242 24.82 17.676 38.067 9.899 13.242-7.778 17.676-24.82 9.898-38.067"/></clipPath><clipPath id="prefix__H"><path d="M74 93h56v56H74zm0 0"/></clipPath><clipPath id="prefix__I"><path d="M112.11 82.883l28.105 47.855-47.86 28.106-28.101-47.86zm0 0"/></clipPath><clipPath id="prefix__J"><path d="M112.11 82.883l28.105 47.855-47.86 28.106-28.101-47.86zm0 0"/></clipPath><clipPath id="prefix__K"><path d="M126.164 106.813c-7.762-13.22-24.766-17.641-37.98-9.88-13.22 7.762-17.641 24.766-9.88 37.981 7.762 13.215 24.766 17.64 37.981 9.879 13.215-7.762 17.637-24.766 9.88-37.98"/></clipPath><clipPath id="prefix__L"><path d="M77 225h56v57H77zm0 0"/></clipPath><clipPath id="prefix__M"><path d="M94.648 215.828l48.407 27.402-27.403 48.403-48.406-27.399zm0 0"/></clipPath><clipPath id="prefix__N"><path d="M118.852 229.527c-13.368-7.566-30.336-2.863-37.903 10.504-7.566 13.367-2.867 30.336 10.5 37.903 13.367 7.566 30.336 2.863 37.903-10.5 7.566-13.368 2.867-30.336-10.5-37.907"/></clipPath><clipPath id="prefix__O"><path d="M77 225h56v57H77zm0 0"/></clipPath><clipPath id="prefix__P"><path d="M94.648 215.828l48.297 27.34-27.34 48.3-48.296-27.343zm0 0"/></clipPath><clipPath id="prefix__Q"><path d="M94.648 215.828l48.297 27.34-27.34 48.3-48.296-27.343zm0 0"/></clipPath><clipPath id="prefix__R"><path d="M118.797 229.5c-13.336-7.55-30.27-2.86-37.82 10.477-7.551 13.34-2.86 30.27 10.48 37.82 13.336 7.55 30.27 2.86 37.82-10.477 7.547-13.34 2.856-30.27-10.48-37.82"/></clipPath><clipPath id="prefix__S"><path d="M212 181h15v15h-15zm0 0"/></clipPath><clipPath id="prefix__T"><path d="M226.363 181.246l.11 13.961-13.961.106-.11-13.958zm0 0"/></clipPath><clipPath id="prefix__U"><path d="M226.418 188.227a6.98 6.98 0 10-13.961.109 6.98 6.98 0 007.035 6.922 6.977 6.977 0 006.926-7.031"/></clipPath><clipPath id="prefix__V"><path d="M95 113h15v15H95zm0 0"/></clipPath><clipPath id="prefix__W"><path d="M111.766 123.426l-12.04 7.066-7.07-12.035 12.04-7.07zm0 0"/></clipPath><clipPath id="prefix__X"><path d="M105.746 126.96a6.98 6.98 0 10-7.07-12.038 6.98 6.98 0 007.07 12.039"/></clipPath><clipPath id="prefix__Y"><path d="M99 247h15v15H99zm0 0"/></clipPath><clipPath id="prefix__Z"><path d="M112.988 247.188l.106 13.96-13.957.106-.11-13.957zm0 0"/></clipPath><clipPath id="prefix__aa"><path d="M113.04 254.168a6.974 6.974 0 00-7.032-6.926 6.98 6.98 0 10.11 13.957 6.974 6.974 0 006.921-7.031"/></clipPath><clipPath id="prefix__ab"><path d="M154 225h37v34h-37zm0 0"/></clipPath><clipPath id="prefix__ac"><path d="M150.977 252.695l38.464-27.441 7.84 10.992-38.465 27.441zm0 0"/></clipPath><clipPath id="prefix__ad"><path d="M189.594 225.145l-38.465 27.44 7.84 10.993 38.465-27.441zm0 0"/></clipPath><clipPath id="prefix__ae"><path d="M189.594 225.145l-38.465 27.44 7.84 10.993 38.465-27.441zm0 0"/></clipPath><clipPath id="prefix__af"><path d="M187 234h1v1h-1zm0 0"/></clipPath><clipPath id="prefix__ag"><path d="M150.977 252.695l38.464-27.441 7.84 10.992-38.465 27.441zm0 0"/></clipPath><clipPath id="prefix__ah"><path d="M189.594 225.145l-38.465 27.44 7.84 10.993 38.465-27.441zm0 0"/></clipPath><clipPath id="prefix__ai"><path d="M189.594 225.145l-38.465 27.44 7.84 10.993 38.465-27.441zm0 0"/></clipPath><clipPath id="prefix__aj"><path d="M68 166h14v48H68zm0 0"/></clipPath><clipPath id="prefix__ak"><path d="M81.469 165.965l.3 47.246-13.5.086-.296-47.25zm0 0"/></clipPath><clipPath id="prefix__al"><path d="M81.77 213.398l-.297-47.246-13.5.082.297 47.25zm0 0"/></clipPath><clipPath id="prefix__am"><path d="M81.77 213.398l-.297-47.246-13.5.082.297 47.25zm0 0"/></clipPath><clipPath id="prefix__an"><path d="M75 206h1v1h-1zm0 0"/></clipPath><clipPath id="prefix__ao"><path d="M81.469 165.965l.3 47.246-13.5.086-.296-47.25zm0 0"/></clipPath><clipPath id="prefix__ap"><path d="M81.77 213.398l-.297-47.246-13.5.082.297 47.25zm0 0"/></clipPath><clipPath id="prefix__aq"><path d="M81.77 213.398l-.297-47.246-13.5.082.297 47.25zm0 0"/></clipPath><clipPath id="prefix__ar"><path d="M150 118h42v27h-42zm0 0"/></clipPath><clipPath id="prefix__as"><path d="M189.18 148.043l-38.993-26.684 7.625-11.14 38.993 26.683zm0 0"/></clipPath><clipPath id="prefix__at"><path d="M150.031 121.254l38.996 26.683 7.621-11.14-38.992-26.684zm0 0"/></clipPath><clipPath id="prefix__au"><path d="M150.031 121.254l38.996 26.683 7.621-11.14-38.992-26.684zm0 0"/></clipPath><clipPath id="prefix__av"><path d="M159 120h1v1h-1zm0 0"/></clipPath><clipPath id="prefix__aw"><path d="M189.18 148.043l-38.993-26.684 7.625-11.14 38.993 26.683zm0 0"/></clipPath><clipPath id="prefix__ax"><path d="M150.031 121.254l38.996 26.683 7.621-11.14-38.992-26.684zm0 0"/></clipPath><clipPath id="prefix__ay"><path d="M150.031 121.254l38.996 26.683 7.621-11.14-38.992-26.684zm0 0"/></clipPath><clipPath id="prefix__az"><path d="M266.625 297.129H283v21h-16.375zm0 0"/></clipPath><clipPath id="prefix__aA"><path d="M278 297.129h16.785v21H278zm0 0"/></clipPath><clipPath id="prefix__aB"><path d="M229.5 297.129H246v21h-16.5zm0 0"/></clipPath><clipPath id="prefix__aC"><path d="M241 297.129h16.66v21H241zm0 0"/></clipPath><clipPath id="prefix__aD"><path d="M192.375 297.129H209v21h-16.625zm0 0"/></clipPath><clipPath id="prefix__aE"><path d="M204 297.129h16.535v21H204zm0 0"/></clipPath><clipPath id="prefix__aF"><path d="M155.25 297.129H172v21h-16.75zm0 0"/></clipPath><clipPath id="prefix__aG"><path d="M167 297.129h16.41v21H167zm0 0"/></clipPath><clipPath id="prefix__aH"><path d="M117 297h18v22h-18zm0 0"/></clipPath><clipPath id="prefix__aI"><path d="M117.945 297.379l28.496-.504.371 20.996-28.496.504zm0 0"/></clipPath><clipPath id="prefix__aJ"><path d="M146.102 296.879l-28.497.504.372 20.996 28.496-.504zm0 0"/></clipPath><clipPath id="prefix__aK"><path d="M130 296h17v22h-17zm0 0"/></clipPath><clipPath id="prefix__aL"><path d="M117.945 297.379l28.496-.504.371 20.996-28.496.504zm0 0"/></clipPath><clipPath id="prefix__aM"><path d="M146.102 296.879l-28.497.504.372 20.996 28.496-.504zm0 0"/></clipPath><clipPath id="prefix__aN"><path d="M75 282h20v22H75zm0 0"/></clipPath><clipPath id="prefix__aO"><path d="M81.105 277.734l23.989 15.387-11.336 17.676-23.992-15.387zm0 0"/></clipPath><clipPath id="prefix__aP"><path d="M104.809 292.938L80.816 277.55 69.48 295.227l23.989 15.386zm0 0"/></clipPath><clipPath id="prefix__aQ"><path d="M85 289h20v22H85zm0 0"/></clipPath><clipPath id="prefix__aR"><path d="M81.105 277.734l23.989 15.387-11.336 17.676-23.992-15.387zm0 0"/></clipPath><clipPath id="prefix__aS"><path d="M104.809 292.938L80.816 277.55 69.48 295.227l23.989 15.386zm0 0"/></clipPath><clipPath id="prefix__aT"><path d="M39 261h21v21H39zm0 0"/></clipPath><clipPath id="prefix__aU"><path d="M48.059 255.742l20.527 19.77-14.566 15.125-20.528-19.77zm0 0"/></clipPath><clipPath id="prefix__aV"><path d="M68.34 275.277l-20.528-19.773-14.566 15.129 20.527 19.77zm0 0"/></clipPath><clipPath id="prefix__aW"><path d="M48 270h20v20H48zm0 0"/></clipPath><clipPath id="prefix__aX"><path d="M48.059 255.742l20.527 19.77-14.566 15.125-20.528-19.77zm0 0"/></clipPath><clipPath id="prefix__aY"><path d="M68.34 275.277l-20.528-19.773-14.566 15.129 20.527 19.77zm0 0"/></clipPath><clipPath id="prefix__aZ"><path d="M17 226h22v19H17zm0 0"/></clipPath><clipPath id="prefix__ba"><path d="M31.219 221.023l14.32 24.641-18.152 10.555-14.325-24.64zm0 0"/></clipPath><clipPath id="prefix__bb"><path d="M45.371 245.371l-14.324-24.64-18.156 10.554 14.324 24.64zm0 0"/></clipPath><clipPath id="prefix__bc"><path d="M23 236h22v20H23zm0 0"/></clipPath><clipPath id="prefix__bd"><path d="M31.219 221.023l14.32 24.641-18.152 10.555-14.325-24.64zm0 0"/></clipPath><clipPath id="prefix__be"><path d="M45.371 245.371l-14.324-24.64-18.156 10.554 14.324 24.64zm0 0"/></clipPath><clipPath id="prefix__bf"><path d="M8.879 171.938h21V188h-21zm0 0"/></clipPath><clipPath id="prefix__bg"><path d="M8.879 184h21v16.098h-21zm0 0"/></clipPath><clipPath id="prefix__bh"><path d="M20 121h22v20H20zm0 0"/></clipPath><clipPath id="prefix__bi"><path d="M46.379 127.648l-16.234 23.426-17.262-11.965 16.234-23.422zm0 0"/></clipPath><clipPath id="prefix__bj"><path d="M30.34 150.793l16.234-23.426-17.261-11.96-16.235 23.425zm0 0"/></clipPath><clipPath id="prefix__bk"><path d="M13 131h22v20H13zm0 0"/></clipPath><clipPath id="prefix__bl"><path d="M46.379 127.648l-16.234 23.426-17.262-11.965 16.234-23.422zm0 0"/></clipPath><clipPath id="prefix__bm"><path d="M30.34 150.793l16.234-23.426-17.261-11.96-16.235 23.425zm0 0"/></clipPath><clipPath id="prefix__bn"><path d="M47 87h19v21H47zm0 0"/></clipPath><clipPath id="prefix__bo"><path d="M72.52 97.332L51.426 116.5l-14.121-15.543 21.093-19.168zm0 0"/></clipPath><clipPath id="prefix__bp"><path d="M51.676 116.27L72.77 97.105 58.648 81.562l-21.093 19.165zm0 0"/></clipPath><clipPath id="prefix__bq"><path d="M37 96h20v20H37zm0 0"/></clipPath><clipPath id="prefix__br"><path d="M72.52 97.332L51.426 116.5l-14.121-15.543 21.093-19.168zm0 0"/></clipPath><clipPath id="prefix__bs"><path d="M51.676 116.27L72.77 97.105 58.648 81.562l-21.093 19.165zm0 0"/></clipPath><clipPath id="prefix__bt"><path d="M81 66h20v22H81zm0 0"/></clipPath><clipPath id="prefix__bu"><path d="M104.922 81.059L79.344 93.633l-9.266-18.848 25.578-12.57zm0 0"/></clipPath><clipPath id="prefix__bv"><path d="M79.648 93.48l25.579-12.57-9.266-18.847-25.578 12.574zm0 0"/></clipPath><clipPath id="prefix__bw"><path d="M70 71h20v23H70zm0 0"/></clipPath><clipPath id="prefix__bx"><path d="M104.922 81.059L79.344 93.633l-9.266-18.848 25.578-12.57zm0 0"/></clipPath><clipPath id="prefix__by"><path d="M79.648 93.48l25.579-12.57-9.266-18.847-25.578 12.574zm0 0"/></clipPath><clipPath id="prefix__bz"><path d="M130 57.012h16.285V78H130zm0 0"/></clipPath><clipPath id="prefix__bA"><path d="M118.125 57.012H135V78h-16.875zm0 0"/></clipPath><clipPath id="prefix__bB"><path d="M166 56h17v22h-17zm0 0"/></clipPath><clipPath id="prefix__bC"><path d="M182.512 78.012l-28.489-.856.633-20.992 28.489.86zm0 0"/></clipPath><clipPath id="prefix__bD"><path d="M154.363 77.164l28.489.86.632-20.989-28.488-.86zm0 0"/></clipPath><clipPath id="prefix__bE"><path d="M154 56h17v22h-17zm0 0"/></clipPath><clipPath id="prefix__bF"><path d="M182.512 78.012l-28.489-.856.633-20.992 28.489.86zm0 0"/></clipPath><clipPath id="prefix__bG"><path d="M154.363 77.164l28.489.86.632-20.989-28.488-.86zm0 0"/></clipPath><clipPath id="prefix__bH"><path d="M278 56h17v22h-17zm0 0"/></clipPath><clipPath id="prefix__bI"><path d="M294.164 78.012l-28.488-.856.633-20.992 28.488.86zm0 0"/></clipPath><clipPath id="prefix__bJ"><path d="M266.016 77.164l28.488.86.633-20.989-28.489-.86zm0 0"/></clipPath><clipPath id="prefix__bK"><path d="M266 56h17v22h-17zm0 0"/></clipPath><clipPath id="prefix__bL"><path d="M294.164 78.012l-28.488-.856.633-20.992 28.488.86zm0 0"/></clipPath><clipPath id="prefix__bM"><path d="M266.016 77.164l28.488.86.633-20.989-28.489-.86zm0 0"/></clipPath><clipPath id="prefix__bN"><path d="M241 56h17v22h-17zm0 0"/></clipPath><clipPath id="prefix__bO"><path d="M257.04 78.012l-28.49-.856.634-20.992 28.488.86zm0 0"/></clipPath><clipPath id="prefix__bP"><path d="M228.89 77.164l28.489.86.633-20.989-28.489-.86zm0 0"/></clipPath><clipPath id="prefix__bQ"><path d="M228 56h18v22h-18zm0 0"/></clipPath><clipPath id="prefix__bR"><path d="M257.04 78.012l-28.49-.856.634-20.992 28.488.86zm0 0"/></clipPath><clipPath id="prefix__bS"><path d="M228.89 77.164l28.489.86.633-20.989-28.489-.86zm0 0"/></clipPath><clipPath id="prefix__bT"><path d="M204 56h17v22h-17zm0 0"/></clipPath><clipPath id="prefix__bU"><path d="M220.523 78.012l-28.488-.856.633-20.992 28.488.86zm0 0"/></clipPath><clipPath id="prefix__bV"><path d="M192.375 77.164l28.488.86.633-20.989-28.488-.86zm0 0"/></clipPath><clipPath id="prefix__bW"><path d="M192 56h17v22h-17zm0 0"/></clipPath><clipPath id="prefix__bX"><path d="M220.523 78.012l-28.488-.856.633-20.992 28.488.86zm0 0"/></clipPath><clipPath id="prefix__bY"><path d="M192.375 77.164l28.488.86.633-20.989-28.488-.86zm0 0"/></clipPath></defs><g clip-path="url(#prefix__a)"><g clip-path="url(#prefix__b)"><path fill="#919191" d="M303.75 52.777V323.04H-.133V52.777zm0 0"/></g></g><g clip-path="url(#prefix__c)"><g clip-path="url(#prefix__d)"><path fill="none" d="M7.918 142.824C3.137 156.668 0 172.406 0 187.852c0 15.445 2.687 30.304 7.469 44.003.152.29.152.583.3.875 19.122 51.434 69.622 89.317 127.887 90.047H303.75v-270H135.781C77.094 53.504 26.594 90.81 7.918 142.824" stroke="#000" stroke-width="3"/></g></g><g clip-path="url(#prefix__e)"><g clip-path="url(#prefix__f)"><g clip-path="url(#prefix__g)"><path fill="#707070" d="M182.531 333.207L-5.21 226.93 101.07 39.187 288.81 145.47zm0 0"/></g></g></g><g clip-path="url(#prefix__h)"><g clip-path="url(#prefix__i)"><g clip-path="url(#prefix__j)"><g clip-path="url(#prefix__k)"><path fill="none" d="M88.543 280.004c51.91 29.383 117.809 11.125 147.191-40.781 29.387-51.907 11.13-117.805-40.78-147.192-51.907-29.383-117.806-11.125-147.188 40.781-29.387 51.907-11.13 117.805 40.777 147.192" stroke="#000" stroke-width="6"/></g></g></g></g><g clip-path="url(#prefix__l)"><g clip-path="url(#prefix__m)"><g clip-path="url(#prefix__n)"><path fill="#ffde59" d="M118.023 249.516l-15.363-8.618 15.621-27.843 15.36 8.617zm0 0"/></g></g></g><g clip-path="url(#prefix__o)"><g clip-path="url(#prefix__p)"><g clip-path="url(#prefix__q)"><path fill="#ffde59" d="M133.031 156.074l-15.242 8.824-16-27.625 15.242-8.828zm0 0"/></g></g></g><g clip-path="url(#prefix__r)"><g clip-path="url(#prefix__s)"><g clip-path="url(#prefix__t)"><path fill="#ffde59" d="M190.664 146.234l.656 84.45-73.238.57-.656-84.45zm0 0"/></g></g></g><g clip-path="url(#prefix__u)"><g clip-path="url(#prefix__v)"><g clip-path="url(#prefix__w)"><path fill="#ffde59" d="M198.816 179.559l.137 17.613-31.922.246-.136-17.613zm0 0"/></g></g></g><g clip-path="url(#prefix__x)"><g clip-path="url(#prefix__y)"><g clip-path="url(#prefix__z)"><path fill="#ffde59" d="M192.059 160.05l55.617.848-.852 55.618-55.613-.848zm0 0"/></g></g></g><g clip-path="url(#prefix__A)"><g clip-path="url(#prefix__B)"><g clip-path="url(#prefix__C)"><g clip-path="url(#prefix__D)"><path d="M219.758 163.469c-5.551-.086-10.559 1.511-15.02 4.789l-3.547-4.824c5.543-4.075 11.762-6.059 18.66-5.954zm-17.086 6.488c-4.102 3.75-6.649 8.344-7.64 13.777l-5.891-1.078c1.234-6.754 4.398-12.457 9.488-17.117zm-7.98 16.422c-.036.488-.055.976-.063 1.465-.078 5.027 1.246 9.636 3.969 13.836l-5.02 3.257c-3.387-5.214-5.031-10.945-4.937-17.183.011-.61.035-1.211.082-1.813zm5.484 17.46c3.512 4.313 7.949 7.126 13.316 8.434l-1.418 5.817c-6.672-1.625-12.183-5.117-16.543-10.469zm15.926 8.923c.96.129 1.925.199 2.902.21 4.512.071 8.71-1.003 12.61-3.222l2.96 5.203c-4.84 2.758-10.062 4.094-15.66 4.008a31.571 31.571 0 01-3.598-.262zm17.753-4.457c4.508-3.25 7.57-7.516 9.196-12.797l5.722 1.758c-2.015 6.558-5.82 11.859-11.41 15.894zm9.84-15.39c.27-1.423.418-2.86.442-4.317.058-4-.79-7.778-2.551-11.336l5.367-2.653c2.188 4.422 3.246 9.118 3.168 14.082a30.994 30.994 0 01-.547 5.348zm-3.418-17.977c-2.984-4.684-7.066-7.989-12.246-9.922l2.09-5.61c6.434 2.399 11.504 6.504 15.207 12.317zm-14.8-10.72a24.846 24.846 0 00-5.72-.75l.095-5.988c2.41.04 4.777.348 7.093.934zm0 0"/></g></g></g></g><g clip-path="url(#prefix__E)"><g clip-path="url(#prefix__F)"><g clip-path="url(#prefix__G)"><path fill="#ffde59" d="M112.11 82.883l28.167 47.96-47.964 28.169-28.165-47.965zm0 0"/></g></g></g><g clip-path="url(#prefix__H)"><g clip-path="url(#prefix__I)"><g clip-path="url(#prefix__J)"><g clip-path="url(#prefix__K)"><path d="M123.582 108.328c-2.812-4.789-6.777-8.238-11.898-10.348l2.28-5.539c6.36 2.621 11.29 6.907 14.782 12.856zM109.16 97.094c-5.336-1.551-10.582-1.344-15.742.629l-2.137-5.59c6.41-2.453 12.93-2.715 19.551-.785zm-18.18 1.715c-.433.222-.859.457-1.28.707-4.337 2.546-7.59 6.07-9.763 10.578l-5.394-2.598c2.7-5.601 6.742-9.984 12.121-13.144a33.165 33.165 0 011.59-.872zm-12.07 13.757c-1.863 5.239-1.957 10.493-.289 15.758l-5.707 1.809c-2.074-6.543-1.957-13.067.352-19.57zm.649 18.243c.39.886.832 1.75 1.328 2.59 2.285 3.89 5.386 6.921 9.304 9.097l-2.906 5.234c-4.87-2.703-8.726-6.468-11.562-11.3a31.378 31.378 0 01-1.641-3.207zm13.03 12.859c5.122 2.156 10.36 2.559 15.712 1.203l1.472 5.805c-6.652 1.683-13.156 1.187-19.507-1.492zm18.266.406a24.912 24.912 0 003.915-1.863c3.449-2.027 6.238-4.715 8.363-8.066l5.055 3.207c-2.641 4.168-6.106 7.507-10.387 10.023a30.796 30.796 0 01-4.852 2.309zm13.582-12.258c2.454-4.98 3.16-10.187 2.118-15.617l5.879-1.129c1.293 6.746.418 13.207-2.625 19.39zm1.473-18.214a24.774 24.774 0 00-2.328-5.274l5.164-3.031a30.834 30.834 0 012.887 6.547zm0 0"/></g></g></g></g><g clip-path="url(#prefix__L)"><g clip-path="url(#prefix__M)"><g clip-path="url(#prefix__N)"><path fill="#ffde59" d="M94.648 215.828l48.407 27.402-27.403 48.403-48.406-27.399zm0 0"/></g></g></g><g clip-path="url(#prefix__O)"><g clip-path="url(#prefix__P)"><g clip-path="url(#prefix__Q)"><g clip-path="url(#prefix__R)"><path d="M117.324 232.105c-4.836-2.738-9.996-3.734-15.484-2.996l-.797-5.933c6.816-.918 13.227.32 19.23 3.719zm-18.11-2.496c-5.394 1.328-9.831 4.137-13.308 8.43l-4.652-3.77c4.32-5.335 9.832-8.828 16.527-10.476zM84.34 240.2c-.262.41-.516.828-.758 1.254-2.477 4.375-3.523 9.055-3.144 14.043l-5.973.453c-.469-6.199.832-12.015 3.906-17.445.3-.527.613-1.047.942-1.555zm-3.559 17.953c1.016 5.465 3.567 10.063 7.649 13.782l-4.035 4.425c-5.075-4.625-8.239-10.328-9.5-17.117zm9.703 15.461a24.62 24.62 0 002.446 1.578c3.925 2.223 8.129 3.293 12.61 3.215l.108 5.985c-5.57.101-10.793-1.23-15.668-3.989a31.005 31.005 0 01-3.027-1.953zm17.72 4.602c5.515-.695 10.25-2.973 14.202-6.828l4.18 4.289c-4.914 4.789-10.79 7.617-17.633 8.48zm16.01-8.797a24.864 24.864 0 002.458-3.574c1.969-3.48 3.035-7.203 3.195-11.168l5.985.242c-.204 4.93-1.524 9.555-3.97 13.875a30.954 30.954 0 01-3.046 4.434zm5.618-17.41c-.375-5.543-2.371-10.403-5.992-14.578l4.523-3.922c4.496 5.187 6.977 11.219 7.442 18.097zm-7.852-16.504a24.837 24.837 0 00-4.656-3.399l2.95-5.21a30.782 30.782 0 015.777 4.218zm0 0"/></g></g></g></g><g clip-path="url(#prefix__S)"><g clip-path="url(#prefix__T)"><g clip-path="url(#prefix__U)"><path fill="#707070" d="M226.363 181.246l.11 13.961-13.961.106-.11-13.958zm0 0"/></g></g></g><g clip-path="url(#prefix__V)"><g clip-path="url(#prefix__W)"><g clip-path="url(#prefix__X)"><path fill="#707070" d="M111.766 123.426l-12.04 7.066-7.07-12.035 12.04-7.07zm0 0"/></g></g></g><g clip-path="url(#prefix__Y)"><g clip-path="url(#prefix__Z)"><g clip-path="url(#prefix__aa)"><path fill="#707070" d="M112.988 247.188l.106 13.96-13.957.106-.11-13.957zm0 0"/></g></g></g><g clip-path="url(#prefix__ab)"><g clip-path="url(#prefix__ac)"><g clip-path="url(#prefix__ad)"><g clip-path="url(#prefix__ae)"><path fill="#fff" d="M189.203 225.906c.04.016.063.043.07.082.141.035.27-.16.418-.015.446.074.536.414.57.785.094 1.047.016 2.086-.124 3.117-.512 3.7-1.77 7.113-3.645 10.332-3.273 5.617-8.039 9.473-13.902 12.05-2.719 1.2-5.598 1.895-8.516 2.454-1.71.328-3.441.555-5.164.82-.066-.02-.129-.035-.195-.054-.067.043-.153.07-.188.128v.004c-.027.047.043.086.106.075.605.328 1.258.52 1.922.675.453.106.886.243 1.273.508.98.223 1.461.863 1.383 1.774-1.93.488-3.715-.067-5.484-.778-.66-.265-1.336-.484-2.004-.715-1.61-.546-1.348-.558-1.641-1.91a2.832 2.832 0 01-.023-.925c.015-.114.039-.22.136-.29-.058-.347.18-.52.418-.68.715-.468 1.43-.925 2.145-1.39.09-.183.258-.266.43-.344.082-.187.253-.27.417-.355.036-.145.172-.195.266-.285 1.266-1.203 2.375-2.535 3.254-4.055.066-.113.14-.223.21-.332.083-.137.177-.285.352-.242.133.035.223.203.211.32-.054.508.215.973.207 1.473-.003.219-.093.422-.195.625-.746 1.566-1.754 2.953-2.902 4.238-.106.113-.227.215-.305.348-.086.152.031.238.168.293.129-.117.27-.133.426-.055.14-.086.281-.156.45-.062.019-.04.05-.047.085-.02.129-.082.266-.14.422-.063.101-.039.2-.093.305-.109 1.168-.219 2.336-.418 3.496-.652 1.058-.207 2.105-.45 3.152-.68.27-.094.535-.2.809-.281 2.636-.824 5.132-1.957 7.453-3.461.824-.54 1.636-1.102 2.453-1.652.09-.196.273-.274.453-.356.082-.187.254-.266.426-.344.062-.183.234-.25.383-.336.035-.125.125-.183.242-.218a.1.1 0 01.094-.07c.039-.141.167-.196.257-.286.446-.449.97-.816 1.356-1.32.074.012.238-.074.113.133-.082.136-.066.175-.012.183.047.004.121-.015.18-.023 1.356-1.465 2.52-3.074 3.578-4.766.082-.168.168-.336.25-.5.5-.992 1-1.988 1.5-2.976a.179.179 0 01.016-.121.21.21 0 01.058-.059.156.156 0 01.07-.172c-.015-.074.009-.133.075-.176-.02-.074.004-.132.07-.172-.02-.078.004-.136.067-.175-.02-.075.004-.133.07-.176-.023-.074 0-.133.062-.172l.004-.004c.016-.059.036-.117.059-.172l.004-.008c-.024-.07-.004-.129.062-.171v-.004c-.02-.075 0-.133.063-.172l.004-.008v-.004.004c-.028-.074-.004-.133.058-.172l.004-.004c-.027-.074-.004-.133.059-.176-.024-.078-.004-.136.062-.18.153-.558.301-1.113.453-1.671.168-.266.196-.578.262-.875a.33.33 0 00-.09-.047.26.26 0 00-.144.004c.027-.227.035-.461.164-.664a.372.372 0 00.086-.196c-.028.067-.059.133-.086.196-.008-.074-.004-.145.07-.184-.05-.105-.031-.203.028-.297-.032-.07-.028-.129.035-.175-.016-.079-.016-.149.047-.204a.125.125 0 01.007-.105c-.015-.227.02-.445.106-.656-.004-.164-.008-.325.074-.473-.039-.102-.004-.2.024-.297-.008-.637.101-1.27-.032-1.937.23.062.418-.114.59.058zm-29.316 27.715h.004v-.004-.004c-.004.004-.004.004-.004.008zm27.933-19.676c-.004.012-.004.028-.007.043.003-.004.003-.008.007-.011l.012-.036c-.004 0-.008 0-.012.004zm-1.07 1.77c.004 0 .004 0 .004.004.008 0 .012.004.016.004l.015.004-.031-.012v-.004c0 .004 0 .004-.004.004zm1.137-1.79c-.016.005-.035.009-.051.016-.004.012-.012.024-.016.036a.11.11 0 01.067-.051zm-.09.134l-.016.039c.004.004 0 .004.004.004a.64.64 0 01.012-.043zm1.808-7.012s0-.004.004-.004c-.004-.004 0-.004-.004-.008v.012zm0 .285c.004.004.004.004.004.008-.004-.004 0-.008-.004-.008zm-1.18 2.574c.012-.004.028-.004.044-.004l-.012-.023a.223.223 0 01-.031.027zm.028-.5a.12.12 0 000-.074h-.004c.008.027.008.05.004.074zm0 0"/></g></g></g></g><g clip-path="url(#prefix__af)"><g clip-path="url(#prefix__ag)"><g clip-path="url(#prefix__ah)"><g clip-path="url(#prefix__ai)"><path fill="#fff" d="M187.3 234.316l-.062.172c-.023-.078 0-.133.063-.172zm0 0"/></g></g></g></g><g clip-path="url(#prefix__aj)"><g clip-path="url(#prefix__ak)"><g clip-path="url(#prefix__al)"><g clip-path="url(#prefix__am)"><path fill="#fff" d="M81.371 212.64c-.031.028-.07.032-.11.016-.109.094-.019.309-.222.348-.316.32-.644.203-.973.016-.906-.528-1.71-1.188-2.476-1.899-2.73-2.547-4.797-5.539-6.352-8.926-2.71-5.91-3.117-12.023-1.851-18.304.586-2.914 1.675-5.668 2.894-8.375.719-1.59 1.531-3.133 2.305-4.696.05-.043.105-.086.156-.129.004-.078.031-.164 0-.226-.023-.05-.094-.016-.12.039-.618.309-1.15.73-1.661 1.184-.348.312-.707.585-1.148.75-.747.671-1.547.699-2.247.109.711-1.86 2.192-3 3.793-4.04.598-.386 1.164-.812 1.739-1.226 1.37-1 1.23-.777 2.507-.238.286.121.536.305.77.512.086.078.156.156.156.277.317.152.324.45.313.734-.024.852-.063 1.704-.094 2.555.098.176.07.363.031.547.11.176.074.363.051.547.098.113.063.254.082.379.258 1.73.707 3.402 1.441 4.996.06.12.102.246.153.367.062.145.133.309-.008.426-.102.086-.293.062-.379-.012-.387-.34-.922-.387-1.324-.68-.18-.129-.29-.32-.399-.515-.851-1.516-1.406-3.137-1.796-4.817-.036-.152-.047-.312-.11-.449-.074-.16-.215-.113-.336-.031.024.172-.047.297-.199.379-.012.164-.035.32-.207.402.02.043.008.067-.035.082-.004.156-.035.297-.192.383-.027.105-.039.215-.085.313-.493 1.078-1 2.148-1.481 3.234-.437.984-.84 1.976-1.258 2.969-.078.273-.144.55-.234.82-.844 2.633-1.356 5.324-1.457 8.086-.04.988-.043 1.973-.063 2.96.106.188.067.38.028.575.109.176.07.36.039.543.113.16.066.336.05.508.086.101.079.21.04.324.03.04.03.078.003.117.094.113.063.25.086.375.11.621.11 1.262.301 1.871-.05.055-.078.235-.172.016-.066-.149-.11-.156-.148-.117-.031.035-.055.11-.082.16.414 1.953 1.062 3.832 1.84 5.672l.261.492c.524.98 1.051 1.96 1.575 2.941.039.016.07.043.086.078.011.028.015.051.015.083.07.03.102.085.102.16.07.027.101.082.097.156.075.027.106.082.102.16.074.027.11.078.105.156.075.024.11.078.102.153l.004.004c.07.023.11.074.101.152l.004.004c.036.047.075.097.106.148l.004.004c.07.024.105.074.105.153l.004.003c.07.024.106.075.106.149v.008h0c.078.02.113.07.109.148v.004c.074.023.113.07.11.148v.004c.074.024.113.075.113.149.367.445.738.89 1.105 1.336.117.289.36.492.563.715a.24.24 0 00.172-.164c.171.152.355.293.449.511.02.07.05.137.105.188l-.105-.188c.062.04.12.082.11.164.112.02.183.094.226.196.074.015.12.05.125.129.07.03.125.074.136.156.035.012.067.031.082.066.196.121.356.274.477.465.133.094.27.18.344.332.105.027.164.113.226.191.528.36.98.813 1.606 1.086-.184.157-.149.41-.39.45zm-5.785-39.921v.004h-.004.008c-.004 0-.004 0-.004-.004zm.012 34.168c-.012-.012-.024-.02-.032-.032 0 .004 0 .008.004.012.008.008.016.02.024.031 0-.003 0-.007.004-.011zm-.832-1.895c-.004 0-.004.004-.004.004-.004.004-.012.004-.016.008l-.012.012.028-.02h.004v-.004zm.808 1.961c.004-.02.012-.035.016-.05a.085.085 0 00-.02-.032c.012.024.016.05.004.082zm-.054-.152a.215.215 0 01-.028-.035h-.004c.012.011.02.023.032.035zm4.687 5.515l.004.004c.004 0 .004.004.008.004-.004-.004-.008-.004-.012-.008zm-.23-.164c-.004 0-.008 0-.012-.004.004 0 .008.004.012.004zm-1.426-2.445c-.008.012-.012.023-.024.035.008.004.016.004.028.004-.004-.012-.004-.027-.004-.039zm.39.309c.016.02.04.035.063.043v-.004a.153.153 0 01-.063-.04zm0 0"/></g></g></g></g><g clip-path="url(#prefix__an)"><g clip-path="url(#prefix__ao)"><g clip-path="url(#prefix__ap)"><g clip-path="url(#prefix__aq)"><path fill="#fff" d="M75.594 206.25l-.106-.152c.075.023.11.074.106.152zm0 0"/></g></g></g></g><g clip-path="url(#prefix__ar)"><g clip-path="url(#prefix__as)"><g clip-path="url(#prefix__at)"><g clip-path="url(#prefix__au)"><path fill="#fff" d="M150.883 121.36c0-.044.015-.075.05-.098-.015-.145-.242-.196-.16-.383-.082-.445.204-.649.543-.809.95-.445 1.954-.73 2.97-.953 3.651-.793 7.288-.785 10.956-.133 6.399 1.145 11.656 4.293 16.098 8.914 2.058 2.141 3.7 4.606 5.226 7.153.899 1.496 1.704 3.039 2.547 4.566.008.07.012.137.016.207.062.043.117.113.187.125.055.012.067-.066.04-.12.097-.684.05-1.364-.032-2.04-.054-.46-.074-.914.043-1.371-.129-.996.305-1.668 1.188-1.91 1.125 1.648 1.218 3.515 1.156 5.422-.02.71.004 1.418.02 2.125.039 1.699-.063 1.457-1.235 2.199a2.884 2.884 0 01-.86.34c-.109.023-.214.039-.316-.028-.308.172-.55.008-.78-.164-.688-.507-1.364-1.02-2.044-1.535-.203-.02-.34-.148-.473-.285-.203-.012-.34-.144-.476-.27-.149.016-.242-.09-.36-.148-1.566-.773-3.195-1.36-4.925-1.66-.13-.024-.258-.059-.387-.086-.152-.031-.328-.07-.348-.246-.011-.137.118-.281.227-.309.5-.125.844-.535 1.312-.703.211-.07.43-.055.653-.031 1.73.164 3.379.633 4.98 1.27.145.058.281.14.434.163.172.032.215-.109.215-.253-.157-.082-.22-.211-.196-.383-.129-.102-.246-.211-.214-.399-.047-.007-.06-.03-.047-.074-.125-.094-.223-.203-.207-.375-.07-.082-.153-.156-.207-.25-.606-1.02-1.196-2.05-1.813-3.062-.559-.918-1.144-1.817-1.723-2.723-.183-.223-.37-.434-.543-.66-1.68-2.196-3.601-4.153-5.812-5.809-.79-.594-1.594-1.16-2.395-1.738-.214-.016-.351-.16-.488-.305-.207-.011-.336-.144-.469-.277-.195 0-.312-.137-.445-.25-.133.016-.219-.05-.289-.149-.05 0-.082-.02-.102-.066-.144.016-.238-.09-.355-.144-.574-.262-1.098-.625-1.707-.817-.016-.074-.149-.2.086-.152.156.031.191 0 .176-.055-.008-.043-.055-.105-.082-.156-1.84-.774-3.754-1.313-5.707-1.723-.184-.02-.371-.043-.555-.066-1.106-.125-2.207-.254-3.313-.383a.186.186 0 01-.117.027c-.023-.007-.05-.015-.074-.035a.158.158 0 01-.188-.008c-.062.043-.125.04-.187-.007-.063.043-.125.039-.188-.004-.062.043-.128.043-.187-.008-.063.047-.125.047-.188 0-.062.047-.125.043-.183-.004h-.004c-.063.004-.125.004-.184.004h-.007c-.063.043-.121.047-.184 0h-.004c-.062.047-.121.047-.184 0h-.007c-.059.05-.121.05-.184.004h-.004c-.062.047-.12.047-.183 0l-.004.004a.147.147 0 01-.188.004c-.574.046-1.148.097-1.726.148-.305-.07-.606.016-.91.055a.217.217 0 00-.012.097c.004.051.02.094.054.137-.226.055-.445.125-.68.074a.444.444 0 00-.214-.015c.07.007.14.011.215.015-.07.031-.137.055-.2 0-.082.082-.18.098-.289.074-.054.055-.109.07-.18.028-.062.043-.128.062-.202.023a.109.109 0 01-.102.031 1.51 1.51 0 01-.652.13c-.153.054-.305.117-.469.09-.086.073-.188.07-.29.077-.593.227-1.226.344-1.808.7-.02-.239-.25-.356-.144-.575zm36.101 17.995h-.004 0s0 .004-.003.004c.003 0 .003 0 .007-.004zm-28.082-19.46l.043-.012H158.894c.004.004.004.004.008.012zm2.032.394v-.004-.015l-.004-.02.004.035s-.004 0-.004.004c0-.004.004-.004.004 0zm-2.07-.453c.011.016.019.031.03.043h.04c-.028 0-.051-.016-.07-.043zm.156.039h.042l.004-.004c-.015.004-.035.004-.046.004zm-7.208.715c0-.004-.003-.004-.003-.004h-.004c0 .004 0 .004-.004.004h.012zm.266-.102c.004-.004.004-.004.008-.004 0 0-.004.004-.008.004zm2.824.223a.117.117 0 01-.015-.04c-.008.009-.016.013-.02.02a.158.158 0 00.035.02zm-.476.148a.094.094 0 00-.07.028.175.175 0 01.07-.028zm0 0"/></g></g></g></g><g clip-path="url(#prefix__av)"><g clip-path="url(#prefix__aw)"><g clip-path="url(#prefix__ax)"><g clip-path="url(#prefix__ay)"><path fill="#fff" d="M159.43 120.254h.183c-.062.047-.125.043-.183 0zm0 0"/></g></g></g></g><path transform="matrix(.74987 .00605 -.00605 .74998 136.49 77.868)" fill="none" d="M-.002 1.999L223.036 2" stroke="#000" stroke-width="4"/><path transform="matrix(.75062 -.00364 .00364 .75 135.126 291.168)" fill="none" d="M0 2l224.814.002" stroke="#000" stroke-width="4"/><g clip-path="url(#prefix__az)"><path fill="#38b6ff" d="M266.715 306.992l8.492-9.492a.946.946 0 01.703-.316h5.664a.95.95 0 01.863.562.956.956 0 01-.164 1.02l-7.921 8.863 7.921 8.855a.95.95 0 01-.7 1.586h-5.663a.971.971 0 01-.703-.312l-8.492-9.496a.959.959 0 010-1.27zm0 0"/></g><g clip-path="url(#prefix__aA)"><path fill="#38b6ff" d="M278.984 306.992l8.493-9.492a.94.94 0 01.703-.316h5.66a.947.947 0 01.703 1.582l-7.926 8.863 7.926 8.855c.25.282.312.68.16 1.024a.94.94 0 01-.863.562h-5.66a.965.965 0 01-.703-.312l-8.493-9.496a.95.95 0 010-1.27zm0 0"/></g><g clip-path="url(#prefix__aB)"><path fill="#5ce1e6" d="M229.59 306.992l8.492-9.492a.946.946 0 01.703-.316h5.664a.95.95 0 01.863.562.956.956 0 01-.164 1.02l-7.921 8.863 7.921 8.855c.25.282.317.68.165 1.024a.95.95 0 01-.864.562h-5.664a.971.971 0 01-.703-.312l-8.492-9.496a.959.959 0 010-1.27zm0 0"/></g><g clip-path="url(#prefix__aC)"><path fill="#5ce1e6" d="M241.86 306.992l8.492-9.492a.94.94 0 01.703-.316h5.66a.947.947 0 01.703 1.582l-7.926 8.863 7.926 8.855c.25.282.312.68.16 1.024a.94.94 0 01-.863.562h-5.66a.965.965 0 01-.703-.312l-8.493-9.496a.95.95 0 010-1.27zm0 0"/></g><g clip-path="url(#prefix__aD)"><path fill="#38b6ff" d="M192.465 306.992l8.492-9.492a.946.946 0 01.703-.316h5.664a.95.95 0 01.863.562.956.956 0 01-.164 1.02l-7.921 8.863 7.921 8.855c.25.282.317.68.165 1.024a.95.95 0 01-.864.562h-5.664a.971.971 0 01-.703-.312l-8.492-9.496a.959.959 0 010-1.27zm0 0"/></g><g clip-path="url(#prefix__aE)"><path fill="#38b6ff" d="M204.734 306.992l8.493-9.492a.94.94 0 01.703-.316h5.66a.947.947 0 01.703 1.582l-7.926 8.863 7.926 8.855c.25.282.312.68.16 1.024a.94.94 0 01-.863.562h-5.66a.965.965 0 01-.703-.312l-8.493-9.496a.95.95 0 010-1.27zm0 0"/></g><g clip-path="url(#prefix__aF)"><path fill="#38b6ff" d="M155.34 306.992l8.492-9.492a.946.946 0 01.703-.316h5.664a.95.95 0 01.863.562.956.956 0 01-.164 1.02l-7.921 8.863 7.921 8.855c.25.282.317.68.165 1.024a.95.95 0 01-.864.562h-5.664a.971.971 0 01-.703-.312l-8.492-9.496a.959.959 0 010-1.27zm0 0"/></g><g clip-path="url(#prefix__aG)"><path fill="#38b6ff" d="M167.61 306.992l8.492-9.492a.94.94 0 01.703-.316h5.66a.947.947 0 01.703 1.582l-7.926 8.863 7.926 8.855c.25.282.312.68.16 1.024a.94.94 0 01-.863.562h-5.66a.965.965 0 01-.703-.312l-8.493-9.496a.95.95 0 010-1.27zm0 0"/></g><g clip-path="url(#prefix__aH)"><g clip-path="url(#prefix__aI)"><g clip-path="url(#prefix__aJ)"><path fill="#38b6ff" d="M118.21 307.238l8.325-9.64a.936.936 0 01.695-.328l5.66-.102a.962.962 0 01.876.547.958.958 0 01-.145 1.027l-7.766 8.996 8.079 8.719a.95.95 0 01-.672 1.598l-5.664.097a.946.946 0 01-.707-.3l-8.66-9.34a.96.96 0 01-.02-1.274zm0 0"/></g></g></g><g clip-path="url(#prefix__aK)"><g clip-path="url(#prefix__aL)"><g clip-path="url(#prefix__aM)"><path fill="#38b6ff" d="M130.477 307.023l8.324-9.644a.939.939 0 01.695-.324l5.66-.102a.945.945 0 01.875.547.952.952 0 01-.144 1.023l-7.766 9 8.082 8.715a.951.951 0 01.176 1.02.935.935 0 01-.852.578l-5.66.101a.948.948 0 01-.707-.3l-8.66-9.344a.95.95 0 01-.023-1.27zm0 0"/></g></g></g><g clip-path="url(#prefix__aN)"><g clip-path="url(#prefix__aO)"><g clip-path="url(#prefix__aP)"><path fill="#5ce1e6" d="M75.855 286.086l12.274-3.406a.949.949 0 01.762.113l4.765 3.059a.948.948 0 01-.265 1.71l-11.454 3.18 1.891 11.735a.96.96 0 01-.418.949.949.949 0 01-1.031.008l-4.766-3.059a.954.954 0 01-.422-.64l-2.023-12.579a.954.954 0 01.687-1.07zm0 0"/></g></g></g><g clip-path="url(#prefix__aQ)"><g clip-path="url(#prefix__aR)"><g clip-path="url(#prefix__aS)"><path fill="#5ce1e6" d="M86.18 292.71l12.277-3.405a.94.94 0 01.758.113l4.77 3.059c.312.199.476.566.421.937a.954.954 0 01-.687.774l-11.453 3.18 1.886 11.734a.951.951 0 01-.414.945.941.941 0 01-1.031.008L87.941 307a.94.94 0 01-.421-.645l-2.024-12.574a.952.952 0 01.684-1.07zm0 0"/></g></g></g><g clip-path="url(#prefix__aT)"><g clip-path="url(#prefix__aU)"><g clip-path="url(#prefix__aV)"><path fill="#38b6ff" d="M41.281 262.91l12.703-.945c.27-.02.532.074.723.258l4.078 3.93a.94.94 0 01.23 1.003.943.943 0 01-.824.621l-11.851.887-.438 11.875a.955.955 0 01-.593.848.94.94 0 01-1.012-.192l-4.078-3.925a.96.96 0 01-.29-.715l.47-12.73a.954.954 0 01.882-.915zm0 0"/></g></g></g><g clip-path="url(#prefix__aW)"><g clip-path="url(#prefix__aX)"><g clip-path="url(#prefix__aY)"><path fill="#38b6ff" d="M50.117 271.422l12.703-.95c.27-.019.532.075.723.262l4.078 3.926a.95.95 0 01.234 1.004.962.962 0 01-.824.625l-11.855.883-.438 11.879a.948.948 0 01-.593.847.947.947 0 01-1.012-.191l-4.078-3.93a.967.967 0 01-.29-.71l.47-12.731a.954.954 0 01.882-.914zm0 0"/></g></g></g><g clip-path="url(#prefix__aZ)"><g clip-path="url(#prefix__ba)"><g clip-path="url(#prefix__bb)"><path fill="#38b6ff" d="M22.734 226.063l12.477 2.57a.947.947 0 01.625.449l2.844 4.895a.95.95 0 01-1.016 1.402l-11.64-2.399-3.676 11.305a.959.959 0 01-.805.653.94.94 0 01-.918-.465l-2.848-4.895a.97.97 0 01-.082-.766l3.942-12.113a.948.948 0 011.097-.637zm0 0"/></g></g></g><g clip-path="url(#prefix__bc)"><g clip-path="url(#prefix__bd)"><g clip-path="url(#prefix__be)"><path fill="#38b6ff" d="M28.898 236.668l12.477 2.57a.938.938 0 01.625.45l2.848 4.894a.95.95 0 01-1.016 1.402l-11.645-2.398-3.675 11.305a.953.953 0 01-1.723.191l-2.848-4.898a.962.962 0 01-.082-.762l3.942-12.117a.956.956 0 011.097-.637zm0 0"/></g></g></g><g clip-path="url(#prefix__bf)"><path fill="#38b6ff" d="M20.016 172.027l9.492 8.493c.203.18.316.433.316.703v5.66a.94.94 0 01-.562.863.946.946 0 01-1.02-.16l-8.863-7.926-8.856 7.926a.955.955 0 01-1.023.16.94.94 0 01-.563-.863v-5.66c0-.27.114-.524.313-.703l9.496-8.493a.95.95 0 011.27 0zm0 0"/></g><g clip-path="url(#prefix__bg)"><path fill="#38b6ff" d="M20.016 184.293l9.492 8.496c.203.18.316.434.316.7v5.663c0 .371-.219.711-.562.864a.953.953 0 01-1.02-.16l-8.863-7.926-8.856 7.925a.955.955 0 01-1.023.16.945.945 0 01-.563-.863v-5.664c0-.265.114-.52.313-.699l9.496-8.496c.36-.32.91-.32 1.27 0zm0 0"/></g><g clip-path="url(#prefix__bh)"><g clip-path="url(#prefix__bi)"><g clip-path="url(#prefix__bj)"><path fill="#5ce1e6" d="M38.219 122.102l2.965 12.39a.936.936 0 01-.141.754l-3.227 4.656a.948.948 0 01-1.7-.324l-2.768-11.562-11.793 1.468a.955.955 0 01-.934-.449.949.949 0 01.027-1.031l3.227-4.652a.946.946 0 01.656-.399l12.645-1.574a.956.956 0 011.043.723zm0 0"/></g></g></g><g clip-path="url(#prefix__bk)"><g clip-path="url(#prefix__bl)"><g clip-path="url(#prefix__bm)"><path fill="#5ce1e6" d="M31.23 132.188l2.965 12.386a.945.945 0 01-.14.758l-3.227 4.652a.951.951 0 01-.953.391.958.958 0 01-.746-.715l-2.77-11.558-11.793 1.464a.955.955 0 01-.933-.449.942.942 0 01.031-1.031l3.223-4.652a.96.96 0 01.66-.399l12.64-1.574a.953.953 0 011.043.726zm0 0"/></g></g></g><g clip-path="url(#prefix__bn)"><g clip-path="url(#prefix__bo)"><g clip-path="url(#prefix__bp)"><path fill="#38b6ff" d="M65.816 90.094l.098 12.738a.937.937 0 01-.305.703l-4.191 3.809a.943.943 0 01-1.016.164.959.959 0 01-.57-.863l-.09-11.887-11.824-1.227a.954.954 0 01-.547-1.648l4.191-3.805c.2-.18.465-.266.731-.242l12.672 1.316c.48.051.851.457.851.942zm0 0"/></g></g></g><g clip-path="url(#prefix__bq)"><g clip-path="url(#prefix__br)"><g clip-path="url(#prefix__bs)"><path fill="#38b6ff" d="M56.738 98.344l.098 12.738a.94.94 0 01-.309.703l-4.191 3.809a.948.948 0 01-1.582-.7l-.094-11.886-11.82-1.227a.954.954 0 01-.809-.648.947.947 0 01.262-1l4.187-3.805c.2-.18.465-.266.73-.242l12.673 1.316c.48.051.851.457.855.942zm0 0"/></g></g></g><g clip-path="url(#prefix__bt)"><g clip-path="url(#prefix__bu)"><g clip-path="url(#prefix__bv)"><path fill="#38b6ff" d="M100.488 72.246l-3.433 12.266a.948.948 0 01-.493.593l-5.082 2.497a.95.95 0 01-1.023-.122.958.958 0 01-.305-.988l3.203-11.449-11.02-4.453a.947.947 0 01-.593-.844.942.942 0 01.524-.887l5.082-2.5a.96.96 0 01.77-.027l11.808 4.773c.449.18.691.676.562 1.141zm0 0"/></g></g></g><g clip-path="url(#prefix__bw)"><g clip-path="url(#prefix__bx)"><g clip-path="url(#prefix__by)"><path fill="#38b6ff" d="M89.477 77.656l-3.434 12.27a.94.94 0 01-.492.59l-5.078 2.5a.95.95 0 01-1.332-1.114l3.207-11.445-11.024-4.453a.961.961 0 01-.594-.848.949.949 0 01.528-.886l5.082-2.497a.95.95 0 01.765-.03l11.813 4.773c.45.183.691.675.559 1.14zm0 0"/></g></g></g><g clip-path="url(#prefix__bz)"><path fill="#38b6ff" d="M146.195 68.148l-8.492 9.493a.946.946 0 01-.703.316h-5.664a.95.95 0 01-.863-.562.956.956 0 01.164-1.02l7.922-8.863-7.922-8.856a.95.95 0 01.7-1.586h5.663c.266 0 .52.117.703.313l8.492 9.496c.32.36.32.91 0 1.27zm0 0"/></g><g clip-path="url(#prefix__bA)"><path fill="#38b6ff" d="M133.926 68.148l-8.492 9.493a.94.94 0 01-.704.316h-5.66a.947.947 0 01-.703-1.582l7.926-8.863-7.926-8.856a.955.955 0 01-.16-1.023.94.94 0 01.863-.563h5.66c.27 0 .52.117.704.313l8.492 9.496a.95.95 0 010 1.27zm0 0"/></g><g clip-path="url(#prefix__bB)"><g clip-path="url(#prefix__bC)"><g clip-path="url(#prefix__bD)"><path fill="#5ce1e6" d="M182.719 68.148l-8.778 9.235a.927.927 0 01-.71.293l-5.66-.168a.948.948 0 01-.844-.59.953.953 0 01.191-1.016l8.187-8.617-7.652-9.094a.951.951 0 01-.133-1.023.945.945 0 01.88-.54l5.66.173c.269.008.519.129.695.332l8.203 9.746a.96.96 0 01-.04 1.27zm0 0"/></g></g></g><g clip-path="url(#prefix__bE)"><g clip-path="url(#prefix__bF)"><g clip-path="url(#prefix__bG)"><path fill="#5ce1e6" d="M170.457 67.781l-8.777 9.235a.94.94 0 01-.711.293l-5.66-.172a.946.946 0 01-.653-1.602l8.188-8.617-7.656-9.094a.956.956 0 01-.13-1.027.942.942 0 01.88-.535l5.66.168a.95.95 0 01.691.336l8.203 9.746a.955.955 0 01-.035 1.27zm0 0"/></g></g></g><g clip-path="url(#prefix__bH)"><g clip-path="url(#prefix__bI)"><g clip-path="url(#prefix__bJ)"><path fill="#38b6ff" d="M294.371 68.148l-8.777 9.235a.927.927 0 01-.711.293l-5.66-.168a.948.948 0 01-.844-.59.953.953 0 01.191-1.016l8.188-8.617-7.653-9.094a.951.951 0 01-.132-1.023.945.945 0 01.879-.54l5.66.173c.27.008.52.129.695.332l8.203 9.746a.96.96 0 01-.039 1.27zm0 0"/></g></g></g><g clip-path="url(#prefix__bK)"><g clip-path="url(#prefix__bL)"><g clip-path="url(#prefix__bM)"><path fill="#38b6ff" d="M282.11 67.781l-8.778 9.235a.94.94 0 01-.71.293l-5.661-.172a.946.946 0 01-.652-1.602l8.187-8.617-7.656-9.094a.956.956 0 01-.13-1.027.942.942 0 01.88-.535l5.66.168a.95.95 0 01.691.336l8.204 9.746a.955.955 0 01-.036 1.27zm0 0"/></g></g></g><g clip-path="url(#prefix__bN)"><g clip-path="url(#prefix__bO)"><g clip-path="url(#prefix__bP)"><path fill="#38b6ff" d="M257.246 68.148l-8.777 9.235a.927.927 0 01-.711.293l-5.66-.168a.948.948 0 01-.844-.59.953.953 0 01.191-1.016l8.188-8.617-7.653-9.094a.951.951 0 01-.132-1.023.945.945 0 01.879-.54l5.66.173c.27.008.52.129.695.332l8.203 9.746a.96.96 0 01-.039 1.27zm0 0"/></g></g></g><g clip-path="url(#prefix__bQ)"><g clip-path="url(#prefix__bR)"><g clip-path="url(#prefix__bS)"><path fill="#38b6ff" d="M244.984 67.781l-8.777 9.235a.94.94 0 01-.71.293l-5.661-.172a.946.946 0 01-.652-1.602l8.187-8.617-7.656-9.094a.956.956 0 01-.13-1.027.942.942 0 01.88-.535l5.66.168a.95.95 0 01.691.336l8.204 9.746a.955.955 0 01-.036 1.27zm0 0"/></g></g></g><g clip-path="url(#prefix__bT)"><g clip-path="url(#prefix__bU)"><g clip-path="url(#prefix__bV)"><path fill="#38b6ff" d="M220.73 68.148l-8.777 9.235a.927.927 0 01-.71.293l-5.661-.168a.944.944 0 01-.844-.59.953.953 0 01.192-1.016l8.187-8.617-7.656-9.094a.95.95 0 01.75-1.562l5.66.172c.27.008.516.129.691.332l8.204 9.746a.955.955 0 01-.036 1.27zm0 0"/></g></g></g><g clip-path="url(#prefix__bW)"><g clip-path="url(#prefix__bX)"><g clip-path="url(#prefix__bY)"><path fill="#38b6ff" d="M208.465 67.781l-8.774 9.235a.947.947 0 01-.71.293l-5.66-.172a.946.946 0 01-.844-.586.96.96 0 01.187-1.016l8.191-8.617-7.656-9.094a.949.949 0 01.75-1.562l5.66.168a.957.957 0 01.692.336l8.203 9.746a.95.95 0 01-.04 1.27zm0 0"/></g></g></g></svg>