<svg xmlns="http://www.w3.org/2000/svg" xmlns:xlink="http://www.w3.org/1999/xlink" width="450" zoomAndPan="magnify" viewBox="0 0 337.5 374.999991" height="500" preserveAspectRatio="xMidYMid meet" version="1.0"><defs><clipPath id="aa6bad6681"><path d="M 0 52.777344 L 303.75 52.777344 L 303.75 323 L 0 323 Z M 0 52.777344 " clip-rule="nonzero"/></clipPath><clipPath id="b0b0da23dc"><path d="M 7.917969 142.824219 C 3.136719 156.667969 0 172.40625 0 187.851562 C 0 203.296875 2.6875 218.15625 7.46875 231.855469 C 7.621094 232.144531 7.621094 232.4375 7.769531 232.730469 C 26.890625 284.164062 77.390625 322.046875 135.65625 322.777344 L 303.75 322.777344 L 303.75 52.777344 L 135.78125 52.777344 C 77.09375 53.503906 26.59375 90.808594 7.917969 142.824219 " clip-rule="nonzero"/></clipPath><clipPath id="cdfb82451e"><path d="M 0 52.777344 L 303.75 52.777344 L 303.75 322.777344 L 0 322.777344 Z M 0 52.777344 " clip-rule="nonzero"/></clipPath><clipPath id="e11e7f6e20"><path d="M 7.917969 142.824219 C 3.136719 156.667969 0 172.40625 0 187.851562 C 0 203.296875 2.6875 218.15625 7.46875 231.855469 C 7.621094 232.144531 7.621094 232.4375 7.769531 232.730469 C 26.890625 284.164062 77.390625 322.046875 135.65625 322.777344 L 303.75 322.777344 L 303.75 52.777344 L 135.78125 52.777344 C 77.09375 53.503906 26.59375 90.808594 7.917969 142.824219 " clip-rule="nonzero"/></clipPath><clipPath id="0313d66391"><path d="M 33 78 L 250 78 L 250 295 L 33 295 Z M 33 78 " clip-rule="nonzero"/></clipPath><clipPath id="b97d2ef793"><path d="M 182.53125 333.207031 L -5.691406 226.65625 L 100.859375 38.433594 L 289.082031 144.988281 Z M 182.53125 333.207031 " clip-rule="nonzero"/></clipPath><clipPath id="8bdec5d259"><path d="M 88.542969 280.003906 C 140.453125 309.386719 206.351562 291.128906 235.734375 239.222656 C 265.121094 187.316406 246.863281 121.417969 194.953125 92.03125 C 143.046875 62.648438 77.148438 80.90625 47.765625 132.8125 C 18.378906 184.71875 36.636719 250.617188 88.542969 280.003906 " clip-rule="nonzero"/></clipPath><clipPath id="4dcaa6e19f"><path d="M 33 78 L 250 78 L 250 295 L 33 295 Z M 33 78 " clip-rule="nonzero"/></clipPath><clipPath id="3d619a609f"><path d="M 182.53125 333.207031 L -5.441406 226.796875 L 100.96875 38.828125 L 288.941406 145.238281 Z M 182.53125 333.207031 " clip-rule="nonzero"/></clipPath><clipPath id="36e1fc9dec"><path d="M 182.53125 333.207031 L -8.097656 225.292969 L 99.816406 34.664062 L 290.445312 142.582031 Z M 182.53125 333.207031 " clip-rule="nonzero"/></clipPath><clipPath id="f7c4ed607f"><path d="M 88.542969 280.003906 C 140.453125 309.386719 206.351562 291.128906 235.734375 239.222656 C 265.121094 187.316406 246.863281 121.417969 194.953125 92.03125 C 143.046875 62.648438 77.148438 80.90625 47.765625 132.8125 C 18.378906 184.71875 36.636719 250.617188 88.542969 280.003906 " clip-rule="nonzero"/></clipPath><clipPath id="45e3d1473b"><path d="M 102 213 L 134 213 L 134 250 L 102 250 Z M 102 213 " clip-rule="nonzero"/></clipPath><clipPath id="62cc0a38a0"><path d="M 118.023438 249.515625 L 102.179688 240.628906 L 117.800781 212.785156 L 133.640625 221.671875 Z M 118.023438 249.515625 " clip-rule="nonzero"/></clipPath><clipPath id="7ad6266c4c"><path d="M 118.023438 249.515625 L 102.527344 240.820312 L 118.050781 213.152344 L 133.546875 221.84375 Z M 118.023438 249.515625 " clip-rule="nonzero"/></clipPath><clipPath id="b74a06ab87"><path d="M 101 128 L 134 128 L 134 165 L 101 165 Z M 101 128 " clip-rule="nonzero"/></clipPath><clipPath id="05f1fbbf11"><path d="M 133.03125 156.074219 L 117.3125 165.175781 L 101.3125 137.550781 L 117.03125 128.445312 Z M 133.03125 156.074219 " clip-rule="nonzero"/></clipPath><clipPath id="91c2e53f6b"><path d="M 133.03125 156.074219 L 117.65625 164.976562 L 101.753906 137.519531 L 117.128906 128.617188 Z M 133.03125 156.074219 " clip-rule="nonzero"/></clipPath><clipPath id="9d24ad88fe"><path d="M 117 146 L 191 146 L 191 232 L 117 232 Z M 117 146 " clip-rule="nonzero"/></clipPath><clipPath id="9637dd6711"><path d="M 190.664062 146.234375 L 191.328125 231.429688 L 117.339844 232.003906 L 116.679688 146.808594 Z M 190.664062 146.234375 " clip-rule="nonzero"/></clipPath><clipPath id="787b0945e8"><path d="M 190.992188 188.503906 L 118.050781 231.347656 L 117.394531 146.804688 L 190.992188 188.503906 " clip-rule="nonzero"/></clipPath><clipPath id="054bd12dac"><path d="M 167 179 L 199 179 L 199 198 L 167 198 Z M 167 179 " clip-rule="nonzero"/></clipPath><clipPath id="e49a419f9c"><path d="M 198.816406 179.558594 L 198.957031 197.71875 L 167.035156 197.96875 L 166.894531 179.804688 Z M 198.816406 179.558594 " clip-rule="nonzero"/></clipPath><clipPath id="1e50b4c131"><path d="M 198.816406 179.558594 L 198.957031 197.324219 L 167.230469 197.570312 L 167.089844 179.804688 Z M 198.816406 179.558594 " clip-rule="nonzero"/></clipPath><clipPath id="39a90533ea"><path d="M 191 160 L 248 160 L 248 217 L 191 217 Z M 191 160 " clip-rule="nonzero"/></clipPath><clipPath id="84d99592be"><path d="M 192.058594 160.050781 L 247.675781 160.898438 L 246.824219 216.515625 L 191.210938 215.667969 Z M 192.058594 160.050781 " clip-rule="nonzero"/></clipPath><clipPath id="e1d66651b6"><path d="M 219.867188 160.476562 C 204.507812 160.242188 191.867188 172.5 191.632812 187.859375 C 191.398438 203.214844 203.660156 215.855469 219.019531 216.089844 C 234.375 216.324219 247.015625 204.066406 247.25 188.707031 C 247.484375 173.347656 235.222656 160.710938 219.867188 160.476562 " clip-rule="nonzero"/></clipPath><clipPath id="245990d746"><path d="M 191 160 L 248 160 L 248 216 L 191 216 Z M 191 160 " clip-rule="nonzero"/></clipPath><clipPath id="921578b64d"><path d="M 192.058594 160.050781 L 247.550781 160.898438 L 246.707031 216.390625 L 191.210938 215.542969 Z M 192.058594 160.050781 " clip-rule="nonzero"/></clipPath><clipPath id="add5213665"><path d="M 192.058594 160.050781 L 247.550781 160.898438 L 246.707031 216.390625 L 191.210938 215.542969 Z M 192.058594 160.050781 " clip-rule="nonzero"/></clipPath><clipPath id="4c217cd037"><path d="M 219.804688 160.472656 C 204.480469 160.242188 191.867188 172.472656 191.636719 187.796875 C 191.402344 203.121094 203.632812 215.734375 218.957031 215.96875 C 234.28125 216.203125 246.894531 203.96875 247.128906 188.644531 C 247.363281 173.320312 235.128906 160.707031 219.804688 160.472656 " clip-rule="nonzero"/></clipPath><clipPath id="cd4a792bcb"><path d="M 74 93 L 131 93 L 131 149 L 74 149 Z M 74 93 " clip-rule="nonzero"/></clipPath><clipPath id="9a188a8dc5"><path d="M 112.109375 82.882812 L 140.277344 130.84375 L 92.3125 159.011719 L 64.148438 111.046875 Z M 112.109375 82.882812 " clip-rule="nonzero"/></clipPath><clipPath id="408efbc9db"><path d="M 126.195312 106.863281 C 118.417969 93.617188 101.375 89.1875 88.128906 96.964844 C 74.882812 104.742188 70.453125 121.785156 78.230469 135.03125 C 86.007812 148.273438 103.050781 152.707031 116.296875 144.929688 C 129.539062 137.152344 133.972656 120.109375 126.195312 106.863281 " clip-rule="nonzero"/></clipPath><clipPath id="25a47c8ec1"><path d="M 74 93 L 130 93 L 130 149 L 74 149 Z M 74 93 " clip-rule="nonzero"/></clipPath><clipPath id="75820c3950"><path d="M 112.109375 82.882812 L 140.214844 130.738281 L 92.355469 158.84375 L 64.253906 110.984375 Z M 112.109375 82.882812 " clip-rule="nonzero"/></clipPath><clipPath id="bb5d135503"><path d="M 112.109375 82.882812 L 140.214844 130.738281 L 92.355469 158.84375 L 64.253906 110.984375 Z M 112.109375 82.882812 " clip-rule="nonzero"/></clipPath><clipPath id="e788439ad7"><path d="M 126.164062 106.8125 C 118.402344 93.59375 101.398438 89.171875 88.183594 96.933594 C 74.964844 104.695312 70.542969 121.699219 78.304688 134.914062 C 86.066406 148.128906 103.070312 152.554688 116.285156 144.792969 C 129.5 137.03125 133.921875 120.027344 126.164062 106.8125 " clip-rule="nonzero"/></clipPath><clipPath id="9c933494ad"><path d="M 77 225 L 133 225 L 133 282 L 77 282 Z M 77 225 " clip-rule="nonzero"/></clipPath><clipPath id="f666e30c24"><path d="M 94.648438 215.828125 L 143.054688 243.230469 L 115.652344 291.632812 L 67.246094 264.234375 Z M 94.648438 215.828125 " clip-rule="nonzero"/></clipPath><clipPath id="33a866eceb"><path d="M 118.851562 229.527344 C 105.484375 221.960938 88.515625 226.664062 80.949219 240.03125 C 73.382812 253.398438 78.082031 270.367188 91.449219 277.933594 C 104.816406 285.5 121.785156 280.796875 129.351562 267.433594 C 136.917969 254.066406 132.21875 237.097656 118.851562 229.527344 " clip-rule="nonzero"/></clipPath><clipPath id="7116deddb1"><path d="M 77 225 L 133 225 L 133 282 L 77 282 Z M 77 225 " clip-rule="nonzero"/></clipPath><clipPath id="2f7c741afd"><path d="M 94.648438 215.828125 L 142.945312 243.167969 L 115.605469 291.46875 L 67.308594 264.125 Z M 94.648438 215.828125 " clip-rule="nonzero"/></clipPath><clipPath id="9fb110137e"><path d="M 94.648438 215.828125 L 142.945312 243.167969 L 115.605469 291.46875 L 67.308594 264.125 Z M 94.648438 215.828125 " clip-rule="nonzero"/></clipPath><clipPath id="fd8ee7602c"><path d="M 118.796875 229.5 C 105.460938 221.949219 88.527344 226.640625 80.976562 239.976562 C 73.425781 253.316406 78.117188 270.246094 91.457031 277.796875 C 104.792969 285.347656 121.726562 280.65625 129.277344 267.320312 C 136.824219 253.980469 132.132812 237.050781 118.796875 229.5 " clip-rule="nonzero"/></clipPath><clipPath id="bcebac9637"><path d="M 212 181 L 227 181 L 227 196 L 212 196 Z M 212 181 " clip-rule="nonzero"/></clipPath><clipPath id="cf4795dae3"><path d="M 226.363281 181.246094 L 226.472656 195.207031 L 212.511719 195.3125 L 212.402344 181.355469 Z M 226.363281 181.246094 " clip-rule="nonzero"/></clipPath><clipPath id="1198bf647d"><path d="M 226.417969 188.226562 C 226.386719 184.371094 223.238281 181.269531 219.382812 181.300781 C 215.527344 181.332031 212.429688 184.480469 212.457031 188.335938 C 212.488281 192.1875 215.636719 195.289062 219.492188 195.257812 C 223.347656 195.230469 226.445312 192.082031 226.417969 188.226562 " clip-rule="nonzero"/></clipPath><clipPath id="440e3964d1"><path d="M 95 113 L 110 113 L 110 128 L 95 128 Z M 95 113 " clip-rule="nonzero"/></clipPath><clipPath id="48e8a9f152"><path d="M 111.765625 123.425781 L 99.726562 130.492188 L 92.65625 118.457031 L 104.695312 111.386719 Z M 111.765625 123.425781 " clip-rule="nonzero"/></clipPath><clipPath id="3ae231bf6f"><path d="M 105.746094 126.960938 C 109.070312 125.007812 110.183594 120.730469 108.230469 117.40625 C 106.277344 114.082031 102 112.96875 98.675781 114.921875 C 95.351562 116.875 94.242188 121.152344 96.191406 124.476562 C 98.144531 127.800781 102.421875 128.910156 105.746094 126.960938 " clip-rule="nonzero"/></clipPath><clipPath id="00f89a34c1"><path d="M 99 247 L 114 247 L 114 262 L 99 262 Z M 99 247 " clip-rule="nonzero"/></clipPath><clipPath id="f60c83c162"><path d="M 112.988281 247.1875 L 113.09375 261.148438 L 99.136719 261.253906 L 99.027344 247.296875 Z M 112.988281 247.1875 " clip-rule="nonzero"/></clipPath><clipPath id="5ee7dfb643"><path d="M 113.039062 254.167969 C 113.011719 250.3125 109.863281 247.210938 106.007812 247.242188 C 102.152344 247.273438 99.050781 250.421875 99.082031 254.277344 C 99.113281 258.128906 102.261719 261.230469 106.117188 261.199219 C 109.96875 261.171875 113.070312 258.023438 113.039062 254.167969 " clip-rule="nonzero"/></clipPath><clipPath id="095e01ba27"><path d="M 154 225 L 191 225 L 191 259 L 154 259 Z M 154 225 " clip-rule="nonzero"/></clipPath><clipPath id="fa2dfe574d"><path d="M 150.976562 252.695312 L 189.441406 225.253906 L 197.28125 236.246094 L 158.816406 263.6875 Z M 150.976562 252.695312 " clip-rule="nonzero"/></clipPath><clipPath id="0b0f80d30a"><path d="M 189.59375 225.144531 L 151.128906 252.585938 L 158.96875 263.578125 L 197.433594 236.136719 Z M 189.59375 225.144531 " clip-rule="nonzero"/></clipPath><clipPath id="fb02870250"><path d="M 189.59375 225.144531 L 151.128906 252.585938 L 158.96875 263.578125 L 197.433594 236.136719 Z M 189.59375 225.144531 " clip-rule="nonzero"/></clipPath><clipPath id="60bd8938a1"><path d="M 187 234 L 188 234 L 188 235 L 187 235 Z M 187 234 " clip-rule="nonzero"/></clipPath><clipPath id="ea4704a696"><path d="M 150.976562 252.695312 L 189.441406 225.253906 L 197.28125 236.246094 L 158.816406 263.6875 Z M 150.976562 252.695312 " clip-rule="nonzero"/></clipPath><clipPath id="05ccddb49b"><path d="M 189.59375 225.144531 L 151.128906 252.585938 L 158.96875 263.578125 L 197.433594 236.136719 Z M 189.59375 225.144531 " clip-rule="nonzero"/></clipPath><clipPath id="50fa9d2d1c"><path d="M 189.59375 225.144531 L 151.128906 252.585938 L 158.96875 263.578125 L 197.433594 236.136719 Z M 189.59375 225.144531 " clip-rule="nonzero"/></clipPath><clipPath id="71408626bb"><path d="M 68 166 L 82 166 L 82 214 L 68 214 Z M 68 166 " clip-rule="nonzero"/></clipPath><clipPath id="7cc8b9b745"><path d="M 81.46875 165.964844 L 81.769531 213.210938 L 68.269531 213.296875 L 67.972656 166.046875 Z M 81.46875 165.964844 " clip-rule="nonzero"/></clipPath><clipPath id="35c1a96ac8"><path d="M 81.769531 213.398438 L 81.472656 166.152344 L 67.972656 166.234375 L 68.269531 213.484375 Z M 81.769531 213.398438 " clip-rule="nonzero"/></clipPath><clipPath id="4892f9e1d2"><path d="M 81.769531 213.398438 L 81.472656 166.152344 L 67.972656 166.234375 L 68.269531 213.484375 Z M 81.769531 213.398438 " clip-rule="nonzero"/></clipPath><clipPath id="b25f220e43"><path d="M 75 206 L 76 206 L 76 207 L 75 207 Z M 75 206 " clip-rule="nonzero"/></clipPath><clipPath id="96fde752b7"><path d="M 81.46875 165.964844 L 81.769531 213.210938 L 68.269531 213.296875 L 67.972656 166.046875 Z M 81.46875 165.964844 " clip-rule="nonzero"/></clipPath><clipPath id="4622d680fd"><path d="M 81.769531 213.398438 L 81.472656 166.152344 L 67.972656 166.234375 L 68.269531 213.484375 Z M 81.769531 213.398438 " clip-rule="nonzero"/></clipPath><clipPath id="a4b0058ecb"><path d="M 81.769531 213.398438 L 81.472656 166.152344 L 67.972656 166.234375 L 68.269531 213.484375 Z M 81.769531 213.398438 " clip-rule="nonzero"/></clipPath><clipPath id="d4a16e9c88"><path d="M 150 118 L 192 118 L 192 145 L 150 145 Z M 150 118 " clip-rule="nonzero"/></clipPath><clipPath id="708e545246"><path d="M 189.179688 148.042969 L 150.1875 121.359375 L 157.8125 110.21875 L 196.804688 136.902344 Z M 189.179688 148.042969 " clip-rule="nonzero"/></clipPath><clipPath id="91e8a1a539"><path d="M 150.03125 121.253906 L 189.027344 147.9375 L 196.648438 136.796875 L 157.65625 110.113281 Z M 150.03125 121.253906 " clip-rule="nonzero"/></clipPath><clipPath id="91a56ed092"><path d="M 150.03125 121.253906 L 189.027344 147.9375 L 196.648438 136.796875 L 157.65625 110.113281 Z M 150.03125 121.253906 " clip-rule="nonzero"/></clipPath><clipPath id="3b747e140b"><path d="M 159 120 L 160 120 L 160 121 L 159 121 Z M 159 120 " clip-rule="nonzero"/></clipPath><clipPath id="8d2a330be3"><path d="M 189.179688 148.042969 L 150.1875 121.359375 L 157.8125 110.21875 L 196.804688 136.902344 Z M 189.179688 148.042969 " clip-rule="nonzero"/></clipPath><clipPath id="1bc6aef81e"><path d="M 150.03125 121.253906 L 189.027344 147.9375 L 196.648438 136.796875 L 157.65625 110.113281 Z M 150.03125 121.253906 " clip-rule="nonzero"/></clipPath><clipPath id="2515757432"><path d="M 150.03125 121.253906 L 189.027344 147.9375 L 196.648438 136.796875 L 157.65625 110.113281 Z M 150.03125 121.253906 " clip-rule="nonzero"/></clipPath><clipPath id="757f72d401"><path d="M 266.625 297.128906 L 283 297.128906 L 283 318.128906 L 266.625 318.128906 Z M 266.625 297.128906 " clip-rule="nonzero"/></clipPath><clipPath id="9a4d52a1ff"><path d="M 278 297.128906 L 294.785156 297.128906 L 294.785156 318.128906 L 278 318.128906 Z M 278 297.128906 " clip-rule="nonzero"/></clipPath><clipPath id="c46e6c5004"><path d="M 229.5 297.128906 L 246 297.128906 L 246 318.128906 L 229.5 318.128906 Z M 229.5 297.128906 " clip-rule="nonzero"/></clipPath><clipPath id="4d0fadb76c"><path d="M 241 297.128906 L 257.660156 297.128906 L 257.660156 318.128906 L 241 318.128906 Z M 241 297.128906 " clip-rule="nonzero"/></clipPath><clipPath id="cc9e8b8f75"><path d="M 192.375 297.128906 L 209 297.128906 L 209 318.128906 L 192.375 318.128906 Z M 192.375 297.128906 " clip-rule="nonzero"/></clipPath><clipPath id="a383b727ba"><path d="M 204 297.128906 L 220.535156 297.128906 L 220.535156 318.128906 L 204 318.128906 Z M 204 297.128906 " clip-rule="nonzero"/></clipPath><clipPath id="a31f0dc557"><path d="M 155.25 297.128906 L 172 297.128906 L 172 318.128906 L 155.25 318.128906 Z M 155.25 297.128906 " clip-rule="nonzero"/></clipPath><clipPath id="1483ef84bb"><path d="M 167 297.128906 L 183.410156 297.128906 L 183.410156 318.128906 L 167 318.128906 Z M 167 297.128906 " clip-rule="nonzero"/></clipPath><clipPath id="cdbd98bdfb"><path d="M 117 297 L 135 297 L 135 319 L 117 319 Z M 117 297 " clip-rule="nonzero"/></clipPath><clipPath id="d1ad8c2c31"><path d="M 117.945312 297.378906 L 146.441406 296.875 L 146.8125 317.871094 L 118.316406 318.375 Z M 117.945312 297.378906 " clip-rule="nonzero"/></clipPath><clipPath id="42db120b48"><path d="M 146.101562 296.878906 L 117.605469 297.382812 L 117.976562 318.378906 L 146.472656 317.875 Z M 146.101562 296.878906 " clip-rule="nonzero"/></clipPath><clipPath id="7642b25c46"><path d="M 130 296 L 147 296 L 147 318 L 130 318 Z M 130 296 " clip-rule="nonzero"/></clipPath><clipPath id="eb954a5bf6"><path d="M 117.945312 297.378906 L 146.441406 296.875 L 146.8125 317.871094 L 118.316406 318.375 Z M 117.945312 297.378906 " clip-rule="nonzero"/></clipPath><clipPath id="8197f7a029"><path d="M 146.101562 296.878906 L 117.605469 297.382812 L 117.976562 318.378906 L 146.472656 317.875 Z M 146.101562 296.878906 " clip-rule="nonzero"/></clipPath><clipPath id="0e389e2480"><path d="M 75 282 L 95 282 L 95 304 L 75 304 Z M 75 282 " clip-rule="nonzero"/></clipPath><clipPath id="e9ce596086"><path d="M 81.105469 277.734375 L 105.09375 293.121094 L 93.757812 310.796875 L 69.765625 295.410156 Z M 81.105469 277.734375 " clip-rule="nonzero"/></clipPath><clipPath id="29d1eb5c12"><path d="M 104.808594 292.9375 L 80.816406 277.550781 L 69.480469 295.226562 L 93.46875 310.613281 Z M 104.808594 292.9375 " clip-rule="nonzero"/></clipPath><clipPath id="92d4ce7b33"><path d="M 85 289 L 105 289 L 105 311 L 85 311 Z M 85 289 " clip-rule="nonzero"/></clipPath><clipPath id="fd6db718e3"><path d="M 81.105469 277.734375 L 105.09375 293.121094 L 93.757812 310.796875 L 69.765625 295.410156 Z M 81.105469 277.734375 " clip-rule="nonzero"/></clipPath><clipPath id="d0ee209490"><path d="M 104.808594 292.9375 L 80.816406 277.550781 L 69.480469 295.226562 L 93.46875 310.613281 Z M 104.808594 292.9375 " clip-rule="nonzero"/></clipPath><clipPath id="380079c63b"><path d="M 39 261 L 60 261 L 60 282 L 39 282 Z M 39 261 " clip-rule="nonzero"/></clipPath><clipPath id="f642428b0e"><path d="M 48.058594 255.742188 L 68.585938 275.511719 L 54.019531 290.636719 L 33.492188 270.867188 Z M 48.058594 255.742188 " clip-rule="nonzero"/></clipPath><clipPath id="f3ed74f192"><path d="M 68.339844 275.277344 L 47.8125 255.503906 L 33.246094 270.632812 L 53.773438 290.402344 Z M 68.339844 275.277344 " clip-rule="nonzero"/></clipPath><clipPath id="abeb3fb231"><path d="M 48 270 L 68 270 L 68 290 L 48 290 Z M 48 270 " clip-rule="nonzero"/></clipPath><clipPath id="67260b4d6f"><path d="M 48.058594 255.742188 L 68.585938 275.511719 L 54.019531 290.636719 L 33.492188 270.867188 Z M 48.058594 255.742188 " clip-rule="nonzero"/></clipPath><clipPath id="ef35cbfba5"><path d="M 68.339844 275.277344 L 47.8125 255.503906 L 33.246094 270.632812 L 53.773438 290.402344 Z M 68.339844 275.277344 " clip-rule="nonzero"/></clipPath><clipPath id="11961afcf5"><path d="M 17 226 L 39 226 L 39 245 L 17 245 Z M 17 226 " clip-rule="nonzero"/></clipPath><clipPath id="57d64b04ed"><path d="M 31.21875 221.023438 L 45.539062 245.664062 L 27.386719 256.21875 L 13.0625 231.578125 Z M 31.21875 221.023438 " clip-rule="nonzero"/></clipPath><clipPath id="3f85372615"><path d="M 45.371094 245.371094 L 31.046875 220.730469 L 12.890625 231.285156 L 27.214844 255.925781 Z M 45.371094 245.371094 " clip-rule="nonzero"/></clipPath><clipPath id="0eb0372638"><path d="M 23 236 L 45 236 L 45 256 L 23 256 Z M 23 236 " clip-rule="nonzero"/></clipPath><clipPath id="7846628b29"><path d="M 31.21875 221.023438 L 45.539062 245.664062 L 27.386719 256.21875 L 13.0625 231.578125 Z M 31.21875 221.023438 " clip-rule="nonzero"/></clipPath><clipPath id="afbdf4157f"><path d="M 45.371094 245.371094 L 31.046875 220.730469 L 12.890625 231.285156 L 27.214844 255.925781 Z M 45.371094 245.371094 " clip-rule="nonzero"/></clipPath><clipPath id="f63fed4858"><path d="M 8.878906 171.9375 L 29.878906 171.9375 L 29.878906 188 L 8.878906 188 Z M 8.878906 171.9375 " clip-rule="nonzero"/></clipPath><clipPath id="b382f85a89"><path d="M 8.878906 184 L 29.878906 184 L 29.878906 200.097656 L 8.878906 200.097656 Z M 8.878906 184 " clip-rule="nonzero"/></clipPath><clipPath id="205533483b"><path d="M 20 121 L 42 121 L 42 141 L 20 141 Z M 20 121 " clip-rule="nonzero"/></clipPath><clipPath id="f5eb1e077a"><path d="M 46.378906 127.648438 L 30.144531 151.074219 L 12.882812 139.109375 L 29.117188 115.6875 Z M 46.378906 127.648438 " clip-rule="nonzero"/></clipPath><clipPath id="2b4a093fcb"><path d="M 30.339844 150.792969 L 46.574219 127.367188 L 29.3125 115.40625 L 13.078125 138.832031 Z M 30.339844 150.792969 " clip-rule="nonzero"/></clipPath><clipPath id="909e98efb8"><path d="M 13 131 L 35 131 L 35 151 L 13 151 Z M 13 131 " clip-rule="nonzero"/></clipPath><clipPath id="0ea2451b99"><path d="M 46.378906 127.648438 L 30.144531 151.074219 L 12.882812 139.109375 L 29.117188 115.6875 Z M 46.378906 127.648438 " clip-rule="nonzero"/></clipPath><clipPath id="25d9fc6f71"><path d="M 30.339844 150.792969 L 46.574219 127.367188 L 29.3125 115.40625 L 13.078125 138.832031 Z M 30.339844 150.792969 " clip-rule="nonzero"/></clipPath><clipPath id="e07ef9182c"><path d="M 47 87 L 66 87 L 66 108 L 47 108 Z M 47 87 " clip-rule="nonzero"/></clipPath><clipPath id="c9da5487cd"><path d="M 72.519531 97.332031 L 51.425781 116.5 L 37.304688 100.957031 L 58.398438 81.789062 Z M 72.519531 97.332031 " clip-rule="nonzero"/></clipPath><clipPath id="281e16bebe"><path d="M 51.675781 116.269531 L 72.769531 97.105469 L 58.648438 81.5625 L 37.554688 100.726562 Z M 51.675781 116.269531 " clip-rule="nonzero"/></clipPath><clipPath id="1e5d1427da"><path d="M 37 96 L 57 96 L 57 116 L 37 116 Z M 37 96 " clip-rule="nonzero"/></clipPath><clipPath id="7eebeeb735"><path d="M 72.519531 97.332031 L 51.425781 116.5 L 37.304688 100.957031 L 58.398438 81.789062 Z M 72.519531 97.332031 " clip-rule="nonzero"/></clipPath><clipPath id="e17c403b6a"><path d="M 51.675781 116.269531 L 72.769531 97.105469 L 58.648438 81.5625 L 37.554688 100.726562 Z M 51.675781 116.269531 " clip-rule="nonzero"/></clipPath><clipPath id="13dbd4c137"><path d="M 81 66 L 101 66 L 101 88 L 81 88 Z M 81 66 " clip-rule="nonzero"/></clipPath><clipPath id="bd8d5ff2ab"><path d="M 104.921875 81.058594 L 79.34375 93.632812 L 70.078125 74.785156 L 95.65625 62.214844 Z M 104.921875 81.058594 " clip-rule="nonzero"/></clipPath><clipPath id="6167c698ed"><path d="M 79.648438 93.480469 L 105.226562 80.910156 L 95.960938 62.0625 L 70.382812 74.636719 Z M 79.648438 93.480469 " clip-rule="nonzero"/></clipPath><clipPath id="8f2bf351f6"><path d="M 70 71 L 90 71 L 90 94 L 70 94 Z M 70 71 " clip-rule="nonzero"/></clipPath><clipPath id="5e778c9b87"><path d="M 104.921875 81.058594 L 79.34375 93.632812 L 70.078125 74.785156 L 95.65625 62.214844 Z M 104.921875 81.058594 " clip-rule="nonzero"/></clipPath><clipPath id="ae71f53290"><path d="M 79.648438 93.480469 L 105.226562 80.910156 L 95.960938 62.0625 L 70.382812 74.636719 Z M 79.648438 93.480469 " clip-rule="nonzero"/></clipPath><clipPath id="50311e29a7"><path d="M 130 57.011719 L 146.285156 57.011719 L 146.285156 78 L 130 78 Z M 130 57.011719 " clip-rule="nonzero"/></clipPath><clipPath id="cb3bc3ad46"><path d="M 118.125 57.011719 L 135 57.011719 L 135 78 L 118.125 78 Z M 118.125 57.011719 " clip-rule="nonzero"/></clipPath><clipPath id="7c828010f2"><path d="M 166 56 L 183 56 L 183 78 L 166 78 Z M 166 56 " clip-rule="nonzero"/></clipPath><clipPath id="15b9946bf0"><path d="M 182.511719 78.011719 L 154.023438 77.15625 L 154.65625 56.164062 L 183.144531 57.023438 Z M 182.511719 78.011719 " clip-rule="nonzero"/></clipPath><clipPath id="8ec8fc84f7"><path d="M 154.363281 77.164062 L 182.851562 78.023438 L 183.484375 57.035156 L 154.996094 56.175781 Z M 154.363281 77.164062 " clip-rule="nonzero"/></clipPath><clipPath id="4dd47438f8"><path d="M 154 56 L 171 56 L 171 78 L 154 78 Z M 154 56 " clip-rule="nonzero"/></clipPath><clipPath id="928e4f1bff"><path d="M 182.511719 78.011719 L 154.023438 77.15625 L 154.65625 56.164062 L 183.144531 57.023438 Z M 182.511719 78.011719 " clip-rule="nonzero"/></clipPath><clipPath id="6ec93b9f5f"><path d="M 154.363281 77.164062 L 182.851562 78.023438 L 183.484375 57.035156 L 154.996094 56.175781 Z M 154.363281 77.164062 " clip-rule="nonzero"/></clipPath><clipPath id="bbfad78d86"><path d="M 278 56 L 295 56 L 295 78 L 278 78 Z M 278 56 " clip-rule="nonzero"/></clipPath><clipPath id="7c9ad82e13"><path d="M 294.164062 78.011719 L 265.675781 77.15625 L 266.308594 56.164062 L 294.796875 57.023438 Z M 294.164062 78.011719 " clip-rule="nonzero"/></clipPath><clipPath id="40108433dc"><path d="M 266.015625 77.164062 L 294.503906 78.023438 L 295.136719 57.035156 L 266.648438 56.175781 Z M 266.015625 77.164062 " clip-rule="nonzero"/></clipPath><clipPath id="4ded74403a"><path d="M 266 56 L 283 56 L 283 78 L 266 78 Z M 266 56 " clip-rule="nonzero"/></clipPath><clipPath id="e62adef6f5"><path d="M 294.164062 78.011719 L 265.675781 77.15625 L 266.308594 56.164062 L 294.796875 57.023438 Z M 294.164062 78.011719 " clip-rule="nonzero"/></clipPath><clipPath id="72c4c6767d"><path d="M 266.015625 77.164062 L 294.503906 78.023438 L 295.136719 57.035156 L 266.648438 56.175781 Z M 266.015625 77.164062 " clip-rule="nonzero"/></clipPath><clipPath id="00fbd9c1a0"><path d="M 241 56 L 258 56 L 258 78 L 241 78 Z M 241 56 " clip-rule="nonzero"/></clipPath><clipPath id="f648dcfdb3"><path d="M 257.039062 78.011719 L 228.550781 77.15625 L 229.183594 56.164062 L 257.671875 57.023438 Z M 257.039062 78.011719 " clip-rule="nonzero"/></clipPath><clipPath id="55ca76585e"><path d="M 228.890625 77.164062 L 257.378906 78.023438 L 258.011719 57.035156 L 229.523438 56.175781 Z M 228.890625 77.164062 " clip-rule="nonzero"/></clipPath><clipPath id="41697bb318"><path d="M 228 56 L 246 56 L 246 78 L 228 78 Z M 228 56 " clip-rule="nonzero"/></clipPath><clipPath id="b838b523df"><path d="M 257.039062 78.011719 L 228.550781 77.15625 L 229.183594 56.164062 L 257.671875 57.023438 Z M 257.039062 78.011719 " clip-rule="nonzero"/></clipPath><clipPath id="09629da18c"><path d="M 228.890625 77.164062 L 257.378906 78.023438 L 258.011719 57.035156 L 229.523438 56.175781 Z M 228.890625 77.164062 " clip-rule="nonzero"/></clipPath><clipPath id="ad54e4211d"><path d="M 204 56 L 221 56 L 221 78 L 204 78 Z M 204 56 " clip-rule="nonzero"/></clipPath><clipPath id="ac00c760a0"><path d="M 220.523438 78.011719 L 192.035156 77.15625 L 192.667969 56.164062 L 221.15625 57.023438 Z M 220.523438 78.011719 " clip-rule="nonzero"/></clipPath><clipPath id="77f28a5ff6"><path d="M 192.375 77.164062 L 220.863281 78.023438 L 221.496094 57.035156 L 193.007812 56.175781 Z M 192.375 77.164062 " clip-rule="nonzero"/></clipPath><clipPath id="bac7bc6db8"><path d="M 192 56 L 209 56 L 209 78 L 192 78 Z M 192 56 " clip-rule="nonzero"/></clipPath><clipPath id="086e16e85b"><path d="M 220.523438 78.011719 L 192.035156 77.15625 L 192.667969 56.164062 L 221.15625 57.023438 Z M 220.523438 78.011719 " clip-rule="nonzero"/></clipPath><clipPath id="5496111b28"><path d="M 192.375 77.164062 L 220.863281 78.023438 L 221.496094 57.035156 L 193.007812 56.175781 Z M 192.375 77.164062 " clip-rule="nonzero"/></clipPath></defs><g clip-path="url(#aa6bad6681)"><g clip-path="url(#b0b0da23dc)"><path fill="#919191" d="M 303.75 52.777344 L 303.75 323.039062 L -0.132812 323.039062 L -0.132812 52.777344 Z M 303.75 52.777344 " fill-opacity="1" fill-rule="nonzero"/></g></g><g clip-path="url(#cdfb82451e)"><g clip-path="url(#e11e7f6e20)"><path stroke-linecap="butt" transform="matrix(0.000000000000000046, 0.75, -0.75, 0.000000000000000046, 303.749959, 52.777278)" fill="none" stroke-linejoin="miter" d="M 120.062594 394.442673 C 138.520928 400.817674 159.505305 404.999965 180.099056 404.999965 C 200.692807 404.999965 220.505308 401.416632 238.770934 395.041632 C 239.15635 394.838507 239.546975 394.838507 239.9376 394.64059 C 308.515729 369.145797 359.026148 301.81246 360.000106 224.124956 L 360.000106 -0.0000552182 L 0.000088039 -0.0000552182 L 0.000088039 223.95829 C 0.968838 302.208294 50.708424 369.54163 120.062594 394.442673 " stroke="#000000" stroke-width="4" stroke-opacity="1" stroke-miterlimit="4"/></g></g><g clip-path="url(#0313d66391)"><g clip-path="url(#b97d2ef793)"><g clip-path="url(#8bdec5d259)"><path fill="#707070" d="M 182.53125 333.207031 L -5.210938 226.929688 L 101.070312 39.1875 L 288.808594 145.46875 Z M 182.53125 333.207031 " fill-opacity="1" fill-rule="nonzero"/></g></g></g><g clip-path="url(#4dcaa6e19f)"><g clip-path="url(#3d619a609f)"><g clip-path="url(#36e1fc9dec)"><g clip-path="url(#f7c4ed607f)"><path stroke-linecap="butt" transform="matrix(-0.652675, -0.36948, 0.36948, -0.652675, 182.53008, 333.208569)" fill="none" stroke-linejoin="miter" d="M 144.001962 -0.00175616 C 64.469826 0.00238282 -0.000177496 64.472726 0.00139565 144.000331 C -0.00156368 223.5305 64.46878 288.000504 144.003482 288.000897 C 223.531086 287.999324 288.00109 223.528981 287.999517 144.001376 C 288.002476 64.471206 223.532132 0.00120316 144.001962 -0.00175616 " stroke="#000000" stroke-width="8" stroke-opacity="1" stroke-miterlimit="4"/></g></g></g></g><g clip-path="url(#45e3d1473b)"><g clip-path="url(#62cc0a38a0)"><g clip-path="url(#7ad6266c4c)"><path fill="#ffde59" d="M 118.023438 249.515625 L 102.660156 240.898438 L 118.28125 213.054688 L 133.640625 221.671875 Z M 118.023438 249.515625 " fill-opacity="1" fill-rule="nonzero"/></g></g></g><g clip-path="url(#b74a06ab87)"><g clip-path="url(#05f1fbbf11)"><g clip-path="url(#91c2e53f6b)"><path fill="#ffde59" d="M 133.03125 156.074219 L 117.789062 164.898438 L 101.789062 137.273438 L 117.03125 128.445312 Z M 133.03125 156.074219 " fill-opacity="1" fill-rule="nonzero"/></g></g></g><g clip-path="url(#9d24ad88fe)"><g clip-path="url(#9637dd6711)"><g clip-path="url(#787b0945e8)"><path fill="#ffde59" d="M 190.664062 146.234375 L 191.320312 230.683594 L 118.082031 231.253906 L 117.425781 146.804688 Z M 190.664062 146.234375 " fill-opacity="1" fill-rule="nonzero"/></g></g></g><g clip-path="url(#054bd12dac)"><g clip-path="url(#e49a419f9c)"><g clip-path="url(#1e50b4c131)"><path fill="#ffde59" d="M 198.816406 179.558594 L 198.953125 197.171875 L 167.03125 197.417969 L 166.894531 179.804688 Z M 198.816406 179.558594 " fill-opacity="1" fill-rule="nonzero"/></g></g></g><g clip-path="url(#39a90533ea)"><g clip-path="url(#84d99592be)"><g clip-path="url(#e1d66651b6)"><path fill="#ffde59" d="M 192.058594 160.050781 L 247.675781 160.898438 L 246.824219 216.515625 L 191.210938 215.667969 Z M 192.058594 160.050781 " fill-opacity="1" fill-rule="nonzero"/></g></g></g><g clip-path="url(#245990d746)"><g clip-path="url(#921578b64d)"><g clip-path="url(#add5213665)"><g clip-path="url(#4c217cd037)"><path fill="#000000" d="M 219.757812 163.46875 C 214.207031 163.382812 209.199219 164.980469 204.738281 168.257812 L 201.191406 163.433594 C 206.734375 159.359375 212.953125 157.375 219.851562 157.480469 Z M 202.671875 169.957031 C 198.570312 173.707031 196.023438 178.300781 195.03125 183.734375 L 189.140625 182.65625 C 190.375 175.902344 193.539062 170.199219 198.628906 165.539062 Z M 194.691406 186.378906 C 194.65625 186.867188 194.636719 187.355469 194.628906 187.84375 C 194.550781 192.871094 195.875 197.480469 198.597656 201.679688 L 193.578125 204.9375 C 190.191406 199.722656 188.546875 193.992188 188.640625 187.753906 C 188.652344 187.144531 188.675781 186.542969 188.722656 185.941406 Z M 200.175781 203.839844 C 203.6875 208.152344 208.125 210.964844 213.492188 212.273438 L 212.074219 218.089844 C 205.402344 216.464844 199.890625 212.972656 195.53125 207.621094 Z M 216.101562 212.761719 C 217.0625 212.890625 218.027344 212.960938 219.003906 212.972656 C 223.515625 213.042969 227.714844 211.96875 231.613281 209.75 L 234.574219 214.953125 C 229.734375 217.710938 224.511719 219.046875 218.914062 218.960938 C 217.707031 218.941406 216.507812 218.855469 215.316406 218.699219 Z M 233.855469 208.304688 C 238.363281 205.054688 241.425781 200.789062 243.050781 195.507812 L 248.773438 197.265625 C 246.757812 203.824219 242.953125 209.125 237.363281 213.160156 Z M 243.695312 192.914062 C 243.964844 191.492188 244.113281 190.054688 244.136719 188.597656 C 244.195312 184.597656 243.347656 180.820312 241.585938 177.261719 L 246.953125 174.609375 C 249.140625 179.03125 250.199219 183.726562 250.121094 188.691406 C 250.09375 190.496094 249.910156 192.277344 249.574219 194.039062 Z M 240.277344 174.9375 C 237.292969 170.253906 233.210938 166.949219 228.03125 165.015625 L 230.121094 159.40625 C 236.554688 161.804688 241.625 165.910156 245.328125 171.722656 Z M 225.476562 164.21875 C 223.609375 163.75 221.703125 163.496094 219.757812 163.46875 L 219.851562 157.480469 C 222.261719 157.519531 224.628906 157.828125 226.945312 158.414062 Z M 225.476562 164.21875 " fill-opacity="1" fill-rule="nonzero"/></g></g></g></g><g clip-path="url(#cd4a792bcb)"><g clip-path="url(#9a188a8dc5)"><g clip-path="url(#408efbc9db)"><path fill="#ffde59" d="M 112.109375 82.882812 L 140.277344 130.84375 L 92.3125 159.011719 L 64.148438 111.046875 Z M 112.109375 82.882812 " fill-opacity="1" fill-rule="nonzero"/></g></g></g><g clip-path="url(#25a47c8ec1)"><g clip-path="url(#75820c3950)"><g clip-path="url(#bb5d135503)"><g clip-path="url(#e788439ad7)"><path fill="#000000" d="M 123.582031 108.328125 C 120.769531 103.539062 116.804688 100.089844 111.683594 97.980469 L 113.964844 92.441406 C 120.324219 95.0625 125.253906 99.347656 128.746094 105.296875 Z M 109.160156 97.09375 C 103.824219 95.542969 98.578125 95.75 93.417969 97.722656 L 91.28125 92.132812 C 97.691406 89.679688 104.210938 89.417969 110.832031 91.347656 Z M 90.980469 98.808594 C 90.546875 99.03125 90.121094 99.265625 89.699219 99.515625 C 85.363281 102.0625 82.109375 105.585938 79.9375 110.09375 L 74.542969 107.496094 C 77.242188 101.894531 81.285156 97.511719 86.664062 94.351562 C 87.1875 94.046875 87.71875 93.753906 88.253906 93.480469 Z M 78.910156 112.566406 C 77.046875 117.804688 76.953125 123.058594 78.621094 128.324219 L 72.914062 130.132812 C 70.839844 123.589844 70.957031 117.066406 73.265625 110.5625 Z M 79.558594 130.808594 C 79.949219 131.695312 80.390625 132.558594 80.886719 133.398438 C 83.171875 137.289062 86.273438 140.320312 90.191406 142.496094 L 87.285156 147.730469 C 82.414062 145.027344 78.558594 141.261719 75.722656 136.429688 C 75.113281 135.390625 74.566406 134.320312 74.082031 133.222656 Z M 92.589844 143.667969 C 97.710938 145.824219 102.949219 146.226562 108.300781 144.871094 L 109.773438 150.675781 C 103.121094 152.359375 96.617188 151.863281 90.265625 149.183594 Z M 110.855469 144.074219 C 112.207031 143.570312 113.511719 142.949219 114.769531 142.210938 C 118.21875 140.183594 121.007812 137.496094 123.132812 134.144531 L 128.1875 137.351562 C 125.546875 141.519531 122.082031 144.859375 117.800781 147.375 C 116.246094 148.289062 114.625 149.058594 112.949219 149.683594 Z M 124.4375 131.816406 C 126.890625 126.835938 127.597656 121.628906 126.554688 116.199219 L 132.433594 115.070312 C 133.726562 121.816406 132.851562 128.277344 129.808594 134.460938 Z M 125.910156 113.601562 C 125.34375 111.761719 124.566406 110.003906 123.582031 108.328125 L 128.746094 105.296875 C 129.964844 107.375 130.929688 109.558594 131.632812 111.84375 Z M 125.910156 113.601562 " fill-opacity="1" fill-rule="nonzero"/></g></g></g></g><g clip-path="url(#9c933494ad)"><g clip-path="url(#f666e30c24)"><g clip-path="url(#33a866eceb)"><path fill="#ffde59" d="M 94.648438 215.828125 L 143.054688 243.230469 L 115.652344 291.632812 L 67.246094 264.234375 Z M 94.648438 215.828125 " fill-opacity="1" fill-rule="nonzero"/></g></g></g><g clip-path="url(#7116deddb1)"><g clip-path="url(#2f7c741afd)"><g clip-path="url(#9fb110137e)"><g clip-path="url(#fd8ee7602c)"><path fill="#000000" d="M 117.324219 232.105469 C 112.488281 229.367188 107.328125 228.371094 101.839844 229.109375 L 101.042969 223.175781 C 107.859375 222.257812 114.269531 223.496094 120.273438 226.894531 Z M 99.214844 229.609375 C 93.820312 230.9375 89.382812 233.746094 85.90625 238.039062 L 81.253906 234.269531 C 85.574219 228.933594 91.085938 225.441406 97.78125 223.792969 Z M 84.339844 240.199219 C 84.078125 240.609375 83.824219 241.027344 83.582031 241.453125 C 81.105469 245.828125 80.058594 250.507812 80.4375 255.496094 L 74.464844 255.949219 C 73.996094 249.75 75.296875 243.933594 78.371094 238.503906 C 78.671875 237.976562 78.984375 237.457031 79.3125 236.949219 Z M 80.78125 258.152344 C 81.796875 263.617188 84.347656 268.214844 88.429688 271.933594 L 84.394531 276.359375 C 79.320312 271.734375 76.15625 266.03125 74.894531 259.242188 Z M 90.484375 273.613281 C 91.265625 274.1875 92.082031 274.710938 92.929688 275.191406 C 96.855469 277.414062 101.058594 278.484375 105.539062 278.40625 L 105.648438 284.390625 C 100.078125 284.492188 94.855469 283.160156 89.980469 280.402344 C 88.929688 279.808594 87.921875 279.15625 86.953125 278.449219 Z M 108.203125 278.214844 C 113.71875 277.519531 118.453125 275.242188 122.40625 271.386719 L 126.585938 275.675781 C 121.671875 280.464844 115.796875 283.292969 108.953125 284.15625 Z M 124.214844 269.417969 C 125.132812 268.304688 125.953125 267.113281 126.671875 265.84375 C 128.640625 262.363281 129.707031 258.640625 129.867188 254.675781 L 135.851562 254.917969 C 135.648438 259.847656 134.328125 264.472656 131.882812 268.792969 C 130.992188 270.363281 129.976562 271.84375 128.835938 273.226562 Z M 129.832031 252.007812 C 129.457031 246.464844 127.460938 241.605469 123.839844 237.429688 L 128.363281 233.507812 C 132.859375 238.695312 135.339844 244.726562 135.804688 251.605469 Z M 121.980469 235.503906 C 120.566406 234.195312 119.015625 233.0625 117.324219 232.105469 L 120.273438 226.894531 C 122.371094 228.082031 124.296875 229.488281 126.050781 231.113281 Z M 121.980469 235.503906 " fill-opacity="1" fill-rule="nonzero"/></g></g></g></g><g clip-path="url(#bcebac9637)"><g clip-path="url(#cf4795dae3)"><g clip-path="url(#1198bf647d)"><path fill="#707070" d="M 226.363281 181.246094 L 226.472656 195.207031 L 212.511719 195.3125 L 212.402344 181.355469 Z M 226.363281 181.246094 " fill-opacity="1" fill-rule="nonzero"/></g></g></g><g clip-path="url(#440e3964d1)"><g clip-path="url(#48e8a9f152)"><g clip-path="url(#3ae231bf6f)"><path fill="#707070" d="M 111.765625 123.425781 L 99.726562 130.492188 L 92.65625 118.457031 L 104.695312 111.386719 Z M 111.765625 123.425781 " fill-opacity="1" fill-rule="nonzero"/></g></g></g><g clip-path="url(#00f89a34c1)"><g clip-path="url(#f60c83c162)"><g clip-path="url(#5ee7dfb643)"><path fill="#707070" d="M 112.988281 247.1875 L 113.09375 261.148438 L 99.136719 261.253906 L 99.027344 247.296875 Z M 112.988281 247.1875 " fill-opacity="1" fill-rule="nonzero"/></g></g></g><g clip-path="url(#095e01ba27)"><g clip-path="url(#fa2dfe574d)"><g clip-path="url(#0b0f80d30a)"><g clip-path="url(#fb02870250)"><path fill="#ffffff" d="M 189.203125 225.90625 C 189.242188 225.921875 189.265625 225.949219 189.273438 225.988281 C 189.414062 226.023438 189.542969 225.828125 189.691406 225.972656 C 190.136719 226.046875 190.226562 226.386719 190.261719 226.757812 C 190.355469 227.804688 190.277344 228.84375 190.136719 229.875 C 189.625 233.574219 188.367188 236.988281 186.492188 240.207031 C 183.21875 245.824219 178.453125 249.679688 172.589844 252.257812 C 169.871094 253.457031 166.992188 254.152344 164.074219 254.710938 C 162.363281 255.039062 160.632812 255.265625 158.910156 255.53125 C 158.84375 255.511719 158.78125 255.496094 158.714844 255.476562 C 158.648438 255.519531 158.5625 255.546875 158.527344 255.605469 C 158.527344 255.605469 158.527344 255.605469 158.527344 255.609375 C 158.5 255.65625 158.570312 255.695312 158.632812 255.683594 C 159.238281 256.011719 159.890625 256.203125 160.554688 256.359375 C 161.007812 256.464844 161.441406 256.601562 161.828125 256.867188 C 162.808594 257.089844 163.289062 257.730469 163.210938 258.640625 C 161.28125 259.128906 159.496094 258.574219 157.726562 257.863281 C 157.066406 257.597656 156.390625 257.378906 155.722656 257.148438 C 154.113281 256.601562 154.375 256.589844 154.082031 255.238281 C 154.015625 254.933594 154.023438 254.621094 154.058594 254.3125 C 154.074219 254.199219 154.097656 254.09375 154.195312 254.023438 C 154.136719 253.675781 154.375 253.503906 154.613281 253.34375 C 155.328125 252.875 156.042969 252.417969 156.757812 251.953125 C 156.847656 251.769531 157.015625 251.6875 157.1875 251.609375 C 157.269531 251.421875 157.441406 251.339844 157.605469 251.253906 C 157.640625 251.109375 157.777344 251.058594 157.871094 250.96875 C 159.136719 249.765625 160.246094 248.433594 161.125 246.914062 C 161.191406 246.800781 161.265625 246.691406 161.335938 246.582031 C 161.417969 246.445312 161.511719 246.296875 161.6875 246.339844 C 161.820312 246.375 161.910156 246.542969 161.898438 246.660156 C 161.84375 247.167969 162.113281 247.632812 162.105469 248.132812 C 162.101562 248.351562 162.011719 248.554688 161.910156 248.757812 C 161.164062 250.324219 160.15625 251.710938 159.007812 252.996094 C 158.902344 253.109375 158.78125 253.210938 158.703125 253.34375 C 158.617188 253.496094 158.734375 253.582031 158.871094 253.636719 C 159 253.519531 159.140625 253.503906 159.296875 253.582031 C 159.4375 253.496094 159.578125 253.425781 159.746094 253.519531 C 159.765625 253.480469 159.796875 253.472656 159.832031 253.5 C 159.960938 253.417969 160.097656 253.359375 160.253906 253.4375 C 160.355469 253.398438 160.453125 253.34375 160.558594 253.328125 C 161.726562 253.109375 162.894531 252.910156 164.054688 252.675781 C 165.113281 252.46875 166.160156 252.226562 167.207031 251.996094 C 167.476562 251.902344 167.742188 251.796875 168.015625 251.714844 C 170.652344 250.890625 173.148438 249.757812 175.46875 248.253906 C 176.292969 247.714844 177.105469 247.152344 177.921875 246.601562 C 178.011719 246.40625 178.195312 246.328125 178.375 246.246094 C 178.457031 246.058594 178.628906 245.980469 178.800781 245.902344 C 178.863281 245.71875 179.035156 245.652344 179.183594 245.566406 C 179.21875 245.441406 179.308594 245.382812 179.425781 245.347656 C 179.441406 245.304688 179.472656 245.28125 179.519531 245.277344 C 179.558594 245.136719 179.6875 245.082031 179.777344 244.992188 C 180.222656 244.542969 180.746094 244.175781 181.132812 243.671875 C 181.207031 243.683594 181.371094 243.597656 181.246094 243.804688 C 181.164062 243.941406 181.179688 243.980469 181.234375 243.988281 C 181.28125 243.992188 181.355469 243.972656 181.414062 243.964844 C 182.769531 242.5 183.933594 240.890625 184.992188 239.199219 C 185.074219 239.03125 185.160156 238.863281 185.242188 238.699219 C 185.742188 237.707031 186.242188 236.710938 186.742188 235.722656 C 186.734375 235.675781 186.738281 235.636719 186.757812 235.601562 C 186.773438 235.578125 186.792969 235.558594 186.816406 235.542969 C 186.800781 235.46875 186.828125 235.410156 186.886719 235.371094 C 186.871094 235.296875 186.894531 235.238281 186.960938 235.195312 C 186.941406 235.121094 186.964844 235.0625 187.03125 235.023438 C 187.011719 234.945312 187.035156 234.886719 187.097656 234.847656 C 187.078125 234.773438 187.101562 234.714844 187.167969 234.671875 C 187.144531 234.597656 187.167969 234.539062 187.230469 234.5 L 187.234375 234.496094 C 187.25 234.4375 187.269531 234.378906 187.292969 234.324219 L 187.296875 234.316406 C 187.273438 234.246094 187.292969 234.1875 187.359375 234.144531 L 187.359375 234.140625 C 187.339844 234.066406 187.359375 234.007812 187.421875 233.96875 L 187.425781 233.960938 C 187.425781 233.960938 187.425781 233.957031 187.425781 233.957031 C 187.425781 233.957031 187.425781 233.960938 187.425781 233.960938 C 187.398438 233.886719 187.421875 233.828125 187.484375 233.789062 L 187.488281 233.785156 C 187.460938 233.710938 187.484375 233.652344 187.546875 233.609375 C 187.523438 233.53125 187.542969 233.472656 187.609375 233.429688 C 187.761719 232.871094 187.910156 232.316406 188.0625 231.757812 C 188.230469 231.492188 188.257812 231.179688 188.324219 230.882812 C 188.292969 230.859375 188.265625 230.847656 188.234375 230.835938 C 188.1875 230.824219 188.140625 230.824219 188.089844 230.839844 C 188.117188 230.613281 188.125 230.378906 188.253906 230.175781 C 188.296875 230.121094 188.332031 230.058594 188.339844 229.980469 C 188.3125 230.046875 188.28125 230.113281 188.253906 230.175781 C 188.246094 230.101562 188.25 230.03125 188.324219 229.992188 C 188.273438 229.886719 188.292969 229.789062 188.351562 229.695312 C 188.320312 229.625 188.324219 229.566406 188.386719 229.519531 C 188.371094 229.441406 188.371094 229.371094 188.433594 229.316406 C 188.421875 229.28125 188.421875 229.246094 188.441406 229.210938 C 188.425781 228.984375 188.460938 228.765625 188.546875 228.554688 C 188.542969 228.390625 188.539062 228.230469 188.621094 228.082031 C 188.582031 227.980469 188.617188 227.882812 188.644531 227.785156 C 188.636719 227.148438 188.746094 226.515625 188.613281 225.847656 C 188.84375 225.910156 189.03125 225.734375 189.203125 225.90625 Z M 159.886719 253.621094 C 159.890625 253.621094 159.890625 253.621094 159.890625 253.621094 C 159.890625 253.621094 159.890625 253.617188 159.890625 253.617188 C 159.890625 253.617188 159.890625 253.621094 159.890625 253.621094 C 159.890625 253.617188 159.890625 253.617188 159.890625 253.613281 C 159.886719 253.617188 159.886719 253.617188 159.886719 253.621094 Z M 187.820312 233.945312 C 187.816406 233.957031 187.816406 233.972656 187.8125 233.988281 C 187.816406 233.984375 187.816406 233.980469 187.820312 233.976562 C 187.824219 233.964844 187.828125 233.953125 187.832031 233.941406 C 187.828125 233.941406 187.824219 233.941406 187.820312 233.945312 Z M 186.75 235.714844 C 186.753906 235.714844 186.753906 235.714844 186.753906 235.71875 C 186.761719 235.71875 186.765625 235.722656 186.769531 235.722656 L 186.785156 235.726562 L 186.753906 235.714844 C 186.753906 235.714844 186.753906 235.714844 186.753906 235.710938 C 186.753906 235.714844 186.753906 235.714844 186.75 235.714844 Z M 187.886719 233.925781 C 187.871094 233.929688 187.851562 233.933594 187.835938 233.941406 C 187.832031 233.953125 187.824219 233.964844 187.820312 233.976562 C 187.835938 233.953125 187.855469 233.933594 187.886719 233.925781 Z M 187.796875 234.058594 C 187.792969 234.070312 187.785156 234.085938 187.78125 234.097656 C 187.785156 234.101562 187.78125 234.101562 187.785156 234.101562 C 187.789062 234.085938 187.792969 234.070312 187.796875 234.058594 Z M 189.605469 227.046875 C 189.605469 227.046875 189.605469 227.042969 189.609375 227.042969 C 189.605469 227.039062 189.609375 227.039062 189.605469 227.035156 C 189.605469 227.039062 189.605469 227.042969 189.605469 227.046875 Z M 189.605469 227.332031 C 189.609375 227.335938 189.609375 227.335938 189.609375 227.339844 C 189.605469 227.335938 189.609375 227.332031 189.605469 227.332031 Z M 188.425781 229.90625 C 188.4375 229.902344 188.453125 229.902344 188.46875 229.902344 C 188.464844 229.894531 188.460938 229.886719 188.457031 229.878906 C 188.449219 229.886719 188.4375 229.898438 188.425781 229.90625 Z M 188.453125 229.40625 C 188.460938 229.382812 188.460938 229.359375 188.453125 229.332031 C 188.453125 229.332031 188.453125 229.332031 188.449219 229.332031 C 188.457031 229.359375 188.457031 229.382812 188.453125 229.40625 Z M 188.453125 229.40625 " fill-opacity="1" fill-rule="nonzero"/></g></g></g></g><g clip-path="url(#60bd8938a1)"><g clip-path="url(#ea4704a696)"><g clip-path="url(#05ccddb49b)"><g clip-path="url(#50fa9d2d1c)"><path fill="#ffffff" d="M 187.300781 234.316406 C 187.28125 234.371094 187.257812 234.429688 187.238281 234.488281 C 187.214844 234.410156 187.238281 234.355469 187.300781 234.316406 Z M 187.300781 234.316406 " fill-opacity="1" fill-rule="nonzero"/></g></g></g></g><g clip-path="url(#71408626bb)"><g clip-path="url(#7cc8b9b745)"><g clip-path="url(#35c1a96ac8)"><g clip-path="url(#4892f9e1d2)"><path fill="#ffffff" d="M 81.371094 212.640625 C 81.339844 212.667969 81.300781 212.671875 81.261719 212.65625 C 81.152344 212.75 81.242188 212.964844 81.039062 213.003906 C 80.722656 213.324219 80.394531 213.207031 80.066406 213.019531 C 79.160156 212.492188 78.355469 211.832031 77.589844 211.121094 C 74.859375 208.574219 72.792969 205.582031 71.238281 202.195312 C 68.527344 196.285156 68.121094 190.171875 69.386719 183.890625 C 69.972656 180.976562 71.0625 178.222656 72.28125 175.515625 C 73 173.925781 73.8125 172.382812 74.585938 170.820312 C 74.636719 170.777344 74.691406 170.734375 74.742188 170.691406 C 74.746094 170.613281 74.773438 170.527344 74.742188 170.464844 C 74.71875 170.414062 74.648438 170.449219 74.621094 170.503906 C 74.003906 170.8125 73.472656 171.234375 72.960938 171.6875 C 72.613281 172 72.253906 172.273438 71.8125 172.4375 C 71.066406 173.109375 70.265625 173.136719 69.566406 172.546875 C 70.277344 170.6875 71.757812 169.546875 73.359375 168.507812 C 73.957031 168.121094 74.523438 167.695312 75.097656 167.28125 C 76.46875 166.28125 76.328125 166.503906 77.605469 167.042969 C 77.890625 167.164062 78.140625 167.347656 78.375 167.554688 C 78.460938 167.632812 78.53125 167.710938 78.53125 167.832031 C 78.847656 167.984375 78.855469 168.28125 78.84375 168.566406 C 78.820312 169.417969 78.78125 170.269531 78.75 171.121094 C 78.847656 171.296875 78.820312 171.484375 78.78125 171.667969 C 78.890625 171.84375 78.855469 172.03125 78.832031 172.214844 C 78.929688 172.328125 78.894531 172.46875 78.914062 172.59375 C 79.171875 174.324219 79.621094 175.996094 80.355469 177.589844 C 80.414062 177.710938 80.457031 177.835938 80.507812 177.957031 C 80.570312 178.101562 80.640625 178.265625 80.5 178.382812 C 80.398438 178.46875 80.207031 178.445312 80.121094 178.371094 C 79.734375 178.03125 79.199219 177.984375 78.796875 177.691406 C 78.617188 177.5625 78.507812 177.371094 78.398438 177.175781 C 77.546875 175.660156 76.992188 174.039062 76.601562 172.359375 C 76.566406 172.207031 76.554688 172.046875 76.492188 171.910156 C 76.417969 171.75 76.277344 171.796875 76.15625 171.878906 C 76.179688 172.050781 76.109375 172.175781 75.957031 172.257812 C 75.945312 172.421875 75.921875 172.578125 75.75 172.660156 C 75.769531 172.703125 75.757812 172.726562 75.714844 172.742188 C 75.710938 172.898438 75.679688 173.039062 75.523438 173.125 C 75.496094 173.230469 75.484375 173.339844 75.4375 173.4375 C 74.945312 174.515625 74.4375 175.585938 73.957031 176.671875 C 73.519531 177.65625 73.117188 178.648438 72.699219 179.640625 C 72.621094 179.914062 72.554688 180.191406 72.464844 180.460938 C 71.621094 183.09375 71.109375 185.785156 71.007812 188.546875 C 70.96875 189.535156 70.964844 190.519531 70.945312 191.507812 C 71.050781 191.695312 71.011719 191.886719 70.972656 192.082031 C 71.082031 192.257812 71.042969 192.441406 71.011719 192.625 C 71.125 192.785156 71.078125 192.960938 71.0625 193.132812 C 71.148438 193.234375 71.140625 193.34375 71.101562 193.457031 C 71.132812 193.496094 71.132812 193.535156 71.105469 193.574219 C 71.199219 193.6875 71.167969 193.824219 71.191406 193.949219 C 71.300781 194.570312 71.300781 195.210938 71.492188 195.820312 C 71.441406 195.875 71.414062 196.054688 71.320312 195.835938 C 71.253906 195.6875 71.210938 195.679688 71.171875 195.71875 C 71.140625 195.753906 71.117188 195.828125 71.089844 195.878906 C 71.503906 197.832031 72.152344 199.710938 72.929688 201.550781 C 73.015625 201.714844 73.105469 201.878906 73.191406 202.042969 C 73.714844 203.023438 74.242188 204.003906 74.765625 204.984375 C 74.804688 205 74.835938 205.027344 74.851562 205.0625 C 74.863281 205.089844 74.867188 205.113281 74.867188 205.144531 C 74.9375 205.175781 74.96875 205.230469 74.96875 205.304688 C 75.039062 205.332031 75.070312 205.386719 75.066406 205.460938 C 75.140625 205.488281 75.171875 205.542969 75.167969 205.621094 C 75.242188 205.648438 75.277344 205.699219 75.273438 205.777344 C 75.347656 205.800781 75.382812 205.855469 75.375 205.929688 L 75.378906 205.933594 C 75.449219 205.957031 75.488281 206.007812 75.480469 206.085938 L 75.484375 206.089844 C 75.519531 206.136719 75.558594 206.1875 75.589844 206.238281 L 75.59375 206.242188 C 75.664062 206.265625 75.699219 206.316406 75.699219 206.394531 L 75.703125 206.398438 C 75.773438 206.421875 75.808594 206.472656 75.808594 206.546875 L 75.808594 206.554688 C 75.808594 206.554688 75.8125 206.554688 75.8125 206.554688 C 75.8125 206.554688 75.808594 206.554688 75.808594 206.554688 C 75.886719 206.574219 75.921875 206.625 75.917969 206.703125 L 75.917969 206.707031 C 75.992188 206.730469 76.03125 206.777344 76.027344 206.855469 L 76.027344 206.859375 C 76.101562 206.882812 76.140625 206.933594 76.140625 207.007812 C 76.507812 207.453125 76.878906 207.898438 77.246094 208.34375 C 77.363281 208.632812 77.605469 208.835938 77.808594 209.058594 C 77.84375 209.050781 77.875 209.035156 77.898438 209.015625 C 77.9375 208.984375 77.964844 208.945312 77.980469 208.894531 C 78.152344 209.046875 78.335938 209.1875 78.429688 209.40625 C 78.449219 209.476562 78.480469 209.542969 78.535156 209.59375 C 78.5 209.53125 78.464844 209.46875 78.429688 209.40625 C 78.492188 209.445312 78.550781 209.488281 78.539062 209.570312 C 78.652344 209.589844 78.722656 209.664062 78.765625 209.765625 C 78.839844 209.78125 78.886719 209.816406 78.890625 209.894531 C 78.960938 209.925781 79.015625 209.96875 79.027344 210.050781 C 79.0625 210.0625 79.09375 210.082031 79.109375 210.117188 C 79.304688 210.238281 79.464844 210.390625 79.585938 210.582031 C 79.71875 210.675781 79.855469 210.761719 79.929688 210.914062 C 80.035156 210.941406 80.09375 211.027344 80.15625 211.105469 C 80.683594 211.464844 81.136719 211.917969 81.761719 212.191406 C 81.578125 212.347656 81.613281 212.601562 81.371094 212.640625 Z M 75.585938 172.71875 C 75.585938 172.722656 75.585938 172.722656 75.585938 172.722656 C 75.582031 172.722656 75.582031 172.722656 75.582031 172.722656 C 75.582031 172.722656 75.585938 172.722656 75.585938 172.722656 C 75.585938 172.722656 75.585938 172.722656 75.589844 172.722656 C 75.585938 172.722656 75.585938 172.722656 75.585938 172.71875 Z M 75.597656 206.886719 C 75.585938 206.875 75.574219 206.867188 75.566406 206.855469 C 75.566406 206.859375 75.566406 206.863281 75.570312 206.867188 C 75.578125 206.875 75.585938 206.886719 75.59375 206.898438 C 75.59375 206.894531 75.59375 206.890625 75.597656 206.886719 Z M 74.765625 204.992188 C 74.761719 204.992188 74.761719 204.996094 74.761719 204.996094 C 74.757812 205 74.75 205 74.746094 205.003906 L 74.734375 205.015625 L 74.761719 204.996094 C 74.765625 204.996094 74.765625 204.996094 74.765625 204.996094 C 74.765625 204.996094 74.765625 204.996094 74.765625 204.992188 Z M 75.574219 206.953125 C 75.578125 206.933594 75.585938 206.917969 75.589844 206.902344 C 75.585938 206.890625 75.578125 206.878906 75.570312 206.871094 C 75.582031 206.894531 75.585938 206.921875 75.574219 206.953125 Z M 75.519531 206.800781 C 75.507812 206.789062 75.5 206.777344 75.492188 206.765625 C 75.488281 206.765625 75.488281 206.765625 75.488281 206.765625 C 75.5 206.777344 75.507812 206.789062 75.519531 206.800781 Z M 80.207031 212.316406 C 80.207031 212.316406 80.210938 212.320312 80.210938 212.320312 C 80.214844 212.320312 80.214844 212.324219 80.21875 212.324219 C 80.214844 212.320312 80.210938 212.320312 80.207031 212.316406 Z M 79.976562 212.152344 C 79.972656 212.152344 79.96875 212.152344 79.964844 212.148438 C 79.96875 212.148438 79.972656 212.152344 79.976562 212.152344 Z M 78.550781 209.707031 C 78.542969 209.71875 78.539062 209.730469 78.527344 209.742188 C 78.535156 209.746094 78.542969 209.746094 78.554688 209.746094 C 78.550781 209.734375 78.550781 209.71875 78.550781 209.707031 Z M 78.941406 210.015625 C 78.957031 210.035156 78.980469 210.050781 79.003906 210.058594 C 79.003906 210.058594 79.003906 210.058594 79.003906 210.054688 C 78.980469 210.046875 78.960938 210.035156 78.941406 210.015625 Z M 78.941406 210.015625 " fill-opacity="1" fill-rule="nonzero"/></g></g></g></g><g clip-path="url(#b25f220e43)"><g clip-path="url(#96fde752b7)"><g clip-path="url(#4622d680fd)"><g clip-path="url(#a4b0058ecb)"><path fill="#ffffff" d="M 75.59375 206.25 C 75.558594 206.199219 75.523438 206.148438 75.488281 206.097656 C 75.5625 206.121094 75.597656 206.171875 75.59375 206.25 Z M 75.59375 206.25 " fill-opacity="1" fill-rule="nonzero"/></g></g></g></g><g clip-path="url(#d4a16e9c88)"><g clip-path="url(#708e545246)"><g clip-path="url(#91e8a1a539)"><g clip-path="url(#91a56ed092)"><path fill="#ffffff" d="M 150.882812 121.359375 C 150.882812 121.316406 150.898438 121.285156 150.933594 121.261719 C 150.917969 121.117188 150.691406 121.066406 150.773438 120.878906 C 150.691406 120.433594 150.976562 120.230469 151.316406 120.070312 C 152.265625 119.625 153.269531 119.339844 154.285156 119.117188 C 157.9375 118.324219 161.574219 118.332031 165.242188 118.984375 C 171.640625 120.128906 176.898438 123.277344 181.339844 127.898438 C 183.398438 130.039062 185.039062 132.503906 186.566406 135.050781 C 187.464844 136.546875 188.269531 138.089844 189.113281 139.617188 C 189.121094 139.6875 189.125 139.753906 189.128906 139.824219 C 189.191406 139.867188 189.246094 139.9375 189.316406 139.949219 C 189.371094 139.960938 189.382812 139.882812 189.355469 139.828125 C 189.453125 139.144531 189.40625 138.464844 189.324219 137.789062 C 189.269531 137.328125 189.25 136.875 189.367188 136.417969 C 189.238281 135.421875 189.671875 134.75 190.554688 134.507812 C 191.679688 136.15625 191.773438 138.023438 191.710938 139.929688 C 191.691406 140.640625 191.714844 141.347656 191.730469 142.054688 C 191.769531 143.753906 191.667969 143.511719 190.496094 144.253906 C 190.234375 144.417969 189.941406 144.519531 189.636719 144.59375 C 189.527344 144.617188 189.421875 144.632812 189.320312 144.566406 C 189.011719 144.738281 188.769531 144.574219 188.539062 144.402344 C 187.851562 143.894531 187.175781 143.382812 186.496094 142.867188 C 186.292969 142.847656 186.15625 142.71875 186.023438 142.582031 C 185.820312 142.570312 185.683594 142.4375 185.546875 142.3125 C 185.398438 142.328125 185.304688 142.222656 185.1875 142.164062 C 183.621094 141.390625 181.992188 140.804688 180.261719 140.503906 C 180.132812 140.480469 180.003906 140.445312 179.875 140.417969 C 179.722656 140.386719 179.546875 140.347656 179.527344 140.171875 C 179.515625 140.035156 179.644531 139.890625 179.753906 139.863281 C 180.253906 139.738281 180.597656 139.328125 181.066406 139.160156 C 181.277344 139.089844 181.496094 139.105469 181.71875 139.128906 C 183.449219 139.292969 185.097656 139.761719 186.699219 140.398438 C 186.84375 140.457031 186.980469 140.539062 187.132812 140.5625 C 187.304688 140.59375 187.347656 140.453125 187.347656 140.308594 C 187.191406 140.226562 187.128906 140.097656 187.152344 139.925781 C 187.023438 139.824219 186.90625 139.714844 186.9375 139.527344 C 186.890625 139.519531 186.878906 139.496094 186.890625 139.453125 C 186.765625 139.359375 186.667969 139.25 186.683594 139.078125 C 186.613281 138.996094 186.53125 138.921875 186.476562 138.828125 C 185.871094 137.808594 185.28125 136.777344 184.664062 135.765625 C 184.105469 134.847656 183.519531 133.949219 182.941406 133.042969 C 182.757812 132.820312 182.570312 132.609375 182.398438 132.382812 C 180.71875 130.1875 178.796875 128.230469 176.585938 126.574219 C 175.796875 125.980469 174.992188 125.414062 174.191406 124.835938 C 173.976562 124.820312 173.839844 124.675781 173.703125 124.53125 C 173.496094 124.519531 173.367188 124.386719 173.234375 124.253906 C 173.039062 124.253906 172.921875 124.117188 172.789062 124.003906 C 172.65625 124.019531 172.570312 123.953125 172.5 123.855469 C 172.449219 123.855469 172.417969 123.835938 172.398438 123.789062 C 172.253906 123.804688 172.160156 123.699219 172.042969 123.644531 C 171.46875 123.382812 170.945312 123.019531 170.335938 122.828125 C 170.320312 122.753906 170.1875 122.628906 170.421875 122.675781 C 170.578125 122.707031 170.613281 122.675781 170.597656 122.621094 C 170.589844 122.578125 170.542969 122.515625 170.515625 122.464844 C 168.675781 121.691406 166.761719 121.152344 164.808594 120.742188 C 164.625 120.722656 164.4375 120.699219 164.253906 120.675781 C 163.148438 120.550781 162.046875 120.421875 160.941406 120.292969 C 160.902344 120.316406 160.863281 120.324219 160.824219 120.320312 C 160.800781 120.3125 160.773438 120.304688 160.75 120.285156 C 160.683594 120.324219 160.621094 120.320312 160.5625 120.277344 C 160.5 120.320312 160.4375 120.316406 160.375 120.269531 C 160.3125 120.3125 160.25 120.308594 160.1875 120.265625 C 160.125 120.308594 160.058594 120.308594 160 120.257812 C 159.9375 120.304688 159.875 120.304688 159.8125 120.257812 C 159.75 120.304688 159.6875 120.300781 159.628906 120.253906 L 159.625 120.253906 C 159.5625 120.257812 159.5 120.257812 159.441406 120.257812 L 159.433594 120.257812 C 159.371094 120.300781 159.3125 120.304688 159.25 120.257812 L 159.246094 120.257812 C 159.183594 120.304688 159.125 120.304688 159.0625 120.257812 L 159.054688 120.257812 C 158.996094 120.308594 158.933594 120.308594 158.871094 120.261719 L 158.867188 120.261719 C 158.804688 120.308594 158.746094 120.308594 158.683594 120.261719 L 158.679688 120.265625 C 158.617188 120.3125 158.554688 120.3125 158.492188 120.269531 C 157.917969 120.316406 157.34375 120.367188 156.765625 120.417969 C 156.460938 120.347656 156.160156 120.433594 155.855469 120.472656 C 155.84375 120.507812 155.839844 120.539062 155.84375 120.570312 C 155.847656 120.621094 155.863281 120.664062 155.898438 120.707031 C 155.671875 120.761719 155.453125 120.832031 155.21875 120.78125 C 155.148438 120.761719 155.078125 120.75 155.003906 120.765625 C 155.074219 120.773438 155.144531 120.777344 155.21875 120.78125 C 155.148438 120.8125 155.082031 120.835938 155.019531 120.78125 C 154.9375 120.863281 154.839844 120.878906 154.730469 120.855469 C 154.675781 120.910156 154.621094 120.925781 154.550781 120.882812 C 154.488281 120.925781 154.421875 120.945312 154.347656 120.90625 C 154.320312 120.933594 154.285156 120.945312 154.246094 120.9375 C 154.035156 121.027344 153.820312 121.074219 153.59375 121.066406 C 153.441406 121.121094 153.289062 121.183594 153.125 121.15625 C 153.039062 121.230469 152.9375 121.226562 152.835938 121.234375 C 152.242188 121.460938 151.609375 121.578125 151.027344 121.933594 C 151.007812 121.695312 150.777344 121.578125 150.882812 121.359375 Z M 186.984375 139.355469 C 186.984375 139.355469 186.984375 139.355469 186.980469 139.355469 C 186.984375 139.355469 186.984375 139.355469 186.984375 139.355469 C 186.984375 139.355469 186.980469 139.355469 186.980469 139.355469 C 186.980469 139.355469 186.980469 139.359375 186.976562 139.359375 C 186.980469 139.359375 186.980469 139.359375 186.984375 139.355469 Z M 158.902344 119.894531 C 158.917969 119.890625 158.933594 119.886719 158.945312 119.882812 C 158.941406 119.882812 158.9375 119.882812 158.933594 119.882812 C 158.921875 119.882812 158.910156 119.882812 158.894531 119.882812 C 158.898438 119.886719 158.898438 119.886719 158.902344 119.894531 Z M 160.933594 120.289062 C 160.933594 120.285156 160.933594 120.285156 160.933594 120.285156 C 160.933594 120.277344 160.933594 120.273438 160.933594 120.269531 L 160.929688 120.25 L 160.933594 120.285156 C 160.933594 120.285156 160.929688 120.285156 160.929688 120.289062 C 160.929688 120.285156 160.933594 120.285156 160.933594 120.289062 Z M 158.863281 119.835938 C 158.875 119.851562 158.882812 119.867188 158.894531 119.878906 C 158.90625 119.878906 158.917969 119.878906 158.933594 119.878906 C 158.90625 119.878906 158.882812 119.863281 158.863281 119.835938 Z M 159.019531 119.875 C 159.03125 119.875 159.046875 119.875 159.0625 119.875 C 159.0625 119.875 159.0625 119.875 159.066406 119.871094 C 159.050781 119.875 159.03125 119.875 159.019531 119.875 Z M 151.8125 120.589844 C 151.8125 120.585938 151.808594 120.585938 151.808594 120.585938 C 151.808594 120.585938 151.804688 120.585938 151.804688 120.585938 C 151.804688 120.589844 151.804688 120.589844 151.800781 120.589844 C 151.804688 120.589844 151.808594 120.589844 151.8125 120.589844 Z M 152.078125 120.488281 C 152.082031 120.484375 152.082031 120.484375 152.085938 120.484375 C 152.085938 120.484375 152.082031 120.488281 152.078125 120.488281 Z M 154.902344 120.710938 C 154.894531 120.699219 154.890625 120.6875 154.886719 120.671875 C 154.878906 120.679688 154.871094 120.683594 154.867188 120.691406 C 154.878906 120.699219 154.890625 120.707031 154.902344 120.710938 Z M 154.425781 120.859375 C 154.398438 120.859375 154.375 120.867188 154.355469 120.886719 C 154.378906 120.871094 154.402344 120.863281 154.425781 120.859375 Z M 154.425781 120.859375 " fill-opacity="1" fill-rule="nonzero"/></g></g></g></g><g clip-path="url(#3b747e140b)"><g clip-path="url(#8d2a330be3)"><g clip-path="url(#1bc6aef81e)"><g clip-path="url(#2515757432)"><path fill="#ffffff" d="M 159.429688 120.253906 C 159.492188 120.253906 159.550781 120.253906 159.613281 120.253906 C 159.550781 120.300781 159.488281 120.296875 159.429688 120.253906 Z M 159.429688 120.253906 " fill-opacity="1" fill-rule="nonzero"/></g></g></g></g><path stroke-linecap="butt" transform="matrix(0.74987, 0.00605191, -0.00605275, 0.749976, 136.490312, 77.868153)" fill="none" stroke-linejoin="miter" d="M -0.00220213 1.998796 L 223.036362 2.001135 " stroke="#000000" stroke-width="4" stroke-opacity="1" stroke-miterlimit="4"/><path stroke-linecap="butt" transform="matrix(0.750617, -0.00364086, 0.00363783, 0.749991, 135.126205, 291.168315)" fill="none" stroke-linejoin="miter" d="M -0.000887993 1.999558 L 224.81428 2.002378 " stroke="#000000" stroke-width="4" stroke-opacity="1" stroke-miterlimit="4"/><g clip-path="url(#757f72d401)"><path fill="#38b6ff" d="M 266.714844 306.992188 L 275.207031 297.5 C 275.390625 297.296875 275.644531 297.183594 275.910156 297.183594 L 281.574219 297.183594 C 281.945312 297.183594 282.28125 297.402344 282.4375 297.746094 C 282.585938 298.089844 282.523438 298.488281 282.273438 298.765625 L 274.351562 307.628906 L 282.273438 316.484375 C 282.523438 316.765625 282.589844 317.164062 282.4375 317.507812 C 282.28125 317.851562 281.945312 318.070312 281.574219 318.070312 L 275.910156 318.070312 C 275.644531 318.070312 275.390625 317.953125 275.207031 317.757812 L 266.714844 308.261719 C 266.394531 307.902344 266.394531 307.351562 266.714844 306.992188 Z M 266.714844 306.992188 " fill-opacity="1" fill-rule="nonzero"/></g><g clip-path="url(#9a4d52a1ff)"><path fill="#38b6ff" d="M 278.984375 306.992188 L 287.476562 297.5 C 287.660156 297.296875 287.910156 297.183594 288.179688 297.183594 L 293.839844 297.183594 C 294.214844 297.183594 294.550781 297.402344 294.703125 297.746094 C 294.855469 298.089844 294.792969 298.488281 294.542969 298.765625 L 286.617188 307.628906 L 294.542969 316.484375 C 294.792969 316.765625 294.855469 317.164062 294.703125 317.507812 C 294.550781 317.851562 294.214844 318.070312 293.839844 318.070312 L 288.179688 318.070312 C 287.910156 318.070312 287.660156 317.953125 287.476562 317.757812 L 278.984375 308.261719 C 278.660156 307.902344 278.660156 307.351562 278.984375 306.992188 Z M 278.984375 306.992188 " fill-opacity="1" fill-rule="nonzero"/></g><g clip-path="url(#c46e6c5004)"><path fill="#5ce1e6" d="M 229.589844 306.992188 L 238.082031 297.5 C 238.265625 297.296875 238.519531 297.183594 238.785156 297.183594 L 244.449219 297.183594 C 244.820312 297.183594 245.15625 297.402344 245.3125 297.746094 C 245.460938 298.089844 245.398438 298.488281 245.148438 298.765625 L 237.226562 307.628906 L 245.148438 316.484375 C 245.398438 316.765625 245.464844 317.164062 245.3125 317.507812 C 245.15625 317.851562 244.820312 318.070312 244.449219 318.070312 L 238.785156 318.070312 C 238.519531 318.070312 238.265625 317.953125 238.082031 317.757812 L 229.589844 308.261719 C 229.269531 307.902344 229.269531 307.351562 229.589844 306.992188 Z M 229.589844 306.992188 " fill-opacity="1" fill-rule="nonzero"/></g><g clip-path="url(#4d0fadb76c)"><path fill="#5ce1e6" d="M 241.859375 306.992188 L 250.351562 297.5 C 250.535156 297.296875 250.785156 297.183594 251.054688 297.183594 L 256.714844 297.183594 C 257.089844 297.183594 257.425781 297.402344 257.578125 297.746094 C 257.730469 298.089844 257.667969 298.488281 257.417969 298.765625 L 249.492188 307.628906 L 257.417969 316.484375 C 257.667969 316.765625 257.730469 317.164062 257.578125 317.507812 C 257.425781 317.851562 257.089844 318.070312 256.714844 318.070312 L 251.054688 318.070312 C 250.785156 318.070312 250.535156 317.953125 250.351562 317.757812 L 241.859375 308.261719 C 241.535156 307.902344 241.535156 307.351562 241.859375 306.992188 Z M 241.859375 306.992188 " fill-opacity="1" fill-rule="nonzero"/></g><g clip-path="url(#cc9e8b8f75)"><path fill="#38b6ff" d="M 192.464844 306.992188 L 200.957031 297.5 C 201.140625 297.296875 201.394531 297.183594 201.660156 297.183594 L 207.324219 297.183594 C 207.695312 297.183594 208.03125 297.402344 208.1875 297.746094 C 208.335938 298.089844 208.273438 298.488281 208.023438 298.765625 L 200.101562 307.628906 L 208.023438 316.484375 C 208.273438 316.765625 208.339844 317.164062 208.1875 317.507812 C 208.03125 317.851562 207.695312 318.070312 207.324219 318.070312 L 201.660156 318.070312 C 201.394531 318.070312 201.140625 317.953125 200.957031 317.757812 L 192.464844 308.261719 C 192.144531 307.902344 192.144531 307.351562 192.464844 306.992188 Z M 192.464844 306.992188 " fill-opacity="1" fill-rule="nonzero"/></g><g clip-path="url(#a383b727ba)"><path fill="#38b6ff" d="M 204.734375 306.992188 L 213.226562 297.5 C 213.410156 297.296875 213.660156 297.183594 213.929688 297.183594 L 219.589844 297.183594 C 219.964844 297.183594 220.300781 297.402344 220.453125 297.746094 C 220.605469 298.089844 220.542969 298.488281 220.292969 298.765625 L 212.367188 307.628906 L 220.292969 316.484375 C 220.542969 316.765625 220.605469 317.164062 220.453125 317.507812 C 220.300781 317.851562 219.964844 318.070312 219.589844 318.070312 L 213.929688 318.070312 C 213.660156 318.070312 213.410156 317.953125 213.226562 317.757812 L 204.734375 308.261719 C 204.410156 307.902344 204.410156 307.351562 204.734375 306.992188 Z M 204.734375 306.992188 " fill-opacity="1" fill-rule="nonzero"/></g><g clip-path="url(#a31f0dc557)"><path fill="#38b6ff" d="M 155.339844 306.992188 L 163.832031 297.5 C 164.015625 297.296875 164.269531 297.183594 164.535156 297.183594 L 170.199219 297.183594 C 170.570312 297.183594 170.90625 297.402344 171.0625 297.746094 C 171.210938 298.089844 171.148438 298.488281 170.898438 298.765625 L 162.976562 307.628906 L 170.898438 316.484375 C 171.148438 316.765625 171.214844 317.164062 171.0625 317.507812 C 170.90625 317.851562 170.570312 318.070312 170.199219 318.070312 L 164.535156 318.070312 C 164.269531 318.070312 164.015625 317.953125 163.832031 317.757812 L 155.339844 308.261719 C 155.019531 307.902344 155.019531 307.351562 155.339844 306.992188 Z M 155.339844 306.992188 " fill-opacity="1" fill-rule="nonzero"/></g><g clip-path="url(#1483ef84bb)"><path fill="#38b6ff" d="M 167.609375 306.992188 L 176.101562 297.5 C 176.285156 297.296875 176.535156 297.183594 176.804688 297.183594 L 182.464844 297.183594 C 182.839844 297.183594 183.175781 297.402344 183.328125 297.746094 C 183.480469 298.089844 183.417969 298.488281 183.167969 298.765625 L 175.242188 307.628906 L 183.167969 316.484375 C 183.417969 316.765625 183.480469 317.164062 183.328125 317.507812 C 183.175781 317.851562 182.839844 318.070312 182.464844 318.070312 L 176.804688 318.070312 C 176.535156 318.070312 176.285156 317.953125 176.101562 317.757812 L 167.609375 308.261719 C 167.285156 307.902344 167.285156 307.351562 167.609375 306.992188 Z M 167.609375 306.992188 " fill-opacity="1" fill-rule="nonzero"/></g><g clip-path="url(#cdbd98bdfb)"><g clip-path="url(#d1ad8c2c31)"><g clip-path="url(#42db120b48)"><path fill="#38b6ff" d="M 118.210938 307.238281 L 126.535156 297.597656 C 126.710938 297.394531 126.960938 297.273438 127.230469 297.269531 L 132.890625 297.167969 C 133.261719 297.164062 133.605469 297.378906 133.765625 297.714844 C 133.921875 298.058594 133.867188 298.460938 133.621094 298.742188 L 125.855469 307.738281 L 133.933594 316.457031 C 134.1875 316.730469 134.261719 317.128906 134.113281 317.472656 C 133.964844 317.820312 133.632812 318.046875 133.261719 318.054688 L 127.597656 318.152344 C 127.332031 318.160156 127.078125 318.046875 126.890625 317.851562 L 118.230469 308.511719 C 117.902344 308.15625 117.894531 307.605469 118.210938 307.238281 Z M 118.210938 307.238281 " fill-opacity="1" fill-rule="nonzero"/></g></g></g><g clip-path="url(#7642b25c46)"><g clip-path="url(#eb954a5bf6)"><g clip-path="url(#8197f7a029)"><path fill="#38b6ff" d="M 130.476562 307.023438 L 138.800781 297.378906 C 138.976562 297.175781 139.230469 297.058594 139.496094 297.054688 L 145.15625 296.953125 C 145.53125 296.945312 145.871094 297.160156 146.03125 297.5 C 146.1875 297.839844 146.132812 298.242188 145.886719 298.523438 L 138.121094 307.523438 L 146.203125 316.238281 C 146.457031 316.515625 146.527344 316.914062 146.378906 317.257812 C 146.234375 317.605469 145.898438 317.832031 145.527344 317.835938 L 139.867188 317.9375 C 139.597656 317.941406 139.34375 317.832031 139.160156 317.636719 L 130.5 308.292969 C 130.167969 307.9375 130.160156 307.386719 130.476562 307.023438 Z M 130.476562 307.023438 " fill-opacity="1" fill-rule="nonzero"/></g></g></g><g clip-path="url(#0e389e2480)"><g clip-path="url(#e9ce596086)"><g clip-path="url(#29d1eb5c12)"><path fill="#5ce1e6" d="M 75.855469 286.085938 L 88.128906 282.679688 C 88.390625 282.609375 88.664062 282.648438 88.890625 282.792969 L 93.65625 285.851562 C 93.96875 286.050781 94.132812 286.421875 94.078125 286.789062 C 94.019531 287.160156 93.75 287.464844 93.390625 287.5625 L 81.9375 290.742188 L 83.828125 302.476562 C 83.886719 302.847656 83.722656 303.21875 83.410156 303.425781 C 83.097656 303.632812 82.691406 303.632812 82.378906 303.433594 L 77.613281 300.375 C 77.386719 300.230469 77.238281 299.996094 77.191406 299.734375 L 75.167969 287.15625 C 75.089844 286.679688 75.386719 286.214844 75.855469 286.085938 Z M 75.855469 286.085938 " fill-opacity="1" fill-rule="nonzero"/></g></g></g><g clip-path="url(#92d4ce7b33)"><g clip-path="url(#fd6db718e3)"><g clip-path="url(#d0ee209490)"><path fill="#5ce1e6" d="M 86.179688 292.710938 L 98.457031 289.304688 C 98.714844 289.234375 98.992188 289.273438 99.214844 289.417969 L 103.984375 292.476562 C 104.296875 292.675781 104.460938 293.042969 104.40625 293.414062 C 104.347656 293.785156 104.078125 294.089844 103.71875 294.1875 L 92.265625 297.367188 L 94.152344 309.101562 C 94.210938 309.46875 94.050781 309.84375 93.738281 310.046875 C 93.421875 310.253906 93.019531 310.257812 92.707031 310.054688 L 87.941406 307 C 87.714844 306.855469 87.5625 306.621094 87.519531 306.355469 L 85.496094 293.78125 C 85.417969 293.300781 85.714844 292.839844 86.179688 292.710938 Z M 86.179688 292.710938 " fill-opacity="1" fill-rule="nonzero"/></g></g></g><g clip-path="url(#380079c63b)"><g clip-path="url(#f642428b0e)"><g clip-path="url(#f3ed74f192)"><path fill="#38b6ff" d="M 41.28125 262.910156 L 53.984375 261.964844 C 54.253906 261.945312 54.515625 262.039062 54.707031 262.222656 L 58.785156 266.152344 C 59.054688 266.410156 59.144531 266.800781 59.015625 267.15625 C 58.886719 267.507812 58.566406 267.753906 58.191406 267.777344 L 46.339844 268.664062 L 45.902344 280.539062 C 45.886719 280.914062 45.65625 281.246094 45.308594 281.386719 C 44.960938 281.53125 44.566406 281.453125 44.296875 281.195312 L 40.21875 277.269531 C 40.027344 277.082031 39.921875 276.824219 39.929688 276.554688 L 40.398438 263.824219 C 40.417969 263.339844 40.796875 262.945312 41.28125 262.910156 Z M 41.28125 262.910156 " fill-opacity="1" fill-rule="nonzero"/></g></g></g><g clip-path="url(#abeb3fb231)"><g clip-path="url(#67260b4d6f)"><g clip-path="url(#ef35cbfba5)"><path fill="#38b6ff" d="M 50.117188 271.421875 L 62.820312 270.472656 C 63.089844 270.453125 63.351562 270.546875 63.542969 270.734375 L 67.621094 274.660156 C 67.890625 274.917969 67.980469 275.3125 67.855469 275.664062 C 67.722656 276.015625 67.402344 276.261719 67.03125 276.289062 L 55.175781 277.171875 L 54.738281 289.050781 C 54.726562 289.425781 54.492188 289.757812 54.144531 289.898438 C 53.796875 290.039062 53.402344 289.964844 53.132812 289.707031 L 49.054688 285.777344 C 48.863281 285.59375 48.761719 285.332031 48.765625 285.066406 L 49.234375 272.335938 C 49.253906 271.851562 49.636719 271.453125 50.117188 271.421875 Z M 50.117188 271.421875 " fill-opacity="1" fill-rule="nonzero"/></g></g></g><g clip-path="url(#11961afcf5)"><g clip-path="url(#57d64b04ed)"><g clip-path="url(#3f85372615)"><path fill="#38b6ff" d="M 22.734375 226.0625 L 35.210938 228.632812 C 35.476562 228.6875 35.699219 228.851562 35.835938 229.082031 L 38.679688 233.976562 C 38.867188 234.296875 38.847656 234.699219 38.628906 235.003906 C 38.40625 235.308594 38.03125 235.457031 37.664062 235.378906 L 26.023438 232.980469 L 22.347656 244.285156 C 22.230469 244.640625 21.917969 244.894531 21.542969 244.9375 C 21.171875 244.976562 20.808594 244.796875 20.625 244.472656 L 17.777344 239.578125 C 17.644531 239.347656 17.617188 239.070312 17.695312 238.8125 L 21.636719 226.699219 C 21.785156 226.238281 22.261719 225.960938 22.734375 226.0625 Z M 22.734375 226.0625 " fill-opacity="1" fill-rule="nonzero"/></g></g></g><g clip-path="url(#0eb0372638)"><g clip-path="url(#7846628b29)"><g clip-path="url(#afbdf4157f)"><path fill="#38b6ff" d="M 28.898438 236.667969 L 41.375 239.238281 C 41.640625 239.292969 41.867188 239.457031 42 239.6875 L 44.847656 244.582031 C 45.035156 244.90625 45.011719 245.308594 44.792969 245.613281 C 44.574219 245.914062 44.195312 246.0625 43.832031 245.984375 L 32.1875 243.585938 L 28.511719 254.890625 C 28.394531 255.246094 28.082031 255.503906 27.710938 255.542969 C 27.335938 255.582031 26.976562 255.402344 26.789062 255.082031 L 23.941406 250.183594 C 23.808594 249.953125 23.78125 249.675781 23.859375 249.421875 L 27.800781 237.304688 C 27.949219 236.847656 28.425781 236.570312 28.898438 236.667969 Z M 28.898438 236.667969 " fill-opacity="1" fill-rule="nonzero"/></g></g></g><g clip-path="url(#f63fed4858)"><path fill="#38b6ff" d="M 20.015625 172.027344 L 29.507812 180.519531 C 29.710938 180.699219 29.824219 180.953125 29.824219 181.222656 L 29.824219 186.882812 C 29.824219 187.257812 29.605469 187.59375 29.261719 187.746094 C 28.917969 187.898438 28.515625 187.835938 28.242188 187.585938 L 19.378906 179.660156 L 10.523438 187.585938 C 10.242188 187.835938 9.84375 187.898438 9.5 187.746094 C 9.15625 187.59375 8.9375 187.257812 8.9375 186.882812 L 8.9375 181.222656 C 8.9375 180.953125 9.050781 180.699219 9.25 180.519531 L 18.746094 172.027344 C 19.105469 171.703125 19.65625 171.703125 20.015625 172.027344 Z M 20.015625 172.027344 " fill-opacity="1" fill-rule="nonzero"/></g><g clip-path="url(#b382f85a89)"><path fill="#38b6ff" d="M 20.015625 184.292969 L 29.507812 192.789062 C 29.710938 192.96875 29.824219 193.222656 29.824219 193.488281 L 29.824219 199.152344 C 29.824219 199.523438 29.605469 199.863281 29.261719 200.015625 C 28.917969 200.164062 28.515625 200.105469 28.242188 199.855469 L 19.378906 191.929688 L 10.523438 199.855469 C 10.242188 200.105469 9.84375 200.167969 9.5 200.015625 C 9.15625 199.863281 8.9375 199.523438 8.9375 199.152344 L 8.9375 193.488281 C 8.9375 193.222656 9.050781 192.96875 9.25 192.789062 L 18.746094 184.292969 C 19.105469 183.972656 19.65625 183.972656 20.015625 184.292969 Z M 20.015625 184.292969 " fill-opacity="1" fill-rule="nonzero"/></g><g clip-path="url(#205533483b)"><g clip-path="url(#f5eb1e077a)"><g clip-path="url(#2b4a093fcb)"><path fill="#5ce1e6" d="M 38.21875 122.101562 L 41.183594 134.492188 C 41.246094 134.753906 41.195312 135.027344 41.042969 135.246094 L 37.816406 139.902344 C 37.605469 140.207031 37.230469 140.359375 36.863281 140.289062 C 36.496094 140.21875 36.203125 139.941406 36.117188 139.578125 L 33.347656 128.015625 L 21.554688 129.484375 C 21.183594 129.53125 20.816406 129.355469 20.621094 129.035156 C 20.425781 128.714844 20.4375 128.308594 20.648438 128.003906 L 23.875 123.351562 C 24.027344 123.128906 24.269531 122.988281 24.53125 122.953125 L 37.175781 121.378906 C 37.65625 121.320312 38.105469 121.632812 38.21875 122.101562 Z M 38.21875 122.101562 " fill-opacity="1" fill-rule="nonzero"/></g></g></g><g clip-path="url(#909e98efb8)"><g clip-path="url(#0ea2451b99)"><g clip-path="url(#25d9fc6f71)"><path fill="#5ce1e6" d="M 31.230469 132.1875 L 34.195312 144.574219 C 34.257812 144.839844 34.207031 145.109375 34.054688 145.332031 L 30.828125 149.984375 C 30.617188 150.289062 30.246094 150.441406 29.875 150.375 C 29.507812 150.300781 29.214844 150.023438 29.128906 149.660156 L 26.359375 138.101562 L 14.566406 139.566406 C 14.195312 139.613281 13.828125 139.4375 13.632812 139.117188 C 13.4375 138.796875 13.449219 138.394531 13.664062 138.085938 L 16.886719 133.433594 C 17.039062 133.214844 17.28125 133.070312 17.546875 133.035156 L 30.1875 131.460938 C 30.667969 131.402344 31.121094 131.714844 31.230469 132.1875 Z M 31.230469 132.1875 " fill-opacity="1" fill-rule="nonzero"/></g></g></g><g clip-path="url(#e07ef9182c)"><g clip-path="url(#c9da5487cd)"><g clip-path="url(#281e16bebe)"><path fill="#38b6ff" d="M 65.816406 90.09375 L 65.914062 102.832031 C 65.917969 103.101562 65.804688 103.355469 65.609375 103.535156 L 61.417969 107.34375 C 61.140625 107.59375 60.742188 107.660156 60.402344 107.507812 C 60.058594 107.355469 59.835938 107.015625 59.832031 106.644531 L 59.742188 94.757812 L 47.917969 93.53125 C 47.546875 93.492188 47.230469 93.238281 47.113281 92.882812 C 46.996094 92.523438 47.097656 92.132812 47.371094 91.882812 L 51.5625 88.078125 C 51.761719 87.898438 52.027344 87.8125 52.292969 87.835938 L 64.964844 89.152344 C 65.445312 89.203125 65.816406 89.609375 65.816406 90.09375 Z M 65.816406 90.09375 " fill-opacity="1" fill-rule="nonzero"/></g></g></g><g clip-path="url(#1e5d1427da)"><g clip-path="url(#7eebeeb735)"><g clip-path="url(#e17c403b6a)"><path fill="#38b6ff" d="M 56.738281 98.34375 L 56.835938 111.082031 C 56.835938 111.351562 56.726562 111.605469 56.527344 111.785156 L 52.335938 115.59375 C 52.0625 115.84375 51.664062 115.90625 51.320312 115.757812 C 50.976562 115.605469 50.753906 115.265625 50.753906 114.894531 L 50.660156 103.007812 L 38.839844 101.78125 C 38.464844 101.742188 38.148438 101.488281 38.03125 101.132812 C 37.914062 100.773438 38.015625 100.382812 38.292969 100.132812 L 42.480469 96.328125 C 42.679688 96.148438 42.945312 96.0625 43.210938 96.085938 L 55.882812 97.402344 C 56.363281 97.453125 56.734375 97.859375 56.738281 98.34375 Z M 56.738281 98.34375 " fill-opacity="1" fill-rule="nonzero"/></g></g></g><g clip-path="url(#13dbd4c137)"><g clip-path="url(#bd8d5ff2ab)"><g clip-path="url(#6167c698ed)"><path fill="#38b6ff" d="M 100.488281 72.246094 L 97.054688 84.511719 C 96.980469 84.773438 96.800781 84.988281 96.5625 85.105469 L 91.480469 87.601562 C 91.148438 87.765625 90.746094 87.71875 90.457031 87.480469 C 90.171875 87.238281 90.050781 86.851562 90.152344 86.492188 L 93.355469 75.042969 L 82.335938 70.589844 C 81.988281 70.449219 81.753906 70.117188 81.742188 69.746094 C 81.726562 69.367188 81.933594 69.023438 82.265625 68.859375 L 87.347656 66.359375 C 87.589844 66.242188 87.867188 66.234375 88.117188 66.332031 L 99.925781 71.105469 C 100.375 71.285156 100.617188 71.78125 100.488281 72.246094 Z M 100.488281 72.246094 " fill-opacity="1" fill-rule="nonzero"/></g></g></g><g clip-path="url(#8f2bf351f6)"><g clip-path="url(#5e778c9b87)"><g clip-path="url(#ae71f53290)"><path fill="#38b6ff" d="M 89.476562 77.65625 L 86.042969 89.925781 C 85.96875 90.183594 85.792969 90.398438 85.550781 90.515625 L 80.472656 93.015625 C 80.136719 93.179688 79.738281 93.128906 79.449219 92.890625 C 79.160156 92.648438 79.039062 92.261719 79.140625 91.902344 L 82.347656 80.457031 L 71.324219 76.003906 C 70.980469 75.863281 70.746094 75.53125 70.730469 75.15625 C 70.71875 74.78125 70.921875 74.433594 71.257812 74.269531 L 76.339844 71.773438 C 76.578125 71.652344 76.855469 71.648438 77.105469 71.742188 L 88.917969 76.515625 C 89.367188 76.699219 89.609375 77.191406 89.476562 77.65625 Z M 89.476562 77.65625 " fill-opacity="1" fill-rule="nonzero"/></g></g></g><g clip-path="url(#50311e29a7)"><path fill="#38b6ff" d="M 146.195312 68.148438 L 137.703125 77.640625 C 137.519531 77.84375 137.265625 77.957031 137 77.957031 L 131.335938 77.957031 C 130.964844 77.957031 130.628906 77.738281 130.472656 77.394531 C 130.324219 77.050781 130.386719 76.652344 130.636719 76.375 L 138.558594 67.511719 L 130.636719 58.65625 C 130.386719 58.375 130.320312 57.976562 130.472656 57.632812 C 130.628906 57.289062 130.964844 57.070312 131.335938 57.070312 L 137 57.070312 C 137.265625 57.070312 137.519531 57.1875 137.703125 57.382812 L 146.195312 66.878906 C 146.515625 67.238281 146.515625 67.789062 146.195312 68.148438 Z M 146.195312 68.148438 " fill-opacity="1" fill-rule="nonzero"/></g><g clip-path="url(#cb3bc3ad46)"><path fill="#38b6ff" d="M 133.925781 68.148438 L 125.433594 77.640625 C 125.25 77.84375 125 77.957031 124.730469 77.957031 L 119.070312 77.957031 C 118.695312 77.957031 118.359375 77.738281 118.207031 77.394531 C 118.054688 77.050781 118.117188 76.652344 118.367188 76.375 L 126.292969 67.511719 L 118.367188 58.65625 C 118.117188 58.375 118.054688 57.976562 118.207031 57.632812 C 118.359375 57.289062 118.695312 57.070312 119.070312 57.070312 L 124.730469 57.070312 C 125 57.070312 125.25 57.1875 125.433594 57.382812 L 133.925781 66.878906 C 134.25 67.238281 134.25 67.789062 133.925781 68.148438 Z M 133.925781 68.148438 " fill-opacity="1" fill-rule="nonzero"/></g><g clip-path="url(#7c828010f2)"><g clip-path="url(#15b9946bf0)"><g clip-path="url(#8ec8fc84f7)"><path fill="#5ce1e6" d="M 182.71875 68.148438 L 173.941406 77.382812 C 173.753906 77.578125 173.5 77.6875 173.230469 77.675781 L 167.570312 77.507812 C 167.199219 77.496094 166.871094 77.265625 166.726562 76.917969 C 166.585938 76.570312 166.660156 76.171875 166.917969 75.902344 L 175.105469 67.285156 L 167.453125 58.191406 C 167.210938 57.90625 167.160156 57.503906 167.320312 57.167969 C 167.484375 56.828125 167.828125 56.617188 168.199219 56.628906 L 173.859375 56.800781 C 174.128906 56.808594 174.378906 56.929688 174.554688 57.132812 L 182.757812 66.878906 C 183.066406 67.25 183.050781 67.800781 182.71875 68.148438 Z M 182.71875 68.148438 " fill-opacity="1" fill-rule="nonzero"/></g></g></g><g clip-path="url(#4dd47438f8)"><g clip-path="url(#928e4f1bff)"><g clip-path="url(#6ec93b9f5f)"><path fill="#5ce1e6" d="M 170.457031 67.78125 L 161.679688 77.015625 C 161.492188 77.210938 161.238281 77.316406 160.96875 77.308594 L 155.308594 77.136719 C 154.9375 77.125 154.605469 76.894531 154.464844 76.550781 C 154.324219 76.203125 154.398438 75.804688 154.65625 75.535156 L 162.84375 66.917969 L 155.1875 57.824219 C 154.949219 57.539062 154.894531 57.136719 155.058594 56.796875 C 155.222656 56.457031 155.566406 56.25 155.9375 56.261719 L 161.597656 56.429688 C 161.867188 56.4375 162.113281 56.5625 162.289062 56.765625 L 170.492188 66.511719 C 170.804688 66.878906 170.789062 67.429688 170.457031 67.78125 Z M 170.457031 67.78125 " fill-opacity="1" fill-rule="nonzero"/></g></g></g><g clip-path="url(#bbfad78d86)"><g clip-path="url(#7c9ad82e13)"><g clip-path="url(#40108433dc)"><path fill="#38b6ff" d="M 294.371094 68.148438 L 285.59375 77.382812 C 285.40625 77.578125 285.152344 77.6875 284.882812 77.675781 L 279.222656 77.507812 C 278.851562 77.496094 278.523438 77.265625 278.378906 76.917969 C 278.238281 76.570312 278.3125 76.171875 278.570312 75.902344 L 286.757812 67.285156 L 279.105469 58.191406 C 278.863281 57.90625 278.8125 57.503906 278.972656 57.167969 C 279.136719 56.828125 279.480469 56.617188 279.851562 56.628906 L 285.511719 56.800781 C 285.78125 56.808594 286.03125 56.929688 286.207031 57.132812 L 294.410156 66.878906 C 294.71875 67.25 294.703125 67.800781 294.371094 68.148438 Z M 294.371094 68.148438 " fill-opacity="1" fill-rule="nonzero"/></g></g></g><g clip-path="url(#4ded74403a)"><g clip-path="url(#e62adef6f5)"><g clip-path="url(#72c4c6767d)"><path fill="#38b6ff" d="M 282.109375 67.78125 L 273.332031 77.015625 C 273.144531 77.210938 272.890625 77.316406 272.621094 77.308594 L 266.960938 77.136719 C 266.589844 77.125 266.257812 76.894531 266.117188 76.550781 C 265.976562 76.203125 266.050781 75.804688 266.308594 75.535156 L 274.496094 66.917969 L 266.839844 57.824219 C 266.601562 57.539062 266.546875 57.136719 266.710938 56.796875 C 266.875 56.457031 267.21875 56.25 267.589844 56.261719 L 273.25 56.429688 C 273.519531 56.4375 273.765625 56.5625 273.941406 56.765625 L 282.144531 66.511719 C 282.457031 66.878906 282.441406 67.429688 282.109375 67.78125 Z M 282.109375 67.78125 " fill-opacity="1" fill-rule="nonzero"/></g></g></g><g clip-path="url(#00fbd9c1a0)"><g clip-path="url(#f648dcfdb3)"><g clip-path="url(#55ca76585e)"><path fill="#38b6ff" d="M 257.246094 68.148438 L 248.46875 77.382812 C 248.28125 77.578125 248.027344 77.6875 247.757812 77.675781 L 242.097656 77.507812 C 241.726562 77.496094 241.398438 77.265625 241.253906 76.917969 C 241.113281 76.570312 241.1875 76.171875 241.445312 75.902344 L 249.632812 67.285156 L 241.980469 58.191406 C 241.738281 57.90625 241.6875 57.503906 241.847656 57.167969 C 242.011719 56.828125 242.355469 56.617188 242.726562 56.628906 L 248.386719 56.800781 C 248.65625 56.808594 248.90625 56.929688 249.082031 57.132812 L 257.285156 66.878906 C 257.59375 67.25 257.578125 67.800781 257.246094 68.148438 Z M 257.246094 68.148438 " fill-opacity="1" fill-rule="nonzero"/></g></g></g><g clip-path="url(#41697bb318)"><g clip-path="url(#b838b523df)"><g clip-path="url(#09629da18c)"><path fill="#38b6ff" d="M 244.984375 67.78125 L 236.207031 77.015625 C 236.019531 77.210938 235.765625 77.316406 235.496094 77.308594 L 229.835938 77.136719 C 229.464844 77.125 229.132812 76.894531 228.992188 76.550781 C 228.851562 76.203125 228.925781 75.804688 229.183594 75.535156 L 237.371094 66.917969 L 229.714844 57.824219 C 229.476562 57.539062 229.421875 57.136719 229.585938 56.796875 C 229.75 56.457031 230.09375 56.25 230.464844 56.261719 L 236.125 56.429688 C 236.394531 56.4375 236.640625 56.5625 236.816406 56.765625 L 245.019531 66.511719 C 245.332031 66.878906 245.316406 67.429688 244.984375 67.78125 Z M 244.984375 67.78125 " fill-opacity="1" fill-rule="nonzero"/></g></g></g><g clip-path="url(#ad54e4211d)"><g clip-path="url(#ac00c760a0)"><g clip-path="url(#77f28a5ff6)"><path fill="#38b6ff" d="M 220.730469 68.148438 L 211.953125 77.382812 C 211.765625 77.578125 211.511719 77.6875 211.242188 77.675781 L 205.582031 77.507812 C 205.210938 77.496094 204.878906 77.265625 204.738281 76.917969 C 204.597656 76.570312 204.671875 76.171875 204.929688 75.902344 L 213.117188 67.285156 L 205.460938 58.191406 C 205.222656 57.90625 205.167969 57.503906 205.332031 57.167969 C 205.496094 56.828125 205.839844 56.617188 206.210938 56.628906 L 211.871094 56.800781 C 212.140625 56.808594 212.386719 56.929688 212.5625 57.132812 L 220.765625 66.878906 C 221.078125 67.25 221.0625 67.800781 220.730469 68.148438 Z M 220.730469 68.148438 " fill-opacity="1" fill-rule="nonzero"/></g></g></g><g clip-path="url(#bac7bc6db8)"><g clip-path="url(#086e16e85b)"><g clip-path="url(#5496111b28)"><path fill="#38b6ff" d="M 208.464844 67.78125 L 199.691406 77.015625 C 199.503906 77.210938 199.246094 77.316406 198.980469 77.308594 L 193.320312 77.136719 C 192.949219 77.125 192.617188 76.894531 192.476562 76.550781 C 192.335938 76.203125 192.410156 75.804688 192.664062 75.535156 L 200.855469 66.917969 L 193.199219 57.824219 C 192.957031 57.539062 192.90625 57.136719 193.070312 56.796875 C 193.234375 56.457031 193.578125 56.25 193.949219 56.261719 L 199.609375 56.429688 C 199.875 56.4375 200.125 56.5625 200.300781 56.765625 L 208.503906 66.511719 C 208.816406 66.878906 208.800781 67.429688 208.464844 67.78125 Z M 208.464844 67.78125 " fill-opacity="1" fill-rule="nonzero"/></g></g></g></svg>