<svg xmlns="http://www.w3.org/2000/svg" width="450" viewBox="0 0 337.5 375" height="500" version="1.0"><defs><clipPath id="prefix__a"><path d="M0 52.777h303.75V323H0zm0 0"/></clipPath><clipPath id="prefix__b"><path d="M7.918 142.824C3.137 156.668 0 172.406 0 187.852c0 15.445 2.688 30.304 7.469 44.003.152.29.152.583.3.875 19.122 51.434 69.622 89.32 127.887 90.047H303.75v-270H135.781c-58.687.73-109.187 38.032-127.863 90.047"/></clipPath><clipPath id="prefix__c"><path d="M0 52.777h303.75v270H0zm0 0"/></clipPath><clipPath id="prefix__d"><path d="M7.918 142.824C3.137 156.668 0 172.406 0 187.852c0 15.445 2.688 30.304 7.469 44.003.152.29.152.583.3.875 19.122 51.434 69.622 89.32 127.887 90.047H303.75v-270H135.781c-58.687.73-109.187 38.032-127.863 90.047"/></clipPath><clipPath id="prefix__e"><path d="M33 78h217v217H33zm0 0"/></clipPath><clipPath id="prefix__f"><path d="M141.75 338.754L-11.188 185.812 141.75 32.875l152.938 152.938zm0 0"/></clipPath><clipPath id="prefix__g"><path d="M65.383 262.387c42.176 42.175 110.558 42.175 152.734 0 42.176-42.176 42.176-110.559 0-152.735-42.176-42.18-110.558-42.18-152.734 0-42.176 42.176-42.176 110.559 0 152.735"/></clipPath><clipPath id="prefix__h"><path d="M33 78h217v217H33zm0 0"/></clipPath><clipPath id="prefix__i"><path d="M141.75 338.754L-10.984 186.02 141.75 33.285 294.484 186.02zm0 0"/></clipPath><clipPath id="prefix__j"><path d="M141.75 338.754L-13.145 183.859 141.75 28.965l154.895 154.894zm0 0"/></clipPath><clipPath id="prefix__k"><path d="M65.383 262.387c42.176 42.175 110.558 42.175 152.734 0 42.176-42.176 42.176-110.559 0-152.735-42.176-42.18-110.558-42.18-152.734 0-42.176 42.176-42.176 110.559 0 152.735"/></clipPath><clipPath id="prefix__l"><path d="M89 205h36v36H89zm0 0"/></clipPath><clipPath id="prefix__m"><path d="M101.93 240.875l-12.895-12.797 22.488-22.66 12.895 12.793zm0 0"/></clipPath><clipPath id="prefix__n"><path d="M101.93 240.875l-12.61-12.516 22.348-22.52 12.61 12.513zm0 0"/></clipPath><clipPath id="prefix__o"><path d="M116 124h26v36h-26zm0 0"/></clipPath><clipPath id="prefix__p"><path d="M141.344 154.832l-17.578 4.578-8.043-30.894 17.578-4.578zm0 0"/></clipPath><clipPath id="prefix__q"><path d="M141.344 154.832l-17.196 4.477-7.992-30.704 17.192-4.476zm0 0"/></clipPath><clipPath id="prefix__r"><path d="M106 141h83v83h-83zm0 0"/></clipPath><clipPath id="prefix__s"><path d="M199.512 160.738l-22.11 82.282-71.453-19.2 22.11-82.28zm0 0"/></clipPath><clipPath id="prefix__t"><path d="M188.54 201.563l-81.731 21.812 21.941-81.648 59.79 59.835"/></clipPath><clipPath id="prefix__u"><path d="M163 186h36v27h-36zm0 0"/></clipPath><clipPath id="prefix__v"><path d="M198.473 195.027l-4.715 17.543-30.832-8.285 4.715-17.539zm0 0"/></clipPath><clipPath id="prefix__w"><path d="M198.473 195.027l-4.614 17.16-30.64-8.234 4.61-17.156zm0 0"/></clipPath><clipPath id="prefix__x"><path d="M188 181h56v56h-56zm0 0"/></clipPath><clipPath id="prefix__y"><path d="M197.164 174.426l53.371 15.668-15.668 53.37-53.367-15.667zm0 0"/></clipPath><clipPath id="prefix__z"><path d="M223.852 182.258c-14.739-4.324-30.196 4.117-34.52 18.851-4.328 14.739 4.113 30.196 18.852 34.52 14.738 4.328 30.191-4.113 34.52-18.852 4.323-14.738-4.114-30.191-18.852-34.52"/></clipPath><clipPath id="prefix__A"><path d="M188 181h56v56h-56zm0 0"/></clipPath><clipPath id="prefix__B"><path d="M197.164 174.426l53.254 15.633-15.633 53.254-53.254-15.633zm0 0"/></clipPath><clipPath id="prefix__C"><path d="M197.164 174.426l53.254 15.633-15.633 53.254-53.254-15.633zm0 0"/></clipPath><clipPath id="prefix__D"><path d="M223.793 182.242c-14.707-4.316-30.129 4.106-34.445 18.809-4.317 14.707 4.105 30.129 18.812 34.445 14.703 4.316 30.125-4.105 34.442-18.812 4.316-14.704-4.106-30.125-18.809-34.442"/></clipPath><clipPath id="prefix__E"><path d="M93 84h56v57H93zm0 0"/></clipPath><clipPath id="prefix__F"><path d="M140.723 78.71l14.34 53.743-53.743 14.34-14.34-53.742zm0 0"/></clipPath><clipPath id="prefix__G"><path d="M147.895 105.582c-3.961-14.84-19.2-23.66-34.043-19.7-14.84 3.958-23.66 19.2-19.704 34.04 3.961 14.84 19.204 23.66 34.043 19.703 14.84-3.96 23.66-19.2 19.704-34.043"/></clipPath><clipPath id="prefix__H"><path d="M93 84h56v57H93zm0 0"/></clipPath><clipPath id="prefix__I"><path d="M140.723 78.71l14.308 53.626-53.625 14.309L87.102 93.02zm0 0"/></clipPath><clipPath id="prefix__J"><path d="M140.723 78.71l14.308 53.626-53.625 14.309L87.102 93.02zm0 0"/></clipPath><clipPath id="prefix__K"><path d="M147.879 105.523c-3.953-14.808-19.16-23.609-33.969-19.656-14.805 3.95-23.61 19.156-19.656 33.965 3.95 14.805 19.156 23.61 33.965 19.656 14.808-3.949 23.61-19.156 19.66-33.965"/></clipPath><clipPath id="prefix__L"><path d="M60 213h57v57H60zm0 0"/></clipPath><clipPath id="prefix__M"><path d="M88.398 202.172L127.73 241.5l-39.332 39.332L49.07 241.5zm0 0"/></clipPath><clipPath id="prefix__N"><path d="M108.066 221.836c-10.863-10.86-28.472-10.86-39.332 0-10.863 10.86-10.863 28.469 0 39.332 10.86 10.86 28.47 10.86 39.332 0 10.86-10.863 10.86-28.473 0-39.332"/></clipPath><clipPath id="prefix__O"><path d="M60 213h57v57H60zm0 0"/></clipPath><clipPath id="prefix__P"><path d="M88.398 202.172l39.247 39.242-39.247 39.246-39.242-39.246zm0 0"/></clipPath><clipPath id="prefix__Q"><path d="M88.398 202.172l39.247 39.242-39.247 39.246-39.242-39.246zm0 0"/></clipPath><clipPath id="prefix__R"><path d="M108.023 221.793c-10.84-10.836-28.41-10.836-39.246 0-10.836 10.836-10.836 28.406 0 39.242 10.836 10.84 28.407 10.84 39.246 0 10.836-10.836 10.836-28.406 0-39.242"/></clipPath><clipPath id="prefix__S"><path d="M209 201h14v15h-14zm0 0"/></clipPath><clipPath id="prefix__T"><path d="M224.566 204.012l-3.625 13.48-13.48-3.62 3.625-13.485zm0 0"/></clipPath><clipPath id="prefix__U"><path d="M222.754 210.75a6.979 6.979 0 10-13.48-3.621 6.979 6.979 0 0013.48 3.621"/></clipPath><clipPath id="prefix__V"><path d="M114 105h15v15h-15zm0 0"/></clipPath><clipPath id="prefix__W"><path d="M129.566 117.691l-13.488 3.598-3.598-13.488 13.485-3.598zm0 0"/></clipPath><clipPath id="prefix__X"><path d="M122.82 119.492a6.982 6.982 0 004.946-8.543 6.975 6.975 0 00-8.543-4.945 6.981 6.981 0 00-4.946 8.543 6.985 6.985 0 008.543 4.945"/></clipPath><clipPath id="prefix__Y"><path d="M82 235h15v15H82zm0 0"/></clipPath><clipPath id="prefix__Z"><path d="M97.7 237.29l-3.626 13.48-13.48-3.625 3.625-13.48zm0 0"/></clipPath><clipPath id="prefix__aa"><path d="M95.887 244.027a6.979 6.979 0 10-13.48-3.621 6.979 6.979 0 0013.48 3.621"/></clipPath><clipPath id="prefix__ab"><path d="M135 236h43v26h-43zm0 0"/></clipPath><clipPath id="prefix__ac"><path d="M132.836 252.738l44.398-16.175 4.621 12.687-44.398 16.172zm0 0"/></clipPath><clipPath id="prefix__ad"><path d="M177.41 236.5l-44.398 16.176 4.625 12.683 44.394-16.175zm0 0"/></clipPath><clipPath id="prefix__ae"><path d="M177.41 236.5l-44.398 16.176 4.625 12.683 44.394-16.175zm0 0"/></clipPath><clipPath id="prefix__af"><path d="M172 244h1v1h-1zm0 0"/></clipPath><clipPath id="prefix__ag"><path d="M132.836 252.738l44.398-16.175 4.621 12.687-44.398 16.172zm0 0"/></clipPath><clipPath id="prefix__ah"><path d="M177.41 236.5l-44.398 16.176 4.625 12.683 44.394-16.175zm0 0"/></clipPath><clipPath id="prefix__ai"><path d="M177.41 236.5l-44.398 16.176 4.625 12.683 44.394-16.175zm0 0"/></clipPath><clipPath id="prefix__aj"><path d="M69 149h17v47H69zm0 0"/></clipPath><clipPath id="prefix__ak"><path d="M89.012 150.598L76.687 196.21l-13.035-3.524 12.328-45.613zm0 0"/></clipPath><clipPath id="prefix__al"><path d="M76.637 196.39l12.328-45.613-13.031-3.523-12.329 45.617zm0 0"/></clipPath><clipPath id="prefix__am"><path d="M76.637 196.39l12.328-45.613-13.031-3.523-12.329 45.617zm0 0"/></clipPath><clipPath id="prefix__an"><path d="M72 187h1v1h-1zm0 0"/></clipPath><clipPath id="prefix__ao"><path d="M89.012 150.598L76.687 196.21l-13.035-3.524 12.328-45.613zm0 0"/></clipPath><clipPath id="prefix__ap"><path d="M76.637 196.39l12.328-45.613-13.031-3.523-12.329 45.617zm0 0"/></clipPath><clipPath id="prefix__aq"><path d="M76.637 196.39l12.328-45.613-13.031-3.523-12.329 45.617zm0 0"/></clipPath><clipPath id="prefix__ar"><path d="M167 124h36v35h-36zm0 0"/></clipPath><clipPath id="prefix__as"><path d="M197.598 162.086l-30.453-36.125 10.324-8.703 30.449 36.129zm0 0"/></clipPath><clipPath id="prefix__at"><path d="M167.023 125.816l30.454 36.13 10.32-8.704-30.45-36.129zm0 0"/></clipPath><clipPath id="prefix__au"><path d="M167.023 125.816l30.454 36.13 10.32-8.704-30.45-36.129zm0 0"/></clipPath><clipPath id="prefix__av"><path d="M176 127h1v1h-1zm0 0"/></clipPath><clipPath id="prefix__aw"><path d="M197.598 162.086l-30.453-36.125 10.324-8.703 30.449 36.129zm0 0"/></clipPath><clipPath id="prefix__ax"><path d="M167.023 125.816l30.454 36.13 10.32-8.704-30.45-36.129zm0 0"/></clipPath><clipPath id="prefix__ay"><path d="M167.023 125.816l30.454 36.13 10.32-8.704-30.45-36.129zm0 0"/></clipPath><clipPath id="prefix__az"><path d="M266.625 297.129H283v21h-16.375zm0 0"/></clipPath><clipPath id="prefix__aA"><path d="M278 297.129h16.785v21H278zm0 0"/></clipPath><clipPath id="prefix__aB"><path d="M229.5 297.129H246v21h-16.5zm0 0"/></clipPath><clipPath id="prefix__aC"><path d="M241 297.129h16.66v21H241zm0 0"/></clipPath><clipPath id="prefix__aD"><path d="M192.375 297.129H209v21h-16.625zm0 0"/></clipPath><clipPath id="prefix__aE"><path d="M204 297.129h16.535v21H204zm0 0"/></clipPath><clipPath id="prefix__aF"><path d="M155.25 297.129H172v21h-16.75zm0 0"/></clipPath><clipPath id="prefix__aG"><path d="M167 297.129h16.41v21H167zm0 0"/></clipPath><clipPath id="prefix__aH"><path d="M117 297h18v22h-18zm0 0"/></clipPath><clipPath id="prefix__aI"><path d="M117.945 297.379l28.496-.504.371 20.996-28.496.504zm0 0"/></clipPath><clipPath id="prefix__aJ"><path d="M146.102 296.879l-28.497.504.372 20.996 28.496-.504zm0 0"/></clipPath><clipPath id="prefix__aK"><path d="M130 296h17v22h-17zm0 0"/></clipPath><clipPath id="prefix__aL"><path d="M117.945 297.379l28.496-.504.371 20.996-28.496.504zm0 0"/></clipPath><clipPath id="prefix__aM"><path d="M146.102 296.879l-28.497.504.372 20.996 28.496-.504zm0 0"/></clipPath><clipPath id="prefix__aN"><path d="M75 282h20v22H75zm0 0"/></clipPath><clipPath id="prefix__aO"><path d="M81.105 277.734l23.989 15.387-11.336 17.676-23.992-15.387zm0 0"/></clipPath><clipPath id="prefix__aP"><path d="M104.809 292.938L80.816 277.55 69.48 295.227l23.989 15.386zm0 0"/></clipPath><clipPath id="prefix__aQ"><path d="M85 289h20v22H85zm0 0"/></clipPath><clipPath id="prefix__aR"><path d="M81.105 277.734l23.989 15.387-11.336 17.676-23.992-15.387zm0 0"/></clipPath><clipPath id="prefix__aS"><path d="M104.809 292.938L80.816 277.55 69.48 295.227l23.989 15.386zm0 0"/></clipPath><clipPath id="prefix__aT"><path d="M39 261h21v21H39zm0 0"/></clipPath><clipPath id="prefix__aU"><path d="M48.059 255.742l20.527 19.77-14.566 15.125-20.528-19.77zm0 0"/></clipPath><clipPath id="prefix__aV"><path d="M68.34 275.277l-20.528-19.773-14.566 15.129 20.527 19.77zm0 0"/></clipPath><clipPath id="prefix__aW"><path d="M48 270h20v20H48zm0 0"/></clipPath><clipPath id="prefix__aX"><path d="M48.059 255.742l20.527 19.77-14.566 15.125-20.528-19.77zm0 0"/></clipPath><clipPath id="prefix__aY"><path d="M68.34 275.277l-20.528-19.773-14.566 15.129 20.527 19.77zm0 0"/></clipPath><clipPath id="prefix__aZ"><path d="M17 226h22v19H17zm0 0"/></clipPath><clipPath id="prefix__ba"><path d="M31.219 221.023l14.32 24.641-18.152 10.555-14.325-24.64zm0 0"/></clipPath><clipPath id="prefix__bb"><path d="M45.371 245.371l-14.324-24.64-18.156 10.554 14.324 24.64zm0 0"/></clipPath><clipPath id="prefix__bc"><path d="M23 236h22v20H23zm0 0"/></clipPath><clipPath id="prefix__bd"><path d="M31.219 221.023l14.32 24.641-18.152 10.555-14.325-24.64zm0 0"/></clipPath><clipPath id="prefix__be"><path d="M45.371 245.371l-14.324-24.64-18.156 10.554 14.324 24.64zm0 0"/></clipPath><clipPath id="prefix__bf"><path d="M8.879 171.938h21V188h-21zm0 0"/></clipPath><clipPath id="prefix__bg"><path d="M8.879 184h21v16.098h-21zm0 0"/></clipPath><clipPath id="prefix__bh"><path d="M20 121h22v20H20zm0 0"/></clipPath><clipPath id="prefix__bi"><path d="M46.379 127.648l-16.234 23.426-17.262-11.965 16.234-23.422zm0 0"/></clipPath><clipPath id="prefix__bj"><path d="M30.34 150.793l16.234-23.426-17.261-11.96-16.235 23.425zm0 0"/></clipPath><clipPath id="prefix__bk"><path d="M13 131h22v20H13zm0 0"/></clipPath><clipPath id="prefix__bl"><path d="M46.379 127.648l-16.234 23.426-17.262-11.965 16.234-23.422zm0 0"/></clipPath><clipPath id="prefix__bm"><path d="M30.34 150.793l16.234-23.426-17.261-11.96-16.235 23.425zm0 0"/></clipPath><clipPath id="prefix__bn"><path d="M47 87h19v21H47zm0 0"/></clipPath><clipPath id="prefix__bo"><path d="M72.52 97.336L51.426 116.5l-14.121-15.543 21.093-19.164zm0 0"/></clipPath><clipPath id="prefix__bp"><path d="M51.676 116.27L72.77 97.105 58.648 81.562l-21.093 19.165zm0 0"/></clipPath><clipPath id="prefix__bq"><path d="M37 96h20v20H37zm0 0"/></clipPath><clipPath id="prefix__br"><path d="M72.52 97.336L51.426 116.5l-14.121-15.543 21.093-19.164zm0 0"/></clipPath><clipPath id="prefix__bs"><path d="M51.676 116.27L72.77 97.105 58.648 81.562l-21.093 19.165zm0 0"/></clipPath><clipPath id="prefix__bt"><path d="M81 66h20v22H81zm0 0"/></clipPath><clipPath id="prefix__bu"><path d="M104.922 81.059L79.344 93.633l-9.266-18.848 25.578-12.57zm0 0"/></clipPath><clipPath id="prefix__bv"><path d="M79.648 93.48l25.579-12.57-9.266-18.847-25.578 12.574zm0 0"/></clipPath><clipPath id="prefix__bw"><path d="M70 71h20v23H70zm0 0"/></clipPath><clipPath id="prefix__bx"><path d="M104.922 81.059L79.344 93.633l-9.266-18.848 25.578-12.57zm0 0"/></clipPath><clipPath id="prefix__by"><path d="M79.648 93.48l25.579-12.57-9.266-18.847-25.578 12.574zm0 0"/></clipPath><clipPath id="prefix__bz"><path d="M130 57.016h16.285V78H130zm0 0"/></clipPath><clipPath id="prefix__bA"><path d="M118.125 57.016H135V78h-16.875zm0 0"/></clipPath><clipPath id="prefix__bB"><path d="M166 56h17v22h-17zm0 0"/></clipPath><clipPath id="prefix__bC"><path d="M182.512 78.016l-28.489-.86.633-20.992 28.489.86zm0 0"/></clipPath><clipPath id="prefix__bD"><path d="M154.363 77.164l28.489.86.632-20.989-28.488-.86zm0 0"/></clipPath><clipPath id="prefix__bE"><path d="M154 56h17v22h-17zm0 0"/></clipPath><clipPath id="prefix__bF"><path d="M182.512 78.016l-28.489-.86.633-20.992 28.489.86zm0 0"/></clipPath><clipPath id="prefix__bG"><path d="M154.363 77.164l28.489.86.632-20.989-28.488-.86zm0 0"/></clipPath><clipPath id="prefix__bH"><path d="M278 56h17v22h-17zm0 0"/></clipPath><clipPath id="prefix__bI"><path d="M294.164 78.016l-28.488-.86.633-20.992 28.488.86zm0 0"/></clipPath><clipPath id="prefix__bJ"><path d="M266.016 77.164l28.488.86.633-20.989-28.489-.86zm0 0"/></clipPath><clipPath id="prefix__bK"><path d="M266 56h17v22h-17zm0 0"/></clipPath><clipPath id="prefix__bL"><path d="M294.164 78.016l-28.488-.86.633-20.992 28.488.86zm0 0"/></clipPath><clipPath id="prefix__bM"><path d="M266.016 77.164l28.488.86.633-20.989-28.489-.86zm0 0"/></clipPath><clipPath id="prefix__bN"><path d="M241 56h17v22h-17zm0 0"/></clipPath><clipPath id="prefix__bO"><path d="M257.04 78.016l-28.49-.86.634-20.992 28.488.86zm0 0"/></clipPath><clipPath id="prefix__bP"><path d="M228.89 77.164l28.489.86.633-20.989-28.489-.86zm0 0"/></clipPath><clipPath id="prefix__bQ"><path d="M228 56h18v22h-18zm0 0"/></clipPath><clipPath id="prefix__bR"><path d="M257.04 78.016l-28.49-.86.634-20.992 28.488.86zm0 0"/></clipPath><clipPath id="prefix__bS"><path d="M228.89 77.164l28.489.86.633-20.989-28.489-.86zm0 0"/></clipPath><clipPath id="prefix__bT"><path d="M204 56h17v22h-17zm0 0"/></clipPath><clipPath id="prefix__bU"><path d="M220.523 78.016l-28.488-.86.633-20.992 28.488.86zm0 0"/></clipPath><clipPath id="prefix__bV"><path d="M192.375 77.164l28.488.86.633-20.989-28.488-.86zm0 0"/></clipPath><clipPath id="prefix__bW"><path d="M192 56h17v22h-17zm0 0"/></clipPath><clipPath id="prefix__bX"><path d="M220.523 78.016l-28.488-.86.633-20.992 28.488.86zm0 0"/></clipPath><clipPath id="prefix__bY"><path d="M192.375 77.164l28.488.86.633-20.989-28.488-.86zm0 0"/></clipPath></defs><g clip-path="url(#prefix__a)"><g clip-path="url(#prefix__b)"><path fill="#919191" d="M303.75 52.777V323.04H-.133V52.777zm0 0"/></g></g><g clip-path="url(#prefix__c)"><g clip-path="url(#prefix__d)"><path fill="none" d="M7.918 142.824C3.137 156.668 0 172.406 0 187.852c0 15.445 2.687 30.304 7.469 44.003.152.29.152.583.3.875 19.122 51.434 69.622 89.32 127.887 90.047H303.75v-270H135.781c-58.687.73-109.187 38.032-127.863 90.047" stroke="#000" stroke-width="3"/></g></g><g clip-path="url(#prefix__e)"><g clip-path="url(#prefix__f)"><g clip-path="url(#prefix__g)"><path fill="#707070" d="M141.75 338.754L-10.797 186.207 141.75 33.657l152.547 152.55zm0 0"/></g></g></g><g clip-path="url(#prefix__h)"><g clip-path="url(#prefix__i)"><g clip-path="url(#prefix__j)"><g clip-path="url(#prefix__k)"><path fill="none" d="M65.383 262.387c42.176 42.176 110.558 42.176 152.734 0s42.176-110.559 0-152.735c-42.176-42.18-110.558-42.18-152.734 0-42.176 42.176-42.176 110.559 0 152.735" stroke="#000" stroke-width="6"/></g></g></g></g><g clip-path="url(#prefix__l)"><g clip-path="url(#prefix__m)"><g clip-path="url(#prefix__n)"><path fill="#ffde59" d="M101.93 240.875l-12.504-12.406 22.488-22.664 12.504 12.406zm0 0"/></g></g></g><g clip-path="url(#prefix__o)"><g clip-path="url(#prefix__p)"><g clip-path="url(#prefix__q)"><path fill="#ffde59" d="M141.344 154.832l-17.047 4.438-8.043-30.895 17.047-4.438zm0 0"/></g></g></g><g clip-path="url(#prefix__r)"><g clip-path="url(#prefix__s)"><g clip-path="url(#prefix__t)"><path fill="#ffde59" d="M199.512 160.738l-21.918 81.559-70.73-19.004 21.913-81.559zm0 0"/></g></g></g><g clip-path="url(#prefix__u)"><g clip-path="url(#prefix__v)"><g clip-path="url(#prefix__w)"><path fill="#ffde59" d="M198.473 195.027l-4.57 17.012-30.833-8.285 4.57-17.008zm0 0"/></g></g></g><g clip-path="url(#prefix__x)"><g clip-path="url(#prefix__y)"><g clip-path="url(#prefix__z)"><path fill="#ffde59" d="M197.164 174.426l53.371 15.668-15.668 53.37-53.367-15.667zm0 0"/></g></g></g><g clip-path="url(#prefix__A)"><g clip-path="url(#prefix__B)"><g clip-path="url(#prefix__C)"><g clip-path="url(#prefix__D)"><path d="M222.95 185.113c-5.329-1.562-10.583-1.36-15.759.61l-2.129-5.598c6.43-2.445 12.954-2.7 19.575-.754zm-18.204 1.692c-4.95 2.523-8.633 6.265-11.039 11.238l-5.387-2.613c2.993-6.176 7.563-10.828 13.711-13.961zm-12.07 13.699c-.164.457-.317.922-.453 1.39-1.418 4.825-1.371 9.622.132 14.395l-5.71 1.8c-1.872-5.933-1.926-11.89-.168-17.878.171-.582.359-1.156.562-1.727zm.62 18.289c2.231 5.094 5.759 8.988 10.583 11.684l-2.922 5.226c-5.992-3.348-10.375-8.183-13.144-14.504zm12.966 12.852c.89.375 1.804.703 2.742.976 4.324 1.274 8.664 1.36 13.008.262l1.468 5.804c-5.402 1.364-10.792 1.258-16.164-.32a31.02 31.02 0 01-3.394-1.215zm18.3.445c5.211-1.934 9.301-5.227 12.274-9.88l5.047 3.224c-3.692 5.78-8.774 9.87-15.238 12.27zm13.59-12.207a24.958 24.958 0 001.578-4.04c1.125-3.84 1.317-7.706.57-11.605l5.88-1.125c.93 4.848.691 9.653-.707 14.414a30.877 30.877 0 01-1.953 5.008zm1.508-18.235c-1.625-5.312-4.68-9.59-9.156-12.832l3.516-4.847c5.558 4.027 9.347 9.336 11.363 15.926zm-11.402-14.28a24.905 24.905 0 00-5.309-2.255l1.688-5.742c2.312.68 4.508 1.61 6.586 2.793zm0 0"/></g></g></g></g><g clip-path="url(#prefix__E)"><g clip-path="url(#prefix__F)"><g clip-path="url(#prefix__G)"><path fill="#ffde59" d="M140.723 78.71l14.34 53.743-53.743 14.34-14.34-53.742zm0 0"/></g></g></g><g clip-path="url(#prefix__H)"><g clip-path="url(#prefix__I)"><g clip-path="url(#prefix__J)"><g clip-path="url(#prefix__K)"><path d="M144.984 106.297c-1.43-5.367-4.332-9.75-8.703-13.149l3.676-4.726c5.43 4.223 9.035 9.668 10.813 16.332zM134.086 91.62c-4.727-2.922-9.84-4.121-15.336-3.594l-.57-5.96c6.832-.653 13.183.835 19.054 4.46zm-17.977-3.2c-.476.099-.953.212-1.425.337-4.856 1.297-8.934 3.824-12.23 7.59l-4.505-3.946c4.098-4.675 9.16-7.82 15.192-9.43a34.076 34.076 0 011.765-.417zm-15.308 10.032c-3.192 4.555-4.688 9.59-4.48 15.11l-5.985.222c-.254-6.863 1.602-13.117 5.562-18.77zm-4.242 17.754c.14.961.336 1.91.586 2.852 1.164 4.359 3.343 8.109 6.539 11.254l-4.2 4.265c-3.972-3.906-6.68-8.566-8.125-13.976a32.163 32.163 0 01-.726-3.532zm9.125 15.871c4.359 3.45 9.296 5.234 14.82 5.356l-.133 5.988c-6.863-.152-12.996-2.371-18.402-6.649zm17.492 5.27a24.94 24.94 0 004.27-.75c3.867-1.032 7.269-2.88 10.214-5.54l4.016 4.438c-3.66 3.313-7.89 5.606-12.688 6.887a30.598 30.598 0 01-5.293.93zm16.363-8.184c3.691-4.148 5.762-8.976 6.207-14.488l5.969.484c-.555 6.844-3.121 12.84-7.707 17.985zm6.277-17.16a24.653 24.653 0 00-.832-5.707l5.786-1.543a30.923 30.923 0 011.035 7.078zm0 0"/></g></g></g></g><g clip-path="url(#prefix__L)"><g clip-path="url(#prefix__M)"><g clip-path="url(#prefix__N)"><path fill="#ffde59" d="M88.398 202.172L127.73 241.5l-39.332 39.332L49.07 241.5zm0 0"/></g></g></g><g clip-path="url(#prefix__O)"><g clip-path="url(#prefix__P)"><g clip-path="url(#prefix__Q)"><g clip-path="url(#prefix__R)"><path d="M105.906 223.91c-3.93-3.93-8.636-6.27-14.12-7.02l.812-5.933c6.816.938 12.664 3.84 17.539 8.719zm-16.785-7.242c-5.555-.16-10.582 1.363-15.078 4.57l-3.477-4.87c5.59-3.99 11.832-5.884 18.727-5.684zm-17.16 6.234c-.367.325-.723.66-1.066 1.008-3.555 3.555-5.817 7.785-6.782 12.695l-5.875-1.156c1.2-6.101 4.008-11.36 8.422-15.773.43-.43.867-.844 1.32-1.246zm-8.223 16.352c-.484 5.539.746 10.648 3.688 15.324l-5.067 3.188c-3.656-5.809-5.187-12.153-4.586-19.032zm5.219 17.492a24.871 24.871 0 001.938 2.176c3.187 3.187 6.953 5.344 11.293 6.46l-1.497 5.798c-5.394-1.39-10.07-4.067-14.03-8.028a30.657 30.657 0 01-2.4-2.691zm15.848 9.164c5.5.8 10.668-.129 15.511-2.785l2.883 5.246c-6.015 3.305-12.433 4.461-19.258 3.465zm17.78-4.2a25.626 25.626 0 003.321-2.788c2.828-2.832 4.848-6.133 6.063-9.914l5.699 1.832c-1.508 4.7-4.02 8.805-7.531 12.312a30.764 30.764 0 01-4.117 3.461zm10.06-15.28c1.12-5.442.492-10.657-1.883-15.649l5.41-2.574c2.945 6.203 3.726 12.68 2.34 19.43zm-3.16-18a24.848 24.848 0 00-3.579-4.52l4.23-4.234a30.633 30.633 0 014.442 5.61zm0 0"/></g></g></g></g><g clip-path="url(#prefix__S)"><g clip-path="url(#prefix__T)"><g clip-path="url(#prefix__U)"><path fill="#707070" d="M224.566 204.012l-3.625 13.48-13.48-3.62 3.625-13.485zm0 0"/></g></g></g><g clip-path="url(#prefix__V)"><g clip-path="url(#prefix__W)"><g clip-path="url(#prefix__X)"><path fill="#707070" d="M129.566 117.691l-13.488 3.598-3.598-13.488 13.485-3.598zm0 0"/></g></g></g><g clip-path="url(#prefix__Y)"><g clip-path="url(#prefix__Z)"><g clip-path="url(#prefix__aa)"><path fill="#707070" d="M97.7 237.29l-3.626 13.48-13.48-3.625 3.625-13.48zm0 0"/></g></g></g><g clip-path="url(#prefix__ab)"><g clip-path="url(#prefix__ac)"><g clip-path="url(#prefix__ad)"><g clip-path="url(#prefix__ae)"><path fill="#fff" d="M176.828 237.129c.035.023.05.059.05.098.126.074.302-.082.403.093.41.196.406.543.34.91-.187 1.036-.539 2.016-.953 2.973-1.477 3.43-3.602 6.383-6.266 8.984-4.656 4.54-10.277 6.981-16.617 7.903-2.941.426-5.902.328-8.86.09-1.738-.14-3.464-.387-5.198-.59-.059-.035-.114-.07-.176-.106-.07.024-.16.028-.211.075v.003c-.04.04.015.094.078.102.496.477 1.074.836 1.672 1.16.41.227.789.473 1.094.832.882.477 1.18 1.223.859 2.078-1.992-.043-3.563-1.054-5.082-2.214-.563-.43-1.152-.82-1.738-1.223-1.403-.957-1.149-.899-1.07-2.281.019-.309.109-.61.226-.895.043-.105.094-.2.207-.242.039-.352.312-.457.586-.543.812-.262 1.625-.512 2.437-.77.133-.152.317-.187.504-.214.13-.16.317-.192.5-.23.07-.13.215-.145.328-.204 1.543-.824 2.97-1.813 4.22-3.043.097-.09.198-.176.296-.262.113-.11.246-.23.402-.14.118.07.157.257.118.363-.188.48-.055.996-.196 1.476-.062.211-.203.38-.351.551-1.14 1.309-2.48 2.375-3.934 3.309-.129.082-.273.148-.383.254-.125.125-.035.238.082.328.157-.082.297-.059.426.059.156-.043.313-.075.45.058.03-.031.058-.027.085.008.149-.047.293-.066.426.05.11-.011.215-.034.324-.023 1.18.102 2.36.219 3.543.309 1.07.078 2.145.125 3.219.183.285-.02.57-.05.852-.058 2.761-.086 5.472-.512 8.105-1.344.941-.297 1.875-.625 2.809-.937.14-.164.336-.192.53-.22.13-.16.313-.187.5-.218.114-.16.294-.176.462-.219.066-.113.172-.148.293-.148.023-.04.062-.055.11-.043.07-.125.21-.14.323-.207.547-.313 1.149-.527 1.66-.91.067.031.247-.008.07.156-.116.11-.109.156-.058.176.043.02.121.02.18.027 1.695-1.05 3.25-2.293 4.719-3.64l.375-.415c.746-.824 1.496-1.648 2.242-2.468a.166.166 0 01.047-.11.213.213 0 01.07-.043.16.16 0 01.113-.148.15.15 0 01.118-.145c0-.078.042-.129.113-.152.004-.078.039-.129.113-.148 0-.079.04-.13.113-.149v-.004c0-.078.036-.129.11-.148v-.004c.031-.05.07-.102.105-.149l.004-.003c0-.079.035-.13.106-.153l.003-.004c0-.078.032-.125.106-.148l.004-.008h0c-.004-.074.031-.125.105-.148l.004-.004c-.004-.078.031-.13.106-.153-.004-.078.03-.132.105-.156l.883-1.492c.234-.211.344-.504.484-.77a.241.241 0 00-.07-.07.217.217 0 00-.14-.035c.085-.215.156-.434.331-.594a.385.385 0 00.137-.168c-.043.055-.09.113-.137.168.016-.074.036-.144.118-.16-.02-.117.023-.207.109-.281-.016-.074.004-.13.078-.16.004-.078.027-.145.102-.18a.114.114 0 01.035-.102c.047-.222.137-.425.273-.605.043-.156.082-.316.2-.434-.012-.11.05-.195.101-.277.164-.617.438-1.2.488-1.879.203.121.434.004.551.215zm-35.648 18.883c0-.004 0-.004.004-.004v0s-.004-.004 0-.004c-.004.004-.004.004-.004.008zm32.172-11.508l-.02.043c.004-.004.008-.008.008-.012a.217.217 0 00.023-.031h-.011zm-1.504 1.422c0 .004.004 0 .004.004.003 0 .007.004.011.007l.016.008-.027-.02v-.003c0 .004 0 .004-.004.004zm1.574-1.418c-.02-.004-.04-.004-.055-.004-.008.012-.015.023-.023.031a.093.093 0 01.078-.027zm-.125.097c-.008.016-.016.028-.024.04v.003l.024-.043zm3.617-6.27s0-.003.004-.003v-.008c-.004.004-.004.008-.004.012zm-.074.274v.008c-.004 0 0-.008 0-.008zm-1.828 2.168c.015 0 .027 0 .043.008 0-.008 0-.02-.004-.027-.012.008-.024.012-.04.02zm.16-.476c.016-.02.02-.043.02-.074v.003c-.005.024-.008.051-.02.07zm0 0"/></g></g></g></g><g clip-path="url(#prefix__af)"><g clip-path="url(#prefix__ag)"><g clip-path="url(#prefix__ah)"><g clip-path="url(#prefix__ai)"><path fill="#fff" d="M172.754 244.723a2.69 2.69 0 00-.106.148c-.003-.078.032-.125.106-.148zm0 0"/></g></g></g></g><g clip-path="url(#prefix__aj)"><g clip-path="url(#prefix__ak)"><g clip-path="url(#prefix__al)"><g clip-path="url(#prefix__am)"><path fill="#fff" d="M76.457 195.555a.11.11 0 01-.11-.016c-.128.063-.105.293-.308.277-.394.223-.68.02-.941-.246-.735-.75-1.332-1.601-1.88-2.492-1.952-3.18-3.148-6.617-3.738-10.297-1.035-6.418.204-12.422 3.102-18.136 1.344-2.649 3.129-5.012 5.027-7.293 1.114-1.344 2.309-2.614 3.473-3.91.063-.032.125-.055.188-.087.023-.074.07-.148.058-.214v-.004c-.012-.055-.086-.04-.129.008-.676.128-1.3.398-1.914.699-.418.203-.84.37-1.308.414-.895.449-1.676.262-2.196-.496 1.184-1.602 2.914-2.305 4.739-2.88.675-.21 1.335-.468 2-.718 1.59-.594 1.394-.418 2.48.441.242.192.438.438.605.7.06.097.11.191.079.308.261.235.191.516.105.793-.254.813-.516 1.621-.777 2.434.05.2-.028.367-.114.539.059.195-.023.367-.097.539.066.133-.008.258-.024.387-.21 1.734-.226 3.468.059 5.199.02.133.031.262.047.394.02.157.043.332-.117.407-.125.058-.301-.016-.364-.114-.285-.425-.785-.613-1.097-1.004-.137-.175-.196-.386-.246-.605-.414-1.687-.516-3.398-.446-5.121.008-.156.04-.313.016-.461-.031-.176-.176-.168-.317-.121-.023.172-.124.273-.292.312-.055.153-.122.301-.31.332.009.047-.007.067-.054.067-.047.148-.113.281-.285.32-.055.094-.098.2-.168.281-.762.907-1.539 1.801-2.289 2.72-.684.831-1.34 1.683-2.004 2.526-.148.243-.289.493-.445.727-1.516 2.313-2.73 4.77-3.567 7.402-.296.942-.566 1.891-.847 2.836.054.211-.04.383-.125.563.054.195-.028.363-.114.535.07.184-.023.34-.085.504.058.117.023.223-.047.32.02.047.011.082-.028.113.063.133-.004.258-.02.387-.058.63-.226 1.242-.206 1.88-.067.038-.137.206-.172-.032-.024-.156-.063-.176-.11-.149-.039.028-.082.09-.12.133-.122 1.992 0 3.977.257 5.953.04.184.078.364.121.547.243 1.082.489 2.168.73 3.254a.166.166 0 01.063.102c.004.027 0 .05-.007.082.058.047.078.11.054.18.063.046.078.105.055.18.062.042.078.105.055.179.062.043.085.105.058.176.067.046.086.105.059.18.066.042.086.1.062.175v.004c.024.055.043.113.063.172v.004c.062.043.086.101.062.172v.007c.067.043.086.098.063.172l.004.008c.066.04.086.098.062.172v.004c.067.039.086.098.063.172l.004.004c.062.043.085.101.066.175.234.528.473 1.051.71 1.579.036.312.212.57.352.84a.183.183 0 00.094-.016.247.247 0 00.114-.098c.124.195.265.38.292.617a.386.386 0 00.06.207l-.06-.207c.055.055.098.11.063.188a.29.29 0 01.168.25c.07.031.105.078.086.156.062.047.101.106.09.184.031.023.054.047.062.09.156.167.27.355.336.574.106.125.211.246.242.41.094.055.13.152.168.246.41.488.727 1.047 1.254 1.477-.215.097-.254.351-.492.328zm5.078-40.02v.004c.004 0 .004 0 .004.004 0-.004 0-.004-.004-.008zm-9.11 32.93c-.007-.012-.015-.024-.023-.04.004.005.004.009.004.012.004.012.008.028.016.04 0-.004 0-.004.004-.012zm-.296-2.047s0 .004-.004 0c-.004.004-.008.004-.016.008l-.011.008.03-.012v-.004zm.258 2.105c.011-.015.023-.03.031-.046l-.012-.036a.108.108 0 01-.02.082zm-.012-.16c-.008-.015-.012-.027-.02-.039v-.004c.004.016.012.028.02.043zm3.047 6.567v.008c.004 0 .004 0 .004.003 0-.004 0-.007-.004-.011zm-.184-.22s-.004 0-.004-.003l.004.004zm-.718-2.737a.223.223 0 01-.032.027l.024.012a.139.139 0 00.008-.04zm.296.402a.113.113 0 00.047.059v-.004a.159.159 0 01-.047-.055zm0 0"/></g></g></g></g><g clip-path="url(#prefix__an)"><g clip-path="url(#prefix__ao)"><g clip-path="url(#prefix__ap)"><g clip-path="url(#prefix__aq)"><path fill="#fff" d="M72.594 187.852c-.024-.059-.04-.118-.063-.172.067.043.086.097.063.172zm0 0"/></g></g></g></g><g clip-path="url(#prefix__ar)"><g clip-path="url(#prefix__as)"><g clip-path="url(#prefix__at)"><g clip-path="url(#prefix__au)"><path fill="#fff" d="M167.816 126.145c.008-.04.036-.067.075-.082.023-.141-.18-.254-.051-.41.039-.45.367-.571.738-.633 1.035-.176 2.074-.184 3.117-.125 3.727.207 7.23 1.187 10.59 2.796 5.863 2.809 10.09 7.25 13.133 12.887 1.414 2.613 2.336 5.43 3.133 8.29.465 1.679.828 3.382 1.23 5.081l-.035.2c.047.062.082.144.14.175h.005c.05.024.082-.05.066-.11.281-.632.418-1.296.52-1.972.066-.46.168-.902.406-1.308.14-.993.738-1.528 1.652-1.524.645 1.887.235 3.711-.332 5.531-.21.68-.375 1.368-.55 2.055-.415 1.649-.45 1.387-1.774 1.79-.297.089-.61.109-.918.097-.117-.004-.219-.02-.297-.113-.344.085-.539-.137-.715-.364-.523-.672-1.039-1.347-1.558-2.023-.192-.074-.286-.235-.375-.403-.196-.066-.29-.23-.391-.386-.145-.024-.207-.153-.305-.239-1.3-1.164-2.718-2.164-4.304-2.917-.118-.06-.235-.125-.348-.184-.14-.074-.3-.156-.27-.332.024-.133.184-.238.301-.234.512.011.953-.293 1.45-.329.222-.011.43.063.64.145 1.621.621 3.086 1.512 4.461 2.555.121.093.23.207.371.273.16.074.234-.05.277-.191-.128-.118-.156-.258-.09-.418-.093-.133-.175-.27-.097-.446-.043-.015-.05-.047-.024-.082-.097-.125-.164-.254-.101-.418-.047-.097-.106-.191-.133-.297-.312-1.14-.605-2.289-.93-3.43-.293-1.034-.62-2.058-.933-3.085-.117-.262-.242-.52-.344-.781-1.035-2.567-2.363-4.961-4.05-7.153-.606-.781-1.231-1.543-1.848-2.312-.2-.074-.293-.25-.387-.422-.195-.067-.285-.23-.379-.395-.191-.05-.266-.214-.363-.359-.13-.02-.196-.11-.239-.223-.046-.011-.074-.039-.078-.086-.144-.027-.207-.152-.304-.234-.485-.406-.891-.898-1.426-1.246.004-.074-.094-.23.121-.121.144.07.184.05.184-.004.003-.05-.024-.121-.036-.18-1.57-1.234-3.27-2.262-5.039-3.18l-.52-.21-3.089-1.254a.17.17 0 01-.117-.008.201.201 0 01-.067-.05c-.07.019-.132 0-.175-.06-.075.024-.133.004-.18-.058-.074.027-.133.004-.18-.055-.074.024-.133.008-.18-.054-.074.027-.132.007-.18-.055-.073.031-.132.012-.179-.047v-.004a1.347 1.347 0 01-.18-.047l-.003-.004c-.075.032-.133.016-.18-.047h-.004c-.07.028-.129.012-.176-.046l-.008-.004h-.004.004c-.07.03-.129.015-.175-.047h-.004c-.075.031-.133.015-.18-.047h-.004c-.07.027-.133.016-.18-.047l-1.707-.316c-.277-.149-.59-.149-.89-.188a.262.262 0 00-.04.09.268.268 0 00.016.144c-.23-.007-.46.004-.672-.109a.386.386 0 00-.203-.07c.067.023.133.047.203.07-.078.012-.148.016-.191-.055-.102.059-.2.047-.3-.004-.063.04-.126.04-.177-.019-.078.02-.144.023-.203-.035a.12.12 0 01-.109.004 1.528 1.528 0 01-.664-.051c-.16.012-.32.031-.477-.035-.097.047-.195.015-.297-.004-.632.058-1.273.004-1.925.191.043-.234-.149-.41.011-.593zm29.985 26.984l-.004-.004h0c0 .004 0 .004-.004.004h.008zm-21.863-26.254h.042c-.003 0-.007 0-.011-.004-.012-.004-.024-.004-.035-.008 0 0 0 .004.004.012zm1.851.922v-.004l.004-.016v-.015l-.004.031h-.004l.004.004zm-1.875-.988l.016.05.039.012a.089.089 0 01-.055-.062zm.137.078c.015.004.027.008.043.011h.004l-.047-.011zm-7.133-1.235c0-.004-.004-.004-.004-.004h-.004-.004c.004.004.008 0 .012.004zm.281-.027c.004 0 .008-.004.012-.004-.004.004-.008.004-.012.004zm2.664.969c-.004-.012-.008-.024-.008-.043-.007.004-.015.011-.023.015.012.008.02.02.031.028zm-.5.015a.1.1 0 00-.074.008.161.161 0 01.074-.008zm0 0"/></g></g></g></g><g clip-path="url(#prefix__av)"><g clip-path="url(#prefix__aw)"><g clip-path="url(#prefix__ax)"><g clip-path="url(#prefix__ay)"><path fill="#fff" d="M176.348 127.36c.058.019.117.035.175.05-.07.028-.128.012-.175-.05zm0 0"/></g></g></g></g><path transform="matrix(.74987 .00605 -.00605 .74998 136.49 77.868)" fill="none" d="M-.002 1.999L223.036 2" stroke="#000" stroke-width="4"/><path transform="matrix(.75062 -.00364 .00364 .75 135.126 291.168)" fill="none" d="M0 2l224.814.002" stroke="#000" stroke-width="4"/><g clip-path="url(#prefix__az)"><path fill="#38b6ff" d="M266.715 306.992l8.492-9.492a.946.946 0 01.703-.316h5.664a.95.95 0 01.863.562.956.956 0 01-.164 1.02l-7.921 8.863 7.921 8.855a.95.95 0 01-.7 1.586h-5.663a.971.971 0 01-.703-.312l-8.492-9.496a.959.959 0 010-1.27zm0 0"/></g><g clip-path="url(#prefix__aA)"><path fill="#38b6ff" d="M278.984 306.992l8.493-9.492a.94.94 0 01.703-.316h5.66a.947.947 0 01.703 1.582l-7.926 8.863 7.926 8.855c.25.282.312.68.16 1.024a.94.94 0 01-.863.562h-5.66a.965.965 0 01-.703-.312l-8.493-9.496a.95.95 0 010-1.27zm0 0"/></g><g clip-path="url(#prefix__aB)"><path fill="#38b6ff" d="M229.59 306.992l8.492-9.492a.946.946 0 01.703-.316h5.664a.95.95 0 01.863.562.956.956 0 01-.164 1.02l-7.921 8.863 7.921 8.855c.25.282.317.68.165 1.024a.95.95 0 01-.864.562h-5.664a.971.971 0 01-.703-.312l-8.492-9.496a.959.959 0 010-1.27zm0 0"/></g><g clip-path="url(#prefix__aC)"><path fill="#38b6ff" d="M241.86 306.992l8.492-9.492a.94.94 0 01.703-.316h5.66a.947.947 0 01.703 1.582l-7.926 8.863 7.926 8.855c.25.282.312.68.16 1.024a.94.94 0 01-.863.562h-5.66a.965.965 0 01-.703-.312l-8.493-9.496a.95.95 0 010-1.27zm0 0"/></g><g clip-path="url(#prefix__aD)"><path fill="#5ce1e6" d="M192.465 306.992l8.492-9.492a.946.946 0 01.703-.316h5.664a.95.95 0 01.863.562.956.956 0 01-.164 1.02l-7.921 8.863 7.921 8.855c.25.282.317.68.165 1.024a.95.95 0 01-.864.562h-5.664a.971.971 0 01-.703-.312l-8.492-9.496a.959.959 0 010-1.27zm0 0"/></g><g clip-path="url(#prefix__aE)"><path fill="#5ce1e6" d="M204.734 306.992l8.493-9.492a.94.94 0 01.703-.316h5.66a.947.947 0 01.703 1.582l-7.926 8.863 7.926 8.855c.25.282.312.68.16 1.024a.94.94 0 01-.863.562h-5.66a.965.965 0 01-.703-.312l-8.493-9.496a.95.95 0 010-1.27zm0 0"/></g><g clip-path="url(#prefix__aF)"><path fill="#38b6ff" d="M155.34 306.992l8.492-9.492a.946.946 0 01.703-.316h5.664a.95.95 0 01.863.562.956.956 0 01-.164 1.02l-7.921 8.863 7.921 8.855c.25.282.317.68.165 1.024a.95.95 0 01-.864.562h-5.664a.971.971 0 01-.703-.312l-8.492-9.496a.959.959 0 010-1.27zm0 0"/></g><g clip-path="url(#prefix__aG)"><path fill="#38b6ff" d="M167.61 306.992l8.492-9.492a.94.94 0 01.703-.316h5.66a.947.947 0 01.703 1.582l-7.926 8.863 7.926 8.855c.25.282.312.68.16 1.024a.94.94 0 01-.863.562h-5.66a.965.965 0 01-.703-.312l-8.493-9.496a.95.95 0 010-1.27zm0 0"/></g><g clip-path="url(#prefix__aH)"><g clip-path="url(#prefix__aI)"><g clip-path="url(#prefix__aJ)"><path fill="#38b6ff" d="M118.21 307.242l8.325-9.644a.936.936 0 01.695-.328l5.66-.098a.952.952 0 01.876.543.958.958 0 01-.145 1.027l-7.766 8.996 8.079 8.719a.95.95 0 01-.672 1.598l-5.664.097a.946.946 0 01-.707-.3l-8.66-9.34a.955.955 0 01-.02-1.27zm0 0"/></g></g></g><g clip-path="url(#prefix__aK)"><g clip-path="url(#prefix__aL)"><g clip-path="url(#prefix__aM)"><path fill="#38b6ff" d="M130.477 307.023l8.324-9.64a.929.929 0 01.695-.328l5.66-.102a.945.945 0 01.875.547.952.952 0 01-.144 1.023l-7.766 9 8.082 8.715a.951.951 0 01.176 1.02.935.935 0 01-.852.578l-5.66.101a.948.948 0 01-.707-.3l-8.66-9.344a.95.95 0 01-.023-1.27zm0 0"/></g></g></g><g clip-path="url(#prefix__aN)"><g clip-path="url(#prefix__aO)"><g clip-path="url(#prefix__aP)"><path fill="#38b6ff" d="M75.855 286.086l12.274-3.406a.935.935 0 01.762.117l4.765 3.055a.948.948 0 01-.265 1.71l-11.454 3.18 1.891 11.735a.96.96 0 01-.418.949.949.949 0 01-1.031.008l-4.766-3.059a.954.954 0 01-.422-.64l-2.023-12.579a.954.954 0 01.687-1.07zm0 0"/></g></g></g><g clip-path="url(#prefix__aQ)"><g clip-path="url(#prefix__aR)"><g clip-path="url(#prefix__aS)"><path fill="#38b6ff" d="M86.18 292.71l12.277-3.405a.94.94 0 01.758.113l4.77 3.059c.312.199.476.566.421.937a.954.954 0 01-.687.774l-11.453 3.18 1.886 11.734a.951.951 0 01-1.445.957L87.941 307a.94.94 0 01-.421-.645l-2.024-12.574a.952.952 0 01.684-1.07zm0 0"/></g></g></g><g clip-path="url(#prefix__aT)"><g clip-path="url(#prefix__aU)"><g clip-path="url(#prefix__aV)"><path fill="#5ce1e6" d="M41.281 262.91l12.703-.945c.27-.02.532.074.723.258l4.078 3.93a.94.94 0 01.23 1.003.943.943 0 01-.824.621l-11.851.887-.438 11.875a.955.955 0 01-.593.848.94.94 0 01-1.012-.192l-4.078-3.925a.96.96 0 01-.29-.715l.47-12.73a.954.954 0 01.882-.915zm0 0"/></g></g></g><g clip-path="url(#prefix__aW)"><g clip-path="url(#prefix__aX)"><g clip-path="url(#prefix__aY)"><path fill="#5ce1e6" d="M50.117 271.422l12.703-.95c.27-.019.532.075.723.262l4.078 3.926a.95.95 0 01.234 1.004.962.962 0 01-.824.625l-11.855.883-.438 11.879a.948.948 0 01-.593.847.947.947 0 01-1.012-.191l-4.078-3.93a.967.967 0 01-.29-.71l.47-12.731a.954.954 0 01.882-.914zm0 0"/></g></g></g><g clip-path="url(#prefix__aZ)"><g clip-path="url(#prefix__ba)"><g clip-path="url(#prefix__bb)"><path fill="#38b6ff" d="M22.734 226.063l12.477 2.57a.947.947 0 01.625.449l2.844 4.895a.95.95 0 01-1.016 1.402l-11.64-2.399-3.676 11.305a.953.953 0 01-.805.653.94.94 0 01-.918-.465l-2.848-4.895a.97.97 0 01-.082-.766l3.942-12.113a.948.948 0 011.097-.637zm0 0"/></g></g></g><g clip-path="url(#prefix__bc)"><g clip-path="url(#prefix__bd)"><g clip-path="url(#prefix__be)"><path fill="#38b6ff" d="M28.898 236.668l12.477 2.57a.95.95 0 01.625.45l2.848 4.894a.95.95 0 01-1.016 1.402l-11.645-2.398-3.675 11.305a.953.953 0 01-1.723.191l-2.848-4.898a.962.962 0 01-.082-.762l3.942-12.117a.956.956 0 011.097-.637zm0 0"/></g></g></g><g clip-path="url(#prefix__bf)"><path fill="#38b6ff" d="M20.016 172.027l9.492 8.493c.203.18.316.433.316.703v5.66a.94.94 0 01-.562.863.946.946 0 01-1.02-.16l-8.863-7.926-8.856 7.926a.955.955 0 01-1.023.16.94.94 0 01-.563-.863v-5.66c0-.27.114-.524.313-.703l9.496-8.493a.95.95 0 011.27 0zm0 0"/></g><g clip-path="url(#prefix__bg)"><path fill="#38b6ff" d="M20.016 184.293l9.492 8.496c.203.18.316.434.316.7v5.663c0 .371-.219.711-.562.864a.953.953 0 01-1.02-.16l-8.863-7.926-8.856 7.925a.955.955 0 01-1.023.16.945.945 0 01-.563-.863v-5.664c0-.265.114-.52.313-.699l9.496-8.496c.36-.32.91-.32 1.27 0zm0 0"/></g><g clip-path="url(#prefix__bh)"><g clip-path="url(#prefix__bi)"><g clip-path="url(#prefix__bj)"><path fill="#38b6ff" d="M38.219 122.102l2.965 12.39a.936.936 0 01-.141.754l-3.227 4.656a.948.948 0 01-1.7-.324l-2.768-11.562-11.793 1.468a.955.955 0 01-.934-.449.949.949 0 01.027-1.031l3.227-4.652a.946.946 0 01.656-.399l12.645-1.574a.956.956 0 011.043.723zm0 0"/></g></g></g><g clip-path="url(#prefix__bk)"><g clip-path="url(#prefix__bl)"><g clip-path="url(#prefix__bm)"><path fill="#38b6ff" d="M31.23 132.188l2.965 12.386a.945.945 0 01-.14.758l-3.227 4.652a.951.951 0 01-.953.391.958.958 0 01-.746-.715l-2.77-11.558-11.793 1.464a.955.955 0 01-.933-.449.942.942 0 01.031-1.031l3.223-4.652a.96.96 0 01.66-.399l12.64-1.574a.953.953 0 011.043.726zm0 0"/></g></g></g><g clip-path="url(#prefix__bn)"><g clip-path="url(#prefix__bo)"><g clip-path="url(#prefix__bp)"><path fill="#5ce1e6" d="M65.816 90.094l.098 12.738a.937.937 0 01-.305.703l-4.191 3.809a.943.943 0 01-1.016.164.959.959 0 01-.57-.863l-.09-11.887-11.824-1.227a.954.954 0 01-.805-.648.946.946 0 01.258-.996l4.191-3.809c.2-.18.465-.266.731-.242l12.672 1.316c.48.051.851.457.851.942zm0 0"/></g></g></g><g clip-path="url(#prefix__bq)"><g clip-path="url(#prefix__br)"><g clip-path="url(#prefix__bs)"><path fill="#5ce1e6" d="M56.738 98.344l.098 12.738a.94.94 0 01-.309.703l-4.191 3.809a.948.948 0 01-1.582-.7l-.094-11.886-11.82-1.227a.954.954 0 01-.809-.648.947.947 0 01.262-1l4.187-3.805c.2-.18.465-.266.73-.242l12.673 1.316c.48.051.851.457.855.942zm0 0"/></g></g></g><g clip-path="url(#prefix__bt)"><g clip-path="url(#prefix__bu)"><g clip-path="url(#prefix__bv)"><path fill="#38b6ff" d="M100.488 72.246l-3.433 12.266a.948.948 0 01-.493.593l-5.082 2.497a.95.95 0 01-1.023-.122.958.958 0 01-.305-.988l3.203-11.449-11.02-4.453a.943.943 0 01-.593-.844.942.942 0 01.524-.887l5.082-2.5a.96.96 0 01.77-.027l11.808 4.773c.449.18.691.676.562 1.141zm0 0"/></g></g></g><g clip-path="url(#prefix__bw)"><g clip-path="url(#prefix__bx)"><g clip-path="url(#prefix__by)"><path fill="#38b6ff" d="M89.477 77.656l-3.434 12.27a.94.94 0 01-.492.59l-5.078 2.5a.95.95 0 01-1.332-1.114l3.207-11.445-11.024-4.453a.961.961 0 01-.594-.848.949.949 0 01.528-.886l5.082-2.497a.966.966 0 01.765-.03l11.813 4.773c.45.183.691.675.559 1.14zm0 0"/></g></g></g><g clip-path="url(#prefix__bz)"><path fill="#38b6ff" d="M146.195 68.148l-8.492 9.493a.946.946 0 01-.703.316h-5.664a.95.95 0 01-.863-.562.956.956 0 01.164-1.02l7.922-8.86-7.922-8.859a.95.95 0 01.7-1.586h5.663c.266 0 .52.117.703.313l8.492 9.496c.32.36.32.91 0 1.27zm0 0"/></g><g clip-path="url(#prefix__bA)"><path fill="#38b6ff" d="M133.926 68.148l-8.492 9.493a.94.94 0 01-.704.316h-5.66a.947.947 0 01-.703-1.582l7.926-8.86-7.926-8.859a.955.955 0 01-.16-1.023.94.94 0 01.863-.563h5.66c.27 0 .52.117.704.313l8.492 9.496a.95.95 0 010 1.27zm0 0"/></g><g clip-path="url(#prefix__bB)"><g clip-path="url(#prefix__bC)"><g clip-path="url(#prefix__bD)"><path fill="#38b6ff" d="M182.719 68.148l-8.778 9.235a.927.927 0 01-.71.293l-5.66-.168a.948.948 0 01-.844-.59.953.953 0 01.191-1.016l8.187-8.617-7.652-9.094a.951.951 0 01-.133-1.023.945.945 0 01.88-.54l5.66.173c.269.008.519.129.695.332l8.203 9.746a.96.96 0 01-.04 1.27zm0 0"/></g></g></g><g clip-path="url(#prefix__bE)"><g clip-path="url(#prefix__bF)"><g clip-path="url(#prefix__bG)"><path fill="#38b6ff" d="M170.457 67.781l-8.777 9.235a.94.94 0 01-.711.293l-5.66-.172a.946.946 0 01-.653-1.602l8.188-8.617-7.656-9.094a.948.948 0 01.75-1.563l5.66.169a.95.95 0 01.691.336l8.203 9.746a.955.955 0 01-.035 1.27zm0 0"/></g></g></g><g clip-path="url(#prefix__bH)"><g clip-path="url(#prefix__bI)"><g clip-path="url(#prefix__bJ)"><path fill="#38b6ff" d="M294.371 68.148l-8.777 9.235a.927.927 0 01-.711.293l-5.66-.168a.948.948 0 01-.844-.59.953.953 0 01.191-1.016l8.188-8.617-7.653-9.094a.951.951 0 01-.132-1.023.945.945 0 01.879-.54l5.66.173c.27.008.52.129.695.332l8.203 9.746a.96.96 0 01-.039 1.27zm0 0"/></g></g></g><g clip-path="url(#prefix__bK)"><g clip-path="url(#prefix__bL)"><g clip-path="url(#prefix__bM)"><path fill="#38b6ff" d="M282.11 67.781l-8.778 9.235a.94.94 0 01-.71.293l-5.661-.172a.946.946 0 01-.652-1.602l8.187-8.617-7.656-9.094a.948.948 0 01.75-1.563l5.66.169a.95.95 0 01.691.336l8.204 9.746a.955.955 0 01-.036 1.27zm0 0"/></g></g></g><g clip-path="url(#prefix__bN)"><g clip-path="url(#prefix__bO)"><g clip-path="url(#prefix__bP)"><path fill="#38b6ff" d="M257.246 68.148l-8.777 9.235a.927.927 0 01-.711.293l-5.66-.168a.948.948 0 01-.844-.59.953.953 0 01.191-1.016l8.188-8.617-7.653-9.094a.951.951 0 01-.132-1.023.945.945 0 01.879-.54l5.66.173c.27.008.52.129.695.332l8.203 9.746a.96.96 0 01-.039 1.27zm0 0"/></g></g></g><g clip-path="url(#prefix__bQ)"><g clip-path="url(#prefix__bR)"><g clip-path="url(#prefix__bS)"><path fill="#38b6ff" d="M244.984 67.781l-8.777 9.235a.94.94 0 01-.71.293l-5.661-.172a.946.946 0 01-.652-1.602l8.187-8.617-7.656-9.094a.948.948 0 01.75-1.563l5.66.169a.95.95 0 01.691.336l8.204 9.746a.955.955 0 01-.036 1.27zm0 0"/></g></g></g><g clip-path="url(#prefix__bT)"><g clip-path="url(#prefix__bU)"><g clip-path="url(#prefix__bV)"><path fill="#5ce1e6" d="M220.73 68.148l-8.777 9.235a.927.927 0 01-.71.293l-5.661-.168a.944.944 0 01-.844-.59.953.953 0 01.192-1.016l8.187-8.617-7.656-9.094a.95.95 0 01.75-1.562l5.66.172c.27.008.516.129.691.332l8.204 9.746a.955.955 0 01-.036 1.27zm0 0"/></g></g></g><g clip-path="url(#prefix__bW)"><g clip-path="url(#prefix__bX)"><g clip-path="url(#prefix__bY)"><path fill="#5ce1e6" d="M208.465 67.781l-8.774 9.235a.947.947 0 01-.71.293l-5.66-.172a.946.946 0 01-.844-.586.96.96 0 01.187-1.016l8.191-8.617-7.656-9.094a.949.949 0 01.75-1.562l5.66.168a.957.957 0 01.692.336l8.203 9.746a.95.95 0 01-.04 1.27zm0 0"/></g></g></g></svg>