<svg xmlns="http://www.w3.org/2000/svg" xmlns:xlink="http://www.w3.org/1999/xlink" width="450" zoomAndPan="magnify" viewBox="0 0 337.5 374.999991" height="500" preserveAspectRatio="xMidYMid meet" version="1.0"><defs><clipPath id="d62a41730d"><path d="M 0 52.777344 L 303.75 52.777344 L 303.75 323 L 0 323 Z M 0 52.777344 " clip-rule="nonzero"/></clipPath><clipPath id="36f83c46b8"><path d="M 7.917969 142.824219 C 3.136719 156.667969 0 172.40625 0 187.851562 C 0 203.296875 2.6875 218.15625 7.46875 231.855469 C 7.621094 232.144531 7.621094 232.4375 7.769531 232.730469 C 26.890625 284.164062 77.390625 322.050781 135.65625 322.777344 L 303.75 322.777344 L 303.75 52.777344 L 135.78125 52.777344 C 77.09375 53.507812 26.59375 90.808594 7.917969 142.824219 " clip-rule="nonzero"/></clipPath><clipPath id="2d85680c58"><path d="M 0 52.777344 L 303.75 52.777344 L 303.75 322.777344 L 0 322.777344 Z M 0 52.777344 " clip-rule="nonzero"/></clipPath><clipPath id="1458c07e90"><path d="M 7.917969 142.824219 C 3.136719 156.667969 0 172.40625 0 187.851562 C 0 203.296875 2.6875 218.15625 7.46875 231.855469 C 7.621094 232.144531 7.621094 232.4375 7.769531 232.730469 C 26.890625 284.164062 77.390625 322.050781 135.65625 322.777344 L 303.75 322.777344 L 303.75 52.777344 L 135.78125 52.777344 C 77.09375 53.507812 26.59375 90.808594 7.917969 142.824219 " clip-rule="nonzero"/></clipPath><clipPath id="e0456c20b4"><path d="M 33 78 L 250 78 L 250 295 L 33 295 Z M 33 78 " clip-rule="nonzero"/></clipPath><clipPath id="9ff5e5a385"><path d="M 141.75 338.753906 L -11.1875 185.8125 L 141.75 32.875 L 294.6875 185.8125 Z M 141.75 338.753906 " clip-rule="nonzero"/></clipPath><clipPath id="dc7ff8d155"><path d="M 65.382812 262.386719 C 107.558594 304.5625 175.941406 304.5625 218.117188 262.386719 C 260.292969 220.210938 260.292969 151.828125 218.117188 109.652344 C 175.941406 67.472656 107.558594 67.472656 65.382812 109.652344 C 23.207031 151.828125 23.207031 220.210938 65.382812 262.386719 " clip-rule="nonzero"/></clipPath><clipPath id="4e1618063f"><path d="M 33 78 L 250 78 L 250 295 L 33 295 Z M 33 78 " clip-rule="nonzero"/></clipPath><clipPath id="ba0c516e89"><path d="M 141.75 338.753906 L -10.984375 186.019531 L 141.75 33.285156 L 294.484375 186.019531 Z M 141.75 338.753906 " clip-rule="nonzero"/></clipPath><clipPath id="9d044d46d3"><path d="M 141.75 338.753906 L -13.144531 183.859375 L 141.75 28.964844 L 296.644531 183.859375 Z M 141.75 338.753906 " clip-rule="nonzero"/></clipPath><clipPath id="6cb7aed7d6"><path d="M 65.382812 262.386719 C 107.558594 304.5625 175.941406 304.5625 218.117188 262.386719 C 260.292969 220.210938 260.292969 151.828125 218.117188 109.652344 C 175.941406 67.472656 107.558594 67.472656 65.382812 109.652344 C 23.207031 151.828125 23.207031 220.210938 65.382812 262.386719 " clip-rule="nonzero"/></clipPath><clipPath id="07482a5019"><path d="M 89 205 L 125 205 L 125 241 L 89 241 Z M 89 205 " clip-rule="nonzero"/></clipPath><clipPath id="a74f021921"><path d="M 101.929688 240.875 L 89.035156 228.078125 L 111.523438 205.417969 L 124.417969 218.210938 Z M 101.929688 240.875 " clip-rule="nonzero"/></clipPath><clipPath id="ce27f497d0"><path d="M 101.929688 240.875 L 89.320312 228.359375 L 111.667969 205.839844 L 124.277344 218.351562 Z M 101.929688 240.875 " clip-rule="nonzero"/></clipPath><clipPath id="be7ca08990"><path d="M 116 124 L 142 124 L 142 160 L 116 160 Z M 116 124 " clip-rule="nonzero"/></clipPath><clipPath id="f897cada53"><path d="M 141.34375 154.832031 L 123.765625 159.410156 L 115.722656 128.515625 L 133.300781 123.9375 Z M 141.34375 154.832031 " clip-rule="nonzero"/></clipPath><clipPath id="bdb660b2fb"><path d="M 141.34375 154.832031 L 124.148438 159.308594 L 116.15625 128.605469 L 133.347656 124.128906 Z M 141.34375 154.832031 " clip-rule="nonzero"/></clipPath><clipPath id="e503d496bd"><path d="M 106 141 L 189 141 L 189 224 L 106 224 Z M 106 141 " clip-rule="nonzero"/></clipPath><clipPath id="b47cc0ad53"><path d="M 199.511719 160.738281 L 177.402344 243.019531 L 105.949219 223.820312 L 128.058594 141.539062 Z M 199.511719 160.738281 " clip-rule="nonzero"/></clipPath><clipPath id="232bdbec14"><path d="M 188.539062 201.5625 L 106.808594 223.375 L 128.75 141.726562 L 188.539062 201.5625 " clip-rule="nonzero"/></clipPath><clipPath id="614ab3b762"><path d="M 163 186 L 199 186 L 199 213 L 163 213 Z M 163 186 " clip-rule="nonzero"/></clipPath><clipPath id="a755225c76"><path d="M 198.472656 195.027344 L 193.757812 212.570312 L 162.925781 204.285156 L 167.640625 186.746094 Z M 198.472656 195.027344 " clip-rule="nonzero"/></clipPath><clipPath id="969105cf48"><path d="M 198.472656 195.027344 L 193.859375 212.1875 L 163.21875 203.953125 L 167.828125 186.796875 Z M 198.472656 195.027344 " clip-rule="nonzero"/></clipPath><clipPath id="f0c2762b04"><path d="M 188 181 L 244 181 L 244 237 L 188 237 Z M 188 181 " clip-rule="nonzero"/></clipPath><clipPath id="b10140f62f"><path d="M 197.164062 174.425781 L 250.535156 190.09375 L 234.867188 243.464844 L 181.5 227.796875 Z M 197.164062 174.425781 " clip-rule="nonzero"/></clipPath><clipPath id="dc68c7d0c5"><path d="M 223.851562 182.257812 C 209.113281 177.933594 193.65625 186.375 189.332031 201.109375 C 185.003906 215.847656 193.445312 231.304688 208.183594 235.628906 C 222.921875 239.957031 238.375 231.515625 242.703125 216.777344 C 247.027344 202.039062 238.589844 186.585938 223.851562 182.257812 " clip-rule="nonzero"/></clipPath><clipPath id="76c128cd42"><path d="M 188 181 L 244 181 L 244 237 L 188 237 Z M 188 181 " clip-rule="nonzero"/></clipPath><clipPath id="cee79397cb"><path d="M 197.164062 174.425781 L 250.417969 190.058594 L 234.785156 243.3125 L 181.53125 227.679688 Z M 197.164062 174.425781 " clip-rule="nonzero"/></clipPath><clipPath id="6f692e0d8b"><path d="M 197.164062 174.425781 L 250.417969 190.058594 L 234.785156 243.3125 L 181.53125 227.679688 Z M 197.164062 174.425781 " clip-rule="nonzero"/></clipPath><clipPath id="c4e138b1fd"><path d="M 223.792969 182.242188 C 209.085938 177.925781 193.664062 186.347656 189.347656 201.050781 C 185.03125 215.757812 193.453125 231.179688 208.160156 235.496094 C 222.863281 239.8125 238.285156 231.390625 242.601562 216.683594 C 246.917969 201.980469 238.496094 186.558594 223.792969 182.242188 " clip-rule="nonzero"/></clipPath><clipPath id="919352b725"><path d="M 93 84 L 149 84 L 149 141 L 93 141 Z M 93 84 " clip-rule="nonzero"/></clipPath><clipPath id="831f29749d"><path d="M 140.722656 78.710938 L 155.0625 132.453125 L 101.320312 146.792969 L 86.980469 93.050781 Z M 140.722656 78.710938 " clip-rule="nonzero"/></clipPath><clipPath id="8c87ed40d5"><path d="M 147.894531 105.582031 C 143.933594 90.742188 128.695312 81.921875 113.851562 85.882812 C 99.011719 89.839844 90.191406 105.082031 94.148438 119.921875 C 98.109375 134.761719 113.351562 143.582031 128.191406 139.625 C 143.03125 135.664062 151.851562 120.425781 147.894531 105.582031 " clip-rule="nonzero"/></clipPath><clipPath id="bd2663d7b4"><path d="M 93 84 L 149 84 L 149 141 L 93 141 Z M 93 84 " clip-rule="nonzero"/></clipPath><clipPath id="25e3474735"><path d="M 140.722656 78.710938 L 155.03125 132.335938 L 101.40625 146.644531 L 87.101562 93.019531 Z M 140.722656 78.710938 " clip-rule="nonzero"/></clipPath><clipPath id="d21f49aa4a"><path d="M 140.722656 78.710938 L 155.03125 132.335938 L 101.40625 146.644531 L 87.101562 93.019531 Z M 140.722656 78.710938 " clip-rule="nonzero"/></clipPath><clipPath id="9ad98d1f66"><path d="M 147.878906 105.523438 C 143.925781 90.714844 128.71875 81.914062 113.910156 85.867188 C 99.105469 89.816406 90.300781 105.023438 94.253906 119.832031 C 98.203125 134.636719 113.410156 143.441406 128.21875 139.488281 C 143.027344 135.539062 151.828125 120.332031 147.878906 105.523438 " clip-rule="nonzero"/></clipPath><clipPath id="b60cbb11fc"><path d="M 60 213 L 117 213 L 117 270 L 60 270 Z M 60 213 " clip-rule="nonzero"/></clipPath><clipPath id="9d08238e11"><path d="M 88.398438 202.171875 L 127.730469 241.5 L 88.398438 280.832031 L 49.070312 241.5 Z M 88.398438 202.171875 " clip-rule="nonzero"/></clipPath><clipPath id="80b54c5550"><path d="M 108.066406 221.835938 C 97.203125 210.976562 79.59375 210.976562 68.734375 221.835938 C 57.871094 232.695312 57.871094 250.304688 68.734375 261.167969 C 79.59375 272.027344 97.203125 272.027344 108.066406 261.167969 C 118.925781 250.304688 118.925781 232.695312 108.066406 221.835938 " clip-rule="nonzero"/></clipPath><clipPath id="76cf8f62fd"><path d="M 60 213 L 117 213 L 117 270 L 60 270 Z M 60 213 " clip-rule="nonzero"/></clipPath><clipPath id="7f1492c5fd"><path d="M 88.398438 202.171875 L 127.644531 241.414062 L 88.398438 280.660156 L 49.15625 241.414062 Z M 88.398438 202.171875 " clip-rule="nonzero"/></clipPath><clipPath id="17884cc089"><path d="M 88.398438 202.171875 L 127.644531 241.414062 L 88.398438 280.660156 L 49.15625 241.414062 Z M 88.398438 202.171875 " clip-rule="nonzero"/></clipPath><clipPath id="6dc1fca575"><path d="M 108.023438 221.792969 C 97.183594 210.957031 79.613281 210.957031 68.777344 221.792969 C 57.941406 232.628906 57.941406 250.199219 68.777344 261.035156 C 79.613281 271.875 97.183594 271.875 108.023438 261.035156 C 118.859375 250.199219 118.859375 232.628906 108.023438 221.792969 " clip-rule="nonzero"/></clipPath><clipPath id="4cca56c8ca"><path d="M 209 201 L 223 201 L 223 216 L 209 216 Z M 209 201 " clip-rule="nonzero"/></clipPath><clipPath id="7315df007f"><path d="M 224.566406 204.011719 L 220.941406 217.492188 L 207.460938 213.871094 L 211.085938 200.386719 Z M 224.566406 204.011719 " clip-rule="nonzero"/></clipPath><clipPath id="68c6eff2ac"><path d="M 222.753906 210.75 C 223.753906 207.027344 221.546875 203.199219 217.824219 202.199219 C 214.101562 201.199219 210.273438 203.40625 209.273438 207.128906 C 208.273438 210.851562 210.480469 214.679688 214.203125 215.679688 C 217.925781 216.679688 221.753906 214.472656 222.753906 210.75 " clip-rule="nonzero"/></clipPath><clipPath id="9152f3841d"><path d="M 114 105 L 129 105 L 129 120 L 114 120 Z M 114 105 " clip-rule="nonzero"/></clipPath><clipPath id="b25dd50bfc"><path d="M 129.566406 117.691406 L 116.078125 121.289062 L 112.480469 107.800781 L 125.964844 104.203125 Z M 129.566406 117.691406 " clip-rule="nonzero"/></clipPath><clipPath id="45981d4db1"><path d="M 122.820312 119.492188 C 126.546875 118.496094 128.757812 114.671875 127.765625 110.949219 C 126.773438 107.222656 122.949219 105.007812 119.222656 106.003906 C 115.5 106.996094 113.285156 110.820312 114.277344 114.546875 C 115.273438 118.269531 119.097656 120.484375 122.820312 119.492188 " clip-rule="nonzero"/></clipPath><clipPath id="f610e90ccc"><path d="M 82 235 L 97 235 L 97 250 L 82 250 Z M 82 235 " clip-rule="nonzero"/></clipPath><clipPath id="543a0d4ef1"><path d="M 97.699219 237.289062 L 94.074219 250.769531 L 80.59375 247.144531 L 84.21875 233.664062 Z M 97.699219 237.289062 " clip-rule="nonzero"/></clipPath><clipPath id="8c96ddadff"><path d="M 95.886719 244.027344 C 96.886719 240.304688 94.679688 236.476562 90.957031 235.476562 C 87.234375 234.476562 83.40625 236.683594 82.40625 240.40625 C 81.40625 244.128906 83.613281 247.957031 87.335938 248.957031 C 91.058594 249.957031 94.886719 247.75 95.886719 244.027344 " clip-rule="nonzero"/></clipPath><clipPath id="ad92e4be98"><path d="M 135 236 L 178 236 L 178 262 L 135 262 Z M 135 236 " clip-rule="nonzero"/></clipPath><clipPath id="50ef30dbcf"><path d="M 132.835938 252.738281 L 177.234375 236.5625 L 181.855469 249.25 L 137.457031 265.421875 Z M 132.835938 252.738281 " clip-rule="nonzero"/></clipPath><clipPath id="f382049cc5"><path d="M 177.410156 236.5 L 133.011719 252.675781 L 137.636719 265.359375 L 182.03125 249.183594 Z M 177.410156 236.5 " clip-rule="nonzero"/></clipPath><clipPath id="b27e2f5476"><path d="M 177.410156 236.5 L 133.011719 252.675781 L 137.636719 265.359375 L 182.03125 249.183594 Z M 177.410156 236.5 " clip-rule="nonzero"/></clipPath><clipPath id="6657ef7ee3"><path d="M 172 244 L 173 244 L 173 245 L 172 245 Z M 172 244 " clip-rule="nonzero"/></clipPath><clipPath id="6f2f140c05"><path d="M 132.835938 252.738281 L 177.234375 236.5625 L 181.855469 249.25 L 137.457031 265.421875 Z M 132.835938 252.738281 " clip-rule="nonzero"/></clipPath><clipPath id="f74c2a72c2"><path d="M 177.410156 236.5 L 133.011719 252.675781 L 137.636719 265.359375 L 182.03125 249.183594 Z M 177.410156 236.5 " clip-rule="nonzero"/></clipPath><clipPath id="1cf4bc77c9"><path d="M 177.410156 236.5 L 133.011719 252.675781 L 137.636719 265.359375 L 182.03125 249.183594 Z M 177.410156 236.5 " clip-rule="nonzero"/></clipPath><clipPath id="da1e5ace0c"><path d="M 69 149 L 86 149 L 86 196 L 69 196 Z M 69 149 " clip-rule="nonzero"/></clipPath><clipPath id="38b1da9de1"><path d="M 89.011719 150.597656 L 76.6875 196.210938 L 63.652344 192.6875 L 75.980469 147.074219 Z M 89.011719 150.597656 " clip-rule="nonzero"/></clipPath><clipPath id="1751e35307"><path d="M 76.636719 196.390625 L 88.964844 150.777344 L 75.933594 147.253906 L 63.605469 192.871094 Z M 76.636719 196.390625 " clip-rule="nonzero"/></clipPath><clipPath id="d0b7eea00d"><path d="M 76.636719 196.390625 L 88.964844 150.777344 L 75.933594 147.253906 L 63.605469 192.871094 Z M 76.636719 196.390625 " clip-rule="nonzero"/></clipPath><clipPath id="28ca4677f9"><path d="M 72 187 L 73 187 L 73 188 L 72 188 Z M 72 187 " clip-rule="nonzero"/></clipPath><clipPath id="51c9f1cc0a"><path d="M 89.011719 150.597656 L 76.6875 196.210938 L 63.652344 192.6875 L 75.980469 147.074219 Z M 89.011719 150.597656 " clip-rule="nonzero"/></clipPath><clipPath id="81c5e64621"><path d="M 76.636719 196.390625 L 88.964844 150.777344 L 75.933594 147.253906 L 63.605469 192.871094 Z M 76.636719 196.390625 " clip-rule="nonzero"/></clipPath><clipPath id="869861a1f8"><path d="M 76.636719 196.390625 L 88.964844 150.777344 L 75.933594 147.253906 L 63.605469 192.871094 Z M 76.636719 196.390625 " clip-rule="nonzero"/></clipPath><clipPath id="7634aab8a0"><path d="M 167 124 L 203 124 L 203 159 L 167 159 Z M 167 124 " clip-rule="nonzero"/></clipPath><clipPath id="a7d882299b"><path d="M 197.597656 162.085938 L 167.144531 125.960938 L 177.46875 117.257812 L 207.917969 153.386719 Z M 197.597656 162.085938 " clip-rule="nonzero"/></clipPath><clipPath id="85c0fd4123"><path d="M 167.023438 125.816406 L 197.476562 161.945312 L 207.796875 153.242188 L 177.347656 117.113281 Z M 167.023438 125.816406 " clip-rule="nonzero"/></clipPath><clipPath id="57f3a89e64"><path d="M 167.023438 125.816406 L 197.476562 161.945312 L 207.796875 153.242188 L 177.347656 117.113281 Z M 167.023438 125.816406 " clip-rule="nonzero"/></clipPath><clipPath id="27254ef93a"><path d="M 176 127 L 177 127 L 177 128 L 176 128 Z M 176 127 " clip-rule="nonzero"/></clipPath><clipPath id="ae098ee310"><path d="M 197.597656 162.085938 L 167.144531 125.960938 L 177.46875 117.257812 L 207.917969 153.386719 Z M 197.597656 162.085938 " clip-rule="nonzero"/></clipPath><clipPath id="0b7047c9e7"><path d="M 167.023438 125.816406 L 197.476562 161.945312 L 207.796875 153.242188 L 177.347656 117.113281 Z M 167.023438 125.816406 " clip-rule="nonzero"/></clipPath><clipPath id="73fb503f69"><path d="M 167.023438 125.816406 L 197.476562 161.945312 L 207.796875 153.242188 L 177.347656 117.113281 Z M 167.023438 125.816406 " clip-rule="nonzero"/></clipPath><clipPath id="dd8790f722"><path d="M 266.625 297.128906 L 283 297.128906 L 283 318.128906 L 266.625 318.128906 Z M 266.625 297.128906 " clip-rule="nonzero"/></clipPath><clipPath id="926779b78b"><path d="M 278 297.128906 L 294.785156 297.128906 L 294.785156 318.128906 L 278 318.128906 Z M 278 297.128906 " clip-rule="nonzero"/></clipPath><clipPath id="6c43f3bc90"><path d="M 229.5 297.128906 L 246 297.128906 L 246 318.128906 L 229.5 318.128906 Z M 229.5 297.128906 " clip-rule="nonzero"/></clipPath><clipPath id="79cc425703"><path d="M 241 297.128906 L 257.660156 297.128906 L 257.660156 318.128906 L 241 318.128906 Z M 241 297.128906 " clip-rule="nonzero"/></clipPath><clipPath id="c35330f210"><path d="M 192.375 297.128906 L 209 297.128906 L 209 318.128906 L 192.375 318.128906 Z M 192.375 297.128906 " clip-rule="nonzero"/></clipPath><clipPath id="3052e96de7"><path d="M 204 297.128906 L 220.535156 297.128906 L 220.535156 318.128906 L 204 318.128906 Z M 204 297.128906 " clip-rule="nonzero"/></clipPath><clipPath id="4cb2b0d174"><path d="M 155.25 297.128906 L 172 297.128906 L 172 318.128906 L 155.25 318.128906 Z M 155.25 297.128906 " clip-rule="nonzero"/></clipPath><clipPath id="b0ac6518bf"><path d="M 167 297.128906 L 183.410156 297.128906 L 183.410156 318.128906 L 167 318.128906 Z M 167 297.128906 " clip-rule="nonzero"/></clipPath><clipPath id="edaf61f649"><path d="M 117 297 L 135 297 L 135 319 L 117 319 Z M 117 297 " clip-rule="nonzero"/></clipPath><clipPath id="6e620487e7"><path d="M 117.945312 297.378906 L 146.441406 296.875 L 146.8125 317.871094 L 118.316406 318.375 Z M 117.945312 297.378906 " clip-rule="nonzero"/></clipPath><clipPath id="624a77a105"><path d="M 146.101562 296.878906 L 117.605469 297.382812 L 117.976562 318.378906 L 146.472656 317.875 Z M 146.101562 296.878906 " clip-rule="nonzero"/></clipPath><clipPath id="0f3a552a5a"><path d="M 130 296 L 147 296 L 147 318 L 130 318 Z M 130 296 " clip-rule="nonzero"/></clipPath><clipPath id="8537c78a4c"><path d="M 117.945312 297.378906 L 146.441406 296.875 L 146.8125 317.871094 L 118.316406 318.375 Z M 117.945312 297.378906 " clip-rule="nonzero"/></clipPath><clipPath id="b1bea66827"><path d="M 146.101562 296.878906 L 117.605469 297.382812 L 117.976562 318.378906 L 146.472656 317.875 Z M 146.101562 296.878906 " clip-rule="nonzero"/></clipPath><clipPath id="ee37c35f29"><path d="M 75 282 L 95 282 L 95 304 L 75 304 Z M 75 282 " clip-rule="nonzero"/></clipPath><clipPath id="e2b8380d8a"><path d="M 81.105469 277.734375 L 105.09375 293.121094 L 93.757812 310.796875 L 69.765625 295.410156 Z M 81.105469 277.734375 " clip-rule="nonzero"/></clipPath><clipPath id="6607aa1e44"><path d="M 104.808594 292.9375 L 80.816406 277.550781 L 69.480469 295.226562 L 93.46875 310.613281 Z M 104.808594 292.9375 " clip-rule="nonzero"/></clipPath><clipPath id="4f77acd801"><path d="M 85 289 L 105 289 L 105 311 L 85 311 Z M 85 289 " clip-rule="nonzero"/></clipPath><clipPath id="cac5b0f130"><path d="M 81.105469 277.734375 L 105.09375 293.121094 L 93.757812 310.796875 L 69.765625 295.410156 Z M 81.105469 277.734375 " clip-rule="nonzero"/></clipPath><clipPath id="8294eebf12"><path d="M 104.808594 292.9375 L 80.816406 277.550781 L 69.480469 295.226562 L 93.46875 310.613281 Z M 104.808594 292.9375 " clip-rule="nonzero"/></clipPath><clipPath id="c934c9c993"><path d="M 39 261 L 60 261 L 60 282 L 39 282 Z M 39 261 " clip-rule="nonzero"/></clipPath><clipPath id="679b4711df"><path d="M 48.058594 255.742188 L 68.585938 275.511719 L 54.019531 290.636719 L 33.492188 270.867188 Z M 48.058594 255.742188 " clip-rule="nonzero"/></clipPath><clipPath id="b7508b7efd"><path d="M 68.339844 275.277344 L 47.8125 255.503906 L 33.246094 270.632812 L 53.773438 290.402344 Z M 68.339844 275.277344 " clip-rule="nonzero"/></clipPath><clipPath id="3991892589"><path d="M 48 270 L 68 270 L 68 290 L 48 290 Z M 48 270 " clip-rule="nonzero"/></clipPath><clipPath id="f207584a30"><path d="M 48.058594 255.742188 L 68.585938 275.511719 L 54.019531 290.636719 L 33.492188 270.867188 Z M 48.058594 255.742188 " clip-rule="nonzero"/></clipPath><clipPath id="69e2167550"><path d="M 68.339844 275.277344 L 47.8125 255.503906 L 33.246094 270.632812 L 53.773438 290.402344 Z M 68.339844 275.277344 " clip-rule="nonzero"/></clipPath><clipPath id="1f93c31baf"><path d="M 17 226 L 39 226 L 39 245 L 17 245 Z M 17 226 " clip-rule="nonzero"/></clipPath><clipPath id="2f75fbb1a0"><path d="M 31.21875 221.023438 L 45.539062 245.664062 L 27.386719 256.21875 L 13.0625 231.578125 Z M 31.21875 221.023438 " clip-rule="nonzero"/></clipPath><clipPath id="765c944e3a"><path d="M 45.371094 245.371094 L 31.046875 220.730469 L 12.890625 231.285156 L 27.214844 255.925781 Z M 45.371094 245.371094 " clip-rule="nonzero"/></clipPath><clipPath id="3f4157d129"><path d="M 23 236 L 45 236 L 45 256 L 23 256 Z M 23 236 " clip-rule="nonzero"/></clipPath><clipPath id="338fedbed7"><path d="M 31.21875 221.023438 L 45.539062 245.664062 L 27.386719 256.21875 L 13.0625 231.578125 Z M 31.21875 221.023438 " clip-rule="nonzero"/></clipPath><clipPath id="154ef09f64"><path d="M 45.371094 245.371094 L 31.046875 220.730469 L 12.890625 231.285156 L 27.214844 255.925781 Z M 45.371094 245.371094 " clip-rule="nonzero"/></clipPath><clipPath id="741d4aefff"><path d="M 8.878906 171.9375 L 29.878906 171.9375 L 29.878906 188 L 8.878906 188 Z M 8.878906 171.9375 " clip-rule="nonzero"/></clipPath><clipPath id="fec829e34e"><path d="M 8.878906 184 L 29.878906 184 L 29.878906 200.097656 L 8.878906 200.097656 Z M 8.878906 184 " clip-rule="nonzero"/></clipPath><clipPath id="1550e2de18"><path d="M 20 121 L 42 121 L 42 141 L 20 141 Z M 20 121 " clip-rule="nonzero"/></clipPath><clipPath id="a6b2723735"><path d="M 46.378906 127.648438 L 30.144531 151.074219 L 12.882812 139.109375 L 29.117188 115.6875 Z M 46.378906 127.648438 " clip-rule="nonzero"/></clipPath><clipPath id="e50fcd9313"><path d="M 30.339844 150.792969 L 46.574219 127.367188 L 29.3125 115.40625 L 13.078125 138.832031 Z M 30.339844 150.792969 " clip-rule="nonzero"/></clipPath><clipPath id="aae857d201"><path d="M 13 131 L 35 131 L 35 151 L 13 151 Z M 13 131 " clip-rule="nonzero"/></clipPath><clipPath id="6addd9ebe0"><path d="M 46.378906 127.648438 L 30.144531 151.074219 L 12.882812 139.109375 L 29.117188 115.6875 Z M 46.378906 127.648438 " clip-rule="nonzero"/></clipPath><clipPath id="b6e682a136"><path d="M 30.339844 150.792969 L 46.574219 127.367188 L 29.3125 115.40625 L 13.078125 138.832031 Z M 30.339844 150.792969 " clip-rule="nonzero"/></clipPath><clipPath id="4812d599e2"><path d="M 47 87 L 66 87 L 66 108 L 47 108 Z M 47 87 " clip-rule="nonzero"/></clipPath><clipPath id="bc2ea595e7"><path d="M 72.519531 97.335938 L 51.425781 116.5 L 37.304688 100.957031 L 58.398438 81.792969 Z M 72.519531 97.335938 " clip-rule="nonzero"/></clipPath><clipPath id="cc29dfb7c6"><path d="M 51.675781 116.269531 L 72.769531 97.105469 L 58.648438 81.5625 L 37.554688 100.726562 Z M 51.675781 116.269531 " clip-rule="nonzero"/></clipPath><clipPath id="95bec2a1ff"><path d="M 37 96 L 57 96 L 57 116 L 37 116 Z M 37 96 " clip-rule="nonzero"/></clipPath><clipPath id="0c72570d30"><path d="M 72.519531 97.335938 L 51.425781 116.5 L 37.304688 100.957031 L 58.398438 81.792969 Z M 72.519531 97.335938 " clip-rule="nonzero"/></clipPath><clipPath id="50ca4ff241"><path d="M 51.675781 116.269531 L 72.769531 97.105469 L 58.648438 81.5625 L 37.554688 100.726562 Z M 51.675781 116.269531 " clip-rule="nonzero"/></clipPath><clipPath id="11faee3db0"><path d="M 81 66 L 101 66 L 101 88 L 81 88 Z M 81 66 " clip-rule="nonzero"/></clipPath><clipPath id="069de4c3f4"><path d="M 104.921875 81.058594 L 79.34375 93.632812 L 70.078125 74.785156 L 95.65625 62.214844 Z M 104.921875 81.058594 " clip-rule="nonzero"/></clipPath><clipPath id="9241cc7988"><path d="M 79.648438 93.480469 L 105.226562 80.910156 L 95.960938 62.0625 L 70.382812 74.636719 Z M 79.648438 93.480469 " clip-rule="nonzero"/></clipPath><clipPath id="7818161733"><path d="M 70 71 L 90 71 L 90 94 L 70 94 Z M 70 71 " clip-rule="nonzero"/></clipPath><clipPath id="ddecf42dc1"><path d="M 104.921875 81.058594 L 79.34375 93.632812 L 70.078125 74.785156 L 95.65625 62.214844 Z M 104.921875 81.058594 " clip-rule="nonzero"/></clipPath><clipPath id="0e9fe8ec96"><path d="M 79.648438 93.480469 L 105.226562 80.910156 L 95.960938 62.0625 L 70.382812 74.636719 Z M 79.648438 93.480469 " clip-rule="nonzero"/></clipPath><clipPath id="bce2790bf5"><path d="M 130 57.015625 L 146.285156 57.015625 L 146.285156 78 L 130 78 Z M 130 57.015625 " clip-rule="nonzero"/></clipPath><clipPath id="dad5ce0074"><path d="M 118.125 57.015625 L 135 57.015625 L 135 78 L 118.125 78 Z M 118.125 57.015625 " clip-rule="nonzero"/></clipPath><clipPath id="94e931d66d"><path d="M 166 56 L 183 56 L 183 78 L 166 78 Z M 166 56 " clip-rule="nonzero"/></clipPath><clipPath id="422af02691"><path d="M 182.511719 78.015625 L 154.023438 77.15625 L 154.65625 56.164062 L 183.144531 57.023438 Z M 182.511719 78.015625 " clip-rule="nonzero"/></clipPath><clipPath id="d3ea5e919b"><path d="M 154.363281 77.164062 L 182.851562 78.023438 L 183.484375 57.035156 L 154.996094 56.175781 Z M 154.363281 77.164062 " clip-rule="nonzero"/></clipPath><clipPath id="ec982bfbc5"><path d="M 154 56 L 171 56 L 171 78 L 154 78 Z M 154 56 " clip-rule="nonzero"/></clipPath><clipPath id="56d44baf6b"><path d="M 182.511719 78.015625 L 154.023438 77.15625 L 154.65625 56.164062 L 183.144531 57.023438 Z M 182.511719 78.015625 " clip-rule="nonzero"/></clipPath><clipPath id="92e38965df"><path d="M 154.363281 77.164062 L 182.851562 78.023438 L 183.484375 57.035156 L 154.996094 56.175781 Z M 154.363281 77.164062 " clip-rule="nonzero"/></clipPath><clipPath id="f12184c0cb"><path d="M 278 56 L 295 56 L 295 78 L 278 78 Z M 278 56 " clip-rule="nonzero"/></clipPath><clipPath id="e304da182e"><path d="M 294.164062 78.015625 L 265.675781 77.15625 L 266.308594 56.164062 L 294.796875 57.023438 Z M 294.164062 78.015625 " clip-rule="nonzero"/></clipPath><clipPath id="1c0c3ec6c0"><path d="M 266.015625 77.164062 L 294.503906 78.023438 L 295.136719 57.035156 L 266.648438 56.175781 Z M 266.015625 77.164062 " clip-rule="nonzero"/></clipPath><clipPath id="7c8da405fe"><path d="M 266 56 L 283 56 L 283 78 L 266 78 Z M 266 56 " clip-rule="nonzero"/></clipPath><clipPath id="47bcdbe34c"><path d="M 294.164062 78.015625 L 265.675781 77.15625 L 266.308594 56.164062 L 294.796875 57.023438 Z M 294.164062 78.015625 " clip-rule="nonzero"/></clipPath><clipPath id="2e2462b246"><path d="M 266.015625 77.164062 L 294.503906 78.023438 L 295.136719 57.035156 L 266.648438 56.175781 Z M 266.015625 77.164062 " clip-rule="nonzero"/></clipPath><clipPath id="0d03871763"><path d="M 241 56 L 258 56 L 258 78 L 241 78 Z M 241 56 " clip-rule="nonzero"/></clipPath><clipPath id="38b973e5a8"><path d="M 257.039062 78.015625 L 228.550781 77.15625 L 229.183594 56.164062 L 257.671875 57.023438 Z M 257.039062 78.015625 " clip-rule="nonzero"/></clipPath><clipPath id="3257fd84b0"><path d="M 228.890625 77.164062 L 257.378906 78.023438 L 258.011719 57.035156 L 229.523438 56.175781 Z M 228.890625 77.164062 " clip-rule="nonzero"/></clipPath><clipPath id="8fe9f7e21f"><path d="M 228 56 L 246 56 L 246 78 L 228 78 Z M 228 56 " clip-rule="nonzero"/></clipPath><clipPath id="8772981452"><path d="M 257.039062 78.015625 L 228.550781 77.15625 L 229.183594 56.164062 L 257.671875 57.023438 Z M 257.039062 78.015625 " clip-rule="nonzero"/></clipPath><clipPath id="a13558fdb3"><path d="M 228.890625 77.164062 L 257.378906 78.023438 L 258.011719 57.035156 L 229.523438 56.175781 Z M 228.890625 77.164062 " clip-rule="nonzero"/></clipPath><clipPath id="71fa717019"><path d="M 204 56 L 221 56 L 221 78 L 204 78 Z M 204 56 " clip-rule="nonzero"/></clipPath><clipPath id="00f548d1b1"><path d="M 220.523438 78.015625 L 192.035156 77.15625 L 192.667969 56.164062 L 221.15625 57.023438 Z M 220.523438 78.015625 " clip-rule="nonzero"/></clipPath><clipPath id="7fa5179b59"><path d="M 192.375 77.164062 L 220.863281 78.023438 L 221.496094 57.035156 L 193.007812 56.175781 Z M 192.375 77.164062 " clip-rule="nonzero"/></clipPath><clipPath id="1e57f8a3fb"><path d="M 192 56 L 209 56 L 209 78 L 192 78 Z M 192 56 " clip-rule="nonzero"/></clipPath><clipPath id="03712c5194"><path d="M 220.523438 78.015625 L 192.035156 77.15625 L 192.667969 56.164062 L 221.15625 57.023438 Z M 220.523438 78.015625 " clip-rule="nonzero"/></clipPath><clipPath id="029606b546"><path d="M 192.375 77.164062 L 220.863281 78.023438 L 221.496094 57.035156 L 193.007812 56.175781 Z M 192.375 77.164062 " clip-rule="nonzero"/></clipPath></defs><g clip-path="url(#d62a41730d)"><g clip-path="url(#36f83c46b8)"><path fill="#919191" d="M 303.75 52.777344 L 303.75 323.039062 L -0.132812 323.039062 L -0.132812 52.777344 Z M 303.75 52.777344 " fill-opacity="1" fill-rule="nonzero"/></g></g><g clip-path="url(#2d85680c58)"><g clip-path="url(#1458c07e90)"><path stroke-linecap="butt" transform="matrix(0.000000000000000046, 0.75, -0.75, 0.000000000000000046, 303.749959, 52.777354)" fill="none" stroke-linejoin="miter" d="M 120.062492 394.442673 C 138.520826 400.817674 159.505202 404.999965 180.098953 404.999965 C 200.692704 404.999965 220.505205 401.416632 238.770831 395.041632 C 239.156248 394.838507 239.546873 394.838507 239.937498 394.64059 C 308.515627 369.145797 359.031254 301.81246 360.000004 224.124956 L 360.000004 -0.0000552182 L -0.0000142096 -0.0000552182 L -0.0000142096 223.95829 C 0.973944 302.208294 50.708322 369.54163 120.062492 394.442673 " stroke="#000000" stroke-width="4" stroke-opacity="1" stroke-miterlimit="4"/></g></g><g clip-path="url(#e0456c20b4)"><g clip-path="url(#9ff5e5a385)"><g clip-path="url(#dc7ff8d155)"><path fill="#707070" d="M 141.75 338.753906 L -10.796875 186.207031 L 141.75 33.65625 L 294.296875 186.207031 Z M 141.75 338.753906 " fill-opacity="1" fill-rule="nonzero"/></g></g></g><g clip-path="url(#4e1618063f)"><g clip-path="url(#ba0c516e89)"><g clip-path="url(#9d044d46d3)"><g clip-path="url(#6cb7aed7d6)"><path stroke-linecap="butt" transform="matrix(-0.53033, -0.53033, 0.53033, -0.53033, 141.74998, 338.753373)" fill="none" stroke-linejoin="miter" d="M 143.998843 -0.000483159 C 64.471419 -0.000483159 -0.000521409 64.471457 -0.000521409 143.998881 C -0.000521409 223.526305 64.471419 287.998246 143.998843 287.998246 C 223.52995 288.001929 288.00189 223.529988 287.998207 143.998881 C 287.998207 64.471457 223.526267 -0.000483159 143.998843 -0.000483159 " stroke="#000000" stroke-width="8" stroke-opacity="1" stroke-miterlimit="4"/></g></g></g></g><g clip-path="url(#07482a5019)"><g clip-path="url(#a74f021921)"><g clip-path="url(#ce27f497d0)"><path fill="#ffde59" d="M 101.929688 240.875 L 89.425781 228.46875 L 111.914062 205.804688 L 124.417969 218.210938 Z M 101.929688 240.875 " fill-opacity="1" fill-rule="nonzero"/></g></g></g><g clip-path="url(#be7ca08990)"><g clip-path="url(#f897cada53)"><g clip-path="url(#bdb660b2fb)"><path fill="#ffde59" d="M 141.34375 154.832031 L 124.296875 159.269531 L 116.253906 128.375 L 133.300781 123.9375 Z M 141.34375 154.832031 " fill-opacity="1" fill-rule="nonzero"/></g></g></g><g clip-path="url(#e503d496bd)"><g clip-path="url(#b47cc0ad53)"><g clip-path="url(#232bdbec14)"><path fill="#ffde59" d="M 199.511719 160.738281 L 177.59375 242.296875 L 106.863281 223.292969 L 128.777344 141.734375 Z M 199.511719 160.738281 " fill-opacity="1" fill-rule="nonzero"/></g></g></g><g clip-path="url(#614ab3b762)"><g clip-path="url(#a755225c76)"><g clip-path="url(#969105cf48)"><path fill="#ffde59" d="M 198.472656 195.027344 L 193.902344 212.039062 L 163.070312 203.753906 L 167.640625 186.746094 Z M 198.472656 195.027344 " fill-opacity="1" fill-rule="nonzero"/></g></g></g><g clip-path="url(#f0c2762b04)"><g clip-path="url(#b10140f62f)"><g clip-path="url(#dc68c7d0c5)"><path fill="#ffde59" d="M 197.164062 174.425781 L 250.535156 190.09375 L 234.867188 243.464844 L 181.5 227.796875 Z M 197.164062 174.425781 " fill-opacity="1" fill-rule="nonzero"/></g></g></g><g clip-path="url(#76c128cd42)"><g clip-path="url(#cee79397cb)"><g clip-path="url(#6f692e0d8b)"><g clip-path="url(#c4e138b1fd)"><path fill="#000000" d="M 222.949219 185.113281 C 217.621094 183.550781 212.367188 183.753906 207.191406 185.722656 L 205.0625 180.125 C 211.492188 177.679688 218.015625 177.425781 224.636719 179.371094 Z M 204.746094 186.804688 C 199.796875 189.328125 196.113281 193.070312 193.707031 198.042969 L 188.320312 195.429688 C 191.3125 189.253906 195.882812 184.601562 202.03125 181.46875 Z M 192.675781 200.503906 C 192.511719 200.960938 192.359375 201.425781 192.222656 201.894531 C 190.804688 206.71875 190.851562 211.515625 192.355469 216.289062 L 186.644531 218.089844 C 184.773438 212.15625 184.71875 206.199219 186.476562 200.210938 C 186.648438 199.628906 186.835938 199.054688 187.039062 198.484375 Z M 193.296875 218.792969 C 195.527344 223.886719 199.054688 227.78125 203.878906 230.476562 L 200.957031 235.703125 C 194.964844 232.355469 190.582031 227.519531 187.8125 221.199219 Z M 206.261719 231.644531 C 207.152344 232.019531 208.066406 232.347656 209.003906 232.621094 C 213.328125 233.894531 217.667969 233.980469 222.011719 232.882812 L 223.480469 238.6875 C 218.078125 240.050781 212.6875 239.945312 207.316406 238.367188 C 206.15625 238.027344 205.027344 237.621094 203.921875 237.152344 Z M 224.5625 232.089844 C 229.773438 230.15625 233.863281 226.863281 236.835938 222.210938 L 241.882812 225.433594 C 238.191406 231.214844 233.109375 235.304688 226.644531 237.703125 Z M 238.152344 219.882812 C 238.792969 218.585938 239.320312 217.242188 239.730469 215.84375 C 240.855469 212.003906 241.046875 208.136719 240.300781 204.238281 L 246.179688 203.113281 C 247.109375 207.960938 246.871094 212.765625 245.472656 217.527344 C 244.964844 219.261719 244.3125 220.929688 243.519531 222.535156 Z M 239.660156 201.648438 C 238.035156 196.335938 234.980469 192.058594 230.503906 188.816406 L 234.019531 183.96875 C 239.578125 187.996094 243.367188 193.304688 245.382812 199.894531 Z M 228.257812 187.367188 C 226.585938 186.414062 224.816406 185.664062 222.949219 185.113281 L 224.636719 179.371094 C 226.949219 180.050781 229.144531 180.980469 231.222656 182.164062 Z M 228.257812 187.367188 " fill-opacity="1" fill-rule="nonzero"/></g></g></g></g><g clip-path="url(#919352b725)"><g clip-path="url(#831f29749d)"><g clip-path="url(#8c87ed40d5)"><path fill="#ffde59" d="M 140.722656 78.710938 L 155.0625 132.453125 L 101.320312 146.792969 L 86.980469 93.050781 Z M 140.722656 78.710938 " fill-opacity="1" fill-rule="nonzero"/></g></g></g><g clip-path="url(#bd2663d7b4)"><g clip-path="url(#25e3474735)"><g clip-path="url(#d21f49aa4a)"><g clip-path="url(#9ad98d1f66)"><path fill="#000000" d="M 144.984375 106.296875 C 143.554688 100.929688 140.652344 96.546875 136.28125 93.148438 L 139.957031 88.421875 C 145.386719 92.644531 148.992188 98.089844 150.769531 104.753906 Z M 134.085938 91.621094 C 129.359375 88.699219 124.246094 87.5 118.75 88.027344 L 118.179688 82.066406 C 125.011719 81.414062 131.363281 82.902344 137.234375 86.527344 Z M 116.109375 88.421875 C 115.632812 88.519531 115.15625 88.632812 114.683594 88.757812 C 109.828125 90.054688 105.75 92.582031 102.453125 96.347656 L 97.949219 92.402344 C 102.046875 87.726562 107.109375 84.582031 113.140625 82.972656 C 113.726562 82.816406 114.3125 82.679688 114.90625 82.554688 Z M 100.800781 98.453125 C 97.609375 103.007812 96.113281 108.042969 96.320312 113.5625 L 90.335938 113.785156 C 90.082031 106.921875 91.9375 100.667969 95.898438 95.015625 Z M 96.558594 116.207031 C 96.699219 117.167969 96.894531 118.117188 97.144531 119.058594 C 98.308594 123.417969 100.488281 127.167969 103.683594 130.3125 L 99.484375 134.578125 C 95.511719 130.671875 92.804688 126.011719 91.359375 120.601562 C 91.050781 119.4375 90.808594 118.257812 90.632812 117.070312 Z M 105.683594 132.078125 C 110.042969 135.527344 114.980469 137.3125 120.503906 137.433594 L 120.371094 143.421875 C 113.507812 143.269531 107.375 141.050781 101.96875 136.773438 Z M 123.175781 137.347656 C 124.613281 137.222656 126.039062 136.972656 127.445312 136.597656 C 131.3125 135.566406 134.714844 133.71875 137.660156 131.058594 L 141.675781 135.496094 C 138.015625 138.808594 133.785156 141.101562 128.988281 142.382812 C 127.246094 142.847656 125.480469 143.160156 123.695312 143.3125 Z M 139.539062 129.164062 C 143.230469 125.015625 145.300781 120.1875 145.746094 114.675781 L 151.714844 115.160156 C 151.160156 122.003906 148.59375 128 144.007812 133.144531 Z M 145.816406 112.003906 C 145.765625 110.078125 145.484375 108.175781 144.984375 106.296875 L 150.769531 104.753906 C 151.390625 107.082031 151.734375 109.445312 151.804688 111.832031 Z M 145.816406 112.003906 " fill-opacity="1" fill-rule="nonzero"/></g></g></g></g><g clip-path="url(#b60cbb11fc)"><g clip-path="url(#9d08238e11)"><g clip-path="url(#80b54c5550)"><path fill="#ffde59" d="M 88.398438 202.171875 L 127.730469 241.5 L 88.398438 280.832031 L 49.070312 241.5 Z M 88.398438 202.171875 " fill-opacity="1" fill-rule="nonzero"/></g></g></g><g clip-path="url(#76cf8f62fd)"><g clip-path="url(#7f1492c5fd)"><g clip-path="url(#17884cc089)"><g clip-path="url(#6dc1fca575)"><path fill="#000000" d="M 105.90625 223.910156 C 101.976562 219.980469 97.269531 217.640625 91.785156 216.890625 L 92.597656 210.957031 C 99.414062 211.894531 105.261719 214.796875 110.136719 219.675781 Z M 89.121094 216.667969 C 83.566406 216.507812 78.539062 218.03125 74.042969 221.238281 L 70.566406 216.367188 C 76.15625 212.378906 82.398438 210.484375 89.292969 210.683594 Z M 71.960938 222.902344 C 71.59375 223.226562 71.238281 223.5625 70.894531 223.910156 C 67.339844 227.464844 65.078125 231.695312 64.113281 236.605469 L 58.238281 235.449219 C 59.4375 229.347656 62.246094 224.089844 66.660156 219.675781 C 67.089844 219.246094 67.527344 218.832031 67.980469 218.429688 Z M 63.738281 239.253906 C 63.253906 244.792969 64.484375 249.902344 67.425781 254.578125 L 62.359375 257.765625 C 58.703125 251.957031 57.171875 245.613281 57.773438 238.734375 Z M 68.957031 256.746094 C 69.558594 257.507812 70.203125 258.230469 70.894531 258.921875 C 74.082031 262.109375 77.847656 264.265625 82.1875 265.382812 L 80.691406 271.179688 C 75.296875 269.789062 70.621094 267.113281 66.660156 263.152344 C 65.804688 262.300781 65.007812 261.402344 64.261719 260.460938 Z M 84.804688 265.910156 C 90.304688 266.710938 95.472656 265.78125 100.316406 263.125 L 103.199219 268.371094 C 97.183594 271.675781 90.765625 272.832031 83.941406 271.835938 Z M 102.585938 261.710938 C 103.765625 260.878906 104.875 259.949219 105.90625 258.921875 C 108.734375 256.089844 110.753906 252.789062 111.96875 249.007812 L 117.667969 250.839844 C 116.160156 255.539062 113.648438 259.644531 110.136719 263.152344 C 108.863281 264.429688 107.488281 265.582031 106.019531 266.613281 Z M 112.644531 246.429688 C 113.765625 240.988281 113.136719 235.773438 110.761719 230.78125 L 116.171875 228.207031 C 119.117188 234.410156 119.898438 240.886719 118.511719 247.636719 Z M 109.484375 228.429688 C 108.472656 226.792969 107.28125 225.285156 105.90625 223.910156 L 110.136719 219.675781 C 111.84375 221.382812 113.324219 223.25 114.578125 225.285156 Z M 109.484375 228.429688 " fill-opacity="1" fill-rule="nonzero"/></g></g></g></g><g clip-path="url(#4cca56c8ca)"><g clip-path="url(#7315df007f)"><g clip-path="url(#68c6eff2ac)"><path fill="#707070" d="M 224.566406 204.011719 L 220.941406 217.492188 L 207.460938 213.871094 L 211.085938 200.386719 Z M 224.566406 204.011719 " fill-opacity="1" fill-rule="nonzero"/></g></g></g><g clip-path="url(#9152f3841d)"><g clip-path="url(#b25dd50bfc)"><g clip-path="url(#45981d4db1)"><path fill="#707070" d="M 129.566406 117.691406 L 116.078125 121.289062 L 112.480469 107.800781 L 125.964844 104.203125 Z M 129.566406 117.691406 " fill-opacity="1" fill-rule="nonzero"/></g></g></g><g clip-path="url(#f610e90ccc)"><g clip-path="url(#543a0d4ef1)"><g clip-path="url(#8c96ddadff)"><path fill="#707070" d="M 97.699219 237.289062 L 94.074219 250.769531 L 80.59375 247.144531 L 84.21875 233.664062 Z M 97.699219 237.289062 " fill-opacity="1" fill-rule="nonzero"/></g></g></g><g clip-path="url(#ad92e4be98)"><g clip-path="url(#50ef30dbcf)"><g clip-path="url(#f382049cc5)"><g clip-path="url(#b27e2f5476)"><path fill="#ffffff" d="M 176.828125 237.128906 C 176.863281 237.152344 176.878906 237.1875 176.878906 237.226562 C 177.003906 237.300781 177.179688 237.144531 177.28125 237.320312 C 177.691406 237.515625 177.6875 237.863281 177.621094 238.230469 C 177.433594 239.265625 177.082031 240.246094 176.667969 241.203125 C 175.191406 244.632812 173.066406 247.585938 170.402344 250.1875 C 165.746094 254.726562 160.125 257.167969 153.785156 258.089844 C 150.84375 258.515625 147.882812 258.417969 144.925781 258.179688 C 143.1875 258.039062 141.460938 257.792969 139.726562 257.589844 C 139.667969 257.554688 139.613281 257.519531 139.550781 257.484375 C 139.480469 257.507812 139.390625 257.511719 139.339844 257.558594 C 139.339844 257.558594 139.339844 257.558594 139.339844 257.5625 C 139.300781 257.601562 139.355469 257.65625 139.417969 257.664062 C 139.914062 258.140625 140.492188 258.5 141.089844 258.824219 C 141.5 259.050781 141.878906 259.296875 142.183594 259.65625 C 143.066406 260.132812 143.363281 260.878906 143.042969 261.734375 C 141.050781 261.691406 139.480469 260.679688 137.960938 259.519531 C 137.398438 259.089844 136.808594 258.699219 136.222656 258.296875 C 134.820312 257.339844 135.074219 257.398438 135.152344 256.015625 C 135.171875 255.707031 135.261719 255.40625 135.378906 255.121094 C 135.421875 255.015625 135.472656 254.921875 135.585938 254.878906 C 135.625 254.527344 135.898438 254.421875 136.171875 254.335938 C 136.984375 254.074219 137.796875 253.824219 138.609375 253.566406 C 138.742188 253.414062 138.925781 253.378906 139.113281 253.351562 C 139.242188 253.191406 139.429688 253.160156 139.613281 253.121094 C 139.683594 252.992188 139.828125 252.976562 139.941406 252.917969 C 141.484375 252.09375 142.910156 251.105469 144.160156 249.875 C 144.257812 249.785156 144.359375 249.699219 144.457031 249.613281 C 144.570312 249.503906 144.703125 249.382812 144.859375 249.472656 C 144.976562 249.542969 145.015625 249.730469 144.976562 249.835938 C 144.789062 250.316406 144.921875 250.832031 144.78125 251.3125 C 144.71875 251.523438 144.578125 251.691406 144.429688 251.863281 C 143.289062 253.171875 141.949219 254.238281 140.496094 255.171875 C 140.367188 255.253906 140.222656 255.320312 140.113281 255.425781 C 139.988281 255.550781 140.078125 255.664062 140.195312 255.753906 C 140.351562 255.671875 140.492188 255.695312 140.621094 255.8125 C 140.777344 255.769531 140.933594 255.738281 141.070312 255.871094 C 141.101562 255.839844 141.128906 255.84375 141.15625 255.878906 C 141.304688 255.832031 141.449219 255.8125 141.582031 255.929688 C 141.691406 255.917969 141.796875 255.894531 141.90625 255.90625 C 143.085938 256.007812 144.265625 256.125 145.449219 256.214844 C 146.519531 256.292969 147.59375 256.339844 148.667969 256.398438 C 148.953125 256.378906 149.238281 256.347656 149.519531 256.339844 C 152.28125 256.253906 154.992188 255.828125 157.625 254.996094 C 158.566406 254.699219 159.5 254.371094 160.433594 254.058594 C 160.574219 253.894531 160.769531 253.867188 160.964844 253.839844 C 161.09375 253.679688 161.277344 253.652344 161.464844 253.621094 C 161.578125 253.460938 161.757812 253.445312 161.925781 253.402344 C 161.992188 253.289062 162.097656 253.253906 162.21875 253.253906 C 162.242188 253.214844 162.28125 253.199219 162.328125 253.210938 C 162.398438 253.085938 162.539062 253.070312 162.652344 253.003906 C 163.199219 252.691406 163.800781 252.476562 164.3125 252.09375 C 164.378906 252.125 164.558594 252.085938 164.382812 252.25 C 164.265625 252.359375 164.273438 252.40625 164.324219 252.425781 C 164.367188 252.445312 164.445312 252.445312 164.503906 252.453125 C 166.199219 251.402344 167.753906 250.160156 169.222656 248.8125 C 169.347656 248.675781 169.472656 248.535156 169.597656 248.398438 C 170.34375 247.574219 171.09375 246.75 171.839844 245.929688 C 171.84375 245.882812 171.859375 245.847656 171.886719 245.820312 C 171.90625 245.800781 171.929688 245.789062 171.957031 245.777344 C 171.960938 245.703125 172.003906 245.652344 172.070312 245.628906 C 172.074219 245.554688 172.117188 245.503906 172.1875 245.484375 C 172.1875 245.40625 172.230469 245.355469 172.300781 245.332031 C 172.304688 245.253906 172.339844 245.203125 172.414062 245.183594 C 172.414062 245.105469 172.453125 245.054688 172.527344 245.035156 L 172.527344 245.03125 C 172.527344 244.953125 172.5625 244.902344 172.636719 244.882812 L 172.636719 244.878906 C 172.667969 244.828125 172.707031 244.777344 172.742188 244.730469 L 172.746094 244.726562 C 172.746094 244.648438 172.78125 244.597656 172.851562 244.574219 L 172.855469 244.570312 C 172.855469 244.492188 172.886719 244.445312 172.960938 244.421875 L 172.964844 244.414062 C 172.964844 244.414062 172.96875 244.414062 172.96875 244.414062 C 172.96875 244.414062 172.964844 244.414062 172.964844 244.414062 C 172.960938 244.339844 172.996094 244.289062 173.070312 244.265625 L 173.074219 244.261719 C 173.070312 244.183594 173.105469 244.132812 173.179688 244.109375 C 173.175781 244.03125 173.210938 243.976562 173.285156 243.953125 C 173.578125 243.457031 173.875 242.957031 174.167969 242.460938 C 174.402344 242.25 174.511719 241.957031 174.652344 241.691406 C 174.632812 241.660156 174.609375 241.640625 174.582031 241.621094 C 174.539062 241.59375 174.496094 241.582031 174.441406 241.585938 C 174.527344 241.371094 174.597656 241.152344 174.773438 240.992188 C 174.832031 240.945312 174.882812 240.898438 174.910156 240.824219 C 174.867188 240.878906 174.820312 240.9375 174.773438 240.992188 C 174.789062 240.917969 174.808594 240.847656 174.890625 240.832031 C 174.871094 240.714844 174.914062 240.625 175 240.550781 C 174.984375 240.476562 175.003906 240.421875 175.078125 240.390625 C 175.082031 240.3125 175.105469 240.246094 175.179688 240.210938 C 175.175781 240.171875 175.183594 240.140625 175.214844 240.109375 C 175.261719 239.886719 175.351562 239.683594 175.488281 239.503906 C 175.53125 239.347656 175.570312 239.1875 175.6875 239.070312 C 175.675781 238.960938 175.738281 238.875 175.789062 238.792969 C 175.953125 238.175781 176.226562 237.59375 176.277344 236.914062 C 176.480469 237.035156 176.710938 236.917969 176.828125 237.128906 Z M 141.179688 256.011719 C 141.179688 256.007812 141.179688 256.007812 141.183594 256.007812 C 141.183594 256.011719 141.183594 256.011719 141.183594 256.011719 C 141.183594 256.011719 141.183594 256.007812 141.183594 256.007812 C 141.183594 256.007812 141.179688 256.003906 141.183594 256.003906 C 141.179688 256.007812 141.179688 256.007812 141.179688 256.011719 Z M 173.351562 244.503906 C 173.34375 244.519531 173.339844 244.53125 173.332031 244.546875 C 173.335938 244.542969 173.339844 244.539062 173.339844 244.535156 C 173.347656 244.527344 173.355469 244.515625 173.363281 244.503906 C 173.359375 244.503906 173.359375 244.503906 173.351562 244.503906 Z M 171.847656 245.925781 C 171.847656 245.929688 171.851562 245.925781 171.851562 245.929688 C 171.855469 245.929688 171.859375 245.933594 171.863281 245.9375 L 171.878906 245.945312 L 171.851562 245.925781 C 171.851562 245.925781 171.851562 245.925781 171.851562 245.921875 C 171.851562 245.925781 171.851562 245.925781 171.847656 245.925781 Z M 173.421875 244.507812 C 173.402344 244.503906 173.382812 244.503906 173.367188 244.503906 C 173.359375 244.515625 173.351562 244.527344 173.34375 244.535156 C 173.363281 244.515625 173.390625 244.503906 173.421875 244.507812 Z M 173.296875 244.605469 C 173.289062 244.621094 173.28125 244.632812 173.273438 244.644531 C 173.273438 244.644531 173.273438 244.648438 173.273438 244.648438 C 173.28125 244.632812 173.289062 244.621094 173.296875 244.605469 Z M 176.914062 238.335938 C 176.914062 238.335938 176.914062 238.332031 176.917969 238.332031 C 176.917969 238.328125 176.917969 238.328125 176.917969 238.324219 C 176.914062 238.328125 176.914062 238.332031 176.914062 238.335938 Z M 176.839844 238.609375 C 176.839844 238.613281 176.839844 238.617188 176.839844 238.617188 C 176.835938 238.617188 176.839844 238.609375 176.839844 238.609375 Z M 175.011719 240.777344 C 175.027344 240.777344 175.039062 240.777344 175.054688 240.785156 C 175.054688 240.777344 175.054688 240.765625 175.050781 240.757812 C 175.039062 240.765625 175.027344 240.769531 175.011719 240.777344 Z M 175.171875 240.300781 C 175.1875 240.28125 175.191406 240.257812 175.191406 240.226562 C 175.191406 240.226562 175.191406 240.226562 175.191406 240.230469 C 175.1875 240.253906 175.183594 240.28125 175.171875 240.300781 Z M 175.171875 240.300781 " fill-opacity="1" fill-rule="nonzero"/></g></g></g></g><g clip-path="url(#6657ef7ee3)"><g clip-path="url(#6f2f140c05)"><g clip-path="url(#f74c2a72c2)"><g clip-path="url(#1cf4bc77c9)"><path fill="#ffffff" d="M 172.753906 244.722656 C 172.714844 244.773438 172.679688 244.824219 172.648438 244.871094 C 172.644531 244.792969 172.679688 244.746094 172.753906 244.722656 Z M 172.753906 244.722656 " fill-opacity="1" fill-rule="nonzero"/></g></g></g></g><g clip-path="url(#da1e5ace0c)"><g clip-path="url(#38b1da9de1)"><g clip-path="url(#1751e35307)"><g clip-path="url(#d0b7eea00d)"><path fill="#ffffff" d="M 76.457031 195.554688 C 76.417969 195.570312 76.378906 195.5625 76.347656 195.539062 C 76.21875 195.601562 76.242188 195.832031 76.039062 195.816406 C 75.644531 196.039062 75.359375 195.835938 75.097656 195.570312 C 74.363281 194.820312 73.765625 193.96875 73.21875 193.078125 C 71.265625 189.898438 70.070312 186.460938 69.480469 182.78125 C 68.445312 176.363281 69.683594 170.359375 72.582031 164.644531 C 73.925781 161.996094 75.710938 159.632812 77.609375 157.351562 C 78.722656 156.007812 79.917969 154.738281 81.082031 153.441406 C 81.144531 153.410156 81.207031 153.386719 81.269531 153.355469 C 81.292969 153.28125 81.339844 153.207031 81.328125 153.140625 C 81.328125 153.140625 81.328125 153.140625 81.328125 153.136719 C 81.316406 153.082031 81.242188 153.097656 81.199219 153.144531 C 80.523438 153.273438 79.898438 153.542969 79.285156 153.84375 C 78.867188 154.046875 78.445312 154.214844 77.976562 154.257812 C 77.082031 154.707031 76.300781 154.519531 75.78125 153.761719 C 76.964844 152.160156 78.695312 151.457031 80.519531 150.882812 C 81.195312 150.671875 81.855469 150.414062 82.519531 150.164062 C 84.109375 149.570312 83.914062 149.746094 85 150.605469 C 85.242188 150.796875 85.4375 151.042969 85.605469 151.304688 C 85.664062 151.402344 85.714844 151.496094 85.683594 151.613281 C 85.945312 151.847656 85.875 152.128906 85.789062 152.40625 C 85.535156 153.21875 85.273438 154.027344 85.011719 154.839844 C 85.0625 155.039062 84.984375 155.207031 84.898438 155.378906 C 84.957031 155.574219 84.875 155.746094 84.800781 155.917969 C 84.867188 156.050781 84.792969 156.175781 84.777344 156.304688 C 84.566406 158.039062 84.550781 159.773438 84.835938 161.503906 C 84.855469 161.636719 84.867188 161.765625 84.882812 161.898438 C 84.902344 162.054688 84.925781 162.230469 84.765625 162.304688 C 84.640625 162.363281 84.464844 162.289062 84.402344 162.191406 C 84.117188 161.765625 83.617188 161.578125 83.304688 161.1875 C 83.167969 161.011719 83.109375 160.800781 83.058594 160.582031 C 82.644531 158.894531 82.542969 157.183594 82.613281 155.460938 C 82.621094 155.304688 82.652344 155.148438 82.628906 155 C 82.597656 154.824219 82.453125 154.832031 82.3125 154.878906 C 82.289062 155.050781 82.1875 155.152344 82.019531 155.191406 C 81.964844 155.34375 81.898438 155.492188 81.710938 155.523438 C 81.71875 155.570312 81.703125 155.589844 81.65625 155.589844 C 81.609375 155.738281 81.542969 155.871094 81.371094 155.910156 C 81.316406 156.003906 81.273438 156.109375 81.203125 156.191406 C 80.441406 157.097656 79.664062 157.992188 78.914062 158.910156 C 78.230469 159.742188 77.574219 160.59375 76.910156 161.4375 C 76.761719 161.679688 76.621094 161.929688 76.464844 162.164062 C 74.949219 164.476562 73.734375 166.933594 72.898438 169.566406 C 72.601562 170.507812 72.332031 171.457031 72.050781 172.402344 C 72.105469 172.613281 72.011719 172.785156 71.925781 172.964844 C 71.980469 173.160156 71.898438 173.328125 71.8125 173.5 C 71.882812 173.683594 71.789062 173.839844 71.726562 174.003906 C 71.785156 174.121094 71.75 174.226562 71.679688 174.324219 C 71.699219 174.371094 71.691406 174.40625 71.652344 174.4375 C 71.714844 174.570312 71.648438 174.695312 71.632812 174.824219 C 71.574219 175.453125 71.40625 176.066406 71.425781 176.703125 C 71.359375 176.742188 71.289062 176.910156 71.253906 176.671875 C 71.230469 176.515625 71.191406 176.496094 71.144531 176.523438 C 71.105469 176.550781 71.0625 176.613281 71.023438 176.65625 C 70.902344 178.648438 71.023438 180.632812 71.28125 182.609375 C 71.320312 182.792969 71.359375 182.972656 71.402344 183.15625 C 71.644531 184.238281 71.890625 185.324219 72.132812 186.410156 C 72.167969 186.4375 72.1875 186.472656 72.195312 186.511719 C 72.199219 186.539062 72.195312 186.5625 72.1875 186.59375 C 72.246094 186.640625 72.265625 186.703125 72.242188 186.773438 C 72.304688 186.820312 72.320312 186.878906 72.296875 186.953125 C 72.359375 186.996094 72.375 187.058594 72.351562 187.132812 C 72.414062 187.175781 72.4375 187.238281 72.410156 187.308594 C 72.476562 187.355469 72.496094 187.414062 72.46875 187.488281 C 72.535156 187.53125 72.554688 187.589844 72.53125 187.664062 L 72.53125 187.667969 C 72.554688 187.722656 72.574219 187.78125 72.59375 187.839844 L 72.59375 187.84375 C 72.65625 187.886719 72.679688 187.945312 72.65625 188.015625 L 72.65625 188.023438 C 72.722656 188.066406 72.742188 188.121094 72.71875 188.195312 L 72.722656 188.203125 C 72.789062 188.242188 72.808594 188.300781 72.785156 188.375 L 72.785156 188.378906 C 72.851562 188.417969 72.871094 188.476562 72.847656 188.550781 L 72.851562 188.554688 C 72.914062 188.597656 72.9375 188.65625 72.917969 188.730469 C 73.152344 189.257812 73.390625 189.78125 73.628906 190.308594 C 73.664062 190.621094 73.839844 190.878906 73.980469 191.148438 C 74.015625 191.152344 74.046875 191.144531 74.074219 191.132812 C 74.121094 191.113281 74.15625 191.082031 74.1875 191.035156 C 74.3125 191.230469 74.453125 191.414062 74.480469 191.652344 C 74.484375 191.726562 74.496094 191.796875 74.539062 191.859375 C 74.519531 191.789062 74.5 191.722656 74.480469 191.652344 C 74.535156 191.707031 74.578125 191.761719 74.542969 191.839844 C 74.648438 191.890625 74.699219 191.976562 74.710938 192.089844 C 74.78125 192.121094 74.816406 192.167969 74.796875 192.246094 C 74.859375 192.292969 74.898438 192.351562 74.886719 192.429688 C 74.917969 192.453125 74.941406 192.476562 74.949219 192.519531 C 75.105469 192.6875 75.21875 192.875 75.285156 193.09375 C 75.390625 193.21875 75.496094 193.339844 75.527344 193.503906 C 75.621094 193.558594 75.65625 193.65625 75.695312 193.75 C 76.105469 194.238281 76.421875 194.796875 76.949219 195.226562 C 76.734375 195.324219 76.695312 195.578125 76.457031 195.554688 Z M 81.535156 155.535156 C 81.535156 155.539062 81.535156 155.539062 81.535156 155.539062 C 81.535156 155.539062 81.535156 155.535156 81.535156 155.535156 C 81.535156 155.539062 81.535156 155.539062 81.535156 155.539062 C 81.539062 155.539062 81.539062 155.539062 81.539062 155.542969 C 81.539062 155.539062 81.539062 155.539062 81.535156 155.535156 Z M 72.425781 188.464844 C 72.417969 188.453125 72.410156 188.441406 72.402344 188.425781 C 72.40625 188.429688 72.40625 188.433594 72.40625 188.4375 C 72.410156 188.449219 72.414062 188.464844 72.421875 188.476562 C 72.421875 188.472656 72.421875 188.472656 72.425781 188.464844 Z M 72.128906 186.417969 C 72.128906 186.417969 72.128906 186.421875 72.125 186.417969 C 72.121094 186.421875 72.117188 186.421875 72.109375 186.425781 L 72.097656 186.433594 L 72.128906 186.421875 C 72.128906 186.421875 72.128906 186.421875 72.128906 186.417969 Z M 72.386719 188.523438 C 72.398438 188.507812 72.410156 188.492188 72.417969 188.476562 C 72.414062 188.464844 72.410156 188.453125 72.40625 188.441406 C 72.410156 188.46875 72.40625 188.496094 72.386719 188.523438 Z M 72.375 188.363281 C 72.367188 188.347656 72.363281 188.335938 72.355469 188.324219 C 72.355469 188.320312 72.355469 188.320312 72.355469 188.320312 C 72.359375 188.335938 72.367188 188.347656 72.375 188.363281 Z M 75.421875 194.929688 C 75.421875 194.929688 75.421875 194.933594 75.421875 194.933594 C 75.421875 194.933594 75.421875 194.9375 75.421875 194.9375 C 75.425781 194.9375 75.425781 194.9375 75.425781 194.941406 C 75.425781 194.9375 75.425781 194.933594 75.421875 194.929688 Z M 75.238281 194.710938 C 75.238281 194.710938 75.234375 194.710938 75.234375 194.707031 C 75.234375 194.707031 75.238281 194.710938 75.238281 194.710938 Z M 74.519531 191.972656 C 74.511719 191.980469 74.5 191.992188 74.488281 192 C 74.496094 192.003906 74.503906 192.007812 74.511719 192.011719 C 74.515625 192 74.519531 191.984375 74.519531 191.972656 Z M 74.816406 192.375 C 74.824219 192.398438 74.839844 192.417969 74.863281 192.433594 C 74.863281 192.433594 74.863281 192.433594 74.863281 192.429688 C 74.84375 192.414062 74.828125 192.398438 74.816406 192.375 Z M 74.816406 192.375 " fill-opacity="1" fill-rule="nonzero"/></g></g></g></g><g clip-path="url(#28ca4677f9)"><g clip-path="url(#51c9f1cc0a)"><g clip-path="url(#81c5e64621)"><g clip-path="url(#869861a1f8)"><path fill="#ffffff" d="M 72.59375 187.851562 C 72.570312 187.792969 72.554688 187.734375 72.53125 187.679688 C 72.597656 187.722656 72.617188 187.777344 72.59375 187.851562 Z M 72.59375 187.851562 " fill-opacity="1" fill-rule="nonzero"/></g></g></g></g><g clip-path="url(#7634aab8a0)"><g clip-path="url(#a7d882299b)"><g clip-path="url(#85c0fd4123)"><g clip-path="url(#57f3a89e64)"><path fill="#ffffff" d="M 167.816406 126.144531 C 167.824219 126.105469 167.851562 126.078125 167.890625 126.0625 C 167.914062 125.921875 167.710938 125.808594 167.839844 125.652344 C 167.878906 125.203125 168.207031 125.082031 168.578125 125.019531 C 169.613281 124.84375 170.652344 124.835938 171.695312 124.894531 C 175.421875 125.101562 178.925781 126.082031 182.285156 127.691406 C 188.148438 130.5 192.375 134.941406 195.417969 140.578125 C 196.832031 143.191406 197.753906 146.007812 198.550781 148.867188 C 199.015625 150.546875 199.378906 152.25 199.78125 153.949219 C 199.769531 154.015625 199.757812 154.082031 199.746094 154.148438 C 199.792969 154.210938 199.828125 154.292969 199.886719 154.324219 C 199.886719 154.324219 199.886719 154.324219 199.890625 154.324219 C 199.941406 154.347656 199.972656 154.273438 199.957031 154.214844 C 200.238281 153.582031 200.375 152.917969 200.476562 152.242188 C 200.542969 151.78125 200.644531 151.339844 200.882812 150.933594 C 201.023438 149.941406 201.621094 149.40625 202.535156 149.410156 C 203.179688 151.296875 202.769531 153.121094 202.203125 154.941406 C 201.992188 155.621094 201.828125 156.308594 201.652344 156.996094 C 201.238281 158.644531 201.203125 158.382812 199.878906 158.785156 C 199.582031 158.875 199.269531 158.894531 198.960938 158.882812 C 198.84375 158.878906 198.742188 158.863281 198.664062 158.769531 C 198.320312 158.855469 198.125 158.632812 197.949219 158.40625 C 197.425781 157.734375 196.910156 157.058594 196.390625 156.382812 C 196.199219 156.308594 196.105469 156.148438 196.015625 155.980469 C 195.820312 155.914062 195.726562 155.75 195.625 155.59375 C 195.480469 155.570312 195.417969 155.441406 195.320312 155.355469 C 194.019531 154.191406 192.601562 153.191406 191.015625 152.4375 C 190.898438 152.378906 190.78125 152.3125 190.667969 152.253906 C 190.527344 152.179688 190.367188 152.097656 190.398438 151.921875 C 190.421875 151.789062 190.582031 151.683594 190.699219 151.6875 C 191.210938 151.699219 191.652344 151.394531 192.148438 151.359375 C 192.371094 151.347656 192.578125 151.421875 192.789062 151.503906 C 194.410156 152.125 195.875 153.015625 197.25 154.058594 C 197.371094 154.152344 197.480469 154.265625 197.621094 154.332031 C 197.78125 154.40625 197.855469 154.28125 197.898438 154.140625 C 197.769531 154.023438 197.742188 153.882812 197.808594 153.722656 C 197.714844 153.589844 197.632812 153.453125 197.710938 153.277344 C 197.667969 153.261719 197.660156 153.230469 197.6875 153.195312 C 197.589844 153.070312 197.523438 152.941406 197.585938 152.777344 C 197.539062 152.679688 197.480469 152.585938 197.453125 152.480469 C 197.140625 151.339844 196.847656 150.191406 196.523438 149.050781 C 196.230469 148.015625 195.902344 146.992188 195.589844 145.964844 C 195.472656 145.703125 195.347656 145.445312 195.246094 145.183594 C 194.210938 142.617188 192.882812 140.222656 191.195312 138.03125 C 190.589844 137.25 189.964844 136.488281 189.347656 135.71875 C 189.148438 135.644531 189.054688 135.46875 188.960938 135.296875 C 188.765625 135.230469 188.675781 135.066406 188.582031 134.902344 C 188.390625 134.851562 188.316406 134.6875 188.21875 134.542969 C 188.089844 134.523438 188.023438 134.433594 187.980469 134.320312 C 187.933594 134.308594 187.90625 134.28125 187.902344 134.234375 C 187.757812 134.207031 187.695312 134.082031 187.597656 134 C 187.113281 133.59375 186.707031 133.101562 186.171875 132.753906 C 186.175781 132.679688 186.078125 132.523438 186.292969 132.632812 C 186.4375 132.703125 186.476562 132.683594 186.476562 132.628906 C 186.480469 132.578125 186.453125 132.507812 186.441406 132.449219 C 184.871094 131.214844 183.171875 130.1875 181.402344 129.269531 C 181.230469 129.199219 181.054688 129.128906 180.882812 129.058594 C 179.851562 128.640625 178.824219 128.222656 177.792969 127.804688 C 177.75 127.816406 177.710938 127.8125 177.675781 127.796875 C 177.652344 127.785156 177.628906 127.769531 177.609375 127.746094 C 177.539062 127.765625 177.476562 127.746094 177.433594 127.6875 C 177.359375 127.710938 177.300781 127.691406 177.253906 127.628906 C 177.179688 127.65625 177.121094 127.632812 177.074219 127.574219 C 177 127.597656 176.941406 127.582031 176.894531 127.519531 C 176.820312 127.546875 176.761719 127.527344 176.714844 127.464844 C 176.640625 127.496094 176.582031 127.476562 176.535156 127.417969 L 176.535156 127.414062 C 176.472656 127.402344 176.414062 127.386719 176.355469 127.367188 L 176.351562 127.363281 C 176.277344 127.394531 176.21875 127.378906 176.171875 127.316406 L 176.167969 127.316406 C 176.097656 127.34375 176.039062 127.328125 175.992188 127.269531 L 175.984375 127.265625 C 175.984375 127.265625 175.980469 127.265625 175.980469 127.265625 C 175.980469 127.265625 175.984375 127.265625 175.984375 127.265625 C 175.914062 127.296875 175.855469 127.28125 175.808594 127.21875 L 175.804688 127.21875 C 175.730469 127.25 175.671875 127.234375 175.625 127.171875 L 175.621094 127.171875 C 175.550781 127.199219 175.488281 127.1875 175.441406 127.125 C 174.871094 127.019531 174.304688 126.914062 173.734375 126.808594 C 173.457031 126.660156 173.144531 126.660156 172.84375 126.621094 C 172.824219 126.648438 172.8125 126.679688 172.804688 126.710938 C 172.796875 126.757812 172.800781 126.804688 172.820312 126.855469 C 172.589844 126.847656 172.359375 126.859375 172.148438 126.746094 C 172.085938 126.707031 172.019531 126.675781 171.945312 126.675781 C 172.011719 126.699219 172.078125 126.722656 172.148438 126.746094 C 172.070312 126.757812 172 126.761719 171.957031 126.691406 C 171.855469 126.75 171.757812 126.738281 171.65625 126.6875 C 171.59375 126.726562 171.53125 126.726562 171.480469 126.667969 C 171.402344 126.6875 171.335938 126.691406 171.277344 126.632812 C 171.242188 126.652344 171.207031 126.652344 171.167969 126.636719 C 170.941406 126.667969 170.722656 126.652344 170.503906 126.585938 C 170.34375 126.597656 170.183594 126.617188 170.027344 126.550781 C 169.929688 126.597656 169.832031 126.566406 169.730469 126.546875 C 169.097656 126.605469 168.457031 126.550781 167.804688 126.738281 C 167.847656 126.503906 167.65625 126.328125 167.816406 126.144531 Z M 197.800781 153.128906 C 197.800781 153.128906 197.800781 153.128906 197.796875 153.125 C 197.800781 153.125 197.800781 153.125 197.800781 153.125 C 197.800781 153.125 197.796875 153.125 197.796875 153.125 C 197.796875 153.128906 197.796875 153.128906 197.792969 153.128906 C 197.796875 153.128906 197.796875 153.128906 197.800781 153.128906 Z M 175.9375 126.875 C 175.949219 126.875 175.964844 126.875 175.980469 126.875 C 175.976562 126.875 175.972656 126.875 175.96875 126.871094 C 175.957031 126.867188 175.945312 126.867188 175.933594 126.863281 C 175.933594 126.863281 175.933594 126.867188 175.9375 126.875 Z M 177.789062 127.796875 C 177.789062 127.792969 177.789062 127.792969 177.789062 127.792969 C 177.789062 127.789062 177.792969 127.78125 177.792969 127.777344 L 177.792969 127.761719 L 177.789062 127.792969 C 177.785156 127.792969 177.785156 127.792969 177.785156 127.792969 C 177.785156 127.792969 177.785156 127.792969 177.789062 127.796875 Z M 175.914062 126.808594 C 175.917969 126.824219 175.925781 126.84375 175.929688 126.859375 C 175.941406 126.863281 175.957031 126.867188 175.96875 126.871094 C 175.941406 126.859375 175.921875 126.839844 175.914062 126.808594 Z M 176.050781 126.886719 C 176.066406 126.890625 176.078125 126.894531 176.09375 126.898438 C 176.09375 126.898438 176.097656 126.898438 176.097656 126.898438 C 176.082031 126.894531 176.066406 126.890625 176.050781 126.886719 Z M 168.917969 125.652344 C 168.917969 125.648438 168.914062 125.648438 168.914062 125.648438 C 168.914062 125.648438 168.910156 125.648438 168.910156 125.648438 C 168.910156 125.648438 168.90625 125.648438 168.90625 125.648438 C 168.910156 125.652344 168.914062 125.648438 168.917969 125.652344 Z M 169.199219 125.625 C 169.203125 125.625 169.207031 125.621094 169.210938 125.621094 C 169.207031 125.625 169.203125 125.625 169.199219 125.625 Z M 171.863281 126.59375 C 171.859375 126.582031 171.855469 126.570312 171.855469 126.550781 C 171.847656 126.554688 171.839844 126.5625 171.832031 126.566406 C 171.84375 126.574219 171.851562 126.585938 171.863281 126.59375 Z M 171.363281 126.609375 C 171.339844 126.601562 171.3125 126.605469 171.289062 126.617188 C 171.3125 126.609375 171.339844 126.605469 171.363281 126.609375 Z M 171.363281 126.609375 " fill-opacity="1" fill-rule="nonzero"/></g></g></g></g><g clip-path="url(#27254ef93a)"><g clip-path="url(#ae098ee310)"><g clip-path="url(#0b7047c9e7)"><g clip-path="url(#73fb503f69)"><path fill="#ffffff" d="M 176.347656 127.359375 C 176.40625 127.378906 176.464844 127.394531 176.523438 127.410156 C 176.453125 127.4375 176.394531 127.421875 176.347656 127.359375 Z M 176.347656 127.359375 " fill-opacity="1" fill-rule="nonzero"/></g></g></g></g><path stroke-linecap="butt" transform="matrix(0.74987, 0.00605191, -0.00605275, 0.749976, 136.490312, 77.86835)" fill="none" stroke-linejoin="miter" d="M -0.00220425 1.998534 L 223.03636 2.000873 " stroke="#000000" stroke-width="4" stroke-opacity="1" stroke-miterlimit="4"/><path stroke-linecap="butt" transform="matrix(0.750617, -0.00364086, 0.00363783, 0.749991, 135.126205, 291.168461)" fill="none" stroke-linejoin="miter" d="M -0.000887049 1.999363 L 224.814281 2.002183 " stroke="#000000" stroke-width="4" stroke-opacity="1" stroke-miterlimit="4"/><g clip-path="url(#dd8790f722)"><path fill="#38b6ff" d="M 266.714844 306.992188 L 275.207031 297.5 C 275.390625 297.296875 275.644531 297.183594 275.910156 297.183594 L 281.574219 297.183594 C 281.945312 297.183594 282.28125 297.402344 282.4375 297.746094 C 282.585938 298.089844 282.523438 298.488281 282.273438 298.765625 L 274.351562 307.628906 L 282.273438 316.484375 C 282.523438 316.765625 282.589844 317.164062 282.4375 317.507812 C 282.28125 317.851562 281.945312 318.070312 281.574219 318.070312 L 275.910156 318.070312 C 275.644531 318.070312 275.390625 317.953125 275.207031 317.757812 L 266.714844 308.261719 C 266.394531 307.902344 266.394531 307.351562 266.714844 306.992188 Z M 266.714844 306.992188 " fill-opacity="1" fill-rule="nonzero"/></g><g clip-path="url(#926779b78b)"><path fill="#38b6ff" d="M 278.984375 306.992188 L 287.476562 297.5 C 287.660156 297.296875 287.910156 297.183594 288.179688 297.183594 L 293.839844 297.183594 C 294.214844 297.183594 294.550781 297.402344 294.703125 297.746094 C 294.855469 298.089844 294.792969 298.488281 294.542969 298.765625 L 286.617188 307.628906 L 294.542969 316.484375 C 294.792969 316.765625 294.855469 317.164062 294.703125 317.507812 C 294.550781 317.851562 294.214844 318.070312 293.839844 318.070312 L 288.179688 318.070312 C 287.910156 318.070312 287.660156 317.953125 287.476562 317.757812 L 278.984375 308.261719 C 278.660156 307.902344 278.660156 307.351562 278.984375 306.992188 Z M 278.984375 306.992188 " fill-opacity="1" fill-rule="nonzero"/></g><g clip-path="url(#6c43f3bc90)"><path fill="#38b6ff" d="M 229.589844 306.992188 L 238.082031 297.5 C 238.265625 297.296875 238.519531 297.183594 238.785156 297.183594 L 244.449219 297.183594 C 244.820312 297.183594 245.15625 297.402344 245.3125 297.746094 C 245.460938 298.089844 245.398438 298.488281 245.148438 298.765625 L 237.226562 307.628906 L 245.148438 316.484375 C 245.398438 316.765625 245.464844 317.164062 245.3125 317.507812 C 245.15625 317.851562 244.820312 318.070312 244.449219 318.070312 L 238.785156 318.070312 C 238.519531 318.070312 238.265625 317.953125 238.082031 317.757812 L 229.589844 308.261719 C 229.269531 307.902344 229.269531 307.351562 229.589844 306.992188 Z M 229.589844 306.992188 " fill-opacity="1" fill-rule="nonzero"/></g><g clip-path="url(#79cc425703)"><path fill="#38b6ff" d="M 241.859375 306.992188 L 250.351562 297.5 C 250.535156 297.296875 250.785156 297.183594 251.054688 297.183594 L 256.714844 297.183594 C 257.089844 297.183594 257.425781 297.402344 257.578125 297.746094 C 257.730469 298.089844 257.667969 298.488281 257.417969 298.765625 L 249.492188 307.628906 L 257.417969 316.484375 C 257.667969 316.765625 257.730469 317.164062 257.578125 317.507812 C 257.425781 317.851562 257.089844 318.070312 256.714844 318.070312 L 251.054688 318.070312 C 250.785156 318.070312 250.535156 317.953125 250.351562 317.757812 L 241.859375 308.261719 C 241.535156 307.902344 241.535156 307.351562 241.859375 306.992188 Z M 241.859375 306.992188 " fill-opacity="1" fill-rule="nonzero"/></g><g clip-path="url(#c35330f210)"><path fill="#5ce1e6" d="M 192.464844 306.992188 L 200.957031 297.5 C 201.140625 297.296875 201.394531 297.183594 201.660156 297.183594 L 207.324219 297.183594 C 207.695312 297.183594 208.03125 297.402344 208.1875 297.746094 C 208.335938 298.089844 208.273438 298.488281 208.023438 298.765625 L 200.101562 307.628906 L 208.023438 316.484375 C 208.273438 316.765625 208.339844 317.164062 208.1875 317.507812 C 208.03125 317.851562 207.695312 318.070312 207.324219 318.070312 L 201.660156 318.070312 C 201.394531 318.070312 201.140625 317.953125 200.957031 317.757812 L 192.464844 308.261719 C 192.144531 307.902344 192.144531 307.351562 192.464844 306.992188 Z M 192.464844 306.992188 " fill-opacity="1" fill-rule="nonzero"/></g><g clip-path="url(#3052e96de7)"><path fill="#5ce1e6" d="M 204.734375 306.992188 L 213.226562 297.5 C 213.410156 297.296875 213.660156 297.183594 213.929688 297.183594 L 219.589844 297.183594 C 219.964844 297.183594 220.300781 297.402344 220.453125 297.746094 C 220.605469 298.089844 220.542969 298.488281 220.292969 298.765625 L 212.367188 307.628906 L 220.292969 316.484375 C 220.542969 316.765625 220.605469 317.164062 220.453125 317.507812 C 220.300781 317.851562 219.964844 318.070312 219.589844 318.070312 L 213.929688 318.070312 C 213.660156 318.070312 213.410156 317.953125 213.226562 317.757812 L 204.734375 308.261719 C 204.410156 307.902344 204.410156 307.351562 204.734375 306.992188 Z M 204.734375 306.992188 " fill-opacity="1" fill-rule="nonzero"/></g><g clip-path="url(#4cb2b0d174)"><path fill="#38b6ff" d="M 155.339844 306.992188 L 163.832031 297.5 C 164.015625 297.296875 164.269531 297.183594 164.535156 297.183594 L 170.199219 297.183594 C 170.570312 297.183594 170.90625 297.402344 171.0625 297.746094 C 171.210938 298.089844 171.148438 298.488281 170.898438 298.765625 L 162.976562 307.628906 L 170.898438 316.484375 C 171.148438 316.765625 171.214844 317.164062 171.0625 317.507812 C 170.90625 317.851562 170.570312 318.070312 170.199219 318.070312 L 164.535156 318.070312 C 164.269531 318.070312 164.015625 317.953125 163.832031 317.757812 L 155.339844 308.261719 C 155.019531 307.902344 155.019531 307.351562 155.339844 306.992188 Z M 155.339844 306.992188 " fill-opacity="1" fill-rule="nonzero"/></g><g clip-path="url(#b0ac6518bf)"><path fill="#38b6ff" d="M 167.609375 306.992188 L 176.101562 297.5 C 176.285156 297.296875 176.535156 297.183594 176.804688 297.183594 L 182.464844 297.183594 C 182.839844 297.183594 183.175781 297.402344 183.328125 297.746094 C 183.480469 298.089844 183.417969 298.488281 183.167969 298.765625 L 175.242188 307.628906 L 183.167969 316.484375 C 183.417969 316.765625 183.480469 317.164062 183.328125 317.507812 C 183.175781 317.851562 182.839844 318.070312 182.464844 318.070312 L 176.804688 318.070312 C 176.535156 318.070312 176.285156 317.953125 176.101562 317.757812 L 167.609375 308.261719 C 167.285156 307.902344 167.285156 307.351562 167.609375 306.992188 Z M 167.609375 306.992188 " fill-opacity="1" fill-rule="nonzero"/></g><g clip-path="url(#edaf61f649)"><g clip-path="url(#6e620487e7)"><g clip-path="url(#624a77a105)"><path fill="#38b6ff" d="M 118.210938 307.242188 L 126.535156 297.597656 C 126.710938 297.394531 126.960938 297.273438 127.230469 297.269531 L 132.890625 297.171875 C 133.261719 297.164062 133.605469 297.378906 133.765625 297.714844 C 133.921875 298.058594 133.867188 298.460938 133.621094 298.742188 L 125.855469 307.738281 L 133.933594 316.457031 C 134.1875 316.730469 134.261719 317.128906 134.113281 317.476562 C 133.964844 317.820312 133.632812 318.046875 133.261719 318.054688 L 127.597656 318.152344 C 127.332031 318.160156 127.078125 318.046875 126.890625 317.851562 L 118.230469 308.511719 C 117.902344 308.15625 117.894531 307.605469 118.210938 307.242188 Z M 118.210938 307.242188 " fill-opacity="1" fill-rule="nonzero"/></g></g></g><g clip-path="url(#0f3a552a5a)"><g clip-path="url(#8537c78a4c)"><g clip-path="url(#b1bea66827)"><path fill="#38b6ff" d="M 130.476562 307.023438 L 138.800781 297.382812 C 138.976562 297.175781 139.230469 297.058594 139.496094 297.054688 L 145.15625 296.953125 C 145.53125 296.945312 145.871094 297.160156 146.03125 297.5 C 146.1875 297.839844 146.132812 298.242188 145.886719 298.523438 L 138.121094 307.523438 L 146.203125 316.238281 C 146.457031 316.515625 146.527344 316.914062 146.378906 317.257812 C 146.234375 317.605469 145.898438 317.832031 145.527344 317.835938 L 139.867188 317.9375 C 139.597656 317.941406 139.34375 317.832031 139.160156 317.636719 L 130.5 308.292969 C 130.167969 307.9375 130.160156 307.386719 130.476562 307.023438 Z M 130.476562 307.023438 " fill-opacity="1" fill-rule="nonzero"/></g></g></g><g clip-path="url(#ee37c35f29)"><g clip-path="url(#e2b8380d8a)"><g clip-path="url(#6607aa1e44)"><path fill="#38b6ff" d="M 75.855469 286.085938 L 88.128906 282.679688 C 88.390625 282.609375 88.664062 282.648438 88.890625 282.796875 L 93.65625 285.851562 C 93.96875 286.050781 94.132812 286.421875 94.078125 286.789062 C 94.019531 287.160156 93.75 287.464844 93.390625 287.5625 L 81.9375 290.742188 L 83.828125 302.476562 C 83.886719 302.847656 83.722656 303.21875 83.410156 303.425781 C 83.097656 303.632812 82.691406 303.632812 82.378906 303.433594 L 77.613281 300.375 C 77.386719 300.230469 77.238281 299.996094 77.191406 299.734375 L 75.167969 287.15625 C 75.089844 286.679688 75.386719 286.214844 75.855469 286.085938 Z M 75.855469 286.085938 " fill-opacity="1" fill-rule="nonzero"/></g></g></g><g clip-path="url(#4f77acd801)"><g clip-path="url(#cac5b0f130)"><g clip-path="url(#8294eebf12)"><path fill="#38b6ff" d="M 86.179688 292.710938 L 98.457031 289.304688 C 98.714844 289.234375 98.992188 289.273438 99.214844 289.417969 L 103.984375 292.476562 C 104.296875 292.675781 104.460938 293.042969 104.40625 293.414062 C 104.347656 293.785156 104.078125 294.089844 103.71875 294.1875 L 92.265625 297.367188 L 94.152344 309.101562 C 94.210938 309.46875 94.050781 309.84375 93.738281 310.046875 C 93.421875 310.253906 93.019531 310.257812 92.707031 310.058594 L 87.941406 307 C 87.714844 306.855469 87.5625 306.621094 87.519531 306.355469 L 85.496094 293.78125 C 85.417969 293.300781 85.714844 292.839844 86.179688 292.710938 Z M 86.179688 292.710938 " fill-opacity="1" fill-rule="nonzero"/></g></g></g><g clip-path="url(#c934c9c993)"><g clip-path="url(#679b4711df)"><g clip-path="url(#b7508b7efd)"><path fill="#5ce1e6" d="M 41.28125 262.910156 L 53.984375 261.964844 C 54.253906 261.945312 54.515625 262.039062 54.707031 262.222656 L 58.785156 266.152344 C 59.054688 266.410156 59.144531 266.800781 59.015625 267.15625 C 58.886719 267.507812 58.566406 267.753906 58.191406 267.777344 L 46.339844 268.664062 L 45.902344 280.539062 C 45.886719 280.914062 45.65625 281.246094 45.308594 281.386719 C 44.960938 281.53125 44.566406 281.453125 44.296875 281.195312 L 40.21875 277.269531 C 40.027344 277.082031 39.921875 276.824219 39.929688 276.554688 L 40.398438 263.824219 C 40.417969 263.339844 40.796875 262.945312 41.28125 262.910156 Z M 41.28125 262.910156 " fill-opacity="1" fill-rule="nonzero"/></g></g></g><g clip-path="url(#3991892589)"><g clip-path="url(#f207584a30)"><g clip-path="url(#69e2167550)"><path fill="#5ce1e6" d="M 50.117188 271.421875 L 62.820312 270.472656 C 63.089844 270.453125 63.351562 270.546875 63.542969 270.734375 L 67.621094 274.660156 C 67.890625 274.917969 67.980469 275.3125 67.855469 275.664062 C 67.722656 276.015625 67.402344 276.261719 67.03125 276.289062 L 55.175781 277.171875 L 54.738281 289.050781 C 54.726562 289.425781 54.492188 289.757812 54.144531 289.898438 C 53.796875 290.039062 53.402344 289.964844 53.132812 289.707031 L 49.054688 285.777344 C 48.863281 285.59375 48.761719 285.332031 48.765625 285.066406 L 49.234375 272.335938 C 49.253906 271.851562 49.636719 271.453125 50.117188 271.421875 Z M 50.117188 271.421875 " fill-opacity="1" fill-rule="nonzero"/></g></g></g><g clip-path="url(#1f93c31baf)"><g clip-path="url(#2f75fbb1a0)"><g clip-path="url(#765c944e3a)"><path fill="#38b6ff" d="M 22.734375 226.0625 L 35.210938 228.632812 C 35.476562 228.6875 35.699219 228.851562 35.835938 229.082031 L 38.679688 233.976562 C 38.867188 234.296875 38.847656 234.703125 38.628906 235.003906 C 38.40625 235.308594 38.03125 235.457031 37.664062 235.378906 L 26.023438 232.980469 L 22.347656 244.285156 C 22.230469 244.640625 21.917969 244.898438 21.542969 244.9375 C 21.171875 244.976562 20.808594 244.796875 20.625 244.472656 L 17.777344 239.578125 C 17.644531 239.347656 17.617188 239.070312 17.695312 238.8125 L 21.636719 226.699219 C 21.785156 226.238281 22.261719 225.960938 22.734375 226.0625 Z M 22.734375 226.0625 " fill-opacity="1" fill-rule="nonzero"/></g></g></g><g clip-path="url(#3f4157d129)"><g clip-path="url(#338fedbed7)"><g clip-path="url(#154ef09f64)"><path fill="#38b6ff" d="M 28.898438 236.667969 L 41.375 239.238281 C 41.640625 239.296875 41.867188 239.457031 42 239.6875 L 44.847656 244.582031 C 45.035156 244.90625 45.011719 245.308594 44.792969 245.613281 C 44.574219 245.914062 44.195312 246.0625 43.832031 245.984375 L 32.1875 243.585938 L 28.511719 254.890625 C 28.394531 255.246094 28.082031 255.503906 27.710938 255.542969 C 27.335938 255.582031 26.976562 255.402344 26.789062 255.082031 L 23.941406 250.183594 C 23.808594 249.953125 23.78125 249.675781 23.859375 249.421875 L 27.800781 237.304688 C 27.949219 236.847656 28.425781 236.570312 28.898438 236.667969 Z M 28.898438 236.667969 " fill-opacity="1" fill-rule="nonzero"/></g></g></g><g clip-path="url(#741d4aefff)"><path fill="#38b6ff" d="M 20.015625 172.027344 L 29.507812 180.519531 C 29.710938 180.699219 29.824219 180.953125 29.824219 181.222656 L 29.824219 186.882812 C 29.824219 187.257812 29.605469 187.59375 29.261719 187.746094 C 28.917969 187.898438 28.515625 187.835938 28.242188 187.585938 L 19.378906 179.660156 L 10.523438 187.585938 C 10.242188 187.835938 9.84375 187.898438 9.5 187.746094 C 9.15625 187.59375 8.9375 187.257812 8.9375 186.882812 L 8.9375 181.222656 C 8.9375 180.953125 9.050781 180.699219 9.25 180.519531 L 18.746094 172.027344 C 19.105469 171.703125 19.65625 171.703125 20.015625 172.027344 Z M 20.015625 172.027344 " fill-opacity="1" fill-rule="nonzero"/></g><g clip-path="url(#fec829e34e)"><path fill="#38b6ff" d="M 20.015625 184.292969 L 29.507812 192.789062 C 29.710938 192.96875 29.824219 193.222656 29.824219 193.488281 L 29.824219 199.152344 C 29.824219 199.523438 29.605469 199.863281 29.261719 200.015625 C 28.917969 200.164062 28.515625 200.105469 28.242188 199.855469 L 19.378906 191.929688 L 10.523438 199.855469 C 10.242188 200.105469 9.84375 200.167969 9.5 200.015625 C 9.15625 199.863281 8.9375 199.523438 8.9375 199.152344 L 8.9375 193.488281 C 8.9375 193.222656 9.050781 192.96875 9.25 192.789062 L 18.746094 184.292969 C 19.105469 183.972656 19.65625 183.972656 20.015625 184.292969 Z M 20.015625 184.292969 " fill-opacity="1" fill-rule="nonzero"/></g><g clip-path="url(#1550e2de18)"><g clip-path="url(#a6b2723735)"><g clip-path="url(#e50fcd9313)"><path fill="#38b6ff" d="M 38.21875 122.101562 L 41.183594 134.492188 C 41.246094 134.753906 41.195312 135.027344 41.042969 135.246094 L 37.816406 139.902344 C 37.605469 140.207031 37.230469 140.359375 36.863281 140.289062 C 36.496094 140.21875 36.203125 139.941406 36.117188 139.578125 L 33.347656 128.015625 L 21.554688 129.484375 C 21.183594 129.53125 20.816406 129.355469 20.621094 129.035156 C 20.425781 128.714844 20.4375 128.308594 20.648438 128.003906 L 23.875 123.351562 C 24.027344 123.128906 24.269531 122.988281 24.53125 122.953125 L 37.175781 121.378906 C 37.65625 121.320312 38.105469 121.632812 38.21875 122.101562 Z M 38.21875 122.101562 " fill-opacity="1" fill-rule="nonzero"/></g></g></g><g clip-path="url(#aae857d201)"><g clip-path="url(#6addd9ebe0)"><g clip-path="url(#b6e682a136)"><path fill="#38b6ff" d="M 31.230469 132.1875 L 34.195312 144.574219 C 34.257812 144.839844 34.207031 145.109375 34.054688 145.332031 L 30.828125 149.984375 C 30.617188 150.289062 30.246094 150.441406 29.875 150.375 C 29.507812 150.300781 29.214844 150.023438 29.128906 149.660156 L 26.359375 138.101562 L 14.566406 139.566406 C 14.195312 139.613281 13.828125 139.4375 13.632812 139.117188 C 13.4375 138.796875 13.449219 138.394531 13.664062 138.085938 L 16.886719 133.433594 C 17.039062 133.214844 17.28125 133.070312 17.546875 133.035156 L 30.1875 131.460938 C 30.667969 131.402344 31.121094 131.714844 31.230469 132.1875 Z M 31.230469 132.1875 " fill-opacity="1" fill-rule="nonzero"/></g></g></g><g clip-path="url(#4812d599e2)"><g clip-path="url(#bc2ea595e7)"><g clip-path="url(#cc29dfb7c6)"><path fill="#5ce1e6" d="M 65.816406 90.09375 L 65.914062 102.832031 C 65.917969 103.101562 65.804688 103.355469 65.609375 103.535156 L 61.417969 107.34375 C 61.140625 107.59375 60.742188 107.660156 60.402344 107.507812 C 60.058594 107.355469 59.835938 107.015625 59.832031 106.644531 L 59.742188 94.757812 L 47.917969 93.53125 C 47.546875 93.492188 47.230469 93.238281 47.113281 92.882812 C 46.996094 92.523438 47.097656 92.136719 47.371094 91.886719 L 51.5625 88.078125 C 51.761719 87.898438 52.027344 87.8125 52.292969 87.835938 L 64.964844 89.152344 C 65.445312 89.203125 65.816406 89.609375 65.816406 90.09375 Z M 65.816406 90.09375 " fill-opacity="1" fill-rule="nonzero"/></g></g></g><g clip-path="url(#95bec2a1ff)"><g clip-path="url(#0c72570d30)"><g clip-path="url(#50ca4ff241)"><path fill="#5ce1e6" d="M 56.738281 98.34375 L 56.835938 111.082031 C 56.835938 111.351562 56.726562 111.605469 56.527344 111.785156 L 52.335938 115.59375 C 52.0625 115.84375 51.664062 115.90625 51.320312 115.757812 C 50.976562 115.605469 50.753906 115.265625 50.753906 114.894531 L 50.660156 103.007812 L 38.839844 101.78125 C 38.464844 101.742188 38.148438 101.488281 38.03125 101.132812 C 37.914062 100.773438 38.015625 100.382812 38.292969 100.132812 L 42.480469 96.328125 C 42.679688 96.148438 42.945312 96.0625 43.210938 96.085938 L 55.882812 97.402344 C 56.363281 97.453125 56.734375 97.859375 56.738281 98.34375 Z M 56.738281 98.34375 " fill-opacity="1" fill-rule="nonzero"/></g></g></g><g clip-path="url(#11faee3db0)"><g clip-path="url(#069de4c3f4)"><g clip-path="url(#9241cc7988)"><path fill="#38b6ff" d="M 100.488281 72.246094 L 97.054688 84.511719 C 96.980469 84.773438 96.800781 84.988281 96.5625 85.105469 L 91.480469 87.601562 C 91.148438 87.765625 90.746094 87.71875 90.457031 87.480469 C 90.171875 87.238281 90.050781 86.851562 90.152344 86.492188 L 93.355469 75.042969 L 82.335938 70.589844 C 81.988281 70.449219 81.753906 70.121094 81.742188 69.746094 C 81.726562 69.367188 81.933594 69.023438 82.265625 68.859375 L 87.347656 66.359375 C 87.589844 66.242188 87.867188 66.234375 88.117188 66.332031 L 99.925781 71.105469 C 100.375 71.285156 100.617188 71.78125 100.488281 72.246094 Z M 100.488281 72.246094 " fill-opacity="1" fill-rule="nonzero"/></g></g></g><g clip-path="url(#7818161733)"><g clip-path="url(#ddecf42dc1)"><g clip-path="url(#0e9fe8ec96)"><path fill="#38b6ff" d="M 89.476562 77.65625 L 86.042969 89.925781 C 85.96875 90.183594 85.792969 90.398438 85.550781 90.515625 L 80.472656 93.015625 C 80.136719 93.179688 79.738281 93.128906 79.449219 92.890625 C 79.160156 92.648438 79.039062 92.261719 79.140625 91.902344 L 82.347656 80.457031 L 71.324219 76.003906 C 70.980469 75.863281 70.746094 75.53125 70.730469 75.15625 C 70.71875 74.78125 70.921875 74.433594 71.257812 74.269531 L 76.339844 71.773438 C 76.578125 71.65625 76.855469 71.648438 77.105469 71.742188 L 88.917969 76.515625 C 89.367188 76.699219 89.609375 77.191406 89.476562 77.65625 Z M 89.476562 77.65625 " fill-opacity="1" fill-rule="nonzero"/></g></g></g><g clip-path="url(#bce2790bf5)"><path fill="#38b6ff" d="M 146.195312 68.148438 L 137.703125 77.640625 C 137.519531 77.84375 137.265625 77.957031 137 77.957031 L 131.335938 77.957031 C 130.964844 77.957031 130.628906 77.738281 130.472656 77.394531 C 130.324219 77.050781 130.386719 76.652344 130.636719 76.375 L 138.558594 67.515625 L 130.636719 58.65625 C 130.386719 58.375 130.320312 57.976562 130.472656 57.632812 C 130.628906 57.289062 130.964844 57.070312 131.335938 57.070312 L 137 57.070312 C 137.265625 57.070312 137.519531 57.1875 137.703125 57.382812 L 146.195312 66.878906 C 146.515625 67.238281 146.515625 67.789062 146.195312 68.148438 Z M 146.195312 68.148438 " fill-opacity="1" fill-rule="nonzero"/></g><g clip-path="url(#dad5ce0074)"><path fill="#38b6ff" d="M 133.925781 68.148438 L 125.433594 77.640625 C 125.25 77.84375 125 77.957031 124.730469 77.957031 L 119.070312 77.957031 C 118.695312 77.957031 118.359375 77.738281 118.207031 77.394531 C 118.054688 77.050781 118.117188 76.652344 118.367188 76.375 L 126.292969 67.515625 L 118.367188 58.65625 C 118.117188 58.375 118.054688 57.976562 118.207031 57.632812 C 118.359375 57.289062 118.695312 57.070312 119.070312 57.070312 L 124.730469 57.070312 C 125 57.070312 125.25 57.1875 125.433594 57.382812 L 133.925781 66.878906 C 134.25 67.238281 134.25 67.789062 133.925781 68.148438 Z M 133.925781 68.148438 " fill-opacity="1" fill-rule="nonzero"/></g><g clip-path="url(#94e931d66d)"><g clip-path="url(#422af02691)"><g clip-path="url(#d3ea5e919b)"><path fill="#38b6ff" d="M 182.71875 68.148438 L 173.941406 77.382812 C 173.753906 77.578125 173.5 77.6875 173.230469 77.675781 L 167.570312 77.507812 C 167.199219 77.496094 166.871094 77.265625 166.726562 76.917969 C 166.585938 76.570312 166.660156 76.171875 166.917969 75.902344 L 175.105469 67.285156 L 167.453125 58.191406 C 167.210938 57.90625 167.160156 57.503906 167.320312 57.167969 C 167.484375 56.828125 167.828125 56.617188 168.199219 56.628906 L 173.859375 56.800781 C 174.128906 56.808594 174.378906 56.929688 174.554688 57.132812 L 182.757812 66.878906 C 183.066406 67.25 183.050781 67.800781 182.71875 68.148438 Z M 182.71875 68.148438 " fill-opacity="1" fill-rule="nonzero"/></g></g></g><g clip-path="url(#ec982bfbc5)"><g clip-path="url(#56d44baf6b)"><g clip-path="url(#92e38965df)"><path fill="#38b6ff" d="M 170.457031 67.78125 L 161.679688 77.015625 C 161.492188 77.210938 161.238281 77.316406 160.96875 77.308594 L 155.308594 77.136719 C 154.9375 77.125 154.605469 76.894531 154.464844 76.550781 C 154.324219 76.203125 154.398438 75.804688 154.65625 75.535156 L 162.84375 66.917969 L 155.1875 57.824219 C 154.949219 57.539062 154.894531 57.136719 155.058594 56.796875 C 155.222656 56.460938 155.566406 56.25 155.9375 56.261719 L 161.597656 56.429688 C 161.867188 56.4375 162.113281 56.5625 162.289062 56.765625 L 170.492188 66.511719 C 170.804688 66.882812 170.789062 67.429688 170.457031 67.78125 Z M 170.457031 67.78125 " fill-opacity="1" fill-rule="nonzero"/></g></g></g><g clip-path="url(#f12184c0cb)"><g clip-path="url(#e304da182e)"><g clip-path="url(#1c0c3ec6c0)"><path fill="#38b6ff" d="M 294.371094 68.148438 L 285.59375 77.382812 C 285.40625 77.578125 285.152344 77.6875 284.882812 77.675781 L 279.222656 77.507812 C 278.851562 77.496094 278.523438 77.265625 278.378906 76.917969 C 278.238281 76.570312 278.3125 76.171875 278.570312 75.902344 L 286.757812 67.285156 L 279.105469 58.191406 C 278.863281 57.90625 278.8125 57.503906 278.972656 57.167969 C 279.136719 56.828125 279.480469 56.617188 279.851562 56.628906 L 285.511719 56.800781 C 285.78125 56.808594 286.03125 56.929688 286.207031 57.132812 L 294.410156 66.878906 C 294.71875 67.25 294.703125 67.800781 294.371094 68.148438 Z M 294.371094 68.148438 " fill-opacity="1" fill-rule="nonzero"/></g></g></g><g clip-path="url(#7c8da405fe)"><g clip-path="url(#47bcdbe34c)"><g clip-path="url(#2e2462b246)"><path fill="#38b6ff" d="M 282.109375 67.78125 L 273.332031 77.015625 C 273.144531 77.210938 272.890625 77.316406 272.621094 77.308594 L 266.960938 77.136719 C 266.589844 77.125 266.257812 76.894531 266.117188 76.550781 C 265.976562 76.203125 266.050781 75.804688 266.308594 75.535156 L 274.496094 66.917969 L 266.839844 57.824219 C 266.601562 57.539062 266.546875 57.136719 266.710938 56.796875 C 266.875 56.460938 267.21875 56.25 267.589844 56.261719 L 273.25 56.429688 C 273.519531 56.4375 273.765625 56.5625 273.941406 56.765625 L 282.144531 66.511719 C 282.457031 66.882812 282.441406 67.429688 282.109375 67.78125 Z M 282.109375 67.78125 " fill-opacity="1" fill-rule="nonzero"/></g></g></g><g clip-path="url(#0d03871763)"><g clip-path="url(#38b973e5a8)"><g clip-path="url(#3257fd84b0)"><path fill="#38b6ff" d="M 257.246094 68.148438 L 248.46875 77.382812 C 248.28125 77.578125 248.027344 77.6875 247.757812 77.675781 L 242.097656 77.507812 C 241.726562 77.496094 241.398438 77.265625 241.253906 76.917969 C 241.113281 76.570312 241.1875 76.171875 241.445312 75.902344 L 249.632812 67.285156 L 241.980469 58.191406 C 241.738281 57.90625 241.6875 57.503906 241.847656 57.167969 C 242.011719 56.828125 242.355469 56.617188 242.726562 56.628906 L 248.386719 56.800781 C 248.65625 56.808594 248.90625 56.929688 249.082031 57.132812 L 257.285156 66.878906 C 257.59375 67.25 257.578125 67.800781 257.246094 68.148438 Z M 257.246094 68.148438 " fill-opacity="1" fill-rule="nonzero"/></g></g></g><g clip-path="url(#8fe9f7e21f)"><g clip-path="url(#8772981452)"><g clip-path="url(#a13558fdb3)"><path fill="#38b6ff" d="M 244.984375 67.78125 L 236.207031 77.015625 C 236.019531 77.210938 235.765625 77.316406 235.496094 77.308594 L 229.835938 77.136719 C 229.464844 77.125 229.132812 76.894531 228.992188 76.550781 C 228.851562 76.203125 228.925781 75.804688 229.183594 75.535156 L 237.371094 66.917969 L 229.714844 57.824219 C 229.476562 57.539062 229.421875 57.136719 229.585938 56.796875 C 229.75 56.460938 230.09375 56.25 230.464844 56.261719 L 236.125 56.429688 C 236.394531 56.4375 236.640625 56.5625 236.816406 56.765625 L 245.019531 66.511719 C 245.332031 66.882812 245.316406 67.429688 244.984375 67.78125 Z M 244.984375 67.78125 " fill-opacity="1" fill-rule="nonzero"/></g></g></g><g clip-path="url(#71fa717019)"><g clip-path="url(#00f548d1b1)"><g clip-path="url(#7fa5179b59)"><path fill="#5ce1e6" d="M 220.730469 68.148438 L 211.953125 77.382812 C 211.765625 77.578125 211.511719 77.6875 211.242188 77.675781 L 205.582031 77.507812 C 205.210938 77.496094 204.878906 77.265625 204.738281 76.917969 C 204.597656 76.570312 204.671875 76.171875 204.929688 75.902344 L 213.117188 67.285156 L 205.460938 58.191406 C 205.222656 57.90625 205.167969 57.503906 205.332031 57.167969 C 205.496094 56.828125 205.839844 56.617188 206.210938 56.628906 L 211.871094 56.800781 C 212.140625 56.808594 212.386719 56.929688 212.5625 57.132812 L 220.765625 66.878906 C 221.078125 67.25 221.0625 67.800781 220.730469 68.148438 Z M 220.730469 68.148438 " fill-opacity="1" fill-rule="nonzero"/></g></g></g><g clip-path="url(#1e57f8a3fb)"><g clip-path="url(#03712c5194)"><g clip-path="url(#029606b546)"><path fill="#5ce1e6" d="M 208.464844 67.78125 L 199.691406 77.015625 C 199.503906 77.210938 199.246094 77.316406 198.980469 77.308594 L 193.320312 77.136719 C 192.949219 77.125 192.617188 76.894531 192.476562 76.550781 C 192.335938 76.203125 192.410156 75.804688 192.664062 75.535156 L 200.855469 66.917969 L 193.199219 57.824219 C 192.957031 57.539062 192.90625 57.136719 193.070312 56.796875 C 193.234375 56.460938 193.578125 56.25 193.949219 56.261719 L 199.609375 56.429688 C 199.875 56.4375 200.125 56.5625 200.300781 56.765625 L 208.503906 66.511719 C 208.816406 66.882812 208.800781 67.429688 208.464844 67.78125 Z M 208.464844 67.78125 " fill-opacity="1" fill-rule="nonzero"/></g></g></g></svg>