<svg xmlns="http://www.w3.org/2000/svg" xmlns:xlink="http://www.w3.org/1999/xlink" width="450" zoomAndPan="magnify" viewBox="0 0 337.5 374.999991" height="500" preserveAspectRatio="xMidYMid meet" version="1.0"><defs><clipPath id="09800ef72f"><path d="M 0 52.777344 L 303.75 52.777344 L 303.75 323 L 0 323 Z M 0 52.777344 " clip-rule="nonzero"/></clipPath><clipPath id="ec18345fa4"><path d="M 7.917969 142.824219 C 3.136719 156.667969 0 172.40625 0 187.851562 C 0 203.296875 2.6875 218.15625 7.46875 231.855469 C 7.621094 232.144531 7.621094 232.4375 7.769531 232.730469 C 26.890625 284.164062 77.390625 322.050781 135.65625 322.777344 L 303.75 322.777344 L 303.75 52.777344 L 135.78125 52.777344 C 77.09375 53.507812 26.59375 90.808594 7.917969 142.824219 " clip-rule="nonzero"/></clipPath><clipPath id="5fc6bc9d26"><path d="M 0 52.777344 L 303.75 52.777344 L 303.75 322.777344 L 0 322.777344 Z M 0 52.777344 " clip-rule="nonzero"/></clipPath><clipPath id="055403948a"><path d="M 7.917969 142.824219 C 3.136719 156.667969 0 172.40625 0 187.851562 C 0 203.296875 2.6875 218.15625 7.46875 231.855469 C 7.621094 232.144531 7.621094 232.4375 7.769531 232.730469 C 26.890625 284.164062 77.390625 322.050781 135.65625 322.777344 L 303.75 322.777344 L 303.75 52.777344 L 135.78125 52.777344 C 77.09375 53.507812 26.59375 90.808594 7.917969 142.824219 " clip-rule="nonzero"/></clipPath><clipPath id="237b6231c5"><path d="M 33 77 L 250 77 L 250 295 L 33 295 Z M 33 77 " clip-rule="nonzero"/></clipPath><clipPath id="61d534cb94"><path d="M 66.3125 318.820312 L 8.871094 110.300781 L 217.390625 52.859375 L 274.832031 261.382812 Z M 66.3125 318.820312 " clip-rule="nonzero"/></clipPath><clipPath id="e05fc3eaef"><path d="M 37.628906 214.699219 C 53.46875 272.207031 112.925781 305.980469 170.433594 290.140625 C 227.9375 274.300781 261.710938 214.839844 245.871094 157.335938 C 230.03125 99.832031 170.574219 66.054688 113.066406 81.898438 C 55.5625 97.738281 21.789062 157.195312 37.628906 214.699219 " clip-rule="nonzero"/></clipPath><clipPath id="8726527f5a"><path d="M 33 77 L 250 77 L 250 295 L 33 295 Z M 33 77 " clip-rule="nonzero"/></clipPath><clipPath id="4b32c0af65"><path d="M 66.3125 318.820312 L 8.945312 110.578125 L 217.1875 53.214844 L 274.554688 261.457031 Z M 66.3125 318.820312 " clip-rule="nonzero"/></clipPath><clipPath id="4c096d747d"><path d="M 66.3125 318.820312 L 8.136719 107.632812 L 219.324219 49.457031 L 277.5 260.644531 Z M 66.3125 318.820312 " clip-rule="nonzero"/></clipPath><clipPath id="df075c546b"><path d="M 37.628906 214.699219 C 53.46875 272.207031 112.925781 305.980469 170.433594 290.140625 C 227.9375 274.300781 261.710938 214.839844 245.871094 157.335938 C 230.03125 99.832031 170.574219 66.054688 113.066406 81.898438 C 55.5625 97.738281 21.789062 157.195312 37.628906 214.699219 " clip-rule="nonzero"/></clipPath><clipPath id="8d9814e33c"><path d="M 75 188 L 111 188 L 111 215 L 75 215 Z M 75 188 " clip-rule="nonzero"/></clipPath><clipPath id="eda6407065"><path d="M 80.03125 214.046875 L 75.140625 196.554688 L 105.886719 187.957031 L 110.777344 205.449219 Z M 80.03125 214.046875 " clip-rule="nonzero"/></clipPath><clipPath id="15f68c3c2e"><path d="M 80.03125 214.046875 L 75.246094 196.9375 L 105.804688 188.394531 L 110.585938 205.503906 Z M 80.03125 214.046875 " clip-rule="nonzero"/></clipPath><clipPath id="da590b2e7b"><path d="M 139 123 L 166 123 L 166 159 L 139 159 Z M 139 123 " clip-rule="nonzero"/></clipPath><clipPath id="ed035e302a"><path d="M 156.800781 158.699219 L 139.253906 153.996094 L 147.519531 123.160156 L 165.066406 127.863281 Z M 156.800781 158.699219 " clip-rule="nonzero"/></clipPath><clipPath id="666c45955c"><path d="M 156.800781 158.699219 L 139.640625 154.101562 L 147.855469 123.453125 L 165.015625 128.054688 Z M 156.800781 158.699219 " clip-rule="nonzero"/></clipPath><clipPath id="f7a83ca61c"><path d="M 93 141 L 175 141 L 175 223 L 93 223 Z M 93 141 " clip-rule="nonzero"/></clipPath><clipPath id="6fd61b7ab6"><path d="M 204.460938 192.566406 L 144.59375 253.191406 L 91.949219 201.203125 L 151.8125 140.578125 Z M 204.460938 192.566406 " clip-rule="nonzero"/></clipPath><clipPath id="756073081c"><path d="M 174.757812 222.644531 L 92.917969 201.242188 L 152.324219 141.082031 L 174.757812 222.644531 " clip-rule="nonzero"/></clipPath><clipPath id="90004f4b24"><path d="M 151 199 L 187 199 L 187 235 L 151 235 Z M 151 199 " clip-rule="nonzero"/></clipPath><clipPath id="5c40624e14"><path d="M 186.617188 221.867188 L 173.855469 234.792969 L 151.140625 212.363281 L 163.902344 199.4375 Z M 186.617188 221.867188 " clip-rule="nonzero"/></clipPath><clipPath id="ef3b9fc290"><path d="M 186.617188 221.867188 L 174.136719 234.511719 L 151.558594 212.21875 L 164.042969 199.574219 Z M 186.617188 221.867188 " clip-rule="nonzero"/></clipPath><clipPath id="d186ca7dfb"><path d="M 167 214 L 223 214 L 223 271 L 167 271 Z M 167 214 " clip-rule="nonzero"/></clipPath><clipPath id="4a26284898"><path d="M 195.660156 203.308594 L 234.328125 243.292969 L 194.34375 281.960938 L 155.675781 241.976562 Z M 195.660156 203.308594 " clip-rule="nonzero"/></clipPath><clipPath id="f1645f3535"><path d="M 214.992188 223.300781 C 204.316406 212.261719 186.707031 211.964844 175.667969 222.644531 C 164.625 233.320312 164.332031 250.925781 175.011719 261.96875 C 185.6875 273.007812 203.292969 273.304688 214.335938 262.625 C 225.375 251.949219 225.671875 234.34375 214.992188 223.300781 " clip-rule="nonzero"/></clipPath><clipPath id="d3cde91f07"><path d="M 167 214 L 223 214 L 223 271 L 167 271 Z M 167 214 " clip-rule="nonzero"/></clipPath><clipPath id="91b8a6cd62"><path d="M 195.660156 203.308594 L 234.242188 243.207031 L 194.347656 281.789062 L 155.765625 241.890625 Z M 195.660156 203.308594 " clip-rule="nonzero"/></clipPath><clipPath id="5d262a70e4"><path d="M 195.660156 203.308594 L 234.242188 243.207031 L 194.347656 281.789062 L 155.765625 241.890625 Z M 195.660156 203.308594 " clip-rule="nonzero"/></clipPath><clipPath id="1452c625d5"><path d="M 214.949219 223.257812 C 204.296875 212.242188 186.730469 211.945312 175.710938 222.601562 C 164.695312 233.253906 164.402344 250.824219 175.054688 261.839844 C 185.710938 272.855469 203.277344 273.152344 214.292969 262.496094 C 225.3125 251.84375 225.605469 234.273438 214.949219 223.257812 " clip-rule="nonzero"/></clipPath><clipPath id="add86edcc6"><path d="M 132 84 L 188 84 L 188 140 L 132 140 Z M 132 84 " clip-rule="nonzero"/></clipPath><clipPath id="a589598ee1"><path d="M 193.859375 92.207031 L 179.78125 146.019531 L 125.96875 131.941406 L 140.046875 78.128906 Z M 193.859375 92.207031 " clip-rule="nonzero"/></clipPath><clipPath id="05373329cb"><path d="M 186.820312 119.113281 C 190.707031 104.253906 181.8125 89.058594 166.953125 85.167969 C 152.09375 81.28125 136.894531 90.175781 133.007812 105.035156 C 129.121094 119.894531 138.015625 135.09375 152.875 138.980469 C 167.734375 142.867188 182.933594 133.972656 186.820312 119.113281 " clip-rule="nonzero"/></clipPath><clipPath id="e9a5763e57"><path d="M 132 84 L 188 84 L 188 140 L 132 140 Z M 132 84 " clip-rule="nonzero"/></clipPath><clipPath id="19aa563417"><path d="M 193.859375 92.207031 L 179.8125 145.902344 L 126.117188 131.855469 L 140.167969 78.160156 Z M 193.859375 92.207031 " clip-rule="nonzero"/></clipPath><clipPath id="3b56719180"><path d="M 193.859375 92.207031 L 179.8125 145.902344 L 126.117188 131.855469 L 140.167969 78.160156 Z M 193.859375 92.207031 " clip-rule="nonzero"/></clipPath><clipPath id="fa860153d6"><path d="M 186.835938 119.054688 C 190.714844 104.226562 181.839844 89.0625 167.011719 85.183594 C 152.1875 81.304688 137.019531 90.179688 133.140625 105.007812 C 129.261719 119.835938 138.136719 135 152.964844 138.878906 C 167.792969 142.757812 182.957031 133.882812 186.835938 119.054688 " clip-rule="nonzero"/></clipPath><clipPath id="28c645dcdd"><path d="M 40 180 L 96 180 L 96 236 L 40 236 Z M 40 180 " clip-rule="nonzero"/></clipPath><clipPath id="6ed91e9a0f"><path d="M 87.382812 173.710938 L 102.15625 227.335938 L 48.53125 242.109375 L 33.757812 188.484375 Z M 87.382812 173.710938 " clip-rule="nonzero"/></clipPath><clipPath id="e7a95f596c"><path d="M 94.769531 200.523438 C 90.691406 185.714844 75.378906 177.019531 60.570312 181.097656 C 45.761719 185.175781 37.066406 200.488281 41.144531 215.296875 C 45.222656 230.105469 60.535156 238.800781 75.34375 234.722656 C 90.152344 230.644531 98.847656 215.332031 94.769531 200.523438 " clip-rule="nonzero"/></clipPath><clipPath id="d99e826b2a"><path d="M 40 180 L 96 180 L 96 236 L 40 236 Z M 40 180 " clip-rule="nonzero"/></clipPath><clipPath id="175b9e2e94"><path d="M 87.382812 173.710938 L 102.121094 227.21875 L 48.617188 241.957031 L 33.875 188.449219 Z M 87.382812 173.710938 " clip-rule="nonzero"/></clipPath><clipPath id="35454222b8"><path d="M 87.382812 173.710938 L 102.121094 227.21875 L 48.617188 241.957031 L 33.875 188.449219 Z M 87.382812 173.710938 " clip-rule="nonzero"/></clipPath><clipPath id="2b7b687179"><path d="M 94.753906 200.464844 C 90.683594 185.6875 75.40625 177.011719 60.628906 181.082031 C 45.855469 185.152344 37.175781 200.429688 41.246094 215.203125 C 45.316406 229.980469 60.59375 238.660156 75.371094 234.589844 C 90.144531 230.519531 98.824219 215.242188 94.753906 200.464844 " clip-rule="nonzero"/></clipPath><clipPath id="6fd6cfa4b1"><path d="M 188 235 L 202 235 L 202 250 L 188 250 Z M 188 235 " clip-rule="nonzero"/></clipPath><clipPath id="616fae55a0"><path d="M 204.871094 242.566406 L 195.0625 252.5 L 185.128906 242.691406 L 194.9375 232.757812 Z M 204.871094 242.566406 " clip-rule="nonzero"/></clipPath><clipPath id="8014c6dc4a"><path d="M 199.96875 247.535156 C 202.675781 244.792969 202.648438 240.371094 199.90625 237.664062 C 197.164062 234.953125 192.742188 234.984375 190.035156 237.726562 C 187.324219 240.46875 187.355469 244.886719 190.097656 247.597656 C 192.839844 250.304688 197.257812 250.277344 199.96875 247.535156 " clip-rule="nonzero"/></clipPath><clipPath id="6cfcc00a70"><path d="M 152 105 L 167 105 L 167 120 L 152 120 Z M 152 105 " clip-rule="nonzero"/></clipPath><clipPath id="13254c64b8"><path d="M 164.902344 120.589844 L 151.398438 117.054688 L 154.933594 103.550781 L 168.4375 107.085938 Z M 164.902344 120.589844 " clip-rule="nonzero"/></clipPath><clipPath id="8720c3be65"><path d="M 158.152344 118.824219 C 161.878906 119.796875 165.695312 117.566406 166.667969 113.835938 C 167.644531 110.109375 165.414062 106.292969 161.683594 105.316406 C 157.953125 104.34375 154.140625 106.574219 153.164062 110.304688 C 152.1875 114.03125 154.421875 117.847656 158.152344 118.824219 " clip-rule="nonzero"/></clipPath><clipPath id="b0652fa02d"><path d="M 61 201 L 76 201 L 76 216 L 61 216 Z M 61 201 " clip-rule="nonzero"/></clipPath><clipPath id="c566083845"><path d="M 78.125 208.839844 L 68.316406 218.773438 L 58.382812 208.964844 L 68.191406 199.03125 Z M 78.125 208.839844 " clip-rule="nonzero"/></clipPath><clipPath id="ea429e92d6"><path d="M 73.21875 213.804688 C 75.929688 211.0625 75.902344 206.644531 73.15625 203.933594 C 70.414062 201.226562 65.996094 201.253906 63.289062 203.996094 C 60.578125 206.738281 60.605469 211.160156 63.347656 213.867188 C 66.09375 216.574219 70.511719 216.546875 73.21875 213.804688 " clip-rule="nonzero"/></clipPath><clipPath id="c0cb64d0fd"><path d="M 100 242 L 148 242 L 148 257 L 100 257 Z M 100 242 " clip-rule="nonzero"/></clipPath><clipPath id="45fd6837e5"><path d="M 101.046875 239.628906 L 147.636719 247.492188 L 145.390625 260.804688 L 98.796875 252.941406 Z M 101.046875 239.628906 " clip-rule="nonzero"/></clipPath><clipPath id="13b3f2f058"><path d="M 147.820312 247.523438 L 101.230469 239.660156 L 98.984375 252.972656 L 145.574219 260.835938 Z M 147.820312 247.523438 " clip-rule="nonzero"/></clipPath><clipPath id="636b644472"><path d="M 147.820312 247.523438 L 101.230469 239.660156 L 98.984375 252.972656 L 145.574219 260.835938 Z M 147.820312 247.523438 " clip-rule="nonzero"/></clipPath><clipPath id="5641e6676d"><path d="M 139 252 L 140 252 L 140 253 L 139 253 Z M 139 252 " clip-rule="nonzero"/></clipPath><clipPath id="684bea4a83"><path d="M 101.046875 239.628906 L 147.636719 247.492188 L 145.390625 260.804688 L 98.796875 252.941406 Z M 101.046875 239.628906 " clip-rule="nonzero"/></clipPath><clipPath id="e5164d31ae"><path d="M 147.820312 247.523438 L 101.230469 239.660156 L 98.984375 252.972656 L 145.574219 260.835938 Z M 147.820312 247.523438 " clip-rule="nonzero"/></clipPath><clipPath id="edfc635beb"><path d="M 147.820312 247.523438 L 101.230469 239.660156 L 98.984375 252.972656 L 145.574219 260.835938 Z M 147.820312 247.523438 " clip-rule="nonzero"/></clipPath><clipPath id="579c634382"><path d="M 78 124 L 111 124 L 111 163 L 78 163 Z M 78 124 " clip-rule="nonzero"/></clipPath><clipPath id="8e755e0804"><path d="M 113.390625 129.171875 L 80.140625 162.742188 L 70.550781 153.242188 L 103.796875 119.671875 Z M 113.390625 129.171875 " clip-rule="nonzero"/></clipPath><clipPath id="4d57085bab"><path d="M 80.011719 162.875 L 113.257812 129.304688 L 103.667969 119.804688 L 70.417969 153.378906 Z M 80.011719 162.875 " clip-rule="nonzero"/></clipPath><clipPath id="ee91dc505a"><path d="M 80.011719 162.875 L 113.257812 129.304688 L 103.667969 119.804688 L 70.417969 153.378906 Z M 80.011719 162.875 " clip-rule="nonzero"/></clipPath><clipPath id="8d5ee056bb"><path d="M 80 153 L 81 153 L 81 154 L 80 154 Z M 80 153 " clip-rule="nonzero"/></clipPath><clipPath id="6e5e81fcd6"><path d="M 113.390625 129.171875 L 80.140625 162.742188 L 70.550781 153.242188 L 103.796875 119.671875 Z M 113.390625 129.171875 " clip-rule="nonzero"/></clipPath><clipPath id="73b84852e1"><path d="M 80.011719 162.875 L 113.257812 129.304688 L 103.667969 119.804688 L 70.417969 153.378906 Z M 80.011719 162.875 " clip-rule="nonzero"/></clipPath><clipPath id="2581c97cf4"><path d="M 80.011719 162.875 L 113.257812 129.304688 L 103.667969 119.804688 L 70.417969 153.378906 Z M 80.011719 162.875 " clip-rule="nonzero"/></clipPath><clipPath id="6477e9ab3b"><path d="M 193 146 L 213 146 L 213 192 L 193 192 Z M 193 146 " clip-rule="nonzero"/></clipPath><clipPath id="4ecb4fbe10"><path d="M 202.128906 192.792969 L 193.496094 146.339844 L 206.769531 143.871094 L 215.402344 190.328125 Z M 202.128906 192.792969 " clip-rule="nonzero"/></clipPath><clipPath id="1bf1a6f59e"><path d="M 193.460938 146.15625 L 202.09375 192.609375 L 215.367188 190.144531 L 206.734375 143.6875 Z M 193.460938 146.15625 " clip-rule="nonzero"/></clipPath><clipPath id="1ee7163299"><path d="M 193.460938 146.15625 L 202.09375 192.609375 L 215.367188 190.144531 L 206.734375 143.6875 Z M 193.460938 146.15625 " clip-rule="nonzero"/></clipPath><clipPath id="2c5766173b"><path d="M 200 152 L 201 152 L 201 153 L 200 153 Z M 200 152 " clip-rule="nonzero"/></clipPath><clipPath id="dd0c1405cc"><path d="M 202.128906 192.792969 L 193.496094 146.339844 L 206.769531 143.871094 L 215.402344 190.328125 Z M 202.128906 192.792969 " clip-rule="nonzero"/></clipPath><clipPath id="2aebe64ea0"><path d="M 193.460938 146.15625 L 202.09375 192.609375 L 215.367188 190.144531 L 206.734375 143.6875 Z M 193.460938 146.15625 " clip-rule="nonzero"/></clipPath><clipPath id="293fc12ea4"><path d="M 193.460938 146.15625 L 202.09375 192.609375 L 215.367188 190.144531 L 206.734375 143.6875 Z M 193.460938 146.15625 " clip-rule="nonzero"/></clipPath><clipPath id="8f87f760fd"><path d="M 266.625 297.128906 L 283 297.128906 L 283 318.128906 L 266.625 318.128906 Z M 266.625 297.128906 " clip-rule="nonzero"/></clipPath><clipPath id="8d93f79da2"><path d="M 278 297.128906 L 294.785156 297.128906 L 294.785156 318.128906 L 278 318.128906 Z M 278 297.128906 " clip-rule="nonzero"/></clipPath><clipPath id="e7ae7f6634"><path d="M 229.5 297.128906 L 246 297.128906 L 246 318.128906 L 229.5 318.128906 Z M 229.5 297.128906 " clip-rule="nonzero"/></clipPath><clipPath id="0fa0c712d0"><path d="M 241 297.128906 L 257.660156 297.128906 L 257.660156 318.128906 L 241 318.128906 Z M 241 297.128906 " clip-rule="nonzero"/></clipPath><clipPath id="127462856c"><path d="M 192.375 297.128906 L 209 297.128906 L 209 318.128906 L 192.375 318.128906 Z M 192.375 297.128906 " clip-rule="nonzero"/></clipPath><clipPath id="31c096c364"><path d="M 204 297.128906 L 220.535156 297.128906 L 220.535156 318.128906 L 204 318.128906 Z M 204 297.128906 " clip-rule="nonzero"/></clipPath><clipPath id="0cc5a4d5ce"><path d="M 155.25 297.128906 L 172 297.128906 L 172 318.128906 L 155.25 318.128906 Z M 155.25 297.128906 " clip-rule="nonzero"/></clipPath><clipPath id="dfa617753c"><path d="M 167 297.128906 L 183.410156 297.128906 L 183.410156 318.128906 L 167 318.128906 Z M 167 297.128906 " clip-rule="nonzero"/></clipPath><clipPath id="7873970fb2"><path d="M 117 297 L 135 297 L 135 319 L 117 319 Z M 117 297 " clip-rule="nonzero"/></clipPath><clipPath id="c5b9a7d7eb"><path d="M 117.945312 297.378906 L 146.441406 296.875 L 146.8125 317.871094 L 118.316406 318.375 Z M 117.945312 297.378906 " clip-rule="nonzero"/></clipPath><clipPath id="dd6c675dcd"><path d="M 146.101562 296.878906 L 117.605469 297.382812 L 117.976562 318.378906 L 146.472656 317.875 Z M 146.101562 296.878906 " clip-rule="nonzero"/></clipPath><clipPath id="56ba8c1bee"><path d="M 130 296 L 147 296 L 147 318 L 130 318 Z M 130 296 " clip-rule="nonzero"/></clipPath><clipPath id="efe02857a4"><path d="M 117.945312 297.378906 L 146.441406 296.875 L 146.8125 317.871094 L 118.316406 318.375 Z M 117.945312 297.378906 " clip-rule="nonzero"/></clipPath><clipPath id="b7b8c51e73"><path d="M 146.101562 296.878906 L 117.605469 297.382812 L 117.976562 318.378906 L 146.472656 317.875 Z M 146.101562 296.878906 " clip-rule="nonzero"/></clipPath><clipPath id="6925559bdc"><path d="M 75 282 L 95 282 L 95 304 L 75 304 Z M 75 282 " clip-rule="nonzero"/></clipPath><clipPath id="a66b421456"><path d="M 81.105469 277.734375 L 105.09375 293.121094 L 93.757812 310.796875 L 69.765625 295.410156 Z M 81.105469 277.734375 " clip-rule="nonzero"/></clipPath><clipPath id="76b09962a0"><path d="M 104.808594 292.9375 L 80.816406 277.550781 L 69.480469 295.226562 L 93.46875 310.613281 Z M 104.808594 292.9375 " clip-rule="nonzero"/></clipPath><clipPath id="c9f9b75a5a"><path d="M 85 289 L 105 289 L 105 311 L 85 311 Z M 85 289 " clip-rule="nonzero"/></clipPath><clipPath id="31059164c8"><path d="M 81.105469 277.734375 L 105.09375 293.121094 L 93.757812 310.796875 L 69.765625 295.410156 Z M 81.105469 277.734375 " clip-rule="nonzero"/></clipPath><clipPath id="f462da5df2"><path d="M 104.808594 292.9375 L 80.816406 277.550781 L 69.480469 295.226562 L 93.46875 310.613281 Z M 104.808594 292.9375 " clip-rule="nonzero"/></clipPath><clipPath id="bca4cc96e0"><path d="M 39 261 L 60 261 L 60 282 L 39 282 Z M 39 261 " clip-rule="nonzero"/></clipPath><clipPath id="b1e56d2b0d"><path d="M 48.058594 255.742188 L 68.585938 275.511719 L 54.019531 290.636719 L 33.492188 270.867188 Z M 48.058594 255.742188 " clip-rule="nonzero"/></clipPath><clipPath id="2c266fc16a"><path d="M 68.339844 275.277344 L 47.8125 255.503906 L 33.246094 270.632812 L 53.773438 290.402344 Z M 68.339844 275.277344 " clip-rule="nonzero"/></clipPath><clipPath id="26505ca67f"><path d="M 48 270 L 68 270 L 68 290 L 48 290 Z M 48 270 " clip-rule="nonzero"/></clipPath><clipPath id="718fe2e3a3"><path d="M 48.058594 255.742188 L 68.585938 275.511719 L 54.019531 290.636719 L 33.492188 270.867188 Z M 48.058594 255.742188 " clip-rule="nonzero"/></clipPath><clipPath id="89aff5234c"><path d="M 68.339844 275.277344 L 47.8125 255.503906 L 33.246094 270.632812 L 53.773438 290.402344 Z M 68.339844 275.277344 " clip-rule="nonzero"/></clipPath><clipPath id="7e687fe4bc"><path d="M 17 226 L 39 226 L 39 245 L 17 245 Z M 17 226 " clip-rule="nonzero"/></clipPath><clipPath id="b1d639fa12"><path d="M 31.21875 221.023438 L 45.539062 245.664062 L 27.386719 256.21875 L 13.0625 231.578125 Z M 31.21875 221.023438 " clip-rule="nonzero"/></clipPath><clipPath id="60341ad90e"><path d="M 45.371094 245.371094 L 31.046875 220.730469 L 12.890625 231.285156 L 27.214844 255.925781 Z M 45.371094 245.371094 " clip-rule="nonzero"/></clipPath><clipPath id="dffdfea52a"><path d="M 23 236 L 45 236 L 45 256 L 23 256 Z M 23 236 " clip-rule="nonzero"/></clipPath><clipPath id="c048c664f6"><path d="M 31.21875 221.023438 L 45.539062 245.664062 L 27.386719 256.21875 L 13.0625 231.578125 Z M 31.21875 221.023438 " clip-rule="nonzero"/></clipPath><clipPath id="7c6208c6d2"><path d="M 45.371094 245.371094 L 31.046875 220.730469 L 12.890625 231.285156 L 27.214844 255.925781 Z M 45.371094 245.371094 " clip-rule="nonzero"/></clipPath><clipPath id="39fba14fe1"><path d="M 8.878906 171.9375 L 29.878906 171.9375 L 29.878906 188 L 8.878906 188 Z M 8.878906 171.9375 " clip-rule="nonzero"/></clipPath><clipPath id="f303bd75b2"><path d="M 8.878906 184 L 29.878906 184 L 29.878906 200.097656 L 8.878906 200.097656 Z M 8.878906 184 " clip-rule="nonzero"/></clipPath><clipPath id="a747d9dda0"><path d="M 20 121 L 42 121 L 42 141 L 20 141 Z M 20 121 " clip-rule="nonzero"/></clipPath><clipPath id="1ed5a178ea"><path d="M 46.378906 127.648438 L 30.144531 151.074219 L 12.882812 139.109375 L 29.117188 115.6875 Z M 46.378906 127.648438 " clip-rule="nonzero"/></clipPath><clipPath id="a3f9be0a5d"><path d="M 30.339844 150.792969 L 46.574219 127.367188 L 29.3125 115.40625 L 13.078125 138.832031 Z M 30.339844 150.792969 " clip-rule="nonzero"/></clipPath><clipPath id="e4c0268975"><path d="M 13 131 L 35 131 L 35 151 L 13 151 Z M 13 131 " clip-rule="nonzero"/></clipPath><clipPath id="2b8cf7b3ef"><path d="M 46.378906 127.648438 L 30.144531 151.074219 L 12.882812 139.109375 L 29.117188 115.6875 Z M 46.378906 127.648438 " clip-rule="nonzero"/></clipPath><clipPath id="2c868d171d"><path d="M 30.339844 150.792969 L 46.574219 127.367188 L 29.3125 115.40625 L 13.078125 138.832031 Z M 30.339844 150.792969 " clip-rule="nonzero"/></clipPath><clipPath id="cb04303bc9"><path d="M 47 87 L 66 87 L 66 108 L 47 108 Z M 47 87 " clip-rule="nonzero"/></clipPath><clipPath id="2d043ab7b9"><path d="M 72.519531 97.332031 L 51.425781 116.5 L 37.304688 100.957031 L 58.398438 81.789062 Z M 72.519531 97.332031 " clip-rule="nonzero"/></clipPath><clipPath id="d8b4f8b309"><path d="M 51.675781 116.269531 L 72.769531 97.105469 L 58.648438 81.5625 L 37.554688 100.726562 Z M 51.675781 116.269531 " clip-rule="nonzero"/></clipPath><clipPath id="5e78e97987"><path d="M 37 96 L 57 96 L 57 116 L 37 116 Z M 37 96 " clip-rule="nonzero"/></clipPath><clipPath id="d03158b1e2"><path d="M 72.519531 97.332031 L 51.425781 116.5 L 37.304688 100.957031 L 58.398438 81.789062 Z M 72.519531 97.332031 " clip-rule="nonzero"/></clipPath><clipPath id="ba5b2dc4e1"><path d="M 51.675781 116.269531 L 72.769531 97.105469 L 58.648438 81.5625 L 37.554688 100.726562 Z M 51.675781 116.269531 " clip-rule="nonzero"/></clipPath><clipPath id="b394941abb"><path d="M 81 66 L 101 66 L 101 88 L 81 88 Z M 81 66 " clip-rule="nonzero"/></clipPath><clipPath id="d25bbd1ec4"><path d="M 104.921875 81.058594 L 79.34375 93.632812 L 70.078125 74.785156 L 95.65625 62.214844 Z M 104.921875 81.058594 " clip-rule="nonzero"/></clipPath><clipPath id="3d1e3b320f"><path d="M 79.648438 93.480469 L 105.226562 80.910156 L 95.960938 62.0625 L 70.382812 74.636719 Z M 79.648438 93.480469 " clip-rule="nonzero"/></clipPath><clipPath id="853d61a468"><path d="M 70 71 L 90 71 L 90 94 L 70 94 Z M 70 71 " clip-rule="nonzero"/></clipPath><clipPath id="dc7ba25c88"><path d="M 104.921875 81.058594 L 79.34375 93.632812 L 70.078125 74.785156 L 95.65625 62.214844 Z M 104.921875 81.058594 " clip-rule="nonzero"/></clipPath><clipPath id="4d007f62f9"><path d="M 79.648438 93.480469 L 105.226562 80.910156 L 95.960938 62.0625 L 70.382812 74.636719 Z M 79.648438 93.480469 " clip-rule="nonzero"/></clipPath><clipPath id="8430eea6f2"><path d="M 130 57.015625 L 146.285156 57.015625 L 146.285156 78 L 130 78 Z M 130 57.015625 " clip-rule="nonzero"/></clipPath><clipPath id="39a0fbddd6"><path d="M 118.125 57.015625 L 135 57.015625 L 135 78 L 118.125 78 Z M 118.125 57.015625 " clip-rule="nonzero"/></clipPath><clipPath id="61818a76b8"><path d="M 166 56 L 183 56 L 183 78 L 166 78 Z M 166 56 " clip-rule="nonzero"/></clipPath><clipPath id="6cacd37aa2"><path d="M 182.511719 78.011719 L 154.023438 77.15625 L 154.65625 56.164062 L 183.144531 57.023438 Z M 182.511719 78.011719 " clip-rule="nonzero"/></clipPath><clipPath id="27d172125b"><path d="M 154.363281 77.164062 L 182.851562 78.023438 L 183.484375 57.035156 L 154.996094 56.175781 Z M 154.363281 77.164062 " clip-rule="nonzero"/></clipPath><clipPath id="bcbe429fa7"><path d="M 154 56 L 171 56 L 171 78 L 154 78 Z M 154 56 " clip-rule="nonzero"/></clipPath><clipPath id="446f6f6f50"><path d="M 182.511719 78.011719 L 154.023438 77.15625 L 154.65625 56.164062 L 183.144531 57.023438 Z M 182.511719 78.011719 " clip-rule="nonzero"/></clipPath><clipPath id="b93f54f7fe"><path d="M 154.363281 77.164062 L 182.851562 78.023438 L 183.484375 57.035156 L 154.996094 56.175781 Z M 154.363281 77.164062 " clip-rule="nonzero"/></clipPath><clipPath id="060c804579"><path d="M 278 56 L 295 56 L 295 78 L 278 78 Z M 278 56 " clip-rule="nonzero"/></clipPath><clipPath id="eac81d15fa"><path d="M 294.164062 78.011719 L 265.675781 77.15625 L 266.308594 56.164062 L 294.796875 57.023438 Z M 294.164062 78.011719 " clip-rule="nonzero"/></clipPath><clipPath id="a442733e5d"><path d="M 266.015625 77.164062 L 294.503906 78.023438 L 295.136719 57.035156 L 266.648438 56.175781 Z M 266.015625 77.164062 " clip-rule="nonzero"/></clipPath><clipPath id="78344ae2f6"><path d="M 266 56 L 283 56 L 283 78 L 266 78 Z M 266 56 " clip-rule="nonzero"/></clipPath><clipPath id="5973b7353a"><path d="M 294.164062 78.011719 L 265.675781 77.15625 L 266.308594 56.164062 L 294.796875 57.023438 Z M 294.164062 78.011719 " clip-rule="nonzero"/></clipPath><clipPath id="7c67da9d87"><path d="M 266.015625 77.164062 L 294.503906 78.023438 L 295.136719 57.035156 L 266.648438 56.175781 Z M 266.015625 77.164062 " clip-rule="nonzero"/></clipPath><clipPath id="54530aa95b"><path d="M 241 56 L 258 56 L 258 78 L 241 78 Z M 241 56 " clip-rule="nonzero"/></clipPath><clipPath id="6234717458"><path d="M 257.039062 78.011719 L 228.550781 77.15625 L 229.183594 56.164062 L 257.671875 57.023438 Z M 257.039062 78.011719 " clip-rule="nonzero"/></clipPath><clipPath id="fc66c0129e"><path d="M 228.890625 77.164062 L 257.378906 78.023438 L 258.011719 57.035156 L 229.523438 56.175781 Z M 228.890625 77.164062 " clip-rule="nonzero"/></clipPath><clipPath id="f8442fc3f2"><path d="M 228 56 L 246 56 L 246 78 L 228 78 Z M 228 56 " clip-rule="nonzero"/></clipPath><clipPath id="e6fce8b35b"><path d="M 257.039062 78.011719 L 228.550781 77.15625 L 229.183594 56.164062 L 257.671875 57.023438 Z M 257.039062 78.011719 " clip-rule="nonzero"/></clipPath><clipPath id="003096ef14"><path d="M 228.890625 77.164062 L 257.378906 78.023438 L 258.011719 57.035156 L 229.523438 56.175781 Z M 228.890625 77.164062 " clip-rule="nonzero"/></clipPath><clipPath id="e90d5c1072"><path d="M 204 56 L 221 56 L 221 78 L 204 78 Z M 204 56 " clip-rule="nonzero"/></clipPath><clipPath id="f2126b74b3"><path d="M 220.523438 78.011719 L 192.035156 77.15625 L 192.667969 56.164062 L 221.15625 57.023438 Z M 220.523438 78.011719 " clip-rule="nonzero"/></clipPath><clipPath id="119f28709c"><path d="M 192.375 77.164062 L 220.863281 78.023438 L 221.496094 57.035156 L 193.007812 56.175781 Z M 192.375 77.164062 " clip-rule="nonzero"/></clipPath><clipPath id="f62a0de962"><path d="M 192 56 L 209 56 L 209 78 L 192 78 Z M 192 56 " clip-rule="nonzero"/></clipPath><clipPath id="e1649ad11c"><path d="M 220.523438 78.011719 L 192.035156 77.15625 L 192.667969 56.164062 L 221.15625 57.023438 Z M 220.523438 78.011719 " clip-rule="nonzero"/></clipPath><clipPath id="6b2a9eeee4"><path d="M 192.375 77.164062 L 220.863281 78.023438 L 221.496094 57.035156 L 193.007812 56.175781 Z M 192.375 77.164062 " clip-rule="nonzero"/></clipPath></defs><g clip-path="url(#09800ef72f)"><g clip-path="url(#ec18345fa4)"><path fill="#919191" d="M 303.75 52.777344 L 303.75 323.039062 L -0.132812 323.039062 L -0.132812 52.777344 Z M 303.75 52.777344 " fill-opacity="1" fill-rule="nonzero"/></g></g><g clip-path="url(#5fc6bc9d26)"><g clip-path="url(#055403948a)"><path stroke-linecap="butt" transform="matrix(0.000000000000000046, 0.75, -0.75, 0.000000000000000046, 303.749959, 52.777335)" fill="none" stroke-linejoin="miter" d="M 120.062517 394.442673 C 138.520852 400.817674 159.505228 404.999965 180.098979 404.999965 C 200.69273 404.999965 220.505231 401.416632 238.770857 395.041632 C 239.156274 394.838507 239.546899 394.838507 239.937524 394.64059 C 308.515652 369.145797 359.03128 301.81246 360.00003 224.124956 L 360.00003 -0.0000552182 L 0.0000113526 -0.0000552182 L 0.0000113526 223.95829 C 0.97397 302.208294 50.708347 369.54163 120.062517 394.442673 " stroke="#000000" stroke-width="4" stroke-opacity="1" stroke-miterlimit="4"/></g></g><g clip-path="url(#237b6231c5)"><g clip-path="url(#61d534cb94)"><g clip-path="url(#e05fc3eaef)"><path fill="#707070" d="M 66.3125 318.820312 L 9.015625 110.832031 L 217.003906 53.539062 L 274.300781 261.527344 Z M 66.3125 318.820312 " fill-opacity="1" fill-rule="nonzero"/></g></g></g><g clip-path="url(#8726527f5a)"><g clip-path="url(#4b32c0af65)"><g clip-path="url(#4c096d747d)"><g clip-path="url(#df075c546b)"><path stroke-linecap="butt" transform="matrix(-0.199182, -0.723067, 0.723067, -0.199182, 66.310583, 318.82215)" fill="none" stroke-linejoin="miter" d="M 144.001405 0.00121757 C 64.468877 -0.00105364 0.000830964 64.468926 -0.00144024 144.001454 C -0.00232824 223.52896 64.472673 287.998389 144.000179 287.999277 C 223.527685 288.000165 288.000753 223.531569 287.998003 143.997658 C 287.998891 64.470151 223.528911 0.00210556 144.001405 0.00121757 " stroke="#000000" stroke-width="8" stroke-opacity="1" stroke-miterlimit="4"/></g></g></g></g><g clip-path="url(#8d9814e33c)"><g clip-path="url(#eda6407065)"><g clip-path="url(#15f68c3c2e)"><path fill="#ffde59" d="M 80.03125 214.046875 L 75.289062 197.085938 L 106.035156 188.488281 L 110.777344 205.449219 Z M 80.03125 214.046875 " fill-opacity="1" fill-rule="nonzero"/></g></g></g><g clip-path="url(#da590b2e7b)"><g clip-path="url(#ed035e302a)"><g clip-path="url(#666c45955c)"><path fill="#ffde59" d="M 156.800781 158.699219 L 139.789062 154.140625 L 148.054688 123.304688 L 165.066406 127.863281 Z M 156.800781 158.699219 " fill-opacity="1" fill-rule="nonzero"/></g></g></g><g clip-path="url(#f7a83ca61c)"><g clip-path="url(#6fd61b7ab6)"><g clip-path="url(#756073081c)"><path fill="#ffde59" d="M 204.460938 192.566406 L 145.121094 252.65625 L 93.007812 201.195312 L 152.34375 141.105469 Z M 204.460938 192.566406 " fill-opacity="1" fill-rule="nonzero"/></g></g></g><g clip-path="url(#90004f4b24)"><g clip-path="url(#5c40624e14)"><g clip-path="url(#ef3b9fc290)"><path fill="#ffde59" d="M 186.617188 221.867188 L 174.242188 234.402344 L 151.527344 211.96875 L 163.902344 199.4375 Z M 186.617188 221.867188 " fill-opacity="1" fill-rule="nonzero"/></g></g></g><g clip-path="url(#d186ca7dfb)"><g clip-path="url(#4a26284898)"><g clip-path="url(#f1645f3535)"><path fill="#ffde59" d="M 195.660156 203.308594 L 234.328125 243.292969 L 194.34375 281.960938 L 155.675781 241.976562 Z M 195.660156 203.308594 " fill-opacity="1" fill-rule="nonzero"/></g></g></g><g clip-path="url(#d3cde91f07)"><g clip-path="url(#91b8a6cd62)"><g clip-path="url(#5d262a70e4)"><g clip-path="url(#1452c625d5)"><path fill="#000000" d="M 212.796875 225.339844 C 208.9375 221.347656 204.269531 218.925781 198.796875 218.082031 L 199.710938 212.164062 C 206.511719 213.214844 212.308594 216.21875 217.101562 221.175781 Z M 196.136719 217.816406 C 190.585938 217.566406 185.535156 219.003906 180.988281 222.136719 L 177.59375 217.203125 C 183.246094 213.3125 189.519531 211.523438 196.410156 211.835938 Z M 178.875 223.765625 C 178.503906 224.082031 178.144531 224.414062 177.792969 224.753906 C 174.179688 228.246094 171.847656 232.441406 170.800781 237.332031 L 164.945312 236.078125 C 166.25 229.996094 169.144531 224.789062 173.628906 220.449219 C 174.066406 220.027344 174.511719 219.621094 174.96875 219.226562 Z M 170.378906 239.976562 C 169.804688 245.507812 170.949219 250.636719 173.8125 255.359375 L 168.691406 258.460938 C 165.132812 252.589844 163.710938 246.222656 164.425781 239.355469 Z M 175.308594 257.554688 C 175.894531 258.324219 176.527344 259.058594 177.207031 259.757812 C 180.34375 263 184.070312 265.21875 188.390625 266.410156 L 186.800781 272.183594 C 181.429688 270.699219 176.796875 267.945312 172.902344 263.921875 C 172.0625 263.054688 171.28125 262.140625 170.550781 261.1875 Z M 191 266.980469 C 196.484375 267.875 201.667969 267.03125 206.554688 264.453125 L 209.347656 269.75 C 203.28125 272.953125 196.84375 274 190.039062 272.890625 Z M 208.847656 263.078125 C 210.042969 262.269531 211.164062 261.359375 212.214844 260.34375 C 215.089844 257.5625 217.164062 254.292969 218.441406 250.535156 L 224.109375 252.464844 C 222.523438 257.136719 219.945312 261.195312 216.375 264.648438 C 215.078125 265.902344 213.6875 267.035156 212.199219 268.039062 Z M 219.160156 247.96875 C 220.371094 242.546875 219.832031 237.320312 217.542969 232.289062 L 222.992188 229.808594 C 225.835938 236.058594 226.507812 242.546875 225.003906 249.273438 Z M 216.300781 229.917969 C 215.320312 228.265625 214.152344 226.738281 212.796875 225.339844 L 217.101562 221.175781 C 218.777344 222.910156 220.226562 224.804688 221.449219 226.859375 Z M 216.300781 229.917969 " fill-opacity="1" fill-rule="nonzero"/></g></g></g></g><g clip-path="url(#add86edcc6)"><g clip-path="url(#a589598ee1)"><g clip-path="url(#05373329cb)"><path fill="#ffde59" d="M 193.859375 92.207031 L 179.78125 146.019531 L 125.96875 131.941406 L 140.046875 78.128906 Z M 193.859375 92.207031 " fill-opacity="1" fill-rule="nonzero"/></g></g></g><g clip-path="url(#e9a5763e57)"><g clip-path="url(#19aa563417)"><g clip-path="url(#3b56719180)"><g clip-path="url(#fa860153d6)"><path fill="#000000" d="M 183.9375 118.296875 C 185.34375 112.925781 184.988281 107.679688 182.867188 102.566406 L 188.394531 100.273438 C 191.03125 106.625 191.476562 113.140625 189.730469 119.8125 Z M 181.710938 100.152344 C 179.042969 95.277344 175.191406 91.710938 170.152344 89.453125 L 172.601562 83.988281 C 178.863281 86.796875 183.652344 91.226562 186.960938 97.28125 Z M 167.660156 88.492188 C 167.199219 88.34375 166.730469 88.203125 166.253906 88.082031 C 161.390625 86.808594 156.597656 86.996094 151.871094 88.640625 L 149.902344 82.984375 C 155.777344 80.941406 161.730469 80.707031 167.769531 82.289062 C 168.355469 82.441406 168.9375 82.613281 169.511719 82.796875 Z M 149.394531 89.65625 C 144.371094 92.039062 140.582031 95.679688 138.035156 100.578125 L 132.722656 97.816406 C 135.890625 91.726562 140.59375 87.203125 146.832031 84.246094 Z M 136.9375 102.996094 C 136.585938 103.898438 136.285156 104.820312 136.039062 105.765625 C 134.898438 110.128906 134.9375 114.464844 136.164062 118.777344 L 130.40625 120.414062 C 128.882812 115.054688 128.828125 109.667969 130.246094 104.25 C 130.550781 103.082031 130.921875 101.9375 131.359375 100.820312 Z M 137.03125 121.304688 C 139.117188 126.453125 142.53125 130.445312 147.273438 133.28125 L 144.199219 138.417969 C 138.308594 134.898438 134.070312 129.941406 131.484375 123.550781 Z M 149.640625 134.523438 C 150.953125 135.128906 152.3125 135.613281 153.722656 135.980469 C 157.59375 136.992188 161.464844 137.070312 165.339844 136.207031 L 166.636719 142.054688 C 161.820312 143.125 157.011719 143.03125 152.207031 141.773438 C 150.460938 141.316406 148.773438 140.714844 147.144531 139.96875 Z M 167.90625 135.488281 C 173.167969 133.707031 177.355469 130.53125 180.464844 125.960938 L 185.414062 129.328125 C 181.550781 135.003906 176.355469 138.949219 169.828125 141.160156 Z M 181.84375 123.671875 C 182.75 121.96875 183.445312 120.179688 183.9375 118.296875 L 189.730469 119.8125 C 189.121094 122.144531 188.253906 124.367188 187.132812 126.480469 Z M 181.84375 123.671875 " fill-opacity="1" fill-rule="nonzero"/></g></g></g></g><g clip-path="url(#28c645dcdd)"><g clip-path="url(#6ed91e9a0f)"><g clip-path="url(#e7a95f596c)"><path fill="#ffde59" d="M 87.382812 173.710938 L 102.15625 227.335938 L 48.53125 242.109375 L 33.757812 188.484375 Z M 87.382812 173.710938 " fill-opacity="1" fill-rule="nonzero"/></g></g></g><g clip-path="url(#d99e826b2a)"><g clip-path="url(#175b9e2e94)"><g clip-path="url(#35454222b8)"><g clip-path="url(#2b7b687179)"><path fill="#000000" d="M 91.867188 201.261719 C 90.390625 195.90625 87.457031 191.546875 83.058594 188.183594 L 86.695312 183.425781 C 92.160156 187.605469 95.808594 193.019531 97.640625 199.667969 Z M 80.847656 186.675781 C 76.097656 183.789062 70.976562 182.632812 65.484375 183.203125 L 64.867188 177.246094 C 71.695312 176.539062 78.058594 177.976562 83.957031 181.554688 Z M 62.847656 183.621094 C 62.371094 183.722656 61.898438 183.835938 61.425781 183.96875 C 56.578125 185.300781 52.523438 187.863281 49.257812 191.65625 L 44.722656 187.75 C 48.78125 183.035156 53.816406 179.851562 59.835938 178.195312 C 60.417969 178.035156 61.007812 177.890625 61.597656 177.765625 Z M 47.621094 193.773438 C 44.46875 198.355469 43.011719 203.402344 43.261719 208.921875 L 37.28125 209.191406 C 36.972656 202.332031 38.777344 196.0625 42.691406 190.378906 Z M 43.523438 211.5625 C 43.671875 212.519531 43.875 213.46875 44.132812 214.410156 C 45.332031 218.757812 47.539062 222.492188 50.761719 225.609375 L 46.597656 229.910156 C 42.59375 226.035156 39.847656 221.398438 38.359375 216 C 38.039062 214.835938 37.789062 213.660156 37.605469 212.472656 Z M 52.777344 227.359375 C 57.160156 230.773438 62.113281 232.515625 67.636719 232.59375 L 67.554688 238.582031 C 60.691406 238.484375 54.539062 236.320312 49.097656 232.082031 Z M 70.308594 232.488281 C 71.746094 232.351562 73.167969 232.089844 74.574219 231.703125 C 78.429688 230.640625 81.820312 228.765625 84.742188 226.078125 L 88.792969 230.488281 C 85.160156 233.828125 80.953125 236.15625 76.164062 237.472656 C 74.421875 237.953125 72.660156 238.277344 70.875 238.449219 Z M 86.605469 224.171875 C 90.265625 219.992188 92.296875 215.148438 92.699219 209.632812 L 98.667969 210.070312 C 98.171875 216.917969 95.648438 222.933594 91.109375 228.117188 Z M 92.746094 206.960938 C 92.675781 205.035156 92.382812 203.136719 91.867188 201.261719 L 97.640625 199.667969 C 98.28125 201.996094 98.644531 204.351562 98.730469 206.742188 Z M 92.746094 206.960938 " fill-opacity="1" fill-rule="nonzero"/></g></g></g></g><g clip-path="url(#6fd6cfa4b1)"><g clip-path="url(#616fae55a0)"><g clip-path="url(#8014c6dc4a)"><path fill="#707070" d="M 204.871094 242.566406 L 195.0625 252.5 L 185.128906 242.691406 L 194.9375 232.757812 Z M 204.871094 242.566406 " fill-opacity="1" fill-rule="nonzero"/></g></g></g><g clip-path="url(#6cfcc00a70)"><g clip-path="url(#13254c64b8)"><g clip-path="url(#8720c3be65)"><path fill="#707070" d="M 164.902344 120.589844 L 151.398438 117.054688 L 154.933594 103.550781 L 168.4375 107.085938 Z M 164.902344 120.589844 " fill-opacity="1" fill-rule="nonzero"/></g></g></g><g clip-path="url(#b0652fa02d)"><g clip-path="url(#c566083845)"><g clip-path="url(#ea429e92d6)"><path fill="#707070" d="M 78.125 208.839844 L 68.316406 218.773438 L 58.382812 208.964844 L 68.191406 199.03125 Z M 78.125 208.839844 " fill-opacity="1" fill-rule="nonzero"/></g></g></g><g clip-path="url(#c0cb64d0fd)"><g clip-path="url(#45fd6837e5)"><g clip-path="url(#13b3f2f058)"><g clip-path="url(#636b644472)"><path fill="#ffffff" d="M 147.007812 247.785156 C 147.023438 247.824219 147.023438 247.859375 147 247.894531 C 147.074219 248.019531 147.300781 247.972656 147.304688 248.175781 C 147.566406 248.546875 147.390625 248.847656 147.152344 249.136719 C 146.476562 249.941406 145.6875 250.617188 144.855469 251.25 C 141.875 253.5 138.570312 255.019531 134.96875 255.964844 C 128.679688 257.613281 122.582031 256.960938 116.617188 254.628906 C 113.851562 253.546875 111.324219 252 108.867188 250.328125 C 107.425781 249.347656 106.046875 248.285156 104.640625 247.25 C 104.605469 247.191406 104.574219 247.132812 104.539062 247.074219 C 104.464844 247.054688 104.386719 247.015625 104.316406 247.035156 C 104.265625 247.050781 104.285156 247.125 104.335938 247.160156 C 104.53125 247.824219 104.859375 248.417969 105.214844 249 C 105.460938 249.394531 105.667969 249.796875 105.753906 250.261719 C 106.289062 251.109375 106.175781 251.90625 105.476562 252.492188 C 103.765625 251.472656 102.898438 249.816406 102.152344 248.058594 C 101.875 247.40625 101.554688 246.773438 101.242188 246.136719 C 100.496094 244.609375 100.691406 244.789062 101.441406 243.625 C 101.609375 243.363281 101.832031 243.148438 102.078125 242.957031 C 102.167969 242.882812 102.257812 242.828125 102.378906 242.847656 C 102.585938 242.5625 102.875 242.605469 103.15625 242.664062 C 103.992188 242.839844 104.820312 243.023438 105.65625 243.203125 C 105.847656 243.132812 106.023438 243.195312 106.203125 243.261719 C 106.390625 243.1875 106.570312 243.253906 106.75 243.308594 C 106.875 243.230469 107.007812 243.289062 107.136719 243.292969 C 108.882812 243.339844 110.609375 243.1875 112.304688 242.734375 C 112.433594 242.699219 112.5625 242.675781 112.691406 242.648438 C 112.84375 242.613281 113.019531 242.574219 113.109375 242.730469 C 113.179688 242.847656 113.125 243.027344 113.03125 243.101562 C 112.632812 243.425781 112.496094 243.941406 112.136719 244.289062 C 111.976562 244.441406 111.769531 244.519531 111.558594 244.59375 C 109.917969 245.167969 108.226562 245.4375 106.503906 245.527344 C 106.347656 245.535156 106.191406 245.519531 106.042969 245.5625 C 105.871094 245.605469 105.894531 245.75 105.953125 245.882812 C 106.128906 245.894531 106.242188 245.984375 106.292969 246.148438 C 106.453125 246.1875 106.605469 246.238281 106.65625 246.421875 C 106.699219 246.410156 106.722656 246.425781 106.726562 246.46875 C 106.878906 246.503906 107.015625 246.558594 107.074219 246.722656 C 107.171875 246.769531 107.277344 246.800781 107.367188 246.863281 C 108.34375 247.535156 109.308594 248.21875 110.292969 248.878906 C 111.1875 249.480469 112.097656 250.050781 113.003906 250.632812 C 113.261719 250.753906 113.523438 250.871094 113.773438 251.003906 C 116.21875 252.289062 118.78125 253.257812 121.484375 253.835938 C 122.449219 254.042969 123.421875 254.21875 124.390625 254.40625 C 124.589844 254.335938 124.773438 254.410156 124.957031 254.480469 C 125.148438 254.402344 125.324219 254.472656 125.5 254.535156 C 125.679688 254.453125 125.84375 254.527344 126.011719 254.574219 C 126.125 254.507812 126.230469 254.53125 126.335938 254.589844 C 126.378906 254.566406 126.417969 254.574219 126.453125 254.605469 C 126.578125 254.535156 126.710938 254.589844 126.835938 254.589844 C 127.46875 254.585938 128.097656 254.695312 128.730469 254.613281 C 128.773438 254.675781 128.949219 254.730469 128.714844 254.785156 C 128.558594 254.824219 128.542969 254.867188 128.578125 254.910156 C 128.605469 254.949219 128.671875 254.984375 128.71875 255.019531 C 130.714844 254.949219 132.679688 254.632812 134.621094 254.1875 C 134.796875 254.128906 134.976562 254.074219 135.152344 254.015625 C 136.207031 253.667969 137.265625 253.320312 138.320312 252.972656 C 138.347656 252.933594 138.378906 252.910156 138.417969 252.902344 C 138.441406 252.894531 138.46875 252.894531 138.5 252.898438 C 138.539062 252.835938 138.597656 252.8125 138.671875 252.828125 C 138.710938 252.761719 138.769531 252.742188 138.84375 252.757812 C 138.882812 252.691406 138.941406 252.667969 139.019531 252.683594 C 139.058594 252.617188 139.117188 252.589844 139.191406 252.609375 C 139.230469 252.539062 139.285156 252.515625 139.363281 252.535156 L 139.363281 252.53125 C 139.398438 252.464844 139.457031 252.4375 139.53125 252.457031 L 139.535156 252.453125 C 139.585938 252.425781 139.644531 252.398438 139.699219 252.378906 L 139.707031 252.375 C 139.742188 252.308594 139.796875 252.28125 139.871094 252.296875 L 139.878906 252.292969 C 139.914062 252.226562 139.96875 252.199219 140.042969 252.214844 L 140.046875 252.214844 C 140.046875 252.214844 140.050781 252.210938 140.050781 252.210938 C 140.050781 252.210938 140.046875 252.214844 140.046875 252.214844 C 140.082031 252.144531 140.140625 252.117188 140.214844 252.132812 L 140.21875 252.132812 C 140.253906 252.0625 140.308594 252.035156 140.382812 252.054688 L 140.386719 252.050781 C 140.421875 251.980469 140.480469 251.953125 140.554688 251.96875 C 141.058594 251.683594 141.558594 251.394531 142.058594 251.109375 C 142.367188 251.042969 142.605469 250.839844 142.863281 250.675781 C 142.859375 250.640625 142.847656 250.609375 142.832031 250.582031 C 142.808594 250.539062 142.777344 250.507812 142.726562 250.480469 C 142.90625 250.339844 143.078125 250.179688 143.3125 250.128906 C 143.382812 250.117188 143.453125 250.101562 143.511719 250.054688 C 143.445312 250.078125 143.378906 250.105469 143.3125 250.128906 C 143.359375 250.070312 143.414062 250.023438 143.492188 250.046875 C 143.53125 249.9375 143.613281 249.882812 143.726562 249.855469 C 143.75 249.785156 143.796875 249.746094 143.875 249.757812 C 143.917969 249.691406 143.964844 249.644531 144.050781 249.648438 C 144.066406 249.613281 144.089844 249.589844 144.128906 249.582031 C 144.28125 249.410156 144.460938 249.277344 144.667969 249.1875 C 144.78125 249.074219 144.894531 248.953125 145.054688 248.910156 C 145.101562 248.808594 145.195312 248.765625 145.28125 248.71875 C 145.726562 248.261719 146.253906 247.890625 146.632812 247.324219 C 146.75 247.53125 147.007812 247.542969 147.007812 247.785156 Z M 106.683594 246.59375 C 106.683594 246.59375 106.683594 246.59375 106.6875 246.59375 C 106.6875 246.597656 106.683594 246.597656 106.683594 246.597656 C 106.6875 246.597656 106.6875 246.59375 106.6875 246.59375 C 106.6875 246.59375 106.6875 246.589844 106.691406 246.589844 C 106.6875 246.589844 106.683594 246.59375 106.683594 246.59375 Z M 140.339844 252.480469 C 140.328125 252.492188 140.316406 252.5 140.304688 252.507812 C 140.308594 252.507812 140.3125 252.503906 140.316406 252.503906 C 140.328125 252.5 140.339844 252.492188 140.351562 252.488281 C 140.347656 252.488281 140.34375 252.484375 140.339844 252.480469 Z M 138.332031 252.976562 C 138.332031 252.976562 138.332031 252.976562 138.332031 252.980469 C 138.335938 252.984375 138.335938 252.988281 138.339844 252.992188 L 138.347656 253.007812 L 138.332031 252.976562 C 138.332031 252.976562 138.335938 252.976562 138.335938 252.972656 C 138.335938 252.976562 138.332031 252.976562 138.332031 252.976562 Z M 140.398438 252.515625 C 140.382812 252.507812 140.367188 252.496094 140.351562 252.488281 C 140.339844 252.496094 140.328125 252.5 140.320312 252.503906 C 140.34375 252.496094 140.371094 252.5 140.398438 252.515625 Z M 140.242188 252.542969 C 140.230469 252.550781 140.214844 252.558594 140.203125 252.566406 C 140.214844 252.558594 140.230469 252.550781 140.242188 252.542969 Z M 146.484375 248.875 C 146.484375 248.875 146.488281 248.875 146.488281 248.875 C 146.488281 248.875 146.492188 248.875 146.492188 248.875 C 146.492188 248.871094 146.492188 248.871094 146.492188 248.871094 C 146.488281 248.871094 146.488281 248.875 146.484375 248.875 Z M 146.285156 249.078125 C 146.285156 249.082031 146.28125 249.085938 146.277344 249.085938 C 146.28125 249.082031 146.285156 249.078125 146.285156 249.078125 Z M 143.628906 250.058594 C 143.636719 250.066406 143.648438 250.074219 143.660156 250.089844 C 143.664062 250.078125 143.664062 250.070312 143.667969 250.0625 C 143.65625 250.0625 143.640625 250.058594 143.628906 250.058594 Z M 144 249.726562 C 144.023438 249.714844 144.039062 249.695312 144.050781 249.671875 C 144.035156 249.695312 144.019531 249.714844 144 249.726562 Z M 144 249.726562 " fill-opacity="1" fill-rule="nonzero"/></g></g></g></g><g clip-path="url(#5641e6676d)"><g clip-path="url(#684bea4a83)"><g clip-path="url(#e5164d31ae)"><g clip-path="url(#edfc635beb)"><path fill="#ffffff" d="M 139.710938 252.375 C 139.65625 252.402344 139.597656 252.425781 139.546875 252.453125 C 139.582031 252.382812 139.636719 252.359375 139.710938 252.375 Z M 139.710938 252.375 " fill-opacity="1" fill-rule="nonzero"/></g></g></g></g><g clip-path="url(#579c634382)"><g clip-path="url(#8e755e0804)"><g clip-path="url(#4d57085bab)"><g clip-path="url(#ee91dc505a)"><path fill="#ffffff" d="M 80.265625 162.058594 C 80.226562 162.054688 80.195312 162.03125 80.179688 161.992188 C 80.035156 161.980469 79.945312 162.195312 79.773438 162.078125 C 79.324219 162.082031 79.175781 161.765625 79.078125 161.402344 C 78.808594 160.386719 78.710938 159.351562 78.671875 158.308594 C 78.546875 154.574219 79.207031 151 80.507812 147.507812 C 82.78125 141.414062 86.824219 136.808594 92.164062 133.269531 C 94.640625 131.628906 97.359375 130.457031 100.136719 129.410156 C 101.769531 128.792969 103.4375 128.28125 105.089844 127.726562 C 105.15625 127.730469 105.226562 127.738281 105.292969 127.746094 C 105.351562 127.691406 105.429688 127.652344 105.453125 127.585938 C 105.453125 127.585938 105.453125 127.585938 105.453125 127.582031 C 105.472656 127.53125 105.398438 127.507812 105.339844 127.527344 C 104.683594 127.304688 104.007812 127.230469 103.328125 127.1875 C 102.863281 127.160156 102.414062 127.097656 101.988281 126.902344 C 100.984375 126.851562 100.398438 126.300781 100.324219 125.390625 C 102.140625 124.582031 103.996094 124.824219 105.863281 125.226562 C 106.554688 125.375 107.257812 125.476562 107.957031 125.585938 C 109.636719 125.855469 109.378906 125.910156 109.898438 127.195312 C 110.011719 127.484375 110.0625 127.792969 110.078125 128.101562 C 110.082031 128.214844 110.078125 128.324219 109.992188 128.40625 C 110.105469 128.742188 109.902344 128.953125 109.695312 129.148438 C 109.070312 129.734375 108.445312 130.308594 107.816406 130.882812 C 107.761719 131.082031 107.609375 131.191406 107.453125 131.296875 C 107.40625 131.496094 107.25 131.605469 107.101562 131.71875 C 107.089844 131.863281 106.964844 131.941406 106.890625 132.042969 C 105.847656 133.445312 104.980469 134.945312 104.371094 136.59375 C 104.324219 136.714844 104.269531 136.835938 104.21875 136.957031 C 104.160156 137.101562 104.09375 137.269531 103.914062 137.253906 C 103.777344 137.242188 103.660156 137.089844 103.652344 136.976562 C 103.617188 136.464844 103.273438 136.050781 103.195312 135.558594 C 103.164062 135.339844 103.21875 135.125 103.28125 134.910156 C 103.753906 133.238281 104.511719 131.703125 105.425781 130.238281 C 105.507812 130.109375 105.613281 129.988281 105.664062 129.84375 C 105.722656 129.679688 105.59375 129.613281 105.449219 129.585938 C 105.34375 129.722656 105.207031 129.761719 105.039062 129.710938 C 104.917969 129.816406 104.789062 129.914062 104.609375 129.851562 C 104.59375 129.890625 104.566406 129.902344 104.527344 129.882812 C 104.414062 129.988281 104.289062 130.066406 104.121094 130.015625 C 104.027344 130.070312 103.941406 130.140625 103.839844 130.175781 C 102.726562 130.589844 101.609375 130.984375 100.503906 131.410156 C 99.5 131.796875 98.507812 132.214844 97.511719 132.617188 C 97.261719 132.757812 97.019531 132.902344 96.765625 133.03125 C 94.304688 134.292969 92.035156 135.832031 90.007812 137.707031 C 89.285156 138.378906 88.582031 139.070312 87.871094 139.753906 C 87.8125 139.960938 87.648438 140.066406 87.484375 140.179688 C 87.433594 140.378906 87.28125 140.484375 87.125 140.589844 C 87.089844 140.785156 86.933594 140.875 86.800781 140.984375 C 86.789062 141.117188 86.710938 141.191406 86.601562 141.242188 C 86.59375 141.289062 86.566406 141.316406 86.519531 141.328125 C 86.507812 141.472656 86.386719 141.546875 86.3125 141.652344 C 85.953125 142.171875 85.5 142.621094 85.203125 143.183594 C 85.128906 143.1875 84.980469 143.296875 85.070312 143.074219 C 85.128906 142.925781 85.101562 142.886719 85.046875 142.890625 C 85 142.890625 84.933594 142.925781 84.875 142.941406 C 83.785156 144.617188 82.914062 146.402344 82.160156 148.25 C 82.105469 148.425781 82.050781 148.605469 81.996094 148.78125 C 81.671875 149.847656 81.347656 150.910156 81.023438 151.972656 C 81.039062 152.015625 81.042969 152.054688 81.027344 152.089844 C 81.019531 152.117188 81.003906 152.136719 80.984375 152.160156 C 81.007812 152.230469 80.992188 152.292969 80.941406 152.34375 C 80.96875 152.414062 80.953125 152.472656 80.898438 152.523438 C 80.929688 152.597656 80.914062 152.65625 80.859375 152.710938 C 80.890625 152.78125 80.878906 152.84375 80.820312 152.894531 C 80.855469 152.964844 80.84375 153.023438 80.785156 153.074219 L 80.785156 153.078125 C 80.820312 153.148438 80.808594 153.210938 80.75 153.257812 L 80.75 153.261719 C 80.742188 153.320312 80.730469 153.382812 80.71875 153.441406 L 80.714844 153.449219 C 80.75 153.515625 80.742188 153.578125 80.683594 153.628906 L 80.683594 153.636719 C 80.71875 153.703125 80.707031 153.765625 80.652344 153.816406 L 80.652344 153.820312 C 80.652344 153.820312 80.652344 153.824219 80.652344 153.824219 C 80.652344 153.824219 80.652344 153.820312 80.652344 153.820312 C 80.6875 153.890625 80.675781 153.953125 80.621094 154.003906 L 80.621094 154.007812 C 80.65625 154.074219 80.644531 154.136719 80.589844 154.1875 L 80.589844 154.191406 C 80.625 154.261719 80.613281 154.324219 80.558594 154.375 C 80.503906 154.953125 80.453125 155.527344 80.398438 156.101562 C 80.273438 156.390625 80.300781 156.703125 80.289062 157.007812 C 80.320312 157.027344 80.351562 157.035156 80.382812 157.039062 C 80.429688 157.042969 80.476562 157.035156 80.523438 157.007812 C 80.539062 157.238281 80.570312 157.46875 80.476562 157.691406 C 80.441406 157.753906 80.417969 157.824219 80.421875 157.898438 C 80.441406 157.832031 80.457031 157.761719 80.476562 157.691406 C 80.496094 157.765625 80.507812 157.835938 80.441406 157.886719 C 80.507812 157.980469 80.503906 158.082031 80.460938 158.183594 C 80.503906 158.246094 80.511719 158.304688 80.457031 158.363281 C 80.488281 158.4375 80.496094 158.503906 80.445312 158.570312 C 80.464844 158.601562 80.46875 158.636719 80.453125 158.675781 C 80.507812 158.898438 80.511719 159.117188 80.464844 159.339844 C 80.492188 159.5 80.527344 159.660156 80.472656 159.820312 C 80.527344 159.914062 80.507812 160.015625 80.496094 160.113281 C 80.613281 160.742188 80.613281 161.382812 80.859375 162.019531 C 80.621094 161.996094 80.464844 162.199219 80.265625 162.058594 Z M 104.449219 129.773438 C 104.445312 129.773438 104.449219 129.773438 104.449219 129.773438 C 104.445312 129.773438 104.445312 129.777344 104.445312 129.777344 C 104.445312 129.777344 104.449219 129.773438 104.449219 129.773438 C 104.449219 129.777344 104.449219 129.777344 104.449219 129.78125 C 104.453125 129.777344 104.449219 129.773438 104.449219 129.773438 Z M 80.265625 153.90625 C 80.261719 153.890625 80.261719 153.875 80.261719 153.863281 C 80.261719 153.863281 80.261719 153.867188 80.257812 153.871094 C 80.257812 153.886719 80.253906 153.898438 80.253906 153.910156 C 80.253906 153.910156 80.257812 153.910156 80.265625 153.90625 Z M 81.015625 151.980469 C 81.015625 151.976562 81.015625 151.980469 81.011719 151.976562 C 81.007812 151.976562 81.003906 151.976562 80.996094 151.976562 L 80.980469 151.976562 L 81.015625 151.980469 C 81.015625 151.980469 81.015625 151.980469 81.015625 151.984375 C 81.015625 151.980469 81.015625 151.980469 81.015625 151.980469 Z M 80.199219 153.933594 C 80.21875 153.925781 80.234375 153.917969 80.25 153.914062 C 80.253906 153.898438 80.253906 153.886719 80.257812 153.875 C 80.25 153.902344 80.230469 153.921875 80.199219 153.933594 Z M 80.269531 153.789062 C 80.269531 153.777344 80.273438 153.761719 80.273438 153.746094 C 80.273438 153.746094 80.273438 153.746094 80.273438 153.742188 C 80.273438 153.757812 80.269531 153.777344 80.269531 153.789062 Z M 79.675781 161.003906 C 79.675781 161.007812 79.675781 161.007812 79.671875 161.007812 C 79.671875 161.007812 79.671875 161.011719 79.671875 161.011719 C 79.675781 161.011719 79.675781 161.015625 79.675781 161.015625 C 79.675781 161.011719 79.675781 161.007812 79.675781 161.003906 Z M 79.625 160.726562 C 79.625 160.722656 79.621094 160.722656 79.621094 160.71875 C 79.625 160.71875 79.625 160.726562 79.625 160.726562 Z M 80.351562 157.988281 C 80.339844 157.992188 80.328125 157.996094 80.308594 158 C 80.316406 158.003906 80.320312 158.011719 80.324219 158.019531 C 80.332031 158.007812 80.34375 158 80.351562 157.988281 Z M 80.410156 158.484375 C 80.40625 158.507812 80.410156 158.535156 80.425781 158.558594 C 80.414062 158.53125 80.410156 158.507812 80.410156 158.484375 Z M 80.410156 158.484375 " fill-opacity="1" fill-rule="nonzero"/></g></g></g></g><g clip-path="url(#8d5ee056bb)"><g clip-path="url(#6e5e81fcd6)"><g clip-path="url(#73b84852e1)"><g clip-path="url(#2581c97cf4)"><path fill="#ffffff" d="M 80.710938 153.453125 C 80.722656 153.390625 80.734375 153.332031 80.746094 153.273438 C 80.78125 153.34375 80.769531 153.402344 80.710938 153.453125 Z M 80.710938 153.453125 " fill-opacity="1" fill-rule="nonzero"/></g></g></g></g><g clip-path="url(#6477e9ab3b)"><g clip-path="url(#4ecb4fbe10)"><g clip-path="url(#1bf1a6f59e)"><g clip-path="url(#1ee7163299)"><path fill="#ffffff" d="M 193.988281 146.832031 C 194.015625 146.800781 194.050781 146.792969 194.09375 146.800781 C 194.183594 146.6875 194.058594 146.488281 194.25 146.414062 C 194.507812 146.042969 194.851562 146.101562 195.203125 146.230469 C 196.191406 146.585938 197.101562 147.097656 197.976562 147.660156 C 201.117188 149.683594 203.679688 152.265625 205.804688 155.324219 C 209.515625 160.664062 211 166.609375 210.859375 173.015625 C 210.796875 175.984375 210.210938 178.890625 209.488281 181.769531 C 209.0625 183.460938 208.535156 185.121094 208.050781 186.796875 C 208.003906 186.851562 207.960938 186.902344 207.917969 186.953125 C 207.925781 187.03125 207.917969 187.117188 207.957031 187.175781 C 207.988281 187.222656 208.054688 187.175781 208.070312 187.113281 C 208.625 186.703125 209.074219 186.191406 209.492188 185.65625 C 209.78125 185.289062 210.089844 184.957031 210.496094 184.71875 C 211.109375 183.921875 211.890625 183.753906 212.6875 184.210938 C 212.3125 186.167969 211.058594 187.550781 209.664062 188.855469 C 209.144531 189.34375 208.664062 189.863281 208.171875 190.371094 C 206.996094 191.597656 207.097656 191.355469 205.746094 191.050781 C 205.441406 190.980469 205.160156 190.84375 204.898438 190.679688 C 204.800781 190.621094 204.714844 190.554688 204.695312 190.4375 C 204.355469 190.339844 204.296875 190.050781 204.253906 189.769531 C 204.128906 188.925781 204.015625 188.082031 203.898438 187.238281 C 203.769531 187.082031 203.765625 186.894531 203.769531 186.703125 C 203.632812 186.550781 203.632812 186.359375 203.621094 186.175781 C 203.507812 186.082031 203.515625 185.9375 203.476562 185.816406 C 202.917969 184.160156 202.179688 182.589844 201.171875 181.152344 C 201.097656 181.042969 201.03125 180.929688 200.960938 180.820312 C 200.875 180.6875 200.777344 180.539062 200.890625 180.398438 C 200.976562 180.292969 201.167969 180.285156 201.269531 180.34375 C 201.710938 180.605469 202.242188 180.558594 202.691406 180.777344 C 202.890625 180.875 203.035156 181.042969 203.175781 181.214844 C 204.28125 182.558594 205.113281 184.054688 205.792969 185.640625 C 205.851562 185.78125 205.894531 185.9375 205.980469 186.0625 C 206.082031 186.207031 206.210938 186.136719 206.316406 186.035156 C 206.261719 185.867188 206.308594 185.730469 206.445312 185.625 C 206.429688 185.460938 206.425781 185.304688 206.578125 185.191406 C 206.550781 185.15625 206.558594 185.125 206.597656 185.105469 C 206.578125 184.953125 206.582031 184.804688 206.71875 184.695312 C 206.726562 184.585938 206.71875 184.476562 206.746094 184.371094 C 207.042969 183.222656 207.355469 182.078125 207.636719 180.929688 C 207.890625 179.882812 208.113281 178.832031 208.347656 177.78125 C 208.375 177.5 208.394531 177.214844 208.433594 176.933594 C 208.800781 174.195312 208.828125 171.453125 208.445312 168.714844 C 208.304688 167.738281 208.136719 166.765625 207.980469 165.792969 C 207.84375 165.628906 207.847656 165.433594 207.851562 165.234375 C 207.714844 165.078125 207.71875 164.890625 207.71875 164.703125 C 207.578125 164.566406 207.59375 164.386719 207.578125 164.210938 C 207.476562 164.128906 207.460938 164.019531 207.480469 163.902344 C 207.445312 163.867188 207.4375 163.832031 207.457031 163.785156 C 207.347656 163.695312 207.351562 163.550781 207.308594 163.433594 C 207.089844 162.839844 206.976562 162.210938 206.683594 161.644531 C 206.722656 161.582031 206.714844 161.402344 206.847656 161.601562 C 206.9375 161.734375 206.984375 161.734375 207.011719 161.6875 C 207.039062 161.648438 207.050781 161.570312 207.066406 161.515625 C 206.3125 159.667969 205.34375 157.929688 204.257812 156.257812 C 204.140625 156.113281 204.027344 155.964844 203.910156 155.820312 C 203.222656 154.949219 202.53125 154.074219 201.84375 153.203125 C 201.796875 153.191406 201.765625 153.171875 201.742188 153.140625 C 201.730469 153.117188 201.71875 153.089844 201.714844 153.0625 C 201.640625 153.042969 201.597656 152.996094 201.585938 152.925781 C 201.511719 152.90625 201.46875 152.859375 201.460938 152.785156 C 201.382812 152.773438 201.34375 152.722656 201.332031 152.648438 C 201.253906 152.632812 201.210938 152.589844 201.203125 152.511719 C 201.125 152.5 201.082031 152.453125 201.074219 152.378906 L 201.070312 152.375 C 200.996094 152.367188 200.949219 152.320312 200.941406 152.246094 L 200.941406 152.242188 C 200.894531 152.203125 200.851562 152.160156 200.808594 152.113281 L 200.804688 152.109375 C 200.730469 152.097656 200.6875 152.054688 200.675781 151.980469 L 200.671875 151.976562 C 200.59375 151.964844 200.550781 151.921875 200.539062 151.847656 L 200.535156 151.84375 C 200.535156 151.84375 200.535156 151.839844 200.535156 151.839844 C 200.535156 151.839844 200.535156 151.84375 200.535156 151.84375 C 200.460938 151.832031 200.414062 151.789062 200.40625 151.714844 L 200.402344 151.710938 C 200.324219 151.703125 200.28125 151.660156 200.269531 151.582031 C 200.191406 151.570312 200.144531 151.527344 200.132812 151.453125 C 199.691406 151.078125 199.25 150.707031 198.808594 150.332031 C 198.640625 150.066406 198.367188 149.914062 198.125 149.730469 C 198.09375 149.746094 198.066406 149.765625 198.046875 149.789062 C 198.015625 149.824219 197.996094 149.867188 197.988281 149.921875 C 197.792969 149.800781 197.585938 149.695312 197.457031 149.496094 C 197.421875 149.429688 197.382812 149.371094 197.316406 149.332031 C 197.363281 149.386719 197.410156 149.4375 197.457031 149.496094 C 197.386719 149.46875 197.320312 149.4375 197.320312 149.351562 C 197.203125 149.351562 197.121094 149.296875 197.058594 149.199219 C 196.984375 149.203125 196.933594 149.171875 196.914062 149.09375 C 196.839844 149.078125 196.777344 149.046875 196.753906 148.96875 C 196.714844 148.964844 196.683594 148.949219 196.660156 148.914062 C 196.449219 148.832031 196.261719 148.710938 196.109375 148.542969 C 195.960938 148.476562 195.808594 148.414062 195.710938 148.277344 C 195.601562 148.269531 195.53125 148.195312 195.453125 148.128906 C 194.875 147.867188 194.34375 147.5 193.683594 147.339844 C 193.835938 147.160156 193.757812 146.914062 193.988281 146.832031 Z M 206.730469 185.105469 C 206.730469 185.105469 206.730469 185.105469 206.730469 185.101562 C 206.734375 185.101562 206.734375 185.101562 206.734375 185.101562 C 206.734375 185.101562 206.730469 185.101562 206.730469 185.101562 C 206.730469 185.101562 206.726562 185.101562 206.726562 185.101562 C 206.726562 185.105469 206.730469 185.105469 206.730469 185.105469 Z M 200.6875 151.476562 C 200.699219 151.484375 200.710938 151.492188 200.726562 151.5 C 200.722656 151.5 200.71875 151.496094 200.71875 151.492188 C 200.707031 151.484375 200.699219 151.472656 200.6875 151.464844 C 200.691406 151.46875 200.6875 151.472656 200.6875 151.476562 Z M 201.84375 153.195312 C 201.84375 153.191406 201.84375 153.191406 201.84375 153.191406 C 201.847656 153.1875 201.851562 153.183594 201.855469 153.179688 L 201.867188 153.164062 L 201.84375 153.191406 C 201.839844 153.191406 201.839844 153.191406 201.839844 153.191406 C 201.839844 153.191406 201.839844 153.191406 201.84375 153.195312 Z M 200.699219 151.410156 C 200.695312 151.425781 200.691406 151.445312 200.691406 151.460938 C 200.699219 151.472656 200.707031 151.480469 200.71875 151.488281 C 200.699219 151.46875 200.695312 151.441406 200.699219 151.410156 Z M 200.78125 151.546875 C 200.789062 151.558594 200.800781 151.566406 200.8125 151.574219 C 200.8125 151.574219 200.816406 151.578125 200.816406 151.578125 C 200.804688 151.566406 200.789062 151.558594 200.78125 151.546875 Z M 195.191406 146.949219 C 195.191406 146.945312 195.1875 146.945312 195.1875 146.941406 C 195.183594 146.941406 195.183594 146.941406 195.179688 146.941406 C 195.183594 146.945312 195.1875 146.945312 195.191406 146.949219 Z M 195.449219 147.066406 C 195.453125 147.0625 195.453125 147.0625 195.457031 147.066406 C 195.453125 147.066406 195.449219 147.066406 195.449219 147.066406 Z M 197.285156 149.222656 C 197.285156 149.210938 197.292969 149.195312 197.300781 149.183594 C 197.289062 149.183594 197.28125 149.183594 197.273438 149.183594 C 197.277344 149.195312 197.277344 149.210938 197.285156 149.222656 Z M 196.839844 148.988281 C 196.824219 148.96875 196.800781 148.960938 196.773438 148.957031 C 196.800781 148.964844 196.824219 148.972656 196.839844 148.988281 Z M 196.839844 148.988281 " fill-opacity="1" fill-rule="nonzero"/></g></g></g></g><g clip-path="url(#2c5766173b)"><g clip-path="url(#dd0c1405cc)"><g clip-path="url(#2aebe64ea0)"><g clip-path="url(#293fc12ea4)"><path fill="#ffffff" d="M 200.804688 152.105469 C 200.847656 152.148438 200.890625 152.191406 200.933594 152.234375 C 200.855469 152.222656 200.816406 152.179688 200.804688 152.105469 Z M 200.804688 152.105469 " fill-opacity="1" fill-rule="nonzero"/></g></g></g></g><path stroke-linecap="butt" transform="matrix(0.74987, 0.00605191, -0.00605275, 0.749976, 136.490312, 77.868328)" fill="none" stroke-linejoin="miter" d="M -0.00220402 1.998562 L 223.03636 2.000901 " stroke="#000000" stroke-width="4" stroke-opacity="1" stroke-miterlimit="4"/><path stroke-linecap="butt" transform="matrix(0.750617, -0.00364086, 0.00363783, 0.749991, 135.126205, 291.168432)" fill="none" stroke-linejoin="miter" d="M -0.000887235 1.999401 L 224.814281 2.002221 " stroke="#000000" stroke-width="4" stroke-opacity="1" stroke-miterlimit="4"/><g clip-path="url(#8f87f760fd)"><path fill="#5ce1e6" d="M 266.714844 306.992188 L 275.207031 297.5 C 275.390625 297.296875 275.644531 297.183594 275.910156 297.183594 L 281.574219 297.183594 C 281.945312 297.183594 282.28125 297.402344 282.4375 297.746094 C 282.585938 298.089844 282.523438 298.488281 282.273438 298.765625 L 274.351562 307.628906 L 282.273438 316.484375 C 282.523438 316.765625 282.589844 317.164062 282.4375 317.507812 C 282.28125 317.851562 281.945312 318.070312 281.574219 318.070312 L 275.910156 318.070312 C 275.644531 318.070312 275.390625 317.953125 275.207031 317.757812 L 266.714844 308.261719 C 266.394531 307.902344 266.394531 307.351562 266.714844 306.992188 Z M 266.714844 306.992188 " fill-opacity="1" fill-rule="nonzero"/></g><g clip-path="url(#8d93f79da2)"><path fill="#5ce1e6" d="M 278.984375 306.992188 L 287.476562 297.5 C 287.660156 297.296875 287.910156 297.183594 288.179688 297.183594 L 293.839844 297.183594 C 294.214844 297.183594 294.550781 297.402344 294.703125 297.746094 C 294.855469 298.089844 294.792969 298.488281 294.542969 298.765625 L 286.617188 307.628906 L 294.542969 316.484375 C 294.792969 316.765625 294.855469 317.164062 294.703125 317.507812 C 294.550781 317.851562 294.214844 318.070312 293.839844 318.070312 L 288.179688 318.070312 C 287.910156 318.070312 287.660156 317.953125 287.476562 317.757812 L 278.984375 308.261719 C 278.660156 307.902344 278.660156 307.351562 278.984375 306.992188 Z M 278.984375 306.992188 " fill-opacity="1" fill-rule="nonzero"/></g><g clip-path="url(#e7ae7f6634)"><path fill="#38b6ff" d="M 229.589844 306.992188 L 238.082031 297.5 C 238.265625 297.296875 238.519531 297.183594 238.785156 297.183594 L 244.449219 297.183594 C 244.820312 297.183594 245.15625 297.402344 245.3125 297.746094 C 245.460938 298.089844 245.398438 298.488281 245.148438 298.765625 L 237.226562 307.628906 L 245.148438 316.484375 C 245.398438 316.765625 245.464844 317.164062 245.3125 317.507812 C 245.15625 317.851562 244.820312 318.070312 244.449219 318.070312 L 238.785156 318.070312 C 238.519531 318.070312 238.265625 317.953125 238.082031 317.757812 L 229.589844 308.261719 C 229.269531 307.902344 229.269531 307.351562 229.589844 306.992188 Z M 229.589844 306.992188 " fill-opacity="1" fill-rule="nonzero"/></g><g clip-path="url(#0fa0c712d0)"><path fill="#38b6ff" d="M 241.859375 306.992188 L 250.351562 297.5 C 250.535156 297.296875 250.785156 297.183594 251.054688 297.183594 L 256.714844 297.183594 C 257.089844 297.183594 257.425781 297.402344 257.578125 297.746094 C 257.730469 298.089844 257.667969 298.488281 257.417969 298.765625 L 249.492188 307.628906 L 257.417969 316.484375 C 257.667969 316.765625 257.730469 317.164062 257.578125 317.507812 C 257.425781 317.851562 257.089844 318.070312 256.714844 318.070312 L 251.054688 318.070312 C 250.785156 318.070312 250.535156 317.953125 250.351562 317.757812 L 241.859375 308.261719 C 241.535156 307.902344 241.535156 307.351562 241.859375 306.992188 Z M 241.859375 306.992188 " fill-opacity="1" fill-rule="nonzero"/></g><g clip-path="url(#127462856c)"><path fill="#38b6ff" d="M 192.464844 306.992188 L 200.957031 297.5 C 201.140625 297.296875 201.394531 297.183594 201.660156 297.183594 L 207.324219 297.183594 C 207.695312 297.183594 208.03125 297.402344 208.1875 297.746094 C 208.335938 298.089844 208.273438 298.488281 208.023438 298.765625 L 200.101562 307.628906 L 208.023438 316.484375 C 208.273438 316.765625 208.339844 317.164062 208.1875 317.507812 C 208.03125 317.851562 207.695312 318.070312 207.324219 318.070312 L 201.660156 318.070312 C 201.394531 318.070312 201.140625 317.953125 200.957031 317.757812 L 192.464844 308.261719 C 192.144531 307.902344 192.144531 307.351562 192.464844 306.992188 Z M 192.464844 306.992188 " fill-opacity="1" fill-rule="nonzero"/></g><g clip-path="url(#31c096c364)"><path fill="#38b6ff" d="M 204.734375 306.992188 L 213.226562 297.5 C 213.410156 297.296875 213.660156 297.183594 213.929688 297.183594 L 219.589844 297.183594 C 219.964844 297.183594 220.300781 297.402344 220.453125 297.746094 C 220.605469 298.089844 220.542969 298.488281 220.292969 298.765625 L 212.367188 307.628906 L 220.292969 316.484375 C 220.542969 316.765625 220.605469 317.164062 220.453125 317.507812 C 220.300781 317.851562 219.964844 318.070312 219.589844 318.070312 L 213.929688 318.070312 C 213.660156 318.070312 213.410156 317.953125 213.226562 317.757812 L 204.734375 308.261719 C 204.410156 307.902344 204.410156 307.351562 204.734375 306.992188 Z M 204.734375 306.992188 " fill-opacity="1" fill-rule="nonzero"/></g><g clip-path="url(#0cc5a4d5ce)"><path fill="#38b6ff" d="M 155.339844 306.992188 L 163.832031 297.5 C 164.015625 297.296875 164.269531 297.183594 164.535156 297.183594 L 170.199219 297.183594 C 170.570312 297.183594 170.90625 297.402344 171.0625 297.746094 C 171.210938 298.089844 171.148438 298.488281 170.898438 298.765625 L 162.976562 307.628906 L 170.898438 316.484375 C 171.148438 316.765625 171.214844 317.164062 171.0625 317.507812 C 170.90625 317.851562 170.570312 318.070312 170.199219 318.070312 L 164.535156 318.070312 C 164.269531 318.070312 164.015625 317.953125 163.832031 317.757812 L 155.339844 308.261719 C 155.019531 307.902344 155.019531 307.351562 155.339844 306.992188 Z M 155.339844 306.992188 " fill-opacity="1" fill-rule="nonzero"/></g><g clip-path="url(#dfa617753c)"><path fill="#38b6ff" d="M 167.609375 306.992188 L 176.101562 297.5 C 176.285156 297.296875 176.535156 297.183594 176.804688 297.183594 L 182.464844 297.183594 C 182.839844 297.183594 183.175781 297.402344 183.328125 297.746094 C 183.480469 298.089844 183.417969 298.488281 183.167969 298.765625 L 175.242188 307.628906 L 183.167969 316.484375 C 183.417969 316.765625 183.480469 317.164062 183.328125 317.507812 C 183.175781 317.851562 182.839844 318.070312 182.464844 318.070312 L 176.804688 318.070312 C 176.535156 318.070312 176.285156 317.953125 176.101562 317.757812 L 167.609375 308.261719 C 167.285156 307.902344 167.285156 307.351562 167.609375 306.992188 Z M 167.609375 306.992188 " fill-opacity="1" fill-rule="nonzero"/></g><g clip-path="url(#7873970fb2)"><g clip-path="url(#c5b9a7d7eb)"><g clip-path="url(#dd6c675dcd)"><path fill="#5ce1e6" d="M 118.210938 307.242188 L 126.535156 297.597656 C 126.710938 297.394531 126.960938 297.273438 127.230469 297.269531 L 132.890625 297.171875 C 133.261719 297.164062 133.605469 297.378906 133.765625 297.714844 C 133.921875 298.058594 133.867188 298.460938 133.621094 298.742188 L 125.855469 307.738281 L 133.933594 316.457031 C 134.1875 316.730469 134.261719 317.128906 134.113281 317.476562 C 133.964844 317.820312 133.632812 318.046875 133.261719 318.054688 L 127.597656 318.152344 C 127.332031 318.160156 127.078125 318.046875 126.890625 317.851562 L 118.230469 308.511719 C 117.902344 308.15625 117.894531 307.605469 118.210938 307.242188 Z M 118.210938 307.242188 " fill-opacity="1" fill-rule="nonzero"/></g></g></g><g clip-path="url(#56ba8c1bee)"><g clip-path="url(#efe02857a4)"><g clip-path="url(#b7b8c51e73)"><path fill="#5ce1e6" d="M 130.476562 307.023438 L 138.800781 297.382812 C 138.976562 297.175781 139.230469 297.058594 139.496094 297.054688 L 145.15625 296.953125 C 145.53125 296.945312 145.871094 297.160156 146.03125 297.5 C 146.1875 297.839844 146.132812 298.242188 145.886719 298.523438 L 138.121094 307.523438 L 146.203125 316.238281 C 146.457031 316.515625 146.527344 316.914062 146.378906 317.257812 C 146.234375 317.605469 145.898438 317.832031 145.527344 317.835938 L 139.867188 317.9375 C 139.597656 317.941406 139.34375 317.832031 139.160156 317.636719 L 130.5 308.292969 C 130.167969 307.9375 130.160156 307.386719 130.476562 307.023438 Z M 130.476562 307.023438 " fill-opacity="1" fill-rule="nonzero"/></g></g></g><g clip-path="url(#6925559bdc)"><g clip-path="url(#a66b421456)"><g clip-path="url(#76b09962a0)"><path fill="#38b6ff" d="M 75.855469 286.085938 L 88.128906 282.679688 C 88.390625 282.609375 88.664062 282.648438 88.890625 282.796875 L 93.65625 285.851562 C 93.96875 286.050781 94.132812 286.421875 94.078125 286.789062 C 94.019531 287.160156 93.75 287.464844 93.390625 287.5625 L 81.9375 290.742188 L 83.828125 302.476562 C 83.886719 302.847656 83.722656 303.21875 83.410156 303.425781 C 83.097656 303.632812 82.691406 303.632812 82.378906 303.433594 L 77.613281 300.375 C 77.386719 300.230469 77.238281 299.996094 77.191406 299.734375 L 75.167969 287.15625 C 75.089844 286.679688 75.386719 286.214844 75.855469 286.085938 Z M 75.855469 286.085938 " fill-opacity="1" fill-rule="nonzero"/></g></g></g><g clip-path="url(#c9f9b75a5a)"><g clip-path="url(#31059164c8)"><g clip-path="url(#f462da5df2)"><path fill="#38b6ff" d="M 86.179688 292.710938 L 98.457031 289.304688 C 98.714844 289.234375 98.992188 289.273438 99.214844 289.417969 L 103.984375 292.476562 C 104.296875 292.675781 104.460938 293.042969 104.40625 293.414062 C 104.347656 293.785156 104.078125 294.089844 103.71875 294.1875 L 92.265625 297.367188 L 94.152344 309.101562 C 94.210938 309.46875 94.050781 309.84375 93.738281 310.046875 C 93.421875 310.253906 93.019531 310.257812 92.707031 310.058594 L 87.941406 307 C 87.714844 306.855469 87.5625 306.621094 87.519531 306.355469 L 85.496094 293.78125 C 85.417969 293.300781 85.714844 292.839844 86.179688 292.710938 Z M 86.179688 292.710938 " fill-opacity="1" fill-rule="nonzero"/></g></g></g><g clip-path="url(#bca4cc96e0)"><g clip-path="url(#b1e56d2b0d)"><g clip-path="url(#2c266fc16a)"><path fill="#38b6ff" d="M 41.28125 262.910156 L 53.984375 261.964844 C 54.253906 261.945312 54.515625 262.039062 54.707031 262.222656 L 58.785156 266.152344 C 59.054688 266.410156 59.144531 266.800781 59.015625 267.15625 C 58.886719 267.507812 58.566406 267.753906 58.191406 267.777344 L 46.339844 268.664062 L 45.902344 280.539062 C 45.886719 280.914062 45.65625 281.246094 45.308594 281.386719 C 44.960938 281.53125 44.566406 281.453125 44.296875 281.195312 L 40.21875 277.269531 C 40.027344 277.082031 39.921875 276.824219 39.929688 276.554688 L 40.398438 263.824219 C 40.417969 263.339844 40.796875 262.945312 41.28125 262.910156 Z M 41.28125 262.910156 " fill-opacity="1" fill-rule="nonzero"/></g></g></g><g clip-path="url(#26505ca67f)"><g clip-path="url(#718fe2e3a3)"><g clip-path="url(#89aff5234c)"><path fill="#38b6ff" d="M 50.117188 271.421875 L 62.820312 270.472656 C 63.089844 270.453125 63.351562 270.546875 63.542969 270.734375 L 67.621094 274.660156 C 67.890625 274.917969 67.980469 275.3125 67.855469 275.664062 C 67.722656 276.015625 67.402344 276.261719 67.03125 276.289062 L 55.175781 277.171875 L 54.738281 289.050781 C 54.726562 289.425781 54.492188 289.757812 54.144531 289.898438 C 53.796875 290.039062 53.402344 289.964844 53.132812 289.707031 L 49.054688 285.777344 C 48.863281 285.59375 48.761719 285.332031 48.765625 285.066406 L 49.234375 272.335938 C 49.253906 271.851562 49.636719 271.453125 50.117188 271.421875 Z M 50.117188 271.421875 " fill-opacity="1" fill-rule="nonzero"/></g></g></g><g clip-path="url(#7e687fe4bc)"><g clip-path="url(#b1d639fa12)"><g clip-path="url(#60341ad90e)"><path fill="#38b6ff" d="M 22.734375 226.0625 L 35.210938 228.632812 C 35.476562 228.6875 35.699219 228.851562 35.835938 229.082031 L 38.679688 233.976562 C 38.867188 234.296875 38.847656 234.703125 38.628906 235.003906 C 38.40625 235.308594 38.03125 235.457031 37.664062 235.378906 L 26.023438 232.980469 L 22.347656 244.285156 C 22.230469 244.640625 21.917969 244.898438 21.542969 244.9375 C 21.171875 244.976562 20.808594 244.796875 20.625 244.472656 L 17.777344 239.578125 C 17.644531 239.347656 17.617188 239.070312 17.695312 238.8125 L 21.636719 226.699219 C 21.785156 226.238281 22.261719 225.960938 22.734375 226.0625 Z M 22.734375 226.0625 " fill-opacity="1" fill-rule="nonzero"/></g></g></g><g clip-path="url(#dffdfea52a)"><g clip-path="url(#c048c664f6)"><g clip-path="url(#7c6208c6d2)"><path fill="#38b6ff" d="M 28.898438 236.667969 L 41.375 239.238281 C 41.640625 239.296875 41.867188 239.457031 42 239.6875 L 44.847656 244.582031 C 45.035156 244.90625 45.011719 245.308594 44.792969 245.613281 C 44.574219 245.914062 44.195312 246.0625 43.832031 245.984375 L 32.1875 243.585938 L 28.511719 254.890625 C 28.394531 255.246094 28.082031 255.503906 27.710938 255.542969 C 27.335938 255.582031 26.976562 255.402344 26.789062 255.082031 L 23.941406 250.183594 C 23.808594 249.953125 23.78125 249.675781 23.859375 249.421875 L 27.800781 237.304688 C 27.949219 236.847656 28.425781 236.570312 28.898438 236.667969 Z M 28.898438 236.667969 " fill-opacity="1" fill-rule="nonzero"/></g></g></g><g clip-path="url(#39fba14fe1)"><path fill="#5ce1e6" d="M 20.015625 172.027344 L 29.507812 180.519531 C 29.710938 180.699219 29.824219 180.953125 29.824219 181.222656 L 29.824219 186.882812 C 29.824219 187.257812 29.605469 187.59375 29.261719 187.746094 C 28.917969 187.898438 28.515625 187.835938 28.242188 187.585938 L 19.378906 179.660156 L 10.523438 187.585938 C 10.242188 187.835938 9.84375 187.898438 9.5 187.746094 C 9.15625 187.59375 8.9375 187.257812 8.9375 186.882812 L 8.9375 181.222656 C 8.9375 180.953125 9.050781 180.699219 9.25 180.519531 L 18.746094 172.027344 C 19.105469 171.703125 19.65625 171.703125 20.015625 172.027344 Z M 20.015625 172.027344 " fill-opacity="1" fill-rule="nonzero"/></g><g clip-path="url(#f303bd75b2)"><path fill="#5ce1e6" d="M 20.015625 184.292969 L 29.507812 192.789062 C 29.710938 192.96875 29.824219 193.222656 29.824219 193.488281 L 29.824219 199.152344 C 29.824219 199.523438 29.605469 199.863281 29.261719 200.015625 C 28.917969 200.164062 28.515625 200.105469 28.242188 199.855469 L 19.378906 191.929688 L 10.523438 199.855469 C 10.242188 200.105469 9.84375 200.167969 9.5 200.015625 C 9.15625 199.863281 8.9375 199.523438 8.9375 199.152344 L 8.9375 193.488281 C 8.9375 193.222656 9.050781 192.96875 9.25 192.789062 L 18.746094 184.292969 C 19.105469 183.972656 19.65625 183.972656 20.015625 184.292969 Z M 20.015625 184.292969 " fill-opacity="1" fill-rule="nonzero"/></g><g clip-path="url(#a747d9dda0)"><g clip-path="url(#1ed5a178ea)"><g clip-path="url(#a3f9be0a5d)"><path fill="#38b6ff" d="M 38.21875 122.101562 L 41.183594 134.492188 C 41.246094 134.753906 41.195312 135.027344 41.042969 135.246094 L 37.816406 139.902344 C 37.605469 140.207031 37.230469 140.359375 36.863281 140.289062 C 36.496094 140.21875 36.203125 139.941406 36.117188 139.578125 L 33.347656 128.015625 L 21.554688 129.484375 C 21.183594 129.53125 20.816406 129.355469 20.621094 129.035156 C 20.425781 128.714844 20.4375 128.308594 20.648438 128.003906 L 23.875 123.351562 C 24.027344 123.128906 24.269531 122.988281 24.53125 122.953125 L 37.175781 121.378906 C 37.65625 121.320312 38.105469 121.632812 38.21875 122.101562 Z M 38.21875 122.101562 " fill-opacity="1" fill-rule="nonzero"/></g></g></g><g clip-path="url(#e4c0268975)"><g clip-path="url(#2b8cf7b3ef)"><g clip-path="url(#2c868d171d)"><path fill="#38b6ff" d="M 31.230469 132.1875 L 34.195312 144.574219 C 34.257812 144.839844 34.207031 145.109375 34.054688 145.332031 L 30.828125 149.984375 C 30.617188 150.289062 30.246094 150.441406 29.875 150.375 C 29.507812 150.300781 29.214844 150.023438 29.128906 149.660156 L 26.359375 138.101562 L 14.566406 139.566406 C 14.195312 139.613281 13.828125 139.4375 13.632812 139.117188 C 13.4375 138.796875 13.449219 138.394531 13.664062 138.085938 L 16.886719 133.433594 C 17.039062 133.214844 17.28125 133.070312 17.546875 133.035156 L 30.1875 131.460938 C 30.667969 131.402344 31.121094 131.714844 31.230469 132.1875 Z M 31.230469 132.1875 " fill-opacity="1" fill-rule="nonzero"/></g></g></g><g clip-path="url(#cb04303bc9)"><g clip-path="url(#2d043ab7b9)"><g clip-path="url(#d8b4f8b309)"><path fill="#38b6ff" d="M 65.816406 90.09375 L 65.914062 102.832031 C 65.917969 103.101562 65.804688 103.355469 65.609375 103.535156 L 61.417969 107.34375 C 61.140625 107.59375 60.742188 107.660156 60.402344 107.507812 C 60.058594 107.355469 59.835938 107.015625 59.832031 106.644531 L 59.742188 94.757812 L 47.917969 93.53125 C 47.546875 93.492188 47.230469 93.238281 47.113281 92.882812 C 46.996094 92.523438 47.097656 92.136719 47.371094 91.882812 L 51.5625 88.078125 C 51.761719 87.898438 52.027344 87.8125 52.292969 87.835938 L 64.964844 89.152344 C 65.445312 89.203125 65.816406 89.609375 65.816406 90.09375 Z M 65.816406 90.09375 " fill-opacity="1" fill-rule="nonzero"/></g></g></g><g clip-path="url(#5e78e97987)"><g clip-path="url(#d03158b1e2)"><g clip-path="url(#ba5b2dc4e1)"><path fill="#38b6ff" d="M 56.738281 98.34375 L 56.835938 111.082031 C 56.835938 111.351562 56.726562 111.605469 56.527344 111.785156 L 52.335938 115.59375 C 52.0625 115.84375 51.664062 115.90625 51.320312 115.757812 C 50.976562 115.605469 50.753906 115.265625 50.753906 114.894531 L 50.660156 103.007812 L 38.839844 101.78125 C 38.464844 101.742188 38.148438 101.488281 38.03125 101.132812 C 37.914062 100.773438 38.015625 100.382812 38.292969 100.132812 L 42.480469 96.328125 C 42.679688 96.148438 42.945312 96.0625 43.210938 96.085938 L 55.882812 97.402344 C 56.363281 97.453125 56.734375 97.859375 56.738281 98.34375 Z M 56.738281 98.34375 " fill-opacity="1" fill-rule="nonzero"/></g></g></g><g clip-path="url(#b394941abb)"><g clip-path="url(#d25bbd1ec4)"><g clip-path="url(#3d1e3b320f)"><path fill="#38b6ff" d="M 100.488281 72.246094 L 97.054688 84.511719 C 96.980469 84.773438 96.800781 84.988281 96.5625 85.105469 L 91.480469 87.601562 C 91.148438 87.765625 90.746094 87.71875 90.457031 87.480469 C 90.171875 87.238281 90.050781 86.851562 90.152344 86.492188 L 93.355469 75.042969 L 82.335938 70.589844 C 81.988281 70.449219 81.753906 70.117188 81.742188 69.746094 C 81.726562 69.367188 81.933594 69.023438 82.265625 68.859375 L 87.347656 66.359375 C 87.589844 66.242188 87.867188 66.234375 88.117188 66.332031 L 99.925781 71.105469 C 100.375 71.285156 100.617188 71.78125 100.488281 72.246094 Z M 100.488281 72.246094 " fill-opacity="1" fill-rule="nonzero"/></g></g></g><g clip-path="url(#853d61a468)"><g clip-path="url(#dc7ba25c88)"><g clip-path="url(#4d007f62f9)"><path fill="#38b6ff" d="M 89.476562 77.65625 L 86.042969 89.925781 C 85.96875 90.183594 85.792969 90.398438 85.550781 90.515625 L 80.472656 93.015625 C 80.136719 93.179688 79.738281 93.128906 79.449219 92.890625 C 79.160156 92.648438 79.039062 92.261719 79.140625 91.902344 L 82.347656 80.457031 L 71.324219 76.003906 C 70.980469 75.863281 70.746094 75.53125 70.730469 75.15625 C 70.71875 74.78125 70.921875 74.433594 71.257812 74.269531 L 76.339844 71.773438 C 76.578125 71.652344 76.855469 71.648438 77.105469 71.742188 L 88.917969 76.515625 C 89.367188 76.699219 89.609375 77.191406 89.476562 77.65625 Z M 89.476562 77.65625 " fill-opacity="1" fill-rule="nonzero"/></g></g></g><g clip-path="url(#8430eea6f2)"><path fill="#5ce1e6" d="M 146.195312 68.148438 L 137.703125 77.640625 C 137.519531 77.84375 137.265625 77.957031 137 77.957031 L 131.335938 77.957031 C 130.964844 77.957031 130.628906 77.738281 130.472656 77.394531 C 130.324219 77.050781 130.386719 76.652344 130.636719 76.375 L 138.558594 67.515625 L 130.636719 58.65625 C 130.386719 58.375 130.320312 57.976562 130.472656 57.632812 C 130.628906 57.289062 130.964844 57.070312 131.335938 57.070312 L 137 57.070312 C 137.265625 57.070312 137.519531 57.1875 137.703125 57.382812 L 146.195312 66.878906 C 146.515625 67.238281 146.515625 67.789062 146.195312 68.148438 Z M 146.195312 68.148438 " fill-opacity="1" fill-rule="nonzero"/></g><g clip-path="url(#39a0fbddd6)"><path fill="#5ce1e6" d="M 133.925781 68.148438 L 125.433594 77.640625 C 125.25 77.84375 125 77.957031 124.730469 77.957031 L 119.070312 77.957031 C 118.695312 77.957031 118.359375 77.738281 118.207031 77.394531 C 118.054688 77.050781 118.117188 76.652344 118.367188 76.375 L 126.292969 67.515625 L 118.367188 58.65625 C 118.117188 58.375 118.054688 57.976562 118.207031 57.632812 C 118.359375 57.289062 118.695312 57.070312 119.070312 57.070312 L 124.730469 57.070312 C 125 57.070312 125.25 57.1875 125.433594 57.382812 L 133.925781 66.878906 C 134.25 67.238281 134.25 67.789062 133.925781 68.148438 Z M 133.925781 68.148438 " fill-opacity="1" fill-rule="nonzero"/></g><g clip-path="url(#61818a76b8)"><g clip-path="url(#6cacd37aa2)"><g clip-path="url(#27d172125b)"><path fill="#38b6ff" d="M 182.71875 68.148438 L 173.941406 77.382812 C 173.753906 77.578125 173.5 77.6875 173.230469 77.675781 L 167.570312 77.507812 C 167.199219 77.496094 166.871094 77.265625 166.726562 76.917969 C 166.585938 76.570312 166.660156 76.171875 166.917969 75.902344 L 175.105469 67.285156 L 167.453125 58.191406 C 167.210938 57.90625 167.160156 57.503906 167.320312 57.167969 C 167.484375 56.828125 167.828125 56.617188 168.199219 56.628906 L 173.859375 56.800781 C 174.128906 56.808594 174.378906 56.929688 174.554688 57.132812 L 182.757812 66.878906 C 183.066406 67.25 183.050781 67.800781 182.71875 68.148438 Z M 182.71875 68.148438 " fill-opacity="1" fill-rule="nonzero"/></g></g></g><g clip-path="url(#bcbe429fa7)"><g clip-path="url(#446f6f6f50)"><g clip-path="url(#b93f54f7fe)"><path fill="#38b6ff" d="M 170.457031 67.78125 L 161.679688 77.015625 C 161.492188 77.210938 161.238281 77.316406 160.96875 77.308594 L 155.308594 77.136719 C 154.9375 77.125 154.605469 76.894531 154.464844 76.550781 C 154.324219 76.203125 154.398438 75.804688 154.65625 75.535156 L 162.84375 66.917969 L 155.1875 57.824219 C 154.949219 57.539062 154.894531 57.136719 155.058594 56.796875 C 155.222656 56.457031 155.566406 56.25 155.9375 56.261719 L 161.597656 56.429688 C 161.867188 56.4375 162.113281 56.5625 162.289062 56.765625 L 170.492188 66.511719 C 170.804688 66.878906 170.789062 67.429688 170.457031 67.78125 Z M 170.457031 67.78125 " fill-opacity="1" fill-rule="nonzero"/></g></g></g><g clip-path="url(#060c804579)"><g clip-path="url(#eac81d15fa)"><g clip-path="url(#a442733e5d)"><path fill="#5ce1e6" d="M 294.371094 68.148438 L 285.59375 77.382812 C 285.40625 77.578125 285.152344 77.6875 284.882812 77.675781 L 279.222656 77.507812 C 278.851562 77.496094 278.523438 77.265625 278.378906 76.917969 C 278.238281 76.570312 278.3125 76.171875 278.570312 75.902344 L 286.757812 67.285156 L 279.105469 58.191406 C 278.863281 57.90625 278.8125 57.503906 278.972656 57.167969 C 279.136719 56.828125 279.480469 56.617188 279.851562 56.628906 L 285.511719 56.800781 C 285.78125 56.808594 286.03125 56.929688 286.207031 57.132812 L 294.410156 66.878906 C 294.71875 67.25 294.703125 67.800781 294.371094 68.148438 Z M 294.371094 68.148438 " fill-opacity="1" fill-rule="nonzero"/></g></g></g><g clip-path="url(#78344ae2f6)"><g clip-path="url(#5973b7353a)"><g clip-path="url(#7c67da9d87)"><path fill="#5ce1e6" d="M 282.109375 67.78125 L 273.332031 77.015625 C 273.144531 77.210938 272.890625 77.316406 272.621094 77.308594 L 266.960938 77.136719 C 266.589844 77.125 266.257812 76.894531 266.117188 76.550781 C 265.976562 76.203125 266.050781 75.804688 266.308594 75.535156 L 274.496094 66.917969 L 266.839844 57.824219 C 266.601562 57.539062 266.546875 57.136719 266.710938 56.796875 C 266.875 56.457031 267.21875 56.25 267.589844 56.261719 L 273.25 56.429688 C 273.519531 56.4375 273.765625 56.5625 273.941406 56.765625 L 282.144531 66.511719 C 282.457031 66.878906 282.441406 67.429688 282.109375 67.78125 Z M 282.109375 67.78125 " fill-opacity="1" fill-rule="nonzero"/></g></g></g><g clip-path="url(#54530aa95b)"><g clip-path="url(#6234717458)"><g clip-path="url(#fc66c0129e)"><path fill="#38b6ff" d="M 257.246094 68.148438 L 248.46875 77.382812 C 248.28125 77.578125 248.027344 77.6875 247.757812 77.675781 L 242.097656 77.507812 C 241.726562 77.496094 241.398438 77.265625 241.253906 76.917969 C 241.113281 76.570312 241.1875 76.171875 241.445312 75.902344 L 249.632812 67.285156 L 241.980469 58.191406 C 241.738281 57.90625 241.6875 57.503906 241.847656 57.167969 C 242.011719 56.828125 242.355469 56.617188 242.726562 56.628906 L 248.386719 56.800781 C 248.65625 56.808594 248.90625 56.929688 249.082031 57.132812 L 257.285156 66.878906 C 257.59375 67.25 257.578125 67.800781 257.246094 68.148438 Z M 257.246094 68.148438 " fill-opacity="1" fill-rule="nonzero"/></g></g></g><g clip-path="url(#f8442fc3f2)"><g clip-path="url(#e6fce8b35b)"><g clip-path="url(#003096ef14)"><path fill="#38b6ff" d="M 244.984375 67.78125 L 236.207031 77.015625 C 236.019531 77.210938 235.765625 77.316406 235.496094 77.308594 L 229.835938 77.136719 C 229.464844 77.125 229.132812 76.894531 228.992188 76.550781 C 228.851562 76.203125 228.925781 75.804688 229.183594 75.535156 L 237.371094 66.917969 L 229.714844 57.824219 C 229.476562 57.539062 229.421875 57.136719 229.585938 56.796875 C 229.75 56.457031 230.09375 56.25 230.464844 56.261719 L 236.125 56.429688 C 236.394531 56.4375 236.640625 56.5625 236.816406 56.765625 L 245.019531 66.511719 C 245.332031 66.878906 245.316406 67.429688 244.984375 67.78125 Z M 244.984375 67.78125 " fill-opacity="1" fill-rule="nonzero"/></g></g></g><g clip-path="url(#e90d5c1072)"><g clip-path="url(#f2126b74b3)"><g clip-path="url(#119f28709c)"><path fill="#38b6ff" d="M 220.730469 68.148438 L 211.953125 77.382812 C 211.765625 77.578125 211.511719 77.6875 211.242188 77.675781 L 205.582031 77.507812 C 205.210938 77.496094 204.878906 77.265625 204.738281 76.917969 C 204.597656 76.570312 204.671875 76.171875 204.929688 75.902344 L 213.117188 67.285156 L 205.460938 58.191406 C 205.222656 57.90625 205.167969 57.503906 205.332031 57.167969 C 205.496094 56.828125 205.839844 56.617188 206.210938 56.628906 L 211.871094 56.800781 C 212.140625 56.808594 212.386719 56.929688 212.5625 57.132812 L 220.765625 66.878906 C 221.078125 67.25 221.0625 67.800781 220.730469 68.148438 Z M 220.730469 68.148438 " fill-opacity="1" fill-rule="nonzero"/></g></g></g><g clip-path="url(#f62a0de962)"><g clip-path="url(#e1649ad11c)"><g clip-path="url(#6b2a9eeee4)"><path fill="#38b6ff" d="M 208.464844 67.78125 L 199.691406 77.015625 C 199.503906 77.210938 199.246094 77.316406 198.980469 77.308594 L 193.320312 77.136719 C 192.949219 77.125 192.617188 76.894531 192.476562 76.550781 C 192.335938 76.203125 192.410156 75.804688 192.664062 75.535156 L 200.855469 66.917969 L 193.199219 57.824219 C 192.957031 57.539062 192.90625 57.136719 193.070312 56.796875 C 193.234375 56.457031 193.578125 56.25 193.949219 56.261719 L 199.609375 56.429688 C 199.875 56.4375 200.125 56.5625 200.300781 56.765625 L 208.503906 66.511719 C 208.816406 66.878906 208.800781 67.429688 208.464844 67.78125 Z M 208.464844 67.78125 " fill-opacity="1" fill-rule="nonzero"/></g></g></g></svg>