<svg xmlns="http://www.w3.org/2000/svg" xmlns:xlink="http://www.w3.org/1999/xlink" width="450" zoomAndPan="magnify" viewBox="0 0 337.5 374.999991" height="500" preserveAspectRatio="xMidYMid meet" version="1.0"><defs><clipPath id="01429f9637"><path d="M 0 52.777344 L 303.75 52.777344 L 303.75 323 L 0 323 Z M 0 52.777344 " clip-rule="nonzero"/></clipPath><clipPath id="4608498a9e"><path d="M 7.917969 142.824219 C 3.136719 156.667969 0 172.40625 0 187.851562 C 0 203.296875 2.6875 218.15625 7.46875 231.855469 C 7.621094 232.144531 7.621094 232.4375 7.769531 232.730469 C 26.890625 284.164062 77.390625 322.046875 135.65625 322.777344 L 303.75 322.777344 L 303.75 52.777344 L 135.78125 52.777344 C 77.09375 53.503906 26.59375 90.808594 7.917969 142.824219 " clip-rule="nonzero"/></clipPath><clipPath id="2717da25cc"><path d="M 0 52.777344 L 303.75 52.777344 L 303.75 322.777344 L 0 322.777344 Z M 0 52.777344 " clip-rule="nonzero"/></clipPath><clipPath id="911c753cbd"><path d="M 7.917969 142.824219 C 3.136719 156.667969 0 172.40625 0 187.851562 C 0 203.296875 2.6875 218.15625 7.46875 231.855469 C 7.621094 232.144531 7.621094 232.4375 7.769531 232.730469 C 26.890625 284.164062 77.390625 322.046875 135.65625 322.777344 L 303.75 322.777344 L 303.75 52.777344 L 135.78125 52.777344 C 77.09375 53.503906 26.59375 90.808594 7.917969 142.824219 " clip-rule="nonzero"/></clipPath><clipPath id="91855cd500"><path d="M 33.75 78 L 250 78 L 250 294.019531 L 33.75 294.019531 Z M 33.75 78 " clip-rule="nonzero"/></clipPath><clipPath id="b083dc6595"><path d="M 33.75 186.019531 C 33.75 245.664062 82.101562 294.019531 141.75 294.019531 C 201.398438 294.019531 249.75 245.664062 249.75 186.019531 C 249.75 126.371094 201.398438 78.019531 141.75 78.019531 C 82.101562 78.019531 33.75 126.371094 33.75 186.019531 " clip-rule="nonzero"/></clipPath><clipPath id="665b85067f"><path d="M 33.75 78.019531 L 249.75 78.019531 L 249.75 294.019531 L 33.75 294.019531 Z M 33.75 78.019531 " clip-rule="nonzero"/></clipPath><clipPath id="46f7fbd42b"><path d="M 33.75 186.019531 C 33.75 245.664062 82.101562 294.019531 141.75 294.019531 C 201.398438 294.019531 249.75 245.664062 249.75 186.019531 C 249.75 126.371094 201.398438 78.019531 141.75 78.019531 C 82.101562 78.019531 33.75 126.371094 33.75 186.019531 " clip-rule="nonzero"/></clipPath><clipPath id="fdafc89221"><path d="M 74 178 L 107 178 L 107 197 L 74 197 Z M 74 178 " clip-rule="nonzero"/></clipPath><clipPath id="2e439d8b69"><path d="M 74.804688 196.648438 L 74.734375 178.484375 L 106.660156 178.363281 L 106.730469 196.527344 Z M 74.804688 196.648438 " clip-rule="nonzero"/></clipPath><clipPath id="65a7631a54"><path d="M 74.804688 196.648438 L 74.734375 178.882812 L 106.464844 178.761719 L 106.53125 196.527344 Z M 74.804688 196.648438 " clip-rule="nonzero"/></clipPath><clipPath id="041bb89b49"><path d="M 148 127 L 180 127 L 180 164 L 148 164 Z M 148 127 " clip-rule="nonzero"/></clipPath><clipPath id="81f5c32b85"><path d="M 163.515625 163.679688 L 147.847656 154.484375 L 164.007812 126.953125 L 179.671875 136.144531 Z M 163.515625 163.679688 " clip-rule="nonzero"/></clipPath><clipPath id="4a631e8d4a"><path d="M 163.515625 163.679688 L 148.191406 154.6875 L 164.25 127.324219 L 179.574219 136.316406 Z M 163.515625 163.679688 " clip-rule="nonzero"/></clipPath><clipPath id="7d5db9fec0"><path d="M 90 145 L 164 145 L 164 231 L 90 231 Z M 90 145 " clip-rule="nonzero"/></clipPath><clipPath id="7f24130286"><path d="M 200.46875 208.984375 L 126.652344 251.53125 L 89.707031 187.429688 L 163.519531 144.882812 Z M 200.46875 208.984375 " clip-rule="nonzero"/></clipPath><clipPath id="08bebfc183"><path d="M 163.84375 230.097656 L 90.628906 187.726562 L 163.875 145.503906 L 163.84375 230.097656 " clip-rule="nonzero"/></clipPath><clipPath id="977fff3209"><path d="M 144 205 L 176 205 L 176 242 L 144 242 Z M 144 205 " clip-rule="nonzero"/></clipPath><clipPath id="c3e97f2f0c"><path d="M 175.488281 232.496094 L 159.75 241.566406 L 143.808594 213.910156 L 159.542969 204.839844 Z M 175.488281 232.496094 " clip-rule="nonzero"/></clipPath><clipPath id="a884870f71"><path d="M 175.488281 232.496094 L 160.09375 241.371094 L 144.25 213.882812 L 159.640625 205.007812 Z M 175.488281 232.496094 " clip-rule="nonzero"/></clipPath><clipPath id="fac4a09b5c"><path d="M 150 226 L 206 226 L 206 283 L 150 283 Z M 150 226 " clip-rule="nonzero"/></clipPath><clipPath id="0001235597"><path d="M 189.132812 217.003906 L 215.792969 265.824219 L 166.976562 292.484375 L 140.316406 243.664062 Z M 189.132812 217.003906 " clip-rule="nonzero"/></clipPath><clipPath id="3317bbc3b0"><path d="M 202.460938 241.414062 C 195.097656 227.933594 178.203125 222.972656 164.722656 230.335938 C 151.242188 237.699219 146.28125 254.59375 153.644531 268.074219 C 161.007812 281.554688 177.902344 286.515625 191.382812 279.152344 C 204.863281 271.789062 209.824219 254.894531 202.460938 241.414062 " clip-rule="nonzero"/></clipPath><clipPath id="8544ccd7f5"><path d="M 150 226 L 206 226 L 206 283 L 150 283 Z M 150 226 " clip-rule="nonzero"/></clipPath><clipPath id="561dc7d6d3"><path d="M 189.132812 217.003906 L 215.734375 265.714844 L 167.023438 292.316406 L 140.421875 243.605469 Z M 189.132812 217.003906 " clip-rule="nonzero"/></clipPath><clipPath id="d80debf8e1"><path d="M 189.132812 217.003906 L 215.734375 265.714844 L 167.023438 292.316406 L 140.421875 243.605469 Z M 189.132812 217.003906 " clip-rule="nonzero"/></clipPath><clipPath id="258f75e81b"><path d="M 202.433594 241.359375 C 195.085938 227.910156 178.226562 222.960938 164.777344 230.304688 C 151.324219 237.652344 146.378906 254.511719 153.722656 267.960938 C 161.070312 281.414062 177.925781 286.363281 191.378906 279.015625 C 204.828125 271.671875 209.777344 254.8125 202.433594 241.359375 " clip-rule="nonzero"/></clipPath><clipPath id="e9c688bf2c"><path d="M 151 91 L 207 91 L 207 148 L 151 148 Z M 151 91 " clip-rule="nonzero"/></clipPath><clipPath id="9822fb9c63"><path d="M 216.902344 109.417969 L 189.039062 157.554688 L 140.898438 129.691406 L 168.761719 81.550781 Z M 216.902344 109.417969 " clip-rule="nonzero"/></clipPath><clipPath id="bf8935b031"><path d="M 202.96875 133.484375 C 210.664062 120.191406 206.125 103.179688 192.832031 95.484375 C 179.539062 87.789062 162.523438 92.328125 154.828125 105.621094 C 147.136719 118.914062 151.675781 135.929688 164.96875 143.625 C 178.261719 151.320312 195.273438 146.78125 202.96875 133.484375 " clip-rule="nonzero"/></clipPath><clipPath id="b30607ea58"><path d="M 151 91 L 207 91 L 207 148 L 151 148 Z M 151 91 " clip-rule="nonzero"/></clipPath><clipPath id="8032198339"><path d="M 216.902344 109.417969 L 189.097656 157.449219 L 141.066406 129.648438 L 168.867188 81.613281 Z M 216.902344 109.417969 " clip-rule="nonzero"/></clipPath><clipPath id="35fee74741"><path d="M 216.902344 109.417969 L 189.097656 157.449219 L 141.066406 129.648438 L 168.867188 81.613281 Z M 216.902344 109.417969 " clip-rule="nonzero"/></clipPath><clipPath id="51f21af73e"><path d="M 203 133.433594 C 210.675781 120.167969 206.148438 103.191406 192.882812 95.515625 C 179.621094 87.835938 162.644531 92.367188 154.964844 105.632812 C 147.289062 118.894531 151.816406 135.871094 165.082031 143.550781 C 178.347656 151.226562 195.324219 146.699219 203 133.433594 " clip-rule="nonzero"/></clipPath><clipPath id="5396316f68"><path d="M 36.980469 159.714844 L 92.605469 159.714844 L 92.605469 215.335938 L 36.980469 215.335938 Z M 36.980469 159.714844 " clip-rule="nonzero"/></clipPath><clipPath id="6bf651dd1e"><path d="M 92.605469 187.527344 C 92.605469 172.167969 80.152344 159.714844 64.792969 159.714844 C 49.433594 159.714844 36.980469 172.167969 36.980469 187.527344 C 36.980469 202.886719 49.433594 215.335938 64.792969 215.335938 C 80.152344 215.335938 92.605469 202.886719 92.605469 187.527344 " clip-rule="nonzero"/></clipPath><clipPath id="a3de15e11c"><path d="M 37.105469 159.714844 L 92.605469 159.714844 L 92.605469 215.214844 L 37.105469 215.214844 Z M 37.105469 159.714844 " clip-rule="nonzero"/></clipPath><clipPath id="2603c6e765"><path d="M 92.605469 187.464844 C 92.605469 172.140625 80.179688 159.714844 64.855469 159.714844 C 49.527344 159.714844 37.105469 172.140625 37.105469 187.464844 C 37.105469 202.789062 49.527344 215.214844 64.855469 215.214844 C 80.179688 215.214844 92.605469 202.789062 92.605469 187.464844 " clip-rule="nonzero"/></clipPath><clipPath id="466f96f2b7"><path d="M 171 247 L 186 247 L 186 262 L 171 262 Z M 171 247 " clip-rule="nonzero"/></clipPath><clipPath id="0ffdc36d22"><path d="M 187.585938 257.300781 L 175.492188 264.273438 L 168.519531 252.175781 L 180.617188 245.207031 Z M 187.585938 257.300781 " clip-rule="nonzero"/></clipPath><clipPath id="7eb6f22778"><path d="M 181.539062 260.785156 C 184.878906 258.859375 186.027344 254.59375 184.101562 251.253906 C 182.175781 247.914062 177.90625 246.765625 174.570312 248.691406 C 171.230469 250.617188 170.082031 254.886719 172.007812 258.222656 C 173.933594 261.5625 178.199219 262.710938 181.539062 260.785156 " clip-rule="nonzero"/></clipPath><clipPath id="66a68343b6"><path d="M 171 112 L 186 112 L 186 127 L 171 127 Z M 171 112 " clip-rule="nonzero"/></clipPath><clipPath id="8f50868bf1"><path d="M 181.449219 129.085938 L 169.367188 122.09375 L 176.359375 110.011719 L 188.441406 117.007812 Z M 181.449219 129.085938 " clip-rule="nonzero"/></clipPath><clipPath id="2bc2238c61"><path d="M 175.40625 125.589844 C 178.742188 127.523438 183.015625 126.382812 184.945312 123.046875 C 186.875 119.710938 185.738281 115.441406 182.402344 113.511719 C 179.0625 111.578125 174.792969 112.71875 172.863281 116.054688 C 170.933594 119.390625 172.070312 123.660156 175.40625 125.589844 " clip-rule="nonzero"/></clipPath><clipPath id="60b0594b7d"><path d="M 57 181 L 72 181 L 72 196 L 57 196 Z M 57 181 " clip-rule="nonzero"/></clipPath><clipPath id="69a96ae980"><path d="M 74.347656 191.121094 L 62.253906 198.09375 L 55.28125 186 L 67.378906 179.027344 Z M 74.347656 191.121094 " clip-rule="nonzero"/></clipPath><clipPath id="18a2670d98"><path d="M 68.300781 194.605469 C 71.640625 192.683594 72.789062 188.414062 70.863281 185.074219 C 68.9375 181.734375 64.667969 180.589844 61.328125 182.511719 C 57.992188 184.4375 56.84375 188.707031 58.769531 192.046875 C 60.695312 195.386719 64.960938 196.53125 68.300781 194.605469 " clip-rule="nonzero"/></clipPath><clipPath id="d047773b39"><path d="M 86 230 L 131 230 L 131 252 L 86 252 Z M 86 230 " clip-rule="nonzero"/></clipPath><clipPath id="56fb24e749"><path d="M 88.269531 226.894531 L 131.097656 246.847656 L 125.398438 259.085938 L 82.566406 239.132812 Z M 88.269531 226.894531 " clip-rule="nonzero"/></clipPath><clipPath id="7aec7a92b8"><path d="M 131.269531 246.929688 L 88.4375 226.972656 L 82.738281 239.210938 L 125.566406 259.164062 Z M 131.269531 246.929688 " clip-rule="nonzero"/></clipPath><clipPath id="4aa84dcb24"><path d="M 131.269531 246.929688 L 88.4375 226.972656 L 82.738281 239.210938 L 125.566406 259.164062 Z M 131.269531 246.929688 " clip-rule="nonzero"/></clipPath><clipPath id="0b21eb6d90"><path d="M 121 249 L 123 249 L 123 250 L 121 250 Z M 121 249 " clip-rule="nonzero"/></clipPath><clipPath id="37a423bd81"><path d="M 88.269531 226.894531 L 131.097656 246.847656 L 125.398438 259.085938 L 82.566406 239.132812 Z M 88.269531 226.894531 " clip-rule="nonzero"/></clipPath><clipPath id="63acbdd638"><path d="M 131.269531 246.929688 L 88.4375 226.972656 L 82.738281 239.210938 L 125.566406 259.164062 Z M 131.269531 246.929688 " clip-rule="nonzero"/></clipPath><clipPath id="4a573761bf"><path d="M 131.269531 246.929688 L 88.4375 226.972656 L 82.738281 239.210938 L 125.566406 259.164062 Z M 131.269531 246.929688 " clip-rule="nonzero"/></clipPath><clipPath id="3f4c6f8a78"><path d="M 87 116 L 127 116 L 127 147 L 87 147 Z M 87 116 " clip-rule="nonzero"/></clipPath><clipPath id="1d0fe10c43"><path d="M 129.507812 123.679688 L 88.535156 147.21875 L 81.8125 135.511719 L 122.78125 111.976562 Z M 129.507812 123.679688 " clip-rule="nonzero"/></clipPath><clipPath id="cf20764d9d"><path d="M 88.375 147.3125 L 129.34375 123.773438 L 122.621094 112.070312 L 81.648438 135.605469 Z M 88.375 147.3125 " clip-rule="nonzero"/></clipPath><clipPath id="9e23952b0b"><path d="M 88.375 147.3125 L 129.34375 123.773438 L 122.621094 112.070312 L 81.648438 135.605469 Z M 88.375 147.3125 " clip-rule="nonzero"/></clipPath><clipPath id="9cb0e06e21"><path d="M 91 138 L 92 138 L 92 139 L 91 139 Z M 91 138 " clip-rule="nonzero"/></clipPath><clipPath id="e77536601e"><path d="M 129.507812 123.679688 L 88.535156 147.21875 L 81.8125 135.511719 L 122.78125 111.976562 Z M 129.507812 123.679688 " clip-rule="nonzero"/></clipPath><clipPath id="3e9a49d839"><path d="M 88.375 147.3125 L 129.34375 123.773438 L 122.621094 112.070312 L 81.648438 135.605469 Z M 88.375 147.3125 " clip-rule="nonzero"/></clipPath><clipPath id="7686434ae1"><path d="M 88.375 147.3125 L 129.34375 123.773438 L 122.621094 112.070312 L 81.648438 135.605469 Z M 88.375 147.3125 " clip-rule="nonzero"/></clipPath><clipPath id="8f73a86783"><path d="M 200 161 L 214 161 L 214 209 L 200 209 Z M 200 161 " clip-rule="nonzero"/></clipPath><clipPath id="913d43366a"><path d="M 198.164062 208.585938 L 202.175781 161.507812 L 215.625 162.652344 L 211.613281 209.734375 Z M 198.164062 208.585938 " clip-rule="nonzero"/></clipPath><clipPath id="675d3af1e8"><path d="M 202.191406 161.320312 L 198.179688 208.398438 L 211.628906 209.546875 L 215.640625 162.464844 Z M 202.191406 161.320312 " clip-rule="nonzero"/></clipPath><clipPath id="1265f3d338"><path d="M 202.191406 161.320312 L 198.179688 208.398438 L 211.628906 209.546875 L 215.640625 162.464844 Z M 202.191406 161.320312 " clip-rule="nonzero"/></clipPath><clipPath id="0b9ee03281"><path d="M 207 169 L 208 169 L 208 170 L 207 170 Z M 207 169 " clip-rule="nonzero"/></clipPath><clipPath id="0271b5a310"><path d="M 198.164062 208.585938 L 202.175781 161.507812 L 215.625 162.652344 L 211.613281 209.734375 Z M 198.164062 208.585938 " clip-rule="nonzero"/></clipPath><clipPath id="addfc5e390"><path d="M 202.191406 161.320312 L 198.179688 208.398438 L 211.628906 209.546875 L 215.640625 162.464844 Z M 202.191406 161.320312 " clip-rule="nonzero"/></clipPath><clipPath id="0fd50ca044"><path d="M 202.191406 161.320312 L 198.179688 208.398438 L 211.628906 209.546875 L 215.640625 162.464844 Z M 202.191406 161.320312 " clip-rule="nonzero"/></clipPath><clipPath id="98179d0e08"><path d="M 266.625 297.128906 L 283 297.128906 L 283 318.128906 L 266.625 318.128906 Z M 266.625 297.128906 " clip-rule="nonzero"/></clipPath><clipPath id="fe0cb17933"><path d="M 278 297.128906 L 294.785156 297.128906 L 294.785156 318.128906 L 278 318.128906 Z M 278 297.128906 " clip-rule="nonzero"/></clipPath><clipPath id="f4df38827c"><path d="M 229.5 297.128906 L 246 297.128906 L 246 318.128906 L 229.5 318.128906 Z M 229.5 297.128906 " clip-rule="nonzero"/></clipPath><clipPath id="6f218ad870"><path d="M 241 297.128906 L 257.660156 297.128906 L 257.660156 318.128906 L 241 318.128906 Z M 241 297.128906 " clip-rule="nonzero"/></clipPath><clipPath id="1b9aaaf995"><path d="M 192.375 297.128906 L 209 297.128906 L 209 318.128906 L 192.375 318.128906 Z M 192.375 297.128906 " clip-rule="nonzero"/></clipPath><clipPath id="85532e92b0"><path d="M 204 297.128906 L 220.535156 297.128906 L 220.535156 318.128906 L 204 318.128906 Z M 204 297.128906 " clip-rule="nonzero"/></clipPath><clipPath id="dde39394f3"><path d="M 155.25 297.128906 L 172 297.128906 L 172 318.128906 L 155.25 318.128906 Z M 155.25 297.128906 " clip-rule="nonzero"/></clipPath><clipPath id="f249b9e0a6"><path d="M 167 297.128906 L 183.410156 297.128906 L 183.410156 318.128906 L 167 318.128906 Z M 167 297.128906 " clip-rule="nonzero"/></clipPath><clipPath id="f9c4ab5737"><path d="M 117 297 L 135 297 L 135 319 L 117 319 Z M 117 297 " clip-rule="nonzero"/></clipPath><clipPath id="dcbb56a60f"><path d="M 117.945312 297.378906 L 146.441406 296.875 L 146.8125 317.871094 L 118.316406 318.375 Z M 117.945312 297.378906 " clip-rule="nonzero"/></clipPath><clipPath id="e63f2a9042"><path d="M 146.101562 296.878906 L 117.605469 297.382812 L 117.976562 318.378906 L 146.472656 317.875 Z M 146.101562 296.878906 " clip-rule="nonzero"/></clipPath><clipPath id="ae6195066b"><path d="M 130 296 L 147 296 L 147 318 L 130 318 Z M 130 296 " clip-rule="nonzero"/></clipPath><clipPath id="fb1dc02747"><path d="M 117.945312 297.378906 L 146.441406 296.875 L 146.8125 317.871094 L 118.316406 318.375 Z M 117.945312 297.378906 " clip-rule="nonzero"/></clipPath><clipPath id="53df1bd0f3"><path d="M 146.101562 296.878906 L 117.605469 297.382812 L 117.976562 318.378906 L 146.472656 317.875 Z M 146.101562 296.878906 " clip-rule="nonzero"/></clipPath><clipPath id="43feeefe38"><path d="M 75 282 L 95 282 L 95 304 L 75 304 Z M 75 282 " clip-rule="nonzero"/></clipPath><clipPath id="5497d9f7af"><path d="M 81.105469 277.734375 L 105.09375 293.121094 L 93.757812 310.796875 L 69.765625 295.410156 Z M 81.105469 277.734375 " clip-rule="nonzero"/></clipPath><clipPath id="4f9c099132"><path d="M 104.808594 292.9375 L 80.816406 277.550781 L 69.480469 295.226562 L 93.46875 310.613281 Z M 104.808594 292.9375 " clip-rule="nonzero"/></clipPath><clipPath id="9d56c58de3"><path d="M 85 289 L 105 289 L 105 311 L 85 311 Z M 85 289 " clip-rule="nonzero"/></clipPath><clipPath id="b690b2abbe"><path d="M 81.105469 277.734375 L 105.09375 293.121094 L 93.757812 310.796875 L 69.765625 295.410156 Z M 81.105469 277.734375 " clip-rule="nonzero"/></clipPath><clipPath id="39d911c3fd"><path d="M 104.808594 292.9375 L 80.816406 277.550781 L 69.480469 295.226562 L 93.46875 310.613281 Z M 104.808594 292.9375 " clip-rule="nonzero"/></clipPath><clipPath id="c7e8c6b797"><path d="M 39 261 L 60 261 L 60 282 L 39 282 Z M 39 261 " clip-rule="nonzero"/></clipPath><clipPath id="57e727ef1b"><path d="M 48.058594 255.742188 L 68.585938 275.511719 L 54.019531 290.636719 L 33.492188 270.867188 Z M 48.058594 255.742188 " clip-rule="nonzero"/></clipPath><clipPath id="ada73a3dcd"><path d="M 68.339844 275.277344 L 47.8125 255.503906 L 33.246094 270.632812 L 53.773438 290.402344 Z M 68.339844 275.277344 " clip-rule="nonzero"/></clipPath><clipPath id="08a9a91a3b"><path d="M 48 270 L 68 270 L 68 290 L 48 290 Z M 48 270 " clip-rule="nonzero"/></clipPath><clipPath id="cc7bd22872"><path d="M 48.058594 255.742188 L 68.585938 275.511719 L 54.019531 290.636719 L 33.492188 270.867188 Z M 48.058594 255.742188 " clip-rule="nonzero"/></clipPath><clipPath id="4e1bd72223"><path d="M 68.339844 275.277344 L 47.8125 255.503906 L 33.246094 270.632812 L 53.773438 290.402344 Z M 68.339844 275.277344 " clip-rule="nonzero"/></clipPath><clipPath id="e4eb9ec3c5"><path d="M 17 226 L 39 226 L 39 245 L 17 245 Z M 17 226 " clip-rule="nonzero"/></clipPath><clipPath id="f6db6188a9"><path d="M 31.21875 221.023438 L 45.539062 245.664062 L 27.386719 256.21875 L 13.0625 231.578125 Z M 31.21875 221.023438 " clip-rule="nonzero"/></clipPath><clipPath id="fb6f048597"><path d="M 45.371094 245.371094 L 31.046875 220.730469 L 12.890625 231.285156 L 27.214844 255.925781 Z M 45.371094 245.371094 " clip-rule="nonzero"/></clipPath><clipPath id="c7359fc20e"><path d="M 23 236 L 45 236 L 45 256 L 23 256 Z M 23 236 " clip-rule="nonzero"/></clipPath><clipPath id="0380f6f08d"><path d="M 31.21875 221.023438 L 45.539062 245.664062 L 27.386719 256.21875 L 13.0625 231.578125 Z M 31.21875 221.023438 " clip-rule="nonzero"/></clipPath><clipPath id="ed61f4f6a9"><path d="M 45.371094 245.371094 L 31.046875 220.730469 L 12.890625 231.285156 L 27.214844 255.925781 Z M 45.371094 245.371094 " clip-rule="nonzero"/></clipPath><clipPath id="57eab4dcc7"><path d="M 8.878906 171.9375 L 29.878906 171.9375 L 29.878906 188 L 8.878906 188 Z M 8.878906 171.9375 " clip-rule="nonzero"/></clipPath><clipPath id="36251639c6"><path d="M 8.878906 184 L 29.878906 184 L 29.878906 200.097656 L 8.878906 200.097656 Z M 8.878906 184 " clip-rule="nonzero"/></clipPath><clipPath id="9f043e335f"><path d="M 20 121 L 42 121 L 42 141 L 20 141 Z M 20 121 " clip-rule="nonzero"/></clipPath><clipPath id="0795dc43de"><path d="M 46.378906 127.648438 L 30.144531 151.074219 L 12.882812 139.109375 L 29.117188 115.6875 Z M 46.378906 127.648438 " clip-rule="nonzero"/></clipPath><clipPath id="c07931ddad"><path d="M 30.339844 150.792969 L 46.574219 127.367188 L 29.3125 115.40625 L 13.078125 138.832031 Z M 30.339844 150.792969 " clip-rule="nonzero"/></clipPath><clipPath id="9f9bd57dcd"><path d="M 13 131 L 35 131 L 35 151 L 13 151 Z M 13 131 " clip-rule="nonzero"/></clipPath><clipPath id="ca977f8bc4"><path d="M 46.378906 127.648438 L 30.144531 151.074219 L 12.882812 139.109375 L 29.117188 115.6875 Z M 46.378906 127.648438 " clip-rule="nonzero"/></clipPath><clipPath id="01c20cf2fb"><path d="M 30.339844 150.792969 L 46.574219 127.367188 L 29.3125 115.40625 L 13.078125 138.832031 Z M 30.339844 150.792969 " clip-rule="nonzero"/></clipPath><clipPath id="513c50f490"><path d="M 47 87 L 66 87 L 66 108 L 47 108 Z M 47 87 " clip-rule="nonzero"/></clipPath><clipPath id="15a724bb99"><path d="M 72.519531 97.335938 L 51.425781 116.5 L 37.304688 100.957031 L 58.398438 81.792969 Z M 72.519531 97.335938 " clip-rule="nonzero"/></clipPath><clipPath id="2079434bd5"><path d="M 51.675781 116.269531 L 72.769531 97.105469 L 58.648438 81.5625 L 37.554688 100.726562 Z M 51.675781 116.269531 " clip-rule="nonzero"/></clipPath><clipPath id="e336ed431a"><path d="M 37 96 L 57 96 L 57 116 L 37 116 Z M 37 96 " clip-rule="nonzero"/></clipPath><clipPath id="e2f64c7032"><path d="M 72.519531 97.335938 L 51.425781 116.5 L 37.304688 100.957031 L 58.398438 81.792969 Z M 72.519531 97.335938 " clip-rule="nonzero"/></clipPath><clipPath id="32265a0be8"><path d="M 51.675781 116.269531 L 72.769531 97.105469 L 58.648438 81.5625 L 37.554688 100.726562 Z M 51.675781 116.269531 " clip-rule="nonzero"/></clipPath><clipPath id="72310b51f3"><path d="M 81 66 L 101 66 L 101 88 L 81 88 Z M 81 66 " clip-rule="nonzero"/></clipPath><clipPath id="740a48606d"><path d="M 104.921875 81.058594 L 79.34375 93.632812 L 70.078125 74.785156 L 95.65625 62.214844 Z M 104.921875 81.058594 " clip-rule="nonzero"/></clipPath><clipPath id="afb5926537"><path d="M 79.648438 93.480469 L 105.226562 80.910156 L 95.960938 62.0625 L 70.382812 74.636719 Z M 79.648438 93.480469 " clip-rule="nonzero"/></clipPath><clipPath id="7b408c35a5"><path d="M 70 71 L 90 71 L 90 94 L 70 94 Z M 70 71 " clip-rule="nonzero"/></clipPath><clipPath id="1ee9cd8abe"><path d="M 104.921875 81.058594 L 79.34375 93.632812 L 70.078125 74.785156 L 95.65625 62.214844 Z M 104.921875 81.058594 " clip-rule="nonzero"/></clipPath><clipPath id="2f2290d5f2"><path d="M 79.648438 93.480469 L 105.226562 80.910156 L 95.960938 62.0625 L 70.382812 74.636719 Z M 79.648438 93.480469 " clip-rule="nonzero"/></clipPath><clipPath id="40c3b1048b"><path d="M 130 57.015625 L 146.285156 57.015625 L 146.285156 78 L 130 78 Z M 130 57.015625 " clip-rule="nonzero"/></clipPath><clipPath id="deed66e046"><path d="M 118.125 57.015625 L 135 57.015625 L 135 78 L 118.125 78 Z M 118.125 57.015625 " clip-rule="nonzero"/></clipPath><clipPath id="a090a18c33"><path d="M 166 56 L 183 56 L 183 78 L 166 78 Z M 166 56 " clip-rule="nonzero"/></clipPath><clipPath id="82f9f0752f"><path d="M 182.511719 78.011719 L 154.023438 77.15625 L 154.65625 56.164062 L 183.144531 57.023438 Z M 182.511719 78.011719 " clip-rule="nonzero"/></clipPath><clipPath id="fafac8921c"><path d="M 154.363281 77.164062 L 182.851562 78.023438 L 183.484375 57.035156 L 154.996094 56.175781 Z M 154.363281 77.164062 " clip-rule="nonzero"/></clipPath><clipPath id="2e2e7b9c64"><path d="M 154 56 L 171 56 L 171 78 L 154 78 Z M 154 56 " clip-rule="nonzero"/></clipPath><clipPath id="f31ec189ff"><path d="M 182.511719 78.011719 L 154.023438 77.15625 L 154.65625 56.164062 L 183.144531 57.023438 Z M 182.511719 78.011719 " clip-rule="nonzero"/></clipPath><clipPath id="d811d9b7fd"><path d="M 154.363281 77.164062 L 182.851562 78.023438 L 183.484375 57.035156 L 154.996094 56.175781 Z M 154.363281 77.164062 " clip-rule="nonzero"/></clipPath><clipPath id="d11ee9bdd9"><path d="M 278 56 L 295 56 L 295 78 L 278 78 Z M 278 56 " clip-rule="nonzero"/></clipPath><clipPath id="8a41998fe3"><path d="M 294.164062 78.011719 L 265.675781 77.15625 L 266.308594 56.164062 L 294.796875 57.023438 Z M 294.164062 78.011719 " clip-rule="nonzero"/></clipPath><clipPath id="ce3a9fa96f"><path d="M 266.015625 77.164062 L 294.503906 78.023438 L 295.136719 57.035156 L 266.648438 56.175781 Z M 266.015625 77.164062 " clip-rule="nonzero"/></clipPath><clipPath id="c1444a56b8"><path d="M 266 56 L 283 56 L 283 78 L 266 78 Z M 266 56 " clip-rule="nonzero"/></clipPath><clipPath id="8bc2e89c6c"><path d="M 294.164062 78.011719 L 265.675781 77.15625 L 266.308594 56.164062 L 294.796875 57.023438 Z M 294.164062 78.011719 " clip-rule="nonzero"/></clipPath><clipPath id="6bc0ab88f3"><path d="M 266.015625 77.164062 L 294.503906 78.023438 L 295.136719 57.035156 L 266.648438 56.175781 Z M 266.015625 77.164062 " clip-rule="nonzero"/></clipPath><clipPath id="984d6a1e44"><path d="M 241 56 L 258 56 L 258 78 L 241 78 Z M 241 56 " clip-rule="nonzero"/></clipPath><clipPath id="0513848ed8"><path d="M 257.039062 78.011719 L 228.550781 77.15625 L 229.183594 56.164062 L 257.671875 57.023438 Z M 257.039062 78.011719 " clip-rule="nonzero"/></clipPath><clipPath id="b14814c3bf"><path d="M 228.890625 77.164062 L 257.378906 78.023438 L 258.011719 57.035156 L 229.523438 56.175781 Z M 228.890625 77.164062 " clip-rule="nonzero"/></clipPath><clipPath id="c1b139fc66"><path d="M 228 56 L 246 56 L 246 78 L 228 78 Z M 228 56 " clip-rule="nonzero"/></clipPath><clipPath id="dec99e87f3"><path d="M 257.039062 78.011719 L 228.550781 77.15625 L 229.183594 56.164062 L 257.671875 57.023438 Z M 257.039062 78.011719 " clip-rule="nonzero"/></clipPath><clipPath id="ea30722f6b"><path d="M 228.890625 77.164062 L 257.378906 78.023438 L 258.011719 57.035156 L 229.523438 56.175781 Z M 228.890625 77.164062 " clip-rule="nonzero"/></clipPath><clipPath id="fe4cf67893"><path d="M 204 56 L 221 56 L 221 78 L 204 78 Z M 204 56 " clip-rule="nonzero"/></clipPath><clipPath id="1cd2ba6ab2"><path d="M 220.523438 78.011719 L 192.035156 77.15625 L 192.667969 56.164062 L 221.15625 57.023438 Z M 220.523438 78.011719 " clip-rule="nonzero"/></clipPath><clipPath id="c068c1b9bb"><path d="M 192.375 77.164062 L 220.863281 78.023438 L 221.496094 57.035156 L 193.007812 56.175781 Z M 192.375 77.164062 " clip-rule="nonzero"/></clipPath><clipPath id="e0809e0c56"><path d="M 192 56 L 209 56 L 209 78 L 192 78 Z M 192 56 " clip-rule="nonzero"/></clipPath><clipPath id="6fe3e8ded2"><path d="M 220.523438 78.011719 L 192.035156 77.15625 L 192.667969 56.164062 L 221.15625 57.023438 Z M 220.523438 78.011719 " clip-rule="nonzero"/></clipPath><clipPath id="66c3826f55"><path d="M 192.375 77.164062 L 220.863281 78.023438 L 221.496094 57.035156 L 193.007812 56.175781 Z M 192.375 77.164062 " clip-rule="nonzero"/></clipPath></defs><g clip-path="url(#01429f9637)"><g clip-path="url(#4608498a9e)"><path fill="#919191" d="M 303.75 52.777344 L 303.75 323.039062 L -0.132812 323.039062 L -0.132812 52.777344 Z M 303.75 52.777344 " fill-opacity="1" fill-rule="nonzero"/></g></g><g clip-path="url(#2717da25cc)"><g clip-path="url(#911c753cbd)"><path stroke-linecap="butt" transform="matrix(0.000000000000000046, 0.75, -0.75, 0.000000000000000046, 303.749959, 52.777278)" fill="none" stroke-linejoin="miter" d="M 120.062594 394.442673 C 138.520928 400.817674 159.505305 404.999965 180.099056 404.999965 C 200.692807 404.999965 220.505308 401.416632 238.770934 395.041632 C 239.15635 394.838507 239.546975 394.838507 239.9376 394.64059 C 308.515729 369.145797 359.026148 301.81246 360.000106 224.124956 L 360.000106 -0.0000552182 L 0.000088039 -0.0000552182 L 0.000088039 223.95829 C 0.968838 302.208294 50.708424 369.54163 120.062594 394.442673 " stroke="#000000" stroke-width="4" stroke-opacity="1" stroke-miterlimit="4"/></g></g><g clip-path="url(#91855cd500)"><g clip-path="url(#b083dc6595)"><path fill="#707070" d="M 33.75 294.019531 L 33.75 78.28125 L 249.484375 78.28125 L 249.484375 294.019531 Z M 33.75 294.019531 " fill-opacity="1" fill-rule="nonzero"/></g></g><g clip-path="url(#665b85067f)"><g clip-path="url(#46f7fbd42b)"><path stroke-linecap="butt" transform="matrix(0.000000000000000046, -0.75, 0.75, 0.000000000000000046, 33.749997, 294.018312)" fill="none" stroke-linejoin="miter" d="M 143.998391 0.00000357914 C 64.47234 0.00000357914 -0.00162576 64.468761 -0.00162576 144.00002 C -0.00162576 223.531279 64.47234 288.000037 143.998391 288.000037 C 223.52965 288.000037 287.998407 223.531279 287.998407 144.00002 C 287.998407 64.468761 223.52965 0.00000357914 143.998391 0.00000357914 " stroke="#000000" stroke-width="8" stroke-opacity="1" stroke-miterlimit="4"/></g></g><g clip-path="url(#fdafc89221)"><g clip-path="url(#2e439d8b69)"><g clip-path="url(#65a7631a54)"><path fill="#ffde59" d="M 74.804688 196.648438 L 74.734375 179.035156 L 106.660156 178.914062 L 106.730469 196.527344 Z M 74.804688 196.648438 " fill-opacity="1" fill-rule="nonzero"/></g></g></g><g clip-path="url(#041bb89b49)"><g clip-path="url(#81f5c32b85)"><g clip-path="url(#4a631e8d4a)"><path fill="#ffde59" d="M 163.515625 163.679688 L 148.324219 154.765625 L 164.480469 127.230469 L 179.671875 136.144531 Z M 163.515625 163.679688 " fill-opacity="1" fill-rule="nonzero"/></g></g></g><g clip-path="url(#7d5db9fec0)"><g clip-path="url(#7f24130286)"><g clip-path="url(#08bebfc183)"><path fill="#ffde59" d="M 200.46875 208.984375 L 127.300781 251.160156 L 90.726562 187.707031 L 163.890625 145.53125 Z M 200.46875 208.984375 " fill-opacity="1" fill-rule="nonzero"/></g></g></g><g clip-path="url(#977fff3209)"><g clip-path="url(#c3e97f2f0c)"><g clip-path="url(#a884870f71)"><path fill="#ffde59" d="M 175.488281 232.496094 L 160.226562 241.292969 L 144.285156 213.632812 L 159.542969 204.839844 Z M 175.488281 232.496094 " fill-opacity="1" fill-rule="nonzero"/></g></g></g><g clip-path="url(#fac4a09b5c)"><g clip-path="url(#0001235597)"><g clip-path="url(#3317bbc3b0)"><path fill="#ffde59" d="M 189.132812 217.003906 L 215.792969 265.824219 L 166.976562 292.484375 L 140.316406 243.664062 Z M 189.132812 217.003906 " fill-opacity="1" fill-rule="nonzero"/></g></g></g><g clip-path="url(#8544ccd7f5)"><g clip-path="url(#561dc7d6d3)"><g clip-path="url(#d80debf8e1)"><g clip-path="url(#258f75e81b)"><path fill="#000000" d="M 199.804688 242.796875 C 197.144531 237.921875 193.285156 234.351562 188.234375 232.082031 L 190.6875 226.621094 C 196.960938 229.4375 201.753906 233.871094 205.058594 239.925781 Z M 185.738281 231.121094 C 180.453125 229.402344 175.203125 229.449219 169.988281 231.257812 L 168.023438 225.605469 C 174.507812 223.351562 181.03125 223.292969 187.589844 225.425781 Z M 167.515625 232.269531 C 167.078125 232.476562 166.640625 232.699219 166.210938 232.933594 C 161.800781 235.34375 158.4375 238.765625 156.128906 243.203125 L 150.816406 240.441406 C 153.6875 234.925781 157.863281 230.671875 163.34375 227.679688 C 163.875 227.390625 164.414062 227.113281 164.957031 226.855469 Z M 155.023438 245.640625 C 153 250.820312 152.738281 256.070312 154.246094 261.382812 L 148.484375 263.015625 C 146.613281 256.410156 146.933594 249.894531 149.445312 243.464844 Z M 155.105469 263.898438 C 155.46875 264.792969 155.882812 265.671875 156.351562 266.527344 C 158.511719 270.484375 161.515625 273.613281 165.367188 275.910156 L 162.296875 281.050781 C 157.515625 278.195312 153.78125 274.3125 151.09375 269.398438 C 150.515625 268.335938 150.003906 267.25 149.554688 266.136719 Z M 167.730469 277.152344 C 172.78125 279.472656 178.003906 280.035156 183.394531 278.847656 L 184.683594 284.695312 C 177.984375 286.171875 171.5 285.472656 165.230469 282.59375 Z M 185.972656 278.128906 C 187.339844 277.667969 188.664062 277.085938 189.941406 276.386719 C 193.453125 274.472656 196.324219 271.871094 198.550781 268.585938 L 203.507812 271.949219 C 200.734375 276.03125 197.171875 279.261719 192.8125 281.644531 C 191.226562 282.507812 189.585938 283.230469 187.890625 283.800781 Z M 199.929688 266.300781 C 202.535156 261.398438 203.402344 256.214844 202.53125 250.757812 L 208.445312 249.8125 C 209.527344 256.59375 208.449219 263.027344 205.21875 269.113281 Z M 201.964844 248.140625 C 201.457031 246.285156 200.738281 244.503906 199.804688 242.796875 L 205.058594 239.925781 C 206.214844 242.042969 207.109375 244.253906 207.742188 246.558594 Z M 201.964844 248.140625 " fill-opacity="1" fill-rule="nonzero"/></g></g></g></g><g clip-path="url(#e9c688bf2c)"><g clip-path="url(#9822fb9c63)"><g clip-path="url(#bf8935b031)"><path fill="#ffde59" d="M 216.902344 109.417969 L 189.039062 157.554688 L 140.898438 129.691406 L 168.761719 81.550781 Z M 216.902344 109.417969 " fill-opacity="1" fill-rule="nonzero"/></g></g></g><g clip-path="url(#b30607ea58)"><g clip-path="url(#8032198339)"><g clip-path="url(#35fee74741)"><g clip-path="url(#51f21af73e)"><path fill="#000000" d="M 200.410156 131.933594 C 203.191406 127.125 204.238281 121.976562 203.550781 116.480469 L 209.492188 115.738281 C 210.347656 122.566406 209.046875 128.964844 205.589844 134.933594 Z M 203.078125 113.851562 C 201.800781 108.441406 199.035156 103.980469 194.777344 100.460938 L 198.589844 95.847656 C 203.882812 100.21875 207.320312 105.761719 208.90625 112.472656 Z M 192.632812 98.875 C 192.222656 98.609375 191.808594 98.351562 191.382812 98.105469 C 187.035156 95.585938 182.363281 94.496094 177.371094 94.824219 L 176.972656 88.851562 C 183.179688 88.441406 188.980469 89.796875 194.382812 92.925781 C 194.910156 93.226562 195.421875 93.546875 195.925781 93.878906 Z M 174.714844 95.144531 C 169.234375 96.109375 164.617188 98.613281 160.859375 102.660156 L 156.472656 98.585938 C 161.144531 93.554688 166.878906 90.445312 173.675781 89.25 Z M 159.15625 104.699219 C 158.578125 105.476562 158.046875 106.285156 157.558594 107.128906 C 155.296875 111.035156 154.1875 115.226562 154.222656 119.710938 L 148.234375 119.757812 C 148.191406 114.1875 149.570312 108.976562 152.375 104.132812 C 152.980469 103.085938 153.640625 102.082031 154.359375 101.121094 Z M 154.390625 122.375 C 155.03125 127.894531 157.261719 132.648438 161.078125 136.640625 L 156.753906 140.777344 C 152.007812 135.820312 149.238281 129.917969 148.441406 123.066406 Z M 163.03125 138.46875 C 164.136719 139.398438 165.320312 140.226562 166.582031 140.957031 C 170.042969 142.960938 173.757812 144.0625 177.71875 144.261719 L 177.421875 150.242188 C 172.492188 149.996094 167.878906 148.628906 163.582031 146.140625 C 162.019531 145.234375 160.550781 144.207031 159.179688 143.054688 Z M 180.386719 144.25 C 185.933594 143.929688 190.8125 141.980469 195.023438 138.398438 L 198.902344 142.960938 C 193.671875 147.40625 187.613281 149.832031 180.734375 150.230469 Z M 196.964844 136.558594 C 198.285156 135.160156 199.433594 133.617188 200.410156 131.933594 L 205.589844 134.933594 C 204.382812 137.019531 202.957031 138.933594 201.316406 140.671875 Z M 196.964844 136.558594 " fill-opacity="1" fill-rule="nonzero"/></g></g></g></g><g clip-path="url(#5396316f68)"><g clip-path="url(#6bf651dd1e)"><path fill="#ffde59" d="M 92.605469 159.714844 L 92.605469 215.335938 L 36.980469 215.335938 L 36.980469 159.714844 Z M 92.605469 159.714844 " fill-opacity="1" fill-rule="nonzero"/></g></g><g clip-path="url(#a3de15e11c)"><g clip-path="url(#2603c6e765)"><path fill="#000000" d="M 89.609375 187.464844 C 89.609375 181.910156 87.9375 176.929688 84.589844 172.515625 L 89.359375 168.898438 C 93.519531 174.378906 95.597656 180.566406 95.597656 187.464844 Z M 82.863281 170.476562 C 79.046875 166.433594 74.417969 163.960938 68.96875 163.046875 L 69.957031 157.144531 C 76.726562 158.273438 82.480469 161.351562 87.214844 166.367188 Z M 66.320312 162.75 C 65.832031 162.722656 65.34375 162.707031 64.855469 162.707031 C 59.828125 162.707031 55.238281 164.101562 51.082031 166.890625 L 47.746094 161.917969 C 52.910156 158.453125 58.613281 156.722656 64.855469 156.722656 C 65.460938 156.722656 66.0625 156.738281 66.667969 156.773438 Z M 48.941406 168.5 C 44.683594 172.074219 41.941406 176.554688 40.714844 181.941406 L 34.878906 180.613281 C 36.402344 173.917969 39.804688 168.351562 45.089844 163.914062 Z M 40.265625 184.558594 C 40.152344 185.519531 40.097656 186.488281 40.097656 187.464844 C 40.097656 191.976562 41.238281 196.160156 43.511719 200.023438 L 38.355469 203.0625 C 35.527344 198.265625 34.109375 193.066406 34.109375 187.464844 C 34.109375 186.257812 34.179688 185.058594 34.320312 183.867188 Z M 44.992188 202.246094 C 48.3125 206.699219 52.625 209.699219 57.929688 211.242188 L 56.257812 216.988281 C 49.667969 215.074219 44.3125 211.351562 40.191406 205.824219 Z M 60.535156 211.847656 C 61.957031 212.097656 63.398438 212.222656 64.855469 212.222656 C 68.855469 212.222656 72.617188 211.3125 76.148438 209.5 L 78.886719 214.828125 C 74.496094 217.082031 69.820312 218.207031 64.855469 218.207031 C 63.046875 218.207031 61.261719 218.054688 59.496094 217.742188 Z M 78.453125 208.15625 C 83.089844 205.101562 86.335938 200.96875 88.1875 195.757812 L 93.828125 197.765625 C 91.53125 204.234375 87.503906 209.363281 81.746094 213.15625 Z M 88.945312 193.191406 C 89.390625 191.320312 89.609375 189.410156 89.609375 187.464844 L 95.597656 187.464844 C 95.597656 189.875 95.324219 192.246094 94.769531 194.574219 Z M 88.945312 193.191406 " fill-opacity="1" fill-rule="nonzero"/></g></g><g clip-path="url(#466f96f2b7)"><g clip-path="url(#0ffdc36d22)"><g clip-path="url(#7eb6f22778)"><path fill="#707070" d="M 187.585938 257.300781 L 175.492188 264.273438 L 168.519531 252.175781 L 180.617188 245.207031 Z M 187.585938 257.300781 " fill-opacity="1" fill-rule="nonzero"/></g></g></g><g clip-path="url(#66a68343b6)"><g clip-path="url(#8f50868bf1)"><g clip-path="url(#2bc2238c61)"><path fill="#707070" d="M 181.449219 129.085938 L 169.367188 122.09375 L 176.359375 110.011719 L 188.441406 117.007812 Z M 181.449219 129.085938 " fill-opacity="1" fill-rule="nonzero"/></g></g></g><g clip-path="url(#60b0594b7d)"><g clip-path="url(#69a96ae980)"><g clip-path="url(#18a2670d98)"><path fill="#707070" d="M 74.347656 191.121094 L 62.253906 198.09375 L 55.28125 186 L 67.378906 179.027344 Z M 74.347656 191.121094 " fill-opacity="1" fill-rule="nonzero"/></g></g></g><g clip-path="url(#d047773b39)"><g clip-path="url(#56fb24e749)"><g clip-path="url(#7aec7a92b8)"><g clip-path="url(#4aa84dcb24)"><path fill="#ffffff" d="M 130.414062 246.964844 C 130.421875 247.003906 130.410156 247.039062 130.378906 247.066406 C 130.417969 247.207031 130.648438 247.222656 130.597656 247.421875 C 130.75 247.84375 130.503906 248.089844 130.195312 248.304688 C 129.332031 248.902344 128.390625 249.34375 127.421875 249.730469 C 123.949219 251.109375 120.359375 251.699219 116.636719 251.652344 C 110.132812 251.570312 104.429688 249.320312 99.296875 245.488281 C 96.917969 243.714844 94.894531 241.546875 92.96875 239.289062 C 91.839844 237.957031 90.792969 236.566406 89.710938 235.195312 C 89.695312 235.128906 89.679688 235.066406 89.660156 235 C 89.59375 234.960938 89.527344 234.902344 89.457031 234.902344 C 89.402344 234.902344 89.402344 234.980469 89.441406 235.03125 C 89.453125 235.71875 89.609375 236.382812 89.800781 237.035156 C 89.933594 237.480469 90.027344 237.925781 89.984375 238.394531 C 90.273438 239.355469 89.957031 240.089844 89.125 240.472656 C 87.746094 239.03125 87.351562 237.207031 87.097656 235.3125 C 87.003906 234.609375 86.863281 233.914062 86.730469 233.21875 C 86.417969 231.550781 86.554688 231.773438 87.589844 230.851562 C 87.820312 230.644531 88.09375 230.496094 88.382812 230.375 C 88.488281 230.332031 88.589844 230.300781 88.699219 230.351562 C 88.976562 230.128906 89.242188 230.25 89.5 230.382812 C 90.257812 230.769531 91.007812 231.167969 91.765625 231.5625 C 91.96875 231.546875 92.125 231.652344 92.273438 231.765625 C 92.476562 231.746094 92.632812 231.855469 92.792969 231.953125 C 92.933594 231.914062 93.042969 232.007812 93.167969 232.042969 C 94.839844 232.550781 96.542969 232.863281 98.300781 232.878906 C 98.433594 232.878906 98.5625 232.890625 98.695312 232.898438 C 98.851562 232.90625 99.03125 232.910156 99.078125 233.085938 C 99.113281 233.21875 99.011719 233.378906 98.902344 233.425781 C 98.433594 233.632812 98.164062 234.09375 97.726562 234.332031 C 97.53125 234.4375 97.308594 234.457031 97.085938 234.472656 C 95.351562 234.589844 93.652344 234.398438 91.964844 234.03125 C 91.8125 233.996094 91.664062 233.941406 91.511719 233.941406 C 91.335938 233.9375 91.320312 234.082031 91.339844 234.226562 C 91.507812 234.28125 91.589844 234.398438 91.597656 234.574219 C 91.742188 234.652344 91.871094 234.742188 91.875 234.933594 C 91.917969 234.929688 91.9375 234.953125 91.929688 234.996094 C 92.070312 235.070312 92.1875 235.160156 92.195312 235.332031 C 92.28125 235.402344 92.375 235.464844 92.441406 235.546875 C 93.207031 236.453125 93.957031 237.371094 94.730469 238.269531 C 95.433594 239.085938 96.160156 239.875 96.875 240.675781 C 97.089844 240.863281 97.3125 241.042969 97.519531 241.238281 C 99.535156 243.128906 101.75 244.746094 104.203125 246.019531 C 105.078125 246.472656 105.964844 246.902344 106.847656 247.339844 C 107.0625 247.324219 107.21875 247.445312 107.378906 247.5625 C 107.585938 247.539062 107.734375 247.652344 107.886719 247.761719 C 108.082031 247.726562 108.21875 247.84375 108.371094 247.933594 C 108.496094 247.898438 108.59375 247.949219 108.679688 248.035156 C 108.726562 248.023438 108.761719 248.039062 108.789062 248.082031 C 108.925781 248.042969 109.039062 248.132812 109.164062 248.164062 C 109.773438 248.332031 110.347656 248.605469 110.980469 248.695312 C 111.007812 248.761719 111.160156 248.863281 110.921875 248.855469 C 110.761719 248.851562 110.734375 248.886719 110.753906 248.9375 C 110.773438 248.980469 110.828125 249.035156 110.863281 249.082031 C 112.804688 249.542969 114.78125 249.761719 116.773438 249.847656 C 116.960938 249.839844 117.148438 249.828125 117.332031 249.820312 C 118.441406 249.765625 119.554688 249.710938 120.664062 249.65625 C 120.699219 249.628906 120.734375 249.613281 120.773438 249.613281 C 120.800781 249.613281 120.824219 249.621094 120.851562 249.632812 C 120.910156 249.585938 120.972656 249.578125 121.039062 249.609375 C 121.097656 249.558594 121.160156 249.554688 121.226562 249.589844 C 121.28125 249.535156 121.34375 249.527344 121.410156 249.5625 C 121.46875 249.511719 121.53125 249.5 121.597656 249.539062 C 121.652344 249.480469 121.714844 249.472656 121.78125 249.511719 L 121.785156 249.507812 C 121.835938 249.453125 121.898438 249.445312 121.964844 249.480469 L 121.96875 249.480469 C 122.027344 249.46875 122.089844 249.457031 122.148438 249.449219 L 122.15625 249.449219 C 122.210938 249.394531 122.269531 249.382812 122.335938 249.417969 L 122.34375 249.417969 C 122.394531 249.359375 122.457031 249.351562 122.523438 249.386719 L 122.53125 249.382812 C 122.582031 249.328125 122.644531 249.316406 122.710938 249.351562 L 122.714844 249.351562 C 122.765625 249.292969 122.828125 249.28125 122.894531 249.320312 L 122.898438 249.316406 C 122.953125 249.261719 123.011719 249.25 123.082031 249.28125 C 123.644531 249.140625 124.203125 248.996094 124.761719 248.851562 C 125.078125 248.871094 125.359375 248.738281 125.648438 248.648438 C 125.65625 248.613281 125.65625 248.582031 125.648438 248.550781 C 125.636719 248.503906 125.613281 248.464844 125.574219 248.425781 C 125.785156 248.335938 125.992188 248.230469 126.230469 248.242188 C 126.300781 248.25 126.375 248.25 126.445312 248.222656 C 126.375 248.226562 126.300781 248.234375 126.230469 248.242188 C 126.292969 248.199219 126.355469 248.164062 126.425781 248.210938 C 126.492188 248.117188 126.585938 248.082031 126.699219 248.089844 C 126.742188 248.027344 126.796875 248 126.871094 248.03125 C 126.929688 247.980469 126.988281 247.949219 127.066406 247.976562 C 127.09375 247.945312 127.121094 247.929688 127.164062 247.929688 C 127.355469 247.804688 127.5625 247.726562 127.789062 247.695312 C 127.929688 247.613281 128.066406 247.527344 128.234375 247.527344 C 128.304688 247.441406 128.40625 247.429688 128.503906 247.40625 C 129.054688 247.085938 129.660156 246.867188 130.175781 246.421875 C 130.234375 246.652344 130.480469 246.730469 130.414062 246.964844 Z M 91.855469 235.105469 C 91.855469 235.105469 91.855469 235.105469 91.859375 235.109375 C 91.859375 235.109375 91.855469 235.109375 91.855469 235.109375 C 91.859375 235.109375 91.859375 235.109375 91.859375 235.109375 C 91.859375 235.105469 91.859375 235.105469 91.863281 235.105469 C 91.859375 235.105469 91.855469 235.105469 91.855469 235.105469 Z M 122.738281 249.71875 C 122.726562 249.726562 122.710938 249.730469 122.699219 249.734375 C 122.703125 249.734375 122.707031 249.734375 122.710938 249.734375 C 122.722656 249.734375 122.734375 249.730469 122.746094 249.726562 C 122.746094 249.726562 122.742188 249.722656 122.738281 249.71875 Z M 120.671875 249.664062 C 120.671875 249.664062 120.671875 249.664062 120.671875 249.667969 C 120.671875 249.671875 120.671875 249.675781 120.675781 249.679688 L 120.679688 249.699219 L 120.671875 249.664062 C 120.671875 249.664062 120.675781 249.664062 120.675781 249.664062 C 120.675781 249.664062 120.671875 249.664062 120.671875 249.664062 Z M 122.789062 249.769531 C 122.773438 249.757812 122.761719 249.742188 122.75 249.730469 C 122.738281 249.734375 122.726562 249.734375 122.710938 249.738281 C 122.738281 249.734375 122.765625 249.746094 122.789062 249.769531 Z M 122.628906 249.753906 C 122.613281 249.757812 122.597656 249.761719 122.585938 249.765625 C 122.585938 249.765625 122.582031 249.765625 122.582031 249.765625 C 122.597656 249.761719 122.613281 249.757812 122.628906 249.753906 Z M 129.621094 247.875 C 129.621094 247.875 129.625 247.875 129.625 247.875 C 129.625 247.875 129.628906 247.875 129.628906 247.875 C 129.628906 247.875 129.628906 247.875 129.632812 247.871094 C 129.628906 247.871094 129.625 247.875 129.621094 247.875 Z M 129.375 248.015625 C 129.371094 248.019531 129.371094 248.023438 129.367188 248.023438 C 129.367188 248.019531 129.375 248.019531 129.375 248.015625 Z M 126.550781 248.257812 C 126.5625 248.269531 126.570312 248.28125 126.574219 248.292969 C 126.582031 248.289062 126.585938 248.28125 126.589844 248.273438 C 126.578125 248.269531 126.566406 248.261719 126.550781 248.257812 Z M 127 248.035156 C 127.023438 248.03125 127.046875 248.019531 127.066406 247.996094 C 127.066406 247.996094 127.066406 247.996094 127.0625 247.996094 C 127.042969 248.015625 127.023438 248.027344 127 248.035156 Z M 127 248.035156 " fill-opacity="1" fill-rule="nonzero"/></g></g></g></g><g clip-path="url(#0b21eb6d90)"><g clip-path="url(#37a423bd81)"><g clip-path="url(#63acbdd638)"><g clip-path="url(#4a573761bf)"><path fill="#ffffff" d="M 122.160156 249.449219 C 122.101562 249.460938 122.039062 249.46875 121.980469 249.480469 C 122.035156 249.425781 122.09375 249.414062 122.160156 249.449219 Z M 122.160156 249.449219 " fill-opacity="1" fill-rule="nonzero"/></g></g></g></g><g clip-path="url(#3f4c6f8a78)"><g clip-path="url(#1d0fe10c43)"><g clip-path="url(#cf20764d9d)"><g clip-path="url(#9e23952b0b)"><path fill="#ffffff" d="M 88.835938 146.59375 C 88.800781 146.574219 88.777344 146.542969 88.773438 146.503906 C 88.636719 146.453125 88.488281 146.636719 88.359375 146.480469 C 87.921875 146.359375 87.863281 146.015625 87.867188 145.640625 C 87.875 144.589844 88.054688 143.566406 88.296875 142.550781 C 89.167969 138.917969 90.753906 135.644531 92.933594 132.628906 C 96.742188 127.355469 101.863281 123.988281 107.953125 121.996094 C 110.777344 121.070312 113.710938 120.664062 116.667969 120.390625 C 118.402344 120.230469 120.144531 120.179688 121.886719 120.082031 C 121.953125 120.105469 122.015625 120.132812 122.078125 120.15625 C 122.148438 120.121094 122.234375 120.101562 122.273438 120.042969 C 122.273438 120.042969 122.273438 120.042969 122.277344 120.042969 C 122.304688 120 122.242188 119.953125 122.179688 119.957031 C 121.609375 119.570312 120.976562 119.316406 120.332031 119.097656 C 119.890625 118.945312 119.472656 118.769531 119.113281 118.464844 C 118.164062 118.148438 117.742188 117.464844 117.910156 116.5625 C 119.882812 116.269531 121.601562 116.996094 123.296875 117.875 C 123.925781 118.203125 124.574219 118.488281 125.21875 118.785156 C 126.765625 119.488281 126.503906 119.472656 126.664062 120.847656 C 126.699219 121.15625 126.664062 121.464844 126.59375 121.769531 C 126.570312 121.882812 126.539062 121.984375 126.433594 122.042969 C 126.453125 122.394531 126.203125 122.546875 125.949219 122.679688 C 125.195312 123.074219 124.4375 123.460938 123.679688 123.851562 C 123.574219 124.027344 123.398438 124.09375 123.214844 124.152344 C 123.117188 124.332031 122.9375 124.394531 122.765625 124.464844 C 122.714844 124.605469 122.578125 124.644531 122.476562 124.722656 C 121.097656 125.796875 119.863281 127.011719 118.839844 128.441406 C 118.761719 128.546875 118.675781 128.648438 118.59375 128.75 C 118.5 128.875 118.390625 129.019531 118.222656 128.957031 C 118.09375 128.910156 118.023438 128.730469 118.046875 128.617188 C 118.148438 128.117188 117.925781 127.628906 117.980469 127.132812 C 118.007812 126.914062 118.117188 126.722656 118.238281 126.53125 C 119.136719 125.042969 120.273438 123.761719 121.542969 122.59375 C 121.65625 122.492188 121.789062 122.402344 121.878906 122.277344 C 121.980469 122.132812 121.871094 122.035156 121.742188 121.972656 C 121.601562 122.078125 121.457031 122.078125 121.3125 121.984375 C 121.164062 122.054688 121.015625 122.109375 120.859375 122.003906 C 120.832031 122.039062 120.804688 122.042969 120.773438 122.011719 C 120.632812 122.082031 120.496094 122.125 120.34375 122.035156 C 120.238281 122.0625 120.136719 122.105469 120.03125 122.113281 C 118.847656 122.21875 117.667969 122.300781 116.488281 122.417969 C 115.414062 122.523438 114.351562 122.660156 113.28125 122.785156 C 113.003906 122.855469 112.730469 122.933594 112.453125 122.988281 C 109.746094 123.550781 107.152344 124.429688 104.695312 125.699219 C 103.820312 126.15625 102.960938 126.636719 102.09375 127.105469 C 101.984375 127.289062 101.792969 127.351562 101.605469 127.414062 C 101.507812 127.59375 101.328125 127.652344 101.152344 127.714844 C 101.066406 127.890625 100.890625 127.9375 100.734375 128.007812 C 100.6875 128.132812 100.589844 128.183594 100.472656 128.203125 C 100.453125 128.246094 100.421875 128.269531 100.371094 128.265625 C 100.320312 128.402344 100.183594 128.441406 100.085938 128.523438 C 99.601562 128.925781 99.042969 129.238281 98.609375 129.703125 C 98.535156 129.6875 98.367188 129.753906 98.511719 129.5625 C 98.605469 129.433594 98.589844 129.390625 98.539062 129.378906 C 98.492188 129.371094 98.417969 129.382812 98.359375 129.386719 C 96.863281 130.707031 95.546875 132.199219 94.332031 133.777344 C 94.230469 133.9375 94.128906 134.09375 94.03125 134.25 C 93.4375 135.191406 92.839844 136.128906 92.246094 137.066406 C 92.25 137.113281 92.242188 137.152344 92.21875 137.183594 C 92.203125 137.203125 92.183594 137.222656 92.15625 137.238281 C 92.164062 137.3125 92.132812 137.367188 92.066406 137.402344 C 92.078125 137.476562 92.046875 137.53125 91.980469 137.566406 C 91.992188 137.644531 91.960938 137.699219 91.890625 137.734375 C 91.902344 137.8125 91.875 137.867188 91.804688 137.902344 C 91.820312 137.980469 91.792969 138.035156 91.722656 138.066406 L 91.722656 138.070312 C 91.738281 138.144531 91.710938 138.203125 91.640625 138.234375 L 91.640625 138.238281 C 91.617188 138.292969 91.589844 138.351562 91.5625 138.402344 L 91.558594 138.410156 C 91.574219 138.484375 91.546875 138.539062 91.480469 138.574219 L 91.476562 138.582031 C 91.492188 138.65625 91.464844 138.710938 91.398438 138.746094 L 91.394531 138.75 C 91.394531 138.75 91.394531 138.753906 91.394531 138.753906 C 91.394531 138.753906 91.394531 138.75 91.394531 138.75 C 91.414062 138.828125 91.386719 138.882812 91.316406 138.917969 L 91.316406 138.921875 C 91.332031 138.996094 91.308594 139.054688 91.238281 139.089844 C 91.253906 139.167969 91.226562 139.226562 91.160156 139.261719 C 90.953125 139.804688 90.75 140.34375 90.542969 140.882812 C 90.351562 141.128906 90.292969 141.4375 90.199219 141.726562 C 90.226562 141.753906 90.253906 141.769531 90.28125 141.78125 C 90.328125 141.800781 90.375 141.804688 90.425781 141.792969 C 90.378906 142.015625 90.347656 142.246094 90.199219 142.4375 C 90.152344 142.488281 90.109375 142.546875 90.09375 142.621094 C 90.128906 142.558594 90.164062 142.496094 90.199219 142.4375 C 90.199219 142.511719 90.191406 142.582031 90.113281 142.613281 C 90.152344 142.722656 90.125 142.820312 90.054688 142.90625 C 90.082031 142.976562 90.070312 143.035156 90.003906 143.078125 C 90.011719 143.15625 90.003906 143.226562 89.9375 143.273438 C 89.945312 143.3125 89.941406 143.34375 89.917969 143.378906 C 89.910156 143.605469 89.855469 143.820312 89.75 144.023438 C 89.734375 144.183594 89.726562 144.347656 89.628906 144.484375 C 89.660156 144.589844 89.613281 144.683594 89.574219 144.777344 C 89.519531 145.410156 89.351562 146.03125 89.417969 146.707031 C 89.195312 146.625 88.988281 146.78125 88.835938 146.59375 Z M 120.726562 121.886719 C 120.726562 121.886719 120.726562 121.886719 120.722656 121.886719 C 120.722656 121.886719 120.726562 121.886719 120.726562 121.886719 C 120.722656 121.886719 120.722656 121.890625 120.722656 121.890625 C 120.722656 121.890625 120.722656 121.886719 120.722656 121.886719 C 120.726562 121.890625 120.726562 121.890625 120.726562 121.894531 C 120.726562 121.890625 120.726562 121.890625 120.726562 121.886719 Z M 91 138.730469 C 91.003906 138.714844 91.007812 138.703125 91.011719 138.6875 C 91.007812 138.691406 91.007812 138.691406 91.003906 138.695312 C 91 138.707031 90.992188 138.71875 90.988281 138.730469 C 90.992188 138.730469 90.996094 138.730469 91 138.730469 Z M 92.238281 137.074219 C 92.238281 137.070312 92.234375 137.070312 92.234375 137.070312 C 92.230469 137.070312 92.226562 137.066406 92.21875 137.0625 L 92.203125 137.058594 L 92.234375 137.070312 C 92.234375 137.074219 92.234375 137.074219 92.234375 137.074219 C 92.234375 137.074219 92.234375 137.074219 92.238281 137.074219 Z M 90.929688 138.742188 C 90.949219 138.738281 90.96875 138.734375 90.984375 138.734375 C 90.992188 138.722656 90.996094 138.710938 91 138.699219 C 90.988281 138.722656 90.964844 138.738281 90.929688 138.742188 Z M 91.035156 138.621094 C 91.042969 138.605469 91.046875 138.59375 91.050781 138.578125 C 91.050781 138.578125 91.054688 138.578125 91.050781 138.574219 C 91.046875 138.589844 91.042969 138.605469 91.035156 138.621094 Z M 88.546875 145.417969 C 88.546875 145.417969 88.546875 145.421875 88.542969 145.421875 C 88.542969 145.421875 88.542969 145.425781 88.542969 145.425781 C 88.542969 145.425781 88.542969 145.429688 88.542969 145.429688 C 88.546875 145.425781 88.546875 145.421875 88.546875 145.417969 Z M 88.574219 145.136719 C 88.570312 145.132812 88.570312 145.128906 88.570312 145.125 C 88.574219 145.128906 88.574219 145.132812 88.574219 145.136719 Z M 90 142.6875 C 89.988281 142.691406 89.972656 142.691406 89.957031 142.6875 C 89.960938 142.695312 89.964844 142.703125 89.964844 142.714844 C 89.976562 142.703125 89.988281 142.699219 90 142.6875 Z M 89.925781 143.183594 C 89.914062 143.207031 89.914062 143.230469 89.917969 143.257812 C 89.917969 143.257812 89.917969 143.257812 89.921875 143.257812 C 89.917969 143.230469 89.917969 143.207031 89.925781 143.183594 Z M 89.925781 143.183594 " fill-opacity="1" fill-rule="nonzero"/></g></g></g></g><g clip-path="url(#9cb0e06e21)"><g clip-path="url(#e77536601e)"><g clip-path="url(#3e9a49d839)"><g clip-path="url(#7686434ae1)"><path fill="#ffffff" d="M 91.554688 138.414062 C 91.578125 138.355469 91.605469 138.300781 91.632812 138.246094 C 91.648438 138.324219 91.621094 138.378906 91.554688 138.414062 Z M 91.554688 138.414062 " fill-opacity="1" fill-rule="nonzero"/></g></g></g></g><g clip-path="url(#8f73a86783)"><g clip-path="url(#913d43366a)"><g clip-path="url(#675d3af1e8)"><g clip-path="url(#1265f3d338)"><path fill="#ffffff" d="M 202.519531 162.113281 C 202.554688 162.089844 202.589844 162.089844 202.628906 162.109375 C 202.746094 162.023438 202.679688 161.800781 202.882812 161.78125 C 203.230469 161.492188 203.546875 161.640625 203.851562 161.855469 C 204.710938 162.460938 205.449219 163.191406 206.144531 163.96875 C 208.632812 166.753906 210.417969 169.925781 211.65625 173.4375 C 213.816406 179.570312 213.664062 185.699219 211.832031 191.835938 C 210.980469 194.683594 209.644531 197.328125 208.183594 199.910156 C 207.324219 201.429688 206.375 202.890625 205.460938 204.375 C 205.40625 204.414062 205.347656 204.453125 205.292969 204.492188 C 205.28125 204.570312 205.25 204.652344 205.273438 204.714844 C 205.273438 204.714844 205.273438 204.714844 205.273438 204.71875 C 205.292969 204.769531 205.367188 204.742188 205.398438 204.6875 C 206.042969 204.441406 206.609375 204.066406 207.15625 203.660156 C 207.53125 203.382812 207.917969 203.144531 208.371094 203.019531 C 209.171875 202.417969 209.972656 202.464844 210.617188 203.117188 C 209.738281 204.902344 208.160156 205.902344 206.472656 206.792969 C 205.84375 207.121094 205.238281 207.492188 204.628906 207.855469 C 203.171875 208.726562 203.332031 208.515625 202.109375 207.863281 C 201.835938 207.71875 201.601562 207.511719 201.390625 207.285156 C 201.3125 207.199219 201.25 207.113281 201.257812 206.996094 C 200.957031 206.8125 200.980469 206.519531 201.015625 206.234375 C 201.117188 205.386719 201.234375 204.542969 201.34375 203.699219 C 201.261719 203.511719 201.304688 203.332031 201.359375 203.148438 C 201.269531 202.964844 201.320312 202.78125 201.359375 202.601562 C 201.273438 202.480469 201.320312 202.34375 201.3125 202.214844 C 201.214844 200.472656 200.921875 198.761719 200.332031 197.109375 C 200.289062 196.984375 200.253906 196.855469 200.214844 196.730469 C 200.167969 196.582031 200.113281 196.410156 200.261719 196.308594 C 200.371094 196.230469 200.558594 196.269531 200.636719 196.355469 C 200.992188 196.726562 201.519531 196.820312 201.894531 197.148438 C 202.0625 197.296875 202.15625 197.496094 202.246094 197.703125 C 202.953125 199.289062 203.359375 200.953125 203.59375 202.664062 C 203.613281 202.816406 203.609375 202.976562 203.664062 203.117188 C 203.722656 203.285156 203.863281 203.25 203.992188 203.179688 C 203.988281 203.003906 204.066406 202.886719 204.226562 202.820312 C 204.253906 202.660156 204.292969 202.503906 204.46875 202.4375 C 204.453125 202.394531 204.46875 202.371094 204.511719 202.363281 C 204.53125 202.207031 204.574219 202.066406 204.738281 201.996094 C 204.773438 201.894531 204.796875 201.785156 204.851562 201.691406 C 205.441406 200.664062 206.046875 199.644531 206.621094 198.609375 C 207.144531 197.667969 207.640625 196.714844 208.144531 195.765625 C 208.246094 195.5 208.339844 195.230469 208.453125 194.96875 C 209.535156 192.425781 210.289062 189.789062 210.644531 187.050781 C 210.769531 186.070312 210.867188 185.089844 210.972656 184.109375 C 210.882812 183.914062 210.941406 183.726562 211 183.535156 C 210.90625 183.351562 210.960938 183.171875 211.011719 182.988281 C 210.910156 182.820312 210.972656 182.648438 211.007812 182.476562 C 210.929688 182.371094 210.945312 182.261719 210.996094 182.152344 C 210.96875 182.113281 210.972656 182.074219 211 182.035156 C 210.917969 181.914062 210.964844 181.78125 210.953125 181.652344 C 210.898438 181.023438 210.957031 180.390625 210.824219 179.765625 C 210.878906 179.714844 210.921875 179.539062 210.996094 179.765625 C 211.046875 179.917969 211.089844 179.929688 211.132812 179.894531 C 211.164062 179.859375 211.199219 179.792969 211.230469 179.742188 C 210.992188 177.757812 210.519531 175.828125 209.914062 173.929688 C 209.84375 173.757812 209.769531 173.582031 209.699219 173.414062 C 209.265625 172.390625 208.832031 171.363281 208.402344 170.339844 C 208.359375 170.320312 208.335938 170.289062 208.320312 170.253906 C 208.3125 170.226562 208.308594 170.199219 208.3125 170.171875 C 208.246094 170.132812 208.21875 170.078125 208.226562 170.003906 C 208.160156 169.96875 208.132812 169.910156 208.140625 169.835938 C 208.070312 169.804688 208.042969 169.746094 208.054688 169.667969 C 207.984375 169.636719 207.953125 169.582031 207.964844 169.503906 C 207.894531 169.472656 207.863281 169.417969 207.875 169.339844 C 207.804688 169.308594 207.773438 169.253906 207.785156 169.179688 L 207.785156 169.175781 C 207.75 169.125 207.71875 169.070312 207.691406 169.015625 L 207.691406 169.011719 C 207.621094 168.980469 207.589844 168.929688 207.597656 168.851562 L 207.597656 168.847656 C 207.527344 168.816406 207.496094 168.765625 207.503906 168.6875 L 207.5 168.683594 C 207.5 168.683594 207.5 168.679688 207.5 168.679688 C 207.5 168.679688 207.5 168.683594 207.5 168.683594 C 207.429688 168.652344 207.398438 168.597656 207.410156 168.523438 L 207.40625 168.519531 C 207.335938 168.492188 207.304688 168.4375 207.3125 168.359375 C 207.242188 168.328125 207.207031 168.273438 207.214844 168.199219 C 206.890625 167.722656 206.5625 167.246094 206.234375 166.769531 C 206.144531 166.46875 205.921875 166.246094 205.738281 166.003906 C 205.703125 166.011719 205.671875 166.023438 205.648438 166.039062 C 205.605469 166.066406 205.578125 166.101562 205.554688 166.152344 C 205.398438 165.984375 205.226562 165.828125 205.15625 165.601562 C 205.140625 165.527344 205.117188 165.460938 205.0625 165.40625 C 205.09375 165.46875 205.125 165.535156 205.15625 165.601562 C 205.09375 165.554688 205.039062 165.507812 205.058594 165.425781 C 204.949219 165.398438 204.886719 165.320312 204.851562 165.210938 C 204.777344 165.191406 204.734375 165.152344 204.738281 165.070312 C 204.671875 165.035156 204.621094 164.988281 204.617188 164.90625 C 204.582031 164.890625 204.554688 164.871094 204.542969 164.832031 C 204.359375 164.695312 204.214844 164.527344 204.109375 164.324219 C 203.984375 164.222656 203.855469 164.121094 203.796875 163.964844 C 203.691406 163.925781 203.644531 163.835938 203.589844 163.753906 C 203.097656 163.34375 202.683594 162.851562 202.089844 162.523438 C 202.285156 162.386719 202.277344 162.128906 202.519531 162.113281 Z M 204.640625 202.394531 C 204.640625 202.394531 204.640625 202.394531 204.640625 202.390625 C 204.640625 202.390625 204.640625 202.394531 204.640625 202.394531 C 204.640625 202.390625 204.640625 202.390625 204.640625 202.390625 C 204.640625 202.390625 204.636719 202.390625 204.636719 202.390625 C 204.636719 202.394531 204.640625 202.394531 204.640625 202.394531 Z M 207.746094 168.371094 C 207.753906 168.378906 207.765625 168.390625 207.773438 168.402344 C 207.773438 168.398438 207.769531 168.394531 207.769531 168.390625 C 207.761719 168.382812 207.757812 168.371094 207.75 168.359375 C 207.75 168.359375 207.746094 168.363281 207.746094 168.371094 Z M 208.402344 170.332031 C 208.402344 170.332031 208.402344 170.328125 208.40625 170.328125 C 208.410156 170.328125 208.414062 170.324219 208.417969 170.320312 L 208.433594 170.3125 L 208.402344 170.328125 C 208.402344 170.328125 208.402344 170.328125 208.398438 170.328125 C 208.402344 170.328125 208.402344 170.328125 208.402344 170.332031 Z M 207.773438 168.308594 C 207.765625 168.324219 207.757812 168.339844 207.75 168.355469 C 207.757812 168.367188 207.761719 168.378906 207.769531 168.390625 C 207.757812 168.363281 207.761719 168.335938 207.773438 168.308594 Z M 207.816406 168.460938 C 207.824219 168.472656 207.832031 168.488281 207.839844 168.5 C 207.839844 168.5 207.839844 168.5 207.84375 168.5 C 207.832031 168.488281 207.824219 168.472656 207.816406 168.460938 Z M 203.648438 162.542969 C 203.648438 162.542969 203.644531 162.539062 203.644531 162.539062 C 203.644531 162.539062 203.644531 162.535156 203.644531 162.535156 C 203.644531 162.535156 203.640625 162.535156 203.640625 162.535156 C 203.640625 162.539062 203.644531 162.539062 203.648438 162.542969 Z M 203.863281 162.726562 C 203.867188 162.726562 203.871094 162.726562 203.875 162.730469 C 203.871094 162.730469 203.867188 162.726562 203.863281 162.726562 Z M 205.0625 165.292969 C 205.066406 165.28125 205.074219 165.269531 205.085938 165.257812 C 205.078125 165.253906 205.070312 165.253906 205.0625 165.25 C 205.0625 165.265625 205.0625 165.277344 205.0625 165.292969 Z M 204.699219 164.945312 C 204.6875 164.925781 204.664062 164.910156 204.640625 164.898438 C 204.640625 164.898438 204.640625 164.898438 204.640625 164.902344 C 204.664062 164.914062 204.683594 164.929688 204.699219 164.945312 Z M 204.699219 164.945312 " fill-opacity="1" fill-rule="nonzero"/></g></g></g></g><g clip-path="url(#0b9ee03281)"><g clip-path="url(#0271b5a310)"><g clip-path="url(#addfc5e390)"><g clip-path="url(#0fd50ca044)"><path fill="#ffffff" d="M 207.691406 169.003906 C 207.722656 169.058594 207.75 169.113281 207.78125 169.164062 C 207.710938 169.132812 207.679688 169.078125 207.691406 169.003906 Z M 207.691406 169.003906 " fill-opacity="1" fill-rule="nonzero"/></g></g></g></g><path stroke-linecap="butt" transform="matrix(0.74987, 0.00605191, -0.00605275, 0.749976, 136.490312, 77.868268)" fill="none" stroke-linejoin="miter" d="M -0.00220337 1.998642 L 223.036361 2.000981 " stroke="#000000" stroke-width="4" stroke-opacity="1" stroke-miterlimit="4"/><path stroke-linecap="butt" transform="matrix(0.750617, -0.00364086, 0.00363783, 0.749991, 135.126205, 291.168432)" fill="none" stroke-linejoin="miter" d="M -0.000887235 1.999401 L 224.814281 2.002221 " stroke="#000000" stroke-width="4" stroke-opacity="1" stroke-miterlimit="4"/><g clip-path="url(#98179d0e08)"><path fill="#38b6ff" d="M 266.714844 306.992188 L 275.207031 297.5 C 275.390625 297.296875 275.644531 297.183594 275.910156 297.183594 L 281.574219 297.183594 C 281.945312 297.183594 282.28125 297.402344 282.4375 297.746094 C 282.585938 298.089844 282.523438 298.488281 282.273438 298.765625 L 274.351562 307.628906 L 282.273438 316.484375 C 282.523438 316.765625 282.589844 317.164062 282.4375 317.507812 C 282.28125 317.851562 281.945312 318.070312 281.574219 318.070312 L 275.910156 318.070312 C 275.644531 318.070312 275.390625 317.953125 275.207031 317.757812 L 266.714844 308.261719 C 266.394531 307.902344 266.394531 307.351562 266.714844 306.992188 Z M 266.714844 306.992188 " fill-opacity="1" fill-rule="nonzero"/></g><g clip-path="url(#fe0cb17933)"><path fill="#38b6ff" d="M 278.984375 306.992188 L 287.476562 297.5 C 287.660156 297.296875 287.910156 297.183594 288.179688 297.183594 L 293.839844 297.183594 C 294.214844 297.183594 294.550781 297.402344 294.703125 297.746094 C 294.855469 298.089844 294.792969 298.488281 294.542969 298.765625 L 286.617188 307.628906 L 294.542969 316.484375 C 294.792969 316.765625 294.855469 317.164062 294.703125 317.507812 C 294.550781 317.851562 294.214844 318.070312 293.839844 318.070312 L 288.179688 318.070312 C 287.910156 318.070312 287.660156 317.953125 287.476562 317.757812 L 278.984375 308.261719 C 278.660156 307.902344 278.660156 307.351562 278.984375 306.992188 Z M 278.984375 306.992188 " fill-opacity="1" fill-rule="nonzero"/></g><g clip-path="url(#f4df38827c)"><path fill="#5ce1e6" d="M 229.589844 306.992188 L 238.082031 297.5 C 238.265625 297.296875 238.519531 297.183594 238.785156 297.183594 L 244.449219 297.183594 C 244.820312 297.183594 245.15625 297.402344 245.3125 297.746094 C 245.460938 298.089844 245.398438 298.488281 245.148438 298.765625 L 237.226562 307.628906 L 245.148438 316.484375 C 245.398438 316.765625 245.464844 317.164062 245.3125 317.507812 C 245.15625 317.851562 244.820312 318.070312 244.449219 318.070312 L 238.785156 318.070312 C 238.519531 318.070312 238.265625 317.953125 238.082031 317.757812 L 229.589844 308.261719 C 229.269531 307.902344 229.269531 307.351562 229.589844 306.992188 Z M 229.589844 306.992188 " fill-opacity="1" fill-rule="nonzero"/></g><g clip-path="url(#6f218ad870)"><path fill="#5ce1e6" d="M 241.859375 306.992188 L 250.351562 297.5 C 250.535156 297.296875 250.785156 297.183594 251.054688 297.183594 L 256.714844 297.183594 C 257.089844 297.183594 257.425781 297.402344 257.578125 297.746094 C 257.730469 298.089844 257.667969 298.488281 257.417969 298.765625 L 249.492188 307.628906 L 257.417969 316.484375 C 257.667969 316.765625 257.730469 317.164062 257.578125 317.507812 C 257.425781 317.851562 257.089844 318.070312 256.714844 318.070312 L 251.054688 318.070312 C 250.785156 318.070312 250.535156 317.953125 250.351562 317.757812 L 241.859375 308.261719 C 241.535156 307.902344 241.535156 307.351562 241.859375 306.992188 Z M 241.859375 306.992188 " fill-opacity="1" fill-rule="nonzero"/></g><g clip-path="url(#1b9aaaf995)"><path fill="#38b6ff" d="M 192.464844 306.992188 L 200.957031 297.5 C 201.140625 297.296875 201.394531 297.183594 201.660156 297.183594 L 207.324219 297.183594 C 207.695312 297.183594 208.03125 297.402344 208.1875 297.746094 C 208.335938 298.089844 208.273438 298.488281 208.023438 298.765625 L 200.101562 307.628906 L 208.023438 316.484375 C 208.273438 316.765625 208.339844 317.164062 208.1875 317.507812 C 208.03125 317.851562 207.695312 318.070312 207.324219 318.070312 L 201.660156 318.070312 C 201.394531 318.070312 201.140625 317.953125 200.957031 317.757812 L 192.464844 308.261719 C 192.144531 307.902344 192.144531 307.351562 192.464844 306.992188 Z M 192.464844 306.992188 " fill-opacity="1" fill-rule="nonzero"/></g><g clip-path="url(#85532e92b0)"><path fill="#38b6ff" d="M 204.734375 306.992188 L 213.226562 297.5 C 213.410156 297.296875 213.660156 297.183594 213.929688 297.183594 L 219.589844 297.183594 C 219.964844 297.183594 220.300781 297.402344 220.453125 297.746094 C 220.605469 298.089844 220.542969 298.488281 220.292969 298.765625 L 212.367188 307.628906 L 220.292969 316.484375 C 220.542969 316.765625 220.605469 317.164062 220.453125 317.507812 C 220.300781 317.851562 219.964844 318.070312 219.589844 318.070312 L 213.929688 318.070312 C 213.660156 318.070312 213.410156 317.953125 213.226562 317.757812 L 204.734375 308.261719 C 204.410156 307.902344 204.410156 307.351562 204.734375 306.992188 Z M 204.734375 306.992188 " fill-opacity="1" fill-rule="nonzero"/></g><g clip-path="url(#dde39394f3)"><path fill="#38b6ff" d="M 155.339844 306.992188 L 163.832031 297.5 C 164.015625 297.296875 164.269531 297.183594 164.535156 297.183594 L 170.199219 297.183594 C 170.570312 297.183594 170.90625 297.402344 171.0625 297.746094 C 171.210938 298.089844 171.148438 298.488281 170.898438 298.765625 L 162.976562 307.628906 L 170.898438 316.484375 C 171.148438 316.765625 171.214844 317.164062 171.0625 317.507812 C 170.90625 317.851562 170.570312 318.070312 170.199219 318.070312 L 164.535156 318.070312 C 164.269531 318.070312 164.015625 317.953125 163.832031 317.757812 L 155.339844 308.261719 C 155.019531 307.902344 155.019531 307.351562 155.339844 306.992188 Z M 155.339844 306.992188 " fill-opacity="1" fill-rule="nonzero"/></g><g clip-path="url(#f249b9e0a6)"><path fill="#38b6ff" d="M 167.609375 306.992188 L 176.101562 297.5 C 176.285156 297.296875 176.535156 297.183594 176.804688 297.183594 L 182.464844 297.183594 C 182.839844 297.183594 183.175781 297.402344 183.328125 297.746094 C 183.480469 298.089844 183.417969 298.488281 183.167969 298.765625 L 175.242188 307.628906 L 183.167969 316.484375 C 183.417969 316.765625 183.480469 317.164062 183.328125 317.507812 C 183.175781 317.851562 182.839844 318.070312 182.464844 318.070312 L 176.804688 318.070312 C 176.535156 318.070312 176.285156 317.953125 176.101562 317.757812 L 167.609375 308.261719 C 167.285156 307.902344 167.285156 307.351562 167.609375 306.992188 Z M 167.609375 306.992188 " fill-opacity="1" fill-rule="nonzero"/></g><g clip-path="url(#f9c4ab5737)"><g clip-path="url(#dcbb56a60f)"><g clip-path="url(#e63f2a9042)"><path fill="#38b6ff" d="M 118.210938 307.238281 L 126.535156 297.597656 C 126.710938 297.394531 126.960938 297.273438 127.230469 297.269531 L 132.890625 297.167969 C 133.261719 297.164062 133.605469 297.378906 133.765625 297.714844 C 133.921875 298.058594 133.867188 298.460938 133.621094 298.742188 L 125.855469 307.738281 L 133.933594 316.457031 C 134.1875 316.730469 134.261719 317.128906 134.113281 317.472656 C 133.964844 317.820312 133.632812 318.046875 133.261719 318.054688 L 127.597656 318.152344 C 127.332031 318.160156 127.078125 318.046875 126.890625 317.851562 L 118.230469 308.511719 C 117.902344 308.15625 117.894531 307.605469 118.210938 307.238281 Z M 118.210938 307.238281 " fill-opacity="1" fill-rule="nonzero"/></g></g></g><g clip-path="url(#ae6195066b)"><g clip-path="url(#fb1dc02747)"><g clip-path="url(#53df1bd0f3)"><path fill="#38b6ff" d="M 130.476562 307.023438 L 138.800781 297.378906 C 138.976562 297.175781 139.230469 297.058594 139.496094 297.054688 L 145.15625 296.953125 C 145.53125 296.945312 145.871094 297.160156 146.03125 297.5 C 146.1875 297.839844 146.132812 298.242188 145.886719 298.523438 L 138.121094 307.523438 L 146.203125 316.238281 C 146.457031 316.515625 146.527344 316.914062 146.378906 317.257812 C 146.234375 317.605469 145.898438 317.832031 145.527344 317.835938 L 139.867188 317.9375 C 139.597656 317.941406 139.34375 317.832031 139.160156 317.636719 L 130.5 308.292969 C 130.167969 307.9375 130.160156 307.386719 130.476562 307.023438 Z M 130.476562 307.023438 " fill-opacity="1" fill-rule="nonzero"/></g></g></g><g clip-path="url(#43feeefe38)"><g clip-path="url(#5497d9f7af)"><g clip-path="url(#4f9c099132)"><path fill="#5ce1e6" d="M 75.855469 286.085938 L 88.128906 282.679688 C 88.390625 282.609375 88.664062 282.648438 88.890625 282.796875 L 93.65625 285.851562 C 93.96875 286.050781 94.132812 286.421875 94.078125 286.789062 C 94.019531 287.160156 93.75 287.464844 93.390625 287.5625 L 81.9375 290.742188 L 83.828125 302.476562 C 83.886719 302.847656 83.722656 303.21875 83.410156 303.425781 C 83.097656 303.632812 82.691406 303.632812 82.378906 303.433594 L 77.613281 300.375 C 77.386719 300.230469 77.238281 299.996094 77.191406 299.734375 L 75.167969 287.15625 C 75.089844 286.679688 75.386719 286.214844 75.855469 286.085938 Z M 75.855469 286.085938 " fill-opacity="1" fill-rule="nonzero"/></g></g></g><g clip-path="url(#9d56c58de3)"><g clip-path="url(#b690b2abbe)"><g clip-path="url(#39d911c3fd)"><path fill="#5ce1e6" d="M 86.179688 292.710938 L 98.457031 289.304688 C 98.714844 289.234375 98.992188 289.273438 99.214844 289.417969 L 103.984375 292.476562 C 104.296875 292.675781 104.460938 293.042969 104.40625 293.414062 C 104.347656 293.785156 104.078125 294.089844 103.71875 294.1875 L 92.265625 297.367188 L 94.152344 309.101562 C 94.210938 309.46875 94.050781 309.84375 93.738281 310.046875 C 93.421875 310.253906 93.019531 310.257812 92.707031 310.058594 L 87.941406 307 C 87.714844 306.855469 87.5625 306.621094 87.519531 306.355469 L 85.496094 293.78125 C 85.417969 293.300781 85.714844 292.839844 86.179688 292.710938 Z M 86.179688 292.710938 " fill-opacity="1" fill-rule="nonzero"/></g></g></g><g clip-path="url(#c7e8c6b797)"><g clip-path="url(#57e727ef1b)"><g clip-path="url(#ada73a3dcd)"><path fill="#38b6ff" d="M 41.28125 262.910156 L 53.984375 261.964844 C 54.253906 261.945312 54.515625 262.039062 54.707031 262.222656 L 58.785156 266.152344 C 59.054688 266.410156 59.144531 266.800781 59.015625 267.15625 C 58.886719 267.507812 58.566406 267.753906 58.191406 267.777344 L 46.339844 268.664062 L 45.902344 280.539062 C 45.886719 280.914062 45.65625 281.246094 45.308594 281.386719 C 44.960938 281.527344 44.566406 281.453125 44.296875 281.195312 L 40.21875 277.269531 C 40.027344 277.082031 39.921875 276.824219 39.929688 276.554688 L 40.398438 263.824219 C 40.417969 263.339844 40.796875 262.945312 41.28125 262.910156 Z M 41.28125 262.910156 " fill-opacity="1" fill-rule="nonzero"/></g></g></g><g clip-path="url(#08a9a91a3b)"><g clip-path="url(#cc7bd22872)"><g clip-path="url(#4e1bd72223)"><path fill="#38b6ff" d="M 50.117188 271.421875 L 62.820312 270.472656 C 63.089844 270.453125 63.351562 270.546875 63.542969 270.734375 L 67.621094 274.660156 C 67.890625 274.917969 67.980469 275.3125 67.855469 275.664062 C 67.722656 276.015625 67.402344 276.261719 67.03125 276.289062 L 55.175781 277.171875 L 54.738281 289.050781 C 54.726562 289.425781 54.492188 289.757812 54.144531 289.898438 C 53.796875 290.039062 53.402344 289.964844 53.132812 289.707031 L 49.054688 285.777344 C 48.863281 285.59375 48.761719 285.332031 48.765625 285.066406 L 49.234375 272.335938 C 49.253906 271.851562 49.636719 271.453125 50.117188 271.421875 Z M 50.117188 271.421875 " fill-opacity="1" fill-rule="nonzero"/></g></g></g><g clip-path="url(#e4eb9ec3c5)"><g clip-path="url(#f6db6188a9)"><g clip-path="url(#fb6f048597)"><path fill="#38b6ff" d="M 22.734375 226.0625 L 35.210938 228.632812 C 35.476562 228.6875 35.699219 228.851562 35.835938 229.082031 L 38.679688 233.976562 C 38.867188 234.296875 38.847656 234.703125 38.628906 235.003906 C 38.40625 235.308594 38.03125 235.457031 37.664062 235.378906 L 26.023438 232.980469 L 22.347656 244.285156 C 22.230469 244.640625 21.917969 244.898438 21.542969 244.9375 C 21.171875 244.976562 20.808594 244.796875 20.625 244.472656 L 17.777344 239.578125 C 17.644531 239.347656 17.617188 239.070312 17.695312 238.8125 L 21.636719 226.699219 C 21.785156 226.238281 22.261719 225.960938 22.734375 226.0625 Z M 22.734375 226.0625 " fill-opacity="1" fill-rule="nonzero"/></g></g></g><g clip-path="url(#c7359fc20e)"><g clip-path="url(#0380f6f08d)"><g clip-path="url(#ed61f4f6a9)"><path fill="#38b6ff" d="M 28.898438 236.667969 L 41.375 239.238281 C 41.640625 239.296875 41.867188 239.457031 42 239.6875 L 44.847656 244.582031 C 45.035156 244.90625 45.011719 245.308594 44.792969 245.613281 C 44.574219 245.914062 44.195312 246.0625 43.832031 245.984375 L 32.1875 243.585938 L 28.511719 254.890625 C 28.394531 255.246094 28.082031 255.503906 27.710938 255.542969 C 27.335938 255.582031 26.976562 255.402344 26.789062 255.082031 L 23.941406 250.183594 C 23.808594 249.953125 23.78125 249.675781 23.859375 249.421875 L 27.800781 237.304688 C 27.949219 236.847656 28.425781 236.570312 28.898438 236.667969 Z M 28.898438 236.667969 " fill-opacity="1" fill-rule="nonzero"/></g></g></g><g clip-path="url(#57eab4dcc7)"><path fill="#38b6ff" d="M 20.015625 172.027344 L 29.507812 180.519531 C 29.710938 180.699219 29.824219 180.953125 29.824219 181.222656 L 29.824219 186.882812 C 29.824219 187.257812 29.605469 187.59375 29.261719 187.746094 C 28.917969 187.898438 28.515625 187.835938 28.242188 187.585938 L 19.378906 179.660156 L 10.523438 187.585938 C 10.242188 187.835938 9.84375 187.898438 9.5 187.746094 C 9.15625 187.59375 8.9375 187.257812 8.9375 186.882812 L 8.9375 181.222656 C 8.9375 180.953125 9.050781 180.699219 9.25 180.519531 L 18.746094 172.027344 C 19.105469 171.703125 19.65625 171.703125 20.015625 172.027344 Z M 20.015625 172.027344 " fill-opacity="1" fill-rule="nonzero"/></g><g clip-path="url(#36251639c6)"><path fill="#38b6ff" d="M 20.015625 184.292969 L 29.507812 192.789062 C 29.710938 192.96875 29.824219 193.222656 29.824219 193.488281 L 29.824219 199.152344 C 29.824219 199.523438 29.605469 199.863281 29.261719 200.015625 C 28.917969 200.164062 28.515625 200.105469 28.242188 199.855469 L 19.378906 191.929688 L 10.523438 199.855469 C 10.242188 200.105469 9.84375 200.167969 9.5 200.015625 C 9.15625 199.863281 8.9375 199.523438 8.9375 199.152344 L 8.9375 193.488281 C 8.9375 193.222656 9.050781 192.96875 9.25 192.789062 L 18.746094 184.292969 C 19.105469 183.972656 19.65625 183.972656 20.015625 184.292969 Z M 20.015625 184.292969 " fill-opacity="1" fill-rule="nonzero"/></g><g clip-path="url(#9f043e335f)"><g clip-path="url(#0795dc43de)"><g clip-path="url(#c07931ddad)"><path fill="#5ce1e6" d="M 38.21875 122.101562 L 41.183594 134.492188 C 41.246094 134.753906 41.195312 135.027344 41.042969 135.246094 L 37.816406 139.902344 C 37.605469 140.207031 37.230469 140.359375 36.863281 140.289062 C 36.496094 140.21875 36.203125 139.941406 36.117188 139.578125 L 33.347656 128.015625 L 21.554688 129.484375 C 21.183594 129.53125 20.816406 129.355469 20.621094 129.035156 C 20.425781 128.714844 20.4375 128.308594 20.648438 128.003906 L 23.875 123.351562 C 24.027344 123.128906 24.269531 122.988281 24.53125 122.953125 L 37.175781 121.378906 C 37.65625 121.320312 38.105469 121.632812 38.21875 122.101562 Z M 38.21875 122.101562 " fill-opacity="1" fill-rule="nonzero"/></g></g></g><g clip-path="url(#9f9bd57dcd)"><g clip-path="url(#ca977f8bc4)"><g clip-path="url(#01c20cf2fb)"><path fill="#5ce1e6" d="M 31.230469 132.1875 L 34.195312 144.574219 C 34.257812 144.839844 34.207031 145.109375 34.054688 145.332031 L 30.828125 149.984375 C 30.617188 150.289062 30.246094 150.441406 29.875 150.375 C 29.507812 150.300781 29.214844 150.023438 29.128906 149.660156 L 26.359375 138.101562 L 14.566406 139.566406 C 14.195312 139.613281 13.828125 139.4375 13.632812 139.117188 C 13.4375 138.796875 13.449219 138.394531 13.664062 138.085938 L 16.886719 133.433594 C 17.039062 133.214844 17.28125 133.070312 17.546875 133.035156 L 30.1875 131.460938 C 30.667969 131.402344 31.121094 131.714844 31.230469 132.1875 Z M 31.230469 132.1875 " fill-opacity="1" fill-rule="nonzero"/></g></g></g><g clip-path="url(#513c50f490)"><g clip-path="url(#15a724bb99)"><g clip-path="url(#2079434bd5)"><path fill="#38b6ff" d="M 65.816406 90.09375 L 65.914062 102.832031 C 65.917969 103.101562 65.804688 103.355469 65.609375 103.535156 L 61.417969 107.34375 C 61.140625 107.59375 60.742188 107.660156 60.402344 107.507812 C 60.058594 107.355469 59.835938 107.015625 59.832031 106.644531 L 59.742188 94.757812 L 47.917969 93.53125 C 47.546875 93.492188 47.230469 93.238281 47.113281 92.882812 C 46.996094 92.523438 47.097656 92.136719 47.371094 91.886719 L 51.5625 88.078125 C 51.761719 87.898438 52.027344 87.8125 52.292969 87.835938 L 64.964844 89.152344 C 65.445312 89.203125 65.816406 89.609375 65.816406 90.09375 Z M 65.816406 90.09375 " fill-opacity="1" fill-rule="nonzero"/></g></g></g><g clip-path="url(#e336ed431a)"><g clip-path="url(#e2f64c7032)"><g clip-path="url(#32265a0be8)"><path fill="#38b6ff" d="M 56.738281 98.34375 L 56.835938 111.082031 C 56.835938 111.351562 56.726562 111.605469 56.527344 111.785156 L 52.335938 115.59375 C 52.0625 115.84375 51.664062 115.90625 51.320312 115.757812 C 50.976562 115.605469 50.753906 115.265625 50.753906 114.894531 L 50.660156 103.007812 L 38.839844 101.78125 C 38.464844 101.742188 38.148438 101.488281 38.03125 101.132812 C 37.914062 100.773438 38.015625 100.382812 38.292969 100.132812 L 42.480469 96.328125 C 42.679688 96.148438 42.945312 96.0625 43.210938 96.085938 L 55.882812 97.402344 C 56.363281 97.453125 56.734375 97.859375 56.738281 98.34375 Z M 56.738281 98.34375 " fill-opacity="1" fill-rule="nonzero"/></g></g></g><g clip-path="url(#72310b51f3)"><g clip-path="url(#740a48606d)"><g clip-path="url(#afb5926537)"><path fill="#38b6ff" d="M 100.488281 72.246094 L 97.054688 84.511719 C 96.980469 84.773438 96.800781 84.988281 96.5625 85.105469 L 91.480469 87.601562 C 91.148438 87.765625 90.746094 87.71875 90.457031 87.480469 C 90.171875 87.238281 90.050781 86.851562 90.152344 86.492188 L 93.355469 75.042969 L 82.335938 70.589844 C 81.988281 70.449219 81.753906 70.117188 81.742188 69.746094 C 81.726562 69.367188 81.933594 69.023438 82.265625 68.859375 L 87.347656 66.359375 C 87.589844 66.242188 87.867188 66.234375 88.117188 66.332031 L 99.925781 71.105469 C 100.375 71.285156 100.617188 71.78125 100.488281 72.246094 Z M 100.488281 72.246094 " fill-opacity="1" fill-rule="nonzero"/></g></g></g><g clip-path="url(#7b408c35a5)"><g clip-path="url(#1ee9cd8abe)"><g clip-path="url(#2f2290d5f2)"><path fill="#38b6ff" d="M 89.476562 77.65625 L 86.042969 89.925781 C 85.96875 90.183594 85.792969 90.398438 85.550781 90.515625 L 80.472656 93.015625 C 80.136719 93.179688 79.738281 93.128906 79.449219 92.890625 C 79.160156 92.648438 79.039062 92.261719 79.140625 91.902344 L 82.347656 80.457031 L 71.324219 76.003906 C 70.980469 75.863281 70.746094 75.53125 70.730469 75.15625 C 70.71875 74.78125 70.921875 74.433594 71.257812 74.269531 L 76.339844 71.773438 C 76.578125 71.652344 76.855469 71.648438 77.105469 71.742188 L 88.917969 76.515625 C 89.367188 76.699219 89.609375 77.191406 89.476562 77.65625 Z M 89.476562 77.65625 " fill-opacity="1" fill-rule="nonzero"/></g></g></g><g clip-path="url(#40c3b1048b)"><path fill="#38b6ff" d="M 146.195312 68.148438 L 137.703125 77.640625 C 137.519531 77.84375 137.265625 77.957031 137 77.957031 L 131.335938 77.957031 C 130.964844 77.957031 130.628906 77.738281 130.472656 77.394531 C 130.324219 77.050781 130.386719 76.652344 130.636719 76.375 L 138.558594 67.515625 L 130.636719 58.65625 C 130.386719 58.375 130.320312 57.976562 130.472656 57.632812 C 130.628906 57.289062 130.964844 57.070312 131.335938 57.070312 L 137 57.070312 C 137.265625 57.070312 137.519531 57.1875 137.703125 57.382812 L 146.195312 66.878906 C 146.515625 67.238281 146.515625 67.789062 146.195312 68.148438 Z M 146.195312 68.148438 " fill-opacity="1" fill-rule="nonzero"/></g><g clip-path="url(#deed66e046)"><path fill="#38b6ff" d="M 133.925781 68.148438 L 125.433594 77.640625 C 125.25 77.84375 125 77.957031 124.730469 77.957031 L 119.070312 77.957031 C 118.695312 77.957031 118.359375 77.738281 118.207031 77.394531 C 118.054688 77.050781 118.117188 76.652344 118.367188 76.375 L 126.292969 67.515625 L 118.367188 58.65625 C 118.117188 58.375 118.054688 57.976562 118.207031 57.632812 C 118.359375 57.289062 118.695312 57.070312 119.070312 57.070312 L 124.730469 57.070312 C 125 57.070312 125.25 57.1875 125.433594 57.382812 L 133.925781 66.878906 C 134.25 67.238281 134.25 67.789062 133.925781 68.148438 Z M 133.925781 68.148438 " fill-opacity="1" fill-rule="nonzero"/></g><g clip-path="url(#a090a18c33)"><g clip-path="url(#82f9f0752f)"><g clip-path="url(#fafac8921c)"><path fill="#5ce1e6" d="M 182.71875 68.148438 L 173.941406 77.382812 C 173.753906 77.578125 173.5 77.6875 173.230469 77.675781 L 167.570312 77.507812 C 167.199219 77.496094 166.871094 77.265625 166.726562 76.917969 C 166.585938 76.570312 166.660156 76.171875 166.917969 75.902344 L 175.105469 67.285156 L 167.453125 58.191406 C 167.210938 57.90625 167.160156 57.503906 167.320312 57.167969 C 167.484375 56.828125 167.828125 56.617188 168.199219 56.628906 L 173.859375 56.800781 C 174.128906 56.808594 174.378906 56.929688 174.554688 57.132812 L 182.757812 66.878906 C 183.066406 67.25 183.050781 67.800781 182.71875 68.148438 Z M 182.71875 68.148438 " fill-opacity="1" fill-rule="nonzero"/></g></g></g><g clip-path="url(#2e2e7b9c64)"><g clip-path="url(#f31ec189ff)"><g clip-path="url(#d811d9b7fd)"><path fill="#5ce1e6" d="M 170.457031 67.78125 L 161.679688 77.015625 C 161.492188 77.210938 161.238281 77.316406 160.96875 77.308594 L 155.308594 77.136719 C 154.9375 77.125 154.605469 76.894531 154.464844 76.550781 C 154.324219 76.203125 154.398438 75.804688 154.65625 75.535156 L 162.84375 66.917969 L 155.1875 57.824219 C 154.949219 57.539062 154.894531 57.136719 155.058594 56.796875 C 155.222656 56.457031 155.566406 56.25 155.9375 56.261719 L 161.597656 56.429688 C 161.867188 56.4375 162.113281 56.5625 162.289062 56.765625 L 170.492188 66.511719 C 170.804688 66.878906 170.789062 67.429688 170.457031 67.78125 Z M 170.457031 67.78125 " fill-opacity="1" fill-rule="nonzero"/></g></g></g><g clip-path="url(#d11ee9bdd9)"><g clip-path="url(#8a41998fe3)"><g clip-path="url(#ce3a9fa96f)"><path fill="#38b6ff" d="M 294.371094 68.148438 L 285.59375 77.382812 C 285.40625 77.578125 285.152344 77.6875 284.882812 77.675781 L 279.222656 77.507812 C 278.851562 77.496094 278.523438 77.265625 278.378906 76.917969 C 278.238281 76.570312 278.3125 76.171875 278.570312 75.902344 L 286.757812 67.285156 L 279.105469 58.191406 C 278.863281 57.90625 278.8125 57.503906 278.972656 57.167969 C 279.136719 56.828125 279.480469 56.617188 279.851562 56.628906 L 285.511719 56.800781 C 285.78125 56.808594 286.03125 56.929688 286.207031 57.132812 L 294.410156 66.878906 C 294.71875 67.25 294.703125 67.800781 294.371094 68.148438 Z M 294.371094 68.148438 " fill-opacity="1" fill-rule="nonzero"/></g></g></g><g clip-path="url(#c1444a56b8)"><g clip-path="url(#8bc2e89c6c)"><g clip-path="url(#6bc0ab88f3)"><path fill="#38b6ff" d="M 282.109375 67.78125 L 273.332031 77.015625 C 273.144531 77.210938 272.890625 77.316406 272.621094 77.308594 L 266.960938 77.136719 C 266.589844 77.125 266.257812 76.894531 266.117188 76.550781 C 265.976562 76.203125 266.050781 75.804688 266.308594 75.535156 L 274.496094 66.917969 L 266.839844 57.824219 C 266.601562 57.539062 266.546875 57.136719 266.710938 56.796875 C 266.875 56.457031 267.21875 56.25 267.589844 56.261719 L 273.25 56.429688 C 273.519531 56.4375 273.765625 56.5625 273.941406 56.765625 L 282.144531 66.511719 C 282.457031 66.878906 282.441406 67.429688 282.109375 67.78125 Z M 282.109375 67.78125 " fill-opacity="1" fill-rule="nonzero"/></g></g></g><g clip-path="url(#984d6a1e44)"><g clip-path="url(#0513848ed8)"><g clip-path="url(#b14814c3bf)"><path fill="#38b6ff" d="M 257.246094 68.148438 L 248.46875 77.382812 C 248.28125 77.578125 248.027344 77.6875 247.757812 77.675781 L 242.097656 77.507812 C 241.726562 77.496094 241.398438 77.265625 241.253906 76.917969 C 241.113281 76.570312 241.1875 76.171875 241.445312 75.902344 L 249.632812 67.285156 L 241.980469 58.191406 C 241.738281 57.90625 241.6875 57.503906 241.847656 57.167969 C 242.011719 56.828125 242.355469 56.617188 242.726562 56.628906 L 248.386719 56.800781 C 248.65625 56.808594 248.90625 56.929688 249.082031 57.132812 L 257.285156 66.878906 C 257.59375 67.25 257.578125 67.800781 257.246094 68.148438 Z M 257.246094 68.148438 " fill-opacity="1" fill-rule="nonzero"/></g></g></g><g clip-path="url(#c1b139fc66)"><g clip-path="url(#dec99e87f3)"><g clip-path="url(#ea30722f6b)"><path fill="#38b6ff" d="M 244.984375 67.78125 L 236.207031 77.015625 C 236.019531 77.210938 235.765625 77.316406 235.496094 77.308594 L 229.835938 77.136719 C 229.464844 77.125 229.132812 76.894531 228.992188 76.550781 C 228.851562 76.203125 228.925781 75.804688 229.183594 75.535156 L 237.371094 66.917969 L 229.714844 57.824219 C 229.476562 57.539062 229.421875 57.136719 229.585938 56.796875 C 229.75 56.457031 230.09375 56.25 230.464844 56.261719 L 236.125 56.429688 C 236.394531 56.4375 236.640625 56.5625 236.816406 56.765625 L 245.019531 66.511719 C 245.332031 66.878906 245.316406 67.429688 244.984375 67.78125 Z M 244.984375 67.78125 " fill-opacity="1" fill-rule="nonzero"/></g></g></g><g clip-path="url(#fe4cf67893)"><g clip-path="url(#1cd2ba6ab2)"><g clip-path="url(#c068c1b9bb)"><path fill="#38b6ff" d="M 220.730469 68.148438 L 211.953125 77.382812 C 211.765625 77.578125 211.511719 77.6875 211.242188 77.675781 L 205.582031 77.507812 C 205.210938 77.496094 204.878906 77.265625 204.738281 76.917969 C 204.597656 76.570312 204.671875 76.171875 204.929688 75.902344 L 213.117188 67.285156 L 205.460938 58.191406 C 205.222656 57.90625 205.167969 57.503906 205.332031 57.167969 C 205.496094 56.828125 205.839844 56.617188 206.210938 56.628906 L 211.871094 56.800781 C 212.140625 56.808594 212.386719 56.929688 212.5625 57.132812 L 220.765625 66.878906 C 221.078125 67.25 221.0625 67.800781 220.730469 68.148438 Z M 220.730469 68.148438 " fill-opacity="1" fill-rule="nonzero"/></g></g></g><g clip-path="url(#e0809e0c56)"><g clip-path="url(#6fe3e8ded2)"><g clip-path="url(#66c3826f55)"><path fill="#38b6ff" d="M 208.464844 67.78125 L 199.691406 77.015625 C 199.503906 77.210938 199.246094 77.316406 198.980469 77.308594 L 193.320312 77.136719 C 192.949219 77.125 192.617188 76.894531 192.476562 76.550781 C 192.335938 76.203125 192.410156 75.804688 192.664062 75.535156 L 200.855469 66.917969 L 193.199219 57.824219 C 192.957031 57.539062 192.90625 57.136719 193.070312 56.796875 C 193.234375 56.457031 193.578125 56.25 193.949219 56.261719 L 199.609375 56.429688 C 199.875 56.4375 200.125 56.5625 200.300781 56.765625 L 208.503906 66.511719 C 208.816406 66.878906 208.800781 67.429688 208.464844 67.78125 Z M 208.464844 67.78125 " fill-opacity="1" fill-rule="nonzero"/></g></g></g></svg>