<svg xmlns="http://www.w3.org/2000/svg" xmlns:xlink="http://www.w3.org/1999/xlink" width="450" zoomAndPan="magnify" viewBox="0 0 337.5 374.999991" height="500" preserveAspectRatio="xMidYMid meet" version="1.0"><defs><clipPath id="c430ba5aeb"><path d="M 0 52.777344 L 303.75 52.777344 L 303.75 323 L 0 323 Z M 0 52.777344 " clip-rule="nonzero"/></clipPath><clipPath id="2cd378358a"><path d="M 7.917969 142.824219 C 3.136719 156.667969 0 172.40625 0 187.851562 C 0 203.296875 2.6875 218.15625 7.46875 231.855469 C 7.621094 232.144531 7.621094 232.4375 7.769531 232.730469 C 26.890625 284.164062 77.390625 322.050781 135.65625 322.777344 L 303.75 322.777344 L 303.75 52.777344 L 135.78125 52.777344 C 77.09375 53.507812 26.59375 90.808594 7.917969 142.824219 " clip-rule="nonzero"/></clipPath><clipPath id="c5b4c5ec8b"><path d="M 0 52.777344 L 303.75 52.777344 L 303.75 322.777344 L 0 322.777344 Z M 0 52.777344 " clip-rule="nonzero"/></clipPath><clipPath id="0317dc09ce"><path d="M 7.917969 142.824219 C 3.136719 156.667969 0 172.40625 0 187.851562 C 0 203.296875 2.6875 218.15625 7.46875 231.855469 C 7.621094 232.144531 7.621094 232.4375 7.769531 232.730469 C 26.890625 284.164062 77.390625 322.050781 135.65625 322.777344 L 303.75 322.777344 L 303.75 52.777344 L 135.78125 52.777344 C 77.09375 53.507812 26.59375 90.808594 7.917969 142.824219 " clip-rule="nonzero"/></clipPath><clipPath id="b2849cf8d7"><path d="M 32 77 L 249 77 L 249 294 L 32 294 Z M 32 77 " clip-rule="nonzero"/></clipPath><clipPath id="1fdf3c2269"><path d="M 65.140625 53.257812 L 273.785156 110.25 L 216.792969 318.894531 L 8.148438 261.902344 Z M 65.140625 53.257812 " clip-rule="nonzero"/></clipPath><clipPath id="ba1af454d9"><path d="M 169.324219 81.714844 C 111.785156 66 52.402344 99.902344 36.683594 157.441406 C 20.96875 214.980469 54.871094 274.367188 112.410156 290.082031 C 169.949219 305.800781 229.332031 271.898438 245.050781 214.359375 C 260.765625 156.820312 226.863281 97.433594 169.324219 81.714844 " clip-rule="nonzero"/></clipPath><clipPath id="f15af61700"><path d="M 32 77 L 249 77 L 249 294 L 32 294 Z M 32 77 " clip-rule="nonzero"/></clipPath><clipPath id="b548d7bcee"><path d="M 65.140625 53.257812 L 273.507812 110.175781 L 216.59375 318.539062 L 8.226562 261.625 Z M 65.140625 53.257812 " clip-rule="nonzero"/></clipPath><clipPath id="5c2f0a8f7f"><path d="M 65.140625 53.257812 L 276.453125 110.980469 L 218.734375 322.292969 L 7.421875 264.570312 Z M 65.140625 53.257812 " clip-rule="nonzero"/></clipPath><clipPath id="00f98a3f7f"><path d="M 169.324219 81.714844 C 111.785156 66 52.402344 99.902344 36.683594 157.441406 C 20.96875 214.980469 54.871094 274.367188 112.410156 290.082031 C 169.949219 305.800781 229.332031 271.898438 245.050781 214.359375 C 260.765625 156.820312 226.863281 97.433594 169.324219 81.714844 " clip-rule="nonzero"/></clipPath><clipPath id="5caafebd33"><path d="M 140 118 L 166 118 L 166 154 L 140 154 Z M 140 118 " clip-rule="nonzero"/></clipPath><clipPath id="2cba726533"><path d="M 148.25 118.519531 L 165.792969 123.238281 L 157.5 154.066406 L 139.957031 149.347656 Z M 148.25 118.519531 " clip-rule="nonzero"/></clipPath><clipPath id="87f10ff4f9"><path d="M 148.25 118.519531 L 165.40625 123.132812 L 157.167969 153.773438 L 140.007812 149.15625 Z M 148.25 118.519531 " clip-rule="nonzero"/></clipPath><clipPath id="0adff8db24"><path d="M 156 200 L 192 200 L 192 236 L 156 236 Z M 156 200 " clip-rule="nonzero"/></clipPath><clipPath id="a85949d9a8"><path d="M 156.683594 212.78125 L 169.679688 200.09375 L 191.980469 222.933594 L 178.984375 235.625 Z M 156.683594 212.78125 " clip-rule="nonzero"/></clipPath><clipPath id="530ffd4244"><path d="M 156.683594 212.78125 L 169.394531 200.371094 L 191.558594 223.070312 L 178.847656 235.484375 Z M 156.683594 212.78125 " clip-rule="nonzero"/></clipPath><clipPath id="04f4003a49"><path d="M 92 136 L 175 136 L 175 218 L 92 218 Z M 92 136 " clip-rule="nonzero"/></clipPath><clipPath id="8987a7d510"><path d="M 103.238281 236.492188 L 81.644531 154.074219 L 153.21875 135.320312 L 174.8125 217.738281 Z M 103.238281 236.492188 " clip-rule="nonzero"/></clipPath><clipPath id="08069fa3db"><path d="M 92.523438 195.597656 L 152.691406 136.136719 L 174.117188 217.921875 L 92.523438 195.597656 " clip-rule="nonzero"/></clipPath><clipPath id="a8652876fe"><path d="M 82 181 L 118 181 L 118 207 L 82 207 Z M 82 181 " clip-rule="nonzero"/></clipPath><clipPath id="3fbca0bf94"><path d="M 87.140625 206.195312 L 82.539062 188.625 L 113.417969 180.535156 L 118.023438 198.105469 Z M 87.140625 206.195312 " clip-rule="nonzero"/></clipPath><clipPath id="7e8f58e3fa"><path d="M 87.140625 206.195312 L 82.636719 189.011719 L 113.332031 180.96875 L 117.832031 198.15625 Z M 87.140625 206.195312 " clip-rule="nonzero"/></clipPath><clipPath id="ae2a9ebb4f"><path d="M 37 174 L 93 174 L 93 231 L 37 231 Z M 37 174 " clip-rule="nonzero"/></clipPath><clipPath id="bef646bd6d"><path d="M 98.488281 223.441406 L 44.375 236.296875 L 31.519531 182.179688 L 85.636719 169.324219 Z M 98.488281 223.441406 " clip-rule="nonzero"/></clipPath><clipPath id="3fcb4c381b"><path d="M 71.429688 229.867188 C 86.375 226.320312 95.613281 211.328125 92.0625 196.382812 C 88.511719 181.441406 73.519531 172.203125 58.578125 175.753906 C 43.632812 179.300781 34.394531 194.292969 37.945312 209.238281 C 41.496094 224.183594 56.488281 233.417969 71.429688 229.867188 " clip-rule="nonzero"/></clipPath><clipPath id="d899024a1d"><path d="M 37 175 L 93 175 L 93 231 L 37 231 Z M 37 175 " clip-rule="nonzero"/></clipPath><clipPath id="e164b0c581"><path d="M 98.488281 223.441406 L 44.492188 236.269531 L 31.664062 182.269531 L 85.664062 169.445312 Z M 98.488281 223.441406 " clip-rule="nonzero"/></clipPath><clipPath id="f68e86e137"><path d="M 98.488281 223.441406 L 44.492188 236.269531 L 31.664062 182.269531 L 85.664062 169.445312 Z M 98.488281 223.441406 " clip-rule="nonzero"/></clipPath><clipPath id="2eb891426e"><path d="M 71.492188 229.855469 C 86.402344 226.3125 95.617188 211.355469 92.078125 196.441406 C 88.535156 181.53125 73.574219 172.316406 58.664062 175.859375 C 43.753906 179.398438 34.535156 194.359375 38.078125 209.269531 C 41.621094 224.179688 56.578125 233.398438 71.492188 229.855469 " clip-rule="nonzero"/></clipPath><clipPath id="0b82daaec6"><path d="M 167 211 L 224 211 L 224 268 L 167 268 Z M 167 211 " clip-rule="nonzero"/></clipPath><clipPath id="c9484d1a1a"><path d="M 194.960938 278.578125 L 155.863281 239.015625 L 195.425781 199.917969 L 234.523438 239.484375 Z M 194.960938 278.578125 " clip-rule="nonzero"/></clipPath><clipPath id="87d71c5541"><path d="M 175.410156 258.796875 C 186.207031 269.722656 203.816406 269.828125 214.742188 259.03125 C 225.667969 248.234375 225.769531 230.625 214.976562 219.703125 C 204.179688 208.777344 186.570312 208.671875 175.644531 219.46875 C 164.71875 230.265625 164.617188 247.871094 175.410156 258.796875 " clip-rule="nonzero"/></clipPath><clipPath id="f63f4f9956"><path d="M 167 211 L 223 211 L 223 268 L 167 268 Z M 167 211 " clip-rule="nonzero"/></clipPath><clipPath id="d8367c31a2"><path d="M 194.960938 278.578125 L 155.949219 239.101562 L 195.425781 200.09375 L 234.4375 239.570312 Z M 194.960938 278.578125 " clip-rule="nonzero"/></clipPath><clipPath id="b82a30906d"><path d="M 194.960938 278.578125 L 155.949219 239.101562 L 195.425781 200.09375 L 234.4375 239.570312 Z M 194.960938 278.578125 " clip-rule="nonzero"/></clipPath><clipPath id="e4798307de"><path d="M 175.453125 258.839844 C 186.226562 269.742188 203.796875 269.847656 214.699219 259.074219 C 225.597656 248.300781 225.703125 230.730469 214.929688 219.832031 C 204.160156 208.929688 186.589844 208.824219 175.6875 219.597656 C 164.785156 230.371094 164.683594 247.941406 175.453125 258.839844 " clip-rule="nonzero"/></clipPath><clipPath id="4e9e7b9ee7"><path d="M 131 83 L 188 83 L 188 140 L 131 140 Z M 131 83 " clip-rule="nonzero"/></clipPath><clipPath id="97b1b62533"><path d="M 193.175781 131.898438 L 139.058594 144.753906 L 126.203125 90.636719 L 180.320312 77.78125 Z M 193.175781 131.898438 " clip-rule="nonzero"/></clipPath><clipPath id="a6cf79e681"><path d="M 166.117188 138.324219 C 181.0625 134.773438 190.296875 119.78125 186.746094 104.839844 C 183.199219 89.894531 168.207031 80.660156 153.261719 84.207031 C 138.320312 87.757812 129.082031 102.75 132.632812 117.695312 C 136.179688 132.636719 151.171875 141.875 166.117188 138.324219 " clip-rule="nonzero"/></clipPath><clipPath id="56b0d567b0"><path d="M 132 83 L 188 83 L 188 140 L 132 140 Z M 132 83 " clip-rule="nonzero"/></clipPath><clipPath id="9c6e7d6438"><path d="M 193.175781 131.898438 L 139.175781 144.722656 L 126.351562 90.726562 L 180.347656 77.898438 Z M 193.175781 131.898438 " clip-rule="nonzero"/></clipPath><clipPath id="3e5909342e"><path d="M 193.175781 131.898438 L 139.175781 144.722656 L 126.351562 90.726562 L 180.347656 77.898438 Z M 193.175781 131.898438 " clip-rule="nonzero"/></clipPath><clipPath id="7c8acc6da7"><path d="M 166.175781 138.3125 C 181.085938 134.769531 190.304688 119.808594 186.761719 104.898438 C 183.21875 89.988281 168.261719 80.769531 153.351562 84.3125 C 138.4375 87.855469 129.222656 102.8125 132.765625 117.726562 C 136.304688 132.636719 151.265625 141.851562 166.175781 138.3125 " clip-rule="nonzero"/></clipPath><clipPath id="bf2a6f767d"><path d="M 58 195 L 72 195 L 72 210 L 58 210 Z M 58 195 " clip-rule="nonzero"/></clipPath><clipPath id="d89c97ccbc"><path d="M 60.027344 211.332031 L 56.488281 197.832031 L 69.992188 194.292969 L 73.53125 207.796875 Z M 60.027344 211.332031 " clip-rule="nonzero"/></clipPath><clipPath id="308f0d6179"><path d="M 58.257812 204.582031 C 59.234375 208.3125 63.050781 210.542969 66.777344 209.566406 C 70.507812 208.585938 72.738281 204.773438 71.761719 201.042969 C 70.785156 197.316406 66.96875 195.085938 63.238281 196.0625 C 59.511719 197.039062 57.28125 200.851562 58.257812 204.582031 " clip-rule="nonzero"/></clipPath><clipPath id="3b29732529"><path d="M 188 232 L 203 232 L 203 247 L 188 247 Z M 188 232 " clip-rule="nonzero"/></clipPath><clipPath id="d196b2eae6"><path d="M 185.324219 239.195312 L 195.253906 229.382812 L 205.066406 239.3125 L 195.136719 249.125 Z M 185.324219 239.195312 " clip-rule="nonzero"/></clipPath><clipPath id="604fdaef4c"><path d="M 190.289062 234.289062 C 187.546875 237 187.523438 241.417969 190.230469 244.160156 C 192.941406 246.902344 197.359375 246.929688 200.101562 244.21875 C 202.84375 241.511719 202.871094 237.089844 200.160156 234.347656 C 197.449219 231.605469 193.03125 231.582031 190.289062 234.289062 " clip-rule="nonzero"/></clipPath><clipPath id="72eda45aa6"><path d="M 151 104 L 166 104 L 166 118 L 151 118 Z M 151 104 " clip-rule="nonzero"/></clipPath><clipPath id="5a58fb667a"><path d="M 153.703125 119.535156 L 150.167969 106.03125 L 163.667969 102.492188 L 167.207031 115.996094 Z M 153.703125 119.535156 " clip-rule="nonzero"/></clipPath><clipPath id="6ff67b68d7"><path d="M 151.933594 112.785156 C 152.914062 116.511719 156.726562 118.742188 160.457031 117.765625 C 164.183594 116.789062 166.414062 112.972656 165.4375 109.246094 C 164.460938 105.515625 160.648438 103.285156 156.917969 104.261719 C 153.1875 105.238281 150.957031 109.054688 151.933594 112.785156 " clip-rule="nonzero"/></clipPath><clipPath id="ff33a7ef46"><path d="M 83 120 L 113 120 L 113 159 L 83 159 Z M 83 120 " clip-rule="nonzero"/></clipPath><clipPath id="f69c71fbef"><path d="M 115.527344 123.539062 L 84.992188 159.597656 L 74.691406 150.871094 L 105.226562 114.8125 Z M 115.527344 123.539062 " clip-rule="nonzero"/></clipPath><clipPath id="51e82d8d81"><path d="M 84.871094 159.738281 L 115.40625 123.679688 L 105.105469 114.957031 L 74.570312 151.015625 Z M 84.871094 159.738281 " clip-rule="nonzero"/></clipPath><clipPath id="3e75258e3d"><path d="M 84.871094 159.738281 L 115.40625 123.679688 L 105.105469 114.957031 L 74.570312 151.015625 Z M 84.871094 159.738281 " clip-rule="nonzero"/></clipPath><clipPath id="cc5167879d"><path d="M 84 150 L 85 150 L 85 151 L 84 151 Z M 84 150 " clip-rule="nonzero"/></clipPath><clipPath id="874e9285da"><path d="M 115.527344 123.539062 L 84.992188 159.597656 L 74.691406 150.871094 L 105.226562 114.8125 Z M 115.527344 123.539062 " clip-rule="nonzero"/></clipPath><clipPath id="cabfe10b26"><path d="M 84.871094 159.738281 L 115.40625 123.679688 L 105.105469 114.957031 L 74.570312 151.015625 Z M 84.871094 159.738281 " clip-rule="nonzero"/></clipPath><clipPath id="12bc9f41d5"><path d="M 84.871094 159.738281 L 115.40625 123.679688 L 105.105469 114.957031 L 74.570312 151.015625 Z M 84.871094 159.738281 " clip-rule="nonzero"/></clipPath><clipPath id="127f989e48"><path d="M 192 144 L 215 144 L 215 189 L 192 189 Z M 192 144 " clip-rule="nonzero"/></clipPath><clipPath id="b2a3cd6c4b"><path d="M 204.226562 190.515625 L 192.316406 144.789062 L 205.382812 141.386719 L 217.292969 187.113281 Z M 204.226562 190.515625 " clip-rule="nonzero"/></clipPath><clipPath id="7b858250b3"><path d="M 192.269531 144.609375 L 204.179688 190.332031 L 217.246094 186.929688 L 205.335938 141.207031 Z M 192.269531 144.609375 " clip-rule="nonzero"/></clipPath><clipPath id="f3979ff1c1"><path d="M 192.269531 144.609375 L 204.179688 190.332031 L 217.246094 186.929688 L 205.335938 141.207031 Z M 192.269531 144.609375 " clip-rule="nonzero"/></clipPath><clipPath id="f602e63592"><path d="M 200 150 L 201 150 L 201 151 L 200 151 Z M 200 150 " clip-rule="nonzero"/></clipPath><clipPath id="5d2cad2d6c"><path d="M 204.226562 190.515625 L 192.316406 144.789062 L 205.382812 141.386719 L 217.292969 187.113281 Z M 204.226562 190.515625 " clip-rule="nonzero"/></clipPath><clipPath id="14dcb32559"><path d="M 192.269531 144.609375 L 204.179688 190.332031 L 217.246094 186.929688 L 205.335938 141.207031 Z M 192.269531 144.609375 " clip-rule="nonzero"/></clipPath><clipPath id="ba20cfc2f7"><path d="M 192.269531 144.609375 L 204.179688 190.332031 L 217.246094 186.929688 L 205.335938 141.207031 Z M 192.269531 144.609375 " clip-rule="nonzero"/></clipPath><clipPath id="52bfbfc115"><path d="M 102 237 L 149 237 L 149 257 L 102 257 Z M 102 237 " clip-rule="nonzero"/></clipPath><clipPath id="0a498ae528"><path d="M 104.230469 234.371094 L 148.589844 250.648438 L 143.941406 263.320312 L 99.582031 247.046875 Z M 104.230469 234.371094 " clip-rule="nonzero"/></clipPath><clipPath id="12400fa462"><path d="M 148.765625 250.710938 L 104.40625 234.4375 L 99.757812 247.109375 L 144.117188 263.386719 Z M 148.765625 250.710938 " clip-rule="nonzero"/></clipPath><clipPath id="11ec3d8f34"><path d="M 148.765625 250.710938 L 104.40625 234.4375 L 99.757812 247.109375 L 144.117188 263.386719 Z M 148.765625 250.710938 " clip-rule="nonzero"/></clipPath><clipPath id="4764490fed"><path d="M 139 253 L 140 253 L 140 255 L 139 255 Z M 139 253 " clip-rule="nonzero"/></clipPath><clipPath id="4a51ed4c29"><path d="M 104.230469 234.371094 L 148.589844 250.648438 L 143.941406 263.320312 L 99.582031 247.046875 Z M 104.230469 234.371094 " clip-rule="nonzero"/></clipPath><clipPath id="bc8c46c67e"><path d="M 148.765625 250.710938 L 104.40625 234.4375 L 99.757812 247.109375 L 144.117188 263.386719 Z M 148.765625 250.710938 " clip-rule="nonzero"/></clipPath><clipPath id="a62ec8ed06"><path d="M 148.765625 250.710938 L 104.40625 234.4375 L 99.757812 247.109375 L 144.117188 263.386719 Z M 148.765625 250.710938 " clip-rule="nonzero"/></clipPath><clipPath id="d19ebb7609"><path d="M 266.625 297.128906 L 283 297.128906 L 283 318.128906 L 266.625 318.128906 Z M 266.625 297.128906 " clip-rule="nonzero"/></clipPath><clipPath id="f657ce6141"><path d="M 278 297.128906 L 294.785156 297.128906 L 294.785156 318.128906 L 278 318.128906 Z M 278 297.128906 " clip-rule="nonzero"/></clipPath><clipPath id="2f0d15775d"><path d="M 229.5 297.128906 L 246 297.128906 L 246 318.128906 L 229.5 318.128906 Z M 229.5 297.128906 " clip-rule="nonzero"/></clipPath><clipPath id="abb750198f"><path d="M 241 297.128906 L 257.660156 297.128906 L 257.660156 318.128906 L 241 318.128906 Z M 241 297.128906 " clip-rule="nonzero"/></clipPath><clipPath id="17dc0fbcdd"><path d="M 192.375 297.128906 L 209 297.128906 L 209 318.128906 L 192.375 318.128906 Z M 192.375 297.128906 " clip-rule="nonzero"/></clipPath><clipPath id="9c4d727f87"><path d="M 204 297.128906 L 220.535156 297.128906 L 220.535156 318.128906 L 204 318.128906 Z M 204 297.128906 " clip-rule="nonzero"/></clipPath><clipPath id="d0332500d8"><path d="M 155.25 297.128906 L 172 297.128906 L 172 318.128906 L 155.25 318.128906 Z M 155.25 297.128906 " clip-rule="nonzero"/></clipPath><clipPath id="d52f023599"><path d="M 167 297.128906 L 183.410156 297.128906 L 183.410156 318.128906 L 167 318.128906 Z M 167 297.128906 " clip-rule="nonzero"/></clipPath><clipPath id="c205eb0277"><path d="M 117 297 L 135 297 L 135 319 L 117 319 Z M 117 297 " clip-rule="nonzero"/></clipPath><clipPath id="cf1463fb57"><path d="M 117.945312 297.378906 L 146.441406 296.875 L 146.8125 317.871094 L 118.316406 318.375 Z M 117.945312 297.378906 " clip-rule="nonzero"/></clipPath><clipPath id="1d60b92168"><path d="M 146.101562 296.878906 L 117.605469 297.382812 L 117.976562 318.378906 L 146.472656 317.875 Z M 146.101562 296.878906 " clip-rule="nonzero"/></clipPath><clipPath id="c3559e24c4"><path d="M 130 296 L 147 296 L 147 318 L 130 318 Z M 130 296 " clip-rule="nonzero"/></clipPath><clipPath id="d7996927f2"><path d="M 117.945312 297.378906 L 146.441406 296.875 L 146.8125 317.871094 L 118.316406 318.375 Z M 117.945312 297.378906 " clip-rule="nonzero"/></clipPath><clipPath id="381a81a719"><path d="M 146.101562 296.878906 L 117.605469 297.382812 L 117.976562 318.378906 L 146.472656 317.875 Z M 146.101562 296.878906 " clip-rule="nonzero"/></clipPath><clipPath id="89774b40a6"><path d="M 75 282 L 95 282 L 95 304 L 75 304 Z M 75 282 " clip-rule="nonzero"/></clipPath><clipPath id="17ef7216aa"><path d="M 81.105469 277.734375 L 105.09375 293.121094 L 93.757812 310.796875 L 69.765625 295.410156 Z M 81.105469 277.734375 " clip-rule="nonzero"/></clipPath><clipPath id="bd0105b0cd"><path d="M 104.808594 292.9375 L 80.816406 277.550781 L 69.480469 295.226562 L 93.46875 310.613281 Z M 104.808594 292.9375 " clip-rule="nonzero"/></clipPath><clipPath id="f6d0ec1948"><path d="M 85 289 L 105 289 L 105 311 L 85 311 Z M 85 289 " clip-rule="nonzero"/></clipPath><clipPath id="2b3f49bdd9"><path d="M 81.105469 277.734375 L 105.09375 293.121094 L 93.757812 310.796875 L 69.765625 295.410156 Z M 81.105469 277.734375 " clip-rule="nonzero"/></clipPath><clipPath id="f954896c2f"><path d="M 104.808594 292.9375 L 80.816406 277.550781 L 69.480469 295.226562 L 93.46875 310.613281 Z M 104.808594 292.9375 " clip-rule="nonzero"/></clipPath><clipPath id="91f3cec175"><path d="M 39 261 L 60 261 L 60 282 L 39 282 Z M 39 261 " clip-rule="nonzero"/></clipPath><clipPath id="1158151da9"><path d="M 48.058594 255.742188 L 68.585938 275.511719 L 54.019531 290.636719 L 33.492188 270.867188 Z M 48.058594 255.742188 " clip-rule="nonzero"/></clipPath><clipPath id="ba8cd3f7b0"><path d="M 68.339844 275.277344 L 47.8125 255.503906 L 33.246094 270.632812 L 53.773438 290.402344 Z M 68.339844 275.277344 " clip-rule="nonzero"/></clipPath><clipPath id="1f0402a999"><path d="M 48 270 L 68 270 L 68 290 L 48 290 Z M 48 270 " clip-rule="nonzero"/></clipPath><clipPath id="d3bd9ab34c"><path d="M 48.058594 255.742188 L 68.585938 275.511719 L 54.019531 290.636719 L 33.492188 270.867188 Z M 48.058594 255.742188 " clip-rule="nonzero"/></clipPath><clipPath id="822066d8df"><path d="M 68.339844 275.277344 L 47.8125 255.503906 L 33.246094 270.632812 L 53.773438 290.402344 Z M 68.339844 275.277344 " clip-rule="nonzero"/></clipPath><clipPath id="ef2d34af3e"><path d="M 17 226 L 39 226 L 39 245 L 17 245 Z M 17 226 " clip-rule="nonzero"/></clipPath><clipPath id="5ebab5b766"><path d="M 31.21875 221.023438 L 45.539062 245.664062 L 27.386719 256.21875 L 13.0625 231.578125 Z M 31.21875 221.023438 " clip-rule="nonzero"/></clipPath><clipPath id="07a2fc2d64"><path d="M 45.371094 245.371094 L 31.046875 220.730469 L 12.890625 231.285156 L 27.214844 255.925781 Z M 45.371094 245.371094 " clip-rule="nonzero"/></clipPath><clipPath id="ede030a6a3"><path d="M 23 236 L 45 236 L 45 256 L 23 256 Z M 23 236 " clip-rule="nonzero"/></clipPath><clipPath id="4098a8601d"><path d="M 31.21875 221.023438 L 45.539062 245.664062 L 27.386719 256.21875 L 13.0625 231.578125 Z M 31.21875 221.023438 " clip-rule="nonzero"/></clipPath><clipPath id="422b1153eb"><path d="M 45.371094 245.371094 L 31.046875 220.730469 L 12.890625 231.285156 L 27.214844 255.925781 Z M 45.371094 245.371094 " clip-rule="nonzero"/></clipPath><clipPath id="c4e7174918"><path d="M 8.878906 171.9375 L 29.878906 171.9375 L 29.878906 188 L 8.878906 188 Z M 8.878906 171.9375 " clip-rule="nonzero"/></clipPath><clipPath id="a5971e068b"><path d="M 8.878906 184 L 29.878906 184 L 29.878906 200.097656 L 8.878906 200.097656 Z M 8.878906 184 " clip-rule="nonzero"/></clipPath><clipPath id="70e51ec33f"><path d="M 20 121 L 42 121 L 42 141 L 20 141 Z M 20 121 " clip-rule="nonzero"/></clipPath><clipPath id="b16c140fca"><path d="M 46.378906 127.648438 L 30.144531 151.074219 L 12.882812 139.109375 L 29.117188 115.6875 Z M 46.378906 127.648438 " clip-rule="nonzero"/></clipPath><clipPath id="c13ee7d9b4"><path d="M 30.339844 150.792969 L 46.574219 127.367188 L 29.3125 115.40625 L 13.078125 138.832031 Z M 30.339844 150.792969 " clip-rule="nonzero"/></clipPath><clipPath id="91c7ac9e6c"><path d="M 13 131 L 35 131 L 35 151 L 13 151 Z M 13 131 " clip-rule="nonzero"/></clipPath><clipPath id="66d05ea1d2"><path d="M 46.378906 127.648438 L 30.144531 151.074219 L 12.882812 139.109375 L 29.117188 115.6875 Z M 46.378906 127.648438 " clip-rule="nonzero"/></clipPath><clipPath id="c09449f862"><path d="M 30.339844 150.792969 L 46.574219 127.367188 L 29.3125 115.40625 L 13.078125 138.832031 Z M 30.339844 150.792969 " clip-rule="nonzero"/></clipPath><clipPath id="3c06615285"><path d="M 47 87 L 66 87 L 66 108 L 47 108 Z M 47 87 " clip-rule="nonzero"/></clipPath><clipPath id="b7ae8a2d91"><path d="M 72.519531 97.335938 L 51.425781 116.5 L 37.304688 100.957031 L 58.398438 81.792969 Z M 72.519531 97.335938 " clip-rule="nonzero"/></clipPath><clipPath id="532617db80"><path d="M 51.675781 116.269531 L 72.769531 97.105469 L 58.648438 81.5625 L 37.554688 100.726562 Z M 51.675781 116.269531 " clip-rule="nonzero"/></clipPath><clipPath id="92cb3e9ea4"><path d="M 37 96 L 57 96 L 57 116 L 37 116 Z M 37 96 " clip-rule="nonzero"/></clipPath><clipPath id="8e2c835a98"><path d="M 72.519531 97.335938 L 51.425781 116.5 L 37.304688 100.957031 L 58.398438 81.792969 Z M 72.519531 97.335938 " clip-rule="nonzero"/></clipPath><clipPath id="0ce9aea198"><path d="M 51.675781 116.269531 L 72.769531 97.105469 L 58.648438 81.5625 L 37.554688 100.726562 Z M 51.675781 116.269531 " clip-rule="nonzero"/></clipPath><clipPath id="88a5a3f370"><path d="M 81 66 L 101 66 L 101 88 L 81 88 Z M 81 66 " clip-rule="nonzero"/></clipPath><clipPath id="b71215ac79"><path d="M 104.921875 81.058594 L 79.34375 93.632812 L 70.078125 74.785156 L 95.65625 62.214844 Z M 104.921875 81.058594 " clip-rule="nonzero"/></clipPath><clipPath id="9e271cb9d5"><path d="M 79.648438 93.480469 L 105.226562 80.910156 L 95.960938 62.0625 L 70.382812 74.636719 Z M 79.648438 93.480469 " clip-rule="nonzero"/></clipPath><clipPath id="9d40aeb249"><path d="M 70 71 L 90 71 L 90 94 L 70 94 Z M 70 71 " clip-rule="nonzero"/></clipPath><clipPath id="4fb2adc5bc"><path d="M 104.921875 81.058594 L 79.34375 93.632812 L 70.078125 74.785156 L 95.65625 62.214844 Z M 104.921875 81.058594 " clip-rule="nonzero"/></clipPath><clipPath id="86abdabec0"><path d="M 79.648438 93.480469 L 105.226562 80.910156 L 95.960938 62.0625 L 70.382812 74.636719 Z M 79.648438 93.480469 " clip-rule="nonzero"/></clipPath><clipPath id="15d30a055a"><path d="M 130 57.015625 L 146.285156 57.015625 L 146.285156 78 L 130 78 Z M 130 57.015625 " clip-rule="nonzero"/></clipPath><clipPath id="8e6cbb74d7"><path d="M 118.125 57.015625 L 135 57.015625 L 135 78 L 118.125 78 Z M 118.125 57.015625 " clip-rule="nonzero"/></clipPath><clipPath id="a84c5214ef"><path d="M 166 56 L 183 56 L 183 78 L 166 78 Z M 166 56 " clip-rule="nonzero"/></clipPath><clipPath id="1eae982135"><path d="M 182.511719 78.015625 L 154.023438 77.15625 L 154.65625 56.164062 L 183.144531 57.023438 Z M 182.511719 78.015625 " clip-rule="nonzero"/></clipPath><clipPath id="e7fb3bbbdc"><path d="M 154.363281 77.164062 L 182.851562 78.023438 L 183.484375 57.035156 L 154.996094 56.175781 Z M 154.363281 77.164062 " clip-rule="nonzero"/></clipPath><clipPath id="d2552e6e6c"><path d="M 154 56 L 171 56 L 171 78 L 154 78 Z M 154 56 " clip-rule="nonzero"/></clipPath><clipPath id="df8e144f9d"><path d="M 182.511719 78.015625 L 154.023438 77.15625 L 154.65625 56.164062 L 183.144531 57.023438 Z M 182.511719 78.015625 " clip-rule="nonzero"/></clipPath><clipPath id="b3110cf2b1"><path d="M 154.363281 77.164062 L 182.851562 78.023438 L 183.484375 57.035156 L 154.996094 56.175781 Z M 154.363281 77.164062 " clip-rule="nonzero"/></clipPath><clipPath id="6276200601"><path d="M 278 56 L 295 56 L 295 78 L 278 78 Z M 278 56 " clip-rule="nonzero"/></clipPath><clipPath id="5ccaeb5ebf"><path d="M 294.164062 78.015625 L 265.675781 77.15625 L 266.308594 56.164062 L 294.796875 57.023438 Z M 294.164062 78.015625 " clip-rule="nonzero"/></clipPath><clipPath id="e72aa1cd0f"><path d="M 266.015625 77.164062 L 294.503906 78.023438 L 295.136719 57.035156 L 266.648438 56.175781 Z M 266.015625 77.164062 " clip-rule="nonzero"/></clipPath><clipPath id="cbc947556e"><path d="M 266 56 L 283 56 L 283 78 L 266 78 Z M 266 56 " clip-rule="nonzero"/></clipPath><clipPath id="ec0133ec80"><path d="M 294.164062 78.015625 L 265.675781 77.15625 L 266.308594 56.164062 L 294.796875 57.023438 Z M 294.164062 78.015625 " clip-rule="nonzero"/></clipPath><clipPath id="ad1b7bd625"><path d="M 266.015625 77.164062 L 294.503906 78.023438 L 295.136719 57.035156 L 266.648438 56.175781 Z M 266.015625 77.164062 " clip-rule="nonzero"/></clipPath><clipPath id="347b2eb38f"><path d="M 241 56 L 258 56 L 258 78 L 241 78 Z M 241 56 " clip-rule="nonzero"/></clipPath><clipPath id="9945c9dc1f"><path d="M 257.039062 78.015625 L 228.550781 77.15625 L 229.183594 56.164062 L 257.671875 57.023438 Z M 257.039062 78.015625 " clip-rule="nonzero"/></clipPath><clipPath id="ab70a36e38"><path d="M 228.890625 77.164062 L 257.378906 78.023438 L 258.011719 57.035156 L 229.523438 56.175781 Z M 228.890625 77.164062 " clip-rule="nonzero"/></clipPath><clipPath id="2fb40cf6aa"><path d="M 228 56 L 246 56 L 246 78 L 228 78 Z M 228 56 " clip-rule="nonzero"/></clipPath><clipPath id="da3c26ba7c"><path d="M 257.039062 78.015625 L 228.550781 77.15625 L 229.183594 56.164062 L 257.671875 57.023438 Z M 257.039062 78.015625 " clip-rule="nonzero"/></clipPath><clipPath id="d61dd056f8"><path d="M 228.890625 77.164062 L 257.378906 78.023438 L 258.011719 57.035156 L 229.523438 56.175781 Z M 228.890625 77.164062 " clip-rule="nonzero"/></clipPath><clipPath id="e538ae8fb7"><path d="M 204 56 L 221 56 L 221 78 L 204 78 Z M 204 56 " clip-rule="nonzero"/></clipPath><clipPath id="8227687f45"><path d="M 220.523438 78.015625 L 192.035156 77.15625 L 192.667969 56.164062 L 221.15625 57.023438 Z M 220.523438 78.015625 " clip-rule="nonzero"/></clipPath><clipPath id="796dcf21bf"><path d="M 192.375 77.164062 L 220.863281 78.023438 L 221.496094 57.035156 L 193.007812 56.175781 Z M 192.375 77.164062 " clip-rule="nonzero"/></clipPath><clipPath id="8e2357278e"><path d="M 192 56 L 209 56 L 209 78 L 192 78 Z M 192 56 " clip-rule="nonzero"/></clipPath><clipPath id="483b8d1405"><path d="M 220.523438 78.015625 L 192.035156 77.15625 L 192.667969 56.164062 L 221.15625 57.023438 Z M 220.523438 78.015625 " clip-rule="nonzero"/></clipPath><clipPath id="20b61b0098"><path d="M 192.375 77.164062 L 220.863281 78.023438 L 221.496094 57.035156 L 193.007812 56.175781 Z M 192.375 77.164062 " clip-rule="nonzero"/></clipPath></defs><g clip-path="url(#c430ba5aeb)"><g clip-path="url(#2cd378358a)"><path fill="#919191" d="M 303.75 52.777344 L 303.75 323.039062 L -0.132812 323.039062 L -0.132812 52.777344 Z M 303.75 52.777344 " fill-opacity="1" fill-rule="nonzero"/></g></g><g clip-path="url(#c5b4c5ec8b)"><g clip-path="url(#0317dc09ce)"><path stroke-linecap="butt" transform="matrix(0.000000000000000046, 0.75, -0.75, 0.000000000000000046, 303.749959, 52.777335)" fill="none" stroke-linejoin="miter" d="M 120.062517 394.442673 C 138.520852 400.817674 159.505228 404.999965 180.098979 404.999965 C 200.69273 404.999965 220.505231 401.416632 238.770857 395.041632 C 239.156274 394.838507 239.546899 394.838507 239.937524 394.64059 C 308.515652 369.145797 359.03128 301.81246 360.00003 224.124956 L 360.00003 -0.0000552182 L 0.0000113526 -0.0000552182 L 0.0000113526 223.95829 C 0.97397 302.208294 50.708347 369.54163 120.062517 394.442673 " stroke="#000000" stroke-width="4" stroke-opacity="1" stroke-miterlimit="4"/></g></g><g clip-path="url(#b2849cf8d7)"><g clip-path="url(#1fdf3c2269)"><g clip-path="url(#ba1af454d9)"><path fill="#707070" d="M 65.140625 53.257812 L 273.253906 110.105469 L 216.40625 318.214844 L 8.296875 261.371094 Z M 65.140625 53.257812 " fill-opacity="1" fill-rule="nonzero"/></g></g></g><g clip-path="url(#f15af61700)"><g clip-path="url(#b548d7bcee)"><g clip-path="url(#5c2f0a8f7f)"><g clip-path="url(#00f98a3f7f)"><path stroke-linecap="butt" transform="matrix(0.723495, 0.197624, -0.197624, 0.723495, 65.141808, 53.258763)" fill="none" stroke-linejoin="miter" d="M 143.998311 -0.00204018 C 64.469689 0.000641049 0.00172139 64.469365 -0.000621649 143.999359 C 0.00205958 223.527981 64.472156 288.000972 144.000777 287.998291 C 223.530771 288.000634 287.998739 223.53191 288.001082 144.001916 C 287.998401 64.473295 223.528305 0.000302866 143.998311 -0.00204018 " stroke="#000000" stroke-width="8" stroke-opacity="1" stroke-miterlimit="4"/></g></g></g></g><g clip-path="url(#5caafebd33)"><g clip-path="url(#2cba726533)"><g clip-path="url(#87f10ff4f9)"><path fill="#ffde59" d="M 148.25 118.519531 L 165.261719 123.09375 L 156.96875 153.921875 L 139.957031 149.347656 Z M 148.25 118.519531 " fill-opacity="1" fill-rule="nonzero"/></g></g></g><g clip-path="url(#0adff8db24)"><g clip-path="url(#a85949d9a8)"><g clip-path="url(#530ffd4244)"><path fill="#ffde59" d="M 156.683594 212.78125 L 169.285156 200.476562 L 191.585938 223.320312 L 178.984375 235.625 Z M 156.683594 212.78125 " fill-opacity="1" fill-rule="nonzero"/></g></g></g><g clip-path="url(#04f4003a49)"><g clip-path="url(#8987a7d510)"><g clip-path="url(#08069fa3db)"><path fill="#ffde59" d="M 103.238281 236.492188 L 81.835938 154.796875 L 152.683594 136.234375 L 174.089844 217.929688 Z M 103.238281 236.492188 " fill-opacity="1" fill-rule="nonzero"/></g></g></g><g clip-path="url(#a8652876fe)"><g clip-path="url(#3fbca0bf94)"><g clip-path="url(#7e8f58e3fa)"><path fill="#ffde59" d="M 87.140625 206.195312 L 82.675781 189.160156 L 113.558594 181.066406 L 118.023438 198.105469 Z M 87.140625 206.195312 " fill-opacity="1" fill-rule="nonzero"/></g></g></g><g clip-path="url(#ae2a9ebb4f)"><g clip-path="url(#bef646bd6d)"><g clip-path="url(#3fcb4c381b)"><path fill="#ffde59" d="M 98.488281 223.441406 L 44.375 236.296875 L 31.519531 182.179688 L 85.636719 169.324219 Z M 98.488281 223.441406 " fill-opacity="1" fill-rule="nonzero"/></g></g></g><g clip-path="url(#d899024a1d)"><g clip-path="url(#e164b0c581)"><g clip-path="url(#f68e86e137)"><g clip-path="url(#2eb891426e)"><path fill="#000000" d="M 70.800781 226.941406 C 76.203125 225.660156 80.664062 222.878906 84.183594 218.601562 L 88.804688 222.40625 C 84.433594 227.71875 78.894531 231.171875 72.183594 232.765625 Z M 85.769531 216.449219 C 88.816406 211.804688 90.15625 206.726562 89.785156 201.21875 L 95.757812 200.8125 C 96.222656 207.664062 94.558594 213.96875 90.773438 219.738281 Z M 89.460938 198.570312 C 89.375 198.089844 89.277344 197.609375 89.164062 197.136719 C 88.003906 192.246094 85.585938 188.101562 81.914062 184.703125 L 85.980469 180.308594 C 90.542969 184.53125 93.546875 189.679688 94.988281 195.75 C 95.128906 196.339844 95.25 196.933594 95.355469 197.527344 Z M 79.851562 182.992188 C 75.390625 179.675781 70.394531 178.042969 64.871094 178.09375 L 64.816406 172.109375 C 71.679688 172.042969 77.882812 174.070312 83.425781 178.1875 Z M 62.222656 178.261719 C 61.261719 178.375 60.304688 178.542969 59.355469 178.769531 C 54.96875 179.8125 51.160156 181.886719 47.929688 184.996094 L 43.777344 180.679688 C 47.792969 176.816406 52.523438 174.238281 57.972656 172.945312 C 59.148438 172.664062 60.332031 172.457031 61.523438 172.316406 Z M 46.105469 186.949219 C 42.539062 191.207031 40.621094 196.097656 40.34375 201.613281 L 34.367188 201.316406 C 34.707031 194.460938 37.089844 188.390625 41.515625 183.105469 Z M 40.359375 204.289062 C 40.445312 205.730469 40.65625 207.160156 40.992188 208.578125 C 41.917969 212.46875 43.667969 215.921875 46.25 218.9375 L 41.699219 222.832031 C 38.492188 219.082031 36.3125 214.792969 35.167969 209.960938 C 34.75 208.203125 34.488281 206.429688 34.382812 204.640625 Z M 48.089844 220.867188 C 52.136719 224.675781 56.90625 226.878906 62.402344 227.476562 L 61.753906 233.425781 C 54.929688 232.683594 49.003906 229.953125 43.988281 225.230469 Z M 65.070312 227.617188 C 66.996094 227.617188 68.90625 227.390625 70.800781 226.941406 L 72.183594 232.765625 C 69.835938 233.324219 67.46875 233.605469 65.078125 233.605469 Z M 65.070312 227.617188 " fill-opacity="1" fill-rule="nonzero"/></g></g></g></g><g clip-path="url(#0b82daaec6)"><g clip-path="url(#c9484d1a1a)"><g clip-path="url(#87d71c5541)"><path fill="#ffde59" d="M 194.960938 278.578125 L 155.863281 239.015625 L 195.425781 199.917969 L 234.523438 239.484375 Z M 194.960938 278.578125 " fill-opacity="1" fill-rule="nonzero"/></g></g></g><g clip-path="url(#f63f4f9956)"><g clip-path="url(#d8367c31a2)"><g clip-path="url(#b82a30906d)"><g clip-path="url(#e4798307de)"><path fill="#000000" d="M 177.582031 256.738281 C 181.488281 260.6875 186.179688 263.054688 191.660156 263.839844 L 190.8125 269.769531 C 184.003906 268.792969 178.171875 265.851562 173.324219 260.945312 Z M 194.324219 264.078125 C 199.878906 264.269531 204.914062 262.777344 209.425781 259.597656 L 212.875 264.492188 C 207.265625 268.445312 201.011719 270.300781 194.117188 270.0625 Z M 211.523438 257.945312 C 211.886719 257.621094 212.246094 257.289062 212.59375 256.945312 C 216.167969 253.410156 218.457031 249.195312 219.453125 244.289062 L 225.320312 245.480469 C 224.082031 251.578125 221.242188 256.816406 216.800781 261.203125 C 216.371094 261.628906 215.929688 262.042969 215.476562 262.441406 Z M 219.84375 241.644531 C 220.355469 236.105469 219.15625 230.992188 216.246094 226.296875 L 221.332031 223.140625 C 224.953125 228.972656 226.441406 235.324219 225.804688 242.195312 Z M 214.722656 224.121094 C 214.128906 223.355469 213.488281 222.628906 212.800781 221.933594 C 209.632812 218.726562 205.878906 216.550781 201.546875 215.40625 L 203.078125 209.617188 C 208.464844 211.039062 213.125 213.742188 217.0625 217.726562 C 217.910156 218.585938 218.703125 219.488281 219.441406 220.433594 Z M 198.929688 214.863281 C 193.4375 214.027344 188.261719 214.925781 183.40625 217.558594 L 180.554688 212.292969 C 186.585938 209.023438 193.011719 207.90625 199.832031 208.941406 Z M 181.128906 218.957031 C 179.941406 219.78125 178.828125 220.703125 177.792969 221.726562 C 174.945312 224.539062 172.90625 227.832031 171.667969 231.601562 L 165.980469 229.738281 C 167.515625 225.046875 170.050781 220.957031 173.582031 217.46875 C 174.867188 216.199219 176.246094 215.054688 177.71875 214.035156 Z M 170.976562 234.179688 C 169.824219 239.613281 170.421875 244.832031 172.765625 249.839844 L 167.34375 252.378906 C 164.433594 246.160156 163.691406 239.679688 165.121094 232.9375 Z M 174.03125 252.195312 C 175.03125 253.839844 176.214844 255.351562 177.582031 256.738281 L 173.324219 260.945312 C 171.628906 259.230469 170.160156 257.351562 168.917969 255.308594 Z M 174.03125 252.195312 " fill-opacity="1" fill-rule="nonzero"/></g></g></g></g><g clip-path="url(#4e9e7b9ee7)"><g clip-path="url(#97b1b62533)"><g clip-path="url(#a6cf79e681)"><path fill="#ffde59" d="M 193.175781 131.898438 L 139.058594 144.753906 L 126.203125 90.636719 L 180.320312 77.78125 Z M 193.175781 131.898438 " fill-opacity="1" fill-rule="nonzero"/></g></g></g><g clip-path="url(#56b0d567b0)"><g clip-path="url(#9c6e7d6438)"><g clip-path="url(#3e5909342e)"><g clip-path="url(#7c8acc6da7)"><path fill="#000000" d="M 165.484375 135.398438 C 170.886719 134.113281 175.347656 131.335938 178.867188 127.058594 L 183.492188 130.863281 C 179.121094 136.175781 173.578125 139.628906 166.867188 141.222656 Z M 180.453125 124.90625 C 183.503906 120.261719 184.84375 115.183594 184.46875 109.671875 L 190.441406 109.269531 C 190.90625 116.117188 189.246094 122.425781 185.457031 128.191406 Z M 184.144531 107.023438 C 184.0625 106.546875 183.960938 106.066406 183.847656 105.589844 C 182.6875 100.699219 180.269531 96.554688 176.597656 93.15625 L 180.664062 88.761719 C 185.230469 92.984375 188.230469 98.132812 189.675781 104.207031 C 189.816406 104.796875 189.9375 105.386719 190.042969 105.984375 Z M 174.539062 91.449219 C 170.074219 88.132812 165.082031 86.5 159.558594 86.550781 L 159.5 80.5625 C 166.367188 80.5 172.570312 82.527344 178.109375 86.640625 Z M 156.90625 86.71875 C 155.945312 86.832031 154.992188 87 154.042969 87.226562 C 149.652344 88.269531 145.84375 90.34375 142.613281 93.449219 L 138.464844 89.136719 C 142.476562 85.273438 147.210938 82.695312 152.65625 81.402344 C 153.832031 81.121094 155.015625 80.910156 156.207031 80.773438 Z M 140.792969 95.402344 C 137.226562 99.664062 135.304688 104.554688 135.03125 110.070312 L 129.050781 109.773438 C 129.390625 102.917969 131.773438 96.847656 136.203125 91.558594 Z M 135.042969 112.742188 C 135.128906 114.183594 135.339844 115.613281 135.675781 117.035156 C 136.601562 120.925781 138.355469 124.378906 140.933594 127.394531 L 136.386719 131.285156 C 133.175781 127.539062 131 123.246094 129.851562 118.417969 C 129.433594 116.660156 129.171875 114.886719 129.066406 113.097656 Z M 142.777344 129.324219 C 146.820312 133.132812 151.589844 135.332031 157.085938 135.929688 L 156.441406 141.882812 C 149.613281 141.140625 143.691406 138.40625 138.671875 133.683594 Z M 159.757812 136.074219 C 161.683594 136.074219 163.589844 135.847656 165.484375 135.398438 L 166.867188 141.222656 C 164.523438 141.78125 162.152344 142.058594 159.761719 142.0625 Z M 159.757812 136.074219 " fill-opacity="1" fill-rule="nonzero"/></g></g></g></g><g clip-path="url(#bf2a6f767d)"><g clip-path="url(#d89c97ccbc)"><g clip-path="url(#308f0d6179)"><path fill="#707070" d="M 60.027344 211.332031 L 56.488281 197.832031 L 69.992188 194.292969 L 73.53125 207.796875 Z M 60.027344 211.332031 " fill-opacity="1" fill-rule="nonzero"/></g></g></g><g clip-path="url(#3b29732529)"><g clip-path="url(#d196b2eae6)"><g clip-path="url(#604fdaef4c)"><path fill="#707070" d="M 185.324219 239.195312 L 195.253906 229.382812 L 205.066406 239.3125 L 195.136719 249.125 Z M 185.324219 239.195312 " fill-opacity="1" fill-rule="nonzero"/></g></g></g><g clip-path="url(#72eda45aa6)"><g clip-path="url(#5a58fb667a)"><g clip-path="url(#6ff67b68d7)"><path fill="#707070" d="M 153.703125 119.535156 L 150.167969 106.03125 L 163.667969 102.492188 L 167.207031 115.996094 Z M 153.703125 119.535156 " fill-opacity="1" fill-rule="nonzero"/></g></g></g><g clip-path="url(#ff33a7ef46)"><g clip-path="url(#f69c71fbef)"><g clip-path="url(#51e82d8d81)"><g clip-path="url(#3e75258e3d)"><path fill="#ffffff" d="M 85.0625 158.90625 C 85.023438 158.902344 84.992188 158.878906 84.972656 158.84375 C 84.828125 158.84375 84.75 159.066406 84.574219 158.960938 C 84.125 159 83.953125 158.695312 83.828125 158.339844 C 83.480469 157.351562 83.300781 156.324219 83.183594 155.289062 C 82.765625 151.578125 83.144531 147.960938 84.171875 144.378906 C 85.960938 138.128906 89.632812 133.21875 94.683594 129.277344 C 97.023438 127.449219 99.644531 126.066406 102.332031 124.808594 C 103.914062 124.066406 105.535156 123.425781 107.136719 122.742188 C 107.207031 122.742188 107.273438 122.746094 107.34375 122.746094 C 107.394531 122.691406 107.472656 122.640625 107.492188 122.574219 C 107.503906 122.519531 107.429688 122.5 107.371094 122.523438 C 106.703125 122.355469 106.023438 122.332031 105.34375 122.34375 C 104.875 122.351562 104.421875 122.328125 103.980469 122.164062 C 102.980469 122.191406 102.351562 121.6875 102.203125 120.785156 C 103.957031 119.835938 105.824219 119.933594 107.714844 120.191406 C 108.417969 120.285156 109.125 120.332031 109.832031 120.386719 C 111.523438 120.523438 111.273438 120.601562 111.890625 121.839844 C 112.027344 122.117188 112.101562 122.421875 112.140625 122.730469 C 112.15625 122.84375 112.160156 122.949219 112.082031 123.042969 C 112.21875 123.367188 112.035156 123.59375 111.839844 123.804688 C 111.265625 124.433594 110.683594 125.054688 110.105469 125.679688 C 110.0625 125.878906 109.921875 126.003906 109.773438 126.117188 C 109.738281 126.320312 109.59375 126.441406 109.453125 126.566406 C 109.457031 126.714844 109.335938 126.796875 109.269531 126.90625 C 108.339844 128.386719 107.589844 129.949219 107.113281 131.636719 C 107.074219 131.765625 107.03125 131.890625 106.988281 132.015625 C 106.941406 132.164062 106.886719 132.335938 106.707031 132.332031 C 106.570312 132.332031 106.441406 132.191406 106.425781 132.078125 C 106.351562 131.570312 105.976562 131.1875 105.863281 130.699219 C 105.808594 130.484375 105.851562 130.265625 105.894531 130.046875 C 106.238281 128.34375 106.871094 126.753906 107.667969 125.222656 C 107.742188 125.085938 107.835938 124.957031 107.875 124.8125 C 107.921875 124.640625 107.789062 124.585938 107.644531 124.570312 C 107.546875 124.714844 107.414062 124.765625 107.242188 124.726562 C 107.128906 124.84375 107.007812 124.945312 106.824219 124.898438 C 106.8125 124.941406 106.785156 124.953125 106.746094 124.9375 C 106.640625 125.050781 106.523438 125.136719 106.351562 125.101562 C 106.261719 125.164062 106.179688 125.238281 106.082031 125.285156 C 105.007812 125.78125 103.921875 126.261719 102.851562 126.773438 C 101.882812 127.234375 100.925781 127.730469 99.964844 128.210938 C 99.726562 128.367188 99.496094 128.535156 99.253906 128.679688 C 96.898438 130.128906 94.757812 131.839844 92.878906 133.867188 C 92.210938 134.59375 91.5625 135.335938 90.90625 136.074219 C 90.867188 136.285156 90.710938 136.40625 90.554688 136.527344 C 90.523438 136.730469 90.375 136.847656 90.230469 136.964844 C 90.210938 137.160156 90.0625 137.265625 89.9375 137.386719 C 89.9375 137.515625 89.863281 137.597656 89.757812 137.65625 C 89.753906 137.703125 89.730469 137.734375 89.683594 137.75 C 89.683594 137.894531 89.570312 137.980469 89.503906 138.089844 C 89.183594 138.632812 88.765625 139.117188 88.515625 139.703125 C 88.441406 139.710938 88.304688 139.832031 88.375 139.601562 C 88.421875 139.449219 88.390625 139.414062 88.339844 139.421875 C 88.292969 139.425781 88.226562 139.464844 88.171875 139.488281 C 87.214844 141.238281 86.484375 143.089844 85.875 144.988281 C 85.835938 145.167969 85.792969 145.351562 85.753906 145.535156 C 85.515625 146.617188 85.273438 147.703125 85.03125 148.789062 C 85.054688 148.832031 85.054688 148.871094 85.046875 148.90625 C 85.039062 148.933594 85.023438 148.957031 85.007812 148.980469 C 85.039062 149.046875 85.027344 149.109375 84.980469 149.164062 C 85.015625 149.234375 85.003906 149.292969 84.953125 149.351562 C 84.988281 149.417969 84.976562 149.480469 84.925781 149.535156 C 84.964844 149.605469 84.957031 149.667969 84.902344 149.722656 C 84.941406 149.789062 84.933594 149.851562 84.878906 149.90625 L 84.878906 149.910156 C 84.921875 149.976562 84.914062 150.039062 84.859375 150.09375 L 84.859375 150.097656 C 84.855469 150.15625 84.851562 150.21875 84.84375 150.277344 L 84.839844 150.285156 C 84.878906 150.351562 84.875 150.410156 84.824219 150.46875 L 84.824219 150.472656 C 84.863281 150.539062 84.859375 150.597656 84.804688 150.65625 L 84.804688 150.660156 C 84.804688 150.660156 84.804688 150.664062 84.804688 150.664062 C 84.804688 150.664062 84.804688 150.660156 84.804688 150.660156 C 84.847656 150.726562 84.839844 150.789062 84.789062 150.84375 L 84.789062 150.847656 C 84.828125 150.914062 84.824219 150.976562 84.773438 151.03125 L 84.773438 151.035156 C 84.8125 151.101562 84.808594 151.164062 84.757812 151.222656 C 84.746094 151.800781 84.738281 152.378906 84.730469 152.957031 C 84.628906 153.253906 84.683594 153.5625 84.691406 153.867188 C 84.722656 153.882812 84.753906 153.886719 84.785156 153.890625 C 84.835938 153.890625 84.882812 153.878906 84.925781 153.847656 C 84.957031 154.078125 85.007812 154.304688 84.933594 154.53125 C 84.902344 154.601562 84.886719 154.667969 84.894531 154.742188 C 84.90625 154.675781 84.917969 154.605469 84.933594 154.53125 C 84.957031 154.605469 84.972656 154.675781 84.910156 154.730469 C 84.984375 154.820312 84.992188 154.917969 84.957031 155.027344 C 85.003906 155.082031 85.015625 155.144531 84.964844 155.203125 C 85 155.273438 85.015625 155.34375 84.96875 155.410156 C 84.988281 155.441406 85 155.476562 84.988281 155.515625 C 85.058594 155.734375 85.078125 155.953125 85.046875 156.179688 C 85.089844 156.335938 85.136719 156.492188 85.09375 156.65625 C 85.15625 156.746094 85.144531 156.847656 85.140625 156.945312 C 85.304688 157.5625 85.355469 158.203125 85.648438 158.816406 C 85.410156 158.8125 85.269531 159.03125 85.0625 158.90625 Z M 106.660156 124.832031 C 106.660156 124.835938 106.660156 124.835938 106.660156 124.835938 C 106.65625 124.835938 106.660156 124.832031 106.660156 124.832031 C 106.65625 124.835938 106.65625 124.835938 106.65625 124.835938 C 106.65625 124.835938 106.660156 124.835938 106.660156 124.835938 C 106.660156 124.835938 106.660156 124.839844 106.660156 124.839844 C 106.664062 124.835938 106.660156 124.835938 106.660156 124.832031 Z M 84.425781 150.777344 C 84.425781 150.761719 84.421875 150.746094 84.421875 150.730469 C 84.421875 150.734375 84.417969 150.738281 84.417969 150.742188 C 84.417969 150.753906 84.414062 150.769531 84.414062 150.78125 C 84.417969 150.78125 84.421875 150.777344 84.425781 150.777344 Z M 85.027344 148.796875 C 85.023438 148.796875 85.023438 148.796875 85.023438 148.796875 C 85.015625 148.796875 85.011719 148.792969 85.007812 148.792969 L 84.988281 148.796875 L 85.023438 148.796875 C 85.023438 148.796875 85.023438 148.800781 85.023438 148.800781 C 85.023438 148.800781 85.023438 148.796875 85.027344 148.796875 Z M 84.363281 150.808594 C 84.382812 150.800781 84.398438 150.792969 84.414062 150.785156 C 84.414062 150.769531 84.414062 150.757812 84.417969 150.746094 C 84.410156 150.773438 84.394531 150.792969 84.363281 150.808594 Z M 84.421875 150.660156 C 84.421875 150.644531 84.421875 150.628906 84.421875 150.617188 C 84.421875 150.617188 84.421875 150.613281 84.421875 150.613281 C 84.421875 150.628906 84.421875 150.644531 84.421875 150.660156 Z M 84.390625 157.898438 C 84.390625 157.898438 84.390625 157.902344 84.390625 157.902344 C 84.390625 157.902344 84.390625 157.90625 84.390625 157.90625 C 84.390625 157.90625 84.390625 157.910156 84.394531 157.910156 C 84.394531 157.90625 84.390625 157.902344 84.390625 157.898438 Z M 84.320312 157.625 C 84.316406 157.621094 84.316406 157.621094 84.316406 157.617188 C 84.316406 157.617188 84.320312 157.625 84.320312 157.625 Z M 84.832031 154.839844 C 84.820312 154.84375 84.804688 154.847656 84.789062 154.851562 C 84.796875 154.859375 84.800781 154.867188 84.808594 154.871094 C 84.816406 154.859375 84.824219 154.851562 84.832031 154.839844 Z M 84.925781 155.332031 C 84.925781 155.355469 84.933594 155.378906 84.949219 155.402344 C 84.9375 155.375 84.929688 155.355469 84.925781 155.332031 Z M 84.925781 155.332031 " fill-opacity="1" fill-rule="nonzero"/></g></g></g></g><g clip-path="url(#cc5167879d)"><g clip-path="url(#874e9285da)"><g clip-path="url(#cabfe10b26)"><g clip-path="url(#12bc9f41d5)"><path fill="#ffffff" d="M 84.839844 150.289062 C 84.84375 150.226562 84.851562 150.167969 84.855469 150.105469 C 84.894531 150.171875 84.890625 150.234375 84.839844 150.289062 Z M 84.839844 150.289062 " fill-opacity="1" fill-rule="nonzero"/></g></g></g></g><g clip-path="url(#127f989e48)"><g clip-path="url(#b2a3cd6c4b)"><g clip-path="url(#7b858250b3)"><g clip-path="url(#f3979ff1c1)"><path fill="#ffffff" d="M 192.84375 145.246094 C 192.867188 145.214844 192.902344 145.203125 192.945312 145.207031 C 193.027344 145.085938 192.890625 144.898438 193.078125 144.8125 C 193.308594 144.425781 193.652344 144.457031 194.015625 144.558594 C 195.027344 144.84375 195.96875 145.289062 196.882812 145.789062 C 200.15625 147.585938 202.898438 149.976562 205.234375 152.878906 C 209.316406 157.941406 211.214844 163.769531 211.53125 170.167969 C 211.679688 173.132812 211.300781 176.074219 210.785156 178.996094 C 210.480469 180.714844 210.074219 182.40625 209.707031 184.113281 C 209.667969 184.167969 209.625 184.222656 209.585938 184.277344 C 209.601562 184.351562 209.597656 184.441406 209.640625 184.496094 C 209.640625 184.496094 209.640625 184.496094 209.644531 184.5 C 209.675781 184.539062 209.738281 184.488281 209.75 184.429688 C 210.273438 183.980469 210.683594 183.4375 211.066406 182.875 C 211.328125 182.488281 211.609375 182.132812 211.996094 181.863281 C 212.554688 181.03125 213.324219 180.804688 214.148438 181.207031 C 213.914062 183.183594 212.761719 184.652344 211.464844 186.054688 C 210.980469 186.574219 210.535156 187.125 210.082031 187.671875 C 208.996094 188.976562 209.078125 188.726562 207.710938 188.519531 C 207.402344 188.472656 207.113281 188.355469 206.835938 188.210938 C 206.734375 188.15625 206.648438 188.097656 206.617188 187.980469 C 206.269531 187.910156 206.195312 187.625 206.132812 187.347656 C 205.949219 186.515625 205.773438 185.679688 205.597656 184.847656 C 205.457031 184.699219 205.441406 184.511719 205.429688 184.324219 C 205.285156 184.179688 205.269531 183.992188 205.246094 183.804688 C 205.125 183.722656 205.125 183.578125 205.074219 183.457031 C 204.402344 181.847656 203.554688 180.335938 202.449219 178.972656 C 202.363281 178.867188 202.289062 178.757812 202.210938 178.652344 C 202.117188 178.527344 202.007812 178.386719 202.113281 178.238281 C 202.191406 178.128906 202.382812 178.105469 202.484375 178.15625 C 202.941406 178.386719 203.472656 178.304688 203.933594 178.488281 C 204.140625 178.570312 204.296875 178.726562 204.449219 178.890625 C 205.644531 180.152344 206.582031 181.585938 207.375 183.121094 C 207.445312 183.257812 207.492188 183.40625 207.589844 183.527344 C 207.703125 183.664062 207.824219 183.582031 207.921875 183.476562 C 207.859375 183.3125 207.894531 183.171875 208.023438 183.058594 C 207.996094 182.894531 207.980469 182.738281 208.125 182.613281 C 208.097656 182.582031 208.101562 182.550781 208.140625 182.53125 C 208.105469 182.378906 208.101562 182.230469 208.230469 182.109375 C 208.230469 182.003906 208.214844 181.890625 208.234375 181.785156 C 208.449219 180.621094 208.679688 179.457031 208.878906 178.289062 C 209.058594 177.226562 209.207031 176.164062 209.367188 175.101562 C 209.375 174.816406 209.371094 174.53125 209.390625 174.246094 C 209.5625 171.488281 209.394531 168.753906 208.816406 166.050781 C 208.609375 165.085938 208.371094 164.128906 208.148438 163.167969 C 207.996094 163.011719 207.992188 162.816406 207.980469 162.617188 C 207.832031 162.472656 207.820312 162.285156 207.808594 162.097656 C 207.660156 161.972656 207.660156 161.789062 207.632812 161.617188 C 207.527344 161.542969 207.503906 161.433594 207.515625 161.316406 C 207.476562 161.285156 207.46875 161.246094 207.484375 161.203125 C 207.363281 161.117188 207.359375 160.976562 207.308594 160.859375 C 207.046875 160.285156 206.890625 159.664062 206.558594 159.121094 C 206.59375 159.054688 206.574219 158.875 206.722656 159.0625 C 206.820312 159.191406 206.863281 159.1875 206.890625 159.140625 C 206.914062 159.097656 206.921875 159.023438 206.933594 158.964844 C 206.050781 157.175781 204.957031 155.511719 203.753906 153.921875 C 203.628906 153.785156 203.503906 153.644531 203.378906 153.507812 C 202.628906 152.6875 201.878906 151.867188 201.132812 151.042969 C 201.085938 151.035156 201.050781 151.015625 201.027344 150.988281 C 201.011719 150.964844 201 150.941406 200.992188 150.914062 C 200.917969 150.898438 200.871094 150.855469 200.855469 150.785156 C 200.78125 150.773438 200.734375 150.730469 200.71875 150.65625 C 200.644531 150.644531 200.597656 150.601562 200.582031 150.527344 C 200.503906 150.519531 200.457031 150.476562 200.445312 150.398438 C 200.363281 150.394531 200.320312 150.351562 200.304688 150.273438 C 200.226562 150.269531 200.179688 150.226562 200.164062 150.152344 L 200.164062 150.148438 C 200.113281 150.113281 200.066406 150.074219 200.023438 150.03125 L 200.019531 150.027344 C 199.941406 150.019531 199.894531 149.984375 199.878906 149.90625 L 199.875 149.902344 C 199.800781 149.898438 199.753906 149.859375 199.738281 149.785156 L 199.730469 149.78125 C 199.730469 149.78125 199.730469 149.777344 199.730469 149.777344 C 199.730469 149.777344 199.730469 149.78125 199.730469 149.78125 C 199.652344 149.777344 199.605469 149.734375 199.589844 149.660156 L 199.589844 149.65625 C 199.511719 149.65625 199.464844 149.613281 199.449219 149.539062 L 199.445312 149.539062 C 199.367188 149.53125 199.320312 149.492188 199.300781 149.417969 C 198.832031 149.078125 198.367188 148.738281 197.898438 148.398438 C 197.714844 148.144531 197.429688 148.011719 197.175781 147.84375 C 197.144531 147.859375 197.121094 147.882812 197.101562 147.90625 C 197.074219 147.945312 197.058594 147.988281 197.054688 148.042969 C 196.851562 147.9375 196.636719 147.847656 196.492188 147.65625 C 196.453125 147.59375 196.410156 147.539062 196.339844 147.503906 C 196.390625 147.554688 196.441406 147.605469 196.492188 147.65625 C 196.417969 147.636719 196.355469 147.609375 196.34375 147.523438 C 196.226562 147.535156 196.144531 147.480469 196.074219 147.390625 C 196 147.398438 195.945312 147.371094 195.921875 147.296875 C 195.847656 147.285156 195.785156 147.257812 195.753906 147.179688 C 195.714844 147.179688 195.683594 147.167969 195.660156 147.132812 C 195.441406 147.066406 195.246094 146.957031 195.082031 146.800781 C 194.929688 146.746094 194.773438 146.695312 194.664062 146.566406 C 194.554688 146.566406 194.480469 146.496094 194.398438 146.4375 C 193.800781 146.214844 193.246094 145.886719 192.578125 145.777344 C 192.714844 145.582031 192.621094 145.34375 192.84375 145.246094 Z M 208.273438 182.519531 C 208.269531 182.515625 208.269531 182.515625 208.269531 182.515625 C 208.273438 182.515625 208.273438 182.515625 208.273438 182.515625 C 208.273438 182.515625 208.269531 182.515625 208.269531 182.515625 C 208.269531 182.515625 208.265625 182.515625 208.265625 182.515625 C 208.269531 182.519531 208.269531 182.519531 208.273438 182.519531 Z M 199.855469 149.402344 C 199.871094 149.410156 199.882812 149.417969 199.894531 149.425781 C 199.894531 149.421875 199.890625 149.421875 199.886719 149.417969 C 199.878906 149.410156 199.867188 149.402344 199.859375 149.394531 C 199.859375 149.394531 199.855469 149.398438 199.855469 149.402344 Z M 201.128906 151.035156 C 201.132812 151.035156 201.132812 151.03125 201.132812 151.03125 C 201.136719 151.027344 201.140625 151.023438 201.144531 151.019531 L 201.152344 151.003906 L 201.132812 151.03125 C 201.128906 151.03125 201.128906 151.03125 201.128906 151.03125 C 201.128906 151.03125 201.128906 151.03125 201.128906 151.035156 Z M 199.863281 149.335938 C 199.863281 149.355469 199.859375 149.371094 199.859375 149.390625 C 199.867188 149.398438 199.878906 149.40625 199.886719 149.414062 C 199.867188 149.394531 199.859375 149.367188 199.863281 149.335938 Z M 199.953125 149.46875 C 199.964844 149.476562 199.976562 149.484375 199.988281 149.496094 C 199.988281 149.492188 199.992188 149.496094 199.992188 149.496094 C 199.980469 149.484375 199.964844 149.476562 199.953125 149.46875 Z M 194.050781 145.277344 C 194.050781 145.273438 194.050781 145.273438 194.046875 145.273438 C 194.046875 145.273438 194.046875 145.269531 194.046875 145.269531 C 194.042969 145.269531 194.042969 145.269531 194.039062 145.269531 C 194.042969 145.273438 194.046875 145.273438 194.050781 145.277344 Z M 194.316406 145.375 C 194.320312 145.375 194.324219 145.375 194.328125 145.375 C 194.324219 145.378906 194.320312 145.375 194.316406 145.375 Z M 196.300781 147.398438 C 196.304688 147.382812 196.308594 147.371094 196.3125 147.355469 C 196.304688 147.355469 196.296875 147.355469 196.285156 147.359375 C 196.292969 147.371094 196.296875 147.382812 196.300781 147.398438 Z M 195.84375 147.191406 C 195.824219 147.179688 195.800781 147.167969 195.773438 147.167969 C 195.800781 147.171875 195.824219 147.179688 195.84375 147.191406 Z M 195.84375 147.191406 " fill-opacity="1" fill-rule="nonzero"/></g></g></g></g><g clip-path="url(#f602e63592)"><g clip-path="url(#5d2cad2d6c)"><g clip-path="url(#14dcb32559)"><g clip-path="url(#ba20cfc2f7)"><path fill="#ffffff" d="M 200.019531 150.019531 C 200.066406 150.0625 200.109375 150.101562 200.15625 150.140625 C 200.078125 150.136719 200.03125 150.09375 200.019531 150.019531 Z M 200.019531 150.019531 " fill-opacity="1" fill-rule="nonzero"/></g></g></g></g><g clip-path="url(#52bfbfc115)"><g clip-path="url(#0a498ae528)"><g clip-path="url(#12400fa462)"><g clip-path="url(#11ec3d8f34)"><path fill="#ffffff" d="M 147.917969 250.820312 C 147.929688 250.859375 147.917969 250.894531 147.890625 250.925781 C 147.941406 251.0625 148.175781 251.058594 148.140625 251.257812 C 148.328125 251.667969 148.101562 251.933594 147.8125 252.175781 C 147 252.839844 146.101562 253.363281 145.167969 253.828125 C 141.824219 255.496094 138.296875 256.382812 134.582031 256.652344 C 128.097656 257.117188 122.226562 255.359375 116.789062 251.972656 C 114.265625 250.402344 112.066406 248.414062 109.960938 246.324219 C 108.722656 245.097656 107.5625 243.796875 106.371094 242.523438 C 106.347656 242.457031 106.324219 242.394531 106.300781 242.328125 C 106.230469 242.300781 106.160156 242.246094 106.089844 242.25 C 106.035156 242.253906 106.042969 242.332031 106.085938 242.378906 C 106.15625 243.066406 106.367188 243.710938 106.613281 244.347656 C 106.78125 244.78125 106.914062 245.214844 106.910156 245.6875 C 107.28125 246.621094 107.023438 247.378906 106.226562 247.828125 C 104.734375 246.511719 104.183594 244.722656 103.773438 242.859375 C 103.621094 242.167969 103.421875 241.488281 103.234375 240.804688 C 102.777344 239.167969 102.9375 239.378906 103.886719 238.371094 C 104.101562 238.144531 104.363281 237.972656 104.636719 237.832031 C 104.738281 237.777344 104.835938 237.738281 104.949219 237.777344 C 105.207031 237.535156 105.484375 237.632812 105.75 237.742188 C 106.539062 238.066406 107.320312 238.398438 108.109375 238.726562 C 108.308594 238.695312 108.472656 238.789062 108.632812 238.890625 C 108.835938 238.851562 109 238.945312 109.164062 239.03125 C 109.300781 238.980469 109.421875 239.0625 109.546875 239.089844 C 111.253906 239.457031 112.980469 239.621094 114.730469 239.488281 C 114.863281 239.480469 114.996094 239.480469 115.128906 239.476562 C 115.285156 239.46875 115.460938 239.460938 115.523438 239.628906 C 115.570312 239.757812 115.480469 239.929688 115.378906 239.984375 C 114.929688 240.226562 114.695312 240.710938 114.28125 240.984375 C 114.097656 241.109375 113.878906 241.144531 113.65625 241.179688 C 111.9375 241.445312 110.226562 241.394531 108.515625 241.171875 C 108.363281 241.152344 108.210938 241.105469 108.058594 241.117188 C 107.882812 241.132812 107.875 241.277344 107.910156 241.421875 C 108.082031 241.460938 108.171875 241.570312 108.195312 241.742188 C 108.34375 241.808594 108.484375 241.886719 108.5 242.078125 C 108.546875 242.074219 108.566406 242.09375 108.5625 242.136719 C 108.707031 242.199219 108.832031 242.277344 108.855469 242.449219 C 108.945312 242.511719 109.042969 242.5625 109.121094 242.640625 C 109.957031 243.480469 110.78125 244.332031 111.628906 245.160156 C 112.394531 245.914062 113.1875 246.640625 113.96875 247.378906 C 114.199219 247.546875 114.433594 247.707031 114.65625 247.886719 C 116.824219 249.601562 119.167969 251.023438 121.71875 252.085938 C 122.628906 252.464844 123.550781 252.816406 124.46875 253.179688 C 124.679688 253.144531 124.847656 253.25 125.015625 253.355469 C 125.21875 253.316406 125.378906 253.414062 125.539062 253.511719 C 125.730469 253.460938 125.878906 253.566406 126.035156 253.640625 C 126.15625 253.597656 126.257812 253.640625 126.351562 253.714844 C 126.394531 253.703125 126.433594 253.714844 126.460938 253.753906 C 126.597656 253.707031 126.71875 253.785156 126.84375 253.808594 C 127.464844 253.921875 128.0625 254.144531 128.699219 254.179688 C 128.730469 254.246094 128.890625 254.335938 128.652344 254.347656 C 128.492188 254.355469 128.46875 254.394531 128.496094 254.441406 C 128.515625 254.484375 128.574219 254.535156 128.613281 254.578125 C 130.589844 254.871094 132.574219 254.921875 134.570312 254.84375 C 134.753906 254.816406 134.9375 254.792969 135.121094 254.769531 C 136.222656 254.621094 137.328125 254.472656 138.425781 254.324219 C 138.460938 254.292969 138.496094 254.277344 138.535156 254.273438 C 138.5625 254.269531 138.585938 254.277344 138.617188 254.285156 C 138.667969 254.230469 138.730469 254.21875 138.800781 254.246094 C 138.851562 254.191406 138.914062 254.179688 138.984375 254.210938 C 139.035156 254.152344 139.09375 254.140625 139.167969 254.167969 C 139.21875 254.109375 139.277344 254.097656 139.351562 254.128906 C 139.398438 254.066406 139.460938 254.054688 139.53125 254.085938 L 139.535156 254.082031 C 139.582031 254.023438 139.644531 254.007812 139.710938 254.039062 L 139.714844 254.039062 C 139.773438 254.019531 139.832031 254.003906 139.890625 253.992188 L 139.898438 253.992188 C 139.945312 253.933594 140.003906 253.914062 140.074219 253.945312 L 140.082031 253.945312 C 140.128906 253.882812 140.1875 253.867188 140.257812 253.898438 L 140.265625 253.894531 C 140.3125 253.832031 140.371094 253.816406 140.441406 253.847656 L 140.445312 253.847656 C 140.492188 253.785156 140.554688 253.769531 140.625 253.800781 L 140.625 253.796875 C 140.675781 253.738281 140.734375 253.71875 140.808594 253.75 C 141.355469 253.558594 141.898438 253.367188 142.445312 253.179688 C 142.757812 253.167969 143.03125 253.015625 143.3125 252.902344 C 143.316406 252.863281 143.3125 252.832031 143.300781 252.804688 C 143.289062 252.757812 143.261719 252.71875 143.214844 252.683594 C 143.421875 252.578125 143.617188 252.453125 143.855469 252.445312 C 143.929688 252.449219 144 252.441406 144.066406 252.40625 C 143.996094 252.417969 143.925781 252.433594 143.855469 252.445312 C 143.914062 252.398438 143.976562 252.359375 144.046875 252.398438 C 144.105469 252.296875 144.199219 252.257812 144.3125 252.253906 C 144.347656 252.1875 144.402344 252.160156 144.476562 252.183594 C 144.53125 252.125 144.589844 252.089844 144.667969 252.109375 C 144.691406 252.078125 144.71875 252.058594 144.761719 252.058594 C 144.941406 251.914062 145.140625 251.820312 145.363281 251.769531 C 145.496094 251.679688 145.625 251.582031 145.792969 251.566406 C 145.855469 251.476562 145.957031 251.453125 146.050781 251.421875 C 146.574219 251.054688 147.15625 250.785156 147.632812 250.300781 C 147.710938 250.523438 147.964844 250.582031 147.917969 250.820312 Z M 108.496094 242.253906 C 108.5 242.253906 108.5 242.253906 108.5 242.253906 C 108.5 242.253906 108.496094 242.253906 108.496094 242.253906 C 108.5 242.253906 108.5 242.253906 108.5 242.253906 C 108.5 242.25 108.5 242.25 108.503906 242.25 C 108.5 242.25 108.5 242.25 108.496094 242.253906 Z M 140.503906 254.214844 C 140.488281 254.21875 140.476562 254.226562 140.460938 254.230469 C 140.464844 254.230469 140.46875 254.230469 140.472656 254.230469 C 140.484375 254.226562 140.5 254.226562 140.511719 254.21875 C 140.507812 254.21875 140.507812 254.214844 140.503906 254.214844 Z M 138.4375 254.328125 C 138.4375 254.332031 138.4375 254.332031 138.4375 254.332031 C 138.441406 254.339844 138.441406 254.34375 138.441406 254.347656 L 138.449219 254.363281 L 138.4375 254.332031 C 138.4375 254.332031 138.441406 254.332031 138.441406 254.328125 C 138.441406 254.332031 138.4375 254.332031 138.4375 254.328125 Z M 140.554688 254.257812 C 140.539062 254.246094 140.527344 254.234375 140.515625 254.222656 C 140.5 254.226562 140.488281 254.230469 140.476562 254.230469 C 140.503906 254.230469 140.53125 254.238281 140.554688 254.257812 Z M 140.394531 254.257812 C 140.382812 254.261719 140.367188 254.265625 140.355469 254.269531 C 140.351562 254.269531 140.351562 254.269531 140.351562 254.273438 C 140.367188 254.265625 140.382812 254.261719 140.394531 254.257812 Z M 147.203125 251.796875 C 147.203125 251.796875 147.207031 251.796875 147.207031 251.796875 C 147.207031 251.796875 147.210938 251.792969 147.210938 251.792969 C 147.210938 251.792969 147.214844 251.792969 147.214844 251.789062 C 147.210938 251.789062 147.207031 251.792969 147.203125 251.796875 Z M 146.96875 251.957031 C 146.96875 251.960938 146.96875 251.964844 146.964844 251.964844 C 146.964844 251.960938 146.96875 251.960938 146.96875 251.957031 Z M 144.179688 252.433594 C 144.1875 252.445312 144.195312 252.453125 144.203125 252.46875 C 144.210938 252.460938 144.214844 252.453125 144.21875 252.445312 C 144.203125 252.441406 144.191406 252.4375 144.179688 252.433594 Z M 144.605469 252.175781 C 144.628906 252.167969 144.648438 252.152344 144.667969 252.132812 C 144.667969 252.132812 144.667969 252.132812 144.664062 252.132812 C 144.648438 252.152344 144.628906 252.167969 144.605469 252.175781 Z M 144.605469 252.175781 " fill-opacity="1" fill-rule="nonzero"/></g></g></g></g><g clip-path="url(#4764490fed)"><g clip-path="url(#4a51ed4c29)"><g clip-path="url(#bc8c46c67e)"><g clip-path="url(#a62ec8ed06)"><path fill="#ffffff" d="M 139.902344 253.992188 C 139.84375 254.007812 139.785156 254.023438 139.726562 254.039062 C 139.773438 253.976562 139.835938 253.964844 139.902344 253.992188 Z M 139.902344 253.992188 " fill-opacity="1" fill-rule="nonzero"/></g></g></g></g><path stroke-linecap="butt" transform="matrix(0.74987, 0.00605191, -0.00605275, 0.749976, 136.490312, 77.868328)" fill="none" stroke-linejoin="miter" d="M -0.00220402 1.998562 L 223.03636 2.000901 " stroke="#000000" stroke-width="4" stroke-opacity="1" stroke-miterlimit="4"/><path stroke-linecap="butt" transform="matrix(0.750617, -0.00364086, 0.00363783, 0.749991, 135.126205, 291.168432)" fill="none" stroke-linejoin="miter" d="M -0.000887235 1.999401 L 224.814281 2.002221 " stroke="#000000" stroke-width="4" stroke-opacity="1" stroke-miterlimit="4"/><g clip-path="url(#d19ebb7609)"><path fill="#5ce1e6" d="M 266.714844 306.992188 L 275.207031 297.5 C 275.390625 297.296875 275.644531 297.183594 275.910156 297.183594 L 281.574219 297.183594 C 281.945312 297.183594 282.28125 297.402344 282.4375 297.746094 C 282.585938 298.089844 282.523438 298.488281 282.273438 298.765625 L 274.351562 307.628906 L 282.273438 316.484375 C 282.523438 316.765625 282.589844 317.164062 282.4375 317.507812 C 282.28125 317.851562 281.945312 318.070312 281.574219 318.070312 L 275.910156 318.070312 C 275.644531 318.070312 275.390625 317.953125 275.207031 317.757812 L 266.714844 308.261719 C 266.394531 307.902344 266.394531 307.351562 266.714844 306.992188 Z M 266.714844 306.992188 " fill-opacity="1" fill-rule="nonzero"/></g><g clip-path="url(#f657ce6141)"><path fill="#5ce1e6" d="M 278.984375 306.992188 L 287.476562 297.5 C 287.660156 297.296875 287.910156 297.183594 288.179688 297.183594 L 293.839844 297.183594 C 294.214844 297.183594 294.550781 297.402344 294.703125 297.746094 C 294.855469 298.089844 294.792969 298.488281 294.542969 298.765625 L 286.617188 307.628906 L 294.542969 316.484375 C 294.792969 316.765625 294.855469 317.164062 294.703125 317.507812 C 294.550781 317.851562 294.214844 318.070312 293.839844 318.070312 L 288.179688 318.070312 C 287.910156 318.070312 287.660156 317.953125 287.476562 317.757812 L 278.984375 308.261719 C 278.660156 307.902344 278.660156 307.351562 278.984375 306.992188 Z M 278.984375 306.992188 " fill-opacity="1" fill-rule="nonzero"/></g><g clip-path="url(#2f0d15775d)"><path fill="#38b6ff" d="M 229.589844 306.992188 L 238.082031 297.5 C 238.265625 297.296875 238.519531 297.183594 238.785156 297.183594 L 244.449219 297.183594 C 244.820312 297.183594 245.15625 297.402344 245.3125 297.746094 C 245.460938 298.089844 245.398438 298.488281 245.148438 298.765625 L 237.226562 307.628906 L 245.148438 316.484375 C 245.398438 316.765625 245.464844 317.164062 245.3125 317.507812 C 245.15625 317.851562 244.820312 318.070312 244.449219 318.070312 L 238.785156 318.070312 C 238.519531 318.070312 238.265625 317.953125 238.082031 317.757812 L 229.589844 308.261719 C 229.269531 307.902344 229.269531 307.351562 229.589844 306.992188 Z M 229.589844 306.992188 " fill-opacity="1" fill-rule="nonzero"/></g><g clip-path="url(#abb750198f)"><path fill="#38b6ff" d="M 241.859375 306.992188 L 250.351562 297.5 C 250.535156 297.296875 250.785156 297.183594 251.054688 297.183594 L 256.714844 297.183594 C 257.089844 297.183594 257.425781 297.402344 257.578125 297.746094 C 257.730469 298.089844 257.667969 298.488281 257.417969 298.765625 L 249.492188 307.628906 L 257.417969 316.484375 C 257.667969 316.765625 257.730469 317.164062 257.578125 317.507812 C 257.425781 317.851562 257.089844 318.070312 256.714844 318.070312 L 251.054688 318.070312 C 250.785156 318.070312 250.535156 317.953125 250.351562 317.757812 L 241.859375 308.261719 C 241.535156 307.902344 241.535156 307.351562 241.859375 306.992188 Z M 241.859375 306.992188 " fill-opacity="1" fill-rule="nonzero"/></g><g clip-path="url(#17dc0fbcdd)"><path fill="#38b6ff" d="M 192.464844 306.992188 L 200.957031 297.5 C 201.140625 297.296875 201.394531 297.183594 201.660156 297.183594 L 207.324219 297.183594 C 207.695312 297.183594 208.03125 297.402344 208.1875 297.746094 C 208.335938 298.089844 208.273438 298.488281 208.023438 298.765625 L 200.101562 307.628906 L 208.023438 316.484375 C 208.273438 316.765625 208.339844 317.164062 208.1875 317.507812 C 208.03125 317.851562 207.695312 318.070312 207.324219 318.070312 L 201.660156 318.070312 C 201.394531 318.070312 201.140625 317.953125 200.957031 317.757812 L 192.464844 308.261719 C 192.144531 307.902344 192.144531 307.351562 192.464844 306.992188 Z M 192.464844 306.992188 " fill-opacity="1" fill-rule="nonzero"/></g><g clip-path="url(#9c4d727f87)"><path fill="#38b6ff" d="M 204.734375 306.992188 L 213.226562 297.5 C 213.410156 297.296875 213.660156 297.183594 213.929688 297.183594 L 219.589844 297.183594 C 219.964844 297.183594 220.300781 297.402344 220.453125 297.746094 C 220.605469 298.089844 220.542969 298.488281 220.292969 298.765625 L 212.367188 307.628906 L 220.292969 316.484375 C 220.542969 316.765625 220.605469 317.164062 220.453125 317.507812 C 220.300781 317.851562 219.964844 318.070312 219.589844 318.070312 L 213.929688 318.070312 C 213.660156 318.070312 213.410156 317.953125 213.226562 317.757812 L 204.734375 308.261719 C 204.410156 307.902344 204.410156 307.351562 204.734375 306.992188 Z M 204.734375 306.992188 " fill-opacity="1" fill-rule="nonzero"/></g><g clip-path="url(#d0332500d8)"><path fill="#38b6ff" d="M 155.339844 306.992188 L 163.832031 297.5 C 164.015625 297.296875 164.269531 297.183594 164.535156 297.183594 L 170.199219 297.183594 C 170.570312 297.183594 170.90625 297.402344 171.0625 297.746094 C 171.210938 298.089844 171.148438 298.488281 170.898438 298.765625 L 162.976562 307.628906 L 170.898438 316.484375 C 171.148438 316.765625 171.214844 317.164062 171.0625 317.507812 C 170.90625 317.851562 170.570312 318.070312 170.199219 318.070312 L 164.535156 318.070312 C 164.269531 318.070312 164.015625 317.953125 163.832031 317.757812 L 155.339844 308.261719 C 155.019531 307.902344 155.019531 307.351562 155.339844 306.992188 Z M 155.339844 306.992188 " fill-opacity="1" fill-rule="nonzero"/></g><g clip-path="url(#d52f023599)"><path fill="#38b6ff" d="M 167.609375 306.992188 L 176.101562 297.5 C 176.285156 297.296875 176.535156 297.183594 176.804688 297.183594 L 182.464844 297.183594 C 182.839844 297.183594 183.175781 297.402344 183.328125 297.746094 C 183.480469 298.089844 183.417969 298.488281 183.167969 298.765625 L 175.242188 307.628906 L 183.167969 316.484375 C 183.417969 316.765625 183.480469 317.164062 183.328125 317.507812 C 183.175781 317.851562 182.839844 318.070312 182.464844 318.070312 L 176.804688 318.070312 C 176.535156 318.070312 176.285156 317.953125 176.101562 317.757812 L 167.609375 308.261719 C 167.285156 307.902344 167.285156 307.351562 167.609375 306.992188 Z M 167.609375 306.992188 " fill-opacity="1" fill-rule="nonzero"/></g><g clip-path="url(#c205eb0277)"><g clip-path="url(#cf1463fb57)"><g clip-path="url(#1d60b92168)"><path fill="#5ce1e6" d="M 118.210938 307.242188 L 126.535156 297.597656 C 126.710938 297.394531 126.960938 297.273438 127.230469 297.269531 L 132.890625 297.171875 C 133.261719 297.164062 133.605469 297.378906 133.765625 297.714844 C 133.921875 298.058594 133.867188 298.460938 133.621094 298.742188 L 125.855469 307.738281 L 133.933594 316.457031 C 134.1875 316.730469 134.261719 317.128906 134.113281 317.476562 C 133.964844 317.820312 133.632812 318.046875 133.261719 318.054688 L 127.597656 318.152344 C 127.332031 318.160156 127.078125 318.046875 126.890625 317.851562 L 118.230469 308.511719 C 117.902344 308.15625 117.894531 307.605469 118.210938 307.242188 Z M 118.210938 307.242188 " fill-opacity="1" fill-rule="nonzero"/></g></g></g><g clip-path="url(#c3559e24c4)"><g clip-path="url(#d7996927f2)"><g clip-path="url(#381a81a719)"><path fill="#5ce1e6" d="M 130.476562 307.023438 L 138.800781 297.382812 C 138.976562 297.175781 139.230469 297.058594 139.496094 297.054688 L 145.15625 296.953125 C 145.53125 296.945312 145.871094 297.160156 146.03125 297.5 C 146.1875 297.839844 146.132812 298.242188 145.886719 298.523438 L 138.121094 307.523438 L 146.203125 316.238281 C 146.457031 316.515625 146.527344 316.914062 146.378906 317.257812 C 146.234375 317.605469 145.898438 317.832031 145.527344 317.835938 L 139.867188 317.9375 C 139.597656 317.941406 139.34375 317.832031 139.160156 317.636719 L 130.5 308.292969 C 130.167969 307.9375 130.160156 307.386719 130.476562 307.023438 Z M 130.476562 307.023438 " fill-opacity="1" fill-rule="nonzero"/></g></g></g><g clip-path="url(#89774b40a6)"><g clip-path="url(#17ef7216aa)"><g clip-path="url(#bd0105b0cd)"><path fill="#38b6ff" d="M 75.855469 286.085938 L 88.128906 282.679688 C 88.390625 282.609375 88.664062 282.648438 88.890625 282.796875 L 93.65625 285.851562 C 93.96875 286.050781 94.132812 286.421875 94.078125 286.789062 C 94.019531 287.160156 93.75 287.464844 93.390625 287.5625 L 81.9375 290.742188 L 83.828125 302.476562 C 83.886719 302.847656 83.722656 303.21875 83.410156 303.425781 C 83.097656 303.632812 82.691406 303.632812 82.378906 303.433594 L 77.613281 300.375 C 77.386719 300.230469 77.238281 299.996094 77.191406 299.734375 L 75.167969 287.15625 C 75.089844 286.679688 75.386719 286.214844 75.855469 286.085938 Z M 75.855469 286.085938 " fill-opacity="1" fill-rule="nonzero"/></g></g></g><g clip-path="url(#f6d0ec1948)"><g clip-path="url(#2b3f49bdd9)"><g clip-path="url(#f954896c2f)"><path fill="#38b6ff" d="M 86.179688 292.710938 L 98.457031 289.304688 C 98.714844 289.234375 98.992188 289.273438 99.214844 289.417969 L 103.984375 292.476562 C 104.296875 292.675781 104.460938 293.042969 104.40625 293.414062 C 104.347656 293.785156 104.078125 294.089844 103.71875 294.1875 L 92.265625 297.367188 L 94.152344 309.101562 C 94.210938 309.46875 94.050781 309.84375 93.738281 310.046875 C 93.421875 310.253906 93.019531 310.257812 92.707031 310.058594 L 87.941406 307 C 87.714844 306.855469 87.5625 306.621094 87.519531 306.355469 L 85.496094 293.78125 C 85.417969 293.300781 85.714844 292.839844 86.179688 292.710938 Z M 86.179688 292.710938 " fill-opacity="1" fill-rule="nonzero"/></g></g></g><g clip-path="url(#91f3cec175)"><g clip-path="url(#1158151da9)"><g clip-path="url(#ba8cd3f7b0)"><path fill="#38b6ff" d="M 41.28125 262.910156 L 53.984375 261.964844 C 54.253906 261.945312 54.515625 262.039062 54.707031 262.222656 L 58.785156 266.152344 C 59.054688 266.410156 59.144531 266.800781 59.015625 267.15625 C 58.886719 267.507812 58.566406 267.753906 58.191406 267.777344 L 46.339844 268.664062 L 45.902344 280.539062 C 45.886719 280.914062 45.65625 281.246094 45.308594 281.386719 C 44.960938 281.53125 44.566406 281.453125 44.296875 281.195312 L 40.21875 277.269531 C 40.027344 277.082031 39.921875 276.824219 39.929688 276.554688 L 40.398438 263.824219 C 40.417969 263.339844 40.796875 262.945312 41.28125 262.910156 Z M 41.28125 262.910156 " fill-opacity="1" fill-rule="nonzero"/></g></g></g><g clip-path="url(#1f0402a999)"><g clip-path="url(#d3bd9ab34c)"><g clip-path="url(#822066d8df)"><path fill="#38b6ff" d="M 50.117188 271.421875 L 62.820312 270.472656 C 63.089844 270.453125 63.351562 270.546875 63.542969 270.734375 L 67.621094 274.660156 C 67.890625 274.917969 67.980469 275.3125 67.855469 275.664062 C 67.722656 276.015625 67.402344 276.261719 67.03125 276.289062 L 55.175781 277.171875 L 54.738281 289.050781 C 54.726562 289.425781 54.492188 289.757812 54.144531 289.898438 C 53.796875 290.039062 53.402344 289.964844 53.132812 289.707031 L 49.054688 285.777344 C 48.863281 285.59375 48.761719 285.332031 48.765625 285.066406 L 49.234375 272.335938 C 49.253906 271.851562 49.636719 271.453125 50.117188 271.421875 Z M 50.117188 271.421875 " fill-opacity="1" fill-rule="nonzero"/></g></g></g><g clip-path="url(#ef2d34af3e)"><g clip-path="url(#5ebab5b766)"><g clip-path="url(#07a2fc2d64)"><path fill="#38b6ff" d="M 22.734375 226.0625 L 35.210938 228.632812 C 35.476562 228.6875 35.699219 228.851562 35.835938 229.082031 L 38.679688 233.976562 C 38.867188 234.296875 38.847656 234.703125 38.628906 235.003906 C 38.40625 235.308594 38.03125 235.457031 37.664062 235.378906 L 26.023438 232.980469 L 22.347656 244.285156 C 22.230469 244.640625 21.917969 244.898438 21.542969 244.9375 C 21.171875 244.976562 20.808594 244.796875 20.625 244.472656 L 17.777344 239.578125 C 17.644531 239.347656 17.617188 239.070312 17.695312 238.8125 L 21.636719 226.699219 C 21.785156 226.238281 22.261719 225.960938 22.734375 226.0625 Z M 22.734375 226.0625 " fill-opacity="1" fill-rule="nonzero"/></g></g></g><g clip-path="url(#ede030a6a3)"><g clip-path="url(#4098a8601d)"><g clip-path="url(#422b1153eb)"><path fill="#38b6ff" d="M 28.898438 236.667969 L 41.375 239.238281 C 41.640625 239.296875 41.867188 239.457031 42 239.6875 L 44.847656 244.582031 C 45.035156 244.90625 45.011719 245.308594 44.792969 245.613281 C 44.574219 245.914062 44.195312 246.0625 43.832031 245.984375 L 32.1875 243.585938 L 28.511719 254.890625 C 28.394531 255.246094 28.082031 255.503906 27.710938 255.542969 C 27.335938 255.582031 26.976562 255.402344 26.789062 255.082031 L 23.941406 250.183594 C 23.808594 249.953125 23.78125 249.675781 23.859375 249.421875 L 27.800781 237.304688 C 27.949219 236.847656 28.425781 236.570312 28.898438 236.667969 Z M 28.898438 236.667969 " fill-opacity="1" fill-rule="nonzero"/></g></g></g><g clip-path="url(#c4e7174918)"><path fill="#5ce1e6" d="M 20.015625 172.027344 L 29.507812 180.519531 C 29.710938 180.699219 29.824219 180.953125 29.824219 181.222656 L 29.824219 186.882812 C 29.824219 187.257812 29.605469 187.59375 29.261719 187.746094 C 28.917969 187.898438 28.515625 187.835938 28.242188 187.585938 L 19.378906 179.660156 L 10.523438 187.585938 C 10.242188 187.835938 9.84375 187.898438 9.5 187.746094 C 9.15625 187.59375 8.9375 187.257812 8.9375 186.882812 L 8.9375 181.222656 C 8.9375 180.953125 9.050781 180.699219 9.25 180.519531 L 18.746094 172.027344 C 19.105469 171.703125 19.65625 171.703125 20.015625 172.027344 Z M 20.015625 172.027344 " fill-opacity="1" fill-rule="nonzero"/></g><g clip-path="url(#a5971e068b)"><path fill="#5ce1e6" d="M 20.015625 184.292969 L 29.507812 192.789062 C 29.710938 192.96875 29.824219 193.222656 29.824219 193.488281 L 29.824219 199.152344 C 29.824219 199.523438 29.605469 199.863281 29.261719 200.015625 C 28.917969 200.164062 28.515625 200.105469 28.242188 199.855469 L 19.378906 191.929688 L 10.523438 199.855469 C 10.242188 200.105469 9.84375 200.167969 9.5 200.015625 C 9.15625 199.863281 8.9375 199.523438 8.9375 199.152344 L 8.9375 193.488281 C 8.9375 193.222656 9.050781 192.96875 9.25 192.789062 L 18.746094 184.292969 C 19.105469 183.972656 19.65625 183.972656 20.015625 184.292969 Z M 20.015625 184.292969 " fill-opacity="1" fill-rule="nonzero"/></g><g clip-path="url(#70e51ec33f)"><g clip-path="url(#b16c140fca)"><g clip-path="url(#c13ee7d9b4)"><path fill="#38b6ff" d="M 38.21875 122.101562 L 41.183594 134.492188 C 41.246094 134.753906 41.195312 135.027344 41.042969 135.246094 L 37.816406 139.902344 C 37.605469 140.207031 37.230469 140.359375 36.863281 140.289062 C 36.496094 140.21875 36.203125 139.941406 36.117188 139.578125 L 33.347656 128.015625 L 21.554688 129.484375 C 21.183594 129.53125 20.816406 129.355469 20.621094 129.035156 C 20.425781 128.714844 20.4375 128.308594 20.648438 128.003906 L 23.875 123.351562 C 24.027344 123.128906 24.269531 122.988281 24.53125 122.953125 L 37.175781 121.378906 C 37.65625 121.320312 38.105469 121.632812 38.21875 122.101562 Z M 38.21875 122.101562 " fill-opacity="1" fill-rule="nonzero"/></g></g></g><g clip-path="url(#91c7ac9e6c)"><g clip-path="url(#66d05ea1d2)"><g clip-path="url(#c09449f862)"><path fill="#38b6ff" d="M 31.230469 132.1875 L 34.195312 144.574219 C 34.257812 144.839844 34.207031 145.109375 34.054688 145.332031 L 30.828125 149.984375 C 30.617188 150.289062 30.246094 150.441406 29.875 150.375 C 29.507812 150.300781 29.214844 150.023438 29.128906 149.660156 L 26.359375 138.101562 L 14.566406 139.566406 C 14.195312 139.613281 13.828125 139.4375 13.632812 139.117188 C 13.4375 138.796875 13.449219 138.394531 13.664062 138.085938 L 16.886719 133.433594 C 17.039062 133.214844 17.28125 133.070312 17.546875 133.035156 L 30.1875 131.460938 C 30.667969 131.402344 31.121094 131.714844 31.230469 132.1875 Z M 31.230469 132.1875 " fill-opacity="1" fill-rule="nonzero"/></g></g></g><g clip-path="url(#3c06615285)"><g clip-path="url(#b7ae8a2d91)"><g clip-path="url(#532617db80)"><path fill="#38b6ff" d="M 65.816406 90.09375 L 65.914062 102.832031 C 65.917969 103.101562 65.804688 103.355469 65.609375 103.535156 L 61.417969 107.34375 C 61.140625 107.59375 60.742188 107.660156 60.402344 107.507812 C 60.058594 107.355469 59.835938 107.015625 59.832031 106.644531 L 59.742188 94.757812 L 47.917969 93.53125 C 47.546875 93.492188 47.230469 93.238281 47.113281 92.882812 C 46.996094 92.523438 47.097656 92.136719 47.371094 91.886719 L 51.5625 88.078125 C 51.761719 87.898438 52.027344 87.8125 52.292969 87.835938 L 64.964844 89.152344 C 65.445312 89.203125 65.816406 89.609375 65.816406 90.09375 Z M 65.816406 90.09375 " fill-opacity="1" fill-rule="nonzero"/></g></g></g><g clip-path="url(#92cb3e9ea4)"><g clip-path="url(#8e2c835a98)"><g clip-path="url(#0ce9aea198)"><path fill="#38b6ff" d="M 56.738281 98.34375 L 56.835938 111.082031 C 56.835938 111.351562 56.726562 111.605469 56.527344 111.785156 L 52.335938 115.59375 C 52.0625 115.84375 51.664062 115.90625 51.320312 115.757812 C 50.976562 115.605469 50.753906 115.265625 50.753906 114.894531 L 50.660156 103.007812 L 38.839844 101.78125 C 38.464844 101.742188 38.148438 101.488281 38.03125 101.132812 C 37.914062 100.773438 38.015625 100.382812 38.292969 100.132812 L 42.480469 96.328125 C 42.679688 96.148438 42.945312 96.0625 43.210938 96.085938 L 55.882812 97.402344 C 56.363281 97.453125 56.734375 97.859375 56.738281 98.34375 Z M 56.738281 98.34375 " fill-opacity="1" fill-rule="nonzero"/></g></g></g><g clip-path="url(#88a5a3f370)"><g clip-path="url(#b71215ac79)"><g clip-path="url(#9e271cb9d5)"><path fill="#38b6ff" d="M 100.488281 72.246094 L 97.054688 84.511719 C 96.980469 84.773438 96.800781 84.988281 96.5625 85.105469 L 91.480469 87.601562 C 91.148438 87.765625 90.746094 87.71875 90.457031 87.480469 C 90.171875 87.238281 90.050781 86.851562 90.152344 86.492188 L 93.355469 75.042969 L 82.335938 70.589844 C 81.988281 70.449219 81.753906 70.121094 81.742188 69.746094 C 81.726562 69.367188 81.933594 69.023438 82.265625 68.859375 L 87.347656 66.359375 C 87.589844 66.242188 87.867188 66.234375 88.117188 66.332031 L 99.925781 71.105469 C 100.375 71.285156 100.617188 71.78125 100.488281 72.246094 Z M 100.488281 72.246094 " fill-opacity="1" fill-rule="nonzero"/></g></g></g><g clip-path="url(#9d40aeb249)"><g clip-path="url(#4fb2adc5bc)"><g clip-path="url(#86abdabec0)"><path fill="#38b6ff" d="M 89.476562 77.65625 L 86.042969 89.925781 C 85.96875 90.183594 85.792969 90.398438 85.550781 90.515625 L 80.472656 93.015625 C 80.136719 93.179688 79.738281 93.128906 79.449219 92.890625 C 79.160156 92.648438 79.039062 92.261719 79.140625 91.902344 L 82.347656 80.457031 L 71.324219 76.003906 C 70.980469 75.863281 70.746094 75.53125 70.730469 75.15625 C 70.71875 74.78125 70.921875 74.433594 71.257812 74.269531 L 76.339844 71.773438 C 76.578125 71.65625 76.855469 71.648438 77.105469 71.742188 L 88.917969 76.515625 C 89.367188 76.699219 89.609375 77.191406 89.476562 77.65625 Z M 89.476562 77.65625 " fill-opacity="1" fill-rule="nonzero"/></g></g></g><g clip-path="url(#15d30a055a)"><path fill="#5ce1e6" d="M 146.195312 68.148438 L 137.703125 77.640625 C 137.519531 77.84375 137.265625 77.957031 137 77.957031 L 131.335938 77.957031 C 130.964844 77.957031 130.628906 77.738281 130.472656 77.394531 C 130.324219 77.050781 130.386719 76.652344 130.636719 76.375 L 138.558594 67.515625 L 130.636719 58.65625 C 130.386719 58.375 130.320312 57.976562 130.472656 57.632812 C 130.628906 57.289062 130.964844 57.070312 131.335938 57.070312 L 137 57.070312 C 137.265625 57.070312 137.519531 57.1875 137.703125 57.382812 L 146.195312 66.878906 C 146.515625 67.238281 146.515625 67.789062 146.195312 68.148438 Z M 146.195312 68.148438 " fill-opacity="1" fill-rule="nonzero"/></g><g clip-path="url(#8e6cbb74d7)"><path fill="#5ce1e6" d="M 133.925781 68.148438 L 125.433594 77.640625 C 125.25 77.84375 125 77.957031 124.730469 77.957031 L 119.070312 77.957031 C 118.695312 77.957031 118.359375 77.738281 118.207031 77.394531 C 118.054688 77.050781 118.117188 76.652344 118.367188 76.375 L 126.292969 67.515625 L 118.367188 58.65625 C 118.117188 58.375 118.054688 57.976562 118.207031 57.632812 C 118.359375 57.289062 118.695312 57.070312 119.070312 57.070312 L 124.730469 57.070312 C 125 57.070312 125.25 57.1875 125.433594 57.382812 L 133.925781 66.878906 C 134.25 67.238281 134.25 67.789062 133.925781 68.148438 Z M 133.925781 68.148438 " fill-opacity="1" fill-rule="nonzero"/></g><g clip-path="url(#a84c5214ef)"><g clip-path="url(#1eae982135)"><g clip-path="url(#e7fb3bbbdc)"><path fill="#38b6ff" d="M 182.71875 68.148438 L 173.941406 77.382812 C 173.753906 77.578125 173.5 77.6875 173.230469 77.675781 L 167.570312 77.507812 C 167.199219 77.496094 166.871094 77.265625 166.726562 76.917969 C 166.585938 76.570312 166.660156 76.171875 166.917969 75.902344 L 175.105469 67.285156 L 167.453125 58.191406 C 167.210938 57.90625 167.160156 57.503906 167.320312 57.167969 C 167.484375 56.828125 167.828125 56.617188 168.199219 56.628906 L 173.859375 56.800781 C 174.128906 56.808594 174.378906 56.929688 174.554688 57.132812 L 182.757812 66.878906 C 183.066406 67.25 183.050781 67.800781 182.71875 68.148438 Z M 182.71875 68.148438 " fill-opacity="1" fill-rule="nonzero"/></g></g></g><g clip-path="url(#d2552e6e6c)"><g clip-path="url(#df8e144f9d)"><g clip-path="url(#b3110cf2b1)"><path fill="#38b6ff" d="M 170.457031 67.78125 L 161.679688 77.015625 C 161.492188 77.210938 161.238281 77.316406 160.96875 77.308594 L 155.308594 77.136719 C 154.9375 77.125 154.605469 76.894531 154.464844 76.550781 C 154.324219 76.203125 154.398438 75.804688 154.65625 75.535156 L 162.84375 66.917969 L 155.1875 57.824219 C 154.949219 57.539062 154.894531 57.136719 155.058594 56.796875 C 155.222656 56.460938 155.566406 56.25 155.9375 56.261719 L 161.597656 56.429688 C 161.867188 56.4375 162.113281 56.5625 162.289062 56.765625 L 170.492188 66.511719 C 170.804688 66.882812 170.789062 67.429688 170.457031 67.78125 Z M 170.457031 67.78125 " fill-opacity="1" fill-rule="nonzero"/></g></g></g><g clip-path="url(#6276200601)"><g clip-path="url(#5ccaeb5ebf)"><g clip-path="url(#e72aa1cd0f)"><path fill="#5ce1e6" d="M 294.371094 68.148438 L 285.59375 77.382812 C 285.40625 77.578125 285.152344 77.6875 284.882812 77.675781 L 279.222656 77.507812 C 278.851562 77.496094 278.523438 77.265625 278.378906 76.917969 C 278.238281 76.570312 278.3125 76.171875 278.570312 75.902344 L 286.757812 67.285156 L 279.105469 58.191406 C 278.863281 57.90625 278.8125 57.503906 278.972656 57.167969 C 279.136719 56.828125 279.480469 56.617188 279.851562 56.628906 L 285.511719 56.800781 C 285.78125 56.808594 286.03125 56.929688 286.207031 57.132812 L 294.410156 66.878906 C 294.71875 67.25 294.703125 67.800781 294.371094 68.148438 Z M 294.371094 68.148438 " fill-opacity="1" fill-rule="nonzero"/></g></g></g><g clip-path="url(#cbc947556e)"><g clip-path="url(#ec0133ec80)"><g clip-path="url(#ad1b7bd625)"><path fill="#5ce1e6" d="M 282.109375 67.78125 L 273.332031 77.015625 C 273.144531 77.210938 272.890625 77.316406 272.621094 77.308594 L 266.960938 77.136719 C 266.589844 77.125 266.257812 76.894531 266.117188 76.550781 C 265.976562 76.203125 266.050781 75.804688 266.308594 75.535156 L 274.496094 66.917969 L 266.839844 57.824219 C 266.601562 57.539062 266.546875 57.136719 266.710938 56.796875 C 266.875 56.460938 267.21875 56.25 267.589844 56.261719 L 273.25 56.429688 C 273.519531 56.4375 273.765625 56.5625 273.941406 56.765625 L 282.144531 66.511719 C 282.457031 66.882812 282.441406 67.429688 282.109375 67.78125 Z M 282.109375 67.78125 " fill-opacity="1" fill-rule="nonzero"/></g></g></g><g clip-path="url(#347b2eb38f)"><g clip-path="url(#9945c9dc1f)"><g clip-path="url(#ab70a36e38)"><path fill="#38b6ff" d="M 257.246094 68.148438 L 248.46875 77.382812 C 248.28125 77.578125 248.027344 77.6875 247.757812 77.675781 L 242.097656 77.507812 C 241.726562 77.496094 241.398438 77.265625 241.253906 76.917969 C 241.113281 76.570312 241.1875 76.171875 241.445312 75.902344 L 249.632812 67.285156 L 241.980469 58.191406 C 241.738281 57.90625 241.6875 57.503906 241.847656 57.167969 C 242.011719 56.828125 242.355469 56.617188 242.726562 56.628906 L 248.386719 56.800781 C 248.65625 56.808594 248.90625 56.929688 249.082031 57.132812 L 257.285156 66.878906 C 257.59375 67.25 257.578125 67.800781 257.246094 68.148438 Z M 257.246094 68.148438 " fill-opacity="1" fill-rule="nonzero"/></g></g></g><g clip-path="url(#2fb40cf6aa)"><g clip-path="url(#da3c26ba7c)"><g clip-path="url(#d61dd056f8)"><path fill="#38b6ff" d="M 244.984375 67.78125 L 236.207031 77.015625 C 236.019531 77.210938 235.765625 77.316406 235.496094 77.308594 L 229.835938 77.136719 C 229.464844 77.125 229.132812 76.894531 228.992188 76.550781 C 228.851562 76.203125 228.925781 75.804688 229.183594 75.535156 L 237.371094 66.917969 L 229.714844 57.824219 C 229.476562 57.539062 229.421875 57.136719 229.585938 56.796875 C 229.75 56.460938 230.09375 56.25 230.464844 56.261719 L 236.125 56.429688 C 236.394531 56.4375 236.640625 56.5625 236.816406 56.765625 L 245.019531 66.511719 C 245.332031 66.882812 245.316406 67.429688 244.984375 67.78125 Z M 244.984375 67.78125 " fill-opacity="1" fill-rule="nonzero"/></g></g></g><g clip-path="url(#e538ae8fb7)"><g clip-path="url(#8227687f45)"><g clip-path="url(#796dcf21bf)"><path fill="#38b6ff" d="M 220.730469 68.148438 L 211.953125 77.382812 C 211.765625 77.578125 211.511719 77.6875 211.242188 77.675781 L 205.582031 77.507812 C 205.210938 77.496094 204.878906 77.265625 204.738281 76.917969 C 204.597656 76.570312 204.671875 76.171875 204.929688 75.902344 L 213.117188 67.285156 L 205.460938 58.191406 C 205.222656 57.90625 205.167969 57.503906 205.332031 57.167969 C 205.496094 56.828125 205.839844 56.617188 206.210938 56.628906 L 211.871094 56.800781 C 212.140625 56.808594 212.386719 56.929688 212.5625 57.132812 L 220.765625 66.878906 C 221.078125 67.25 221.0625 67.800781 220.730469 68.148438 Z M 220.730469 68.148438 " fill-opacity="1" fill-rule="nonzero"/></g></g></g><g clip-path="url(#8e2357278e)"><g clip-path="url(#483b8d1405)"><g clip-path="url(#20b61b0098)"><path fill="#38b6ff" d="M 208.464844 67.78125 L 199.691406 77.015625 C 199.503906 77.210938 199.246094 77.316406 198.980469 77.308594 L 193.320312 77.136719 C 192.949219 77.125 192.617188 76.894531 192.476562 76.550781 C 192.335938 76.203125 192.410156 75.804688 192.664062 75.535156 L 200.855469 66.917969 L 193.199219 57.824219 C 192.957031 57.539062 192.90625 57.136719 193.070312 56.796875 C 193.234375 56.460938 193.578125 56.25 193.949219 56.261719 L 199.609375 56.429688 C 199.875 56.4375 200.125 56.5625 200.300781 56.765625 L 208.503906 66.511719 C 208.816406 66.882812 208.800781 67.429688 208.464844 67.78125 Z M 208.464844 67.78125 " fill-opacity="1" fill-rule="nonzero"/></g></g></g></svg>