<svg xmlns="http://www.w3.org/2000/svg" width="450" viewBox="0 0 337.5 375" height="500" version="1.0"><defs><clipPath id="prefix__a"><path d="M0 52.777h303.75V323H0zm0 0"/></clipPath><clipPath id="prefix__b"><path d="M7.918 142.824C3.137 156.668 0 172.406 0 187.852c0 15.445 2.688 30.304 7.469 44.003.152.29.152.583.3.875 19.122 51.434 69.622 89.32 127.887 90.047H303.75v-270H135.781c-58.687.73-109.187 38.032-127.863 90.047"/></clipPath><clipPath id="prefix__c"><path d="M0 52.777h303.75v270H0zm0 0"/></clipPath><clipPath id="prefix__d"><path d="M7.918 142.824C3.137 156.668 0 172.406 0 187.852c0 15.445 2.688 30.304 7.469 44.003.152.29.152.583.3.875 19.122 51.434 69.622 89.32 127.887 90.047H303.75v-270H135.781c-58.687.73-109.187 38.032-127.863 90.047"/></clipPath><clipPath id="prefix__e"><path d="M33 78h217v217H33zm0 0"/></clipPath><clipPath id="prefix__f"><path d="M-6.102 224.332L103.582 37.918l186.414 109.684-109.683 186.414zm0 0"/></clipPath><clipPath id="prefix__g"><path d="M48.668 131.25c-30.25 51.41-13.094 117.605 38.312 147.852 51.41 30.246 117.606 13.093 147.852-38.317 30.25-51.406 13.094-117.601-38.312-147.851C145.11 62.688 78.914 79.84 48.668 131.25"/></clipPath><clipPath id="prefix__h"><path d="M33 78h217v217H33zm0 0"/></clipPath><clipPath id="prefix__i"><path d="M-6.102 224.332L103.434 38.168l186.168 109.535-109.536 186.168zm0 0"/></clipPath><clipPath id="prefix__j"><path d="M-6.102 224.332L104.984 35.535l188.797 111.086-111.086 188.797zm0 0"/></clipPath><clipPath id="prefix__k"><path d="M48.668 131.25c-30.25 51.41-13.094 117.605 38.312 147.852 51.41 30.246 117.606 13.093 147.852-38.317 30.25-51.406 13.094-117.601-38.312-147.851C145.11 62.688 78.914 79.84 48.668 131.25"/></clipPath><clipPath id="prefix__l"><path d="M78 146h38v32H78zm0 0"/></clipPath><clipPath id="prefix__m"><path d="M78.66 161.234l9.149-15.691 27.578 16.082-9.149 15.691zm0 0"/></clipPath><clipPath id="prefix__n"><path d="M78.66 161.234l8.95-15.347 27.406 15.98-8.95 15.348zm0 0"/></clipPath><clipPath id="prefix__o"><path d="M163 146h37v32h-37zm0 0"/></clipPath><clipPath id="prefix__p"><path d="M171.836 177.8l-8.84-15.866 27.89-15.536 8.84 15.868zm0 0"/></clipPath><clipPath id="prefix__q"><path d="M171.836 177.8l-8.645-15.519 27.72-15.441 8.644 15.52zm0 0"/></clipPath><clipPath id="prefix__r"><path d="M96 161h86v75H96zm0 0"/></clipPath><clipPath id="prefix__s"><path d="M180.71 235.59l-85.194-.762.66-73.984 85.195.761zm0 0"/></clipPath><clipPath id="prefix__t"><path d="M138.441 235.21l-41.617-73.644 84.543.754-42.926 72.89"/></clipPath><clipPath id="prefix__u"><path d="M129 211h19v33h-19zm0 0"/></clipPath><clipPath id="prefix__v"><path d="M147.258 243.188l-18.164-.165.285-31.921 18.164.16zm0 0"/></clipPath><clipPath id="prefix__w"><path d="M147.258 243.188l-17.766-.16.281-31.727 17.766.16zm0 0"/></clipPath><clipPath id="prefix__x"><path d="M110 235h56v57h-56zm0 0"/></clipPath><clipPath id="prefix__y"><path d="M166.871 236.754l-1.777 55.594-55.594-1.778 1.777-55.593zm0 0"/></clipPath><clipPath id="prefix__z"><path d="M165.984 264.55c.493-15.35-11.554-28.195-26.91-28.687-15.351-.488-28.191 11.559-28.683 26.91-.493 15.352 11.554 28.196 26.906 28.684 15.351.492 28.195-11.555 28.687-26.906"/></clipPath><clipPath id="prefix__A"><path d="M110 235h56v57h-56zm0 0"/></clipPath><clipPath id="prefix__B"><path d="M166.871 236.754l-1.773 55.473-55.47-1.774 1.774-55.473zm0 0"/></clipPath><clipPath id="prefix__C"><path d="M166.871 236.754l-1.773 55.473-55.47-1.774 1.774-55.473zm0 0"/></clipPath><clipPath id="prefix__D"><path d="M165.984 264.488c.493-15.316-11.527-28.133-26.847-28.62-15.317-.493-28.133 11.53-28.621 26.847-.493 15.32 11.53 28.133 26.847 28.625 15.317.488 28.133-11.531 28.621-26.852"/></clipPath><clipPath id="prefix__E"><path d="M179 119h57v57h-57zm0 0"/></clipPath><clipPath id="prefix__F"><path d="M245.367 158.105l-48.426 27.364-27.363-48.43 48.43-27.36zm0 0"/></clipPath><clipPath id="prefix__G"><path d="M221.152 171.79c13.375-7.56 18.09-24.524 10.536-37.895-7.555-13.375-24.524-18.09-37.895-10.536-13.371 7.555-18.09 24.524-10.535 37.895 7.558 13.371 24.523 18.09 37.894 10.535"/></clipPath><clipPath id="prefix__H"><path d="M179 119h57v57h-57zm0 0"/></clipPath><clipPath id="prefix__I"><path d="M245.367 158.105l-48.32 27.301-27.3-48.32 48.32-27.3zm0 0"/></clipPath><clipPath id="prefix__J"><path d="M245.367 158.105l-48.32 27.301-27.3-48.32 48.32-27.3zm0 0"/></clipPath><clipPath id="prefix__K"><path d="M221.207 171.758c13.344-7.54 18.05-24.469 10.512-37.813-7.54-13.343-24.469-18.047-37.813-10.507-13.344 7.539-18.05 24.464-10.511 37.808 7.539 13.344 24.468 18.05 37.812 10.512"/></clipPath><clipPath id="prefix__L"><path d="M46 120h57v57H46zm0 0"/></clipPath><clipPath id="prefix__M"><path d="M112.73 138.426l-28.207 47.937-47.937-28.207 28.207-47.937zm0 0"/></clipPath><clipPath id="prefix__N"><path d="M98.629 162.395c7.789-13.239 3.371-30.286-9.867-38.075-13.239-7.789-30.285-3.37-38.075 9.868-7.789 13.238-3.37 30.285 9.868 38.074 13.238 7.789 30.285 3.37 38.074-9.867"/></clipPath><clipPath id="prefix__O"><path d="M46 120h57v57H46zm0 0"/></clipPath><clipPath id="prefix__P"><path d="M112.73 138.426l-28.144 47.832-47.832-28.145 28.144-47.832zm0 0"/></clipPath><clipPath id="prefix__Q"><path d="M112.73 138.426l-28.144 47.832-47.832-28.145 28.144-47.832zm0 0"/></clipPath><clipPath id="prefix__R"><path d="M98.66 162.344c7.77-13.211 3.363-30.219-9.847-37.992-13.208-7.77-30.215-3.364-37.989 9.847-7.773 13.207-3.363 30.215 9.844 37.988 13.21 7.774 30.219 3.364 37.992-9.843"/></clipPath><clipPath id="prefix__S"><path d="M131 256h15v15h-15zm0 0"/></clipPath><clipPath id="prefix__T"><path d="M145.105 270.7l-13.957-.126.125-13.957 13.957.125zm0 0"/></clipPath><clipPath id="prefix__U"><path d="M138.129 270.637a6.975 6.975 0 007.039-6.918 6.976 6.976 0 00-6.914-7.04 6.98 6.98 0 10-.125 13.958"/></clipPath><clipPath id="prefix__V"><path d="M200 140h15v15h-15zm0 0"/></clipPath><clipPath id="prefix__W"><path d="M204.836 157.082l-6.867-12.152 12.152-6.868 6.867 12.153zm0 0"/></clipPath><clipPath id="prefix__X"><path d="M201.402 151.004a6.976 6.976 0 009.512 2.644 6.974 6.974 0 002.64-9.507 6.972 6.972 0 00-9.507-2.645 6.979 6.979 0 00-2.645 9.508"/></clipPath><clipPath id="prefix__Y"><path d="M67 142h15v15H67zm0 0"/></clipPath><clipPath id="prefix__Z"><path d="M81.07 156.238l-13.96-.125.124-13.96 13.961.124zm0 0"/></clipPath><clipPath id="prefix__aa"><path d="M74.09 156.176a6.98 6.98 0 10.126-13.962 6.98 6.98 0 00-.126 13.962"/></clipPath><clipPath id="prefix__ab"><path d="M68 197h34v37H68zm0 0"/></clipPath><clipPath id="prefix__ac"><path d="M74.926 194.129l26.797 38.918-11.121 7.656-26.793-38.918zm0 0"/></clipPath><clipPath id="prefix__ad"><path d="M101.828 233.2L75.035 194.28l-11.12 7.656 26.792 38.918zm0 0"/></clipPath><clipPath id="prefix__ae"><path d="M101.828 233.2L75.035 194.28l-11.12 7.656 26.792 38.918zm0 0"/></clipPath><clipPath id="prefix__af"><path d="M92 230h1v1h-1zm0 0"/></clipPath><clipPath id="prefix__ag"><path d="M74.926 194.129l26.797 38.918-11.121 7.656-26.793-38.918zm0 0"/></clipPath><clipPath id="prefix__ah"><path d="M101.828 233.2L75.035 194.28l-11.12 7.656 26.792 38.918zm0 0"/></clipPath><clipPath id="prefix__ai"><path d="M101.828 233.2L75.035 194.28l-11.12 7.656 26.792 38.918zm0 0"/></clipPath><clipPath id="prefix__aj"><path d="M115 112h48v14h-48zm0 0"/></clipPath><clipPath id="prefix__ak"><path d="M162.809 126.082l-47.246-.492.14-13.496 47.246.488zm0 0"/></clipPath><clipPath id="prefix__al"><path d="M115.375 125.59l47.246.492.14-13.5-47.245-.492zm0 0"/></clipPath><clipPath id="prefix__am"><path d="M115.375 125.59l47.246.492.14-13.5-47.245-.492zm0 0"/></clipPath><clipPath id="prefix__an"><path d="M122 119h1v1h-1zm0 0"/></clipPath><clipPath id="prefix__ao"><path d="M162.809 126.082l-47.246-.492.14-13.496 47.246.488zm0 0"/></clipPath><clipPath id="prefix__ap"><path d="M115.375 125.59l47.246.492.14-13.5-47.245-.492zm0 0"/></clipPath><clipPath id="prefix__aq"><path d="M115.375 125.59l47.246.492.14-13.5-47.245-.492zm0 0"/></clipPath><clipPath id="prefix__ar"><path d="M182 196h27v41h-27zm0 0"/></clipPath><clipPath id="prefix__as"><path d="M178.926 234.078l27.332-38.543 11.012 7.809-27.333 38.543zm0 0"/></clipPath><clipPath id="prefix__at"><path d="M206.367 195.383l-27.332 38.539 11.012 7.812 27.332-38.543zm0 0"/></clipPath><clipPath id="prefix__au"><path d="M206.367 195.383l-27.332 38.539 11.012 7.812 27.332-38.543zm0 0"/></clipPath><clipPath id="prefix__av"><path d="M207 204h1v1h-1zm0 0"/></clipPath><clipPath id="prefix__aw"><path d="M178.926 234.078l27.332-38.543 11.012 7.809-27.333 38.543zm0 0"/></clipPath><clipPath id="prefix__ax"><path d="M206.367 195.383l-27.332 38.539 11.012 7.812 27.332-38.543zm0 0"/></clipPath><clipPath id="prefix__ay"><path d="M206.367 195.383l-27.332 38.539 11.012 7.812 27.332-38.543zm0 0"/></clipPath><clipPath id="prefix__az"><path d="M266.625 297.129H283v21h-16.375zm0 0"/></clipPath><clipPath id="prefix__aA"><path d="M278 297.129h16.785v21H278zm0 0"/></clipPath><clipPath id="prefix__aB"><path d="M229.5 297.129H246v21h-16.5zm0 0"/></clipPath><clipPath id="prefix__aC"><path d="M241 297.129h16.66v21H241zm0 0"/></clipPath><clipPath id="prefix__aD"><path d="M192.375 297.129H209v21h-16.625zm0 0"/></clipPath><clipPath id="prefix__aE"><path d="M204 297.129h16.535v21H204zm0 0"/></clipPath><clipPath id="prefix__aF"><path d="M155.25 297.129H172v21h-16.75zm0 0"/></clipPath><clipPath id="prefix__aG"><path d="M167 297.129h16.41v21H167zm0 0"/></clipPath><clipPath id="prefix__aH"><path d="M117 297h18v22h-18zm0 0"/></clipPath><clipPath id="prefix__aI"><path d="M117.945 297.379l28.496-.504.371 20.996-28.496.504zm0 0"/></clipPath><clipPath id="prefix__aJ"><path d="M146.102 296.879l-28.497.504.372 20.996 28.496-.504zm0 0"/></clipPath><clipPath id="prefix__aK"><path d="M130 296h17v22h-17zm0 0"/></clipPath><clipPath id="prefix__aL"><path d="M117.945 297.379l28.496-.504.371 20.996-28.496.504zm0 0"/></clipPath><clipPath id="prefix__aM"><path d="M146.102 296.879l-28.497.504.372 20.996 28.496-.504zm0 0"/></clipPath><clipPath id="prefix__aN"><path d="M75 282h20v22H75zm0 0"/></clipPath><clipPath id="prefix__aO"><path d="M81.105 277.734l23.989 15.387-11.336 17.676-23.992-15.387zm0 0"/></clipPath><clipPath id="prefix__aP"><path d="M104.809 292.938L80.816 277.55 69.48 295.227l23.989 15.386zm0 0"/></clipPath><clipPath id="prefix__aQ"><path d="M85 289h20v22H85zm0 0"/></clipPath><clipPath id="prefix__aR"><path d="M81.105 277.734l23.989 15.387-11.336 17.676-23.992-15.387zm0 0"/></clipPath><clipPath id="prefix__aS"><path d="M104.809 292.938L80.816 277.55 69.48 295.227l23.989 15.386zm0 0"/></clipPath><clipPath id="prefix__aT"><path d="M39 261h21v21H39zm0 0"/></clipPath><clipPath id="prefix__aU"><path d="M48.059 255.742l20.527 19.77-14.566 15.125-20.528-19.77zm0 0"/></clipPath><clipPath id="prefix__aV"><path d="M68.34 275.277l-20.528-19.773-14.566 15.129 20.527 19.77zm0 0"/></clipPath><clipPath id="prefix__aW"><path d="M48 270h20v20H48zm0 0"/></clipPath><clipPath id="prefix__aX"><path d="M48.059 255.742l20.527 19.77-14.566 15.125-20.528-19.77zm0 0"/></clipPath><clipPath id="prefix__aY"><path d="M68.34 275.277l-20.528-19.773-14.566 15.129 20.527 19.77zm0 0"/></clipPath><clipPath id="prefix__aZ"><path d="M17 226h22v19H17zm0 0"/></clipPath><clipPath id="prefix__ba"><path d="M31.219 221.023l14.32 24.641-18.152 10.555-14.325-24.64zm0 0"/></clipPath><clipPath id="prefix__bb"><path d="M45.371 245.371l-14.324-24.64-18.156 10.554 14.324 24.64zm0 0"/></clipPath><clipPath id="prefix__bc"><path d="M23 236h22v20H23zm0 0"/></clipPath><clipPath id="prefix__bd"><path d="M31.219 221.023l14.32 24.641-18.152 10.555-14.325-24.64zm0 0"/></clipPath><clipPath id="prefix__be"><path d="M45.371 245.371l-14.324-24.64-18.156 10.554 14.324 24.64zm0 0"/></clipPath><clipPath id="prefix__bf"><path d="M8.879 171.938h21V188h-21zm0 0"/></clipPath><clipPath id="prefix__bg"><path d="M8.879 184h21v16.098h-21zm0 0"/></clipPath><clipPath id="prefix__bh"><path d="M20 121h22v20H20zm0 0"/></clipPath><clipPath id="prefix__bi"><path d="M46.379 127.648l-16.234 23.426-17.262-11.965 16.234-23.422zm0 0"/></clipPath><clipPath id="prefix__bj"><path d="M30.34 150.793l16.234-23.426-17.261-11.96-16.235 23.425zm0 0"/></clipPath><clipPath id="prefix__bk"><path d="M13 131h22v20H13zm0 0"/></clipPath><clipPath id="prefix__bl"><path d="M46.379 127.648l-16.234 23.426-17.262-11.965 16.234-23.422zm0 0"/></clipPath><clipPath id="prefix__bm"><path d="M30.34 150.793l16.234-23.426-17.261-11.96-16.235 23.425zm0 0"/></clipPath><clipPath id="prefix__bn"><path d="M47 87h19v21H47zm0 0"/></clipPath><clipPath id="prefix__bo"><path d="M72.52 97.336L51.426 116.5l-14.121-15.543 21.093-19.164zm0 0"/></clipPath><clipPath id="prefix__bp"><path d="M51.676 116.27L72.77 97.105 58.648 81.562l-21.093 19.165zm0 0"/></clipPath><clipPath id="prefix__bq"><path d="M37 96h20v20H37zm0 0"/></clipPath><clipPath id="prefix__br"><path d="M72.52 97.336L51.426 116.5l-14.121-15.543 21.093-19.164zm0 0"/></clipPath><clipPath id="prefix__bs"><path d="M51.676 116.27L72.77 97.105 58.648 81.562l-21.093 19.165zm0 0"/></clipPath><clipPath id="prefix__bt"><path d="M81 66h20v22H81zm0 0"/></clipPath><clipPath id="prefix__bu"><path d="M104.922 81.059L79.344 93.633l-9.266-18.848 25.578-12.57zm0 0"/></clipPath><clipPath id="prefix__bv"><path d="M79.648 93.48l25.579-12.57-9.266-18.847-25.578 12.574zm0 0"/></clipPath><clipPath id="prefix__bw"><path d="M70 71h20v23H70zm0 0"/></clipPath><clipPath id="prefix__bx"><path d="M104.922 81.059L79.344 93.633l-9.266-18.848 25.578-12.57zm0 0"/></clipPath><clipPath id="prefix__by"><path d="M79.648 93.48l25.579-12.57-9.266-18.847-25.578 12.574zm0 0"/></clipPath><clipPath id="prefix__bz"><path d="M130 57.016h16.285V78H130zm0 0"/></clipPath><clipPath id="prefix__bA"><path d="M118.125 57.016H135V78h-16.875zm0 0"/></clipPath><clipPath id="prefix__bB"><path d="M166 56h17v22h-17zm0 0"/></clipPath><clipPath id="prefix__bC"><path d="M182.512 78.016l-28.489-.86.633-20.992 28.489.86zm0 0"/></clipPath><clipPath id="prefix__bD"><path d="M154.363 77.164l28.489.86.632-20.989-28.488-.86zm0 0"/></clipPath><clipPath id="prefix__bE"><path d="M154 56h17v22h-17zm0 0"/></clipPath><clipPath id="prefix__bF"><path d="M182.512 78.016l-28.489-.86.633-20.992 28.489.86zm0 0"/></clipPath><clipPath id="prefix__bG"><path d="M154.363 77.164l28.489.86.632-20.989-28.488-.86zm0 0"/></clipPath><clipPath id="prefix__bH"><path d="M278 56h17v22h-17zm0 0"/></clipPath><clipPath id="prefix__bI"><path d="M294.164 78.016l-28.488-.86.633-20.992 28.488.86zm0 0"/></clipPath><clipPath id="prefix__bJ"><path d="M266.016 77.164l28.488.86.633-20.989-28.489-.86zm0 0"/></clipPath><clipPath id="prefix__bK"><path d="M266 56h17v22h-17zm0 0"/></clipPath><clipPath id="prefix__bL"><path d="M294.164 78.016l-28.488-.86.633-20.992 28.488.86zm0 0"/></clipPath><clipPath id="prefix__bM"><path d="M266.016 77.164l28.488.86.633-20.989-28.489-.86zm0 0"/></clipPath><clipPath id="prefix__bN"><path d="M241 56h17v22h-17zm0 0"/></clipPath><clipPath id="prefix__bO"><path d="M257.04 78.016l-28.49-.86.634-20.992 28.488.86zm0 0"/></clipPath><clipPath id="prefix__bP"><path d="M228.89 77.164l28.489.86.633-20.989-28.489-.86zm0 0"/></clipPath><clipPath id="prefix__bQ"><path d="M228 56h18v22h-18zm0 0"/></clipPath><clipPath id="prefix__bR"><path d="M257.04 78.016l-28.49-.86.634-20.992 28.488.86zm0 0"/></clipPath><clipPath id="prefix__bS"><path d="M228.89 77.164l28.489.86.633-20.989-28.489-.86zm0 0"/></clipPath><clipPath id="prefix__bT"><path d="M204 56h17v22h-17zm0 0"/></clipPath><clipPath id="prefix__bU"><path d="M220.523 78.016l-28.488-.86.633-20.992 28.488.86zm0 0"/></clipPath><clipPath id="prefix__bV"><path d="M192.375 77.164l28.488.86.633-20.989-28.488-.86zm0 0"/></clipPath><clipPath id="prefix__bW"><path d="M192 56h17v22h-17zm0 0"/></clipPath><clipPath id="prefix__bX"><path d="M220.523 78.016l-28.488-.86.633-20.992 28.488.86zm0 0"/></clipPath><clipPath id="prefix__bY"><path d="M192.375 77.164l28.488.86.633-20.989-28.488-.86zm0 0"/></clipPath></defs><g clip-path="url(#prefix__a)"><g clip-path="url(#prefix__b)"><path fill="#919191" d="M303.75 52.777V323.04H-.133V52.777zm0 0"/></g></g><g clip-path="url(#prefix__c)"><g clip-path="url(#prefix__d)"><path fill="none" d="M7.918 142.824C3.137 156.668 0 172.406 0 187.852c0 15.445 2.687 30.304 7.469 44.003.152.29.152.583.3.875 19.122 51.434 69.622 89.32 127.887 90.047H303.75v-270H135.781c-58.687.73-109.187 38.032-127.863 90.047" stroke="#000" stroke-width="3"/></g></g><g clip-path="url(#prefix__e)"><g clip-path="url(#prefix__f)"><g clip-path="url(#prefix__g)"><path fill="#707070" d="M-6.102 224.332L103.301 38.395l185.937 109.402-109.402 185.937zm0 0"/></g></g></g><g clip-path="url(#prefix__h)"><g clip-path="url(#prefix__i)"><g clip-path="url(#prefix__j)"><g clip-path="url(#prefix__k)"><path fill="none" d="M48.668 131.25c-30.25 51.41-13.094 117.605 38.312 147.851 51.41 30.247 117.606 13.094 147.852-38.316 30.25-51.406 13.094-117.601-38.313-147.851C145.11 62.688 78.914 79.84 48.668 131.25" stroke="#000" stroke-width="6"/></g></g></g></g><g clip-path="url(#prefix__l)"><g clip-path="url(#prefix__m)"><g clip-path="url(#prefix__n)"><path fill="#ffde59" d="M78.66 161.234l8.871-15.218 27.578 16.086-8.87 15.214zm0 0"/></g></g></g><g clip-path="url(#prefix__o)"><g clip-path="url(#prefix__p)"><g clip-path="url(#prefix__q)"><path fill="#ffde59" d="M171.836 177.8l-8.57-15.386 27.89-15.535 8.57 15.387zm0 0"/></g></g></g><g clip-path="url(#prefix__r)"><g clip-path="url(#prefix__s)"><g clip-path="url(#prefix__t)"><path fill="#ffde59" d="M180.71 235.59l-84.448-.754.656-73.238 84.45.754zm0 0"/></g></g></g><g clip-path="url(#prefix__u)"><g clip-path="url(#prefix__v)"><g clip-path="url(#prefix__w)"><path fill="#ffde59" d="M147.258 243.188l-17.613-.16.285-31.923 17.613.157zm0 0"/></g></g></g><g clip-path="url(#prefix__x)"><g clip-path="url(#prefix__y)"><g clip-path="url(#prefix__z)"><path fill="#ffde59" d="M166.871 236.754l-1.777 55.594-55.594-1.778 1.777-55.593zm0 0"/></g></g></g><g clip-path="url(#prefix__A)"><g clip-path="url(#prefix__B)"><g clip-path="url(#prefix__C)"><g clip-path="url(#prefix__D)"><path d="M162.992 264.395c.18-5.551-1.336-10.586-4.539-15.102l4.883-3.465c3.98 5.613 5.863 11.863 5.64 18.758zm-6.199-17.196c-3.684-4.16-8.234-6.785-13.648-7.867l1.175-5.871c6.73 1.348 12.383 4.601 16.953 9.77zm-16.29-8.25a22.727 22.727 0 00-1.46-.09c-5.027-.16-9.66 1.086-13.902 3.739l-3.172-5.075c5.27-3.3 11.027-4.847 17.265-4.648.606.02 1.207.055 1.809.11zm-17.55 5.188c-4.371 3.437-7.254 7.832-8.652 13.175l-5.793-1.515c1.738-6.645 5.32-12.098 10.742-16.367zm-9.187 15.777c-.141.957-.227 1.922-.258 2.899-.145 4.507.86 8.726 3.012 12.656l-5.254 2.879c-2.676-4.891-3.922-10.13-3.743-15.727.04-1.207.145-2.406.325-3.594zm4.16 17.828c3.176 4.559 7.39 7.692 12.644 9.403l-1.855 5.69c-6.524-2.124-11.758-6.015-15.703-11.67zm15.226 10.09c1.414.297 2.848.469 4.305.516 4 .125 7.793-.66 11.379-2.36l2.562 5.41c-4.457 2.114-9.168 3.09-14.132 2.934a31.254 31.254 0 01-5.336-.637zm18.028-3.113c4.734-2.906 8.11-6.934 10.129-12.082l5.574 2.187c-2.508 6.39-6.696 11.39-12.57 14.996zm10.965-14.621a24.75 24.75 0 00.847-5.703l5.985.19a30.598 30.598 0 01-1.051 7.08zm0 0"/></g></g></g></g><g clip-path="url(#prefix__E)"><g clip-path="url(#prefix__F)"><g clip-path="url(#prefix__G)"><path fill="#ffde59" d="M245.367 158.105l-48.426 27.364-27.363-48.43 48.43-27.36zm0 0"/></g></g></g><g clip-path="url(#prefix__H)"><g clip-path="url(#prefix__I)"><g clip-path="url(#prefix__J)"><g clip-path="url(#prefix__K)"><path d="M219.734 169.152c4.836-2.734 8.352-6.64 10.543-11.726l5.5 2.375c-2.726 6.316-7.093 11.172-13.097 14.562zm11.473-14.234c1.64-5.309 1.52-10.559-.367-15.75l5.625-2.043c2.347 6.453 2.5 12.973.46 19.563zm-1.414-18.203a24.165 24.165 0 00-.684-1.297c-2.472-4.375-5.941-7.688-10.414-9.934l2.688-5.351c5.558 2.793 9.87 6.906 12.941 12.34.297.527.578 1.062.844 1.605zm-13.55-12.3c-5.208-1.95-10.458-2.134-15.75-.552l-1.716-5.734c6.578-1.969 13.098-1.742 19.563.676zm-18.25.347c-.895.375-1.766.8-2.614 1.281-3.926 2.219-7.012 5.27-9.254 9.148l-5.184-2.992c2.786-4.824 6.618-8.613 11.493-11.37a30.646 30.646 0 013.238-1.587zm-13.075 12.812c-2.246 5.082-2.734 10.313-1.469 15.688l-5.828 1.375c-1.574-6.68-.965-13.172 1.82-19.48zm-.715 18.254a24.912 24.912 0 001.8 3.945c1.966 3.485 4.61 6.317 7.923 8.497l-3.29 5.003c-4.12-2.714-7.406-6.23-9.847-10.554a30.964 30.964 0 01-2.23-4.89zm12.027 13.785c4.942 2.535 10.137 3.328 15.583 2.38l1.03 5.898c-6.765 1.18-13.214.195-19.343-2.95zm18.188 1.778a24.762 24.762 0 005.316-2.239l2.946 5.211a30.673 30.673 0 01-6.594 2.778zm0 0"/></g></g></g></g><g clip-path="url(#prefix__L)"><g clip-path="url(#prefix__M)"><g clip-path="url(#prefix__N)"><path fill="#ffde59" d="M112.73 138.426l-28.207 47.937-47.937-28.207 28.207-47.937zm0 0"/></g></g></g><g clip-path="url(#prefix__O)"><g clip-path="url(#prefix__P)"><g clip-path="url(#prefix__Q)"><g clip-path="url(#prefix__R)"><path d="M96.078 160.824c2.817-4.785 3.902-9.93 3.254-15.43l5.945-.699c.805 6.832-.539 13.223-4.039 19.164zm2.8-18.062c-1.237-5.418-3.976-9.903-8.206-13.45l3.844-4.59c5.261 4.41 8.66 9.977 10.199 16.704zM88.536 127.71c-.402-.27-.816-.531-1.238-.777-4.332-2.551-8.996-3.676-13.992-3.383l-.352-5.977c6.207-.367 12 1.035 17.379 4.2.523.304 1.035.628 1.535.964zm-17.89-3.856c-5.485.922-10.118 3.395-13.907 7.415l-4.36-4.106c4.712-4.996 10.466-8.066 17.274-9.215zm-15.622 9.442a24.582 24.582 0 00-1.617 2.418c-2.289 3.887-3.43 8.074-3.426 12.555l-5.988.007c-.004-5.574 1.414-10.77 4.254-15.597.61-1.04 1.277-2.04 2.004-2.996zm-4.894 17.64c.601 5.524 2.797 10.293 6.586 14.313l-4.356 4.11c-4.707-4.993-7.433-10.919-8.183-17.774zm8.527 16.157a24.578 24.578 0 003.532 2.511 24.374 24.374 0 0011.113 3.387l-.34 5.977c-4.93-.285-9.531-1.684-13.809-4.203a30.483 30.483 0 01-4.382-3.118zM75.97 173c5.547-.281 10.441-2.2 14.68-5.75l3.843 4.59c-5.262 4.41-11.336 6.789-18.219 7.14zm16.633-7.574a24.761 24.761 0 003.476-4.602l5.16 3.035a30.697 30.697 0 01-4.316 5.707zm0 0"/></g></g></g></g><g clip-path="url(#prefix__S)"><g clip-path="url(#prefix__T)"><g clip-path="url(#prefix__U)"><path fill="#707070" d="M145.105 270.7l-13.957-.126.125-13.957 13.957.125zm0 0"/></g></g></g><g clip-path="url(#prefix__V)"><g clip-path="url(#prefix__W)"><g clip-path="url(#prefix__X)"><path fill="#707070" d="M204.836 157.082l-6.867-12.152 12.152-6.868 6.867 12.153zm0 0"/></g></g></g><g clip-path="url(#prefix__Y)"><g clip-path="url(#prefix__Z)"><g clip-path="url(#prefix__aa)"><path fill="#707070" d="M81.07 156.238l-13.96-.125.124-13.96 13.961.124zm0 0"/></g></g></g><g clip-path="url(#prefix__ab)"><g clip-path="url(#prefix__ac)"><g clip-path="url(#prefix__ad)"><g clip-path="url(#prefix__ae)"><path fill="#fff" d="M101.074 232.797a.107.107 0 01-.086.07c-.035.14.157.274.012.418-.082.442-.422.528-.793.559-1.05.074-2.086-.02-3.117-.18-3.692-.57-7.082-1.887-10.27-3.812-5.562-3.368-9.336-8.2-11.816-14.106-1.152-2.738-1.797-5.629-2.309-8.555-.3-1.714-.496-3.449-.734-5.175l.059-.196c-.043-.066-.07-.152-.13-.187-.046-.028-.085.039-.078.101-.34.602-.539 1.25-.707 1.91-.113.454-.257.883-.53 1.266-.24.973-.888 1.45-1.798 1.352-.457-1.938.13-3.711.871-5.473.274-.652.504-1.324.747-1.992.574-1.598.582-1.332 1.94-1.606.306-.058.614-.046.923-.007.117.015.219.043.285.14.352-.05.52.192.676.434.457.719.902 1.441 1.355 2.164.18.094.262.262.336.437.184.082.262.258.348.422.144.04.191.176.281.27 1.184 1.285 2.492 2.418 4 3.32.113.07.219.145.328.219.133.086.285.183.235.355-.036.133-.207.22-.32.203-.512-.058-.977.2-1.477.184-.22-.004-.422-.102-.621-.203-1.555-.774-2.926-1.805-4.192-2.977-.113-.105-.21-.23-.344-.308-.152-.09-.238.027-.293.164.118.129.13.273.047.426.082.14.153.285.055.449.04.023.047.05.016.086.082.133.14.27.058.426.04.101.09.199.106.308.199 1.168.379 2.34.59 3.504.191 1.059.418 2.11.628 3.164.09.27.192.54.27.809.777 2.652 1.867 5.168 3.336 7.511.523.836 1.074 1.657 1.61 2.48.195.095.269.278.347.462.187.082.262.258.336.43.183.066.246.238.328.39.129.035.184.129.215.246.047.016.07.043.07.094.14.039.192.172.281.262.442.453.801.98 1.297 1.379-.011.074.07.238-.132.109-.137-.086-.176-.066-.184-.012-.008.047.012.117.02.176 1.44 1.383 3.035 2.574 4.706 3.66.165.086.329.172.497.258a701.53 701.53 0 012.949 1.55.179.179 0 01.12.016c.02.016.04.036.06.059a.16.16 0 01.171.074c.075-.015.13.012.172.074a.152.152 0 01.172.075c.074-.016.133.007.172.074.078-.024.137 0 .176.066v.004c.074-.023.133 0 .172.067h.004c.058.02.113.039.171.066h.004c.075-.02.133 0 .172.066l.008.004c.07-.023.129-.004.168.063l.008.004h0c.074-.024.133-.004.172.062h.004c.074-.023.132 0 .171.067h.004c.075-.024.133 0 .176.062l1.664.48c.262.176.574.208.871.278a.235.235 0 00.047-.086.24.24 0 000-.148c.227.03.461.043.66.175a.379.379 0 00.192.09c-.063-.031-.13-.058-.192-.09.075-.007.145-.004.184.07.105-.046.203-.027.297.036.07-.031.129-.028.176.039.078-.016.144-.012.199.05a.125.125 0 01.105.008c.23-.007.45.028.656.118.165 0 .325-.004.473.082.102-.04.2 0 .293.03.637 0 1.27.122 1.938-.003-.063.23.105.422-.067.59zm-27.222-29.774c.003 0 .003 0 .003.004h-.003.003l.004-.004h-.007zm19.21 28.258c-.015-.004-.03-.004-.046-.008.004.004.007.004.011.004.012.008.024.012.035.016v-.012zm-1.753-1.097c-.004 0 0 0-.004.004 0 .003-.004.007-.004.011l-.004.02.012-.035s0 .004.004 0c-.004.004-.004 0-.004 0zm1.77 1.164l-.013-.051c-.011-.004-.023-.012-.035-.016.024.016.04.035.047.067zm-.13-.094l-.043-.012h-.004l.047.012zm6.977 1.926c0 .004.004.004.004.004h.008c-.004-.004-.008 0-.012-.004zm-.281 0c-.004 0-.008.004-.012 0h.012zm-2.555-1.227c0 .016.004.027 0 .043.008-.004.015-.004.023-.008l-.023-.035zm.496.04c.023.007.05.003.078-.005h-.004a.237.237 0 01-.074.004zm0 0"/></g></g></g></g><g clip-path="url(#prefix__af)"><g clip-path="url(#prefix__ag)"><g clip-path="url(#prefix__ah)"><g clip-path="url(#prefix__ai)"><path fill="#fff" d="M92.7 230.754c-.06-.02-.114-.043-.173-.063.075-.023.133 0 .172.063zm0 0"/></g></g></g></g><g clip-path="url(#prefix__aj)"><g clip-path="url(#prefix__ak)"><g clip-path="url(#prefix__al)"><g clip-path="url(#prefix__am)"><path fill="#fff" d="M116.14 125.203a.11.11 0 01-.011-.11c-.094-.109-.313-.027-.348-.23-.312-.32-.187-.648.004-.968.54-.903 1.215-1.696 1.938-2.446 2.59-2.691 5.617-4.707 9.03-6.203 5.954-2.61 12.075-2.918 18.333-1.547 2.902.637 5.64 1.774 8.324 3.035 1.578.746 3.11 1.582 4.656 2.383.043.055.086.106.13.16.077.004.163.032.226.004.05-.023.016-.094-.04-.125-.296-.62-.71-1.16-1.155-1.676-.305-.355-.57-.718-.727-1.164-.66-.754-.676-1.554-.074-2.246 1.847.743 2.965 2.243 3.972 3.86.38.601.793 1.175 1.2 1.757.976 1.391.757 1.247.199 2.512a2.987 2.987 0 01-.527.762c-.079.082-.157.152-.278.152-.16.313-.453.313-.742.301-.852-.039-1.7-.094-2.55-.14-.18.097-.364.066-.552.023-.175.105-.363.07-.546.043-.114.094-.254.058-.38.074-1.734.23-3.413.648-5.019 1.36-.121.054-.246.097-.367.144-.149.059-.313.129-.426-.012-.086-.105-.062-.293.016-.379.344-.382.402-.914.699-1.312.133-.18.328-.285.527-.395 1.528-.824 3.157-1.351 4.844-1.71.152-.032.313-.044.45-.106.163-.07.117-.211.038-.332-.175.02-.297-.055-.379-.207-.16-.016-.316-.043-.398-.215-.039.02-.066.008-.078-.035-.156-.008-.297-.043-.379-.195-.105-.032-.215-.047-.313-.094-1.07-.512-2.132-1.04-3.207-1.535-.976-.454-1.964-.875-2.949-1.305-.273-.086-.55-.156-.816-.25-2.617-.887-5.305-1.445-8.063-1.594-.984-.055-1.972-.074-2.957-.11-.187.102-.379.06-.574.02-.176.102-.36.063-.547.028-.16.11-.336.062-.508.043-.101.082-.21.074-.324.035a.094.094 0 01-.117 0c-.113.09-.25.058-.375.078-.625.102-1.262.09-1.875.27-.055-.051-.234-.083-.012-.172.145-.063.157-.106.117-.145-.035-.031-.109-.059-.16-.086-1.957.383-3.847 1-5.699 1.742l-.496.258c-.988.508-1.98 1.016-2.969 1.52a.161.161 0 01-.082.086.175.175 0 01-.078.015c-.035.07-.09.102-.16.098a.153.153 0 01-.16.098c-.031.074-.086.105-.16.101-.032.07-.082.106-.16.098-.028.074-.079.11-.157.101l-.004.004c-.023.07-.078.106-.152.102h-.004c-.047.035-.098.07-.148.101l-.008.004c-.024.074-.074.11-.153.106h-.003c-.024.074-.075.11-.153.105l-.004.004h-.004.004c-.023.074-.074.11-.152.102l-.004.004c-.023.074-.074.109-.152.105-.024.074-.078.11-.153.11-.453.359-.902.722-1.351 1.085-.297.114-.5.348-.727.551a.198.198 0 00.043.086.23.23 0 00.121.086c-.156.168-.3.352-.523.438a.398.398 0 00-.188.109c.063-.035.125-.074.188-.11-.04.067-.082.122-.164.11-.024.113-.098.183-.203.223-.012.074-.051.12-.13.125-.03.07-.073.125-.155.132-.012.035-.032.067-.07.082a1.465 1.465 0 01-.473.47c-.094.132-.184.265-.336.339-.028.105-.118.16-.196.223-.367.52-.828.964-1.113 1.586-.152-.188-.406-.157-.441-.399zm40.012-5.121h-.004.004-.004v.008c.004-.004.004-.004.004-.008zm-34.164-.555l.035-.035c-.003.004-.007.004-.011.008-.012.008-.024.012-.032.023 0 0 .004 0 .008.004zm1.91-.804h-.003c-.004-.004-.004-.012-.008-.016l-.012-.012.02.028v.004c0-.004 0-.004.003-.004zm-1.972.777a.271.271 0 00.05.02l.032-.02c-.024.012-.051.012-.082 0zm.152-.05l.035-.028v-.004a.253.253 0 01-.035.031zm-5.594 4.597h-.004l-.003.004v.004c.003 0 .003-.004.007-.008zm.168-.23v-.008.007zm2.47-1.387a.092.092 0 01-.036-.024c-.004.012-.004.02-.008.028.016 0 .031 0 .043-.004zm-.317.39a.11.11 0 00-.043.059h.004a.12.12 0 01.039-.059zm0 0"/></g></g></g></g><g clip-path="url(#prefix__an)"><g clip-path="url(#prefix__ao)"><g clip-path="url(#prefix__ap)"><g clip-path="url(#prefix__aq)"><path fill="#fff" d="M122.629 119.531c.05-.035.101-.066.152-.101-.027.074-.078.105-.152.101zm0 0"/></g></g></g></g><g clip-path="url(#prefix__ar)"><g clip-path="url(#prefix__as)"><g clip-path="url(#prefix__at)"><g clip-path="url(#prefix__au)"><path fill="#fff" d="M206.246 196.23c.043 0 .074.016.098.055.144-.015.199-.242.386-.156.446-.074.641.215.797.555.434.96.7 1.964.907 2.988.73 3.66.664 7.297-.055 10.953-1.246 6.383-4.484 11.586-9.176 15.95-2.176 2.019-4.672 3.62-7.242 5.105-1.508.875-3.066 1.652-4.61 2.472l-.203.012c-.046.063-.12.117-.132.184-.008.054.066.07.125.039.68.113 1.359.078 2.035.008.465-.051.918-.063 1.37.062.997-.113 1.665.332 1.892 1.223-1.665 1.093-3.536 1.156-5.442 1.062-.707-.031-1.418-.02-2.125-.015-1.7.007-1.453-.086-2.176-1.27a2.834 2.834 0 01-.324-.867c-.027-.11-.039-.215.031-.313-.168-.312 0-.554.176-.78.516-.677 1.043-1.349 1.567-2.02.023-.204.156-.336.292-.465.016-.203.153-.336.282-.473-.016-.148.094-.242.152-.355.8-1.551 1.414-3.176 1.746-4.899.024-.129.059-.258.09-.387.035-.152.074-.324.254-.34.137-.011.273.118.3.231.118.5.524.852.68 1.324.07.211.051.43.024.653-.195 1.726-.688 3.367-1.356 4.96-.058.141-.14.278-.168.426-.035.176.106.22.25.223.086-.156.215-.215.387-.191.106-.125.215-.239.402-.207.008-.047.032-.059.075-.043.097-.125.203-.223.379-.204.086-.07.16-.148.254-.203 1.027-.59 2.066-1.16 3.09-1.761.925-.543 1.835-1.114 2.753-1.676.223-.18.438-.363.668-.531 2.223-1.645 4.211-3.532 5.906-5.715.606-.778 1.184-1.578 1.778-2.367.02-.215.164-.348.308-.48.016-.208.153-.337.29-.466 0-.199.14-.312.253-.445-.011-.129.059-.215.157-.285 0-.047.02-.078.066-.098-.012-.144.094-.238.152-.351.27-.57.645-1.09.844-1.696.074-.011.2-.144.149.09-.032.156 0 .188.05.176.047-.008.11-.05.164-.078.801-1.828 1.371-3.735 1.817-5.68.023-.184.047-.367.074-.555.145-1.097.29-2.203.438-3.304a.16.16 0 01-.024-.118.252.252 0 01.035-.074.153.153 0 01.012-.187c-.043-.063-.035-.125.008-.188-.043-.062-.035-.125.012-.187-.043-.063-.043-.125.007-.188-.047-.062-.043-.125.004-.183v-.004c-.043-.063-.043-.125.004-.184l.004-.004a1.44 1.44 0 010-.183v-.004c-.043-.063-.047-.125.004-.184v-.008c-.047-.062-.047-.12 0-.183v-.004-.004.004c-.047-.063-.047-.125 0-.188v-.004c-.047-.058-.047-.12 0-.183-.047-.063-.047-.129 0-.188-.04-.578-.082-1.152-.121-1.73.074-.305-.004-.61-.04-.91a.3.3 0 00-.097-.016.255.255 0 00-.137.05c-.05-.222-.12-.444-.062-.679.02-.07.035-.14.016-.215-.004.07-.012.145-.016.215-.031-.07-.055-.137.004-.195-.082-.086-.098-.184-.07-.293-.055-.055-.07-.113-.028-.18-.039-.066-.058-.133-.02-.203-.023-.031-.035-.062-.027-.101a1.517 1.517 0 01-.117-.657c-.055-.152-.113-.304-.086-.472-.07-.082-.066-.184-.07-.286-.219-.601-.324-1.234-.668-1.82.238-.015.36-.246.574-.137zm-18.598 35.797c0-.004 0-.004.004-.004v0c-.004 0-.004-.003-.004-.003v.007zm19.93-27.754c.004.016.008.032.008.043.004-.004.004-.007.004-.011v-.04c-.004.005-.004.005-.012.008zm-.426 2.024c0 .004 0 0 .004 0s.008.004.012 0h.02-.036v-.004.004zm.485-2.063a1.086 1.086 0 01-.043.032c-.004.011-.004.023-.004.039a.104.104 0 01.047-.07zm-.043.157v.043c.004 0 0 0 .004.004-.004-.016-.004-.036-.004-.047zm-.59-7.215v-.008c0-.004 0-.004-.004-.004 0 .004.004.004.004.012zm.094.265c.004.004.007.004.004.008l-.004-.008zm-.27 2.82a.117.117 0 01.04-.015c-.009-.008-.013-.016-.02-.02-.008.012-.016.024-.02.036zm-.14-.48a.11.11 0 00-.024-.07h-.004a.133.133 0 01.028.07zm0 0"/></g></g></g></g><g clip-path="url(#prefix__av)"><g clip-path="url(#prefix__aw)"><g clip-path="url(#prefix__ax)"><g clip-path="url(#prefix__ay)"><path fill="#fff" d="M207.21 204.793c0 .062-.003.125-.003.184-.047-.063-.043-.122.004-.184zm0 0"/></g></g></g></g><path transform="matrix(.74987 .00605 -.00605 .74998 136.49 77.868)" fill="none" d="M-.002 1.999L223.036 2" stroke="#000" stroke-width="4"/><path transform="matrix(.75062 -.00364 .00364 .75 135.126 291.168)" fill="none" d="M0 2l224.814.002" stroke="#000" stroke-width="4"/><g clip-path="url(#prefix__az)"><path fill="#38b6ff" d="M266.715 306.992l8.492-9.492a.946.946 0 01.703-.316h5.664a.95.95 0 01.863.562.956.956 0 01-.164 1.02l-7.921 8.863 7.921 8.855a.95.95 0 01-.7 1.586h-5.663a.971.971 0 01-.703-.312l-8.492-9.496a.959.959 0 010-1.27zm0 0"/></g><g clip-path="url(#prefix__aA)"><path fill="#38b6ff" d="M278.984 306.992l8.493-9.492a.94.94 0 01.703-.316h5.66a.947.947 0 01.703 1.582l-7.926 8.863 7.926 8.855c.25.282.312.68.16 1.024a.94.94 0 01-.863.562h-5.66a.965.965 0 01-.703-.312l-8.493-9.496a.95.95 0 010-1.27zm0 0"/></g><g clip-path="url(#prefix__aB)"><path fill="#38b6ff" d="M229.59 306.992l8.492-9.492a.946.946 0 01.703-.316h5.664a.95.95 0 01.863.562.956.956 0 01-.164 1.02l-7.921 8.863 7.921 8.855c.25.282.317.68.165 1.024a.95.95 0 01-.864.562h-5.664a.971.971 0 01-.703-.312l-8.492-9.496a.959.959 0 010-1.27zm0 0"/></g><g clip-path="url(#prefix__aC)"><path fill="#38b6ff" d="M241.86 306.992l8.492-9.492a.94.94 0 01.703-.316h5.66a.947.947 0 01.703 1.582l-7.926 8.863 7.926 8.855c.25.282.312.68.16 1.024a.94.94 0 01-.863.562h-5.66a.965.965 0 01-.703-.312l-8.493-9.496a.95.95 0 010-1.27zm0 0"/></g><g clip-path="url(#prefix__aD)"><path fill="#38b6ff" d="M192.465 306.992l8.492-9.492a.946.946 0 01.703-.316h5.664a.95.95 0 01.863.562.956.956 0 01-.164 1.02l-7.921 8.863 7.921 8.855c.25.282.317.68.165 1.024a.95.95 0 01-.864.562h-5.664a.971.971 0 01-.703-.312l-8.492-9.496a.959.959 0 010-1.27zm0 0"/></g><g clip-path="url(#prefix__aE)"><path fill="#38b6ff" d="M204.734 306.992l8.493-9.492a.94.94 0 01.703-.316h5.66a.947.947 0 01.703 1.582l-7.926 8.863 7.926 8.855c.25.282.312.68.16 1.024a.94.94 0 01-.863.562h-5.66a.965.965 0 01-.703-.312l-8.493-9.496a.95.95 0 010-1.27zm0 0"/></g><g clip-path="url(#prefix__aF)"><path fill="#5ce1e6" d="M155.34 306.992l8.492-9.492a.946.946 0 01.703-.316h5.664a.95.95 0 01.863.562.956.956 0 01-.164 1.02l-7.921 8.863 7.921 8.855c.25.282.317.68.165 1.024a.95.95 0 01-.864.562h-5.664a.971.971 0 01-.703-.312l-8.492-9.496a.959.959 0 010-1.27zm0 0"/></g><g clip-path="url(#prefix__aG)"><path fill="#5ce1e6" d="M167.61 306.992l8.492-9.492a.94.94 0 01.703-.316h5.66a.947.947 0 01.703 1.582l-7.926 8.863 7.926 8.855c.25.282.312.68.16 1.024a.94.94 0 01-.863.562h-5.66a.965.965 0 01-.703-.312l-8.493-9.496a.95.95 0 010-1.27zm0 0"/></g><g clip-path="url(#prefix__aH)"><g clip-path="url(#prefix__aI)"><g clip-path="url(#prefix__aJ)"><path fill="#38b6ff" d="M118.21 307.242l8.325-9.644a.936.936 0 01.695-.328l5.66-.098a.952.952 0 01.876.543.958.958 0 01-.145 1.027l-7.766 8.996 8.079 8.719a.95.95 0 01-.672 1.598l-5.664.097a.946.946 0 01-.707-.3l-8.66-9.34a.955.955 0 01-.02-1.27zm0 0"/></g></g></g><g clip-path="url(#prefix__aK)"><g clip-path="url(#prefix__aL)"><g clip-path="url(#prefix__aM)"><path fill="#38b6ff" d="M130.477 307.023l8.324-9.64a.929.929 0 01.695-.328l5.66-.102a.945.945 0 01.875.547.952.952 0 01-.144 1.023l-7.766 9 8.082 8.715a.951.951 0 01.176 1.02.935.935 0 01-.852.578l-5.66.101a.948.948 0 01-.707-.3l-8.66-9.344a.95.95 0 01-.023-1.27zm0 0"/></g></g></g><g clip-path="url(#prefix__aN)"><g clip-path="url(#prefix__aO)"><g clip-path="url(#prefix__aP)"><path fill="#38b6ff" d="M75.855 286.086l12.274-3.406a.935.935 0 01.762.117l4.765 3.055a.948.948 0 01-.265 1.71l-11.454 3.18 1.891 11.735a.96.96 0 01-.418.949.949.949 0 01-1.031.008l-4.766-3.059a.954.954 0 01-.422-.64l-2.023-12.579a.954.954 0 01.687-1.07zm0 0"/></g></g></g><g clip-path="url(#prefix__aQ)"><g clip-path="url(#prefix__aR)"><g clip-path="url(#prefix__aS)"><path fill="#38b6ff" d="M86.18 292.71l12.277-3.405a.94.94 0 01.758.113l4.77 3.059c.312.199.476.566.421.937a.954.954 0 01-.687.774l-11.453 3.18 1.886 11.734a.951.951 0 01-1.445.957L87.941 307a.94.94 0 01-.421-.645l-2.024-12.574a.952.952 0 01.684-1.07zm0 0"/></g></g></g><g clip-path="url(#prefix__aT)"><g clip-path="url(#prefix__aU)"><g clip-path="url(#prefix__aV)"><path fill="#38b6ff" d="M41.281 262.91l12.703-.945c.27-.02.532.074.723.258l4.078 3.93a.94.94 0 01.23 1.003.943.943 0 01-.824.621l-11.851.887-.438 11.875a.955.955 0 01-.593.848.94.94 0 01-1.012-.192l-4.078-3.925a.96.96 0 01-.29-.715l.47-12.73a.954.954 0 01.882-.915zm0 0"/></g></g></g><g clip-path="url(#prefix__aW)"><g clip-path="url(#prefix__aX)"><g clip-path="url(#prefix__aY)"><path fill="#38b6ff" d="M50.117 271.422l12.703-.95c.27-.019.532.075.723.262l4.078 3.926a.95.95 0 01.234 1.004.962.962 0 01-.824.625l-11.855.883-.438 11.879a.948.948 0 01-.593.847.947.947 0 01-1.012-.191l-4.078-3.93a.967.967 0 01-.29-.71l.47-12.731a.954.954 0 01.882-.914zm0 0"/></g></g></g><g clip-path="url(#prefix__aZ)"><g clip-path="url(#prefix__ba)"><g clip-path="url(#prefix__bb)"><path fill="#5ce1e6" d="M22.734 226.063l12.477 2.57a.947.947 0 01.625.449l2.844 4.895a.95.95 0 01-1.016 1.402l-11.64-2.399-3.676 11.305a.953.953 0 01-.805.653.94.94 0 01-.918-.465l-2.848-4.895a.97.97 0 01-.082-.766l3.942-12.113a.948.948 0 011.097-.637zm0 0"/></g></g></g><g clip-path="url(#prefix__bc)"><g clip-path="url(#prefix__bd)"><g clip-path="url(#prefix__be)"><path fill="#5ce1e6" d="M28.898 236.668l12.477 2.57a.95.95 0 01.625.45l2.848 4.894a.95.95 0 01-1.016 1.402l-11.645-2.398-3.675 11.305a.953.953 0 01-1.723.191l-2.848-4.898a.962.962 0 01-.082-.762l3.942-12.117a.956.956 0 011.097-.637zm0 0"/></g></g></g><g clip-path="url(#prefix__bf)"><path fill="#38b6ff" d="M20.016 172.027l9.492 8.493c.203.18.316.433.316.703v5.66a.94.94 0 01-.562.863.946.946 0 01-1.02-.16l-8.863-7.926-8.856 7.926a.955.955 0 01-1.023.16.94.94 0 01-.563-.863v-5.66c0-.27.114-.524.313-.703l9.496-8.493a.95.95 0 011.27 0zm0 0"/></g><g clip-path="url(#prefix__bg)"><path fill="#38b6ff" d="M20.016 184.293l9.492 8.496c.203.18.316.434.316.7v5.663c0 .371-.219.711-.562.864a.953.953 0 01-1.02-.16l-8.863-7.926-8.856 7.925a.955.955 0 01-1.023.16.945.945 0 01-.563-.863v-5.664c0-.265.114-.52.313-.699l9.496-8.496c.36-.32.91-.32 1.27 0zm0 0"/></g><g clip-path="url(#prefix__bh)"><g clip-path="url(#prefix__bi)"><g clip-path="url(#prefix__bj)"><path fill="#38b6ff" d="M38.219 122.102l2.965 12.39a.936.936 0 01-.141.754l-3.227 4.656a.948.948 0 01-1.7-.324l-2.768-11.562-11.793 1.468a.955.955 0 01-.934-.449.949.949 0 01.027-1.031l3.227-4.652a.946.946 0 01.656-.399l12.645-1.574a.956.956 0 011.043.723zm0 0"/></g></g></g><g clip-path="url(#prefix__bk)"><g clip-path="url(#prefix__bl)"><g clip-path="url(#prefix__bm)"><path fill="#38b6ff" d="M31.23 132.188l2.965 12.386a.945.945 0 01-.14.758l-3.227 4.652a.951.951 0 01-.953.391.958.958 0 01-.746-.715l-2.77-11.558-11.793 1.464a.955.955 0 01-.933-.449.942.942 0 01.031-1.031l3.223-4.652a.96.96 0 01.66-.399l12.64-1.574a.953.953 0 011.043.726zm0 0"/></g></g></g><g clip-path="url(#prefix__bn)"><g clip-path="url(#prefix__bo)"><g clip-path="url(#prefix__bp)"><path fill="#38b6ff" d="M65.816 90.094l.098 12.738a.937.937 0 01-.305.703l-4.191 3.809a.943.943 0 01-1.016.164.959.959 0 01-.57-.863l-.09-11.887-11.824-1.227a.954.954 0 01-.805-.648.946.946 0 01.258-.996l4.191-3.809c.2-.18.465-.266.731-.242l12.672 1.316c.48.051.851.457.851.942zm0 0"/></g></g></g><g clip-path="url(#prefix__bq)"><g clip-path="url(#prefix__br)"><g clip-path="url(#prefix__bs)"><path fill="#38b6ff" d="M56.738 98.344l.098 12.738a.94.94 0 01-.309.703l-4.191 3.809a.948.948 0 01-1.582-.7l-.094-11.886-11.82-1.227a.954.954 0 01-.809-.648.947.947 0 01.262-1l4.187-3.805c.2-.18.465-.266.73-.242l12.673 1.316c.48.051.851.457.855.942zm0 0"/></g></g></g><g clip-path="url(#prefix__bt)"><g clip-path="url(#prefix__bu)"><g clip-path="url(#prefix__bv)"><path fill="#5ce1e6" d="M100.488 72.246l-3.433 12.266a.948.948 0 01-.493.593l-5.082 2.497a.95.95 0 01-1.023-.122.958.958 0 01-.305-.988l3.203-11.449-11.02-4.453a.943.943 0 01-.593-.844.942.942 0 01.524-.887l5.082-2.5a.96.96 0 01.77-.027l11.808 4.773c.449.18.691.676.562 1.141zm0 0"/></g></g></g><g clip-path="url(#prefix__bw)"><g clip-path="url(#prefix__bx)"><g clip-path="url(#prefix__by)"><path fill="#5ce1e6" d="M89.477 77.656l-3.434 12.27a.94.94 0 01-.492.59l-5.078 2.5a.95.95 0 01-1.332-1.114l3.207-11.445-11.024-4.453a.961.961 0 01-.594-.848.949.949 0 01.528-.886l5.082-2.497a.966.966 0 01.765-.03l11.813 4.773c.45.183.691.675.559 1.14zm0 0"/></g></g></g><g clip-path="url(#prefix__bz)"><path fill="#38b6ff" d="M146.195 68.148l-8.492 9.493a.946.946 0 01-.703.316h-5.664a.95.95 0 01-.863-.562.956.956 0 01.164-1.02l7.922-8.86-7.922-8.859a.95.95 0 01.7-1.586h5.663c.266 0 .52.117.703.313l8.492 9.496c.32.36.32.91 0 1.27zm0 0"/></g><g clip-path="url(#prefix__bA)"><path fill="#38b6ff" d="M133.926 68.148l-8.492 9.493a.94.94 0 01-.704.316h-5.66a.947.947 0 01-.703-1.582l7.926-8.86-7.926-8.859a.955.955 0 01-.16-1.023.94.94 0 01.863-.563h5.66c.27 0 .52.117.704.313l8.492 9.496a.95.95 0 010 1.27zm0 0"/></g><g clip-path="url(#prefix__bB)"><g clip-path="url(#prefix__bC)"><g clip-path="url(#prefix__bD)"><path fill="#38b6ff" d="M182.719 68.148l-8.778 9.235a.927.927 0 01-.71.293l-5.66-.168a.948.948 0 01-.844-.59.953.953 0 01.191-1.016l8.187-8.617-7.652-9.094a.951.951 0 01-.133-1.023.945.945 0 01.88-.54l5.66.173c.269.008.519.129.695.332l8.203 9.746a.96.96 0 01-.04 1.27zm0 0"/></g></g></g><g clip-path="url(#prefix__bE)"><g clip-path="url(#prefix__bF)"><g clip-path="url(#prefix__bG)"><path fill="#38b6ff" d="M170.457 67.781l-8.777 9.235a.94.94 0 01-.711.293l-5.66-.172a.946.946 0 01-.653-1.602l8.188-8.617-7.656-9.094a.948.948 0 01.75-1.563l5.66.169a.95.95 0 01.691.336l8.203 9.746a.955.955 0 01-.035 1.27zm0 0"/></g></g></g><g clip-path="url(#prefix__bH)"><g clip-path="url(#prefix__bI)"><g clip-path="url(#prefix__bJ)"><path fill="#38b6ff" d="M294.371 68.148l-8.777 9.235a.927.927 0 01-.711.293l-5.66-.168a.948.948 0 01-.844-.59.953.953 0 01.191-1.016l8.188-8.617-7.653-9.094a.951.951 0 01-.132-1.023.945.945 0 01.879-.54l5.66.173c.27.008.52.129.695.332l8.203 9.746a.96.96 0 01-.039 1.27zm0 0"/></g></g></g><g clip-path="url(#prefix__bK)"><g clip-path="url(#prefix__bL)"><g clip-path="url(#prefix__bM)"><path fill="#38b6ff" d="M282.11 67.781l-8.778 9.235a.94.94 0 01-.71.293l-5.661-.172a.946.946 0 01-.652-1.602l8.187-8.617-7.656-9.094a.948.948 0 01.75-1.563l5.66.169a.95.95 0 01.691.336l8.204 9.746a.955.955 0 01-.036 1.27zm0 0"/></g></g></g><g clip-path="url(#prefix__bN)"><g clip-path="url(#prefix__bO)"><g clip-path="url(#prefix__bP)"><path fill="#5ce1e6" d="M257.246 68.148l-8.777 9.235a.927.927 0 01-.711.293l-5.66-.168a.948.948 0 01-.844-.59.953.953 0 01.191-1.016l8.188-8.617-7.653-9.094a.951.951 0 01-.132-1.023.945.945 0 01.879-.54l5.66.173c.27.008.52.129.695.332l8.203 9.746a.96.96 0 01-.039 1.27zm0 0"/></g></g></g><g clip-path="url(#prefix__bQ)"><g clip-path="url(#prefix__bR)"><g clip-path="url(#prefix__bS)"><path fill="#5ce1e6" d="M244.984 67.781l-8.777 9.235a.94.94 0 01-.71.293l-5.661-.172a.946.946 0 01-.652-1.602l8.187-8.617-7.656-9.094a.948.948 0 01.75-1.563l5.66.169a.95.95 0 01.691.336l8.204 9.746a.955.955 0 01-.036 1.27zm0 0"/></g></g></g><g clip-path="url(#prefix__bT)"><g clip-path="url(#prefix__bU)"><g clip-path="url(#prefix__bV)"><path fill="#38b6ff" d="M220.73 68.148l-8.777 9.235a.927.927 0 01-.71.293l-5.661-.168a.944.944 0 01-.844-.59.953.953 0 01.192-1.016l8.187-8.617-7.656-9.094a.95.95 0 01.75-1.562l5.66.172c.27.008.516.129.691.332l8.204 9.746a.955.955 0 01-.036 1.27zm0 0"/></g></g></g><g clip-path="url(#prefix__bW)"><g clip-path="url(#prefix__bX)"><g clip-path="url(#prefix__bY)"><path fill="#38b6ff" d="M208.465 67.781l-8.774 9.235a.947.947 0 01-.71.293l-5.66-.172a.946.946 0 01-.844-.586.96.96 0 01.187-1.016l8.191-8.617-7.656-9.094a.949.949 0 01.75-1.562l5.66.168a.957.957 0 01.692.336l8.203 9.746a.95.95 0 01-.04 1.27zm0 0"/></g></g></g></svg>