<svg xmlns="http://www.w3.org/2000/svg" xmlns:xlink="http://www.w3.org/1999/xlink" width="450" zoomAndPan="magnify" viewBox="0 0 337.5 374.999991" height="500" preserveAspectRatio="xMidYMid meet" version="1.0"><defs><clipPath id="8f3650939b"><path d="M 0 52.777344 L 303.75 52.777344 L 303.75 323 L 0 323 Z M 0 52.777344 " clip-rule="nonzero"/></clipPath><clipPath id="14953decaf"><path d="M 7.917969 142.824219 C 3.136719 156.667969 0 172.40625 0 187.851562 C 0 203.296875 2.6875 218.15625 7.46875 231.855469 C 7.621094 232.144531 7.621094 232.4375 7.769531 232.730469 C 26.890625 284.164062 77.390625 322.050781 135.65625 322.777344 L 303.75 322.777344 L 303.75 52.777344 L 135.78125 52.777344 C 77.09375 53.507812 26.59375 90.808594 7.917969 142.824219 " clip-rule="nonzero"/></clipPath><clipPath id="908a88b436"><path d="M 0 52.777344 L 303.75 52.777344 L 303.75 322.777344 L 0 322.777344 Z M 0 52.777344 " clip-rule="nonzero"/></clipPath><clipPath id="bb2b3284fc"><path d="M 7.917969 142.824219 C 3.136719 156.667969 0 172.40625 0 187.851562 C 0 203.296875 2.6875 218.15625 7.46875 231.855469 C 7.621094 232.144531 7.621094 232.4375 7.769531 232.730469 C 26.890625 284.164062 77.390625 322.050781 135.65625 322.777344 L 303.75 322.777344 L 303.75 52.777344 L 135.78125 52.777344 C 77.09375 53.507812 26.59375 90.808594 7.917969 142.824219 " clip-rule="nonzero"/></clipPath><clipPath id="90fcac6069"><path d="M 33 78 L 250 78 L 250 295 L 33 295 Z M 33 78 " clip-rule="nonzero"/></clipPath><clipPath id="afe7cb0887"><path d="M -6.101562 224.332031 L 103.582031 37.917969 L 289.996094 147.601562 L 180.3125 334.015625 Z M -6.101562 224.332031 " clip-rule="nonzero"/></clipPath><clipPath id="01f52632c6"><path d="M 48.667969 131.25 C 18.417969 182.660156 35.574219 248.855469 86.980469 279.101562 C 138.390625 309.347656 204.585938 292.195312 234.832031 240.785156 C 265.082031 189.378906 247.925781 123.183594 196.519531 92.933594 C 145.109375 62.6875 78.914062 79.839844 48.667969 131.25 " clip-rule="nonzero"/></clipPath><clipPath id="05c8a844ec"><path d="M 33 78 L 250 78 L 250 295 L 33 295 Z M 33 78 " clip-rule="nonzero"/></clipPath><clipPath id="3c24714cf3"><path d="M -6.101562 224.332031 L 103.433594 38.167969 L 289.601562 147.703125 L 180.066406 333.871094 Z M -6.101562 224.332031 " clip-rule="nonzero"/></clipPath><clipPath id="4e7ca761bb"><path d="M -6.101562 224.332031 L 104.984375 35.535156 L 293.78125 146.621094 L 182.695312 335.417969 Z M -6.101562 224.332031 " clip-rule="nonzero"/></clipPath><clipPath id="189a1d7cc0"><path d="M 48.667969 131.25 C 18.417969 182.660156 35.574219 248.855469 86.980469 279.101562 C 138.390625 309.347656 204.585938 292.195312 234.832031 240.785156 C 265.082031 189.378906 247.925781 123.183594 196.519531 92.933594 C 145.109375 62.6875 78.914062 79.839844 48.667969 131.25 " clip-rule="nonzero"/></clipPath><clipPath id="b3d9f37bce"><path d="M 78 146 L 116 146 L 116 178 L 78 178 Z M 78 146 " clip-rule="nonzero"/></clipPath><clipPath id="aa667b4875"><path d="M 78.660156 161.234375 L 87.808594 145.542969 L 115.386719 161.625 L 106.238281 177.316406 Z M 78.660156 161.234375 " clip-rule="nonzero"/></clipPath><clipPath id="7ad40f1010"><path d="M 78.660156 161.234375 L 87.609375 145.886719 L 115.015625 161.867188 L 106.066406 177.214844 Z M 78.660156 161.234375 " clip-rule="nonzero"/></clipPath><clipPath id="036349ca62"><path d="M 163 146 L 200 146 L 200 178 L 163 178 Z M 163 146 " clip-rule="nonzero"/></clipPath><clipPath id="68a668515c"><path d="M 171.835938 177.800781 L 162.996094 161.933594 L 190.886719 146.398438 L 199.726562 162.265625 Z M 171.835938 177.800781 " clip-rule="nonzero"/></clipPath><clipPath id="26c3371f24"><path d="M 171.835938 177.800781 L 163.191406 162.28125 L 190.910156 146.839844 L 199.554688 162.359375 Z M 171.835938 177.800781 " clip-rule="nonzero"/></clipPath><clipPath id="4b9964724c"><path d="M 96 161 L 182 161 L 182 236 L 96 236 Z M 96 161 " clip-rule="nonzero"/></clipPath><clipPath id="e95c5e4a33"><path d="M 180.710938 235.589844 L 95.515625 234.828125 L 96.175781 160.84375 L 181.371094 161.605469 Z M 180.710938 235.589844 " clip-rule="nonzero"/></clipPath><clipPath id="ad7d08c400"><path d="M 138.441406 235.210938 L 96.824219 161.566406 L 181.367188 162.320312 L 138.441406 235.210938 " clip-rule="nonzero"/></clipPath><clipPath id="d9840b520c"><path d="M 129 211 L 148 211 L 148 244 L 129 244 Z M 129 211 " clip-rule="nonzero"/></clipPath><clipPath id="b3c4ba079d"><path d="M 147.257812 243.1875 L 129.09375 243.023438 L 129.378906 211.101562 L 147.542969 211.261719 Z M 147.257812 243.1875 " clip-rule="nonzero"/></clipPath><clipPath id="5d90f28147"><path d="M 147.257812 243.1875 L 129.492188 243.027344 L 129.773438 211.300781 L 147.539062 211.460938 Z M 147.257812 243.1875 " clip-rule="nonzero"/></clipPath><clipPath id="3798620045"><path d="M 110 235 L 166 235 L 166 292 L 110 292 Z M 110 235 " clip-rule="nonzero"/></clipPath><clipPath id="f0d885ef30"><path d="M 166.871094 236.753906 L 165.09375 292.347656 L 109.5 290.570312 L 111.277344 234.976562 Z M 166.871094 236.753906 " clip-rule="nonzero"/></clipPath><clipPath id="02b0501e85"><path d="M 165.984375 264.550781 C 166.476562 249.199219 154.429688 236.355469 139.074219 235.863281 C 123.722656 235.375 110.882812 247.421875 110.390625 262.773438 C 109.898438 278.125 121.945312 290.96875 137.296875 291.457031 C 152.648438 291.949219 165.492188 279.902344 165.984375 264.550781 " clip-rule="nonzero"/></clipPath><clipPath id="9babecd5f2"><path d="M 110 235 L 166 235 L 166 292 L 110 292 Z M 110 235 " clip-rule="nonzero"/></clipPath><clipPath id="28896aed40"><path d="M 166.871094 236.753906 L 165.097656 292.226562 L 109.628906 290.453125 L 111.402344 234.980469 Z M 166.871094 236.753906 " clip-rule="nonzero"/></clipPath><clipPath id="337d32dddf"><path d="M 166.871094 236.753906 L 165.097656 292.226562 L 109.628906 290.453125 L 111.402344 234.980469 Z M 166.871094 236.753906 " clip-rule="nonzero"/></clipPath><clipPath id="ba3e839ce3"><path d="M 165.984375 264.488281 C 166.476562 249.171875 154.457031 236.355469 139.136719 235.867188 C 123.820312 235.375 111.003906 247.398438 110.515625 262.714844 C 110.023438 278.035156 122.046875 290.847656 137.363281 291.339844 C 152.679688 291.828125 165.496094 279.808594 165.984375 264.488281 " clip-rule="nonzero"/></clipPath><clipPath id="03c276ee4b"><path d="M 179 119 L 236 119 L 236 176 L 179 176 Z M 179 119 " clip-rule="nonzero"/></clipPath><clipPath id="a1e413f6d3"><path d="M 245.367188 158.105469 L 196.941406 185.46875 L 169.578125 137.039062 L 218.007812 109.679688 Z M 245.367188 158.105469 " clip-rule="nonzero"/></clipPath><clipPath id="f63f366cdc"><path d="M 221.152344 171.789062 C 234.527344 164.230469 239.242188 147.265625 231.6875 133.894531 C 224.132812 120.519531 207.164062 115.804688 193.792969 123.359375 C 180.421875 130.914062 175.703125 147.882812 183.257812 161.253906 C 190.816406 174.625 207.78125 179.34375 221.152344 171.789062 " clip-rule="nonzero"/></clipPath><clipPath id="cac2bb7881"><path d="M 179 119 L 236 119 L 236 176 L 179 176 Z M 179 119 " clip-rule="nonzero"/></clipPath><clipPath id="60a92c03ab"><path d="M 245.367188 158.105469 L 197.046875 185.40625 L 169.746094 137.085938 L 218.066406 109.785156 Z M 245.367188 158.105469 " clip-rule="nonzero"/></clipPath><clipPath id="0b4388bf6e"><path d="M 245.367188 158.105469 L 197.046875 185.40625 L 169.746094 137.085938 L 218.066406 109.785156 Z M 245.367188 158.105469 " clip-rule="nonzero"/></clipPath><clipPath id="3b5633a504"><path d="M 221.207031 171.757812 C 234.550781 164.21875 239.257812 147.289062 231.71875 133.945312 C 224.179688 120.601562 207.25 115.898438 193.90625 123.4375 C 180.5625 130.976562 175.855469 147.902344 183.394531 161.246094 C 190.933594 174.589844 207.863281 179.296875 221.207031 171.757812 " clip-rule="nonzero"/></clipPath><clipPath id="50ea722efb"><path d="M 46 120 L 103 120 L 103 177 L 46 177 Z M 46 120 " clip-rule="nonzero"/></clipPath><clipPath id="b3b106b380"><path d="M 112.730469 138.425781 L 84.523438 186.363281 L 36.585938 158.15625 L 64.792969 110.21875 Z M 112.730469 138.425781 " clip-rule="nonzero"/></clipPath><clipPath id="3f64541090"><path d="M 98.628906 162.394531 C 106.417969 149.15625 102 132.109375 88.761719 124.320312 C 75.523438 116.53125 58.476562 120.949219 50.6875 134.1875 C 42.898438 147.425781 47.316406 164.472656 60.554688 172.261719 C 73.792969 180.050781 90.839844 175.632812 98.628906 162.394531 " clip-rule="nonzero"/></clipPath><clipPath id="9989a758d7"><path d="M 46 120 L 103 120 L 103 177 L 46 177 Z M 46 120 " clip-rule="nonzero"/></clipPath><clipPath id="811323345b"><path d="M 112.730469 138.425781 L 84.585938 186.257812 L 36.753906 158.113281 L 64.898438 110.28125 Z M 112.730469 138.425781 " clip-rule="nonzero"/></clipPath><clipPath id="ba140a22bc"><path d="M 112.730469 138.425781 L 84.585938 186.257812 L 36.753906 158.113281 L 64.898438 110.28125 Z M 112.730469 138.425781 " clip-rule="nonzero"/></clipPath><clipPath id="567bb040b0"><path d="M 98.660156 162.34375 C 106.429688 149.132812 102.023438 132.125 88.8125 124.351562 C 75.605469 116.582031 58.597656 120.988281 50.824219 134.199219 C 43.050781 147.40625 47.460938 164.414062 60.667969 172.1875 C 73.878906 179.960938 90.886719 175.550781 98.660156 162.34375 " clip-rule="nonzero"/></clipPath><clipPath id="b613e9ea2c"><path d="M 131 256 L 146 256 L 146 271 L 131 271 Z M 131 256 " clip-rule="nonzero"/></clipPath><clipPath id="9837eac799"><path d="M 145.105469 270.699219 L 131.148438 270.574219 L 131.273438 256.617188 L 145.230469 256.742188 Z M 145.105469 270.699219 " clip-rule="nonzero"/></clipPath><clipPath id="3874d04409"><path d="M 138.128906 270.636719 C 141.984375 270.671875 145.136719 267.574219 145.167969 263.71875 C 145.203125 259.867188 142.105469 256.710938 138.253906 256.679688 C 134.398438 256.644531 131.246094 259.742188 131.210938 263.59375 C 131.175781 267.449219 134.273438 270.601562 138.128906 270.636719 " clip-rule="nonzero"/></clipPath><clipPath id="e2ce148826"><path d="M 200 140 L 215 140 L 215 155 L 200 155 Z M 200 140 " clip-rule="nonzero"/></clipPath><clipPath id="db37826068"><path d="M 204.835938 157.082031 L 197.96875 144.929688 L 210.121094 138.0625 L 216.988281 150.214844 Z M 204.835938 157.082031 " clip-rule="nonzero"/></clipPath><clipPath id="a02d2e6fe7"><path d="M 201.402344 151.003906 C 203.296875 154.363281 207.554688 155.546875 210.914062 153.648438 C 214.269531 151.753906 215.453125 147.496094 213.554688 144.140625 C 211.660156 140.78125 207.402344 139.597656 204.046875 141.496094 C 200.691406 143.390625 199.507812 147.648438 201.402344 151.003906 " clip-rule="nonzero"/></clipPath><clipPath id="08347a9c00"><path d="M 67 142 L 82 142 L 82 157 L 67 157 Z M 67 142 " clip-rule="nonzero"/></clipPath><clipPath id="beae628ff6"><path d="M 81.070312 156.238281 L 67.109375 156.113281 L 67.234375 142.152344 L 81.195312 142.277344 Z M 81.070312 156.238281 " clip-rule="nonzero"/></clipPath><clipPath id="b4622de354"><path d="M 74.089844 156.175781 C 77.945312 156.207031 81.097656 153.113281 81.132812 149.257812 C 81.167969 145.402344 78.070312 142.25 74.214844 142.214844 C 70.359375 142.179688 67.207031 145.277344 67.171875 149.132812 C 67.140625 152.988281 70.234375 156.140625 74.089844 156.175781 " clip-rule="nonzero"/></clipPath><clipPath id="8b92f82dfe"><path d="M 68 197 L 102 197 L 102 234 L 68 234 Z M 68 197 " clip-rule="nonzero"/></clipPath><clipPath id="689a2f6871"><path d="M 74.925781 194.128906 L 101.722656 233.046875 L 90.601562 240.703125 L 63.808594 201.785156 Z M 74.925781 194.128906 " clip-rule="nonzero"/></clipPath><clipPath id="231c8e5b95"><path d="M 101.828125 233.199219 L 75.035156 194.28125 L 63.914062 201.9375 L 90.707031 240.855469 Z M 101.828125 233.199219 " clip-rule="nonzero"/></clipPath><clipPath id="bcaf33ff36"><path d="M 101.828125 233.199219 L 75.035156 194.28125 L 63.914062 201.9375 L 90.707031 240.855469 Z M 101.828125 233.199219 " clip-rule="nonzero"/></clipPath><clipPath id="1e7c38ba15"><path d="M 92 230 L 93 230 L 93 231 L 92 231 Z M 92 230 " clip-rule="nonzero"/></clipPath><clipPath id="8d7ce24f01"><path d="M 74.925781 194.128906 L 101.722656 233.046875 L 90.601562 240.703125 L 63.808594 201.785156 Z M 74.925781 194.128906 " clip-rule="nonzero"/></clipPath><clipPath id="ecb4a21364"><path d="M 101.828125 233.199219 L 75.035156 194.28125 L 63.914062 201.9375 L 90.707031 240.855469 Z M 101.828125 233.199219 " clip-rule="nonzero"/></clipPath><clipPath id="59e72d2f42"><path d="M 101.828125 233.199219 L 75.035156 194.28125 L 63.914062 201.9375 L 90.707031 240.855469 Z M 101.828125 233.199219 " clip-rule="nonzero"/></clipPath><clipPath id="cb53d4c89f"><path d="M 115 112 L 163 112 L 163 126 L 115 126 Z M 115 112 " clip-rule="nonzero"/></clipPath><clipPath id="7d17f4345e"><path d="M 162.808594 126.082031 L 115.5625 125.589844 L 115.703125 112.09375 L 162.949219 112.582031 Z M 162.808594 126.082031 " clip-rule="nonzero"/></clipPath><clipPath id="ffc9073bdb"><path d="M 115.375 125.589844 L 162.621094 126.082031 L 162.761719 112.582031 L 115.515625 112.089844 Z M 115.375 125.589844 " clip-rule="nonzero"/></clipPath><clipPath id="df3000ac70"><path d="M 115.375 125.589844 L 162.621094 126.082031 L 162.761719 112.582031 L 115.515625 112.089844 Z M 115.375 125.589844 " clip-rule="nonzero"/></clipPath><clipPath id="d2ef490bf5"><path d="M 122 119 L 123 119 L 123 120 L 122 120 Z M 122 119 " clip-rule="nonzero"/></clipPath><clipPath id="b45da7c7b4"><path d="M 162.808594 126.082031 L 115.5625 125.589844 L 115.703125 112.09375 L 162.949219 112.582031 Z M 162.808594 126.082031 " clip-rule="nonzero"/></clipPath><clipPath id="52ff4f76e2"><path d="M 115.375 125.589844 L 162.621094 126.082031 L 162.761719 112.582031 L 115.515625 112.089844 Z M 115.375 125.589844 " clip-rule="nonzero"/></clipPath><clipPath id="b5a9c75193"><path d="M 115.375 125.589844 L 162.621094 126.082031 L 162.761719 112.582031 L 115.515625 112.089844 Z M 115.375 125.589844 " clip-rule="nonzero"/></clipPath><clipPath id="d2a4f0d8eb"><path d="M 182 196 L 209 196 L 209 237 L 182 237 Z M 182 196 " clip-rule="nonzero"/></clipPath><clipPath id="0f1d3223d2"><path d="M 178.925781 234.078125 L 206.257812 195.535156 L 217.269531 203.34375 L 189.9375 241.886719 Z M 178.925781 234.078125 " clip-rule="nonzero"/></clipPath><clipPath id="46b4a20761"><path d="M 206.367188 195.382812 L 179.035156 233.921875 L 190.046875 241.734375 L 217.378906 203.191406 Z M 206.367188 195.382812 " clip-rule="nonzero"/></clipPath><clipPath id="f56c89f1e5"><path d="M 206.367188 195.382812 L 179.035156 233.921875 L 190.046875 241.734375 L 217.378906 203.191406 Z M 206.367188 195.382812 " clip-rule="nonzero"/></clipPath><clipPath id="8551aa8e77"><path d="M 207 204 L 208 204 L 208 205 L 207 205 Z M 207 204 " clip-rule="nonzero"/></clipPath><clipPath id="ef19522442"><path d="M 178.925781 234.078125 L 206.257812 195.535156 L 217.269531 203.34375 L 189.9375 241.886719 Z M 178.925781 234.078125 " clip-rule="nonzero"/></clipPath><clipPath id="ea96565f4e"><path d="M 206.367188 195.382812 L 179.035156 233.921875 L 190.046875 241.734375 L 217.378906 203.191406 Z M 206.367188 195.382812 " clip-rule="nonzero"/></clipPath><clipPath id="a4d7b2e081"><path d="M 206.367188 195.382812 L 179.035156 233.921875 L 190.046875 241.734375 L 217.378906 203.191406 Z M 206.367188 195.382812 " clip-rule="nonzero"/></clipPath><clipPath id="e5c076603c"><path d="M 266.625 297.128906 L 283 297.128906 L 283 318.128906 L 266.625 318.128906 Z M 266.625 297.128906 " clip-rule="nonzero"/></clipPath><clipPath id="bd94472ae6"><path d="M 278 297.128906 L 294.785156 297.128906 L 294.785156 318.128906 L 278 318.128906 Z M 278 297.128906 " clip-rule="nonzero"/></clipPath><clipPath id="f0b0c4b8c1"><path d="M 229.5 297.128906 L 246 297.128906 L 246 318.128906 L 229.5 318.128906 Z M 229.5 297.128906 " clip-rule="nonzero"/></clipPath><clipPath id="ace313b773"><path d="M 241 297.128906 L 257.660156 297.128906 L 257.660156 318.128906 L 241 318.128906 Z M 241 297.128906 " clip-rule="nonzero"/></clipPath><clipPath id="40b620bd82"><path d="M 192.375 297.128906 L 209 297.128906 L 209 318.128906 L 192.375 318.128906 Z M 192.375 297.128906 " clip-rule="nonzero"/></clipPath><clipPath id="08ef78909c"><path d="M 204 297.128906 L 220.535156 297.128906 L 220.535156 318.128906 L 204 318.128906 Z M 204 297.128906 " clip-rule="nonzero"/></clipPath><clipPath id="f187d205fe"><path d="M 155.25 297.128906 L 172 297.128906 L 172 318.128906 L 155.25 318.128906 Z M 155.25 297.128906 " clip-rule="nonzero"/></clipPath><clipPath id="1cf08f6ec4"><path d="M 167 297.128906 L 183.410156 297.128906 L 183.410156 318.128906 L 167 318.128906 Z M 167 297.128906 " clip-rule="nonzero"/></clipPath><clipPath id="e1829e9b2a"><path d="M 117 297 L 135 297 L 135 319 L 117 319 Z M 117 297 " clip-rule="nonzero"/></clipPath><clipPath id="0812418bbe"><path d="M 117.945312 297.378906 L 146.441406 296.875 L 146.8125 317.871094 L 118.316406 318.375 Z M 117.945312 297.378906 " clip-rule="nonzero"/></clipPath><clipPath id="1b242f124e"><path d="M 146.101562 296.878906 L 117.605469 297.382812 L 117.976562 318.378906 L 146.472656 317.875 Z M 146.101562 296.878906 " clip-rule="nonzero"/></clipPath><clipPath id="c11c49ced6"><path d="M 130 296 L 147 296 L 147 318 L 130 318 Z M 130 296 " clip-rule="nonzero"/></clipPath><clipPath id="be470dc93f"><path d="M 117.945312 297.378906 L 146.441406 296.875 L 146.8125 317.871094 L 118.316406 318.375 Z M 117.945312 297.378906 " clip-rule="nonzero"/></clipPath><clipPath id="2bc3c55d99"><path d="M 146.101562 296.878906 L 117.605469 297.382812 L 117.976562 318.378906 L 146.472656 317.875 Z M 146.101562 296.878906 " clip-rule="nonzero"/></clipPath><clipPath id="41418d9ce1"><path d="M 75 282 L 95 282 L 95 304 L 75 304 Z M 75 282 " clip-rule="nonzero"/></clipPath><clipPath id="25d606c100"><path d="M 81.105469 277.734375 L 105.09375 293.121094 L 93.757812 310.796875 L 69.765625 295.410156 Z M 81.105469 277.734375 " clip-rule="nonzero"/></clipPath><clipPath id="723b277481"><path d="M 104.808594 292.9375 L 80.816406 277.550781 L 69.480469 295.226562 L 93.46875 310.613281 Z M 104.808594 292.9375 " clip-rule="nonzero"/></clipPath><clipPath id="98088e9321"><path d="M 85 289 L 105 289 L 105 311 L 85 311 Z M 85 289 " clip-rule="nonzero"/></clipPath><clipPath id="b8c042e58f"><path d="M 81.105469 277.734375 L 105.09375 293.121094 L 93.757812 310.796875 L 69.765625 295.410156 Z M 81.105469 277.734375 " clip-rule="nonzero"/></clipPath><clipPath id="989254a7cf"><path d="M 104.808594 292.9375 L 80.816406 277.550781 L 69.480469 295.226562 L 93.46875 310.613281 Z M 104.808594 292.9375 " clip-rule="nonzero"/></clipPath><clipPath id="bf5d43ee69"><path d="M 39 261 L 60 261 L 60 282 L 39 282 Z M 39 261 " clip-rule="nonzero"/></clipPath><clipPath id="9a65880280"><path d="M 48.058594 255.742188 L 68.585938 275.511719 L 54.019531 290.636719 L 33.492188 270.867188 Z M 48.058594 255.742188 " clip-rule="nonzero"/></clipPath><clipPath id="6e0904d89a"><path d="M 68.339844 275.277344 L 47.8125 255.503906 L 33.246094 270.632812 L 53.773438 290.402344 Z M 68.339844 275.277344 " clip-rule="nonzero"/></clipPath><clipPath id="d0cd013f0f"><path d="M 48 270 L 68 270 L 68 290 L 48 290 Z M 48 270 " clip-rule="nonzero"/></clipPath><clipPath id="c3f7c8074d"><path d="M 48.058594 255.742188 L 68.585938 275.511719 L 54.019531 290.636719 L 33.492188 270.867188 Z M 48.058594 255.742188 " clip-rule="nonzero"/></clipPath><clipPath id="adc17c3054"><path d="M 68.339844 275.277344 L 47.8125 255.503906 L 33.246094 270.632812 L 53.773438 290.402344 Z M 68.339844 275.277344 " clip-rule="nonzero"/></clipPath><clipPath id="91bb62e1d2"><path d="M 17 226 L 39 226 L 39 245 L 17 245 Z M 17 226 " clip-rule="nonzero"/></clipPath><clipPath id="4766786d7c"><path d="M 31.21875 221.023438 L 45.539062 245.664062 L 27.386719 256.21875 L 13.0625 231.578125 Z M 31.21875 221.023438 " clip-rule="nonzero"/></clipPath><clipPath id="b42d03071e"><path d="M 45.371094 245.371094 L 31.046875 220.730469 L 12.890625 231.285156 L 27.214844 255.925781 Z M 45.371094 245.371094 " clip-rule="nonzero"/></clipPath><clipPath id="ce16e01493"><path d="M 23 236 L 45 236 L 45 256 L 23 256 Z M 23 236 " clip-rule="nonzero"/></clipPath><clipPath id="81b25f4b7a"><path d="M 31.21875 221.023438 L 45.539062 245.664062 L 27.386719 256.21875 L 13.0625 231.578125 Z M 31.21875 221.023438 " clip-rule="nonzero"/></clipPath><clipPath id="ed2333c4b6"><path d="M 45.371094 245.371094 L 31.046875 220.730469 L 12.890625 231.285156 L 27.214844 255.925781 Z M 45.371094 245.371094 " clip-rule="nonzero"/></clipPath><clipPath id="d13a9e3f25"><path d="M 8.878906 171.9375 L 29.878906 171.9375 L 29.878906 188 L 8.878906 188 Z M 8.878906 171.9375 " clip-rule="nonzero"/></clipPath><clipPath id="c9018667b7"><path d="M 8.878906 184 L 29.878906 184 L 29.878906 200.097656 L 8.878906 200.097656 Z M 8.878906 184 " clip-rule="nonzero"/></clipPath><clipPath id="324a34c76a"><path d="M 20 121 L 42 121 L 42 141 L 20 141 Z M 20 121 " clip-rule="nonzero"/></clipPath><clipPath id="6e99dcdf7f"><path d="M 46.378906 127.648438 L 30.144531 151.074219 L 12.882812 139.109375 L 29.117188 115.6875 Z M 46.378906 127.648438 " clip-rule="nonzero"/></clipPath><clipPath id="10efddddb4"><path d="M 30.339844 150.792969 L 46.574219 127.367188 L 29.3125 115.40625 L 13.078125 138.832031 Z M 30.339844 150.792969 " clip-rule="nonzero"/></clipPath><clipPath id="228fca1cd4"><path d="M 13 131 L 35 131 L 35 151 L 13 151 Z M 13 131 " clip-rule="nonzero"/></clipPath><clipPath id="c291f0aab6"><path d="M 46.378906 127.648438 L 30.144531 151.074219 L 12.882812 139.109375 L 29.117188 115.6875 Z M 46.378906 127.648438 " clip-rule="nonzero"/></clipPath><clipPath id="ea8815c38b"><path d="M 30.339844 150.792969 L 46.574219 127.367188 L 29.3125 115.40625 L 13.078125 138.832031 Z M 30.339844 150.792969 " clip-rule="nonzero"/></clipPath><clipPath id="035773e6f2"><path d="M 47 87 L 66 87 L 66 108 L 47 108 Z M 47 87 " clip-rule="nonzero"/></clipPath><clipPath id="9e76d848f8"><path d="M 72.519531 97.335938 L 51.425781 116.5 L 37.304688 100.957031 L 58.398438 81.792969 Z M 72.519531 97.335938 " clip-rule="nonzero"/></clipPath><clipPath id="efbaedd619"><path d="M 51.675781 116.269531 L 72.769531 97.105469 L 58.648438 81.5625 L 37.554688 100.726562 Z M 51.675781 116.269531 " clip-rule="nonzero"/></clipPath><clipPath id="85dc8db5bd"><path d="M 37 96 L 57 96 L 57 116 L 37 116 Z M 37 96 " clip-rule="nonzero"/></clipPath><clipPath id="9dca8e49ca"><path d="M 72.519531 97.335938 L 51.425781 116.5 L 37.304688 100.957031 L 58.398438 81.792969 Z M 72.519531 97.335938 " clip-rule="nonzero"/></clipPath><clipPath id="8b83ac5255"><path d="M 51.675781 116.269531 L 72.769531 97.105469 L 58.648438 81.5625 L 37.554688 100.726562 Z M 51.675781 116.269531 " clip-rule="nonzero"/></clipPath><clipPath id="047ffb1e03"><path d="M 81 66 L 101 66 L 101 88 L 81 88 Z M 81 66 " clip-rule="nonzero"/></clipPath><clipPath id="294908ca02"><path d="M 104.921875 81.058594 L 79.34375 93.632812 L 70.078125 74.785156 L 95.65625 62.214844 Z M 104.921875 81.058594 " clip-rule="nonzero"/></clipPath><clipPath id="cf9699172d"><path d="M 79.648438 93.480469 L 105.226562 80.910156 L 95.960938 62.0625 L 70.382812 74.636719 Z M 79.648438 93.480469 " clip-rule="nonzero"/></clipPath><clipPath id="6f9acb1659"><path d="M 70 71 L 90 71 L 90 94 L 70 94 Z M 70 71 " clip-rule="nonzero"/></clipPath><clipPath id="191084fb28"><path d="M 104.921875 81.058594 L 79.34375 93.632812 L 70.078125 74.785156 L 95.65625 62.214844 Z M 104.921875 81.058594 " clip-rule="nonzero"/></clipPath><clipPath id="260a282458"><path d="M 79.648438 93.480469 L 105.226562 80.910156 L 95.960938 62.0625 L 70.382812 74.636719 Z M 79.648438 93.480469 " clip-rule="nonzero"/></clipPath><clipPath id="8ab4c31926"><path d="M 130 57.015625 L 146.285156 57.015625 L 146.285156 78 L 130 78 Z M 130 57.015625 " clip-rule="nonzero"/></clipPath><clipPath id="54ef61a1a5"><path d="M 118.125 57.015625 L 135 57.015625 L 135 78 L 118.125 78 Z M 118.125 57.015625 " clip-rule="nonzero"/></clipPath><clipPath id="d953ad7001"><path d="M 166 56 L 183 56 L 183 78 L 166 78 Z M 166 56 " clip-rule="nonzero"/></clipPath><clipPath id="5d896db10b"><path d="M 182.511719 78.015625 L 154.023438 77.15625 L 154.65625 56.164062 L 183.144531 57.023438 Z M 182.511719 78.015625 " clip-rule="nonzero"/></clipPath><clipPath id="6c9d82c10f"><path d="M 154.363281 77.164062 L 182.851562 78.023438 L 183.484375 57.035156 L 154.996094 56.175781 Z M 154.363281 77.164062 " clip-rule="nonzero"/></clipPath><clipPath id="b77f39b113"><path d="M 154 56 L 171 56 L 171 78 L 154 78 Z M 154 56 " clip-rule="nonzero"/></clipPath><clipPath id="3da991fe7e"><path d="M 182.511719 78.015625 L 154.023438 77.15625 L 154.65625 56.164062 L 183.144531 57.023438 Z M 182.511719 78.015625 " clip-rule="nonzero"/></clipPath><clipPath id="12fbce049c"><path d="M 154.363281 77.164062 L 182.851562 78.023438 L 183.484375 57.035156 L 154.996094 56.175781 Z M 154.363281 77.164062 " clip-rule="nonzero"/></clipPath><clipPath id="5bf817fe4f"><path d="M 278 56 L 295 56 L 295 78 L 278 78 Z M 278 56 " clip-rule="nonzero"/></clipPath><clipPath id="f669b57a2a"><path d="M 294.164062 78.015625 L 265.675781 77.15625 L 266.308594 56.164062 L 294.796875 57.023438 Z M 294.164062 78.015625 " clip-rule="nonzero"/></clipPath><clipPath id="ff92523d1c"><path d="M 266.015625 77.164062 L 294.503906 78.023438 L 295.136719 57.035156 L 266.648438 56.175781 Z M 266.015625 77.164062 " clip-rule="nonzero"/></clipPath><clipPath id="0502a53ae1"><path d="M 266 56 L 283 56 L 283 78 L 266 78 Z M 266 56 " clip-rule="nonzero"/></clipPath><clipPath id="5abdec59bf"><path d="M 294.164062 78.015625 L 265.675781 77.15625 L 266.308594 56.164062 L 294.796875 57.023438 Z M 294.164062 78.015625 " clip-rule="nonzero"/></clipPath><clipPath id="e173a17832"><path d="M 266.015625 77.164062 L 294.503906 78.023438 L 295.136719 57.035156 L 266.648438 56.175781 Z M 266.015625 77.164062 " clip-rule="nonzero"/></clipPath><clipPath id="bae9b4a363"><path d="M 241 56 L 258 56 L 258 78 L 241 78 Z M 241 56 " clip-rule="nonzero"/></clipPath><clipPath id="ecaed76b2a"><path d="M 257.039062 78.015625 L 228.550781 77.15625 L 229.183594 56.164062 L 257.671875 57.023438 Z M 257.039062 78.015625 " clip-rule="nonzero"/></clipPath><clipPath id="de7aea6f61"><path d="M 228.890625 77.164062 L 257.378906 78.023438 L 258.011719 57.035156 L 229.523438 56.175781 Z M 228.890625 77.164062 " clip-rule="nonzero"/></clipPath><clipPath id="965cd5060f"><path d="M 228 56 L 246 56 L 246 78 L 228 78 Z M 228 56 " clip-rule="nonzero"/></clipPath><clipPath id="6d37408c95"><path d="M 257.039062 78.015625 L 228.550781 77.15625 L 229.183594 56.164062 L 257.671875 57.023438 Z M 257.039062 78.015625 " clip-rule="nonzero"/></clipPath><clipPath id="d62730574d"><path d="M 228.890625 77.164062 L 257.378906 78.023438 L 258.011719 57.035156 L 229.523438 56.175781 Z M 228.890625 77.164062 " clip-rule="nonzero"/></clipPath><clipPath id="8e30953ccf"><path d="M 204 56 L 221 56 L 221 78 L 204 78 Z M 204 56 " clip-rule="nonzero"/></clipPath><clipPath id="e48620eff6"><path d="M 220.523438 78.015625 L 192.035156 77.15625 L 192.667969 56.164062 L 221.15625 57.023438 Z M 220.523438 78.015625 " clip-rule="nonzero"/></clipPath><clipPath id="9a88373cc2"><path d="M 192.375 77.164062 L 220.863281 78.023438 L 221.496094 57.035156 L 193.007812 56.175781 Z M 192.375 77.164062 " clip-rule="nonzero"/></clipPath><clipPath id="6544ff6e53"><path d="M 192 56 L 209 56 L 209 78 L 192 78 Z M 192 56 " clip-rule="nonzero"/></clipPath><clipPath id="4f8b90f43d"><path d="M 220.523438 78.015625 L 192.035156 77.15625 L 192.667969 56.164062 L 221.15625 57.023438 Z M 220.523438 78.015625 " clip-rule="nonzero"/></clipPath><clipPath id="b911b7f811"><path d="M 192.375 77.164062 L 220.863281 78.023438 L 221.496094 57.035156 L 193.007812 56.175781 Z M 192.375 77.164062 " clip-rule="nonzero"/></clipPath></defs><g clip-path="url(#8f3650939b)"><g clip-path="url(#14953decaf)"><path fill="#919191" d="M 303.75 52.777344 L 303.75 323.039062 L -0.132812 323.039062 L -0.132812 52.777344 Z M 303.75 52.777344 " fill-opacity="1" fill-rule="nonzero"/></g></g><g clip-path="url(#908a88b436)"><g clip-path="url(#bb2b3284fc)"><path stroke-linecap="butt" transform="matrix(0.000000000000000046, 0.75, -0.75, 0.000000000000000046, 303.749959, 52.777354)" fill="none" stroke-linejoin="miter" d="M 120.062492 394.442673 C 138.520826 400.817674 159.505202 404.999965 180.098953 404.999965 C 200.692704 404.999965 220.505205 401.416632 238.770831 395.041632 C 239.156248 394.838507 239.546873 394.838507 239.937498 394.64059 C 308.515627 369.145797 359.031254 301.81246 360.000004 224.124956 L 360.000004 -0.0000552182 L -0.0000142096 -0.0000552182 L -0.0000142096 223.95829 C 0.973944 302.208294 50.708322 369.54163 120.062492 394.442673 " stroke="#000000" stroke-width="4" stroke-opacity="1" stroke-miterlimit="4"/></g></g><g clip-path="url(#90fcac6069)"><g clip-path="url(#afe7cb0887)"><g clip-path="url(#01f52632c6)"><path fill="#707070" d="M -6.101562 224.332031 L 103.300781 38.394531 L 289.238281 147.796875 L 179.835938 333.734375 Z M -6.101562 224.332031 " fill-opacity="1" fill-rule="nonzero"/></g></g></g><g clip-path="url(#05c8a844ec)"><g clip-path="url(#3c24714cf3)"><g clip-path="url(#4e7ca761bb)"><g clip-path="url(#189a1d7cc0)"><path stroke-linecap="butt" transform="matrix(0.380335, -0.646409, 0.646409, 0.380335, -6.101244, 224.332924)" fill="none" stroke-linejoin="miter" d="M 144.00062 0.00103048 C 64.467901 -0.000336876 -0.00166887 64.47325 -0.00118849 143.998839 C 0.0019331 223.528917 64.471031 288.001127 144.001109 287.998006 C 223.529339 288.002014 287.998908 223.528427 288.002917 144.000197 C 287.999795 64.47012 223.530697 -0.00209112 144.00062 0.00103048 " stroke="#000000" stroke-width="8" stroke-opacity="1" stroke-miterlimit="4"/></g></g></g></g><g clip-path="url(#b3d9f37bce)"><g clip-path="url(#aa667b4875)"><g clip-path="url(#7ad40f1010)"><path fill="#ffde59" d="M 78.660156 161.234375 L 87.53125 146.015625 L 115.109375 162.101562 L 106.238281 177.316406 Z M 78.660156 161.234375 " fill-opacity="1" fill-rule="nonzero"/></g></g></g><g clip-path="url(#036349ca62)"><g clip-path="url(#68a668515c)"><g clip-path="url(#26c3371f24)"><path fill="#ffde59" d="M 171.835938 177.800781 L 163.265625 162.414062 L 191.15625 146.878906 L 199.726562 162.265625 Z M 171.835938 177.800781 " fill-opacity="1" fill-rule="nonzero"/></g></g></g><g clip-path="url(#4b9964724c)"><g clip-path="url(#e95c5e4a33)"><g clip-path="url(#ad7d08c400)"><path fill="#ffde59" d="M 180.710938 235.589844 L 96.261719 234.835938 L 96.917969 161.597656 L 181.367188 162.351562 Z M 180.710938 235.589844 " fill-opacity="1" fill-rule="nonzero"/></g></g></g><g clip-path="url(#d9840b520c)"><g clip-path="url(#b3c4ba079d)"><g clip-path="url(#5d90f28147)"><path fill="#ffde59" d="M 147.257812 243.1875 L 129.644531 243.027344 L 129.929688 211.105469 L 147.542969 211.261719 Z M 147.257812 243.1875 " fill-opacity="1" fill-rule="nonzero"/></g></g></g><g clip-path="url(#3798620045)"><g clip-path="url(#f0d885ef30)"><g clip-path="url(#02b0501e85)"><path fill="#ffde59" d="M 166.871094 236.753906 L 165.09375 292.347656 L 109.5 290.570312 L 111.277344 234.976562 Z M 166.871094 236.753906 " fill-opacity="1" fill-rule="nonzero"/></g></g></g><g clip-path="url(#9babecd5f2)"><g clip-path="url(#28896aed40)"><g clip-path="url(#337d32dddf)"><g clip-path="url(#ba3e839ce3)"><path fill="#000000" d="M 162.992188 264.394531 C 163.171875 258.84375 161.65625 253.808594 158.453125 249.292969 L 163.335938 245.828125 C 167.316406 251.441406 169.199219 257.691406 168.976562 264.585938 Z M 156.792969 247.199219 C 153.109375 243.039062 148.558594 240.414062 143.144531 239.332031 L 144.320312 233.460938 C 151.050781 234.808594 156.703125 238.0625 161.273438 243.230469 Z M 140.503906 238.949219 C 140.019531 238.902344 139.53125 238.875 139.042969 238.859375 C 134.015625 238.699219 129.382812 239.945312 125.140625 242.597656 L 121.96875 237.523438 C 127.238281 234.222656 132.996094 232.675781 139.234375 232.875 C 139.839844 232.894531 140.441406 232.929688 141.042969 232.984375 Z M 122.953125 244.136719 C 118.582031 247.574219 115.699219 251.96875 114.300781 257.3125 L 108.507812 255.796875 C 110.246094 249.152344 113.828125 243.699219 119.25 239.429688 Z M 113.765625 259.914062 C 113.625 260.871094 113.539062 261.835938 113.507812 262.8125 C 113.363281 267.320312 114.367188 271.539062 116.519531 275.46875 L 111.265625 278.347656 C 108.589844 273.457031 107.34375 268.21875 107.523438 262.621094 C 107.5625 261.414062 107.667969 260.214844 107.847656 259.027344 Z M 117.925781 277.742188 C 121.101562 282.300781 125.316406 285.433594 130.570312 287.144531 L 128.714844 292.835938 C 122.191406 290.710938 116.957031 286.820312 113.011719 281.164062 Z M 133.152344 287.832031 C 134.566406 288.128906 136 288.300781 137.457031 288.347656 C 141.457031 288.472656 145.25 287.6875 148.835938 285.988281 L 151.398438 291.398438 C 146.941406 293.511719 142.230469 294.488281 137.265625 294.332031 C 135.460938 294.273438 133.683594 294.058594 131.929688 293.695312 Z M 151.179688 284.71875 C 155.914062 281.8125 159.289062 277.785156 161.308594 272.636719 L 166.882812 274.824219 C 164.375 281.214844 160.1875 286.214844 154.3125 289.820312 Z M 162.144531 270.097656 C 162.648438 268.238281 162.929688 266.339844 162.992188 264.394531 L 168.976562 264.585938 C 168.902344 266.996094 168.550781 269.355469 167.925781 271.664062 Z M 162.144531 270.097656 " fill-opacity="1" fill-rule="nonzero"/></g></g></g></g><g clip-path="url(#03c276ee4b)"><g clip-path="url(#a1e413f6d3)"><g clip-path="url(#f63f366cdc)"><path fill="#ffde59" d="M 245.367188 158.105469 L 196.941406 185.46875 L 169.578125 137.039062 L 218.007812 109.679688 Z M 245.367188 158.105469 " fill-opacity="1" fill-rule="nonzero"/></g></g></g><g clip-path="url(#cac2bb7881)"><g clip-path="url(#60a92c03ab)"><g clip-path="url(#0b4388bf6e)"><g clip-path="url(#3b5633a504)"><path fill="#000000" d="M 219.734375 169.152344 C 224.570312 166.417969 228.085938 162.511719 230.277344 157.425781 L 235.777344 159.800781 C 233.050781 166.117188 228.683594 170.972656 222.679688 174.363281 Z M 231.207031 154.917969 C 232.847656 149.609375 232.726562 144.359375 230.839844 139.167969 L 236.464844 137.125 C 238.8125 143.578125 238.964844 150.097656 236.925781 156.6875 Z M 229.792969 136.714844 C 229.578125 136.277344 229.351562 135.84375 229.109375 135.417969 C 226.636719 131.042969 223.167969 127.730469 218.695312 125.484375 L 221.382812 120.132812 C 226.941406 122.925781 231.253906 127.039062 234.324219 132.472656 C 234.621094 133 234.902344 133.535156 235.167969 134.078125 Z M 216.242188 124.414062 C 211.035156 122.464844 205.785156 122.28125 200.492188 123.863281 L 198.777344 118.128906 C 205.355469 116.160156 211.875 116.386719 218.339844 118.804688 Z M 197.992188 124.761719 C 197.097656 125.136719 196.226562 125.5625 195.378906 126.042969 C 191.453125 128.261719 188.367188 131.3125 186.125 135.191406 L 180.941406 132.199219 C 183.726562 127.375 187.558594 123.585938 192.433594 120.828125 C 193.484375 120.234375 194.5625 119.707031 195.671875 119.242188 Z M 184.917969 137.574219 C 182.671875 142.65625 182.183594 147.886719 183.449219 153.261719 L 177.621094 154.636719 C 176.046875 147.957031 176.65625 141.464844 179.441406 135.15625 Z M 184.203125 155.828125 C 184.6875 157.191406 185.285156 158.503906 186.003906 159.773438 C 187.96875 163.257812 190.613281 166.089844 193.925781 168.269531 L 190.636719 173.273438 C 186.515625 170.558594 183.230469 167.042969 180.789062 162.71875 C 179.902344 161.148438 179.15625 159.515625 178.558594 157.828125 Z M 196.230469 169.613281 C 201.171875 172.148438 206.367188 172.941406 211.8125 171.992188 L 212.84375 177.890625 C 206.078125 179.070312 199.628906 178.085938 193.5 174.941406 Z M 214.417969 171.390625 C 216.269531 170.855469 218.039062 170.109375 219.734375 169.152344 L 222.679688 174.363281 C 220.578125 175.550781 218.382812 176.476562 216.085938 177.140625 Z M 214.417969 171.390625 " fill-opacity="1" fill-rule="nonzero"/></g></g></g></g><g clip-path="url(#50ea722efb)"><g clip-path="url(#b3b106b380)"><g clip-path="url(#3f64541090)"><path fill="#ffde59" d="M 112.730469 138.425781 L 84.523438 186.363281 L 36.585938 158.15625 L 64.792969 110.21875 Z M 112.730469 138.425781 " fill-opacity="1" fill-rule="nonzero"/></g></g></g><g clip-path="url(#9989a758d7)"><g clip-path="url(#811323345b)"><g clip-path="url(#ba140a22bc)"><g clip-path="url(#567bb040b0)"><path fill="#000000" d="M 96.078125 160.824219 C 98.894531 156.039062 99.980469 150.894531 99.332031 145.394531 L 105.277344 144.695312 C 106.082031 151.527344 104.738281 157.917969 101.238281 163.859375 Z M 98.878906 142.761719 C 97.640625 137.34375 94.902344 132.859375 90.671875 129.3125 L 94.515625 124.722656 C 99.777344 129.132812 103.175781 134.699219 104.714844 141.425781 Z M 88.535156 127.710938 C 88.132812 127.441406 87.71875 127.179688 87.296875 126.933594 C 82.964844 124.382812 78.300781 123.257812 73.304688 123.550781 L 72.953125 117.574219 C 79.160156 117.207031 84.953125 118.609375 90.332031 121.773438 C 90.855469 122.078125 91.367188 122.402344 91.867188 122.738281 Z M 70.644531 123.855469 C 65.160156 124.777344 60.527344 127.25 56.738281 131.269531 L 52.378906 127.164062 C 57.089844 122.167969 62.84375 119.097656 69.652344 117.949219 Z M 55.023438 133.296875 C 54.4375 134.070312 53.898438 134.875 53.40625 135.714844 C 51.117188 139.601562 49.976562 143.789062 49.980469 148.269531 L 43.992188 148.277344 C 43.988281 142.703125 45.40625 137.507812 48.246094 132.679688 C 48.855469 131.640625 49.523438 130.640625 50.25 129.683594 Z M 50.128906 150.9375 C 50.730469 156.460938 52.925781 161.230469 56.714844 165.25 L 52.359375 169.359375 C 47.652344 164.367188 44.925781 158.441406 44.175781 151.585938 Z M 58.65625 167.09375 C 59.753906 168.03125 60.929688 168.867188 62.1875 169.605469 C 65.632812 171.636719 69.339844 172.761719 73.300781 172.992188 L 72.960938 178.96875 C 68.03125 178.683594 63.429688 177.285156 59.152344 174.765625 C 57.59375 173.851562 56.132812 172.8125 54.769531 171.648438 Z M 75.96875 173 C 81.515625 172.71875 86.410156 170.800781 90.648438 167.25 L 94.492188 171.839844 C 89.230469 176.25 83.15625 178.628906 76.273438 178.980469 Z M 92.601562 165.425781 C 93.933594 164.035156 95.09375 162.5 96.078125 160.824219 L 101.238281 163.859375 C 100.015625 165.9375 98.578125 167.839844 96.921875 169.566406 Z M 92.601562 165.425781 " fill-opacity="1" fill-rule="nonzero"/></g></g></g></g><g clip-path="url(#b613e9ea2c)"><g clip-path="url(#9837eac799)"><g clip-path="url(#3874d04409)"><path fill="#707070" d="M 145.105469 270.699219 L 131.148438 270.574219 L 131.273438 256.617188 L 145.230469 256.742188 Z M 145.105469 270.699219 " fill-opacity="1" fill-rule="nonzero"/></g></g></g><g clip-path="url(#e2ce148826)"><g clip-path="url(#db37826068)"><g clip-path="url(#a02d2e6fe7)"><path fill="#707070" d="M 204.835938 157.082031 L 197.96875 144.929688 L 210.121094 138.0625 L 216.988281 150.214844 Z M 204.835938 157.082031 " fill-opacity="1" fill-rule="nonzero"/></g></g></g><g clip-path="url(#08347a9c00)"><g clip-path="url(#beae628ff6)"><g clip-path="url(#b4622de354)"><path fill="#707070" d="M 81.070312 156.238281 L 67.109375 156.113281 L 67.234375 142.152344 L 81.195312 142.277344 Z M 81.070312 156.238281 " fill-opacity="1" fill-rule="nonzero"/></g></g></g><g clip-path="url(#8b92f82dfe)"><g clip-path="url(#689a2f6871)"><g clip-path="url(#231c8e5b95)"><g clip-path="url(#bcaf33ff36)"><path fill="#ffffff" d="M 101.074219 232.796875 C 101.058594 232.835938 101.03125 232.859375 100.988281 232.867188 C 100.953125 233.007812 101.144531 233.140625 101 233.285156 C 100.917969 233.726562 100.578125 233.8125 100.207031 233.84375 C 99.15625 233.917969 98.121094 233.824219 97.089844 233.664062 C 93.398438 233.09375 90.007812 231.777344 86.820312 229.851562 C 81.257812 226.484375 77.484375 221.652344 75.003906 215.746094 C 73.851562 213.007812 73.207031 210.117188 72.695312 207.191406 C 72.394531 205.476562 72.199219 203.742188 71.960938 202.015625 C 71.980469 201.949219 72 201.882812 72.019531 201.820312 C 71.976562 201.753906 71.949219 201.667969 71.890625 201.632812 C 71.84375 201.605469 71.804688 201.671875 71.8125 201.734375 C 71.472656 202.335938 71.273438 202.984375 71.105469 203.644531 C 70.992188 204.097656 70.847656 204.527344 70.574219 204.910156 C 70.335938 205.882812 69.6875 206.359375 68.777344 206.261719 C 68.320312 204.324219 68.90625 202.550781 69.648438 200.789062 C 69.921875 200.136719 70.152344 199.464844 70.394531 198.796875 C 70.96875 197.199219 70.976562 197.464844 72.335938 197.191406 C 72.640625 197.132812 72.949219 197.144531 73.257812 197.183594 C 73.375 197.199219 73.476562 197.226562 73.542969 197.324219 C 73.894531 197.273438 74.0625 197.515625 74.21875 197.757812 C 74.675781 198.476562 75.121094 199.199219 75.574219 199.921875 C 75.753906 200.015625 75.835938 200.183594 75.910156 200.359375 C 76.09375 200.441406 76.171875 200.617188 76.257812 200.78125 C 76.402344 200.820312 76.449219 200.957031 76.539062 201.050781 C 77.722656 202.335938 79.03125 203.46875 80.539062 204.371094 C 80.652344 204.441406 80.757812 204.515625 80.867188 204.589844 C 81 204.675781 81.152344 204.773438 81.101562 204.945312 C 81.066406 205.078125 80.894531 205.164062 80.78125 205.148438 C 80.269531 205.089844 79.804688 205.347656 79.304688 205.332031 C 79.085938 205.328125 78.882812 205.230469 78.683594 205.128906 C 77.128906 204.355469 75.757812 203.324219 74.492188 202.152344 C 74.378906 202.046875 74.28125 201.921875 74.148438 201.84375 C 73.996094 201.753906 73.910156 201.871094 73.855469 202.007812 C 73.972656 202.136719 73.984375 202.28125 73.902344 202.433594 C 73.984375 202.574219 74.054688 202.71875 73.957031 202.882812 C 73.996094 202.90625 74.003906 202.933594 73.972656 202.96875 C 74.054688 203.101562 74.113281 203.238281 74.03125 203.394531 C 74.070312 203.496094 74.121094 203.59375 74.136719 203.703125 C 74.335938 204.871094 74.515625 206.042969 74.726562 207.207031 C 74.917969 208.265625 75.144531 209.316406 75.355469 210.371094 C 75.445312 210.640625 75.546875 210.910156 75.625 211.179688 C 76.402344 213.832031 77.492188 216.347656 78.960938 218.691406 C 79.484375 219.527344 80.035156 220.347656 80.570312 221.171875 C 80.765625 221.265625 80.839844 221.449219 80.917969 221.632812 C 81.105469 221.714844 81.179688 221.890625 81.253906 222.0625 C 81.4375 222.128906 81.5 222.300781 81.582031 222.453125 C 81.710938 222.488281 81.765625 222.582031 81.796875 222.699219 C 81.84375 222.714844 81.867188 222.742188 81.867188 222.792969 C 82.007812 222.832031 82.058594 222.964844 82.148438 223.054688 C 82.589844 223.507812 82.949219 224.035156 83.445312 224.433594 C 83.433594 224.507812 83.515625 224.671875 83.3125 224.542969 C 83.175781 224.457031 83.136719 224.476562 83.128906 224.53125 C 83.121094 224.578125 83.140625 224.648438 83.148438 224.707031 C 84.589844 226.089844 86.183594 227.28125 87.855469 228.367188 C 88.019531 228.453125 88.183594 228.539062 88.351562 228.625 C 89.335938 229.140625 90.320312 229.65625 91.300781 230.175781 C 91.347656 230.167969 91.386719 230.171875 91.421875 230.191406 C 91.441406 230.207031 91.460938 230.226562 91.480469 230.25 C 91.554688 230.238281 91.609375 230.261719 91.652344 230.324219 C 91.726562 230.308594 91.78125 230.335938 91.824219 230.398438 C 91.898438 230.382812 91.957031 230.410156 91.996094 230.472656 C 92.070312 230.457031 92.128906 230.480469 92.167969 230.546875 C 92.246094 230.523438 92.304688 230.546875 92.34375 230.613281 L 92.34375 230.617188 C 92.417969 230.59375 92.476562 230.617188 92.515625 230.683594 L 92.519531 230.683594 C 92.578125 230.703125 92.632812 230.722656 92.691406 230.75 L 92.695312 230.75 C 92.769531 230.730469 92.828125 230.75 92.867188 230.816406 L 92.875 230.820312 C 92.945312 230.796875 93.003906 230.816406 93.042969 230.882812 L 93.050781 230.886719 C 93.050781 230.886719 93.054688 230.886719 93.054688 230.886719 C 93.054688 230.886719 93.050781 230.886719 93.050781 230.886719 C 93.125 230.863281 93.183594 230.882812 93.222656 230.949219 L 93.226562 230.949219 C 93.300781 230.925781 93.359375 230.949219 93.398438 231.015625 L 93.402344 231.015625 C 93.476562 230.992188 93.535156 231.015625 93.578125 231.078125 C 94.132812 231.238281 94.6875 231.398438 95.242188 231.558594 C 95.503906 231.734375 95.816406 231.765625 96.113281 231.835938 C 96.136719 231.808594 96.152344 231.777344 96.160156 231.75 C 96.175781 231.703125 96.175781 231.65625 96.160156 231.601562 C 96.386719 231.632812 96.621094 231.644531 96.820312 231.777344 C 96.875 231.820312 96.9375 231.859375 97.011719 231.867188 C 96.949219 231.835938 96.882812 231.808594 96.820312 231.777344 C 96.894531 231.769531 96.964844 231.773438 97.003906 231.847656 C 97.109375 231.800781 97.207031 231.820312 97.300781 231.882812 C 97.371094 231.851562 97.429688 231.855469 97.476562 231.921875 C 97.554688 231.90625 97.621094 231.910156 97.675781 231.972656 C 97.710938 231.960938 97.746094 231.960938 97.78125 231.980469 C 98.011719 231.972656 98.230469 232.007812 98.4375 232.097656 C 98.601562 232.097656 98.761719 232.09375 98.910156 232.179688 C 99.011719 232.140625 99.109375 232.179688 99.203125 232.210938 C 99.839844 232.210938 100.472656 232.332031 101.140625 232.207031 C 101.078125 232.4375 101.246094 232.628906 101.074219 232.796875 Z M 73.851562 203.023438 C 73.855469 203.023438 73.855469 203.023438 73.855469 203.027344 C 73.855469 203.027344 73.851562 203.027344 73.851562 203.027344 C 73.855469 203.027344 73.855469 203.027344 73.855469 203.027344 C 73.855469 203.027344 73.859375 203.023438 73.859375 203.023438 C 73.855469 203.023438 73.855469 203.023438 73.851562 203.023438 Z M 93.0625 231.28125 C 93.046875 231.277344 93.03125 231.277344 93.015625 231.273438 C 93.019531 231.277344 93.023438 231.277344 93.027344 231.277344 C 93.039062 231.285156 93.050781 231.289062 93.0625 231.292969 C 93.0625 231.289062 93.0625 231.285156 93.0625 231.28125 Z M 91.308594 230.183594 C 91.304688 230.183594 91.308594 230.183594 91.304688 230.1875 C 91.304688 230.191406 91.300781 230.195312 91.300781 230.199219 L 91.296875 230.21875 L 91.308594 230.183594 C 91.308594 230.183594 91.308594 230.1875 91.3125 230.183594 C 91.308594 230.1875 91.308594 230.183594 91.308594 230.183594 Z M 93.078125 231.347656 C 93.074219 231.332031 93.070312 231.3125 93.066406 231.296875 C 93.054688 231.292969 93.042969 231.285156 93.03125 231.28125 C 93.054688 231.296875 93.070312 231.316406 93.078125 231.347656 Z M 92.949219 231.253906 C 92.933594 231.25 92.921875 231.246094 92.90625 231.242188 C 92.90625 231.242188 92.90625 231.242188 92.902344 231.242188 C 92.917969 231.246094 92.933594 231.25 92.949219 231.253906 Z M 99.925781 233.179688 C 99.925781 233.183594 99.929688 233.183594 99.929688 233.183594 C 99.929688 233.183594 99.933594 233.183594 99.933594 233.183594 C 99.933594 233.183594 99.9375 233.183594 99.9375 233.183594 C 99.933594 233.179688 99.929688 233.183594 99.925781 233.179688 Z M 99.644531 233.179688 C 99.640625 233.179688 99.636719 233.183594 99.632812 233.179688 C 99.636719 233.179688 99.640625 233.179688 99.644531 233.179688 Z M 97.089844 231.953125 C 97.089844 231.96875 97.09375 231.980469 97.089844 231.996094 C 97.097656 231.992188 97.105469 231.992188 97.113281 231.988281 C 97.105469 231.976562 97.097656 231.964844 97.089844 231.953125 Z M 97.585938 231.992188 C 97.609375 232 97.636719 231.996094 97.664062 231.988281 C 97.664062 231.988281 97.664062 231.988281 97.660156 231.988281 C 97.636719 231.992188 97.609375 231.996094 97.585938 231.992188 Z M 97.585938 231.992188 " fill-opacity="1" fill-rule="nonzero"/></g></g></g></g><g clip-path="url(#1e7c38ba15)"><g clip-path="url(#8d7ce24f01)"><g clip-path="url(#ecb4a21364)"><g clip-path="url(#59e72d2f42)"><path fill="#ffffff" d="M 92.699219 230.753906 C 92.640625 230.734375 92.585938 230.710938 92.527344 230.691406 C 92.601562 230.667969 92.660156 230.691406 92.699219 230.753906 Z M 92.699219 230.753906 " fill-opacity="1" fill-rule="nonzero"/></g></g></g></g><g clip-path="url(#cb53d4c89f)"><g clip-path="url(#7d17f4345e)"><g clip-path="url(#ffc9073bdb)"><g clip-path="url(#df3000ac70)"><path fill="#ffffff" d="M 116.140625 125.203125 C 116.117188 125.171875 116.113281 125.132812 116.128906 125.09375 C 116.035156 124.984375 115.816406 125.066406 115.78125 124.863281 C 115.46875 124.542969 115.59375 124.214844 115.785156 123.894531 C 116.324219 122.992188 117 122.199219 117.722656 121.449219 C 120.3125 118.757812 123.339844 116.742188 126.753906 115.246094 C 132.707031 112.636719 138.828125 112.328125 145.085938 113.699219 C 147.988281 114.335938 150.726562 115.472656 153.410156 116.734375 C 154.988281 117.480469 156.519531 118.316406 158.066406 119.117188 C 158.109375 119.171875 158.152344 119.222656 158.195312 119.277344 C 158.273438 119.28125 158.359375 119.308594 158.421875 119.28125 C 158.472656 119.257812 158.4375 119.1875 158.382812 119.15625 C 158.085938 118.535156 157.671875 117.996094 157.226562 117.480469 C 156.921875 117.125 156.65625 116.761719 156.5 116.316406 C 155.839844 115.5625 155.824219 114.761719 156.425781 114.070312 C 158.273438 114.8125 159.390625 116.3125 160.398438 117.929688 C 160.777344 118.53125 161.191406 119.105469 161.597656 119.6875 C 162.574219 121.078125 162.355469 120.933594 161.796875 122.199219 C 161.667969 122.480469 161.480469 122.730469 161.269531 122.960938 C 161.191406 123.042969 161.113281 123.113281 160.992188 123.113281 C 160.832031 123.425781 160.539062 123.425781 160.25 123.414062 C 159.398438 123.375 158.550781 123.320312 157.699219 123.273438 C 157.519531 123.371094 157.335938 123.339844 157.148438 123.296875 C 156.972656 123.402344 156.785156 123.367188 156.601562 123.339844 C 156.488281 123.433594 156.347656 123.398438 156.222656 123.414062 C 154.488281 123.644531 152.808594 124.0625 151.203125 124.773438 C 151.082031 124.828125 150.957031 124.871094 150.835938 124.917969 C 150.6875 124.976562 150.523438 125.046875 150.410156 124.90625 C 150.324219 124.800781 150.347656 124.613281 150.425781 124.527344 C 150.769531 124.144531 150.828125 123.613281 151.125 123.214844 C 151.257812 123.035156 151.453125 122.929688 151.652344 122.820312 C 153.179688 121.996094 154.808594 121.46875 156.496094 121.109375 C 156.648438 121.078125 156.808594 121.066406 156.945312 121.003906 C 157.109375 120.933594 157.0625 120.792969 156.984375 120.671875 C 156.808594 120.691406 156.6875 120.617188 156.605469 120.464844 C 156.445312 120.449219 156.289062 120.421875 156.207031 120.25 C 156.167969 120.269531 156.140625 120.257812 156.128906 120.214844 C 155.972656 120.207031 155.832031 120.171875 155.75 120.019531 C 155.644531 119.988281 155.535156 119.972656 155.4375 119.925781 C 154.367188 119.414062 153.304688 118.886719 152.230469 118.390625 C 151.253906 117.9375 150.265625 117.515625 149.28125 117.085938 C 149.007812 117 148.730469 116.929688 148.464844 116.835938 C 145.847656 115.949219 143.160156 115.390625 140.402344 115.242188 C 139.417969 115.1875 138.429688 115.167969 137.445312 115.132812 C 137.257812 115.234375 137.066406 115.191406 136.871094 115.152344 C 136.695312 115.253906 136.511719 115.214844 136.324219 115.179688 C 136.164062 115.289062 135.988281 115.242188 135.816406 115.222656 C 135.714844 115.304688 135.605469 115.296875 135.492188 115.257812 C 135.453125 115.285156 135.414062 115.285156 135.375 115.257812 C 135.261719 115.347656 135.125 115.316406 135 115.335938 C 134.375 115.4375 133.738281 115.425781 133.125 115.605469 C 133.070312 115.554688 132.890625 115.523438 133.113281 115.433594 C 133.257812 115.371094 133.269531 115.328125 133.230469 115.289062 C 133.195312 115.257812 133.121094 115.230469 133.070312 115.203125 C 131.113281 115.585938 129.222656 116.203125 127.371094 116.945312 C 127.207031 117.03125 127.039062 117.117188 126.875 117.203125 C 125.886719 117.710938 124.894531 118.21875 123.90625 118.722656 C 123.886719 118.765625 123.859375 118.792969 123.824219 118.808594 C 123.800781 118.820312 123.773438 118.824219 123.746094 118.824219 C 123.710938 118.894531 123.65625 118.925781 123.585938 118.921875 C 123.554688 118.992188 123.5 119.023438 123.425781 119.019531 C 123.394531 119.09375 123.339844 119.125 123.265625 119.121094 C 123.234375 119.191406 123.183594 119.226562 123.105469 119.21875 C 123.078125 119.292969 123.027344 119.328125 122.949219 119.320312 L 122.945312 119.324219 C 122.921875 119.394531 122.867188 119.429688 122.792969 119.425781 L 122.789062 119.425781 C 122.742188 119.460938 122.691406 119.496094 122.640625 119.527344 L 122.632812 119.53125 C 122.609375 119.605469 122.558594 119.640625 122.480469 119.636719 L 122.476562 119.636719 C 122.453125 119.710938 122.402344 119.746094 122.324219 119.742188 L 122.320312 119.746094 C 122.320312 119.746094 122.316406 119.746094 122.316406 119.746094 C 122.316406 119.746094 122.320312 119.746094 122.320312 119.746094 C 122.296875 119.820312 122.246094 119.855469 122.167969 119.847656 L 122.164062 119.851562 C 122.140625 119.925781 122.089844 119.960938 122.011719 119.957031 C 121.988281 120.03125 121.933594 120.066406 121.859375 120.066406 C 121.40625 120.425781 120.957031 120.789062 120.507812 121.152344 C 120.210938 121.265625 120.007812 121.5 119.78125 121.703125 C 119.789062 121.738281 119.804688 121.765625 119.824219 121.789062 C 119.855469 121.832031 119.890625 121.855469 119.945312 121.875 C 119.789062 122.042969 119.644531 122.226562 119.421875 122.3125 C 119.351562 122.335938 119.285156 122.363281 119.234375 122.421875 C 119.296875 122.386719 119.359375 122.347656 119.421875 122.3125 C 119.382812 122.378906 119.339844 122.433594 119.257812 122.421875 C 119.234375 122.535156 119.160156 122.605469 119.054688 122.644531 C 119.042969 122.71875 119.003906 122.765625 118.925781 122.769531 C 118.894531 122.839844 118.851562 122.894531 118.769531 122.902344 C 118.757812 122.9375 118.738281 122.96875 118.699219 122.984375 C 118.578125 123.175781 118.421875 123.332031 118.226562 123.453125 C 118.132812 123.585938 118.042969 123.71875 117.890625 123.792969 C 117.863281 123.898438 117.773438 123.953125 117.695312 124.015625 C 117.328125 124.535156 116.867188 124.980469 116.582031 125.601562 C 116.429688 125.414062 116.175781 125.445312 116.140625 125.203125 Z M 156.152344 120.082031 C 156.152344 120.082031 156.152344 120.082031 156.148438 120.082031 C 156.148438 120.082031 156.152344 120.082031 156.152344 120.082031 C 156.148438 120.082031 156.148438 120.082031 156.148438 120.082031 C 156.148438 120.085938 156.148438 120.085938 156.148438 120.089844 C 156.152344 120.085938 156.152344 120.085938 156.152344 120.082031 Z M 121.988281 119.527344 C 122 119.515625 122.011719 119.503906 122.023438 119.492188 C 122.019531 119.496094 122.015625 119.496094 122.011719 119.5 C 122 119.507812 121.988281 119.511719 121.980469 119.523438 C 121.980469 119.523438 121.984375 119.523438 121.988281 119.527344 Z M 123.898438 118.722656 C 123.898438 118.722656 123.894531 118.722656 123.894531 118.722656 C 123.890625 118.71875 123.890625 118.710938 123.886719 118.707031 L 123.875 118.695312 L 123.894531 118.722656 C 123.894531 118.722656 123.894531 118.722656 123.894531 118.726562 C 123.894531 118.722656 123.894531 118.722656 123.898438 118.722656 Z M 121.925781 119.5 C 121.941406 119.507812 121.960938 119.515625 121.976562 119.519531 C 121.988281 119.511719 121.996094 119.507812 122.007812 119.5 C 121.984375 119.511719 121.957031 119.511719 121.925781 119.5 Z M 122.078125 119.449219 C 122.089844 119.441406 122.101562 119.429688 122.113281 119.421875 C 122.113281 119.421875 122.113281 119.421875 122.113281 119.417969 C 122.101562 119.429688 122.089844 119.441406 122.078125 119.449219 Z M 116.484375 124.046875 C 116.484375 124.046875 116.480469 124.046875 116.480469 124.046875 C 116.480469 124.046875 116.476562 124.050781 116.476562 124.050781 C 116.476562 124.050781 116.476562 124.054688 116.476562 124.054688 C 116.480469 124.054688 116.480469 124.050781 116.484375 124.046875 Z M 116.652344 123.816406 C 116.652344 123.8125 116.652344 123.808594 116.652344 123.808594 C 116.652344 123.808594 116.652344 123.8125 116.652344 123.816406 Z M 119.121094 122.429688 C 119.109375 122.425781 119.097656 122.417969 119.085938 122.40625 C 119.082031 122.417969 119.082031 122.425781 119.078125 122.433594 C 119.09375 122.433594 119.109375 122.433594 119.121094 122.429688 Z M 118.804688 122.820312 C 118.785156 122.832031 118.769531 122.855469 118.761719 122.878906 C 118.761719 122.878906 118.761719 122.878906 118.765625 122.878906 C 118.773438 122.855469 118.785156 122.835938 118.804688 122.820312 Z M 118.804688 122.820312 " fill-opacity="1" fill-rule="nonzero"/></g></g></g></g><g clip-path="url(#d2ef490bf5)"><g clip-path="url(#b45da7c7b4)"><g clip-path="url(#52ff4f76e2)"><g clip-path="url(#b5a9c75193)"><path fill="#ffffff" d="M 122.628906 119.53125 C 122.679688 119.496094 122.730469 119.464844 122.78125 119.429688 C 122.753906 119.503906 122.703125 119.535156 122.628906 119.53125 Z M 122.628906 119.53125 " fill-opacity="1" fill-rule="nonzero"/></g></g></g></g><g clip-path="url(#d2a4f0d8eb)"><g clip-path="url(#0f1d3223d2)"><g clip-path="url(#46b4a20761)"><g clip-path="url(#f56c89f1e5)"><path fill="#ffffff" d="M 206.246094 196.230469 C 206.289062 196.230469 206.320312 196.246094 206.34375 196.285156 C 206.488281 196.269531 206.542969 196.042969 206.730469 196.128906 C 207.175781 196.054688 207.371094 196.34375 207.527344 196.683594 C 207.960938 197.644531 208.226562 198.648438 208.433594 199.671875 C 209.164062 203.332031 209.097656 206.96875 208.378906 210.625 C 207.132812 217.007812 203.894531 222.210938 199.203125 226.574219 C 197.027344 228.59375 194.53125 230.195312 191.960938 231.679688 C 190.453125 232.554688 188.894531 233.332031 187.351562 234.152344 C 187.285156 234.15625 187.214844 234.160156 187.148438 234.164062 C 187.101562 234.226562 187.027344 234.28125 187.015625 234.347656 C 187.007812 234.402344 187.082031 234.417969 187.140625 234.386719 C 187.820312 234.5 188.5 234.464844 189.175781 234.394531 C 189.640625 234.34375 190.09375 234.332031 190.546875 234.457031 C 191.542969 234.34375 192.210938 234.789062 192.4375 235.679688 C 190.773438 236.773438 188.902344 236.835938 186.996094 236.742188 C 186.289062 236.710938 185.578125 236.722656 184.871094 236.726562 C 183.171875 236.734375 183.417969 236.640625 182.695312 235.457031 C 182.535156 235.191406 182.4375 234.894531 182.371094 234.589844 C 182.34375 234.480469 182.332031 234.375 182.402344 234.277344 C 182.234375 233.964844 182.402344 233.722656 182.578125 233.496094 C 183.09375 232.820312 183.621094 232.148438 184.144531 231.476562 C 184.167969 231.273438 184.300781 231.140625 184.4375 231.011719 C 184.453125 230.808594 184.589844 230.675781 184.71875 230.539062 C 184.703125 230.390625 184.8125 230.296875 184.871094 230.183594 C 185.671875 228.632812 186.285156 227.007812 186.617188 225.285156 C 186.640625 225.15625 186.675781 225.027344 186.707031 224.898438 C 186.742188 224.746094 186.78125 224.574219 186.960938 224.558594 C 187.097656 224.546875 187.234375 224.675781 187.261719 224.789062 C 187.378906 225.289062 187.785156 225.640625 187.941406 226.113281 C 188.011719 226.324219 187.992188 226.542969 187.964844 226.765625 C 187.769531 228.492188 187.277344 230.132812 186.609375 231.726562 C 186.550781 231.867188 186.46875 232.003906 186.441406 232.152344 C 186.40625 232.328125 186.546875 232.371094 186.691406 232.375 C 186.777344 232.21875 186.90625 232.160156 187.078125 232.183594 C 187.183594 232.058594 187.292969 231.945312 187.480469 231.976562 C 187.488281 231.929688 187.511719 231.917969 187.554688 231.933594 C 187.652344 231.808594 187.757812 231.710938 187.933594 231.730469 C 188.019531 231.660156 188.09375 231.582031 188.1875 231.527344 C 189.214844 230.9375 190.253906 230.367188 191.277344 229.765625 C 192.203125 229.222656 193.113281 228.652344 194.03125 228.089844 C 194.253906 227.910156 194.46875 227.726562 194.699219 227.558594 C 196.921875 225.914062 198.910156 224.027344 200.605469 221.84375 C 201.210938 221.066406 201.789062 220.265625 202.382812 219.476562 C 202.402344 219.261719 202.546875 219.128906 202.691406 218.996094 C 202.707031 218.789062 202.84375 218.660156 202.980469 218.53125 C 202.980469 218.332031 203.121094 218.21875 203.234375 218.085938 C 203.222656 217.957031 203.292969 217.871094 203.390625 217.800781 C 203.390625 217.753906 203.410156 217.722656 203.457031 217.703125 C 203.445312 217.558594 203.550781 217.464844 203.609375 217.351562 C 203.878906 216.78125 204.253906 216.261719 204.453125 215.65625 C 204.527344 215.644531 204.652344 215.511719 204.601562 215.746094 C 204.570312 215.902344 204.601562 215.933594 204.652344 215.921875 C 204.699219 215.914062 204.761719 215.871094 204.816406 215.84375 C 205.617188 214.015625 206.1875 212.109375 206.632812 210.164062 C 206.65625 209.980469 206.679688 209.796875 206.707031 209.609375 C 206.851562 208.511719 206.996094 207.40625 207.144531 206.304688 C 207.121094 206.265625 207.113281 206.226562 207.121094 206.1875 C 207.128906 206.164062 207.136719 206.140625 207.15625 206.113281 C 207.117188 206.050781 207.121094 205.984375 207.167969 205.925781 C 207.125 205.863281 207.132812 205.800781 207.175781 205.738281 C 207.132812 205.675781 207.140625 205.613281 207.1875 205.550781 C 207.144531 205.488281 207.144531 205.425781 207.195312 205.363281 C 207.148438 205.300781 207.152344 205.238281 207.199219 205.179688 L 207.199219 205.175781 C 207.15625 205.113281 207.15625 205.050781 207.203125 204.992188 L 207.207031 204.988281 C 207.203125 204.929688 207.203125 204.867188 207.207031 204.804688 L 207.207031 204.800781 C 207.164062 204.738281 207.160156 204.675781 207.210938 204.617188 L 207.210938 204.609375 C 207.164062 204.546875 207.164062 204.488281 207.210938 204.425781 L 207.210938 204.421875 C 207.210938 204.421875 207.210938 204.417969 207.210938 204.417969 C 207.210938 204.417969 207.210938 204.421875 207.210938 204.421875 C 207.164062 204.359375 207.164062 204.296875 207.210938 204.234375 L 207.210938 204.230469 C 207.164062 204.171875 207.164062 204.109375 207.210938 204.046875 C 207.164062 203.984375 207.164062 203.917969 207.210938 203.859375 C 207.171875 203.28125 207.128906 202.707031 207.089844 202.128906 C 207.164062 201.824219 207.085938 201.519531 207.050781 201.21875 C 207.015625 201.207031 206.984375 201.203125 206.953125 201.203125 C 206.902344 201.207031 206.859375 201.222656 206.816406 201.253906 C 206.765625 201.03125 206.695312 200.808594 206.753906 200.574219 C 206.773438 200.503906 206.789062 200.433594 206.769531 200.359375 C 206.765625 200.429688 206.757812 200.503906 206.753906 200.574219 C 206.722656 200.503906 206.699219 200.4375 206.757812 200.378906 C 206.675781 200.292969 206.660156 200.195312 206.6875 200.085938 C 206.632812 200.03125 206.617188 199.972656 206.660156 199.90625 C 206.621094 199.839844 206.601562 199.773438 206.640625 199.703125 C 206.617188 199.671875 206.605469 199.640625 206.613281 199.601562 C 206.527344 199.390625 206.484375 199.171875 206.496094 198.945312 C 206.441406 198.792969 206.382812 198.640625 206.410156 198.472656 C 206.339844 198.390625 206.34375 198.289062 206.339844 198.1875 C 206.121094 197.585938 206.015625 196.953125 205.671875 196.367188 C 205.910156 196.351562 206.03125 196.121094 206.246094 196.230469 Z M 187.648438 232.027344 C 187.648438 232.023438 187.648438 232.023438 187.652344 232.023438 C 187.652344 232.023438 187.652344 232.027344 187.652344 232.027344 C 187.652344 232.023438 187.652344 232.023438 187.652344 232.023438 C 187.648438 232.023438 187.648438 232.019531 187.648438 232.019531 C 187.648438 232.023438 187.648438 232.023438 187.648438 232.027344 Z M 207.578125 204.273438 C 207.582031 204.289062 207.585938 204.304688 207.585938 204.316406 C 207.589844 204.3125 207.589844 204.308594 207.589844 204.304688 C 207.589844 204.292969 207.589844 204.28125 207.589844 204.265625 C 207.585938 204.269531 207.585938 204.269531 207.578125 204.273438 Z M 207.152344 206.296875 C 207.152344 206.300781 207.152344 206.296875 207.15625 206.296875 C 207.160156 206.296875 207.164062 206.300781 207.167969 206.296875 L 207.1875 206.296875 L 207.152344 206.296875 C 207.152344 206.296875 207.152344 206.296875 207.152344 206.292969 C 207.152344 206.296875 207.152344 206.296875 207.152344 206.296875 Z M 207.636719 204.234375 C 207.621094 204.246094 207.605469 204.257812 207.59375 204.265625 C 207.589844 204.277344 207.589844 204.289062 207.589844 204.304688 C 207.59375 204.277344 207.609375 204.253906 207.636719 204.234375 Z M 207.59375 204.390625 C 207.59375 204.402344 207.59375 204.417969 207.59375 204.433594 C 207.597656 204.433594 207.59375 204.433594 207.597656 204.4375 C 207.59375 204.421875 207.59375 204.402344 207.59375 204.390625 Z M 207.003906 197.175781 C 207.003906 197.171875 207.003906 197.171875 207.003906 197.167969 C 207.003906 197.164062 207.003906 197.164062 207 197.164062 C 207 197.167969 207.003906 197.167969 207.003906 197.175781 Z M 207.097656 197.441406 C 207.101562 197.445312 207.105469 197.445312 207.101562 197.449219 C 207.101562 197.449219 207.097656 197.441406 207.097656 197.441406 Z M 206.828125 200.261719 C 206.839844 200.253906 206.851562 200.25 206.867188 200.246094 C 206.859375 200.238281 206.855469 200.230469 206.847656 200.226562 C 206.839844 200.238281 206.832031 200.25 206.828125 200.261719 Z M 206.6875 199.78125 C 206.6875 199.753906 206.679688 199.730469 206.664062 199.710938 C 206.664062 199.710938 206.664062 199.710938 206.660156 199.710938 C 206.675781 199.734375 206.6875 199.757812 206.6875 199.78125 Z M 206.6875 199.78125 " fill-opacity="1" fill-rule="nonzero"/></g></g></g></g><g clip-path="url(#8551aa8e77)"><g clip-path="url(#ef19522442)"><g clip-path="url(#ea96565f4e)"><g clip-path="url(#a4d7b2e081)"><path fill="#ffffff" d="M 207.210938 204.792969 C 207.210938 204.855469 207.207031 204.917969 207.207031 204.976562 C 207.160156 204.914062 207.164062 204.855469 207.210938 204.792969 Z M 207.210938 204.792969 " fill-opacity="1" fill-rule="nonzero"/></g></g></g></g><path stroke-linecap="butt" transform="matrix(0.74987, 0.00605191, -0.00605275, 0.749976, 136.490312, 77.86835)" fill="none" stroke-linejoin="miter" d="M -0.00220425 1.998534 L 223.03636 2.000873 " stroke="#000000" stroke-width="4" stroke-opacity="1" stroke-miterlimit="4"/><path stroke-linecap="butt" transform="matrix(0.750617, -0.00364086, 0.00363783, 0.749991, 135.126205, 291.168461)" fill="none" stroke-linejoin="miter" d="M -0.000887049 1.999363 L 224.814281 2.002183 " stroke="#000000" stroke-width="4" stroke-opacity="1" stroke-miterlimit="4"/><g clip-path="url(#e5c076603c)"><path fill="#38b6ff" d="M 266.714844 306.992188 L 275.207031 297.5 C 275.390625 297.296875 275.644531 297.183594 275.910156 297.183594 L 281.574219 297.183594 C 281.945312 297.183594 282.28125 297.402344 282.4375 297.746094 C 282.585938 298.089844 282.523438 298.488281 282.273438 298.765625 L 274.351562 307.628906 L 282.273438 316.484375 C 282.523438 316.765625 282.589844 317.164062 282.4375 317.507812 C 282.28125 317.851562 281.945312 318.070312 281.574219 318.070312 L 275.910156 318.070312 C 275.644531 318.070312 275.390625 317.953125 275.207031 317.757812 L 266.714844 308.261719 C 266.394531 307.902344 266.394531 307.351562 266.714844 306.992188 Z M 266.714844 306.992188 " fill-opacity="1" fill-rule="nonzero"/></g><g clip-path="url(#bd94472ae6)"><path fill="#38b6ff" d="M 278.984375 306.992188 L 287.476562 297.5 C 287.660156 297.296875 287.910156 297.183594 288.179688 297.183594 L 293.839844 297.183594 C 294.214844 297.183594 294.550781 297.402344 294.703125 297.746094 C 294.855469 298.089844 294.792969 298.488281 294.542969 298.765625 L 286.617188 307.628906 L 294.542969 316.484375 C 294.792969 316.765625 294.855469 317.164062 294.703125 317.507812 C 294.550781 317.851562 294.214844 318.070312 293.839844 318.070312 L 288.179688 318.070312 C 287.910156 318.070312 287.660156 317.953125 287.476562 317.757812 L 278.984375 308.261719 C 278.660156 307.902344 278.660156 307.351562 278.984375 306.992188 Z M 278.984375 306.992188 " fill-opacity="1" fill-rule="nonzero"/></g><g clip-path="url(#f0b0c4b8c1)"><path fill="#38b6ff" d="M 229.589844 306.992188 L 238.082031 297.5 C 238.265625 297.296875 238.519531 297.183594 238.785156 297.183594 L 244.449219 297.183594 C 244.820312 297.183594 245.15625 297.402344 245.3125 297.746094 C 245.460938 298.089844 245.398438 298.488281 245.148438 298.765625 L 237.226562 307.628906 L 245.148438 316.484375 C 245.398438 316.765625 245.464844 317.164062 245.3125 317.507812 C 245.15625 317.851562 244.820312 318.070312 244.449219 318.070312 L 238.785156 318.070312 C 238.519531 318.070312 238.265625 317.953125 238.082031 317.757812 L 229.589844 308.261719 C 229.269531 307.902344 229.269531 307.351562 229.589844 306.992188 Z M 229.589844 306.992188 " fill-opacity="1" fill-rule="nonzero"/></g><g clip-path="url(#ace313b773)"><path fill="#38b6ff" d="M 241.859375 306.992188 L 250.351562 297.5 C 250.535156 297.296875 250.785156 297.183594 251.054688 297.183594 L 256.714844 297.183594 C 257.089844 297.183594 257.425781 297.402344 257.578125 297.746094 C 257.730469 298.089844 257.667969 298.488281 257.417969 298.765625 L 249.492188 307.628906 L 257.417969 316.484375 C 257.667969 316.765625 257.730469 317.164062 257.578125 317.507812 C 257.425781 317.851562 257.089844 318.070312 256.714844 318.070312 L 251.054688 318.070312 C 250.785156 318.070312 250.535156 317.953125 250.351562 317.757812 L 241.859375 308.261719 C 241.535156 307.902344 241.535156 307.351562 241.859375 306.992188 Z M 241.859375 306.992188 " fill-opacity="1" fill-rule="nonzero"/></g><g clip-path="url(#40b620bd82)"><path fill="#38b6ff" d="M 192.464844 306.992188 L 200.957031 297.5 C 201.140625 297.296875 201.394531 297.183594 201.660156 297.183594 L 207.324219 297.183594 C 207.695312 297.183594 208.03125 297.402344 208.1875 297.746094 C 208.335938 298.089844 208.273438 298.488281 208.023438 298.765625 L 200.101562 307.628906 L 208.023438 316.484375 C 208.273438 316.765625 208.339844 317.164062 208.1875 317.507812 C 208.03125 317.851562 207.695312 318.070312 207.324219 318.070312 L 201.660156 318.070312 C 201.394531 318.070312 201.140625 317.953125 200.957031 317.757812 L 192.464844 308.261719 C 192.144531 307.902344 192.144531 307.351562 192.464844 306.992188 Z M 192.464844 306.992188 " fill-opacity="1" fill-rule="nonzero"/></g><g clip-path="url(#08ef78909c)"><path fill="#38b6ff" d="M 204.734375 306.992188 L 213.226562 297.5 C 213.410156 297.296875 213.660156 297.183594 213.929688 297.183594 L 219.589844 297.183594 C 219.964844 297.183594 220.300781 297.402344 220.453125 297.746094 C 220.605469 298.089844 220.542969 298.488281 220.292969 298.765625 L 212.367188 307.628906 L 220.292969 316.484375 C 220.542969 316.765625 220.605469 317.164062 220.453125 317.507812 C 220.300781 317.851562 219.964844 318.070312 219.589844 318.070312 L 213.929688 318.070312 C 213.660156 318.070312 213.410156 317.953125 213.226562 317.757812 L 204.734375 308.261719 C 204.410156 307.902344 204.410156 307.351562 204.734375 306.992188 Z M 204.734375 306.992188 " fill-opacity="1" fill-rule="nonzero"/></g><g clip-path="url(#f187d205fe)"><path fill="#5ce1e6" d="M 155.339844 306.992188 L 163.832031 297.5 C 164.015625 297.296875 164.269531 297.183594 164.535156 297.183594 L 170.199219 297.183594 C 170.570312 297.183594 170.90625 297.402344 171.0625 297.746094 C 171.210938 298.089844 171.148438 298.488281 170.898438 298.765625 L 162.976562 307.628906 L 170.898438 316.484375 C 171.148438 316.765625 171.214844 317.164062 171.0625 317.507812 C 170.90625 317.851562 170.570312 318.070312 170.199219 318.070312 L 164.535156 318.070312 C 164.269531 318.070312 164.015625 317.953125 163.832031 317.757812 L 155.339844 308.261719 C 155.019531 307.902344 155.019531 307.351562 155.339844 306.992188 Z M 155.339844 306.992188 " fill-opacity="1" fill-rule="nonzero"/></g><g clip-path="url(#1cf08f6ec4)"><path fill="#5ce1e6" d="M 167.609375 306.992188 L 176.101562 297.5 C 176.285156 297.296875 176.535156 297.183594 176.804688 297.183594 L 182.464844 297.183594 C 182.839844 297.183594 183.175781 297.402344 183.328125 297.746094 C 183.480469 298.089844 183.417969 298.488281 183.167969 298.765625 L 175.242188 307.628906 L 183.167969 316.484375 C 183.417969 316.765625 183.480469 317.164062 183.328125 317.507812 C 183.175781 317.851562 182.839844 318.070312 182.464844 318.070312 L 176.804688 318.070312 C 176.535156 318.070312 176.285156 317.953125 176.101562 317.757812 L 167.609375 308.261719 C 167.285156 307.902344 167.285156 307.351562 167.609375 306.992188 Z M 167.609375 306.992188 " fill-opacity="1" fill-rule="nonzero"/></g><g clip-path="url(#e1829e9b2a)"><g clip-path="url(#0812418bbe)"><g clip-path="url(#1b242f124e)"><path fill="#38b6ff" d="M 118.210938 307.242188 L 126.535156 297.597656 C 126.710938 297.394531 126.960938 297.273438 127.230469 297.269531 L 132.890625 297.171875 C 133.261719 297.164062 133.605469 297.378906 133.765625 297.714844 C 133.921875 298.058594 133.867188 298.460938 133.621094 298.742188 L 125.855469 307.738281 L 133.933594 316.457031 C 134.1875 316.730469 134.261719 317.128906 134.113281 317.476562 C 133.964844 317.820312 133.632812 318.046875 133.261719 318.054688 L 127.597656 318.152344 C 127.332031 318.160156 127.078125 318.046875 126.890625 317.851562 L 118.230469 308.511719 C 117.902344 308.15625 117.894531 307.605469 118.210938 307.242188 Z M 118.210938 307.242188 " fill-opacity="1" fill-rule="nonzero"/></g></g></g><g clip-path="url(#c11c49ced6)"><g clip-path="url(#be470dc93f)"><g clip-path="url(#2bc3c55d99)"><path fill="#38b6ff" d="M 130.476562 307.023438 L 138.800781 297.382812 C 138.976562 297.175781 139.230469 297.058594 139.496094 297.054688 L 145.15625 296.953125 C 145.53125 296.945312 145.871094 297.160156 146.03125 297.5 C 146.1875 297.839844 146.132812 298.242188 145.886719 298.523438 L 138.121094 307.523438 L 146.203125 316.238281 C 146.457031 316.515625 146.527344 316.914062 146.378906 317.257812 C 146.234375 317.605469 145.898438 317.832031 145.527344 317.835938 L 139.867188 317.9375 C 139.597656 317.941406 139.34375 317.832031 139.160156 317.636719 L 130.5 308.292969 C 130.167969 307.9375 130.160156 307.386719 130.476562 307.023438 Z M 130.476562 307.023438 " fill-opacity="1" fill-rule="nonzero"/></g></g></g><g clip-path="url(#41418d9ce1)"><g clip-path="url(#25d606c100)"><g clip-path="url(#723b277481)"><path fill="#38b6ff" d="M 75.855469 286.085938 L 88.128906 282.679688 C 88.390625 282.609375 88.664062 282.648438 88.890625 282.796875 L 93.65625 285.851562 C 93.96875 286.050781 94.132812 286.421875 94.078125 286.789062 C 94.019531 287.160156 93.75 287.464844 93.390625 287.5625 L 81.9375 290.742188 L 83.828125 302.476562 C 83.886719 302.847656 83.722656 303.21875 83.410156 303.425781 C 83.097656 303.632812 82.691406 303.632812 82.378906 303.433594 L 77.613281 300.375 C 77.386719 300.230469 77.238281 299.996094 77.191406 299.734375 L 75.167969 287.15625 C 75.089844 286.679688 75.386719 286.214844 75.855469 286.085938 Z M 75.855469 286.085938 " fill-opacity="1" fill-rule="nonzero"/></g></g></g><g clip-path="url(#98088e9321)"><g clip-path="url(#b8c042e58f)"><g clip-path="url(#989254a7cf)"><path fill="#38b6ff" d="M 86.179688 292.710938 L 98.457031 289.304688 C 98.714844 289.234375 98.992188 289.273438 99.214844 289.417969 L 103.984375 292.476562 C 104.296875 292.675781 104.460938 293.042969 104.40625 293.414062 C 104.347656 293.785156 104.078125 294.089844 103.71875 294.1875 L 92.265625 297.367188 L 94.152344 309.101562 C 94.210938 309.46875 94.050781 309.84375 93.738281 310.046875 C 93.421875 310.253906 93.019531 310.257812 92.707031 310.058594 L 87.941406 307 C 87.714844 306.855469 87.5625 306.621094 87.519531 306.355469 L 85.496094 293.78125 C 85.417969 293.300781 85.714844 292.839844 86.179688 292.710938 Z M 86.179688 292.710938 " fill-opacity="1" fill-rule="nonzero"/></g></g></g><g clip-path="url(#bf5d43ee69)"><g clip-path="url(#9a65880280)"><g clip-path="url(#6e0904d89a)"><path fill="#38b6ff" d="M 41.28125 262.910156 L 53.984375 261.964844 C 54.253906 261.945312 54.515625 262.039062 54.707031 262.222656 L 58.785156 266.152344 C 59.054688 266.410156 59.144531 266.800781 59.015625 267.15625 C 58.886719 267.507812 58.566406 267.753906 58.191406 267.777344 L 46.339844 268.664062 L 45.902344 280.539062 C 45.886719 280.914062 45.65625 281.246094 45.308594 281.386719 C 44.960938 281.53125 44.566406 281.453125 44.296875 281.195312 L 40.21875 277.269531 C 40.027344 277.082031 39.921875 276.824219 39.929688 276.554688 L 40.398438 263.824219 C 40.417969 263.339844 40.796875 262.945312 41.28125 262.910156 Z M 41.28125 262.910156 " fill-opacity="1" fill-rule="nonzero"/></g></g></g><g clip-path="url(#d0cd013f0f)"><g clip-path="url(#c3f7c8074d)"><g clip-path="url(#adc17c3054)"><path fill="#38b6ff" d="M 50.117188 271.421875 L 62.820312 270.472656 C 63.089844 270.453125 63.351562 270.546875 63.542969 270.734375 L 67.621094 274.660156 C 67.890625 274.917969 67.980469 275.3125 67.855469 275.664062 C 67.722656 276.015625 67.402344 276.261719 67.03125 276.289062 L 55.175781 277.171875 L 54.738281 289.050781 C 54.726562 289.425781 54.492188 289.757812 54.144531 289.898438 C 53.796875 290.039062 53.402344 289.964844 53.132812 289.707031 L 49.054688 285.777344 C 48.863281 285.59375 48.761719 285.332031 48.765625 285.066406 L 49.234375 272.335938 C 49.253906 271.851562 49.636719 271.453125 50.117188 271.421875 Z M 50.117188 271.421875 " fill-opacity="1" fill-rule="nonzero"/></g></g></g><g clip-path="url(#91bb62e1d2)"><g clip-path="url(#4766786d7c)"><g clip-path="url(#b42d03071e)"><path fill="#5ce1e6" d="M 22.734375 226.0625 L 35.210938 228.632812 C 35.476562 228.6875 35.699219 228.851562 35.835938 229.082031 L 38.679688 233.976562 C 38.867188 234.296875 38.847656 234.703125 38.628906 235.003906 C 38.40625 235.308594 38.03125 235.457031 37.664062 235.378906 L 26.023438 232.980469 L 22.347656 244.285156 C 22.230469 244.640625 21.917969 244.898438 21.542969 244.9375 C 21.171875 244.976562 20.808594 244.796875 20.625 244.472656 L 17.777344 239.578125 C 17.644531 239.347656 17.617188 239.070312 17.695312 238.8125 L 21.636719 226.699219 C 21.785156 226.238281 22.261719 225.960938 22.734375 226.0625 Z M 22.734375 226.0625 " fill-opacity="1" fill-rule="nonzero"/></g></g></g><g clip-path="url(#ce16e01493)"><g clip-path="url(#81b25f4b7a)"><g clip-path="url(#ed2333c4b6)"><path fill="#5ce1e6" d="M 28.898438 236.667969 L 41.375 239.238281 C 41.640625 239.296875 41.867188 239.457031 42 239.6875 L 44.847656 244.582031 C 45.035156 244.90625 45.011719 245.308594 44.792969 245.613281 C 44.574219 245.914062 44.195312 246.0625 43.832031 245.984375 L 32.1875 243.585938 L 28.511719 254.890625 C 28.394531 255.246094 28.082031 255.503906 27.710938 255.542969 C 27.335938 255.582031 26.976562 255.402344 26.789062 255.082031 L 23.941406 250.183594 C 23.808594 249.953125 23.78125 249.675781 23.859375 249.421875 L 27.800781 237.304688 C 27.949219 236.847656 28.425781 236.570312 28.898438 236.667969 Z M 28.898438 236.667969 " fill-opacity="1" fill-rule="nonzero"/></g></g></g><g clip-path="url(#d13a9e3f25)"><path fill="#38b6ff" d="M 20.015625 172.027344 L 29.507812 180.519531 C 29.710938 180.699219 29.824219 180.953125 29.824219 181.222656 L 29.824219 186.882812 C 29.824219 187.257812 29.605469 187.59375 29.261719 187.746094 C 28.917969 187.898438 28.515625 187.835938 28.242188 187.585938 L 19.378906 179.660156 L 10.523438 187.585938 C 10.242188 187.835938 9.84375 187.898438 9.5 187.746094 C 9.15625 187.59375 8.9375 187.257812 8.9375 186.882812 L 8.9375 181.222656 C 8.9375 180.953125 9.050781 180.699219 9.25 180.519531 L 18.746094 172.027344 C 19.105469 171.703125 19.65625 171.703125 20.015625 172.027344 Z M 20.015625 172.027344 " fill-opacity="1" fill-rule="nonzero"/></g><g clip-path="url(#c9018667b7)"><path fill="#38b6ff" d="M 20.015625 184.292969 L 29.507812 192.789062 C 29.710938 192.96875 29.824219 193.222656 29.824219 193.488281 L 29.824219 199.152344 C 29.824219 199.523438 29.605469 199.863281 29.261719 200.015625 C 28.917969 200.164062 28.515625 200.105469 28.242188 199.855469 L 19.378906 191.929688 L 10.523438 199.855469 C 10.242188 200.105469 9.84375 200.167969 9.5 200.015625 C 9.15625 199.863281 8.9375 199.523438 8.9375 199.152344 L 8.9375 193.488281 C 8.9375 193.222656 9.050781 192.96875 9.25 192.789062 L 18.746094 184.292969 C 19.105469 183.972656 19.65625 183.972656 20.015625 184.292969 Z M 20.015625 184.292969 " fill-opacity="1" fill-rule="nonzero"/></g><g clip-path="url(#324a34c76a)"><g clip-path="url(#6e99dcdf7f)"><g clip-path="url(#10efddddb4)"><path fill="#38b6ff" d="M 38.21875 122.101562 L 41.183594 134.492188 C 41.246094 134.753906 41.195312 135.027344 41.042969 135.246094 L 37.816406 139.902344 C 37.605469 140.207031 37.230469 140.359375 36.863281 140.289062 C 36.496094 140.21875 36.203125 139.941406 36.117188 139.578125 L 33.347656 128.015625 L 21.554688 129.484375 C 21.183594 129.53125 20.816406 129.355469 20.621094 129.035156 C 20.425781 128.714844 20.4375 128.308594 20.648438 128.003906 L 23.875 123.351562 C 24.027344 123.128906 24.269531 122.988281 24.53125 122.953125 L 37.175781 121.378906 C 37.65625 121.320312 38.105469 121.632812 38.21875 122.101562 Z M 38.21875 122.101562 " fill-opacity="1" fill-rule="nonzero"/></g></g></g><g clip-path="url(#228fca1cd4)"><g clip-path="url(#c291f0aab6)"><g clip-path="url(#ea8815c38b)"><path fill="#38b6ff" d="M 31.230469 132.1875 L 34.195312 144.574219 C 34.257812 144.839844 34.207031 145.109375 34.054688 145.332031 L 30.828125 149.984375 C 30.617188 150.289062 30.246094 150.441406 29.875 150.375 C 29.507812 150.300781 29.214844 150.023438 29.128906 149.660156 L 26.359375 138.101562 L 14.566406 139.566406 C 14.195312 139.613281 13.828125 139.4375 13.632812 139.117188 C 13.4375 138.796875 13.449219 138.394531 13.664062 138.085938 L 16.886719 133.433594 C 17.039062 133.214844 17.28125 133.070312 17.546875 133.035156 L 30.1875 131.460938 C 30.667969 131.402344 31.121094 131.714844 31.230469 132.1875 Z M 31.230469 132.1875 " fill-opacity="1" fill-rule="nonzero"/></g></g></g><g clip-path="url(#035773e6f2)"><g clip-path="url(#9e76d848f8)"><g clip-path="url(#efbaedd619)"><path fill="#38b6ff" d="M 65.816406 90.09375 L 65.914062 102.832031 C 65.917969 103.101562 65.804688 103.355469 65.609375 103.535156 L 61.417969 107.34375 C 61.140625 107.59375 60.742188 107.660156 60.402344 107.507812 C 60.058594 107.355469 59.835938 107.015625 59.832031 106.644531 L 59.742188 94.757812 L 47.917969 93.53125 C 47.546875 93.492188 47.230469 93.238281 47.113281 92.882812 C 46.996094 92.523438 47.097656 92.136719 47.371094 91.886719 L 51.5625 88.078125 C 51.761719 87.898438 52.027344 87.8125 52.292969 87.835938 L 64.964844 89.152344 C 65.445312 89.203125 65.816406 89.609375 65.816406 90.09375 Z M 65.816406 90.09375 " fill-opacity="1" fill-rule="nonzero"/></g></g></g><g clip-path="url(#85dc8db5bd)"><g clip-path="url(#9dca8e49ca)"><g clip-path="url(#8b83ac5255)"><path fill="#38b6ff" d="M 56.738281 98.34375 L 56.835938 111.082031 C 56.835938 111.351562 56.726562 111.605469 56.527344 111.785156 L 52.335938 115.59375 C 52.0625 115.84375 51.664062 115.90625 51.320312 115.757812 C 50.976562 115.605469 50.753906 115.265625 50.753906 114.894531 L 50.660156 103.007812 L 38.839844 101.78125 C 38.464844 101.742188 38.148438 101.488281 38.03125 101.132812 C 37.914062 100.773438 38.015625 100.382812 38.292969 100.132812 L 42.480469 96.328125 C 42.679688 96.148438 42.945312 96.0625 43.210938 96.085938 L 55.882812 97.402344 C 56.363281 97.453125 56.734375 97.859375 56.738281 98.34375 Z M 56.738281 98.34375 " fill-opacity="1" fill-rule="nonzero"/></g></g></g><g clip-path="url(#047ffb1e03)"><g clip-path="url(#294908ca02)"><g clip-path="url(#cf9699172d)"><path fill="#5ce1e6" d="M 100.488281 72.246094 L 97.054688 84.511719 C 96.980469 84.773438 96.800781 84.988281 96.5625 85.105469 L 91.480469 87.601562 C 91.148438 87.765625 90.746094 87.71875 90.457031 87.480469 C 90.171875 87.238281 90.050781 86.851562 90.152344 86.492188 L 93.355469 75.042969 L 82.335938 70.589844 C 81.988281 70.449219 81.753906 70.121094 81.742188 69.746094 C 81.726562 69.367188 81.933594 69.023438 82.265625 68.859375 L 87.347656 66.359375 C 87.589844 66.242188 87.867188 66.234375 88.117188 66.332031 L 99.925781 71.105469 C 100.375 71.285156 100.617188 71.78125 100.488281 72.246094 Z M 100.488281 72.246094 " fill-opacity="1" fill-rule="nonzero"/></g></g></g><g clip-path="url(#6f9acb1659)"><g clip-path="url(#191084fb28)"><g clip-path="url(#260a282458)"><path fill="#5ce1e6" d="M 89.476562 77.65625 L 86.042969 89.925781 C 85.96875 90.183594 85.792969 90.398438 85.550781 90.515625 L 80.472656 93.015625 C 80.136719 93.179688 79.738281 93.128906 79.449219 92.890625 C 79.160156 92.648438 79.039062 92.261719 79.140625 91.902344 L 82.347656 80.457031 L 71.324219 76.003906 C 70.980469 75.863281 70.746094 75.53125 70.730469 75.15625 C 70.71875 74.78125 70.921875 74.433594 71.257812 74.269531 L 76.339844 71.773438 C 76.578125 71.65625 76.855469 71.648438 77.105469 71.742188 L 88.917969 76.515625 C 89.367188 76.699219 89.609375 77.191406 89.476562 77.65625 Z M 89.476562 77.65625 " fill-opacity="1" fill-rule="nonzero"/></g></g></g><g clip-path="url(#8ab4c31926)"><path fill="#38b6ff" d="M 146.195312 68.148438 L 137.703125 77.640625 C 137.519531 77.84375 137.265625 77.957031 137 77.957031 L 131.335938 77.957031 C 130.964844 77.957031 130.628906 77.738281 130.472656 77.394531 C 130.324219 77.050781 130.386719 76.652344 130.636719 76.375 L 138.558594 67.515625 L 130.636719 58.65625 C 130.386719 58.375 130.320312 57.976562 130.472656 57.632812 C 130.628906 57.289062 130.964844 57.070312 131.335938 57.070312 L 137 57.070312 C 137.265625 57.070312 137.519531 57.1875 137.703125 57.382812 L 146.195312 66.878906 C 146.515625 67.238281 146.515625 67.789062 146.195312 68.148438 Z M 146.195312 68.148438 " fill-opacity="1" fill-rule="nonzero"/></g><g clip-path="url(#54ef61a1a5)"><path fill="#38b6ff" d="M 133.925781 68.148438 L 125.433594 77.640625 C 125.25 77.84375 125 77.957031 124.730469 77.957031 L 119.070312 77.957031 C 118.695312 77.957031 118.359375 77.738281 118.207031 77.394531 C 118.054688 77.050781 118.117188 76.652344 118.367188 76.375 L 126.292969 67.515625 L 118.367188 58.65625 C 118.117188 58.375 118.054688 57.976562 118.207031 57.632812 C 118.359375 57.289062 118.695312 57.070312 119.070312 57.070312 L 124.730469 57.070312 C 125 57.070312 125.25 57.1875 125.433594 57.382812 L 133.925781 66.878906 C 134.25 67.238281 134.25 67.789062 133.925781 68.148438 Z M 133.925781 68.148438 " fill-opacity="1" fill-rule="nonzero"/></g><g clip-path="url(#d953ad7001)"><g clip-path="url(#5d896db10b)"><g clip-path="url(#6c9d82c10f)"><path fill="#38b6ff" d="M 182.71875 68.148438 L 173.941406 77.382812 C 173.753906 77.578125 173.5 77.6875 173.230469 77.675781 L 167.570312 77.507812 C 167.199219 77.496094 166.871094 77.265625 166.726562 76.917969 C 166.585938 76.570312 166.660156 76.171875 166.917969 75.902344 L 175.105469 67.285156 L 167.453125 58.191406 C 167.210938 57.90625 167.160156 57.503906 167.320312 57.167969 C 167.484375 56.828125 167.828125 56.617188 168.199219 56.628906 L 173.859375 56.800781 C 174.128906 56.808594 174.378906 56.929688 174.554688 57.132812 L 182.757812 66.878906 C 183.066406 67.25 183.050781 67.800781 182.71875 68.148438 Z M 182.71875 68.148438 " fill-opacity="1" fill-rule="nonzero"/></g></g></g><g clip-path="url(#b77f39b113)"><g clip-path="url(#3da991fe7e)"><g clip-path="url(#12fbce049c)"><path fill="#38b6ff" d="M 170.457031 67.78125 L 161.679688 77.015625 C 161.492188 77.210938 161.238281 77.316406 160.96875 77.308594 L 155.308594 77.136719 C 154.9375 77.125 154.605469 76.894531 154.464844 76.550781 C 154.324219 76.203125 154.398438 75.804688 154.65625 75.535156 L 162.84375 66.917969 L 155.1875 57.824219 C 154.949219 57.539062 154.894531 57.136719 155.058594 56.796875 C 155.222656 56.460938 155.566406 56.25 155.9375 56.261719 L 161.597656 56.429688 C 161.867188 56.4375 162.113281 56.5625 162.289062 56.765625 L 170.492188 66.511719 C 170.804688 66.882812 170.789062 67.429688 170.457031 67.78125 Z M 170.457031 67.78125 " fill-opacity="1" fill-rule="nonzero"/></g></g></g><g clip-path="url(#5bf817fe4f)"><g clip-path="url(#f669b57a2a)"><g clip-path="url(#ff92523d1c)"><path fill="#38b6ff" d="M 294.371094 68.148438 L 285.59375 77.382812 C 285.40625 77.578125 285.152344 77.6875 284.882812 77.675781 L 279.222656 77.507812 C 278.851562 77.496094 278.523438 77.265625 278.378906 76.917969 C 278.238281 76.570312 278.3125 76.171875 278.570312 75.902344 L 286.757812 67.285156 L 279.105469 58.191406 C 278.863281 57.90625 278.8125 57.503906 278.972656 57.167969 C 279.136719 56.828125 279.480469 56.617188 279.851562 56.628906 L 285.511719 56.800781 C 285.78125 56.808594 286.03125 56.929688 286.207031 57.132812 L 294.410156 66.878906 C 294.71875 67.25 294.703125 67.800781 294.371094 68.148438 Z M 294.371094 68.148438 " fill-opacity="1" fill-rule="nonzero"/></g></g></g><g clip-path="url(#0502a53ae1)"><g clip-path="url(#5abdec59bf)"><g clip-path="url(#e173a17832)"><path fill="#38b6ff" d="M 282.109375 67.78125 L 273.332031 77.015625 C 273.144531 77.210938 272.890625 77.316406 272.621094 77.308594 L 266.960938 77.136719 C 266.589844 77.125 266.257812 76.894531 266.117188 76.550781 C 265.976562 76.203125 266.050781 75.804688 266.308594 75.535156 L 274.496094 66.917969 L 266.839844 57.824219 C 266.601562 57.539062 266.546875 57.136719 266.710938 56.796875 C 266.875 56.460938 267.21875 56.25 267.589844 56.261719 L 273.25 56.429688 C 273.519531 56.4375 273.765625 56.5625 273.941406 56.765625 L 282.144531 66.511719 C 282.457031 66.882812 282.441406 67.429688 282.109375 67.78125 Z M 282.109375 67.78125 " fill-opacity="1" fill-rule="nonzero"/></g></g></g><g clip-path="url(#bae9b4a363)"><g clip-path="url(#ecaed76b2a)"><g clip-path="url(#de7aea6f61)"><path fill="#5ce1e6" d="M 257.246094 68.148438 L 248.46875 77.382812 C 248.28125 77.578125 248.027344 77.6875 247.757812 77.675781 L 242.097656 77.507812 C 241.726562 77.496094 241.398438 77.265625 241.253906 76.917969 C 241.113281 76.570312 241.1875 76.171875 241.445312 75.902344 L 249.632812 67.285156 L 241.980469 58.191406 C 241.738281 57.90625 241.6875 57.503906 241.847656 57.167969 C 242.011719 56.828125 242.355469 56.617188 242.726562 56.628906 L 248.386719 56.800781 C 248.65625 56.808594 248.90625 56.929688 249.082031 57.132812 L 257.285156 66.878906 C 257.59375 67.25 257.578125 67.800781 257.246094 68.148438 Z M 257.246094 68.148438 " fill-opacity="1" fill-rule="nonzero"/></g></g></g><g clip-path="url(#965cd5060f)"><g clip-path="url(#6d37408c95)"><g clip-path="url(#d62730574d)"><path fill="#5ce1e6" d="M 244.984375 67.78125 L 236.207031 77.015625 C 236.019531 77.210938 235.765625 77.316406 235.496094 77.308594 L 229.835938 77.136719 C 229.464844 77.125 229.132812 76.894531 228.992188 76.550781 C 228.851562 76.203125 228.925781 75.804688 229.183594 75.535156 L 237.371094 66.917969 L 229.714844 57.824219 C 229.476562 57.539062 229.421875 57.136719 229.585938 56.796875 C 229.75 56.460938 230.09375 56.25 230.464844 56.261719 L 236.125 56.429688 C 236.394531 56.4375 236.640625 56.5625 236.816406 56.765625 L 245.019531 66.511719 C 245.332031 66.882812 245.316406 67.429688 244.984375 67.78125 Z M 244.984375 67.78125 " fill-opacity="1" fill-rule="nonzero"/></g></g></g><g clip-path="url(#8e30953ccf)"><g clip-path="url(#e48620eff6)"><g clip-path="url(#9a88373cc2)"><path fill="#38b6ff" d="M 220.730469 68.148438 L 211.953125 77.382812 C 211.765625 77.578125 211.511719 77.6875 211.242188 77.675781 L 205.582031 77.507812 C 205.210938 77.496094 204.878906 77.265625 204.738281 76.917969 C 204.597656 76.570312 204.671875 76.171875 204.929688 75.902344 L 213.117188 67.285156 L 205.460938 58.191406 C 205.222656 57.90625 205.167969 57.503906 205.332031 57.167969 C 205.496094 56.828125 205.839844 56.617188 206.210938 56.628906 L 211.871094 56.800781 C 212.140625 56.808594 212.386719 56.929688 212.5625 57.132812 L 220.765625 66.878906 C 221.078125 67.25 221.0625 67.800781 220.730469 68.148438 Z M 220.730469 68.148438 " fill-opacity="1" fill-rule="nonzero"/></g></g></g><g clip-path="url(#6544ff6e53)"><g clip-path="url(#4f8b90f43d)"><g clip-path="url(#b911b7f811)"><path fill="#38b6ff" d="M 208.464844 67.78125 L 199.691406 77.015625 C 199.503906 77.210938 199.246094 77.316406 198.980469 77.308594 L 193.320312 77.136719 C 192.949219 77.125 192.617188 76.894531 192.476562 76.550781 C 192.335938 76.203125 192.410156 75.804688 192.664062 75.535156 L 200.855469 66.917969 L 193.199219 57.824219 C 192.957031 57.539062 192.90625 57.136719 193.070312 56.796875 C 193.234375 56.460938 193.578125 56.25 193.949219 56.261719 L 199.609375 56.429688 C 199.875 56.4375 200.125 56.5625 200.300781 56.765625 L 208.503906 66.511719 C 208.816406 66.882812 208.800781 67.429688 208.464844 67.78125 Z M 208.464844 67.78125 " fill-opacity="1" fill-rule="nonzero"/></g></g></g></svg>