<svg xmlns="http://www.w3.org/2000/svg" xmlns:xlink="http://www.w3.org/1999/xlink" width="450" zoomAndPan="magnify" viewBox="0 0 337.5 374.999991" height="500" preserveAspectRatio="xMidYMid meet" version="1.0"><defs><clipPath id="df13f6e02e"><path d="M 0 52.777344 L 303.75 52.777344 L 303.75 323 L 0 323 Z M 0 52.777344 " clip-rule="nonzero"/></clipPath><clipPath id="c53ecaee40"><path d="M 7.917969 142.824219 C 3.136719 156.667969 0 172.40625 0 187.851562 C 0 203.296875 2.6875 218.15625 7.46875 231.855469 C 7.621094 232.144531 7.621094 232.4375 7.769531 232.730469 C 26.890625 284.164062 77.390625 322.050781 135.65625 322.777344 L 303.75 322.777344 L 303.75 52.777344 L 135.78125 52.777344 C 77.09375 53.507812 26.59375 90.808594 7.917969 142.824219 " clip-rule="nonzero"/></clipPath><clipPath id="a728c2a3d5"><path d="M 0 52.777344 L 303.75 52.777344 L 303.75 322.777344 L 0 322.777344 Z M 0 52.777344 " clip-rule="nonzero"/></clipPath><clipPath id="f65990b84c"><path d="M 7.917969 142.824219 C 3.136719 156.667969 0 172.40625 0 187.851562 C 0 203.296875 2.6875 218.15625 7.46875 231.855469 C 7.621094 232.144531 7.621094 232.4375 7.769531 232.730469 C 26.890625 284.164062 77.390625 322.050781 135.65625 322.777344 L 303.75 322.777344 L 303.75 52.777344 L 135.78125 52.777344 C 77.09375 53.507812 26.59375 90.808594 7.917969 142.824219 " clip-rule="nonzero"/></clipPath><clipPath id="026755a4d4"><path d="M 33 78 L 250 78 L 250 295 L 33 295 Z M 33 78 " clip-rule="nonzero"/></clipPath><clipPath id="cee9e362cd"><path d="M -10.984375 186.019531 L 141.953125 33.078125 L 294.894531 186.019531 L 141.953125 338.957031 Z M -10.984375 186.019531 " clip-rule="nonzero"/></clipPath><clipPath id="442a757f31"><path d="M 65.382812 109.652344 C 23.207031 151.828125 23.207031 220.210938 65.382812 262.386719 C 107.558594 304.5625 175.941406 304.5625 218.117188 262.386719 C 260.292969 220.210938 260.292969 151.828125 218.117188 109.652344 C 175.941406 67.472656 107.558594 67.472656 65.382812 109.652344 " clip-rule="nonzero"/></clipPath><clipPath id="815ac26619"><path d="M 33 78 L 250 78 L 250 295 L 33 295 Z M 33 78 " clip-rule="nonzero"/></clipPath><clipPath id="f3033a26da"><path d="M -10.984375 186.019531 L 141.75 33.285156 L 294.484375 186.019531 L 141.75 338.753906 Z M -10.984375 186.019531 " clip-rule="nonzero"/></clipPath><clipPath id="a69cf2d84e"><path d="M -10.984375 186.019531 L 143.910156 31.125 L 298.804688 186.019531 L 143.910156 340.914062 Z M -10.984375 186.019531 " clip-rule="nonzero"/></clipPath><clipPath id="155498ef94"><path d="M 65.382812 109.652344 C 23.207031 151.828125 23.207031 220.210938 65.382812 262.386719 C 107.558594 304.5625 175.941406 304.5625 218.117188 262.386719 C 260.292969 220.210938 260.292969 151.828125 218.117188 109.652344 C 175.941406 67.472656 107.558594 67.472656 65.382812 109.652344 " clip-rule="nonzero"/></clipPath><clipPath id="8bd62202c1"><path d="M 86 133 L 122 133 L 122 169 L 86 169 Z M 86 133 " clip-rule="nonzero"/></clipPath><clipPath id="f48b47b3ec"><path d="M 86.894531 146.199219 L 99.6875 133.304688 L 122.351562 155.792969 L 109.554688 168.683594 Z M 86.894531 146.199219 " clip-rule="nonzero"/></clipPath><clipPath id="517a773dc9"><path d="M 86.894531 146.199219 L 99.410156 133.585938 L 121.929688 155.933594 L 109.417969 168.546875 Z M 86.894531 146.199219 " clip-rule="nonzero"/></clipPath><clipPath id="d176cd7fd4"><path d="M 168 160 L 204 160 L 204 186 L 168 186 Z M 168 160 " clip-rule="nonzero"/></clipPath><clipPath id="49494ff11e"><path d="M 172.9375 185.613281 L 168.359375 168.035156 L 199.253906 159.992188 L 203.832031 177.566406 Z M 172.9375 185.613281 " clip-rule="nonzero"/></clipPath><clipPath id="c8fca470f3"><path d="M 172.9375 185.613281 L 168.460938 168.417969 L 199.164062 160.425781 L 203.640625 177.617188 Z M 172.9375 185.613281 " clip-rule="nonzero"/></clipPath><clipPath id="877030f9a1"><path d="M 104 151 L 187 151 L 187 233 L 104 233 Z M 104 151 " clip-rule="nonzero"/></clipPath><clipPath id="e1807291a2"><path d="M 167.03125 243.777344 L 84.75 221.671875 L 103.949219 150.214844 L 186.230469 172.324219 Z M 167.03125 243.777344 " clip-rule="nonzero"/></clipPath><clipPath id="5aaf1062e1"><path d="M 126.203125 232.808594 L 104.394531 151.078125 L 186.042969 173.015625 L 126.203125 232.808594 " clip-rule="nonzero"/></clipPath><clipPath id="d5c863e74f"><path d="M 115 207 L 141 207 L 141 243 L 115 243 Z M 115 207 " clip-rule="nonzero"/></clipPath><clipPath id="b9db18e332"><path d="M 132.738281 242.738281 L 115.199219 238.027344 L 123.480469 207.195312 L 141.023438 211.910156 Z M 132.738281 242.738281 " clip-rule="nonzero"/></clipPath><clipPath id="fd6bd0c288"><path d="M 132.738281 242.738281 L 115.582031 238.128906 L 123.816406 207.488281 L 140.972656 212.097656 Z M 132.738281 242.738281 " clip-rule="nonzero"/></clipPath><clipPath id="77f01a5c79"><path d="M 91 232 L 147 232 L 147 289 L 91 289 Z M 91 232 " clip-rule="nonzero"/></clipPath><clipPath id="2c4f81dbc3"><path d="M 153.34375 241.433594 L 137.675781 294.804688 L 84.304688 279.136719 L 99.972656 225.765625 Z M 153.34375 241.433594 " clip-rule="nonzero"/></clipPath><clipPath id="ee65caba77"><path d="M 145.507812 268.117188 C 149.835938 253.382812 141.394531 237.925781 126.65625 233.601562 C 111.917969 229.273438 96.464844 237.714844 92.136719 252.453125 C 87.8125 267.1875 96.253906 282.644531 110.988281 286.96875 C 125.726562 291.296875 141.183594 282.855469 145.507812 268.117188 " clip-rule="nonzero"/></clipPath><clipPath id="1316b064e7"><path d="M 91 232 L 147 232 L 147 288 L 91 288 Z M 91 232 " clip-rule="nonzero"/></clipPath><clipPath id="ba9c1e50f5"><path d="M 153.34375 241.433594 L 137.710938 294.6875 L 84.457031 279.054688 L 100.089844 225.800781 Z M 153.34375 241.433594 " clip-rule="nonzero"/></clipPath><clipPath id="02f8b45a58"><path d="M 153.34375 241.433594 L 137.710938 294.6875 L 84.457031 279.054688 L 100.089844 225.800781 Z M 153.34375 241.433594 " clip-rule="nonzero"/></clipPath><clipPath id="a5bfe507ba"><path d="M 145.527344 268.058594 C 149.84375 253.355469 141.421875 237.933594 126.714844 233.617188 C 112.011719 229.300781 96.589844 237.722656 92.273438 252.425781 C 87.957031 267.132812 96.378906 282.554688 111.082031 286.871094 C 125.789062 291.1875 141.210938 282.765625 145.527344 268.058594 " clip-rule="nonzero"/></clipPath><clipPath id="922b229848"><path d="M 187 137 L 243 137 L 243 194 L 187 194 Z M 187 137 " clip-rule="nonzero"/></clipPath><clipPath id="2e9a2f3d68"><path d="M 249.054688 184.992188 L 195.3125 199.328125 L 180.976562 145.585938 L 234.71875 131.25 Z M 249.054688 184.992188 " clip-rule="nonzero"/></clipPath><clipPath id="4f58b02782"><path d="M 222.183594 192.160156 C 237.023438 188.203125 245.847656 172.960938 241.886719 158.121094 C 237.929688 143.28125 222.6875 134.460938 207.847656 138.417969 C 193.007812 142.378906 184.183594 157.617188 188.144531 172.457031 C 192.105469 187.300781 207.34375 196.121094 222.183594 192.160156 " clip-rule="nonzero"/></clipPath><clipPath id="a53816ca6e"><path d="M 187 137 L 243 137 L 243 194 L 187 194 Z M 187 137 " clip-rule="nonzero"/></clipPath><clipPath id="cf21855d2a"><path d="M 249.054688 184.992188 L 195.429688 199.296875 L 181.125 145.675781 L 234.75 131.367188 Z M 249.054688 184.992188 " clip-rule="nonzero"/></clipPath><clipPath id="96a044d6d9"><path d="M 249.054688 184.992188 L 195.429688 199.296875 L 181.125 145.675781 L 234.75 131.367188 Z M 249.054688 184.992188 " clip-rule="nonzero"/></clipPath><clipPath id="ba181c669d"><path d="M 222.242188 192.144531 C 237.050781 188.195312 245.851562 172.988281 241.902344 158.179688 C 237.953125 143.371094 222.746094 134.570312 207.9375 138.519531 C 193.128906 142.472656 184.328125 157.679688 188.277344 172.484375 C 192.230469 187.292969 207.4375 196.097656 222.242188 192.144531 " clip-rule="nonzero"/></clipPath><clipPath id="11b3765acc"><path d="M 58 104 L 115 104 L 115 161 L 58 161 Z M 58 104 " clip-rule="nonzero"/></clipPath><clipPath id="4ca5201d07"><path d="M 125.597656 132.667969 L 86.265625 172 L 46.9375 132.667969 L 86.265625 93.335938 Z M 125.597656 132.667969 " clip-rule="nonzero"/></clipPath><clipPath id="fda6f8c7e4"><path d="M 105.933594 152.332031 C 116.792969 141.472656 116.792969 123.863281 105.933594 113.003906 C 95.070312 102.140625 77.460938 102.140625 66.601562 113.003906 C 55.742188 123.863281 55.742188 141.472656 66.601562 152.332031 C 77.460938 163.195312 95.070312 163.195312 105.933594 152.332031 " clip-rule="nonzero"/></clipPath><clipPath id="35165c9ed8"><path d="M 58 104 L 115 104 L 115 161 L 58 161 Z M 58 104 " clip-rule="nonzero"/></clipPath><clipPath id="82f5424d9b"><path d="M 125.597656 132.667969 L 86.355469 171.910156 L 47.109375 132.667969 L 86.355469 93.421875 Z M 125.597656 132.667969 " clip-rule="nonzero"/></clipPath><clipPath id="6bf07abcda"><path d="M 125.597656 132.667969 L 86.355469 171.910156 L 47.109375 132.667969 L 86.355469 93.421875 Z M 125.597656 132.667969 " clip-rule="nonzero"/></clipPath><clipPath id="116f0610ad"><path d="M 105.976562 152.289062 C 116.8125 141.453125 116.8125 123.882812 105.976562 113.046875 C 95.140625 102.207031 77.570312 102.207031 66.730469 113.046875 C 55.894531 123.882812 55.894531 141.453125 66.730469 152.289062 C 77.570312 163.125 95.140625 163.125 105.976562 152.289062 " clip-rule="nonzero"/></clipPath><clipPath id="bb2ca3b7da"><path d="M 111 253 L 126 253 L 126 268 L 111 268 Z M 111 253 " clip-rule="nonzero"/></clipPath><clipPath id="364e3698a4"><path d="M 123.757812 268.832031 L 110.277344 265.210938 L 113.898438 251.730469 L 127.378906 255.351562 Z M 123.757812 268.832031 " clip-rule="nonzero"/></clipPath><clipPath id="997ba59caf"><path d="M 117.015625 267.023438 C 120.738281 268.023438 124.566406 265.816406 125.570312 262.09375 C 126.570312 258.371094 124.363281 254.542969 120.640625 253.542969 C 116.917969 252.542969 113.085938 254.75 112.085938 258.472656 C 111.085938 262.195312 113.292969 266.023438 117.015625 267.023438 " clip-rule="nonzero"/></clipPath><clipPath id="c956564cab"><path d="M 208 158 L 223 158 L 223 173 L 208 173 Z M 208 158 " clip-rule="nonzero"/></clipPath><clipPath id="698f11f376"><path d="M 210.078125 173.832031 L 206.480469 160.34375 L 219.964844 156.746094 L 223.566406 170.234375 Z M 210.078125 173.832031 " clip-rule="nonzero"/></clipPath><clipPath id="5a80b98cc2"><path d="M 208.277344 167.089844 C 209.269531 170.8125 213.097656 173.027344 216.820312 172.035156 C 220.546875 171.039062 222.757812 167.214844 221.765625 163.492188 C 220.773438 159.765625 216.945312 157.554688 213.222656 158.546875 C 209.496094 159.539062 207.285156 163.363281 208.277344 167.089844 " clip-rule="nonzero"/></clipPath><clipPath id="60bddb1dc9"><path d="M 78 126 L 93 126 L 93 141 L 78 141 Z M 78 126 " clip-rule="nonzero"/></clipPath><clipPath id="3ad1c39028"><path d="M 90.480469 141.96875 L 77 138.34375 L 80.621094 124.863281 L 94.101562 128.484375 Z M 90.480469 141.96875 " clip-rule="nonzero"/></clipPath><clipPath id="4e32b8beb9"><path d="M 83.742188 140.15625 C 87.464844 141.15625 91.292969 138.949219 92.292969 135.226562 C 93.292969 131.503906 91.085938 127.675781 87.363281 126.675781 C 83.640625 125.675781 79.8125 127.882812 78.8125 131.605469 C 77.8125 135.328125 80.019531 139.15625 83.742188 140.15625 " clip-rule="nonzero"/></clipPath><clipPath id="103a25f2eb"><path d="M 66 179 L 91 179 L 91 222 L 66 222 Z M 66 179 " clip-rule="nonzero"/></clipPath><clipPath id="273e8032fd"><path d="M 75.03125 177.105469 L 91.203125 221.5 L 78.519531 226.121094 L 62.34375 181.726562 Z M 75.03125 177.105469 " clip-rule="nonzero"/></clipPath><clipPath id="2aa375dc03"><path d="M 91.269531 221.675781 L 75.09375 177.28125 L 62.410156 181.902344 L 78.585938 226.296875 Z M 91.269531 221.675781 " clip-rule="nonzero"/></clipPath><clipPath id="7c8643c087"><path d="M 91.269531 221.675781 L 75.09375 177.28125 L 62.410156 181.902344 L 78.585938 226.296875 Z M 91.269531 221.675781 " clip-rule="nonzero"/></clipPath><clipPath id="924a3285a4"><path d="M 82 216 L 84 216 L 84 218 L 82 218 Z M 82 216 " clip-rule="nonzero"/></clipPath><clipPath id="b42c17308e"><path d="M 75.03125 177.105469 L 91.203125 221.5 L 78.519531 226.121094 L 62.34375 181.726562 Z M 75.03125 177.105469 " clip-rule="nonzero"/></clipPath><clipPath id="a2b10498a2"><path d="M 91.269531 221.675781 L 75.09375 177.28125 L 62.410156 181.902344 L 78.585938 226.296875 Z M 91.269531 221.675781 " clip-rule="nonzero"/></clipPath><clipPath id="302704e20b"><path d="M 91.269531 221.675781 L 75.09375 177.28125 L 62.410156 181.902344 L 78.585938 226.296875 Z M 91.269531 221.675781 " clip-rule="nonzero"/></clipPath><clipPath id="982fe0af18"><path d="M 131 113 L 178 113 L 178 131 L 131 131 Z M 131 113 " clip-rule="nonzero"/></clipPath><clipPath id="2d10943b35"><path d="M 177.171875 133.28125 L 131.558594 120.953125 L 135.082031 107.921875 L 180.695312 120.25 Z M 177.171875 133.28125 " clip-rule="nonzero"/></clipPath><clipPath id="b15c53974e"><path d="M 131.378906 120.90625 L 176.992188 133.234375 L 180.511719 120.199219 L 134.898438 107.875 Z M 131.378906 120.90625 " clip-rule="nonzero"/></clipPath><clipPath id="ed53ca2e32"><path d="M 131.378906 120.90625 L 176.992188 133.234375 L 180.511719 120.199219 L 134.898438 107.875 Z M 131.378906 120.90625 " clip-rule="nonzero"/></clipPath><clipPath id="5b47fd39b4"><path d="M 139 116 L 141 116 L 141 117 L 139 117 Z M 139 116 " clip-rule="nonzero"/></clipPath><clipPath id="15750ecd78"><path d="M 177.171875 133.28125 L 131.558594 120.953125 L 135.082031 107.921875 L 180.695312 120.25 Z M 177.171875 133.28125 " clip-rule="nonzero"/></clipPath><clipPath id="52a82c1e92"><path d="M 131.378906 120.90625 L 176.992188 133.234375 L 180.511719 120.199219 L 134.898438 107.875 Z M 131.378906 120.90625 " clip-rule="nonzero"/></clipPath><clipPath id="109208dee7"><path d="M 131.378906 120.90625 L 176.992188 133.234375 L 180.511719 120.199219 L 134.898438 107.875 Z M 131.378906 120.90625 " clip-rule="nonzero"/></clipPath><clipPath id="db973f0355"><path d="M 168 212 L 203 212 L 203 248 L 168 248 Z M 168 212 " clip-rule="nonzero"/></clipPath><clipPath id="a815943317"><path d="M 165.679688 241.867188 L 201.808594 211.414062 L 210.507812 221.734375 L 174.382812 252.1875 Z M 165.679688 241.867188 " clip-rule="nonzero"/></clipPath><clipPath id="c3d7683c64"><path d="M 201.953125 211.292969 L 165.824219 241.746094 L 174.527344 252.066406 L 210.652344 221.613281 Z M 201.953125 211.292969 " clip-rule="nonzero"/></clipPath><clipPath id="22ec6471fa"><path d="M 201.953125 211.292969 L 165.824219 241.746094 L 174.527344 252.066406 L 210.652344 221.613281 Z M 201.953125 211.292969 " clip-rule="nonzero"/></clipPath><clipPath id="3b4562192b"><path d="M 200 220 L 201 220 L 201 221 L 200 221 Z M 200 220 " clip-rule="nonzero"/></clipPath><clipPath id="4cdc45c23c"><path d="M 165.679688 241.867188 L 201.808594 211.414062 L 210.507812 221.734375 L 174.382812 252.1875 Z M 165.679688 241.867188 " clip-rule="nonzero"/></clipPath><clipPath id="b9d2dad665"><path d="M 201.953125 211.292969 L 165.824219 241.746094 L 174.527344 252.066406 L 210.652344 221.613281 Z M 201.953125 211.292969 " clip-rule="nonzero"/></clipPath><clipPath id="7a2c0a9a58"><path d="M 201.953125 211.292969 L 165.824219 241.746094 L 174.527344 252.066406 L 210.652344 221.613281 Z M 201.953125 211.292969 " clip-rule="nonzero"/></clipPath><clipPath id="c7edf2ea39"><path d="M 266.625 297.128906 L 283 297.128906 L 283 318.128906 L 266.625 318.128906 Z M 266.625 297.128906 " clip-rule="nonzero"/></clipPath><clipPath id="ab2eae920c"><path d="M 278 297.128906 L 294.785156 297.128906 L 294.785156 318.128906 L 278 318.128906 Z M 278 297.128906 " clip-rule="nonzero"/></clipPath><clipPath id="244765f244"><path d="M 229.5 297.128906 L 246 297.128906 L 246 318.128906 L 229.5 318.128906 Z M 229.5 297.128906 " clip-rule="nonzero"/></clipPath><clipPath id="98ef046b40"><path d="M 241 297.128906 L 257.660156 297.128906 L 257.660156 318.128906 L 241 318.128906 Z M 241 297.128906 " clip-rule="nonzero"/></clipPath><clipPath id="7ab815bdb7"><path d="M 192.375 297.128906 L 209 297.128906 L 209 318.128906 L 192.375 318.128906 Z M 192.375 297.128906 " clip-rule="nonzero"/></clipPath><clipPath id="da55202a3c"><path d="M 204 297.128906 L 220.535156 297.128906 L 220.535156 318.128906 L 204 318.128906 Z M 204 297.128906 " clip-rule="nonzero"/></clipPath><clipPath id="5ffe799df5"><path d="M 155.25 297.128906 L 172 297.128906 L 172 318.128906 L 155.25 318.128906 Z M 155.25 297.128906 " clip-rule="nonzero"/></clipPath><clipPath id="1c1fabd2e9"><path d="M 167 297.128906 L 183.410156 297.128906 L 183.410156 318.128906 L 167 318.128906 Z M 167 297.128906 " clip-rule="nonzero"/></clipPath><clipPath id="7c67ae86c8"><path d="M 117 297 L 135 297 L 135 319 L 117 319 Z M 117 297 " clip-rule="nonzero"/></clipPath><clipPath id="ceadaf57cc"><path d="M 117.945312 297.378906 L 146.441406 296.875 L 146.8125 317.871094 L 118.316406 318.375 Z M 117.945312 297.378906 " clip-rule="nonzero"/></clipPath><clipPath id="09fdd94d83"><path d="M 146.101562 296.878906 L 117.605469 297.382812 L 117.976562 318.378906 L 146.472656 317.875 Z M 146.101562 296.878906 " clip-rule="nonzero"/></clipPath><clipPath id="560ca59e8f"><path d="M 130 296 L 147 296 L 147 318 L 130 318 Z M 130 296 " clip-rule="nonzero"/></clipPath><clipPath id="d4c0e28e48"><path d="M 117.945312 297.378906 L 146.441406 296.875 L 146.8125 317.871094 L 118.316406 318.375 Z M 117.945312 297.378906 " clip-rule="nonzero"/></clipPath><clipPath id="6b103073d7"><path d="M 146.101562 296.878906 L 117.605469 297.382812 L 117.976562 318.378906 L 146.472656 317.875 Z M 146.101562 296.878906 " clip-rule="nonzero"/></clipPath><clipPath id="c0b5ecd61a"><path d="M 75 282 L 95 282 L 95 304 L 75 304 Z M 75 282 " clip-rule="nonzero"/></clipPath><clipPath id="b1b7972945"><path d="M 81.105469 277.734375 L 105.09375 293.121094 L 93.757812 310.796875 L 69.765625 295.410156 Z M 81.105469 277.734375 " clip-rule="nonzero"/></clipPath><clipPath id="32c408b0fb"><path d="M 104.808594 292.9375 L 80.816406 277.550781 L 69.480469 295.226562 L 93.46875 310.613281 Z M 104.808594 292.9375 " clip-rule="nonzero"/></clipPath><clipPath id="6d29a970b5"><path d="M 85 289 L 105 289 L 105 311 L 85 311 Z M 85 289 " clip-rule="nonzero"/></clipPath><clipPath id="317c505292"><path d="M 81.105469 277.734375 L 105.09375 293.121094 L 93.757812 310.796875 L 69.765625 295.410156 Z M 81.105469 277.734375 " clip-rule="nonzero"/></clipPath><clipPath id="cc8fa3521a"><path d="M 104.808594 292.9375 L 80.816406 277.550781 L 69.480469 295.226562 L 93.46875 310.613281 Z M 104.808594 292.9375 " clip-rule="nonzero"/></clipPath><clipPath id="10e3e0fd4c"><path d="M 39 261 L 60 261 L 60 282 L 39 282 Z M 39 261 " clip-rule="nonzero"/></clipPath><clipPath id="84cf83392e"><path d="M 48.058594 255.742188 L 68.585938 275.511719 L 54.019531 290.636719 L 33.492188 270.867188 Z M 48.058594 255.742188 " clip-rule="nonzero"/></clipPath><clipPath id="598993e23c"><path d="M 68.339844 275.277344 L 47.8125 255.503906 L 33.246094 270.632812 L 53.773438 290.402344 Z M 68.339844 275.277344 " clip-rule="nonzero"/></clipPath><clipPath id="f5b3f91b6a"><path d="M 48 270 L 68 270 L 68 290 L 48 290 Z M 48 270 " clip-rule="nonzero"/></clipPath><clipPath id="6975c3c101"><path d="M 48.058594 255.742188 L 68.585938 275.511719 L 54.019531 290.636719 L 33.492188 270.867188 Z M 48.058594 255.742188 " clip-rule="nonzero"/></clipPath><clipPath id="d3a16efa86"><path d="M 68.339844 275.277344 L 47.8125 255.503906 L 33.246094 270.632812 L 53.773438 290.402344 Z M 68.339844 275.277344 " clip-rule="nonzero"/></clipPath><clipPath id="19a1b4c996"><path d="M 17 226 L 39 226 L 39 245 L 17 245 Z M 17 226 " clip-rule="nonzero"/></clipPath><clipPath id="86f91b88e7"><path d="M 31.21875 221.023438 L 45.539062 245.664062 L 27.386719 256.21875 L 13.0625 231.578125 Z M 31.21875 221.023438 " clip-rule="nonzero"/></clipPath><clipPath id="288987e8bd"><path d="M 45.371094 245.371094 L 31.046875 220.730469 L 12.890625 231.285156 L 27.214844 255.925781 Z M 45.371094 245.371094 " clip-rule="nonzero"/></clipPath><clipPath id="6d56c7fcfb"><path d="M 23 236 L 45 236 L 45 256 L 23 256 Z M 23 236 " clip-rule="nonzero"/></clipPath><clipPath id="592e913f8d"><path d="M 31.21875 221.023438 L 45.539062 245.664062 L 27.386719 256.21875 L 13.0625 231.578125 Z M 31.21875 221.023438 " clip-rule="nonzero"/></clipPath><clipPath id="8cab6f948f"><path d="M 45.371094 245.371094 L 31.046875 220.730469 L 12.890625 231.285156 L 27.214844 255.925781 Z M 45.371094 245.371094 " clip-rule="nonzero"/></clipPath><clipPath id="b55ada5c6a"><path d="M 8.878906 171.9375 L 29.878906 171.9375 L 29.878906 188 L 8.878906 188 Z M 8.878906 171.9375 " clip-rule="nonzero"/></clipPath><clipPath id="cc553eb30a"><path d="M 8.878906 184 L 29.878906 184 L 29.878906 200.097656 L 8.878906 200.097656 Z M 8.878906 184 " clip-rule="nonzero"/></clipPath><clipPath id="905bd449be"><path d="M 20 121 L 42 121 L 42 141 L 20 141 Z M 20 121 " clip-rule="nonzero"/></clipPath><clipPath id="c57357b6c9"><path d="M 46.378906 127.648438 L 30.144531 151.074219 L 12.882812 139.109375 L 29.117188 115.6875 Z M 46.378906 127.648438 " clip-rule="nonzero"/></clipPath><clipPath id="178626ee97"><path d="M 30.339844 150.792969 L 46.574219 127.367188 L 29.3125 115.40625 L 13.078125 138.832031 Z M 30.339844 150.792969 " clip-rule="nonzero"/></clipPath><clipPath id="823fd81993"><path d="M 13 131 L 35 131 L 35 151 L 13 151 Z M 13 131 " clip-rule="nonzero"/></clipPath><clipPath id="70b2cff477"><path d="M 46.378906 127.648438 L 30.144531 151.074219 L 12.882812 139.109375 L 29.117188 115.6875 Z M 46.378906 127.648438 " clip-rule="nonzero"/></clipPath><clipPath id="3db8b4c9b0"><path d="M 30.339844 150.792969 L 46.574219 127.367188 L 29.3125 115.40625 L 13.078125 138.832031 Z M 30.339844 150.792969 " clip-rule="nonzero"/></clipPath><clipPath id="c97734b715"><path d="M 47 87 L 66 87 L 66 108 L 47 108 Z M 47 87 " clip-rule="nonzero"/></clipPath><clipPath id="8a79610680"><path d="M 72.519531 97.335938 L 51.425781 116.5 L 37.304688 100.957031 L 58.398438 81.792969 Z M 72.519531 97.335938 " clip-rule="nonzero"/></clipPath><clipPath id="844c8e0d78"><path d="M 51.675781 116.269531 L 72.769531 97.105469 L 58.648438 81.5625 L 37.554688 100.726562 Z M 51.675781 116.269531 " clip-rule="nonzero"/></clipPath><clipPath id="c474815583"><path d="M 37 96 L 57 96 L 57 116 L 37 116 Z M 37 96 " clip-rule="nonzero"/></clipPath><clipPath id="49f9f2c929"><path d="M 72.519531 97.335938 L 51.425781 116.5 L 37.304688 100.957031 L 58.398438 81.792969 Z M 72.519531 97.335938 " clip-rule="nonzero"/></clipPath><clipPath id="79bad27edf"><path d="M 51.675781 116.269531 L 72.769531 97.105469 L 58.648438 81.5625 L 37.554688 100.726562 Z M 51.675781 116.269531 " clip-rule="nonzero"/></clipPath><clipPath id="492791158e"><path d="M 81 66 L 101 66 L 101 88 L 81 88 Z M 81 66 " clip-rule="nonzero"/></clipPath><clipPath id="67cba70ee1"><path d="M 104.921875 81.058594 L 79.34375 93.632812 L 70.078125 74.785156 L 95.65625 62.214844 Z M 104.921875 81.058594 " clip-rule="nonzero"/></clipPath><clipPath id="756e11333c"><path d="M 79.648438 93.480469 L 105.226562 80.910156 L 95.960938 62.0625 L 70.382812 74.636719 Z M 79.648438 93.480469 " clip-rule="nonzero"/></clipPath><clipPath id="67ffe5e523"><path d="M 70 71 L 90 71 L 90 94 L 70 94 Z M 70 71 " clip-rule="nonzero"/></clipPath><clipPath id="fbf2425de7"><path d="M 104.921875 81.058594 L 79.34375 93.632812 L 70.078125 74.785156 L 95.65625 62.214844 Z M 104.921875 81.058594 " clip-rule="nonzero"/></clipPath><clipPath id="3ed057ff39"><path d="M 79.648438 93.480469 L 105.226562 80.910156 L 95.960938 62.0625 L 70.382812 74.636719 Z M 79.648438 93.480469 " clip-rule="nonzero"/></clipPath><clipPath id="21cbbb604f"><path d="M 130 57.015625 L 146.285156 57.015625 L 146.285156 78 L 130 78 Z M 130 57.015625 " clip-rule="nonzero"/></clipPath><clipPath id="b90cc308be"><path d="M 118.125 57.015625 L 135 57.015625 L 135 78 L 118.125 78 Z M 118.125 57.015625 " clip-rule="nonzero"/></clipPath><clipPath id="1204475863"><path d="M 166 56 L 183 56 L 183 78 L 166 78 Z M 166 56 " clip-rule="nonzero"/></clipPath><clipPath id="0f4ef39f8d"><path d="M 182.511719 78.015625 L 154.023438 77.15625 L 154.65625 56.164062 L 183.144531 57.023438 Z M 182.511719 78.015625 " clip-rule="nonzero"/></clipPath><clipPath id="90ec8317f8"><path d="M 154.363281 77.164062 L 182.851562 78.023438 L 183.484375 57.035156 L 154.996094 56.175781 Z M 154.363281 77.164062 " clip-rule="nonzero"/></clipPath><clipPath id="7c45950b31"><path d="M 154 56 L 171 56 L 171 78 L 154 78 Z M 154 56 " clip-rule="nonzero"/></clipPath><clipPath id="44ae4fac28"><path d="M 182.511719 78.015625 L 154.023438 77.15625 L 154.65625 56.164062 L 183.144531 57.023438 Z M 182.511719 78.015625 " clip-rule="nonzero"/></clipPath><clipPath id="c078ee2878"><path d="M 154.363281 77.164062 L 182.851562 78.023438 L 183.484375 57.035156 L 154.996094 56.175781 Z M 154.363281 77.164062 " clip-rule="nonzero"/></clipPath><clipPath id="55c110b8dd"><path d="M 278 56 L 295 56 L 295 78 L 278 78 Z M 278 56 " clip-rule="nonzero"/></clipPath><clipPath id="c9de862096"><path d="M 294.164062 78.015625 L 265.675781 77.15625 L 266.308594 56.164062 L 294.796875 57.023438 Z M 294.164062 78.015625 " clip-rule="nonzero"/></clipPath><clipPath id="fa55bc0af7"><path d="M 266.015625 77.164062 L 294.503906 78.023438 L 295.136719 57.035156 L 266.648438 56.175781 Z M 266.015625 77.164062 " clip-rule="nonzero"/></clipPath><clipPath id="666fa240e5"><path d="M 266 56 L 283 56 L 283 78 L 266 78 Z M 266 56 " clip-rule="nonzero"/></clipPath><clipPath id="09b48e4ac5"><path d="M 294.164062 78.015625 L 265.675781 77.15625 L 266.308594 56.164062 L 294.796875 57.023438 Z M 294.164062 78.015625 " clip-rule="nonzero"/></clipPath><clipPath id="dd18f1a4fc"><path d="M 266.015625 77.164062 L 294.503906 78.023438 L 295.136719 57.035156 L 266.648438 56.175781 Z M 266.015625 77.164062 " clip-rule="nonzero"/></clipPath><clipPath id="207bf999b8"><path d="M 241 56 L 258 56 L 258 78 L 241 78 Z M 241 56 " clip-rule="nonzero"/></clipPath><clipPath id="76e5d17a07"><path d="M 257.039062 78.015625 L 228.550781 77.15625 L 229.183594 56.164062 L 257.671875 57.023438 Z M 257.039062 78.015625 " clip-rule="nonzero"/></clipPath><clipPath id="e2b627d5e4"><path d="M 228.890625 77.164062 L 257.378906 78.023438 L 258.011719 57.035156 L 229.523438 56.175781 Z M 228.890625 77.164062 " clip-rule="nonzero"/></clipPath><clipPath id="dec18d0bf3"><path d="M 228 56 L 246 56 L 246 78 L 228 78 Z M 228 56 " clip-rule="nonzero"/></clipPath><clipPath id="1e003f1129"><path d="M 257.039062 78.015625 L 228.550781 77.15625 L 229.183594 56.164062 L 257.671875 57.023438 Z M 257.039062 78.015625 " clip-rule="nonzero"/></clipPath><clipPath id="6cbcc7ecf7"><path d="M 228.890625 77.164062 L 257.378906 78.023438 L 258.011719 57.035156 L 229.523438 56.175781 Z M 228.890625 77.164062 " clip-rule="nonzero"/></clipPath><clipPath id="bdcd3a2c46"><path d="M 204 56 L 221 56 L 221 78 L 204 78 Z M 204 56 " clip-rule="nonzero"/></clipPath><clipPath id="31380c5c5d"><path d="M 220.523438 78.015625 L 192.035156 77.15625 L 192.667969 56.164062 L 221.15625 57.023438 Z M 220.523438 78.015625 " clip-rule="nonzero"/></clipPath><clipPath id="4a2f7aba00"><path d="M 192.375 77.164062 L 220.863281 78.023438 L 221.496094 57.035156 L 193.007812 56.175781 Z M 192.375 77.164062 " clip-rule="nonzero"/></clipPath><clipPath id="4faca7d4d7"><path d="M 192 56 L 209 56 L 209 78 L 192 78 Z M 192 56 " clip-rule="nonzero"/></clipPath><clipPath id="6be055edea"><path d="M 220.523438 78.015625 L 192.035156 77.15625 L 192.667969 56.164062 L 221.15625 57.023438 Z M 220.523438 78.015625 " clip-rule="nonzero"/></clipPath><clipPath id="9aa6bab9c8"><path d="M 192.375 77.164062 L 220.863281 78.023438 L 221.496094 57.035156 L 193.007812 56.175781 Z M 192.375 77.164062 " clip-rule="nonzero"/></clipPath></defs><g clip-path="url(#df13f6e02e)"><g clip-path="url(#c53ecaee40)"><path fill="#919191" d="M 303.75 52.777344 L 303.75 323.039062 L -0.132812 323.039062 L -0.132812 52.777344 Z M 303.75 52.777344 " fill-opacity="1" fill-rule="nonzero"/></g></g><g clip-path="url(#a728c2a3d5)"><g clip-path="url(#f65990b84c)"><path stroke-linecap="butt" transform="matrix(0.000000000000000046, 0.75, -0.75, 0.000000000000000046, 303.749959, 52.777335)" fill="none" stroke-linejoin="miter" d="M 120.062517 394.442673 C 138.520852 400.817674 159.505228 404.999965 180.098979 404.999965 C 200.69273 404.999965 220.505231 401.416632 238.770857 395.041632 C 239.156274 394.838507 239.546899 394.838507 239.937524 394.64059 C 308.515652 369.145797 359.03128 301.81246 360.00003 224.124956 L 360.00003 -0.0000552182 L 0.0000113526 -0.0000552182 L 0.0000113526 223.95829 C 0.97397 302.208294 50.708347 369.54163 120.062517 394.442673 " stroke="#000000" stroke-width="4" stroke-opacity="1" stroke-miterlimit="4"/></g></g><g clip-path="url(#026755a4d4)"><g clip-path="url(#cee9e362cd)"><g clip-path="url(#442a757f31)"><path fill="#707070" d="M -10.984375 186.019531 L 141.5625 33.46875 L 294.109375 186.019531 L 141.5625 338.566406 Z M -10.984375 186.019531 " fill-opacity="1" fill-rule="nonzero"/></g></g></g><g clip-path="url(#815ac26619)"><g clip-path="url(#f3033a26da)"><g clip-path="url(#a69cf2d84e)"><g clip-path="url(#155498ef94)"><path stroke-linecap="butt" transform="matrix(0.53033, -0.53033, 0.53033, 0.53033, -10.985064, 186.018296)" fill="none" stroke-linejoin="miter" d="M 143.998849 0.00181333 C 64.471425 0.00181333 -0.000515017 64.473754 -0.000515017 144.001178 C -0.000515017 223.528602 64.471425 288.000542 143.998849 288.000542 C 223.526273 288.000542 287.998214 223.528602 287.998214 144.001178 C 288.001897 64.470071 223.529956 -0.00186952 143.998849 0.00181333 " stroke="#000000" stroke-width="8" stroke-opacity="1" stroke-miterlimit="4"/></g></g></g></g><g clip-path="url(#8bd62202c1)"><g clip-path="url(#f48b47b3ec)"><g clip-path="url(#517a773dc9)"><path fill="#ffde59" d="M 86.894531 146.199219 L 99.300781 133.695312 L 121.960938 156.183594 L 109.554688 168.683594 Z M 86.894531 146.199219 " fill-opacity="1" fill-rule="nonzero"/></g></g></g><g clip-path="url(#d176cd7fd4)"><g clip-path="url(#49494ff11e)"><g clip-path="url(#c8fca470f3)"><path fill="#ffde59" d="M 172.9375 185.613281 L 168.5 168.566406 L 199.394531 160.523438 L 203.832031 177.566406 Z M 172.9375 185.613281 " fill-opacity="1" fill-rule="nonzero"/></g></g></g><g clip-path="url(#877030f9a1)"><g clip-path="url(#e1807291a2)"><g clip-path="url(#5aaf1062e1)"><path fill="#ffde59" d="M 167.03125 243.777344 L 85.472656 221.863281 L 104.476562 151.132812 L 186.035156 173.046875 Z M 167.03125 243.777344 " fill-opacity="1" fill-rule="nonzero"/></g></g></g><g clip-path="url(#d5c863e74f)"><g clip-path="url(#b9db18e332)"><g clip-path="url(#fd6bd0c288)"><path fill="#ffde59" d="M 132.738281 242.738281 L 115.730469 238.167969 L 124.015625 207.335938 L 141.023438 211.910156 Z M 132.738281 242.738281 " fill-opacity="1" fill-rule="nonzero"/></g></g></g><g clip-path="url(#77f01a5c79)"><g clip-path="url(#2c4f81dbc3)"><g clip-path="url(#ee65caba77)"><path fill="#ffde59" d="M 153.34375 241.433594 L 137.675781 294.804688 L 84.304688 279.136719 L 99.972656 225.765625 Z M 153.34375 241.433594 " fill-opacity="1" fill-rule="nonzero"/></g></g></g><g clip-path="url(#1316b064e7)"><g clip-path="url(#ba9c1e50f5)"><g clip-path="url(#02f8b45a58)"><g clip-path="url(#a5bfe507ba)"><path fill="#000000" d="M 142.652344 267.214844 C 144.21875 261.886719 144.015625 256.636719 142.046875 251.460938 L 147.644531 249.332031 C 150.089844 255.761719 150.339844 262.285156 148.398438 268.902344 Z M 140.964844 249.015625 C 138.441406 244.0625 134.695312 240.382812 129.726562 237.976562 L 132.335938 232.585938 C 138.515625 235.582031 143.167969 240.152344 146.296875 246.296875 Z M 127.265625 236.941406 C 126.808594 236.777344 126.34375 236.628906 125.871094 236.488281 C 121.050781 235.074219 116.25 235.117188 111.480469 236.621094 L 109.679688 230.910156 C 115.609375 229.042969 121.570312 228.988281 127.558594 230.746094 C 128.140625 230.914062 128.714844 231.101562 129.285156 231.304688 Z M 108.972656 237.5625 C 103.882812 239.796875 99.988281 243.324219 97.292969 248.144531 L 92.066406 245.226562 C 95.414062 239.230469 100.25 234.851562 106.570312 232.078125 Z M 96.125 250.53125 C 95.746094 251.421875 95.421875 252.335938 95.144531 253.269531 C 93.875 257.597656 93.789062 261.933594 94.886719 266.28125 L 89.082031 267.746094 C 87.714844 262.34375 87.824219 256.957031 89.402344 251.585938 C 89.742188 250.425781 90.144531 249.292969 90.613281 248.1875 Z M 95.679688 268.832031 C 97.609375 274.042969 100.902344 278.132812 105.558594 281.105469 L 102.335938 286.152344 C 96.550781 282.457031 92.460938 277.378906 90.066406 270.914062 Z M 107.886719 282.421875 C 109.179688 283.0625 110.527344 283.585938 111.925781 283.996094 C 115.765625 285.125 119.632812 285.316406 123.53125 284.570312 L 124.65625 290.449219 C 119.808594 291.375 115.003906 291.140625 110.238281 289.742188 C 108.507812 289.234375 106.835938 288.582031 105.230469 287.785156 Z M 126.121094 283.925781 C 131.429688 282.300781 135.707031 279.25 138.953125 274.773438 L 143.800781 278.289062 C 139.773438 283.847656 134.460938 287.636719 127.871094 289.652344 Z M 140.402344 272.527344 C 141.355469 270.851562 142.105469 269.082031 142.652344 267.214844 L 148.398438 268.902344 C 147.71875 271.21875 146.789062 273.414062 145.601562 275.492188 Z M 140.402344 272.527344 " fill-opacity="1" fill-rule="nonzero"/></g></g></g></g><g clip-path="url(#922b229848)"><g clip-path="url(#2e9a2f3d68)"><g clip-path="url(#4f58b02782)"><path fill="#ffde59" d="M 249.054688 184.992188 L 195.3125 199.328125 L 180.976562 145.585938 L 234.71875 131.25 Z M 249.054688 184.992188 " fill-opacity="1" fill-rule="nonzero"/></g></g></g><g clip-path="url(#a53816ca6e)"><g clip-path="url(#cf21855d2a)"><g clip-path="url(#96a044d6d9)"><g clip-path="url(#ba181c669d)"><path fill="#000000" d="M 221.472656 189.253906 C 226.839844 187.820312 231.222656 184.921875 234.621094 180.550781 L 239.347656 184.226562 C 235.121094 189.65625 229.679688 193.261719 223.015625 195.039062 Z M 236.148438 178.351562 C 239.066406 173.625 240.265625 168.515625 239.742188 163.015625 L 245.703125 162.449219 C 246.355469 169.28125 244.867188 175.632812 241.238281 181.5 Z M 239.347656 160.378906 C 239.25 159.902344 239.136719 159.425781 239.011719 158.953125 C 237.714844 154.09375 235.183594 150.019531 231.421875 146.722656 L 235.363281 142.21875 C 240.042969 146.3125 243.1875 151.378906 244.796875 157.410156 C 244.953125 157.992188 245.089844 158.582031 245.210938 159.171875 Z M 229.316406 145.070312 C 224.761719 141.878906 219.726562 140.382812 214.203125 140.585938 L 213.984375 134.601562 C 220.84375 134.351562 227.101562 136.207031 232.75 140.167969 Z M 211.558594 140.828125 C 210.601562 140.964844 209.652344 141.160156 208.710938 141.414062 C 204.351562 142.574219 200.601562 144.753906 197.457031 147.949219 L 193.1875 143.75 C 197.097656 139.78125 201.753906 137.070312 207.164062 135.628906 C 208.332031 135.316406 209.511719 135.074219 210.699219 134.902344 Z M 195.691406 149.953125 C 192.242188 154.308594 190.457031 159.25 190.332031 164.769531 L 184.347656 164.636719 C 184.5 157.777344 186.714844 151.644531 190.996094 146.238281 Z M 190.417969 167.445312 C 190.542969 168.882812 190.796875 170.304688 191.171875 171.714844 C 192.203125 175.578125 194.046875 178.984375 196.710938 181.925781 L 192.269531 185.941406 C 188.960938 182.285156 186.664062 178.054688 185.386719 173.257812 C 184.921875 171.511719 184.609375 169.746094 184.453125 167.960938 Z M 198.605469 183.804688 C 202.753906 187.5 207.582031 189.570312 213.09375 190.015625 L 212.609375 195.984375 C 205.765625 195.429688 199.769531 192.859375 194.621094 188.277344 Z M 215.765625 190.085938 C 217.691406 190.03125 219.59375 189.753906 221.472656 189.253906 L 223.015625 195.039062 C 220.683594 195.660156 218.324219 196.003906 215.933594 196.070312 Z M 215.765625 190.085938 " fill-opacity="1" fill-rule="nonzero"/></g></g></g></g><g clip-path="url(#11b3765acc)"><g clip-path="url(#4ca5201d07)"><g clip-path="url(#fda6f8c7e4)"><path fill="#ffde59" d="M 125.597656 132.667969 L 86.265625 172 L 46.9375 132.667969 L 86.265625 93.335938 Z M 125.597656 132.667969 " fill-opacity="1" fill-rule="nonzero"/></g></g></g><g clip-path="url(#35165c9ed8)"><g clip-path="url(#82f5424d9b)"><g clip-path="url(#6bf07abcda)"><g clip-path="url(#116f0610ad)"><path fill="#000000" d="M 103.859375 150.171875 C 107.785156 146.246094 110.125 141.539062 110.878906 136.054688 L 116.8125 136.867188 C 115.875 143.683594 112.96875 149.53125 108.09375 154.40625 Z M 111.097656 133.386719 C 111.261719 127.832031 109.738281 122.808594 106.527344 118.3125 L 111.402344 114.835938 C 115.390625 120.421875 117.285156 126.664062 117.085938 133.5625 Z M 104.863281 116.226562 C 104.539062 115.863281 104.207031 115.507812 103.859375 115.164062 C 100.304688 111.609375 96.074219 109.347656 91.164062 108.378906 L 92.320312 102.503906 C 98.421875 103.707031 103.679688 106.515625 108.09375 110.929688 C 108.519531 111.355469 108.9375 111.796875 109.335938 112.246094 Z M 88.515625 108.003906 C 82.972656 107.523438 77.867188 108.753906 73.191406 111.695312 L 70.003906 106.625 C 75.8125 102.96875 82.15625 101.441406 89.03125 102.039062 Z M 71.023438 113.226562 C 70.261719 113.828125 69.539062 114.472656 68.847656 115.164062 C 65.660156 118.351562 63.503906 122.117188 62.382812 126.457031 L 56.585938 124.960938 C 57.980469 119.566406 60.65625 114.886719 64.613281 110.929688 C 65.46875 110.074219 66.367188 109.277344 67.308594 108.53125 Z M 61.859375 129.074219 C 61.054688 134.574219 61.984375 139.742188 64.644531 144.582031 L 59.398438 147.464844 C 56.09375 141.453125 54.9375 135.035156 55.933594 128.210938 Z M 66.058594 146.851562 C 66.886719 148.035156 67.816406 149.140625 68.847656 150.171875 C 71.675781 153 74.980469 155.023438 78.757812 156.234375 L 76.925781 161.9375 C 72.230469 160.425781 68.125 157.917969 64.613281 154.40625 C 63.335938 153.128906 62.183594 151.757812 61.15625 150.289062 Z M 81.339844 156.914062 C 86.78125 158.03125 91.996094 157.40625 96.988281 155.03125 L 99.558594 160.4375 C 93.359375 163.386719 86.882812 164.167969 80.132812 162.777344 Z M 99.339844 153.753906 C 100.976562 152.742188 102.484375 151.546875 103.859375 150.171875 L 108.09375 154.40625 C 106.386719 156.113281 104.515625 157.59375 102.480469 158.847656 Z M 99.339844 153.753906 " fill-opacity="1" fill-rule="nonzero"/></g></g></g></g><g clip-path="url(#bb2ca3b7da)"><g clip-path="url(#364e3698a4)"><g clip-path="url(#997ba59caf)"><path fill="#707070" d="M 123.757812 268.832031 L 110.277344 265.210938 L 113.898438 251.730469 L 127.378906 255.351562 Z M 123.757812 268.832031 " fill-opacity="1" fill-rule="nonzero"/></g></g></g><g clip-path="url(#c956564cab)"><g clip-path="url(#698f11f376)"><g clip-path="url(#5a80b98cc2)"><path fill="#707070" d="M 210.078125 173.832031 L 206.480469 160.34375 L 219.964844 156.746094 L 223.566406 170.234375 Z M 210.078125 173.832031 " fill-opacity="1" fill-rule="nonzero"/></g></g></g><g clip-path="url(#60bddb1dc9)"><g clip-path="url(#3ad1c39028)"><g clip-path="url(#4e32b8beb9)"><path fill="#707070" d="M 90.480469 141.96875 L 77 138.34375 L 80.621094 124.863281 L 94.101562 128.484375 Z M 90.480469 141.96875 " fill-opacity="1" fill-rule="nonzero"/></g></g></g><g clip-path="url(#103a25f2eb)"><g clip-path="url(#273e8032fd)"><g clip-path="url(#2aa375dc03)"><g clip-path="url(#7c8643c087)"><path fill="#ffffff" d="M 90.640625 221.097656 C 90.617188 221.132812 90.582031 221.148438 90.539062 221.144531 C 90.46875 221.273438 90.625 221.445312 90.445312 221.550781 C 90.253906 221.957031 89.90625 221.957031 89.535156 221.890625 C 88.503906 221.703125 87.523438 221.347656 86.566406 220.9375 C 83.136719 219.457031 80.183594 217.335938 77.582031 214.667969 C 73.042969 210.015625 70.597656 204.394531 69.679688 198.050781 C 69.253906 195.113281 69.351562 192.152344 69.589844 189.191406 C 69.730469 187.453125 69.976562 185.730469 70.179688 183.996094 C 70.214844 183.9375 70.25 183.878906 70.285156 183.820312 C 70.261719 183.746094 70.257812 183.65625 70.207031 183.609375 C 70.207031 183.609375 70.207031 183.609375 70.207031 183.605469 C 70.167969 183.570312 70.113281 183.625 70.105469 183.6875 C 69.628906 184.183594 69.269531 184.761719 68.941406 185.359375 C 68.71875 185.769531 68.472656 186.148438 68.109375 186.449219 C 67.636719 187.335938 66.890625 187.628906 66.03125 187.3125 C 66.078125 185.320312 67.089844 183.746094 68.246094 182.230469 C 68.679688 181.667969 69.070312 181.074219 69.46875 180.488281 C 70.429688 179.085938 70.367188 179.34375 71.75 179.421875 C 72.0625 179.441406 72.359375 179.527344 72.648438 179.648438 C 72.753906 179.691406 72.847656 179.738281 72.890625 179.851562 C 73.242188 179.890625 73.34375 180.167969 73.433594 180.441406 C 73.695312 181.25 73.945312 182.0625 74.199219 182.878906 C 74.355469 183.011719 74.390625 183.195312 74.417969 183.382812 C 74.574219 183.511719 74.609375 183.699219 74.648438 183.882812 C 74.777344 183.953125 74.792969 184.097656 74.851562 184.210938 C 75.675781 185.75 76.660156 187.175781 77.890625 188.429688 C 77.984375 188.523438 78.070312 188.625 78.15625 188.722656 C 78.261719 188.839844 78.382812 188.96875 78.292969 189.125 C 78.226562 189.242188 78.039062 189.285156 77.933594 189.242188 C 77.453125 189.054688 76.933594 189.191406 76.457031 189.050781 C 76.246094 188.988281 76.074219 188.847656 75.90625 188.695312 C 74.597656 187.558594 73.527344 186.21875 72.597656 184.765625 C 72.511719 184.636719 72.449219 184.488281 72.339844 184.382812 C 72.214844 184.253906 72.101562 184.34375 72.015625 184.460938 C 72.09375 184.621094 72.070312 184.761719 71.953125 184.890625 C 72 185.046875 72.027344 185.203125 71.894531 185.339844 C 71.925781 185.371094 71.925781 185.398438 71.890625 185.425781 C 71.9375 185.574219 71.953125 185.71875 71.839844 185.851562 C 71.847656 185.957031 71.871094 186.066406 71.863281 186.175781 C 71.761719 187.355469 71.640625 188.535156 71.554688 189.714844 C 71.476562 190.789062 71.429688 191.863281 71.371094 192.9375 C 71.390625 193.222656 71.417969 193.503906 71.425781 193.789062 C 71.515625 196.550781 71.941406 199.257812 72.773438 201.894531 C 73.070312 202.835938 73.394531 203.765625 73.710938 204.703125 C 73.875 204.839844 73.898438 205.035156 73.929688 205.230469 C 74.089844 205.363281 74.117188 205.546875 74.148438 205.734375 C 74.308594 205.84375 74.324219 206.027344 74.367188 206.195312 C 74.480469 206.257812 74.511719 206.363281 74.515625 206.484375 C 74.554688 206.511719 74.570312 206.546875 74.558594 206.59375 C 74.683594 206.667969 74.699219 206.808594 74.761719 206.917969 C 75.078125 207.46875 75.289062 208.070312 75.675781 208.578125 C 75.644531 208.648438 75.679688 208.824219 75.519531 208.652344 C 75.40625 208.535156 75.363281 208.542969 75.339844 208.59375 C 75.324219 208.636719 75.324219 208.710938 75.316406 208.769531 C 76.363281 210.46875 77.609375 212.019531 78.957031 213.492188 C 79.09375 213.617188 79.230469 213.742188 79.367188 213.867188 C 80.191406 214.613281 81.015625 215.359375 81.839844 216.105469 C 81.886719 216.109375 81.921875 216.128906 81.949219 216.15625 C 81.964844 216.175781 81.980469 216.195312 81.992188 216.226562 C 82.066406 216.230469 82.113281 216.269531 82.136719 216.339844 C 82.214844 216.34375 82.261719 216.382812 82.285156 216.457031 C 82.363281 216.457031 82.410156 216.496094 82.433594 216.570312 C 82.511719 216.574219 82.5625 216.609375 82.585938 216.683594 C 82.664062 216.683594 82.714844 216.722656 82.734375 216.792969 L 82.738281 216.796875 C 82.8125 216.792969 82.863281 216.832031 82.886719 216.902344 L 82.886719 216.90625 C 82.941406 216.9375 82.988281 216.972656 83.039062 217.011719 L 83.042969 217.015625 C 83.121094 217.015625 83.167969 217.046875 83.191406 217.121094 L 83.199219 217.125 C 83.273438 217.125 83.324219 217.15625 83.347656 217.230469 L 83.351562 217.234375 C 83.351562 217.234375 83.355469 217.234375 83.355469 217.234375 C 83.355469 217.234375 83.351562 217.234375 83.351562 217.234375 C 83.429688 217.230469 83.480469 217.265625 83.503906 217.339844 L 83.507812 217.34375 C 83.585938 217.335938 83.636719 217.375 83.65625 217.445312 L 83.660156 217.449219 C 83.738281 217.445312 83.789062 217.480469 83.816406 217.554688 C 84.3125 217.847656 84.808594 218.140625 85.308594 218.4375 C 85.515625 218.671875 85.808594 218.777344 86.078125 218.921875 C 86.109375 218.902344 86.128906 218.875 86.144531 218.851562 C 86.171875 218.808594 86.183594 218.761719 86.179688 218.707031 C 86.394531 218.792969 86.617188 218.863281 86.777344 219.042969 C 86.820312 219.101562 86.871094 219.152344 86.941406 219.179688 C 86.886719 219.132812 86.832031 219.089844 86.777344 219.042969 C 86.851562 219.054688 86.921875 219.078125 86.9375 219.160156 C 87.050781 219.140625 87.140625 219.183594 87.21875 219.265625 C 87.292969 219.253906 87.347656 219.273438 87.378906 219.347656 C 87.457031 219.351562 87.519531 219.371094 87.558594 219.445312 C 87.597656 219.445312 87.628906 219.453125 87.65625 219.484375 C 87.882812 219.53125 88.082031 219.621094 88.265625 219.757812 C 88.421875 219.800781 88.578125 219.835938 88.699219 219.957031 C 88.808594 219.945312 88.890625 220.007812 88.976562 220.058594 C 89.59375 220.222656 90.175781 220.496094 90.855469 220.542969 C 90.734375 220.75 90.851562 220.980469 90.640625 221.097656 Z M 71.757812 185.449219 C 71.757812 185.453125 71.757812 185.449219 71.757812 185.449219 C 71.757812 185.453125 71.761719 185.453125 71.761719 185.453125 C 71.761719 185.453125 71.757812 185.449219 71.757812 185.449219 C 71.761719 185.449219 71.761719 185.449219 71.765625 185.449219 C 71.761719 185.449219 71.761719 185.449219 71.757812 185.449219 Z M 83.261719 217.621094 C 83.25 217.613281 83.238281 217.609375 83.222656 217.601562 C 83.226562 217.605469 83.226562 217.605469 83.230469 217.609375 C 83.242188 217.617188 83.25 217.625 83.265625 217.632812 C 83.261719 217.628906 83.261719 217.625 83.261719 217.621094 Z M 81.84375 216.117188 C 81.839844 216.117188 81.839844 216.121094 81.839844 216.121094 C 81.835938 216.125 81.832031 216.128906 81.832031 216.132812 L 81.824219 216.148438 L 81.839844 216.121094 C 81.84375 216.117188 81.84375 216.121094 81.84375 216.121094 C 81.84375 216.121094 81.84375 216.117188 81.84375 216.117188 Z M 83.261719 217.691406 C 83.261719 217.671875 83.261719 217.652344 83.261719 217.636719 C 83.253906 217.628906 83.242188 217.621094 83.234375 217.613281 C 83.253906 217.632812 83.265625 217.65625 83.261719 217.691406 Z M 83.160156 217.566406 C 83.148438 217.558594 83.136719 217.550781 83.125 217.542969 C 83.121094 217.542969 83.121094 217.542969 83.121094 217.542969 C 83.132812 217.550781 83.148438 217.558594 83.160156 217.566406 Z M 89.433594 221.179688 C 89.433594 221.183594 89.433594 221.183594 89.4375 221.183594 C 89.4375 221.183594 89.4375 221.1875 89.4375 221.1875 C 89.441406 221.1875 89.441406 221.1875 89.445312 221.1875 C 89.441406 221.183594 89.4375 221.183594 89.433594 221.179688 Z M 89.160156 221.109375 C 89.15625 221.109375 89.152344 221.109375 89.148438 221.105469 C 89.152344 221.105469 89.15625 221.109375 89.160156 221.109375 Z M 86.992188 219.28125 C 86.992188 219.296875 86.988281 219.308594 86.984375 219.324219 C 86.992188 219.324219 87 219.320312 87.011719 219.320312 C 87.003906 219.308594 87 219.292969 86.992188 219.28125 Z M 87.46875 219.441406 C 87.488281 219.457031 87.511719 219.460938 87.539062 219.460938 C 87.539062 219.460938 87.539062 219.460938 87.539062 219.457031 C 87.511719 219.457031 87.488281 219.453125 87.46875 219.441406 Z M 87.46875 219.441406 " fill-opacity="1" fill-rule="nonzero"/></g></g></g></g><g clip-path="url(#924a3285a4)"><g clip-path="url(#b42c17308e)"><g clip-path="url(#a2b10498a2)"><g clip-path="url(#302704e20b)"><path fill="#ffffff" d="M 83.046875 217.019531 C 82.996094 216.984375 82.945312 216.949219 82.894531 216.914062 C 82.972656 216.914062 83.023438 216.949219 83.046875 217.019531 Z M 83.046875 217.019531 " fill-opacity="1" fill-rule="nonzero"/></g></g></g></g><g clip-path="url(#982fe0af18)"><g clip-path="url(#2d10943b35)"><g clip-path="url(#b15c53974e)"><g clip-path="url(#ed53ca2e32)"><path fill="#ffffff" d="M 132.214844 120.726562 C 132.199219 120.6875 132.207031 120.648438 132.230469 120.617188 C 132.167969 120.484375 131.9375 120.511719 131.953125 120.304688 C 131.730469 119.914062 131.933594 119.628906 132.199219 119.367188 C 132.949219 118.628906 133.800781 118.03125 134.6875 117.484375 C 137.871094 115.53125 141.308594 114.339844 144.984375 113.746094 C 151.40625 112.714844 157.40625 113.953125 163.121094 116.847656 C 165.773438 118.191406 168.136719 119.980469 170.417969 121.875 C 171.757812 122.992188 173.027344 124.1875 174.328125 125.347656 C 174.355469 125.410156 174.382812 125.472656 174.410156 125.535156 C 174.484375 125.558594 174.5625 125.609375 174.628906 125.597656 C 174.628906 125.597656 174.628906 125.597656 174.632812 125.597656 C 174.683594 125.585938 174.671875 125.507812 174.625 125.46875 C 174.492188 124.789062 174.226562 124.164062 173.925781 123.554688 C 173.71875 123.136719 173.550781 122.714844 173.511719 122.246094 C 173.0625 121.347656 173.25 120.570312 174.003906 120.050781 C 175.605469 121.234375 176.3125 122.964844 176.882812 124.785156 C 177.097656 125.464844 177.355469 126.125 177.605469 126.789062 C 178.199219 128.378906 178.023438 128.183594 177.164062 129.269531 C 176.972656 129.511719 176.726562 129.703125 176.464844 129.871094 C 176.367188 129.933594 176.273438 129.980469 176.15625 129.949219 C 175.921875 130.214844 175.636719 130.140625 175.363281 130.058594 C 174.550781 129.804688 173.742188 129.542969 172.929688 129.28125 C 172.730469 129.332031 172.558594 129.253906 172.390625 129.167969 C 172.195312 129.222656 172.023438 129.144531 171.851562 129.070312 C 171.71875 129.132812 171.589844 129.0625 171.464844 129.046875 C 169.730469 128.832031 167.996094 128.820312 166.265625 129.105469 C 166.132812 129.125 166 129.136719 165.871094 129.152344 C 165.714844 129.171875 165.539062 129.195312 165.464844 129.03125 C 165.40625 128.910156 165.480469 128.734375 165.574219 128.667969 C 166.003906 128.386719 166.191406 127.882812 166.582031 127.574219 C 166.753906 127.433594 166.96875 127.378906 167.1875 127.328125 C 168.875 126.910156 170.585938 126.808594 172.308594 126.882812 C 172.464844 126.890625 172.621094 126.921875 172.769531 126.894531 C 172.945312 126.867188 172.9375 126.722656 172.890625 126.582031 C 172.714844 126.558594 172.613281 126.457031 172.578125 126.285156 C 172.421875 126.234375 172.277344 126.167969 172.242188 125.980469 C 172.199219 125.988281 172.175781 125.96875 172.175781 125.925781 C 172.027344 125.878906 171.898438 125.808594 171.855469 125.640625 C 171.761719 125.585938 171.660156 125.542969 171.578125 125.472656 C 170.671875 124.710938 169.773438 123.933594 168.859375 123.183594 C 168.027344 122.5 167.175781 121.84375 166.332031 121.175781 C 166.089844 121.027344 165.839844 120.890625 165.601562 120.734375 C 163.292969 119.214844 160.835938 118.003906 158.199219 117.167969 C 157.257812 116.867188 156.3125 116.597656 155.363281 116.316406 C 155.15625 116.371094 154.980469 116.28125 154.804688 116.191406 C 154.605469 116.25 154.4375 116.164062 154.269531 116.082031 C 154.085938 116.148438 153.929688 116.058594 153.765625 115.996094 C 153.648438 116.050781 153.542969 116.019531 153.441406 115.949219 C 153.398438 115.964844 153.359375 115.957031 153.328125 115.921875 C 153.195312 115.980469 153.070312 115.914062 152.945312 115.902344 C 152.316406 115.84375 151.703125 115.671875 151.0625 115.691406 C 151.023438 115.628906 150.859375 115.554688 151.09375 115.523438 C 151.253906 115.5 151.273438 115.460938 151.246094 115.414062 C 151.21875 115.375 151.15625 115.328125 151.113281 115.289062 C 149.121094 115.167969 147.136719 115.292969 145.15625 115.546875 C 144.976562 115.589844 144.792969 115.628906 144.613281 115.671875 C 143.527344 115.914062 142.441406 116.15625 141.359375 116.402344 C 141.328125 116.4375 141.296875 116.457031 141.257812 116.460938 C 141.230469 116.464844 141.203125 116.464844 141.175781 116.457031 C 141.128906 116.515625 141.066406 116.53125 140.996094 116.511719 C 140.949219 116.570312 140.886719 116.589844 140.816406 116.566406 C 140.769531 116.628906 140.710938 116.644531 140.636719 116.621094 C 140.589844 116.683594 140.53125 116.703125 140.457031 116.679688 C 140.414062 116.742188 140.355469 116.761719 140.28125 116.738281 L 140.277344 116.738281 C 140.238281 116.800781 140.175781 116.824219 140.105469 116.796875 L 140.101562 116.800781 C 140.046875 116.824219 139.988281 116.84375 139.929688 116.859375 L 139.921875 116.863281 C 139.878906 116.925781 139.824219 116.949219 139.75 116.925781 L 139.746094 116.925781 C 139.703125 116.988281 139.644531 117.011719 139.574219 116.988281 L 139.566406 116.988281 C 139.566406 116.988281 139.5625 116.992188 139.5625 116.992188 C 139.5625 116.992188 139.566406 116.988281 139.566406 116.988281 C 139.523438 117.054688 139.46875 117.078125 139.394531 117.054688 L 139.390625 117.054688 C 139.347656 117.121094 139.289062 117.140625 139.21875 117.117188 L 139.214844 117.117188 C 139.171875 117.183594 139.113281 117.207031 139.039062 117.183594 C 138.511719 117.421875 137.984375 117.660156 137.457031 117.894531 C 137.144531 117.933594 136.890625 118.109375 136.617188 118.246094 C 136.617188 118.285156 136.625 118.316406 136.636719 118.34375 C 136.65625 118.390625 136.6875 118.425781 136.734375 118.453125 C 136.539062 118.578125 136.355469 118.722656 136.117188 118.75 C 136.042969 118.753906 135.972656 118.765625 135.910156 118.804688 C 135.976562 118.789062 136.046875 118.769531 136.117188 118.75 C 136.0625 118.804688 136.003906 118.847656 135.929688 118.8125 C 135.878906 118.917969 135.792969 118.964844 135.679688 118.980469 C 135.648438 119.046875 135.597656 119.082031 135.523438 119.066406 C 135.472656 119.125 135.417969 119.167969 135.335938 119.15625 C 135.316406 119.1875 135.292969 119.210938 135.25 119.214844 C 135.082031 119.371094 134.890625 119.484375 134.675781 119.554688 C 134.550781 119.65625 134.429688 119.765625 134.261719 119.796875 C 134.207031 119.890625 134.109375 119.921875 134.019531 119.960938 C 133.53125 120.375 132.972656 120.691406 132.542969 121.21875 C 132.445312 121 132.1875 120.964844 132.214844 120.726562 Z M 172.234375 125.804688 C 172.230469 125.804688 172.230469 125.804688 172.230469 125.804688 C 172.230469 125.800781 172.230469 125.804688 172.230469 125.804688 C 172.230469 125.800781 172.226562 125.804688 172.226562 125.804688 C 172.226562 125.804688 172.230469 125.804688 172.230469 125.804688 C 172.230469 125.804688 172.226562 125.808594 172.226562 125.808594 C 172.230469 125.808594 172.230469 125.804688 172.234375 125.804688 Z M 139.300781 116.695312 C 139.316406 116.6875 139.328125 116.679688 139.339844 116.671875 C 139.335938 116.671875 139.332031 116.675781 139.328125 116.675781 C 139.316406 116.679688 139.304688 116.683594 139.292969 116.6875 C 139.292969 116.6875 139.296875 116.691406 139.300781 116.695312 Z M 141.347656 116.398438 C 141.351562 116.394531 141.347656 116.394531 141.347656 116.394531 C 141.347656 116.390625 141.347656 116.382812 141.34375 116.378906 L 141.335938 116.363281 L 141.347656 116.394531 C 141.347656 116.398438 141.347656 116.398438 141.34375 116.398438 C 141.347656 116.398438 141.347656 116.398438 141.347656 116.398438 Z M 139.246094 116.652344 C 139.261719 116.664062 139.277344 116.675781 139.289062 116.6875 C 139.300781 116.683594 139.3125 116.679688 139.324219 116.671875 C 139.300781 116.679688 139.273438 116.671875 139.246094 116.652344 Z M 139.40625 116.640625 C 139.417969 116.636719 139.433594 116.632812 139.445312 116.625 C 139.445312 116.625 139.449219 116.625 139.449219 116.621094 C 139.433594 116.628906 139.417969 116.636719 139.40625 116.640625 Z M 132.839844 119.691406 C 132.835938 119.6875 132.835938 119.691406 132.835938 119.691406 C 132.835938 119.691406 132.832031 119.691406 132.832031 119.691406 C 132.832031 119.691406 132.828125 119.695312 132.828125 119.695312 C 132.832031 119.695312 132.835938 119.691406 132.839844 119.691406 Z M 133.058594 119.507812 C 133.058594 119.503906 133.058594 119.5 133.0625 119.5 C 133.0625 119.503906 133.058594 119.507812 133.058594 119.507812 Z M 135.796875 118.789062 C 135.785156 118.78125 135.777344 118.769531 135.765625 118.757812 C 135.761719 118.765625 135.757812 118.773438 135.753906 118.78125 C 135.769531 118.78125 135.78125 118.785156 135.796875 118.789062 Z M 135.390625 119.082031 C 135.371094 119.09375 135.351562 119.109375 135.335938 119.132812 C 135.355469 119.113281 135.371094 119.09375 135.390625 119.082031 Z M 135.390625 119.082031 " fill-opacity="1" fill-rule="nonzero"/></g></g></g></g><g clip-path="url(#5b47fd39b4)"><g clip-path="url(#15750ecd78)"><g clip-path="url(#52a82c1e92)"><g clip-path="url(#109208dee7)"><path fill="#ffffff" d="M 139.917969 116.859375 C 139.976562 116.839844 140.035156 116.820312 140.089844 116.800781 C 140.046875 116.863281 139.988281 116.882812 139.917969 116.859375 Z M 139.917969 116.859375 " fill-opacity="1" fill-rule="nonzero"/></g></g></g></g><g clip-path="url(#db973f0355)"><g clip-path="url(#a815943317)"><g clip-path="url(#c3d7683c64)"><g clip-path="url(#22ec6471fa)"><path fill="#ffffff" d="M 201.625 212.082031 C 201.664062 212.09375 201.691406 212.117188 201.703125 212.160156 C 201.847656 212.183594 201.957031 211.976562 202.117188 212.109375 C 202.566406 212.148438 202.683594 212.476562 202.75 212.84375 C 202.925781 213.878906 202.933594 214.921875 202.875 215.960938 C 202.664062 219.691406 201.6875 223.195312 200.078125 226.554688 C 197.269531 232.417969 192.828125 236.644531 187.191406 239.6875 C 184.578125 241.097656 181.761719 242.023438 178.902344 242.816406 C 177.21875 243.285156 175.515625 243.644531 173.820312 244.050781 C 173.753906 244.039062 173.6875 244.023438 173.617188 244.011719 C 173.558594 244.058594 173.476562 244.09375 173.445312 244.15625 C 173.445312 244.15625 173.445312 244.15625 173.445312 244.160156 C 173.421875 244.207031 173.492188 244.242188 173.554688 244.226562 C 174.183594 244.503906 174.851562 244.640625 175.523438 244.742188 C 175.984375 244.8125 176.425781 244.914062 176.835938 245.148438 C 177.828125 245.289062 178.363281 245.890625 178.359375 246.804688 C 176.472656 247.449219 174.648438 247.039062 172.824219 246.472656 C 172.148438 246.261719 171.457031 246.097656 170.769531 245.921875 C 169.125 245.503906 169.386719 245.472656 168.984375 244.148438 C 168.894531 243.851562 168.875 243.539062 168.886719 243.226562 C 168.890625 243.113281 168.90625 243.007812 168.996094 242.929688 C 168.914062 242.585938 169.136719 242.394531 169.363281 242.21875 C 170.035156 241.695312 170.710938 241.179688 171.386719 240.660156 C 171.460938 240.46875 171.621094 240.371094 171.785156 240.28125 C 171.851562 240.089844 172.015625 239.996094 172.175781 239.894531 C 172.199219 239.75 172.328125 239.683594 172.414062 239.589844 C 173.578125 238.285156 174.578125 236.871094 175.332031 235.285156 C 175.386719 235.164062 175.453125 235.050781 175.515625 234.933594 C 175.589844 234.792969 175.667969 234.636719 175.847656 234.667969 C 175.980469 234.691406 176.085938 234.851562 176.082031 234.96875 C 176.070312 235.480469 176.375 235.921875 176.40625 236.417969 C 176.421875 236.640625 176.347656 236.847656 176.265625 237.058594 C 175.644531 238.679688 174.753906 240.140625 173.710938 241.515625 C 173.617188 241.640625 173.503906 241.75 173.4375 241.886719 C 173.363281 242.046875 173.484375 242.125 173.625 242.167969 C 173.746094 242.039062 173.886719 242.011719 174.046875 242.078125 C 174.179688 241.980469 174.316406 241.898438 174.488281 241.976562 C 174.507812 241.9375 174.535156 241.929688 174.574219 241.953125 C 174.695312 241.859375 174.828125 241.792969 174.988281 241.855469 C 175.089844 241.808594 175.179688 241.75 175.285156 241.722656 C 176.429688 241.410156 177.578125 241.117188 178.71875 240.792969 C 179.753906 240.5 180.777344 240.171875 181.804688 239.859375 C 182.066406 239.742188 182.320312 239.617188 182.585938 239.511719 C 185.148438 238.480469 187.546875 237.148438 189.734375 235.464844 C 190.515625 234.859375 191.277344 234.234375 192.050781 233.617188 C 192.125 233.414062 192.296875 233.324219 192.472656 233.226562 C 192.539062 233.035156 192.703125 232.945312 192.867188 232.851562 C 192.917969 232.660156 193.082031 232.585938 193.226562 232.488281 C 193.246094 232.359375 193.335938 232.289062 193.449219 232.25 C 193.457031 232.203125 193.488281 232.175781 193.535156 232.171875 C 193.5625 232.027344 193.6875 231.964844 193.769531 231.867188 C 194.175781 231.382812 194.667969 230.976562 195.015625 230.4375 C 195.089844 230.445312 195.242188 230.347656 195.136719 230.5625 C 195.066406 230.703125 195.085938 230.746094 195.140625 230.746094 C 195.1875 230.75 195.261719 230.722656 195.316406 230.710938 C 196.550781 229.140625 197.582031 227.441406 198.5 225.667969 C 198.570312 225.496094 198.640625 225.324219 198.710938 225.152344 C 199.128906 224.121094 199.546875 223.089844 199.964844 222.0625 C 199.953125 222.015625 199.953125 221.976562 199.972656 221.941406 C 199.984375 221.917969 200 221.898438 200.023438 221.878906 C 200.003906 221.804688 200.023438 221.746094 200.082031 221.699219 C 200.058594 221.628906 200.078125 221.566406 200.136719 221.523438 C 200.113281 221.449219 200.132812 221.390625 200.195312 221.34375 C 200.167969 221.269531 200.1875 221.207031 200.25 221.164062 C 200.222656 221.089844 200.238281 221.03125 200.300781 220.984375 L 200.300781 220.980469 C 200.273438 220.910156 200.292969 220.851562 200.351562 220.804688 L 200.355469 220.800781 C 200.367188 220.742188 200.382812 220.683594 200.402344 220.625 L 200.402344 220.617188 C 200.375 220.546875 200.390625 220.488281 200.449219 220.441406 L 200.453125 220.4375 C 200.425781 220.363281 200.4375 220.304688 200.5 220.257812 L 200.503906 220.253906 C 200.503906 220.253906 200.503906 220.25 200.503906 220.25 C 200.503906 220.25 200.503906 220.253906 200.503906 220.253906 C 200.472656 220.183594 200.488281 220.121094 200.546875 220.074219 L 200.550781 220.070312 C 200.519531 220 200.535156 219.941406 200.597656 219.894531 L 200.597656 219.890625 C 200.566406 219.816406 200.582031 219.757812 200.640625 219.707031 C 200.75 219.140625 200.851562 218.574219 200.960938 218.003906 C 201.109375 217.726562 201.109375 217.414062 201.148438 217.113281 C 201.121094 217.09375 201.089844 217.082031 201.058594 217.074219 C 201.011719 217.0625 200.964844 217.066406 200.914062 217.089844 C 200.921875 216.859375 200.910156 216.628906 201.023438 216.414062 C 201.0625 216.355469 201.09375 216.289062 201.09375 216.214844 C 201.070312 216.28125 201.046875 216.347656 201.023438 216.414062 C 201.007812 216.339844 201.007812 216.269531 201.078125 216.226562 C 201.019531 216.125 201.03125 216.023438 201.082031 215.925781 C 201.042969 215.859375 201.042969 215.800781 201.101562 215.746094 C 201.078125 215.671875 201.078125 215.605469 201.132812 215.542969 C 201.117188 215.507812 201.113281 215.476562 201.132812 215.4375 C 201.101562 215.210938 201.113281 214.988281 201.183594 214.773438 C 201.167969 214.613281 201.148438 214.449219 201.21875 214.296875 C 201.171875 214.199219 201.199219 214.097656 201.222656 214 C 201.160156 213.367188 201.21875 212.726562 201.03125 212.070312 C 201.265625 212.113281 201.441406 211.925781 201.625 212.082031 Z M 174.640625 242.070312 C 174.640625 242.066406 174.640625 242.066406 174.640625 242.066406 C 174.644531 242.066406 174.640625 242.070312 174.640625 242.070312 C 174.644531 242.066406 174.644531 242.066406 174.644531 242.066406 C 174.644531 242.066406 174.640625 242.066406 174.640625 242.066406 C 174.640625 242.066406 174.640625 242.0625 174.640625 242.0625 C 174.640625 242.066406 174.640625 242.066406 174.640625 242.070312 Z M 200.894531 220.203125 C 200.894531 220.21875 200.894531 220.234375 200.890625 220.25 C 200.894531 220.246094 200.894531 220.242188 200.894531 220.238281 C 200.898438 220.226562 200.902344 220.214844 200.90625 220.199219 C 200.902344 220.199219 200.898438 220.203125 200.894531 220.203125 Z M 199.972656 222.054688 C 199.972656 222.058594 199.976562 222.054688 199.976562 222.058594 C 199.980469 222.058594 199.984375 222.0625 199.992188 222.0625 L 200.007812 222.0625 L 199.976562 222.054688 C 199.972656 222.054688 199.976562 222.054688 199.972656 222.050781 C 199.976562 222.054688 199.972656 222.054688 199.972656 222.054688 Z M 200.960938 220.179688 C 200.941406 220.1875 200.925781 220.191406 200.910156 220.199219 C 200.90625 220.210938 200.902344 220.222656 200.898438 220.234375 C 200.910156 220.210938 200.929688 220.191406 200.960938 220.179688 Z M 200.878906 220.320312 C 200.875 220.332031 200.871094 220.347656 200.871094 220.363281 C 200.871094 220.363281 200.871094 220.363281 200.871094 220.367188 C 200.875 220.347656 200.875 220.332031 200.878906 220.320312 Z M 202.117188 213.1875 C 202.117188 213.1875 202.121094 213.183594 202.121094 213.183594 C 202.121094 213.183594 202.121094 213.179688 202.121094 213.179688 C 202.121094 213.179688 202.121094 213.175781 202.117188 213.175781 C 202.117188 213.179688 202.117188 213.183594 202.117188 213.1875 Z M 202.144531 213.46875 C 202.144531 213.472656 202.148438 213.472656 202.144531 213.476562 C 202.144531 213.476562 202.144531 213.46875 202.144531 213.46875 Z M 201.171875 216.128906 C 201.1875 216.125 201.199219 216.125 201.214844 216.125 C 201.210938 216.117188 201.207031 216.109375 201.203125 216.101562 C 201.195312 216.109375 201.183594 216.121094 201.171875 216.128906 Z M 201.160156 215.628906 C 201.167969 215.605469 201.164062 215.582031 201.152344 215.554688 C 201.152344 215.554688 201.152344 215.554688 201.152344 215.558594 C 201.160156 215.582031 201.164062 215.605469 201.160156 215.628906 Z M 201.160156 215.628906 " fill-opacity="1" fill-rule="nonzero"/></g></g></g></g><g clip-path="url(#3b4562192b)"><g clip-path="url(#4cdc45c23c)"><g clip-path="url(#b9d2dad665)"><g clip-path="url(#7a2c0a9a58)"><path fill="#ffffff" d="M 200.40625 220.617188 C 200.390625 220.675781 200.375 220.734375 200.359375 220.792969 C 200.332031 220.71875 200.347656 220.660156 200.40625 220.617188 Z M 200.40625 220.617188 " fill-opacity="1" fill-rule="nonzero"/></g></g></g></g><path stroke-linecap="butt" transform="matrix(0.74987, 0.00605191, -0.00605275, 0.749976, 136.490312, 77.868328)" fill="none" stroke-linejoin="miter" d="M -0.00220402 1.998562 L 223.03636 2.000901 " stroke="#000000" stroke-width="4" stroke-opacity="1" stroke-miterlimit="4"/><path stroke-linecap="butt" transform="matrix(0.750617, -0.00364086, 0.00363783, 0.749991, 135.126205, 291.168432)" fill="none" stroke-linejoin="miter" d="M -0.000887235 1.999401 L 224.814281 2.002221 " stroke="#000000" stroke-width="4" stroke-opacity="1" stroke-miterlimit="4"/><g clip-path="url(#c7edf2ea39)"><path fill="#5ce1e6" d="M 266.714844 306.992188 L 275.207031 297.5 C 275.390625 297.296875 275.644531 297.183594 275.910156 297.183594 L 281.574219 297.183594 C 281.945312 297.183594 282.28125 297.402344 282.4375 297.746094 C 282.585938 298.089844 282.523438 298.488281 282.273438 298.765625 L 274.351562 307.628906 L 282.273438 316.484375 C 282.523438 316.765625 282.589844 317.164062 282.4375 317.507812 C 282.28125 317.851562 281.945312 318.070312 281.574219 318.070312 L 275.910156 318.070312 C 275.644531 318.070312 275.390625 317.953125 275.207031 317.757812 L 266.714844 308.261719 C 266.394531 307.902344 266.394531 307.351562 266.714844 306.992188 Z M 266.714844 306.992188 " fill-opacity="1" fill-rule="nonzero"/></g><g clip-path="url(#ab2eae920c)"><path fill="#5ce1e6" d="M 278.984375 306.992188 L 287.476562 297.5 C 287.660156 297.296875 287.910156 297.183594 288.179688 297.183594 L 293.839844 297.183594 C 294.214844 297.183594 294.550781 297.402344 294.703125 297.746094 C 294.855469 298.089844 294.792969 298.488281 294.542969 298.765625 L 286.617188 307.628906 L 294.542969 316.484375 C 294.792969 316.765625 294.855469 317.164062 294.703125 317.507812 C 294.550781 317.851562 294.214844 318.070312 293.839844 318.070312 L 288.179688 318.070312 C 287.910156 318.070312 287.660156 317.953125 287.476562 317.757812 L 278.984375 308.261719 C 278.660156 307.902344 278.660156 307.351562 278.984375 306.992188 Z M 278.984375 306.992188 " fill-opacity="1" fill-rule="nonzero"/></g><g clip-path="url(#244765f244)"><path fill="#38b6ff" d="M 229.589844 306.992188 L 238.082031 297.5 C 238.265625 297.296875 238.519531 297.183594 238.785156 297.183594 L 244.449219 297.183594 C 244.820312 297.183594 245.15625 297.402344 245.3125 297.746094 C 245.460938 298.089844 245.398438 298.488281 245.148438 298.765625 L 237.226562 307.628906 L 245.148438 316.484375 C 245.398438 316.765625 245.464844 317.164062 245.3125 317.507812 C 245.15625 317.851562 244.820312 318.070312 244.449219 318.070312 L 238.785156 318.070312 C 238.519531 318.070312 238.265625 317.953125 238.082031 317.757812 L 229.589844 308.261719 C 229.269531 307.902344 229.269531 307.351562 229.589844 306.992188 Z M 229.589844 306.992188 " fill-opacity="1" fill-rule="nonzero"/></g><g clip-path="url(#98ef046b40)"><path fill="#38b6ff" d="M 241.859375 306.992188 L 250.351562 297.5 C 250.535156 297.296875 250.785156 297.183594 251.054688 297.183594 L 256.714844 297.183594 C 257.089844 297.183594 257.425781 297.402344 257.578125 297.746094 C 257.730469 298.089844 257.667969 298.488281 257.417969 298.765625 L 249.492188 307.628906 L 257.417969 316.484375 C 257.667969 316.765625 257.730469 317.164062 257.578125 317.507812 C 257.425781 317.851562 257.089844 318.070312 256.714844 318.070312 L 251.054688 318.070312 C 250.785156 318.070312 250.535156 317.953125 250.351562 317.757812 L 241.859375 308.261719 C 241.535156 307.902344 241.535156 307.351562 241.859375 306.992188 Z M 241.859375 306.992188 " fill-opacity="1" fill-rule="nonzero"/></g><g clip-path="url(#7ab815bdb7)"><path fill="#38b6ff" d="M 192.464844 306.992188 L 200.957031 297.5 C 201.140625 297.296875 201.394531 297.183594 201.660156 297.183594 L 207.324219 297.183594 C 207.695312 297.183594 208.03125 297.402344 208.1875 297.746094 C 208.335938 298.089844 208.273438 298.488281 208.023438 298.765625 L 200.101562 307.628906 L 208.023438 316.484375 C 208.273438 316.765625 208.339844 317.164062 208.1875 317.507812 C 208.03125 317.851562 207.695312 318.070312 207.324219 318.070312 L 201.660156 318.070312 C 201.394531 318.070312 201.140625 317.953125 200.957031 317.757812 L 192.464844 308.261719 C 192.144531 307.902344 192.144531 307.351562 192.464844 306.992188 Z M 192.464844 306.992188 " fill-opacity="1" fill-rule="nonzero"/></g><g clip-path="url(#da55202a3c)"><path fill="#38b6ff" d="M 204.734375 306.992188 L 213.226562 297.5 C 213.410156 297.296875 213.660156 297.183594 213.929688 297.183594 L 219.589844 297.183594 C 219.964844 297.183594 220.300781 297.402344 220.453125 297.746094 C 220.605469 298.089844 220.542969 298.488281 220.292969 298.765625 L 212.367188 307.628906 L 220.292969 316.484375 C 220.542969 316.765625 220.605469 317.164062 220.453125 317.507812 C 220.300781 317.851562 219.964844 318.070312 219.589844 318.070312 L 213.929688 318.070312 C 213.660156 318.070312 213.410156 317.953125 213.226562 317.757812 L 204.734375 308.261719 C 204.410156 307.902344 204.410156 307.351562 204.734375 306.992188 Z M 204.734375 306.992188 " fill-opacity="1" fill-rule="nonzero"/></g><g clip-path="url(#5ffe799df5)"><path fill="#38b6ff" d="M 155.339844 306.992188 L 163.832031 297.5 C 164.015625 297.296875 164.269531 297.183594 164.535156 297.183594 L 170.199219 297.183594 C 170.570312 297.183594 170.90625 297.402344 171.0625 297.746094 C 171.210938 298.089844 171.148438 298.488281 170.898438 298.765625 L 162.976562 307.628906 L 170.898438 316.484375 C 171.148438 316.765625 171.214844 317.164062 171.0625 317.507812 C 170.90625 317.851562 170.570312 318.070312 170.199219 318.070312 L 164.535156 318.070312 C 164.269531 318.070312 164.015625 317.953125 163.832031 317.757812 L 155.339844 308.261719 C 155.019531 307.902344 155.019531 307.351562 155.339844 306.992188 Z M 155.339844 306.992188 " fill-opacity="1" fill-rule="nonzero"/></g><g clip-path="url(#1c1fabd2e9)"><path fill="#38b6ff" d="M 167.609375 306.992188 L 176.101562 297.5 C 176.285156 297.296875 176.535156 297.183594 176.804688 297.183594 L 182.464844 297.183594 C 182.839844 297.183594 183.175781 297.402344 183.328125 297.746094 C 183.480469 298.089844 183.417969 298.488281 183.167969 298.765625 L 175.242188 307.628906 L 183.167969 316.484375 C 183.417969 316.765625 183.480469 317.164062 183.328125 317.507812 C 183.175781 317.851562 182.839844 318.070312 182.464844 318.070312 L 176.804688 318.070312 C 176.535156 318.070312 176.285156 317.953125 176.101562 317.757812 L 167.609375 308.261719 C 167.285156 307.902344 167.285156 307.351562 167.609375 306.992188 Z M 167.609375 306.992188 " fill-opacity="1" fill-rule="nonzero"/></g><g clip-path="url(#7c67ae86c8)"><g clip-path="url(#ceadaf57cc)"><g clip-path="url(#09fdd94d83)"><path fill="#5ce1e6" d="M 118.210938 307.242188 L 126.535156 297.597656 C 126.710938 297.394531 126.960938 297.273438 127.230469 297.269531 L 132.890625 297.171875 C 133.261719 297.164062 133.605469 297.378906 133.765625 297.714844 C 133.921875 298.058594 133.867188 298.460938 133.621094 298.742188 L 125.855469 307.738281 L 133.933594 316.457031 C 134.1875 316.730469 134.261719 317.128906 134.113281 317.476562 C 133.964844 317.820312 133.632812 318.046875 133.261719 318.054688 L 127.597656 318.152344 C 127.332031 318.160156 127.078125 318.046875 126.890625 317.851562 L 118.230469 308.511719 C 117.902344 308.15625 117.894531 307.605469 118.210938 307.242188 Z M 118.210938 307.242188 " fill-opacity="1" fill-rule="nonzero"/></g></g></g><g clip-path="url(#560ca59e8f)"><g clip-path="url(#d4c0e28e48)"><g clip-path="url(#6b103073d7)"><path fill="#5ce1e6" d="M 130.476562 307.023438 L 138.800781 297.382812 C 138.976562 297.175781 139.230469 297.058594 139.496094 297.054688 L 145.15625 296.953125 C 145.53125 296.945312 145.871094 297.160156 146.03125 297.5 C 146.1875 297.839844 146.132812 298.242188 145.886719 298.523438 L 138.121094 307.523438 L 146.203125 316.238281 C 146.457031 316.515625 146.527344 316.914062 146.378906 317.257812 C 146.234375 317.605469 145.898438 317.832031 145.527344 317.835938 L 139.867188 317.9375 C 139.597656 317.941406 139.34375 317.832031 139.160156 317.636719 L 130.5 308.292969 C 130.167969 307.9375 130.160156 307.386719 130.476562 307.023438 Z M 130.476562 307.023438 " fill-opacity="1" fill-rule="nonzero"/></g></g></g><g clip-path="url(#c0b5ecd61a)"><g clip-path="url(#b1b7972945)"><g clip-path="url(#32c408b0fb)"><path fill="#38b6ff" d="M 75.855469 286.085938 L 88.128906 282.679688 C 88.390625 282.609375 88.664062 282.648438 88.890625 282.796875 L 93.65625 285.851562 C 93.96875 286.050781 94.132812 286.421875 94.078125 286.789062 C 94.019531 287.160156 93.75 287.464844 93.390625 287.5625 L 81.9375 290.742188 L 83.828125 302.476562 C 83.886719 302.847656 83.722656 303.21875 83.410156 303.425781 C 83.097656 303.632812 82.691406 303.632812 82.378906 303.433594 L 77.613281 300.375 C 77.386719 300.230469 77.238281 299.996094 77.191406 299.734375 L 75.167969 287.15625 C 75.089844 286.679688 75.386719 286.214844 75.855469 286.085938 Z M 75.855469 286.085938 " fill-opacity="1" fill-rule="nonzero"/></g></g></g><g clip-path="url(#6d29a970b5)"><g clip-path="url(#317c505292)"><g clip-path="url(#cc8fa3521a)"><path fill="#38b6ff" d="M 86.179688 292.710938 L 98.457031 289.304688 C 98.714844 289.234375 98.992188 289.273438 99.214844 289.417969 L 103.984375 292.476562 C 104.296875 292.675781 104.460938 293.042969 104.40625 293.414062 C 104.347656 293.785156 104.078125 294.089844 103.71875 294.1875 L 92.265625 297.367188 L 94.152344 309.101562 C 94.210938 309.46875 94.050781 309.84375 93.738281 310.046875 C 93.421875 310.253906 93.019531 310.257812 92.707031 310.058594 L 87.941406 307 C 87.714844 306.855469 87.5625 306.621094 87.519531 306.355469 L 85.496094 293.78125 C 85.417969 293.300781 85.714844 292.839844 86.179688 292.710938 Z M 86.179688 292.710938 " fill-opacity="1" fill-rule="nonzero"/></g></g></g><g clip-path="url(#10e3e0fd4c)"><g clip-path="url(#84cf83392e)"><g clip-path="url(#598993e23c)"><path fill="#38b6ff" d="M 41.28125 262.910156 L 53.984375 261.964844 C 54.253906 261.945312 54.515625 262.039062 54.707031 262.222656 L 58.785156 266.152344 C 59.054688 266.410156 59.144531 266.800781 59.015625 267.15625 C 58.886719 267.507812 58.566406 267.753906 58.191406 267.777344 L 46.339844 268.664062 L 45.902344 280.539062 C 45.886719 280.914062 45.65625 281.246094 45.308594 281.386719 C 44.960938 281.53125 44.566406 281.453125 44.296875 281.195312 L 40.21875 277.269531 C 40.027344 277.082031 39.921875 276.824219 39.929688 276.554688 L 40.398438 263.824219 C 40.417969 263.339844 40.796875 262.945312 41.28125 262.910156 Z M 41.28125 262.910156 " fill-opacity="1" fill-rule="nonzero"/></g></g></g><g clip-path="url(#f5b3f91b6a)"><g clip-path="url(#6975c3c101)"><g clip-path="url(#d3a16efa86)"><path fill="#38b6ff" d="M 50.117188 271.421875 L 62.820312 270.472656 C 63.089844 270.453125 63.351562 270.546875 63.542969 270.734375 L 67.621094 274.660156 C 67.890625 274.917969 67.980469 275.3125 67.855469 275.664062 C 67.722656 276.015625 67.402344 276.261719 67.03125 276.289062 L 55.175781 277.171875 L 54.738281 289.050781 C 54.726562 289.425781 54.492188 289.757812 54.144531 289.898438 C 53.796875 290.039062 53.402344 289.964844 53.132812 289.707031 L 49.054688 285.777344 C 48.863281 285.59375 48.761719 285.332031 48.765625 285.066406 L 49.234375 272.335938 C 49.253906 271.851562 49.636719 271.453125 50.117188 271.421875 Z M 50.117188 271.421875 " fill-opacity="1" fill-rule="nonzero"/></g></g></g><g clip-path="url(#19a1b4c996)"><g clip-path="url(#86f91b88e7)"><g clip-path="url(#288987e8bd)"><path fill="#38b6ff" d="M 22.734375 226.0625 L 35.210938 228.632812 C 35.476562 228.6875 35.699219 228.851562 35.835938 229.082031 L 38.679688 233.976562 C 38.867188 234.296875 38.847656 234.703125 38.628906 235.003906 C 38.40625 235.308594 38.03125 235.457031 37.664062 235.378906 L 26.023438 232.980469 L 22.347656 244.285156 C 22.230469 244.640625 21.917969 244.898438 21.542969 244.9375 C 21.171875 244.976562 20.808594 244.796875 20.625 244.472656 L 17.777344 239.578125 C 17.644531 239.347656 17.617188 239.070312 17.695312 238.8125 L 21.636719 226.699219 C 21.785156 226.238281 22.261719 225.960938 22.734375 226.0625 Z M 22.734375 226.0625 " fill-opacity="1" fill-rule="nonzero"/></g></g></g><g clip-path="url(#6d56c7fcfb)"><g clip-path="url(#592e913f8d)"><g clip-path="url(#8cab6f948f)"><path fill="#38b6ff" d="M 28.898438 236.667969 L 41.375 239.238281 C 41.640625 239.296875 41.867188 239.457031 42 239.6875 L 44.847656 244.582031 C 45.035156 244.90625 45.011719 245.308594 44.792969 245.613281 C 44.574219 245.914062 44.195312 246.0625 43.832031 245.984375 L 32.1875 243.585938 L 28.511719 254.890625 C 28.394531 255.246094 28.082031 255.503906 27.710938 255.542969 C 27.335938 255.582031 26.976562 255.402344 26.789062 255.082031 L 23.941406 250.183594 C 23.808594 249.953125 23.78125 249.675781 23.859375 249.421875 L 27.800781 237.304688 C 27.949219 236.847656 28.425781 236.570312 28.898438 236.667969 Z M 28.898438 236.667969 " fill-opacity="1" fill-rule="nonzero"/></g></g></g><g clip-path="url(#b55ada5c6a)"><path fill="#5ce1e6" d="M 20.015625 172.027344 L 29.507812 180.519531 C 29.710938 180.699219 29.824219 180.953125 29.824219 181.222656 L 29.824219 186.882812 C 29.824219 187.257812 29.605469 187.59375 29.261719 187.746094 C 28.917969 187.898438 28.515625 187.835938 28.242188 187.585938 L 19.378906 179.660156 L 10.523438 187.585938 C 10.242188 187.835938 9.84375 187.898438 9.5 187.746094 C 9.15625 187.59375 8.9375 187.257812 8.9375 186.882812 L 8.9375 181.222656 C 8.9375 180.953125 9.050781 180.699219 9.25 180.519531 L 18.746094 172.027344 C 19.105469 171.703125 19.65625 171.703125 20.015625 172.027344 Z M 20.015625 172.027344 " fill-opacity="1" fill-rule="nonzero"/></g><g clip-path="url(#cc553eb30a)"><path fill="#5ce1e6" d="M 20.015625 184.292969 L 29.507812 192.789062 C 29.710938 192.96875 29.824219 193.222656 29.824219 193.488281 L 29.824219 199.152344 C 29.824219 199.523438 29.605469 199.863281 29.261719 200.015625 C 28.917969 200.164062 28.515625 200.105469 28.242188 199.855469 L 19.378906 191.929688 L 10.523438 199.855469 C 10.242188 200.105469 9.84375 200.167969 9.5 200.015625 C 9.15625 199.863281 8.9375 199.523438 8.9375 199.152344 L 8.9375 193.488281 C 8.9375 193.222656 9.050781 192.96875 9.25 192.789062 L 18.746094 184.292969 C 19.105469 183.972656 19.65625 183.972656 20.015625 184.292969 Z M 20.015625 184.292969 " fill-opacity="1" fill-rule="nonzero"/></g><g clip-path="url(#905bd449be)"><g clip-path="url(#c57357b6c9)"><g clip-path="url(#178626ee97)"><path fill="#38b6ff" d="M 38.21875 122.101562 L 41.183594 134.492188 C 41.246094 134.753906 41.195312 135.027344 41.042969 135.246094 L 37.816406 139.902344 C 37.605469 140.207031 37.230469 140.359375 36.863281 140.289062 C 36.496094 140.21875 36.203125 139.941406 36.117188 139.578125 L 33.347656 128.015625 L 21.554688 129.484375 C 21.183594 129.53125 20.816406 129.355469 20.621094 129.035156 C 20.425781 128.714844 20.4375 128.308594 20.648438 128.003906 L 23.875 123.351562 C 24.027344 123.128906 24.269531 122.988281 24.53125 122.953125 L 37.175781 121.378906 C 37.65625 121.320312 38.105469 121.632812 38.21875 122.101562 Z M 38.21875 122.101562 " fill-opacity="1" fill-rule="nonzero"/></g></g></g><g clip-path="url(#823fd81993)"><g clip-path="url(#70b2cff477)"><g clip-path="url(#3db8b4c9b0)"><path fill="#38b6ff" d="M 31.230469 132.1875 L 34.195312 144.574219 C 34.257812 144.839844 34.207031 145.109375 34.054688 145.332031 L 30.828125 149.984375 C 30.617188 150.289062 30.246094 150.441406 29.875 150.375 C 29.507812 150.300781 29.214844 150.023438 29.128906 149.660156 L 26.359375 138.101562 L 14.566406 139.566406 C 14.195312 139.613281 13.828125 139.4375 13.632812 139.117188 C 13.4375 138.796875 13.449219 138.394531 13.664062 138.085938 L 16.886719 133.433594 C 17.039062 133.214844 17.28125 133.070312 17.546875 133.035156 L 30.1875 131.460938 C 30.667969 131.402344 31.121094 131.714844 31.230469 132.1875 Z M 31.230469 132.1875 " fill-opacity="1" fill-rule="nonzero"/></g></g></g><g clip-path="url(#c97734b715)"><g clip-path="url(#8a79610680)"><g clip-path="url(#844c8e0d78)"><path fill="#38b6ff" d="M 65.816406 90.09375 L 65.914062 102.832031 C 65.917969 103.101562 65.804688 103.355469 65.609375 103.535156 L 61.417969 107.34375 C 61.140625 107.59375 60.742188 107.660156 60.402344 107.507812 C 60.058594 107.355469 59.835938 107.015625 59.832031 106.644531 L 59.742188 94.757812 L 47.917969 93.53125 C 47.546875 93.492188 47.230469 93.238281 47.113281 92.882812 C 46.996094 92.523438 47.097656 92.136719 47.371094 91.886719 L 51.5625 88.078125 C 51.761719 87.898438 52.027344 87.8125 52.292969 87.835938 L 64.964844 89.152344 C 65.445312 89.203125 65.816406 89.609375 65.816406 90.09375 Z M 65.816406 90.09375 " fill-opacity="1" fill-rule="nonzero"/></g></g></g><g clip-path="url(#c474815583)"><g clip-path="url(#49f9f2c929)"><g clip-path="url(#79bad27edf)"><path fill="#38b6ff" d="M 56.738281 98.34375 L 56.835938 111.082031 C 56.835938 111.351562 56.726562 111.605469 56.527344 111.785156 L 52.335938 115.59375 C 52.0625 115.84375 51.664062 115.90625 51.320312 115.757812 C 50.976562 115.605469 50.753906 115.265625 50.753906 114.894531 L 50.660156 103.007812 L 38.839844 101.78125 C 38.464844 101.742188 38.148438 101.488281 38.03125 101.132812 C 37.914062 100.773438 38.015625 100.382812 38.292969 100.132812 L 42.480469 96.328125 C 42.679688 96.148438 42.945312 96.0625 43.210938 96.085938 L 55.882812 97.402344 C 56.363281 97.453125 56.734375 97.859375 56.738281 98.34375 Z M 56.738281 98.34375 " fill-opacity="1" fill-rule="nonzero"/></g></g></g><g clip-path="url(#492791158e)"><g clip-path="url(#67cba70ee1)"><g clip-path="url(#756e11333c)"><path fill="#38b6ff" d="M 100.488281 72.246094 L 97.054688 84.511719 C 96.980469 84.773438 96.800781 84.988281 96.5625 85.105469 L 91.480469 87.601562 C 91.148438 87.765625 90.746094 87.71875 90.457031 87.480469 C 90.171875 87.238281 90.050781 86.851562 90.152344 86.492188 L 93.355469 75.042969 L 82.335938 70.589844 C 81.988281 70.449219 81.753906 70.121094 81.742188 69.746094 C 81.726562 69.367188 81.933594 69.023438 82.265625 68.859375 L 87.347656 66.359375 C 87.589844 66.242188 87.867188 66.234375 88.117188 66.332031 L 99.925781 71.105469 C 100.375 71.285156 100.617188 71.78125 100.488281 72.246094 Z M 100.488281 72.246094 " fill-opacity="1" fill-rule="nonzero"/></g></g></g><g clip-path="url(#67ffe5e523)"><g clip-path="url(#fbf2425de7)"><g clip-path="url(#3ed057ff39)"><path fill="#38b6ff" d="M 89.476562 77.65625 L 86.042969 89.925781 C 85.96875 90.183594 85.792969 90.398438 85.550781 90.515625 L 80.472656 93.015625 C 80.136719 93.179688 79.738281 93.128906 79.449219 92.890625 C 79.160156 92.648438 79.039062 92.261719 79.140625 91.902344 L 82.347656 80.457031 L 71.324219 76.003906 C 70.980469 75.863281 70.746094 75.53125 70.730469 75.15625 C 70.71875 74.78125 70.921875 74.433594 71.257812 74.269531 L 76.339844 71.773438 C 76.578125 71.65625 76.855469 71.648438 77.105469 71.742188 L 88.917969 76.515625 C 89.367188 76.699219 89.609375 77.191406 89.476562 77.65625 Z M 89.476562 77.65625 " fill-opacity="1" fill-rule="nonzero"/></g></g></g><g clip-path="url(#21cbbb604f)"><path fill="#5ce1e6" d="M 146.195312 68.148438 L 137.703125 77.640625 C 137.519531 77.84375 137.265625 77.957031 137 77.957031 L 131.335938 77.957031 C 130.964844 77.957031 130.628906 77.738281 130.472656 77.394531 C 130.324219 77.050781 130.386719 76.652344 130.636719 76.375 L 138.558594 67.515625 L 130.636719 58.65625 C 130.386719 58.375 130.320312 57.976562 130.472656 57.632812 C 130.628906 57.289062 130.964844 57.070312 131.335938 57.070312 L 137 57.070312 C 137.265625 57.070312 137.519531 57.1875 137.703125 57.382812 L 146.195312 66.878906 C 146.515625 67.238281 146.515625 67.789062 146.195312 68.148438 Z M 146.195312 68.148438 " fill-opacity="1" fill-rule="nonzero"/></g><g clip-path="url(#b90cc308be)"><path fill="#5ce1e6" d="M 133.925781 68.148438 L 125.433594 77.640625 C 125.25 77.84375 125 77.957031 124.730469 77.957031 L 119.070312 77.957031 C 118.695312 77.957031 118.359375 77.738281 118.207031 77.394531 C 118.054688 77.050781 118.117188 76.652344 118.367188 76.375 L 126.292969 67.515625 L 118.367188 58.65625 C 118.117188 58.375 118.054688 57.976562 118.207031 57.632812 C 118.359375 57.289062 118.695312 57.070312 119.070312 57.070312 L 124.730469 57.070312 C 125 57.070312 125.25 57.1875 125.433594 57.382812 L 133.925781 66.878906 C 134.25 67.238281 134.25 67.789062 133.925781 68.148438 Z M 133.925781 68.148438 " fill-opacity="1" fill-rule="nonzero"/></g><g clip-path="url(#1204475863)"><g clip-path="url(#0f4ef39f8d)"><g clip-path="url(#90ec8317f8)"><path fill="#38b6ff" d="M 182.71875 68.148438 L 173.941406 77.382812 C 173.753906 77.578125 173.5 77.6875 173.230469 77.675781 L 167.570312 77.507812 C 167.199219 77.496094 166.871094 77.265625 166.726562 76.917969 C 166.585938 76.570312 166.660156 76.171875 166.917969 75.902344 L 175.105469 67.285156 L 167.453125 58.191406 C 167.210938 57.90625 167.160156 57.503906 167.320312 57.167969 C 167.484375 56.828125 167.828125 56.617188 168.199219 56.628906 L 173.859375 56.800781 C 174.128906 56.808594 174.378906 56.929688 174.554688 57.132812 L 182.757812 66.878906 C 183.066406 67.25 183.050781 67.800781 182.71875 68.148438 Z M 182.71875 68.148438 " fill-opacity="1" fill-rule="nonzero"/></g></g></g><g clip-path="url(#7c45950b31)"><g clip-path="url(#44ae4fac28)"><g clip-path="url(#c078ee2878)"><path fill="#38b6ff" d="M 170.457031 67.78125 L 161.679688 77.015625 C 161.492188 77.210938 161.238281 77.316406 160.96875 77.308594 L 155.308594 77.136719 C 154.9375 77.125 154.605469 76.894531 154.464844 76.550781 C 154.324219 76.203125 154.398438 75.804688 154.65625 75.535156 L 162.84375 66.917969 L 155.1875 57.824219 C 154.949219 57.539062 154.894531 57.136719 155.058594 56.796875 C 155.222656 56.460938 155.566406 56.25 155.9375 56.261719 L 161.597656 56.429688 C 161.867188 56.4375 162.113281 56.5625 162.289062 56.765625 L 170.492188 66.511719 C 170.804688 66.882812 170.789062 67.429688 170.457031 67.78125 Z M 170.457031 67.78125 " fill-opacity="1" fill-rule="nonzero"/></g></g></g><g clip-path="url(#55c110b8dd)"><g clip-path="url(#c9de862096)"><g clip-path="url(#fa55bc0af7)"><path fill="#5ce1e6" d="M 294.371094 68.148438 L 285.59375 77.382812 C 285.40625 77.578125 285.152344 77.6875 284.882812 77.675781 L 279.222656 77.507812 C 278.851562 77.496094 278.523438 77.265625 278.378906 76.917969 C 278.238281 76.570312 278.3125 76.171875 278.570312 75.902344 L 286.757812 67.285156 L 279.105469 58.191406 C 278.863281 57.90625 278.8125 57.503906 278.972656 57.167969 C 279.136719 56.828125 279.480469 56.617188 279.851562 56.628906 L 285.511719 56.800781 C 285.78125 56.808594 286.03125 56.929688 286.207031 57.132812 L 294.410156 66.878906 C 294.71875 67.25 294.703125 67.800781 294.371094 68.148438 Z M 294.371094 68.148438 " fill-opacity="1" fill-rule="nonzero"/></g></g></g><g clip-path="url(#666fa240e5)"><g clip-path="url(#09b48e4ac5)"><g clip-path="url(#dd18f1a4fc)"><path fill="#5ce1e6" d="M 282.109375 67.78125 L 273.332031 77.015625 C 273.144531 77.210938 272.890625 77.316406 272.621094 77.308594 L 266.960938 77.136719 C 266.589844 77.125 266.257812 76.894531 266.117188 76.550781 C 265.976562 76.203125 266.050781 75.804688 266.308594 75.535156 L 274.496094 66.917969 L 266.839844 57.824219 C 266.601562 57.539062 266.546875 57.136719 266.710938 56.796875 C 266.875 56.460938 267.21875 56.25 267.589844 56.261719 L 273.25 56.429688 C 273.519531 56.4375 273.765625 56.5625 273.941406 56.765625 L 282.144531 66.511719 C 282.457031 66.882812 282.441406 67.429688 282.109375 67.78125 Z M 282.109375 67.78125 " fill-opacity="1" fill-rule="nonzero"/></g></g></g><g clip-path="url(#207bf999b8)"><g clip-path="url(#76e5d17a07)"><g clip-path="url(#e2b627d5e4)"><path fill="#38b6ff" d="M 257.246094 68.148438 L 248.46875 77.382812 C 248.28125 77.578125 248.027344 77.6875 247.757812 77.675781 L 242.097656 77.507812 C 241.726562 77.496094 241.398438 77.265625 241.253906 76.917969 C 241.113281 76.570312 241.1875 76.171875 241.445312 75.902344 L 249.632812 67.285156 L 241.980469 58.191406 C 241.738281 57.90625 241.6875 57.503906 241.847656 57.167969 C 242.011719 56.828125 242.355469 56.617188 242.726562 56.628906 L 248.386719 56.800781 C 248.65625 56.808594 248.90625 56.929688 249.082031 57.132812 L 257.285156 66.878906 C 257.59375 67.25 257.578125 67.800781 257.246094 68.148438 Z M 257.246094 68.148438 " fill-opacity="1" fill-rule="nonzero"/></g></g></g><g clip-path="url(#dec18d0bf3)"><g clip-path="url(#1e003f1129)"><g clip-path="url(#6cbcc7ecf7)"><path fill="#38b6ff" d="M 244.984375 67.78125 L 236.207031 77.015625 C 236.019531 77.210938 235.765625 77.316406 235.496094 77.308594 L 229.835938 77.136719 C 229.464844 77.125 229.132812 76.894531 228.992188 76.550781 C 228.851562 76.203125 228.925781 75.804688 229.183594 75.535156 L 237.371094 66.917969 L 229.714844 57.824219 C 229.476562 57.539062 229.421875 57.136719 229.585938 56.796875 C 229.75 56.460938 230.09375 56.25 230.464844 56.261719 L 236.125 56.429688 C 236.394531 56.4375 236.640625 56.5625 236.816406 56.765625 L 245.019531 66.511719 C 245.332031 66.882812 245.316406 67.429688 244.984375 67.78125 Z M 244.984375 67.78125 " fill-opacity="1" fill-rule="nonzero"/></g></g></g><g clip-path="url(#bdcd3a2c46)"><g clip-path="url(#31380c5c5d)"><g clip-path="url(#4a2f7aba00)"><path fill="#38b6ff" d="M 220.730469 68.148438 L 211.953125 77.382812 C 211.765625 77.578125 211.511719 77.6875 211.242188 77.675781 L 205.582031 77.507812 C 205.210938 77.496094 204.878906 77.265625 204.738281 76.917969 C 204.597656 76.570312 204.671875 76.171875 204.929688 75.902344 L 213.117188 67.285156 L 205.460938 58.191406 C 205.222656 57.90625 205.167969 57.503906 205.332031 57.167969 C 205.496094 56.828125 205.839844 56.617188 206.210938 56.628906 L 211.871094 56.800781 C 212.140625 56.808594 212.386719 56.929688 212.5625 57.132812 L 220.765625 66.878906 C 221.078125 67.25 221.0625 67.800781 220.730469 68.148438 Z M 220.730469 68.148438 " fill-opacity="1" fill-rule="nonzero"/></g></g></g><g clip-path="url(#4faca7d4d7)"><g clip-path="url(#6be055edea)"><g clip-path="url(#9aa6bab9c8)"><path fill="#38b6ff" d="M 208.464844 67.78125 L 199.691406 77.015625 C 199.503906 77.210938 199.246094 77.316406 198.980469 77.308594 L 193.320312 77.136719 C 192.949219 77.125 192.617188 76.894531 192.476562 76.550781 C 192.335938 76.203125 192.410156 75.804688 192.664062 75.535156 L 200.855469 66.917969 L 193.199219 57.824219 C 192.957031 57.539062 192.90625 57.136719 193.070312 56.796875 C 193.234375 56.460938 193.578125 56.25 193.949219 56.261719 L 199.609375 56.429688 C 199.875 56.4375 200.125 56.5625 200.300781 56.765625 L 208.503906 66.511719 C 208.816406 66.882812 208.800781 67.429688 208.464844 67.78125 Z M 208.464844 67.78125 " fill-opacity="1" fill-rule="nonzero"/></g></g></g></svg>