<svg xmlns="http://www.w3.org/2000/svg" xmlns:xlink="http://www.w3.org/1999/xlink" width="450" zoomAndPan="magnify" viewBox="0 0 337.5 374.999991" height="500" preserveAspectRatio="xMidYMid meet" version="1.0"><defs><clipPath id="7ebbde4e93"><path d="M 0 52.777344 L 303.75 52.777344 L 303.75 323 L 0 323 Z M 0 52.777344 " clip-rule="nonzero"/></clipPath><clipPath id="a8dc58cbb8"><path d="M 7.917969 142.824219 C 3.136719 156.667969 0 172.40625 0 187.851562 C 0 203.296875 2.6875 218.15625 7.46875 231.855469 C 7.621094 232.144531 7.621094 232.4375 7.769531 232.730469 C 26.890625 284.164062 77.390625 322.050781 135.65625 322.777344 L 303.75 322.777344 L 303.75 52.777344 L 135.78125 52.777344 C 77.09375 53.507812 26.59375 90.808594 7.917969 142.824219 " clip-rule="nonzero"/></clipPath><clipPath id="8c9064b0cc"><path d="M 0 52.777344 L 303.75 52.777344 L 303.75 322.777344 L 0 322.777344 Z M 0 52.777344 " clip-rule="nonzero"/></clipPath><clipPath id="8917327811"><path d="M 7.917969 142.824219 C 3.136719 156.667969 0 172.40625 0 187.851562 C 0 203.296875 2.6875 218.15625 7.46875 231.855469 C 7.621094 232.144531 7.621094 232.4375 7.769531 232.730469 C 26.890625 284.164062 77.390625 322.050781 135.65625 322.777344 L 303.75 322.777344 L 303.75 52.777344 L 135.78125 52.777344 C 77.09375 53.507812 26.59375 90.808594 7.917969 142.824219 " clip-rule="nonzero"/></clipPath><clipPath id="3ff593cc35"><path d="M 33 78 L 250 78 L 250 295 L 33 295 Z M 33 78 " clip-rule="nonzero"/></clipPath><clipPath id="733c6b19bb"><path d="M -5.480469 145.386719 L 182.632812 38.644531 L 289.375 226.757812 L 101.261719 333.5 Z M -5.480469 145.386719 " clip-rule="nonzero"/></clipPath><clipPath id="39a42beb3c"><path d="M 88.449219 92.085938 C 36.574219 121.523438 18.382812 187.441406 47.820312 239.320312 C 77.257812 291.195312 143.175781 309.386719 195.050781 279.949219 C 246.925781 250.511719 265.117188 184.59375 235.679688 132.71875 C 206.242188 80.839844 140.324219 62.648438 88.449219 92.085938 " clip-rule="nonzero"/></clipPath><clipPath id="4d9715ab2c"><path d="M 33 78 L 250 78 L 250 295 L 33 295 Z M 33 78 " clip-rule="nonzero"/></clipPath><clipPath id="5ba2729300"><path d="M -5.480469 145.386719 L 182.378906 38.785156 L 288.980469 226.648438 L 101.121094 333.25 Z M -5.480469 145.386719 " clip-rule="nonzero"/></clipPath><clipPath id="35b2657694"><path d="M -5.480469 145.386719 L 185.035156 37.277344 L 293.144531 227.796875 L 102.628906 335.90625 Z M -5.480469 145.386719 " clip-rule="nonzero"/></clipPath><clipPath id="44c4637145"><path d="M 88.449219 92.085938 C 36.574219 121.523438 18.382812 187.441406 47.820312 239.320312 C 77.257812 291.195312 143.175781 309.386719 195.050781 279.949219 C 246.925781 250.511719 265.117188 184.59375 235.679688 132.71875 C 206.242188 80.839844 140.324219 62.648438 88.449219 92.085938 " clip-rule="nonzero"/></clipPath><clipPath id="9ea25b8a21"><path d="M 99 124 L 131 124 L 131 161 L 99 161 Z M 99 124 " clip-rule="nonzero"/></clipPath><clipPath id="a293978867"><path d="M 99.464844 133.039062 L 115.226562 124.015625 L 131.089844 151.71875 L 115.328125 160.746094 Z M 99.464844 133.039062 " clip-rule="nonzero"/></clipPath><clipPath id="e9bfa2f9d9"><path d="M 99.464844 133.039062 L 114.882812 124.210938 L 130.648438 151.746094 L 115.230469 160.574219 Z M 99.464844 133.039062 " clip-rule="nonzero"/></clipPath><clipPath id="7c23beb82d"><path d="M 171 176 L 204 176 L 204 195 L 171 195 Z M 171 176 " clip-rule="nonzero"/></clipPath><clipPath id="a876be50a9"><path d="M 171.921875 193.921875 L 172.183594 175.761719 L 204.105469 176.226562 L 203.84375 194.386719 Z M 171.921875 193.921875 " clip-rule="nonzero"/></clipPath><clipPath id="f1a0d30985"><path d="M 171.921875 193.921875 L 172.179688 176.15625 L 203.902344 176.621094 L 203.644531 194.382812 Z M 171.921875 193.921875 " clip-rule="nonzero"/></clipPath><clipPath id="2f0a933e9e"><path d="M 114 142 L 188 142 L 188 227 L 114 227 Z M 114 142 " clip-rule="nonzero"/></clipPath><clipPath id="a6e76e1490"><path d="M 150.753906 248.421875 L 77.320312 205.222656 L 114.835938 141.449219 L 188.269531 184.652344 Z M 150.753906 248.421875 " clip-rule="nonzero"/></clipPath><clipPath id="af0e6cf987"><path d="M 114.316406 226.988281 L 115.035156 142.398438 L 187.90625 185.269531 L 114.316406 226.988281 " clip-rule="nonzero"/></clipPath><clipPath id="50a4b731a6"><path d="M 102 201 L 135 201 L 135 239 L 102 239 Z M 102 201 " clip-rule="nonzero"/></clipPath><clipPath id="bc58793614"><path d="M 117.976562 238.296875 L 102.320312 229.089844 L 118.507812 201.574219 L 134.164062 210.78125 Z M 117.976562 238.296875 " clip-rule="nonzero"/></clipPath><clipPath id="c5d1775694"><path d="M 117.976562 238.296875 L 102.664062 229.289062 L 118.75 201.941406 L 134.0625 210.953125 Z M 117.976562 238.296875 " clip-rule="nonzero"/></clipPath><clipPath id="0e8d27847a"><path d="M 72 223 L 128 223 L 128 280 L 72 280 Z M 72 223 " clip-rule="nonzero"/></clipPath><clipPath id="c711ae2836"><path d="M 138.183594 242.519531 L 108.882812 289.800781 L 61.605469 260.5 L 90.902344 213.21875 Z M 138.183594 242.519531 " clip-rule="nonzero"/></clipPath><clipPath id="2275ac0b06"><path d="M 123.53125 266.160156 C 131.625 253.105469 127.597656 235.960938 114.542969 227.871094 C 101.488281 219.78125 84.34375 223.804688 76.253906 236.859375 C 68.164062 249.917969 72.1875 267.058594 85.242188 275.148438 C 98.300781 283.242188 115.441406 279.214844 123.53125 266.160156 " clip-rule="nonzero"/></clipPath><clipPath id="ca944568fd"><path d="M 72 223 L 128 223 L 128 280 L 72 280 Z M 72 223 " clip-rule="nonzero"/></clipPath><clipPath id="c7dfd2c90b"><path d="M 138.183594 242.519531 L 108.949219 289.695312 L 61.773438 260.460938 L 91.007812 213.285156 Z M 138.183594 242.519531 " clip-rule="nonzero"/></clipPath><clipPath id="454b28aabf"><path d="M 138.183594 242.519531 L 108.949219 289.695312 L 61.773438 260.460938 L 91.007812 213.285156 Z M 138.183594 242.519531 " clip-rule="nonzero"/></clipPath><clipPath id="158d984867"><path d="M 123.566406 266.109375 C 131.636719 253.082031 127.621094 235.976562 114.59375 227.902344 C 101.566406 219.828125 84.464844 223.84375 76.390625 236.871094 C 68.316406 249.898438 72.332031 267.003906 85.359375 275.078125 C 98.386719 283.152344 115.492188 279.136719 123.566406 266.109375 " clip-rule="nonzero"/></clipPath><clipPath id="464284c80a"><path d="M 190 157 L 246 157 L 246 214 L 190 214 Z M 190 157 " clip-rule="nonzero"/></clipPath><clipPath id="8cdc12279f"><path d="M 245.460938 213.574219 L 189.84375 213.097656 L 190.316406 157.480469 L 245.9375 157.953125 Z M 245.460938 213.574219 " clip-rule="nonzero"/></clipPath><clipPath id="fc8fc688ed"><path d="M 217.652344 213.335938 C 233.011719 213.46875 245.570312 201.125 245.699219 185.765625 C 245.832031 170.40625 233.488281 157.847656 218.128906 157.71875 C 202.769531 157.585938 190.210938 169.929688 190.078125 185.289062 C 189.949219 200.648438 202.292969 213.207031 217.652344 213.335938 " clip-rule="nonzero"/></clipPath><clipPath id="8b0af84ea0"><path d="M 190 157 L 246 157 L 246 214 L 190 214 Z M 190 157 " clip-rule="nonzero"/></clipPath><clipPath id="acb31673d3"><path d="M 245.460938 213.574219 L 189.964844 213.101562 L 190.4375 157.601562 L 245.9375 158.078125 Z M 245.460938 213.574219 " clip-rule="nonzero"/></clipPath><clipPath id="6d4baeb357"><path d="M 245.460938 213.574219 L 189.964844 213.101562 L 190.4375 157.601562 L 245.9375 158.078125 Z M 245.460938 213.574219 " clip-rule="nonzero"/></clipPath><clipPath id="de433a4007"><path d="M 217.714844 213.335938 C 233.039062 213.46875 245.570312 201.152344 245.699219 185.824219 C 245.832031 170.5 233.511719 157.96875 218.1875 157.839844 C 202.863281 157.707031 190.332031 170.027344 190.203125 185.351562 C 190.070312 200.675781 202.386719 213.207031 217.714844 213.335938 " clip-rule="nonzero"/></clipPath><clipPath id="ffacd7f498"><path d="M 74 92 L 131 92 L 131 148 L 74 148 Z M 74 92 " clip-rule="nonzero"/></clipPath><clipPath id="751af53caf"><path d="M 140.371094 130.292969 L 91.996094 157.742188 L 64.546875 109.367188 L 112.921875 81.917969 Z M 140.371094 130.292969 " clip-rule="nonzero"/></clipPath><clipPath id="d17fe12906"><path d="M 116.183594 144.019531 C 129.542969 136.4375 134.226562 119.464844 126.648438 106.105469 C 119.066406 92.746094 102.09375 88.0625 88.734375 95.640625 C 75.375 103.222656 70.691406 120.195312 78.269531 133.554688 C 85.851562 146.914062 102.824219 151.597656 116.183594 144.019531 " clip-rule="nonzero"/></clipPath><clipPath id="0b1c6c55d1"><path d="M 74 92 L 131 92 L 131 148 L 74 148 Z M 74 92 " clip-rule="nonzero"/></clipPath><clipPath id="8a3f8d4e64"><path d="M 140.371094 130.292969 L 92.101562 157.683594 L 64.710938 109.414062 L 112.980469 82.023438 Z M 140.371094 130.292969 " clip-rule="nonzero"/></clipPath><clipPath id="486c78e509"><path d="M 140.371094 130.292969 L 92.101562 157.683594 L 64.710938 109.414062 L 112.980469 82.023438 Z M 140.371094 130.292969 " clip-rule="nonzero"/></clipPath><clipPath id="6e22709f7b"><path d="M 116.238281 143.988281 C 129.566406 136.425781 134.242188 119.488281 126.675781 106.15625 C 119.113281 92.828125 102.175781 88.15625 88.847656 95.71875 C 75.515625 103.28125 70.84375 120.21875 78.40625 133.546875 C 85.96875 146.878906 102.90625 151.550781 116.238281 143.988281 " clip-rule="nonzero"/></clipPath><clipPath id="7c9394f7e8"><path d="M 92 244 L 107 244 L 107 259 L 92 259 Z M 92 244 " clip-rule="nonzero"/></clipPath><clipPath id="2a2581821b"><path d="M 102.375 261.0625 L 90.34375 253.984375 L 97.421875 241.953125 L 109.453125 249.03125 Z M 102.375 261.0625 " clip-rule="nonzero"/></clipPath><clipPath id="ec6ac62e71"><path d="M 96.359375 257.523438 C 99.683594 259.480469 103.960938 258.371094 105.914062 255.046875 C 107.867188 251.726562 106.761719 247.445312 103.4375 245.492188 C 100.113281 243.539062 95.835938 244.648438 93.882812 247.96875 C 91.929688 251.292969 93.035156 255.570312 96.359375 257.523438 " clip-rule="nonzero"/></clipPath><clipPath id="df1cbcf76f"><path d="M 210 178 L 225 178 L 225 193 L 210 193 Z M 210 178 " clip-rule="nonzero"/></clipPath><clipPath id="1acb21927b"><path d="M 210.855469 192.449219 L 210.976562 178.488281 L 224.933594 178.609375 L 224.816406 192.566406 Z M 210.855469 192.449219 " clip-rule="nonzero"/></clipPath><clipPath id="272c542f7d"><path d="M 210.917969 185.46875 C 210.882812 189.324219 213.980469 192.476562 217.835938 192.507812 C 221.691406 192.542969 224.84375 189.441406 224.875 185.589844 C 224.90625 181.734375 221.808594 178.582031 217.957031 178.550781 C 214.101562 178.515625 210.949219 181.613281 210.917969 185.46875 " clip-rule="nonzero"/></clipPath><clipPath id="c9113530e7"><path d="M 94 113 L 109 113 L 109 128 L 94 128 Z M 94 113 " clip-rule="nonzero"/></clipPath><clipPath id="64f61f40ea"><path d="M 104.046875 129.914062 L 92.015625 122.835938 L 99.09375 110.804688 L 111.125 117.882812 Z M 104.046875 129.914062 " clip-rule="nonzero"/></clipPath><clipPath id="5d303ee0d7"><path d="M 98.03125 126.375 C 101.351562 128.332031 105.632812 127.222656 107.585938 123.898438 C 109.539062 120.578125 108.429688 116.300781 105.109375 114.34375 C 101.785156 112.390625 97.507812 113.5 95.554688 116.820312 C 93.597656 120.144531 94.707031 124.421875 98.03125 126.375 " clip-rule="nonzero"/></clipPath><clipPath id="0f359b5592"><path d="M 68 160 L 84 160 L 84 207 L 68 207 Z M 68 160 " clip-rule="nonzero"/></clipPath><clipPath id="f627499b17"><path d="M 79.804688 159.679688 L 83.585938 206.777344 L 70.128906 207.855469 L 66.347656 160.757812 Z M 79.804688 159.679688 " clip-rule="nonzero"/></clipPath><clipPath id="fb61e8341e"><path d="M 83.601562 206.964844 L 79.820312 159.863281 L 66.363281 160.945312 L 70.144531 208.042969 Z M 83.601562 206.964844 " clip-rule="nonzero"/></clipPath><clipPath id="6c56e1ca7e"><path d="M 83.601562 206.964844 L 79.820312 159.863281 L 66.363281 160.945312 L 70.144531 208.042969 Z M 83.601562 206.964844 " clip-rule="nonzero"/></clipPath><clipPath id="af393f2e44"><path d="M 76 200 L 77 200 L 77 201 L 76 201 Z M 76 200 " clip-rule="nonzero"/></clipPath><clipPath id="d5c889995a"><path d="M 79.804688 159.679688 L 83.585938 206.777344 L 70.128906 207.855469 L 66.347656 160.757812 Z M 79.804688 159.679688 " clip-rule="nonzero"/></clipPath><clipPath id="1524e25f07"><path d="M 83.601562 206.964844 L 79.820312 159.863281 L 66.363281 160.945312 L 70.144531 208.042969 Z M 83.601562 206.964844 " clip-rule="nonzero"/></clipPath><clipPath id="e46ad43b36"><path d="M 83.601562 206.964844 L 79.820312 159.863281 L 66.363281 160.945312 L 70.144531 208.042969 Z M 83.601562 206.964844 " clip-rule="nonzero"/></clipPath><clipPath id="4419166db4"><path d="M 149 117 L 193 117 L 193 142 L 149 142 Z M 149 117 " clip-rule="nonzero"/></clipPath><clipPath id="253d6c4172"><path d="M 189.925781 144.605469 L 149.234375 120.585938 L 156.09375 108.960938 L 196.785156 132.980469 Z M 189.925781 144.605469 " clip-rule="nonzero"/></clipPath><clipPath id="d0c5245a80"><path d="M 149.070312 120.492188 L 189.761719 144.507812 L 196.625 132.882812 L 155.933594 108.867188 Z M 149.070312 120.492188 " clip-rule="nonzero"/></clipPath><clipPath id="6e2d9921e4"><path d="M 149.070312 120.492188 L 189.761719 144.507812 L 196.625 132.882812 L 155.933594 108.867188 Z M 149.070312 120.492188 " clip-rule="nonzero"/></clipPath><clipPath id="e2f559893f"><path d="M 158 118 L 159 118 L 159 119 L 158 119 Z M 158 118 " clip-rule="nonzero"/></clipPath><clipPath id="592f05baa7"><path d="M 189.925781 144.605469 L 149.234375 120.585938 L 156.09375 108.960938 L 196.785156 132.980469 Z M 189.925781 144.605469 " clip-rule="nonzero"/></clipPath><clipPath id="4f64c71cb3"><path d="M 149.070312 120.492188 L 189.761719 144.507812 L 196.625 132.882812 L 155.933594 108.867188 Z M 149.070312 120.492188 " clip-rule="nonzero"/></clipPath><clipPath id="a3c0b79519"><path d="M 149.070312 120.492188 L 189.761719 144.507812 L 196.625 132.882812 L 155.933594 108.867188 Z M 149.070312 120.492188 " clip-rule="nonzero"/></clipPath><clipPath id="f572da7e30"><path d="M 152 226 L 194 226 L 194 255 L 152 255 Z M 152 226 " clip-rule="nonzero"/></clipPath><clipPath id="f796eea6d1"><path d="M 149.960938 246.21875 L 192.890625 226.476562 L 198.53125 238.738281 L 155.605469 258.484375 Z M 149.960938 246.21875 " clip-rule="nonzero"/></clipPath><clipPath id="0473b1418e"><path d="M 193.058594 226.398438 L 150.132812 246.140625 L 155.773438 258.40625 L 198.699219 238.660156 Z M 193.058594 226.398438 " clip-rule="nonzero"/></clipPath><clipPath id="f2ecead15c"><path d="M 193.058594 226.398438 L 150.132812 246.140625 L 155.773438 258.40625 L 198.699219 238.660156 Z M 193.058594 226.398438 " clip-rule="nonzero"/></clipPath><clipPath id="96fee51220"><path d="M 188 234 L 190 234 L 190 236 L 188 236 Z M 188 234 " clip-rule="nonzero"/></clipPath><clipPath id="748d01aa37"><path d="M 149.960938 246.21875 L 192.890625 226.476562 L 198.53125 238.738281 L 155.605469 258.484375 Z M 149.960938 246.21875 " clip-rule="nonzero"/></clipPath><clipPath id="fc3a58146b"><path d="M 193.058594 226.398438 L 150.132812 246.140625 L 155.773438 258.40625 L 198.699219 238.660156 Z M 193.058594 226.398438 " clip-rule="nonzero"/></clipPath><clipPath id="919583d163"><path d="M 193.058594 226.398438 L 150.132812 246.140625 L 155.773438 258.40625 L 198.699219 238.660156 Z M 193.058594 226.398438 " clip-rule="nonzero"/></clipPath><clipPath id="db675586cb"><path d="M 266.625 297.128906 L 283 297.128906 L 283 318.128906 L 266.625 318.128906 Z M 266.625 297.128906 " clip-rule="nonzero"/></clipPath><clipPath id="e9030f6a22"><path d="M 278 297.128906 L 294.785156 297.128906 L 294.785156 318.128906 L 278 318.128906 Z M 278 297.128906 " clip-rule="nonzero"/></clipPath><clipPath id="7dac4c2af6"><path d="M 229.5 297.128906 L 246 297.128906 L 246 318.128906 L 229.5 318.128906 Z M 229.5 297.128906 " clip-rule="nonzero"/></clipPath><clipPath id="6a196179fa"><path d="M 241 297.128906 L 257.660156 297.128906 L 257.660156 318.128906 L 241 318.128906 Z M 241 297.128906 " clip-rule="nonzero"/></clipPath><clipPath id="6ae4dd1bb7"><path d="M 192.375 297.128906 L 209 297.128906 L 209 318.128906 L 192.375 318.128906 Z M 192.375 297.128906 " clip-rule="nonzero"/></clipPath><clipPath id="4cfaa5b56f"><path d="M 204 297.128906 L 220.535156 297.128906 L 220.535156 318.128906 L 204 318.128906 Z M 204 297.128906 " clip-rule="nonzero"/></clipPath><clipPath id="d3b9c385df"><path d="M 155.25 297.128906 L 172 297.128906 L 172 318.128906 L 155.25 318.128906 Z M 155.25 297.128906 " clip-rule="nonzero"/></clipPath><clipPath id="f1eb5e4d49"><path d="M 167 297.128906 L 183.410156 297.128906 L 183.410156 318.128906 L 167 318.128906 Z M 167 297.128906 " clip-rule="nonzero"/></clipPath><clipPath id="cc0e58bfe4"><path d="M 117 297 L 135 297 L 135 319 L 117 319 Z M 117 297 " clip-rule="nonzero"/></clipPath><clipPath id="95a21efe63"><path d="M 117.945312 297.378906 L 146.441406 296.875 L 146.8125 317.871094 L 118.316406 318.375 Z M 117.945312 297.378906 " clip-rule="nonzero"/></clipPath><clipPath id="ab3b0d4e8b"><path d="M 146.101562 296.878906 L 117.605469 297.382812 L 117.976562 318.378906 L 146.472656 317.875 Z M 146.101562 296.878906 " clip-rule="nonzero"/></clipPath><clipPath id="8ad6a93aa3"><path d="M 130 296 L 147 296 L 147 318 L 130 318 Z M 130 296 " clip-rule="nonzero"/></clipPath><clipPath id="55bffedc0c"><path d="M 117.945312 297.378906 L 146.441406 296.875 L 146.8125 317.871094 L 118.316406 318.375 Z M 117.945312 297.378906 " clip-rule="nonzero"/></clipPath><clipPath id="4a0ff80241"><path d="M 146.101562 296.878906 L 117.605469 297.382812 L 117.976562 318.378906 L 146.472656 317.875 Z M 146.101562 296.878906 " clip-rule="nonzero"/></clipPath><clipPath id="f28f27a8c9"><path d="M 75 282 L 95 282 L 95 304 L 75 304 Z M 75 282 " clip-rule="nonzero"/></clipPath><clipPath id="0a636e5cf9"><path d="M 81.105469 277.734375 L 105.09375 293.121094 L 93.757812 310.796875 L 69.765625 295.410156 Z M 81.105469 277.734375 " clip-rule="nonzero"/></clipPath><clipPath id="878a8e711f"><path d="M 104.808594 292.9375 L 80.816406 277.550781 L 69.480469 295.226562 L 93.46875 310.613281 Z M 104.808594 292.9375 " clip-rule="nonzero"/></clipPath><clipPath id="cc5d4e0250"><path d="M 85 289 L 105 289 L 105 311 L 85 311 Z M 85 289 " clip-rule="nonzero"/></clipPath><clipPath id="aa2f95802d"><path d="M 81.105469 277.734375 L 105.09375 293.121094 L 93.757812 310.796875 L 69.765625 295.410156 Z M 81.105469 277.734375 " clip-rule="nonzero"/></clipPath><clipPath id="eefb525860"><path d="M 104.808594 292.9375 L 80.816406 277.550781 L 69.480469 295.226562 L 93.46875 310.613281 Z M 104.808594 292.9375 " clip-rule="nonzero"/></clipPath><clipPath id="e555f00e35"><path d="M 39 261 L 60 261 L 60 282 L 39 282 Z M 39 261 " clip-rule="nonzero"/></clipPath><clipPath id="a44bbad327"><path d="M 48.058594 255.742188 L 68.585938 275.511719 L 54.019531 290.636719 L 33.492188 270.867188 Z M 48.058594 255.742188 " clip-rule="nonzero"/></clipPath><clipPath id="18d3bbba3a"><path d="M 68.339844 275.277344 L 47.8125 255.503906 L 33.246094 270.632812 L 53.773438 290.402344 Z M 68.339844 275.277344 " clip-rule="nonzero"/></clipPath><clipPath id="72c297bad8"><path d="M 48 270 L 68 270 L 68 290 L 48 290 Z M 48 270 " clip-rule="nonzero"/></clipPath><clipPath id="f17d1431f6"><path d="M 48.058594 255.742188 L 68.585938 275.511719 L 54.019531 290.636719 L 33.492188 270.867188 Z M 48.058594 255.742188 " clip-rule="nonzero"/></clipPath><clipPath id="4468263d10"><path d="M 68.339844 275.277344 L 47.8125 255.503906 L 33.246094 270.632812 L 53.773438 290.402344 Z M 68.339844 275.277344 " clip-rule="nonzero"/></clipPath><clipPath id="796f7ee4b2"><path d="M 17 226 L 39 226 L 39 245 L 17 245 Z M 17 226 " clip-rule="nonzero"/></clipPath><clipPath id="b537aa9a13"><path d="M 31.21875 221.023438 L 45.539062 245.664062 L 27.386719 256.21875 L 13.0625 231.578125 Z M 31.21875 221.023438 " clip-rule="nonzero"/></clipPath><clipPath id="39586de8af"><path d="M 45.371094 245.371094 L 31.046875 220.730469 L 12.890625 231.285156 L 27.214844 255.925781 Z M 45.371094 245.371094 " clip-rule="nonzero"/></clipPath><clipPath id="1ef0c13c70"><path d="M 23 236 L 45 236 L 45 256 L 23 256 Z M 23 236 " clip-rule="nonzero"/></clipPath><clipPath id="ec0976aa46"><path d="M 31.21875 221.023438 L 45.539062 245.664062 L 27.386719 256.21875 L 13.0625 231.578125 Z M 31.21875 221.023438 " clip-rule="nonzero"/></clipPath><clipPath id="786caae301"><path d="M 45.371094 245.371094 L 31.046875 220.730469 L 12.890625 231.285156 L 27.214844 255.925781 Z M 45.371094 245.371094 " clip-rule="nonzero"/></clipPath><clipPath id="e3755859de"><path d="M 8.878906 171.9375 L 29.878906 171.9375 L 29.878906 188 L 8.878906 188 Z M 8.878906 171.9375 " clip-rule="nonzero"/></clipPath><clipPath id="6e242c536f"><path d="M 8.878906 184 L 29.878906 184 L 29.878906 200.097656 L 8.878906 200.097656 Z M 8.878906 184 " clip-rule="nonzero"/></clipPath><clipPath id="f65b3949ac"><path d="M 20 121 L 42 121 L 42 141 L 20 141 Z M 20 121 " clip-rule="nonzero"/></clipPath><clipPath id="c1e340f96d"><path d="M 46.378906 127.648438 L 30.144531 151.074219 L 12.882812 139.109375 L 29.117188 115.6875 Z M 46.378906 127.648438 " clip-rule="nonzero"/></clipPath><clipPath id="147fa48253"><path d="M 30.339844 150.792969 L 46.574219 127.367188 L 29.3125 115.40625 L 13.078125 138.832031 Z M 30.339844 150.792969 " clip-rule="nonzero"/></clipPath><clipPath id="466661fbd9"><path d="M 13 131 L 35 131 L 35 151 L 13 151 Z M 13 131 " clip-rule="nonzero"/></clipPath><clipPath id="7353893afd"><path d="M 46.378906 127.648438 L 30.144531 151.074219 L 12.882812 139.109375 L 29.117188 115.6875 Z M 46.378906 127.648438 " clip-rule="nonzero"/></clipPath><clipPath id="47d4965f6f"><path d="M 30.339844 150.792969 L 46.574219 127.367188 L 29.3125 115.40625 L 13.078125 138.832031 Z M 30.339844 150.792969 " clip-rule="nonzero"/></clipPath><clipPath id="c897d33fa1"><path d="M 47 87 L 66 87 L 66 108 L 47 108 Z M 47 87 " clip-rule="nonzero"/></clipPath><clipPath id="f11b9c9635"><path d="M 72.519531 97.332031 L 51.425781 116.5 L 37.304688 100.957031 L 58.398438 81.789062 Z M 72.519531 97.332031 " clip-rule="nonzero"/></clipPath><clipPath id="a3c3c4106c"><path d="M 51.675781 116.269531 L 72.769531 97.105469 L 58.648438 81.5625 L 37.554688 100.726562 Z M 51.675781 116.269531 " clip-rule="nonzero"/></clipPath><clipPath id="83c36e865c"><path d="M 37 96 L 57 96 L 57 116 L 37 116 Z M 37 96 " clip-rule="nonzero"/></clipPath><clipPath id="351c97d734"><path d="M 72.519531 97.332031 L 51.425781 116.5 L 37.304688 100.957031 L 58.398438 81.789062 Z M 72.519531 97.332031 " clip-rule="nonzero"/></clipPath><clipPath id="45cd98e673"><path d="M 51.675781 116.269531 L 72.769531 97.105469 L 58.648438 81.5625 L 37.554688 100.726562 Z M 51.675781 116.269531 " clip-rule="nonzero"/></clipPath><clipPath id="be18096531"><path d="M 81 66 L 101 66 L 101 88 L 81 88 Z M 81 66 " clip-rule="nonzero"/></clipPath><clipPath id="26f7666519"><path d="M 104.921875 81.058594 L 79.34375 93.632812 L 70.078125 74.785156 L 95.65625 62.214844 Z M 104.921875 81.058594 " clip-rule="nonzero"/></clipPath><clipPath id="10bb2665f4"><path d="M 79.648438 93.480469 L 105.226562 80.910156 L 95.960938 62.0625 L 70.382812 74.636719 Z M 79.648438 93.480469 " clip-rule="nonzero"/></clipPath><clipPath id="dbe6bed8dc"><path d="M 70 71 L 90 71 L 90 94 L 70 94 Z M 70 71 " clip-rule="nonzero"/></clipPath><clipPath id="a4666fdec1"><path d="M 104.921875 81.058594 L 79.34375 93.632812 L 70.078125 74.785156 L 95.65625 62.214844 Z M 104.921875 81.058594 " clip-rule="nonzero"/></clipPath><clipPath id="6f94cb7601"><path d="M 79.648438 93.480469 L 105.226562 80.910156 L 95.960938 62.0625 L 70.382812 74.636719 Z M 79.648438 93.480469 " clip-rule="nonzero"/></clipPath><clipPath id="5c84411891"><path d="M 130 57.015625 L 146.285156 57.015625 L 146.285156 78 L 130 78 Z M 130 57.015625 " clip-rule="nonzero"/></clipPath><clipPath id="0cfebae26d"><path d="M 118.125 57.015625 L 135 57.015625 L 135 78 L 118.125 78 Z M 118.125 57.015625 " clip-rule="nonzero"/></clipPath><clipPath id="0655159c40"><path d="M 166 56 L 183 56 L 183 78 L 166 78 Z M 166 56 " clip-rule="nonzero"/></clipPath><clipPath id="0d26f3a43e"><path d="M 182.511719 78.011719 L 154.023438 77.15625 L 154.65625 56.164062 L 183.144531 57.023438 Z M 182.511719 78.011719 " clip-rule="nonzero"/></clipPath><clipPath id="a10e5adaf5"><path d="M 154.363281 77.164062 L 182.851562 78.023438 L 183.484375 57.035156 L 154.996094 56.175781 Z M 154.363281 77.164062 " clip-rule="nonzero"/></clipPath><clipPath id="b4e9c275c7"><path d="M 154 56 L 171 56 L 171 78 L 154 78 Z M 154 56 " clip-rule="nonzero"/></clipPath><clipPath id="9bb97864ef"><path d="M 182.511719 78.011719 L 154.023438 77.15625 L 154.65625 56.164062 L 183.144531 57.023438 Z M 182.511719 78.011719 " clip-rule="nonzero"/></clipPath><clipPath id="e6fd792642"><path d="M 154.363281 77.164062 L 182.851562 78.023438 L 183.484375 57.035156 L 154.996094 56.175781 Z M 154.363281 77.164062 " clip-rule="nonzero"/></clipPath><clipPath id="5cd2af61ff"><path d="M 278 56 L 295 56 L 295 78 L 278 78 Z M 278 56 " clip-rule="nonzero"/></clipPath><clipPath id="c616897257"><path d="M 294.164062 78.011719 L 265.675781 77.15625 L 266.308594 56.164062 L 294.796875 57.023438 Z M 294.164062 78.011719 " clip-rule="nonzero"/></clipPath><clipPath id="e3d3f34998"><path d="M 266.015625 77.164062 L 294.503906 78.023438 L 295.136719 57.035156 L 266.648438 56.175781 Z M 266.015625 77.164062 " clip-rule="nonzero"/></clipPath><clipPath id="16d2cebfea"><path d="M 266 56 L 283 56 L 283 78 L 266 78 Z M 266 56 " clip-rule="nonzero"/></clipPath><clipPath id="1da1b142fa"><path d="M 294.164062 78.011719 L 265.675781 77.15625 L 266.308594 56.164062 L 294.796875 57.023438 Z M 294.164062 78.011719 " clip-rule="nonzero"/></clipPath><clipPath id="2275913797"><path d="M 266.015625 77.164062 L 294.503906 78.023438 L 295.136719 57.035156 L 266.648438 56.175781 Z M 266.015625 77.164062 " clip-rule="nonzero"/></clipPath><clipPath id="d959ecd50f"><path d="M 241 56 L 258 56 L 258 78 L 241 78 Z M 241 56 " clip-rule="nonzero"/></clipPath><clipPath id="6d1c60bcd8"><path d="M 257.039062 78.011719 L 228.550781 77.15625 L 229.183594 56.164062 L 257.671875 57.023438 Z M 257.039062 78.011719 " clip-rule="nonzero"/></clipPath><clipPath id="b447315b64"><path d="M 228.890625 77.164062 L 257.378906 78.023438 L 258.011719 57.035156 L 229.523438 56.175781 Z M 228.890625 77.164062 " clip-rule="nonzero"/></clipPath><clipPath id="b9e681b44c"><path d="M 228 56 L 246 56 L 246 78 L 228 78 Z M 228 56 " clip-rule="nonzero"/></clipPath><clipPath id="0520db6818"><path d="M 257.039062 78.011719 L 228.550781 77.15625 L 229.183594 56.164062 L 257.671875 57.023438 Z M 257.039062 78.011719 " clip-rule="nonzero"/></clipPath><clipPath id="e67aa1e7e1"><path d="M 228.890625 77.164062 L 257.378906 78.023438 L 258.011719 57.035156 L 229.523438 56.175781 Z M 228.890625 77.164062 " clip-rule="nonzero"/></clipPath><clipPath id="ae237872cd"><path d="M 204 56 L 221 56 L 221 78 L 204 78 Z M 204 56 " clip-rule="nonzero"/></clipPath><clipPath id="d10a031474"><path d="M 220.523438 78.011719 L 192.035156 77.15625 L 192.667969 56.164062 L 221.15625 57.023438 Z M 220.523438 78.011719 " clip-rule="nonzero"/></clipPath><clipPath id="7f64c595d0"><path d="M 192.375 77.164062 L 220.863281 78.023438 L 221.496094 57.035156 L 193.007812 56.175781 Z M 192.375 77.164062 " clip-rule="nonzero"/></clipPath><clipPath id="30d77505ee"><path d="M 192 56 L 209 56 L 209 78 L 192 78 Z M 192 56 " clip-rule="nonzero"/></clipPath><clipPath id="8bbf413e85"><path d="M 220.523438 78.011719 L 192.035156 77.15625 L 192.667969 56.164062 L 221.15625 57.023438 Z M 220.523438 78.011719 " clip-rule="nonzero"/></clipPath><clipPath id="f11dff8fd7"><path d="M 192.375 77.164062 L 220.863281 78.023438 L 221.496094 57.035156 L 193.007812 56.175781 Z M 192.375 77.164062 " clip-rule="nonzero"/></clipPath></defs><g clip-path="url(#7ebbde4e93)"><g clip-path="url(#a8dc58cbb8)"><path fill="#919191" d="M 303.75 52.777344 L 303.75 323.039062 L -0.132812 323.039062 L -0.132812 52.777344 Z M 303.75 52.777344 " fill-opacity="1" fill-rule="nonzero"/></g></g><g clip-path="url(#8c9064b0cc)"><g clip-path="url(#8917327811)"><path stroke-linecap="butt" transform="matrix(0.000000000000000046, 0.75, -0.75, 0.000000000000000046, 303.749959, 52.777335)" fill="none" stroke-linejoin="miter" d="M 120.062517 394.442673 C 138.520852 400.817674 159.505228 404.999965 180.098979 404.999965 C 200.69273 404.999965 220.505231 401.416632 238.770857 395.041632 C 239.156274 394.838507 239.546899 394.838507 239.937524 394.64059 C 308.515652 369.145797 359.03128 301.81246 360.00003 224.124956 L 360.00003 -0.0000552182 L 0.0000113526 -0.0000552182 L 0.0000113526 223.95829 C 0.97397 302.208294 50.708347 369.54163 120.062517 394.442673 " stroke="#000000" stroke-width="4" stroke-opacity="1" stroke-miterlimit="4"/></g></g><g clip-path="url(#3ff593cc35)"><g clip-path="url(#733c6b19bb)"><g clip-path="url(#39a42beb3c)"><path fill="#707070" d="M -5.480469 145.386719 L 182.148438 38.917969 L 288.621094 226.550781 L 100.988281 333.019531 Z M -5.480469 145.386719 " fill-opacity="1" fill-rule="nonzero"/></g></g></g><g clip-path="url(#4d9715ab2c)"><g clip-path="url(#5ba2729300)"><g clip-path="url(#35b2657694)"><g clip-path="url(#44c4637145)"><path stroke-linecap="butt" transform="matrix(0.652299, -0.370143, 0.370143, 0.652299, -5.481692, 145.387943)" fill="none" stroke-linejoin="miter" d="M 144.000768 -0.00164746 C 64.47346 -0.00012482 0.00173411 64.47062 0.000686302 144.002458 C 0.00220894 223.529766 64.472954 288.001492 144.000262 287.999969 C 223.52757 287.998447 287.999296 223.527702 287.997773 144.000393 C 287.998821 64.468555 223.528076 -0.00317009 144.000768 -0.00164746 " stroke="#000000" stroke-width="8" stroke-opacity="1" stroke-miterlimit="4"/></g></g></g></g><g clip-path="url(#9ea25b8a21)"><g clip-path="url(#a293978867)"><g clip-path="url(#e9bfa2f9d9)"><path fill="#ffde59" d="M 99.464844 133.039062 L 114.75 124.289062 L 130.613281 151.992188 L 115.328125 160.746094 Z M 99.464844 133.039062 " fill-opacity="1" fill-rule="nonzero"/></g></g></g><g clip-path="url(#7c23beb82d)"><g clip-path="url(#a876be50a9)"><g clip-path="url(#f1a0d30985)"><path fill="#ffde59" d="M 171.921875 193.921875 L 172.175781 176.3125 L 204.097656 176.777344 L 203.84375 194.386719 Z M 171.921875 193.921875 " fill-opacity="1" fill-rule="nonzero"/></g></g></g><g clip-path="url(#2f0a933e9e)"><g clip-path="url(#a6e76e1490)"><g clip-path="url(#af0e6cf987)"><path fill="#ffde59" d="M 150.753906 248.421875 L 77.964844 205.601562 L 115.101562 142.472656 L 187.890625 185.296875 Z M 150.753906 248.421875 " fill-opacity="1" fill-rule="nonzero"/></g></g></g><g clip-path="url(#50a4b731a6)"><g clip-path="url(#bc58793614)"><g clip-path="url(#c5d1775694)"><path fill="#ffde59" d="M 117.976562 238.296875 L 102.792969 229.367188 L 118.980469 201.851562 L 134.164062 210.78125 Z M 117.976562 238.296875 " fill-opacity="1" fill-rule="nonzero"/></g></g></g><g clip-path="url(#0e8d27847a)"><g clip-path="url(#c711ae2836)"><g clip-path="url(#2275ac0b06)"><path fill="#ffde59" d="M 138.183594 242.519531 L 108.882812 289.800781 L 61.605469 260.5 L 90.902344 213.21875 Z M 138.183594 242.519531 " fill-opacity="1" fill-rule="nonzero"/></g></g></g><g clip-path="url(#ca944568fd)"><g clip-path="url(#c7dfd2c90b)"><g clip-path="url(#454b28aabf)"><g clip-path="url(#158d984867)"><path fill="#000000" d="M 121.019531 264.53125 C 123.945312 259.808594 125.148438 254.695312 124.628906 249.179688 L 130.589844 248.617188 C 131.234375 255.46875 129.742188 261.824219 126.109375 267.683594 Z M 124.234375 246.535156 C 123.121094 241.09375 120.488281 236.546875 116.335938 232.90625 L 120.289062 228.40625 C 125.445312 232.933594 128.71875 238.578125 130.097656 245.335938 Z M 114.242188 231.253906 C 113.84375 230.976562 113.433594 230.707031 113.019531 230.449219 C 108.746094 227.800781 104.109375 226.566406 99.109375 226.746094 L 98.894531 220.761719 C 105.105469 220.539062 110.867188 222.070312 116.171875 225.359375 C 116.6875 225.675781 117.191406 226.011719 117.683594 226.359375 Z M 96.445312 226.988281 C 90.941406 227.785156 86.25 230.148438 82.367188 234.082031 L 78.105469 229.875 C 82.929688 224.988281 88.753906 222.050781 95.585938 221.0625 Z M 80.609375 236.070312 C 80.007812 236.828125 79.449219 237.621094 78.933594 238.449219 C 76.558594 242.285156 75.320312 246.441406 75.222656 250.921875 L 69.238281 250.792969 C 69.359375 245.222656 70.894531 240.054688 73.84375 235.296875 C 74.480469 234.269531 75.171875 233.285156 75.917969 232.347656 Z M 75.308594 253.589844 C 75.785156 259.128906 77.871094 263.949219 81.566406 268.050781 L 77.117188 272.058594 C 72.527344 266.960938 69.933594 260.976562 69.34375 254.105469 Z M 83.460938 269.9375 C 84.539062 270.902344 85.699219 271.765625 86.9375 272.535156 C 90.335938 274.640625 94.015625 275.851562 97.96875 276.171875 L 97.492188 282.140625 C 92.574219 281.742188 88.003906 280.238281 83.78125 277.621094 C 82.246094 276.671875 80.8125 275.597656 79.476562 274.40625 Z M 100.636719 276.242188 C 106.191406 276.085938 111.125 274.285156 115.441406 270.832031 L 119.179688 275.507812 C 113.820312 279.796875 107.691406 282.035156 100.804688 282.226562 Z M 117.4375 269.050781 C 118.800781 267.691406 119.996094 266.183594 121.019531 264.53125 L 126.109375 267.683594 C 124.839844 269.734375 123.355469 271.605469 121.664062 273.292969 Z M 117.4375 269.050781 " fill-opacity="1" fill-rule="nonzero"/></g></g></g></g><g clip-path="url(#464284c80a)"><g clip-path="url(#8cdc12279f)"><g clip-path="url(#fc8fc688ed)"><path fill="#ffde59" d="M 245.460938 213.574219 L 189.84375 213.097656 L 190.316406 157.480469 L 245.9375 157.953125 Z M 245.460938 213.574219 " fill-opacity="1" fill-rule="nonzero"/></g></g></g><g clip-path="url(#8b0af84ea0)"><g clip-path="url(#acb31673d3)"><g clip-path="url(#6d4baeb357)"><g clip-path="url(#de433a4007)"><path fill="#000000" d="M 217.738281 210.34375 C 223.292969 210.390625 228.289062 208.761719 232.730469 205.453125 L 236.308594 210.253906 C 230.789062 214.363281 224.585938 216.390625 217.6875 216.332031 Z M 234.785156 203.742188 C 238.859375 199.960938 241.375 195.351562 242.332031 189.914062 L 248.226562 190.949219 C 247.039062 197.710938 243.914062 203.4375 238.855469 208.128906 Z M 242.652344 187.265625 C 242.683594 186.777344 242.703125 186.289062 242.707031 185.800781 C 242.75 180.773438 241.394531 176.171875 238.644531 171.992188 L 243.644531 168.699219 C 247.0625 173.894531 248.746094 179.609375 248.691406 185.851562 C 248.6875 186.457031 248.664062 187.0625 248.625 187.664062 Z M 237.050781 169.839844 C 233.511719 165.550781 229.054688 162.769531 223.679688 161.496094 L 225.058594 155.671875 C 231.738281 157.253906 237.277344 160.707031 241.671875 166.027344 Z M 221.066406 161.027344 C 220.105469 160.90625 219.136719 160.839844 218.164062 160.832031 C 213.652344 160.792969 209.457031 161.898438 205.578125 164.140625 L 202.578125 158.957031 C 207.402344 156.167969 212.613281 154.796875 218.214844 154.847656 C 219.421875 154.855469 220.621094 154.9375 221.8125 155.085938 Z M 203.339844 165.601562 C 198.855469 168.882812 195.820312 173.171875 194.234375 178.460938 L 188.5 176.738281 C 190.472656 170.167969 194.238281 164.84375 199.804688 160.769531 Z M 193.605469 181.058594 C 193.34375 182.480469 193.207031 183.917969 193.195312 185.375 C 193.160156 189.375 194.035156 193.148438 195.820312 196.695312 L 190.46875 199.386719 C 188.253906 194.976562 187.164062 190.289062 187.207031 185.324219 C 187.222656 183.519531 187.394531 181.734375 187.71875 179.972656 Z M 197.144531 199.011719 C 200.160156 203.675781 204.265625 206.953125 209.457031 208.851562 L 207.402344 214.476562 C 200.953125 212.121094 195.859375 208.046875 192.117188 202.261719 Z M 212.015625 209.628906 C 213.886719 210.089844 215.792969 210.328125 217.738281 210.34375 L 217.6875 216.332031 C 215.277344 216.308594 212.910156 216.015625 210.585938 215.445312 Z M 212.015625 209.628906 " fill-opacity="1" fill-rule="nonzero"/></g></g></g></g><g clip-path="url(#ffacd7f498)"><g clip-path="url(#751af53caf)"><g clip-path="url(#d17fe12906)"><path fill="#ffde59" d="M 140.371094 130.292969 L 91.996094 157.742188 L 64.546875 109.367188 L 112.921875 81.917969 Z M 140.371094 130.292969 " fill-opacity="1" fill-rule="nonzero"/></g></g></g><g clip-path="url(#0b1c6c55d1)"><g clip-path="url(#8a3f8d4e64)"><g clip-path="url(#486c78e509)"><g clip-path="url(#6e22709f7b)"><path fill="#000000" d="M 114.761719 141.386719 C 119.589844 138.644531 123.097656 134.730469 125.28125 129.640625 L 130.785156 132.003906 C 128.070312 138.324219 123.714844 143.1875 117.714844 146.59375 Z M 126.203125 127.132812 C 127.835938 121.820312 127.703125 116.570312 125.808594 111.382812 L 131.433594 109.328125 C 133.789062 115.773438 133.953125 122.296875 131.925781 128.890625 Z M 124.757812 108.929688 C 124.542969 108.492188 124.316406 108.0625 124.074219 107.636719 C 121.59375 103.265625 118.113281 99.957031 113.640625 97.71875 L 116.316406 92.367188 C 121.878906 95.148438 126.199219 99.253906 129.28125 104.679688 C 129.578125 105.207031 129.863281 105.742188 130.128906 106.285156 Z M 111.183594 96.652344 C 105.972656 94.714844 100.722656 94.542969 95.433594 96.132812 L 93.707031 90.398438 C 100.28125 88.421875 106.800781 88.636719 113.273438 91.042969 Z M 92.933594 97.035156 C 92.042969 97.410156 91.171875 97.839844 90.324219 98.320312 C 86.402344 100.546875 83.324219 103.605469 81.089844 107.488281 L 75.898438 104.503906 C 78.675781 99.675781 82.5 95.878906 87.371094 93.113281 C 88.417969 92.519531 89.496094 91.988281 90.601562 91.519531 Z M 79.882812 109.875 C 77.648438 114.960938 77.167969 120.191406 78.445312 125.5625 L 72.621094 126.949219 C 71.035156 120.273438 71.628906 113.777344 74.402344 107.464844 Z M 79.203125 128.128906 C 79.6875 129.488281 80.292969 130.804688 81.011719 132.070312 C 82.984375 135.550781 85.632812 138.378906 88.949219 140.550781 L 85.667969 145.558594 C 81.542969 142.855469 78.253906 139.34375 75.804688 135.027344 C 74.910156 133.457031 74.164062 131.824219 73.566406 130.136719 Z M 91.257812 141.890625 C 96.203125 144.417969 101.398438 145.199219 106.84375 144.242188 L 107.882812 150.136719 C 101.121094 151.328125 94.671875 150.359375 88.535156 147.222656 Z M 109.449219 143.632812 C 111.296875 143.09375 113.066406 142.34375 114.761719 141.386719 L 117.714844 146.59375 C 115.617188 147.78125 113.421875 148.710938 111.125 149.382812 Z M 109.449219 143.632812 " fill-opacity="1" fill-rule="nonzero"/></g></g></g></g><g clip-path="url(#7c9394f7e8)"><g clip-path="url(#2a2581821b)"><g clip-path="url(#ec6ac62e71)"><path fill="#707070" d="M 102.375 261.0625 L 90.34375 253.984375 L 97.421875 241.953125 L 109.453125 249.03125 Z M 102.375 261.0625 " fill-opacity="1" fill-rule="nonzero"/></g></g></g><g clip-path="url(#df1cbcf76f)"><g clip-path="url(#1acb21927b)"><g clip-path="url(#272c542f7d)"><path fill="#707070" d="M 210.855469 192.449219 L 210.976562 178.488281 L 224.933594 178.609375 L 224.816406 192.566406 Z M 210.855469 192.449219 " fill-opacity="1" fill-rule="nonzero"/></g></g></g><g clip-path="url(#c9113530e7)"><g clip-path="url(#64f61f40ea)"><g clip-path="url(#5d303ee0d7)"><path fill="#707070" d="M 104.046875 129.914062 L 92.015625 122.835938 L 99.09375 110.804688 L 111.125 117.882812 Z M 104.046875 129.914062 " fill-opacity="1" fill-rule="nonzero"/></g></g></g><g clip-path="url(#0f359b5592)"><g clip-path="url(#f627499b17)"><g clip-path="url(#fb61e8341e)"><g clip-path="url(#6c56e1ca7e)"><path fill="#ffffff" d="M 83.148438 206.234375 C 83.117188 206.261719 83.082031 206.269531 83.039062 206.257812 C 82.9375 206.359375 83.039062 206.570312 82.84375 206.621094 C 82.550781 206.964844 82.214844 206.871094 81.875 206.707031 C 80.929688 206.25 80.078125 205.652344 79.265625 205 C 76.351562 202.660156 74.070312 199.828125 72.273438 196.566406 C 69.132812 190.871094 68.273438 184.804688 69.074219 178.445312 C 69.445312 175.5 70.328125 172.671875 71.347656 169.882812 C 71.945312 168.242188 72.640625 166.644531 73.296875 165.03125 C 73.34375 164.980469 73.394531 164.9375 73.445312 164.886719 C 73.441406 164.8125 73.460938 164.722656 73.425781 164.664062 C 73.425781 164.664062 73.425781 164.664062 73.425781 164.660156 C 73.398438 164.613281 73.332031 164.652344 73.308594 164.710938 C 72.714844 165.0625 72.214844 165.527344 71.742188 166.015625 C 71.417969 166.347656 71.078125 166.648438 70.648438 166.847656 C 69.957031 167.570312 69.160156 167.660156 68.417969 167.121094 C 68.988281 165.214844 70.382812 163.96875 71.902344 162.8125 C 72.46875 162.382812 73.003906 161.917969 73.546875 161.460938 C 74.839844 160.363281 74.714844 160.59375 76.027344 161.039062 C 76.320312 161.136719 76.585938 161.304688 76.832031 161.492188 C 76.925781 161.5625 77 161.636719 77.011719 161.757812 C 77.339844 161.886719 77.367188 162.179688 77.378906 162.46875 C 77.414062 163.320312 77.441406 164.167969 77.46875 165.019531 C 77.582031 165.191406 77.566406 165.378906 77.542969 165.566406 C 77.664062 165.730469 77.644531 165.921875 77.636719 166.109375 C 77.738281 166.210938 77.714844 166.355469 77.742188 166.480469 C 78.125 168.183594 78.699219 169.820312 79.550781 171.355469 C 79.617188 171.472656 79.667969 171.589844 79.730469 171.710938 C 79.800781 171.847656 79.882812 172.007812 79.753906 172.132812 C 79.65625 172.230469 79.464844 172.21875 79.375 172.148438 C 78.960938 171.84375 78.425781 171.835938 78.003906 171.574219 C 77.8125 171.457031 77.691406 171.273438 77.566406 171.085938 C 76.605469 169.636719 75.933594 168.0625 75.421875 166.414062 C 75.375 166.265625 75.351562 166.109375 75.277344 165.976562 C 75.191406 165.820312 75.058594 165.878906 74.941406 165.96875 C 74.976562 166.140625 74.917969 166.269531 74.769531 166.363281 C 74.769531 166.527344 74.757812 166.683594 74.59375 166.78125 C 74.617188 166.820312 74.605469 166.847656 74.5625 166.863281 C 74.570312 167.015625 74.550781 167.164062 74.402344 167.257812 C 74.382812 167.367188 74.378906 167.476562 74.339844 167.578125 C 73.929688 168.691406 73.5 169.792969 73.101562 170.910156 C 72.738281 171.921875 72.410156 172.945312 72.066406 173.964844 C 72.007812 174.246094 71.960938 174.527344 71.894531 174.800781 C 71.246094 177.488281 70.933594 180.210938 71.035156 182.972656 C 71.070312 183.960938 71.136719 184.945312 71.191406 185.929688 C 71.3125 186.105469 71.285156 186.300781 71.261719 186.5 C 71.382812 186.664062 71.359375 186.851562 71.339844 187.039062 C 71.464844 187.191406 71.429688 187.367188 71.425781 187.542969 C 71.519531 187.636719 71.523438 187.746094 71.492188 187.863281 C 71.523438 187.898438 71.527344 187.9375 71.503906 187.980469 C 71.605469 188.082031 71.585938 188.222656 71.617188 188.347656 C 71.773438 188.957031 71.820312 189.59375 72.054688 190.1875 C 72.007812 190.246094 71.996094 190.429688 71.882812 190.214844 C 71.808594 190.074219 71.761719 190.070312 71.730469 190.113281 C 71.699219 190.148438 71.679688 190.222656 71.65625 190.277344 C 72.214844 192.195312 73 194.019531 73.910156 195.796875 C 74.007812 195.953125 74.109375 196.113281 74.207031 196.269531 C 74.804688 197.207031 75.398438 198.148438 75.992188 199.085938 C 76.035156 199.101562 76.066406 199.125 76.085938 199.160156 C 76.097656 199.183594 76.105469 199.210938 76.109375 199.238281 C 76.179688 199.265625 76.214844 199.316406 76.21875 199.390625 C 76.292969 199.414062 76.328125 199.464844 76.332031 199.539062 C 76.40625 199.5625 76.441406 199.613281 76.445312 199.691406 C 76.519531 199.714844 76.558594 199.761719 76.558594 199.839844 C 76.636719 199.859375 76.671875 199.910156 76.675781 199.988281 C 76.75 200.007812 76.789062 200.054688 76.789062 200.132812 L 76.792969 200.136719 C 76.832031 200.179688 76.871094 200.226562 76.910156 200.277344 L 76.914062 200.28125 C 76.988281 200.300781 77.027344 200.347656 77.027344 200.421875 L 77.03125 200.429688 C 77.105469 200.445312 77.144531 200.492188 77.148438 200.570312 L 77.152344 200.574219 C 77.152344 200.574219 77.15625 200.574219 77.15625 200.574219 C 77.15625 200.574219 77.152344 200.574219 77.152344 200.574219 C 77.230469 200.589844 77.269531 200.640625 77.269531 200.714844 L 77.273438 200.71875 C 77.347656 200.734375 77.386719 200.785156 77.390625 200.859375 L 77.390625 200.863281 C 77.46875 200.878906 77.507812 200.929688 77.515625 201.003906 C 77.914062 201.421875 78.316406 201.835938 78.714844 202.253906 C 78.855469 202.535156 79.109375 202.71875 79.332031 202.925781 C 79.367188 202.914062 79.394531 202.894531 79.414062 202.875 C 79.453125 202.84375 79.476562 202.800781 79.488281 202.75 C 79.671875 202.886719 79.867188 203.015625 79.972656 203.226562 C 80 203.296875 80.035156 203.359375 80.097656 203.40625 C 80.054688 203.347656 80.011719 203.289062 79.972656 203.226562 C 80.042969 203.261719 80.101562 203.300781 80.097656 203.382812 C 80.210938 203.394531 80.285156 203.460938 80.335938 203.5625 C 80.414062 203.570312 80.460938 203.601562 80.472656 203.679688 C 80.542969 203.707031 80.601562 203.746094 80.617188 203.824219 C 80.65625 203.832031 80.683594 203.851562 80.703125 203.886719 C 80.90625 203.992188 81.078125 204.132812 81.214844 204.316406 C 81.355469 204.394531 81.5 204.472656 81.582031 204.621094 C 81.691406 204.640625 81.753906 204.71875 81.824219 204.792969 C 82.375 205.113281 82.863281 205.53125 83.503906 205.761719 C 83.332031 205.925781 83.382812 206.179688 83.148438 206.234375 Z M 74.433594 166.847656 C 74.433594 166.851562 74.433594 166.851562 74.433594 166.851562 C 74.429688 166.851562 74.429688 166.851562 74.429688 166.851562 C 74.429688 166.851562 74.433594 166.855469 74.433594 166.855469 C 74.433594 166.855469 74.433594 166.851562 74.433594 166.851562 C 74.433594 166.851562 74.4375 166.851562 74.4375 166.855469 C 74.4375 166.851562 74.433594 166.851562 74.433594 166.847656 Z M 76.964844 200.921875 C 76.953125 200.914062 76.941406 200.902344 76.929688 200.894531 C 76.933594 200.898438 76.933594 200.902344 76.9375 200.902344 C 76.945312 200.914062 76.953125 200.925781 76.960938 200.933594 C 76.960938 200.933594 76.960938 200.929688 76.964844 200.921875 Z M 75.992188 199.097656 C 75.988281 199.101562 75.980469 199.105469 75.980469 199.109375 L 75.96875 199.121094 L 75.992188 199.097656 C 75.992188 199.097656 75.992188 199.097656 75.996094 199.097656 C 75.992188 199.097656 75.992188 199.097656 75.992188 199.097656 Z M 76.945312 200.988281 C 76.949219 200.972656 76.957031 200.953125 76.960938 200.9375 C 76.953125 200.925781 76.945312 200.917969 76.9375 200.90625 C 76.949219 200.929688 76.953125 200.957031 76.945312 200.988281 Z M 76.878906 200.84375 C 76.871094 200.832031 76.859375 200.820312 76.851562 200.8125 C 76.847656 200.8125 76.847656 200.808594 76.847656 200.808594 C 76.859375 200.820312 76.871094 200.832031 76.878906 200.84375 Z M 81.964844 205.996094 C 81.964844 206 81.964844 206 81.964844 206 C 81.964844 206 81.96875 206.003906 81.96875 206.003906 C 81.96875 206.003906 81.972656 206.003906 81.972656 206.003906 C 81.972656 206 81.96875 206 81.964844 205.996094 Z M 81.71875 205.851562 C 81.714844 205.851562 81.710938 205.851562 81.710938 205.851562 C 81.714844 205.851562 81.71875 205.851562 81.71875 205.851562 Z M 80.117188 203.515625 C 80.113281 203.53125 80.105469 203.542969 80.097656 203.554688 C 80.105469 203.554688 80.113281 203.558594 80.125 203.558594 C 80.121094 203.542969 80.121094 203.53125 80.117188 203.515625 Z M 80.53125 203.796875 C 80.546875 203.816406 80.570312 203.828125 80.597656 203.835938 C 80.597656 203.835938 80.597656 203.835938 80.597656 203.832031 C 80.570312 203.824219 80.550781 203.8125 80.53125 203.796875 Z M 80.53125 203.796875 " fill-opacity="1" fill-rule="nonzero"/></g></g></g></g><g clip-path="url(#af393f2e44)"><g clip-path="url(#d5c889995a)"><g clip-path="url(#1524e25f07)"><g clip-path="url(#e46ad43b36)"><path fill="#ffffff" d="M 76.914062 200.285156 C 76.875 200.238281 76.835938 200.191406 76.796875 200.144531 C 76.871094 200.164062 76.910156 200.210938 76.914062 200.285156 Z M 76.914062 200.285156 " fill-opacity="1" fill-rule="nonzero"/></g></g></g></g><g clip-path="url(#4419166db4)"><g clip-path="url(#253d6c4172)"><g clip-path="url(#d0c5245a80)"><g clip-path="url(#6e2d9921e4)"><path fill="#ffffff" d="M 149.925781 120.539062 C 149.921875 120.5 149.9375 120.464844 149.972656 120.441406 C 149.945312 120.296875 149.714844 120.261719 149.789062 120.066406 C 149.675781 119.628906 149.945312 119.410156 150.273438 119.226562 C 151.191406 118.71875 152.171875 118.367188 153.175781 118.078125 C 156.761719 117.042969 160.390625 116.804688 164.09375 117.210938 C 170.558594 117.921875 176.015625 120.714844 180.753906 125.027344 C 182.949219 127.027344 184.753906 129.378906 186.449219 131.8125 C 187.445312 133.246094 188.351562 134.734375 189.292969 136.203125 C 189.304688 136.269531 189.3125 136.335938 189.324219 136.40625 C 189.390625 136.445312 189.449219 136.511719 189.519531 136.519531 C 189.574219 136.523438 189.582031 136.449219 189.546875 136.394531 C 189.601562 135.707031 189.511719 135.03125 189.382812 134.363281 C 189.296875 133.90625 189.246094 133.457031 189.332031 132.992188 C 189.136719 132.007812 189.523438 131.304688 190.390625 131.007812 C 191.621094 132.574219 191.839844 134.429688 191.90625 136.339844 C 191.933594 137.046875 192.007812 137.753906 192.070312 138.460938 C 192.21875 140.152344 192.101562 139.914062 190.984375 140.734375 C 190.734375 140.917969 190.445312 141.039062 190.148438 141.128906 C 190.039062 141.164062 189.9375 141.183594 189.832031 141.125 C 189.535156 141.316406 189.28125 141.171875 189.039062 141.015625 C 188.320312 140.554688 187.613281 140.085938 186.898438 139.621094 C 186.695312 139.613281 186.550781 139.496094 186.410156 139.367188 C 186.207031 139.371094 186.0625 139.246094 185.914062 139.128906 C 185.769531 139.15625 185.667969 139.054688 185.546875 139.003906 C 183.933594 138.335938 182.265625 137.863281 180.519531 137.675781 C 180.390625 137.660156 180.261719 137.636719 180.128906 137.617188 C 179.972656 137.59375 179.796875 137.570312 179.769531 137.394531 C 179.746094 137.257812 179.863281 137.109375 179.972656 137.074219 C 180.460938 136.914062 180.777344 136.480469 181.234375 136.285156 C 181.4375 136.199219 181.660156 136.203125 181.882812 136.207031 C 183.621094 136.257812 185.296875 136.613281 186.9375 137.144531 C 187.085938 137.191406 187.226562 137.261719 187.378906 137.277344 C 187.554688 137.296875 187.585938 137.152344 187.578125 137.007812 C 187.417969 136.9375 187.347656 136.8125 187.355469 136.640625 C 187.222656 136.546875 187.097656 136.445312 187.117188 136.253906 C 187.070312 136.25 187.054688 136.226562 187.066406 136.183594 C 186.933594 136.101562 186.828125 136 186.835938 135.824219 C 186.757812 135.746094 186.671875 135.679688 186.609375 135.589844 C 185.9375 134.613281 185.28125 133.625 184.597656 132.65625 C 183.976562 131.777344 183.332031 130.917969 182.695312 130.054688 C 182.5 129.84375 182.296875 129.644531 182.109375 129.429688 C 180.285156 127.355469 178.238281 125.53125 175.921875 124.023438 C 175.09375 123.484375 174.253906 122.972656 173.414062 122.453125 C 173.199219 122.449219 173.058594 122.3125 172.910156 122.179688 C 172.703125 122.183594 172.5625 122.058594 172.421875 121.933594 C 172.226562 121.949219 172.101562 121.820312 171.960938 121.714844 C 171.832031 121.738281 171.738281 121.675781 171.660156 121.585938 C 171.613281 121.589844 171.582031 121.570312 171.558594 121.527344 C 171.414062 121.550781 171.3125 121.453125 171.195312 121.40625 C 170.601562 121.183594 170.054688 120.855469 169.4375 120.703125 C 169.414062 120.632812 169.273438 120.519531 169.511719 120.550781 C 169.671875 120.570312 169.699219 120.535156 169.683594 120.484375 C 169.671875 120.4375 169.621094 120.378906 169.589844 120.328125 C 167.703125 119.683594 165.757812 119.273438 163.78125 118.996094 C 163.597656 118.984375 163.410156 118.976562 163.222656 118.964844 C 162.113281 118.914062 161.003906 118.859375 159.894531 118.804688 C 159.855469 118.832031 159.816406 118.84375 159.777344 118.839844 C 159.75 118.835938 159.726562 118.824219 159.699219 118.8125 C 159.640625 118.855469 159.574219 118.855469 159.511719 118.816406 C 159.453125 118.859375 159.390625 118.859375 159.328125 118.820312 C 159.265625 118.867188 159.203125 118.867188 159.136719 118.824219 C 159.078125 118.875 159.015625 118.878906 158.949219 118.835938 C 158.890625 118.882812 158.828125 118.886719 158.765625 118.84375 L 158.761719 118.84375 C 158.703125 118.894531 158.640625 118.898438 158.578125 118.855469 L 158.574219 118.855469 C 158.515625 118.863281 158.453125 118.867188 158.390625 118.867188 L 158.386719 118.867188 C 158.328125 118.917969 158.269531 118.925781 158.203125 118.882812 L 158.195312 118.882812 C 158.140625 118.933594 158.078125 118.9375 158.015625 118.894531 L 158.007812 118.894531 C 158.007812 118.894531 158.003906 118.898438 158.003906 118.898438 C 158.003906 118.898438 158.007812 118.894531 158.007812 118.894531 C 157.949219 118.949219 157.890625 118.953125 157.824219 118.910156 L 157.820312 118.910156 C 157.761719 118.964844 157.703125 118.96875 157.636719 118.925781 L 157.632812 118.925781 C 157.574219 118.976562 157.511719 118.984375 157.449219 118.945312 C 156.875 119.03125 156.304688 119.121094 155.734375 119.207031 C 155.421875 119.160156 155.128906 119.265625 154.832031 119.324219 C 154.820312 119.359375 154.820312 119.390625 154.824219 119.421875 C 154.828125 119.472656 154.847656 119.515625 154.886719 119.554688 C 154.667969 119.625 154.453125 119.710938 154.214844 119.675781 C 154.144531 119.65625 154.070312 119.652344 154 119.675781 C 154.070312 119.675781 154.140625 119.671875 154.214844 119.675781 C 154.148438 119.710938 154.082031 119.738281 154.015625 119.6875 C 153.941406 119.773438 153.84375 119.796875 153.730469 119.78125 C 153.683594 119.839844 153.625 119.859375 153.558594 119.820312 C 153.496094 119.867188 153.429688 119.890625 153.355469 119.859375 C 153.328125 119.886719 153.296875 119.898438 153.253906 119.894531 C 153.050781 120 152.839844 120.058594 152.609375 120.066406 C 152.464844 120.132812 152.316406 120.207031 152.148438 120.191406 C 152.070312 120.269531 151.96875 120.273438 151.871094 120.285156 C 151.289062 120.550781 150.667969 120.710938 150.113281 121.105469 C 150.074219 120.867188 149.839844 120.765625 149.925781 120.539062 Z M 187.152344 136.082031 C 187.152344 136.082031 187.152344 136.082031 187.148438 136.082031 C 187.148438 136.082031 187.152344 136.082031 187.152344 136.082031 C 187.148438 136.082031 187.148438 136.082031 187.148438 136.082031 C 187.148438 136.082031 187.148438 136.085938 187.144531 136.085938 C 187.148438 136.085938 187.148438 136.085938 187.152344 136.082031 Z M 157.832031 118.542969 C 157.847656 118.539062 157.859375 118.535156 157.875 118.53125 C 157.871094 118.53125 157.867188 118.53125 157.863281 118.53125 C 157.851562 118.53125 157.835938 118.53125 157.824219 118.53125 C 157.824219 118.535156 157.828125 118.539062 157.832031 118.542969 Z M 159.882812 118.800781 C 159.886719 118.796875 159.882812 118.796875 159.882812 118.796875 C 159.882812 118.789062 159.882812 118.785156 159.882812 118.78125 L 159.878906 118.765625 L 159.882812 118.796875 C 159.882812 118.800781 159.882812 118.796875 159.878906 118.800781 C 159.882812 118.796875 159.882812 118.800781 159.882812 118.800781 Z M 157.789062 118.488281 C 157.800781 118.503906 157.8125 118.515625 157.820312 118.53125 C 157.835938 118.527344 157.847656 118.527344 157.859375 118.527344 C 157.832031 118.527344 157.808594 118.511719 157.789062 118.488281 Z M 157.945312 118.519531 C 157.960938 118.515625 157.976562 118.515625 157.988281 118.511719 C 157.988281 118.511719 157.992188 118.511719 157.992188 118.511719 C 157.976562 118.515625 157.960938 118.515625 157.945312 118.519531 Z M 150.804688 119.710938 C 150.804688 119.707031 150.800781 119.710938 150.800781 119.707031 C 150.800781 119.707031 150.796875 119.707031 150.796875 119.707031 C 150.796875 119.710938 150.792969 119.710938 150.792969 119.710938 C 150.796875 119.710938 150.800781 119.710938 150.804688 119.710938 Z M 151.0625 119.59375 C 151.066406 119.589844 151.066406 119.585938 151.070312 119.585938 C 151.070312 119.589844 151.0625 119.589844 151.0625 119.59375 Z M 153.894531 119.625 C 153.886719 119.617188 153.878906 119.605469 153.875 119.589844 C 153.871094 119.59375 153.863281 119.601562 153.859375 119.609375 C 153.871094 119.613281 153.882812 119.621094 153.894531 119.625 Z M 153.425781 119.804688 C 153.402344 119.808594 153.378906 119.816406 153.359375 119.835938 C 153.382812 119.820312 153.402344 119.808594 153.425781 119.804688 Z M 153.425781 119.804688 " fill-opacity="1" fill-rule="nonzero"/></g></g></g></g><g clip-path="url(#e2f559893f)"><g clip-path="url(#592f05baa7)"><g clip-path="url(#4f64c71cb3)"><g clip-path="url(#a3c0b79519)"><path fill="#ffffff" d="M 158.382812 118.867188 C 158.441406 118.859375 158.503906 118.859375 158.5625 118.851562 C 158.503906 118.902344 158.445312 118.90625 158.382812 118.867188 Z M 158.382812 118.867188 " fill-opacity="1" fill-rule="nonzero"/></g></g></g></g><g clip-path="url(#f572da7e30)"><g clip-path="url(#f796eea6d1)"><g clip-path="url(#0473b1418e)"><g clip-path="url(#f2ecead15c)"><path fill="#ffffff" d="M 192.53125 227.070312 C 192.570312 227.089844 192.585938 227.125 192.589844 227.164062 C 192.722656 227.226562 192.882812 227.058594 193 227.226562 C 193.421875 227.382812 193.449219 227.730469 193.414062 228.105469 C 193.308594 229.148438 193.039062 230.15625 192.707031 231.144531 C 191.511719 234.683594 189.636719 237.800781 187.191406 240.609375 C 182.925781 245.515625 177.519531 248.40625 171.277344 249.84375 C 168.382812 250.507812 165.421875 250.648438 162.453125 250.652344 C 160.707031 250.65625 158.96875 250.550781 157.226562 250.492188 C 157.164062 250.460938 157.105469 250.429688 157.042969 250.402344 C 156.972656 250.429688 156.882812 250.441406 156.835938 250.492188 C 156.835938 250.492188 156.835938 250.492188 156.835938 250.496094 C 156.800781 250.535156 156.859375 250.585938 156.921875 250.589844 C 157.457031 251.027344 158.0625 251.335938 158.683594 251.613281 C 159.109375 251.800781 159.511719 252.015625 159.839844 252.351562 C 160.761719 252.753906 161.117188 253.472656 160.867188 254.351562 C 158.878906 254.472656 157.230469 253.59375 155.625 252.558594 C 155.027344 252.175781 154.40625 251.835938 153.789062 251.484375 C 152.3125 250.644531 152.574219 250.683594 152.539062 249.296875 C 152.53125 248.988281 152.59375 248.683594 152.691406 248.386719 C 152.722656 248.277344 152.765625 248.179688 152.875 248.128906 C 152.886719 247.773438 153.152344 247.648438 153.417969 247.539062 C 154.203125 247.210938 154.992188 246.894531 155.78125 246.574219 C 155.902344 246.410156 156.085938 246.359375 156.269531 246.316406 C 156.382812 246.148438 156.566406 246.101562 156.746094 246.046875 C 156.808594 245.914062 156.949219 245.886719 157.058594 245.816406 C 158.527344 244.871094 159.867188 243.769531 161.015625 242.441406 C 161.101562 242.34375 161.195312 242.25 161.285156 242.152344 C 161.394531 242.039062 161.515625 241.90625 161.675781 241.984375 C 161.800781 242.042969 161.855469 242.226562 161.824219 242.335938 C 161.675781 242.828125 161.851562 243.332031 161.75 243.820312 C 161.707031 244.039062 161.578125 244.21875 161.445312 244.398438 C 160.414062 245.796875 159.167969 246.972656 157.792969 248.019531 C 157.671875 248.113281 157.53125 248.1875 157.433594 248.304688 C 157.316406 248.4375 157.417969 248.546875 157.542969 248.621094 C 157.691406 248.53125 157.832031 248.542969 157.972656 248.648438 C 158.125 248.59375 158.277344 248.550781 158.421875 248.671875 C 158.453125 248.636719 158.480469 248.636719 158.511719 248.671875 C 158.652344 248.613281 158.796875 248.582031 158.9375 248.683594 C 159.046875 248.667969 159.152344 248.632812 159.257812 248.636719 C 160.445312 248.640625 161.628906 248.664062 162.816406 248.652344 C 163.890625 248.644531 164.964844 248.601562 166.039062 248.574219 C 166.320312 248.53125 166.601562 248.480469 166.882812 248.449219 C 169.628906 248.132812 172.292969 247.492188 174.851562 246.445312 C 175.765625 246.074219 176.667969 245.671875 177.574219 245.28125 C 177.699219 245.109375 177.890625 245.066406 178.085938 245.019531 C 178.203125 244.851562 178.382812 244.808594 178.566406 244.761719 C 178.664062 244.589844 178.84375 244.5625 179.007812 244.503906 C 179.0625 244.386719 179.167969 244.34375 179.285156 244.335938 C 179.308594 244.292969 179.34375 244.277344 179.390625 244.28125 C 179.453125 244.152344 179.59375 244.125 179.699219 244.050781 C 180.21875 243.695312 180.800781 243.433594 181.277344 243.007812 C 181.347656 243.03125 181.523438 242.980469 181.363281 243.15625 C 181.257812 243.277344 181.265625 243.320312 181.320312 243.339844 C 181.363281 243.351562 181.441406 243.347656 181.5 243.347656 C 183.105469 242.164062 184.550781 240.800781 185.90625 239.335938 C 186.019531 239.1875 186.132812 239.042969 186.246094 238.894531 C 186.921875 238.011719 187.601562 237.128906 188.277344 236.25 C 188.277344 236.203125 188.292969 236.164062 188.316406 236.136719 C 188.335938 236.117188 188.355469 236.101562 188.382812 236.089844 C 188.382812 236.011719 188.417969 235.960938 188.484375 235.933594 C 188.484375 235.855469 188.519531 235.804688 188.589844 235.777344 C 188.585938 235.699219 188.621094 235.644531 188.691406 235.617188 C 188.6875 235.539062 188.71875 235.484375 188.792969 235.457031 C 188.785156 235.378906 188.816406 235.328125 188.890625 235.300781 L 188.890625 235.296875 C 188.882812 235.222656 188.917969 235.167969 188.988281 235.140625 L 188.988281 235.136719 C 189.015625 235.085938 189.046875 235.03125 189.082031 234.980469 L 189.085938 234.976562 C 189.078125 234.898438 189.105469 234.847656 189.179688 234.816406 L 189.179688 234.8125 C 189.171875 234.734375 189.203125 234.683594 189.273438 234.652344 L 189.277344 234.648438 C 189.277344 234.648438 189.277344 234.644531 189.277344 234.644531 C 189.277344 234.644531 189.277344 234.648438 189.277344 234.648438 C 189.265625 234.570312 189.296875 234.519531 189.371094 234.488281 L 189.371094 234.484375 C 189.363281 234.410156 189.394531 234.355469 189.464844 234.328125 L 189.464844 234.324219 C 189.457031 234.246094 189.488281 234.191406 189.558594 234.160156 C 189.8125 233.640625 190.0625 233.121094 190.316406 232.601562 C 190.535156 232.375 190.617188 232.074219 190.738281 231.792969 C 190.714844 231.765625 190.6875 231.746094 190.660156 231.730469 C 190.617188 231.710938 190.570312 231.703125 190.515625 231.707031 C 190.585938 231.488281 190.636719 231.261719 190.800781 231.085938 C 190.855469 231.039062 190.902344 230.984375 190.921875 230.910156 C 190.882812 230.96875 190.84375 231.027344 190.800781 231.085938 C 190.808594 231.011719 190.824219 230.941406 190.902344 230.917969 C 190.875 230.804688 190.910156 230.714844 190.988281 230.628906 C 190.96875 230.558594 190.984375 230.5 191.054688 230.464844 C 191.054688 230.386719 191.070312 230.320312 191.140625 230.277344 C 191.132812 230.238281 191.140625 230.207031 191.167969 230.175781 C 191.195312 229.949219 191.269531 229.738281 191.394531 229.546875 C 191.421875 229.386719 191.445312 229.226562 191.554688 229.097656 C 191.535156 228.988281 191.589844 228.902344 191.632812 228.8125 C 191.746094 228.183594 191.972656 227.582031 191.964844 226.902344 C 192.179688 227.007812 192.398438 226.871094 192.53125 227.070312 Z M 158.542969 248.796875 C 158.546875 248.796875 158.546875 248.796875 158.546875 248.796875 C 158.546875 248.796875 158.546875 248.800781 158.546875 248.800781 C 158.546875 248.796875 158.546875 248.796875 158.546875 248.796875 C 158.546875 248.796875 158.546875 248.792969 158.546875 248.792969 C 158.542969 248.792969 158.542969 248.796875 158.542969 248.796875 Z M 189.667969 234.707031 C 189.664062 234.71875 189.660156 234.734375 189.65625 234.746094 C 189.65625 234.746094 189.660156 234.742188 189.660156 234.738281 C 189.667969 234.726562 189.675781 234.71875 189.679688 234.703125 C 189.679688 234.707031 189.675781 234.707031 189.667969 234.707031 Z M 188.289062 236.246094 C 188.296875 236.25 188.300781 236.253906 188.304688 236.253906 L 188.320312 236.261719 L 188.289062 236.246094 C 188.289062 236.246094 188.289062 236.242188 188.289062 236.242188 C 188.289062 236.242188 188.289062 236.246094 188.289062 236.246094 Z M 189.738281 234.703125 C 189.71875 234.703125 189.703125 234.703125 189.683594 234.703125 C 189.679688 234.714844 189.671875 234.726562 189.664062 234.738281 C 189.683594 234.714844 189.707031 234.703125 189.738281 234.703125 Z M 189.625 234.8125 C 189.617188 234.824219 189.609375 234.839844 189.605469 234.851562 C 189.605469 234.851562 189.601562 234.851562 189.605469 234.855469 C 189.609375 234.839844 189.617188 234.824219 189.625 234.8125 Z M 192.714844 228.265625 C 192.714844 228.265625 192.71875 228.265625 192.71875 228.261719 C 192.71875 228.257812 192.71875 228.257812 192.71875 228.253906 C 192.71875 228.257812 192.71875 228.261719 192.714844 228.265625 Z M 192.664062 228.546875 C 192.664062 228.546875 192.667969 228.550781 192.664062 228.554688 C 192.664062 228.550781 192.664062 228.546875 192.664062 228.546875 Z M 191.023438 230.851562 C 191.035156 230.851562 191.050781 230.855469 191.066406 230.859375 C 191.0625 230.851562 191.058594 230.839844 191.058594 230.832031 C 191.046875 230.839844 191.035156 230.847656 191.023438 230.851562 Z M 191.140625 230.367188 C 191.152344 230.347656 191.15625 230.320312 191.15625 230.292969 C 191.15625 230.292969 191.15625 230.292969 191.152344 230.292969 C 191.152344 230.320312 191.152344 230.34375 191.140625 230.367188 Z M 191.140625 230.367188 " fill-opacity="1" fill-rule="nonzero"/></g></g></g></g><g clip-path="url(#96fee51220)"><g clip-path="url(#748d01aa37)"><g clip-path="url(#fc3a58146b)"><g clip-path="url(#919583d163)"><path fill="#ffffff" d="M 189.089844 234.972656 C 189.058594 235.027344 189.027344 235.078125 188.996094 235.128906 C 188.988281 235.050781 189.019531 235 189.089844 234.972656 Z M 189.089844 234.972656 " fill-opacity="1" fill-rule="nonzero"/></g></g></g></g><path stroke-linecap="butt" transform="matrix(0.74987, 0.00605191, -0.00605275, 0.749976, 136.490312, 77.868328)" fill="none" stroke-linejoin="miter" d="M -0.00220402 1.998562 L 223.03636 2.000901 " stroke="#000000" stroke-width="4" stroke-opacity="1" stroke-miterlimit="4"/><path stroke-linecap="butt" transform="matrix(0.750617, -0.00364086, 0.00363783, 0.749991, 135.126205, 291.168432)" fill="none" stroke-linejoin="miter" d="M -0.000887235 1.999401 L 224.814281 2.002221 " stroke="#000000" stroke-width="4" stroke-opacity="1" stroke-miterlimit="4"/><g clip-path="url(#db675586cb)"><path fill="#38b6ff" d="M 266.714844 306.992188 L 275.207031 297.5 C 275.390625 297.296875 275.644531 297.183594 275.910156 297.183594 L 281.574219 297.183594 C 281.945312 297.183594 282.28125 297.402344 282.4375 297.746094 C 282.585938 298.089844 282.523438 298.488281 282.273438 298.765625 L 274.351562 307.628906 L 282.273438 316.484375 C 282.523438 316.765625 282.589844 317.164062 282.4375 317.507812 C 282.28125 317.851562 281.945312 318.070312 281.574219 318.070312 L 275.910156 318.070312 C 275.644531 318.070312 275.390625 317.953125 275.207031 317.757812 L 266.714844 308.261719 C 266.394531 307.902344 266.394531 307.351562 266.714844 306.992188 Z M 266.714844 306.992188 " fill-opacity="1" fill-rule="nonzero"/></g><g clip-path="url(#e9030f6a22)"><path fill="#38b6ff" d="M 278.984375 306.992188 L 287.476562 297.5 C 287.660156 297.296875 287.910156 297.183594 288.179688 297.183594 L 293.839844 297.183594 C 294.214844 297.183594 294.550781 297.402344 294.703125 297.746094 C 294.855469 298.089844 294.792969 298.488281 294.542969 298.765625 L 286.617188 307.628906 L 294.542969 316.484375 C 294.792969 316.765625 294.855469 317.164062 294.703125 317.507812 C 294.550781 317.851562 294.214844 318.070312 293.839844 318.070312 L 288.179688 318.070312 C 287.910156 318.070312 287.660156 317.953125 287.476562 317.757812 L 278.984375 308.261719 C 278.660156 307.902344 278.660156 307.351562 278.984375 306.992188 Z M 278.984375 306.992188 " fill-opacity="1" fill-rule="nonzero"/></g><g clip-path="url(#7dac4c2af6)"><path fill="#5ce1e6" d="M 229.589844 306.992188 L 238.082031 297.5 C 238.265625 297.296875 238.519531 297.183594 238.785156 297.183594 L 244.449219 297.183594 C 244.820312 297.183594 245.15625 297.402344 245.3125 297.746094 C 245.460938 298.089844 245.398438 298.488281 245.148438 298.765625 L 237.226562 307.628906 L 245.148438 316.484375 C 245.398438 316.765625 245.464844 317.164062 245.3125 317.507812 C 245.15625 317.851562 244.820312 318.070312 244.449219 318.070312 L 238.785156 318.070312 C 238.519531 318.070312 238.265625 317.953125 238.082031 317.757812 L 229.589844 308.261719 C 229.269531 307.902344 229.269531 307.351562 229.589844 306.992188 Z M 229.589844 306.992188 " fill-opacity="1" fill-rule="nonzero"/></g><g clip-path="url(#6a196179fa)"><path fill="#5ce1e6" d="M 241.859375 306.992188 L 250.351562 297.5 C 250.535156 297.296875 250.785156 297.183594 251.054688 297.183594 L 256.714844 297.183594 C 257.089844 297.183594 257.425781 297.402344 257.578125 297.746094 C 257.730469 298.089844 257.667969 298.488281 257.417969 298.765625 L 249.492188 307.628906 L 257.417969 316.484375 C 257.667969 316.765625 257.730469 317.164062 257.578125 317.507812 C 257.425781 317.851562 257.089844 318.070312 256.714844 318.070312 L 251.054688 318.070312 C 250.785156 318.070312 250.535156 317.953125 250.351562 317.757812 L 241.859375 308.261719 C 241.535156 307.902344 241.535156 307.351562 241.859375 306.992188 Z M 241.859375 306.992188 " fill-opacity="1" fill-rule="nonzero"/></g><g clip-path="url(#6ae4dd1bb7)"><path fill="#38b6ff" d="M 192.464844 306.992188 L 200.957031 297.5 C 201.140625 297.296875 201.394531 297.183594 201.660156 297.183594 L 207.324219 297.183594 C 207.695312 297.183594 208.03125 297.402344 208.1875 297.746094 C 208.335938 298.089844 208.273438 298.488281 208.023438 298.765625 L 200.101562 307.628906 L 208.023438 316.484375 C 208.273438 316.765625 208.339844 317.164062 208.1875 317.507812 C 208.03125 317.851562 207.695312 318.070312 207.324219 318.070312 L 201.660156 318.070312 C 201.394531 318.070312 201.140625 317.953125 200.957031 317.757812 L 192.464844 308.261719 C 192.144531 307.902344 192.144531 307.351562 192.464844 306.992188 Z M 192.464844 306.992188 " fill-opacity="1" fill-rule="nonzero"/></g><g clip-path="url(#4cfaa5b56f)"><path fill="#38b6ff" d="M 204.734375 306.992188 L 213.226562 297.5 C 213.410156 297.296875 213.660156 297.183594 213.929688 297.183594 L 219.589844 297.183594 C 219.964844 297.183594 220.300781 297.402344 220.453125 297.746094 C 220.605469 298.089844 220.542969 298.488281 220.292969 298.765625 L 212.367188 307.628906 L 220.292969 316.484375 C 220.542969 316.765625 220.605469 317.164062 220.453125 317.507812 C 220.300781 317.851562 219.964844 318.070312 219.589844 318.070312 L 213.929688 318.070312 C 213.660156 318.070312 213.410156 317.953125 213.226562 317.757812 L 204.734375 308.261719 C 204.410156 307.902344 204.410156 307.351562 204.734375 306.992188 Z M 204.734375 306.992188 " fill-opacity="1" fill-rule="nonzero"/></g><g clip-path="url(#d3b9c385df)"><path fill="#38b6ff" d="M 155.339844 306.992188 L 163.832031 297.5 C 164.015625 297.296875 164.269531 297.183594 164.535156 297.183594 L 170.199219 297.183594 C 170.570312 297.183594 170.90625 297.402344 171.0625 297.746094 C 171.210938 298.089844 171.148438 298.488281 170.898438 298.765625 L 162.976562 307.628906 L 170.898438 316.484375 C 171.148438 316.765625 171.214844 317.164062 171.0625 317.507812 C 170.90625 317.851562 170.570312 318.070312 170.199219 318.070312 L 164.535156 318.070312 C 164.269531 318.070312 164.015625 317.953125 163.832031 317.757812 L 155.339844 308.261719 C 155.019531 307.902344 155.019531 307.351562 155.339844 306.992188 Z M 155.339844 306.992188 " fill-opacity="1" fill-rule="nonzero"/></g><g clip-path="url(#f1eb5e4d49)"><path fill="#38b6ff" d="M 167.609375 306.992188 L 176.101562 297.5 C 176.285156 297.296875 176.535156 297.183594 176.804688 297.183594 L 182.464844 297.183594 C 182.839844 297.183594 183.175781 297.402344 183.328125 297.746094 C 183.480469 298.089844 183.417969 298.488281 183.167969 298.765625 L 175.242188 307.628906 L 183.167969 316.484375 C 183.417969 316.765625 183.480469 317.164062 183.328125 317.507812 C 183.175781 317.851562 182.839844 318.070312 182.464844 318.070312 L 176.804688 318.070312 C 176.535156 318.070312 176.285156 317.953125 176.101562 317.757812 L 167.609375 308.261719 C 167.285156 307.902344 167.285156 307.351562 167.609375 306.992188 Z M 167.609375 306.992188 " fill-opacity="1" fill-rule="nonzero"/></g><g clip-path="url(#cc0e58bfe4)"><g clip-path="url(#95a21efe63)"><g clip-path="url(#ab3b0d4e8b)"><path fill="#38b6ff" d="M 118.210938 307.242188 L 126.535156 297.597656 C 126.710938 297.394531 126.960938 297.273438 127.230469 297.269531 L 132.890625 297.171875 C 133.261719 297.164062 133.605469 297.378906 133.765625 297.714844 C 133.921875 298.058594 133.867188 298.460938 133.621094 298.742188 L 125.855469 307.738281 L 133.933594 316.457031 C 134.1875 316.730469 134.261719 317.128906 134.113281 317.476562 C 133.964844 317.820312 133.632812 318.046875 133.261719 318.054688 L 127.597656 318.152344 C 127.332031 318.160156 127.078125 318.046875 126.890625 317.851562 L 118.230469 308.511719 C 117.902344 308.15625 117.894531 307.605469 118.210938 307.242188 Z M 118.210938 307.242188 " fill-opacity="1" fill-rule="nonzero"/></g></g></g><g clip-path="url(#8ad6a93aa3)"><g clip-path="url(#55bffedc0c)"><g clip-path="url(#4a0ff80241)"><path fill="#38b6ff" d="M 130.476562 307.023438 L 138.800781 297.382812 C 138.976562 297.175781 139.230469 297.058594 139.496094 297.054688 L 145.15625 296.953125 C 145.53125 296.945312 145.871094 297.160156 146.03125 297.5 C 146.1875 297.839844 146.132812 298.242188 145.886719 298.523438 L 138.121094 307.523438 L 146.203125 316.238281 C 146.457031 316.515625 146.527344 316.914062 146.378906 317.257812 C 146.234375 317.605469 145.898438 317.832031 145.527344 317.835938 L 139.867188 317.9375 C 139.597656 317.941406 139.34375 317.832031 139.160156 317.636719 L 130.5 308.292969 C 130.167969 307.9375 130.160156 307.386719 130.476562 307.023438 Z M 130.476562 307.023438 " fill-opacity="1" fill-rule="nonzero"/></g></g></g><g clip-path="url(#f28f27a8c9)"><g clip-path="url(#0a636e5cf9)"><g clip-path="url(#878a8e711f)"><path fill="#5ce1e6" d="M 75.855469 286.085938 L 88.128906 282.679688 C 88.390625 282.609375 88.664062 282.648438 88.890625 282.796875 L 93.65625 285.851562 C 93.96875 286.050781 94.132812 286.421875 94.078125 286.789062 C 94.019531 287.160156 93.75 287.464844 93.390625 287.5625 L 81.9375 290.742188 L 83.828125 302.476562 C 83.886719 302.847656 83.722656 303.21875 83.410156 303.425781 C 83.097656 303.632812 82.691406 303.632812 82.378906 303.433594 L 77.613281 300.375 C 77.386719 300.230469 77.238281 299.996094 77.191406 299.734375 L 75.167969 287.15625 C 75.089844 286.679688 75.386719 286.214844 75.855469 286.085938 Z M 75.855469 286.085938 " fill-opacity="1" fill-rule="nonzero"/></g></g></g><g clip-path="url(#cc5d4e0250)"><g clip-path="url(#aa2f95802d)"><g clip-path="url(#eefb525860)"><path fill="#5ce1e6" d="M 86.179688 292.710938 L 98.457031 289.304688 C 98.714844 289.234375 98.992188 289.273438 99.214844 289.417969 L 103.984375 292.476562 C 104.296875 292.675781 104.460938 293.042969 104.40625 293.414062 C 104.347656 293.785156 104.078125 294.089844 103.71875 294.1875 L 92.265625 297.367188 L 94.152344 309.101562 C 94.210938 309.46875 94.050781 309.84375 93.738281 310.046875 C 93.421875 310.253906 93.019531 310.257812 92.707031 310.058594 L 87.941406 307 C 87.714844 306.855469 87.5625 306.621094 87.519531 306.355469 L 85.496094 293.78125 C 85.417969 293.300781 85.714844 292.839844 86.179688 292.710938 Z M 86.179688 292.710938 " fill-opacity="1" fill-rule="nonzero"/></g></g></g><g clip-path="url(#e555f00e35)"><g clip-path="url(#a44bbad327)"><g clip-path="url(#18d3bbba3a)"><path fill="#38b6ff" d="M 41.28125 262.910156 L 53.984375 261.964844 C 54.253906 261.945312 54.515625 262.039062 54.707031 262.222656 L 58.785156 266.152344 C 59.054688 266.410156 59.144531 266.800781 59.015625 267.15625 C 58.886719 267.507812 58.566406 267.753906 58.191406 267.777344 L 46.339844 268.664062 L 45.902344 280.539062 C 45.886719 280.914062 45.65625 281.246094 45.308594 281.386719 C 44.960938 281.53125 44.566406 281.453125 44.296875 281.195312 L 40.21875 277.269531 C 40.027344 277.082031 39.921875 276.824219 39.929688 276.554688 L 40.398438 263.824219 C 40.417969 263.339844 40.796875 262.945312 41.28125 262.910156 Z M 41.28125 262.910156 " fill-opacity="1" fill-rule="nonzero"/></g></g></g><g clip-path="url(#72c297bad8)"><g clip-path="url(#f17d1431f6)"><g clip-path="url(#4468263d10)"><path fill="#38b6ff" d="M 50.117188 271.421875 L 62.820312 270.472656 C 63.089844 270.453125 63.351562 270.546875 63.542969 270.734375 L 67.621094 274.660156 C 67.890625 274.917969 67.980469 275.3125 67.855469 275.664062 C 67.722656 276.015625 67.402344 276.261719 67.03125 276.289062 L 55.175781 277.171875 L 54.738281 289.050781 C 54.726562 289.425781 54.492188 289.757812 54.144531 289.898438 C 53.796875 290.039062 53.402344 289.964844 53.132812 289.707031 L 49.054688 285.777344 C 48.863281 285.59375 48.761719 285.332031 48.765625 285.066406 L 49.234375 272.335938 C 49.253906 271.851562 49.636719 271.453125 50.117188 271.421875 Z M 50.117188 271.421875 " fill-opacity="1" fill-rule="nonzero"/></g></g></g><g clip-path="url(#796f7ee4b2)"><g clip-path="url(#b537aa9a13)"><g clip-path="url(#39586de8af)"><path fill="#38b6ff" d="M 22.734375 226.0625 L 35.210938 228.632812 C 35.476562 228.6875 35.699219 228.851562 35.835938 229.082031 L 38.679688 233.976562 C 38.867188 234.296875 38.847656 234.703125 38.628906 235.003906 C 38.40625 235.308594 38.03125 235.457031 37.664062 235.378906 L 26.023438 232.980469 L 22.347656 244.285156 C 22.230469 244.640625 21.917969 244.898438 21.542969 244.9375 C 21.171875 244.976562 20.808594 244.796875 20.625 244.472656 L 17.777344 239.578125 C 17.644531 239.347656 17.617188 239.070312 17.695312 238.8125 L 21.636719 226.699219 C 21.785156 226.238281 22.261719 225.960938 22.734375 226.0625 Z M 22.734375 226.0625 " fill-opacity="1" fill-rule="nonzero"/></g></g></g><g clip-path="url(#1ef0c13c70)"><g clip-path="url(#ec0976aa46)"><g clip-path="url(#786caae301)"><path fill="#38b6ff" d="M 28.898438 236.667969 L 41.375 239.238281 C 41.640625 239.296875 41.867188 239.457031 42 239.6875 L 44.847656 244.582031 C 45.035156 244.90625 45.011719 245.308594 44.792969 245.613281 C 44.574219 245.914062 44.195312 246.0625 43.832031 245.984375 L 32.1875 243.585938 L 28.511719 254.890625 C 28.394531 255.246094 28.082031 255.503906 27.710938 255.542969 C 27.335938 255.582031 26.976562 255.402344 26.789062 255.082031 L 23.941406 250.183594 C 23.808594 249.953125 23.78125 249.675781 23.859375 249.421875 L 27.800781 237.304688 C 27.949219 236.847656 28.425781 236.570312 28.898438 236.667969 Z M 28.898438 236.667969 " fill-opacity="1" fill-rule="nonzero"/></g></g></g><g clip-path="url(#e3755859de)"><path fill="#38b6ff" d="M 20.015625 172.027344 L 29.507812 180.519531 C 29.710938 180.699219 29.824219 180.953125 29.824219 181.222656 L 29.824219 186.882812 C 29.824219 187.257812 29.605469 187.59375 29.261719 187.746094 C 28.917969 187.898438 28.515625 187.835938 28.242188 187.585938 L 19.378906 179.660156 L 10.523438 187.585938 C 10.242188 187.835938 9.84375 187.898438 9.5 187.746094 C 9.15625 187.59375 8.9375 187.257812 8.9375 186.882812 L 8.9375 181.222656 C 8.9375 180.953125 9.050781 180.699219 9.25 180.519531 L 18.746094 172.027344 C 19.105469 171.703125 19.65625 171.703125 20.015625 172.027344 Z M 20.015625 172.027344 " fill-opacity="1" fill-rule="nonzero"/></g><g clip-path="url(#6e242c536f)"><path fill="#38b6ff" d="M 20.015625 184.292969 L 29.507812 192.789062 C 29.710938 192.96875 29.824219 193.222656 29.824219 193.488281 L 29.824219 199.152344 C 29.824219 199.523438 29.605469 199.863281 29.261719 200.015625 C 28.917969 200.164062 28.515625 200.105469 28.242188 199.855469 L 19.378906 191.929688 L 10.523438 199.855469 C 10.242188 200.105469 9.84375 200.167969 9.5 200.015625 C 9.15625 199.863281 8.9375 199.523438 8.9375 199.152344 L 8.9375 193.488281 C 8.9375 193.222656 9.050781 192.96875 9.25 192.789062 L 18.746094 184.292969 C 19.105469 183.972656 19.65625 183.972656 20.015625 184.292969 Z M 20.015625 184.292969 " fill-opacity="1" fill-rule="nonzero"/></g><g clip-path="url(#f65b3949ac)"><g clip-path="url(#c1e340f96d)"><g clip-path="url(#147fa48253)"><path fill="#5ce1e6" d="M 38.21875 122.101562 L 41.183594 134.492188 C 41.246094 134.753906 41.195312 135.027344 41.042969 135.246094 L 37.816406 139.902344 C 37.605469 140.207031 37.230469 140.359375 36.863281 140.289062 C 36.496094 140.21875 36.203125 139.941406 36.117188 139.578125 L 33.347656 128.015625 L 21.554688 129.484375 C 21.183594 129.53125 20.816406 129.355469 20.621094 129.035156 C 20.425781 128.714844 20.4375 128.308594 20.648438 128.003906 L 23.875 123.351562 C 24.027344 123.128906 24.269531 122.988281 24.53125 122.953125 L 37.175781 121.378906 C 37.65625 121.320312 38.105469 121.632812 38.21875 122.101562 Z M 38.21875 122.101562 " fill-opacity="1" fill-rule="nonzero"/></g></g></g><g clip-path="url(#466661fbd9)"><g clip-path="url(#7353893afd)"><g clip-path="url(#47d4965f6f)"><path fill="#5ce1e6" d="M 31.230469 132.1875 L 34.195312 144.574219 C 34.257812 144.839844 34.207031 145.109375 34.054688 145.332031 L 30.828125 149.984375 C 30.617188 150.289062 30.246094 150.441406 29.875 150.375 C 29.507812 150.300781 29.214844 150.023438 29.128906 149.660156 L 26.359375 138.101562 L 14.566406 139.566406 C 14.195312 139.613281 13.828125 139.4375 13.632812 139.117188 C 13.4375 138.796875 13.449219 138.394531 13.664062 138.085938 L 16.886719 133.433594 C 17.039062 133.214844 17.28125 133.070312 17.546875 133.035156 L 30.1875 131.460938 C 30.667969 131.402344 31.121094 131.714844 31.230469 132.1875 Z M 31.230469 132.1875 " fill-opacity="1" fill-rule="nonzero"/></g></g></g><g clip-path="url(#c897d33fa1)"><g clip-path="url(#f11b9c9635)"><g clip-path="url(#a3c3c4106c)"><path fill="#38b6ff" d="M 65.816406 90.09375 L 65.914062 102.832031 C 65.917969 103.101562 65.804688 103.355469 65.609375 103.535156 L 61.417969 107.34375 C 61.140625 107.59375 60.742188 107.660156 60.402344 107.507812 C 60.058594 107.355469 59.835938 107.015625 59.832031 106.644531 L 59.742188 94.757812 L 47.917969 93.53125 C 47.546875 93.492188 47.230469 93.238281 47.113281 92.882812 C 46.996094 92.523438 47.097656 92.136719 47.371094 91.882812 L 51.5625 88.078125 C 51.761719 87.898438 52.027344 87.8125 52.292969 87.835938 L 64.964844 89.152344 C 65.445312 89.203125 65.816406 89.609375 65.816406 90.09375 Z M 65.816406 90.09375 " fill-opacity="1" fill-rule="nonzero"/></g></g></g><g clip-path="url(#83c36e865c)"><g clip-path="url(#351c97d734)"><g clip-path="url(#45cd98e673)"><path fill="#38b6ff" d="M 56.738281 98.34375 L 56.835938 111.082031 C 56.835938 111.351562 56.726562 111.605469 56.527344 111.785156 L 52.335938 115.59375 C 52.0625 115.84375 51.664062 115.90625 51.320312 115.757812 C 50.976562 115.605469 50.753906 115.265625 50.753906 114.894531 L 50.660156 103.007812 L 38.839844 101.78125 C 38.464844 101.742188 38.148438 101.488281 38.03125 101.132812 C 37.914062 100.773438 38.015625 100.382812 38.292969 100.132812 L 42.480469 96.328125 C 42.679688 96.148438 42.945312 96.0625 43.210938 96.085938 L 55.882812 97.402344 C 56.363281 97.453125 56.734375 97.859375 56.738281 98.34375 Z M 56.738281 98.34375 " fill-opacity="1" fill-rule="nonzero"/></g></g></g><g clip-path="url(#be18096531)"><g clip-path="url(#26f7666519)"><g clip-path="url(#10bb2665f4)"><path fill="#38b6ff" d="M 100.488281 72.246094 L 97.054688 84.511719 C 96.980469 84.773438 96.800781 84.988281 96.5625 85.105469 L 91.480469 87.601562 C 91.148438 87.765625 90.746094 87.71875 90.457031 87.480469 C 90.171875 87.238281 90.050781 86.851562 90.152344 86.492188 L 93.355469 75.042969 L 82.335938 70.589844 C 81.988281 70.449219 81.753906 70.117188 81.742188 69.746094 C 81.726562 69.367188 81.933594 69.023438 82.265625 68.859375 L 87.347656 66.359375 C 87.589844 66.242188 87.867188 66.234375 88.117188 66.332031 L 99.925781 71.105469 C 100.375 71.285156 100.617188 71.78125 100.488281 72.246094 Z M 100.488281 72.246094 " fill-opacity="1" fill-rule="nonzero"/></g></g></g><g clip-path="url(#dbe6bed8dc)"><g clip-path="url(#a4666fdec1)"><g clip-path="url(#6f94cb7601)"><path fill="#38b6ff" d="M 89.476562 77.65625 L 86.042969 89.925781 C 85.96875 90.183594 85.792969 90.398438 85.550781 90.515625 L 80.472656 93.015625 C 80.136719 93.179688 79.738281 93.128906 79.449219 92.890625 C 79.160156 92.648438 79.039062 92.261719 79.140625 91.902344 L 82.347656 80.457031 L 71.324219 76.003906 C 70.980469 75.863281 70.746094 75.53125 70.730469 75.15625 C 70.71875 74.78125 70.921875 74.433594 71.257812 74.269531 L 76.339844 71.773438 C 76.578125 71.652344 76.855469 71.648438 77.105469 71.742188 L 88.917969 76.515625 C 89.367188 76.699219 89.609375 77.191406 89.476562 77.65625 Z M 89.476562 77.65625 " fill-opacity="1" fill-rule="nonzero"/></g></g></g><g clip-path="url(#5c84411891)"><path fill="#38b6ff" d="M 146.195312 68.148438 L 137.703125 77.640625 C 137.519531 77.84375 137.265625 77.957031 137 77.957031 L 131.335938 77.957031 C 130.964844 77.957031 130.628906 77.738281 130.472656 77.394531 C 130.324219 77.050781 130.386719 76.652344 130.636719 76.375 L 138.558594 67.515625 L 130.636719 58.65625 C 130.386719 58.375 130.320312 57.976562 130.472656 57.632812 C 130.628906 57.289062 130.964844 57.070312 131.335938 57.070312 L 137 57.070312 C 137.265625 57.070312 137.519531 57.1875 137.703125 57.382812 L 146.195312 66.878906 C 146.515625 67.238281 146.515625 67.789062 146.195312 68.148438 Z M 146.195312 68.148438 " fill-opacity="1" fill-rule="nonzero"/></g><g clip-path="url(#0cfebae26d)"><path fill="#38b6ff" d="M 133.925781 68.148438 L 125.433594 77.640625 C 125.25 77.84375 125 77.957031 124.730469 77.957031 L 119.070312 77.957031 C 118.695312 77.957031 118.359375 77.738281 118.207031 77.394531 C 118.054688 77.050781 118.117188 76.652344 118.367188 76.375 L 126.292969 67.515625 L 118.367188 58.65625 C 118.117188 58.375 118.054688 57.976562 118.207031 57.632812 C 118.359375 57.289062 118.695312 57.070312 119.070312 57.070312 L 124.730469 57.070312 C 125 57.070312 125.25 57.1875 125.433594 57.382812 L 133.925781 66.878906 C 134.25 67.238281 134.25 67.789062 133.925781 68.148438 Z M 133.925781 68.148438 " fill-opacity="1" fill-rule="nonzero"/></g><g clip-path="url(#0655159c40)"><g clip-path="url(#0d26f3a43e)"><g clip-path="url(#a10e5adaf5)"><path fill="#5ce1e6" d="M 182.71875 68.148438 L 173.941406 77.382812 C 173.753906 77.578125 173.5 77.6875 173.230469 77.675781 L 167.570312 77.507812 C 167.199219 77.496094 166.871094 77.265625 166.726562 76.917969 C 166.585938 76.570312 166.660156 76.171875 166.917969 75.902344 L 175.105469 67.285156 L 167.453125 58.191406 C 167.210938 57.90625 167.160156 57.503906 167.320312 57.167969 C 167.484375 56.828125 167.828125 56.617188 168.199219 56.628906 L 173.859375 56.800781 C 174.128906 56.808594 174.378906 56.929688 174.554688 57.132812 L 182.757812 66.878906 C 183.066406 67.25 183.050781 67.800781 182.71875 68.148438 Z M 182.71875 68.148438 " fill-opacity="1" fill-rule="nonzero"/></g></g></g><g clip-path="url(#b4e9c275c7)"><g clip-path="url(#9bb97864ef)"><g clip-path="url(#e6fd792642)"><path fill="#5ce1e6" d="M 170.457031 67.78125 L 161.679688 77.015625 C 161.492188 77.210938 161.238281 77.316406 160.96875 77.308594 L 155.308594 77.136719 C 154.9375 77.125 154.605469 76.894531 154.464844 76.550781 C 154.324219 76.203125 154.398438 75.804688 154.65625 75.535156 L 162.84375 66.917969 L 155.1875 57.824219 C 154.949219 57.539062 154.894531 57.136719 155.058594 56.796875 C 155.222656 56.457031 155.566406 56.25 155.9375 56.261719 L 161.597656 56.429688 C 161.867188 56.4375 162.113281 56.5625 162.289062 56.765625 L 170.492188 66.511719 C 170.804688 66.878906 170.789062 67.429688 170.457031 67.78125 Z M 170.457031 67.78125 " fill-opacity="1" fill-rule="nonzero"/></g></g></g><g clip-path="url(#5cd2af61ff)"><g clip-path="url(#c616897257)"><g clip-path="url(#e3d3f34998)"><path fill="#38b6ff" d="M 294.371094 68.148438 L 285.59375 77.382812 C 285.40625 77.578125 285.152344 77.6875 284.882812 77.675781 L 279.222656 77.507812 C 278.851562 77.496094 278.523438 77.265625 278.378906 76.917969 C 278.238281 76.570312 278.3125 76.171875 278.570312 75.902344 L 286.757812 67.285156 L 279.105469 58.191406 C 278.863281 57.90625 278.8125 57.503906 278.972656 57.167969 C 279.136719 56.828125 279.480469 56.617188 279.851562 56.628906 L 285.511719 56.800781 C 285.78125 56.808594 286.03125 56.929688 286.207031 57.132812 L 294.410156 66.878906 C 294.71875 67.25 294.703125 67.800781 294.371094 68.148438 Z M 294.371094 68.148438 " fill-opacity="1" fill-rule="nonzero"/></g></g></g><g clip-path="url(#16d2cebfea)"><g clip-path="url(#1da1b142fa)"><g clip-path="url(#2275913797)"><path fill="#38b6ff" d="M 282.109375 67.78125 L 273.332031 77.015625 C 273.144531 77.210938 272.890625 77.316406 272.621094 77.308594 L 266.960938 77.136719 C 266.589844 77.125 266.257812 76.894531 266.117188 76.550781 C 265.976562 76.203125 266.050781 75.804688 266.308594 75.535156 L 274.496094 66.917969 L 266.839844 57.824219 C 266.601562 57.539062 266.546875 57.136719 266.710938 56.796875 C 266.875 56.457031 267.21875 56.25 267.589844 56.261719 L 273.25 56.429688 C 273.519531 56.4375 273.765625 56.5625 273.941406 56.765625 L 282.144531 66.511719 C 282.457031 66.878906 282.441406 67.429688 282.109375 67.78125 Z M 282.109375 67.78125 " fill-opacity="1" fill-rule="nonzero"/></g></g></g><g clip-path="url(#d959ecd50f)"><g clip-path="url(#6d1c60bcd8)"><g clip-path="url(#b447315b64)"><path fill="#38b6ff" d="M 257.246094 68.148438 L 248.46875 77.382812 C 248.28125 77.578125 248.027344 77.6875 247.757812 77.675781 L 242.097656 77.507812 C 241.726562 77.496094 241.398438 77.265625 241.253906 76.917969 C 241.113281 76.570312 241.1875 76.171875 241.445312 75.902344 L 249.632812 67.285156 L 241.980469 58.191406 C 241.738281 57.90625 241.6875 57.503906 241.847656 57.167969 C 242.011719 56.828125 242.355469 56.617188 242.726562 56.628906 L 248.386719 56.800781 C 248.65625 56.808594 248.90625 56.929688 249.082031 57.132812 L 257.285156 66.878906 C 257.59375 67.25 257.578125 67.800781 257.246094 68.148438 Z M 257.246094 68.148438 " fill-opacity="1" fill-rule="nonzero"/></g></g></g><g clip-path="url(#b9e681b44c)"><g clip-path="url(#0520db6818)"><g clip-path="url(#e67aa1e7e1)"><path fill="#38b6ff" d="M 244.984375 67.78125 L 236.207031 77.015625 C 236.019531 77.210938 235.765625 77.316406 235.496094 77.308594 L 229.835938 77.136719 C 229.464844 77.125 229.132812 76.894531 228.992188 76.550781 C 228.851562 76.203125 228.925781 75.804688 229.183594 75.535156 L 237.371094 66.917969 L 229.714844 57.824219 C 229.476562 57.539062 229.421875 57.136719 229.585938 56.796875 C 229.75 56.457031 230.09375 56.25 230.464844 56.261719 L 236.125 56.429688 C 236.394531 56.4375 236.640625 56.5625 236.816406 56.765625 L 245.019531 66.511719 C 245.332031 66.878906 245.316406 67.429688 244.984375 67.78125 Z M 244.984375 67.78125 " fill-opacity="1" fill-rule="nonzero"/></g></g></g><g clip-path="url(#ae237872cd)"><g clip-path="url(#d10a031474)"><g clip-path="url(#7f64c595d0)"><path fill="#38b6ff" d="M 220.730469 68.148438 L 211.953125 77.382812 C 211.765625 77.578125 211.511719 77.6875 211.242188 77.675781 L 205.582031 77.507812 C 205.210938 77.496094 204.878906 77.265625 204.738281 76.917969 C 204.597656 76.570312 204.671875 76.171875 204.929688 75.902344 L 213.117188 67.285156 L 205.460938 58.191406 C 205.222656 57.90625 205.167969 57.503906 205.332031 57.167969 C 205.496094 56.828125 205.839844 56.617188 206.210938 56.628906 L 211.871094 56.800781 C 212.140625 56.808594 212.386719 56.929688 212.5625 57.132812 L 220.765625 66.878906 C 221.078125 67.25 221.0625 67.800781 220.730469 68.148438 Z M 220.730469 68.148438 " fill-opacity="1" fill-rule="nonzero"/></g></g></g><g clip-path="url(#30d77505ee)"><g clip-path="url(#8bbf413e85)"><g clip-path="url(#f11dff8fd7)"><path fill="#38b6ff" d="M 208.464844 67.78125 L 199.691406 77.015625 C 199.503906 77.210938 199.246094 77.316406 198.980469 77.308594 L 193.320312 77.136719 C 192.949219 77.125 192.617188 76.894531 192.476562 76.550781 C 192.335938 76.203125 192.410156 75.804688 192.664062 75.535156 L 200.855469 66.917969 L 193.199219 57.824219 C 192.957031 57.539062 192.90625 57.136719 193.070312 56.796875 C 193.234375 56.457031 193.578125 56.25 193.949219 56.261719 L 199.609375 56.429688 C 199.875 56.4375 200.125 56.5625 200.300781 56.765625 L 208.503906 66.511719 C 208.816406 66.878906 208.800781 67.429688 208.464844 67.78125 Z M 208.464844 67.78125 " fill-opacity="1" fill-rule="nonzero"/></g></g></g></svg>