<svg xmlns="http://www.w3.org/2000/svg" xmlns:xlink="http://www.w3.org/1999/xlink" width="450" zoomAndPan="magnify" viewBox="0 0 337.5 374.999991" height="500" preserveAspectRatio="xMidYMid meet" version="1.0"><defs><clipPath id="25b6b0ee6e"><path d="M 0 52.777344 L 303.75 52.777344 L 303.75 323 L 0 323 Z M 0 52.777344 " clip-rule="nonzero"/></clipPath><clipPath id="3433899ed9"><path d="M 7.917969 142.824219 C 3.136719 156.667969 0 172.40625 0 187.851562 C 0 203.296875 2.6875 218.15625 7.46875 231.855469 C 7.621094 232.144531 7.621094 232.4375 7.769531 232.730469 C 26.890625 284.164062 77.390625 322.046875 135.65625 322.777344 L 303.75 322.777344 L 303.75 52.777344 L 135.78125 52.777344 C 77.09375 53.503906 26.59375 90.808594 7.917969 142.824219 " clip-rule="nonzero"/></clipPath><clipPath id="bba66108bf"><path d="M 0 52.777344 L 303.75 52.777344 L 303.75 322.777344 L 0 322.777344 Z M 0 52.777344 " clip-rule="nonzero"/></clipPath><clipPath id="cbbb0f8b1f"><path d="M 7.917969 142.824219 C 3.136719 156.667969 0 172.40625 0 187.851562 C 0 203.296875 2.6875 218.15625 7.46875 231.855469 C 7.621094 232.144531 7.621094 232.4375 7.769531 232.730469 C 26.890625 284.164062 77.390625 322.046875 135.65625 322.777344 L 303.75 322.777344 L 303.75 52.777344 L 135.78125 52.777344 C 77.09375 53.503906 26.59375 90.808594 7.917969 142.824219 " clip-rule="nonzero"/></clipPath><clipPath id="fe6d059eb4"><path d="M 33 77 L 250 77 L 250 295 L 33 295 Z M 33 77 " clip-rule="nonzero"/></clipPath><clipPath id="6f6eff85bb"><path d="M 9.617188 109.40625 L 218.640625 53.8125 L 274.234375 262.835938 L 65.210938 318.429688 Z M 9.617188 109.40625 " clip-rule="nonzero"/></clipPath><clipPath id="41f03b1a4b"><path d="M 113.992188 81.648438 C 56.347656 96.976562 22.046875 156.136719 37.378906 213.777344 C 52.710938 271.421875 111.867188 305.722656 169.507812 290.390625 C 227.152344 275.058594 261.453125 215.902344 246.121094 158.257812 C 230.789062 100.617188 171.632812 66.316406 113.992188 81.648438 " clip-rule="nonzero"/></clipPath><clipPath id="9769a63c58"><path d="M 33 77 L 250 77 L 250 295 L 33 295 Z M 33 77 " clip-rule="nonzero"/></clipPath><clipPath id="c335665df1"><path d="M 9.617188 109.40625 L 218.363281 53.886719 L 273.882812 262.628906 L 65.136719 318.148438 Z M 9.617188 109.40625 " clip-rule="nonzero"/></clipPath><clipPath id="eb435d6a08"><path d="M 9.617188 109.40625 L 221.3125 53.101562 L 277.617188 264.796875 L 65.921875 321.101562 Z M 9.617188 109.40625 " clip-rule="nonzero"/></clipPath><clipPath id="3eefd037db"><path d="M 113.992188 81.648438 C 56.347656 96.976562 22.046875 156.136719 37.378906 213.777344 C 52.710938 271.421875 111.867188 305.722656 169.507812 290.390625 C 227.152344 275.058594 261.453125 215.902344 246.121094 158.257812 C 230.789062 100.617188 171.632812 66.316406 113.992188 81.648438 " clip-rule="nonzero"/></clipPath><clipPath id="6ea9555c10"><path d="M 114 119 L 140 119 L 140 155 L 114 155 Z M 114 119 " clip-rule="nonzero"/></clipPath><clipPath id="d49958bc80"><path d="M 114.269531 124.054688 L 131.804688 119.316406 L 140.128906 150.136719 L 122.59375 154.875 Z M 114.269531 124.054688 " clip-rule="nonzero"/></clipPath><clipPath id="5dc3116c92"><path d="M 114.269531 124.054688 L 131.417969 119.421875 L 139.695312 150.050781 L 122.542969 154.683594 Z M 114.269531 124.054688 " clip-rule="nonzero"/></clipPath><clipPath id="71720f036b"><path d="M 168 184 L 205 184 L 205 210 L 168 210 Z M 168 184 " clip-rule="nonzero"/></clipPath><clipPath id="85949d3262"><path d="M 168.933594 201.308594 L 173.792969 183.808594 L 204.554688 192.347656 L 199.695312 209.847656 Z M 168.933594 201.308594 " clip-rule="nonzero"/></clipPath><clipPath id="de6a3904c2"><path d="M 168.933594 201.308594 L 173.683594 184.191406 L 204.257812 192.675781 L 199.503906 209.796875 Z M 168.933594 201.308594 " clip-rule="nonzero"/></clipPath><clipPath id="a30ce5db4f"><path d="M 104 137 L 187 137 L 187 219 L 104 219 Z M 104 137 " clip-rule="nonzero"/></clipPath><clipPath id="89241479fa"><path d="M 134.644531 248.667969 L 74.554688 188.269531 L 127.007812 136.085938 L 187.097656 196.484375 Z M 134.644531 248.667969 " clip-rule="nonzero"/></clipPath><clipPath id="b53c3a336a"><path d="M 104.832031 218.699219 L 126.960938 137.054688 L 186.589844 196.988281 L 104.832031 218.699219 " clip-rule="nonzero"/></clipPath><clipPath id="00be0db065"><path d="M 93 195 L 128 195 L 128 231 L 93 231 Z M 93 195 " clip-rule="nonzero"/></clipPath><clipPath id="007dbe692d"><path d="M 105.503906 230.566406 L 92.691406 217.691406 L 115.324219 195.175781 L 128.136719 208.050781 Z M 105.503906 230.566406 " clip-rule="nonzero"/></clipPath><clipPath id="4515165da8"><path d="M 105.503906 230.566406 L 92.972656 217.972656 L 115.464844 195.59375 L 127.996094 208.191406 Z M 105.503906 230.566406 " clip-rule="nonzero"/></clipPath><clipPath id="58bdbabc4b"><path d="M 56 210 L 113 210 L 113 267 L 56 267 Z M 56 210 " clip-rule="nonzero"/></clipPath><clipPath id="d56e518d1e"><path d="M 123.980469 239.773438 L 83.65625 278.085938 L 45.347656 237.761719 L 85.671875 199.449219 Z M 123.980469 239.773438 " clip-rule="nonzero"/></clipPath><clipPath id="3be1700252"><path d="M 103.820312 258.929688 C 114.957031 248.347656 115.40625 230.746094 104.828125 219.609375 C 94.246094 208.476562 76.644531 208.023438 65.507812 218.605469 C 54.375 229.183594 53.921875 246.789062 64.503906 257.921875 C 75.082031 269.058594 92.683594 269.507812 103.820312 258.929688 " clip-rule="nonzero"/></clipPath><clipPath id="a45a2d8535"><path d="M 57 211 L 113 211 L 113 267 L 57 267 Z M 57 211 " clip-rule="nonzero"/></clipPath><clipPath id="90388a6212"><path d="M 123.980469 239.773438 L 83.746094 278 L 45.519531 237.765625 L 85.753906 199.539062 Z M 123.980469 239.773438 " clip-rule="nonzero"/></clipPath><clipPath id="3504235f0b"><path d="M 123.980469 239.773438 L 83.746094 278 L 45.519531 237.765625 L 85.753906 199.539062 Z M 123.980469 239.773438 " clip-rule="nonzero"/></clipPath><clipPath id="fae9ba838a"><path d="M 103.863281 258.886719 C 114.976562 248.332031 115.425781 230.765625 104.867188 219.65625 C 94.3125 208.542969 76.746094 208.09375 65.636719 218.652344 C 54.527344 229.207031 54.078125 246.773438 64.632812 257.882812 C 75.1875 268.992188 92.753906 269.441406 103.863281 258.886719 " clip-rule="nonzero"/></clipPath><clipPath id="69f25cba04"><path d="M 187 177 L 244 177 L 244 233 L 187 233 Z M 187 177 " clip-rule="nonzero"/></clipPath><clipPath id="162d9557ad"><path d="M 235.09375 238.957031 L 181.410156 224.402344 L 195.964844 170.71875 L 249.648438 185.269531 Z M 235.09375 238.957031 " clip-rule="nonzero"/></clipPath><clipPath id="228935e60d"><path d="M 208.253906 231.679688 C 223.078125 235.699219 238.351562 226.9375 242.371094 212.113281 C 246.390625 197.289062 237.632812 182.011719 222.804688 177.996094 C 207.980469 173.976562 192.707031 182.734375 188.6875 197.558594 C 184.667969 212.382812 193.429688 227.660156 208.253906 231.679688 " clip-rule="nonzero"/></clipPath><clipPath id="fb4b3cb087"><path d="M 187 177 L 244 177 L 244 233 L 187 233 Z M 187 177 " clip-rule="nonzero"/></clipPath><clipPath id="4f96b70599"><path d="M 235.09375 238.957031 L 181.527344 224.433594 L 196.050781 170.867188 L 249.617188 185.390625 Z M 235.09375 238.957031 " clip-rule="nonzero"/></clipPath><clipPath id="60d37986df"><path d="M 235.09375 238.957031 L 181.527344 224.433594 L 196.050781 170.867188 L 249.617188 185.390625 Z M 235.09375 238.957031 " clip-rule="nonzero"/></clipPath><clipPath id="0f45c78236"><path d="M 208.3125 231.695312 C 223.105469 235.703125 238.34375 226.964844 242.355469 212.171875 C 246.367188 197.378906 237.625 182.136719 222.832031 178.128906 C 208.042969 174.117188 192.800781 182.859375 188.789062 197.648438 C 184.777344 212.441406 193.519531 227.683594 208.3125 231.695312 " clip-rule="nonzero"/></clipPath><clipPath id="7ca3b79273"><path d="M 92 84 L 149 84 L 149 140 L 92 140 Z M 92 84 " clip-rule="nonzero"/></clipPath><clipPath id="e5db7a8c6d"><path d="M 154.539062 131.761719 L 100.785156 146.058594 L 86.488281 92.304688 L 140.242188 78.007812 Z M 154.539062 131.761719 " clip-rule="nonzero"/></clipPath><clipPath id="85c6529025"><path d="M 127.660156 138.910156 C 142.503906 134.964844 151.335938 119.730469 147.390625 104.886719 C 143.441406 90.042969 128.207031 81.210938 113.363281 85.15625 C 98.519531 89.105469 89.6875 104.339844 93.636719 119.183594 C 97.582031 134.027344 112.816406 142.859375 127.660156 138.910156 " clip-rule="nonzero"/></clipPath><clipPath id="2737d15b02"><path d="M 92 84 L 149 84 L 149 140 L 92 140 Z M 92 84 " clip-rule="nonzero"/></clipPath><clipPath id="68d57af835"><path d="M 154.539062 131.761719 L 100.902344 146.027344 L 86.636719 92.394531 L 140.273438 78.128906 Z M 154.539062 131.761719 " clip-rule="nonzero"/></clipPath><clipPath id="21c4593935"><path d="M 154.539062 131.761719 L 100.902344 146.027344 L 86.636719 92.394531 L 140.273438 78.128906 Z M 154.539062 131.761719 " clip-rule="nonzero"/></clipPath><clipPath id="97dcc484cf"><path d="M 127.71875 138.894531 C 142.53125 134.957031 151.34375 119.757812 147.40625 104.945312 C 143.464844 90.132812 128.265625 81.320312 113.453125 85.261719 C 98.644531 89.199219 89.832031 104.398438 93.769531 119.210938 C 97.707031 134.019531 112.910156 142.835938 127.71875 138.894531 " clip-rule="nonzero"/></clipPath><clipPath id="a58b5d30d3"><path d="M 77 231 L 92 231 L 92 246 L 77 246 Z M 77 231 " clip-rule="nonzero"/></clipPath><clipPath id="54ded2e32e"><path d="M 84.644531 248.636719 L 74.796875 238.742188 L 84.695312 228.894531 L 94.539062 238.792969 Z M 84.644531 248.636719 " clip-rule="nonzero"/></clipPath><clipPath id="f035668f11"><path d="M 79.722656 243.6875 C 82.441406 246.421875 86.859375 246.433594 89.59375 243.714844 C 92.324219 240.996094 92.335938 236.574219 89.617188 233.84375 C 86.898438 231.109375 82.480469 231.097656 79.746094 233.816406 C 77.015625 236.535156 77.003906 240.957031 79.722656 243.6875 " clip-rule="nonzero"/></clipPath><clipPath id="8a13175095"><path d="M 208 197 L 223 197 L 223 212 L 208 212 Z M 208 197 " clip-rule="nonzero"/></clipPath><clipPath id="f8cfa311f3"><path d="M 206.972656 209.75 L 210.625 196.277344 L 224.097656 199.929688 L 220.445312 213.402344 Z M 206.972656 209.75 " clip-rule="nonzero"/></clipPath><clipPath id="ee4e03caca"><path d="M 208.796875 203.011719 C 207.789062 206.734375 209.988281 210.566406 213.707031 211.574219 C 217.429688 212.585938 221.261719 210.386719 222.269531 206.664062 C 223.28125 202.945312 221.082031 199.113281 217.359375 198.101562 C 213.640625 197.09375 209.804688 199.292969 208.796875 203.011719 " clip-rule="nonzero"/></clipPath><clipPath id="22dfa2e2cd"><path d="M 112 105 L 127 105 L 127 120 L 112 120 Z M 112 105 " clip-rule="nonzero"/></clipPath><clipPath id="22ac19b5f8"><path d="M 119.492188 122.191406 L 109.648438 112.296875 L 119.542969 102.453125 L 129.390625 112.347656 Z M 119.492188 122.191406 " clip-rule="nonzero"/></clipPath><clipPath id="d2027d2f76"><path d="M 114.570312 117.246094 C 117.289062 119.976562 121.707031 119.988281 124.441406 117.269531 C 127.175781 114.550781 127.183594 110.132812 124.464844 107.398438 C 121.746094 104.667969 117.328125 104.65625 114.597656 107.375 C 111.863281 110.09375 111.851562 114.511719 114.570312 117.246094 " clip-rule="nonzero"/></clipPath><clipPath id="0e9d797475"><path d="M 71 144 L 86 144 L 86 192 L 71 192 Z M 71 144 " clip-rule="nonzero"/></clipPath><clipPath id="9e32e290b6"><path d="M 88.5 144.839844 L 80.226562 191.359375 L 66.933594 188.996094 L 75.210938 142.476562 Z M 88.5 144.839844 " clip-rule="nonzero"/></clipPath><clipPath id="a8dcf738f6"><path d="M 80.191406 191.546875 L 88.46875 145.023438 L 75.175781 142.660156 L 66.902344 189.179688 Z M 80.191406 191.546875 " clip-rule="nonzero"/></clipPath><clipPath id="b24052714e"><path d="M 80.191406 191.546875 L 88.46875 145.023438 L 75.175781 142.660156 L 66.902344 189.179688 Z M 80.191406 191.546875 " clip-rule="nonzero"/></clipPath><clipPath id="f6aa43eb23"><path d="M 75 183 L 76 183 L 76 184 L 75 184 Z M 75 183 " clip-rule="nonzero"/></clipPath><clipPath id="73e2f2f241"><path d="M 88.5 144.839844 L 80.226562 191.359375 L 66.933594 188.996094 L 75.210938 142.476562 Z M 88.5 144.839844 " clip-rule="nonzero"/></clipPath><clipPath id="9a48e05c59"><path d="M 80.191406 191.546875 L 88.46875 145.023438 L 75.175781 142.660156 L 66.902344 189.179688 Z M 80.191406 191.546875 " clip-rule="nonzero"/></clipPath><clipPath id="b930e691bd"><path d="M 80.191406 191.546875 L 88.46875 145.023438 L 75.175781 142.660156 L 66.902344 189.179688 Z M 80.191406 191.546875 " clip-rule="nonzero"/></clipPath><clipPath id="83dc2c200b"><path d="M 166 123 L 204 123 L 204 155 L 166 155 Z M 166 123 " clip-rule="nonzero"/></clipPath><clipPath id="d1193d18de"><path d="M 198.847656 158.164062 L 165.570312 124.621094 L 175.152344 115.113281 L 208.429688 148.65625 Z M 198.847656 158.164062 " clip-rule="nonzero"/></clipPath><clipPath id="f526b0441c"><path d="M 165.4375 124.484375 L 198.714844 158.03125 L 208.296875 148.523438 L 175.019531 114.976562 Z M 165.4375 124.484375 " clip-rule="nonzero"/></clipPath><clipPath id="51e803b998"><path d="M 165.4375 124.484375 L 198.714844 158.03125 L 208.296875 148.523438 L 175.019531 114.976562 Z M 165.4375 124.484375 " clip-rule="nonzero"/></clipPath><clipPath id="315a2a4936"><path d="M 174 125 L 176 125 L 176 126 L 174 126 Z M 174 125 " clip-rule="nonzero"/></clipPath><clipPath id="dfbe4b47cc"><path d="M 198.847656 158.164062 L 165.570312 124.621094 L 175.152344 115.113281 L 208.429688 148.65625 Z M 198.847656 158.164062 " clip-rule="nonzero"/></clipPath><clipPath id="ec7da84131"><path d="M 165.4375 124.484375 L 198.714844 158.03125 L 208.296875 148.523438 L 175.019531 114.976562 Z M 165.4375 124.484375 " clip-rule="nonzero"/></clipPath><clipPath id="8e803dc423"><path d="M 165.4375 124.484375 L 198.714844 158.03125 L 208.296875 148.523438 L 175.019531 114.976562 Z M 165.4375 124.484375 " clip-rule="nonzero"/></clipPath><clipPath id="67e2302ff7"><path d="M 135 238 L 182 238 L 182 257 L 135 257 Z M 135 238 " clip-rule="nonzero"/></clipPath><clipPath id="ccbe38b1ca"><path d="M 134.441406 246.335938 L 180.96875 238.113281 L 183.316406 251.40625 L 136.789062 259.628906 Z M 134.441406 246.335938 " clip-rule="nonzero"/></clipPath><clipPath id="f96a8e6be8"><path d="M 181.152344 238.082031 L 134.625 246.304688 L 136.972656 259.597656 L 183.503906 251.375 Z M 181.152344 238.082031 " clip-rule="nonzero"/></clipPath><clipPath id="207a115a30"><path d="M 181.152344 238.082031 L 134.625 246.304688 L 136.972656 259.597656 L 183.503906 251.375 Z M 181.152344 238.082031 " clip-rule="nonzero"/></clipPath><clipPath id="242c8698a8"><path d="M 175 245 L 176 245 L 176 246 L 175 246 Z M 175 245 " clip-rule="nonzero"/></clipPath><clipPath id="ebddebce1e"><path d="M 134.441406 246.335938 L 180.96875 238.113281 L 183.316406 251.40625 L 136.789062 259.628906 Z M 134.441406 246.335938 " clip-rule="nonzero"/></clipPath><clipPath id="de2d110824"><path d="M 181.152344 238.082031 L 134.625 246.304688 L 136.972656 259.597656 L 183.503906 251.375 Z M 181.152344 238.082031 " clip-rule="nonzero"/></clipPath><clipPath id="e9a53c3ad4"><path d="M 181.152344 238.082031 L 134.625 246.304688 L 136.972656 259.597656 L 183.503906 251.375 Z M 181.152344 238.082031 " clip-rule="nonzero"/></clipPath><clipPath id="142f6725d7"><path d="M 266.625 297.128906 L 283 297.128906 L 283 318.128906 L 266.625 318.128906 Z M 266.625 297.128906 " clip-rule="nonzero"/></clipPath><clipPath id="d3aa3f2520"><path d="M 278 297.128906 L 294.785156 297.128906 L 294.785156 318.128906 L 278 318.128906 Z M 278 297.128906 " clip-rule="nonzero"/></clipPath><clipPath id="5bfe94ce04"><path d="M 229.5 297.128906 L 246 297.128906 L 246 318.128906 L 229.5 318.128906 Z M 229.5 297.128906 " clip-rule="nonzero"/></clipPath><clipPath id="5b6750b6d2"><path d="M 241 297.128906 L 257.660156 297.128906 L 257.660156 318.128906 L 241 318.128906 Z M 241 297.128906 " clip-rule="nonzero"/></clipPath><clipPath id="963bd008ad"><path d="M 192.375 297.128906 L 209 297.128906 L 209 318.128906 L 192.375 318.128906 Z M 192.375 297.128906 " clip-rule="nonzero"/></clipPath><clipPath id="6825e39a29"><path d="M 204 297.128906 L 220.535156 297.128906 L 220.535156 318.128906 L 204 318.128906 Z M 204 297.128906 " clip-rule="nonzero"/></clipPath><clipPath id="651324625b"><path d="M 155.25 297.128906 L 172 297.128906 L 172 318.128906 L 155.25 318.128906 Z M 155.25 297.128906 " clip-rule="nonzero"/></clipPath><clipPath id="4cd8eb00dd"><path d="M 167 297.128906 L 183.410156 297.128906 L 183.410156 318.128906 L 167 318.128906 Z M 167 297.128906 " clip-rule="nonzero"/></clipPath><clipPath id="e7be7c22e5"><path d="M 117 297 L 135 297 L 135 319 L 117 319 Z M 117 297 " clip-rule="nonzero"/></clipPath><clipPath id="0bf3b03be9"><path d="M 117.945312 297.378906 L 146.441406 296.875 L 146.8125 317.871094 L 118.316406 318.375 Z M 117.945312 297.378906 " clip-rule="nonzero"/></clipPath><clipPath id="026523a27b"><path d="M 146.101562 296.878906 L 117.605469 297.382812 L 117.976562 318.378906 L 146.472656 317.875 Z M 146.101562 296.878906 " clip-rule="nonzero"/></clipPath><clipPath id="63f1e4d9a9"><path d="M 130 296 L 147 296 L 147 318 L 130 318 Z M 130 296 " clip-rule="nonzero"/></clipPath><clipPath id="91dd148e5a"><path d="M 117.945312 297.378906 L 146.441406 296.875 L 146.8125 317.871094 L 118.316406 318.375 Z M 117.945312 297.378906 " clip-rule="nonzero"/></clipPath><clipPath id="5ac14be3c4"><path d="M 146.101562 296.878906 L 117.605469 297.382812 L 117.976562 318.378906 L 146.472656 317.875 Z M 146.101562 296.878906 " clip-rule="nonzero"/></clipPath><clipPath id="9002470efb"><path d="M 75 282 L 95 282 L 95 304 L 75 304 Z M 75 282 " clip-rule="nonzero"/></clipPath><clipPath id="cb4da18905"><path d="M 81.105469 277.734375 L 105.09375 293.121094 L 93.757812 310.796875 L 69.765625 295.410156 Z M 81.105469 277.734375 " clip-rule="nonzero"/></clipPath><clipPath id="8a3753a46b"><path d="M 104.808594 292.9375 L 80.816406 277.550781 L 69.480469 295.226562 L 93.46875 310.613281 Z M 104.808594 292.9375 " clip-rule="nonzero"/></clipPath><clipPath id="ccc7e523c7"><path d="M 85 289 L 105 289 L 105 311 L 85 311 Z M 85 289 " clip-rule="nonzero"/></clipPath><clipPath id="0a147728f8"><path d="M 81.105469 277.734375 L 105.09375 293.121094 L 93.757812 310.796875 L 69.765625 295.410156 Z M 81.105469 277.734375 " clip-rule="nonzero"/></clipPath><clipPath id="2ff46f13e6"><path d="M 104.808594 292.9375 L 80.816406 277.550781 L 69.480469 295.226562 L 93.46875 310.613281 Z M 104.808594 292.9375 " clip-rule="nonzero"/></clipPath><clipPath id="9fee13c254"><path d="M 39 261 L 60 261 L 60 282 L 39 282 Z M 39 261 " clip-rule="nonzero"/></clipPath><clipPath id="f7e206769e"><path d="M 48.058594 255.742188 L 68.585938 275.511719 L 54.019531 290.636719 L 33.492188 270.867188 Z M 48.058594 255.742188 " clip-rule="nonzero"/></clipPath><clipPath id="3646817e70"><path d="M 68.339844 275.277344 L 47.8125 255.503906 L 33.246094 270.632812 L 53.773438 290.402344 Z M 68.339844 275.277344 " clip-rule="nonzero"/></clipPath><clipPath id="27a4fc1507"><path d="M 48 270 L 68 270 L 68 290 L 48 290 Z M 48 270 " clip-rule="nonzero"/></clipPath><clipPath id="e5b066289e"><path d="M 48.058594 255.742188 L 68.585938 275.511719 L 54.019531 290.636719 L 33.492188 270.867188 Z M 48.058594 255.742188 " clip-rule="nonzero"/></clipPath><clipPath id="4857f4b54c"><path d="M 68.339844 275.277344 L 47.8125 255.503906 L 33.246094 270.632812 L 53.773438 290.402344 Z M 68.339844 275.277344 " clip-rule="nonzero"/></clipPath><clipPath id="de3abaa92b"><path d="M 17 226 L 39 226 L 39 245 L 17 245 Z M 17 226 " clip-rule="nonzero"/></clipPath><clipPath id="79d4b185d2"><path d="M 31.21875 221.023438 L 45.539062 245.664062 L 27.386719 256.21875 L 13.0625 231.578125 Z M 31.21875 221.023438 " clip-rule="nonzero"/></clipPath><clipPath id="29b1c28401"><path d="M 45.371094 245.371094 L 31.046875 220.730469 L 12.890625 231.285156 L 27.214844 255.925781 Z M 45.371094 245.371094 " clip-rule="nonzero"/></clipPath><clipPath id="c5bbb7ff0b"><path d="M 23 236 L 45 236 L 45 256 L 23 256 Z M 23 236 " clip-rule="nonzero"/></clipPath><clipPath id="0d284866d2"><path d="M 31.21875 221.023438 L 45.539062 245.664062 L 27.386719 256.21875 L 13.0625 231.578125 Z M 31.21875 221.023438 " clip-rule="nonzero"/></clipPath><clipPath id="fb2ae8bb20"><path d="M 45.371094 245.371094 L 31.046875 220.730469 L 12.890625 231.285156 L 27.214844 255.925781 Z M 45.371094 245.371094 " clip-rule="nonzero"/></clipPath><clipPath id="7be4e27885"><path d="M 8.878906 171.9375 L 29.878906 171.9375 L 29.878906 188 L 8.878906 188 Z M 8.878906 171.9375 " clip-rule="nonzero"/></clipPath><clipPath id="9bf7ff6570"><path d="M 8.878906 184 L 29.878906 184 L 29.878906 200.097656 L 8.878906 200.097656 Z M 8.878906 184 " clip-rule="nonzero"/></clipPath><clipPath id="c6fbda2306"><path d="M 20 121 L 42 121 L 42 141 L 20 141 Z M 20 121 " clip-rule="nonzero"/></clipPath><clipPath id="3aa744ff99"><path d="M 46.378906 127.648438 L 30.144531 151.074219 L 12.882812 139.109375 L 29.117188 115.6875 Z M 46.378906 127.648438 " clip-rule="nonzero"/></clipPath><clipPath id="40f50fc862"><path d="M 30.339844 150.792969 L 46.574219 127.367188 L 29.3125 115.40625 L 13.078125 138.832031 Z M 30.339844 150.792969 " clip-rule="nonzero"/></clipPath><clipPath id="226dc3113c"><path d="M 13 131 L 35 131 L 35 151 L 13 151 Z M 13 131 " clip-rule="nonzero"/></clipPath><clipPath id="460142aeac"><path d="M 46.378906 127.648438 L 30.144531 151.074219 L 12.882812 139.109375 L 29.117188 115.6875 Z M 46.378906 127.648438 " clip-rule="nonzero"/></clipPath><clipPath id="fb985e37af"><path d="M 30.339844 150.792969 L 46.574219 127.367188 L 29.3125 115.40625 L 13.078125 138.832031 Z M 30.339844 150.792969 " clip-rule="nonzero"/></clipPath><clipPath id="f1de548b87"><path d="M 47 87 L 66 87 L 66 108 L 47 108 Z M 47 87 " clip-rule="nonzero"/></clipPath><clipPath id="6974981ebc"><path d="M 72.519531 97.335938 L 51.425781 116.5 L 37.304688 100.957031 L 58.398438 81.792969 Z M 72.519531 97.335938 " clip-rule="nonzero"/></clipPath><clipPath id="3e778fc1cd"><path d="M 51.675781 116.269531 L 72.769531 97.105469 L 58.648438 81.5625 L 37.554688 100.726562 Z M 51.675781 116.269531 " clip-rule="nonzero"/></clipPath><clipPath id="22f7de6941"><path d="M 37 96 L 57 96 L 57 116 L 37 116 Z M 37 96 " clip-rule="nonzero"/></clipPath><clipPath id="5621c28cd2"><path d="M 72.519531 97.335938 L 51.425781 116.5 L 37.304688 100.957031 L 58.398438 81.792969 Z M 72.519531 97.335938 " clip-rule="nonzero"/></clipPath><clipPath id="dafd1e789d"><path d="M 51.675781 116.269531 L 72.769531 97.105469 L 58.648438 81.5625 L 37.554688 100.726562 Z M 51.675781 116.269531 " clip-rule="nonzero"/></clipPath><clipPath id="c95087b707"><path d="M 81 66 L 101 66 L 101 88 L 81 88 Z M 81 66 " clip-rule="nonzero"/></clipPath><clipPath id="023cade323"><path d="M 104.921875 81.058594 L 79.34375 93.632812 L 70.078125 74.785156 L 95.65625 62.214844 Z M 104.921875 81.058594 " clip-rule="nonzero"/></clipPath><clipPath id="81c7e92e4e"><path d="M 79.648438 93.480469 L 105.226562 80.910156 L 95.960938 62.0625 L 70.382812 74.636719 Z M 79.648438 93.480469 " clip-rule="nonzero"/></clipPath><clipPath id="9f325c5e1b"><path d="M 70 71 L 90 71 L 90 94 L 70 94 Z M 70 71 " clip-rule="nonzero"/></clipPath><clipPath id="8ab0983cb7"><path d="M 104.921875 81.058594 L 79.34375 93.632812 L 70.078125 74.785156 L 95.65625 62.214844 Z M 104.921875 81.058594 " clip-rule="nonzero"/></clipPath><clipPath id="3e185c6f6e"><path d="M 79.648438 93.480469 L 105.226562 80.910156 L 95.960938 62.0625 L 70.382812 74.636719 Z M 79.648438 93.480469 " clip-rule="nonzero"/></clipPath><clipPath id="82e84deddd"><path d="M 130 57.015625 L 146.285156 57.015625 L 146.285156 78 L 130 78 Z M 130 57.015625 " clip-rule="nonzero"/></clipPath><clipPath id="97076f3e77"><path d="M 118.125 57.015625 L 135 57.015625 L 135 78 L 118.125 78 Z M 118.125 57.015625 " clip-rule="nonzero"/></clipPath><clipPath id="1ffd941e86"><path d="M 166 56 L 183 56 L 183 78 L 166 78 Z M 166 56 " clip-rule="nonzero"/></clipPath><clipPath id="cf610902fe"><path d="M 182.511719 78.011719 L 154.023438 77.15625 L 154.65625 56.164062 L 183.144531 57.023438 Z M 182.511719 78.011719 " clip-rule="nonzero"/></clipPath><clipPath id="da64d3b5c5"><path d="M 154.363281 77.164062 L 182.851562 78.023438 L 183.484375 57.035156 L 154.996094 56.175781 Z M 154.363281 77.164062 " clip-rule="nonzero"/></clipPath><clipPath id="272805ccd2"><path d="M 154 56 L 171 56 L 171 78 L 154 78 Z M 154 56 " clip-rule="nonzero"/></clipPath><clipPath id="4881e0f46f"><path d="M 182.511719 78.011719 L 154.023438 77.15625 L 154.65625 56.164062 L 183.144531 57.023438 Z M 182.511719 78.011719 " clip-rule="nonzero"/></clipPath><clipPath id="cbc67c7376"><path d="M 154.363281 77.164062 L 182.851562 78.023438 L 183.484375 57.035156 L 154.996094 56.175781 Z M 154.363281 77.164062 " clip-rule="nonzero"/></clipPath><clipPath id="888f976e10"><path d="M 278 56 L 295 56 L 295 78 L 278 78 Z M 278 56 " clip-rule="nonzero"/></clipPath><clipPath id="63404dee1a"><path d="M 294.164062 78.011719 L 265.675781 77.15625 L 266.308594 56.164062 L 294.796875 57.023438 Z M 294.164062 78.011719 " clip-rule="nonzero"/></clipPath><clipPath id="f7560de5e2"><path d="M 266.015625 77.164062 L 294.503906 78.023438 L 295.136719 57.035156 L 266.648438 56.175781 Z M 266.015625 77.164062 " clip-rule="nonzero"/></clipPath><clipPath id="7cb98c0761"><path d="M 266 56 L 283 56 L 283 78 L 266 78 Z M 266 56 " clip-rule="nonzero"/></clipPath><clipPath id="dc698c8b40"><path d="M 294.164062 78.011719 L 265.675781 77.15625 L 266.308594 56.164062 L 294.796875 57.023438 Z M 294.164062 78.011719 " clip-rule="nonzero"/></clipPath><clipPath id="2b34b4dd8d"><path d="M 266.015625 77.164062 L 294.503906 78.023438 L 295.136719 57.035156 L 266.648438 56.175781 Z M 266.015625 77.164062 " clip-rule="nonzero"/></clipPath><clipPath id="d33e3f8684"><path d="M 241 56 L 258 56 L 258 78 L 241 78 Z M 241 56 " clip-rule="nonzero"/></clipPath><clipPath id="17eab7a8fd"><path d="M 257.039062 78.011719 L 228.550781 77.15625 L 229.183594 56.164062 L 257.671875 57.023438 Z M 257.039062 78.011719 " clip-rule="nonzero"/></clipPath><clipPath id="10a7d0ae75"><path d="M 228.890625 77.164062 L 257.378906 78.023438 L 258.011719 57.035156 L 229.523438 56.175781 Z M 228.890625 77.164062 " clip-rule="nonzero"/></clipPath><clipPath id="cdacaf6b40"><path d="M 228 56 L 246 56 L 246 78 L 228 78 Z M 228 56 " clip-rule="nonzero"/></clipPath><clipPath id="2b652a1c8a"><path d="M 257.039062 78.011719 L 228.550781 77.15625 L 229.183594 56.164062 L 257.671875 57.023438 Z M 257.039062 78.011719 " clip-rule="nonzero"/></clipPath><clipPath id="81d3ec46d8"><path d="M 228.890625 77.164062 L 257.378906 78.023438 L 258.011719 57.035156 L 229.523438 56.175781 Z M 228.890625 77.164062 " clip-rule="nonzero"/></clipPath><clipPath id="4152f35be9"><path d="M 204 56 L 221 56 L 221 78 L 204 78 Z M 204 56 " clip-rule="nonzero"/></clipPath><clipPath id="1d7d53f5ff"><path d="M 220.523438 78.011719 L 192.035156 77.15625 L 192.667969 56.164062 L 221.15625 57.023438 Z M 220.523438 78.011719 " clip-rule="nonzero"/></clipPath><clipPath id="8597c2770f"><path d="M 192.375 77.164062 L 220.863281 78.023438 L 221.496094 57.035156 L 193.007812 56.175781 Z M 192.375 77.164062 " clip-rule="nonzero"/></clipPath><clipPath id="e9088ad9dd"><path d="M 192 56 L 209 56 L 209 78 L 192 78 Z M 192 56 " clip-rule="nonzero"/></clipPath><clipPath id="df223fc2c4"><path d="M 220.523438 78.011719 L 192.035156 77.15625 L 192.667969 56.164062 L 221.15625 57.023438 Z M 220.523438 78.011719 " clip-rule="nonzero"/></clipPath><clipPath id="10ce2e8a98"><path d="M 192.375 77.164062 L 220.863281 78.023438 L 221.496094 57.035156 L 193.007812 56.175781 Z M 192.375 77.164062 " clip-rule="nonzero"/></clipPath></defs><g clip-path="url(#25b6b0ee6e)"><g clip-path="url(#3433899ed9)"><path fill="#919191" d="M 303.75 52.777344 L 303.75 323.039062 L -0.132812 323.039062 L -0.132812 52.777344 Z M 303.75 52.777344 " fill-opacity="1" fill-rule="nonzero"/></g></g><g clip-path="url(#bba66108bf)"><g clip-path="url(#cbbb0f8b1f)"><path stroke-linecap="butt" transform="matrix(0.000000000000000046, 0.75, -0.75, 0.000000000000000046, 303.749959, 52.777278)" fill="none" stroke-linejoin="miter" d="M 120.062594 394.442673 C 138.520928 400.817674 159.505305 404.999965 180.099056 404.999965 C 200.692807 404.999965 220.505308 401.416632 238.770934 395.041632 C 239.15635 394.838507 239.546975 394.838507 239.9376 394.64059 C 308.515729 369.145797 359.026148 301.81246 360.000106 224.124956 L 360.000106 -0.0000552182 L 0.000088039 -0.0000552182 L 0.000088039 223.95829 C 0.968838 302.208294 50.708424 369.54163 120.062594 394.442673 " stroke="#000000" stroke-width="4" stroke-opacity="1" stroke-miterlimit="4"/></g></g><g clip-path="url(#fe6d059eb4)"><g clip-path="url(#6f6eff85bb)"><g clip-path="url(#41f03b1a4b)"><path fill="#707070" d="M 9.617188 109.40625 L 218.105469 53.957031 L 273.558594 262.441406 L 65.070312 317.894531 Z M 9.617188 109.40625 " fill-opacity="1" fill-rule="nonzero"/></g></g></g><g clip-path="url(#9769a63c58)"><g clip-path="url(#c335665df1)"><g clip-path="url(#eb435d6a08)"><g clip-path="url(#3eefd037db)"><path stroke-linecap="butt" transform="matrix(0.724802, -0.192775, 0.192775, 0.724802, 9.618943, 109.406271)" fill="none" stroke-linejoin="miter" d="M 144.001693 0.00284187 C 64.471469 -0.00170499 -0.00117925 64.473096 0.00064595 143.999625 C 0.00113244 223.531187 64.4709 288.002497 143.997429 288.000672 C 223.528991 288.000185 288.000301 223.530418 287.999815 143.998855 C 287.997989 64.472327 223.528222 0.00101667 144.001693 0.00284187 " stroke="#000000" stroke-width="8" stroke-opacity="1" stroke-miterlimit="4"/></g></g></g></g><g clip-path="url(#6ea9555c10)"><g clip-path="url(#d49958bc80)"><g clip-path="url(#5dc3116c92)"><path fill="#ffde59" d="M 114.269531 124.054688 L 131.273438 119.460938 L 139.597656 150.28125 L 122.59375 154.875 Z M 114.269531 124.054688 " fill-opacity="1" fill-rule="nonzero"/></g></g></g><g clip-path="url(#71720f036b)"><g clip-path="url(#85949d3262)"><g clip-path="url(#de6a3904c2)"><path fill="#ffde59" d="M 168.933594 201.308594 L 173.644531 184.339844 L 204.40625 192.875 L 199.695312 209.847656 Z M 168.933594 201.308594 " fill-opacity="1" fill-rule="nonzero"/></g></g></g><g clip-path="url(#a30ce5db4f)"><g clip-path="url(#89241479fa)"><g clip-path="url(#b53c3a336a)"><path fill="#ffde59" d="M 134.644531 248.667969 L 75.082031 188.800781 L 127.003906 137.140625 L 186.566406 197.011719 Z M 134.644531 248.667969 " fill-opacity="1" fill-rule="nonzero"/></g></g></g><g clip-path="url(#00be0db065)"><g clip-path="url(#007dbe692d)"><g clip-path="url(#4515165da8)"><path fill="#ffde59" d="M 105.503906 230.566406 L 93.082031 218.082031 L 115.710938 195.566406 L 128.136719 208.050781 Z M 105.503906 230.566406 " fill-opacity="1" fill-rule="nonzero"/></g></g></g><g clip-path="url(#58bdbabc4b)"><g clip-path="url(#d56e518d1e)"><g clip-path="url(#3be1700252)"><path fill="#ffde59" d="M 123.980469 239.773438 L 83.65625 278.085938 L 45.347656 237.761719 L 85.671875 199.449219 Z M 123.980469 239.773438 " fill-opacity="1" fill-rule="nonzero"/></g></g></g><g clip-path="url(#a45a2d8535)"><g clip-path="url(#90388a6212)"><g clip-path="url(#3504235f0b)"><g clip-path="url(#fae9ba838a)"><path fill="#000000" d="M 101.800781 256.714844 C 105.828125 252.890625 108.289062 248.246094 109.179688 242.78125 L 115.089844 243.746094 C 113.980469 250.535156 110.925781 256.304688 105.925781 261.058594 Z M 109.46875 240.121094 C 109.773438 234.574219 108.378906 229.511719 105.285156 224.933594 L 110.246094 221.582031 C 114.089844 227.273438 115.824219 233.558594 115.449219 240.449219 Z M 103.675781 222.808594 C 103.359375 222.4375 103.035156 222.070312 102.699219 221.71875 C 99.234375 218.074219 95.0625 215.703125 90.179688 214.613281 L 91.488281 208.769531 C 97.554688 210.125 102.738281 213.066406 107.039062 217.59375 C 107.457031 218.03125 107.859375 218.480469 108.25 218.945312 Z M 87.539062 214.167969 C 82.015625 213.546875 76.878906 214.644531 72.128906 217.464844 L 69.070312 212.316406 C 74.972656 208.8125 81.355469 207.445312 88.210938 208.21875 Z M 69.921875 218.941406 C 69.144531 219.523438 68.40625 220.148438 67.699219 220.820312 C 64.429688 223.929688 62.179688 227.636719 60.949219 231.945312 L 55.191406 230.304688 C 56.71875 224.945312 59.515625 220.335938 63.574219 216.480469 C 64.449219 215.648438 65.367188 214.875 66.328125 214.152344 Z M 60.355469 234.550781 C 59.414062 240.027344 60.210938 245.21875 62.746094 250.125 L 57.425781 252.875 C 54.273438 246.777344 53.285156 240.332031 54.453125 233.535156 Z M 64.101562 252.429688 C 64.898438 253.632812 65.800781 254.765625 66.804688 255.820312 C 69.558594 258.71875 72.808594 260.824219 76.554688 262.136719 L 74.578125 267.789062 C 69.921875 266.160156 65.882812 263.542969 62.460938 259.945312 C 61.21875 258.636719 60.101562 257.234375 59.109375 255.742188 Z M 79.117188 262.878906 C 84.527344 264.136719 89.757812 263.644531 94.808594 261.398438 L 97.242188 266.867188 C 90.96875 269.65625 84.472656 270.273438 77.761719 268.710938 Z M 97.191406 260.179688 C 98.855469 259.210938 100.390625 258.054688 101.800781 256.714844 L 105.925781 261.058594 C 104.179688 262.71875 102.269531 264.148438 100.203125 265.351562 Z M 97.191406 260.179688 " fill-opacity="1" fill-rule="nonzero"/></g></g></g></g><g clip-path="url(#69f25cba04)"><g clip-path="url(#162d9557ad)"><g clip-path="url(#228935e60d)"><path fill="#ffde59" d="M 235.09375 238.957031 L 181.410156 224.402344 L 195.964844 170.71875 L 249.648438 185.269531 Z M 235.09375 238.957031 " fill-opacity="1" fill-rule="nonzero"/></g></g></g><g clip-path="url(#fb4b3cb087)"><g clip-path="url(#4f96b70599)"><g clip-path="url(#60d37986df)"><g clip-path="url(#0f45c78236)"><path fill="#000000" d="M 209.09375 228.804688 C 214.457031 230.257812 219.703125 229.945312 224.835938 227.871094 L 227.082031 233.421875 C 220.703125 236 214.183594 236.386719 207.527344 234.582031 Z M 227.257812 226.738281 C 232.15625 224.113281 235.757812 220.292969 238.0625 215.273438 L 243.503906 217.769531 C 240.636719 224.007812 236.164062 228.757812 230.085938 232.015625 Z M 239.042969 212.792969 C 239.195312 212.328125 239.339844 211.863281 239.464844 211.390625 C 240.78125 206.539062 240.636719 201.742188 239.035156 197.003906 L 244.707031 195.082031 C 246.699219 200.972656 246.878906 206.929688 245.246094 212.957031 C 245.085938 213.539062 244.910156 214.117188 244.71875 214.691406 Z M 238.042969 194.515625 C 235.703125 189.472656 232.097656 185.652344 227.21875 183.058594 L 230.03125 177.773438 C 236.089844 180.996094 240.574219 185.738281 243.472656 192 Z M 224.808594 181.941406 C 223.910156 181.582031 222.992188 181.273438 222.050781 181.015625 C 217.695312 179.835938 213.359375 179.839844 209.039062 181.027344 L 207.449219 175.253906 C 212.824219 173.777344 218.210938 173.773438 223.617188 175.238281 C 224.78125 175.554688 225.921875 175.9375 227.035156 176.382812 Z M 206.503906 181.875 C 201.335938 183.914062 197.3125 187.292969 194.4375 192.007812 L 189.324219 188.890625 C 192.898438 183.03125 197.890625 178.835938 204.304688 176.304688 Z M 193.171875 194.363281 C 192.558594 195.667969 192.058594 197.027344 191.679688 198.433594 C 190.632812 202.292969 190.523438 206.164062 191.347656 210.046875 L 185.492188 211.292969 C 184.464844 206.46875 184.601562 201.660156 185.898438 196.867188 C 186.371094 195.125 186.988281 193.441406 187.75 191.820312 Z M 192.042969 212.621094 C 193.78125 217.898438 196.917969 222.113281 201.460938 225.261719 L 198.050781 230.183594 C 192.410156 226.269531 188.511719 221.039062 186.355469 214.492188 Z M 203.738281 226.664062 C 205.433594 227.582031 207.21875 228.296875 209.09375 228.804688 L 207.527344 234.582031 C 205.199219 233.953125 202.984375 233.066406 200.882812 231.925781 Z M 203.738281 226.664062 " fill-opacity="1" fill-rule="nonzero"/></g></g></g></g><g clip-path="url(#7ca3b79273)"><g clip-path="url(#e5db7a8c6d)"><g clip-path="url(#85c6529025)"><path fill="#ffde59" d="M 154.539062 131.761719 L 100.785156 146.058594 L 86.488281 92.304688 L 140.242188 78.007812 Z M 154.539062 131.761719 " fill-opacity="1" fill-rule="nonzero"/></g></g></g><g clip-path="url(#2737d15b02)"><g clip-path="url(#68d57af835)"><g clip-path="url(#21c4593935)"><g clip-path="url(#97dcc484cf)"><path fill="#000000" d="M 126.949219 136.003906 C 132.316406 134.574219 136.703125 131.675781 140.105469 127.308594 L 144.828125 130.988281 C 140.601562 136.414062 135.15625 140.015625 128.488281 141.789062 Z M 141.632812 125.113281 C 144.558594 120.390625 145.761719 115.277344 145.242188 109.78125 L 151.203125 109.214844 C 151.847656 116.050781 150.355469 122.398438 146.722656 128.265625 Z M 144.847656 107.140625 C 144.75 106.664062 144.636719 106.1875 144.511719 105.714844 C 143.21875 100.855469 140.691406 96.777344 136.929688 93.480469 L 140.878906 88.976562 C 145.554688 93.078125 148.695312 98.144531 150.296875 104.175781 C 150.453125 104.761719 150.59375 105.347656 150.714844 105.941406 Z M 134.828125 91.824219 C 130.277344 88.628906 125.242188 87.132812 119.71875 87.332031 L 119.503906 81.347656 C 126.363281 81.101562 132.621094 82.960938 138.269531 86.925781 Z M 117.074219 87.570312 C 116.117188 87.707031 115.167969 87.902344 114.222656 88.152344 C 109.863281 89.3125 106.113281 91.488281 102.96875 94.683594 L 98.703125 90.480469 C 102.613281 86.511719 107.273438 83.804688 112.683594 82.367188 C 113.851562 82.054688 115.03125 81.816406 116.21875 81.644531 Z M 101.199219 96.683594 C 97.746094 101.035156 95.957031 105.976562 95.832031 111.496094 L 89.84375 111.359375 C 90.003906 104.5 92.222656 98.367188 96.507812 92.960938 Z M 95.914062 114.167969 C 96.039062 115.609375 96.289062 117.03125 96.664062 118.441406 C 97.691406 122.304688 99.535156 125.710938 102.195312 128.65625 L 97.75 132.671875 C 94.445312 129.007812 92.152344 124.777344 90.875 119.980469 C 90.414062 118.234375 90.101562 116.46875 89.949219 114.683594 Z M 104.085938 130.539062 C 108.230469 134.234375 113.058594 136.308594 118.570312 136.757812 L 118.082031 142.726562 C 111.238281 142.167969 105.246094 139.59375 100.101562 135.007812 Z M 121.242188 136.832031 C 123.167969 136.777344 125.070312 136.503906 126.949219 136.003906 L 128.488281 141.789062 C 126.160156 142.410156 123.796875 142.75 121.40625 142.816406 Z M 121.242188 136.832031 " fill-opacity="1" fill-rule="nonzero"/></g></g></g></g><g clip-path="url(#a58b5d30d3)"><g clip-path="url(#54ded2e32e)"><g clip-path="url(#f035668f11)"><path fill="#707070" d="M 84.644531 248.636719 L 74.796875 238.742188 L 84.695312 228.894531 L 94.539062 238.792969 Z M 84.644531 248.636719 " fill-opacity="1" fill-rule="nonzero"/></g></g></g><g clip-path="url(#8a13175095)"><g clip-path="url(#f8cfa311f3)"><g clip-path="url(#ee4e03caca)"><path fill="#707070" d="M 206.972656 209.75 L 210.625 196.277344 L 224.097656 199.929688 L 220.445312 213.402344 Z M 206.972656 209.75 " fill-opacity="1" fill-rule="nonzero"/></g></g></g><g clip-path="url(#22dfa2e2cd)"><g clip-path="url(#22ac19b5f8)"><g clip-path="url(#d2027d2f76)"><path fill="#707070" d="M 119.492188 122.191406 L 109.648438 112.296875 L 119.542969 102.453125 L 129.390625 112.347656 Z M 119.492188 122.191406 " fill-opacity="1" fill-rule="nonzero"/></g></g></g><g clip-path="url(#0e9d797475)"><g clip-path="url(#9e32e290b6)"><g clip-path="url(#a8dcf738f6)"><g clip-path="url(#b24052714e)"><path fill="#ffffff" d="M 79.9375 190.726562 C 79.902344 190.746094 79.863281 190.742188 79.828125 190.71875 C 79.703125 190.792969 79.75 191.023438 79.542969 191.023438 C 79.171875 191.28125 78.871094 191.105469 78.585938 190.863281 C 77.789062 190.179688 77.117188 189.382812 76.496094 188.546875 C 74.269531 185.546875 72.777344 182.230469 71.867188 178.617188 C 70.273438 172.3125 70.980469 166.226562 73.363281 160.277344 C 74.46875 157.519531 76.042969 155.007812 77.730469 152.570312 C 78.726562 151.136719 79.804688 149.765625 80.847656 148.371094 C 80.90625 148.335938 80.96875 148.304688 81.027344 148.269531 C 81.042969 148.195312 81.085938 148.113281 81.070312 148.046875 C 81.070312 148.046875 81.070312 148.046875 81.066406 148.046875 C 81.054688 147.992188 80.976562 148.015625 80.941406 148.0625 C 80.277344 148.253906 79.675781 148.574219 79.09375 148.925781 C 78.695312 149.167969 78.292969 149.375 77.828125 149.457031 C 76.972656 149.980469 76.179688 149.863281 75.597656 149.15625 C 76.636719 147.457031 78.300781 146.601562 80.0625 145.871094 C 80.71875 145.601562 81.351562 145.285156 81.992188 144.980469 C 83.527344 144.246094 83.347656 144.4375 84.503906 145.199219 C 84.761719 145.371094 84.976562 145.597656 85.167969 145.84375 C 85.238281 145.933594 85.292969 146.023438 85.269531 146.144531 C 85.554688 146.355469 85.507812 146.644531 85.445312 146.925781 C 85.265625 147.757812 85.074219 148.585938 84.886719 149.417969 C 84.953125 149.609375 84.890625 149.789062 84.820312 149.964844 C 84.894531 150.15625 84.828125 150.332031 84.773438 150.511719 C 84.847656 150.636719 84.789062 150.769531 84.78125 150.898438 C 84.722656 152.644531 84.859375 154.371094 85.296875 156.074219 C 85.328125 156.203125 85.351562 156.332031 85.378906 156.460938 C 85.414062 156.613281 85.453125 156.789062 85.296875 156.878906 C 85.175781 156.945312 84.996094 156.886719 84.921875 156.796875 C 84.601562 156.394531 84.085938 156.253906 83.742188 155.890625 C 83.589844 155.730469 83.515625 155.523438 83.445312 155.308594 C 82.882812 153.664062 82.632812 151.96875 82.554688 150.246094 C 82.546875 150.09375 82.5625 149.933594 82.527344 149.785156 C 82.480469 149.613281 82.335938 149.636719 82.203125 149.695312 C 82.191406 149.871094 82.101562 149.980469 81.9375 150.03125 C 81.894531 150.191406 81.84375 150.339844 81.660156 150.390625 C 81.671875 150.433594 81.65625 150.457031 81.613281 150.460938 C 81.578125 150.613281 81.519531 150.75 81.355469 150.804688 C 81.308594 150.902344 81.273438 151.011719 81.210938 151.097656 C 80.53125 152.070312 79.835938 153.027344 79.167969 154.007812 C 78.5625 154.894531 77.984375 155.800781 77.394531 156.699219 C 77.269531 156.957031 77.152344 157.21875 77.015625 157.464844 C 75.707031 159.902344 74.714844 162.457031 74.113281 165.152344 C 73.898438 166.117188 73.714844 167.085938 73.515625 168.050781 C 73.589844 168.253906 73.511719 168.4375 73.441406 168.621094 C 73.515625 168.8125 73.445312 168.988281 73.378906 169.164062 C 73.460938 169.34375 73.382812 169.507812 73.335938 169.671875 C 73.402344 169.785156 73.378906 169.894531 73.316406 170 C 73.339844 170.042969 73.332031 170.078125 73.300781 170.113281 C 73.371094 170.242188 73.316406 170.371094 73.316406 170.5 C 73.3125 171.132812 73.195312 171.757812 73.269531 172.390625 C 73.210938 172.4375 73.152344 172.609375 73.101562 172.375 C 73.0625 172.21875 73.019531 172.203125 72.976562 172.238281 C 72.941406 172.265625 72.902344 172.332031 72.867188 172.378906 C 72.921875 174.375 73.21875 176.339844 73.644531 178.289062 C 73.703125 178.464844 73.757812 178.644531 73.816406 178.820312 C 74.152344 179.878906 74.492188 180.9375 74.828125 181.996094 C 74.867188 182.023438 74.890625 182.054688 74.898438 182.09375 C 74.90625 182.117188 74.90625 182.144531 74.902344 182.175781 C 74.964844 182.21875 74.984375 182.277344 74.96875 182.347656 C 75.035156 182.390625 75.054688 182.449219 75.039062 182.523438 C 75.105469 182.5625 75.128906 182.621094 75.109375 182.695312 C 75.179688 182.738281 75.203125 182.796875 75.183594 182.871094 C 75.253906 182.910156 75.277344 182.964844 75.257812 183.039062 L 75.261719 183.042969 C 75.328125 183.078125 75.351562 183.136719 75.335938 183.210938 L 75.335938 183.214844 C 75.363281 183.265625 75.390625 183.324219 75.410156 183.378906 L 75.414062 183.386719 C 75.480469 183.421875 75.507812 183.476562 75.492188 183.554688 L 75.492188 183.558594 C 75.5625 183.59375 75.585938 183.648438 75.570312 183.726562 L 75.574219 183.730469 C 75.574219 183.730469 75.574219 183.734375 75.574219 183.734375 C 75.574219 183.734375 75.574219 183.730469 75.574219 183.730469 C 75.640625 183.765625 75.667969 183.824219 75.652344 183.898438 L 75.652344 183.902344 C 75.722656 183.9375 75.746094 183.992188 75.730469 184.066406 L 75.730469 184.070312 C 75.800781 184.105469 75.828125 184.164062 75.8125 184.238281 C 76.09375 184.742188 76.378906 185.246094 76.660156 185.75 C 76.722656 186.058594 76.921875 186.300781 77.085938 186.558594 C 77.121094 186.554688 77.152344 186.542969 77.179688 186.53125 C 77.222656 186.507812 77.253906 186.472656 77.28125 186.425781 C 77.421875 186.605469 77.578125 186.777344 77.628906 187.011719 C 77.636719 187.085938 77.65625 187.15625 77.703125 187.214844 C 77.679688 187.148438 77.652344 187.082031 77.628906 187.011719 C 77.6875 187.0625 77.734375 187.113281 77.707031 187.195312 C 77.816406 187.234375 77.871094 187.316406 77.894531 187.429688 C 77.96875 187.453125 78.003906 187.5 77.996094 187.578125 C 78.058594 187.621094 78.105469 187.671875 78.101562 187.753906 C 78.136719 187.769531 78.160156 187.792969 78.167969 187.835938 C 78.339844 187.988281 78.46875 188.167969 78.554688 188.378906 C 78.671875 188.492188 78.789062 188.605469 78.832031 188.765625 C 78.933594 188.8125 78.972656 188.90625 79.019531 188.996094 C 79.472656 189.445312 79.839844 189.972656 80.402344 190.355469 C 80.195312 190.472656 80.179688 190.730469 79.9375 190.726562 Z M 81.488281 150.417969 C 81.484375 150.417969 81.484375 150.417969 81.484375 150.421875 C 81.484375 150.421875 81.484375 150.417969 81.484375 150.417969 C 81.484375 150.421875 81.484375 150.421875 81.484375 150.421875 C 81.488281 150.421875 81.488281 150.421875 81.492188 150.421875 C 81.488281 150.417969 81.488281 150.417969 81.488281 150.417969 Z M 75.300781 184.019531 C 75.292969 184.007812 75.285156 183.996094 75.277344 183.984375 C 75.277344 183.988281 75.277344 183.992188 75.28125 183.996094 C 75.285156 184.007812 75.289062 184.019531 75.296875 184.03125 C 75.296875 184.027344 75.300781 184.023438 75.300781 184.019531 Z M 74.824219 182.007812 C 74.816406 182.011719 74.8125 182.011719 74.808594 182.015625 L 74.792969 182.023438 L 74.824219 182.007812 C 74.824219 182.007812 74.824219 182.011719 74.828125 182.011719 C 74.824219 182.011719 74.824219 182.007812 74.824219 182.007812 Z M 75.265625 184.078125 C 75.277344 184.0625 75.285156 184.046875 75.292969 184.03125 C 75.289062 184.019531 75.285156 184.011719 75.277344 184 C 75.285156 184.023438 75.285156 184.050781 75.265625 184.078125 Z M 75.238281 183.921875 C 75.234375 183.910156 75.226562 183.894531 75.21875 183.882812 C 75.21875 183.882812 75.21875 183.882812 75.21875 183.878906 C 75.226562 183.894531 75.234375 183.910156 75.238281 183.921875 Z M 78.851562 190.195312 C 78.851562 190.195312 78.855469 190.199219 78.851562 190.199219 C 78.851562 190.199219 78.855469 190.203125 78.855469 190.203125 C 78.855469 190.203125 78.859375 190.203125 78.859375 190.203125 C 78.859375 190.203125 78.855469 190.199219 78.851562 190.195312 Z M 78.652344 189.992188 C 78.648438 189.992188 78.644531 189.992188 78.644531 189.988281 C 78.648438 189.988281 78.652344 189.992188 78.652344 189.992188 Z M 77.695312 187.328125 C 77.6875 187.339844 77.679688 187.351562 77.664062 187.359375 C 77.675781 187.363281 77.683594 187.367188 77.691406 187.371094 C 77.691406 187.355469 77.695312 187.34375 77.695312 187.328125 Z M 78.023438 187.703125 C 78.035156 187.726562 78.054688 187.742188 78.078125 187.757812 C 78.078125 187.757812 78.078125 187.757812 78.078125 187.753906 C 78.054688 187.742188 78.039062 187.726562 78.023438 187.703125 Z M 78.023438 187.703125 " fill-opacity="1" fill-rule="nonzero"/></g></g></g></g><g clip-path="url(#f6aa43eb23)"><g clip-path="url(#73e2f2f241)"><g clip-path="url(#9a48e05c59)"><g clip-path="url(#b930e691bd)"><path fill="#ffffff" d="M 75.414062 183.390625 C 75.386719 183.335938 75.363281 183.28125 75.335938 183.226562 C 75.40625 183.261719 75.429688 183.320312 75.414062 183.390625 Z M 75.414062 183.390625 " fill-opacity="1" fill-rule="nonzero"/></g></g></g></g><g clip-path="url(#83dc2c200b)"><g clip-path="url(#d1193d18de)"><g clip-path="url(#f526b0441c)"><g clip-path="url(#51e803b998)"><path fill="#ffffff" d="M 166.25 124.75 C 166.257812 124.707031 166.28125 124.679688 166.320312 124.664062 C 166.332031 124.519531 166.121094 124.425781 166.238281 124.257812 C 166.238281 123.804688 166.558594 123.660156 166.921875 123.566406 C 167.9375 123.304688 168.972656 123.214844 170.015625 123.1875 C 173.75 123.097656 177.320312 123.785156 180.800781 125.121094 C 186.871094 127.445312 191.445312 131.527344 194.933594 136.902344 C 196.550781 139.390625 197.703125 142.121094 198.722656 144.910156 C 199.324219 146.546875 199.824219 148.214844 200.367188 149.875 C 200.359375 149.941406 200.351562 150.011719 200.34375 150.078125 C 200.394531 150.136719 200.4375 150.214844 200.5 150.238281 C 200.5 150.238281 200.5 150.238281 200.503906 150.238281 C 200.554688 150.257812 200.582031 150.183594 200.5625 150.125 C 200.789062 149.476562 200.871094 148.800781 200.917969 148.121094 C 200.949219 147.65625 201.015625 147.207031 201.214844 146.78125 C 201.277344 145.777344 201.828125 145.199219 202.742188 145.128906 C 203.535156 146.957031 203.277344 148.808594 202.859375 150.667969 C 202.703125 151.363281 202.597656 152.0625 202.476562 152.761719 C 202.195312 154.4375 202.140625 154.179688 200.851562 154.6875 C 200.5625 154.800781 200.253906 154.847656 199.945312 154.859375 C 199.828125 154.863281 199.722656 154.859375 199.640625 154.773438 C 199.304688 154.882812 199.09375 154.679688 198.898438 154.464844 C 198.324219 153.839844 197.753906 153.207031 197.183594 152.574219 C 196.984375 152.519531 196.875 152.363281 196.773438 152.207031 C 196.574219 152.15625 196.46875 152 196.355469 151.851562 C 196.207031 151.839844 196.132812 151.714844 196.03125 151.636719 C 194.640625 150.582031 193.148438 149.699219 191.503906 149.078125 C 191.382812 149.03125 191.261719 148.972656 191.140625 148.921875 C 190.996094 148.863281 190.832031 148.792969 190.847656 148.613281 C 190.859375 148.480469 191.011719 148.363281 191.128906 148.355469 C 191.640625 148.324219 192.054688 147.988281 192.546875 147.914062 C 192.765625 147.878906 192.980469 147.941406 193.195312 148.003906 C 194.863281 148.492188 196.394531 149.261719 197.847656 150.1875 C 197.976562 150.273438 198.097656 150.378906 198.242188 150.429688 C 198.40625 150.492188 198.472656 150.363281 198.503906 150.21875 C 198.363281 150.109375 198.328125 149.972656 198.378906 149.808594 C 198.273438 149.683594 198.179688 149.554688 198.246094 149.375 C 198.203125 149.359375 198.191406 149.332031 198.214844 149.292969 C 198.109375 149.179688 198.03125 149.054688 198.082031 148.886719 C 198.027344 148.792969 197.960938 148.703125 197.925781 148.601562 C 197.519531 147.488281 197.136719 146.367188 196.722656 145.257812 C 196.34375 144.25 195.9375 143.253906 195.539062 142.253906 C 195.402344 142.003906 195.257812 141.757812 195.132812 141.503906 C 193.894531 139.035156 192.375 136.75 190.515625 134.707031 C 189.851562 133.976562 189.167969 133.269531 188.488281 132.550781 C 188.28125 132.492188 188.175781 132.324219 188.066406 132.160156 C 187.867188 132.109375 187.765625 131.953125 187.660156 131.796875 C 187.464844 131.761719 187.378906 131.605469 187.269531 131.46875 C 187.136719 131.457031 187.0625 131.375 187.011719 131.265625 C 186.964844 131.257812 186.9375 131.234375 186.925781 131.1875 C 186.785156 131.171875 186.707031 131.050781 186.605469 130.976562 C 186.089844 130.609375 185.644531 130.152344 185.082031 129.851562 C 185.082031 129.777344 184.972656 129.628906 185.195312 129.722656 C 185.34375 129.78125 185.378906 129.753906 185.378906 129.699219 C 185.375 129.652344 185.34375 129.582031 185.328125 129.527344 C 183.664062 128.425781 181.886719 127.535156 180.046875 126.765625 C 179.867188 126.707031 179.691406 126.652344 179.511719 126.597656 C 178.453125 126.261719 177.390625 125.929688 176.332031 125.597656 C 176.289062 125.613281 176.25 125.613281 176.214844 125.597656 C 176.1875 125.589844 176.167969 125.574219 176.144531 125.554688 C 176.074219 125.578125 176.011719 125.5625 175.960938 125.507812 C 175.890625 125.539062 175.832031 125.523438 175.78125 125.464844 C 175.710938 125.496094 175.648438 125.480469 175.597656 125.425781 C 175.527344 125.457031 175.464844 125.445312 175.414062 125.386719 C 175.339844 125.417969 175.28125 125.40625 175.230469 125.347656 L 175.226562 125.347656 C 175.160156 125.378906 175.097656 125.367188 175.046875 125.3125 L 175.042969 125.308594 C 174.984375 125.300781 174.925781 125.292969 174.863281 125.277344 L 174.859375 125.277344 C 174.789062 125.308594 174.730469 125.300781 174.679688 125.242188 L 174.671875 125.242188 C 174.601562 125.273438 174.542969 125.265625 174.492188 125.207031 L 174.484375 125.207031 C 174.417969 125.242188 174.355469 125.230469 174.304688 125.175781 L 174.300781 125.171875 C 174.230469 125.210938 174.171875 125.199219 174.121094 125.140625 L 174.117188 125.140625 C 174.046875 125.175781 173.984375 125.167969 173.933594 125.109375 C 173.355469 125.050781 172.78125 124.992188 172.207031 124.933594 C 171.917969 124.808594 171.609375 124.832031 171.304688 124.816406 C 171.285156 124.847656 171.277344 124.878906 171.273438 124.910156 C 171.265625 124.957031 171.273438 125.003906 171.300781 125.050781 C 171.070312 125.0625 170.839844 125.09375 170.617188 125 C 170.554688 124.964844 170.488281 124.9375 170.410156 124.941406 C 170.480469 124.960938 170.550781 124.980469 170.617188 125 C 170.542969 125.015625 170.472656 125.027344 170.425781 124.960938 C 170.328125 125.027344 170.230469 125.023438 170.125 124.980469 C 170.0625 125.023438 170.003906 125.027344 169.945312 124.972656 C 169.875 125 169.804688 125.011719 169.742188 124.957031 C 169.707031 124.976562 169.671875 124.984375 169.636719 124.96875 C 169.410156 125.019531 169.191406 125.019531 168.96875 124.972656 C 168.808594 125 168.648438 125.03125 168.492188 124.972656 C 168.394531 125.027344 168.296875 125.007812 168.195312 124.996094 C 167.566406 125.105469 166.925781 125.101562 166.289062 125.339844 C 166.3125 125.105469 166.109375 124.945312 166.25 124.75 Z M 198.324219 149.21875 C 198.320312 149.21875 198.320312 149.21875 198.320312 149.214844 C 198.320312 149.214844 198.324219 149.214844 198.324219 149.214844 C 198.320312 149.214844 198.320312 149.214844 198.320312 149.214844 C 198.320312 149.21875 198.320312 149.21875 198.316406 149.21875 C 198.320312 149.21875 198.320312 149.21875 198.324219 149.21875 Z M 174.40625 124.820312 C 174.417969 124.820312 174.433594 124.820312 174.449219 124.820312 C 174.445312 124.816406 174.441406 124.816406 174.4375 124.816406 C 174.425781 124.8125 174.414062 124.808594 174.398438 124.808594 C 174.402344 124.808594 174.402344 124.8125 174.40625 124.820312 Z M 176.324219 125.589844 C 176.328125 125.585938 176.324219 125.585938 176.328125 125.585938 C 176.328125 125.578125 176.328125 125.574219 176.328125 125.570312 L 176.328125 125.550781 L 176.324219 125.585938 C 176.324219 125.585938 176.324219 125.585938 176.320312 125.585938 C 176.324219 125.585938 176.324219 125.585938 176.324219 125.589844 Z M 174.375 124.753906 C 174.382812 124.773438 174.390625 124.789062 174.398438 124.804688 C 174.410156 124.808594 174.421875 124.808594 174.4375 124.8125 C 174.410156 124.804688 174.390625 124.785156 174.375 124.753906 Z M 174.519531 124.824219 C 174.535156 124.828125 174.550781 124.828125 174.5625 124.832031 C 174.566406 124.828125 174.566406 124.832031 174.566406 124.828125 C 174.550781 124.828125 174.535156 124.828125 174.519531 124.824219 Z M 167.3125 124.167969 C 167.3125 124.167969 167.308594 124.167969 167.308594 124.164062 C 167.308594 124.164062 167.304688 124.164062 167.304688 124.164062 C 167.304688 124.167969 167.300781 124.167969 167.300781 124.167969 C 167.304688 124.167969 167.308594 124.167969 167.3125 124.167969 Z M 167.589844 124.121094 C 167.59375 124.117188 167.597656 124.113281 167.601562 124.117188 C 167.597656 124.117188 167.59375 124.117188 167.589844 124.121094 Z M 170.324219 124.871094 C 170.316406 124.859375 170.3125 124.84375 170.3125 124.828125 C 170.304688 124.832031 170.296875 124.839844 170.289062 124.84375 C 170.300781 124.851562 170.3125 124.863281 170.324219 124.871094 Z M 169.824219 124.925781 C 169.800781 124.921875 169.777344 124.925781 169.75 124.9375 C 169.75 124.9375 169.75 124.9375 169.753906 124.9375 C 169.777344 124.929688 169.800781 124.921875 169.824219 124.925781 Z M 169.824219 124.925781 " fill-opacity="1" fill-rule="nonzero"/></g></g></g></g><g clip-path="url(#315a2a4936)"><g clip-path="url(#dfbe4b47cc)"><g clip-path="url(#ec7da84131)"><g clip-path="url(#8e803dc423)"><path fill="#ffffff" d="M 174.855469 125.273438 C 174.914062 125.28125 174.976562 125.296875 175.035156 125.304688 C 174.964844 125.339844 174.90625 125.328125 174.855469 125.273438 Z M 174.855469 125.273438 " fill-opacity="1" fill-rule="nonzero"/></g></g></g></g><g clip-path="url(#67e2302ff7)"><g clip-path="url(#ccbe38b1ca)"><g clip-path="url(#f96a8e6be8)"><g clip-path="url(#207a115a30)"><path fill="#ffffff" d="M 180.472656 238.597656 C 180.503906 238.628906 180.511719 238.664062 180.503906 238.707031 C 180.617188 238.796875 180.816406 238.675781 180.886719 238.867188 C 181.253906 239.128906 181.191406 239.472656 181.0625 239.824219 C 180.699219 240.808594 180.179688 241.710938 179.609375 242.582031 C 177.558594 245.703125 174.953125 248.246094 171.875 250.34375 C 166.503906 254.007812 160.542969 255.433594 154.140625 255.242188 C 151.171875 255.152344 148.273438 254.539062 145.398438 253.789062 C 143.710938 253.351562 142.054688 252.808594 140.382812 252.308594 C 140.332031 252.265625 140.28125 252.21875 140.230469 252.175781 C 140.152344 252.183594 140.0625 252.171875 140.007812 252.210938 C 140.007812 252.210938 140.007812 252.210938 140.003906 252.214844 C 139.960938 252.246094 140.007812 252.308594 140.066406 252.328125 C 140.472656 252.882812 140.980469 253.335938 141.511719 253.761719 C 141.875 254.054688 142.207031 254.363281 142.441406 254.769531 C 143.230469 255.390625 143.390625 256.175781 142.929688 256.96875 C 140.976562 256.578125 139.601562 255.308594 138.308594 253.90625 C 137.828125 253.382812 137.316406 252.894531 136.808594 252.398438 C 135.59375 251.210938 135.835938 251.3125 136.152344 249.964844 C 136.222656 249.664062 136.363281 249.386719 136.527344 249.121094 C 136.589844 249.023438 136.65625 248.941406 136.773438 248.921875 C 136.875 248.582031 137.164062 248.527344 137.445312 248.488281 C 138.289062 248.371094 139.136719 248.265625 139.980469 248.152344 C 140.140625 248.027344 140.328125 248.023438 140.515625 248.027344 C 140.667969 247.894531 140.859375 247.894531 141.046875 247.886719 C 141.140625 247.773438 141.285156 247.785156 141.40625 247.742188 C 143.066406 247.199219 144.640625 246.476562 146.089844 245.484375 C 146.199219 245.40625 146.3125 245.34375 146.425781 245.273438 C 146.558594 245.1875 146.707031 245.089844 146.84375 245.207031 C 146.949219 245.292969 146.957031 245.484375 146.898438 245.585938 C 146.628906 246.023438 146.671875 246.554688 146.453125 247.003906 C 146.355469 247.203125 146.183594 247.34375 146.007812 247.484375 C 144.65625 248.578125 143.152344 249.394531 141.558594 250.0625 C 141.417969 250.121094 141.261719 250.160156 141.136719 250.246094 C 140.992188 250.347656 141.0625 250.476562 141.164062 250.582031 C 141.332031 250.53125 141.464844 250.578125 141.570312 250.714844 C 141.734375 250.699219 141.894531 250.695312 142.003906 250.851562 C 142.039062 250.824219 142.066406 250.832031 142.085938 250.871094 C 142.242188 250.851562 142.386719 250.859375 142.496094 250.996094 C 142.605469 251.003906 142.71875 251 142.820312 251.027344 C 143.96875 251.332031 145.109375 251.65625 146.257812 251.945312 C 147.300781 252.210938 148.347656 252.441406 149.394531 252.6875 C 149.679688 252.71875 149.964844 252.738281 150.246094 252.78125 C 152.980469 253.171875 155.722656 253.222656 158.460938 252.863281 C 159.4375 252.734375 160.414062 252.574219 161.386719 252.425781 C 161.554688 252.289062 161.75 252.296875 161.949219 252.300781 C 162.105469 252.167969 162.292969 252.171875 162.480469 252.171875 C 162.617188 252.035156 162.800781 252.050781 162.972656 252.039062 C 163.054688 251.9375 163.164062 251.921875 163.285156 251.941406 C 163.316406 251.910156 163.355469 251.898438 163.398438 251.917969 C 163.492188 251.808594 163.636719 251.816406 163.753906 251.773438 C 164.347656 251.558594 164.980469 251.453125 165.546875 251.164062 C 165.609375 251.207031 165.792969 251.199219 165.589844 251.332031 C 165.457031 251.417969 165.457031 251.464844 165.503906 251.492188 C 165.542969 251.519531 165.617188 251.53125 165.675781 251.550781 C 167.527344 250.8125 169.273438 249.855469 170.953125 248.785156 C 171.101562 248.671875 171.25 248.558594 171.398438 248.445312 C 172.273438 247.761719 173.152344 247.078125 174.03125 246.398438 C 174.042969 246.355469 174.066406 246.324219 174.097656 246.300781 C 174.121094 246.285156 174.144531 246.277344 174.171875 246.269531 C 174.191406 246.199219 174.242188 246.15625 174.3125 246.144531 C 174.328125 246.070312 174.378906 246.03125 174.453125 246.019531 C 174.46875 245.945312 174.515625 245.902344 174.589844 245.894531 C 174.605469 245.816406 174.652344 245.773438 174.730469 245.765625 C 174.742188 245.6875 174.789062 245.644531 174.863281 245.636719 L 174.867188 245.632812 C 174.878906 245.558594 174.921875 245.515625 174.996094 245.507812 L 175 245.503906 C 175.039062 245.460938 175.085938 245.417969 175.128906 245.375 L 175.136719 245.371094 C 175.148438 245.296875 175.1875 245.253906 175.265625 245.242188 L 175.269531 245.238281 C 175.28125 245.164062 175.324219 245.117188 175.398438 245.109375 L 175.402344 245.105469 C 175.402344 245.105469 175.40625 245.101562 175.40625 245.101562 C 175.40625 245.101562 175.402344 245.105469 175.402344 245.105469 C 175.414062 245.027344 175.457031 244.984375 175.535156 244.972656 C 175.546875 244.894531 175.589844 244.851562 175.667969 244.839844 C 175.679688 244.761719 175.722656 244.714844 175.796875 244.703125 C 176.175781 244.265625 176.550781 243.828125 176.929688 243.390625 C 177.195312 243.222656 177.351562 242.953125 177.539062 242.714844 C 177.523438 242.679688 177.503906 242.65625 177.480469 242.632812 C 177.445312 242.601562 177.402344 242.582031 177.347656 242.574219 C 177.46875 242.378906 177.574219 242.171875 177.777344 242.046875 C 177.84375 242.011719 177.902344 241.972656 177.941406 241.90625 C 177.890625 241.953125 177.835938 242 177.777344 242.046875 C 177.804688 241.972656 177.839844 241.910156 177.921875 241.910156 C 177.921875 241.792969 177.980469 241.710938 178.078125 241.652344 C 178.074219 241.578125 178.105469 241.523438 178.183594 241.507812 C 178.203125 241.433594 178.234375 241.371094 178.3125 241.347656 C 178.316406 241.308594 178.332031 241.277344 178.367188 241.253906 C 178.449219 241.042969 178.574219 240.859375 178.742188 240.707031 C 178.8125 240.558594 178.875 240.410156 179.011719 240.3125 C 179.019531 240.203125 179.09375 240.132812 179.164062 240.054688 C 179.429688 239.476562 179.800781 238.953125 179.964844 238.292969 C 180.148438 238.445312 180.394531 238.371094 180.472656 238.597656 Z M 142.085938 251.003906 C 142.089844 251.003906 142.089844 251.003906 142.089844 251.003906 C 142.089844 251.007812 142.089844 251.007812 142.089844 251.007812 C 142.089844 251.007812 142.09375 251.003906 142.09375 251.003906 C 142.09375 251.003906 142.089844 251.003906 142.089844 251.003906 C 142.089844 251.003906 142.089844 251 142.09375 251 C 142.089844 251 142.089844 251.003906 142.085938 251.003906 Z M 175.769531 245.257812 C 175.761719 245.273438 175.75 245.285156 175.742188 245.296875 C 175.746094 245.292969 175.75 245.292969 175.753906 245.289062 C 175.761719 245.28125 175.769531 245.273438 175.78125 245.261719 C 175.777344 245.261719 175.773438 245.261719 175.769531 245.257812 Z M 174.042969 246.398438 C 174.042969 246.398438 174.042969 246.398438 174.042969 246.402344 C 174.046875 246.40625 174.050781 246.410156 174.054688 246.414062 L 174.070312 246.421875 L 174.042969 246.398438 C 174.042969 246.398438 174.046875 246.398438 174.042969 246.394531 C 174.046875 246.398438 174.042969 246.398438 174.042969 246.398438 Z M 175.835938 245.273438 C 175.820312 245.269531 175.800781 245.265625 175.785156 245.261719 C 175.773438 245.269531 175.765625 245.28125 175.757812 245.289062 C 175.777344 245.273438 175.804688 245.265625 175.835938 245.273438 Z M 175.699219 245.351562 C 175.6875 245.363281 175.675781 245.371094 175.667969 245.382812 C 175.667969 245.386719 175.667969 245.386719 175.667969 245.386719 C 175.675781 245.375 175.6875 245.363281 175.699219 245.351562 Z M 180.347656 239.800781 C 180.347656 239.800781 180.347656 239.800781 180.351562 239.800781 C 180.351562 239.800781 180.351562 239.796875 180.351562 239.796875 C 180.351562 239.796875 180.355469 239.792969 180.351562 239.792969 C 180.351562 239.792969 180.347656 239.796875 180.347656 239.800781 Z M 180.226562 240.058594 C 180.226562 240.0625 180.226562 240.066406 180.222656 240.066406 C 180.222656 240.066406 180.226562 240.0625 180.226562 240.058594 Z M 178.050781 241.875 C 178.066406 241.878906 178.078125 241.882812 178.09375 241.890625 C 178.09375 241.882812 178.09375 241.875 178.09375 241.863281 C 178.078125 241.867188 178.066406 241.871094 178.050781 241.875 Z M 178.292969 241.4375 C 178.308594 241.417969 178.320312 241.394531 178.324219 241.367188 C 178.324219 241.367188 178.324219 241.367188 178.320312 241.367188 C 178.316406 241.394531 178.308594 241.417969 178.292969 241.4375 Z M 178.292969 241.4375 " fill-opacity="1" fill-rule="nonzero"/></g></g></g></g><g clip-path="url(#242c8698a8)"><g clip-path="url(#ebddebce1e)"><g clip-path="url(#de2d110824)"><g clip-path="url(#e9a53c3ad4)"><path fill="#ffffff" d="M 175.140625 245.371094 C 175.097656 245.414062 175.050781 245.457031 175.011719 245.5 C 175.023438 245.421875 175.066406 245.378906 175.140625 245.371094 Z M 175.140625 245.371094 " fill-opacity="1" fill-rule="nonzero"/></g></g></g></g><path stroke-linecap="butt" transform="matrix(0.74987, 0.00605191, -0.00605275, 0.749976, 136.490312, 77.868268)" fill="none" stroke-linejoin="miter" d="M -0.00220337 1.998642 L 223.036361 2.000981 " stroke="#000000" stroke-width="4" stroke-opacity="1" stroke-miterlimit="4"/><path stroke-linecap="butt" transform="matrix(0.750617, -0.00364086, 0.00363783, 0.749991, 135.126205, 291.168432)" fill="none" stroke-linejoin="miter" d="M -0.000887235 1.999401 L 224.814281 2.002221 " stroke="#000000" stroke-width="4" stroke-opacity="1" stroke-miterlimit="4"/><g clip-path="url(#142f6725d7)"><path fill="#38b6ff" d="M 266.714844 306.992188 L 275.207031 297.5 C 275.390625 297.296875 275.644531 297.183594 275.910156 297.183594 L 281.574219 297.183594 C 281.945312 297.183594 282.28125 297.402344 282.4375 297.746094 C 282.585938 298.089844 282.523438 298.488281 282.273438 298.765625 L 274.351562 307.628906 L 282.273438 316.484375 C 282.523438 316.765625 282.589844 317.164062 282.4375 317.507812 C 282.28125 317.851562 281.945312 318.070312 281.574219 318.070312 L 275.910156 318.070312 C 275.644531 318.070312 275.390625 317.953125 275.207031 317.757812 L 266.714844 308.261719 C 266.394531 307.902344 266.394531 307.351562 266.714844 306.992188 Z M 266.714844 306.992188 " fill-opacity="1" fill-rule="nonzero"/></g><g clip-path="url(#d3aa3f2520)"><path fill="#38b6ff" d="M 278.984375 306.992188 L 287.476562 297.5 C 287.660156 297.296875 287.910156 297.183594 288.179688 297.183594 L 293.839844 297.183594 C 294.214844 297.183594 294.550781 297.402344 294.703125 297.746094 C 294.855469 298.089844 294.792969 298.488281 294.542969 298.765625 L 286.617188 307.628906 L 294.542969 316.484375 C 294.792969 316.765625 294.855469 317.164062 294.703125 317.507812 C 294.550781 317.851562 294.214844 318.070312 293.839844 318.070312 L 288.179688 318.070312 C 287.910156 318.070312 287.660156 317.953125 287.476562 317.757812 L 278.984375 308.261719 C 278.660156 307.902344 278.660156 307.351562 278.984375 306.992188 Z M 278.984375 306.992188 " fill-opacity="1" fill-rule="nonzero"/></g><g clip-path="url(#5bfe94ce04)"><path fill="#38b6ff" d="M 229.589844 306.992188 L 238.082031 297.5 C 238.265625 297.296875 238.519531 297.183594 238.785156 297.183594 L 244.449219 297.183594 C 244.820312 297.183594 245.15625 297.402344 245.3125 297.746094 C 245.460938 298.089844 245.398438 298.488281 245.148438 298.765625 L 237.226562 307.628906 L 245.148438 316.484375 C 245.398438 316.765625 245.464844 317.164062 245.3125 317.507812 C 245.15625 317.851562 244.820312 318.070312 244.449219 318.070312 L 238.785156 318.070312 C 238.519531 318.070312 238.265625 317.953125 238.082031 317.757812 L 229.589844 308.261719 C 229.269531 307.902344 229.269531 307.351562 229.589844 306.992188 Z M 229.589844 306.992188 " fill-opacity="1" fill-rule="nonzero"/></g><g clip-path="url(#5b6750b6d2)"><path fill="#38b6ff" d="M 241.859375 306.992188 L 250.351562 297.5 C 250.535156 297.296875 250.785156 297.183594 251.054688 297.183594 L 256.714844 297.183594 C 257.089844 297.183594 257.425781 297.402344 257.578125 297.746094 C 257.730469 298.089844 257.667969 298.488281 257.417969 298.765625 L 249.492188 307.628906 L 257.417969 316.484375 C 257.667969 316.765625 257.730469 317.164062 257.578125 317.507812 C 257.425781 317.851562 257.089844 318.070312 256.714844 318.070312 L 251.054688 318.070312 C 250.785156 318.070312 250.535156 317.953125 250.351562 317.757812 L 241.859375 308.261719 C 241.535156 307.902344 241.535156 307.351562 241.859375 306.992188 Z M 241.859375 306.992188 " fill-opacity="1" fill-rule="nonzero"/></g><g clip-path="url(#963bd008ad)"><path fill="#5ce1e6" d="M 192.464844 306.992188 L 200.957031 297.5 C 201.140625 297.296875 201.394531 297.183594 201.660156 297.183594 L 207.324219 297.183594 C 207.695312 297.183594 208.03125 297.402344 208.1875 297.746094 C 208.335938 298.089844 208.273438 298.488281 208.023438 298.765625 L 200.101562 307.628906 L 208.023438 316.484375 C 208.273438 316.765625 208.339844 317.164062 208.1875 317.507812 C 208.03125 317.851562 207.695312 318.070312 207.324219 318.070312 L 201.660156 318.070312 C 201.394531 318.070312 201.140625 317.953125 200.957031 317.757812 L 192.464844 308.261719 C 192.144531 307.902344 192.144531 307.351562 192.464844 306.992188 Z M 192.464844 306.992188 " fill-opacity="1" fill-rule="nonzero"/></g><g clip-path="url(#6825e39a29)"><path fill="#5ce1e6" d="M 204.734375 306.992188 L 213.226562 297.5 C 213.410156 297.296875 213.660156 297.183594 213.929688 297.183594 L 219.589844 297.183594 C 219.964844 297.183594 220.300781 297.402344 220.453125 297.746094 C 220.605469 298.089844 220.542969 298.488281 220.292969 298.765625 L 212.367188 307.628906 L 220.292969 316.484375 C 220.542969 316.765625 220.605469 317.164062 220.453125 317.507812 C 220.300781 317.851562 219.964844 318.070312 219.589844 318.070312 L 213.929688 318.070312 C 213.660156 318.070312 213.410156 317.953125 213.226562 317.757812 L 204.734375 308.261719 C 204.410156 307.902344 204.410156 307.351562 204.734375 306.992188 Z M 204.734375 306.992188 " fill-opacity="1" fill-rule="nonzero"/></g><g clip-path="url(#651324625b)"><path fill="#38b6ff" d="M 155.339844 306.992188 L 163.832031 297.5 C 164.015625 297.296875 164.269531 297.183594 164.535156 297.183594 L 170.199219 297.183594 C 170.570312 297.183594 170.90625 297.402344 171.0625 297.746094 C 171.210938 298.089844 171.148438 298.488281 170.898438 298.765625 L 162.976562 307.628906 L 170.898438 316.484375 C 171.148438 316.765625 171.214844 317.164062 171.0625 317.507812 C 170.90625 317.851562 170.570312 318.070312 170.199219 318.070312 L 164.535156 318.070312 C 164.269531 318.070312 164.015625 317.953125 163.832031 317.757812 L 155.339844 308.261719 C 155.019531 307.902344 155.019531 307.351562 155.339844 306.992188 Z M 155.339844 306.992188 " fill-opacity="1" fill-rule="nonzero"/></g><g clip-path="url(#4cd8eb00dd)"><path fill="#38b6ff" d="M 167.609375 306.992188 L 176.101562 297.5 C 176.285156 297.296875 176.535156 297.183594 176.804688 297.183594 L 182.464844 297.183594 C 182.839844 297.183594 183.175781 297.402344 183.328125 297.746094 C 183.480469 298.089844 183.417969 298.488281 183.167969 298.765625 L 175.242188 307.628906 L 183.167969 316.484375 C 183.417969 316.765625 183.480469 317.164062 183.328125 317.507812 C 183.175781 317.851562 182.839844 318.070312 182.464844 318.070312 L 176.804688 318.070312 C 176.535156 318.070312 176.285156 317.953125 176.101562 317.757812 L 167.609375 308.261719 C 167.285156 307.902344 167.285156 307.351562 167.609375 306.992188 Z M 167.609375 306.992188 " fill-opacity="1" fill-rule="nonzero"/></g><g clip-path="url(#e7be7c22e5)"><g clip-path="url(#0bf3b03be9)"><g clip-path="url(#026523a27b)"><path fill="#38b6ff" d="M 118.210938 307.238281 L 126.535156 297.597656 C 126.710938 297.394531 126.960938 297.273438 127.230469 297.269531 L 132.890625 297.167969 C 133.261719 297.164062 133.605469 297.378906 133.765625 297.714844 C 133.921875 298.058594 133.867188 298.460938 133.621094 298.742188 L 125.855469 307.738281 L 133.933594 316.457031 C 134.1875 316.730469 134.261719 317.128906 134.113281 317.472656 C 133.964844 317.820312 133.632812 318.046875 133.261719 318.054688 L 127.597656 318.152344 C 127.332031 318.160156 127.078125 318.046875 126.890625 317.851562 L 118.230469 308.511719 C 117.902344 308.15625 117.894531 307.605469 118.210938 307.238281 Z M 118.210938 307.238281 " fill-opacity="1" fill-rule="nonzero"/></g></g></g><g clip-path="url(#63f1e4d9a9)"><g clip-path="url(#91dd148e5a)"><g clip-path="url(#5ac14be3c4)"><path fill="#38b6ff" d="M 130.476562 307.023438 L 138.800781 297.378906 C 138.976562 297.175781 139.230469 297.058594 139.496094 297.054688 L 145.15625 296.953125 C 145.53125 296.945312 145.871094 297.160156 146.03125 297.5 C 146.1875 297.839844 146.132812 298.242188 145.886719 298.523438 L 138.121094 307.523438 L 146.203125 316.238281 C 146.457031 316.515625 146.527344 316.914062 146.378906 317.257812 C 146.234375 317.605469 145.898438 317.832031 145.527344 317.835938 L 139.867188 317.9375 C 139.597656 317.941406 139.34375 317.832031 139.160156 317.636719 L 130.5 308.292969 C 130.167969 307.9375 130.160156 307.386719 130.476562 307.023438 Z M 130.476562 307.023438 " fill-opacity="1" fill-rule="nonzero"/></g></g></g><g clip-path="url(#9002470efb)"><g clip-path="url(#cb4da18905)"><g clip-path="url(#8a3753a46b)"><path fill="#38b6ff" d="M 75.855469 286.085938 L 88.128906 282.679688 C 88.390625 282.609375 88.664062 282.648438 88.890625 282.796875 L 93.65625 285.851562 C 93.96875 286.050781 94.132812 286.421875 94.078125 286.789062 C 94.019531 287.160156 93.75 287.464844 93.390625 287.5625 L 81.9375 290.742188 L 83.828125 302.476562 C 83.886719 302.847656 83.722656 303.21875 83.410156 303.425781 C 83.097656 303.632812 82.691406 303.632812 82.378906 303.433594 L 77.613281 300.375 C 77.386719 300.230469 77.238281 299.996094 77.191406 299.734375 L 75.167969 287.15625 C 75.089844 286.679688 75.386719 286.214844 75.855469 286.085938 Z M 75.855469 286.085938 " fill-opacity="1" fill-rule="nonzero"/></g></g></g><g clip-path="url(#ccc7e523c7)"><g clip-path="url(#0a147728f8)"><g clip-path="url(#2ff46f13e6)"><path fill="#38b6ff" d="M 86.179688 292.710938 L 98.457031 289.304688 C 98.714844 289.234375 98.992188 289.273438 99.214844 289.417969 L 103.984375 292.476562 C 104.296875 292.675781 104.460938 293.042969 104.40625 293.414062 C 104.347656 293.785156 104.078125 294.089844 103.71875 294.1875 L 92.265625 297.367188 L 94.152344 309.101562 C 94.210938 309.46875 94.050781 309.84375 93.738281 310.046875 C 93.421875 310.253906 93.019531 310.257812 92.707031 310.058594 L 87.941406 307 C 87.714844 306.855469 87.5625 306.621094 87.519531 306.355469 L 85.496094 293.78125 C 85.417969 293.300781 85.714844 292.839844 86.179688 292.710938 Z M 86.179688 292.710938 " fill-opacity="1" fill-rule="nonzero"/></g></g></g><g clip-path="url(#9fee13c254)"><g clip-path="url(#f7e206769e)"><g clip-path="url(#3646817e70)"><path fill="#5ce1e6" d="M 41.28125 262.910156 L 53.984375 261.964844 C 54.253906 261.945312 54.515625 262.039062 54.707031 262.222656 L 58.785156 266.152344 C 59.054688 266.410156 59.144531 266.800781 59.015625 267.15625 C 58.886719 267.507812 58.566406 267.753906 58.191406 267.777344 L 46.339844 268.664062 L 45.902344 280.539062 C 45.886719 280.914062 45.65625 281.246094 45.308594 281.386719 C 44.960938 281.527344 44.566406 281.453125 44.296875 281.195312 L 40.21875 277.269531 C 40.027344 277.082031 39.921875 276.824219 39.929688 276.554688 L 40.398438 263.824219 C 40.417969 263.339844 40.796875 262.945312 41.28125 262.910156 Z M 41.28125 262.910156 " fill-opacity="1" fill-rule="nonzero"/></g></g></g><g clip-path="url(#27a4fc1507)"><g clip-path="url(#e5b066289e)"><g clip-path="url(#4857f4b54c)"><path fill="#5ce1e6" d="M 50.117188 271.421875 L 62.820312 270.472656 C 63.089844 270.453125 63.351562 270.546875 63.542969 270.734375 L 67.621094 274.660156 C 67.890625 274.917969 67.980469 275.3125 67.855469 275.664062 C 67.722656 276.015625 67.402344 276.261719 67.03125 276.289062 L 55.175781 277.171875 L 54.738281 289.050781 C 54.726562 289.425781 54.492188 289.757812 54.144531 289.898438 C 53.796875 290.039062 53.402344 289.964844 53.132812 289.707031 L 49.054688 285.777344 C 48.863281 285.59375 48.761719 285.332031 48.765625 285.066406 L 49.234375 272.335938 C 49.253906 271.851562 49.636719 271.453125 50.117188 271.421875 Z M 50.117188 271.421875 " fill-opacity="1" fill-rule="nonzero"/></g></g></g><g clip-path="url(#de3abaa92b)"><g clip-path="url(#79d4b185d2)"><g clip-path="url(#29b1c28401)"><path fill="#38b6ff" d="M 22.734375 226.0625 L 35.210938 228.632812 C 35.476562 228.6875 35.699219 228.851562 35.835938 229.082031 L 38.679688 233.976562 C 38.867188 234.296875 38.847656 234.703125 38.628906 235.003906 C 38.40625 235.308594 38.03125 235.457031 37.664062 235.378906 L 26.023438 232.980469 L 22.347656 244.285156 C 22.230469 244.640625 21.917969 244.898438 21.542969 244.9375 C 21.171875 244.976562 20.808594 244.796875 20.625 244.472656 L 17.777344 239.578125 C 17.644531 239.347656 17.617188 239.070312 17.695312 238.8125 L 21.636719 226.699219 C 21.785156 226.238281 22.261719 225.960938 22.734375 226.0625 Z M 22.734375 226.0625 " fill-opacity="1" fill-rule="nonzero"/></g></g></g><g clip-path="url(#c5bbb7ff0b)"><g clip-path="url(#0d284866d2)"><g clip-path="url(#fb2ae8bb20)"><path fill="#38b6ff" d="M 28.898438 236.667969 L 41.375 239.238281 C 41.640625 239.296875 41.867188 239.457031 42 239.6875 L 44.847656 244.582031 C 45.035156 244.90625 45.011719 245.308594 44.792969 245.613281 C 44.574219 245.914062 44.195312 246.0625 43.832031 245.984375 L 32.1875 243.585938 L 28.511719 254.890625 C 28.394531 255.246094 28.082031 255.503906 27.710938 255.542969 C 27.335938 255.582031 26.976562 255.402344 26.789062 255.082031 L 23.941406 250.183594 C 23.808594 249.953125 23.78125 249.675781 23.859375 249.421875 L 27.800781 237.304688 C 27.949219 236.847656 28.425781 236.570312 28.898438 236.667969 Z M 28.898438 236.667969 " fill-opacity="1" fill-rule="nonzero"/></g></g></g><g clip-path="url(#7be4e27885)"><path fill="#38b6ff" d="M 20.015625 172.027344 L 29.507812 180.519531 C 29.710938 180.699219 29.824219 180.953125 29.824219 181.222656 L 29.824219 186.882812 C 29.824219 187.257812 29.605469 187.59375 29.261719 187.746094 C 28.917969 187.898438 28.515625 187.835938 28.242188 187.585938 L 19.378906 179.660156 L 10.523438 187.585938 C 10.242188 187.835938 9.84375 187.898438 9.5 187.746094 C 9.15625 187.59375 8.9375 187.257812 8.9375 186.882812 L 8.9375 181.222656 C 8.9375 180.953125 9.050781 180.699219 9.25 180.519531 L 18.746094 172.027344 C 19.105469 171.703125 19.65625 171.703125 20.015625 172.027344 Z M 20.015625 172.027344 " fill-opacity="1" fill-rule="nonzero"/></g><g clip-path="url(#9bf7ff6570)"><path fill="#38b6ff" d="M 20.015625 184.292969 L 29.507812 192.789062 C 29.710938 192.96875 29.824219 193.222656 29.824219 193.488281 L 29.824219 199.152344 C 29.824219 199.523438 29.605469 199.863281 29.261719 200.015625 C 28.917969 200.164062 28.515625 200.105469 28.242188 199.855469 L 19.378906 191.929688 L 10.523438 199.855469 C 10.242188 200.105469 9.84375 200.167969 9.5 200.015625 C 9.15625 199.863281 8.9375 199.523438 8.9375 199.152344 L 8.9375 193.488281 C 8.9375 193.222656 9.050781 192.96875 9.25 192.789062 L 18.746094 184.292969 C 19.105469 183.972656 19.65625 183.972656 20.015625 184.292969 Z M 20.015625 184.292969 " fill-opacity="1" fill-rule="nonzero"/></g><g clip-path="url(#c6fbda2306)"><g clip-path="url(#3aa744ff99)"><g clip-path="url(#40f50fc862)"><path fill="#38b6ff" d="M 38.21875 122.101562 L 41.183594 134.492188 C 41.246094 134.753906 41.195312 135.027344 41.042969 135.246094 L 37.816406 139.902344 C 37.605469 140.207031 37.230469 140.359375 36.863281 140.289062 C 36.496094 140.21875 36.203125 139.941406 36.117188 139.578125 L 33.347656 128.015625 L 21.554688 129.484375 C 21.183594 129.53125 20.816406 129.355469 20.621094 129.035156 C 20.425781 128.714844 20.4375 128.308594 20.648438 128.003906 L 23.875 123.351562 C 24.027344 123.128906 24.269531 122.988281 24.53125 122.953125 L 37.175781 121.378906 C 37.65625 121.320312 38.105469 121.632812 38.21875 122.101562 Z M 38.21875 122.101562 " fill-opacity="1" fill-rule="nonzero"/></g></g></g><g clip-path="url(#226dc3113c)"><g clip-path="url(#460142aeac)"><g clip-path="url(#fb985e37af)"><path fill="#38b6ff" d="M 31.230469 132.1875 L 34.195312 144.574219 C 34.257812 144.839844 34.207031 145.109375 34.054688 145.332031 L 30.828125 149.984375 C 30.617188 150.289062 30.246094 150.441406 29.875 150.375 C 29.507812 150.300781 29.214844 150.023438 29.128906 149.660156 L 26.359375 138.101562 L 14.566406 139.566406 C 14.195312 139.613281 13.828125 139.4375 13.632812 139.117188 C 13.4375 138.796875 13.449219 138.394531 13.664062 138.085938 L 16.886719 133.433594 C 17.039062 133.214844 17.28125 133.070312 17.546875 133.035156 L 30.1875 131.460938 C 30.667969 131.402344 31.121094 131.714844 31.230469 132.1875 Z M 31.230469 132.1875 " fill-opacity="1" fill-rule="nonzero"/></g></g></g><g clip-path="url(#f1de548b87)"><g clip-path="url(#6974981ebc)"><g clip-path="url(#3e778fc1cd)"><path fill="#5ce1e6" d="M 65.816406 90.09375 L 65.914062 102.832031 C 65.917969 103.101562 65.804688 103.355469 65.609375 103.535156 L 61.417969 107.34375 C 61.140625 107.59375 60.742188 107.660156 60.402344 107.507812 C 60.058594 107.355469 59.835938 107.015625 59.832031 106.644531 L 59.742188 94.757812 L 47.917969 93.53125 C 47.546875 93.492188 47.230469 93.238281 47.113281 92.882812 C 46.996094 92.523438 47.097656 92.136719 47.371094 91.886719 L 51.5625 88.078125 C 51.761719 87.898438 52.027344 87.8125 52.292969 87.835938 L 64.964844 89.152344 C 65.445312 89.203125 65.816406 89.609375 65.816406 90.09375 Z M 65.816406 90.09375 " fill-opacity="1" fill-rule="nonzero"/></g></g></g><g clip-path="url(#22f7de6941)"><g clip-path="url(#5621c28cd2)"><g clip-path="url(#dafd1e789d)"><path fill="#5ce1e6" d="M 56.738281 98.34375 L 56.835938 111.082031 C 56.835938 111.351562 56.726562 111.605469 56.527344 111.785156 L 52.335938 115.59375 C 52.0625 115.84375 51.664062 115.90625 51.320312 115.757812 C 50.976562 115.605469 50.753906 115.265625 50.753906 114.894531 L 50.660156 103.007812 L 38.839844 101.78125 C 38.464844 101.742188 38.148438 101.488281 38.03125 101.132812 C 37.914062 100.773438 38.015625 100.382812 38.292969 100.132812 L 42.480469 96.328125 C 42.679688 96.148438 42.945312 96.0625 43.210938 96.085938 L 55.882812 97.402344 C 56.363281 97.453125 56.734375 97.859375 56.738281 98.34375 Z M 56.738281 98.34375 " fill-opacity="1" fill-rule="nonzero"/></g></g></g><g clip-path="url(#c95087b707)"><g clip-path="url(#023cade323)"><g clip-path="url(#81c7e92e4e)"><path fill="#38b6ff" d="M 100.488281 72.246094 L 97.054688 84.511719 C 96.980469 84.773438 96.800781 84.988281 96.5625 85.105469 L 91.480469 87.601562 C 91.148438 87.765625 90.746094 87.71875 90.457031 87.480469 C 90.171875 87.238281 90.050781 86.851562 90.152344 86.492188 L 93.355469 75.042969 L 82.335938 70.589844 C 81.988281 70.449219 81.753906 70.117188 81.742188 69.746094 C 81.726562 69.367188 81.933594 69.023438 82.265625 68.859375 L 87.347656 66.359375 C 87.589844 66.242188 87.867188 66.234375 88.117188 66.332031 L 99.925781 71.105469 C 100.375 71.285156 100.617188 71.78125 100.488281 72.246094 Z M 100.488281 72.246094 " fill-opacity="1" fill-rule="nonzero"/></g></g></g><g clip-path="url(#9f325c5e1b)"><g clip-path="url(#8ab0983cb7)"><g clip-path="url(#3e185c6f6e)"><path fill="#38b6ff" d="M 89.476562 77.65625 L 86.042969 89.925781 C 85.96875 90.183594 85.792969 90.398438 85.550781 90.515625 L 80.472656 93.015625 C 80.136719 93.179688 79.738281 93.128906 79.449219 92.890625 C 79.160156 92.648438 79.039062 92.261719 79.140625 91.902344 L 82.347656 80.457031 L 71.324219 76.003906 C 70.980469 75.863281 70.746094 75.53125 70.730469 75.15625 C 70.71875 74.78125 70.921875 74.433594 71.257812 74.269531 L 76.339844 71.773438 C 76.578125 71.652344 76.855469 71.648438 77.105469 71.742188 L 88.917969 76.515625 C 89.367188 76.699219 89.609375 77.191406 89.476562 77.65625 Z M 89.476562 77.65625 " fill-opacity="1" fill-rule="nonzero"/></g></g></g><g clip-path="url(#82e84deddd)"><path fill="#38b6ff" d="M 146.195312 68.148438 L 137.703125 77.640625 C 137.519531 77.84375 137.265625 77.957031 137 77.957031 L 131.335938 77.957031 C 130.964844 77.957031 130.628906 77.738281 130.472656 77.394531 C 130.324219 77.050781 130.386719 76.652344 130.636719 76.375 L 138.558594 67.515625 L 130.636719 58.65625 C 130.386719 58.375 130.320312 57.976562 130.472656 57.632812 C 130.628906 57.289062 130.964844 57.070312 131.335938 57.070312 L 137 57.070312 C 137.265625 57.070312 137.519531 57.1875 137.703125 57.382812 L 146.195312 66.878906 C 146.515625 67.238281 146.515625 67.789062 146.195312 68.148438 Z M 146.195312 68.148438 " fill-opacity="1" fill-rule="nonzero"/></g><g clip-path="url(#97076f3e77)"><path fill="#38b6ff" d="M 133.925781 68.148438 L 125.433594 77.640625 C 125.25 77.84375 125 77.957031 124.730469 77.957031 L 119.070312 77.957031 C 118.695312 77.957031 118.359375 77.738281 118.207031 77.394531 C 118.054688 77.050781 118.117188 76.652344 118.367188 76.375 L 126.292969 67.515625 L 118.367188 58.65625 C 118.117188 58.375 118.054688 57.976562 118.207031 57.632812 C 118.359375 57.289062 118.695312 57.070312 119.070312 57.070312 L 124.730469 57.070312 C 125 57.070312 125.25 57.1875 125.433594 57.382812 L 133.925781 66.878906 C 134.25 67.238281 134.25 67.789062 133.925781 68.148438 Z M 133.925781 68.148438 " fill-opacity="1" fill-rule="nonzero"/></g><g clip-path="url(#1ffd941e86)"><g clip-path="url(#cf610902fe)"><g clip-path="url(#da64d3b5c5)"><path fill="#38b6ff" d="M 182.71875 68.148438 L 173.941406 77.382812 C 173.753906 77.578125 173.5 77.6875 173.230469 77.675781 L 167.570312 77.507812 C 167.199219 77.496094 166.871094 77.265625 166.726562 76.917969 C 166.585938 76.570312 166.660156 76.171875 166.917969 75.902344 L 175.105469 67.285156 L 167.453125 58.191406 C 167.210938 57.90625 167.160156 57.503906 167.320312 57.167969 C 167.484375 56.828125 167.828125 56.617188 168.199219 56.628906 L 173.859375 56.800781 C 174.128906 56.808594 174.378906 56.929688 174.554688 57.132812 L 182.757812 66.878906 C 183.066406 67.25 183.050781 67.800781 182.71875 68.148438 Z M 182.71875 68.148438 " fill-opacity="1" fill-rule="nonzero"/></g></g></g><g clip-path="url(#272805ccd2)"><g clip-path="url(#4881e0f46f)"><g clip-path="url(#cbc67c7376)"><path fill="#38b6ff" d="M 170.457031 67.78125 L 161.679688 77.015625 C 161.492188 77.210938 161.238281 77.316406 160.96875 77.308594 L 155.308594 77.136719 C 154.9375 77.125 154.605469 76.894531 154.464844 76.550781 C 154.324219 76.203125 154.398438 75.804688 154.65625 75.535156 L 162.84375 66.917969 L 155.1875 57.824219 C 154.949219 57.539062 154.894531 57.136719 155.058594 56.796875 C 155.222656 56.457031 155.566406 56.25 155.9375 56.261719 L 161.597656 56.429688 C 161.867188 56.4375 162.113281 56.5625 162.289062 56.765625 L 170.492188 66.511719 C 170.804688 66.878906 170.789062 67.429688 170.457031 67.78125 Z M 170.457031 67.78125 " fill-opacity="1" fill-rule="nonzero"/></g></g></g><g clip-path="url(#888f976e10)"><g clip-path="url(#63404dee1a)"><g clip-path="url(#f7560de5e2)"><path fill="#38b6ff" d="M 294.371094 68.148438 L 285.59375 77.382812 C 285.40625 77.578125 285.152344 77.6875 284.882812 77.675781 L 279.222656 77.507812 C 278.851562 77.496094 278.523438 77.265625 278.378906 76.917969 C 278.238281 76.570312 278.3125 76.171875 278.570312 75.902344 L 286.757812 67.285156 L 279.105469 58.191406 C 278.863281 57.90625 278.8125 57.503906 278.972656 57.167969 C 279.136719 56.828125 279.480469 56.617188 279.851562 56.628906 L 285.511719 56.800781 C 285.78125 56.808594 286.03125 56.929688 286.207031 57.132812 L 294.410156 66.878906 C 294.71875 67.25 294.703125 67.800781 294.371094 68.148438 Z M 294.371094 68.148438 " fill-opacity="1" fill-rule="nonzero"/></g></g></g><g clip-path="url(#7cb98c0761)"><g clip-path="url(#dc698c8b40)"><g clip-path="url(#2b34b4dd8d)"><path fill="#38b6ff" d="M 282.109375 67.78125 L 273.332031 77.015625 C 273.144531 77.210938 272.890625 77.316406 272.621094 77.308594 L 266.960938 77.136719 C 266.589844 77.125 266.257812 76.894531 266.117188 76.550781 C 265.976562 76.203125 266.050781 75.804688 266.308594 75.535156 L 274.496094 66.917969 L 266.839844 57.824219 C 266.601562 57.539062 266.546875 57.136719 266.710938 56.796875 C 266.875 56.457031 267.21875 56.25 267.589844 56.261719 L 273.25 56.429688 C 273.519531 56.4375 273.765625 56.5625 273.941406 56.765625 L 282.144531 66.511719 C 282.457031 66.878906 282.441406 67.429688 282.109375 67.78125 Z M 282.109375 67.78125 " fill-opacity="1" fill-rule="nonzero"/></g></g></g><g clip-path="url(#d33e3f8684)"><g clip-path="url(#17eab7a8fd)"><g clip-path="url(#10a7d0ae75)"><path fill="#38b6ff" d="M 257.246094 68.148438 L 248.46875 77.382812 C 248.28125 77.578125 248.027344 77.6875 247.757812 77.675781 L 242.097656 77.507812 C 241.726562 77.496094 241.398438 77.265625 241.253906 76.917969 C 241.113281 76.570312 241.1875 76.171875 241.445312 75.902344 L 249.632812 67.285156 L 241.980469 58.191406 C 241.738281 57.90625 241.6875 57.503906 241.847656 57.167969 C 242.011719 56.828125 242.355469 56.617188 242.726562 56.628906 L 248.386719 56.800781 C 248.65625 56.808594 248.90625 56.929688 249.082031 57.132812 L 257.285156 66.878906 C 257.59375 67.25 257.578125 67.800781 257.246094 68.148438 Z M 257.246094 68.148438 " fill-opacity="1" fill-rule="nonzero"/></g></g></g><g clip-path="url(#cdacaf6b40)"><g clip-path="url(#2b652a1c8a)"><g clip-path="url(#81d3ec46d8)"><path fill="#38b6ff" d="M 244.984375 67.78125 L 236.207031 77.015625 C 236.019531 77.210938 235.765625 77.316406 235.496094 77.308594 L 229.835938 77.136719 C 229.464844 77.125 229.132812 76.894531 228.992188 76.550781 C 228.851562 76.203125 228.925781 75.804688 229.183594 75.535156 L 237.371094 66.917969 L 229.714844 57.824219 C 229.476562 57.539062 229.421875 57.136719 229.585938 56.796875 C 229.75 56.457031 230.09375 56.25 230.464844 56.261719 L 236.125 56.429688 C 236.394531 56.4375 236.640625 56.5625 236.816406 56.765625 L 245.019531 66.511719 C 245.332031 66.878906 245.316406 67.429688 244.984375 67.78125 Z M 244.984375 67.78125 " fill-opacity="1" fill-rule="nonzero"/></g></g></g><g clip-path="url(#4152f35be9)"><g clip-path="url(#1d7d53f5ff)"><g clip-path="url(#8597c2770f)"><path fill="#5ce1e6" d="M 220.730469 68.148438 L 211.953125 77.382812 C 211.765625 77.578125 211.511719 77.6875 211.242188 77.675781 L 205.582031 77.507812 C 205.210938 77.496094 204.878906 77.265625 204.738281 76.917969 C 204.597656 76.570312 204.671875 76.171875 204.929688 75.902344 L 213.117188 67.285156 L 205.460938 58.191406 C 205.222656 57.90625 205.167969 57.503906 205.332031 57.167969 C 205.496094 56.828125 205.839844 56.617188 206.210938 56.628906 L 211.871094 56.800781 C 212.140625 56.808594 212.386719 56.929688 212.5625 57.132812 L 220.765625 66.878906 C 221.078125 67.25 221.0625 67.800781 220.730469 68.148438 Z M 220.730469 68.148438 " fill-opacity="1" fill-rule="nonzero"/></g></g></g><g clip-path="url(#e9088ad9dd)"><g clip-path="url(#df223fc2c4)"><g clip-path="url(#10ce2e8a98)"><path fill="#5ce1e6" d="M 208.464844 67.78125 L 199.691406 77.015625 C 199.503906 77.210938 199.246094 77.316406 198.980469 77.308594 L 193.320312 77.136719 C 192.949219 77.125 192.617188 76.894531 192.476562 76.550781 C 192.335938 76.203125 192.410156 75.804688 192.664062 75.535156 L 200.855469 66.917969 L 193.199219 57.824219 C 192.957031 57.539062 192.90625 57.136719 193.070312 56.796875 C 193.234375 56.457031 193.578125 56.25 193.949219 56.261719 L 199.609375 56.429688 C 199.875 56.4375 200.125 56.5625 200.300781 56.765625 L 208.503906 66.511719 C 208.816406 66.878906 208.800781 67.429688 208.464844 67.78125 Z M 208.464844 67.78125 " fill-opacity="1" fill-rule="nonzero"/></g></g></g></svg>