<svg xmlns="http://www.w3.org/2000/svg" xmlns:xlink="http://www.w3.org/1999/xlink" width="450" zoomAndPan="magnify" viewBox="0 0 337.5 374.999991" height="500" preserveAspectRatio="xMidYMid meet" version="1.0"><defs><clipPath id="277d6d36ec"><path d="M 0 52.777344 L 303.75 52.777344 L 303.75 323 L 0 323 Z M 0 52.777344 " clip-rule="nonzero"/></clipPath><clipPath id="3998d6ee6e"><path d="M 7.917969 142.824219 C 3.136719 156.667969 0 172.40625 0 187.851562 C 0 203.296875 2.6875 218.15625 7.46875 231.855469 C 7.621094 232.144531 7.621094 232.4375 7.769531 232.730469 C 26.890625 284.164062 77.390625 322.050781 135.65625 322.777344 L 303.75 322.777344 L 303.75 52.777344 L 135.78125 52.777344 C 77.09375 53.507812 26.59375 90.808594 7.917969 142.824219 " clip-rule="nonzero"/></clipPath><clipPath id="63e7cb309a"><path d="M 0 52.777344 L 303.75 52.777344 L 303.75 322.777344 L 0 322.777344 Z M 0 52.777344 " clip-rule="nonzero"/></clipPath><clipPath id="c0e7590102"><path d="M 7.917969 142.824219 C 3.136719 156.667969 0 172.40625 0 187.851562 C 0 203.296875 2.6875 218.15625 7.46875 231.855469 C 7.621094 232.144531 7.621094 232.4375 7.769531 232.730469 C 26.890625 284.164062 77.390625 322.050781 135.65625 322.777344 L 303.75 322.777344 L 303.75 52.777344 L 135.78125 52.777344 C 77.09375 53.507812 26.59375 90.808594 7.917969 142.824219 " clip-rule="nonzero"/></clipPath><clipPath id="d43ace3b49"><path d="M 32 77 L 249 77 L 249 294 L 32 294 Z M 32 77 " clip-rule="nonzero"/></clipPath><clipPath id="0a1e271220"><path d="M 100.652344 38.007812 L 287.882812 146.292969 L 179.597656 333.523438 L -7.632812 225.238281 Z M 100.652344 38.007812 " clip-rule="nonzero"/></clipPath><clipPath id="9007277575"><path d="M 194.144531 92.078125 C 142.511719 62.214844 76.445312 79.863281 46.582031 131.496094 C 16.71875 183.128906 34.367188 249.195312 86.003906 279.058594 C 137.636719 308.921875 203.699219 291.273438 233.5625 239.636719 C 263.425781 188.003906 245.777344 121.941406 194.144531 92.078125 " clip-rule="nonzero"/></clipPath><clipPath id="d410517951"><path d="M 32 77 L 249 77 L 249 294 L 32 294 Z M 32 77 " clip-rule="nonzero"/></clipPath><clipPath id="9f13cb326f"><path d="M 100.652344 38.007812 L 287.632812 146.148438 L 179.492188 333.128906 L -7.488281 224.988281 Z M 100.652344 38.007812 " clip-rule="nonzero"/></clipPath><clipPath id="bf2065641c"><path d="M 100.652344 38.007812 L 290.277344 147.679688 L 180.605469 337.300781 L -9.015625 227.632812 Z M 100.652344 38.007812 " clip-rule="nonzero"/></clipPath><clipPath id="288665292c"><path d="M 194.144531 92.078125 C 142.511719 62.214844 76.445312 79.863281 46.582031 131.496094 C 16.71875 183.128906 34.367188 249.195312 86.003906 279.058594 C 137.636719 308.921875 203.699219 291.273438 233.5625 239.636719 C 263.425781 188.003906 245.777344 121.941406 194.144531 92.078125 " clip-rule="nonzero"/></clipPath><clipPath id="8ee9bd7b82"><path d="M 148 122 L 180 122 L 180 159 L 148 159 Z M 148 122 " clip-rule="nonzero"/></clipPath><clipPath id="1a75eaa1b5"><path d="M 164.386719 122.292969 L 180.144531 131.328125 L 164.269531 159.023438 L 148.507812 149.992188 Z M 164.386719 122.292969 " clip-rule="nonzero"/></clipPath><clipPath id="e4ecda3335"><path d="M 164.386719 122.292969 L 179.800781 131.128906 L 164.019531 158.65625 L 148.605469 149.820312 Z M 164.386719 122.292969 " clip-rule="nonzero"/></clipPath><clipPath id="1929675f61"><path d="M 148 206 L 180 206 L 180 244 L 148 244 Z M 148 206 " clip-rule="nonzero"/></clipPath><clipPath id="7e5fbdd925"><path d="M 148.515625 215.59375 L 164.316406 206.636719 L 180.058594 234.40625 L 164.257812 243.363281 Z M 148.515625 215.59375 " clip-rule="nonzero"/></clipPath><clipPath id="fd85c79453"><path d="M 148.515625 215.59375 L 163.96875 206.832031 L 179.617188 234.433594 L 164.160156 243.195312 Z M 148.515625 215.59375 " clip-rule="nonzero"/></clipPath><clipPath id="d99cbdad32"><path d="M 90 140 L 165 140 L 165 226 L 90 226 Z M 90 140 " clip-rule="nonzero"/></clipPath><clipPath id="d3b9b1d6c3"><path d="M 90.792969 224.898438 L 90.917969 139.699219 L 164.90625 139.808594 L 164.78125 225.007812 Z M 90.792969 224.898438 " clip-rule="nonzero"/></clipPath><clipPath id="d2bb284671"><path d="M 90.855469 182.625 L 164.1875 140.460938 L 164.066406 225.003906 L 90.855469 182.625 " clip-rule="nonzero"/></clipPath><clipPath id="8cf0c7e6a8"><path d="M 82 173 L 115 173 L 115 192 L 82 192 Z M 82 173 " clip-rule="nonzero"/></clipPath><clipPath id="3a0b834878"><path d="M 82.949219 191.503906 L 82.972656 173.339844 L 114.898438 173.386719 L 114.871094 191.546875 Z M 82.949219 191.503906 " clip-rule="nonzero"/></clipPath><clipPath id="c8a6836c8c"><path d="M 82.949219 191.503906 L 82.972656 173.734375 L 114.703125 173.78125 L 114.675781 191.546875 Z M 82.949219 191.503906 " clip-rule="nonzero"/></clipPath><clipPath id="9c0ac7612d"><path d="M 34 154 L 91 154 L 91 211 L 34 211 Z M 34 154 " clip-rule="nonzero"/></clipPath><clipPath id="2709ddced5"><path d="M 89.527344 211.070312 L 33.921875 209.707031 L 35.28125 154.101562 L 90.886719 155.464844 Z M 89.527344 211.070312 " clip-rule="nonzero"/></clipPath><clipPath id="60ceb8c0c6"><path d="M 61.722656 210.390625 C 77.078125 210.765625 89.832031 198.621094 90.207031 183.265625 C 90.582031 167.910156 78.441406 155.160156 63.085938 154.785156 C 47.730469 154.40625 34.976562 166.550781 34.601562 181.90625 C 34.226562 197.261719 46.367188 210.011719 61.722656 210.390625 " clip-rule="nonzero"/></clipPath><clipPath id="01213c865f"><path d="M 34 154 L 91 154 L 91 211 L 34 211 Z M 34 154 " clip-rule="nonzero"/></clipPath><clipPath id="428da0ef0a"><path d="M 89.527344 211.070312 L 34.042969 209.710938 L 35.402344 154.226562 L 90.886719 155.585938 Z M 89.527344 211.070312 " clip-rule="nonzero"/></clipPath><clipPath id="c5a433a725"><path d="M 89.527344 211.070312 L 34.042969 209.710938 L 35.402344 154.226562 L 90.886719 155.585938 Z M 89.527344 211.070312 " clip-rule="nonzero"/></clipPath><clipPath id="c9b9fd3761"><path d="M 61.785156 210.390625 C 77.105469 210.765625 89.832031 198.648438 90.207031 183.328125 C 90.582031 168.007812 78.464844 155.28125 63.144531 154.90625 C 47.824219 154.53125 35.097656 166.648438 34.722656 181.96875 C 34.347656 197.289062 46.464844 210.015625 61.785156 210.390625 " clip-rule="nonzero"/></clipPath><clipPath id="29456f7d4c"><path d="M 151 223 L 207 223 L 207 279 L 151 279 Z M 151 223 " clip-rule="nonzero"/></clipPath><clipPath id="d1cb1d813f"><path d="M 168.757812 288.972656 L 141.035156 240.753906 L 189.257812 213.03125 L 216.980469 261.25 Z M 168.757812 288.972656 " clip-rule="nonzero"/></clipPath><clipPath id="956e88e466"><path d="M 154.898438 264.863281 C 162.550781 278.179688 179.554688 282.769531 192.867188 275.113281 C 206.183594 267.457031 210.773438 250.457031 203.117188 237.140625 C 195.464844 223.824219 178.460938 219.234375 165.148438 226.890625 C 151.832031 234.546875 147.242188 251.546875 154.898438 264.863281 " clip-rule="nonzero"/></clipPath><clipPath id="839d6c450a"><path d="M 151 223 L 207 223 L 207 279 L 151 279 Z M 151 223 " clip-rule="nonzero"/></clipPath><clipPath id="b5494055ff"><path d="M 168.757812 288.972656 L 141.097656 240.859375 L 189.210938 213.195312 L 216.875 261.3125 Z M 168.757812 288.972656 " clip-rule="nonzero"/></clipPath><clipPath id="3ebb71fe0b"><path d="M 168.757812 288.972656 L 141.097656 240.859375 L 189.210938 213.195312 L 216.875 261.3125 Z M 168.757812 288.972656 " clip-rule="nonzero"/></clipPath><clipPath id="e641c67ba9"><path d="M 154.925781 264.917969 C 162.566406 278.203125 179.527344 282.78125 192.816406 275.144531 C 206.101562 267.503906 210.679688 250.542969 203.042969 237.253906 C 195.40625 223.96875 178.441406 219.390625 165.15625 227.027344 C 151.867188 234.667969 147.289062 251.628906 154.925781 264.917969 " clip-rule="nonzero"/></clipPath><clipPath id="d53e3b2caf"><path d="M 149 90 L 206 90 L 206 147 L 149 147 Z M 149 90 " clip-rule="nonzero"/></clipPath><clipPath id="95383931ae"><path d="M 204.417969 146.679688 L 148.8125 145.316406 L 150.171875 89.710938 L 205.777344 91.074219 Z M 204.417969 146.679688 " clip-rule="nonzero"/></clipPath><clipPath id="d7e9cf4f58"><path d="M 176.613281 146 C 191.96875 146.375 204.722656 134.234375 205.097656 118.878906 C 205.472656 103.523438 193.332031 90.769531 177.976562 90.394531 C 162.621094 90.019531 149.867188 102.160156 149.492188 117.515625 C 149.117188 132.871094 161.257812 145.625 176.613281 146 " clip-rule="nonzero"/></clipPath><clipPath id="f145b580ef"><path d="M 149 90 L 206 90 L 206 147 L 149 147 Z M 149 90 " clip-rule="nonzero"/></clipPath><clipPath id="e68b8760bd"><path d="M 204.417969 146.679688 L 148.933594 145.320312 L 150.292969 89.839844 L 205.777344 91.195312 Z M 204.417969 146.679688 " clip-rule="nonzero"/></clipPath><clipPath id="7824228061"><path d="M 204.417969 146.679688 L 148.933594 145.320312 L 150.292969 89.839844 L 205.777344 91.195312 Z M 204.417969 146.679688 " clip-rule="nonzero"/></clipPath><clipPath id="38c417f29c"><path d="M 176.675781 146 C 191.996094 146.375 204.71875 134.261719 205.097656 118.9375 C 205.472656 103.617188 193.355469 90.894531 178.035156 90.515625 C 162.710938 90.140625 149.988281 102.257812 149.613281 117.578125 C 149.238281 132.902344 161.351562 145.625 176.675781 146 " clip-rule="nonzero"/></clipPath><clipPath id="608b0df6da"><path d="M 55 175 L 70 175 L 70 190 L 55 190 Z M 55 175 " clip-rule="nonzero"/></clipPath><clipPath id="f75d4d4e39"><path d="M 55.417969 189.558594 L 55.441406 175.597656 L 69.398438 175.621094 L 69.378906 189.578125 Z M 55.417969 189.558594 " clip-rule="nonzero"/></clipPath><clipPath id="db83710ae0"><path d="M 55.429688 182.578125 C 55.421875 186.433594 58.542969 189.5625 62.398438 189.570312 C 66.253906 189.574219 69.382812 186.453125 69.386719 182.597656 C 69.394531 178.746094 66.273438 175.617188 62.417969 175.609375 C 58.5625 175.605469 55.433594 178.722656 55.429688 182.578125 " clip-rule="nonzero"/></clipPath><clipPath id="0742c9c035"><path d="M 172 244 L 186 244 L 186 258 L 172 258 Z M 172 244 " clip-rule="nonzero"/></clipPath><clipPath id="c8a17437b2"><path d="M 169.480469 248.433594 L 181.582031 241.476562 L 188.539062 253.578125 L 176.4375 260.539062 Z M 169.480469 248.433594 " clip-rule="nonzero"/></clipPath><clipPath id="00f1453153"><path d="M 175.53125 244.957031 C 172.1875 246.878906 171.035156 251.144531 172.957031 254.484375 C 174.878906 257.828125 179.144531 258.980469 182.488281 257.058594 C 185.828125 255.136719 186.980469 250.871094 185.058594 247.527344 C 183.140625 244.1875 178.871094 243.035156 175.53125 244.957031 " clip-rule="nonzero"/></clipPath><clipPath id="9af5049f00"><path d="M 169 110 L 184 110 L 184 125 L 169 125 Z M 169 110 " clip-rule="nonzero"/></clipPath><clipPath id="ec2522b4ba"><path d="M 169.398438 124.667969 L 169.421875 110.707031 L 183.378906 110.726562 L 183.359375 124.6875 Z M 169.398438 124.667969 " clip-rule="nonzero"/></clipPath><clipPath id="fc4aaa269b"><path d="M 169.410156 117.6875 C 169.402344 121.542969 172.523438 124.671875 176.378906 124.675781 C 180.234375 124.683594 183.363281 121.5625 183.367188 117.707031 C 183.375 113.851562 180.253906 110.722656 176.398438 110.71875 C 172.542969 110.710938 169.414062 113.832031 169.410156 117.6875 " clip-rule="nonzero"/></clipPath><clipPath id="b71bd46828"><path d="M 91 112 L 129 112 L 129 146 L 91 146 Z M 91 112 " clip-rule="nonzero"/></clipPath><clipPath id="6905912dff"><path d="M 131.464844 118.808594 L 92.746094 145.890625 L 85.007812 134.832031 L 123.726562 107.746094 Z M 131.464844 118.808594 " clip-rule="nonzero"/></clipPath><clipPath id="084d921e5f"><path d="M 92.59375 146 L 131.308594 118.914062 L 123.570312 107.851562 L 84.855469 134.9375 Z M 92.59375 146 " clip-rule="nonzero"/></clipPath><clipPath id="2b785dc4d3"><path d="M 92.59375 146 L 131.308594 118.914062 L 123.570312 107.851562 L 84.855469 134.9375 Z M 92.59375 146 " clip-rule="nonzero"/></clipPath><clipPath id="fb19fc38b7"><path d="M 94 136 L 96 136 L 96 137 L 94 137 Z M 94 136 " clip-rule="nonzero"/></clipPath><clipPath id="cbcd898397"><path d="M 131.464844 118.808594 L 92.746094 145.890625 L 85.007812 134.832031 L 123.726562 107.746094 Z M 131.464844 118.808594 " clip-rule="nonzero"/></clipPath><clipPath id="2633d0f752"><path d="M 92.59375 146 L 131.308594 118.914062 L 123.570312 107.851562 L 84.855469 134.9375 Z M 92.59375 146 " clip-rule="nonzero"/></clipPath><clipPath id="e195ec4768"><path d="M 92.59375 146 L 131.308594 118.914062 L 123.570312 107.851562 L 84.855469 134.9375 Z M 92.59375 146 " clip-rule="nonzero"/></clipPath><clipPath id="2303f9d204"><path d="M 200 158 L 214 158 L 214 206 L 200 206 Z M 200 158 " clip-rule="nonzero"/></clipPath><clipPath id="a8681dbad2"><path d="M 200.164062 206.179688 L 200.300781 158.929688 L 213.800781 158.96875 L 213.664062 206.21875 Z M 200.164062 206.179688 " clip-rule="nonzero"/></clipPath><clipPath id="a12d0d11aa"><path d="M 200.300781 158.742188 L 200.164062 205.992188 L 213.664062 206.03125 L 213.800781 158.78125 Z M 200.300781 158.742188 " clip-rule="nonzero"/></clipPath><clipPath id="4b61e41521"><path d="M 200.300781 158.742188 L 200.164062 205.992188 L 213.664062 206.03125 L 213.800781 158.78125 Z M 200.300781 158.742188 " clip-rule="nonzero"/></clipPath><clipPath id="60045166d7"><path d="M 206 165 L 207 165 L 207 167 L 206 167 Z M 206 165 " clip-rule="nonzero"/></clipPath><clipPath id="79af9d080d"><path d="M 200.164062 206.179688 L 200.300781 158.929688 L 213.800781 158.96875 L 213.664062 206.21875 Z M 200.164062 206.179688 " clip-rule="nonzero"/></clipPath><clipPath id="b0abaa3ef1"><path d="M 200.300781 158.742188 L 200.164062 205.992188 L 213.664062 206.03125 L 213.800781 158.78125 Z M 200.300781 158.742188 " clip-rule="nonzero"/></clipPath><clipPath id="dcdda8c8dd"><path d="M 200.300781 158.742188 L 200.164062 205.992188 L 213.664062 206.03125 L 213.800781 158.78125 Z M 200.300781 158.742188 " clip-rule="nonzero"/></clipPath><clipPath id="0a5e26cb11"><path d="M 89 226 L 131 226 L 131 253 L 89 253 Z M 89 226 " clip-rule="nonzero"/></clipPath><clipPath id="9ba8035145"><path d="M 92.292969 223.101562 L 131.039062 250.148438 L 123.3125 261.214844 L 84.566406 234.171875 Z M 92.292969 223.101562 " clip-rule="nonzero"/></clipPath><clipPath id="4d04b47d6e"><path d="M 131.191406 250.253906 L 92.449219 223.210938 L 84.71875 234.28125 L 123.464844 261.324219 Z M 131.191406 250.253906 " clip-rule="nonzero"/></clipPath><clipPath id="db54e1ed3f"><path d="M 131.191406 250.253906 L 92.449219 223.210938 L 84.71875 234.28125 L 123.464844 261.324219 Z M 131.191406 250.253906 " clip-rule="nonzero"/></clipPath><clipPath id="91a6364e33"><path d="M 121 251 L 122 251 L 122 252 L 121 252 Z M 121 251 " clip-rule="nonzero"/></clipPath><clipPath id="5a815800a6"><path d="M 92.292969 223.101562 L 131.039062 250.148438 L 123.3125 261.214844 L 84.566406 234.171875 Z M 92.292969 223.101562 " clip-rule="nonzero"/></clipPath><clipPath id="4e817228d7"><path d="M 131.191406 250.253906 L 92.449219 223.210938 L 84.71875 234.28125 L 123.464844 261.324219 Z M 131.191406 250.253906 " clip-rule="nonzero"/></clipPath><clipPath id="24eb205ca6"><path d="M 131.191406 250.253906 L 92.449219 223.210938 L 84.71875 234.28125 L 123.464844 261.324219 Z M 131.191406 250.253906 " clip-rule="nonzero"/></clipPath><clipPath id="87b17f8aa3"><path d="M 266.625 297.128906 L 283 297.128906 L 283 318.128906 L 266.625 318.128906 Z M 266.625 297.128906 " clip-rule="nonzero"/></clipPath><clipPath id="bd229b5e62"><path d="M 278 297.128906 L 294.785156 297.128906 L 294.785156 318.128906 L 278 318.128906 Z M 278 297.128906 " clip-rule="nonzero"/></clipPath><clipPath id="5e20096fd6"><path d="M 229.5 297.128906 L 246 297.128906 L 246 318.128906 L 229.5 318.128906 Z M 229.5 297.128906 " clip-rule="nonzero"/></clipPath><clipPath id="7be8595316"><path d="M 241 297.128906 L 257.660156 297.128906 L 257.660156 318.128906 L 241 318.128906 Z M 241 297.128906 " clip-rule="nonzero"/></clipPath><clipPath id="f8f05ec492"><path d="M 192.375 297.128906 L 209 297.128906 L 209 318.128906 L 192.375 318.128906 Z M 192.375 297.128906 " clip-rule="nonzero"/></clipPath><clipPath id="4988cc0d3c"><path d="M 204 297.128906 L 220.535156 297.128906 L 220.535156 318.128906 L 204 318.128906 Z M 204 297.128906 " clip-rule="nonzero"/></clipPath><clipPath id="b76b22359f"><path d="M 155.25 297.128906 L 172 297.128906 L 172 318.128906 L 155.25 318.128906 Z M 155.25 297.128906 " clip-rule="nonzero"/></clipPath><clipPath id="ea4b6cf746"><path d="M 167 297.128906 L 183.410156 297.128906 L 183.410156 318.128906 L 167 318.128906 Z M 167 297.128906 " clip-rule="nonzero"/></clipPath><clipPath id="cc38b05920"><path d="M 117 297 L 135 297 L 135 319 L 117 319 Z M 117 297 " clip-rule="nonzero"/></clipPath><clipPath id="144d4497b8"><path d="M 117.945312 297.378906 L 146.441406 296.875 L 146.8125 317.871094 L 118.316406 318.375 Z M 117.945312 297.378906 " clip-rule="nonzero"/></clipPath><clipPath id="fe7648558f"><path d="M 146.101562 296.878906 L 117.605469 297.382812 L 117.976562 318.378906 L 146.472656 317.875 Z M 146.101562 296.878906 " clip-rule="nonzero"/></clipPath><clipPath id="8196c9e537"><path d="M 130 296 L 147 296 L 147 318 L 130 318 Z M 130 296 " clip-rule="nonzero"/></clipPath><clipPath id="ba1c5d38f4"><path d="M 117.945312 297.378906 L 146.441406 296.875 L 146.8125 317.871094 L 118.316406 318.375 Z M 117.945312 297.378906 " clip-rule="nonzero"/></clipPath><clipPath id="5763541869"><path d="M 146.101562 296.878906 L 117.605469 297.382812 L 117.976562 318.378906 L 146.472656 317.875 Z M 146.101562 296.878906 " clip-rule="nonzero"/></clipPath><clipPath id="fb8b4898d3"><path d="M 75 282 L 95 282 L 95 304 L 75 304 Z M 75 282 " clip-rule="nonzero"/></clipPath><clipPath id="8cdcc57306"><path d="M 81.105469 277.734375 L 105.09375 293.121094 L 93.757812 310.796875 L 69.765625 295.410156 Z M 81.105469 277.734375 " clip-rule="nonzero"/></clipPath><clipPath id="db06085f03"><path d="M 104.808594 292.9375 L 80.816406 277.550781 L 69.480469 295.226562 L 93.46875 310.613281 Z M 104.808594 292.9375 " clip-rule="nonzero"/></clipPath><clipPath id="725884c49e"><path d="M 85 289 L 105 289 L 105 311 L 85 311 Z M 85 289 " clip-rule="nonzero"/></clipPath><clipPath id="d605171856"><path d="M 81.105469 277.734375 L 105.09375 293.121094 L 93.757812 310.796875 L 69.765625 295.410156 Z M 81.105469 277.734375 " clip-rule="nonzero"/></clipPath><clipPath id="8e6a186881"><path d="M 104.808594 292.9375 L 80.816406 277.550781 L 69.480469 295.226562 L 93.46875 310.613281 Z M 104.808594 292.9375 " clip-rule="nonzero"/></clipPath><clipPath id="fccb0e17ee"><path d="M 39 261 L 60 261 L 60 282 L 39 282 Z M 39 261 " clip-rule="nonzero"/></clipPath><clipPath id="bf8ec5c3d4"><path d="M 48.058594 255.742188 L 68.585938 275.511719 L 54.019531 290.636719 L 33.492188 270.867188 Z M 48.058594 255.742188 " clip-rule="nonzero"/></clipPath><clipPath id="bd36d4947e"><path d="M 68.339844 275.277344 L 47.8125 255.503906 L 33.246094 270.632812 L 53.773438 290.402344 Z M 68.339844 275.277344 " clip-rule="nonzero"/></clipPath><clipPath id="5023101d70"><path d="M 48 270 L 68 270 L 68 290 L 48 290 Z M 48 270 " clip-rule="nonzero"/></clipPath><clipPath id="6f8f79b284"><path d="M 48.058594 255.742188 L 68.585938 275.511719 L 54.019531 290.636719 L 33.492188 270.867188 Z M 48.058594 255.742188 " clip-rule="nonzero"/></clipPath><clipPath id="5fd260d75a"><path d="M 68.339844 275.277344 L 47.8125 255.503906 L 33.246094 270.632812 L 53.773438 290.402344 Z M 68.339844 275.277344 " clip-rule="nonzero"/></clipPath><clipPath id="62343d694e"><path d="M 17 226 L 39 226 L 39 245 L 17 245 Z M 17 226 " clip-rule="nonzero"/></clipPath><clipPath id="c2c7b5b7fc"><path d="M 31.21875 221.023438 L 45.539062 245.664062 L 27.386719 256.21875 L 13.0625 231.578125 Z M 31.21875 221.023438 " clip-rule="nonzero"/></clipPath><clipPath id="330ec95c68"><path d="M 45.371094 245.371094 L 31.046875 220.730469 L 12.890625 231.285156 L 27.214844 255.925781 Z M 45.371094 245.371094 " clip-rule="nonzero"/></clipPath><clipPath id="8276582035"><path d="M 23 236 L 45 236 L 45 256 L 23 256 Z M 23 236 " clip-rule="nonzero"/></clipPath><clipPath id="d985e2a03c"><path d="M 31.21875 221.023438 L 45.539062 245.664062 L 27.386719 256.21875 L 13.0625 231.578125 Z M 31.21875 221.023438 " clip-rule="nonzero"/></clipPath><clipPath id="49b8964afa"><path d="M 45.371094 245.371094 L 31.046875 220.730469 L 12.890625 231.285156 L 27.214844 255.925781 Z M 45.371094 245.371094 " clip-rule="nonzero"/></clipPath><clipPath id="86478b2b51"><path d="M 8.878906 171.9375 L 29.878906 171.9375 L 29.878906 188 L 8.878906 188 Z M 8.878906 171.9375 " clip-rule="nonzero"/></clipPath><clipPath id="b83292a022"><path d="M 8.878906 184 L 29.878906 184 L 29.878906 200.097656 L 8.878906 200.097656 Z M 8.878906 184 " clip-rule="nonzero"/></clipPath><clipPath id="9666e2d798"><path d="M 20 121 L 42 121 L 42 141 L 20 141 Z M 20 121 " clip-rule="nonzero"/></clipPath><clipPath id="5afdaba9b3"><path d="M 46.378906 127.648438 L 30.144531 151.074219 L 12.882812 139.109375 L 29.117188 115.6875 Z M 46.378906 127.648438 " clip-rule="nonzero"/></clipPath><clipPath id="8887211f24"><path d="M 30.339844 150.792969 L 46.574219 127.367188 L 29.3125 115.40625 L 13.078125 138.832031 Z M 30.339844 150.792969 " clip-rule="nonzero"/></clipPath><clipPath id="4b7248888d"><path d="M 13 131 L 35 131 L 35 151 L 13 151 Z M 13 131 " clip-rule="nonzero"/></clipPath><clipPath id="a08eaef772"><path d="M 46.378906 127.648438 L 30.144531 151.074219 L 12.882812 139.109375 L 29.117188 115.6875 Z M 46.378906 127.648438 " clip-rule="nonzero"/></clipPath><clipPath id="16ee7435f5"><path d="M 30.339844 150.792969 L 46.574219 127.367188 L 29.3125 115.40625 L 13.078125 138.832031 Z M 30.339844 150.792969 " clip-rule="nonzero"/></clipPath><clipPath id="5b79c0c0ce"><path d="M 47 87 L 66 87 L 66 108 L 47 108 Z M 47 87 " clip-rule="nonzero"/></clipPath><clipPath id="39921b900b"><path d="M 72.519531 97.332031 L 51.425781 116.5 L 37.304688 100.957031 L 58.398438 81.789062 Z M 72.519531 97.332031 " clip-rule="nonzero"/></clipPath><clipPath id="b71c49cde2"><path d="M 51.675781 116.269531 L 72.769531 97.105469 L 58.648438 81.5625 L 37.554688 100.726562 Z M 51.675781 116.269531 " clip-rule="nonzero"/></clipPath><clipPath id="0836c7d39c"><path d="M 37 96 L 57 96 L 57 116 L 37 116 Z M 37 96 " clip-rule="nonzero"/></clipPath><clipPath id="0bd3f70d6f"><path d="M 72.519531 97.332031 L 51.425781 116.5 L 37.304688 100.957031 L 58.398438 81.789062 Z M 72.519531 97.332031 " clip-rule="nonzero"/></clipPath><clipPath id="a4f6b4e93c"><path d="M 51.675781 116.269531 L 72.769531 97.105469 L 58.648438 81.5625 L 37.554688 100.726562 Z M 51.675781 116.269531 " clip-rule="nonzero"/></clipPath><clipPath id="6fb9252769"><path d="M 81 66 L 101 66 L 101 88 L 81 88 Z M 81 66 " clip-rule="nonzero"/></clipPath><clipPath id="946e0ad7ab"><path d="M 104.921875 81.058594 L 79.34375 93.632812 L 70.078125 74.785156 L 95.65625 62.214844 Z M 104.921875 81.058594 " clip-rule="nonzero"/></clipPath><clipPath id="7b86a7a21a"><path d="M 79.648438 93.480469 L 105.226562 80.910156 L 95.960938 62.0625 L 70.382812 74.636719 Z M 79.648438 93.480469 " clip-rule="nonzero"/></clipPath><clipPath id="dff2a3b68d"><path d="M 70 71 L 90 71 L 90 94 L 70 94 Z M 70 71 " clip-rule="nonzero"/></clipPath><clipPath id="3469df5871"><path d="M 104.921875 81.058594 L 79.34375 93.632812 L 70.078125 74.785156 L 95.65625 62.214844 Z M 104.921875 81.058594 " clip-rule="nonzero"/></clipPath><clipPath id="8b85f4a215"><path d="M 79.648438 93.480469 L 105.226562 80.910156 L 95.960938 62.0625 L 70.382812 74.636719 Z M 79.648438 93.480469 " clip-rule="nonzero"/></clipPath><clipPath id="508659b493"><path d="M 130 57.015625 L 146.285156 57.015625 L 146.285156 78 L 130 78 Z M 130 57.015625 " clip-rule="nonzero"/></clipPath><clipPath id="39a057eec1"><path d="M 118.125 57.015625 L 135 57.015625 L 135 78 L 118.125 78 Z M 118.125 57.015625 " clip-rule="nonzero"/></clipPath><clipPath id="b4f6bf8f1e"><path d="M 166 56 L 183 56 L 183 78 L 166 78 Z M 166 56 " clip-rule="nonzero"/></clipPath><clipPath id="f1b4313db4"><path d="M 182.511719 78.011719 L 154.023438 77.15625 L 154.65625 56.164062 L 183.144531 57.023438 Z M 182.511719 78.011719 " clip-rule="nonzero"/></clipPath><clipPath id="d203625c67"><path d="M 154.363281 77.164062 L 182.851562 78.023438 L 183.484375 57.035156 L 154.996094 56.175781 Z M 154.363281 77.164062 " clip-rule="nonzero"/></clipPath><clipPath id="4aefd2c386"><path d="M 154 56 L 171 56 L 171 78 L 154 78 Z M 154 56 " clip-rule="nonzero"/></clipPath><clipPath id="88bc4897c4"><path d="M 182.511719 78.011719 L 154.023438 77.15625 L 154.65625 56.164062 L 183.144531 57.023438 Z M 182.511719 78.011719 " clip-rule="nonzero"/></clipPath><clipPath id="e272e05923"><path d="M 154.363281 77.164062 L 182.851562 78.023438 L 183.484375 57.035156 L 154.996094 56.175781 Z M 154.363281 77.164062 " clip-rule="nonzero"/></clipPath><clipPath id="95a915cc2d"><path d="M 278 56 L 295 56 L 295 78 L 278 78 Z M 278 56 " clip-rule="nonzero"/></clipPath><clipPath id="4b934b63a2"><path d="M 294.164062 78.011719 L 265.675781 77.15625 L 266.308594 56.164062 L 294.796875 57.023438 Z M 294.164062 78.011719 " clip-rule="nonzero"/></clipPath><clipPath id="34d6a2bbd3"><path d="M 266.015625 77.164062 L 294.503906 78.023438 L 295.136719 57.035156 L 266.648438 56.175781 Z M 266.015625 77.164062 " clip-rule="nonzero"/></clipPath><clipPath id="e3ab06388d"><path d="M 266 56 L 283 56 L 283 78 L 266 78 Z M 266 56 " clip-rule="nonzero"/></clipPath><clipPath id="da666a496c"><path d="M 294.164062 78.011719 L 265.675781 77.15625 L 266.308594 56.164062 L 294.796875 57.023438 Z M 294.164062 78.011719 " clip-rule="nonzero"/></clipPath><clipPath id="24181fc165"><path d="M 266.015625 77.164062 L 294.503906 78.023438 L 295.136719 57.035156 L 266.648438 56.175781 Z M 266.015625 77.164062 " clip-rule="nonzero"/></clipPath><clipPath id="e0f8803c99"><path d="M 241 56 L 258 56 L 258 78 L 241 78 Z M 241 56 " clip-rule="nonzero"/></clipPath><clipPath id="03fdbcca29"><path d="M 257.039062 78.011719 L 228.550781 77.15625 L 229.183594 56.164062 L 257.671875 57.023438 Z M 257.039062 78.011719 " clip-rule="nonzero"/></clipPath><clipPath id="90c026804d"><path d="M 228.890625 77.164062 L 257.378906 78.023438 L 258.011719 57.035156 L 229.523438 56.175781 Z M 228.890625 77.164062 " clip-rule="nonzero"/></clipPath><clipPath id="9289ac71f3"><path d="M 228 56 L 246 56 L 246 78 L 228 78 Z M 228 56 " clip-rule="nonzero"/></clipPath><clipPath id="0e7205056b"><path d="M 257.039062 78.011719 L 228.550781 77.15625 L 229.183594 56.164062 L 257.671875 57.023438 Z M 257.039062 78.011719 " clip-rule="nonzero"/></clipPath><clipPath id="bbfb3d9be6"><path d="M 228.890625 77.164062 L 257.378906 78.023438 L 258.011719 57.035156 L 229.523438 56.175781 Z M 228.890625 77.164062 " clip-rule="nonzero"/></clipPath><clipPath id="c860fd7a3d"><path d="M 204 56 L 221 56 L 221 78 L 204 78 Z M 204 56 " clip-rule="nonzero"/></clipPath><clipPath id="432ca1e014"><path d="M 220.523438 78.011719 L 192.035156 77.15625 L 192.667969 56.164062 L 221.15625 57.023438 Z M 220.523438 78.011719 " clip-rule="nonzero"/></clipPath><clipPath id="ce08f516a8"><path d="M 192.375 77.164062 L 220.863281 78.023438 L 221.496094 57.035156 L 193.007812 56.175781 Z M 192.375 77.164062 " clip-rule="nonzero"/></clipPath><clipPath id="57c69096e3"><path d="M 192 56 L 209 56 L 209 78 L 192 78 Z M 192 56 " clip-rule="nonzero"/></clipPath><clipPath id="fd75e9900e"><path d="M 220.523438 78.011719 L 192.035156 77.15625 L 192.667969 56.164062 L 221.15625 57.023438 Z M 220.523438 78.011719 " clip-rule="nonzero"/></clipPath><clipPath id="3ad15b987e"><path d="M 192.375 77.164062 L 220.863281 78.023438 L 221.496094 57.035156 L 193.007812 56.175781 Z M 192.375 77.164062 " clip-rule="nonzero"/></clipPath></defs><g clip-path="url(#277d6d36ec)"><g clip-path="url(#3998d6ee6e)"><path fill="#919191" d="M 303.75 52.777344 L 303.75 323.039062 L -0.132812 323.039062 L -0.132812 52.777344 Z M 303.75 52.777344 " fill-opacity="1" fill-rule="nonzero"/></g></g><g clip-path="url(#63e7cb309a)"><g clip-path="url(#c0e7590102)"><path stroke-linecap="butt" transform="matrix(0.000000000000000046, 0.75, -0.75, 0.000000000000000046, 303.749959, 52.777335)" fill="none" stroke-linejoin="miter" d="M 120.062517 394.442673 C 138.520852 400.817674 159.505228 404.999965 180.098979 404.999965 C 200.69273 404.999965 220.505231 401.416632 238.770857 395.041632 C 239.156274 394.838507 239.546899 394.838507 239.937524 394.64059 C 308.515652 369.145797 359.03128 301.81246 360.00003 224.124956 L 360.00003 -0.0000552182 L 0.0000113526 -0.0000552182 L 0.0000113526 223.95829 C 0.97397 302.208294 50.708347 369.54163 120.062517 394.442673 " stroke="#000000" stroke-width="4" stroke-opacity="1" stroke-miterlimit="4"/></g></g><g clip-path="url(#d43ace3b49)"><g clip-path="url(#0a1e271220)"><g clip-path="url(#9007277575)"><path fill="#707070" d="M 100.652344 38.007812 L 287.402344 146.015625 L 179.394531 332.765625 L -7.355469 224.757812 Z M 100.652344 38.007812 " fill-opacity="1" fill-rule="nonzero"/></g></g></g><g clip-path="url(#d410517951)"><g clip-path="url(#9f13cb326f)"><g clip-path="url(#bf2065641c)"><g clip-path="url(#288665292c)"><path stroke-linecap="butt" transform="matrix(0.649236, 0.37549, -0.37549, 0.649236, 100.653122, 38.007636)" fill="none" stroke-linejoin="miter" d="M 144.001629 -0.000983528 C 64.472307 -0.00227784 -0.000386783 64.469301 -0.0016811 143.998624 C -0.00297541 223.527946 64.468603 288.00064 144.002435 287.999326 C 223.531757 288.000621 287.999942 223.531649 287.998629 143.997818 C 287.999923 64.468496 223.530952 0.000310787 144.001629 -0.000983528 " stroke="#000000" stroke-width="8" stroke-opacity="1" stroke-miterlimit="4"/></g></g></g></g><g clip-path="url(#8ee9bd7b82)"><g clip-path="url(#1a75eaa1b5)"><g clip-path="url(#e4ecda3335)"><path fill="#ffde59" d="M 164.386719 122.292969 L 179.667969 131.054688 L 163.789062 158.75 L 148.507812 149.992188 Z M 164.386719 122.292969 " fill-opacity="1" fill-rule="nonzero"/></g></g></g><g clip-path="url(#1929675f61)"><g clip-path="url(#7e5fbdd925)"><g clip-path="url(#fd85c79453)"><path fill="#ffde59" d="M 148.515625 215.59375 L 163.835938 206.90625 L 179.582031 234.679688 L 164.257812 243.363281 Z M 148.515625 215.59375 " fill-opacity="1" fill-rule="nonzero"/></g></g></g><g clip-path="url(#d99cbdad32)"><g clip-path="url(#d3b9b1d6c3)"><g clip-path="url(#d2bb284671)"><path fill="#ffde59" d="M 90.792969 224.898438 L 90.917969 140.449219 L 164.15625 140.554688 L 164.035156 225.003906 Z M 90.792969 224.898438 " fill-opacity="1" fill-rule="nonzero"/></g></g></g><g clip-path="url(#8cf0c7e6a8)"><g clip-path="url(#3a0b834878)"><g clip-path="url(#c8a6836c8c)"><path fill="#ffde59" d="M 82.949219 191.503906 L 82.972656 173.886719 L 114.898438 173.933594 L 114.871094 191.546875 Z M 82.949219 191.503906 " fill-opacity="1" fill-rule="nonzero"/></g></g></g><g clip-path="url(#9c0ac7612d)"><g clip-path="url(#2709ddced5)"><g clip-path="url(#60ceb8c0c6)"><path fill="#ffde59" d="M 89.527344 211.070312 L 33.921875 209.707031 L 35.28125 154.101562 L 90.886719 155.464844 Z M 89.527344 211.070312 " fill-opacity="1" fill-rule="nonzero"/></g></g></g><g clip-path="url(#01213c865f)"><g clip-path="url(#428da0ef0a)"><g clip-path="url(#c5a433a725)"><g clip-path="url(#c9b9fd3761)"><path fill="#000000" d="M 61.859375 207.398438 C 67.410156 207.535156 72.433594 205.984375 76.925781 202.746094 L 80.425781 207.601562 C 74.84375 211.625 68.605469 213.550781 61.710938 213.382812 Z M 79.007812 201.066406 C 83.140625 197.351562 85.730469 192.785156 86.773438 187.359375 L 92.652344 188.492188 C 91.355469 195.234375 88.140625 200.910156 83.007812 205.519531 Z M 87.136719 184.71875 C 87.175781 184.230469 87.203125 183.746094 87.214844 183.253906 C 87.335938 178.230469 86.054688 173.605469 83.371094 169.382812 L 88.421875 166.171875 C 91.757812 171.417969 93.351562 177.160156 93.199219 183.402344 C 93.183594 184.007812 93.152344 184.609375 93.101562 185.210938 Z M 81.816406 167.207031 C 78.34375 162.863281 73.929688 160.011719 68.578125 158.652344 L 70.046875 152.847656 C 76.703125 154.535156 82.183594 158.078125 86.492188 163.46875 Z M 65.972656 158.140625 C 65.011719 158.003906 64.046875 157.921875 63.070312 157.898438 C 58.5625 157.789062 54.347656 158.824219 50.433594 161.007812 L 47.519531 155.777344 C 52.386719 153.066406 57.617188 151.777344 63.21875 151.914062 C 64.425781 151.945312 65.621094 152.042969 66.808594 152.210938 Z M 48.175781 162.429688 C 43.640625 165.640625 40.535156 169.878906 38.867188 175.144531 L 33.160156 173.332031 C 35.234375 166.792969 39.085938 161.527344 44.714844 157.542969 Z M 38.195312 177.734375 C 37.910156 179.148438 37.75 180.585938 37.714844 182.042969 C 37.617188 186.042969 38.433594 189.828125 40.160156 193.402344 L 34.765625 196.003906 C 32.621094 191.5625 31.609375 186.859375 31.730469 181.894531 C 31.773438 180.089844 31.972656 178.308594 32.328125 176.550781 Z M 41.445312 195.738281 C 44.386719 200.449219 48.441406 203.792969 53.601562 205.773438 L 51.460938 211.363281 C 45.046875 208.90625 40.015625 204.753906 36.367188 198.90625 Z M 56.148438 206.59375 C 58.011719 207.082031 59.914062 207.351562 61.859375 207.398438 L 61.710938 213.382812 C 59.300781 213.324219 56.9375 212.992188 54.625 212.382812 Z M 56.148438 206.59375 " fill-opacity="1" fill-rule="nonzero"/></g></g></g></g><g clip-path="url(#29456f7d4c)"><g clip-path="url(#d1cb1d813f)"><g clip-path="url(#956e88e466)"><path fill="#ffde59" d="M 168.757812 288.972656 L 141.035156 240.753906 L 189.257812 213.03125 L 216.980469 261.25 Z M 168.757812 288.972656 " fill-opacity="1" fill-rule="nonzero"/></g></g></g><g clip-path="url(#839d6c450a)"><g clip-path="url(#b5494055ff)"><g clip-path="url(#3ebb71fe0b)"><g clip-path="url(#e641c67ba9)"><path fill="#000000" d="M 157.523438 263.425781 C 160.292969 268.238281 164.226562 271.726562 169.324219 273.882812 L 166.992188 279.394531 C 160.65625 276.714844 155.769531 272.386719 152.332031 266.40625 Z M 171.839844 274.789062 C 177.160156 276.390625 182.410156 276.230469 187.585938 274.304688 L 189.671875 279.917969 C 183.238281 282.308594 176.71875 282.511719 170.113281 280.519531 Z M 190.03125 273.242188 C 190.46875 273.023438 190.898438 272.792969 191.324219 272.546875 C 195.683594 270.042969 198.96875 266.546875 201.179688 262.058594 L 206.550781 264.707031 C 203.800781 270.285156 199.71875 274.628906 194.308594 277.738281 C 193.78125 278.039062 193.25 278.328125 192.710938 278.597656 Z M 202.234375 259.597656 C 204.140625 254.375 204.285156 249.125 202.664062 243.84375 L 208.386719 242.085938 C 210.402344 248.648438 210.226562 255.171875 207.855469 261.652344 Z M 201.75 241.347656 C 201.367188 240.460938 200.933594 239.59375 200.449219 238.746094 C 198.199219 234.835938 195.125 231.773438 191.226562 229.5625 L 194.183594 224.355469 C 199.027344 227.105469 202.847656 230.90625 205.636719 235.761719 C 206.242188 236.808594 206.777344 237.882812 207.25 238.988281 Z M 188.839844 228.371094 C 183.738281 226.164062 178.503906 225.714844 173.140625 227.023438 L 171.722656 221.203125 C 178.390625 219.582031 184.886719 220.140625 191.214844 222.878906 Z M 170.578125 227.796875 C 169.222656 228.289062 167.910156 228.898438 166.648438 229.621094 C 163.179688 231.617188 160.367188 234.277344 158.210938 237.609375 L 153.183594 234.355469 C 155.863281 230.214844 159.359375 226.90625 163.664062 224.433594 C 165.226562 223.53125 166.855469 222.777344 168.539062 222.167969 Z M 156.882812 239.925781 C 154.386719 244.886719 153.632812 250.085938 154.621094 255.523438 L 148.730469 256.597656 C 147.5 249.84375 148.4375 243.386719 151.535156 237.234375 Z M 155.246094 258.125 C 155.792969 259.972656 156.554688 261.738281 157.523438 263.425781 L 152.332031 266.40625 C 151.128906 264.316406 150.1875 262.125 149.507812 259.835938 Z M 155.246094 258.125 " fill-opacity="1" fill-rule="nonzero"/></g></g></g></g><g clip-path="url(#d53e3b2caf)"><g clip-path="url(#95383931ae)"><g clip-path="url(#d7e9cf4f58)"><path fill="#ffde59" d="M 204.417969 146.679688 L 148.8125 145.316406 L 150.171875 89.710938 L 205.777344 91.074219 Z M 204.417969 146.679688 " fill-opacity="1" fill-rule="nonzero"/></g></g></g><g clip-path="url(#f145b580ef)"><g clip-path="url(#e68b8760bd)"><g clip-path="url(#7824228061)"><g clip-path="url(#38c417f29c)"><path fill="#000000" d="M 176.75 143.007812 C 182.300781 143.144531 187.324219 141.59375 191.816406 138.355469 L 195.316406 143.210938 C 189.734375 147.234375 183.496094 149.164062 176.601562 148.992188 Z M 193.898438 136.675781 C 198.03125 132.964844 200.617188 128.394531 201.664062 122.972656 L 207.542969 124.101562 C 206.246094 130.84375 203.03125 136.519531 197.898438 141.132812 Z M 202.023438 120.328125 C 202.066406 119.84375 202.089844 119.355469 202.101562 118.867188 C 202.226562 113.839844 200.945312 109.214844 198.261719 104.996094 L 203.3125 101.78125 C 206.648438 107.027344 208.242188 112.773438 208.089844 119.011719 C 208.074219 119.617188 208.042969 120.222656 207.992188 120.824219 Z M 196.703125 102.816406 C 193.234375 98.472656 188.820312 95.621094 183.464844 94.261719 L 184.9375 88.460938 C 191.59375 90.148438 197.074219 93.6875 201.382812 99.078125 Z M 180.859375 93.75 C 179.902344 93.613281 178.933594 93.535156 177.960938 93.511719 C 173.453125 93.398438 169.238281 94.4375 165.324219 96.617188 L 162.410156 91.386719 C 167.277344 88.675781 172.507812 87.386719 178.105469 87.523438 C 179.3125 87.554688 180.511719 87.652344 181.699219 87.820312 Z M 163.066406 98.042969 C 158.53125 101.253906 155.425781 105.488281 153.753906 110.753906 L 148.046875 108.941406 C 150.125 102.402344 153.976562 97.140625 159.605469 93.15625 Z M 153.085938 113.34375 C 152.800781 114.757812 152.640625 116.195312 152.605469 117.652344 C 152.507812 121.652344 153.320312 125.4375 155.046875 129.011719 L 149.65625 131.617188 C 147.511719 127.171875 146.5 122.46875 146.621094 117.507812 C 146.664062 115.699219 146.863281 113.917969 147.214844 112.164062 Z M 156.335938 131.347656 C 159.277344 136.058594 163.328125 139.402344 168.492188 141.382812 L 166.347656 146.972656 C 159.9375 144.515625 154.90625 140.363281 151.257812 134.519531 Z M 171.039062 142.203125 C 172.898438 142.691406 174.804688 142.960938 176.75 143.007812 L 176.601562 148.992188 C 174.191406 148.933594 171.828125 148.601562 169.515625 147.992188 Z M 171.039062 142.203125 " fill-opacity="1" fill-rule="nonzero"/></g></g></g></g><g clip-path="url(#608b0df6da)"><g clip-path="url(#f75d4d4e39)"><g clip-path="url(#db83710ae0)"><path fill="#707070" d="M 55.417969 189.558594 L 55.441406 175.597656 L 69.398438 175.621094 L 69.378906 189.578125 Z M 55.417969 189.558594 " fill-opacity="1" fill-rule="nonzero"/></g></g></g><g clip-path="url(#0742c9c035)"><g clip-path="url(#c8a17437b2)"><g clip-path="url(#00f1453153)"><path fill="#707070" d="M 169.480469 248.433594 L 181.582031 241.476562 L 188.539062 253.578125 L 176.4375 260.539062 Z M 169.480469 248.433594 " fill-opacity="1" fill-rule="nonzero"/></g></g></g><g clip-path="url(#9af5049f00)"><g clip-path="url(#ec2522b4ba)"><g clip-path="url(#fc4aaa269b)"><path fill="#707070" d="M 169.398438 124.667969 L 169.421875 110.707031 L 183.378906 110.726562 L 183.359375 124.6875 Z M 169.398438 124.667969 " fill-opacity="1" fill-rule="nonzero"/></g></g></g><g clip-path="url(#b71bd46828)"><g clip-path="url(#6905912dff)"><g clip-path="url(#084d921e5f)"><g clip-path="url(#2b785dc4d3)"><path fill="#ffffff" d="M 92.992188 145.242188 C 92.953125 145.226562 92.929688 145.199219 92.917969 145.160156 C 92.777344 145.125 92.648438 145.316406 92.503906 145.171875 C 92.058594 145.09375 91.96875 144.753906 91.941406 144.382812 C 91.855469 143.335938 91.941406 142.296875 92.09375 141.265625 C 92.636719 137.570312 93.925781 134.167969 95.832031 130.96875 C 99.15625 125.378906 103.957031 121.570312 109.84375 119.042969 C 112.574219 117.875 115.460938 117.207031 118.382812 116.671875 C 120.097656 116.359375 121.828125 116.152344 123.554688 115.898438 C 123.621094 115.917969 123.683594 115.9375 123.75 115.957031 C 123.816406 115.914062 123.902344 115.886719 123.9375 115.828125 C 123.9375 115.828125 123.9375 115.828125 123.9375 115.824219 C 123.964844 115.777344 123.898438 115.738281 123.835938 115.75 C 123.230469 115.414062 122.582031 115.21875 121.917969 115.058594 C 121.464844 114.945312 121.035156 114.804688 120.648438 114.535156 C 119.671875 114.304688 119.195312 113.660156 119.28125 112.75 C 121.21875 112.277344 122.996094 112.851562 124.761719 113.578125 C 125.417969 113.847656 126.089844 114.074219 126.757812 114.308594 C 128.359375 114.875 128.097656 114.882812 128.378906 116.238281 C 128.441406 116.542969 128.433594 116.855469 128.394531 117.164062 C 128.378906 117.277344 128.355469 117.378906 128.257812 117.449219 C 128.308594 117.796875 128.070312 117.96875 127.828125 118.125 C 127.113281 118.585938 126.394531 119.039062 125.671875 119.496094 C 125.582031 119.679688 125.414062 119.761719 125.238281 119.835938 C 125.15625 120.023438 124.984375 120.101562 124.820312 120.1875 C 124.78125 120.332031 124.648438 120.382812 124.554688 120.46875 C 123.277344 121.664062 122.15625 122.984375 121.261719 124.496094 C 121.195312 124.609375 121.117188 124.71875 121.046875 124.828125 C 120.960938 124.960938 120.867188 125.109375 120.691406 125.0625 C 120.5625 125.027344 120.472656 124.859375 120.484375 124.746094 C 120.542969 124.234375 120.277344 123.769531 120.292969 123.269531 C 120.296875 123.046875 120.390625 122.847656 120.492188 122.644531 C 121.253906 121.085938 122.273438 119.710938 123.4375 118.433594 C 123.539062 118.320312 123.664062 118.21875 123.742188 118.089844 C 123.828125 117.933594 123.714844 117.847656 123.578125 117.792969 C 123.445312 117.914062 123.304688 117.925781 123.148438 117.84375 C 123.007812 117.929688 122.867188 118 122.699219 117.90625 C 122.679688 117.945312 122.648438 117.949219 122.617188 117.921875 C 122.484375 118.003906 122.347656 118.058594 122.191406 117.980469 C 122.089844 118.019531 121.992188 118.070312 121.882812 118.089844 C 120.71875 118.296875 119.546875 118.484375 118.382812 118.707031 C 117.324219 118.90625 116.277344 119.136719 115.222656 119.359375 C 114.953125 119.449219 114.6875 119.550781 114.414062 119.632812 C 111.769531 120.433594 109.261719 121.539062 106.929688 123.023438 C 106.097656 123.554688 105.285156 124.109375 104.460938 124.65625 C 104.367188 124.847656 104.1875 124.925781 104.003906 125.003906 C 103.921875 125.191406 103.75 125.265625 103.578125 125.34375 C 103.511719 125.53125 103.339844 125.589844 103.1875 125.675781 C 103.15625 125.800781 103.0625 125.859375 102.945312 125.890625 C 102.929688 125.9375 102.898438 125.960938 102.851562 125.960938 C 102.8125 126.101562 102.679688 126.15625 102.589844 126.246094 C 102.140625 126.691406 101.617188 127.050781 101.222656 127.554688 C 101.148438 127.542969 100.984375 127.625 101.113281 127.421875 C 101.195312 127.285156 101.179688 127.242188 101.125 127.234375 C 101.078125 127.230469 101.003906 127.25 100.945312 127.257812 C 99.574219 128.707031 98.398438 130.308594 97.324219 131.992188 C 97.238281 132.15625 97.152344 132.324219 97.066406 132.488281 C 96.558594 133.476562 96.050781 134.464844 95.539062 135.453125 C 95.550781 135.496094 95.542969 135.535156 95.523438 135.570312 C 95.507812 135.59375 95.492188 135.613281 95.464844 135.628906 C 95.480469 135.703125 95.453125 135.761719 95.390625 135.800781 C 95.410156 135.875 95.382812 135.933594 95.320312 135.972656 C 95.335938 136.050781 95.3125 136.105469 95.246094 136.148438 C 95.265625 136.222656 95.242188 136.28125 95.175781 136.320312 C 95.199219 136.398438 95.171875 136.457031 95.109375 136.496094 L 95.105469 136.496094 C 95.128906 136.570312 95.105469 136.628906 95.042969 136.667969 L 95.039062 136.671875 C 95.023438 136.730469 95 136.789062 94.976562 136.84375 L 94.972656 136.851562 C 94.996094 136.925781 94.976562 136.980469 94.910156 137.023438 L 94.90625 137.027344 C 94.929688 137.101562 94.910156 137.160156 94.84375 137.199219 L 94.84375 137.207031 C 94.867188 137.28125 94.84375 137.335938 94.78125 137.378906 L 94.777344 137.382812 C 94.800781 137.457031 94.78125 137.515625 94.714844 137.554688 L 94.714844 137.558594 C 94.738281 137.632812 94.71875 137.691406 94.652344 137.734375 C 94.496094 138.292969 94.339844 138.847656 94.183594 139.402344 C 94.011719 139.667969 93.984375 139.976562 93.917969 140.273438 C 93.945312 140.296875 93.972656 140.3125 94.003906 140.320312 C 94.050781 140.335938 94.097656 140.335938 94.148438 140.320312 C 94.121094 140.546875 94.109375 140.78125 93.980469 140.980469 C 93.933594 141.039062 93.898438 141.101562 93.890625 141.175781 C 93.917969 141.113281 93.949219 141.046875 93.980469 140.980469 C 93.984375 141.058594 93.980469 141.128906 93.90625 141.164062 C 93.957031 141.273438 93.9375 141.371094 93.875 141.464844 C 93.910156 141.53125 93.902344 141.589844 93.839844 141.640625 C 93.855469 141.714844 93.851562 141.785156 93.789062 141.839844 C 93.804688 141.875 93.804688 141.910156 93.78125 141.945312 C 93.792969 142.171875 93.757812 142.390625 93.671875 142.601562 C 93.671875 142.765625 93.675781 142.925781 93.59375 143.074219 C 93.632812 143.175781 93.59375 143.273438 93.566406 143.367188 C 93.566406 144.003906 93.453125 144.636719 93.582031 145.308594 C 93.351562 145.242188 93.160156 145.414062 92.992188 145.242188 Z M 122.558594 117.800781 C 122.554688 117.800781 122.558594 117.800781 122.558594 117.800781 C 122.554688 117.800781 122.554688 117.804688 122.554688 117.804688 C 122.554688 117.804688 122.558594 117.800781 122.558594 117.800781 C 122.558594 117.804688 122.558594 117.804688 122.558594 117.808594 C 122.558594 117.804688 122.558594 117.804688 122.558594 117.800781 Z M 94.445312 137.21875 C 94.449219 137.203125 94.453125 137.191406 94.453125 137.175781 C 94.453125 137.179688 94.449219 137.183594 94.449219 137.183594 C 94.445312 137.195312 94.4375 137.210938 94.4375 137.222656 C 94.4375 137.222656 94.441406 137.222656 94.445312 137.21875 Z M 95.53125 135.457031 C 95.53125 135.457031 95.53125 135.457031 95.527344 135.457031 C 95.523438 135.457031 95.519531 135.453125 95.515625 135.449219 L 95.496094 135.449219 L 95.53125 135.457031 C 95.53125 135.460938 95.527344 135.460938 95.53125 135.460938 C 95.527344 135.460938 95.53125 135.460938 95.53125 135.457031 Z M 94.378906 137.234375 C 94.398438 137.230469 94.417969 137.226562 94.433594 137.222656 C 94.4375 137.210938 94.441406 137.199219 94.445312 137.1875 C 94.433594 137.210938 94.410156 137.230469 94.378906 137.234375 Z M 94.472656 137.105469 C 94.476562 137.09375 94.480469 137.078125 94.484375 137.066406 C 94.484375 137.0625 94.484375 137.0625 94.484375 137.0625 C 94.480469 137.078125 94.476562 137.09375 94.472656 137.105469 Z M 92.597656 144.097656 C 92.597656 144.097656 92.597656 144.101562 92.59375 144.101562 C 92.59375 144.101562 92.59375 144.105469 92.59375 144.105469 C 92.597656 144.105469 92.59375 144.109375 92.597656 144.109375 C 92.597656 144.105469 92.597656 144.101562 92.597656 144.097656 Z M 92.597656 143.816406 C 92.597656 143.8125 92.59375 143.808594 92.597656 143.804688 C 92.597656 143.808594 92.597656 143.8125 92.597656 143.816406 Z M 93.804688 141.25 C 93.789062 141.253906 93.777344 141.253906 93.761719 141.253906 C 93.765625 141.261719 93.769531 141.269531 93.769531 141.277344 C 93.78125 141.269531 93.792969 141.261719 93.804688 141.25 Z M 93.769531 141.75 C 93.765625 141.773438 93.765625 141.800781 93.773438 141.824219 C 93.769531 141.796875 93.765625 141.773438 93.769531 141.75 Z M 93.769531 141.75 " fill-opacity="1" fill-rule="nonzero"/></g></g></g></g><g clip-path="url(#fb19fc38b7)"><g clip-path="url(#cbcd898397)"><g clip-path="url(#2633d0f752)"><g clip-path="url(#e195ec4768)"><path fill="#ffffff" d="M 94.96875 136.851562 C 94.992188 136.796875 95.011719 136.738281 95.03125 136.679688 C 95.054688 136.757812 95.03125 136.8125 94.96875 136.851562 Z M 94.96875 136.851562 " fill-opacity="1" fill-rule="nonzero"/></g></g></g></g><g clip-path="url(#2303f9d204)"><g clip-path="url(#a8681dbad2)"><g clip-path="url(#a12d0d11aa)"><g clip-path="url(#4b61e41521)"><path fill="#ffffff" d="M 200.691406 159.503906 C 200.726562 159.480469 200.761719 159.476562 200.800781 159.492188 C 200.914062 159.398438 200.828125 159.179688 201.03125 159.144531 C 201.351562 158.828125 201.679688 158.949219 202 159.136719 C 202.90625 159.671875 203.703125 160.339844 204.460938 161.058594 C 207.167969 163.628906 209.210938 166.640625 210.730469 170.042969 C 213.386719 175.976562 213.738281 182.097656 212.414062 188.363281 C 211.800781 191.269531 210.683594 194.015625 209.441406 196.710938 C 208.707031 198.292969 207.882812 199.828125 207.09375 201.386719 C 207.042969 201.429688 206.988281 201.46875 206.933594 201.515625 C 206.929688 201.589844 206.90625 201.675781 206.933594 201.738281 C 206.933594 201.738281 206.933594 201.738281 206.933594 201.742188 C 206.957031 201.789062 207.027344 201.757812 207.054688 201.703125 C 207.675781 201.402344 208.210938 200.980469 208.726562 200.53125 C 209.074219 200.226562 209.441406 199.953125 209.882812 199.792969 C 210.632812 199.128906 211.433594 199.109375 212.128906 199.703125 C 211.402344 201.558594 209.910156 202.683594 208.296875 203.707031 C 207.699219 204.089844 207.128906 204.507812 206.550781 204.921875 C 205.167969 205.90625 205.3125 205.6875 204.039062 205.136719 C 203.757812 205.011719 203.503906 204.824219 203.277344 204.617188 C 203.191406 204.539062 203.121094 204.460938 203.121094 204.339844 C 202.804688 204.179688 202.800781 203.886719 202.8125 203.601562 C 202.847656 202.75 202.894531 201.898438 202.933594 201.046875 C 202.835938 200.867188 202.867188 200.683594 202.90625 200.5 C 202.800781 200.324219 202.835938 200.136719 202.859375 199.949219 C 202.765625 199.839844 202.800781 199.699219 202.78125 199.570312 C 202.542969 197.839844 202.109375 196.164062 201.386719 194.5625 C 201.332031 194.441406 201.285156 194.316406 201.238281 194.195312 C 201.179688 194.050781 201.109375 193.886719 201.246094 193.769531 C 201.351562 193.683594 201.542969 193.707031 201.628906 193.785156 C 202.011719 194.125 202.546875 194.179688 202.945312 194.472656 C 203.125 194.605469 203.234375 194.800781 203.339844 194.996094 C 204.175781 196.519531 204.71875 198.144531 205.089844 199.828125 C 205.125 199.980469 205.132812 200.140625 205.199219 200.277344 C 205.269531 200.4375 205.410156 200.394531 205.53125 200.3125 C 205.511719 200.140625 205.582031 200.015625 205.738281 199.933594 C 205.75 199.773438 205.773438 199.613281 205.945312 199.53125 C 205.925781 199.492188 205.941406 199.464844 205.980469 199.453125 C 205.988281 199.300781 206.023438 199.15625 206.175781 199.070312 C 206.203125 198.96875 206.21875 198.855469 206.265625 198.757812 C 206.765625 197.6875 207.289062 196.621094 207.777344 195.542969 C 208.222656 194.5625 208.636719 193.570312 209.0625 192.582031 C 209.140625 192.308594 209.210938 192.03125 209.300781 191.761719 C 210.171875 189.140625 210.707031 186.453125 210.835938 183.691406 C 210.882812 182.707031 210.898438 181.71875 210.925781 180.734375 C 210.820312 180.546875 210.863281 180.351562 210.902344 180.160156 C 210.796875 179.984375 210.835938 179.800781 210.871094 179.613281 C 210.757812 179.453125 210.804688 179.277344 210.824219 179.105469 C 210.738281 179.003906 210.746094 178.894531 210.785156 178.78125 C 210.757812 178.742188 210.753906 178.703125 210.78125 178.664062 C 210.691406 178.550781 210.722656 178.414062 210.703125 178.289062 C 210.597656 177.664062 210.601562 177.027344 210.417969 176.417969 C 210.472656 176.363281 210.496094 176.183594 210.589844 176.402344 C 210.652344 176.550781 210.699219 176.558594 210.734375 176.519531 C 210.769531 176.484375 210.792969 176.410156 210.820312 176.359375 C 210.421875 174.402344 209.792969 172.519531 209.035156 170.671875 C 208.949219 170.507812 208.863281 170.34375 208.777344 170.175781 C 208.261719 169.195312 207.746094 168.207031 207.230469 167.222656 C 207.1875 167.203125 207.160156 167.175781 207.144531 167.140625 C 207.132812 167.117188 207.128906 167.089844 207.128906 167.058594 C 207.058594 167.027344 207.027344 166.972656 207.03125 166.902344 C 206.960938 166.871094 206.929688 166.816406 206.933594 166.742188 C 206.859375 166.714844 206.828125 166.660156 206.832031 166.582031 C 206.757812 166.554688 206.722656 166.5 206.730469 166.425781 C 206.65625 166.398438 206.621094 166.34375 206.628906 166.269531 L 206.625 166.265625 C 206.554688 166.242188 206.515625 166.191406 206.523438 166.113281 L 206.519531 166.109375 C 206.484375 166.0625 206.449219 166.011719 206.417969 165.960938 L 206.414062 165.953125 C 206.339844 165.929688 206.304688 165.882812 206.308594 165.804688 L 206.304688 165.800781 C 206.234375 165.773438 206.199219 165.726562 206.203125 165.648438 L 206.199219 165.644531 C 206.199219 165.644531 206.195312 165.640625 206.195312 165.640625 C 206.195312 165.640625 206.199219 165.644531 206.199219 165.644531 C 206.125 165.621094 206.089844 165.570312 206.09375 165.492188 L 206.089844 165.488281 C 206.015625 165.464844 205.980469 165.414062 205.984375 165.339844 L 205.984375 165.335938 C 205.910156 165.3125 205.871094 165.261719 205.875 165.183594 C 205.507812 164.734375 205.144531 164.289062 204.78125 163.839844 C 204.664062 163.546875 204.425781 163.34375 204.222656 163.121094 C 204.1875 163.128906 204.160156 163.144531 204.132812 163.164062 C 204.09375 163.191406 204.070312 163.230469 204.050781 163.28125 C 203.882812 163.128906 203.699219 162.988281 203.609375 162.765625 C 203.585938 162.695312 203.558594 162.628906 203.5 162.578125 C 203.535156 162.640625 203.574219 162.703125 203.609375 162.765625 C 203.542969 162.726562 203.484375 162.683594 203.5 162.601562 C 203.382812 162.578125 203.316406 162.507812 203.273438 162.402344 C 203.199219 162.390625 203.152344 162.351562 203.148438 162.273438 C 203.078125 162.238281 203.023438 162.199219 203.015625 162.117188 C 202.976562 162.105469 202.949219 162.085938 202.933594 162.046875 C 202.738281 161.925781 202.582031 161.773438 202.460938 161.578125 C 202.328125 161.484375 202.191406 161.394531 202.121094 161.242188 C 202.011719 161.214844 201.957031 161.128906 201.894531 161.050781 C 201.371094 160.6875 200.921875 160.226562 200.300781 159.949219 C 200.484375 159.796875 200.453125 159.542969 200.691406 159.503906 Z M 206.113281 199.476562 C 206.113281 199.476562 206.113281 199.476562 206.113281 199.472656 C 206.113281 199.472656 206.113281 199.476562 206.113281 199.476562 C 206.113281 199.472656 206.113281 199.472656 206.113281 199.472656 C 206.109375 199.472656 206.109375 199.472656 206.109375 199.472656 C 206.109375 199.476562 206.109375 199.476562 206.113281 199.476562 Z M 206.414062 165.3125 C 206.425781 165.320312 206.4375 165.332031 206.449219 165.34375 C 206.445312 165.339844 206.445312 165.335938 206.441406 165.332031 C 206.433594 165.320312 206.429688 165.3125 206.417969 165.300781 C 206.417969 165.300781 206.417969 165.304688 206.414062 165.3125 Z M 207.230469 167.210938 C 207.234375 167.210938 207.234375 167.210938 207.234375 167.210938 C 207.238281 167.207031 207.242188 167.207031 207.246094 167.203125 L 207.257812 167.191406 L 207.234375 167.210938 C 207.230469 167.210938 207.230469 167.210938 207.230469 167.210938 Z M 206.441406 165.246094 C 206.433594 165.265625 206.425781 165.28125 206.421875 165.296875 C 206.429688 165.308594 206.433594 165.320312 206.441406 165.328125 C 206.429688 165.304688 206.429688 165.277344 206.441406 165.246094 Z M 206.492188 165.398438 C 206.503906 165.410156 206.511719 165.421875 206.519531 165.433594 C 206.519531 165.433594 206.519531 165.433594 206.523438 165.433594 C 206.511719 165.421875 206.503906 165.410156 206.492188 165.398438 Z M 201.855469 159.839844 C 201.855469 159.839844 201.851562 159.835938 201.851562 159.835938 C 201.851562 159.835938 201.851562 159.832031 201.851562 159.832031 C 201.847656 159.832031 201.847656 159.832031 201.84375 159.832031 C 201.847656 159.835938 201.851562 159.835938 201.855469 159.839844 Z M 202.085938 160.003906 C 202.089844 160.003906 202.09375 160.003906 202.09375 160.007812 C 202.089844 160.007812 202.085938 160.003906 202.085938 160.003906 Z M 203.488281 162.464844 C 203.492188 162.453125 203.5 162.441406 203.511719 162.429688 C 203.503906 162.425781 203.492188 162.425781 203.484375 162.421875 C 203.488281 162.4375 203.488281 162.449219 203.488281 162.464844 Z M 203.097656 162.152344 C 203.085938 162.132812 203.0625 162.117188 203.035156 162.109375 C 203.0625 162.121094 203.082031 162.132812 203.097656 162.152344 Z M 203.097656 162.152344 " fill-opacity="1" fill-rule="nonzero"/></g></g></g></g><g clip-path="url(#60045166d7)"><g clip-path="url(#79af9d080d)"><g clip-path="url(#b0abaa3ef1)"><g clip-path="url(#dcdda8c8dd)"><path fill="#ffffff" d="M 206.414062 165.949219 C 206.449219 166 206.484375 166.050781 206.519531 166.101562 C 206.445312 166.074219 206.410156 166.023438 206.414062 165.949219 Z M 206.414062 165.949219 " fill-opacity="1" fill-rule="nonzero"/></g></g></g></g><g clip-path="url(#0a5e26cb11)"><g clip-path="url(#9ba8035145)"><g clip-path="url(#4d04b47d6e)"><g clip-path="url(#db54e1ed3f)"><path fill="#ffffff" d="M 130.34375 250.140625 C 130.34375 250.183594 130.328125 250.214844 130.292969 250.238281 C 130.304688 250.382812 130.53125 250.4375 130.445312 250.621094 C 130.523438 251.066406 130.238281 251.265625 129.898438 251.425781 C 128.945312 251.863281 127.941406 252.136719 126.917969 252.351562 C 123.261719 253.109375 119.625 253.070312 115.964844 252.382812 C 109.574219 251.179688 104.34375 247.980469 99.949219 243.320312 C 97.910156 241.160156 96.289062 238.679688 94.785156 236.121094 C 93.902344 234.617188 93.113281 233.0625 92.28125 231.53125 C 92.277344 231.460938 92.273438 231.394531 92.269531 231.324219 C 92.207031 231.277344 92.152344 231.207031 92.082031 231.195312 C 92.027344 231.183594 92.015625 231.261719 92.042969 231.316406 C 91.9375 232 91.976562 232.679688 92.054688 233.355469 C 92.105469 233.816406 92.121094 234.273438 92 234.726562 C 92.121094 235.722656 91.679688 236.394531 90.792969 236.625 C 89.6875 234.96875 89.609375 233.101562 89.6875 231.195312 C 89.714844 230.484375 89.695312 229.777344 89.6875 229.066406 C 89.667969 227.367188 89.765625 227.613281 90.941406 226.882812 C 91.207031 226.71875 91.5 226.617188 91.804688 226.550781 C 91.917969 226.523438 92.019531 226.511719 92.121094 226.582031 C 92.429688 226.410156 92.671875 226.578125 92.902344 226.75 C 93.582031 227.261719 94.253906 227.785156 94.929688 228.304688 C 95.132812 228.324219 95.269531 228.453125 95.398438 228.59375 C 95.601562 228.605469 95.738281 228.742188 95.875 228.867188 C 96.019531 228.851562 96.117188 228.960938 96.230469 229.019531 C 97.789062 229.808594 99.414062 230.410156 101.140625 230.726562 C 101.273438 230.75 101.398438 230.785156 101.527344 230.816406 C 101.683594 230.847656 101.855469 230.886719 101.871094 231.066406 C 101.882812 231.199219 101.753906 231.34375 101.644531 231.371094 C 101.144531 231.492188 100.796875 231.898438 100.324219 232.058594 C 100.117188 232.132812 99.894531 232.109375 99.671875 232.085938 C 97.945312 231.90625 96.300781 231.421875 94.703125 230.769531 C 94.558594 230.710938 94.421875 230.628906 94.273438 230.601562 C 94.097656 230.570312 94.058594 230.710938 94.054688 230.855469 C 94.210938 230.9375 94.269531 231.066406 94.25 231.238281 C 94.375 231.34375 94.488281 231.453125 94.457031 231.640625 C 94.503906 231.648438 94.515625 231.671875 94.503906 231.714844 C 94.625 231.808594 94.726562 231.917969 94.707031 232.09375 C 94.777344 232.175781 94.859375 232.25 94.914062 232.34375 C 95.507812 233.367188 96.085938 234.402344 96.695312 235.421875 C 97.246094 236.34375 97.824219 237.25 98.394531 238.160156 C 98.574219 238.382812 98.761719 238.597656 98.929688 238.828125 C 100.589844 241.039062 102.492188 243.011719 104.6875 244.6875 C 105.472656 245.289062 106.273438 245.863281 107.066406 246.449219 C 107.28125 246.46875 107.414062 246.613281 107.550781 246.753906 C 107.757812 246.769531 107.886719 246.90625 108.019531 247.039062 C 108.214844 247.039062 108.332031 247.179688 108.464844 247.292969 C 108.59375 247.28125 108.679688 247.347656 108.75 247.445312 C 108.800781 247.445312 108.832031 247.464844 108.847656 247.511719 C 108.992188 247.5 109.089844 247.605469 109.203125 247.660156 C 109.777344 247.925781 110.296875 248.296875 110.902344 248.492188 C 110.917969 248.566406 111.050781 248.691406 110.816406 248.640625 C 110.660156 248.609375 110.628906 248.640625 110.640625 248.695312 C 110.648438 248.742188 110.691406 248.804688 110.722656 248.855469 C 112.554688 249.644531 114.464844 250.199219 116.410156 250.628906 C 116.597656 250.652344 116.78125 250.675781 116.964844 250.699219 C 118.070312 250.835938 119.171875 250.972656 120.273438 251.113281 C 120.3125 251.089844 120.351562 251.082031 120.390625 251.089844 C 120.417969 251.09375 120.441406 251.105469 120.464844 251.121094 C 120.53125 251.082031 120.59375 251.089844 120.652344 251.132812 C 120.71875 251.089844 120.78125 251.09375 120.839844 251.140625 C 120.90625 251.097656 120.96875 251.101562 121.027344 251.148438 C 121.09375 251.105469 121.15625 251.105469 121.214844 251.15625 C 121.28125 251.109375 121.34375 251.113281 121.402344 251.160156 L 121.40625 251.160156 C 121.46875 251.113281 121.53125 251.117188 121.589844 251.164062 L 121.59375 251.164062 C 121.652344 251.160156 121.714844 251.160156 121.777344 251.164062 L 121.78125 251.164062 C 121.84375 251.117188 121.902344 251.117188 121.964844 251.164062 L 121.972656 251.164062 C 122.03125 251.121094 122.09375 251.117188 122.15625 251.164062 L 122.160156 251.164062 C 122.160156 251.164062 122.164062 251.164062 122.164062 251.164062 C 122.164062 251.164062 122.160156 251.164062 122.160156 251.164062 C 122.222656 251.117188 122.285156 251.117188 122.34375 251.164062 L 122.347656 251.164062 C 122.410156 251.117188 122.472656 251.117188 122.53125 251.164062 L 122.535156 251.164062 C 122.597656 251.117188 122.660156 251.113281 122.722656 251.160156 C 123.300781 251.117188 123.875 251.070312 124.453125 251.027344 C 124.757812 251.097656 125.058594 251.019531 125.359375 250.980469 C 125.375 250.945312 125.378906 250.914062 125.375 250.882812 C 125.375 250.832031 125.355469 250.789062 125.324219 250.746094 C 125.546875 250.695312 125.769531 250.625 126.003906 250.675781 C 126.074219 250.699219 126.144531 250.710938 126.214844 250.695312 C 126.144531 250.6875 126.074219 250.683594 126.003906 250.675781 C 126.070312 250.644531 126.140625 250.625 126.199219 250.679688 C 126.285156 250.597656 126.382812 250.582031 126.492188 250.609375 C 126.542969 250.554688 126.601562 250.539062 126.667969 250.582031 C 126.734375 250.542969 126.800781 250.519531 126.875 250.558594 C 126.902344 250.535156 126.9375 250.523438 126.976562 250.53125 C 127.1875 250.441406 127.402344 250.398438 127.632812 250.410156 C 127.785156 250.355469 127.933594 250.292969 128.101562 250.320312 C 128.183594 250.25 128.289062 250.253906 128.386719 250.246094 C 128.984375 250.023438 129.617188 249.914062 130.203125 249.566406 C 130.222656 249.800781 130.449219 249.921875 130.34375 250.140625 Z M 94.410156 231.808594 C 94.410156 231.8125 94.410156 231.8125 94.414062 231.8125 C 94.410156 231.8125 94.410156 231.8125 94.410156 231.8125 C 94.410156 231.8125 94.414062 231.8125 94.414062 231.8125 C 94.414062 231.808594 94.414062 231.808594 94.417969 231.808594 C 94.414062 231.808594 94.410156 231.808594 94.410156 231.808594 Z M 122.308594 251.53125 C 122.296875 251.535156 122.28125 251.539062 122.265625 251.539062 C 122.269531 251.542969 122.273438 251.542969 122.277344 251.542969 C 122.289062 251.542969 122.300781 251.542969 122.316406 251.542969 C 122.316406 251.539062 122.3125 251.535156 122.308594 251.53125 Z M 120.28125 251.117188 C 120.28125 251.121094 120.28125 251.121094 120.28125 251.121094 C 120.28125 251.128906 120.28125 251.132812 120.28125 251.136719 L 120.285156 251.15625 L 120.28125 251.121094 C 120.285156 251.121094 120.285156 251.121094 120.285156 251.121094 C 120.285156 251.121094 120.285156 251.121094 120.28125 251.117188 Z M 122.347656 251.589844 C 122.339844 251.574219 122.328125 251.558594 122.316406 251.542969 C 122.304688 251.542969 122.292969 251.542969 122.28125 251.542969 C 122.308594 251.546875 122.332031 251.5625 122.347656 251.589844 Z M 122.195312 251.546875 C 122.179688 251.546875 122.164062 251.546875 122.152344 251.550781 C 122.148438 251.550781 122.148438 251.550781 122.148438 251.550781 C 122.164062 251.550781 122.179688 251.546875 122.195312 251.546875 Z M 129.40625 250.902344 C 129.40625 250.902344 129.410156 250.902344 129.410156 250.902344 C 129.410156 250.902344 129.414062 250.902344 129.414062 250.902344 C 129.414062 250.902344 129.414062 250.902344 129.417969 250.902344 C 129.414062 250.898438 129.410156 250.902344 129.40625 250.902344 Z M 129.136719 251 C 129.136719 251.003906 129.132812 251.003906 129.128906 251.003906 C 129.132812 251.003906 129.136719 251 129.136719 251 Z M 126.316406 250.75 C 126.324219 250.761719 126.328125 250.773438 126.332031 250.789062 C 126.339844 250.785156 126.347656 250.777344 126.351562 250.769531 C 126.339844 250.765625 126.328125 250.757812 126.316406 250.75 Z M 126.796875 250.609375 C 126.820312 250.609375 126.84375 250.597656 126.867188 250.582031 C 126.84375 250.59375 126.820312 250.605469 126.796875 250.609375 Z M 126.796875 250.609375 " fill-opacity="1" fill-rule="nonzero"/></g></g></g></g><g clip-path="url(#91a6364e33)"><g clip-path="url(#5a815800a6)"><g clip-path="url(#4e817228d7)"><g clip-path="url(#24eb205ca6)"><path fill="#ffffff" d="M 121.785156 251.167969 C 121.726562 251.167969 121.664062 251.164062 121.601562 251.167969 C 121.664062 251.121094 121.726562 251.121094 121.785156 251.167969 Z M 121.785156 251.167969 " fill-opacity="1" fill-rule="nonzero"/></g></g></g></g><path stroke-linecap="butt" transform="matrix(0.74987, 0.00605191, -0.00605275, 0.749976, 136.490312, 77.868328)" fill="none" stroke-linejoin="miter" d="M -0.00220402 1.998562 L 223.03636 2.000901 " stroke="#000000" stroke-width="4" stroke-opacity="1" stroke-miterlimit="4"/><path stroke-linecap="butt" transform="matrix(0.750617, -0.00364086, 0.00363783, 0.749991, 135.126205, 291.168432)" fill="none" stroke-linejoin="miter" d="M -0.000887235 1.999401 L 224.814281 2.002221 " stroke="#000000" stroke-width="4" stroke-opacity="1" stroke-miterlimit="4"/><g clip-path="url(#87b17f8aa3)"><path fill="#38b6ff" d="M 266.714844 306.992188 L 275.207031 297.5 C 275.390625 297.296875 275.644531 297.183594 275.910156 297.183594 L 281.574219 297.183594 C 281.945312 297.183594 282.28125 297.402344 282.4375 297.746094 C 282.585938 298.089844 282.523438 298.488281 282.273438 298.765625 L 274.351562 307.628906 L 282.273438 316.484375 C 282.523438 316.765625 282.589844 317.164062 282.4375 317.507812 C 282.28125 317.851562 281.945312 318.070312 281.574219 318.070312 L 275.910156 318.070312 C 275.644531 318.070312 275.390625 317.953125 275.207031 317.757812 L 266.714844 308.261719 C 266.394531 307.902344 266.394531 307.351562 266.714844 306.992188 Z M 266.714844 306.992188 " fill-opacity="1" fill-rule="nonzero"/></g><g clip-path="url(#bd229b5e62)"><path fill="#38b6ff" d="M 278.984375 306.992188 L 287.476562 297.5 C 287.660156 297.296875 287.910156 297.183594 288.179688 297.183594 L 293.839844 297.183594 C 294.214844 297.183594 294.550781 297.402344 294.703125 297.746094 C 294.855469 298.089844 294.792969 298.488281 294.542969 298.765625 L 286.617188 307.628906 L 294.542969 316.484375 C 294.792969 316.765625 294.855469 317.164062 294.703125 317.507812 C 294.550781 317.851562 294.214844 318.070312 293.839844 318.070312 L 288.179688 318.070312 C 287.910156 318.070312 287.660156 317.953125 287.476562 317.757812 L 278.984375 308.261719 C 278.660156 307.902344 278.660156 307.351562 278.984375 306.992188 Z M 278.984375 306.992188 " fill-opacity="1" fill-rule="nonzero"/></g><g clip-path="url(#5e20096fd6)"><path fill="#5ce1e6" d="M 229.589844 306.992188 L 238.082031 297.5 C 238.265625 297.296875 238.519531 297.183594 238.785156 297.183594 L 244.449219 297.183594 C 244.820312 297.183594 245.15625 297.402344 245.3125 297.746094 C 245.460938 298.089844 245.398438 298.488281 245.148438 298.765625 L 237.226562 307.628906 L 245.148438 316.484375 C 245.398438 316.765625 245.464844 317.164062 245.3125 317.507812 C 245.15625 317.851562 244.820312 318.070312 244.449219 318.070312 L 238.785156 318.070312 C 238.519531 318.070312 238.265625 317.953125 238.082031 317.757812 L 229.589844 308.261719 C 229.269531 307.902344 229.269531 307.351562 229.589844 306.992188 Z M 229.589844 306.992188 " fill-opacity="1" fill-rule="nonzero"/></g><g clip-path="url(#7be8595316)"><path fill="#5ce1e6" d="M 241.859375 306.992188 L 250.351562 297.5 C 250.535156 297.296875 250.785156 297.183594 251.054688 297.183594 L 256.714844 297.183594 C 257.089844 297.183594 257.425781 297.402344 257.578125 297.746094 C 257.730469 298.089844 257.667969 298.488281 257.417969 298.765625 L 249.492188 307.628906 L 257.417969 316.484375 C 257.667969 316.765625 257.730469 317.164062 257.578125 317.507812 C 257.425781 317.851562 257.089844 318.070312 256.714844 318.070312 L 251.054688 318.070312 C 250.785156 318.070312 250.535156 317.953125 250.351562 317.757812 L 241.859375 308.261719 C 241.535156 307.902344 241.535156 307.351562 241.859375 306.992188 Z M 241.859375 306.992188 " fill-opacity="1" fill-rule="nonzero"/></g><g clip-path="url(#f8f05ec492)"><path fill="#38b6ff" d="M 192.464844 306.992188 L 200.957031 297.5 C 201.140625 297.296875 201.394531 297.183594 201.660156 297.183594 L 207.324219 297.183594 C 207.695312 297.183594 208.03125 297.402344 208.1875 297.746094 C 208.335938 298.089844 208.273438 298.488281 208.023438 298.765625 L 200.101562 307.628906 L 208.023438 316.484375 C 208.273438 316.765625 208.339844 317.164062 208.1875 317.507812 C 208.03125 317.851562 207.695312 318.070312 207.324219 318.070312 L 201.660156 318.070312 C 201.394531 318.070312 201.140625 317.953125 200.957031 317.757812 L 192.464844 308.261719 C 192.144531 307.902344 192.144531 307.351562 192.464844 306.992188 Z M 192.464844 306.992188 " fill-opacity="1" fill-rule="nonzero"/></g><g clip-path="url(#4988cc0d3c)"><path fill="#38b6ff" d="M 204.734375 306.992188 L 213.226562 297.5 C 213.410156 297.296875 213.660156 297.183594 213.929688 297.183594 L 219.589844 297.183594 C 219.964844 297.183594 220.300781 297.402344 220.453125 297.746094 C 220.605469 298.089844 220.542969 298.488281 220.292969 298.765625 L 212.367188 307.628906 L 220.292969 316.484375 C 220.542969 316.765625 220.605469 317.164062 220.453125 317.507812 C 220.300781 317.851562 219.964844 318.070312 219.589844 318.070312 L 213.929688 318.070312 C 213.660156 318.070312 213.410156 317.953125 213.226562 317.757812 L 204.734375 308.261719 C 204.410156 307.902344 204.410156 307.351562 204.734375 306.992188 Z M 204.734375 306.992188 " fill-opacity="1" fill-rule="nonzero"/></g><g clip-path="url(#b76b22359f)"><path fill="#38b6ff" d="M 155.339844 306.992188 L 163.832031 297.5 C 164.015625 297.296875 164.269531 297.183594 164.535156 297.183594 L 170.199219 297.183594 C 170.570312 297.183594 170.90625 297.402344 171.0625 297.746094 C 171.210938 298.089844 171.148438 298.488281 170.898438 298.765625 L 162.976562 307.628906 L 170.898438 316.484375 C 171.148438 316.765625 171.214844 317.164062 171.0625 317.507812 C 170.90625 317.851562 170.570312 318.070312 170.199219 318.070312 L 164.535156 318.070312 C 164.269531 318.070312 164.015625 317.953125 163.832031 317.757812 L 155.339844 308.261719 C 155.019531 307.902344 155.019531 307.351562 155.339844 306.992188 Z M 155.339844 306.992188 " fill-opacity="1" fill-rule="nonzero"/></g><g clip-path="url(#ea4b6cf746)"><path fill="#38b6ff" d="M 167.609375 306.992188 L 176.101562 297.5 C 176.285156 297.296875 176.535156 297.183594 176.804688 297.183594 L 182.464844 297.183594 C 182.839844 297.183594 183.175781 297.402344 183.328125 297.746094 C 183.480469 298.089844 183.417969 298.488281 183.167969 298.765625 L 175.242188 307.628906 L 183.167969 316.484375 C 183.417969 316.765625 183.480469 317.164062 183.328125 317.507812 C 183.175781 317.851562 182.839844 318.070312 182.464844 318.070312 L 176.804688 318.070312 C 176.535156 318.070312 176.285156 317.953125 176.101562 317.757812 L 167.609375 308.261719 C 167.285156 307.902344 167.285156 307.351562 167.609375 306.992188 Z M 167.609375 306.992188 " fill-opacity="1" fill-rule="nonzero"/></g><g clip-path="url(#cc38b05920)"><g clip-path="url(#144d4497b8)"><g clip-path="url(#fe7648558f)"><path fill="#38b6ff" d="M 118.210938 307.242188 L 126.535156 297.597656 C 126.710938 297.394531 126.960938 297.273438 127.230469 297.269531 L 132.890625 297.171875 C 133.261719 297.164062 133.605469 297.378906 133.765625 297.714844 C 133.921875 298.058594 133.867188 298.460938 133.621094 298.742188 L 125.855469 307.738281 L 133.933594 316.457031 C 134.1875 316.730469 134.261719 317.128906 134.113281 317.476562 C 133.964844 317.820312 133.632812 318.046875 133.261719 318.054688 L 127.597656 318.152344 C 127.332031 318.160156 127.078125 318.046875 126.890625 317.851562 L 118.230469 308.511719 C 117.902344 308.15625 117.894531 307.605469 118.210938 307.242188 Z M 118.210938 307.242188 " fill-opacity="1" fill-rule="nonzero"/></g></g></g><g clip-path="url(#8196c9e537)"><g clip-path="url(#ba1c5d38f4)"><g clip-path="url(#5763541869)"><path fill="#38b6ff" d="M 130.476562 307.023438 L 138.800781 297.382812 C 138.976562 297.175781 139.230469 297.058594 139.496094 297.054688 L 145.15625 296.953125 C 145.53125 296.945312 145.871094 297.160156 146.03125 297.5 C 146.1875 297.839844 146.132812 298.242188 145.886719 298.523438 L 138.121094 307.523438 L 146.203125 316.238281 C 146.457031 316.515625 146.527344 316.914062 146.378906 317.257812 C 146.234375 317.605469 145.898438 317.832031 145.527344 317.835938 L 139.867188 317.9375 C 139.597656 317.941406 139.34375 317.832031 139.160156 317.636719 L 130.5 308.292969 C 130.167969 307.9375 130.160156 307.386719 130.476562 307.023438 Z M 130.476562 307.023438 " fill-opacity="1" fill-rule="nonzero"/></g></g></g><g clip-path="url(#fb8b4898d3)"><g clip-path="url(#8cdcc57306)"><g clip-path="url(#db06085f03)"><path fill="#5ce1e6" d="M 75.855469 286.085938 L 88.128906 282.679688 C 88.390625 282.609375 88.664062 282.648438 88.890625 282.796875 L 93.65625 285.851562 C 93.96875 286.050781 94.132812 286.421875 94.078125 286.789062 C 94.019531 287.160156 93.75 287.464844 93.390625 287.5625 L 81.9375 290.742188 L 83.828125 302.476562 C 83.886719 302.847656 83.722656 303.21875 83.410156 303.425781 C 83.097656 303.632812 82.691406 303.632812 82.378906 303.433594 L 77.613281 300.375 C 77.386719 300.230469 77.238281 299.996094 77.191406 299.734375 L 75.167969 287.15625 C 75.089844 286.679688 75.386719 286.214844 75.855469 286.085938 Z M 75.855469 286.085938 " fill-opacity="1" fill-rule="nonzero"/></g></g></g><g clip-path="url(#725884c49e)"><g clip-path="url(#d605171856)"><g clip-path="url(#8e6a186881)"><path fill="#5ce1e6" d="M 86.179688 292.710938 L 98.457031 289.304688 C 98.714844 289.234375 98.992188 289.273438 99.214844 289.417969 L 103.984375 292.476562 C 104.296875 292.675781 104.460938 293.042969 104.40625 293.414062 C 104.347656 293.785156 104.078125 294.089844 103.71875 294.1875 L 92.265625 297.367188 L 94.152344 309.101562 C 94.210938 309.46875 94.050781 309.84375 93.738281 310.046875 C 93.421875 310.253906 93.019531 310.257812 92.707031 310.058594 L 87.941406 307 C 87.714844 306.855469 87.5625 306.621094 87.519531 306.355469 L 85.496094 293.78125 C 85.417969 293.300781 85.714844 292.839844 86.179688 292.710938 Z M 86.179688 292.710938 " fill-opacity="1" fill-rule="nonzero"/></g></g></g><g clip-path="url(#fccb0e17ee)"><g clip-path="url(#bf8ec5c3d4)"><g clip-path="url(#bd36d4947e)"><path fill="#38b6ff" d="M 41.28125 262.910156 L 53.984375 261.964844 C 54.253906 261.945312 54.515625 262.039062 54.707031 262.222656 L 58.785156 266.152344 C 59.054688 266.410156 59.144531 266.800781 59.015625 267.15625 C 58.886719 267.507812 58.566406 267.753906 58.191406 267.777344 L 46.339844 268.664062 L 45.902344 280.539062 C 45.886719 280.914062 45.65625 281.246094 45.308594 281.386719 C 44.960938 281.53125 44.566406 281.453125 44.296875 281.195312 L 40.21875 277.269531 C 40.027344 277.082031 39.921875 276.824219 39.929688 276.554688 L 40.398438 263.824219 C 40.417969 263.339844 40.796875 262.945312 41.28125 262.910156 Z M 41.28125 262.910156 " fill-opacity="1" fill-rule="nonzero"/></g></g></g><g clip-path="url(#5023101d70)"><g clip-path="url(#6f8f79b284)"><g clip-path="url(#5fd260d75a)"><path fill="#38b6ff" d="M 50.117188 271.421875 L 62.820312 270.472656 C 63.089844 270.453125 63.351562 270.546875 63.542969 270.734375 L 67.621094 274.660156 C 67.890625 274.917969 67.980469 275.3125 67.855469 275.664062 C 67.722656 276.015625 67.402344 276.261719 67.03125 276.289062 L 55.175781 277.171875 L 54.738281 289.050781 C 54.726562 289.425781 54.492188 289.757812 54.144531 289.898438 C 53.796875 290.039062 53.402344 289.964844 53.132812 289.707031 L 49.054688 285.777344 C 48.863281 285.59375 48.761719 285.332031 48.765625 285.066406 L 49.234375 272.335938 C 49.253906 271.851562 49.636719 271.453125 50.117188 271.421875 Z M 50.117188 271.421875 " fill-opacity="1" fill-rule="nonzero"/></g></g></g><g clip-path="url(#62343d694e)"><g clip-path="url(#c2c7b5b7fc)"><g clip-path="url(#330ec95c68)"><path fill="#38b6ff" d="M 22.734375 226.0625 L 35.210938 228.632812 C 35.476562 228.6875 35.699219 228.851562 35.835938 229.082031 L 38.679688 233.976562 C 38.867188 234.296875 38.847656 234.703125 38.628906 235.003906 C 38.40625 235.308594 38.03125 235.457031 37.664062 235.378906 L 26.023438 232.980469 L 22.347656 244.285156 C 22.230469 244.640625 21.917969 244.898438 21.542969 244.9375 C 21.171875 244.976562 20.808594 244.796875 20.625 244.472656 L 17.777344 239.578125 C 17.644531 239.347656 17.617188 239.070312 17.695312 238.8125 L 21.636719 226.699219 C 21.785156 226.238281 22.261719 225.960938 22.734375 226.0625 Z M 22.734375 226.0625 " fill-opacity="1" fill-rule="nonzero"/></g></g></g><g clip-path="url(#8276582035)"><g clip-path="url(#d985e2a03c)"><g clip-path="url(#49b8964afa)"><path fill="#38b6ff" d="M 28.898438 236.667969 L 41.375 239.238281 C 41.640625 239.296875 41.867188 239.457031 42 239.6875 L 44.847656 244.582031 C 45.035156 244.90625 45.011719 245.308594 44.792969 245.613281 C 44.574219 245.914062 44.195312 246.0625 43.832031 245.984375 L 32.1875 243.585938 L 28.511719 254.890625 C 28.394531 255.246094 28.082031 255.503906 27.710938 255.542969 C 27.335938 255.582031 26.976562 255.402344 26.789062 255.082031 L 23.941406 250.183594 C 23.808594 249.953125 23.78125 249.675781 23.859375 249.421875 L 27.800781 237.304688 C 27.949219 236.847656 28.425781 236.570312 28.898438 236.667969 Z M 28.898438 236.667969 " fill-opacity="1" fill-rule="nonzero"/></g></g></g><g clip-path="url(#86478b2b51)"><path fill="#38b6ff" d="M 20.015625 172.027344 L 29.507812 180.519531 C 29.710938 180.699219 29.824219 180.953125 29.824219 181.222656 L 29.824219 186.882812 C 29.824219 187.257812 29.605469 187.59375 29.261719 187.746094 C 28.917969 187.898438 28.515625 187.835938 28.242188 187.585938 L 19.378906 179.660156 L 10.523438 187.585938 C 10.242188 187.835938 9.84375 187.898438 9.5 187.746094 C 9.15625 187.59375 8.9375 187.257812 8.9375 186.882812 L 8.9375 181.222656 C 8.9375 180.953125 9.050781 180.699219 9.25 180.519531 L 18.746094 172.027344 C 19.105469 171.703125 19.65625 171.703125 20.015625 172.027344 Z M 20.015625 172.027344 " fill-opacity="1" fill-rule="nonzero"/></g><g clip-path="url(#b83292a022)"><path fill="#38b6ff" d="M 20.015625 184.292969 L 29.507812 192.789062 C 29.710938 192.96875 29.824219 193.222656 29.824219 193.488281 L 29.824219 199.152344 C 29.824219 199.523438 29.605469 199.863281 29.261719 200.015625 C 28.917969 200.164062 28.515625 200.105469 28.242188 199.855469 L 19.378906 191.929688 L 10.523438 199.855469 C 10.242188 200.105469 9.84375 200.167969 9.5 200.015625 C 9.15625 199.863281 8.9375 199.523438 8.9375 199.152344 L 8.9375 193.488281 C 8.9375 193.222656 9.050781 192.96875 9.25 192.789062 L 18.746094 184.292969 C 19.105469 183.972656 19.65625 183.972656 20.015625 184.292969 Z M 20.015625 184.292969 " fill-opacity="1" fill-rule="nonzero"/></g><g clip-path="url(#9666e2d798)"><g clip-path="url(#5afdaba9b3)"><g clip-path="url(#8887211f24)"><path fill="#5ce1e6" d="M 38.21875 122.101562 L 41.183594 134.492188 C 41.246094 134.753906 41.195312 135.027344 41.042969 135.246094 L 37.816406 139.902344 C 37.605469 140.207031 37.230469 140.359375 36.863281 140.289062 C 36.496094 140.21875 36.203125 139.941406 36.117188 139.578125 L 33.347656 128.015625 L 21.554688 129.484375 C 21.183594 129.53125 20.816406 129.355469 20.621094 129.035156 C 20.425781 128.714844 20.4375 128.308594 20.648438 128.003906 L 23.875 123.351562 C 24.027344 123.128906 24.269531 122.988281 24.53125 122.953125 L 37.175781 121.378906 C 37.65625 121.320312 38.105469 121.632812 38.21875 122.101562 Z M 38.21875 122.101562 " fill-opacity="1" fill-rule="nonzero"/></g></g></g><g clip-path="url(#4b7248888d)"><g clip-path="url(#a08eaef772)"><g clip-path="url(#16ee7435f5)"><path fill="#5ce1e6" d="M 31.230469 132.1875 L 34.195312 144.574219 C 34.257812 144.839844 34.207031 145.109375 34.054688 145.332031 L 30.828125 149.984375 C 30.617188 150.289062 30.246094 150.441406 29.875 150.375 C 29.507812 150.300781 29.214844 150.023438 29.128906 149.660156 L 26.359375 138.101562 L 14.566406 139.566406 C 14.195312 139.613281 13.828125 139.4375 13.632812 139.117188 C 13.4375 138.796875 13.449219 138.394531 13.664062 138.085938 L 16.886719 133.433594 C 17.039062 133.214844 17.28125 133.070312 17.546875 133.035156 L 30.1875 131.460938 C 30.667969 131.402344 31.121094 131.714844 31.230469 132.1875 Z M 31.230469 132.1875 " fill-opacity="1" fill-rule="nonzero"/></g></g></g><g clip-path="url(#5b79c0c0ce)"><g clip-path="url(#39921b900b)"><g clip-path="url(#b71c49cde2)"><path fill="#38b6ff" d="M 65.816406 90.09375 L 65.914062 102.832031 C 65.917969 103.101562 65.804688 103.355469 65.609375 103.535156 L 61.417969 107.34375 C 61.140625 107.59375 60.742188 107.660156 60.402344 107.507812 C 60.058594 107.355469 59.835938 107.015625 59.832031 106.644531 L 59.742188 94.757812 L 47.917969 93.53125 C 47.546875 93.492188 47.230469 93.238281 47.113281 92.882812 C 46.996094 92.523438 47.097656 92.136719 47.371094 91.882812 L 51.5625 88.078125 C 51.761719 87.898438 52.027344 87.8125 52.292969 87.835938 L 64.964844 89.152344 C 65.445312 89.203125 65.816406 89.609375 65.816406 90.09375 Z M 65.816406 90.09375 " fill-opacity="1" fill-rule="nonzero"/></g></g></g><g clip-path="url(#0836c7d39c)"><g clip-path="url(#0bd3f70d6f)"><g clip-path="url(#a4f6b4e93c)"><path fill="#38b6ff" d="M 56.738281 98.34375 L 56.835938 111.082031 C 56.835938 111.351562 56.726562 111.605469 56.527344 111.785156 L 52.335938 115.59375 C 52.0625 115.84375 51.664062 115.90625 51.320312 115.757812 C 50.976562 115.605469 50.753906 115.265625 50.753906 114.894531 L 50.660156 103.007812 L 38.839844 101.78125 C 38.464844 101.742188 38.148438 101.488281 38.03125 101.132812 C 37.914062 100.773438 38.015625 100.382812 38.292969 100.132812 L 42.480469 96.328125 C 42.679688 96.148438 42.945312 96.0625 43.210938 96.085938 L 55.882812 97.402344 C 56.363281 97.453125 56.734375 97.859375 56.738281 98.34375 Z M 56.738281 98.34375 " fill-opacity="1" fill-rule="nonzero"/></g></g></g><g clip-path="url(#6fb9252769)"><g clip-path="url(#946e0ad7ab)"><g clip-path="url(#7b86a7a21a)"><path fill="#38b6ff" d="M 100.488281 72.246094 L 97.054688 84.511719 C 96.980469 84.773438 96.800781 84.988281 96.5625 85.105469 L 91.480469 87.601562 C 91.148438 87.765625 90.746094 87.71875 90.457031 87.480469 C 90.171875 87.238281 90.050781 86.851562 90.152344 86.492188 L 93.355469 75.042969 L 82.335938 70.589844 C 81.988281 70.449219 81.753906 70.117188 81.742188 69.746094 C 81.726562 69.367188 81.933594 69.023438 82.265625 68.859375 L 87.347656 66.359375 C 87.589844 66.242188 87.867188 66.234375 88.117188 66.332031 L 99.925781 71.105469 C 100.375 71.285156 100.617188 71.78125 100.488281 72.246094 Z M 100.488281 72.246094 " fill-opacity="1" fill-rule="nonzero"/></g></g></g><g clip-path="url(#dff2a3b68d)"><g clip-path="url(#3469df5871)"><g clip-path="url(#8b85f4a215)"><path fill="#38b6ff" d="M 89.476562 77.65625 L 86.042969 89.925781 C 85.96875 90.183594 85.792969 90.398438 85.550781 90.515625 L 80.472656 93.015625 C 80.136719 93.179688 79.738281 93.128906 79.449219 92.890625 C 79.160156 92.648438 79.039062 92.261719 79.140625 91.902344 L 82.347656 80.457031 L 71.324219 76.003906 C 70.980469 75.863281 70.746094 75.53125 70.730469 75.15625 C 70.71875 74.78125 70.921875 74.433594 71.257812 74.269531 L 76.339844 71.773438 C 76.578125 71.652344 76.855469 71.648438 77.105469 71.742188 L 88.917969 76.515625 C 89.367188 76.699219 89.609375 77.191406 89.476562 77.65625 Z M 89.476562 77.65625 " fill-opacity="1" fill-rule="nonzero"/></g></g></g><g clip-path="url(#508659b493)"><path fill="#38b6ff" d="M 146.195312 68.148438 L 137.703125 77.640625 C 137.519531 77.84375 137.265625 77.957031 137 77.957031 L 131.335938 77.957031 C 130.964844 77.957031 130.628906 77.738281 130.472656 77.394531 C 130.324219 77.050781 130.386719 76.652344 130.636719 76.375 L 138.558594 67.515625 L 130.636719 58.65625 C 130.386719 58.375 130.320312 57.976562 130.472656 57.632812 C 130.628906 57.289062 130.964844 57.070312 131.335938 57.070312 L 137 57.070312 C 137.265625 57.070312 137.519531 57.1875 137.703125 57.382812 L 146.195312 66.878906 C 146.515625 67.238281 146.515625 67.789062 146.195312 68.148438 Z M 146.195312 68.148438 " fill-opacity="1" fill-rule="nonzero"/></g><g clip-path="url(#39a057eec1)"><path fill="#38b6ff" d="M 133.925781 68.148438 L 125.433594 77.640625 C 125.25 77.84375 125 77.957031 124.730469 77.957031 L 119.070312 77.957031 C 118.695312 77.957031 118.359375 77.738281 118.207031 77.394531 C 118.054688 77.050781 118.117188 76.652344 118.367188 76.375 L 126.292969 67.515625 L 118.367188 58.65625 C 118.117188 58.375 118.054688 57.976562 118.207031 57.632812 C 118.359375 57.289062 118.695312 57.070312 119.070312 57.070312 L 124.730469 57.070312 C 125 57.070312 125.25 57.1875 125.433594 57.382812 L 133.925781 66.878906 C 134.25 67.238281 134.25 67.789062 133.925781 68.148438 Z M 133.925781 68.148438 " fill-opacity="1" fill-rule="nonzero"/></g><g clip-path="url(#b4f6bf8f1e)"><g clip-path="url(#f1b4313db4)"><g clip-path="url(#d203625c67)"><path fill="#5ce1e6" d="M 182.71875 68.148438 L 173.941406 77.382812 C 173.753906 77.578125 173.5 77.6875 173.230469 77.675781 L 167.570312 77.507812 C 167.199219 77.496094 166.871094 77.265625 166.726562 76.917969 C 166.585938 76.570312 166.660156 76.171875 166.917969 75.902344 L 175.105469 67.285156 L 167.453125 58.191406 C 167.210938 57.90625 167.160156 57.503906 167.320312 57.167969 C 167.484375 56.828125 167.828125 56.617188 168.199219 56.628906 L 173.859375 56.800781 C 174.128906 56.808594 174.378906 56.929688 174.554688 57.132812 L 182.757812 66.878906 C 183.066406 67.25 183.050781 67.800781 182.71875 68.148438 Z M 182.71875 68.148438 " fill-opacity="1" fill-rule="nonzero"/></g></g></g><g clip-path="url(#4aefd2c386)"><g clip-path="url(#88bc4897c4)"><g clip-path="url(#e272e05923)"><path fill="#5ce1e6" d="M 170.457031 67.78125 L 161.679688 77.015625 C 161.492188 77.210938 161.238281 77.316406 160.96875 77.308594 L 155.308594 77.136719 C 154.9375 77.125 154.605469 76.894531 154.464844 76.550781 C 154.324219 76.203125 154.398438 75.804688 154.65625 75.535156 L 162.84375 66.917969 L 155.1875 57.824219 C 154.949219 57.539062 154.894531 57.136719 155.058594 56.796875 C 155.222656 56.457031 155.566406 56.25 155.9375 56.261719 L 161.597656 56.429688 C 161.867188 56.4375 162.113281 56.5625 162.289062 56.765625 L 170.492188 66.511719 C 170.804688 66.878906 170.789062 67.429688 170.457031 67.78125 Z M 170.457031 67.78125 " fill-opacity="1" fill-rule="nonzero"/></g></g></g><g clip-path="url(#95a915cc2d)"><g clip-path="url(#4b934b63a2)"><g clip-path="url(#34d6a2bbd3)"><path fill="#38b6ff" d="M 294.371094 68.148438 L 285.59375 77.382812 C 285.40625 77.578125 285.152344 77.6875 284.882812 77.675781 L 279.222656 77.507812 C 278.851562 77.496094 278.523438 77.265625 278.378906 76.917969 C 278.238281 76.570312 278.3125 76.171875 278.570312 75.902344 L 286.757812 67.285156 L 279.105469 58.191406 C 278.863281 57.90625 278.8125 57.503906 278.972656 57.167969 C 279.136719 56.828125 279.480469 56.617188 279.851562 56.628906 L 285.511719 56.800781 C 285.78125 56.808594 286.03125 56.929688 286.207031 57.132812 L 294.410156 66.878906 C 294.71875 67.25 294.703125 67.800781 294.371094 68.148438 Z M 294.371094 68.148438 " fill-opacity="1" fill-rule="nonzero"/></g></g></g><g clip-path="url(#e3ab06388d)"><g clip-path="url(#da666a496c)"><g clip-path="url(#24181fc165)"><path fill="#38b6ff" d="M 282.109375 67.78125 L 273.332031 77.015625 C 273.144531 77.210938 272.890625 77.316406 272.621094 77.308594 L 266.960938 77.136719 C 266.589844 77.125 266.257812 76.894531 266.117188 76.550781 C 265.976562 76.203125 266.050781 75.804688 266.308594 75.535156 L 274.496094 66.917969 L 266.839844 57.824219 C 266.601562 57.539062 266.546875 57.136719 266.710938 56.796875 C 266.875 56.457031 267.21875 56.25 267.589844 56.261719 L 273.25 56.429688 C 273.519531 56.4375 273.765625 56.5625 273.941406 56.765625 L 282.144531 66.511719 C 282.457031 66.878906 282.441406 67.429688 282.109375 67.78125 Z M 282.109375 67.78125 " fill-opacity="1" fill-rule="nonzero"/></g></g></g><g clip-path="url(#e0f8803c99)"><g clip-path="url(#03fdbcca29)"><g clip-path="url(#90c026804d)"><path fill="#38b6ff" d="M 257.246094 68.148438 L 248.46875 77.382812 C 248.28125 77.578125 248.027344 77.6875 247.757812 77.675781 L 242.097656 77.507812 C 241.726562 77.496094 241.398438 77.265625 241.253906 76.917969 C 241.113281 76.570312 241.1875 76.171875 241.445312 75.902344 L 249.632812 67.285156 L 241.980469 58.191406 C 241.738281 57.90625 241.6875 57.503906 241.847656 57.167969 C 242.011719 56.828125 242.355469 56.617188 242.726562 56.628906 L 248.386719 56.800781 C 248.65625 56.808594 248.90625 56.929688 249.082031 57.132812 L 257.285156 66.878906 C 257.59375 67.25 257.578125 67.800781 257.246094 68.148438 Z M 257.246094 68.148438 " fill-opacity="1" fill-rule="nonzero"/></g></g></g><g clip-path="url(#9289ac71f3)"><g clip-path="url(#0e7205056b)"><g clip-path="url(#bbfb3d9be6)"><path fill="#38b6ff" d="M 244.984375 67.78125 L 236.207031 77.015625 C 236.019531 77.210938 235.765625 77.316406 235.496094 77.308594 L 229.835938 77.136719 C 229.464844 77.125 229.132812 76.894531 228.992188 76.550781 C 228.851562 76.203125 228.925781 75.804688 229.183594 75.535156 L 237.371094 66.917969 L 229.714844 57.824219 C 229.476562 57.539062 229.421875 57.136719 229.585938 56.796875 C 229.75 56.457031 230.09375 56.25 230.464844 56.261719 L 236.125 56.429688 C 236.394531 56.4375 236.640625 56.5625 236.816406 56.765625 L 245.019531 66.511719 C 245.332031 66.878906 245.316406 67.429688 244.984375 67.78125 Z M 244.984375 67.78125 " fill-opacity="1" fill-rule="nonzero"/></g></g></g><g clip-path="url(#c860fd7a3d)"><g clip-path="url(#432ca1e014)"><g clip-path="url(#ce08f516a8)"><path fill="#38b6ff" d="M 220.730469 68.148438 L 211.953125 77.382812 C 211.765625 77.578125 211.511719 77.6875 211.242188 77.675781 L 205.582031 77.507812 C 205.210938 77.496094 204.878906 77.265625 204.738281 76.917969 C 204.597656 76.570312 204.671875 76.171875 204.929688 75.902344 L 213.117188 67.285156 L 205.460938 58.191406 C 205.222656 57.90625 205.167969 57.503906 205.332031 57.167969 C 205.496094 56.828125 205.839844 56.617188 206.210938 56.628906 L 211.871094 56.800781 C 212.140625 56.808594 212.386719 56.929688 212.5625 57.132812 L 220.765625 66.878906 C 221.078125 67.25 221.0625 67.800781 220.730469 68.148438 Z M 220.730469 68.148438 " fill-opacity="1" fill-rule="nonzero"/></g></g></g><g clip-path="url(#57c69096e3)"><g clip-path="url(#fd75e9900e)"><g clip-path="url(#3ad15b987e)"><path fill="#38b6ff" d="M 208.464844 67.78125 L 199.691406 77.015625 C 199.503906 77.210938 199.246094 77.316406 198.980469 77.308594 L 193.320312 77.136719 C 192.949219 77.125 192.617188 76.894531 192.476562 76.550781 C 192.335938 76.203125 192.410156 75.804688 192.664062 75.535156 L 200.855469 66.917969 L 193.199219 57.824219 C 192.957031 57.539062 192.90625 57.136719 193.070312 56.796875 C 193.234375 56.457031 193.578125 56.25 193.949219 56.261719 L 199.609375 56.429688 C 199.875 56.4375 200.125 56.5625 200.300781 56.765625 L 208.503906 66.511719 C 208.816406 66.878906 208.800781 67.429688 208.464844 67.78125 Z M 208.464844 67.78125 " fill-opacity="1" fill-rule="nonzero"/></g></g></g></svg>