<svg xmlns="http://www.w3.org/2000/svg" xmlns:xlink="http://www.w3.org/1999/xlink" width="450" zoomAndPan="magnify" viewBox="0 0 337.5 374.999991" height="500" preserveAspectRatio="xMidYMid meet" version="1.0"><defs><clipPath id="9dbe902154"><path d="M 0 52.777344 L 303.75 52.777344 L 303.75 323 L 0 323 Z M 0 52.777344 " clip-rule="nonzero"/></clipPath><clipPath id="8a44d985dd"><path d="M 7.917969 142.824219 C 3.136719 156.667969 0 172.40625 0 187.851562 C 0 203.296875 2.6875 218.15625 7.46875 231.855469 C 7.621094 232.144531 7.621094 232.4375 7.769531 232.730469 C 26.890625 284.164062 77.390625 322.046875 135.65625 322.777344 L 303.75 322.777344 L 303.75 52.777344 L 135.78125 52.777344 C 77.09375 53.503906 26.59375 90.808594 7.917969 142.824219 " clip-rule="nonzero"/></clipPath><clipPath id="fc996e7d9a"><path d="M 0 52.777344 L 303.75 52.777344 L 303.75 322.777344 L 0 322.777344 Z M 0 52.777344 " clip-rule="nonzero"/></clipPath><clipPath id="f7b0e343c1"><path d="M 7.917969 142.824219 C 3.136719 156.667969 0 172.40625 0 187.851562 C 0 203.296875 2.6875 218.15625 7.46875 231.855469 C 7.621094 232.144531 7.621094 232.4375 7.769531 232.730469 C 26.890625 284.164062 77.390625 322.046875 135.65625 322.777344 L 303.75 322.777344 L 303.75 52.777344 L 135.78125 52.777344 C 77.09375 53.503906 26.59375 90.808594 7.917969 142.824219 " clip-rule="nonzero"/></clipPath><clipPath id="b85c747279"><path d="M 32 77 L 249 77 L 249 294 L 32 294 Z M 32 77 " clip-rule="nonzero"/></clipPath><clipPath id="5a5bd6e88f"><path d="M 143.433594 32.671875 L 293.082031 188.832031 L 136.925781 338.484375 L -12.726562 182.324219 Z M 143.433594 32.671875 " clip-rule="nonzero"/></clipPath><clipPath id="3e95c14420"><path d="M 218.15625 110.648438 C 176.886719 67.585938 108.523438 66.128906 65.457031 107.398438 C 22.394531 148.667969 20.9375 217.035156 62.207031 260.097656 C 103.476562 303.164062 171.84375 304.617188 214.910156 263.347656 C 257.972656 222.078125 259.425781 153.710938 218.15625 110.648438 " clip-rule="nonzero"/></clipPath><clipPath id="3a9dc80ad3"><path d="M 32 77 L 249 77 L 249 294 L 32 294 Z M 32 77 " clip-rule="nonzero"/></clipPath><clipPath id="0308af3227"><path d="M 143.433594 32.671875 L 292.882812 188.625 L 136.933594 338.074219 L -12.515625 182.125 Z M 143.433594 32.671875 " clip-rule="nonzero"/></clipPath><clipPath id="c09b2ace1a"><path d="M 143.433594 32.671875 L 294.996094 190.828125 L 136.839844 342.394531 L -14.722656 184.238281 Z M 143.433594 32.671875 " clip-rule="nonzero"/></clipPath><clipPath id="b86f163cd0"><path d="M 218.15625 110.648438 C 176.886719 67.585938 108.523438 66.128906 65.457031 107.398438 C 22.394531 148.667969 20.9375 217.035156 62.207031 260.097656 C 103.476562 303.164062 171.84375 304.617188 214.910156 263.347656 C 257.972656 222.078125 259.425781 153.710938 218.15625 110.648438 " clip-rule="nonzero"/></clipPath><clipPath id="194fcc12ff"><path d="M 157 130 L 193 130 L 193 166 L 157 166 Z M 157 130 " clip-rule="nonzero"/></clipPath><clipPath id="1b9ce04037"><path d="M 180.003906 130.519531 L 192.894531 143.3125 L 170.410156 165.972656 L 157.515625 153.179688 Z M 180.003906 130.519531 " clip-rule="nonzero"/></clipPath><clipPath id="93199cb189"><path d="M 180.003906 130.519531 L 192.613281 143.03125 L 170.265625 165.554688 L 157.65625 153.039062 Z M 180.003906 130.519531 " clip-rule="nonzero"/></clipPath><clipPath id="866fd69481"><path d="M 140 212 L 166 212 L 166 248 L 140 248 Z M 140 212 " clip-rule="nonzero"/></clipPath><clipPath id="333c65658b"><path d="M 140.589844 216.558594 L 158.167969 211.984375 L 166.210938 242.878906 L 148.632812 247.453125 Z M 140.589844 216.558594 " clip-rule="nonzero"/></clipPath><clipPath id="9cb2ce8827"><path d="M 140.589844 216.558594 L 157.78125 212.082031 L 165.777344 242.789062 L 148.582031 247.265625 Z M 140.589844 216.558594 " clip-rule="nonzero"/></clipPath><clipPath id="d107ba53cc"><path d="M 93 148 L 176 148 L 176 230 L 93 230 Z M 93 148 " clip-rule="nonzero"/></clipPath><clipPath id="6523b6798c"><path d="M 82.421875 210.652344 L 104.53125 128.375 L 175.984375 147.574219 L 153.875 229.851562 Z M 82.421875 210.652344 " clip-rule="nonzero"/></clipPath><clipPath id="5d4eda7437"><path d="M 93.390625 169.828125 L 175.125 148.019531 L 153.183594 229.667969 L 93.390625 169.828125 " clip-rule="nonzero"/></clipPath><clipPath id="7f8a8e4a9d"><path d="M 83 159 L 119 159 L 119 185 L 83 185 Z M 83 159 " clip-rule="nonzero"/></clipPath><clipPath id="99dd6681f2"><path d="M 83.460938 176.363281 L 88.175781 158.820312 L 119.007812 167.105469 L 114.292969 184.648438 Z M 83.460938 176.363281 " clip-rule="nonzero"/></clipPath><clipPath id="99881b094d"><path d="M 83.460938 176.363281 L 88.074219 159.207031 L 118.714844 167.4375 L 114.101562 184.597656 Z M 83.460938 176.363281 " clip-rule="nonzero"/></clipPath><clipPath id="37bf64d9f1"><path d="M 38 134 L 94 134 L 94 191 L 38 191 Z M 38 134 " clip-rule="nonzero"/></clipPath><clipPath id="fedab4a3d4"><path d="M 84.769531 196.964844 L 31.398438 181.300781 L 47.066406 127.929688 L 100.433594 143.597656 Z M 84.769531 196.964844 " clip-rule="nonzero"/></clipPath><clipPath id="64995e08bd"><path d="M 58.082031 189.132812 C 72.820312 193.460938 88.273438 185.019531 92.601562 170.28125 C 96.925781 155.542969 88.488281 140.089844 73.75 135.761719 C 59.011719 131.4375 43.558594 139.875 39.230469 154.613281 C 34.90625 169.351562 43.34375 184.804688 58.082031 189.132812 " clip-rule="nonzero"/></clipPath><clipPath id="870dbb4cd1"><path d="M 38 134 L 94 134 L 94 191 L 38 191 Z M 38 134 " clip-rule="nonzero"/></clipPath><clipPath id="984956218e"><path d="M 84.769531 196.964844 L 31.515625 181.332031 L 47.148438 128.082031 L 100.402344 143.714844 Z M 84.769531 196.964844 " clip-rule="nonzero"/></clipPath><clipPath id="2d2129e95b"><path d="M 84.769531 196.964844 L 31.515625 181.332031 L 47.148438 128.082031 L 100.402344 143.714844 Z M 84.769531 196.964844 " clip-rule="nonzero"/></clipPath><clipPath id="a035de1502"><path d="M 58.140625 189.148438 C 72.847656 193.464844 88.265625 185.046875 92.585938 170.339844 C 96.902344 155.632812 88.480469 140.214844 73.773438 135.898438 C 59.070312 131.582031 43.648438 140 39.332031 154.707031 C 35.015625 169.414062 43.4375 184.832031 58.140625 189.148438 " clip-rule="nonzero"/></clipPath><clipPath id="35729c7e6c"><path d="M 133 230 L 189 230 L 189 287 L 133 287 Z M 133 230 " clip-rule="nonzero"/></clipPath><clipPath id="a65a3864e4"><path d="M 141.207031 292.679688 L 126.871094 238.9375 L 180.613281 224.601562 L 194.953125 278.34375 Z M 141.207031 292.679688 " clip-rule="nonzero"/></clipPath><clipPath id="aef8ff0f4a"><path d="M 134.039062 265.808594 C 138 280.648438 153.238281 289.46875 168.078125 285.511719 C 182.921875 281.550781 191.742188 266.3125 187.78125 251.472656 C 183.824219 236.628906 168.582031 227.808594 153.742188 231.769531 C 138.902344 235.726562 130.082031 250.96875 134.039062 265.808594 " clip-rule="nonzero"/></clipPath><clipPath id="a22e0c56c1"><path d="M 133 230 L 189 230 L 189 287 L 133 287 Z M 133 230 " clip-rule="nonzero"/></clipPath><clipPath id="ac4fca554d"><path d="M 141.207031 292.679688 L 126.902344 239.054688 L 180.527344 224.75 L 194.832031 278.375 Z M 141.207031 292.679688 " clip-rule="nonzero"/></clipPath><clipPath id="d49572c96f"><path d="M 141.207031 292.679688 L 126.902344 239.054688 L 180.527344 224.75 L 194.832031 278.375 Z M 141.207031 292.679688 " clip-rule="nonzero"/></clipPath><clipPath id="808b16a03c"><path d="M 134.054688 265.867188 C 138.007812 280.675781 153.214844 289.476562 168.019531 285.527344 C 182.828125 281.578125 191.628906 266.371094 187.679688 251.5625 C 183.730469 236.753906 168.523438 227.953125 153.714844 231.902344 C 138.90625 235.851562 130.105469 251.058594 134.054688 265.867188 " clip-rule="nonzero"/></clipPath><clipPath id="922b4cbfb8"><path d="M 165 102 L 222 102 L 222 158 L 165 158 Z M 165 102 " clip-rule="nonzero"/></clipPath><clipPath id="37ac1baf21"><path d="M 212.382812 164.410156 L 159.011719 148.742188 L 174.679688 95.371094 L 228.050781 111.039062 Z M 212.382812 164.410156 " clip-rule="nonzero"/></clipPath><clipPath id="c0a04a9abb"><path d="M 185.699219 156.578125 C 200.4375 160.902344 215.890625 152.460938 220.21875 137.726562 C 224.542969 122.988281 216.101562 107.53125 201.367188 103.207031 C 186.628906 98.878906 171.171875 107.320312 166.847656 122.058594 C 162.519531 136.796875 170.960938 152.25 185.699219 156.578125 " clip-rule="nonzero"/></clipPath><clipPath id="83ebed927a"><path d="M 165 102 L 222 102 L 222 158 L 165 158 Z M 165 102 " clip-rule="nonzero"/></clipPath><clipPath id="9b34858cc6"><path d="M 212.382812 164.410156 L 159.128906 148.777344 L 174.761719 95.523438 L 228.015625 111.15625 Z M 212.382812 164.410156 " clip-rule="nonzero"/></clipPath><clipPath id="533e66c52d"><path d="M 212.382812 164.410156 L 159.128906 148.777344 L 174.761719 95.523438 L 228.015625 111.15625 Z M 212.382812 164.410156 " clip-rule="nonzero"/></clipPath><clipPath id="729b0912eb"><path d="M 185.757812 156.59375 C 200.460938 160.910156 215.882812 152.488281 220.199219 137.785156 C 224.515625 123.078125 216.09375 107.65625 201.390625 103.339844 C 186.683594 99.023438 171.265625 107.445312 166.945312 122.152344 C 162.628906 136.855469 171.050781 152.277344 185.757812 156.59375 " clip-rule="nonzero"/></clipPath><clipPath id="3b5e64a548"><path d="M 58 155 L 73 155 L 73 170 L 58 170 Z M 58 155 " clip-rule="nonzero"/></clipPath><clipPath id="72a77ac23f"><path d="M 57.367188 167.382812 L 60.988281 153.898438 L 74.472656 157.523438 L 70.847656 171.003906 Z M 57.367188 167.382812 " clip-rule="nonzero"/></clipPath><clipPath id="d6468b29a7"><path d="M 59.179688 160.640625 C 58.179688 164.363281 60.386719 168.191406 64.109375 169.191406 C 67.832031 170.191406 71.660156 167.984375 72.660156 164.261719 C 73.660156 160.539062 71.453125 156.710938 67.730469 155.710938 C 64.007812 154.710938 60.179688 156.917969 59.179688 160.640625 " clip-rule="nonzero"/></clipPath><clipPath id="555bf64972"><path d="M 153 251 L 168 251 L 168 266 L 153 266 Z M 153 251 " clip-rule="nonzero"/></clipPath><clipPath id="38fed967b1"><path d="M 152.367188 253.699219 L 165.855469 250.101562 L 169.453125 263.589844 L 155.964844 267.1875 Z M 152.367188 253.699219 " clip-rule="nonzero"/></clipPath><clipPath id="7a4807e295"><path d="M 159.113281 251.902344 C 155.386719 252.894531 153.171875 256.71875 154.167969 260.445312 C 155.160156 264.167969 158.984375 266.382812 162.710938 265.390625 C 166.433594 264.394531 168.648438 260.570312 167.65625 256.847656 C 166.660156 253.121094 162.835938 250.90625 159.113281 251.902344 " clip-rule="nonzero"/></clipPath><clipPath id="118d9b0184"><path d="M 185 122 L 200 122 L 200 137 L 185 137 Z M 185 122 " clip-rule="nonzero"/></clipPath><clipPath id="4777ebb384"><path d="M 184.234375 134.105469 L 187.855469 120.625 L 201.339844 124.246094 L 197.714844 137.726562 Z M 184.234375 134.105469 " clip-rule="nonzero"/></clipPath><clipPath id="a44c19a8d2"><path d="M 186.046875 127.363281 C 185.046875 131.085938 187.253906 134.914062 190.976562 135.914062 C 194.699219 136.917969 198.527344 134.710938 199.527344 130.988281 C 200.527344 127.265625 198.320312 123.433594 194.597656 122.433594 C 190.875 121.433594 187.046875 123.640625 186.046875 127.363281 " clip-rule="nonzero"/></clipPath><clipPath id="a7f421e920"><path d="M 104 109 L 147 109 L 147 135 L 104 135 Z M 104 109 " clip-rule="nonzero"/></clipPath><clipPath id="1393232464"><path d="M 149.09375 118.652344 L 104.699219 134.828125 L 100.078125 122.144531 L 144.472656 105.96875 Z M 149.09375 118.652344 " clip-rule="nonzero"/></clipPath><clipPath id="2745c9ebab"><path d="M 104.523438 134.890625 L 148.917969 118.71875 L 144.296875 106.03125 L 99.902344 122.207031 Z M 104.523438 134.890625 " clip-rule="nonzero"/></clipPath><clipPath id="8f8b6ea9f6"><path d="M 104.523438 134.890625 L 148.917969 118.71875 L 144.296875 106.03125 L 99.902344 122.207031 Z M 104.523438 134.890625 " clip-rule="nonzero"/></clipPath><clipPath id="ea5a55e75f"><path d="M 109 126 L 110 126 L 110 127 L 109 127 Z M 109 126 " clip-rule="nonzero"/></clipPath><clipPath id="6c48c62676"><path d="M 149.09375 118.652344 L 104.699219 134.828125 L 100.078125 122.144531 L 144.472656 105.96875 Z M 149.09375 118.652344 " clip-rule="nonzero"/></clipPath><clipPath id="551e399f4d"><path d="M 104.523438 134.890625 L 148.917969 118.71875 L 144.296875 106.03125 L 99.902344 122.207031 Z M 104.523438 134.890625 " clip-rule="nonzero"/></clipPath><clipPath id="bd4263dacd"><path d="M 104.523438 134.890625 L 148.917969 118.71875 L 144.296875 106.03125 L 99.902344 122.207031 Z M 104.523438 134.890625 " clip-rule="nonzero"/></clipPath><clipPath id="96e1e3f28d"><path d="M 196 175 L 213 175 L 213 222 L 196 222 Z M 196 175 " clip-rule="nonzero"/></clipPath><clipPath id="cdfb0e9a4a"><path d="M 192.917969 220.796875 L 205.246094 175.183594 L 218.28125 178.703125 L 205.953125 224.316406 Z M 192.917969 220.796875 " clip-rule="nonzero"/></clipPath><clipPath id="6b2ca3ffc0"><path d="M 205.296875 175 L 192.96875 220.613281 L 206 224.136719 L 218.328125 178.523438 Z M 205.296875 175 " clip-rule="nonzero"/></clipPath><clipPath id="ae14125a0a"><path d="M 205.296875 175 L 192.96875 220.613281 L 206 224.136719 L 218.328125 178.523438 Z M 205.296875 175 " clip-rule="nonzero"/></clipPath><clipPath id="4c916dd567"><path d="M 209 183 L 210 183 L 210 184 L 209 184 Z M 209 183 " clip-rule="nonzero"/></clipPath><clipPath id="75bf50bdc1"><path d="M 192.917969 220.796875 L 205.246094 175.183594 L 218.28125 178.703125 L 205.953125 224.316406 Z M 192.917969 220.796875 " clip-rule="nonzero"/></clipPath><clipPath id="521add8e3a"><path d="M 205.296875 175 L 192.96875 220.613281 L 206 224.136719 L 218.328125 178.523438 Z M 205.296875 175 " clip-rule="nonzero"/></clipPath><clipPath id="07ce709e03"><path d="M 205.296875 175 L 192.96875 220.613281 L 206 224.136719 L 218.328125 178.523438 Z M 205.296875 175 " clip-rule="nonzero"/></clipPath><clipPath id="6a153d771c"><path d="M 79 212 L 115 212 L 115 247 L 79 247 Z M 79 212 " clip-rule="nonzero"/></clipPath><clipPath id="94f9fa2dfe"><path d="M 84.335938 209.304688 L 114.789062 245.433594 L 104.464844 254.132812 L 74.011719 218.007812 Z M 84.335938 209.304688 " clip-rule="nonzero"/></clipPath><clipPath id="07883dfa4f"><path d="M 114.910156 245.578125 L 84.457031 209.449219 L 74.132812 218.148438 L 104.585938 254.277344 Z M 114.910156 245.578125 " clip-rule="nonzero"/></clipPath><clipPath id="40ef94d9f3"><path d="M 114.910156 245.578125 L 84.457031 209.449219 L 74.132812 218.148438 L 104.585938 254.277344 Z M 114.910156 245.578125 " clip-rule="nonzero"/></clipPath><clipPath id="f331a901ea"><path d="M 105 243 L 106 243 L 106 245 L 105 245 Z M 105 243 " clip-rule="nonzero"/></clipPath><clipPath id="9b3659dea4"><path d="M 84.335938 209.304688 L 114.789062 245.433594 L 104.464844 254.132812 L 74.011719 218.007812 Z M 84.335938 209.304688 " clip-rule="nonzero"/></clipPath><clipPath id="244db924cf"><path d="M 114.910156 245.578125 L 84.457031 209.449219 L 74.132812 218.148438 L 104.585938 254.277344 Z M 114.910156 245.578125 " clip-rule="nonzero"/></clipPath><clipPath id="2d763775ac"><path d="M 114.910156 245.578125 L 84.457031 209.449219 L 74.132812 218.148438 L 104.585938 254.277344 Z M 114.910156 245.578125 " clip-rule="nonzero"/></clipPath><clipPath id="974b36023d"><path d="M 266.625 297.128906 L 283 297.128906 L 283 318.128906 L 266.625 318.128906 Z M 266.625 297.128906 " clip-rule="nonzero"/></clipPath><clipPath id="69e87325c4"><path d="M 278 297.128906 L 294.785156 297.128906 L 294.785156 318.128906 L 278 318.128906 Z M 278 297.128906 " clip-rule="nonzero"/></clipPath><clipPath id="0ae76bfb26"><path d="M 229.5 297.128906 L 246 297.128906 L 246 318.128906 L 229.5 318.128906 Z M 229.5 297.128906 " clip-rule="nonzero"/></clipPath><clipPath id="f5fc5b52ee"><path d="M 241 297.128906 L 257.660156 297.128906 L 257.660156 318.128906 L 241 318.128906 Z M 241 297.128906 " clip-rule="nonzero"/></clipPath><clipPath id="dc108427e9"><path d="M 192.375 297.128906 L 209 297.128906 L 209 318.128906 L 192.375 318.128906 Z M 192.375 297.128906 " clip-rule="nonzero"/></clipPath><clipPath id="df833ce80d"><path d="M 204 297.128906 L 220.535156 297.128906 L 220.535156 318.128906 L 204 318.128906 Z M 204 297.128906 " clip-rule="nonzero"/></clipPath><clipPath id="e3a44e049a"><path d="M 155.25 297.128906 L 172 297.128906 L 172 318.128906 L 155.25 318.128906 Z M 155.25 297.128906 " clip-rule="nonzero"/></clipPath><clipPath id="729b98a2a2"><path d="M 167 297.128906 L 183.410156 297.128906 L 183.410156 318.128906 L 167 318.128906 Z M 167 297.128906 " clip-rule="nonzero"/></clipPath><clipPath id="b58e969bb5"><path d="M 117 297 L 135 297 L 135 319 L 117 319 Z M 117 297 " clip-rule="nonzero"/></clipPath><clipPath id="5fc4c1f250"><path d="M 117.945312 297.378906 L 146.441406 296.875 L 146.8125 317.871094 L 118.316406 318.375 Z M 117.945312 297.378906 " clip-rule="nonzero"/></clipPath><clipPath id="69fda2873a"><path d="M 146.101562 296.878906 L 117.605469 297.382812 L 117.976562 318.378906 L 146.472656 317.875 Z M 146.101562 296.878906 " clip-rule="nonzero"/></clipPath><clipPath id="e39b0d6a15"><path d="M 130 296 L 147 296 L 147 318 L 130 318 Z M 130 296 " clip-rule="nonzero"/></clipPath><clipPath id="1832c4c2b7"><path d="M 117.945312 297.378906 L 146.441406 296.875 L 146.8125 317.871094 L 118.316406 318.375 Z M 117.945312 297.378906 " clip-rule="nonzero"/></clipPath><clipPath id="7f1d4d6e01"><path d="M 146.101562 296.878906 L 117.605469 297.382812 L 117.976562 318.378906 L 146.472656 317.875 Z M 146.101562 296.878906 " clip-rule="nonzero"/></clipPath><clipPath id="7f6b92847f"><path d="M 75 282 L 95 282 L 95 304 L 75 304 Z M 75 282 " clip-rule="nonzero"/></clipPath><clipPath id="dacb5d1783"><path d="M 81.105469 277.734375 L 105.09375 293.121094 L 93.757812 310.796875 L 69.765625 295.410156 Z M 81.105469 277.734375 " clip-rule="nonzero"/></clipPath><clipPath id="539b3b1955"><path d="M 104.808594 292.9375 L 80.816406 277.550781 L 69.480469 295.226562 L 93.46875 310.613281 Z M 104.808594 292.9375 " clip-rule="nonzero"/></clipPath><clipPath id="866df960e3"><path d="M 85 289 L 105 289 L 105 311 L 85 311 Z M 85 289 " clip-rule="nonzero"/></clipPath><clipPath id="883b5c8812"><path d="M 81.105469 277.734375 L 105.09375 293.121094 L 93.757812 310.796875 L 69.765625 295.410156 Z M 81.105469 277.734375 " clip-rule="nonzero"/></clipPath><clipPath id="13f0565b75"><path d="M 104.808594 292.9375 L 80.816406 277.550781 L 69.480469 295.226562 L 93.46875 310.613281 Z M 104.808594 292.9375 " clip-rule="nonzero"/></clipPath><clipPath id="52b90a7e8e"><path d="M 39 261 L 60 261 L 60 282 L 39 282 Z M 39 261 " clip-rule="nonzero"/></clipPath><clipPath id="a1f966bc37"><path d="M 48.058594 255.742188 L 68.585938 275.511719 L 54.019531 290.636719 L 33.492188 270.867188 Z M 48.058594 255.742188 " clip-rule="nonzero"/></clipPath><clipPath id="544eaf8fcf"><path d="M 68.339844 275.277344 L 47.8125 255.503906 L 33.246094 270.632812 L 53.773438 290.402344 Z M 68.339844 275.277344 " clip-rule="nonzero"/></clipPath><clipPath id="3e62b8a03f"><path d="M 48 270 L 68 270 L 68 290 L 48 290 Z M 48 270 " clip-rule="nonzero"/></clipPath><clipPath id="309795a534"><path d="M 48.058594 255.742188 L 68.585938 275.511719 L 54.019531 290.636719 L 33.492188 270.867188 Z M 48.058594 255.742188 " clip-rule="nonzero"/></clipPath><clipPath id="8eccceddaf"><path d="M 68.339844 275.277344 L 47.8125 255.503906 L 33.246094 270.632812 L 53.773438 290.402344 Z M 68.339844 275.277344 " clip-rule="nonzero"/></clipPath><clipPath id="7303b7aa0c"><path d="M 17 226 L 39 226 L 39 245 L 17 245 Z M 17 226 " clip-rule="nonzero"/></clipPath><clipPath id="f5ba5d38db"><path d="M 31.21875 221.023438 L 45.539062 245.664062 L 27.386719 256.21875 L 13.0625 231.578125 Z M 31.21875 221.023438 " clip-rule="nonzero"/></clipPath><clipPath id="871ebfcb40"><path d="M 45.371094 245.371094 L 31.046875 220.730469 L 12.890625 231.285156 L 27.214844 255.925781 Z M 45.371094 245.371094 " clip-rule="nonzero"/></clipPath><clipPath id="c11ca8243e"><path d="M 23 236 L 45 236 L 45 256 L 23 256 Z M 23 236 " clip-rule="nonzero"/></clipPath><clipPath id="1e1acc3ea4"><path d="M 31.21875 221.023438 L 45.539062 245.664062 L 27.386719 256.21875 L 13.0625 231.578125 Z M 31.21875 221.023438 " clip-rule="nonzero"/></clipPath><clipPath id="1d78b2f98c"><path d="M 45.371094 245.371094 L 31.046875 220.730469 L 12.890625 231.285156 L 27.214844 255.925781 Z M 45.371094 245.371094 " clip-rule="nonzero"/></clipPath><clipPath id="495df39eae"><path d="M 8.878906 171.9375 L 29.878906 171.9375 L 29.878906 188 L 8.878906 188 Z M 8.878906 171.9375 " clip-rule="nonzero"/></clipPath><clipPath id="903b486210"><path d="M 8.878906 184 L 29.878906 184 L 29.878906 200.097656 L 8.878906 200.097656 Z M 8.878906 184 " clip-rule="nonzero"/></clipPath><clipPath id="bea35e47f6"><path d="M 20 121 L 42 121 L 42 141 L 20 141 Z M 20 121 " clip-rule="nonzero"/></clipPath><clipPath id="90ffb36631"><path d="M 46.378906 127.648438 L 30.144531 151.074219 L 12.882812 139.109375 L 29.117188 115.6875 Z M 46.378906 127.648438 " clip-rule="nonzero"/></clipPath><clipPath id="7be9c61c99"><path d="M 30.339844 150.792969 L 46.574219 127.367188 L 29.3125 115.40625 L 13.078125 138.832031 Z M 30.339844 150.792969 " clip-rule="nonzero"/></clipPath><clipPath id="1cf0f57665"><path d="M 13 131 L 35 131 L 35 151 L 13 151 Z M 13 131 " clip-rule="nonzero"/></clipPath><clipPath id="d1e0095b27"><path d="M 46.378906 127.648438 L 30.144531 151.074219 L 12.882812 139.109375 L 29.117188 115.6875 Z M 46.378906 127.648438 " clip-rule="nonzero"/></clipPath><clipPath id="8930bd3211"><path d="M 30.339844 150.792969 L 46.574219 127.367188 L 29.3125 115.40625 L 13.078125 138.832031 Z M 30.339844 150.792969 " clip-rule="nonzero"/></clipPath><clipPath id="6955c3328f"><path d="M 47 87 L 66 87 L 66 108 L 47 108 Z M 47 87 " clip-rule="nonzero"/></clipPath><clipPath id="15315f2fba"><path d="M 72.519531 97.335938 L 51.425781 116.5 L 37.304688 100.957031 L 58.398438 81.792969 Z M 72.519531 97.335938 " clip-rule="nonzero"/></clipPath><clipPath id="41eee3803d"><path d="M 51.675781 116.269531 L 72.769531 97.105469 L 58.648438 81.5625 L 37.554688 100.726562 Z M 51.675781 116.269531 " clip-rule="nonzero"/></clipPath><clipPath id="01eab5cce6"><path d="M 37 96 L 57 96 L 57 116 L 37 116 Z M 37 96 " clip-rule="nonzero"/></clipPath><clipPath id="a1b2403f29"><path d="M 72.519531 97.335938 L 51.425781 116.5 L 37.304688 100.957031 L 58.398438 81.792969 Z M 72.519531 97.335938 " clip-rule="nonzero"/></clipPath><clipPath id="83e5156a66"><path d="M 51.675781 116.269531 L 72.769531 97.105469 L 58.648438 81.5625 L 37.554688 100.726562 Z M 51.675781 116.269531 " clip-rule="nonzero"/></clipPath><clipPath id="b771fdf3c0"><path d="M 81 66 L 101 66 L 101 88 L 81 88 Z M 81 66 " clip-rule="nonzero"/></clipPath><clipPath id="930807b1b5"><path d="M 104.921875 81.058594 L 79.34375 93.632812 L 70.078125 74.785156 L 95.65625 62.214844 Z M 104.921875 81.058594 " clip-rule="nonzero"/></clipPath><clipPath id="4ed692fece"><path d="M 79.648438 93.480469 L 105.226562 80.910156 L 95.960938 62.0625 L 70.382812 74.636719 Z M 79.648438 93.480469 " clip-rule="nonzero"/></clipPath><clipPath id="71f5bb74e0"><path d="M 70 71 L 90 71 L 90 94 L 70 94 Z M 70 71 " clip-rule="nonzero"/></clipPath><clipPath id="41f6bc1d9e"><path d="M 104.921875 81.058594 L 79.34375 93.632812 L 70.078125 74.785156 L 95.65625 62.214844 Z M 104.921875 81.058594 " clip-rule="nonzero"/></clipPath><clipPath id="22ad7d5856"><path d="M 79.648438 93.480469 L 105.226562 80.910156 L 95.960938 62.0625 L 70.382812 74.636719 Z M 79.648438 93.480469 " clip-rule="nonzero"/></clipPath><clipPath id="92c9672767"><path d="M 130 57.015625 L 146.285156 57.015625 L 146.285156 78 L 130 78 Z M 130 57.015625 " clip-rule="nonzero"/></clipPath><clipPath id="6bfca7f130"><path d="M 118.125 57.015625 L 135 57.015625 L 135 78 L 118.125 78 Z M 118.125 57.015625 " clip-rule="nonzero"/></clipPath><clipPath id="7763abef2e"><path d="M 166 56 L 183 56 L 183 78 L 166 78 Z M 166 56 " clip-rule="nonzero"/></clipPath><clipPath id="e671dd2091"><path d="M 182.511719 78.011719 L 154.023438 77.15625 L 154.65625 56.164062 L 183.144531 57.023438 Z M 182.511719 78.011719 " clip-rule="nonzero"/></clipPath><clipPath id="334f075a85"><path d="M 154.363281 77.164062 L 182.851562 78.023438 L 183.484375 57.035156 L 154.996094 56.175781 Z M 154.363281 77.164062 " clip-rule="nonzero"/></clipPath><clipPath id="c64faa36c1"><path d="M 154 56 L 171 56 L 171 78 L 154 78 Z M 154 56 " clip-rule="nonzero"/></clipPath><clipPath id="0cc261d33b"><path d="M 182.511719 78.011719 L 154.023438 77.15625 L 154.65625 56.164062 L 183.144531 57.023438 Z M 182.511719 78.011719 " clip-rule="nonzero"/></clipPath><clipPath id="5b9037d0d3"><path d="M 154.363281 77.164062 L 182.851562 78.023438 L 183.484375 57.035156 L 154.996094 56.175781 Z M 154.363281 77.164062 " clip-rule="nonzero"/></clipPath><clipPath id="debab802d3"><path d="M 278 56 L 295 56 L 295 78 L 278 78 Z M 278 56 " clip-rule="nonzero"/></clipPath><clipPath id="b92b166cde"><path d="M 294.164062 78.011719 L 265.675781 77.15625 L 266.308594 56.164062 L 294.796875 57.023438 Z M 294.164062 78.011719 " clip-rule="nonzero"/></clipPath><clipPath id="2bfe4d50f1"><path d="M 266.015625 77.164062 L 294.503906 78.023438 L 295.136719 57.035156 L 266.648438 56.175781 Z M 266.015625 77.164062 " clip-rule="nonzero"/></clipPath><clipPath id="3c2fad563c"><path d="M 266 56 L 283 56 L 283 78 L 266 78 Z M 266 56 " clip-rule="nonzero"/></clipPath><clipPath id="6407607b78"><path d="M 294.164062 78.011719 L 265.675781 77.15625 L 266.308594 56.164062 L 294.796875 57.023438 Z M 294.164062 78.011719 " clip-rule="nonzero"/></clipPath><clipPath id="ad1b2ac757"><path d="M 266.015625 77.164062 L 294.503906 78.023438 L 295.136719 57.035156 L 266.648438 56.175781 Z M 266.015625 77.164062 " clip-rule="nonzero"/></clipPath><clipPath id="a019469845"><path d="M 241 56 L 258 56 L 258 78 L 241 78 Z M 241 56 " clip-rule="nonzero"/></clipPath><clipPath id="a0265d068a"><path d="M 257.039062 78.011719 L 228.550781 77.15625 L 229.183594 56.164062 L 257.671875 57.023438 Z M 257.039062 78.011719 " clip-rule="nonzero"/></clipPath><clipPath id="59b7afdccf"><path d="M 228.890625 77.164062 L 257.378906 78.023438 L 258.011719 57.035156 L 229.523438 56.175781 Z M 228.890625 77.164062 " clip-rule="nonzero"/></clipPath><clipPath id="ed4f4dabe0"><path d="M 228 56 L 246 56 L 246 78 L 228 78 Z M 228 56 " clip-rule="nonzero"/></clipPath><clipPath id="6ec2e9c53b"><path d="M 257.039062 78.011719 L 228.550781 77.15625 L 229.183594 56.164062 L 257.671875 57.023438 Z M 257.039062 78.011719 " clip-rule="nonzero"/></clipPath><clipPath id="ddcc1de36e"><path d="M 228.890625 77.164062 L 257.378906 78.023438 L 258.011719 57.035156 L 229.523438 56.175781 Z M 228.890625 77.164062 " clip-rule="nonzero"/></clipPath><clipPath id="a58199b078"><path d="M 204 56 L 221 56 L 221 78 L 204 78 Z M 204 56 " clip-rule="nonzero"/></clipPath><clipPath id="b31a0daaf3"><path d="M 220.523438 78.011719 L 192.035156 77.15625 L 192.667969 56.164062 L 221.15625 57.023438 Z M 220.523438 78.011719 " clip-rule="nonzero"/></clipPath><clipPath id="d4e071df8d"><path d="M 192.375 77.164062 L 220.863281 78.023438 L 221.496094 57.035156 L 193.007812 56.175781 Z M 192.375 77.164062 " clip-rule="nonzero"/></clipPath><clipPath id="5f636a083f"><path d="M 192 56 L 209 56 L 209 78 L 192 78 Z M 192 56 " clip-rule="nonzero"/></clipPath><clipPath id="81fe7e6c93"><path d="M 220.523438 78.011719 L 192.035156 77.15625 L 192.667969 56.164062 L 221.15625 57.023438 Z M 220.523438 78.011719 " clip-rule="nonzero"/></clipPath><clipPath id="7e143b2304"><path d="M 192.375 77.164062 L 220.863281 78.023438 L 221.496094 57.035156 L 193.007812 56.175781 Z M 192.375 77.164062 " clip-rule="nonzero"/></clipPath></defs><g clip-path="url(#9dbe902154)"><g clip-path="url(#8a44d985dd)"><path fill="#919191" d="M 303.75 52.777344 L 303.75 323.039062 L -0.132812 323.039062 L -0.132812 52.777344 Z M 303.75 52.777344 " fill-opacity="1" fill-rule="nonzero"/></g></g><g clip-path="url(#fc996e7d9a)"><g clip-path="url(#f7b0e343c1)"><path stroke-linecap="butt" transform="matrix(0.000000000000000046, 0.75, -0.75, 0.000000000000000046, 303.749959, 52.777278)" fill="none" stroke-linejoin="miter" d="M 120.062594 394.442673 C 138.520928 400.817674 159.505305 404.999965 180.099056 404.999965 C 200.692807 404.999965 220.505308 401.416632 238.770934 395.041632 C 239.15635 394.838507 239.546975 394.838507 239.9376 394.64059 C 308.515729 369.145797 359.026148 301.81246 360.000106 224.124956 L 360.000106 -0.0000552182 L 0.000088039 -0.0000552182 L 0.000088039 223.95829 C 0.968838 302.208294 50.708424 369.54163 120.062594 394.442673 " stroke="#000000" stroke-width="4" stroke-opacity="1" stroke-miterlimit="4"/></g></g><g clip-path="url(#b85c747279)"><g clip-path="url(#5a5bd6e88f)"><g clip-path="url(#3e95c14420)"><path fill="#707070" d="M 143.433594 32.671875 L 292.699219 188.433594 L 136.941406 337.699219 L -12.328125 181.941406 Z M 143.433594 32.671875 " fill-opacity="1" fill-rule="nonzero"/></g></g></g><g clip-path="url(#3a9dc80ad3)"><g clip-path="url(#0308af3227)"><g clip-path="url(#c09b2ace1a)"><g clip-path="url(#b86f163cd0)"><path stroke-linecap="butt" transform="matrix(0.518927, 0.541493, -0.541493, 0.518927, 143.432438, 32.673429)" fill="none" stroke-linejoin="miter" d="M 143.998475 0.00168702 C 64.471495 0.00319846 0.00118887 64.469223 -0.000903339 143.999963 C 0.000608109 223.526943 64.470393 288.000853 143.997373 287.999342 C 223.528113 288.001434 287.998263 223.528046 288.000355 143.997305 C 287.998844 64.470325 223.525455 0.000175567 143.998475 0.00168702 " stroke="#000000" stroke-width="8" stroke-opacity="1" stroke-miterlimit="4"/></g></g></g></g><g clip-path="url(#194fcc12ff)"><g clip-path="url(#1b9ce04037)"><g clip-path="url(#93199cb189)"><path fill="#ffde59" d="M 180.003906 130.519531 L 192.503906 142.925781 L 170.019531 165.585938 L 157.515625 153.179688 Z M 180.003906 130.519531 " fill-opacity="1" fill-rule="nonzero"/></g></g></g><g clip-path="url(#866fd69481)"><g clip-path="url(#333c65658b)"><g clip-path="url(#9cb2ce8827)"><path fill="#ffde59" d="M 140.589844 216.558594 L 157.632812 212.121094 L 165.679688 243.015625 L 148.632812 247.453125 Z M 140.589844 216.558594 " fill-opacity="1" fill-rule="nonzero"/></g></g></g><g clip-path="url(#d107ba53cc)"><g clip-path="url(#6523b6798c)"><g clip-path="url(#5d4eda7437)"><path fill="#ffde59" d="M 82.421875 210.652344 L 104.335938 129.09375 L 175.070312 148.101562 L 153.152344 229.660156 Z M 82.421875 210.652344 " fill-opacity="1" fill-rule="nonzero"/></g></g></g><g clip-path="url(#7f8a8e4a9d)"><g clip-path="url(#99dd6681f2)"><g clip-path="url(#99881b094d)"><path fill="#ffde59" d="M 83.460938 176.363281 L 88.03125 159.351562 L 118.863281 167.636719 L 114.292969 184.648438 Z M 83.460938 176.363281 " fill-opacity="1" fill-rule="nonzero"/></g></g></g><g clip-path="url(#37bf64d9f1)"><g clip-path="url(#fedab4a3d4)"><g clip-path="url(#64995e08bd)"><path fill="#ffde59" d="M 84.769531 196.964844 L 31.398438 181.300781 L 47.066406 127.929688 L 100.433594 143.597656 Z M 84.769531 196.964844 " fill-opacity="1" fill-rule="nonzero"/></g></g></g><g clip-path="url(#870dbb4cd1)"><g clip-path="url(#984956218e)"><g clip-path="url(#2d2129e95b)"><g clip-path="url(#a035de1502)"><path fill="#000000" d="M 58.984375 186.277344 C 64.3125 187.839844 69.566406 187.640625 74.742188 185.671875 L 76.871094 191.265625 C 70.441406 193.714844 63.914062 193.964844 57.296875 192.023438 Z M 77.1875 184.585938 C 82.136719 182.066406 85.816406 178.320312 88.226562 173.351562 L 93.613281 175.960938 C 90.621094 182.136719 86.050781 186.792969 79.902344 189.921875 Z M 89.257812 170.890625 C 89.421875 170.429688 89.574219 169.964844 89.710938 169.496094 C 91.128906 164.671875 91.082031 159.875 89.578125 155.105469 L 95.289062 153.304688 C 97.160156 159.234375 97.214844 165.195312 95.457031 171.183594 C 95.285156 171.765625 95.097656 172.339844 94.894531 172.90625 Z M 88.636719 152.597656 C 86.40625 147.503906 82.878906 143.613281 78.054688 140.917969 L 80.976562 135.691406 C 86.96875 139.039062 91.351562 143.875 94.121094 150.195312 Z M 75.671875 139.75 C 74.78125 139.371094 73.867188 139.042969 72.929688 138.769531 C 68.601562 137.5 64.265625 137.414062 59.921875 138.511719 L 58.453125 132.703125 C 63.855469 131.339844 69.242188 131.445312 74.617188 133.023438 C 75.777344 133.363281 76.90625 133.769531 78.011719 134.238281 Z M 57.371094 139.300781 C 52.160156 141.234375 48.070312 144.527344 45.09375 149.183594 L 40.050781 145.957031 C 43.742188 140.175781 48.824219 136.085938 55.289062 133.6875 Z M 43.78125 151.511719 C 43.140625 152.804688 42.613281 154.152344 42.203125 155.550781 C 41.078125 159.386719 40.886719 163.257812 41.632812 167.152344 L 35.75 168.28125 C 34.824219 163.433594 35.058594 158.628906 36.457031 153.863281 C 36.96875 152.132812 37.621094 150.460938 38.414062 148.855469 Z M 42.273438 169.742188 C 43.898438 175.054688 46.949219 179.332031 51.425781 182.578125 L 47.914062 187.425781 C 42.355469 183.394531 38.566406 178.085938 36.550781 171.496094 Z M 53.675781 184.027344 C 55.347656 184.980469 57.117188 185.730469 58.984375 186.277344 L 57.296875 192.023438 C 54.984375 191.34375 52.789062 190.410156 50.710938 189.226562 Z M 53.675781 184.027344 " fill-opacity="1" fill-rule="nonzero"/></g></g></g></g><g clip-path="url(#35729c7e6c)"><g clip-path="url(#a65a3864e4)"><g clip-path="url(#aef8ff0f4a)"><path fill="#ffde59" d="M 141.207031 292.679688 L 126.871094 238.9375 L 180.613281 224.601562 L 194.953125 278.34375 Z M 141.207031 292.679688 " fill-opacity="1" fill-rule="nonzero"/></g></g></g><g clip-path="url(#a22e0c56c1)"><g clip-path="url(#ac4fca554d)"><g clip-path="url(#d49572c96f)"><g clip-path="url(#808b16a03c)"><path fill="#000000" d="M 136.949219 265.097656 C 138.378906 270.460938 141.28125 274.84375 145.652344 278.246094 L 141.976562 282.972656 C 136.546875 278.746094 132.941406 273.304688 131.164062 266.640625 Z M 147.847656 279.769531 C 152.574219 282.691406 157.6875 283.890625 163.183594 283.367188 L 163.753906 289.328125 C 156.917969 289.976562 150.570312 288.492188 144.699219 284.863281 Z M 165.824219 282.972656 C 166.300781 282.871094 166.777344 282.761719 167.25 282.632812 C 172.105469 281.339844 176.183594 278.808594 179.480469 275.042969 L 183.984375 278.988281 C 179.886719 283.667969 174.824219 286.808594 168.792969 288.417969 C 168.207031 288.574219 167.617188 288.714844 167.027344 288.835938 Z M 181.132812 272.9375 C 184.324219 268.386719 185.816406 263.347656 185.613281 257.828125 L 191.597656 257.609375 C 191.851562 264.46875 189.996094 270.722656 186.035156 276.375 Z M 185.375 255.183594 C 185.234375 254.226562 185.039062 253.277344 184.789062 252.332031 C 183.625 247.976562 181.445312 244.222656 178.25 241.082031 L 182.449219 236.8125 C 186.421875 240.71875 189.128906 245.378906 190.574219 250.789062 C 190.882812 251.957031 191.125 253.132812 191.300781 254.320312 Z M 176.25 239.3125 C 171.890625 235.867188 166.953125 234.078125 161.429688 233.957031 L 161.5625 227.972656 C 168.421875 228.125 174.558594 230.339844 179.964844 234.617188 Z M 158.757812 234.042969 C 157.320312 234.167969 155.894531 234.417969 154.488281 234.792969 C 150.621094 235.824219 147.21875 237.671875 144.273438 240.335938 L 140.257812 235.894531 C 143.917969 232.585938 148.144531 230.289062 152.945312 229.011719 C 154.6875 228.542969 156.453125 228.234375 158.238281 228.078125 Z M 142.394531 242.230469 C 138.703125 246.375 136.632812 251.207031 136.183594 256.714844 L 130.21875 256.234375 C 130.769531 249.386719 133.339844 243.394531 137.925781 238.246094 Z M 136.113281 259.390625 C 136.167969 261.3125 136.445312 263.214844 136.949219 265.097656 L 131.164062 266.640625 C 130.542969 264.308594 130.195312 261.949219 130.128906 259.558594 Z M 136.113281 259.390625 " fill-opacity="1" fill-rule="nonzero"/></g></g></g></g><g clip-path="url(#922b4cbfb8)"><g clip-path="url(#37ac1baf21)"><g clip-path="url(#c0a04a9abb)"><path fill="#ffde59" d="M 212.382812 164.410156 L 159.011719 148.742188 L 174.679688 95.371094 L 228.050781 111.039062 Z M 212.382812 164.410156 " fill-opacity="1" fill-rule="nonzero"/></g></g></g><g clip-path="url(#83ebed927a)"><g clip-path="url(#9b34858cc6)"><g clip-path="url(#533e66c52d)"><g clip-path="url(#729b0912eb)"><path fill="#000000" d="M 186.601562 153.722656 C 191.929688 155.285156 197.183594 155.082031 202.355469 153.113281 L 204.484375 158.710938 C 198.054688 161.15625 191.53125 161.410156 184.914062 159.464844 Z M 204.800781 152.03125 C 209.753906 149.507812 213.433594 145.765625 215.839844 140.792969 L 221.230469 143.40625 C 218.238281 149.582031 213.667969 154.238281 207.519531 157.367188 Z M 216.875 138.332031 C 217.039062 137.875 217.191406 137.410156 217.328125 136.941406 C 218.742188 132.117188 218.699219 127.320312 217.195312 122.546875 L 222.90625 120.746094 C 224.773438 126.679688 224.832031 132.636719 223.074219 138.628906 C 222.902344 139.207031 222.714844 139.78125 222.511719 140.351562 Z M 216.253906 120.042969 C 214.019531 114.949219 210.492188 111.054688 205.671875 108.363281 L 208.589844 103.132812 C 214.585938 106.484375 218.96875 111.316406 221.738281 117.640625 Z M 203.285156 107.191406 C 202.394531 106.816406 201.480469 106.488281 200.546875 106.214844 C 196.21875 104.941406 191.882812 104.855469 187.535156 105.953125 L 186.070312 100.148438 C 191.472656 98.785156 196.859375 98.890625 202.234375 100.46875 C 203.390625 100.808594 204.523438 101.214844 205.628906 101.683594 Z M 184.984375 106.746094 C 179.777344 108.679688 175.683594 111.972656 172.710938 116.625 L 167.664062 113.402344 C 171.359375 107.621094 176.4375 103.53125 182.90625 101.132812 Z M 171.394531 118.953125 C 170.753906 120.25 170.230469 121.59375 169.820312 122.996094 C 168.691406 126.832031 168.503906 130.699219 169.25 134.597656 L 163.367188 135.722656 C 162.441406 130.878906 162.675781 126.070312 164.074219 121.308594 C 164.582031 119.574219 165.234375 117.90625 166.03125 116.300781 Z M 169.890625 137.1875 C 171.515625 142.5 174.566406 146.777344 179.042969 150.019531 L 175.53125 154.867188 C 169.96875 150.839844 166.183594 145.53125 164.164062 138.941406 Z M 181.292969 151.46875 C 182.964844 152.421875 184.734375 153.171875 186.601562 153.722656 L 184.914062 159.464844 C 182.601562 158.785156 180.402344 157.855469 178.328125 156.671875 Z M 181.292969 151.46875 " fill-opacity="1" fill-rule="nonzero"/></g></g></g></g><g clip-path="url(#3b5e64a548)"><g clip-path="url(#72a77ac23f)"><g clip-path="url(#d6468b29a7)"><path fill="#707070" d="M 57.367188 167.382812 L 60.988281 153.898438 L 74.472656 157.523438 L 70.847656 171.003906 Z M 57.367188 167.382812 " fill-opacity="1" fill-rule="nonzero"/></g></g></g><g clip-path="url(#555bf64972)"><g clip-path="url(#38fed967b1)"><g clip-path="url(#7a4807e295)"><path fill="#707070" d="M 152.367188 253.699219 L 165.855469 250.101562 L 169.453125 263.589844 L 155.964844 267.1875 Z M 152.367188 253.699219 " fill-opacity="1" fill-rule="nonzero"/></g></g></g><g clip-path="url(#118d9b0184)"><g clip-path="url(#4777ebb384)"><g clip-path="url(#a44c19a8d2)"><path fill="#707070" d="M 184.234375 134.105469 L 187.855469 120.625 L 201.339844 124.246094 L 197.714844 137.726562 Z M 184.234375 134.105469 " fill-opacity="1" fill-rule="nonzero"/></g></g></g><g clip-path="url(#a7f421e920)"><g clip-path="url(#1393232464)"><g clip-path="url(#2745c9ebab)"><g clip-path="url(#8f8b6ea9f6)"><path fill="#ffffff" d="M 105.105469 134.261719 C 105.070312 134.238281 105.054688 134.207031 105.054688 134.164062 C 104.929688 134.09375 104.753906 134.246094 104.652344 134.070312 C 104.242188 133.878906 104.242188 133.53125 104.308594 133.160156 C 104.5 132.128906 104.851562 131.148438 105.265625 130.191406 C 106.742188 126.761719 108.867188 123.804688 111.53125 121.207031 C 116.1875 116.664062 121.808594 114.222656 128.148438 113.304688 C 131.089844 112.875 134.050781 112.976562 137.007812 113.214844 C 138.746094 113.355469 140.472656 113.601562 142.203125 113.804688 C 142.265625 113.835938 142.320312 113.875 142.378906 113.90625 C 142.453125 113.886719 142.542969 113.878906 142.59375 113.832031 C 142.632812 113.792969 142.578125 113.738281 142.515625 113.730469 C 142.019531 113.25 141.441406 112.894531 140.84375 112.566406 C 140.433594 112.34375 140.054688 112.09375 139.75 111.734375 C 138.867188 111.261719 138.570312 110.515625 138.890625 109.65625 C 140.882812 109.703125 142.453125 110.710938 143.96875 111.871094 C 144.535156 112.300781 145.125 112.691406 145.710938 113.09375 C 147.113281 114.050781 146.859375 113.992188 146.777344 115.375 C 146.761719 115.683594 146.671875 115.984375 146.554688 116.273438 C 146.511719 116.378906 146.460938 116.472656 146.347656 116.511719 C 146.308594 116.863281 146.035156 116.96875 145.761719 117.054688 C 144.949219 117.316406 144.136719 117.570312 143.324219 117.824219 C 143.191406 117.976562 143.003906 118.011719 142.816406 118.039062 C 142.691406 118.199219 142.503906 118.234375 142.320312 118.273438 C 142.246094 118.402344 142.105469 118.414062 141.992188 118.476562 C 140.449219 119.296875 139.023438 120.285156 137.773438 121.515625 C 137.675781 121.609375 137.574219 121.691406 137.476562 121.78125 C 137.363281 121.886719 137.230469 122.007812 137.074219 121.917969 C 136.957031 121.851562 136.914062 121.664062 136.957031 121.554688 C 137.144531 121.078125 137.011719 120.558594 137.148438 120.082031 C 137.210938 119.867188 137.355469 119.699219 137.503906 119.53125 C 138.644531 118.21875 139.984375 117.152344 141.4375 116.21875 C 141.566406 116.136719 141.710938 116.074219 141.820312 115.964844 C 141.945312 115.839844 141.855469 115.726562 141.738281 115.640625 C 141.582031 115.71875 141.441406 115.695312 141.3125 115.578125 C 141.15625 115.621094 141 115.652344 140.863281 115.519531 C 140.832031 115.550781 140.804688 115.546875 140.777344 115.511719 C 140.628906 115.558594 140.484375 115.578125 140.351562 115.464844 C 140.242188 115.472656 140.132812 115.496094 140.027344 115.488281 C 138.84375 115.386719 137.667969 115.265625 136.484375 115.179688 C 135.410156 115.097656 134.335938 115.054688 133.265625 114.996094 C 132.980469 115.011719 132.695312 115.042969 132.414062 115.050781 C 129.648438 115.140625 126.941406 115.5625 124.304688 116.394531 C 123.367188 116.691406 122.433594 117.019531 121.5 117.332031 C 121.359375 117.496094 121.164062 117.523438 120.96875 117.554688 C 120.839844 117.714844 120.652344 117.742188 120.46875 117.773438 C 120.355469 117.933594 120.175781 117.949219 120.007812 117.992188 C 119.941406 118.105469 119.835938 118.136719 119.714844 118.136719 C 119.6875 118.175781 119.652344 118.191406 119.605469 118.179688 C 119.53125 118.304688 119.390625 118.324219 119.28125 118.386719 C 118.734375 118.699219 118.132812 118.914062 117.621094 119.296875 C 117.554688 119.269531 117.375 119.304688 117.550781 119.140625 C 117.667969 119.03125 117.660156 118.988281 117.609375 118.964844 C 117.566406 118.949219 117.488281 118.949219 117.429688 118.941406 C 115.730469 119.988281 114.179688 121.230469 112.710938 122.578125 C 112.585938 122.71875 112.457031 122.855469 112.332031 122.992188 C 111.589844 123.816406 110.839844 124.640625 110.09375 125.460938 C 110.089844 125.507812 110.074219 125.546875 110.046875 125.570312 C 110.027344 125.589844 110.003906 125.605469 109.976562 125.613281 C 109.96875 125.691406 109.929688 125.738281 109.859375 125.761719 C 109.855469 125.839844 109.816406 125.886719 109.746094 125.910156 C 109.742188 125.988281 109.703125 126.035156 109.628906 126.058594 C 109.628906 126.136719 109.589844 126.1875 109.515625 126.210938 C 109.519531 126.289062 109.480469 126.335938 109.40625 126.359375 C 109.40625 126.4375 109.371094 126.488281 109.296875 126.507812 L 109.296875 126.511719 C 109.261719 126.5625 109.226562 126.613281 109.1875 126.660156 L 109.1875 126.667969 C 109.1875 126.742188 109.152344 126.792969 109.082031 126.816406 L 109.078125 126.820312 C 109.078125 126.898438 109.042969 126.949219 108.972656 126.972656 L 108.96875 126.976562 C 108.96875 126.976562 108.964844 126.980469 108.964844 126.980469 C 108.964844 126.980469 108.96875 126.976562 108.96875 126.976562 C 108.972656 127.054688 108.9375 127.105469 108.863281 127.128906 L 108.859375 127.128906 C 108.863281 127.207031 108.828125 127.257812 108.753906 127.28125 L 108.753906 127.285156 C 108.757812 127.363281 108.722656 127.414062 108.648438 127.4375 C 108.351562 127.9375 108.058594 128.433594 107.765625 128.929688 C 107.53125 129.140625 107.421875 129.433594 107.28125 129.703125 C 107.300781 129.730469 107.324219 129.753906 107.351562 129.769531 C 107.394531 129.796875 107.4375 129.808594 107.492188 129.804688 C 107.40625 130.019531 107.335938 130.242188 107.160156 130.402344 C 107.101562 130.445312 107.050781 130.496094 107.023438 130.566406 C 107.066406 130.511719 107.113281 130.457031 107.160156 130.402344 C 107.144531 130.476562 107.125 130.542969 107.042969 130.5625 C 107.0625 130.675781 107.019531 130.765625 106.933594 130.839844 C 106.949219 130.914062 106.925781 130.972656 106.855469 131 C 106.851562 131.078125 106.828125 131.144531 106.753906 131.179688 C 106.757812 131.21875 106.75 131.253906 106.71875 131.28125 C 106.671875 131.503906 106.582031 131.707031 106.441406 131.886719 C 106.402344 132.042969 106.363281 132.203125 106.246094 132.324219 C 106.257812 132.433594 106.195312 132.515625 106.140625 132.601562 C 105.980469 133.21875 105.707031 133.796875 105.65625 134.476562 C 105.453125 134.355469 105.222656 134.472656 105.105469 134.261719 Z M 140.753906 115.382812 C 140.75 115.382812 140.75 115.382812 140.75 115.382812 C 140.75 115.386719 140.75 115.386719 140.75 115.390625 C 140.753906 115.386719 140.753906 115.382812 140.753906 115.382812 Z M 108.582031 126.886719 C 108.585938 126.875 108.59375 126.859375 108.601562 126.847656 C 108.597656 126.847656 108.59375 126.851562 108.589844 126.855469 C 108.585938 126.867188 108.578125 126.875 108.570312 126.886719 C 108.570312 126.886719 108.574219 126.886719 108.582031 126.886719 Z M 110.085938 125.464844 C 110.082031 125.464844 110.082031 125.464844 110.082031 125.464844 C 110.078125 125.460938 110.074219 125.457031 110.070312 125.453125 L 110.054688 125.445312 L 110.082031 125.464844 C 110.082031 125.464844 110.082031 125.46875 110.082031 125.46875 C 110.082031 125.46875 110.082031 125.464844 110.085938 125.464844 Z M 108.511719 126.886719 C 108.53125 126.886719 108.550781 126.886719 108.566406 126.886719 C 108.574219 126.875 108.582031 126.867188 108.589844 126.855469 C 108.570312 126.875 108.542969 126.886719 108.511719 126.886719 Z M 108.636719 126.785156 C 108.644531 126.773438 108.652344 126.761719 108.660156 126.746094 C 108.65625 126.746094 108.660156 126.746094 108.660156 126.742188 C 108.652344 126.757812 108.644531 126.773438 108.636719 126.785156 Z M 105.019531 133.054688 C 105.019531 133.058594 105.019531 133.058594 105.015625 133.058594 C 105.015625 133.058594 105.015625 133.0625 105.015625 133.0625 C 105.015625 133.0625 105.015625 133.066406 105.015625 133.066406 C 105.019531 133.066406 105.019531 133.0625 105.019531 133.054688 Z M 105.09375 132.78125 C 105.09375 132.78125 105.089844 132.777344 105.09375 132.773438 C 105.09375 132.777344 105.09375 132.78125 105.09375 132.78125 Z M 106.917969 130.617188 C 106.90625 130.617188 106.890625 130.613281 106.878906 130.609375 C 106.878906 130.617188 106.878906 130.625 106.882812 130.632812 C 106.894531 130.628906 106.90625 130.625 106.917969 130.617188 Z M 106.757812 131.089844 C 106.746094 131.109375 106.738281 131.136719 106.742188 131.164062 C 106.742188 131.136719 106.75 131.113281 106.757812 131.089844 Z M 106.757812 131.089844 " fill-opacity="1" fill-rule="nonzero"/></g></g></g></g><g clip-path="url(#ea5a55e75f)"><g clip-path="url(#6c48c62676)"><g clip-path="url(#551e399f4d)"><g clip-path="url(#bd4263dacd)"><path fill="#ffffff" d="M 109.179688 126.667969 C 109.214844 126.617188 109.253906 126.570312 109.285156 126.519531 C 109.289062 126.597656 109.253906 126.644531 109.179688 126.667969 Z M 109.179688 126.667969 " fill-opacity="1" fill-rule="nonzero"/></g></g></g></g><g clip-path="url(#96e1e3f28d)"><g clip-path="url(#cdfb0e9a4a)"><g clip-path="url(#6b2ca3ffc0)"><g clip-path="url(#ae14125a0a)"><path fill="#ffffff" d="M 205.476562 175.835938 C 205.515625 175.824219 205.550781 175.828125 205.585938 175.855469 C 205.714844 175.792969 205.691406 175.5625 205.894531 175.578125 C 206.289062 175.355469 206.570312 175.554688 206.835938 175.824219 C 207.570312 176.574219 208.167969 177.425781 208.714844 178.3125 C 210.667969 181.496094 211.863281 184.933594 212.453125 188.609375 C 213.488281 195.027344 212.25 201.03125 209.351562 206.746094 C 208.007812 209.394531 206.222656 211.761719 204.324219 214.042969 C 203.207031 215.382812 202.015625 216.652344 200.851562 217.953125 C 200.789062 217.980469 200.726562 218.007812 200.664062 218.035156 C 200.640625 218.109375 200.59375 218.183594 200.605469 218.253906 C 200.613281 218.308594 200.691406 218.292969 200.734375 218.25 C 201.410156 218.117188 202.035156 217.851562 202.648438 217.550781 C 203.066406 217.34375 203.488281 217.175781 203.957031 217.136719 C 204.851562 216.6875 205.632812 216.875 206.148438 217.628906 C 204.96875 219.230469 203.234375 219.933594 201.414062 220.507812 C 200.738281 220.722656 200.078125 220.980469 199.414062 221.226562 C 197.824219 221.824219 198.019531 221.648438 196.933594 220.789062 C 196.691406 220.59375 196.496094 220.351562 196.328125 220.089844 C 196.265625 219.992188 196.21875 219.898438 196.25 219.78125 C 195.984375 219.546875 196.058594 219.261719 196.144531 218.988281 C 196.398438 218.175781 196.660156 217.363281 196.917969 216.554688 C 196.871094 216.355469 196.949219 216.183594 197.035156 216.015625 C 196.976562 215.820312 197.058594 215.648438 197.128906 215.472656 C 197.066406 215.339844 197.136719 215.214844 197.15625 215.085938 C 197.367188 213.355469 197.382812 211.621094 197.097656 209.886719 C 197.074219 209.757812 197.066406 209.625 197.050781 209.496094 C 197.027344 209.339844 197.003906 209.164062 197.167969 209.085938 C 197.292969 209.03125 197.46875 209.101562 197.53125 209.199219 C 197.816406 209.628906 198.316406 209.816406 198.628906 210.207031 C 198.765625 210.378906 198.820312 210.59375 198.875 210.8125 C 199.289062 212.5 199.390625 214.207031 199.316406 215.933594 C 199.3125 216.085938 199.28125 216.242188 199.304688 216.394531 C 199.335938 216.566406 199.480469 216.558594 199.617188 216.515625 C 199.644531 216.339844 199.746094 216.238281 199.914062 216.199219 C 199.96875 216.046875 200.035156 215.902344 200.222656 215.867188 C 200.210938 215.824219 200.230469 215.800781 200.277344 215.800781 C 200.324219 215.652344 200.390625 215.523438 200.5625 215.480469 C 200.617188 215.386719 200.660156 215.285156 200.730469 215.203125 C 201.492188 214.292969 202.269531 213.398438 203.019531 212.484375 C 203.703125 211.652344 204.359375 210.800781 205.023438 209.957031 C 205.171875 209.710938 205.3125 209.464844 205.46875 209.226562 C 206.984375 206.917969 208.199219 204.457031 209.035156 201.824219 C 209.332031 200.882812 209.601562 199.933594 209.882812 198.988281 C 209.828125 198.78125 209.921875 198.605469 210.007812 198.429688 C 209.953125 198.230469 210.035156 198.0625 210.117188 197.894531 C 210.050781 197.707031 210.144531 197.550781 210.207031 197.390625 C 210.148438 197.269531 210.183594 197.167969 210.253906 197.066406 C 210.234375 197.023438 210.242188 196.984375 210.277344 196.953125 C 210.21875 196.820312 210.285156 196.695312 210.296875 196.570312 C 210.355469 195.941406 210.527344 195.324219 210.507812 194.6875 C 210.570312 194.648438 210.644531 194.480469 210.679688 194.71875 C 210.699219 194.878906 210.742188 194.898438 210.789062 194.867188 C 210.828125 194.84375 210.871094 194.78125 210.910156 194.738281 C 211.03125 192.746094 210.910156 190.761719 210.652344 188.78125 C 210.613281 188.601562 210.570312 188.417969 210.53125 188.238281 C 210.285156 187.152344 210.042969 186.066406 209.800781 184.984375 C 209.765625 184.953125 209.746094 184.917969 209.738281 184.882812 C 209.734375 184.855469 209.738281 184.828125 209.746094 184.800781 C 209.6875 184.75 209.667969 184.691406 209.691406 184.621094 C 209.628906 184.574219 209.613281 184.511719 209.636719 184.441406 C 209.574219 184.394531 209.554688 184.335938 209.582031 184.261719 C 209.515625 184.214844 209.496094 184.15625 209.523438 184.082031 C 209.457031 184.039062 209.4375 183.976562 209.464844 183.90625 L 209.460938 183.902344 C 209.398438 183.859375 209.378906 183.800781 209.402344 183.730469 L 209.402344 183.726562 C 209.378906 183.671875 209.359375 183.613281 209.339844 183.554688 L 209.339844 183.546875 C 209.273438 183.503906 209.253906 183.449219 209.277344 183.375 L 209.273438 183.367188 C 209.210938 183.328125 209.191406 183.269531 209.214844 183.195312 L 209.210938 183.191406 C 209.210938 183.191406 209.210938 183.1875 209.210938 183.1875 C 209.210938 183.1875 209.210938 183.191406 209.210938 183.191406 C 209.144531 183.148438 209.125 183.089844 209.148438 183.015625 L 209.148438 183.011719 C 209.082031 182.972656 209.0625 182.914062 209.085938 182.839844 L 209.082031 182.839844 C 209.015625 182.796875 208.996094 182.738281 209.015625 182.664062 C 208.78125 182.136719 208.542969 181.609375 208.304688 181.082031 C 208.269531 180.769531 208.089844 180.511719 207.953125 180.242188 C 207.917969 180.242188 207.886719 180.25 207.855469 180.261719 C 207.8125 180.28125 207.777344 180.308594 207.746094 180.355469 C 207.621094 180.164062 207.480469 179.976562 207.453125 179.742188 C 207.449219 179.667969 207.4375 179.597656 207.394531 179.535156 C 207.414062 179.601562 207.433594 179.671875 207.453125 179.742188 C 207.398438 179.6875 207.355469 179.628906 207.386719 179.554688 C 207.28125 179.503906 207.234375 179.414062 207.222656 179.304688 C 207.152344 179.273438 207.117188 179.222656 207.136719 179.144531 C 207.074219 179.097656 207.035156 179.042969 207.046875 178.960938 C 207.011719 178.941406 206.992188 178.914062 206.984375 178.875 C 206.828125 178.707031 206.714844 178.515625 206.648438 178.300781 C 206.542969 178.175781 206.4375 178.054688 206.40625 177.886719 C 206.308594 177.832031 206.277344 177.734375 206.238281 177.644531 C 205.828125 177.15625 205.507812 176.597656 204.984375 176.167969 C 205.199219 176.066406 205.234375 175.8125 205.476562 175.835938 Z M 200.394531 215.855469 C 200.394531 215.855469 200.394531 215.855469 200.398438 215.851562 C 200.398438 215.855469 200.398438 215.855469 200.398438 215.855469 C 200.398438 215.855469 200.398438 215.851562 200.398438 215.851562 C 200.394531 215.851562 200.394531 215.851562 200.390625 215.851562 C 200.394531 215.855469 200.394531 215.855469 200.394531 215.855469 Z M 209.507812 182.925781 C 209.515625 182.9375 209.523438 182.953125 209.527344 182.964844 C 209.527344 182.960938 209.527344 182.957031 209.527344 182.953125 C 209.523438 182.941406 209.519531 182.929688 209.511719 182.917969 C 209.511719 182.917969 209.507812 182.921875 209.507812 182.925781 Z M 209.804688 184.972656 C 209.804688 184.972656 209.804688 184.972656 209.808594 184.972656 C 209.8125 184.96875 209.816406 184.96875 209.820312 184.96875 L 209.835938 184.957031 L 209.804688 184.972656 C 209.804688 184.972656 209.804688 184.96875 209.804688 184.96875 C 209.804688 184.96875 209.804688 184.972656 209.804688 184.972656 Z M 209.546875 182.871094 C 209.535156 182.886719 209.523438 182.898438 209.515625 182.914062 C 209.519531 182.925781 209.523438 182.9375 209.527344 182.949219 C 209.523438 182.921875 209.527344 182.894531 209.546875 182.871094 Z M 209.558594 183.027344 C 209.566406 183.042969 209.570312 183.058594 209.574219 183.070312 C 209.578125 183.070312 209.578125 183.070312 209.578125 183.074219 C 209.570312 183.058594 209.566406 183.042969 209.558594 183.027344 Z M 206.511719 176.464844 C 206.511719 176.460938 206.511719 176.460938 206.511719 176.457031 C 206.507812 176.457031 206.507812 176.453125 206.503906 176.453125 C 206.507812 176.457031 206.507812 176.460938 206.511719 176.464844 Z M 206.691406 176.679688 C 206.695312 176.683594 206.699219 176.683594 206.699219 176.6875 C 206.695312 176.6875 206.695312 176.679688 206.691406 176.679688 Z M 207.414062 179.421875 C 207.421875 179.410156 207.429688 179.398438 207.445312 179.390625 C 207.4375 179.386719 207.429688 179.382812 207.421875 179.378906 C 207.417969 179.394531 207.414062 179.40625 207.414062 179.421875 Z M 207.117188 179.015625 C 207.109375 178.992188 207.09375 178.976562 207.070312 178.960938 C 207.070312 178.960938 207.070312 178.960938 207.066406 178.960938 C 207.089844 178.976562 207.105469 178.996094 207.117188 179.015625 Z M 207.117188 179.015625 " fill-opacity="1" fill-rule="nonzero"/></g></g></g></g><g clip-path="url(#4c916dd567)"><g clip-path="url(#75bf50bdc1)"><g clip-path="url(#521add8e3a)"><g clip-path="url(#07ce709e03)"><path fill="#ffffff" d="M 209.339844 183.542969 C 209.359375 183.601562 209.378906 183.65625 209.402344 183.714844 C 209.335938 183.671875 209.316406 183.613281 209.339844 183.542969 Z M 209.339844 183.542969 " fill-opacity="1" fill-rule="nonzero"/></g></g></g></g><g clip-path="url(#6a153d771c)"><g clip-path="url(#94f9fa2dfe)"><g clip-path="url(#07883dfa4f)"><g clip-path="url(#40ef94d9f3)"><path fill="#ffffff" d="M 114.117188 245.246094 C 114.109375 245.289062 114.082031 245.316406 114.042969 245.328125 C 114.019531 245.46875 114.222656 245.582031 114.09375 245.738281 C 114.054688 246.191406 113.726562 246.308594 113.355469 246.371094 C 112.320312 246.550781 111.28125 246.554688 110.238281 246.5 C 106.511719 246.289062 103.007812 245.3125 99.648438 243.699219 C 93.78125 240.890625 89.558594 236.453125 86.511719 230.816406 C 85.101562 228.203125 84.175781 225.386719 83.382812 222.527344 C 82.917969 220.84375 82.554688 219.140625 82.148438 217.445312 C 82.164062 217.375 82.175781 217.308594 82.1875 217.242188 C 82.140625 217.179688 82.105469 217.097656 82.042969 217.070312 C 81.992188 217.046875 81.960938 217.117188 81.972656 217.179688 C 81.695312 217.808594 81.558594 218.476562 81.457031 219.148438 C 81.386719 219.609375 81.285156 220.050781 81.050781 220.460938 C 80.910156 221.453125 80.3125 221.988281 79.394531 221.980469 C 78.753906 220.097656 79.164062 218.273438 79.730469 216.449219 C 79.941406 215.769531 80.105469 215.082031 80.277344 214.394531 C 80.695312 212.75 80.730469 213.007812 82.054688 212.609375 C 82.351562 212.519531 82.664062 212.496094 82.972656 212.511719 C 83.085938 212.515625 83.191406 212.527344 83.269531 212.621094 C 83.613281 212.535156 83.804688 212.757812 83.984375 212.984375 C 84.507812 213.65625 85.023438 214.335938 85.542969 215.011719 C 85.730469 215.082031 85.828125 215.242188 85.917969 215.410156 C 86.113281 215.476562 86.207031 215.640625 86.308594 215.796875 C 86.453125 215.824219 86.515625 215.953125 86.613281 216.039062 C 87.914062 217.203125 89.332031 218.203125 90.917969 218.953125 C 91.035156 219.011719 91.148438 219.078125 91.265625 219.140625 C 91.40625 219.210938 91.566406 219.292969 91.535156 219.46875 C 91.511719 219.605469 91.351562 219.707031 91.234375 219.703125 C 90.71875 219.695312 90.28125 220 89.78125 220.03125 C 89.5625 220.046875 89.355469 219.96875 89.144531 219.886719 C 87.523438 219.269531 86.058594 218.378906 84.683594 217.335938 C 84.5625 217.242188 84.449219 217.125 84.3125 217.0625 C 84.152344 216.984375 84.078125 217.109375 84.035156 217.25 C 84.164062 217.371094 84.191406 217.511719 84.125 217.671875 C 84.21875 217.804688 84.300781 217.941406 84.222656 218.113281 C 84.265625 218.132812 84.273438 218.160156 84.246094 218.195312 C 84.34375 218.320312 84.410156 218.449219 84.347656 218.613281 C 84.390625 218.710938 84.453125 218.804688 84.480469 218.910156 C 84.792969 220.054688 85.085938 221.203125 85.410156 222.34375 C 85.703125 223.378906 86.027344 224.402344 86.34375 225.429688 C 86.457031 225.691406 86.582031 225.945312 86.6875 226.210938 C 87.722656 228.773438 89.050781 231.171875 90.738281 233.359375 C 91.339844 234.140625 91.96875 234.902344 92.585938 235.671875 C 92.785156 235.746094 92.878906 235.921875 92.972656 236.09375 C 93.167969 236.160156 93.257812 236.328125 93.351562 236.492188 C 93.539062 236.539062 93.617188 236.707031 93.714844 236.847656 C 93.84375 236.871094 93.910156 236.957031 93.953125 237.070312 C 94 237.082031 94.027344 237.109375 94.03125 237.160156 C 94.171875 237.183594 94.238281 237.3125 94.335938 237.394531 C 94.820312 237.800781 95.226562 238.292969 95.761719 238.636719 C 95.757812 238.710938 95.851562 238.867188 95.640625 238.757812 C 95.496094 238.6875 95.457031 238.710938 95.453125 238.765625 C 95.453125 238.8125 95.480469 238.882812 95.492188 238.941406 C 97.058594 240.175781 98.761719 241.207031 100.53125 242.125 C 100.703125 242.191406 100.878906 242.265625 101.050781 242.332031 C 102.078125 242.75 103.109375 243.167969 104.140625 243.589844 C 104.183594 243.574219 104.222656 243.578125 104.257812 243.59375 C 104.28125 243.605469 104.304688 243.625 104.320312 243.644531 C 104.394531 243.625 104.453125 243.648438 104.5 243.703125 C 104.574219 243.679688 104.632812 243.703125 104.679688 243.761719 C 104.753906 243.738281 104.8125 243.757812 104.859375 243.820312 C 104.933594 243.792969 104.992188 243.808594 105.039062 243.871094 C 105.113281 243.84375 105.171875 243.863281 105.21875 243.925781 C 105.289062 243.898438 105.351562 243.914062 105.394531 243.976562 L 105.398438 243.976562 C 105.457031 243.988281 105.519531 244.003906 105.578125 244.023438 L 105.582031 244.027344 C 105.652344 244 105.710938 244.011719 105.757812 244.074219 L 105.765625 244.078125 C 105.835938 244.046875 105.894531 244.0625 105.941406 244.125 L 105.949219 244.125 C 106.019531 244.09375 106.078125 244.109375 106.125 244.171875 L 106.128906 244.175781 C 106.203125 244.144531 106.261719 244.160156 106.308594 244.21875 C 106.382812 244.191406 106.445312 244.207031 106.492188 244.265625 C 107.0625 244.371094 107.628906 244.476562 108.195312 244.582031 C 108.472656 244.730469 108.785156 244.730469 109.085938 244.773438 C 109.109375 244.742188 109.121094 244.714844 109.128906 244.683594 C 109.136719 244.632812 109.132812 244.589844 109.113281 244.539062 C 109.34375 244.542969 109.574219 244.535156 109.785156 244.644531 C 109.847656 244.6875 109.910156 244.714844 109.988281 244.71875 C 109.921875 244.695312 109.855469 244.671875 109.785156 244.644531 C 109.859375 244.632812 109.933594 244.628906 109.976562 244.699219 C 110.078125 244.644531 110.175781 244.652344 110.277344 244.707031 C 110.339844 244.667969 110.402344 244.667969 110.453125 244.726562 C 110.527344 244.703125 110.597656 244.699219 110.65625 244.757812 C 110.691406 244.742188 110.726562 244.738281 110.761719 244.757812 C 110.988281 244.722656 111.210938 244.738281 111.429688 244.808594 C 111.589844 244.792969 111.75 244.773438 111.90625 244.84375 C 112.003906 244.796875 112.101562 244.824219 112.199219 244.84375 C 112.835938 244.785156 113.476562 244.84375 114.128906 244.65625 C 114.085938 244.890625 114.277344 245.0625 114.117188 245.246094 Z M 84.132812 218.261719 C 84.132812 218.265625 84.132812 218.265625 84.132812 218.265625 C 84.132812 218.265625 84.136719 218.265625 84.136719 218.265625 C 84.136719 218.265625 84.132812 218.265625 84.132812 218.265625 C 84.136719 218.265625 84.136719 218.265625 84.140625 218.265625 C 84.136719 218.261719 84.132812 218.261719 84.132812 218.261719 Z M 105.996094 244.519531 C 105.980469 244.519531 105.96875 244.515625 105.953125 244.515625 C 105.957031 244.515625 105.960938 244.519531 105.964844 244.519531 C 105.976562 244.523438 105.988281 244.527344 106 244.527344 C 106 244.527344 106 244.523438 105.996094 244.519531 Z M 104.144531 243.597656 C 104.144531 243.597656 104.144531 243.597656 104.144531 243.601562 C 104.144531 243.605469 104.140625 243.609375 104.140625 243.613281 L 104.136719 243.632812 L 104.144531 243.597656 C 104.148438 243.597656 104.148438 243.597656 104.148438 243.597656 C 104.148438 243.597656 104.148438 243.597656 104.144531 243.597656 Z M 106.019531 244.585938 C 106.015625 244.566406 106.007812 244.546875 106.003906 244.53125 C 105.988281 244.53125 105.976562 244.527344 105.964844 244.523438 C 105.992188 244.535156 106.011719 244.554688 106.019531 244.585938 Z M 105.882812 244.503906 C 105.867188 244.5 105.851562 244.496094 105.839844 244.492188 C 105.839844 244.496094 105.835938 244.492188 105.835938 244.496094 C 105.851562 244.496094 105.867188 244.5 105.882812 244.503906 Z M 113.015625 245.742188 C 113.015625 245.742188 113.019531 245.742188 113.019531 245.746094 C 113.023438 245.742188 113.023438 245.742188 113.027344 245.742188 C 113.023438 245.742188 113.019531 245.742188 113.015625 245.742188 Z M 112.730469 245.765625 C 112.730469 245.769531 112.726562 245.769531 112.722656 245.769531 C 112.726562 245.765625 112.730469 245.769531 112.730469 245.765625 Z M 110.070312 244.796875 C 110.074219 244.808594 110.078125 244.824219 110.078125 244.839844 C 110.085938 244.835938 110.09375 244.832031 110.101562 244.828125 C 110.089844 244.816406 110.082031 244.804688 110.070312 244.796875 Z M 110.570312 244.785156 C 110.59375 244.789062 110.621094 244.785156 110.644531 244.777344 C 110.644531 244.777344 110.644531 244.777344 110.644531 244.773438 C 110.617188 244.78125 110.59375 244.789062 110.570312 244.785156 Z M 110.570312 244.785156 " fill-opacity="1" fill-rule="nonzero"/></g></g></g></g><g clip-path="url(#f331a901ea)"><g clip-path="url(#9b3659dea4)"><g clip-path="url(#244db924cf)"><g clip-path="url(#2d763775ac)"><path fill="#ffffff" d="M 105.585938 244.03125 C 105.527344 244.015625 105.46875 243.996094 105.410156 243.984375 C 105.480469 243.953125 105.539062 243.972656 105.585938 244.03125 Z M 105.585938 244.03125 " fill-opacity="1" fill-rule="nonzero"/></g></g></g></g><path stroke-linecap="butt" transform="matrix(0.74987, 0.00605191, -0.00605275, 0.749976, 136.490312, 77.868268)" fill="none" stroke-linejoin="miter" d="M -0.00220337 1.998642 L 223.036361 2.000981 " stroke="#000000" stroke-width="4" stroke-opacity="1" stroke-miterlimit="4"/><path stroke-linecap="butt" transform="matrix(0.750617, -0.00364086, 0.00363783, 0.749991, 135.126205, 291.168432)" fill="none" stroke-linejoin="miter" d="M -0.000887235 1.999401 L 224.814281 2.002221 " stroke="#000000" stroke-width="4" stroke-opacity="1" stroke-miterlimit="4"/><g clip-path="url(#974b36023d)"><path fill="#38b6ff" d="M 266.714844 306.992188 L 275.207031 297.5 C 275.390625 297.296875 275.644531 297.183594 275.910156 297.183594 L 281.574219 297.183594 C 281.945312 297.183594 282.28125 297.402344 282.4375 297.746094 C 282.585938 298.089844 282.523438 298.488281 282.273438 298.765625 L 274.351562 307.628906 L 282.273438 316.484375 C 282.523438 316.765625 282.589844 317.164062 282.4375 317.507812 C 282.28125 317.851562 281.945312 318.070312 281.574219 318.070312 L 275.910156 318.070312 C 275.644531 318.070312 275.390625 317.953125 275.207031 317.757812 L 266.714844 308.261719 C 266.394531 307.902344 266.394531 307.351562 266.714844 306.992188 Z M 266.714844 306.992188 " fill-opacity="1" fill-rule="nonzero"/></g><g clip-path="url(#69e87325c4)"><path fill="#38b6ff" d="M 278.984375 306.992188 L 287.476562 297.5 C 287.660156 297.296875 287.910156 297.183594 288.179688 297.183594 L 293.839844 297.183594 C 294.214844 297.183594 294.550781 297.402344 294.703125 297.746094 C 294.855469 298.089844 294.792969 298.488281 294.542969 298.765625 L 286.617188 307.628906 L 294.542969 316.484375 C 294.792969 316.765625 294.855469 317.164062 294.703125 317.507812 C 294.550781 317.851562 294.214844 318.070312 293.839844 318.070312 L 288.179688 318.070312 C 287.910156 318.070312 287.660156 317.953125 287.476562 317.757812 L 278.984375 308.261719 C 278.660156 307.902344 278.660156 307.351562 278.984375 306.992188 Z M 278.984375 306.992188 " fill-opacity="1" fill-rule="nonzero"/></g><g clip-path="url(#0ae76bfb26)"><path fill="#38b6ff" d="M 229.589844 306.992188 L 238.082031 297.5 C 238.265625 297.296875 238.519531 297.183594 238.785156 297.183594 L 244.449219 297.183594 C 244.820312 297.183594 245.15625 297.402344 245.3125 297.746094 C 245.460938 298.089844 245.398438 298.488281 245.148438 298.765625 L 237.226562 307.628906 L 245.148438 316.484375 C 245.398438 316.765625 245.464844 317.164062 245.3125 317.507812 C 245.15625 317.851562 244.820312 318.070312 244.449219 318.070312 L 238.785156 318.070312 C 238.519531 318.070312 238.265625 317.953125 238.082031 317.757812 L 229.589844 308.261719 C 229.269531 307.902344 229.269531 307.351562 229.589844 306.992188 Z M 229.589844 306.992188 " fill-opacity="1" fill-rule="nonzero"/></g><g clip-path="url(#f5fc5b52ee)"><path fill="#38b6ff" d="M 241.859375 306.992188 L 250.351562 297.5 C 250.535156 297.296875 250.785156 297.183594 251.054688 297.183594 L 256.714844 297.183594 C 257.089844 297.183594 257.425781 297.402344 257.578125 297.746094 C 257.730469 298.089844 257.667969 298.488281 257.417969 298.765625 L 249.492188 307.628906 L 257.417969 316.484375 C 257.667969 316.765625 257.730469 317.164062 257.578125 317.507812 C 257.425781 317.851562 257.089844 318.070312 256.714844 318.070312 L 251.054688 318.070312 C 250.785156 318.070312 250.535156 317.953125 250.351562 317.757812 L 241.859375 308.261719 C 241.535156 307.902344 241.535156 307.351562 241.859375 306.992188 Z M 241.859375 306.992188 " fill-opacity="1" fill-rule="nonzero"/></g><g clip-path="url(#dc108427e9)"><path fill="#5ce1e6" d="M 192.464844 306.992188 L 200.957031 297.5 C 201.140625 297.296875 201.394531 297.183594 201.660156 297.183594 L 207.324219 297.183594 C 207.695312 297.183594 208.03125 297.402344 208.1875 297.746094 C 208.335938 298.089844 208.273438 298.488281 208.023438 298.765625 L 200.101562 307.628906 L 208.023438 316.484375 C 208.273438 316.765625 208.339844 317.164062 208.1875 317.507812 C 208.03125 317.851562 207.695312 318.070312 207.324219 318.070312 L 201.660156 318.070312 C 201.394531 318.070312 201.140625 317.953125 200.957031 317.757812 L 192.464844 308.261719 C 192.144531 307.902344 192.144531 307.351562 192.464844 306.992188 Z M 192.464844 306.992188 " fill-opacity="1" fill-rule="nonzero"/></g><g clip-path="url(#df833ce80d)"><path fill="#5ce1e6" d="M 204.734375 306.992188 L 213.226562 297.5 C 213.410156 297.296875 213.660156 297.183594 213.929688 297.183594 L 219.589844 297.183594 C 219.964844 297.183594 220.300781 297.402344 220.453125 297.746094 C 220.605469 298.089844 220.542969 298.488281 220.292969 298.765625 L 212.367188 307.628906 L 220.292969 316.484375 C 220.542969 316.765625 220.605469 317.164062 220.453125 317.507812 C 220.300781 317.851562 219.964844 318.070312 219.589844 318.070312 L 213.929688 318.070312 C 213.660156 318.070312 213.410156 317.953125 213.226562 317.757812 L 204.734375 308.261719 C 204.410156 307.902344 204.410156 307.351562 204.734375 306.992188 Z M 204.734375 306.992188 " fill-opacity="1" fill-rule="nonzero"/></g><g clip-path="url(#e3a44e049a)"><path fill="#38b6ff" d="M 155.339844 306.992188 L 163.832031 297.5 C 164.015625 297.296875 164.269531 297.183594 164.535156 297.183594 L 170.199219 297.183594 C 170.570312 297.183594 170.90625 297.402344 171.0625 297.746094 C 171.210938 298.089844 171.148438 298.488281 170.898438 298.765625 L 162.976562 307.628906 L 170.898438 316.484375 C 171.148438 316.765625 171.214844 317.164062 171.0625 317.507812 C 170.90625 317.851562 170.570312 318.070312 170.199219 318.070312 L 164.535156 318.070312 C 164.269531 318.070312 164.015625 317.953125 163.832031 317.757812 L 155.339844 308.261719 C 155.019531 307.902344 155.019531 307.351562 155.339844 306.992188 Z M 155.339844 306.992188 " fill-opacity="1" fill-rule="nonzero"/></g><g clip-path="url(#729b98a2a2)"><path fill="#38b6ff" d="M 167.609375 306.992188 L 176.101562 297.5 C 176.285156 297.296875 176.535156 297.183594 176.804688 297.183594 L 182.464844 297.183594 C 182.839844 297.183594 183.175781 297.402344 183.328125 297.746094 C 183.480469 298.089844 183.417969 298.488281 183.167969 298.765625 L 175.242188 307.628906 L 183.167969 316.484375 C 183.417969 316.765625 183.480469 317.164062 183.328125 317.507812 C 183.175781 317.851562 182.839844 318.070312 182.464844 318.070312 L 176.804688 318.070312 C 176.535156 318.070312 176.285156 317.953125 176.101562 317.757812 L 167.609375 308.261719 C 167.285156 307.902344 167.285156 307.351562 167.609375 306.992188 Z M 167.609375 306.992188 " fill-opacity="1" fill-rule="nonzero"/></g><g clip-path="url(#b58e969bb5)"><g clip-path="url(#5fc4c1f250)"><g clip-path="url(#69fda2873a)"><path fill="#38b6ff" d="M 118.210938 307.238281 L 126.535156 297.597656 C 126.710938 297.394531 126.960938 297.273438 127.230469 297.269531 L 132.890625 297.167969 C 133.261719 297.164062 133.605469 297.378906 133.765625 297.714844 C 133.921875 298.058594 133.867188 298.460938 133.621094 298.742188 L 125.855469 307.738281 L 133.933594 316.457031 C 134.1875 316.730469 134.261719 317.128906 134.113281 317.472656 C 133.964844 317.820312 133.632812 318.046875 133.261719 318.054688 L 127.597656 318.152344 C 127.332031 318.160156 127.078125 318.046875 126.890625 317.851562 L 118.230469 308.511719 C 117.902344 308.15625 117.894531 307.605469 118.210938 307.238281 Z M 118.210938 307.238281 " fill-opacity="1" fill-rule="nonzero"/></g></g></g><g clip-path="url(#e39b0d6a15)"><g clip-path="url(#1832c4c2b7)"><g clip-path="url(#7f1d4d6e01)"><path fill="#38b6ff" d="M 130.476562 307.023438 L 138.800781 297.378906 C 138.976562 297.175781 139.230469 297.058594 139.496094 297.054688 L 145.15625 296.953125 C 145.53125 296.945312 145.871094 297.160156 146.03125 297.5 C 146.1875 297.839844 146.132812 298.242188 145.886719 298.523438 L 138.121094 307.523438 L 146.203125 316.238281 C 146.457031 316.515625 146.527344 316.914062 146.378906 317.257812 C 146.234375 317.605469 145.898438 317.832031 145.527344 317.835938 L 139.867188 317.9375 C 139.597656 317.941406 139.34375 317.832031 139.160156 317.636719 L 130.5 308.292969 C 130.167969 307.9375 130.160156 307.386719 130.476562 307.023438 Z M 130.476562 307.023438 " fill-opacity="1" fill-rule="nonzero"/></g></g></g><g clip-path="url(#7f6b92847f)"><g clip-path="url(#dacb5d1783)"><g clip-path="url(#539b3b1955)"><path fill="#38b6ff" d="M 75.855469 286.085938 L 88.128906 282.679688 C 88.390625 282.609375 88.664062 282.648438 88.890625 282.796875 L 93.65625 285.851562 C 93.96875 286.050781 94.132812 286.421875 94.078125 286.789062 C 94.019531 287.160156 93.75 287.464844 93.390625 287.5625 L 81.9375 290.742188 L 83.828125 302.476562 C 83.886719 302.847656 83.722656 303.21875 83.410156 303.425781 C 83.097656 303.632812 82.691406 303.632812 82.378906 303.433594 L 77.613281 300.375 C 77.386719 300.230469 77.238281 299.996094 77.191406 299.734375 L 75.167969 287.15625 C 75.089844 286.679688 75.386719 286.214844 75.855469 286.085938 Z M 75.855469 286.085938 " fill-opacity="1" fill-rule="nonzero"/></g></g></g><g clip-path="url(#866df960e3)"><g clip-path="url(#883b5c8812)"><g clip-path="url(#13f0565b75)"><path fill="#38b6ff" d="M 86.179688 292.710938 L 98.457031 289.304688 C 98.714844 289.234375 98.992188 289.273438 99.214844 289.417969 L 103.984375 292.476562 C 104.296875 292.675781 104.460938 293.042969 104.40625 293.414062 C 104.347656 293.785156 104.078125 294.089844 103.71875 294.1875 L 92.265625 297.367188 L 94.152344 309.101562 C 94.210938 309.46875 94.050781 309.84375 93.738281 310.046875 C 93.421875 310.253906 93.019531 310.257812 92.707031 310.058594 L 87.941406 307 C 87.714844 306.855469 87.5625 306.621094 87.519531 306.355469 L 85.496094 293.78125 C 85.417969 293.300781 85.714844 292.839844 86.179688 292.710938 Z M 86.179688 292.710938 " fill-opacity="1" fill-rule="nonzero"/></g></g></g><g clip-path="url(#52b90a7e8e)"><g clip-path="url(#a1f966bc37)"><g clip-path="url(#544eaf8fcf)"><path fill="#5ce1e6" d="M 41.28125 262.910156 L 53.984375 261.964844 C 54.253906 261.945312 54.515625 262.039062 54.707031 262.222656 L 58.785156 266.152344 C 59.054688 266.410156 59.144531 266.800781 59.015625 267.15625 C 58.886719 267.507812 58.566406 267.753906 58.191406 267.777344 L 46.339844 268.664062 L 45.902344 280.539062 C 45.886719 280.914062 45.65625 281.246094 45.308594 281.386719 C 44.960938 281.527344 44.566406 281.453125 44.296875 281.195312 L 40.21875 277.269531 C 40.027344 277.082031 39.921875 276.824219 39.929688 276.554688 L 40.398438 263.824219 C 40.417969 263.339844 40.796875 262.945312 41.28125 262.910156 Z M 41.28125 262.910156 " fill-opacity="1" fill-rule="nonzero"/></g></g></g><g clip-path="url(#3e62b8a03f)"><g clip-path="url(#309795a534)"><g clip-path="url(#8eccceddaf)"><path fill="#5ce1e6" d="M 50.117188 271.421875 L 62.820312 270.472656 C 63.089844 270.453125 63.351562 270.546875 63.542969 270.734375 L 67.621094 274.660156 C 67.890625 274.917969 67.980469 275.3125 67.855469 275.664062 C 67.722656 276.015625 67.402344 276.261719 67.03125 276.289062 L 55.175781 277.171875 L 54.738281 289.050781 C 54.726562 289.425781 54.492188 289.757812 54.144531 289.898438 C 53.796875 290.039062 53.402344 289.964844 53.132812 289.707031 L 49.054688 285.777344 C 48.863281 285.59375 48.761719 285.332031 48.765625 285.066406 L 49.234375 272.335938 C 49.253906 271.851562 49.636719 271.453125 50.117188 271.421875 Z M 50.117188 271.421875 " fill-opacity="1" fill-rule="nonzero"/></g></g></g><g clip-path="url(#7303b7aa0c)"><g clip-path="url(#f5ba5d38db)"><g clip-path="url(#871ebfcb40)"><path fill="#38b6ff" d="M 22.734375 226.0625 L 35.210938 228.632812 C 35.476562 228.6875 35.699219 228.851562 35.835938 229.082031 L 38.679688 233.976562 C 38.867188 234.296875 38.847656 234.703125 38.628906 235.003906 C 38.40625 235.308594 38.03125 235.457031 37.664062 235.378906 L 26.023438 232.980469 L 22.347656 244.285156 C 22.230469 244.640625 21.917969 244.898438 21.542969 244.9375 C 21.171875 244.976562 20.808594 244.796875 20.625 244.472656 L 17.777344 239.578125 C 17.644531 239.347656 17.617188 239.070312 17.695312 238.8125 L 21.636719 226.699219 C 21.785156 226.238281 22.261719 225.960938 22.734375 226.0625 Z M 22.734375 226.0625 " fill-opacity="1" fill-rule="nonzero"/></g></g></g><g clip-path="url(#c11ca8243e)"><g clip-path="url(#1e1acc3ea4)"><g clip-path="url(#1d78b2f98c)"><path fill="#38b6ff" d="M 28.898438 236.667969 L 41.375 239.238281 C 41.640625 239.296875 41.867188 239.457031 42 239.6875 L 44.847656 244.582031 C 45.035156 244.90625 45.011719 245.308594 44.792969 245.613281 C 44.574219 245.914062 44.195312 246.0625 43.832031 245.984375 L 32.1875 243.585938 L 28.511719 254.890625 C 28.394531 255.246094 28.082031 255.503906 27.710938 255.542969 C 27.335938 255.582031 26.976562 255.402344 26.789062 255.082031 L 23.941406 250.183594 C 23.808594 249.953125 23.78125 249.675781 23.859375 249.421875 L 27.800781 237.304688 C 27.949219 236.847656 28.425781 236.570312 28.898438 236.667969 Z M 28.898438 236.667969 " fill-opacity="1" fill-rule="nonzero"/></g></g></g><g clip-path="url(#495df39eae)"><path fill="#38b6ff" d="M 20.015625 172.027344 L 29.507812 180.519531 C 29.710938 180.699219 29.824219 180.953125 29.824219 181.222656 L 29.824219 186.882812 C 29.824219 187.257812 29.605469 187.59375 29.261719 187.746094 C 28.917969 187.898438 28.515625 187.835938 28.242188 187.585938 L 19.378906 179.660156 L 10.523438 187.585938 C 10.242188 187.835938 9.84375 187.898438 9.5 187.746094 C 9.15625 187.59375 8.9375 187.257812 8.9375 186.882812 L 8.9375 181.222656 C 8.9375 180.953125 9.050781 180.699219 9.25 180.519531 L 18.746094 172.027344 C 19.105469 171.703125 19.65625 171.703125 20.015625 172.027344 Z M 20.015625 172.027344 " fill-opacity="1" fill-rule="nonzero"/></g><g clip-path="url(#903b486210)"><path fill="#38b6ff" d="M 20.015625 184.292969 L 29.507812 192.789062 C 29.710938 192.96875 29.824219 193.222656 29.824219 193.488281 L 29.824219 199.152344 C 29.824219 199.523438 29.605469 199.863281 29.261719 200.015625 C 28.917969 200.164062 28.515625 200.105469 28.242188 199.855469 L 19.378906 191.929688 L 10.523438 199.855469 C 10.242188 200.105469 9.84375 200.167969 9.5 200.015625 C 9.15625 199.863281 8.9375 199.523438 8.9375 199.152344 L 8.9375 193.488281 C 8.9375 193.222656 9.050781 192.96875 9.25 192.789062 L 18.746094 184.292969 C 19.105469 183.972656 19.65625 183.972656 20.015625 184.292969 Z M 20.015625 184.292969 " fill-opacity="1" fill-rule="nonzero"/></g><g clip-path="url(#bea35e47f6)"><g clip-path="url(#90ffb36631)"><g clip-path="url(#7be9c61c99)"><path fill="#38b6ff" d="M 38.21875 122.101562 L 41.183594 134.492188 C 41.246094 134.753906 41.195312 135.027344 41.042969 135.246094 L 37.816406 139.902344 C 37.605469 140.207031 37.230469 140.359375 36.863281 140.289062 C 36.496094 140.21875 36.203125 139.941406 36.117188 139.578125 L 33.347656 128.015625 L 21.554688 129.484375 C 21.183594 129.53125 20.816406 129.355469 20.621094 129.035156 C 20.425781 128.714844 20.4375 128.308594 20.648438 128.003906 L 23.875 123.351562 C 24.027344 123.128906 24.269531 122.988281 24.53125 122.953125 L 37.175781 121.378906 C 37.65625 121.320312 38.105469 121.632812 38.21875 122.101562 Z M 38.21875 122.101562 " fill-opacity="1" fill-rule="nonzero"/></g></g></g><g clip-path="url(#1cf0f57665)"><g clip-path="url(#d1e0095b27)"><g clip-path="url(#8930bd3211)"><path fill="#38b6ff" d="M 31.230469 132.1875 L 34.195312 144.574219 C 34.257812 144.839844 34.207031 145.109375 34.054688 145.332031 L 30.828125 149.984375 C 30.617188 150.289062 30.246094 150.441406 29.875 150.375 C 29.507812 150.300781 29.214844 150.023438 29.128906 149.660156 L 26.359375 138.101562 L 14.566406 139.566406 C 14.195312 139.613281 13.828125 139.4375 13.632812 139.117188 C 13.4375 138.796875 13.449219 138.394531 13.664062 138.085938 L 16.886719 133.433594 C 17.039062 133.214844 17.28125 133.070312 17.546875 133.035156 L 30.1875 131.460938 C 30.667969 131.402344 31.121094 131.714844 31.230469 132.1875 Z M 31.230469 132.1875 " fill-opacity="1" fill-rule="nonzero"/></g></g></g><g clip-path="url(#6955c3328f)"><g clip-path="url(#15315f2fba)"><g clip-path="url(#41eee3803d)"><path fill="#5ce1e6" d="M 65.816406 90.09375 L 65.914062 102.832031 C 65.917969 103.101562 65.804688 103.355469 65.609375 103.535156 L 61.417969 107.34375 C 61.140625 107.59375 60.742188 107.660156 60.402344 107.507812 C 60.058594 107.355469 59.835938 107.015625 59.832031 106.644531 L 59.742188 94.757812 L 47.917969 93.53125 C 47.546875 93.492188 47.230469 93.238281 47.113281 92.882812 C 46.996094 92.523438 47.097656 92.136719 47.371094 91.886719 L 51.5625 88.078125 C 51.761719 87.898438 52.027344 87.8125 52.292969 87.835938 L 64.964844 89.152344 C 65.445312 89.203125 65.816406 89.609375 65.816406 90.09375 Z M 65.816406 90.09375 " fill-opacity="1" fill-rule="nonzero"/></g></g></g><g clip-path="url(#01eab5cce6)"><g clip-path="url(#a1b2403f29)"><g clip-path="url(#83e5156a66)"><path fill="#5ce1e6" d="M 56.738281 98.34375 L 56.835938 111.082031 C 56.835938 111.351562 56.726562 111.605469 56.527344 111.785156 L 52.335938 115.59375 C 52.0625 115.84375 51.664062 115.90625 51.320312 115.757812 C 50.976562 115.605469 50.753906 115.265625 50.753906 114.894531 L 50.660156 103.007812 L 38.839844 101.78125 C 38.464844 101.742188 38.148438 101.488281 38.03125 101.132812 C 37.914062 100.773438 38.015625 100.382812 38.292969 100.132812 L 42.480469 96.328125 C 42.679688 96.148438 42.945312 96.0625 43.210938 96.085938 L 55.882812 97.402344 C 56.363281 97.453125 56.734375 97.859375 56.738281 98.34375 Z M 56.738281 98.34375 " fill-opacity="1" fill-rule="nonzero"/></g></g></g><g clip-path="url(#b771fdf3c0)"><g clip-path="url(#930807b1b5)"><g clip-path="url(#4ed692fece)"><path fill="#38b6ff" d="M 100.488281 72.246094 L 97.054688 84.511719 C 96.980469 84.773438 96.800781 84.988281 96.5625 85.105469 L 91.480469 87.601562 C 91.148438 87.765625 90.746094 87.71875 90.457031 87.480469 C 90.171875 87.238281 90.050781 86.851562 90.152344 86.492188 L 93.355469 75.042969 L 82.335938 70.589844 C 81.988281 70.449219 81.753906 70.117188 81.742188 69.746094 C 81.726562 69.367188 81.933594 69.023438 82.265625 68.859375 L 87.347656 66.359375 C 87.589844 66.242188 87.867188 66.234375 88.117188 66.332031 L 99.925781 71.105469 C 100.375 71.285156 100.617188 71.78125 100.488281 72.246094 Z M 100.488281 72.246094 " fill-opacity="1" fill-rule="nonzero"/></g></g></g><g clip-path="url(#71f5bb74e0)"><g clip-path="url(#41f6bc1d9e)"><g clip-path="url(#22ad7d5856)"><path fill="#38b6ff" d="M 89.476562 77.65625 L 86.042969 89.925781 C 85.96875 90.183594 85.792969 90.398438 85.550781 90.515625 L 80.472656 93.015625 C 80.136719 93.179688 79.738281 93.128906 79.449219 92.890625 C 79.160156 92.648438 79.039062 92.261719 79.140625 91.902344 L 82.347656 80.457031 L 71.324219 76.003906 C 70.980469 75.863281 70.746094 75.53125 70.730469 75.15625 C 70.71875 74.78125 70.921875 74.433594 71.257812 74.269531 L 76.339844 71.773438 C 76.578125 71.652344 76.855469 71.648438 77.105469 71.742188 L 88.917969 76.515625 C 89.367188 76.699219 89.609375 77.191406 89.476562 77.65625 Z M 89.476562 77.65625 " fill-opacity="1" fill-rule="nonzero"/></g></g></g><g clip-path="url(#92c9672767)"><path fill="#38b6ff" d="M 146.195312 68.148438 L 137.703125 77.640625 C 137.519531 77.84375 137.265625 77.957031 137 77.957031 L 131.335938 77.957031 C 130.964844 77.957031 130.628906 77.738281 130.472656 77.394531 C 130.324219 77.050781 130.386719 76.652344 130.636719 76.375 L 138.558594 67.515625 L 130.636719 58.65625 C 130.386719 58.375 130.320312 57.976562 130.472656 57.632812 C 130.628906 57.289062 130.964844 57.070312 131.335938 57.070312 L 137 57.070312 C 137.265625 57.070312 137.519531 57.1875 137.703125 57.382812 L 146.195312 66.878906 C 146.515625 67.238281 146.515625 67.789062 146.195312 68.148438 Z M 146.195312 68.148438 " fill-opacity="1" fill-rule="nonzero"/></g><g clip-path="url(#6bfca7f130)"><path fill="#38b6ff" d="M 133.925781 68.148438 L 125.433594 77.640625 C 125.25 77.84375 125 77.957031 124.730469 77.957031 L 119.070312 77.957031 C 118.695312 77.957031 118.359375 77.738281 118.207031 77.394531 C 118.054688 77.050781 118.117188 76.652344 118.367188 76.375 L 126.292969 67.515625 L 118.367188 58.65625 C 118.117188 58.375 118.054688 57.976562 118.207031 57.632812 C 118.359375 57.289062 118.695312 57.070312 119.070312 57.070312 L 124.730469 57.070312 C 125 57.070312 125.25 57.1875 125.433594 57.382812 L 133.925781 66.878906 C 134.25 67.238281 134.25 67.789062 133.925781 68.148438 Z M 133.925781 68.148438 " fill-opacity="1" fill-rule="nonzero"/></g><g clip-path="url(#7763abef2e)"><g clip-path="url(#e671dd2091)"><g clip-path="url(#334f075a85)"><path fill="#38b6ff" d="M 182.71875 68.148438 L 173.941406 77.382812 C 173.753906 77.578125 173.5 77.6875 173.230469 77.675781 L 167.570312 77.507812 C 167.199219 77.496094 166.871094 77.265625 166.726562 76.917969 C 166.585938 76.570312 166.660156 76.171875 166.917969 75.902344 L 175.105469 67.285156 L 167.453125 58.191406 C 167.210938 57.90625 167.160156 57.503906 167.320312 57.167969 C 167.484375 56.828125 167.828125 56.617188 168.199219 56.628906 L 173.859375 56.800781 C 174.128906 56.808594 174.378906 56.929688 174.554688 57.132812 L 182.757812 66.878906 C 183.066406 67.25 183.050781 67.800781 182.71875 68.148438 Z M 182.71875 68.148438 " fill-opacity="1" fill-rule="nonzero"/></g></g></g><g clip-path="url(#c64faa36c1)"><g clip-path="url(#0cc261d33b)"><g clip-path="url(#5b9037d0d3)"><path fill="#38b6ff" d="M 170.457031 67.78125 L 161.679688 77.015625 C 161.492188 77.210938 161.238281 77.316406 160.96875 77.308594 L 155.308594 77.136719 C 154.9375 77.125 154.605469 76.894531 154.464844 76.550781 C 154.324219 76.203125 154.398438 75.804688 154.65625 75.535156 L 162.84375 66.917969 L 155.1875 57.824219 C 154.949219 57.539062 154.894531 57.136719 155.058594 56.796875 C 155.222656 56.457031 155.566406 56.25 155.9375 56.261719 L 161.597656 56.429688 C 161.867188 56.4375 162.113281 56.5625 162.289062 56.765625 L 170.492188 66.511719 C 170.804688 66.878906 170.789062 67.429688 170.457031 67.78125 Z M 170.457031 67.78125 " fill-opacity="1" fill-rule="nonzero"/></g></g></g><g clip-path="url(#debab802d3)"><g clip-path="url(#b92b166cde)"><g clip-path="url(#2bfe4d50f1)"><path fill="#38b6ff" d="M 294.371094 68.148438 L 285.59375 77.382812 C 285.40625 77.578125 285.152344 77.6875 284.882812 77.675781 L 279.222656 77.507812 C 278.851562 77.496094 278.523438 77.265625 278.378906 76.917969 C 278.238281 76.570312 278.3125 76.171875 278.570312 75.902344 L 286.757812 67.285156 L 279.105469 58.191406 C 278.863281 57.90625 278.8125 57.503906 278.972656 57.167969 C 279.136719 56.828125 279.480469 56.617188 279.851562 56.628906 L 285.511719 56.800781 C 285.78125 56.808594 286.03125 56.929688 286.207031 57.132812 L 294.410156 66.878906 C 294.71875 67.25 294.703125 67.800781 294.371094 68.148438 Z M 294.371094 68.148438 " fill-opacity="1" fill-rule="nonzero"/></g></g></g><g clip-path="url(#3c2fad563c)"><g clip-path="url(#6407607b78)"><g clip-path="url(#ad1b2ac757)"><path fill="#38b6ff" d="M 282.109375 67.78125 L 273.332031 77.015625 C 273.144531 77.210938 272.890625 77.316406 272.621094 77.308594 L 266.960938 77.136719 C 266.589844 77.125 266.257812 76.894531 266.117188 76.550781 C 265.976562 76.203125 266.050781 75.804688 266.308594 75.535156 L 274.496094 66.917969 L 266.839844 57.824219 C 266.601562 57.539062 266.546875 57.136719 266.710938 56.796875 C 266.875 56.457031 267.21875 56.25 267.589844 56.261719 L 273.25 56.429688 C 273.519531 56.4375 273.765625 56.5625 273.941406 56.765625 L 282.144531 66.511719 C 282.457031 66.878906 282.441406 67.429688 282.109375 67.78125 Z M 282.109375 67.78125 " fill-opacity="1" fill-rule="nonzero"/></g></g></g><g clip-path="url(#a019469845)"><g clip-path="url(#a0265d068a)"><g clip-path="url(#59b7afdccf)"><path fill="#38b6ff" d="M 257.246094 68.148438 L 248.46875 77.382812 C 248.28125 77.578125 248.027344 77.6875 247.757812 77.675781 L 242.097656 77.507812 C 241.726562 77.496094 241.398438 77.265625 241.253906 76.917969 C 241.113281 76.570312 241.1875 76.171875 241.445312 75.902344 L 249.632812 67.285156 L 241.980469 58.191406 C 241.738281 57.90625 241.6875 57.503906 241.847656 57.167969 C 242.011719 56.828125 242.355469 56.617188 242.726562 56.628906 L 248.386719 56.800781 C 248.65625 56.808594 248.90625 56.929688 249.082031 57.132812 L 257.285156 66.878906 C 257.59375 67.25 257.578125 67.800781 257.246094 68.148438 Z M 257.246094 68.148438 " fill-opacity="1" fill-rule="nonzero"/></g></g></g><g clip-path="url(#ed4f4dabe0)"><g clip-path="url(#6ec2e9c53b)"><g clip-path="url(#ddcc1de36e)"><path fill="#38b6ff" d="M 244.984375 67.78125 L 236.207031 77.015625 C 236.019531 77.210938 235.765625 77.316406 235.496094 77.308594 L 229.835938 77.136719 C 229.464844 77.125 229.132812 76.894531 228.992188 76.550781 C 228.851562 76.203125 228.925781 75.804688 229.183594 75.535156 L 237.371094 66.917969 L 229.714844 57.824219 C 229.476562 57.539062 229.421875 57.136719 229.585938 56.796875 C 229.75 56.457031 230.09375 56.25 230.464844 56.261719 L 236.125 56.429688 C 236.394531 56.4375 236.640625 56.5625 236.816406 56.765625 L 245.019531 66.511719 C 245.332031 66.878906 245.316406 67.429688 244.984375 67.78125 Z M 244.984375 67.78125 " fill-opacity="1" fill-rule="nonzero"/></g></g></g><g clip-path="url(#a58199b078)"><g clip-path="url(#b31a0daaf3)"><g clip-path="url(#d4e071df8d)"><path fill="#5ce1e6" d="M 220.730469 68.148438 L 211.953125 77.382812 C 211.765625 77.578125 211.511719 77.6875 211.242188 77.675781 L 205.582031 77.507812 C 205.210938 77.496094 204.878906 77.265625 204.738281 76.917969 C 204.597656 76.570312 204.671875 76.171875 204.929688 75.902344 L 213.117188 67.285156 L 205.460938 58.191406 C 205.222656 57.90625 205.167969 57.503906 205.332031 57.167969 C 205.496094 56.828125 205.839844 56.617188 206.210938 56.628906 L 211.871094 56.800781 C 212.140625 56.808594 212.386719 56.929688 212.5625 57.132812 L 220.765625 66.878906 C 221.078125 67.25 221.0625 67.800781 220.730469 68.148438 Z M 220.730469 68.148438 " fill-opacity="1" fill-rule="nonzero"/></g></g></g><g clip-path="url(#5f636a083f)"><g clip-path="url(#81fe7e6c93)"><g clip-path="url(#7e143b2304)"><path fill="#5ce1e6" d="M 208.464844 67.78125 L 199.691406 77.015625 C 199.503906 77.210938 199.246094 77.316406 198.980469 77.308594 L 193.320312 77.136719 C 192.949219 77.125 192.617188 76.894531 192.476562 76.550781 C 192.335938 76.203125 192.410156 75.804688 192.664062 75.535156 L 200.855469 66.917969 L 193.199219 57.824219 C 192.957031 57.539062 192.90625 57.136719 193.070312 56.796875 C 193.234375 56.457031 193.578125 56.25 193.949219 56.261719 L 199.609375 56.429688 C 199.875 56.4375 200.125 56.5625 200.300781 56.765625 L 208.503906 66.511719 C 208.816406 66.878906 208.800781 67.429688 208.464844 67.78125 Z M 208.464844 67.78125 " fill-opacity="1" fill-rule="nonzero"/></g></g></g></svg>