<svg xmlns="http://www.w3.org/2000/svg" xmlns:xlink="http://www.w3.org/1999/xlink" width="450" zoomAndPan="magnify" viewBox="0 0 337.5 374.999991" height="500" preserveAspectRatio="xMidYMid meet" version="1.0"><defs><clipPath id="9aa71dcdb0"><path d="M 0 52.777344 L 303.75 52.777344 L 303.75 323 L 0 323 Z M 0 52.777344 " clip-rule="nonzero"/></clipPath><clipPath id="a10888c965"><path d="M 7.917969 142.824219 C 3.136719 156.667969 0 172.40625 0 187.851562 C 0 203.296875 2.6875 218.15625 7.46875 231.855469 C 7.621094 232.144531 7.621094 232.4375 7.769531 232.730469 C 26.890625 284.164062 77.390625 322.046875 135.65625 322.777344 L 303.75 322.777344 L 303.75 52.777344 L 135.78125 52.777344 C 77.09375 53.503906 26.59375 90.808594 7.917969 142.824219 " clip-rule="nonzero"/></clipPath><clipPath id="bd5a31e849"><path d="M 0 52.777344 L 303.75 52.777344 L 303.75 322.777344 L 0 322.777344 Z M 0 52.777344 " clip-rule="nonzero"/></clipPath><clipPath id="be3fac3b42"><path d="M 7.917969 142.824219 C 3.136719 156.667969 0 172.40625 0 187.851562 C 0 203.296875 2.6875 218.15625 7.46875 231.855469 C 7.621094 232.144531 7.621094 232.4375 7.769531 232.730469 C 26.890625 284.164062 77.390625 322.046875 135.65625 322.777344 L 303.75 322.777344 L 303.75 52.777344 L 135.78125 52.777344 C 77.09375 53.503906 26.59375 90.808594 7.917969 142.824219 " clip-rule="nonzero"/></clipPath><clipPath id="c3d932eec2"><path d="M 32 77 L 249 77 L 249 294 L 32 294 Z M 32 77 " clip-rule="nonzero"/></clipPath><clipPath id="3dfa022afe"><path d="M -12.09375 192.769531 L 133.511719 32.832031 L 293.445312 178.4375 L 147.839844 338.375 Z M -12.09375 192.769531 " clip-rule="nonzero"/></clipPath><clipPath id="06776c7737"><path d="M 60.609375 112.90625 C 20.457031 157.011719 23.660156 225.320312 67.765625 265.472656 C 111.871094 305.628906 180.179688 302.425781 220.332031 258.316406 C 260.488281 214.210938 257.285156 145.90625 213.179688 105.75 C 169.070312 65.597656 100.765625 68.800781 60.609375 112.90625 " clip-rule="nonzero"/></clipPath><clipPath id="52e3203106"><path d="M 32 77 L 249 77 L 249 294 L 32 294 Z M 32 77 " clip-rule="nonzero"/></clipPath><clipPath id="7a63e63289"><path d="M -12.09375 192.769531 L 133.316406 33.042969 L 293.039062 178.457031 L 147.628906 338.179688 Z M -12.09375 192.769531 " clip-rule="nonzero"/></clipPath><clipPath id="380bf8fd68"><path d="M -12.09375 192.769531 L 135.371094 30.785156 L 297.355469 178.253906 L 149.886719 340.234375 Z M -12.09375 192.769531 " clip-rule="nonzero"/></clipPath><clipPath id="f9df092ec9"><path d="M 60.609375 112.90625 C 20.457031 157.011719 23.660156 225.320312 67.765625 265.472656 C 111.871094 305.628906 180.179688 302.425781 220.332031 258.316406 C 260.488281 214.210938 257.285156 145.90625 213.179688 105.75 C 169.070312 65.597656 100.765625 68.800781 60.609375 112.90625 " clip-rule="nonzero"/></clipPath><clipPath id="afab3e2cb8"><path d="M 165 143 L 203 143 L 203 175 L 165 175 Z M 165 143 " clip-rule="nonzero"/></clipPath><clipPath id="d9eaf17db8"><path d="M 193.203125 143.019531 L 202.320312 158.730469 L 174.707031 174.753906 L 165.589844 159.042969 Z M 193.203125 143.019531 " clip-rule="nonzero"/></clipPath><clipPath id="081add6d97"><path d="M 193.203125 143.019531 L 202.121094 158.386719 L 174.675781 174.308594 L 165.761719 158.945312 Z M 193.203125 143.019531 " clip-rule="nonzero"/></clipPath><clipPath id="f1c5b5342e"><path d="M 132 215 L 151 215 L 151 248 L 132 248 Z M 132 215 " clip-rule="nonzero"/></clipPath><clipPath id="d443fe53fe"><path d="M 132.742188 215.828125 L 150.902344 215.988281 L 150.625 247.910156 L 132.460938 247.75 Z M 132.742188 215.828125 " clip-rule="nonzero"/></clipPath><clipPath id="788f074920"><path d="M 132.742188 215.828125 L 150.507812 215.984375 L 150.226562 247.710938 L 132.460938 247.554688 Z M 132.742188 215.828125 " clip-rule="nonzero"/></clipPath><clipPath id="a8420ce408"><path d="M 99 158 L 184 158 L 184 232 L 99 232 Z M 99 158 " clip-rule="nonzero"/></clipPath><clipPath id="6243e85685"><path d="M 78.117188 194.976562 L 120.894531 121.292969 L 184.878906 158.441406 L 142.105469 232.121094 Z M 78.117188 194.976562 " clip-rule="nonzero"/></clipPath><clipPath id="4d6030f9d1"><path d="M 99.339844 158.417969 L 183.933594 158.644531 L 141.488281 231.761719 L 99.339844 158.417969 " clip-rule="nonzero"/></clipPath><clipPath id="c8376b8418"><path d="M 88 146 L 125 146 L 125 179 L 88 179 Z M 88 146 " clip-rule="nonzero"/></clipPath><clipPath id="00ff848f4f"><path d="M 88.054688 162.140625 L 97.171875 146.429688 L 124.78125 162.457031 L 115.664062 178.167969 Z M 88.054688 162.140625 " clip-rule="nonzero"/></clipPath><clipPath id="f5e1dcb8cb"><path d="M 88.054688 162.140625 L 96.972656 146.773438 L 124.414062 162.703125 L 115.492188 178.070312 Z M 88.054688 162.140625 " clip-rule="nonzero"/></clipPath><clipPath id="a2bb776de2"><path d="M 46 116 L 103 116 L 103 172 L 46 172 Z M 46 116 " clip-rule="nonzero"/></clipPath><clipPath id="19ebd1e820"><path d="M 83.949219 182.371094 L 36.5 153.347656 L 65.527344 105.898438 L 112.972656 134.925781 Z M 83.949219 182.371094 " clip-rule="nonzero"/></clipPath><clipPath id="6fdb289884"><path d="M 60.222656 167.859375 C 73.328125 175.875 90.445312 171.75 98.460938 158.648438 C 106.476562 145.546875 102.351562 128.425781 89.25 120.410156 C 76.148438 112.394531 59.027344 116.519531 51.011719 129.621094 C 42.996094 142.722656 47.121094 159.84375 60.222656 167.859375 " clip-rule="nonzero"/></clipPath><clipPath id="01d9a9587f"><path d="M 47 116 L 103 116 L 103 172 L 47 172 Z M 47 116 " clip-rule="nonzero"/></clipPath><clipPath id="41cd6dc1a7"><path d="M 83.949219 182.371094 L 36.605469 153.410156 L 65.566406 106.066406 L 112.910156 135.027344 Z M 83.949219 182.371094 " clip-rule="nonzero"/></clipPath><clipPath id="398c4c5cec"><path d="M 83.949219 182.371094 L 36.605469 153.410156 L 65.566406 106.066406 L 112.910156 135.027344 Z M 83.949219 182.371094 " clip-rule="nonzero"/></clipPath><clipPath id="ae5d599d07"><path d="M 60.277344 167.890625 C 73.351562 175.886719 90.429688 171.773438 98.429688 158.699219 C 106.425781 145.625 102.3125 128.542969 89.238281 120.546875 C 76.164062 112.550781 59.082031 116.664062 51.085938 129.738281 C 43.085938 142.8125 47.203125 159.894531 60.277344 167.890625 " clip-rule="nonzero"/></clipPath><clipPath id="1b45b25a9d"><path d="M 113 233 L 170 233 L 170 290 L 113 290 Z M 113 233 " clip-rule="nonzero"/></clipPath><clipPath id="9c74f61867"><path d="M 113.515625 289.480469 L 113.667969 233.859375 L 169.289062 234.015625 L 169.136719 289.636719 Z M 113.515625 289.480469 " clip-rule="nonzero"/></clipPath><clipPath id="7aa134916f"><path d="M 113.589844 261.671875 C 113.546875 277.03125 125.964844 289.515625 141.324219 289.558594 C 156.683594 289.601562 169.171875 277.183594 169.210938 261.824219 C 169.253906 246.464844 156.839844 233.980469 141.480469 233.9375 C 126.117188 233.894531 113.632812 246.3125 113.589844 261.671875 " clip-rule="nonzero"/></clipPath><clipPath id="b42f5b8087"><path d="M 113 234 L 170 234 L 170 290 L 113 290 Z M 113 234 " clip-rule="nonzero"/></clipPath><clipPath id="e207371fad"><path d="M 113.515625 289.480469 L 113.667969 233.980469 L 169.167969 234.136719 L 169.011719 289.636719 Z M 113.515625 289.480469 " clip-rule="nonzero"/></clipPath><clipPath id="0b50cad2a0"><path d="M 113.515625 289.480469 L 113.667969 233.980469 L 169.167969 234.136719 L 169.011719 289.636719 Z M 113.515625 289.480469 " clip-rule="nonzero"/></clipPath><clipPath id="70d381e5a6"><path d="M 113.589844 261.730469 C 113.546875 277.058594 125.9375 289.515625 141.261719 289.558594 C 156.589844 289.601562 169.046875 277.210938 169.089844 261.886719 C 169.132812 246.558594 156.742188 234.101562 141.417969 234.058594 C 126.089844 234.015625 113.632812 246.40625 113.589844 261.730469 " clip-rule="nonzero"/></clipPath><clipPath id="4f489e4c31"><path d="M 178 118 L 235 118 L 235 174 L 178 174 Z M 178 118 " clip-rule="nonzero"/></clipPath><clipPath id="65b51d52a5"><path d="M 215.640625 184.175781 L 168.191406 155.148438 L 197.21875 107.703125 L 244.664062 136.726562 Z M 215.640625 184.175781 " clip-rule="nonzero"/></clipPath><clipPath id="589f48a4c9"><path d="M 191.914062 169.664062 C 205.015625 177.679688 222.136719 173.554688 230.152344 160.453125 C 238.167969 147.347656 234.042969 130.230469 220.941406 122.214844 C 207.839844 114.199219 190.71875 118.324219 182.703125 131.425781 C 174.6875 144.527344 178.8125 161.648438 191.914062 169.664062 " clip-rule="nonzero"/></clipPath><clipPath id="859eace047"><path d="M 178 118 L 235 118 L 235 174 L 178 174 Z M 178 118 " clip-rule="nonzero"/></clipPath><clipPath id="1975bbf2bf"><path d="M 215.640625 184.175781 L 168.296875 155.214844 L 197.257812 107.871094 L 244.601562 136.832031 Z M 215.640625 184.175781 " clip-rule="nonzero"/></clipPath><clipPath id="d37eb1722b"><path d="M 215.640625 184.175781 L 168.296875 155.214844 L 197.257812 107.871094 L 244.601562 136.832031 Z M 215.640625 184.175781 " clip-rule="nonzero"/></clipPath><clipPath id="c8be1ceb42"><path d="M 191.96875 169.695312 C 205.039062 177.691406 222.121094 173.578125 230.121094 160.503906 C 238.117188 147.429688 234.003906 130.347656 220.929688 122.351562 C 207.855469 114.351562 190.773438 118.46875 182.777344 131.542969 C 174.777344 144.613281 178.894531 161.695312 191.96875 169.695312 " clip-rule="nonzero"/></clipPath><clipPath id="afcc7a9e47"><path d="M 67 137 L 82 137 L 82 152 L 67 152 Z M 67 137 " clip-rule="nonzero"/></clipPath><clipPath id="acfc99d754"><path d="M 65.199219 146.671875 L 72.207031 134.597656 L 84.28125 141.609375 L 77.273438 153.679688 Z M 65.199219 146.671875 " clip-rule="nonzero"/></clipPath><clipPath id="fdddd6cffa"><path d="M 68.703125 140.636719 C 66.769531 143.96875 67.902344 148.242188 71.234375 150.175781 C 74.570312 152.113281 78.839844 150.976562 80.777344 147.644531 C 82.710938 144.308594 81.578125 140.039062 78.246094 138.105469 C 74.910156 136.167969 70.640625 137.300781 68.703125 140.636719 " clip-rule="nonzero"/></clipPath><clipPath id="7b87845c00"><path d="M 134 254 L 149 254 L 149 269 L 134 269 Z M 134 254 " clip-rule="nonzero"/></clipPath><clipPath id="8eb8f52f16"><path d="M 134.441406 254.753906 L 148.398438 254.792969 L 148.359375 268.753906 L 134.402344 268.714844 Z M 134.441406 254.753906 " clip-rule="nonzero"/></clipPath><clipPath id="ba14e30e3e"><path d="M 141.421875 254.773438 C 137.566406 254.761719 134.433594 257.878906 134.421875 261.734375 C 134.410156 265.589844 137.527344 268.722656 141.382812 268.734375 C 145.238281 268.742188 148.371094 265.628906 148.378906 261.773438 C 148.390625 257.917969 145.273438 254.785156 141.421875 254.773438 " clip-rule="nonzero"/></clipPath><clipPath id="d0438c53a7"><path d="M 198 138 L 213 138 L 213 153 L 198 153 Z M 198 138 " clip-rule="nonzero"/></clipPath><clipPath id="b7d34f2072"><path d="M 196.355469 147.585938 L 203.363281 135.511719 L 215.4375 142.519531 L 208.425781 154.59375 Z M 196.355469 147.585938 " clip-rule="nonzero"/></clipPath><clipPath id="103bf0bef0"><path d="M 199.859375 141.546875 C 197.925781 144.882812 199.058594 149.152344 202.390625 151.089844 C 205.726562 153.023438 209.996094 151.890625 211.933594 148.558594 C 213.867188 145.222656 212.734375 140.953125 209.398438 139.015625 C 206.066406 137.082031 201.792969 138.214844 199.859375 141.546875 " clip-rule="nonzero"/></clipPath><clipPath id="48fe9d98a1"><path d="M 119 112 L 166 112 L 166 128 L 119 128 Z M 119 112 " clip-rule="nonzero"/></clipPath><clipPath id="424e08f81f"><path d="M 166.449219 123.515625 L 119.375 127.570312 L 118.214844 114.121094 L 165.292969 110.066406 Z M 166.449219 123.515625 " clip-rule="nonzero"/></clipPath><clipPath id="f8d8bbd853"><path d="M 119.1875 127.585938 L 166.261719 123.53125 L 165.105469 110.082031 L 118.027344 114.136719 Z M 119.1875 127.585938 " clip-rule="nonzero"/></clipPath><clipPath id="cc686b30a5"><path d="M 119.1875 127.585938 L 166.261719 123.53125 L 165.105469 110.082031 L 118.027344 114.136719 Z M 119.1875 127.585938 " clip-rule="nonzero"/></clipPath><clipPath id="d4facbb1da"><path d="M 125 120 L 126 120 L 126 121 L 125 121 Z M 125 120 " clip-rule="nonzero"/></clipPath><clipPath id="5881a151fe"><path d="M 166.449219 123.515625 L 119.375 127.570312 L 118.214844 114.121094 L 165.292969 110.066406 Z M 166.449219 123.515625 " clip-rule="nonzero"/></clipPath><clipPath id="2f1da03007"><path d="M 119.1875 127.585938 L 166.261719 123.53125 L 165.105469 110.082031 L 118.027344 114.136719 Z M 119.1875 127.585938 " clip-rule="nonzero"/></clipPath><clipPath id="1b139720e5"><path d="M 119.1875 127.585938 L 166.261719 123.53125 L 165.105469 110.082031 L 118.027344 114.136719 Z M 119.1875 127.585938 " clip-rule="nonzero"/></clipPath><clipPath id="ec9568f82c"><path d="M 185 193 L 210 193 L 210 236 L 185 236 Z M 185 193 " clip-rule="nonzero"/></clipPath><clipPath id="958e7fa8d1"><path d="M 182.160156 233.546875 L 205.941406 192.71875 L 217.605469 199.511719 L 193.824219 240.339844 Z M 182.160156 233.546875 " clip-rule="nonzero"/></clipPath><clipPath id="d3519e6ac7"><path d="M 206.035156 192.554688 L 182.253906 233.382812 L 193.917969 240.179688 L 217.699219 199.351562 Z M 206.035156 192.554688 " clip-rule="nonzero"/></clipPath><clipPath id="4bd67ef4a2"><path d="M 206.035156 192.554688 L 182.253906 233.382812 L 193.917969 240.179688 L 217.699219 199.351562 Z M 206.035156 192.554688 " clip-rule="nonzero"/></clipPath><clipPath id="9003c0d332"><path d="M 207 201 L 208 201 L 208 203 L 207 203 Z M 207 201 " clip-rule="nonzero"/></clipPath><clipPath id="cbe566fdb6"><path d="M 182.160156 233.546875 L 205.941406 192.71875 L 217.605469 199.511719 L 193.824219 240.339844 Z M 182.160156 233.546875 " clip-rule="nonzero"/></clipPath><clipPath id="e5a12a8277"><path d="M 206.035156 192.554688 L 182.253906 233.382812 L 193.917969 240.179688 L 217.699219 199.351562 Z M 206.035156 192.554688 " clip-rule="nonzero"/></clipPath><clipPath id="fc32be345c"><path d="M 206.035156 192.554688 L 182.253906 233.382812 L 193.917969 240.179688 L 217.699219 199.351562 Z M 206.035156 192.554688 " clip-rule="nonzero"/></clipPath><clipPath id="fccafb35b1"><path d="M 72 196 L 100 196 L 100 238 L 72 238 Z M 72 196 " clip-rule="nonzero"/></clipPath><clipPath id="a3fa281b44"><path d="M 80.316406 194.171875 L 100.308594 236.984375 L 88.074219 242.695312 L 68.082031 199.886719 Z M 80.316406 194.171875 " clip-rule="nonzero"/></clipPath><clipPath id="dc5d66746b"><path d="M 100.386719 237.15625 L 80.394531 194.34375 L 68.164062 200.054688 L 88.15625 242.867188 Z M 100.386719 237.15625 " clip-rule="nonzero"/></clipPath><clipPath id="b45169d1c1"><path d="M 100.386719 237.15625 L 80.394531 194.34375 L 68.164062 200.054688 L 88.15625 242.867188 Z M 100.386719 237.15625 " clip-rule="nonzero"/></clipPath><clipPath id="4aa243c5db"><path d="M 91 233 L 92 233 L 92 234 L 91 234 Z M 91 233 " clip-rule="nonzero"/></clipPath><clipPath id="670649f2ec"><path d="M 80.316406 194.171875 L 100.308594 236.984375 L 88.074219 242.695312 L 68.082031 199.886719 Z M 80.316406 194.171875 " clip-rule="nonzero"/></clipPath><clipPath id="723235ff2d"><path d="M 100.386719 237.15625 L 80.394531 194.34375 L 68.164062 200.054688 L 88.15625 242.867188 Z M 100.386719 237.15625 " clip-rule="nonzero"/></clipPath><clipPath id="94bc054ccc"><path d="M 100.386719 237.15625 L 80.394531 194.34375 L 68.164062 200.054688 L 88.15625 242.867188 Z M 100.386719 237.15625 " clip-rule="nonzero"/></clipPath><clipPath id="7d67fa5954"><path d="M 266.625 297.128906 L 283 297.128906 L 283 318.128906 L 266.625 318.128906 Z M 266.625 297.128906 " clip-rule="nonzero"/></clipPath><clipPath id="1a26e67e19"><path d="M 278 297.128906 L 294.785156 297.128906 L 294.785156 318.128906 L 278 318.128906 Z M 278 297.128906 " clip-rule="nonzero"/></clipPath><clipPath id="b923344e99"><path d="M 229.5 297.128906 L 246 297.128906 L 246 318.128906 L 229.5 318.128906 Z M 229.5 297.128906 " clip-rule="nonzero"/></clipPath><clipPath id="03aa5d06cb"><path d="M 241 297.128906 L 257.660156 297.128906 L 257.660156 318.128906 L 241 318.128906 Z M 241 297.128906 " clip-rule="nonzero"/></clipPath><clipPath id="06c2b04d1a"><path d="M 192.375 297.128906 L 209 297.128906 L 209 318.128906 L 192.375 318.128906 Z M 192.375 297.128906 " clip-rule="nonzero"/></clipPath><clipPath id="e0dab8d379"><path d="M 204 297.128906 L 220.535156 297.128906 L 220.535156 318.128906 L 204 318.128906 Z M 204 297.128906 " clip-rule="nonzero"/></clipPath><clipPath id="1d10cb3269"><path d="M 155.25 297.128906 L 172 297.128906 L 172 318.128906 L 155.25 318.128906 Z M 155.25 297.128906 " clip-rule="nonzero"/></clipPath><clipPath id="f1d04b1b23"><path d="M 167 297.128906 L 183.410156 297.128906 L 183.410156 318.128906 L 167 318.128906 Z M 167 297.128906 " clip-rule="nonzero"/></clipPath><clipPath id="215d2b1339"><path d="M 117 297 L 135 297 L 135 319 L 117 319 Z M 117 297 " clip-rule="nonzero"/></clipPath><clipPath id="3c4116b5e3"><path d="M 117.945312 297.378906 L 146.441406 296.875 L 146.8125 317.871094 L 118.316406 318.375 Z M 117.945312 297.378906 " clip-rule="nonzero"/></clipPath><clipPath id="6ac7ebe352"><path d="M 146.101562 296.878906 L 117.605469 297.382812 L 117.976562 318.378906 L 146.472656 317.875 Z M 146.101562 296.878906 " clip-rule="nonzero"/></clipPath><clipPath id="61dd56745c"><path d="M 130 296 L 147 296 L 147 318 L 130 318 Z M 130 296 " clip-rule="nonzero"/></clipPath><clipPath id="c80db801cd"><path d="M 117.945312 297.378906 L 146.441406 296.875 L 146.8125 317.871094 L 118.316406 318.375 Z M 117.945312 297.378906 " clip-rule="nonzero"/></clipPath><clipPath id="85bb2ab208"><path d="M 146.101562 296.878906 L 117.605469 297.382812 L 117.976562 318.378906 L 146.472656 317.875 Z M 146.101562 296.878906 " clip-rule="nonzero"/></clipPath><clipPath id="cf717ef02c"><path d="M 75 282 L 95 282 L 95 304 L 75 304 Z M 75 282 " clip-rule="nonzero"/></clipPath><clipPath id="d8957ffa9c"><path d="M 81.105469 277.734375 L 105.09375 293.121094 L 93.757812 310.796875 L 69.765625 295.410156 Z M 81.105469 277.734375 " clip-rule="nonzero"/></clipPath><clipPath id="99a75484dc"><path d="M 104.808594 292.9375 L 80.816406 277.550781 L 69.480469 295.226562 L 93.46875 310.613281 Z M 104.808594 292.9375 " clip-rule="nonzero"/></clipPath><clipPath id="1d53e79213"><path d="M 85 289 L 105 289 L 105 311 L 85 311 Z M 85 289 " clip-rule="nonzero"/></clipPath><clipPath id="0d03cb92fa"><path d="M 81.105469 277.734375 L 105.09375 293.121094 L 93.757812 310.796875 L 69.765625 295.410156 Z M 81.105469 277.734375 " clip-rule="nonzero"/></clipPath><clipPath id="b8c96105d6"><path d="M 104.808594 292.9375 L 80.816406 277.550781 L 69.480469 295.226562 L 93.46875 310.613281 Z M 104.808594 292.9375 " clip-rule="nonzero"/></clipPath><clipPath id="4ddeb397e2"><path d="M 39 261 L 60 261 L 60 282 L 39 282 Z M 39 261 " clip-rule="nonzero"/></clipPath><clipPath id="f9645493a4"><path d="M 48.058594 255.742188 L 68.585938 275.511719 L 54.019531 290.636719 L 33.492188 270.867188 Z M 48.058594 255.742188 " clip-rule="nonzero"/></clipPath><clipPath id="831b162c92"><path d="M 68.339844 275.277344 L 47.8125 255.503906 L 33.246094 270.632812 L 53.773438 290.402344 Z M 68.339844 275.277344 " clip-rule="nonzero"/></clipPath><clipPath id="3fa8e0532c"><path d="M 48 270 L 68 270 L 68 290 L 48 290 Z M 48 270 " clip-rule="nonzero"/></clipPath><clipPath id="085fcc5155"><path d="M 48.058594 255.742188 L 68.585938 275.511719 L 54.019531 290.636719 L 33.492188 270.867188 Z M 48.058594 255.742188 " clip-rule="nonzero"/></clipPath><clipPath id="9396c0cefb"><path d="M 68.339844 275.277344 L 47.8125 255.503906 L 33.246094 270.632812 L 53.773438 290.402344 Z M 68.339844 275.277344 " clip-rule="nonzero"/></clipPath><clipPath id="c483bbbd93"><path d="M 17 226 L 39 226 L 39 245 L 17 245 Z M 17 226 " clip-rule="nonzero"/></clipPath><clipPath id="0bb72cf0c3"><path d="M 31.21875 221.023438 L 45.539062 245.664062 L 27.386719 256.21875 L 13.0625 231.578125 Z M 31.21875 221.023438 " clip-rule="nonzero"/></clipPath><clipPath id="7201260b2c"><path d="M 45.371094 245.371094 L 31.046875 220.730469 L 12.890625 231.285156 L 27.214844 255.925781 Z M 45.371094 245.371094 " clip-rule="nonzero"/></clipPath><clipPath id="771ee72dfe"><path d="M 23 236 L 45 236 L 45 256 L 23 256 Z M 23 236 " clip-rule="nonzero"/></clipPath><clipPath id="861a1e4ba5"><path d="M 31.21875 221.023438 L 45.539062 245.664062 L 27.386719 256.21875 L 13.0625 231.578125 Z M 31.21875 221.023438 " clip-rule="nonzero"/></clipPath><clipPath id="035e0c7341"><path d="M 45.371094 245.371094 L 31.046875 220.730469 L 12.890625 231.285156 L 27.214844 255.925781 Z M 45.371094 245.371094 " clip-rule="nonzero"/></clipPath><clipPath id="46a580e152"><path d="M 8.878906 171.9375 L 29.878906 171.9375 L 29.878906 188 L 8.878906 188 Z M 8.878906 171.9375 " clip-rule="nonzero"/></clipPath><clipPath id="bdc14016b2"><path d="M 8.878906 184 L 29.878906 184 L 29.878906 200.097656 L 8.878906 200.097656 Z M 8.878906 184 " clip-rule="nonzero"/></clipPath><clipPath id="3f5df7e930"><path d="M 20 121 L 42 121 L 42 141 L 20 141 Z M 20 121 " clip-rule="nonzero"/></clipPath><clipPath id="aac6e265f4"><path d="M 46.378906 127.648438 L 30.144531 151.074219 L 12.882812 139.109375 L 29.117188 115.6875 Z M 46.378906 127.648438 " clip-rule="nonzero"/></clipPath><clipPath id="30155af4f0"><path d="M 30.339844 150.792969 L 46.574219 127.367188 L 29.3125 115.40625 L 13.078125 138.832031 Z M 30.339844 150.792969 " clip-rule="nonzero"/></clipPath><clipPath id="5464c9e694"><path d="M 13 131 L 35 131 L 35 151 L 13 151 Z M 13 131 " clip-rule="nonzero"/></clipPath><clipPath id="31209d86ba"><path d="M 46.378906 127.648438 L 30.144531 151.074219 L 12.882812 139.109375 L 29.117188 115.6875 Z M 46.378906 127.648438 " clip-rule="nonzero"/></clipPath><clipPath id="9c08e9d049"><path d="M 30.339844 150.792969 L 46.574219 127.367188 L 29.3125 115.40625 L 13.078125 138.832031 Z M 30.339844 150.792969 " clip-rule="nonzero"/></clipPath><clipPath id="40f404a68c"><path d="M 47 87 L 66 87 L 66 108 L 47 108 Z M 47 87 " clip-rule="nonzero"/></clipPath><clipPath id="12c29b594c"><path d="M 72.519531 97.332031 L 51.425781 116.5 L 37.304688 100.957031 L 58.398438 81.789062 Z M 72.519531 97.332031 " clip-rule="nonzero"/></clipPath><clipPath id="14c885e53c"><path d="M 51.675781 116.269531 L 72.769531 97.105469 L 58.648438 81.5625 L 37.554688 100.726562 Z M 51.675781 116.269531 " clip-rule="nonzero"/></clipPath><clipPath id="6ba6ef2c58"><path d="M 37 96 L 57 96 L 57 116 L 37 116 Z M 37 96 " clip-rule="nonzero"/></clipPath><clipPath id="a5178f240c"><path d="M 72.519531 97.332031 L 51.425781 116.5 L 37.304688 100.957031 L 58.398438 81.789062 Z M 72.519531 97.332031 " clip-rule="nonzero"/></clipPath><clipPath id="faecfab231"><path d="M 51.675781 116.269531 L 72.769531 97.105469 L 58.648438 81.5625 L 37.554688 100.726562 Z M 51.675781 116.269531 " clip-rule="nonzero"/></clipPath><clipPath id="7cc7c6de63"><path d="M 81 66 L 101 66 L 101 88 L 81 88 Z M 81 66 " clip-rule="nonzero"/></clipPath><clipPath id="042b4243da"><path d="M 104.921875 81.058594 L 79.34375 93.632812 L 70.078125 74.785156 L 95.65625 62.214844 Z M 104.921875 81.058594 " clip-rule="nonzero"/></clipPath><clipPath id="5f0112efb6"><path d="M 79.648438 93.480469 L 105.226562 80.910156 L 95.960938 62.0625 L 70.382812 74.636719 Z M 79.648438 93.480469 " clip-rule="nonzero"/></clipPath><clipPath id="e675006d54"><path d="M 70 71 L 90 71 L 90 94 L 70 94 Z M 70 71 " clip-rule="nonzero"/></clipPath><clipPath id="7fd09bfe55"><path d="M 104.921875 81.058594 L 79.34375 93.632812 L 70.078125 74.785156 L 95.65625 62.214844 Z M 104.921875 81.058594 " clip-rule="nonzero"/></clipPath><clipPath id="2ab362e788"><path d="M 79.648438 93.480469 L 105.226562 80.910156 L 95.960938 62.0625 L 70.382812 74.636719 Z M 79.648438 93.480469 " clip-rule="nonzero"/></clipPath><clipPath id="c894ffd5cc"><path d="M 130 57.011719 L 146.285156 57.011719 L 146.285156 78 L 130 78 Z M 130 57.011719 " clip-rule="nonzero"/></clipPath><clipPath id="3b20576865"><path d="M 118.125 57.011719 L 135 57.011719 L 135 78 L 118.125 78 Z M 118.125 57.011719 " clip-rule="nonzero"/></clipPath><clipPath id="716d6623fb"><path d="M 166 56 L 183 56 L 183 78 L 166 78 Z M 166 56 " clip-rule="nonzero"/></clipPath><clipPath id="88ad4a186a"><path d="M 182.511719 78.011719 L 154.023438 77.15625 L 154.65625 56.164062 L 183.144531 57.023438 Z M 182.511719 78.011719 " clip-rule="nonzero"/></clipPath><clipPath id="1d19dfd732"><path d="M 154.363281 77.164062 L 182.851562 78.023438 L 183.484375 57.035156 L 154.996094 56.175781 Z M 154.363281 77.164062 " clip-rule="nonzero"/></clipPath><clipPath id="c116cbace3"><path d="M 154 56 L 171 56 L 171 78 L 154 78 Z M 154 56 " clip-rule="nonzero"/></clipPath><clipPath id="56524d66e9"><path d="M 182.511719 78.011719 L 154.023438 77.15625 L 154.65625 56.164062 L 183.144531 57.023438 Z M 182.511719 78.011719 " clip-rule="nonzero"/></clipPath><clipPath id="2a3a201fca"><path d="M 154.363281 77.164062 L 182.851562 78.023438 L 183.484375 57.035156 L 154.996094 56.175781 Z M 154.363281 77.164062 " clip-rule="nonzero"/></clipPath><clipPath id="415c3367d8"><path d="M 278 56 L 295 56 L 295 78 L 278 78 Z M 278 56 " clip-rule="nonzero"/></clipPath><clipPath id="e363db25e6"><path d="M 294.164062 78.011719 L 265.675781 77.15625 L 266.308594 56.164062 L 294.796875 57.023438 Z M 294.164062 78.011719 " clip-rule="nonzero"/></clipPath><clipPath id="1bc870f16a"><path d="M 266.015625 77.164062 L 294.503906 78.023438 L 295.136719 57.035156 L 266.648438 56.175781 Z M 266.015625 77.164062 " clip-rule="nonzero"/></clipPath><clipPath id="2a76610bf0"><path d="M 266 56 L 283 56 L 283 78 L 266 78 Z M 266 56 " clip-rule="nonzero"/></clipPath><clipPath id="e27d65ecd0"><path d="M 294.164062 78.011719 L 265.675781 77.15625 L 266.308594 56.164062 L 294.796875 57.023438 Z M 294.164062 78.011719 " clip-rule="nonzero"/></clipPath><clipPath id="92ad5715c2"><path d="M 266.015625 77.164062 L 294.503906 78.023438 L 295.136719 57.035156 L 266.648438 56.175781 Z M 266.015625 77.164062 " clip-rule="nonzero"/></clipPath><clipPath id="734501ff2f"><path d="M 241 56 L 258 56 L 258 78 L 241 78 Z M 241 56 " clip-rule="nonzero"/></clipPath><clipPath id="42256d2336"><path d="M 257.039062 78.011719 L 228.550781 77.15625 L 229.183594 56.164062 L 257.671875 57.023438 Z M 257.039062 78.011719 " clip-rule="nonzero"/></clipPath><clipPath id="44c3bccf10"><path d="M 228.890625 77.164062 L 257.378906 78.023438 L 258.011719 57.035156 L 229.523438 56.175781 Z M 228.890625 77.164062 " clip-rule="nonzero"/></clipPath><clipPath id="b6f992d1ab"><path d="M 228 56 L 246 56 L 246 78 L 228 78 Z M 228 56 " clip-rule="nonzero"/></clipPath><clipPath id="18adf05ac7"><path d="M 257.039062 78.011719 L 228.550781 77.15625 L 229.183594 56.164062 L 257.671875 57.023438 Z M 257.039062 78.011719 " clip-rule="nonzero"/></clipPath><clipPath id="7f7126597a"><path d="M 228.890625 77.164062 L 257.378906 78.023438 L 258.011719 57.035156 L 229.523438 56.175781 Z M 228.890625 77.164062 " clip-rule="nonzero"/></clipPath><clipPath id="5b51635206"><path d="M 204 56 L 221 56 L 221 78 L 204 78 Z M 204 56 " clip-rule="nonzero"/></clipPath><clipPath id="799aefd69c"><path d="M 220.523438 78.011719 L 192.035156 77.15625 L 192.667969 56.164062 L 221.15625 57.023438 Z M 220.523438 78.011719 " clip-rule="nonzero"/></clipPath><clipPath id="c5c340fac4"><path d="M 192.375 77.164062 L 220.863281 78.023438 L 221.496094 57.035156 L 193.007812 56.175781 Z M 192.375 77.164062 " clip-rule="nonzero"/></clipPath><clipPath id="2830183f55"><path d="M 192 56 L 209 56 L 209 78 L 192 78 Z M 192 56 " clip-rule="nonzero"/></clipPath><clipPath id="d0fe646e2f"><path d="M 220.523438 78.011719 L 192.035156 77.15625 L 192.667969 56.164062 L 221.15625 57.023438 Z M 220.523438 78.011719 " clip-rule="nonzero"/></clipPath><clipPath id="6ee6ce4cd0"><path d="M 192.375 77.164062 L 220.863281 78.023438 L 221.496094 57.035156 L 193.007812 56.175781 Z M 192.375 77.164062 " clip-rule="nonzero"/></clipPath></defs><g clip-path="url(#9aa71dcdb0)"><g clip-path="url(#a10888c965)"><path fill="#919191" d="M 303.75 52.777344 L 303.75 323.039062 L -0.132812 323.039062 L -0.132812 52.777344 Z M 303.75 52.777344 " fill-opacity="1" fill-rule="nonzero"/></g></g><g clip-path="url(#bd5a31e849)"><g clip-path="url(#be3fac3b42)"><path stroke-linecap="butt" transform="matrix(0.000000000000000046, 0.75, -0.75, 0.000000000000000046, 303.749959, 52.777278)" fill="none" stroke-linejoin="miter" d="M 120.062594 394.442673 C 138.520928 400.817674 159.505305 404.999965 180.099056 404.999965 C 200.692807 404.999965 220.505308 401.416632 238.770934 395.041632 C 239.15635 394.838507 239.546975 394.838507 239.9376 394.64059 C 308.515729 369.145797 359.026148 301.81246 360.000106 224.124956 L 360.000106 -0.0000552182 L 0.000088039 -0.0000552182 L 0.000088039 223.95829 C 0.968838 302.208294 50.708424 369.54163 120.062594 394.442673 " stroke="#000000" stroke-width="4" stroke-opacity="1" stroke-miterlimit="4"/></g></g><g clip-path="url(#c3d932eec2)"><g clip-path="url(#3dfa022afe)"><g clip-path="url(#06776c7737)"><path fill="#707070" d="M -12.09375 192.769531 L 133.136719 33.242188 L 292.664062 178.472656 L 147.433594 338 Z M -12.09375 192.769531 " fill-opacity="1" fill-rule="nonzero"/></g></g></g><g clip-path="url(#52e3203106)"><g clip-path="url(#7a63e63289)"><g clip-path="url(#380bf8fd68)"><g clip-path="url(#f9df092ec9)"><path stroke-linecap="butt" transform="matrix(0.504901, -0.554594, 0.554594, 0.504901, -12.095127, 192.767731)" fill="none" stroke-linejoin="miter" d="M 143.998795 -0.00118422 C 64.472372 -0.0000302206 -0.00104089 64.472032 0.000113106 143.998456 C -0.00258425 223.528386 64.469478 288.001798 143.999753 287.997138 C 223.529683 287.999836 287.999244 223.53128 288.001942 144.001349 C 287.997281 64.471074 223.528726 0.00151313 143.998795 -0.00118422 " stroke="#000000" stroke-width="8" stroke-opacity="1" stroke-miterlimit="4"/></g></g></g></g><g clip-path="url(#afab3e2cb8)"><g clip-path="url(#d9eaf17db8)"><g clip-path="url(#081add6d97)"><path fill="#ffde59" d="M 193.203125 143.019531 L 202.042969 158.253906 L 174.429688 174.277344 L 165.589844 159.042969 Z M 193.203125 143.019531 " fill-opacity="1" fill-rule="nonzero"/></g></g></g><g clip-path="url(#f1c5b5342e)"><g clip-path="url(#d443fe53fe)"><g clip-path="url(#788f074920)"><path fill="#ffde59" d="M 132.742188 215.828125 L 150.355469 215.980469 L 150.074219 247.90625 L 132.460938 247.75 Z M 132.742188 215.828125 " fill-opacity="1" fill-rule="nonzero"/></g></g></g><g clip-path="url(#a8420ce408)"><g clip-path="url(#6243e85685)"><g clip-path="url(#4d6030f9d1)"><path fill="#ffde59" d="M 78.117188 194.976562 L 120.519531 121.941406 L 183.859375 158.710938 L 141.460938 231.746094 Z M 78.117188 194.976562 " fill-opacity="1" fill-rule="nonzero"/></g></g></g><g clip-path="url(#c8376b8418)"><g clip-path="url(#00ff848f4f)"><g clip-path="url(#f5e1dcb8cb)"><path fill="#ffde59" d="M 88.054688 162.140625 L 96.898438 146.90625 L 124.507812 162.933594 L 115.664062 178.167969 Z M 88.054688 162.140625 " fill-opacity="1" fill-rule="nonzero"/></g></g></g><g clip-path="url(#a2bb776de2)"><g clip-path="url(#19ebd1e820)"><g clip-path="url(#6fdb289884)"><path fill="#ffde59" d="M 83.949219 182.371094 L 36.5 153.347656 L 65.527344 105.898438 L 112.972656 134.925781 Z M 83.949219 182.371094 " fill-opacity="1" fill-rule="nonzero"/></g></g></g><g clip-path="url(#01d9a9587f)"><g clip-path="url(#41cd6dc1a7)"><g clip-path="url(#398c4c5cec)"><g clip-path="url(#ae5d599d07)"><path fill="#000000" d="M 61.839844 165.335938 C 66.578125 168.234375 71.699219 169.40625 77.210938 168.855469 L 77.808594 174.8125 C 70.960938 175.5 64.597656 174.042969 58.714844 170.445312 Z M 79.851562 168.445312 C 85.289062 167.300781 89.816406 164.644531 93.4375 160.472656 L 97.960938 164.394531 C 93.460938 169.582031 87.835938 172.882812 81.085938 174.304688 Z M 95.074219 158.363281 C 95.351562 157.964844 95.621094 157.554688 95.875 157.136719 C 98.5 152.851562 99.707031 148.207031 99.496094 143.207031 L 105.476562 142.957031 C 105.738281 149.167969 104.238281 154.9375 100.984375 160.261719 C 100.667969 160.777344 100.335938 161.285156 99.992188 161.78125 Z M 99.238281 140.542969 C 98.410156 135.042969 96.019531 130.367188 92.066406 126.507812 L 96.246094 122.222656 C 101.160156 127.015625 104.132812 132.824219 105.160156 139.652344 Z M 90.066406 124.761719 C 89.304688 124.164062 88.507812 123.609375 87.675781 123.101562 C 83.828125 120.746094 79.664062 119.535156 75.183594 119.460938 L 75.277344 113.476562 C 80.851562 113.566406 86.023438 115.070312 90.800781 117.992188 C 91.832031 118.625 92.816406 119.308594 93.761719 120.050781 Z M 72.515625 119.5625 C 66.980469 120.070312 62.171875 122.183594 58.089844 125.90625 L 54.058594 121.476562 C 59.128906 116.855469 65.097656 114.230469 71.964844 113.601562 Z M 56.214844 127.8125 C 55.257812 128.894531 54.398438 130.054688 53.640625 131.300781 C 51.550781 134.710938 50.359375 138.398438 50.066406 142.355469 L 44.09375 141.910156 C 44.460938 136.988281 45.941406 132.410156 48.53125 128.175781 C 49.472656 126.636719 50.539062 125.191406 51.722656 123.847656 Z M 50.011719 145.023438 C 50.195312 150.574219 52.027344 155.496094 55.507812 159.796875 L 50.851562 163.5625 C 46.53125 158.222656 44.257812 152.109375 44.027344 145.222656 Z M 57.300781 161.78125 C 58.664062 163.136719 60.179688 164.320312 61.839844 165.335938 L 58.714844 170.445312 C 56.65625 169.1875 54.78125 167.714844 53.082031 166.03125 Z M 57.300781 161.78125 " fill-opacity="1" fill-rule="nonzero"/></g></g></g></g><g clip-path="url(#1b45b25a9d)"><g clip-path="url(#9c74f61867)"><g clip-path="url(#7aa134916f)"><path fill="#ffde59" d="M 113.515625 289.480469 L 113.667969 233.859375 L 169.289062 234.015625 L 169.136719 289.636719 Z M 113.515625 289.480469 " fill-opacity="1" fill-rule="nonzero"/></g></g></g><g clip-path="url(#b42f5b8087)"><g clip-path="url(#e207371fad)"><g clip-path="url(#0b50cad2a0)"><g clip-path="url(#70d381e5a6)"><path fill="#000000" d="M 116.585938 261.742188 C 116.570312 267.292969 118.226562 272.28125 121.5625 276.703125 L 116.785156 280.308594 C 112.640625 274.816406 110.578125 268.621094 110.597656 261.722656 Z M 123.285156 278.746094 C 127.089844 282.800781 131.710938 285.289062 137.15625 286.214844 L 136.152344 292.117188 C 129.386719 290.964844 123.640625 287.875 118.921875 282.84375 Z M 139.808594 286.519531 C 140.292969 286.546875 140.78125 286.5625 141.273438 286.566406 C 146.296875 286.578125 150.894531 285.199219 155.054688 282.421875 L 158.378906 287.402344 C 153.203125 290.851562 147.496094 292.570312 141.253906 292.550781 C 140.648438 292.550781 140.046875 292.53125 139.441406 292.496094 Z M 157.199219 280.820312 C 161.46875 277.253906 164.222656 272.78125 165.464844 267.398438 L 171.296875 268.742188 C 169.753906 275.433594 166.335938 280.992188 161.039062 285.414062 Z M 165.921875 264.78125 C 166.035156 263.820312 166.09375 262.851562 166.097656 261.878906 C 166.109375 257.367188 164.980469 253.179688 162.714844 249.3125 L 167.882812 246.285156 C 170.699219 251.089844 172.097656 256.292969 172.082031 261.894531 C 172.082031 263.101562 172.007812 264.300781 171.867188 265.492188 Z M 161.242188 247.082031 C 157.933594 242.621094 153.628906 239.609375 148.332031 238.050781 L 150.019531 232.308594 C 156.601562 234.242188 161.945312 237.980469 166.054688 243.519531 Z M 145.726562 237.441406 C 144.304688 237.1875 142.867188 237.058594 141.410156 237.054688 C 137.410156 237.042969 133.640625 237.9375 130.105469 239.742188 L 127.386719 234.410156 C 131.78125 232.167969 136.460938 231.050781 141.425781 231.066406 C 143.230469 231.070312 145.015625 231.230469 146.78125 231.546875 Z M 127.796875 241.082031 C 123.152344 244.125 119.894531 248.246094 118.03125 253.449219 L 112.394531 251.429688 C 114.710938 244.964844 118.753906 239.847656 124.519531 236.070312 Z M 117.265625 256.015625 C 116.816406 257.886719 116.589844 259.796875 116.585938 261.742188 L 110.597656 261.722656 C 110.605469 259.3125 110.886719 256.945312 111.441406 254.617188 Z M 117.265625 256.015625 " fill-opacity="1" fill-rule="nonzero"/></g></g></g></g><g clip-path="url(#4f489e4c31)"><g clip-path="url(#65b51d52a5)"><g clip-path="url(#589f48a4c9)"><path fill="#ffde59" d="M 215.640625 184.175781 L 168.191406 155.148438 L 197.21875 107.703125 L 244.664062 136.726562 Z M 215.640625 184.175781 " fill-opacity="1" fill-rule="nonzero"/></g></g></g><g clip-path="url(#859eace047)"><g clip-path="url(#1975bbf2bf)"><g clip-path="url(#d37eb1722b)"><g clip-path="url(#c8be1ceb42)"><path fill="#000000" d="M 193.527344 167.140625 C 198.265625 170.039062 203.390625 171.210938 208.898438 170.660156 L 209.5 176.617188 C 202.652344 177.304688 196.289062 175.847656 190.40625 172.25 Z M 211.542969 170.25 C 216.980469 169.105469 221.507812 166.445312 225.128906 162.273438 L 229.652344 166.199219 C 225.152344 171.382812 219.527344 174.6875 212.777344 176.109375 Z M 226.765625 160.167969 C 227.042969 159.769531 227.3125 159.359375 227.566406 158.941406 C 230.1875 154.652344 231.394531 150.011719 231.1875 145.011719 L 237.167969 144.761719 C 237.429688 150.972656 235.929688 156.742188 232.671875 162.066406 C 232.359375 162.582031 232.027344 163.089844 231.683594 163.585938 Z M 230.929688 142.347656 C 230.101562 136.847656 227.710938 132.171875 223.753906 128.3125 L 227.9375 124.027344 C 232.851562 128.820312 235.824219 134.628906 236.851562 141.453125 Z M 221.757812 126.5625 C 220.996094 125.964844 220.199219 125.414062 219.367188 124.90625 C 215.519531 122.550781 211.355469 121.335938 206.875 121.265625 L 206.96875 115.277344 C 212.539062 115.367188 217.714844 116.875 222.492188 119.796875 C 223.519531 120.425781 224.507812 121.113281 225.453125 121.851562 Z M 204.203125 121.367188 C 198.671875 121.875 193.863281 123.988281 189.78125 127.707031 L 185.746094 123.28125 C 190.820312 118.660156 196.789062 116.035156 203.65625 115.402344 Z M 187.902344 129.613281 C 186.949219 130.695312 186.089844 131.859375 185.328125 133.105469 C 183.242188 136.515625 182.050781 140.199219 181.757812 144.160156 L 175.785156 143.714844 C 176.152344 138.792969 177.632812 134.214844 180.222656 129.980469 C 181.164062 128.4375 182.230469 126.996094 183.414062 125.652344 Z M 181.703125 146.824219 C 181.886719 152.378906 183.71875 157.300781 187.195312 161.597656 L 182.542969 165.367188 C 178.222656 160.027344 175.949219 153.914062 175.71875 147.027344 Z M 188.988281 163.582031 C 190.355469 164.941406 191.871094 166.125 193.527344 167.140625 L 190.40625 172.25 C 188.347656 170.988281 186.46875 169.519531 184.773438 167.835938 Z M 188.988281 163.582031 " fill-opacity="1" fill-rule="nonzero"/></g></g></g></g><g clip-path="url(#afcc7a9e47)"><g clip-path="url(#acfc99d754)"><g clip-path="url(#fdddd6cffa)"><path fill="#707070" d="M 65.199219 146.671875 L 72.207031 134.597656 L 84.28125 141.609375 L 77.273438 153.679688 Z M 65.199219 146.671875 " fill-opacity="1" fill-rule="nonzero"/></g></g></g><g clip-path="url(#7b87845c00)"><g clip-path="url(#8eb8f52f16)"><g clip-path="url(#ba14e30e3e)"><path fill="#707070" d="M 134.441406 254.753906 L 148.398438 254.792969 L 148.359375 268.753906 L 134.402344 268.714844 Z M 134.441406 254.753906 " fill-opacity="1" fill-rule="nonzero"/></g></g></g><g clip-path="url(#d0438c53a7)"><g clip-path="url(#b7d34f2072)"><g clip-path="url(#103bf0bef0)"><path fill="#707070" d="M 196.355469 147.585938 L 203.363281 135.511719 L 215.4375 142.519531 L 208.425781 154.59375 Z M 196.355469 147.585938 " fill-opacity="1" fill-rule="nonzero"/></g></g></g><g clip-path="url(#48fe9d98a1)"><g clip-path="url(#424e08f81f)"><g clip-path="url(#f8d8bbd853)"><g clip-path="url(#cc686b30a5)"><path fill="#ffffff" d="M 119.910156 127.128906 C 119.882812 127.097656 119.878906 127.0625 119.890625 127.019531 C 119.785156 126.917969 119.578125 127.023438 119.523438 126.824219 C 119.179688 126.535156 119.269531 126.195312 119.429688 125.859375 C 119.882812 124.910156 120.480469 124.054688 121.125 123.238281 C 123.445312 120.3125 126.265625 118.011719 129.519531 116.195312 C 135.195312 113.023438 141.257812 112.132812 147.617188 112.894531 C 150.566406 113.246094 153.402344 114.117188 156.195312 115.117188 C 157.839844 115.703125 159.441406 116.390625 161.058594 117.039062 C 161.109375 117.085938 161.152344 117.136719 161.203125 117.183594 C 161.277344 117.183594 161.367188 117.203125 161.425781 117.167969 C 161.425781 117.167969 161.425781 117.167969 161.429688 117.164062 C 161.476562 117.140625 161.4375 117.070312 161.378906 117.046875 C 161.023438 116.457031 160.558594 115.960938 160.066406 115.488281 C 159.730469 115.167969 159.425781 114.828125 159.230469 114.402344 C 158.5 113.714844 158.40625 112.917969 158.941406 112.171875 C 160.851562 112.734375 162.105469 114.117188 163.269531 115.632812 C 163.699219 116.195312 164.167969 116.726562 164.628906 117.265625 C 165.734375 118.558594 165.503906 118.433594 165.066406 119.746094 C 164.96875 120.042969 164.804688 120.308594 164.617188 120.554688 C 164.546875 120.644531 164.476562 120.722656 164.355469 120.734375 C 164.226562 121.0625 163.933594 121.089844 163.644531 121.105469 C 162.792969 121.148438 161.945312 121.175781 161.09375 121.210938 C 160.921875 121.324219 160.734375 121.3125 160.546875 121.289062 C 160.382812 121.410156 160.195312 121.390625 160.007812 121.382812 C 159.902344 121.488281 159.761719 121.464844 159.636719 121.492188 C 157.933594 121.886719 156.300781 122.46875 154.769531 123.328125 C 154.65625 123.394531 154.535156 123.449219 154.417969 123.507812 C 154.277344 123.582031 154.121094 123.664062 153.992188 123.535156 C 153.898438 123.441406 153.90625 123.25 153.976562 123.15625 C 154.28125 122.742188 154.285156 122.207031 154.542969 121.78125 C 154.660156 121.59375 154.84375 121.46875 155.03125 121.34375 C 156.472656 120.375 158.042969 119.691406 159.6875 119.171875 C 159.835938 119.125 159.992188 119.101562 160.125 119.027344 C 160.277344 118.9375 160.222656 118.804688 160.132812 118.6875 C 159.957031 118.726562 159.828125 118.664062 159.734375 118.519531 C 159.574219 118.519531 159.414062 118.507812 159.316406 118.347656 C 159.277344 118.367188 159.25 118.359375 159.234375 118.316406 C 159.082031 118.324219 158.933594 118.304688 158.835938 118.15625 C 158.730469 118.140625 158.621094 118.132812 158.519531 118.097656 C 157.402344 117.691406 156.296875 117.269531 155.179688 116.875 C 154.164062 116.519531 153.140625 116.195312 152.117188 115.859375 C 151.835938 115.804688 151.554688 115.757812 151.28125 115.691406 C 148.589844 115.058594 145.863281 114.761719 143.105469 114.878906 C 142.117188 114.921875 141.132812 114.996094 140.148438 115.054688 C 139.972656 115.175781 139.777344 115.148438 139.582031 115.128906 C 139.414062 115.25 139.226562 115.226562 139.039062 115.207031 C 138.890625 115.335938 138.710938 115.300781 138.535156 115.300781 C 138.445312 115.394531 138.335938 115.398438 138.21875 115.367188 C 138.183594 115.398438 138.144531 115.402344 138.101562 115.378906 C 137.996094 115.480469 137.855469 115.460938 137.734375 115.492188 C 137.121094 115.652344 136.488281 115.703125 135.894531 115.941406 C 135.835938 115.894531 135.65625 115.882812 135.867188 115.769531 C 136.007812 115.695312 136.011719 115.648438 135.96875 115.617188 C 135.929688 115.589844 135.855469 115.566406 135.800781 115.546875 C 133.890625 116.117188 132.066406 116.910156 130.296875 117.828125 C 130.140625 117.929688 129.984375 118.03125 129.828125 118.132812 C 128.890625 118.730469 127.957031 119.332031 127.019531 119.933594 C 127.003906 119.976562 126.980469 120.007812 126.945312 120.027344 C 126.921875 120.039062 126.898438 120.046875 126.867188 120.046875 C 126.84375 120.121094 126.789062 120.15625 126.71875 120.160156 C 126.695312 120.234375 126.644531 120.269531 126.566406 120.273438 C 126.546875 120.347656 126.496094 120.382812 126.417969 120.386719 C 126.394531 120.460938 126.347656 120.5 126.269531 120.503906 C 126.25 120.578125 126.199219 120.617188 126.125 120.617188 L 126.121094 120.621094 C 126.105469 120.695312 126.054688 120.734375 125.980469 120.734375 L 125.976562 120.738281 C 125.933594 120.777344 125.882812 120.820312 125.835938 120.855469 L 125.828125 120.859375 C 125.8125 120.933594 125.765625 120.972656 125.6875 120.976562 L 125.683594 120.980469 C 125.664062 121.054688 125.621094 121.09375 125.542969 121.097656 L 125.539062 121.101562 C 125.539062 121.101562 125.535156 121.101562 125.535156 121.101562 C 125.535156 121.101562 125.539062 121.101562 125.539062 121.101562 C 125.523438 121.175781 125.472656 121.214844 125.398438 121.21875 L 125.394531 121.222656 C 125.378906 121.296875 125.332031 121.335938 125.253906 121.339844 L 125.25 121.339844 C 125.234375 121.417969 125.1875 121.460938 125.109375 121.464844 C 124.695312 121.867188 124.28125 122.269531 123.867188 122.675781 C 123.585938 122.816406 123.40625 123.070312 123.199219 123.292969 C 123.210938 123.328125 123.230469 123.355469 123.25 123.375 C 123.285156 123.414062 123.324219 123.4375 123.378906 123.449219 C 123.238281 123.632812 123.113281 123.828125 122.902344 123.9375 C 122.832031 123.964844 122.769531 124 122.726562 124.058594 C 122.785156 124.019531 122.839844 123.976562 122.902344 123.9375 C 122.867188 124.003906 122.828125 124.066406 122.746094 124.058594 C 122.734375 124.175781 122.667969 124.25 122.570312 124.300781 C 122.5625 124.378906 122.527344 124.425781 122.449219 124.4375 C 122.425781 124.511719 122.386719 124.566406 122.308594 124.585938 C 122.300781 124.621094 122.28125 124.652344 122.246094 124.671875 C 122.144531 124.875 122.003906 125.046875 121.820312 125.183594 C 121.742188 125.324219 121.664062 125.46875 121.519531 125.554688 C 121.5 125.664062 121.417969 125.726562 121.347656 125.792969 C 121.027344 126.347656 120.613281 126.839844 120.390625 127.480469 C 120.222656 127.308594 119.96875 127.363281 119.910156 127.128906 Z M 159.246094 118.183594 C 159.246094 118.183594 159.246094 118.183594 159.242188 118.183594 C 159.242188 118.183594 159.246094 118.183594 159.246094 118.183594 C 159.242188 118.183594 159.242188 118.183594 159.242188 118.183594 C 159.242188 118.1875 159.242188 118.1875 159.242188 118.191406 C 159.246094 118.1875 159.246094 118.1875 159.246094 118.183594 Z M 125.1875 120.914062 C 125.199219 120.902344 125.207031 120.890625 125.21875 120.878906 C 125.214844 120.882812 125.210938 120.882812 125.207031 120.886719 C 125.199219 120.894531 125.1875 120.902344 125.179688 120.910156 C 125.179688 120.910156 125.183594 120.914062 125.1875 120.914062 Z M 127.011719 119.933594 C 127.011719 119.929688 127.007812 119.929688 127.007812 119.929688 C 127.003906 119.925781 127.003906 119.921875 127 119.917969 L 126.984375 119.90625 L 127.007812 119.929688 C 127.007812 119.933594 127.007812 119.933594 127.007812 119.933594 C 127.007812 119.933594 127.007812 119.933594 127.011719 119.933594 Z M 125.121094 120.894531 C 125.140625 120.898438 125.160156 120.90625 125.175781 120.910156 C 125.183594 120.902344 125.195312 120.894531 125.203125 120.886719 C 125.179688 120.898438 125.152344 120.90625 125.121094 120.894531 Z M 125.265625 120.828125 C 125.277344 120.820312 125.289062 120.808594 125.300781 120.800781 C 125.300781 120.796875 125.300781 120.796875 125.300781 120.796875 C 125.289062 120.808594 125.277344 120.820312 125.265625 120.828125 Z M 120.144531 125.941406 C 120.144531 125.941406 120.140625 125.945312 120.140625 125.945312 C 120.140625 125.945312 120.136719 125.945312 120.136719 125.945312 C 120.136719 125.949219 120.136719 125.949219 120.136719 125.953125 C 120.140625 125.949219 120.140625 125.945312 120.144531 125.941406 Z M 120.285156 125.699219 C 120.285156 125.695312 120.285156 125.691406 120.289062 125.6875 C 120.289062 125.691406 120.285156 125.695312 120.285156 125.699219 Z M 122.613281 124.082031 C 122.601562 124.078125 122.585938 124.070312 122.574219 124.0625 C 122.574219 124.070312 122.574219 124.078125 122.570312 124.089844 C 122.585938 124.085938 122.597656 124.085938 122.613281 124.082031 Z M 122.335938 124.5 C 122.316406 124.515625 122.304688 124.535156 122.296875 124.5625 C 122.296875 124.5625 122.296875 124.5625 122.300781 124.5625 C 122.308594 124.539062 122.320312 124.515625 122.335938 124.5 Z M 122.335938 124.5 " fill-opacity="1" fill-rule="nonzero"/></g></g></g></g><g clip-path="url(#d4facbb1da)"><g clip-path="url(#5881a151fe)"><g clip-path="url(#2f1da03007)"><g clip-path="url(#1b139720e5)"><path fill="#ffffff" d="M 125.824219 120.859375 C 125.871094 120.820312 125.917969 120.78125 125.964844 120.742188 C 125.949219 120.816406 125.898438 120.855469 125.824219 120.859375 Z M 125.824219 120.859375 " fill-opacity="1" fill-rule="nonzero"/></g></g></g></g><g clip-path="url(#ec9568f82c)"><g clip-path="url(#958e7fa8d1)"><g clip-path="url(#d3519e6ac7)"><g clip-path="url(#4bd67ef4a2)"><path fill="#ffffff" d="M 205.992188 193.410156 C 206.03125 193.40625 206.066406 193.421875 206.09375 193.457031 C 206.234375 193.429688 206.269531 193.199219 206.464844 193.269531 C 206.898438 193.15625 207.121094 193.421875 207.308594 193.75 C 207.824219 194.664062 208.179688 195.644531 208.472656 196.644531 C 209.53125 200.226562 209.789062 203.855469 209.402344 207.558594 C 208.726562 214.027344 205.96875 219.5 201.683594 224.261719 C 199.695312 226.46875 197.355469 228.289062 194.929688 229.996094 C 193.503906 231 192.019531 231.914062 190.558594 232.867188 C 190.492188 232.878906 190.421875 232.886719 190.355469 232.898438 C 190.3125 232.964844 190.25 233.023438 190.242188 233.09375 C 190.238281 233.148438 190.316406 233.15625 190.367188 233.121094 C 191.054688 233.171875 191.726562 233.078125 192.398438 232.945312 C 192.855469 232.855469 193.304688 232.804688 193.769531 232.886719 C 194.75 232.6875 195.453125 233.070312 195.757812 233.933594 C 194.199219 235.175781 192.34375 235.402344 190.4375 235.480469 C 189.726562 235.511719 189.023438 235.589844 188.316406 235.65625 C 186.625 235.816406 186.859375 235.699219 186.035156 234.585938 C 185.851562 234.335938 185.726562 234.046875 185.636719 233.75 C 185.601562 233.640625 185.578125 233.539062 185.640625 233.433594 C 185.445312 233.140625 185.589844 232.882812 185.742188 232.640625 C 186.199219 231.921875 186.664062 231.207031 187.125 230.492188 C 187.128906 230.289062 187.25 230.144531 187.375 230.003906 C 187.375 229.796875 187.496094 229.652344 187.609375 229.503906 C 187.585938 229.359375 187.6875 229.257812 187.734375 229.136719 C 188.390625 227.519531 188.855469 225.851562 189.035156 224.101562 C 189.046875 223.972656 189.070312 223.84375 189.089844 223.710938 C 189.109375 223.554688 189.132812 223.378906 189.3125 223.347656 C 189.445312 223.324219 189.597656 223.441406 189.632812 223.550781 C 189.796875 224.039062 190.230469 224.351562 190.429688 224.808594 C 190.515625 225.011719 190.515625 225.234375 190.507812 225.457031 C 190.46875 227.195312 190.125 228.871094 189.601562 230.519531 C 189.554688 230.664062 189.484375 230.808594 189.472656 230.960938 C 189.453125 231.136719 189.597656 231.164062 189.742188 231.15625 C 189.8125 230.996094 189.9375 230.925781 190.109375 230.933594 C 190.203125 230.796875 190.300781 230.675781 190.492188 230.691406 C 190.496094 230.644531 190.519531 230.628906 190.5625 230.640625 C 190.648438 230.507812 190.746094 230.402344 190.921875 230.40625 C 191 230.328125 191.066406 230.242188 191.15625 230.179688 C 192.128906 229.5 193.109375 228.839844 194.074219 228.152344 C 194.953125 227.527344 195.804688 226.875 196.667969 226.234375 C 196.875 226.035156 197.074219 225.832031 197.289062 225.644531 C 199.355469 223.808594 201.164062 221.75 202.660156 219.425781 C 203.191406 218.597656 203.699219 217.75 204.214844 216.910156 C 204.21875 216.695312 204.351562 216.550781 204.484375 216.402344 C 204.480469 216.195312 204.605469 216.054688 204.730469 215.914062 C 204.710938 215.71875 204.84375 215.589844 204.945312 215.449219 C 204.921875 215.320312 204.980469 215.230469 205.074219 215.152344 C 205.066406 215.105469 205.085938 215.070312 205.128906 215.046875 C 205.105469 214.90625 205.203125 214.800781 205.25 214.683594 C 205.46875 214.089844 205.792969 213.542969 205.941406 212.921875 C 206.011719 212.898438 206.125 212.757812 206.097656 212.996094 C 206.078125 213.152344 206.109375 213.183594 206.164062 213.167969 C 206.207031 213.152344 206.265625 213.105469 206.316406 213.074219 C 206.953125 211.179688 207.347656 209.234375 207.617188 207.257812 C 207.625 207.070312 207.632812 206.882812 207.640625 206.699219 C 207.6875 205.585938 207.738281 204.476562 207.785156 203.367188 C 207.757812 203.328125 207.746094 203.289062 207.75 203.253906 C 207.753906 203.226562 207.761719 203.199219 207.777344 203.175781 C 207.734375 203.113281 207.734375 203.050781 207.773438 202.988281 C 207.726562 202.925781 207.726562 202.863281 207.765625 202.800781 C 207.71875 202.738281 207.71875 202.675781 207.761719 202.613281 C 207.710938 202.550781 207.707031 202.488281 207.75 202.425781 C 207.699219 202.363281 207.695312 202.300781 207.738281 202.238281 L 207.738281 202.234375 C 207.6875 202.179688 207.683594 202.113281 207.726562 202.050781 L 207.726562 202.046875 C 207.71875 201.988281 207.714844 201.925781 207.714844 201.867188 L 207.710938 201.859375 C 207.664062 201.800781 207.65625 201.742188 207.699219 201.675781 L 207.699219 201.671875 C 207.648438 201.613281 207.640625 201.554688 207.683594 201.488281 L 207.683594 201.480469 C 207.628906 201.425781 207.625 201.363281 207.667969 201.296875 L 207.667969 201.292969 C 207.613281 201.238281 207.609375 201.175781 207.652344 201.113281 L 207.648438 201.109375 C 207.597656 201.050781 207.59375 200.988281 207.632812 200.921875 C 207.539062 200.351562 207.449219 199.78125 207.359375 199.210938 C 207.402344 198.898438 207.296875 198.605469 207.234375 198.308594 C 207.203125 198.296875 207.167969 198.296875 207.136719 198.300781 C 207.089844 198.308594 207.046875 198.328125 207.007812 198.363281 C 206.9375 198.144531 206.847656 197.929688 206.882812 197.691406 C 206.898438 197.621094 206.90625 197.550781 206.882812 197.476562 C 206.882812 197.550781 206.882812 197.621094 206.882812 197.691406 C 206.84375 197.625 206.816406 197.558594 206.871094 197.496094 C 206.78125 197.417969 206.757812 197.324219 206.773438 197.210938 C 206.714844 197.164062 206.695312 197.105469 206.730469 197.035156 C 206.6875 196.972656 206.660156 196.910156 206.695312 196.835938 C 206.667969 196.808594 206.652344 196.777344 206.65625 196.734375 C 206.550781 196.53125 206.492188 196.320312 206.480469 196.089844 C 206.414062 195.945312 206.339844 195.800781 206.355469 195.632812 C 206.277344 195.554688 206.269531 195.449219 206.257812 195.351562 C 205.988281 194.773438 205.824219 194.152344 205.429688 193.597656 C 205.664062 193.558594 205.765625 193.324219 205.992188 193.410156 Z M 190.664062 230.726562 C 190.664062 230.722656 190.664062 230.722656 190.664062 230.722656 C 190.667969 230.722656 190.667969 230.722656 190.667969 230.722656 C 190.667969 230.722656 190.667969 230.71875 190.667969 230.71875 C 190.667969 230.71875 190.664062 230.722656 190.664062 230.722656 C 190.664062 230.722656 190.664062 230.71875 190.660156 230.71875 C 190.660156 230.722656 190.664062 230.722656 190.664062 230.726562 Z M 208.035156 201.304688 C 208.039062 201.316406 208.042969 201.332031 208.046875 201.347656 C 208.046875 201.34375 208.046875 201.339844 208.050781 201.335938 C 208.046875 201.324219 208.046875 201.308594 208.042969 201.296875 C 208.042969 201.296875 208.039062 201.300781 208.035156 201.304688 Z M 207.789062 203.359375 C 207.792969 203.359375 207.792969 203.355469 207.792969 203.359375 C 207.800781 203.355469 207.804688 203.359375 207.808594 203.355469 L 207.824219 203.351562 L 207.792969 203.355469 C 207.792969 203.355469 207.792969 203.355469 207.789062 203.355469 C 207.792969 203.355469 207.792969 203.355469 207.789062 203.359375 Z M 208.089844 201.261719 C 208.074219 201.273438 208.0625 201.285156 208.046875 201.292969 C 208.050781 201.308594 208.050781 201.320312 208.050781 201.332031 C 208.050781 201.304688 208.066406 201.28125 208.089844 201.261719 Z M 208.0625 201.417969 C 208.0625 201.433594 208.0625 201.445312 208.066406 201.460938 C 208.066406 201.460938 208.066406 201.460938 208.066406 201.464844 C 208.066406 201.449219 208.0625 201.433594 208.0625 201.417969 Z M 206.828125 194.285156 C 206.828125 194.28125 206.828125 194.28125 206.828125 194.277344 C 206.828125 194.277344 206.828125 194.273438 206.824219 194.273438 C 206.824219 194.277344 206.828125 194.28125 206.828125 194.285156 Z M 206.945312 194.542969 C 206.949219 194.542969 206.953125 194.542969 206.953125 194.546875 C 206.949219 194.546875 206.949219 194.542969 206.945312 194.542969 Z M 206.929688 197.375 C 206.9375 197.367188 206.953125 197.359375 206.96875 197.355469 C 206.960938 197.347656 206.953125 197.34375 206.945312 197.335938 C 206.941406 197.347656 206.933594 197.359375 206.929688 197.375 Z M 206.75 196.90625 C 206.746094 196.882812 206.734375 196.859375 206.714844 196.839844 C 206.730469 196.863281 206.742188 196.882812 206.75 196.90625 Z M 206.75 196.90625 " fill-opacity="1" fill-rule="nonzero"/></g></g></g></g><g clip-path="url(#9003c0d332)"><g clip-path="url(#cbe566fdb6)"><g clip-path="url(#e5a12a8277)"><g clip-path="url(#fc32be345c)"><path fill="#ffffff" d="M 207.714844 201.855469 C 207.71875 201.917969 207.722656 201.976562 207.730469 202.039062 C 207.679688 201.980469 207.675781 201.917969 207.714844 201.855469 Z M 207.714844 201.855469 " fill-opacity="1" fill-rule="nonzero"/></g></g></g></g><g clip-path="url(#fccafb35b1)"><g clip-path="url(#a3fa281b44)"><g clip-path="url(#dc5d66746b)"><g clip-path="url(#b45169d1c1)"><path fill="#ffffff" d="M 99.710938 236.632812 C 99.6875 236.667969 99.65625 236.6875 99.613281 236.6875 C 99.554688 236.820312 99.722656 236.980469 99.558594 237.101562 C 99.402344 237.523438 99.054688 237.554688 98.679688 237.519531 C 97.636719 237.421875 96.628906 237.15625 95.636719 236.828125 C 92.09375 235.65625 88.964844 233.800781 86.140625 231.371094 C 81.210938 227.128906 78.285156 221.742188 76.816406 215.507812 C 76.132812 212.617188 75.972656 209.65625 75.953125 206.691406 C 75.941406 204.945312 76.035156 203.203125 76.085938 201.460938 C 76.113281 201.398438 76.144531 201.339844 76.175781 201.277344 C 76.144531 201.207031 76.132812 201.117188 76.082031 201.070312 C 76.082031 201.070312 76.082031 201.070312 76.078125 201.070312 C 76.039062 201.035156 75.988281 201.097656 75.984375 201.160156 C 75.550781 201.695312 75.246094 202.304688 74.972656 202.925781 C 74.785156 203.355469 74.574219 203.753906 74.238281 204.085938 C 73.84375 205.007812 73.128906 205.367188 72.246094 205.125 C 72.113281 203.136719 72.984375 201.484375 74.007812 199.871094 C 74.386719 199.269531 74.726562 198.648438 75.074219 198.03125 C 75.90625 196.550781 75.867188 196.808594 77.253906 196.769531 C 77.5625 196.757812 77.867188 196.820312 78.164062 196.914062 C 78.273438 196.945312 78.371094 196.988281 78.421875 197.097656 C 78.777344 197.105469 78.902344 197.371094 79.015625 197.632812 C 79.347656 198.417969 79.667969 199.207031 79.992188 199.996094 C 80.160156 200.113281 80.210938 200.296875 80.253906 200.480469 C 80.421875 200.59375 80.472656 200.777344 80.527344 200.957031 C 80.660156 201.015625 80.6875 201.160156 80.757812 201.265625 C 81.714844 202.730469 82.820312 204.0625 84.15625 205.203125 C 84.257812 205.289062 84.347656 205.382812 84.445312 205.472656 C 84.5625 205.578125 84.695312 205.699219 84.617188 205.863281 C 84.558594 205.984375 84.378906 206.042969 84.265625 206.011719 C 83.773438 205.867188 83.269531 206.046875 82.78125 205.949219 C 82.5625 205.90625 82.382812 205.777344 82.203125 205.644531 C 80.796875 204.621094 79.617188 203.382812 78.558594 202.015625 C 78.464844 201.894531 78.390625 201.753906 78.273438 201.65625 C 78.136719 201.542969 78.03125 201.640625 77.957031 201.765625 C 78.046875 201.914062 78.035156 202.058594 77.929688 202.195312 C 77.988281 202.347656 78.035156 202.5 77.914062 202.648438 C 77.949219 202.675781 77.945312 202.707031 77.914062 202.734375 C 77.972656 202.878906 78.003906 203.023438 77.902344 203.164062 C 77.917969 203.269531 77.953125 203.375 77.953125 203.484375 C 77.957031 204.667969 77.941406 205.855469 77.957031 207.039062 C 77.96875 208.117188 78.019531 209.1875 78.054688 210.261719 C 78.097656 210.546875 78.152344 210.824219 78.183594 211.105469 C 78.515625 213.851562 79.171875 216.511719 80.230469 219.066406 C 80.609375 219.976562 81.015625 220.875 81.410156 221.777344 C 81.585938 221.902344 81.628906 222.097656 81.675781 222.289062 C 81.847656 222.402344 81.890625 222.585938 81.9375 222.769531 C 82.109375 222.867188 82.140625 223.042969 82.195312 223.210938 C 82.316406 223.261719 82.359375 223.367188 82.367188 223.484375 C 82.410156 223.507812 82.429688 223.542969 82.421875 223.589844 C 82.550781 223.652344 82.582031 223.792969 82.65625 223.898438 C 83.015625 224.414062 83.28125 224.996094 83.707031 225.46875 C 83.683594 225.539062 83.734375 225.714844 83.558594 225.554688 C 83.4375 225.449219 83.394531 225.460938 83.378906 225.511719 C 83.363281 225.558594 83.371094 225.632812 83.367188 225.691406 C 84.5625 227.292969 85.933594 228.730469 87.40625 230.078125 C 87.554688 230.1875 87.703125 230.300781 87.851562 230.414062 C 88.734375 231.085938 89.621094 231.757812 90.507812 232.429688 C 90.554688 232.429688 90.589844 232.441406 90.621094 232.46875 C 90.640625 232.484375 90.65625 232.507812 90.667969 232.535156 C 90.742188 232.535156 90.796875 232.570312 90.824219 232.636719 C 90.902344 232.632812 90.953125 232.667969 90.980469 232.738281 C 91.058594 232.734375 91.113281 232.769531 91.140625 232.839844 C 91.21875 232.835938 91.273438 232.867188 91.300781 232.941406 C 91.378906 232.933594 91.433594 232.964844 91.460938 233.035156 L 91.460938 233.039062 C 91.539062 233.03125 91.59375 233.0625 91.617188 233.132812 L 91.621094 233.132812 C 91.675781 233.160156 91.730469 233.191406 91.78125 233.226562 L 91.785156 233.230469 C 91.863281 233.222656 91.914062 233.25 91.945312 233.320312 L 91.949219 233.324219 C 92.027344 233.316406 92.078125 233.347656 92.109375 233.417969 L 92.113281 233.421875 C 92.113281 233.421875 92.117188 233.421875 92.117188 233.421875 C 92.117188 233.421875 92.113281 233.421875 92.113281 233.421875 C 92.191406 233.410156 92.242188 233.441406 92.273438 233.511719 L 92.277344 233.515625 C 92.351562 233.503906 92.40625 233.535156 92.4375 233.605469 C 92.515625 233.597656 92.570312 233.628906 92.601562 233.699219 C 93.125 233.949219 93.644531 234.199219 94.164062 234.449219 C 94.394531 234.664062 94.695312 234.746094 94.976562 234.863281 C 95.003906 234.839844 95.023438 234.8125 95.039062 234.785156 C 95.058594 234.742188 95.066406 234.695312 95.058594 234.640625 C 95.28125 234.710938 95.507812 234.757812 95.683594 234.921875 C 95.730469 234.976562 95.785156 235.023438 95.859375 235.042969 C 95.800781 235.003906 95.742188 234.964844 95.683594 234.921875 C 95.757812 234.929688 95.828125 234.945312 95.851562 235.023438 C 95.964844 234.996094 96.058594 235.03125 96.140625 235.109375 C 96.214844 235.085938 96.269531 235.101562 96.308594 235.171875 C 96.386719 235.171875 96.453125 235.1875 96.496094 235.257812 C 96.535156 235.25 96.566406 235.257812 96.597656 235.285156 C 96.824219 235.3125 97.035156 235.382812 97.226562 235.507812 C 97.386719 235.535156 97.546875 235.558594 97.675781 235.664062 C 97.785156 235.644531 97.875 235.699219 97.960938 235.742188 C 98.589844 235.851562 99.195312 236.074219 99.875 236.0625 C 99.773438 236.277344 99.910156 236.496094 99.710938 236.632812 Z M 77.785156 202.769531 C 77.785156 202.769531 77.785156 202.769531 77.785156 202.773438 C 77.785156 202.773438 77.789062 202.773438 77.789062 202.773438 C 77.789062 202.773438 77.785156 202.773438 77.785156 202.773438 C 77.789062 202.773438 77.789062 202.769531 77.792969 202.773438 C 77.789062 202.769531 77.789062 202.769531 77.785156 202.769531 Z M 92.058594 233.8125 C 92.042969 233.808594 92.03125 233.804688 92.015625 233.796875 C 92.019531 233.800781 92.023438 233.804688 92.023438 233.804688 C 92.035156 233.8125 92.046875 233.820312 92.058594 233.824219 C 92.058594 233.824219 92.058594 233.820312 92.058594 233.8125 Z M 90.511719 232.441406 C 90.507812 232.441406 90.511719 232.441406 90.507812 232.441406 C 90.507812 232.449219 90.503906 232.453125 90.5 232.457031 L 90.496094 232.472656 L 90.511719 232.441406 C 90.511719 232.441406 90.511719 232.441406 90.515625 232.441406 C 90.511719 232.441406 90.511719 232.441406 90.511719 232.441406 Z M 92.0625 233.882812 C 92.0625 233.863281 92.0625 233.84375 92.058594 233.828125 C 92.046875 233.820312 92.039062 233.816406 92.027344 233.808594 C 92.046875 233.824219 92.0625 233.851562 92.0625 233.882812 Z M 91.953125 233.769531 C 91.9375 233.761719 91.925781 233.753906 91.914062 233.746094 C 91.910156 233.75 91.910156 233.746094 91.910156 233.746094 C 91.921875 233.753906 91.9375 233.761719 91.953125 233.769531 Z M 98.515625 236.820312 C 98.515625 236.824219 98.519531 236.824219 98.519531 236.824219 C 98.523438 236.824219 98.523438 236.824219 98.527344 236.824219 C 98.523438 236.824219 98.519531 236.824219 98.515625 236.820312 Z M 98.234375 236.773438 C 98.234375 236.773438 98.230469 236.773438 98.226562 236.773438 C 98.230469 236.769531 98.234375 236.773438 98.234375 236.773438 Z M 95.917969 235.140625 C 95.917969 235.15625 95.917969 235.167969 95.914062 235.183594 C 95.921875 235.183594 95.929688 235.179688 95.941406 235.179688 C 95.933594 235.167969 95.925781 235.15625 95.917969 235.140625 Z M 96.40625 235.261719 C 96.425781 235.273438 96.453125 235.277344 96.480469 235.273438 C 96.480469 235.273438 96.480469 235.273438 96.476562 235.269531 C 96.453125 235.273438 96.425781 235.269531 96.40625 235.261719 Z M 96.40625 235.261719 " fill-opacity="1" fill-rule="nonzero"/></g></g></g></g><g clip-path="url(#4aa243c5db)"><g clip-path="url(#670649f2ec)"><g clip-path="url(#723235ff2d)"><g clip-path="url(#94bc054ccc)"><path fill="#ffffff" d="M 91.789062 233.234375 C 91.734375 233.203125 91.683594 233.171875 91.628906 233.144531 C 91.707031 233.132812 91.757812 233.164062 91.789062 233.234375 Z M 91.789062 233.234375 " fill-opacity="1" fill-rule="nonzero"/></g></g></g></g><path stroke-linecap="butt" transform="matrix(0.74987, 0.00605191, -0.00605275, 0.749976, 136.490312, 77.868153)" fill="none" stroke-linejoin="miter" d="M -0.00220213 1.998796 L 223.036362 2.001135 " stroke="#000000" stroke-width="4" stroke-opacity="1" stroke-miterlimit="4"/><path stroke-linecap="butt" transform="matrix(0.750617, -0.00364086, 0.00363783, 0.749991, 135.126205, 291.168315)" fill="none" stroke-linejoin="miter" d="M -0.000887993 1.999558 L 224.81428 2.002378 " stroke="#000000" stroke-width="4" stroke-opacity="1" stroke-miterlimit="4"/><g clip-path="url(#7d67fa5954)"><path fill="#38b6ff" d="M 266.714844 306.992188 L 275.207031 297.5 C 275.390625 297.296875 275.644531 297.183594 275.910156 297.183594 L 281.574219 297.183594 C 281.945312 297.183594 282.28125 297.402344 282.4375 297.746094 C 282.585938 298.089844 282.523438 298.488281 282.273438 298.765625 L 274.351562 307.628906 L 282.273438 316.484375 C 282.523438 316.765625 282.589844 317.164062 282.4375 317.507812 C 282.28125 317.851562 281.945312 318.070312 281.574219 318.070312 L 275.910156 318.070312 C 275.644531 318.070312 275.390625 317.953125 275.207031 317.757812 L 266.714844 308.261719 C 266.394531 307.902344 266.394531 307.351562 266.714844 306.992188 Z M 266.714844 306.992188 " fill-opacity="1" fill-rule="nonzero"/></g><g clip-path="url(#1a26e67e19)"><path fill="#38b6ff" d="M 278.984375 306.992188 L 287.476562 297.5 C 287.660156 297.296875 287.910156 297.183594 288.179688 297.183594 L 293.839844 297.183594 C 294.214844 297.183594 294.550781 297.402344 294.703125 297.746094 C 294.855469 298.089844 294.792969 298.488281 294.542969 298.765625 L 286.617188 307.628906 L 294.542969 316.484375 C 294.792969 316.765625 294.855469 317.164062 294.703125 317.507812 C 294.550781 317.851562 294.214844 318.070312 293.839844 318.070312 L 288.179688 318.070312 C 287.910156 318.070312 287.660156 317.953125 287.476562 317.757812 L 278.984375 308.261719 C 278.660156 307.902344 278.660156 307.351562 278.984375 306.992188 Z M 278.984375 306.992188 " fill-opacity="1" fill-rule="nonzero"/></g><g clip-path="url(#b923344e99)"><path fill="#38b6ff" d="M 229.589844 306.992188 L 238.082031 297.5 C 238.265625 297.296875 238.519531 297.183594 238.785156 297.183594 L 244.449219 297.183594 C 244.820312 297.183594 245.15625 297.402344 245.3125 297.746094 C 245.460938 298.089844 245.398438 298.488281 245.148438 298.765625 L 237.226562 307.628906 L 245.148438 316.484375 C 245.398438 316.765625 245.464844 317.164062 245.3125 317.507812 C 245.15625 317.851562 244.820312 318.070312 244.449219 318.070312 L 238.785156 318.070312 C 238.519531 318.070312 238.265625 317.953125 238.082031 317.757812 L 229.589844 308.261719 C 229.269531 307.902344 229.269531 307.351562 229.589844 306.992188 Z M 229.589844 306.992188 " fill-opacity="1" fill-rule="nonzero"/></g><g clip-path="url(#03aa5d06cb)"><path fill="#38b6ff" d="M 241.859375 306.992188 L 250.351562 297.5 C 250.535156 297.296875 250.785156 297.183594 251.054688 297.183594 L 256.714844 297.183594 C 257.089844 297.183594 257.425781 297.402344 257.578125 297.746094 C 257.730469 298.089844 257.667969 298.488281 257.417969 298.765625 L 249.492188 307.628906 L 257.417969 316.484375 C 257.667969 316.765625 257.730469 317.164062 257.578125 317.507812 C 257.425781 317.851562 257.089844 318.070312 256.714844 318.070312 L 251.054688 318.070312 C 250.785156 318.070312 250.535156 317.953125 250.351562 317.757812 L 241.859375 308.261719 C 241.535156 307.902344 241.535156 307.351562 241.859375 306.992188 Z M 241.859375 306.992188 " fill-opacity="1" fill-rule="nonzero"/></g><g clip-path="url(#06c2b04d1a)"><path fill="#38b6ff" d="M 192.464844 306.992188 L 200.957031 297.5 C 201.140625 297.296875 201.394531 297.183594 201.660156 297.183594 L 207.324219 297.183594 C 207.695312 297.183594 208.03125 297.402344 208.1875 297.746094 C 208.335938 298.089844 208.273438 298.488281 208.023438 298.765625 L 200.101562 307.628906 L 208.023438 316.484375 C 208.273438 316.765625 208.339844 317.164062 208.1875 317.507812 C 208.03125 317.851562 207.695312 318.070312 207.324219 318.070312 L 201.660156 318.070312 C 201.394531 318.070312 201.140625 317.953125 200.957031 317.757812 L 192.464844 308.261719 C 192.144531 307.902344 192.144531 307.351562 192.464844 306.992188 Z M 192.464844 306.992188 " fill-opacity="1" fill-rule="nonzero"/></g><g clip-path="url(#e0dab8d379)"><path fill="#38b6ff" d="M 204.734375 306.992188 L 213.226562 297.5 C 213.410156 297.296875 213.660156 297.183594 213.929688 297.183594 L 219.589844 297.183594 C 219.964844 297.183594 220.300781 297.402344 220.453125 297.746094 C 220.605469 298.089844 220.542969 298.488281 220.292969 298.765625 L 212.367188 307.628906 L 220.292969 316.484375 C 220.542969 316.765625 220.605469 317.164062 220.453125 317.507812 C 220.300781 317.851562 219.964844 318.070312 219.589844 318.070312 L 213.929688 318.070312 C 213.660156 318.070312 213.410156 317.953125 213.226562 317.757812 L 204.734375 308.261719 C 204.410156 307.902344 204.410156 307.351562 204.734375 306.992188 Z M 204.734375 306.992188 " fill-opacity="1" fill-rule="nonzero"/></g><g clip-path="url(#1d10cb3269)"><path fill="#5ce1e6" d="M 155.339844 306.992188 L 163.832031 297.5 C 164.015625 297.296875 164.269531 297.183594 164.535156 297.183594 L 170.199219 297.183594 C 170.570312 297.183594 170.90625 297.402344 171.0625 297.746094 C 171.210938 298.089844 171.148438 298.488281 170.898438 298.765625 L 162.976562 307.628906 L 170.898438 316.484375 C 171.148438 316.765625 171.214844 317.164062 171.0625 317.507812 C 170.90625 317.851562 170.570312 318.070312 170.199219 318.070312 L 164.535156 318.070312 C 164.269531 318.070312 164.015625 317.953125 163.832031 317.757812 L 155.339844 308.261719 C 155.019531 307.902344 155.019531 307.351562 155.339844 306.992188 Z M 155.339844 306.992188 " fill-opacity="1" fill-rule="nonzero"/></g><g clip-path="url(#f1d04b1b23)"><path fill="#5ce1e6" d="M 167.609375 306.992188 L 176.101562 297.5 C 176.285156 297.296875 176.535156 297.183594 176.804688 297.183594 L 182.464844 297.183594 C 182.839844 297.183594 183.175781 297.402344 183.328125 297.746094 C 183.480469 298.089844 183.417969 298.488281 183.167969 298.765625 L 175.242188 307.628906 L 183.167969 316.484375 C 183.417969 316.765625 183.480469 317.164062 183.328125 317.507812 C 183.175781 317.851562 182.839844 318.070312 182.464844 318.070312 L 176.804688 318.070312 C 176.535156 318.070312 176.285156 317.953125 176.101562 317.757812 L 167.609375 308.261719 C 167.285156 307.902344 167.285156 307.351562 167.609375 306.992188 Z M 167.609375 306.992188 " fill-opacity="1" fill-rule="nonzero"/></g><g clip-path="url(#215d2b1339)"><g clip-path="url(#3c4116b5e3)"><g clip-path="url(#6ac7ebe352)"><path fill="#38b6ff" d="M 118.210938 307.238281 L 126.535156 297.597656 C 126.710938 297.394531 126.960938 297.273438 127.230469 297.269531 L 132.890625 297.167969 C 133.261719 297.164062 133.605469 297.378906 133.765625 297.714844 C 133.921875 298.058594 133.867188 298.460938 133.621094 298.742188 L 125.855469 307.738281 L 133.933594 316.457031 C 134.1875 316.730469 134.261719 317.128906 134.113281 317.472656 C 133.964844 317.820312 133.632812 318.046875 133.261719 318.054688 L 127.597656 318.152344 C 127.332031 318.160156 127.078125 318.046875 126.890625 317.851562 L 118.230469 308.511719 C 117.902344 308.15625 117.894531 307.605469 118.210938 307.238281 Z M 118.210938 307.238281 " fill-opacity="1" fill-rule="nonzero"/></g></g></g><g clip-path="url(#61dd56745c)"><g clip-path="url(#c80db801cd)"><g clip-path="url(#85bb2ab208)"><path fill="#38b6ff" d="M 130.476562 307.023438 L 138.800781 297.378906 C 138.976562 297.175781 139.230469 297.058594 139.496094 297.054688 L 145.15625 296.953125 C 145.53125 296.945312 145.871094 297.160156 146.03125 297.5 C 146.1875 297.839844 146.132812 298.242188 145.886719 298.523438 L 138.121094 307.523438 L 146.203125 316.238281 C 146.457031 316.515625 146.527344 316.914062 146.378906 317.257812 C 146.234375 317.605469 145.898438 317.832031 145.527344 317.835938 L 139.867188 317.9375 C 139.597656 317.941406 139.34375 317.832031 139.160156 317.636719 L 130.5 308.292969 C 130.167969 307.9375 130.160156 307.386719 130.476562 307.023438 Z M 130.476562 307.023438 " fill-opacity="1" fill-rule="nonzero"/></g></g></g><g clip-path="url(#cf717ef02c)"><g clip-path="url(#d8957ffa9c)"><g clip-path="url(#99a75484dc)"><path fill="#38b6ff" d="M 75.855469 286.085938 L 88.128906 282.679688 C 88.390625 282.609375 88.664062 282.648438 88.890625 282.792969 L 93.65625 285.851562 C 93.96875 286.050781 94.132812 286.421875 94.078125 286.789062 C 94.019531 287.160156 93.75 287.464844 93.390625 287.5625 L 81.9375 290.742188 L 83.828125 302.476562 C 83.886719 302.847656 83.722656 303.21875 83.410156 303.425781 C 83.097656 303.632812 82.691406 303.632812 82.378906 303.433594 L 77.613281 300.375 C 77.386719 300.230469 77.238281 299.996094 77.191406 299.734375 L 75.167969 287.15625 C 75.089844 286.679688 75.386719 286.214844 75.855469 286.085938 Z M 75.855469 286.085938 " fill-opacity="1" fill-rule="nonzero"/></g></g></g><g clip-path="url(#1d53e79213)"><g clip-path="url(#0d03cb92fa)"><g clip-path="url(#b8c96105d6)"><path fill="#38b6ff" d="M 86.179688 292.710938 L 98.457031 289.304688 C 98.714844 289.234375 98.992188 289.273438 99.214844 289.417969 L 103.984375 292.476562 C 104.296875 292.675781 104.460938 293.042969 104.40625 293.414062 C 104.347656 293.785156 104.078125 294.089844 103.71875 294.1875 L 92.265625 297.367188 L 94.152344 309.101562 C 94.210938 309.46875 94.050781 309.84375 93.738281 310.046875 C 93.421875 310.253906 93.019531 310.257812 92.707031 310.054688 L 87.941406 307 C 87.714844 306.855469 87.5625 306.621094 87.519531 306.355469 L 85.496094 293.78125 C 85.417969 293.300781 85.714844 292.839844 86.179688 292.710938 Z M 86.179688 292.710938 " fill-opacity="1" fill-rule="nonzero"/></g></g></g><g clip-path="url(#4ddeb397e2)"><g clip-path="url(#f9645493a4)"><g clip-path="url(#831b162c92)"><path fill="#38b6ff" d="M 41.28125 262.910156 L 53.984375 261.964844 C 54.253906 261.945312 54.515625 262.039062 54.707031 262.222656 L 58.785156 266.152344 C 59.054688 266.410156 59.144531 266.800781 59.015625 267.15625 C 58.886719 267.507812 58.566406 267.753906 58.191406 267.777344 L 46.339844 268.664062 L 45.902344 280.539062 C 45.886719 280.914062 45.65625 281.246094 45.308594 281.386719 C 44.960938 281.53125 44.566406 281.453125 44.296875 281.195312 L 40.21875 277.269531 C 40.027344 277.082031 39.921875 276.824219 39.929688 276.554688 L 40.398438 263.824219 C 40.417969 263.339844 40.796875 262.945312 41.28125 262.910156 Z M 41.28125 262.910156 " fill-opacity="1" fill-rule="nonzero"/></g></g></g><g clip-path="url(#3fa8e0532c)"><g clip-path="url(#085fcc5155)"><g clip-path="url(#9396c0cefb)"><path fill="#38b6ff" d="M 50.117188 271.421875 L 62.820312 270.472656 C 63.089844 270.453125 63.351562 270.546875 63.542969 270.734375 L 67.621094 274.660156 C 67.890625 274.917969 67.980469 275.3125 67.855469 275.664062 C 67.722656 276.015625 67.402344 276.261719 67.03125 276.289062 L 55.175781 277.171875 L 54.738281 289.050781 C 54.726562 289.425781 54.492188 289.757812 54.144531 289.898438 C 53.796875 290.039062 53.402344 289.964844 53.132812 289.707031 L 49.054688 285.777344 C 48.863281 285.59375 48.761719 285.332031 48.765625 285.066406 L 49.234375 272.335938 C 49.253906 271.851562 49.636719 271.453125 50.117188 271.421875 Z M 50.117188 271.421875 " fill-opacity="1" fill-rule="nonzero"/></g></g></g><g clip-path="url(#c483bbbd93)"><g clip-path="url(#0bb72cf0c3)"><g clip-path="url(#7201260b2c)"><path fill="#5ce1e6" d="M 22.734375 226.0625 L 35.210938 228.632812 C 35.476562 228.6875 35.699219 228.851562 35.835938 229.082031 L 38.679688 233.976562 C 38.867188 234.296875 38.847656 234.699219 38.628906 235.003906 C 38.40625 235.308594 38.03125 235.457031 37.664062 235.378906 L 26.023438 232.980469 L 22.347656 244.285156 C 22.230469 244.640625 21.917969 244.894531 21.542969 244.9375 C 21.171875 244.976562 20.808594 244.796875 20.625 244.472656 L 17.777344 239.578125 C 17.644531 239.347656 17.617188 239.070312 17.695312 238.8125 L 21.636719 226.699219 C 21.785156 226.238281 22.261719 225.960938 22.734375 226.0625 Z M 22.734375 226.0625 " fill-opacity="1" fill-rule="nonzero"/></g></g></g><g clip-path="url(#771ee72dfe)"><g clip-path="url(#861a1e4ba5)"><g clip-path="url(#035e0c7341)"><path fill="#5ce1e6" d="M 28.898438 236.667969 L 41.375 239.238281 C 41.640625 239.292969 41.867188 239.457031 42 239.6875 L 44.847656 244.582031 C 45.035156 244.90625 45.011719 245.308594 44.792969 245.613281 C 44.574219 245.914062 44.195312 246.0625 43.832031 245.984375 L 32.1875 243.585938 L 28.511719 254.890625 C 28.394531 255.246094 28.082031 255.503906 27.710938 255.542969 C 27.335938 255.582031 26.976562 255.402344 26.789062 255.082031 L 23.941406 250.183594 C 23.808594 249.953125 23.78125 249.675781 23.859375 249.421875 L 27.800781 237.304688 C 27.949219 236.847656 28.425781 236.570312 28.898438 236.667969 Z M 28.898438 236.667969 " fill-opacity="1" fill-rule="nonzero"/></g></g></g><g clip-path="url(#46a580e152)"><path fill="#38b6ff" d="M 20.015625 172.027344 L 29.507812 180.519531 C 29.710938 180.699219 29.824219 180.953125 29.824219 181.222656 L 29.824219 186.882812 C 29.824219 187.257812 29.605469 187.59375 29.261719 187.746094 C 28.917969 187.898438 28.515625 187.835938 28.242188 187.585938 L 19.378906 179.660156 L 10.523438 187.585938 C 10.242188 187.835938 9.84375 187.898438 9.5 187.746094 C 9.15625 187.59375 8.9375 187.257812 8.9375 186.882812 L 8.9375 181.222656 C 8.9375 180.953125 9.050781 180.699219 9.25 180.519531 L 18.746094 172.027344 C 19.105469 171.703125 19.65625 171.703125 20.015625 172.027344 Z M 20.015625 172.027344 " fill-opacity="1" fill-rule="nonzero"/></g><g clip-path="url(#bdc14016b2)"><path fill="#38b6ff" d="M 20.015625 184.292969 L 29.507812 192.789062 C 29.710938 192.96875 29.824219 193.222656 29.824219 193.488281 L 29.824219 199.152344 C 29.824219 199.523438 29.605469 199.863281 29.261719 200.015625 C 28.917969 200.164062 28.515625 200.105469 28.242188 199.855469 L 19.378906 191.929688 L 10.523438 199.855469 C 10.242188 200.105469 9.84375 200.167969 9.5 200.015625 C 9.15625 199.863281 8.9375 199.523438 8.9375 199.152344 L 8.9375 193.488281 C 8.9375 193.222656 9.050781 192.96875 9.25 192.789062 L 18.746094 184.292969 C 19.105469 183.972656 19.65625 183.972656 20.015625 184.292969 Z M 20.015625 184.292969 " fill-opacity="1" fill-rule="nonzero"/></g><g clip-path="url(#3f5df7e930)"><g clip-path="url(#aac6e265f4)"><g clip-path="url(#30155af4f0)"><path fill="#38b6ff" d="M 38.21875 122.101562 L 41.183594 134.492188 C 41.246094 134.753906 41.195312 135.027344 41.042969 135.246094 L 37.816406 139.902344 C 37.605469 140.207031 37.230469 140.359375 36.863281 140.289062 C 36.496094 140.21875 36.203125 139.941406 36.117188 139.578125 L 33.347656 128.015625 L 21.554688 129.484375 C 21.183594 129.53125 20.816406 129.355469 20.621094 129.035156 C 20.425781 128.714844 20.4375 128.308594 20.648438 128.003906 L 23.875 123.351562 C 24.027344 123.128906 24.269531 122.988281 24.53125 122.953125 L 37.175781 121.378906 C 37.65625 121.320312 38.105469 121.632812 38.21875 122.101562 Z M 38.21875 122.101562 " fill-opacity="1" fill-rule="nonzero"/></g></g></g><g clip-path="url(#5464c9e694)"><g clip-path="url(#31209d86ba)"><g clip-path="url(#9c08e9d049)"><path fill="#38b6ff" d="M 31.230469 132.1875 L 34.195312 144.574219 C 34.257812 144.839844 34.207031 145.109375 34.054688 145.332031 L 30.828125 149.984375 C 30.617188 150.289062 30.246094 150.441406 29.875 150.375 C 29.507812 150.300781 29.214844 150.023438 29.128906 149.660156 L 26.359375 138.101562 L 14.566406 139.566406 C 14.195312 139.613281 13.828125 139.4375 13.632812 139.117188 C 13.4375 138.796875 13.449219 138.394531 13.664062 138.085938 L 16.886719 133.433594 C 17.039062 133.214844 17.28125 133.070312 17.546875 133.035156 L 30.1875 131.460938 C 30.667969 131.402344 31.121094 131.714844 31.230469 132.1875 Z M 31.230469 132.1875 " fill-opacity="1" fill-rule="nonzero"/></g></g></g><g clip-path="url(#40f404a68c)"><g clip-path="url(#12c29b594c)"><g clip-path="url(#14c885e53c)"><path fill="#38b6ff" d="M 65.816406 90.09375 L 65.914062 102.832031 C 65.917969 103.101562 65.804688 103.355469 65.609375 103.535156 L 61.417969 107.34375 C 61.140625 107.59375 60.742188 107.660156 60.402344 107.507812 C 60.058594 107.355469 59.835938 107.015625 59.832031 106.644531 L 59.742188 94.757812 L 47.917969 93.53125 C 47.546875 93.492188 47.230469 93.238281 47.113281 92.882812 C 46.996094 92.523438 47.097656 92.132812 47.371094 91.882812 L 51.5625 88.078125 C 51.761719 87.898438 52.027344 87.8125 52.292969 87.835938 L 64.964844 89.152344 C 65.445312 89.203125 65.816406 89.609375 65.816406 90.09375 Z M 65.816406 90.09375 " fill-opacity="1" fill-rule="nonzero"/></g></g></g><g clip-path="url(#6ba6ef2c58)"><g clip-path="url(#a5178f240c)"><g clip-path="url(#faecfab231)"><path fill="#38b6ff" d="M 56.738281 98.34375 L 56.835938 111.082031 C 56.835938 111.351562 56.726562 111.605469 56.527344 111.785156 L 52.335938 115.59375 C 52.0625 115.84375 51.664062 115.90625 51.320312 115.757812 C 50.976562 115.605469 50.753906 115.265625 50.753906 114.894531 L 50.660156 103.007812 L 38.839844 101.78125 C 38.464844 101.742188 38.148438 101.488281 38.03125 101.132812 C 37.914062 100.773438 38.015625 100.382812 38.292969 100.132812 L 42.480469 96.328125 C 42.679688 96.148438 42.945312 96.0625 43.210938 96.085938 L 55.882812 97.402344 C 56.363281 97.453125 56.734375 97.859375 56.738281 98.34375 Z M 56.738281 98.34375 " fill-opacity="1" fill-rule="nonzero"/></g></g></g><g clip-path="url(#7cc7c6de63)"><g clip-path="url(#042b4243da)"><g clip-path="url(#5f0112efb6)"><path fill="#5ce1e6" d="M 100.488281 72.246094 L 97.054688 84.511719 C 96.980469 84.773438 96.800781 84.988281 96.5625 85.105469 L 91.480469 87.601562 C 91.148438 87.765625 90.746094 87.71875 90.457031 87.480469 C 90.171875 87.238281 90.050781 86.851562 90.152344 86.492188 L 93.355469 75.042969 L 82.335938 70.589844 C 81.988281 70.449219 81.753906 70.117188 81.742188 69.746094 C 81.726562 69.367188 81.933594 69.023438 82.265625 68.859375 L 87.347656 66.359375 C 87.589844 66.242188 87.867188 66.234375 88.117188 66.332031 L 99.925781 71.105469 C 100.375 71.285156 100.617188 71.78125 100.488281 72.246094 Z M 100.488281 72.246094 " fill-opacity="1" fill-rule="nonzero"/></g></g></g><g clip-path="url(#e675006d54)"><g clip-path="url(#7fd09bfe55)"><g clip-path="url(#2ab362e788)"><path fill="#5ce1e6" d="M 89.476562 77.65625 L 86.042969 89.925781 C 85.96875 90.183594 85.792969 90.398438 85.550781 90.515625 L 80.472656 93.015625 C 80.136719 93.179688 79.738281 93.128906 79.449219 92.890625 C 79.160156 92.648438 79.039062 92.261719 79.140625 91.902344 L 82.347656 80.457031 L 71.324219 76.003906 C 70.980469 75.863281 70.746094 75.53125 70.730469 75.15625 C 70.71875 74.78125 70.921875 74.433594 71.257812 74.269531 L 76.339844 71.773438 C 76.578125 71.652344 76.855469 71.648438 77.105469 71.742188 L 88.917969 76.515625 C 89.367188 76.699219 89.609375 77.191406 89.476562 77.65625 Z M 89.476562 77.65625 " fill-opacity="1" fill-rule="nonzero"/></g></g></g><g clip-path="url(#c894ffd5cc)"><path fill="#38b6ff" d="M 146.195312 68.148438 L 137.703125 77.640625 C 137.519531 77.84375 137.265625 77.957031 137 77.957031 L 131.335938 77.957031 C 130.964844 77.957031 130.628906 77.738281 130.472656 77.394531 C 130.324219 77.050781 130.386719 76.652344 130.636719 76.375 L 138.558594 67.511719 L 130.636719 58.65625 C 130.386719 58.375 130.320312 57.976562 130.472656 57.632812 C 130.628906 57.289062 130.964844 57.070312 131.335938 57.070312 L 137 57.070312 C 137.265625 57.070312 137.519531 57.1875 137.703125 57.382812 L 146.195312 66.878906 C 146.515625 67.238281 146.515625 67.789062 146.195312 68.148438 Z M 146.195312 68.148438 " fill-opacity="1" fill-rule="nonzero"/></g><g clip-path="url(#3b20576865)"><path fill="#38b6ff" d="M 133.925781 68.148438 L 125.433594 77.640625 C 125.25 77.84375 125 77.957031 124.730469 77.957031 L 119.070312 77.957031 C 118.695312 77.957031 118.359375 77.738281 118.207031 77.394531 C 118.054688 77.050781 118.117188 76.652344 118.367188 76.375 L 126.292969 67.511719 L 118.367188 58.65625 C 118.117188 58.375 118.054688 57.976562 118.207031 57.632812 C 118.359375 57.289062 118.695312 57.070312 119.070312 57.070312 L 124.730469 57.070312 C 125 57.070312 125.25 57.1875 125.433594 57.382812 L 133.925781 66.878906 C 134.25 67.238281 134.25 67.789062 133.925781 68.148438 Z M 133.925781 68.148438 " fill-opacity="1" fill-rule="nonzero"/></g><g clip-path="url(#716d6623fb)"><g clip-path="url(#88ad4a186a)"><g clip-path="url(#1d19dfd732)"><path fill="#38b6ff" d="M 182.71875 68.148438 L 173.941406 77.382812 C 173.753906 77.578125 173.5 77.6875 173.230469 77.675781 L 167.570312 77.507812 C 167.199219 77.496094 166.871094 77.265625 166.726562 76.917969 C 166.585938 76.570312 166.660156 76.171875 166.917969 75.902344 L 175.105469 67.285156 L 167.453125 58.191406 C 167.210938 57.90625 167.160156 57.503906 167.320312 57.167969 C 167.484375 56.828125 167.828125 56.617188 168.199219 56.628906 L 173.859375 56.800781 C 174.128906 56.808594 174.378906 56.929688 174.554688 57.132812 L 182.757812 66.878906 C 183.066406 67.25 183.050781 67.800781 182.71875 68.148438 Z M 182.71875 68.148438 " fill-opacity="1" fill-rule="nonzero"/></g></g></g><g clip-path="url(#c116cbace3)"><g clip-path="url(#56524d66e9)"><g clip-path="url(#2a3a201fca)"><path fill="#38b6ff" d="M 170.457031 67.78125 L 161.679688 77.015625 C 161.492188 77.210938 161.238281 77.316406 160.96875 77.308594 L 155.308594 77.136719 C 154.9375 77.125 154.605469 76.894531 154.464844 76.550781 C 154.324219 76.203125 154.398438 75.804688 154.65625 75.535156 L 162.84375 66.917969 L 155.1875 57.824219 C 154.949219 57.539062 154.894531 57.136719 155.058594 56.796875 C 155.222656 56.457031 155.566406 56.25 155.9375 56.261719 L 161.597656 56.429688 C 161.867188 56.4375 162.113281 56.5625 162.289062 56.765625 L 170.492188 66.511719 C 170.804688 66.878906 170.789062 67.429688 170.457031 67.78125 Z M 170.457031 67.78125 " fill-opacity="1" fill-rule="nonzero"/></g></g></g><g clip-path="url(#415c3367d8)"><g clip-path="url(#e363db25e6)"><g clip-path="url(#1bc870f16a)"><path fill="#38b6ff" d="M 294.371094 68.148438 L 285.59375 77.382812 C 285.40625 77.578125 285.152344 77.6875 284.882812 77.675781 L 279.222656 77.507812 C 278.851562 77.496094 278.523438 77.265625 278.378906 76.917969 C 278.238281 76.570312 278.3125 76.171875 278.570312 75.902344 L 286.757812 67.285156 L 279.105469 58.191406 C 278.863281 57.90625 278.8125 57.503906 278.972656 57.167969 C 279.136719 56.828125 279.480469 56.617188 279.851562 56.628906 L 285.511719 56.800781 C 285.78125 56.808594 286.03125 56.929688 286.207031 57.132812 L 294.410156 66.878906 C 294.71875 67.25 294.703125 67.800781 294.371094 68.148438 Z M 294.371094 68.148438 " fill-opacity="1" fill-rule="nonzero"/></g></g></g><g clip-path="url(#2a76610bf0)"><g clip-path="url(#e27d65ecd0)"><g clip-path="url(#92ad5715c2)"><path fill="#38b6ff" d="M 282.109375 67.78125 L 273.332031 77.015625 C 273.144531 77.210938 272.890625 77.316406 272.621094 77.308594 L 266.960938 77.136719 C 266.589844 77.125 266.257812 76.894531 266.117188 76.550781 C 265.976562 76.203125 266.050781 75.804688 266.308594 75.535156 L 274.496094 66.917969 L 266.839844 57.824219 C 266.601562 57.539062 266.546875 57.136719 266.710938 56.796875 C 266.875 56.457031 267.21875 56.25 267.589844 56.261719 L 273.25 56.429688 C 273.519531 56.4375 273.765625 56.5625 273.941406 56.765625 L 282.144531 66.511719 C 282.457031 66.878906 282.441406 67.429688 282.109375 67.78125 Z M 282.109375 67.78125 " fill-opacity="1" fill-rule="nonzero"/></g></g></g><g clip-path="url(#734501ff2f)"><g clip-path="url(#42256d2336)"><g clip-path="url(#44c3bccf10)"><path fill="#5ce1e6" d="M 257.246094 68.148438 L 248.46875 77.382812 C 248.28125 77.578125 248.027344 77.6875 247.757812 77.675781 L 242.097656 77.507812 C 241.726562 77.496094 241.398438 77.265625 241.253906 76.917969 C 241.113281 76.570312 241.1875 76.171875 241.445312 75.902344 L 249.632812 67.285156 L 241.980469 58.191406 C 241.738281 57.90625 241.6875 57.503906 241.847656 57.167969 C 242.011719 56.828125 242.355469 56.617188 242.726562 56.628906 L 248.386719 56.800781 C 248.65625 56.808594 248.90625 56.929688 249.082031 57.132812 L 257.285156 66.878906 C 257.59375 67.25 257.578125 67.800781 257.246094 68.148438 Z M 257.246094 68.148438 " fill-opacity="1" fill-rule="nonzero"/></g></g></g><g clip-path="url(#b6f992d1ab)"><g clip-path="url(#18adf05ac7)"><g clip-path="url(#7f7126597a)"><path fill="#5ce1e6" d="M 244.984375 67.78125 L 236.207031 77.015625 C 236.019531 77.210938 235.765625 77.316406 235.496094 77.308594 L 229.835938 77.136719 C 229.464844 77.125 229.132812 76.894531 228.992188 76.550781 C 228.851562 76.203125 228.925781 75.804688 229.183594 75.535156 L 237.371094 66.917969 L 229.714844 57.824219 C 229.476562 57.539062 229.421875 57.136719 229.585938 56.796875 C 229.75 56.457031 230.09375 56.25 230.464844 56.261719 L 236.125 56.429688 C 236.394531 56.4375 236.640625 56.5625 236.816406 56.765625 L 245.019531 66.511719 C 245.332031 66.878906 245.316406 67.429688 244.984375 67.78125 Z M 244.984375 67.78125 " fill-opacity="1" fill-rule="nonzero"/></g></g></g><g clip-path="url(#5b51635206)"><g clip-path="url(#799aefd69c)"><g clip-path="url(#c5c340fac4)"><path fill="#38b6ff" d="M 220.730469 68.148438 L 211.953125 77.382812 C 211.765625 77.578125 211.511719 77.6875 211.242188 77.675781 L 205.582031 77.507812 C 205.210938 77.496094 204.878906 77.265625 204.738281 76.917969 C 204.597656 76.570312 204.671875 76.171875 204.929688 75.902344 L 213.117188 67.285156 L 205.460938 58.191406 C 205.222656 57.90625 205.167969 57.503906 205.332031 57.167969 C 205.496094 56.828125 205.839844 56.617188 206.210938 56.628906 L 211.871094 56.800781 C 212.140625 56.808594 212.386719 56.929688 212.5625 57.132812 L 220.765625 66.878906 C 221.078125 67.25 221.0625 67.800781 220.730469 68.148438 Z M 220.730469 68.148438 " fill-opacity="1" fill-rule="nonzero"/></g></g></g><g clip-path="url(#2830183f55)"><g clip-path="url(#d0fe646e2f)"><g clip-path="url(#6ee6ce4cd0)"><path fill="#38b6ff" d="M 208.464844 67.78125 L 199.691406 77.015625 C 199.503906 77.210938 199.246094 77.316406 198.980469 77.308594 L 193.320312 77.136719 C 192.949219 77.125 192.617188 76.894531 192.476562 76.550781 C 192.335938 76.203125 192.410156 75.804688 192.664062 75.535156 L 200.855469 66.917969 L 193.199219 57.824219 C 192.957031 57.539062 192.90625 57.136719 193.070312 56.796875 C 193.234375 56.457031 193.578125 56.25 193.949219 56.261719 L 199.609375 56.429688 C 199.875 56.4375 200.125 56.5625 200.300781 56.765625 L 208.503906 66.511719 C 208.816406 66.878906 208.800781 67.429688 208.464844 67.78125 Z M 208.464844 67.78125 " fill-opacity="1" fill-rule="nonzero"/></g></g></g></svg>