<svg xmlns="http://www.w3.org/2000/svg" width="450" viewBox="0 0 337.5 375" height="500" version="1.0"><defs><clipPath id="prefix__a"><path d="M0 52.777h303.75V323H0zm0 0"/></clipPath><clipPath id="prefix__b"><path d="M7.918 142.824C3.137 156.668 0 172.406 0 187.852c0 15.445 2.688 30.304 7.469 44.003.152.29.152.583.3.875 19.122 51.434 69.622 89.32 127.887 90.047H303.75v-270H135.781c-58.687.73-109.187 38.032-127.863 90.047"/></clipPath><clipPath id="prefix__c"><path d="M0 52.777h303.75v270H0zm0 0"/></clipPath><clipPath id="prefix__d"><path d="M7.918 142.824C3.137 156.668 0 172.406 0 187.852c0 15.445 2.688 30.304 7.469 44.003.152.29.152.583.3.875 19.122 51.434 69.622 89.32 127.887 90.047H303.75v-270H135.781c-58.687.73-109.187 38.032-127.863 90.047"/></clipPath><clipPath id="prefix__e"><path d="M33 77h217v218H33zm0 0"/></clipPath><clipPath id="prefix__f"><path d="M219.207 54.383l54.254 209.37-209.375 54.255L9.832 108.633zm0 0"/></clipPath><clipPath id="prefix__g"><path d="M246.297 158.93c-14.961-57.743-73.899-92.422-131.637-77.457-57.738 14.96-92.418 73.894-77.457 131.636 14.961 57.739 73.899 92.418 131.637 77.457 57.738-14.96 92.418-73.898 77.457-131.636"/></clipPath><clipPath id="prefix__h"><path d="M33 77h217v218H33zm0 0"/></clipPath><clipPath id="prefix__i"><path d="M219.207 54.383l54.18 209.094-209.094 54.18-54.18-209.094zm0 0"/></clipPath><clipPath id="prefix__j"><path d="M219.207 54.383l54.945 212.05-212.05 54.946-54.946-212.05zm0 0"/></clipPath><clipPath id="prefix__k"><path d="M246.297 158.93c-14.961-57.743-73.899-92.422-131.637-77.457-57.738 14.96-92.418 73.894-77.457 131.636 14.961 57.739 73.899 92.418 131.637 77.457 57.738-14.96 92.418-73.898 77.457-131.636"/></clipPath><clipPath id="prefix__l"><path d="M173 158h36v27h-36zm0 0"/></clipPath><clipPath id="prefix__m"><path d="M203.887 158.934l4.625 17.566-30.871 8.129-4.625-17.566zm0 0"/></clipPath><clipPath id="prefix__n"><path d="M203.887 158.934l4.523 17.183-30.68 8.074-4.523-17.18zm0 0"/></clipPath><clipPath id="prefix__o"><path d="M117 213h27v36h-27zm0 0"/></clipPath><clipPath id="prefix__p"><path d="M126.285 213.102l17.469 4.972-8.734 30.707-17.47-4.972zm0 0"/></clipPath><clipPath id="prefix__q"><path d="M126.285 213.102l17.086 4.863-8.68 30.515-17.09-4.859zm0 0"/></clipPath><clipPath id="prefix__r"><path d="M109 148h82v83h-82zm0 0"/></clipPath><clipPath id="prefix__s"><path d="M79.148 178.512l60.782-59.7 51.847 52.782-60.78 59.703zm0 0"/></clipPath><clipPath id="prefix__t"><path d="M109.305 148.89l81.504 22.653-60.317 59.246-21.187-81.898"/></clipPath><clipPath id="prefix__u"><path d="M97 137h36v36H97zm0 0"/></clipPath><clipPath id="prefix__v"><path d="M97.434 149.488l12.957-12.73 22.37 22.777-12.956 12.727zm0 0"/></clipPath><clipPath id="prefix__w"><path d="M97.434 149.488l12.675-12.449 22.23 22.633-12.671 12.45zm0 0"/></clipPath><clipPath id="prefix__x"><path d="M61 100h57v57H61zm0 0"/></clipPath><clipPath id="prefix__y"><path d="M88.11 167.906l-38.051-40.57 40.566-38.05 38.055 40.57zm0 0"/></clipPath><clipPath id="prefix__z"><path d="M69.086 147.621c10.508 11.203 28.105 11.766 39.309 1.258 11.203-10.508 11.765-28.106 1.257-39.309-10.507-11.203-28.105-11.765-39.308-1.257-11.203 10.507-11.766 28.105-1.258 39.308"/></clipPath><clipPath id="prefix__A"><path d="M61 100h57v57H61zm0 0"/></clipPath><clipPath id="prefix__B"><path d="M88.11 167.906l-37.97-40.48 40.481-37.969 37.969 40.48zm0 0"/></clipPath><clipPath id="prefix__C"><path d="M88.11 167.906l-37.97-40.48 40.481-37.969 37.969 40.48zm0 0"/></clipPath><clipPath id="prefix__D"><path d="M69.125 147.668c10.484 11.176 28.047 11.738 39.227 1.254 11.175-10.484 11.738-28.047 1.253-39.223-10.484-11.18-28.046-11.742-39.222-1.258-11.18 10.485-11.742 28.047-1.258 39.227"/></clipPath><clipPath id="prefix__E"><path d="M94 231h57v57H94zm0 0"/></clipPath><clipPath id="prefix__F"><path d="M88.215 279.023l14.898-53.59 53.59 14.895-14.898 53.59zm0 0"/></clipPath><clipPath id="prefix__G"><path d="M95.664 252.227c-4.113 14.796 4.547 30.128 19.348 34.246 14.797 4.113 30.129-4.551 34.242-19.348 4.113-14.797-4.547-30.129-19.344-34.246-14.8-4.113-30.133 4.55-34.246 19.348"/></clipPath><clipPath id="prefix__H"><path d="M94 231h57v57H94zm0 0"/></clipPath><clipPath id="prefix__I"><path d="M88.215 279.023l14.867-53.472 53.473 14.863-14.868 53.473zm0 0"/></clipPath><clipPath id="prefix__J"><path d="M88.215 279.023l14.867-53.472 53.473 14.863-14.868 53.473zm0 0"/></clipPath><clipPath id="prefix__K"><path d="M95.648 252.285c-4.105 14.766 4.54 30.063 19.305 34.168 14.766 4.106 30.063-4.535 34.168-19.3 4.106-14.766-4.539-30.067-19.305-34.173-14.765-4.101-30.062 4.54-34.168 19.305"/></clipPath><clipPath id="prefix__L"><path d="M188 137h56v57h-56zm0 0"/></clipPath><clipPath id="prefix__M"><path d="M195.922 199.152l-13.953-53.843 53.847-13.95 13.95 53.844zm0 0"/></clipPath><clipPath id="prefix__N"><path d="M188.945 172.23c3.856 14.872 19.032 23.801 33.899 19.946 14.87-3.852 23.8-19.028 19.945-33.895-3.851-14.87-19.027-23.8-33.898-19.949-14.868 3.856-23.797 19.031-19.946 33.898"/></clipPath><clipPath id="prefix__O"><path d="M188 137h56v57h-56zm0 0"/></clipPath><clipPath id="prefix__P"><path d="M195.922 199.152L182 145.43l53.727-13.922 13.921 53.722zm0 0"/></clipPath><clipPath id="prefix__Q"><path d="M195.922 199.152L182 145.43l53.727-13.922 13.921 53.722zm0 0"/></clipPath><clipPath id="prefix__R"><path d="M188.96 172.29c3.845 14.835 18.99 23.75 33.825 19.901 14.836-3.843 23.746-18.984 19.903-33.82-3.844-14.836-18.989-23.75-33.825-19.902-14.836 3.844-23.746 18.984-19.902 33.82"/></clipPath><clipPath id="prefix__S"><path d="M82 121h15v15H82zm0 0"/></clipPath><clipPath id="prefix__T"><path d="M79.5 128.512l9.957-9.782 9.781 9.957-9.957 9.786zm0 0"/></clipPath><clipPath id="prefix__U"><path d="M84.477 123.621a6.982 6.982 0 009.785 9.96 6.982 6.982 0 00-9.785-9.96"/></clipPath><clipPath id="prefix__V"><path d="M115 252h15v15h-15zm0 0"/></clipPath><clipPath id="prefix__W"><path d="M117.602 251.086l13.449 3.738-3.738 13.45-13.45-3.739zm0 0"/></clipPath><clipPath id="prefix__X"><path d="M124.324 252.957c-3.71-1.035-7.558 1.14-8.594 4.856a6.982 6.982 0 004.856 8.593 6.979 6.979 0 008.594-4.855 6.976 6.976 0 00-4.856-8.594"/></clipPath><clipPath id="prefix__Y"><path d="M208 157h15v15h-15zm0 0"/></clipPath><clipPath id="prefix__Z"><path d="M205.719 164.172l9.957-9.781 9.781 9.957-9.957 9.78zm0 0"/></clipPath><clipPath id="prefix__aa"><path d="M210.695 159.281a6.979 6.979 0 00-.086 9.871 6.974 6.974 0 009.868.086 6.979 6.979 0 10-9.782-9.957"/></clipPath><clipPath id="prefix__ab"><path d="M137 115h47v16h-47zm0 0"/></clipPath><clipPath id="prefix__ac"><path d="M183.27 133.035l-46.47-8.574 2.454-13.277 46.465 8.574zm0 0"/></clipPath><clipPath id="prefix__ad"><path d="M136.617 124.426L183.082 133l2.45-13.277-46.466-8.575zm0 0"/></clipPath><clipPath id="prefix__ae"><path d="M136.617 124.426L183.082 133l2.45-13.277-46.466-8.575zm0 0"/></clipPath><clipPath id="prefix__af"><path d="M144 119h1v1h-1zm0 0"/></clipPath><clipPath id="prefix__ag"><path d="M183.27 133.035l-46.47-8.574 2.454-13.277 46.465 8.574zm0 0"/></clipPath><clipPath id="prefix__ah"><path d="M136.617 124.426L183.082 133l2.45-13.277-46.466-8.575zm0 0"/></clipPath><clipPath id="prefix__ai"><path d="M136.617 124.426L183.082 133l2.45-13.277-46.466-8.575zm0 0"/></clipPath><clipPath id="prefix__aj"><path d="M172 210h33v38h-33zm0 0"/></clipPath><clipPath id="prefix__ak"><path d="M169.238 243.293l33.758-33.063 9.445 9.645-33.757 33.063zm0 0"/></clipPath><clipPath id="prefix__al"><path d="M203.129 210.098L169.37 243.16l9.445 9.645 33.758-33.063zm0 0"/></clipPath><clipPath id="prefix__am"><path d="M203.129 210.098L169.37 243.16l9.445 9.645 33.758-33.063zm0 0"/></clipPath><clipPath id="prefix__an"><path d="M202 219h1v1h-1zm0 0"/></clipPath><clipPath id="prefix__ao"><path d="M169.238 243.293l33.758-33.063 9.445 9.645-33.757 33.063zm0 0"/></clipPath><clipPath id="prefix__ap"><path d="M203.129 210.098L169.37 243.16l9.445 9.645 33.758-33.063zm0 0"/></clipPath><clipPath id="prefix__aq"><path d="M203.129 210.098L169.37 243.16l9.445 9.645 33.758-33.063zm0 0"/></clipPath><clipPath id="prefix__ar"><path d="M70 179h20v47H70zm0 0"/></clipPath><clipPath id="prefix__as"><path d="M81.48 178.32l7.926 46.582-13.308 2.266-7.926-46.582zm0 0"/></clipPath><clipPath id="prefix__at"><path d="M89.438 225.086l-7.926-46.578-13.309 2.262 7.926 46.582zm0 0"/></clipPath><clipPath id="prefix__au"><path d="M89.438 225.086l-7.926-46.578-13.309 2.262 7.926 46.582zm0 0"/></clipPath><clipPath id="prefix__av"><path d="M82 218h1v2h-1zm0 0"/></clipPath><clipPath id="prefix__aw"><path d="M81.48 178.32l7.926 46.582-13.308 2.266-7.926-46.582zm0 0"/></clipPath><clipPath id="prefix__ax"><path d="M89.438 225.086l-7.926-46.578-13.309 2.262 7.926 46.582zm0 0"/></clipPath><clipPath id="prefix__ay"><path d="M89.438 225.086l-7.926-46.578-13.309 2.262 7.926 46.582zm0 0"/></clipPath><clipPath id="prefix__az"><path d="M266.625 297.129H283v21h-16.375zm0 0"/></clipPath><clipPath id="prefix__aA"><path d="M278 297.129h16.785v21H278zm0 0"/></clipPath><clipPath id="prefix__aB"><path d="M229.5 297.129H246v21h-16.5zm0 0"/></clipPath><clipPath id="prefix__aC"><path d="M241 297.129h16.66v21H241zm0 0"/></clipPath><clipPath id="prefix__aD"><path d="M192.375 297.129H209v21h-16.625zm0 0"/></clipPath><clipPath id="prefix__aE"><path d="M204 297.129h16.535v21H204zm0 0"/></clipPath><clipPath id="prefix__aF"><path d="M155.25 297.129H172v21h-16.75zm0 0"/></clipPath><clipPath id="prefix__aG"><path d="M167 297.129h16.41v21H167zm0 0"/></clipPath><clipPath id="prefix__aH"><path d="M117 297h18v22h-18zm0 0"/></clipPath><clipPath id="prefix__aI"><path d="M117.945 297.379l28.496-.504.371 20.996-28.496.504zm0 0"/></clipPath><clipPath id="prefix__aJ"><path d="M146.102 296.879l-28.497.504.372 20.996 28.496-.504zm0 0"/></clipPath><clipPath id="prefix__aK"><path d="M130 296h17v22h-17zm0 0"/></clipPath><clipPath id="prefix__aL"><path d="M117.945 297.379l28.496-.504.371 20.996-28.496.504zm0 0"/></clipPath><clipPath id="prefix__aM"><path d="M146.102 296.879l-28.497.504.372 20.996 28.496-.504zm0 0"/></clipPath><clipPath id="prefix__aN"><path d="M75 282h20v22H75zm0 0"/></clipPath><clipPath id="prefix__aO"><path d="M81.105 277.734l23.989 15.387-11.336 17.676-23.992-15.387zm0 0"/></clipPath><clipPath id="prefix__aP"><path d="M104.809 292.938L80.816 277.55 69.48 295.227l23.989 15.386zm0 0"/></clipPath><clipPath id="prefix__aQ"><path d="M85 289h20v22H85zm0 0"/></clipPath><clipPath id="prefix__aR"><path d="M81.105 277.734l23.989 15.387-11.336 17.676-23.992-15.387zm0 0"/></clipPath><clipPath id="prefix__aS"><path d="M104.809 292.938L80.816 277.55 69.48 295.227l23.989 15.386zm0 0"/></clipPath><clipPath id="prefix__aT"><path d="M39 261h21v21H39zm0 0"/></clipPath><clipPath id="prefix__aU"><path d="M48.059 255.742l20.527 19.77-14.566 15.125-20.528-19.77zm0 0"/></clipPath><clipPath id="prefix__aV"><path d="M68.34 275.277l-20.528-19.773-14.566 15.129 20.527 19.77zm0 0"/></clipPath><clipPath id="prefix__aW"><path d="M48 270h20v20H48zm0 0"/></clipPath><clipPath id="prefix__aX"><path d="M48.059 255.742l20.527 19.77-14.566 15.125-20.528-19.77zm0 0"/></clipPath><clipPath id="prefix__aY"><path d="M68.34 275.277l-20.528-19.773-14.566 15.129 20.527 19.77zm0 0"/></clipPath><clipPath id="prefix__aZ"><path d="M17 226h22v19H17zm0 0"/></clipPath><clipPath id="prefix__ba"><path d="M31.219 221.023l14.32 24.641-18.152 10.555-14.325-24.64zm0 0"/></clipPath><clipPath id="prefix__bb"><path d="M45.371 245.371l-14.324-24.64-18.156 10.554 14.324 24.64zm0 0"/></clipPath><clipPath id="prefix__bc"><path d="M23 236h22v20H23zm0 0"/></clipPath><clipPath id="prefix__bd"><path d="M31.219 221.023l14.32 24.641-18.152 10.555-14.325-24.64zm0 0"/></clipPath><clipPath id="prefix__be"><path d="M45.371 245.371l-14.324-24.64-18.156 10.554 14.324 24.64zm0 0"/></clipPath><clipPath id="prefix__bf"><path d="M8.879 171.938h21V188h-21zm0 0"/></clipPath><clipPath id="prefix__bg"><path d="M8.879 184h21v16.098h-21zm0 0"/></clipPath><clipPath id="prefix__bh"><path d="M20 121h22v20H20zm0 0"/></clipPath><clipPath id="prefix__bi"><path d="M46.379 127.648l-16.234 23.426-17.262-11.965 16.234-23.422zm0 0"/></clipPath><clipPath id="prefix__bj"><path d="M30.34 150.793l16.234-23.426-17.261-11.96-16.235 23.425zm0 0"/></clipPath><clipPath id="prefix__bk"><path d="M13 131h22v20H13zm0 0"/></clipPath><clipPath id="prefix__bl"><path d="M46.379 127.648l-16.234 23.426-17.262-11.965 16.234-23.422zm0 0"/></clipPath><clipPath id="prefix__bm"><path d="M30.34 150.793l16.234-23.426-17.261-11.96-16.235 23.425zm0 0"/></clipPath><clipPath id="prefix__bn"><path d="M47 87h19v21H47zm0 0"/></clipPath><clipPath id="prefix__bo"><path d="M72.52 97.336L51.426 116.5l-14.121-15.543 21.093-19.164zm0 0"/></clipPath><clipPath id="prefix__bp"><path d="M51.676 116.27L72.77 97.105 58.648 81.562l-21.093 19.165zm0 0"/></clipPath><clipPath id="prefix__bq"><path d="M37 96h20v20H37zm0 0"/></clipPath><clipPath id="prefix__br"><path d="M72.52 97.336L51.426 116.5l-14.121-15.543 21.093-19.164zm0 0"/></clipPath><clipPath id="prefix__bs"><path d="M51.676 116.27L72.77 97.105 58.648 81.562l-21.093 19.165zm0 0"/></clipPath><clipPath id="prefix__bt"><path d="M81 66h20v22H81zm0 0"/></clipPath><clipPath id="prefix__bu"><path d="M104.922 81.059L79.344 93.633l-9.266-18.848 25.578-12.57zm0 0"/></clipPath><clipPath id="prefix__bv"><path d="M79.648 93.48l25.579-12.57-9.266-18.847-25.578 12.574zm0 0"/></clipPath><clipPath id="prefix__bw"><path d="M70 71h20v23H70zm0 0"/></clipPath><clipPath id="prefix__bx"><path d="M104.922 81.059L79.344 93.633l-9.266-18.848 25.578-12.57zm0 0"/></clipPath><clipPath id="prefix__by"><path d="M79.648 93.48l25.579-12.57-9.266-18.847-25.578 12.574zm0 0"/></clipPath><clipPath id="prefix__bz"><path d="M130 57.016h16.285V78H130zm0 0"/></clipPath><clipPath id="prefix__bA"><path d="M118.125 57.016H135V78h-16.875zm0 0"/></clipPath><clipPath id="prefix__bB"><path d="M166 56h17v22h-17zm0 0"/></clipPath><clipPath id="prefix__bC"><path d="M182.512 78.016l-28.489-.86.633-20.992 28.489.86zm0 0"/></clipPath><clipPath id="prefix__bD"><path d="M154.363 77.164l28.489.86.632-20.989-28.488-.86zm0 0"/></clipPath><clipPath id="prefix__bE"><path d="M154 56h17v22h-17zm0 0"/></clipPath><clipPath id="prefix__bF"><path d="M182.512 78.016l-28.489-.86.633-20.992 28.489.86zm0 0"/></clipPath><clipPath id="prefix__bG"><path d="M154.363 77.164l28.489.86.632-20.989-28.488-.86zm0 0"/></clipPath><clipPath id="prefix__bH"><path d="M278 56h17v22h-17zm0 0"/></clipPath><clipPath id="prefix__bI"><path d="M294.164 78.016l-28.488-.86.633-20.992 28.488.86zm0 0"/></clipPath><clipPath id="prefix__bJ"><path d="M266.016 77.164l28.488.86.633-20.989-28.489-.86zm0 0"/></clipPath><clipPath id="prefix__bK"><path d="M266 56h17v22h-17zm0 0"/></clipPath><clipPath id="prefix__bL"><path d="M294.164 78.016l-28.488-.86.633-20.992 28.488.86zm0 0"/></clipPath><clipPath id="prefix__bM"><path d="M266.016 77.164l28.488.86.633-20.989-28.489-.86zm0 0"/></clipPath><clipPath id="prefix__bN"><path d="M241 56h17v22h-17zm0 0"/></clipPath><clipPath id="prefix__bO"><path d="M257.04 78.016l-28.49-.86.634-20.992 28.488.86zm0 0"/></clipPath><clipPath id="prefix__bP"><path d="M228.89 77.164l28.489.86.633-20.989-28.489-.86zm0 0"/></clipPath><clipPath id="prefix__bQ"><path d="M228 56h18v22h-18zm0 0"/></clipPath><clipPath id="prefix__bR"><path d="M257.04 78.016l-28.49-.86.634-20.992 28.488.86zm0 0"/></clipPath><clipPath id="prefix__bS"><path d="M228.89 77.164l28.489.86.633-20.989-28.489-.86zm0 0"/></clipPath><clipPath id="prefix__bT"><path d="M204 56h17v22h-17zm0 0"/></clipPath><clipPath id="prefix__bU"><path d="M220.523 78.016l-28.488-.86.633-20.992 28.488.86zm0 0"/></clipPath><clipPath id="prefix__bV"><path d="M192.375 77.164l28.488.86.633-20.989-28.488-.86zm0 0"/></clipPath><clipPath id="prefix__bW"><path d="M192 56h17v22h-17zm0 0"/></clipPath><clipPath id="prefix__bX"><path d="M220.523 78.016l-28.488-.86.633-20.992 28.488.86zm0 0"/></clipPath><clipPath id="prefix__bY"><path d="M192.375 77.164l28.488.86.633-20.989-28.488-.86zm0 0"/></clipPath></defs><g clip-path="url(#prefix__a)"><g clip-path="url(#prefix__b)"><path fill="#919191" d="M303.75 52.777V323.04H-.133V52.777zm0 0"/></g></g><g clip-path="url(#prefix__c)"><g clip-path="url(#prefix__d)"><path fill="none" d="M7.918 142.824C3.137 156.668 0 172.406 0 187.852c0 15.445 2.687 30.304 7.469 44.003.152.29.152.583.3.875 19.122 51.434 69.622 89.32 127.887 90.047H303.75v-270H135.781c-58.687.73-109.187 38.032-127.863 90.047" stroke="#000" stroke-width="3"/></g></g><g clip-path="url(#prefix__e)"><g clip-path="url(#prefix__f)"><g clip-path="url(#prefix__g)"><path fill="#707070" d="M219.207 54.383l54.113 208.836-208.836 54.113-54.117-208.836zm0 0"/></g></g></g><g clip-path="url(#prefix__h)"><g clip-path="url(#prefix__i)"><g clip-path="url(#prefix__j)"><g clip-path="url(#prefix__k)"><path fill="none" d="M246.297 158.93c-14.961-57.742-73.899-92.422-131.637-77.457-57.738 14.96-92.418 73.894-77.457 131.636 14.961 57.739 73.899 92.418 131.637 77.458 57.738-14.961 92.418-73.899 77.457-131.637" stroke="#000" stroke-width="6"/></g></g></g></g><g clip-path="url(#prefix__l)"><g clip-path="url(#prefix__m)"><g clip-path="url(#prefix__n)"><path fill="#ffde59" d="M203.887 158.934l4.484 17.035-30.871 8.125-4.484-17.031zm0 0"/></g></g></g><g clip-path="url(#prefix__o)"><g clip-path="url(#prefix__p)"><g clip-path="url(#prefix__q)"><path fill="#ffde59" d="M126.285 213.102l16.942 4.82-8.735 30.707-16.941-4.82zm0 0"/></g></g></g><g clip-path="url(#prefix__r)"><g clip-path="url(#prefix__s)"><g clip-path="url(#prefix__t)"><path fill="#ffde59" d="M79.148 178.512l60.25-59.176 51.32 52.25-60.25 59.18zm0 0"/></g></g></g><g clip-path="url(#prefix__u)"><g clip-path="url(#prefix__v)"><g clip-path="url(#prefix__w)"><path fill="#ffde59" d="M97.434 149.488L110 137.145l22.371 22.777-12.566 12.34zm0 0"/></g></g></g><g clip-path="url(#prefix__x)"><g clip-path="url(#prefix__y)"><g clip-path="url(#prefix__z)"><path fill="#ffde59" d="M88.11 167.906l-38.051-40.57 40.566-38.05 38.055 40.57zm0 0"/></g></g></g><g clip-path="url(#prefix__A)"><g clip-path="url(#prefix__B)"><g clip-path="url(#prefix__C)"><g clip-path="url(#prefix__D)"><path d="M71.309 145.617c3.8 4.051 8.43 6.543 13.89 7.469l-1.004 5.902c-6.785-1.152-12.535-4.242-17.254-9.273zm16.546 7.774c5.547.34 10.618-1.024 15.211-4.086l3.32 4.984c-5.71 3.805-12.011 5.5-18.898 5.078zm17.348-5.68c.375-.313.742-.637 1.098-.973 3.668-3.437 6.062-7.597 7.187-12.472l5.832 1.343c-1.394 6.063-4.37 11.227-8.922 15.496-.441.415-.894.817-1.359 1.204zm8.742-16.082c.66-5.52-.406-10.664-3.195-15.434l5.168-3.023c3.469 5.926 4.793 12.312 3.973 19.168zm-4.66-17.649a24.656 24.656 0 00-1.863-2.234c-3.086-3.289-6.777-5.562-11.082-6.82l1.68-5.75c5.347 1.566 9.937 4.39 13.77 8.472a30.427 30.427 0 012.308 2.77zm-15.543-9.668c-5.472-.976-10.668-.21-15.59 2.29l-2.715-5.336c6.118-3.11 12.567-4.059 19.356-2.848zm-17.906 3.633a24.885 24.885 0 00-3.406 2.68c-2.918 2.738-5.043 5.973-6.38 9.71l-5.636-2.01c1.656-4.65 4.297-8.669 7.918-12.067a31.083 31.083 0 014.227-3.324zm-10.543 14.95c-1.293 5.402-.832 10.636 1.379 15.703l-5.484 2.394c-2.75-6.293-3.32-12.789-1.72-19.492zm2.582 18.09a24.926 24.926 0 003.434 4.632l-4.368 4.098a30.645 30.645 0 01-4.257-5.75zm0 0"/></g></g></g></g><g clip-path="url(#prefix__E)"><g clip-path="url(#prefix__F)"><g clip-path="url(#prefix__G)"><path fill="#ffde59" d="M88.215 279.023l14.898-53.59 53.59 14.895-14.898 53.59zm0 0"/></g></g></g><g clip-path="url(#prefix__H)"><g clip-path="url(#prefix__I)"><g clip-path="url(#prefix__J)"><g clip-path="url(#prefix__K)"><path d="M98.531 253.086c-1.488 5.351-1.207 10.601.836 15.75l-5.566 2.207c-2.54-6.395-2.883-12.914-1.035-19.559zm1.953 18.176c2.594 4.918 6.391 8.543 11.395 10.879l-2.531 5.425c-6.223-2.906-10.942-7.41-14.16-13.511zm13.871 11.875c.461.156.926.3 1.399.433 4.844 1.348 9.64 1.235 14.39-.34l1.88 5.684c-5.903 1.953-11.86 2.098-17.876.426a32.869 32.869 0 01-1.73-.54zm18.278-.883c5.062-2.305 8.906-5.89 11.527-10.75l5.27 2.844c-3.262 6.043-8.032 10.492-14.313 13.355zm12.664-13.152c.363-.895.68-1.813.937-2.754 1.211-4.344 1.235-8.684.075-13.012l5.78-1.55c1.446 5.382 1.415 10.773-.085 16.167-.324 1.164-.711 2.3-1.164 3.41zm.183-18.305c-2.007-5.18-5.359-9.227-10.054-12.129l3.148-5.094c5.836 3.61 10 8.633 12.488 15.063zm-12.402-13.41a24.762 24.762 0 00-4.062-1.52c-3.856-1.07-7.727-1.207-11.614-.406l-1.207-5.863c4.832-.996 9.64-.828 14.422.5a31.223 31.223 0 015.04 1.882zm-18.254-1.246c-5.289 1.703-9.52 4.816-12.699 9.336l-4.898-3.442c3.949-5.617 9.203-9.48 15.761-11.594zm-14.117 11.605a24.96 24.96 0 00-2.176 5.34l-5.765-1.602a30.632 30.632 0 012.699-6.629zm0 0"/></g></g></g></g><g clip-path="url(#prefix__L)"><g clip-path="url(#prefix__M)"><g clip-path="url(#prefix__N)"><path fill="#ffde59" d="M195.922 199.152l-13.953-53.843 53.847-13.95 13.95 53.844zm0 0"/></g></g></g><g clip-path="url(#prefix__O)"><g clip-path="url(#prefix__P)"><g clip-path="url(#prefix__Q)"><g clip-path="url(#prefix__R)"><path d="M191.86 171.54c1.394 5.378 4.261 9.78 8.609 13.21l-3.711 4.7c-5.399-4.262-8.965-9.731-10.696-16.407zm10.792 14.753c4.707 2.953 9.813 4.191 15.313 3.707l.523 5.96c-6.836.606-13.175-.929-19.02-4.597zm17.953 3.328c.48-.094.954-.203 1.43-.328 4.863-1.258 8.961-3.758 12.281-7.5l4.477 3.977c-4.129 4.648-9.215 7.753-15.258 9.32-.586.152-1.176.289-1.765.406zm15.38-9.922c3.226-4.531 4.757-9.554 4.593-15.078l5.984-.176c.204 6.86-1.695 13.102-5.699 18.727zm4.37-17.722c-.132-.961-.32-1.915-.566-2.856-1.133-4.367-3.281-8.133-6.457-11.3l4.23-4.239c3.946 3.938 6.618 8.617 8.024 14.035.3 1.172.535 2.348.7 3.54zm-9.011-15.938c-4.332-3.476-9.258-5.3-14.781-5.46l.175-5.985c6.86.199 12.98 2.46 18.356 6.777zm-17.453-5.394a25.087 25.087 0 00-4.278.718c-3.87 1.004-7.289 2.828-10.25 5.469l-3.984-4.469c3.684-3.285 7.926-5.547 12.734-6.793a31.053 31.053 0 015.301-.894zm-16.422 8.066c-3.723 4.121-5.828 8.937-6.313 14.445l-5.965-.527c.606-6.84 3.215-12.816 7.836-17.93zm-6.403 17.117c.043 1.926.305 3.828.793 5.711l-5.797 1.504c-.605-2.336-.93-4.7-.98-7.09zm0 0"/></g></g></g></g><g clip-path="url(#prefix__S)"><g clip-path="url(#prefix__T)"><g clip-path="url(#prefix__U)"><path fill="#707070" d="M79.5 128.512l9.957-9.782 9.781 9.957-9.957 9.786zm0 0"/></g></g></g><g clip-path="url(#prefix__V)"><g clip-path="url(#prefix__W)"><g clip-path="url(#prefix__X)"><path fill="#707070" d="M117.602 251.086l13.449 3.738-3.738 13.45-13.45-3.739zm0 0"/></g></g></g><g clip-path="url(#prefix__Y)"><g clip-path="url(#prefix__Z)"><g clip-path="url(#prefix__aa)"><path fill="#707070" d="M205.719 164.172l9.957-9.781 9.781 9.957-9.957 9.78zm0 0"/></g></g></g><g clip-path="url(#prefix__ab)"><g clip-path="url(#prefix__ac)"><g clip-path="url(#prefix__ad)"><g clip-path="url(#prefix__ae)"><path fill="#fff" d="M137.438 124.18a.108.108 0 01.007-.114c-.074-.125-.3-.078-.3-.285-.254-.37-.079-.672.167-.957.688-.793 1.489-1.46 2.329-2.074 3.011-2.207 6.34-3.676 9.957-4.566 6.316-1.551 12.398-.805 18.328 1.617 2.75 1.12 5.254 2.71 7.683 4.414 1.426 1.004 2.79 2.09 4.18 3.144l.098.18c.074.016.156.059.222.043.055-.016.036-.09-.015-.129-.188-.664-.504-1.266-.852-1.851-.238-.399-.441-.805-.52-1.27-.523-.855-.398-1.648.313-2.227 1.692 1.047 2.535 2.715 3.254 4.485.27.656.578 1.293.883 1.937.723 1.535.531 1.356-.238 2.508a2.722 2.722 0 01-.649.656c-.09.07-.18.125-.3.106-.212.281-.5.234-.782.172-.832-.188-1.66-.383-2.488-.578-.195.066-.371.004-.547-.07-.191.074-.367.007-.547-.051-.129.074-.258.015-.387.007-1.746-.07-3.472.055-5.18.48-.124.032-.257.055-.386.079-.152.035-.328.074-.414-.086-.07-.117-.012-.297.082-.371.402-.316.55-.832.914-1.172.16-.152.367-.227.582-.297 1.648-.55 3.344-.789 5.07-.86.153-.003.313.016.457-.023.172-.043.153-.187.098-.32-.176-.012-.285-.105-.336-.27-.16-.042-.309-.097-.36-.28-.042.011-.066-.005-.07-.048-.152-.035-.289-.093-.343-.257-.098-.047-.203-.082-.29-.145-.968-.687-1.921-1.387-2.898-2.062-.883-.614-1.785-1.2-2.68-1.793-.257-.13-.515-.247-.765-.383-2.426-1.324-4.973-2.332-7.668-2.953-.961-.22-1.93-.41-2.895-.614-.203.07-.382-.007-.566-.082-.195.075-.367.004-.543-.062-.18.082-.344 0-.512-.047-.113.066-.219.039-.324-.02-.043.02-.082.016-.117-.02-.125.071-.254.016-.383.013-.633-.008-1.258-.13-1.89-.055-.047-.063-.22-.121.015-.172.156-.035.172-.078.14-.121-.027-.04-.093-.078-.14-.113-1.996.043-3.965.328-5.914.742-.18.055-.356.11-.535.168-1.059.328-2.121.66-3.184.992a.182.182 0 01-.094.07.289.289 0 01-.082 0c-.043.063-.105.082-.175.067-.043.066-.102.086-.176.07-.04.066-.098.086-.172.07-.043.067-.102.09-.176.075-.039.066-.097.09-.172.07-.039.07-.097.094-.168.074l-.004.004c-.054.027-.109.05-.167.074h-.004c-.04.07-.094.094-.168.078h-.008c-.035.07-.09.094-.164.078h-.008v0c-.035.07-.09.098-.168.079h-.004c-.035.07-.09.097-.164.078h-.004c-.039.07-.094.097-.168.082-.508.277-1.012.558-1.52.836-.308.062-.55.261-.808.422a.239.239 0 00.133.195c-.184.14-.356.297-.59.344a.379.379 0 00-.203.074c.066-.024.133-.05.203-.074-.05.058-.106.105-.184.078-.043.11-.125.164-.234.187-.027.07-.074.11-.148.098-.047.066-.098.113-.18.105a.104.104 0 01-.082.067c-.153.172-.332.3-.547.383-.113.113-.227.234-.387.277-.047.098-.144.14-.23.184-.453.449-.985.812-1.371 1.375-.118-.211-.371-.227-.368-.465zm40.3 1.804h-.004v-.004l-.004.004h.004s0 .004-.004.004c.004 0 .004-.004.008-.004zm-33.562-6.398a.215.215 0 01.035-.027c-.004 0-.008.004-.012.004-.012.003-.023.007-.035.015 0 0 .004.004.012.008zm2.015-.465s-.004 0-.004-.004 0-.008-.003-.012l-.012-.015.016.031h.003zm-2.078.426c.016.012.035.023.047.031.012-.008.024-.012.035-.016a.091.091 0 01-.082-.015zm.16-.024c.012-.007.028-.011.04-.02v-.003l-.04.023zm-6.296 3.57l-.004.005h-.004l-.004.004c.004 0 .008-.004.012-.008zm.203-.195c0-.003 0-.007.004-.007 0 0-.004.004-.004.007zm2.672-.941a.119.119 0 01-.032-.031c-.004.008-.007.02-.011.027.015 0 .027.004.043.004zm-.38.328c-.023.008-.038.028-.054.05h.004a.209.209 0 01.05-.05zm0 0"/></g></g></g></g><g clip-path="url(#prefix__af)"><g clip-path="url(#prefix__ag)"><g clip-path="url(#prefix__ah)"><g clip-path="url(#prefix__ai)"><path fill="#fff" d="M144.8 119.7c.06-.024.114-.048.169-.075-.04.07-.094.094-.168.074zm0 0"/></g></g></g></g><g clip-path="url(#prefix__aj)"><g clip-path="url(#prefix__ak)"><g clip-path="url(#prefix__al)"><g clip-path="url(#prefix__am)"><path fill="#fff" d="M202.86 210.91c.042.008.07.031.085.07.145.016.243-.199.407-.082.453.008.593.325.687.692.254 1.015.336 2.055.36 3.097.066 3.735-.649 7.301-2 10.77-2.368 6.059-6.477 10.602-11.872 14.059-2.504 1.601-5.242 2.734-8.035 3.738-1.64.59-3.312 1.082-4.976 1.61-.067-.009-.133-.016-.203-.024-.06.05-.137.094-.16.156V245c-.02.05.054.078.113.059.648.23 1.324.316 2.004.367.464.035.914.105 1.335.308 1 .067 1.579.625 1.641 1.54-1.832.78-3.68.507-5.539.078-.691-.16-1.394-.27-2.09-.395-1.676-.293-1.418-.344-1.914-1.637a2.762 2.762 0 01-.168-.91c-.004-.113.004-.219.09-.305-.11-.335.098-.542.309-.738.632-.57 1.27-1.137 1.902-1.703.059-.195.215-.305.371-.406.05-.2.211-.305.36-.418.011-.145.136-.219.214-.32 1.067-1.387 1.957-2.872 2.59-4.512.047-.121.106-.242.156-.363.063-.145.133-.31.313-.29.133.012.25.165.254.282.027.511.363.93.433 1.422.032.218-.027.433-.093.648-.496 1.664-1.278 3.191-2.215 4.637-.082.133-.192.25-.246.39-.063.168.066.235.21.266a.349.349 0 01.415-.121c.125-.106.254-.195.433-.133.016-.043.043-.05.078-.027.118-.106.243-.184.41-.133.094-.05.184-.121.286-.156 1.117-.395 2.242-.774 3.355-1.18 1.008-.371 2.004-.773 3.008-1.16.25-.137.496-.281.754-.406 2.476-1.22 4.77-2.723 6.828-4.57.73-.66 1.445-1.34 2.168-2.012.059-.207.227-.313.39-.422.055-.2.212-.301.368-.407.035-.191.195-.28.332-.386.012-.133.094-.207.203-.254.008-.051.031-.078.082-.086.016-.145.137-.219.21-.32.368-.516.829-.957 1.134-1.516.074-.004.222-.11.133.113-.063.149-.04.184.015.184.05-.004.117-.035.176-.051 1.113-1.656 2.012-3.43 2.797-5.262.054-.18.113-.355.172-.535l1.02-3.172a.162.162 0 010-.12.176.176 0 01.042-.067.164.164 0 01.047-.184c-.031-.07-.012-.133.043-.18-.031-.074-.016-.132.043-.183-.031-.074-.016-.133.043-.184-.035-.074-.02-.132.039-.183v-.004c-.035-.067-.023-.13.035-.18v-.004c.008-.058.02-.117.035-.18l.004-.003c-.035-.07-.023-.13.031-.18l.004-.008c-.035-.066-.023-.129.032-.18l.004-.003v-.004.004c-.036-.07-.024-.133.03-.184l.005-.004c-.04-.066-.028-.129.031-.18v-.004c-.035-.07-.023-.132.031-.183.067-.574.125-1.149.192-1.723.125-.289.101-.601.12-.902a.222.222 0 00-.093-.031.225.225 0 00-.14.023c-.012-.23-.04-.46.054-.68a.386.386 0 00.059-.207l-.059.207c-.016-.074-.027-.144.043-.195-.066-.094-.063-.195-.02-.297-.042-.062-.046-.12.008-.18-.027-.074-.035-.14.016-.207a.111.111 0 01-.008-.105 1.466 1.466 0 010-.664c-.027-.16-.059-.32 0-.48-.055-.094-.031-.196-.02-.294-.105-.628-.097-1.273-.331-1.91.234.024.394-.175.59-.035zm-24.673 31.918v-.004c.004 0 0 .004 0 .004l.004-.004h-.004v-.004c-.003.004 0 .004 0 .008zm24.551-23.762v.043c0-.004.004-.007.004-.011.004-.012.004-.024.008-.04-.004.005-.008.005-.012.008zm-.781 1.914h.004c.004 0 .008.004.016.004h.015l-.031-.004c-.004 0 0-.003-.004-.003.004 0 0 .003 0 .003zm.844-1.94a.239.239 0 00-.047.019.116.116 0 00-.008.039.09.09 0 01.055-.059zm-.07.14c0 .015-.004.03-.004.043v.004c0-.016.003-.032.003-.047zm.703-7.203c.004 0 .004-.004.004-.004v-.004s0-.004-.004-.004v.012zm.046.277c.004.004.004.008.004.012-.004-.004-.004-.008-.004-.012zm-.77 2.726c.017-.003.028-.007.044-.007-.004-.008-.008-.016-.016-.024a.105.105 0 01-.027.031zm-.046-.496a.128.128 0 00-.016-.074c.008.028.016.05.016.074zm0 0"/></g></g></g></g><g clip-path="url(#prefix__an)"><g clip-path="url(#prefix__ao)"><g clip-path="url(#prefix__ap)"><g clip-path="url(#prefix__aq)"><path fill="#fff" d="M202.281 219.512c-.008.058-.023.12-.031.18-.035-.07-.023-.13.031-.18zm0 0"/></g></g></g></g><g clip-path="url(#prefix__ar)"><g clip-path="url(#prefix__as)"><g clip-path="url(#prefix__at)"><g clip-path="url(#prefix__au)"><path fill="#fff" d="M88.922 224.402a.11.11 0 01-.106.032c-.093.113.028.312-.164.382-.265.368-.605.301-.957.168-.984-.37-1.882-.894-2.75-1.468-3.11-2.075-5.632-4.692-7.71-7.786-3.63-5.394-5.02-11.363-4.786-17.765.11-2.969.739-5.863 1.508-8.73.45-1.688 1-3.34 1.512-5.008.047-.051.09-.102.136-.153-.011-.078 0-.164-.035-.222l-.004-.004c-.03-.043-.093.004-.113.062-.558.403-1.016.906-1.445 1.434-.293.363-.606.695-1.016.926-.625.785-1.41.94-2.199.472.402-1.949 1.68-3.316 3.094-4.597.527-.48 1.015-.989 1.515-1.493 1.196-1.207 1.09-.968 2.438-.64.3.074.578.215.84.383.097.058.18.125.203.246.336.101.39.39.426.675.113.844.214 1.688.316 2.536.129.156.129.347.125.535.133.156.129.343.137.531.113.094.101.238.14.363.532 1.66 1.246 3.242 2.23 4.696.075.109.141.222.212.335.082.133.176.286.062.422-.09.102-.281.11-.379.051-.437-.27-.972-.23-1.418-.457-.195-.098-.336-.27-.476-.445-1.082-1.36-1.895-2.867-2.547-4.465-.059-.14-.098-.297-.184-.422-.101-.148-.226-.078-.336.02.051.172.004.304-.136.41.015.16.015.32-.137.43.023.039.016.066-.023.085.02.153.011.301-.125.41-.012.106-.008.22-.036.32-.312 1.145-.64 2.286-.941 3.43-.27 1.044-.508 2.09-.758 3.133-.035.286-.055.57-.101.852-.407 2.73-.477 5.473-.133 8.215.12.98.277 1.953.418 2.93.136.167.125.363.12.562.134.156.13.344.126.531.137.14.12.32.129.492.101.086.117.196.094.313.035.035.042.07.023.117.11.094.102.234.144.356.211.593.313 1.226.598 1.796-.043.063-.039.243-.168.043-.086-.136-.133-.136-.16-.09-.027.04-.043.114-.059.172.727 1.86 1.668 3.61 2.73 5.297l.34.446c.677.879 1.352 1.765 2.028 2.644a.199.199 0 01.098.067c.015.023.023.05.027.078.074.02.117.066.125.14a.15.15 0 01.125.14c.078.017.117.063.125.142.078.015.121.058.129.136.078.012.121.059.129.137.078.012.121.059.129.133v.004c.047.039.09.086.129.133l.004.003c.074.012.117.055.129.13l.003.003c.075.012.118.055.13.133l.003.004c.078.012.121.055.13.129l.003.004c.078.012.121.054.129.133h.004c.074.011.12.054.133.132.433.38.87.758 1.308 1.137.164.27.434.426.672.613a.197.197 0 00.078-.058.198.198 0 00.059-.13c.195.122.402.231.527.435a.402.402 0 00.137.164c-.043-.055-.09-.11-.137-.165.07.028.137.063.137.145.117 0 .195.059.258.156.074 0 .125.032.14.106.078.02.137.05.16.133.04.003.07.015.09.05.215.09.399.215.551.383.145.07.293.133.39.274.11.007.18.082.255.148.578.273 1.101.645 1.757.816-.152.18-.078.426-.308.504zm-12.16-38.46v-.001c.004 0 .004 0 .008.004-.004-.004-.004-.004-.008-.004zm5.531 33.714l-.04-.023c.005 0 .009.004.009.008l.027.027c0-.004.004-.004.004-.012zm-1.129-1.734s0 .004-.004.004c-.004.004-.008.004-.012.008l-.007.015.023-.023h.004c-.004 0-.004 0-.004-.004zm1.113 1.805l.012-.055c-.008-.008-.016-.02-.027-.027.015.02.023.046.015.082zm-.078-.141a.119.119 0 00-.031-.031h-.004c.012.007.027.02.035.03zm5.52 4.684l.004.003c.004 0 .004.004.007.004-.003-.004-.007-.004-.011-.007zm-.254-.122c-.004 0-.008 0-.012-.003l.012.003zm-1.805-2.187c0 .016-.008.027-.015.043h.027l-.012-.043zm.438.246a.14.14 0 00.07.027.293.293 0 01-.07-.027zm0 0"/></g></g></g></g><g clip-path="url(#prefix__av)"><g clip-path="url(#prefix__aw)"><g clip-path="url(#prefix__ax)"><g clip-path="url(#prefix__ay)"><path fill="#fff" d="M82.184 219.027c-.043-.043-.082-.09-.125-.129.074.012.117.055.125.13zm0 0"/></g></g></g></g><path transform="matrix(.74987 .00605 -.00605 .74998 136.49 77.868)" fill="none" d="M-.002 1.999L223.036 2" stroke="#000" stroke-width="4"/><path transform="matrix(.75062 -.00364 .00364 .75 135.126 291.168)" fill="none" d="M0 2l224.814.002" stroke="#000" stroke-width="4"/><g clip-path="url(#prefix__az)"><path fill="#5ce1e6" d="M266.715 306.992l8.492-9.492a.946.946 0 01.703-.316h5.664a.95.95 0 01.863.562.956.956 0 01-.164 1.02l-7.921 8.863 7.921 8.855a.95.95 0 01-.7 1.586h-5.663a.971.971 0 01-.703-.312l-8.492-9.496a.959.959 0 010-1.27zm0 0"/></g><g clip-path="url(#prefix__aA)"><path fill="#5ce1e6" d="M278.984 306.992l8.493-9.492a.94.94 0 01.703-.316h5.66a.947.947 0 01.703 1.582l-7.926 8.863 7.926 8.855c.25.282.312.68.16 1.024a.94.94 0 01-.863.562h-5.66a.965.965 0 01-.703-.312l-8.493-9.496a.95.95 0 010-1.27zm0 0"/></g><g clip-path="url(#prefix__aB)"><path fill="#38b6ff" d="M229.59 306.992l8.492-9.492a.946.946 0 01.703-.316h5.664a.95.95 0 01.863.562.956.956 0 01-.164 1.02l-7.921 8.863 7.921 8.855c.25.282.317.68.165 1.024a.95.95 0 01-.864.562h-5.664a.971.971 0 01-.703-.312l-8.492-9.496a.959.959 0 010-1.27zm0 0"/></g><g clip-path="url(#prefix__aC)"><path fill="#38b6ff" d="M241.86 306.992l8.492-9.492a.94.94 0 01.703-.316h5.66a.947.947 0 01.703 1.582l-7.926 8.863 7.926 8.855c.25.282.312.68.16 1.024a.94.94 0 01-.863.562h-5.66a.965.965 0 01-.703-.312l-8.493-9.496a.95.95 0 010-1.27zm0 0"/></g><g clip-path="url(#prefix__aD)"><path fill="#38b6ff" d="M192.465 306.992l8.492-9.492a.946.946 0 01.703-.316h5.664a.95.95 0 01.863.562.956.956 0 01-.164 1.02l-7.921 8.863 7.921 8.855c.25.282.317.68.165 1.024a.95.95 0 01-.864.562h-5.664a.971.971 0 01-.703-.312l-8.492-9.496a.959.959 0 010-1.27zm0 0"/></g><g clip-path="url(#prefix__aE)"><path fill="#38b6ff" d="M204.734 306.992l8.493-9.492a.94.94 0 01.703-.316h5.66a.947.947 0 01.703 1.582l-7.926 8.863 7.926 8.855c.25.282.312.68.16 1.024a.94.94 0 01-.863.562h-5.66a.965.965 0 01-.703-.312l-8.493-9.496a.95.95 0 010-1.27zm0 0"/></g><g clip-path="url(#prefix__aF)"><path fill="#38b6ff" d="M155.34 306.992l8.492-9.492a.946.946 0 01.703-.316h5.664a.95.95 0 01.863.562.956.956 0 01-.164 1.02l-7.921 8.863 7.921 8.855c.25.282.317.68.165 1.024a.95.95 0 01-.864.562h-5.664a.971.971 0 01-.703-.312l-8.492-9.496a.959.959 0 010-1.27zm0 0"/></g><g clip-path="url(#prefix__aG)"><path fill="#38b6ff" d="M167.61 306.992l8.492-9.492a.94.94 0 01.703-.316h5.66a.947.947 0 01.703 1.582l-7.926 8.863 7.926 8.855c.25.282.312.68.16 1.024a.94.94 0 01-.863.562h-5.66a.965.965 0 01-.703-.312l-8.493-9.496a.95.95 0 010-1.27zm0 0"/></g><g clip-path="url(#prefix__aH)"><g clip-path="url(#prefix__aI)"><g clip-path="url(#prefix__aJ)"><path fill="#5ce1e6" d="M118.21 307.242l8.325-9.644a.936.936 0 01.695-.328l5.66-.098a.952.952 0 01.876.543.958.958 0 01-.145 1.027l-7.766 8.996 8.079 8.719a.95.95 0 01-.672 1.598l-5.664.097a.946.946 0 01-.707-.3l-8.66-9.34a.955.955 0 01-.02-1.27zm0 0"/></g></g></g><g clip-path="url(#prefix__aK)"><g clip-path="url(#prefix__aL)"><g clip-path="url(#prefix__aM)"><path fill="#5ce1e6" d="M130.477 307.023l8.324-9.64a.929.929 0 01.695-.328l5.66-.102a.945.945 0 01.875.547.952.952 0 01-.144 1.023l-7.766 9 8.082 8.715a.951.951 0 01.176 1.02.935.935 0 01-.852.578l-5.66.101a.948.948 0 01-.707-.3l-8.66-9.344a.95.95 0 01-.023-1.27zm0 0"/></g></g></g><g clip-path="url(#prefix__aN)"><g clip-path="url(#prefix__aO)"><g clip-path="url(#prefix__aP)"><path fill="#38b6ff" d="M75.855 286.086l12.274-3.406a.935.935 0 01.762.117l4.765 3.055a.948.948 0 01-.265 1.71l-11.454 3.18 1.891 11.735a.96.96 0 01-.418.949.949.949 0 01-1.031.008l-4.766-3.059a.954.954 0 01-.422-.64l-2.023-12.579a.954.954 0 01.687-1.07zm0 0"/></g></g></g><g clip-path="url(#prefix__aQ)"><g clip-path="url(#prefix__aR)"><g clip-path="url(#prefix__aS)"><path fill="#38b6ff" d="M86.18 292.71l12.277-3.405a.94.94 0 01.758.113l4.77 3.059c.312.199.476.566.421.937a.954.954 0 01-.687.774l-11.453 3.18 1.886 11.734a.951.951 0 01-1.445.957L87.941 307a.94.94 0 01-.421-.645l-2.024-12.574a.952.952 0 01.684-1.07zm0 0"/></g></g></g><g clip-path="url(#prefix__aT)"><g clip-path="url(#prefix__aU)"><g clip-path="url(#prefix__aV)"><path fill="#38b6ff" d="M41.281 262.91l12.703-.945c.27-.02.532.074.723.258l4.078 3.93a.94.94 0 01.23 1.003.943.943 0 01-.824.621l-11.851.887-.438 11.875a.955.955 0 01-.593.848.94.94 0 01-1.012-.192l-4.078-3.925a.96.96 0 01-.29-.715l.47-12.73a.954.954 0 01.882-.915zm0 0"/></g></g></g><g clip-path="url(#prefix__aW)"><g clip-path="url(#prefix__aX)"><g clip-path="url(#prefix__aY)"><path fill="#38b6ff" d="M50.117 271.422l12.703-.95c.27-.019.532.075.723.262l4.078 3.926a.95.95 0 01.234 1.004.962.962 0 01-.824.625l-11.855.883-.438 11.879a.948.948 0 01-.593.847.947.947 0 01-1.012-.191l-4.078-3.93a.967.967 0 01-.29-.71l.47-12.731a.954.954 0 01.882-.914zm0 0"/></g></g></g><g clip-path="url(#prefix__aZ)"><g clip-path="url(#prefix__ba)"><g clip-path="url(#prefix__bb)"><path fill="#38b6ff" d="M22.734 226.063l12.477 2.57a.947.947 0 01.625.449l2.844 4.895a.95.95 0 01-1.016 1.402l-11.64-2.399-3.676 11.305a.953.953 0 01-.805.653.94.94 0 01-.918-.465l-2.848-4.895a.97.97 0 01-.082-.766l3.942-12.113a.948.948 0 011.097-.637zm0 0"/></g></g></g><g clip-path="url(#prefix__bc)"><g clip-path="url(#prefix__bd)"><g clip-path="url(#prefix__be)"><path fill="#38b6ff" d="M28.898 236.668l12.477 2.57a.95.95 0 01.625.45l2.848 4.894a.95.95 0 01-1.016 1.402l-11.645-2.398-3.675 11.305a.953.953 0 01-1.723.191l-2.848-4.898a.962.962 0 01-.082-.762l3.942-12.117a.956.956 0 011.097-.637zm0 0"/></g></g></g><g clip-path="url(#prefix__bf)"><path fill="#5ce1e6" d="M20.016 172.027l9.492 8.493c.203.18.316.433.316.703v5.66a.94.94 0 01-.562.863.946.946 0 01-1.02-.16l-8.863-7.926-8.856 7.926a.955.955 0 01-1.023.16.94.94 0 01-.563-.863v-5.66c0-.27.114-.524.313-.703l9.496-8.493a.95.95 0 011.27 0zm0 0"/></g><g clip-path="url(#prefix__bg)"><path fill="#5ce1e6" d="M20.016 184.293l9.492 8.496c.203.18.316.434.316.7v5.663c0 .371-.219.711-.562.864a.953.953 0 01-1.02-.16l-8.863-7.926-8.856 7.925a.955.955 0 01-1.023.16.945.945 0 01-.563-.863v-5.664c0-.265.114-.52.313-.699l9.496-8.496c.36-.32.91-.32 1.27 0zm0 0"/></g><g clip-path="url(#prefix__bh)"><g clip-path="url(#prefix__bi)"><g clip-path="url(#prefix__bj)"><path fill="#38b6ff" d="M38.219 122.102l2.965 12.39a.936.936 0 01-.141.754l-3.227 4.656a.948.948 0 01-1.7-.324l-2.768-11.562-11.793 1.468a.955.955 0 01-.934-.449.949.949 0 01.027-1.031l3.227-4.652a.946.946 0 01.656-.399l12.645-1.574a.956.956 0 011.043.723zm0 0"/></g></g></g><g clip-path="url(#prefix__bk)"><g clip-path="url(#prefix__bl)"><g clip-path="url(#prefix__bm)"><path fill="#38b6ff" d="M31.23 132.188l2.965 12.386a.945.945 0 01-.14.758l-3.227 4.652a.951.951 0 01-.953.391.958.958 0 01-.746-.715l-2.77-11.558-11.793 1.464a.955.955 0 01-.933-.449.942.942 0 01.031-1.031l3.223-4.652a.96.96 0 01.66-.399l12.64-1.574a.953.953 0 011.043.726zm0 0"/></g></g></g><g clip-path="url(#prefix__bn)"><g clip-path="url(#prefix__bo)"><g clip-path="url(#prefix__bp)"><path fill="#38b6ff" d="M65.816 90.094l.098 12.738a.937.937 0 01-.305.703l-4.191 3.809a.943.943 0 01-1.016.164.959.959 0 01-.57-.863l-.09-11.887-11.824-1.227a.954.954 0 01-.805-.648.946.946 0 01.258-.996l4.191-3.809c.2-.18.465-.266.731-.242l12.672 1.316c.48.051.851.457.851.942zm0 0"/></g></g></g><g clip-path="url(#prefix__bq)"><g clip-path="url(#prefix__br)"><g clip-path="url(#prefix__bs)"><path fill="#38b6ff" d="M56.738 98.344l.098 12.738a.94.94 0 01-.309.703l-4.191 3.809a.948.948 0 01-1.582-.7l-.094-11.886-11.82-1.227a.954.954 0 01-.809-.648.947.947 0 01.262-1l4.187-3.805c.2-.18.465-.266.73-.242l12.673 1.316c.48.051.851.457.855.942zm0 0"/></g></g></g><g clip-path="url(#prefix__bt)"><g clip-path="url(#prefix__bu)"><g clip-path="url(#prefix__bv)"><path fill="#38b6ff" d="M100.488 72.246l-3.433 12.266a.948.948 0 01-.493.593l-5.082 2.497a.95.95 0 01-1.023-.122.958.958 0 01-.305-.988l3.203-11.449-11.02-4.453a.943.943 0 01-.593-.844.942.942 0 01.524-.887l5.082-2.5a.96.96 0 01.77-.027l11.808 4.773c.449.18.691.676.562 1.141zm0 0"/></g></g></g><g clip-path="url(#prefix__bw)"><g clip-path="url(#prefix__bx)"><g clip-path="url(#prefix__by)"><path fill="#38b6ff" d="M89.477 77.656l-3.434 12.27a.94.94 0 01-.492.59l-5.078 2.5a.95.95 0 01-1.332-1.114l3.207-11.445-11.024-4.453a.961.961 0 01-.594-.848.949.949 0 01.528-.886l5.082-2.497a.966.966 0 01.765-.03l11.813 4.773c.45.183.691.675.559 1.14zm0 0"/></g></g></g><g clip-path="url(#prefix__bz)"><path fill="#5ce1e6" d="M146.195 68.148l-8.492 9.493a.946.946 0 01-.703.316h-5.664a.95.95 0 01-.863-.562.956.956 0 01.164-1.02l7.922-8.86-7.922-8.859a.95.95 0 01.7-1.586h5.663c.266 0 .52.117.703.313l8.492 9.496c.32.36.32.91 0 1.27zm0 0"/></g><g clip-path="url(#prefix__bA)"><path fill="#5ce1e6" d="M133.926 68.148l-8.492 9.493a.94.94 0 01-.704.316h-5.66a.947.947 0 01-.703-1.582l7.926-8.86-7.926-8.859a.955.955 0 01-.16-1.023.94.94 0 01.863-.563h5.66c.27 0 .52.117.704.313l8.492 9.496a.95.95 0 010 1.27zm0 0"/></g><g clip-path="url(#prefix__bB)"><g clip-path="url(#prefix__bC)"><g clip-path="url(#prefix__bD)"><path fill="#38b6ff" d="M182.719 68.148l-8.778 9.235a.927.927 0 01-.71.293l-5.66-.168a.948.948 0 01-.844-.59.953.953 0 01.191-1.016l8.187-8.617-7.652-9.094a.951.951 0 01-.133-1.023.945.945 0 01.88-.54l5.66.173c.269.008.519.129.695.332l8.203 9.746a.96.96 0 01-.04 1.27zm0 0"/></g></g></g><g clip-path="url(#prefix__bE)"><g clip-path="url(#prefix__bF)"><g clip-path="url(#prefix__bG)"><path fill="#38b6ff" d="M170.457 67.781l-8.777 9.235a.94.94 0 01-.711.293l-5.66-.172a.946.946 0 01-.653-1.602l8.188-8.617-7.656-9.094a.948.948 0 01.75-1.563l5.66.169a.95.95 0 01.691.336l8.203 9.746a.955.955 0 01-.035 1.27zm0 0"/></g></g></g><g clip-path="url(#prefix__bH)"><g clip-path="url(#prefix__bI)"><g clip-path="url(#prefix__bJ)"><path fill="#5ce1e6" d="M294.371 68.148l-8.777 9.235a.927.927 0 01-.711.293l-5.66-.168a.948.948 0 01-.844-.59.953.953 0 01.191-1.016l8.188-8.617-7.653-9.094a.951.951 0 01-.132-1.023.945.945 0 01.879-.54l5.66.173c.27.008.52.129.695.332l8.203 9.746a.96.96 0 01-.039 1.27zm0 0"/></g></g></g><g clip-path="url(#prefix__bK)"><g clip-path="url(#prefix__bL)"><g clip-path="url(#prefix__bM)"><path fill="#5ce1e6" d="M282.11 67.781l-8.778 9.235a.94.94 0 01-.71.293l-5.661-.172a.946.946 0 01-.652-1.602l8.187-8.617-7.656-9.094a.948.948 0 01.75-1.563l5.66.169a.95.95 0 01.691.336l8.204 9.746a.955.955 0 01-.036 1.27zm0 0"/></g></g></g><g clip-path="url(#prefix__bN)"><g clip-path="url(#prefix__bO)"><g clip-path="url(#prefix__bP)"><path fill="#38b6ff" d="M257.246 68.148l-8.777 9.235a.927.927 0 01-.711.293l-5.66-.168a.948.948 0 01-.844-.59.953.953 0 01.191-1.016l8.188-8.617-7.653-9.094a.951.951 0 01-.132-1.023.945.945 0 01.879-.54l5.66.173c.27.008.52.129.695.332l8.203 9.746a.96.96 0 01-.039 1.27zm0 0"/></g></g></g><g clip-path="url(#prefix__bQ)"><g clip-path="url(#prefix__bR)"><g clip-path="url(#prefix__bS)"><path fill="#38b6ff" d="M244.984 67.781l-8.777 9.235a.94.94 0 01-.71.293l-5.661-.172a.946.946 0 01-.652-1.602l8.187-8.617-7.656-9.094a.948.948 0 01.75-1.563l5.66.169a.95.95 0 01.691.336l8.204 9.746a.955.955 0 01-.036 1.27zm0 0"/></g></g></g><g clip-path="url(#prefix__bT)"><g clip-path="url(#prefix__bU)"><g clip-path="url(#prefix__bV)"><path fill="#38b6ff" d="M220.73 68.148l-8.777 9.235a.927.927 0 01-.71.293l-5.661-.168a.944.944 0 01-.844-.59.953.953 0 01.192-1.016l8.187-8.617-7.656-9.094a.95.95 0 01.75-1.562l5.66.172c.27.008.516.129.691.332l8.204 9.746a.955.955 0 01-.036 1.27zm0 0"/></g></g></g><g clip-path="url(#prefix__bW)"><g clip-path="url(#prefix__bX)"><g clip-path="url(#prefix__bY)"><path fill="#38b6ff" d="M208.465 67.781l-8.774 9.235a.947.947 0 01-.71.293l-5.66-.172a.946.946 0 01-.844-.586.96.96 0 01.187-1.016l8.191-8.617-7.656-9.094a.949.949 0 01.75-1.562l5.66.168a.957.957 0 01.692.336l8.203 9.746a.95.95 0 01-.04 1.27zm0 0"/></g></g></g></svg>