<svg xmlns="http://www.w3.org/2000/svg" xmlns:xlink="http://www.w3.org/1999/xlink" width="450" zoomAndPan="magnify" viewBox="0 0 337.5 374.999991" height="500" preserveAspectRatio="xMidYMid meet" version="1.0"><defs><clipPath id="7f81283cc8"><path d="M 0 52.777344 L 303.75 52.777344 L 303.75 323 L 0 323 Z M 0 52.777344 " clip-rule="nonzero"/></clipPath><clipPath id="478badaae5"><path d="M 7.917969 142.824219 C 3.136719 156.667969 0 172.40625 0 187.851562 C 0 203.296875 2.6875 218.15625 7.46875 231.855469 C 7.621094 232.144531 7.621094 232.4375 7.769531 232.730469 C 26.890625 284.164062 77.390625 322.050781 135.65625 322.777344 L 303.75 322.777344 L 303.75 52.777344 L 135.78125 52.777344 C 77.09375 53.507812 26.59375 90.808594 7.917969 142.824219 " clip-rule="nonzero"/></clipPath><clipPath id="9ff538e11a"><path d="M 0 52.777344 L 303.75 52.777344 L 303.75 322.777344 L 0 322.777344 Z M 0 52.777344 " clip-rule="nonzero"/></clipPath><clipPath id="4e7e4ed16a"><path d="M 7.917969 142.824219 C 3.136719 156.667969 0 172.40625 0 187.851562 C 0 203.296875 2.6875 218.15625 7.46875 231.855469 C 7.621094 232.144531 7.621094 232.4375 7.769531 232.730469 C 26.890625 284.164062 77.390625 322.050781 135.65625 322.777344 L 303.75 322.777344 L 303.75 52.777344 L 135.78125 52.777344 C 77.09375 53.507812 26.59375 90.808594 7.917969 142.824219 " clip-rule="nonzero"/></clipPath><clipPath id="54db291d5a"><path d="M 34 78.019531 L 249.75 78.019531 L 249.75 294 L 34 294 Z M 34 78.019531 " clip-rule="nonzero"/></clipPath><clipPath id="8c8ea9e287"><path d="M 249.75 186.019531 C 249.75 126.371094 201.398438 78.019531 141.75 78.019531 C 82.101562 78.019531 33.75 126.371094 33.75 186.019531 C 33.75 245.664062 82.101562 294.019531 141.75 294.019531 C 201.398438 294.019531 249.75 245.664062 249.75 186.019531 " clip-rule="nonzero"/></clipPath><clipPath id="aaca2f0900"><path d="M 33.75 78.019531 L 249.75 78.019531 L 249.75 294.019531 L 33.75 294.019531 Z M 33.75 78.019531 " clip-rule="nonzero"/></clipPath><clipPath id="bbea31d206"><path d="M 249.75 186.019531 C 249.75 126.371094 201.398438 78.019531 141.75 78.019531 C 82.101562 78.019531 33.75 126.371094 33.75 186.019531 C 33.75 245.664062 82.101562 294.019531 141.75 294.019531 C 201.398438 294.019531 249.75 245.664062 249.75 186.019531 " clip-rule="nonzero"/></clipPath><clipPath id="fd70ba985b"><path d="M 176 175 L 209 175 L 209 194 L 176 194 Z M 176 175 " clip-rule="nonzero"/></clipPath><clipPath id="37e3f50e09"><path d="M 208.695312 175.386719 L 208.765625 193.550781 L 176.839844 193.675781 L 176.769531 175.511719 Z M 208.695312 175.386719 " clip-rule="nonzero"/></clipPath><clipPath id="3a84b1d91f"><path d="M 208.695312 175.386719 L 208.765625 193.152344 L 177.035156 193.277344 L 176.96875 175.507812 Z M 208.695312 175.386719 " clip-rule="nonzero"/></clipPath><clipPath id="c9a2697834"><path d="M 103 208 L 136 208 L 136 245 L 103 245 Z M 103 208 " clip-rule="nonzero"/></clipPath><clipPath id="4beaeefaeb"><path d="M 119.984375 208.359375 L 135.652344 217.550781 L 119.492188 245.085938 L 103.828125 235.890625 Z M 119.984375 208.359375 " clip-rule="nonzero"/></clipPath><clipPath id="a894922c2d"><path d="M 119.984375 208.359375 L 135.308594 217.351562 L 119.25 244.714844 L 103.925781 235.722656 Z M 119.984375 208.359375 " clip-rule="nonzero"/></clipPath><clipPath id="5102c6e412"><path d="M 119 141 L 193 141 L 193 227 L 119 227 Z M 119 141 " clip-rule="nonzero"/></clipPath><clipPath id="c3b0a9aaef"><path d="M 83.03125 163.050781 L 156.847656 120.503906 L 193.792969 184.605469 L 119.980469 227.152344 Z M 83.03125 163.050781 " clip-rule="nonzero"/></clipPath><clipPath id="65476018fc"><path d="M 119.65625 141.941406 L 192.871094 184.3125 L 119.625 226.53125 L 119.65625 141.941406 " clip-rule="nonzero"/></clipPath><clipPath id="3ebc239c9e"><path d="M 108 130 L 140 130 L 140 168 L 108 168 Z M 108 130 " clip-rule="nonzero"/></clipPath><clipPath id="9dd52552ae"><path d="M 108.011719 139.539062 L 123.75 130.46875 L 139.691406 158.128906 L 123.957031 167.199219 Z M 108.011719 139.539062 " clip-rule="nonzero"/></clipPath><clipPath id="b97f93835f"><path d="M 108.011719 139.539062 L 123.40625 130.667969 L 139.25 158.15625 L 123.859375 167.027344 Z M 108.011719 139.539062 " clip-rule="nonzero"/></clipPath><clipPath id="9d949ea92d"><path d="M 77 89 L 134 89 L 134 146 L 77 146 Z M 77 89 " clip-rule="nonzero"/></clipPath><clipPath id="ec17dbb8f3"><path d="M 94.367188 155.03125 L 67.707031 106.214844 L 116.523438 79.554688 L 143.183594 128.371094 Z M 94.367188 155.03125 " clip-rule="nonzero"/></clipPath><clipPath id="631dba0c85"><path d="M 81.039062 130.621094 C 88.402344 144.101562 105.296875 149.0625 118.777344 141.699219 C 132.257812 134.339844 137.21875 117.441406 129.855469 103.960938 C 122.492188 90.480469 105.597656 85.523438 92.117188 92.882812 C 78.636719 100.246094 73.675781 117.140625 81.039062 130.621094 " clip-rule="nonzero"/></clipPath><clipPath id="815b04f5e8"><path d="M 77 89 L 134 89 L 134 146 L 77 146 Z M 77 89 " clip-rule="nonzero"/></clipPath><clipPath id="37d5e2cfa4"><path d="M 94.367188 155.03125 L 67.765625 106.320312 L 116.476562 79.71875 L 143.078125 128.429688 Z M 94.367188 155.03125 " clip-rule="nonzero"/></clipPath><clipPath id="bb3131f67e"><path d="M 94.367188 155.03125 L 67.765625 106.320312 L 116.476562 79.71875 L 143.078125 128.429688 Z M 94.367188 155.03125 " clip-rule="nonzero"/></clipPath><clipPath id="eab09d67cc"><path d="M 81.066406 130.675781 C 88.414062 144.125 105.273438 149.074219 118.722656 141.730469 C 132.175781 134.382812 137.121094 117.523438 129.777344 104.074219 C 122.429688 90.625 105.574219 85.675781 92.121094 93.019531 C 78.671875 100.367188 73.722656 117.226562 81.066406 130.675781 " clip-rule="nonzero"/></clipPath><clipPath id="2791b0edd3"><path d="M 76 224 L 133 224 L 133 281 L 76 281 Z M 76 224 " clip-rule="nonzero"/></clipPath><clipPath id="7424266e33"><path d="M 66.597656 262.621094 L 94.460938 214.480469 L 142.601562 242.34375 L 114.738281 290.484375 Z M 66.597656 262.621094 " clip-rule="nonzero"/></clipPath><clipPath id="82fd91a27d"><path d="M 80.53125 238.550781 C 72.835938 251.84375 77.375 268.859375 90.667969 276.550781 C 103.960938 284.246094 120.976562 279.707031 128.671875 266.414062 C 136.363281 253.121094 131.824219 236.105469 118.53125 228.414062 C 105.238281 220.71875 88.226562 225.257812 80.53125 238.550781 " clip-rule="nonzero"/></clipPath><clipPath id="e2d8e06ff0"><path d="M 76 224 L 133 224 L 133 281 L 76 281 Z M 76 224 " clip-rule="nonzero"/></clipPath><clipPath id="f7daeee509"><path d="M 66.597656 262.621094 L 94.402344 214.585938 L 142.433594 242.386719 L 114.632812 290.421875 Z M 66.597656 262.621094 " clip-rule="nonzero"/></clipPath><clipPath id="28634bc265"><path d="M 66.597656 262.621094 L 94.402344 214.585938 L 142.433594 242.386719 L 114.632812 290.421875 Z M 66.597656 262.621094 " clip-rule="nonzero"/></clipPath><clipPath id="de5d3cee07"><path d="M 80.5 238.601562 C 72.824219 251.867188 77.351562 268.84375 90.617188 276.523438 C 103.878906 284.199219 120.855469 279.667969 128.535156 266.40625 C 136.210938 253.140625 131.683594 236.164062 118.417969 228.488281 C 105.152344 220.808594 88.175781 225.339844 80.5 238.601562 " clip-rule="nonzero"/></clipPath><clipPath id="a96474e4af"><path d="M 190.894531 156.699219 L 246.519531 156.699219 L 246.519531 212.320312 L 190.894531 212.320312 Z M 190.894531 156.699219 " clip-rule="nonzero"/></clipPath><clipPath id="e84a395c00"><path d="M 190.894531 184.511719 C 190.894531 199.871094 203.347656 212.320312 218.707031 212.320312 C 234.066406 212.320312 246.519531 199.871094 246.519531 184.511719 C 246.519531 169.152344 234.066406 156.699219 218.707031 156.699219 C 203.347656 156.699219 190.894531 169.152344 190.894531 184.511719 " clip-rule="nonzero"/></clipPath><clipPath id="178aab7ebd"><path d="M 190.894531 156.820312 L 246.394531 156.820312 L 246.394531 212.320312 L 190.894531 212.320312 Z M 190.894531 156.820312 " clip-rule="nonzero"/></clipPath><clipPath id="c5fb019131"><path d="M 190.894531 184.570312 C 190.894531 199.898438 203.320312 212.320312 218.644531 212.320312 C 233.972656 212.320312 246.394531 199.898438 246.394531 184.570312 C 246.394531 169.246094 233.972656 156.820312 218.644531 156.820312 C 203.320312 156.820312 190.894531 169.246094 190.894531 184.570312 " clip-rule="nonzero"/></clipPath><clipPath id="705f198049"><path d="M 98 110 L 113 110 L 113 125 L 98 125 Z M 98 110 " clip-rule="nonzero"/></clipPath><clipPath id="02d25b8d1b"><path d="M 95.914062 114.734375 L 108.007812 107.765625 L 114.980469 119.859375 L 102.882812 126.832031 Z M 95.914062 114.734375 " clip-rule="nonzero"/></clipPath><clipPath id="71d8772ed9"><path d="M 101.960938 111.25 C 98.621094 113.175781 97.472656 117.445312 99.398438 120.78125 C 101.324219 124.121094 105.59375 125.269531 108.929688 123.34375 C 112.269531 121.417969 113.417969 117.152344 111.492188 113.8125 C 109.566406 110.472656 105.300781 109.324219 101.960938 111.25 " clip-rule="nonzero"/></clipPath><clipPath id="10dcc2d8d0"><path d="M 97 245 L 112 245 L 112 260 L 97 260 Z M 97 245 " clip-rule="nonzero"/></clipPath><clipPath id="82b63f7e58"><path d="M 102.050781 242.949219 L 114.132812 249.941406 L 107.140625 262.023438 L 95.058594 255.03125 Z M 102.050781 242.949219 " clip-rule="nonzero"/></clipPath><clipPath id="2aac004239"><path d="M 108.09375 246.445312 C 104.757812 244.515625 100.484375 245.652344 98.554688 248.988281 C 96.625 252.324219 97.761719 256.597656 101.097656 258.527344 C 104.4375 260.457031 108.707031 259.320312 110.636719 255.984375 C 112.566406 252.644531 111.429688 248.375 108.09375 246.445312 " clip-rule="nonzero"/></clipPath><clipPath id="a480b58fd0"><path d="M 211 176 L 226 176 L 226 191 L 211 191 Z M 211 176 " clip-rule="nonzero"/></clipPath><clipPath id="08c0ca7782"><path d="M 209.152344 180.914062 L 221.246094 173.945312 L 228.21875 186.039062 L 216.121094 193.007812 Z M 209.152344 180.914062 " clip-rule="nonzero"/></clipPath><clipPath id="72ed1aa1a8"><path d="M 215.199219 177.429688 C 211.859375 179.355469 210.710938 183.621094 212.636719 186.960938 C 214.5625 190.300781 218.832031 191.449219 222.171875 189.523438 C 225.507812 187.597656 226.65625 183.332031 224.730469 179.992188 C 222.804688 176.652344 218.539062 175.503906 215.199219 177.429688 " clip-rule="nonzero"/></clipPath><clipPath id="36807ab952"><path d="M 152 120 L 197 120 L 197 142 L 152 142 Z M 152 120 " clip-rule="nonzero"/></clipPath><clipPath id="aa501ac33f"><path d="M 195.230469 145.140625 L 152.402344 125.1875 L 158.101562 112.949219 L 200.933594 132.90625 Z M 195.230469 145.140625 " clip-rule="nonzero"/></clipPath><clipPath id="a623e637dc"><path d="M 152.230469 125.109375 L 195.0625 145.0625 L 200.761719 132.824219 L 157.933594 112.871094 Z M 152.230469 125.109375 " clip-rule="nonzero"/></clipPath><clipPath id="b0fb4f2e51"><path d="M 152.230469 125.109375 L 195.0625 145.0625 L 200.761719 132.824219 L 157.933594 112.871094 Z M 152.230469 125.109375 " clip-rule="nonzero"/></clipPath><clipPath id="2158628111"><path d="M 161 122 L 162 122 L 162 123 L 161 123 Z M 161 122 " clip-rule="nonzero"/></clipPath><clipPath id="43b64cf2f4"><path d="M 195.230469 145.140625 L 152.402344 125.1875 L 158.101562 112.949219 L 200.933594 132.90625 Z M 195.230469 145.140625 " clip-rule="nonzero"/></clipPath><clipPath id="24a1a11a3b"><path d="M 152.230469 125.109375 L 195.0625 145.0625 L 200.761719 132.824219 L 157.933594 112.871094 Z M 152.230469 125.109375 " clip-rule="nonzero"/></clipPath><clipPath id="b5874925c6"><path d="M 152.230469 125.109375 L 195.0625 145.0625 L 200.761719 132.824219 L 157.933594 112.871094 Z M 152.230469 125.109375 " clip-rule="nonzero"/></clipPath><clipPath id="46c27d6d7b"><path d="M 156 225 L 196 225 L 196 256 L 156 256 Z M 156 225 " clip-rule="nonzero"/></clipPath><clipPath id="bb80f04435"><path d="M 153.992188 248.355469 L 194.964844 224.820312 L 201.6875 236.523438 L 160.71875 260.0625 Z M 153.992188 248.355469 " clip-rule="nonzero"/></clipPath><clipPath id="010e9c4155"><path d="M 195.125 224.726562 L 154.15625 248.261719 L 160.878906 259.96875 L 201.851562 236.429688 Z M 195.125 224.726562 " clip-rule="nonzero"/></clipPath><clipPath id="36ca94be27"><path d="M 195.125 224.726562 L 154.15625 248.261719 L 160.878906 259.96875 L 201.851562 236.429688 Z M 195.125 224.726562 " clip-rule="nonzero"/></clipPath><clipPath id="cd3ee9eefc"><path d="M 191 233 L 192 233 L 192 234 L 191 234 Z M 191 233 " clip-rule="nonzero"/></clipPath><clipPath id="cdfd119e2e"><path d="M 153.992188 248.355469 L 194.964844 224.820312 L 201.6875 236.523438 L 160.71875 260.0625 Z M 153.992188 248.355469 " clip-rule="nonzero"/></clipPath><clipPath id="84d48e55df"><path d="M 195.125 224.726562 L 154.15625 248.261719 L 160.878906 259.96875 L 201.851562 236.429688 Z M 195.125 224.726562 " clip-rule="nonzero"/></clipPath><clipPath id="4823e95d70"><path d="M 195.125 224.726562 L 154.15625 248.261719 L 160.878906 259.96875 L 201.851562 236.429688 Z M 195.125 224.726562 " clip-rule="nonzero"/></clipPath><clipPath id="c3fb91a582"><path d="M 70 163 L 84 163 L 84 211 L 70 211 Z M 70 163 " clip-rule="nonzero"/></clipPath><clipPath id="c15c4a1451"><path d="M 85.335938 163.449219 L 81.324219 210.53125 L 67.875 209.382812 L 71.886719 162.304688 Z M 85.335938 163.449219 " clip-rule="nonzero"/></clipPath><clipPath id="b02cebf94d"><path d="M 81.308594 210.714844 L 85.320312 163.636719 L 71.871094 162.492188 L 67.859375 209.570312 Z M 81.308594 210.714844 " clip-rule="nonzero"/></clipPath><clipPath id="e7278d3e7f"><path d="M 81.308594 210.714844 L 85.320312 163.636719 L 71.871094 162.492188 L 67.859375 209.570312 Z M 81.308594 210.714844 " clip-rule="nonzero"/></clipPath><clipPath id="3d2fab66d9"><path d="M 75 202 L 76 202 L 76 204 L 75 204 Z M 75 202 " clip-rule="nonzero"/></clipPath><clipPath id="878028b8d0"><path d="M 85.335938 163.449219 L 81.324219 210.53125 L 67.875 209.382812 L 71.886719 162.304688 Z M 85.335938 163.449219 " clip-rule="nonzero"/></clipPath><clipPath id="d8c12e3262"><path d="M 81.308594 210.714844 L 85.320312 163.636719 L 71.871094 162.492188 L 67.859375 209.570312 Z M 81.308594 210.714844 " clip-rule="nonzero"/></clipPath><clipPath id="5cf0d12d83"><path d="M 81.308594 210.714844 L 85.320312 163.636719 L 71.871094 162.492188 L 67.859375 209.570312 Z M 81.308594 210.714844 " clip-rule="nonzero"/></clipPath><clipPath id="1e6c9e7882"><path d="M 266.625 297.128906 L 283 297.128906 L 283 318.128906 L 266.625 318.128906 Z M 266.625 297.128906 " clip-rule="nonzero"/></clipPath><clipPath id="1fb66139d8"><path d="M 278 297.128906 L 294.785156 297.128906 L 294.785156 318.128906 L 278 318.128906 Z M 278 297.128906 " clip-rule="nonzero"/></clipPath><clipPath id="d16d2bc424"><path d="M 229.5 297.128906 L 246 297.128906 L 246 318.128906 L 229.5 318.128906 Z M 229.5 297.128906 " clip-rule="nonzero"/></clipPath><clipPath id="4e31de240e"><path d="M 241 297.128906 L 257.660156 297.128906 L 257.660156 318.128906 L 241 318.128906 Z M 241 297.128906 " clip-rule="nonzero"/></clipPath><clipPath id="a274df8f19"><path d="M 192.375 297.128906 L 209 297.128906 L 209 318.128906 L 192.375 318.128906 Z M 192.375 297.128906 " clip-rule="nonzero"/></clipPath><clipPath id="9a73ce2f75"><path d="M 204 297.128906 L 220.535156 297.128906 L 220.535156 318.128906 L 204 318.128906 Z M 204 297.128906 " clip-rule="nonzero"/></clipPath><clipPath id="8a07bb45e8"><path d="M 155.25 297.128906 L 172 297.128906 L 172 318.128906 L 155.25 318.128906 Z M 155.25 297.128906 " clip-rule="nonzero"/></clipPath><clipPath id="872c9ccf6c"><path d="M 167 297.128906 L 183.410156 297.128906 L 183.410156 318.128906 L 167 318.128906 Z M 167 297.128906 " clip-rule="nonzero"/></clipPath><clipPath id="46789454e6"><path d="M 117 297 L 135 297 L 135 319 L 117 319 Z M 117 297 " clip-rule="nonzero"/></clipPath><clipPath id="3ef40245bb"><path d="M 117.945312 297.378906 L 146.441406 296.875 L 146.8125 317.871094 L 118.316406 318.375 Z M 117.945312 297.378906 " clip-rule="nonzero"/></clipPath><clipPath id="6bd01d74bc"><path d="M 146.101562 296.878906 L 117.605469 297.382812 L 117.976562 318.378906 L 146.472656 317.875 Z M 146.101562 296.878906 " clip-rule="nonzero"/></clipPath><clipPath id="f136018378"><path d="M 130 296 L 147 296 L 147 318 L 130 318 Z M 130 296 " clip-rule="nonzero"/></clipPath><clipPath id="8a707bec85"><path d="M 117.945312 297.378906 L 146.441406 296.875 L 146.8125 317.871094 L 118.316406 318.375 Z M 117.945312 297.378906 " clip-rule="nonzero"/></clipPath><clipPath id="a5c4100cf6"><path d="M 146.101562 296.878906 L 117.605469 297.382812 L 117.976562 318.378906 L 146.472656 317.875 Z M 146.101562 296.878906 " clip-rule="nonzero"/></clipPath><clipPath id="2e3350f354"><path d="M 75 282 L 95 282 L 95 304 L 75 304 Z M 75 282 " clip-rule="nonzero"/></clipPath><clipPath id="1e24435953"><path d="M 81.105469 277.734375 L 105.09375 293.121094 L 93.757812 310.796875 L 69.765625 295.410156 Z M 81.105469 277.734375 " clip-rule="nonzero"/></clipPath><clipPath id="b1f397c645"><path d="M 104.808594 292.9375 L 80.816406 277.550781 L 69.480469 295.226562 L 93.46875 310.613281 Z M 104.808594 292.9375 " clip-rule="nonzero"/></clipPath><clipPath id="0c2abe3f39"><path d="M 85 289 L 105 289 L 105 311 L 85 311 Z M 85 289 " clip-rule="nonzero"/></clipPath><clipPath id="d96729c57d"><path d="M 81.105469 277.734375 L 105.09375 293.121094 L 93.757812 310.796875 L 69.765625 295.410156 Z M 81.105469 277.734375 " clip-rule="nonzero"/></clipPath><clipPath id="343020275e"><path d="M 104.808594 292.9375 L 80.816406 277.550781 L 69.480469 295.226562 L 93.46875 310.613281 Z M 104.808594 292.9375 " clip-rule="nonzero"/></clipPath><clipPath id="79a45bdd08"><path d="M 39 261 L 60 261 L 60 282 L 39 282 Z M 39 261 " clip-rule="nonzero"/></clipPath><clipPath id="d8d4ea3c33"><path d="M 48.058594 255.742188 L 68.585938 275.511719 L 54.019531 290.636719 L 33.492188 270.867188 Z M 48.058594 255.742188 " clip-rule="nonzero"/></clipPath><clipPath id="c7f7cd1a3e"><path d="M 68.339844 275.277344 L 47.8125 255.503906 L 33.246094 270.632812 L 53.773438 290.402344 Z M 68.339844 275.277344 " clip-rule="nonzero"/></clipPath><clipPath id="549f4de6d8"><path d="M 48 270 L 68 270 L 68 290 L 48 290 Z M 48 270 " clip-rule="nonzero"/></clipPath><clipPath id="0d2e3b447c"><path d="M 48.058594 255.742188 L 68.585938 275.511719 L 54.019531 290.636719 L 33.492188 270.867188 Z M 48.058594 255.742188 " clip-rule="nonzero"/></clipPath><clipPath id="2e183a10bd"><path d="M 68.339844 275.277344 L 47.8125 255.503906 L 33.246094 270.632812 L 53.773438 290.402344 Z M 68.339844 275.277344 " clip-rule="nonzero"/></clipPath><clipPath id="6bf50d9a60"><path d="M 17 226 L 39 226 L 39 245 L 17 245 Z M 17 226 " clip-rule="nonzero"/></clipPath><clipPath id="2c218c92a5"><path d="M 31.21875 221.023438 L 45.539062 245.664062 L 27.386719 256.21875 L 13.0625 231.578125 Z M 31.21875 221.023438 " clip-rule="nonzero"/></clipPath><clipPath id="41a11ee84c"><path d="M 45.371094 245.371094 L 31.046875 220.730469 L 12.890625 231.285156 L 27.214844 255.925781 Z M 45.371094 245.371094 " clip-rule="nonzero"/></clipPath><clipPath id="29c29e912c"><path d="M 23 236 L 45 236 L 45 256 L 23 256 Z M 23 236 " clip-rule="nonzero"/></clipPath><clipPath id="b4141221f9"><path d="M 31.21875 221.023438 L 45.539062 245.664062 L 27.386719 256.21875 L 13.0625 231.578125 Z M 31.21875 221.023438 " clip-rule="nonzero"/></clipPath><clipPath id="cf0fe3c3f4"><path d="M 45.371094 245.371094 L 31.046875 220.730469 L 12.890625 231.285156 L 27.214844 255.925781 Z M 45.371094 245.371094 " clip-rule="nonzero"/></clipPath><clipPath id="5234b35c83"><path d="M 8.878906 171.9375 L 29.878906 171.9375 L 29.878906 188 L 8.878906 188 Z M 8.878906 171.9375 " clip-rule="nonzero"/></clipPath><clipPath id="989a7b60d8"><path d="M 8.878906 184 L 29.878906 184 L 29.878906 200.097656 L 8.878906 200.097656 Z M 8.878906 184 " clip-rule="nonzero"/></clipPath><clipPath id="68209a30de"><path d="M 20 121 L 42 121 L 42 141 L 20 141 Z M 20 121 " clip-rule="nonzero"/></clipPath><clipPath id="e72395af02"><path d="M 46.378906 127.648438 L 30.144531 151.074219 L 12.882812 139.109375 L 29.117188 115.6875 Z M 46.378906 127.648438 " clip-rule="nonzero"/></clipPath><clipPath id="ddc7f0fc8e"><path d="M 30.339844 150.792969 L 46.574219 127.367188 L 29.3125 115.40625 L 13.078125 138.832031 Z M 30.339844 150.792969 " clip-rule="nonzero"/></clipPath><clipPath id="90465fc56f"><path d="M 13 131 L 35 131 L 35 151 L 13 151 Z M 13 131 " clip-rule="nonzero"/></clipPath><clipPath id="2a4a88be67"><path d="M 46.378906 127.648438 L 30.144531 151.074219 L 12.882812 139.109375 L 29.117188 115.6875 Z M 46.378906 127.648438 " clip-rule="nonzero"/></clipPath><clipPath id="cb4b356a81"><path d="M 30.339844 150.792969 L 46.574219 127.367188 L 29.3125 115.40625 L 13.078125 138.832031 Z M 30.339844 150.792969 " clip-rule="nonzero"/></clipPath><clipPath id="36e349ba0d"><path d="M 47 87 L 66 87 L 66 108 L 47 108 Z M 47 87 " clip-rule="nonzero"/></clipPath><clipPath id="9e23db3827"><path d="M 72.519531 97.335938 L 51.425781 116.5 L 37.304688 100.957031 L 58.398438 81.792969 Z M 72.519531 97.335938 " clip-rule="nonzero"/></clipPath><clipPath id="3c895bda54"><path d="M 51.675781 116.269531 L 72.769531 97.105469 L 58.648438 81.5625 L 37.554688 100.726562 Z M 51.675781 116.269531 " clip-rule="nonzero"/></clipPath><clipPath id="b6aee0c444"><path d="M 37 96 L 57 96 L 57 116 L 37 116 Z M 37 96 " clip-rule="nonzero"/></clipPath><clipPath id="9ed5836ad8"><path d="M 72.519531 97.335938 L 51.425781 116.5 L 37.304688 100.957031 L 58.398438 81.792969 Z M 72.519531 97.335938 " clip-rule="nonzero"/></clipPath><clipPath id="5744ad366b"><path d="M 51.675781 116.269531 L 72.769531 97.105469 L 58.648438 81.5625 L 37.554688 100.726562 Z M 51.675781 116.269531 " clip-rule="nonzero"/></clipPath><clipPath id="6547599c99"><path d="M 81 66 L 101 66 L 101 88 L 81 88 Z M 81 66 " clip-rule="nonzero"/></clipPath><clipPath id="d14c1947bd"><path d="M 104.921875 81.058594 L 79.34375 93.632812 L 70.078125 74.785156 L 95.65625 62.214844 Z M 104.921875 81.058594 " clip-rule="nonzero"/></clipPath><clipPath id="7f5e9b8fcc"><path d="M 79.648438 93.480469 L 105.226562 80.910156 L 95.960938 62.0625 L 70.382812 74.636719 Z M 79.648438 93.480469 " clip-rule="nonzero"/></clipPath><clipPath id="d75dd151f0"><path d="M 70 71 L 90 71 L 90 94 L 70 94 Z M 70 71 " clip-rule="nonzero"/></clipPath><clipPath id="3ce95c4b80"><path d="M 104.921875 81.058594 L 79.34375 93.632812 L 70.078125 74.785156 L 95.65625 62.214844 Z M 104.921875 81.058594 " clip-rule="nonzero"/></clipPath><clipPath id="a145da4f00"><path d="M 79.648438 93.480469 L 105.226562 80.910156 L 95.960938 62.0625 L 70.382812 74.636719 Z M 79.648438 93.480469 " clip-rule="nonzero"/></clipPath><clipPath id="2e1bddb8be"><path d="M 130 57.015625 L 146.285156 57.015625 L 146.285156 78 L 130 78 Z M 130 57.015625 " clip-rule="nonzero"/></clipPath><clipPath id="c35b80bcee"><path d="M 118.125 57.015625 L 135 57.015625 L 135 78 L 118.125 78 Z M 118.125 57.015625 " clip-rule="nonzero"/></clipPath><clipPath id="065fd031b5"><path d="M 166 56 L 183 56 L 183 78 L 166 78 Z M 166 56 " clip-rule="nonzero"/></clipPath><clipPath id="be276f4b84"><path d="M 182.511719 78.015625 L 154.023438 77.15625 L 154.65625 56.164062 L 183.144531 57.023438 Z M 182.511719 78.015625 " clip-rule="nonzero"/></clipPath><clipPath id="c9ef230867"><path d="M 154.363281 77.164062 L 182.851562 78.023438 L 183.484375 57.035156 L 154.996094 56.175781 Z M 154.363281 77.164062 " clip-rule="nonzero"/></clipPath><clipPath id="7e60ca0bc9"><path d="M 154 56 L 171 56 L 171 78 L 154 78 Z M 154 56 " clip-rule="nonzero"/></clipPath><clipPath id="56c680d1a6"><path d="M 182.511719 78.015625 L 154.023438 77.15625 L 154.65625 56.164062 L 183.144531 57.023438 Z M 182.511719 78.015625 " clip-rule="nonzero"/></clipPath><clipPath id="2809471b20"><path d="M 154.363281 77.164062 L 182.851562 78.023438 L 183.484375 57.035156 L 154.996094 56.175781 Z M 154.363281 77.164062 " clip-rule="nonzero"/></clipPath><clipPath id="bcd5c39600"><path d="M 278 56 L 295 56 L 295 78 L 278 78 Z M 278 56 " clip-rule="nonzero"/></clipPath><clipPath id="13ea5b3432"><path d="M 294.164062 78.015625 L 265.675781 77.15625 L 266.308594 56.164062 L 294.796875 57.023438 Z M 294.164062 78.015625 " clip-rule="nonzero"/></clipPath><clipPath id="cc43d0261a"><path d="M 266.015625 77.164062 L 294.503906 78.023438 L 295.136719 57.035156 L 266.648438 56.175781 Z M 266.015625 77.164062 " clip-rule="nonzero"/></clipPath><clipPath id="31c8e84a85"><path d="M 266 56 L 283 56 L 283 78 L 266 78 Z M 266 56 " clip-rule="nonzero"/></clipPath><clipPath id="f831e88078"><path d="M 294.164062 78.015625 L 265.675781 77.15625 L 266.308594 56.164062 L 294.796875 57.023438 Z M 294.164062 78.015625 " clip-rule="nonzero"/></clipPath><clipPath id="21d5ae99f2"><path d="M 266.015625 77.164062 L 294.503906 78.023438 L 295.136719 57.035156 L 266.648438 56.175781 Z M 266.015625 77.164062 " clip-rule="nonzero"/></clipPath><clipPath id="cfbc75328a"><path d="M 241 56 L 258 56 L 258 78 L 241 78 Z M 241 56 " clip-rule="nonzero"/></clipPath><clipPath id="63a2c0ab68"><path d="M 257.039062 78.015625 L 228.550781 77.15625 L 229.183594 56.164062 L 257.671875 57.023438 Z M 257.039062 78.015625 " clip-rule="nonzero"/></clipPath><clipPath id="3259d25221"><path d="M 228.890625 77.164062 L 257.378906 78.023438 L 258.011719 57.035156 L 229.523438 56.175781 Z M 228.890625 77.164062 " clip-rule="nonzero"/></clipPath><clipPath id="0a22b6a8bb"><path d="M 228 56 L 246 56 L 246 78 L 228 78 Z M 228 56 " clip-rule="nonzero"/></clipPath><clipPath id="d3376df9c4"><path d="M 257.039062 78.015625 L 228.550781 77.15625 L 229.183594 56.164062 L 257.671875 57.023438 Z M 257.039062 78.015625 " clip-rule="nonzero"/></clipPath><clipPath id="8eb26ccebe"><path d="M 228.890625 77.164062 L 257.378906 78.023438 L 258.011719 57.035156 L 229.523438 56.175781 Z M 228.890625 77.164062 " clip-rule="nonzero"/></clipPath><clipPath id="7e92d20944"><path d="M 204 56 L 221 56 L 221 78 L 204 78 Z M 204 56 " clip-rule="nonzero"/></clipPath><clipPath id="eb1c8ec3e5"><path d="M 220.523438 78.015625 L 192.035156 77.15625 L 192.667969 56.164062 L 221.15625 57.023438 Z M 220.523438 78.015625 " clip-rule="nonzero"/></clipPath><clipPath id="91d2bb02ef"><path d="M 192.375 77.164062 L 220.863281 78.023438 L 221.496094 57.035156 L 193.007812 56.175781 Z M 192.375 77.164062 " clip-rule="nonzero"/></clipPath><clipPath id="9fa0129492"><path d="M 192 56 L 209 56 L 209 78 L 192 78 Z M 192 56 " clip-rule="nonzero"/></clipPath><clipPath id="dd612792fe"><path d="M 220.523438 78.015625 L 192.035156 77.15625 L 192.667969 56.164062 L 221.15625 57.023438 Z M 220.523438 78.015625 " clip-rule="nonzero"/></clipPath><clipPath id="7e4141dfc1"><path d="M 192.375 77.164062 L 220.863281 78.023438 L 221.496094 57.035156 L 193.007812 56.175781 Z M 192.375 77.164062 " clip-rule="nonzero"/></clipPath></defs><g clip-path="url(#7f81283cc8)"><g clip-path="url(#478badaae5)"><path fill="#919191" d="M 303.75 52.777344 L 303.75 323.039062 L -0.132812 323.039062 L -0.132812 52.777344 Z M 303.75 52.777344 " fill-opacity="1" fill-rule="nonzero"/></g></g><g clip-path="url(#9ff538e11a)"><g clip-path="url(#4e7e4ed16a)"><path stroke-linecap="butt" transform="matrix(0.000000000000000046, 0.75, -0.75, 0.000000000000000046, 303.749959, 52.777335)" fill="none" stroke-linejoin="miter" d="M 120.062517 394.442673 C 138.520852 400.817674 159.505228 404.999965 180.098979 404.999965 C 200.69273 404.999965 220.505231 401.416632 238.770857 395.041632 C 239.156274 394.838507 239.546899 394.838507 239.937524 394.64059 C 308.515652 369.145797 359.03128 301.81246 360.00003 224.124956 L 360.00003 -0.0000552182 L 0.0000113526 -0.0000552182 L 0.0000113526 223.95829 C 0.97397 302.208294 50.708347 369.54163 120.062517 394.442673 " stroke="#000000" stroke-width="4" stroke-opacity="1" stroke-miterlimit="4"/></g></g><g clip-path="url(#54db291d5a)"><g clip-path="url(#8c8ea9e287)"><path fill="#707070" d="M 249.75 78.019531 L 249.75 293.753906 L 34.015625 293.753906 L 34.015625 78.019531 Z M 249.75 78.019531 " fill-opacity="1" fill-rule="nonzero"/></g></g><g clip-path="url(#aaca2f0900)"><g clip-path="url(#bbea31d206)"><path stroke-linecap="butt" transform="matrix(0.000000000000000046, 0.75, -0.75, 0.000000000000000046, 249.749981, 78.018339)" fill="none" stroke-linejoin="miter" d="M 144.001607 -0.000025591 C 64.470348 -0.000025591 0.00159033 64.468732 0.00159033 143.999991 C 0.00159033 223.53125 64.470348 288.000008 144.001607 288.000008 C 223.527658 288.000008 288.001623 223.53125 288.001623 143.999991 C 288.001623 64.468732 223.527658 -0.000025591 144.001607 -0.000025591 " stroke="#000000" stroke-width="8" stroke-opacity="1" stroke-miterlimit="4"/></g></g><g clip-path="url(#fd70ba985b)"><g clip-path="url(#37e3f50e09)"><g clip-path="url(#3a84b1d91f)"><path fill="#ffde59" d="M 208.695312 175.386719 L 208.765625 193 L 176.839844 193.125 L 176.769531 175.511719 Z M 208.695312 175.386719 " fill-opacity="1" fill-rule="nonzero"/></g></g></g><g clip-path="url(#c9a2697834)"><g clip-path="url(#4beaeefaeb)"><g clip-path="url(#a894922c2d)"><path fill="#ffde59" d="M 119.984375 208.359375 L 135.175781 217.273438 L 119.019531 244.804688 L 103.828125 235.890625 Z M 119.984375 208.359375 " fill-opacity="1" fill-rule="nonzero"/></g></g></g><g clip-path="url(#5102c6e412)"><g clip-path="url(#c3b0a9aaef)"><g clip-path="url(#65476018fc)"><path fill="#ffde59" d="M 83.03125 163.050781 L 156.199219 120.875 L 192.773438 184.332031 L 119.609375 226.503906 Z M 83.03125 163.050781 " fill-opacity="1" fill-rule="nonzero"/></g></g></g><g clip-path="url(#3ebc239c9e)"><g clip-path="url(#9dd52552ae)"><g clip-path="url(#b97f93835f)"><path fill="#ffde59" d="M 108.011719 139.539062 L 123.273438 130.742188 L 139.214844 158.402344 L 123.957031 167.199219 Z M 108.011719 139.539062 " fill-opacity="1" fill-rule="nonzero"/></g></g></g><g clip-path="url(#9d949ea92d)"><g clip-path="url(#ec17dbb8f3)"><g clip-path="url(#631dba0c85)"><path fill="#ffde59" d="M 94.367188 155.03125 L 67.707031 106.214844 L 116.523438 79.554688 L 143.183594 128.371094 Z M 94.367188 155.03125 " fill-opacity="1" fill-rule="nonzero"/></g></g></g><g clip-path="url(#815b04f5e8)"><g clip-path="url(#37d5e2cfa4)"><g clip-path="url(#bb3131f67e)"><g clip-path="url(#eab09d67cc)"><path fill="#000000" d="M 83.695312 129.242188 C 86.355469 134.117188 90.214844 137.6875 95.265625 139.953125 L 92.8125 145.417969 C 86.539062 142.597656 81.746094 138.164062 78.441406 132.109375 Z M 97.761719 140.917969 C 103.046875 142.636719 108.296875 142.589844 113.511719 140.777344 L 115.476562 146.433594 C 108.992188 148.683594 102.46875 148.742188 95.910156 146.609375 Z M 115.984375 139.765625 C 116.421875 139.558594 116.859375 139.335938 117.289062 139.101562 C 121.699219 136.691406 125.0625 133.269531 127.371094 128.832031 L 132.683594 131.597656 C 129.8125 137.113281 125.636719 141.367188 120.15625 144.359375 C 119.625 144.648438 119.085938 144.921875 118.542969 145.179688 Z M 128.476562 126.394531 C 130.5 121.214844 130.761719 115.96875 129.253906 110.652344 L 135.015625 109.019531 C 136.886719 115.625 136.566406 122.144531 134.054688 128.574219 Z M 128.394531 108.140625 C 128.03125 107.242188 127.617188 106.367188 127.148438 105.507812 C 124.988281 101.550781 121.984375 98.421875 118.132812 96.125 L 121.203125 90.984375 C 125.984375 93.839844 129.71875 97.726562 132.40625 102.640625 C 132.984375 103.699219 133.496094 104.785156 133.945312 105.898438 Z M 115.769531 94.882812 C 110.71875 92.566406 105.496094 92 100.105469 93.191406 L 98.816406 87.34375 C 105.515625 85.867188 112 86.566406 118.269531 89.441406 Z M 97.527344 93.90625 C 96.160156 94.367188 94.835938 94.949219 93.554688 95.648438 C 90.046875 97.566406 87.175781 100.164062 84.949219 103.449219 L 79.992188 100.085938 C 82.765625 96.003906 86.328125 92.773438 90.6875 90.394531 C 92.273438 89.527344 93.914062 88.808594 95.609375 88.234375 Z M 83.570312 105.734375 C 80.964844 110.640625 80.097656 115.820312 80.96875 121.28125 L 75.054688 122.222656 C 73.972656 115.445312 75.050781 109.011719 78.28125 102.925781 Z M 81.535156 123.894531 C 82.042969 125.75 82.761719 127.535156 83.695312 129.242188 L 78.441406 132.109375 C 77.285156 129.996094 76.390625 127.78125 75.757812 125.476562 Z M 81.535156 123.894531 " fill-opacity="1" fill-rule="nonzero"/></g></g></g></g><g clip-path="url(#2791b0edd3)"><g clip-path="url(#7424266e33)"><g clip-path="url(#82fd91a27d)"><path fill="#ffde59" d="M 66.597656 262.621094 L 94.460938 214.480469 L 142.601562 242.34375 L 114.738281 290.484375 Z M 66.597656 262.621094 " fill-opacity="1" fill-rule="nonzero"/></g></g></g><g clip-path="url(#e2d8e06ff0)"><g clip-path="url(#f7daeee509)"><g clip-path="url(#28634bc265)"><g clip-path="url(#de5d3cee07)"><path fill="#000000" d="M 83.089844 240.101562 C 80.308594 244.910156 79.261719 250.058594 79.949219 255.554688 L 74.007812 256.296875 C 73.152344 249.472656 74.453125 243.074219 77.910156 237.105469 Z M 80.421875 258.1875 C 81.699219 263.59375 84.464844 268.058594 88.722656 271.574219 L 84.910156 276.191406 C 79.617188 271.820312 76.179688 266.277344 74.59375 259.5625 Z M 90.867188 273.160156 C 91.277344 273.429688 91.691406 273.683594 92.117188 273.929688 C 96.464844 276.449219 101.136719 277.542969 106.128906 277.210938 L 106.527344 283.183594 C 100.320312 283.597656 94.519531 282.238281 89.117188 279.113281 C 88.589844 278.808594 88.078125 278.492188 87.574219 278.160156 Z M 108.785156 276.890625 C 114.265625 275.929688 118.882812 273.421875 122.640625 269.375 L 127.027344 273.453125 C 122.355469 278.480469 116.621094 281.59375 109.824219 282.789062 Z M 124.34375 267.335938 C 124.921875 266.558594 125.453125 265.75 125.941406 264.90625 C 128.203125 261.003906 129.3125 256.808594 129.277344 252.328125 L 135.265625 252.277344 C 135.308594 257.851562 133.929688 263.058594 131.125 267.90625 C 130.519531 268.949219 129.859375 269.953125 129.140625 270.914062 Z M 129.109375 249.664062 C 128.46875 244.144531 126.238281 239.386719 122.421875 235.394531 L 126.746094 231.257812 C 131.492188 236.214844 134.261719 242.121094 135.058594 248.96875 Z M 120.46875 233.566406 C 119.363281 232.636719 118.179688 231.808594 116.917969 231.078125 C 113.457031 229.074219 109.742188 227.972656 105.78125 227.773438 L 106.078125 221.792969 C 111.007812 222.042969 115.621094 223.410156 119.917969 225.894531 C 121.480469 226.800781 122.949219 227.828125 124.320312 228.984375 Z M 103.113281 227.785156 C 97.566406 228.105469 92.6875 230.058594 88.476562 233.636719 L 84.597656 229.074219 C 89.828125 224.628906 95.886719 222.207031 102.765625 221.808594 Z M 86.535156 235.476562 C 85.214844 236.878906 84.066406 238.417969 83.089844 240.101562 L 77.910156 237.105469 C 79.117188 235.015625 80.542969 233.105469 82.183594 231.367188 Z M 86.535156 235.476562 " fill-opacity="1" fill-rule="nonzero"/></g></g></g></g><g clip-path="url(#a96474e4af)"><g clip-path="url(#e84a395c00)"><path fill="#ffde59" d="M 190.894531 212.320312 L 190.894531 156.699219 L 246.519531 156.699219 L 246.519531 212.320312 Z M 190.894531 212.320312 " fill-opacity="1" fill-rule="nonzero"/></g></g><g clip-path="url(#178aab7ebd)"><g clip-path="url(#c5fb019131)"><path fill="#000000" d="M 193.890625 184.570312 C 193.890625 190.125 195.5625 195.109375 198.910156 199.519531 L 194.140625 203.140625 C 189.980469 197.65625 187.902344 191.46875 187.902344 184.570312 Z M 200.636719 201.558594 C 204.453125 205.601562 209.082031 208.078125 214.53125 208.988281 L 213.542969 214.894531 C 206.773438 213.761719 201.019531 210.6875 196.285156 205.667969 Z M 217.179688 209.285156 C 217.667969 209.3125 218.15625 209.328125 218.644531 209.328125 C 223.671875 209.328125 228.261719 207.933594 232.417969 205.148438 L 235.753906 210.117188 C 230.589844 213.582031 224.886719 215.316406 218.644531 215.316406 C 218.039062 215.316406 217.4375 215.296875 216.832031 215.261719 Z M 234.558594 203.539062 C 238.816406 199.960938 241.558594 195.480469 242.785156 190.09375 L 248.621094 191.425781 C 247.097656 198.117188 243.695312 203.683594 238.410156 208.121094 Z M 243.234375 187.476562 C 243.347656 186.515625 243.402344 185.546875 243.402344 184.570312 C 243.402344 180.0625 242.261719 175.875 239.988281 172.015625 L 245.144531 168.972656 C 247.972656 173.773438 249.390625 178.972656 249.390625 184.570312 C 249.390625 185.777344 249.320312 186.980469 249.179688 188.171875 Z M 238.507812 169.792969 C 235.1875 165.335938 230.875 162.339844 225.570312 160.796875 L 227.242188 155.046875 C 233.832031 156.960938 239.1875 160.683594 243.308594 166.214844 Z M 222.964844 160.191406 C 221.542969 159.941406 220.101562 159.816406 218.644531 159.816406 C 214.644531 159.816406 210.878906 160.722656 207.351562 162.535156 L 204.613281 157.210938 C 209.003906 154.957031 213.679688 153.828125 218.644531 153.828125 C 220.453125 153.828125 222.238281 153.984375 224.003906 154.292969 Z M 205.046875 163.882812 C 200.410156 166.9375 197.164062 171.070312 195.3125 176.277344 L 189.671875 174.273438 C 191.96875 167.804688 195.996094 162.671875 201.753906 158.882812 Z M 194.554688 178.84375 C 194.109375 180.71875 193.890625 182.625 193.890625 184.570312 L 187.902344 184.570312 C 187.902344 182.160156 188.175781 179.789062 188.730469 177.464844 Z M 194.554688 178.84375 " fill-opacity="1" fill-rule="nonzero"/></g></g><g clip-path="url(#705f198049)"><g clip-path="url(#02d25b8d1b)"><g clip-path="url(#71d8772ed9)"><path fill="#707070" d="M 95.914062 114.734375 L 108.007812 107.765625 L 114.980469 119.859375 L 102.882812 126.832031 Z M 95.914062 114.734375 " fill-opacity="1" fill-rule="nonzero"/></g></g></g><g clip-path="url(#10dcc2d8d0)"><g clip-path="url(#82b63f7e58)"><g clip-path="url(#2aac004239)"><path fill="#707070" d="M 102.050781 242.949219 L 114.132812 249.941406 L 107.140625 262.023438 L 95.058594 255.03125 Z M 102.050781 242.949219 " fill-opacity="1" fill-rule="nonzero"/></g></g></g><g clip-path="url(#a480b58fd0)"><g clip-path="url(#08c0ca7782)"><g clip-path="url(#72ed1aa1a8)"><path fill="#707070" d="M 209.152344 180.914062 L 221.246094 173.945312 L 228.21875 186.039062 L 216.121094 193.007812 Z M 209.152344 180.914062 " fill-opacity="1" fill-rule="nonzero"/></g></g></g><g clip-path="url(#36807ab952)"><g clip-path="url(#aa501ac33f)"><g clip-path="url(#a623e637dc)"><g clip-path="url(#b0fb4f2e51)"><path fill="#ffffff" d="M 153.085938 125.074219 C 153.078125 125.03125 153.089844 124.996094 153.121094 124.96875 C 153.082031 124.828125 152.851562 124.816406 152.902344 124.617188 C 152.75 124.191406 152.996094 123.945312 153.304688 123.730469 C 154.167969 123.136719 155.109375 122.691406 156.078125 122.304688 C 159.550781 120.925781 163.140625 120.339844 166.863281 120.386719 C 173.367188 120.464844 179.070312 122.714844 184.203125 126.546875 C 186.582031 128.324219 188.605469 130.488281 190.53125 132.75 C 191.660156 134.078125 192.707031 135.472656 193.789062 136.839844 C 193.804688 136.90625 193.820312 136.972656 193.839844 137.039062 C 193.90625 137.074219 193.972656 137.132812 194.042969 137.136719 C 194.042969 137.136719 194.042969 137.136719 194.042969 137.132812 C 194.097656 137.132812 194.097656 137.054688 194.058594 137.007812 C 194.046875 136.316406 193.890625 135.65625 193.699219 135.003906 C 193.566406 134.554688 193.472656 134.109375 193.515625 133.640625 C 193.226562 132.679688 193.542969 131.945312 194.375 131.5625 C 195.753906 133.003906 196.148438 134.832031 196.402344 136.722656 C 196.496094 137.425781 196.636719 138.121094 196.769531 138.816406 C 197.082031 140.488281 196.945312 140.265625 195.910156 141.1875 C 195.679688 141.390625 195.40625 141.542969 195.117188 141.660156 C 195.011719 141.707031 194.910156 141.738281 194.800781 141.6875 C 194.523438 141.90625 194.257812 141.785156 194 141.65625 C 193.242188 141.265625 192.492188 140.871094 191.734375 140.472656 C 191.53125 140.488281 191.375 140.382812 191.226562 140.269531 C 191.023438 140.292969 190.867188 140.183594 190.707031 140.082031 C 190.566406 140.121094 190.457031 140.03125 190.332031 139.992188 C 188.660156 139.484375 186.957031 139.175781 185.199219 139.160156 C 185.066406 139.15625 184.9375 139.144531 184.804688 139.136719 C 184.648438 139.132812 184.46875 139.125 184.421875 138.949219 C 184.386719 138.820312 184.488281 138.65625 184.597656 138.613281 C 185.066406 138.40625 185.335938 137.945312 185.773438 137.703125 C 185.96875 137.597656 186.191406 137.578125 186.414062 137.566406 C 188.148438 137.445312 189.847656 137.636719 191.535156 138.003906 C 191.6875 138.039062 191.835938 138.097656 191.988281 138.097656 C 192.164062 138.097656 192.179688 137.953125 192.160156 137.808594 C 191.992188 137.753906 191.910156 137.636719 191.902344 137.464844 C 191.757812 137.382812 191.628906 137.292969 191.625 137.105469 C 191.582031 137.105469 191.5625 137.082031 191.570312 137.039062 C 191.429688 136.96875 191.3125 136.878906 191.304688 136.703125 C 191.21875 136.632812 191.125 136.574219 191.058594 136.492188 C 190.292969 135.582031 189.542969 134.664062 188.769531 133.769531 C 188.066406 132.953125 187.339844 132.160156 186.625 131.359375 C 186.410156 131.171875 186.1875 130.992188 185.980469 130.796875 C 183.964844 128.90625 181.75 127.292969 179.296875 126.015625 C 178.421875 125.5625 177.535156 125.132812 176.652344 124.695312 C 176.4375 124.710938 176.28125 124.59375 176.121094 124.476562 C 175.914062 124.496094 175.765625 124.386719 175.613281 124.277344 C 175.417969 124.308594 175.28125 124.191406 175.128906 124.105469 C 175.003906 124.140625 174.90625 124.085938 174.820312 124.003906 C 174.773438 124.011719 174.738281 123.996094 174.710938 123.957031 C 174.574219 123.992188 174.460938 123.90625 174.335938 123.871094 C 173.726562 123.707031 173.152344 123.433594 172.519531 123.34375 C 172.492188 123.273438 172.339844 123.171875 172.578125 123.179688 C 172.738281 123.1875 172.765625 123.148438 172.746094 123.097656 C 172.726562 123.054688 172.671875 123 172.636719 122.953125 C 170.695312 122.496094 168.71875 122.277344 166.726562 122.1875 C 166.539062 122.199219 166.351562 122.207031 166.167969 122.214844 C 165.058594 122.269531 163.945312 122.324219 162.835938 122.378906 C 162.800781 122.410156 162.765625 122.421875 162.726562 122.421875 C 162.699219 122.421875 162.675781 122.414062 162.648438 122.402344 C 162.589844 122.453125 162.527344 122.457031 162.460938 122.425781 C 162.402344 122.476562 162.339844 122.484375 162.273438 122.449219 C 162.21875 122.5 162.15625 122.507812 162.089844 122.472656 C 162.03125 122.527344 161.96875 122.535156 161.902344 122.5 C 161.847656 122.554688 161.785156 122.5625 161.71875 122.527344 L 161.714844 122.527344 C 161.664062 122.582031 161.601562 122.59375 161.535156 122.554688 L 161.53125 122.554688 C 161.472656 122.570312 161.410156 122.582031 161.351562 122.585938 L 161.34375 122.589844 C 161.289062 122.644531 161.230469 122.65625 161.164062 122.617188 L 161.15625 122.621094 C 161.105469 122.675781 161.042969 122.6875 160.976562 122.652344 L 160.96875 122.652344 C 160.917969 122.710938 160.855469 122.71875 160.789062 122.683594 L 160.785156 122.683594 C 160.734375 122.742188 160.671875 122.753906 160.605469 122.71875 L 160.601562 122.71875 C 160.546875 122.777344 160.488281 122.789062 160.417969 122.753906 C 159.855469 122.898438 159.296875 123.039062 158.738281 123.183594 C 158.421875 123.164062 158.140625 123.296875 157.851562 123.386719 C 157.84375 123.421875 157.84375 123.453125 157.851562 123.484375 C 157.863281 123.53125 157.886719 123.574219 157.925781 123.609375 C 157.714844 123.699219 157.507812 123.808594 157.269531 123.796875 C 157.199219 123.785156 157.125 123.785156 157.054688 123.816406 C 157.125 123.808594 157.199219 123.800781 157.269531 123.796875 C 157.207031 123.839844 157.144531 123.871094 157.074219 123.824219 C 157.007812 123.921875 156.914062 123.953125 156.800781 123.949219 C 156.757812 124.007812 156.703125 124.035156 156.628906 124.003906 C 156.570312 124.054688 156.511719 124.089844 156.433594 124.0625 C 156.40625 124.089844 156.378906 124.109375 156.335938 124.105469 C 156.144531 124.230469 155.9375 124.3125 155.710938 124.339844 C 155.570312 124.421875 155.433594 124.507812 155.265625 124.507812 C 155.195312 124.59375 155.09375 124.609375 154.996094 124.632812 C 154.445312 124.953125 153.839844 125.171875 153.324219 125.617188 C 153.265625 125.386719 153.019531 125.304688 153.085938 125.074219 Z M 191.644531 136.929688 C 191.644531 136.929688 191.644531 136.929688 191.640625 136.929688 C 191.640625 136.925781 191.644531 136.929688 191.644531 136.929688 C 191.640625 136.925781 191.640625 136.929688 191.640625 136.929688 C 191.640625 136.929688 191.640625 136.933594 191.636719 136.933594 C 191.640625 136.933594 191.640625 136.929688 191.644531 136.929688 Z M 160.761719 122.316406 C 160.773438 122.3125 160.789062 122.304688 160.800781 122.300781 C 160.796875 122.300781 160.792969 122.300781 160.789062 122.300781 C 160.777344 122.304688 160.765625 122.304688 160.753906 122.308594 C 160.753906 122.308594 160.757812 122.3125 160.761719 122.316406 Z M 162.828125 122.375 C 162.828125 122.371094 162.828125 122.371094 162.828125 122.371094 C 162.828125 122.367188 162.828125 122.359375 162.824219 122.355469 L 162.820312 122.339844 L 162.828125 122.371094 C 162.828125 122.375 162.824219 122.371094 162.824219 122.375 C 162.824219 122.371094 162.828125 122.375 162.828125 122.375 Z M 160.710938 122.265625 C 160.726562 122.28125 160.738281 122.292969 160.75 122.304688 C 160.761719 122.304688 160.773438 122.300781 160.789062 122.300781 C 160.761719 122.300781 160.734375 122.289062 160.710938 122.265625 Z M 160.871094 122.28125 C 160.886719 122.277344 160.902344 122.277344 160.914062 122.273438 C 160.914062 122.269531 160.917969 122.273438 160.917969 122.269531 C 160.902344 122.273438 160.886719 122.277344 160.871094 122.28125 Z M 153.878906 124.160156 C 153.878906 124.160156 153.875 124.160156 153.875 124.160156 C 153.875 124.160156 153.871094 124.160156 153.871094 124.160156 C 153.871094 124.164062 153.871094 124.164062 153.867188 124.164062 C 153.871094 124.164062 153.875 124.164062 153.878906 124.160156 Z M 154.125 124.019531 C 154.128906 124.015625 154.128906 124.011719 154.132812 124.011719 C 154.132812 124.015625 154.125 124.015625 154.125 124.019531 Z M 156.949219 123.777344 C 156.9375 123.769531 156.929688 123.757812 156.925781 123.742188 C 156.917969 123.75 156.914062 123.757812 156.910156 123.765625 C 156.921875 123.769531 156.933594 123.773438 156.949219 123.777344 Z M 156.5 124 C 156.476562 124.003906 156.453125 124.019531 156.433594 124.039062 C 156.433594 124.039062 156.433594 124.039062 156.4375 124.039062 C 156.457031 124.023438 156.476562 124.007812 156.5 124 Z M 156.5 124 " fill-opacity="1" fill-rule="nonzero"/></g></g></g></g><g clip-path="url(#2158628111)"><g clip-path="url(#43b64cf2f4)"><g clip-path="url(#24a1a11a3b)"><g clip-path="url(#b5874925c6)"><path fill="#ffffff" d="M 161.339844 122.585938 C 161.398438 122.574219 161.460938 122.566406 161.519531 122.554688 C 161.464844 122.613281 161.40625 122.621094 161.339844 122.585938 Z M 161.339844 122.585938 " fill-opacity="1" fill-rule="nonzero"/></g></g></g></g><g clip-path="url(#46c27d6d7b)"><g clip-path="url(#bb80f04435)"><g clip-path="url(#010e9c4155)"><g clip-path="url(#36ca94be27)"><path fill="#ffffff" d="M 194.664062 225.445312 C 194.699219 225.460938 194.722656 225.492188 194.726562 225.535156 C 194.863281 225.582031 195.011719 225.398438 195.140625 225.558594 C 195.578125 225.675781 195.636719 226.019531 195.632812 226.394531 C 195.625 227.445312 195.445312 228.46875 195.203125 229.484375 C 194.332031 233.117188 192.746094 236.390625 190.566406 239.410156 C 186.757812 244.679688 181.636719 248.046875 175.546875 250.039062 C 172.722656 250.964844 169.789062 251.375 166.832031 251.644531 C 165.097656 251.804688 163.355469 251.859375 161.613281 251.953125 C 161.546875 251.929688 161.484375 251.90625 161.421875 251.878906 C 161.351562 251.917969 161.265625 251.9375 161.226562 251.992188 C 161.226562 251.992188 161.226562 251.992188 161.222656 251.992188 C 161.195312 252.039062 161.257812 252.082031 161.320312 252.078125 C 161.890625 252.464844 162.523438 252.71875 163.167969 252.9375 C 163.609375 253.089844 164.027344 253.269531 164.386719 253.570312 C 165.335938 253.886719 165.757812 254.570312 165.589844 255.472656 C 163.617188 255.769531 161.898438 255.042969 160.203125 254.160156 C 159.574219 253.832031 158.925781 253.546875 158.28125 253.253906 C 156.734375 252.550781 156.996094 252.5625 156.835938 251.1875 C 156.800781 250.878906 156.835938 250.570312 156.90625 250.265625 C 156.929688 250.152344 156.960938 250.054688 157.066406 249.992188 C 157.046875 249.640625 157.296875 249.492188 157.550781 249.359375 C 158.304688 248.960938 159.0625 248.574219 159.820312 248.183594 C 159.925781 248.007812 160.101562 247.941406 160.285156 247.882812 C 160.382812 247.707031 160.5625 247.640625 160.734375 247.570312 C 160.785156 247.433594 160.921875 247.394531 161.023438 247.3125 C 162.402344 246.238281 163.636719 245.023438 164.660156 243.597656 C 164.738281 243.488281 164.824219 243.390625 164.90625 243.285156 C 165 243.160156 165.109375 243.019531 165.277344 243.082031 C 165.40625 243.128906 165.476562 243.304688 165.453125 243.417969 C 165.351562 243.921875 165.574219 244.410156 165.519531 244.902344 C 165.492188 245.125 165.382812 245.316406 165.261719 245.507812 C 164.363281 246.992188 163.226562 248.273438 161.957031 249.441406 C 161.84375 249.546875 161.710938 249.632812 161.621094 249.757812 C 161.519531 249.902344 161.628906 250 161.757812 250.066406 C 161.898438 249.960938 162.042969 249.960938 162.1875 250.054688 C 162.335938 249.984375 162.484375 249.925781 162.640625 250.035156 C 162.667969 249.996094 162.695312 249.996094 162.726562 250.023438 C 162.867188 249.953125 163.003906 249.910156 163.15625 250 C 163.261719 249.972656 163.363281 249.929688 163.46875 249.921875 C 164.652344 249.820312 165.832031 249.734375 167.011719 249.621094 C 168.085938 249.515625 169.148438 249.375 170.21875 249.25 C 170.496094 249.183594 170.769531 249.105469 171.046875 249.046875 C 173.753906 248.488281 176.347656 247.605469 178.804688 246.335938 C 179.679688 245.882812 180.539062 245.402344 181.40625 244.929688 C 181.515625 244.746094 181.707031 244.6875 181.894531 244.625 C 181.992188 244.445312 182.171875 244.382812 182.347656 244.324219 C 182.433594 244.144531 182.609375 244.097656 182.765625 244.027344 C 182.8125 243.90625 182.910156 243.855469 183.027344 243.832031 C 183.046875 243.789062 183.078125 243.769531 183.128906 243.773438 C 183.179688 243.636719 183.316406 243.59375 183.414062 243.515625 C 183.898438 243.109375 184.457031 242.796875 184.890625 242.332031 C 184.964844 242.347656 185.132812 242.28125 184.988281 242.472656 C 184.894531 242.601562 184.910156 242.644531 184.960938 242.65625 C 185.007812 242.667969 185.082031 242.65625 185.140625 242.652344 C 186.636719 241.328125 187.953125 239.835938 189.167969 238.257812 C 189.269531 238.101562 189.371094 237.941406 189.46875 237.785156 C 190.0625 236.847656 190.660156 235.90625 191.253906 234.96875 C 191.25 234.921875 191.257812 234.882812 191.28125 234.851562 C 191.296875 234.832031 191.316406 234.8125 191.34375 234.800781 C 191.335938 234.722656 191.367188 234.667969 191.433594 234.632812 C 191.421875 234.558594 191.453125 234.503906 191.519531 234.46875 C 191.507812 234.390625 191.539062 234.335938 191.609375 234.300781 C 191.597656 234.226562 191.625 234.167969 191.695312 234.136719 C 191.679688 234.058594 191.707031 234.003906 191.777344 233.96875 L 191.777344 233.964844 C 191.761719 233.890625 191.789062 233.835938 191.859375 233.800781 L 191.859375 233.796875 C 191.882812 233.742188 191.910156 233.6875 191.9375 233.632812 L 191.941406 233.628906 C 191.925781 233.550781 191.953125 233.496094 192.019531 233.460938 L 192.023438 233.457031 C 192.007812 233.378906 192.03125 233.324219 192.101562 233.289062 L 192.105469 233.285156 C 192.105469 233.285156 192.105469 233.28125 192.105469 233.28125 C 192.105469 233.28125 192.105469 233.285156 192.105469 233.285156 C 192.085938 233.210938 192.113281 233.152344 192.183594 233.117188 L 192.183594 233.113281 C 192.167969 233.039062 192.191406 232.984375 192.261719 232.949219 L 192.261719 232.945312 C 192.246094 232.867188 192.273438 232.8125 192.339844 232.773438 C 192.546875 232.234375 192.75 231.695312 192.957031 231.152344 C 193.148438 230.90625 193.207031 230.597656 193.300781 230.3125 C 193.273438 230.285156 193.246094 230.269531 193.21875 230.253906 C 193.171875 230.238281 193.125 230.234375 193.074219 230.246094 C 193.121094 230.019531 193.152344 229.789062 193.300781 229.601562 C 193.347656 229.546875 193.390625 229.488281 193.40625 229.414062 C 193.371094 229.476562 193.335938 229.539062 193.300781 229.601562 C 193.300781 229.523438 193.308594 229.453125 193.386719 229.425781 C 193.347656 229.3125 193.375 229.21875 193.445312 229.128906 C 193.417969 229.058594 193.429688 229 193.496094 228.957031 C 193.488281 228.878906 193.496094 228.8125 193.5625 228.761719 C 193.554688 228.726562 193.558594 228.691406 193.582031 228.660156 C 193.589844 228.429688 193.644531 228.214844 193.75 228.011719 C 193.765625 227.851562 193.773438 227.691406 193.871094 227.550781 C 193.839844 227.445312 193.886719 227.351562 193.925781 227.261719 C 193.980469 226.625 194.148438 226.003906 194.082031 225.328125 C 194.304688 225.410156 194.511719 225.257812 194.664062 225.445312 Z M 162.773438 250.148438 C 162.773438 250.148438 162.773438 250.148438 162.777344 250.148438 C 162.777344 250.148438 162.773438 250.152344 162.773438 250.152344 C 162.777344 250.148438 162.777344 250.148438 162.777344 250.148438 C 162.773438 250.148438 162.773438 250.144531 162.773438 250.144531 C 162.773438 250.144531 162.773438 250.148438 162.773438 250.148438 Z M 192.5 233.304688 C 192.496094 233.320312 192.492188 233.335938 192.488281 233.351562 C 192.492188 233.347656 192.492188 233.34375 192.496094 233.339844 C 192.5 233.328125 192.507812 233.316406 192.511719 233.304688 C 192.507812 233.304688 192.503906 233.304688 192.5 233.304688 Z M 191.261719 234.964844 C 191.261719 234.964844 191.265625 234.964844 191.265625 234.964844 C 191.269531 234.96875 191.273438 234.972656 191.28125 234.972656 L 191.296875 234.976562 L 191.265625 234.964844 C 191.265625 234.964844 191.265625 234.960938 191.265625 234.960938 C 191.265625 234.960938 191.265625 234.964844 191.261719 234.964844 Z M 192.570312 233.296875 C 192.550781 233.296875 192.53125 233.300781 192.515625 233.304688 C 192.507812 233.316406 192.503906 233.328125 192.5 233.339844 C 192.511719 233.316406 192.535156 233.300781 192.570312 233.296875 Z M 192.464844 233.417969 C 192.457031 233.429688 192.453125 233.445312 192.449219 233.457031 C 192.449219 233.457031 192.445312 233.460938 192.449219 233.460938 C 192.453125 233.445312 192.457031 233.429688 192.464844 233.417969 Z M 194.953125 226.617188 C 194.953125 226.617188 194.953125 226.617188 194.957031 226.613281 C 194.957031 226.609375 194.957031 226.609375 194.957031 226.605469 C 194.953125 226.609375 194.953125 226.613281 194.953125 226.617188 Z M 194.925781 226.902344 C 194.929688 226.902344 194.929688 226.90625 194.929688 226.910156 C 194.925781 226.90625 194.925781 226.902344 194.925781 226.902344 Z M 193.5 229.347656 C 193.511719 229.347656 193.527344 229.347656 193.542969 229.347656 C 193.539062 229.339844 193.535156 229.332031 193.535156 229.324219 C 193.523438 229.332031 193.511719 229.339844 193.5 229.347656 Z M 193.574219 228.851562 C 193.585938 228.832031 193.585938 228.804688 193.582031 228.777344 C 193.582031 228.777344 193.582031 228.777344 193.578125 228.777344 C 193.582031 228.804688 193.582031 228.832031 193.574219 228.851562 Z M 193.574219 228.851562 " fill-opacity="1" fill-rule="nonzero"/></g></g></g></g><g clip-path="url(#cd3ee9eefc)"><g clip-path="url(#cdfd119e2e)"><g clip-path="url(#84d48e55df)"><g clip-path="url(#4823e95d70)"><path fill="#ffffff" d="M 191.945312 233.625 C 191.921875 233.679688 191.894531 233.734375 191.867188 233.789062 C 191.851562 233.714844 191.878906 233.660156 191.945312 233.625 Z M 191.945312 233.625 " fill-opacity="1" fill-rule="nonzero"/></g></g></g></g><g clip-path="url(#c3fb91a582)"><g clip-path="url(#c15c4a1451)"><g clip-path="url(#b02cebf94d)"><g clip-path="url(#e7278d3e7f)"><path fill="#ffffff" d="M 80.980469 209.925781 C 80.945312 209.945312 80.910156 209.945312 80.871094 209.929688 C 80.753906 210.011719 80.820312 210.234375 80.617188 210.253906 C 80.269531 210.546875 79.953125 210.398438 79.648438 210.179688 C 78.789062 209.574219 78.050781 208.84375 77.355469 208.066406 C 74.867188 205.28125 73.082031 202.113281 71.84375 198.597656 C 69.683594 192.464844 69.835938 186.339844 71.667969 180.199219 C 72.519531 177.355469 73.855469 174.707031 75.316406 172.125 C 76.175781 170.605469 77.125 169.144531 78.039062 167.660156 C 78.09375 167.621094 78.152344 167.582031 78.207031 167.542969 C 78.21875 167.46875 78.25 167.386719 78.226562 167.320312 C 78.226562 167.320312 78.226562 167.320312 78.226562 167.316406 C 78.207031 167.265625 78.132812 167.292969 78.101562 167.347656 C 77.457031 167.597656 76.890625 167.972656 76.34375 168.375 C 75.96875 168.652344 75.582031 168.894531 75.128906 169.015625 C 74.328125 169.617188 73.527344 169.574219 72.882812 168.921875 C 73.761719 167.132812 75.339844 166.132812 77.027344 165.246094 C 77.65625 164.914062 78.261719 164.542969 78.871094 164.179688 C 80.328125 163.3125 80.167969 163.519531 81.390625 164.171875 C 81.664062 164.320312 81.898438 164.523438 82.109375 164.753906 C 82.1875 164.835938 82.25 164.921875 82.238281 165.042969 C 82.542969 165.226562 82.519531 165.519531 82.484375 165.804688 C 82.382812 166.648438 82.265625 167.492188 82.15625 168.335938 C 82.238281 168.523438 82.195312 168.707031 82.140625 168.886719 C 82.230469 169.070312 82.179688 169.253906 82.140625 169.4375 C 82.226562 169.554688 82.179688 169.691406 82.1875 169.820312 C 82.285156 171.566406 82.578125 173.273438 83.167969 174.925781 C 83.210938 175.050781 83.246094 175.179688 83.285156 175.304688 C 83.332031 175.457031 83.386719 175.625 83.238281 175.726562 C 83.128906 175.804688 82.941406 175.765625 82.863281 175.683594 C 82.507812 175.3125 81.980469 175.214844 81.605469 174.886719 C 81.4375 174.742188 81.34375 174.539062 81.253906 174.335938 C 80.546875 172.75 80.140625 171.082031 79.90625 169.375 C 79.886719 169.222656 79.890625 169.0625 79.835938 168.917969 C 79.777344 168.753906 79.636719 168.785156 79.507812 168.855469 C 79.511719 169.03125 79.433594 169.148438 79.273438 169.214844 C 79.246094 169.378906 79.207031 169.53125 79.03125 169.597656 C 79.046875 169.640625 79.03125 169.667969 78.988281 169.675781 C 78.96875 169.828125 78.925781 169.96875 78.761719 170.039062 C 78.726562 170.140625 78.703125 170.25 78.648438 170.34375 C 78.058594 171.375 77.453125 172.390625 76.878906 173.425781 C 76.355469 174.367188 75.859375 175.320312 75.355469 176.269531 C 75.253906 176.539062 75.160156 176.808594 75.046875 177.066406 C 73.964844 179.609375 73.210938 182.246094 72.855469 184.988281 C 72.730469 185.964844 72.632812 186.945312 72.527344 187.925781 C 72.617188 188.125 72.558594 188.3125 72.5 188.5 C 72.59375 188.6875 72.539062 188.867188 72.488281 189.046875 C 72.589844 189.21875 72.527344 189.386719 72.492188 189.558594 C 72.570312 189.664062 72.554688 189.773438 72.503906 189.882812 C 72.53125 189.925781 72.527344 189.964844 72.5 190 C 72.582031 190.121094 72.535156 190.253906 72.546875 190.382812 C 72.601562 191.011719 72.542969 191.648438 72.675781 192.273438 C 72.621094 192.320312 72.578125 192.5 72.503906 192.269531 C 72.453125 192.121094 72.410156 192.105469 72.367188 192.144531 C 72.335938 192.175781 72.300781 192.246094 72.269531 192.296875 C 72.507812 194.277344 72.980469 196.207031 73.585938 198.109375 C 73.65625 198.28125 73.730469 198.453125 73.800781 198.625 C 74.234375 199.648438 74.667969 200.671875 75.097656 201.695312 C 75.140625 201.71875 75.164062 201.746094 75.179688 201.785156 C 75.1875 201.808594 75.191406 201.835938 75.1875 201.867188 C 75.253906 201.902344 75.28125 201.960938 75.273438 202.03125 C 75.339844 202.066406 75.367188 202.125 75.359375 202.199219 C 75.429688 202.234375 75.457031 202.289062 75.445312 202.367188 C 75.515625 202.402344 75.546875 202.457031 75.535156 202.53125 C 75.605469 202.566406 75.636719 202.621094 75.621094 202.695312 L 75.625 202.699219 C 75.695312 202.726562 75.726562 202.785156 75.714844 202.859375 L 75.714844 202.863281 C 75.75 202.910156 75.78125 202.964844 75.808594 203.019531 L 75.808594 203.027344 C 75.878906 203.054688 75.910156 203.109375 75.902344 203.183594 L 75.902344 203.191406 C 75.972656 203.222656 76.003906 203.273438 75.996094 203.347656 L 76 203.355469 C 76.070312 203.382812 76.101562 203.4375 76.089844 203.511719 L 76.09375 203.515625 C 76.164062 203.546875 76.195312 203.597656 76.1875 203.675781 C 76.257812 203.707031 76.292969 203.761719 76.285156 203.839844 C 76.609375 204.316406 76.9375 204.792969 77.265625 205.269531 C 77.355469 205.570312 77.578125 205.789062 77.761719 206.03125 C 77.796875 206.027344 77.828125 206.011719 77.851562 205.996094 C 77.894531 205.96875 77.921875 205.933594 77.945312 205.882812 C 78.101562 206.050781 78.273438 206.207031 78.34375 206.4375 C 78.359375 206.507812 78.382812 206.574219 78.4375 206.628906 C 78.40625 206.566406 78.375 206.5 78.34375 206.4375 C 78.40625 206.480469 78.457031 206.527344 78.441406 206.609375 C 78.550781 206.640625 78.613281 206.71875 78.648438 206.824219 C 78.722656 206.84375 78.765625 206.886719 78.761719 206.964844 C 78.828125 207.003906 78.878906 207.046875 78.882812 207.132812 C 78.917969 207.144531 78.945312 207.167969 78.957031 207.207031 C 79.140625 207.34375 79.285156 207.507812 79.390625 207.710938 C 79.515625 207.816406 79.644531 207.914062 79.703125 208.074219 C 79.808594 208.109375 79.855469 208.199219 79.910156 208.285156 C 80.402344 208.691406 80.816406 209.183594 81.410156 209.515625 C 81.214844 209.648438 81.222656 209.90625 80.980469 209.925781 Z M 78.859375 169.640625 C 78.859375 169.644531 78.859375 169.644531 78.859375 169.644531 C 78.859375 169.644531 78.859375 169.640625 78.859375 169.640625 C 78.859375 169.644531 78.859375 169.644531 78.859375 169.644531 C 78.859375 169.644531 78.863281 169.644531 78.863281 169.648438 C 78.863281 169.644531 78.859375 169.644531 78.859375 169.640625 Z M 75.753906 203.667969 C 75.746094 203.65625 75.734375 203.644531 75.726562 203.632812 C 75.726562 203.636719 75.730469 203.640625 75.730469 203.644531 C 75.738281 203.65625 75.742188 203.667969 75.75 203.675781 C 75.75 203.675781 75.753906 203.671875 75.753906 203.667969 Z M 75.097656 201.707031 C 75.097656 201.707031 75.097656 201.707031 75.09375 201.707031 C 75.089844 201.710938 75.085938 201.710938 75.082031 201.714844 L 75.066406 201.726562 L 75.097656 201.707031 C 75.097656 201.707031 75.097656 201.707031 75.101562 201.710938 C 75.097656 201.707031 75.097656 201.707031 75.097656 201.707031 Z M 75.726562 203.730469 C 75.734375 203.710938 75.742188 203.695312 75.75 203.679688 C 75.742188 203.667969 75.734375 203.660156 75.730469 203.648438 C 75.742188 203.671875 75.738281 203.699219 75.726562 203.730469 Z M 75.683594 203.574219 C 75.675781 203.5625 75.667969 203.550781 75.660156 203.539062 C 75.660156 203.539062 75.660156 203.535156 75.65625 203.535156 C 75.667969 203.550781 75.675781 203.5625 75.683594 203.574219 Z M 79.851562 209.492188 C 79.851562 209.496094 79.855469 209.496094 79.855469 209.5 C 79.855469 209.5 79.859375 209.503906 79.859375 209.503906 C 79.859375 209.5 79.855469 209.496094 79.851562 209.492188 Z M 79.636719 209.3125 C 79.632812 209.3125 79.628906 209.3125 79.625 209.308594 C 79.628906 209.308594 79.632812 209.3125 79.636719 209.3125 Z M 78.4375 206.746094 C 78.433594 206.757812 78.425781 206.765625 78.414062 206.777344 C 78.421875 206.78125 78.429688 206.785156 78.4375 206.785156 C 78.4375 206.773438 78.4375 206.757812 78.4375 206.746094 Z M 78.800781 207.089844 C 78.8125 207.109375 78.835938 207.125 78.859375 207.136719 C 78.859375 207.136719 78.859375 207.136719 78.859375 207.132812 C 78.835938 207.121094 78.816406 207.109375 78.800781 207.089844 Z M 78.800781 207.089844 " fill-opacity="1" fill-rule="nonzero"/></g></g></g></g><g clip-path="url(#3d2fab66d9)"><g clip-path="url(#878028b8d0)"><g clip-path="url(#d8c12e3262)"><g clip-path="url(#5cf0d12d83)"><path fill="#ffffff" d="M 75.808594 203.03125 C 75.777344 202.976562 75.75 202.925781 75.71875 202.871094 C 75.789062 202.902344 75.820312 202.957031 75.808594 203.03125 Z M 75.808594 203.03125 " fill-opacity="1" fill-rule="nonzero"/></g></g></g></g><path stroke-linecap="butt" transform="matrix(0.74987, 0.00605191, -0.00605275, 0.749976, 136.490312, 77.868328)" fill="none" stroke-linejoin="miter" d="M -0.00220402 1.998562 L 223.03636 2.000901 " stroke="#000000" stroke-width="4" stroke-opacity="1" stroke-miterlimit="4"/><path stroke-linecap="butt" transform="matrix(0.750617, -0.00364086, 0.00363783, 0.749991, 135.126205, 291.168432)" fill="none" stroke-linejoin="miter" d="M -0.000887235 1.999401 L 224.814281 2.002221 " stroke="#000000" stroke-width="4" stroke-opacity="1" stroke-miterlimit="4"/><g clip-path="url(#1e6c9e7882)"><path fill="#38b6ff" d="M 266.714844 306.992188 L 275.207031 297.5 C 275.390625 297.296875 275.644531 297.183594 275.910156 297.183594 L 281.574219 297.183594 C 281.945312 297.183594 282.28125 297.402344 282.4375 297.746094 C 282.585938 298.089844 282.523438 298.488281 282.273438 298.765625 L 274.351562 307.628906 L 282.273438 316.484375 C 282.523438 316.765625 282.589844 317.164062 282.4375 317.507812 C 282.28125 317.851562 281.945312 318.070312 281.574219 318.070312 L 275.910156 318.070312 C 275.644531 318.070312 275.390625 317.953125 275.207031 317.757812 L 266.714844 308.261719 C 266.394531 307.902344 266.394531 307.351562 266.714844 306.992188 Z M 266.714844 306.992188 " fill-opacity="1" fill-rule="nonzero"/></g><g clip-path="url(#1fb66139d8)"><path fill="#38b6ff" d="M 278.984375 306.992188 L 287.476562 297.5 C 287.660156 297.296875 287.910156 297.183594 288.179688 297.183594 L 293.839844 297.183594 C 294.214844 297.183594 294.550781 297.402344 294.703125 297.746094 C 294.855469 298.089844 294.792969 298.488281 294.542969 298.765625 L 286.617188 307.628906 L 294.542969 316.484375 C 294.792969 316.765625 294.855469 317.164062 294.703125 317.507812 C 294.550781 317.851562 294.214844 318.070312 293.839844 318.070312 L 288.179688 318.070312 C 287.910156 318.070312 287.660156 317.953125 287.476562 317.757812 L 278.984375 308.261719 C 278.660156 307.902344 278.660156 307.351562 278.984375 306.992188 Z M 278.984375 306.992188 " fill-opacity="1" fill-rule="nonzero"/></g><g clip-path="url(#d16d2bc424)"><path fill="#5ce1e6" d="M 229.589844 306.992188 L 238.082031 297.5 C 238.265625 297.296875 238.519531 297.183594 238.785156 297.183594 L 244.449219 297.183594 C 244.820312 297.183594 245.15625 297.402344 245.3125 297.746094 C 245.460938 298.089844 245.398438 298.488281 245.148438 298.765625 L 237.226562 307.628906 L 245.148438 316.484375 C 245.398438 316.765625 245.464844 317.164062 245.3125 317.507812 C 245.15625 317.851562 244.820312 318.070312 244.449219 318.070312 L 238.785156 318.070312 C 238.519531 318.070312 238.265625 317.953125 238.082031 317.757812 L 229.589844 308.261719 C 229.269531 307.902344 229.269531 307.351562 229.589844 306.992188 Z M 229.589844 306.992188 " fill-opacity="1" fill-rule="nonzero"/></g><g clip-path="url(#4e31de240e)"><path fill="#5ce1e6" d="M 241.859375 306.992188 L 250.351562 297.5 C 250.535156 297.296875 250.785156 297.183594 251.054688 297.183594 L 256.714844 297.183594 C 257.089844 297.183594 257.425781 297.402344 257.578125 297.746094 C 257.730469 298.089844 257.667969 298.488281 257.417969 298.765625 L 249.492188 307.628906 L 257.417969 316.484375 C 257.667969 316.765625 257.730469 317.164062 257.578125 317.507812 C 257.425781 317.851562 257.089844 318.070312 256.714844 318.070312 L 251.054688 318.070312 C 250.785156 318.070312 250.535156 317.953125 250.351562 317.757812 L 241.859375 308.261719 C 241.535156 307.902344 241.535156 307.351562 241.859375 306.992188 Z M 241.859375 306.992188 " fill-opacity="1" fill-rule="nonzero"/></g><g clip-path="url(#a274df8f19)"><path fill="#38b6ff" d="M 192.464844 306.992188 L 200.957031 297.5 C 201.140625 297.296875 201.394531 297.183594 201.660156 297.183594 L 207.324219 297.183594 C 207.695312 297.183594 208.03125 297.402344 208.1875 297.746094 C 208.335938 298.089844 208.273438 298.488281 208.023438 298.765625 L 200.101562 307.628906 L 208.023438 316.484375 C 208.273438 316.765625 208.339844 317.164062 208.1875 317.507812 C 208.03125 317.851562 207.695312 318.070312 207.324219 318.070312 L 201.660156 318.070312 C 201.394531 318.070312 201.140625 317.953125 200.957031 317.757812 L 192.464844 308.261719 C 192.144531 307.902344 192.144531 307.351562 192.464844 306.992188 Z M 192.464844 306.992188 " fill-opacity="1" fill-rule="nonzero"/></g><g clip-path="url(#9a73ce2f75)"><path fill="#38b6ff" d="M 204.734375 306.992188 L 213.226562 297.5 C 213.410156 297.296875 213.660156 297.183594 213.929688 297.183594 L 219.589844 297.183594 C 219.964844 297.183594 220.300781 297.402344 220.453125 297.746094 C 220.605469 298.089844 220.542969 298.488281 220.292969 298.765625 L 212.367188 307.628906 L 220.292969 316.484375 C 220.542969 316.765625 220.605469 317.164062 220.453125 317.507812 C 220.300781 317.851562 219.964844 318.070312 219.589844 318.070312 L 213.929688 318.070312 C 213.660156 318.070312 213.410156 317.953125 213.226562 317.757812 L 204.734375 308.261719 C 204.410156 307.902344 204.410156 307.351562 204.734375 306.992188 Z M 204.734375 306.992188 " fill-opacity="1" fill-rule="nonzero"/></g><g clip-path="url(#8a07bb45e8)"><path fill="#38b6ff" d="M 155.339844 306.992188 L 163.832031 297.5 C 164.015625 297.296875 164.269531 297.183594 164.535156 297.183594 L 170.199219 297.183594 C 170.570312 297.183594 170.90625 297.402344 171.0625 297.746094 C 171.210938 298.089844 171.148438 298.488281 170.898438 298.765625 L 162.976562 307.628906 L 170.898438 316.484375 C 171.148438 316.765625 171.214844 317.164062 171.0625 317.507812 C 170.90625 317.851562 170.570312 318.070312 170.199219 318.070312 L 164.535156 318.070312 C 164.269531 318.070312 164.015625 317.953125 163.832031 317.757812 L 155.339844 308.261719 C 155.019531 307.902344 155.019531 307.351562 155.339844 306.992188 Z M 155.339844 306.992188 " fill-opacity="1" fill-rule="nonzero"/></g><g clip-path="url(#872c9ccf6c)"><path fill="#38b6ff" d="M 167.609375 306.992188 L 176.101562 297.5 C 176.285156 297.296875 176.535156 297.183594 176.804688 297.183594 L 182.464844 297.183594 C 182.839844 297.183594 183.175781 297.402344 183.328125 297.746094 C 183.480469 298.089844 183.417969 298.488281 183.167969 298.765625 L 175.242188 307.628906 L 183.167969 316.484375 C 183.417969 316.765625 183.480469 317.164062 183.328125 317.507812 C 183.175781 317.851562 182.839844 318.070312 182.464844 318.070312 L 176.804688 318.070312 C 176.535156 318.070312 176.285156 317.953125 176.101562 317.757812 L 167.609375 308.261719 C 167.285156 307.902344 167.285156 307.351562 167.609375 306.992188 Z M 167.609375 306.992188 " fill-opacity="1" fill-rule="nonzero"/></g><g clip-path="url(#46789454e6)"><g clip-path="url(#3ef40245bb)"><g clip-path="url(#6bd01d74bc)"><path fill="#38b6ff" d="M 118.210938 307.242188 L 126.535156 297.597656 C 126.710938 297.394531 126.960938 297.273438 127.230469 297.269531 L 132.890625 297.171875 C 133.261719 297.164062 133.605469 297.378906 133.765625 297.714844 C 133.921875 298.058594 133.867188 298.460938 133.621094 298.742188 L 125.855469 307.738281 L 133.933594 316.457031 C 134.1875 316.730469 134.261719 317.128906 134.113281 317.476562 C 133.964844 317.820312 133.632812 318.046875 133.261719 318.054688 L 127.597656 318.152344 C 127.332031 318.160156 127.078125 318.046875 126.890625 317.851562 L 118.230469 308.511719 C 117.902344 308.15625 117.894531 307.605469 118.210938 307.242188 Z M 118.210938 307.242188 " fill-opacity="1" fill-rule="nonzero"/></g></g></g><g clip-path="url(#f136018378)"><g clip-path="url(#8a707bec85)"><g clip-path="url(#a5c4100cf6)"><path fill="#38b6ff" d="M 130.476562 307.023438 L 138.800781 297.382812 C 138.976562 297.175781 139.230469 297.058594 139.496094 297.054688 L 145.15625 296.953125 C 145.53125 296.945312 145.871094 297.160156 146.03125 297.5 C 146.1875 297.839844 146.132812 298.242188 145.886719 298.523438 L 138.121094 307.523438 L 146.203125 316.238281 C 146.457031 316.515625 146.527344 316.914062 146.378906 317.257812 C 146.234375 317.605469 145.898438 317.832031 145.527344 317.835938 L 139.867188 317.9375 C 139.597656 317.941406 139.34375 317.832031 139.160156 317.636719 L 130.5 308.292969 C 130.167969 307.9375 130.160156 307.386719 130.476562 307.023438 Z M 130.476562 307.023438 " fill-opacity="1" fill-rule="nonzero"/></g></g></g><g clip-path="url(#2e3350f354)"><g clip-path="url(#1e24435953)"><g clip-path="url(#b1f397c645)"><path fill="#5ce1e6" d="M 75.855469 286.085938 L 88.128906 282.679688 C 88.390625 282.609375 88.664062 282.648438 88.890625 282.796875 L 93.65625 285.851562 C 93.96875 286.050781 94.132812 286.421875 94.078125 286.789062 C 94.019531 287.160156 93.75 287.464844 93.390625 287.5625 L 81.9375 290.742188 L 83.828125 302.476562 C 83.886719 302.847656 83.722656 303.21875 83.410156 303.425781 C 83.097656 303.632812 82.691406 303.632812 82.378906 303.433594 L 77.613281 300.375 C 77.386719 300.230469 77.238281 299.996094 77.191406 299.734375 L 75.167969 287.15625 C 75.089844 286.679688 75.386719 286.214844 75.855469 286.085938 Z M 75.855469 286.085938 " fill-opacity="1" fill-rule="nonzero"/></g></g></g><g clip-path="url(#0c2abe3f39)"><g clip-path="url(#d96729c57d)"><g clip-path="url(#343020275e)"><path fill="#5ce1e6" d="M 86.179688 292.710938 L 98.457031 289.304688 C 98.714844 289.234375 98.992188 289.273438 99.214844 289.417969 L 103.984375 292.476562 C 104.296875 292.675781 104.460938 293.042969 104.40625 293.414062 C 104.347656 293.785156 104.078125 294.089844 103.71875 294.1875 L 92.265625 297.367188 L 94.152344 309.101562 C 94.210938 309.46875 94.050781 309.84375 93.738281 310.046875 C 93.421875 310.253906 93.019531 310.257812 92.707031 310.058594 L 87.941406 307 C 87.714844 306.855469 87.5625 306.621094 87.519531 306.355469 L 85.496094 293.78125 C 85.417969 293.300781 85.714844 292.839844 86.179688 292.710938 Z M 86.179688 292.710938 " fill-opacity="1" fill-rule="nonzero"/></g></g></g><g clip-path="url(#79a45bdd08)"><g clip-path="url(#d8d4ea3c33)"><g clip-path="url(#c7f7cd1a3e)"><path fill="#38b6ff" d="M 41.28125 262.910156 L 53.984375 261.964844 C 54.253906 261.945312 54.515625 262.039062 54.707031 262.222656 L 58.785156 266.152344 C 59.054688 266.410156 59.144531 266.800781 59.015625 267.15625 C 58.886719 267.507812 58.566406 267.753906 58.191406 267.777344 L 46.339844 268.664062 L 45.902344 280.539062 C 45.886719 280.914062 45.65625 281.246094 45.308594 281.386719 C 44.960938 281.53125 44.566406 281.453125 44.296875 281.195312 L 40.21875 277.269531 C 40.027344 277.082031 39.921875 276.824219 39.929688 276.554688 L 40.398438 263.824219 C 40.417969 263.339844 40.796875 262.945312 41.28125 262.910156 Z M 41.28125 262.910156 " fill-opacity="1" fill-rule="nonzero"/></g></g></g><g clip-path="url(#549f4de6d8)"><g clip-path="url(#0d2e3b447c)"><g clip-path="url(#2e183a10bd)"><path fill="#38b6ff" d="M 50.117188 271.421875 L 62.820312 270.472656 C 63.089844 270.453125 63.351562 270.546875 63.542969 270.734375 L 67.621094 274.660156 C 67.890625 274.917969 67.980469 275.3125 67.855469 275.664062 C 67.722656 276.015625 67.402344 276.261719 67.03125 276.289062 L 55.175781 277.171875 L 54.738281 289.050781 C 54.726562 289.425781 54.492188 289.757812 54.144531 289.898438 C 53.796875 290.039062 53.402344 289.964844 53.132812 289.707031 L 49.054688 285.777344 C 48.863281 285.59375 48.761719 285.332031 48.765625 285.066406 L 49.234375 272.335938 C 49.253906 271.851562 49.636719 271.453125 50.117188 271.421875 Z M 50.117188 271.421875 " fill-opacity="1" fill-rule="nonzero"/></g></g></g><g clip-path="url(#6bf50d9a60)"><g clip-path="url(#2c218c92a5)"><g clip-path="url(#41a11ee84c)"><path fill="#38b6ff" d="M 22.734375 226.0625 L 35.210938 228.632812 C 35.476562 228.6875 35.699219 228.851562 35.835938 229.082031 L 38.679688 233.976562 C 38.867188 234.296875 38.847656 234.703125 38.628906 235.003906 C 38.40625 235.308594 38.03125 235.457031 37.664062 235.378906 L 26.023438 232.980469 L 22.347656 244.285156 C 22.230469 244.640625 21.917969 244.898438 21.542969 244.9375 C 21.171875 244.976562 20.808594 244.796875 20.625 244.472656 L 17.777344 239.578125 C 17.644531 239.347656 17.617188 239.070312 17.695312 238.8125 L 21.636719 226.699219 C 21.785156 226.238281 22.261719 225.960938 22.734375 226.0625 Z M 22.734375 226.0625 " fill-opacity="1" fill-rule="nonzero"/></g></g></g><g clip-path="url(#29c29e912c)"><g clip-path="url(#b4141221f9)"><g clip-path="url(#cf0fe3c3f4)"><path fill="#38b6ff" d="M 28.898438 236.667969 L 41.375 239.238281 C 41.640625 239.296875 41.867188 239.457031 42 239.6875 L 44.847656 244.582031 C 45.035156 244.90625 45.011719 245.308594 44.792969 245.613281 C 44.574219 245.914062 44.195312 246.0625 43.832031 245.984375 L 32.1875 243.585938 L 28.511719 254.890625 C 28.394531 255.246094 28.082031 255.503906 27.710938 255.542969 C 27.335938 255.582031 26.976562 255.402344 26.789062 255.082031 L 23.941406 250.183594 C 23.808594 249.953125 23.78125 249.675781 23.859375 249.421875 L 27.800781 237.304688 C 27.949219 236.847656 28.425781 236.570312 28.898438 236.667969 Z M 28.898438 236.667969 " fill-opacity="1" fill-rule="nonzero"/></g></g></g><g clip-path="url(#5234b35c83)"><path fill="#38b6ff" d="M 20.015625 172.027344 L 29.507812 180.519531 C 29.710938 180.699219 29.824219 180.953125 29.824219 181.222656 L 29.824219 186.882812 C 29.824219 187.257812 29.605469 187.59375 29.261719 187.746094 C 28.917969 187.898438 28.515625 187.835938 28.242188 187.585938 L 19.378906 179.660156 L 10.523438 187.585938 C 10.242188 187.835938 9.84375 187.898438 9.5 187.746094 C 9.15625 187.59375 8.9375 187.257812 8.9375 186.882812 L 8.9375 181.222656 C 8.9375 180.953125 9.050781 180.699219 9.25 180.519531 L 18.746094 172.027344 C 19.105469 171.703125 19.65625 171.703125 20.015625 172.027344 Z M 20.015625 172.027344 " fill-opacity="1" fill-rule="nonzero"/></g><g clip-path="url(#989a7b60d8)"><path fill="#38b6ff" d="M 20.015625 184.292969 L 29.507812 192.789062 C 29.710938 192.96875 29.824219 193.222656 29.824219 193.488281 L 29.824219 199.152344 C 29.824219 199.523438 29.605469 199.863281 29.261719 200.015625 C 28.917969 200.164062 28.515625 200.105469 28.242188 199.855469 L 19.378906 191.929688 L 10.523438 199.855469 C 10.242188 200.105469 9.84375 200.167969 9.5 200.015625 C 9.15625 199.863281 8.9375 199.523438 8.9375 199.152344 L 8.9375 193.488281 C 8.9375 193.222656 9.050781 192.96875 9.25 192.789062 L 18.746094 184.292969 C 19.105469 183.972656 19.65625 183.972656 20.015625 184.292969 Z M 20.015625 184.292969 " fill-opacity="1" fill-rule="nonzero"/></g><g clip-path="url(#68209a30de)"><g clip-path="url(#e72395af02)"><g clip-path="url(#ddc7f0fc8e)"><path fill="#5ce1e6" d="M 38.21875 122.101562 L 41.183594 134.492188 C 41.246094 134.753906 41.195312 135.027344 41.042969 135.246094 L 37.816406 139.902344 C 37.605469 140.207031 37.230469 140.359375 36.863281 140.289062 C 36.496094 140.21875 36.203125 139.941406 36.117188 139.578125 L 33.347656 128.015625 L 21.554688 129.484375 C 21.183594 129.53125 20.816406 129.355469 20.621094 129.035156 C 20.425781 128.714844 20.4375 128.308594 20.648438 128.003906 L 23.875 123.351562 C 24.027344 123.128906 24.269531 122.988281 24.53125 122.953125 L 37.175781 121.378906 C 37.65625 121.320312 38.105469 121.632812 38.21875 122.101562 Z M 38.21875 122.101562 " fill-opacity="1" fill-rule="nonzero"/></g></g></g><g clip-path="url(#90465fc56f)"><g clip-path="url(#2a4a88be67)"><g clip-path="url(#cb4b356a81)"><path fill="#5ce1e6" d="M 31.230469 132.1875 L 34.195312 144.574219 C 34.257812 144.839844 34.207031 145.109375 34.054688 145.332031 L 30.828125 149.984375 C 30.617188 150.289062 30.246094 150.441406 29.875 150.375 C 29.507812 150.300781 29.214844 150.023438 29.128906 149.660156 L 26.359375 138.101562 L 14.566406 139.566406 C 14.195312 139.613281 13.828125 139.4375 13.632812 139.117188 C 13.4375 138.796875 13.449219 138.394531 13.664062 138.085938 L 16.886719 133.433594 C 17.039062 133.214844 17.28125 133.070312 17.546875 133.035156 L 30.1875 131.460938 C 30.667969 131.402344 31.121094 131.714844 31.230469 132.1875 Z M 31.230469 132.1875 " fill-opacity="1" fill-rule="nonzero"/></g></g></g><g clip-path="url(#36e349ba0d)"><g clip-path="url(#9e23db3827)"><g clip-path="url(#3c895bda54)"><path fill="#38b6ff" d="M 65.816406 90.09375 L 65.914062 102.832031 C 65.917969 103.101562 65.804688 103.355469 65.609375 103.535156 L 61.417969 107.34375 C 61.140625 107.59375 60.742188 107.660156 60.402344 107.507812 C 60.058594 107.355469 59.835938 107.015625 59.832031 106.644531 L 59.742188 94.757812 L 47.917969 93.53125 C 47.546875 93.492188 47.230469 93.238281 47.113281 92.882812 C 46.996094 92.523438 47.097656 92.136719 47.371094 91.886719 L 51.5625 88.078125 C 51.761719 87.898438 52.027344 87.8125 52.292969 87.835938 L 64.964844 89.152344 C 65.445312 89.203125 65.816406 89.609375 65.816406 90.09375 Z M 65.816406 90.09375 " fill-opacity="1" fill-rule="nonzero"/></g></g></g><g clip-path="url(#b6aee0c444)"><g clip-path="url(#9ed5836ad8)"><g clip-path="url(#5744ad366b)"><path fill="#38b6ff" d="M 56.738281 98.34375 L 56.835938 111.082031 C 56.835938 111.351562 56.726562 111.605469 56.527344 111.785156 L 52.335938 115.59375 C 52.0625 115.84375 51.664062 115.90625 51.320312 115.757812 C 50.976562 115.605469 50.753906 115.265625 50.753906 114.894531 L 50.660156 103.007812 L 38.839844 101.78125 C 38.464844 101.742188 38.148438 101.488281 38.03125 101.132812 C 37.914062 100.773438 38.015625 100.382812 38.292969 100.132812 L 42.480469 96.328125 C 42.679688 96.148438 42.945312 96.0625 43.210938 96.085938 L 55.882812 97.402344 C 56.363281 97.453125 56.734375 97.859375 56.738281 98.34375 Z M 56.738281 98.34375 " fill-opacity="1" fill-rule="nonzero"/></g></g></g><g clip-path="url(#6547599c99)"><g clip-path="url(#d14c1947bd)"><g clip-path="url(#7f5e9b8fcc)"><path fill="#38b6ff" d="M 100.488281 72.246094 L 97.054688 84.511719 C 96.980469 84.773438 96.800781 84.988281 96.5625 85.105469 L 91.480469 87.601562 C 91.148438 87.765625 90.746094 87.71875 90.457031 87.480469 C 90.171875 87.238281 90.050781 86.851562 90.152344 86.492188 L 93.355469 75.042969 L 82.335938 70.589844 C 81.988281 70.449219 81.753906 70.121094 81.742188 69.746094 C 81.726562 69.367188 81.933594 69.023438 82.265625 68.859375 L 87.347656 66.359375 C 87.589844 66.242188 87.867188 66.234375 88.117188 66.332031 L 99.925781 71.105469 C 100.375 71.285156 100.617188 71.78125 100.488281 72.246094 Z M 100.488281 72.246094 " fill-opacity="1" fill-rule="nonzero"/></g></g></g><g clip-path="url(#d75dd151f0)"><g clip-path="url(#3ce95c4b80)"><g clip-path="url(#a145da4f00)"><path fill="#38b6ff" d="M 89.476562 77.65625 L 86.042969 89.925781 C 85.96875 90.183594 85.792969 90.398438 85.550781 90.515625 L 80.472656 93.015625 C 80.136719 93.179688 79.738281 93.128906 79.449219 92.890625 C 79.160156 92.648438 79.039062 92.261719 79.140625 91.902344 L 82.347656 80.457031 L 71.324219 76.003906 C 70.980469 75.863281 70.746094 75.53125 70.730469 75.15625 C 70.71875 74.78125 70.921875 74.433594 71.257812 74.269531 L 76.339844 71.773438 C 76.578125 71.65625 76.855469 71.648438 77.105469 71.742188 L 88.917969 76.515625 C 89.367188 76.699219 89.609375 77.191406 89.476562 77.65625 Z M 89.476562 77.65625 " fill-opacity="1" fill-rule="nonzero"/></g></g></g><g clip-path="url(#2e1bddb8be)"><path fill="#38b6ff" d="M 146.195312 68.148438 L 137.703125 77.640625 C 137.519531 77.84375 137.265625 77.957031 137 77.957031 L 131.335938 77.957031 C 130.964844 77.957031 130.628906 77.738281 130.472656 77.394531 C 130.324219 77.050781 130.386719 76.652344 130.636719 76.375 L 138.558594 67.515625 L 130.636719 58.65625 C 130.386719 58.375 130.320312 57.976562 130.472656 57.632812 C 130.628906 57.289062 130.964844 57.070312 131.335938 57.070312 L 137 57.070312 C 137.265625 57.070312 137.519531 57.1875 137.703125 57.382812 L 146.195312 66.878906 C 146.515625 67.238281 146.515625 67.789062 146.195312 68.148438 Z M 146.195312 68.148438 " fill-opacity="1" fill-rule="nonzero"/></g><g clip-path="url(#c35b80bcee)"><path fill="#38b6ff" d="M 133.925781 68.148438 L 125.433594 77.640625 C 125.25 77.84375 125 77.957031 124.730469 77.957031 L 119.070312 77.957031 C 118.695312 77.957031 118.359375 77.738281 118.207031 77.394531 C 118.054688 77.050781 118.117188 76.652344 118.367188 76.375 L 126.292969 67.515625 L 118.367188 58.65625 C 118.117188 58.375 118.054688 57.976562 118.207031 57.632812 C 118.359375 57.289062 118.695312 57.070312 119.070312 57.070312 L 124.730469 57.070312 C 125 57.070312 125.25 57.1875 125.433594 57.382812 L 133.925781 66.878906 C 134.25 67.238281 134.25 67.789062 133.925781 68.148438 Z M 133.925781 68.148438 " fill-opacity="1" fill-rule="nonzero"/></g><g clip-path="url(#065fd031b5)"><g clip-path="url(#be276f4b84)"><g clip-path="url(#c9ef230867)"><path fill="#5ce1e6" d="M 182.71875 68.148438 L 173.941406 77.382812 C 173.753906 77.578125 173.5 77.6875 173.230469 77.675781 L 167.570312 77.507812 C 167.199219 77.496094 166.871094 77.265625 166.726562 76.917969 C 166.585938 76.570312 166.660156 76.171875 166.917969 75.902344 L 175.105469 67.285156 L 167.453125 58.191406 C 167.210938 57.90625 167.160156 57.503906 167.320312 57.167969 C 167.484375 56.828125 167.828125 56.617188 168.199219 56.628906 L 173.859375 56.800781 C 174.128906 56.808594 174.378906 56.929688 174.554688 57.132812 L 182.757812 66.878906 C 183.066406 67.25 183.050781 67.800781 182.71875 68.148438 Z M 182.71875 68.148438 " fill-opacity="1" fill-rule="nonzero"/></g></g></g><g clip-path="url(#7e60ca0bc9)"><g clip-path="url(#56c680d1a6)"><g clip-path="url(#2809471b20)"><path fill="#5ce1e6" d="M 170.457031 67.78125 L 161.679688 77.015625 C 161.492188 77.210938 161.238281 77.316406 160.96875 77.308594 L 155.308594 77.136719 C 154.9375 77.125 154.605469 76.894531 154.464844 76.550781 C 154.324219 76.203125 154.398438 75.804688 154.65625 75.535156 L 162.84375 66.917969 L 155.1875 57.824219 C 154.949219 57.539062 154.894531 57.136719 155.058594 56.796875 C 155.222656 56.460938 155.566406 56.25 155.9375 56.261719 L 161.597656 56.429688 C 161.867188 56.4375 162.113281 56.5625 162.289062 56.765625 L 170.492188 66.511719 C 170.804688 66.882812 170.789062 67.429688 170.457031 67.78125 Z M 170.457031 67.78125 " fill-opacity="1" fill-rule="nonzero"/></g></g></g><g clip-path="url(#bcd5c39600)"><g clip-path="url(#13ea5b3432)"><g clip-path="url(#cc43d0261a)"><path fill="#38b6ff" d="M 294.371094 68.148438 L 285.59375 77.382812 C 285.40625 77.578125 285.152344 77.6875 284.882812 77.675781 L 279.222656 77.507812 C 278.851562 77.496094 278.523438 77.265625 278.378906 76.917969 C 278.238281 76.570312 278.3125 76.171875 278.570312 75.902344 L 286.757812 67.285156 L 279.105469 58.191406 C 278.863281 57.90625 278.8125 57.503906 278.972656 57.167969 C 279.136719 56.828125 279.480469 56.617188 279.851562 56.628906 L 285.511719 56.800781 C 285.78125 56.808594 286.03125 56.929688 286.207031 57.132812 L 294.410156 66.878906 C 294.71875 67.25 294.703125 67.800781 294.371094 68.148438 Z M 294.371094 68.148438 " fill-opacity="1" fill-rule="nonzero"/></g></g></g><g clip-path="url(#31c8e84a85)"><g clip-path="url(#f831e88078)"><g clip-path="url(#21d5ae99f2)"><path fill="#38b6ff" d="M 282.109375 67.78125 L 273.332031 77.015625 C 273.144531 77.210938 272.890625 77.316406 272.621094 77.308594 L 266.960938 77.136719 C 266.589844 77.125 266.257812 76.894531 266.117188 76.550781 C 265.976562 76.203125 266.050781 75.804688 266.308594 75.535156 L 274.496094 66.917969 L 266.839844 57.824219 C 266.601562 57.539062 266.546875 57.136719 266.710938 56.796875 C 266.875 56.460938 267.21875 56.25 267.589844 56.261719 L 273.25 56.429688 C 273.519531 56.4375 273.765625 56.5625 273.941406 56.765625 L 282.144531 66.511719 C 282.457031 66.882812 282.441406 67.429688 282.109375 67.78125 Z M 282.109375 67.78125 " fill-opacity="1" fill-rule="nonzero"/></g></g></g><g clip-path="url(#cfbc75328a)"><g clip-path="url(#63a2c0ab68)"><g clip-path="url(#3259d25221)"><path fill="#38b6ff" d="M 257.246094 68.148438 L 248.46875 77.382812 C 248.28125 77.578125 248.027344 77.6875 247.757812 77.675781 L 242.097656 77.507812 C 241.726562 77.496094 241.398438 77.265625 241.253906 76.917969 C 241.113281 76.570312 241.1875 76.171875 241.445312 75.902344 L 249.632812 67.285156 L 241.980469 58.191406 C 241.738281 57.90625 241.6875 57.503906 241.847656 57.167969 C 242.011719 56.828125 242.355469 56.617188 242.726562 56.628906 L 248.386719 56.800781 C 248.65625 56.808594 248.90625 56.929688 249.082031 57.132812 L 257.285156 66.878906 C 257.59375 67.25 257.578125 67.800781 257.246094 68.148438 Z M 257.246094 68.148438 " fill-opacity="1" fill-rule="nonzero"/></g></g></g><g clip-path="url(#0a22b6a8bb)"><g clip-path="url(#d3376df9c4)"><g clip-path="url(#8eb26ccebe)"><path fill="#38b6ff" d="M 244.984375 67.78125 L 236.207031 77.015625 C 236.019531 77.210938 235.765625 77.316406 235.496094 77.308594 L 229.835938 77.136719 C 229.464844 77.125 229.132812 76.894531 228.992188 76.550781 C 228.851562 76.203125 228.925781 75.804688 229.183594 75.535156 L 237.371094 66.917969 L 229.714844 57.824219 C 229.476562 57.539062 229.421875 57.136719 229.585938 56.796875 C 229.75 56.460938 230.09375 56.25 230.464844 56.261719 L 236.125 56.429688 C 236.394531 56.4375 236.640625 56.5625 236.816406 56.765625 L 245.019531 66.511719 C 245.332031 66.882812 245.316406 67.429688 244.984375 67.78125 Z M 244.984375 67.78125 " fill-opacity="1" fill-rule="nonzero"/></g></g></g><g clip-path="url(#7e92d20944)"><g clip-path="url(#eb1c8ec3e5)"><g clip-path="url(#91d2bb02ef)"><path fill="#38b6ff" d="M 220.730469 68.148438 L 211.953125 77.382812 C 211.765625 77.578125 211.511719 77.6875 211.242188 77.675781 L 205.582031 77.507812 C 205.210938 77.496094 204.878906 77.265625 204.738281 76.917969 C 204.597656 76.570312 204.671875 76.171875 204.929688 75.902344 L 213.117188 67.285156 L 205.460938 58.191406 C 205.222656 57.90625 205.167969 57.503906 205.332031 57.167969 C 205.496094 56.828125 205.839844 56.617188 206.210938 56.628906 L 211.871094 56.800781 C 212.140625 56.808594 212.386719 56.929688 212.5625 57.132812 L 220.765625 66.878906 C 221.078125 67.25 221.0625 67.800781 220.730469 68.148438 Z M 220.730469 68.148438 " fill-opacity="1" fill-rule="nonzero"/></g></g></g><g clip-path="url(#9fa0129492)"><g clip-path="url(#dd612792fe)"><g clip-path="url(#7e4141dfc1)"><path fill="#38b6ff" d="M 208.464844 67.78125 L 199.691406 77.015625 C 199.503906 77.210938 199.246094 77.316406 198.980469 77.308594 L 193.320312 77.136719 C 192.949219 77.125 192.617188 76.894531 192.476562 76.550781 C 192.335938 76.203125 192.410156 75.804688 192.664062 75.535156 L 200.855469 66.917969 L 193.199219 57.824219 C 192.957031 57.539062 192.90625 57.136719 193.070312 56.796875 C 193.234375 56.460938 193.578125 56.25 193.949219 56.261719 L 199.609375 56.429688 C 199.875 56.4375 200.125 56.5625 200.300781 56.765625 L 208.503906 66.511719 C 208.816406 66.882812 208.800781 67.429688 208.464844 67.78125 Z M 208.464844 67.78125 " fill-opacity="1" fill-rule="nonzero"/></g></g></g></svg>