<svg xmlns="http://www.w3.org/2000/svg" xmlns:xlink="http://www.w3.org/1999/xlink" width="450" zoomAndPan="magnify" viewBox="0 0 337.5 374.999991" height="500" preserveAspectRatio="xMidYMid meet" version="1.0"><defs><clipPath id="1822db4578"><path d="M 0 52.777344 L 303.75 52.777344 L 303.75 323 L 0 323 Z M 0 52.777344 " clip-rule="nonzero"/></clipPath><clipPath id="3636d0e3a1"><path d="M 7.917969 142.824219 C 3.136719 156.667969 0 172.40625 0 187.851562 C 0 203.296875 2.6875 218.15625 7.46875 231.855469 C 7.621094 232.144531 7.621094 232.4375 7.769531 232.730469 C 26.890625 284.164062 77.390625 322.050781 135.65625 322.777344 L 303.75 322.777344 L 303.75 52.777344 L 135.78125 52.777344 C 77.09375 53.507812 26.59375 90.808594 7.917969 142.824219 " clip-rule="nonzero"/></clipPath><clipPath id="f449104942"><path d="M 0 52.777344 L 303.75 52.777344 L 303.75 322.777344 L 0 322.777344 Z M 0 52.777344 " clip-rule="nonzero"/></clipPath><clipPath id="c22cda44dd"><path d="M 7.917969 142.824219 C 3.136719 156.667969 0 172.40625 0 187.851562 C 0 203.296875 2.6875 218.15625 7.46875 231.855469 C 7.621094 232.144531 7.621094 232.4375 7.769531 232.730469 C 26.890625 284.164062 77.390625 322.050781 135.65625 322.777344 L 303.75 322.777344 L 303.75 52.777344 L 135.78125 52.777344 C 77.09375 53.507812 26.59375 90.808594 7.917969 142.824219 " clip-rule="nonzero"/></clipPath><clipPath id="0b4960172f"><path d="M 33 77 L 250 77 L 250 295 L 33 295 Z M 33 77 " clip-rule="nonzero"/></clipPath><clipPath id="19ebf7486d"><path d="M 274.296875 110.128906 L 217.5625 318.84375 L 8.847656 262.109375 L 65.582031 53.394531 Z M 274.296875 110.128906 " clip-rule="nonzero"/></clipPath><clipPath id="e3a4eb5879"><path d="M 245.96875 214.347656 C 261.613281 156.789062 227.636719 97.445312 170.078125 81.800781 C 112.519531 66.152344 53.175781 100.132812 37.53125 157.6875 C 21.886719 215.246094 55.863281 274.589844 113.421875 290.238281 C 170.980469 305.882812 230.324219 271.90625 245.96875 214.347656 " clip-rule="nonzero"/></clipPath><clipPath id="87a0ae159f"><path d="M 33 77 L 250 77 L 250 295 L 33 295 Z M 33 77 " clip-rule="nonzero"/></clipPath><clipPath id="7e95c0409f"><path d="M 274.296875 110.128906 L 217.640625 318.566406 L 9.203125 261.90625 L 65.859375 53.472656 Z M 274.296875 110.128906 " clip-rule="nonzero"/></clipPath><clipPath id="25e5a52fe0"><path d="M 274.296875 110.128906 L 216.839844 321.511719 L 5.453125 264.054688 L 62.914062 52.667969 Z M 274.296875 110.128906 " clip-rule="nonzero"/></clipPath><clipPath id="bd4e8d0700"><path d="M 245.96875 214.347656 C 261.613281 156.789062 227.636719 97.445312 170.078125 81.800781 C 112.519531 66.152344 53.175781 100.132812 37.53125 157.6875 C 21.886719 215.246094 55.863281 274.589844 113.421875 290.238281 C 170.980469 305.882812 230.324219 271.90625 245.96875 214.347656 " clip-rule="nonzero"/></clipPath><clipPath id="99fd28a092"><path d="M 173 185 L 210 185 L 210 211 L 173 211 Z M 173 185 " clip-rule="nonzero"/></clipPath><clipPath id="b1119545a2"><path d="M 209.140625 193.320312 L 204.445312 210.863281 L 173.605469 202.609375 L 178.300781 185.0625 Z M 209.140625 193.320312 " clip-rule="nonzero"/></clipPath><clipPath id="d96230c02a"><path d="M 209.140625 193.320312 L 204.546875 210.480469 L 173.898438 202.277344 L 178.492188 185.113281 Z M 209.140625 193.320312 " clip-rule="nonzero"/></clipPath><clipPath id="d49b033282"><path d="M 92 201 L 128 201 L 128 237 L 92 237 Z M 92 201 " clip-rule="nonzero"/></clipPath><clipPath id="728ae16414"><path d="M 114.886719 201.867188 L 127.59375 214.847656 L 104.777344 237.179688 L 92.074219 224.199219 Z M 114.886719 201.867188 " clip-rule="nonzero"/></clipPath><clipPath id="ce2d318958"><path d="M 114.886719 201.867188 L 127.316406 214.5625 L 104.640625 236.757812 L 92.214844 224.058594 Z M 114.886719 201.867188 " clip-rule="nonzero"/></clipPath><clipPath id="29ca06c53e"><path d="M 109 137 L 192 137 L 192 220 L 109 220 Z M 109 137 " clip-rule="nonzero"/></clipPath><clipPath id="933275fd0c"><path d="M 91.113281 148.453125 L 173.503906 126.757812 L 192.34375 198.304688 L 109.953125 220 Z M 91.113281 148.453125 " clip-rule="nonzero"/></clipPath><clipPath id="8128adae12"><path d="M 131.992188 137.6875 L 191.527344 197.78125 L 109.769531 219.308594 L 131.992188 137.6875 " clip-rule="nonzero"/></clipPath><clipPath id="a381518667"><path d="M 121 127 L 147 127 L 147 163 L 121 163 Z M 121 127 " clip-rule="nonzero"/></clipPath><clipPath id="711645fd33"><path d="M 121.386719 132.316406 L 138.953125 127.691406 L 147.082031 158.5625 L 129.515625 163.191406 Z M 121.386719 132.316406 " clip-rule="nonzero"/></clipPath><clipPath id="2e478eb9d4"><path d="M 121.386719 132.316406 L 138.566406 127.792969 L 146.648438 158.476562 L 129.464844 163 Z M 121.386719 132.316406 " clip-rule="nonzero"/></clipPath><clipPath id="728a2e9737"><path d="M 96 82 L 153 82 L 153 138 L 96 138 Z M 96 82 " clip-rule="nonzero"/></clipPath><clipPath id="f8eb85e01e"><path d="M 104.15625 143.6875 L 91.234375 89.585938 L 145.335938 76.664062 L 158.257812 130.765625 Z M 104.15625 143.6875 " clip-rule="nonzero"/></clipPath><clipPath id="4ee2b64c11"><path d="M 97.695312 116.636719 C 101.261719 131.578125 116.265625 140.792969 131.207031 137.226562 C 146.144531 133.660156 155.363281 118.65625 151.796875 103.714844 C 148.226562 88.777344 133.222656 79.558594 118.285156 83.125 C 103.34375 86.695312 94.125 101.699219 97.695312 116.636719 " clip-rule="nonzero"/></clipPath><clipPath id="3eab343ed2"><path d="M 96 82 L 153 82 L 153 139 L 96 139 Z M 96 82 " clip-rule="nonzero"/></clipPath><clipPath id="e3ed5e0b71"><path d="M 104.15625 143.6875 L 91.261719 89.707031 L 145.242188 76.8125 L 158.136719 130.792969 Z M 104.15625 143.6875 " clip-rule="nonzero"/></clipPath><clipPath id="03c3b74aeb"><path d="M 104.15625 143.6875 L 91.261719 89.707031 L 145.242188 76.8125 L 158.136719 130.792969 Z M 104.15625 143.6875 " clip-rule="nonzero"/></clipPath><clipPath id="d393ee10de"><path d="M 97.710938 116.695312 C 101.269531 131.601562 116.238281 140.800781 131.148438 137.242188 C 146.054688 133.679688 155.25 118.710938 151.691406 103.804688 C 148.128906 88.898438 133.160156 79.699219 118.253906 83.257812 C 103.347656 86.820312 94.148438 101.789062 97.710938 116.695312 " clip-rule="nonzero"/></clipPath><clipPath id="b68018ba91"><path d="M 60 212 L 117 212 L 117 269 L 60 269 Z M 60 212 " clip-rule="nonzero"/></clipPath><clipPath id="da0dc2708b"><path d="M 49.136719 240.226562 L 88.652344 201.078125 L 127.796875 240.59375 L 88.28125 279.742188 Z M 49.136719 240.226562 " clip-rule="nonzero"/></clipPath><clipPath id="20d8988789"><path d="M 68.894531 220.652344 C 57.984375 231.460938 57.898438 249.070312 68.710938 259.984375 C 79.519531 270.894531 97.128906 270.976562 108.039062 260.167969 C 118.953125 249.359375 119.035156 231.75 108.226562 220.835938 C 97.414062 209.925781 79.804688 209.84375 68.894531 220.652344 " clip-rule="nonzero"/></clipPath><clipPath id="a0125b5b58"><path d="M 60 212 L 117 212 L 117 269 L 60 269 Z M 60 212 " clip-rule="nonzero"/></clipPath><clipPath id="01112b47cd"><path d="M 49.136719 240.226562 L 88.566406 201.164062 L 127.625 240.59375 L 88.195312 279.652344 Z M 49.136719 240.226562 " clip-rule="nonzero"/></clipPath><clipPath id="06b220a1f0"><path d="M 49.136719 240.226562 L 88.566406 201.164062 L 127.625 240.59375 L 88.195312 279.652344 Z M 49.136719 240.226562 " clip-rule="nonzero"/></clipPath><clipPath id="6e9e6df8af"><path d="M 68.851562 220.695312 C 57.964844 231.480469 57.878906 249.050781 68.667969 259.941406 C 79.453125 270.828125 97.023438 270.910156 107.910156 260.125 C 118.796875 249.339844 118.882812 231.769531 108.09375 220.878906 C 97.308594 209.992188 79.738281 209.910156 68.851562 220.695312 " clip-rule="nonzero"/></clipPath><clipPath id="591dd6b6b2"><path d="M 188 176 L 245 176 L 245 233 L 188 233 Z M 188 176 " clip-rule="nonzero"/></clipPath><clipPath id="0cc97498c2"><path d="M 182.277344 224.292969 L 196.867188 170.617188 L 250.539062 185.207031 L 235.949219 238.882812 Z M 182.277344 224.292969 " clip-rule="nonzero"/></clipPath><clipPath id="3076c46646"><path d="M 189.570312 197.453125 C 185.542969 212.277344 194.289062 227.558594 209.113281 231.585938 C 223.933594 235.617188 239.214844 226.867188 243.246094 212.042969 C 247.273438 197.222656 238.523438 181.941406 223.703125 177.914062 C 208.878906 173.882812 193.597656 182.632812 189.570312 197.453125 " clip-rule="nonzero"/></clipPath><clipPath id="563901dd9c"><path d="M 188 177 L 245 177 L 245 233 L 188 233 Z M 188 177 " clip-rule="nonzero"/></clipPath><clipPath id="7c28b55937"><path d="M 182.277344 224.292969 L 196.832031 170.734375 L 250.390625 185.292969 L 235.832031 238.851562 Z M 182.277344 224.292969 " clip-rule="nonzero"/></clipPath><clipPath id="eebe193944"><path d="M 182.277344 224.292969 L 196.832031 170.734375 L 250.390625 185.292969 L 235.832031 238.851562 Z M 182.277344 224.292969 " clip-rule="nonzero"/></clipPath><clipPath id="7fdea8a924"><path d="M 189.554688 197.511719 C 185.535156 212.304688 194.265625 227.550781 209.054688 231.570312 C 223.84375 235.589844 239.089844 226.859375 243.109375 212.070312 C 247.132812 197.28125 238.402344 182.035156 223.613281 178.015625 C 208.824219 173.996094 193.574219 182.722656 189.554688 197.511719 " clip-rule="nonzero"/></clipPath><clipPath id="625c14e015"><path d="M 117 103 L 132 103 L 132 118 L 117 118 Z M 117 103 " clip-rule="nonzero"/></clipPath><clipPath id="422e5defbc"><path d="M 116.214844 105.207031 L 129.714844 101.652344 L 133.269531 115.152344 L 119.769531 118.707031 Z M 116.214844 105.207031 " clip-rule="nonzero"/></clipPath><clipPath id="ad0a9ffa74"><path d="M 122.964844 103.429688 C 119.238281 104.414062 117.011719 108.230469 117.992188 111.957031 C 118.976562 115.6875 122.792969 117.914062 126.519531 116.929688 C 130.246094 115.949219 132.472656 112.132812 131.492188 108.402344 C 130.511719 104.675781 126.691406 102.449219 122.964844 103.429688 " clip-rule="nonzero"/></clipPath><clipPath id="c237525340"><path d="M 81 233 L 96 233 L 96 248 L 81 248 Z M 81 233 " clip-rule="nonzero"/></clipPath><clipPath id="11a1a2a98e"><path d="M 88.507812 230.542969 L 98.332031 240.460938 L 88.414062 250.285156 L 78.589844 240.367188 Z M 88.507812 230.542969 " clip-rule="nonzero"/></clipPath><clipPath id="7c7e22a029"><path d="M 93.421875 235.5 C 90.707031 232.761719 86.289062 232.742188 83.550781 235.453125 C 80.8125 238.167969 80.789062 242.585938 83.503906 245.324219 C 86.214844 248.0625 90.636719 248.085938 93.375 245.371094 C 96.113281 242.660156 96.132812 238.238281 93.421875 235.5 " clip-rule="nonzero"/></clipPath><clipPath id="8f379c9e92"><path d="M 209 196 L 224 196 L 224 211 L 209 211 Z M 209 196 " clip-rule="nonzero"/></clipPath><clipPath id="aecc5d2d77"><path d="M 208.128906 198.773438 L 221.628906 195.21875 L 225.183594 208.71875 L 211.683594 212.273438 Z M 208.128906 198.773438 " clip-rule="nonzero"/></clipPath><clipPath id="3f138b6b21"><path d="M 214.878906 196.996094 C 211.152344 197.976562 208.925781 201.796875 209.90625 205.523438 C 210.890625 209.25 214.707031 211.476562 218.433594 210.496094 C 222.164062 209.511719 224.386719 205.695312 223.40625 201.96875 C 222.425781 198.242188 218.609375 196.015625 214.878906 196.996094 " clip-rule="nonzero"/></clipPath><clipPath id="1ba788fa11"><path d="M 168 128 L 208 128 L 208 158 L 168 158 Z M 168 128 " clip-rule="nonzero"/></clipPath><clipPath id="de14debbb4"><path d="M 204.082031 160.601562 L 167.984375 130.109375 L 176.695312 119.796875 L 212.792969 150.289062 Z M 204.082031 160.601562 " clip-rule="nonzero"/></clipPath><clipPath id="484434cb82"><path d="M 167.839844 129.988281 L 203.9375 160.480469 L 212.648438 150.167969 L 176.554688 119.675781 Z M 167.839844 129.988281 " clip-rule="nonzero"/></clipPath><clipPath id="a76d25522f"><path d="M 167.839844 129.988281 L 203.9375 160.480469 L 212.648438 150.167969 L 176.554688 119.675781 Z M 167.839844 129.988281 " clip-rule="nonzero"/></clipPath><clipPath id="fdd4d2fae9"><path d="M 177 129 L 178 129 L 178 130 L 177 130 Z M 177 129 " clip-rule="nonzero"/></clipPath><clipPath id="cb4dd4cb63"><path d="M 204.082031 160.601562 L 167.984375 130.109375 L 176.695312 119.796875 L 212.792969 150.289062 Z M 204.082031 160.601562 " clip-rule="nonzero"/></clipPath><clipPath id="c91199eec7"><path d="M 167.839844 129.988281 L 203.9375 160.480469 L 212.648438 150.167969 L 176.554688 119.675781 Z M 167.839844 129.988281 " clip-rule="nonzero"/></clipPath><clipPath id="ffabab64ec"><path d="M 167.839844 129.988281 L 203.9375 160.480469 L 212.648438 150.167969 L 176.554688 119.675781 Z M 167.839844 129.988281 " clip-rule="nonzero"/></clipPath><clipPath id="3850c6df36"><path d="M 139 237 L 184 237 L 184 260 L 139 260 Z M 139 237 " clip-rule="nonzero"/></clipPath><clipPath id="4639bebf8f"><path d="M 137.214844 249.382812 L 182.921875 237.417969 L 186.34375 250.476562 L 140.632812 262.445312 Z M 137.214844 249.382812 " clip-rule="nonzero"/></clipPath><clipPath id="dd1472a57e"><path d="M 183.105469 237.371094 L 137.394531 249.335938 L 140.8125 262.398438 L 186.523438 250.429688 Z M 183.105469 237.371094 " clip-rule="nonzero"/></clipPath><clipPath id="45203d0949"><path d="M 183.105469 237.371094 L 137.394531 249.335938 L 140.8125 262.398438 L 186.523438 250.429688 Z M 183.105469 237.371094 " clip-rule="nonzero"/></clipPath><clipPath id="85975395bc"><path d="M 177 245 L 178 245 L 178 246 L 177 246 Z M 177 245 " clip-rule="nonzero"/></clipPath><clipPath id="c9b6364993"><path d="M 137.214844 249.382812 L 182.921875 237.417969 L 186.34375 250.476562 L 140.632812 262.445312 Z M 137.214844 249.382812 " clip-rule="nonzero"/></clipPath><clipPath id="a013f0c863"><path d="M 183.105469 237.371094 L 137.394531 249.335938 L 140.8125 262.398438 L 186.523438 250.429688 Z M 183.105469 237.371094 " clip-rule="nonzero"/></clipPath><clipPath id="0963d42592"><path d="M 183.105469 237.371094 L 137.394531 249.335938 L 140.8125 262.398438 L 186.523438 250.429688 Z M 183.105469 237.371094 " clip-rule="nonzero"/></clipPath><clipPath id="c30eb070d0"><path d="M 70 148 L 90 148 L 90 194 L 70 194 Z M 70 148 " clip-rule="nonzero"/></clipPath><clipPath id="44b96cbf31"><path d="M 93.234375 149.441406 L 77.011719 193.820312 L 64.332031 189.1875 L 80.554688 144.808594 Z M 93.234375 149.441406 " clip-rule="nonzero"/></clipPath><clipPath id="d476aa998c"><path d="M 76.945312 193.996094 L 93.167969 149.621094 L 80.488281 144.984375 L 64.265625 189.363281 Z M 76.945312 193.996094 " clip-rule="nonzero"/></clipPath><clipPath id="af6cea45f3"><path d="M 76.945312 193.996094 L 93.167969 149.621094 L 80.488281 144.984375 L 64.265625 189.363281 Z M 76.945312 193.996094 " clip-rule="nonzero"/></clipPath><clipPath id="4e5f0c5557"><path d="M 73 184 L 74 184 L 74 186 L 73 186 Z M 73 184 " clip-rule="nonzero"/></clipPath><clipPath id="6b89b6b1ed"><path d="M 93.234375 149.441406 L 77.011719 193.820312 L 64.332031 189.1875 L 80.554688 144.808594 Z M 93.234375 149.441406 " clip-rule="nonzero"/></clipPath><clipPath id="7503d4ca15"><path d="M 76.945312 193.996094 L 93.167969 149.621094 L 80.488281 144.984375 L 64.265625 189.363281 Z M 76.945312 193.996094 " clip-rule="nonzero"/></clipPath><clipPath id="b5e168fa22"><path d="M 76.945312 193.996094 L 93.167969 149.621094 L 80.488281 144.984375 L 64.265625 189.363281 Z M 76.945312 193.996094 " clip-rule="nonzero"/></clipPath><clipPath id="21985faa17"><path d="M 266.625 297.128906 L 283 297.128906 L 283 318.128906 L 266.625 318.128906 Z M 266.625 297.128906 " clip-rule="nonzero"/></clipPath><clipPath id="85338693f5"><path d="M 278 297.128906 L 294.785156 297.128906 L 294.785156 318.128906 L 278 318.128906 Z M 278 297.128906 " clip-rule="nonzero"/></clipPath><clipPath id="18fed6a568"><path d="M 229.5 297.128906 L 246 297.128906 L 246 318.128906 L 229.5 318.128906 Z M 229.5 297.128906 " clip-rule="nonzero"/></clipPath><clipPath id="2673538bf1"><path d="M 241 297.128906 L 257.660156 297.128906 L 257.660156 318.128906 L 241 318.128906 Z M 241 297.128906 " clip-rule="nonzero"/></clipPath><clipPath id="3be3600c5e"><path d="M 192.375 297.128906 L 209 297.128906 L 209 318.128906 L 192.375 318.128906 Z M 192.375 297.128906 " clip-rule="nonzero"/></clipPath><clipPath id="6a781de98c"><path d="M 204 297.128906 L 220.535156 297.128906 L 220.535156 318.128906 L 204 318.128906 Z M 204 297.128906 " clip-rule="nonzero"/></clipPath><clipPath id="1432239e31"><path d="M 155.25 297.128906 L 172 297.128906 L 172 318.128906 L 155.25 318.128906 Z M 155.25 297.128906 " clip-rule="nonzero"/></clipPath><clipPath id="e96033a72e"><path d="M 167 297.128906 L 183.410156 297.128906 L 183.410156 318.128906 L 167 318.128906 Z M 167 297.128906 " clip-rule="nonzero"/></clipPath><clipPath id="632e04ef9e"><path d="M 117 297 L 135 297 L 135 319 L 117 319 Z M 117 297 " clip-rule="nonzero"/></clipPath><clipPath id="b0329f7e11"><path d="M 117.945312 297.378906 L 146.441406 296.875 L 146.8125 317.871094 L 118.316406 318.375 Z M 117.945312 297.378906 " clip-rule="nonzero"/></clipPath><clipPath id="8d889e637e"><path d="M 146.101562 296.878906 L 117.605469 297.382812 L 117.976562 318.378906 L 146.472656 317.875 Z M 146.101562 296.878906 " clip-rule="nonzero"/></clipPath><clipPath id="f6762b24e8"><path d="M 130 296 L 147 296 L 147 318 L 130 318 Z M 130 296 " clip-rule="nonzero"/></clipPath><clipPath id="3ad357511d"><path d="M 117.945312 297.378906 L 146.441406 296.875 L 146.8125 317.871094 L 118.316406 318.375 Z M 117.945312 297.378906 " clip-rule="nonzero"/></clipPath><clipPath id="f7b3f63eac"><path d="M 146.101562 296.878906 L 117.605469 297.382812 L 117.976562 318.378906 L 146.472656 317.875 Z M 146.101562 296.878906 " clip-rule="nonzero"/></clipPath><clipPath id="23fabc0b14"><path d="M 75 282 L 95 282 L 95 304 L 75 304 Z M 75 282 " clip-rule="nonzero"/></clipPath><clipPath id="d4c52e3ea4"><path d="M 81.105469 277.734375 L 105.09375 293.121094 L 93.757812 310.796875 L 69.765625 295.410156 Z M 81.105469 277.734375 " clip-rule="nonzero"/></clipPath><clipPath id="57e4b8d0b3"><path d="M 104.808594 292.9375 L 80.816406 277.550781 L 69.480469 295.226562 L 93.46875 310.613281 Z M 104.808594 292.9375 " clip-rule="nonzero"/></clipPath><clipPath id="b7ecf9baae"><path d="M 85 289 L 105 289 L 105 311 L 85 311 Z M 85 289 " clip-rule="nonzero"/></clipPath><clipPath id="48bfa6f1ab"><path d="M 81.105469 277.734375 L 105.09375 293.121094 L 93.757812 310.796875 L 69.765625 295.410156 Z M 81.105469 277.734375 " clip-rule="nonzero"/></clipPath><clipPath id="195c196fb0"><path d="M 104.808594 292.9375 L 80.816406 277.550781 L 69.480469 295.226562 L 93.46875 310.613281 Z M 104.808594 292.9375 " clip-rule="nonzero"/></clipPath><clipPath id="95e2d65af1"><path d="M 39 261 L 60 261 L 60 282 L 39 282 Z M 39 261 " clip-rule="nonzero"/></clipPath><clipPath id="a263a8868f"><path d="M 48.058594 255.742188 L 68.585938 275.511719 L 54.019531 290.636719 L 33.492188 270.867188 Z M 48.058594 255.742188 " clip-rule="nonzero"/></clipPath><clipPath id="f22acc7dce"><path d="M 68.339844 275.277344 L 47.8125 255.503906 L 33.246094 270.632812 L 53.773438 290.402344 Z M 68.339844 275.277344 " clip-rule="nonzero"/></clipPath><clipPath id="d785194bf6"><path d="M 48 270 L 68 270 L 68 290 L 48 290 Z M 48 270 " clip-rule="nonzero"/></clipPath><clipPath id="a5b09ee6b3"><path d="M 48.058594 255.742188 L 68.585938 275.511719 L 54.019531 290.636719 L 33.492188 270.867188 Z M 48.058594 255.742188 " clip-rule="nonzero"/></clipPath><clipPath id="d89bf97729"><path d="M 68.339844 275.277344 L 47.8125 255.503906 L 33.246094 270.632812 L 53.773438 290.402344 Z M 68.339844 275.277344 " clip-rule="nonzero"/></clipPath><clipPath id="2d5fc45967"><path d="M 17 226 L 39 226 L 39 245 L 17 245 Z M 17 226 " clip-rule="nonzero"/></clipPath><clipPath id="d008e92c45"><path d="M 31.21875 221.023438 L 45.539062 245.664062 L 27.386719 256.21875 L 13.0625 231.578125 Z M 31.21875 221.023438 " clip-rule="nonzero"/></clipPath><clipPath id="c8d4f36ed7"><path d="M 45.371094 245.371094 L 31.046875 220.730469 L 12.890625 231.285156 L 27.214844 255.925781 Z M 45.371094 245.371094 " clip-rule="nonzero"/></clipPath><clipPath id="aaa9ad83c5"><path d="M 23 236 L 45 236 L 45 256 L 23 256 Z M 23 236 " clip-rule="nonzero"/></clipPath><clipPath id="16e5431f0c"><path d="M 31.21875 221.023438 L 45.539062 245.664062 L 27.386719 256.21875 L 13.0625 231.578125 Z M 31.21875 221.023438 " clip-rule="nonzero"/></clipPath><clipPath id="84ca1e0fd6"><path d="M 45.371094 245.371094 L 31.046875 220.730469 L 12.890625 231.285156 L 27.214844 255.925781 Z M 45.371094 245.371094 " clip-rule="nonzero"/></clipPath><clipPath id="55a808676c"><path d="M 8.878906 171.9375 L 29.878906 171.9375 L 29.878906 188 L 8.878906 188 Z M 8.878906 171.9375 " clip-rule="nonzero"/></clipPath><clipPath id="ca9e9bd855"><path d="M 8.878906 184 L 29.878906 184 L 29.878906 200.097656 L 8.878906 200.097656 Z M 8.878906 184 " clip-rule="nonzero"/></clipPath><clipPath id="02ce593d57"><path d="M 20 121 L 42 121 L 42 141 L 20 141 Z M 20 121 " clip-rule="nonzero"/></clipPath><clipPath id="230ad33e98"><path d="M 46.378906 127.648438 L 30.144531 151.074219 L 12.882812 139.109375 L 29.117188 115.6875 Z M 46.378906 127.648438 " clip-rule="nonzero"/></clipPath><clipPath id="1eaa5434eb"><path d="M 30.339844 150.792969 L 46.574219 127.367188 L 29.3125 115.40625 L 13.078125 138.832031 Z M 30.339844 150.792969 " clip-rule="nonzero"/></clipPath><clipPath id="90e794724c"><path d="M 13 131 L 35 131 L 35 151 L 13 151 Z M 13 131 " clip-rule="nonzero"/></clipPath><clipPath id="ba8d826c5f"><path d="M 46.378906 127.648438 L 30.144531 151.074219 L 12.882812 139.109375 L 29.117188 115.6875 Z M 46.378906 127.648438 " clip-rule="nonzero"/></clipPath><clipPath id="dab26270a1"><path d="M 30.339844 150.792969 L 46.574219 127.367188 L 29.3125 115.40625 L 13.078125 138.832031 Z M 30.339844 150.792969 " clip-rule="nonzero"/></clipPath><clipPath id="f6960c690d"><path d="M 47 87 L 66 87 L 66 108 L 47 108 Z M 47 87 " clip-rule="nonzero"/></clipPath><clipPath id="fd9ce06257"><path d="M 72.519531 97.332031 L 51.425781 116.5 L 37.304688 100.957031 L 58.398438 81.789062 Z M 72.519531 97.332031 " clip-rule="nonzero"/></clipPath><clipPath id="3e8b37e171"><path d="M 51.675781 116.269531 L 72.769531 97.105469 L 58.648438 81.5625 L 37.554688 100.726562 Z M 51.675781 116.269531 " clip-rule="nonzero"/></clipPath><clipPath id="d4646fc267"><path d="M 37 96 L 57 96 L 57 116 L 37 116 Z M 37 96 " clip-rule="nonzero"/></clipPath><clipPath id="8a9c197c05"><path d="M 72.519531 97.332031 L 51.425781 116.5 L 37.304688 100.957031 L 58.398438 81.789062 Z M 72.519531 97.332031 " clip-rule="nonzero"/></clipPath><clipPath id="5eb111c2aa"><path d="M 51.675781 116.269531 L 72.769531 97.105469 L 58.648438 81.5625 L 37.554688 100.726562 Z M 51.675781 116.269531 " clip-rule="nonzero"/></clipPath><clipPath id="23b8f0314a"><path d="M 81 66 L 101 66 L 101 88 L 81 88 Z M 81 66 " clip-rule="nonzero"/></clipPath><clipPath id="351cc22a27"><path d="M 104.921875 81.058594 L 79.34375 93.632812 L 70.078125 74.785156 L 95.65625 62.214844 Z M 104.921875 81.058594 " clip-rule="nonzero"/></clipPath><clipPath id="e246798491"><path d="M 79.648438 93.480469 L 105.226562 80.910156 L 95.960938 62.0625 L 70.382812 74.636719 Z M 79.648438 93.480469 " clip-rule="nonzero"/></clipPath><clipPath id="8ed7f32fa5"><path d="M 70 71 L 90 71 L 90 94 L 70 94 Z M 70 71 " clip-rule="nonzero"/></clipPath><clipPath id="57d4fc55b2"><path d="M 104.921875 81.058594 L 79.34375 93.632812 L 70.078125 74.785156 L 95.65625 62.214844 Z M 104.921875 81.058594 " clip-rule="nonzero"/></clipPath><clipPath id="25a12b404a"><path d="M 79.648438 93.480469 L 105.226562 80.910156 L 95.960938 62.0625 L 70.382812 74.636719 Z M 79.648438 93.480469 " clip-rule="nonzero"/></clipPath><clipPath id="3a15eb0f07"><path d="M 130 57.015625 L 146.285156 57.015625 L 146.285156 78 L 130 78 Z M 130 57.015625 " clip-rule="nonzero"/></clipPath><clipPath id="ab543fe027"><path d="M 118.125 57.015625 L 135 57.015625 L 135 78 L 118.125 78 Z M 118.125 57.015625 " clip-rule="nonzero"/></clipPath><clipPath id="9c84dbd769"><path d="M 166 56 L 183 56 L 183 78 L 166 78 Z M 166 56 " clip-rule="nonzero"/></clipPath><clipPath id="28ad79aaf1"><path d="M 182.511719 78.011719 L 154.023438 77.15625 L 154.65625 56.164062 L 183.144531 57.023438 Z M 182.511719 78.011719 " clip-rule="nonzero"/></clipPath><clipPath id="d5dfe96bb5"><path d="M 154.363281 77.164062 L 182.851562 78.023438 L 183.484375 57.035156 L 154.996094 56.175781 Z M 154.363281 77.164062 " clip-rule="nonzero"/></clipPath><clipPath id="4f3c758ea6"><path d="M 154 56 L 171 56 L 171 78 L 154 78 Z M 154 56 " clip-rule="nonzero"/></clipPath><clipPath id="6ea6b79ef7"><path d="M 182.511719 78.011719 L 154.023438 77.15625 L 154.65625 56.164062 L 183.144531 57.023438 Z M 182.511719 78.011719 " clip-rule="nonzero"/></clipPath><clipPath id="ca0a4cd178"><path d="M 154.363281 77.164062 L 182.851562 78.023438 L 183.484375 57.035156 L 154.996094 56.175781 Z M 154.363281 77.164062 " clip-rule="nonzero"/></clipPath><clipPath id="5568423ce4"><path d="M 278 56 L 295 56 L 295 78 L 278 78 Z M 278 56 " clip-rule="nonzero"/></clipPath><clipPath id="4dc2f30b7c"><path d="M 294.164062 78.011719 L 265.675781 77.15625 L 266.308594 56.164062 L 294.796875 57.023438 Z M 294.164062 78.011719 " clip-rule="nonzero"/></clipPath><clipPath id="fdd6fac032"><path d="M 266.015625 77.164062 L 294.503906 78.023438 L 295.136719 57.035156 L 266.648438 56.175781 Z M 266.015625 77.164062 " clip-rule="nonzero"/></clipPath><clipPath id="a70c79b0e5"><path d="M 266 56 L 283 56 L 283 78 L 266 78 Z M 266 56 " clip-rule="nonzero"/></clipPath><clipPath id="90b05788be"><path d="M 294.164062 78.011719 L 265.675781 77.15625 L 266.308594 56.164062 L 294.796875 57.023438 Z M 294.164062 78.011719 " clip-rule="nonzero"/></clipPath><clipPath id="bd8fef3884"><path d="M 266.015625 77.164062 L 294.503906 78.023438 L 295.136719 57.035156 L 266.648438 56.175781 Z M 266.015625 77.164062 " clip-rule="nonzero"/></clipPath><clipPath id="74cd2ac780"><path d="M 241 56 L 258 56 L 258 78 L 241 78 Z M 241 56 " clip-rule="nonzero"/></clipPath><clipPath id="506a0b1703"><path d="M 257.039062 78.011719 L 228.550781 77.15625 L 229.183594 56.164062 L 257.671875 57.023438 Z M 257.039062 78.011719 " clip-rule="nonzero"/></clipPath><clipPath id="3ec022cf7b"><path d="M 228.890625 77.164062 L 257.378906 78.023438 L 258.011719 57.035156 L 229.523438 56.175781 Z M 228.890625 77.164062 " clip-rule="nonzero"/></clipPath><clipPath id="b8adc6e5fb"><path d="M 228 56 L 246 56 L 246 78 L 228 78 Z M 228 56 " clip-rule="nonzero"/></clipPath><clipPath id="22a3e21bb5"><path d="M 257.039062 78.011719 L 228.550781 77.15625 L 229.183594 56.164062 L 257.671875 57.023438 Z M 257.039062 78.011719 " clip-rule="nonzero"/></clipPath><clipPath id="60dc893b7d"><path d="M 228.890625 77.164062 L 257.378906 78.023438 L 258.011719 57.035156 L 229.523438 56.175781 Z M 228.890625 77.164062 " clip-rule="nonzero"/></clipPath><clipPath id="92ee0bf348"><path d="M 204 56 L 221 56 L 221 78 L 204 78 Z M 204 56 " clip-rule="nonzero"/></clipPath><clipPath id="de503eac86"><path d="M 220.523438 78.011719 L 192.035156 77.15625 L 192.667969 56.164062 L 221.15625 57.023438 Z M 220.523438 78.011719 " clip-rule="nonzero"/></clipPath><clipPath id="254f9a7f1c"><path d="M 192.375 77.164062 L 220.863281 78.023438 L 221.496094 57.035156 L 193.007812 56.175781 Z M 192.375 77.164062 " clip-rule="nonzero"/></clipPath><clipPath id="40540afb81"><path d="M 192 56 L 209 56 L 209 78 L 192 78 Z M 192 56 " clip-rule="nonzero"/></clipPath><clipPath id="5b1d018cfe"><path d="M 220.523438 78.011719 L 192.035156 77.15625 L 192.667969 56.164062 L 221.15625 57.023438 Z M 220.523438 78.011719 " clip-rule="nonzero"/></clipPath><clipPath id="e68d953173"><path d="M 192.375 77.164062 L 220.863281 78.023438 L 221.496094 57.035156 L 193.007812 56.175781 Z M 192.375 77.164062 " clip-rule="nonzero"/></clipPath></defs><g clip-path="url(#1822db4578)"><g clip-path="url(#3636d0e3a1)"><path fill="#919191" d="M 303.75 52.777344 L 303.75 323.039062 L -0.132812 323.039062 L -0.132812 52.777344 Z M 303.75 52.777344 " fill-opacity="1" fill-rule="nonzero"/></g></g><g clip-path="url(#f449104942)"><g clip-path="url(#c22cda44dd)"><path stroke-linecap="butt" transform="matrix(0.000000000000000046, 0.75, -0.75, 0.000000000000000046, 303.749959, 52.777335)" fill="none" stroke-linejoin="miter" d="M 120.062517 394.442673 C 138.520852 400.817674 159.505228 404.999965 180.098979 404.999965 C 200.69273 404.999965 220.505231 401.416632 238.770857 395.041632 C 239.156274 394.838507 239.546899 394.838507 239.937524 394.64059 C 308.515652 369.145797 359.03128 301.81246 360.00003 224.124956 L 360.00003 -0.0000552182 L 0.0000113526 -0.0000552182 L 0.0000113526 223.95829 C 0.97397 302.208294 50.708347 369.54163 120.062517 394.442673 " stroke="#000000" stroke-width="4" stroke-opacity="1" stroke-miterlimit="4"/></g></g><g clip-path="url(#0b4960172f)"><g clip-path="url(#19ebf7486d)"><g clip-path="url(#e3a4eb5879)"><path fill="#707070" d="M 274.296875 110.128906 L 217.707031 318.308594 L 9.527344 261.722656 L 66.117188 53.539062 Z M 274.296875 110.128906 " fill-opacity="1" fill-rule="nonzero"/></g></g></g><g clip-path="url(#87a0ae159f)"><g clip-path="url(#7e95c0409f)"><g clip-path="url(#25e5a52fe0)"><g clip-path="url(#bd4e8d0700)"><path stroke-linecap="butt" transform="matrix(-0.196728, 0.723739, -0.723739, -0.196728, 274.297236, 110.128774)" fill="none" stroke-linejoin="miter" d="M 144.000516 -0.000700414 C 64.471406 0.000825327 -0.000111023 64.471528 0.00141472 144.000638 C -0.00208551 223.531115 64.473643 288.001266 143.997728 288.001106 C 223.526838 287.999581 287.998355 223.528878 288.001855 143.998401 C 288.000329 64.469291 223.529627 -0.00222616 144.000516 -0.000700414 " stroke="#000000" stroke-width="8" stroke-opacity="1" stroke-miterlimit="4"/></g></g></g></g><g clip-path="url(#99fd28a092)"><g clip-path="url(#b1119545a2)"><g clip-path="url(#d96230c02a)"><path fill="#ffde59" d="M 209.140625 193.320312 L 204.585938 210.332031 L 173.746094 202.078125 L 178.300781 185.0625 Z M 209.140625 193.320312 " fill-opacity="1" fill-rule="nonzero"/></g></g></g><g clip-path="url(#d49b033282)"><g clip-path="url(#728ae16414)"><g clip-path="url(#ce2d318958)"><path fill="#ffde59" d="M 114.886719 201.867188 L 127.207031 214.453125 L 104.394531 236.785156 L 92.074219 224.199219 Z M 114.886719 201.867188 " fill-opacity="1" fill-rule="nonzero"/></g></g></g><g clip-path="url(#29ca06c53e)"><g clip-path="url(#933275fd0c)"><g clip-path="url(#8128adae12)"><path fill="#ffde59" d="M 91.113281 148.453125 L 172.78125 126.949219 L 191.429688 197.773438 L 109.761719 219.277344 Z M 91.113281 148.453125 " fill-opacity="1" fill-rule="nonzero"/></g></g></g><g clip-path="url(#a381518667)"><g clip-path="url(#711645fd33)"><g clip-path="url(#2e478eb9d4)"><path fill="#ffde59" d="M 121.386719 132.316406 L 138.417969 127.832031 L 146.546875 158.703125 L 129.515625 163.191406 Z M 121.386719 132.316406 " fill-opacity="1" fill-rule="nonzero"/></g></g></g><g clip-path="url(#728a2e9737)"><g clip-path="url(#f8eb85e01e)"><g clip-path="url(#4ee2b64c11)"><path fill="#ffde59" d="M 104.15625 143.6875 L 91.234375 89.585938 L 145.335938 76.664062 L 158.257812 130.765625 Z M 104.15625 143.6875 " fill-opacity="1" fill-rule="nonzero"/></g></g></g><g clip-path="url(#3eab343ed2)"><g clip-path="url(#e3ed5e0b71)"><g clip-path="url(#03c3b74aeb)"><g clip-path="url(#d393ee10de)"><path fill="#000000" d="M 100.621094 116 C 101.910156 121.402344 104.695312 125.859375 108.976562 129.375 L 105.175781 134 C 99.859375 129.636719 96.398438 124.101562 94.796875 117.390625 Z M 111.132812 130.957031 C 115.78125 134 120.859375 135.335938 126.367188 134.953125 L 126.78125 140.925781 C 119.933594 141.398438 113.621094 139.746094 107.851562 135.964844 Z M 129.015625 134.628906 C 129.496094 134.542969 129.976562 134.441406 130.449219 134.328125 C 135.339844 133.160156 139.480469 130.738281 142.875 127.0625 L 147.273438 131.125 C 143.058594 135.691406 137.914062 138.703125 131.84375 140.152344 C 131.253906 140.292969 130.660156 140.417969 130.066406 140.523438 Z M 144.582031 125 C 147.894531 120.53125 149.519531 115.539062 149.460938 110.015625 L 155.449219 109.949219 C 155.519531 116.816406 153.503906 123.019531 149.394531 128.566406 Z M 149.289062 107.363281 C 149.175781 106.402344 149.003906 105.449219 148.777344 104.5 C 147.730469 100.113281 145.652344 96.304688 142.539062 93.078125 L 146.847656 88.921875 C 150.71875 92.933594 153.300781 97.660156 154.601562 103.109375 C 154.882812 104.28125 155.09375 105.464844 155.234375 106.65625 Z M 140.585938 91.261719 C 136.320312 87.699219 131.429688 85.785156 125.910156 85.515625 L 126.203125 79.535156 C 133.054688 79.867188 139.128906 82.246094 144.421875 86.664062 Z M 123.238281 85.53125 C 121.796875 85.621094 120.367188 85.832031 118.949219 86.171875 C 115.058594 87.101562 111.605469 88.855469 108.59375 91.441406 L 104.695312 86.894531 C 108.441406 83.683594 112.726562 81.5 117.558594 80.347656 C 119.3125 79.929688 121.085938 79.664062 122.875 79.554688 Z M 106.667969 93.285156 C 102.863281 97.335938 100.667969 102.105469 100.078125 107.605469 L 94.125 106.964844 C 94.859375 100.136719 97.582031 94.210938 102.300781 89.1875 Z M 99.9375 110.273438 C 99.941406 112.199219 100.167969 114.109375 100.621094 116 L 94.796875 117.390625 C 94.238281 115.046875 93.953125 112.679688 93.949219 110.285156 Z M 99.9375 110.273438 " fill-opacity="1" fill-rule="nonzero"/></g></g></g></g><g clip-path="url(#b68018ba91)"><g clip-path="url(#da0dc2708b)"><g clip-path="url(#20d8988789)"><path fill="#ffde59" d="M 49.136719 240.226562 L 88.652344 201.078125 L 127.796875 240.59375 L 88.28125 279.742188 Z M 49.136719 240.226562 " fill-opacity="1" fill-rule="nonzero"/></g></g></g><g clip-path="url(#a0125b5b58)"><g clip-path="url(#01112b47cd)"><g clip-path="url(#06b220a1f0)"><g clip-path="url(#6e9e6df8af)"><path fill="#000000" d="M 70.957031 222.824219 C 67.011719 226.730469 64.648438 231.425781 63.871094 236.910156 L 57.945312 236.066406 C 58.910156 229.253906 61.84375 223.421875 66.746094 218.570312 Z M 63.640625 239.574219 C 63.453125 245.125 64.953125 250.160156 68.136719 254.667969 L 63.25 258.125 C 59.289062 252.515625 57.421875 246.265625 57.65625 239.371094 Z M 69.792969 256.761719 C 70.117188 257.128906 70.449219 257.484375 70.792969 257.832031 C 74.332031 261.402344 78.550781 263.683594 83.457031 264.675781 L 82.273438 270.542969 C 76.175781 269.3125 70.933594 266.480469 66.539062 262.046875 C 66.113281 261.617188 65.699219 261.175781 65.300781 260.722656 Z M 86.105469 265.0625 C 91.644531 265.570312 96.757812 264.363281 101.445312 261.445312 L 104.609375 266.527344 C 98.78125 270.15625 92.429688 271.65625 85.558594 271.023438 Z M 103.621094 259.921875 C 104.382812 259.324219 105.109375 258.683594 105.804688 257.996094 C 109.007812 254.824219 111.179688 251.070312 112.320312 246.734375 L 118.109375 248.257812 C 116.695312 253.644531 113.996094 258.308594 110.015625 262.25 C 109.160156 263.101562 108.257812 263.894531 107.3125 264.636719 Z M 112.859375 244.117188 C 113.6875 238.625 112.78125 233.449219 110.144531 228.597656 L 115.40625 225.738281 C 118.683594 231.765625 119.808594 238.191406 118.78125 245.011719 Z M 108.742188 226.320312 C 107.917969 225.132812 106.996094 224.023438 105.96875 222.988281 C 103.152344 220.144531 99.859375 218.109375 96.085938 216.878906 L 97.945312 211.183594 C 102.636719 212.714844 106.726562 215.246094 110.222656 218.773438 C 111.492188 220.054688 112.640625 221.433594 113.660156 222.90625 Z M 93.507812 216.1875 C 88.074219 215.042969 82.855469 215.644531 77.851562 217.996094 L 75.304688 212.578125 C 81.519531 209.65625 88 208.910156 94.742188 210.328125 Z M 75.496094 219.265625 C 73.851562 220.265625 72.339844 221.453125 70.957031 222.824219 L 66.746094 218.570312 C 68.457031 216.871094 70.335938 215.398438 72.375 214.152344 Z M 75.496094 219.265625 " fill-opacity="1" fill-rule="nonzero"/></g></g></g></g><g clip-path="url(#591dd6b6b2)"><g clip-path="url(#0cc97498c2)"><g clip-path="url(#3076c46646)"><path fill="#ffde59" d="M 182.277344 224.292969 L 196.867188 170.617188 L 250.539062 185.207031 L 235.949219 238.882812 Z M 182.277344 224.292969 " fill-opacity="1" fill-rule="nonzero"/></g></g></g><g clip-path="url(#563901dd9c)"><g clip-path="url(#7c28b55937)"><g clip-path="url(#eebe193944)"><g clip-path="url(#7fdea8a924)"><path fill="#000000" d="M 192.441406 198.300781 C 190.988281 203.660156 191.292969 208.90625 193.367188 214.039062 L 187.816406 216.28125 C 185.238281 209.902344 184.855469 203.382812 186.664062 196.726562 Z M 194.5 216.460938 C 197.121094 221.363281 200.9375 224.964844 205.957031 227.273438 L 203.453125 232.714844 C 197.21875 229.84375 192.472656 225.371094 189.21875 219.285156 Z M 208.4375 228.257812 C 208.898438 228.410156 209.367188 228.554688 209.839844 228.683594 C 214.691406 230 219.484375 229.859375 224.226562 228.261719 L 226.140625 233.933594 C 220.25 235.921875 214.292969 236.097656 208.269531 234.460938 C 207.683594 234.300781 207.105469 234.125 206.53125 233.933594 Z M 226.710938 227.269531 C 231.757812 224.933594 235.582031 221.328125 238.175781 216.453125 L 243.460938 219.269531 C 240.234375 225.328125 235.488281 229.804688 229.226562 232.703125 Z M 239.296875 214.046875 C 239.660156 213.148438 239.964844 212.226562 240.222656 211.285156 C 241.40625 206.933594 241.40625 202.597656 240.21875 198.273438 L 245.996094 196.691406 C 247.46875 202.0625 247.46875 207.453125 246 212.855469 C 245.683594 214.023438 245.300781 215.160156 244.855469 216.277344 Z M 239.375 195.738281 C 237.339844 190.570312 233.964844 186.542969 229.25 183.664062 L 232.371094 178.554688 C 238.226562 182.132812 242.421875 187.128906 244.945312 193.546875 Z M 226.898438 182.398438 C 225.589844 181.785156 224.234375 181.285156 222.828125 180.902344 C 218.964844 179.855469 215.09375 179.742188 211.214844 180.566406 L 209.96875 174.707031 C 214.796875 173.683594 219.605469 173.824219 224.398438 175.125 C 226.140625 175.597656 227.820312 176.21875 229.445312 176.980469 Z M 208.636719 181.257812 C 203.359375 182.992188 199.144531 186.128906 195.992188 190.667969 L 191.074219 187.253906 C 194.988281 181.613281 200.222656 177.71875 206.769531 175.570312 Z M 194.589844 192.945312 C 193.667969 194.636719 192.953125 196.421875 192.441406 198.300781 L 186.664062 196.726562 C 187.296875 194.402344 188.183594 192.1875 189.328125 190.085938 Z M 194.589844 192.945312 " fill-opacity="1" fill-rule="nonzero"/></g></g></g></g><g clip-path="url(#625c14e015)"><g clip-path="url(#422e5defbc)"><g clip-path="url(#ad0a9ffa74)"><path fill="#707070" d="M 116.214844 105.207031 L 129.714844 101.652344 L 133.269531 115.152344 L 119.769531 118.707031 Z M 116.214844 105.207031 " fill-opacity="1" fill-rule="nonzero"/></g></g></g><g clip-path="url(#c237525340)"><g clip-path="url(#11a1a2a98e)"><g clip-path="url(#7c7e22a029)"><path fill="#707070" d="M 88.507812 230.542969 L 98.332031 240.460938 L 88.414062 250.285156 L 78.589844 240.367188 Z M 88.507812 230.542969 " fill-opacity="1" fill-rule="nonzero"/></g></g></g><g clip-path="url(#8f379c9e92)"><g clip-path="url(#aecc5d2d77)"><g clip-path="url(#3f138b6b21)"><path fill="#707070" d="M 208.128906 198.773438 L 221.628906 195.21875 L 225.183594 208.71875 L 211.683594 212.273438 Z M 208.128906 198.773438 " fill-opacity="1" fill-rule="nonzero"/></g></g></g><g clip-path="url(#1ba788fa11)"><g clip-path="url(#de14debbb4)"><g clip-path="url(#484434cb82)"><g clip-path="url(#a76d25522f)"><path fill="#ffffff" d="M 168.675781 130.179688 C 168.679688 130.140625 168.699219 130.109375 168.738281 130.089844 C 168.734375 129.945312 168.515625 129.871094 168.617188 129.691406 C 168.582031 129.242188 168.882812 129.070312 169.238281 128.945312 C 170.230469 128.59375 171.253906 128.414062 172.289062 128.296875 C 176 127.875 179.617188 128.25 183.199219 129.269531 C 189.453125 131.054688 194.367188 134.71875 198.316406 139.765625 C 200.144531 142.101562 201.53125 144.722656 202.792969 147.410156 C 203.535156 148.988281 204.179688 150.605469 204.867188 152.210938 C 204.863281 152.28125 204.863281 152.347656 204.863281 152.417969 C 204.917969 152.46875 204.964844 152.542969 205.03125 152.5625 C 205.03125 152.5625 205.03125 152.5625 205.035156 152.5625 C 205.085938 152.578125 205.109375 152.5 205.082031 152.445312 C 205.25 151.777344 205.273438 151.09375 205.261719 150.414062 C 205.253906 149.949219 205.277344 149.496094 205.441406 149.054688 C 205.414062 148.050781 205.914062 147.425781 206.816406 147.273438 C 207.765625 149.023438 207.671875 150.890625 207.417969 152.785156 C 207.324219 153.488281 207.28125 154.195312 207.222656 154.902344 C 207.089844 156.59375 207.011719 156.34375 205.773438 156.960938 C 205.496094 157.101562 205.191406 157.171875 204.882812 157.214844 C 204.769531 157.226562 204.664062 157.230469 204.574219 157.152344 C 204.246094 157.292969 204.019531 157.109375 203.808594 156.914062 C 203.179688 156.339844 202.558594 155.757812 201.933594 155.179688 C 201.730469 155.140625 201.609375 155 201.492188 154.847656 C 201.289062 154.816406 201.167969 154.671875 201.042969 154.53125 C 200.898438 154.53125 200.8125 154.414062 200.703125 154.347656 C 199.222656 153.417969 197.660156 152.671875 195.96875 152.195312 C 195.84375 152.160156 195.71875 152.113281 195.59375 152.074219 C 195.445312 152.023438 195.273438 151.972656 195.273438 151.792969 C 195.273438 151.65625 195.414062 151.527344 195.53125 151.511719 C 196.039062 151.433594 196.421875 151.058594 196.90625 150.945312 C 197.121094 150.890625 197.339844 150.933594 197.558594 150.976562 C 199.261719 151.316406 200.855469 151.949219 202.386719 152.746094 C 202.523438 152.816406 202.652344 152.910156 202.796875 152.953125 C 202.96875 153 203.023438 152.863281 203.039062 152.71875 C 202.894531 152.621094 202.84375 152.488281 202.882812 152.320312 C 202.765625 152.203125 202.660156 152.082031 202.710938 151.898438 C 202.664062 151.890625 202.652344 151.863281 202.671875 151.820312 C 202.558594 151.714844 202.46875 151.597656 202.503906 151.425781 C 202.441406 151.339844 202.367188 151.257812 202.320312 151.15625 C 201.824219 150.082031 201.339844 149 200.828125 147.929688 C 200.367188 146.960938 199.871094 146.003906 199.390625 145.042969 C 199.230469 144.808594 199.066406 144.574219 198.917969 144.332031 C 197.46875 141.980469 195.753906 139.839844 193.722656 137.96875 C 192.996094 137.296875 192.25 136.652344 191.515625 135.996094 C 191.300781 135.957031 191.183594 135.800781 191.058594 135.644531 C 190.855469 135.613281 190.738281 135.464844 190.621094 135.320312 C 190.425781 135.300781 190.324219 135.152344 190.203125 135.027344 C 190.070312 135.027344 189.988281 134.953125 189.929688 134.847656 C 189.882812 134.84375 189.851562 134.820312 189.835938 134.777344 C 189.691406 134.773438 189.609375 134.660156 189.496094 134.59375 C 188.953125 134.277344 188.46875 133.859375 187.882812 133.609375 C 187.875 133.535156 187.753906 133.398438 187.984375 133.46875 C 188.136719 133.515625 188.171875 133.484375 188.164062 133.433594 C 188.15625 133.386719 188.121094 133.320312 188.097656 133.265625 C 186.34375 132.3125 184.496094 131.582031 182.59375 130.976562 C 182.414062 130.9375 182.230469 130.894531 182.046875 130.855469 C 180.964844 130.617188 179.875 130.378906 178.792969 130.136719 C 178.75 130.15625 178.710938 130.160156 178.671875 130.152344 C 178.648438 130.144531 178.625 130.128906 178.601562 130.113281 C 178.535156 130.144531 178.472656 130.132812 178.417969 130.085938 C 178.347656 130.121094 178.285156 130.109375 178.230469 130.058594 C 178.164062 130.09375 178.101562 130.085938 178.042969 130.03125 C 177.976562 130.070312 177.914062 130.0625 177.859375 130.007812 C 177.789062 130.046875 177.726562 130.039062 177.671875 129.988281 C 177.605469 130.027344 177.542969 130.019531 177.488281 129.96875 L 177.484375 129.964844 C 177.425781 129.964844 177.363281 129.957031 177.300781 129.949219 L 177.296875 129.949219 C 177.230469 129.988281 177.167969 129.984375 177.113281 129.929688 L 177.105469 129.929688 C 177.042969 129.96875 176.980469 129.964844 176.925781 129.914062 L 176.917969 129.914062 C 176.917969 129.914062 176.914062 129.914062 176.914062 129.914062 C 176.914062 129.914062 176.917969 129.914062 176.917969 129.914062 C 176.851562 129.953125 176.792969 129.949219 176.734375 129.894531 L 176.730469 129.894531 C 176.664062 129.9375 176.605469 129.933594 176.546875 129.878906 C 176.480469 129.921875 176.417969 129.917969 176.359375 129.867188 C 175.78125 129.855469 175.203125 129.847656 174.625 129.839844 C 174.328125 129.738281 174.019531 129.792969 173.714844 129.804688 C 173.699219 129.835938 173.691406 129.867188 173.691406 129.898438 C 173.6875 129.949219 173.703125 129.992188 173.730469 130.039062 C 173.503906 130.070312 173.277344 130.121094 173.046875 130.046875 C 172.980469 130.015625 172.910156 129.996094 172.835938 130.007812 C 172.90625 130.019531 172.976562 130.03125 173.046875 130.046875 C 172.976562 130.070312 172.90625 130.085938 172.851562 130.023438 C 172.761719 130.097656 172.660156 130.105469 172.554688 130.070312 C 172.496094 130.117188 172.4375 130.128906 172.375 130.078125 C 172.304688 130.113281 172.238281 130.128906 172.171875 130.082031 C 172.136719 130.101562 172.105469 130.113281 172.066406 130.101562 C 171.847656 130.171875 171.628906 130.191406 171.402344 130.164062 C 171.246094 130.203125 171.089844 130.25 170.925781 130.207031 C 170.835938 130.269531 170.734375 130.257812 170.632812 130.253906 C 170.019531 130.421875 169.378906 130.472656 168.765625 130.765625 C 168.765625 130.527344 168.550781 130.386719 168.675781 130.179688 Z M 202.773438 151.738281 C 202.773438 151.734375 202.773438 151.734375 202.769531 151.734375 C 202.773438 151.734375 202.773438 151.734375 202.773438 151.734375 C 202.773438 151.734375 202.769531 151.734375 202.769531 151.734375 C 202.769531 151.734375 202.769531 151.738281 202.765625 151.738281 C 202.769531 151.738281 202.769531 151.738281 202.773438 151.738281 Z M 176.804688 129.53125 C 176.820312 129.53125 176.832031 129.53125 176.847656 129.527344 C 176.84375 129.527344 176.839844 129.527344 176.835938 129.527344 C 176.824219 129.523438 176.8125 129.523438 176.796875 129.523438 C 176.800781 129.523438 176.800781 129.527344 176.804688 129.53125 Z M 178.785156 130.132812 C 178.785156 130.128906 178.785156 130.128906 178.785156 130.128906 C 178.785156 130.121094 178.785156 130.117188 178.785156 130.113281 L 178.785156 130.09375 L 178.785156 130.128906 C 178.78125 130.128906 178.78125 130.128906 178.78125 130.128906 C 178.78125 130.128906 178.78125 130.128906 178.785156 130.132812 Z M 176.769531 129.472656 C 176.78125 129.488281 176.789062 129.503906 176.796875 129.519531 C 176.808594 129.519531 176.820312 129.523438 176.835938 129.523438 C 176.808594 129.519531 176.785156 129.5 176.769531 129.472656 Z M 176.917969 129.527344 C 176.933594 129.53125 176.949219 129.53125 176.964844 129.53125 C 176.964844 129.53125 176.964844 129.53125 176.96875 129.53125 C 176.949219 129.53125 176.933594 129.53125 176.917969 129.527344 Z M 169.679688 129.507812 C 169.679688 129.507812 169.675781 129.507812 169.675781 129.507812 C 169.675781 129.507812 169.671875 129.507812 169.671875 129.507812 C 169.671875 129.507812 169.671875 129.507812 169.667969 129.507812 C 169.671875 129.511719 169.675781 129.507812 169.679688 129.507812 Z M 169.957031 129.4375 C 169.957031 129.433594 169.960938 129.429688 169.964844 129.429688 C 169.960938 129.433594 169.957031 129.433594 169.957031 129.4375 Z M 172.742188 129.945312 C 172.734375 129.933594 172.730469 129.917969 172.730469 129.902344 C 172.722656 129.910156 172.714844 129.914062 172.707031 129.917969 C 172.71875 129.925781 172.730469 129.9375 172.742188 129.945312 Z M 172.25 130.039062 C 172.226562 130.039062 172.203125 130.046875 172.179688 130.0625 C 172.203125 130.050781 172.226562 130.042969 172.25 130.039062 Z M 172.25 130.039062 " fill-opacity="1" fill-rule="nonzero"/></g></g></g></g><g clip-path="url(#fdd4d2fae9)"><g clip-path="url(#cb4dd4cb63)"><g clip-path="url(#c91199eec7)"><g clip-path="url(#ffabab64ec)"><path fill="#ffffff" d="M 177.292969 129.945312 C 177.351562 129.949219 177.414062 129.957031 177.472656 129.960938 C 177.40625 130.003906 177.347656 129.996094 177.292969 129.945312 Z M 177.292969 129.945312 " fill-opacity="1" fill-rule="nonzero"/></g></g></g></g><g clip-path="url(#3850c6df36)"><g clip-path="url(#4639bebf8f)"><g clip-path="url(#dd1472a57e)"><g clip-path="url(#45203d0949)"><path fill="#ffffff" d="M 182.46875 237.945312 C 182.5 237.96875 182.511719 238.003906 182.507812 238.046875 C 182.625 238.128906 182.816406 237.992188 182.902344 238.175781 C 183.289062 238.40625 183.257812 238.753906 183.15625 239.113281 C 182.871094 240.125 182.429688 241.066406 181.929688 241.984375 C 180.136719 245.261719 177.75 248.003906 174.851562 250.34375 C 169.792969 254.429688 163.96875 256.339844 157.570312 256.664062 C 154.605469 256.816406 151.664062 256.441406 148.742188 255.925781 C 147.023438 255.625 145.328125 255.21875 143.621094 254.855469 C 143.566406 254.816406 143.511719 254.773438 143.457031 254.734375 C 143.382812 254.75 143.292969 254.746094 143.238281 254.789062 C 143.238281 254.789062 143.238281 254.789062 143.238281 254.792969 C 143.195312 254.828125 143.246094 254.886719 143.308594 254.898438 C 143.757812 255.421875 144.300781 255.832031 144.863281 256.214844 C 145.25 256.472656 145.605469 256.757812 145.875 257.144531 C 146.707031 257.699219 146.933594 258.46875 146.535156 259.292969 C 144.558594 259.0625 143.085938 257.910156 141.683594 256.613281 C 141.164062 256.132812 140.609375 255.6875 140.066406 255.234375 C 138.757812 254.148438 139.007812 254.234375 139.214844 252.863281 C 139.261719 252.558594 139.375 252.265625 139.519531 251.992188 C 139.574219 251.890625 139.632812 251.800781 139.75 251.769531 C 139.820312 251.425781 140.105469 251.347656 140.382812 251.285156 C 141.214844 251.101562 142.050781 250.925781 142.882812 250.746094 C 143.03125 250.605469 143.21875 250.589844 143.40625 250.578125 C 143.550781 250.433594 143.738281 250.417969 143.925781 250.394531 C 144.007812 250.273438 144.152344 250.273438 144.269531 250.222656 C 145.882812 249.546875 147.394531 248.699219 148.753906 247.589844 C 148.859375 247.507812 148.964844 247.433594 149.074219 247.351562 C 149.199219 247.257812 149.339844 247.148438 149.484375 247.253906 C 149.597656 247.332031 149.621094 247.523438 149.570312 247.625 C 149.339844 248.085938 149.425781 248.613281 149.238281 249.078125 C 149.160156 249.28125 149 249.4375 148.835938 249.589844 C 147.578125 250.789062 146.144531 251.726562 144.613281 252.519531 C 144.476562 252.589844 144.324219 252.640625 144.207031 252.738281 C 144.070312 252.851562 144.148438 252.972656 144.257812 253.070312 C 144.421875 253.007812 144.558594 253.042969 144.675781 253.171875 C 144.835938 253.140625 144.996094 253.125 145.117188 253.273438 C 145.152344 253.242188 145.179688 253.25 145.203125 253.285156 C 145.355469 253.253906 145.503906 253.246094 145.621094 253.375 C 145.730469 253.375 145.839844 253.363281 145.949219 253.382812 C 147.113281 253.59375 148.277344 253.820312 149.445312 254.019531 C 150.507812 254.199219 151.570312 254.34375 152.632812 254.503906 C 152.921875 254.511719 153.203125 254.507812 153.488281 254.527344 C 156.246094 254.695312 158.984375 254.527344 161.683594 253.941406 C 162.648438 253.734375 163.605469 253.496094 164.566406 253.269531 C 164.71875 253.121094 164.917969 253.113281 165.113281 253.101562 C 165.257812 252.953125 165.445312 252.945312 165.632812 252.929688 C 165.761719 252.78125 165.941406 252.78125 166.113281 252.753906 C 166.1875 252.648438 166.296875 252.625 166.417969 252.636719 C 166.449219 252.597656 166.484375 252.585938 166.53125 252.601562 C 166.613281 252.484375 166.757812 252.480469 166.871094 252.429688 C 167.449219 252.167969 168.066406 252.011719 168.609375 251.675781 C 168.675781 251.710938 168.855469 251.691406 168.667969 251.839844 C 168.539062 251.9375 168.542969 251.984375 168.59375 252.007812 C 168.632812 252.03125 168.710938 252.039062 168.765625 252.050781 C 170.554688 251.164062 172.21875 250.070312 173.808594 248.867188 C 173.945312 248.742188 174.082031 248.617188 174.21875 248.492188 C 175.039062 247.738281 175.859375 246.988281 176.679688 246.242188 C 176.6875 246.195312 176.707031 246.160156 176.738281 246.136719 C 176.757812 246.121094 176.78125 246.109375 176.8125 246.101562 C 176.824219 246.023438 176.867188 245.980469 176.941406 245.964844 C 176.949219 245.886719 176.996094 245.84375 177.070312 245.828125 C 177.078125 245.75 177.121094 245.707031 177.199219 245.691406 C 177.207031 245.613281 177.246094 245.566406 177.324219 245.550781 C 177.332031 245.472656 177.371094 245.425781 177.449219 245.410156 C 177.453125 245.332031 177.496094 245.285156 177.570312 245.273438 L 177.574219 245.269531 C 177.609375 245.222656 177.648438 245.175781 177.691406 245.128906 L 177.695312 245.125 C 177.703125 245.050781 177.742188 245.003906 177.816406 244.988281 L 177.820312 244.980469 C 177.824219 244.90625 177.863281 244.859375 177.9375 244.84375 L 177.941406 244.839844 C 177.941406 244.839844 177.945312 244.835938 177.945312 244.835938 C 177.945312 244.835938 177.941406 244.839844 177.941406 244.839844 C 177.945312 244.761719 177.988281 244.714844 178.0625 244.695312 L 178.066406 244.695312 C 178.066406 244.617188 178.109375 244.570312 178.183594 244.554688 L 178.183594 244.550781 C 178.1875 244.472656 178.230469 244.425781 178.304688 244.40625 C 178.644531 243.9375 178.984375 243.472656 179.324219 243.003906 C 179.574219 242.816406 179.710938 242.535156 179.875 242.28125 C 179.859375 242.25 179.835938 242.226562 179.8125 242.207031 C 179.773438 242.175781 179.730469 242.160156 179.675781 242.160156 C 179.78125 241.953125 179.871094 241.738281 180.0625 241.597656 C 180.125 241.558594 180.179688 241.511719 180.214844 241.445312 C 180.164062 241.496094 180.113281 241.546875 180.0625 241.597656 C 180.082031 241.523438 180.109375 241.457031 180.195312 241.449219 C 180.183594 241.332031 180.238281 241.246094 180.328125 241.179688 C 180.320312 241.105469 180.347656 241.050781 180.421875 241.027344 C 180.433594 240.949219 180.460938 240.886719 180.539062 240.859375 C 180.539062 240.820312 180.550781 240.785156 180.582031 240.761719 C 180.652344 240.542969 180.757812 240.347656 180.914062 240.183594 C 180.96875 240.03125 181.023438 239.875 181.152344 239.769531 C 181.152344 239.65625 181.21875 239.582031 181.28125 239.5 C 181.5 238.902344 181.824219 238.347656 181.9375 237.679688 C 182.132812 237.816406 182.371094 237.722656 182.46875 237.945312 Z M 145.214844 253.417969 C 145.214844 253.417969 145.214844 253.417969 145.21875 253.417969 C 145.21875 253.417969 145.214844 253.417969 145.214844 253.417969 C 145.21875 253.417969 145.21875 253.417969 145.21875 253.417969 C 145.21875 253.414062 145.21875 253.414062 145.21875 253.410156 C 145.214844 253.414062 145.214844 253.417969 145.214844 253.417969 Z M 178.320312 244.960938 C 178.3125 244.976562 178.304688 244.988281 178.296875 245 C 178.300781 245 178.300781 244.996094 178.304688 244.992188 C 178.3125 244.984375 178.324219 244.972656 178.332031 244.964844 C 178.328125 244.964844 178.324219 244.964844 178.320312 244.960938 Z M 176.691406 246.238281 C 176.691406 246.238281 176.691406 246.238281 176.691406 246.242188 C 176.695312 246.242188 176.699219 246.246094 176.703125 246.25 L 176.71875 246.257812 L 176.691406 246.238281 C 176.691406 246.238281 176.695312 246.238281 176.691406 246.234375 C 176.695312 246.238281 176.691406 246.238281 176.691406 246.238281 Z M 178.386719 244.96875 C 178.371094 244.96875 178.351562 244.964844 178.335938 244.964844 C 178.324219 244.972656 178.316406 244.984375 178.308594 244.992188 C 178.328125 244.972656 178.355469 244.964844 178.386719 244.96875 Z M 178.257812 245.058594 C 178.246094 245.070312 178.238281 245.082031 178.230469 245.09375 C 178.230469 245.097656 178.226562 245.097656 178.226562 245.097656 C 178.238281 245.085938 178.246094 245.070312 178.257812 245.058594 Z M 182.4375 239.152344 C 182.441406 239.152344 182.441406 239.148438 182.445312 239.148438 C 182.445312 239.144531 182.445312 239.144531 182.445312 239.140625 C 182.441406 239.144531 182.441406 239.148438 182.4375 239.152344 Z M 182.339844 239.417969 C 182.339844 239.421875 182.34375 239.425781 182.339844 239.425781 C 182.339844 239.425781 182.339844 239.417969 182.339844 239.417969 Z M 180.320312 241.402344 C 180.335938 241.40625 180.347656 241.410156 180.363281 241.417969 C 180.363281 241.410156 180.363281 241.398438 180.359375 241.390625 C 180.347656 241.394531 180.335938 241.398438 180.320312 241.402344 Z M 180.523438 240.945312 C 180.539062 240.929688 180.546875 240.902344 180.550781 240.875 C 180.550781 240.875 180.550781 240.875 180.546875 240.875 C 180.542969 240.902344 180.539062 240.925781 180.523438 240.945312 Z M 180.523438 240.945312 " fill-opacity="1" fill-rule="nonzero"/></g></g></g></g><g clip-path="url(#85975395bc)"><g clip-path="url(#c9b6364993)"><g clip-path="url(#a013f0c863)"><g clip-path="url(#0963d42592)"><path fill="#ffffff" d="M 177.703125 245.125 C 177.660156 245.171875 177.621094 245.214844 177.582031 245.261719 C 177.585938 245.183594 177.628906 245.140625 177.703125 245.125 Z M 177.703125 245.125 " fill-opacity="1" fill-rule="nonzero"/></g></g></g></g><g clip-path="url(#c30eb070d0)"><g clip-path="url(#44b96cbf31)"><g clip-path="url(#d476aa998c)"><g clip-path="url(#af6cea45f3)"><path fill="#ffffff" d="M 76.839844 193.148438 C 76.800781 193.160156 76.761719 193.148438 76.730469 193.121094 C 76.597656 193.171875 76.601562 193.40625 76.398438 193.371094 C 75.988281 193.558594 75.722656 193.335938 75.484375 193.046875 C 74.816406 192.234375 74.292969 191.335938 73.828125 190.402344 C 72.15625 187.0625 71.261719 183.535156 70.992188 179.820312 C 70.515625 173.335938 72.269531 167.464844 75.648438 162.019531 C 77.214844 159.496094 79.199219 157.296875 81.285156 155.1875 C 82.515625 153.945312 83.8125 152.785156 85.085938 151.589844 C 85.148438 151.566406 85.214844 151.546875 85.277344 151.523438 C 85.308594 151.453125 85.363281 151.382812 85.355469 151.3125 C 85.355469 151.3125 85.355469 151.3125 85.355469 151.308594 C 85.351562 151.257812 85.273438 151.261719 85.226562 151.304688 C 84.542969 151.378906 83.894531 151.589844 83.261719 151.835938 C 82.828125 152.003906 82.390625 152.136719 81.921875 152.136719 C 80.988281 152.507812 80.226562 152.253906 79.777344 151.453125 C 81.09375 149.960938 82.878906 149.410156 84.742188 148.996094 C 85.4375 148.839844 86.117188 148.640625 86.800781 148.453125 C 88.4375 147.996094 88.226562 148.152344 89.234375 149.105469 C 89.457031 149.316406 89.628906 149.578125 89.773438 149.851562 C 89.828125 149.953125 89.867188 150.054688 89.828125 150.167969 C 90.070312 150.421875 89.972656 150.699219 89.863281 150.964844 C 89.542969 151.753906 89.210938 152.539062 88.882812 153.324219 C 88.914062 153.527344 88.820312 153.691406 88.71875 153.851562 C 88.761719 154.050781 88.664062 154.214844 88.578125 154.382812 C 88.628906 154.519531 88.546875 154.636719 88.519531 154.765625 C 88.15625 156.472656 87.996094 158.199219 88.128906 159.949219 C 88.136719 160.082031 88.136719 160.214844 88.140625 160.34375 C 88.148438 160.503906 88.15625 160.679688 87.988281 160.742188 C 87.859375 160.789062 87.691406 160.699219 87.636719 160.597656 C 87.390625 160.144531 86.90625 159.914062 86.632812 159.5 C 86.507812 159.316406 86.472656 159.097656 86.4375 158.875 C 86.171875 157.160156 86.214844 155.445312 86.4375 153.734375 C 86.457031 153.582031 86.503906 153.429688 86.492188 153.277344 C 86.476562 153.101562 86.332031 153.097656 86.1875 153.128906 C 86.148438 153.300781 86.039062 153.394531 85.867188 153.417969 C 85.800781 153.566406 85.722656 153.703125 85.53125 153.722656 C 85.539062 153.765625 85.515625 153.789062 85.472656 153.785156 C 85.414062 153.929688 85.332031 154.050781 85.160156 154.078125 C 85.097656 154.167969 85.046875 154.265625 84.96875 154.339844 C 84.132812 155.179688 83.28125 156.003906 82.453125 156.851562 C 81.699219 157.621094 80.972656 158.414062 80.238281 159.195312 C 80.066406 159.425781 79.910156 159.664062 79.730469 159.882812 C 78.019531 162.054688 76.601562 164.398438 75.539062 166.953125 C 75.160156 167.863281 74.8125 168.785156 74.449219 169.703125 C 74.484375 169.914062 74.378906 170.082031 74.273438 170.25 C 74.3125 170.453125 74.214844 170.613281 74.121094 170.773438 C 74.171875 170.964844 74.066406 171.113281 73.988281 171.269531 C 74.035156 171.390625 73.992188 171.492188 73.914062 171.585938 C 73.929688 171.632812 73.917969 171.667969 73.878906 171.695312 C 73.925781 171.832031 73.847656 171.953125 73.824219 172.078125 C 73.714844 172.699219 73.488281 173.296875 73.453125 173.933594 C 73.386719 173.96875 73.300781 174.128906 73.289062 173.886719 C 73.277344 173.730469 73.242188 173.707031 73.191406 173.730469 C 73.148438 173.753906 73.101562 173.808594 73.058594 173.851562 C 72.765625 175.824219 72.714844 177.8125 72.800781 179.804688 C 72.824219 179.988281 72.851562 180.175781 72.875 180.359375 C 73.023438 181.460938 73.171875 182.5625 73.320312 183.664062 C 73.355469 183.695312 73.371094 183.730469 73.375 183.769531 C 73.375 183.796875 73.371094 183.824219 73.363281 183.851562 C 73.414062 183.90625 73.425781 183.964844 73.398438 184.035156 C 73.457031 184.085938 73.46875 184.148438 73.4375 184.21875 C 73.496094 184.269531 73.507812 184.332031 73.476562 184.402344 C 73.535156 184.453125 73.550781 184.515625 73.519531 184.585938 C 73.582031 184.636719 73.59375 184.695312 73.5625 184.765625 L 73.566406 184.769531 C 73.625 184.816406 73.640625 184.878906 73.609375 184.945312 L 73.609375 184.949219 C 73.628906 185.007812 73.644531 185.066406 73.65625 185.128906 L 73.65625 185.132812 C 73.71875 185.183594 73.734375 185.238281 73.703125 185.3125 L 73.707031 185.316406 C 73.765625 185.363281 73.78125 185.421875 73.75 185.496094 L 73.753906 185.5 C 73.753906 185.5 73.753906 185.503906 73.753906 185.503906 C 73.753906 185.503906 73.753906 185.5 73.753906 185.5 C 73.816406 185.546875 73.832031 185.605469 73.800781 185.679688 L 73.800781 185.683594 C 73.863281 185.730469 73.878906 185.789062 73.851562 185.859375 L 73.851562 185.863281 C 73.914062 185.910156 73.929688 185.972656 73.902344 186.042969 C 74.09375 186.589844 74.28125 187.132812 74.472656 187.679688 C 74.484375 187.992188 74.636719 188.265625 74.75 188.546875 C 74.789062 188.550781 74.820312 188.546875 74.851562 188.535156 C 74.898438 188.519531 74.933594 188.492188 74.96875 188.449219 C 75.074219 188.652344 75.199219 188.851562 75.207031 189.089844 C 75.203125 189.164062 75.210938 189.234375 75.246094 189.300781 C 75.234375 189.230469 75.21875 189.160156 75.207031 189.089844 C 75.257812 189.148438 75.296875 189.207031 75.253906 189.28125 C 75.355469 189.339844 75.394531 189.433594 75.398438 189.542969 C 75.464844 189.582031 75.496094 189.632812 75.472656 189.707031 C 75.527344 189.761719 75.566406 189.820312 75.546875 189.902344 C 75.578125 189.925781 75.597656 189.953125 75.597656 189.992188 C 75.738281 190.171875 75.835938 190.371094 75.886719 190.59375 C 75.976562 190.726562 76.074219 190.859375 76.089844 191.027344 C 76.179688 191.089844 76.203125 191.1875 76.234375 191.285156 C 76.601562 191.804688 76.871094 192.390625 77.359375 192.863281 C 77.132812 192.945312 77.078125 193.195312 76.839844 193.148438 Z M 85.359375 153.71875 C 85.355469 153.71875 85.355469 153.71875 85.355469 153.722656 C 85.355469 153.71875 85.355469 153.71875 85.355469 153.71875 C 85.355469 153.71875 85.355469 153.722656 85.355469 153.722656 C 85.359375 153.722656 85.359375 153.722656 85.359375 153.726562 C 85.359375 153.722656 85.359375 153.71875 85.359375 153.71875 Z M 73.4375 185.738281 C 73.429688 185.726562 73.421875 185.710938 73.417969 185.699219 C 73.417969 185.703125 73.417969 185.707031 73.417969 185.710938 C 73.421875 185.722656 73.425781 185.734375 73.429688 185.746094 C 73.429688 185.746094 73.433594 185.742188 73.4375 185.738281 Z M 73.316406 183.671875 C 73.316406 183.671875 73.316406 183.675781 73.3125 183.671875 C 73.308594 183.675781 73.304688 183.675781 73.296875 183.675781 L 73.28125 183.683594 L 73.316406 183.675781 C 73.316406 183.675781 73.316406 183.675781 73.316406 183.671875 Z M 73.390625 185.789062 C 73.402344 185.777344 73.417969 185.761719 73.425781 185.75 C 73.421875 185.738281 73.421875 185.726562 73.417969 185.714844 C 73.421875 185.738281 73.414062 185.765625 73.390625 185.789062 Z M 73.394531 185.632812 C 73.390625 185.617188 73.382812 185.601562 73.378906 185.589844 C 73.378906 185.589844 73.378906 185.585938 73.378906 185.585938 C 73.382812 185.601562 73.390625 185.617188 73.394531 185.632812 Z M 75.863281 192.433594 C 75.863281 192.4375 75.863281 192.4375 75.863281 192.441406 C 75.863281 192.445312 75.867188 192.445312 75.867188 192.445312 C 75.867188 192.441406 75.863281 192.441406 75.863281 192.433594 Z M 75.699219 192.203125 C 75.695312 192.203125 75.695312 192.199219 75.691406 192.195312 C 75.695312 192.199219 75.699219 192.203125 75.699219 192.203125 Z M 75.21875 189.410156 C 75.210938 189.421875 75.199219 189.429688 75.183594 189.4375 C 75.191406 189.441406 75.199219 189.449219 75.207031 189.453125 C 75.210938 189.4375 75.214844 189.425781 75.21875 189.410156 Z M 75.480469 189.839844 C 75.484375 189.863281 75.5 189.882812 75.523438 189.902344 C 75.523438 189.902344 75.523438 189.902344 75.523438 189.898438 C 75.503906 189.878906 75.488281 189.863281 75.480469 189.839844 Z M 75.480469 189.839844 " fill-opacity="1" fill-rule="nonzero"/></g></g></g></g><g clip-path="url(#4e5f0c5557)"><g clip-path="url(#6b89b6b1ed)"><g clip-path="url(#7503d4ca15)"><g clip-path="url(#b5e168fa22)"><path fill="#ffffff" d="M 73.65625 185.140625 C 73.640625 185.078125 73.625 185.019531 73.609375 184.960938 C 73.671875 185.011719 73.683594 185.070312 73.65625 185.140625 Z M 73.65625 185.140625 " fill-opacity="1" fill-rule="nonzero"/></g></g></g></g><path stroke-linecap="butt" transform="matrix(0.74987, 0.00605191, -0.00605275, 0.749976, 136.490312, 77.868328)" fill="none" stroke-linejoin="miter" d="M -0.00220402 1.998562 L 223.03636 2.000901 " stroke="#000000" stroke-width="4" stroke-opacity="1" stroke-miterlimit="4"/><path stroke-linecap="butt" transform="matrix(0.750617, -0.00364086, 0.00363783, 0.749991, 135.126205, 291.168432)" fill="none" stroke-linejoin="miter" d="M -0.000887235 1.999401 L 224.814281 2.002221 " stroke="#000000" stroke-width="4" stroke-opacity="1" stroke-miterlimit="4"/><g clip-path="url(#21985faa17)"><path fill="#38b6ff" d="M 266.714844 306.992188 L 275.207031 297.5 C 275.390625 297.296875 275.644531 297.183594 275.910156 297.183594 L 281.574219 297.183594 C 281.945312 297.183594 282.28125 297.402344 282.4375 297.746094 C 282.585938 298.089844 282.523438 298.488281 282.273438 298.765625 L 274.351562 307.628906 L 282.273438 316.484375 C 282.523438 316.765625 282.589844 317.164062 282.4375 317.507812 C 282.28125 317.851562 281.945312 318.070312 281.574219 318.070312 L 275.910156 318.070312 C 275.644531 318.070312 275.390625 317.953125 275.207031 317.757812 L 266.714844 308.261719 C 266.394531 307.902344 266.394531 307.351562 266.714844 306.992188 Z M 266.714844 306.992188 " fill-opacity="1" fill-rule="nonzero"/></g><g clip-path="url(#85338693f5)"><path fill="#38b6ff" d="M 278.984375 306.992188 L 287.476562 297.5 C 287.660156 297.296875 287.910156 297.183594 288.179688 297.183594 L 293.839844 297.183594 C 294.214844 297.183594 294.550781 297.402344 294.703125 297.746094 C 294.855469 298.089844 294.792969 298.488281 294.542969 298.765625 L 286.617188 307.628906 L 294.542969 316.484375 C 294.792969 316.765625 294.855469 317.164062 294.703125 317.507812 C 294.550781 317.851562 294.214844 318.070312 293.839844 318.070312 L 288.179688 318.070312 C 287.910156 318.070312 287.660156 317.953125 287.476562 317.757812 L 278.984375 308.261719 C 278.660156 307.902344 278.660156 307.351562 278.984375 306.992188 Z M 278.984375 306.992188 " fill-opacity="1" fill-rule="nonzero"/></g><g clip-path="url(#18fed6a568)"><path fill="#38b6ff" d="M 229.589844 306.992188 L 238.082031 297.5 C 238.265625 297.296875 238.519531 297.183594 238.785156 297.183594 L 244.449219 297.183594 C 244.820312 297.183594 245.15625 297.402344 245.3125 297.746094 C 245.460938 298.089844 245.398438 298.488281 245.148438 298.765625 L 237.226562 307.628906 L 245.148438 316.484375 C 245.398438 316.765625 245.464844 317.164062 245.3125 317.507812 C 245.15625 317.851562 244.820312 318.070312 244.449219 318.070312 L 238.785156 318.070312 C 238.519531 318.070312 238.265625 317.953125 238.082031 317.757812 L 229.589844 308.261719 C 229.269531 307.902344 229.269531 307.351562 229.589844 306.992188 Z M 229.589844 306.992188 " fill-opacity="1" fill-rule="nonzero"/></g><g clip-path="url(#2673538bf1)"><path fill="#38b6ff" d="M 241.859375 306.992188 L 250.351562 297.5 C 250.535156 297.296875 250.785156 297.183594 251.054688 297.183594 L 256.714844 297.183594 C 257.089844 297.183594 257.425781 297.402344 257.578125 297.746094 C 257.730469 298.089844 257.667969 298.488281 257.417969 298.765625 L 249.492188 307.628906 L 257.417969 316.484375 C 257.667969 316.765625 257.730469 317.164062 257.578125 317.507812 C 257.425781 317.851562 257.089844 318.070312 256.714844 318.070312 L 251.054688 318.070312 C 250.785156 318.070312 250.535156 317.953125 250.351562 317.757812 L 241.859375 308.261719 C 241.535156 307.902344 241.535156 307.351562 241.859375 306.992188 Z M 241.859375 306.992188 " fill-opacity="1" fill-rule="nonzero"/></g><g clip-path="url(#3be3600c5e)"><path fill="#5ce1e6" d="M 192.464844 306.992188 L 200.957031 297.5 C 201.140625 297.296875 201.394531 297.183594 201.660156 297.183594 L 207.324219 297.183594 C 207.695312 297.183594 208.03125 297.402344 208.1875 297.746094 C 208.335938 298.089844 208.273438 298.488281 208.023438 298.765625 L 200.101562 307.628906 L 208.023438 316.484375 C 208.273438 316.765625 208.339844 317.164062 208.1875 317.507812 C 208.03125 317.851562 207.695312 318.070312 207.324219 318.070312 L 201.660156 318.070312 C 201.394531 318.070312 201.140625 317.953125 200.957031 317.757812 L 192.464844 308.261719 C 192.144531 307.902344 192.144531 307.351562 192.464844 306.992188 Z M 192.464844 306.992188 " fill-opacity="1" fill-rule="nonzero"/></g><g clip-path="url(#6a781de98c)"><path fill="#5ce1e6" d="M 204.734375 306.992188 L 213.226562 297.5 C 213.410156 297.296875 213.660156 297.183594 213.929688 297.183594 L 219.589844 297.183594 C 219.964844 297.183594 220.300781 297.402344 220.453125 297.746094 C 220.605469 298.089844 220.542969 298.488281 220.292969 298.765625 L 212.367188 307.628906 L 220.292969 316.484375 C 220.542969 316.765625 220.605469 317.164062 220.453125 317.507812 C 220.300781 317.851562 219.964844 318.070312 219.589844 318.070312 L 213.929688 318.070312 C 213.660156 318.070312 213.410156 317.953125 213.226562 317.757812 L 204.734375 308.261719 C 204.410156 307.902344 204.410156 307.351562 204.734375 306.992188 Z M 204.734375 306.992188 " fill-opacity="1" fill-rule="nonzero"/></g><g clip-path="url(#1432239e31)"><path fill="#38b6ff" d="M 155.339844 306.992188 L 163.832031 297.5 C 164.015625 297.296875 164.269531 297.183594 164.535156 297.183594 L 170.199219 297.183594 C 170.570312 297.183594 170.90625 297.402344 171.0625 297.746094 C 171.210938 298.089844 171.148438 298.488281 170.898438 298.765625 L 162.976562 307.628906 L 170.898438 316.484375 C 171.148438 316.765625 171.214844 317.164062 171.0625 317.507812 C 170.90625 317.851562 170.570312 318.070312 170.199219 318.070312 L 164.535156 318.070312 C 164.269531 318.070312 164.015625 317.953125 163.832031 317.757812 L 155.339844 308.261719 C 155.019531 307.902344 155.019531 307.351562 155.339844 306.992188 Z M 155.339844 306.992188 " fill-opacity="1" fill-rule="nonzero"/></g><g clip-path="url(#e96033a72e)"><path fill="#38b6ff" d="M 167.609375 306.992188 L 176.101562 297.5 C 176.285156 297.296875 176.535156 297.183594 176.804688 297.183594 L 182.464844 297.183594 C 182.839844 297.183594 183.175781 297.402344 183.328125 297.746094 C 183.480469 298.089844 183.417969 298.488281 183.167969 298.765625 L 175.242188 307.628906 L 183.167969 316.484375 C 183.417969 316.765625 183.480469 317.164062 183.328125 317.507812 C 183.175781 317.851562 182.839844 318.070312 182.464844 318.070312 L 176.804688 318.070312 C 176.535156 318.070312 176.285156 317.953125 176.101562 317.757812 L 167.609375 308.261719 C 167.285156 307.902344 167.285156 307.351562 167.609375 306.992188 Z M 167.609375 306.992188 " fill-opacity="1" fill-rule="nonzero"/></g><g clip-path="url(#632e04ef9e)"><g clip-path="url(#b0329f7e11)"><g clip-path="url(#8d889e637e)"><path fill="#38b6ff" d="M 118.210938 307.242188 L 126.535156 297.597656 C 126.710938 297.394531 126.960938 297.273438 127.230469 297.269531 L 132.890625 297.171875 C 133.261719 297.164062 133.605469 297.378906 133.765625 297.714844 C 133.921875 298.058594 133.867188 298.460938 133.621094 298.742188 L 125.855469 307.738281 L 133.933594 316.457031 C 134.1875 316.730469 134.261719 317.128906 134.113281 317.476562 C 133.964844 317.820312 133.632812 318.046875 133.261719 318.054688 L 127.597656 318.152344 C 127.332031 318.160156 127.078125 318.046875 126.890625 317.851562 L 118.230469 308.511719 C 117.902344 308.15625 117.894531 307.605469 118.210938 307.242188 Z M 118.210938 307.242188 " fill-opacity="1" fill-rule="nonzero"/></g></g></g><g clip-path="url(#f6762b24e8)"><g clip-path="url(#3ad357511d)"><g clip-path="url(#f7b3f63eac)"><path fill="#38b6ff" d="M 130.476562 307.023438 L 138.800781 297.382812 C 138.976562 297.175781 139.230469 297.058594 139.496094 297.054688 L 145.15625 296.953125 C 145.53125 296.945312 145.871094 297.160156 146.03125 297.5 C 146.1875 297.839844 146.132812 298.242188 145.886719 298.523438 L 138.121094 307.523438 L 146.203125 316.238281 C 146.457031 316.515625 146.527344 316.914062 146.378906 317.257812 C 146.234375 317.605469 145.898438 317.832031 145.527344 317.835938 L 139.867188 317.9375 C 139.597656 317.941406 139.34375 317.832031 139.160156 317.636719 L 130.5 308.292969 C 130.167969 307.9375 130.160156 307.386719 130.476562 307.023438 Z M 130.476562 307.023438 " fill-opacity="1" fill-rule="nonzero"/></g></g></g><g clip-path="url(#23fabc0b14)"><g clip-path="url(#d4c52e3ea4)"><g clip-path="url(#57e4b8d0b3)"><path fill="#38b6ff" d="M 75.855469 286.085938 L 88.128906 282.679688 C 88.390625 282.609375 88.664062 282.648438 88.890625 282.796875 L 93.65625 285.851562 C 93.96875 286.050781 94.132812 286.421875 94.078125 286.789062 C 94.019531 287.160156 93.75 287.464844 93.390625 287.5625 L 81.9375 290.742188 L 83.828125 302.476562 C 83.886719 302.847656 83.722656 303.21875 83.410156 303.425781 C 83.097656 303.632812 82.691406 303.632812 82.378906 303.433594 L 77.613281 300.375 C 77.386719 300.230469 77.238281 299.996094 77.191406 299.734375 L 75.167969 287.15625 C 75.089844 286.679688 75.386719 286.214844 75.855469 286.085938 Z M 75.855469 286.085938 " fill-opacity="1" fill-rule="nonzero"/></g></g></g><g clip-path="url(#b7ecf9baae)"><g clip-path="url(#48bfa6f1ab)"><g clip-path="url(#195c196fb0)"><path fill="#38b6ff" d="M 86.179688 292.710938 L 98.457031 289.304688 C 98.714844 289.234375 98.992188 289.273438 99.214844 289.417969 L 103.984375 292.476562 C 104.296875 292.675781 104.460938 293.042969 104.40625 293.414062 C 104.347656 293.785156 104.078125 294.089844 103.71875 294.1875 L 92.265625 297.367188 L 94.152344 309.101562 C 94.210938 309.46875 94.050781 309.84375 93.738281 310.046875 C 93.421875 310.253906 93.019531 310.257812 92.707031 310.058594 L 87.941406 307 C 87.714844 306.855469 87.5625 306.621094 87.519531 306.355469 L 85.496094 293.78125 C 85.417969 293.300781 85.714844 292.839844 86.179688 292.710938 Z M 86.179688 292.710938 " fill-opacity="1" fill-rule="nonzero"/></g></g></g><g clip-path="url(#95e2d65af1)"><g clip-path="url(#a263a8868f)"><g clip-path="url(#f22acc7dce)"><path fill="#5ce1e6" d="M 41.28125 262.910156 L 53.984375 261.964844 C 54.253906 261.945312 54.515625 262.039062 54.707031 262.222656 L 58.785156 266.152344 C 59.054688 266.410156 59.144531 266.800781 59.015625 267.15625 C 58.886719 267.507812 58.566406 267.753906 58.191406 267.777344 L 46.339844 268.664062 L 45.902344 280.539062 C 45.886719 280.914062 45.65625 281.246094 45.308594 281.386719 C 44.960938 281.53125 44.566406 281.453125 44.296875 281.195312 L 40.21875 277.269531 C 40.027344 277.082031 39.921875 276.824219 39.929688 276.554688 L 40.398438 263.824219 C 40.417969 263.339844 40.796875 262.945312 41.28125 262.910156 Z M 41.28125 262.910156 " fill-opacity="1" fill-rule="nonzero"/></g></g></g><g clip-path="url(#d785194bf6)"><g clip-path="url(#a5b09ee6b3)"><g clip-path="url(#d89bf97729)"><path fill="#5ce1e6" d="M 50.117188 271.421875 L 62.820312 270.472656 C 63.089844 270.453125 63.351562 270.546875 63.542969 270.734375 L 67.621094 274.660156 C 67.890625 274.917969 67.980469 275.3125 67.855469 275.664062 C 67.722656 276.015625 67.402344 276.261719 67.03125 276.289062 L 55.175781 277.171875 L 54.738281 289.050781 C 54.726562 289.425781 54.492188 289.757812 54.144531 289.898438 C 53.796875 290.039062 53.402344 289.964844 53.132812 289.707031 L 49.054688 285.777344 C 48.863281 285.59375 48.761719 285.332031 48.765625 285.066406 L 49.234375 272.335938 C 49.253906 271.851562 49.636719 271.453125 50.117188 271.421875 Z M 50.117188 271.421875 " fill-opacity="1" fill-rule="nonzero"/></g></g></g><g clip-path="url(#2d5fc45967)"><g clip-path="url(#d008e92c45)"><g clip-path="url(#c8d4f36ed7)"><path fill="#38b6ff" d="M 22.734375 226.0625 L 35.210938 228.632812 C 35.476562 228.6875 35.699219 228.851562 35.835938 229.082031 L 38.679688 233.976562 C 38.867188 234.296875 38.847656 234.703125 38.628906 235.003906 C 38.40625 235.308594 38.03125 235.457031 37.664062 235.378906 L 26.023438 232.980469 L 22.347656 244.285156 C 22.230469 244.640625 21.917969 244.898438 21.542969 244.9375 C 21.171875 244.976562 20.808594 244.796875 20.625 244.472656 L 17.777344 239.578125 C 17.644531 239.347656 17.617188 239.070312 17.695312 238.8125 L 21.636719 226.699219 C 21.785156 226.238281 22.261719 225.960938 22.734375 226.0625 Z M 22.734375 226.0625 " fill-opacity="1" fill-rule="nonzero"/></g></g></g><g clip-path="url(#aaa9ad83c5)"><g clip-path="url(#16e5431f0c)"><g clip-path="url(#84ca1e0fd6)"><path fill="#38b6ff" d="M 28.898438 236.667969 L 41.375 239.238281 C 41.640625 239.296875 41.867188 239.457031 42 239.6875 L 44.847656 244.582031 C 45.035156 244.90625 45.011719 245.308594 44.792969 245.613281 C 44.574219 245.914062 44.195312 246.0625 43.832031 245.984375 L 32.1875 243.585938 L 28.511719 254.890625 C 28.394531 255.246094 28.082031 255.503906 27.710938 255.542969 C 27.335938 255.582031 26.976562 255.402344 26.789062 255.082031 L 23.941406 250.183594 C 23.808594 249.953125 23.78125 249.675781 23.859375 249.421875 L 27.800781 237.304688 C 27.949219 236.847656 28.425781 236.570312 28.898438 236.667969 Z M 28.898438 236.667969 " fill-opacity="1" fill-rule="nonzero"/></g></g></g><g clip-path="url(#55a808676c)"><path fill="#38b6ff" d="M 20.015625 172.027344 L 29.507812 180.519531 C 29.710938 180.699219 29.824219 180.953125 29.824219 181.222656 L 29.824219 186.882812 C 29.824219 187.257812 29.605469 187.59375 29.261719 187.746094 C 28.917969 187.898438 28.515625 187.835938 28.242188 187.585938 L 19.378906 179.660156 L 10.523438 187.585938 C 10.242188 187.835938 9.84375 187.898438 9.5 187.746094 C 9.15625 187.59375 8.9375 187.257812 8.9375 186.882812 L 8.9375 181.222656 C 8.9375 180.953125 9.050781 180.699219 9.25 180.519531 L 18.746094 172.027344 C 19.105469 171.703125 19.65625 171.703125 20.015625 172.027344 Z M 20.015625 172.027344 " fill-opacity="1" fill-rule="nonzero"/></g><g clip-path="url(#ca9e9bd855)"><path fill="#38b6ff" d="M 20.015625 184.292969 L 29.507812 192.789062 C 29.710938 192.96875 29.824219 193.222656 29.824219 193.488281 L 29.824219 199.152344 C 29.824219 199.523438 29.605469 199.863281 29.261719 200.015625 C 28.917969 200.164062 28.515625 200.105469 28.242188 199.855469 L 19.378906 191.929688 L 10.523438 199.855469 C 10.242188 200.105469 9.84375 200.167969 9.5 200.015625 C 9.15625 199.863281 8.9375 199.523438 8.9375 199.152344 L 8.9375 193.488281 C 8.9375 193.222656 9.050781 192.96875 9.25 192.789062 L 18.746094 184.292969 C 19.105469 183.972656 19.65625 183.972656 20.015625 184.292969 Z M 20.015625 184.292969 " fill-opacity="1" fill-rule="nonzero"/></g><g clip-path="url(#02ce593d57)"><g clip-path="url(#230ad33e98)"><g clip-path="url(#1eaa5434eb)"><path fill="#38b6ff" d="M 38.21875 122.101562 L 41.183594 134.492188 C 41.246094 134.753906 41.195312 135.027344 41.042969 135.246094 L 37.816406 139.902344 C 37.605469 140.207031 37.230469 140.359375 36.863281 140.289062 C 36.496094 140.21875 36.203125 139.941406 36.117188 139.578125 L 33.347656 128.015625 L 21.554688 129.484375 C 21.183594 129.53125 20.816406 129.355469 20.621094 129.035156 C 20.425781 128.714844 20.4375 128.308594 20.648438 128.003906 L 23.875 123.351562 C 24.027344 123.128906 24.269531 122.988281 24.53125 122.953125 L 37.175781 121.378906 C 37.65625 121.320312 38.105469 121.632812 38.21875 122.101562 Z M 38.21875 122.101562 " fill-opacity="1" fill-rule="nonzero"/></g></g></g><g clip-path="url(#90e794724c)"><g clip-path="url(#ba8d826c5f)"><g clip-path="url(#dab26270a1)"><path fill="#38b6ff" d="M 31.230469 132.1875 L 34.195312 144.574219 C 34.257812 144.839844 34.207031 145.109375 34.054688 145.332031 L 30.828125 149.984375 C 30.617188 150.289062 30.246094 150.441406 29.875 150.375 C 29.507812 150.300781 29.214844 150.023438 29.128906 149.660156 L 26.359375 138.101562 L 14.566406 139.566406 C 14.195312 139.613281 13.828125 139.4375 13.632812 139.117188 C 13.4375 138.796875 13.449219 138.394531 13.664062 138.085938 L 16.886719 133.433594 C 17.039062 133.214844 17.28125 133.070312 17.546875 133.035156 L 30.1875 131.460938 C 30.667969 131.402344 31.121094 131.714844 31.230469 132.1875 Z M 31.230469 132.1875 " fill-opacity="1" fill-rule="nonzero"/></g></g></g><g clip-path="url(#f6960c690d)"><g clip-path="url(#fd9ce06257)"><g clip-path="url(#3e8b37e171)"><path fill="#5ce1e6" d="M 65.816406 90.09375 L 65.914062 102.832031 C 65.917969 103.101562 65.804688 103.355469 65.609375 103.535156 L 61.417969 107.34375 C 61.140625 107.59375 60.742188 107.660156 60.402344 107.507812 C 60.058594 107.355469 59.835938 107.015625 59.832031 106.644531 L 59.742188 94.757812 L 47.917969 93.53125 C 47.546875 93.492188 47.230469 93.238281 47.113281 92.882812 C 46.996094 92.523438 47.097656 92.136719 47.371094 91.882812 L 51.5625 88.078125 C 51.761719 87.898438 52.027344 87.8125 52.292969 87.835938 L 64.964844 89.152344 C 65.445312 89.203125 65.816406 89.609375 65.816406 90.09375 Z M 65.816406 90.09375 " fill-opacity="1" fill-rule="nonzero"/></g></g></g><g clip-path="url(#d4646fc267)"><g clip-path="url(#8a9c197c05)"><g clip-path="url(#5eb111c2aa)"><path fill="#5ce1e6" d="M 56.738281 98.34375 L 56.835938 111.082031 C 56.835938 111.351562 56.726562 111.605469 56.527344 111.785156 L 52.335938 115.59375 C 52.0625 115.84375 51.664062 115.90625 51.320312 115.757812 C 50.976562 115.605469 50.753906 115.265625 50.753906 114.894531 L 50.660156 103.007812 L 38.839844 101.78125 C 38.464844 101.742188 38.148438 101.488281 38.03125 101.132812 C 37.914062 100.773438 38.015625 100.382812 38.292969 100.132812 L 42.480469 96.328125 C 42.679688 96.148438 42.945312 96.0625 43.210938 96.085938 L 55.882812 97.402344 C 56.363281 97.453125 56.734375 97.859375 56.738281 98.34375 Z M 56.738281 98.34375 " fill-opacity="1" fill-rule="nonzero"/></g></g></g><g clip-path="url(#23b8f0314a)"><g clip-path="url(#351cc22a27)"><g clip-path="url(#e246798491)"><path fill="#38b6ff" d="M 100.488281 72.246094 L 97.054688 84.511719 C 96.980469 84.773438 96.800781 84.988281 96.5625 85.105469 L 91.480469 87.601562 C 91.148438 87.765625 90.746094 87.71875 90.457031 87.480469 C 90.171875 87.238281 90.050781 86.851562 90.152344 86.492188 L 93.355469 75.042969 L 82.335938 70.589844 C 81.988281 70.449219 81.753906 70.117188 81.742188 69.746094 C 81.726562 69.367188 81.933594 69.023438 82.265625 68.859375 L 87.347656 66.359375 C 87.589844 66.242188 87.867188 66.234375 88.117188 66.332031 L 99.925781 71.105469 C 100.375 71.285156 100.617188 71.78125 100.488281 72.246094 Z M 100.488281 72.246094 " fill-opacity="1" fill-rule="nonzero"/></g></g></g><g clip-path="url(#8ed7f32fa5)"><g clip-path="url(#57d4fc55b2)"><g clip-path="url(#25a12b404a)"><path fill="#38b6ff" d="M 89.476562 77.65625 L 86.042969 89.925781 C 85.96875 90.183594 85.792969 90.398438 85.550781 90.515625 L 80.472656 93.015625 C 80.136719 93.179688 79.738281 93.128906 79.449219 92.890625 C 79.160156 92.648438 79.039062 92.261719 79.140625 91.902344 L 82.347656 80.457031 L 71.324219 76.003906 C 70.980469 75.863281 70.746094 75.53125 70.730469 75.15625 C 70.71875 74.78125 70.921875 74.433594 71.257812 74.269531 L 76.339844 71.773438 C 76.578125 71.652344 76.855469 71.648438 77.105469 71.742188 L 88.917969 76.515625 C 89.367188 76.699219 89.609375 77.191406 89.476562 77.65625 Z M 89.476562 77.65625 " fill-opacity="1" fill-rule="nonzero"/></g></g></g><g clip-path="url(#3a15eb0f07)"><path fill="#38b6ff" d="M 146.195312 68.148438 L 137.703125 77.640625 C 137.519531 77.84375 137.265625 77.957031 137 77.957031 L 131.335938 77.957031 C 130.964844 77.957031 130.628906 77.738281 130.472656 77.394531 C 130.324219 77.050781 130.386719 76.652344 130.636719 76.375 L 138.558594 67.515625 L 130.636719 58.65625 C 130.386719 58.375 130.320312 57.976562 130.472656 57.632812 C 130.628906 57.289062 130.964844 57.070312 131.335938 57.070312 L 137 57.070312 C 137.265625 57.070312 137.519531 57.1875 137.703125 57.382812 L 146.195312 66.878906 C 146.515625 67.238281 146.515625 67.789062 146.195312 68.148438 Z M 146.195312 68.148438 " fill-opacity="1" fill-rule="nonzero"/></g><g clip-path="url(#ab543fe027)"><path fill="#38b6ff" d="M 133.925781 68.148438 L 125.433594 77.640625 C 125.25 77.84375 125 77.957031 124.730469 77.957031 L 119.070312 77.957031 C 118.695312 77.957031 118.359375 77.738281 118.207031 77.394531 C 118.054688 77.050781 118.117188 76.652344 118.367188 76.375 L 126.292969 67.515625 L 118.367188 58.65625 C 118.117188 58.375 118.054688 57.976562 118.207031 57.632812 C 118.359375 57.289062 118.695312 57.070312 119.070312 57.070312 L 124.730469 57.070312 C 125 57.070312 125.25 57.1875 125.433594 57.382812 L 133.925781 66.878906 C 134.25 67.238281 134.25 67.789062 133.925781 68.148438 Z M 133.925781 68.148438 " fill-opacity="1" fill-rule="nonzero"/></g><g clip-path="url(#9c84dbd769)"><g clip-path="url(#28ad79aaf1)"><g clip-path="url(#d5dfe96bb5)"><path fill="#38b6ff" d="M 182.71875 68.148438 L 173.941406 77.382812 C 173.753906 77.578125 173.5 77.6875 173.230469 77.675781 L 167.570312 77.507812 C 167.199219 77.496094 166.871094 77.265625 166.726562 76.917969 C 166.585938 76.570312 166.660156 76.171875 166.917969 75.902344 L 175.105469 67.285156 L 167.453125 58.191406 C 167.210938 57.90625 167.160156 57.503906 167.320312 57.167969 C 167.484375 56.828125 167.828125 56.617188 168.199219 56.628906 L 173.859375 56.800781 C 174.128906 56.808594 174.378906 56.929688 174.554688 57.132812 L 182.757812 66.878906 C 183.066406 67.25 183.050781 67.800781 182.71875 68.148438 Z M 182.71875 68.148438 " fill-opacity="1" fill-rule="nonzero"/></g></g></g><g clip-path="url(#4f3c758ea6)"><g clip-path="url(#6ea6b79ef7)"><g clip-path="url(#ca0a4cd178)"><path fill="#38b6ff" d="M 170.457031 67.78125 L 161.679688 77.015625 C 161.492188 77.210938 161.238281 77.316406 160.96875 77.308594 L 155.308594 77.136719 C 154.9375 77.125 154.605469 76.894531 154.464844 76.550781 C 154.324219 76.203125 154.398438 75.804688 154.65625 75.535156 L 162.84375 66.917969 L 155.1875 57.824219 C 154.949219 57.539062 154.894531 57.136719 155.058594 56.796875 C 155.222656 56.457031 155.566406 56.25 155.9375 56.261719 L 161.597656 56.429688 C 161.867188 56.4375 162.113281 56.5625 162.289062 56.765625 L 170.492188 66.511719 C 170.804688 66.878906 170.789062 67.429688 170.457031 67.78125 Z M 170.457031 67.78125 " fill-opacity="1" fill-rule="nonzero"/></g></g></g><g clip-path="url(#5568423ce4)"><g clip-path="url(#4dc2f30b7c)"><g clip-path="url(#fdd6fac032)"><path fill="#38b6ff" d="M 294.371094 68.148438 L 285.59375 77.382812 C 285.40625 77.578125 285.152344 77.6875 284.882812 77.675781 L 279.222656 77.507812 C 278.851562 77.496094 278.523438 77.265625 278.378906 76.917969 C 278.238281 76.570312 278.3125 76.171875 278.570312 75.902344 L 286.757812 67.285156 L 279.105469 58.191406 C 278.863281 57.90625 278.8125 57.503906 278.972656 57.167969 C 279.136719 56.828125 279.480469 56.617188 279.851562 56.628906 L 285.511719 56.800781 C 285.78125 56.808594 286.03125 56.929688 286.207031 57.132812 L 294.410156 66.878906 C 294.71875 67.25 294.703125 67.800781 294.371094 68.148438 Z M 294.371094 68.148438 " fill-opacity="1" fill-rule="nonzero"/></g></g></g><g clip-path="url(#a70c79b0e5)"><g clip-path="url(#90b05788be)"><g clip-path="url(#bd8fef3884)"><path fill="#38b6ff" d="M 282.109375 67.78125 L 273.332031 77.015625 C 273.144531 77.210938 272.890625 77.316406 272.621094 77.308594 L 266.960938 77.136719 C 266.589844 77.125 266.257812 76.894531 266.117188 76.550781 C 265.976562 76.203125 266.050781 75.804688 266.308594 75.535156 L 274.496094 66.917969 L 266.839844 57.824219 C 266.601562 57.539062 266.546875 57.136719 266.710938 56.796875 C 266.875 56.457031 267.21875 56.25 267.589844 56.261719 L 273.25 56.429688 C 273.519531 56.4375 273.765625 56.5625 273.941406 56.765625 L 282.144531 66.511719 C 282.457031 66.878906 282.441406 67.429688 282.109375 67.78125 Z M 282.109375 67.78125 " fill-opacity="1" fill-rule="nonzero"/></g></g></g><g clip-path="url(#74cd2ac780)"><g clip-path="url(#506a0b1703)"><g clip-path="url(#3ec022cf7b)"><path fill="#38b6ff" d="M 257.246094 68.148438 L 248.46875 77.382812 C 248.28125 77.578125 248.027344 77.6875 247.757812 77.675781 L 242.097656 77.507812 C 241.726562 77.496094 241.398438 77.265625 241.253906 76.917969 C 241.113281 76.570312 241.1875 76.171875 241.445312 75.902344 L 249.632812 67.285156 L 241.980469 58.191406 C 241.738281 57.90625 241.6875 57.503906 241.847656 57.167969 C 242.011719 56.828125 242.355469 56.617188 242.726562 56.628906 L 248.386719 56.800781 C 248.65625 56.808594 248.90625 56.929688 249.082031 57.132812 L 257.285156 66.878906 C 257.59375 67.25 257.578125 67.800781 257.246094 68.148438 Z M 257.246094 68.148438 " fill-opacity="1" fill-rule="nonzero"/></g></g></g><g clip-path="url(#b8adc6e5fb)"><g clip-path="url(#22a3e21bb5)"><g clip-path="url(#60dc893b7d)"><path fill="#38b6ff" d="M 244.984375 67.78125 L 236.207031 77.015625 C 236.019531 77.210938 235.765625 77.316406 235.496094 77.308594 L 229.835938 77.136719 C 229.464844 77.125 229.132812 76.894531 228.992188 76.550781 C 228.851562 76.203125 228.925781 75.804688 229.183594 75.535156 L 237.371094 66.917969 L 229.714844 57.824219 C 229.476562 57.539062 229.421875 57.136719 229.585938 56.796875 C 229.75 56.457031 230.09375 56.25 230.464844 56.261719 L 236.125 56.429688 C 236.394531 56.4375 236.640625 56.5625 236.816406 56.765625 L 245.019531 66.511719 C 245.332031 66.878906 245.316406 67.429688 244.984375 67.78125 Z M 244.984375 67.78125 " fill-opacity="1" fill-rule="nonzero"/></g></g></g><g clip-path="url(#92ee0bf348)"><g clip-path="url(#de503eac86)"><g clip-path="url(#254f9a7f1c)"><path fill="#5ce1e6" d="M 220.730469 68.148438 L 211.953125 77.382812 C 211.765625 77.578125 211.511719 77.6875 211.242188 77.675781 L 205.582031 77.507812 C 205.210938 77.496094 204.878906 77.265625 204.738281 76.917969 C 204.597656 76.570312 204.671875 76.171875 204.929688 75.902344 L 213.117188 67.285156 L 205.460938 58.191406 C 205.222656 57.90625 205.167969 57.503906 205.332031 57.167969 C 205.496094 56.828125 205.839844 56.617188 206.210938 56.628906 L 211.871094 56.800781 C 212.140625 56.808594 212.386719 56.929688 212.5625 57.132812 L 220.765625 66.878906 C 221.078125 67.25 221.0625 67.800781 220.730469 68.148438 Z M 220.730469 68.148438 " fill-opacity="1" fill-rule="nonzero"/></g></g></g><g clip-path="url(#40540afb81)"><g clip-path="url(#5b1d018cfe)"><g clip-path="url(#e68d953173)"><path fill="#5ce1e6" d="M 208.464844 67.78125 L 199.691406 77.015625 C 199.503906 77.210938 199.246094 77.316406 198.980469 77.308594 L 193.320312 77.136719 C 192.949219 77.125 192.617188 76.894531 192.476562 76.550781 C 192.335938 76.203125 192.410156 75.804688 192.664062 75.535156 L 200.855469 66.917969 L 193.199219 57.824219 C 192.957031 57.539062 192.90625 57.136719 193.070312 56.796875 C 193.234375 56.457031 193.578125 56.25 193.949219 56.261719 L 199.609375 56.429688 C 199.875 56.4375 200.125 56.5625 200.300781 56.765625 L 208.503906 66.511719 C 208.816406 66.878906 208.800781 67.429688 208.464844 67.78125 Z M 208.464844 67.78125 " fill-opacity="1" fill-rule="nonzero"/></g></g></g></svg>